<?xml version="1.0" encoding="UTF-8" standalone="no"?>
<!DOCTYPE svg PUBLIC "-//W3C//DTD SVG 1.1//EN"
 "http://www.w3.org/Graphics/SVG/1.1/DTD/svg11.dtd">
<!-- Generated by graphviz version 2.38.0 (20140413.2041)
 -->
<!-- Title: Control&#45;flow graph for function &#39;function_1105c()&#39;. Pages: 1 -->
<svg width="1088pt" height="1408pt"
 viewBox="0.00 0.00 1087.50 1408.00" xmlns="http://www.w3.org/2000/svg" xmlns:xlink="http://www.w3.org/1999/xlink">
<g id="graph0" class="graph" transform="scale(1 1) rotate(0) translate(4 1404)">
<title>Control&#45;flow graph for function &#39;function_1105c()&#39;.</title>
<polygon fill="white" stroke="none" points="-4,4 -4,-1404 1083.5,-1404 1083.5,4 -4,4"/>
<text text-anchor="middle" x="539.75" y="-7.8" font-family="Times,serif" font-size="14.00">Control&#45;flow graph for function &#39;function_1105c()&#39;.</text>
<!-- Node0x31ab52f0 -->
<g id="node1" class="node"><title>Node0x31ab52f0</title>
<polygon fill="none" stroke="black" points="704.5,-1363.5 704.5,-1399.5 763.5,-1399.5 763.5,-1363.5 704.5,-1363.5"/>
<text text-anchor="start" x="712.5" y="-1377.8" font-family="Times,serif" font-size="14.00">entry:</text>
</g>
<!-- Node0x4326f430 -->
<g id="node2" class="node"><title>Node0x4326f430</title>
<polygon fill="none" stroke="black" points="570,-1182.5 570,-1325.5 898,-1325.5 898,-1182.5 570,-1182.5"/>
<text text-anchor="start" x="578" y="-1310.3" font-family="Times,serif" font-size="14.00">0xf26fa50:</text>
<text text-anchor="start" x="578" y="-1295.3" font-family="Times,serif" font-size="14.00"> v1 = g29</text>
<text text-anchor="start" x="578" y="-1280.3" font-family="Times,serif" font-size="14.00"> v2 = *(IntToPtrCastExpr&lt;ptr&gt;((v1 + 4)))</text>
<text text-anchor="start" x="578" y="-1265.3" font-family="Times,serif" font-size="14.00"> g33 = v2</text>
<text text-anchor="start" x="578" y="-1250.3" font-family="Times,serif" font-size="14.00"> v3 = g38</text>
<text text-anchor="start" x="578" y="-1235.3" font-family="Times,serif" font-size="14.00"> v4 = g40</text>
<text text-anchor="start" x="578" y="-1220.3" font-family="Times,serif" font-size="14.00"> v5 = g35</text>
<text text-anchor="start" x="578" y="-1205.3" font-family="Times,serif" font-size="14.00"> v6 = *(IntToPtrCastExpr&lt;ptr&gt;((v2 + 18)))</text>
<text text-anchor="start" x="578" y="-1190.3" font-family="Times,serif" font-size="14.00"> v7 = v6</text>
</g>
<!-- Node0x31ab52f0&#45;&gt;Node0x4326f430 -->
<g id="edge1" class="edge"><title>Node0x31ab52f0&#45;&gt;Node0x4326f430</title>
<path fill="none" stroke="black" d="M734,-1363.31C734,-1355.68 734,-1346.1 734,-1335.81"/>
<polygon fill="black" stroke="black" points="737.5,-1335.77 734,-1325.77 730.5,-1335.77 737.5,-1335.77"/>
</g>
<!-- Node0x30d2a280 -->
<g id="node3" class="node"><title>Node0x30d2a280</title>
<polygon fill="none" stroke="black" points="680.5,-1106.5 680.5,-1144.5 787.5,-1144.5 787.5,-1106.5 680.5,-1106.5"/>
<text text-anchor="start" x="688.5" y="-1129.3" font-family="Times,serif" font-size="14.00">0x7b9a4c0:</text>
<text text-anchor="start" x="688.5" y="-1114.3" font-family="Times,serif" font-size="14.00"> if (v6 &gt; 99):</text>
</g>
<!-- Node0x4326f430&#45;&gt;Node0x30d2a280 -->
<g id="edge2" class="edge"><title>Node0x4326f430&#45;&gt;Node0x30d2a280</title>
<path fill="none" stroke="black" d="M734,-1182.35C734,-1172.59 734,-1163.07 734,-1154.74"/>
<polygon fill="black" stroke="black" points="737.5,-1154.54 734,-1144.54 730.5,-1154.54 737.5,-1154.54"/>
</g>
<!-- Node0x1fbe4620 -->
<g id="node4" class="node"><title>Node0x1fbe4620</title>
<polygon fill="none" stroke="black" points="633.5,-1016.5 633.5,-1054.5 734.5,-1054.5 734.5,-1016.5 633.5,-1016.5"/>
<text text-anchor="start" x="641.5" y="-1039.3" font-family="Times,serif" font-size="14.00">0x7b9a360:</text>
<text text-anchor="start" x="641.5" y="-1024.3" font-family="Times,serif" font-size="14.00"> v7 = 100</text>
</g>
<!-- Node0x30d2a280&#45;&gt;Node0x1fbe4620 -->
<g id="edge3" class="edge"><title>Node0x30d2a280&#45;&gt;Node0x1fbe4620</title>
<path fill="none" stroke="black" d="M714.231,-1106.49C709.036,-1100.97 703.824,-1094.59 700,-1088 695.885,-1080.9 692.712,-1072.63 690.319,-1064.82"/>
<polygon fill="black" stroke="black" points="693.633,-1063.67 687.609,-1054.96 686.883,-1065.53 693.633,-1063.67"/>
<text text-anchor="middle" x="728.5" y="-1076.8" font-family="Times,serif" font-size="14.00">v6 &gt; 99</text>
</g>
<!-- Node0x1fbe35b0 -->
<g id="node5" class="node"><title>Node0x1fbe35b0</title>
<polygon fill="none" stroke="black" points="484,-850.5 484,-978.5 1002,-978.5 1002,-850.5 484,-850.5"/>
<text text-anchor="start" x="492" y="-963.3" font-family="Times,serif" font-size="14.00">0x7b9a870:</text>
<text text-anchor="start" x="492" y="-948.3" font-family="Times,serif" font-size="14.00"> *(IntToPtrCastExpr&lt;ptr&gt;((v1 + 688))) = TruncCastExpr&lt;int16&gt;(v7)</text>
<text text-anchor="start" x="492" y="-933.3" font-family="Times,serif" font-size="14.00"> v8 = g33</text>
<text text-anchor="start" x="492" y="-918.3" font-family="Times,serif" font-size="14.00"> v9 = ExtCastExpr&lt;int32&gt;(*(IntToPtrCastExpr&lt;ptr&gt;((v8 + 16))))</text>
<text text-anchor="start" x="492" y="-903.3" font-family="Times,serif" font-size="14.00"> g40 = v9</text>
<text text-anchor="start" x="492" y="-888.3" font-family="Times,serif" font-size="14.00"> v10 = g29</text>
<text text-anchor="start" x="492" y="-873.3" font-family="Times,serif" font-size="14.00"> g35 = v10</text>
<text text-anchor="start" x="492" y="-858.3" font-family="Times,serif" font-size="14.00"> v11 = 0</text>
</g>
<!-- Node0x30d2a280&#45;&gt;Node0x1fbe35b0 -->
<g id="edge4" class="edge"><title>Node0x30d2a280&#45;&gt;Node0x1fbe35b0</title>
<path fill="none" stroke="black" d="M748.352,-1106.16C751.882,-1100.62 755.171,-1094.33 757,-1088 766.177,-1056.22 764.873,-1019.88 760.404,-988.767"/>
<polygon fill="black" stroke="black" points="763.858,-988.2 758.852,-978.863 756.943,-989.284 763.858,-988.2"/>
<text text-anchor="middle" x="798.5" y="-1031.8" font-family="Times,serif" font-size="14.00">v6 &lt;= 99</text>
</g>
<!-- Node0x1fbe4620&#45;&gt;Node0x1fbe35b0 -->
<g id="edge5" class="edge"><title>Node0x1fbe4620&#45;&gt;Node0x1fbe35b0</title>
<path fill="none" stroke="black" d="M692.961,-1016.43C696.965,-1008.35 701.972,-998.252 707.259,-987.588"/>
<polygon fill="black" stroke="black" points="710.444,-989.043 711.75,-978.529 704.172,-985.934 710.444,-989.043"/>
</g>
<!-- Node0x3783e7f0 -->
<g id="node6" class="node"><title>Node0x3783e7f0</title>
<polygon fill="none" stroke="black" points="692.5,-774.5 692.5,-812.5 793.5,-812.5 793.5,-774.5 692.5,-774.5"/>
<text text-anchor="start" x="700.5" y="-797.3" font-family="Times,serif" font-size="14.00">0x7ba4690:</text>
<text text-anchor="start" x="700.5" y="-782.3" font-family="Times,serif" font-size="14.00"> while True:</text>
</g>
<!-- Node0x1fbe35b0&#45;&gt;Node0x3783e7f0 -->
<g id="edge6" class="edge"><title>Node0x1fbe35b0&#45;&gt;Node0x3783e7f0</title>
<path fill="none" stroke="black" d="M743,-850.167C743,-840.596 743,-831.158 743,-822.848"/>
<polygon fill="black" stroke="black" points="746.5,-822.658 743,-812.659 739.5,-822.659 746.5,-822.658"/>
</g>
<!-- Node0x15eaca10 -->
<g id="node7" class="node"><title>Node0x15eaca10</title>
<polygon fill="none" stroke="black" points="232.5,-564.5 232.5,-722.5 791.5,-722.5 791.5,-564.5 232.5,-564.5"/>
<text text-anchor="start" x="240.5" y="-707.3" font-family="Times,serif" font-size="14.00">0xf2701c0:</text>
<text text-anchor="start" x="240.5" y="-692.3" font-family="Times,serif" font-size="14.00"> v12 = ExtCastExpr&lt;int32&gt;(*(IntToPtrCastExpr&lt;ptr&gt;((v8 + 16))))</text>
<text text-anchor="start" x="240.5" y="-677.3" font-family="Times,serif" font-size="14.00"> v13 = (v9 + 1)</text>
<text text-anchor="start" x="240.5" y="-662.3" font-family="Times,serif" font-size="14.00"> v14 = (v9 + v11)</text>
<text text-anchor="start" x="240.5" y="-647.3" font-family="Times,serif" font-size="14.00"> v15 = (ExtCastExpr&lt;int32&gt;(*(IntToPtrCastExpr&lt;ptr&gt;((v8 + 18)))) + v12)</text>
<text text-anchor="start" x="240.5" y="-632.3" font-family="Times,serif" font-size="14.00"> g30 = (65536 * v13)</text>
<text text-anchor="start" x="240.5" y="-617.3" font-family="Times,serif" font-size="14.00"> v16 = (v14 &#45; v15)</text>
<text text-anchor="start" x="240.5" y="-602.3" font-family="Times,serif" font-size="14.00"> v17 = ((v10 + 2624) + (2 * (v14 &#45; v12)))</text>
<text text-anchor="start" x="240.5" y="-587.3" font-family="Times,serif" font-size="14.00"> g29 = (v13 % 65536)</text>
<text text-anchor="start" x="240.5" y="-572.3" font-family="Times,serif" font-size="14.00"> g38 = (v11 + 1)</text>
</g>
<!-- Node0x3783e7f0&#45;&gt;Node0x15eaca10 -->
<g id="edge7" class="edge"><title>Node0x3783e7f0&#45;&gt;Node0x15eaca10</title>
<path fill="none" stroke="black" d="M714.675,-774.352C695.841,-762.286 669.614,-745.482 642.264,-727.959"/>
<polygon fill="black" stroke="black" points="644.055,-724.95 633.747,-722.502 640.279,-730.844 644.055,-724.95"/>
<text text-anchor="middle" x="699" y="-744.8" font-family="Times,serif" font-size="14.00">True</text>
</g>
<!-- Node0x13bec420 -->
<g id="node8" class="node"><title>Node0x13bec420</title>
<polygon fill="none" stroke="black" points="444,-488.5 444,-526.5 580,-526.5 580,-488.5 444,-488.5"/>
<text text-anchor="start" x="452" y="-511.3" font-family="Times,serif" font-size="14.00">0x7ba1240:</text>
<text text-anchor="start" x="452" y="-496.3" font-family="Times,serif" font-size="14.00"> if (v14 &gt;= v15):</text>
</g>
<!-- Node0x15eaca10&#45;&gt;Node0x13bec420 -->
<g id="edge8" class="edge"><title>Node0x15eaca10&#45;&gt;Node0x13bec420</title>
<path fill="none" stroke="black" d="M512,-564.164C512,-554.447 512,-545.058 512,-536.846"/>
<polygon fill="black" stroke="black" points="515.5,-536.801 512,-526.801 508.5,-536.801 515.5,-536.801"/>
</g>
<!-- Node0x43270940 -->
<g id="node9" class="node"><title>Node0x43270940</title>
<polygon fill="none" stroke="black" points="0,-278.5 0,-436.5 542,-436.5 542,-278.5 0,-278.5"/>
<text text-anchor="start" x="8" y="-421.3" font-family="Times,serif" font-size="14.00">0x7ba17d0:</text>
<text text-anchor="start" x="8" y="-406.3" font-family="Times,serif" font-size="14.00"> g8 = (((v16 ^ v14) &amp; (v15 ^ v14)) &lt; 0)</text>
<text text-anchor="start" x="8" y="-391.3" font-family="Times,serif" font-size="14.00"> g7 = (v16 &lt; 0)</text>
<text text-anchor="start" x="8" y="-376.3" font-family="Times,serif" font-size="14.00"> g36 = 686</text>
<text text-anchor="start" x="8" y="-361.3" font-family="Times,serif" font-size="14.00"> v18 = (ExtCastExpr&lt;int32&gt;(*(IntToPtrCastExpr&lt;ptr&gt;((v8 + 12)))) + 1)</text>
<text text-anchor="start" x="8" y="-346.3" font-family="Times,serif" font-size="14.00"> g37 = v18</text>
<text text-anchor="start" x="8" y="-331.3" font-family="Times,serif" font-size="14.00"> *(IntToPtrCastExpr&lt;ptr&gt;((v10 + 686))) = TruncCastExpr&lt;int16&gt;(v18)</text>
<text text-anchor="start" x="8" y="-316.3" font-family="Times,serif" font-size="14.00"> g38 = v3</text>
<text text-anchor="start" x="8" y="-301.3" font-family="Times,serif" font-size="14.00"> g40 = v4</text>
<text text-anchor="start" x="8" y="-286.3" font-family="Times,serif" font-size="14.00"> IntToPtrCastExpr&lt;ptr&gt;(v5)()</text>
</g>
<!-- Node0x13bec420&#45;&gt;Node0x43270940 -->
<g id="edge9" class="edge"><title>Node0x13bec420&#45;&gt;Node0x43270940</title>
<path fill="none" stroke="black" d="M482.449,-488.352C462.8,-476.286 435.437,-459.482 406.903,-441.959"/>
<polygon fill="black" stroke="black" points="408.37,-438.753 398.017,-436.502 404.707,-444.718 408.37,-438.753"/>
<text text-anchor="middle" x="491" y="-458.8" font-family="Times,serif" font-size="14.00">v14 &gt;= v15</text>
</g>
<!-- Node0x467c1f80 -->
<g id="node10" class="node"><title>Node0x467c1f80</title>
<polygon fill="none" stroke="black" points="560.5,-308.5 560.5,-406.5 1079.5,-406.5 1079.5,-308.5 560.5,-308.5"/>
<text text-anchor="start" x="568.5" y="-391.3" font-family="Times,serif" font-size="14.00">0x7b9fc10:</text>
<text text-anchor="start" x="568.5" y="-376.3" font-family="Times,serif" font-size="14.00"> *(IntToPtrCastExpr&lt;ptr&gt;(v17)) = TruncCastExpr&lt;int16&gt;((v9 &#45; v12))</text>
<text text-anchor="start" x="568.5" y="-361.3" font-family="Times,serif" font-size="14.00"> v10 = g35</text>
<text text-anchor="start" x="568.5" y="-346.3" font-family="Times,serif" font-size="14.00"> v11 = g38</text>
<text text-anchor="start" x="568.5" y="-331.3" font-family="Times,serif" font-size="14.00"> v9 = g29</text>
<text text-anchor="start" x="568.5" y="-316.3" font-family="Times,serif" font-size="14.00"> v8 = g33</text>
</g>
<!-- Node0x13bec420&#45;&gt;Node0x467c1f80 -->
<g id="edge10" class="edge"><title>Node0x13bec420&#45;&gt;Node0x467c1f80</title>
<path fill="none" stroke="black" d="M549.767,-488.352C589.71,-469.159 654.594,-437.981 710.772,-410.986"/>
<polygon fill="black" stroke="black" points="712.57,-414.005 720.068,-406.519 709.538,-407.696 712.57,-414.005"/>
<text text-anchor="middle" x="649" y="-458.8" font-family="Times,serif" font-size="14.00">v14 &lt; v15</text>
</g>
<!-- Node0x15eac100 -->
<g id="node11" class="node"><title>Node0x15eac100</title>
<polygon fill="none" stroke="black" points="221,-202.5 221,-240.5 321,-240.5 321,-202.5 221,-202.5"/>
<text text-anchor="start" x="229" y="-225.3" font-family="Times,serif" font-size="14.00">0x7ba41e0:</text>
<text text-anchor="start" x="229" y="-210.3" font-family="Times,serif" font-size="14.00"> if g9:</text>
</g>
<!-- Node0x43270940&#45;&gt;Node0x15eac100 -->
<g id="edge11" class="edge"><title>Node0x43270940&#45;&gt;Node0x15eac100</title>
<path fill="none" stroke="black" d="M271,-278.164C271,-268.447 271,-259.058 271,-250.846"/>
<polygon fill="black" stroke="black" points="274.5,-250.801 271,-240.801 267.5,-250.801 274.5,-250.801"/>
</g>
<!-- Node0x467c1f80&#45;&gt;Node0x3783e7f0 -->
<g id="edge12" class="edge"><title>Node0x467c1f80&#45;&gt;Node0x3783e7f0</title>
<path fill="none" stroke="black" d="M826.593,-406.793C834.377,-478.526 841.516,-616.235 800,-723 793.644,-739.345 781.884,-754.733 770.689,-766.854"/>
<polygon fill="black" stroke="black" points="767.904,-764.7 763.477,-774.325 772.94,-769.562 767.904,-764.7"/>
</g>
<!-- Node0x43269cd0 -->
<g id="node12" class="node"><title>Node0x43269cd0</title>
<polygon fill="none" stroke="black" points="120.5,-97.5 120.5,-150.5 317.5,-150.5 317.5,-97.5 120.5,-97.5"/>
<text text-anchor="start" x="128.5" y="-135.3" font-family="Times,serif" font-size="14.00">0x7ba3da0:</text>
<text text-anchor="start" x="128.5" y="-120.3" font-family="Times,serif" font-size="14.00"> g29 = (g29 &amp; (g35 / 32))</text>
<text text-anchor="start" x="128.5" y="-105.3" font-family="Times,serif" font-size="14.00"> return</text>
</g>
<!-- Node0x15eac100&#45;&gt;Node0x43269cd0 -->
<g id="edge13" class="edge"><title>Node0x15eac100&#45;&gt;Node0x43269cd0</title>
<path fill="none" stroke="black" d="M260.974,-202.087C254.437,-190.082 245.701,-174.038 237.892,-159.696"/>
<polygon fill="black" stroke="black" points="240.782,-157.685 232.927,-150.577 234.635,-161.033 240.782,-157.685"/>
<text text-anchor="middle" x="259.5" y="-172.8" font-family="Times,serif" font-size="14.00">g9</text>
</g>
<!-- Node0x45606c80 -->
<g id="node13" class="node"><title>Node0x45606c80</title>
<polygon fill="none" stroke="black" points="335.5,-105 335.5,-143 436.5,-143 436.5,-105 335.5,-105"/>
<text text-anchor="start" x="343.5" y="-127.8" font-family="Times,serif" font-size="14.00">0x7ba4300:</text>
<text text-anchor="start" x="343.5" y="-112.8" font-family="Times,serif" font-size="14.00"> return</text>
</g>
<!-- Node0x15eac100&#45;&gt;Node0x45606c80 -->
<g id="edge14" class="edge"><title>Node0x15eac100&#45;&gt;Node0x45606c80</title>
<path fill="none" stroke="black" d="M292.901,-202.312C310.886,-187.377 336.532,-166.08 356.354,-149.619"/>
<polygon fill="black" stroke="black" points="358.723,-152.201 364.18,-143.12 354.251,-146.816 358.723,-152.201"/>
<text text-anchor="middle" x="360.5" y="-172.8" font-family="Times,serif" font-size="14.00">not (g9)</text>
</g>
<!-- Node0x228298d0 -->
<g id="node14" class="node"><title>Node0x228298d0</title>
<polygon fill="none" stroke="black" points="293,-23.5 293,-59.5 347,-59.5 347,-23.5 293,-23.5"/>
<text text-anchor="start" x="301" y="-37.8" font-family="Times,serif" font-size="14.00">exit:</text>
</g>
<!-- Node0x43269cd0&#45;&gt;Node0x228298d0 -->
<g id="edge15" class="edge"><title>Node0x43269cd0&#45;&gt;Node0x228298d0</title>
<path fill="none" stroke="black" d="M251.235,-97.308C263.806,-87.2885 278.122,-75.8782 290.425,-66.0722"/>
<polygon fill="black" stroke="black" points="292.936,-68.5464 298.575,-59.5766 288.573,-63.0724 292.936,-68.5464"/>
</g>
<!-- Node0x45606c80&#45;&gt;Node0x228298d0 -->
<g id="edge16" class="edge"><title>Node0x45606c80&#45;&gt;Node0x228298d0</title>
<path fill="none" stroke="black" d="M371.024,-104.733C362,-93.7276 350.384,-79.5588 340.515,-67.5215"/>
<polygon fill="black" stroke="black" points="343.061,-65.1076 334.015,-59.5935 337.648,-69.5458 343.061,-65.1076"/>
</g>
</g>
</svg>
