<?xml version="1.0" encoding="UTF-8" standalone="no"?>
<!DOCTYPE svg PUBLIC "-//W3C//DTD SVG 1.1//EN"
 "http://www.w3.org/Graphics/SVG/1.1/DTD/svg11.dtd">
<!-- Generated by graphviz version 2.38.0 (20140413.2041)
 -->
<!-- Title: Control&#45;flow graph for function &#39;function_f378()&#39;. Pages: 1 -->
<svg width="373pt" height="216pt"
 viewBox="0.00 0.00 373.00 216.00" xmlns="http://www.w3.org/2000/svg" xmlns:xlink="http://www.w3.org/1999/xlink">
<g id="graph0" class="graph" transform="scale(1 1) rotate(0) translate(4 212)">
<title>Control&#45;flow graph for function &#39;function_f378()&#39;.</title>
<polygon fill="white" stroke="none" points="-4,4 -4,-212 369,-212 369,4 -4,4"/>
<text text-anchor="middle" x="182.5" y="-7.8" font-family="Times,serif" font-size="14.00">Control&#45;flow graph for function &#39;function_f378()&#39;.</text>
<!-- Node0x3fb57600 -->
<g id="node1" class="node"><title>Node0x3fb57600</title>
<polygon fill="none" stroke="black" points="153,-171.5 153,-207.5 212,-207.5 212,-171.5 153,-171.5"/>
<text text-anchor="start" x="161" y="-185.8" font-family="Times,serif" font-size="14.00">entry:</text>
</g>
<!-- Node0x3fb559c0 -->
<g id="node2" class="node"><title>Node0x3fb559c0</title>
<polygon fill="none" stroke="black" points="13.5,-96.5 13.5,-134.5 351.5,-134.5 351.5,-96.5 13.5,-96.5"/>
<text text-anchor="start" x="21.5" y="-119.3" font-family="Times,serif" font-size="14.00">0x77da880:</text>
<text text-anchor="start" x="21.5" y="-104.3" font-family="Times,serif" font-size="14.00"> g29 = *(IntToPtrCastExpr&lt;ptr&gt;((g29 + 8)))</text>
</g>
<!-- Node0x3fb57600&#45;&gt;Node0x3fb559c0 -->
<g id="edge1" class="edge"><title>Node0x3fb57600&#45;&gt;Node0x3fb559c0</title>
<path fill="none" stroke="black" d="M182.5,-171.437C182.5,-163.487 182.5,-153.813 182.5,-144.813"/>
<polygon fill="black" stroke="black" points="186,-144.699 182.5,-134.699 179,-144.699 186,-144.699"/>
</g>
<!-- Node0x3e4f4180 -->
<g id="node3" class="node"><title>Node0x3e4f4180</title>
<polygon fill="none" stroke="black" points="155.5,-23.5 155.5,-59.5 209.5,-59.5 209.5,-23.5 155.5,-23.5"/>
<text text-anchor="start" x="163.5" y="-37.8" font-family="Times,serif" font-size="14.00">exit:</text>
</g>
<!-- Node0x3fb559c0&#45;&gt;Node0x3e4f4180 -->
<g id="edge2" class="edge"><title>Node0x3fb559c0&#45;&gt;Node0x3e4f4180</title>
<path fill="none" stroke="black" d="M182.5,-96.3314C182.5,-88.394 182.5,-78.9095 182.5,-70.1285"/>
<polygon fill="black" stroke="black" points="186,-69.9177 182.5,-59.9177 179,-69.9177 186,-69.9177"/>
</g>
</g>
</svg>
