<?xml version="1.0" encoding="UTF-8" standalone="no"?>
<!DOCTYPE svg PUBLIC "-//W3C//DTD SVG 1.1//EN"
 "http://www.w3.org/Graphics/SVG/1.1/DTD/svg11.dtd">
<!-- Generated by graphviz version 2.38.0 (20140413.2041)
 -->
<!-- Title: Control&#45;flow graph for function &#39;function_23f4c()&#39;. Pages: 1 -->
<svg width="411pt" height="542pt"
 viewBox="0.00 0.00 411.00 542.00" xmlns="http://www.w3.org/2000/svg" xmlns:xlink="http://www.w3.org/1999/xlink">
<g id="graph0" class="graph" transform="scale(1 1) rotate(0) translate(4 538)">
<title>Control&#45;flow graph for function &#39;function_23f4c()&#39;.</title>
<polygon fill="white" stroke="none" points="-4,4 -4,-538 407,-538 407,4 -4,4"/>
<text text-anchor="middle" x="201.5" y="-7.8" font-family="Times,serif" font-size="14.00">Control&#45;flow graph for function &#39;function_23f4c()&#39;.</text>
<!-- Node0x3c6dd790 -->
<g id="node1" class="node"><title>Node0x3c6dd790</title>
<polygon fill="none" stroke="black" points="73.5,-497.5 73.5,-533.5 132.5,-533.5 132.5,-497.5 73.5,-497.5"/>
<text text-anchor="start" x="81.5" y="-511.8" font-family="Times,serif" font-size="14.00">entry:</text>
</g>
<!-- Node0x3c6e0220 -->
<g id="node2" class="node"><title>Node0x3c6e0220</title>
<polygon fill="none" stroke="black" points="43.5,-421.5 43.5,-459.5 162.5,-459.5 162.5,-421.5 43.5,-421.5"/>
<text text-anchor="start" x="51.5" y="-444.3" font-family="Times,serif" font-size="14.00">0xa4c3c60:</text>
<text text-anchor="start" x="51.5" y="-429.3" font-family="Times,serif" font-size="14.00"> if (g36 == 0):</text>
</g>
<!-- Node0x3c6dd790&#45;&gt;Node0x3c6e0220 -->
<g id="edge1" class="edge"><title>Node0x3c6dd790&#45;&gt;Node0x3c6e0220</title>
<path fill="none" stroke="black" d="M103,-497.2C103,-488.99 103,-478.969 103,-469.701"/>
<polygon fill="black" stroke="black" points="106.5,-469.694 103,-459.694 99.5001,-469.695 106.5,-469.694"/>
</g>
<!-- Node0x46611440 -->
<g id="node3" class="node"><title>Node0x46611440</title>
<polygon fill="none" stroke="black" points="0,-214.5 0,-312.5 100,-312.5 100,-214.5 0,-214.5"/>
<text text-anchor="start" x="8" y="-297.3" font-family="Times,serif" font-size="14.00">0xa4c3320:</text>
<text text-anchor="start" x="8" y="-282.3" font-family="Times,serif" font-size="14.00"> g29 = 1</text>
<text text-anchor="start" x="8" y="-267.3" font-family="Times,serif" font-size="14.00"> g30 = 0</text>
<text text-anchor="start" x="8" y="-252.3" font-family="Times,serif" font-size="14.00"> g7 = False</text>
<text text-anchor="start" x="8" y="-237.3" font-family="Times,serif" font-size="14.00"> g9 = True</text>
<text text-anchor="start" x="8" y="-222.3" font-family="Times,serif" font-size="14.00"> return</text>
</g>
<!-- Node0x3c6e0220&#45;&gt;Node0x46611440 -->
<g id="edge2" class="edge"><title>Node0x3c6e0220&#45;&gt;Node0x46611440</title>
<path fill="none" stroke="black" d="M73.1764,-421.229C67.1532,-416.099 61.578,-409.983 58,-403 45.4921,-378.589 42.5295,-348.488 43.0948,-322.591"/>
<polygon fill="black" stroke="black" points="46.595,-322.653 43.4924,-312.523 39.6004,-322.377 46.595,-322.653"/>
<text text-anchor="middle" x="93" y="-391.8" font-family="Times,serif" font-size="14.00">g36 == 0</text>
</g>
<!-- Node0x3c6dd3a0 -->
<g id="node4" class="node"><title>Node0x3c6dd3a0</title>
<polygon fill="none" stroke="black" points="78,-331.5 78,-369.5 260,-369.5 260,-331.5 78,-331.5"/>
<text text-anchor="start" x="86" y="-354.3" font-family="Times,serif" font-size="14.00">0xa4c6110:</text>
<text text-anchor="start" x="86" y="-339.3" font-family="Times,serif" font-size="14.00"> if (g39 &lt;= 16777216):</text>
</g>
<!-- Node0x3c6e0220&#45;&gt;Node0x3c6dd3a0 -->
<g id="edge3" class="edge"><title>Node0x3c6e0220&#45;&gt;Node0x3c6dd3a0</title>
<path fill="none" stroke="black" d="M116.675,-421.266C126.056,-408.759 138.652,-391.963 149.136,-377.986"/>
<polygon fill="black" stroke="black" points="152.142,-379.81 155.342,-369.71 146.542,-375.61 152.142,-379.81"/>
<text text-anchor="middle" x="171" y="-391.8" font-family="Times,serif" font-size="14.00">g36 != 0</text>
</g>
<!-- Node0x3c6ddda0 -->
<g id="node5" class="node"><title>Node0x3c6ddda0</title>
<polygon fill="none" stroke="black" points="101,-23.5 101,-59.5 155,-59.5 155,-23.5 101,-23.5"/>
<text text-anchor="start" x="109" y="-37.8" font-family="Times,serif" font-size="14.00">exit:</text>
</g>
<!-- Node0x46611440&#45;&gt;Node0x3c6ddda0 -->
<g id="edge4" class="edge"><title>Node0x46611440&#45;&gt;Node0x3c6ddda0</title>
<path fill="none" stroke="black" d="M46.8845,-214.327C46.6545,-179.876 50.5439,-133.364 69,-97 74.9758,-85.2261 84.6025,-74.706 94.362,-66.1229"/>
<polygon fill="black" stroke="black" points="96.6844,-68.7439 102.15,-59.6677 92.2174,-63.3545 96.6844,-68.7439"/>
</g>
<!-- Node0x3c6dcbe0 -->
<g id="node6" class="node"><title>Node0x3c6dcbe0</title>
<polygon fill="none" stroke="black" points="78,-97.5 78,-195.5 178,-195.5 178,-97.5 78,-97.5"/>
<text text-anchor="start" x="86" y="-180.3" font-family="Times,serif" font-size="14.00">0xa4c5860:</text>
<text text-anchor="start" x="86" y="-165.3" font-family="Times,serif" font-size="14.00"> g29 = 16</text>
<text text-anchor="start" x="86" y="-150.3" font-family="Times,serif" font-size="14.00"> g30 = 16</text>
<text text-anchor="start" x="86" y="-135.3" font-family="Times,serif" font-size="14.00"> g7 = False</text>
<text text-anchor="start" x="86" y="-120.3" font-family="Times,serif" font-size="14.00"> g9 = False</text>
<text text-anchor="start" x="86" y="-105.3" font-family="Times,serif" font-size="14.00"> return</text>
</g>
<!-- Node0x3c6dd3a0&#45;&gt;Node0x3c6dcbe0 -->
<g id="edge5" class="edge"><title>Node0x3c6dd3a0&#45;&gt;Node0x3c6dcbe0</title>
<path fill="none" stroke="black" d="M140.196,-331.154C134.453,-326.027 129.208,-319.931 126,-313 110.632,-279.797 111.046,-238.681 115.345,-205.737"/>
<polygon fill="black" stroke="black" points="118.815,-206.193 116.79,-195.793 111.888,-205.186 118.815,-206.193"/>
<text text-anchor="middle" x="192.5" y="-259.8" font-family="Times,serif" font-size="14.00">g39 &lt;= 16777216</text>
</g>
<!-- Node0x46612470 -->
<g id="node7" class="node"><title>Node0x46612470</title>
<polygon fill="none" stroke="black" points="203,-127.5 203,-165.5 343,-165.5 343,-127.5 203,-127.5"/>
<text text-anchor="start" x="211" y="-150.3" font-family="Times,serif" font-size="14.00">0xa4c6360:</text>
<text text-anchor="start" x="211" y="-135.3" font-family="Times,serif" font-size="14.00"> function_241f2()</text>
</g>
<!-- Node0x3c6dd3a0&#45;&gt;Node0x46612470 -->
<g id="edge6" class="edge"><title>Node0x3c6dd3a0&#45;&gt;Node0x46612470</title>
<path fill="none" stroke="black" d="M237.709,-331.395C245.943,-326.625 253.399,-320.602 259,-313 288.605,-272.816 284.576,-211.31 278.861,-175.687"/>
<polygon fill="black" stroke="black" points="282.251,-174.756 277.069,-165.515 275.357,-175.97 282.251,-174.756"/>
<text text-anchor="middle" x="342.5" y="-259.8" font-family="Times,serif" font-size="14.00">g39 &gt; 16777216</text>
</g>
<!-- Node0x3c6dcbe0&#45;&gt;Node0x3c6ddda0 -->
<g id="edge7" class="edge"><title>Node0x3c6dcbe0&#45;&gt;Node0x3c6ddda0</title>
<path fill="none" stroke="black" d="M128,-97.3173C128,-87.893 128,-78.32 128,-69.8676"/>
<polygon fill="black" stroke="black" points="131.5,-69.856 128,-59.8561 124.5,-69.8561 131.5,-69.856"/>
</g>
<!-- Node0x46612470&#45;&gt;Node0x3c6ddda0 -->
<g id="edge8" class="edge"><title>Node0x46612470&#45;&gt;Node0x3c6ddda0</title>
<path fill="none" stroke="black" d="M247.411,-127.323C223.306,-110.2 187.077,-84.4648 160.848,-65.8333"/>
<polygon fill="black" stroke="black" points="162.548,-62.7475 152.368,-59.8097 158.494,-68.4543 162.548,-62.7475"/>
</g>
</g>
</svg>
