<?xml version="1.0" encoding="UTF-8" standalone="no"?>
<!DOCTYPE svg PUBLIC "-//W3C//DTD SVG 1.1//EN"
 "http://www.w3.org/Graphics/SVG/1.1/DTD/svg11.dtd">
<!-- Generated by graphviz version 2.38.0 (20140413.2041)
 -->
<!-- Title: Control&#45;flow graph for function &#39;function_1f8ec()&#39;. Pages: 1 -->
<svg width="724pt" height="774pt"
 viewBox="0.00 0.00 724.00 774.00" xmlns="http://www.w3.org/2000/svg" xmlns:xlink="http://www.w3.org/1999/xlink">
<g id="graph0" class="graph" transform="scale(1 1) rotate(0) translate(4 770)">
<title>Control&#45;flow graph for function &#39;function_1f8ec()&#39;.</title>
<polygon fill="white" stroke="none" points="-4,4 -4,-770 720,-770 720,4 -4,4"/>
<text text-anchor="middle" x="358" y="-7.8" font-family="Times,serif" font-size="14.00">Control&#45;flow graph for function &#39;function_1f8ec()&#39;.</text>
<!-- Node0x34e57800 -->
<g id="node1" class="node"><title>Node0x34e57800</title>
<polygon fill="none" stroke="black" points="348,-729.5 348,-765.5 407,-765.5 407,-729.5 348,-729.5"/>
<text text-anchor="start" x="356" y="-743.8" font-family="Times,serif" font-size="14.00">entry:</text>
</g>
<!-- Node0x20d49110 -->
<g id="node2" class="node"><title>Node0x20d49110</title>
<polygon fill="none" stroke="black" points="78,-458.5 78,-691.5 677,-691.5 677,-458.5 78,-458.5"/>
<text text-anchor="start" x="86" y="-676.3" font-family="Times,serif" font-size="14.00">0x19c0a540:</text>
<text text-anchor="start" x="86" y="-661.3" font-family="Times,serif" font-size="14.00"> v1 = g29</text>
<text text-anchor="start" x="86" y="-646.3" font-family="Times,serif" font-size="14.00"> g29 = (v1 &#45; 32)</text>
<text text-anchor="start" x="86" y="-631.3" font-family="Times,serif" font-size="14.00"> *(IntToPtrCastExpr&lt;ptr&gt;(g36)) = *(IntToPtrCastExpr&lt;ptr&gt;((g30 + 4)))</text>
<text text-anchor="start" x="86" y="-616.3" font-family="Times,serif" font-size="14.00"> *(IntToPtrCastExpr&lt;ptr&gt;((g36 + 4))) = *(IntToPtrCastExpr&lt;ptr&gt;((g30 + 12)))</text>
<text text-anchor="start" x="86" y="-601.3" font-family="Times,serif" font-size="14.00"> *(IntToPtrCastExpr&lt;ptr&gt;((g36 + 8))) = *(IntToPtrCastExpr&lt;ptr&gt;((g30 + 20)))</text>
<text text-anchor="start" x="86" y="-586.3" font-family="Times,serif" font-size="14.00"> *(IntToPtrCastExpr&lt;ptr&gt;((g36 + 12))) = *(IntToPtrCastExpr&lt;ptr&gt;((g30 + 28)))</text>
<text text-anchor="start" x="86" y="-571.3" font-family="Times,serif" font-size="14.00"> *(IntToPtrCastExpr&lt;ptr&gt;((g36 + 16))) = *(IntToPtrCastExpr&lt;ptr&gt;((g30 + 36)))</text>
<text text-anchor="start" x="86" y="-556.3" font-family="Times,serif" font-size="14.00"> *(IntToPtrCastExpr&lt;ptr&gt;((g36 + 20))) = *(IntToPtrCastExpr&lt;ptr&gt;((g30 + 44)))</text>
<text text-anchor="start" x="86" y="-541.3" font-family="Times,serif" font-size="14.00"> *(IntToPtrCastExpr&lt;ptr&gt;((g36 + 24))) = *(IntToPtrCastExpr&lt;ptr&gt;((g30 + 52)))</text>
<text text-anchor="start" x="86" y="-526.3" font-family="Times,serif" font-size="14.00"> v2 = g30</text>
<text text-anchor="start" x="86" y="-511.3" font-family="Times,serif" font-size="14.00"> g30 = (v2 + 64)</text>
<text text-anchor="start" x="86" y="-496.3" font-family="Times,serif" font-size="14.00"> *(IntToPtrCastExpr&lt;ptr&gt;((g36 + 28))) = *(IntToPtrCastExpr&lt;ptr&gt;((v2 + 60)))</text>
<text text-anchor="start" x="86" y="-481.3" font-family="Times,serif" font-size="14.00"> v3 = (g36 + 32)</text>
<text text-anchor="start" x="86" y="-466.3" font-family="Times,serif" font-size="14.00"> g36 = v3</text>
</g>
<!-- Node0x34e57800&#45;&gt;Node0x20d49110 -->
<g id="edge1" class="edge"><title>Node0x34e57800&#45;&gt;Node0x20d49110</title>
<path fill="none" stroke="black" d="M377.5,-729.213C377.5,-721.694 377.5,-712.174 377.5,-701.573"/>
<polygon fill="black" stroke="black" points="381,-701.559 377.5,-691.559 374,-701.559 381,-701.559"/>
</g>
<!-- Node0x3dded920 -->
<g id="node3" class="node"><title>Node0x3dded920</title>
<polygon fill="none" stroke="black" points="307,-382.5 307,-420.5 448,-420.5 448,-382.5 307,-382.5"/>
<text text-anchor="start" x="315" y="-405.3" font-family="Times,serif" font-size="14.00">0x9c02d00:</text>
<text text-anchor="start" x="315" y="-390.3" font-family="Times,serif" font-size="14.00"> while (v1 != 32):</text>
</g>
<!-- Node0x20d49110&#45;&gt;Node0x3dded920 -->
<g id="edge2" class="edge"><title>Node0x20d49110&#45;&gt;Node0x3dded920</title>
<path fill="none" stroke="black" d="M377.5,-458.181C377.5,-448.254 377.5,-438.942 377.5,-430.881"/>
<polygon fill="black" stroke="black" points="381,-430.722 377.5,-420.722 374,-430.722 381,-430.722"/>
</g>
<!-- Node0x17bbbb60 -->
<g id="node4" class="node"><title>Node0x17bbbb60</title>
<polygon fill="none" stroke="black" points="0,-97.5 0,-330.5 599,-330.5 599,-97.5 0,-97.5"/>
<text text-anchor="start" x="8" y="-315.3" font-family="Times,serif" font-size="14.00">0x10c89990:</text>
<text text-anchor="start" x="8" y="-300.3" font-family="Times,serif" font-size="14.00"> v1 = g29</text>
<text text-anchor="start" x="8" y="-285.3" font-family="Times,serif" font-size="14.00"> g29 = (v1 &#45; 32)</text>
<text text-anchor="start" x="8" y="-270.3" font-family="Times,serif" font-size="14.00"> *(IntToPtrCastExpr&lt;ptr&gt;(v3)) = *(IntToPtrCastExpr&lt;ptr&gt;((g30 + 4)))</text>
<text text-anchor="start" x="8" y="-255.3" font-family="Times,serif" font-size="14.00"> *(IntToPtrCastExpr&lt;ptr&gt;((g36 + 4))) = *(IntToPtrCastExpr&lt;ptr&gt;((g30 + 12)))</text>
<text text-anchor="start" x="8" y="-240.3" font-family="Times,serif" font-size="14.00"> *(IntToPtrCastExpr&lt;ptr&gt;((g36 + 8))) = *(IntToPtrCastExpr&lt;ptr&gt;((g30 + 20)))</text>
<text text-anchor="start" x="8" y="-225.3" font-family="Times,serif" font-size="14.00"> *(IntToPtrCastExpr&lt;ptr&gt;((g36 + 12))) = *(IntToPtrCastExpr&lt;ptr&gt;((g30 + 28)))</text>
<text text-anchor="start" x="8" y="-210.3" font-family="Times,serif" font-size="14.00"> *(IntToPtrCastExpr&lt;ptr&gt;((g36 + 16))) = *(IntToPtrCastExpr&lt;ptr&gt;((g30 + 36)))</text>
<text text-anchor="start" x="8" y="-195.3" font-family="Times,serif" font-size="14.00"> *(IntToPtrCastExpr&lt;ptr&gt;((g36 + 20))) = *(IntToPtrCastExpr&lt;ptr&gt;((g30 + 44)))</text>
<text text-anchor="start" x="8" y="-180.3" font-family="Times,serif" font-size="14.00"> *(IntToPtrCastExpr&lt;ptr&gt;((g36 + 24))) = *(IntToPtrCastExpr&lt;ptr&gt;((g30 + 52)))</text>
<text text-anchor="start" x="8" y="-165.3" font-family="Times,serif" font-size="14.00"> v2 = g30</text>
<text text-anchor="start" x="8" y="-150.3" font-family="Times,serif" font-size="14.00"> g30 = (v2 + 64)</text>
<text text-anchor="start" x="8" y="-135.3" font-family="Times,serif" font-size="14.00"> *(IntToPtrCastExpr&lt;ptr&gt;((g36 + 28))) = *(IntToPtrCastExpr&lt;ptr&gt;((v2 + 60)))</text>
<text text-anchor="start" x="8" y="-120.3" font-family="Times,serif" font-size="14.00"> v3 = (g36 + 32)</text>
<text text-anchor="start" x="8" y="-105.3" font-family="Times,serif" font-size="14.00"> g36 = v3</text>
</g>
<!-- Node0x3dded920&#45;&gt;Node0x17bbbb60 -->
<g id="edge3" class="edge"><title>Node0x3dded920&#45;&gt;Node0x17bbbb60</title>
<path fill="none" stroke="black" d="M319.975,-382.476C312.261,-377.666 305.35,-371.61 300.5,-364 295.853,-356.709 292.403,-348.782 289.915,-340.51"/>
<polygon fill="black" stroke="black" points="293.269,-339.494 287.424,-330.658 286.482,-341.21 293.269,-339.494"/>
<text text-anchor="middle" x="332" y="-352.8" font-family="Times,serif" font-size="14.00">v1 != 32</text>
</g>
<!-- Node0x3ddf0240 -->
<g id="node5" class="node"><title>Node0x3ddf0240</title>
<polygon fill="none" stroke="black" points="617,-195 617,-233 716,-233 716,-195 617,-195"/>
<text text-anchor="start" x="625" y="-217.8" font-family="Times,serif" font-size="14.00">0x9c02aa0:</text>
<text text-anchor="start" x="625" y="-202.8" font-family="Times,serif" font-size="14.00"> g9 = True</text>
</g>
<!-- Node0x3dded920&#45;&gt;Node0x3ddf0240 -->
<g id="edge4" class="edge"><title>Node0x3dded920&#45;&gt;Node0x3ddf0240</title>
<path fill="none" stroke="black" d="M448.116,-394.048C497.836,-386.249 563.324,-369.028 608.5,-331 635.72,-308.087 651.436,-269.261 659.477,-242.899"/>
<polygon fill="black" stroke="black" points="662.888,-243.703 662.283,-233.126 656.16,-241.772 662.888,-243.703"/>
<text text-anchor="middle" x="616" y="-352.8" font-family="Times,serif" font-size="14.00">v1 == 32</text>
</g>
<!-- Node0x17bbbb60&#45;&gt;Node0x3dded920 -->
<g id="edge5" class="edge"><title>Node0x17bbbb60&#45;&gt;Node0x3dded920</title>
<path fill="none" stroke="black" d="M356.308,-330.657C358.841,-336.818 361.257,-342.958 363.5,-349 366.249,-356.405 368.72,-364.589 370.793,-372.212"/>
<polygon fill="black" stroke="black" points="367.467,-373.331 373.362,-382.134 374.243,-371.576 367.467,-373.331"/>
</g>
<!-- Node0x14108ff0 -->
<g id="node6" class="node"><title>Node0x14108ff0</title>
<polygon fill="none" stroke="black" points="639.5,-23.5 639.5,-59.5 693.5,-59.5 693.5,-23.5 639.5,-23.5"/>
<text text-anchor="start" x="647.5" y="-37.8" font-family="Times,serif" font-size="14.00">exit:</text>
</g>
<!-- Node0x3ddf0240&#45;&gt;Node0x14108ff0 -->
<g id="edge6" class="edge"><title>Node0x3ddf0240&#45;&gt;Node0x14108ff0</title>
<path fill="none" stroke="black" d="M666.5,-194.754C666.5,-164.702 666.5,-104.643 666.5,-69.6079"/>
<polygon fill="black" stroke="black" points="670,-69.5993 666.5,-59.5993 663,-69.5993 670,-69.5993"/>
</g>
</g>
</svg>
