<?xml version="1.0" encoding="UTF-8" standalone="no"?>
<!DOCTYPE svg PUBLIC "-//W3C//DTD SVG 1.1//EN"
 "http://www.w3.org/Graphics/SVG/1.1/DTD/svg11.dtd">
<!-- Generated by graphviz version 2.38.0 (20140413.2041)
 -->
<!-- Title: Control&#45;flow graph for function &#39;function_ae48()&#39;. Pages: 1 -->
<svg width="792pt" height="1872pt"
 viewBox="0.00 0.00 792.00 1872.00" xmlns="http://www.w3.org/2000/svg" xmlns:xlink="http://www.w3.org/1999/xlink">
<g id="graph0" class="graph" transform="scale(1 1) rotate(0) translate(4 1868)">
<title>Control&#45;flow graph for function &#39;function_ae48()&#39;.</title>
<polygon fill="white" stroke="none" points="-4,4 -4,-1868 788,-1868 788,4 -4,4"/>
<text text-anchor="middle" x="392" y="-7.8" font-family="Times,serif" font-size="14.00">Control&#45;flow graph for function &#39;function_ae48()&#39;.</text>
<!-- Node0x326a9b50 -->
<g id="node1" class="node"><title>Node0x326a9b50</title>
<polygon fill="none" stroke="black" points="318,-1827.5 318,-1863.5 377,-1863.5 377,-1827.5 318,-1827.5"/>
<text text-anchor="start" x="326" y="-1841.8" font-family="Times,serif" font-size="14.00">entry:</text>
</g>
<!-- Node0x1b8e4200 -->
<g id="node2" class="node"><title>Node0x1b8e4200</title>
<polygon fill="none" stroke="black" points="286,-1496.5 286,-1789.5 409,-1789.5 409,-1496.5 286,-1496.5"/>
<text text-anchor="start" x="294" y="-1774.3" font-family="Times,serif" font-size="14.00">0x72ae050:</text>
<text text-anchor="start" x="294" y="-1759.3" font-family="Times,serif" font-size="14.00"> v1 = g38</text>
<text text-anchor="start" x="294" y="-1744.3" font-family="Times,serif" font-size="14.00"> v2 = g39</text>
<text text-anchor="start" x="294" y="-1729.3" font-family="Times,serif" font-size="14.00"> v3 = g40</text>
<text text-anchor="start" x="294" y="-1714.3" font-family="Times,serif" font-size="14.00"> v4 = g41</text>
<text text-anchor="start" x="294" y="-1699.3" font-family="Times,serif" font-size="14.00"> v5 = g42</text>
<text text-anchor="start" x="294" y="-1684.3" font-family="Times,serif" font-size="14.00"> v6 = g32</text>
<text text-anchor="start" x="294" y="-1669.3" font-family="Times,serif" font-size="14.00"> v7 = g35</text>
<text text-anchor="start" x="294" y="-1654.3" font-family="Times,serif" font-size="14.00"> v8 = g30</text>
<text text-anchor="start" x="294" y="-1639.3" font-family="Times,serif" font-size="14.00"> g39 = 165012</text>
<text text-anchor="start" x="294" y="-1624.3" font-family="Times,serif" font-size="14.00"> g41 = v8</text>
<text text-anchor="start" x="294" y="-1609.3" font-family="Times,serif" font-size="14.00"> g42 = g29</text>
<text text-anchor="start" x="294" y="-1594.3" font-family="Times,serif" font-size="14.00"> v9 = g36</text>
<text text-anchor="start" x="294" y="-1579.3" font-family="Times,serif" font-size="14.00"> g40 = v9</text>
<text text-anchor="start" x="294" y="-1564.3" font-family="Times,serif" font-size="14.00"> v10</text>
<text text-anchor="start" x="294" y="-1549.3" font-family="Times,serif" font-size="14.00"> v11</text>
<text text-anchor="start" x="294" y="-1534.3" font-family="Times,serif" font-size="14.00"> v12</text>
<text text-anchor="start" x="294" y="-1519.3" font-family="Times,serif" font-size="14.00"> v13</text>
<text text-anchor="start" x="294" y="-1504.3" font-family="Times,serif" font-size="14.00"> v14</text>
</g>
<!-- Node0x326a9b50&#45;&gt;Node0x1b8e4200 -->
<g id="edge1" class="edge"><title>Node0x326a9b50&#45;&gt;Node0x1b8e4200</title>
<path fill="none" stroke="black" d="M347.5,-1827.41C347.5,-1820.01 347.5,-1810.6 347.5,-1799.97"/>
<polygon fill="black" stroke="black" points="351,-1799.89 347.5,-1789.89 344,-1799.89 351,-1799.89"/>
</g>
<!-- Node0x4759f090 -->
<g id="node3" class="node"><title>Node0x4759f090</title>
<polygon fill="none" stroke="black" points="190.5,-1420.5 190.5,-1458.5 504.5,-1458.5 504.5,-1420.5 190.5,-1420.5"/>
<text text-anchor="start" x="198.5" y="-1443.3" font-family="Times,serif" font-size="14.00">0x72b91e0:</text>
<text text-anchor="start" x="198.5" y="-1428.3" font-family="Times,serif" font-size="14.00"> if (*(IntToPtrCastExpr&lt;ptr&gt;(v8)) != 80):</text>
</g>
<!-- Node0x1b8e4200&#45;&gt;Node0x4759f090 -->
<g id="edge2" class="edge"><title>Node0x1b8e4200&#45;&gt;Node0x4759f090</title>
<path fill="none" stroke="black" d="M347.5,-1496.36C347.5,-1486.25 347.5,-1476.89 347.5,-1468.85"/>
<polygon fill="black" stroke="black" points="351,-1468.73 347.5,-1458.73 344,-1468.73 351,-1468.73"/>
</g>
<!-- Node0x34d02ca0 -->
<g id="node4" class="node"><title>Node0x34d02ca0</title>
<polygon fill="none" stroke="black" points="142,-1285.5 142,-1323.5 265,-1323.5 265,-1285.5 142,-1285.5"/>
<text text-anchor="start" x="150" y="-1308.3" font-family="Times,serif" font-size="14.00">0x72b9600:</text>
<text text-anchor="start" x="150" y="-1293.3" font-family="Times,serif" font-size="14.00"> g33 = 155288</text>
</g>
<!-- Node0x4759f090&#45;&gt;Node0x34d02ca0 -->
<g id="edge3" class="edge"><title>Node0x4759f090&#45;&gt;Node0x34d02ca0</title>
<path fill="none" stroke="black" d="M241.606,-1420.49C224.385,-1415.48 210.275,-1409.36 204.5,-1402 189.541,-1382.95 191.159,-1354.64 195.402,-1333.6"/>
<polygon fill="black" stroke="black" points="198.862,-1334.18 197.709,-1323.64 192.042,-1332.6 198.862,-1334.18"/>
<text text-anchor="middle" x="337" y="-1390.8" font-family="Times,serif" font-size="14.00">*(IntToPtrCastExpr&lt;ptr&gt;(v8)) != 80</text>
</g>
<!-- Node0x1d7cecc0 -->
<g id="node5" class="node"><title>Node0x1d7cecc0</title>
<polygon fill="none" stroke="black" points="420,-1240.5 420,-1368.5 563,-1368.5 563,-1240.5 420,-1240.5"/>
<text text-anchor="start" x="428" y="-1353.3" font-family="Times,serif" font-size="14.00">0x72b1eb0:</text>
<text text-anchor="start" x="428" y="-1338.3" font-family="Times,serif" font-size="14.00"> g36 = 155660</text>
<text text-anchor="start" x="428" y="-1323.3" font-family="Times,serif" font-size="14.00"> g30 = 40</text>
<text text-anchor="start" x="428" y="-1308.3" font-family="Times,serif" font-size="14.00"> g37 = (v8 + 4)</text>
<text text-anchor="start" x="428" y="-1293.3" font-family="Times,serif" font-size="14.00"> function_1343c()</text>
<text text-anchor="start" x="428" y="-1278.3" font-family="Times,serif" font-size="14.00"> v15 = g29</text>
<text text-anchor="start" x="428" y="-1263.3" font-family="Times,serif" font-size="14.00"> g9 = (v15 == 0)</text>
<text text-anchor="start" x="428" y="-1248.3" font-family="Times,serif" font-size="14.00"> v16 = 0</text>
</g>
<!-- Node0x4759f090&#45;&gt;Node0x1d7cecc0 -->
<g id="edge4" class="edge"><title>Node0x4759f090&#45;&gt;Node0x1d7cecc0</title>
<path fill="none" stroke="black" d="M444.479,-1420.41C453.797,-1415.62 462.401,-1409.59 469.5,-1402 475.837,-1395.23 480.479,-1387.02 483.86,-1378.29"/>
<polygon fill="black" stroke="black" points="487.232,-1379.24 487.055,-1368.64 480.587,-1377.03 487.232,-1379.24"/>
<text text-anchor="middle" x="614" y="-1390.8" font-family="Times,serif" font-size="14.00">*(IntToPtrCastExpr&lt;ptr&gt;(v8)) == 80</text>
</g>
<!-- Node0x17668d40 -->
<g id="node6" class="node"><title>Node0x17668d40</title>
<polygon fill="none" stroke="black" points="148.5,-1149.5 148.5,-1202.5 258.5,-1202.5 258.5,-1149.5 148.5,-1149.5"/>
<text text-anchor="start" x="156.5" y="-1187.3" font-family="Times,serif" font-size="14.00">0x72ba760:</text>
<text text-anchor="start" x="156.5" y="-1172.3" font-family="Times,serif" font-size="14.00"> if (v9 == 0):</text>
<text text-anchor="start" x="156.5" y="-1157.3" font-family="Times,serif" font-size="14.00"> else:</text>
</g>
<!-- Node0x34d02ca0&#45;&gt;Node0x17668d40 -->
<g id="edge5" class="edge"><title>Node0x34d02ca0&#45;&gt;Node0x17668d40</title>
<path fill="none" stroke="black" d="M203.5,-1285.38C203.5,-1266.45 203.5,-1236.28 203.5,-1212.57"/>
<polygon fill="black" stroke="black" points="207,-1212.53 203.5,-1202.53 200,-1212.53 207,-1212.53"/>
</g>
<!-- Node0x38e6d1a0 -->
<g id="node7" class="node"><title>Node0x38e6d1a0</title>
<polygon fill="none" stroke="black" points="435,-1157 435,-1195 548,-1195 548,-1157 435,-1157"/>
<text text-anchor="start" x="443" y="-1179.8" font-family="Times,serif" font-size="14.00">0x72b73b0:</text>
<text text-anchor="start" x="443" y="-1164.8" font-family="Times,serif" font-size="14.00"> if (v15 != 0):</text>
</g>
<!-- Node0x1d7cecc0&#45;&gt;Node0x38e6d1a0 -->
<g id="edge6" class="edge"><title>Node0x1d7cecc0&#45;&gt;Node0x38e6d1a0</title>
<path fill="none" stroke="black" d="M491.5,-1240.25C491.5,-1227.96 491.5,-1215.68 491.5,-1205.25"/>
<polygon fill="black" stroke="black" points="495,-1205.12 491.5,-1195.12 488,-1205.12 495,-1205.12"/>
</g>
<!-- Node0x3af10150 -->
<g id="node8" class="node"><title>Node0x3af10150</title>
<polygon fill="none" stroke="black" points="78,-1029.5 78,-1097.5 233,-1097.5 233,-1029.5 78,-1029.5"/>
<text text-anchor="start" x="86" y="-1082.3" font-family="Times,serif" font-size="14.00">0x72ba1b0:</text>
<text text-anchor="start" x="86" y="-1067.3" font-family="Times,serif" font-size="14.00"> v13 = g39</text>
<text text-anchor="start" x="86" y="-1052.3" font-family="Times,serif" font-size="14.00"> g40 = (v13 &#45; 9028)</text>
<text text-anchor="start" x="86" y="-1037.3" font-family="Times,serif" font-size="14.00"> v14 = v13</text>
</g>
<!-- Node0x17668d40&#45;&gt;Node0x3af10150 -->
<g id="edge7" class="edge"><title>Node0x17668d40&#45;&gt;Node0x3af10150</title>
<path fill="none" stroke="black" d="M192.367,-1149.37C186.869,-1136.71 180.093,-1121.11 173.855,-1106.75"/>
<polygon fill="black" stroke="black" points="177.047,-1105.32 169.853,-1097.54 170.627,-1108.11 177.047,-1105.32"/>
<text text-anchor="middle" x="214.5" y="-1119.8" font-family="Times,serif" font-size="14.00">v9 == 0</text>
</g>
<!-- Node0x2cae65c0 -->
<g id="node9" class="node"><title>Node0x2cae65c0</title>
<polygon fill="none" stroke="black" points="251.5,-1044.5 251.5,-1082.5 351.5,-1082.5 351.5,-1044.5 251.5,-1044.5"/>
<text text-anchor="start" x="259.5" y="-1067.3" font-family="Times,serif" font-size="14.00">0x72ba9a0:</text>
<text text-anchor="start" x="259.5" y="-1052.3" font-family="Times,serif" font-size="14.00"> v14 = g39</text>
</g>
<!-- Node0x17668d40&#45;&gt;Node0x2cae65c0 -->
<g id="edge8" class="edge"><title>Node0x17668d40&#45;&gt;Node0x2cae65c0</title>
<path fill="none" stroke="black" d="M230.7,-1149.47C236.705,-1143.54 242.933,-1137.16 248.5,-1131 260,-1118.27 271.978,-1103.4 281.632,-1090.95"/>
<polygon fill="black" stroke="black" points="284.595,-1092.84 287.91,-1082.78 279.043,-1088.58 284.595,-1092.84"/>
<text text-anchor="middle" x="288.5" y="-1119.8" font-family="Times,serif" font-size="14.00">v9 != 0</text>
</g>
<!-- Node0x1d7cdbc0 -->
<g id="node10" class="node"><title>Node0x1d7cdbc0</title>
<polygon fill="none" stroke="black" points="348,-263.5 348,-421.5 581,-421.5 581,-263.5 348,-263.5"/>
<text text-anchor="start" x="356" y="-406.3" font-family="Times,serif" font-size="14.00">0x72b7570:</text>
<text text-anchor="start" x="356" y="-391.3" font-family="Times,serif" font-size="14.00"> g29 = v16</text>
<text text-anchor="start" x="356" y="-376.3" font-family="Times,serif" font-size="14.00"> g38 = v1</text>
<text text-anchor="start" x="356" y="-361.3" font-family="Times,serif" font-size="14.00"> g39 = v2</text>
<text text-anchor="start" x="356" y="-346.3" font-family="Times,serif" font-size="14.00"> g40 = v3</text>
<text text-anchor="start" x="356" y="-331.3" font-family="Times,serif" font-size="14.00"> g41 = v4</text>
<text text-anchor="start" x="356" y="-316.3" font-family="Times,serif" font-size="14.00"> g42 = v5</text>
<text text-anchor="start" x="356" y="-301.3" font-family="Times,serif" font-size="14.00"> g32 = v6</text>
<text text-anchor="start" x="356" y="-286.3" font-family="Times,serif" font-size="14.00"> g34 = v10</text>
<text text-anchor="start" x="356" y="-271.3" font-family="Times,serif" font-size="14.00"> IntToPtrCastExpr&lt;ptr&gt;(v7)()</text>
</g>
<!-- Node0x38e6d1a0&#45;&gt;Node0x1d7cdbc0 -->
<g id="edge9" class="edge"><title>Node0x38e6d1a0&#45;&gt;Node0x1d7cdbc0</title>
<path fill="none" stroke="black" d="M471.171,-1156.82C450.818,-1136.51 422.5,-1101.59 422.5,-1064.5 422.5,-1064.5 422.5,-1064.5 422.5,-559 422.5,-516.662 430.407,-470.494 439.359,-431.791"/>
<polygon fill="black" stroke="black" points="442.873,-432.14 441.779,-421.602 436.063,-430.522 442.873,-432.14"/>
<text text-anchor="middle" x="457" y="-827.3" font-family="Times,serif" font-size="14.00">v15 == 0</text>
</g>
<!-- Node0x17667ff0 -->
<g id="node11" class="node"><title>Node0x17667ff0</title>
<polygon fill="none" stroke="black" points="528,-1037 528,-1090 647,-1090 647,-1037 528,-1037"/>
<text text-anchor="start" x="536" y="-1074.8" font-family="Times,serif" font-size="14.00">0x72b4850:</text>
<text text-anchor="start" x="536" y="-1059.8" font-family="Times,serif" font-size="14.00"> if (g40 == 0):</text>
<text text-anchor="start" x="536" y="-1044.8" font-family="Times,serif" font-size="14.00"> else:</text>
</g>
<!-- Node0x38e6d1a0&#45;&gt;Node0x17667ff0 -->
<g id="edge10" class="edge"><title>Node0x38e6d1a0&#45;&gt;Node0x17667ff0</title>
<path fill="none" stroke="black" d="M507.352,-1156.75C521.207,-1140.81 541.675,-1117.25 558.458,-1097.93"/>
<polygon fill="black" stroke="black" points="561.243,-1100.06 565.159,-1090.22 555.958,-1095.47 561.243,-1100.06"/>
<text text-anchor="middle" x="573" y="-1119.8" font-family="Times,serif" font-size="14.00">v15 != 0</text>
</g>
<!-- Node0x351d26b0 -->
<g id="node12" class="node"><title>Node0x351d26b0</title>
<polygon fill="none" stroke="black" points="105,-684.5 105,-977.5 356,-977.5 356,-684.5 105,-684.5"/>
<text text-anchor="start" x="113" y="-962.3" font-family="Times,serif" font-size="14.00">0x72bae60:</text>
<text text-anchor="start" x="113" y="-947.3" font-family="Times,serif" font-size="14.00"> v12 = (g42 + 2370)</text>
<text text-anchor="start" x="113" y="-932.3" font-family="Times,serif" font-size="14.00"> g38 = v12</text>
<text text-anchor="start" x="113" y="-917.3" font-family="Times,serif" font-size="14.00"> g36 = (v14 &#45; 9340)</text>
<text text-anchor="start" x="113" y="-902.3" font-family="Times,serif" font-size="14.00"> g37 = (g41 + 21)</text>
<text text-anchor="start" x="113" y="-887.3" font-family="Times,serif" font-size="14.00"> g29 = v12</text>
<text text-anchor="start" x="113" y="-872.3" font-family="Times,serif" font-size="14.00"> g30 = 128</text>
<text text-anchor="start" x="113" y="-857.3" font-family="Times,serif" font-size="14.00"> function_1343c()</text>
<text text-anchor="start" x="113" y="-842.3" font-family="Times,serif" font-size="14.00"> v11 = g29</text>
<text text-anchor="start" x="113" y="-827.3" font-family="Times,serif" font-size="14.00"> g9 = (v11 == 0)</text>
<text text-anchor="start" x="113" y="-812.3" font-family="Times,serif" font-size="14.00"> g29 = (0 if (v11 == 0) else g38)</text>
<text text-anchor="start" x="113" y="-797.3" font-family="Times,serif" font-size="14.00"> g38 = v1</text>
<text text-anchor="start" x="113" y="-782.3" font-family="Times,serif" font-size="14.00"> g39 = v2</text>
<text text-anchor="start" x="113" y="-767.3" font-family="Times,serif" font-size="14.00"> g40 = v3</text>
<text text-anchor="start" x="113" y="-752.3" font-family="Times,serif" font-size="14.00"> g41 = v4</text>
<text text-anchor="start" x="113" y="-737.3" font-family="Times,serif" font-size="14.00"> g42 = v5</text>
<text text-anchor="start" x="113" y="-722.3" font-family="Times,serif" font-size="14.00"> g32 = v6</text>
<text text-anchor="start" x="113" y="-707.3" font-family="Times,serif" font-size="14.00"> g34 = v10</text>
<text text-anchor="start" x="113" y="-692.3" font-family="Times,serif" font-size="14.00"> IntToPtrCastExpr&lt;ptr&gt;(v7)()</text>
</g>
<!-- Node0x3af10150&#45;&gt;Node0x351d26b0 -->
<g id="edge11" class="edge"><title>Node0x3af10150&#45;&gt;Node0x351d26b0</title>
<path fill="none" stroke="black" d="M166.246,-1029.47C170.137,-1017.52 174.829,-1003.09 179.886,-987.553"/>
<polygon fill="black" stroke="black" points="183.312,-988.336 183.078,-977.744 176.655,-986.171 183.312,-988.336"/>
</g>
<!-- Node0x2cae65c0&#45;&gt;Node0x351d26b0 -->
<g id="edge12" class="edge"><title>Node0x2cae65c0&#45;&gt;Node0x351d26b0</title>
<path fill="none" stroke="black" d="M295.929,-1044.41C291.676,-1030.61 285.362,-1010.11 278.307,-987.204"/>
<polygon fill="black" stroke="black" points="281.641,-986.138 275.352,-977.611 274.951,-988.199 281.641,-986.138"/>
</g>
<!-- Node0x44387b70 -->
<g id="node13" class="node"><title>Node0x44387b70</title>
<polygon fill="none" stroke="black" points="414.5,-187.5 414.5,-225.5 514.5,-225.5 514.5,-187.5 414.5,-187.5"/>
<text text-anchor="start" x="422.5" y="-210.3" font-family="Times,serif" font-size="14.00">0x72b8cc0:</text>
<text text-anchor="start" x="422.5" y="-195.3" font-family="Times,serif" font-size="14.00"> if g9:</text>
</g>
<!-- Node0x1d7cdbc0&#45;&gt;Node0x44387b70 -->
<g id="edge13" class="edge"><title>Node0x1d7cdbc0&#45;&gt;Node0x44387b70</title>
<path fill="none" stroke="black" d="M464.5,-263.164C464.5,-253.447 464.5,-244.058 464.5,-235.846"/>
<polygon fill="black" stroke="black" points="468,-235.801 464.5,-225.801 461,-235.801 468,-235.801"/>
</g>
<!-- Node0x3af103a0 -->
<g id="node14" class="node"><title>Node0x3af103a0</title>
<polygon fill="none" stroke="black" points="510,-797 510,-865 665,-865 665,-797 510,-797"/>
<text text-anchor="start" x="518" y="-849.8" font-family="Times,serif" font-size="14.00">0x72b4040:</text>
<text text-anchor="start" x="518" y="-834.8" font-family="Times,serif" font-size="14.00"> v13 = g39</text>
<text text-anchor="start" x="518" y="-819.8" font-family="Times,serif" font-size="14.00"> g40 = (v13 &#45; 9028)</text>
<text text-anchor="start" x="518" y="-804.8" font-family="Times,serif" font-size="14.00"> v14 = v13</text>
</g>
<!-- Node0x17667ff0&#45;&gt;Node0x3af103a0 -->
<g id="edge14" class="edge"><title>Node0x17667ff0&#45;&gt;Node0x3af103a0</title>
<path fill="none" stroke="black" d="M587.5,-1036.95C587.5,-997.858 587.5,-922.726 587.5,-875.097"/>
<polygon fill="black" stroke="black" points="591,-875.082 587.5,-865.083 584,-875.083 591,-875.082"/>
<text text-anchor="middle" x="622.5" y="-999.8" font-family="Times,serif" font-size="14.00">g40 == 0</text>
</g>
<!-- Node0x3af105b0 -->
<g id="node15" class="node"><title>Node0x3af105b0</title>
<polygon fill="none" stroke="black" points="683,-812 683,-850 784,-850 784,-812 683,-812"/>
<text text-anchor="start" x="691" y="-834.8" font-family="Times,serif" font-size="14.00">0x72b4c10:</text>
<text text-anchor="start" x="691" y="-819.8" font-family="Times,serif" font-size="14.00"> v14 = g39</text>
</g>
<!-- Node0x17667ff0&#45;&gt;Node0x3af105b0 -->
<g id="edge15" class="edge"><title>Node0x17667ff0&#45;&gt;Node0x3af105b0</title>
<path fill="none" stroke="black" d="M633.275,-1036.83C643.546,-1029.5 653.699,-1020.79 661.5,-1011 698.221,-964.898 718.477,-897.607 727.555,-860.034"/>
<polygon fill="black" stroke="black" points="730.97,-860.799 729.823,-850.267 724.152,-859.216 730.97,-860.799"/>
<text text-anchor="middle" x="702.5" y="-999.8" font-family="Times,serif" font-size="14.00">g40 != 0</text>
</g>
<!-- Node0x31d1b780 -->
<g id="node16" class="node"><title>Node0x31d1b780</title>
<polygon fill="none" stroke="black" points="180,-541 180,-579 281,-579 281,-541 180,-541"/>
<text text-anchor="start" x="188" y="-563.8" font-family="Times,serif" font-size="14.00">0x72bde10:</text>
<text text-anchor="start" x="188" y="-548.8" font-family="Times,serif" font-size="14.00"> if g9:</text>
</g>
<!-- Node0x351d26b0&#45;&gt;Node0x31d1b780 -->
<g id="edge16" class="edge"><title>Node0x351d26b0&#45;&gt;Node0x31d1b780</title>
<path fill="none" stroke="black" d="M230.5,-684.478C230.5,-648.143 230.5,-612.887 230.5,-589.415"/>
<polygon fill="black" stroke="black" points="234,-589.192 230.5,-579.192 227,-589.192 234,-589.192"/>
</g>
<!-- Node0x3af0ff60 -->
<g id="node17" class="node"><title>Node0x3af0ff60</title>
<polygon fill="none" stroke="black" points="246,-97.5 246,-135.5 461,-135.5 461,-97.5 246,-97.5"/>
<text text-anchor="start" x="254" y="-120.3" font-family="Times,serif" font-size="14.00">0x72b8a50:</text>
<text text-anchor="start" x="254" y="-105.3" font-family="Times,serif" font-size="14.00"> g34 = (g30 &amp; (g42 / 4096))</text>
</g>
<!-- Node0x44387b70&#45;&gt;Node0x3af0ff60 -->
<g id="edge17" class="edge"><title>Node0x44387b70&#45;&gt;Node0x3af0ff60</title>
<path fill="none" stroke="black" d="M441.77,-187.48C425.269,-174.398 402.747,-156.543 384.583,-142.142"/>
<polygon fill="black" stroke="black" points="386.592,-139.269 376.581,-135.799 382.243,-144.754 386.592,-139.269"/>
<text text-anchor="middle" x="425" y="-157.8" font-family="Times,serif" font-size="14.00">g9</text>
</g>
<!-- Node0x17667e00 -->
<g id="node18" class="node"><title>Node0x17667e00</title>
<polygon fill="none" stroke="black" points="326.5,-23.5 326.5,-59.5 380.5,-59.5 380.5,-23.5 326.5,-23.5"/>
<text text-anchor="start" x="334.5" y="-37.8" font-family="Times,serif" font-size="14.00">exit:</text>
</g>
<!-- Node0x44387b70&#45;&gt;Node0x17667e00 -->
<g id="edge18" class="edge"><title>Node0x44387b70&#45;&gt;Node0x17667e00</title>
<path fill="none" stroke="black" d="M471.515,-187.359C479.135,-164.396 488.042,-124.523 470.5,-97 453.039,-69.6043 417.831,-55.7589 390.577,-48.9025"/>
<polygon fill="black" stroke="black" points="391.104,-45.4326 380.574,-46.6033 389.536,-52.2547 391.104,-45.4326"/>
<text text-anchor="middle" x="509" y="-112.8" font-family="Times,serif" font-size="14.00">not (g9)</text>
</g>
<!-- Node0x2662fa10 -->
<g id="node19" class="node"><title>Node0x2662fa10</title>
<polygon fill="none" stroke="black" points="462.5,-473.5 462.5,-646.5 712.5,-646.5 712.5,-473.5 462.5,-473.5"/>
<text text-anchor="start" x="470.5" y="-631.3" font-family="Times,serif" font-size="14.00">0x72b5350:</text>
<text text-anchor="start" x="470.5" y="-616.3" font-family="Times,serif" font-size="14.00"> v12 = (g42 + 2370)</text>
<text text-anchor="start" x="470.5" y="-601.3" font-family="Times,serif" font-size="14.00"> g38 = v12</text>
<text text-anchor="start" x="470.5" y="-586.3" font-family="Times,serif" font-size="14.00"> g36 = (v14 &#45; 9340)</text>
<text text-anchor="start" x="470.5" y="-571.3" font-family="Times,serif" font-size="14.00"> g37 = (g41 + 21)</text>
<text text-anchor="start" x="470.5" y="-556.3" font-family="Times,serif" font-size="14.00"> g29 = v12</text>
<text text-anchor="start" x="470.5" y="-541.3" font-family="Times,serif" font-size="14.00"> g30 = 128</text>
<text text-anchor="start" x="470.5" y="-526.3" font-family="Times,serif" font-size="14.00"> function_1343c()</text>
<text text-anchor="start" x="470.5" y="-511.3" font-family="Times,serif" font-size="14.00"> v11 = g29</text>
<text text-anchor="start" x="470.5" y="-496.3" font-family="Times,serif" font-size="14.00"> g9 = (v11 == 0)</text>
<text text-anchor="start" x="470.5" y="-481.3" font-family="Times,serif" font-size="14.00"> v16 = (0 if (v11 == 0) else g38)</text>
</g>
<!-- Node0x3af103a0&#45;&gt;Node0x2662fa10 -->
<g id="edge19" class="edge"><title>Node0x3af103a0&#45;&gt;Node0x2662fa10</title>
<path fill="none" stroke="black" d="M587.5,-796.746C587.5,-761.969 587.5,-705.756 587.5,-656.944"/>
<polygon fill="black" stroke="black" points="591,-656.651 587.5,-646.651 584,-656.651 591,-656.651"/>
</g>
<!-- Node0x3af105b0&#45;&gt;Node0x2662fa10 -->
<g id="edge20" class="edge"><title>Node0x3af105b0&#45;&gt;Node0x2662fa10</title>
<path fill="none" stroke="black" d="M727.693,-811.866C718.324,-783.648 698.478,-727.909 674.5,-684 669.317,-674.509 663.539,-664.876 657.494,-655.393"/>
<polygon fill="black" stroke="black" points="660.255,-653.219 651.876,-646.736 654.383,-657.03 660.255,-653.219"/>
</g>
<!-- Node0x2cae66f0 -->
<g id="node20" class="node"><title>Node0x2cae66f0</title>
<polygon fill="none" stroke="black" points="0,-323.5 0,-361.5 215,-361.5 215,-323.5 0,-323.5"/>
<text text-anchor="start" x="8" y="-346.3" font-family="Times,serif" font-size="14.00">0x72bdc70:</text>
<text text-anchor="start" x="8" y="-331.3" font-family="Times,serif" font-size="14.00"> g34 = (g30 &amp; (g42 / 4096))</text>
</g>
<!-- Node0x31d1b780&#45;&gt;Node0x2cae66f0 -->
<g id="edge21" class="edge"><title>Node0x31d1b780&#45;&gt;Node0x2cae66f0</title>
<path fill="none" stroke="black" d="M220.225,-540.997C198.609,-503.126 148.336,-415.047 122.871,-370.43"/>
<polygon fill="black" stroke="black" points="125.829,-368.553 117.833,-361.603 119.75,-372.023 125.829,-368.553"/>
<text text-anchor="middle" x="179" y="-443.8" font-family="Times,serif" font-size="14.00">g9</text>
</g>
<!-- Node0x2e122110 -->
<g id="node21" class="node"><title>Node0x2e122110</title>
<polygon fill="none" stroke="black" points="168.5,-187.5 168.5,-225.5 266.5,-225.5 266.5,-187.5 168.5,-187.5"/>
<text text-anchor="start" x="176.5" y="-210.3" font-family="Times,serif" font-size="14.00">0x72bdf30:</text>
<text text-anchor="start" x="176.5" y="-195.3" font-family="Times,serif" font-size="14.00"> return</text>
</g>
<!-- Node0x31d1b780&#45;&gt;Node0x2e122110 -->
<g id="edge22" class="edge"><title>Node0x31d1b780&#45;&gt;Node0x2e122110</title>
<path fill="none" stroke="black" d="M230.601,-540.957C230.744,-494.706 230.415,-368.15 223.5,-263 222.921,-254.2 221.996,-244.643 221.043,-235.98"/>
<polygon fill="black" stroke="black" points="224.511,-235.5 219.889,-225.966 217.557,-236.301 224.511,-235.5"/>
<text text-anchor="middle" x="259" y="-338.8" font-family="Times,serif" font-size="14.00">not (g9)</text>
</g>
<!-- Node0x3af0ff60&#45;&gt;Node0x17667e00 -->
<g id="edge23" class="edge"><title>Node0x3af0ff60&#45;&gt;Node0x17667e00</title>
<path fill="none" stroke="black" d="M353.5,-97.4551C353.5,-89.2008 353.5,-79.2377 353.5,-70.0742"/>
<polygon fill="black" stroke="black" points="357,-69.8347 353.5,-59.8347 350,-69.8347 357,-69.8347"/>
</g>
<!-- Node0x2662fa10&#45;&gt;Node0x1d7cdbc0 -->
<g id="edge24" class="edge"><title>Node0x2662fa10&#45;&gt;Node0x1d7cdbc0</title>
<path fill="none" stroke="black" d="M538.534,-473.209C530.489,-459.115 522.146,-444.498 514.087,-430.377"/>
<polygon fill="black" stroke="black" points="517.107,-428.609 509.11,-421.659 511.028,-432.079 517.107,-428.609"/>
</g>
<!-- Node0x2cae66f0&#45;&gt;Node0x2e122110 -->
<g id="edge25" class="edge"><title>Node0x2cae66f0&#45;&gt;Node0x2e122110</title>
<path fill="none" stroke="black" d="M122.335,-323.428C141.361,-300.251 174.487,-259.898 196.203,-233.443"/>
<polygon fill="black" stroke="black" points="198.909,-235.664 202.549,-225.713 193.498,-231.222 198.909,-235.664"/>
</g>
<!-- Node0x2e122110&#45;&gt;Node0x17667e00 -->
<g id="edge26" class="edge"><title>Node0x2e122110&#45;&gt;Node0x17667e00</title>
<path fill="none" stroke="black" d="M215.868,-187.363C214.752,-164.041 216.254,-123.406 236.5,-97 256.025,-71.5341 290.318,-57.5049 316.746,-50.086"/>
<polygon fill="black" stroke="black" points="317.65,-53.4674 326.443,-47.5563 315.883,-46.6941 317.65,-53.4674"/>
</g>
</g>
</svg>
