<?xml version="1.0" encoding="UTF-8" standalone="no"?>
<!DOCTYPE svg PUBLIC "-//W3C//DTD SVG 1.1//EN"
 "http://www.w3.org/Graphics/SVG/1.1/DTD/svg11.dtd">
<!-- Generated by graphviz version 2.38.0 (20140413.2041)
 -->
<!-- Title: Control&#45;flow graph for function &#39;function_f360()&#39;. Pages: 1 -->
<svg width="373pt" height="535pt"
 viewBox="0.00 0.00 373.00 535.00" xmlns="http://www.w3.org/2000/svg" xmlns:xlink="http://www.w3.org/1999/xlink">
<g id="graph0" class="graph" transform="scale(1 1) rotate(0) translate(4 531)">
<title>Control&#45;flow graph for function &#39;function_f360()&#39;.</title>
<polygon fill="white" stroke="none" points="-4,4 -4,-531 369,-531 369,4 -4,4"/>
<text text-anchor="middle" x="182.5" y="-7.8" font-family="Times,serif" font-size="14.00">Control&#45;flow graph for function &#39;function_f360()&#39;.</text>
<!-- Node0x3fb55e60 -->
<g id="node1" class="node"><title>Node0x3fb55e60</title>
<polygon fill="none" stroke="black" points="153,-490.5 153,-526.5 212,-526.5 212,-490.5 153,-490.5"/>
<text text-anchor="start" x="161" y="-504.8" font-family="Times,serif" font-size="14.00">entry:</text>
</g>
<!-- Node0x3fb547c0 -->
<g id="node2" class="node"><title>Node0x3fb547c0</title>
<polygon fill="none" stroke="black" points="27,-354.5 27,-452.5 338,-452.5 338,-354.5 27,-354.5"/>
<text text-anchor="start" x="35" y="-437.3" font-family="Times,serif" font-size="14.00">0x11fe6fc0:</text>
<text text-anchor="start" x="35" y="-422.3" font-family="Times,serif" font-size="14.00"> v1 = IntToPtrCastExpr&lt;ptr&gt;((g29 + 8))</text>
<text text-anchor="start" x="35" y="-407.3" font-family="Times,serif" font-size="14.00"> v2 = *(v1)</text>
<text text-anchor="start" x="35" y="-392.3" font-family="Times,serif" font-size="14.00"> g37 = v2</text>
<text text-anchor="start" x="35" y="-377.3" font-family="Times,serif" font-size="14.00"> g9 = (v2 == 0)</text>
<text text-anchor="start" x="35" y="-362.3" font-family="Times,serif" font-size="14.00"> v3 = &#45;1</text>
</g>
<!-- Node0x3fb55e60&#45;&gt;Node0x3fb547c0 -->
<g id="edge1" class="edge"><title>Node0x3fb55e60&#45;&gt;Node0x3fb547c0</title>
<path fill="none" stroke="black" d="M182.5,-490.492C182.5,-482.692 182.5,-472.94 182.5,-462.829"/>
<polygon fill="black" stroke="black" points="186,-462.659 182.5,-452.659 179,-462.659 186,-462.659"/>
</g>
<!-- Node0x3fb53ca0 -->
<g id="node3" class="node"><title>Node0x3fb53ca0</title>
<polygon fill="none" stroke="black" points="127.5,-278.5 127.5,-316.5 237.5,-316.5 237.5,-278.5 127.5,-278.5"/>
<text text-anchor="start" x="135.5" y="-301.3" font-family="Times,serif" font-size="14.00">0x77d9140:</text>
<text text-anchor="start" x="135.5" y="-286.3" font-family="Times,serif" font-size="14.00"> if (v2 == 0):</text>
</g>
<!-- Node0x3fb547c0&#45;&gt;Node0x3fb53ca0 -->
<g id="edge2" class="edge"><title>Node0x3fb547c0&#45;&gt;Node0x3fb53ca0</title>
<path fill="none" stroke="black" d="M182.5,-354.458C182.5,-344.952 182.5,-335.27 182.5,-326.69"/>
<polygon fill="black" stroke="black" points="186,-326.509 182.5,-316.509 179,-326.509 186,-326.509"/>
</g>
<!-- Node0x3fb56f00 -->
<g id="node4" class="node"><title>Node0x3fb56f00</title>
<polygon fill="none" stroke="black" points="80.5,-173.5 80.5,-226.5 184.5,-226.5 184.5,-173.5 80.5,-173.5"/>
<text text-anchor="start" x="88.5" y="-211.3" font-family="Times,serif" font-size="14.00">0x77d8bf0:</text>
<text text-anchor="start" x="88.5" y="-196.3" font-family="Times,serif" font-size="14.00"> *(v1) = g30</text>
<text text-anchor="start" x="88.5" y="-181.3" font-family="Times,serif" font-size="14.00"> v3 = g37</text>
</g>
<!-- Node0x3fb53ca0&#45;&gt;Node0x3fb56f00 -->
<g id="edge3" class="edge"><title>Node0x3fb53ca0&#45;&gt;Node0x3fb56f00</title>
<path fill="none" stroke="black" d="M160.864,-278.449C155.488,-273.013 150.208,-266.696 146.5,-260 142.52,-252.812 139.665,-244.523 137.62,-236.473"/>
<polygon fill="black" stroke="black" points="140.995,-235.524 135.438,-226.504 134.157,-237.021 140.995,-235.524"/>
<text text-anchor="middle" x="176.5" y="-248.8" font-family="Times,serif" font-size="14.00">v2 == 0</text>
</g>
<!-- Node0x3fb56c00 -->
<g id="node5" class="node"><title>Node0x3fb56c00</title>
<polygon fill="none" stroke="black" points="142,-97.5 142,-135.5 243,-135.5 243,-97.5 142,-97.5"/>
<text text-anchor="start" x="150" y="-120.3" font-family="Times,serif" font-size="14.00">0x77d9390:</text>
<text text-anchor="start" x="150" y="-105.3" font-family="Times,serif" font-size="14.00"> g29 = v3</text>
</g>
<!-- Node0x3fb53ca0&#45;&gt;Node0x3fb56c00 -->
<g id="edge4" class="edge"><title>Node0x3fb53ca0&#45;&gt;Node0x3fb56c00</title>
<path fill="none" stroke="black" d="M197.469,-278.234C201.152,-272.705 204.586,-266.394 206.5,-260 217.991,-221.61 209.459,-175.064 201.564,-145.856"/>
<polygon fill="black" stroke="black" points="204.839,-144.578 198.723,-135.927 198.109,-146.504 204.839,-144.578"/>
<text text-anchor="middle" x="238.5" y="-196.3" font-family="Times,serif" font-size="14.00">v2 != 0</text>
</g>
<!-- Node0x3fb56f00&#45;&gt;Node0x3fb56c00 -->
<g id="edge5" class="edge"><title>Node0x3fb56f00&#45;&gt;Node0x3fb56c00</title>
<path fill="none" stroke="black" d="M151.484,-173.213C158.371,-163.858 166.157,-153.282 173.081,-143.877"/>
<polygon fill="black" stroke="black" points="176.037,-145.766 179.147,-135.638 170.4,-141.616 176.037,-145.766"/>
</g>
<!-- Node0x3fb55800 -->
<g id="node6" class="node"><title>Node0x3fb55800</title>
<polygon fill="none" stroke="black" points="165.5,-23.5 165.5,-59.5 219.5,-59.5 219.5,-23.5 165.5,-23.5"/>
<text text-anchor="start" x="173.5" y="-37.8" font-family="Times,serif" font-size="14.00">exit:</text>
</g>
<!-- Node0x3fb56c00&#45;&gt;Node0x3fb55800 -->
<g id="edge6" class="edge"><title>Node0x3fb56c00&#45;&gt;Node0x3fb55800</title>
<path fill="none" stroke="black" d="M192.5,-97.4551C192.5,-89.2008 192.5,-79.2377 192.5,-70.0742"/>
<polygon fill="black" stroke="black" points="196,-69.8347 192.5,-59.8347 189,-69.8347 196,-69.8347"/>
</g>
</g>
</svg>
