<?xml version="1.0" encoding="UTF-8" standalone="no"?>
<!DOCTYPE svg PUBLIC "-//W3C//DTD SVG 1.1//EN"
 "http://www.w3.org/Graphics/SVG/1.1/DTD/svg11.dtd">
<!-- Generated by graphviz version 2.38.0 (20140413.2041)
 -->
<!-- Title: Control&#45;flow graph for function &#39;function_208cc()&#39;. Pages: 1 -->
<svg width="385pt" height="396pt"
 viewBox="0.00 0.00 385.00 396.00" xmlns="http://www.w3.org/2000/svg" xmlns:xlink="http://www.w3.org/1999/xlink">
<g id="graph0" class="graph" transform="scale(1 1) rotate(0) translate(4 392)">
<title>Control&#45;flow graph for function &#39;function_208cc()&#39;.</title>
<polygon fill="white" stroke="none" points="-4,4 -4,-392 381,-392 381,4 -4,4"/>
<text text-anchor="middle" x="188.5" y="-7.8" font-family="Times,serif" font-size="14.00">Control&#45;flow graph for function &#39;function_208cc()&#39;.</text>
<!-- Node0x24467c60 -->
<g id="node1" class="node"><title>Node0x24467c60</title>
<polygon fill="none" stroke="black" points="159,-351.5 159,-387.5 218,-387.5 218,-351.5 159,-351.5"/>
<text text-anchor="start" x="167" y="-365.8" font-family="Times,serif" font-size="14.00">entry:</text>
</g>
<!-- Node0x9d6f730 -->
<g id="node2" class="node"><title>Node0x9d6f730</title>
<polygon fill="none" stroke="black" points="33,-96.5 33,-314.5 344,-314.5 344,-96.5 33,-96.5"/>
<text text-anchor="start" x="41" y="-299.3" font-family="Times,serif" font-size="14.00">0x1c16ec10:</text>
<text text-anchor="start" x="41" y="-284.3" font-family="Times,serif" font-size="14.00"> v1 = g38</text>
<text text-anchor="start" x="41" y="-269.3" font-family="Times,serif" font-size="14.00"> g38 = g29</text>
<text text-anchor="start" x="41" y="-254.3" font-family="Times,serif" font-size="14.00"> function_20864()</text>
<text text-anchor="start" x="41" y="-239.3" font-family="Times,serif" font-size="14.00"> v2 = IntToPtrCastExpr&lt;ptr&gt;((g29 + 4))</text>
<text text-anchor="start" x="41" y="-224.3" font-family="Times,serif" font-size="14.00"> *(v2) = (*(v2) &amp; &#45;3)</text>
<text text-anchor="start" x="41" y="-209.3" font-family="Times,serif" font-size="14.00"> v3 = IntToPtrCastExpr&lt;ptr&gt;((g38 + 4))</text>
<text text-anchor="start" x="41" y="-194.3" font-family="Times,serif" font-size="14.00"> v4 = (*(v3) &amp; &#45;2)</text>
<text text-anchor="start" x="41" y="-179.3" font-family="Times,serif" font-size="14.00"> g37 = v4</text>
<text text-anchor="start" x="41" y="-164.3" font-family="Times,serif" font-size="14.00"> *(v3) = v4</text>
<text text-anchor="start" x="41" y="-149.3" font-family="Times,serif" font-size="14.00"> g38 = v1</text>
<text text-anchor="start" x="41" y="-134.3" font-family="Times,serif" font-size="14.00"> v5</text>
<text text-anchor="start" x="41" y="-119.3" font-family="Times,serif" font-size="14.00"> g34 = v5</text>
<text text-anchor="start" x="41" y="-104.3" font-family="Times,serif" font-size="14.00"> IntToPtrCastExpr&lt;ptr&gt;(g35)()</text>
</g>
<!-- Node0x24467c60&#45;&gt;Node0x9d6f730 -->
<g id="edge1" class="edge"><title>Node0x24467c60&#45;&gt;Node0x9d6f730</title>
<path fill="none" stroke="black" d="M188.5,-351.469C188.5,-344.144 188.5,-334.901 188.5,-324.644"/>
<polygon fill="black" stroke="black" points="192,-324.529 188.5,-314.529 185,-324.529 192,-324.529"/>
</g>
<!-- Node0xf117f00 -->
<g id="node3" class="node"><title>Node0xf117f00</title>
<polygon fill="none" stroke="black" points="161.5,-23.5 161.5,-59.5 215.5,-59.5 215.5,-23.5 161.5,-23.5"/>
<text text-anchor="start" x="169.5" y="-37.8" font-family="Times,serif" font-size="14.00">exit:</text>
</g>
<!-- Node0x9d6f730&#45;&gt;Node0xf117f00 -->
<g id="edge2" class="edge"><title>Node0x9d6f730&#45;&gt;Node0xf117f00</title>
<path fill="none" stroke="black" d="M188.5,-96.4437C188.5,-86.8181 188.5,-77.7685 188.5,-69.9316"/>
<polygon fill="black" stroke="black" points="192,-69.7265 188.5,-59.7265 185,-69.7266 192,-69.7265"/>
</g>
</g>
</svg>
