<?xml version="1.0" encoding="UTF-8" standalone="no"?>
<!DOCTYPE svg PUBLIC "-//W3C//DTD SVG 1.1//EN"
 "http://www.w3.org/Graphics/SVG/1.1/DTD/svg11.dtd">
<!-- Generated by graphviz version 2.38.0 (20140413.2041)
 -->
<!-- Title: Control&#45;flow graph for function &#39;function_64fc()&#39;. Pages: 1 -->
<svg width="795pt" height="520pt"
 viewBox="0.00 0.00 795.00 520.00" xmlns="http://www.w3.org/2000/svg" xmlns:xlink="http://www.w3.org/1999/xlink">
<g id="graph0" class="graph" transform="scale(1 1) rotate(0) translate(4 516)">
<title>Control&#45;flow graph for function &#39;function_64fc()&#39;.</title>
<polygon fill="white" stroke="none" points="-4,4 -4,-516 791,-516 791,4 -4,4"/>
<text text-anchor="middle" x="393.5" y="-7.8" font-family="Times,serif" font-size="14.00">Control&#45;flow graph for function &#39;function_64fc()&#39;.</text>
<!-- Node0x3e1b3760 -->
<g id="node1" class="node"><title>Node0x3e1b3760</title>
<polygon fill="none" stroke="black" points="283.5,-475.5 283.5,-511.5 342.5,-511.5 342.5,-475.5 283.5,-475.5"/>
<text text-anchor="start" x="291.5" y="-489.8" font-family="Times,serif" font-size="14.00">entry:</text>
</g>
<!-- Node0x4809da40 -->
<g id="node2" class="node"><title>Node0x4809da40</title>
<polygon fill="none" stroke="black" points="264.5,-399.5 264.5,-437.5 361.5,-437.5 361.5,-399.5 264.5,-399.5"/>
<text text-anchor="start" x="272.5" y="-422.3" font-family="Times,serif" font-size="14.00">0xf787a80:</text>
<text text-anchor="start" x="272.5" y="-407.3" font-family="Times,serif" font-size="14.00"> v1</text>
</g>
<!-- Node0x3e1b3760&#45;&gt;Node0x4809da40 -->
<g id="edge1" class="edge"><title>Node0x3e1b3760&#45;&gt;Node0x4809da40</title>
<path fill="none" stroke="black" d="M313,-475.2C313,-466.99 313,-456.969 313,-447.701"/>
<polygon fill="black" stroke="black" points="316.5,-447.694 313,-437.694 309.5,-447.695 316.5,-447.694"/>
</g>
<!-- Node0x23580a00 -->
<g id="node3" class="node"><title>Node0x23580a00</title>
<polygon fill="none" stroke="black" points="130.5,-308.5 130.5,-361.5 495.5,-361.5 495.5,-308.5 130.5,-308.5"/>
<text text-anchor="start" x="138.5" y="-346.3" font-family="Times,serif" font-size="14.00">0x60fffb0:</text>
<text text-anchor="start" x="138.5" y="-331.3" font-family="Times,serif" font-size="14.00"> if (*(IntToPtrCastExpr&lt;ptr&gt;((g29 + 80))) != 0):</text>
<text text-anchor="start" x="138.5" y="-316.3" font-family="Times,serif" font-size="14.00"> else:</text>
</g>
<!-- Node0x4809da40&#45;&gt;Node0x23580a00 -->
<g id="edge2" class="edge"><title>Node0x4809da40&#45;&gt;Node0x23580a00</title>
<path fill="none" stroke="black" d="M313,-399.413C313,-391.285 313,-381.394 313,-371.864"/>
<polygon fill="black" stroke="black" points="316.5,-371.766 313,-361.766 309.5,-371.766 316.5,-371.766"/>
</g>
<!-- Node0x30c86ee0 -->
<g id="node4" class="node"><title>Node0x30c86ee0</title>
<polygon fill="none" stroke="black" points="-2.84217e-14,-173.5 -2.84217e-14,-256.5 338,-256.5 338,-173.5 -2.84217e-14,-173.5"/>
<text text-anchor="start" x="8" y="-241.3" font-family="Times,serif" font-size="14.00">0x465ce880:</text>
<text text-anchor="start" x="8" y="-226.3" font-family="Times,serif" font-size="14.00"> v2 = *(IntToPtrCastExpr&lt;ptr&gt;((g29 + 88)))</text>
<text text-anchor="start" x="8" y="-211.3" font-family="Times,serif" font-size="14.00"> g37 = v2</text>
<text text-anchor="start" x="8" y="-196.3" font-family="Times,serif" font-size="14.00"> g9 = (v2 == 0)</text>
<text text-anchor="start" x="8" y="-181.3" font-family="Times,serif" font-size="14.00"> v1 = (v2 != 0)</text>
</g>
<!-- Node0x23580a00&#45;&gt;Node0x30c86ee0 -->
<g id="edge3" class="edge"><title>Node0x23580a00&#45;&gt;Node0x30c86ee0</title>
<path fill="none" stroke="black" d="M173.323,-308.423C158.308,-303.18 146.482,-297.06 141,-290 135.551,-282.981 134.643,-274.785 136.33,-266.454"/>
<polygon fill="black" stroke="black" points="139.744,-267.264 139.386,-256.675 133.063,-265.176 139.744,-267.264"/>
<text text-anchor="middle" x="298.5" y="-278.8" font-family="Times,serif" font-size="14.00">*(IntToPtrCastExpr&lt;ptr&gt;((g29 + 80))) != 0</text>
</g>
<!-- Node0x2589b540 -->
<g id="node5" class="node"><title>Node0x2589b540</title>
<polygon fill="none" stroke="black" points="405.5,-196 405.5,-234 506.5,-234 506.5,-196 405.5,-196"/>
<text text-anchor="start" x="413.5" y="-218.8" font-family="Times,serif" font-size="14.00">0x6100130:</text>
<text text-anchor="start" x="413.5" y="-203.8" font-family="Times,serif" font-size="14.00"> v1 = 0</text>
</g>
<!-- Node0x23580a00&#45;&gt;Node0x2589b540 -->
<g id="edge4" class="edge"><title>Node0x23580a00&#45;&gt;Node0x2589b540</title>
<path fill="none" stroke="black" d="M441.029,-308.285C448.219,-303.196 454.671,-297.158 460,-290 469.614,-277.087 468.874,-259.119 465.605,-244.122"/>
<polygon fill="black" stroke="black" points="468.955,-243.098 463.034,-234.313 462.184,-244.873 468.955,-243.098"/>
<text text-anchor="middle" x="626.5" y="-278.8" font-family="Times,serif" font-size="14.00">*(IntToPtrCastExpr&lt;ptr&gt;((g29 + 80))) == 0</text>
</g>
<!-- Node0x248b5e60 -->
<g id="node6" class="node"><title>Node0x248b5e60</title>
<polygon fill="none" stroke="black" points="294.5,-97.5 294.5,-135.5 395.5,-135.5 395.5,-97.5 294.5,-97.5"/>
<text text-anchor="start" x="302.5" y="-120.3" font-family="Times,serif" font-size="14.00">0x6100330:</text>
<text text-anchor="start" x="302.5" y="-105.3" font-family="Times,serif" font-size="14.00"> g29 = v1</text>
</g>
<!-- Node0x30c86ee0&#45;&gt;Node0x248b5e60 -->
<g id="edge5" class="edge"><title>Node0x30c86ee0&#45;&gt;Node0x248b5e60</title>
<path fill="none" stroke="black" d="M242.875,-173.495C263.382,-162.251 284.941,-150.43 302.937,-140.563"/>
<polygon fill="black" stroke="black" points="304.913,-143.471 311.999,-135.594 301.548,-137.333 304.913,-143.471"/>
</g>
<!-- Node0x2589b540&#45;&gt;Node0x248b5e60 -->
<g id="edge6" class="edge"><title>Node0x2589b540&#45;&gt;Node0x248b5e60</title>
<path fill="none" stroke="black" d="M435.122,-195.849C417.68,-180.686 392.642,-158.919 373.382,-142.174"/>
<polygon fill="black" stroke="black" points="375.628,-139.489 365.785,-135.57 371.035,-144.772 375.628,-139.489"/>
</g>
<!-- Node0x3df2b040 -->
<g id="node7" class="node"><title>Node0x3df2b040</title>
<polygon fill="none" stroke="black" points="318,-23.5 318,-59.5 372,-59.5 372,-23.5 318,-23.5"/>
<text text-anchor="start" x="326" y="-37.8" font-family="Times,serif" font-size="14.00">exit:</text>
</g>
<!-- Node0x248b5e60&#45;&gt;Node0x3df2b040 -->
<g id="edge7" class="edge"><title>Node0x248b5e60&#45;&gt;Node0x3df2b040</title>
<path fill="none" stroke="black" d="M345,-97.4551C345,-89.2008 345,-79.2377 345,-70.0742"/>
<polygon fill="black" stroke="black" points="348.5,-69.8347 345,-59.8347 341.5,-69.8347 348.5,-69.8347"/>
</g>
</g>
</svg>
