<?xml version="1.0" encoding="UTF-8" standalone="no"?>
<!DOCTYPE svg PUBLIC "-//W3C//DTD SVG 1.1//EN"
 "http://www.w3.org/Graphics/SVG/1.1/DTD/svg11.dtd">
<!-- Generated by graphviz version 2.38.0 (20140413.2041)
 -->
<!-- Title: Control&#45;flow graph for function &#39;function_17324()&#39;. Pages: 1 -->
<svg width="766pt" height="971pt"
 viewBox="0.00 0.00 766.00 971.00" xmlns="http://www.w3.org/2000/svg" xmlns:xlink="http://www.w3.org/1999/xlink">
<g id="graph0" class="graph" transform="scale(1 1) rotate(0) translate(4 967)">
<title>Control&#45;flow graph for function &#39;function_17324()&#39;.</title>
<polygon fill="white" stroke="none" points="-4,4 -4,-967 762,-967 762,4 -4,4"/>
<text text-anchor="middle" x="379" y="-7.8" font-family="Times,serif" font-size="14.00">Control&#45;flow graph for function &#39;function_17324()&#39;.</text>
<!-- Node0x451a9c60 -->
<g id="node1" class="node"><title>Node0x451a9c60</title>
<polygon fill="none" stroke="black" points="428,-926.5 428,-962.5 487,-962.5 487,-926.5 428,-926.5"/>
<text text-anchor="start" x="436" y="-940.8" font-family="Times,serif" font-size="14.00">entry:</text>
</g>
<!-- Node0x451a93e0 -->
<g id="node2" class="node"><title>Node0x451a93e0</title>
<polygon fill="none" stroke="black" points="392.5,-760.5 392.5,-888.5 522.5,-888.5 522.5,-760.5 392.5,-760.5"/>
<text text-anchor="start" x="400.5" y="-873.3" font-family="Times,serif" font-size="14.00">0x104a3f50:</text>
<text text-anchor="start" x="400.5" y="-858.3" font-family="Times,serif" font-size="14.00"> v1 = NULL</text>
<text text-anchor="start" x="400.5" y="-843.3" font-family="Times,serif" font-size="14.00"> g36 = 5748</text>
<text text-anchor="start" x="400.5" y="-828.3" font-family="Times,serif" font-size="14.00"> g37 = 165012</text>
<text text-anchor="start" x="400.5" y="-813.3" font-family="Times,serif" font-size="14.00"> v2 = g18</text>
<text text-anchor="start" x="400.5" y="-798.3" font-family="Times,serif" font-size="14.00"> g29 = v2</text>
<text text-anchor="start" x="400.5" y="-783.3" font-family="Times,serif" font-size="14.00"> g6 = True</text>
<text text-anchor="start" x="400.5" y="-768.3" font-family="Times,serif" font-size="14.00"> g9 = (v2 == 0)</text>
</g>
<!-- Node0x451a9c60&#45;&gt;Node0x451a93e0 -->
<g id="edge1" class="edge"><title>Node0x451a9c60&#45;&gt;Node0x451a93e0</title>
<path fill="none" stroke="black" d="M457.5,-926.342C457.5,-918.719 457.5,-909.177 457.5,-899.023"/>
<polygon fill="black" stroke="black" points="461,-898.713 457.5,-888.713 454,-898.713 461,-898.713"/>
</g>
<!-- Node0x451a9ac0 -->
<g id="node3" class="node"><title>Node0x451a9ac0</title>
<polygon fill="none" stroke="black" points="402.5,-684.5 402.5,-722.5 512.5,-722.5 512.5,-684.5 402.5,-684.5"/>
<text text-anchor="start" x="410.5" y="-707.3" font-family="Times,serif" font-size="14.00">0x86ecbe0:</text>
<text text-anchor="start" x="410.5" y="-692.3" font-family="Times,serif" font-size="14.00"> if (v2 == 0):</text>
</g>
<!-- Node0x451a93e0&#45;&gt;Node0x451a9ac0 -->
<g id="edge2" class="edge"><title>Node0x451a93e0&#45;&gt;Node0x451a9ac0</title>
<path fill="none" stroke="black" d="M457.5,-760.167C457.5,-750.596 457.5,-741.158 457.5,-732.848"/>
<polygon fill="black" stroke="black" points="461,-732.658 457.5,-722.659 454,-732.659 461,-732.658"/>
</g>
<!-- Node0x451a63b0 -->
<g id="node4" class="node"><title>Node0x451a63b0</title>
<polygon fill="none" stroke="black" points="360,-594.5 360,-632.5 459,-632.5 459,-594.5 360,-594.5"/>
<text text-anchor="start" x="368" y="-617.3" font-family="Times,serif" font-size="14.00">0x86eca80:</text>
<text text-anchor="start" x="368" y="-602.3" font-family="Times,serif" font-size="14.00"> g29 = 6</text>
</g>
<!-- Node0x451a9ac0&#45;&gt;Node0x451a63b0 -->
<g id="edge3" class="edge"><title>Node0x451a9ac0&#45;&gt;Node0x451a63b0</title>
<path fill="none" stroke="black" d="M435.846,-684.458C430.47,-679.022 425.195,-672.704 421.5,-666 417.556,-658.844 414.904,-650.439 413.122,-642.519"/>
<polygon fill="black" stroke="black" points="416.532,-641.713 411.246,-632.531 409.653,-643.006 416.532,-641.713"/>
<text text-anchor="middle" x="451.5" y="-654.8" font-family="Times,serif" font-size="14.00">v2 == 0</text>
</g>
<!-- Node0x451a9ef0 -->
<g id="node5" class="node"><title>Node0x451a9ef0</title>
<polygon fill="none" stroke="black" points="177,-293.5 177,-556.5 758,-556.5 758,-293.5 177,-293.5"/>
<text text-anchor="start" x="185" y="-541.3" font-family="Times,serif" font-size="14.00">0x86ed0a0:</text>
<text text-anchor="start" x="185" y="-526.3" font-family="Times,serif" font-size="14.00"> g34 = PtrToIntCastExpr&lt;int32&gt;(v1)</text>
<text text-anchor="start" x="185" y="-511.3" font-family="Times,serif" font-size="14.00"> IntToPtrCastExpr&lt;ptr&gt;(ExtCastExpr&lt;int32&gt;((v2 == 0)))()</text>
<text text-anchor="start" x="185" y="-496.3" font-family="Times,serif" font-size="14.00"> g38 = 0</text>
<text text-anchor="start" x="185" y="-481.3" font-family="Times,serif" font-size="14.00"> function_10088()</text>
<text text-anchor="start" x="185" y="-466.3" font-family="Times,serif" font-size="14.00"> memset(IntToPtrCastExpr&lt;ptr&gt;(g39), g10, PtrToIntCastExpr&lt;int32&gt;(&quot;out&quot;))</text>
<text text-anchor="start" x="185" y="-451.3" font-family="Times,serif" font-size="14.00"> v3 = g38</text>
<text text-anchor="start" x="185" y="-436.3" font-family="Times,serif" font-size="14.00"> g29 = v3</text>
<text text-anchor="start" x="185" y="-421.3" font-family="Times,serif" font-size="14.00"> *(IntToPtrCastExpr&lt;ptr&gt;((g39 + 2856))) = v3</text>
<text text-anchor="start" x="185" y="-406.3" font-family="Times,serif" font-size="14.00"> function_f6c0()</text>
<text text-anchor="start" x="185" y="-391.3" font-family="Times,serif" font-size="14.00"> g29 = g38</text>
<text text-anchor="start" x="185" y="-376.3" font-family="Times,serif" font-size="14.00"> g38 = *(IntToPtrCastExpr&lt;ptr&gt;(g34))</text>
<text text-anchor="start" x="185" y="-361.3" font-family="Times,serif" font-size="14.00"> g39 = v1[&#39;1&#39;]</text>
<text text-anchor="start" x="185" y="-346.3" font-family="Times,serif" font-size="14.00"> g32 = v1[&#39;2&#39;]</text>
<text text-anchor="start" x="185" y="-331.3" font-family="Times,serif" font-size="14.00"> g34 = v1[&#39;3&#39;]</text>
<text text-anchor="start" x="185" y="-316.3" font-family="Times,serif" font-size="14.00"> IntToPtrCastExpr&lt;ptr&gt;(v1[&#39;4&#39;])()</text>
<text text-anchor="start" x="185" y="-301.3" font-family="Times,serif" font-size="14.00"> v4 = g29</text>
</g>
<!-- Node0x451a9ac0&#45;&gt;Node0x451a9ef0 -->
<g id="edge4" class="edge"><title>Node0x451a9ac0&#45;&gt;Node0x451a9ef0</title>
<path fill="none" stroke="black" d="M472.469,-684.234C476.152,-678.705 479.586,-672.394 481.5,-666 483.412,-659.613 481.707,-657.663 481.5,-651 480.653,-623.737 479.229,-594.643 477.606,-566.736"/>
<polygon fill="black" stroke="black" points="481.086,-566.288 477,-556.513 474.098,-566.703 481.086,-566.288"/>
<text text-anchor="middle" x="508.5" y="-609.8" font-family="Times,serif" font-size="14.00">v2 != 0</text>
</g>
<!-- Node0x451a63b0&#45;&gt;Node0x451a9ef0 -->
<g id="edge5" class="edge"><title>Node0x451a63b0&#45;&gt;Node0x451a9ef0</title>
<path fill="none" stroke="black" d="M415.167,-594.278C417.526,-586.693 420.49,-577.163 423.801,-566.516"/>
<polygon fill="black" stroke="black" points="427.166,-567.48 426.794,-556.892 420.482,-565.402 427.166,-567.48"/>
</g>
<!-- Node0x451ab190 -->
<g id="node6" class="node"><title>Node0x451ab190</title>
<polygon fill="none" stroke="black" points="420.5,-217.5 420.5,-255.5 514.5,-255.5 514.5,-217.5 420.5,-217.5"/>
<text text-anchor="start" x="428.5" y="-240.3" font-family="Times,serif" font-size="14.00">0x86f38f0:</text>
<text text-anchor="start" x="428.5" y="-225.3" font-family="Times,serif" font-size="14.00"> if g9:</text>
</g>
<!-- Node0x451a9ef0&#45;&gt;Node0x451ab190 -->
<g id="edge6" class="edge"><title>Node0x451a9ef0&#45;&gt;Node0x451ab190</title>
<path fill="none" stroke="black" d="M467.5,-293.456C467.5,-283.355 467.5,-273.953 467.5,-265.849"/>
<polygon fill="black" stroke="black" points="471,-265.658 467.5,-255.658 464,-265.658 471,-265.658"/>
</g>
<!-- Node0x37ee41a0 -->
<g id="node7" class="node"><title>Node0x37ee41a0</title>
<polygon fill="none" stroke="black" points="0,-97.5 0,-165.5 503,-165.5 503,-97.5 0,-97.5"/>
<text text-anchor="start" x="8" y="-150.3" font-family="Times,serif" font-size="14.00">0x2469f040:</text>
<text text-anchor="start" x="8" y="-135.3" font-family="Times,serif" font-size="14.00"> v5 = (g40 % 256)</text>
<text text-anchor="start" x="8" y="-120.3" font-family="Times,serif" font-size="14.00"> g30 = ((g38 &gt;&gt; (0 if (v5 == 0) else (31 if (v5 &gt; 31) else v5))) &amp; v4)</text>
<text text-anchor="start" x="8" y="-105.3" font-family="Times,serif" font-size="14.00"> g29 = ((g42 / 4194304) &amp; v4)</text>
</g>
<!-- Node0x451ab190&#45;&gt;Node0x37ee41a0 -->
<g id="edge7" class="edge"><title>Node0x451ab190&#45;&gt;Node0x37ee41a0</title>
<path fill="none" stroke="black" d="M429.381,-217.323C402.037,-204.284 364.22,-186.251 330.483,-170.163"/>
<polygon fill="black" stroke="black" points="331.62,-166.828 321.087,-165.683 328.607,-173.146 331.62,-166.828"/>
<text text-anchor="middle" x="395" y="-187.8" font-family="Times,serif" font-size="14.00">g9</text>
</g>
<!-- Node0x451a9fa0 -->
<g id="node8" class="node"><title>Node0x451a9fa0</title>
<polygon fill="none" stroke="black" points="434.5,-23.5 434.5,-59.5 488.5,-59.5 488.5,-23.5 434.5,-23.5"/>
<text text-anchor="start" x="442.5" y="-37.8" font-family="Times,serif" font-size="14.00">exit:</text>
</g>
<!-- Node0x451ab190&#45;&gt;Node0x451a9fa0 -->
<g id="edge8" class="edge"><title>Node0x451ab190&#45;&gt;Node0x451a9fa0</title>
<path fill="none" stroke="black" d="M483.559,-217.226C494.058,-204.004 506.838,-185.161 512.5,-166 521.19,-136.59 523.764,-125.523 512.5,-97 508.009,-85.6272 499.899,-75.2339 491.45,-66.6431"/>
<polygon fill="black" stroke="black" points="493.678,-63.932 484.019,-59.5783 488.854,-69.0052 493.678,-63.932"/>
<text text-anchor="middle" x="548" y="-127.8" font-family="Times,serif" font-size="14.00">not (g9)</text>
</g>
<!-- Node0x37ee41a0&#45;&gt;Node0x451a9fa0 -->
<g id="edge9" class="edge"><title>Node0x37ee41a0&#45;&gt;Node0x451a9fa0</title>
<path fill="none" stroke="black" d="M330.294,-97.4817C362.802,-83.8594 398.89,-68.7368 424.977,-57.805"/>
<polygon fill="black" stroke="black" points="426.587,-60.9253 434.457,-53.8324 423.881,-54.4693 426.587,-60.9253"/>
</g>
</g>
</svg>
