<?xml version="1.0" encoding="UTF-8" standalone="no"?>
<!DOCTYPE svg PUBLIC "-//W3C//DTD SVG 1.1//EN"
 "http://www.w3.org/Graphics/SVG/1.1/DTD/svg11.dtd">
<!-- Generated by graphviz version 2.38.0 (20140413.2041)
 -->
<!-- Title: Control&#45;flow graph for function &#39;function_174c()&#39;. Pages: 1 -->
<svg width="846pt" height="1603pt"
 viewBox="0.00 0.00 845.50 1603.00" xmlns="http://www.w3.org/2000/svg" xmlns:xlink="http://www.w3.org/1999/xlink">
<g id="graph0" class="graph" transform="scale(1 1) rotate(0) translate(4 1599)">
<title>Control&#45;flow graph for function &#39;function_174c()&#39;.</title>
<polygon fill="white" stroke="none" points="-4,4 -4,-1599 841.5,-1599 841.5,4 -4,4"/>
<text text-anchor="middle" x="418.75" y="-7.8" font-family="Times,serif" font-size="14.00">Control&#45;flow graph for function &#39;function_174c()&#39;.</text>
<!-- Node0xa5d4a00 -->
<g id="node1" class="node"><title>Node0xa5d4a00</title>
<polygon fill="none" stroke="black" points="432,-1558.5 432,-1594.5 491,-1594.5 491,-1558.5 432,-1558.5"/>
<text text-anchor="start" x="440" y="-1572.8" font-family="Times,serif" font-size="14.00">entry:</text>
</g>
<!-- Node0x1079a550 -->
<g id="node2" class="node"><title>Node0x1079a550</title>
<polygon fill="none" stroke="black" points="288.5,-1242.5 288.5,-1520.5 634.5,-1520.5 634.5,-1242.5 288.5,-1242.5"/>
<text text-anchor="start" x="296.5" y="-1505.3" font-family="Times,serif" font-size="14.00">0x34dd6490:</text>
<text text-anchor="start" x="296.5" y="-1490.3" font-family="Times,serif" font-size="14.00"> v1 = g38</text>
<text text-anchor="start" x="296.5" y="-1475.3" font-family="Times,serif" font-size="14.00"> v2 = g39</text>
<text text-anchor="start" x="296.5" y="-1460.3" font-family="Times,serif" font-size="14.00"> v3 = g40</text>
<text text-anchor="start" x="296.5" y="-1445.3" font-family="Times,serif" font-size="14.00"> v4 = g41</text>
<text text-anchor="start" x="296.5" y="-1430.3" font-family="Times,serif" font-size="14.00"> v5 = g32</text>
<text text-anchor="start" x="296.5" y="-1415.3" font-family="Times,serif" font-size="14.00"> v6 = g35</text>
<text text-anchor="start" x="296.5" y="-1400.3" font-family="Times,serif" font-size="14.00"> v7 = g29</text>
<text text-anchor="start" x="296.5" y="-1385.3" font-family="Times,serif" font-size="14.00"> v8 = *(IntToPtrCastExpr&lt;ptr&gt;((v7 + 3692)))</text>
<text text-anchor="start" x="296.5" y="-1370.3" font-family="Times,serif" font-size="14.00"> g37 = v8</text>
<text text-anchor="start" x="296.5" y="-1355.3" font-family="Times,serif" font-size="14.00"> g6 = True</text>
<text text-anchor="start" x="296.5" y="-1340.3" font-family="Times,serif" font-size="14.00"> g8 = False</text>
<text text-anchor="start" x="296.5" y="-1325.3" font-family="Times,serif" font-size="14.00"> g7 = (v8 &lt; 0)</text>
<text text-anchor="start" x="296.5" y="-1310.3" font-family="Times,serif" font-size="14.00"> g9 = (v8 == 0)</text>
<text text-anchor="start" x="296.5" y="-1295.3" font-family="Times,serif" font-size="14.00"> g39 = v7</text>
<text text-anchor="start" x="296.5" y="-1280.3" font-family="Times,serif" font-size="14.00"> g41 = 165012</text>
<text text-anchor="start" x="296.5" y="-1265.3" font-family="Times,serif" font-size="14.00"> v9</text>
<text text-anchor="start" x="296.5" y="-1250.3" font-family="Times,serif" font-size="14.00"> v10</text>
</g>
<!-- Node0xa5d4a00&#45;&gt;Node0x1079a550 -->
<g id="edge1" class="edge"><title>Node0xa5d4a00&#45;&gt;Node0x1079a550</title>
<path fill="none" stroke="black" d="M461.5,-1558.37C461.5,-1550.96 461.5,-1541.53 461.5,-1530.92"/>
<polygon fill="black" stroke="black" points="465,-1530.85 461.5,-1520.85 458,-1530.85 465,-1530.85"/>
</g>
<!-- Node0x426ca610 -->
<g id="node3" class="node"><title>Node0x426ca610</title>
<polygon fill="none" stroke="black" points="409.5,-1166.5 409.5,-1204.5 513.5,-1204.5 513.5,-1166.5 409.5,-1166.5"/>
<text text-anchor="start" x="417.5" y="-1189.3" font-family="Times,serif" font-size="14.00">0x4d743d0:</text>
<text text-anchor="start" x="417.5" y="-1174.3" font-family="Times,serif" font-size="14.00"> if (v8 != 0):</text>
</g>
<!-- Node0x1079a550&#45;&gt;Node0x426ca610 -->
<g id="edge2" class="edge"><title>Node0x1079a550&#45;&gt;Node0x426ca610</title>
<path fill="none" stroke="black" d="M461.5,-1242.35C461.5,-1232.21 461.5,-1222.8 461.5,-1214.71"/>
<polygon fill="black" stroke="black" points="465,-1214.55 461.5,-1204.55 458,-1214.55 465,-1214.55"/>
</g>
<!-- Node0x404e5be0 -->
<g id="node4" class="node"><title>Node0x404e5be0</title>
<polygon fill="none" stroke="black" points="163,-979 163,-1107 396,-1107 396,-979 163,-979"/>
<text text-anchor="start" x="171" y="-1091.8" font-family="Times,serif" font-size="14.00">0x4d74580:</text>
<text text-anchor="start" x="171" y="-1076.8" font-family="Times,serif" font-size="14.00"> g38 = v1</text>
<text text-anchor="start" x="171" y="-1061.8" font-family="Times,serif" font-size="14.00"> g39 = v2</text>
<text text-anchor="start" x="171" y="-1046.8" font-family="Times,serif" font-size="14.00"> g40 = v3</text>
<text text-anchor="start" x="171" y="-1031.8" font-family="Times,serif" font-size="14.00"> g41 = v4</text>
<text text-anchor="start" x="171" y="-1016.8" font-family="Times,serif" font-size="14.00"> g32 = v5</text>
<text text-anchor="start" x="171" y="-1001.8" font-family="Times,serif" font-size="14.00"> g34 = v9</text>
<text text-anchor="start" x="171" y="-986.8" font-family="Times,serif" font-size="14.00"> IntToPtrCastExpr&lt;ptr&gt;(v6)()</text>
</g>
<!-- Node0x426ca610&#45;&gt;Node0x404e5be0 -->
<g id="edge3" class="edge"><title>Node0x426ca610&#45;&gt;Node0x404e5be0</title>
<path fill="none" stroke="black" d="M438.079,-1166.42C420.407,-1152.78 394.944,-1133.12 369.576,-1113.54"/>
<polygon fill="black" stroke="black" points="371.408,-1110.53 361.353,-1107.19 367.13,-1116.07 371.408,-1110.53"/>
<text text-anchor="middle" x="439.5" y="-1136.8" font-family="Times,serif" font-size="14.00">v8 != 0</text>
</g>
<!-- Node0xa6bc900 -->
<g id="node5" class="node"><title>Node0xa6bc900</title>
<polygon fill="none" stroke="black" points="414.5,-971.5 414.5,-1114.5 760.5,-1114.5 760.5,-971.5 414.5,-971.5"/>
<text text-anchor="start" x="422.5" y="-1099.3" font-family="Times,serif" font-size="14.00">0x17c85bc0:</text>
<text text-anchor="start" x="422.5" y="-1084.3" font-family="Times,serif" font-size="14.00"> v11 = *(IntToPtrCastExpr&lt;ptr&gt;((v7 + 16)))</text>
<text text-anchor="start" x="422.5" y="-1069.3" font-family="Times,serif" font-size="14.00"> g36 = v11</text>
<text text-anchor="start" x="422.5" y="-1054.3" font-family="Times,serif" font-size="14.00"> v12 = *(IntToPtrCastExpr&lt;ptr&gt;((v11 + 23)))</text>
<text text-anchor="start" x="422.5" y="-1039.3" font-family="Times,serif" font-size="14.00"> g37 = v12</text>
<text text-anchor="start" x="422.5" y="-1024.3" font-family="Times,serif" font-size="14.00"> g6 = True</text>
<text text-anchor="start" x="422.5" y="-1009.3" font-family="Times,serif" font-size="14.00"> g8 = False</text>
<text text-anchor="start" x="422.5" y="-994.3" font-family="Times,serif" font-size="14.00"> g7 = (v12 &lt; 0)</text>
<text text-anchor="start" x="422.5" y="-979.3" font-family="Times,serif" font-size="14.00"> g9 = (v12 == 0)</text>
</g>
<!-- Node0x426ca610&#45;&gt;Node0xa6bc900 -->
<g id="edge4" class="edge"><title>Node0x426ca610&#45;&gt;Node0xa6bc900</title>
<path fill="none" stroke="black" d="M477.714,-1166.42C488.147,-1154.79 502.501,-1138.78 517.391,-1122.18"/>
<polygon fill="black" stroke="black" points="520.188,-1124.3 524.258,-1114.52 514.976,-1119.63 520.188,-1124.3"/>
<text text-anchor="middle" x="535.5" y="-1136.8" font-family="Times,serif" font-size="14.00">v8 == 0</text>
</g>
<!-- Node0x3fe00660 -->
<g id="node6" class="node"><title>Node0x3fe00660</title>
<polygon fill="none" stroke="black" points="229.5,-895.5 229.5,-933.5 329.5,-933.5 329.5,-895.5 229.5,-895.5"/>
<text text-anchor="start" x="237.5" y="-918.3" font-family="Times,serif" font-size="14.00">0x4d75cc0:</text>
<text text-anchor="start" x="237.5" y="-903.3" font-family="Times,serif" font-size="14.00"> if g9:</text>
</g>
<!-- Node0x404e5be0&#45;&gt;Node0x3fe00660 -->
<g id="edge5" class="edge"><title>Node0x404e5be0&#45;&gt;Node0x3fe00660</title>
<path fill="none" stroke="black" d="M279.5,-978.75C279.5,-966.464 279.5,-954.178 279.5,-943.746"/>
<polygon fill="black" stroke="black" points="283,-943.624 279.5,-933.624 276,-943.624 283,-943.624"/>
</g>
<!-- Node0xa6b7cd0 -->
<g id="node7" class="node"><title>Node0xa6b7cd0</title>
<polygon fill="none" stroke="black" points="531,-895.5 531,-933.5 644,-933.5 644,-895.5 531,-895.5"/>
<text text-anchor="start" x="539" y="-918.3" font-family="Times,serif" font-size="14.00">0x4d729c0:</text>
<text text-anchor="start" x="539" y="-903.3" font-family="Times,serif" font-size="14.00"> if (v12 != 0):</text>
</g>
<!-- Node0xa6bc900&#45;&gt;Node0xa6b7cd0 -->
<g id="edge6" class="edge"><title>Node0xa6bc900&#45;&gt;Node0xa6b7cd0</title>
<path fill="none" stroke="black" d="M587.5,-971.353C587.5,-961.594 587.5,-952.073 587.5,-943.737"/>
<polygon fill="black" stroke="black" points="591,-943.54 587.5,-933.54 584,-943.54 591,-943.54"/>
</g>
<!-- Node0x295355f0 -->
<g id="node8" class="node"><title>Node0x295355f0</title>
<polygon fill="none" stroke="black" points="0,-753 0,-821 251,-821 251,-753 0,-753"/>
<text text-anchor="start" x="8" y="-805.8" font-family="Times,serif" font-size="14.00">0x4d75290:</text>
<text text-anchor="start" x="8" y="-790.8" font-family="Times,serif" font-size="14.00"> v10 = g29</text>
<text text-anchor="start" x="8" y="-775.8" font-family="Times,serif" font-size="14.00"> g40 = (g36 &amp; (v10 / 67108864))</text>
<text text-anchor="start" x="8" y="-760.8" font-family="Times,serif" font-size="14.00"> g29 = ((g42 / 2) &amp; v10)</text>
</g>
<!-- Node0x3fe00660&#45;&gt;Node0x295355f0 -->
<g id="edge7" class="edge"><title>Node0x3fe00660&#45;&gt;Node0x295355f0</title>
<path fill="none" stroke="black" d="M257.107,-895.251C235.468,-877.617 201.975,-850.322 174.193,-827.682"/>
<polygon fill="black" stroke="black" points="176.113,-824.731 166.15,-821.127 171.691,-830.157 176.113,-824.731"/>
<text text-anchor="middle" x="244" y="-865.8" font-family="Times,serif" font-size="14.00">g9</text>
</g>
<!-- Node0x1c4fa6d0 -->
<g id="node9" class="node"><title>Node0x1c4fa6d0</title>
<polygon fill="none" stroke="black" points="117,-654.5 117,-692.5 218,-692.5 218,-654.5 117,-654.5"/>
<text text-anchor="start" x="125" y="-677.3" font-family="Times,serif" font-size="14.00">0x4d75e00:</text>
<text text-anchor="start" x="125" y="-662.3" font-family="Times,serif" font-size="14.00"> return</text>
</g>
<!-- Node0x3fe00660&#45;&gt;Node0x1c4fa6d0 -->
<g id="edge8" class="edge"><title>Node0x3fe00660&#45;&gt;Node0x1c4fa6d0</title>
<path fill="none" stroke="black" d="M282.473,-895.374C287.221,-860.357 292.872,-782.264 259.5,-730 250.936,-716.587 237.862,-705.951 224.236,-697.729"/>
<polygon fill="black" stroke="black" points="225.675,-694.523 215.244,-692.671 222.243,-700.624 225.675,-694.523"/>
<text text-anchor="middle" x="315" y="-783.3" font-family="Times,serif" font-size="14.00">not (g9)</text>
</g>
<!-- Node0xa6b7f10 -->
<g id="node10" class="node"><title>Node0xa6b7f10</title>
<polygon fill="none" stroke="black" points="369.5,-730.5 369.5,-843.5 715.5,-843.5 715.5,-730.5 369.5,-730.5"/>
<text text-anchor="start" x="377.5" y="-828.3" font-family="Times,serif" font-size="14.00">0x355532d0:</text>
<text text-anchor="start" x="377.5" y="-813.3" font-family="Times,serif" font-size="14.00"> v13 = *(IntToPtrCastExpr&lt;ptr&gt;((v11 + 24)))</text>
<text text-anchor="start" x="377.5" y="-798.3" font-family="Times,serif" font-size="14.00"> g37 = v13</text>
<text text-anchor="start" x="377.5" y="-783.3" font-family="Times,serif" font-size="14.00"> g6 = True</text>
<text text-anchor="start" x="377.5" y="-768.3" font-family="Times,serif" font-size="14.00"> g8 = False</text>
<text text-anchor="start" x="377.5" y="-753.3" font-family="Times,serif" font-size="14.00"> g7 = (v13 &lt; 0)</text>
<text text-anchor="start" x="377.5" y="-738.3" font-family="Times,serif" font-size="14.00"> g9 = (v13 == 0)</text>
</g>
<!-- Node0xa6b7cd0&#45;&gt;Node0xa6b7f10 -->
<g id="edge9" class="edge"><title>Node0xa6b7cd0&#45;&gt;Node0xa6b7f10</title>
<path fill="none" stroke="black" d="M580.957,-895.251C576.899,-883.935 571.415,-868.641 565.861,-853.152"/>
<polygon fill="black" stroke="black" points="569.076,-851.748 562.406,-843.516 562.487,-854.111 569.076,-851.748"/>
<text text-anchor="middle" x="605" y="-865.8" font-family="Times,serif" font-size="14.00">v12 != 0</text>
</g>
<!-- Node0x7bd9690 -->
<g id="node11" class="node"><title>Node0x7bd9690</title>
<polygon fill="none" stroke="black" points="343,-293.5 343,-421.5 576,-421.5 576,-293.5 343,-293.5"/>
<text text-anchor="start" x="351" y="-406.3" font-family="Times,serif" font-size="14.00">0x4d72b60:</text>
<text text-anchor="start" x="351" y="-391.3" font-family="Times,serif" font-size="14.00"> g38 = v1</text>
<text text-anchor="start" x="351" y="-376.3" font-family="Times,serif" font-size="14.00"> g39 = v2</text>
<text text-anchor="start" x="351" y="-361.3" font-family="Times,serif" font-size="14.00"> g40 = v3</text>
<text text-anchor="start" x="351" y="-346.3" font-family="Times,serif" font-size="14.00"> g41 = v4</text>
<text text-anchor="start" x="351" y="-331.3" font-family="Times,serif" font-size="14.00"> g32 = v5</text>
<text text-anchor="start" x="351" y="-316.3" font-family="Times,serif" font-size="14.00"> g34 = v9</text>
<text text-anchor="start" x="351" y="-301.3" font-family="Times,serif" font-size="14.00"> IntToPtrCastExpr&lt;ptr&gt;(v6)()</text>
</g>
<!-- Node0xa6b7cd0&#45;&gt;Node0x7bd9690 -->
<g id="edge10" class="edge"><title>Node0xa6b7cd0&#45;&gt;Node0x7bd9690</title>
<path fill="none" stroke="black" d="M644.273,-899.758C697.354,-883.12 768.5,-849.372 768.5,-788 768.5,-788 768.5,-788 768.5,-530 768.5,-497.334 771.751,-482.916 749.5,-459 707.127,-413.455 643.089,-388.55 585.96,-374.931"/>
<polygon fill="black" stroke="black" points="586.648,-371.498 576.12,-372.679 585.087,-378.321 586.648,-371.498"/>
<text text-anchor="middle" x="803" y="-669.8" font-family="Times,serif" font-size="14.00">v12 == 0</text>
</g>
<!-- Node0x295355f0&#45;&gt;Node0x1c4fa6d0 -->
<g id="edge11" class="edge"><title>Node0x295355f0&#45;&gt;Node0x1c4fa6d0</title>
<path fill="none" stroke="black" d="M137.988,-752.848C144.057,-736.735 151.269,-717.589 157.044,-702.258"/>
<polygon fill="black" stroke="black" points="160.356,-703.396 160.605,-692.804 153.805,-700.928 160.356,-703.396"/>
</g>
<!-- Node0xa6b7f70 -->
<g id="node12" class="node"><title>Node0xa6b7f70</title>
<polygon fill="none" stroke="black" points="192.5,-23.5 192.5,-59.5 246.5,-59.5 246.5,-23.5 192.5,-23.5"/>
<text text-anchor="start" x="200.5" y="-37.8" font-family="Times,serif" font-size="14.00">exit:</text>
</g>
<!-- Node0x1c4fa6d0&#45;&gt;Node0xa6b7f70 -->
<g id="edge12" class="edge"><title>Node0x1c4fa6d0&#45;&gt;Node0xa6b7f70</title>
<path fill="none" stroke="black" d="M167.5,-654.313C167.5,-627.53 167.5,-575.906 167.5,-532 167.5,-532 167.5,-532 167.5,-130.5 167.5,-106.71 181.761,-83.7031 195.346,-67.1837"/>
<polygon fill="black" stroke="black" points="197.995,-69.4712 201.895,-59.6204 192.703,-64.8888 197.995,-69.4712"/>
</g>
<!-- Node0x24188300 -->
<g id="node13" class="node"><title>Node0x24188300</title>
<polygon fill="none" stroke="black" points="458,-654.5 458,-692.5 577,-692.5 577,-654.5 458,-654.5"/>
<text text-anchor="start" x="466" y="-677.3" font-family="Times,serif" font-size="14.00">0x4d72870:</text>
<text text-anchor="start" x="466" y="-662.3" font-family="Times,serif" font-size="14.00"> if (v13 == 0):</text>
</g>
<!-- Node0xa6b7f10&#45;&gt;Node0x24188300 -->
<g id="edge13" class="edge"><title>Node0xa6b7f10&#45;&gt;Node0x24188300</title>
<path fill="none" stroke="black" d="M530,-730.25C527.871,-720.756 525.743,-711.263 523.861,-702.87"/>
<polygon fill="black" stroke="black" points="527.231,-701.904 521.628,-692.912 520.401,-703.435 527.231,-701.904"/>
</g>
<!-- Node0x38d0f1c0 -->
<g id="node14" class="node"><title>Node0x38d0f1c0</title>
<polygon fill="none" stroke="black" points="370,-217.5 370,-255.5 471,-255.5 471,-217.5 370,-217.5"/>
<text text-anchor="start" x="378" y="-240.3" font-family="Times,serif" font-size="14.00">0x4d74070:</text>
<text text-anchor="start" x="378" y="-225.3" font-family="Times,serif" font-size="14.00"> if g9:</text>
</g>
<!-- Node0x7bd9690&#45;&gt;Node0x38d0f1c0 -->
<g id="edge14" class="edge"><title>Node0x7bd9690&#45;&gt;Node0x38d0f1c0</title>
<path fill="none" stroke="black" d="M438.744,-293.167C435.537,-283.381 432.375,-273.733 429.608,-265.29"/>
<polygon fill="black" stroke="black" points="432.891,-264.071 426.451,-255.659 426.24,-266.251 432.891,-264.071"/>
</g>
<!-- Node0x24188300&#45;&gt;Node0x7bd9690 -->
<g id="edge16" class="edge"><title>Node0x24188300&#45;&gt;Node0x7bd9690</title>
<path fill="none" stroke="black" d="M457.831,-667.052C380.264,-658.593 251.284,-639.353 222.5,-603 182.771,-552.824 187.166,-512.362 222.5,-459 247.79,-420.805 290.822,-397.085 333.334,-382.371"/>
<polygon fill="black" stroke="black" points="334.568,-385.649 342.962,-379.185 332.369,-379.003 334.568,-385.649"/>
<text text-anchor="middle" x="254" y="-527.3" font-family="Times,serif" font-size="14.00">v13 != 0</text>
</g>
<!-- Node0x295358f0 -->
<g id="node15" class="node"><title>Node0x295358f0</title>
<polygon fill="none" stroke="black" points="294.5,-459.5 294.5,-602.5 740.5,-602.5 740.5,-459.5 294.5,-459.5"/>
<text text-anchor="start" x="302.5" y="-587.3" font-family="Times,serif" font-size="14.00">0x3df74560:</text>
<text text-anchor="start" x="302.5" y="-572.3" font-family="Times,serif" font-size="14.00"> v14 = *(IntToPtrCastExpr&lt;ptr&gt;((v7 + 188)))</text>
<text text-anchor="start" x="302.5" y="-557.3" font-family="Times,serif" font-size="14.00"> v15 = (v14 + 1)</text>
<text text-anchor="start" x="302.5" y="-542.3" font-family="Times,serif" font-size="14.00"> g37 = v15</text>
<text text-anchor="start" x="302.5" y="-527.3" font-family="Times,serif" font-size="14.00"> g6 = (v15 &gt; 3)</text>
<text text-anchor="start" x="302.5" y="-512.3" font-family="Times,serif" font-size="14.00"> g8 = ((v15 &amp; (2 &#45; v14)) &lt; 0)</text>
<text text-anchor="start" x="302.5" y="-497.3" font-family="Times,serif" font-size="14.00"> g7 = (v14 &lt; 3)</text>
<text text-anchor="start" x="302.5" y="-482.3" font-family="Times,serif" font-size="14.00"> g9 = (v15 == 4)</text>
<text text-anchor="start" x="302.5" y="-467.3" font-family="Times,serif" font-size="14.00"> IntToPtrCastExpr&lt;ptr&gt;(ExtCastExpr&lt;int32&gt;((v15 &lt; 5)))()</text>
</g>
<!-- Node0x24188300&#45;&gt;Node0x295358f0 -->
<g id="edge15" class="edge"><title>Node0x24188300&#45;&gt;Node0x295358f0</title>
<path fill="none" stroke="black" d="M517.5,-654.42C517.5,-643.415 517.5,-628.498 517.5,-612.863"/>
<polygon fill="black" stroke="black" points="521,-612.519 517.5,-602.519 514,-612.519 521,-612.519"/>
<text text-anchor="middle" x="552" y="-624.8" font-family="Times,serif" font-size="14.00">v13 == 0</text>
</g>
<!-- Node0x38d0f1c0&#45;&gt;Node0xa6b7f70 -->
<g id="edge18" class="edge"><title>Node0x38d0f1c0&#45;&gt;Node0xa6b7f70</title>
<path fill="none" stroke="black" d="M369.82,-231.835C325.276,-225.695 262.55,-209.358 229.5,-166 208.547,-138.513 209.956,-96.8807 213.911,-69.6866"/>
<polygon fill="black" stroke="black" points="217.386,-70.1259 215.574,-59.6872 210.481,-68.9774 217.386,-70.1259"/>
<text text-anchor="middle" x="258" y="-127.8" font-family="Times,serif" font-size="14.00">not (g9)</text>
</g>
<!-- Node0x24188480 -->
<g id="node16" class="node"><title>Node0x24188480</title>
<polygon fill="none" stroke="black" points="295,-97.5 295,-165.5 546,-165.5 546,-97.5 295,-97.5"/>
<text text-anchor="start" x="303" y="-150.3" font-family="Times,serif" font-size="14.00">0x4d73500:</text>
<text text-anchor="start" x="303" y="-135.3" font-family="Times,serif" font-size="14.00"> v10 = g29</text>
<text text-anchor="start" x="303" y="-120.3" font-family="Times,serif" font-size="14.00"> g40 = (g36 &amp; (v10 / 67108864))</text>
<text text-anchor="start" x="303" y="-105.3" font-family="Times,serif" font-size="14.00"> g29 = ((g42 / 2) &amp; v10)</text>
</g>
<!-- Node0x38d0f1c0&#45;&gt;Node0x24188480 -->
<g id="edge17" class="edge"><title>Node0x38d0f1c0&#45;&gt;Node0x24188480</title>
<path fill="none" stroke="black" d="M420.5,-217.086C420.5,-205.631 420.5,-190.39 420.5,-176.003"/>
<polygon fill="black" stroke="black" points="424,-175.743 420.5,-165.743 417,-175.743 424,-175.743"/>
<text text-anchor="middle" x="430" y="-187.8" font-family="Times,serif" font-size="14.00">g9</text>
</g>
<!-- Node0x295358f0&#45;&gt;Node0x7bd9690 -->
<g id="edge19" class="edge"><title>Node0x295358f0&#45;&gt;Node0x7bd9690</title>
<path fill="none" stroke="black" d="M493.574,-459.254C490.448,-450.009 487.24,-440.524 484.103,-431.247"/>
<polygon fill="black" stroke="black" points="487.384,-430.025 480.865,-421.673 480.753,-432.268 487.384,-430.025"/>
</g>
<!-- Node0x24188480&#45;&gt;Node0xa6b7f70 -->
<g id="edge20" class="edge"><title>Node0x24188480&#45;&gt;Node0xa6b7f70</title>
<path fill="none" stroke="black" d="M345.083,-97.4817C314.597,-84.1346 280.822,-69.3474 255.983,-58.4728"/>
<polygon fill="black" stroke="black" points="257.157,-55.1661 246.593,-54.3616 254.35,-61.5785 257.157,-55.1661"/>
</g>
</g>
</svg>
