<?xml version="1.0" encoding="UTF-8" standalone="no"?>
<!DOCTYPE svg PUBLIC "-//W3C//DTD SVG 1.1//EN"
 "http://www.w3.org/Graphics/SVG/1.1/DTD/svg11.dtd">
<!-- Generated by graphviz version 2.38.0 (20140413.2041)
 -->
<!-- Title: Control&#45;flow graph for function &#39;function_f434()&#39;. Pages: 1 -->
<svg width="801pt" height="738pt"
 viewBox="0.00 0.00 801.00 738.00" xmlns="http://www.w3.org/2000/svg" xmlns:xlink="http://www.w3.org/1999/xlink">
<g id="graph0" class="graph" transform="scale(1 1) rotate(0) translate(4 734)">
<title>Control&#45;flow graph for function &#39;function_f434()&#39;.</title>
<polygon fill="white" stroke="none" points="-4,4 -4,-734 797,-734 797,4 -4,4"/>
<text text-anchor="middle" x="396.5" y="-7.8" font-family="Times,serif" font-size="14.00">Control&#45;flow graph for function &#39;function_f434()&#39;.</text>
<!-- Node0x3ef53de0 -->
<g id="node1" class="node"><title>Node0x3ef53de0</title>
<polygon fill="none" stroke="black" points="199,-693.5 199,-729.5 258,-729.5 258,-693.5 199,-693.5"/>
<text text-anchor="start" x="207" y="-707.8" font-family="Times,serif" font-size="14.00">entry:</text>
</g>
<!-- Node0x3ef556b0 -->
<g id="node2" class="node"><title>Node0x3ef556b0</title>
<polygon fill="none" stroke="black" points="89.5,-572.5 89.5,-655.5 367.5,-655.5 367.5,-572.5 89.5,-572.5"/>
<text text-anchor="start" x="97.5" y="-640.3" font-family="Times,serif" font-size="14.00">0x465ff910:</text>
<text text-anchor="start" x="97.5" y="-625.3" font-family="Times,serif" font-size="14.00"> v1 = (g29 + 2352)</text>
<text text-anchor="start" x="97.5" y="-610.3" font-family="Times,serif" font-size="14.00"> g29 = v1</text>
<text text-anchor="start" x="97.5" y="-595.3" font-family="Times,serif" font-size="14.00"> v2 = *(IntToPtrCastExpr&lt;ptr&gt;(v1))</text>
<text text-anchor="start" x="97.5" y="-580.3" font-family="Times,serif" font-size="14.00"> v3</text>
</g>
<!-- Node0x3ef53de0&#45;&gt;Node0x3ef556b0 -->
<g id="edge1" class="edge"><title>Node0x3ef53de0&#45;&gt;Node0x3ef556b0</title>
<path fill="none" stroke="black" d="M228.5,-693.427C228.5,-685.622 228.5,-675.921 228.5,-666.032"/>
<polygon fill="black" stroke="black" points="232,-665.73 228.5,-655.73 225,-665.73 232,-665.73"/>
</g>
<!-- Node0x3ef55910 -->
<g id="node3" class="node"><title>Node0x3ef55910</title>
<polygon fill="none" stroke="black" points="164.5,-496.5 164.5,-534.5 292.5,-534.5 292.5,-496.5 164.5,-496.5"/>
<text text-anchor="start" x="172.5" y="-519.3" font-family="Times,serif" font-size="14.00">0x77f1900:</text>
<text text-anchor="start" x="172.5" y="-504.3" font-family="Times,serif" font-size="14.00"> if (v2 == g30):</text>
</g>
<!-- Node0x3ef556b0&#45;&gt;Node0x3ef55910 -->
<g id="edge2" class="edge"><title>Node0x3ef556b0&#45;&gt;Node0x3ef55910</title>
<path fill="none" stroke="black" d="M228.5,-572.355C228.5,-563.083 228.5,-553.427 228.5,-544.803"/>
<polygon fill="black" stroke="black" points="232,-544.538 228.5,-534.538 225,-544.538 232,-544.538"/>
</g>
<!-- Node0x3ef564e0 -->
<g id="node4" class="node"><title>Node0x3ef564e0</title>
<polygon fill="none" stroke="black" points="0,-289.5 0,-372.5 319,-372.5 319,-289.5 0,-289.5"/>
<text text-anchor="start" x="8" y="-357.3" font-family="Times,serif" font-size="14.00">0x77f10b0:</text>
<text text-anchor="start" x="8" y="-342.3" font-family="Times,serif" font-size="14.00"> v3 = *(IntToPtrCastExpr&lt;ptr&gt;((v2 + 4)))</text>
<text text-anchor="start" x="8" y="-327.3" font-family="Times,serif" font-size="14.00"> g37 = v3</text>
<text text-anchor="start" x="8" y="-312.3" font-family="Times,serif" font-size="14.00"> *(IntToPtrCastExpr&lt;ptr&gt;(v1)) = v3</text>
<text text-anchor="start" x="8" y="-297.3" font-family="Times,serif" font-size="14.00"> return</text>
</g>
<!-- Node0x3ef55910&#45;&gt;Node0x3ef564e0 -->
<g id="edge3" class="edge"><title>Node0x3ef55910&#45;&gt;Node0x3ef564e0</title>
<path fill="none" stroke="black" d="M204.497,-496.414C198.814,-491.062 193.307,-484.796 189.5,-478 173.211,-448.919 165.719,-412.138 162.295,-382.77"/>
<polygon fill="black" stroke="black" points="165.765,-382.299 161.246,-372.716 158.803,-383.025 165.765,-382.299"/>
<text text-anchor="middle" x="228.5" y="-466.8" font-family="Times,serif" font-size="14.00">v2 == g30</text>
</g>
<!-- Node0x3ef55b30 -->
<g id="node5" class="node"><title>Node0x3ef55b30</title>
<polygon fill="none" stroke="black" points="193.5,-391.5 193.5,-444.5 471.5,-444.5 471.5,-391.5 193.5,-391.5"/>
<text text-anchor="start" x="201.5" y="-429.3" font-family="Times,serif" font-size="14.00">0x465ff9d0:</text>
<text text-anchor="start" x="201.5" y="-414.3" font-family="Times,serif" font-size="14.00"> v4 = (v2 + 4)</text>
<text text-anchor="start" x="201.5" y="-399.3" font-family="Times,serif" font-size="14.00"> v5 = *(IntToPtrCastExpr&lt;ptr&gt;(v4))</text>
</g>
<!-- Node0x3ef55910&#45;&gt;Node0x3ef55b30 -->
<g id="edge4" class="edge"><title>Node0x3ef55910&#45;&gt;Node0x3ef55b30</title>
<path fill="none" stroke="black" d="M248.552,-496.087C262.248,-483.51 280.771,-466.501 296.934,-451.659"/>
<polygon fill="black" stroke="black" points="299.649,-453.918 304.647,-444.577 294.914,-448.762 299.649,-453.918"/>
<text text-anchor="middle" x="320.5" y="-466.8" font-family="Times,serif" font-size="14.00">v2 != g30</text>
</g>
<!-- Node0x3ef55270 -->
<g id="node6" class="node"><title>Node0x3ef55270</title>
<polygon fill="none" stroke="black" points="240.5,-23.5 240.5,-59.5 294.5,-59.5 294.5,-23.5 240.5,-23.5"/>
<text text-anchor="start" x="248.5" y="-37.8" font-family="Times,serif" font-size="14.00">exit:</text>
</g>
<!-- Node0x3ef564e0&#45;&gt;Node0x3ef55270 -->
<g id="edge5" class="edge"><title>Node0x3ef564e0&#45;&gt;Node0x3ef55270</title>
<path fill="none" stroke="black" d="M147.215,-289.458C134.797,-240.035 122.134,-155.842 158.5,-97 174.044,-71.8493 205.098,-57.9169 230.097,-50.4497"/>
<polygon fill="black" stroke="black" points="231.315,-53.7449 240.029,-47.719 229.459,-46.9954 231.315,-53.7449"/>
</g>
<!-- Node0x3ef55c60 -->
<g id="node7" class="node"><title>Node0x3ef55c60</title>
<polygon fill="none" stroke="black" points="303.5,-232.5 303.5,-270.5 453.5,-270.5 453.5,-232.5 303.5,-232.5"/>
<text text-anchor="start" x="311.5" y="-255.3" font-family="Times,serif" font-size="14.00">0x77f3cb0:</text>
<text text-anchor="start" x="311.5" y="-240.3" font-family="Times,serif" font-size="14.00"> while (v5 != g30):</text>
</g>
<!-- Node0x3ef55b30&#45;&gt;Node0x3ef55c60 -->
<g id="edge6" class="edge"><title>Node0x3ef55b30&#45;&gt;Node0x3ef55c60</title>
<path fill="none" stroke="black" d="M339.688,-391.297C348.087,-361.258 361.941,-311.717 370.625,-280.66"/>
<polygon fill="black" stroke="black" points="374.035,-281.465 373.357,-270.891 367.293,-279.579 374.035,-281.465"/>
</g>
<!-- Node0x3ef56740 -->
<g id="node8" class="node"><title>Node0x3ef56740</title>
<polygon fill="none" stroke="black" points="167.5,-112.5 167.5,-165.5 445.5,-165.5 445.5,-112.5 167.5,-112.5"/>
<text text-anchor="start" x="175.5" y="-150.3" font-family="Times,serif" font-size="14.00">0x337c19b0:</text>
<text text-anchor="start" x="175.5" y="-135.3" font-family="Times,serif" font-size="14.00"> v4 = (v5 + 4)</text>
<text text-anchor="start" x="175.5" y="-120.3" font-family="Times,serif" font-size="14.00"> v5 = *(IntToPtrCastExpr&lt;ptr&gt;(v4))</text>
</g>
<!-- Node0x3ef55c60&#45;&gt;Node0x3ef56740 -->
<g id="edge7" class="edge"><title>Node0x3ef55c60&#45;&gt;Node0x3ef56740</title>
<path fill="none" stroke="black" d="M321.665,-232.385C314.058,-227.586 307.254,-221.558 302.5,-214 295.472,-202.829 294.719,-188.729 296.34,-175.841"/>
<polygon fill="black" stroke="black" points="299.813,-176.295 298.074,-165.844 292.916,-175.099 299.813,-176.295"/>
<text text-anchor="middle" x="338.5" y="-202.8" font-family="Times,serif" font-size="14.00">v5 != g30</text>
</g>
<!-- Node0x3ef560f0 -->
<g id="node9" class="node"><title>Node0x3ef560f0</title>
<polygon fill="none" stroke="black" points="464,-97.5 464,-180.5 793,-180.5 793,-97.5 464,-97.5"/>
<text text-anchor="start" x="472" y="-165.3" font-family="Times,serif" font-size="14.00">0x77f2e00:</text>
<text text-anchor="start" x="472" y="-150.3" font-family="Times,serif" font-size="14.00"> g9 = True</text>
<text text-anchor="start" x="472" y="-135.3" font-family="Times,serif" font-size="14.00"> v3 = *(IntToPtrCastExpr&lt;ptr&gt;((g30 + 4)))</text>
<text text-anchor="start" x="472" y="-120.3" font-family="Times,serif" font-size="14.00"> g37 = v3</text>
<text text-anchor="start" x="472" y="-105.3" font-family="Times,serif" font-size="14.00"> *(IntToPtrCastExpr&lt;ptr&gt;(v4)) = v3</text>
</g>
<!-- Node0x3ef55c60&#45;&gt;Node0x3ef560f0 -->
<g id="edge8" class="edge"><title>Node0x3ef55c60&#45;&gt;Node0x3ef560f0</title>
<path fill="none" stroke="black" d="M419.502,-232.377C448.81,-219.423 489.584,-201.401 527.343,-184.712"/>
<polygon fill="black" stroke="black" points="529.137,-187.745 536.869,-180.501 526.307,-181.343 529.137,-187.745"/>
<text text-anchor="middle" x="527.5" y="-202.8" font-family="Times,serif" font-size="14.00">v5 == g30</text>
</g>
<!-- Node0x3ef56740&#45;&gt;Node0x3ef55c60 -->
<g id="edge9" class="edge"><title>Node0x3ef56740&#45;&gt;Node0x3ef55c60</title>
<path fill="none" stroke="black" d="M346.141,-165.511C357.195,-174.684 367.958,-186.02 374.5,-199 378.052,-206.047 379.634,-214.335 380.182,-222.178"/>
<polygon fill="black" stroke="black" points="376.687,-222.506 380.375,-232.438 383.686,-222.374 376.687,-222.506"/>
</g>
<!-- Node0x3ef560f0&#45;&gt;Node0x3ef55270 -->
<g id="edge10" class="edge"><title>Node0x3ef560f0&#45;&gt;Node0x3ef55270</title>
<path fill="none" stroke="black" d="M475.403,-97.4994C412.336,-80.8153 344.699,-62.9224 304.262,-52.2253"/>
<polygon fill="black" stroke="black" points="305.15,-48.8397 294.588,-49.6658 303.36,-55.6069 305.15,-48.8397"/>
</g>
</g>
</svg>
