<?xml version="1.0" encoding="UTF-8" standalone="no"?>
<!DOCTYPE svg PUBLIC "-//W3C//DTD SVG 1.1//EN"
 "http://www.w3.org/Graphics/SVG/1.1/DTD/svg11.dtd">
<!-- Generated by graphviz version 2.38.0 (20140413.2041)
 -->
<!-- Title: Control&#45;flow graph for function &#39;function_125f8()&#39;. Pages: 1 -->
<svg width="674pt" height="669pt"
 viewBox="0.00 0.00 673.50 669.00" xmlns="http://www.w3.org/2000/svg" xmlns:xlink="http://www.w3.org/1999/xlink">
<g id="graph0" class="graph" transform="scale(1 1) rotate(0) translate(4 665)">
<title>Control&#45;flow graph for function &#39;function_125f8()&#39;.</title>
<polygon fill="white" stroke="none" points="-4,4 -4,-665 669.5,-665 669.5,4 -4,4"/>
<text text-anchor="middle" x="332.75" y="-7.8" font-family="Times,serif" font-size="14.00">Control&#45;flow graph for function &#39;function_125f8()&#39;.</text>
<!-- Node0x1dd00930 -->
<g id="node1" class="node"><title>Node0x1dd00930</title>
<polygon fill="none" stroke="black" points="446,-624.5 446,-660.5 505,-660.5 505,-624.5 446,-624.5"/>
<text text-anchor="start" x="454" y="-638.8" font-family="Times,serif" font-size="14.00">entry:</text>
</g>
<!-- Node0x2cf0c590 -->
<g id="node2" class="node"><title>Node0x2cf0c590</title>
<polygon fill="none" stroke="black" points="285.5,-263.5 285.5,-586.5 665.5,-586.5 665.5,-263.5 285.5,-263.5"/>
<text text-anchor="start" x="293.5" y="-571.3" font-family="Times,serif" font-size="14.00">0x336b60e0:</text>
<text text-anchor="start" x="293.5" y="-556.3" font-family="Times,serif" font-size="14.00"> v1 = g38</text>
<text text-anchor="start" x="293.5" y="-541.3" font-family="Times,serif" font-size="14.00"> v2 = g39</text>
<text text-anchor="start" x="293.5" y="-526.3" font-family="Times,serif" font-size="14.00"> v3 = g35</text>
<text text-anchor="start" x="293.5" y="-511.3" font-family="Times,serif" font-size="14.00"> g36 = 165012</text>
<text text-anchor="start" x="293.5" y="-496.3" font-family="Times,serif" font-size="14.00"> g39 = PtrToIntCastExpr&lt;int32&gt;(function_125f4)</text>
<text text-anchor="start" x="293.5" y="-481.3" font-family="Times,serif" font-size="14.00"> g38 = PtrToIntCastExpr&lt;int32&gt;(function_12574)</text>
<text text-anchor="start" x="293.5" y="-466.3" font-family="Times,serif" font-size="14.00"> g35 = PtrToIntCastExpr&lt;int32&gt;(function_12f4c)</text>
<text text-anchor="start" x="293.5" y="-451.3" font-family="Times,serif" font-size="14.00"> g33 = PtrToIntCastExpr&lt;int32&gt;(function_125ec)</text>
<text text-anchor="start" x="293.5" y="-436.3" font-family="Times,serif" font-size="14.00"> g37 = 24</text>
<text text-anchor="start" x="293.5" y="-421.3" font-family="Times,serif" font-size="14.00"> *(IntToPtrCastExpr&lt;ptr&gt;((g29 + 16))) = 24</text>
<text text-anchor="start" x="293.5" y="-406.3" font-family="Times,serif" font-size="14.00"> v4 = g29</text>
<text text-anchor="start" x="293.5" y="-391.3" font-family="Times,serif" font-size="14.00"> *(IntToPtrCastExpr&lt;ptr&gt;(v4)) = g38</text>
<text text-anchor="start" x="293.5" y="-376.3" font-family="Times,serif" font-size="14.00"> *(IntToPtrCastExpr&lt;ptr&gt;((v4 + 4))) = g35</text>
<text text-anchor="start" x="293.5" y="-361.3" font-family="Times,serif" font-size="14.00"> *(IntToPtrCastExpr&lt;ptr&gt;((g29 + 8))) = g33</text>
<text text-anchor="start" x="293.5" y="-346.3" font-family="Times,serif" font-size="14.00"> *(IntToPtrCastExpr&lt;ptr&gt;((g29 + 12))) = g39</text>
<text text-anchor="start" x="293.5" y="-331.3" font-family="Times,serif" font-size="14.00"> *(IntToPtrCastExpr&lt;ptr&gt;((g29 + 20))) = g30</text>
<text text-anchor="start" x="293.5" y="-316.3" font-family="Times,serif" font-size="14.00"> g38 = v1</text>
<text text-anchor="start" x="293.5" y="-301.3" font-family="Times,serif" font-size="14.00"> g39 = v2</text>
<text text-anchor="start" x="293.5" y="-286.3" font-family="Times,serif" font-size="14.00"> IntToPtrCastExpr&lt;ptr&gt;(v3)()</text>
<text text-anchor="start" x="293.5" y="-271.3" font-family="Times,serif" font-size="14.00"> v5 = (g35 % 256)</text>
</g>
<!-- Node0x1dd00930&#45;&gt;Node0x2cf0c590 -->
<g id="edge1" class="edge"><title>Node0x1dd00930&#45;&gt;Node0x2cf0c590</title>
<path fill="none" stroke="black" d="M475.5,-624.229C475.5,-616.888 475.5,-607.57 475.5,-596.993"/>
<polygon fill="black" stroke="black" points="479,-596.946 475.5,-586.946 472,-596.946 479,-596.946"/>
</g>
<!-- Node0x27155980 -->
<g id="node3" class="node"><title>Node0x27155980</title>
<polygon fill="none" stroke="black" points="425.5,-187.5 425.5,-225.5 525.5,-225.5 525.5,-187.5 425.5,-187.5"/>
<text text-anchor="start" x="433.5" y="-210.3" font-family="Times,serif" font-size="14.00">0x7e529c0:</text>
<text text-anchor="start" x="433.5" y="-195.3" font-family="Times,serif" font-size="14.00"> if g9:</text>
</g>
<!-- Node0x2cf0c590&#45;&gt;Node0x27155980 -->
<g id="edge2" class="edge"><title>Node0x2cf0c590&#45;&gt;Node0x27155980</title>
<path fill="none" stroke="black" d="M475.5,-263.254C475.5,-253.15 475.5,-243.85 475.5,-235.86"/>
<polygon fill="black" stroke="black" points="479,-235.824 475.5,-225.824 472,-235.825 479,-235.824"/>
</g>
<!-- Node0x46bdfbe0 -->
<g id="node4" class="node"><title>Node0x46bdfbe0</title>
<polygon fill="none" stroke="black" points="0,-97.5 0,-135.5 513,-135.5 513,-97.5 0,-97.5"/>
<text text-anchor="start" x="8" y="-120.3" font-family="Times,serif" font-size="14.00">0x7e52770:</text>
<text text-anchor="start" x="8" y="-105.3" font-family="Times,serif" font-size="14.00"> g39 = (g30 &amp; (g33 &gt;&gt; (0 if (v5 == 0) else (31 if (v5 &gt; 31) else v5))))</text>
</g>
<!-- Node0x27155980&#45;&gt;Node0x46bdfbe0 -->
<g id="edge3" class="edge"><title>Node0x27155980&#45;&gt;Node0x46bdfbe0</title>
<path fill="none" stroke="black" d="M430.654,-187.48C396.077,-173.586 348.099,-154.307 311.255,-139.502"/>
<polygon fill="black" stroke="black" points="312.246,-136.128 301.662,-135.647 309.636,-142.624 312.246,-136.128"/>
<text text-anchor="middle" x="389" y="-157.8" font-family="Times,serif" font-size="14.00">g9</text>
</g>
<!-- Node0x43b9b650 -->
<g id="node5" class="node"><title>Node0x43b9b650</title>
<polygon fill="none" stroke="black" points="442.5,-23.5 442.5,-59.5 496.5,-59.5 496.5,-23.5 442.5,-23.5"/>
<text text-anchor="start" x="450.5" y="-37.8" font-family="Times,serif" font-size="14.00">exit:</text>
</g>
<!-- Node0x27155980&#45;&gt;Node0x43b9b650 -->
<g id="edge4" class="edge"><title>Node0x27155980&#45;&gt;Node0x43b9b650</title>
<path fill="none" stroke="black" d="M492.6,-187.163C510.476,-165.664 534.28,-128.908 521.5,-97 516.949,-85.6385 508.777,-75.3005 500.238,-66.7559"/>
<polygon fill="black" stroke="black" points="502.417,-64.0015 492.722,-59.728 497.636,-69.1145 502.417,-64.0015"/>
<text text-anchor="middle" x="554" y="-112.8" font-family="Times,serif" font-size="14.00">not (g9)</text>
</g>
<!-- Node0x46bdfbe0&#45;&gt;Node0x43b9b650 -->
<g id="edge5" class="edge"><title>Node0x46bdfbe0&#45;&gt;Node0x43b9b650</title>
<path fill="none" stroke="black" d="M309.152,-97.4551C347.611,-84.2742 398.784,-66.736 432.868,-55.0545"/>
<polygon fill="black" stroke="black" points="434.109,-58.3293 442.434,-51.7762 431.839,-51.7074 434.109,-58.3293"/>
</g>
</g>
</svg>
