<?xml version="1.0" encoding="UTF-8" standalone="no"?>
<!DOCTYPE svg PUBLIC "-//W3C//DTD SVG 1.1//EN"
 "http://www.w3.org/Graphics/SVG/1.1/DTD/svg11.dtd">
<!-- Generated by graphviz version 2.38.0 (20140413.2041)
 -->
<!-- Title: Control&#45;flow graph for function &#39;function_8f50()&#39;. Pages: 1 -->
<svg width="373pt" height="414pt"
 viewBox="0.00 0.00 373.00 414.00" xmlns="http://www.w3.org/2000/svg" xmlns:xlink="http://www.w3.org/1999/xlink">
<g id="graph0" class="graph" transform="scale(1 1) rotate(0) translate(4 410)">
<title>Control&#45;flow graph for function &#39;function_8f50()&#39;.</title>
<polygon fill="white" stroke="none" points="-4,4 -4,-410 369,-410 369,4 -4,4"/>
<text text-anchor="middle" x="182.5" y="-7.8" font-family="Times,serif" font-size="14.00">Control&#45;flow graph for function &#39;function_8f50()&#39;.</text>
<!-- Node0x17440950 -->
<g id="node1" class="node"><title>Node0x17440950</title>
<polygon fill="none" stroke="black" points="153,-369.5 153,-405.5 212,-405.5 212,-369.5 153,-369.5"/>
<text text-anchor="start" x="161" y="-383.8" font-family="Times,serif" font-size="14.00">entry:</text>
</g>
<!-- Node0x121fd960 -->
<g id="node2" class="node"><title>Node0x121fd960</title>
<polygon fill="none" stroke="black" points="13.5,-263.5 13.5,-331.5 351.5,-331.5 351.5,-263.5 13.5,-263.5"/>
<text text-anchor="start" x="21.5" y="-316.3" font-family="Times,serif" font-size="14.00">0x30e34780:</text>
<text text-anchor="start" x="21.5" y="-301.3" font-family="Times,serif" font-size="14.00"> v1 = *(IntToPtrCastExpr&lt;ptr&gt;((g29 + 68)))</text>
<text text-anchor="start" x="21.5" y="-286.3" font-family="Times,serif" font-size="14.00"> g37 = v1</text>
<text text-anchor="start" x="21.5" y="-271.3" font-family="Times,serif" font-size="14.00"> g9 = (v1 == 81)</text>
</g>
<!-- Node0x17440950&#45;&gt;Node0x121fd960 -->
<g id="edge1" class="edge"><title>Node0x17440950&#45;&gt;Node0x121fd960</title>
<path fill="none" stroke="black" d="M182.5,-369.114C182.5,-361.158 182.5,-351.343 182.5,-341.588"/>
<polygon fill="black" stroke="black" points="186,-341.524 182.5,-331.524 179,-341.524 186,-341.524"/>
</g>
<!-- Node0x21fce260 -->
<g id="node3" class="node"><title>Node0x21fce260</title>
<polygon fill="none" stroke="black" points="126,-187.5 126,-225.5 239,-225.5 239,-187.5 126,-187.5"/>
<text text-anchor="start" x="134" y="-210.3" font-family="Times,serif" font-size="14.00">0x6cda770:</text>
<text text-anchor="start" x="134" y="-195.3" font-family="Times,serif" font-size="14.00"> if (v1 != 81):</text>
</g>
<!-- Node0x121fd960&#45;&gt;Node0x21fce260 -->
<g id="edge2" class="edge"><title>Node0x121fd960&#45;&gt;Node0x21fce260</title>
<path fill="none" stroke="black" d="M182.5,-263.36C182.5,-254.365 182.5,-244.707 182.5,-235.993"/>
<polygon fill="black" stroke="black" points="186,-235.941 182.5,-225.941 179,-235.941 186,-235.941"/>
</g>
<!-- Node0x21fcb020 -->
<g id="node4" class="node"><title>Node0x21fcb020</title>
<polygon fill="none" stroke="black" points="85.5,-97.5 85.5,-135.5 185.5,-135.5 185.5,-97.5 85.5,-97.5"/>
<text text-anchor="start" x="93.5" y="-120.3" font-family="Times,serif" font-size="14.00">0x6cda210:</text>
<text text-anchor="start" x="93.5" y="-105.3" font-family="Times,serif" font-size="14.00"> g29 = 0</text>
</g>
<!-- Node0x21fce260&#45;&gt;Node0x21fcb020 -->
<g id="edge3" class="edge"><title>Node0x21fce260&#45;&gt;Node0x21fcb020</title>
<path fill="none" stroke="black" d="M158.98,-187.396C153.444,-182.044 148.111,-175.782 144.5,-169 140.703,-161.87 138.459,-153.473 137.146,-145.551"/>
<polygon fill="black" stroke="black" points="140.611,-145.051 135.905,-135.559 133.664,-145.914 140.611,-145.051"/>
<text text-anchor="middle" x="176" y="-157.8" font-family="Times,serif" font-size="14.00">v1 != 81</text>
</g>
<!-- Node0x30e5c950 -->
<g id="node5" class="node"><title>Node0x30e5c950</title>
<polygon fill="none" stroke="black" points="166.5,-23.5 166.5,-59.5 220.5,-59.5 220.5,-23.5 166.5,-23.5"/>
<text text-anchor="start" x="174.5" y="-37.8" font-family="Times,serif" font-size="14.00">exit:</text>
</g>
<!-- Node0x21fce260&#45;&gt;Node0x30e5c950 -->
<g id="edge4" class="edge"><title>Node0x21fce260&#45;&gt;Node0x30e5c950</title>
<path fill="none" stroke="black" d="M198.086,-187.316C201.922,-181.787 205.501,-175.457 207.5,-169 217.782,-135.793 210.139,-95.6256 202.719,-69.5939"/>
<polygon fill="black" stroke="black" points="205.968,-68.2456 199.713,-59.6943 199.27,-70.2799 205.968,-68.2456"/>
<text text-anchor="middle" x="246" y="-112.8" font-family="Times,serif" font-size="14.00">v1 == 81</text>
</g>
<!-- Node0x21fcb020&#45;&gt;Node0x30e5c950 -->
<g id="edge5" class="edge"><title>Node0x21fcb020&#45;&gt;Node0x30e5c950</title>
<path fill="none" stroke="black" d="M149.837,-97.4551C156.966,-88.483 165.698,-77.492 173.475,-67.7035"/>
<polygon fill="black" stroke="black" points="176.247,-69.8416 179.727,-59.8347 170.766,-65.487 176.247,-69.8416"/>
</g>
</g>
</svg>
