<?xml version="1.0" encoding="UTF-8" standalone="no"?>
<!DOCTYPE svg PUBLIC "-//W3C//DTD SVG 1.1//EN"
 "http://www.w3.org/Graphics/SVG/1.1/DTD/svg11.dtd">
<!-- Generated by graphviz version 2.38.0 (20140413.2041)
 -->
<!-- Title: Control&#45;flow graph for function &#39;function_14ef8()&#39;. Pages: 1 -->
<svg width="383pt" height="986pt"
 viewBox="0.00 0.00 382.50 986.00" xmlns="http://www.w3.org/2000/svg" xmlns:xlink="http://www.w3.org/1999/xlink">
<g id="graph0" class="graph" transform="scale(1 1) rotate(0) translate(4 982)">
<title>Control&#45;flow graph for function &#39;function_14ef8()&#39;.</title>
<polygon fill="white" stroke="none" points="-4,4 -4,-982 378.5,-982 378.5,4 -4,4"/>
<text text-anchor="middle" x="187.25" y="-7.8" font-family="Times,serif" font-size="14.00">Control&#45;flow graph for function &#39;function_14ef8()&#39;.</text>
<!-- Node0x20b50440 -->
<g id="node1" class="node"><title>Node0x20b50440</title>
<polygon fill="none" stroke="black" points="201,-941.5 201,-977.5 260,-977.5 260,-941.5 201,-941.5"/>
<text text-anchor="start" x="209" y="-955.8" font-family="Times,serif" font-size="14.00">entry:</text>
</g>
<!-- Node0x245b0c90 -->
<g id="node2" class="node"><title>Node0x245b0c90</title>
<polygon fill="none" stroke="black" points="86.5,-790.5 86.5,-903.5 374.5,-903.5 374.5,-790.5 86.5,-790.5"/>
<text text-anchor="start" x="94.5" y="-888.3" font-family="Times,serif" font-size="14.00">0x44b930a0:</text>
<text text-anchor="start" x="94.5" y="-873.3" font-family="Times,serif" font-size="14.00"> v1 = *(IntToPtrCastExpr&lt;ptr&gt;(g40))</text>
<text text-anchor="start" x="94.5" y="-858.3" font-family="Times,serif" font-size="14.00"> g37 = v1</text>
<text text-anchor="start" x="94.5" y="-843.3" font-family="Times,serif" font-size="14.00"> v2 = g29</text>
<text text-anchor="start" x="94.5" y="-828.3" font-family="Times,serif" font-size="14.00"> g39 = v2</text>
<text text-anchor="start" x="94.5" y="-813.3" font-family="Times,serif" font-size="14.00"> g9 = (v1 == 0)</text>
<text text-anchor="start" x="94.5" y="-798.3" font-family="Times,serif" font-size="14.00"> v3 = v2</text>
</g>
<!-- Node0x20b50440&#45;&gt;Node0x245b0c90 -->
<g id="edge1" class="edge"><title>Node0x20b50440&#45;&gt;Node0x245b0c90</title>
<path fill="none" stroke="black" d="M230.5,-941.234C230.5,-933.586 230.5,-924.056 230.5,-914.033"/>
<polygon fill="black" stroke="black" points="234,-913.897 230.5,-903.897 227,-913.897 234,-913.897"/>
</g>
<!-- Node0x3980be80 -->
<g id="node3" class="node"><title>Node0x3980be80</title>
<polygon fill="none" stroke="black" points="178.5,-714.5 178.5,-752.5 282.5,-752.5 282.5,-714.5 178.5,-714.5"/>
<text text-anchor="start" x="186.5" y="-737.3" font-family="Times,serif" font-size="14.00">0x826f380:</text>
<text text-anchor="start" x="186.5" y="-722.3" font-family="Times,serif" font-size="14.00"> if (v1 != 0):</text>
</g>
<!-- Node0x245b0c90&#45;&gt;Node0x3980be80 -->
<g id="edge2" class="edge"><title>Node0x245b0c90&#45;&gt;Node0x3980be80</title>
<path fill="none" stroke="black" d="M230.5,-790.25C230.5,-780.862 230.5,-771.474 230.5,-763.151"/>
<polygon fill="black" stroke="black" points="234,-762.912 230.5,-752.912 227,-762.912 234,-762.912"/>
</g>
<!-- Node0x245b2100 -->
<g id="node4" class="node"><title>Node0x245b2100</title>
<polygon fill="none" stroke="black" points="0,-534.5 0,-662.5 233,-662.5 233,-534.5 0,-534.5"/>
<text text-anchor="start" x="8" y="-647.3" font-family="Times,serif" font-size="14.00">0x169af310:</text>
<text text-anchor="start" x="8" y="-632.3" font-family="Times,serif" font-size="14.00"> v4 = g38</text>
<text text-anchor="start" x="8" y="-617.3" font-family="Times,serif" font-size="14.00"> g29 = (v4 &#45; 7380)</text>
<text text-anchor="start" x="8" y="-602.3" font-family="Times,serif" font-size="14.00"> g30 = (v4 &#45; 7960)</text>
<text text-anchor="start" x="8" y="-587.3" font-family="Times,serif" font-size="14.00"> g36 = v2</text>
<text text-anchor="start" x="8" y="-572.3" font-family="Times,serif" font-size="14.00"> g35 = 85796</text>
<text text-anchor="start" x="8" y="-557.3" font-family="Times,serif" font-size="14.00"> IntToPtrCastExpr&lt;ptr&gt;(v1)()</text>
<text text-anchor="start" x="8" y="-542.3" font-family="Times,serif" font-size="14.00"> v3 = g39</text>
</g>
<!-- Node0x3980be80&#45;&gt;Node0x245b2100 -->
<g id="edge3" class="edge"><title>Node0x3980be80&#45;&gt;Node0x245b2100</title>
<path fill="none" stroke="black" d="M214.888,-714.286C204.931,-702.669 191.318,-686.788 177.395,-670.544"/>
<polygon fill="black" stroke="black" points="179.714,-667.872 170.549,-662.557 174.399,-672.427 179.714,-667.872"/>
<text text-anchor="middle" x="224.5" y="-684.8" font-family="Times,serif" font-size="14.00">v1 != 0</text>
</g>
<!-- Node0x245b0d90 -->
<g id="node5" class="node"><title>Node0x245b0d90</title>
<polygon fill="none" stroke="black" points="103.5,-278.5 103.5,-496.5 345.5,-496.5 345.5,-278.5 103.5,-278.5"/>
<text text-anchor="start" x="111.5" y="-481.3" font-family="Times,serif" font-size="14.00">0x826f500:</text>
<text text-anchor="start" x="111.5" y="-466.3" font-family="Times,serif" font-size="14.00"> g29 = v3</text>
<text text-anchor="start" x="111.5" y="-451.3" font-family="Times,serif" font-size="14.00"> v5</text>
<text text-anchor="start" x="111.5" y="-436.3" font-family="Times,serif" font-size="14.00"> g38 = v5</text>
<text text-anchor="start" x="111.5" y="-421.3" font-family="Times,serif" font-size="14.00"> v6</text>
<text text-anchor="start" x="111.5" y="-406.3" font-family="Times,serif" font-size="14.00"> g39 = v6</text>
<text text-anchor="start" x="111.5" y="-391.3" font-family="Times,serif" font-size="14.00"> v7</text>
<text text-anchor="start" x="111.5" y="-376.3" font-family="Times,serif" font-size="14.00"> g40 = v7</text>
<text text-anchor="start" x="111.5" y="-361.3" font-family="Times,serif" font-size="14.00"> v8</text>
<text text-anchor="start" x="111.5" y="-346.3" font-family="Times,serif" font-size="14.00"> g32 = v8</text>
<text text-anchor="start" x="111.5" y="-331.3" font-family="Times,serif" font-size="14.00"> v9</text>
<text text-anchor="start" x="111.5" y="-316.3" font-family="Times,serif" font-size="14.00"> g34 = v9</text>
<text text-anchor="start" x="111.5" y="-301.3" font-family="Times,serif" font-size="14.00"> v10</text>
<text text-anchor="start" x="111.5" y="-286.3" font-family="Times,serif" font-size="14.00"> IntToPtrCastExpr&lt;ptr&gt;(v10)()</text>
</g>
<!-- Node0x3980be80&#45;&gt;Node0x245b0d90 -->
<g id="edge4" class="edge"><title>Node0x3980be80&#45;&gt;Node0x245b0d90</title>
<path fill="none" stroke="black" d="M246.086,-714.316C249.922,-708.787 253.501,-702.457 255.5,-696 257.472,-689.632 255.816,-687.659 255.5,-681 252.768,-623.496 246.43,-559.915 240.193,-506.761"/>
<polygon fill="black" stroke="black" points="243.643,-506.136 238.989,-496.618 236.692,-506.961 243.643,-506.136"/>
<text text-anchor="middle" x="284.5" y="-594.8" font-family="Times,serif" font-size="14.00">v1 == 0</text>
</g>
<!-- Node0x245b2100&#45;&gt;Node0x245b0d90 -->
<g id="edge5" class="edge"><title>Node0x245b2100&#45;&gt;Node0x245b0d90</title>
<path fill="none" stroke="black" d="M149.197,-534.226C153.902,-525.119 158.865,-515.515 163.906,-505.761"/>
<polygon fill="black" stroke="black" points="167.07,-507.261 168.552,-496.77 160.852,-504.047 167.07,-507.261"/>
</g>
<!-- Node0x245b1fe0 -->
<g id="node6" class="node"><title>Node0x245b1fe0</title>
<polygon fill="none" stroke="black" points="174,-202.5 174,-240.5 275,-240.5 275,-202.5 174,-202.5"/>
<text text-anchor="start" x="182" y="-225.3" font-family="Times,serif" font-size="14.00">0x82711d0:</text>
<text text-anchor="start" x="182" y="-210.3" font-family="Times,serif" font-size="14.00"> if g9:</text>
</g>
<!-- Node0x245b0d90&#45;&gt;Node0x245b1fe0 -->
<g id="edge6" class="edge"><title>Node0x245b0d90&#45;&gt;Node0x245b1fe0</title>
<path fill="none" stroke="black" d="M224.5,-278.481C224.5,-268.585 224.5,-259.254 224.5,-251.151"/>
<polygon fill="black" stroke="black" points="228,-250.925 224.5,-240.925 221,-250.925 228,-250.925"/>
</g>
<!-- Node0x245b25c0 -->
<g id="node7" class="node"><title>Node0x245b25c0</title>
<polygon fill="none" stroke="black" points="9,-97.5 9,-150.5 224,-150.5 224,-97.5 9,-97.5"/>
<text text-anchor="start" x="17" y="-135.3" font-family="Times,serif" font-size="14.00">0x8270750:</text>
<text text-anchor="start" x="17" y="-120.3" font-family="Times,serif" font-size="14.00"> g37 = (g30 &amp; (g33 / 2048))</text>
<text text-anchor="start" x="17" y="-105.3" font-family="Times,serif" font-size="14.00"> g29 = (g29 &amp; (g42 / 2))</text>
</g>
<!-- Node0x245b1fe0&#45;&gt;Node0x245b25c0 -->
<g id="edge7" class="edge"><title>Node0x245b1fe0&#45;&gt;Node0x245b25c0</title>
<path fill="none" stroke="black" d="M203.932,-202.312C189.602,-189.641 170.094,-172.391 153.14,-157.4"/>
<polygon fill="black" stroke="black" points="155.368,-154.698 145.559,-150.695 150.731,-159.942 155.368,-154.698"/>
<text text-anchor="middle" x="190" y="-172.8" font-family="Times,serif" font-size="14.00">g9</text>
</g>
<!-- Node0x245ad410 -->
<g id="node8" class="node"><title>Node0x245ad410</title>
<polygon fill="none" stroke="black" points="191.5,-23.5 191.5,-59.5 245.5,-59.5 245.5,-23.5 191.5,-23.5"/>
<text text-anchor="start" x="199.5" y="-37.8" font-family="Times,serif" font-size="14.00">exit:</text>
</g>
<!-- Node0x245b1fe0&#45;&gt;Node0x245ad410 -->
<g id="edge8" class="edge"><title>Node0x245b1fe0&#45;&gt;Node0x245ad410</title>
<path fill="none" stroke="black" d="M227.812,-202.436C231.745,-178.318 237.215,-134.304 232.5,-97 231.368,-88.0426 229.228,-78.4494 226.957,-69.8471"/>
<polygon fill="black" stroke="black" points="230.252,-68.636 224.179,-59.9548 223.513,-70.5287 230.252,-68.636"/>
<text text-anchor="middle" x="263" y="-120.3" font-family="Times,serif" font-size="14.00">not (g9)</text>
</g>
<!-- Node0x245b25c0&#45;&gt;Node0x245ad410 -->
<g id="edge9" class="edge"><title>Node0x245b25c0&#45;&gt;Node0x245ad410</title>
<path fill="none" stroke="black" d="M149.054,-97.308C161.871,-87.1922 176.485,-75.6586 188.99,-65.7898"/>
<polygon fill="black" stroke="black" points="191.181,-68.5193 196.863,-59.5766 186.844,-63.0244 191.181,-68.5193"/>
</g>
</g>
</svg>
