<?xml version="1.0" encoding="UTF-8" standalone="no"?>
<!DOCTYPE svg PUBLIC "-//W3C//DTD SVG 1.1//EN"
 "http://www.w3.org/Graphics/SVG/1.1/DTD/svg11.dtd">
<!-- Generated by graphviz version 2.38.0 (20140413.2041)
 -->
<!-- Title: Control&#45;flow graph for function &#39;function_1b734()&#39;. Pages: 1 -->
<svg width="598pt" height="336pt"
 viewBox="0.00 0.00 598.00 336.00" xmlns="http://www.w3.org/2000/svg" xmlns:xlink="http://www.w3.org/1999/xlink">
<g id="graph0" class="graph" transform="scale(1 1) rotate(0) translate(4 332)">
<title>Control&#45;flow graph for function &#39;function_1b734()&#39;.</title>
<polygon fill="white" stroke="none" points="-4,4 -4,-332 594,-332 594,4 -4,4"/>
<text text-anchor="middle" x="295" y="-7.8" font-family="Times,serif" font-size="14.00">Control&#45;flow graph for function &#39;function_1b734()&#39;.</text>
<!-- Node0x3f812b70 -->
<g id="node1" class="node"><title>Node0x3f812b70</title>
<polygon fill="none" stroke="black" points="265.5,-291.5 265.5,-327.5 324.5,-327.5 324.5,-291.5 265.5,-291.5"/>
<text text-anchor="start" x="273.5" y="-305.8" font-family="Times,serif" font-size="14.00">entry:</text>
</g>
<!-- Node0x3648d4c0 -->
<g id="node2" class="node"><title>Node0x3648d4c0</title>
<polygon fill="none" stroke="black" points="0,-96.5 0,-254.5 590,-254.5 590,-96.5 0,-96.5"/>
<text text-anchor="start" x="8" y="-239.3" font-family="Times,serif" font-size="14.00">0x93c1f50:</text>
<text text-anchor="start" x="8" y="-224.3" font-family="Times,serif" font-size="14.00"> *(IntToPtrCastExpr&lt;ptr&gt;((g29 + 12))) = g37</text>
<text text-anchor="start" x="8" y="-209.3" font-family="Times,serif" font-size="14.00"> g30 = *(IntToPtrCastExpr&lt;ptr&gt;(g36))</text>
<text text-anchor="start" x="8" y="-194.3" font-family="Times,serif" font-size="14.00"> *(IntToPtrCastExpr&lt;ptr&gt;((g29 + 16))) = *(IntToPtrCastExpr&lt;ptr&gt;((g36 + 8)))</text>
<text text-anchor="start" x="8" y="-179.3" font-family="Times,serif" font-size="14.00"> g37 = *(IntToPtrCastExpr&lt;ptr&gt;(g30))</text>
<text text-anchor="start" x="8" y="-164.3" font-family="Times,serif" font-size="14.00"> g30 = *(IntToPtrCastExpr&lt;ptr&gt;((g36 + 4)))</text>
<text text-anchor="start" x="8" y="-149.3" font-family="Times,serif" font-size="14.00"> *(IntToPtrCastExpr&lt;ptr&gt;((g29 + 4))) = g36</text>
<text text-anchor="start" x="8" y="-134.3" font-family="Times,serif" font-size="14.00"> v1 = (g37 + g30)</text>
<text text-anchor="start" x="8" y="-119.3" font-family="Times,serif" font-size="14.00"> g37 = v1</text>
<text text-anchor="start" x="8" y="-104.3" font-family="Times,serif" font-size="14.00"> *(IntToPtrCastExpr&lt;ptr&gt;((g29 + 8))) = v1</text>
</g>
<!-- Node0x3f812b70&#45;&gt;Node0x3648d4c0 -->
<g id="edge1" class="edge"><title>Node0x3f812b70&#45;&gt;Node0x3648d4c0</title>
<path fill="none" stroke="black" d="M295,-291.243C295,-283.906 295,-274.752 295,-264.835"/>
<polygon fill="black" stroke="black" points="298.5,-264.703 295,-254.703 291.5,-264.704 298.5,-264.703"/>
</g>
<!-- Node0x3e9b0900 -->
<g id="node3" class="node"><title>Node0x3e9b0900</title>
<polygon fill="none" stroke="black" points="268,-23.5 268,-59.5 322,-59.5 322,-23.5 268,-23.5"/>
<text text-anchor="start" x="276" y="-37.8" font-family="Times,serif" font-size="14.00">exit:</text>
</g>
<!-- Node0x3648d4c0&#45;&gt;Node0x3e9b0900 -->
<g id="edge2" class="edge"><title>Node0x3648d4c0&#45;&gt;Node0x3e9b0900</title>
<path fill="none" stroke="black" d="M295,-96.1895C295,-86.7241 295,-77.609 295,-69.6605"/>
<polygon fill="black" stroke="black" points="298.5,-69.6213 295,-59.6214 291.5,-69.6214 298.5,-69.6213"/>
</g>
</g>
</svg>
