<?xml version="1.0" encoding="UTF-8" standalone="no"?>
<!DOCTYPE svg PUBLIC "-//W3C//DTD SVG 1.1//EN"
 "http://www.w3.org/Graphics/SVG/1.1/DTD/svg11.dtd">
<!-- Generated by graphviz version 2.38.0 (20140413.2041)
 -->
<!-- Title: Control&#45;flow graph for function &#39;function_1873c()&#39;. Pages: 1 -->
<svg width="830pt" height="895pt"
 viewBox="0.00 0.00 830.00 895.00" xmlns="http://www.w3.org/2000/svg" xmlns:xlink="http://www.w3.org/1999/xlink">
<g id="graph0" class="graph" transform="scale(1 1) rotate(0) translate(4 891)">
<title>Control&#45;flow graph for function &#39;function_1873c()&#39;.</title>
<polygon fill="white" stroke="none" points="-4,4 -4,-891 826,-891 826,4 -4,4"/>
<text text-anchor="middle" x="411" y="-7.8" font-family="Times,serif" font-size="14.00">Control&#45;flow graph for function &#39;function_1873c()&#39;.</text>
<!-- Node0x242f9910 -->
<g id="node1" class="node"><title>Node0x242f9910</title>
<polygon fill="none" stroke="black" points="251,-850.5 251,-886.5 310,-886.5 310,-850.5 251,-850.5"/>
<text text-anchor="start" x="259" y="-864.8" font-family="Times,serif" font-size="14.00">entry:</text>
</g>
<!-- Node0x37c0bd70 -->
<g id="node2" class="node"><title>Node0x37c0bd70</title>
<polygon fill="none" stroke="black" points="121,-564.5 121,-812.5 440,-812.5 440,-564.5 121,-564.5"/>
<text text-anchor="start" x="129" y="-797.3" font-family="Times,serif" font-size="14.00">0x220bc390:</text>
<text text-anchor="start" x="129" y="-782.3" font-family="Times,serif" font-size="14.00"> v1 = g29</text>
<text text-anchor="start" x="129" y="-767.3" font-family="Times,serif" font-size="14.00"> v2 = *(IntToPtrCastExpr&lt;ptr&gt;((v1 + 4)))</text>
<text text-anchor="start" x="129" y="-752.3" font-family="Times,serif" font-size="14.00"> g37 = v2</text>
<text text-anchor="start" x="129" y="-737.3" font-family="Times,serif" font-size="14.00"> v3 = g38</text>
<text text-anchor="start" x="129" y="-722.3" font-family="Times,serif" font-size="14.00"> v4 = g39</text>
<text text-anchor="start" x="129" y="-707.3" font-family="Times,serif" font-size="14.00"> v5 = g30</text>
<text text-anchor="start" x="129" y="-692.3" font-family="Times,serif" font-size="14.00"> v6 = (v5 &#45; v2)</text>
<text text-anchor="start" x="129" y="-677.3" font-family="Times,serif" font-size="14.00"> g8 = (((v6 ^ v5) &amp; (v5 ^ v2)) &lt; 0)</text>
<text text-anchor="start" x="129" y="-662.3" font-family="Times,serif" font-size="14.00"> g7 = (v6 &lt; 0)</text>
<text text-anchor="start" x="129" y="-647.3" font-family="Times,serif" font-size="14.00"> g9 = (v5 == v2)</text>
<text text-anchor="start" x="129" y="-632.3" font-family="Times,serif" font-size="14.00"> g38 = v1</text>
<text text-anchor="start" x="129" y="-617.3" font-family="Times,serif" font-size="14.00"> g39 = v5</text>
<text text-anchor="start" x="129" y="-602.3" font-family="Times,serif" font-size="14.00"> g33 = 165012</text>
<text text-anchor="start" x="129" y="-587.3" font-family="Times,serif" font-size="14.00"> v7</text>
<text text-anchor="start" x="129" y="-572.3" font-family="Times,serif" font-size="14.00"> v8</text>
</g>
<!-- Node0x242f9910&#45;&gt;Node0x37c0bd70 -->
<g id="edge1" class="edge"><title>Node0x242f9910&#45;&gt;Node0x37c0bd70</title>
<path fill="none" stroke="black" d="M280.5,-850.433C280.5,-842.971 280.5,-833.495 280.5,-822.888"/>
<polygon fill="black" stroke="black" points="284,-822.854 280.5,-812.854 277,-822.854 284,-822.854"/>
</g>
<!-- Node0x2111d970 -->
<g id="node3" class="node"><title>Node0x2111d970</title>
<polygon fill="none" stroke="black" points="227.5,-473.5 227.5,-526.5 333.5,-526.5 333.5,-473.5 227.5,-473.5"/>
<text text-anchor="start" x="235.5" y="-511.3" font-family="Times,serif" font-size="14.00">0x884e9a0:</text>
<text text-anchor="start" x="235.5" y="-496.3" font-family="Times,serif" font-size="14.00"> if (v5 &gt; v2):</text>
<text text-anchor="start" x="235.5" y="-481.3" font-family="Times,serif" font-size="14.00"> else:</text>
</g>
<!-- Node0x37c0bd70&#45;&gt;Node0x2111d970 -->
<g id="edge2" class="edge"><title>Node0x37c0bd70&#45;&gt;Node0x2111d970</title>
<path fill="none" stroke="black" d="M280.5,-564.401C280.5,-554.46 280.5,-545.025 280.5,-536.619"/>
<polygon fill="black" stroke="black" points="284,-536.559 280.5,-526.559 277,-536.559 284,-536.559"/>
</g>
<!-- Node0x242f59c0 -->
<g id="node4" class="node"><title>Node0x242f59c0</title>
<polygon fill="none" stroke="black" points="0,-353.5 0,-421.5 143,-421.5 143,-353.5 0,-353.5"/>
<text text-anchor="start" x="8" y="-406.3" font-family="Times,serif" font-size="14.00">0x884dfa0:</text>
<text text-anchor="start" x="8" y="-391.3" font-family="Times,serif" font-size="14.00"> function_18648()</text>
<text text-anchor="start" x="8" y="-376.3" font-family="Times,serif" font-size="14.00"> v8 = g39</text>
<text text-anchor="start" x="8" y="-361.3" font-family="Times,serif" font-size="14.00"> v7 = g38</text>
</g>
<!-- Node0x2111d970&#45;&gt;Node0x242f59c0 -->
<g id="edge3" class="edge"><title>Node0x2111d970&#45;&gt;Node0x242f59c0</title>
<path fill="none" stroke="black" d="M232.026,-473.371C205.58,-459.389 172.336,-441.813 142.971,-426.288"/>
<polygon fill="black" stroke="black" points="144.471,-423.121 133.995,-421.541 141.199,-429.31 144.471,-423.121"/>
<text text-anchor="middle" x="223.5" y="-443.8" font-family="Times,serif" font-size="14.00">v5 &gt; v2</text>
</g>
<!-- Node0x37c0c120 -->
<g id="node5" class="node"><title>Node0x37c0c120</title>
<polygon fill="none" stroke="black" points="161,-353.5 161,-421.5 822,-421.5 822,-353.5 161,-353.5"/>
<text text-anchor="start" x="169" y="-406.3" font-family="Times,serif" font-size="14.00">0x884f8c0:</text>
<text text-anchor="start" x="169" y="-391.3" font-family="Times,serif" font-size="14.00"> g29 = (*(IntToPtrCastExpr&lt;ptr&gt;(((4 * v5) + 160096))) &amp; *(IntToPtrCastExpr&lt;ptr&gt;(v1)))</text>
<text text-anchor="start" x="169" y="-376.3" font-family="Times,serif" font-size="14.00"> v8 = v5</text>
<text text-anchor="start" x="169" y="-361.3" font-family="Times,serif" font-size="14.00"> v7 = v1</text>
</g>
<!-- Node0x2111d970&#45;&gt;Node0x37c0c120 -->
<g id="edge4" class="edge"><title>Node0x2111d970&#45;&gt;Node0x37c0c120</title>
<path fill="none" stroke="black" d="M329.438,-473.371C356.137,-459.389 389.699,-441.813 419.345,-426.288"/>
<polygon fill="black" stroke="black" points="421.172,-429.281 428.407,-421.541 417.925,-423.08 421.172,-429.281"/>
<text text-anchor="middle" x="425.5" y="-443.8" font-family="Times,serif" font-size="14.00">v5 &lt;= v2</text>
</g>
<!-- Node0x242f5d60 -->
<g id="node6" class="node"><title>Node0x242f5d60</title>
<polygon fill="none" stroke="black" points="131.5,-97.5 131.5,-315.5 529.5,-315.5 529.5,-97.5 131.5,-97.5"/>
<text text-anchor="start" x="139.5" y="-300.3" font-family="Times,serif" font-size="14.00">0x23551a30:</text>
<text text-anchor="start" x="139.5" y="-285.3" font-family="Times,serif" font-size="14.00"> v9 = IntToPtrCastExpr&lt;ptr&gt;(v7)</text>
<text text-anchor="start" x="139.5" y="-270.3" font-family="Times,serif" font-size="14.00"> v10 = (v8 % 256)</text>
<text text-anchor="start" x="139.5" y="-255.3" font-family="Times,serif" font-size="14.00"> v11 = (*(v9) &gt;&gt; (32 if (v10 &gt; 32) else v10))</text>
<text text-anchor="start" x="139.5" y="-240.3" font-family="Times,serif" font-size="14.00"> g37 = v11</text>
<text text-anchor="start" x="139.5" y="-225.3" font-family="Times,serif" font-size="14.00"> g36 = (*(IntToPtrCastExpr&lt;ptr&gt;((v7 + 4))) &#45; v8)</text>
<text text-anchor="start" x="139.5" y="-210.3" font-family="Times,serif" font-size="14.00"> *(v9) = v11</text>
<text text-anchor="start" x="139.5" y="-195.3" font-family="Times,serif" font-size="14.00"> *(IntToPtrCastExpr&lt;ptr&gt;((g38 + 4))) = g36</text>
<text text-anchor="start" x="139.5" y="-180.3" font-family="Times,serif" font-size="14.00"> g38 = v3</text>
<text text-anchor="start" x="139.5" y="-165.3" font-family="Times,serif" font-size="14.00"> g39 = v4</text>
<text text-anchor="start" x="139.5" y="-150.3" font-family="Times,serif" font-size="14.00"> v12</text>
<text text-anchor="start" x="139.5" y="-135.3" font-family="Times,serif" font-size="14.00"> g34 = v12</text>
<text text-anchor="start" x="139.5" y="-120.3" font-family="Times,serif" font-size="14.00"> IntToPtrCastExpr&lt;ptr&gt;(g35)()</text>
<text text-anchor="start" x="139.5" y="-105.3" font-family="Times,serif" font-size="14.00"> IntToPtrCastExpr&lt;ptr&gt;(ExtCastExpr&lt;int32&gt;(g9))()</text>
</g>
<!-- Node0x242f59c0&#45;&gt;Node0x242f5d60 -->
<g id="edge5" class="edge"><title>Node0x242f59c0&#45;&gt;Node0x242f5d60</title>
<path fill="none" stroke="black" d="M119.306,-353.46C133.124,-343.911 149.038,-332.912 165.804,-321.325"/>
<polygon fill="black" stroke="black" points="167.861,-324.158 174.098,-315.593 163.881,-318.399 167.861,-324.158"/>
</g>
<!-- Node0x37c0c120&#45;&gt;Node0x242f5d60 -->
<g id="edge6" class="edge"><title>Node0x37c0c120&#45;&gt;Node0x242f5d60</title>
<path fill="none" stroke="black" d="M461.594,-353.251C453.541,-344.297 444.351,-334.08 434.659,-323.304"/>
<polygon fill="black" stroke="black" points="437.166,-320.858 427.877,-315.763 431.962,-325.539 437.166,-320.858"/>
</g>
<!-- Node0x211186a0 -->
<g id="node7" class="node"><title>Node0x211186a0</title>
<polygon fill="none" stroke="black" points="303.5,-23.5 303.5,-59.5 357.5,-59.5 357.5,-23.5 303.5,-23.5"/>
<text text-anchor="start" x="311.5" y="-37.8" font-family="Times,serif" font-size="14.00">exit:</text>
</g>
<!-- Node0x242f5d60&#45;&gt;Node0x211186a0 -->
<g id="edge7" class="edge"><title>Node0x242f5d60&#45;&gt;Node0x211186a0</title>
<path fill="none" stroke="black" d="M330.5,-97.2301C330.5,-87.2044 330.5,-77.7868 330.5,-69.684"/>
<polygon fill="black" stroke="black" points="334,-69.516 330.5,-59.516 327,-69.5161 334,-69.516"/>
</g>
</g>
</svg>
