<?xml version="1.0" encoding="UTF-8" standalone="no"?>
<!DOCTYPE svg PUBLIC "-//W3C//DTD SVG 1.1//EN"
 "http://www.w3.org/Graphics/SVG/1.1/DTD/svg11.dtd">
<!-- Generated by graphviz version 2.38.0 (20140413.2041)
 -->
<!-- Title: Control&#45;flow graph for function &#39;function_8974()&#39;. Pages: 1 -->
<svg width="377pt" height="276pt"
 viewBox="0.00 0.00 377.00 276.00" xmlns="http://www.w3.org/2000/svg" xmlns:xlink="http://www.w3.org/1999/xlink">
<g id="graph0" class="graph" transform="scale(1 1) rotate(0) translate(4 272)">
<title>Control&#45;flow graph for function &#39;function_8974()&#39;.</title>
<polygon fill="white" stroke="none" points="-4,4 -4,-272 373,-272 373,4 -4,4"/>
<text text-anchor="middle" x="184.5" y="-7.8" font-family="Times,serif" font-size="14.00">Control&#45;flow graph for function &#39;function_8974()&#39;.</text>
<!-- Node0x3e8e7360 -->
<g id="node1" class="node"><title>Node0x3e8e7360</title>
<polygon fill="none" stroke="black" points="155,-231.5 155,-267.5 214,-267.5 214,-231.5 155,-231.5"/>
<text text-anchor="start" x="163" y="-245.8" font-family="Times,serif" font-size="14.00">entry:</text>
</g>
<!-- Node0x3565c7d0 -->
<g id="node2" class="node"><title>Node0x3565c7d0</title>
<polygon fill="none" stroke="black" points="11,-96.5 11,-194.5 358,-194.5 358,-96.5 11,-96.5"/>
<text text-anchor="start" x="19" y="-179.3" font-family="Times,serif" font-size="14.00">0x47702a70:</text>
<text text-anchor="start" x="19" y="-164.3" font-family="Times,serif" font-size="14.00"> v1 = *(IntToPtrCastExpr&lt;ptr&gt;((g37 + 240)))</text>
<text text-anchor="start" x="19" y="-149.3" font-family="Times,serif" font-size="14.00"> v2 = v1</text>
<text text-anchor="start" x="19" y="-134.3" font-family="Times,serif" font-size="14.00"> g37 = v2</text>
<text text-anchor="start" x="19" y="-119.3" font-family="Times,serif" font-size="14.00"> g9 = (v1 == 0)</text>
<text text-anchor="start" x="19" y="-104.3" font-family="Times,serif" font-size="14.00"> g29 = (v2 if (v1 == 0) else 1)</text>
</g>
<!-- Node0x3e8e7360&#45;&gt;Node0x3565c7d0 -->
<g id="edge1" class="edge"><title>Node0x3e8e7360&#45;&gt;Node0x3565c7d0</title>
<path fill="none" stroke="black" d="M184.5,-231.197C184.5,-223.688 184.5,-214.415 184.5,-204.789"/>
<polygon fill="black" stroke="black" points="188,-204.688 184.5,-194.688 181,-204.688 188,-204.688"/>
</g>
<!-- Node0x2bad4b00 -->
<g id="node3" class="node"><title>Node0x2bad4b00</title>
<polygon fill="none" stroke="black" points="157.5,-23.5 157.5,-59.5 211.5,-59.5 211.5,-23.5 157.5,-23.5"/>
<text text-anchor="start" x="165.5" y="-37.8" font-family="Times,serif" font-size="14.00">exit:</text>
</g>
<!-- Node0x3565c7d0&#45;&gt;Node0x2bad4b00 -->
<g id="edge2" class="edge"><title>Node0x3565c7d0&#45;&gt;Node0x2bad4b00</title>
<path fill="none" stroke="black" d="M184.5,-96.4868C184.5,-87.2893 184.5,-77.9618 184.5,-69.7064"/>
<polygon fill="black" stroke="black" points="188,-69.5725 184.5,-59.5725 181,-69.5725 188,-69.5725"/>
</g>
</g>
</svg>
