<?xml version="1.0" encoding="UTF-8" standalone="no"?>
<!DOCTYPE svg PUBLIC "-//W3C//DTD SVG 1.1//EN"
 "http://www.w3.org/Graphics/SVG/1.1/DTD/svg11.dtd">
<!-- Generated by graphviz version 2.38.0 (20140413.2041)
 -->
<!-- Title: Control&#45;flow graph for function &#39;function_17138()&#39;. Pages: 1 -->
<svg width="788pt" height="1273pt"
 viewBox="0.00 0.00 787.50 1273.00" xmlns="http://www.w3.org/2000/svg" xmlns:xlink="http://www.w3.org/1999/xlink">
<g id="graph0" class="graph" transform="scale(1 1) rotate(0) translate(4 1269)">
<title>Control&#45;flow graph for function &#39;function_17138()&#39;.</title>
<polygon fill="white" stroke="none" points="-4,4 -4,-1269 783.5,-1269 783.5,4 -4,4"/>
<text text-anchor="middle" x="389.75" y="-7.8" font-family="Times,serif" font-size="14.00">Control&#45;flow graph for function &#39;function_17138()&#39;.</text>
<!-- Node0x26517530 -->
<g id="node1" class="node"><title>Node0x26517530</title>
<polygon fill="none" stroke="black" points="442,-1228.5 442,-1264.5 501,-1264.5 501,-1228.5 442,-1228.5"/>
<text text-anchor="start" x="450" y="-1242.8" font-family="Times,serif" font-size="14.00">entry:</text>
</g>
<!-- Node0x22861d70 -->
<g id="node2" class="node"><title>Node0x22861d70</title>
<polygon fill="none" stroke="black" points="406.5,-1122.5 406.5,-1190.5 536.5,-1190.5 536.5,-1122.5 406.5,-1122.5"/>
<text text-anchor="start" x="414.5" y="-1175.3" font-family="Times,serif" font-size="14.00">0x32b5a0d0:</text>
<text text-anchor="start" x="414.5" y="-1160.3" font-family="Times,serif" font-size="14.00"> v1 = g18</text>
<text text-anchor="start" x="414.5" y="-1145.3" font-family="Times,serif" font-size="14.00"> g29 = v1</text>
<text text-anchor="start" x="414.5" y="-1130.3" font-family="Times,serif" font-size="14.00"> g9 = (v1 == 0)</text>
</g>
<!-- Node0x26517530&#45;&gt;Node0x22861d70 -->
<g id="edge1" class="edge"><title>Node0x26517530&#45;&gt;Node0x22861d70</title>
<path fill="none" stroke="black" d="M471.5,-1228.11C471.5,-1220.16 471.5,-1210.34 471.5,-1200.59"/>
<polygon fill="black" stroke="black" points="475,-1200.52 471.5,-1190.52 468,-1200.52 475,-1200.52"/>
</g>
<!-- Node0x265150a0 -->
<g id="node3" class="node"><title>Node0x265150a0</title>
<polygon fill="none" stroke="black" points="416.5,-1046.5 416.5,-1084.5 526.5,-1084.5 526.5,-1046.5 416.5,-1046.5"/>
<text text-anchor="start" x="424.5" y="-1069.3" font-family="Times,serif" font-size="14.00">0x86b4d40:</text>
<text text-anchor="start" x="424.5" y="-1054.3" font-family="Times,serif" font-size="14.00"> if (v1 == 0):</text>
</g>
<!-- Node0x22861d70&#45;&gt;Node0x265150a0 -->
<g id="edge2" class="edge"><title>Node0x22861d70&#45;&gt;Node0x265150a0</title>
<path fill="none" stroke="black" d="M471.5,-1122.36C471.5,-1113.36 471.5,-1103.71 471.5,-1094.99"/>
<polygon fill="black" stroke="black" points="475,-1094.94 471.5,-1084.94 468,-1094.94 475,-1094.94"/>
</g>
<!-- Node0x37ee0390 -->
<g id="node4" class="node"><title>Node0x37ee0390</title>
<polygon fill="none" stroke="black" points="372,-956.5 372,-994.5 473,-994.5 473,-956.5 372,-956.5"/>
<text text-anchor="start" x="380" y="-979.3" font-family="Times,serif" font-size="14.00">0x86b4b80:</text>
<text text-anchor="start" x="380" y="-964.3" font-family="Times,serif" font-size="14.00"> g29 = 6</text>
</g>
<!-- Node0x265150a0&#45;&gt;Node0x37ee0390 -->
<g id="edge3" class="edge"><title>Node0x265150a0&#45;&gt;Node0x37ee0390</title>
<path fill="none" stroke="black" d="M449.927,-1046.41C444.551,-1040.98 439.256,-1034.67 435.5,-1028 431.473,-1020.85 428.675,-1012.45 426.738,-1004.52"/>
<polygon fill="black" stroke="black" points="430.123,-1003.61 424.656,-994.536 423.27,-1005.04 430.123,-1003.61"/>
<text text-anchor="middle" x="465.5" y="-1016.8" font-family="Times,serif" font-size="14.00">v1 == 0</text>
</g>
<!-- Node0x37ee35a0 -->
<g id="node5" class="node"><title>Node0x37ee35a0</title>
<polygon fill="none" stroke="black" points="257,-790.5 257,-918.5 706,-918.5 706,-790.5 257,-790.5"/>
<text text-anchor="start" x="265" y="-903.3" font-family="Times,serif" font-size="14.00">0xef01180:</text>
<text text-anchor="start" x="265" y="-888.3" font-family="Times,serif" font-size="14.00"> v2</text>
<text text-anchor="start" x="265" y="-873.3" font-family="Times,serif" font-size="14.00"> g34 = v2</text>
<text text-anchor="start" x="265" y="-858.3" font-family="Times,serif" font-size="14.00"> IntToPtrCastExpr&lt;ptr&gt;(ExtCastExpr&lt;int32&gt;((v1 == 0)))()</text>
<text text-anchor="start" x="265" y="-843.3" font-family="Times,serif" font-size="14.00"> function_f4a8()</text>
<text text-anchor="start" x="265" y="-828.3" font-family="Times,serif" font-size="14.00"> v3 = g29</text>
<text text-anchor="start" x="265" y="-813.3" font-family="Times,serif" font-size="14.00"> g9 = (v3 == 0)</text>
<text text-anchor="start" x="265" y="-798.3" font-family="Times,serif" font-size="14.00"> g40 = v3</text>
</g>
<!-- Node0x265150a0&#45;&gt;Node0x37ee35a0 -->
<g id="edge4" class="edge"><title>Node0x265150a0&#45;&gt;Node0x37ee35a0</title>
<path fill="none" stroke="black" d="M486.469,-1046.23C490.152,-1040.7 493.586,-1034.39 495.5,-1028 505.023,-996.182 503.713,-959.681 499.148,-928.472"/>
<polygon fill="black" stroke="black" points="502.595,-927.861 497.561,-918.538 495.683,-928.965 502.595,-927.861"/>
<text text-anchor="middle" x="530.5" y="-971.8" font-family="Times,serif" font-size="14.00">v1 != 0</text>
</g>
<!-- Node0x37ee0390&#45;&gt;Node0x37ee35a0 -->
<g id="edge5" class="edge"><title>Node0x37ee0390&#45;&gt;Node0x37ee35a0</title>
<path fill="none" stroke="black" d="M431.461,-956.426C435.465,-948.35 440.472,-938.252 445.759,-927.588"/>
<polygon fill="black" stroke="black" points="448.944,-929.043 450.25,-918.529 442.672,-925.934 448.944,-929.043"/>
</g>
<!-- Node0x37ee51e0 -->
<g id="node6" class="node"><title>Node0x37ee51e0</title>
<polygon fill="none" stroke="black" points="429.5,-714.5 429.5,-752.5 533.5,-752.5 533.5,-714.5 429.5,-714.5"/>
<text text-anchor="start" x="437.5" y="-737.3" font-family="Times,serif" font-size="14.00">0x86b9e20:</text>
<text text-anchor="start" x="437.5" y="-722.3" font-family="Times,serif" font-size="14.00"> if (v3 != 0):</text>
</g>
<!-- Node0x37ee35a0&#45;&gt;Node0x37ee51e0 -->
<g id="edge6" class="edge"><title>Node0x37ee35a0&#45;&gt;Node0x37ee51e0</title>
<path fill="none" stroke="black" d="M481.5,-790.167C481.5,-780.596 481.5,-771.158 481.5,-762.848"/>
<polygon fill="black" stroke="black" points="485,-762.658 481.5,-752.659 478,-762.659 485,-762.658"/>
</g>
<!-- Node0x26519240 -->
<g id="node7" class="node"><title>Node0x26519240</title>
<polygon fill="none" stroke="black" points="31.5,-489.5 31.5,-662.5 515.5,-662.5 515.5,-489.5 31.5,-489.5"/>
<text text-anchor="start" x="39.5" y="-647.3" font-family="Times,serif" font-size="14.00">0x86b6de0:</text>
<text text-anchor="start" x="39.5" y="-632.3" font-family="Times,serif" font-size="14.00"> g29 = *(IntToPtrCastExpr&lt;ptr&gt;((g39 + g38)))</text>
<text text-anchor="start" x="39.5" y="-617.3" font-family="Times,serif" font-size="14.00"> function_fcec()</text>
<text text-anchor="start" x="39.5" y="-602.3" font-family="Times,serif" font-size="14.00"> g29 = 0</text>
<text text-anchor="start" x="39.5" y="-587.3" font-family="Times,serif" font-size="14.00"> v4 = g34</text>
<text text-anchor="start" x="39.5" y="-572.3" font-family="Times,serif" font-size="14.00"> g38 = *(IntToPtrCastExpr&lt;ptr&gt;((v4 + 4)))</text>
<text text-anchor="start" x="39.5" y="-557.3" font-family="Times,serif" font-size="14.00"> g39 = *(IntToPtrCastExpr&lt;ptr&gt;((v4 + 8)))</text>
<text text-anchor="start" x="39.5" y="-542.3" font-family="Times,serif" font-size="14.00"> g40 = *(IntToPtrCastExpr&lt;ptr&gt;((v4 + 12)))</text>
<text text-anchor="start" x="39.5" y="-527.3" font-family="Times,serif" font-size="14.00"> g32 = *(IntToPtrCastExpr&lt;ptr&gt;((v4 + 16)))</text>
<text text-anchor="start" x="39.5" y="-512.3" font-family="Times,serif" font-size="14.00"> g34 = *(IntToPtrCastExpr&lt;ptr&gt;((v4 + 20)))</text>
<text text-anchor="start" x="39.5" y="-497.3" font-family="Times,serif" font-size="14.00"> IntToPtrCastExpr&lt;ptr&gt;(*(IntToPtrCastExpr&lt;ptr&gt;((v4 + 24))))()</text>
</g>
<!-- Node0x37ee51e0&#45;&gt;Node0x26519240 -->
<g id="edge7" class="edge"><title>Node0x37ee51e0&#45;&gt;Node0x26519240</title>
<path fill="none" stroke="black" d="M457.233,-714.358C441.415,-702.533 419.449,-686.111 396.193,-668.725"/>
<polygon fill="black" stroke="black" points="398.026,-665.725 387.921,-662.541 393.835,-671.332 398.026,-665.725"/>
<text text-anchor="middle" x="458.5" y="-684.8" font-family="Times,serif" font-size="14.00">v3 != 0</text>
</g>
<!-- Node0x37ee54e0 -->
<g id="node8" class="node"><title>Node0x37ee54e0</title>
<polygon fill="none" stroke="black" points="171.5,-278.5 171.5,-451.5 779.5,-451.5 779.5,-278.5 171.5,-278.5"/>
<text text-anchor="start" x="179.5" y="-436.3" font-family="Times,serif" font-size="14.00">0x86baeb0:</text>
<text text-anchor="start" x="179.5" y="-421.3" font-family="Times,serif" font-size="14.00"> g29 = *(IntToPtrCastExpr&lt;ptr&gt;((*(IntToPtrCastExpr&lt;ptr&gt;((g39 + g38))) + 20)))</text>
<text text-anchor="start" x="179.5" y="-406.3" font-family="Times,serif" font-size="14.00"> function_22008()</text>
<text text-anchor="start" x="179.5" y="-391.3" font-family="Times,serif" font-size="14.00"> g29 = g40</text>
<text text-anchor="start" x="179.5" y="-376.3" font-family="Times,serif" font-size="14.00"> v5 = g34</text>
<text text-anchor="start" x="179.5" y="-361.3" font-family="Times,serif" font-size="14.00"> g38 = *(IntToPtrCastExpr&lt;ptr&gt;((v5 + 4)))</text>
<text text-anchor="start" x="179.5" y="-346.3" font-family="Times,serif" font-size="14.00"> g39 = *(IntToPtrCastExpr&lt;ptr&gt;((v5 + 8)))</text>
<text text-anchor="start" x="179.5" y="-331.3" font-family="Times,serif" font-size="14.00"> g40 = *(IntToPtrCastExpr&lt;ptr&gt;((v5 + 12)))</text>
<text text-anchor="start" x="179.5" y="-316.3" font-family="Times,serif" font-size="14.00"> g32 = *(IntToPtrCastExpr&lt;ptr&gt;((v5 + 16)))</text>
<text text-anchor="start" x="179.5" y="-301.3" font-family="Times,serif" font-size="14.00"> g34 = *(IntToPtrCastExpr&lt;ptr&gt;((v5 + 20)))</text>
<text text-anchor="start" x="179.5" y="-286.3" font-family="Times,serif" font-size="14.00"> IntToPtrCastExpr&lt;ptr&gt;(*(IntToPtrCastExpr&lt;ptr&gt;((v5 + 24))))()</text>
</g>
<!-- Node0x37ee51e0&#45;&gt;Node0x37ee54e0 -->
<g id="edge8" class="edge"><title>Node0x37ee51e0&#45;&gt;Node0x37ee54e0</title>
<path fill="none" stroke="black" d="M496.639,-714.392C506.716,-701.101 519.067,-682.107 524.5,-663 545.651,-588.615 539.071,-564.948 524.5,-489 522.748,-479.869 520.327,-470.552 517.491,-461.337"/>
<polygon fill="black" stroke="black" points="520.807,-460.218 514.396,-451.783 514.148,-462.375 520.807,-460.218"/>
<text text-anchor="middle" x="567.5" y="-572.3" font-family="Times,serif" font-size="14.00">v3 == 0</text>
</g>
<!-- Node0x26519240&#45;&gt;Node0x37ee54e0 -->
<g id="edge9" class="edge"><title>Node0x26519240&#45;&gt;Node0x37ee54e0</title>
<path fill="none" stroke="black" d="M356.244,-489.389C365.888,-479.41 375.762,-469.194 385.498,-459.121"/>
<polygon fill="black" stroke="black" points="388.125,-461.439 392.558,-451.816 383.092,-456.575 388.125,-461.439"/>
</g>
<!-- Node0x26517d30 -->
<g id="node9" class="node"><title>Node0x26517d30</title>
<polygon fill="none" stroke="black" points="427,-202.5 427,-240.5 524,-240.5 524,-202.5 427,-202.5"/>
<text text-anchor="start" x="435" y="-225.3" font-family="Times,serif" font-size="14.00">0x86bfa70:</text>
<text text-anchor="start" x="435" y="-210.3" font-family="Times,serif" font-size="14.00"> if g9:</text>
</g>
<!-- Node0x37ee54e0&#45;&gt;Node0x26517d30 -->
<g id="edge10" class="edge"><title>Node0x37ee54e0&#45;&gt;Node0x26517d30</title>
<path fill="none" stroke="black" d="M475.5,-278.425C475.5,-268.55 475.5,-259.079 475.5,-250.829"/>
<polygon fill="black" stroke="black" points="479,-250.754 475.5,-240.754 472,-250.754 479,-250.754"/>
</g>
<!-- Node0x37ee62d0 -->
<g id="node10" class="node"><title>Node0x37ee62d0</title>
<polygon fill="none" stroke="black" points="0,-97.5 0,-150.5 513,-150.5 513,-97.5 0,-97.5"/>
<text text-anchor="start" x="8" y="-135.3" font-family="Times,serif" font-size="14.00">0x32b59fd0:</text>
<text text-anchor="start" x="8" y="-120.3" font-family="Times,serif" font-size="14.00"> v6 = (g40 % 256)</text>
<text text-anchor="start" x="8" y="-105.3" font-family="Times,serif" font-size="14.00"> g30 = ((g38 &gt;&gt; (0 if (v6 == 0) else (31 if (v6 &gt; 31) else v6))) &amp; g29)</text>
</g>
<!-- Node0x26517d30&#45;&gt;Node0x37ee62d0 -->
<g id="edge11" class="edge"><title>Node0x26517d30&#45;&gt;Node0x37ee62d0</title>
<path fill="none" stroke="black" d="M434.05,-202.425C403.202,-188.973 360.415,-170.314 324.573,-154.685"/>
<polygon fill="black" stroke="black" points="325.71,-151.362 315.145,-150.573 322.912,-157.779 325.71,-151.362"/>
<text text-anchor="middle" x="396" y="-172.8" font-family="Times,serif" font-size="14.00">g9</text>
</g>
<!-- Node0x26514c30 -->
<g id="node11" class="node"><title>Node0x26514c30</title>
<polygon fill="none" stroke="black" points="442.5,-23.5 442.5,-59.5 496.5,-59.5 496.5,-23.5 442.5,-23.5"/>
<text text-anchor="start" x="450.5" y="-37.8" font-family="Times,serif" font-size="14.00">exit:</text>
</g>
<!-- Node0x26517d30&#45;&gt;Node0x26514c30 -->
<g id="edge12" class="edge"><title>Node0x26517d30&#45;&gt;Node0x26514c30</title>
<path fill="none" stroke="black" d="M492.261,-202.349C503.222,-189.185 516.569,-170.359 522.5,-151 529.531,-128.053 531.529,-119.237 522.5,-97 517.806,-85.4403 509.352,-74.9864 500.555,-66.3978"/>
<polygon fill="black" stroke="black" points="502.902,-63.8016 493.159,-59.6389 498.179,-68.9687 502.902,-63.8016"/>
<text text-anchor="middle" x="557" y="-120.3" font-family="Times,serif" font-size="14.00">not (g9)</text>
</g>
<!-- Node0x37ee62d0&#45;&gt;Node0x26514c30 -->
<g id="edge13" class="edge"><title>Node0x37ee62d0&#45;&gt;Node0x26514c30</title>
<path fill="none" stroke="black" d="M324.187,-97.4187C360.194,-83.8104 403.058,-67.6106 432.861,-56.3471"/>
<polygon fill="black" stroke="black" points="434.322,-59.5368 442.439,-52.7274 431.847,-52.9888 434.322,-59.5368"/>
</g>
</g>
</svg>
