<?xml version="1.0" encoding="UTF-8" standalone="no"?>
<!DOCTYPE svg PUBLIC "-//W3C//DTD SVG 1.1//EN"
 "http://www.w3.org/Graphics/SVG/1.1/DTD/svg11.dtd">
<!-- Generated by graphviz version 2.38.0 (20140413.2041)
 -->
<!-- Title: Control&#45;flow graph for function &#39;function_13274()&#39;. Pages: 1 -->
<svg width="529pt" height="972pt"
 viewBox="0.00 0.00 528.50 972.00" xmlns="http://www.w3.org/2000/svg" xmlns:xlink="http://www.w3.org/1999/xlink">
<g id="graph0" class="graph" transform="scale(1 1) rotate(0) translate(4 968)">
<title>Control&#45;flow graph for function &#39;function_13274()&#39;.</title>
<polygon fill="white" stroke="none" points="-4,4 -4,-968 524.5,-968 524.5,4 -4,4"/>
<text text-anchor="middle" x="260.25" y="-7.8" font-family="Times,serif" font-size="14.00">Control&#45;flow graph for function &#39;function_13274()&#39;.</text>
<!-- Node0x21b0c280 -->
<g id="node1" class="node"><title>Node0x21b0c280</title>
<polygon fill="none" stroke="black" points="204.5,-927.5 204.5,-963.5 263.5,-963.5 263.5,-927.5 204.5,-927.5"/>
<text text-anchor="start" x="212.5" y="-941.8" font-family="Times,serif" font-size="14.00">entry:</text>
</g>
<!-- Node0x3758f660 -->
<g id="node2" class="node"><title>Node0x3758f660</title>
<polygon fill="none" stroke="black" points="78.5,-761.5 78.5,-889.5 389.5,-889.5 389.5,-761.5 78.5,-761.5"/>
<text text-anchor="start" x="86.5" y="-874.3" font-family="Times,serif" font-size="14.00">0x1e692d50:</text>
<text text-anchor="start" x="86.5" y="-859.3" font-family="Times,serif" font-size="14.00"> v1 = IntToPtrCastExpr&lt;ptr&gt;((g29 + 8))</text>
<text text-anchor="start" x="86.5" y="-844.3" font-family="Times,serif" font-size="14.00"> v2 = *(v1)</text>
<text text-anchor="start" x="86.5" y="-829.3" font-family="Times,serif" font-size="14.00"> v3 = g30</text>
<text text-anchor="start" x="86.5" y="-814.3" font-family="Times,serif" font-size="14.00"> v4 = (v2 &#45; v3)</text>
<text text-anchor="start" x="86.5" y="-799.3" font-family="Times,serif" font-size="14.00"> g37 = v4</text>
<text text-anchor="start" x="86.5" y="-784.3" font-family="Times,serif" font-size="14.00"> *(v1) = v4</text>
<text text-anchor="start" x="86.5" y="-769.3" font-family="Times,serif" font-size="14.00"> v5</text>
</g>
<!-- Node0x21b0c280&#45;&gt;Node0x3758f660 -->
<g id="edge1" class="edge"><title>Node0x21b0c280&#45;&gt;Node0x3758f660</title>
<path fill="none" stroke="black" d="M234,-927.342C234,-919.719 234,-910.177 234,-900.023"/>
<polygon fill="black" stroke="black" points="237.5,-899.713 234,-889.713 230.5,-899.713 237.5,-899.713"/>
</g>
<!-- Node0x21b0dc40 -->
<g id="node3" class="node"><title>Node0x21b0dc40</title>
<polygon fill="none" stroke="black" points="175,-670.5 175,-723.5 293,-723.5 293,-670.5 175,-670.5"/>
<text text-anchor="start" x="183" y="-708.3" font-family="Times,serif" font-size="14.00">0x7f69940:</text>
<text text-anchor="start" x="183" y="-693.3" font-family="Times,serif" font-size="14.00"> if (v2 == v3):</text>
<text text-anchor="start" x="183" y="-678.3" font-family="Times,serif" font-size="14.00"> else:</text>
</g>
<!-- Node0x3758f660&#45;&gt;Node0x21b0dc40 -->
<g id="edge2" class="edge"><title>Node0x3758f660&#45;&gt;Node0x21b0dc40</title>
<path fill="none" stroke="black" d="M234,-761.25C234,-751.765 234,-742.28 234,-733.648"/>
<polygon fill="black" stroke="black" points="237.5,-733.599 234,-723.599 230.5,-733.599 237.5,-733.599"/>
</g>
<!-- Node0x1fb0c840 -->
<g id="node4" class="node"><title>Node0x1fb0c840</title>
<polygon fill="none" stroke="black" points="115,-388.5 115,-426.5 213,-426.5 213,-388.5 115,-388.5"/>
<text text-anchor="start" x="123" y="-411.3" font-family="Times,serif" font-size="14.00">0x7f69350:</text>
<text text-anchor="start" x="123" y="-396.3" font-family="Times,serif" font-size="14.00"> v5 = g37</text>
</g>
<!-- Node0x21b0dc40&#45;&gt;Node0x1fb0c840 -->
<g id="edge3" class="edge"><title>Node0x21b0dc40&#45;&gt;Node0x1fb0c840</title>
<path fill="none" stroke="black" d="M211.009,-670.288C200.06,-656.221 188.232,-637.849 183,-619 165.389,-555.547 163.132,-477.611 163.357,-436.681"/>
<polygon fill="black" stroke="black" points="166.857,-436.669 163.467,-426.631 159.858,-436.592 166.857,-436.669"/>
<text text-anchor="middle" x="232" y="-640.8" font-family="Times,serif" font-size="14.00">v2 == v3</text>
</g>
<!-- Node0x1589fa10 -->
<g id="node5" class="node"><title>Node0x1589fa10</title>
<polygon fill="none" stroke="black" points="191.5,-445.5 191.5,-618.5 520.5,-618.5 520.5,-445.5 191.5,-445.5"/>
<text text-anchor="start" x="199.5" y="-603.3" font-family="Times,serif" font-size="14.00">0x1e692ec0:</text>
<text text-anchor="start" x="199.5" y="-588.3" font-family="Times,serif" font-size="14.00"> v6 = IntToPtrCastExpr&lt;ptr&gt;((g29 + 12))</text>
<text text-anchor="start" x="199.5" y="-573.3" font-family="Times,serif" font-size="14.00"> v7 = *(IntToPtrCastExpr&lt;ptr&gt;((g29 + 4)))</text>
<text text-anchor="start" x="199.5" y="-558.3" font-family="Times,serif" font-size="14.00"> g36 = v7</text>
<text text-anchor="start" x="199.5" y="-543.3" font-family="Times,serif" font-size="14.00"> v8 = (g30 + *(v6))</text>
<text text-anchor="start" x="199.5" y="-528.3" font-family="Times,serif" font-size="14.00"> g30 = v8</text>
<text text-anchor="start" x="199.5" y="-513.3" font-family="Times,serif" font-size="14.00"> v9 = (v8 &#45; v7)</text>
<text text-anchor="start" x="199.5" y="-498.3" font-family="Times,serif" font-size="14.00"> g8 = (((v9 ^ v8) &amp; (v8 ^ v7)) &lt; 0)</text>
<text text-anchor="start" x="199.5" y="-483.3" font-family="Times,serif" font-size="14.00"> g7 = (v9 &lt; 0)</text>
<text text-anchor="start" x="199.5" y="-468.3" font-family="Times,serif" font-size="14.00"> g9 = (v8 == v7)</text>
<text text-anchor="start" x="199.5" y="-453.3" font-family="Times,serif" font-size="14.00"> *(v6) = v8</text>
</g>
<!-- Node0x21b0dc40&#45;&gt;Node0x1589fa10 -->
<g id="edge4" class="edge"><title>Node0x21b0dc40&#45;&gt;Node0x1589fa10</title>
<path fill="none" stroke="black" d="M253.331,-670.172C262.371,-658.094 273.75,-642.891 285.614,-627.04"/>
<polygon fill="black" stroke="black" points="288.663,-628.808 291.853,-618.705 283.059,-624.613 288.663,-628.808"/>
<text text-anchor="middle" x="308" y="-640.8" font-family="Times,serif" font-size="14.00">v2 != v3</text>
</g>
<!-- Node0x21b0d9b0 -->
<g id="node6" class="node"><title>Node0x21b0d9b0</title>
<polygon fill="none" stroke="black" points="0,-97.5 0,-135.5 338,-135.5 338,-97.5 0,-97.5"/>
<text text-anchor="start" x="8" y="-120.3" font-family="Times,serif" font-size="14.00">0x7f6d800:</text>
<text text-anchor="start" x="8" y="-105.3" font-family="Times,serif" font-size="14.00"> *(IntToPtrCastExpr&lt;ptr&gt;((g29 + 12))) = v5</text>
</g>
<!-- Node0x1fb0c840&#45;&gt;Node0x21b0d9b0 -->
<g id="edge5" class="edge"><title>Node0x1fb0c840&#45;&gt;Node0x21b0d9b0</title>
<path fill="none" stroke="black" d="M164.313,-388.422C165.158,-339.562 167.493,-204.598 168.513,-145.655"/>
<polygon fill="black" stroke="black" points="172.014,-145.63 168.687,-135.571 165.015,-145.509 172.014,-145.63"/>
</g>
<!-- Node0x375904c0 -->
<g id="node7" class="node"><title>Node0x375904c0</title>
<polygon fill="none" stroke="black" points="303,-331.5 303,-369.5 409,-369.5 409,-331.5 303,-331.5"/>
<text text-anchor="start" x="311" y="-354.3" font-family="Times,serif" font-size="14.00">0x7f6c540:</text>
<text text-anchor="start" x="311" y="-339.3" font-family="Times,serif" font-size="14.00"> if (v8 &lt; v7):</text>
</g>
<!-- Node0x1589fa10&#45;&gt;Node0x375904c0 -->
<g id="edge6" class="edge"><title>Node0x1589fa10&#45;&gt;Node0x375904c0</title>
<path fill="none" stroke="black" d="M356,-445.456C356,-421.826 356,-397.807 356,-379.969"/>
<polygon fill="black" stroke="black" points="359.5,-379.72 356,-369.72 352.5,-379.72 359.5,-379.72"/>
</g>
<!-- Node0x21b0da20 -->
<g id="node8" class="node"><title>Node0x21b0da20</title>
<polygon fill="none" stroke="black" points="283,-23.5 283,-59.5 337,-59.5 337,-23.5 283,-23.5"/>
<text text-anchor="start" x="291" y="-37.8" font-family="Times,serif" font-size="14.00">exit:</text>
</g>
<!-- Node0x21b0d9b0&#45;&gt;Node0x21b0da20 -->
<g id="edge7" class="edge"><title>Node0x21b0d9b0&#45;&gt;Node0x21b0da20</title>
<path fill="none" stroke="black" d="M203.854,-97.4551C225.023,-86.495 252.012,-72.5221 273.477,-61.4088"/>
<polygon fill="black" stroke="black" points="275.336,-64.3879 282.607,-56.682 272.118,-58.1716 275.336,-64.3879"/>
</g>
<!-- Node0x375907e0 -->
<g id="node9" class="node"><title>Node0x375907e0</title>
<polygon fill="none" stroke="black" points="317.5,-154.5 317.5,-192.5 414.5,-192.5 414.5,-154.5 317.5,-154.5"/>
<text text-anchor="start" x="325.5" y="-177.3" font-family="Times,serif" font-size="14.00">0x7f6c470:</text>
<text text-anchor="start" x="325.5" y="-162.3" font-family="Times,serif" font-size="14.00"> return</text>
</g>
<!-- Node0x375904c0&#45;&gt;Node0x375907e0 -->
<g id="edge8" class="edge"><title>Node0x375904c0&#45;&gt;Node0x375907e0</title>
<path fill="none" stroke="black" d="M357.033,-331.431C358.769,-301.041 362.288,-239.464 364.364,-203.134"/>
<polygon fill="black" stroke="black" points="367.882,-202.916 364.958,-192.733 360.893,-202.517 367.882,-202.916"/>
<text text-anchor="middle" x="386" y="-301.8" font-family="Times,serif" font-size="14.00">v8 &lt; v7</text>
</g>
<!-- Node0x375906a0 -->
<g id="node10" class="node"><title>Node0x375906a0</title>
<polygon fill="none" stroke="black" points="192,-211.5 192,-279.5 338,-279.5 338,-211.5 192,-211.5"/>
<text text-anchor="start" x="200" y="-264.3" font-family="Times,serif" font-size="14.00">0x1e693560:</text>
<text text-anchor="start" x="200" y="-249.3" font-family="Times,serif" font-size="14.00"> v10 = (g30 &#45; g36)</text>
<text text-anchor="start" x="200" y="-234.3" font-family="Times,serif" font-size="14.00"> g37 = v10</text>
<text text-anchor="start" x="200" y="-219.3" font-family="Times,serif" font-size="14.00"> v5 = v10</text>
</g>
<!-- Node0x375904c0&#45;&gt;Node0x375906a0 -->
<g id="edge9" class="edge"><title>Node0x375904c0&#45;&gt;Node0x375906a0</title>
<path fill="none" stroke="black" d="M302.601,-333.988C292.448,-328.805 282.867,-321.97 276,-313 270.893,-306.328 267.785,-298.167 265.957,-289.877"/>
<polygon fill="black" stroke="black" points="269.376,-289.1 264.313,-279.793 262.468,-290.226 269.376,-289.1"/>
<text text-anchor="middle" x="310" y="-301.8" font-family="Times,serif" font-size="14.00">v8 &gt;= v7</text>
</g>
<!-- Node0x375907e0&#45;&gt;Node0x21b0da20 -->
<g id="edge10" class="edge"><title>Node0x375907e0&#45;&gt;Node0x21b0da20</title>
<path fill="none" stroke="black" d="M363.247,-154.214C360.46,-138.545 355.35,-115.623 347,-97 342.508,-86.982 336.182,-76.8134 330.029,-68.016"/>
<polygon fill="black" stroke="black" points="332.719,-65.7633 324.008,-59.732 327.057,-69.8789 332.719,-65.7633"/>
</g>
<!-- Node0x375906a0&#45;&gt;Node0x21b0d9b0 -->
<g id="edge11" class="edge"><title>Node0x375906a0&#45;&gt;Node0x21b0d9b0</title>
<path fill="none" stroke="black" d="M240.028,-211.464C224.155,-190.465 203.878,-163.641 189.056,-144.033"/>
<polygon fill="black" stroke="black" points="191.689,-141.711 182.866,-135.844 186.104,-145.932 191.689,-141.711"/>
</g>
</g>
</svg>
