<?xml version="1.0" encoding="UTF-8" standalone="no"?>
<!DOCTYPE svg PUBLIC "-//W3C//DTD SVG 1.1//EN"
 "http://www.w3.org/Graphics/SVG/1.1/DTD/svg11.dtd">
<!-- Generated by graphviz version 2.38.0 (20140413.2041)
 -->
<!-- Title: Control&#45;flow graph for function &#39;function_9450()&#39;. Pages: 1 -->
<svg width="1081pt" height="1090pt"
 viewBox="0.00 0.00 1080.50 1090.00" xmlns="http://www.w3.org/2000/svg" xmlns:xlink="http://www.w3.org/1999/xlink">
<g id="graph0" class="graph" transform="scale(1 1) rotate(0) translate(4 1086)">
<title>Control&#45;flow graph for function &#39;function_9450()&#39;.</title>
<polygon fill="white" stroke="none" points="-4,4 -4,-1086 1076.5,-1086 1076.5,4 -4,4"/>
<text text-anchor="middle" x="536.25" y="-7.8" font-family="Times,serif" font-size="14.00">Control&#45;flow graph for function &#39;function_9450()&#39;.</text>
<!-- Node0x2a3eabd0 -->
<g id="node1" class="node"><title>Node0x2a3eabd0</title>
<polygon fill="none" stroke="black" points="416,-1045.5 416,-1081.5 475,-1081.5 475,-1045.5 416,-1045.5"/>
<text text-anchor="start" x="424" y="-1059.8" font-family="Times,serif" font-size="14.00">entry:</text>
</g>
<!-- Node0x443b7dc0 -->
<g id="node2" class="node"><title>Node0x443b7dc0</title>
<polygon fill="none" stroke="black" points="219.5,-759.5 219.5,-1007.5 671.5,-1007.5 671.5,-759.5 219.5,-759.5"/>
<text text-anchor="start" x="227.5" y="-992.3" font-family="Times,serif" font-size="14.00">0x44d8b410:</text>
<text text-anchor="start" x="227.5" y="-977.3" font-family="Times,serif" font-size="14.00"> v1 = NULL</text>
<text text-anchor="start" x="227.5" y="-962.3" font-family="Times,serif" font-size="14.00"> v2 = g29</text>
<text text-anchor="start" x="227.5" y="-947.3" font-family="Times,serif" font-size="14.00"> v3 = *(IntToPtrCastExpr&lt;ptr&gt;((v2 + 68)))</text>
<text text-anchor="start" x="227.5" y="-932.3" font-family="Times,serif" font-size="14.00"> v4 = v3</text>
<text text-anchor="start" x="227.5" y="-917.3" font-family="Times,serif" font-size="14.00"> g37 = v4</text>
<text text-anchor="start" x="227.5" y="-902.3" font-family="Times,serif" font-size="14.00"> g8 = (((80 &#45; v4) &amp; v4) &lt; 0)</text>
<text text-anchor="start" x="227.5" y="-887.3" font-family="Times,serif" font-size="14.00"> g7 = (v4 &lt; 81)</text>
<text text-anchor="start" x="227.5" y="-872.3" font-family="Times,serif" font-size="14.00"> g9 = (v3 == 81)</text>
<text text-anchor="start" x="227.5" y="-857.3" font-family="Times,serif" font-size="14.00"> *(IntToPtrCastExpr&lt;ptr&gt;((v2 + 328))) = g30</text>
<text text-anchor="start" x="227.5" y="-842.3" font-family="Times,serif" font-size="14.00"> g34 = PtrToIntCastExpr&lt;int32&gt;(v1)</text>
<text text-anchor="start" x="227.5" y="-827.3" font-family="Times,serif" font-size="14.00"> IntToPtrCastExpr&lt;ptr&gt;(ExtCastExpr&lt;int32&gt;((v3 != 81)))()</text>
<text text-anchor="start" x="227.5" y="-812.3" font-family="Times,serif" font-size="14.00"> v5 = g30</text>
<text text-anchor="start" x="227.5" y="-797.3" font-family="Times,serif" font-size="14.00"> g8 = False</text>
<text text-anchor="start" x="227.5" y="-782.3" font-family="Times,serif" font-size="14.00"> g7 = (v5 &lt; 0)</text>
<text text-anchor="start" x="227.5" y="-767.3" font-family="Times,serif" font-size="14.00"> g9 = (v5 == 0)</text>
</g>
<!-- Node0x2a3eabd0&#45;&gt;Node0x443b7dc0 -->
<g id="edge1" class="edge"><title>Node0x2a3eabd0&#45;&gt;Node0x443b7dc0</title>
<path fill="none" stroke="black" d="M445.5,-1045.43C445.5,-1037.97 445.5,-1028.49 445.5,-1017.89"/>
<polygon fill="black" stroke="black" points="449,-1017.85 445.5,-1007.85 442,-1017.85 449,-1017.85"/>
</g>
<!-- Node0x3fa1cd60 -->
<g id="node3" class="node"><title>Node0x3fa1cd60</title>
<polygon fill="none" stroke="black" points="395,-668.5 395,-721.5 496,-721.5 496,-668.5 395,-668.5"/>
<text text-anchor="start" x="403" y="-706.3" font-family="Times,serif" font-size="14.00">0x6da7d10:</text>
<text text-anchor="start" x="403" y="-691.3" font-family="Times,serif" font-size="14.00"> if (v5 &lt; 0):</text>
<text text-anchor="start" x="403" y="-676.3" font-family="Times,serif" font-size="14.00"> else:</text>
</g>
<!-- Node0x443b7dc0&#45;&gt;Node0x3fa1cd60 -->
<g id="edge2" class="edge"><title>Node0x443b7dc0&#45;&gt;Node0x3fa1cd60</title>
<path fill="none" stroke="black" d="M445.5,-759.401C445.5,-749.46 445.5,-740.025 445.5,-731.619"/>
<polygon fill="black" stroke="black" points="449,-731.559 445.5,-721.559 442,-731.559 449,-731.559"/>
</g>
<!-- Node0x3fa1ce40 -->
<g id="node4" class="node"><title>Node0x3fa1ce40</title>
<polygon fill="none" stroke="black" points="0,-406 0,-474 347,-474 347,-406 0,-406"/>
<text text-anchor="start" x="8" y="-458.8" font-family="Times,serif" font-size="14.00">0x6da6510:</text>
<text text-anchor="start" x="8" y="-443.8" font-family="Times,serif" font-size="14.00"> g37 = 0</text>
<text text-anchor="start" x="8" y="-428.8" font-family="Times,serif" font-size="14.00"> *(IntToPtrCastExpr&lt;ptr&gt;((g29 + 18))) = 0</text>
<text text-anchor="start" x="8" y="-413.8" font-family="Times,serif" font-size="14.00"> *(IntToPtrCastExpr&lt;ptr&gt;((g29 + 24))) = g37</text>
</g>
<!-- Node0x3fa1cd60&#45;&gt;Node0x3fa1ce40 -->
<g id="edge3" class="edge"><title>Node0x3fa1cd60&#45;&gt;Node0x3fa1ce40</title>
<path fill="none" stroke="black" d="M414.688,-668.436C397.118,-653.662 374.817,-634.574 355.5,-617 305.719,-571.712 250.382,-517.64 213.942,-481.491"/>
<polygon fill="black" stroke="black" points="216.023,-478.624 206.462,-474.059 211.089,-483.59 216.023,-478.624"/>
<text text-anchor="middle" x="416.5" y="-638.8" font-family="Times,serif" font-size="14.00">v5 &lt; 0</text>
</g>
<!-- Node0x2a3e5db0 -->
<g id="node5" class="node"><title>Node0x2a3e5db0</title>
<polygon fill="none" stroke="black" points="364.5,-263.5 364.5,-616.5 1072.5,-616.5 1072.5,-263.5 364.5,-263.5"/>
<text text-anchor="start" x="372.5" y="-601.3" font-family="Times,serif" font-size="14.00">0x19d95330:</text>
<text text-anchor="start" x="372.5" y="-586.3" font-family="Times,serif" font-size="14.00"> v6 = ExtCastExpr&lt;int32&gt;(*(IntToPtrCastExpr&lt;ptr&gt;((g29 + 12))))</text>
<text text-anchor="start" x="372.5" y="-571.3" font-family="Times,serif" font-size="14.00"> g37 = v6</text>
<text text-anchor="start" x="372.5" y="-556.3" font-family="Times,serif" font-size="14.00"> v7 = (v5 &#45; v6)</text>
<text text-anchor="start" x="372.5" y="-541.3" font-family="Times,serif" font-size="14.00"> g8 = False</text>
<text text-anchor="start" x="372.5" y="-526.3" font-family="Times,serif" font-size="14.00"> g7 = (v7 &lt; 0)</text>
<text text-anchor="start" x="372.5" y="-511.3" font-family="Times,serif" font-size="14.00"> g9 = (v5 == v6)</text>
<text text-anchor="start" x="372.5" y="-496.3" font-family="Times,serif" font-size="14.00"> g38 = *(IntToPtrCastExpr&lt;ptr&gt;(g34))</text>
<text text-anchor="start" x="372.5" y="-481.3" font-family="Times,serif" font-size="14.00"> g39 = v1[&#39;1&#39;]</text>
<text text-anchor="start" x="372.5" y="-466.3" font-family="Times,serif" font-size="14.00"> g32 = v1[&#39;2&#39;]</text>
<text text-anchor="start" x="372.5" y="-451.3" font-family="Times,serif" font-size="14.00"> g34 = v1[&#39;3&#39;]</text>
<text text-anchor="start" x="372.5" y="-436.3" font-family="Times,serif" font-size="14.00"> IntToPtrCastExpr&lt;ptr&gt;(ExtCastExpr&lt;int32&gt;((v7 &lt; 1)))()</text>
<text text-anchor="start" x="372.5" y="-421.3" font-family="Times,serif" font-size="14.00"> v8 = *(IntToPtrCastExpr&lt;ptr&gt;((g29 + 8)))</text>
<text text-anchor="start" x="372.5" y="-406.3" font-family="Times,serif" font-size="14.00"> v9 = g39</text>
<text text-anchor="start" x="372.5" y="-391.3" font-family="Times,serif" font-size="14.00"> v10 = (v1[&#39;4&#39;] &#45; v9)</text>
<text text-anchor="start" x="372.5" y="-376.3" font-family="Times,serif" font-size="14.00"> memmove(IntToPtrCastExpr&lt;ptr&gt;(v8), IntToPtrCastExpr&lt;ptr&gt;(((256 * v9) + v8)), (256 * v10))</text>
<text text-anchor="start" x="372.5" y="-361.3" font-family="Times,serif" font-size="14.00"> v11 = v1[&#39;3&#39;]</text>
<text text-anchor="start" x="372.5" y="-346.3" font-family="Times,serif" font-size="14.00"> g30 = v11</text>
<text text-anchor="start" x="372.5" y="-331.3" font-family="Times,serif" font-size="14.00"> v12 = (g39 % 65536)</text>
<text text-anchor="start" x="372.5" y="-316.3" font-family="Times,serif" font-size="14.00"> v13 = (v1[&#39;4&#39;] &#45; v12)</text>
<text text-anchor="start" x="372.5" y="-301.3" font-family="Times,serif" font-size="14.00"> g36 = v13</text>
<text text-anchor="start" x="372.5" y="-286.3" font-family="Times,serif" font-size="14.00"> g37 = (v11 + v12)</text>
<text text-anchor="start" x="372.5" y="-271.3" font-family="Times,serif" font-size="14.00"> v1[&#39;4&#39;] = ((65536 * v13) / 65536)</text>
</g>
<!-- Node0x3fa1cd60&#45;&gt;Node0x2a3e5db0 -->
<g id="edge4" class="edge"><title>Node0x3fa1cd60&#45;&gt;Node0x2a3e5db0</title>
<path fill="none" stroke="black" d="M473.179,-668.349C486.163,-656.316 502.875,-640.828 521.466,-623.599"/>
<polygon fill="black" stroke="black" points="524.009,-626.015 528.964,-616.65 519.251,-620.881 524.009,-626.015"/>
<text text-anchor="middle" x="534.5" y="-638.8" font-family="Times,serif" font-size="14.00">v5 &gt;= 0</text>
</g>
<!-- Node0x1cdeb2d0 -->
<g id="node6" class="node"><title>Node0x1cdeb2d0</title>
<polygon fill="none" stroke="black" points="246,-97.5 246,-225.5 775,-225.5 775,-97.5 246,-97.5"/>
<text text-anchor="start" x="254" y="-210.3" font-family="Times,serif" font-size="14.00">0x6db08f0:</text>
<text text-anchor="start" x="254" y="-195.3" font-family="Times,serif" font-size="14.00"> *(IntToPtrCastExpr&lt;ptr&gt;((g38 + 12))) = TruncCastExpr&lt;int16&gt;(g37)</text>
<text text-anchor="start" x="254" y="-180.3" font-family="Times,serif" font-size="14.00"> v14 = g34</text>
<text text-anchor="start" x="254" y="-165.3" font-family="Times,serif" font-size="14.00"> g38 = *(IntToPtrCastExpr&lt;ptr&gt;(v14))</text>
<text text-anchor="start" x="254" y="-150.3" font-family="Times,serif" font-size="14.00"> g39 = *(IntToPtrCastExpr&lt;ptr&gt;((v14 + 4)))</text>
<text text-anchor="start" x="254" y="-135.3" font-family="Times,serif" font-size="14.00"> g32 = *(IntToPtrCastExpr&lt;ptr&gt;((v14 + 8)))</text>
<text text-anchor="start" x="254" y="-120.3" font-family="Times,serif" font-size="14.00"> g34 = *(IntToPtrCastExpr&lt;ptr&gt;((v14 + 12)))</text>
<text text-anchor="start" x="254" y="-105.3" font-family="Times,serif" font-size="14.00"> IntToPtrCastExpr&lt;ptr&gt;(*(IntToPtrCastExpr&lt;ptr&gt;((v14 + 16))))()</text>
</g>
<!-- Node0x3fa1ce40&#45;&gt;Node0x1cdeb2d0 -->
<g id="edge5" class="edge"><title>Node0x3fa1ce40&#45;&gt;Node0x1cdeb2d0</title>
<path fill="none" stroke="black" d="M203.994,-405.878C238.823,-368.94 298.396,-308.421 355.5,-263 368.928,-252.319 383.513,-241.713 398.185,-231.617"/>
<polygon fill="black" stroke="black" points="400.529,-234.256 406.826,-225.735 396.59,-228.469 400.529,-234.256"/>
</g>
<!-- Node0x2a3e5db0&#45;&gt;Node0x1cdeb2d0 -->
<g id="edge6" class="edge"><title>Node0x2a3e5db0&#45;&gt;Node0x1cdeb2d0</title>
<path fill="none" stroke="black" d="M586.476,-263.497C578.767,-253.25 571.281,-243.298 564.204,-233.89"/>
<polygon fill="black" stroke="black" points="566.904,-231.657 558.095,-225.769 561.31,-235.865 566.904,-231.657"/>
</g>
<!-- Node0x3fa1e7d0 -->
<g id="node7" class="node"><title>Node0x3fa1e7d0</title>
<polygon fill="none" stroke="black" points="483.5,-23.5 483.5,-59.5 537.5,-59.5 537.5,-23.5 483.5,-23.5"/>
<text text-anchor="start" x="491.5" y="-37.8" font-family="Times,serif" font-size="14.00">exit:</text>
</g>
<!-- Node0x1cdeb2d0&#45;&gt;Node0x3fa1e7d0 -->
<g id="edge7" class="edge"><title>Node0x1cdeb2d0&#45;&gt;Node0x3fa1e7d0</title>
<path fill="none" stroke="black" d="M510.5,-97.3546C510.5,-87.7534 510.5,-78.2993 510.5,-70.016"/>
<polygon fill="black" stroke="black" points="514,-69.8875 510.5,-59.8875 507,-69.8876 514,-69.8875"/>
</g>
</g>
</svg>
