<?xml version="1.0" encoding="UTF-8" standalone="no"?>
<!DOCTYPE svg PUBLIC "-//W3C//DTD SVG 1.1//EN"
 "http://www.w3.org/Graphics/SVG/1.1/DTD/svg11.dtd">
<!-- Generated by graphviz version 2.38.0 (20140413.2041)
 -->
<!-- Title: Control&#45;flow graph for function &#39;function_20b30()&#39;. Pages: 1 -->
<svg width="541pt" height="1182pt"
 viewBox="0.00 0.00 540.50 1182.00" xmlns="http://www.w3.org/2000/svg" xmlns:xlink="http://www.w3.org/1999/xlink">
<g id="graph0" class="graph" transform="scale(1 1) rotate(0) translate(4 1178)">
<title>Control&#45;flow graph for function &#39;function_20b30()&#39;.</title>
<polygon fill="white" stroke="none" points="-4,4 -4,-1178 536.5,-1178 536.5,4 -4,4"/>
<text text-anchor="middle" x="266.25" y="-7.8" font-family="Times,serif" font-size="14.00">Control&#45;flow graph for function &#39;function_20b30()&#39;.</text>
<!-- Node0x33934500 -->
<g id="node1" class="node"><title>Node0x33934500</title>
<polygon fill="none" stroke="black" points="193,-1137.5 193,-1173.5 252,-1173.5 252,-1137.5 193,-1137.5"/>
<text text-anchor="start" x="201" y="-1151.8" font-family="Times,serif" font-size="14.00">entry:</text>
</g>
<!-- Node0x3fb6dd60 -->
<g id="node2" class="node"><title>Node0x3fb6dd60</title>
<polygon fill="none" stroke="black" points="157.5,-1016.5 157.5,-1099.5 287.5,-1099.5 287.5,-1016.5 157.5,-1016.5"/>
<text text-anchor="start" x="165.5" y="-1084.3" font-family="Times,serif" font-size="14.00">0x34fa4c30:</text>
<text text-anchor="start" x="165.5" y="-1069.3" font-family="Times,serif" font-size="14.00"> v1 = g30</text>
<text text-anchor="start" x="165.5" y="-1054.3" font-family="Times,serif" font-size="14.00"> g6 = True</text>
<text text-anchor="start" x="165.5" y="-1039.3" font-family="Times,serif" font-size="14.00"> g9 = (v1 == 0)</text>
<text text-anchor="start" x="165.5" y="-1024.3" font-family="Times,serif" font-size="14.00"> g30 = g36</text>
</g>
<!-- Node0x33934500&#45;&gt;Node0x3fb6dd60 -->
<g id="edge1" class="edge"><title>Node0x33934500&#45;&gt;Node0x3fb6dd60</title>
<path fill="none" stroke="black" d="M222.5,-1137.43C222.5,-1129.62 222.5,-1119.92 222.5,-1110.03"/>
<polygon fill="black" stroke="black" points="226,-1109.73 222.5,-1099.73 219,-1109.73 226,-1109.73"/>
</g>
<!-- Node0xf117c00 -->
<g id="node3" class="node"><title>Node0xf117c00</title>
<polygon fill="none" stroke="black" points="167.5,-940.5 167.5,-978.5 277.5,-978.5 277.5,-940.5 167.5,-940.5"/>
<text text-anchor="start" x="175.5" y="-963.3" font-family="Times,serif" font-size="14.00">0x9f9f000:</text>
<text text-anchor="start" x="175.5" y="-948.3" font-family="Times,serif" font-size="14.00"> if (v1 == 0):</text>
</g>
<!-- Node0x3fb6dd60&#45;&gt;Node0xf117c00 -->
<g id="edge2" class="edge"><title>Node0x3fb6dd60&#45;&gt;Node0xf117c00</title>
<path fill="none" stroke="black" d="M222.5,-1016.35C222.5,-1007.08 222.5,-997.427 222.5,-988.803"/>
<polygon fill="black" stroke="black" points="226,-988.538 222.5,-978.538 219,-988.538 226,-988.538"/>
</g>
<!-- Node0x2446a430 -->
<g id="node4" class="node"><title>Node0x2446a430</title>
<polygon fill="none" stroke="black" points="129,-850.5 129,-888.5 224,-888.5 224,-850.5 129,-850.5"/>
<text text-anchor="start" x="137" y="-873.3" font-family="Times,serif" font-size="14.00">0x9f9eea0:</text>
<text text-anchor="start" x="137" y="-858.3" font-family="Times,serif" font-size="14.00"> g29 = 0</text>
</g>
<!-- Node0xf117c00&#45;&gt;Node0x2446a430 -->
<g id="edge3" class="edge"><title>Node0xf117c00&#45;&gt;Node0x2446a430</title>
<path fill="none" stroke="black" d="M200.306,-940.167C195.061,-934.817 189.986,-928.614 186.5,-922 182.72,-914.829 180.359,-906.42 178.888,-898.5"/>
<polygon fill="black" stroke="black" points="182.338,-897.901 177.423,-888.515 175.412,-898.918 182.338,-897.901"/>
<text text-anchor="middle" x="216.5" y="-910.8" font-family="Times,serif" font-size="14.00">v1 == 0</text>
</g>
<!-- Node0x3eb13ac0 -->
<g id="node5" class="node"><title>Node0x3eb13ac0</title>
<polygon fill="none" stroke="black" points="9,-639.5 9,-812.5 458,-812.5 458,-639.5 9,-639.5"/>
<text text-anchor="start" x="17" y="-797.3" font-family="Times,serif" font-size="14.00">0x384bcf20:</text>
<text text-anchor="start" x="17" y="-782.3" font-family="Times,serif" font-size="14.00"> v2</text>
<text text-anchor="start" x="17" y="-767.3" font-family="Times,serif" font-size="14.00"> g34 = v2</text>
<text text-anchor="start" x="17" y="-752.3" font-family="Times,serif" font-size="14.00"> IntToPtrCastExpr&lt;ptr&gt;(ExtCastExpr&lt;int32&gt;((v1 == 0)))()</text>
<text text-anchor="start" x="17" y="-737.3" font-family="Times,serif" font-size="14.00"> v3 = g39</text>
<text text-anchor="start" x="17" y="-722.3" font-family="Times,serif" font-size="14.00"> v4 = (g36 + 16)</text>
<text text-anchor="start" x="17" y="-707.3" font-family="Times,serif" font-size="14.00"> g36 = v4</text>
<text text-anchor="start" x="17" y="-692.3" font-family="Times,serif" font-size="14.00"> v5 = (*(IntToPtrCastExpr&lt;ptr&gt;((v3 + 4))) &amp; &#45;4)</text>
<text text-anchor="start" x="17" y="-677.3" font-family="Times,serif" font-size="14.00"> g6 = (v5 &gt;= v4)</text>
<text text-anchor="start" x="17" y="-662.3" font-family="Times,serif" font-size="14.00"> g9 = (v5 == v4)</text>
<text text-anchor="start" x="17" y="-647.3" font-family="Times,serif" font-size="14.00"> v6</text>
</g>
<!-- Node0xf117c00&#45;&gt;Node0x3eb13ac0 -->
<g id="edge4" class="edge"><title>Node0xf117c00&#45;&gt;Node0x3eb13ac0</title>
<path fill="none" stroke="black" d="M237.469,-940.234C241.152,-934.705 244.586,-928.394 246.5,-922 255.893,-890.617 256.352,-855.168 253.28,-823.186"/>
<polygon fill="black" stroke="black" points="256.725,-822.496 252.165,-812.933 249.766,-823.253 256.725,-822.496"/>
<text text-anchor="middle" x="282.5" y="-865.8" font-family="Times,serif" font-size="14.00">v1 != 0</text>
</g>
<!-- Node0x2446a430&#45;&gt;Node0x3eb13ac0 -->
<g id="edge5" class="edge"><title>Node0x2446a430&#45;&gt;Node0x3eb13ac0</title>
<path fill="none" stroke="black" d="M183.835,-850.291C186.975,-842.497 190.899,-832.755 195.158,-822.183"/>
<polygon fill="black" stroke="black" points="198.485,-823.29 198.975,-812.706 191.992,-820.674 198.485,-823.29"/>
</g>
<!-- Node0x23280010 -->
<g id="node6" class="node"><title>Node0x23280010</title>
<polygon fill="none" stroke="black" points="174.5,-548.5 174.5,-601.5 292.5,-601.5 292.5,-548.5 174.5,-548.5"/>
<text text-anchor="start" x="182.5" y="-586.3" font-family="Times,serif" font-size="14.00">0x9fa4200:</text>
<text text-anchor="start" x="182.5" y="-571.3" font-family="Times,serif" font-size="14.00"> if (v5 &gt;= v4):</text>
<text text-anchor="start" x="182.5" y="-556.3" font-family="Times,serif" font-size="14.00"> else:</text>
</g>
<!-- Node0x3eb13ac0&#45;&gt;Node0x23280010 -->
<g id="edge6" class="edge"><title>Node0x3eb13ac0&#45;&gt;Node0x23280010</title>
<path fill="none" stroke="black" d="M233.5,-639.189C233.5,-629.546 233.5,-620.162 233.5,-611.704"/>
<polygon fill="black" stroke="black" points="237,-611.535 233.5,-601.535 230,-611.535 237,-611.535"/>
</g>
<!-- Node0x3eb10ac0 -->
<g id="node7" class="node"><title>Node0x3eb10ac0</title>
<polygon fill="none" stroke="black" points="0,-308.5 0,-496.5 311,-496.5 311,-308.5 0,-308.5"/>
<text text-anchor="start" x="8" y="-481.3" font-family="Times,serif" font-size="14.00">0x9fa1530:</text>
<text text-anchor="start" x="8" y="-466.3" font-family="Times,serif" font-size="14.00"> g29 = v3</text>
<text text-anchor="start" x="8" y="-451.3" font-family="Times,serif" font-size="14.00"> function_209a4()</text>
<text text-anchor="start" x="8" y="-436.3" font-family="Times,serif" font-size="14.00"> g38 = g29</text>
<text text-anchor="start" x="8" y="-421.3" font-family="Times,serif" font-size="14.00"> g29 = g39</text>
<text text-anchor="start" x="8" y="-406.3" font-family="Times,serif" font-size="14.00"> function_20878()</text>
<text text-anchor="start" x="8" y="-391.3" font-family="Times,serif" font-size="14.00"> v7 = IntToPtrCastExpr&lt;ptr&gt;((g38 + 4))</text>
<text text-anchor="start" x="8" y="-376.3" font-family="Times,serif" font-size="14.00"> g29 = g40</text>
<text text-anchor="start" x="8" y="-361.3" font-family="Times,serif" font-size="14.00"> *(v7) = (*(v7) | 2)</text>
<text text-anchor="start" x="8" y="-346.3" font-family="Times,serif" font-size="14.00"> g30 = g38</text>
<text text-anchor="start" x="8" y="-331.3" font-family="Times,serif" font-size="14.00"> function_20ab4()</text>
<text text-anchor="start" x="8" y="-316.3" font-family="Times,serif" font-size="14.00"> v6 = g39</text>
</g>
<!-- Node0x23280010&#45;&gt;Node0x3eb10ac0 -->
<g id="edge7" class="edge"><title>Node0x23280010&#45;&gt;Node0x3eb10ac0</title>
<path fill="none" stroke="black" d="M221.823,-548.474C216.423,-536.671 209.618,-521.797 202.439,-506.104"/>
<polygon fill="black" stroke="black" points="205.519,-504.424 198.176,-496.786 199.154,-507.336 205.519,-504.424"/>
<text text-anchor="middle" x="247.5" y="-518.8" font-family="Times,serif" font-size="14.00">v5 &gt;= v4</text>
</g>
<!-- Node0x1e6f7210 -->
<g id="node8" class="node"><title>Node0x1e6f7210</title>
<polygon fill="none" stroke="black" points="329,-383.5 329,-421.5 426,-421.5 426,-383.5 329,-383.5"/>
<text text-anchor="start" x="337" y="-406.3" font-family="Times,serif" font-size="14.00">0x9fa4380:</text>
<text text-anchor="start" x="337" y="-391.3" font-family="Times,serif" font-size="14.00"> v6 = v3</text>
</g>
<!-- Node0x23280010&#45;&gt;Node0x1e6f7210 -->
<g id="edge8" class="edge"><title>Node0x23280010&#45;&gt;Node0x1e6f7210</title>
<path fill="none" stroke="black" d="M264.256,-548.445C271.299,-542.464 278.709,-536.067 285.5,-530 301.444,-515.757 307.038,-513.609 320.5,-497 337.371,-476.185 352.942,-449.95 363.531,-430.571"/>
<polygon fill="black" stroke="black" points="366.667,-432.129 368.313,-421.663 360.5,-428.818 366.667,-432.129"/>
<text text-anchor="middle" x="330.5" y="-518.8" font-family="Times,serif" font-size="14.00">v5 &lt; v4</text>
</g>
<!-- Node0x17bb75a0 -->
<g id="node9" class="node"><title>Node0x17bb75a0</title>
<polygon fill="none" stroke="black" points="48.5,-97.5 48.5,-270.5 532.5,-270.5 532.5,-97.5 48.5,-97.5"/>
<text text-anchor="start" x="56.5" y="-255.3" font-family="Times,serif" font-size="14.00">0x9fa44d0:</text>
<text text-anchor="start" x="56.5" y="-240.3" font-family="Times,serif" font-size="14.00"> g29 = v6</text>
<text text-anchor="start" x="56.5" y="-225.3" font-family="Times,serif" font-size="14.00"> function_208cc()</text>
<text text-anchor="start" x="56.5" y="-210.3" font-family="Times,serif" font-size="14.00"> g29 = (g39 + 8)</text>
<text text-anchor="start" x="56.5" y="-195.3" font-family="Times,serif" font-size="14.00"> v8 = g34</text>
<text text-anchor="start" x="56.5" y="-180.3" font-family="Times,serif" font-size="14.00"> g38 = *(IntToPtrCastExpr&lt;ptr&gt;((v8 + 4)))</text>
<text text-anchor="start" x="56.5" y="-165.3" font-family="Times,serif" font-size="14.00"> g39 = *(IntToPtrCastExpr&lt;ptr&gt;((v8 + 8)))</text>
<text text-anchor="start" x="56.5" y="-150.3" font-family="Times,serif" font-size="14.00"> g40 = *(IntToPtrCastExpr&lt;ptr&gt;((v8 + 12)))</text>
<text text-anchor="start" x="56.5" y="-135.3" font-family="Times,serif" font-size="14.00"> g32 = *(IntToPtrCastExpr&lt;ptr&gt;((v8 + 16)))</text>
<text text-anchor="start" x="56.5" y="-120.3" font-family="Times,serif" font-size="14.00"> g34 = *(IntToPtrCastExpr&lt;ptr&gt;((v8 + 20)))</text>
<text text-anchor="start" x="56.5" y="-105.3" font-family="Times,serif" font-size="14.00"> IntToPtrCastExpr&lt;ptr&gt;(*(IntToPtrCastExpr&lt;ptr&gt;((v8 + 24))))()</text>
</g>
<!-- Node0x3eb10ac0&#45;&gt;Node0x17bb75a0 -->
<g id="edge9" class="edge"><title>Node0x3eb10ac0&#45;&gt;Node0x17bb75a0</title>
<path fill="none" stroke="black" d="M213.536,-308.428C219.5,-298.864 225.564,-289.138 231.538,-279.558"/>
<polygon fill="black" stroke="black" points="234.672,-281.147 236.993,-270.809 228.732,-277.443 234.672,-281.147"/>
</g>
<!-- Node0x1e6f7210&#45;&gt;Node0x17bb75a0 -->
<g id="edge10" class="edge"><title>Node0x1e6f7210&#45;&gt;Node0x17bb75a0</title>
<path fill="none" stroke="black" d="M370.232,-383.414C360.988,-360.41 344.334,-318.966 328.628,-279.883"/>
<polygon fill="black" stroke="black" points="331.85,-278.513 324.874,-270.539 325.355,-281.123 331.85,-278.513"/>
</g>
<!-- Node0x3e073020 -->
<g id="node10" class="node"><title>Node0x3e073020</title>
<polygon fill="none" stroke="black" points="263.5,-23.5 263.5,-59.5 317.5,-59.5 317.5,-23.5 263.5,-23.5"/>
<text text-anchor="start" x="271.5" y="-37.8" font-family="Times,serif" font-size="14.00">exit:</text>
</g>
<!-- Node0x17bb75a0&#45;&gt;Node0x3e073020 -->
<g id="edge11" class="edge"><title>Node0x17bb75a0&#45;&gt;Node0x3e073020</title>
<path fill="none" stroke="black" d="M290.5,-97.2233C290.5,-87.4821 290.5,-78.1602 290.5,-70.0586"/>
<polygon fill="black" stroke="black" points="294,-69.8425 290.5,-59.8425 287,-69.8426 294,-69.8425"/>
</g>
</g>
</svg>
