<?xml version="1.0" encoding="UTF-8" standalone="no"?>
<!DOCTYPE svg PUBLIC "-//W3C//DTD SVG 1.1//EN"
 "http://www.w3.org/Graphics/SVG/1.1/DTD/svg11.dtd">
<!-- Generated by graphviz version 2.38.0 (20140413.2041)
 -->
<!-- Title: Control&#45;flow graph for function &#39;function_9850()&#39;. Pages: 1 -->
<svg width="978pt" height="1391pt"
 viewBox="0.00 0.00 978.00 1391.00" xmlns="http://www.w3.org/2000/svg" xmlns:xlink="http://www.w3.org/1999/xlink">
<g id="graph0" class="graph" transform="scale(1 1) rotate(0) translate(4 1387)">
<title>Control&#45;flow graph for function &#39;function_9850()&#39;.</title>
<polygon fill="white" stroke="none" points="-4,4 -4,-1387 974,-1387 974,4 -4,4"/>
<text text-anchor="middle" x="485" y="-7.8" font-family="Times,serif" font-size="14.00">Control&#45;flow graph for function &#39;function_9850()&#39;.</text>
<!-- Node0x2489b000 -->
<g id="node1" class="node"><title>Node0x2489b000</title>
<polygon fill="none" stroke="black" points="638,-1346.5 638,-1382.5 697,-1382.5 697,-1346.5 638,-1346.5"/>
<text text-anchor="start" x="646" y="-1360.8" font-family="Times,serif" font-size="14.00">entry:</text>
</g>
<!-- Node0x24f2eae0 -->
<g id="node2" class="node"><title>Node0x24f2eae0</title>
<polygon fill="none" stroke="black" points="365,-910.5 365,-1308.5 970,-1308.5 970,-910.5 365,-910.5"/>
<text text-anchor="start" x="373" y="-1293.3" font-family="Times,serif" font-size="14.00">0xfc54230:</text>
<text text-anchor="start" x="373" y="-1278.3" font-family="Times,serif" font-size="14.00"> v1 = g38</text>
<text text-anchor="start" x="373" y="-1263.3" font-family="Times,serif" font-size="14.00"> v2 = g39</text>
<text text-anchor="start" x="373" y="-1248.3" font-family="Times,serif" font-size="14.00"> v3 = g40</text>
<text text-anchor="start" x="373" y="-1233.3" font-family="Times,serif" font-size="14.00"> g40 = g29</text>
<text text-anchor="start" x="373" y="-1218.3" font-family="Times,serif" font-size="14.00"> g38 = g30</text>
<text text-anchor="start" x="373" y="-1203.3" font-family="Times,serif" font-size="14.00"> g39 = g36</text>
<text text-anchor="start" x="373" y="-1188.3" font-family="Times,serif" font-size="14.00"> function_979c()</text>
<text text-anchor="start" x="373" y="-1173.3" font-family="Times,serif" font-size="14.00"> v4 = g40</text>
<text text-anchor="start" x="373" y="-1158.3" font-family="Times,serif" font-size="14.00"> v5 = *(IntToPtrCastExpr&lt;ptr&gt;((v4 + 8)))</text>
<text text-anchor="start" x="373" y="-1143.3" font-family="Times,serif" font-size="14.00"> g36 = v5</text>
<text text-anchor="start" x="373" y="-1128.3" font-family="Times,serif" font-size="14.00"> g37 = 0</text>
<text text-anchor="start" x="373" y="-1113.3" font-family="Times,serif" font-size="14.00"> g30 = ((256 * ExtCastExpr&lt;int32&gt;(*(IntToPtrCastExpr&lt;ptr&gt;((v4 + 16))))) + v5)</text>
<text text-anchor="start" x="373" y="-1098.3" font-family="Times,serif" font-size="14.00"> g29 = 0</text>
<text text-anchor="start" x="373" y="-1083.3" font-family="Times,serif" font-size="14.00"> *(IntToPtrCastExpr&lt;ptr&gt;((v4 + 12))) = TruncCastExpr&lt;int16&gt;(g38)</text>
<text text-anchor="start" x="373" y="-1068.3" font-family="Times,serif" font-size="14.00"> *(IntToPtrCastExpr&lt;ptr&gt;((g40 + 32))) = g39</text>
<text text-anchor="start" x="373" y="-1053.3" font-family="Times,serif" font-size="14.00"> *(IntToPtrCastExpr&lt;ptr&gt;((g40 + 68))) = TruncCastExpr&lt;int8&gt;(g37)</text>
<text text-anchor="start" x="373" y="-1038.3" font-family="Times,serif" font-size="14.00"> *(IntToPtrCastExpr&lt;ptr&gt;((g40 + 54))) = TruncCastExpr&lt;int16&gt;(g37)</text>
<text text-anchor="start" x="373" y="-1023.3" font-family="Times,serif" font-size="14.00"> *(IntToPtrCastExpr&lt;ptr&gt;((g40 + 200))) = TruncCastExpr&lt;int8&gt;(g37)</text>
<text text-anchor="start" x="373" y="-1008.3" font-family="Times,serif" font-size="14.00"> *(IntToPtrCastExpr&lt;ptr&gt;((g40 + 36))) = TruncCastExpr&lt;int8&gt;(g37)</text>
<text text-anchor="start" x="373" y="-993.3" font-family="Times,serif" font-size="14.00"> v6 = ExtCastExpr&lt;int32&gt;(*(IntToPtrCastExpr&lt;ptr&gt;((g40 + 18))))</text>
<text text-anchor="start" x="373" y="-978.3" font-family="Times,serif" font-size="14.00"> g37 = v6</text>
<text text-anchor="start" x="373" y="-963.3" font-family="Times,serif" font-size="14.00"> v7 = g29</text>
<text text-anchor="start" x="373" y="-948.3" font-family="Times,serif" font-size="14.00"> v8 = (v7 &#45; v6)</text>
<text text-anchor="start" x="373" y="-933.3" font-family="Times,serif" font-size="14.00"> v9 = v7</text>
<text text-anchor="start" x="373" y="-918.3" font-family="Times,serif" font-size="14.00"> v10 = v6</text>
</g>
<!-- Node0x2489b000&#45;&gt;Node0x24f2eae0 -->
<g id="edge1" class="edge"><title>Node0x2489b000&#45;&gt;Node0x24f2eae0</title>
<path fill="none" stroke="black" d="M667.5,-1346.11C667.5,-1338.8 667.5,-1329.51 667.5,-1318.86"/>
<polygon fill="black" stroke="black" points="671,-1318.72 667.5,-1308.72 664,-1318.72 671,-1318.72"/>
</g>
<!-- Node0x34aeb080 -->
<g id="node3" class="node"><title>Node0x34aeb080</title>
<polygon fill="none" stroke="black" points="614.5,-834.5 614.5,-872.5 720.5,-872.5 720.5,-834.5 614.5,-834.5"/>
<text text-anchor="start" x="622.5" y="-857.3" font-family="Times,serif" font-size="14.00">0x6eedfb0:</text>
<text text-anchor="start" x="622.5" y="-842.3" font-family="Times,serif" font-size="14.00"> if (v7 &lt; v6):</text>
</g>
<!-- Node0x24f2eae0&#45;&gt;Node0x34aeb080 -->
<g id="edge2" class="edge"><title>Node0x24f2eae0&#45;&gt;Node0x34aeb080</title>
<path fill="none" stroke="black" d="M667.5,-910.241C667.5,-899.954 667.5,-890.589 667.5,-882.595"/>
<polygon fill="black" stroke="black" points="671,-882.586 667.5,-872.586 664,-882.586 671,-882.586"/>
</g>
<!-- Node0x2d3a5810 -->
<g id="node4" class="node"><title>Node0x2d3a5810</title>
<polygon fill="none" stroke="black" points="151,-609.5 151,-782.5 662,-782.5 662,-609.5 151,-609.5"/>
<text text-anchor="start" x="159" y="-767.3" font-family="Times,serif" font-size="14.00">0x10114da0:</text>
<text text-anchor="start" x="159" y="-752.3" font-family="Times,serif" font-size="14.00"> v11 = IntToPtrCastExpr&lt;ptr&gt;((g30 + 8))</text>
<text text-anchor="start" x="159" y="-737.3" font-family="Times,serif" font-size="14.00"> v12 = *(v11)</text>
<text text-anchor="start" x="159" y="-722.3" font-family="Times,serif" font-size="14.00"> g36 = v12</text>
<text text-anchor="start" x="159" y="-707.3" font-family="Times,serif" font-size="14.00"> g29 = (v7 + 1)</text>
<text text-anchor="start" x="159" y="-692.3" font-family="Times,serif" font-size="14.00"> *(v11) = (0 if ((v12 &amp; 4) == 0) else (v12 | 32))</text>
<text text-anchor="start" x="159" y="-677.3" font-family="Times,serif" font-size="14.00"> v13 = (g30 + 256)</text>
<text text-anchor="start" x="159" y="-662.3" font-family="Times,serif" font-size="14.00"> g30 = v13</text>
<text text-anchor="start" x="159" y="-647.3" font-family="Times,serif" font-size="14.00"> v14 = ExtCastExpr&lt;int32&gt;(*(IntToPtrCastExpr&lt;ptr&gt;((g40 + 18))))</text>
<text text-anchor="start" x="159" y="-632.3" font-family="Times,serif" font-size="14.00"> g37 = v14</text>
<text text-anchor="start" x="159" y="-617.3" font-family="Times,serif" font-size="14.00"> v15 = g29</text>
</g>
<!-- Node0x34aeb080&#45;&gt;Node0x2d3a5810 -->
<g id="edge3" class="edge"><title>Node0x34aeb080&#45;&gt;Node0x2d3a5810</title>
<path fill="none" stroke="black" d="M637.049,-834.358C616.855,-822.326 588.673,-805.536 558.925,-787.813"/>
<polygon fill="black" stroke="black" points="560.459,-784.652 550.077,-782.541 556.876,-790.666 560.459,-784.652"/>
<text text-anchor="middle" x="632.5" y="-804.8" font-family="Times,serif" font-size="14.00">v7 &lt; v6</text>
</g>
<!-- Node0x3fa1e230 -->
<g id="node5" class="node"><title>Node0x3fa1e230</title>
<polygon fill="none" stroke="black" points="542.5,-97.5 542.5,-270.5 784.5,-270.5 784.5,-97.5 542.5,-97.5"/>
<text text-anchor="start" x="550.5" y="-255.3" font-family="Times,serif" font-size="14.00">0x6eee170:</text>
<text text-anchor="start" x="550.5" y="-240.3" font-family="Times,serif" font-size="14.00"> g6 = (v9 &gt;= v10)</text>
<text text-anchor="start" x="550.5" y="-225.3" font-family="Times,serif" font-size="14.00"> g8 = ((v9 &amp; &#45;(v8)) &lt; 0)</text>
<text text-anchor="start" x="550.5" y="-210.3" font-family="Times,serif" font-size="14.00"> g7 = (v8 &lt; 0)</text>
<text text-anchor="start" x="550.5" y="-195.3" font-family="Times,serif" font-size="14.00"> g9 = (v9 == v10)</text>
<text text-anchor="start" x="550.5" y="-180.3" font-family="Times,serif" font-size="14.00"> g38 = v1</text>
<text text-anchor="start" x="550.5" y="-165.3" font-family="Times,serif" font-size="14.00"> g39 = v2</text>
<text text-anchor="start" x="550.5" y="-150.3" font-family="Times,serif" font-size="14.00"> g40 = v3</text>
<text text-anchor="start" x="550.5" y="-135.3" font-family="Times,serif" font-size="14.00"> v16</text>
<text text-anchor="start" x="550.5" y="-120.3" font-family="Times,serif" font-size="14.00"> g34 = v16</text>
<text text-anchor="start" x="550.5" y="-105.3" font-family="Times,serif" font-size="14.00"> IntToPtrCastExpr&lt;ptr&gt;(g35)()</text>
</g>
<!-- Node0x34aeb080&#45;&gt;Node0x3fa1e230 -->
<g id="edge4" class="edge"><title>Node0x34aeb080&#45;&gt;Node0x3fa1e230</title>
<path fill="none" stroke="black" d="M672.513,-834.469C680.068,-805.661 693.5,-747.363 693.5,-697 693.5,-697 693.5,-697 693.5,-394 693.5,-356.64 688.745,-315.902 683.021,-280.396"/>
<polygon fill="black" stroke="black" points="686.474,-279.82 681.384,-270.528 679.568,-280.966 686.474,-279.82"/>
<text text-anchor="middle" x="727.5" y="-548.8" font-family="Times,serif" font-size="14.00">v7 &gt;= v6</text>
</g>
<!-- Node0x2d3a9410 -->
<g id="node6" class="node"><title>Node0x2d3a9410</title>
<polygon fill="none" stroke="black" points="282.5,-533.5 282.5,-571.5 434.5,-571.5 434.5,-533.5 282.5,-533.5"/>
<text text-anchor="start" x="290.5" y="-556.3" font-family="Times,serif" font-size="14.00">0x6eedd60:</text>
<text text-anchor="start" x="290.5" y="-541.3" font-family="Times,serif" font-size="14.00"> while (v15 &lt; v14):</text>
</g>
<!-- Node0x2d3a5810&#45;&gt;Node0x2d3a9410 -->
<g id="edge5" class="edge"><title>Node0x2d3a5810&#45;&gt;Node0x2d3a9410</title>
<path fill="none" stroke="black" d="M377.471,-609.425C374.046,-599.328 370.764,-589.654 367.922,-581.274"/>
<polygon fill="black" stroke="black" points="371.219,-580.1 364.692,-571.754 364.59,-582.348 371.219,-580.1"/>
</g>
<!-- Node0xf8981d0 -->
<g id="node7" class="node"><title>Node0xf8981d0</title>
<polygon fill="none" stroke="black" points="636.5,-23.5 636.5,-59.5 690.5,-59.5 690.5,-23.5 636.5,-23.5"/>
<text text-anchor="start" x="644.5" y="-37.8" font-family="Times,serif" font-size="14.00">exit:</text>
</g>
<!-- Node0x3fa1e230&#45;&gt;Node0xf8981d0 -->
<g id="edge6" class="edge"><title>Node0x3fa1e230&#45;&gt;Node0xf8981d0</title>
<path fill="none" stroke="black" d="M663.5,-97.2233C663.5,-87.4821 663.5,-78.1602 663.5,-70.0586"/>
<polygon fill="black" stroke="black" points="667,-69.8425 663.5,-59.8425 660,-69.8426 667,-69.8425"/>
</g>
<!-- Node0x39265060 -->
<g id="node8" class="node"><title>Node0x39265060</title>
<polygon fill="none" stroke="black" points="0,-308.5 0,-481.5 511,-481.5 511,-308.5 0,-308.5"/>
<text text-anchor="start" x="8" y="-466.3" font-family="Times,serif" font-size="14.00">0x1b4c4810:</text>
<text text-anchor="start" x="8" y="-451.3" font-family="Times,serif" font-size="14.00"> v11 = IntToPtrCastExpr&lt;ptr&gt;((v13 + 8))</text>
<text text-anchor="start" x="8" y="-436.3" font-family="Times,serif" font-size="14.00"> v12 = *(v11)</text>
<text text-anchor="start" x="8" y="-421.3" font-family="Times,serif" font-size="14.00"> g36 = v12</text>
<text text-anchor="start" x="8" y="-406.3" font-family="Times,serif" font-size="14.00"> g29 = (v15 + 1)</text>
<text text-anchor="start" x="8" y="-391.3" font-family="Times,serif" font-size="14.00"> *(v11) = (0 if ((v12 &amp; 4) == 0) else (v12 | 32))</text>
<text text-anchor="start" x="8" y="-376.3" font-family="Times,serif" font-size="14.00"> v13 = (g30 + 256)</text>
<text text-anchor="start" x="8" y="-361.3" font-family="Times,serif" font-size="14.00"> g30 = v13</text>
<text text-anchor="start" x="8" y="-346.3" font-family="Times,serif" font-size="14.00"> v14 = ExtCastExpr&lt;int32&gt;(*(IntToPtrCastExpr&lt;ptr&gt;((g40 + 18))))</text>
<text text-anchor="start" x="8" y="-331.3" font-family="Times,serif" font-size="14.00"> g37 = v14</text>
<text text-anchor="start" x="8" y="-316.3" font-family="Times,serif" font-size="14.00"> v15 = g29</text>
</g>
<!-- Node0x2d3a9410&#45;&gt;Node0x39265060 -->
<g id="edge7" class="edge"><title>Node0x2d3a9410&#45;&gt;Node0x39265060</title>
<path fill="none" stroke="black" d="M289.96,-533.269C281.702,-528.517 274.193,-522.533 268.5,-515 263.129,-507.892 259.192,-499.829 256.359,-491.328"/>
<polygon fill="black" stroke="black" points="259.692,-490.25 253.613,-481.572 252.954,-492.147 259.692,-490.25"/>
<text text-anchor="middle" x="305.5" y="-503.8" font-family="Times,serif" font-size="14.00">v15 &lt; v14</text>
</g>
<!-- Node0x2d3aa110 -->
<g id="node9" class="node"><title>Node0x2d3aa110</title>
<polygon fill="none" stroke="black" points="529.5,-361 529.5,-429 665.5,-429 665.5,-361 529.5,-361"/>
<text text-anchor="start" x="537.5" y="-413.8" font-family="Times,serif" font-size="14.00">0x6eed800:</text>
<text text-anchor="start" x="537.5" y="-398.8" font-family="Times,serif" font-size="14.00"> v8 = (v15 &#45; v14)</text>
<text text-anchor="start" x="537.5" y="-383.8" font-family="Times,serif" font-size="14.00"> v9 = v15</text>
<text text-anchor="start" x="537.5" y="-368.8" font-family="Times,serif" font-size="14.00"> v10 = v14</text>
</g>
<!-- Node0x2d3a9410&#45;&gt;Node0x2d3aa110 -->
<g id="edge8" class="edge"><title>Node0x2d3a9410&#45;&gt;Node0x2d3aa110</title>
<path fill="none" stroke="black" d="M415.986,-533.476C448.181,-521.772 488.05,-504.491 519.5,-482 536.813,-469.619 553.114,-452.82 566.292,-437.354"/>
<polygon fill="black" stroke="black" points="569.188,-439.346 572.888,-429.418 563.805,-434.871 569.188,-439.346"/>
<text text-anchor="middle" x="530.5" y="-503.8" font-family="Times,serif" font-size="14.00">v15 &gt;= v14</text>
</g>
<!-- Node0x39265060&#45;&gt;Node0x2d3a9410 -->
<g id="edge9" class="edge"><title>Node0x39265060&#45;&gt;Node0x2d3a9410</title>
<path fill="none" stroke="black" d="M331.295,-481.551C335.339,-487.623 339.121,-493.799 342.5,-500 346.425,-507.203 349.537,-515.507 351.933,-523.315"/>
<polygon fill="black" stroke="black" points="348.621,-524.468 354.679,-533.16 355.364,-522.588 348.621,-524.468"/>
</g>
<!-- Node0x2d3aa110&#45;&gt;Node0x3fa1e230 -->
<g id="edge10" class="edge"><title>Node0x2d3aa110&#45;&gt;Node0x3fa1e230</title>
<path fill="none" stroke="black" d="M607.958,-360.883C614.848,-339.063 624.251,-309.29 633.36,-280.443"/>
<polygon fill="black" stroke="black" points="636.76,-281.299 636.434,-270.709 630.085,-279.191 636.76,-281.299"/>
</g>
</g>
</svg>
