<?xml version="1.0" encoding="UTF-8" standalone="no"?>
<!DOCTYPE svg PUBLIC "-//W3C//DTD SVG 1.1//EN"
 "http://www.w3.org/Graphics/SVG/1.1/DTD/svg11.dtd">
<!-- Generated by graphviz version 2.38.0 (20140413.2041)
 -->
<!-- Title: Control&#45;flow graph for function &#39;function_23e7a()&#39;. Pages: 1 -->
<svg width="385pt" height="471pt"
 viewBox="0.00 0.00 385.00 471.00" xmlns="http://www.w3.org/2000/svg" xmlns:xlink="http://www.w3.org/1999/xlink">
<g id="graph0" class="graph" transform="scale(1 1) rotate(0) translate(4 467)">
<title>Control&#45;flow graph for function &#39;function_23e7a()&#39;.</title>
<polygon fill="white" stroke="none" points="-4,4 -4,-467 381,-467 381,4 -4,4"/>
<text text-anchor="middle" x="188.5" y="-7.8" font-family="Times,serif" font-size="14.00">Control&#45;flow graph for function &#39;function_23e7a()&#39;.</text>
<!-- Node0x466109d0 -->
<g id="node1" class="node"><title>Node0x466109d0</title>
<polygon fill="none" stroke="black" points="159,-426.5 159,-462.5 218,-462.5 218,-426.5 159,-426.5"/>
<text text-anchor="start" x="167" y="-440.8" font-family="Times,serif" font-size="14.00">entry:</text>
</g>
<!-- Node0x4660f790 -->
<g id="node2" class="node"><title>Node0x4660f790</title>
<polygon fill="none" stroke="black" points="54.5,-96.5 54.5,-389.5 322.5,-389.5 322.5,-96.5 54.5,-96.5"/>
<text text-anchor="start" x="62.5" y="-374.3" font-family="Times,serif" font-size="14.00">0x2ad85360:</text>
<text text-anchor="start" x="62.5" y="-359.3" font-family="Times,serif" font-size="14.00"> v1 = g39</text>
<text text-anchor="start" x="62.5" y="-344.3" font-family="Times,serif" font-size="14.00"> v2 = (v1 / 65536)</text>
<text text-anchor="start" x="62.5" y="-329.3" font-family="Times,serif" font-size="14.00"> g41 = v2</text>
<text text-anchor="start" x="62.5" y="-314.3" font-family="Times,serif" font-size="14.00"> v3 = (g37 &amp; v1)</text>
<text text-anchor="start" x="62.5" y="-299.3" font-family="Times,serif" font-size="14.00"> g31 = v3</text>
<text text-anchor="start" x="62.5" y="-284.3" font-family="Times,serif" font-size="14.00"> v4 = (g40 / v2)</text>
<text text-anchor="start" x="62.5" y="-269.3" font-family="Times,serif" font-size="14.00"> g30 = v2</text>
<text text-anchor="start" x="62.5" y="-254.3" font-family="Times,serif" font-size="14.00"> g42 = v4</text>
<text text-anchor="start" x="62.5" y="-239.3" font-family="Times,serif" font-size="14.00"> g38 = (v4 * v3)</text>
<text text-anchor="start" x="62.5" y="-224.3" font-family="Times,serif" font-size="14.00"> unknown_228ca()</text>
<text text-anchor="start" x="62.5" y="-209.3" font-family="Times,serif" font-size="14.00"> v5 = g32</text>
<text text-anchor="start" x="62.5" y="-194.3" font-family="Times,serif" font-size="14.00"> g29 = v5</text>
<text text-anchor="start" x="62.5" y="-179.3" font-family="Times,serif" font-size="14.00"> v6 = (v5 / 65536)</text>
<text text-anchor="start" x="62.5" y="-164.3" font-family="Times,serif" font-size="14.00"> g37 = v6</text>
<text text-anchor="start" x="62.5" y="-149.3" font-family="Times,serif" font-size="14.00"> g36 = &#45;1</text>
<text text-anchor="start" x="62.5" y="-134.3" font-family="Times,serif" font-size="14.00"> g30 = (g39 + ((65536 * g30) | v6))</text>
<text text-anchor="start" x="62.5" y="-119.3" font-family="Times,serif" font-size="14.00"> g42 = (g42 &#45; 1)</text>
<text text-anchor="start" x="62.5" y="-104.3" font-family="Times,serif" font-size="14.00"> function_24216()</text>
</g>
<!-- Node0x466109d0&#45;&gt;Node0x4660f790 -->
<g id="edge1" class="edge"><title>Node0x466109d0&#45;&gt;Node0x4660f790</title>
<path fill="none" stroke="black" d="M188.5,-426.491C188.5,-419.279 188.5,-410.145 188.5,-399.824"/>
<polygon fill="black" stroke="black" points="192,-399.59 188.5,-389.59 185,-399.591 192,-399.59"/>
</g>
<!-- Node0x466104d0 -->
<g id="node3" class="node"><title>Node0x466104d0</title>
<polygon fill="none" stroke="black" points="161.5,-23.5 161.5,-59.5 215.5,-59.5 215.5,-23.5 161.5,-23.5"/>
<text text-anchor="start" x="169.5" y="-37.8" font-family="Times,serif" font-size="14.00">exit:</text>
</g>
<!-- Node0x4660f790&#45;&gt;Node0x466104d0 -->
<g id="edge2" class="edge"><title>Node0x4660f790&#45;&gt;Node0x466104d0</title>
<path fill="none" stroke="black" d="M188.5,-96.4876C188.5,-86.7125 188.5,-77.686 188.5,-69.9233"/>
<polygon fill="black" stroke="black" points="192,-69.8444 188.5,-59.8445 185,-69.8445 192,-69.8444"/>
</g>
</g>
</svg>
