<?xml version="1.0" encoding="UTF-8" standalone="no"?>
<!DOCTYPE svg PUBLIC "-//W3C//DTD SVG 1.1//EN"
 "http://www.w3.org/Graphics/SVG/1.1/DTD/svg11.dtd">
<!-- Generated by graphviz version 2.38.0 (20140413.2041)
 -->
<!-- Title: Control&#45;flow graph for function &#39;function_23ae4()&#39;. Pages: 1 -->
<svg width="490pt" height="761pt"
 viewBox="0.00 0.00 490.00 761.00" xmlns="http://www.w3.org/2000/svg" xmlns:xlink="http://www.w3.org/1999/xlink">
<g id="graph0" class="graph" transform="scale(1 1) rotate(0) translate(4 757)">
<title>Control&#45;flow graph for function &#39;function_23ae4()&#39;.</title>
<polygon fill="white" stroke="none" points="-4,4 -4,-757 486,-757 486,4 -4,4"/>
<text text-anchor="middle" x="241" y="-7.8" font-family="Times,serif" font-size="14.00">Control&#45;flow graph for function &#39;function_23ae4()&#39;.</text>
<!-- Node0x310a3b20 -->
<g id="node1" class="node"><title>Node0x310a3b20</title>
<polygon fill="none" stroke="black" points="68.5,-716.5 68.5,-752.5 127.5,-752.5 127.5,-716.5 68.5,-716.5"/>
<text text-anchor="start" x="76.5" y="-730.8" font-family="Times,serif" font-size="14.00">entry:</text>
</g>
<!-- Node0x19b2c640 -->
<g id="node2" class="node"><title>Node0x19b2c640</title>
<polygon fill="none" stroke="black" points="38.5,-640.5 38.5,-678.5 157.5,-678.5 157.5,-640.5 38.5,-640.5"/>
<text text-anchor="start" x="46.5" y="-663.3" font-family="Times,serif" font-size="14.00">0xa4113f0:</text>
<text text-anchor="start" x="46.5" y="-648.3" font-family="Times,serif" font-size="14.00"> if (g38 == 0):</text>
</g>
<!-- Node0x310a3b20&#45;&gt;Node0x19b2c640 -->
<g id="edge1" class="edge"><title>Node0x310a3b20&#45;&gt;Node0x19b2c640</title>
<path fill="none" stroke="black" d="M98,-716.2C98,-707.99 98,-697.969 98,-688.701"/>
<polygon fill="black" stroke="black" points="101.5,-688.694 98,-678.694 94.5001,-688.695 101.5,-688.694"/>
</g>
<!-- Node0x135483c0 -->
<g id="node3" class="node"><title>Node0x135483c0</title>
<polygon fill="none" stroke="black" points="0,-433.5 0,-531.5 100,-531.5 100,-433.5 0,-433.5"/>
<text text-anchor="start" x="8" y="-516.3" font-family="Times,serif" font-size="14.00">0xa410ab0:</text>
<text text-anchor="start" x="8" y="-501.3" font-family="Times,serif" font-size="14.00"> g29 = 1</text>
<text text-anchor="start" x="8" y="-486.3" font-family="Times,serif" font-size="14.00"> g30 = 0</text>
<text text-anchor="start" x="8" y="-471.3" font-family="Times,serif" font-size="14.00"> g7 = False</text>
<text text-anchor="start" x="8" y="-456.3" font-family="Times,serif" font-size="14.00"> g9 = True</text>
<text text-anchor="start" x="8" y="-441.3" font-family="Times,serif" font-size="14.00"> return</text>
</g>
<!-- Node0x19b2c640&#45;&gt;Node0x135483c0 -->
<g id="edge2" class="edge"><title>Node0x19b2c640&#45;&gt;Node0x135483c0</title>
<path fill="none" stroke="black" d="M65.4219,-640.313C59.201,-635.241 53.5346,-629.128 50,-622 37.8823,-597.562 36.504,-567.586 38.7267,-541.779"/>
<polygon fill="black" stroke="black" points="42.2168,-542.057 39.7856,-531.745 35.2554,-541.322 42.2168,-542.057"/>
<text text-anchor="middle" x="85" y="-610.8" font-family="Times,serif" font-size="14.00">g38 == 0</text>
</g>
<!-- Node0x310a3ba0 -->
<g id="node4" class="node"><title>Node0x310a3ba0</title>
<polygon fill="none" stroke="black" points="101.5,-550.5 101.5,-588.5 198.5,-588.5 198.5,-550.5 101.5,-550.5"/>
<text text-anchor="start" x="109.5" y="-573.3" font-family="Times,serif" font-size="14.00">0xf23d5c0:</text>
<text text-anchor="start" x="109.5" y="-558.3" font-family="Times,serif" font-size="14.00"> v1 = g40</text>
</g>
<!-- Node0x19b2c640&#45;&gt;Node0x310a3ba0 -->
<g id="edge3" class="edge"><title>Node0x19b2c640&#45;&gt;Node0x310a3ba0</title>
<path fill="none" stroke="black" d="M111.784,-640.298C115.902,-634.565 120.3,-628.127 124,-622 128.564,-614.442 133.068,-605.982 137.012,-598.138"/>
<polygon fill="black" stroke="black" points="140.244,-599.496 141.511,-588.977 133.961,-596.41 140.244,-599.496"/>
<text text-anchor="middle" x="164" y="-610.8" font-family="Times,serif" font-size="14.00">g38 != 0</text>
</g>
<!-- Node0x19b2bd30 -->
<g id="node5" class="node"><title>Node0x19b2bd30</title>
<polygon fill="none" stroke="black" points="138,-23.5 138,-59.5 192,-59.5 192,-23.5 138,-23.5"/>
<text text-anchor="start" x="146" y="-37.8" font-family="Times,serif" font-size="14.00">exit:</text>
</g>
<!-- Node0x135483c0&#45;&gt;Node0x19b2bd30 -->
<g id="edge4" class="edge"><title>Node0x135483c0&#45;&gt;Node0x19b2bd30</title>
<path fill="none" stroke="black" d="M50,-433.345C50,-408.84 50,-378.583 50,-351.5 50,-351.5 50,-351.5 50,-145.5 50,-102.626 94.8999,-73.117 128.589,-57.0099"/>
<polygon fill="black" stroke="black" points="130.108,-60.1639 137.747,-52.8223 127.197,-53.7979 130.108,-60.1639"/>
</g>
<!-- Node0x310a3e80 -->
<g id="node6" class="node"><title>Node0x310a3e80</title>
<polygon fill="none" stroke="black" points="78,-376.5 78,-414.5 224,-414.5 224,-376.5 78,-376.5"/>
<text text-anchor="start" x="86" y="-399.3" font-family="Times,serif" font-size="14.00">0xa413060:</text>
<text text-anchor="start" x="86" y="-384.3" font-family="Times,serif" font-size="14.00"> if (v1 &lt;= 65535):</text>
</g>
<!-- Node0x310a3ba0&#45;&gt;Node0x310a3e80 -->
<g id="edge5" class="edge"><title>Node0x310a3ba0&#45;&gt;Node0x310a3e80</title>
<path fill="none" stroke="black" d="M150.105,-550.418C150.279,-520.481 150.629,-460.397 150.835,-424.799"/>
<polygon fill="black" stroke="black" points="154.336,-424.618 150.895,-414.598 147.337,-424.577 154.336,-424.618"/>
</g>
<!-- Node0x19b2bfa0 -->
<g id="node7" class="node"><title>Node0x19b2bfa0</title>
<polygon fill="none" stroke="black" points="65.5,-214.5 65.5,-267.5 204.5,-267.5 204.5,-214.5 65.5,-214.5"/>
<text text-anchor="start" x="73.5" y="-252.3" font-family="Times,serif" font-size="14.00">0xa412b00:</text>
<text text-anchor="start" x="73.5" y="-237.3" font-family="Times,serif" font-size="14.00"> function_23bfa()</text>
<text text-anchor="start" x="73.5" y="-222.3" font-family="Times,serif" font-size="14.00"> return</text>
</g>
<!-- Node0x310a3e80&#45;&gt;Node0x19b2bfa0 -->
<g id="edge6" class="edge"><title>Node0x310a3e80&#45;&gt;Node0x19b2bfa0</title>
<path fill="none" stroke="black" d="M139.321,-376.24C136.33,-370.611 133.528,-364.245 132,-358 125.564,-331.697 126.714,-301.036 129.257,-277.845"/>
<polygon fill="black" stroke="black" points="132.751,-278.111 130.502,-267.757 125.804,-277.253 132.751,-278.111"/>
<text text-anchor="middle" x="180" y="-346.8" font-family="Times,serif" font-size="14.00">v1 &lt;= 65535</text>
</g>
<!-- Node0x310a3a40 -->
<g id="node8" class="node"><title>Node0x310a3a40</title>
<polygon fill="none" stroke="black" points="167.5,-286.5 167.5,-324.5 340.5,-324.5 340.5,-286.5 167.5,-286.5"/>
<text text-anchor="start" x="175.5" y="-309.3" font-family="Times,serif" font-size="14.00">0xa415280:</text>
<text text-anchor="start" x="175.5" y="-294.3" font-family="Times,serif" font-size="14.00"> if (v1 &lt;= 16777216):</text>
</g>
<!-- Node0x310a3e80&#45;&gt;Node0x310a3a40 -->
<g id="edge7" class="edge"><title>Node0x310a3e80&#45;&gt;Node0x310a3a40</title>
<path fill="none" stroke="black" d="M206.01,-376.474C215.499,-371.575 224.657,-365.489 232,-358 238.458,-351.414 243.151,-342.636 246.5,-334.195"/>
<polygon fill="black" stroke="black" points="249.861,-335.188 249.84,-324.593 243.249,-332.889 249.861,-335.188"/>
<text text-anchor="middle" x="285" y="-346.8" font-family="Times,serif" font-size="14.00">v1 &gt; 65535</text>
</g>
<!-- Node0x19b2bfa0&#45;&gt;Node0x19b2bd30 -->
<g id="edge8" class="edge"><title>Node0x19b2bfa0&#45;&gt;Node0x19b2bd30</title>
<path fill="none" stroke="black" d="M138.922,-214.18C144.589,-176.875 155.021,-108.196 160.825,-69.9831"/>
<polygon fill="black" stroke="black" points="164.358,-70.0291 162.4,-59.6169 157.438,-68.9778 164.358,-70.0291"/>
</g>
<!-- Node0x19b2c800 -->
<g id="node9" class="node"><title>Node0x19b2c800</title>
<polygon fill="none" stroke="black" points="173,-97.5 173,-195.5 273,-195.5 273,-97.5 173,-97.5"/>
<text text-anchor="start" x="181" y="-180.3" font-family="Times,serif" font-size="14.00">0xa414a00:</text>
<text text-anchor="start" x="181" y="-165.3" font-family="Times,serif" font-size="14.00"> g29 = 16</text>
<text text-anchor="start" x="181" y="-150.3" font-family="Times,serif" font-size="14.00"> g30 = 16</text>
<text text-anchor="start" x="181" y="-135.3" font-family="Times,serif" font-size="14.00"> g7 = False</text>
<text text-anchor="start" x="181" y="-120.3" font-family="Times,serif" font-size="14.00"> g9 = False</text>
<text text-anchor="start" x="181" y="-105.3" font-family="Times,serif" font-size="14.00"> return</text>
</g>
<!-- Node0x310a3a40&#45;&gt;Node0x19b2c800 -->
<g id="edge9" class="edge"><title>Node0x310a3a40&#45;&gt;Node0x19b2c800</title>
<path fill="none" stroke="black" d="M238.621,-286.249C234.788,-280.719 231.159,-274.405 229,-268 222.36,-248.303 219.966,-225.771 219.525,-205.56"/>
<polygon fill="black" stroke="black" points="223.024,-205.516 219.457,-195.54 216.025,-205.564 223.024,-205.516"/>
<text text-anchor="middle" x="290.5" y="-237.3" font-family="Times,serif" font-size="14.00">v1 &lt;= 16777216</text>
</g>
<!-- Node0x19b2b8b0 -->
<g id="node10" class="node"><title>Node0x19b2b8b0</title>
<polygon fill="none" stroke="black" points="298.5,-127.5 298.5,-165.5 441.5,-165.5 441.5,-127.5 298.5,-127.5"/>
<text text-anchor="start" x="306.5" y="-150.3" font-family="Times,serif" font-size="14.00">0xa4154d0:</text>
<text text-anchor="start" x="306.5" y="-135.3" font-family="Times,serif" font-size="14.00"> function_23dde()</text>
</g>
<!-- Node0x310a3a40&#45;&gt;Node0x19b2b8b0 -->
<g id="edge10" class="edge"><title>Node0x310a3a40&#45;&gt;Node0x19b2b8b0</title>
<path fill="none" stroke="black" d="M329.225,-286.412C337.896,-281.642 345.826,-275.616 352,-268 372.958,-242.151 374.954,-202.564 373.38,-175.886"/>
<polygon fill="black" stroke="black" points="376.849,-175.355 372.566,-165.664 369.871,-175.911 376.849,-175.355"/>
<text text-anchor="middle" x="426.5" y="-237.3" font-family="Times,serif" font-size="14.00">v1 &gt; 16777216</text>
</g>
<!-- Node0x19b2c800&#45;&gt;Node0x19b2bd30 -->
<g id="edge11" class="edge"><title>Node0x19b2c800&#45;&gt;Node0x19b2bd30</title>
<path fill="none" stroke="black" d="M195.868,-97.3173C190.325,-87.4741 184.691,-77.4687 179.78,-68.7473"/>
<polygon fill="black" stroke="black" points="182.73,-66.8522 174.773,-59.8561 176.63,-70.2869 182.73,-66.8522"/>
</g>
<!-- Node0x19b2b8b0&#45;&gt;Node0x19b2bd30 -->
<g id="edge12" class="edge"><title>Node0x19b2b8b0&#45;&gt;Node0x19b2bd30</title>
<path fill="none" stroke="black" d="M338.506,-127.466C321.852,-118.102 300.976,-106.635 282,-97 255.308,-83.4473 224.612,-69.1977 201.36,-58.6693"/>
<polygon fill="black" stroke="black" points="202.758,-55.4603 192.203,-54.541 199.881,-61.8418 202.758,-55.4603"/>
</g>
</g>
</svg>
