<?xml version="1.0" encoding="UTF-8" standalone="no"?>
<!DOCTYPE svg PUBLIC "-//W3C//DTD SVG 1.1//EN"
 "http://www.w3.org/Graphics/SVG/1.1/DTD/svg11.dtd">
<!-- Generated by graphviz version 2.38.0 (20140413.2041)
 -->
<!-- Title: Control&#45;flow graph for function &#39;function_204d8()&#39;. Pages: 1 -->
<svg width="1400pt" height="1152pt"
 viewBox="0.00 0.00 1400.00 1152.00" xmlns="http://www.w3.org/2000/svg" xmlns:xlink="http://www.w3.org/1999/xlink">
<g id="graph0" class="graph" transform="scale(1 1) rotate(0) translate(4 1148)">
<title>Control&#45;flow graph for function &#39;function_204d8()&#39;.</title>
<polygon fill="white" stroke="none" points="-4,4 -4,-1148 1396,-1148 1396,4 -4,4"/>
<text text-anchor="middle" x="696" y="-7.8" font-family="Times,serif" font-size="14.00">Control&#45;flow graph for function &#39;function_204d8()&#39;.</text>
<!-- Node0x2446ce10 -->
<g id="node1" class="node"><title>Node0x2446ce10</title>
<polygon fill="none" stroke="black" points="888.5,-1107.5 888.5,-1143.5 947.5,-1143.5 947.5,-1107.5 888.5,-1107.5"/>
<text text-anchor="start" x="896.5" y="-1121.8" font-family="Times,serif" font-size="14.00">entry:</text>
</g>
<!-- Node0x157f9d60 -->
<g id="node2" class="node"><title>Node0x157f9d60</title>
<polygon fill="none" stroke="black" points="834.5,-881.5 834.5,-1069.5 1001.5,-1069.5 1001.5,-881.5 834.5,-881.5"/>
<text text-anchor="start" x="842.5" y="-1054.3" font-family="Times,serif" font-size="14.00">0x132b24b0:</text>
<text text-anchor="start" x="842.5" y="-1039.3" font-family="Times,serif" font-size="14.00"> v1 = g39</text>
<text text-anchor="start" x="842.5" y="-1024.3" font-family="Times,serif" font-size="14.00"> v2 = g40</text>
<text text-anchor="start" x="842.5" y="-1009.3" font-family="Times,serif" font-size="14.00"> v3 = g41</text>
<text text-anchor="start" x="842.5" y="-994.3" font-family="Times,serif" font-size="14.00"> g41 = g29</text>
<text text-anchor="start" x="842.5" y="-979.3" font-family="Times,serif" font-size="14.00"> v4 = g30</text>
<text text-anchor="start" x="842.5" y="-964.3" font-family="Times,serif" font-size="14.00"> g40 = v4</text>
<text text-anchor="start" x="842.5" y="-949.3" font-family="Times,serif" font-size="14.00"> g39 = 0</text>
<text text-anchor="start" x="842.5" y="-934.3" font-family="Times,serif" font-size="14.00"> v5 = &#45;(v4)</text>
<text text-anchor="start" x="842.5" y="-919.3" font-family="Times,serif" font-size="14.00"> g8 = ((v4 &amp; v5) &lt; 0)</text>
<text text-anchor="start" x="842.5" y="-904.3" font-family="Times,serif" font-size="14.00"> g7 = (v5 &lt; 0)</text>
<text text-anchor="start" x="842.5" y="-889.3" font-family="Times,serif" font-size="14.00"> g9 = (v4 == 0)</text>
</g>
<!-- Node0x2446ce10&#45;&gt;Node0x157f9d60 -->
<g id="edge1" class="edge"><title>Node0x2446ce10&#45;&gt;Node0x157f9d60</title>
<path fill="none" stroke="black" d="M918,-1107.23C918,-1099.72 918,-1090.26 918,-1079.88"/>
<polygon fill="black" stroke="black" points="921.5,-1079.67 918,-1069.67 914.5,-1079.67 921.5,-1079.67"/>
</g>
<!-- Node0x24466210 -->
<g id="node3" class="node"><title>Node0x24466210</title>
<polygon fill="none" stroke="black" points="869,-805.5 869,-843.5 967,-843.5 967,-805.5 869,-805.5"/>
<text text-anchor="start" x="877" y="-828.3" font-family="Times,serif" font-size="14.00">0x9efeee0:</text>
<text text-anchor="start" x="877" y="-813.3" font-family="Times,serif" font-size="14.00"> if (v4 &gt; 0):</text>
</g>
<!-- Node0x157f9d60&#45;&gt;Node0x24466210 -->
<g id="edge2" class="edge"><title>Node0x157f9d60&#45;&gt;Node0x24466210</title>
<path fill="none" stroke="black" d="M918,-881.406C918,-871.426 918,-861.921 918,-853.673"/>
<polygon fill="black" stroke="black" points="921.5,-853.619 918,-843.619 914.5,-853.619 921.5,-853.619"/>
</g>
<!-- Node0x20d3a320 -->
<g id="node4" class="node"><title>Node0x20d3a320</title>
<polygon fill="none" stroke="black" points="732.5,-678 732.5,-716 833.5,-716 833.5,-678 732.5,-678"/>
<text text-anchor="start" x="740.5" y="-700.8" font-family="Times,serif" font-size="14.00">0x9efedc0:</text>
<text text-anchor="start" x="740.5" y="-685.8" font-family="Times,serif" font-size="14.00"> while True:</text>
</g>
<!-- Node0x24466210&#45;&gt;Node0x20d3a320 -->
<g id="edge3" class="edge"><title>Node0x24466210&#45;&gt;Node0x20d3a320</title>
<path fill="none" stroke="black" d="M898.37,-805.251C875.074,-783.595 836.107,-747.369 809.986,-723.087"/>
<polygon fill="black" stroke="black" points="812.361,-720.516 802.654,-716.271 807.595,-725.643 812.361,-720.516"/>
<text text-anchor="middle" x="903" y="-775.8" font-family="Times,serif" font-size="14.00">v4 &gt; 0</text>
</g>
<!-- Node0x29564c80 -->
<g id="node5" class="node"><title>Node0x29564c80</title>
<polygon fill="none" stroke="black" points="893,-640.5 893,-753.5 1135,-753.5 1135,-640.5 893,-640.5"/>
<text text-anchor="start" x="901" y="-738.3" font-family="Times,serif" font-size="14.00">0x9eff160:</text>
<text text-anchor="start" x="901" y="-723.3" font-family="Times,serif" font-size="14.00"> g39 = v1</text>
<text text-anchor="start" x="901" y="-708.3" font-family="Times,serif" font-size="14.00"> g40 = v2</text>
<text text-anchor="start" x="901" y="-693.3" font-family="Times,serif" font-size="14.00"> g41 = v3</text>
<text text-anchor="start" x="901" y="-678.3" font-family="Times,serif" font-size="14.00"> v9</text>
<text text-anchor="start" x="901" y="-663.3" font-family="Times,serif" font-size="14.00"> g34 = v9</text>
<text text-anchor="start" x="901" y="-648.3" font-family="Times,serif" font-size="14.00"> IntToPtrCastExpr&lt;ptr&gt;(g35)()</text>
</g>
<!-- Node0x24466210&#45;&gt;Node0x29564c80 -->
<g id="edge4" class="edge"><title>Node0x24466210&#45;&gt;Node0x29564c80</title>
<path fill="none" stroke="black" d="M931.959,-805.251C940.86,-793.615 952.979,-777.773 965.169,-761.837"/>
<polygon fill="black" stroke="black" points="968.238,-763.586 971.533,-753.516 962.678,-759.333 968.238,-763.586"/>
<text text-anchor="middle" x="985" y="-775.8" font-family="Times,serif" font-size="14.00">v4 &lt;= 0</text>
</g>
<!-- Node0x3e8d75b0 -->
<g id="node6" class="node"><title>Node0x3e8d75b0</title>
<polygon fill="none" stroke="black" points="0,-520.5 0,-588.5 734,-588.5 734,-520.5 0,-520.5"/>
<text text-anchor="start" x="8" y="-573.3" font-family="Times,serif" font-size="14.00">0x9c06f10:</text>
<text text-anchor="start" x="8" y="-558.3" font-family="Times,serif" font-size="14.00"> sin(IntToFPCastExpr&lt;double&gt;(g29))</text>
<text text-anchor="start" x="8" y="-543.3" font-family="Times,serif" font-size="14.00"> v6 = ((2.14748365e+9 * TruncCastExpr&lt;double&gt;(sin(IntToFPCastExpr&lt;double&gt;(g29)))) + 5.0e&#45;1)</text>
<text text-anchor="start" x="8" y="-528.3" font-family="Times,serif" font-size="14.00"> v7</text>
</g>
<!-- Node0x20d3a320&#45;&gt;Node0x3e8d75b0 -->
<g id="edge5" class="edge"><title>Node0x20d3a320&#45;&gt;Node0x3e8d75b0</title>
<path fill="none" stroke="black" d="M732.406,-678.912C668.775,-657.422 557.813,-619.945 474.813,-591.913"/>
<polygon fill="black" stroke="black" points="475.685,-588.513 465.091,-588.629 473.445,-595.145 475.685,-588.513"/>
<text text-anchor="middle" x="580" y="-610.8" font-family="Times,serif" font-size="14.00">True</text>
</g>
<!-- Node0x3e072820 -->
<g id="node7" class="node"><title>Node0x3e072820</title>
<polygon fill="none" stroke="black" points="1069,-535.5 1069,-573.5 1167,-573.5 1167,-535.5 1069,-535.5"/>
<text text-anchor="start" x="1077" y="-558.3" font-family="Times,serif" font-size="14.00">0x9f00390:</text>
<text text-anchor="start" x="1077" y="-543.3" font-family="Times,serif" font-size="14.00"> if not (g7):</text>
</g>
<!-- Node0x29564c80&#45;&gt;Node0x3e072820 -->
<g id="edge6" class="edge"><title>Node0x29564c80&#45;&gt;Node0x3e072820</title>
<path fill="none" stroke="black" d="M1055.1,-640.471C1070.09,-620.222 1086.34,-598.265 1098.57,-581.745"/>
<polygon fill="black" stroke="black" points="1101.44,-583.759 1104.57,-573.639 1095.81,-579.594 1101.44,-583.759"/>
</g>
<!-- Node0x3e8d90e0 -->
<g id="node8" class="node"><title>Node0x3e8d90e0</title>
<polygon fill="none" stroke="black" points="275.5,-408 275.5,-461 470.5,-461 470.5,-408 275.5,-408"/>
<text text-anchor="start" x="283.5" y="-445.8" font-family="Times,serif" font-size="14.00">0x9efc760:</text>
<text text-anchor="start" x="283.5" y="-430.8" font-family="Times,serif" font-size="14.00"> if (v6 == &#45;2147483648):</text>
<text text-anchor="start" x="283.5" y="-415.8" font-family="Times,serif" font-size="14.00"> else:</text>
</g>
<!-- Node0x3e8d75b0&#45;&gt;Node0x3e8d90e0 -->
<g id="edge7" class="edge"><title>Node0x3e8d75b0&#45;&gt;Node0x3e8d90e0</title>
<path fill="none" stroke="black" d="M368.687,-520.316C369.459,-505.141 370.375,-487.127 371.164,-471.612"/>
<polygon fill="black" stroke="black" points="374.674,-471.5 371.686,-461.335 367.683,-471.145 374.674,-471.5"/>
</g>
<!-- Node0x157f8ef0 -->
<g id="node9" class="node"><title>Node0x157f8ef0</title>
<polygon fill="none" stroke="black" points="883,-400.5 883,-468.5 1353,-468.5 1353,-400.5 883,-400.5"/>
<text text-anchor="start" x="891" y="-453.3" font-family="Times,serif" font-size="14.00">0x132b20f0:</text>
<text text-anchor="start" x="891" y="-438.3" font-family="Times,serif" font-size="14.00"> v10 = g38</text>
<text text-anchor="start" x="891" y="-423.3" font-family="Times,serif" font-size="14.00"> g38 = (v10 &#45; 3352)</text>
<text text-anchor="start" x="891" y="-408.3" font-family="Times,serif" font-size="14.00"> *(IntToPtrCastExpr&lt;ptr&gt;(v10)) = TruncCastExpr&lt;int8&gt;(g36)</text>
</g>
<!-- Node0x3e072820&#45;&gt;Node0x157f8ef0 -->
<g id="edge8" class="edge"><title>Node0x3e072820&#45;&gt;Node0x157f8ef0</title>
<path fill="none" stroke="black" d="M1118,-535.321C1118,-520.306 1118,-498.372 1118,-478.887"/>
<polygon fill="black" stroke="black" points="1121.5,-478.673 1118,-468.673 1114.5,-478.673 1121.5,-478.673"/>
<text text-anchor="middle" x="1146.5" y="-490.8" font-family="Times,serif" font-size="14.00">not (g7)</text>
</g>
<!-- Node0x244c1ea0 -->
<g id="node10" class="node"><title>Node0x244c1ea0</title>
<polygon fill="none" stroke="black" points="1288,-304 1288,-340 1342,-340 1342,-304 1288,-304"/>
<text text-anchor="start" x="1296" y="-318.3" font-family="Times,serif" font-size="14.00">exit:</text>
</g>
<!-- Node0x3e072820&#45;&gt;Node0x244c1ea0 -->
<g id="edge9" class="edge"><title>Node0x3e072820&#45;&gt;Node0x244c1ea0</title>
<path fill="none" stroke="black" d="M1167.14,-552.318C1224.7,-547.975 1317.8,-531.083 1362,-469 1388.4,-431.922 1358.59,-379.268 1335.87,-348.369"/>
<polygon fill="black" stroke="black" points="1338.54,-346.1 1329.7,-340.261 1332.97,-350.339 1338.54,-346.1"/>
<text text-anchor="middle" x="1382.5" y="-430.8" font-family="Times,serif" font-size="14.00">g7</text>
</g>
<!-- Node0x2327a220 -->
<g id="node11" class="node"><title>Node0x2327a220</title>
<polygon fill="none" stroke="black" points="305.5,-295.5 305.5,-348.5 464.5,-348.5 464.5,-295.5 305.5,-295.5"/>
<text text-anchor="start" x="313.5" y="-333.3" font-family="Times,serif" font-size="14.00">0x9efc020:</text>
<text text-anchor="start" x="313.5" y="-318.3" font-family="Times,serif" font-size="14.00"> g29 = 2147483647</text>
<text text-anchor="start" x="313.5" y="-303.3" font-family="Times,serif" font-size="14.00"> v7 = 2147483647</text>
</g>
<!-- Node0x3e8d90e0&#45;&gt;Node0x2327a220 -->
<g id="edge10" class="edge"><title>Node0x3e8d90e0&#45;&gt;Node0x2327a220</title>
<path fill="none" stroke="black" d="M372.015,-407.822C371.889,-395.437 372.249,-380.395 374,-367 374.352,-364.311 374.808,-361.55 375.334,-358.784"/>
<polygon fill="black" stroke="black" points="378.785,-359.383 377.483,-348.868 371.944,-357.899 378.785,-359.383"/>
<text text-anchor="middle" x="446.5" y="-370.8" font-family="Times,serif" font-size="14.00">v6 == &#45;2147483648</text>
</g>
<!-- Node0x3608fad0 -->
<g id="node12" class="node"><title>Node0x3608fad0</title>
<polygon fill="none" stroke="black" points="493.5,-303 493.5,-341 588.5,-341 588.5,-303 493.5,-303"/>
<text text-anchor="start" x="501.5" y="-325.8" font-family="Times,serif" font-size="14.00">0x9efcaa0:</text>
<text text-anchor="start" x="501.5" y="-310.8" font-family="Times,serif" font-size="14.00"> v7 = g29</text>
</g>
<!-- Node0x3e8d90e0&#45;&gt;Node0x3608fad0 -->
<g id="edge11" class="edge"><title>Node0x3e8d90e0&#45;&gt;Node0x3608fad0</title>
<path fill="none" stroke="black" d="M470.588,-412.483C488.337,-405.15 505.482,-395.279 519,-382 527.392,-373.756 532.616,-362.018 535.853,-351.18"/>
<polygon fill="black" stroke="black" points="539.316,-351.762 538.386,-341.208 532.531,-350.038 539.316,-351.762"/>
<text text-anchor="middle" x="598.5" y="-370.8" font-family="Times,serif" font-size="14.00">v6 != &#45;2147483648</text>
</g>
<!-- Node0x157f8ef0&#45;&gt;Node0x244c1ea0 -->
<g id="edge12" class="edge"><title>Node0x157f8ef0&#45;&gt;Node0x244c1ea0</title>
<path fill="none" stroke="black" d="M1176.84,-400.496C1210.09,-381.846 1250.58,-359.136 1279.1,-343.136"/>
<polygon fill="black" stroke="black" points="1280.91,-346.135 1287.92,-338.19 1277.48,-340.03 1280.91,-346.135"/>
</g>
<!-- Node0x3393c3b0 -->
<g id="node13" class="node"><title>Node0x3393c3b0</title>
<polygon fill="none" stroke="black" points="349.5,-189.5 349.5,-257.5 732.5,-257.5 732.5,-189.5 349.5,-189.5"/>
<text text-anchor="start" x="357.5" y="-242.3" font-family="Times,serif" font-size="14.00">0x9efd2a0:</text>
<text text-anchor="start" x="357.5" y="-227.3" font-family="Times,serif" font-size="14.00"> *(IntToPtrCastExpr&lt;ptr&gt;(((4 * g39) + g41))) = v7</text>
<text text-anchor="start" x="357.5" y="-212.3" font-family="Times,serif" font-size="14.00"> v8 = (g39 + 1)</text>
<text text-anchor="start" x="357.5" y="-197.3" font-family="Times,serif" font-size="14.00"> g39 = v8</text>
</g>
<!-- Node0x2327a220&#45;&gt;Node0x3393c3b0 -->
<g id="edge13" class="edge"><title>Node0x2327a220&#45;&gt;Node0x3393c3b0</title>
<path fill="none" stroke="black" d="M426.396,-295.393C442.53,-285.412 461.368,-273.76 479.054,-262.819"/>
<polygon fill="black" stroke="black" points="480.964,-265.753 487.627,-257.516 477.282,-259.8 480.964,-265.753"/>
</g>
<!-- Node0x3608fad0&#45;&gt;Node0x3393c3b0 -->
<g id="edge14" class="edge"><title>Node0x3608fad0&#45;&gt;Node0x3393c3b0</title>
<path fill="none" stroke="black" d="M541,-302.849C541,-292.953 541,-280.245 541,-267.956"/>
<polygon fill="black" stroke="black" points="544.5,-267.803 541,-257.803 537.5,-267.803 544.5,-267.803"/>
</g>
<!-- Node0x3393d610 -->
<g id="node14" class="node"><title>Node0x3393d610</title>
<polygon fill="none" stroke="black" points="704,-113.5 704,-151.5 820,-151.5 820,-113.5 704,-113.5"/>
<text text-anchor="start" x="712" y="-136.3" font-family="Times,serif" font-size="14.00">0x9efec30:</text>
<text text-anchor="start" x="712" y="-121.3" font-family="Times,serif" font-size="14.00"> if (v8 &lt; g40):</text>
</g>
<!-- Node0x3393c3b0&#45;&gt;Node0x3393d610 -->
<g id="edge15" class="edge"><title>Node0x3393c3b0&#45;&gt;Node0x3393d610</title>
<path fill="none" stroke="black" d="M622.978,-189.486C651.19,-178.125 682.064,-165.691 707.536,-155.434"/>
<polygon fill="black" stroke="black" points="709.048,-158.598 717.017,-151.615 706.433,-152.104 709.048,-158.598"/>
</g>
<!-- Node0x3393d610&#45;&gt;Node0x20d3a320 -->
<g id="edge17" class="edge"><title>Node0x3393d610&#45;&gt;Node0x20d3a320</title>
<path fill="none" stroke="black" d="M762,-151.569C762,-169.55 762,-197.932 762,-222.5 762,-555.5 762,-555.5 762,-555.5 762,-594.865 770.163,-639.759 776.31,-667.986"/>
<polygon fill="black" stroke="black" points="772.94,-668.952 778.546,-677.942 779.77,-667.418 772.94,-668.952"/>
<text text-anchor="middle" x="801" y="-370.8" font-family="Times,serif" font-size="14.00">v8 &gt;= g40</text>
</g>
<!-- Node0x244c3a80 -->
<g id="node15" class="node"><title>Node0x244c3a80</title>
<polygon fill="none" stroke="black" points="765,-23.5 765,-61.5 857,-61.5 857,-23.5 765,-23.5"/>
<text text-anchor="start" x="773" y="-46.3" font-family="Times,serif" font-size="14.00">0x9efeaf0:</text>
<text text-anchor="start" x="773" y="-31.3" font-family="Times,serif" font-size="14.00"> continue</text>
</g>
<!-- Node0x3393d610&#45;&gt;Node0x244c3a80 -->
<g id="edge16" class="edge"><title>Node0x3393d610&#45;&gt;Node0x244c3a80</title>
<path fill="none" stroke="black" d="M764.156,-113.464C765.958,-103.16 769.208,-90.2847 775,-80 777.113,-76.2484 779.712,-72.6113 782.54,-69.1794"/>
<polygon fill="black" stroke="black" points="785.301,-71.3449 789.427,-61.5867 780.116,-66.6417 785.301,-71.3449"/>
<text text-anchor="middle" x="808" y="-83.8" font-family="Times,serif" font-size="14.00">v8 &lt; g40</text>
</g>
<!-- Node0x244c3a80&#45;&gt;Node0x20d3a320 -->
<g id="edge18" class="edge"><title>Node0x244c3a80&#45;&gt;Node0x20d3a320</title>
<path fill="none" stroke="black" d="M828.523,-61.74C833.108,-67.2693 837.688,-73.5865 841,-80 851.884,-101.075 855,-107.78 855,-131.5 855,-555.5 855,-555.5 855,-555.5 855,-599.276 826.975,-643.117 805.894,-669.902"/>
<polygon fill="black" stroke="black" points="802.924,-668.009 799.338,-677.978 808.358,-672.421 802.924,-668.009"/>
</g>
</g>
</svg>
