<?xml version="1.0" encoding="UTF-8" standalone="no"?>
<!DOCTYPE svg PUBLIC "-//W3C//DTD SVG 1.1//EN"
 "http://www.w3.org/Graphics/SVG/1.1/DTD/svg11.dtd">
<!-- Generated by graphviz version 2.38.0 (20140413.2041)
 -->
<!-- Title: Control&#45;flow graph for function &#39;function_22734()&#39;. Pages: 1 -->
<svg width="783pt" height="1332pt"
 viewBox="0.00 0.00 783.00 1332.00" xmlns="http://www.w3.org/2000/svg" xmlns:xlink="http://www.w3.org/1999/xlink">
<g id="graph0" class="graph" transform="scale(1 1) rotate(0) translate(4 1328)">
<title>Control&#45;flow graph for function &#39;function_22734()&#39;.</title>
<polygon fill="white" stroke="none" points="-4,4 -4,-1328 779,-1328 779,4 -4,4"/>
<text text-anchor="middle" x="387.5" y="-7.8" font-family="Times,serif" font-size="14.00">Control&#45;flow graph for function &#39;function_22734()&#39;.</text>
<!-- Node0x31f33760 -->
<g id="node1" class="node"><title>Node0x31f33760</title>
<polygon fill="none" stroke="black" points="400.5,-1287.5 400.5,-1323.5 459.5,-1323.5 459.5,-1287.5 400.5,-1287.5"/>
<text text-anchor="start" x="408.5" y="-1301.8" font-family="Times,serif" font-size="14.00">entry:</text>
</g>
<!-- Node0x1e0285d0 -->
<g id="node2" class="node"><title>Node0x1e0285d0</title>
<polygon fill="none" stroke="black" points="231,-986.5 231,-1249.5 629,-1249.5 629,-986.5 231,-986.5"/>
<text text-anchor="start" x="239" y="-1234.3" font-family="Times,serif" font-size="14.00">0x3ca3a000:</text>
<text text-anchor="start" x="239" y="-1219.3" font-family="Times,serif" font-size="14.00"> v1 = g38</text>
<text text-anchor="start" x="239" y="-1204.3" font-family="Times,serif" font-size="14.00"> v2 = g32</text>
<text text-anchor="start" x="239" y="-1189.3" font-family="Times,serif" font-size="14.00"> v3 = g35</text>
<text text-anchor="start" x="239" y="-1174.3" font-family="Times,serif" font-size="14.00"> g30 = 1000</text>
<text text-anchor="start" x="239" y="-1159.3" font-family="Times,serif" font-size="14.00"> g38 = g29</text>
<text text-anchor="start" x="239" y="-1144.3" font-family="Times,serif" font-size="14.00"> function_24238()</text>
<text text-anchor="start" x="239" y="-1129.3" font-family="Times,serif" font-size="14.00"> rmtp = IntToPtrCastExpr&lt;ptr&gt;(g29)</text>
<text text-anchor="start" x="239" y="-1114.3" font-family="Times,serif" font-size="14.00"> rmtp2 = rmtp</text>
<text text-anchor="start" x="239" y="-1099.3" font-family="Times,serif" font-size="14.00"> g29 = g38</text>
<text text-anchor="start" x="239" y="-1084.3" font-family="Times,serif" font-size="14.00"> function_24258()</text>
<text text-anchor="start" x="239" y="-1069.3" font-family="Times,serif" font-size="14.00"> g37 = (1000000 * g30)</text>
<text text-anchor="start" x="239" y="-1054.3" font-family="Times,serif" font-size="14.00"> v4 = nanosleep(BitCastExpr&lt;ptr&gt;(&amp;(rmtp2)), rmtp)</text>
<text text-anchor="start" x="239" y="-1039.3" font-family="Times,serif" font-size="14.00"> g8 = False</text>
<text text-anchor="start" x="239" y="-1024.3" font-family="Times,serif" font-size="14.00"> g7 = (v4 &lt; 0)</text>
<text text-anchor="start" x="239" y="-1009.3" font-family="Times,serif" font-size="14.00"> g9 = (v4 == 0)</text>
<text text-anchor="start" x="239" y="-994.3" font-family="Times,serif" font-size="14.00"> v5</text>
</g>
<!-- Node0x31f33760&#45;&gt;Node0x1e0285d0 -->
<g id="edge1" class="edge"><title>Node0x31f33760&#45;&gt;Node0x1e0285d0</title>
<path fill="none" stroke="black" d="M430,-1287.38C430,-1279.9 430,-1270.38 430,-1259.69"/>
<polygon fill="black" stroke="black" points="433.5,-1259.57 430,-1249.57 426.5,-1259.57 433.5,-1259.57"/>
</g>
<!-- Node0x23995240 -->
<g id="node3" class="node"><title>Node0x23995240</title>
<polygon fill="none" stroke="black" points="340.5,-910.5 340.5,-948.5 519.5,-948.5 519.5,-910.5 340.5,-910.5"/>
<text text-anchor="start" x="348.5" y="-933.3" font-family="Times,serif" font-size="14.00">0x79ed550:</text>
<text text-anchor="start" x="348.5" y="-918.3" font-family="Times,serif" font-size="14.00"> if (v4 &gt; 4294967295):</text>
</g>
<!-- Node0x1e0285d0&#45;&gt;Node0x23995240 -->
<g id="edge2" class="edge"><title>Node0x1e0285d0&#45;&gt;Node0x23995240</title>
<path fill="none" stroke="black" d="M430,-986.456C430,-976.355 430,-966.953 430,-958.849"/>
<polygon fill="black" stroke="black" points="433.5,-958.658 430,-948.658 426.5,-958.658 433.5,-958.658"/>
</g>
<!-- Node0x201792c0 -->
<g id="node4" class="node"><title>Node0x201792c0</title>
<polygon fill="none" stroke="black" points="205.5,-775.5 205.5,-858.5 438.5,-858.5 438.5,-775.5 205.5,-775.5"/>
<text text-anchor="start" x="213.5" y="-843.3" font-family="Times,serif" font-size="14.00">0x79ed770:</text>
<text text-anchor="start" x="213.5" y="-828.3" font-family="Times,serif" font-size="14.00"> g38 = v1</text>
<text text-anchor="start" x="213.5" y="-813.3" font-family="Times,serif" font-size="14.00"> g32 = v2</text>
<text text-anchor="start" x="213.5" y="-798.3" font-family="Times,serif" font-size="14.00"> g34 = v5</text>
<text text-anchor="start" x="213.5" y="-783.3" font-family="Times,serif" font-size="14.00"> IntToPtrCastExpr&lt;ptr&gt;(v3)()</text>
</g>
<!-- Node0x23995240&#45;&gt;Node0x201792c0 -->
<g id="edge3" class="edge"><title>Node0x23995240&#45;&gt;Node0x201792c0</title>
<path fill="none" stroke="black" d="M372.642,-910.299C363.533,-905.464 354.867,-899.446 348,-892 341.763,-885.237 337.007,-876.889 333.385,-868.265"/>
<polygon fill="black" stroke="black" points="336.653,-867.009 329.883,-858.859 330.092,-869.452 336.653,-867.009"/>
<text text-anchor="middle" x="412.5" y="-880.8" font-family="Times,serif" font-size="14.00">v4 &gt; 4294967295</text>
</g>
<!-- Node0x2b7b4390 -->
<g id="node5" class="node"><title>Node0x2b7b4390</title>
<polygon fill="none" stroke="black" points="476.5,-798 476.5,-836 577.5,-836 577.5,-798 476.5,-798"/>
<text text-anchor="start" x="484.5" y="-820.8" font-family="Times,serif" font-size="14.00">0x79ed430:</text>
<text text-anchor="start" x="484.5" y="-805.8" font-family="Times,serif" font-size="14.00"> while True:</text>
</g>
<!-- Node0x23995240&#45;&gt;Node0x2b7b4390 -->
<g id="edge4" class="edge"><title>Node0x23995240&#45;&gt;Node0x2b7b4390</title>
<path fill="none" stroke="black" d="M459.396,-910.439C466.924,-905.046 474.672,-898.753 481,-892 493.982,-878.146 505.291,-860.09 513.447,-845.281"/>
<polygon fill="black" stroke="black" points="516.728,-846.568 518.338,-836.096 510.549,-843.278 516.728,-846.568"/>
<text text-anchor="middle" x="564.5" y="-880.8" font-family="Times,serif" font-size="14.00">v4 &lt;= 4294967295</text>
</g>
<!-- Node0x2b7b4fa0 -->
<g id="node6" class="node"><title>Node0x2b7b4fa0</title>
<polygon fill="none" stroke="black" points="210,-685.5 210,-723.5 310,-723.5 310,-685.5 210,-685.5"/>
<text text-anchor="start" x="218" y="-708.3" font-family="Times,serif" font-size="14.00">0x79ee500:</text>
<text text-anchor="start" x="218" y="-693.3" font-family="Times,serif" font-size="14.00"> if g9:</text>
</g>
<!-- Node0x201792c0&#45;&gt;Node0x2b7b4fa0 -->
<g id="edge5" class="edge"><title>Node0x201792c0&#45;&gt;Node0x2b7b4fa0</title>
<path fill="none" stroke="black" d="M299.266,-775.481C291.256,-761.207 282.453,-745.517 275.215,-732.617"/>
<polygon fill="black" stroke="black" points="278.201,-730.786 270.255,-723.778 272.096,-734.211 278.201,-730.786"/>
</g>
<!-- Node0x2398c350 -->
<g id="node7" class="node"><title>Node0x2398c350</title>
<polygon fill="none" stroke="black" points="419.5,-685.5 419.5,-723.5 658.5,-723.5 658.5,-685.5 419.5,-685.5"/>
<text text-anchor="start" x="427.5" y="-708.3" font-family="Times,serif" font-size="14.00">0x79ebec0:</text>
<text text-anchor="start" x="427.5" y="-693.3" font-family="Times,serif" font-size="14.00"> if (*(__errno_location()) == 4):</text>
</g>
<!-- Node0x2b7b4390&#45;&gt;Node0x2398c350 -->
<g id="edge6" class="edge"><title>Node0x2b7b4390&#45;&gt;Node0x2398c350</title>
<path fill="none" stroke="black" d="M512.084,-797.837C501.578,-782.721 490.738,-760.725 499,-742 500.708,-738.13 503.051,-734.492 505.754,-731.125"/>
<polygon fill="black" stroke="black" points="508.339,-733.485 512.583,-723.778 503.211,-728.72 508.339,-733.485"/>
<text text-anchor="middle" x="516" y="-745.8" font-family="Times,serif" font-size="14.00">True</text>
</g>
<!-- Node0x2398cf90 -->
<g id="node8" class="node"><title>Node0x2398cf90</title>
<polygon fill="none" stroke="black" points="0,-573 0,-611 224,-611 224,-573 0,-573"/>
<text text-anchor="start" x="8" y="-595.8" font-family="Times,serif" font-size="14.00">0x79ee3e0:</text>
<text text-anchor="start" x="8" y="-580.8" font-family="Times,serif" font-size="14.00"> g38 = ((g29 / 16) &amp; 141220)</text>
</g>
<!-- Node0x2b7b4fa0&#45;&gt;Node0x2398cf90 -->
<g id="edge7" class="edge"><title>Node0x2b7b4fa0&#45;&gt;Node0x2398cf90</title>
<path fill="none" stroke="black" d="M235.561,-685.253C210.71,-666.699 172.057,-637.84 144.607,-617.345"/>
<polygon fill="black" stroke="black" points="146.582,-614.452 136.475,-611.274 142.395,-620.061 146.582,-614.452"/>
<text text-anchor="middle" x="217.5" y="-655.8" font-family="Times,serif" font-size="14.00">g9</text>
</g>
<!-- Node0x31f2d7d0 -->
<g id="node9" class="node"><title>Node0x31f2d7d0</title>
<polygon fill="none" stroke="black" points="210,-474.5 210,-512.5 310,-512.5 310,-474.5 210,-474.5"/>
<text text-anchor="start" x="218" y="-497.3" font-family="Times,serif" font-size="14.00">0x79ee640:</text>
<text text-anchor="start" x="218" y="-482.3" font-family="Times,serif" font-size="14.00"> return</text>
</g>
<!-- Node0x2b7b4fa0&#45;&gt;Node0x31f2d7d0 -->
<g id="edge8" class="edge"><title>Node0x2b7b4fa0&#45;&gt;Node0x31f2d7d0</title>
<path fill="none" stroke="black" d="M260,-685.318C260,-648.88 260,-566.674 260,-523.008"/>
<polygon fill="black" stroke="black" points="263.5,-522.789 260,-512.789 256.5,-522.789 263.5,-522.789"/>
<text text-anchor="middle" x="288.5" y="-588.3" font-family="Times,serif" font-size="14.00">not (g9)</text>
</g>
<!-- Node0x2398c350&#45;&gt;Node0x2b7b4390 -->
<g id="edge10" class="edge"><title>Node0x2398c350&#45;&gt;Node0x2b7b4390</title>
<path fill="none" stroke="black" d="M537.016,-723.774C535.13,-741.138 532.266,-767.509 530.083,-787.611"/>
<polygon fill="black" stroke="black" points="526.582,-787.434 528.982,-797.753 533.541,-788.19 526.582,-787.434"/>
<text text-anchor="middle" x="626" y="-745.8" font-family="Times,serif" font-size="14.00">*(__errno_location()) != 4</text>
</g>
<!-- Node0x3db3e900 -->
<g id="node10" class="node"><title>Node0x3db3e900</title>
<polygon fill="none" stroke="black" points="335.5,-550.5 335.5,-633.5 742.5,-633.5 742.5,-550.5 335.5,-550.5"/>
<text text-anchor="start" x="343.5" y="-618.3" font-family="Times,serif" font-size="14.00">0x20f81900:</text>
<text text-anchor="start" x="343.5" y="-603.3" font-family="Times,serif" font-size="14.00"> v6 = nanosleep(BitCastExpr&lt;ptr&gt;(&amp;(rmtp2)), rmtp2)</text>
<text text-anchor="start" x="343.5" y="-588.3" font-family="Times,serif" font-size="14.00"> g8 = False</text>
<text text-anchor="start" x="343.5" y="-573.3" font-family="Times,serif" font-size="14.00"> g7 = (v6 &lt; 0)</text>
<text text-anchor="start" x="343.5" y="-558.3" font-family="Times,serif" font-size="14.00"> g9 = (v6 == 0)</text>
</g>
<!-- Node0x2398c350&#45;&gt;Node0x3db3e900 -->
<g id="edge9" class="edge"><title>Node0x2398c350&#45;&gt;Node0x3db3e900</title>
<path fill="none" stroke="black" d="M539,-685.253C539,-673.898 539,-658.682 539,-643.887"/>
<polygon fill="black" stroke="black" points="542.5,-643.764 539,-633.764 535.5,-643.764 542.5,-643.764"/>
<text text-anchor="middle" x="634" y="-655.8" font-family="Times,serif" font-size="14.00">*(__errno_location()) == 4</text>
</g>
<!-- Node0x2398cf90&#45;&gt;Node0x31f2d7d0 -->
<g id="edge11" class="edge"><title>Node0x2398cf90&#45;&gt;Node0x31f2d7d0</title>
<path fill="none" stroke="black" d="M139.838,-572.849C163.61,-557.349 197.966,-534.948 223.858,-518.065"/>
<polygon fill="black" stroke="black" points="225.822,-520.963 232.287,-512.57 221.999,-515.1 225.822,-520.963"/>
</g>
<!-- Node0x22401040 -->
<g id="node11" class="node"><title>Node0x22401040</title>
<polygon fill="none" stroke="black" points="284,-23.5 284,-59.5 338,-59.5 338,-23.5 284,-23.5"/>
<text text-anchor="start" x="292" y="-37.8" font-family="Times,serif" font-size="14.00">exit:</text>
</g>
<!-- Node0x31f2d7d0&#45;&gt;Node0x22401040 -->
<g id="edge12" class="edge"><title>Node0x31f2d7d0&#45;&gt;Node0x22401040</title>
<path fill="none" stroke="black" d="M261.31,-474.309C262.476,-456.521 264,-428.664 264,-404.5 264,-404.5 264,-404.5 264,-115.5 264,-97.5252 274.198,-80.4563 285.094,-67.3496"/>
<polygon fill="black" stroke="black" points="287.845,-69.5233 291.883,-59.7282 282.618,-64.8671 287.845,-69.5233"/>
</g>
<!-- Node0x2398d000 -->
<g id="node12" class="node"><title>Node0x2398d000</title>
<polygon fill="none" stroke="black" points="488,-474.5 488,-512.5 590,-512.5 590,-474.5 488,-474.5"/>
<text text-anchor="start" x="496" y="-497.3" font-family="Times,serif" font-size="14.00">0x79ebbd0:</text>
<text text-anchor="start" x="496" y="-482.3" font-family="Times,serif" font-size="14.00"> if (v6 &gt; &#45;1):</text>
</g>
<!-- Node0x3db3e900&#45;&gt;Node0x2398d000 -->
<g id="edge13" class="edge"><title>Node0x3db3e900&#45;&gt;Node0x2398d000</title>
<path fill="none" stroke="black" d="M539,-550.355C539,-541.083 539,-531.427 539,-522.803"/>
<polygon fill="black" stroke="black" points="542.5,-522.538 539,-512.538 535.5,-522.538 542.5,-522.538"/>
</g>
<!-- Node0x1e0311d0 -->
<g id="node13" class="node"><title>Node0x1e0311d0</title>
<polygon fill="none" stroke="black" points="476.5,-384.5 476.5,-422.5 577.5,-422.5 577.5,-384.5 476.5,-384.5"/>
<text text-anchor="start" x="484.5" y="-407.3" font-family="Times,serif" font-size="14.00">0x79eb6d0:</text>
<text text-anchor="start" x="484.5" y="-392.3" font-family="Times,serif" font-size="14.00"> break</text>
</g>
<!-- Node0x2398d000&#45;&gt;Node0x1e0311d0 -->
<g id="edge14" class="edge"><title>Node0x2398d000&#45;&gt;Node0x1e0311d0</title>
<path fill="none" stroke="black" d="M536.514,-474.266C534.889,-462.349 532.733,-446.538 530.884,-432.982"/>
<polygon fill="black" stroke="black" points="534.302,-432.146 529.483,-422.71 527.367,-433.092 534.302,-432.146"/>
<text text-anchor="middle" x="559" y="-444.8" font-family="Times,serif" font-size="14.00">v6 &gt; &#45;1</text>
</g>
<!-- Node0x2332f330 -->
<g id="node14" class="node"><title>Node0x2332f330</title>
<polygon fill="none" stroke="black" points="675,-384.5 675,-422.5 775,-422.5 775,-384.5 675,-384.5"/>
<text text-anchor="start" x="683" y="-407.3" font-family="Times,serif" font-size="14.00">0x79eb7c0:</text>
<text text-anchor="start" x="683" y="-392.3" font-family="Times,serif" font-size="14.00"> continue</text>
</g>
<!-- Node0x2398d000&#45;&gt;Node0x2332f330 -->
<g id="edge15" class="edge"><title>Node0x2398d000&#45;&gt;Node0x2332f330</title>
<path fill="none" stroke="black" d="M577.089,-474.48C606.081,-460.763 646.165,-441.798 677.292,-427.071"/>
<polygon fill="black" stroke="black" points="679.101,-430.088 686.643,-422.647 676.107,-423.76 679.101,-430.088"/>
<text text-anchor="middle" x="675" y="-444.8" font-family="Times,serif" font-size="14.00">v6 &lt;= &#45;1</text>
</g>
<!-- Node0x2b7bc8e0 -->
<g id="node15" class="node"><title>Node0x2b7bc8e0</title>
<polygon fill="none" stroke="black" points="384.5,-263.5 384.5,-346.5 617.5,-346.5 617.5,-263.5 384.5,-263.5"/>
<text text-anchor="start" x="392.5" y="-331.3" font-family="Times,serif" font-size="14.00">0x79ec120:</text>
<text text-anchor="start" x="392.5" y="-316.3" font-family="Times,serif" font-size="14.00"> g38 = v1</text>
<text text-anchor="start" x="392.5" y="-301.3" font-family="Times,serif" font-size="14.00"> g32 = v2</text>
<text text-anchor="start" x="392.5" y="-286.3" font-family="Times,serif" font-size="14.00"> g34 = v5</text>
<text text-anchor="start" x="392.5" y="-271.3" font-family="Times,serif" font-size="14.00"> IntToPtrCastExpr&lt;ptr&gt;(v3)()</text>
</g>
<!-- Node0x1e0311d0&#45;&gt;Node0x2b7bc8e0 -->
<g id="edge16" class="edge"><title>Node0x1e0311d0&#45;&gt;Node0x2b7bc8e0</title>
<path fill="none" stroke="black" d="M522.11,-384.349C519.969,-376.405 517.341,-366.649 514.674,-356.752"/>
<polygon fill="black" stroke="black" points="517.993,-355.615 512.012,-346.87 511.234,-357.436 517.993,-355.615"/>
</g>
<!-- Node0x2332f330&#45;&gt;Node0x2b7b4390 -->
<g id="edge17" class="edge"><title>Node0x2332f330&#45;&gt;Node0x2b7b4390</title>
<path fill="none" stroke="black" d="M741.089,-422.634C754.354,-439.499 771,-465.952 771,-492.5 771,-705.5 771,-705.5 771,-705.5 771,-785.724 660.193,-808.005 587.922,-814.005"/>
<polygon fill="black" stroke="black" points="587.269,-810.544 577.557,-814.777 587.789,-817.525 587.269,-810.544"/>
</g>
<!-- Node0x3db3f430 -->
<g id="node16" class="node"><title>Node0x3db3f430</title>
<polygon fill="none" stroke="black" points="450,-187.5 450,-225.5 546,-225.5 546,-187.5 450,-187.5"/>
<text text-anchor="start" x="458" y="-210.3" font-family="Times,serif" font-size="14.00">0x79ecf70:</text>
<text text-anchor="start" x="458" y="-195.3" font-family="Times,serif" font-size="14.00"> if g9:</text>
</g>
<!-- Node0x2b7bc8e0&#45;&gt;Node0x3db3f430 -->
<g id="edge18" class="edge"><title>Node0x2b7bc8e0&#45;&gt;Node0x3db3f430</title>
<path fill="none" stroke="black" d="M499.736,-263.355C499.448,-254.083 499.148,-244.427 498.88,-235.803"/>
<polygon fill="black" stroke="black" points="502.37,-235.424 498.561,-225.538 495.373,-235.642 502.37,-235.424"/>
</g>
<!-- Node0x3db3f430&#45;&gt;Node0x22401040 -->
<g id="edge20" class="edge"><title>Node0x3db3f430&#45;&gt;Node0x22401040</title>
<path fill="none" stroke="black" d="M449.607,-200.465C408.209,-193.408 350.607,-176.491 320,-136 305.83,-117.253 304.761,-89.9859 306.533,-69.7301"/>
<polygon fill="black" stroke="black" points="310.035,-69.9138 307.705,-59.5784 303.081,-69.1112 310.035,-69.9138"/>
<text text-anchor="middle" x="348.5" y="-112.8" font-family="Times,serif" font-size="14.00">not (g9)</text>
</g>
<!-- Node0x2398da80 -->
<g id="node17" class="node"><title>Node0x2398da80</title>
<polygon fill="none" stroke="black" points="386,-97.5 386,-135.5 610,-135.5 610,-97.5 386,-97.5"/>
<text text-anchor="start" x="394" y="-120.3" font-family="Times,serif" font-size="14.00">0x79ecd40:</text>
<text text-anchor="start" x="394" y="-105.3" font-family="Times,serif" font-size="14.00"> g38 = ((g29 / 16) &amp; 141220)</text>
</g>
<!-- Node0x3db3f430&#45;&gt;Node0x2398da80 -->
<g id="edge19" class="edge"><title>Node0x3db3f430&#45;&gt;Node0x2398da80</title>
<path fill="none" stroke="black" d="M498,-187.266C498,-175.349 498,-159.538 498,-145.982"/>
<polygon fill="black" stroke="black" points="501.5,-145.71 498,-135.71 494.5,-145.71 501.5,-145.71"/>
<text text-anchor="middle" x="507.5" y="-157.8" font-family="Times,serif" font-size="14.00">g9</text>
</g>
<!-- Node0x2398da80&#45;&gt;Node0x22401040 -->
<g id="edge21" class="edge"><title>Node0x2398da80&#45;&gt;Node0x22401040</title>
<path fill="none" stroke="black" d="M451.775,-97.4551C419.709,-84.937 377.574,-68.489 347.785,-56.86"/>
<polygon fill="black" stroke="black" points="348.776,-53.4898 338.188,-53.1136 346.231,-60.0105 348.776,-53.4898"/>
</g>
</g>
</svg>
