<?xml version="1.0" encoding="UTF-8" standalone="no"?>
<!DOCTYPE svg PUBLIC "-//W3C//DTD SVG 1.1//EN"
 "http://www.w3.org/Graphics/SVG/1.1/DTD/svg11.dtd">
<!-- Generated by graphviz version 2.38.0 (20140413.2041)
 -->
<!-- Title: Control&#45;flow graph for function &#39;function_f570()&#39;. Pages: 1 -->
<svg width="491pt" height="261pt"
 viewBox="0.00 0.00 491.00 261.00" xmlns="http://www.w3.org/2000/svg" xmlns:xlink="http://www.w3.org/1999/xlink">
<g id="graph0" class="graph" transform="scale(1 1) rotate(0) translate(4 257)">
<title>Control&#45;flow graph for function &#39;function_f570()&#39;.</title>
<polygon fill="white" stroke="none" points="-4,4 -4,-257 487,-257 487,4 -4,4"/>
<text text-anchor="middle" x="241.5" y="-7.8" font-family="Times,serif" font-size="14.00">Control&#45;flow graph for function &#39;function_f570()&#39;.</text>
<!-- Node0x160e1840 -->
<g id="node1" class="node"><title>Node0x160e1840</title>
<polygon fill="none" stroke="black" points="212,-216.5 212,-252.5 271,-252.5 271,-216.5 212,-216.5"/>
<text text-anchor="start" x="220" y="-230.8" font-family="Times,serif" font-size="14.00">entry:</text>
</g>
<!-- Node0x160e3030 -->
<g id="node2" class="node"><title>Node0x160e3030</title>
<polygon fill="none" stroke="black" points="0,-96.5 0,-179.5 483,-179.5 483,-96.5 0,-96.5"/>
<text text-anchor="start" x="8" y="-164.3" font-family="Times,serif" font-size="14.00">0x3748c5e0:</text>
<text text-anchor="start" x="8" y="-149.3" font-family="Times,serif" font-size="14.00"> v1 = g29</text>
<text text-anchor="start" x="8" y="-134.3" font-family="Times,serif" font-size="14.00"> v2 = ExtCastExpr&lt;int32&gt;(*(IntToPtrCastExpr&lt;ptr&gt;((v1 + 1))))</text>
<text text-anchor="start" x="8" y="-119.3" font-family="Times,serif" font-size="14.00"> g37 = v2</text>
<text text-anchor="start" x="8" y="-104.3" font-family="Times,serif" font-size="14.00"> g29 = (v2 + v1)</text>
</g>
<!-- Node0x160e1840&#45;&gt;Node0x160e3030 -->
<g id="edge1" class="edge"><title>Node0x160e1840&#45;&gt;Node0x160e3030</title>
<path fill="none" stroke="black" d="M241.5,-216.167C241.5,-208.654 241.5,-199.427 241.5,-189.999"/>
<polygon fill="black" stroke="black" points="245,-189.762 241.5,-179.762 238,-189.762 245,-189.762"/>
</g>
<!-- Node0x160e2690 -->
<g id="node3" class="node"><title>Node0x160e2690</title>
<polygon fill="none" stroke="black" points="214.5,-23.5 214.5,-59.5 268.5,-59.5 268.5,-23.5 214.5,-23.5"/>
<text text-anchor="start" x="222.5" y="-37.8" font-family="Times,serif" font-size="14.00">exit:</text>
</g>
<!-- Node0x160e3030&#45;&gt;Node0x160e2690 -->
<g id="edge2" class="edge"><title>Node0x160e3030&#45;&gt;Node0x160e2690</title>
<path fill="none" stroke="black" d="M241.5,-96.3751C241.5,-87.4706 241.5,-78.246 241.5,-70"/>
<polygon fill="black" stroke="black" points="245,-69.8327 241.5,-59.8328 238,-69.8328 245,-69.8327"/>
</g>
</g>
</svg>
