<?xml version="1.0" encoding="UTF-8" standalone="no"?>
<!DOCTYPE svg PUBLIC "-//W3C//DTD SVG 1.1//EN"
 "http://www.w3.org/Graphics/SVG/1.1/DTD/svg11.dtd">
<!-- Generated by graphviz version 2.38.0 (20140413.2041)
 -->
<!-- Title: Control&#45;flow graph for function &#39;function_8cc4()&#39;. Pages: 1 -->
<svg width="379pt" height="441pt"
 viewBox="0.00 0.00 379.00 441.00" xmlns="http://www.w3.org/2000/svg" xmlns:xlink="http://www.w3.org/1999/xlink">
<g id="graph0" class="graph" transform="scale(1 1) rotate(0) translate(4 437)">
<title>Control&#45;flow graph for function &#39;function_8cc4()&#39;.</title>
<polygon fill="white" stroke="none" points="-4,4 -4,-437 375,-437 375,4 -4,4"/>
<text text-anchor="middle" x="185.5" y="-7.8" font-family="Times,serif" font-size="14.00">Control&#45;flow graph for function &#39;function_8cc4()&#39;.</text>
<!-- Node0x21fced10 -->
<g id="node1" class="node"><title>Node0x21fced10</title>
<polygon fill="none" stroke="black" points="156,-396.5 156,-432.5 215,-432.5 215,-396.5 156,-396.5"/>
<text text-anchor="start" x="164" y="-410.8" font-family="Times,serif" font-size="14.00">entry:</text>
</g>
<!-- Node0x21fcf680 -->
<g id="node2" class="node"><title>Node0x21fcf680</title>
<polygon fill="none" stroke="black" points="0,-96.5 0,-359.5 371,-359.5 371,-96.5 0,-96.5"/>
<text text-anchor="start" x="8" y="-344.3" font-family="Times,serif" font-size="14.00">0x34fb2530:</text>
<text text-anchor="start" x="8" y="-329.3" font-family="Times,serif" font-size="14.00"> v1 = g38</text>
<text text-anchor="start" x="8" y="-314.3" font-family="Times,serif" font-size="14.00"> v2 = g40</text>
<text text-anchor="start" x="8" y="-299.3" font-family="Times,serif" font-size="14.00"> g40 = g30</text>
<text text-anchor="start" x="8" y="-284.3" font-family="Times,serif" font-size="14.00"> v3 = g29</text>
<text text-anchor="start" x="8" y="-269.3" font-family="Times,serif" font-size="14.00"> g38 = v3</text>
<text text-anchor="start" x="8" y="-254.3" font-family="Times,serif" font-size="14.00"> memset(IntToPtrCastExpr&lt;ptr&gt;(v3), g10, 1344)</text>
<text text-anchor="start" x="8" y="-239.3" font-family="Times,serif" font-size="14.00"> g37 = 36316</text>
<text text-anchor="start" x="8" y="-224.3" font-family="Times,serif" font-size="14.00"> *(IntToPtrCastExpr&lt;ptr&gt;((g38 + 4))) = g40</text>
<text text-anchor="start" x="8" y="-209.3" font-family="Times,serif" font-size="14.00"> *(IntToPtrCastExpr&lt;ptr&gt;((g38 + 1320))) = g37</text>
<text text-anchor="start" x="8" y="-194.3" font-family="Times,serif" font-size="14.00"> v4 = g38</text>
<text text-anchor="start" x="8" y="-179.3" font-family="Times,serif" font-size="14.00"> *(IntToPtrCastExpr&lt;ptr&gt;((v4 + 1324))) = v4</text>
<text text-anchor="start" x="8" y="-164.3" font-family="Times,serif" font-size="14.00"> g38 = v1</text>
<text text-anchor="start" x="8" y="-149.3" font-family="Times,serif" font-size="14.00"> g40 = v2</text>
<text text-anchor="start" x="8" y="-134.3" font-family="Times,serif" font-size="14.00"> v5</text>
<text text-anchor="start" x="8" y="-119.3" font-family="Times,serif" font-size="14.00"> g34 = v5</text>
<text text-anchor="start" x="8" y="-104.3" font-family="Times,serif" font-size="14.00"> IntToPtrCastExpr&lt;ptr&gt;(g35)()</text>
</g>
<!-- Node0x21fced10&#45;&gt;Node0x21fcf680 -->
<g id="edge1" class="edge"><title>Node0x21fced10&#45;&gt;Node0x21fcf680</title>
<path fill="none" stroke="black" d="M185.5,-396.473C185.5,-389.24 185.5,-380.097 185.5,-369.831"/>
<polygon fill="black" stroke="black" points="189,-369.67 185.5,-359.67 182,-369.67 189,-369.67"/>
</g>
<!-- Node0x21fcaef0 -->
<g id="node3" class="node"><title>Node0x21fcaef0</title>
<polygon fill="none" stroke="black" points="158.5,-23.5 158.5,-59.5 212.5,-59.5 212.5,-23.5 158.5,-23.5"/>
<text text-anchor="start" x="166.5" y="-37.8" font-family="Times,serif" font-size="14.00">exit:</text>
</g>
<!-- Node0x21fcf680&#45;&gt;Node0x21fcaef0 -->
<g id="edge2" class="edge"><title>Node0x21fcf680&#45;&gt;Node0x21fcaef0</title>
<path fill="none" stroke="black" d="M185.5,-96.361C185.5,-86.7102 185.5,-77.7416 185.5,-70.0001"/>
<polygon fill="black" stroke="black" points="189,-69.93 185.5,-59.93 182,-69.93 189,-69.93"/>
</g>
</g>
</svg>
