<?xml version="1.0" encoding="UTF-8" standalone="no"?>
<!DOCTYPE svg PUBLIC "-//W3C//DTD SVG 1.1//EN"
 "http://www.w3.org/Graphics/SVG/1.1/DTD/svg11.dtd">
<!-- Generated by graphviz version 2.38.0 (20140413.2041)
 -->
<!-- Title: Control&#45;flow graph for function &#39;function_12138()&#39;. Pages: 1 -->
<svg width="569pt" height="1152pt"
 viewBox="0.00 0.00 569.00 1152.00" xmlns="http://www.w3.org/2000/svg" xmlns:xlink="http://www.w3.org/1999/xlink">
<g id="graph0" class="graph" transform="scale(1 1) rotate(0) translate(4 1148)">
<title>Control&#45;flow graph for function &#39;function_12138()&#39;.</title>
<polygon fill="white" stroke="none" points="-4,4 -4,-1148 565,-1148 565,4 -4,4"/>
<text text-anchor="middle" x="280.5" y="-7.8" font-family="Times,serif" font-size="14.00">Control&#45;flow graph for function &#39;function_12138()&#39;.</text>
<!-- Node0xd3c01e0 -->
<g id="node1" class="node"><title>Node0xd3c01e0</title>
<polygon fill="none" stroke="black" points="271.5,-1107.5 271.5,-1143.5 330.5,-1143.5 330.5,-1107.5 271.5,-1107.5"/>
<text text-anchor="start" x="279.5" y="-1121.8" font-family="Times,serif" font-size="14.00">entry:</text>
</g>
<!-- Node0x151a67d0 -->
<g id="node2" class="node"><title>Node0x151a67d0</title>
<polygon fill="none" stroke="black" points="41,-896.5 41,-1069.5 561,-1069.5 561,-896.5 41,-896.5"/>
<text text-anchor="start" x="49" y="-1054.3" font-family="Times,serif" font-size="14.00">0x1dcff3b0:</text>
<text text-anchor="start" x="49" y="-1039.3" font-family="Times,serif" font-size="14.00"> v1 = g29</text>
<text text-anchor="start" x="49" y="-1024.3" font-family="Times,serif" font-size="14.00"> v2 = *(IntToPtrCastExpr&lt;ptr&gt;((v1 + 28)))</text>
<text text-anchor="start" x="49" y="-1009.3" font-family="Times,serif" font-size="14.00"> g37 = v2</text>
<text text-anchor="start" x="49" y="-994.3" font-family="Times,serif" font-size="14.00"> v3 = g38</text>
<text text-anchor="start" x="49" y="-979.3" font-family="Times,serif" font-size="14.00"> v4 = g39</text>
<text text-anchor="start" x="49" y="-964.3" font-family="Times,serif" font-size="14.00"> g9 = ((v2 &amp; 2) == 0)</text>
<text text-anchor="start" x="49" y="-949.3" font-family="Times,serif" font-size="14.00"> g39 = 0</text>
<text text-anchor="start" x="49" y="-934.3" font-family="Times,serif" font-size="14.00"> g38 = v1</text>
<text text-anchor="start" x="49" y="-919.3" font-family="Times,serif" font-size="14.00"> *(IntToPtrCastExpr&lt;ptr&gt;((v1 + 36))) = 0</text>
<text text-anchor="start" x="49" y="-904.3" font-family="Times,serif" font-size="14.00"> *(IntToPtrCastExpr&lt;ptr&gt;((g29 + 25))) = TruncCastExpr&lt;int8&gt;(g39)</text>
</g>
<!-- Node0xd3c01e0&#45;&gt;Node0x151a67d0 -->
<g id="edge1" class="edge"><title>Node0xd3c01e0&#45;&gt;Node0x151a67d0</title>
<path fill="none" stroke="black" d="M301,-1107.27C301,-1099.72 301,-1090.21 301,-1079.85"/>
<polygon fill="black" stroke="black" points="304.5,-1079.68 301,-1069.68 297.5,-1079.68 304.5,-1079.68"/>
</g>
<!-- Node0x151aa3d0 -->
<g id="node3" class="node"><title>Node0x151aa3d0</title>
<polygon fill="none" stroke="black" points="228.5,-820.5 228.5,-858.5 373.5,-858.5 373.5,-820.5 228.5,-820.5"/>
<text text-anchor="start" x="236.5" y="-843.3" font-family="Times,serif" font-size="14.00">0x7de4920:</text>
<text text-anchor="start" x="236.5" y="-828.3" font-family="Times,serif" font-size="14.00"> if ((v2 &amp; 2) != 0):</text>
</g>
<!-- Node0x151a67d0&#45;&gt;Node0x151aa3d0 -->
<g id="edge2" class="edge"><title>Node0x151a67d0&#45;&gt;Node0x151aa3d0</title>
<path fill="none" stroke="black" d="M301,-896.425C301,-886.55 301,-877.079 301,-868.829"/>
<polygon fill="black" stroke="black" points="304.5,-868.754 301,-858.754 297.5,-868.754 304.5,-868.754"/>
</g>
<!-- Node0x27dae6c0 -->
<g id="node4" class="node"><title>Node0x27dae6c0</title>
<polygon fill="none" stroke="black" points="0,-670.5 0,-768.5 320,-768.5 320,-670.5 0,-670.5"/>
<text text-anchor="start" x="8" y="-753.3" font-family="Times,serif" font-size="14.00">0x7de3ea0:</text>
<text text-anchor="start" x="8" y="-738.3" font-family="Times,serif" font-size="14.00"> function_11958()</text>
<text text-anchor="start" x="8" y="-723.3" font-family="Times,serif" font-size="14.00"> v5 = IntToPtrCastExpr&lt;ptr&gt;((g38 + 28))</text>
<text text-anchor="start" x="8" y="-708.3" font-family="Times,serif" font-size="14.00"> v6 = (*(v5) &amp; &#45;3)</text>
<text text-anchor="start" x="8" y="-693.3" font-family="Times,serif" font-size="14.00"> g37 = v6</text>
<text text-anchor="start" x="8" y="-678.3" font-family="Times,serif" font-size="14.00"> *(v5) = v6</text>
</g>
<!-- Node0x151aa3d0&#45;&gt;Node0x27dae6c0 -->
<g id="edge3" class="edge"><title>Node0x151aa3d0&#45;&gt;Node0x27dae6c0</title>
<path fill="none" stroke="black" d="M272.371,-820.375C263.997,-814.75 254.96,-808.353 247,-802 236.817,-793.873 226.381,-784.814 216.432,-775.774"/>
<polygon fill="black" stroke="black" points="218.662,-773.07 208.931,-768.88 213.925,-778.224 218.662,-773.07"/>
<text text-anchor="middle" x="294.5" y="-790.8" font-family="Times,serif" font-size="14.00">(v2 &amp; 2) != 0</text>
</g>
<!-- Node0x151ab090 -->
<g id="node5" class="node"><title>Node0x151ab090</title>
<polygon fill="none" stroke="black" points="137,-519.5 137,-632.5 465,-632.5 465,-519.5 137,-519.5"/>
<text text-anchor="start" x="145" y="-617.3" font-family="Times,serif" font-size="14.00">0x1dcff470:</text>
<text text-anchor="start" x="145" y="-602.3" font-family="Times,serif" font-size="14.00"> v7 = g38</text>
<text text-anchor="start" x="145" y="-587.3" font-family="Times,serif" font-size="14.00"> v8 = *(IntToPtrCastExpr&lt;ptr&gt;((v7 + 32)))</text>
<text text-anchor="start" x="145" y="-572.3" font-family="Times,serif" font-size="14.00"> g30 = v8</text>
<text text-anchor="start" x="145" y="-557.3" font-family="Times,serif" font-size="14.00"> g6 = True</text>
<text text-anchor="start" x="145" y="-542.3" font-family="Times,serif" font-size="14.00"> g9 = (v8 == 0)</text>
<text text-anchor="start" x="145" y="-527.3" font-family="Times,serif" font-size="14.00"> v9</text>
</g>
<!-- Node0x151aa3d0&#45;&gt;Node0x151ab090 -->
<g id="edge4" class="edge"><title>Node0x151aa3d0&#45;&gt;Node0x151ab090</title>
<path fill="none" stroke="black" d="M328.066,-820.329C333.705,-815.129 338.879,-808.956 342,-802 344.729,-795.917 342.369,-793.656 342,-787 339.107,-734.76 339.474,-721.261 329,-670 327.166,-661.022 324.848,-651.665 322.336,-642.494"/>
<polygon fill="black" stroke="black" points="325.638,-641.311 319.546,-632.643 318.903,-643.218 325.638,-641.311"/>
<text text-anchor="middle" x="390.5" y="-715.8" font-family="Times,serif" font-size="14.00">(v2 &amp; 2) == 0</text>
</g>
<!-- Node0x27dae6c0&#45;&gt;Node0x151ab090 -->
<g id="edge5" class="edge"><title>Node0x27dae6c0&#45;&gt;Node0x151ab090</title>
<path fill="none" stroke="black" d="M208.13,-670.199C217.759,-660.536 228.01,-650.249 238.054,-640.169"/>
<polygon fill="black" stroke="black" points="240.74,-642.433 245.319,-632.879 235.781,-637.492 240.74,-642.433"/>
</g>
<!-- Node0x151a9df0 -->
<g id="node6" class="node"><title>Node0x151a9df0</title>
<polygon fill="none" stroke="black" points="249,-428.5 249,-481.5 353,-481.5 353,-428.5 249,-428.5"/>
<text text-anchor="start" x="257" y="-466.3" font-family="Times,serif" font-size="14.00">0x7de6d30:</text>
<text text-anchor="start" x="257" y="-451.3" font-family="Times,serif" font-size="14.00"> if (v8 != 0):</text>
<text text-anchor="start" x="257" y="-436.3" font-family="Times,serif" font-size="14.00"> else:</text>
</g>
<!-- Node0x151ab090&#45;&gt;Node0x151a9df0 -->
<g id="edge6" class="edge"><title>Node0x151ab090&#45;&gt;Node0x151a9df0</title>
<path fill="none" stroke="black" d="M301,-519.333C301,-509.958 301,-500.455 301,-491.761"/>
<polygon fill="black" stroke="black" points="304.5,-491.621 301,-481.621 297.5,-491.621 304.5,-491.621"/>
</g>
<!-- Node0x27db16c0 -->
<g id="node7" class="node"><title>Node0x27db16c0</title>
<polygon fill="none" stroke="black" points="48.5,-248.5 48.5,-376.5 395.5,-376.5 395.5,-248.5 48.5,-248.5"/>
<text text-anchor="start" x="56.5" y="-361.3" font-family="Times,serif" font-size="14.00">0x7de5ac0:</text>
<text text-anchor="start" x="56.5" y="-346.3" font-family="Times,serif" font-size="14.00"> g29 = *(IntToPtrCastExpr&lt;ptr&gt;(v7))</text>
<text text-anchor="start" x="56.5" y="-331.3" font-family="Times,serif" font-size="14.00"> v10 = g39</text>
<text text-anchor="start" x="56.5" y="-316.3" font-family="Times,serif" font-size="14.00"> g36 = v10</text>
<text text-anchor="start" x="56.5" y="-301.3" font-family="Times,serif" font-size="14.00"> g37 = v10</text>
<text text-anchor="start" x="56.5" y="-286.3" font-family="Times,serif" font-size="14.00"> function_10418()</text>
<text text-anchor="start" x="56.5" y="-271.3" font-family="Times,serif" font-size="14.00"> *(IntToPtrCastExpr&lt;ptr&gt;((g38 + 32))) = g39</text>
<text text-anchor="start" x="56.5" y="-256.3" font-family="Times,serif" font-size="14.00"> v9 = g38</text>
</g>
<!-- Node0x151a9df0&#45;&gt;Node0x27db16c0 -->
<g id="edge7" class="edge"><title>Node0x151a9df0&#45;&gt;Node0x27db16c0</title>
<path fill="none" stroke="black" d="M286.51,-428.23C279.696,-416.111 271.195,-400.992 262.623,-385.747"/>
<polygon fill="black" stroke="black" points="265.532,-383.78 257.58,-376.779 259.431,-387.211 265.532,-383.78"/>
<text text-anchor="middle" x="302" y="-398.8" font-family="Times,serif" font-size="14.00">v8 != 0</text>
</g>
<!-- Node0x27157730 -->
<g id="node8" class="node"><title>Node0x27157730</title>
<polygon fill="none" stroke="black" points="413,-293.5 413,-331.5 513,-331.5 513,-293.5 413,-293.5"/>
<text text-anchor="start" x="421" y="-316.3" font-family="Times,serif" font-size="14.00">0x7de6e30:</text>
<text text-anchor="start" x="421" y="-301.3" font-family="Times,serif" font-size="14.00"> v9 = v7</text>
</g>
<!-- Node0x151a9df0&#45;&gt;Node0x27157730 -->
<g id="edge8" class="edge"><title>Node0x151a9df0&#45;&gt;Node0x27157730</title>
<path fill="none" stroke="black" d="M338.489,-428.455C358.598,-414.148 383.408,-395.504 404,-377 417.038,-365.284 430.427,-351.083 441.147,-339.084"/>
<polygon fill="black" stroke="black" points="443.788,-341.381 447.776,-331.565 438.538,-336.751 443.788,-341.381"/>
<text text-anchor="middle" x="412" y="-398.8" font-family="Times,serif" font-size="14.00">v8 == 0</text>
</g>
<!-- Node0x151abfe0 -->
<g id="node9" class="node"><title>Node0x151abfe0</title>
<polygon fill="none" stroke="black" points="200,-97.5 200,-210.5 538,-210.5 538,-97.5 200,-97.5"/>
<text text-anchor="start" x="208" y="-195.3" font-family="Times,serif" font-size="14.00">0x7de7320:</text>
<text text-anchor="start" x="208" y="-180.3" font-family="Times,serif" font-size="14.00"> *(IntToPtrCastExpr&lt;ptr&gt;((v9 + 28))) = g39</text>
<text text-anchor="start" x="208" y="-165.3" font-family="Times,serif" font-size="14.00"> g38 = v3</text>
<text text-anchor="start" x="208" y="-150.3" font-family="Times,serif" font-size="14.00"> g39 = v4</text>
<text text-anchor="start" x="208" y="-135.3" font-family="Times,serif" font-size="14.00"> v11</text>
<text text-anchor="start" x="208" y="-120.3" font-family="Times,serif" font-size="14.00"> g34 = v11</text>
<text text-anchor="start" x="208" y="-105.3" font-family="Times,serif" font-size="14.00"> IntToPtrCastExpr&lt;ptr&gt;(g35)()</text>
</g>
<!-- Node0x27db16c0&#45;&gt;Node0x151abfe0 -->
<g id="edge9" class="edge"><title>Node0x27db16c0&#45;&gt;Node0x151abfe0</title>
<path fill="none" stroke="black" d="M281.367,-248.297C290.637,-238.427 300.22,-228.225 309.494,-218.352"/>
<polygon fill="black" stroke="black" points="312.22,-220.562 316.515,-210.877 307.117,-215.77 312.22,-220.562"/>
</g>
<!-- Node0x27157730&#45;&gt;Node0x151abfe0 -->
<g id="edge10" class="edge"><title>Node0x27157730&#45;&gt;Node0x151abfe0</title>
<path fill="none" stroke="black" d="M452.033,-293.241C441.108,-275.052 423.691,-246.055 407.624,-219.305"/>
<polygon fill="black" stroke="black" points="410.614,-217.485 402.465,-210.715 404.613,-221.09 410.614,-217.485"/>
</g>
<!-- Node0x151a76f0 -->
<g id="node10" class="node"><title>Node0x151a76f0</title>
<polygon fill="none" stroke="black" points="342,-23.5 342,-59.5 396,-59.5 396,-23.5 342,-23.5"/>
<text text-anchor="start" x="350" y="-37.8" font-family="Times,serif" font-size="14.00">exit:</text>
</g>
<!-- Node0x151abfe0&#45;&gt;Node0x151a76f0 -->
<g id="edge11" class="edge"><title>Node0x151abfe0&#45;&gt;Node0x151a76f0</title>
<path fill="none" stroke="black" d="M369,-97.4263C369,-87.8599 369,-78.3065 369,-69.9133"/>
<polygon fill="black" stroke="black" points="372.5,-69.6444 369,-59.6444 365.5,-69.6444 372.5,-69.6444"/>
</g>
</g>
</svg>
