<?xml version="1.0" encoding="UTF-8" standalone="no"?>
<!DOCTYPE svg PUBLIC "-//W3C//DTD SVG 1.1//EN"
 "http://www.w3.org/Graphics/SVG/1.1/DTD/svg11.dtd">
<!-- Generated by graphviz version 2.38.0 (20140413.2041)
 -->
<!-- Title: Control&#45;flow graph for function &#39;function_afe8()&#39;. Pages: 1 -->
<svg width="372pt" height="276pt"
 viewBox="0.00 0.00 372.00 276.00" xmlns="http://www.w3.org/2000/svg" xmlns:xlink="http://www.w3.org/1999/xlink">
<g id="graph0" class="graph" transform="scale(1 1) rotate(0) translate(4 272)">
<title>Control&#45;flow graph for function &#39;function_afe8()&#39;.</title>
<polygon fill="white" stroke="none" points="-4,4 -4,-272 368,-272 368,4 -4,4"/>
<text text-anchor="middle" x="182" y="-7.8" font-family="Times,serif" font-size="14.00">Control&#45;flow graph for function &#39;function_afe8()&#39;.</text>
<!-- Node0x3af13750 -->
<g id="node1" class="node"><title>Node0x3af13750</title>
<polygon fill="none" stroke="black" points="152.5,-231.5 152.5,-267.5 211.5,-267.5 211.5,-231.5 152.5,-231.5"/>
<text text-anchor="start" x="160.5" y="-245.8" font-family="Times,serif" font-size="14.00">entry:</text>
</g>
<!-- Node0x3af10f60 -->
<g id="node2" class="node"><title>Node0x3af10f60</title>
<polygon fill="none" stroke="black" points="13,-96.5 13,-194.5 351,-194.5 351,-96.5 13,-96.5"/>
<text text-anchor="start" x="21" y="-179.3" font-family="Times,serif" font-size="14.00">0x72d5570:</text>
<text text-anchor="start" x="21" y="-164.3" font-family="Times,serif" font-size="14.00"> g36 = (g30 + g36)</text>
<text text-anchor="start" x="21" y="-149.3" font-family="Times,serif" font-size="14.00"> g37 = 0</text>
<text text-anchor="start" x="21" y="-134.3" font-family="Times,serif" font-size="14.00"> *(IntToPtrCastExpr&lt;ptr&gt;(g29)) = g30</text>
<text text-anchor="start" x="21" y="-119.3" font-family="Times,serif" font-size="14.00"> *(IntToPtrCastExpr&lt;ptr&gt;((g29 + 4))) = g36</text>
<text text-anchor="start" x="21" y="-104.3" font-family="Times,serif" font-size="14.00"> *(IntToPtrCastExpr&lt;ptr&gt;((g29 + 8))) = g37</text>
</g>
<!-- Node0x3af13750&#45;&gt;Node0x3af10f60 -->
<g id="edge1" class="edge"><title>Node0x3af13750&#45;&gt;Node0x3af10f60</title>
<path fill="none" stroke="black" d="M182,-231.197C182,-223.688 182,-214.415 182,-204.789"/>
<polygon fill="black" stroke="black" points="185.5,-204.688 182,-194.688 178.5,-204.688 185.5,-204.688"/>
</g>
<!-- Node0x3af11960 -->
<g id="node3" class="node"><title>Node0x3af11960</title>
<polygon fill="none" stroke="black" points="155,-23.5 155,-59.5 209,-59.5 209,-23.5 155,-23.5"/>
<text text-anchor="start" x="163" y="-37.8" font-family="Times,serif" font-size="14.00">exit:</text>
</g>
<!-- Node0x3af10f60&#45;&gt;Node0x3af11960 -->
<g id="edge2" class="edge"><title>Node0x3af10f60&#45;&gt;Node0x3af11960</title>
<path fill="none" stroke="black" d="M182,-96.4868C182,-87.2893 182,-77.9618 182,-69.7064"/>
<polygon fill="black" stroke="black" points="185.5,-69.5725 182,-59.5725 178.5,-69.5725 185.5,-69.5725"/>
</g>
</g>
</svg>
