<?xml version="1.0" encoding="UTF-8" standalone="no"?>
<!DOCTYPE svg PUBLIC "-//W3C//DTD SVG 1.1//EN"
 "http://www.w3.org/Graphics/SVG/1.1/DTD/svg11.dtd">
<!-- Generated by graphviz version 2.38.0 (20140413.2041)
 -->
<!-- Title: Control&#45;flow graph for function &#39;function_24204()&#39;. Pages: 1 -->
<svg width="386pt" height="276pt"
 viewBox="0.00 0.00 386.00 276.00" xmlns="http://www.w3.org/2000/svg" xmlns:xlink="http://www.w3.org/1999/xlink">
<g id="graph0" class="graph" transform="scale(1 1) rotate(0) translate(4 272)">
<title>Control&#45;flow graph for function &#39;function_24204()&#39;.</title>
<polygon fill="white" stroke="none" points="-4,4 -4,-272 382,-272 382,4 -4,4"/>
<text text-anchor="middle" x="189" y="-7.8" font-family="Times,serif" font-size="14.00">Control&#45;flow graph for function &#39;function_24204()&#39;.</text>
<!-- Node0x2752a5c0 -->
<g id="node1" class="node"><title>Node0x2752a5c0</title>
<polygon fill="none" stroke="black" points="159.5,-231.5 159.5,-267.5 218.5,-267.5 218.5,-231.5 159.5,-231.5"/>
<text text-anchor="start" x="167.5" y="-245.8" font-family="Times,serif" font-size="14.00">entry:</text>
</g>
<!-- Node0x27529340 -->
<g id="node2" class="node"><title>Node0x27529340</title>
<polygon fill="none" stroke="black" points="117.5,-96.5 117.5,-194.5 260.5,-194.5 260.5,-96.5 117.5,-96.5"/>
<text text-anchor="start" x="125.5" y="-179.3" font-family="Times,serif" font-size="14.00">0xa5652c0:</text>
<text text-anchor="start" x="125.5" y="-164.3" font-family="Times,serif" font-size="14.00"> g29 = 24</text>
<text text-anchor="start" x="125.5" y="-149.3" font-family="Times,serif" font-size="14.00"> g30 = 8</text>
<text text-anchor="start" x="125.5" y="-134.3" font-family="Times,serif" font-size="14.00"> g7 = False</text>
<text text-anchor="start" x="125.5" y="-119.3" font-family="Times,serif" font-size="14.00"> g9 = False</text>
<text text-anchor="start" x="125.5" y="-104.3" font-family="Times,serif" font-size="14.00"> function_23e50()</text>
</g>
<!-- Node0x2752a5c0&#45;&gt;Node0x27529340 -->
<g id="edge1" class="edge"><title>Node0x2752a5c0&#45;&gt;Node0x27529340</title>
<path fill="none" stroke="black" d="M189,-231.197C189,-223.688 189,-214.415 189,-204.789"/>
<polygon fill="black" stroke="black" points="192.5,-204.688 189,-194.688 185.5,-204.688 192.5,-204.688"/>
</g>
<!-- Node0x2430f420 -->
<g id="node3" class="node"><title>Node0x2430f420</title>
<polygon fill="none" stroke="black" points="162,-23.5 162,-59.5 216,-59.5 216,-23.5 162,-23.5"/>
<text text-anchor="start" x="170" y="-37.8" font-family="Times,serif" font-size="14.00">exit:</text>
</g>
<!-- Node0x27529340&#45;&gt;Node0x2430f420 -->
<g id="edge2" class="edge"><title>Node0x27529340&#45;&gt;Node0x2430f420</title>
<path fill="none" stroke="black" d="M189,-96.4868C189,-87.2893 189,-77.9618 189,-69.7064"/>
<polygon fill="black" stroke="black" points="192.5,-69.5725 189,-59.5725 185.5,-69.5725 192.5,-69.5725"/>
</g>
</g>
</svg>
