<?xml version="1.0" encoding="UTF-8" standalone="no"?>
<!DOCTYPE svg PUBLIC "-//W3C//DTD SVG 1.1//EN"
 "http://www.w3.org/Graphics/SVG/1.1/DTD/svg11.dtd">
<!-- Generated by graphviz version 2.38.0 (20140413.2041)
 -->
<!-- Title: Control&#45;flow graph for function &#39;function_aa18()&#39;. Pages: 1 -->
<svg width="1089pt" height="1030pt"
 viewBox="0.00 0.00 1089.00 1030.00" xmlns="http://www.w3.org/2000/svg" xmlns:xlink="http://www.w3.org/1999/xlink">
<g id="graph0" class="graph" transform="scale(1 1) rotate(0) translate(4 1026)">
<title>Control&#45;flow graph for function &#39;function_aa18()&#39;.</title>
<polygon fill="white" stroke="none" points="-4,4 -4,-1026 1085,-1026 1085,4 -4,4"/>
<text text-anchor="middle" x="540.5" y="-7.8" font-family="Times,serif" font-size="14.00">Control&#45;flow graph for function &#39;function_aa18()&#39;.</text>
<!-- Node0x34d05fd0 -->
<g id="node1" class="node"><title>Node0x34d05fd0</title>
<polygon fill="none" stroke="black" points="511,-985.5 511,-1021.5 570,-1021.5 570,-985.5 511,-985.5"/>
<text text-anchor="start" x="519" y="-999.8" font-family="Times,serif" font-size="14.00">entry:</text>
</g>
<!-- Node0x2e121be0 -->
<g id="node2" class="node"><title>Node0x2e121be0</title>
<polygon fill="none" stroke="black" points="0,-564.5 0,-947.5 1081,-947.5 1081,-564.5 0,-564.5"/>
<text text-anchor="start" x="8" y="-932.3" font-family="Times,serif" font-size="14.00">0x457bbe10:</text>
<text text-anchor="start" x="8" y="-917.3" font-family="Times,serif" font-size="14.00"> v1 = g38</text>
<text text-anchor="start" x="8" y="-902.3" font-family="Times,serif" font-size="14.00"> v2 = g39</text>
<text text-anchor="start" x="8" y="-887.3" font-family="Times,serif" font-size="14.00"> v3 = g43</text>
<text text-anchor="start" x="8" y="-872.3" font-family="Times,serif" font-size="14.00"> g43 = g30</text>
<text text-anchor="start" x="8" y="-857.3" font-family="Times,serif" font-size="14.00"> g30 = 16</text>
<text text-anchor="start" x="8" y="-842.3" font-family="Times,serif" font-size="14.00"> g38 = 121392</text>
<text text-anchor="start" x="8" y="-827.3" font-family="Times,serif" font-size="14.00"> function_8738()</text>
<text text-anchor="start" x="8" y="-812.3" font-family="Times,serif" font-size="14.00"> v4 = g38</text>
<text text-anchor="start" x="8" y="-797.3" font-family="Times,serif" font-size="14.00"> g38 = (v4 + 43620)</text>
<text text-anchor="start" x="8" y="-782.3" font-family="Times,serif" font-size="14.00"> g36 = 4</text>
<text text-anchor="start" x="8" y="-767.3" font-family="Times,serif" font-size="14.00"> g37 = (v4 + 34112)</text>
<text text-anchor="start" x="8" y="-752.3" font-family="Times,serif" font-size="14.00"> g39 = 21</text>
<text text-anchor="start" x="8" y="-737.3" font-family="Times,serif" font-size="14.00"> v5</text>
<text text-anchor="start" x="8" y="-722.3" font-family="Times,serif" font-size="14.00"> v6 = IntToPtrCastExpr&lt;ptr&gt;((v5 + PtrToIntCastExpr&lt;int32&gt;(&quot;0123456789abcdefghijklmnopqrstuvwxyzABCDEFGHIJKLMNOPQRSTUVWXYZ&quot;)))</text>
<text text-anchor="start" x="8" y="-707.3" font-family="Times,serif" font-size="14.00"> function_8218()</text>
<text text-anchor="start" x="8" y="-692.3" font-family="Times,serif" font-size="14.00"> v7 = *(v6)</text>
<text text-anchor="start" x="8" y="-677.3" font-family="Times,serif" font-size="14.00"> g37 = v7</text>
<text text-anchor="start" x="8" y="-662.3" font-family="Times,serif" font-size="14.00"> g36 = 5</text>
<text text-anchor="start" x="8" y="-647.3" font-family="Times,serif" font-size="14.00"> *(IntToPtrCastExpr&lt;ptr&gt;((g43 + g39))) = v7</text>
<text text-anchor="start" x="8" y="-632.3" font-family="Times,serif" font-size="14.00"> g39 = (g39 &#45; 1)</text>
<text text-anchor="start" x="8" y="-617.3" font-family="Times,serif" font-size="14.00"> v8</text>
<text text-anchor="start" x="8" y="-602.3" font-family="Times,serif" font-size="14.00"> memcpy(BitCastExpr&lt;ptr&gt;(&amp;(v8)), g28, (4 * g36))</text>
<text text-anchor="start" x="8" y="-587.3" font-family="Times,serif" font-size="14.00"> v9 = g39</text>
<text text-anchor="start" x="8" y="-572.3" font-family="Times,serif" font-size="14.00"> g9 = (v9 == &#45;1)</text>
</g>
<!-- Node0x34d05fd0&#45;&gt;Node0x2e121be0 -->
<g id="edge1" class="edge"><title>Node0x34d05fd0&#45;&gt;Node0x2e121be0</title>
<path fill="none" stroke="black" d="M540.5,-985.237C540.5,-977.883 540.5,-968.513 540.5,-957.784"/>
<polygon fill="black" stroke="black" points="544,-957.567 540.5,-947.567 537,-957.567 544,-957.567"/>
</g>
<!-- Node0x31494eb0 -->
<g id="node3" class="node"><title>Node0x31494eb0</title>
<polygon fill="none" stroke="black" points="472,-488.5 472,-526.5 609,-526.5 609,-488.5 472,-488.5"/>
<text text-anchor="start" x="480" y="-511.3" font-family="Times,serif" font-size="14.00">0x7261260:</text>
<text text-anchor="start" x="480" y="-496.3" font-family="Times,serif" font-size="14.00"> while (v9 != &#45;1):</text>
</g>
<!-- Node0x2e121be0&#45;&gt;Node0x31494eb0 -->
<g id="edge2" class="edge"><title>Node0x2e121be0&#45;&gt;Node0x31494eb0</title>
<path fill="none" stroke="black" d="M540.5,-564.435C540.5,-554.148 540.5,-544.764 540.5,-536.743"/>
<polygon fill="black" stroke="black" points="544,-536.694 540.5,-526.695 537,-536.695 544,-536.694"/>
</g>
<!-- Node0x3c9ef720 -->
<g id="node4" class="node"><title>Node0x3c9ef720</title>
<polygon fill="none" stroke="black" points="274.5,-271 274.5,-429 660.5,-429 660.5,-271 274.5,-271"/>
<text text-anchor="start" x="282.5" y="-413.8" font-family="Times,serif" font-size="14.00">0x43f5c1c0:</text>
<text text-anchor="start" x="282.5" y="-398.8" font-family="Times,serif" font-size="14.00"> function_8218()</text>
<text text-anchor="start" x="282.5" y="-383.8" font-family="Times,serif" font-size="14.00"> v7 = *(v6)</text>
<text text-anchor="start" x="282.5" y="-368.8" font-family="Times,serif" font-size="14.00"> g37 = v7</text>
<text text-anchor="start" x="282.5" y="-353.8" font-family="Times,serif" font-size="14.00"> g36 = 5</text>
<text text-anchor="start" x="282.5" y="-338.8" font-family="Times,serif" font-size="14.00"> *(IntToPtrCastExpr&lt;ptr&gt;((g43 + g39))) = v7</text>
<text text-anchor="start" x="282.5" y="-323.8" font-family="Times,serif" font-size="14.00"> g39 = (g39 &#45; 1)</text>
<text text-anchor="start" x="282.5" y="-308.8" font-family="Times,serif" font-size="14.00"> memcpy(BitCastExpr&lt;ptr&gt;(&amp;(v8)), g28, (4 * g36))</text>
<text text-anchor="start" x="282.5" y="-293.8" font-family="Times,serif" font-size="14.00"> v9 = g39</text>
<text text-anchor="start" x="282.5" y="-278.8" font-family="Times,serif" font-size="14.00"> g9 = (v9 == &#45;1)</text>
</g>
<!-- Node0x31494eb0&#45;&gt;Node0x3c9ef720 -->
<g id="edge3" class="edge"><title>Node0x31494eb0&#45;&gt;Node0x3c9ef720</title>
<path fill="none" stroke="black" d="M487.368,-488.339C479.876,-483.525 473.152,-477.504 468.5,-470 462.707,-460.657 459.279,-450.056 457.483,-439.125"/>
<polygon fill="black" stroke="black" points="460.937,-438.531 456.272,-429.019 453.987,-439.365 460.937,-438.531"/>
<text text-anchor="middle" x="497.5" y="-458.8" font-family="Times,serif" font-size="14.00">v9 != &#45;1</text>
</g>
<!-- Node0x17667dc0 -->
<g id="node5" class="node"><title>Node0x17667dc0</title>
<polygon fill="none" stroke="black" points="679,-263.5 679,-436.5 1008,-436.5 1008,-263.5 679,-263.5"/>
<text text-anchor="start" x="687" y="-421.3" font-family="Times,serif" font-size="14.00">0x725e240:</text>
<text text-anchor="start" x="687" y="-406.3" font-family="Times,serif" font-size="14.00"> g37 = 0</text>
<text text-anchor="start" x="687" y="-391.3" font-family="Times,serif" font-size="14.00"> g29 = 1</text>
<text text-anchor="start" x="687" y="-376.3" font-family="Times,serif" font-size="14.00"> *(IntToPtrCastExpr&lt;ptr&gt;((g43 + 22))) = 0</text>
<text text-anchor="start" x="687" y="-361.3" font-family="Times,serif" font-size="14.00"> g38 = v1</text>
<text text-anchor="start" x="687" y="-346.3" font-family="Times,serif" font-size="14.00"> g39 = v2</text>
<text text-anchor="start" x="687" y="-331.3" font-family="Times,serif" font-size="14.00"> g43 = v3</text>
<text text-anchor="start" x="687" y="-316.3" font-family="Times,serif" font-size="14.00"> v10</text>
<text text-anchor="start" x="687" y="-301.3" font-family="Times,serif" font-size="14.00"> g34 = v10</text>
<text text-anchor="start" x="687" y="-286.3" font-family="Times,serif" font-size="14.00"> IntToPtrCastExpr&lt;ptr&gt;(g35)()</text>
<text text-anchor="start" x="687" y="-271.3" font-family="Times,serif" font-size="14.00"> v11 = (g31 % 256)</text>
</g>
<!-- Node0x31494eb0&#45;&gt;Node0x17667dc0 -->
<g id="edge4" class="edge"><title>Node0x31494eb0&#45;&gt;Node0x17667dc0</title>
<path fill="none" stroke="black" d="M575.851,-488.358C600.028,-475.95 634.069,-458.48 669.793,-440.146"/>
<polygon fill="black" stroke="black" points="671.608,-443.149 678.907,-435.469 668.412,-436.921 671.608,-443.149"/>
<text text-anchor="middle" x="670.5" y="-458.8" font-family="Times,serif" font-size="14.00">v9 == &#45;1</text>
</g>
<!-- Node0x3c9ef720&#45;&gt;Node0x31494eb0 -->
<g id="edge5" class="edge"><title>Node0x3c9ef720&#45;&gt;Node0x31494eb0</title>
<path fill="none" stroke="black" d="M514.567,-429.175C518.904,-437.744 522.982,-446.459 526.5,-455 529.592,-462.506 532.207,-470.906 534.31,-478.709"/>
<polygon fill="black" stroke="black" points="530.939,-479.656 536.776,-488.497 537.727,-477.945 530.939,-479.656"/>
</g>
<!-- Node0x4759c480 -->
<g id="node6" class="node"><title>Node0x4759c480</title>
<polygon fill="none" stroke="black" points="793,-187.5 793,-225.5 894,-225.5 894,-187.5 793,-187.5"/>
<text text-anchor="start" x="801" y="-210.3" font-family="Times,serif" font-size="14.00">0x7260da0:</text>
<text text-anchor="start" x="801" y="-195.3" font-family="Times,serif" font-size="14.00"> if g9:</text>
</g>
<!-- Node0x17667dc0&#45;&gt;Node0x4759c480 -->
<g id="edge6" class="edge"><title>Node0x17667dc0&#45;&gt;Node0x4759c480</title>
<path fill="none" stroke="black" d="M843.5,-263.425C843.5,-253.55 843.5,-244.079 843.5,-235.829"/>
<polygon fill="black" stroke="black" points="847,-235.754 843.5,-225.754 840,-235.754 847,-235.754"/>
</g>
<!-- Node0x38e6c880 -->
<g id="node7" class="node"><title>Node0x38e6c880</title>
<polygon fill="none" stroke="black" points="479.5,-97.5 479.5,-135.5 865.5,-135.5 865.5,-97.5 479.5,-97.5"/>
<text text-anchor="start" x="487.5" y="-120.3" font-family="Times,serif" font-size="14.00">0x7260b50:</text>
<text text-anchor="start" x="487.5" y="-105.3" font-family="Times,serif" font-size="14.00"> g34 = (g30 &amp; (g29 &gt;&gt; (32 if (v11 &gt; 32) else v11)))</text>
</g>
<!-- Node0x4759c480&#45;&gt;Node0x38e6c880 -->
<g id="edge7" class="edge"><title>Node0x4759c480&#45;&gt;Node0x38e6c880</title>
<path fill="none" stroke="black" d="M808.483,-187.48C781.944,-173.822 745.295,-154.962 716.731,-140.262"/>
<polygon fill="black" stroke="black" points="718.257,-137.111 707.764,-135.647 715.054,-143.335 718.257,-137.111"/>
<text text-anchor="middle" x="777" y="-157.8" font-family="Times,serif" font-size="14.00">g9</text>
</g>
<!-- Node0x2489a350 -->
<g id="node8" class="node"><title>Node0x2489a350</title>
<polygon fill="none" stroke="black" points="810.5,-23.5 810.5,-59.5 864.5,-59.5 864.5,-23.5 810.5,-23.5"/>
<text text-anchor="start" x="818.5" y="-37.8" font-family="Times,serif" font-size="14.00">exit:</text>
</g>
<!-- Node0x4759c480&#45;&gt;Node0x2489a350 -->
<g id="edge8" class="edge"><title>Node0x4759c480&#45;&gt;Node0x2489a350</title>
<path fill="none" stroke="black" d="M855.178,-187.389C867.602,-165.795 884.228,-128.647 874.5,-97 871.325,-86.6697 865.452,-76.5396 859.306,-67.8696"/>
<polygon fill="black" stroke="black" points="861.979,-65.6019 853.158,-59.733 856.394,-69.8217 861.979,-65.6019"/>
<text text-anchor="middle" x="905" y="-112.8" font-family="Times,serif" font-size="14.00">not (g9)</text>
</g>
<!-- Node0x38e6c880&#45;&gt;Node0x2489a350 -->
<g id="edge9" class="edge"><title>Node0x38e6c880&#45;&gt;Node0x2489a350</title>
<path fill="none" stroke="black" d="M713.287,-97.4551C740.027,-85.6245 774.701,-70.2836 800.617,-58.8179"/>
<polygon fill="black" stroke="black" points="802.357,-61.8755 810.086,-54.6287 799.525,-55.474 802.357,-61.8755"/>
</g>
</g>
</svg>
