<?xml version="1.0" encoding="UTF-8" standalone="no"?>
<!DOCTYPE svg PUBLIC "-//W3C//DTD SVG 1.1//EN"
 "http://www.w3.org/Graphics/SVG/1.1/DTD/svg11.dtd">
<!-- Generated by graphviz version 2.38.0 (20140413.2041)
 -->
<!-- Title: Control&#45;flow graph for function &#39;function_8f84()&#39;. Pages: 1 -->
<svg width="854pt" height="1987pt"
 viewBox="0.00 0.00 854.00 1987.00" xmlns="http://www.w3.org/2000/svg" xmlns:xlink="http://www.w3.org/1999/xlink">
<g id="graph0" class="graph" transform="scale(1 1) rotate(0) translate(4 1983)">
<title>Control&#45;flow graph for function &#39;function_8f84()&#39;.</title>
<polygon fill="white" stroke="none" points="-4,4 -4,-1983 850,-1983 850,4 -4,4"/>
<text text-anchor="middle" x="423" y="-7.8" font-family="Times,serif" font-size="14.00">Control&#45;flow graph for function &#39;function_8f84()&#39;.</text>
<!-- Node0x30e5c1a0 -->
<g id="node1" class="node"><title>Node0x30e5c1a0</title>
<polygon fill="none" stroke="black" points="361,-1942.5 361,-1978.5 420,-1978.5 420,-1942.5 361,-1942.5"/>
<text text-anchor="start" x="369" y="-1956.8" font-family="Times,serif" font-size="14.00">entry:</text>
</g>
<!-- Node0x30e5cf00 -->
<g id="node2" class="node"><title>Node0x30e5cf00</title>
<polygon fill="none" stroke="black" points="144.5,-1701.5 144.5,-1904.5 636.5,-1904.5 636.5,-1701.5 144.5,-1701.5"/>
<text text-anchor="start" x="152.5" y="-1889.3" font-family="Times,serif" font-size="14.00">0x469ef9b0:</text>
<text text-anchor="start" x="152.5" y="-1874.3" font-family="Times,serif" font-size="14.00"> v1 = g29</text>
<text text-anchor="start" x="152.5" y="-1859.3" font-family="Times,serif" font-size="14.00"> v2 = ExtCastExpr&lt;int32&gt;(*(IntToPtrCastExpr&lt;ptr&gt;((v1 + 16))))</text>
<text text-anchor="start" x="152.5" y="-1844.3" font-family="Times,serif" font-size="14.00"> g33 = v1</text>
<text text-anchor="start" x="152.5" y="-1829.3" font-family="Times,serif" font-size="14.00"> v3 = ((256 * v2) + *(IntToPtrCastExpr&lt;ptr&gt;((v1 + 8))))</text>
<text text-anchor="start" x="152.5" y="-1814.3" font-family="Times,serif" font-size="14.00"> g36 = v3</text>
<text text-anchor="start" x="152.5" y="-1799.3" font-family="Times,serif" font-size="14.00"> g29 = 0</text>
<text text-anchor="start" x="152.5" y="-1784.3" font-family="Times,serif" font-size="14.00"> v4 = *(IntToPtrCastExpr&lt;ptr&gt;((v1 + 18)))</text>
<text text-anchor="start" x="152.5" y="-1769.3" font-family="Times,serif" font-size="14.00"> v5 = v4</text>
<text text-anchor="start" x="152.5" y="-1754.3" font-family="Times,serif" font-size="14.00"> g30 = 1</text>
<text text-anchor="start" x="152.5" y="-1739.3" font-family="Times,serif" font-size="14.00"> v6</text>
<text text-anchor="start" x="152.5" y="-1724.3" font-family="Times,serif" font-size="14.00"> v7</text>
<text text-anchor="start" x="152.5" y="-1709.3" font-family="Times,serif" font-size="14.00"> v8</text>
</g>
<!-- Node0x30e5c1a0&#45;&gt;Node0x30e5cf00 -->
<g id="edge1" class="edge"><title>Node0x30e5c1a0&#45;&gt;Node0x30e5cf00</title>
<path fill="none" stroke="black" d="M390.5,-1942.26C390.5,-1934.77 390.5,-1925.32 390.5,-1914.89"/>
<polygon fill="black" stroke="black" points="394,-1914.62 390.5,-1904.62 387,-1914.62 394,-1914.62"/>
</g>
<!-- Node0x174430e0 -->
<g id="node3" class="node"><title>Node0x174430e0</title>
<polygon fill="none" stroke="black" points="335.5,-1625.5 335.5,-1663.5 445.5,-1663.5 445.5,-1625.5 335.5,-1625.5"/>
<text text-anchor="start" x="343.5" y="-1648.3" font-family="Times,serif" font-size="14.00">0x6ce8ad0:</text>
<text text-anchor="start" x="343.5" y="-1633.3" font-family="Times,serif" font-size="14.00"> if (v4 == 0):</text>
</g>
<!-- Node0x30e5cf00&#45;&gt;Node0x174430e0 -->
<g id="edge2" class="edge"><title>Node0x30e5cf00&#45;&gt;Node0x174430e0</title>
<path fill="none" stroke="black" d="M390.5,-1701.12C390.5,-1691.36 390.5,-1682.11 390.5,-1674.06"/>
<polygon fill="black" stroke="black" points="394,-1673.89 390.5,-1663.89 387,-1673.89 394,-1673.89"/>
</g>
<!-- Node0x384502c0 -->
<g id="node4" class="node"><title>Node0x384502c0</title>
<polygon fill="none" stroke="black" points="0,-1178.5 0,-1471.5 551,-1471.5 551,-1178.5 0,-1178.5"/>
<text text-anchor="start" x="8" y="-1456.3" font-family="Times,serif" font-size="14.00">0x6ce2530:</text>
<text text-anchor="start" x="8" y="-1441.3" font-family="Times,serif" font-size="14.00"> v7 = &#45;(v5)</text>
<text text-anchor="start" x="8" y="-1426.3" font-family="Times,serif" font-size="14.00"> v6 = 0</text>
<text text-anchor="start" x="8" y="-1411.3" font-family="Times,serif" font-size="14.00"> g6 = (v6 &gt;= v5)</text>
<text text-anchor="start" x="8" y="-1396.3" font-family="Times,serif" font-size="14.00"> g8 = ((v6 &amp; &#45;(v7)) &lt; 0)</text>
<text text-anchor="start" x="8" y="-1381.3" font-family="Times,serif" font-size="14.00"> g7 = (v7 &lt; 0)</text>
<text text-anchor="start" x="8" y="-1366.3" font-family="Times,serif" font-size="14.00"> g9 = (v6 == v5)</text>
<text text-anchor="start" x="8" y="-1351.3" font-family="Times,serif" font-size="14.00"> v8 = ExtCastExpr&lt;int32&gt;(*(IntToPtrCastExpr&lt;ptr&gt;((v1 + 54))))</text>
<text text-anchor="start" x="8" y="-1336.3" font-family="Times,serif" font-size="14.00"> g29 = v8</text>
<text text-anchor="start" x="8" y="-1321.3" font-family="Times,serif" font-size="14.00"> g30 = 1</text>
<text text-anchor="start" x="8" y="-1306.3" font-family="Times,serif" font-size="14.00"> g36 = 0</text>
<text text-anchor="start" x="8" y="-1291.3" font-family="Times,serif" font-size="14.00"> g37 = (ExtCastExpr&lt;int32&gt;(*(IntToPtrCastExpr&lt;ptr&gt;((v1 + 12)))) + v8)</text>
<text text-anchor="start" x="8" y="-1276.3" font-family="Times,serif" font-size="14.00"> *(IntToPtrCastExpr&lt;ptr&gt;((v1 + 32))) = 0</text>
<text text-anchor="start" x="8" y="-1261.3" font-family="Times,serif" font-size="14.00"> *(IntToPtrCastExpr&lt;ptr&gt;((g33 + 37))) = TruncCastExpr&lt;int8&gt;(g30)</text>
<text text-anchor="start" x="8" y="-1246.3" font-family="Times,serif" font-size="14.00"> *(IntToPtrCastExpr&lt;ptr&gt;((g33 + 24))) = g37</text>
<text text-anchor="start" x="8" y="-1231.3" font-family="Times,serif" font-size="14.00"> *(IntToPtrCastExpr&lt;ptr&gt;((g33 + 36))) = TruncCastExpr&lt;int8&gt;(g30)</text>
<text text-anchor="start" x="8" y="-1216.3" font-family="Times,serif" font-size="14.00"> *(IntToPtrCastExpr&lt;ptr&gt;((g33 + 16))) = TruncCastExpr&lt;int16&gt;(g36)</text>
<text text-anchor="start" x="8" y="-1201.3" font-family="Times,serif" font-size="14.00"> *(IntToPtrCastExpr&lt;ptr&gt;((g33 + 18))) = TruncCastExpr&lt;int16&gt;(g29)</text>
<text text-anchor="start" x="8" y="-1186.3" font-family="Times,serif" font-size="14.00"> return</text>
</g>
<!-- Node0x174430e0&#45;&gt;Node0x384502c0 -->
<g id="edge3" class="edge"><title>Node0x174430e0&#45;&gt;Node0x384502c0</title>
<path fill="none" stroke="black" d="M383.82,-1625.06C373.444,-1596.41 352.482,-1538.54 331.739,-1481.27"/>
<polygon fill="black" stroke="black" points="334.975,-1479.92 328.278,-1471.71 328.393,-1482.31 334.975,-1479.92"/>
<text text-anchor="middle" x="407.5" y="-1595.8" font-family="Times,serif" font-size="14.00">v4 == 0</text>
</g>
<!-- Node0x17442ac0 -->
<g id="node5" class="node"><title>Node0x17442ac0</title>
<polygon fill="none" stroke="black" points="565.5,-1490.5 565.5,-1573.5 663.5,-1573.5 663.5,-1490.5 565.5,-1490.5"/>
<text text-anchor="start" x="573.5" y="-1558.3" font-family="Times,serif" font-size="14.00">0xf368b70:</text>
<text text-anchor="start" x="573.5" y="-1543.3" font-family="Times,serif" font-size="14.00"> v9 = 1</text>
<text text-anchor="start" x="573.5" y="-1528.3" font-family="Times,serif" font-size="14.00"> v10</text>
<text text-anchor="start" x="573.5" y="-1513.3" font-family="Times,serif" font-size="14.00"> v11</text>
<text text-anchor="start" x="573.5" y="-1498.3" font-family="Times,serif" font-size="14.00"> v12</text>
</g>
<!-- Node0x174430e0&#45;&gt;Node0x17442ac0 -->
<g id="edge4" class="edge"><title>Node0x174430e0&#45;&gt;Node0x17442ac0</title>
<path fill="none" stroke="black" d="M427.489,-1625.25C462.493,-1607.99 515.589,-1581.79 556.273,-1561.72"/>
<polygon fill="black" stroke="black" points="557.858,-1564.84 565.277,-1557.28 554.761,-1558.57 557.858,-1564.84"/>
<text text-anchor="middle" x="516.5" y="-1595.8" font-family="Times,serif" font-size="14.00">v4 != 0</text>
</g>
<!-- Node0x30e5be20 -->
<g id="node6" class="node"><title>Node0x30e5be20</title>
<polygon fill="none" stroke="black" points="321.5,-23.5 321.5,-59.5 375.5,-59.5 375.5,-23.5 321.5,-23.5"/>
<text text-anchor="start" x="329.5" y="-37.8" font-family="Times,serif" font-size="14.00">exit:</text>
</g>
<!-- Node0x384502c0&#45;&gt;Node0x30e5be20 -->
<g id="edge5" class="edge"><title>Node0x384502c0&#45;&gt;Node0x30e5be20</title>
<path fill="none" stroke="black" d="M268.027,-1178.4C267.116,-1151.19 266.5,-1122.98 266.5,-1096.5 266.5,-1096.5 266.5,-1096.5 266.5,-250.5 266.5,-181.757 253.125,-157.642 285.5,-97 292.067,-84.6986 302.625,-73.9323 313.235,-65.2897"/>
<polygon fill="black" stroke="black" points="315.492,-67.9695 321.294,-59.1044 311.23,-62.4165 315.492,-67.9695"/>
</g>
<!-- Node0x17443460 -->
<g id="node7" class="node"><title>Node0x17443460</title>
<polygon fill="none" stroke="black" points="574,-1121.5 574,-1159.5 675,-1159.5 675,-1121.5 574,-1121.5"/>
<text text-anchor="start" x="582" y="-1144.3" font-family="Times,serif" font-size="14.00">0x6cf2920:</text>
<text text-anchor="start" x="582" y="-1129.3" font-family="Times,serif" font-size="14.00"> while True:</text>
</g>
<!-- Node0x17442ac0&#45;&gt;Node0x17443460 -->
<g id="edge6" class="edge"><title>Node0x17442ac0&#45;&gt;Node0x17443460</title>
<path fill="none" stroke="black" d="M615.542,-1490.42C617.574,-1411.26 622.022,-1238.04 623.772,-1169.87"/>
<polygon fill="black" stroke="black" points="627.271,-1169.95 624.029,-1159.86 620.273,-1169.77 627.271,-1169.95"/>
</g>
<!-- Node0x21fcd910 -->
<g id="node8" class="node"><title>Node0x21fcd910</title>
<polygon fill="none" stroke="black" points="469.5,-986.5 469.5,-1069.5 779.5,-1069.5 779.5,-986.5 469.5,-986.5"/>
<text text-anchor="start" x="477.5" y="-1054.3" font-family="Times,serif" font-size="14.00">0x20923780:</text>
<text text-anchor="start" x="477.5" y="-1039.3" font-family="Times,serif" font-size="14.00"> v13 = IntToPtrCastExpr&lt;ptr&gt;((v3 + 8))</text>
<text text-anchor="start" x="477.5" y="-1024.3" font-family="Times,serif" font-size="14.00"> v11 = v9</text>
<text text-anchor="start" x="477.5" y="-1009.3" font-family="Times,serif" font-size="14.00"> v10 = v1</text>
<text text-anchor="start" x="477.5" y="-994.3" font-family="Times,serif" font-size="14.00"> v14 = v3</text>
</g>
<!-- Node0x17443460&#45;&gt;Node0x21fcd910 -->
<g id="edge7" class="edge"><title>Node0x17443460&#45;&gt;Node0x21fcd910</title>
<path fill="none" stroke="black" d="M624.5,-1121.25C624.5,-1109.9 624.5,-1094.68 624.5,-1079.89"/>
<polygon fill="black" stroke="black" points="628,-1079.76 624.5,-1069.76 621,-1079.76 628,-1079.76"/>
<text text-anchor="middle" x="641.5" y="-1091.8" font-family="Times,serif" font-size="14.00">True</text>
</g>
<!-- Node0x21fd0da0 -->
<g id="node9" class="node"><title>Node0x21fd0da0</title>
<polygon fill="none" stroke="black" points="534,-910.5 534,-948.5 715,-948.5 715,-910.5 534,-910.5"/>
<text text-anchor="start" x="542" y="-933.3" font-family="Times,serif" font-size="14.00">0x6ceb8d0:</text>
<text text-anchor="start" x="542" y="-918.3" font-family="Times,serif" font-size="14.00"> if ((*(v13) &amp; 32) != 0):</text>
</g>
<!-- Node0x21fcd910&#45;&gt;Node0x21fd0da0 -->
<g id="edge8" class="edge"><title>Node0x21fcd910&#45;&gt;Node0x21fd0da0</title>
<path fill="none" stroke="black" d="M624.5,-986.355C624.5,-977.083 624.5,-967.427 624.5,-958.803"/>
<polygon fill="black" stroke="black" points="628,-958.538 624.5,-948.538 621,-958.538 628,-958.538"/>
</g>
<!-- Node0x17443e30 -->
<g id="node10" class="node"><title>Node0x17443e30</title>
<polygon fill="none" stroke="black" points="471,-775.5 471,-858.5 584,-858.5 584,-775.5 471,-775.5"/>
<text text-anchor="start" x="479" y="-843.3" font-family="Times,serif" font-size="14.00">0x6ceaba0:</text>
<text text-anchor="start" x="479" y="-828.3" font-family="Times,serif" font-size="14.00"> *(v13) = g29</text>
<text text-anchor="start" x="479" y="-813.3" font-family="Times,serif" font-size="14.00"> v11 = g30</text>
<text text-anchor="start" x="479" y="-798.3" font-family="Times,serif" font-size="14.00"> v10 = g33</text>
<text text-anchor="start" x="479" y="-783.3" font-family="Times,serif" font-size="14.00"> v14 = g36</text>
</g>
<!-- Node0x21fd0da0&#45;&gt;Node0x17443e30 -->
<g id="edge9" class="edge"><title>Node0x21fd0da0&#45;&gt;Node0x17443e30</title>
<path fill="none" stroke="black" d="M533.822,-913.162C512.558,-907.664 494.137,-900.636 487.5,-892 481.81,-884.596 481.458,-876.275 484.132,-867.956"/>
<polygon fill="black" stroke="black" points="487.422,-869.171 488.313,-858.613 481.033,-866.311 487.422,-869.171"/>
<text text-anchor="middle" x="553" y="-880.8" font-family="Times,serif" font-size="14.00">(*(v13) &amp; 32) != 0</text>
</g>
<!-- Node0x30e5b050 -->
<g id="node11" class="node"><title>Node0x30e5b050</title>
<polygon fill="none" stroke="black" points="294.5,-639.5 294.5,-737.5 804.5,-737.5 804.5,-639.5 294.5,-639.5"/>
<text text-anchor="start" x="302.5" y="-722.3" font-family="Times,serif" font-size="14.00">0x161a2a50:</text>
<text text-anchor="start" x="302.5" y="-707.3" font-family="Times,serif" font-size="14.00"> v15 = (v14 + 256)</text>
<text text-anchor="start" x="302.5" y="-692.3" font-family="Times,serif" font-size="14.00"> g36 = v15</text>
<text text-anchor="start" x="302.5" y="-677.3" font-family="Times,serif" font-size="14.00"> v12 = ExtCastExpr&lt;int32&gt;(*(IntToPtrCastExpr&lt;ptr&gt;((v10 + 18))))</text>
<text text-anchor="start" x="302.5" y="-662.3" font-family="Times,serif" font-size="14.00"> v16 = (v11 + 1)</text>
<text text-anchor="start" x="302.5" y="-647.3" font-family="Times,serif" font-size="14.00"> g30 = v16</text>
</g>
<!-- Node0x21fd0da0&#45;&gt;Node0x30e5b050 -->
<g id="edge10" class="edge"><title>Node0x21fd0da0&#45;&gt;Node0x30e5b050</title>
<path fill="none" stroke="black" d="M622.978,-910.298C622,-900.402 620.529,-887.976 618.5,-877 609.996,-830.996 608.883,-818.82 592.5,-775 589.009,-765.662 584.792,-756.005 580.382,-746.691"/>
<polygon fill="black" stroke="black" points="583.443,-744.982 575.926,-737.515 577.146,-748.04 583.443,-744.982"/>
<text text-anchor="middle" x="683" y="-813.3" font-family="Times,serif" font-size="14.00">(*(v13) &amp; 32) == 0</text>
</g>
<!-- Node0x17443e30&#45;&gt;Node0x30e5b050 -->
<g id="edge11" class="edge"><title>Node0x17443e30&#45;&gt;Node0x30e5b050</title>
<path fill="none" stroke="black" d="M534.582,-775.278C536.113,-766.473 537.761,-756.999 539.383,-747.672"/>
<polygon fill="black" stroke="black" points="542.861,-748.1 541.126,-737.648 535.965,-746.901 542.861,-748.1"/>
</g>
<!-- Node0x174446d0 -->
<g id="node12" class="node"><title>Node0x174446d0</title>
<polygon fill="none" stroke="black" points="502.5,-563.5 502.5,-601.5 638.5,-601.5 638.5,-563.5 502.5,-563.5"/>
<text text-anchor="start" x="510.5" y="-586.3" font-family="Times,serif" font-size="14.00">0x6ced650:</text>
<text text-anchor="start" x="510.5" y="-571.3" font-family="Times,serif" font-size="14.00"> if (v11 &gt;= v12):</text>
</g>
<!-- Node0x30e5b050&#45;&gt;Node0x174446d0 -->
<g id="edge12" class="edge"><title>Node0x30e5b050&#45;&gt;Node0x174446d0</title>
<path fill="none" stroke="black" d="M559.201,-639.458C561.142,-629.847 563.119,-620.055 564.865,-611.405"/>
<polygon fill="black" stroke="black" points="568.315,-612.004 566.864,-601.509 561.454,-610.618 568.315,-612.004"/>
</g>
<!-- Node0x21fcc6c0 -->
<g id="node13" class="node"><title>Node0x21fcc6c0</title>
<polygon fill="none" stroke="black" points="520.5,-458.5 520.5,-496.5 620.5,-496.5 620.5,-458.5 520.5,-458.5"/>
<text text-anchor="start" x="528.5" y="-481.3" font-family="Times,serif" font-size="14.00">0x6ced360:</text>
<text text-anchor="start" x="528.5" y="-466.3" font-family="Times,serif" font-size="14.00"> break</text>
</g>
<!-- Node0x174446d0&#45;&gt;Node0x21fcc6c0 -->
<g id="edge13" class="edge"><title>Node0x174446d0&#45;&gt;Node0x21fcc6c0</title>
<path fill="none" stroke="black" d="M570.5,-563.086C570.5,-547.487 570.5,-524.865 570.5,-506.94"/>
<polygon fill="black" stroke="black" points="574,-506.755 570.5,-496.755 567,-506.755 574,-506.755"/>
<text text-anchor="middle" x="613.5" y="-533.8" font-family="Times,serif" font-size="14.00">v11 &gt;= v12</text>
</g>
<!-- Node0x30e5d520 -->
<g id="node14" class="node"><title>Node0x30e5d520</title>
<polygon fill="none" stroke="black" points="710.5,-443.5 710.5,-511.5 808.5,-511.5 808.5,-443.5 710.5,-443.5"/>
<text text-anchor="start" x="718.5" y="-496.3" font-family="Times,serif" font-size="14.00">0x6cece20:</text>
<text text-anchor="start" x="718.5" y="-481.3" font-family="Times,serif" font-size="14.00"> v9 = v16</text>
<text text-anchor="start" x="718.5" y="-466.3" font-family="Times,serif" font-size="14.00"> v1 = v10</text>
<text text-anchor="start" x="718.5" y="-451.3" font-family="Times,serif" font-size="14.00"> v3 = v15</text>
</g>
<!-- Node0x174446d0&#45;&gt;Node0x30e5d520 -->
<g id="edge14" class="edge"><title>Node0x174446d0&#45;&gt;Node0x30e5d520</title>
<path fill="none" stroke="black" d="M620.382,-563.401C633.67,-558.008 647.844,-551.725 660.5,-545 675.785,-536.879 691.643,-526.971 706.071,-517.309"/>
<polygon fill="black" stroke="black" points="708.079,-520.176 714.386,-511.664 704.147,-514.385 708.079,-520.176"/>
<text text-anchor="middle" x="722.5" y="-533.8" font-family="Times,serif" font-size="14.00">v11 &lt; v12</text>
</g>
<!-- Node0x17440af0 -->
<g id="node15" class="node"><title>Node0x17440af0</title>
<polygon fill="none" stroke="black" points="295,-97.5 295,-405.5 846,-405.5 846,-97.5 295,-97.5"/>
<text text-anchor="start" x="303" y="-390.3" font-family="Times,serif" font-size="14.00">0x6cedcb0:</text>
<text text-anchor="start" x="303" y="-375.3" font-family="Times,serif" font-size="14.00"> v7 = (v11 &#45; v12)</text>
<text text-anchor="start" x="303" y="-360.3" font-family="Times,serif" font-size="14.00"> v5 = v12</text>
<text text-anchor="start" x="303" y="-345.3" font-family="Times,serif" font-size="14.00"> v1 = v10</text>
<text text-anchor="start" x="303" y="-330.3" font-family="Times,serif" font-size="14.00"> v6 = v11</text>
<text text-anchor="start" x="303" y="-315.3" font-family="Times,serif" font-size="14.00"> g6 = (v6 &gt;= v5)</text>
<text text-anchor="start" x="303" y="-300.3" font-family="Times,serif" font-size="14.00"> g8 = ((v6 &amp; &#45;(v7)) &lt; 0)</text>
<text text-anchor="start" x="303" y="-285.3" font-family="Times,serif" font-size="14.00"> g7 = (v7 &lt; 0)</text>
<text text-anchor="start" x="303" y="-270.3" font-family="Times,serif" font-size="14.00"> g9 = (v6 == v5)</text>
<text text-anchor="start" x="303" y="-255.3" font-family="Times,serif" font-size="14.00"> v8 = ExtCastExpr&lt;int32&gt;(*(IntToPtrCastExpr&lt;ptr&gt;((v1 + 54))))</text>
<text text-anchor="start" x="303" y="-240.3" font-family="Times,serif" font-size="14.00"> g29 = v8</text>
<text text-anchor="start" x="303" y="-225.3" font-family="Times,serif" font-size="14.00"> g30 = 1</text>
<text text-anchor="start" x="303" y="-210.3" font-family="Times,serif" font-size="14.00"> g36 = 0</text>
<text text-anchor="start" x="303" y="-195.3" font-family="Times,serif" font-size="14.00"> g37 = (ExtCastExpr&lt;int32&gt;(*(IntToPtrCastExpr&lt;ptr&gt;((v1 + 12)))) + v8)</text>
<text text-anchor="start" x="303" y="-180.3" font-family="Times,serif" font-size="14.00"> *(IntToPtrCastExpr&lt;ptr&gt;((v1 + 32))) = 0</text>
<text text-anchor="start" x="303" y="-165.3" font-family="Times,serif" font-size="14.00"> *(IntToPtrCastExpr&lt;ptr&gt;((g33 + 37))) = TruncCastExpr&lt;int8&gt;(g30)</text>
<text text-anchor="start" x="303" y="-150.3" font-family="Times,serif" font-size="14.00"> *(IntToPtrCastExpr&lt;ptr&gt;((g33 + 24))) = g37</text>
<text text-anchor="start" x="303" y="-135.3" font-family="Times,serif" font-size="14.00"> *(IntToPtrCastExpr&lt;ptr&gt;((g33 + 36))) = TruncCastExpr&lt;int8&gt;(g30)</text>
<text text-anchor="start" x="303" y="-120.3" font-family="Times,serif" font-size="14.00"> *(IntToPtrCastExpr&lt;ptr&gt;((g33 + 16))) = TruncCastExpr&lt;int16&gt;(g36)</text>
<text text-anchor="start" x="303" y="-105.3" font-family="Times,serif" font-size="14.00"> *(IntToPtrCastExpr&lt;ptr&gt;((g33 + 18))) = TruncCastExpr&lt;int16&gt;(g29)</text>
</g>
<!-- Node0x21fcc6c0&#45;&gt;Node0x17440af0 -->
<g id="edge15" class="edge"><title>Node0x21fcc6c0&#45;&gt;Node0x17440af0</title>
<path fill="none" stroke="black" d="M570.5,-458.169C570.5,-447.338 570.5,-432.463 570.5,-415.625"/>
<polygon fill="black" stroke="black" points="574,-415.5 570.5,-405.5 567,-415.5 574,-415.5"/>
</g>
<!-- Node0x30e5d520&#45;&gt;Node0x17443460 -->
<g id="edge16" class="edge"><title>Node0x30e5d520&#45;&gt;Node0x17443460</title>
<path fill="none" stroke="black" d="M798.565,-511.64C815.921,-530.115 832.5,-554.76 832.5,-581.5 832.5,-1029 832.5,-1029 832.5,-1029 832.5,-1096.3 746.524,-1122.74 685.124,-1133.04"/>
<polygon fill="black" stroke="black" points="684.451,-1129.6 675.117,-1134.61 685.539,-1136.52 684.451,-1129.6"/>
</g>
<!-- Node0x17440af0&#45;&gt;Node0x30e5be20 -->
<g id="edge17" class="edge"><title>Node0x17440af0&#45;&gt;Node0x30e5be20</title>
<path fill="none" stroke="black" d="M407.118,-97.4216C394.676,-85.764 383.373,-75.1738 374.086,-66.4722"/>
<polygon fill="black" stroke="black" points="376.468,-63.9083 366.778,-59.6251 371.682,-69.0165 376.468,-63.9083"/>
</g>
</g>
</svg>
