<?xml version="1.0" encoding="UTF-8" standalone="no"?>
<!DOCTYPE svg PUBLIC "-//W3C//DTD SVG 1.1//EN"
 "http://www.w3.org/Graphics/SVG/1.1/DTD/svg11.dtd">
<!-- Generated by graphviz version 2.38.0 (20140413.2041)
 -->
<!-- Title: Control&#45;flow graph for function &#39;function_331c()&#39;. Pages: 1 -->
<svg width="376pt" height="444pt"
 viewBox="0.00 0.00 376.00 444.00" xmlns="http://www.w3.org/2000/svg" xmlns:xlink="http://www.w3.org/1999/xlink">
<g id="graph0" class="graph" transform="scale(1 1) rotate(0) translate(4 440)">
<title>Control&#45;flow graph for function &#39;function_331c()&#39;.</title>
<polygon fill="white" stroke="none" points="-4,4 -4,-440 372,-440 372,4 -4,4"/>
<text text-anchor="middle" x="184" y="-7.8" font-family="Times,serif" font-size="14.00">Control&#45;flow graph for function &#39;function_331c()&#39;.</text>
<!-- Node0x3a73ea70 -->
<g id="node1" class="node"><title>Node0x3a73ea70</title>
<polygon fill="none" stroke="black" points="154.5,-399.5 154.5,-435.5 213.5,-435.5 213.5,-399.5 154.5,-399.5"/>
<text text-anchor="start" x="162.5" y="-413.8" font-family="Times,serif" font-size="14.00">entry:</text>
</g>
<!-- Node0x3a741f00 -->
<g id="node2" class="node"><title>Node0x3a741f00</title>
<polygon fill="none" stroke="black" points="19.5,-263.5 19.5,-361.5 348.5,-361.5 348.5,-263.5 19.5,-263.5"/>
<text text-anchor="start" x="27.5" y="-346.3" font-family="Times,serif" font-size="14.00">0x14669b70:</text>
<text text-anchor="start" x="27.5" y="-331.3" font-family="Times,serif" font-size="14.00"> v1 = IntToPtrCastExpr&lt;ptr&gt;((g29 + 152))</text>
<text text-anchor="start" x="27.5" y="-316.3" font-family="Times,serif" font-size="14.00"> v2 = (2 * *(v1))</text>
<text text-anchor="start" x="27.5" y="-301.3" font-family="Times,serif" font-size="14.00"> g37 = v2</text>
<text text-anchor="start" x="27.5" y="-286.3" font-family="Times,serif" font-size="14.00"> g6 = (v2 &gt; 63999)</text>
<text text-anchor="start" x="27.5" y="-271.3" font-family="Times,serif" font-size="14.00"> g9 = (v2 == 64000)</text>
</g>
<!-- Node0x3a73ea70&#45;&gt;Node0x3a741f00 -->
<g id="edge1" class="edge"><title>Node0x3a73ea70&#45;&gt;Node0x3a741f00</title>
<path fill="none" stroke="black" d="M184,-399.492C184,-391.692 184,-381.94 184,-371.829"/>
<polygon fill="black" stroke="black" points="187.5,-371.659 184,-361.659 180.5,-371.659 187.5,-371.659"/>
</g>
<!-- Node0x1543b850 -->
<g id="node3" class="node"><title>Node0x1543b850</title>
<polygon fill="none" stroke="black" points="117,-187.5 117,-225.5 251,-225.5 251,-187.5 117,-187.5"/>
<text text-anchor="start" x="125" y="-210.3" font-family="Times,serif" font-size="14.00">0x4fda750:</text>
<text text-anchor="start" x="125" y="-195.3" font-family="Times,serif" font-size="14.00"> if (v2 &lt; 64001):</text>
</g>
<!-- Node0x3a741f00&#45;&gt;Node0x1543b850 -->
<g id="edge2" class="edge"><title>Node0x3a741f00&#45;&gt;Node0x1543b850</title>
<path fill="none" stroke="black" d="M184,-263.458C184,-253.952 184,-244.27 184,-235.69"/>
<polygon fill="black" stroke="black" points="187.5,-235.509 184,-225.509 180.5,-235.509 187.5,-235.509"/>
</g>
<!-- Node0x1543d160 -->
<g id="node4" class="node"><title>Node0x1543d160</title>
<polygon fill="none" stroke="black" points="93.5,-97.5 93.5,-135.5 190.5,-135.5 190.5,-97.5 93.5,-97.5"/>
<text text-anchor="start" x="101.5" y="-120.3" font-family="Times,serif" font-size="14.00">0x4fda510:</text>
<text text-anchor="start" x="101.5" y="-105.3" font-family="Times,serif" font-size="14.00"> *(v1) = v2</text>
</g>
<!-- Node0x1543b850&#45;&gt;Node0x1543d160 -->
<g id="edge3" class="edge"><title>Node0x1543b850&#45;&gt;Node0x1543d160</title>
<path fill="none" stroke="black" d="M151.422,-187.313C145.201,-182.241 139.535,-176.128 136,-169 132.441,-161.823 132.082,-153.411 133.128,-145.491"/>
<polygon fill="black" stroke="black" points="136.595,-146.006 135.161,-135.508 129.736,-144.608 136.595,-146.006"/>
<text text-anchor="middle" x="178" y="-157.8" font-family="Times,serif" font-size="14.00">v2 &lt; 64001</text>
</g>
<!-- Node0x3a741c00 -->
<g id="node5" class="node"><title>Node0x3a741c00</title>
<polygon fill="none" stroke="black" points="178,-23.5 178,-59.5 232,-59.5 232,-23.5 178,-23.5"/>
<text text-anchor="start" x="186" y="-37.8" font-family="Times,serif" font-size="14.00">exit:</text>
</g>
<!-- Node0x1543b850&#45;&gt;Node0x3a741c00 -->
<g id="edge4" class="edge"><title>Node0x1543b850&#45;&gt;Node0x3a741c00</title>
<path fill="none" stroke="black" d="M207.447,-187.194C212.541,-181.924 217.23,-175.752 220,-169 233.337,-136.486 224.337,-95.5957 215.592,-69.2558"/>
<polygon fill="black" stroke="black" points="218.808,-67.8515 212.175,-59.5893 212.208,-70.1841 218.808,-67.8515"/>
<text text-anchor="middle" x="275" y="-112.8" font-family="Times,serif" font-size="14.00">v2 &gt;= 64001</text>
</g>
<!-- Node0x1543d160&#45;&gt;Node0x3a741c00 -->
<g id="edge5" class="edge"><title>Node0x1543d160&#45;&gt;Node0x3a741c00</title>
<path fill="none" stroke="black" d="M157.573,-97.4551C165.393,-88.3933 174.991,-77.272 183.502,-67.4102"/>
<polygon fill="black" stroke="black" points="186.156,-69.692 190.04,-59.8347 180.857,-65.1185 186.156,-69.692"/>
</g>
</g>
</svg>
