<?xml version="1.0" encoding="UTF-8" standalone="no"?>
<!DOCTYPE svg PUBLIC "-//W3C//DTD SVG 1.1//EN"
 "http://www.w3.org/Graphics/SVG/1.1/DTD/svg11.dtd">
<!-- Generated by graphviz version 2.38.0 (20140413.2041)
 -->
<!-- Title: Control&#45;flow graph for function &#39;function_21cd8()&#39;. Pages: 1 -->
<svg width="587pt" height="894pt"
 viewBox="0.00 0.00 587.00 894.00" xmlns="http://www.w3.org/2000/svg" xmlns:xlink="http://www.w3.org/1999/xlink">
<g id="graph0" class="graph" transform="scale(1 1) rotate(0) translate(4 890)">
<title>Control&#45;flow graph for function &#39;function_21cd8()&#39;.</title>
<polygon fill="white" stroke="none" points="-4,4 -4,-890 583,-890 583,4 -4,4"/>
<text text-anchor="middle" x="289.5" y="-7.8" font-family="Times,serif" font-size="14.00">Control&#45;flow graph for function &#39;function_21cd8()&#39;.</text>
<!-- Node0x224026f0 -->
<g id="node1" class="node"><title>Node0x224026f0</title>
<polygon fill="none" stroke="black" points="260,-849.5 260,-885.5 319,-885.5 319,-849.5 260,-849.5"/>
<text text-anchor="start" x="268" y="-863.8" font-family="Times,serif" font-size="14.00">entry:</text>
</g>
<!-- Node0x1b5f0900 -->
<g id="node2" class="node"><title>Node0x1b5f0900</title>
<polygon fill="none" stroke="black" points="0,-458.5 0,-811.5 579,-811.5 579,-458.5 0,-458.5"/>
<text text-anchor="start" x="8" y="-796.3" font-family="Times,serif" font-size="14.00">0x13c6b350:</text>
<text text-anchor="start" x="8" y="-781.3" font-family="Times,serif" font-size="14.00"> v1 = g29</text>
<text text-anchor="start" x="8" y="-766.3" font-family="Times,serif" font-size="14.00"> v2 = g38</text>
<text text-anchor="start" x="8" y="-751.3" font-family="Times,serif" font-size="14.00"> v3 = g39</text>
<text text-anchor="start" x="8" y="-736.3" font-family="Times,serif" font-size="14.00"> v4 = g35</text>
<text text-anchor="start" x="8" y="-721.3" font-family="Times,serif" font-size="14.00"> v5 = *(IntToPtrCastExpr&lt;ptr&gt;((*(IntToPtrCastExpr&lt;ptr&gt;(v1)) + 16)))</text>
<text text-anchor="start" x="8" y="-706.3" font-family="Times,serif" font-size="14.00"> g33 = v5</text>
<text text-anchor="start" x="8" y="-691.3" font-family="Times,serif" font-size="14.00"> g6 = True</text>
<text text-anchor="start" x="8" y="-676.3" font-family="Times,serif" font-size="14.00"> g9 = (g36 == 0)</text>
<text text-anchor="start" x="8" y="-661.3" font-family="Times,serif" font-size="14.00"> g35 = ExtCastExpr&lt;int32&gt;(*(IntToPtrCastExpr&lt;ptr&gt;((v5 + 46))))</text>
<text text-anchor="start" x="8" y="-646.3" font-family="Times,serif" font-size="14.00"> *(IntToPtrCastExpr&lt;ptr&gt;((v1 + 80))) = *(IntToPtrCastExpr&lt;ptr&gt;((v5 + 23)))</text>
<text text-anchor="start" x="8" y="-631.3" font-family="Times,serif" font-size="14.00"> *(IntToPtrCastExpr&lt;ptr&gt;((g29 + 81))) = 1</text>
<text text-anchor="start" x="8" y="-616.3" font-family="Times,serif" font-size="14.00"> *(IntToPtrCastExpr&lt;ptr&gt;((g29 + 152))) = g36</text>
<text text-anchor="start" x="8" y="-601.3" font-family="Times,serif" font-size="14.00"> v6 = g29</text>
<text text-anchor="start" x="8" y="-586.3" font-family="Times,serif" font-size="14.00"> g38 = v6</text>
<text text-anchor="start" x="8" y="-571.3" font-family="Times,serif" font-size="14.00"> v7 = g33</text>
<text text-anchor="start" x="8" y="-556.3" font-family="Times,serif" font-size="14.00"> g36 = *(IntToPtrCastExpr&lt;ptr&gt;((v7 + 48)))</text>
<text text-anchor="start" x="8" y="-541.3" font-family="Times,serif" font-size="14.00"> g37 = *(IntToPtrCastExpr&lt;ptr&gt;((v7 + 52)))</text>
<text text-anchor="start" x="8" y="-526.3" font-family="Times,serif" font-size="14.00"> *(IntToPtrCastExpr&lt;ptr&gt;((v6 + 84))) = g35</text>
<text text-anchor="start" x="8" y="-511.3" font-family="Times,serif" font-size="14.00"> g39 = g30</text>
<text text-anchor="start" x="8" y="-496.3" font-family="Times,serif" font-size="14.00"> v8 = g29</text>
<text text-anchor="start" x="8" y="-481.3" font-family="Times,serif" font-size="14.00"> *(IntToPtrCastExpr&lt;ptr&gt;((v8 + 160))) = g36</text>
<text text-anchor="start" x="8" y="-466.3" font-family="Times,serif" font-size="14.00"> *(IntToPtrCastExpr&lt;ptr&gt;((v8 + 164))) = g37</text>
</g>
<!-- Node0x224026f0&#45;&gt;Node0x1b5f0900 -->
<g id="edge1" class="edge"><title>Node0x224026f0&#45;&gt;Node0x1b5f0900</title>
<path fill="none" stroke="black" d="M289.5,-849.175C289.5,-841.8 289.5,-832.42 289.5,-821.726"/>
<polygon fill="black" stroke="black" points="293,-821.555 289.5,-811.555 286,-821.555 293,-821.555"/>
</g>
<!-- Node0x235e0370 -->
<g id="node3" class="node"><title>Node0x235e0370</title>
<polygon fill="none" stroke="black" points="240,-382.5 240,-420.5 339,-420.5 339,-382.5 240,-382.5"/>
<text text-anchor="start" x="248" y="-405.3" font-family="Times,serif" font-size="14.00">0xa2e99c0:</text>
<text text-anchor="start" x="248" y="-390.3" font-family="Times,serif" font-size="14.00"> if g9:</text>
</g>
<!-- Node0x1b5f0900&#45;&gt;Node0x235e0370 -->
<g id="edge2" class="edge"><title>Node0x1b5f0900&#45;&gt;Node0x235e0370</title>
<path fill="none" stroke="black" d="M289.5,-458.245C289.5,-448.06 289.5,-438.733 289.5,-430.742"/>
<polygon fill="black" stroke="black" points="293,-430.718 289.5,-420.718 286,-430.718 293,-430.718"/>
</g>
<!-- Node0x235e0f70 -->
<g id="node4" class="node"><title>Node0x235e0f70</title>
<polygon fill="none" stroke="black" points="39.5,-97.5 39.5,-330.5 313.5,-330.5 313.5,-97.5 39.5,-97.5"/>
<text text-anchor="start" x="47.5" y="-315.3" font-family="Times,serif" font-size="14.00">0x13c6b230:</text>
<text text-anchor="start" x="47.5" y="-300.3" font-family="Times,serif" font-size="14.00"> v9 = g39</text>
<text text-anchor="start" x="47.5" y="-285.3" font-family="Times,serif" font-size="14.00"> g9 = ((v9 &amp; 4) == 0)</text>
<text text-anchor="start" x="47.5" y="-270.3" font-family="Times,serif" font-size="14.00"> v10 = g38</text>
<text text-anchor="start" x="47.5" y="-255.3" font-family="Times,serif" font-size="14.00"> g29 = v10</text>
<text text-anchor="start" x="47.5" y="-240.3" font-family="Times,serif" font-size="14.00"> g30 = (10 if ((v9 &amp; 4) == 0) else 1)</text>
<text text-anchor="start" x="47.5" y="-225.3" font-family="Times,serif" font-size="14.00"> g37 = v9</text>
<text text-anchor="start" x="47.5" y="-210.3" font-family="Times,serif" font-size="14.00"> g36 = (v10 + 80)</text>
<text text-anchor="start" x="47.5" y="-195.3" font-family="Times,serif" font-size="14.00"> g38 = v2</text>
<text text-anchor="start" x="47.5" y="-180.3" font-family="Times,serif" font-size="14.00"> g39 = v3</text>
<text text-anchor="start" x="47.5" y="-165.3" font-family="Times,serif" font-size="14.00"> v11</text>
<text text-anchor="start" x="47.5" y="-150.3" font-family="Times,serif" font-size="14.00"> g34 = v11</text>
<text text-anchor="start" x="47.5" y="-135.3" font-family="Times,serif" font-size="14.00"> g35 = v4</text>
<text text-anchor="start" x="47.5" y="-120.3" font-family="Times,serif" font-size="14.00"> function_21394()</text>
<text text-anchor="start" x="47.5" y="-105.3" font-family="Times,serif" font-size="14.00"> return</text>
</g>
<!-- Node0x235e0370&#45;&gt;Node0x235e0f70 -->
<g id="edge3" class="edge"><title>Node0x235e0370&#45;&gt;Node0x235e0f70</title>
<path fill="none" stroke="black" d="M278.459,-382.376C271.744,-371.352 262.513,-356.199 252.33,-339.483"/>
<polygon fill="black" stroke="black" points="255.118,-337.331 246.927,-330.612 249.14,-340.973 255.118,-337.331"/>
<text text-anchor="middle" x="275" y="-352.8" font-family="Times,serif" font-size="14.00">g9</text>
</g>
<!-- Node0x235e0970 -->
<g id="node5" class="node"><title>Node0x235e0970</title>
<polygon fill="none" stroke="black" points="332,-187.5 332,-240.5 475,-240.5 475,-187.5 332,-187.5"/>
<text text-anchor="start" x="340" y="-225.3" font-family="Times,serif" font-size="14.00">0xa2e9b40:</text>
<text text-anchor="start" x="340" y="-210.3" font-family="Times,serif" font-size="14.00"> g30 = 12</text>
<text text-anchor="start" x="340" y="-195.3" font-family="Times,serif" font-size="14.00"> function_21a90()</text>
</g>
<!-- Node0x235e0370&#45;&gt;Node0x235e0970 -->
<g id="edge4" class="edge"><title>Node0x235e0370&#45;&gt;Node0x235e0970</title>
<path fill="none" stroke="black" d="M300.638,-382.376C319.518,-351.654 358.104,-288.867 382.278,-249.532"/>
<polygon fill="black" stroke="black" points="385.542,-250.905 387.796,-240.553 379.579,-247.24 385.542,-250.905"/>
<text text-anchor="middle" x="349" y="-352.8" font-family="Times,serif" font-size="14.00">not (g9)</text>
</g>
<!-- Node0x23332d60 -->
<g id="node6" class="node"><title>Node0x23332d60</title>
<polygon fill="none" stroke="black" points="287.5,-23.5 287.5,-59.5 341.5,-59.5 341.5,-23.5 287.5,-23.5"/>
<text text-anchor="start" x="295.5" y="-37.8" font-family="Times,serif" font-size="14.00">exit:</text>
</g>
<!-- Node0x235e0f70&#45;&gt;Node0x23332d60 -->
<g id="edge5" class="edge"><title>Node0x235e0f70&#45;&gt;Node0x23332d60</title>
<path fill="none" stroke="black" d="M270.076,-97.3858C278.873,-86.5176 287.056,-76.4068 293.941,-67.9004"/>
<polygon fill="black" stroke="black" points="296.797,-69.9351 300.368,-59.9601 291.356,-65.5311 296.797,-69.9351"/>
</g>
<!-- Node0x235e0970&#45;&gt;Node0x23332d60 -->
<g id="edge6" class="edge"><title>Node0x235e0970&#45;&gt;Node0x23332d60</title>
<path fill="none" stroke="black" d="M390.176,-187.474C373.493,-155.514 345.061,-101.047 328.202,-68.7501"/>
<polygon fill="black" stroke="black" points="331.301,-67.1224 323.571,-59.8771 325.095,-70.3616 331.301,-67.1224"/>
</g>
</g>
</svg>
