<?xml version="1.0" encoding="UTF-8" standalone="no"?>
<!DOCTYPE svg PUBLIC "-//W3C//DTD SVG 1.1//EN"
 "http://www.w3.org/Graphics/SVG/1.1/DTD/svg11.dtd">
<!-- Generated by graphviz version 2.38.0 (20140413.2041)
 -->
<!-- Title: Control&#45;flow graph for function &#39;function_17aa0()&#39;. Pages: 1 -->
<svg width="749pt" height="1106pt"
 viewBox="0.00 0.00 748.50 1106.00" xmlns="http://www.w3.org/2000/svg" xmlns:xlink="http://www.w3.org/1999/xlink">
<g id="graph0" class="graph" transform="scale(1 1) rotate(0) translate(4 1102)">
<title>Control&#45;flow graph for function &#39;function_17aa0()&#39;.</title>
<polygon fill="white" stroke="none" points="-4,4 -4,-1102 744.5,-1102 744.5,4 -4,4"/>
<text text-anchor="middle" x="370.25" y="-7.8" font-family="Times,serif" font-size="14.00">Control&#45;flow graph for function &#39;function_17aa0()&#39;.</text>
<!-- Node0x39ed0400 -->
<g id="node1" class="node"><title>Node0x39ed0400</title>
<polygon fill="none" stroke="black" points="475,-1061.5 475,-1097.5 534,-1097.5 534,-1061.5 475,-1061.5"/>
<text text-anchor="start" x="483" y="-1075.8" font-family="Times,serif" font-size="14.00">entry:</text>
</g>
<!-- Node0x451abad0 -->
<g id="node2" class="node"><title>Node0x451abad0</title>
<polygon fill="none" stroke="black" points="433,-925.5 433,-1023.5 576,-1023.5 576,-925.5 433,-925.5"/>
<text text-anchor="start" x="441" y="-1008.3" font-family="Times,serif" font-size="14.00">0x87cb570:</text>
<text text-anchor="start" x="441" y="-993.3" font-family="Times,serif" font-size="14.00"> g30 = g41</text>
<text text-anchor="start" x="441" y="-978.3" font-family="Times,serif" font-size="14.00"> g36 = g39</text>
<text text-anchor="start" x="441" y="-963.3" font-family="Times,serif" font-size="14.00"> function_101c0()</text>
<text text-anchor="start" x="441" y="-948.3" font-family="Times,serif" font-size="14.00"> v1 = g29</text>
<text text-anchor="start" x="441" y="-933.3" font-family="Times,serif" font-size="14.00"> g9 = (v1 == 0)</text>
</g>
<!-- Node0x39ed0400&#45;&gt;Node0x451abad0 -->
<g id="edge1" class="edge"><title>Node0x39ed0400&#45;&gt;Node0x451abad0</title>
<path fill="none" stroke="black" d="M504.5,-1061.49C504.5,-1053.69 504.5,-1043.94 504.5,-1033.83"/>
<polygon fill="black" stroke="black" points="508,-1033.66 504.5,-1023.66 501,-1033.66 508,-1033.66"/>
</g>
<!-- Node0x1f09f730 -->
<g id="node3" class="node"><title>Node0x1f09f730</title>
<polygon fill="none" stroke="black" points="449.5,-849.5 449.5,-887.5 559.5,-887.5 559.5,-849.5 449.5,-849.5"/>
<text text-anchor="start" x="457.5" y="-872.3" font-family="Times,serif" font-size="14.00">0x87ccd30:</text>
<text text-anchor="start" x="457.5" y="-857.3" font-family="Times,serif" font-size="14.00"> if (v1 == 0):</text>
</g>
<!-- Node0x451abad0&#45;&gt;Node0x1f09f730 -->
<g id="edge2" class="edge"><title>Node0x451abad0&#45;&gt;Node0x1f09f730</title>
<path fill="none" stroke="black" d="M504.5,-925.458C504.5,-915.952 504.5,-906.27 504.5,-897.69"/>
<polygon fill="black" stroke="black" points="508,-897.509 504.5,-887.509 501,-897.509 508,-897.509"/>
</g>
<!-- Node0x451ad2a0 -->
<g id="node4" class="node"><title>Node0x451ad2a0</title>
<polygon fill="none" stroke="black" points="197.5,-744.5 197.5,-797.5 517.5,-797.5 517.5,-744.5 197.5,-744.5"/>
<text text-anchor="start" x="205.5" y="-782.3" font-family="Times,serif" font-size="14.00">0x87cbfc0:</text>
<text text-anchor="start" x="205.5" y="-767.3" font-family="Times,serif" font-size="14.00"> g37 = 1</text>
<text text-anchor="start" x="205.5" y="-752.3" font-family="Times,serif" font-size="14.00"> *(IntToPtrCastExpr&lt;ptr&gt;((g42 + 4))) = 1</text>
</g>
<!-- Node0x1f09f730&#45;&gt;Node0x451ad2a0 -->
<g id="edge3" class="edge"><title>Node0x1f09f730&#45;&gt;Node0x451ad2a0</title>
<path fill="none" stroke="black" d="M476.504,-849.312C456.399,-836.25 428.803,-818.323 405.248,-803.02"/>
<polygon fill="black" stroke="black" points="407.066,-800.027 396.773,-797.514 403.252,-805.897 407.066,-800.027"/>
<text text-anchor="middle" x="474.5" y="-819.8" font-family="Times,serif" font-size="14.00">v1 == 0</text>
</g>
<!-- Node0x2111abc0 -->
<g id="node5" class="node"><title>Node0x2111abc0</title>
<polygon fill="none" stroke="black" points="256.5,-308.5 256.5,-706.5 740.5,-706.5 740.5,-308.5 256.5,-308.5"/>
<text text-anchor="start" x="264.5" y="-691.3" font-family="Times,serif" font-size="14.00">0x1f3901d0:</text>
<text text-anchor="start" x="264.5" y="-676.3" font-family="Times,serif" font-size="14.00"> v2</text>
<text text-anchor="start" x="264.5" y="-661.3" font-family="Times,serif" font-size="14.00"> g38 = v2</text>
<text text-anchor="start" x="264.5" y="-646.3" font-family="Times,serif" font-size="14.00"> v3</text>
<text text-anchor="start" x="264.5" y="-631.3" font-family="Times,serif" font-size="14.00"> g39 = v3</text>
<text text-anchor="start" x="264.5" y="-616.3" font-family="Times,serif" font-size="14.00"> v4</text>
<text text-anchor="start" x="264.5" y="-601.3" font-family="Times,serif" font-size="14.00"> g40 = v4</text>
<text text-anchor="start" x="264.5" y="-586.3" font-family="Times,serif" font-size="14.00"> v5</text>
<text text-anchor="start" x="264.5" y="-571.3" font-family="Times,serif" font-size="14.00"> g41 = v5</text>
<text text-anchor="start" x="264.5" y="-556.3" font-family="Times,serif" font-size="14.00"> v6</text>
<text text-anchor="start" x="264.5" y="-541.3" font-family="Times,serif" font-size="14.00"> g42 = v6</text>
<text text-anchor="start" x="264.5" y="-526.3" font-family="Times,serif" font-size="14.00"> v7</text>
<text text-anchor="start" x="264.5" y="-511.3" font-family="Times,serif" font-size="14.00"> g32 = v7</text>
<text text-anchor="start" x="264.5" y="-496.3" font-family="Times,serif" font-size="14.00"> v8</text>
<text text-anchor="start" x="264.5" y="-481.3" font-family="Times,serif" font-size="14.00"> g34 = v8</text>
<text text-anchor="start" x="264.5" y="-466.3" font-family="Times,serif" font-size="14.00"> IntToPtrCastExpr&lt;ptr&gt;(ExtCastExpr&lt;int32&gt;((v1 == 0)))()</text>
<text text-anchor="start" x="264.5" y="-451.3" font-family="Times,serif" font-size="14.00"> g29 = 1</text>
<text text-anchor="start" x="264.5" y="-436.3" font-family="Times,serif" font-size="14.00"> v9 = g34</text>
<text text-anchor="start" x="264.5" y="-421.3" font-family="Times,serif" font-size="14.00"> g38 = *(IntToPtrCastExpr&lt;ptr&gt;((v9 + 4)))</text>
<text text-anchor="start" x="264.5" y="-406.3" font-family="Times,serif" font-size="14.00"> g39 = *(IntToPtrCastExpr&lt;ptr&gt;((v9 + 8)))</text>
<text text-anchor="start" x="264.5" y="-391.3" font-family="Times,serif" font-size="14.00"> g40 = *(IntToPtrCastExpr&lt;ptr&gt;((v9 + 12)))</text>
<text text-anchor="start" x="264.5" y="-376.3" font-family="Times,serif" font-size="14.00"> g41 = *(IntToPtrCastExpr&lt;ptr&gt;((v9 + 16)))</text>
<text text-anchor="start" x="264.5" y="-361.3" font-family="Times,serif" font-size="14.00"> g42 = *(IntToPtrCastExpr&lt;ptr&gt;((v9 + 20)))</text>
<text text-anchor="start" x="264.5" y="-346.3" font-family="Times,serif" font-size="14.00"> g32 = *(IntToPtrCastExpr&lt;ptr&gt;((v9 + 24)))</text>
<text text-anchor="start" x="264.5" y="-331.3" font-family="Times,serif" font-size="14.00"> g34 = *(IntToPtrCastExpr&lt;ptr&gt;((v9 + 28)))</text>
<text text-anchor="start" x="264.5" y="-316.3" font-family="Times,serif" font-size="14.00"> IntToPtrCastExpr&lt;ptr&gt;(*(IntToPtrCastExpr&lt;ptr&gt;((v9 + 32))))()</text>
</g>
<!-- Node0x1f09f730&#45;&gt;Node0x2111abc0 -->
<g id="edge4" class="edge"><title>Node0x1f09f730&#45;&gt;Node0x2111abc0</title>
<path fill="none" stroke="black" d="M511.96,-849.285C517.196,-835.476 523.737,-815.886 526.5,-798 530.551,-771.778 531.76,-744.123 531.122,-716.728"/>
<polygon fill="black" stroke="black" points="534.617,-716.536 530.805,-706.651 527.621,-716.756 534.617,-716.536"/>
<text text-anchor="middle" x="558.5" y="-767.3" font-family="Times,serif" font-size="14.00">v1 != 0</text>
</g>
<!-- Node0x451ad2a0&#45;&gt;Node0x2111abc0 -->
<g id="edge5" class="edge"><title>Node0x451ad2a0&#45;&gt;Node0x2111abc0</title>
<path fill="none" stroke="black" d="M371.276,-744.45C375.678,-736.287 380.946,-726.518 386.797,-715.666"/>
<polygon fill="black" stroke="black" points="389.943,-717.205 391.609,-706.742 383.782,-713.883 389.943,-717.205"/>
</g>
<!-- Node0x1f0a06e0 -->
<g id="node6" class="node"><title>Node0x1f0a06e0</title>
<polygon fill="none" stroke="black" points="448,-232.5 448,-270.5 549,-270.5 549,-232.5 448,-232.5"/>
<text text-anchor="start" x="456" y="-255.3" font-family="Times,serif" font-size="14.00">0x87d3960:</text>
<text text-anchor="start" x="456" y="-240.3" font-family="Times,serif" font-size="14.00"> if g9:</text>
</g>
<!-- Node0x2111abc0&#45;&gt;Node0x1f0a06e0 -->
<g id="edge6" class="edge"><title>Node0x2111abc0&#45;&gt;Node0x1f0a06e0</title>
<path fill="none" stroke="black" d="M498.5,-308.241C498.5,-297.954 498.5,-288.589 498.5,-280.595"/>
<polygon fill="black" stroke="black" points="502,-280.586 498.5,-270.586 495,-280.586 502,-280.586"/>
</g>
<!-- Node0x39ed3400 -->
<g id="node7" class="node"><title>Node0x39ed3400</title>
<polygon fill="none" stroke="black" points="0,-97.5 0,-180.5 539,-180.5 539,-97.5 0,-97.5"/>
<text text-anchor="start" x="8" y="-165.3" font-family="Times,serif" font-size="14.00">0x1f390630:</text>
<text text-anchor="start" x="8" y="-150.3" font-family="Times,serif" font-size="14.00"> v10 = (g30 &amp; (g33 / 1048576))</text>
<text text-anchor="start" x="8" y="-135.3" font-family="Times,serif" font-size="14.00"> g29 = v10</text>
<text text-anchor="start" x="8" y="-120.3" font-family="Times,serif" font-size="14.00"> v11 = (g40 % 256)</text>
<text text-anchor="start" x="8" y="-105.3" font-family="Times,serif" font-size="14.00"> g30 = ((g38 &gt;&gt; (0 if (v11 == 0) else (31 if (v11 &gt; 31) else v11))) &amp; v10)</text>
</g>
<!-- Node0x1f0a06e0&#45;&gt;Node0x39ed3400 -->
<g id="edge7" class="edge"><title>Node0x1f0a06e0&#45;&gt;Node0x39ed3400</title>
<path fill="none" stroke="black" d="M460.942,-232.377C434.268,-219.506 397.226,-201.632 362.825,-185.033"/>
<polygon fill="black" stroke="black" points="364.203,-181.811 353.676,-180.618 361.161,-188.116 364.203,-181.811"/>
<text text-anchor="middle" x="428" y="-202.8" font-family="Times,serif" font-size="14.00">g9</text>
</g>
<!-- Node0x39ed3ed0 -->
<g id="node8" class="node"><title>Node0x39ed3ed0</title>
<polygon fill="none" stroke="black" points="465.5,-23.5 465.5,-59.5 519.5,-59.5 519.5,-23.5 465.5,-23.5"/>
<text text-anchor="start" x="473.5" y="-37.8" font-family="Times,serif" font-size="14.00">exit:</text>
</g>
<!-- Node0x1f0a06e0&#45;&gt;Node0x39ed3ed0 -->
<g id="edge8" class="edge"><title>Node0x1f0a06e0&#45;&gt;Node0x39ed3ed0</title>
<path fill="none" stroke="black" d="M515.963,-232.476C527.385,-219.37 541.298,-200.561 547.5,-181 558.784,-145.413 561.866,-131.459 547.5,-97 542.651,-85.368 533.977,-74.9465 524.93,-66.4089"/>
<polygon fill="black" stroke="black" points="527.134,-63.6855 517.319,-59.6951 522.503,-68.9351 527.134,-63.6855"/>
<text text-anchor="middle" x="585" y="-135.3" font-family="Times,serif" font-size="14.00">not (g9)</text>
</g>
<!-- Node0x39ed3400&#45;&gt;Node0x39ed3ed0 -->
<g id="edge9" class="edge"><title>Node0x39ed3400&#45;&gt;Node0x39ed3ed0</title>
<path fill="none" stroke="black" d="M364.072,-97.4994C396.559,-83.5868 431.009,-68.8335 456.042,-58.1131"/>
<polygon fill="black" stroke="black" points="457.672,-61.2227 465.486,-54.0686 454.916,-54.7879 457.672,-61.2227"/>
</g>
</g>
</svg>
