<?xml version="1.0" encoding="UTF-8" standalone="no"?>
<!DOCTYPE svg PUBLIC "-//W3C//DTD SVG 1.1//EN"
 "http://www.w3.org/Graphics/SVG/1.1/DTD/svg11.dtd">
<!-- Generated by graphviz version 2.38.0 (20140413.2041)
 -->
<!-- Title: Control&#45;flow graph for function &#39;function_f50c()&#39;. Pages: 1 -->
<svg width="546pt" height="276pt"
 viewBox="0.00 0.00 546.00 276.00" xmlns="http://www.w3.org/2000/svg" xmlns:xlink="http://www.w3.org/1999/xlink">
<g id="graph0" class="graph" transform="scale(1 1) rotate(0) translate(4 272)">
<title>Control&#45;flow graph for function &#39;function_f50c()&#39;.</title>
<polygon fill="white" stroke="none" points="-4,4 -4,-272 542,-272 542,4 -4,4"/>
<text text-anchor="middle" x="269" y="-7.8" font-family="Times,serif" font-size="14.00">Control&#45;flow graph for function &#39;function_f50c()&#39;.</text>
<!-- Node0x3ef59180 -->
<g id="node1" class="node"><title>Node0x3ef59180</title>
<polygon fill="none" stroke="black" points="239.5,-231.5 239.5,-267.5 298.5,-267.5 298.5,-231.5 239.5,-231.5"/>
<text text-anchor="start" x="247.5" y="-245.8" font-family="Times,serif" font-size="14.00">entry:</text>
</g>
<!-- Node0x3ef59ce0 -->
<g id="node2" class="node"><title>Node0x3ef59ce0</title>
<polygon fill="none" stroke="black" points="0,-96.5 0,-194.5 538,-194.5 538,-96.5 0,-96.5"/>
<text text-anchor="start" x="8" y="-179.3" font-family="Times,serif" font-size="14.00">0x7808970:</text>
<text text-anchor="start" x="8" y="-164.3" font-family="Times,serif" font-size="14.00"> g30 = 165012</text>
<text text-anchor="start" x="8" y="-149.3" font-family="Times,serif" font-size="14.00"> g36 = 156212</text>
<text text-anchor="start" x="8" y="-134.3" font-family="Times,serif" font-size="14.00"> v1 = ((*(IntToPtrCastExpr&lt;ptr&gt;((g29 + 8))) / 32) &amp; 6)</text>
<text text-anchor="start" x="8" y="-119.3" font-family="Times,serif" font-size="14.00"> g37 = v1</text>
<text text-anchor="start" x="8" y="-104.3" font-family="Times,serif" font-size="14.00"> g29 = ExtCastExpr&lt;int32&gt;(*(IntToPtrCastExpr&lt;ptr&gt;((v1 + 156212))))</text>
</g>
<!-- Node0x3ef59180&#45;&gt;Node0x3ef59ce0 -->
<g id="edge1" class="edge"><title>Node0x3ef59180&#45;&gt;Node0x3ef59ce0</title>
<path fill="none" stroke="black" d="M269,-231.197C269,-223.688 269,-214.415 269,-204.789"/>
<polygon fill="black" stroke="black" points="272.5,-204.688 269,-194.688 265.5,-204.688 272.5,-204.688"/>
</g>
<!-- Node0x3ef56220 -->
<g id="node3" class="node"><title>Node0x3ef56220</title>
<polygon fill="none" stroke="black" points="242,-23.5 242,-59.5 296,-59.5 296,-23.5 242,-23.5"/>
<text text-anchor="start" x="250" y="-37.8" font-family="Times,serif" font-size="14.00">exit:</text>
</g>
<!-- Node0x3ef59ce0&#45;&gt;Node0x3ef56220 -->
<g id="edge2" class="edge"><title>Node0x3ef59ce0&#45;&gt;Node0x3ef56220</title>
<path fill="none" stroke="black" d="M269,-96.4868C269,-87.2893 269,-77.9618 269,-69.7064"/>
<polygon fill="black" stroke="black" points="272.5,-69.5725 269,-59.5725 265.5,-69.5725 272.5,-69.5725"/>
</g>
</g>
</svg>
