<?xml version="1.0" encoding="UTF-8" standalone="no"?>
<!DOCTYPE svg PUBLIC "-//W3C//DTD SVG 1.1//EN"
 "http://www.w3.org/Graphics/SVG/1.1/DTD/svg11.dtd">
<!-- Generated by graphviz version 2.38.0 (20140413.2041)
 -->
<!-- Title: Control&#45;flow graph for function &#39;function_132f8()&#39;. Pages: 1 -->
<svg width="728pt" height="1596pt"
 viewBox="0.00 0.00 728.00 1596.00" xmlns="http://www.w3.org/2000/svg" xmlns:xlink="http://www.w3.org/1999/xlink">
<g id="graph0" class="graph" transform="scale(1 1) rotate(0) translate(4 1592)">
<title>Control&#45;flow graph for function &#39;function_132f8()&#39;.</title>
<polygon fill="white" stroke="none" points="-4,4 -4,-1592 724,-1592 724,4 -4,4"/>
<text text-anchor="middle" x="360" y="-7.8" font-family="Times,serif" font-size="14.00">Control&#45;flow graph for function &#39;function_132f8()&#39;.</text>
<!-- Node0x375907a0 -->
<g id="node1" class="node"><title>Node0x375907a0</title>
<polygon fill="none" stroke="black" points="152,-1551.5 152,-1587.5 211,-1587.5 211,-1551.5 152,-1551.5"/>
<text text-anchor="start" x="160" y="-1565.8" font-family="Times,serif" font-size="14.00">entry:</text>
</g>
<!-- Node0x21b0c210 -->
<g id="node2" class="node"><title>Node0x21b0c210</title>
<polygon fill="none" stroke="black" points="116.5,-1340.5 116.5,-1513.5 246.5,-1513.5 246.5,-1340.5 116.5,-1340.5"/>
<text text-anchor="start" x="124.5" y="-1498.3" font-family="Times,serif" font-size="14.00">0x3882eb60:</text>
<text text-anchor="start" x="124.5" y="-1483.3" font-family="Times,serif" font-size="14.00"> v1 = g38</text>
<text text-anchor="start" x="124.5" y="-1468.3" font-family="Times,serif" font-size="14.00"> v2 = g35</text>
<text text-anchor="start" x="124.5" y="-1453.3" font-family="Times,serif" font-size="14.00"> v3 = g36</text>
<text text-anchor="start" x="124.5" y="-1438.3" font-family="Times,serif" font-size="14.00"> v4 = g29</text>
<text text-anchor="start" x="124.5" y="-1423.3" font-family="Times,serif" font-size="14.00"> v5 = g30</text>
<text text-anchor="start" x="124.5" y="-1408.3" font-family="Times,serif" font-size="14.00"> g35 = v5</text>
<text text-anchor="start" x="124.5" y="-1393.3" font-family="Times,serif" font-size="14.00"> g6 = (v3 != 0)</text>
<text text-anchor="start" x="124.5" y="-1378.3" font-family="Times,serif" font-size="14.00"> g9 = (v3 == 1)</text>
<text text-anchor="start" x="124.5" y="-1363.3" font-family="Times,serif" font-size="14.00"> g33 = (v3 &#45; 1)</text>
<text text-anchor="start" x="124.5" y="-1348.3" font-family="Times,serif" font-size="14.00"> v6</text>
</g>
<!-- Node0x375907a0&#45;&gt;Node0x21b0c210 -->
<g id="edge1" class="edge"><title>Node0x375907a0&#45;&gt;Node0x21b0c210</title>
<path fill="none" stroke="black" d="M181.5,-1551.27C181.5,-1543.72 181.5,-1534.21 181.5,-1523.85"/>
<polygon fill="black" stroke="black" points="185,-1523.68 181.5,-1513.68 178,-1523.68 185,-1523.68"/>
</g>
<!-- Node0x37590970 -->
<g id="node3" class="node"><title>Node0x37590970</title>
<polygon fill="none" stroke="black" points="129.5,-1264.5 129.5,-1302.5 233.5,-1302.5 233.5,-1264.5 129.5,-1264.5"/>
<text text-anchor="start" x="137.5" y="-1287.3" font-family="Times,serif" font-size="14.00">0x7f81d80:</text>
<text text-anchor="start" x="137.5" y="-1272.3" font-family="Times,serif" font-size="14.00"> if (v3 != 0):</text>
</g>
<!-- Node0x21b0c210&#45;&gt;Node0x37590970 -->
<g id="edge2" class="edge"><title>Node0x21b0c210&#45;&gt;Node0x37590970</title>
<path fill="none" stroke="black" d="M181.5,-1340.42C181.5,-1330.55 181.5,-1321.08 181.5,-1312.83"/>
<polygon fill="black" stroke="black" points="185,-1312.75 181.5,-1302.75 178,-1312.75 185,-1312.75"/>
</g>
<!-- Node0x37591d40 -->
<g id="node4" class="node"><title>Node0x37591d40</title>
<polygon fill="none" stroke="black" points="0,-1087.5 0,-1155.5 233,-1155.5 233,-1087.5 0,-1087.5"/>
<text text-anchor="start" x="8" y="-1140.3" font-family="Times,serif" font-size="14.00">0x7f81f00:</text>
<text text-anchor="start" x="8" y="-1125.3" font-family="Times,serif" font-size="14.00"> g29 = 1</text>
<text text-anchor="start" x="8" y="-1110.3" font-family="Times,serif" font-size="14.00"> g38 = v2</text>
<text text-anchor="start" x="8" y="-1095.3" font-family="Times,serif" font-size="14.00"> IntToPtrCastExpr&lt;ptr&gt;(v6)()</text>
</g>
<!-- Node0x37590970&#45;&gt;Node0x37591d40 -->
<g id="edge3" class="edge"><title>Node0x37590970&#45;&gt;Node0x37591d40</title>
<path fill="none" stroke="black" d="M161.139,-1264.25C156.061,-1258.81 151.057,-1252.54 147.5,-1246 134.012,-1221.19 126.266,-1190.39 121.89,-1165.75"/>
<polygon fill="black" stroke="black" points="125.297,-1164.9 120.214,-1155.6 118.39,-1166.04 125.297,-1164.9"/>
<text text-anchor="middle" x="177.5" y="-1234.8" font-family="Times,serif" font-size="14.00">v3 == 0</text>
</g>
<!-- Node0x37592040 -->
<g id="node5" class="node"><title>Node0x37592040</title>
<polygon fill="none" stroke="black" points="198,-1174.5 198,-1212.5 299,-1212.5 299,-1174.5 198,-1174.5"/>
<text text-anchor="start" x="206" y="-1197.3" font-family="Times,serif" font-size="14.00">0x7f81bb0:</text>
<text text-anchor="start" x="206" y="-1182.3" font-family="Times,serif" font-size="14.00"> while True:</text>
</g>
<!-- Node0x37590970&#45;&gt;Node0x37592040 -->
<g id="edge4" class="edge"><title>Node0x37590970&#45;&gt;Node0x37592040</title>
<path fill="none" stroke="black" d="M195.382,-1264.27C204.905,-1251.76 217.693,-1234.96 228.335,-1220.99"/>
<polygon fill="black" stroke="black" points="231.362,-1222.79 234.635,-1212.71 225.793,-1218.55 231.362,-1222.79"/>
<text text-anchor="middle" x="246.5" y="-1234.8" font-family="Times,serif" font-size="14.00">v3 != 0</text>
</g>
<!-- Node0x3758f490 -->
<g id="node6" class="node"><title>Node0x3758f490</title>
<polygon fill="none" stroke="black" points="194.5,-23.5 194.5,-59.5 248.5,-59.5 248.5,-23.5 194.5,-23.5"/>
<text text-anchor="start" x="202.5" y="-37.8" font-family="Times,serif" font-size="14.00">exit:</text>
</g>
<!-- Node0x37591d40&#45;&gt;Node0x3758f490 -->
<g id="edge5" class="edge"><title>Node0x37591d40&#45;&gt;Node0x3758f490</title>
<path fill="none" stroke="black" d="M121.389,-1087.35C129.17,-1031.65 143.5,-915.657 143.5,-817 143.5,-817 143.5,-817 143.5,-138 143.5,-108.388 166.274,-82.8939 187.21,-65.7135"/>
<polygon fill="black" stroke="black" points="189.375,-68.464 195.093,-59.5448 185.06,-62.9514 189.375,-68.464"/>
</g>
<!-- Node0x37592150 -->
<g id="node7" class="node"><title>Node0x37592150</title>
<polygon fill="none" stroke="black" points="277,-835.5 277,-1068.5 720,-1068.5 720,-835.5 277,-835.5"/>
<text text-anchor="start" x="285" y="-1053.3" font-family="Times,serif" font-size="14.00">0x11a42b30:</text>
<text text-anchor="start" x="285" y="-1038.3" font-family="Times,serif" font-size="14.00"> v7 = ExtCastExpr&lt;int32&gt;(*(IntToPtrCastExpr&lt;ptr&gt;(v4)))</text>
<text text-anchor="start" x="285" y="-1023.3" font-family="Times,serif" font-size="14.00"> v8 = ExtCastExpr&lt;int32&gt;(*(IntToPtrCastExpr&lt;ptr&gt;(v5)))</text>
<text text-anchor="start" x="285" y="-1008.3" font-family="Times,serif" font-size="14.00"> v9 = (32 if (v7 &lt; 123) else 0)</text>
<text text-anchor="start" x="285" y="-993.3" font-family="Times,serif" font-size="14.00"> g37 = v9</text>
<text text-anchor="start" x="285" y="-978.3" font-family="Times,serif" font-size="14.00"> v10 = (32 if (v8 &lt; 123) else 0)</text>
<text text-anchor="start" x="285" y="-963.3" font-family="Times,serif" font-size="14.00"> g36 = v10</text>
<text text-anchor="start" x="285" y="-948.3" font-family="Times,serif" font-size="14.00"> v11 = ((v7 &#45; v9) % 256)</text>
<text text-anchor="start" x="285" y="-933.3" font-family="Times,serif" font-size="14.00"> v12 = ((v8 &#45; v10) % 256)</text>
<text text-anchor="start" x="285" y="-918.3" font-family="Times,serif" font-size="14.00"> g30 = v12</text>
<text text-anchor="start" x="285" y="-903.3" font-family="Times,serif" font-size="14.00"> g6 = (v11 &gt;= v12)</text>
<text text-anchor="start" x="285" y="-888.3" font-family="Times,serif" font-size="14.00"> g9 = (v11 == v12)</text>
<text text-anchor="start" x="285" y="-873.3" font-family="Times,serif" font-size="14.00"> g38 = (v4 + 1)</text>
<text text-anchor="start" x="285" y="-858.3" font-family="Times,serif" font-size="14.00"> g35 = (v5 + 1)</text>
<text text-anchor="start" x="285" y="-843.3" font-family="Times,serif" font-size="14.00"> v13 = v11</text>
</g>
<!-- Node0x37592040&#45;&gt;Node0x37592150 -->
<g id="edge6" class="edge"><title>Node0x37592040&#45;&gt;Node0x37592150</title>
<path fill="none" stroke="black" d="M267.291,-1174.5C289.947,-1152.79 330.057,-1114.37 370.576,-1075.55"/>
<polygon fill="black" stroke="black" points="373.075,-1078 377.875,-1068.56 368.233,-1072.95 373.075,-1078"/>
<text text-anchor="middle" x="376.5" y="-1117.8" font-family="Times,serif" font-size="14.00">True</text>
</g>
<!-- Node0x375928f0 -->
<g id="node8" class="node"><title>Node0x375928f0</title>
<polygon fill="none" stroke="black" points="433.5,-759.5 433.5,-797.5 563.5,-797.5 563.5,-759.5 433.5,-759.5"/>
<text text-anchor="start" x="441.5" y="-782.3" font-family="Times,serif" font-size="14.00">0x7f7f150:</text>
<text text-anchor="start" x="441.5" y="-767.3" font-family="Times,serif" font-size="14.00"> if (v11 != v12):</text>
</g>
<!-- Node0x37592150&#45;&gt;Node0x375928f0 -->
<g id="edge7" class="edge"><title>Node0x37592150&#45;&gt;Node0x375928f0</title>
<path fill="none" stroke="black" d="M498.5,-835.181C498.5,-825.254 498.5,-815.942 498.5,-807.881"/>
<polygon fill="black" stroke="black" points="502,-807.722 498.5,-797.722 495,-807.722 502,-807.722"/>
</g>
<!-- Node0x375931d0 -->
<g id="node9" class="node"><title>Node0x375931d0</title>
<polygon fill="none" stroke="black" points="306,-624.5 306,-707.5 539,-707.5 539,-624.5 306,-624.5"/>
<text text-anchor="start" x="314" y="-692.3" font-family="Times,serif" font-size="14.00">0x7f7e7c0:</text>
<text text-anchor="start" x="314" y="-677.3" font-family="Times,serif" font-size="14.00"> g29 = 0</text>
<text text-anchor="start" x="314" y="-662.3" font-family="Times,serif" font-size="14.00"> g38 = v1</text>
<text text-anchor="start" x="314" y="-647.3" font-family="Times,serif" font-size="14.00"> IntToPtrCastExpr&lt;ptr&gt;(v2)()</text>
<text text-anchor="start" x="314" y="-632.3" font-family="Times,serif" font-size="14.00"> v13 = g29</text>
</g>
<!-- Node0x375928f0&#45;&gt;Node0x375931d0 -->
<g id="edge8" class="edge"><title>Node0x375928f0&#45;&gt;Node0x375931d0</title>
<path fill="none" stroke="black" d="M485.95,-759.253C477.84,-747.461 466.866,-731.506 456.326,-716.182"/>
<polygon fill="black" stroke="black" points="459.087,-714.019 450.536,-707.764 453.32,-717.986 459.087,-714.019"/>
<text text-anchor="middle" x="511.5" y="-729.8" font-family="Times,serif" font-size="14.00">v11 != v12</text>
</g>
<!-- Node0x37592aa0 -->
<g id="node10" class="node"><title>Node0x37592aa0</title>
<polygon fill="none" stroke="black" points="374,-533.5 374,-586.5 513,-586.5 513,-533.5 374,-533.5"/>
<text text-anchor="start" x="382" y="-571.3" font-family="Times,serif" font-size="14.00">0x7f7f380:</text>
<text text-anchor="start" x="382" y="-556.3" font-family="Times,serif" font-size="14.00"> g6 = True</text>
<text text-anchor="start" x="382" y="-541.3" font-family="Times,serif" font-size="14.00"> g9 = (v13 == 0)</text>
</g>
<!-- Node0x375928f0&#45;&gt;Node0x37592aa0 -->
<g id="edge9" class="edge"><title>Node0x375928f0&#45;&gt;Node0x37592aa0</title>
<path fill="none" stroke="black" d="M538.505,-759.332C545.328,-754.386 551.496,-748.319 555.5,-741 569.039,-716.253 630.992,-758.714 548.5,-624 540.698,-611.258 529.265,-600.764 516.785,-592.244"/>
<polygon fill="black" stroke="black" points="518.324,-589.075 508.008,-586.658 514.565,-594.98 518.324,-589.075"/>
<text text-anchor="middle" x="632.5" y="-662.3" font-family="Times,serif" font-size="14.00">v11 == v12</text>
</g>
<!-- Node0x375931d0&#45;&gt;Node0x37592aa0 -->
<g id="edge10" class="edge"><title>Node0x375931d0&#45;&gt;Node0x37592aa0</title>
<path fill="none" stroke="black" d="M430.679,-624.493C432.554,-615.211 434.532,-605.414 436.358,-596.368"/>
<polygon fill="black" stroke="black" points="439.794,-597.036 438.343,-586.541 432.933,-595.651 439.794,-597.036"/>
</g>
<!-- Node0x37592bd0 -->
<g id="node11" class="node"><title>Node0x37592bd0</title>
<polygon fill="none" stroke="black" points="387,-457.5 387,-495.5 500,-495.5 500,-457.5 387,-457.5"/>
<text text-anchor="start" x="395" y="-480.3" font-family="Times,serif" font-size="14.00">0x7f810c0:</text>
<text text-anchor="start" x="395" y="-465.3" font-family="Times,serif" font-size="14.00"> if (v13 != 0):</text>
</g>
<!-- Node0x37592aa0&#45;&gt;Node0x37592bd0 -->
<g id="edge11" class="edge"><title>Node0x37592aa0&#45;&gt;Node0x37592bd0</title>
<path fill="none" stroke="black" d="M443.5,-533.213C443.5,-524.526 443.5,-514.787 443.5,-505.91"/>
<polygon fill="black" stroke="black" points="447,-505.638 443.5,-495.638 440,-505.638 447,-505.638"/>
</g>
<!-- Node0x37593470 -->
<g id="node12" class="node"><title>Node0x37593470</title>
<polygon fill="none" stroke="black" points="284,-322.5 284,-405.5 423,-405.5 423,-322.5 284,-322.5"/>
<text text-anchor="start" x="292" y="-390.3" font-family="Times,serif" font-size="14.00">0x163b0bf0:</text>
<text text-anchor="start" x="292" y="-375.3" font-family="Times,serif" font-size="14.00"> v14 = g33</text>
<text text-anchor="start" x="292" y="-360.3" font-family="Times,serif" font-size="14.00"> g6 = (v14 != 0)</text>
<text text-anchor="start" x="292" y="-345.3" font-family="Times,serif" font-size="14.00"> g9 = (v14 == 1)</text>
<text text-anchor="start" x="292" y="-330.3" font-family="Times,serif" font-size="14.00"> g33 = (v14 &#45; 1)</text>
</g>
<!-- Node0x37592bd0&#45;&gt;Node0x37593470 -->
<g id="edge12" class="edge"><title>Node0x37592bd0&#45;&gt;Node0x37593470</title>
<path fill="none" stroke="black" d="M396.607,-457.373C388.331,-452.445 380.468,-446.374 374.5,-439 368.945,-432.136 364.859,-423.882 361.853,-415.413"/>
<polygon fill="black" stroke="black" points="365.188,-414.349 358.898,-405.823 358.498,-416.41 365.188,-414.349"/>
<text text-anchor="middle" x="406" y="-427.8" font-family="Times,serif" font-size="14.00">v13 != 0</text>
</g>
<!-- Node0x37592f10 -->
<g id="node13" class="node"><title>Node0x37592f10</title>
<polygon fill="none" stroke="black" points="315,-97.5 315,-180.5 548,-180.5 548,-97.5 315,-97.5"/>
<text text-anchor="start" x="323" y="-165.3" font-family="Times,serif" font-size="14.00">0x7f81300:</text>
<text text-anchor="start" x="323" y="-150.3" font-family="Times,serif" font-size="14.00"> g29 = 1</text>
<text text-anchor="start" x="323" y="-135.3" font-family="Times,serif" font-size="14.00"> g38 = v2</text>
<text text-anchor="start" x="323" y="-120.3" font-family="Times,serif" font-size="14.00"> IntToPtrCastExpr&lt;ptr&gt;(v6)()</text>
<text text-anchor="start" x="323" y="-105.3" font-family="Times,serif" font-size="14.00"> return</text>
</g>
<!-- Node0x37592bd0&#45;&gt;Node0x37592f10 -->
<g id="edge13" class="edge"><title>Node0x37592bd0&#45;&gt;Node0x37592f10</title>
<path fill="none" stroke="black" d="M443.606,-457.363C443.754,-413.145 443.493,-296.286 437.5,-199 437.334,-196.299 437.138,-193.531 436.921,-190.738"/>
<polygon fill="black" stroke="black" points="440.393,-190.257 436.057,-180.59 433.418,-190.851 440.393,-190.257"/>
<text text-anchor="middle" x="476" y="-292.8" font-family="Times,serif" font-size="14.00">v13 == 0</text>
</g>
<!-- Node0x375936d0 -->
<g id="node14" class="node"><title>Node0x375936d0</title>
<polygon fill="none" stroke="black" points="297,-232.5 297,-270.5 410,-270.5 410,-232.5 297,-232.5"/>
<text text-anchor="start" x="305" y="-255.3" font-family="Times,serif" font-size="14.00">0x7f80f20:</text>
<text text-anchor="start" x="305" y="-240.3" font-family="Times,serif" font-size="14.00"> if (v14 != 0):</text>
</g>
<!-- Node0x37593470&#45;&gt;Node0x375936d0 -->
<g id="edge14" class="edge"><title>Node0x37593470&#45;&gt;Node0x375936d0</title>
<path fill="none" stroke="black" d="M353.5,-322.481C353.5,-308.761 353.5,-293.733 353.5,-281.133"/>
<polygon fill="black" stroke="black" points="357,-280.778 353.5,-270.778 350,-280.778 357,-280.778"/>
</g>
<!-- Node0x37592f10&#45;&gt;Node0x3758f490 -->
<g id="edge15" class="edge"><title>Node0x37592f10&#45;&gt;Node0x3758f490</title>
<path fill="none" stroke="black" d="M342.441,-97.4994C312.769,-84.0058 281.358,-69.7213 257.986,-59.0926"/>
<polygon fill="black" stroke="black" points="259.361,-55.8728 248.809,-54.9191 256.463,-62.2449 259.361,-55.8728"/>
</g>
<!-- Node0x375936d0&#45;&gt;Node0x37592f10 -->
<g id="edge17" class="edge"><title>Node0x375936d0&#45;&gt;Node0x37592f10</title>
<path fill="none" stroke="black" d="M356.321,-232.368C358.511,-222.032 362.261,-209.157 368.5,-199 370.706,-195.409 373.187,-191.895 375.857,-188.484"/>
<polygon fill="black" stroke="black" points="378.626,-190.629 382.388,-180.725 373.271,-186.121 378.626,-190.629"/>
<text text-anchor="middle" x="403" y="-202.8" font-family="Times,serif" font-size="14.00">v14 == 0</text>
</g>
<!-- Node0x37593960 -->
<g id="node15" class="node"><title>Node0x37593960</title>
<polygon fill="none" stroke="black" points="199.5,-105 199.5,-173 297.5,-173 297.5,-105 199.5,-105"/>
<text text-anchor="start" x="207.5" y="-157.8" font-family="Times,serif" font-size="14.00">0x7f80850:</text>
<text text-anchor="start" x="207.5" y="-142.8" font-family="Times,serif" font-size="14.00"> v5 = g35</text>
<text text-anchor="start" x="207.5" y="-127.8" font-family="Times,serif" font-size="14.00"> v4 = g38</text>
<text text-anchor="start" x="207.5" y="-112.8" font-family="Times,serif" font-size="14.00"> continue</text>
</g>
<!-- Node0x375936d0&#45;&gt;Node0x37593960 -->
<g id="edge16" class="edge"><title>Node0x375936d0&#45;&gt;Node0x37593960</title>
<path fill="none" stroke="black" d="M319.121,-232.376C310.848,-227.103 302.413,-220.884 295.5,-214 286.14,-204.679 277.724,-193.171 270.688,-182.032"/>
<polygon fill="black" stroke="black" points="273.526,-179.963 265.349,-173.226 267.541,-183.592 273.526,-179.963"/>
<text text-anchor="middle" x="327" y="-202.8" font-family="Times,serif" font-size="14.00">v14 != 0</text>
</g>
<!-- Node0x37593960&#45;&gt;Node0x37592040 -->
<g id="edge18" class="edge"><title>Node0x37593960&#45;&gt;Node0x37592040</title>
<path fill="none" stroke="black" d="M248.5,-173.365C248.5,-195.289 248.5,-224.602 248.5,-250.5 248.5,-953 248.5,-953 248.5,-953 248.5,-1029.44 248.5,-1119.61 248.5,-1164.36"/>
<polygon fill="black" stroke="black" points="245,-1164.47 248.5,-1174.47 252,-1164.47 245,-1164.47"/>
</g>
</g>
</svg>
