<?xml version="1.0" encoding="UTF-8" standalone="no"?>
<!DOCTYPE svg PUBLIC "-//W3C//DTD SVG 1.1//EN"
 "http://www.w3.org/Graphics/SVG/1.1/DTD/svg11.dtd">
<!-- Generated by graphviz version 2.38.0 (20140413.2041)
 -->
<!-- Title: Control&#45;flow graph for function &#39;function_19fe0()&#39;. Pages: 1 -->
<svg width="857pt" height="1450pt"
 viewBox="0.00 0.00 856.50 1450.00" xmlns="http://www.w3.org/2000/svg" xmlns:xlink="http://www.w3.org/1999/xlink">
<g id="graph0" class="graph" transform="scale(1 1) rotate(0) translate(4 1446)">
<title>Control&#45;flow graph for function &#39;function_19fe0()&#39;.</title>
<polygon fill="white" stroke="none" points="-4,4 -4,-1446 852.5,-1446 852.5,4 -4,4"/>
<text text-anchor="middle" x="424.25" y="-7.8" font-family="Times,serif" font-size="14.00">Control&#45;flow graph for function &#39;function_19fe0()&#39;.</text>
<!-- Node0x47a691c0 -->
<g id="node1" class="node"><title>Node0x47a691c0</title>
<polygon fill="none" stroke="black" points="529,-1405.5 529,-1441.5 588,-1441.5 588,-1405.5 529,-1405.5"/>
<text text-anchor="start" x="537" y="-1419.8" font-family="Times,serif" font-size="14.00">entry:</text>
</g>
<!-- Node0x2ba7dc30 -->
<g id="node2" class="node"><title>Node0x2ba7dc30</title>
<polygon fill="none" stroke="black" points="321,-894.5 321,-1367.5 796,-1367.5 796,-894.5 321,-894.5"/>
<text text-anchor="start" x="329" y="-1352.3" font-family="Times,serif" font-size="14.00">0x17798b00:</text>
<text text-anchor="start" x="329" y="-1337.3" font-family="Times,serif" font-size="14.00"> v1 = g30</text>
<text text-anchor="start" x="329" y="-1322.3" font-family="Times,serif" font-size="14.00"> g39 = v1</text>
<text text-anchor="start" x="329" y="-1307.3" font-family="Times,serif" font-size="14.00"> g41 = g29</text>
<text text-anchor="start" x="329" y="-1292.3" font-family="Times,serif" font-size="14.00"> g36 = 80</text>
<text text-anchor="start" x="329" y="-1277.3" font-family="Times,serif" font-size="14.00"> g30 = 1</text>
<text text-anchor="start" x="329" y="-1262.3" font-family="Times,serif" font-size="14.00"> g29 = v1</text>
<text text-anchor="start" x="329" y="-1247.3" font-family="Times,serif" font-size="14.00"> g35 = 106504</text>
<text text-anchor="start" x="329" y="-1232.3" font-family="Times,serif" font-size="14.00"> IntToPtrCastExpr&lt;ptr&gt;(*(IntToPtrCastExpr&lt;ptr&gt;((v1 + 4))))()</text>
<text text-anchor="start" x="329" y="-1217.3" font-family="Times,serif" font-size="14.00"> v2 = g41</text>
<text text-anchor="start" x="329" y="-1202.3" font-family="Times,serif" font-size="14.00"> g30 = *(IntToPtrCastExpr&lt;ptr&gt;((v2 + 4)))</text>
<text text-anchor="start" x="329" y="-1187.3" font-family="Times,serif" font-size="14.00"> v3 = g29</text>
<text text-anchor="start" x="329" y="-1172.3" font-family="Times,serif" font-size="14.00"> g40 = v3</text>
<text text-anchor="start" x="329" y="-1157.3" font-family="Times,serif" font-size="14.00"> *(IntToPtrCastExpr&lt;ptr&gt;(v3)) = v2</text>
<text text-anchor="start" x="329" y="-1142.3" font-family="Times,serif" font-size="14.00"> g30 = (4 * g30)</text>
<text text-anchor="start" x="329" y="-1127.3" font-family="Times,serif" font-size="14.00"> *(IntToPtrCastExpr&lt;ptr&gt;((g29 + 4))) = g39</text>
<text text-anchor="start" x="329" y="-1112.3" font-family="Times,serif" font-size="14.00"> v4 = g39</text>
<text text-anchor="start" x="329" y="-1097.3" font-family="Times,serif" font-size="14.00"> g29 = v4</text>
<text text-anchor="start" x="329" y="-1082.3" font-family="Times,serif" font-size="14.00"> g31 = *(IntToPtrCastExpr&lt;ptr&gt;((g41 + 28)))</text>
<text text-anchor="start" x="329" y="-1067.3" font-family="Times,serif" font-size="14.00"> g35 = 106540</text>
<text text-anchor="start" x="329" y="-1052.3" font-family="Times,serif" font-size="14.00"> IntToPtrCastExpr&lt;ptr&gt;(*(IntToPtrCastExpr&lt;ptr&gt;(v4)))()</text>
<text text-anchor="start" x="329" y="-1037.3" font-family="Times,serif" font-size="14.00"> g30 = *(IntToPtrCastExpr&lt;ptr&gt;((g41 + 4)))</text>
<text text-anchor="start" x="329" y="-1022.3" font-family="Times,serif" font-size="14.00"> *(IntToPtrCastExpr&lt;ptr&gt;((g40 + 32))) = g29</text>
<text text-anchor="start" x="329" y="-1007.3" font-family="Times,serif" font-size="14.00"> g30 = (4 * g30)</text>
<text text-anchor="start" x="329" y="-992.3" font-family="Times,serif" font-size="14.00"> v5 = g39</text>
<text text-anchor="start" x="329" y="-977.3" font-family="Times,serif" font-size="14.00"> g29 = v5</text>
<text text-anchor="start" x="329" y="-962.3" font-family="Times,serif" font-size="14.00"> g35 = 106564</text>
<text text-anchor="start" x="329" y="-947.3" font-family="Times,serif" font-size="14.00"> IntToPtrCastExpr&lt;ptr&gt;(*(IntToPtrCastExpr&lt;ptr&gt;(v5)))()</text>
<text text-anchor="start" x="329" y="-932.3" font-family="Times,serif" font-size="14.00"> g42 = 0</text>
<text text-anchor="start" x="329" y="-917.3" font-family="Times,serif" font-size="14.00"> *(IntToPtrCastExpr&lt;ptr&gt;((g40 + 36))) = g29</text>
<text text-anchor="start" x="329" y="-902.3" font-family="Times,serif" font-size="14.00"> v6 = g42</text>
</g>
<!-- Node0x47a691c0&#45;&gt;Node0x2ba7dc30 -->
<g id="edge1" class="edge"><title>Node0x47a691c0&#45;&gt;Node0x2ba7dc30</title>
<path fill="none" stroke="black" d="M558.5,-1405.2C558.5,-1397.9 558.5,-1388.59 558.5,-1377.84"/>
<polygon fill="black" stroke="black" points="562,-1377.57 558.5,-1367.57 555,-1377.57 562,-1377.57"/>
</g>
<!-- Node0x1038abf0 -->
<g id="node3" class="node"><title>Node0x1038abf0</title>
<polygon fill="none" stroke="black" points="508,-818.5 508,-856.5 609,-856.5 609,-818.5 508,-818.5"/>
<text text-anchor="start" x="516" y="-841.3" font-family="Times,serif" font-size="14.00">0x8eeb680:</text>
<text text-anchor="start" x="516" y="-826.3" font-family="Times,serif" font-size="14.00"> while True:</text>
</g>
<!-- Node0x2ba7dc30&#45;&gt;Node0x1038abf0 -->
<g id="edge2" class="edge"><title>Node0x2ba7dc30&#45;&gt;Node0x1038abf0</title>
<path fill="none" stroke="black" d="M558.5,-894.359C558.5,-884.208 558.5,-875.011 558.5,-867.143"/>
<polygon fill="black" stroke="black" points="562,-866.945 558.5,-856.945 555,-866.945 562,-866.945"/>
</g>
<!-- Node0x393383f0 -->
<g id="node4" class="node"><title>Node0x393383f0</title>
<polygon fill="none" stroke="black" points="250,-623.5 250,-766.5 579,-766.5 579,-623.5 250,-623.5"/>
<text text-anchor="start" x="258" y="-751.3" font-family="Times,serif" font-size="14.00">0x4356c130:</text>
<text text-anchor="start" x="258" y="-736.3" font-family="Times,serif" font-size="14.00"> v7 = *(IntToPtrCastExpr&lt;ptr&gt;((g41 + 4)))</text>
<text text-anchor="start" x="258" y="-721.3" font-family="Times,serif" font-size="14.00"> g37 = v7</text>
<text text-anchor="start" x="258" y="-706.3" font-family="Times,serif" font-size="14.00"> g30 = 1</text>
<text text-anchor="start" x="258" y="-691.3" font-family="Times,serif" font-size="14.00"> v8 = (v6 &#45; v7)</text>
<text text-anchor="start" x="258" y="-676.3" font-family="Times,serif" font-size="14.00"> g8 = (((v8 ^ v6) &amp; (v7 ^ v6)) &lt; 0)</text>
<text text-anchor="start" x="258" y="-661.3" font-family="Times,serif" font-size="14.00"> g7 = (v8 &lt; 0)</text>
<text text-anchor="start" x="258" y="-646.3" font-family="Times,serif" font-size="14.00"> v9 = g39</text>
<text text-anchor="start" x="258" y="-631.3" font-family="Times,serif" font-size="14.00"> g29 = v9</text>
</g>
<!-- Node0x1038abf0&#45;&gt;Node0x393383f0 -->
<g id="edge3" class="edge"><title>Node0x1038abf0&#45;&gt;Node0x393383f0</title>
<path fill="none" stroke="black" d="M539.969,-818.42C527.939,-806.682 511.346,-790.492 494.164,-773.728"/>
<polygon fill="black" stroke="black" points="496.378,-770.998 486.776,-766.519 491.489,-776.008 496.378,-770.998"/>
<text text-anchor="middle" x="537.5" y="-788.8" font-family="Times,serif" font-size="14.00">True</text>
</g>
<!-- Node0x243f3e10 -->
<g id="node5" class="node"><title>Node0x243f3e10</title>
<polygon fill="none" stroke="black" points="355.5,-547.5 355.5,-585.5 473.5,-585.5 473.5,-547.5 355.5,-547.5"/>
<text text-anchor="start" x="363.5" y="-570.3" font-family="Times,serif" font-size="14.00">0x8ee6300:</text>
<text text-anchor="start" x="363.5" y="-555.3" font-family="Times,serif" font-size="14.00"> if (v6 &gt;= v7):</text>
</g>
<!-- Node0x393383f0&#45;&gt;Node0x243f3e10 -->
<g id="edge4" class="edge"><title>Node0x393383f0&#45;&gt;Node0x243f3e10</title>
<path fill="none" stroke="black" d="M414.5,-623.353C414.5,-613.594 414.5,-604.073 414.5,-595.737"/>
<polygon fill="black" stroke="black" points="418,-595.54 414.5,-585.54 411,-595.54 418,-595.54"/>
</g>
<!-- Node0x3e126340 -->
<g id="node6" class="node"><title>Node0x3e126340</title>
<polygon fill="none" stroke="black" points="0,-97.5 0,-495.5 347,-495.5 347,-97.5 0,-97.5"/>
<text text-anchor="start" x="8" y="-480.3" font-family="Times,serif" font-size="14.00">0x8ee4930:</text>
<text text-anchor="start" x="8" y="-465.3" font-family="Times,serif" font-size="14.00"> g37 = 0</text>
<text text-anchor="start" x="8" y="-450.3" font-family="Times,serif" font-size="14.00"> *(IntToPtrCastExpr&lt;ptr&gt;((g40 + 52))) = 0</text>
<text text-anchor="start" x="8" y="-435.3" font-family="Times,serif" font-size="14.00"> *(IntToPtrCastExpr&lt;ptr&gt;((g40 + 48))) = g37</text>
<text text-anchor="start" x="8" y="-420.3" font-family="Times,serif" font-size="14.00"> g29 = g40</text>
<text text-anchor="start" x="8" y="-405.3" font-family="Times,serif" font-size="14.00"> function_19f8c()</text>
<text text-anchor="start" x="8" y="-390.3" font-family="Times,serif" font-size="14.00"> g29 = g40</text>
<text text-anchor="start" x="8" y="-375.3" font-family="Times,serif" font-size="14.00"> v10</text>
<text text-anchor="start" x="8" y="-360.3" font-family="Times,serif" font-size="14.00"> g38 = v10</text>
<text text-anchor="start" x="8" y="-345.3" font-family="Times,serif" font-size="14.00"> v11</text>
<text text-anchor="start" x="8" y="-330.3" font-family="Times,serif" font-size="14.00"> g39 = v11</text>
<text text-anchor="start" x="8" y="-315.3" font-family="Times,serif" font-size="14.00"> v12</text>
<text text-anchor="start" x="8" y="-300.3" font-family="Times,serif" font-size="14.00"> g40 = v12</text>
<text text-anchor="start" x="8" y="-285.3" font-family="Times,serif" font-size="14.00"> v13</text>
<text text-anchor="start" x="8" y="-270.3" font-family="Times,serif" font-size="14.00"> g41 = v13</text>
<text text-anchor="start" x="8" y="-255.3" font-family="Times,serif" font-size="14.00"> v14</text>
<text text-anchor="start" x="8" y="-240.3" font-family="Times,serif" font-size="14.00"> g42 = v14</text>
<text text-anchor="start" x="8" y="-225.3" font-family="Times,serif" font-size="14.00"> v15</text>
<text text-anchor="start" x="8" y="-210.3" font-family="Times,serif" font-size="14.00"> g31 = v15</text>
<text text-anchor="start" x="8" y="-195.3" font-family="Times,serif" font-size="14.00"> v16</text>
<text text-anchor="start" x="8" y="-180.3" font-family="Times,serif" font-size="14.00"> g32 = v16</text>
<text text-anchor="start" x="8" y="-165.3" font-family="Times,serif" font-size="14.00"> v17</text>
<text text-anchor="start" x="8" y="-150.3" font-family="Times,serif" font-size="14.00"> g34 = v17</text>
<text text-anchor="start" x="8" y="-135.3" font-family="Times,serif" font-size="14.00"> v18</text>
<text text-anchor="start" x="8" y="-120.3" font-family="Times,serif" font-size="14.00"> IntToPtrCastExpr&lt;ptr&gt;(v18)()</text>
<text text-anchor="start" x="8" y="-105.3" font-family="Times,serif" font-size="14.00"> return</text>
</g>
<!-- Node0x243f3e10&#45;&gt;Node0x3e126340 -->
<g id="edge5" class="edge"><title>Node0x243f3e10&#45;&gt;Node0x3e126340</title>
<path fill="none" stroke="black" d="M391.008,-547.279C384.181,-541.651 376.856,-535.277 370.5,-529 362.066,-520.671 353.595,-512.022 345.159,-503.172"/>
<polygon fill="black" stroke="black" points="347.499,-500.552 338.083,-495.694 342.414,-505.363 347.499,-500.552"/>
<text text-anchor="middle" x="404.5" y="-517.8" font-family="Times,serif" font-size="14.00">v6 &gt;= v7</text>
</g>
<!-- Node0x14709920 -->
<g id="node7" class="node"><title>Node0x14709920</title>
<polygon fill="none" stroke="black" points="364.5,-157.5 364.5,-435.5 848.5,-435.5 848.5,-157.5 364.5,-157.5"/>
<text text-anchor="start" x="372.5" y="-420.3" font-family="Times,serif" font-size="14.00">0x8ee6d00:</text>
<text text-anchor="start" x="372.5" y="-405.3" font-family="Times,serif" font-size="14.00"> g38 = *(IntToPtrCastExpr&lt;ptr&gt;((g40 + 32)))</text>
<text text-anchor="start" x="372.5" y="-390.3" font-family="Times,serif" font-size="14.00"> g36 = (4 * (*(IntToPtrCastExpr&lt;ptr&gt;((g31 + 4))) / 2))</text>
<text text-anchor="start" x="372.5" y="-375.3" font-family="Times,serif" font-size="14.00"> g35 = 106600</text>
<text text-anchor="start" x="372.5" y="-360.3" font-family="Times,serif" font-size="14.00"> IntToPtrCastExpr&lt;ptr&gt;(*(IntToPtrCastExpr&lt;ptr&gt;((v9 + 4))))()</text>
<text text-anchor="start" x="372.5" y="-345.3" font-family="Times,serif" font-size="14.00"> g36 = *(IntToPtrCastExpr&lt;ptr&gt;((g31 + 4)))</text>
<text text-anchor="start" x="372.5" y="-330.3" font-family="Times,serif" font-size="14.00"> *(IntToPtrCastExpr&lt;ptr&gt;(((4 * g42) + g38))) = g29</text>
<text text-anchor="start" x="372.5" y="-315.3" font-family="Times,serif" font-size="14.00"> g36 = (g36 &amp; &#45;4)</text>
<text text-anchor="start" x="372.5" y="-300.3" font-family="Times,serif" font-size="14.00"> v19 = g39</text>
<text text-anchor="start" x="372.5" y="-285.3" font-family="Times,serif" font-size="14.00"> g29 = v19</text>
<text text-anchor="start" x="372.5" y="-270.3" font-family="Times,serif" font-size="14.00"> g30 = 1</text>
<text text-anchor="start" x="372.5" y="-255.3" font-family="Times,serif" font-size="14.00"> g38 = *(IntToPtrCastExpr&lt;ptr&gt;((g40 + 36)))</text>
<text text-anchor="start" x="372.5" y="-240.3" font-family="Times,serif" font-size="14.00"> g35 = 106632</text>
<text text-anchor="start" x="372.5" y="-225.3" font-family="Times,serif" font-size="14.00"> IntToPtrCastExpr&lt;ptr&gt;(*(IntToPtrCastExpr&lt;ptr&gt;((v19 + 4))))()</text>
<text text-anchor="start" x="372.5" y="-210.3" font-family="Times,serif" font-size="14.00"> *(IntToPtrCastExpr&lt;ptr&gt;(((4 * g42) + g38))) = g29</text>
<text text-anchor="start" x="372.5" y="-195.3" font-family="Times,serif" font-size="14.00"> v20 = (g42 + 1)</text>
<text text-anchor="start" x="372.5" y="-180.3" font-family="Times,serif" font-size="14.00"> g42 = v20</text>
<text text-anchor="start" x="372.5" y="-165.3" font-family="Times,serif" font-size="14.00"> v6 = v20</text>
</g>
<!-- Node0x243f3e10&#45;&gt;Node0x14709920 -->
<g id="edge6" class="edge"><title>Node0x243f3e10&#45;&gt;Node0x14709920</title>
<path fill="none" stroke="black" d="M427.396,-547.5C443.279,-525.329 471.823,-485.487 501.523,-444.03"/>
<polygon fill="black" stroke="black" points="504.497,-445.889 507.475,-435.722 498.806,-441.813 504.497,-445.889"/>
<text text-anchor="middle" x="479.5" y="-517.8" font-family="Times,serif" font-size="14.00">v6 &lt; v7</text>
</g>
<!-- Node0x14708600 -->
<g id="node8" class="node"><title>Node0x14708600</title>
<polygon fill="none" stroke="black" points="146.5,-23.5 146.5,-59.5 200.5,-59.5 200.5,-23.5 146.5,-23.5"/>
<text text-anchor="start" x="154.5" y="-37.8" font-family="Times,serif" font-size="14.00">exit:</text>
</g>
<!-- Node0x3e126340&#45;&gt;Node0x14708600 -->
<g id="edge7" class="edge"><title>Node0x3e126340&#45;&gt;Node0x14708600</title>
<path fill="none" stroke="black" d="M173.5,-97.3972C173.5,-87.1992 173.5,-77.9269 173.5,-70.0257"/>
<polygon fill="black" stroke="black" points="177,-69.815 173.5,-59.815 170,-69.815 177,-69.815"/>
</g>
<!-- Node0x14709920&#45;&gt;Node0x1038abf0 -->
<g id="edge8" class="edge"><title>Node0x14709920&#45;&gt;Node0x1038abf0</title>
<path fill="none" stroke="black" d="M613.636,-435.509C615.434,-529.935 611.768,-657.384 587.5,-767 584.333,-781.303 578.383,-796.399 572.693,-808.855"/>
<polygon fill="black" stroke="black" points="569.377,-807.678 568.243,-818.212 575.699,-810.684 569.377,-807.678"/>
</g>
</g>
</svg>
