<?xml version="1.0" encoding="UTF-8" standalone="no"?>
<!DOCTYPE svg PUBLIC "-//W3C//DTD SVG 1.1//EN"
 "http://www.w3.org/Graphics/SVG/1.1/DTD/svg11.dtd">
<!-- Generated by graphviz version 2.38.0 (20140413.2041)
 -->
<!-- Title: Control&#45;flow graph for function &#39;function_166ec()&#39;. Pages: 1 -->
<svg width="708pt" height="821pt"
 viewBox="0.00 0.00 708.00 821.00" xmlns="http://www.w3.org/2000/svg" xmlns:xlink="http://www.w3.org/1999/xlink">
<g id="graph0" class="graph" transform="scale(1 1) rotate(0) translate(4 817)">
<title>Control&#45;flow graph for function &#39;function_166ec()&#39;.</title>
<polygon fill="white" stroke="none" points="-4,4 -4,-817 704,-817 704,4 -4,4"/>
<text text-anchor="middle" x="350" y="-7.8" font-family="Times,serif" font-size="14.00">Control&#45;flow graph for function &#39;function_166ec()&#39;.</text>
<!-- Node0x24629ec0 -->
<g id="node1" class="node"><title>Node0x24629ec0</title>
<polygon fill="none" stroke="black" points="436,-776.5 436,-812.5 495,-812.5 495,-776.5 436,-776.5"/>
<text text-anchor="start" x="444" y="-790.8" font-family="Times,serif" font-size="14.00">entry:</text>
</g>
<!-- Node0x3eaeaf20 -->
<g id="node2" class="node"><title>Node0x3eaeaf20</title>
<polygon fill="none" stroke="black" points="400.5,-625.5 400.5,-738.5 530.5,-738.5 530.5,-625.5 400.5,-625.5"/>
<text text-anchor="start" x="408.5" y="-723.3" font-family="Times,serif" font-size="14.00">0x22970640:</text>
<text text-anchor="start" x="408.5" y="-708.3" font-family="Times,serif" font-size="14.00"> v1 = NULL</text>
<text text-anchor="start" x="408.5" y="-693.3" font-family="Times,serif" font-size="14.00"> g37 = 165012</text>
<text text-anchor="start" x="408.5" y="-678.3" font-family="Times,serif" font-size="14.00"> v2 = g18</text>
<text text-anchor="start" x="408.5" y="-663.3" font-family="Times,serif" font-size="14.00"> g36 = v2</text>
<text text-anchor="start" x="408.5" y="-648.3" font-family="Times,serif" font-size="14.00"> g9 = (v2 == 0)</text>
<text text-anchor="start" x="408.5" y="-633.3" font-family="Times,serif" font-size="14.00"> g30 = g29</text>
</g>
<!-- Node0x24629ec0&#45;&gt;Node0x3eaeaf20 -->
<g id="edge1" class="edge"><title>Node0x24629ec0&#45;&gt;Node0x3eaeaf20</title>
<path fill="none" stroke="black" d="M465.5,-776.234C465.5,-768.586 465.5,-759.056 465.5,-749.033"/>
<polygon fill="black" stroke="black" points="469,-748.897 465.5,-738.897 462,-748.897 469,-748.897"/>
</g>
<!-- Node0x1516ae00 -->
<g id="node3" class="node"><title>Node0x1516ae00</title>
<polygon fill="none" stroke="black" points="410.5,-549.5 410.5,-587.5 520.5,-587.5 520.5,-549.5 410.5,-549.5"/>
<text text-anchor="start" x="418.5" y="-572.3" font-family="Times,serif" font-size="14.00">0x84e2650:</text>
<text text-anchor="start" x="418.5" y="-557.3" font-family="Times,serif" font-size="14.00"> if (v2 == 0):</text>
</g>
<!-- Node0x3eaeaf20&#45;&gt;Node0x1516ae00 -->
<g id="edge2" class="edge"><title>Node0x3eaeaf20&#45;&gt;Node0x1516ae00</title>
<path fill="none" stroke="black" d="M465.5,-625.25C465.5,-615.862 465.5,-606.474 465.5,-598.151"/>
<polygon fill="black" stroke="black" points="469,-597.912 465.5,-587.912 462,-597.912 469,-597.912"/>
</g>
<!-- Node0x2e912c80 -->
<g id="node4" class="node"><title>Node0x2e912c80</title>
<polygon fill="none" stroke="black" points="366,-459.5 366,-497.5 467,-497.5 467,-459.5 366,-459.5"/>
<text text-anchor="start" x="374" y="-482.3" font-family="Times,serif" font-size="14.00">0x84e2110:</text>
<text text-anchor="start" x="374" y="-467.3" font-family="Times,serif" font-size="14.00"> g29 = 6</text>
</g>
<!-- Node0x1516ae00&#45;&gt;Node0x2e912c80 -->
<g id="edge3" class="edge"><title>Node0x1516ae00&#45;&gt;Node0x2e912c80</title>
<path fill="none" stroke="black" d="M443.927,-549.413C438.551,-543.977 433.256,-537.67 429.5,-531 425.473,-523.849 422.675,-515.446 420.738,-507.525"/>
<polygon fill="black" stroke="black" points="424.123,-506.612 418.656,-497.536 417.27,-508.04 424.123,-506.612"/>
<text text-anchor="middle" x="459.5" y="-519.8" font-family="Times,serif" font-size="14.00">v2 == 0</text>
</g>
<!-- Node0x1eb16f20 -->
<g id="node5" class="node"><title>Node0x1eb16f20</title>
<polygon fill="none" stroke="black" points="251,-263.5 251,-421.5 700,-421.5 700,-263.5 251,-263.5"/>
<text text-anchor="start" x="259" y="-406.3" font-family="Times,serif" font-size="14.00">0x84e2cc0:</text>
<text text-anchor="start" x="259" y="-391.3" font-family="Times,serif" font-size="14.00"> g34 = PtrToIntCastExpr&lt;int32&gt;(v1)</text>
<text text-anchor="start" x="259" y="-376.3" font-family="Times,serif" font-size="14.00"> IntToPtrCastExpr&lt;ptr&gt;(ExtCastExpr&lt;int32&gt;((v2 == 0)))()</text>
<text text-anchor="start" x="259" y="-361.3" font-family="Times,serif" font-size="14.00"> g29 = g36</text>
<text text-anchor="start" x="259" y="-346.3" font-family="Times,serif" font-size="14.00"> function_10648()</text>
<text text-anchor="start" x="259" y="-331.3" font-family="Times,serif" font-size="14.00"> g29 = 0</text>
<text text-anchor="start" x="259" y="-316.3" font-family="Times,serif" font-size="14.00"> g32 = *(IntToPtrCastExpr&lt;ptr&gt;(g34))</text>
<text text-anchor="start" x="259" y="-301.3" font-family="Times,serif" font-size="14.00"> g34 = v1[&#39;1&#39;]</text>
<text text-anchor="start" x="259" y="-286.3" font-family="Times,serif" font-size="14.00"> IntToPtrCastExpr&lt;ptr&gt;(v1[&#39;2&#39;])()</text>
<text text-anchor="start" x="259" y="-271.3" font-family="Times,serif" font-size="14.00"> v3 = (g40 % 256)</text>
</g>
<!-- Node0x1516ae00&#45;&gt;Node0x1eb16f20 -->
<g id="edge4" class="edge"><title>Node0x1516ae00&#45;&gt;Node0x1eb16f20</title>
<path fill="none" stroke="black" d="M480.469,-549.234C484.152,-543.705 487.586,-537.394 489.5,-531 498.917,-499.537 498.77,-463.843 495.121,-432.105"/>
<polygon fill="black" stroke="black" points="498.563,-431.424 493.821,-421.949 491.62,-432.313 498.563,-431.424"/>
<text text-anchor="middle" x="524.5" y="-474.8" font-family="Times,serif" font-size="14.00">v2 != 0</text>
</g>
<!-- Node0x2e912c80&#45;&gt;Node0x1eb16f20 -->
<g id="edge5" class="edge"><title>Node0x2e912c80&#45;&gt;Node0x1eb16f20</title>
<path fill="none" stroke="black" d="M424.457,-459.428C427.912,-451.582 432.233,-441.768 436.89,-431.191"/>
<polygon fill="black" stroke="black" points="440.229,-432.293 441.055,-421.73 433.822,-429.472 440.229,-432.293"/>
</g>
<!-- Node0x1516b030 -->
<g id="node6" class="node"><title>Node0x1516b030</title>
<polygon fill="none" stroke="black" points="427.5,-187.5 427.5,-225.5 523.5,-225.5 523.5,-187.5 427.5,-187.5"/>
<text text-anchor="start" x="435.5" y="-210.3" font-family="Times,serif" font-size="14.00">0x84e6cf0:</text>
<text text-anchor="start" x="435.5" y="-195.3" font-family="Times,serif" font-size="14.00"> if g9:</text>
</g>
<!-- Node0x1eb16f20&#45;&gt;Node0x1516b030 -->
<g id="edge6" class="edge"><title>Node0x1eb16f20&#45;&gt;Node0x1516b030</title>
<path fill="none" stroke="black" d="M475.5,-263.164C475.5,-253.447 475.5,-244.058 475.5,-235.846"/>
<polygon fill="black" stroke="black" points="479,-235.801 475.5,-225.801 472,-235.801 479,-235.801"/>
</g>
<!-- Node0x37ef2720 -->
<g id="node7" class="node"><title>Node0x37ef2720</title>
<polygon fill="none" stroke="black" points="0,-97.5 0,-135.5 513,-135.5 513,-97.5 0,-97.5"/>
<text text-anchor="start" x="8" y="-120.3" font-family="Times,serif" font-size="14.00">0x84e6aa0:</text>
<text text-anchor="start" x="8" y="-105.3" font-family="Times,serif" font-size="14.00"> g30 = (g29 &amp; (g38 &gt;&gt; (0 if (v3 == 0) else (31 if (v3 &gt; 31) else v3))))</text>
</g>
<!-- Node0x1516b030&#45;&gt;Node0x37ef2720 -->
<g id="edge7" class="edge"><title>Node0x1516b030&#45;&gt;Node0x37ef2720</title>
<path fill="none" stroke="black" d="M430.654,-187.48C396.077,-173.586 348.099,-154.307 311.255,-139.502"/>
<polygon fill="black" stroke="black" points="312.246,-136.128 301.662,-135.647 309.636,-142.624 312.246,-136.128"/>
<text text-anchor="middle" x="389" y="-157.8" font-family="Times,serif" font-size="14.00">g9</text>
</g>
<!-- Node0x2462af70 -->
<g id="node8" class="node"><title>Node0x2462af70</title>
<polygon fill="none" stroke="black" points="442.5,-23.5 442.5,-59.5 496.5,-59.5 496.5,-23.5 442.5,-23.5"/>
<text text-anchor="start" x="450.5" y="-37.8" font-family="Times,serif" font-size="14.00">exit:</text>
</g>
<!-- Node0x1516b030&#45;&gt;Node0x2462af70 -->
<g id="edge8" class="edge"><title>Node0x1516b030&#45;&gt;Node0x2462af70</title>
<path fill="none" stroke="black" d="M492.943,-187.179C511.179,-165.695 535.475,-128.953 522.5,-97 517.806,-85.4403 509.352,-74.9864 500.555,-66.3978"/>
<polygon fill="black" stroke="black" points="502.902,-63.8016 493.159,-59.6389 498.179,-68.9687 502.902,-63.8016"/>
<text text-anchor="middle" x="554" y="-112.8" font-family="Times,serif" font-size="14.00">not (g9)</text>
</g>
<!-- Node0x37ef2720&#45;&gt;Node0x2462af70 -->
<g id="edge9" class="edge"><title>Node0x37ef2720&#45;&gt;Node0x2462af70</title>
<path fill="none" stroke="black" d="M309.152,-97.4551C347.611,-84.2742 398.784,-66.736 432.868,-55.0545"/>
<polygon fill="black" stroke="black" points="434.109,-58.3293 442.434,-51.7762 431.839,-51.7074 434.109,-58.3293"/>
</g>
</g>
</svg>
