<?xml version="1.0" encoding="UTF-8" standalone="no"?>
<!DOCTYPE svg PUBLIC "-//W3C//DTD SVG 1.1//EN"
 "http://www.w3.org/Graphics/SVG/1.1/DTD/svg11.dtd">
<!-- Generated by graphviz version 2.38.0 (20140413.2041)
 -->
<!-- Title: Control&#45;flow graph for function &#39;function_fabc()&#39;. Pages: 1 -->
<svg width="640pt" height="276pt"
 viewBox="0.00 0.00 640.00 276.00" xmlns="http://www.w3.org/2000/svg" xmlns:xlink="http://www.w3.org/1999/xlink">
<g id="graph0" class="graph" transform="scale(1 1) rotate(0) translate(4 272)">
<title>Control&#45;flow graph for function &#39;function_fabc()&#39;.</title>
<polygon fill="white" stroke="none" points="-4,4 -4,-272 636,-272 636,4 -4,4"/>
<text text-anchor="middle" x="316" y="-7.8" font-family="Times,serif" font-size="14.00">Control&#45;flow graph for function &#39;function_fabc()&#39;.</text>
<!-- Node0x3364a8a0 -->
<g id="node1" class="node"><title>Node0x3364a8a0</title>
<polygon fill="none" stroke="black" points="286.5,-231.5 286.5,-267.5 345.5,-267.5 345.5,-231.5 286.5,-231.5"/>
<text text-anchor="start" x="294.5" y="-245.8" font-family="Times,serif" font-size="14.00">entry:</text>
</g>
<!-- Node0x32b45760 -->
<g id="node2" class="node"><title>Node0x32b45760</title>
<polygon fill="none" stroke="black" points="-5.68434e-14,-96.5 -5.68434e-14,-194.5 632,-194.5 632,-96.5 -5.68434e-14,-96.5"/>
<text text-anchor="start" x="8" y="-179.3" font-family="Times,serif" font-size="14.00">0x3c18c850:</text>
<text text-anchor="start" x="8" y="-164.3" font-family="Times,serif" font-size="14.00"> v1 = g29</text>
<text text-anchor="start" x="8" y="-149.3" font-family="Times,serif" font-size="14.00"> g36 = v1</text>
<text text-anchor="start" x="8" y="-134.3" font-family="Times,serif" font-size="14.00"> g9 = (*(IntToPtrCastExpr&lt;ptr&gt;((*(IntToPtrCastExpr&lt;ptr&gt;((v1 + 16))) + 23))) == 0)</text>
<text text-anchor="start" x="8" y="-119.3" font-family="Times,serif" font-size="14.00"> g29 = *(IntToPtrCastExpr&lt;ptr&gt;((v1 + 20)))</text>
<text text-anchor="start" x="8" y="-104.3" font-family="Times,serif" font-size="14.00"> function_211c4()</text>
</g>
<!-- Node0x3364a8a0&#45;&gt;Node0x32b45760 -->
<g id="edge1" class="edge"><title>Node0x3364a8a0&#45;&gt;Node0x32b45760</title>
<path fill="none" stroke="black" d="M316,-231.197C316,-223.688 316,-214.415 316,-204.789"/>
<polygon fill="black" stroke="black" points="319.5,-204.688 316,-194.688 312.5,-204.688 319.5,-204.688"/>
</g>
<!-- Node0x32b49680 -->
<g id="node3" class="node"><title>Node0x32b49680</title>
<polygon fill="none" stroke="black" points="289,-23.5 289,-59.5 343,-59.5 343,-23.5 289,-23.5"/>
<text text-anchor="start" x="297" y="-37.8" font-family="Times,serif" font-size="14.00">exit:</text>
</g>
<!-- Node0x32b45760&#45;&gt;Node0x32b49680 -->
<g id="edge2" class="edge"><title>Node0x32b45760&#45;&gt;Node0x32b49680</title>
<path fill="none" stroke="black" d="M316,-96.4868C316,-87.2893 316,-77.9618 316,-69.7064"/>
<polygon fill="black" stroke="black" points="319.5,-69.5725 316,-59.5725 312.5,-69.5725 319.5,-69.5725"/>
</g>
</g>
</svg>
