<?xml version="1.0" encoding="UTF-8" standalone="no"?>
<!DOCTYPE svg PUBLIC "-//W3C//DTD SVG 1.1//EN"
 "http://www.w3.org/Graphics/SVG/1.1/DTD/svg11.dtd">
<!-- Generated by graphviz version 2.38.0 (20140413.2041)
 -->
<!-- Title: Control&#45;flow graph for function &#39;function_10b44()&#39;. Pages: 1 -->
<svg width="492pt" height="1077pt"
 viewBox="0.00 0.00 492.00 1077.00" xmlns="http://www.w3.org/2000/svg" xmlns:xlink="http://www.w3.org/1999/xlink">
<g id="graph0" class="graph" transform="scale(1 1) rotate(0) translate(4 1073)">
<title>Control&#45;flow graph for function &#39;function_10b44()&#39;.</title>
<polygon fill="white" stroke="none" points="-4,4 -4,-1073 488,-1073 488,4 -4,4"/>
<text text-anchor="middle" x="242" y="-7.8" font-family="Times,serif" font-size="14.00">Control&#45;flow graph for function &#39;function_10b44()&#39;.</text>
<!-- Node0x4723c150 -->
<g id="node1" class="node"><title>Node0x4723c150</title>
<polygon fill="none" stroke="black" points="198.5,-1032.5 198.5,-1068.5 257.5,-1068.5 257.5,-1032.5 198.5,-1032.5"/>
<text text-anchor="start" x="206.5" y="-1046.8" font-family="Times,serif" font-size="14.00">entry:</text>
</g>
<!-- Node0x31ab4250 -->
<g id="node2" class="node"><title>Node0x31ab4250</title>
<polygon fill="none" stroke="black" points="54.5,-896.5 54.5,-994.5 401.5,-994.5 401.5,-896.5 54.5,-896.5"/>
<text text-anchor="start" x="62.5" y="-979.3" font-family="Times,serif" font-size="14.00">0x148f2770:</text>
<text text-anchor="start" x="62.5" y="-964.3" font-family="Times,serif" font-size="14.00"> v1 = *(IntToPtrCastExpr&lt;ptr&gt;((g29 + 188)))</text>
<text text-anchor="start" x="62.5" y="-949.3" font-family="Times,serif" font-size="14.00"> g37 = v1</text>
<text text-anchor="start" x="62.5" y="-934.3" font-family="Times,serif" font-size="14.00"> g8 = (((2 &#45; v1) &amp; v1) &lt; 0)</text>
<text text-anchor="start" x="62.5" y="-919.3" font-family="Times,serif" font-size="14.00"> g7 = (v1 &lt; 3)</text>
<text text-anchor="start" x="62.5" y="-904.3" font-family="Times,serif" font-size="14.00"> g9 = (v1 == 3)</text>
</g>
<!-- Node0x4723c150&#45;&gt;Node0x31ab4250 -->
<g id="edge1" class="edge"><title>Node0x4723c150&#45;&gt;Node0x31ab4250</title>
<path fill="none" stroke="black" d="M228,-1032.49C228,-1024.69 228,-1014.94 228,-1004.83"/>
<polygon fill="black" stroke="black" points="231.5,-1004.66 228,-994.659 224.5,-1004.66 231.5,-1004.66"/>
</g>
<!-- Node0x2e5e48b0 -->
<g id="node3" class="node"><title>Node0x2e5e48b0</title>
<polygon fill="none" stroke="black" points="179,-820.5 179,-858.5 277,-858.5 277,-820.5 179,-820.5"/>
<text text-anchor="start" x="187" y="-843.3" font-family="Times,serif" font-size="14.00">0x7af2710:</text>
<text text-anchor="start" x="187" y="-828.3" font-family="Times,serif" font-size="14.00"> if (v1 &gt; 3):</text>
</g>
<!-- Node0x31ab4250&#45;&gt;Node0x2e5e48b0 -->
<g id="edge2" class="edge"><title>Node0x31ab4250&#45;&gt;Node0x2e5e48b0</title>
<path fill="none" stroke="black" d="M228,-896.458C228,-886.952 228,-877.27 228,-868.69"/>
<polygon fill="black" stroke="black" points="231.5,-868.509 228,-858.509 224.5,-868.509 231.5,-868.509"/>
</g>
<!-- Node0x2e5e88b0 -->
<g id="node4" class="node"><title>Node0x2e5e88b0</title>
<polygon fill="none" stroke="black" points="126.5,-730.5 126.5,-768.5 223.5,-768.5 223.5,-730.5 126.5,-730.5"/>
<text text-anchor="start" x="134.5" y="-753.3" font-family="Times,serif" font-size="14.00">0x7af2550:</text>
<text text-anchor="start" x="134.5" y="-738.3" font-family="Times,serif" font-size="14.00"> g29 = &#45;45</text>
</g>
<!-- Node0x2e5e48b0&#45;&gt;Node0x2e5e88b0 -->
<g id="edge3" class="edge"><title>Node0x2e5e48b0&#45;&gt;Node0x2e5e88b0</title>
<path fill="none" stroke="black" d="M211.416,-820.281C206.745,-814.653 201.884,-808.278 198,-802 193.385,-794.54 189.184,-785.996 185.672,-778.038"/>
<polygon fill="black" stroke="black" points="188.859,-776.59 181.748,-768.736 182.41,-779.31 188.859,-776.59"/>
<text text-anchor="middle" x="222" y="-790.8" font-family="Times,serif" font-size="14.00">v1 &gt; 3</text>
</g>
<!-- Node0x2e5e4fb0 -->
<g id="node5" class="node"><title>Node0x2e5e4fb0</title>
<polygon fill="none" stroke="black" points="13.5,-534.5 13.5,-692.5 450.5,-692.5 450.5,-534.5 13.5,-534.5"/>
<text text-anchor="start" x="21.5" y="-677.3" font-family="Times,serif" font-size="14.00">0x1c3357f0:</text>
<text text-anchor="start" x="21.5" y="-662.3" font-family="Times,serif" font-size="14.00"> v2</text>
<text text-anchor="start" x="21.5" y="-647.3" font-family="Times,serif" font-size="14.00"> g34 = v2</text>
<text text-anchor="start" x="21.5" y="-632.3" font-family="Times,serif" font-size="14.00"> IntToPtrCastExpr&lt;ptr&gt;(ExtCastExpr&lt;int32&gt;((v1 &gt; 3)))()</text>
<text text-anchor="start" x="21.5" y="-617.3" font-family="Times,serif" font-size="14.00"> g29 = *(IntToPtrCastExpr&lt;ptr&gt;((g38 + 12)))</text>
<text text-anchor="start" x="21.5" y="-602.3" font-family="Times,serif" font-size="14.00"> function_7614()</text>
<text text-anchor="start" x="21.5" y="-587.3" font-family="Times,serif" font-size="14.00"> v3 = g29</text>
<text text-anchor="start" x="21.5" y="-572.3" font-family="Times,serif" font-size="14.00"> g8 = False</text>
<text text-anchor="start" x="21.5" y="-557.3" font-family="Times,serif" font-size="14.00"> g7 = (v3 &lt; 0)</text>
<text text-anchor="start" x="21.5" y="-542.3" font-family="Times,serif" font-size="14.00"> g9 = (v3 == 0)</text>
</g>
<!-- Node0x2e5e48b0&#45;&gt;Node0x2e5e4fb0 -->
<g id="edge4" class="edge"><title>Node0x2e5e48b0&#45;&gt;Node0x2e5e4fb0</title>
<path fill="none" stroke="black" d="M239.069,-820.173C241.903,-814.543 244.556,-808.193 246,-802 247.514,-795.507 246.27,-793.661 246,-787 244.889,-759.581 242.789,-729.77 240.547,-702.764"/>
<polygon fill="black" stroke="black" points="244.014,-702.23 239.682,-692.561 237.039,-702.821 244.014,-702.23"/>
<text text-anchor="middle" x="276" y="-745.8" font-family="Times,serif" font-size="14.00">v1 &lt;= 3</text>
</g>
<!-- Node0x2e5e88b0&#45;&gt;Node0x2e5e4fb0 -->
<g id="edge5" class="edge"><title>Node0x2e5e88b0&#45;&gt;Node0x2e5e4fb0</title>
<path fill="none" stroke="black" d="M182.687,-730.428C186.025,-722.582 190.199,-712.768 194.699,-702.191"/>
<polygon fill="black" stroke="black" points="198.029,-703.302 198.723,-692.73 191.588,-700.562 198.029,-703.302"/>
</g>
<!-- Node0x2e5e62b0 -->
<g id="node6" class="node"><title>Node0x2e5e62b0</title>
<polygon fill="none" stroke="black" points="177,-458.5 177,-496.5 287,-496.5 287,-458.5 177,-458.5"/>
<text text-anchor="start" x="185" y="-481.3" font-family="Times,serif" font-size="14.00">0x7b011e0:</text>
<text text-anchor="start" x="185" y="-466.3" font-family="Times,serif" font-size="14.00"> if (v3 == 0):</text>
</g>
<!-- Node0x2e5e4fb0&#45;&gt;Node0x2e5e62b0 -->
<g id="edge6" class="edge"><title>Node0x2e5e4fb0&#45;&gt;Node0x2e5e62b0</title>
<path fill="none" stroke="black" d="M232,-534.164C232,-524.447 232,-515.058 232,-506.846"/>
<polygon fill="black" stroke="black" points="235.5,-506.801 232,-496.801 228.5,-506.801 235.5,-506.801"/>
</g>
<!-- Node0x2e5e8eb0 -->
<g id="node7" class="node"><title>Node0x2e5e8eb0</title>
<polygon fill="none" stroke="black" points="136.5,-368.5 136.5,-406.5 233.5,-406.5 233.5,-368.5 136.5,-368.5"/>
<text text-anchor="start" x="144.5" y="-391.3" font-family="Times,serif" font-size="14.00">0x7af4030:</text>
<text text-anchor="start" x="144.5" y="-376.3" font-family="Times,serif" font-size="14.00"> g29 = &#45;1</text>
</g>
<!-- Node0x2e5e62b0&#45;&gt;Node0x2e5e8eb0 -->
<g id="edge7" class="edge"><title>Node0x2e5e62b0&#45;&gt;Node0x2e5e8eb0</title>
<path fill="none" stroke="black" d="M209.889,-458.123C204.644,-452.773 199.548,-446.581 196,-440 192.139,-432.838 189.632,-424.431 188.006,-416.511"/>
<polygon fill="black" stroke="black" points="191.438,-415.809 186.335,-406.524 184.534,-416.965 191.438,-415.809"/>
<text text-anchor="middle" x="226" y="-428.8" font-family="Times,serif" font-size="14.00">v3 == 0</text>
</g>
<!-- Node0x2e5e6bb0 -->
<g id="node8" class="node"><title>Node0x2e5e6bb0</title>
<polygon fill="none" stroke="black" points="0,-97.5 0,-330.5 484,-330.5 484,-97.5 0,-97.5"/>
<text text-anchor="start" x="8" y="-315.3" font-family="Times,serif" font-size="14.00">0x1c3358d0:</text>
<text text-anchor="start" x="8" y="-300.3" font-family="Times,serif" font-size="14.00"> v4 = g34</text>
<text text-anchor="start" x="8" y="-285.3" font-family="Times,serif" font-size="14.00"> g38 = *(IntToPtrCastExpr&lt;ptr&gt;((v4 + 4)))</text>
<text text-anchor="start" x="8" y="-270.3" font-family="Times,serif" font-size="14.00"> g32 = *(IntToPtrCastExpr&lt;ptr&gt;((v4 + 8)))</text>
<text text-anchor="start" x="8" y="-255.3" font-family="Times,serif" font-size="14.00"> g34 = *(IntToPtrCastExpr&lt;ptr&gt;((v4 + 12)))</text>
<text text-anchor="start" x="8" y="-240.3" font-family="Times,serif" font-size="14.00"> IntToPtrCastExpr&lt;ptr&gt;(ExtCastExpr&lt;int32&gt;((v3 == 0)))()</text>
<text text-anchor="start" x="8" y="-225.3" font-family="Times,serif" font-size="14.00"> g29 = *(IntToPtrCastExpr&lt;ptr&gt;((g38 + 20)))</text>
<text text-anchor="start" x="8" y="-210.3" font-family="Times,serif" font-size="14.00"> g30 = 3</text>
<text text-anchor="start" x="8" y="-195.3" font-family="Times,serif" font-size="14.00"> function_21c70()</text>
<text text-anchor="start" x="8" y="-180.3" font-family="Times,serif" font-size="14.00"> g29 = 0</text>
<text text-anchor="start" x="8" y="-165.3" font-family="Times,serif" font-size="14.00"> v5 = g34</text>
<text text-anchor="start" x="8" y="-150.3" font-family="Times,serif" font-size="14.00"> g38 = *(IntToPtrCastExpr&lt;ptr&gt;((v5 + 4)))</text>
<text text-anchor="start" x="8" y="-135.3" font-family="Times,serif" font-size="14.00"> g32 = *(IntToPtrCastExpr&lt;ptr&gt;((v5 + 8)))</text>
<text text-anchor="start" x="8" y="-120.3" font-family="Times,serif" font-size="14.00"> g34 = *(IntToPtrCastExpr&lt;ptr&gt;((v5 + 12)))</text>
<text text-anchor="start" x="8" y="-105.3" font-family="Times,serif" font-size="14.00"> IntToPtrCastExpr&lt;ptr&gt;(*(IntToPtrCastExpr&lt;ptr&gt;((v5 + 16))))()</text>
</g>
<!-- Node0x2e5e62b0&#45;&gt;Node0x2e5e6bb0 -->
<g id="edge8" class="edge"><title>Node0x2e5e62b0&#45;&gt;Node0x2e5e6bb0</title>
<path fill="none" stroke="black" d="M246.969,-458.234C250.652,-452.705 254.086,-446.394 256,-440 257.912,-433.613 256.222,-431.663 256,-425 255.093,-397.761 253.526,-368.567 251.761,-340.87"/>
<polygon fill="black" stroke="black" points="255.244,-340.491 251.102,-330.739 248.258,-340.945 255.244,-340.491"/>
<text text-anchor="middle" x="283" y="-383.8" font-family="Times,serif" font-size="14.00">v3 != 0</text>
</g>
<!-- Node0x2e5e8eb0&#45;&gt;Node0x2e5e6bb0 -->
<g id="edge9" class="edge"><title>Node0x2e5e8eb0&#45;&gt;Node0x2e5e6bb0</title>
<path fill="none" stroke="black" d="M190.992,-368.471C193.557,-360.755 196.789,-351.031 200.375,-340.239"/>
<polygon fill="black" stroke="black" points="203.778,-341.097 203.611,-330.504 197.136,-338.89 203.778,-341.097"/>
</g>
<!-- Node0x456070b0 -->
<g id="node9" class="node"><title>Node0x456070b0</title>
<polygon fill="none" stroke="black" points="215,-23.5 215,-59.5 269,-59.5 269,-23.5 215,-23.5"/>
<text text-anchor="start" x="223" y="-37.8" font-family="Times,serif" font-size="14.00">exit:</text>
</g>
<!-- Node0x2e5e6bb0&#45;&gt;Node0x456070b0 -->
<g id="edge10" class="edge"><title>Node0x2e5e6bb0&#45;&gt;Node0x456070b0</title>
<path fill="none" stroke="black" d="M242,-97.3858C242,-87.4233 242,-78.0972 242,-70.0599"/>
<polygon fill="black" stroke="black" points="245.5,-69.9601 242,-59.9601 238.5,-69.9602 245.5,-69.9601"/>
</g>
</g>
</svg>
