<?xml version="1.0" encoding="UTF-8" standalone="no"?>
<!DOCTYPE svg PUBLIC "-//W3C//DTD SVG 1.1//EN"
 "http://www.w3.org/Graphics/SVG/1.1/DTD/svg11.dtd">
<!-- Generated by graphviz version 2.38.0 (20140413.2041)
 -->
<!-- Title: Control&#45;flow graph for function &#39;function_f380()&#39;. Pages: 1 -->
<svg width="373pt" height="535pt"
 viewBox="0.00 0.00 373.00 535.00" xmlns="http://www.w3.org/2000/svg" xmlns:xlink="http://www.w3.org/1999/xlink">
<g id="graph0" class="graph" transform="scale(1 1) rotate(0) translate(4 531)">
<title>Control&#45;flow graph for function &#39;function_f380()&#39;.</title>
<polygon fill="white" stroke="none" points="-4,4 -4,-531 369,-531 369,4 -4,4"/>
<text text-anchor="middle" x="182.5" y="-7.8" font-family="Times,serif" font-size="14.00">Control&#45;flow graph for function &#39;function_f380()&#39;.</text>
<!-- Node0x3fb540f0 -->
<g id="node1" class="node"><title>Node0x3fb540f0</title>
<polygon fill="none" stroke="black" points="145,-490.5 145,-526.5 204,-526.5 204,-490.5 145,-490.5"/>
<text text-anchor="start" x="153" y="-504.8" font-family="Times,serif" font-size="14.00">entry:</text>
</g>
<!-- Node0x3fb55b10 -->
<g id="node2" class="node"><title>Node0x3fb55b10</title>
<polygon fill="none" stroke="black" points="109.5,-384.5 109.5,-452.5 239.5,-452.5 239.5,-384.5 109.5,-384.5"/>
<text text-anchor="start" x="117.5" y="-437.3" font-family="Times,serif" font-size="14.00">0x34b6a020:</text>
<text text-anchor="start" x="117.5" y="-422.3" font-family="Times,serif" font-size="14.00"> v1 = g30</text>
<text text-anchor="start" x="117.5" y="-407.3" font-family="Times,serif" font-size="14.00"> g9 = (v1 == 0)</text>
<text text-anchor="start" x="117.5" y="-392.3" font-family="Times,serif" font-size="14.00"> g33 = 165012</text>
</g>
<!-- Node0x3fb540f0&#45;&gt;Node0x3fb55b10 -->
<g id="edge1" class="edge"><title>Node0x3fb540f0&#45;&gt;Node0x3fb55b10</title>
<path fill="none" stroke="black" d="M174.5,-490.114C174.5,-482.158 174.5,-472.343 174.5,-462.588"/>
<polygon fill="black" stroke="black" points="178,-462.524 174.5,-452.524 171,-462.524 178,-462.524"/>
</g>
<!-- Node0x3fb57400 -->
<g id="node3" class="node"><title>Node0x3fb57400</title>
<polygon fill="none" stroke="black" points="119.5,-308.5 119.5,-346.5 229.5,-346.5 229.5,-308.5 119.5,-308.5"/>
<text text-anchor="start" x="127.5" y="-331.3" font-family="Times,serif" font-size="14.00">0x77dbed0:</text>
<text text-anchor="start" x="127.5" y="-316.3" font-family="Times,serif" font-size="14.00"> if (v1 == 0):</text>
</g>
<!-- Node0x3fb55b10&#45;&gt;Node0x3fb57400 -->
<g id="edge2" class="edge"><title>Node0x3fb55b10&#45;&gt;Node0x3fb57400</title>
<path fill="none" stroke="black" d="M174.5,-384.36C174.5,-375.365 174.5,-365.707 174.5,-356.993"/>
<polygon fill="black" stroke="black" points="178,-356.941 174.5,-346.941 171,-356.941 178,-356.941"/>
</g>
<!-- Node0x3e4ebfc0 -->
<g id="node4" class="node"><title>Node0x3e4ebfc0</title>
<polygon fill="none" stroke="black" points="57,-203.5 57,-256.5 176,-256.5 176,-203.5 57,-203.5"/>
<text text-anchor="start" x="65" y="-241.3" font-family="Times,serif" font-size="14.00">0x77db6d0:</text>
<text text-anchor="start" x="65" y="-226.3" font-family="Times,serif" font-size="14.00"> g37 = &#45;96616</text>
<text text-anchor="start" x="65" y="-211.3" font-family="Times,serif" font-size="14.00"> g30 = 68396</text>
</g>
<!-- Node0x3fb57400&#45;&gt;Node0x3e4ebfc0 -->
<g id="edge3" class="edge"><title>Node0x3fb57400&#45;&gt;Node0x3e4ebfc0</title>
<path fill="none" stroke="black" d="M153.403,-308.128C148.029,-302.69 142.616,-296.454 138.5,-290 133.903,-282.792 130.062,-274.482 126.943,-266.416"/>
<polygon fill="black" stroke="black" points="130.162,-265.023 123.496,-256.788 123.572,-267.383 130.162,-265.023"/>
<text text-anchor="middle" x="168.5" y="-278.8" font-family="Times,serif" font-size="14.00">v1 == 0</text>
</g>
<!-- Node0x3e4ebe20 -->
<g id="node5" class="node"><title>Node0x3e4ebe20</title>
<polygon fill="none" stroke="black" points="0,-97.5 0,-165.5 365,-165.5 365,-97.5 0,-97.5"/>
<text text-anchor="start" x="8" y="-150.3" font-family="Times,serif" font-size="14.00">0x77dc850:</text>
<text text-anchor="start" x="8" y="-135.3" font-family="Times,serif" font-size="14.00"> *(IntToPtrCastExpr&lt;ptr&gt;((g29 + 2348))) = g36</text>
<text text-anchor="start" x="8" y="-120.3" font-family="Times,serif" font-size="14.00"> *(IntToPtrCastExpr&lt;ptr&gt;((g29 + 2344))) = g30</text>
<text text-anchor="start" x="8" y="-105.3" font-family="Times,serif" font-size="14.00"> g29 = 0</text>
</g>
<!-- Node0x3fb57400&#45;&gt;Node0x3e4ebe20 -->
<g id="edge4" class="edge"><title>Node0x3fb57400&#45;&gt;Node0x3e4ebe20</title>
<path fill="none" stroke="black" d="M189.469,-308.234C193.152,-302.705 196.586,-296.394 198.5,-290 209.736,-252.461 203.495,-207.885 195.758,-175.752"/>
<polygon fill="black" stroke="black" points="199.077,-174.606 193.213,-165.782 192.295,-176.337 199.077,-174.606"/>
<text text-anchor="middle" x="232.5" y="-226.3" font-family="Times,serif" font-size="14.00">v1 != 0</text>
</g>
<!-- Node0x3e4ebfc0&#45;&gt;Node0x3e4ebe20 -->
<g id="edge5" class="edge"><title>Node0x3e4ebfc0&#45;&gt;Node0x3e4ebe20</title>
<path fill="none" stroke="black" d="M134.014,-203.393C140.219,-194.32 147.37,-183.864 154.241,-173.819"/>
<polygon fill="black" stroke="black" points="157.163,-175.746 159.919,-165.516 151.385,-171.794 157.163,-175.746"/>
</g>
<!-- Node0x3fb56600 -->
<g id="node6" class="node"><title>Node0x3fb56600</title>
<polygon fill="none" stroke="black" points="155.5,-23.5 155.5,-59.5 209.5,-59.5 209.5,-23.5 155.5,-23.5"/>
<text text-anchor="start" x="163.5" y="-37.8" font-family="Times,serif" font-size="14.00">exit:</text>
</g>
<!-- Node0x3e4ebe20&#45;&gt;Node0x3fb56600 -->
<g id="edge6" class="edge"><title>Node0x3e4ebe20&#45;&gt;Node0x3fb56600</title>
<path fill="none" stroke="black" d="M182.5,-97.4817C182.5,-88.3281 182.5,-78.4972 182.5,-69.7155"/>
<polygon fill="black" stroke="black" points="186,-69.6402 182.5,-59.6402 179,-69.6403 186,-69.6402"/>
</g>
</g>
</svg>
