<?xml version="1.0" encoding="UTF-8" standalone="no"?>
<!DOCTYPE svg PUBLIC "-//W3C//DTD SVG 1.1//EN"
 "http://www.w3.org/Graphics/SVG/1.1/DTD/svg11.dtd">
<!-- Generated by graphviz version 2.38.0 (20140413.2041)
 -->
<!-- Title: Control&#45;flow graph for function &#39;function_241fe()&#39;. Pages: 1 -->
<svg width="382pt" height="246pt"
 viewBox="0.00 0.00 382.00 246.00" xmlns="http://www.w3.org/2000/svg" xmlns:xlink="http://www.w3.org/1999/xlink">
<g id="graph0" class="graph" transform="scale(1 1) rotate(0) translate(4 242)">
<title>Control&#45;flow graph for function &#39;function_241fe()&#39;.</title>
<polygon fill="white" stroke="none" points="-4,4 -4,-242 378,-242 378,4 -4,4"/>
<text text-anchor="middle" x="187" y="-7.8" font-family="Times,serif" font-size="14.00">Control&#45;flow graph for function &#39;function_241fe()&#39;.</text>
<!-- Node0x2430d970 -->
<g id="node1" class="node"><title>Node0x2430d970</title>
<polygon fill="none" stroke="black" points="157.5,-201.5 157.5,-237.5 216.5,-237.5 216.5,-201.5 157.5,-201.5"/>
<text text-anchor="start" x="165.5" y="-215.8" font-family="Times,serif" font-size="14.00">entry:</text>
</g>
<!-- Node0x2430fa20 -->
<g id="node2" class="node"><title>Node0x2430fa20</title>
<polygon fill="none" stroke="black" points="117.5,-96.5 117.5,-164.5 256.5,-164.5 256.5,-96.5 117.5,-96.5"/>
<text text-anchor="start" x="125.5" y="-149.3" font-family="Times,serif" font-size="14.00">0xa564a70:</text>
<text text-anchor="start" x="125.5" y="-134.3" font-family="Times,serif" font-size="14.00"> g29 = 8</text>
<text text-anchor="start" x="125.5" y="-119.3" font-family="Times,serif" font-size="14.00"> g30 = 24</text>
<text text-anchor="start" x="125.5" y="-104.3" font-family="Times,serif" font-size="14.00"> function_23f6c()</text>
</g>
<!-- Node0x2430d970&#45;&gt;Node0x2430fa20 -->
<g id="edge1" class="edge"><title>Node0x2430d970&#45;&gt;Node0x2430fa20</title>
<path fill="none" stroke="black" d="M187,-201.312C187,-193.602 187,-184.126 187,-174.671"/>
<polygon fill="black" stroke="black" points="190.5,-174.503 187,-164.503 183.5,-174.503 190.5,-174.503"/>
</g>
<!-- Node0x27523c50 -->
<g id="node3" class="node"><title>Node0x27523c50</title>
<polygon fill="none" stroke="black" points="160,-23.5 160,-59.5 214,-59.5 214,-23.5 160,-23.5"/>
<text text-anchor="start" x="168" y="-37.8" font-family="Times,serif" font-size="14.00">exit:</text>
</g>
<!-- Node0x2430fa20&#45;&gt;Node0x27523c50 -->
<g id="edge2" class="edge"><title>Node0x2430fa20&#45;&gt;Node0x27523c50</title>
<path fill="none" stroke="black" d="M187,-96.1123C187,-87.3522 187,-78.0128 187,-69.6246"/>
<polygon fill="black" stroke="black" points="190.5,-69.6235 187,-59.6235 183.5,-69.6235 190.5,-69.6235"/>
</g>
</g>
</svg>
