<?xml version="1.0" encoding="UTF-8" standalone="no"?>
<!DOCTYPE svg PUBLIC "-//W3C//DTD SVG 1.1//EN"
 "http://www.w3.org/Graphics/SVG/1.1/DTD/svg11.dtd">
<!-- Generated by graphviz version 2.38.0 (20140413.2041)
 -->
<!-- Title: Control&#45;flow graph for function &#39;function_3a4c()&#39;. Pages: 1 -->
<svg width="810pt" height="2732pt"
 viewBox="0.00 0.00 810.00 2732.00" xmlns="http://www.w3.org/2000/svg" xmlns:xlink="http://www.w3.org/1999/xlink">
<g id="graph0" class="graph" transform="scale(1 1) rotate(0) translate(4 2728)">
<title>Control&#45;flow graph for function &#39;function_3a4c()&#39;.</title>
<polygon fill="white" stroke="none" points="-4,4 -4,-2728 806,-2728 806,4 -4,4"/>
<text text-anchor="middle" x="401" y="-7.8" font-family="Times,serif" font-size="14.00">Control&#45;flow graph for function &#39;function_3a4c()&#39;.</text>
<!-- Node0x24655f50 -->
<g id="node1" class="node"><title>Node0x24655f50</title>
<polygon fill="none" stroke="black" points="503,-2687.5 503,-2723.5 562,-2723.5 562,-2687.5 503,-2687.5"/>
<text text-anchor="start" x="511" y="-2701.8" font-family="Times,serif" font-size="14.00">entry:</text>
</g>
<!-- Node0x24654d60 -->
<g id="node2" class="node"><title>Node0x24654d60</title>
<polygon fill="none" stroke="black" points="263,-2491.5 263,-2649.5 802,-2649.5 802,-2491.5 263,-2491.5"/>
<text text-anchor="start" x="271" y="-2634.3" font-family="Times,serif" font-size="14.00">0xf270d60:</text>
<text text-anchor="start" x="271" y="-2619.3" font-family="Times,serif" font-size="14.00"> v1 = NULL</text>
<text text-anchor="start" x="271" y="-2604.3" font-family="Times,serif" font-size="14.00"> v2 = g29</text>
<text text-anchor="start" x="271" y="-2589.3" font-family="Times,serif" font-size="14.00"> v3 = *(IntToPtrCastExpr&lt;ptr&gt;((*(IntToPtrCastExpr&lt;ptr&gt;(v2)) + 180)))</text>
<text text-anchor="start" x="271" y="-2574.3" font-family="Times,serif" font-size="14.00"> g37 = v3</text>
<text text-anchor="start" x="271" y="-2559.3" font-family="Times,serif" font-size="14.00"> v4 = g38</text>
<text text-anchor="start" x="271" y="-2544.3" font-family="Times,serif" font-size="14.00"> v5 = g39</text>
<text text-anchor="start" x="271" y="-2529.3" font-family="Times,serif" font-size="14.00"> v6 = g32</text>
<text text-anchor="start" x="271" y="-2514.3" font-family="Times,serif" font-size="14.00"> g7 = False</text>
<text text-anchor="start" x="271" y="-2499.3" font-family="Times,serif" font-size="14.00"> g9 = ((v3 &amp; 2) == 0)</text>
</g>
<!-- Node0x24655f50&#45;&gt;Node0x24654d60 -->
<g id="edge1" class="edge"><title>Node0x24655f50&#45;&gt;Node0x24654d60</title>
<path fill="none" stroke="black" d="M532.5,-2687.38C532.5,-2679.78 532.5,-2670.21 532.5,-2659.83"/>
<polygon fill="black" stroke="black" points="536,-2659.68 532.5,-2649.68 529,-2659.68 536,-2659.68"/>
</g>
<!-- Node0x3eed2e00 -->
<g id="node3" class="node"><title>Node0x3eed2e00</title>
<polygon fill="none" stroke="black" points="457,-2415.5 457,-2453.5 608,-2453.5 608,-2415.5 457,-2415.5"/>
<text text-anchor="start" x="465" y="-2438.3" font-family="Times,serif" font-size="14.00">0x50f2560:</text>
<text text-anchor="start" x="465" y="-2423.3" font-family="Times,serif" font-size="14.00"> if ((v3 &amp; 2) == 0):</text>
</g>
<!-- Node0x24654d60&#45;&gt;Node0x3eed2e00 -->
<g id="edge2" class="edge"><title>Node0x24654d60&#45;&gt;Node0x3eed2e00</title>
<path fill="none" stroke="black" d="M532.5,-2491.16C532.5,-2481.45 532.5,-2472.06 532.5,-2463.85"/>
<polygon fill="black" stroke="black" points="536,-2463.8 532.5,-2453.8 529,-2463.8 536,-2463.8"/>
</g>
<!-- Node0x437894a0 -->
<g id="node4" class="node"><title>Node0x437894a0</title>
<polygon fill="none" stroke="black" points="259,-2235.5 259,-2363.5 578,-2363.5 578,-2235.5 259,-2235.5"/>
<text text-anchor="start" x="267" y="-2348.3" font-family="Times,serif" font-size="14.00">0x1482ed80:</text>
<text text-anchor="start" x="267" y="-2333.3" font-family="Times,serif" font-size="14.00"> v7 = *(IntToPtrCastExpr&lt;ptr&gt;((v2 + 8)))</text>
<text text-anchor="start" x="267" y="-2318.3" font-family="Times,serif" font-size="14.00"> v8 = v7</text>
<text text-anchor="start" x="267" y="-2303.3" font-family="Times,serif" font-size="14.00"> g37 = v8</text>
<text text-anchor="start" x="267" y="-2288.3" font-family="Times,serif" font-size="14.00"> g6 = (v7 &gt; 4)</text>
<text text-anchor="start" x="267" y="-2273.3" font-family="Times,serif" font-size="14.00"> g8 = (((4 &#45; v8) &amp; v8) &lt; 0)</text>
<text text-anchor="start" x="267" y="-2258.3" font-family="Times,serif" font-size="14.00"> g7 = (v8 &lt; 5)</text>
<text text-anchor="start" x="267" y="-2243.3" font-family="Times,serif" font-size="14.00"> g9 = (v7 == 5)</text>
</g>
<!-- Node0x3eed2e00&#45;&gt;Node0x437894a0 -->
<g id="edge3" class="edge"><title>Node0x3eed2e00&#45;&gt;Node0x437894a0</title>
<path fill="none" stroke="black" d="M512.654,-2415.43C506.649,-2409.7 500.152,-2403.24 494.5,-2397 487.208,-2388.96 479.811,-2380.29 472.638,-2371.58"/>
<polygon fill="black" stroke="black" points="475.151,-2369.12 466.124,-2363.58 469.723,-2373.54 475.151,-2369.12"/>
<text text-anchor="middle" x="545" y="-2385.8" font-family="Times,serif" font-size="14.00">(v3 &amp; 2) == 0</text>
</g>
<!-- Node0x359907e0 -->
<g id="node5" class="node"><title>Node0x359907e0</title>
<polygon fill="none" stroke="black" points="156,-714.5 156,-1187.5 649,-1187.5 649,-714.5 156,-714.5"/>
<text text-anchor="start" x="164" y="-1172.3" font-family="Times,serif" font-size="14.00">0x50f27a0:</text>
<text text-anchor="start" x="164" y="-1157.3" font-family="Times,serif" font-size="14.00"> g29 = 0</text>
<text text-anchor="start" x="164" y="-1142.3" font-family="Times,serif" font-size="14.00"> v12 = g34</text>
<text text-anchor="start" x="164" y="-1127.3" font-family="Times,serif" font-size="14.00"> g38 = *(IntToPtrCastExpr&lt;ptr&gt;(v12))</text>
<text text-anchor="start" x="164" y="-1112.3" font-family="Times,serif" font-size="14.00"> g39 = *(IntToPtrCastExpr&lt;ptr&gt;((v12 + 4)))</text>
<text text-anchor="start" x="164" y="-1097.3" font-family="Times,serif" font-size="14.00"> g32 = *(IntToPtrCastExpr&lt;ptr&gt;((v12 + 8)))</text>
<text text-anchor="start" x="164" y="-1082.3" font-family="Times,serif" font-size="14.00"> g34 = *(IntToPtrCastExpr&lt;ptr&gt;((v12 + 12)))</text>
<text text-anchor="start" x="164" y="-1067.3" font-family="Times,serif" font-size="14.00"> IntToPtrCastExpr&lt;ptr&gt;(*(IntToPtrCastExpr&lt;ptr&gt;((v12 + 16))))()</text>
<text text-anchor="start" x="164" y="-1052.3" font-family="Times,serif" font-size="14.00"> v13 = g34</text>
<text text-anchor="start" x="164" y="-1037.3" font-family="Times,serif" font-size="14.00"> g33 = v13</text>
<text text-anchor="start" x="164" y="-1022.3" font-family="Times,serif" font-size="14.00"> *(IntToPtrCastExpr&lt;ptr&gt;((v13 &#45; 32))) = g38</text>
<text text-anchor="start" x="164" y="-1007.3" font-family="Times,serif" font-size="14.00"> *(IntToPtrCastExpr&lt;ptr&gt;((v13 &#45; 28))) = g39</text>
<text text-anchor="start" x="164" y="-992.3" font-family="Times,serif" font-size="14.00"> *(IntToPtrCastExpr&lt;ptr&gt;((v13 &#45; 24))) = g40</text>
<text text-anchor="start" x="164" y="-977.3" font-family="Times,serif" font-size="14.00"> *(IntToPtrCastExpr&lt;ptr&gt;((v13 &#45; 20))) = g41</text>
<text text-anchor="start" x="164" y="-962.3" font-family="Times,serif" font-size="14.00"> *(IntToPtrCastExpr&lt;ptr&gt;((v13 &#45; 16))) = g32</text>
<text text-anchor="start" x="164" y="-947.3" font-family="Times,serif" font-size="14.00"> *(IntToPtrCastExpr&lt;ptr&gt;((v13 &#45; 12))) = g33</text>
<text text-anchor="start" x="164" y="-932.3" font-family="Times,serif" font-size="14.00"> *(IntToPtrCastExpr&lt;ptr&gt;((v13 &#45; 8))) = g35</text>
<text text-anchor="start" x="164" y="-917.3" font-family="Times,serif" font-size="14.00"> *(IntToPtrCastExpr&lt;ptr&gt;((v13 &#45; 4))) = 15040</text>
<text text-anchor="start" x="164" y="-902.3" font-family="Times,serif" font-size="14.00"> g32 = (g33 &#45; 4)</text>
<text text-anchor="start" x="164" y="-887.3" font-family="Times,serif" font-size="14.00"> g34 = (v13 &#45; 64)</text>
<text text-anchor="start" x="164" y="-872.3" font-family="Times,serif" font-size="14.00"> g39 = g37</text>
<text text-anchor="start" x="164" y="-857.3" font-family="Times,serif" font-size="14.00"> g37 = 25</text>
<text text-anchor="start" x="164" y="-842.3" font-family="Times,serif" font-size="14.00"> g40 = g29</text>
<text text-anchor="start" x="164" y="-827.3" font-family="Times,serif" font-size="14.00"> function_3418()</text>
<text text-anchor="start" x="164" y="-812.3" font-family="Times,serif" font-size="14.00"> v14 = g29</text>
<text text-anchor="start" x="164" y="-797.3" font-family="Times,serif" font-size="14.00"> g6 = True</text>
<text text-anchor="start" x="164" y="-782.3" font-family="Times,serif" font-size="14.00"> g8 = False</text>
<text text-anchor="start" x="164" y="-767.3" font-family="Times,serif" font-size="14.00"> g7 = (v14 &lt; 0)</text>
<text text-anchor="start" x="164" y="-752.3" font-family="Times,serif" font-size="14.00"> g9 = (v14 == 0)</text>
<text text-anchor="start" x="164" y="-737.3" font-family="Times,serif" font-size="14.00"> g41 = v14</text>
<text text-anchor="start" x="164" y="-722.3" font-family="Times,serif" font-size="14.00"> v15</text>
</g>
<!-- Node0x3eed2e00&#45;&gt;Node0x359907e0 -->
<g id="edge4" class="edge"><title>Node0x3eed2e00&#45;&gt;Node0x359907e0</title>
<path fill="none" stroke="black" d="M576.092,-2415.3C583.584,-2410.38 590.541,-2404.33 595.5,-2397 619.787,-2361.11 609.5,-2343.84 609.5,-2300.5 609.5,-2300.5 609.5,-2300.5 609.5,-1273.5 609.5,-1247.57 604.68,-1222.06 596.511,-1197.46"/>
<polygon fill="black" stroke="black" points="599.702,-1195.98 593.084,-1187.71 593.098,-1198.31 599.702,-1195.98"/>
<text text-anchor="middle" x="657" y="-1767.8" font-family="Times,serif" font-size="14.00">(v3 &amp; 2) != 0</text>
</g>
<!-- Node0x3ef67da0 -->
<g id="node6" class="node"><title>Node0x3ef67da0</title>
<polygon fill="none" stroke="black" points="352.5,-2159.5 352.5,-2197.5 452.5,-2197.5 452.5,-2159.5 352.5,-2159.5"/>
<text text-anchor="start" x="360.5" y="-2182.3" font-family="Times,serif" font-size="14.00">0x50eb3a0:</text>
<text text-anchor="start" x="360.5" y="-2167.3" font-family="Times,serif" font-size="14.00"> if (v7 &lt; 6):</text>
</g>
<!-- Node0x437894a0&#45;&gt;Node0x3ef67da0 -->
<g id="edge5" class="edge"><title>Node0x437894a0&#45;&gt;Node0x3ef67da0</title>
<path fill="none" stroke="black" d="M409.985,-2235.17C408.698,-2225.6 407.429,-2216.16 406.312,-2207.85"/>
<polygon fill="black" stroke="black" points="409.743,-2207.1 404.941,-2197.66 402.805,-2208.04 409.743,-2207.1"/>
</g>
<!-- Node0x3eed5390 -->
<g id="node7" class="node"><title>Node0x3eed5390</title>
<polygon fill="none" stroke="black" points="343,-623.5 343,-676.5 462,-676.5 462,-623.5 343,-623.5"/>
<text text-anchor="start" x="351" y="-661.3" font-family="Times,serif" font-size="14.00">0x50fec60:</text>
<text text-anchor="start" x="351" y="-646.3" font-family="Times,serif" font-size="14.00"> if (v14 &gt;= 0):</text>
<text text-anchor="start" x="351" y="-631.3" font-family="Times,serif" font-size="14.00"> else:</text>
</g>
<!-- Node0x359907e0&#45;&gt;Node0x3eed5390 -->
<g id="edge6" class="edge"><title>Node0x359907e0&#45;&gt;Node0x3eed5390</title>
<path fill="none" stroke="black" d="M402.5,-714.41C402.5,-704.244 402.5,-694.884 402.5,-686.653"/>
<polygon fill="black" stroke="black" points="406,-686.509 402.5,-676.509 399,-686.509 406,-686.509"/>
</g>
<!-- Node0x3ef6c1e0 -->
<g id="node8" class="node"><title>Node0x3ef6c1e0</title>
<polygon fill="none" stroke="black" points="265,-2069.5 265,-2107.5 366,-2107.5 366,-2069.5 265,-2069.5"/>
<text text-anchor="start" x="273" y="-2092.3" font-family="Times,serif" font-size="14.00">0x50eb120:</text>
<text text-anchor="start" x="273" y="-2077.3" font-family="Times,serif" font-size="14.00"> g29 = &#45;19</text>
</g>
<!-- Node0x3ef67da0&#45;&gt;Node0x3ef6c1e0 -->
<g id="edge7" class="edge"><title>Node0x3ef67da0&#45;&gt;Node0x3ef6c1e0</title>
<path fill="none" stroke="black" d="M363.843,-2159.48C355.444,-2154.34 347.108,-2148.16 340.5,-2141 334.202,-2134.18 329.171,-2125.47 325.321,-2117.17"/>
<polygon fill="black" stroke="black" points="328.455,-2115.6 321.339,-2107.75 322.007,-2118.32 328.455,-2115.6"/>
<text text-anchor="middle" x="364.5" y="-2129.8" font-family="Times,serif" font-size="14.00">v7 &lt; 6</text>
</g>
<!-- Node0x3eed2380 -->
<g id="node9" class="node"><title>Node0x3eed2380</title>
<polygon fill="none" stroke="black" points="97,-1828.5 97,-2031.5 534,-2031.5 534,-1828.5 97,-1828.5"/>
<text text-anchor="start" x="105" y="-2016.3" font-family="Times,serif" font-size="14.00">0x50eb5c0:</text>
<text text-anchor="start" x="105" y="-2001.3" font-family="Times,serif" font-size="14.00"> g38 = v4</text>
<text text-anchor="start" x="105" y="-1986.3" font-family="Times,serif" font-size="14.00"> g39 = v5</text>
<text text-anchor="start" x="105" y="-1971.3" font-family="Times,serif" font-size="14.00"> g32 = v6</text>
<text text-anchor="start" x="105" y="-1956.3" font-family="Times,serif" font-size="14.00"> g34 = PtrToIntCastExpr&lt;int32&gt;(v1)</text>
<text text-anchor="start" x="105" y="-1941.3" font-family="Times,serif" font-size="14.00"> IntToPtrCastExpr&lt;ptr&gt;(ExtCastExpr&lt;int32&gt;((v7 &lt; 6)))()</text>
<text text-anchor="start" x="105" y="-1926.3" font-family="Times,serif" font-size="14.00"> v9 = *(IntToPtrCastExpr&lt;ptr&gt;((g39 + 9)))</text>
<text text-anchor="start" x="105" y="-1911.3" font-family="Times,serif" font-size="14.00"> v10 = v9</text>
<text text-anchor="start" x="105" y="-1896.3" font-family="Times,serif" font-size="14.00"> g38 = v10</text>
<text text-anchor="start" x="105" y="-1881.3" font-family="Times,serif" font-size="14.00"> g6 = True</text>
<text text-anchor="start" x="105" y="-1866.3" font-family="Times,serif" font-size="14.00"> g8 = False</text>
<text text-anchor="start" x="105" y="-1851.3" font-family="Times,serif" font-size="14.00"> g7 = (v9 &lt; 0)</text>
<text text-anchor="start" x="105" y="-1836.3" font-family="Times,serif" font-size="14.00"> g9 = (v9 == 0)</text>
</g>
<!-- Node0x3ef67da0&#45;&gt;Node0x3eed2380 -->
<g id="edge8" class="edge"><title>Node0x3ef67da0&#45;&gt;Node0x3eed2380</title>
<path fill="none" stroke="black" d="M398.669,-2159.21C393.907,-2137.44 385.1,-2100.12 374.5,-2069 371.381,-2059.84 367.926,-2050.44 364.298,-2041.05"/>
<polygon fill="black" stroke="black" points="367.531,-2039.71 360.618,-2031.68 361.016,-2042.27 367.531,-2039.71"/>
<text text-anchor="middle" x="416.5" y="-2084.8" font-family="Times,serif" font-size="14.00">v7 &gt;= 6</text>
</g>
<!-- Node0x3ef6b880 -->
<g id="node10" class="node"><title>Node0x3ef6b880</title>
<polygon fill="none" stroke="black" points="0,-293.5 0,-571.5 581,-571.5 581,-293.5 0,-293.5"/>
<text text-anchor="start" x="8" y="-556.3" font-family="Times,serif" font-size="14.00">0xf387cf0:</text>
<text text-anchor="start" x="8" y="-541.3" font-family="Times,serif" font-size="14.00"> v16 = (g32 &#45; 53)</text>
<text text-anchor="start" x="8" y="-526.3" font-family="Times,serif" font-size="14.00"> g38 = v16</text>
<text text-anchor="start" x="8" y="-511.3" font-family="Times,serif" font-size="14.00"> g30 = v16</text>
<text text-anchor="start" x="8" y="-496.3" font-family="Times,serif" font-size="14.00"> function_13000()</text>
<text text-anchor="start" x="8" y="-481.3" font-family="Times,serif" font-size="14.00"> g29 = 0</text>
<text text-anchor="start" x="8" y="-466.3" font-family="Times,serif" font-size="14.00"> g30 = (g38 + 2)</text>
<text text-anchor="start" x="8" y="-451.3" font-family="Times,serif" font-size="14.00"> function_13000()</text>
<text text-anchor="start" x="8" y="-436.3" font-family="Times,serif" font-size="14.00"> *(IntToPtrCastExpr&lt;ptr&gt;((g32 &#45; 49))) = 2</text>
<text text-anchor="start" x="8" y="-421.3" font-family="Times,serif" font-size="14.00"> memcpy(IntToPtrCastExpr&lt;ptr&gt;((g38 + 5)), IntToPtrCastExpr&lt;ptr&gt;(g39), 0)</text>
<text text-anchor="start" x="8" y="-406.3" font-family="Times,serif" font-size="14.00"> g30 = (g38 + 21)</text>
<text text-anchor="start" x="8" y="-391.3" font-family="Times,serif" font-size="14.00"> g29 = 0</text>
<text text-anchor="start" x="8" y="-376.3" font-family="Times,serif" font-size="14.00"> function_12fe0()</text>
<text text-anchor="start" x="8" y="-361.3" font-family="Times,serif" font-size="14.00"> g29 = g40</text>
<text text-anchor="start" x="8" y="-346.3" font-family="Times,serif" font-size="14.00"> g36 = g38</text>
<text text-anchor="start" x="8" y="-331.3" font-family="Times,serif" font-size="14.00"> g30 = 48</text>
<text text-anchor="start" x="8" y="-316.3" font-family="Times,serif" font-size="14.00"> function_38f4()</text>
<text text-anchor="start" x="8" y="-301.3" font-family="Times,serif" font-size="14.00"> v15 = g41</text>
</g>
<!-- Node0x3eed5390&#45;&gt;Node0x3ef6b880 -->
<g id="edge9" class="edge"><title>Node0x3eed5390&#45;&gt;Node0x3ef6b880</title>
<path fill="none" stroke="black" d="M389.212,-623.433C383.15,-611.768 375.443,-596.94 367.017,-580.727"/>
<polygon fill="black" stroke="black" points="369.985,-578.849 362.268,-571.59 363.774,-582.077 369.985,-578.849"/>
<text text-anchor="middle" x="413" y="-593.8" font-family="Times,serif" font-size="14.00">v14 &gt;= 0</text>
</g>
<!-- Node0x3ef6c0f0 -->
<g id="node11" class="node"><title>Node0x3ef6c0f0</title>
<polygon fill="none" stroke="black" points="599.5,-413.5 599.5,-451.5 695.5,-451.5 695.5,-413.5 599.5,-413.5"/>
<text text-anchor="start" x="607.5" y="-436.3" font-family="Times,serif" font-size="14.00">0x50fede0:</text>
<text text-anchor="start" x="607.5" y="-421.3" font-family="Times,serif" font-size="14.00"> v15 = v14</text>
</g>
<!-- Node0x3eed5390&#45;&gt;Node0x3ef6c0f0 -->
<g id="edge10" class="edge"><title>Node0x3eed5390&#45;&gt;Node0x3ef6c0f0</title>
<path fill="none" stroke="black" d="M462.232,-637.272C502.983,-626.503 555.679,-606.762 590.5,-572 620.953,-541.599 635.853,-492.626 642.583,-461.796"/>
<polygon fill="black" stroke="black" points="646.071,-462.205 644.634,-451.708 639.212,-460.81 646.071,-462.205"/>
<text text-anchor="middle" x="593" y="-593.8" font-family="Times,serif" font-size="14.00">v14 &lt; 0</text>
</g>
<!-- Node0x3ef6c1e0&#45;&gt;Node0x3eed2380 -->
<g id="edge11" class="edge"><title>Node0x3ef6c1e0&#45;&gt;Node0x3eed2380</title>
<path fill="none" stroke="black" d="M315.5,-2069.24C315.5,-2061.66 315.5,-2052.21 315.5,-2041.83"/>
<polygon fill="black" stroke="black" points="319,-2041.62 315.5,-2031.62 312,-2041.62 319,-2041.62"/>
</g>
<!-- Node0x3ef6b670 -->
<g id="node12" class="node"><title>Node0x3ef6b670</title>
<polygon fill="none" stroke="black" points="258.5,-1752.5 258.5,-1790.5 368.5,-1790.5 368.5,-1752.5 258.5,-1752.5"/>
<text text-anchor="start" x="266.5" y="-1775.3" font-family="Times,serif" font-size="14.00">0x50f2300:</text>
<text text-anchor="start" x="266.5" y="-1760.3" font-family="Times,serif" font-size="14.00"> if (v9 == 0):</text>
</g>
<!-- Node0x3eed2380&#45;&gt;Node0x3ef6b670 -->
<g id="edge12" class="edge"><title>Node0x3eed2380&#45;&gt;Node0x3ef6b670</title>
<path fill="none" stroke="black" d="M314.211,-1828.12C314.086,-1818.36 313.968,-1809.11 313.865,-1801.06"/>
<polygon fill="black" stroke="black" points="317.363,-1800.85 313.735,-1790.89 310.363,-1800.94 317.363,-1800.85"/>
</g>
<!-- Node0x3eed0f90 -->
<g id="node13" class="node"><title>Node0x3eed0f90</title>
<polygon fill="none" stroke="black" points="272.5,-97.5 272.5,-255.5 748.5,-255.5 748.5,-97.5 272.5,-97.5"/>
<text text-anchor="start" x="280.5" y="-240.3" font-family="Times,serif" font-size="14.00">0x50fef30:</text>
<text text-anchor="start" x="280.5" y="-225.3" font-family="Times,serif" font-size="14.00"> g29 = v15</text>
<text text-anchor="start" x="280.5" y="-210.3" font-family="Times,serif" font-size="14.00"> v17 = g32</text>
<text text-anchor="start" x="280.5" y="-195.3" font-family="Times,serif" font-size="14.00"> g38 = *(IntToPtrCastExpr&lt;ptr&gt;((v17 &#45; 28)))</text>
<text text-anchor="start" x="280.5" y="-180.3" font-family="Times,serif" font-size="14.00"> g39 = *(IntToPtrCastExpr&lt;ptr&gt;((v17 &#45; 24)))</text>
<text text-anchor="start" x="280.5" y="-165.3" font-family="Times,serif" font-size="14.00"> g40 = *(IntToPtrCastExpr&lt;ptr&gt;((v17 &#45; 20)))</text>
<text text-anchor="start" x="280.5" y="-150.3" font-family="Times,serif" font-size="14.00"> g41 = *(IntToPtrCastExpr&lt;ptr&gt;((v17 &#45; 16)))</text>
<text text-anchor="start" x="280.5" y="-135.3" font-family="Times,serif" font-size="14.00"> g32 = *(IntToPtrCastExpr&lt;ptr&gt;((v17 &#45; 12)))</text>
<text text-anchor="start" x="280.5" y="-120.3" font-family="Times,serif" font-size="14.00"> g34 = *(IntToPtrCastExpr&lt;ptr&gt;((v17 &#45; 8)))</text>
<text text-anchor="start" x="280.5" y="-105.3" font-family="Times,serif" font-size="14.00"> IntToPtrCastExpr&lt;ptr&gt;(*(IntToPtrCastExpr&lt;ptr&gt;((v17 &#45; 4))))()</text>
</g>
<!-- Node0x3ef6b880&#45;&gt;Node0x3eed0f90 -->
<g id="edge13" class="edge"><title>Node0x3ef6b880&#45;&gt;Node0x3eed0f90</title>
<path fill="none" stroke="black" d="M410.157,-293.351C418.984,-283.16 427.727,-273.065 436.157,-263.332"/>
<polygon fill="black" stroke="black" points="438.945,-265.459 442.846,-255.609 433.654,-260.876 438.945,-265.459"/>
</g>
<!-- Node0x3ef6c0f0&#45;&gt;Node0x3eed0f90 -->
<g id="edge14" class="edge"><title>Node0x3ef6c0f0&#45;&gt;Node0x3eed0f90</title>
<path fill="none" stroke="black" d="M641.479,-413.449C632.169,-386.461 612.985,-334.345 590.5,-293 585.325,-283.484 579.538,-273.795 573.508,-264.278"/>
<polygon fill="black" stroke="black" points="576.271,-262.105 567.911,-255.596 570.388,-265.897 576.271,-262.105"/>
</g>
<!-- Node0x3ef6b670&#45;&gt;Node0x359907e0 -->
<g id="edge16" class="edge"><title>Node0x3ef6b670&#45;&gt;Node0x359907e0</title>
<path fill="none" stroke="black" d="M258.325,-1755.26C202.539,-1736.09 124.5,-1697.26 124.5,-1630 124.5,-1630 124.5,-1630 124.5,-1273.5 124.5,-1237.42 134.644,-1203.39 151.057,-1171.94"/>
<polygon fill="black" stroke="black" points="154.141,-1173.6 155.85,-1163.14 147.993,-1170.25 154.141,-1173.6"/>
<text text-anchor="middle" x="151.5" y="-1451.8" font-family="Times,serif" font-size="14.00">v9 != 0</text>
</g>
<!-- Node0x3ef6c310 -->
<g id="node14" class="node"><title>Node0x3ef6c310</title>
<polygon fill="none" stroke="black" points="244,-1557.5 244,-1700.5 383,-1700.5 383,-1557.5 244,-1557.5"/>
<text text-anchor="start" x="252" y="-1685.3" font-family="Times,serif" font-size="14.00">0x50ed5d0:</text>
<text text-anchor="start" x="252" y="-1670.3" font-family="Times,serif" font-size="14.00"> g30 = 79</text>
<text text-anchor="start" x="252" y="-1655.3" font-family="Times,serif" font-size="14.00"> g36 = v10</text>
<text text-anchor="start" x="252" y="-1640.3" font-family="Times,serif" font-size="14.00"> function_38f4()</text>
<text text-anchor="start" x="252" y="-1625.3" font-family="Times,serif" font-size="14.00"> v11 = g29</text>
<text text-anchor="start" x="252" y="-1610.3" font-family="Times,serif" font-size="14.00"> g6 = True</text>
<text text-anchor="start" x="252" y="-1595.3" font-family="Times,serif" font-size="14.00"> g8 = False</text>
<text text-anchor="start" x="252" y="-1580.3" font-family="Times,serif" font-size="14.00"> g7 = (v11 &lt; 0)</text>
<text text-anchor="start" x="252" y="-1565.3" font-family="Times,serif" font-size="14.00"> g9 = (v11 == 0)</text>
</g>
<!-- Node0x3ef6b670&#45;&gt;Node0x3ef6c310 -->
<g id="edge15" class="edge"><title>Node0x3ef6b670&#45;&gt;Node0x3ef6c310</title>
<path fill="none" stroke="black" d="M313.5,-1752.42C313.5,-1741.42 313.5,-1726.5 313.5,-1710.86"/>
<polygon fill="black" stroke="black" points="317,-1710.52 313.5,-1700.52 310,-1710.52 317,-1710.52"/>
<text text-anchor="middle" x="343.5" y="-1722.8" font-family="Times,serif" font-size="14.00">v9 == 0</text>
</g>
<!-- Node0x24152a80 -->
<g id="node15" class="node"><title>Node0x24152a80</title>
<polygon fill="none" stroke="black" points="483.5,-23.5 483.5,-59.5 537.5,-59.5 537.5,-23.5 483.5,-23.5"/>
<text text-anchor="start" x="491.5" y="-37.8" font-family="Times,serif" font-size="14.00">exit:</text>
</g>
<!-- Node0x3eed0f90&#45;&gt;Node0x24152a80 -->
<g id="edge17" class="edge"><title>Node0x3eed0f90&#45;&gt;Node0x24152a80</title>
<path fill="none" stroke="black" d="M510.5,-97.3641C510.5,-87.4565 510.5,-77.9047 510.5,-69.6254"/>
<polygon fill="black" stroke="black" points="514,-69.5515 510.5,-59.5516 507,-69.5516 514,-69.5515"/>
</g>
<!-- Node0x3ef6a550 -->
<g id="node16" class="node"><title>Node0x3ef6a550</title>
<polygon fill="none" stroke="black" points="258,-1481.5 258,-1519.5 369,-1519.5 369,-1481.5 258,-1481.5"/>
<text text-anchor="start" x="266" y="-1504.3" font-family="Times,serif" font-size="14.00">0x50ef8a0:</text>
<text text-anchor="start" x="266" y="-1489.3" font-family="Times,serif" font-size="14.00"> if (v11 &gt; &#45;1):</text>
</g>
<!-- Node0x3ef6c310&#45;&gt;Node0x3ef6a550 -->
<g id="edge18" class="edge"><title>Node0x3ef6c310&#45;&gt;Node0x3ef6a550</title>
<path fill="none" stroke="black" d="M313.5,-1557.35C313.5,-1547.59 313.5,-1538.07 313.5,-1529.74"/>
<polygon fill="black" stroke="black" points="317,-1529.54 313.5,-1519.54 310,-1529.54 317,-1529.54"/>
</g>
<!-- Node0x14c1dc10 -->
<g id="node17" class="node"><title>Node0x14c1dc10</title>
<polygon fill="none" stroke="black" points="152.5,-1361.5 152.5,-1429.5 472.5,-1429.5 472.5,-1361.5 152.5,-1361.5"/>
<text text-anchor="start" x="160.5" y="-1414.3" font-family="Times,serif" font-size="14.00">0x50eeaa0:</text>
<text text-anchor="start" x="160.5" y="-1399.3" font-family="Times,serif" font-size="14.00"> g37 = 1</text>
<text text-anchor="start" x="160.5" y="-1384.3" font-family="Times,serif" font-size="14.00"> g29 = g38</text>
<text text-anchor="start" x="160.5" y="-1369.3" font-family="Times,serif" font-size="14.00"> *(IntToPtrCastExpr&lt;ptr&gt;((g39 + 9))) = 1</text>
</g>
<!-- Node0x3ef6a550&#45;&gt;Node0x14c1dc10 -->
<g id="edge19" class="edge"><title>Node0x3ef6a550&#45;&gt;Node0x14c1dc10</title>
<path fill="none" stroke="black" d="M313.321,-1481.09C313.21,-1469.63 313.062,-1454.39 312.922,-1440"/>
<polygon fill="black" stroke="black" points="316.42,-1439.71 312.823,-1429.74 309.42,-1439.78 316.42,-1439.71"/>
<text text-anchor="middle" x="344" y="-1451.8" font-family="Times,serif" font-size="14.00">v11 &gt; &#45;1</text>
</g>
<!-- Node0x3ef6b1b0 -->
<g id="node18" class="node"><title>Node0x3ef6b1b0</title>
<polygon fill="none" stroke="black" points="253.5,-1225.5 253.5,-1323.5 551.5,-1323.5 551.5,-1225.5 253.5,-1225.5"/>
<text text-anchor="start" x="261.5" y="-1308.3" font-family="Times,serif" font-size="14.00">0x50f0100:</text>
<text text-anchor="start" x="261.5" y="-1293.3" font-family="Times,serif" font-size="14.00"> g38 = *(IntToPtrCastExpr&lt;ptr&gt;(g34))</text>
<text text-anchor="start" x="261.5" y="-1278.3" font-family="Times,serif" font-size="14.00"> g39 = v1[&#39;1&#39;]</text>
<text text-anchor="start" x="261.5" y="-1263.3" font-family="Times,serif" font-size="14.00"> g32 = v1[&#39;2&#39;]</text>
<text text-anchor="start" x="261.5" y="-1248.3" font-family="Times,serif" font-size="14.00"> g34 = v1[&#39;3&#39;]</text>
<text text-anchor="start" x="261.5" y="-1233.3" font-family="Times,serif" font-size="14.00"> IntToPtrCastExpr&lt;ptr&gt;(v1[&#39;4&#39;])()</text>
</g>
<!-- Node0x3ef6a550&#45;&gt;Node0x3ef6b1b0 -->
<g id="edge20" class="edge"><title>Node0x3ef6a550&#45;&gt;Node0x3ef6b1b0</title>
<path fill="none" stroke="black" d="M369.364,-1492.51C407.97,-1484.45 456.678,-1467.13 481.5,-1430 498.543,-1404.51 492.674,-1389.56 481.5,-1361 477.399,-1350.52 471.344,-1340.55 464.38,-1331.37"/>
<polygon fill="black" stroke="black" points="467.049,-1329.11 458.051,-1323.51 461.597,-1333.5 467.049,-1329.11"/>
<text text-anchor="middle" x="529" y="-1391.8" font-family="Times,serif" font-size="14.00">v11 &lt;= &#45;1</text>
</g>
<!-- Node0x14c1dc10&#45;&gt;Node0x3ef6b1b0 -->
<g id="edge21" class="edge"><title>Node0x14c1dc10&#45;&gt;Node0x3ef6b1b0</title>
<path fill="none" stroke="black" d="M337.57,-1361.35C344.547,-1352.13 352.325,-1341.84 360.005,-1331.69"/>
<polygon fill="black" stroke="black" points="362.886,-1333.68 366.127,-1323.59 357.303,-1329.46 362.886,-1333.68"/>
</g>
<!-- Node0x3ef6b1b0&#45;&gt;Node0x359907e0 -->
<g id="edge22" class="edge"><title>Node0x3ef6b1b0&#45;&gt;Node0x359907e0</title>
<path fill="none" stroke="black" d="M402.5,-1225.37C402.5,-1216.89 402.5,-1207.58 402.5,-1197.66"/>
<polygon fill="black" stroke="black" points="406,-1197.55 402.5,-1187.55 399,-1197.55 406,-1197.55"/>
</g>
</g>
</svg>
