<?xml version="1.0" encoding="UTF-8" standalone="no"?>
<!DOCTYPE svg PUBLIC "-//W3C//DTD SVG 1.1//EN"
 "http://www.w3.org/Graphics/SVG/1.1/DTD/svg11.dtd">
<!-- Generated by graphviz version 2.38.0 (20140413.2041)
 -->
<!-- Title: Control&#45;flow graph for function &#39;function_fd70()&#39;. Pages: 1 -->
<svg width="745pt" height="1768pt"
 viewBox="0.00 0.00 745.00 1768.00" xmlns="http://www.w3.org/2000/svg" xmlns:xlink="http://www.w3.org/1999/xlink">
<g id="graph0" class="graph" transform="scale(1 1) rotate(0) translate(4 1764)">
<title>Control&#45;flow graph for function &#39;function_fd70()&#39;.</title>
<polygon fill="white" stroke="none" points="-4,4 -4,-1764 741,-1764 741,4 -4,4"/>
<text text-anchor="middle" x="368.5" y="-7.8" font-family="Times,serif" font-size="14.00">Control&#45;flow graph for function &#39;function_fd70()&#39;.</text>
<!-- Node0x427a7040 -->
<g id="node1" class="node"><title>Node0x427a7040</title>
<polygon fill="none" stroke="black" points="216.5,-1723.5 216.5,-1759.5 275.5,-1759.5 275.5,-1723.5 216.5,-1723.5"/>
<text text-anchor="start" x="224.5" y="-1737.8" font-family="Times,serif" font-size="14.00">entry:</text>
</g>
<!-- Node0x427a7120 -->
<g id="node2" class="node"><title>Node0x427a7120</title>
<polygon fill="none" stroke="black" points="181,-1452.5 181,-1685.5 311,-1685.5 311,-1452.5 181,-1452.5"/>
<text text-anchor="start" x="189" y="-1670.3" font-family="Times,serif" font-size="14.00">0x15b10fe0:</text>
<text text-anchor="start" x="189" y="-1655.3" font-family="Times,serif" font-size="14.00"> v1 = g38</text>
<text text-anchor="start" x="189" y="-1640.3" font-family="Times,serif" font-size="14.00"> v2 = g39</text>
<text text-anchor="start" x="189" y="-1625.3" font-family="Times,serif" font-size="14.00"> v3 = g40</text>
<text text-anchor="start" x="189" y="-1610.3" font-family="Times,serif" font-size="14.00"> v4 = g32</text>
<text text-anchor="start" x="189" y="-1595.3" font-family="Times,serif" font-size="14.00"> v5 = g35</text>
<text text-anchor="start" x="189" y="-1580.3" font-family="Times,serif" font-size="14.00"> v6 = g30</text>
<text text-anchor="start" x="189" y="-1565.3" font-family="Times,serif" font-size="14.00"> g9 = (v6 == 0)</text>
<text text-anchor="start" x="189" y="-1550.3" font-family="Times,serif" font-size="14.00"> g36 = v6</text>
<text text-anchor="start" x="189" y="-1535.3" font-family="Times,serif" font-size="14.00"> v7 = g29</text>
<text text-anchor="start" x="189" y="-1520.3" font-family="Times,serif" font-size="14.00"> g39 = v7</text>
<text text-anchor="start" x="189" y="-1505.3" font-family="Times,serif" font-size="14.00"> v8 = g37</text>
<text text-anchor="start" x="189" y="-1490.3" font-family="Times,serif" font-size="14.00"> g40 = v8</text>
<text text-anchor="start" x="189" y="-1475.3" font-family="Times,serif" font-size="14.00"> v9</text>
<text text-anchor="start" x="189" y="-1460.3" font-family="Times,serif" font-size="14.00"> v10</text>
</g>
<!-- Node0x427a7040&#45;&gt;Node0x427a7120 -->
<g id="edge1" class="edge"><title>Node0x427a7040&#45;&gt;Node0x427a7120</title>
<path fill="none" stroke="black" d="M246,-1723.21C246,-1715.69 246,-1706.17 246,-1695.57"/>
<polygon fill="black" stroke="black" points="249.5,-1695.56 246,-1685.56 242.5,-1695.56 249.5,-1695.56"/>
</g>
<!-- Node0x427aa090 -->
<g id="node3" class="node"><title>Node0x427aa090</title>
<polygon fill="none" stroke="black" points="191,-1376.5 191,-1414.5 301,-1414.5 301,-1376.5 191,-1376.5"/>
<text text-anchor="start" x="199" y="-1399.3" font-family="Times,serif" font-size="14.00">0x7903790:</text>
<text text-anchor="start" x="199" y="-1384.3" font-family="Times,serif" font-size="14.00"> if (v6 == 0):</text>
</g>
<!-- Node0x427a7120&#45;&gt;Node0x427aa090 -->
<g id="edge2" class="edge"><title>Node0x427a7120&#45;&gt;Node0x427aa090</title>
<path fill="none" stroke="black" d="M246,-1452.18C246,-1442.25 246,-1432.94 246,-1424.88"/>
<polygon fill="black" stroke="black" points="249.5,-1424.72 246,-1414.72 242.5,-1424.72 249.5,-1424.72"/>
</g>
<!-- Node0x427a6700 -->
<g id="node4" class="node"><title>Node0x427a6700</title>
<polygon fill="none" stroke="black" points="0,-1049.5 0,-1237.5 356,-1237.5 356,-1049.5 0,-1049.5"/>
<text text-anchor="start" x="8" y="-1222.3" font-family="Times,serif" font-size="14.00">0x7903df0:</text>
<text text-anchor="start" x="8" y="-1207.3" font-family="Times,serif" font-size="14.00"> g29 = &#45;1</text>
<text text-anchor="start" x="8" y="-1192.3" font-family="Times,serif" font-size="14.00"> g38 = v1</text>
<text text-anchor="start" x="8" y="-1177.3" font-family="Times,serif" font-size="14.00"> g39 = v2</text>
<text text-anchor="start" x="8" y="-1162.3" font-family="Times,serif" font-size="14.00"> g40 = v3</text>
<text text-anchor="start" x="8" y="-1147.3" font-family="Times,serif" font-size="14.00"> g32 = v4</text>
<text text-anchor="start" x="8" y="-1132.3" font-family="Times,serif" font-size="14.00"> g34 = v9</text>
<text text-anchor="start" x="8" y="-1117.3" font-family="Times,serif" font-size="14.00"> IntToPtrCastExpr&lt;ptr&gt;(v5)()</text>
<text text-anchor="start" x="8" y="-1102.3" font-family="Times,serif" font-size="14.00"> v10 = *(IntToPtrCastExpr&lt;ptr&gt;((g29 + 188)))</text>
<text text-anchor="start" x="8" y="-1087.3" font-family="Times,serif" font-size="14.00"> g37 = v10</text>
<text text-anchor="start" x="8" y="-1072.3" font-family="Times,serif" font-size="14.00"> g9 = (v10 == 3)</text>
<text text-anchor="start" x="8" y="-1057.3" font-family="Times,serif" font-size="14.00"> return</text>
</g>
<!-- Node0x427aa090&#45;&gt;Node0x427a6700 -->
<g id="edge3" class="edge"><title>Node0x427aa090&#45;&gt;Node0x427a6700</title>
<path fill="none" stroke="black" d="M235.494,-1376.49C227.924,-1362.79 218.021,-1343.24 212,-1325 203.882,-1300.41 197.493,-1273.25 192.553,-1247.63"/>
<polygon fill="black" stroke="black" points="195.94,-1246.71 190.661,-1237.52 189.06,-1247.99 195.94,-1246.71"/>
<text text-anchor="middle" x="256" y="-1346.8" font-family="Times,serif" font-size="14.00">v6 == 0</text>
</g>
<!-- Node0x427a73d0 -->
<g id="node5" class="node"><title>Node0x427a73d0</title>
<polygon fill="none" stroke="black" points="221.5,-1256.5 221.5,-1324.5 508.5,-1324.5 508.5,-1256.5 221.5,-1256.5"/>
<text text-anchor="start" x="229.5" y="-1309.3" font-family="Times,serif" font-size="14.00">0xff6deb0:</text>
<text text-anchor="start" x="229.5" y="-1294.3" font-family="Times,serif" font-size="14.00"> v11 = *(IntToPtrCastExpr&lt;ptr&gt;(v6))</text>
<text text-anchor="start" x="229.5" y="-1279.3" font-family="Times,serif" font-size="14.00"> g37 = v11</text>
<text text-anchor="start" x="229.5" y="-1264.3" font-family="Times,serif" font-size="14.00"> g9 = (v11 == 0)</text>
</g>
<!-- Node0x427aa090&#45;&gt;Node0x427a73d0 -->
<g id="edge4" class="edge"><title>Node0x427aa090&#45;&gt;Node0x427a73d0</title>
<path fill="none" stroke="black" d="M267.001,-1376.32C281.235,-1364 300.62,-1347.22 318.394,-1331.84"/>
<polygon fill="black" stroke="black" points="321.151,-1334.08 326.422,-1324.89 316.57,-1328.79 321.151,-1334.08"/>
<text text-anchor="middle" x="333" y="-1346.8" font-family="Times,serif" font-size="14.00">v6 != 0</text>
</g>
<!-- Node0x427a78d0 -->
<g id="node6" class="node"><title>Node0x427a78d0</title>
<polygon fill="none" stroke="black" points="202,-23.5 202,-59.5 256,-59.5 256,-23.5 202,-23.5"/>
<text text-anchor="start" x="210" y="-37.8" font-family="Times,serif" font-size="14.00">exit:</text>
</g>
<!-- Node0x427a6700&#45;&gt;Node0x427a78d0 -->
<g id="edge5" class="edge"><title>Node0x427a6700&#45;&gt;Node0x427a78d0</title>
<path fill="none" stroke="black" d="M178,-1049.41C178,-1022.94 178,-994.084 178,-967.5 178,-967.5 178,-967.5 178,-183 178,-140.985 198.4,-95.9146 213.396,-68.4601"/>
<polygon fill="black" stroke="black" points="216.575,-69.9483 218.433,-59.5176 210.476,-66.5131 216.575,-69.9483"/>
</g>
<!-- Node0x427a7d30 -->
<g id="node7" class="node"><title>Node0x427a7d30</title>
<polygon fill="none" stroke="black" points="311.5,-992.5 311.5,-1030.5 430.5,-1030.5 430.5,-992.5 311.5,-992.5"/>
<text text-anchor="start" x="319.5" y="-1015.3" font-family="Times,serif" font-size="14.00">0x7901a50:</text>
<text text-anchor="start" x="319.5" y="-1000.3" font-family="Times,serif" font-size="14.00"> if (v11 == 0):</text>
</g>
<!-- Node0x427a73d0&#45;&gt;Node0x427a7d30 -->
<g id="edge6" class="edge"><title>Node0x427a73d0&#45;&gt;Node0x427a7d30</title>
<path fill="none" stroke="black" d="M365.718,-1256.36C366.908,-1201.4 369.271,-1092.32 370.388,-1040.76"/>
<polygon fill="black" stroke="black" points="373.889,-1040.74 370.606,-1030.67 366.891,-1040.59 373.889,-1040.74"/>
</g>
<!-- Node0x152f5a90 -->
<g id="node8" class="node"><title>Node0x152f5a90</title>
<polygon fill="none" stroke="black" points="193,-575.5 193,-763.5 549,-763.5 549,-575.5 193,-575.5"/>
<text text-anchor="start" x="201" y="-748.3" font-family="Times,serif" font-size="14.00">0x7902160:</text>
<text text-anchor="start" x="201" y="-733.3" font-family="Times,serif" font-size="14.00"> g29 = &#45;1</text>
<text text-anchor="start" x="201" y="-718.3" font-family="Times,serif" font-size="14.00"> g38 = v1</text>
<text text-anchor="start" x="201" y="-703.3" font-family="Times,serif" font-size="14.00"> g39 = v2</text>
<text text-anchor="start" x="201" y="-688.3" font-family="Times,serif" font-size="14.00"> g40 = v3</text>
<text text-anchor="start" x="201" y="-673.3" font-family="Times,serif" font-size="14.00"> g32 = v4</text>
<text text-anchor="start" x="201" y="-658.3" font-family="Times,serif" font-size="14.00"> g34 = v9</text>
<text text-anchor="start" x="201" y="-643.3" font-family="Times,serif" font-size="14.00"> IntToPtrCastExpr&lt;ptr&gt;(v5)()</text>
<text text-anchor="start" x="201" y="-628.3" font-family="Times,serif" font-size="14.00"> v10 = *(IntToPtrCastExpr&lt;ptr&gt;((g29 + 188)))</text>
<text text-anchor="start" x="201" y="-613.3" font-family="Times,serif" font-size="14.00"> g37 = v10</text>
<text text-anchor="start" x="201" y="-598.3" font-family="Times,serif" font-size="14.00"> g9 = (v10 == 3)</text>
<text text-anchor="start" x="201" y="-583.3" font-family="Times,serif" font-size="14.00"> return</text>
</g>
<!-- Node0x427a7d30&#45;&gt;Node0x152f5a90 -->
<g id="edge7" class="edge"><title>Node0x427a7d30&#45;&gt;Node0x152f5a90</title>
<path fill="none" stroke="black" d="M371,-992.22C371,-951.694 371,-851.738 371,-773.904"/>
<polygon fill="black" stroke="black" points="374.5,-773.561 371,-763.561 367.5,-773.561 374.5,-773.561"/>
<text text-anchor="middle" x="405.5" y="-962.8" font-family="Times,serif" font-size="14.00">v11 == 0</text>
</g>
<!-- Node0x427a88e0 -->
<g id="node9" class="node"><title>Node0x427a88e0</title>
<polygon fill="none" stroke="black" points="399,-782.5 399,-940.5 737,-940.5 737,-782.5 399,-782.5"/>
<text text-anchor="start" x="407" y="-925.3" font-family="Times,serif" font-size="14.00">0x1494ee80:</text>
<text text-anchor="start" x="407" y="-910.3" font-family="Times,serif" font-size="14.00"> v12 = *(IntToPtrCastExpr&lt;ptr&gt;((v7 + 16)))</text>
<text text-anchor="start" x="407" y="-895.3" font-family="Times,serif" font-size="14.00"> g37 = v12</text>
<text text-anchor="start" x="407" y="-880.3" font-family="Times,serif" font-size="14.00"> g36 = v8</text>
<text text-anchor="start" x="407" y="-865.3" font-family="Times,serif" font-size="14.00"> g29 = *(IntToPtrCastExpr&lt;ptr&gt;((v12 + 4)))</text>
<text text-anchor="start" x="407" y="-850.3" font-family="Times,serif" font-size="14.00"> function_f820()</text>
<text text-anchor="start" x="407" y="-835.3" font-family="Times,serif" font-size="14.00"> v13 = g29</text>
<text text-anchor="start" x="407" y="-820.3" font-family="Times,serif" font-size="14.00"> g9 = (v13 == 0)</text>
<text text-anchor="start" x="407" y="-805.3" font-family="Times,serif" font-size="14.00"> g38 = v13</text>
<text text-anchor="start" x="407" y="-790.3" font-family="Times,serif" font-size="14.00"> v14 = v13</text>
</g>
<!-- Node0x427a7d30&#45;&gt;Node0x427a88e0 -->
<g id="edge8" class="edge"><title>Node0x427a7d30&#45;&gt;Node0x427a88e0</title>
<path fill="none" stroke="black" d="M411.877,-992.476C422.654,-987.083 434.046,-980.781 444,-974 455.859,-965.922 467.774,-956.792 479.278,-947.321"/>
<polygon fill="black" stroke="black" points="481.747,-949.819 487.172,-940.718 477.256,-944.45 481.747,-949.819"/>
<text text-anchor="middle" x="493.5" y="-962.8" font-family="Times,serif" font-size="14.00">v11 != 0</text>
</g>
<!-- Node0x152f5a90&#45;&gt;Node0x427a78d0 -->
<g id="edge9" class="edge"><title>Node0x152f5a90&#45;&gt;Node0x427a78d0</title>
<path fill="none" stroke="black" d="M259.463,-575.188C241.68,-551.101 229,-523.431 229,-493.5 229,-493.5 229,-493.5 229,-183 229,-143.808 229,-98.4673 229,-70.1339"/>
<polygon fill="black" stroke="black" points="232.5,-69.8039 229,-59.8039 225.5,-69.804 232.5,-69.8039"/>
</g>
<!-- Node0x427a77b0 -->
<g id="node10" class="node"><title>Node0x427a77b0</title>
<polygon fill="none" stroke="black" points="508.5,-518.5 508.5,-556.5 627.5,-556.5 627.5,-518.5 508.5,-518.5"/>
<text text-anchor="start" x="516.5" y="-541.3" font-family="Times,serif" font-size="14.00">0x79002c0:</text>
<text text-anchor="start" x="516.5" y="-526.3" font-family="Times,serif" font-size="14.00"> if (v13 == 0):</text>
</g>
<!-- Node0x427a88e0&#45;&gt;Node0x427a77b0 -->
<g id="edge10" class="edge"><title>Node0x427a88e0&#45;&gt;Node0x427a77b0</title>
<path fill="none" stroke="black" d="M568,-782.142C568,-712.542 568,-614.671 568,-566.932"/>
<polygon fill="black" stroke="black" points="571.5,-566.725 568,-556.725 564.5,-566.725 571.5,-566.725"/>
</g>
<!-- Node0x152f6080 -->
<g id="node11" class="node"><title>Node0x152f6080</title>
<polygon fill="none" stroke="black" points="258.5,-308.5 258.5,-466.5 605.5,-466.5 605.5,-308.5 258.5,-308.5"/>
<text text-anchor="start" x="266.5" y="-451.3" font-family="Times,serif" font-size="14.00">0x78fe1e0:</text>
<text text-anchor="start" x="266.5" y="-436.3" font-family="Times,serif" font-size="14.00"> g30 = g40</text>
<text text-anchor="start" x="266.5" y="-421.3" font-family="Times,serif" font-size="14.00"> g29 = *(IntToPtrCastExpr&lt;ptr&gt;((g39 + 16)))</text>
<text text-anchor="start" x="266.5" y="-406.3" font-family="Times,serif" font-size="14.00"> g36 = 0</text>
<text text-anchor="start" x="266.5" y="-391.3" font-family="Times,serif" font-size="14.00"> g37 = 0</text>
<text text-anchor="start" x="266.5" y="-376.3" font-family="Times,serif" font-size="14.00"> function_120a0()</text>
<text text-anchor="start" x="266.5" y="-361.3" font-family="Times,serif" font-size="14.00"> g29 = *(IntToPtrCastExpr&lt;ptr&gt;((g39 + 20)))</text>
<text text-anchor="start" x="266.5" y="-346.3" font-family="Times,serif" font-size="14.00"> g30 = 1</text>
<text text-anchor="start" x="266.5" y="-331.3" font-family="Times,serif" font-size="14.00"> function_21c70()</text>
<text text-anchor="start" x="266.5" y="-316.3" font-family="Times,serif" font-size="14.00"> v14 = g38</text>
</g>
<!-- Node0x427a77b0&#45;&gt;Node0x152f6080 -->
<g id="edge11" class="edge"><title>Node0x427a77b0&#45;&gt;Node0x152f6080</title>
<path fill="none" stroke="black" d="M551.324,-518.352C540.744,-506.839 526.202,-491.014 510.904,-474.366"/>
<polygon fill="black" stroke="black" points="513.177,-471.666 503.833,-466.671 508.022,-476.403 513.177,-471.666"/>
<text text-anchor="middle" x="565.5" y="-488.8" font-family="Times,serif" font-size="14.00">v13 == 0</text>
</g>
<!-- Node0x427a5dd0 -->
<g id="node12" class="node"><title>Node0x427a5dd0</title>
<polygon fill="none" stroke="black" points="257,-97.5 257,-270.5 613,-270.5 613,-97.5 257,-97.5"/>
<text text-anchor="start" x="265" y="-255.3" font-family="Times,serif" font-size="14.00">0x7900440:</text>
<text text-anchor="start" x="265" y="-240.3" font-family="Times,serif" font-size="14.00"> g29 = v14</text>
<text text-anchor="start" x="265" y="-225.3" font-family="Times,serif" font-size="14.00"> g38 = v1</text>
<text text-anchor="start" x="265" y="-210.3" font-family="Times,serif" font-size="14.00"> g39 = v2</text>
<text text-anchor="start" x="265" y="-195.3" font-family="Times,serif" font-size="14.00"> g40 = v3</text>
<text text-anchor="start" x="265" y="-180.3" font-family="Times,serif" font-size="14.00"> g32 = v4</text>
<text text-anchor="start" x="265" y="-165.3" font-family="Times,serif" font-size="14.00"> g34 = v9</text>
<text text-anchor="start" x="265" y="-150.3" font-family="Times,serif" font-size="14.00"> IntToPtrCastExpr&lt;ptr&gt;(v5)()</text>
<text text-anchor="start" x="265" y="-135.3" font-family="Times,serif" font-size="14.00"> v10 = *(IntToPtrCastExpr&lt;ptr&gt;((g29 + 188)))</text>
<text text-anchor="start" x="265" y="-120.3" font-family="Times,serif" font-size="14.00"> g37 = v10</text>
<text text-anchor="start" x="265" y="-105.3" font-family="Times,serif" font-size="14.00"> g9 = (v10 == 3)</text>
</g>
<!-- Node0x427a77b0&#45;&gt;Node0x427a5dd0 -->
<g id="edge12" class="edge"><title>Node0x427a77b0&#45;&gt;Node0x427a5dd0</title>
<path fill="none" stroke="black" d="M589.367,-518.294C594.742,-512.858 600.088,-506.579 604,-500 639.343,-440.55 620.99,-321.283 614,-308 608.376,-297.312 601.357,-287.372 593.38,-278.162"/>
<polygon fill="black" stroke="black" points="595.794,-275.616 586.464,-270.596 590.628,-280.339 595.794,-275.616"/>
<text text-anchor="middle" x="656.5" y="-383.8" font-family="Times,serif" font-size="14.00">v13 != 0</text>
</g>
<!-- Node0x152f6080&#45;&gt;Node0x427a5dd0 -->
<g id="edge13" class="edge"><title>Node0x152f6080&#45;&gt;Node0x427a5dd0</title>
<path fill="none" stroke="black" d="M433.164,-308.306C433.297,-299.385 433.434,-290.214 433.569,-281.095"/>
<polygon fill="black" stroke="black" points="437.073,-280.887 433.722,-270.836 430.073,-280.783 437.073,-280.887"/>
</g>
<!-- Node0x427a5dd0&#45;&gt;Node0x427a78d0 -->
<g id="edge14" class="edge"><title>Node0x427a5dd0&#45;&gt;Node0x427a78d0</title>
<path fill="none" stroke="black" d="M309.53,-97.4246C292.302,-85.6741 275.955,-74.5249 262.547,-65.3806"/>
<polygon fill="black" stroke="black" points="264.415,-62.4179 254.182,-59.6748 260.471,-68.2009 264.415,-62.4179"/>
</g>
</g>
</svg>
