<?xml version="1.0" encoding="UTF-8" standalone="no"?>
<!DOCTYPE svg PUBLIC "-//W3C//DTD SVG 1.1//EN"
 "http://www.w3.org/Graphics/SVG/1.1/DTD/svg11.dtd">
<!-- Generated by graphviz version 2.38.0 (20140413.2041)
 -->
<!-- Title: Control&#45;flow graph for function &#39;function_1bd08()&#39;. Pages: 1 -->
<svg width="386pt" height="565pt"
 viewBox="0.00 0.00 386.00 565.00" xmlns="http://www.w3.org/2000/svg" xmlns:xlink="http://www.w3.org/1999/xlink">
<g id="graph0" class="graph" transform="scale(1 1) rotate(0) translate(4 561)">
<title>Control&#45;flow graph for function &#39;function_1bd08()&#39;.</title>
<polygon fill="white" stroke="none" points="-4,4 -4,-561 382,-561 382,4 -4,4"/>
<text text-anchor="middle" x="189" y="-7.8" font-family="Times,serif" font-size="14.00">Control&#45;flow graph for function &#39;function_1bd08()&#39;.</text>
<!-- Node0x2a3f4530 -->
<g id="node1" class="node"><title>Node0x2a3f4530</title>
<polygon fill="none" stroke="black" points="159.5,-520.5 159.5,-556.5 218.5,-556.5 218.5,-520.5 159.5,-520.5"/>
<text text-anchor="start" x="167.5" y="-534.8" font-family="Times,serif" font-size="14.00">entry:</text>
</g>
<!-- Node0x2a3f0e30 -->
<g id="node2" class="node"><title>Node0x2a3f0e30</title>
<polygon fill="none" stroke="black" points="40,-399.5 40,-482.5 338,-482.5 338,-399.5 40,-399.5"/>
<text text-anchor="start" x="48" y="-467.3" font-family="Times,serif" font-size="14.00">0x9477aa0:</text>
<text text-anchor="start" x="48" y="-452.3" font-family="Times,serif" font-size="14.00"> g30 = *(IntToPtrCastExpr&lt;ptr&gt;(g29))</text>
<text text-anchor="start" x="48" y="-437.3" font-family="Times,serif" font-size="14.00"> function_1bc68()</text>
<text text-anchor="start" x="48" y="-422.3" font-family="Times,serif" font-size="14.00"> v1 = g29</text>
<text text-anchor="start" x="48" y="-407.3" font-family="Times,serif" font-size="14.00"> g9 = (v1 == 0)</text>
</g>
<!-- Node0x2a3f4530&#45;&gt;Node0x2a3f0e30 -->
<g id="edge1" class="edge"><title>Node0x2a3f4530&#45;&gt;Node0x2a3f0e30</title>
<path fill="none" stroke="black" d="M189,-520.427C189,-512.622 189,-502.921 189,-493.032"/>
<polygon fill="black" stroke="black" points="192.5,-492.73 189,-482.73 185.5,-492.73 192.5,-492.73"/>
</g>
<!-- Node0x136bc510 -->
<g id="node3" class="node"><title>Node0x136bc510</title>
<polygon fill="none" stroke="black" points="134,-308.5 134,-361.5 244,-361.5 244,-308.5 134,-308.5"/>
<text text-anchor="start" x="142" y="-346.3" font-family="Times,serif" font-size="14.00">0x9478a20:</text>
<text text-anchor="start" x="142" y="-331.3" font-family="Times,serif" font-size="14.00"> if (v1 == 0):</text>
<text text-anchor="start" x="142" y="-316.3" font-family="Times,serif" font-size="14.00"> else:</text>
</g>
<!-- Node0x2a3f0e30&#45;&gt;Node0x136bc510 -->
<g id="edge2" class="edge"><title>Node0x2a3f0e30&#45;&gt;Node0x136bc510</title>
<path fill="none" stroke="black" d="M189,-399.493C189,-390.311 189,-380.625 189,-371.66"/>
<polygon fill="black" stroke="black" points="192.5,-371.541 189,-361.541 185.5,-371.541 192.5,-371.541"/>
</g>
<!-- Node0x2a3ed210 -->
<g id="node4" class="node"><title>Node0x2a3ed210</title>
<polygon fill="none" stroke="black" points="48.5,-203.5 48.5,-256.5 191.5,-256.5 191.5,-203.5 48.5,-203.5"/>
<text text-anchor="start" x="56.5" y="-241.3" font-family="Times,serif" font-size="14.00">0x94781c0:</text>
<text text-anchor="start" x="56.5" y="-226.3" font-family="Times,serif" font-size="14.00"> g30 = 14</text>
<text text-anchor="start" x="56.5" y="-211.3" font-family="Times,serif" font-size="14.00"> function_1b848()</text>
</g>
<!-- Node0x136bc510&#45;&gt;Node0x2a3ed210 -->
<g id="edge3" class="edge"><title>Node0x136bc510&#45;&gt;Node0x2a3ed210</title>
<path fill="none" stroke="black" d="M171.766,-308.274C163.04,-295.248 152.327,-279.256 142.915,-265.207"/>
<polygon fill="black" stroke="black" points="145.727,-263.115 137.253,-256.755 139.911,-267.011 145.727,-263.115"/>
<text text-anchor="middle" x="189" y="-278.8" font-family="Times,serif" font-size="14.00">v1 == 0</text>
</g>
<!-- Node0x15564b10 -->
<g id="node5" class="node"><title>Node0x15564b10</title>
<polygon fill="none" stroke="black" points="209.5,-211 209.5,-249 310.5,-249 310.5,-211 209.5,-211"/>
<text text-anchor="start" x="217.5" y="-233.8" font-family="Times,serif" font-size="14.00">0x9478be0:</text>
<text text-anchor="start" x="217.5" y="-218.8" font-family="Times,serif" font-size="14.00"> g29 = &#45;1</text>
</g>
<!-- Node0x136bc510&#45;&gt;Node0x15564b10 -->
<g id="edge4" class="edge"><title>Node0x136bc510&#45;&gt;Node0x15564b10</title>
<path fill="none" stroke="black" d="M209.565,-308.257C214.101,-302.341 218.803,-296.018 223,-290 230.222,-279.645 237.708,-267.922 244.041,-257.67"/>
<polygon fill="black" stroke="black" points="247.044,-259.467 249.274,-249.11 241.072,-255.816 247.044,-259.467"/>
<text text-anchor="middle" x="259" y="-278.8" font-family="Times,serif" font-size="14.00">v1 != 0</text>
</g>
<!-- Node0x2a3f4c80 -->
<g id="node6" class="node"><title>Node0x2a3f4c80</title>
<polygon fill="none" stroke="black" points="83,-97.5 83,-165.5 325,-165.5 325,-97.5 83,-97.5"/>
<text text-anchor="start" x="91" y="-150.3" font-family="Times,serif" font-size="14.00">0x338ff770:</text>
<text text-anchor="start" x="91" y="-135.3" font-family="Times,serif" font-size="14.00"> v2</text>
<text text-anchor="start" x="91" y="-120.3" font-family="Times,serif" font-size="14.00"> g34 = v2</text>
<text text-anchor="start" x="91" y="-105.3" font-family="Times,serif" font-size="14.00"> IntToPtrCastExpr&lt;ptr&gt;(g35)()</text>
</g>
<!-- Node0x2a3ed210&#45;&gt;Node0x2a3f4c80 -->
<g id="edge5" class="edge"><title>Node0x2a3ed210&#45;&gt;Node0x2a3f4c80</title>
<path fill="none" stroke="black" d="M142.29,-203.393C150.346,-194.138 159.654,-183.446 168.558,-173.216"/>
<polygon fill="black" stroke="black" points="171.335,-175.356 175.261,-165.516 166.055,-170.761 171.335,-175.356"/>
</g>
<!-- Node0x15564b10&#45;&gt;Node0x2a3f4c80 -->
<g id="edge6" class="edge"><title>Node0x15564b10&#45;&gt;Node0x2a3f4c80</title>
<path fill="none" stroke="black" d="M249.467,-210.849C243.495,-200.558 235.757,-187.224 228.364,-174.484"/>
<polygon fill="black" stroke="black" points="231.372,-172.695 223.326,-165.803 225.318,-176.209 231.372,-172.695"/>
</g>
<!-- Node0x136bbdc0 -->
<g id="node7" class="node"><title>Node0x136bbdc0</title>
<polygon fill="none" stroke="black" points="177,-23.5 177,-59.5 231,-59.5 231,-23.5 177,-23.5"/>
<text text-anchor="start" x="185" y="-37.8" font-family="Times,serif" font-size="14.00">exit:</text>
</g>
<!-- Node0x2a3f4c80&#45;&gt;Node0x136bbdc0 -->
<g id="edge7" class="edge"><title>Node0x2a3f4c80&#45;&gt;Node0x136bbdc0</title>
<path fill="none" stroke="black" d="M204,-97.4817C204,-88.3281 204,-78.4972 204,-69.7155"/>
<polygon fill="black" stroke="black" points="207.5,-69.6402 204,-59.6402 200.5,-69.6403 207.5,-69.6402"/>
</g>
</g>
</svg>
