<?xml version="1.0" encoding="UTF-8" standalone="no"?>
<!DOCTYPE svg PUBLIC "-//W3C//DTD SVG 1.1//EN"
 "http://www.w3.org/Graphics/SVG/1.1/DTD/svg11.dtd">
<!-- Generated by graphviz version 2.38.0 (20140413.2041)
 -->
<!-- Title: Control&#45;flow graph for function &#39;function_b998()&#39;. Pages: 1 -->
<svg width="423pt" height="381pt"
 viewBox="0.00 0.00 423.00 381.00" xmlns="http://www.w3.org/2000/svg" xmlns:xlink="http://www.w3.org/1999/xlink">
<g id="graph0" class="graph" transform="scale(1 1) rotate(0) translate(4 377)">
<title>Control&#45;flow graph for function &#39;function_b998()&#39;.</title>
<polygon fill="white" stroke="none" points="-4,4 -4,-377 419,-377 419,4 -4,4"/>
<text text-anchor="middle" x="207.5" y="-7.8" font-family="Times,serif" font-size="14.00">Control&#45;flow graph for function &#39;function_b998()&#39;.</text>
<!-- Node0x2231b900 -->
<g id="node1" class="node"><title>Node0x2231b900</title>
<polygon fill="none" stroke="black" points="178,-336.5 178,-372.5 237,-372.5 237,-336.5 178,-336.5"/>
<text text-anchor="start" x="186" y="-350.8" font-family="Times,serif" font-size="14.00">entry:</text>
</g>
<!-- Node0x47231070 -->
<g id="node2" class="node"><title>Node0x47231070</title>
<polygon fill="none" stroke="black" points="-2.84217e-14,-96.5 -2.84217e-14,-299.5 415,-299.5 415,-96.5 -2.84217e-14,-96.5"/>
<text text-anchor="start" x="8" y="-284.3" font-family="Times,serif" font-size="14.00">0x7346fd0:</text>
<text text-anchor="start" x="8" y="-269.3" font-family="Times,serif" font-size="14.00"> g36 = 0</text>
<text text-anchor="start" x="8" y="-254.3" font-family="Times,serif" font-size="14.00"> *(IntToPtrCastExpr&lt;ptr&gt;((g29 + 16))) = &#45;1009589776</text>
<text text-anchor="start" x="8" y="-239.3" font-family="Times,serif" font-size="14.00"> *(IntToPtrCastExpr&lt;ptr&gt;(g29)) = 1732584193</text>
<text text-anchor="start" x="8" y="-224.3" font-family="Times,serif" font-size="14.00"> g37 = &#45;271733879</text>
<text text-anchor="start" x="8" y="-209.3" font-family="Times,serif" font-size="14.00"> *(IntToPtrCastExpr&lt;ptr&gt;((g29 + 92))) = g36</text>
<text text-anchor="start" x="8" y="-194.3" font-family="Times,serif" font-size="14.00"> *(IntToPtrCastExpr&lt;ptr&gt;((g29 + 4))) = g37</text>
<text text-anchor="start" x="8" y="-179.3" font-family="Times,serif" font-size="14.00"> g37 = &#45;1732584194</text>
<text text-anchor="start" x="8" y="-164.3" font-family="Times,serif" font-size="14.00"> *(IntToPtrCastExpr&lt;ptr&gt;((g29 + 20))) = g36</text>
<text text-anchor="start" x="8" y="-149.3" font-family="Times,serif" font-size="14.00"> *(IntToPtrCastExpr&lt;ptr&gt;((g29 + 8))) = g37</text>
<text text-anchor="start" x="8" y="-134.3" font-family="Times,serif" font-size="14.00"> g37 = 271733878</text>
<text text-anchor="start" x="8" y="-119.3" font-family="Times,serif" font-size="14.00"> *(IntToPtrCastExpr&lt;ptr&gt;((g29 + 24))) = g36</text>
<text text-anchor="start" x="8" y="-104.3" font-family="Times,serif" font-size="14.00"> *(IntToPtrCastExpr&lt;ptr&gt;((g29 + 12))) = g37</text>
</g>
<!-- Node0x2231b900&#45;&gt;Node0x47231070 -->
<g id="edge1" class="edge"><title>Node0x2231b900&#45;&gt;Node0x47231070</title>
<path fill="none" stroke="black" d="M207.5,-336.375C207.5,-329.052 207.5,-319.842 207.5,-309.676"/>
<polygon fill="black" stroke="black" points="211,-309.665 207.5,-299.665 204,-309.665 211,-309.665"/>
</g>
<!-- Node0x22320d50 -->
<g id="node3" class="node"><title>Node0x22320d50</title>
<polygon fill="none" stroke="black" points="180.5,-23.5 180.5,-59.5 234.5,-59.5 234.5,-23.5 180.5,-23.5"/>
<text text-anchor="start" x="188.5" y="-37.8" font-family="Times,serif" font-size="14.00">exit:</text>
</g>
<!-- Node0x47231070&#45;&gt;Node0x22320d50 -->
<g id="edge2" class="edge"><title>Node0x47231070&#45;&gt;Node0x22320d50</title>
<path fill="none" stroke="black" d="M207.5,-96.103C207.5,-86.6073 207.5,-77.6391 207.5,-69.853"/>
<polygon fill="black" stroke="black" points="211,-69.7012 207.5,-59.7012 204,-69.7013 211,-69.7012"/>
</g>
</g>
</svg>
