<?xml version="1.0" encoding="UTF-8" standalone="no"?>
<!DOCTYPE svg PUBLIC "-//W3C//DTD SVG 1.1//EN"
 "http://www.w3.org/Graphics/SVG/1.1/DTD/svg11.dtd">
<!-- Generated by graphviz version 2.38.0 (20140413.2041)
 -->
<!-- Title: Control&#45;flow graph for function &#39;function_23f14()&#39;. Pages: 1 -->
<svg width="605pt" height="564pt"
 viewBox="0.00 0.00 605.00 564.00" xmlns="http://www.w3.org/2000/svg" xmlns:xlink="http://www.w3.org/1999/xlink">
<g id="graph0" class="graph" transform="scale(1 1) rotate(0) translate(4 560)">
<title>Control&#45;flow graph for function &#39;function_23f14()&#39;.</title>
<polygon fill="white" stroke="none" points="-4,4 -4,-560 601,-560 601,4 -4,4"/>
<text text-anchor="middle" x="298.5" y="-7.8" font-family="Times,serif" font-size="14.00">Control&#45;flow graph for function &#39;function_23f14()&#39;.</text>
<!-- Node0x3c6dd2b0 -->
<g id="node1" class="node"><title>Node0x3c6dd2b0</title>
<polygon fill="none" stroke="black" points="269,-519.5 269,-555.5 328,-555.5 328,-519.5 269,-519.5"/>
<text text-anchor="start" x="277" y="-533.8" font-family="Times,serif" font-size="14.00">entry:</text>
</g>
<!-- Node0x3c6dc3e0 -->
<g id="node2" class="node"><title>Node0x3c6dc3e0</title>
<polygon fill="none" stroke="black" points="0,-323.5 0,-481.5 597,-481.5 597,-323.5 0,-323.5"/>
<text text-anchor="start" x="8" y="-466.3" font-family="Times,serif" font-size="14.00">0x2ad857e0:</text>
<text text-anchor="start" x="8" y="-451.3" font-family="Times,serif" font-size="14.00"> v1 = g29</text>
<text text-anchor="start" x="8" y="-436.3" font-family="Times,serif" font-size="14.00"> v2 = g41</text>
<text text-anchor="start" x="8" y="-421.3" font-family="Times,serif" font-size="14.00"> v3 = (v1 &gt;&gt; (32 if ((v2 % 32) == 0) else v2))</text>
<text text-anchor="start" x="8" y="-406.3" font-family="Times,serif" font-size="14.00"> v4 = *(IntToPtrCastExpr&lt;ptr&gt;((v3 + *(IntToPtrCastExpr&lt;ptr&gt;((g38 + 236))))))</text>
<text text-anchor="start" x="8" y="-391.3" font-family="Times,serif" font-size="14.00"> v5 = v4</text>
<text text-anchor="start" x="8" y="-376.3" font-family="Times,serif" font-size="14.00"> v6 = g30</text>
<text text-anchor="start" x="8" y="-361.3" font-family="Times,serif" font-size="14.00"> v7 = (v6 &#45; v5)</text>
<text text-anchor="start" x="8" y="-346.3" font-family="Times,serif" font-size="14.00"> g30 = v7</text>
<text text-anchor="start" x="8" y="-331.3" font-family="Times,serif" font-size="14.00"> g31 = v7</text>
</g>
<!-- Node0x3c6dd2b0&#45;&gt;Node0x3c6dc3e0 -->
<g id="edge1" class="edge"><title>Node0x3c6dd2b0&#45;&gt;Node0x3c6dc3e0</title>
<path fill="none" stroke="black" d="M298.5,-519.385C298.5,-511.782 298.5,-502.206 298.5,-491.833"/>
<polygon fill="black" stroke="black" points="302,-491.682 298.5,-481.682 295,-491.682 302,-491.682"/>
</g>
<!-- Node0x3c6ddba0 -->
<g id="node3" class="node"><title>Node0x3c6ddba0</title>
<polygon fill="none" stroke="black" points="242.5,-247.5 242.5,-285.5 354.5,-285.5 354.5,-247.5 242.5,-247.5"/>
<text text-anchor="start" x="250.5" y="-270.3" font-family="Times,serif" font-size="14.00">0xa4b73c0:</text>
<text text-anchor="start" x="250.5" y="-255.3" font-family="Times,serif" font-size="14.00"> if (v6 != v5):</text>
</g>
<!-- Node0x3c6dc3e0&#45;&gt;Node0x3c6ddba0 -->
<g id="edge2" class="edge"><title>Node0x3c6dc3e0&#45;&gt;Node0x3c6ddba0</title>
<path fill="none" stroke="black" d="M298.5,-323.164C298.5,-313.447 298.5,-304.058 298.5,-295.846"/>
<polygon fill="black" stroke="black" points="302,-295.801 298.5,-285.801 295,-295.801 302,-295.801"/>
</g>
<!-- Node0x3c6de5a0 -->
<g id="node4" class="node"><title>Node0x3c6de5a0</title>
<polygon fill="none" stroke="black" points="110,-120 110,-173 253,-173 253,-120 110,-120"/>
<text text-anchor="start" x="118" y="-157.8" font-family="Times,serif" font-size="14.00">0xa4b7690:</text>
<text text-anchor="start" x="118" y="-142.8" font-family="Times,serif" font-size="14.00"> function_24032()</text>
<text text-anchor="start" x="118" y="-127.8" font-family="Times,serif" font-size="14.00"> return</text>
</g>
<!-- Node0x3c6ddba0&#45;&gt;Node0x3c6de5a0 -->
<g id="edge3" class="edge"><title>Node0x3c6ddba0&#45;&gt;Node0x3c6de5a0</title>
<path fill="none" stroke="black" d="M280.475,-247.321C262.929,-229.625 235.855,-202.32 214.456,-180.737"/>
<polygon fill="black" stroke="black" points="216.674,-178.004 207.148,-173.367 211.703,-182.933 216.674,-178.004"/>
<text text-anchor="middle" x="292.5" y="-217.8" font-family="Times,serif" font-size="14.00">v6 != v5</text>
</g>
<!-- Node0x3c6ddea0 -->
<g id="node5" class="node"><title>Node0x3c6ddea0</title>
<polygon fill="none" stroke="black" points="271.5,-97.5 271.5,-195.5 561.5,-195.5 561.5,-97.5 271.5,-97.5"/>
<text text-anchor="start" x="279.5" y="-180.3" font-family="Times,serif" font-size="14.00">0x1e22e3c0:</text>
<text text-anchor="start" x="279.5" y="-165.3" font-family="Times,serif" font-size="14.00"> v8 = ((&#45;2 &#45; g40) + v1)</text>
<text text-anchor="start" x="279.5" y="-150.3" font-family="Times,serif" font-size="14.00"> g8 = (((v8 ^ v1) &amp; (v8 ^ &#45;(g40))) &lt; 0)</text>
<text text-anchor="start" x="279.5" y="-135.3" font-family="Times,serif" font-size="14.00"> g7 = ((v1 &#45; g40) &lt; 0)</text>
<text text-anchor="start" x="279.5" y="-120.3" font-family="Times,serif" font-size="14.00"> g9 = (v1 == g40)</text>
<text text-anchor="start" x="279.5" y="-105.3" font-family="Times,serif" font-size="14.00"> g6 = (v8 &lt;= v1)</text>
</g>
<!-- Node0x3c6ddba0&#45;&gt;Node0x3c6ddea0 -->
<g id="edge4" class="edge"><title>Node0x3c6ddba0&#45;&gt;Node0x3c6ddea0</title>
<path fill="none" stroke="black" d="M316.679,-247.321C328.676,-235.324 345.091,-218.909 361.144,-202.856"/>
<polygon fill="black" stroke="black" points="363.881,-205.069 368.477,-195.523 358.931,-200.119 363.881,-205.069"/>
<text text-anchor="middle" x="381.5" y="-217.8" font-family="Times,serif" font-size="14.00">v6 == v5</text>
</g>
<!-- Node0x3c6dd9f0 -->
<g id="node6" class="node"><title>Node0x3c6dd9f0</title>
<polygon fill="none" stroke="black" points="297.5,-23.5 297.5,-59.5 351.5,-59.5 351.5,-23.5 297.5,-23.5"/>
<text text-anchor="start" x="305.5" y="-37.8" font-family="Times,serif" font-size="14.00">exit:</text>
</g>
<!-- Node0x3c6de5a0&#45;&gt;Node0x3c6dd9f0 -->
<g id="edge5" class="edge"><title>Node0x3c6de5a0&#45;&gt;Node0x3c6dd9f0</title>
<path fill="none" stroke="black" d="M217.216,-119.774C240.396,-103.078 270.337,-81.5127 292.696,-65.408"/>
<polygon fill="black" stroke="black" points="294.795,-68.2092 300.864,-59.5246 290.704,-62.5292 294.795,-68.2092"/>
</g>
<!-- Node0x3c6ddea0&#45;&gt;Node0x3c6dd9f0 -->
<g id="edge6" class="edge"><title>Node0x3c6ddea0&#45;&gt;Node0x3c6dd9f0</title>
<path fill="none" stroke="black" d="M373.463,-97.3173C364.203,-86.9506 354.783,-76.4039 346.711,-67.3667"/>
<polygon fill="black" stroke="black" points="349.274,-64.9826 340.003,-59.8561 344.054,-69.6458 349.274,-64.9826"/>
</g>
</g>
</svg>
