<?xml version="1.0" encoding="UTF-8" standalone="no"?>
<!DOCTYPE svg PUBLIC "-//W3C//DTD SVG 1.1//EN"
 "http://www.w3.org/Graphics/SVG/1.1/DTD/svg11.dtd">
<!-- Generated by graphviz version 2.38.0 (20140413.2041)
 -->
<!-- Title: Control&#45;flow graph for function &#39;function_c044()&#39;. Pages: 1 -->
<svg width="532pt" height="978pt"
 viewBox="0.00 0.00 532.00 978.00" xmlns="http://www.w3.org/2000/svg" xmlns:xlink="http://www.w3.org/1999/xlink">
<g id="graph0" class="graph" transform="scale(1 1) rotate(0) translate(4 974)">
<title>Control&#45;flow graph for function &#39;function_c044()&#39;.</title>
<polygon fill="white" stroke="none" points="-4,4 -4,-974 528,-974 528,4 -4,4"/>
<text text-anchor="middle" x="262" y="-7.8" font-family="Times,serif" font-size="14.00">Control&#45;flow graph for function &#39;function_c044()&#39;.</text>
<!-- Node0x2993d350 -->
<g id="node1" class="node"><title>Node0x2993d350</title>
<polygon fill="none" stroke="black" points="142,-933.5 142,-969.5 201,-969.5 201,-933.5 142,-933.5"/>
<text text-anchor="start" x="150" y="-947.8" font-family="Times,serif" font-size="14.00">entry:</text>
</g>
<!-- Node0x47235750 -->
<g id="node2" class="node"><title>Node0x47235750</title>
<polygon fill="none" stroke="black" points="102,-707.5 102,-895.5 241,-895.5 241,-707.5 102,-707.5"/>
<text text-anchor="start" x="110" y="-880.3" font-family="Times,serif" font-size="14.00">0x10e47be0:</text>
<text text-anchor="start" x="110" y="-865.3" font-family="Times,serif" font-size="14.00"> v1 = g38</text>
<text text-anchor="start" x="110" y="-850.3" font-family="Times,serif" font-size="14.00"> v2 = g39</text>
<text text-anchor="start" x="110" y="-835.3" font-family="Times,serif" font-size="14.00"> v3 = g32</text>
<text text-anchor="start" x="110" y="-820.3" font-family="Times,serif" font-size="14.00"> v4 = g35</text>
<text text-anchor="start" x="110" y="-805.3" font-family="Times,serif" font-size="14.00"> g39 = g29</text>
<text text-anchor="start" x="110" y="-790.3" font-family="Times,serif" font-size="14.00"> g30 = 0</text>
<text text-anchor="start" x="110" y="-775.3" font-family="Times,serif" font-size="14.00"> g38 = 1</text>
<text text-anchor="start" x="110" y="-760.3" font-family="Times,serif" font-size="14.00"> function_bef8()</text>
<text text-anchor="start" x="110" y="-745.3" font-family="Times,serif" font-size="14.00"> v5 = g38</text>
<text text-anchor="start" x="110" y="-730.3" font-family="Times,serif" font-size="14.00"> g9 = (v5 == 16)</text>
<text text-anchor="start" x="110" y="-715.3" font-family="Times,serif" font-size="14.00"> v6</text>
</g>
<!-- Node0x2993d350&#45;&gt;Node0x47235750 -->
<g id="edge1" class="edge"><title>Node0x2993d350&#45;&gt;Node0x47235750</title>
<path fill="none" stroke="black" d="M171.5,-933.233C171.5,-925.721 171.5,-916.26 171.5,-905.877"/>
<polygon fill="black" stroke="black" points="175,-905.674 171.5,-895.674 168,-905.675 175,-905.674"/>
</g>
<!-- Node0x15cf81a0 -->
<g id="node3" class="node"><title>Node0x15cf81a0</title>
<polygon fill="none" stroke="black" points="112,-631.5 112,-669.5 231,-669.5 231,-631.5 112,-631.5"/>
<text text-anchor="start" x="120" y="-654.3" font-family="Times,serif" font-size="14.00">0x73e8600:</text>
<text text-anchor="start" x="120" y="-639.3" font-family="Times,serif" font-size="14.00"> if (v5 == 16):</text>
</g>
<!-- Node0x47235750&#45;&gt;Node0x15cf81a0 -->
<g id="edge2" class="edge"><title>Node0x47235750&#45;&gt;Node0x15cf81a0</title>
<path fill="none" stroke="black" d="M171.5,-707.406C171.5,-697.426 171.5,-687.921 171.5,-679.673"/>
<polygon fill="black" stroke="black" points="175,-679.619 171.5,-669.619 168,-679.619 175,-679.619"/>
</g>
<!-- Node0x2993ee60 -->
<g id="node4" class="node"><title>Node0x2993ee60</title>
<polygon fill="none" stroke="black" points="0,-334.5 0,-447.5 233,-447.5 233,-334.5 0,-334.5"/>
<text text-anchor="start" x="8" y="-432.3" font-family="Times,serif" font-size="14.00">0x73e7e40:</text>
<text text-anchor="start" x="8" y="-417.3" font-family="Times,serif" font-size="14.00"> g38 = v1</text>
<text text-anchor="start" x="8" y="-402.3" font-family="Times,serif" font-size="14.00"> g39 = v2</text>
<text text-anchor="start" x="8" y="-387.3" font-family="Times,serif" font-size="14.00"> g32 = v3</text>
<text text-anchor="start" x="8" y="-372.3" font-family="Times,serif" font-size="14.00"> g34 = v6</text>
<text text-anchor="start" x="8" y="-357.3" font-family="Times,serif" font-size="14.00"> IntToPtrCastExpr&lt;ptr&gt;(v4)()</text>
<text text-anchor="start" x="8" y="-342.3" font-family="Times,serif" font-size="14.00"> return</text>
</g>
<!-- Node0x15cf81a0&#45;&gt;Node0x2993ee60 -->
<g id="edge3" class="edge"><title>Node0x15cf81a0&#45;&gt;Node0x2993ee60</title>
<path fill="none" stroke="black" d="M139.776,-631.106C133.676,-626.045 128.079,-619.989 124.5,-613 100.093,-565.346 99.903,-504.03 104.789,-458.078"/>
<polygon fill="black" stroke="black" points="108.29,-458.267 105.976,-447.928 101.338,-457.454 108.29,-458.267"/>
<text text-anchor="middle" x="159" y="-601.8" font-family="Times,serif" font-size="14.00">v5 == 16</text>
</g>
<!-- Node0x15cf82d0 -->
<g id="node5" class="node"><title>Node0x15cf82d0</title>
<polygon fill="none" stroke="black" points="170,-466.5 170,-579.5 309,-579.5 309,-466.5 170,-466.5"/>
<text text-anchor="start" x="178" y="-564.3" font-family="Times,serif" font-size="14.00">0x1ca09d30:</text>
<text text-anchor="start" x="178" y="-549.3" font-family="Times,serif" font-size="14.00"> g30 = v5</text>
<text text-anchor="start" x="178" y="-534.3" font-family="Times,serif" font-size="14.00"> g29 = g39</text>
<text text-anchor="start" x="178" y="-519.3" font-family="Times,serif" font-size="14.00"> g38 = (v5 + 1)</text>
<text text-anchor="start" x="178" y="-504.3" font-family="Times,serif" font-size="14.00"> function_bef8()</text>
<text text-anchor="start" x="178" y="-489.3" font-family="Times,serif" font-size="14.00"> v7 = g38</text>
<text text-anchor="start" x="178" y="-474.3" font-family="Times,serif" font-size="14.00"> g9 = (v7 == 16)</text>
</g>
<!-- Node0x15cf81a0&#45;&gt;Node0x15cf82d0 -->
<g id="edge4" class="edge"><title>Node0x15cf81a0&#45;&gt;Node0x15cf82d0</title>
<path fill="none" stroke="black" d="M185.385,-631.358C189.506,-625.627 193.882,-619.176 197.5,-613 201.955,-605.395 206.32,-597.241 210.451,-589.069"/>
<polygon fill="black" stroke="black" points="213.708,-590.376 215.007,-579.861 207.435,-587.272 213.708,-590.376"/>
<text text-anchor="middle" x="237" y="-601.8" font-family="Times,serif" font-size="14.00">v5 != 16</text>
</g>
<!-- Node0x2993ea60 -->
<g id="node6" class="node"><title>Node0x2993ea60</title>
<polygon fill="none" stroke="black" points="159.5,-23.5 159.5,-59.5 213.5,-59.5 213.5,-23.5 159.5,-23.5"/>
<text text-anchor="start" x="167.5" y="-37.8" font-family="Times,serif" font-size="14.00">exit:</text>
</g>
<!-- Node0x2993ee60&#45;&gt;Node0x2993ea60 -->
<g id="edge5" class="edge"><title>Node0x2993ee60&#45;&gt;Node0x2993ea60</title>
<path fill="none" stroke="black" d="M105.343,-334.348C95.8538,-273.066 88.7972,-173.135 124.5,-97 130.415,-84.3854 140.78,-73.492 151.36,-64.8317"/>
<polygon fill="black" stroke="black" points="153.615,-67.5135 159.424,-58.6529 149.357,-61.9572 153.615,-67.5135"/>
</g>
<!-- Node0x15cf8a90 -->
<g id="node7" class="node"><title>Node0x15cf8a90</title>
<polygon fill="none" stroke="black" points="203,-277.5 203,-315.5 344,-315.5 344,-277.5 203,-277.5"/>
<text text-anchor="start" x="211" y="-300.3" font-family="Times,serif" font-size="14.00">0x73ea820:</text>
<text text-anchor="start" x="211" y="-285.3" font-family="Times,serif" font-size="14.00"> while (v7 != 16):</text>
</g>
<!-- Node0x15cf82d0&#45;&gt;Node0x15cf8a90 -->
<g id="edge6" class="edge"><title>Node0x15cf82d0&#45;&gt;Node0x15cf8a90</title>
<path fill="none" stroke="black" d="M247.948,-466.217C254.721,-421.496 263.943,-360.607 269.255,-325.531"/>
<polygon fill="black" stroke="black" points="272.734,-325.932 270.771,-315.52 265.813,-324.883 272.734,-325.932"/>
</g>
<!-- Node0x2993e860 -->
<g id="node8" class="node"><title>Node0x2993e860</title>
<polygon fill="none" stroke="black" points="134,-97.5 134,-225.5 273,-225.5 273,-97.5 134,-97.5"/>
<text text-anchor="start" x="142" y="-210.3" font-family="Times,serif" font-size="14.00">0x1ca089a0:</text>
<text text-anchor="start" x="142" y="-195.3" font-family="Times,serif" font-size="14.00"> v5 = v7</text>
<text text-anchor="start" x="142" y="-180.3" font-family="Times,serif" font-size="14.00"> g30 = v5</text>
<text text-anchor="start" x="142" y="-165.3" font-family="Times,serif" font-size="14.00"> g29 = g39</text>
<text text-anchor="start" x="142" y="-150.3" font-family="Times,serif" font-size="14.00"> g38 = (v5 + 1)</text>
<text text-anchor="start" x="142" y="-135.3" font-family="Times,serif" font-size="14.00"> function_bef8()</text>
<text text-anchor="start" x="142" y="-120.3" font-family="Times,serif" font-size="14.00"> v7 = g38</text>
<text text-anchor="start" x="142" y="-105.3" font-family="Times,serif" font-size="14.00"> g9 = (v7 == 16)</text>
</g>
<!-- Node0x15cf8a90&#45;&gt;Node0x2993e860 -->
<g id="edge7" class="edge"><title>Node0x15cf8a90&#45;&gt;Node0x2993e860</title>
<path fill="none" stroke="black" d="M220.314,-277.372C212.828,-272.554 206.121,-266.523 201.5,-259 197.167,-251.945 194.581,-244.018 193.229,-235.819"/>
<polygon fill="black" stroke="black" points="196.693,-235.299 192.157,-225.724 189.732,-236.038 196.693,-235.299"/>
<text text-anchor="middle" x="233" y="-247.8" font-family="Times,serif" font-size="14.00">v7 != 16</text>
</g>
<!-- Node0x2231cd40 -->
<g id="node9" class="node"><title>Node0x2231cd40</title>
<polygon fill="none" stroke="black" points="291,-112.5 291,-210.5 524,-210.5 524,-112.5 291,-112.5"/>
<text text-anchor="start" x="299" y="-195.3" font-family="Times,serif" font-size="14.00">0x73e9f00:</text>
<text text-anchor="start" x="299" y="-180.3" font-family="Times,serif" font-size="14.00"> g38 = v1</text>
<text text-anchor="start" x="299" y="-165.3" font-family="Times,serif" font-size="14.00"> g39 = v2</text>
<text text-anchor="start" x="299" y="-150.3" font-family="Times,serif" font-size="14.00"> g32 = v3</text>
<text text-anchor="start" x="299" y="-135.3" font-family="Times,serif" font-size="14.00"> g34 = v6</text>
<text text-anchor="start" x="299" y="-120.3" font-family="Times,serif" font-size="14.00"> IntToPtrCastExpr&lt;ptr&gt;(v4)()</text>
</g>
<!-- Node0x15cf8a90&#45;&gt;Node0x2231cd40 -->
<g id="edge8" class="edge"><title>Node0x15cf8a90&#45;&gt;Node0x2231cd40</title>
<path fill="none" stroke="black" d="M291.851,-277.286C307.371,-261.882 330.447,-238.978 351.913,-217.672"/>
<polygon fill="black" stroke="black" points="354.486,-220.05 359.118,-210.521 349.555,-215.082 354.486,-220.05"/>
<text text-anchor="middle" x="359" y="-247.8" font-family="Times,serif" font-size="14.00">v7 == 16</text>
</g>
<!-- Node0x2993e860&#45;&gt;Node0x15cf8a90 -->
<g id="edge9" class="edge"><title>Node0x2993e860&#45;&gt;Node0x15cf8a90</title>
<path fill="none" stroke="black" d="M255.073,-225.733C258.62,-231.704 261.837,-237.835 264.5,-244 267.618,-251.218 269.656,-259.448 270.989,-267.178"/>
<polygon fill="black" stroke="black" points="267.549,-267.851 272.403,-277.269 274.481,-266.879 267.549,-267.851"/>
</g>
<!-- Node0x2231cd40&#45;&gt;Node0x2993ea60 -->
<g id="edge10" class="edge"><title>Node0x2231cd40&#45;&gt;Node0x2993ea60</title>
<path fill="none" stroke="black" d="M317.292,-112.335C284.127,-94.6265 248.436,-75.5699 222.73,-61.8444"/>
<polygon fill="black" stroke="black" points="224.204,-58.6638 213.734,-57.0412 220.907,-64.8387 224.204,-58.6638"/>
</g>
</g>
</svg>
