<?xml version="1.0" encoding="UTF-8" standalone="no"?>
<!DOCTYPE svg PUBLIC "-//W3C//DTD SVG 1.1//EN"
 "http://www.w3.org/Graphics/SVG/1.1/DTD/svg11.dtd">
<!-- Generated by graphviz version 2.38.0 (20140413.2041)
 -->
<!-- Title: Control&#45;flow graph for function &#39;function_23abe()&#39;. Pages: 1 -->
<svg width="548pt" height="970pt"
 viewBox="0.00 0.00 547.50 970.00" xmlns="http://www.w3.org/2000/svg" xmlns:xlink="http://www.w3.org/1999/xlink">
<g id="graph0" class="graph" transform="scale(1 1) rotate(0) translate(4 966)">
<title>Control&#45;flow graph for function &#39;function_23abe()&#39;.</title>
<polygon fill="white" stroke="none" points="-4,4 -4,-966 543.5,-966 543.5,4 -4,4"/>
<text text-anchor="middle" x="269.75" y="-7.8" font-family="Times,serif" font-size="14.00">Control&#45;flow graph for function &#39;function_23abe()&#39;.</text>
<!-- Node0x1d45f690 -->
<g id="node1" class="node"><title>Node0x1d45f690</title>
<polygon fill="none" stroke="black" points="369,-925.5 369,-961.5 428,-961.5 428,-925.5 369,-925.5"/>
<text text-anchor="start" x="377" y="-939.8" font-family="Times,serif" font-size="14.00">entry:</text>
</g>
<!-- Node0x1b5f69f0 -->
<g id="node2" class="node"><title>Node0x1b5f69f0</title>
<polygon fill="none" stroke="black" points="257.5,-744.5 257.5,-887.5 539.5,-887.5 539.5,-744.5 257.5,-744.5"/>
<text text-anchor="start" x="265.5" y="-872.3" font-family="Times,serif" font-size="14.00">0x1f59dd80:</text>
<text text-anchor="start" x="265.5" y="-857.3" font-family="Times,serif" font-size="14.00"> v1 = g29</text>
<text text-anchor="start" x="265.5" y="-842.3" font-family="Times,serif" font-size="14.00"> v2 = g37</text>
<text text-anchor="start" x="265.5" y="-827.3" font-family="Times,serif" font-size="14.00"> g30 = v2</text>
<text text-anchor="start" x="265.5" y="-812.3" font-family="Times,serif" font-size="14.00"> v3</text>
<text text-anchor="start" x="265.5" y="-797.3" font-family="Times,serif" font-size="14.00"> g8 = ((((v3 &#45; 2) ^ v3) &amp; (1 &#45; v3)) &lt; 0)</text>
<text text-anchor="start" x="265.5" y="-782.3" font-family="Times,serif" font-size="14.00"> g7 = (v3 &lt; 0)</text>
<text text-anchor="start" x="265.5" y="-767.3" font-family="Times,serif" font-size="14.00"> g9 = (v3 == 0)</text>
<text text-anchor="start" x="265.5" y="-752.3" font-family="Times,serif" font-size="14.00"> g6 = (v3 &gt; 1)</text>
</g>
<!-- Node0x1d45f690&#45;&gt;Node0x1b5f69f0 -->
<g id="edge1" class="edge"><title>Node0x1d45f690&#45;&gt;Node0x1b5f69f0</title>
<path fill="none" stroke="black" d="M398.5,-925.313C398.5,-917.682 398.5,-908.101 398.5,-897.811"/>
<polygon fill="black" stroke="black" points="402,-897.769 398.5,-887.769 395,-897.769 402,-897.769"/>
</g>
<!-- Node0x310a3460 -->
<g id="node3" class="node"><title>Node0x310a3460</title>
<polygon fill="none" stroke="black" points="346.5,-668.5 346.5,-706.5 450.5,-706.5 450.5,-668.5 346.5,-668.5"/>
<text text-anchor="start" x="354.5" y="-691.3" font-family="Times,serif" font-size="14.00">0xa40ccd0:</text>
<text text-anchor="start" x="354.5" y="-676.3" font-family="Times,serif" font-size="14.00"> if (v3 != 0):</text>
</g>
<!-- Node0x1b5f69f0&#45;&gt;Node0x310a3460 -->
<g id="edge2" class="edge"><title>Node0x1b5f69f0&#45;&gt;Node0x310a3460</title>
<path fill="none" stroke="black" d="M398.5,-744.353C398.5,-734.594 398.5,-725.073 398.5,-716.737"/>
<polygon fill="black" stroke="black" points="402,-716.54 398.5,-706.54 395,-716.54 402,-716.54"/>
</g>
<!-- Node0x19b28460 -->
<g id="node4" class="node"><title>Node0x19b28460</title>
<polygon fill="none" stroke="black" points="0,-458.5 0,-616.5 425,-616.5 425,-458.5 0,-458.5"/>
<text text-anchor="start" x="8" y="-601.3" font-family="Times,serif" font-size="14.00">0xa40ab40:</text>
<text text-anchor="start" x="8" y="-586.3" font-family="Times,serif" font-size="14.00"> g29 = &#45;(v1)</text>
<text text-anchor="start" x="8" y="-571.3" font-family="Times,serif" font-size="14.00"> v4 = (&#45;1 &#45; v2)</text>
<text text-anchor="start" x="8" y="-556.3" font-family="Times,serif" font-size="14.00"> v5 = (ExtCastExpr&lt;int32&gt;(((&#45;2 &#45; v1) &lt;= (&#45;1 &#45; v1))) + v4)</text>
<text text-anchor="start" x="8" y="-541.3" font-family="Times,serif" font-size="14.00"> g30 = v5</text>
<text text-anchor="start" x="8" y="-526.3" font-family="Times,serif" font-size="14.00"> v6 = (ExtCastExpr&lt;int32&gt;(((&#45;2 &#45; v1) &lt;= (&#45;1 &#45; v1))) + v4)</text>
<text text-anchor="start" x="8" y="-511.3" font-family="Times,serif" font-size="14.00"> g8 = ((v6 &amp; v2) &lt; 0)</text>
<text text-anchor="start" x="8" y="-496.3" font-family="Times,serif" font-size="14.00"> g7 = (v5 &lt; 0)</text>
<text text-anchor="start" x="8" y="-481.3" font-family="Times,serif" font-size="14.00"> g9 = (v5 == 0)</text>
<text text-anchor="start" x="8" y="-466.3" font-family="Times,serif" font-size="14.00"> g6 = (v6 == 0)</text>
</g>
<!-- Node0x310a3460&#45;&gt;Node0x19b28460 -->
<g id="edge3" class="edge"><title>Node0x310a3460&#45;&gt;Node0x19b28460</title>
<path fill="none" stroke="black" d="M375.693,-668.352C360.833,-656.528 340.256,-640.155 318.714,-623.014"/>
<polygon fill="black" stroke="black" points="320.747,-620.159 310.742,-616.671 316.388,-625.637 320.747,-620.159"/>
<text text-anchor="middle" x="376.5" y="-638.8" font-family="Times,serif" font-size="14.00">v3 != 0</text>
</g>
<!-- Node0x1b5f6910 -->
<g id="node5" class="node"><title>Node0x1b5f6910</title>
<polygon fill="none" stroke="black" points="271.5,-97.5 271.5,-420.5 513.5,-420.5 513.5,-97.5 271.5,-97.5"/>
<text text-anchor="start" x="279.5" y="-405.3" font-family="Times,serif" font-size="14.00">0x1f59d170:</text>
<text text-anchor="start" x="279.5" y="-390.3" font-family="Times,serif" font-size="14.00"> v7</text>
<text text-anchor="start" x="279.5" y="-375.3" font-family="Times,serif" font-size="14.00"> g36 = v7</text>
<text text-anchor="start" x="279.5" y="-360.3" font-family="Times,serif" font-size="14.00"> v8</text>
<text text-anchor="start" x="279.5" y="-345.3" font-family="Times,serif" font-size="14.00"> g37 = v8</text>
<text text-anchor="start" x="279.5" y="-330.3" font-family="Times,serif" font-size="14.00"> g42 = v7</text>
<text text-anchor="start" x="279.5" y="-315.3" font-family="Times,serif" font-size="14.00"> g43 = v8</text>
<text text-anchor="start" x="279.5" y="-300.3" font-family="Times,serif" font-size="14.00"> v9</text>
<text text-anchor="start" x="279.5" y="-285.3" font-family="Times,serif" font-size="14.00"> g31 = v9</text>
<text text-anchor="start" x="279.5" y="-270.3" font-family="Times,serif" font-size="14.00"> v10</text>
<text text-anchor="start" x="279.5" y="-255.3" font-family="Times,serif" font-size="14.00"> g32 = v10</text>
<text text-anchor="start" x="279.5" y="-240.3" font-family="Times,serif" font-size="14.00"> v11</text>
<text text-anchor="start" x="279.5" y="-225.3" font-family="Times,serif" font-size="14.00"> g38 = v11</text>
<text text-anchor="start" x="279.5" y="-210.3" font-family="Times,serif" font-size="14.00"> v12</text>
<text text-anchor="start" x="279.5" y="-195.3" font-family="Times,serif" font-size="14.00"> g39 = v12</text>
<text text-anchor="start" x="279.5" y="-180.3" font-family="Times,serif" font-size="14.00"> v13</text>
<text text-anchor="start" x="279.5" y="-165.3" font-family="Times,serif" font-size="14.00"> g40 = v13</text>
<text text-anchor="start" x="279.5" y="-150.3" font-family="Times,serif" font-size="14.00"> v14</text>
<text text-anchor="start" x="279.5" y="-135.3" font-family="Times,serif" font-size="14.00"> g41 = v14</text>
<text text-anchor="start" x="279.5" y="-120.3" font-family="Times,serif" font-size="14.00"> v15</text>
<text text-anchor="start" x="279.5" y="-105.3" font-family="Times,serif" font-size="14.00"> IntToPtrCastExpr&lt;ptr&gt;(v15)()</text>
</g>
<!-- Node0x310a3460&#45;&gt;Node0x1b5f6910 -->
<g id="edge4" class="edge"><title>Node0x310a3460&#45;&gt;Node0x1b5f6910</title>
<path fill="none" stroke="black" d="M410.678,-668.245C418.926,-654.734 429.097,-635.533 433.5,-617 447.711,-557.184 444.905,-490.517 436.078,-431.137"/>
<polygon fill="black" stroke="black" points="439.482,-430.251 434.488,-420.908 432.565,-431.327 439.482,-430.251"/>
<text text-anchor="middle" x="473.5" y="-533.8" font-family="Times,serif" font-size="14.00">v3 == 0</text>
</g>
<!-- Node0x19b28460&#45;&gt;Node0x1b5f6910 -->
<g id="edge5" class="edge"><title>Node0x19b28460&#45;&gt;Node0x1b5f6910</title>
<path fill="none" stroke="black" d="M263.359,-458.375C269.45,-449.018 275.839,-439.204 282.377,-429.161"/>
<polygon fill="black" stroke="black" points="285.378,-430.966 287.901,-420.676 279.512,-427.147 285.378,-430.966"/>
</g>
<!-- Node0x19b25c60 -->
<g id="node6" class="node"><title>Node0x19b25c60</title>
<polygon fill="none" stroke="black" points="365.5,-23.5 365.5,-59.5 419.5,-59.5 419.5,-23.5 365.5,-23.5"/>
<text text-anchor="start" x="373.5" y="-37.8" font-family="Times,serif" font-size="14.00">exit:</text>
</g>
<!-- Node0x1b5f6910&#45;&gt;Node0x19b25c60 -->
<g id="edge6" class="edge"><title>Node0x1b5f6910&#45;&gt;Node0x19b25c60</title>
<path fill="none" stroke="black" d="M392.5,-97.4373C392.5,-87.1305 392.5,-77.6801 392.5,-69.6314"/>
<polygon fill="black" stroke="black" points="396,-69.5759 392.5,-59.576 389,-69.576 396,-69.5759"/>
</g>
</g>
</svg>
