<?xml version="1.0" encoding="UTF-8" standalone="no"?>
<!DOCTYPE svg PUBLIC "-//W3C//DTD SVG 1.1//EN"
 "http://www.w3.org/Graphics/SVG/1.1/DTD/svg11.dtd">
<!-- Generated by graphviz version 2.38.0 (20140413.2041)
 -->
<!-- Title: Control&#45;flow graph for function &#39;function_3080()&#39;. Pages: 1 -->
<svg width="1190pt" height="3534pt"
 viewBox="0.00 0.00 1189.50 3534.00" xmlns="http://www.w3.org/2000/svg" xmlns:xlink="http://www.w3.org/1999/xlink">
<g id="graph0" class="graph" transform="scale(1 1) rotate(0) translate(4 3530)">
<title>Control&#45;flow graph for function &#39;function_3080()&#39;.</title>
<polygon fill="white" stroke="none" points="-4,4 -4,-3530 1185.5,-3530 1185.5,4 -4,4"/>
<text text-anchor="middle" x="590.75" y="-7.8" font-family="Times,serif" font-size="14.00">Control&#45;flow graph for function &#39;function_3080()&#39;.</text>
<!-- Node0x15438f20 -->
<g id="node1" class="node"><title>Node0x15438f20</title>
<polygon fill="none" stroke="black" points="501.5,-3489.5 501.5,-3525.5 560.5,-3525.5 560.5,-3489.5 501.5,-3489.5"/>
<text text-anchor="start" x="509.5" y="-3503.8" font-family="Times,serif" font-size="14.00">entry:</text>
</g>
<!-- Node0x15438310 -->
<g id="node2" class="node"><title>Node0x15438310</title>
<polygon fill="none" stroke="black" points="367,-3143.5 367,-3451.5 695,-3451.5 695,-3143.5 367,-3143.5"/>
<text text-anchor="start" x="375" y="-3436.3" font-family="Times,serif" font-size="14.00">0x1d558540:</text>
<text text-anchor="start" x="375" y="-3421.3" font-family="Times,serif" font-size="14.00"> v1 = g38</text>
<text text-anchor="start" x="375" y="-3406.3" font-family="Times,serif" font-size="14.00"> v2 = g39</text>
<text text-anchor="start" x="375" y="-3391.3" font-family="Times,serif" font-size="14.00"> v3 = g40</text>
<text text-anchor="start" x="375" y="-3376.3" font-family="Times,serif" font-size="14.00"> v4 = g41</text>
<text text-anchor="start" x="375" y="-3361.3" font-family="Times,serif" font-size="14.00"> v5 = g42</text>
<text text-anchor="start" x="375" y="-3346.3" font-family="Times,serif" font-size="14.00"> v6 = g29</text>
<text text-anchor="start" x="375" y="-3331.3" font-family="Times,serif" font-size="14.00"> v7 = *(IntToPtrCastExpr&lt;ptr&gt;((v6 + 32)))</text>
<text text-anchor="start" x="375" y="-3316.3" font-family="Times,serif" font-size="14.00"> g41 = v7</text>
<text text-anchor="start" x="375" y="-3301.3" font-family="Times,serif" font-size="14.00"> g39 = v6</text>
<text text-anchor="start" x="375" y="-3286.3" font-family="Times,serif" font-size="14.00"> g6 = True</text>
<text text-anchor="start" x="375" y="-3271.3" font-family="Times,serif" font-size="14.00"> g8 = False</text>
<text text-anchor="start" x="375" y="-3256.3" font-family="Times,serif" font-size="14.00"> g7 = (v7 &lt; 0)</text>
<text text-anchor="start" x="375" y="-3241.3" font-family="Times,serif" font-size="14.00"> g9 = (v7 == 0)</text>
<text text-anchor="start" x="375" y="-3226.3" font-family="Times,serif" font-size="14.00"> v8 = g30</text>
<text text-anchor="start" x="375" y="-3211.3" font-family="Times,serif" font-size="14.00"> g38 = v8</text>
<text text-anchor="start" x="375" y="-3196.3" font-family="Times,serif" font-size="14.00"> g40 = g36</text>
<text text-anchor="start" x="375" y="-3181.3" font-family="Times,serif" font-size="14.00"> v9 = (g37 + v8)</text>
<text text-anchor="start" x="375" y="-3166.3" font-family="Times,serif" font-size="14.00"> g42 = v9</text>
<text text-anchor="start" x="375" y="-3151.3" font-family="Times,serif" font-size="14.00"> v10 = v7</text>
</g>
<!-- Node0x15438f20&#45;&gt;Node0x15438310 -->
<g id="edge1" class="edge"><title>Node0x15438f20&#45;&gt;Node0x15438310</title>
<path fill="none" stroke="black" d="M531,-3489.48C531,-3482.05 531,-3472.57 531,-3461.83"/>
<polygon fill="black" stroke="black" points="534.5,-3461.62 531,-3451.62 527.5,-3461.62 534.5,-3461.62"/>
</g>
<!-- Node0x40118880 -->
<g id="node3" class="node"><title>Node0x40118880</title>
<polygon fill="none" stroke="black" points="476,-3067.5 476,-3105.5 586,-3105.5 586,-3067.5 476,-3067.5"/>
<text text-anchor="start" x="484" y="-3090.3" font-family="Times,serif" font-size="14.00">0x4f8d7c0:</text>
<text text-anchor="start" x="484" y="-3075.3" font-family="Times,serif" font-size="14.00"> if (v7 &lt;= 0):</text>
</g>
<!-- Node0x15438310&#45;&gt;Node0x40118880 -->
<g id="edge2" class="edge"><title>Node0x15438310&#45;&gt;Node0x40118880</title>
<path fill="none" stroke="black" d="M531,-3143.23C531,-3133.18 531,-3123.9 531,-3115.91"/>
<polygon fill="black" stroke="black" points="534.5,-3115.87 531,-3105.87 527.5,-3115.87 534.5,-3115.87"/>
</g>
<!-- Node0x47482170 -->
<g id="node4" class="node"><title>Node0x47482170</title>
<polygon fill="none" stroke="black" points="300,-2887.5 300,-3015.5 436,-3015.5 436,-2887.5 300,-2887.5"/>
<text text-anchor="start" x="308" y="-3000.3" font-family="Times,serif" font-size="14.00">0x4f86dd0:</text>
<text text-anchor="start" x="308" y="-2985.3" font-family="Times,serif" font-size="14.00"> g36 = v6</text>
<text text-anchor="start" x="308" y="-2970.3" font-family="Times,serif" font-size="14.00"> g29 = (v6 + 36)</text>
<text text-anchor="start" x="308" y="-2955.3" font-family="Times,serif" font-size="14.00"> g30 = 10</text>
<text text-anchor="start" x="308" y="-2940.3" font-family="Times,serif" font-size="14.00"> g37 = (v6 + 16)</text>
<text text-anchor="start" x="308" y="-2925.3" font-family="Times,serif" font-size="14.00"> function_2178()</text>
<text text-anchor="start" x="308" y="-2910.3" font-family="Times,serif" font-size="14.00"> g36 = 15</text>
<text text-anchor="start" x="308" y="-2895.3" font-family="Times,serif" font-size="14.00"> v11 = 15</text>
</g>
<!-- Node0x40118880&#45;&gt;Node0x47482170 -->
<g id="edge3" class="edge"><title>Node0x40118880&#45;&gt;Node0x47482170</title>
<path fill="none" stroke="black" d="M508.677,-3067.29C491.835,-3053.54 467.678,-3033.83 444.122,-3014.61"/>
<polygon fill="black" stroke="black" points="446.129,-3011.73 436.168,-3008.12 441.704,-3017.16 446.129,-3011.73"/>
<text text-anchor="middle" x="513" y="-3037.8" font-family="Times,serif" font-size="14.00">v7 &lt;= 0</text>
</g>
<!-- Node0x15438e40 -->
<g id="node5" class="node"><title>Node0x15438e40</title>
<polygon fill="none" stroke="black" points="318.5,-2133.5 318.5,-2201.5 445.5,-2201.5 445.5,-2133.5 318.5,-2133.5"/>
<text text-anchor="start" x="326.5" y="-2186.3" font-family="Times,serif" font-size="14.00">0x1fae5b70:</text>
<text text-anchor="start" x="326.5" y="-2171.3" font-family="Times,serif" font-size="14.00"> v17 = (v9 &#45; v8)</text>
<text text-anchor="start" x="326.5" y="-2156.3" font-family="Times,serif" font-size="14.00"> g29 = v17</text>
<text text-anchor="start" x="326.5" y="-2141.3" font-family="Times,serif" font-size="14.00"> v18 = v17</text>
</g>
<!-- Node0x40118880&#45;&gt;Node0x15438e40 -->
<g id="edge4" class="edge"><title>Node0x40118880&#45;&gt;Node0x15438e40</title>
<path fill="none" stroke="black" d="M550.775,-3067.32C574.466,-3043.47 611,-2999.12 611,-2952.5 611,-2952.5 611,-2952.5 611,-2287.5 611,-2216.33 522.833,-2187.66 455.913,-2176.16"/>
<polygon fill="black" stroke="black" points="456.22,-2172.66 445.789,-2174.52 455.101,-2179.57 456.22,-2172.66"/>
<text text-anchor="middle" x="635" y="-2585.8" font-family="Times,serif" font-size="14.00">v7 &gt; 0</text>
</g>
<!-- Node0x15438c80 -->
<g id="node6" class="node"><title>Node0x15438c80</title>
<polygon fill="none" stroke="black" points="317.5,-2811.5 317.5,-2849.5 418.5,-2849.5 418.5,-2811.5 317.5,-2811.5"/>
<text text-anchor="start" x="325.5" y="-2834.3" font-family="Times,serif" font-size="14.00">0x4f8d5e0:</text>
<text text-anchor="start" x="325.5" y="-2819.3" font-family="Times,serif" font-size="14.00"> while True:</text>
</g>
<!-- Node0x47482170&#45;&gt;Node0x15438c80 -->
<g id="edge5" class="edge"><title>Node0x47482170&#45;&gt;Node0x15438c80</title>
<path fill="none" stroke="black" d="M368,-2887.17C368,-2877.6 368,-2868.16 368,-2859.85"/>
<polygon fill="black" stroke="black" points="371.5,-2859.66 368,-2849.66 364.5,-2859.66 371.5,-2859.66"/>
</g>
<!-- Node0xa5baac0 -->
<g id="node7" class="node"><title>Node0xa5baac0</title>
<polygon fill="none" stroke="black" points="314,-2057.5 314,-2095.5 450,-2095.5 450,-2057.5 314,-2057.5"/>
<text text-anchor="start" x="322" y="-2080.3" font-family="Times,serif" font-size="14.00">0x4f8f4f0:</text>
<text text-anchor="start" x="322" y="-2065.3" font-family="Times,serif" font-size="14.00"> if (v17 &gt;= v10):</text>
</g>
<!-- Node0x15438e40&#45;&gt;Node0xa5baac0 -->
<g id="edge6" class="edge"><title>Node0x15438e40&#45;&gt;Node0xa5baac0</title>
<path fill="none" stroke="black" d="M382,-2133.36C382,-2124.36 382,-2114.71 382,-2105.99"/>
<polygon fill="black" stroke="black" points="385.5,-2105.94 382,-2095.94 378.5,-2105.94 385.5,-2105.94"/>
</g>
<!-- Node0x1543ad00 -->
<g id="node8" class="node"><title>Node0x1543ad00</title>
<polygon fill="none" stroke="black" points="199.5,-2646.5 199.5,-2759.5 536.5,-2759.5 536.5,-2646.5 199.5,-2646.5"/>
<text text-anchor="start" x="207.5" y="-2744.3" font-family="Times,serif" font-size="14.00">0x199f5120:</text>
<text text-anchor="start" x="207.5" y="-2729.3" font-family="Times,serif" font-size="14.00"> v12 = IntToPtrCastExpr&lt;ptr&gt;((g39 + v11))</text>
<text text-anchor="start" x="207.5" y="-2714.3" font-family="Times,serif" font-size="14.00"> v13 = (ExtCastExpr&lt;int32&gt;(*(v12)) + 1)</text>
<text text-anchor="start" x="207.5" y="-2699.3" font-family="Times,serif" font-size="14.00"> *(v12) = TruncCastExpr&lt;int8&gt;(v13)</text>
<text text-anchor="start" x="207.5" y="-2684.3" font-family="Times,serif" font-size="14.00"> v14 = g36</text>
<text text-anchor="start" x="207.5" y="-2669.3" font-family="Times,serif" font-size="14.00"> v15 = (v14 &#45; 1)</text>
<text text-anchor="start" x="207.5" y="-2654.3" font-family="Times,serif" font-size="14.00"> g36 = v15</text>
</g>
<!-- Node0x15438c80&#45;&gt;Node0x1543ad00 -->
<g id="edge7" class="edge"><title>Node0x15438c80&#45;&gt;Node0x1543ad00</title>
<path fill="none" stroke="black" d="M368,-2811.25C368,-2800.04 368,-2784.93 368,-2769.59"/>
<polygon fill="black" stroke="black" points="371.5,-2769.52 368,-2759.52 364.5,-2769.52 371.5,-2769.52"/>
<text text-anchor="middle" x="385" y="-2781.8" font-family="Times,serif" font-size="14.00">True</text>
</g>
<!-- Node0x474808f0 -->
<g id="node9" class="node"><title>Node0x474808f0</title>
<polygon fill="none" stroke="black" points="426.5,-1952.5 426.5,-2005.5 521.5,-2005.5 521.5,-1952.5 426.5,-1952.5"/>
<text text-anchor="start" x="434.5" y="-1990.3" font-family="Times,serif" font-size="14.00">0x4f8f190:</text>
<text text-anchor="start" x="434.5" y="-1975.3" font-family="Times,serif" font-size="14.00"> g29 = v10</text>
<text text-anchor="start" x="434.5" y="-1960.3" font-family="Times,serif" font-size="14.00"> v18 = v10</text>
</g>
<!-- Node0xa5baac0&#45;&gt;Node0x474808f0 -->
<g id="edge8" class="edge"><title>Node0xa5baac0&#45;&gt;Node0x474808f0</title>
<path fill="none" stroke="black" d="M399.739,-2057.09C411.744,-2044.62 427.942,-2027.81 442.147,-2013.06"/>
<polygon fill="black" stroke="black" points="444.944,-2015.21 449.361,-2005.58 439.902,-2010.35 444.944,-2015.21"/>
<text text-anchor="middle" x="474" y="-2027.8" font-family="Times,serif" font-size="14.00">v17 &gt;= v10</text>
</g>
<!-- Node0x24187de0 -->
<g id="node10" class="node"><title>Node0x24187de0</title>
<polygon fill="none" stroke="black" points="292,-1876.5 292,-1914.5 402,-1914.5 402,-1876.5 292,-1876.5"/>
<text text-anchor="start" x="300" y="-1899.3" font-family="Times,serif" font-size="14.00">0x1b28d6e0:</text>
<text text-anchor="start" x="300" y="-1884.3" font-family="Times,serif" font-size="14.00"> v19</text>
</g>
<!-- Node0xa5baac0&#45;&gt;Node0x24187de0 -->
<g id="edge9" class="edge"><title>Node0xa5baac0&#45;&gt;Node0x24187de0</title>
<path fill="none" stroke="black" d="M368.447,-2057.45C359.264,-2044.04 347.934,-2024.87 343,-2006 335.971,-1979.11 338.268,-1947.25 341.535,-1924.85"/>
<polygon fill="black" stroke="black" points="345.039,-1925.11 343.18,-1914.68 338.128,-1923.99 345.039,-1925.11"/>
<text text-anchor="middle" x="380" y="-1975.3" font-family="Times,serif" font-size="14.00">v17 &lt; v10</text>
</g>
<!-- Node0x1543b020 -->
<g id="node11" class="node"><title>Node0x1543b020</title>
<polygon fill="none" stroke="black" points="278.5,-2570.5 278.5,-2608.5 457.5,-2608.5 457.5,-2570.5 278.5,-2570.5"/>
<text text-anchor="start" x="286.5" y="-2593.3" font-family="Times,serif" font-size="14.00">0x4f8b460:</text>
<text text-anchor="start" x="286.5" y="-2578.3" font-family="Times,serif" font-size="14.00"> if ((v13 % 256) == 0):</text>
</g>
<!-- Node0x1543ad00&#45;&gt;Node0x1543b020 -->
<g id="edge10" class="edge"><title>Node0x1543ad00&#45;&gt;Node0x1543b020</title>
<path fill="none" stroke="black" d="M368,-2646.25C368,-2636.86 368,-2627.47 368,-2619.15"/>
<polygon fill="black" stroke="black" points="371.5,-2618.91 368,-2608.91 364.5,-2618.91 371.5,-2618.91"/>
</g>
<!-- Node0x474808f0&#45;&gt;Node0x24187de0 -->
<g id="edge11" class="edge"><title>Node0x474808f0&#45;&gt;Node0x24187de0</title>
<path fill="none" stroke="black" d="M434.165,-1952.44C418.084,-1942.12 399.64,-1930.28 383.872,-1920.16"/>
<polygon fill="black" stroke="black" points="385.725,-1917.19 375.419,-1914.74 381.944,-1923.08 385.725,-1917.19"/>
</g>
<!-- Node0x47482630 -->
<g id="node12" class="node"><title>Node0x47482630</title>
<polygon fill="none" stroke="black" points="283,-1800.5 283,-1838.5 411,-1838.5 411,-1800.5 283,-1800.5"/>
<text text-anchor="start" x="291" y="-1823.3" font-family="Times,serif" font-size="14.00">0x4f9cf50:</text>
<text text-anchor="start" x="291" y="-1808.3" font-family="Times,serif" font-size="14.00"> if (v18 == 16):</text>
</g>
<!-- Node0x24187de0&#45;&gt;Node0x47482630 -->
<g id="edge12" class="edge"><title>Node0x24187de0&#45;&gt;Node0x47482630</title>
<path fill="none" stroke="black" d="M347,-1876.21C347,-1867.96 347,-1858.04 347,-1848.86"/>
<polygon fill="black" stroke="black" points="350.5,-1848.58 347,-1838.58 343.5,-1848.58 350.5,-1848.58"/>
</g>
<!-- Node0x1543cba0 -->
<g id="node13" class="node"><title>Node0x1543cba0</title>
<polygon fill="none" stroke="black" points="215.5,-2480.5 215.5,-2518.5 334.5,-2518.5 334.5,-2480.5 215.5,-2480.5"/>
<text text-anchor="start" x="223.5" y="-2503.3" font-family="Times,serif" font-size="14.00">0x4f8b2c0:</text>
<text text-anchor="start" x="223.5" y="-2488.3" font-family="Times,serif" font-size="14.00"> if (v14 == 0):</text>
</g>
<!-- Node0x1543b020&#45;&gt;Node0x1543cba0 -->
<g id="edge13" class="edge"><title>Node0x1543b020&#45;&gt;Node0x1543cba0</title>
<path fill="none" stroke="black" d="M296.429,-2570.43C288.437,-2565.66 281.287,-2559.63 276,-2552 271.394,-2545.36 269.916,-2536.98 269.931,-2528.93"/>
<polygon fill="black" stroke="black" points="273.441,-2528.93 270.674,-2518.7 266.459,-2528.42 273.441,-2528.93"/>
<text text-anchor="middle" x="340.5" y="-2540.8" font-family="Times,serif" font-size="14.00">(v13 % 256) == 0</text>
</g>
<!-- Node0x1543b330 -->
<g id="node14" class="node"><title>Node0x1543b330</title>
<polygon fill="none" stroke="black" points="396,-2480.5 396,-2518.5 542,-2518.5 542,-2480.5 396,-2480.5"/>
<text text-anchor="start" x="404" y="-2503.3" font-family="Times,serif" font-size="14.00">0x4f8bc10:</text>
<text text-anchor="start" x="404" y="-2488.3" font-family="Times,serif" font-size="14.00"> g41 = (g41 + 16)</text>
</g>
<!-- Node0x1543b020&#45;&gt;Node0x1543b330 -->
<g id="edge14" class="edge"><title>Node0x1543b020&#45;&gt;Node0x1543b330</title>
<path fill="none" stroke="black" d="M388.927,-2570.27C403.824,-2557.29 424.021,-2539.69 440.404,-2525.42"/>
<polygon fill="black" stroke="black" points="442.859,-2527.92 448.1,-2518.71 438.261,-2522.64 442.859,-2527.92"/>
<text text-anchor="middle" x="486.5" y="-2540.8" font-family="Times,serif" font-size="14.00">(v13 % 256) != 0</text>
</g>
<!-- Node0x47480870 -->
<g id="node15" class="node"><title>Node0x47480870</title>
<polygon fill="none" stroke="black" points="359,-1710.5 359,-1748.5 469,-1748.5 469,-1710.5 359,-1710.5"/>
<text text-anchor="start" x="367" y="-1733.3" font-family="Times,serif" font-size="14.00">0x15242190:</text>
<text text-anchor="start" x="367" y="-1718.3" font-family="Times,serif" font-size="14.00"> v20 = g40</text>
</g>
<!-- Node0x47482630&#45;&gt;Node0x47480870 -->
<g id="edge15" class="edge"><title>Node0x47482630&#45;&gt;Node0x47480870</title>
<path fill="none" stroke="black" d="M360.882,-1800.27C370.405,-1787.76 383.193,-1770.96 393.835,-1756.99"/>
<polygon fill="black" stroke="black" points="396.862,-1758.79 400.135,-1748.71 391.293,-1754.55 396.862,-1758.79"/>
<text text-anchor="middle" x="424" y="-1770.8" font-family="Times,serif" font-size="14.00">v18 == 16</text>
</g>
<!-- Node0x47480d60 -->
<g id="node16" class="node"><title>Node0x47480d60</title>
<polygon fill="none" stroke="black" points="244.5,-1470.5 244.5,-1568.5 389.5,-1568.5 389.5,-1470.5 244.5,-1470.5"/>
<text text-anchor="start" x="252.5" y="-1553.3" font-family="Times,serif" font-size="14.00">0x194ec450:</text>
<text text-anchor="start" x="252.5" y="-1538.3" font-family="Times,serif" font-size="14.00"> v29 = (g39 + 32)</text>
<text text-anchor="start" x="252.5" y="-1523.3" font-family="Times,serif" font-size="14.00"> g37 = v29</text>
<text text-anchor="start" x="252.5" y="-1508.3" font-family="Times,serif" font-size="14.00"> v30 = (v29 &#45; v10)</text>
<text text-anchor="start" x="252.5" y="-1493.3" font-family="Times,serif" font-size="14.00"> g33 = v30</text>
<text text-anchor="start" x="252.5" y="-1478.3" font-family="Times,serif" font-size="14.00"> g30 = 0</text>
</g>
<!-- Node0x47482630&#45;&gt;Node0x47480d60 -->
<g id="edge16" class="edge"><title>Node0x47482630&#45;&gt;Node0x47480d60</title>
<path fill="none" stroke="black" d="M345.169,-1800.31C340.831,-1757.22 329.776,-1647.41 322.876,-1578.87"/>
<polygon fill="black" stroke="black" points="326.332,-1578.25 321.848,-1568.65 319.367,-1578.95 326.332,-1578.25"/>
<text text-anchor="middle" x="371" y="-1680.8" font-family="Times,serif" font-size="14.00">v18 != 16</text>
</g>
<!-- Node0x1543a030 -->
<g id="node17" class="node"><title>Node0x1543a030</title>
<polygon fill="none" stroke="black" points="314.5,-2383 314.5,-2421 407.5,-2421 407.5,-2383 314.5,-2383"/>
<text text-anchor="start" x="322.5" y="-2405.8" font-family="Times,serif" font-size="14.00">0x4f8afd0:</text>
<text text-anchor="start" x="322.5" y="-2390.8" font-family="Times,serif" font-size="14.00"> break</text>
</g>
<!-- Node0x1543cba0&#45;&gt;Node0x1543a030 -->
<g id="edge17" class="edge"><title>Node0x1543cba0&#45;&gt;Node0x1543a030</title>
<path fill="none" stroke="black" d="M304.756,-2480.34C312.199,-2474.98 319.816,-2468.74 326,-2462 334.657,-2452.57 342.216,-2440.65 348.072,-2430"/>
<polygon fill="black" stroke="black" points="351.215,-2431.54 352.764,-2421.06 345.017,-2428.29 351.215,-2431.54"/>
<text text-anchor="middle" x="372.5" y="-2450.8" font-family="Times,serif" font-size="14.00">v14 == 0</text>
</g>
<!-- Node0x1543ce60 -->
<g id="node18" class="node"><title>Node0x1543ce60</title>
<polygon fill="none" stroke="black" points="187,-2375.5 187,-2428.5 283,-2428.5 283,-2375.5 187,-2375.5"/>
<text text-anchor="start" x="195" y="-2413.3" font-family="Times,serif" font-size="14.00">0x4f8ae20:</text>
<text text-anchor="start" x="195" y="-2398.3" font-family="Times,serif" font-size="14.00"> v11 = v15</text>
<text text-anchor="start" x="195" y="-2383.3" font-family="Times,serif" font-size="14.00"> continue</text>
</g>
<!-- Node0x1543cba0&#45;&gt;Node0x1543ce60 -->
<g id="edge18" class="edge"><title>Node0x1543cba0&#45;&gt;Node0x1543ce60</title>
<path fill="none" stroke="black" d="M267.288,-2480.09C262.307,-2468.2 255.667,-2452.34 249.704,-2438.11"/>
<polygon fill="black" stroke="black" points="252.804,-2436.45 245.713,-2428.58 246.348,-2439.15 252.804,-2436.45"/>
<text text-anchor="middle" x="290.5" y="-2450.8" font-family="Times,serif" font-size="14.00">v14 != 0</text>
</g>
<!-- Node0x1543b330&#45;&gt;Node0x15438c80 -->
<g id="edge19" class="edge"><title>Node0x1543b330&#45;&gt;Node0x15438c80</title>
<path fill="none" stroke="black" d="M531.445,-2518.63C539.176,-2523.4 546.077,-2529.42 551,-2537 605.003,-2620.15 602.02,-2678.89 545,-2760 518.658,-2797.47 468.88,-2814.74 428.806,-2822.7"/>
<polygon fill="black" stroke="black" points="428.05,-2819.28 418.847,-2824.53 429.315,-2826.16 428.05,-2819.28"/>
</g>
<!-- Node0x4747fe30 -->
<g id="node19" class="node"><title>Node0x4747fe30</title>
<polygon fill="none" stroke="black" points="345,-1620.5 345,-1658.5 557,-1658.5 557,-1620.5 345,-1620.5"/>
<text text-anchor="start" x="353" y="-1643.3" font-family="Times,serif" font-size="14.00">0x4f9cdb0:</text>
<text text-anchor="start" x="353" y="-1628.3" font-family="Times,serif" font-size="14.00"> if (((v20 or v8) % 4) == 0):</text>
</g>
<!-- Node0x47480870&#45;&gt;Node0x4747fe30 -->
<g id="edge20" class="edge"><title>Node0x47480870&#45;&gt;Node0x4747fe30</title>
<path fill="none" stroke="black" d="M421.666,-1710.27C426.776,-1698.11 433.589,-1681.91 439.362,-1668.18"/>
<polygon fill="black" stroke="black" points="442.694,-1669.29 443.343,-1658.71 436.241,-1666.57 442.694,-1669.29"/>
</g>
<!-- Node0x47483bf0 -->
<g id="node20" class="node"><title>Node0x47483bf0</title>
<polygon fill="none" stroke="black" points="225.5,-1206.5 225.5,-1244.5 344.5,-1244.5 344.5,-1206.5 225.5,-1206.5"/>
<text text-anchor="start" x="233.5" y="-1229.3" font-family="Times,serif" font-size="14.00">0x4f9f160:</text>
<text text-anchor="start" x="233.5" y="-1214.3" font-family="Times,serif" font-size="14.00"> if (v18 &lt;= 0):</text>
</g>
<!-- Node0x47480d60&#45;&gt;Node0x47483bf0 -->
<g id="edge21" class="edge"><title>Node0x47480d60&#45;&gt;Node0x47483bf0</title>
<path fill="none" stroke="black" d="M302.765,-1470.45C301.301,-1464.28 299.991,-1458.02 299,-1452 287.452,-1381.86 285.238,-1298.02 284.93,-1255.03"/>
<polygon fill="black" stroke="black" points="288.429,-1254.75 284.888,-1244.76 281.429,-1254.78 288.429,-1254.75"/>
</g>
<!-- Node0x474818b0 -->
<g id="node21" class="node"><title>Node0x474818b0</title>
<polygon fill="none" stroke="black" points="305.5,-2239.5 305.5,-2337.5 450.5,-2337.5 450.5,-2239.5 305.5,-2239.5"/>
<text text-anchor="start" x="313.5" y="-2322.3" font-family="Times,serif" font-size="14.00">0x13462d50:</text>
<text text-anchor="start" x="313.5" y="-2307.3" font-family="Times,serif" font-size="14.00"> v16 = (g41 + 16)</text>
<text text-anchor="start" x="313.5" y="-2292.3" font-family="Times,serif" font-size="14.00"> g41 = v16</text>
<text text-anchor="start" x="313.5" y="-2277.3" font-family="Times,serif" font-size="14.00"> v10 = v16</text>
<text text-anchor="start" x="313.5" y="-2262.3" font-family="Times,serif" font-size="14.00"> v8 = g38</text>
<text text-anchor="start" x="313.5" y="-2247.3" font-family="Times,serif" font-size="14.00"> v9 = g42</text>
</g>
<!-- Node0x1543a030&#45;&gt;Node0x474818b0 -->
<g id="edge22" class="edge"><title>Node0x1543a030&#45;&gt;Node0x474818b0</title>
<path fill="none" stroke="black" d="M363.807,-2382.59C365.281,-2372.92 367.176,-2360.49 369.099,-2347.88"/>
<polygon fill="black" stroke="black" points="372.593,-2348.19 370.64,-2337.77 365.673,-2347.13 372.593,-2348.19"/>
</g>
<!-- Node0x1543ce60&#45;&gt;Node0x15438c80 -->
<g id="edge23" class="edge"><title>Node0x1543ce60&#45;&gt;Node0x15438c80</title>
<path fill="none" stroke="black" d="M205.622,-2428.78C188.798,-2446.47 171,-2471.56 171,-2498.5 171,-2704 171,-2704 171,-2704 171,-2730.28 171.84,-2741 190,-2760 221.037,-2792.47 269.037,-2810.04 307.374,-2819.38"/>
<polygon fill="black" stroke="black" points="306.87,-2822.85 317.401,-2821.69 308.443,-2816.03 306.87,-2822.85"/>
</g>
<!-- Node0x4747fe30&#45;&gt;Node0x47480d60 -->
<g id="edge25" class="edge"><title>Node0x4747fe30&#45;&gt;Node0x47480d60</title>
<path fill="none" stroke="black" d="M430.356,-1620.32C416.609,-1608.22 397.756,-1591.61 379.37,-1575.42"/>
<polygon fill="black" stroke="black" points="381.353,-1572.51 371.535,-1568.52 376.726,-1577.76 381.353,-1572.51"/>
<text text-anchor="middle" x="486.5" y="-1590.8" font-family="Times,serif" font-size="14.00">((v20 or v8) % 4) != 0</text>
</g>
<!-- Node0x1543b430 -->
<g id="node22" class="node"><title>Node0x1543b430</title>
<polygon fill="none" stroke="black" points="300.5,-1263.5 300.5,-1451.5 1181.5,-1451.5 1181.5,-1263.5 300.5,-1263.5"/>
<text text-anchor="start" x="308.5" y="-1436.3" font-family="Times,serif" font-size="14.00">0x3fe2bef0:</text>
<text text-anchor="start" x="308.5" y="-1421.3" font-family="Times,serif" font-size="14.00"> v21 = (g39 + 16)</text>
<text text-anchor="start" x="308.5" y="-1406.3" font-family="Times,serif" font-size="14.00"> g30 = v21</text>
<text text-anchor="start" x="308.5" y="-1391.3" font-family="Times,serif" font-size="14.00"> *(IntToPtrCastExpr&lt;ptr&gt;(v20)) = (*(IntToPtrCastExpr&lt;ptr&gt;(v8)) ^ *(IntToPtrCastExpr&lt;ptr&gt;(v21)))</text>
<text text-anchor="start" x="308.5" y="-1376.3" font-family="Times,serif" font-size="14.00"> *(IntToPtrCastExpr&lt;ptr&gt;((g40 + 4))) = (*(IntToPtrCastExpr&lt;ptr&gt;((g38 + 4))) ^ *(IntToPtrCastExpr&lt;ptr&gt;((g30 + 4))))</text>
<text text-anchor="start" x="308.5" y="-1361.3" font-family="Times,serif" font-size="14.00"> *(IntToPtrCastExpr&lt;ptr&gt;((g40 + 8))) = (*(IntToPtrCastExpr&lt;ptr&gt;((g38 + 8))) ^ *(IntToPtrCastExpr&lt;ptr&gt;((g30 + 8))))</text>
<text text-anchor="start" x="308.5" y="-1346.3" font-family="Times,serif" font-size="14.00"> v22 = *(IntToPtrCastExpr&lt;ptr&gt;((g30 + 12)))</text>
<text text-anchor="start" x="308.5" y="-1331.3" font-family="Times,serif" font-size="14.00"> g36 = v22</text>
<text text-anchor="start" x="308.5" y="-1316.3" font-family="Times,serif" font-size="14.00"> v23 = (*(IntToPtrCastExpr&lt;ptr&gt;((g38 + 12))) ^ v22)</text>
<text text-anchor="start" x="308.5" y="-1301.3" font-family="Times,serif" font-size="14.00"> g37 = v23</text>
<text text-anchor="start" x="308.5" y="-1286.3" font-family="Times,serif" font-size="14.00"> *(IntToPtrCastExpr&lt;ptr&gt;((g40 + 12))) = v23</text>
<text text-anchor="start" x="308.5" y="-1271.3" font-family="Times,serif" font-size="14.00"> v19 = g29</text>
</g>
<!-- Node0x4747fe30&#45;&gt;Node0x1543b430 -->
<g id="edge24" class="edge"><title>Node0x4747fe30&#45;&gt;Node0x1543b430</title>
<path fill="none" stroke="black" d="M533.975,-1620.49C546.374,-1615.68 558.501,-1609.62 569,-1602 619.379,-1565.43 660.386,-1509.47 689.708,-1460.42"/>
<polygon fill="black" stroke="black" points="692.805,-1462.05 694.862,-1451.66 686.773,-1458.5 692.805,-1462.05"/>
<text text-anchor="middle" x="668.5" y="-1590.8" font-family="Times,serif" font-size="14.00">((v20 or v8) % 4) == 0</text>
</g>
<!-- Node0x15437b70 -->
<g id="node23" class="node"><title>Node0x15437b70</title>
<polygon fill="none" stroke="black" points="164,-1044.5 164,-1097.5 306,-1097.5 306,-1044.5 164,-1044.5"/>
<text text-anchor="start" x="172" y="-1082.3" font-family="Times,serif" font-size="14.00">0x4f9ebe0:</text>
<text text-anchor="start" x="172" y="-1067.3" font-family="Times,serif" font-size="14.00"> v19 = v18</text>
<text text-anchor="start" x="172" y="-1052.3" font-family="Times,serif" font-size="14.00"> goto 0x1d161fa0</text>
</g>
<!-- Node0x47483bf0&#45;&gt;Node0x15437b70 -->
<g id="edge26" class="edge"><title>Node0x47483bf0&#45;&gt;Node0x15437b70</title>
<path fill="none" stroke="black" d="M248.557,-1206.48C241.897,-1201.46 235.846,-1195.32 232,-1188 219.044,-1163.35 220.956,-1131.49 225.457,-1107.4"/>
<polygon fill="black" stroke="black" points="228.886,-1108.1 227.508,-1097.6 222.034,-1106.67 228.886,-1108.1"/>
<text text-anchor="middle" x="266.5" y="-1176.8" font-family="Times,serif" font-size="14.00">v18 &lt;= 0</text>
</g>
<!-- Node0x474808b0 -->
<g id="node24" class="node"><title>Node0x474808b0</title>
<polygon fill="none" stroke="black" points="272.5,-1116.5 272.5,-1154.5 381.5,-1154.5 381.5,-1116.5 272.5,-1116.5"/>
<text text-anchor="start" x="280.5" y="-1139.3" font-family="Times,serif" font-size="14.00">0x13ba71e0:</text>
<text text-anchor="start" x="280.5" y="-1124.3" font-family="Times,serif" font-size="14.00"> v31 = 0</text>
</g>
<!-- Node0x47483bf0&#45;&gt;Node0x474808b0 -->
<g id="edge27" class="edge"><title>Node0x47483bf0&#45;&gt;Node0x474808b0</title>
<path fill="none" stroke="black" d="M295.323,-1206.49C298.545,-1200.65 302.03,-1194.11 305,-1188 308.706,-1180.38 312.44,-1171.97 315.752,-1164.2"/>
<polygon fill="black" stroke="black" points="319.052,-1165.38 319.689,-1154.81 312.596,-1162.68 319.052,-1165.38"/>
<text text-anchor="middle" x="340.5" y="-1176.8" font-family="Times,serif" font-size="14.00">v18 &gt; 0</text>
</g>
<!-- Node0x474818b0&#45;&gt;Node0x15438e40 -->
<g id="edge28" class="edge"><title>Node0x474818b0&#45;&gt;Node0x15438e40</title>
<path fill="none" stroke="black" d="M379.615,-2239.44C379.921,-2230.35 380.239,-2220.9 380.539,-2211.96"/>
<polygon fill="black" stroke="black" points="384.044,-2211.88 380.882,-2201.76 377.048,-2211.64 384.044,-2211.88"/>
</g>
<!-- Node0x1543ba50 -->
<g id="node25" class="node"><title>Node0x1543ba50</title>
<polygon fill="none" stroke="black" points="319.5,-415.5 319.5,-558.5 620.5,-558.5 620.5,-415.5 319.5,-415.5"/>
<text text-anchor="start" x="327.5" y="-543.3" font-family="Times,serif" font-size="14.00">0x1d161fa0:</text>
<text text-anchor="start" x="327.5" y="-528.3" font-family="Times,serif" font-size="14.00"> v24 = (g38 + v19)</text>
<text text-anchor="start" x="327.5" y="-513.3" font-family="Times,serif" font-size="14.00"> v25 = g42</text>
<text text-anchor="start" x="327.5" y="-498.3" font-family="Times,serif" font-size="14.00"> v26 = (v24 &#45; v25)</text>
<text text-anchor="start" x="327.5" y="-483.3" font-family="Times,serif" font-size="14.00"> g6 = (v24 &gt;= v25)</text>
<text text-anchor="start" x="327.5" y="-468.3" font-family="Times,serif" font-size="14.00"> g8 = (((v26 ^ v24) &amp; (v24 ^ v25)) &lt; 0)</text>
<text text-anchor="start" x="327.5" y="-453.3" font-family="Times,serif" font-size="14.00"> g7 = (v26 &lt; 0)</text>
<text text-anchor="start" x="327.5" y="-438.3" font-family="Times,serif" font-size="14.00"> g9 = (v24 == v25)</text>
<text text-anchor="start" x="327.5" y="-423.3" font-family="Times,serif" font-size="14.00"> v27 = (g41 &#45; v19)</text>
</g>
<!-- Node0x1543b430&#45;&gt;Node0x1543ba50 -->
<g id="edge29" class="edge"><title>Node0x1543b430&#45;&gt;Node0x1543ba50</title>
<path fill="none" stroke="black" d="M741,-1263.41C741,-1236.94 741,-1208.08 741,-1181.5 741,-1181.5 741,-1181.5 741,-629.5 741,-569.922 688.896,-535.386 630.382,-515.386"/>
<polygon fill="black" stroke="black" points="631.15,-511.955 620.557,-512.179 628.978,-518.609 631.15,-511.955"/>
</g>
<!-- Node0x15437b70&#45;&gt;Node0x1543ba50 -->
<g id="edge30" class="edge"><title>Node0x15437b70&#45;&gt;Node0x1543ba50</title>
<path fill="none" stroke="black" d="M235,-1044.37C235,-1022.59 235,-990.495 235,-962.5 235,-962.5 235,-962.5 235,-629.5 235,-583.483 268.48,-552.045 310.166,-530.736"/>
<polygon fill="black" stroke="black" points="311.723,-533.871 319.177,-526.341 308.654,-527.579 311.723,-533.871"/>
</g>
<!-- Node0x4747fed0 -->
<g id="node26" class="node"><title>Node0x4747fed0</title>
<polygon fill="none" stroke="black" points="276.5,-987.5 276.5,-1025.5 377.5,-1025.5 377.5,-987.5 276.5,-987.5"/>
<text text-anchor="start" x="284.5" y="-1010.3" font-family="Times,serif" font-size="14.00">0x4fa3dd0:</text>
<text text-anchor="start" x="284.5" y="-995.3" font-family="Times,serif" font-size="14.00"> while True:</text>
</g>
<!-- Node0x474808b0&#45;&gt;Node0x4747fed0 -->
<g id="edge31" class="edge"><title>Node0x474808b0&#45;&gt;Node0x4747fed0</title>
<path fill="none" stroke="black" d="M327,-1116.3C327,-1095.27 327,-1060.41 327,-1035.82"/>
<polygon fill="black" stroke="black" points="330.5,-1035.66 327,-1025.66 323.5,-1035.66 330.5,-1035.66"/>
</g>
<!-- Node0x1543be50 -->
<g id="node27" class="node"><title>Node0x1543be50</title>
<polygon fill="none" stroke="black" points="402,-324.5 402,-377.5 538,-377.5 538,-324.5 402,-324.5"/>
<text text-anchor="start" x="410" y="-362.3" font-family="Times,serif" font-size="14.00">0x4f9aca0:</text>
<text text-anchor="start" x="410" y="-347.3" font-family="Times,serif" font-size="14.00"> if (v24 == v25):</text>
<text text-anchor="start" x="410" y="-332.3" font-family="Times,serif" font-size="14.00"> else:</text>
</g>
<!-- Node0x1543ba50&#45;&gt;Node0x1543be50 -->
<g id="edge32" class="edge"><title>Node0x1543ba50&#45;&gt;Node0x1543be50</title>
<path fill="none" stroke="black" d="M470,-415.468C470,-405.876 470,-396.38 470,-387.77"/>
<polygon fill="black" stroke="black" points="473.5,-387.761 470,-377.761 466.5,-387.761 473.5,-387.761"/>
</g>
<!-- Node0x15437e80 -->
<g id="node28" class="node"><title>Node0x15437e80</title>
<polygon fill="none" stroke="black" points="301,-792.5 301,-935.5 713,-935.5 713,-792.5 301,-792.5"/>
<text text-anchor="start" x="309" y="-920.3" font-family="Times,serif" font-size="14.00">0x448f2560:</text>
<text text-anchor="start" x="309" y="-905.3" font-family="Times,serif" font-size="14.00"> v32 = *(IntToPtrCastExpr&lt;ptr&gt;((v31 + v8)))</text>
<text text-anchor="start" x="309" y="-890.3" font-family="Times,serif" font-size="14.00"> g36 = v32</text>
<text text-anchor="start" x="309" y="-875.3" font-family="Times,serif" font-size="14.00"> v33 = (v32 ^ *(IntToPtrCastExpr&lt;ptr&gt;((v31 + v30))))</text>
<text text-anchor="start" x="309" y="-860.3" font-family="Times,serif" font-size="14.00"> g37 = v33</text>
<text text-anchor="start" x="309" y="-845.3" font-family="Times,serif" font-size="14.00"> *(IntToPtrCastExpr&lt;ptr&gt;((g40 + v31))) = v33</text>
<text text-anchor="start" x="309" y="-830.3" font-family="Times,serif" font-size="14.00"> v34 = (g30 + 1)</text>
<text text-anchor="start" x="309" y="-815.3" font-family="Times,serif" font-size="14.00"> g30 = v34</text>
<text text-anchor="start" x="309" y="-800.3" font-family="Times,serif" font-size="14.00"> v35 = g29</text>
</g>
<!-- Node0x4747fed0&#45;&gt;Node0x15437e80 -->
<g id="edge33" class="edge"><title>Node0x4747fed0&#45;&gt;Node0x15437e80</title>
<path fill="none" stroke="black" d="M350.163,-987.42C365.47,-975.472 386.685,-958.912 408.571,-941.829"/>
<polygon fill="black" stroke="black" points="410.926,-944.431 416.655,-935.519 406.618,-938.913 410.926,-944.431"/>
<text text-anchor="middle" x="408" y="-957.8" font-family="Times,serif" font-size="14.00">True</text>
</g>
<!-- Node0x1543cf90 -->
<g id="node29" class="node"><title>Node0x1543cf90</title>
<polygon fill="none" stroke="black" points="333.5,-234.5 333.5,-272.5 680.5,-272.5 680.5,-234.5 333.5,-234.5"/>
<text text-anchor="start" x="341.5" y="-257.3" font-family="Times,serif" font-size="14.00">0x4f9aa00:</text>
<text text-anchor="start" x="341.5" y="-242.3" font-family="Times,serif" font-size="14.00"> *(IntToPtrCastExpr&lt;ptr&gt;((g39 + 32))) = v27</text>
</g>
<!-- Node0x1543be50&#45;&gt;Node0x1543cf90 -->
<g id="edge34" class="edge"><title>Node0x1543be50&#45;&gt;Node0x1543cf90</title>
<path fill="none" stroke="black" d="M479.915,-324.408C484.964,-311.376 491.11,-295.514 496.27,-282.196"/>
<polygon fill="black" stroke="black" points="499.64,-283.185 499.989,-272.596 493.113,-280.656 499.64,-283.185"/>
<text text-anchor="middle" x="535" y="-294.8" font-family="Times,serif" font-size="14.00">v24 == v25</text>
</g>
<!-- Node0x1543d1a0 -->
<g id="node30" class="node"><title>Node0x1543d1a0</title>
<polygon fill="none" stroke="black" points="161,-234.5 161,-272.5 315,-272.5 315,-234.5 161,-234.5"/>
<text text-anchor="start" x="169" y="-257.3" font-family="Times,serif" font-size="14.00">0x4f9b1e0:</text>
<text text-anchor="start" x="169" y="-242.3" font-family="Times,serif" font-size="14.00"> g40 = (g40 + v19)</text>
</g>
<!-- Node0x1543be50&#45;&gt;Node0x1543d1a0 -->
<g id="edge35" class="edge"><title>Node0x1543be50&#45;&gt;Node0x1543d1a0</title>
<path fill="none" stroke="black" d="M407.828,-324.408C371.513,-309.459 326.154,-290.788 291.451,-276.502"/>
<polygon fill="black" stroke="black" points="292.541,-273.166 281.961,-272.596 289.876,-279.639 292.541,-273.166"/>
<text text-anchor="middle" x="401" y="-294.8" font-family="Times,serif" font-size="14.00">v24 != v25</text>
</g>
<!-- Node0x13a3bfa0 -->
<g id="node31" class="node"><title>Node0x13a3bfa0</title>
<polygon fill="none" stroke="black" points="402,-716.5 402,-754.5 538,-754.5 538,-716.5 402,-716.5"/>
<text text-anchor="start" x="410" y="-739.3" font-family="Times,serif" font-size="14.00">0x4fa2f50:</text>
<text text-anchor="start" x="410" y="-724.3" font-family="Times,serif" font-size="14.00"> if (v34 &gt;= v35):</text>
</g>
<!-- Node0x15437e80&#45;&gt;Node0x13a3bfa0 -->
<g id="edge36" class="edge"><title>Node0x15437e80&#45;&gt;Node0x13a3bfa0</title>
<path fill="none" stroke="black" d="M486.336,-792.353C483.418,-782.375 480.572,-772.645 478.095,-764.177"/>
<polygon fill="black" stroke="black" points="481.443,-763.156 475.277,-754.54 474.725,-765.121 481.443,-763.156"/>
</g>
<!-- Node0x1543c260 -->
<g id="node32" class="node"><title>Node0x1543c260</title>
<polygon fill="none" stroke="black" points="0,-23.5 0,-196.5 476,-196.5 476,-23.5 0,-23.5"/>
<text text-anchor="start" x="8" y="-181.3" font-family="Times,serif" font-size="14.00">0x4f9b520:</text>
<text text-anchor="start" x="8" y="-166.3" font-family="Times,serif" font-size="14.00"> g38 = v1</text>
<text text-anchor="start" x="8" y="-151.3" font-family="Times,serif" font-size="14.00"> g39 = v2</text>
<text text-anchor="start" x="8" y="-136.3" font-family="Times,serif" font-size="14.00"> g40 = v3</text>
<text text-anchor="start" x="8" y="-121.3" font-family="Times,serif" font-size="14.00"> g41 = v4</text>
<text text-anchor="start" x="8" y="-106.3" font-family="Times,serif" font-size="14.00"> g42 = v5</text>
<text text-anchor="start" x="8" y="-91.3" font-family="Times,serif" font-size="14.00"> v28</text>
<text text-anchor="start" x="8" y="-76.3" font-family="Times,serif" font-size="14.00"> g34 = v28</text>
<text text-anchor="start" x="8" y="-61.3" font-family="Times,serif" font-size="14.00"> IntToPtrCastExpr&lt;ptr&gt;(ExtCastExpr&lt;int32&gt;((v24 == v25)))()</text>
<text text-anchor="start" x="8" y="-46.3" font-family="Times,serif" font-size="14.00"> v6 = g39</text>
<text text-anchor="start" x="8" y="-31.3" font-family="Times,serif" font-size="14.00"> goto 0x4f86dd0</text>
</g>
<!-- Node0x1543cf90&#45;&gt;Node0x1543c260 -->
<g id="edge37" class="edge"><title>Node0x1543cf90&#45;&gt;Node0x1543c260</title>
<path fill="none" stroke="black" d="M472.658,-234.435C455.502,-225.411 433.33,-213.748 409.476,-201.2"/>
<polygon fill="black" stroke="black" points="411.097,-198.098 400.618,-196.541 407.839,-204.294 411.097,-198.098"/>
</g>
<!-- Node0x1543d1a0&#45;&gt;Node0x1543c260 -->
<g id="edge38" class="edge"><title>Node0x1543d1a0&#45;&gt;Node0x1543c260</title>
<path fill="none" stroke="black" d="M238,-234.291C238,-226.655 238,-217.148 238,-206.822"/>
<polygon fill="black" stroke="black" points="241.5,-206.706 238,-196.706 234.5,-206.706 241.5,-206.706"/>
</g>
<!-- Node0x1543a730 -->
<g id="node33" class="node"><title>Node0x1543a730</title>
<polygon fill="none" stroke="black" points="399,-604 399,-657 541,-657 541,-604 399,-604"/>
<text text-anchor="start" x="407" y="-641.8" font-family="Times,serif" font-size="14.00">0x4fa2e50:</text>
<text text-anchor="start" x="407" y="-626.8" font-family="Times,serif" font-size="14.00"> v19 = v35</text>
<text text-anchor="start" x="407" y="-611.8" font-family="Times,serif" font-size="14.00"> goto 0x1d161fa0</text>
</g>
<!-- Node0x13a3bfa0&#45;&gt;Node0x1543a730 -->
<g id="edge39" class="edge"><title>Node0x13a3bfa0&#45;&gt;Node0x1543a730</title>
<path fill="none" stroke="black" d="M470,-716.086C470,-702.605 470,-683.88 470,-667.473"/>
<polygon fill="black" stroke="black" points="473.5,-667.105 470,-657.105 466.5,-667.105 473.5,-667.105"/>
<text text-anchor="middle" x="513" y="-686.8" font-family="Times,serif" font-size="14.00">v34 &gt;= v35</text>
</g>
<!-- Node0x1787df80 -->
<g id="node34" class="node"><title>Node0x1787df80</title>
<polygon fill="none" stroke="black" points="278,-596.5 278,-664.5 374,-664.5 374,-596.5 278,-596.5"/>
<text text-anchor="start" x="286" y="-649.3" font-family="Times,serif" font-size="14.00">0x4fa35e0:</text>
<text text-anchor="start" x="286" y="-634.3" font-family="Times,serif" font-size="14.00"> v8 = g38</text>
<text text-anchor="start" x="286" y="-619.3" font-family="Times,serif" font-size="14.00"> v30 = g33</text>
<text text-anchor="start" x="286" y="-604.3" font-family="Times,serif" font-size="14.00"> v31 = v34</text>
</g>
<!-- Node0x13a3bfa0&#45;&gt;Node0x1787df80 -->
<g id="edge40" class="edge"><title>Node0x13a3bfa0&#45;&gt;Node0x1787df80</title>
<path fill="none" stroke="black" d="M424.367,-716.423C413.347,-711.186 401.902,-704.972 392,-698 381.4,-690.537 371.004,-681.276 361.711,-672.06"/>
<polygon fill="black" stroke="black" points="364.011,-669.407 354.513,-664.713 359.012,-674.306 364.011,-669.407"/>
<text text-anchor="middle" x="429" y="-686.8" font-family="Times,serif" font-size="14.00">v34 &lt; v35</text>
</g>
<!-- Node0x1543c260&#45;&gt;Node0x47482170 -->
<g id="edge41" class="edge"><title>Node0x1543c260&#45;&gt;Node0x47482170</title>
<path fill="none" stroke="black" d="M149.87,-196.56C139.769,-213.707 133,-232.616 133,-252.5 133,-2831.5 133,-2831.5 133,-2831.5 133,-2903.31 221.418,-2931.8 289.784,-2943.09"/>
<polygon fill="black" stroke="black" points="289.293,-2946.56 299.713,-2944.64 290.37,-2939.64 289.293,-2946.56"/>
</g>
<!-- Node0x1543a730&#45;&gt;Node0x1543ba50 -->
<g id="edge42" class="edge"><title>Node0x1543a730&#45;&gt;Node0x1543ba50</title>
<path fill="none" stroke="black" d="M470,-603.875C470,-593.758 470,-581.527 470,-568.855"/>
<polygon fill="black" stroke="black" points="473.5,-568.629 470,-558.629 466.5,-568.629 473.5,-568.629"/>
</g>
<!-- Node0x1787df80&#45;&gt;Node0x4747fed0 -->
<g id="edge43" class="edge"><title>Node0x1787df80&#45;&gt;Node0x4747fed0</title>
<path fill="none" stroke="black" d="M314.91,-664.847C297.747,-721.355 269.007,-839.223 292,-936 295.509,-950.768 302.68,-965.961 309.622,-978.361"/>
<polygon fill="black" stroke="black" points="306.75,-980.383 314.822,-987.245 312.792,-976.847 306.75,-980.383"/>
</g>
<!-- Node0x29539c20 -->
<g id="node35" class="node"><title>Node0x29539c20</title>
<polygon fill="none" stroke="black" points="579,-3489.5 579,-3525.5 633,-3525.5 633,-3489.5 579,-3489.5"/>
<text text-anchor="start" x="587" y="-3503.8" font-family="Times,serif" font-size="14.00">exit:</text>
</g>
</g>
</svg>
