<?xml version="1.0" encoding="UTF-8" standalone="no"?>
<!DOCTYPE svg PUBLIC "-//W3C//DTD SVG 1.1//EN"
 "http://www.w3.org/Graphics/SVG/1.1/DTD/svg11.dtd">
<!-- Generated by graphviz version 2.38.0 (20140413.2041)
 -->
<!-- Title: Control&#45;flow graph for function &#39;function_219d8()&#39;. Pages: 1 -->
<svg width="1275pt" height="1647pt"
 viewBox="0.00 0.00 1275.00 1647.00" xmlns="http://www.w3.org/2000/svg" xmlns:xlink="http://www.w3.org/1999/xlink">
<g id="graph0" class="graph" transform="scale(1 1) rotate(0) translate(4 1643)">
<title>Control&#45;flow graph for function &#39;function_219d8()&#39;.</title>
<polygon fill="white" stroke="none" points="-4,4 -4,-1643 1271,-1643 1271,4 -4,4"/>
<text text-anchor="middle" x="633.5" y="-7.8" font-family="Times,serif" font-size="14.00">Control&#45;flow graph for function &#39;function_219d8()&#39;.</text>
<!-- Node0x3db3e6a0 -->
<g id="node1" class="node"><title>Node0x3db3e6a0</title>
<polygon fill="none" stroke="black" points="655,-1602.5 655,-1638.5 714,-1638.5 714,-1602.5 655,-1602.5"/>
<text text-anchor="start" x="663" y="-1616.8" font-family="Times,serif" font-size="14.00">entry:</text>
</g>
<!-- Node0x3db3c680 -->
<g id="node2" class="node"><title>Node0x3db3c680</title>
<polygon fill="none" stroke="black" points="515.5,-1436.5 515.5,-1564.5 853.5,-1564.5 853.5,-1436.5 515.5,-1436.5"/>
<text text-anchor="start" x="523.5" y="-1549.3" font-family="Times,serif" font-size="14.00">0x2289f860:</text>
<text text-anchor="start" x="523.5" y="-1534.3" font-family="Times,serif" font-size="14.00"> v1 = g38</text>
<text text-anchor="start" x="523.5" y="-1519.3" font-family="Times,serif" font-size="14.00"> v2 = g32</text>
<text text-anchor="start" x="523.5" y="-1504.3" font-family="Times,serif" font-size="14.00"> v3 = g35</text>
<text text-anchor="start" x="523.5" y="-1489.3" font-family="Times,serif" font-size="14.00"> v4 = g30</text>
<text text-anchor="start" x="523.5" y="-1474.3" font-family="Times,serif" font-size="14.00"> v5 = *(IntToPtrCastExpr&lt;ptr&gt;((g29 + 44)))</text>
<text text-anchor="start" x="523.5" y="-1459.3" font-family="Times,serif" font-size="14.00"> g38 = v5</text>
<text text-anchor="start" x="523.5" y="-1444.3" font-family="Times,serif" font-size="14.00"> v6</text>
</g>
<!-- Node0x3db3e6a0&#45;&gt;Node0x3db3c680 -->
<g id="edge1" class="edge"><title>Node0x3db3e6a0&#45;&gt;Node0x3db3c680</title>
<path fill="none" stroke="black" d="M684.5,-1602.34C684.5,-1594.72 684.5,-1585.18 684.5,-1575.02"/>
<polygon fill="black" stroke="black" points="688,-1574.71 684.5,-1564.71 681,-1574.71 688,-1574.71"/>
</g>
<!-- Node0x23335ec0 -->
<g id="node3" class="node"><title>Node0x23335ec0</title>
<polygon fill="none" stroke="black" points="630.5,-1360.5 630.5,-1398.5 738.5,-1398.5 738.5,-1360.5 630.5,-1360.5"/>
<text text-anchor="start" x="638.5" y="-1383.3" font-family="Times,serif" font-size="14.00">0xa198b00:</text>
<text text-anchor="start" x="638.5" y="-1368.3" font-family="Times,serif" font-size="14.00"> if (v4 != &#45;2):</text>
</g>
<!-- Node0x3db3c680&#45;&gt;Node0x23335ec0 -->
<g id="edge2" class="edge"><title>Node0x3db3c680&#45;&gt;Node0x23335ec0</title>
<path fill="none" stroke="black" d="M684.5,-1436.17C684.5,-1426.6 684.5,-1417.16 684.5,-1408.85"/>
<polygon fill="black" stroke="black" points="688,-1408.66 684.5,-1398.66 681,-1408.66 688,-1408.66"/>
</g>
<!-- Node0x22fa5070 -->
<g id="node4" class="node"><title>Node0x22fa5070</title>
<polygon fill="none" stroke="black" points="409.5,-1218 409.5,-1286 609.5,-1286 609.5,-1218 409.5,-1218"/>
<text text-anchor="start" x="417.5" y="-1270.8" font-family="Times,serif" font-size="14.00">0xa1990b0:</text>
<text text-anchor="start" x="417.5" y="-1255.8" font-family="Times,serif" font-size="14.00"> g8 = (((1 &#45; v4) &amp; v4) &lt; 0)</text>
<text text-anchor="start" x="417.5" y="-1240.8" font-family="Times,serif" font-size="14.00"> g7 = (v4 &lt; 2)</text>
<text text-anchor="start" x="417.5" y="-1225.8" font-family="Times,serif" font-size="14.00"> g9 = (v4 == 2)</text>
</g>
<!-- Node0x23335ec0&#45;&gt;Node0x22fa5070 -->
<g id="edge3" class="edge"><title>Node0x23335ec0&#45;&gt;Node0x22fa5070</title>
<path fill="none" stroke="black" d="M659.053,-1360.25C634.253,-1342.47 595.749,-1314.85 564.022,-1292.1"/>
<polygon fill="black" stroke="black" points="565.859,-1289.11 555.693,-1286.13 561.78,-1294.8 565.859,-1289.11"/>
<text text-anchor="middle" x="662.5" y="-1330.8" font-family="Times,serif" font-size="14.00">v4 != &#45;2</text>
</g>
<!-- Node0x223fd2f0 -->
<g id="node5" class="node"><title>Node0x223fd2f0</title>
<polygon fill="none" stroke="black" points="633.5,-1195.5 633.5,-1308.5 979.5,-1308.5 979.5,-1195.5 633.5,-1195.5"/>
<text text-anchor="start" x="641.5" y="-1293.3" font-family="Times,serif" font-size="14.00">0x20390ab0:</text>
<text text-anchor="start" x="641.5" y="-1278.3" font-family="Times,serif" font-size="14.00"> v15 = *(IntToPtrCastExpr&lt;ptr&gt;((v5 + 936)))</text>
<text text-anchor="start" x="641.5" y="-1263.3" font-family="Times,serif" font-size="14.00"> g35 = v15</text>
<text text-anchor="start" x="641.5" y="-1248.3" font-family="Times,serif" font-size="14.00"> g8 = (((98 &#45; v15) &amp; v15) &lt; 0)</text>
<text text-anchor="start" x="641.5" y="-1233.3" font-family="Times,serif" font-size="14.00"> g7 = (v15 &lt; 99)</text>
<text text-anchor="start" x="641.5" y="-1218.3" font-family="Times,serif" font-size="14.00"> g9 = (v15 == 99)</text>
<text text-anchor="start" x="641.5" y="-1203.3" font-family="Times,serif" font-size="14.00"> v16</text>
</g>
<!-- Node0x23335ec0&#45;&gt;Node0x223fd2f0 -->
<g id="edge4" class="edge"><title>Node0x23335ec0&#45;&gt;Node0x223fd2f0</title>
<path fill="none" stroke="black" d="M702.24,-1360.25C713.759,-1348.4 729.519,-1332.19 745.297,-1315.96"/>
<polygon fill="black" stroke="black" points="748.071,-1318.13 752.532,-1308.52 743.052,-1313.25 748.071,-1318.13"/>
<text text-anchor="middle" x="762.5" y="-1330.8" font-family="Times,serif" font-size="14.00">v4 == &#45;2</text>
</g>
<!-- Node0x29923ed0 -->
<g id="node6" class="node"><title>Node0x29923ed0</title>
<polygon fill="none" stroke="black" points="437.5,-1104.5 437.5,-1157.5 547.5,-1157.5 547.5,-1104.5 437.5,-1104.5"/>
<text text-anchor="start" x="445.5" y="-1142.3" font-family="Times,serif" font-size="14.00">0xa19e3f0:</text>
<text text-anchor="start" x="445.5" y="-1127.3" font-family="Times,serif" font-size="14.00"> if (v4 == 2):</text>
<text text-anchor="start" x="445.5" y="-1112.3" font-family="Times,serif" font-size="14.00"> else:</text>
</g>
<!-- Node0x22fa5070&#45;&gt;Node0x29923ed0 -->
<g id="edge5" class="edge"><title>Node0x22fa5070&#45;&gt;Node0x29923ed0</title>
<path fill="none" stroke="black" d="M504.765,-1217.85C502.54,-1202.28 499.885,-1183.69 497.615,-1167.8"/>
<polygon fill="black" stroke="black" points="501.066,-1167.21 496.187,-1157.81 494.136,-1168.2 501.066,-1167.21"/>
</g>
<!-- Node0x22f9e540 -->
<g id="node7" class="node"><title>Node0x22f9e540</title>
<polygon fill="none" stroke="black" points="811.5,-1104.5 811.5,-1157.5 939.5,-1157.5 939.5,-1104.5 811.5,-1104.5"/>
<text text-anchor="start" x="819.5" y="-1142.3" font-family="Times,serif" font-size="14.00">0xa196d20:</text>
<text text-anchor="start" x="819.5" y="-1127.3" font-family="Times,serif" font-size="14.00"> if (v15 &lt;= 99):</text>
<text text-anchor="start" x="819.5" y="-1112.3" font-family="Times,serif" font-size="14.00"> else:</text>
</g>
<!-- Node0x223fd2f0&#45;&gt;Node0x22f9e540 -->
<g id="edge6" class="edge"><title>Node0x223fd2f0&#45;&gt;Node0x22f9e540</title>
<path fill="none" stroke="black" d="M838.778,-1195.33C844.512,-1185.44 850.329,-1175.41 855.591,-1166.34"/>
<polygon fill="black" stroke="black" points="858.656,-1168.03 860.644,-1157.62 852.6,-1164.52 858.656,-1168.03"/>
</g>
<!-- Node0x299284d0 -->
<g id="node8" class="node"><title>Node0x299284d0</title>
<polygon fill="none" stroke="black" points="174,-827 174,-970 383,-970 383,-827 174,-827"/>
<text text-anchor="start" x="182" y="-954.8" font-family="Times,serif" font-size="14.00">0xa199af0:</text>
<text text-anchor="start" x="182" y="-939.8" font-family="Times,serif" font-size="14.00"> g29 = (v5 + 635)</text>
<text text-anchor="start" x="182" y="-924.8" font-family="Times,serif" font-size="14.00"> function_a758()</text>
<text text-anchor="start" x="182" y="-909.8" font-family="Times,serif" font-size="14.00"> v7</text>
<text text-anchor="start" x="182" y="-894.8" font-family="Times,serif" font-size="14.00"> v8 = v7</text>
<text text-anchor="start" x="182" y="-879.8" font-family="Times,serif" font-size="14.00"> g37 = v8</text>
<text text-anchor="start" x="182" y="-864.8" font-family="Times,serif" font-size="14.00"> g8 = (((83 &#45; v8) &amp; v8) &lt; 0)</text>
<text text-anchor="start" x="182" y="-849.8" font-family="Times,serif" font-size="14.00"> g7 = (v8 &lt; 84)</text>
<text text-anchor="start" x="182" y="-834.8" font-family="Times,serif" font-size="14.00"> g9 = (v7 == 84)</text>
</g>
<!-- Node0x29923ed0&#45;&gt;Node0x299284d0 -->
<g id="edge7" class="edge"><title>Node0x29923ed0&#45;&gt;Node0x299284d0</title>
<path fill="none" stroke="black" d="M453.29,-1104.32C444.949,-1098.51 436.308,-1092.21 428.5,-1086 390.723,-1055.94 356.339,-1014.75 330.05,-978.726"/>
<polygon fill="black" stroke="black" points="332.571,-976.237 323.886,-970.169 326.891,-980.329 332.571,-976.237"/>
<text text-anchor="middle" x="458.5" y="-1074.8" font-family="Times,serif" font-size="14.00">v4 == 2</text>
</g>
<!-- Node0x29929ed0 -->
<g id="node9" class="node"><title>Node0x29929ed0</title>
<polygon fill="none" stroke="black" points="401.5,-864.5 401.5,-932.5 583.5,-932.5 583.5,-864.5 401.5,-864.5"/>
<text text-anchor="start" x="409.5" y="-917.3" font-family="Times,serif" font-size="14.00">0xa19e830:</text>
<text text-anchor="start" x="409.5" y="-902.3" font-family="Times,serif" font-size="14.00"> g8 = ((v4 &amp; &#45;(v4)) &lt; 0)</text>
<text text-anchor="start" x="409.5" y="-887.3" font-family="Times,serif" font-size="14.00"> g7 = (v4 &lt; 1)</text>
<text text-anchor="start" x="409.5" y="-872.3" font-family="Times,serif" font-size="14.00"> g9 = (v4 == 1)</text>
</g>
<!-- Node0x29923ed0&#45;&gt;Node0x29929ed0 -->
<g id="edge8" class="edge"><title>Node0x29923ed0&#45;&gt;Node0x29929ed0</title>
<path fill="none" stroke="black" d="M492.5,-1104.45C492.5,-1065.36 492.5,-990.226 492.5,-942.597"/>
<polygon fill="black" stroke="black" points="496,-942.582 492.5,-932.583 489,-942.583 496,-942.582"/>
<text text-anchor="middle" x="519.5" y="-1074.8" font-family="Times,serif" font-size="14.00">v4 != 2</text>
</g>
<!-- Node0x299254d0 -->
<g id="node10" class="node"><title>Node0x299254d0</title>
<polygon fill="none" stroke="black" points="601.5,-744.5 601.5,-1052.5 1149.5,-1052.5 1149.5,-744.5 601.5,-744.5"/>
<text text-anchor="start" x="609.5" y="-1037.3" font-family="Times,serif" font-size="14.00">0x40ae1f90:</text>
<text text-anchor="start" x="609.5" y="-1022.3" font-family="Times,serif" font-size="14.00"> v17 = ((v5 + 940) + (16 * v15))</text>
<text text-anchor="start" x="609.5" y="-1007.3" font-family="Times,serif" font-size="14.00"> g33 = v17</text>
<text text-anchor="start" x="609.5" y="-992.3" font-family="Times,serif" font-size="14.00"> g30 = *(IntToPtrCastExpr&lt;ptr&gt;((v5 + 768)))</text>
<text text-anchor="start" x="609.5" y="-977.3" font-family="Times,serif" font-size="14.00"> g36 = *(IntToPtrCastExpr&lt;ptr&gt;((v5 + 772)))</text>
<text text-anchor="start" x="609.5" y="-962.3" font-family="Times,serif" font-size="14.00"> g37 = *(IntToPtrCastExpr&lt;ptr&gt;((v5 + 776)))</text>
<text text-anchor="start" x="609.5" y="-947.3" font-family="Times,serif" font-size="14.00"> *(IntToPtrCastExpr&lt;ptr&gt;(v17)) = *(IntToPtrCastExpr&lt;ptr&gt;((v5 + 764)))</text>
<text text-anchor="start" x="609.5" y="-932.3" font-family="Times,serif" font-size="14.00"> *(IntToPtrCastExpr&lt;ptr&gt;((v17 + 4))) = g30</text>
<text text-anchor="start" x="609.5" y="-917.3" font-family="Times,serif" font-size="14.00"> *(IntToPtrCastExpr&lt;ptr&gt;((v17 + 8))) = g36</text>
<text text-anchor="start" x="609.5" y="-902.3" font-family="Times,serif" font-size="14.00"> *(IntToPtrCastExpr&lt;ptr&gt;((v17 + 12))) = g37</text>
<text text-anchor="start" x="609.5" y="-887.3" font-family="Times,serif" font-size="14.00"> v18 = g38</text>
<text text-anchor="start" x="609.5" y="-872.3" font-family="Times,serif" font-size="14.00"> v19 = ExtCastExpr&lt;int32&gt;(*(IntToPtrCastExpr&lt;ptr&gt;((v18 + 250))))</text>
<text text-anchor="start" x="609.5" y="-857.3" font-family="Times,serif" font-size="14.00"> v20 = g35</text>
<text text-anchor="start" x="609.5" y="-842.3" font-family="Times,serif" font-size="14.00"> g30 = (v20 + 1)</text>
<text text-anchor="start" x="609.5" y="-827.3" font-family="Times,serif" font-size="14.00"> v21 = ((2 * v19) + *(IntToPtrCastExpr&lt;ptr&gt;((v18 + 780))))</text>
<text text-anchor="start" x="609.5" y="-812.3" font-family="Times,serif" font-size="14.00"> v22 = (v20 + v18)</text>
<text text-anchor="start" x="609.5" y="-797.3" font-family="Times,serif" font-size="14.00"> g36 = v22</text>
<text text-anchor="start" x="609.5" y="-782.3" font-family="Times,serif" font-size="14.00"> *(IntToPtrCastExpr&lt;ptr&gt;((v22 + 2540))) = TruncCastExpr&lt;int8&gt;(v21)</text>
<text text-anchor="start" x="609.5" y="-767.3" font-family="Times,serif" font-size="14.00"> *(IntToPtrCastExpr&lt;ptr&gt;((g38 + 936))) = g30</text>
<text text-anchor="start" x="609.5" y="-752.3" font-family="Times,serif" font-size="14.00"> v16 = g38</text>
</g>
<!-- Node0x22f9e540&#45;&gt;Node0x299254d0 -->
<g id="edge9" class="edge"><title>Node0x22f9e540&#45;&gt;Node0x299254d0</title>
<path fill="none" stroke="black" d="M875.5,-1104.45C875.5,-1093.09 875.5,-1078.7 875.5,-1062.81"/>
<polygon fill="black" stroke="black" points="879,-1062.75 875.5,-1052.75 872,-1062.75 879,-1062.75"/>
<text text-anchor="middle" x="914.5" y="-1074.8" font-family="Times,serif" font-size="14.00">v15 &lt;= 99</text>
</g>
<!-- Node0x29927fd0 -->
<g id="node11" class="node"><title>Node0x29927fd0</title>
<polygon fill="none" stroke="black" points="1168,-879.5 1168,-917.5 1267,-917.5 1267,-879.5 1168,-879.5"/>
<text text-anchor="start" x="1176" y="-902.3" font-family="Times,serif" font-size="14.00">0xa196ea0:</text>
<text text-anchor="start" x="1176" y="-887.3" font-family="Times,serif" font-size="14.00"> v16 = v5</text>
</g>
<!-- Node0x22f9e540&#45;&gt;Node0x29927fd0 -->
<g id="edge10" class="edge"><title>Node0x22f9e540&#45;&gt;Node0x29927fd0</title>
<path fill="none" stroke="black" d="M939.541,-1128.68C1002.62,-1124.04 1098.05,-1107.62 1158.5,-1053 1194.82,-1020.19 1208.95,-962.477 1214.33,-927.936"/>
<polygon fill="black" stroke="black" points="1217.86,-927.986 1215.78,-917.596 1210.92,-927.011 1217.86,-927.986"/>
<text text-anchor="middle" x="1166.5" y="-1074.8" font-family="Times,serif" font-size="14.00">v15 &gt; 99</text>
</g>
<!-- Node0x299298d0 -->
<g id="node12" class="node"><title>Node0x299298d0</title>
<polygon fill="none" stroke="black" points="219,-616 219,-654 338,-654 338,-616 219,-616"/>
<text text-anchor="start" x="227" y="-638.8" font-family="Times,serif" font-size="14.00">0xa19e220:</text>
<text text-anchor="start" x="227" y="-623.8" font-family="Times,serif" font-size="14.00"> if (v7 == 84):</text>
</g>
<!-- Node0x299284d0&#45;&gt;Node0x299298d0 -->
<g id="edge11" class="edge"><title>Node0x299284d0&#45;&gt;Node0x299298d0</title>
<path fill="none" stroke="black" d="M278.5,-826.734C278.5,-773.456 278.5,-703.214 278.5,-664.563"/>
<polygon fill="black" stroke="black" points="282,-664.088 278.5,-654.088 275,-664.088 282,-664.088"/>
</g>
<!-- Node0x2992a7d0 -->
<g id="node13" class="node"><title>Node0x2992a7d0</title>
<polygon fill="none" stroke="black" points="437.5,-616 437.5,-654 547.5,-654 547.5,-616 437.5,-616"/>
<text text-anchor="start" x="445.5" y="-638.8" font-family="Times,serif" font-size="14.00">0xa19f9f0:</text>
<text text-anchor="start" x="445.5" y="-623.8" font-family="Times,serif" font-size="14.00"> if (v4 == 1):</text>
</g>
<!-- Node0x29929ed0&#45;&gt;Node0x2992a7d0 -->
<g id="edge12" class="edge"><title>Node0x29929ed0&#45;&gt;Node0x2992a7d0</title>
<path fill="none" stroke="black" d="M492.5,-864.381C492.5,-812.506 492.5,-712.996 492.5,-664.278"/>
<polygon fill="black" stroke="black" points="496,-664.138 492.5,-654.139 489,-664.139 496,-664.138"/>
</g>
<!-- Node0x22400100 -->
<g id="node14" class="node"><title>Node0x22400100</title>
<polygon fill="none" stroke="black" points="645,-563.5 645,-706.5 1174,-706.5 1174,-563.5 645,-563.5"/>
<text text-anchor="start" x="653" y="-691.3" font-family="Times,serif" font-size="14.00">0xa197090:</text>
<text text-anchor="start" x="653" y="-676.3" font-family="Times,serif" font-size="14.00"> g37 = 0</text>
<text text-anchor="start" x="653" y="-661.3" font-family="Times,serif" font-size="14.00"> *(IntToPtrCastExpr&lt;ptr&gt;((v16 + 780))) = 0</text>
<text text-anchor="start" x="653" y="-646.3" font-family="Times,serif" font-size="14.00"> *(IntToPtrCastExpr&lt;ptr&gt;((g38 + 250))) = TruncCastExpr&lt;int8&gt;(g37)</text>
<text text-anchor="start" x="653" y="-631.3" font-family="Times,serif" font-size="14.00"> g29 = 0</text>
<text text-anchor="start" x="653" y="-616.3" font-family="Times,serif" font-size="14.00"> g38 = v1</text>
<text text-anchor="start" x="653" y="-601.3" font-family="Times,serif" font-size="14.00"> g32 = v2</text>
<text text-anchor="start" x="653" y="-586.3" font-family="Times,serif" font-size="14.00"> g34 = v6</text>
<text text-anchor="start" x="653" y="-571.3" font-family="Times,serif" font-size="14.00"> IntToPtrCastExpr&lt;ptr&gt;(v3)()</text>
</g>
<!-- Node0x299254d0&#45;&gt;Node0x22400100 -->
<g id="edge13" class="edge"><title>Node0x299254d0&#45;&gt;Node0x22400100</title>
<path fill="none" stroke="black" d="M895.425,-744.25C896.658,-734.774 897.868,-725.46 899.031,-716.517"/>
<polygon fill="black" stroke="black" points="902.504,-716.955 900.322,-706.587 895.562,-716.053 902.504,-716.955"/>
</g>
<!-- Node0x29927fd0&#45;&gt;Node0x22400100 -->
<g id="edge14" class="edge"><title>Node0x29927fd0&#45;&gt;Node0x22400100</title>
<path fill="none" stroke="black" d="M1215.16,-879.465C1210.2,-848.056 1195.84,-782.953 1158.5,-744 1147.29,-732.31 1134.61,-721.812 1121.04,-712.397"/>
<polygon fill="black" stroke="black" points="1122.75,-709.325 1112.49,-706.673 1118.86,-715.143 1122.75,-709.325"/>
</g>
<!-- Node0x2992add0 -->
<g id="node15" class="node"><title>Node0x2992add0</title>
<polygon fill="none" stroke="black" points="0,-248.5 0,-511.5 347,-511.5 347,-248.5 0,-248.5"/>
<text text-anchor="start" x="8" y="-496.3" font-family="Times,serif" font-size="14.00">0x33635370:</text>
<text text-anchor="start" x="8" y="-481.3" font-family="Times,serif" font-size="14.00"> v9 = g38</text>
<text text-anchor="start" x="8" y="-466.3" font-family="Times,serif" font-size="14.00"> v10 = (v9 + 764)</text>
<text text-anchor="start" x="8" y="-451.3" font-family="Times,serif" font-size="14.00"> g33 = v10</text>
<text text-anchor="start" x="8" y="-436.3" font-family="Times,serif" font-size="14.00"> v11</text>
<text text-anchor="start" x="8" y="-421.3" font-family="Times,serif" font-size="14.00"> g30 = v11</text>
<text text-anchor="start" x="8" y="-406.3" font-family="Times,serif" font-size="14.00"> v12</text>
<text text-anchor="start" x="8" y="-391.3" font-family="Times,serif" font-size="14.00"> g36 = v12</text>
<text text-anchor="start" x="8" y="-376.3" font-family="Times,serif" font-size="14.00"> v13</text>
<text text-anchor="start" x="8" y="-361.3" font-family="Times,serif" font-size="14.00"> g37 = v13</text>
<text text-anchor="start" x="8" y="-346.3" font-family="Times,serif" font-size="14.00"> v14</text>
<text text-anchor="start" x="8" y="-331.3" font-family="Times,serif" font-size="14.00"> *(IntToPtrCastExpr&lt;ptr&gt;(v10)) = v14</text>
<text text-anchor="start" x="8" y="-316.3" font-family="Times,serif" font-size="14.00"> *(IntToPtrCastExpr&lt;ptr&gt;((v9 + 768))) = g30</text>
<text text-anchor="start" x="8" y="-301.3" font-family="Times,serif" font-size="14.00"> *(IntToPtrCastExpr&lt;ptr&gt;((v9 + 772))) = g36</text>
<text text-anchor="start" x="8" y="-286.3" font-family="Times,serif" font-size="14.00"> *(IntToPtrCastExpr&lt;ptr&gt;((v9 + 776))) = g37</text>
<text text-anchor="start" x="8" y="-271.3" font-family="Times,serif" font-size="14.00"> g37 = 1</text>
<text text-anchor="start" x="8" y="-256.3" font-family="Times,serif" font-size="14.00"> *(IntToPtrCastExpr&lt;ptr&gt;((g38 + 250))) = 1</text>
</g>
<!-- Node0x299298d0&#45;&gt;Node0x2992add0 -->
<g id="edge15" class="edge"><title>Node0x299298d0&#45;&gt;Node0x2992add0</title>
<path fill="none" stroke="black" d="M270.949,-615.805C262.322,-595.019 247.367,-558.984 231.725,-521.295"/>
<polygon fill="black" stroke="black" points="234.803,-519.581 227.737,-511.686 228.338,-522.264 234.803,-519.581"/>
<text text-anchor="middle" x="277" y="-533.8" font-family="Times,serif" font-size="14.00">v7 == 84</text>
</g>
<!-- Node0x299246d0 -->
<g id="node16" class="node"><title>Node0x299246d0</title>
<polygon fill="none" stroke="black" points="365,-97.5 365,-210.5 598,-210.5 598,-97.5 365,-97.5"/>
<text text-anchor="start" x="373" y="-195.3" font-family="Times,serif" font-size="14.00">0xa19fc90:</text>
<text text-anchor="start" x="373" y="-180.3" font-family="Times,serif" font-size="14.00"> g29 = 0</text>
<text text-anchor="start" x="373" y="-165.3" font-family="Times,serif" font-size="14.00"> g38 = v1</text>
<text text-anchor="start" x="373" y="-150.3" font-family="Times,serif" font-size="14.00"> g32 = v2</text>
<text text-anchor="start" x="373" y="-135.3" font-family="Times,serif" font-size="14.00"> g34 = v6</text>
<text text-anchor="start" x="373" y="-120.3" font-family="Times,serif" font-size="14.00"> IntToPtrCastExpr&lt;ptr&gt;(v3)()</text>
<text text-anchor="start" x="373" y="-105.3" font-family="Times,serif" font-size="14.00"> return</text>
</g>
<!-- Node0x299298d0&#45;&gt;Node0x299246d0 -->
<g id="edge16" class="edge"><title>Node0x299298d0&#45;&gt;Node0x299246d0</title>
<path fill="none" stroke="black" d="M292.855,-615.646C310.151,-592.665 338.946,-551.501 355.5,-512 402.084,-400.841 368.717,-358.212 417.5,-248 421.812,-238.257 427.179,-228.459 432.958,-219.068"/>
<polygon fill="black" stroke="black" points="435.948,-220.888 438.362,-210.571 430.042,-217.131 435.948,-220.888"/>
<text text-anchor="middle" x="449" y="-376.3" font-family="Times,serif" font-size="14.00">v7 != 84</text>
</g>
<!-- Node0x2992a7d0&#45;&gt;Node0x299246d0 -->
<g id="edge18" class="edge"><title>Node0x2992a7d0&#45;&gt;Node0x299246d0</title>
<path fill="none" stroke="black" d="M492.082,-615.808C490.604,-551.427 485.572,-332.297 483.016,-221.01"/>
<polygon fill="black" stroke="black" points="486.513,-220.828 482.784,-210.911 479.515,-220.988 486.513,-220.828"/>
<text text-anchor="middle" x="517.5" y="-376.3" font-family="Times,serif" font-size="14.00">v4 != 1</text>
</g>
<!-- Node0x3db3c640 -->
<g id="node17" class="node"><title>Node0x3db3c640</title>
<polygon fill="none" stroke="black" points="553,-361 553,-399 882,-399 882,-361 553,-361"/>
<text text-anchor="start" x="561" y="-383.8" font-family="Times,serif" font-size="14.00">0xa19f5c0:</text>
<text text-anchor="start" x="561" y="-368.8" font-family="Times,serif" font-size="14.00"> *(IntToPtrCastExpr&lt;ptr&gt;((v5 + 250))) = 1</text>
</g>
<!-- Node0x2992a7d0&#45;&gt;Node0x3db3c640 -->
<g id="edge17" class="edge"><title>Node0x2992a7d0&#45;&gt;Node0x3db3c640</title>
<path fill="none" stroke="black" d="M508.681,-615.805C548.088,-571.495 649.125,-457.883 694.653,-406.69"/>
<polygon fill="black" stroke="black" points="697.435,-408.829 701.465,-399.03 692.204,-404.177 697.435,-408.829"/>
<text text-anchor="middle" x="615.5" y="-533.8" font-family="Times,serif" font-size="14.00">v4 == 1</text>
</g>
<!-- Node0x223fae10 -->
<g id="node18" class="node"><title>Node0x223fae10</title>
<polygon fill="none" stroke="black" points="769.5,-23.5 769.5,-59.5 823.5,-59.5 823.5,-23.5 769.5,-23.5"/>
<text text-anchor="start" x="777.5" y="-37.8" font-family="Times,serif" font-size="14.00">exit:</text>
</g>
<!-- Node0x22400100&#45;&gt;Node0x223fae10 -->
<g id="edge19" class="edge"><title>Node0x22400100&#45;&gt;Node0x223fae10</title>
<path fill="none" stroke="black" d="M913.929,-563.481C917.033,-485.211 916.758,-355.72 890.5,-248 873.841,-179.656 834.404,-106.237 812.27,-68.3795"/>
<polygon fill="black" stroke="black" points="815.146,-66.3674 807.04,-59.5457 809.123,-69.9338 815.146,-66.3674"/>
</g>
<!-- Node0x2992add0&#45;&gt;Node0x299246d0 -->
<g id="edge20" class="edge"><title>Node0x2992add0&#45;&gt;Node0x299246d0</title>
<path fill="none" stroke="black" d="M341.755,-248.315C350.754,-241.72 359.708,-235.246 368.5,-229 374.348,-224.845 380.413,-220.626 386.558,-216.417"/>
<polygon fill="black" stroke="black" points="388.675,-219.211 394.975,-210.693 384.738,-213.422 388.675,-219.211"/>
</g>
<!-- Node0x299246d0&#45;&gt;Node0x223fae10 -->
<g id="edge21" class="edge"><title>Node0x299246d0&#45;&gt;Node0x223fae10</title>
<path fill="none" stroke="black" d="M598.347,-112.011C655.486,-91.9668 720.288,-69.2346 759.771,-55.3843"/>
<polygon fill="black" stroke="black" points="760.966,-58.6743 769.244,-52.0614 758.649,-52.069 760.966,-58.6743"/>
</g>
<!-- Node0x3db3c640&#45;&gt;Node0x299246d0 -->
<g id="edge22" class="edge"><title>Node0x3db3c640&#45;&gt;Node0x299246d0</title>
<path fill="none" stroke="black" d="M698.187,-360.669C665.66,-329.796 598.512,-266.062 547.534,-217.676"/>
<polygon fill="black" stroke="black" points="549.798,-215 540.136,-210.654 544.979,-220.077 549.798,-215"/>
</g>
</g>
</svg>
