<?xml version="1.0" encoding="UTF-8" standalone="no"?>
<!DOCTYPE svg PUBLIC "-//W3C//DTD SVG 1.1//EN"
 "http://www.w3.org/Graphics/SVG/1.1/DTD/svg11.dtd">
<!-- Generated by graphviz version 2.38.0 (20140413.2041)
 -->
<!-- Title: Control&#45;flow graph for function &#39;function_20878()&#39;. Pages: 1 -->
<svg width="386pt" height="321pt"
 viewBox="0.00 0.00 386.00 321.00" xmlns="http://www.w3.org/2000/svg" xmlns:xlink="http://www.w3.org/1999/xlink">
<g id="graph0" class="graph" transform="scale(1 1) rotate(0) translate(4 317)">
<title>Control&#45;flow graph for function &#39;function_20878()&#39;.</title>
<polygon fill="white" stroke="none" points="-4,4 -4,-317 382,-317 382,4 -4,4"/>
<text text-anchor="middle" x="189" y="-7.8" font-family="Times,serif" font-size="14.00">Control&#45;flow graph for function &#39;function_20878()&#39;.</text>
<!-- Node0x3393b330 -->
<g id="node1" class="node"><title>Node0x3393b330</title>
<polygon fill="none" stroke="black" points="159.5,-276.5 159.5,-312.5 218.5,-312.5 218.5,-276.5 159.5,-276.5"/>
<text text-anchor="start" x="167.5" y="-290.8" font-family="Times,serif" font-size="14.00">entry:</text>
</g>
<!-- Node0x1e6fae10 -->
<g id="node2" class="node"><title>Node0x1e6fae10</title>
<polygon fill="none" stroke="black" points="40,-96.5 40,-239.5 338,-239.5 338,-96.5 40,-96.5"/>
<text text-anchor="start" x="48" y="-224.3" font-family="Times,serif" font-size="14.00">0x1b1d8330:</text>
<text text-anchor="start" x="48" y="-209.3" font-family="Times,serif" font-size="14.00"> v1 = g38</text>
<text text-anchor="start" x="48" y="-194.3" font-family="Times,serif" font-size="14.00"> g38 = g29</text>
<text text-anchor="start" x="48" y="-179.3" font-family="Times,serif" font-size="14.00"> function_20864()</text>
<text text-anchor="start" x="48" y="-164.3" font-family="Times,serif" font-size="14.00"> *(IntToPtrCastExpr&lt;ptr&gt;(g29)) = g38</text>
<text text-anchor="start" x="48" y="-149.3" font-family="Times,serif" font-size="14.00"> g38 = v1</text>
<text text-anchor="start" x="48" y="-134.3" font-family="Times,serif" font-size="14.00"> v2</text>
<text text-anchor="start" x="48" y="-119.3" font-family="Times,serif" font-size="14.00"> g34 = v2</text>
<text text-anchor="start" x="48" y="-104.3" font-family="Times,serif" font-size="14.00"> IntToPtrCastExpr&lt;ptr&gt;(g35)()</text>
</g>
<!-- Node0x3393b330&#45;&gt;Node0x1e6fae10 -->
<g id="edge1" class="edge"><title>Node0x3393b330&#45;&gt;Node0x1e6fae10</title>
<path fill="none" stroke="black" d="M189,-276.45C189,-269.058 189,-259.82 189,-249.886"/>
<polygon fill="black" stroke="black" points="192.5,-249.761 189,-239.761 185.5,-249.761 192.5,-249.761"/>
</g>
<!-- Node0x1de27600 -->
<g id="node3" class="node"><title>Node0x1de27600</title>
<polygon fill="none" stroke="black" points="162,-23.5 162,-59.5 216,-59.5 216,-23.5 162,-23.5"/>
<text text-anchor="start" x="170" y="-37.8" font-family="Times,serif" font-size="14.00">exit:</text>
</g>
<!-- Node0x1e6fae10&#45;&gt;Node0x1de27600 -->
<g id="edge2" class="edge"><title>Node0x1e6fae10&#45;&gt;Node0x1de27600</title>
<path fill="none" stroke="black" d="M189,-96.3834C189,-87.0259 189,-77.9253 189,-69.9482"/>
<polygon fill="black" stroke="black" points="192.5,-69.848 189,-59.848 185.5,-69.8481 192.5,-69.848"/>
</g>
</g>
</svg>
