<?xml version="1.0" encoding="UTF-8" standalone="no"?>
<!DOCTYPE svg PUBLIC "-//W3C//DTD SVG 1.1//EN"
 "http://www.w3.org/Graphics/SVG/1.1/DTD/svg11.dtd">
<!-- Generated by graphviz version 2.38.0 (20140413.2041)
 -->
<!-- Title: Control&#45;flow graph for function &#39;function_67c0()&#39;. Pages: 1 -->
<svg width="492pt" height="700pt"
 viewBox="0.00 0.00 492.00 700.00" xmlns="http://www.w3.org/2000/svg" xmlns:xlink="http://www.w3.org/1999/xlink">
<g id="graph0" class="graph" transform="scale(1 1) rotate(0) translate(4 696)">
<title>Control&#45;flow graph for function &#39;function_67c0()&#39;.</title>
<polygon fill="white" stroke="none" points="-4,4 -4,-696 488,-696 488,4 -4,4"/>
<text text-anchor="middle" x="242" y="-7.8" font-family="Times,serif" font-size="14.00">Control&#45;flow graph for function &#39;function_67c0()&#39;.</text>
<!-- Node0x3707d9a0 -->
<g id="node1" class="node"><title>Node0x3707d9a0</title>
<polygon fill="none" stroke="black" points="202.5,-655.5 202.5,-691.5 261.5,-691.5 261.5,-655.5 202.5,-655.5"/>
<text text-anchor="start" x="210.5" y="-669.8" font-family="Times,serif" font-size="14.00">entry:</text>
</g>
<!-- Node0x3e1b1160 -->
<g id="node2" class="node"><title>Node0x3e1b1160</title>
<polygon fill="none" stroke="black" points="58.5,-534.5 58.5,-617.5 405.5,-617.5 405.5,-534.5 58.5,-534.5"/>
<text text-anchor="start" x="66.5" y="-602.3" font-family="Times,serif" font-size="14.00">0x1c3470a0:</text>
<text text-anchor="start" x="66.5" y="-587.3" font-family="Times,serif" font-size="14.00"> v1 = *(IntToPtrCastExpr&lt;ptr&gt;((g29 + 108)))</text>
<text text-anchor="start" x="66.5" y="-572.3" font-family="Times,serif" font-size="14.00"> v2 = v1</text>
<text text-anchor="start" x="66.5" y="-557.3" font-family="Times,serif" font-size="14.00"> g37 = v2</text>
<text text-anchor="start" x="66.5" y="-542.3" font-family="Times,serif" font-size="14.00"> g9 = (v1 == 0)</text>
</g>
<!-- Node0x3707d9a0&#45;&gt;Node0x3e1b1160 -->
<g id="edge1" class="edge"><title>Node0x3707d9a0&#45;&gt;Node0x3e1b1160</title>
<path fill="none" stroke="black" d="M232,-655.427C232,-647.622 232,-637.921 232,-628.032"/>
<polygon fill="black" stroke="black" points="235.5,-627.73 232,-617.73 228.5,-627.73 235.5,-627.73"/>
</g>
<!-- Node0x189c8670 -->
<g id="node3" class="node"><title>Node0x189c8670</title>
<polygon fill="none" stroke="black" points="177,-458.5 177,-496.5 287,-496.5 287,-458.5 177,-458.5"/>
<text text-anchor="start" x="185" y="-481.3" font-family="Times,serif" font-size="14.00">0x615e2d0:</text>
<text text-anchor="start" x="185" y="-466.3" font-family="Times,serif" font-size="14.00"> if (v1 == 0):</text>
</g>
<!-- Node0x3e1b1160&#45;&gt;Node0x189c8670 -->
<g id="edge2" class="edge"><title>Node0x3e1b1160&#45;&gt;Node0x189c8670</title>
<path fill="none" stroke="black" d="M232,-534.355C232,-525.083 232,-515.427 232,-506.803"/>
<polygon fill="black" stroke="black" points="235.5,-506.538 232,-496.538 228.5,-506.538 235.5,-506.538"/>
</g>
<!-- Node0x36918c30 -->
<g id="node4" class="node"><title>Node0x36918c30</title>
<polygon fill="none" stroke="black" points="132.5,-368.5 132.5,-406.5 233.5,-406.5 233.5,-368.5 132.5,-368.5"/>
<text text-anchor="start" x="140.5" y="-391.3" font-family="Times,serif" font-size="14.00">0x615de10:</text>
<text text-anchor="start" x="140.5" y="-376.3" font-family="Times,serif" font-size="14.00"> g29 = v2</text>
</g>
<!-- Node0x189c8670&#45;&gt;Node0x36918c30 -->
<g id="edge3" class="edge"><title>Node0x189c8670&#45;&gt;Node0x36918c30</title>
<path fill="none" stroke="black" d="M210.427,-458.413C205.051,-452.977 199.756,-446.67 196,-440 191.973,-432.849 189.175,-424.446 187.238,-416.525"/>
<polygon fill="black" stroke="black" points="190.623,-415.612 185.156,-406.536 183.77,-417.04 190.623,-415.612"/>
<text text-anchor="middle" x="226" y="-428.8" font-family="Times,serif" font-size="14.00">v1 == 0</text>
</g>
<!-- Node0x16d2b900 -->
<g id="node5" class="node"><title>Node0x16d2b900</title>
<polygon fill="none" stroke="black" points="0,-97.5 0,-330.5 484,-330.5 484,-97.5 0,-97.5"/>
<text text-anchor="start" x="8" y="-315.3" font-family="Times,serif" font-size="14.00">0x11b00350:</text>
<text text-anchor="start" x="8" y="-300.3" font-family="Times,serif" font-size="14.00"> v3</text>
<text text-anchor="start" x="8" y="-285.3" font-family="Times,serif" font-size="14.00"> g34 = v3</text>
<text text-anchor="start" x="8" y="-270.3" font-family="Times,serif" font-size="14.00"> IntToPtrCastExpr&lt;ptr&gt;(ExtCastExpr&lt;int32&gt;((v1 == 0)))()</text>
<text text-anchor="start" x="8" y="-255.3" font-family="Times,serif" font-size="14.00"> function_65bc()</text>
<text text-anchor="start" x="8" y="-240.3" font-family="Times,serif" font-size="14.00"> v4 = g38</text>
<text text-anchor="start" x="8" y="-225.3" font-family="Times,serif" font-size="14.00"> g29 = (v4 + 32)</text>
<text text-anchor="start" x="8" y="-210.3" font-family="Times,serif" font-size="14.00"> g30 = *(IntToPtrCastExpr&lt;ptr&gt;((v4 + 112)))</text>
<text text-anchor="start" x="8" y="-195.3" font-family="Times,serif" font-size="14.00"> function_13274()</text>
<text text-anchor="start" x="8" y="-180.3" font-family="Times,serif" font-size="14.00"> g29 = 1</text>
<text text-anchor="start" x="8" y="-165.3" font-family="Times,serif" font-size="14.00"> v5 = g34</text>
<text text-anchor="start" x="8" y="-150.3" font-family="Times,serif" font-size="14.00"> g38 = *(IntToPtrCastExpr&lt;ptr&gt;((v5 + 4)))</text>
<text text-anchor="start" x="8" y="-135.3" font-family="Times,serif" font-size="14.00"> g32 = *(IntToPtrCastExpr&lt;ptr&gt;((v5 + 8)))</text>
<text text-anchor="start" x="8" y="-120.3" font-family="Times,serif" font-size="14.00"> g34 = *(IntToPtrCastExpr&lt;ptr&gt;((v5 + 12)))</text>
<text text-anchor="start" x="8" y="-105.3" font-family="Times,serif" font-size="14.00"> IntToPtrCastExpr&lt;ptr&gt;(*(IntToPtrCastExpr&lt;ptr&gt;((v5 + 16))))()</text>
</g>
<!-- Node0x189c8670&#45;&gt;Node0x16d2b900 -->
<g id="edge4" class="edge"><title>Node0x189c8670&#45;&gt;Node0x16d2b900</title>
<path fill="none" stroke="black" d="M246.969,-458.234C250.652,-452.705 254.086,-446.394 256,-440 257.912,-433.613 256.222,-431.663 256,-425 255.093,-397.761 253.526,-368.567 251.761,-340.87"/>
<polygon fill="black" stroke="black" points="255.244,-340.491 251.102,-330.739 248.258,-340.945 255.244,-340.491"/>
<text text-anchor="middle" x="283" y="-383.8" font-family="Times,serif" font-size="14.00">v1 != 0</text>
</g>
<!-- Node0x36918c30&#45;&gt;Node0x16d2b900 -->
<g id="edge5" class="edge"><title>Node0x36918c30&#45;&gt;Node0x16d2b900</title>
<path fill="none" stroke="black" d="M189.203,-368.471C191.857,-360.755 195.202,-351.031 198.915,-340.239"/>
<polygon fill="black" stroke="black" points="202.32,-341.099 202.264,-330.504 195.701,-338.821 202.32,-341.099"/>
</g>
<!-- Node0x1d9be4a0 -->
<g id="node6" class="node"><title>Node0x1d9be4a0</title>
<polygon fill="none" stroke="black" points="215,-23.5 215,-59.5 269,-59.5 269,-23.5 215,-23.5"/>
<text text-anchor="start" x="223" y="-37.8" font-family="Times,serif" font-size="14.00">exit:</text>
</g>
<!-- Node0x16d2b900&#45;&gt;Node0x1d9be4a0 -->
<g id="edge6" class="edge"><title>Node0x16d2b900&#45;&gt;Node0x1d9be4a0</title>
<path fill="none" stroke="black" d="M242,-97.3858C242,-87.4233 242,-78.0972 242,-70.0599"/>
<polygon fill="black" stroke="black" points="245.5,-69.9601 242,-59.9601 238.5,-69.9602 245.5,-69.9601"/>
</g>
</g>
</svg>
