<?xml version="1.0" encoding="UTF-8" standalone="no"?>
<!DOCTYPE svg PUBLIC "-//W3C//DTD SVG 1.1//EN"
 "http://www.w3.org/Graphics/SVG/1.1/DTD/svg11.dtd">
<!-- Generated by graphviz version 2.38.0 (20140413.2041)
 -->
<!-- Title: Control&#45;flow graph for function &#39;SpPlaybackEnableRepeat()&#39;. Pages: 1 -->
<svg width="586pt" height="1273pt"
 viewBox="0.00 0.00 586.00 1273.00" xmlns="http://www.w3.org/2000/svg" xmlns:xlink="http://www.w3.org/1999/xlink">
<g id="graph0" class="graph" transform="scale(1 1) rotate(0) translate(4 1269)">
<title>Control&#45;flow graph for function &#39;SpPlaybackEnableRepeat()&#39;.</title>
<polygon fill="white" stroke="none" points="-4,4 -4,-1269 582,-1269 582,4 -4,4"/>
<text text-anchor="middle" x="289" y="-7.8" font-family="Times,serif" font-size="14.00">Control&#45;flow graph for function &#39;SpPlaybackEnableRepeat()&#39;.</text>
<!-- Node0x245b1db0 -->
<g id="node1" class="node"><title>Node0x245b1db0</title>
<polygon fill="none" stroke="black" points="146.5,-1228.5 146.5,-1264.5 205.5,-1264.5 205.5,-1228.5 146.5,-1228.5"/>
<text text-anchor="start" x="154.5" y="-1242.8" font-family="Times,serif" font-size="14.00">entry:</text>
</g>
<!-- Node0x28479fb0 -->
<g id="node2" class="node"><title>Node0x28479fb0</title>
<polygon fill="none" stroke="black" points="18.5,-1032.5 18.5,-1190.5 333.5,-1190.5 333.5,-1032.5 18.5,-1032.5"/>
<text text-anchor="start" x="26.5" y="-1175.3" font-family="Times,serif" font-size="14.00">0x129f85c0:</text>
<text text-anchor="start" x="26.5" y="-1160.3" font-family="Times,serif" font-size="14.00"> v1 = g38</text>
<text text-anchor="start" x="26.5" y="-1145.3" font-family="Times,serif" font-size="14.00"> v2 = g39</text>
<text text-anchor="start" x="26.5" y="-1130.3" font-family="Times,serif" font-size="14.00"> v3 = g40</text>
<text text-anchor="start" x="26.5" y="-1115.3" font-family="Times,serif" font-size="14.00"> g38 = 165012</text>
<text text-anchor="start" x="26.5" y="-1100.3" font-family="Times,serif" font-size="14.00"> v4 = *(IntToPtrCastExpr&lt;ptr&gt;(165212))</text>
<text text-anchor="start" x="26.5" y="-1085.3" font-family="Times,serif" font-size="14.00"> g40 = v4</text>
<text text-anchor="start" x="26.5" y="-1070.3" font-family="Times,serif" font-size="14.00"> v5 = g29</text>
<text text-anchor="start" x="26.5" y="-1055.3" font-family="Times,serif" font-size="14.00"> g39 = v5</text>
<text text-anchor="start" x="26.5" y="-1040.3" font-family="Times,serif" font-size="14.00"> v6 = v5</text>
</g>
<!-- Node0x245b1db0&#45;&gt;Node0x28479fb0 -->
<g id="edge1" class="edge"><title>Node0x245b1db0&#45;&gt;Node0x28479fb0</title>
<path fill="none" stroke="black" d="M176,-1228.38C176,-1220.78 176,-1211.21 176,-1200.83"/>
<polygon fill="black" stroke="black" points="179.5,-1200.68 176,-1190.68 172.5,-1200.68 179.5,-1200.68"/>
</g>
<!-- Node0x2847be80 -->
<g id="node3" class="node"><title>Node0x2847be80</title>
<polygon fill="none" stroke="black" points="23.5,-956.5 23.5,-994.5 328.5,-994.5 328.5,-956.5 23.5,-956.5"/>
<text text-anchor="start" x="31.5" y="-979.3" font-family="Times,serif" font-size="14.00">0x82a2a10:</text>
<text text-anchor="start" x="31.5" y="-964.3" font-family="Times,serif" font-size="14.00"> if (*(IntToPtrCastExpr&lt;ptr&gt;(v4)) != 0):</text>
</g>
<!-- Node0x28479fb0&#45;&gt;Node0x2847be80 -->
<g id="edge2" class="edge"><title>Node0x28479fb0&#45;&gt;Node0x2847be80</title>
<path fill="none" stroke="black" d="M176,-1032.16C176,-1022.45 176,-1013.06 176,-1004.85"/>
<polygon fill="black" stroke="black" points="179.5,-1004.8 176,-994.801 172.5,-1004.8 179.5,-1004.8"/>
</g>
<!-- Node0x245b2020 -->
<g id="node4" class="node"><title>Node0x245b2020</title>
<polygon fill="none" stroke="black" points="0,-821.5 0,-904.5 212,-904.5 212,-821.5 0,-821.5"/>
<text text-anchor="start" x="8" y="-889.3" font-family="Times,serif" font-size="14.00">0x82a21d0:</text>
<text text-anchor="start" x="8" y="-874.3" font-family="Times,serif" font-size="14.00"> g30 = 157188</text>
<text text-anchor="start" x="8" y="-859.3" font-family="Times,serif" font-size="14.00"> g36 = v5</text>
<text text-anchor="start" x="8" y="-844.3" font-family="Times,serif" font-size="14.00"> imported_function_ord_0()</text>
<text text-anchor="start" x="8" y="-829.3" font-family="Times,serif" font-size="14.00"> v6 = g39</text>
</g>
<!-- Node0x2847be80&#45;&gt;Node0x245b2020 -->
<g id="edge3" class="edge"><title>Node0x2847be80&#45;&gt;Node0x245b2020</title>
<path fill="none" stroke="black" d="M78.3324,-956.438C61.4478,-951.374 47.526,-945.233 42,-938 35.724,-929.786 36.0491,-921.295 40.1914,-913.123"/>
<polygon fill="black" stroke="black" points="43.1398,-915.01 45.7732,-904.748 37.3149,-911.128 43.1398,-915.01"/>
<text text-anchor="middle" x="170" y="-926.8" font-family="Times,serif" font-size="14.00">*(IntToPtrCastExpr&lt;ptr&gt;(v4)) != 0</text>
</g>
<!-- Node0x2847c1e0 -->
<g id="node5" class="node"><title>Node0x2847c1e0</title>
<polygon fill="none" stroke="black" points="110,-640.5 110,-783.5 398,-783.5 398,-640.5 110,-640.5"/>
<text text-anchor="start" x="118" y="-768.3" font-family="Times,serif" font-size="14.00">0x82a2bb0:</text>
<text text-anchor="start" x="118" y="-753.3" font-family="Times,serif" font-size="14.00"> g29 = v6</text>
<text text-anchor="start" x="118" y="-738.3" font-family="Times,serif" font-size="14.00"> function_16d8c()</text>
<text text-anchor="start" x="118" y="-723.3" font-family="Times,serif" font-size="14.00"> v7 = *(IntToPtrCastExpr&lt;ptr&gt;(g40))</text>
<text text-anchor="start" x="118" y="-708.3" font-family="Times,serif" font-size="14.00"> g37 = v7</text>
<text text-anchor="start" x="118" y="-693.3" font-family="Times,serif" font-size="14.00"> v8 = g29</text>
<text text-anchor="start" x="118" y="-678.3" font-family="Times,serif" font-size="14.00"> g39 = v8</text>
<text text-anchor="start" x="118" y="-663.3" font-family="Times,serif" font-size="14.00"> g9 = (v7 == 0)</text>
<text text-anchor="start" x="118" y="-648.3" font-family="Times,serif" font-size="14.00"> v9 = v8</text>
</g>
<!-- Node0x2847be80&#45;&gt;Node0x2847c1e0 -->
<g id="edge4" class="edge"><title>Node0x2847be80&#45;&gt;Node0x2847c1e0</title>
<path fill="none" stroke="black" d="M277.32,-956.409C285.278,-951.576 292.388,-945.536 298,-938 328.801,-896.635 317.151,-839.502 298.131,-793.16"/>
<polygon fill="black" stroke="black" points="301.255,-791.564 294.107,-783.744 294.818,-794.315 301.255,-791.564"/>
<text text-anchor="middle" x="447" y="-859.3" font-family="Times,serif" font-size="14.00">*(IntToPtrCastExpr&lt;ptr&gt;(v4)) == 0</text>
</g>
<!-- Node0x245b2020&#45;&gt;Node0x2847c1e0 -->
<g id="edge5" class="edge"><title>Node0x245b2020&#45;&gt;Node0x2847c1e0</title>
<path fill="none" stroke="black" d="M146.442,-821.285C155.829,-811.834 166.131,-801.462 176.525,-790.999"/>
<polygon fill="black" stroke="black" points="179.161,-793.311 183.725,-783.75 174.194,-788.378 179.161,-793.311"/>
</g>
<!-- Node0x28477080 -->
<g id="node6" class="node"><title>Node0x28477080</title>
<polygon fill="none" stroke="black" points="202,-564.5 202,-602.5 306,-602.5 306,-564.5 202,-564.5"/>
<text text-anchor="start" x="210" y="-587.3" font-family="Times,serif" font-size="14.00">0x82a5020:</text>
<text text-anchor="start" x="210" y="-572.3" font-family="Times,serif" font-size="14.00"> if (v7 != 0):</text>
</g>
<!-- Node0x2847c1e0&#45;&gt;Node0x28477080 -->
<g id="edge6" class="edge"><title>Node0x2847c1e0&#45;&gt;Node0x28477080</title>
<path fill="none" stroke="black" d="M254,-640.353C254,-630.594 254,-621.073 254,-612.737"/>
<polygon fill="black" stroke="black" points="257.5,-612.54 254,-602.54 250.5,-612.54 257.5,-612.54"/>
</g>
<!-- Node0x2847a3e0 -->
<g id="node7" class="node"><title>Node0x2847a3e0</title>
<polygon fill="none" stroke="black" points="42,-429.5 42,-512.5 254,-512.5 254,-429.5 42,-429.5"/>
<text text-anchor="start" x="50" y="-497.3" font-family="Times,serif" font-size="14.00">0x82a4690:</text>
<text text-anchor="start" x="50" y="-482.3" font-family="Times,serif" font-size="14.00"> g30 = (g38 &#45; 7824)</text>
<text text-anchor="start" x="50" y="-467.3" font-family="Times,serif" font-size="14.00"> g36 = v8</text>
<text text-anchor="start" x="50" y="-452.3" font-family="Times,serif" font-size="14.00"> imported_function_ord_0()</text>
<text text-anchor="start" x="50" y="-437.3" font-family="Times,serif" font-size="14.00"> v9 = g39</text>
</g>
<!-- Node0x28477080&#45;&gt;Node0x2847a3e0 -->
<g id="edge7" class="edge"><title>Node0x28477080&#45;&gt;Node0x2847a3e0</title>
<path fill="none" stroke="black" d="M236.496,-564.253C224.975,-552.242 209.311,-535.914 194.363,-520.331"/>
<polygon fill="black" stroke="black" points="196.552,-517.557 187.104,-512.764 191.5,-522.403 196.552,-517.557"/>
<text text-anchor="middle" x="243" y="-534.8" font-family="Times,serif" font-size="14.00">v7 != 0</text>
</g>
<!-- Node0x2847aae0 -->
<g id="node8" class="node"><title>Node0x2847aae0</title>
<polygon fill="none" stroke="black" points="127,-263.5 127,-391.5 369,-391.5 369,-263.5 127,-263.5"/>
<text text-anchor="start" x="135" y="-376.3" font-family="Times,serif" font-size="14.00">0x82a51c0:</text>
<text text-anchor="start" x="135" y="-361.3" font-family="Times,serif" font-size="14.00"> g29 = v9</text>
<text text-anchor="start" x="135" y="-346.3" font-family="Times,serif" font-size="14.00"> g38 = v1</text>
<text text-anchor="start" x="135" y="-331.3" font-family="Times,serif" font-size="14.00"> g39 = v2</text>
<text text-anchor="start" x="135" y="-316.3" font-family="Times,serif" font-size="14.00"> g40 = v3</text>
<text text-anchor="start" x="135" y="-301.3" font-family="Times,serif" font-size="14.00"> v10</text>
<text text-anchor="start" x="135" y="-286.3" font-family="Times,serif" font-size="14.00"> g34 = v10</text>
<text text-anchor="start" x="135" y="-271.3" font-family="Times,serif" font-size="14.00"> IntToPtrCastExpr&lt;ptr&gt;(g35)()</text>
</g>
<!-- Node0x28477080&#45;&gt;Node0x2847aae0 -->
<g id="edge8" class="edge"><title>Node0x28477080&#45;&gt;Node0x2847aae0</title>
<path fill="none" stroke="black" d="M266.288,-564.309C269.436,-558.682 272.387,-552.3 274,-546 275.653,-539.542 274.358,-537.657 274,-531 271.685,-487.95 265.701,-440.096 260.056,-401.721"/>
<polygon fill="black" stroke="black" points="263.494,-401.043 258.554,-391.67 256.571,-402.077 263.494,-401.043"/>
<text text-anchor="middle" x="302" y="-467.3" font-family="Times,serif" font-size="14.00">v7 == 0</text>
</g>
<!-- Node0x2847a3e0&#45;&gt;Node0x2847aae0 -->
<g id="edge9" class="edge"><title>Node0x2847a3e0&#45;&gt;Node0x2847aae0</title>
<path fill="none" stroke="black" d="M176.656,-429.452C183.149,-420.264 190.233,-410.24 197.335,-400.191"/>
<polygon fill="black" stroke="black" points="200.379,-401.948 203.292,-391.762 194.662,-397.908 200.379,-401.948"/>
</g>
<!-- Node0x2847a4e0 -->
<g id="node9" class="node"><title>Node0x2847a4e0</title>
<polygon fill="none" stroke="black" points="197.5,-187.5 197.5,-225.5 298.5,-225.5 298.5,-187.5 197.5,-187.5"/>
<text text-anchor="start" x="205.5" y="-210.3" font-family="Times,serif" font-size="14.00">0x82a6710:</text>
<text text-anchor="start" x="205.5" y="-195.3" font-family="Times,serif" font-size="14.00"> if g9:</text>
</g>
<!-- Node0x2847aae0&#45;&gt;Node0x2847a4e0 -->
<g id="edge10" class="edge"><title>Node0x2847aae0&#45;&gt;Node0x2847a4e0</title>
<path fill="none" stroke="black" d="M248,-263.167C248,-253.596 248,-244.158 248,-235.848"/>
<polygon fill="black" stroke="black" points="251.5,-235.658 248,-225.659 244.5,-235.659 251.5,-235.658"/>
</g>
<!-- Node0x28478a70 -->
<g id="node10" class="node"><title>Node0x28478a70</title>
<polygon fill="none" stroke="black" points="57,-97.5 57,-135.5 245,-135.5 245,-97.5 57,-97.5"/>
<text text-anchor="start" x="65" y="-120.3" font-family="Times,serif" font-size="14.00">0x82a6470:</text>
<text text-anchor="start" x="65" y="-105.3" font-family="Times,serif" font-size="14.00"> g29 = (g29 &amp; (g42 / 2))</text>
</g>
<!-- Node0x2847a4e0&#45;&gt;Node0x28478a70 -->
<g id="edge11" class="edge"><title>Node0x2847a4e0&#45;&gt;Node0x28478a70</title>
<path fill="none" stroke="black" d="M227.902,-187.266C213.725,-174.405 194.55,-157.009 178.894,-142.806"/>
<polygon fill="black" stroke="black" points="180.831,-139.837 171.073,-135.71 176.127,-145.022 180.831,-139.837"/>
<text text-anchor="middle" x="214.5" y="-157.8" font-family="Times,serif" font-size="14.00">g9</text>
</g>
<!-- Node0x28477580 -->
<g id="node11" class="node"><title>Node0x28477580</title>
<polygon fill="none" stroke="black" points="215,-23.5 215,-59.5 269,-59.5 269,-23.5 215,-23.5"/>
<text text-anchor="start" x="223" y="-37.8" font-family="Times,serif" font-size="14.00">exit:</text>
</g>
<!-- Node0x2847a4e0&#45;&gt;Node0x28477580 -->
<g id="edge12" class="edge"><title>Node0x2847a4e0&#45;&gt;Node0x28477580</title>
<path fill="none" stroke="black" d="M250.803,-187.406C253.729,-165.828 257.448,-128.696 254,-97 253.017,-87.9613 251.142,-78.2257 249.161,-69.5188"/>
<polygon fill="black" stroke="black" points="252.497,-68.4222 246.745,-59.5244 245.693,-70.0668 252.497,-68.4222"/>
<text text-anchor="middle" x="283.5" y="-112.8" font-family="Times,serif" font-size="14.00">not (g9)</text>
</g>
<!-- Node0x28478a70&#45;&gt;Node0x28477580 -->
<g id="edge13" class="edge"><title>Node0x28478a70&#45;&gt;Node0x28477580</title>
<path fill="none" stroke="black" d="M173.494,-97.4551C185.324,-87.9651 199.97,-76.2165 212.679,-66.0211"/>
<polygon fill="black" stroke="black" points="215.092,-68.5726 220.702,-59.585 210.712,-63.1123 215.092,-68.5726"/>
</g>
</g>
</svg>
