<?xml version="1.0" encoding="UTF-8" standalone="no"?>
<!DOCTYPE svg PUBLIC "-//W3C//DTD SVG 1.1//EN"
 "http://www.w3.org/Graphics/SVG/1.1/DTD/svg11.dtd">
<!-- Generated by graphviz version 2.38.0 (20140413.2041)
 -->
<!-- Title: Control&#45;flow graph for function &#39;function_f1f4()&#39;. Pages: 1 -->
<svg width="1020pt" height="1143pt"
 viewBox="0.00 0.00 1020.00 1143.00" xmlns="http://www.w3.org/2000/svg" xmlns:xlink="http://www.w3.org/1999/xlink">
<g id="graph0" class="graph" transform="scale(1 1) rotate(0) translate(4 1139)">
<title>Control&#45;flow graph for function &#39;function_f1f4()&#39;.</title>
<polygon fill="white" stroke="none" points="-4,4 -4,-1139 1016,-1139 1016,4 -4,4"/>
<text text-anchor="middle" x="506" y="-7.8" font-family="Times,serif" font-size="14.00">Control&#45;flow graph for function &#39;function_f1f4()&#39;.</text>
<!-- Node0x3fb530f0 -->
<g id="node1" class="node"><title>Node0x3fb530f0</title>
<polygon fill="none" stroke="black" points="191,-1098.5 191,-1134.5 250,-1134.5 250,-1098.5 191,-1098.5"/>
<text text-anchor="start" x="199" y="-1112.8" font-family="Times,serif" font-size="14.00">entry:</text>
</g>
<!-- Node0x3fb52830 -->
<g id="node2" class="node"><title>Node0x3fb52830</title>
<polygon fill="none" stroke="black" points="137,-812.5 137,-1060.5 304,-1060.5 304,-812.5 137,-812.5"/>
<text text-anchor="start" x="145" y="-1045.3" font-family="Times,serif" font-size="14.00">0x480b93d0:</text>
<text text-anchor="start" x="145" y="-1030.3" font-family="Times,serif" font-size="14.00"> v1 = g38</text>
<text text-anchor="start" x="145" y="-1015.3" font-family="Times,serif" font-size="14.00"> v2 = g39</text>
<text text-anchor="start" x="145" y="-1000.3" font-family="Times,serif" font-size="14.00"> v3 = g40</text>
<text text-anchor="start" x="145" y="-985.3" font-family="Times,serif" font-size="14.00"> v4 = g41</text>
<text text-anchor="start" x="145" y="-970.3" font-family="Times,serif" font-size="14.00"> v5 = g32</text>
<text text-anchor="start" x="145" y="-955.3" font-family="Times,serif" font-size="14.00"> v6 = g35</text>
<text text-anchor="start" x="145" y="-940.3" font-family="Times,serif" font-size="14.00"> g41 = g29</text>
<text text-anchor="start" x="145" y="-925.3" font-family="Times,serif" font-size="14.00"> g40 = g30</text>
<text text-anchor="start" x="145" y="-910.3" font-family="Times,serif" font-size="14.00"> v7 = g36</text>
<text text-anchor="start" x="145" y="-895.3" font-family="Times,serif" font-size="14.00"> g39 = v7</text>
<text text-anchor="start" x="145" y="-880.3" font-family="Times,serif" font-size="14.00"> g38 = 0</text>
<text text-anchor="start" x="145" y="-865.3" font-family="Times,serif" font-size="14.00"> v8 = &#45;(v7)</text>
<text text-anchor="start" x="145" y="-850.3" font-family="Times,serif" font-size="14.00"> g8 = ((v7 &amp; v8) &lt; 0)</text>
<text text-anchor="start" x="145" y="-835.3" font-family="Times,serif" font-size="14.00"> g7 = (v8 &lt; 0)</text>
<text text-anchor="start" x="145" y="-820.3" font-family="Times,serif" font-size="14.00"> v9</text>
</g>
<!-- Node0x3fb530f0&#45;&gt;Node0x3fb52830 -->
<g id="edge1" class="edge"><title>Node0x3fb530f0&#45;&gt;Node0x3fb52830</title>
<path fill="none" stroke="black" d="M220.5,-1098.43C220.5,-1090.97 220.5,-1081.49 220.5,-1070.89"/>
<polygon fill="black" stroke="black" points="224,-1070.85 220.5,-1060.85 217,-1070.85 224,-1070.85"/>
</g>
<!-- Node0x3fb52cf0 -->
<g id="node3" class="node"><title>Node0x3fb52cf0</title>
<polygon fill="none" stroke="black" points="165.5,-736.5 165.5,-774.5 275.5,-774.5 275.5,-736.5 165.5,-736.5"/>
<text text-anchor="start" x="173.5" y="-759.3" font-family="Times,serif" font-size="14.00">0x77afa50:</text>
<text text-anchor="start" x="173.5" y="-744.3" font-family="Times,serif" font-size="14.00"> if (v7 &lt;= 0):</text>
</g>
<!-- Node0x3fb52830&#45;&gt;Node0x3fb52cf0 -->
<g id="edge2" class="edge"><title>Node0x3fb52830&#45;&gt;Node0x3fb52cf0</title>
<path fill="none" stroke="black" d="M220.5,-812.156C220.5,-802.164 220.5,-792.832 220.5,-784.772"/>
<polygon fill="black" stroke="black" points="224,-784.628 220.5,-774.628 217,-784.628 224,-784.628"/>
</g>
<!-- Node0x3e4f4540 -->
<g id="node4" class="node"><title>Node0x3e4f4540</title>
<polygon fill="none" stroke="black" points="0,-364.5 0,-507.5 233,-507.5 233,-364.5 0,-364.5"/>
<text text-anchor="start" x="8" y="-492.3" font-family="Times,serif" font-size="14.00">0x77afbf0:</text>
<text text-anchor="start" x="8" y="-477.3" font-family="Times,serif" font-size="14.00"> g38 = v1</text>
<text text-anchor="start" x="8" y="-462.3" font-family="Times,serif" font-size="14.00"> g39 = v2</text>
<text text-anchor="start" x="8" y="-447.3" font-family="Times,serif" font-size="14.00"> g40 = v3</text>
<text text-anchor="start" x="8" y="-432.3" font-family="Times,serif" font-size="14.00"> g41 = v4</text>
<text text-anchor="start" x="8" y="-417.3" font-family="Times,serif" font-size="14.00"> g32 = v5</text>
<text text-anchor="start" x="8" y="-402.3" font-family="Times,serif" font-size="14.00"> g34 = v9</text>
<text text-anchor="start" x="8" y="-387.3" font-family="Times,serif" font-size="14.00"> IntToPtrCastExpr&lt;ptr&gt;(v6)()</text>
<text text-anchor="start" x="8" y="-372.3" font-family="Times,serif" font-size="14.00"> return</text>
</g>
<!-- Node0x3fb52cf0&#45;&gt;Node0x3e4f4540 -->
<g id="edge3" class="edge"><title>Node0x3fb52cf0&#45;&gt;Node0x3e4f4540</title>
<path fill="none" stroke="black" d="M207.859,-736.37C198.865,-722.764 187.079,-703.392 179.5,-685 157.253,-631.013 141.243,-567.084 130.929,-517.655"/>
<polygon fill="black" stroke="black" points="134.316,-516.747 128.879,-507.654 127.459,-518.153 134.316,-516.747"/>
<text text-anchor="middle" x="226.5" y="-706.8" font-family="Times,serif" font-size="14.00">v7 &lt;= 0</text>
</g>
<!-- Node0x2adae3b0 -->
<g id="node5" class="node"><title>Node0x2adae3b0</title>
<polygon fill="none" stroke="black" points="188.5,-526.5 188.5,-684.5 804.5,-684.5 804.5,-526.5 188.5,-526.5"/>
<text text-anchor="start" x="196.5" y="-669.3" font-family="Times,serif" font-size="14.00">0x19aae020:</text>
<text text-anchor="start" x="196.5" y="-654.3" font-family="Times,serif" font-size="14.00"> function_f1a4()</text>
<text text-anchor="start" x="196.5" y="-639.3" font-family="Times,serif" font-size="14.00"> *(IntToPtrCastExpr&lt;ptr&gt;((g40 + g38))) = TruncCastExpr&lt;int8&gt;((g29 / 8388608))</text>
<text text-anchor="start" x="196.5" y="-624.3" font-family="Times,serif" font-size="14.00"> v10 = (g38 + 1)</text>
<text text-anchor="start" x="196.5" y="-609.3" font-family="Times,serif" font-size="14.00"> g38 = v10</text>
<text text-anchor="start" x="196.5" y="-594.3" font-family="Times,serif" font-size="14.00"> v11 = g39</text>
<text text-anchor="start" x="196.5" y="-579.3" font-family="Times,serif" font-size="14.00"> v12 = (v10 &#45; v11)</text>
<text text-anchor="start" x="196.5" y="-564.3" font-family="Times,serif" font-size="14.00"> g8 = (((v12 ^ v10) &amp; (v11 ^ v10)) &lt; 0)</text>
<text text-anchor="start" x="196.5" y="-549.3" font-family="Times,serif" font-size="14.00"> g7 = (v12 &lt; 0)</text>
<text text-anchor="start" x="196.5" y="-534.3" font-family="Times,serif" font-size="14.00"> g29 = g41</text>
</g>
<!-- Node0x3fb52cf0&#45;&gt;Node0x2adae3b0 -->
<g id="edge4" class="edge"><title>Node0x3fb52cf0&#45;&gt;Node0x2adae3b0</title>
<path fill="none" stroke="black" d="M254.343,-736.352C277.137,-724.13 308.994,-707.047 342.128,-689.279"/>
<polygon fill="black" stroke="black" points="343.878,-692.313 351.036,-684.502 340.569,-686.144 343.878,-692.313"/>
<text text-anchor="middle" x="334.5" y="-706.8" font-family="Times,serif" font-size="14.00">v7 &gt; 0</text>
</g>
<!-- Node0x360bf590 -->
<g id="node6" class="node"><title>Node0x360bf590</title>
<polygon fill="none" stroke="black" points="290.5,-23.5 290.5,-59.5 344.5,-59.5 344.5,-23.5 290.5,-23.5"/>
<text text-anchor="start" x="298.5" y="-37.8" font-family="Times,serif" font-size="14.00">exit:</text>
</g>
<!-- Node0x3e4f4540&#45;&gt;Node0x360bf590 -->
<g id="edge5" class="edge"><title>Node0x3e4f4540&#45;&gt;Node0x360bf590</title>
<path fill="none" stroke="black" d="M98.9006,-364.394C84.7627,-289.746 75.8867,-172.555 135.5,-97 169.873,-53.4352 237.673,-43.5927 280.118,-41.9641"/>
<polygon fill="black" stroke="black" points="280.417,-45.4579 290.328,-41.7115 280.244,-38.46 280.417,-45.4579"/>
</g>
<!-- Node0x1b954f00 -->
<g id="node7" class="node"><title>Node0x1b954f00</title>
<polygon fill="none" stroke="black" points="420.5,-307.5 420.5,-345.5 572.5,-345.5 572.5,-307.5 420.5,-307.5"/>
<text text-anchor="start" x="428.5" y="-330.3" font-family="Times,serif" font-size="14.00">0x77af930:</text>
<text text-anchor="start" x="428.5" y="-315.3" font-family="Times,serif" font-size="14.00"> while (v10 &lt; v11):</text>
</g>
<!-- Node0x2adae3b0&#45;&gt;Node0x1b954f00 -->
<g id="edge6" class="edge"><title>Node0x2adae3b0&#45;&gt;Node0x1b954f00</title>
<path fill="none" stroke="black" d="M496.5,-526.234C496.5,-469.226 496.5,-395.31 496.5,-355.633"/>
<polygon fill="black" stroke="black" points="500,-355.623 496.5,-345.623 493,-355.623 500,-355.623"/>
</g>
<!-- Node0x2adafdb0 -->
<g id="node8" class="node"><title>Node0x2adafdb0</title>
<polygon fill="none" stroke="black" points="144.5,-97.5 144.5,-255.5 760.5,-255.5 760.5,-97.5 144.5,-97.5"/>
<text text-anchor="start" x="152.5" y="-240.3" font-family="Times,serif" font-size="14.00">0x146cda30:</text>
<text text-anchor="start" x="152.5" y="-225.3" font-family="Times,serif" font-size="14.00"> function_f1a4()</text>
<text text-anchor="start" x="152.5" y="-210.3" font-family="Times,serif" font-size="14.00"> *(IntToPtrCastExpr&lt;ptr&gt;((g40 + g38))) = TruncCastExpr&lt;int8&gt;((g29 / 8388608))</text>
<text text-anchor="start" x="152.5" y="-195.3" font-family="Times,serif" font-size="14.00"> v10 = (g38 + 1)</text>
<text text-anchor="start" x="152.5" y="-180.3" font-family="Times,serif" font-size="14.00"> g38 = v10</text>
<text text-anchor="start" x="152.5" y="-165.3" font-family="Times,serif" font-size="14.00"> v11 = g39</text>
<text text-anchor="start" x="152.5" y="-150.3" font-family="Times,serif" font-size="14.00"> v12 = (v10 &#45; v11)</text>
<text text-anchor="start" x="152.5" y="-135.3" font-family="Times,serif" font-size="14.00"> g8 = (((v12 ^ v10) &amp; (v11 ^ v10)) &lt; 0)</text>
<text text-anchor="start" x="152.5" y="-120.3" font-family="Times,serif" font-size="14.00"> g7 = (v12 &lt; 0)</text>
<text text-anchor="start" x="152.5" y="-105.3" font-family="Times,serif" font-size="14.00"> g29 = g41</text>
</g>
<!-- Node0x1b954f00&#45;&gt;Node0x2adafdb0 -->
<g id="edge7" class="edge"><title>Node0x1b954f00&#45;&gt;Node0x2adafdb0</title>
<path fill="none" stroke="black" d="M428.284,-307.321C420.495,-302.564 413.552,-296.565 408.5,-289 403.611,-281.679 401.539,-273.734 401.487,-265.57"/>
<polygon fill="black" stroke="black" points="404.98,-265.798 402.371,-255.53 398.007,-265.184 404.98,-265.798"/>
<text text-anchor="middle" x="445.5" y="-277.8" font-family="Times,serif" font-size="14.00">v10 &lt; v11</text>
</g>
<!-- Node0x3881d6d0 -->
<g id="node9" class="node"><title>Node0x3881d6d0</title>
<polygon fill="none" stroke="black" points="779,-112.5 779,-240.5 1012,-240.5 1012,-112.5 779,-112.5"/>
<text text-anchor="start" x="787" y="-225.3" font-family="Times,serif" font-size="14.00">0x77aee20:</text>
<text text-anchor="start" x="787" y="-210.3" font-family="Times,serif" font-size="14.00"> g38 = v1</text>
<text text-anchor="start" x="787" y="-195.3" font-family="Times,serif" font-size="14.00"> g39 = v2</text>
<text text-anchor="start" x="787" y="-180.3" font-family="Times,serif" font-size="14.00"> g40 = v3</text>
<text text-anchor="start" x="787" y="-165.3" font-family="Times,serif" font-size="14.00"> g41 = v4</text>
<text text-anchor="start" x="787" y="-150.3" font-family="Times,serif" font-size="14.00"> g32 = v5</text>
<text text-anchor="start" x="787" y="-135.3" font-family="Times,serif" font-size="14.00"> g34 = v9</text>
<text text-anchor="start" x="787" y="-120.3" font-family="Times,serif" font-size="14.00"> IntToPtrCastExpr&lt;ptr&gt;(v6)()</text>
</g>
<!-- Node0x1b954f00&#45;&gt;Node0x3881d6d0 -->
<g id="edge8" class="edge"><title>Node0x1b954f00&#45;&gt;Node0x3881d6d0</title>
<path fill="none" stroke="black" d="M572.693,-312.64C628.612,-301.654 705.621,-283.251 769.5,-256 776.834,-252.871 784.236,-249.352 791.581,-245.583"/>
<polygon fill="black" stroke="black" points="793.642,-248.453 800.847,-240.685 790.37,-242.264 793.642,-248.453"/>
<text text-anchor="middle" x="761.5" y="-277.8" font-family="Times,serif" font-size="14.00">v10 &gt;= v11</text>
</g>
<!-- Node0x2adafdb0&#45;&gt;Node0x1b954f00 -->
<g id="edge9" class="edge"><title>Node0x2adafdb0&#45;&gt;Node0x1b954f00</title>
<path fill="none" stroke="black" d="M477.053,-255.639C478.923,-261.843 480.758,-268.02 482.5,-274 484.709,-281.584 486.999,-289.828 489.072,-297.451"/>
<polygon fill="black" stroke="black" points="485.755,-298.595 491.735,-307.342 492.514,-296.776 485.755,-298.595"/>
</g>
<!-- Node0x3881d6d0&#45;&gt;Node0x360bf590 -->
<g id="edge10" class="edge"><title>Node0x3881d6d0&#45;&gt;Node0x360bf590</title>
<path fill="none" stroke="black" d="M804.237,-112.382C792.891,-106.437 781.169,-101.109 769.5,-97 622.642,-45.2847 434.167,-40.8876 355.074,-41.6086"/>
<polygon fill="black" stroke="black" points="354.61,-38.1141 344.655,-41.7399 354.698,-45.1135 354.61,-38.1141"/>
</g>
</g>
</svg>
