<?xml version="1.0" encoding="UTF-8" standalone="no"?>
<!DOCTYPE svg PUBLIC "-//W3C//DTD SVG 1.1//EN"
 "http://www.w3.org/Graphics/SVG/1.1/DTD/svg11.dtd">
<!-- Generated by graphviz version 2.38.0 (20140413.2041)
 -->
<!-- Title: Control&#45;flow graph for function &#39;function_12fe0()&#39;. Pages: 1 -->
<svg width="519pt" height="321pt"
 viewBox="0.00 0.00 519.00 321.00" xmlns="http://www.w3.org/2000/svg" xmlns:xlink="http://www.w3.org/1999/xlink">
<g id="graph0" class="graph" transform="scale(1 1) rotate(0) translate(4 317)">
<title>Control&#45;flow graph for function &#39;function_12fe0()&#39;.</title>
<polygon fill="white" stroke="none" points="-4,4 -4,-317 515,-317 515,4 -4,4"/>
<text text-anchor="middle" x="255.5" y="-7.8" font-family="Times,serif" font-size="14.00">Control&#45;flow graph for function &#39;function_12fe0()&#39;.</text>
<!-- Node0x15919520 -->
<g id="node1" class="node"><title>Node0x15919520</title>
<polygon fill="none" stroke="black" points="226,-276.5 226,-312.5 285,-312.5 285,-276.5 226,-276.5"/>
<text text-anchor="start" x="234" y="-290.8" font-family="Times,serif" font-size="14.00">entry:</text>
</g>
<!-- Node0x1591bc30 -->
<g id="node2" class="node"><title>Node0x1591bc30</title>
<polygon fill="none" stroke="black" points="-2.84217e-14,-96.5 -2.84217e-14,-239.5 511,-239.5 511,-96.5 -2.84217e-14,-96.5"/>
<text text-anchor="start" x="8" y="-224.3" font-family="Times,serif" font-size="14.00">0x2928ba60:</text>
<text text-anchor="start" x="8" y="-209.3" font-family="Times,serif" font-size="14.00"> v1 = g29</text>
<text text-anchor="start" x="8" y="-194.3" font-family="Times,serif" font-size="14.00"> g37 = (v1 / 16777216)</text>
<text text-anchor="start" x="8" y="-179.3" font-family="Times,serif" font-size="14.00"> g36 = (v1 / 65536)</text>
<text text-anchor="start" x="8" y="-164.3" font-family="Times,serif" font-size="14.00"> g33 = (v1 / 256)</text>
<text text-anchor="start" x="8" y="-149.3" font-family="Times,serif" font-size="14.00"> *(IntToPtrCastExpr&lt;ptr&gt;((g30 + 3))) = TruncCastExpr&lt;int8&gt;(v1)</text>
<text text-anchor="start" x="8" y="-134.3" font-family="Times,serif" font-size="14.00"> *(IntToPtrCastExpr&lt;ptr&gt;(g30)) = TruncCastExpr&lt;int8&gt;(g37)</text>
<text text-anchor="start" x="8" y="-119.3" font-family="Times,serif" font-size="14.00"> *(IntToPtrCastExpr&lt;ptr&gt;((g30 + 1))) = TruncCastExpr&lt;int8&gt;(g36)</text>
<text text-anchor="start" x="8" y="-104.3" font-family="Times,serif" font-size="14.00"> *(IntToPtrCastExpr&lt;ptr&gt;((g30 + 2))) = TruncCastExpr&lt;int8&gt;(g33)</text>
</g>
<!-- Node0x15919520&#45;&gt;Node0x1591bc30 -->
<g id="edge1" class="edge"><title>Node0x15919520&#45;&gt;Node0x1591bc30</title>
<path fill="none" stroke="black" d="M255.5,-276.45C255.5,-269.058 255.5,-259.82 255.5,-249.886"/>
<polygon fill="black" stroke="black" points="259,-249.761 255.5,-239.761 252,-249.761 259,-249.761"/>
</g>
<!-- Node0x23c5f380 -->
<g id="node3" class="node"><title>Node0x23c5f380</title>
<polygon fill="none" stroke="black" points="228.5,-23.5 228.5,-59.5 282.5,-59.5 282.5,-23.5 228.5,-23.5"/>
<text text-anchor="start" x="236.5" y="-37.8" font-family="Times,serif" font-size="14.00">exit:</text>
</g>
<!-- Node0x1591bc30&#45;&gt;Node0x23c5f380 -->
<g id="edge2" class="edge"><title>Node0x1591bc30&#45;&gt;Node0x23c5f380</title>
<path fill="none" stroke="black" d="M255.5,-96.3834C255.5,-87.0259 255.5,-77.9253 255.5,-69.9482"/>
<polygon fill="black" stroke="black" points="259,-69.848 255.5,-59.848 252,-69.8481 259,-69.848"/>
</g>
</g>
</svg>
