<?xml version="1.0" encoding="UTF-8" standalone="no"?>
<!DOCTYPE svg PUBLIC "-//W3C//DTD SVG 1.1//EN"
 "http://www.w3.org/Graphics/SVG/1.1/DTD/svg11.dtd">
<!-- Generated by graphviz version 2.38.0 (20140413.2041)
 -->
<!-- Title: Control&#45;flow graph for function &#39;function_187c4()&#39;. Pages: 1 -->
<svg width="799pt" height="1236pt"
 viewBox="0.00 0.00 798.50 1236.00" xmlns="http://www.w3.org/2000/svg" xmlns:xlink="http://www.w3.org/1999/xlink">
<g id="graph0" class="graph" transform="scale(1 1) rotate(0) translate(4 1232)">
<title>Control&#45;flow graph for function &#39;function_187c4()&#39;.</title>
<polygon fill="white" stroke="none" points="-4,4 -4,-1232 794.5,-1232 794.5,4 -4,4"/>
<text text-anchor="middle" x="395.25" y="-7.8" font-family="Times,serif" font-size="14.00">Control&#45;flow graph for function &#39;function_187c4()&#39;.</text>
<!-- Node0x242f9bb0 -->
<g id="node1" class="node"><title>Node0x242f9bb0</title>
<polygon fill="none" stroke="black" points="218,-1191.5 218,-1227.5 277,-1227.5 277,-1191.5 218,-1191.5"/>
<text text-anchor="start" x="226" y="-1205.8" font-family="Times,serif" font-size="14.00">entry:</text>
</g>
<!-- Node0x242fa640 -->
<g id="node2" class="node"><title>Node0x242fa640</title>
<polygon fill="none" stroke="black" points="0,-1055.5 0,-1153.5 495,-1153.5 495,-1055.5 0,-1055.5"/>
<text text-anchor="start" x="8" y="-1138.3" font-family="Times,serif" font-size="14.00">0x11e484e0:</text>
<text text-anchor="start" x="8" y="-1123.3" font-family="Times,serif" font-size="14.00"> v1 = g29</text>
<text text-anchor="start" x="8" y="-1108.3" font-family="Times,serif" font-size="14.00"> g36 = v1</text>
<text text-anchor="start" x="8" y="-1093.3" font-family="Times,serif" font-size="14.00"> v2 = (v1 % 2097152)</text>
<text text-anchor="start" x="8" y="-1078.3" font-family="Times,serif" font-size="14.00"> g29 = v2</text>
<text text-anchor="start" x="8" y="-1063.3" font-family="Times,serif" font-size="14.00"> *(IntToPtrCastExpr&lt;ptr&gt;(g30)) = (((v1 / 2097152) % 1024) &#45; 788)</text>
</g>
<!-- Node0x242f9bb0&#45;&gt;Node0x242fa640 -->
<g id="edge1" class="edge"><title>Node0x242f9bb0&#45;&gt;Node0x242fa640</title>
<path fill="none" stroke="black" d="M247.5,-1191.49C247.5,-1183.69 247.5,-1173.94 247.5,-1163.83"/>
<polygon fill="black" stroke="black" points="251,-1163.66 247.5,-1153.66 244,-1163.66 251,-1163.66"/>
</g>
<!-- Node0x242f71b0 -->
<g id="node3" class="node"><title>Node0x242f71b0</title>
<polygon fill="none" stroke="black" points="192.5,-979.5 192.5,-1017.5 302.5,-1017.5 302.5,-979.5 192.5,-979.5"/>
<text text-anchor="start" x="200.5" y="-1002.3" font-family="Times,serif" font-size="14.00">0x88657c0:</text>
<text text-anchor="start" x="200.5" y="-987.3" font-family="Times,serif" font-size="14.00"> if (v2 == 0):</text>
</g>
<!-- Node0x242fa640&#45;&gt;Node0x242f71b0 -->
<g id="edge2" class="edge"><title>Node0x242fa640&#45;&gt;Node0x242f71b0</title>
<path fill="none" stroke="black" d="M247.5,-1055.46C247.5,-1045.95 247.5,-1036.27 247.5,-1027.69"/>
<polygon fill="black" stroke="black" points="251,-1027.51 247.5,-1017.51 244,-1027.51 251,-1027.51"/>
</g>
<!-- Node0x37c0d920 -->
<g id="node4" class="node"><title>Node0x37c0d920</title>
<polygon fill="none" stroke="black" points="14,-787.5 14,-855.5 325,-855.5 325,-787.5 14,-787.5"/>
<text text-anchor="start" x="22" y="-840.3" font-family="Times,serif" font-size="14.00">0x8864b10:</text>
<text text-anchor="start" x="22" y="-825.3" font-family="Times,serif" font-size="14.00"> g37 = &#45;9999</text>
<text text-anchor="start" x="22" y="-810.3" font-family="Times,serif" font-size="14.00"> *(IntToPtrCastExpr&lt;ptr&gt;(g30)) = &#45;9999</text>
<text text-anchor="start" x="22" y="-795.3" font-family="Times,serif" font-size="14.00"> return</text>
</g>
<!-- Node0x242f71b0&#45;&gt;Node0x37c0d920 -->
<g id="edge3" class="edge"><title>Node0x242f71b0&#45;&gt;Node0x37c0d920</title>
<path fill="none" stroke="black" d="M239.446,-979.431C227.512,-952.656 204.789,-901.673 188.477,-865.077"/>
<polygon fill="black" stroke="black" points="191.538,-863.347 184.27,-855.638 185.144,-866.197 191.538,-863.347"/>
<text text-anchor="middle" x="261.5" y="-949.8" font-family="Times,serif" font-size="14.00">v2 == 0</text>
</g>
<!-- Node0x37c0ee70 -->
<g id="node5" class="node"><title>Node0x37c0ee70</title>
<polygon fill="none" stroke="black" points="327.5,-874.5 327.5,-927.5 433.5,-927.5 433.5,-874.5 327.5,-874.5"/>
<text text-anchor="start" x="335.5" y="-912.3" font-family="Times,serif" font-size="14.00">0x437fb2a0:</text>
<text text-anchor="start" x="335.5" y="-897.3" font-family="Times,serif" font-size="14.00"> v3 = g29</text>
<text text-anchor="start" x="335.5" y="-882.3" font-family="Times,serif" font-size="14.00"> v4 = v3</text>
</g>
<!-- Node0x242f71b0&#45;&gt;Node0x37c0ee70 -->
<g id="edge4" class="edge"><title>Node0x242f71b0&#45;&gt;Node0x37c0ee70</title>
<path fill="none" stroke="black" d="M272.829,-979.312C290.861,-966.365 315.55,-948.637 336.738,-933.423"/>
<polygon fill="black" stroke="black" points="338.886,-936.19 344.967,-927.514 334.803,-930.504 338.886,-936.19"/>
<text text-anchor="middle" x="345.5" y="-949.8" font-family="Times,serif" font-size="14.00">v2 != 0</text>
</g>
<!-- Node0x12b61a90 -->
<g id="node6" class="node"><title>Node0x12b61a90</title>
<polygon fill="none" stroke="black" points="224.5,-23.5 224.5,-59.5 278.5,-59.5 278.5,-23.5 224.5,-23.5"/>
<text text-anchor="start" x="232.5" y="-37.8" font-family="Times,serif" font-size="14.00">exit:</text>
</g>
<!-- Node0x37c0d920&#45;&gt;Node0x12b61a90 -->
<g id="edge5" class="edge"><title>Node0x37c0d920&#45;&gt;Node0x12b61a90</title>
<path fill="none" stroke="black" d="M165.526,-787.34C163.115,-764.395 160.5,-733.136 160.5,-705.5 160.5,-705.5 160.5,-705.5 160.5,-115.5 160.5,-86.2261 189.507,-66.7381 214.768,-55.3173"/>
<polygon fill="black" stroke="black" points="216.349,-58.4489 224.197,-51.3316 213.623,-52.0012 216.349,-58.4489"/>
</g>
<!-- Node0x37c0e7b0 -->
<g id="node7" class="node"><title>Node0x37c0e7b0</title>
<polygon fill="none" stroke="black" points="274.5,-730.5 274.5,-768.5 506.5,-768.5 506.5,-730.5 274.5,-730.5"/>
<text text-anchor="start" x="282.5" y="-753.3" font-family="Times,serif" font-size="14.00">0x8868e70:</text>
<text text-anchor="start" x="282.5" y="-738.3" font-family="Times,serif" font-size="14.00"> if ((v3 &amp; 1073741824) == 0):</text>
</g>
<!-- Node0x37c0ee70&#45;&gt;Node0x37c0e7b0 -->
<g id="edge6" class="edge"><title>Node0x37c0ee70&#45;&gt;Node0x37c0e7b0</title>
<path fill="none" stroke="black" d="M382.219,-874.3C383.994,-847.767 386.756,-806.473 388.596,-778.967"/>
<polygon fill="black" stroke="black" points="392.1,-779.02 389.275,-768.808 385.116,-778.552 392.1,-779.02"/>
</g>
<!-- Node0x39ecdc60 -->
<g id="node8" class="node"><title>Node0x39ecdc60</title>
<polygon fill="none" stroke="black" points="255.5,-595.5 255.5,-678.5 525.5,-678.5 525.5,-595.5 255.5,-595.5"/>
<text text-anchor="start" x="263.5" y="-663.3" font-family="Times,serif" font-size="14.00">0x22336820:</text>
<text text-anchor="start" x="263.5" y="-648.3" font-family="Times,serif" font-size="14.00"> v5 = IntToPtrCastExpr&lt;ptr&gt;(g30)</text>
<text text-anchor="start" x="263.5" y="-633.3" font-family="Times,serif" font-size="14.00"> g29 = (2 * v3)</text>
<text text-anchor="start" x="263.5" y="-618.3" font-family="Times,serif" font-size="14.00"> *(v5) = (*(v5) &#45; 1)</text>
<text text-anchor="start" x="263.5" y="-603.3" font-family="Times,serif" font-size="14.00"> v6 = g29</text>
</g>
<!-- Node0x37c0e7b0&#45;&gt;Node0x39ecdc60 -->
<g id="edge7" class="edge"><title>Node0x37c0e7b0&#45;&gt;Node0x39ecdc60</title>
<path fill="none" stroke="black" d="M390.5,-730.253C390.5,-718.898 390.5,-703.682 390.5,-688.887"/>
<polygon fill="black" stroke="black" points="394,-688.764 390.5,-678.764 387,-688.764 394,-688.764"/>
<text text-anchor="middle" x="481.5" y="-700.8" font-family="Times,serif" font-size="14.00">(v3 &amp; 1073741824) == 0</text>
</g>
<!-- Node0x37c0ec00 -->
<g id="node9" class="node"><title>Node0x37c0ec00</title>
<polygon fill="none" stroke="black" points="457.5,-263.5 457.5,-346.5 597.5,-346.5 597.5,-263.5 457.5,-263.5"/>
<text text-anchor="start" x="465.5" y="-331.3" font-family="Times,serif" font-size="14.00">0x8869300:</text>
<text text-anchor="start" x="465.5" y="-316.3" font-family="Times,serif" font-size="14.00"> g6 = True</text>
<text text-anchor="start" x="465.5" y="-301.3" font-family="Times,serif" font-size="14.00"> g8 = False</text>
<text text-anchor="start" x="465.5" y="-286.3" font-family="Times,serif" font-size="14.00"> g7 = (g36 &lt; 0)</text>
<text text-anchor="start" x="465.5" y="-271.3" font-family="Times,serif" font-size="14.00"> g9 = (g36 == 0)</text>
</g>
<!-- Node0x37c0e7b0&#45;&gt;Node0x37c0ec00 -->
<g id="edge8" class="edge"><title>Node0x37c0e7b0&#45;&gt;Node0x37c0ec00</title>
<path fill="none" stroke="black" d="M506.808,-733.96C536.981,-728.375 564.404,-721.102 576.5,-712 606.042,-689.77 614.5,-674.972 614.5,-638 614.5,-638 614.5,-638 614.5,-425 614.5,-398.566 600.337,-374.091 583.44,-354.297"/>
<polygon fill="black" stroke="black" points="585.878,-351.773 576.594,-346.668 580.668,-356.448 585.878,-351.773"/>
<text text-anchor="middle" x="702.5" y="-534.8" font-family="Times,serif" font-size="14.00">(v3 &amp; 1073741824) != 0</text>
</g>
<!-- Node0x37c0dc00 -->
<g id="node10" class="node"><title>Node0x37c0dc00</title>
<polygon fill="none" stroke="black" points="260.5,-519.5 260.5,-557.5 520.5,-557.5 520.5,-519.5 260.5,-519.5"/>
<text text-anchor="start" x="268.5" y="-542.3" font-family="Times,serif" font-size="14.00">0x8868cd0:</text>
<text text-anchor="start" x="268.5" y="-527.3" font-family="Times,serif" font-size="14.00"> while ((v6 &amp; 1073741824) == 0):</text>
</g>
<!-- Node0x39ecdc60&#45;&gt;Node0x37c0dc00 -->
<g id="edge9" class="edge"><title>Node0x39ecdc60&#45;&gt;Node0x37c0dc00</title>
<path fill="none" stroke="black" d="M390.5,-595.355C390.5,-586.083 390.5,-576.427 390.5,-567.803"/>
<polygon fill="black" stroke="black" points="394,-567.538 390.5,-557.538 387,-567.538 394,-567.538"/>
</g>
<!-- Node0x37c0e3f0 -->
<g id="node11" class="node"><title>Node0x37c0e3f0</title>
<polygon fill="none" stroke="black" points="337,-187.5 337,-225.5 444,-225.5 444,-187.5 337,-187.5"/>
<text text-anchor="start" x="345" y="-210.3" font-family="Times,serif" font-size="14.00">0x886a020:</text>
<text text-anchor="start" x="345" y="-195.3" font-family="Times,serif" font-size="14.00"> if (g36 &lt; 0):</text>
</g>
<!-- Node0x37c0ec00&#45;&gt;Node0x37c0e3f0 -->
<g id="edge10" class="edge"><title>Node0x37c0ec00&#45;&gt;Node0x37c0e3f0</title>
<path fill="none" stroke="black" d="M469.797,-263.355C454.294,-252.435 438.034,-240.982 424.302,-231.309"/>
<polygon fill="black" stroke="black" points="426.299,-228.435 416.108,-225.538 422.268,-234.158 426.299,-228.435"/>
</g>
<!-- Node0x37c0f590 -->
<g id="node12" class="node"><title>Node0x37c0f590</title>
<polygon fill="none" stroke="black" points="188.5,-384.5 188.5,-467.5 458.5,-467.5 458.5,-384.5 188.5,-384.5"/>
<text text-anchor="start" x="196.5" y="-452.3" font-family="Times,serif" font-size="14.00">0x337c5bc0:</text>
<text text-anchor="start" x="196.5" y="-437.3" font-family="Times,serif" font-size="14.00"> v5 = IntToPtrCastExpr&lt;ptr&gt;(g30)</text>
<text text-anchor="start" x="196.5" y="-422.3" font-family="Times,serif" font-size="14.00"> g29 = (2 * v6)</text>
<text text-anchor="start" x="196.5" y="-407.3" font-family="Times,serif" font-size="14.00"> *(v5) = (*(v5) &#45; 1)</text>
<text text-anchor="start" x="196.5" y="-392.3" font-family="Times,serif" font-size="14.00"> v6 = g29</text>
</g>
<!-- Node0x37c0dc00&#45;&gt;Node0x37c0f590 -->
<g id="edge11" class="edge"><title>Node0x37c0dc00&#45;&gt;Node0x37c0f590</title>
<path fill="none" stroke="black" d="M260.376,-526.061C230.287,-520.641 204.206,-512.68 194.5,-501 186.623,-491.521 186.169,-483.004 190.643,-475.42"/>
<polygon fill="black" stroke="black" points="193.515,-477.445 197.314,-467.555 188.177,-472.917 193.515,-477.445"/>
<text text-anchor="middle" x="285.5" y="-489.8" font-family="Times,serif" font-size="14.00">(v6 &amp; 1073741824) == 0</text>
</g>
<!-- Node0x242fa800 -->
<g id="node13" class="node"><title>Node0x242fa800</title>
<polygon fill="none" stroke="black" points="477,-407 477,-445 578,-445 578,-407 477,-407"/>
<text text-anchor="start" x="485" y="-429.8" font-family="Times,serif" font-size="14.00">0x8868a10:</text>
<text text-anchor="start" x="485" y="-414.8" font-family="Times,serif" font-size="14.00"> v4 = v6</text>
</g>
<!-- Node0x37c0dc00&#45;&gt;Node0x242fa800 -->
<g id="edge12" class="edge"><title>Node0x37c0dc00&#45;&gt;Node0x242fa800</title>
<path fill="none" stroke="black" d="M399.038,-519.307C404.911,-508.433 413.61,-495.022 424.5,-486 440.454,-472.782 449.298,-477.895 467.5,-468 476.728,-462.983 486.299,-456.894 495.014,-450.959"/>
<polygon fill="black" stroke="black" points="497.192,-453.708 503.4,-445.122 493.193,-447.963 497.192,-453.708"/>
<text text-anchor="middle" x="512.5" y="-489.8" font-family="Times,serif" font-size="14.00">(v6 &amp; 1073741824) != 0</text>
</g>
<!-- Node0x37c0e3f0&#45;&gt;Node0x12b61a90 -->
<g id="edge14" class="edge"><title>Node0x37c0e3f0&#45;&gt;Node0x12b61a90</title>
<path fill="none" stroke="black" d="M336.823,-190.312C309.402,-179.676 278.171,-162.513 260.5,-136 247.543,-116.561 246.269,-89.5992 247.66,-69.6211"/>
<polygon fill="black" stroke="black" points="251.149,-69.8979 248.616,-59.6105 244.181,-69.2325 251.149,-69.8979"/>
<text text-anchor="middle" x="295.5" y="-112.8" font-family="Times,serif" font-size="14.00">g36 &gt;= 0</text>
</g>
<!-- Node0x242fa9c0 -->
<g id="node14" class="node"><title>Node0x242fa9c0</title>
<polygon fill="none" stroke="black" points="340,-97.5 340,-135.5 441,-135.5 441,-97.5 340,-97.5"/>
<text text-anchor="start" x="348" y="-120.3" font-family="Times,serif" font-size="14.00">0x8869a60:</text>
<text text-anchor="start" x="348" y="-105.3" font-family="Times,serif" font-size="14.00"> g29 = &#45;(v4)</text>
</g>
<!-- Node0x37c0e3f0&#45;&gt;Node0x242fa9c0 -->
<g id="edge13" class="edge"><title>Node0x37c0e3f0&#45;&gt;Node0x242fa9c0</title>
<path fill="none" stroke="black" d="M390.5,-187.266C390.5,-175.349 390.5,-159.538 390.5,-145.982"/>
<polygon fill="black" stroke="black" points="394,-145.71 390.5,-135.71 387,-145.71 394,-145.71"/>
<text text-anchor="middle" x="419.5" y="-157.8" font-family="Times,serif" font-size="14.00">g36 &lt; 0</text>
</g>
<!-- Node0x37c0f590&#45;&gt;Node0x37c0dc00 -->
<g id="edge15" class="edge"><title>Node0x37c0f590&#45;&gt;Node0x37c0dc00</title>
<path fill="none" stroke="black" d="M364.305,-467.707C368.856,-473.544 373.076,-479.712 376.5,-486 380.382,-493.129 383.247,-501.41 385.336,-509.22"/>
<polygon fill="black" stroke="black" points="381.958,-510.146 387.655,-519.078 388.772,-508.543 381.958,-510.146"/>
</g>
<!-- Node0x242fa800&#45;&gt;Node0x37c0ec00 -->
<g id="edge16" class="edge"><title>Node0x242fa800&#45;&gt;Node0x37c0ec00</title>
<path fill="none" stroke="black" d="M527.5,-406.926C527.5,-393.61 527.5,-374.798 527.5,-357.018"/>
<polygon fill="black" stroke="black" points="531,-356.718 527.5,-346.718 524,-356.718 531,-356.718"/>
</g>
<!-- Node0x242fa9c0&#45;&gt;Node0x12b61a90 -->
<g id="edge17" class="edge"><title>Node0x242fa9c0&#45;&gt;Node0x12b61a90</title>
<path fill="none" stroke="black" d="M356.14,-97.4551C335.271,-86.495 308.665,-72.5221 287.504,-61.4088"/>
<polygon fill="black" stroke="black" points="288.985,-58.233 278.504,-56.682 285.73,-64.4303 288.985,-58.233"/>
</g>
</g>
</svg>
