<?xml version="1.0" encoding="UTF-8" standalone="no"?>
<!DOCTYPE svg PUBLIC "-//W3C//DTD SVG 1.1//EN"
 "http://www.w3.org/Graphics/SVG/1.1/DTD/svg11.dtd">
<!-- Generated by graphviz version 2.38.0 (20140413.2041)
 -->
<!-- Title: Control&#45;flow graph for function &#39;function_fc04()&#39;. Pages: 1 -->
<svg width="1542pt" height="2549pt"
 viewBox="0.00 0.00 1541.50 2549.00" xmlns="http://www.w3.org/2000/svg" xmlns:xlink="http://www.w3.org/1999/xlink">
<g id="graph0" class="graph" transform="scale(1 1) rotate(0) translate(4 2545)">
<title>Control&#45;flow graph for function &#39;function_fc04()&#39;.</title>
<polygon fill="white" stroke="none" points="-4,4 -4,-2545 1537.5,-2545 1537.5,4 -4,4"/>
<text text-anchor="middle" x="766.75" y="-7.8" font-family="Times,serif" font-size="14.00">Control&#45;flow graph for function &#39;function_fc04()&#39;.</text>
<!-- Node0x427a5560 -->
<g id="node1" class="node"><title>Node0x427a5560</title>
<polygon fill="none" stroke="black" points="260,-2504.5 260,-2540.5 319,-2540.5 319,-2504.5 260,-2504.5"/>
<text text-anchor="start" x="268" y="-2518.8" font-family="Times,serif" font-size="14.00">entry:</text>
</g>
<!-- Node0x427a36c0 -->
<g id="node2" class="node"><title>Node0x427a36c0</title>
<polygon fill="none" stroke="black" points="0,-2218.5 0,-2466.5 579,-2466.5 579,-2218.5 0,-2218.5"/>
<text text-anchor="start" x="8" y="-2451.3" font-family="Times,serif" font-size="14.00">0x4745bb10:</text>
<text text-anchor="start" x="8" y="-2436.3" font-family="Times,serif" font-size="14.00"> v1 = g29</text>
<text text-anchor="start" x="8" y="-2421.3" font-family="Times,serif" font-size="14.00"> v2 = *(IntToPtrCastExpr&lt;ptr&gt;((*(IntToPtrCastExpr&lt;ptr&gt;((v1 + 16))) + 23)))</text>
<text text-anchor="start" x="8" y="-2406.3" font-family="Times,serif" font-size="14.00"> g37 = v2</text>
<text text-anchor="start" x="8" y="-2391.3" font-family="Times,serif" font-size="14.00"> v3 = g38</text>
<text text-anchor="start" x="8" y="-2376.3" font-family="Times,serif" font-size="14.00"> v4 = g39</text>
<text text-anchor="start" x="8" y="-2361.3" font-family="Times,serif" font-size="14.00"> v5 = g40</text>
<text text-anchor="start" x="8" y="-2346.3" font-family="Times,serif" font-size="14.00"> v6 = g41</text>
<text text-anchor="start" x="8" y="-2331.3" font-family="Times,serif" font-size="14.00"> v7 = g32</text>
<text text-anchor="start" x="8" y="-2316.3" font-family="Times,serif" font-size="14.00"> v8 = g35</text>
<text text-anchor="start" x="8" y="-2301.3" font-family="Times,serif" font-size="14.00"> g6 = True</text>
<text text-anchor="start" x="8" y="-2286.3" font-family="Times,serif" font-size="14.00"> g9 = (v2 == 0)</text>
<text text-anchor="start" x="8" y="-2271.3" font-family="Times,serif" font-size="14.00"> g38 = v1</text>
<text text-anchor="start" x="8" y="-2256.3" font-family="Times,serif" font-size="14.00"> g40 = 165012</text>
<text text-anchor="start" x="8" y="-2241.3" font-family="Times,serif" font-size="14.00"> v9</text>
<text text-anchor="start" x="8" y="-2226.3" font-family="Times,serif" font-size="14.00"> v10</text>
</g>
<!-- Node0x427a5560&#45;&gt;Node0x427a36c0 -->
<g id="edge1" class="edge"><title>Node0x427a5560&#45;&gt;Node0x427a36c0</title>
<path fill="none" stroke="black" d="M289.5,-2504.43C289.5,-2496.97 289.5,-2487.49 289.5,-2476.89"/>
<polygon fill="black" stroke="black" points="293,-2476.85 289.5,-2466.85 286,-2476.85 293,-2476.85"/>
</g>
<!-- Node0x427a6a60 -->
<g id="node3" class="node"><title>Node0x427a6a60</title>
<polygon fill="none" stroke="black" points="237.5,-2142.5 237.5,-2180.5 341.5,-2180.5 341.5,-2142.5 237.5,-2142.5"/>
<text text-anchor="start" x="245.5" y="-2165.3" font-family="Times,serif" font-size="14.00">0x78ddba0:</text>
<text text-anchor="start" x="245.5" y="-2150.3" font-family="Times,serif" font-size="14.00"> if (v2 != 0):</text>
</g>
<!-- Node0x427a36c0&#45;&gt;Node0x427a6a60 -->
<g id="edge2" class="edge"><title>Node0x427a36c0&#45;&gt;Node0x427a6a60</title>
<path fill="none" stroke="black" d="M289.5,-2218.16C289.5,-2208.16 289.5,-2198.83 289.5,-2190.77"/>
<polygon fill="black" stroke="black" points="293,-2190.63 289.5,-2180.63 286,-2190.63 293,-2190.63"/>
</g>
<!-- Node0x3364ad90 -->
<g id="node4" class="node"><title>Node0x3364ad90</title>
<polygon fill="none" stroke="black" points="261,-2007.5 261,-2090.5 598,-2090.5 598,-2007.5 261,-2007.5"/>
<text text-anchor="start" x="269" y="-2075.3" font-family="Times,serif" font-size="14.00">0x10570120:</text>
<text text-anchor="start" x="269" y="-2060.3" font-family="Times,serif" font-size="14.00"> v11 = *(IntToPtrCastExpr&lt;ptr&gt;((v1 + 24)))</text>
<text text-anchor="start" x="269" y="-2045.3" font-family="Times,serif" font-size="14.00"> g41 = v11</text>
<text text-anchor="start" x="269" y="-2030.3" font-family="Times,serif" font-size="14.00"> g6 = (v11 != 0)</text>
<text text-anchor="start" x="269" y="-2015.3" font-family="Times,serif" font-size="14.00"> g9 = (v11 == 1)</text>
</g>
<!-- Node0x427a6a60&#45;&gt;Node0x3364ad90 -->
<g id="edge3" class="edge"><title>Node0x427a6a60&#45;&gt;Node0x3364ad90</title>
<path fill="none" stroke="black" d="M312.618,-2142.25C328.319,-2129.86 349.844,-2112.87 370.145,-2096.85"/>
<polygon fill="black" stroke="black" points="372.468,-2099.47 378.149,-2090.53 368.131,-2093.98 372.468,-2099.47"/>
<text text-anchor="middle" x="378.5" y="-2112.8" font-family="Times,serif" font-size="14.00">v2 != 0</text>
</g>
<!-- Node0x427a6cc0 -->
<g id="node5" class="node"><title>Node0x427a6cc0</title>
<polygon fill="none" stroke="black" points="78.5,-969.5 78.5,-1142.5 562.5,-1142.5 562.5,-969.5 78.5,-969.5"/>
<text text-anchor="start" x="86.5" y="-1127.3" font-family="Times,serif" font-size="14.00">0x78ddda0:</text>
<text text-anchor="start" x="86.5" y="-1112.3" font-family="Times,serif" font-size="14.00"> g29 = 1</text>
<text text-anchor="start" x="86.5" y="-1097.3" font-family="Times,serif" font-size="14.00"> v9 = g34</text>
<text text-anchor="start" x="86.5" y="-1082.3" font-family="Times,serif" font-size="14.00"> g38 = *(IntToPtrCastExpr&lt;ptr&gt;(v9))</text>
<text text-anchor="start" x="86.5" y="-1067.3" font-family="Times,serif" font-size="14.00"> g39 = *(IntToPtrCastExpr&lt;ptr&gt;((v9 + 4)))</text>
<text text-anchor="start" x="86.5" y="-1052.3" font-family="Times,serif" font-size="14.00"> g40 = *(IntToPtrCastExpr&lt;ptr&gt;((v9 + 8)))</text>
<text text-anchor="start" x="86.5" y="-1037.3" font-family="Times,serif" font-size="14.00"> g41 = *(IntToPtrCastExpr&lt;ptr&gt;((v9 + 12)))</text>
<text text-anchor="start" x="86.5" y="-1022.3" font-family="Times,serif" font-size="14.00"> g32 = *(IntToPtrCastExpr&lt;ptr&gt;((v9 + 16)))</text>
<text text-anchor="start" x="86.5" y="-1007.3" font-family="Times,serif" font-size="14.00"> g34 = *(IntToPtrCastExpr&lt;ptr&gt;((v9 + 20)))</text>
<text text-anchor="start" x="86.5" y="-992.3" font-family="Times,serif" font-size="14.00"> IntToPtrCastExpr&lt;ptr&gt;(*(IntToPtrCastExpr&lt;ptr&gt;((v9 + 24))))()</text>
<text text-anchor="start" x="86.5" y="-977.3" font-family="Times,serif" font-size="14.00"> v10 = g42</text>
</g>
<!-- Node0x427a6a60&#45;&gt;Node0x427a6cc0 -->
<g id="edge4" class="edge"><title>Node0x427a6a60&#45;&gt;Node0x427a6cc0</title>
<path fill="none" stroke="black" d="M273.319,-2142.42C256.467,-2121.66 232.5,-2085.83 232.5,-2050 232.5,-2050 232.5,-2050 232.5,-1288.5 232.5,-1241.53 248.523,-1192.49 266.895,-1151.71"/>
<polygon fill="black" stroke="black" points="270.086,-1153.14 271.098,-1142.6 263.73,-1150.21 270.086,-1153.14"/>
<text text-anchor="middle" x="262.5" y="-1690.8" font-family="Times,serif" font-size="14.00">v2 == 0</text>
</g>
<!-- Node0x427a74a0 -->
<g id="node6" class="node"><title>Node0x427a74a0</title>
<polygon fill="none" stroke="black" points="370,-1931.5 370,-1969.5 489,-1969.5 489,-1931.5 370,-1931.5"/>
<text text-anchor="start" x="378" y="-1954.3" font-family="Times,serif" font-size="14.00">0x78dda00:</text>
<text text-anchor="start" x="378" y="-1939.3" font-family="Times,serif" font-size="14.00"> if (v11 == 1):</text>
</g>
<!-- Node0x3364ad90&#45;&gt;Node0x427a74a0 -->
<g id="edge5" class="edge"><title>Node0x3364ad90&#45;&gt;Node0x427a74a0</title>
<path fill="none" stroke="black" d="M429.5,-2007.35C429.5,-1998.08 429.5,-1988.43 429.5,-1979.8"/>
<polygon fill="black" stroke="black" points="433,-1979.54 429.5,-1969.54 426,-1979.54 433,-1979.54"/>
</g>
<!-- Node0x427a7350 -->
<g id="node7" class="node"><title>Node0x427a7350</title>
<polygon fill="none" stroke="black" points="274,-187.5 274,-225.5 367,-225.5 367,-187.5 274,-187.5"/>
<text text-anchor="start" x="282" y="-210.3" font-family="Times,serif" font-size="14.00">0x78e0ff0:</text>
<text text-anchor="start" x="282" y="-195.3" font-family="Times,serif" font-size="14.00"> if g9:</text>
</g>
<!-- Node0x427a6cc0&#45;&gt;Node0x427a7350 -->
<g id="edge6" class="edge"><title>Node0x427a6cc0&#45;&gt;Node0x427a7350</title>
<path fill="none" stroke="black" d="M320.5,-969.313C320.5,-906.408 320.5,-818.891 320.5,-742 320.5,-742 320.5,-742 320.5,-295.5 320.5,-275.699 320.5,-253.391 320.5,-236.19"/>
<polygon fill="black" stroke="black" points="324,-235.702 320.5,-225.702 317,-235.702 324,-235.702"/>
</g>
<!-- Node0x427a74a0&#45;&gt;Node0x427a6cc0 -->
<g id="edge8" class="edge"><title>Node0x427a74a0&#45;&gt;Node0x427a6cc0</title>
<path fill="none" stroke="black" d="M400.29,-1931.34C368.003,-1908.75 320.5,-1866.95 320.5,-1816.5 320.5,-1816.5 320.5,-1816.5 320.5,-1288.5 320.5,-1243.94 320.5,-1194.57 320.5,-1152.9"/>
<polygon fill="black" stroke="black" points="324,-1152.75 320.5,-1142.75 317,-1152.75 324,-1152.75"/>
<text text-anchor="middle" x="352" y="-1578.3" font-family="Times,serif" font-size="14.00">v11 != 1</text>
</g>
<!-- Node0x427a7870 -->
<g id="node8" class="node"><title>Node0x427a7870</title>
<polygon fill="none" stroke="black" points="356,-1751.5 356,-1879.5 675,-1879.5 675,-1751.5 356,-1751.5"/>
<text text-anchor="start" x="364" y="-1864.3" font-family="Times,serif" font-size="14.00">0x3dfe88f0:</text>
<text text-anchor="start" x="364" y="-1849.3" font-family="Times,serif" font-size="14.00"> v12 = IntToPtrCastExpr&lt;ptr&gt;((v1 + 28))</text>
<text text-anchor="start" x="364" y="-1834.3" font-family="Times,serif" font-size="14.00"> v13 = *(v12)</text>
<text text-anchor="start" x="364" y="-1819.3" font-family="Times,serif" font-size="14.00"> v14 = v13</text>
<text text-anchor="start" x="364" y="-1804.3" font-family="Times,serif" font-size="14.00"> g37 = v14</text>
<text text-anchor="start" x="364" y="-1789.3" font-family="Times,serif" font-size="14.00"> g6 = True</text>
<text text-anchor="start" x="364" y="-1774.3" font-family="Times,serif" font-size="14.00"> g9 = (v13 == 0)</text>
<text text-anchor="start" x="364" y="-1759.3" font-family="Times,serif" font-size="14.00"> v15</text>
</g>
<!-- Node0x427a74a0&#45;&gt;Node0x427a7870 -->
<g id="edge7" class="edge"><title>Node0x427a74a0&#45;&gt;Node0x427a7870</title>
<path fill="none" stroke="black" d="M441.278,-1931.29C448.721,-1919.78 458.872,-1904.08 469.276,-1887.99"/>
<polygon fill="black" stroke="black" points="472.235,-1889.85 474.726,-1879.56 466.357,-1886.05 472.235,-1889.85"/>
<text text-anchor="middle" x="496" y="-1901.8" font-family="Times,serif" font-size="14.00">v11 == 1</text>
</g>
<!-- Node0x427a7770 -->
<g id="node9" class="node"><title>Node0x427a7770</title>
<polygon fill="none" stroke="black" points="388.5,-97.5 388.5,-135.5 734.5,-135.5 734.5,-97.5 388.5,-97.5"/>
<text text-anchor="start" x="396.5" y="-120.3" font-family="Times,serif" font-size="14.00">0x78e0e30:</text>
<text text-anchor="start" x="396.5" y="-105.3" font-family="Times,serif" font-size="14.00"> g42 = (g30 &amp; ((v10 / 65536) | (65536 * v10)))</text>
</g>
<!-- Node0x427a7350&#45;&gt;Node0x427a7770 -->
<g id="edge9" class="edge"><title>Node0x427a7350&#45;&gt;Node0x427a7770</title>
<path fill="none" stroke="black" d="M367.253,-188.428C405.858,-174.332 460.873,-154.244 502.504,-139.042"/>
<polygon fill="black" stroke="black" points="503.783,-142.301 511.975,-135.584 501.382,-135.726 503.783,-142.301"/>
<text text-anchor="middle" x="464" y="-157.8" font-family="Times,serif" font-size="14.00">g9</text>
</g>
<!-- Node0x427a51e0 -->
<g id="node10" class="node"><title>Node0x427a51e0</title>
<polygon fill="none" stroke="black" points="534.5,-23.5 534.5,-59.5 588.5,-59.5 588.5,-23.5 534.5,-23.5"/>
<text text-anchor="start" x="542.5" y="-37.8" font-family="Times,serif" font-size="14.00">exit:</text>
</g>
<!-- Node0x427a7350&#45;&gt;Node0x427a51e0 -->
<g id="edge10" class="edge"><title>Node0x427a7350&#45;&gt;Node0x427a51e0</title>
<path fill="none" stroke="black" d="M314.728,-187.471C308.406,-163.892 301.704,-122.584 322.5,-97 347.57,-66.1574 463.29,-51.3085 524.032,-45.5338"/>
<polygon fill="black" stroke="black" points="524.708,-48.9867 534.347,-44.5902 524.07,-42.0158 524.708,-48.9867"/>
<text text-anchor="middle" x="351" y="-112.8" font-family="Times,serif" font-size="14.00">not (g9)</text>
</g>
<!-- Node0x427a7cd0 -->
<g id="node11" class="node"><title>Node0x427a7cd0</title>
<polygon fill="none" stroke="black" points="499,-1675.5 499,-1713.5 612,-1713.5 612,-1675.5 499,-1675.5"/>
<text text-anchor="start" x="507" y="-1698.3" font-family="Times,serif" font-size="14.00">0x78dacf0:</text>
<text text-anchor="start" x="507" y="-1683.3" font-family="Times,serif" font-size="14.00"> if (v13 != 0):</text>
</g>
<!-- Node0x427a7870&#45;&gt;Node0x427a7cd0 -->
<g id="edge11" class="edge"><title>Node0x427a7870&#45;&gt;Node0x427a7cd0</title>
<path fill="none" stroke="black" d="M536.788,-1751.17C540.078,-1741.38 543.321,-1731.73 546.159,-1723.29"/>
<polygon fill="black" stroke="black" points="549.528,-1724.25 549.396,-1713.66 542.892,-1722.02 549.528,-1724.25"/>
</g>
<!-- Node0x427a7770&#45;&gt;Node0x427a51e0 -->
<g id="edge12" class="edge"><title>Node0x427a7770&#45;&gt;Node0x427a51e0</title>
<path fill="none" stroke="black" d="M561.5,-97.4551C561.5,-89.2008 561.5,-79.2377 561.5,-70.0742"/>
<polygon fill="black" stroke="black" points="565,-69.8347 561.5,-59.8347 558,-69.8347 565,-69.8347"/>
</g>
<!-- Node0x427a8620 -->
<g id="node12" class="node"><title>Node0x427a8620</title>
<polygon fill="none" stroke="black" points="583.5,-1540.5 583.5,-1623.5 929.5,-1623.5 929.5,-1540.5 583.5,-1540.5"/>
<text text-anchor="start" x="591.5" y="-1608.3" font-family="Times,serif" font-size="14.00">0x14272be0:</text>
<text text-anchor="start" x="591.5" y="-1593.3" font-family="Times,serif" font-size="14.00"> v16 = *(IntToPtrCastExpr&lt;ptr&gt;((v1 + 160)))</text>
<text text-anchor="start" x="591.5" y="-1578.3" font-family="Times,serif" font-size="14.00"> g39 = v16</text>
<text text-anchor="start" x="591.5" y="-1563.3" font-family="Times,serif" font-size="14.00"> g6 = (v16 &gt; 14)</text>
<text text-anchor="start" x="591.5" y="-1548.3" font-family="Times,serif" font-size="14.00"> g9 = (v16 == 15)</text>
</g>
<!-- Node0x427a7cd0&#45;&gt;Node0x427a8620 -->
<g id="edge13" class="edge"><title>Node0x427a7cd0&#45;&gt;Node0x427a8620</title>
<path fill="none" stroke="black" d="M588.691,-1675.25C611.931,-1662.48 644.059,-1644.81 673.986,-1628.36"/>
<polygon fill="black" stroke="black" points="675.697,-1631.42 682.774,-1623.53 672.325,-1625.28 675.697,-1631.42"/>
<text text-anchor="middle" x="675" y="-1645.8" font-family="Times,serif" font-size="14.00">v13 != 0</text>
</g>
<!-- Node0x427a7f60 -->
<g id="node13" class="node"><title>Node0x427a7f60</title>
<polygon fill="none" stroke="black" points="349,-1210.5 349,-1368.5 842,-1368.5 842,-1210.5 349,-1210.5"/>
<text text-anchor="start" x="357" y="-1353.3" font-family="Times,serif" font-size="14.00">0x78daef0:</text>
<text text-anchor="start" x="357" y="-1338.3" font-family="Times,serif" font-size="14.00"> g29 = 0</text>
<text text-anchor="start" x="357" y="-1323.3" font-family="Times,serif" font-size="14.00"> v15 = g34</text>
<text text-anchor="start" x="357" y="-1308.3" font-family="Times,serif" font-size="14.00"> g38 = *(IntToPtrCastExpr&lt;ptr&gt;(v15))</text>
<text text-anchor="start" x="357" y="-1293.3" font-family="Times,serif" font-size="14.00"> g39 = *(IntToPtrCastExpr&lt;ptr&gt;((v15 + 4)))</text>
<text text-anchor="start" x="357" y="-1278.3" font-family="Times,serif" font-size="14.00"> g40 = *(IntToPtrCastExpr&lt;ptr&gt;((v15 + 8)))</text>
<text text-anchor="start" x="357" y="-1263.3" font-family="Times,serif" font-size="14.00"> g41 = *(IntToPtrCastExpr&lt;ptr&gt;((v15 + 12)))</text>
<text text-anchor="start" x="357" y="-1248.3" font-family="Times,serif" font-size="14.00"> g32 = *(IntToPtrCastExpr&lt;ptr&gt;((v15 + 16)))</text>
<text text-anchor="start" x="357" y="-1233.3" font-family="Times,serif" font-size="14.00"> g34 = *(IntToPtrCastExpr&lt;ptr&gt;((v15 + 20)))</text>
<text text-anchor="start" x="357" y="-1218.3" font-family="Times,serif" font-size="14.00"> IntToPtrCastExpr&lt;ptr&gt;(*(IntToPtrCastExpr&lt;ptr&gt;((v15 + 24))))()</text>
</g>
<!-- Node0x427a7cd0&#45;&gt;Node0x427a7f60 -->
<g id="edge14" class="edge"><title>Node0x427a7cd0&#45;&gt;Node0x427a7f60</title>
<path fill="none" stroke="black" d="M557.296,-1675.4C562.384,-1624.15 577.142,-1475.45 586.756,-1378.6"/>
<polygon fill="black" stroke="black" points="590.252,-1378.81 587.757,-1368.52 583.286,-1378.12 590.252,-1378.81"/>
<text text-anchor="middle" x="608" y="-1510.8" font-family="Times,serif" font-size="14.00">v13 == 0</text>
</g>
<!-- Node0x427a8880 -->
<g id="node14" class="node"><title>Node0x427a8880</title>
<polygon fill="none" stroke="black" points="692.5,-1450.5 692.5,-1488.5 820.5,-1488.5 820.5,-1450.5 692.5,-1450.5"/>
<text text-anchor="start" x="700.5" y="-1473.3" font-family="Times,serif" font-size="14.00">0x78dab20:</text>
<text text-anchor="start" x="700.5" y="-1458.3" font-family="Times,serif" font-size="14.00"> if (v16 &lt;= 15):</text>
</g>
<!-- Node0x427a8620&#45;&gt;Node0x427a8880 -->
<g id="edge15" class="edge"><title>Node0x427a8620&#45;&gt;Node0x427a8880</title>
<path fill="none" stroke="black" d="M756.5,-1540.48C756.5,-1526.76 756.5,-1511.73 756.5,-1499.13"/>
<polygon fill="black" stroke="black" points="760,-1498.78 756.5,-1488.78 753,-1498.78 760,-1498.78"/>
</g>
<!-- Node0x427a7f60&#45;&gt;Node0x427a6cc0 -->
<g id="edge16" class="edge"><title>Node0x427a7f60&#45;&gt;Node0x427a6cc0</title>
<path fill="none" stroke="black" d="M502.781,-1210.45C479.425,-1190.79 454.133,-1169.49 430.038,-1149.21"/>
<polygon fill="black" stroke="black" points="432.165,-1146.43 422.26,-1142.66 427.657,-1151.78 432.165,-1146.43"/>
</g>
<!-- Node0x427a8880&#45;&gt;Node0x427a7f60 -->
<g id="edge18" class="edge"><title>Node0x427a8880&#45;&gt;Node0x427a7f60</title>
<path fill="none" stroke="black" d="M740.176,-1450.45C724.105,-1432.68 698.349,-1404.21 672.992,-1376.17"/>
<polygon fill="black" stroke="black" points="675.515,-1373.75 666.211,-1368.68 670.324,-1378.44 675.515,-1373.75"/>
<text text-anchor="middle" x="754.5" y="-1420.8" font-family="Times,serif" font-size="14.00">v16 &gt; 15</text>
</g>
<!-- Node0x427a8b20 -->
<g id="node15" class="node"><title>Node0x427a8b20</title>
<polygon fill="none" stroke="black" points="860,-1180.5 860,-1398.5 1429,-1398.5 1429,-1180.5 860,-1180.5"/>
<text text-anchor="start" x="868" y="-1383.3" font-family="Times,serif" font-size="14.00">0x164cfa50:</text>
<text text-anchor="start" x="868" y="-1368.3" font-family="Times,serif" font-size="14.00"> v17 = (v14 &#45; 1)</text>
<text text-anchor="start" x="868" y="-1353.3" font-family="Times,serif" font-size="14.00"> g37 = v17</text>
<text text-anchor="start" x="868" y="-1338.3" font-family="Times,serif" font-size="14.00"> *(v12) = TruncCastExpr&lt;int8&gt;(v17)</text>
<text text-anchor="start" x="868" y="-1323.3" font-family="Times,serif" font-size="14.00"> function_3508()</text>
<text text-anchor="start" x="868" y="-1308.3" font-family="Times,serif" font-size="14.00"> *(IntToPtrCastExpr&lt;ptr&gt;((g38 + 160))) = TruncCastExpr&lt;int8&gt;((g39 + 1))</text>
<text text-anchor="start" x="868" y="-1293.3" font-family="Times,serif" font-size="14.00"> v18 = g27</text>
<text text-anchor="start" x="868" y="-1278.3" font-family="Times,serif" font-size="14.00"> g36 = v18</text>
<text text-anchor="start" x="868" y="-1263.3" font-family="Times,serif" font-size="14.00"> v19 = (g38 + (8 * g39))</text>
<text text-anchor="start" x="868" y="-1248.3" font-family="Times,serif" font-size="14.00"> g37 = v19</text>
<text text-anchor="start" x="868" y="-1233.3" font-family="Times,serif" font-size="14.00"> g6 = True</text>
<text text-anchor="start" x="868" y="-1218.3" font-family="Times,serif" font-size="14.00"> g9 = (v18 == 0)</text>
<text text-anchor="start" x="868" y="-1203.3" font-family="Times,serif" font-size="14.00"> *(IntToPtrCastExpr&lt;ptr&gt;((v19 + 32))) = g29</text>
<text text-anchor="start" x="868" y="-1188.3" font-family="Times,serif" font-size="14.00"> *(IntToPtrCastExpr&lt;ptr&gt;((v19 + 36))) = g30</text>
</g>
<!-- Node0x427a8880&#45;&gt;Node0x427a8b20 -->
<g id="edge17" class="edge"><title>Node0x427a8880&#45;&gt;Node0x427a8b20</title>
<path fill="none" stroke="black" d="M795.839,-1450.45C822.168,-1438.37 859.283,-1421.35 899.55,-1402.87"/>
<polygon fill="black" stroke="black" points="901.107,-1406.01 908.736,-1398.66 898.188,-1399.65 901.107,-1406.01"/>
<text text-anchor="middle" x="899.5" y="-1420.8" font-family="Times,serif" font-size="14.00">v16 &lt;= 15</text>
</g>
<!-- Node0x427a91e0 -->
<g id="node16" class="node"><title>Node0x427a91e0</title>
<polygon fill="none" stroke="black" points="1088,-1037 1088,-1075 1201,-1075 1201,-1037 1088,-1037"/>
<text text-anchor="start" x="1096" y="-1059.8" font-family="Times,serif" font-size="14.00">0x78d67a0:</text>
<text text-anchor="start" x="1096" y="-1044.8" font-family="Times,serif" font-size="14.00"> if (v18 != 0):</text>
</g>
<!-- Node0x427a8b20&#45;&gt;Node0x427a91e0 -->
<g id="edge19" class="edge"><title>Node0x427a8b20&#45;&gt;Node0x427a91e0</title>
<path fill="none" stroke="black" d="M1144.5,-1180.21C1144.5,-1145.1 1144.5,-1109.08 1144.5,-1085.12"/>
<polygon fill="black" stroke="black" points="1148,-1085.01 1144.5,-1075.01 1141,-1085.01 1148,-1085.01"/>
</g>
<!-- Node0x427a9bd0 -->
<g id="node17" class="node"><title>Node0x427a9bd0</title>
<polygon fill="none" stroke="black" points="1021.5,-564.5 1021.5,-917.5 1533.5,-917.5 1533.5,-564.5 1021.5,-564.5"/>
<text text-anchor="start" x="1029.5" y="-902.3" font-family="Times,serif" font-size="14.00">0x78d1910:</text>
<text text-anchor="start" x="1029.5" y="-887.3" font-family="Times,serif" font-size="14.00"> g30 = ExtCastExpr&lt;int32&gt;(*(IntToPtrCastExpr&lt;ptr&gt;((g38 + 28))))</text>
<text text-anchor="start" x="1029.5" y="-872.3" font-family="Times,serif" font-size="14.00"> g29 = (g40 &#45; 8792)</text>
<text text-anchor="start" x="1029.5" y="-857.3" font-family="Times,serif" font-size="14.00"> g35 = 64652</text>
<text text-anchor="start" x="1029.5" y="-842.3" font-family="Times,serif" font-size="14.00"> IntToPtrCastExpr&lt;ptr&gt;(g36)()</text>
<text text-anchor="start" x="1029.5" y="-827.3" font-family="Times,serif" font-size="14.00"> g29 = g41</text>
<text text-anchor="start" x="1029.5" y="-812.3" font-family="Times,serif" font-size="14.00"> g38 = v3</text>
<text text-anchor="start" x="1029.5" y="-797.3" font-family="Times,serif" font-size="14.00"> g39 = v4</text>
<text text-anchor="start" x="1029.5" y="-782.3" font-family="Times,serif" font-size="14.00"> g40 = v5</text>
<text text-anchor="start" x="1029.5" y="-767.3" font-family="Times,serif" font-size="14.00"> g41 = v6</text>
<text text-anchor="start" x="1029.5" y="-752.3" font-family="Times,serif" font-size="14.00"> g32 = v7</text>
<text text-anchor="start" x="1029.5" y="-737.3" font-family="Times,serif" font-size="14.00"> v20</text>
<text text-anchor="start" x="1029.5" y="-722.3" font-family="Times,serif" font-size="14.00"> g34 = v20</text>
<text text-anchor="start" x="1029.5" y="-707.3" font-family="Times,serif" font-size="14.00"> IntToPtrCastExpr&lt;ptr&gt;(v8)()</text>
<text text-anchor="start" x="1029.5" y="-692.3" font-family="Times,serif" font-size="14.00"> g29 = 0</text>
<text text-anchor="start" x="1029.5" y="-677.3" font-family="Times,serif" font-size="14.00"> v15 = g34</text>
<text text-anchor="start" x="1029.5" y="-662.3" font-family="Times,serif" font-size="14.00"> g38 = *(IntToPtrCastExpr&lt;ptr&gt;(v15))</text>
<text text-anchor="start" x="1029.5" y="-647.3" font-family="Times,serif" font-size="14.00"> g39 = *(IntToPtrCastExpr&lt;ptr&gt;((v15 + 4)))</text>
<text text-anchor="start" x="1029.5" y="-632.3" font-family="Times,serif" font-size="14.00"> g40 = *(IntToPtrCastExpr&lt;ptr&gt;((v15 + 8)))</text>
<text text-anchor="start" x="1029.5" y="-617.3" font-family="Times,serif" font-size="14.00"> g41 = *(IntToPtrCastExpr&lt;ptr&gt;((v15 + 12)))</text>
<text text-anchor="start" x="1029.5" y="-602.3" font-family="Times,serif" font-size="14.00"> g32 = *(IntToPtrCastExpr&lt;ptr&gt;((v15 + 16)))</text>
<text text-anchor="start" x="1029.5" y="-587.3" font-family="Times,serif" font-size="14.00"> g34 = *(IntToPtrCastExpr&lt;ptr&gt;((v15 + 20)))</text>
<text text-anchor="start" x="1029.5" y="-572.3" font-family="Times,serif" font-size="14.00"> IntToPtrCastExpr&lt;ptr&gt;(*(IntToPtrCastExpr&lt;ptr&gt;((v15 + 24))))()</text>
</g>
<!-- Node0x427a91e0&#45;&gt;Node0x427a9bd0 -->
<g id="edge20" class="edge"><title>Node0x427a91e0&#45;&gt;Node0x427a9bd0</title>
<path fill="none" stroke="black" d="M1152.23,-1036.82C1161.95,-1013.93 1179.72,-972.122 1198.87,-927.041"/>
<polygon fill="black" stroke="black" points="1202.16,-928.255 1202.85,-917.683 1195.72,-925.517 1202.16,-928.255"/>
<text text-anchor="middle" x="1222" y="-939.8" font-family="Times,serif" font-size="14.00">v18 != 0</text>
</g>
<!-- Node0x427a9470 -->
<g id="node18" class="node"><title>Node0x427a9470</title>
<polygon fill="none" stroke="black" points="750.5,-353.5 750.5,-526.5 1234.5,-526.5 1234.5,-353.5 750.5,-353.5"/>
<text text-anchor="start" x="758.5" y="-511.3" font-family="Times,serif" font-size="14.00">0x78d6960:</text>
<text text-anchor="start" x="758.5" y="-496.3" font-family="Times,serif" font-size="14.00"> g29 = 1</text>
<text text-anchor="start" x="758.5" y="-481.3" font-family="Times,serif" font-size="14.00"> v9 = g34</text>
<text text-anchor="start" x="758.5" y="-466.3" font-family="Times,serif" font-size="14.00"> g38 = *(IntToPtrCastExpr&lt;ptr&gt;(v9))</text>
<text text-anchor="start" x="758.5" y="-451.3" font-family="Times,serif" font-size="14.00"> g39 = *(IntToPtrCastExpr&lt;ptr&gt;((v9 + 4)))</text>
<text text-anchor="start" x="758.5" y="-436.3" font-family="Times,serif" font-size="14.00"> g40 = *(IntToPtrCastExpr&lt;ptr&gt;((v9 + 8)))</text>
<text text-anchor="start" x="758.5" y="-421.3" font-family="Times,serif" font-size="14.00"> g41 = *(IntToPtrCastExpr&lt;ptr&gt;((v9 + 12)))</text>
<text text-anchor="start" x="758.5" y="-406.3" font-family="Times,serif" font-size="14.00"> g32 = *(IntToPtrCastExpr&lt;ptr&gt;((v9 + 16)))</text>
<text text-anchor="start" x="758.5" y="-391.3" font-family="Times,serif" font-size="14.00"> g34 = *(IntToPtrCastExpr&lt;ptr&gt;((v9 + 20)))</text>
<text text-anchor="start" x="758.5" y="-376.3" font-family="Times,serif" font-size="14.00"> IntToPtrCastExpr&lt;ptr&gt;(*(IntToPtrCastExpr&lt;ptr&gt;((v9 + 24))))()</text>
<text text-anchor="start" x="758.5" y="-361.3" font-family="Times,serif" font-size="14.00"> v10 = g42</text>
</g>
<!-- Node0x427a91e0&#45;&gt;Node0x427a9470 -->
<g id="edge21" class="edge"><title>Node0x427a91e0&#45;&gt;Node0x427a9470</title>
<path fill="none" stroke="black" d="M1094.22,-1036.85C1045.7,-1016.32 975.077,-977.737 943.5,-918 869.974,-778.904 913.855,-718.515 943.5,-564 945.252,-554.869 947.673,-545.552 950.509,-536.337"/>
<polygon fill="black" stroke="black" points="953.852,-537.375 953.604,-526.783 947.193,-535.218 953.852,-537.375"/>
<text text-anchor="middle" x="978" y="-737.3" font-family="Times,serif" font-size="14.00">v18 == 0</text>
</g>
<!-- Node0x427a9bd0&#45;&gt;Node0x427a9470 -->
<g id="edge22" class="edge"><title>Node0x427a9bd0&#45;&gt;Node0x427a9470</title>
<path fill="none" stroke="black" d="M1110.07,-564.341C1100.22,-554.009 1090.53,-543.849 1081.21,-534.066"/>
<polygon fill="black" stroke="black" points="1083.58,-531.486 1074.15,-526.663 1078.52,-536.316 1083.58,-531.486"/>
</g>
<!-- Node0x427a99d0 -->
<g id="node19" class="node"><title>Node0x427a99d0</title>
<polygon fill="none" stroke="black" points="942,-277.5 942,-315.5 1043,-315.5 1043,-277.5 942,-277.5"/>
<text text-anchor="start" x="950" y="-300.3" font-family="Times,serif" font-size="14.00">0x78da640:</text>
<text text-anchor="start" x="950" y="-285.3" font-family="Times,serif" font-size="14.00"> if g9:</text>
</g>
<!-- Node0x427a9470&#45;&gt;Node0x427a99d0 -->
<g id="edge23" class="edge"><title>Node0x427a9470&#45;&gt;Node0x427a99d0</title>
<path fill="none" stroke="black" d="M992.5,-353.425C992.5,-343.55 992.5,-334.079 992.5,-325.829"/>
<polygon fill="black" stroke="black" points="996,-325.754 992.5,-315.754 989,-325.754 996,-325.754"/>
</g>
<!-- Node0x427aa660 -->
<g id="node20" class="node"><title>Node0x427aa660</title>
<polygon fill="none" stroke="black" points="862.5,-187.5 862.5,-225.5 1208.5,-225.5 1208.5,-187.5 862.5,-187.5"/>
<text text-anchor="start" x="870.5" y="-210.3" font-family="Times,serif" font-size="14.00">0x78da400:</text>
<text text-anchor="start" x="870.5" y="-195.3" font-family="Times,serif" font-size="14.00"> g42 = (g30 &amp; ((v10 / 65536) | (65536 * v10)))</text>
</g>
<!-- Node0x427a99d0&#45;&gt;Node0x427aa660 -->
<g id="edge24" class="edge"><title>Node0x427a99d0&#45;&gt;Node0x427aa660</title>
<path fill="none" stroke="black" d="M1001.41,-277.266C1007.41,-264.995 1015.42,-248.596 1022.17,-234.78"/>
<polygon fill="black" stroke="black" points="1025.36,-236.232 1026.6,-225.71 1019.07,-233.158 1025.36,-236.232"/>
<text text-anchor="middle" x="1026" y="-247.8" font-family="Times,serif" font-size="14.00">g9</text>
</g>
<!-- Node0x427a9b10 -->
<g id="node21" class="node"><title>Node0x427a9b10</title>
<polygon fill="none" stroke="black" points="752.5,-97.5 752.5,-135.5 852.5,-135.5 852.5,-97.5 752.5,-97.5"/>
<text text-anchor="start" x="760.5" y="-120.3" font-family="Times,serif" font-size="14.00">0x78da7a0:</text>
<text text-anchor="start" x="760.5" y="-105.3" font-family="Times,serif" font-size="14.00"> return</text>
</g>
<!-- Node0x427a99d0&#45;&gt;Node0x427a9b10 -->
<g id="edge25" class="edge"><title>Node0x427a99d0&#45;&gt;Node0x427a9b10</title>
<path fill="none" stroke="black" d="M941.908,-293.129C895.513,-287.947 829.204,-272.296 796.5,-226 780.002,-202.645 785.143,-168.911 792.083,-145.276"/>
<polygon fill="black" stroke="black" points="795.493,-146.104 795.218,-135.512 788.828,-143.964 795.493,-146.104"/>
<text text-anchor="middle" x="825" y="-202.8" font-family="Times,serif" font-size="14.00">not (g9)</text>
</g>
<!-- Node0x427aa660&#45;&gt;Node0x427a9b10 -->
<g id="edge26" class="edge"><title>Node0x427aa660&#45;&gt;Node0x427a9b10</title>
<path fill="none" stroke="black" d="M987.787,-187.48C950.843,-173.526 899.52,-154.143 860.256,-139.313"/>
<polygon fill="black" stroke="black" points="861.141,-135.906 850.549,-135.647 858.668,-142.455 861.141,-135.906"/>
</g>
<!-- Node0x427a9b10&#45;&gt;Node0x427a51e0 -->
<g id="edge27" class="edge"><title>Node0x427a9b10&#45;&gt;Node0x427a51e0</title>
<path fill="none" stroke="black" d="M752.302,-99.7115C749.325,-98.7902 746.374,-97.8808 743.5,-97 693.344,-81.6275 635.26,-64.32 598.459,-53.4154"/>
<polygon fill="black" stroke="black" points="599.25,-49.9994 588.668,-50.5164 597.262,-56.7114 599.25,-49.9994"/>
</g>
</g>
</svg>
