<?xml version="1.0" encoding="UTF-8" standalone="no"?>
<!DOCTYPE svg PUBLIC "-//W3C//DTD SVG 1.1//EN"
 "http://www.w3.org/Graphics/SVG/1.1/DTD/svg11.dtd">
<!-- Generated by graphviz version 2.38.0 (20140413.2041)
 -->
<!-- Title: Control&#45;flow graph for function &#39;function_16190()&#39;. Pages: 1 -->
<svg width="1073pt" height="986pt"
 viewBox="0.00 0.00 1072.50 986.00" xmlns="http://www.w3.org/2000/svg" xmlns:xlink="http://www.w3.org/1999/xlink">
<g id="graph0" class="graph" transform="scale(1 1) rotate(0) translate(4 982)">
<title>Control&#45;flow graph for function &#39;function_16190()&#39;.</title>
<polygon fill="white" stroke="none" points="-4,4 -4,-982 1068.5,-982 1068.5,4 -4,4"/>
<text text-anchor="middle" x="532.25" y="-7.8" font-family="Times,serif" font-size="14.00">Control&#45;flow graph for function &#39;function_16190()&#39;.</text>
<!-- Node0x1636d0c0 -->
<g id="node1" class="node"><title>Node0x1636d0c0</title>
<polygon fill="none" stroke="black" points="271,-941.5 271,-977.5 330,-977.5 330,-941.5 271,-941.5"/>
<text text-anchor="start" x="279" y="-955.8" font-family="Times,serif" font-size="14.00">entry:</text>
</g>
<!-- Node0x1636d330 -->
<g id="node2" class="node"><title>Node0x1636d330</title>
<polygon fill="none" stroke="black" points="239,-835.5 239,-903.5 362,-903.5 362,-835.5 239,-835.5"/>
<text text-anchor="start" x="247" y="-888.3" font-family="Times,serif" font-size="14.00">0x3e64a4d0:</text>
<text text-anchor="start" x="247" y="-873.3" font-family="Times,serif" font-size="14.00"> v1 = g38</text>
<text text-anchor="start" x="247" y="-858.3" font-family="Times,serif" font-size="14.00"> g38 = 165012</text>
<text text-anchor="start" x="247" y="-843.3" font-family="Times,serif" font-size="14.00"> v2 = 170760</text>
</g>
<!-- Node0x1636d0c0&#45;&gt;Node0x1636d330 -->
<g id="edge1" class="edge"><title>Node0x1636d0c0&#45;&gt;Node0x1636d330</title>
<path fill="none" stroke="black" d="M300.5,-941.114C300.5,-933.158 300.5,-923.343 300.5,-913.588"/>
<polygon fill="black" stroke="black" points="304,-913.524 300.5,-903.524 297,-913.524 304,-913.524"/>
</g>
<!-- Node0x4760ac10 -->
<g id="node3" class="node"><title>Node0x4760ac10</title>
<polygon fill="none" stroke="black" points="28.5,-759.5 28.5,-797.5 572.5,-797.5 572.5,-759.5 28.5,-759.5"/>
<text text-anchor="start" x="36.5" y="-782.3" font-family="Times,serif" font-size="14.00">0x8441d60:</text>
<text text-anchor="start" x="36.5" y="-767.3" font-family="Times,serif" font-size="14.00"> if (*(IntToPtrCastExpr&lt;ptr&gt;(*(IntToPtrCastExpr&lt;ptr&gt;(165212)))) != 0):</text>
</g>
<!-- Node0x1636d330&#45;&gt;Node0x4760ac10 -->
<g id="edge2" class="edge"><title>Node0x1636d330&#45;&gt;Node0x4760ac10</title>
<path fill="none" stroke="black" d="M300.5,-835.36C300.5,-826.365 300.5,-816.707 300.5,-807.993"/>
<polygon fill="black" stroke="black" points="304,-807.941 300.5,-797.941 297,-807.941 304,-807.941"/>
</g>
<!-- Node0x4760a6b0 -->
<g id="node4" class="node"><title>Node0x4760a6b0</title>
<polygon fill="none" stroke="black" points="124.5,-654.5 124.5,-707.5 336.5,-707.5 336.5,-654.5 124.5,-654.5"/>
<text text-anchor="start" x="132.5" y="-692.3" font-family="Times,serif" font-size="14.00">0x8441450:</text>
<text text-anchor="start" x="132.5" y="-677.3" font-family="Times,serif" font-size="14.00"> imported_function_ord_0()</text>
<text text-anchor="start" x="132.5" y="-662.3" font-family="Times,serif" font-size="14.00"> v2 = (g38 + 5748)</text>
</g>
<!-- Node0x4760ac10&#45;&gt;Node0x4760a6b0 -->
<g id="edge3" class="edge"><title>Node0x4760ac10&#45;&gt;Node0x4760a6b0</title>
<path fill="none" stroke="black" d="M81.7842,-759.449C66.2275,-754.637 54.0734,-748.59 47.5,-741 20.194,-709.472 63.1366,-694.665 114.259,-687.768"/>
<polygon fill="black" stroke="black" points="114.736,-691.235 124.229,-686.53 113.874,-684.289 114.736,-691.235"/>
<text text-anchor="middle" x="294.5" y="-729.8" font-family="Times,serif" font-size="14.00">*(IntToPtrCastExpr&lt;ptr&gt;(*(IntToPtrCastExpr&lt;ptr&gt;(165212)))) != 0</text>
</g>
<!-- Node0xf7cd1e0 -->
<g id="node5" class="node"><title>Node0xf7cd1e0</title>
<polygon fill="none" stroke="black" points="225.5,-323.5 225.5,-616.5 709.5,-616.5 709.5,-323.5 225.5,-323.5"/>
<text text-anchor="start" x="233.5" y="-601.3" font-family="Times,serif" font-size="14.00">0x8441ee0:</text>
<text text-anchor="start" x="233.5" y="-586.3" font-family="Times,serif" font-size="14.00"> g29 = v2</text>
<text text-anchor="start" x="233.5" y="-571.3" font-family="Times,serif" font-size="14.00"> v3 = g20</text>
<text text-anchor="start" x="233.5" y="-556.3" font-family="Times,serif" font-size="14.00"> g37 = v3</text>
<text text-anchor="start" x="233.5" y="-541.3" font-family="Times,serif" font-size="14.00"> g6 = True</text>
<text text-anchor="start" x="233.5" y="-526.3" font-family="Times,serif" font-size="14.00"> g9 = (v3 == 0)</text>
<text text-anchor="start" x="233.5" y="-511.3" font-family="Times,serif" font-size="14.00"> g38 = v1</text>
<text text-anchor="start" x="233.5" y="-496.3" font-family="Times,serif" font-size="14.00"> v4</text>
<text text-anchor="start" x="233.5" y="-481.3" font-family="Times,serif" font-size="14.00"> g34 = v4</text>
<text text-anchor="start" x="233.5" y="-466.3" font-family="Times,serif" font-size="14.00"> IntToPtrCastExpr&lt;ptr&gt;(ExtCastExpr&lt;int32&gt;((v3 == 0)))()</text>
<text text-anchor="start" x="233.5" y="-451.3" font-family="Times,serif" font-size="14.00"> g30 = 0</text>
<text text-anchor="start" x="233.5" y="-436.3" font-family="Times,serif" font-size="14.00"> g29 = 0</text>
<text text-anchor="start" x="233.5" y="-421.3" font-family="Times,serif" font-size="14.00"> g35 = 90600</text>
<text text-anchor="start" x="233.5" y="-406.3" font-family="Times,serif" font-size="14.00"> IntToPtrCastExpr&lt;ptr&gt;(g37)()</text>
<text text-anchor="start" x="233.5" y="-391.3" font-family="Times,serif" font-size="14.00"> v5 = g34</text>
<text text-anchor="start" x="233.5" y="-376.3" font-family="Times,serif" font-size="14.00"> g38 = *(IntToPtrCastExpr&lt;ptr&gt;((v5 + 4)))</text>
<text text-anchor="start" x="233.5" y="-361.3" font-family="Times,serif" font-size="14.00"> g32 = *(IntToPtrCastExpr&lt;ptr&gt;((v5 + 8)))</text>
<text text-anchor="start" x="233.5" y="-346.3" font-family="Times,serif" font-size="14.00"> g34 = *(IntToPtrCastExpr&lt;ptr&gt;((v5 + 12)))</text>
<text text-anchor="start" x="233.5" y="-331.3" font-family="Times,serif" font-size="14.00"> IntToPtrCastExpr&lt;ptr&gt;(*(IntToPtrCastExpr&lt;ptr&gt;((v5 + 16))))()</text>
</g>
<!-- Node0x4760ac10&#45;&gt;Node0xf7cd1e0 -->
<g id="edge4" class="edge"><title>Node0x4760ac10&#45;&gt;Node0xf7cd1e0</title>
<path fill="none" stroke="black" d="M506.647,-759.468C522.529,-754.669 534.947,-748.62 541.5,-741 569.21,-708.777 569.358,-667.068 557.539,-626.111"/>
<polygon fill="black" stroke="black" points="560.88,-625.067 554.566,-616.559 554.196,-627.147 560.88,-625.067"/>
<text text-anchor="middle" x="814.5" y="-677.3" font-family="Times,serif" font-size="14.00">*(IntToPtrCastExpr&lt;ptr&gt;(*(IntToPtrCastExpr&lt;ptr&gt;(165212)))) == 0</text>
</g>
<!-- Node0x4760a6b0&#45;&gt;Node0xf7cd1e0 -->
<g id="edge5" class="edge"><title>Node0x4760a6b0&#45;&gt;Node0xf7cd1e0</title>
<path fill="none" stroke="black" d="M259.561,-654.372C269.532,-645.58 281.523,-635.005 294.649,-623.43"/>
<polygon fill="black" stroke="black" points="297.317,-625.743 302.503,-616.504 292.687,-620.493 297.317,-625.743"/>
</g>
<!-- Node0x4760b2c0 -->
<g id="node6" class="node"><title>Node0x4760b2c0</title>
<polygon fill="none" stroke="black" points="417,-247.5 417,-285.5 518,-285.5 518,-247.5 417,-247.5"/>
<text text-anchor="start" x="425" y="-270.3" font-family="Times,serif" font-size="14.00">0x8448450:</text>
<text text-anchor="start" x="425" y="-255.3" font-family="Times,serif" font-size="14.00"> if g9:</text>
</g>
<!-- Node0xf7cd1e0&#45;&gt;Node0x4760b2c0 -->
<g id="edge6" class="edge"><title>Node0xf7cd1e0&#45;&gt;Node0x4760b2c0</title>
<path fill="none" stroke="black" d="M467.5,-323.361C467.5,-313.249 467.5,-303.894 467.5,-295.847"/>
<polygon fill="black" stroke="black" points="471,-295.734 467.5,-285.734 464,-295.734 471,-295.734"/>
</g>
<!-- Node0x1eb18780 -->
<g id="node7" class="node"><title>Node0x1eb18780</title>
<polygon fill="none" stroke="black" points="0,-97.5 0,-195.5 503,-195.5 503,-97.5 0,-97.5"/>
<text text-anchor="start" x="8" y="-180.3" font-family="Times,serif" font-size="14.00">0x8446380:</text>
<text text-anchor="start" x="8" y="-165.3" font-family="Times,serif" font-size="14.00"> g36 = (g30 &amp; ((g38 / 32) | (134217728 * g38)))</text>
<text text-anchor="start" x="8" y="-150.3" font-family="Times,serif" font-size="14.00"> v6 = (g29 &amp; (g42 / 2))</text>
<text text-anchor="start" x="8" y="-135.3" font-family="Times,serif" font-size="14.00"> g29 = v6</text>
<text text-anchor="start" x="8" y="-120.3" font-family="Times,serif" font-size="14.00"> v7 = (g40 % 256)</text>
<text text-anchor="start" x="8" y="-105.3" font-family="Times,serif" font-size="14.00"> g30 = ((g38 &gt;&gt; (0 if (v7 == 0) else (31 if (v7 &gt; 31) else v7))) &amp; v6)</text>
</g>
<!-- Node0x4760b2c0&#45;&gt;Node0x1eb18780 -->
<g id="edge7" class="edge"><title>Node0x4760b2c0&#45;&gt;Node0x1eb18780</title>
<path fill="none" stroke="black" d="M434.223,-247.321C411.174,-234.729 379.218,-217.272 348.468,-200.473"/>
<polygon fill="black" stroke="black" points="349.86,-197.246 339.407,-195.523 346.504,-203.389 349.86,-197.246"/>
<text text-anchor="middle" x="408" y="-217.8" font-family="Times,serif" font-size="14.00">g9</text>
</g>
<!-- Node0x1636c5f0 -->
<g id="node8" class="node"><title>Node0x1636c5f0</title>
<polygon fill="none" stroke="black" points="434.5,-23.5 434.5,-59.5 488.5,-59.5 488.5,-23.5 434.5,-23.5"/>
<text text-anchor="start" x="442.5" y="-37.8" font-family="Times,serif" font-size="14.00">exit:</text>
</g>
<!-- Node0x4760b2c0&#45;&gt;Node0x1636c5f0 -->
<g id="edge8" class="edge"><title>Node0x4760b2c0&#45;&gt;Node0x1636c5f0</title>
<path fill="none" stroke="black" d="M482.986,-247.45C493.295,-234.188 505.933,-215.202 511.5,-196 523.753,-153.74 527.46,-138.004 511.5,-97 507.105,-85.7089 499.157,-75.3371 490.872,-66.7408"/>
<polygon fill="black" stroke="black" points="493.198,-64.1208 483.586,-59.6652 488.322,-69.1427 493.198,-64.1208"/>
<text text-anchor="middle" x="551" y="-142.8" font-family="Times,serif" font-size="14.00">not (g9)</text>
</g>
<!-- Node0x1eb18780&#45;&gt;Node0x1636c5f0 -->
<g id="edge9" class="edge"><title>Node0x1eb18780&#45;&gt;Node0x1636c5f0</title>
<path fill="none" stroke="black" d="M349.43,-97.4679C376.321,-84.2785 403.833,-70.7844 424.868,-60.467"/>
<polygon fill="black" stroke="black" points="426.615,-63.5086 434.052,-55.9626 423.533,-57.2238 426.615,-63.5086"/>
</g>
</g>
</svg>
