<?xml version="1.0" encoding="UTF-8" standalone="no"?>
<!DOCTYPE svg PUBLIC "-//W3C//DTD SVG 1.1//EN"
 "http://www.w3.org/Graphics/SVG/1.1/DTD/svg11.dtd">
<!-- Generated by graphviz version 2.38.0 (20140413.2041)
 -->
<!-- Title: Control&#45;flow graph for function &#39;function_10418()&#39;. Pages: 1 -->
<svg width="736pt" height="1136pt"
 viewBox="0.00 0.00 736.00 1136.00" xmlns="http://www.w3.org/2000/svg" xmlns:xlink="http://www.w3.org/1999/xlink">
<g id="graph0" class="graph" transform="scale(1 1) rotate(0) translate(4 1132)">
<title>Control&#45;flow graph for function &#39;function_10418()&#39;.</title>
<polygon fill="white" stroke="none" points="-4,4 -4,-1132 732,-1132 732,4 -4,4"/>
<text text-anchor="middle" x="364" y="-7.8" font-family="Times,serif" font-size="14.00">Control&#45;flow graph for function &#39;function_10418()&#39;.</text>
<!-- Node0x294d0d10 -->
<g id="node1" class="node"><title>Node0x294d0d10</title>
<polygon fill="none" stroke="black" points="475.5,-1091.5 475.5,-1127.5 534.5,-1127.5 534.5,-1091.5 475.5,-1091.5"/>
<text text-anchor="start" x="483.5" y="-1105.8" font-family="Times,serif" font-size="14.00">entry:</text>
</g>
<!-- Node0x294d1e40 -->
<g id="node2" class="node"><title>Node0x294d1e40</title>
<polygon fill="none" stroke="black" points="282,-700.5 282,-1053.5 728,-1053.5 728,-700.5 282,-700.5"/>
<text text-anchor="start" x="290" y="-1038.3" font-family="Times,serif" font-size="14.00">0x1b735e80:</text>
<text text-anchor="start" x="290" y="-1023.3" font-family="Times,serif" font-size="14.00"> v1 = g38</text>
<text text-anchor="start" x="290" y="-1008.3" font-family="Times,serif" font-size="14.00"> v2 = g40</text>
<text text-anchor="start" x="290" y="-993.3" font-family="Times,serif" font-size="14.00"> v3 = g41</text>
<text text-anchor="start" x="290" y="-978.3" font-family="Times,serif" font-size="14.00"> v4 = g42</text>
<text text-anchor="start" x="290" y="-963.3" font-family="Times,serif" font-size="14.00"> v5 = g31</text>
<text text-anchor="start" x="290" y="-948.3" font-family="Times,serif" font-size="14.00"> v6 = g35</text>
<text text-anchor="start" x="290" y="-933.3" font-family="Times,serif" font-size="14.00"> v7 = g30</text>
<text text-anchor="start" x="290" y="-918.3" font-family="Times,serif" font-size="14.00"> g42 = v7</text>
<text text-anchor="start" x="290" y="-903.3" font-family="Times,serif" font-size="14.00"> v8 = (v7 + 1)</text>
<text text-anchor="start" x="290" y="-888.3" font-family="Times,serif" font-size="14.00"> g30 = v8</text>
<text text-anchor="start" x="290" y="-873.3" font-family="Times,serif" font-size="14.00"> g40 = 165012</text>
<text text-anchor="start" x="290" y="-858.3" font-family="Times,serif" font-size="14.00"> g38 = g29</text>
<text text-anchor="start" x="290" y="-843.3" font-family="Times,serif" font-size="14.00"> g41 = g36</text>
<text text-anchor="start" x="290" y="-828.3" font-family="Times,serif" font-size="14.00"> g31 = g37</text>
<text text-anchor="start" x="290" y="-813.3" font-family="Times,serif" font-size="14.00"> g6 = (v8 &gt; 27)</text>
<text text-anchor="start" x="290" y="-798.3" font-family="Times,serif" font-size="14.00"> g9 = (v8 == 28)</text>
<text text-anchor="start" x="290" y="-783.3" font-family="Times,serif" font-size="14.00"> IntToPtrCastExpr&lt;ptr&gt;(ExtCastExpr&lt;int32&gt;((v8 &lt; 29)))()</text>
<text text-anchor="start" x="290" y="-768.3" font-family="Times,serif" font-size="14.00"> v9 = g38</text>
<text text-anchor="start" x="290" y="-753.3" font-family="Times,serif" font-size="14.00"> v10 = *(IntToPtrCastExpr&lt;ptr&gt;((v9 + 172)))</text>
<text text-anchor="start" x="290" y="-738.3" font-family="Times,serif" font-size="14.00"> g33 = v10</text>
<text text-anchor="start" x="290" y="-723.3" font-family="Times,serif" font-size="14.00"> g6 = True</text>
<text text-anchor="start" x="290" y="-708.3" font-family="Times,serif" font-size="14.00"> g9 = (v10 == 0)</text>
</g>
<!-- Node0x294d0d10&#45;&gt;Node0x294d1e40 -->
<g id="edge1" class="edge"><title>Node0x294d0d10&#45;&gt;Node0x294d1e40</title>
<path fill="none" stroke="black" d="M505,-1091.18C505,-1083.8 505,-1074.42 505,-1063.73"/>
<polygon fill="black" stroke="black" points="508.5,-1063.55 505,-1053.55 501.5,-1063.55 508.5,-1063.55"/>
</g>
<!-- Node0x47236d50 -->
<g id="node3" class="node"><title>Node0x47236d50</title>
<polygon fill="none" stroke="black" points="448.5,-624.5 448.5,-662.5 561.5,-662.5 561.5,-624.5 448.5,-624.5"/>
<text text-anchor="start" x="456.5" y="-647.3" font-family="Times,serif" font-size="14.00">0x79bff80:</text>
<text text-anchor="start" x="456.5" y="-632.3" font-family="Times,serif" font-size="14.00"> if (v10 != 0):</text>
</g>
<!-- Node0x294d1e40&#45;&gt;Node0x47236d50 -->
<g id="edge2" class="edge"><title>Node0x294d1e40&#45;&gt;Node0x47236d50</title>
<path fill="none" stroke="black" d="M505,-700.245C505,-690.06 505,-680.733 505,-672.742"/>
<polygon fill="black" stroke="black" points="508.5,-672.718 505,-662.718 501.5,-672.718 508.5,-672.718"/>
</g>
<!-- Node0x294d2a80 -->
<g id="node4" class="node"><title>Node0x294d2a80</title>
<polygon fill="none" stroke="black" points="175.5,-459.5 175.5,-572.5 522.5,-572.5 522.5,-459.5 175.5,-459.5"/>
<text text-anchor="start" x="183.5" y="-557.3" font-family="Times,serif" font-size="14.00">0x79bede0:</text>
<text text-anchor="start" x="183.5" y="-542.3" font-family="Times,serif" font-size="14.00"> g29 = *(IntToPtrCastExpr&lt;ptr&gt;((v9 + 176)))</text>
<text text-anchor="start" x="183.5" y="-527.3" font-family="Times,serif" font-size="14.00"> g30 = g42</text>
<text text-anchor="start" x="183.5" y="-512.3" font-family="Times,serif" font-size="14.00"> g36 = g41</text>
<text text-anchor="start" x="183.5" y="-497.3" font-family="Times,serif" font-size="14.00"> g37 = g31</text>
<text text-anchor="start" x="183.5" y="-482.3" font-family="Times,serif" font-size="14.00"> g35 = 67128</text>
<text text-anchor="start" x="183.5" y="-467.3" font-family="Times,serif" font-size="14.00"> IntToPtrCastExpr&lt;ptr&gt;(v10)()</text>
</g>
<!-- Node0x47236d50&#45;&gt;Node0x294d2a80 -->
<g id="edge3" class="edge"><title>Node0x47236d50&#45;&gt;Node0x294d2a80</title>
<path fill="none" stroke="black" d="M482.316,-624.251C467.255,-612.135 446.525,-595.457 425.897,-578.863"/>
<polygon fill="black" stroke="black" points="427.994,-576.058 418.008,-572.516 423.606,-581.512 427.994,-576.058"/>
<text text-anchor="middle" x="490.5" y="-594.8" font-family="Times,serif" font-size="14.00">v10 != 0</text>
</g>
<!-- Node0x2f6851a0 -->
<g id="node5" class="node"><title>Node0x2f6851a0</title>
<polygon fill="none" stroke="black" points="382.5,-263.5 382.5,-421.5 615.5,-421.5 615.5,-263.5 382.5,-263.5"/>
<text text-anchor="start" x="390.5" y="-406.3" font-family="Times,serif" font-size="14.00">0x79c0120:</text>
<text text-anchor="start" x="390.5" y="-391.3" font-family="Times,serif" font-size="14.00"> g38 = v1</text>
<text text-anchor="start" x="390.5" y="-376.3" font-family="Times,serif" font-size="14.00"> g40 = v2</text>
<text text-anchor="start" x="390.5" y="-361.3" font-family="Times,serif" font-size="14.00"> g41 = v3</text>
<text text-anchor="start" x="390.5" y="-346.3" font-family="Times,serif" font-size="14.00"> g42 = v4</text>
<text text-anchor="start" x="390.5" y="-331.3" font-family="Times,serif" font-size="14.00"> g31 = v5</text>
<text text-anchor="start" x="390.5" y="-316.3" font-family="Times,serif" font-size="14.00"> v11</text>
<text text-anchor="start" x="390.5" y="-301.3" font-family="Times,serif" font-size="14.00"> g34 = v11</text>
<text text-anchor="start" x="390.5" y="-286.3" font-family="Times,serif" font-size="14.00"> IntToPtrCastExpr&lt;ptr&gt;(v6)()</text>
<text text-anchor="start" x="390.5" y="-271.3" font-family="Times,serif" font-size="14.00"> v12 = (g29 % 256)</text>
</g>
<!-- Node0x47236d50&#45;&gt;Node0x2f6851a0 -->
<g id="edge4" class="edge"><title>Node0x47236d50&#45;&gt;Node0x2f6851a0</title>
<path fill="none" stroke="black" d="M517.3,-624.197C520.589,-618.566 523.829,-612.211 526,-606 530.894,-591.997 529.886,-587.792 531,-573 534.806,-522.476 537.826,-509.205 531,-459 529.785,-450.067 528.065,-440.849 526.045,-431.698"/>
<polygon fill="black" stroke="black" points="529.421,-430.76 523.746,-421.813 522.603,-432.346 529.421,-430.76"/>
<text text-anchor="middle" x="569.5" y="-512.3" font-family="Times,serif" font-size="14.00">v10 == 0</text>
</g>
<!-- Node0x294d2a80&#45;&gt;Node0x2f6851a0 -->
<g id="edge5" class="edge"><title>Node0x294d2a80&#45;&gt;Node0x2f6851a0</title>
<path fill="none" stroke="black" d="M397.701,-459.319C406.085,-449.732 414.972,-439.572 423.862,-429.408"/>
<polygon fill="black" stroke="black" points="426.703,-431.476 430.652,-421.645 421.434,-426.868 426.703,-431.476"/>
</g>
<!-- Node0x2f685980 -->
<g id="node6" class="node"><title>Node0x2f685980</title>
<polygon fill="none" stroke="black" points="449,-187.5 449,-225.5 549,-225.5 549,-187.5 449,-187.5"/>
<text text-anchor="start" x="457" y="-210.3" font-family="Times,serif" font-size="14.00">0x79c27e0:</text>
<text text-anchor="start" x="457" y="-195.3" font-family="Times,serif" font-size="14.00"> if g9:</text>
</g>
<!-- Node0x2f6851a0&#45;&gt;Node0x2f685980 -->
<g id="edge6" class="edge"><title>Node0x2f6851a0&#45;&gt;Node0x2f685980</title>
<path fill="none" stroke="black" d="M499,-263.164C499,-253.447 499,-244.058 499,-235.846"/>
<polygon fill="black" stroke="black" points="502.5,-235.801 499,-225.801 495.5,-235.801 502.5,-235.801"/>
</g>
<!-- Node0x294d2670 -->
<g id="node7" class="node"><title>Node0x294d2670</title>
<polygon fill="none" stroke="black" points="0,-97.5 0,-135.5 540,-135.5 540,-97.5 0,-97.5"/>
<text text-anchor="start" x="8" y="-120.3" font-family="Times,serif" font-size="14.00">0x79c2590:</text>
<text text-anchor="start" x="8" y="-105.3" font-family="Times,serif" font-size="14.00"> g42 = (g30 &amp; (g42 &gt;&gt; (0 if (v12 == 0) else (31 if (v12 &gt; 31) else v12))))</text>
</g>
<!-- Node0x2f685980&#45;&gt;Node0x294d2670 -->
<g id="edge7" class="edge"><title>Node0x2f685980&#45;&gt;Node0x294d2670</title>
<path fill="none" stroke="black" d="M452.106,-187.48C415.796,-173.526 365.355,-154.143 326.764,-139.313"/>
<polygon fill="black" stroke="black" points="327.814,-135.967 317.224,-135.647 325.303,-142.502 327.814,-135.967"/>
<text text-anchor="middle" x="408.5" y="-157.8" font-family="Times,serif" font-size="14.00">g9</text>
</g>
<!-- Node0x2f688a40 -->
<g id="node8" class="node"><title>Node0x2f688a40</title>
<polygon fill="none" stroke="black" points="466,-23.5 466,-59.5 520,-59.5 520,-23.5 466,-23.5"/>
<text text-anchor="start" x="474" y="-37.8" font-family="Times,serif" font-size="14.00">exit:</text>
</g>
<!-- Node0x2f685980&#45;&gt;Node0x2f688a40 -->
<g id="edge8" class="edge"><title>Node0x2f685980&#45;&gt;Node0x2f688a40</title>
<path fill="none" stroke="black" d="M517.467,-187.231C536.784,-165.796 562.553,-129.101 549,-97 544.053,-85.2829 535.219,-74.8387 526.009,-66.3064"/>
<polygon fill="black" stroke="black" points="528.113,-63.4988 518.26,-59.603 523.533,-68.7926 528.113,-63.4988"/>
<text text-anchor="middle" x="580.5" y="-112.8" font-family="Times,serif" font-size="14.00">not (g9)</text>
</g>
<!-- Node0x294d2670&#45;&gt;Node0x2f688a40 -->
<g id="edge9" class="edge"><title>Node0x294d2670&#45;&gt;Node0x2f688a40</title>
<path fill="none" stroke="black" d="M325.124,-97.4551C366.033,-84.0633 420.682,-66.1736 456.348,-54.4982"/>
<polygon fill="black" stroke="black" points="457.462,-57.8163 465.877,-51.3788 455.284,-51.1637 457.462,-57.8163"/>
</g>
</g>
</svg>
