<?xml version="1.0" encoding="UTF-8" standalone="no"?>
<!DOCTYPE svg PUBLIC "-//W3C//DTD SVG 1.1//EN"
 "http://www.w3.org/Graphics/SVG/1.1/DTD/svg11.dtd">
<!-- Generated by graphviz version 2.38.0 (20140413.2041)
 -->
<!-- Title: Control&#45;flow graph for function &#39;function_94d4()&#39;. Pages: 1 -->
<svg width="942pt" height="2338pt"
 viewBox="0.00 0.00 941.50 2338.00" xmlns="http://www.w3.org/2000/svg" xmlns:xlink="http://www.w3.org/1999/xlink">
<g id="graph0" class="graph" transform="scale(1 1) rotate(0) translate(4 2334)">
<title>Control&#45;flow graph for function &#39;function_94d4()&#39;.</title>
<polygon fill="white" stroke="none" points="-4,4 -4,-2334 937.5,-2334 937.5,4 -4,4"/>
<text text-anchor="middle" x="466.75" y="-7.8" font-family="Times,serif" font-size="14.00">Control&#45;flow graph for function &#39;function_94d4()&#39;.</text>
<!-- Node0x443b4fd0 -->
<g id="node1" class="node"><title>Node0x443b4fd0</title>
<polygon fill="none" stroke="black" points="403,-2293.5 403,-2329.5 462,-2329.5 462,-2293.5 403,-2293.5"/>
<text text-anchor="start" x="411" y="-2307.8" font-family="Times,serif" font-size="14.00">entry:</text>
</g>
<!-- Node0x2a3eb670 -->
<g id="node2" class="node"><title>Node0x2a3eb670</title>
<polygon fill="none" stroke="black" points="173.5,-1782.5 173.5,-2255.5 691.5,-2255.5 691.5,-1782.5 173.5,-1782.5"/>
<text text-anchor="start" x="181.5" y="-2240.3" font-family="Times,serif" font-size="14.00">0x16bb2b90:</text>
<text text-anchor="start" x="181.5" y="-2225.3" font-family="Times,serif" font-size="14.00"> v1 = *(IntToPtrCastExpr&lt;ptr&gt;((g29 + 38)))</text>
<text text-anchor="start" x="181.5" y="-2210.3" font-family="Times,serif" font-size="14.00"> g37 = v1</text>
<text text-anchor="start" x="181.5" y="-2195.3" font-family="Times,serif" font-size="14.00"> g8 = False</text>
<text text-anchor="start" x="181.5" y="-2180.3" font-family="Times,serif" font-size="14.00"> g7 = (v1 &lt; 0)</text>
<text text-anchor="start" x="181.5" y="-2165.3" font-family="Times,serif" font-size="14.00"> g9 = (v1 == 0)</text>
<text text-anchor="start" x="181.5" y="-2150.3" font-family="Times,serif" font-size="14.00"> g33 = g30</text>
<text text-anchor="start" x="181.5" y="-2135.3" font-family="Times,serif" font-size="14.00"> IntToPtrCastExpr&lt;ptr&gt;(ExtCastExpr&lt;int32&gt;((v1 != 0)))()</text>
<text text-anchor="start" x="181.5" y="-2120.3" font-family="Times,serif" font-size="14.00"> v2 = *(IntToPtrCastExpr&lt;ptr&gt;((g29 + 68)))</text>
<text text-anchor="start" x="181.5" y="-2105.3" font-family="Times,serif" font-size="14.00"> g37 = v2</text>
<text text-anchor="start" x="181.5" y="-2090.3" font-family="Times,serif" font-size="14.00"> g8 = False</text>
<text text-anchor="start" x="181.5" y="-2075.3" font-family="Times,serif" font-size="14.00"> g7 = (v2 &lt; 0)</text>
<text text-anchor="start" x="181.5" y="-2060.3" font-family="Times,serif" font-size="14.00"> g9 = (v2 == 0)</text>
<text text-anchor="start" x="181.5" y="-2045.3" font-family="Times,serif" font-size="14.00"> v3</text>
<text text-anchor="start" x="181.5" y="-2030.3" font-family="Times,serif" font-size="14.00"> v4 = &amp;(v3)</text>
<text text-anchor="start" x="181.5" y="-2015.3" font-family="Times,serif" font-size="14.00"> v5 = *(IntToPtrCastExpr&lt;ptr&gt;((v4 + 4)))</text>
<text text-anchor="start" x="181.5" y="-2000.3" font-family="Times,serif" font-size="14.00"> v6 = IntToPtrCastExpr&lt;ptr&gt;(v5)</text>
<text text-anchor="start" x="181.5" y="-1985.3" font-family="Times,serif" font-size="14.00"> g32 = *(IntToPtrCastExpr&lt;ptr&gt;((v4 + 8)))</text>
<text text-anchor="start" x="181.5" y="-1970.3" font-family="Times,serif" font-size="14.00"> g34 = *(IntToPtrCastExpr&lt;ptr&gt;((v4 + 12)))</text>
<text text-anchor="start" x="181.5" y="-1955.3" font-family="Times,serif" font-size="14.00"> IntToPtrCastExpr&lt;ptr&gt;(ExtCastExpr&lt;int32&gt;((v2 == 0)))()</text>
<text text-anchor="start" x="181.5" y="-1940.3" font-family="Times,serif" font-size="14.00"> v7 = *(IntToPtrCastExpr&lt;ptr&gt;((g29 + 12)))</text>
<text text-anchor="start" x="181.5" y="-1925.3" font-family="Times,serif" font-size="14.00"> v8 = g30</text>
<text text-anchor="start" x="181.5" y="-1910.3" font-family="Times,serif" font-size="14.00"> v9 = (v8 % 65536)</text>
<text text-anchor="start" x="181.5" y="-1895.3" font-family="Times,serif" font-size="14.00"> g29 = v9</text>
<text text-anchor="start" x="181.5" y="-1880.3" font-family="Times,serif" font-size="14.00"> v10 = (v9 + ExtCastExpr&lt;int32&gt;(v7))</text>
<text text-anchor="start" x="181.5" y="-1865.3" font-family="Times,serif" font-size="14.00"> g36 = v10</text>
<text text-anchor="start" x="181.5" y="-1850.3" font-family="Times,serif" font-size="14.00"> g8 = False</text>
<text text-anchor="start" x="181.5" y="-1835.3" font-family="Times,serif" font-size="14.00"> g7 = (v8 &lt; 0)</text>
<text text-anchor="start" x="181.5" y="-1820.3" font-family="Times,serif" font-size="14.00"> g9 = (v8 == 0)</text>
<text text-anchor="start" x="181.5" y="-1805.3" font-family="Times,serif" font-size="14.00"> *(IntToPtrCastExpr&lt;ptr&gt;((v5 + 12))) = TruncCastExpr&lt;int16&gt;(v10)</text>
<text text-anchor="start" x="181.5" y="-1790.3" font-family="Times,serif" font-size="14.00"> v11</text>
</g>
<!-- Node0x443b4fd0&#45;&gt;Node0x2a3eb670 -->
<g id="edge1" class="edge"><title>Node0x443b4fd0&#45;&gt;Node0x2a3eb670</title>
<path fill="none" stroke="black" d="M432.5,-2293.2C432.5,-2285.9 432.5,-2276.59 432.5,-2265.84"/>
<polygon fill="black" stroke="black" points="436,-2265.57 432.5,-2255.57 429,-2265.57 436,-2265.57"/>
</g>
<!-- Node0xae0a1a0 -->
<g id="node3" class="node"><title>Node0xae0a1a0</title>
<polygon fill="none" stroke="black" points="377.5,-1706.5 377.5,-1744.5 487.5,-1744.5 487.5,-1706.5 377.5,-1706.5"/>
<text text-anchor="start" x="385.5" y="-1729.3" font-family="Times,serif" font-size="14.00">0x6dcb8c0:</text>
<text text-anchor="start" x="385.5" y="-1714.3" font-family="Times,serif" font-size="14.00"> if (v8 &gt;= 1):</text>
</g>
<!-- Node0x2a3eb670&#45;&gt;Node0xae0a1a0 -->
<g id="edge2" class="edge"><title>Node0x2a3eb670&#45;&gt;Node0xae0a1a0</title>
<path fill="none" stroke="black" d="M432.5,-1782.36C432.5,-1772.21 432.5,-1763.01 432.5,-1755.14"/>
<polygon fill="black" stroke="black" points="436,-1754.95 432.5,-1744.95 429,-1754.95 436,-1754.95"/>
</g>
<!-- Node0x38081730 -->
<g id="node4" class="node"><title>Node0x38081730</title>
<polygon fill="none" stroke="black" points="116,-1421.5 116,-1654.5 435,-1654.5 435,-1421.5 116,-1421.5"/>
<text text-anchor="start" x="124" y="-1639.3" font-family="Times,serif" font-size="14.00">0x19a25300:</text>
<text text-anchor="start" x="124" y="-1624.3" font-family="Times,serif" font-size="14.00"> v12 = IntToPtrCastExpr&lt;ptr&gt;((v5 + 16))</text>
<text text-anchor="start" x="124" y="-1609.3" font-family="Times,serif" font-size="14.00"> v13 = ExtCastExpr&lt;int32&gt;(*(v12))</text>
<text text-anchor="start" x="124" y="-1594.3" font-family="Times,serif" font-size="14.00"> g29 = v13</text>
<text text-anchor="start" x="124" y="-1579.3" font-family="Times,serif" font-size="14.00"> v14 = IntToPtrCastExpr&lt;ptr&gt;((v5 + 18))</text>
<text text-anchor="start" x="124" y="-1564.3" font-family="Times,serif" font-size="14.00"> v15 = ExtCastExpr&lt;int32&gt;(*(v14))</text>
<text text-anchor="start" x="124" y="-1549.3" font-family="Times,serif" font-size="14.00"> g30 = v15</text>
<text text-anchor="start" x="124" y="-1534.3" font-family="Times,serif" font-size="14.00"> v16 = g33</text>
<text text-anchor="start" x="124" y="-1519.3" font-family="Times,serif" font-size="14.00"> v17 = (v16 if (v16 &lt; v13) else v13)</text>
<text text-anchor="start" x="124" y="-1504.3" font-family="Times,serif" font-size="14.00"> v18 = (v16 &#45; v17)</text>
<text text-anchor="start" x="124" y="-1489.3" font-family="Times,serif" font-size="14.00"> v19 = (v18 &#45; v15)</text>
<text text-anchor="start" x="124" y="-1474.3" font-family="Times,serif" font-size="14.00"> g8 = ((v18 &amp; &#45;(v19)) &lt; 0)</text>
<text text-anchor="start" x="124" y="-1459.3" font-family="Times,serif" font-size="14.00"> g7 = (v19 &lt; 0)</text>
<text text-anchor="start" x="124" y="-1444.3" font-family="Times,serif" font-size="14.00"> g9 = (v18 == v15)</text>
<text text-anchor="start" x="124" y="-1429.3" font-family="Times,serif" font-size="14.00"> v20</text>
</g>
<!-- Node0xae0a1a0&#45;&gt;Node0x38081730 -->
<g id="edge3" class="edge"><title>Node0xae0a1a0&#45;&gt;Node0x38081730</title>
<path fill="none" stroke="black" d="M411.118,-1706.18C404.91,-1700.55 398.257,-1694.2 392.5,-1688 384.97,-1679.89 377.399,-1671.34 369.927,-1662.6"/>
<polygon fill="black" stroke="black" points="372.523,-1660.25 363.389,-1654.88 367.181,-1664.78 372.523,-1660.25"/>
<text text-anchor="middle" x="422.5" y="-1676.8" font-family="Times,serif" font-size="14.00">v8 &gt;= 1</text>
</g>
<!-- Node0x3807fa30 -->
<g id="node5" class="node"><title>Node0x3807fa30</title>
<polygon fill="none" stroke="black" points="492.5,-1519 492.5,-1557 596.5,-1557 596.5,-1519 492.5,-1519"/>
<text text-anchor="start" x="500.5" y="-1541.8" font-family="Times,serif" font-size="14.00">0x6dc9060:</text>
<text text-anchor="start" x="500.5" y="-1526.8" font-family="Times,serif" font-size="14.00"> if (v8 != 0):</text>
</g>
<!-- Node0xae0a1a0&#45;&gt;Node0x3807fa30 -->
<g id="edge4" class="edge"><title>Node0xae0a1a0&#45;&gt;Node0x3807fa30</title>
<path fill="none" stroke="black" d="M443.443,-1706.38C463.266,-1673.54 505.2,-1604.09 528.333,-1565.78"/>
<polygon fill="black" stroke="black" points="531.34,-1567.57 533.513,-1557.2 525.348,-1563.95 531.34,-1567.57"/>
<text text-anchor="middle" x="486.5" y="-1676.8" font-family="Times,serif" font-size="14.00">v8 &lt; 1</text>
</g>
<!-- Node0x3fa1df10 -->
<g id="node6" class="node"><title>Node0x3fa1df10</title>
<polygon fill="none" stroke="black" points="89.5,-1279 89.5,-1332 225.5,-1332 225.5,-1279 89.5,-1279"/>
<text text-anchor="start" x="97.5" y="-1316.8" font-family="Times,serif" font-size="14.00">0x6dcf170:</text>
<text text-anchor="start" x="97.5" y="-1301.8" font-family="Times,serif" font-size="14.00"> if (v18 &gt;= v15):</text>
<text text-anchor="start" x="97.5" y="-1286.8" font-family="Times,serif" font-size="14.00"> else:</text>
</g>
<!-- Node0x38081730&#45;&gt;Node0x3fa1df10 -->
<g id="edge5" class="edge"><title>Node0x38081730&#45;&gt;Node0x3fa1df10</title>
<path fill="none" stroke="black" d="M216.327,-1421.41C201.4,-1392.25 186.487,-1363.12 175.412,-1341.49"/>
<polygon fill="black" stroke="black" points="178.431,-1339.71 170.759,-1332.4 172.2,-1342.9 178.431,-1339.71"/>
</g>
<!-- Node0x3fa22f60 -->
<g id="node7" class="node"><title>Node0x3fa22f60</title>
<polygon fill="none" stroke="black" points="243.5,-1241.5 243.5,-1369.5 845.5,-1369.5 845.5,-1241.5 243.5,-1241.5"/>
<text text-anchor="start" x="251.5" y="-1354.3" font-family="Times,serif" font-size="14.00">0x46a8acf0:</text>
<text text-anchor="start" x="251.5" y="-1339.3" font-family="Times,serif" font-size="14.00"> v24 = IntToPtrCastExpr&lt;ptr&gt;((v5 + 16))</text>
<text text-anchor="start" x="251.5" y="-1324.3" font-family="Times,serif" font-size="14.00"> v25 = ExtCastExpr&lt;int32&gt;(*(v24))</text>
<text text-anchor="start" x="251.5" y="-1309.3" font-family="Times,serif" font-size="14.00"> g35 = v25</text>
<text text-anchor="start" x="251.5" y="-1294.3" font-family="Times,serif" font-size="14.00"> v26 = IntToPtrCastExpr&lt;ptr&gt;((v5 + 18))</text>
<text text-anchor="start" x="251.5" y="-1279.3" font-family="Times,serif" font-size="14.00"> v27 = ExtCastExpr&lt;int32&gt;(*(v26))</text>
<text text-anchor="start" x="251.5" y="-1264.3" font-family="Times,serif" font-size="14.00"> v28 = (ExtCastExpr&lt;int32&gt;(*(IntToPtrCastExpr&lt;ptr&gt;((v5 + 14)))) &#45; (v25 &#45; g30))</text>
<text text-anchor="start" x="251.5" y="-1249.3" font-family="Times,serif" font-size="14.00"> v29 = v28</text>
</g>
<!-- Node0x3807fa30&#45;&gt;Node0x3fa22f60 -->
<g id="edge6" class="edge"><title>Node0x3807fa30&#45;&gt;Node0x3fa22f60</title>
<path fill="none" stroke="black" d="M544.5,-1518.91C544.5,-1489.29 544.5,-1428.83 544.5,-1379.96"/>
<polygon fill="black" stroke="black" points="548,-1379.72 544.5,-1369.72 541,-1379.72 548,-1379.72"/>
<text text-anchor="middle" x="571.5" y="-1391.8" font-family="Times,serif" font-size="14.00">v8 != 0</text>
</g>
<!-- Node0x38080330 -->
<g id="node8" class="node"><title>Node0x38080330</title>
<polygon fill="none" stroke="black" points="342,-97.5 342,-225.5 835,-225.5 835,-97.5 342,-97.5"/>
<text text-anchor="start" x="350" y="-210.3" font-family="Times,serif" font-size="14.00">0x6dc92f0:</text>
<text text-anchor="start" x="350" y="-195.3" font-family="Times,serif" font-size="14.00"> g37 = 1</text>
<text text-anchor="start" x="350" y="-180.3" font-family="Times,serif" font-size="14.00"> *(IntToPtrCastExpr&lt;ptr&gt;((v5 + 36))) = 1</text>
<text text-anchor="start" x="350" y="-165.3" font-family="Times,serif" font-size="14.00"> v11 = g34</text>
<text text-anchor="start" x="350" y="-150.3" font-family="Times,serif" font-size="14.00"> g38 = *(IntToPtrCastExpr&lt;ptr&gt;((v11 + 4)))</text>
<text text-anchor="start" x="350" y="-135.3" font-family="Times,serif" font-size="14.00"> g32 = *(IntToPtrCastExpr&lt;ptr&gt;((v11 + 8)))</text>
<text text-anchor="start" x="350" y="-120.3" font-family="Times,serif" font-size="14.00"> g34 = *(IntToPtrCastExpr&lt;ptr&gt;((v11 + 12)))</text>
<text text-anchor="start" x="350" y="-105.3" font-family="Times,serif" font-size="14.00"> IntToPtrCastExpr&lt;ptr&gt;(*(IntToPtrCastExpr&lt;ptr&gt;((v11 + 16))))()</text>
</g>
<!-- Node0x3807fa30&#45;&gt;Node0x38080330 -->
<g id="edge7" class="edge"><title>Node0x3807fa30&#45;&gt;Node0x38080330</title>
<path fill="none" stroke="black" d="M596.631,-1525.91C689.4,-1502.78 873.5,-1440.05 873.5,-1306.5 873.5,-1306.5 873.5,-1306.5 873.5,-326.5 873.5,-285.451 851.015,-254.524 818.676,-231.27"/>
<polygon fill="black" stroke="black" points="820.483,-228.266 810.249,-225.522 816.538,-234.048 820.483,-228.266"/>
<text text-anchor="middle" x="903.5" y="-700.8" font-family="Times,serif" font-size="14.00">v8 == 0</text>
</g>
<!-- Node0x30e5b860 -->
<g id="node9" class="node"><title>Node0x30e5b860</title>
<polygon fill="none" stroke="black" points="109,-1151.5 109,-1189.5 206,-1189.5 206,-1151.5 109,-1151.5"/>
<text text-anchor="start" x="117" y="-1174.3" font-family="Times,serif" font-size="14.00">0x6dcf070:</text>
<text text-anchor="start" x="117" y="-1159.3" font-family="Times,serif" font-size="14.00"> v20 = v15</text>
</g>
<!-- Node0x3fa1df10&#45;&gt;Node0x30e5b860 -->
<g id="edge8" class="edge"><title>Node0x3fa1df10&#45;&gt;Node0x30e5b860</title>
<path fill="none" stroke="black" d="M157.5,-1278.86C157.5,-1256.21 157.5,-1223.23 157.5,-1199.82"/>
<polygon fill="black" stroke="black" points="161,-1199.8 157.5,-1189.8 154,-1199.8 161,-1199.8"/>
<text text-anchor="middle" x="200.5" y="-1211.8" font-family="Times,serif" font-size="14.00">v18 &gt;= v15</text>
</g>
<!-- Node0xf898210 -->
<g id="node10" class="node"><title>Node0xf898210</title>
<polygon fill="none" stroke="black" points="224,-1151.5 224,-1189.5 321,-1189.5 321,-1151.5 224,-1151.5"/>
<text text-anchor="start" x="232" y="-1174.3" font-family="Times,serif" font-size="14.00">0x6dcf310:</text>
<text text-anchor="start" x="232" y="-1159.3" font-family="Times,serif" font-size="14.00"> v20 = v18</text>
</g>
<!-- Node0x3fa1df10&#45;&gt;Node0xf898210 -->
<g id="edge9" class="edge"><title>Node0x3fa1df10&#45;&gt;Node0xf898210</title>
<path fill="none" stroke="black" d="M191.663,-1278.88C209.864,-1264.01 231.692,-1244.08 247.5,-1223 252.986,-1215.68 257.757,-1206.98 261.62,-1198.82"/>
<polygon fill="black" stroke="black" points="264.848,-1200.18 265.724,-1189.62 258.454,-1197.32 264.848,-1200.18"/>
<text text-anchor="middle" x="294.5" y="-1211.8" font-family="Times,serif" font-size="14.00">v18 &lt; v15</text>
</g>
<!-- Node0x2a3eac10 -->
<g id="node11" class="node"><title>Node0x2a3eac10</title>
<polygon fill="none" stroke="black" points="479.5,-1151.5 479.5,-1189.5 615.5,-1189.5 615.5,-1151.5 479.5,-1151.5"/>
<text text-anchor="start" x="487.5" y="-1174.3" font-family="Times,serif" font-size="14.00">0x6dc34a0:</text>
<text text-anchor="start" x="487.5" y="-1159.3" font-family="Times,serif" font-size="14.00"> if (v28 &gt;= v27):</text>
</g>
<!-- Node0x3fa22f60&#45;&gt;Node0x2a3eac10 -->
<g id="edge10" class="edge"><title>Node0x3fa22f60&#45;&gt;Node0x2a3eac10</title>
<path fill="none" stroke="black" d="M545.93,-1241.12C546.256,-1226.67 546.586,-1212.03 546.859,-1199.93"/>
<polygon fill="black" stroke="black" points="550.365,-1199.68 547.092,-1189.6 543.367,-1199.52 550.365,-1199.68"/>
</g>
<!-- Node0x3fa1fa50 -->
<g id="node12" class="node"><title>Node0x3fa1fa50</title>
<polygon fill="none" stroke="black" points="336.5,-23.5 336.5,-59.5 390.5,-59.5 390.5,-23.5 336.5,-23.5"/>
<text text-anchor="start" x="344.5" y="-37.8" font-family="Times,serif" font-size="14.00">exit:</text>
</g>
<!-- Node0x38080330&#45;&gt;Node0x3fa1fa50 -->
<g id="edge11" class="edge"><title>Node0x38080330&#45;&gt;Node0x3fa1fa50</title>
<path fill="none" stroke="black" d="M468.096,-97.3546C443.247,-84.3231 418.916,-71.5626 399.982,-61.6329"/>
<polygon fill="black" stroke="black" points="401.353,-58.3998 390.871,-56.8548 398.102,-64.599 401.353,-58.3998"/>
</g>
<!-- Node0x3fa1cb30 -->
<g id="node13" class="node"><title>Node0x3fa1cb30</title>
<polygon fill="none" stroke="black" points="0,-806.5 0,-1099.5 493,-1099.5 493,-806.5 0,-806.5"/>
<text text-anchor="start" x="8" y="-1084.3" font-family="Times,serif" font-size="14.00">0x6dcfac0:</text>
<text text-anchor="start" x="8" y="-1069.3" font-family="Times,serif" font-size="14.00"> g36 = (v15 &#45; v20)</text>
<text text-anchor="start" x="8" y="-1054.3" font-family="Times,serif" font-size="14.00"> *(v12) = TruncCastExpr&lt;int16&gt;((v13 &#45; v17))</text>
<text text-anchor="start" x="8" y="-1039.3" font-family="Times,serif" font-size="14.00"> v21 = g36</text>
<text text-anchor="start" x="8" y="-1024.3" font-family="Times,serif" font-size="14.00"> v22 = (v21 % 65536)</text>
<text text-anchor="start" x="8" y="-1009.3" font-family="Times,serif" font-size="14.00"> g36 = v22</text>
<text text-anchor="start" x="8" y="-994.3" font-family="Times,serif" font-size="14.00"> v23 = *(IntToPtrCastExpr&lt;ptr&gt;((v5 + 8)))</text>
<text text-anchor="start" x="8" y="-979.3" font-family="Times,serif" font-size="14.00"> g30 = ((256 * ((g30 + g29) &#45; v22)) + v23)</text>
<text text-anchor="start" x="8" y="-964.3" font-family="Times,serif" font-size="14.00"> g29 = ((256 * ExtCastExpr&lt;int32&gt;(*(v12))) + v23)</text>
<text text-anchor="start" x="8" y="-949.3" font-family="Times,serif" font-size="14.00"> *(v14) = TruncCastExpr&lt;int16&gt;(v21)</text>
<text text-anchor="start" x="8" y="-934.3" font-family="Times,serif" font-size="14.00"> memmove(v6, IntToPtrCastExpr&lt;ptr&gt;(v23), (256 * g36))</text>
<text text-anchor="start" x="8" y="-919.3" font-family="Times,serif" font-size="14.00"> g37 = 1</text>
<text text-anchor="start" x="8" y="-904.3" font-family="Times,serif" font-size="14.00"> *(IntToPtrCastExpr&lt;ptr&gt;((v5 + 36))) = 1</text>
<text text-anchor="start" x="8" y="-889.3" font-family="Times,serif" font-size="14.00"> v11 = g34</text>
<text text-anchor="start" x="8" y="-874.3" font-family="Times,serif" font-size="14.00"> g38 = *(IntToPtrCastExpr&lt;ptr&gt;((v11 + 4)))</text>
<text text-anchor="start" x="8" y="-859.3" font-family="Times,serif" font-size="14.00"> g32 = *(IntToPtrCastExpr&lt;ptr&gt;((v11 + 8)))</text>
<text text-anchor="start" x="8" y="-844.3" font-family="Times,serif" font-size="14.00"> g34 = *(IntToPtrCastExpr&lt;ptr&gt;((v11 + 12)))</text>
<text text-anchor="start" x="8" y="-829.3" font-family="Times,serif" font-size="14.00"> IntToPtrCastExpr&lt;ptr&gt;(*(IntToPtrCastExpr&lt;ptr&gt;((v11 + 16))))()</text>
<text text-anchor="start" x="8" y="-814.3" font-family="Times,serif" font-size="14.00"> return</text>
</g>
<!-- Node0x30e5b860&#45;&gt;Node0x3fa1cb30 -->
<g id="edge12" class="edge"><title>Node0x30e5b860&#45;&gt;Node0x3fa1cb30</title>
<path fill="none" stroke="black" d="M164.935,-1151.5C169.377,-1140.74 175.49,-1125.94 182.39,-1109.23"/>
<polygon fill="black" stroke="black" points="185.716,-1110.35 186.299,-1099.77 179.247,-1107.67 185.716,-1110.35"/>
</g>
<!-- Node0xf898210&#45;&gt;Node0x3fa1cb30 -->
<g id="edge13" class="edge"><title>Node0xf898210&#45;&gt;Node0x3fa1cb30</title>
<path fill="none" stroke="black" d="M270.328,-1151.5C269.054,-1140.94 267.31,-1126.49 265.34,-1110.16"/>
<polygon fill="black" stroke="black" points="268.76,-1109.28 264.087,-1099.77 261.81,-1110.12 268.76,-1109.28"/>
</g>
<!-- Node0x443b5f90 -->
<g id="node14" class="node"><title>Node0x443b5f90</title>
<polygon fill="none" stroke="black" points="511,-934 511,-972 612,-972 612,-934 511,-934"/>
<text text-anchor="start" x="519" y="-956.8" font-family="Times,serif" font-size="14.00">0x6dc3290:</text>
<text text-anchor="start" x="519" y="-941.8" font-family="Times,serif" font-size="14.00"> v29 = v27</text>
</g>
<!-- Node0x2a3eac10&#45;&gt;Node0x443b5f90 -->
<g id="edge14" class="edge"><title>Node0x2a3eac10&#45;&gt;Node0x443b5f90</title>
<path fill="none" stroke="black" d="M547.588,-1151.38C547.702,-1141.5 547.954,-1129.08 548.5,-1118 550.85,-1070.33 555.671,-1015.01 558.736,-982.345"/>
<polygon fill="black" stroke="black" points="562.241,-982.465 559.702,-972.179 555.272,-981.803 562.241,-982.465"/>
<text text-anchor="middle" x="591.5" y="-1121.8" font-family="Times,serif" font-size="14.00">v28 &gt;= v27</text>
</g>
<!-- Node0x3fa1d1c0 -->
<g id="node15" class="node"><title>Node0x3fa1d1c0</title>
<polygon fill="none" stroke="black" points="460,-640.5 460,-768.5 765,-768.5 765,-640.5 460,-640.5"/>
<text text-anchor="start" x="468" y="-753.3" font-family="Times,serif" font-size="14.00">0x465adaf0:</text>
<text text-anchor="start" x="468" y="-738.3" font-family="Times,serif" font-size="14.00"> v30 = (((v29 / &#45;2147483648) &#45; 1) &amp; v29)</text>
<text text-anchor="start" x="468" y="-723.3" font-family="Times,serif" font-size="14.00"> v31 = (v30 % 65536)</text>
<text text-anchor="start" x="468" y="-708.3" font-family="Times,serif" font-size="14.00"> g30 = v31</text>
<text text-anchor="start" x="468" y="-693.3" font-family="Times,serif" font-size="14.00"> g8 = False</text>
<text text-anchor="start" x="468" y="-678.3" font-family="Times,serif" font-size="14.00"> g7 = False</text>
<text text-anchor="start" x="468" y="-663.3" font-family="Times,serif" font-size="14.00"> g9 = (v31 == 0)</text>
<text text-anchor="start" x="468" y="-648.3" font-family="Times,serif" font-size="14.00"> v32</text>
</g>
<!-- Node0x2a3eac10&#45;&gt;Node0x3fa1d1c0 -->
<g id="edge15" class="edge"><title>Node0x2a3eac10&#45;&gt;Node0x3fa1d1c0</title>
<path fill="none" stroke="black" d="M614.533,-1151.46C622.401,-1146.68 629.421,-1140.64 634.5,-1133 705.466,-1026.27 670.828,-869.319 640.667,-778.256"/>
<polygon fill="black" stroke="black" points="643.911,-776.923 637.393,-768.57 637.28,-779.164 643.911,-776.923"/>
<text text-anchor="middle" x="712.5" y="-949.3" font-family="Times,serif" font-size="14.00">v28 &lt; v27</text>
</g>
<!-- Node0x3fa1cb30&#45;&gt;Node0x3fa1fa50 -->
<g id="edge16" class="edge"><title>Node0x3fa1cb30&#45;&gt;Node0x3fa1fa50</title>
<path fill="none" stroke="black" d="M273.289,-806.472C277.503,-773.396 280.5,-738.332 280.5,-705.5 280.5,-705.5 280.5,-705.5 280.5,-160.5 280.5,-122.696 309.353,-88.4501 333.036,-66.7086"/>
<polygon fill="black" stroke="black" points="335.646,-69.0731 340.82,-59.8277 331.009,-63.8284 335.646,-69.0731"/>
</g>
<!-- Node0x443b5f90&#45;&gt;Node0x3fa1d1c0 -->
<g id="edge17" class="edge"><title>Node0x443b5f90&#45;&gt;Node0x3fa1d1c0</title>
<path fill="none" stroke="black" d="M565.25,-933.874C571.942,-901.531 586.282,-832.221 597.419,-778.39"/>
<polygon fill="black" stroke="black" points="600.86,-779.033 599.459,-768.531 594.006,-777.615 600.86,-779.033"/>
</g>
<!-- Node0x3fa21e80 -->
<g id="node16" class="node"><title>Node0x3fa21e80</title>
<polygon fill="none" stroke="black" points="553,-549.5 553,-602.5 672,-602.5 672,-549.5 553,-549.5"/>
<text text-anchor="start" x="561" y="-587.3" font-family="Times,serif" font-size="14.00">0x6dc5530:</text>
<text text-anchor="start" x="561" y="-572.3" font-family="Times,serif" font-size="14.00"> if (v31 == 0):</text>
<text text-anchor="start" x="561" y="-557.3" font-family="Times,serif" font-size="14.00"> else:</text>
</g>
<!-- Node0x3fa1d1c0&#45;&gt;Node0x3fa21e80 -->
<g id="edge18" class="edge"><title>Node0x3fa1d1c0&#45;&gt;Node0x3fa21e80</title>
<path fill="none" stroke="black" d="M612.5,-640.25C612.5,-630.765 612.5,-621.28 612.5,-612.648"/>
<polygon fill="black" stroke="black" points="616,-612.599 612.5,-602.599 609,-612.599 616,-612.599"/>
</g>
<!-- Node0x3fa1e4f0 -->
<g id="node17" class="node"><title>Node0x3fa1e4f0</title>
<polygon fill="none" stroke="black" points="413,-437 413,-490 512,-490 512,-437 413,-437"/>
<text text-anchor="start" x="421" y="-474.8" font-family="Times,serif" font-size="14.00">0x6dc4ae0:</text>
<text text-anchor="start" x="421" y="-459.8" font-family="Times,serif" font-size="14.00"> *(v26) = 0</text>
<text text-anchor="start" x="421" y="-444.8" font-family="Times,serif" font-size="14.00"> v32 = g30</text>
</g>
<!-- Node0x3fa21e80&#45;&gt;Node0x3fa1e4f0 -->
<g id="edge19" class="edge"><title>Node0x3fa21e80&#45;&gt;Node0x3fa1e4f0</title>
<path fill="none" stroke="black" d="M577.71,-549.371C556.205,-533.529 528.437,-513.074 505.551,-496.214"/>
<polygon fill="black" stroke="black" points="507.488,-493.294 497.361,-490.181 503.336,-498.93 507.488,-493.294"/>
<text text-anchor="middle" x="585" y="-519.8" font-family="Times,serif" font-size="14.00">v31 == 0</text>
</g>
<!-- Node0x3fa1e270 -->
<g id="node18" class="node"><title>Node0x3fa1e270</title>
<polygon fill="none" stroke="black" points="530.5,-429.5 530.5,-497.5 824.5,-497.5 824.5,-429.5 530.5,-429.5"/>
<text text-anchor="start" x="538.5" y="-482.3" font-family="Times,serif" font-size="14.00">0x6dc5ac0:</text>
<text text-anchor="start" x="538.5" y="-467.3" font-family="Times,serif" font-size="14.00"> g37 = (65536 * (v25 &#45; g29))</text>
<text text-anchor="start" x="538.5" y="-452.3" font-family="Times,serif" font-size="14.00"> *(v26) = TruncCastExpr&lt;int16&gt;(v30)</text>
<text text-anchor="start" x="538.5" y="-437.3" font-family="Times,serif" font-size="14.00"> v32 = (g37 / 65536)</text>
</g>
<!-- Node0x3fa21e80&#45;&gt;Node0x3fa1e270 -->
<g id="edge20" class="edge"><title>Node0x3fa21e80&#45;&gt;Node0x3fa1e270</title>
<path fill="none" stroke="black" d="M627.576,-549.371C635.092,-536.594 644.373,-520.817 652.885,-506.345"/>
<polygon fill="black" stroke="black" points="656.01,-507.935 658.064,-497.541 649.977,-504.386 656.01,-507.935"/>
<text text-anchor="middle" x="678" y="-519.8" font-family="Times,serif" font-size="14.00">v31 != 0</text>
</g>
<!-- Node0x3fa23130 -->
<g id="node19" class="node"><title>Node0x3fa23130</title>
<polygon fill="none" stroke="black" points="373,-263.5 373,-391.5 804,-391.5 804,-263.5 373,-263.5"/>
<text text-anchor="start" x="381" y="-376.3" font-family="Times,serif" font-size="14.00">0x5f95f10:</text>
<text text-anchor="start" x="381" y="-361.3" font-family="Times,serif" font-size="14.00"> v33 = *(IntToPtrCastExpr&lt;ptr&gt;((v5 + 8)))</text>
<text text-anchor="start" x="381" y="-346.3" font-family="Times,serif" font-size="14.00"> g37 = v32</text>
<text text-anchor="start" x="381" y="-331.3" font-family="Times,serif" font-size="14.00"> g36 = ExtCastExpr&lt;int32&gt;(*(v26))</text>
<text text-anchor="start" x="381" y="-316.3" font-family="Times,serif" font-size="14.00"> g30 = ((256 * g35) + v33)</text>
<text text-anchor="start" x="381" y="-301.3" font-family="Times,serif" font-size="14.00"> *(v24) = TruncCastExpr&lt;int16&gt;(v32)</text>
<text text-anchor="start" x="381" y="-286.3" font-family="Times,serif" font-size="14.00"> g29 = ((256 * g37) + v33)</text>
<text text-anchor="start" x="381" y="-271.3" font-family="Times,serif" font-size="14.00"> memmove(v6, IntToPtrCastExpr&lt;ptr&gt;(v33), (256 * g36))</text>
</g>
<!-- Node0x3fa1e4f0&#45;&gt;Node0x3fa23130 -->
<g id="edge21" class="edge"><title>Node0x3fa1e4f0&#45;&gt;Node0x3fa23130</title>
<path fill="none" stroke="black" d="M486.496,-436.98C496.738,-426.088 509.247,-412.785 521.949,-399.276"/>
<polygon fill="black" stroke="black" points="524.712,-401.447 529.012,-391.765 519.612,-396.652 524.712,-401.447"/>
</g>
<!-- Node0x3fa1e270&#45;&gt;Node0x3fa23130 -->
<g id="edge22" class="edge"><title>Node0x3fa1e270&#45;&gt;Node0x3fa23130</title>
<path fill="none" stroke="black" d="M655.5,-429.376C649.548,-420.415 642.868,-410.357 636.091,-400.154"/>
<polygon fill="black" stroke="black" points="638.838,-397.964 630.39,-391.57 633.007,-401.837 638.838,-397.964"/>
</g>
<!-- Node0x3fa23130&#45;&gt;Node0x38080330 -->
<g id="edge23" class="edge"><title>Node0x3fa23130&#45;&gt;Node0x38080330</title>
<path fill="none" stroke="black" d="M588.5,-263.093C588.5,-254.187 588.5,-244.971 588.5,-235.898"/>
<polygon fill="black" stroke="black" points="592,-235.738 588.5,-225.738 585,-235.738 592,-235.738"/>
</g>
</g>
</svg>
