<?xml version="1.0" encoding="UTF-8" standalone="no"?>
<!DOCTYPE svg PUBLIC "-//W3C//DTD SVG 1.1//EN"
 "http://www.w3.org/Graphics/SVG/1.1/DTD/svg11.dtd">
<!-- Generated by graphviz version 2.38.0 (20140413.2041)
 -->
<!-- Title: Control&#45;flow graph for function &#39;function_1271c()&#39;. Pages: 1 -->
<svg width="1762pt" height="3129pt"
 viewBox="0.00 0.00 1762.00 3129.00" xmlns="http://www.w3.org/2000/svg" xmlns:xlink="http://www.w3.org/1999/xlink">
<g id="graph0" class="graph" transform="scale(1 1) rotate(0) translate(4 3125)">
<title>Control&#45;flow graph for function &#39;function_1271c()&#39;.</title>
<polygon fill="white" stroke="none" points="-4,4 -4,-3125 1758,-3125 1758,4 -4,4"/>
<text text-anchor="middle" x="877" y="-7.8" font-family="Times,serif" font-size="14.00">Control&#45;flow graph for function &#39;function_1271c()&#39;.</text>
<!-- Node0x1c72bca0 -->
<g id="node1" class="node"><title>Node0x1c72bca0</title>
<polygon fill="none" stroke="black" points="303,-3084.5 303,-3120.5 362,-3120.5 362,-3084.5 303,-3084.5"/>
<text text-anchor="start" x="311" y="-3098.8" font-family="Times,serif" font-size="14.00">entry:</text>
</g>
<!-- Node0x27daff80 -->
<g id="node2" class="node"><title>Node0x27daff80</title>
<polygon fill="none" stroke="black" points="164,-2753.5 164,-3046.5 501,-3046.5 501,-2753.5 164,-2753.5"/>
<text text-anchor="start" x="172" y="-3031.3" font-family="Times,serif" font-size="14.00">0x13f4b570:</text>
<text text-anchor="start" x="172" y="-3016.3" font-family="Times,serif" font-size="14.00"> v1 = g29</text>
<text text-anchor="start" x="172" y="-3001.3" font-family="Times,serif" font-size="14.00"> v2 = *(IntToPtrCastExpr&lt;ptr&gt;((v1 + 116)))</text>
<text text-anchor="start" x="172" y="-2986.3" font-family="Times,serif" font-size="14.00"> g37 = v2</text>
<text text-anchor="start" x="172" y="-2971.3" font-family="Times,serif" font-size="14.00"> g6 = True</text>
<text text-anchor="start" x="172" y="-2956.3" font-family="Times,serif" font-size="14.00"> g8 = False</text>
<text text-anchor="start" x="172" y="-2941.3" font-family="Times,serif" font-size="14.00"> g7 = (v2 &lt; 0)</text>
<text text-anchor="start" x="172" y="-2926.3" font-family="Times,serif" font-size="14.00"> g9 = (v2 == 0)</text>
<text text-anchor="start" x="172" y="-2911.3" font-family="Times,serif" font-size="14.00"> v3 = g38</text>
<text text-anchor="start" x="172" y="-2896.3" font-family="Times,serif" font-size="14.00"> v4 = g39</text>
<text text-anchor="start" x="172" y="-2881.3" font-family="Times,serif" font-size="14.00"> v5 = g40</text>
<text text-anchor="start" x="172" y="-2866.3" font-family="Times,serif" font-size="14.00"> v6 = g41</text>
<text text-anchor="start" x="172" y="-2851.3" font-family="Times,serif" font-size="14.00"> v7 = g42</text>
<text text-anchor="start" x="172" y="-2836.3" font-family="Times,serif" font-size="14.00"> v8 = g31</text>
<text text-anchor="start" x="172" y="-2821.3" font-family="Times,serif" font-size="14.00"> v9 = g32</text>
<text text-anchor="start" x="172" y="-2806.3" font-family="Times,serif" font-size="14.00"> g41 = v1</text>
<text text-anchor="start" x="172" y="-2791.3" font-family="Times,serif" font-size="14.00"> v10 = g30</text>
<text text-anchor="start" x="172" y="-2776.3" font-family="Times,serif" font-size="14.00"> g31 = v10</text>
<text text-anchor="start" x="172" y="-2761.3" font-family="Times,serif" font-size="14.00"> v11</text>
</g>
<!-- Node0x1c72bca0&#45;&gt;Node0x27daff80 -->
<g id="edge1" class="edge"><title>Node0x1c72bca0&#45;&gt;Node0x27daff80</title>
<path fill="none" stroke="black" d="M332.5,-3084.41C332.5,-3077.01 332.5,-3067.6 332.5,-3056.97"/>
<polygon fill="black" stroke="black" points="336,-3056.89 332.5,-3046.89 329,-3056.89 336,-3056.89"/>
</g>
<!-- Node0x2cf0a7e0 -->
<g id="node3" class="node"><title>Node0x2cf0a7e0</title>
<polygon fill="none" stroke="black" points="277.5,-2677.5 277.5,-2715.5 387.5,-2715.5 387.5,-2677.5 277.5,-2677.5"/>
<text text-anchor="start" x="285.5" y="-2700.3" font-family="Times,serif" font-size="14.00">0x7e77d60:</text>
<text text-anchor="start" x="285.5" y="-2685.3" font-family="Times,serif" font-size="14.00"> if (v2 == 0):</text>
</g>
<!-- Node0x27daff80&#45;&gt;Node0x2cf0a7e0 -->
<g id="edge2" class="edge"><title>Node0x27daff80&#45;&gt;Node0x2cf0a7e0</title>
<path fill="none" stroke="black" d="M332.5,-2753.36C332.5,-2743.25 332.5,-2733.89 332.5,-2725.85"/>
<polygon fill="black" stroke="black" points="336,-2725.73 332.5,-2715.73 329,-2725.73 336,-2725.73"/>
</g>
<!-- Node0x27157ec0 -->
<g id="node4" class="node"><title>Node0x27157ec0</title>
<polygon fill="none" stroke="black" points="0,-2290.5 0,-2493.5 493,-2493.5 493,-2290.5 0,-2290.5"/>
<text text-anchor="start" x="8" y="-2478.3" font-family="Times,serif" font-size="14.00">0x7e741e0:</text>
<text text-anchor="start" x="8" y="-2463.3" font-family="Times,serif" font-size="14.00"> g29 = &#45;1</text>
<text text-anchor="start" x="8" y="-2448.3" font-family="Times,serif" font-size="14.00"> v11 = g34</text>
<text text-anchor="start" x="8" y="-2433.3" font-family="Times,serif" font-size="14.00"> g38 = *(IntToPtrCastExpr&lt;ptr&gt;(v11))</text>
<text text-anchor="start" x="8" y="-2418.3" font-family="Times,serif" font-size="14.00"> g39 = *(IntToPtrCastExpr&lt;ptr&gt;((v11 + 4)))</text>
<text text-anchor="start" x="8" y="-2403.3" font-family="Times,serif" font-size="14.00"> g40 = *(IntToPtrCastExpr&lt;ptr&gt;((v11 + 8)))</text>
<text text-anchor="start" x="8" y="-2388.3" font-family="Times,serif" font-size="14.00"> g41 = *(IntToPtrCastExpr&lt;ptr&gt;((v11 + 12)))</text>
<text text-anchor="start" x="8" y="-2373.3" font-family="Times,serif" font-size="14.00"> g42 = *(IntToPtrCastExpr&lt;ptr&gt;((v11 + 16)))</text>
<text text-anchor="start" x="8" y="-2358.3" font-family="Times,serif" font-size="14.00"> g31 = *(IntToPtrCastExpr&lt;ptr&gt;((v11 + 20)))</text>
<text text-anchor="start" x="8" y="-2343.3" font-family="Times,serif" font-size="14.00"> g32 = *(IntToPtrCastExpr&lt;ptr&gt;((v11 + 24)))</text>
<text text-anchor="start" x="8" y="-2328.3" font-family="Times,serif" font-size="14.00"> g34 = *(IntToPtrCastExpr&lt;ptr&gt;((v11 + 28)))</text>
<text text-anchor="start" x="8" y="-2313.3" font-family="Times,serif" font-size="14.00"> IntToPtrCastExpr&lt;ptr&gt;(*(IntToPtrCastExpr&lt;ptr&gt;((v11 + 32))))()</text>
<text text-anchor="start" x="8" y="-2298.3" font-family="Times,serif" font-size="14.00"> return</text>
</g>
<!-- Node0x2cf0a7e0&#45;&gt;Node0x27157ec0 -->
<g id="edge3" class="edge"><title>Node0x2cf0a7e0&#45;&gt;Node0x27157ec0</title>
<path fill="none" stroke="black" d="M323.792,-2677.15C321.249,-2671.42 318.594,-2665.01 316.5,-2659 298.973,-2608.69 283.429,-2551.71 271.467,-2503.43"/>
<polygon fill="black" stroke="black" points="274.832,-2502.46 269.046,-2493.58 268.034,-2504.13 274.832,-2502.46"/>
<text text-anchor="middle" x="346.5" y="-2647.8" font-family="Times,serif" font-size="14.00">v2 == 0</text>
</g>
<!-- Node0xf701cd0 -->
<g id="node5" class="node"><title>Node0xf701cd0</title>
<polygon fill="none" stroke="black" points="319.5,-2512.5 319.5,-2625.5 665.5,-2625.5 665.5,-2512.5 319.5,-2512.5"/>
<text text-anchor="start" x="327.5" y="-2610.3" font-family="Times,serif" font-size="14.00">0x149cd440:</text>
<text text-anchor="start" x="327.5" y="-2595.3" font-family="Times,serif" font-size="14.00"> v12 = *(IntToPtrCastExpr&lt;ptr&gt;((v1 + 112)))</text>
<text text-anchor="start" x="327.5" y="-2580.3" font-family="Times,serif" font-size="14.00"> g36 = v12</text>
<text text-anchor="start" x="327.5" y="-2565.3" font-family="Times,serif" font-size="14.00"> g6 = True</text>
<text text-anchor="start" x="327.5" y="-2550.3" font-family="Times,serif" font-size="14.00"> g8 = False</text>
<text text-anchor="start" x="327.5" y="-2535.3" font-family="Times,serif" font-size="14.00"> g7 = (v12 &lt; 0)</text>
<text text-anchor="start" x="327.5" y="-2520.3" font-family="Times,serif" font-size="14.00"> g9 = (v12 == 0)</text>
</g>
<!-- Node0x2cf0a7e0&#45;&gt;Node0xf701cd0 -->
<g id="edge4" class="edge"><title>Node0x2cf0a7e0&#45;&gt;Node0xf701cd0</title>
<path fill="none" stroke="black" d="M355.765,-2677.25C371.213,-2665.13 392.475,-2648.46 413.631,-2631.86"/>
<polygon fill="black" stroke="black" points="416.014,-2634.44 421.722,-2625.52 411.694,-2628.93 416.014,-2634.44"/>
<text text-anchor="middle" x="420.5" y="-2647.8" font-family="Times,serif" font-size="14.00">v2 != 0</text>
</g>
<!-- Node0x2715ad20 -->
<g id="node6" class="node"><title>Node0x2715ad20</title>
<polygon fill="none" stroke="black" points="454.5,-23.5 454.5,-59.5 508.5,-59.5 508.5,-23.5 454.5,-23.5"/>
<text text-anchor="start" x="462.5" y="-37.8" font-family="Times,serif" font-size="14.00">exit:</text>
</g>
<!-- Node0x27157ec0&#45;&gt;Node0x2715ad20 -->
<g id="edge5" class="edge"><title>Node0x27157ec0&#45;&gt;Node0x2715ad20</title>
<path fill="none" stroke="black" d="M246.5,-2290.12C246.5,-2263.57 246.5,-2234.96 246.5,-2208.5 246.5,-2208.5 246.5,-2208.5 246.5,-295.5 246.5,-180.366 378.763,-95.5888 444.838,-60.4198"/>
<polygon fill="black" stroke="black" points="446.838,-63.3239 454.083,-55.5932 443.598,-57.1187 446.838,-63.3239"/>
</g>
<!-- Node0x27155640 -->
<g id="node7" class="node"><title>Node0x27155640</title>
<polygon fill="none" stroke="black" points="449,-2233.5 449,-2271.5 568,-2271.5 568,-2233.5 449,-2233.5"/>
<text text-anchor="start" x="457" y="-2256.3" font-family="Times,serif" font-size="14.00">0x7e7c3a0:</text>
<text text-anchor="start" x="457" y="-2241.3" font-family="Times,serif" font-size="14.00"> if (v12 == 0):</text>
</g>
<!-- Node0xf701cd0&#45;&gt;Node0x27155640 -->
<g id="edge6" class="edge"><title>Node0xf701cd0&#45;&gt;Node0x27155640</title>
<path fill="none" stroke="black" d="M495.324,-2512.5C498.758,-2445 504.422,-2333.67 507.062,-2281.77"/>
<polygon fill="black" stroke="black" points="510.565,-2281.8 507.577,-2271.63 503.574,-2281.44 510.565,-2281.8"/>
</g>
<!-- Node0x3e8ae5c0 -->
<g id="node8" class="node"><title>Node0x3e8ae5c0</title>
<polygon fill="none" stroke="black" points="262,-1846.5 262,-2049.5 755,-2049.5 755,-1846.5 262,-1846.5"/>
<text text-anchor="start" x="270" y="-2034.3" font-family="Times,serif" font-size="14.00">0x7e78d90:</text>
<text text-anchor="start" x="270" y="-2019.3" font-family="Times,serif" font-size="14.00"> g29 = &#45;1</text>
<text text-anchor="start" x="270" y="-2004.3" font-family="Times,serif" font-size="14.00"> v11 = g34</text>
<text text-anchor="start" x="270" y="-1989.3" font-family="Times,serif" font-size="14.00"> g38 = *(IntToPtrCastExpr&lt;ptr&gt;(v11))</text>
<text text-anchor="start" x="270" y="-1974.3" font-family="Times,serif" font-size="14.00"> g39 = *(IntToPtrCastExpr&lt;ptr&gt;((v11 + 4)))</text>
<text text-anchor="start" x="270" y="-1959.3" font-family="Times,serif" font-size="14.00"> g40 = *(IntToPtrCastExpr&lt;ptr&gt;((v11 + 8)))</text>
<text text-anchor="start" x="270" y="-1944.3" font-family="Times,serif" font-size="14.00"> g41 = *(IntToPtrCastExpr&lt;ptr&gt;((v11 + 12)))</text>
<text text-anchor="start" x="270" y="-1929.3" font-family="Times,serif" font-size="14.00"> g42 = *(IntToPtrCastExpr&lt;ptr&gt;((v11 + 16)))</text>
<text text-anchor="start" x="270" y="-1914.3" font-family="Times,serif" font-size="14.00"> g31 = *(IntToPtrCastExpr&lt;ptr&gt;((v11 + 20)))</text>
<text text-anchor="start" x="270" y="-1899.3" font-family="Times,serif" font-size="14.00"> g32 = *(IntToPtrCastExpr&lt;ptr&gt;((v11 + 24)))</text>
<text text-anchor="start" x="270" y="-1884.3" font-family="Times,serif" font-size="14.00"> g34 = *(IntToPtrCastExpr&lt;ptr&gt;((v11 + 28)))</text>
<text text-anchor="start" x="270" y="-1869.3" font-family="Times,serif" font-size="14.00"> IntToPtrCastExpr&lt;ptr&gt;(*(IntToPtrCastExpr&lt;ptr&gt;((v11 + 32))))()</text>
<text text-anchor="start" x="270" y="-1854.3" font-family="Times,serif" font-size="14.00"> return</text>
</g>
<!-- Node0x27155640&#45;&gt;Node0x3e8ae5c0 -->
<g id="edge7" class="edge"><title>Node0x27155640&#45;&gt;Node0x3e8ae5c0</title>
<path fill="none" stroke="black" d="M508.5,-2233.48C508.5,-2199.74 508.5,-2124.58 508.5,-2059.99"/>
<polygon fill="black" stroke="black" points="512,-2059.72 508.5,-2049.72 505,-2059.72 512,-2059.72"/>
<text text-anchor="middle" x="543" y="-2203.8" font-family="Times,serif" font-size="14.00">v12 == 0</text>
</g>
<!-- Node0x151a8210 -->
<g id="node9" class="node"><title>Node0x151a8210</title>
<polygon fill="none" stroke="black" points="571.5,-2068.5 571.5,-2181.5 899.5,-2181.5 899.5,-2068.5 571.5,-2068.5"/>
<text text-anchor="start" x="579.5" y="-2166.3" font-family="Times,serif" font-size="14.00">0x200f2790:</text>
<text text-anchor="start" x="579.5" y="-2151.3" font-family="Times,serif" font-size="14.00"> v13 = *(IntToPtrCastExpr&lt;ptr&gt;((v1 + 4)))</text>
<text text-anchor="start" x="579.5" y="-2136.3" font-family="Times,serif" font-size="14.00"> g37 = v13</text>
<text text-anchor="start" x="579.5" y="-2121.3" font-family="Times,serif" font-size="14.00"> g6 = True</text>
<text text-anchor="start" x="579.5" y="-2106.3" font-family="Times,serif" font-size="14.00"> g8 = False</text>
<text text-anchor="start" x="579.5" y="-2091.3" font-family="Times,serif" font-size="14.00"> g7 = (v13 &lt; 0)</text>
<text text-anchor="start" x="579.5" y="-2076.3" font-family="Times,serif" font-size="14.00"> g9 = (v13 == 0)</text>
</g>
<!-- Node0x27155640&#45;&gt;Node0x151a8210 -->
<g id="edge8" class="edge"><title>Node0x27155640&#45;&gt;Node0x151a8210</title>
<path fill="none" stroke="black" d="M545.86,-2233.36C557.365,-2227.63 570.022,-2221.18 581.5,-2215 598.171,-2206.03 615.69,-2196.24 632.695,-2186.56"/>
<polygon fill="black" stroke="black" points="634.588,-2189.51 641.533,-2181.51 631.115,-2183.43 634.588,-2189.51"/>
<text text-anchor="middle" x="638" y="-2203.8" font-family="Times,serif" font-size="14.00">v12 != 0</text>
</g>
<!-- Node0x3e8ae5c0&#45;&gt;Node0x2715ad20 -->
<g id="edge9" class="edge"><title>Node0x3e8ae5c0&#45;&gt;Node0x2715ad20</title>
<path fill="none" stroke="black" d="M473.753,-1846.29C467.277,-1819.99 462.5,-1791.46 462.5,-1764.5 462.5,-1764.5 462.5,-1764.5 462.5,-295.5 462.5,-213.128 472.639,-116.093 478.104,-69.774"/>
<polygon fill="black" stroke="black" points="481.603,-69.9916 479.32,-59.6455 474.653,-69.1567 481.603,-69.9916"/>
</g>
<!-- Node0x23c5ae80 -->
<g id="node10" class="node"><title>Node0x23c5ae80</title>
<polygon fill="none" stroke="black" points="711,-1789.5 711,-1827.5 830,-1827.5 830,-1789.5 711,-1789.5"/>
<text text-anchor="start" x="719" y="-1812.3" font-family="Times,serif" font-size="14.00">0x7e80cd0:</text>
<text text-anchor="start" x="719" y="-1797.3" font-family="Times,serif" font-size="14.00"> if (v13 == 0):</text>
</g>
<!-- Node0x151a8210&#45;&gt;Node0x23c5ae80 -->
<g id="edge10" class="edge"><title>Node0x151a8210&#45;&gt;Node0x23c5ae80</title>
<path fill="none" stroke="black" d="M752.742,-2068.13C754.201,-2062.05 755.499,-2055.93 756.5,-2050 769.306,-1974.18 770.939,-1883.23 770.842,-1837.98"/>
<polygon fill="black" stroke="black" points="774.341,-1837.74 770.789,-1827.75 767.341,-1837.77 774.341,-1837.74"/>
</g>
<!-- Node0xf701d10 -->
<g id="node11" class="node"><title>Node0xf701d10</title>
<polygon fill="none" stroke="black" points="478,-1402.5 478,-1605.5 971,-1605.5 971,-1402.5 478,-1402.5"/>
<text text-anchor="start" x="486" y="-1590.3" font-family="Times,serif" font-size="14.00">0x7e7d460:</text>
<text text-anchor="start" x="486" y="-1575.3" font-family="Times,serif" font-size="14.00"> g29 = &#45;1</text>
<text text-anchor="start" x="486" y="-1560.3" font-family="Times,serif" font-size="14.00"> v11 = g34</text>
<text text-anchor="start" x="486" y="-1545.3" font-family="Times,serif" font-size="14.00"> g38 = *(IntToPtrCastExpr&lt;ptr&gt;(v11))</text>
<text text-anchor="start" x="486" y="-1530.3" font-family="Times,serif" font-size="14.00"> g39 = *(IntToPtrCastExpr&lt;ptr&gt;((v11 + 4)))</text>
<text text-anchor="start" x="486" y="-1515.3" font-family="Times,serif" font-size="14.00"> g40 = *(IntToPtrCastExpr&lt;ptr&gt;((v11 + 8)))</text>
<text text-anchor="start" x="486" y="-1500.3" font-family="Times,serif" font-size="14.00"> g41 = *(IntToPtrCastExpr&lt;ptr&gt;((v11 + 12)))</text>
<text text-anchor="start" x="486" y="-1485.3" font-family="Times,serif" font-size="14.00"> g42 = *(IntToPtrCastExpr&lt;ptr&gt;((v11 + 16)))</text>
<text text-anchor="start" x="486" y="-1470.3" font-family="Times,serif" font-size="14.00"> g31 = *(IntToPtrCastExpr&lt;ptr&gt;((v11 + 20)))</text>
<text text-anchor="start" x="486" y="-1455.3" font-family="Times,serif" font-size="14.00"> g32 = *(IntToPtrCastExpr&lt;ptr&gt;((v11 + 24)))</text>
<text text-anchor="start" x="486" y="-1440.3" font-family="Times,serif" font-size="14.00"> g34 = *(IntToPtrCastExpr&lt;ptr&gt;((v11 + 28)))</text>
<text text-anchor="start" x="486" y="-1425.3" font-family="Times,serif" font-size="14.00"> IntToPtrCastExpr&lt;ptr&gt;(*(IntToPtrCastExpr&lt;ptr&gt;((v11 + 32))))()</text>
<text text-anchor="start" x="486" y="-1410.3" font-family="Times,serif" font-size="14.00"> return</text>
</g>
<!-- Node0x23c5ae80&#45;&gt;Node0xf701d10 -->
<g id="edge11" class="edge"><title>Node0x23c5ae80&#45;&gt;Node0xf701d10</title>
<path fill="none" stroke="black" d="M761.249,-1789.32C758.684,-1783.59 756.153,-1777.15 754.5,-1771 741.063,-1721.04 733.639,-1664.22 729.54,-1615.96"/>
<polygon fill="black" stroke="black" points="733.013,-1615.49 728.715,-1605.8 726.036,-1616.05 733.013,-1615.49"/>
<text text-anchor="middle" x="789" y="-1759.8" font-family="Times,serif" font-size="14.00">v13 == 0</text>
</g>
<!-- Node0x23c5b180 -->
<g id="node12" class="node"><title>Node0x23c5b180</title>
<polygon fill="none" stroke="black" points="815,-1624.5 815,-1737.5 1116,-1737.5 1116,-1624.5 815,-1624.5"/>
<text text-anchor="start" x="823" y="-1722.3" font-family="Times,serif" font-size="14.00">0x32b2e610:</text>
<text text-anchor="start" x="823" y="-1707.3" font-family="Times,serif" font-size="14.00"> v14 = (v10 &#45; v12)</text>
<text text-anchor="start" x="823" y="-1692.3" font-family="Times,serif" font-size="14.00"> g6 = (v10 &gt;= v12)</text>
<text text-anchor="start" x="823" y="-1677.3" font-family="Times,serif" font-size="14.00"> g8 = (((v14 ^ v10) &amp; (v12 ^ v10)) &lt; 0)</text>
<text text-anchor="start" x="823" y="-1662.3" font-family="Times,serif" font-size="14.00"> g7 = (v14 &lt; 0)</text>
<text text-anchor="start" x="823" y="-1647.3" font-family="Times,serif" font-size="14.00"> g9 = (v10 == v12)</text>
<text text-anchor="start" x="823" y="-1632.3" font-family="Times,serif" font-size="14.00"> v15 = 1677721599</text>
</g>
<!-- Node0x23c5ae80&#45;&gt;Node0x23c5b180 -->
<g id="edge12" class="edge"><title>Node0x23c5ae80&#45;&gt;Node0x23c5b180</title>
<path fill="none" stroke="black" d="M798.855,-1789.25C818.013,-1776.92 844.51,-1759.87 870.742,-1742.99"/>
<polygon fill="black" stroke="black" points="872.725,-1745.87 879.239,-1737.52 868.936,-1739.99 872.725,-1745.87"/>
<text text-anchor="middle" x="876" y="-1759.8" font-family="Times,serif" font-size="14.00">v13 != 0</text>
</g>
<!-- Node0xf701d10&#45;&gt;Node0x2715ad20 -->
<g id="edge13" class="edge"><title>Node0xf701d10&#45;&gt;Node0x2715ad20</title>
<path fill="none" stroke="black" d="M534.765,-1402.38C514.174,-1379.42 500.5,-1352.23 500.5,-1320.5 500.5,-1320.5 500.5,-1320.5 500.5,-295.5 500.5,-213.128 490.361,-116.093 484.896,-69.774"/>
<polygon fill="black" stroke="black" points="488.347,-69.1567 483.68,-59.6455 481.397,-69.9916 488.347,-69.1567"/>
</g>
<!-- Node0x23c5b880 -->
<g id="node13" class="node"><title>Node0x23c5b880</title>
<polygon fill="none" stroke="black" points="918.5,-1345.5 918.5,-1383.5 1054.5,-1383.5 1054.5,-1345.5 918.5,-1345.5"/>
<text text-anchor="start" x="926.5" y="-1368.3" font-family="Times,serif" font-size="14.00">0x7e84120:</text>
<text text-anchor="start" x="926.5" y="-1353.3" font-family="Times,serif" font-size="14.00"> if (v10 &gt;= v12):</text>
</g>
<!-- Node0x23c5b180&#45;&gt;Node0x23c5b880 -->
<g id="edge14" class="edge"><title>Node0x23c5b180&#45;&gt;Node0x23c5b880</title>
<path fill="none" stroke="black" d="M970.991,-1624.26C971.532,-1618.1 972.048,-1611.92 972.5,-1606 978.356,-1529.33 983.021,-1438.75 985.186,-1393.78"/>
<polygon fill="black" stroke="black" points="988.69,-1393.77 985.67,-1383.62 981.698,-1393.44 988.69,-1393.77"/>
</g>
<!-- Node0x43b9bc20 -->
<g id="node14" class="node"><title>Node0x43b9bc20</title>
<polygon fill="none" stroke="black" points="568.5,-1195.5 568.5,-1293.5 1162.5,-1293.5 1162.5,-1195.5 568.5,-1195.5"/>
<text text-anchor="start" x="576.5" y="-1278.3" font-family="Times,serif" font-size="14.00">0x7e832a0:</text>
<text text-anchor="start" x="576.5" y="-1263.3" font-family="Times,serif" font-size="14.00"> g37 = 0</text>
<text text-anchor="start" x="576.5" y="-1248.3" font-family="Times,serif" font-size="14.00"> g29 = (16777216 * TruncCastExpr&lt;int32&gt;((100 * ExtCastExpr&lt;int64&gt;(v10))))</text>
<text text-anchor="start" x="576.5" y="-1233.3" font-family="Times,serif" font-size="14.00"> function_238ac()</text>
<text text-anchor="start" x="576.5" y="-1218.3" font-family="Times,serif" font-size="14.00"> v1 = g41</text>
<text text-anchor="start" x="576.5" y="-1203.3" font-family="Times,serif" font-size="14.00"> v15 = g29</text>
</g>
<!-- Node0x23c5b880&#45;&gt;Node0x43b9bc20 -->
<g id="edge15" class="edge"><title>Node0x23c5b880&#45;&gt;Node0x43b9bc20</title>
<path fill="none" stroke="black" d="M967.859,-1345.32C955.557,-1333.32 938.725,-1316.91 922.264,-1300.86"/>
<polygon fill="black" stroke="black" points="924.347,-1298 914.744,-1293.52 919.46,-1303.01 924.347,-1298"/>
<text text-anchor="middle" x="989.5" y="-1315.8" font-family="Times,serif" font-size="14.00">v10 &gt;= v12</text>
</g>
<!-- Node0x23c5bc80 -->
<g id="node15" class="node"><title>Node0x23c5bc80</title>
<polygon fill="none" stroke="black" points="690.5,-819.5 690.5,-1157.5 1478.5,-1157.5 1478.5,-819.5 690.5,-819.5"/>
<text text-anchor="start" x="698.5" y="-1142.3" font-family="Times,serif" font-size="14.00">0x7e84280:</text>
<text text-anchor="start" x="698.5" y="-1127.3" font-family="Times,serif" font-size="14.00"> g42 = v15</text>
<text text-anchor="start" x="698.5" y="-1112.3" font-family="Times,serif" font-size="14.00"> v16 = (v15 / 16777216)</text>
<text text-anchor="start" x="698.5" y="-1097.3" font-family="Times,serif" font-size="14.00"> g39 = v16</text>
<text text-anchor="start" x="698.5" y="-1082.3" font-family="Times,serif" font-size="14.00"> v17 = (v1 + 148)</text>
<text text-anchor="start" x="698.5" y="-1067.3" font-family="Times,serif" font-size="14.00"> g38 = v17</text>
<text text-anchor="start" x="698.5" y="-1052.3" font-family="Times,serif" font-size="14.00"> g30 = v17</text>
<text text-anchor="start" x="698.5" y="-1037.3" font-family="Times,serif" font-size="14.00"> g29 = v16</text>
<text text-anchor="start" x="698.5" y="-1022.3" font-family="Times,serif" font-size="14.00"> function_12654()</text>
<text text-anchor="start" x="698.5" y="-1007.3" font-family="Times,serif" font-size="14.00"> g30 = g38</text>
<text text-anchor="start" x="698.5" y="-992.3" font-family="Times,serif" font-size="14.00"> g40 = g29</text>
<text text-anchor="start" x="698.5" y="-977.3" font-family="Times,serif" font-size="14.00"> g29 = (g39 + 1)</text>
<text text-anchor="start" x="698.5" y="-962.3" font-family="Times,serif" font-size="14.00"> function_12654()</text>
<text text-anchor="start" x="698.5" y="-947.3" font-family="Times,serif" font-size="14.00"> v18 = g40</text>
<text text-anchor="start" x="698.5" y="-932.3" font-family="Times,serif" font-size="14.00"> v19 = (ExtCastExpr&lt;int64&gt;((g29 &#45; v18)) * ExtCastExpr&lt;int64&gt;((256 * g42)))</text>
<text text-anchor="start" x="698.5" y="-917.3" font-family="Times,serif" font-size="14.00"> v20 = (v19 / 4294967296)</text>
<text text-anchor="start" x="698.5" y="-902.3" font-family="Times,serif" font-size="14.00"> v21 = ((TruncCastExpr&lt;int32&gt;((32768 * v20)) | (TruncCastExpr&lt;int32&gt;(v19) / 131072)) + (32768 * v18))</text>
<text text-anchor="start" x="698.5" y="-887.3" font-family="Times,serif" font-size="14.00"> g6 = True</text>
<text text-anchor="start" x="698.5" y="-872.3" font-family="Times,serif" font-size="14.00"> g8 = False</text>
<text text-anchor="start" x="698.5" y="-857.3" font-family="Times,serif" font-size="14.00"> g7 = (v21 &lt; 0)</text>
<text text-anchor="start" x="698.5" y="-842.3" font-family="Times,serif" font-size="14.00"> g9 = (v21 == 0)</text>
<text text-anchor="start" x="698.5" y="-827.3" font-family="Times,serif" font-size="14.00"> v22 = g41</text>
</g>
<!-- Node0x23c5b880&#45;&gt;Node0x23c5bc80 -->
<g id="edge16" class="edge"><title>Node0x23c5b880&#45;&gt;Node0x23c5bc80</title>
<path fill="none" stroke="black" d="M1054.67,-1356.94C1095.86,-1349.07 1145.32,-1331.8 1171.5,-1294 1197.46,-1256.52 1197.47,-1211.38 1185.63,-1167.47"/>
<polygon fill="black" stroke="black" points="1188.98,-1166.46 1182.83,-1157.82 1182.25,-1168.4 1188.98,-1166.46"/>
<text text-anchor="middle" x="1229.5" y="-1240.8" font-family="Times,serif" font-size="14.00">v10 &lt; v12</text>
</g>
<!-- Node0x43b9bc20&#45;&gt;Node0x23c5bc80 -->
<g id="edge17" class="edge"><title>Node0x43b9bc20&#45;&gt;Node0x23c5bc80</title>
<path fill="none" stroke="black" d="M906.95,-1195.43C914.883,-1186.23 923.605,-1176.11 932.796,-1165.45"/>
<polygon fill="black" stroke="black" points="935.687,-1167.46 939.566,-1157.6 930.385,-1162.88 935.687,-1167.46"/>
</g>
<!-- Node0x2715c350 -->
<g id="node16" class="node"><title>Node0x2715c350</title>
<polygon fill="none" stroke="black" points="1031,-728.5 1031,-781.5 1138,-781.5 1138,-728.5 1031,-728.5"/>
<text text-anchor="start" x="1039" y="-766.3" font-family="Times,serif" font-size="14.00">0x7e8c2c0:</text>
<text text-anchor="start" x="1039" y="-751.3" font-family="Times,serif" font-size="14.00"> if (v21 &gt; 0):</text>
<text text-anchor="start" x="1039" y="-736.3" font-family="Times,serif" font-size="14.00"> else:</text>
</g>
<!-- Node0x23c5bc80&#45;&gt;Node0x2715c350 -->
<g id="edge18" class="edge"><title>Node0x23c5bc80&#45;&gt;Node0x2715c350</title>
<path fill="none" stroke="black" d="M1084.5,-819.258C1084.5,-809.312 1084.5,-800.021 1084.5,-791.787"/>
<polygon fill="black" stroke="black" points="1088,-791.603 1084.5,-781.603 1081,-791.603 1088,-791.603"/>
</g>
<!-- Node0x23c5cd50 -->
<g id="node17" class="node"><title>Node0x23c5cd50</title>
<polygon fill="none" stroke="black" points="528,-533.5 528,-676.5 1335,-676.5 1335,-533.5 528,-533.5"/>
<text text-anchor="start" x="536" y="-661.3" font-family="Times,serif" font-size="14.00">0x14e0d760:</text>
<text text-anchor="start" x="536" y="-646.3" font-family="Times,serif" font-size="14.00"> v23 = *(IntToPtrCastExpr&lt;ptr&gt;((v22 + 120)))</text>
<text text-anchor="start" x="536" y="-631.3" font-family="Times,serif" font-size="14.00"> g30 = v23</text>
<text text-anchor="start" x="536" y="-616.3" font-family="Times,serif" font-size="14.00"> v24 = (ExtCastExpr&lt;int64&gt;(*(IntToPtrCastExpr&lt;ptr&gt;((v22 + 116)))) * ExtCastExpr&lt;int64&gt;(v21))</text>
<text text-anchor="start" x="536" y="-601.3" font-family="Times,serif" font-size="14.00"> v25 = (v24 / 4294967296)</text>
<text text-anchor="start" x="536" y="-586.3" font-family="Times,serif" font-size="14.00"> g29 = ((ExtCastExpr&lt;int32&gt;((TruncCastExpr&lt;int32&gt;(v24) &lt; 0)) | TruncCastExpr&lt;int32&gt;((2 * v25))) + v23)</text>
<text text-anchor="start" x="536" y="-571.3" font-family="Times,serif" font-size="14.00"> *(IntToPtrCastExpr&lt;ptr&gt;((v22 + 132))) = (g31 &amp; &#45;2)</text>
<text text-anchor="start" x="536" y="-556.3" font-family="Times,serif" font-size="14.00"> g36 = 0</text>
<text text-anchor="start" x="536" y="-541.3" font-family="Times,serif" font-size="14.00"> g37 = 5</text>
</g>
<!-- Node0x2715c350&#45;&gt;Node0x23c5cd50 -->
<g id="edge19" class="edge"><title>Node0x2715c350&#45;&gt;Node0x23c5cd50</title>
<path fill="none" stroke="black" d="M1057.85,-728.22C1044.93,-715.724 1028.65,-699.978 1012.12,-683.983"/>
<polygon fill="black" stroke="black" points="1014.13,-681.064 1004.51,-676.627 1009.27,-686.095 1014.13,-681.064"/>
<text text-anchor="middle" x="1063" y="-698.8" font-family="Times,serif" font-size="14.00">v21 &gt; 0</text>
</g>
<!-- Node0x23c5e0d0 -->
<g id="node18" class="node"><title>Node0x23c5e0d0</title>
<polygon fill="none" stroke="black" points="1353,-556 1353,-654 1754,-654 1754,-556 1353,-556"/>
<text text-anchor="start" x="1361" y="-638.8" font-family="Times,serif" font-size="14.00">0x7e8cb10:</text>
<text text-anchor="start" x="1361" y="-623.8" font-family="Times,serif" font-size="14.00"> g30 = *(IntToPtrCastExpr&lt;ptr&gt;((v22 + 120)))</text>
<text text-anchor="start" x="1361" y="-608.8" font-family="Times,serif" font-size="14.00"> *(IntToPtrCastExpr&lt;ptr&gt;((v22 + 132))) = (g31 &amp; &#45;2)</text>
<text text-anchor="start" x="1361" y="-593.8" font-family="Times,serif" font-size="14.00"> g36 = 0</text>
<text text-anchor="start" x="1361" y="-578.8" font-family="Times,serif" font-size="14.00"> g37 = 5</text>
<text text-anchor="start" x="1361" y="-563.8" font-family="Times,serif" font-size="14.00"> g29 = g30</text>
</g>
<!-- Node0x2715c350&#45;&gt;Node0x23c5e0d0 -->
<g id="edge20" class="edge"><title>Node0x2715c350&#45;&gt;Node0x23c5e0d0</title>
<path fill="none" stroke="black" d="M1138.47,-738.691C1191.19,-723.579 1273.61,-699.528 1344.5,-677 1364.13,-670.763 1384.72,-664.016 1405.02,-657.247"/>
<polygon fill="black" stroke="black" points="1406.26,-660.523 1414.63,-654.032 1404.04,-653.884 1406.26,-660.523"/>
<text text-anchor="middle" x="1315" y="-698.8" font-family="Times,serif" font-size="14.00">v21 &lt;= 0</text>
</g>
<!-- Node0x15a3bfc0 -->
<g id="node19" class="node"><title>Node0x15a3bfc0</title>
<polygon fill="none" stroke="black" points="667,-97.5 667,-495.5 1196,-495.5 1196,-97.5 667,-97.5"/>
<text text-anchor="start" x="675" y="-480.3" font-family="Times,serif" font-size="14.00">0x7e8e400:</text>
<text text-anchor="start" x="675" y="-465.3" font-family="Times,serif" font-size="14.00"> *(IntToPtrCastExpr&lt;ptr&gt;((g41 + 108))) = 0</text>
<text text-anchor="start" x="675" y="-450.3" font-family="Times,serif" font-size="14.00"> *(IntToPtrCastExpr&lt;ptr&gt;((g41 + 110))) = TruncCastExpr&lt;int8&gt;(g37)</text>
<text text-anchor="start" x="675" y="-435.3" font-family="Times,serif" font-size="14.00"> *(IntToPtrCastExpr&lt;ptr&gt;((g41 + 124))) = g36</text>
<text text-anchor="start" x="675" y="-420.3" font-family="Times,serif" font-size="14.00"> *(IntToPtrCastExpr&lt;ptr&gt;((g41 + 128))) = g36</text>
<text text-anchor="start" x="675" y="-405.3" font-family="Times,serif" font-size="14.00"> g38 = v3</text>
<text text-anchor="start" x="675" y="-390.3" font-family="Times,serif" font-size="14.00"> g39 = v4</text>
<text text-anchor="start" x="675" y="-375.3" font-family="Times,serif" font-size="14.00"> g40 = v5</text>
<text text-anchor="start" x="675" y="-360.3" font-family="Times,serif" font-size="14.00"> g41 = v6</text>
<text text-anchor="start" x="675" y="-345.3" font-family="Times,serif" font-size="14.00"> g42 = v7</text>
<text text-anchor="start" x="675" y="-330.3" font-family="Times,serif" font-size="14.00"> g31 = v8</text>
<text text-anchor="start" x="675" y="-315.3" font-family="Times,serif" font-size="14.00"> g32 = v9</text>
<text text-anchor="start" x="675" y="-300.3" font-family="Times,serif" font-size="14.00"> v26</text>
<text text-anchor="start" x="675" y="-285.3" font-family="Times,serif" font-size="14.00"> g34 = v26</text>
<text text-anchor="start" x="675" y="-270.3" font-family="Times,serif" font-size="14.00"> IntToPtrCastExpr&lt;ptr&gt;(g35)()</text>
<text text-anchor="start" x="675" y="-255.3" font-family="Times,serif" font-size="14.00"> g29 = &#45;1</text>
<text text-anchor="start" x="675" y="-240.3" font-family="Times,serif" font-size="14.00"> v11 = g34</text>
<text text-anchor="start" x="675" y="-225.3" font-family="Times,serif" font-size="14.00"> g38 = *(IntToPtrCastExpr&lt;ptr&gt;(v11))</text>
<text text-anchor="start" x="675" y="-210.3" font-family="Times,serif" font-size="14.00"> g39 = *(IntToPtrCastExpr&lt;ptr&gt;((v11 + 4)))</text>
<text text-anchor="start" x="675" y="-195.3" font-family="Times,serif" font-size="14.00"> g40 = *(IntToPtrCastExpr&lt;ptr&gt;((v11 + 8)))</text>
<text text-anchor="start" x="675" y="-180.3" font-family="Times,serif" font-size="14.00"> g41 = *(IntToPtrCastExpr&lt;ptr&gt;((v11 + 12)))</text>
<text text-anchor="start" x="675" y="-165.3" font-family="Times,serif" font-size="14.00"> g42 = *(IntToPtrCastExpr&lt;ptr&gt;((v11 + 16)))</text>
<text text-anchor="start" x="675" y="-150.3" font-family="Times,serif" font-size="14.00"> g31 = *(IntToPtrCastExpr&lt;ptr&gt;((v11 + 20)))</text>
<text text-anchor="start" x="675" y="-135.3" font-family="Times,serif" font-size="14.00"> g32 = *(IntToPtrCastExpr&lt;ptr&gt;((v11 + 24)))</text>
<text text-anchor="start" x="675" y="-120.3" font-family="Times,serif" font-size="14.00"> g34 = *(IntToPtrCastExpr&lt;ptr&gt;((v11 + 28)))</text>
<text text-anchor="start" x="675" y="-105.3" font-family="Times,serif" font-size="14.00"> IntToPtrCastExpr&lt;ptr&gt;(*(IntToPtrCastExpr&lt;ptr&gt;((v11 + 32))))()</text>
</g>
<!-- Node0x23c5cd50&#45;&gt;Node0x15a3bfc0 -->
<g id="edge21" class="edge"><title>Node0x23c5cd50&#45;&gt;Node0x15a3bfc0</title>
<path fill="none" stroke="black" d="M931.5,-533.298C931.5,-524.572 931.5,-515.338 931.5,-505.774"/>
<polygon fill="black" stroke="black" points="935,-505.695 931.5,-495.695 928,-505.695 935,-505.695"/>
</g>
<!-- Node0x23c5e0d0&#45;&gt;Node0x15a3bfc0 -->
<g id="edge22" class="edge"><title>Node0x23c5e0d0&#45;&gt;Node0x15a3bfc0</title>
<path fill="none" stroke="black" d="M1455.97,-555.941C1388.37,-522.632 1294.78,-476.51 1205.34,-432.439"/>
<polygon fill="black" stroke="black" points="1206.66,-429.186 1196.14,-427.906 1203.56,-435.465 1206.66,-429.186"/>
</g>
<!-- Node0x15a3bfc0&#45;&gt;Node0x2715ad20 -->
<g id="edge23" class="edge"><title>Node0x15a3bfc0&#45;&gt;Node0x2715ad20</title>
<path fill="none" stroke="black" d="M666.805,-146.683C607.525,-113.354 552.042,-82.16 517.523,-62.7529"/>
<polygon fill="black" stroke="black" points="519.216,-59.6894 508.784,-57.8394 515.785,-65.7911 519.216,-59.6894"/>
</g>
</g>
</svg>
