<?xml version="1.0" encoding="UTF-8" standalone="no"?>
<!DOCTYPE svg PUBLIC "-//W3C//DTD SVG 1.1//EN"
 "http://www.w3.org/Graphics/SVG/1.1/DTD/svg11.dtd">
<!-- Generated by graphviz version 2.38.0 (20140413.2041)
 -->
<!-- Title: Control&#45;flow graph for function &#39;function_1319c()&#39;. Pages: 1 -->
<svg width="1001pt" height="1121pt"
 viewBox="0.00 0.00 1000.50 1121.00" xmlns="http://www.w3.org/2000/svg" xmlns:xlink="http://www.w3.org/1999/xlink">
<g id="graph0" class="graph" transform="scale(1 1) rotate(0) translate(4 1117)">
<title>Control&#45;flow graph for function &#39;function_1319c()&#39;.</title>
<polygon fill="white" stroke="none" points="-4,4 -4,-1117 996.5,-1117 996.5,4 -4,4"/>
<text text-anchor="middle" x="496.25" y="-7.8" font-family="Times,serif" font-size="14.00">Control&#45;flow graph for function &#39;function_1319c()&#39;.</text>
<!-- Node0x21b0c590 -->
<g id="node1" class="node"><title>Node0x21b0c590</title>
<polygon fill="none" stroke="black" points="626.5,-1076.5 626.5,-1112.5 685.5,-1112.5 685.5,-1076.5 626.5,-1076.5"/>
<text text-anchor="start" x="634.5" y="-1090.8" font-family="Times,serif" font-size="14.00">entry:</text>
</g>
<!-- Node0x151ac380 -->
<g id="node2" class="node"><title>Node0x151ac380</title>
<polygon fill="none" stroke="black" points="594.5,-835.5 594.5,-1038.5 717.5,-1038.5 717.5,-835.5 594.5,-835.5"/>
<text text-anchor="start" x="602.5" y="-1023.3" font-family="Times,serif" font-size="14.00">0x17c355e0:</text>
<text text-anchor="start" x="602.5" y="-1008.3" font-family="Times,serif" font-size="14.00"> v1 = g38</text>
<text text-anchor="start" x="602.5" y="-993.3" font-family="Times,serif" font-size="14.00"> v2 = g39</text>
<text text-anchor="start" x="602.5" y="-978.3" font-family="Times,serif" font-size="14.00"> v3 = g40</text>
<text text-anchor="start" x="602.5" y="-963.3" font-family="Times,serif" font-size="14.00"> v4 = g35</text>
<text text-anchor="start" x="602.5" y="-948.3" font-family="Times,serif" font-size="14.00"> g33 = 165012</text>
<text text-anchor="start" x="602.5" y="-933.3" font-family="Times,serif" font-size="14.00"> v5 = g30</text>
<text text-anchor="start" x="602.5" y="-918.3" font-family="Times,serif" font-size="14.00"> g38 = v5</text>
<text text-anchor="start" x="602.5" y="-903.3" font-family="Times,serif" font-size="14.00"> g40 = 155504</text>
<text text-anchor="start" x="602.5" y="-888.3" font-family="Times,serif" font-size="14.00"> g39 = g29</text>
<text text-anchor="start" x="602.5" y="-873.3" font-family="Times,serif" font-size="14.00"> g30 = 0</text>
<text text-anchor="start" x="602.5" y="-858.3" font-family="Times,serif" font-size="14.00"> v6 = g36</text>
<text text-anchor="start" x="602.5" y="-843.3" font-family="Times,serif" font-size="14.00"> v7 = 0</text>
</g>
<!-- Node0x21b0c590&#45;&gt;Node0x151ac380 -->
<g id="edge1" class="edge"><title>Node0x21b0c590&#45;&gt;Node0x151ac380</title>
<path fill="none" stroke="black" d="M656,-1076.26C656,-1068.77 656,-1059.32 656,-1048.89"/>
<polygon fill="black" stroke="black" points="659.5,-1048.62 656,-1038.62 652.5,-1048.62 659.5,-1048.62"/>
</g>
<!-- Node0x3b6f0510 -->
<g id="node3" class="node"><title>Node0x3b6f0510</title>
<polygon fill="none" stroke="black" points="605.5,-759.5 605.5,-797.5 706.5,-797.5 706.5,-759.5 605.5,-759.5"/>
<text text-anchor="start" x="613.5" y="-782.3" font-family="Times,serif" font-size="14.00">0x7f572b0:</text>
<text text-anchor="start" x="613.5" y="-767.3" font-family="Times,serif" font-size="14.00"> while True:</text>
</g>
<!-- Node0x151ac380&#45;&gt;Node0x3b6f0510 -->
<g id="edge2" class="edge"><title>Node0x151ac380&#45;&gt;Node0x3b6f0510</title>
<path fill="none" stroke="black" d="M656,-835.117C656,-825.358 656,-816.113 656,-808.064"/>
<polygon fill="black" stroke="black" points="659.5,-807.893 656,-797.893 652.5,-807.894 659.5,-807.893"/>
</g>
<!-- Node0x3b6f3a30 -->
<g id="node4" class="node"><title>Node0x3b6f3a30</title>
<polygon fill="none" stroke="black" points="403.5,-579.5 403.5,-707.5 668.5,-707.5 668.5,-579.5 403.5,-579.5"/>
<text text-anchor="start" x="411.5" y="-692.3" font-family="Times,serif" font-size="14.00">0x1d79b890:</text>
<text text-anchor="start" x="411.5" y="-677.3" font-family="Times,serif" font-size="14.00"> v8 = (v7 &#45; v5)</text>
<text text-anchor="start" x="411.5" y="-662.3" font-family="Times,serif" font-size="14.00"> g6 = (v7 &gt;= v5)</text>
<text text-anchor="start" x="411.5" y="-647.3" font-family="Times,serif" font-size="14.00"> g8 = (((v8 ^ v7) &amp; (v5 ^ v7)) &lt; 0)</text>
<text text-anchor="start" x="411.5" y="-632.3" font-family="Times,serif" font-size="14.00"> g7 = (v8 &lt; 0)</text>
<text text-anchor="start" x="411.5" y="-617.3" font-family="Times,serif" font-size="14.00"> g9 = (v7 == v5)</text>
<text text-anchor="start" x="411.5" y="-602.3" font-family="Times,serif" font-size="14.00"> g29 = v6</text>
<text text-anchor="start" x="411.5" y="-587.3" font-family="Times,serif" font-size="14.00"> g35 = (v6 + 2)</text>
</g>
<!-- Node0x3b6f0510&#45;&gt;Node0x3b6f3a30 -->
<g id="edge3" class="edge"><title>Node0x3b6f0510&#45;&gt;Node0x3b6f3a30</title>
<path fill="none" stroke="black" d="M639.566,-759.286C628.99,-747.564 614.495,-731.499 599.7,-715.1"/>
<polygon fill="black" stroke="black" points="602.191,-712.637 592.893,-707.557 596.994,-717.326 602.191,-712.637"/>
<text text-anchor="middle" x="638" y="-729.8" font-family="Times,serif" font-size="14.00">True</text>
</g>
<!-- Node0x21b102a0 -->
<g id="node5" class="node"><title>Node0x21b102a0</title>
<polygon fill="none" stroke="black" points="477,-503.5 477,-541.5 595,-541.5 595,-503.5 477,-503.5"/>
<text text-anchor="start" x="485" y="-526.3" font-family="Times,serif" font-size="14.00">0x7f55120:</text>
<text text-anchor="start" x="485" y="-511.3" font-family="Times,serif" font-size="14.00"> if (v7 &gt;= v5):</text>
</g>
<!-- Node0x3b6f3a30&#45;&gt;Node0x21b102a0 -->
<g id="edge4" class="edge"><title>Node0x3b6f3a30&#45;&gt;Node0x21b102a0</title>
<path fill="none" stroke="black" d="M536,-579.167C536,-569.596 536,-560.158 536,-551.848"/>
<polygon fill="black" stroke="black" points="539.5,-551.658 536,-541.659 532.5,-551.659 539.5,-551.658"/>
</g>
<!-- Node0x21b0dc80 -->
<g id="node6" class="node"><title>Node0x21b0dc80</title>
<polygon fill="none" stroke="black" points="114,-308.5 114,-421.5 384,-421.5 384,-308.5 114,-308.5"/>
<text text-anchor="start" x="122" y="-406.3" font-family="Times,serif" font-size="14.00">0x7f552e0:</text>
<text text-anchor="start" x="122" y="-391.3" font-family="Times,serif" font-size="14.00"> g37 = 0</text>
<text text-anchor="start" x="122" y="-376.3" font-family="Times,serif" font-size="14.00"> *(IntToPtrCastExpr&lt;ptr&gt;(v6)) = 0</text>
<text text-anchor="start" x="122" y="-361.3" font-family="Times,serif" font-size="14.00"> g38 = v1</text>
<text text-anchor="start" x="122" y="-346.3" font-family="Times,serif" font-size="14.00"> g39 = v2</text>
<text text-anchor="start" x="122" y="-331.3" font-family="Times,serif" font-size="14.00"> g40 = v3</text>
<text text-anchor="start" x="122" y="-316.3" font-family="Times,serif" font-size="14.00"> IntToPtrCastExpr&lt;ptr&gt;(v4)()</text>
</g>
<!-- Node0x21b102a0&#45;&gt;Node0x21b0dc80 -->
<g id="edge5" class="edge"><title>Node0x21b102a0&#45;&gt;Node0x21b0dc80</title>
<path fill="none" stroke="black" d="M496.392,-503.37C467.428,-489.842 427.363,-470.567 393,-452 378.33,-444.074 363.019,-435.39 348.086,-426.686"/>
<polygon fill="black" stroke="black" points="349.743,-423.6 339.346,-421.563 346.204,-429.639 349.743,-423.6"/>
<text text-anchor="middle" x="490" y="-473.8" font-family="Times,serif" font-size="14.00">v7 &gt;= v5</text>
</g>
<!-- Node0x21b107a0 -->
<g id="node7" class="node"><title>Node0x21b107a0</title>
<polygon fill="none" stroke="black" points="401.5,-278.5 401.5,-451.5 992.5,-451.5 992.5,-278.5 401.5,-278.5"/>
<text text-anchor="start" x="409.5" y="-436.3" font-family="Times,serif" font-size="14.00">0x13e14f60:</text>
<text text-anchor="start" x="409.5" y="-421.3" font-family="Times,serif" font-size="14.00"> v9 = ExtCastExpr&lt;int32&gt;(*(IntToPtrCastExpr&lt;ptr&gt;((g39 + v7))))</text>
<text text-anchor="start" x="409.5" y="-406.3" font-family="Times,serif" font-size="14.00"> g30 = (v7 + 1)</text>
<text text-anchor="start" x="409.5" y="-391.3" font-family="Times,serif" font-size="14.00"> v10 = *(IntToPtrCastExpr&lt;ptr&gt;(((v9 / 16) + g40)))</text>
<text text-anchor="start" x="409.5" y="-376.3" font-family="Times,serif" font-size="14.00"> g36 = v10</text>
<text text-anchor="start" x="409.5" y="-361.3" font-family="Times,serif" font-size="14.00"> g37 = (v9 % 16)</text>
<text text-anchor="start" x="409.5" y="-346.3" font-family="Times,serif" font-size="14.00"> *(IntToPtrCastExpr&lt;ptr&gt;(v6)) = v10</text>
<text text-anchor="start" x="409.5" y="-331.3" font-family="Times,serif" font-size="14.00"> *(IntToPtrCastExpr&lt;ptr&gt;((g35 &#45; 1))) = *(IntToPtrCastExpr&lt;ptr&gt;((g37 + g40)))</text>
<text text-anchor="start" x="409.5" y="-316.3" font-family="Times,serif" font-size="14.00"> v6 = g35</text>
<text text-anchor="start" x="409.5" y="-301.3" font-family="Times,serif" font-size="14.00"> v7 = g30</text>
<text text-anchor="start" x="409.5" y="-286.3" font-family="Times,serif" font-size="14.00"> v5 = g38</text>
</g>
<!-- Node0x21b102a0&#45;&gt;Node0x21b107a0 -->
<g id="edge6" class="edge"><title>Node0x21b102a0&#45;&gt;Node0x21b107a0</title>
<path fill="none" stroke="black" d="M554.784,-503.358C566.76,-491.791 583.29,-475.826 600.853,-458.862"/>
<polygon fill="black" stroke="black" points="603.672,-461.006 608.434,-451.541 598.809,-455.97 603.672,-461.006"/>
<text text-anchor="middle" x="617" y="-473.8" font-family="Times,serif" font-size="14.00">v7 &lt; v5</text>
</g>
<!-- Node0x21b0d050 -->
<g id="node8" class="node"><title>Node0x21b0d050</title>
<polygon fill="none" stroke="black" points="200.5,-202.5 200.5,-240.5 297.5,-240.5 297.5,-202.5 200.5,-202.5"/>
<text text-anchor="start" x="208.5" y="-225.3" font-family="Times,serif" font-size="14.00">0x7f56de0:</text>
<text text-anchor="start" x="208.5" y="-210.3" font-family="Times,serif" font-size="14.00"> if g9:</text>
</g>
<!-- Node0x21b0dc80&#45;&gt;Node0x21b0d050 -->
<g id="edge7" class="edge"><title>Node0x21b0dc80&#45;&gt;Node0x21b0d050</title>
<path fill="none" stroke="black" d="M249,-308.482C249,-288.665 249,-267.176 249,-250.637"/>
<polygon fill="black" stroke="black" points="252.5,-250.551 249,-240.551 245.5,-250.551 252.5,-250.551"/>
</g>
<!-- Node0x21b107a0&#45;&gt;Node0x3b6f0510 -->
<g id="edge8" class="edge"><title>Node0x21b107a0&#45;&gt;Node0x3b6f0510</title>
<path fill="none" stroke="black" d="M697.542,-451.68C696.654,-521.25 692.354,-621.626 677,-708 674.493,-722.101 670.075,-737.376 665.935,-750.005"/>
<polygon fill="black" stroke="black" points="662.615,-748.899 662.717,-759.493 669.244,-751.147 662.615,-748.899"/>
</g>
<!-- Node0x3b6f3ae0 -->
<g id="node9" class="node"><title>Node0x3b6f3ae0</title>
<polygon fill="none" stroke="black" points="0,-97.5 0,-150.5 356,-150.5 356,-97.5 0,-97.5"/>
<text text-anchor="start" x="8" y="-135.3" font-family="Times,serif" font-size="14.00">0x7f569d0:</text>
<text text-anchor="start" x="8" y="-120.3" font-family="Times,serif" font-size="14.00"> g39 = (g30 &amp; ((g38 / 32) | (134217728 * g38)))</text>
<text text-anchor="start" x="8" y="-105.3" font-family="Times,serif" font-size="14.00"> return</text>
</g>
<!-- Node0x21b0d050&#45;&gt;Node0x3b6f3ae0 -->
<g id="edge9" class="edge"><title>Node0x21b0d050&#45;&gt;Node0x3b6f3ae0</title>
<path fill="none" stroke="black" d="M235.31,-202.087C226.215,-189.853 214.002,-173.425 203.187,-158.878"/>
<polygon fill="black" stroke="black" points="205.79,-156.513 197.015,-150.577 200.173,-160.69 205.79,-156.513"/>
<text text-anchor="middle" x="229.5" y="-172.8" font-family="Times,serif" font-size="14.00">g9</text>
</g>
<!-- Node0x21b0cb50 -->
<g id="node10" class="node"><title>Node0x21b0cb50</title>
<polygon fill="none" stroke="black" points="374,-105 374,-143 468,-143 468,-105 374,-105"/>
<text text-anchor="start" x="382" y="-127.8" font-family="Times,serif" font-size="14.00">0x7f56f00:</text>
<text text-anchor="start" x="382" y="-112.8" font-family="Times,serif" font-size="14.00"> return</text>
</g>
<!-- Node0x21b0d050&#45;&gt;Node0x21b0cb50 -->
<g id="edge10" class="edge"><title>Node0x21b0d050&#45;&gt;Node0x21b0cb50</title>
<path fill="none" stroke="black" d="M281.757,-202.312C309.493,-186.912 349.41,-164.749 379.401,-148.097"/>
<polygon fill="black" stroke="black" points="381.321,-151.034 388.365,-143.12 377.923,-144.914 381.321,-151.034"/>
<text text-anchor="middle" x="369.5" y="-172.8" font-family="Times,serif" font-size="14.00">not (g9)</text>
</g>
<!-- Node0x3b6f30b0 -->
<g id="node11" class="node"><title>Node0x3b6f30b0</title>
<polygon fill="none" stroke="black" points="299,-23.5 299,-59.5 353,-59.5 353,-23.5 299,-23.5"/>
<text text-anchor="start" x="307" y="-37.8" font-family="Times,serif" font-size="14.00">exit:</text>
</g>
<!-- Node0x3b6f3ae0&#45;&gt;Node0x3b6f30b0 -->
<g id="edge11" class="edge"><title>Node0x3b6f3ae0&#45;&gt;Node0x3b6f30b0</title>
<path fill="none" stroke="black" d="M225.235,-97.308C246.122,-85.9473 270.296,-72.7984 289.73,-62.2277"/>
<polygon fill="black" stroke="black" points="291.463,-65.2696 298.575,-57.4168 288.118,-59.1203 291.463,-65.2696"/>
</g>
<!-- Node0x21b0cb50&#45;&gt;Node0x3b6f30b0 -->
<g id="edge12" class="edge"><title>Node0x21b0cb50&#45;&gt;Node0x3b6f30b0</title>
<path fill="none" stroke="black" d="M399.443,-104.733C385.955,-93.3044 368.442,-78.4642 353.901,-66.1423"/>
<polygon fill="black" stroke="black" points="356.064,-63.3881 346.172,-59.5935 351.539,-68.7286 356.064,-63.3881"/>
</g>
</g>
</svg>
