<?xml version="1.0" encoding="UTF-8" standalone="no"?>
<!DOCTYPE svg PUBLIC "-//W3C//DTD SVG 1.1//EN"
 "http://www.w3.org/Graphics/SVG/1.1/DTD/svg11.dtd">
<!-- Generated by graphviz version 2.38.0 (20140413.2041)
 -->
<!-- Title: Control&#45;flow graph for function &#39;function_1b810()&#39;. Pages: 1 -->
<svg width="560pt" height="486pt"
 viewBox="0.00 0.00 560.00 486.00" xmlns="http://www.w3.org/2000/svg" xmlns:xlink="http://www.w3.org/1999/xlink">
<g id="graph0" class="graph" transform="scale(1 1) rotate(0) translate(4 482)">
<title>Control&#45;flow graph for function &#39;function_1b810()&#39;.</title>
<polygon fill="white" stroke="none" points="-4,4 -4,-482 556,-482 556,4 -4,4"/>
<text text-anchor="middle" x="276" y="-7.8" font-family="Times,serif" font-size="14.00">Control&#45;flow graph for function &#39;function_1b810()&#39;.</text>
<!-- Node0x36493cd0 -->
<g id="node1" class="node"><title>Node0x36493cd0</title>
<polygon fill="none" stroke="black" points="246.5,-441.5 246.5,-477.5 305.5,-477.5 305.5,-441.5 246.5,-441.5"/>
<text text-anchor="start" x="254.5" y="-455.8" font-family="Times,serif" font-size="14.00">entry:</text>
</g>
<!-- Node0x36493540 -->
<g id="node2" class="node"><title>Node0x36493540</title>
<polygon fill="none" stroke="black" points="0,-96.5 0,-404.5 552,-404.5 552,-96.5 0,-96.5"/>
<text text-anchor="start" x="8" y="-389.3" font-family="Times,serif" font-size="14.00">0x2c640b20:</text>
<text text-anchor="start" x="8" y="-374.3" font-family="Times,serif" font-size="14.00"> v1 = g38</text>
<text text-anchor="start" x="8" y="-359.3" font-family="Times,serif" font-size="14.00"> v2 = g39</text>
<text text-anchor="start" x="8" y="-344.3" font-family="Times,serif" font-size="14.00"> g39 = g29</text>
<text text-anchor="start" x="8" y="-329.3" font-family="Times,serif" font-size="14.00"> g38 = g30</text>
<text text-anchor="start" x="8" y="-314.3" font-family="Times,serif" font-size="14.00"> function_1b720()</text>
<text text-anchor="start" x="8" y="-299.3" font-family="Times,serif" font-size="14.00"> g29 = g39</text>
<text text-anchor="start" x="8" y="-284.3" font-family="Times,serif" font-size="14.00"> g30 = g38</text>
<text text-anchor="start" x="8" y="-269.3" font-family="Times,serif" font-size="14.00"> function_1b75c()</text>
<text text-anchor="start" x="8" y="-254.3" font-family="Times,serif" font-size="14.00"> v3 = g39</text>
<text text-anchor="start" x="8" y="-239.3" font-family="Times,serif" font-size="14.00"> v4 = *(IntToPtrCastExpr&lt;ptr&gt;((v3 + 12)))</text>
<text text-anchor="start" x="8" y="-224.3" font-family="Times,serif" font-size="14.00"> g37 = v4</text>
<text text-anchor="start" x="8" y="-209.3" font-family="Times,serif" font-size="14.00"> v5 = *(IntToPtrCastExpr&lt;ptr&gt;((v3 + 8)))</text>
<text text-anchor="start" x="8" y="-194.3" font-family="Times,serif" font-size="14.00"> g36 = v5</text>
<text text-anchor="start" x="8" y="-179.3" font-family="Times,serif" font-size="14.00"> g29 = ExtCastExpr&lt;int32&gt;(*(IntToPtrCastExpr&lt;ptr&gt;(((g38 &#45; v4) + v5))))</text>
<text text-anchor="start" x="8" y="-164.3" font-family="Times,serif" font-size="14.00"> g38 = v1</text>
<text text-anchor="start" x="8" y="-149.3" font-family="Times,serif" font-size="14.00"> g39 = v2</text>
<text text-anchor="start" x="8" y="-134.3" font-family="Times,serif" font-size="14.00"> v6</text>
<text text-anchor="start" x="8" y="-119.3" font-family="Times,serif" font-size="14.00"> g34 = v6</text>
<text text-anchor="start" x="8" y="-104.3" font-family="Times,serif" font-size="14.00"> IntToPtrCastExpr&lt;ptr&gt;(g35)()</text>
</g>
<!-- Node0x36493cd0&#45;&gt;Node0x36493540 -->
<g id="edge1" class="edge"><title>Node0x36493cd0&#45;&gt;Node0x36493540</title>
<path fill="none" stroke="black" d="M276,-441.207C276,-434.065 276,-425.063 276,-414.882"/>
<polygon fill="black" stroke="black" points="279.5,-414.783 276,-404.783 272.5,-414.783 279.5,-414.783"/>
</g>
<!-- Node0x364946e0 -->
<g id="node3" class="node"><title>Node0x364946e0</title>
<polygon fill="none" stroke="black" points="249,-23.5 249,-59.5 303,-59.5 303,-23.5 249,-23.5"/>
<text text-anchor="start" x="257" y="-37.8" font-family="Times,serif" font-size="14.00">exit:</text>
</g>
<!-- Node0x36493540&#45;&gt;Node0x364946e0 -->
<g id="edge2" class="edge"><title>Node0x36493540&#45;&gt;Node0x364946e0</title>
<path fill="none" stroke="black" d="M276,-96.3464C276,-86.5473 276,-77.5264 276,-69.7825"/>
<polygon fill="black" stroke="black" points="279.5,-69.7373 276,-59.7373 272.5,-69.7373 279.5,-69.7373"/>
</g>
</g>
</svg>
