<?xml version="1.0" encoding="UTF-8" standalone="no"?>
<!DOCTYPE svg PUBLIC "-//W3C//DTD SVG 1.1//EN"
 "http://www.w3.org/Graphics/SVG/1.1/DTD/svg11.dtd">
<!-- Generated by graphviz version 2.38.0 (20140413.2041)
 -->
<!-- Title: Control&#45;flow graph for function &#39;function_aaec()&#39;. Pages: 1 -->
<svg width="523pt" height="609pt"
 viewBox="0.00 0.00 523.00 609.00" xmlns="http://www.w3.org/2000/svg" xmlns:xlink="http://www.w3.org/1999/xlink">
<g id="graph0" class="graph" transform="scale(1 1) rotate(0) translate(4 605)">
<title>Control&#45;flow graph for function &#39;function_aaec()&#39;.</title>
<polygon fill="white" stroke="none" points="-4,4 -4,-605 519,-605 519,4 -4,4"/>
<text text-anchor="middle" x="257.5" y="-7.8" font-family="Times,serif" font-size="14.00">Control&#45;flow graph for function &#39;function_aaec()&#39;.</text>
<!-- Node0x17668210 -->
<g id="node1" class="node"><title>Node0x17668210</title>
<polygon fill="none" stroke="black" points="228,-564.5 228,-600.5 287,-600.5 287,-564.5 228,-564.5"/>
<text text-anchor="start" x="236" y="-578.8" font-family="Times,serif" font-size="14.00">entry:</text>
</g>
<!-- Node0x351cd440 -->
<g id="node2" class="node"><title>Node0x351cd440</title>
<polygon fill="none" stroke="black" points="0,-263.5 0,-526.5 515,-526.5 515,-263.5 0,-263.5"/>
<text text-anchor="start" x="8" y="-511.3" font-family="Times,serif" font-size="14.00">0x17f6e080:</text>
<text text-anchor="start" x="8" y="-496.3" font-family="Times,serif" font-size="14.00"> v1 = g38</text>
<text text-anchor="start" x="8" y="-481.3" font-family="Times,serif" font-size="14.00"> v2 = g39</text>
<text text-anchor="start" x="8" y="-466.3" font-family="Times,serif" font-size="14.00"> v3 = g30</text>
<text text-anchor="start" x="8" y="-451.3" font-family="Times,serif" font-size="14.00"> g39 = v3</text>
<text text-anchor="start" x="8" y="-436.3" font-family="Times,serif" font-size="14.00"> g37 = 165012</text>
<text text-anchor="start" x="8" y="-421.3" font-family="Times,serif" font-size="14.00"> g38 = g29</text>
<text text-anchor="start" x="8" y="-406.3" font-family="Times,serif" font-size="14.00"> memcpy(IntToPtrCastExpr&lt;ptr&gt;(v3), BitCastExpr&lt;ptr&gt;(&amp;(g4)), 15)</text>
<text text-anchor="start" x="8" y="-391.3" font-family="Times,serif" font-size="14.00"> g29 = g38</text>
<text text-anchor="start" x="8" y="-376.3" font-family="Times,serif" font-size="14.00"> g30 = (g39 + 15)</text>
<text text-anchor="start" x="8" y="-361.3" font-family="Times,serif" font-size="14.00"> function_aa18()</text>
<text text-anchor="start" x="8" y="-346.3" font-family="Times,serif" font-size="14.00"> g29 = 1</text>
<text text-anchor="start" x="8" y="-331.3" font-family="Times,serif" font-size="14.00"> g38 = v1</text>
<text text-anchor="start" x="8" y="-316.3" font-family="Times,serif" font-size="14.00"> g39 = v2</text>
<text text-anchor="start" x="8" y="-301.3" font-family="Times,serif" font-size="14.00"> v4</text>
<text text-anchor="start" x="8" y="-286.3" font-family="Times,serif" font-size="14.00"> g34 = v4</text>
<text text-anchor="start" x="8" y="-271.3" font-family="Times,serif" font-size="14.00"> IntToPtrCastExpr&lt;ptr&gt;(g35)()</text>
</g>
<!-- Node0x17668210&#45;&gt;Node0x351cd440 -->
<g id="edge1" class="edge"><title>Node0x17668210&#45;&gt;Node0x351cd440</title>
<path fill="none" stroke="black" d="M257.5,-564.381C257.5,-556.896 257.5,-547.378 257.5,-536.688"/>
<polygon fill="black" stroke="black" points="261,-536.565 257.5,-526.565 254,-536.566 261,-536.565"/>
</g>
<!-- Node0x3c9ed920 -->
<g id="node3" class="node"><title>Node0x3c9ed920</title>
<polygon fill="none" stroke="black" points="207,-187.5 207,-225.5 308,-225.5 308,-187.5 207,-187.5"/>
<text text-anchor="start" x="215" y="-210.3" font-family="Times,serif" font-size="14.00">0x7267e50:</text>
<text text-anchor="start" x="215" y="-195.3" font-family="Times,serif" font-size="14.00"> if g9:</text>
</g>
<!-- Node0x351cd440&#45;&gt;Node0x3c9ed920 -->
<g id="edge2" class="edge"><title>Node0x351cd440&#45;&gt;Node0x3c9ed920</title>
<path fill="none" stroke="black" d="M257.5,-263.456C257.5,-253.355 257.5,-243.953 257.5,-235.849"/>
<polygon fill="black" stroke="black" points="261,-235.658 257.5,-225.658 254,-235.658 261,-235.658"/>
</g>
<!-- Node0x266336a0 -->
<g id="node4" class="node"><title>Node0x266336a0</title>
<polygon fill="none" stroke="black" points="24.5,-97.5 24.5,-135.5 260.5,-135.5 260.5,-97.5 24.5,-97.5"/>
<text text-anchor="start" x="32.5" y="-120.3" font-family="Times,serif" font-size="14.00">0x7267be0:</text>
<text text-anchor="start" x="32.5" y="-105.3" font-family="Times,serif" font-size="14.00"> g34 = (g30 &amp; (524288 * g33))</text>
</g>
<!-- Node0x3c9ed920&#45;&gt;Node0x266336a0 -->
<g id="edge3" class="edge"><title>Node0x3c9ed920&#45;&gt;Node0x266336a0</title>
<path fill="none" stroke="black" d="M233.951,-187.48C216.778,-174.339 193.311,-156.382 174.449,-141.948"/>
<polygon fill="black" stroke="black" points="176.482,-139.096 166.413,-135.799 172.228,-144.655 176.482,-139.096"/>
<text text-anchor="middle" x="217" y="-157.8" font-family="Times,serif" font-size="14.00">g9</text>
</g>
<!-- Node0x17668bf0 -->
<g id="node5" class="node"><title>Node0x17668bf0</title>
<polygon fill="none" stroke="black" points="224.5,-23.5 224.5,-59.5 278.5,-59.5 278.5,-23.5 224.5,-23.5"/>
<text text-anchor="start" x="232.5" y="-37.8" font-family="Times,serif" font-size="14.00">exit:</text>
</g>
<!-- Node0x3c9ed920&#45;&gt;Node0x17668bf0 -->
<g id="edge4" class="edge"><title>Node0x3c9ed920&#45;&gt;Node0x17668bf0</title>
<path fill="none" stroke="black" d="M262.478,-187.38C267.728,-165.778 274.587,-128.622 269.5,-97 268.021,-87.8076 265.224,-78.0651 262.268,-69.3986"/>
<polygon fill="black" stroke="black" points="265.493,-68.025 258.794,-59.8167 258.912,-70.4109 265.493,-68.025"/>
<text text-anchor="middle" x="299" y="-112.8" font-family="Times,serif" font-size="14.00">not (g9)</text>
</g>
<!-- Node0x266336a0&#45;&gt;Node0x17668bf0 -->
<g id="edge5" class="edge"><title>Node0x266336a0&#45;&gt;Node0x17668bf0</title>
<path fill="none" stroke="black" d="M169.444,-97.4551C184.019,-87.694 202.161,-75.5433 217.678,-65.1512"/>
<polygon fill="black" stroke="black" points="219.628,-68.0577 225.99,-59.585 215.733,-62.2416 219.628,-68.0577"/>
</g>
</g>
</svg>
