<?xml version="1.0" encoding="UTF-8" standalone="no"?>
<!DOCTYPE svg PUBLIC "-//W3C//DTD SVG 1.1//EN"
 "http://www.w3.org/Graphics/SVG/1.1/DTD/svg11.dtd">
<!-- Generated by graphviz version 2.38.0 (20140413.2041)
 -->
<!-- Title: Control&#45;flow graph for function &#39;function_227a0()&#39;. Pages: 1 -->
<svg width="385pt" height="1138pt"
 viewBox="0.00 0.00 385.00 1138.00" xmlns="http://www.w3.org/2000/svg" xmlns:xlink="http://www.w3.org/1999/xlink">
<g id="graph0" class="graph" transform="scale(1 1) rotate(0) translate(4 1134)">
<title>Control&#45;flow graph for function &#39;function_227a0()&#39;.</title>
<polygon fill="white" stroke="none" points="-4,4 -4,-1134 381,-1134 381,4 -4,4"/>
<text text-anchor="middle" x="188.5" y="-7.8" font-family="Times,serif" font-size="14.00">Control&#45;flow graph for function &#39;function_227a0()&#39;.</text>
<!-- Node0x23991600 -->
<g id="node1" class="node"><title>Node0x23991600</title>
<polygon fill="none" stroke="black" points="159,-1093.5 159,-1129.5 218,-1129.5 218,-1093.5 159,-1093.5"/>
<text text-anchor="start" x="167" y="-1107.8" font-family="Times,serif" font-size="14.00">entry:</text>
</g>
<!-- Node0x23990400 -->
<g id="node2" class="node"><title>Node0x23990400</title>
<polygon fill="none" stroke="black" points="3,-867.5 3,-1055.5 374,-1055.5 374,-867.5 3,-867.5"/>
<text text-anchor="start" x="11" y="-1040.3" font-family="Times,serif" font-size="14.00">0x1cfd9130:</text>
<text text-anchor="start" x="11" y="-1025.3" font-family="Times,serif" font-size="14.00"> v1</text>
<text text-anchor="start" x="11" y="-1010.3" font-family="Times,serif" font-size="14.00"> gettimeofday(BitCastExpr&lt;ptr&gt;(&amp;(v1)), &amp;(g10))</text>
<text text-anchor="start" x="11" y="-995.3" font-family="Times,serif" font-size="14.00"> v2</text>
<text text-anchor="start" x="11" y="-980.3" font-family="Times,serif" font-size="14.00"> g36 = v2</text>
<text text-anchor="start" x="11" y="-965.3" font-family="Times,serif" font-size="14.00"> g29 = (1000 * v2)</text>
<text text-anchor="start" x="11" y="-950.3" font-family="Times,serif" font-size="14.00"> g30 = 1000000</text>
<text text-anchor="start" x="11" y="-935.3" font-family="Times,serif" font-size="14.00"> function_24238()</text>
<text text-anchor="start" x="11" y="-920.3" font-family="Times,serif" font-size="14.00"> v3 = PtrToIntCastExpr&lt;int32&gt;(v1)</text>
<text text-anchor="start" x="11" y="-905.3" font-family="Times,serif" font-size="14.00"> v4 = g29</text>
<text text-anchor="start" x="11" y="-890.3" font-family="Times,serif" font-size="14.00"> g8 = False</text>
<text text-anchor="start" x="11" y="-875.3" font-family="Times,serif" font-size="14.00"> g7 = (v4 &lt; 0)</text>
</g>
<!-- Node0x23991600&#45;&gt;Node0x23990400 -->
<g id="edge1" class="edge"><title>Node0x23991600&#45;&gt;Node0x23990400</title>
<path fill="none" stroke="black" d="M188.5,-1093.23C188.5,-1085.72 188.5,-1076.26 188.5,-1065.88"/>
<polygon fill="black" stroke="black" points="192,-1065.67 188.5,-1055.67 185,-1065.67 192,-1065.67"/>
</g>
<!-- Node0x2b7bb6e0 -->
<g id="node3" class="node"><title>Node0x2b7bb6e0</title>
<polygon fill="none" stroke="black" points="137.5,-791.5 137.5,-829.5 239.5,-829.5 239.5,-791.5 137.5,-791.5"/>
<text text-anchor="start" x="145.5" y="-814.3" font-family="Times,serif" font-size="14.00">0x79f30f0:</text>
<text text-anchor="start" x="145.5" y="-799.3" font-family="Times,serif" font-size="14.00"> if (v4 &gt; &#45;1):</text>
</g>
<!-- Node0x23990400&#45;&gt;Node0x2b7bb6e0 -->
<g id="edge2" class="edge"><title>Node0x23990400&#45;&gt;Node0x2b7bb6e0</title>
<path fill="none" stroke="black" d="M188.5,-867.406C188.5,-857.426 188.5,-847.921 188.5,-839.673"/>
<polygon fill="black" stroke="black" points="192,-839.619 188.5,-829.619 185,-839.619 192,-839.619"/>
</g>
<!-- Node0x2d4bbbf0 -->
<g id="node4" class="node"><title>Node0x2d4bbbf0</title>
<polygon fill="none" stroke="black" points="92.5,-701.5 92.5,-739.5 186.5,-739.5 186.5,-701.5 92.5,-701.5"/>
<text text-anchor="start" x="100.5" y="-724.3" font-family="Times,serif" font-size="14.00">0x79f2f10:</text>
<text text-anchor="start" x="100.5" y="-709.3" font-family="Times,serif" font-size="14.00"> g36 = v3</text>
</g>
<!-- Node0x2b7bb6e0&#45;&gt;Node0x2d4bbbf0 -->
<g id="edge3" class="edge"><title>Node0x2b7bb6e0&#45;&gt;Node0x2d4bbbf0</title>
<path fill="none" stroke="black" d="M169.999,-791.292C165.112,-785.763 160.18,-779.438 156.5,-773 152.36,-765.758 149.05,-757.361 146.49,-749.475"/>
<polygon fill="black" stroke="black" points="149.845,-748.476 143.644,-739.886 143.134,-750.468 149.845,-748.476"/>
<text text-anchor="middle" x="182.5" y="-761.8" font-family="Times,serif" font-size="14.00">v4 &gt; &#45;1</text>
</g>
<!-- Node0x23995590 -->
<g id="node5" class="node"><title>Node0x23995590</title>
<polygon fill="none" stroke="black" points="142.5,-610.5 142.5,-663.5 248.5,-663.5 248.5,-610.5 142.5,-610.5"/>
<text text-anchor="start" x="150.5" y="-648.3" font-family="Times,serif" font-size="14.00">0x241d8fe0:</text>
<text text-anchor="start" x="150.5" y="-633.3" font-family="Times,serif" font-size="14.00"> v5</text>
<text text-anchor="start" x="150.5" y="-618.3" font-family="Times,serif" font-size="14.00"> v6</text>
</g>
<!-- Node0x2b7bb6e0&#45;&gt;Node0x23995590 -->
<g id="edge4" class="edge"><title>Node0x2b7bb6e0&#45;&gt;Node0x23995590</title>
<path fill="none" stroke="black" d="M200.788,-791.309C203.936,-785.682 206.887,-779.3 208.5,-773 216.966,-739.93 211.674,-701.019 205.491,-673.489"/>
<polygon fill="black" stroke="black" points="208.839,-672.441 203.105,-663.532 202.032,-674.072 208.839,-672.441"/>
<text text-anchor="middle" x="245.5" y="-716.8" font-family="Times,serif" font-size="14.00">v4 &lt;= &#45;1</text>
</g>
<!-- Node0x2d4bbbf0&#45;&gt;Node0x23995590 -->
<g id="edge5" class="edge"><title>Node0x2d4bbbf0&#45;&gt;Node0x23995590</title>
<path fill="none" stroke="black" d="M151.928,-701.413C157.869,-692.766 165.182,-682.124 172.108,-672.044"/>
<polygon fill="black" stroke="black" points="175.017,-673.99 177.796,-663.766 169.248,-670.026 175.017,-673.99"/>
</g>
<!-- Node0x3db3f2e0 -->
<g id="node6" class="node"><title>Node0x3db3f2e0</title>
<polygon fill="none" stroke="black" points="146.5,-519.5 146.5,-572.5 244.5,-572.5 244.5,-519.5 146.5,-519.5"/>
<text text-anchor="start" x="154.5" y="-557.3" font-family="Times,serif" font-size="14.00">0x79f47a0:</text>
<text text-anchor="start" x="154.5" y="-542.3" font-family="Times,serif" font-size="14.00"> if (v4 &lt; 0):</text>
<text text-anchor="start" x="154.5" y="-527.3" font-family="Times,serif" font-size="14.00"> else:</text>
</g>
<!-- Node0x23995590&#45;&gt;Node0x3db3f2e0 -->
<g id="edge6" class="edge"><title>Node0x23995590&#45;&gt;Node0x3db3f2e0</title>
<path fill="none" stroke="black" d="M195.5,-610.258C195.5,-601.678 195.5,-591.961 195.5,-582.762"/>
<polygon fill="black" stroke="black" points="199,-582.685 195.5,-572.685 192,-582.685 199,-582.685"/>
</g>
<!-- Node0x23335980 -->
<g id="node7" class="node"><title>Node0x23335980</title>
<polygon fill="none" stroke="black" points="71.5,-399.5 71.5,-467.5 215.5,-467.5 215.5,-399.5 71.5,-399.5"/>
<text text-anchor="start" x="79.5" y="-452.3" font-family="Times,serif" font-size="14.00">0x79f3a80:</text>
<text text-anchor="start" x="79.5" y="-437.3" font-family="Times,serif" font-size="14.00"> v5 = (v3 &#45; 1)</text>
<text text-anchor="start" x="79.5" y="-422.3" font-family="Times,serif" font-size="14.00"> g36 = v5</text>
<text text-anchor="start" x="79.5" y="-407.3" font-family="Times,serif" font-size="14.00"> v6 = (v4 + 1000)</text>
</g>
<!-- Node0x3db3f2e0&#45;&gt;Node0x23335980 -->
<g id="edge7" class="edge"><title>Node0x3db3f2e0&#45;&gt;Node0x23335980</title>
<path fill="none" stroke="black" d="M183.439,-519.371C177.483,-506.715 170.142,-491.114 163.385,-476.755"/>
<polygon fill="black" stroke="black" points="166.474,-475.099 159.049,-467.541 160.14,-478.08 166.474,-475.099"/>
<text text-anchor="middle" x="198.5" y="-489.8" font-family="Times,serif" font-size="14.00">v4 &lt; 0</text>
</g>
<!-- Node0x2b7bcfe0 -->
<g id="node8" class="node"><title>Node0x2b7bcfe0</title>
<polygon fill="none" stroke="black" points="234,-407 234,-460 331,-460 331,-407 234,-407"/>
<text text-anchor="start" x="242" y="-444.8" font-family="Times,serif" font-size="14.00">0x79f4ba0:</text>
<text text-anchor="start" x="242" y="-429.8" font-family="Times,serif" font-size="14.00"> v6 = v4</text>
<text text-anchor="start" x="242" y="-414.8" font-family="Times,serif" font-size="14.00"> v5 = g36</text>
</g>
<!-- Node0x3db3f2e0&#45;&gt;Node0x2b7bcfe0 -->
<g id="edge8" class="edge"><title>Node0x3db3f2e0&#45;&gt;Node0x2b7bcfe0</title>
<path fill="none" stroke="black" d="M215.678,-519.371C227.561,-504.278 242.741,-484.998 255.629,-468.629"/>
<polygon fill="black" stroke="black" points="258.694,-470.395 262.13,-460.372 253.194,-466.064 258.694,-470.395"/>
<text text-anchor="middle" x="271.5" y="-489.8" font-family="Times,serif" font-size="14.00">v4 &gt;= 0</text>
</g>
<!-- Node0x23991780 -->
<g id="node9" class="node"><title>Node0x23991780</title>
<polygon fill="none" stroke="black" points="105.5,-263.5 105.5,-361.5 347.5,-361.5 347.5,-263.5 105.5,-263.5"/>
<text text-anchor="start" x="113.5" y="-346.3" font-family="Times,serif" font-size="14.00">0x79f5040:</text>
<text text-anchor="start" x="113.5" y="-331.3" font-family="Times,serif" font-size="14.00"> g37 = 1000</text>
<text text-anchor="start" x="113.5" y="-316.3" font-family="Times,serif" font-size="14.00"> g29 = ((1000 * v5) + v6)</text>
<text text-anchor="start" x="113.5" y="-301.3" font-family="Times,serif" font-size="14.00"> v7</text>
<text text-anchor="start" x="113.5" y="-286.3" font-family="Times,serif" font-size="14.00"> g34 = v7</text>
<text text-anchor="start" x="113.5" y="-271.3" font-family="Times,serif" font-size="14.00"> IntToPtrCastExpr&lt;ptr&gt;(g35)()</text>
</g>
<!-- Node0x23335980&#45;&gt;Node0x23991780 -->
<g id="edge9" class="edge"><title>Node0x23335980&#45;&gt;Node0x23991780</title>
<path fill="none" stroke="black" d="M166.62,-399.352C172.991,-390.218 180.085,-380.046 187.1,-369.989"/>
<polygon fill="black" stroke="black" points="190.106,-371.798 192.956,-361.594 184.364,-367.793 190.106,-371.798"/>
</g>
<!-- Node0x2b7bcfe0&#45;&gt;Node0x23991780 -->
<g id="edge10" class="edge"><title>Node0x2b7bcfe0&#45;&gt;Node0x23991780</title>
<path fill="none" stroke="black" d="M270.487,-406.972C265.47,-396.31 259.423,-383.461 253.44,-370.748"/>
<polygon fill="black" stroke="black" points="256.536,-369.107 249.112,-361.549 250.203,-372.088 256.536,-369.107"/>
</g>
<!-- Node0x3db44d40 -->
<g id="node10" class="node"><title>Node0x3db44d40</title>
<polygon fill="none" stroke="black" points="178,-187.5 178,-225.5 275,-225.5 275,-187.5 178,-187.5"/>
<text text-anchor="start" x="186" y="-210.3" font-family="Times,serif" font-size="14.00">0x79f64e0:</text>
<text text-anchor="start" x="186" y="-195.3" font-family="Times,serif" font-size="14.00"> if g9:</text>
</g>
<!-- Node0x23991780&#45;&gt;Node0x3db44d40 -->
<g id="edge11" class="edge"><title>Node0x23991780&#45;&gt;Node0x3db44d40</title>
<path fill="none" stroke="black" d="M226.5,-263.458C226.5,-253.952 226.5,-244.27 226.5,-235.69"/>
<polygon fill="black" stroke="black" points="230,-235.509 226.5,-225.509 223,-235.509 230,-235.509"/>
</g>
<!-- Node0x223faa50 -->
<g id="node11" class="node"><title>Node0x223faa50</title>
<polygon fill="none" stroke="black" points="3.5,-97.5 3.5,-135.5 227.5,-135.5 227.5,-97.5 3.5,-97.5"/>
<text text-anchor="start" x="11.5" y="-120.3" font-family="Times,serif" font-size="14.00">0x79f6270:</text>
<text text-anchor="start" x="11.5" y="-105.3" font-family="Times,serif" font-size="14.00"> g38 = ((g29 / 16) &amp; 141308)</text>
</g>
<!-- Node0x3db44d40&#45;&gt;Node0x223faa50 -->
<g id="edge12" class="edge"><title>Node0x3db44d40&#45;&gt;Node0x223faa50</title>
<path fill="none" stroke="black" d="M203.77,-187.48C187.269,-174.398 164.747,-156.543 146.583,-142.142"/>
<polygon fill="black" stroke="black" points="148.592,-139.269 138.581,-135.799 144.243,-144.754 148.592,-139.269"/>
<text text-anchor="middle" x="188" y="-157.8" font-family="Times,serif" font-size="14.00">g9</text>
</g>
<!-- Node0x2b7bb1e0 -->
<g id="node12" class="node"><title>Node0x2b7bb1e0</title>
<polygon fill="none" stroke="black" points="193.5,-23.5 193.5,-59.5 247.5,-59.5 247.5,-23.5 193.5,-23.5"/>
<text text-anchor="start" x="201.5" y="-37.8" font-family="Times,serif" font-size="14.00">exit:</text>
</g>
<!-- Node0x3db44d40&#45;&gt;Node0x2b7bb1e0 -->
<g id="edge13" class="edge"><title>Node0x3db44d40&#45;&gt;Node0x2b7bb1e0</title>
<path fill="none" stroke="black" d="M230.756,-187.388C235.234,-165.793 241.049,-128.644 236.5,-97 235.189,-87.8798 232.703,-78.1568 230.075,-69.486"/>
<polygon fill="black" stroke="black" points="233.382,-68.3365 226.987,-59.8897 226.719,-70.4811 233.382,-68.3365"/>
<text text-anchor="middle" x="266" y="-112.8" font-family="Times,serif" font-size="14.00">not (g9)</text>
</g>
<!-- Node0x223faa50&#45;&gt;Node0x2b7bb1e0 -->
<g id="edge14" class="edge"><title>Node0x223faa50&#45;&gt;Node0x2b7bb1e0</title>
<path fill="none" stroke="black" d="M141.455,-97.4551C155.365,-87.7844 172.649,-75.7681 187.504,-65.4403"/>
<polygon fill="black" stroke="black" points="189.713,-68.1671 195.926,-59.585 185.717,-62.4197 189.713,-68.1671"/>
</g>
</g>
</svg>
