<?xml version="1.0" encoding="UTF-8" standalone="no"?>
<!DOCTYPE svg PUBLIC "-//W3C//DTD SVG 1.1//EN"
 "http://www.w3.org/Graphics/SVG/1.1/DTD/svg11.dtd">
<!-- Generated by graphviz version 2.38.0 (20140413.2041)
 -->
<!-- Title: Control&#45;flow graph for function &#39;function_13898()&#39;. Pages: 1 -->
<svg width="884pt" height="1813pt"
 viewBox="0.00 0.00 883.50 1813.00" xmlns="http://www.w3.org/2000/svg" xmlns:xlink="http://www.w3.org/1999/xlink">
<g id="graph0" class="graph" transform="scale(1 1) rotate(0) translate(4 1809)">
<title>Control&#45;flow graph for function &#39;function_13898()&#39;.</title>
<polygon fill="white" stroke="none" points="-4,4 -4,-1809 879.5,-1809 879.5,4 -4,4"/>
<text text-anchor="middle" x="437.75" y="-7.8" font-family="Times,serif" font-size="14.00">Control&#45;flow graph for function &#39;function_13898()&#39;.</text>
<!-- Node0x37596530 -->
<g id="node1" class="node"><title>Node0x37596530</title>
<polygon fill="none" stroke="black" points="702.5,-1768.5 702.5,-1804.5 761.5,-1804.5 761.5,-1768.5 702.5,-1768.5"/>
<text text-anchor="start" x="710.5" y="-1782.8" font-family="Times,serif" font-size="14.00">entry:</text>
</g>
<!-- Node0x34053e60 -->
<g id="node2" class="node"><title>Node0x34053e60</title>
<polygon fill="none" stroke="black" points="588.5,-1422.5 588.5,-1730.5 875.5,-1730.5 875.5,-1422.5 588.5,-1422.5"/>
<text text-anchor="start" x="596.5" y="-1715.3" font-family="Times,serif" font-size="14.00">0x2b7e1590:</text>
<text text-anchor="start" x="596.5" y="-1700.3" font-family="Times,serif" font-size="14.00"> v1 = g38</text>
<text text-anchor="start" x="596.5" y="-1685.3" font-family="Times,serif" font-size="14.00"> v2 = g39</text>
<text text-anchor="start" x="596.5" y="-1670.3" font-family="Times,serif" font-size="14.00"> v3 = g40</text>
<text text-anchor="start" x="596.5" y="-1655.3" font-family="Times,serif" font-size="14.00"> v4 = g41</text>
<text text-anchor="start" x="596.5" y="-1640.3" font-family="Times,serif" font-size="14.00"> v5 = g42</text>
<text text-anchor="start" x="596.5" y="-1625.3" font-family="Times,serif" font-size="14.00"> v6 = g43</text>
<text text-anchor="start" x="596.5" y="-1610.3" font-family="Times,serif" font-size="14.00"> v7 = g31</text>
<text text-anchor="start" x="596.5" y="-1595.3" font-family="Times,serif" font-size="14.00"> v8 = g32</text>
<text text-anchor="start" x="596.5" y="-1580.3" font-family="Times,serif" font-size="14.00"> g36 = 165012</text>
<text text-anchor="start" x="596.5" y="-1565.3" font-family="Times,serif" font-size="14.00"> v9 = g30</text>
<text text-anchor="start" x="596.5" y="-1550.3" font-family="Times,serif" font-size="14.00"> v10 = *(IntToPtrCastExpr&lt;ptr&gt;(v9))</text>
<text text-anchor="start" x="596.5" y="-1535.3" font-family="Times,serif" font-size="14.00"> g38 = v10</text>
<text text-anchor="start" x="596.5" y="-1520.3" font-family="Times,serif" font-size="14.00"> g31 = v9</text>
<text text-anchor="start" x="596.5" y="-1505.3" font-family="Times,serif" font-size="14.00"> v11 = g29</text>
<text text-anchor="start" x="596.5" y="-1490.3" font-family="Times,serif" font-size="14.00"> g41 = v11</text>
<text text-anchor="start" x="596.5" y="-1475.3" font-family="Times,serif" font-size="14.00"> g43 = 156761</text>
<text text-anchor="start" x="596.5" y="-1460.3" font-family="Times,serif" font-size="14.00"> g39 = 156726</text>
<text text-anchor="start" x="596.5" y="-1445.3" font-family="Times,serif" font-size="14.00"> g42 = (v11 + v10)</text>
<text text-anchor="start" x="596.5" y="-1430.3" font-family="Times,serif" font-size="14.00"> v12 = 156726</text>
</g>
<!-- Node0x37596530&#45;&gt;Node0x34053e60 -->
<g id="edge1" class="edge"><title>Node0x37596530&#45;&gt;Node0x34053e60</title>
<path fill="none" stroke="black" d="M732,-1768.48C732,-1761.05 732,-1751.57 732,-1740.83"/>
<polygon fill="black" stroke="black" points="735.5,-1740.62 732,-1730.62 728.5,-1740.62 735.5,-1740.62"/>
</g>
<!-- Node0x47e02db0 -->
<g id="node3" class="node"><title>Node0x47e02db0</title>
<polygon fill="none" stroke="black" points="681.5,-1346.5 681.5,-1384.5 782.5,-1384.5 782.5,-1346.5 681.5,-1346.5"/>
<text text-anchor="start" x="689.5" y="-1369.3" font-family="Times,serif" font-size="14.00">0x805b7d0:</text>
<text text-anchor="start" x="689.5" y="-1354.3" font-family="Times,serif" font-size="14.00"> while True:</text>
</g>
<!-- Node0x34053e60&#45;&gt;Node0x47e02db0 -->
<g id="edge2" class="edge"><title>Node0x34053e60&#45;&gt;Node0x47e02db0</title>
<path fill="none" stroke="black" d="M732,-1422.23C732,-1412.18 732,-1402.9 732,-1394.91"/>
<polygon fill="black" stroke="black" points="735.5,-1394.87 732,-1384.87 728.5,-1394.87 735.5,-1394.87"/>
</g>
<!-- Node0x37596d30 -->
<g id="node4" class="node"><title>Node0x37596d30</title>
<polygon fill="none" stroke="black" points="307,-1226.5 307,-1294.5 783,-1294.5 783,-1226.5 307,-1226.5"/>
<text text-anchor="start" x="315" y="-1279.3" font-family="Times,serif" font-size="14.00">0x40732100:</text>
<text text-anchor="start" x="315" y="-1264.3" font-family="Times,serif" font-size="14.00"> n = ExtCastExpr&lt;int32&gt;(*(IntToPtrCastExpr&lt;ptr&gt;((v12 &#45; 2))))</text>
<text text-anchor="start" x="315" y="-1249.3" font-family="Times,serif" font-size="14.00"> g37 = n</text>
<text text-anchor="start" x="315" y="-1234.3" font-family="Times,serif" font-size="14.00"> g40 = (v10 &#45; n)</text>
</g>
<!-- Node0x47e02db0&#45;&gt;Node0x37596d30 -->
<g id="edge3" class="edge"><title>Node0x47e02db0&#45;&gt;Node0x37596d30</title>
<path fill="none" stroke="black" d="M698.999,-1346.32C675.528,-1333.4 643.145,-1315.56 614.128,-1299.58"/>
<polygon fill="black" stroke="black" points="615.692,-1296.44 605.245,-1294.68 612.315,-1302.57 615.692,-1296.44"/>
<text text-anchor="middle" x="677" y="-1316.8" font-family="Times,serif" font-size="14.00">True</text>
</g>
<!-- Node0x3405a930 -->
<g id="node5" class="node"><title>Node0x3405a930</title>
<polygon fill="none" stroke="black" points="485.5,-1150.5 485.5,-1188.5 604.5,-1188.5 604.5,-1150.5 485.5,-1150.5"/>
<text text-anchor="start" x="493.5" y="-1173.3" font-family="Times,serif" font-size="14.00">0x8055470:</text>
<text text-anchor="start" x="493.5" y="-1158.3" font-family="Times,serif" font-size="14.00"> if (v10 &gt;= 0):</text>
</g>
<!-- Node0x37596d30&#45;&gt;Node0x3405a930 -->
<g id="edge4" class="edge"><title>Node0x37596d30&#45;&gt;Node0x3405a930</title>
<path fill="none" stroke="black" d="M545,-1226.36C545,-1217.36 545,-1207.71 545,-1198.99"/>
<polygon fill="black" stroke="black" points="548.5,-1198.94 545,-1188.94 541.5,-1198.94 548.5,-1198.94"/>
</g>
<!-- Node0x32d88770 -->
<g id="node6" class="node"><title>Node0x32d88770</title>
<polygon fill="none" stroke="black" points="0,-1030.5 0,-1098.5 688,-1098.5 688,-1030.5 0,-1030.5"/>
<text text-anchor="start" x="8" y="-1083.3" font-family="Times,serif" font-size="14.00">0x3bb48b50:</text>
<text text-anchor="start" x="8" y="-1068.3" font-family="Times,serif" font-size="14.00"> memcmp_rc = memcmp(IntToPtrCastExpr&lt;ptr&gt;((g42 &#45; n)), IntToPtrCastExpr&lt;ptr&gt;(v12), n)</text>
<text text-anchor="start" x="8" y="-1053.3" font-family="Times,serif" font-size="14.00"> g7 = (memcmp_rc &lt; 0)</text>
<text text-anchor="start" x="8" y="-1038.3" font-family="Times,serif" font-size="14.00"> g9 = (memcmp_rc == 0)</text>
</g>
<!-- Node0x3405a930&#45;&gt;Node0x32d88770 -->
<g id="edge5" class="edge"><title>Node0x3405a930&#45;&gt;Node0x32d88770</title>
<path fill="none" stroke="black" d="M509.528,-1150.32C484.192,-1137.34 449.192,-1119.4 417.9,-1103.37"/>
<polygon fill="black" stroke="black" points="419.251,-1100.13 408.755,-1098.68 416.058,-1106.36 419.251,-1100.13"/>
<text text-anchor="middle" x="503.5" y="-1120.8" font-family="Times,serif" font-size="14.00">v10 &gt;= 0</text>
</g>
<!-- Node0x47e02990 -->
<g id="node7" class="node"><title>Node0x47e02990</title>
<polygon fill="none" stroke="black" points="434.5,-443.5 434.5,-541.5 611.5,-541.5 611.5,-443.5 434.5,-443.5"/>
<text text-anchor="start" x="442.5" y="-526.3" font-family="Times,serif" font-size="14.00">0x138bb540:</text>
<text text-anchor="start" x="442.5" y="-511.3" font-family="Times,serif" font-size="14.00"> v17 = (g39 + 7)</text>
<text text-anchor="start" x="442.5" y="-496.3" font-family="Times,serif" font-size="14.00"> g39 = v17</text>
<text text-anchor="start" x="442.5" y="-481.3" font-family="Times,serif" font-size="14.00"> v18 = g43</text>
<text text-anchor="start" x="442.5" y="-466.3" font-family="Times,serif" font-size="14.00"> g7 = ((v17 &#45; v18) &lt; 0)</text>
<text text-anchor="start" x="442.5" y="-451.3" font-family="Times,serif" font-size="14.00"> g9 = (v17 == v18)</text>
</g>
<!-- Node0x3405a930&#45;&gt;Node0x47e02990 -->
<g id="edge6" class="edge"><title>Node0x3405a930&#45;&gt;Node0x47e02990</title>
<path fill="none" stroke="black" d="M604.808,-1157.89C654.119,-1145.3 716,-1118.87 716,-1065.5 716,-1065.5 716,-1065.5 716,-740 716,-667.948 738.616,-637.818 697,-579 678.581,-552.967 649.962,-534.493 621.216,-521.548"/>
<polygon fill="black" stroke="black" points="622.46,-518.273 611.891,-517.536 619.694,-524.703 622.46,-518.273"/>
<text text-anchor="middle" x="744.5" y="-969.8" font-family="Times,serif" font-size="14.00">v10 &lt; 0</text>
</g>
<!-- Node0x34055b40 -->
<g id="node8" class="node"><title>Node0x34055b40</title>
<polygon fill="none" stroke="black" points="253.5,-954.5 253.5,-992.5 434.5,-992.5 434.5,-954.5 253.5,-954.5"/>
<text text-anchor="start" x="261.5" y="-977.3" font-family="Times,serif" font-size="14.00">0x80552a0:</text>
<text text-anchor="start" x="261.5" y="-962.3" font-family="Times,serif" font-size="14.00"> if (memcmp_rc == 0):</text>
</g>
<!-- Node0x32d88770&#45;&gt;Node0x34055b40 -->
<g id="edge7" class="edge"><title>Node0x32d88770&#45;&gt;Node0x34055b40</title>
<path fill="none" stroke="black" d="M344,-1030.36C344,-1021.36 344,-1011.71 344,-1002.99"/>
<polygon fill="black" stroke="black" points="347.5,-1002.94 344,-992.941 340.5,-1002.94 347.5,-1002.94"/>
</g>
<!-- Node0x1c3a1280 -->
<g id="node9" class="node"><title>Node0x1c3a1280</title>
<polygon fill="none" stroke="black" points="455,-367.5 455,-405.5 591,-405.5 591,-367.5 455,-367.5"/>
<text text-anchor="start" x="463" y="-390.3" font-family="Times,serif" font-size="14.00">0x805ad50:</text>
<text text-anchor="start" x="463" y="-375.3" font-family="Times,serif" font-size="14.00"> if (v17 == v18):</text>
</g>
<!-- Node0x47e02990&#45;&gt;Node0x1c3a1280 -->
<g id="edge8" class="edge"><title>Node0x47e02990&#45;&gt;Node0x1c3a1280</title>
<path fill="none" stroke="black" d="M523,-443.458C523,-433.952 523,-424.27 523,-415.69"/>
<polygon fill="black" stroke="black" points="526.5,-415.509 523,-405.509 519.5,-415.509 526.5,-415.509"/>
</g>
<!-- Node0x34055b40&#45;&gt;Node0x47e02990 -->
<g id="edge10" class="edge"><title>Node0x34055b40&#45;&gt;Node0x47e02990</title>
<path fill="none" stroke="black" d="M287.788,-954.445C263.67,-943.591 237.887,-927.091 224,-903 152.085,-778.243 137.297,-693.972 224,-579 248.344,-546.718 346.549,-522.944 423.856,-508.772"/>
<polygon fill="black" stroke="black" points="424.912,-512.138 434.134,-506.921 423.672,-505.249 424.912,-512.138"/>
<text text-anchor="middle" x="286.5" y="-737.3" font-family="Times,serif" font-size="14.00">memcmp_rc != 0</text>
</g>
<!-- Node0x333faaa0 -->
<g id="node10" class="node"><title>Node0x333faaa0</title>
<polygon fill="none" stroke="black" points="358,-579.5 358,-902.5 688,-902.5 688,-579.5 358,-579.5"/>
<text text-anchor="start" x="366" y="-887.3" font-family="Times,serif" font-size="14.00">0x3bb48c70:</text>
<text text-anchor="start" x="366" y="-872.3" font-family="Times,serif" font-size="14.00"> v13 = (g40 + 1)</text>
<text text-anchor="start" x="366" y="-857.3" font-family="Times,serif" font-size="14.00"> g37 = v13</text>
<text text-anchor="start" x="366" y="-842.3" font-family="Times,serif" font-size="14.00"> *(IntToPtrCastExpr&lt;ptr&gt;(g31)) = v13</text>
<text text-anchor="start" x="366" y="-827.3" font-family="Times,serif" font-size="14.00"> v14 = *(IntToPtrCastExpr&lt;ptr&gt;((g39 &#45; 1)))</text>
<text text-anchor="start" x="366" y="-812.3" font-family="Times,serif" font-size="14.00"> g36 = v14</text>
<text text-anchor="start" x="366" y="-797.3" font-family="Times,serif" font-size="14.00"> v15 = (g37 + g41)</text>
<text text-anchor="start" x="366" y="-782.3" font-family="Times,serif" font-size="14.00"> g37 = v15</text>
<text text-anchor="start" x="366" y="-767.3" font-family="Times,serif" font-size="14.00"> g29 = 1</text>
<text text-anchor="start" x="366" y="-752.3" font-family="Times,serif" font-size="14.00"> *(IntToPtrCastExpr&lt;ptr&gt;((v15 &#45; 1))) = v14</text>
<text text-anchor="start" x="366" y="-737.3" font-family="Times,serif" font-size="14.00"> g38 = v1</text>
<text text-anchor="start" x="366" y="-722.3" font-family="Times,serif" font-size="14.00"> g39 = v2</text>
<text text-anchor="start" x="366" y="-707.3" font-family="Times,serif" font-size="14.00"> g40 = v3</text>
<text text-anchor="start" x="366" y="-692.3" font-family="Times,serif" font-size="14.00"> g41 = v4</text>
<text text-anchor="start" x="366" y="-677.3" font-family="Times,serif" font-size="14.00"> g42 = v5</text>
<text text-anchor="start" x="366" y="-662.3" font-family="Times,serif" font-size="14.00"> g43 = v6</text>
<text text-anchor="start" x="366" y="-647.3" font-family="Times,serif" font-size="14.00"> g31 = v7</text>
<text text-anchor="start" x="366" y="-632.3" font-family="Times,serif" font-size="14.00"> g32 = v8</text>
<text text-anchor="start" x="366" y="-617.3" font-family="Times,serif" font-size="14.00"> v16</text>
<text text-anchor="start" x="366" y="-602.3" font-family="Times,serif" font-size="14.00"> g34 = v16</text>
<text text-anchor="start" x="366" y="-587.3" font-family="Times,serif" font-size="14.00"> IntToPtrCastExpr&lt;ptr&gt;(g35)()</text>
</g>
<!-- Node0x34055b40&#45;&gt;Node0x333faaa0 -->
<g id="edge9" class="edge"><title>Node0x34055b40&#45;&gt;Node0x333faaa0</title>
<path fill="none" stroke="black" d="M358.046,-954.413C366.587,-943.415 378.428,-928.167 391.883,-910.841"/>
<polygon fill="black" stroke="black" points="394.804,-912.786 398.173,-902.741 389.275,-908.493 394.804,-912.786"/>
<text text-anchor="middle" x="448.5" y="-924.8" font-family="Times,serif" font-size="14.00">memcmp_rc == 0</text>
</g>
<!-- Node0x47e07da0 -->
<g id="node11" class="node"><title>Node0x47e07da0</title>
<polygon fill="none" stroke="black" points="249.5,-97.5 249.5,-315.5 742.5,-315.5 742.5,-97.5 249.5,-97.5"/>
<text text-anchor="start" x="257.5" y="-300.3" font-family="Times,serif" font-size="14.00">0x80568d0:</text>
<text text-anchor="start" x="257.5" y="-285.3" font-family="Times,serif" font-size="14.00"> g29 = 0</text>
<text text-anchor="start" x="257.5" y="-270.3" font-family="Times,serif" font-size="14.00"> v19 = g34</text>
<text text-anchor="start" x="257.5" y="-255.3" font-family="Times,serif" font-size="14.00"> g38 = *(IntToPtrCastExpr&lt;ptr&gt;((v19 + 4)))</text>
<text text-anchor="start" x="257.5" y="-240.3" font-family="Times,serif" font-size="14.00"> g39 = *(IntToPtrCastExpr&lt;ptr&gt;((v19 + 8)))</text>
<text text-anchor="start" x="257.5" y="-225.3" font-family="Times,serif" font-size="14.00"> g40 = *(IntToPtrCastExpr&lt;ptr&gt;((v19 + 12)))</text>
<text text-anchor="start" x="257.5" y="-210.3" font-family="Times,serif" font-size="14.00"> g41 = *(IntToPtrCastExpr&lt;ptr&gt;((v19 + 16)))</text>
<text text-anchor="start" x="257.5" y="-195.3" font-family="Times,serif" font-size="14.00"> g42 = *(IntToPtrCastExpr&lt;ptr&gt;((v19 + 20)))</text>
<text text-anchor="start" x="257.5" y="-180.3" font-family="Times,serif" font-size="14.00"> g43 = *(IntToPtrCastExpr&lt;ptr&gt;((v19 + 24)))</text>
<text text-anchor="start" x="257.5" y="-165.3" font-family="Times,serif" font-size="14.00"> g31 = *(IntToPtrCastExpr&lt;ptr&gt;((v19 + 28)))</text>
<text text-anchor="start" x="257.5" y="-150.3" font-family="Times,serif" font-size="14.00"> g32 = *(IntToPtrCastExpr&lt;ptr&gt;((v19 + 32)))</text>
<text text-anchor="start" x="257.5" y="-135.3" font-family="Times,serif" font-size="14.00"> g34 = *(IntToPtrCastExpr&lt;ptr&gt;((v19 + 36)))</text>
<text text-anchor="start" x="257.5" y="-120.3" font-family="Times,serif" font-size="14.00"> IntToPtrCastExpr&lt;ptr&gt;(*(IntToPtrCastExpr&lt;ptr&gt;((v19 + 40))))()</text>
<text text-anchor="start" x="257.5" y="-105.3" font-family="Times,serif" font-size="14.00"> return</text>
</g>
<!-- Node0x1c3a1280&#45;&gt;Node0x47e07da0 -->
<g id="edge11" class="edge"><title>Node0x1c3a1280&#45;&gt;Node0x47e07da0</title>
<path fill="none" stroke="black" d="M520.263,-367.453C518.63,-356.693 516.403,-342.008 513.955,-325.872"/>
<polygon fill="black" stroke="black" points="517.366,-325.022 512.406,-315.66 510.446,-326.071 517.366,-325.022"/>
<text text-anchor="middle" x="561" y="-337.8" font-family="Times,serif" font-size="14.00">v17 == v18</text>
</g>
<!-- Node0x32d85f70 -->
<g id="node12" class="node"><title>Node0x32d85f70</title>
<polygon fill="none" stroke="black" points="760.5,-180 760.5,-233 861.5,-233 861.5,-180 760.5,-180"/>
<text text-anchor="start" x="768.5" y="-217.8" font-family="Times,serif" font-size="14.00">0x805b110:</text>
<text text-anchor="start" x="768.5" y="-202.8" font-family="Times,serif" font-size="14.00"> v12 = v17</text>
<text text-anchor="start" x="768.5" y="-187.8" font-family="Times,serif" font-size="14.00"> v10 = g38</text>
</g>
<!-- Node0x1c3a1280&#45;&gt;Node0x32d85f70 -->
<g id="edge12" class="edge"><title>Node0x1c3a1280&#45;&gt;Node0x32d85f70</title>
<path fill="none" stroke="black" d="M591.232,-370.677C649.012,-357.063 726.279,-336.022 751,-316 774.375,-297.068 790.11,-266.473 799.579,-242.591"/>
<polygon fill="black" stroke="black" points="802.886,-243.741 803.14,-233.149 796.336,-241.271 802.886,-243.741"/>
<text text-anchor="middle" x="756" y="-337.8" font-family="Times,serif" font-size="14.00">v17 != v18</text>
</g>
<!-- Node0x333faaa0&#45;&gt;Node0x47e02990 -->
<g id="edge13" class="edge"><title>Node0x333faaa0&#45;&gt;Node0x47e02990</title>
<path fill="none" stroke="black" d="M523,-579.368C523,-569.854 523,-560.669 523,-552.07"/>
<polygon fill="black" stroke="black" points="526.5,-551.889 523,-541.889 519.5,-551.889 526.5,-551.889"/>
</g>
<!-- Node0x47e03e40 -->
<g id="node13" class="node"><title>Node0x47e03e40</title>
<polygon fill="none" stroke="black" points="469,-23.5 469,-59.5 523,-59.5 523,-23.5 469,-23.5"/>
<text text-anchor="start" x="477" y="-37.8" font-family="Times,serif" font-size="14.00">exit:</text>
</g>
<!-- Node0x47e07da0&#45;&gt;Node0x47e03e40 -->
<g id="edge14" class="edge"><title>Node0x47e07da0&#45;&gt;Node0x47e03e40</title>
<path fill="none" stroke="black" d="M496,-97.2301C496,-87.2044 496,-77.7868 496,-69.684"/>
<polygon fill="black" stroke="black" points="499.5,-69.516 496,-59.516 492.5,-69.5161 499.5,-69.516"/>
</g>
<!-- Node0x32d85f70&#45;&gt;Node0x47e02db0 -->
<g id="edge15" class="edge"><title>Node0x32d85f70&#45;&gt;Node0x47e02db0</title>
<path fill="none" stroke="black" d="M811,-233.145C811,-267.736 811,-331.266 811,-385.5 811,-1261.5 811,-1261.5 811,-1261.5 811,-1293.21 787.13,-1321.18 765.632,-1339.94"/>
<polygon fill="black" stroke="black" points="763.299,-1337.33 757.868,-1346.43 767.786,-1342.7 763.299,-1337.33"/>
</g>
</g>
</svg>
