<?xml version="1.0" encoding="UTF-8" standalone="no"?>
<!DOCTYPE svg PUBLIC "-//W3C//DTD SVG 1.1//EN"
 "http://www.w3.org/Graphics/SVG/1.1/DTD/svg11.dtd">
<!-- Generated by graphviz version 2.38.0 (20140413.2041)
 -->
<!-- Title: Control&#45;flow graph for function &#39;function_6264()&#39;. Pages: 1 -->
<svg width="1720pt" height="3224pt"
 viewBox="0.00 0.00 1720.00 3224.00" xmlns="http://www.w3.org/2000/svg" xmlns:xlink="http://www.w3.org/1999/xlink">
<g id="graph0" class="graph" transform="scale(1 1) rotate(0) translate(4 3220)">
<title>Control&#45;flow graph for function &#39;function_6264()&#39;.</title>
<polygon fill="white" stroke="none" points="-4,4 -4,-3220 1716,-3220 1716,4 -4,4"/>
<text text-anchor="middle" x="856" y="-7.8" font-family="Times,serif" font-size="14.00">Control&#45;flow graph for function &#39;function_6264()&#39;.</text>
<!-- Node0x15078a50 -->
<g id="node1" class="node"><title>Node0x15078a50</title>
<polygon fill="none" stroke="black" points="715.5,-3179.5 715.5,-3215.5 774.5,-3215.5 774.5,-3179.5 715.5,-3179.5"/>
<text text-anchor="start" x="723.5" y="-3193.8" font-family="Times,serif" font-size="14.00">entry:</text>
</g>
<!-- Node0x2aec1d90 -->
<g id="node2" class="node"><title>Node0x2aec1d90</title>
<polygon fill="none" stroke="black" points="683.5,-2863.5 683.5,-3141.5 806.5,-3141.5 806.5,-2863.5 683.5,-2863.5"/>
<text text-anchor="start" x="691.5" y="-3126.3" font-family="Times,serif" font-size="14.00">0x474ff890:</text>
<text text-anchor="start" x="691.5" y="-3111.3" font-family="Times,serif" font-size="14.00"> v1 = g38</text>
<text text-anchor="start" x="691.5" y="-3096.3" font-family="Times,serif" font-size="14.00"> v2 = g39</text>
<text text-anchor="start" x="691.5" y="-3081.3" font-family="Times,serif" font-size="14.00"> v3 = g40</text>
<text text-anchor="start" x="691.5" y="-3066.3" font-family="Times,serif" font-size="14.00"> v4 = g32</text>
<text text-anchor="start" x="691.5" y="-3051.3" font-family="Times,serif" font-size="14.00"> v5 = g29</text>
<text text-anchor="start" x="691.5" y="-3036.3" font-family="Times,serif" font-size="14.00"> g38 = v5</text>
<text text-anchor="start" x="691.5" y="-3021.3" font-family="Times,serif" font-size="14.00"> g40 = 165012</text>
<text text-anchor="start" x="691.5" y="-3006.3" font-family="Times,serif" font-size="14.00"> v6 = g30</text>
<text text-anchor="start" x="691.5" y="-2991.3" font-family="Times,serif" font-size="14.00"> g39 = v6</text>
<text text-anchor="start" x="691.5" y="-2976.3" font-family="Times,serif" font-size="14.00"> v7 = v5</text>
<text text-anchor="start" x="691.5" y="-2961.3" font-family="Times,serif" font-size="14.00"> v8</text>
<text text-anchor="start" x="691.5" y="-2946.3" font-family="Times,serif" font-size="14.00"> v9</text>
<text text-anchor="start" x="691.5" y="-2931.3" font-family="Times,serif" font-size="14.00"> v10</text>
<text text-anchor="start" x="691.5" y="-2916.3" font-family="Times,serif" font-size="14.00"> v11</text>
<text text-anchor="start" x="691.5" y="-2901.3" font-family="Times,serif" font-size="14.00"> v12</text>
<text text-anchor="start" x="691.5" y="-2886.3" font-family="Times,serif" font-size="14.00"> v13</text>
<text text-anchor="start" x="691.5" y="-2871.3" font-family="Times,serif" font-size="14.00"> v14</text>
</g>
<!-- Node0x15078a50&#45;&gt;Node0x2aec1d90 -->
<g id="edge1" class="edge"><title>Node0x15078a50&#45;&gt;Node0x2aec1d90</title>
<path fill="none" stroke="black" d="M745,-3179.37C745,-3171.96 745,-3162.53 745,-3151.92"/>
<polygon fill="black" stroke="black" points="748.5,-3151.85 745,-3141.85 741.5,-3151.85 748.5,-3151.85"/>
</g>
<!-- Node0x2aec2890 -->
<g id="node3" class="node"><title>Node0x2aec2890</title>
<polygon fill="none" stroke="black" points="592.5,-2787.5 592.5,-2825.5 897.5,-2825.5 897.5,-2787.5 592.5,-2787.5"/>
<text text-anchor="start" x="600.5" y="-2810.3" font-family="Times,serif" font-size="14.00">0x607db30:</text>
<text text-anchor="start" x="600.5" y="-2795.3" font-family="Times,serif" font-size="14.00"> if (*(IntToPtrCastExpr&lt;ptr&gt;(v5)) != 1):</text>
</g>
<!-- Node0x2aec1d90&#45;&gt;Node0x2aec2890 -->
<g id="edge2" class="edge"><title>Node0x2aec1d90&#45;&gt;Node0x2aec2890</title>
<path fill="none" stroke="black" d="M745,-2863.35C745,-2853.21 745,-2843.8 745,-2835.71"/>
<polygon fill="black" stroke="black" points="748.5,-2835.55 745,-2825.55 741.5,-2835.55 748.5,-2835.55"/>
</g>
<!-- Node0x195b6430 -->
<g id="node4" class="node"><title>Node0x195b6430</title>
<polygon fill="none" stroke="black" points="450.5,-2652.5 450.5,-2705.5 761.5,-2705.5 761.5,-2652.5 450.5,-2652.5"/>
<text text-anchor="start" x="458.5" y="-2690.3" font-family="Times,serif" font-size="14.00">0x60a3fa0:</text>
<text text-anchor="start" x="458.5" y="-2675.3" font-family="Times,serif" font-size="14.00"> if (*(IntToPtrCastExpr&lt;ptr&gt;(v7)) == 2):</text>
<text text-anchor="start" x="458.5" y="-2660.3" font-family="Times,serif" font-size="14.00"> else:</text>
</g>
<!-- Node0x2aec2890&#45;&gt;Node0x195b6430 -->
<g id="edge3" class="edge"><title>Node0x2aec2890&#45;&gt;Node0x195b6430</title>
<path fill="none" stroke="black" d="M643.813,-2787.46C626.731,-2782.42 612.673,-2776.28 607,-2769 595.491,-2754.22 594.656,-2733.49 596.968,-2715.75"/>
<polygon fill="black" stroke="black" points="600.448,-2716.16 598.636,-2705.72 593.543,-2715.01 600.448,-2716.16"/>
<text text-anchor="middle" x="735" y="-2757.8" font-family="Times,serif" font-size="14.00">*(IntToPtrCastExpr&lt;ptr&gt;(v5)) != 1</text>
</g>
<!-- Node0x13a445a0 -->
<g id="node5" class="node"><title>Node0x13a445a0</title>
<polygon fill="none" stroke="black" points="813.5,-2622.5 813.5,-2735.5 956.5,-2735.5 956.5,-2622.5 813.5,-2622.5"/>
<text text-anchor="start" x="821.5" y="-2720.3" font-family="Times,serif" font-size="14.00">0x5eea5f0:</text>
<text text-anchor="start" x="821.5" y="-2705.3" font-family="Times,serif" font-size="14.00"> g29 = v6</text>
<text text-anchor="start" x="821.5" y="-2690.3" font-family="Times,serif" font-size="14.00"> g30 = 154444</text>
<text text-anchor="start" x="821.5" y="-2675.3" font-family="Times,serif" font-size="14.00"> function_13370()</text>
<text text-anchor="start" x="821.5" y="-2660.3" font-family="Times,serif" font-size="14.00"> v15 = g29</text>
<text text-anchor="start" x="821.5" y="-2645.3" font-family="Times,serif" font-size="14.00"> g9 = (v15 == 0)</text>
<text text-anchor="start" x="821.5" y="-2630.3" font-family="Times,serif" font-size="14.00"> v11 = 0</text>
</g>
<!-- Node0x2aec2890&#45;&gt;Node0x13a445a0 -->
<g id="edge4" class="edge"><title>Node0x2aec2890&#45;&gt;Node0x13a445a0</title>
<path fill="none" stroke="black" d="M837.538,-2787.49C847.013,-2782.69 855.787,-2776.64 863,-2769 869.339,-2762.29 873.934,-2754.04 877.251,-2745.31"/>
<polygon fill="black" stroke="black" points="880.615,-2746.28 880.37,-2735.69 873.956,-2744.12 880.615,-2746.28"/>
<text text-anchor="middle" x="1004" y="-2757.8" font-family="Times,serif" font-size="14.00">*(IntToPtrCastExpr&lt;ptr&gt;(v5)) == 1</text>
</g>
<!-- Node0x455fbcf0 -->
<g id="node6" class="node"><title>Node0x455fbcf0</title>
<polygon fill="none" stroke="black" points="238.5,-2472.5 238.5,-2570.5 403.5,-2570.5 403.5,-2472.5 238.5,-2472.5"/>
<text text-anchor="start" x="246.5" y="-2555.3" font-family="Times,serif" font-size="14.00">0x609fee0:</text>
<text text-anchor="start" x="246.5" y="-2540.3" font-family="Times,serif" font-size="14.00"> g29 = g39</text>
<text text-anchor="start" x="246.5" y="-2525.3" font-family="Times,serif" font-size="14.00"> g30 = (g40 &#45; 10560)</text>
<text text-anchor="start" x="246.5" y="-2510.3" font-family="Times,serif" font-size="14.00"> function_13370()</text>
<text text-anchor="start" x="246.5" y="-2495.3" font-family="Times,serif" font-size="14.00"> v12 = g29</text>
<text text-anchor="start" x="246.5" y="-2480.3" font-family="Times,serif" font-size="14.00"> g9 = (v12 == 0)</text>
</g>
<!-- Node0x195b6430&#45;&gt;Node0x455fbcf0 -->
<g id="edge5" class="edge"><title>Node0x195b6430&#45;&gt;Node0x455fbcf0</title>
<path fill="none" stroke="black" d="M450.321,-2654.62C393.638,-2642.68 339.193,-2625.97 322,-2604 316.734,-2597.27 313.897,-2589.18 312.635,-2580.75"/>
<polygon fill="black" stroke="black" points="316.121,-2580.44 311.826,-2570.76 309.144,-2581.01 316.121,-2580.44"/>
<text text-anchor="middle" x="453" y="-2592.8" font-family="Times,serif" font-size="14.00">*(IntToPtrCastExpr&lt;ptr&gt;(v7)) == 2</text>
</g>
<!-- Node0x20cd81a0 -->
<g id="node7" class="node"><title>Node0x20cd81a0</title>
<polygon fill="none" stroke="black" points="377,-2100.5 377,-2453.5 835,-2453.5 835,-2100.5 377,-2100.5"/>
<text text-anchor="start" x="385" y="-2438.3" font-family="Times,serif" font-size="14.00">0x60a4390:</text>
<text text-anchor="start" x="385" y="-2423.3" font-family="Times,serif" font-size="14.00"> v14 = *(IntToPtrCastExpr&lt;ptr&gt;(v7))</text>
<text text-anchor="start" x="385" y="-2408.3" font-family="Times,serif" font-size="14.00"> g37 = v14</text>
<text text-anchor="start" x="385" y="-2393.3" font-family="Times,serif" font-size="14.00"> g9 = (v14 == 3)</text>
<text text-anchor="start" x="385" y="-2378.3" font-family="Times,serif" font-size="14.00"> g38 = v1</text>
<text text-anchor="start" x="385" y="-2363.3" font-family="Times,serif" font-size="14.00"> g39 = v2</text>
<text text-anchor="start" x="385" y="-2348.3" font-family="Times,serif" font-size="14.00"> g40 = v3</text>
<text text-anchor="start" x="385" y="-2333.3" font-family="Times,serif" font-size="14.00"> g32 = v4</text>
<text text-anchor="start" x="385" y="-2318.3" font-family="Times,serif" font-size="14.00"> g34 = v10</text>
<text text-anchor="start" x="385" y="-2303.3" font-family="Times,serif" font-size="14.00"> IntToPtrCastExpr&lt;ptr&gt;(ExtCastExpr&lt;int32&gt;((v14 != 3)))()</text>
<text text-anchor="start" x="385" y="-2288.3" font-family="Times,serif" font-size="14.00"> g29 = g39</text>
<text text-anchor="start" x="385" y="-2273.3" font-family="Times,serif" font-size="14.00"> g30 = (g40 &#45; 10552)</text>
<text text-anchor="start" x="385" y="-2258.3" font-family="Times,serif" font-size="14.00"> function_13370()</text>
<text text-anchor="start" x="385" y="-2243.3" font-family="Times,serif" font-size="14.00"> v13 = g29</text>
<text text-anchor="start" x="385" y="-2228.3" font-family="Times,serif" font-size="14.00"> g9 = (v13 == 0)</text>
<text text-anchor="start" x="385" y="-2213.3" font-family="Times,serif" font-size="14.00"> v8 = g34</text>
<text text-anchor="start" x="385" y="-2198.3" font-family="Times,serif" font-size="14.00"> g38 = *(IntToPtrCastExpr&lt;ptr&gt;((v8 + 4)))</text>
<text text-anchor="start" x="385" y="-2183.3" font-family="Times,serif" font-size="14.00"> g39 = *(IntToPtrCastExpr&lt;ptr&gt;((v8 + 8)))</text>
<text text-anchor="start" x="385" y="-2168.3" font-family="Times,serif" font-size="14.00"> g40 = *(IntToPtrCastExpr&lt;ptr&gt;((v8 + 12)))</text>
<text text-anchor="start" x="385" y="-2153.3" font-family="Times,serif" font-size="14.00"> g32 = *(IntToPtrCastExpr&lt;ptr&gt;((v8 + 16)))</text>
<text text-anchor="start" x="385" y="-2138.3" font-family="Times,serif" font-size="14.00"> g34 = *(IntToPtrCastExpr&lt;ptr&gt;((v8 + 20)))</text>
<text text-anchor="start" x="385" y="-2123.3" font-family="Times,serif" font-size="14.00"> IntToPtrCastExpr&lt;ptr&gt;(ExtCastExpr&lt;int32&gt;((v13 == 0)))()</text>
<text text-anchor="start" x="385" y="-2108.3" font-family="Times,serif" font-size="14.00"> v11 = 1</text>
</g>
<!-- Node0x195b6430&#45;&gt;Node0x20cd81a0 -->
<g id="edge6" class="edge"><title>Node0x195b6430&#45;&gt;Node0x20cd81a0</title>
<path fill="none" stroke="black" d="M606,-2652.37C606,-2613.83 606,-2537.61 606,-2463.94"/>
<polygon fill="black" stroke="black" points="609.5,-2463.57 606,-2453.57 602.5,-2463.57 609.5,-2463.57"/>
<text text-anchor="middle" x="734" y="-2592.8" font-family="Times,serif" font-size="14.00">*(IntToPtrCastExpr&lt;ptr&gt;(v7)) != 2</text>
</g>
<!-- Node0x280aa1a0 -->
<g id="node8" class="node"><title>Node0x280aa1a0</title>
<polygon fill="none" stroke="black" points="828.5,-2502.5 828.5,-2540.5 941.5,-2540.5 941.5,-2502.5 828.5,-2502.5"/>
<text text-anchor="start" x="836.5" y="-2525.3" font-family="Times,serif" font-size="14.00">0x607add0:</text>
<text text-anchor="start" x="836.5" y="-2510.3" font-family="Times,serif" font-size="14.00"> if (v15 != 0):</text>
</g>
<!-- Node0x13a445a0&#45;&gt;Node0x280aa1a0 -->
<g id="edge7" class="edge"><title>Node0x13a445a0&#45;&gt;Node0x280aa1a0</title>
<path fill="none" stroke="black" d="M885,-2622.3C885,-2598.18 885,-2570.98 885,-2551.07"/>
<polygon fill="black" stroke="black" points="888.5,-2550.83 885,-2540.83 881.5,-2550.83 888.5,-2550.83"/>
</g>
<!-- Node0x1eaaf520 -->
<g id="node9" class="node"><title>Node0x1eaaf520</title>
<polygon fill="none" stroke="black" points="261.5,-1976 261.5,-2029 380.5,-2029 380.5,-1976 261.5,-1976"/>
<text text-anchor="start" x="269.5" y="-2013.8" font-family="Times,serif" font-size="14.00">0x60a3c10:</text>
<text text-anchor="start" x="269.5" y="-1998.8" font-family="Times,serif" font-size="14.00"> if (v12 == 0):</text>
<text text-anchor="start" x="269.5" y="-1983.8" font-family="Times,serif" font-size="14.00"> else:</text>
</g>
<!-- Node0x455fbcf0&#45;&gt;Node0x1eaaf520 -->
<g id="edge8" class="edge"><title>Node0x455fbcf0&#45;&gt;Node0x1eaaf520</title>
<path fill="none" stroke="black" d="M321,-2472.33C321,-2369.36 321,-2129.88 321,-2039.18"/>
<polygon fill="black" stroke="black" points="324.5,-2039.12 321,-2029.12 317.5,-2039.12 324.5,-2039.12"/>
</g>
<!-- Node0x22ab88f0 -->
<g id="node10" class="node"><title>Node0x22ab88f0</title>
<polygon fill="none" stroke="black" points="284,-1308.5 284,-1466.5 768,-1466.5 768,-1308.5 284,-1308.5"/>
<text text-anchor="start" x="292" y="-1451.3" font-family="Times,serif" font-size="14.00">0x60a8320:</text>
<text text-anchor="start" x="292" y="-1436.3" font-family="Times,serif" font-size="14.00"> g37 = v11</text>
<text text-anchor="start" x="292" y="-1421.3" font-family="Times,serif" font-size="14.00"> *(IntToPtrCastExpr&lt;ptr&gt;(g38)) = v11</text>
<text text-anchor="start" x="292" y="-1406.3" font-family="Times,serif" font-size="14.00"> v9 = g34</text>
<text text-anchor="start" x="292" y="-1391.3" font-family="Times,serif" font-size="14.00"> g38 = *(IntToPtrCastExpr&lt;ptr&gt;((v9 + 4)))</text>
<text text-anchor="start" x="292" y="-1376.3" font-family="Times,serif" font-size="14.00"> g39 = *(IntToPtrCastExpr&lt;ptr&gt;((v9 + 8)))</text>
<text text-anchor="start" x="292" y="-1361.3" font-family="Times,serif" font-size="14.00"> g40 = *(IntToPtrCastExpr&lt;ptr&gt;((v9 + 12)))</text>
<text text-anchor="start" x="292" y="-1346.3" font-family="Times,serif" font-size="14.00"> g32 = *(IntToPtrCastExpr&lt;ptr&gt;((v9 + 16)))</text>
<text text-anchor="start" x="292" y="-1331.3" font-family="Times,serif" font-size="14.00"> g34 = *(IntToPtrCastExpr&lt;ptr&gt;((v9 + 20)))</text>
<text text-anchor="start" x="292" y="-1316.3" font-family="Times,serif" font-size="14.00"> IntToPtrCastExpr&lt;ptr&gt;(*(IntToPtrCastExpr&lt;ptr&gt;((v9 + 24))))()</text>
</g>
<!-- Node0x20cd81a0&#45;&gt;Node0x22ab88f0 -->
<g id="edge9" class="edge"><title>Node0x20cd81a0&#45;&gt;Node0x22ab88f0</title>
<path fill="none" stroke="black" d="M621.291,-2100.33C630.125,-1945.04 631.793,-1713.46 586,-1518 582.739,-1504.08 577.902,-1489.86 572.363,-1476.18"/>
<polygon fill="black" stroke="black" points="575.525,-1474.67 568.427,-1466.81 569.071,-1477.38 575.525,-1474.67"/>
</g>
<!-- Node0x22ab8490 -->
<g id="node11" class="node"><title>Node0x22ab8490</title>
<polygon fill="none" stroke="black" points="643,-1923.5 643,-2081.5 1127,-2081.5 1127,-1923.5 643,-1923.5"/>
<text text-anchor="start" x="651" y="-2066.3" font-family="Times,serif" font-size="14.00">0x607af70:</text>
<text text-anchor="start" x="651" y="-2051.3" font-family="Times,serif" font-size="14.00"> g37 = v11</text>
<text text-anchor="start" x="651" y="-2036.3" font-family="Times,serif" font-size="14.00"> *(IntToPtrCastExpr&lt;ptr&gt;(g38)) = v11</text>
<text text-anchor="start" x="651" y="-2021.3" font-family="Times,serif" font-size="14.00"> v9 = g34</text>
<text text-anchor="start" x="651" y="-2006.3" font-family="Times,serif" font-size="14.00"> g38 = *(IntToPtrCastExpr&lt;ptr&gt;((v9 + 4)))</text>
<text text-anchor="start" x="651" y="-1991.3" font-family="Times,serif" font-size="14.00"> g39 = *(IntToPtrCastExpr&lt;ptr&gt;((v9 + 8)))</text>
<text text-anchor="start" x="651" y="-1976.3" font-family="Times,serif" font-size="14.00"> g40 = *(IntToPtrCastExpr&lt;ptr&gt;((v9 + 12)))</text>
<text text-anchor="start" x="651" y="-1961.3" font-family="Times,serif" font-size="14.00"> g32 = *(IntToPtrCastExpr&lt;ptr&gt;((v9 + 16)))</text>
<text text-anchor="start" x="651" y="-1946.3" font-family="Times,serif" font-size="14.00"> g34 = *(IntToPtrCastExpr&lt;ptr&gt;((v9 + 20)))</text>
<text text-anchor="start" x="651" y="-1931.3" font-family="Times,serif" font-size="14.00"> IntToPtrCastExpr&lt;ptr&gt;(*(IntToPtrCastExpr&lt;ptr&gt;((v9 + 24))))()</text>
</g>
<!-- Node0x280aa1a0&#45;&gt;Node0x22ab8490 -->
<g id="edge10" class="edge"><title>Node0x280aa1a0&#45;&gt;Node0x22ab8490</title>
<path fill="none" stroke="black" d="M885,-2502.4C885,-2438 885,-2217.1 885,-2091.91"/>
<polygon fill="black" stroke="black" points="888.5,-2091.58 885,-2081.58 881.5,-2091.58 888.5,-2091.58"/>
<text text-anchor="middle" x="916.5" y="-2273.3" font-family="Times,serif" font-size="14.00">v15 != 0</text>
</g>
<!-- Node0x24e2b2a0 -->
<g id="node12" class="node"><title>Node0x24e2b2a0</title>
<polygon fill="none" stroke="black" points="1145,-1983.5 1145,-2021.5 1245,-2021.5 1245,-1983.5 1145,-1983.5"/>
<text text-anchor="start" x="1153" y="-2006.3" font-family="Times,serif" font-size="14.00">0x5ee5410:</text>
<text text-anchor="start" x="1153" y="-1991.3" font-family="Times,serif" font-size="14.00"> v7 = g38</text>
</g>
<!-- Node0x280aa1a0&#45;&gt;Node0x24e2b2a0 -->
<g id="edge11" class="edge"><title>Node0x280aa1a0&#45;&gt;Node0x24e2b2a0</title>
<path fill="none" stroke="black" d="M906.258,-2502.41C920.314,-2489.76 938.557,-2471.98 952,-2454 1061.76,-2307.17 1152.42,-2104.43 1183.49,-2031.25"/>
<polygon fill="black" stroke="black" points="1186.81,-2032.37 1187.47,-2021.8 1180.36,-2029.65 1186.81,-2032.37"/>
<text text-anchor="middle" x="1186.5" y="-2273.3" font-family="Times,serif" font-size="14.00">v15 == 0</text>
</g>
<!-- Node0x455ffa10 -->
<g id="node13" class="node"><title>Node0x455ffa10</title>
<polygon fill="none" stroke="black" points="0,-1518.5 0,-1871.5 458,-1871.5 458,-1518.5 0,-1518.5"/>
<text text-anchor="start" x="8" y="-1856.3" font-family="Times,serif" font-size="14.00">0x60a09e0:</text>
<text text-anchor="start" x="8" y="-1841.3" font-family="Times,serif" font-size="14.00"> v14 = *(IntToPtrCastExpr&lt;ptr&gt;(g38))</text>
<text text-anchor="start" x="8" y="-1826.3" font-family="Times,serif" font-size="14.00"> g37 = v14</text>
<text text-anchor="start" x="8" y="-1811.3" font-family="Times,serif" font-size="14.00"> g9 = (v14 == 3)</text>
<text text-anchor="start" x="8" y="-1796.3" font-family="Times,serif" font-size="14.00"> g38 = v1</text>
<text text-anchor="start" x="8" y="-1781.3" font-family="Times,serif" font-size="14.00"> g39 = v2</text>
<text text-anchor="start" x="8" y="-1766.3" font-family="Times,serif" font-size="14.00"> g40 = v3</text>
<text text-anchor="start" x="8" y="-1751.3" font-family="Times,serif" font-size="14.00"> g32 = v4</text>
<text text-anchor="start" x="8" y="-1736.3" font-family="Times,serif" font-size="14.00"> g34 = v10</text>
<text text-anchor="start" x="8" y="-1721.3" font-family="Times,serif" font-size="14.00"> IntToPtrCastExpr&lt;ptr&gt;(ExtCastExpr&lt;int32&gt;((v14 != 3)))()</text>
<text text-anchor="start" x="8" y="-1706.3" font-family="Times,serif" font-size="14.00"> g29 = g39</text>
<text text-anchor="start" x="8" y="-1691.3" font-family="Times,serif" font-size="14.00"> g30 = (g40 &#45; 10552)</text>
<text text-anchor="start" x="8" y="-1676.3" font-family="Times,serif" font-size="14.00"> function_13370()</text>
<text text-anchor="start" x="8" y="-1661.3" font-family="Times,serif" font-size="14.00"> v13 = g29</text>
<text text-anchor="start" x="8" y="-1646.3" font-family="Times,serif" font-size="14.00"> g9 = (v13 == 0)</text>
<text text-anchor="start" x="8" y="-1631.3" font-family="Times,serif" font-size="14.00"> v8 = g34</text>
<text text-anchor="start" x="8" y="-1616.3" font-family="Times,serif" font-size="14.00"> g38 = *(IntToPtrCastExpr&lt;ptr&gt;((v8 + 4)))</text>
<text text-anchor="start" x="8" y="-1601.3" font-family="Times,serif" font-size="14.00"> g39 = *(IntToPtrCastExpr&lt;ptr&gt;((v8 + 8)))</text>
<text text-anchor="start" x="8" y="-1586.3" font-family="Times,serif" font-size="14.00"> g40 = *(IntToPtrCastExpr&lt;ptr&gt;((v8 + 12)))</text>
<text text-anchor="start" x="8" y="-1571.3" font-family="Times,serif" font-size="14.00"> g32 = *(IntToPtrCastExpr&lt;ptr&gt;((v8 + 16)))</text>
<text text-anchor="start" x="8" y="-1556.3" font-family="Times,serif" font-size="14.00"> g34 = *(IntToPtrCastExpr&lt;ptr&gt;((v8 + 20)))</text>
<text text-anchor="start" x="8" y="-1541.3" font-family="Times,serif" font-size="14.00"> IntToPtrCastExpr&lt;ptr&gt;(ExtCastExpr&lt;int32&gt;((v13 == 0)))()</text>
<text text-anchor="start" x="8" y="-1526.3" font-family="Times,serif" font-size="14.00"> v11 = 1</text>
</g>
<!-- Node0x1eaaf520&#45;&gt;Node0x455ffa10 -->
<g id="edge12" class="edge"><title>Node0x1eaaf520&#45;&gt;Node0x455ffa10</title>
<path fill="none" stroke="black" d="M313.314,-1975.98C306.566,-1953.57 296.084,-1918.76 284.775,-1881.21"/>
<polygon fill="black" stroke="black" points="288.119,-1880.18 281.884,-1871.61 281.416,-1882.19 288.119,-1880.18"/>
<text text-anchor="middle" x="326.5" y="-1893.8" font-family="Times,serif" font-size="14.00">v12 == 0</text>
</g>
<!-- Node0x232aab80 -->
<g id="node14" class="node"><title>Node0x232aab80</title>
<polygon fill="none" stroke="black" points="476.5,-1676 476.5,-1714 577.5,-1714 577.5,-1676 476.5,-1676"/>
<text text-anchor="start" x="484.5" y="-1698.8" font-family="Times,serif" font-size="14.00">0x60a3dd0:</text>
<text text-anchor="start" x="484.5" y="-1683.8" font-family="Times,serif" font-size="14.00"> v11 = 1</text>
</g>
<!-- Node0x1eaaf520&#45;&gt;Node0x232aab80 -->
<g id="edge13" class="edge"><title>Node0x1eaaf520&#45;&gt;Node0x232aab80</title>
<path fill="none" stroke="black" d="M359.589,-1975.98C392.358,-1952.5 438.481,-1914.88 467,-1872 498.159,-1825.15 514.702,-1760.51 522.088,-1724.02"/>
<polygon fill="black" stroke="black" points="525.547,-1724.57 524.012,-1714.08 518.675,-1723.24 525.547,-1724.57"/>
<text text-anchor="middle" x="483.5" y="-1893.8" font-family="Times,serif" font-size="14.00">v12 != 0</text>
</g>
<!-- Node0x24e28550 -->
<g id="node15" class="node"><title>Node0x24e28550</title>
<polygon fill="none" stroke="black" points="546,-872 546,-910 646,-910 646,-872 546,-872"/>
<text text-anchor="start" x="554" y="-894.8" font-family="Times,serif" font-size="14.00">0x60ab2a0:</text>
<text text-anchor="start" x="554" y="-879.8" font-family="Times,serif" font-size="14.00"> if g9:</text>
</g>
<!-- Node0x22ab88f0&#45;&gt;Node0x24e28550 -->
<g id="edge14" class="edge"><title>Node0x22ab88f0&#45;&gt;Node0x24e28550</title>
<path fill="none" stroke="black" d="M537.053,-1308.42C552.953,-1196.1 581.52,-994.29 592.003,-920.238"/>
<polygon fill="black" stroke="black" points="595.478,-920.657 593.414,-910.265 588.547,-919.676 595.478,-920.657"/>
</g>
<!-- Node0x455fe880 -->
<g id="node16" class="node"><title>Node0x455fe880</title>
<polygon fill="none" stroke="black" points="835.5,-1676 835.5,-1714 936.5,-1714 936.5,-1676 835.5,-1676"/>
<text text-anchor="start" x="843.5" y="-1698.8" font-family="Times,serif" font-size="14.00">0x607da10:</text>
<text text-anchor="start" x="843.5" y="-1683.8" font-family="Times,serif" font-size="14.00"> if g9:</text>
</g>
<!-- Node0x22ab8490&#45;&gt;Node0x455fe880 -->
<g id="edge15" class="edge"><title>Node0x22ab8490&#45;&gt;Node0x455fe880</title>
<path fill="none" stroke="black" d="M885.256,-1923.22C885.47,-1858.06 885.761,-1768.95 885.908,-1724.15"/>
<polygon fill="black" stroke="black" points="889.408,-1724.02 885.941,-1714.01 882.408,-1724 889.408,-1724.02"/>
</g>
<!-- Node0x4809ef70 -->
<g id="node17" class="node"><title>Node0x4809ef70</title>
<polygon fill="none" stroke="black" points="1039.5,-1668.5 1039.5,-1721.5 1350.5,-1721.5 1350.5,-1668.5 1039.5,-1668.5"/>
<text text-anchor="start" x="1047.5" y="-1706.3" font-family="Times,serif" font-size="14.00">0x5ee8a70:</text>
<text text-anchor="start" x="1047.5" y="-1691.3" font-family="Times,serif" font-size="14.00"> if (*(IntToPtrCastExpr&lt;ptr&gt;(v7)) == 2):</text>
<text text-anchor="start" x="1047.5" y="-1676.3" font-family="Times,serif" font-size="14.00"> else:</text>
</g>
<!-- Node0x24e2b2a0&#45;&gt;Node0x4809ef70 -->
<g id="edge16" class="edge"><title>Node0x24e2b2a0&#45;&gt;Node0x4809ef70</title>
<path fill="none" stroke="black" d="M1195,-1983.3C1195,-1934.02 1195,-1797.29 1195,-1731.83"/>
<polygon fill="black" stroke="black" points="1198.5,-1731.58 1195,-1721.58 1191.5,-1731.58 1198.5,-1731.58"/>
</g>
<!-- Node0x455ffa10&#45;&gt;Node0x22ab88f0 -->
<g id="edge17" class="edge"><title>Node0x455ffa10&#45;&gt;Node0x22ab88f0</title>
<path fill="none" stroke="black" d="M400.045,-1518.06C414.869,-1502.81 429.386,-1487.88 442.987,-1473.89"/>
<polygon fill="black" stroke="black" points="445.551,-1476.27 450.012,-1466.66 440.532,-1471.39 445.551,-1476.27"/>
</g>
<!-- Node0x232aab80&#45;&gt;Node0x22ab88f0 -->
<g id="edge18" class="edge"><title>Node0x232aab80&#45;&gt;Node0x22ab88f0</title>
<path fill="none" stroke="black" d="M526.94,-1675.8C526.815,-1637.48 526.516,-1546.28 526.289,-1476.83"/>
<polygon fill="black" stroke="black" points="529.789,-1476.73 526.256,-1466.75 522.789,-1476.76 529.789,-1476.73"/>
</g>
<!-- Node0x3177fb20 -->
<g id="node18" class="node"><title>Node0x3177fb20</title>
<polygon fill="none" stroke="black" points="496,-617 496,-655 696,-655 696,-617 496,-617"/>
<text text-anchor="start" x="504" y="-639.8" font-family="Times,serif" font-size="14.00">0x60ab0c0:</text>
<text text-anchor="start" x="504" y="-624.8" font-family="Times,serif" font-size="14.00"> g36 = (g36 &amp; (16 * g42))</text>
</g>
<!-- Node0x24e28550&#45;&gt;Node0x3177fb20 -->
<g id="edge19" class="edge"><title>Node0x24e28550&#45;&gt;Node0x3177fb20</title>
<path fill="none" stroke="black" d="M596,-871.805C596,-828.224 596,-717.605 596,-665.269"/>
<polygon fill="black" stroke="black" points="599.5,-665.03 596,-655.03 592.5,-665.03 599.5,-665.03"/>
<text text-anchor="middle" x="605.5" y="-834.8" font-family="Times,serif" font-size="14.00">g9</text>
</g>
<!-- Node0x455fca80 -->
<g id="node19" class="node"><title>Node0x455fca80</title>
<polygon fill="none" stroke="black" points="682,-323.5 682,-361.5 782,-361.5 782,-323.5 682,-323.5"/>
<text text-anchor="start" x="690" y="-346.3" font-family="Times,serif" font-size="14.00">0x60ab3e0:</text>
<text text-anchor="start" x="690" y="-331.3" font-family="Times,serif" font-size="14.00"> return</text>
</g>
<!-- Node0x24e28550&#45;&gt;Node0x455fca80 -->
<g id="edge20" class="edge"><title>Node0x24e28550&#45;&gt;Node0x455fca80</title>
<path fill="none" stroke="black" d="M637.776,-871.981C661.86,-859.229 690.217,-839.641 705,-813 787.293,-664.702 753.812,-447.937 738.26,-371.465"/>
<polygon fill="black" stroke="black" points="741.675,-370.696 736.198,-361.627 734.824,-372.132 741.675,-370.696"/>
<text text-anchor="middle" x="787.5" y="-632.3" font-family="Times,serif" font-size="14.00">not (g9)</text>
</g>
<!-- Node0x14958cd0 -->
<g id="node20" class="node"><title>Node0x14958cd0</title>
<polygon fill="none" stroke="black" points="786,-1368.5 786,-1406.5 986,-1406.5 986,-1368.5 786,-1368.5"/>
<text text-anchor="start" x="794" y="-1391.3" font-family="Times,serif" font-size="14.00">0x607d850:</text>
<text text-anchor="start" x="794" y="-1376.3" font-family="Times,serif" font-size="14.00"> g36 = (g36 &amp; (16 * g42))</text>
</g>
<!-- Node0x455fe880&#45;&gt;Node0x14958cd0 -->
<g id="edge21" class="edge"><title>Node0x455fe880&#45;&gt;Node0x14958cd0</title>
<path fill="none" stroke="black" d="M886,-1675.8C886,-1624.55 886,-1478.67 886,-1416.8"/>
<polygon fill="black" stroke="black" points="889.5,-1416.6 886,-1406.6 882.5,-1416.6 889.5,-1416.6"/>
<text text-anchor="middle" x="895.5" y="-1488.8" font-family="Times,serif" font-size="14.00">g9</text>
</g>
<!-- Node0x195b6890 -->
<g id="node21" class="node"><title>Node0x195b6890</title>
<polygon fill="none" stroke="black" points="837,-872 837,-910 935,-910 935,-872 837,-872"/>
<text text-anchor="start" x="845" y="-894.8" font-family="Times,serif" font-size="14.00">0x607d4f0:</text>
<text text-anchor="start" x="845" y="-879.8" font-family="Times,serif" font-size="14.00"> return</text>
</g>
<!-- Node0x455fe880&#45;&gt;Node0x195b6890 -->
<g id="edge22" class="edge"><title>Node0x455fe880&#45;&gt;Node0x195b6890</title>
<path fill="none" stroke="black" d="M898.207,-1675.92C922.465,-1638.77 976.029,-1550.34 995,-1467 1042.57,-1258.04 937.756,-1003.07 899.372,-919.765"/>
<polygon fill="black" stroke="black" points="902.435,-918.054 895.035,-910.472 896.092,-921.014 902.435,-918.054"/>
<text text-anchor="middle" x="1035.5" y="-1383.8" font-family="Times,serif" font-size="14.00">not (g9)</text>
</g>
<!-- Node0x455fa590 -->
<g id="node22" class="node"><title>Node0x455fa590</title>
<polygon fill="none" stroke="black" points="1104.5,-1338.5 1104.5,-1436.5 1269.5,-1436.5 1269.5,-1338.5 1104.5,-1338.5"/>
<text text-anchor="start" x="1112.5" y="-1421.3" font-family="Times,serif" font-size="14.00">0x53b5ab0:</text>
<text text-anchor="start" x="1112.5" y="-1406.3" font-family="Times,serif" font-size="14.00"> g29 = g39</text>
<text text-anchor="start" x="1112.5" y="-1391.3" font-family="Times,serif" font-size="14.00"> g30 = (g40 &#45; 10560)</text>
<text text-anchor="start" x="1112.5" y="-1376.3" font-family="Times,serif" font-size="14.00"> function_13370()</text>
<text text-anchor="start" x="1112.5" y="-1361.3" font-family="Times,serif" font-size="14.00"> v12 = g29</text>
<text text-anchor="start" x="1112.5" y="-1346.3" font-family="Times,serif" font-size="14.00"> g9 = (v12 == 0)</text>
</g>
<!-- Node0x4809ef70&#45;&gt;Node0x455fa590 -->
<g id="edge23" class="edge"><title>Node0x4809ef70&#45;&gt;Node0x455fa590</title>
<path fill="none" stroke="black" d="M1193.85,-1668.27C1192.24,-1631.13 1189.36,-1560.31 1188,-1500 1187.61,-1482.77 1187.37,-1464.04 1187.23,-1446.94"/>
<polygon fill="black" stroke="black" points="1190.72,-1446.5 1187.15,-1436.53 1183.72,-1446.55 1190.72,-1446.5"/>
<text text-anchor="middle" x="1319" y="-1488.8" font-family="Times,serif" font-size="14.00">*(IntToPtrCastExpr&lt;ptr&gt;(v7)) == 2</text>
</g>
<!-- Node0x455ff8c0 -->
<g id="node23" class="node"><title>Node0x455ff8c0</title>
<polygon fill="none" stroke="black" points="1243,-936.5 1243,-1289.5 1701,-1289.5 1701,-936.5 1243,-936.5"/>
<text text-anchor="start" x="1251" y="-1274.3" font-family="Times,serif" font-size="14.00">0x5ee8ec0:</text>
<text text-anchor="start" x="1251" y="-1259.3" font-family="Times,serif" font-size="14.00"> v14 = *(IntToPtrCastExpr&lt;ptr&gt;(v7))</text>
<text text-anchor="start" x="1251" y="-1244.3" font-family="Times,serif" font-size="14.00"> g37 = v14</text>
<text text-anchor="start" x="1251" y="-1229.3" font-family="Times,serif" font-size="14.00"> g9 = (v14 == 3)</text>
<text text-anchor="start" x="1251" y="-1214.3" font-family="Times,serif" font-size="14.00"> g38 = v1</text>
<text text-anchor="start" x="1251" y="-1199.3" font-family="Times,serif" font-size="14.00"> g39 = v2</text>
<text text-anchor="start" x="1251" y="-1184.3" font-family="Times,serif" font-size="14.00"> g40 = v3</text>
<text text-anchor="start" x="1251" y="-1169.3" font-family="Times,serif" font-size="14.00"> g32 = v4</text>
<text text-anchor="start" x="1251" y="-1154.3" font-family="Times,serif" font-size="14.00"> g34 = v10</text>
<text text-anchor="start" x="1251" y="-1139.3" font-family="Times,serif" font-size="14.00"> IntToPtrCastExpr&lt;ptr&gt;(ExtCastExpr&lt;int32&gt;((v14 != 3)))()</text>
<text text-anchor="start" x="1251" y="-1124.3" font-family="Times,serif" font-size="14.00"> g29 = g39</text>
<text text-anchor="start" x="1251" y="-1109.3" font-family="Times,serif" font-size="14.00"> g30 = (g40 &#45; 10552)</text>
<text text-anchor="start" x="1251" y="-1094.3" font-family="Times,serif" font-size="14.00"> function_13370()</text>
<text text-anchor="start" x="1251" y="-1079.3" font-family="Times,serif" font-size="14.00"> v13 = g29</text>
<text text-anchor="start" x="1251" y="-1064.3" font-family="Times,serif" font-size="14.00"> g9 = (v13 == 0)</text>
<text text-anchor="start" x="1251" y="-1049.3" font-family="Times,serif" font-size="14.00"> v8 = g34</text>
<text text-anchor="start" x="1251" y="-1034.3" font-family="Times,serif" font-size="14.00"> g38 = *(IntToPtrCastExpr&lt;ptr&gt;((v8 + 4)))</text>
<text text-anchor="start" x="1251" y="-1019.3" font-family="Times,serif" font-size="14.00"> g39 = *(IntToPtrCastExpr&lt;ptr&gt;((v8 + 8)))</text>
<text text-anchor="start" x="1251" y="-1004.3" font-family="Times,serif" font-size="14.00"> g40 = *(IntToPtrCastExpr&lt;ptr&gt;((v8 + 12)))</text>
<text text-anchor="start" x="1251" y="-989.3" font-family="Times,serif" font-size="14.00"> g32 = *(IntToPtrCastExpr&lt;ptr&gt;((v8 + 16)))</text>
<text text-anchor="start" x="1251" y="-974.3" font-family="Times,serif" font-size="14.00"> g34 = *(IntToPtrCastExpr&lt;ptr&gt;((v8 + 20)))</text>
<text text-anchor="start" x="1251" y="-959.3" font-family="Times,serif" font-size="14.00"> IntToPtrCastExpr&lt;ptr&gt;(ExtCastExpr&lt;int32&gt;((v13 == 0)))()</text>
<text text-anchor="start" x="1251" y="-944.3" font-family="Times,serif" font-size="14.00"> v11 = 1</text>
</g>
<!-- Node0x4809ef70&#45;&gt;Node0x455ff8c0 -->
<g id="edge24" class="edge"><title>Node0x4809ef70&#45;&gt;Node0x455ff8c0</title>
<path fill="none" stroke="black" d="M1252.7,-1668.47C1313.72,-1638.03 1406.98,-1580.92 1450,-1500 1482.07,-1439.68 1492.12,-1366.31 1492.59,-1299.81"/>
<polygon fill="black" stroke="black" points="1496.09,-1299.62 1492.58,-1289.62 1489.09,-1299.62 1496.09,-1299.62"/>
<text text-anchor="middle" x="1584" y="-1488.8" font-family="Times,serif" font-size="14.00">*(IntToPtrCastExpr&lt;ptr&gt;(v7)) != 2</text>
</g>
<!-- Node0x3177fb20&#45;&gt;Node0x455fca80 -->
<g id="edge25" class="edge"><title>Node0x3177fb20&#45;&gt;Node0x455fca80</title>
<path fill="none" stroke="black" d="M604.507,-616.765C627.643,-567.177 691.805,-429.653 719.264,-370.797"/>
<polygon fill="black" stroke="black" points="722.44,-372.27 723.496,-361.728 716.096,-369.31 722.44,-372.27"/>
</g>
<!-- Node0x248afc60 -->
<g id="node24" class="node"><title>Node0x248afc60</title>
<polygon fill="none" stroke="black" points="836,-23.5 836,-59.5 890,-59.5 890,-23.5 836,-23.5"/>
<text text-anchor="start" x="844" y="-37.8" font-family="Times,serif" font-size="14.00">exit:</text>
</g>
<!-- Node0x455fca80&#45;&gt;Node0x248afc60 -->
<g id="edge26" class="edge"><title>Node0x455fca80&#45;&gt;Node0x248afc60</title>
<path fill="none" stroke="black" d="M735.463,-323.269C744.576,-278.541 772.299,-160.98 826,-78 828.461,-74.1978 831.405,-70.5048 834.542,-67.0277"/>
<polygon fill="black" stroke="black" points="837.119,-69.3987 841.609,-59.8023 832.115,-64.5041 837.119,-69.3987"/>
</g>
<!-- Node0x14958cd0&#45;&gt;Node0x195b6890 -->
<g id="edge27" class="edge"><title>Node0x14958cd0&#45;&gt;Node0x195b6890</title>
<path fill="none" stroke="black" d="M886,-1368.31C886,-1293.72 886,-1010.87 886,-920.171"/>
<polygon fill="black" stroke="black" points="889.5,-920.09 886,-910.09 882.5,-920.09 889.5,-920.09"/>
</g>
<!-- Node0x195b6890&#45;&gt;Node0x248afc60 -->
<g id="edge28" class="edge"><title>Node0x195b6890&#45;&gt;Node0x248afc60</title>
<path fill="none" stroke="black" d="M878.357,-871.988C872.151,-856.599 863.687,-833.726 859,-813 841.647,-736.261 840,-715.677 840,-637 840,-637 840,-637 840,-115.5 840,-99.5682 845.045,-82.5469 850.41,-68.9514"/>
<polygon fill="black" stroke="black" points="853.641,-70.2958 854.305,-59.7218 847.192,-67.5741 853.641,-70.2958"/>
</g>
<!-- Node0x455ffaf0 -->
<g id="node25" class="node"><title>Node0x455ffaf0</title>
<polygon fill="none" stroke="black" points="1127.5,-864.5 1127.5,-917.5 1246.5,-917.5 1246.5,-864.5 1127.5,-864.5"/>
<text text-anchor="start" x="1135.5" y="-902.3" font-family="Times,serif" font-size="14.00">0x5ee8790:</text>
<text text-anchor="start" x="1135.5" y="-887.3" font-family="Times,serif" font-size="14.00"> if (v12 == 0):</text>
<text text-anchor="start" x="1135.5" y="-872.3" font-family="Times,serif" font-size="14.00"> else:</text>
</g>
<!-- Node0x455fa590&#45;&gt;Node0x455ffaf0 -->
<g id="edge29" class="edge"><title>Node0x455fa590&#45;&gt;Node0x455ffaf0</title>
<path fill="none" stroke="black" d="M1187,-1338.18C1187,-1239.15 1187,-1015.12 1187,-927.795"/>
<polygon fill="black" stroke="black" points="1190.5,-927.601 1187,-917.601 1183.5,-927.601 1190.5,-927.601"/>
</g>
<!-- Node0x106c96f0 -->
<g id="node26" class="node"><title>Node0x106c96f0</title>
<polygon fill="none" stroke="black" points="942,-263.5 942,-421.5 1426,-421.5 1426,-263.5 942,-263.5"/>
<text text-anchor="start" x="950" y="-406.3" font-family="Times,serif" font-size="14.00">0x60779e0:</text>
<text text-anchor="start" x="950" y="-391.3" font-family="Times,serif" font-size="14.00"> g37 = v11</text>
<text text-anchor="start" x="950" y="-376.3" font-family="Times,serif" font-size="14.00"> *(IntToPtrCastExpr&lt;ptr&gt;(g38)) = v11</text>
<text text-anchor="start" x="950" y="-361.3" font-family="Times,serif" font-size="14.00"> v9 = g34</text>
<text text-anchor="start" x="950" y="-346.3" font-family="Times,serif" font-size="14.00"> g38 = *(IntToPtrCastExpr&lt;ptr&gt;((v9 + 4)))</text>
<text text-anchor="start" x="950" y="-331.3" font-family="Times,serif" font-size="14.00"> g39 = *(IntToPtrCastExpr&lt;ptr&gt;((v9 + 8)))</text>
<text text-anchor="start" x="950" y="-316.3" font-family="Times,serif" font-size="14.00"> g40 = *(IntToPtrCastExpr&lt;ptr&gt;((v9 + 12)))</text>
<text text-anchor="start" x="950" y="-301.3" font-family="Times,serif" font-size="14.00"> g32 = *(IntToPtrCastExpr&lt;ptr&gt;((v9 + 16)))</text>
<text text-anchor="start" x="950" y="-286.3" font-family="Times,serif" font-size="14.00"> g34 = *(IntToPtrCastExpr&lt;ptr&gt;((v9 + 20)))</text>
<text text-anchor="start" x="950" y="-271.3" font-family="Times,serif" font-size="14.00"> IntToPtrCastExpr&lt;ptr&gt;(*(IntToPtrCastExpr&lt;ptr&gt;((v9 + 24))))()</text>
</g>
<!-- Node0x455ff8c0&#45;&gt;Node0x106c96f0 -->
<g id="edge30" class="edge"><title>Node0x455ff8c0&#45;&gt;Node0x106c96f0</title>
<path fill="none" stroke="black" d="M1514.98,-936.229C1538.96,-795.033 1547.54,-598.04 1453,-459 1445.37,-447.78 1436.41,-437.645 1426.47,-428.489"/>
<polygon fill="black" stroke="black" points="1428.52,-425.63 1418.69,-421.677 1423.91,-430.897 1428.52,-425.63"/>
</g>
<!-- Node0x195b6970 -->
<g id="node27" class="node"><title>Node0x195b6970</title>
<polygon fill="none" stroke="black" points="868,-459.5 868,-812.5 1326,-812.5 1326,-459.5 868,-459.5"/>
<text text-anchor="start" x="876" y="-797.3" font-family="Times,serif" font-size="14.00">0x5ee2b00:</text>
<text text-anchor="start" x="876" y="-782.3" font-family="Times,serif" font-size="14.00"> v14 = *(IntToPtrCastExpr&lt;ptr&gt;(g38))</text>
<text text-anchor="start" x="876" y="-767.3" font-family="Times,serif" font-size="14.00"> g37 = v14</text>
<text text-anchor="start" x="876" y="-752.3" font-family="Times,serif" font-size="14.00"> g9 = (v14 == 3)</text>
<text text-anchor="start" x="876" y="-737.3" font-family="Times,serif" font-size="14.00"> g38 = v1</text>
<text text-anchor="start" x="876" y="-722.3" font-family="Times,serif" font-size="14.00"> g39 = v2</text>
<text text-anchor="start" x="876" y="-707.3" font-family="Times,serif" font-size="14.00"> g40 = v3</text>
<text text-anchor="start" x="876" y="-692.3" font-family="Times,serif" font-size="14.00"> g32 = v4</text>
<text text-anchor="start" x="876" y="-677.3" font-family="Times,serif" font-size="14.00"> g34 = v10</text>
<text text-anchor="start" x="876" y="-662.3" font-family="Times,serif" font-size="14.00"> IntToPtrCastExpr&lt;ptr&gt;(ExtCastExpr&lt;int32&gt;((v14 != 3)))()</text>
<text text-anchor="start" x="876" y="-647.3" font-family="Times,serif" font-size="14.00"> g29 = g39</text>
<text text-anchor="start" x="876" y="-632.3" font-family="Times,serif" font-size="14.00"> g30 = (g40 &#45; 10552)</text>
<text text-anchor="start" x="876" y="-617.3" font-family="Times,serif" font-size="14.00"> function_13370()</text>
<text text-anchor="start" x="876" y="-602.3" font-family="Times,serif" font-size="14.00"> v13 = g29</text>
<text text-anchor="start" x="876" y="-587.3" font-family="Times,serif" font-size="14.00"> g9 = (v13 == 0)</text>
<text text-anchor="start" x="876" y="-572.3" font-family="Times,serif" font-size="14.00"> v8 = g34</text>
<text text-anchor="start" x="876" y="-557.3" font-family="Times,serif" font-size="14.00"> g38 = *(IntToPtrCastExpr&lt;ptr&gt;((v8 + 4)))</text>
<text text-anchor="start" x="876" y="-542.3" font-family="Times,serif" font-size="14.00"> g39 = *(IntToPtrCastExpr&lt;ptr&gt;((v8 + 8)))</text>
<text text-anchor="start" x="876" y="-527.3" font-family="Times,serif" font-size="14.00"> g40 = *(IntToPtrCastExpr&lt;ptr&gt;((v8 + 12)))</text>
<text text-anchor="start" x="876" y="-512.3" font-family="Times,serif" font-size="14.00"> g32 = *(IntToPtrCastExpr&lt;ptr&gt;((v8 + 16)))</text>
<text text-anchor="start" x="876" y="-497.3" font-family="Times,serif" font-size="14.00"> g34 = *(IntToPtrCastExpr&lt;ptr&gt;((v8 + 20)))</text>
<text text-anchor="start" x="876" y="-482.3" font-family="Times,serif" font-size="14.00"> IntToPtrCastExpr&lt;ptr&gt;(ExtCastExpr&lt;int32&gt;((v13 == 0)))()</text>
<text text-anchor="start" x="876" y="-467.3" font-family="Times,serif" font-size="14.00"> v11 = 1</text>
</g>
<!-- Node0x455ffaf0&#45;&gt;Node0x195b6970 -->
<g id="edge31" class="edge"><title>Node0x455ffaf0&#45;&gt;Node0x195b6970</title>
<path fill="none" stroke="black" d="M1177.88,-864.349C1173.82,-852.955 1168.67,-838.463 1162.93,-822.329"/>
<polygon fill="black" stroke="black" points="1166.13,-820.899 1159.48,-812.65 1159.54,-823.245 1166.13,-820.899"/>
<text text-anchor="middle" x="1203.5" y="-834.8" font-family="Times,serif" font-size="14.00">v12 == 0</text>
</g>
<!-- Node0x22ab5750 -->
<g id="node28" class="node"><title>Node0x22ab5750</title>
<polygon fill="none" stroke="black" points="1344,-617 1344,-655 1444,-655 1444,-617 1344,-617"/>
<text text-anchor="start" x="1352" y="-639.8" font-family="Times,serif" font-size="14.00">0x5ee8950:</text>
<text text-anchor="start" x="1352" y="-624.8" font-family="Times,serif" font-size="14.00"> v11 = 1</text>
</g>
<!-- Node0x455ffaf0&#45;&gt;Node0x22ab5750 -->
<g id="edge32" class="edge"><title>Node0x455ffaf0&#45;&gt;Node0x22ab5750</title>
<path fill="none" stroke="black" d="M1246.59,-871.174C1276.78,-858.914 1311.85,-840.081 1335,-813 1371.78,-769.969 1385.87,-703.125 1391.08,-665.408"/>
<polygon fill="black" stroke="black" points="1394.6,-665.501 1392.38,-655.141 1387.65,-664.622 1394.6,-665.501"/>
<text text-anchor="middle" x="1346.5" y="-834.8" font-family="Times,serif" font-size="14.00">v12 != 0</text>
</g>
<!-- Node0x403de160 -->
<g id="node29" class="node"><title>Node0x403de160</title>
<polygon fill="none" stroke="black" points="1010.5,-187.5 1010.5,-225.5 1111.5,-225.5 1111.5,-187.5 1010.5,-187.5"/>
<text text-anchor="start" x="1018.5" y="-210.3" font-family="Times,serif" font-size="14.00">0x607ab30:</text>
<text text-anchor="start" x="1018.5" y="-195.3" font-family="Times,serif" font-size="14.00"> if g9:</text>
</g>
<!-- Node0x106c96f0&#45;&gt;Node0x403de160 -->
<g id="edge33" class="edge"><title>Node0x106c96f0&#45;&gt;Node0x403de160</title>
<path fill="none" stroke="black" d="M1112.09,-263.164C1102.27,-252.465 1092.82,-242.162 1084.77,-233.392"/>
<polygon fill="black" stroke="black" points="1087.14,-230.801 1077.8,-225.801 1081.98,-235.535 1087.14,-230.801"/>
</g>
<!-- Node0x195b6970&#45;&gt;Node0x106c96f0 -->
<g id="edge34" class="edge"><title>Node0x195b6970&#45;&gt;Node0x106c96f0</title>
<path fill="none" stroke="black" d="M1149.49,-459.127C1152.34,-449.591 1155.13,-440.234 1157.82,-431.231"/>
<polygon fill="black" stroke="black" points="1161.18,-432.191 1160.69,-421.608 1154.47,-430.189 1161.18,-432.191"/>
</g>
<!-- Node0x22ab5750&#45;&gt;Node0x106c96f0 -->
<g id="edge35" class="edge"><title>Node0x22ab5750&#45;&gt;Node0x106c96f0</title>
<path fill="none" stroke="black" d="M1391.53,-616.938C1386.18,-583.168 1370.98,-509.336 1335,-459 1327.43,-448.409 1318.61,-438.34 1309.1,-428.883"/>
<polygon fill="black" stroke="black" points="1311.33,-426.179 1301.7,-421.772 1306.48,-431.225 1311.33,-426.179"/>
</g>
<!-- Node0x403de160&#45;&gt;Node0x248afc60 -->
<g id="edge37" class="edge"><title>Node0x403de160&#45;&gt;Node0x248afc60</title>
<path fill="none" stroke="black" d="M1010.36,-195.903C973.74,-186.491 925.52,-168.629 895,-136 878.033,-117.861 870.023,-90.3375 866.264,-69.8436"/>
<polygon fill="black" stroke="black" points="869.702,-69.1737 864.662,-59.8544 862.79,-70.2825 869.702,-69.1737"/>
<text text-anchor="middle" x="923.5" y="-112.8" font-family="Times,serif" font-size="14.00">not (g9)</text>
</g>
<!-- Node0x22ab85e0 -->
<g id="node30" class="node"><title>Node0x22ab85e0</title>
<polygon fill="none" stroke="black" points="961,-97.5 961,-135.5 1161,-135.5 1161,-97.5 961,-97.5"/>
<text text-anchor="start" x="969" y="-120.3" font-family="Times,serif" font-size="14.00">0x607a940:</text>
<text text-anchor="start" x="969" y="-105.3" font-family="Times,serif" font-size="14.00"> g36 = (g36 &amp; (16 * g42))</text>
</g>
<!-- Node0x403de160&#45;&gt;Node0x22ab85e0 -->
<g id="edge36" class="edge"><title>Node0x403de160&#45;&gt;Node0x22ab85e0</title>
<path fill="none" stroke="black" d="M1061,-187.266C1061,-175.349 1061,-159.538 1061,-145.982"/>
<polygon fill="black" stroke="black" points="1064.5,-145.71 1061,-135.71 1057.5,-145.71 1064.5,-145.71"/>
<text text-anchor="middle" x="1070.5" y="-157.8" font-family="Times,serif" font-size="14.00">g9</text>
</g>
<!-- Node0x22ab85e0&#45;&gt;Node0x248afc60 -->
<g id="edge38" class="edge"><title>Node0x22ab85e0&#45;&gt;Node0x248afc60</title>
<path fill="none" stroke="black" d="M1012.06,-97.4551C977.336,-84.654 931.468,-67.7432 899.83,-56.0787"/>
<polygon fill="black" stroke="black" points="900.683,-52.6631 890.09,-52.4877 898.262,-59.231 900.683,-52.6631"/>
</g>
</g>
</svg>
