<?xml version="1.0" encoding="UTF-8" standalone="no"?>
<!DOCTYPE svg PUBLIC "-//W3C//DTD SVG 1.1//EN"
 "http://www.w3.org/Graphics/SVG/1.1/DTD/svg11.dtd">
<!-- Generated by graphviz version 2.38.0 (20140413.2041)
 -->
<!-- Title: Control&#45;flow graph for function &#39;function_f258()&#39;. Pages: 1 -->
<svg width="436pt" height="759pt"
 viewBox="0.00 0.00 435.50 759.00" xmlns="http://www.w3.org/2000/svg" xmlns:xlink="http://www.w3.org/1999/xlink">
<g id="graph0" class="graph" transform="scale(1 1) rotate(0) translate(4 755)">
<title>Control&#45;flow graph for function &#39;function_f258()&#39;.</title>
<polygon fill="white" stroke="none" points="-4,4 -4,-755 431.5,-755 431.5,4 -4,4"/>
<text text-anchor="middle" x="213.75" y="-7.8" font-family="Times,serif" font-size="14.00">Control&#45;flow graph for function &#39;function_f258()&#39;.</text>
<!-- Node0x3e4f03e0 -->
<g id="node1" class="node"><title>Node0x3e4f03e0</title>
<polygon fill="none" stroke="black" points="193.5,-714.5 193.5,-750.5 252.5,-750.5 252.5,-714.5 193.5,-714.5"/>
<text text-anchor="start" x="201.5" y="-728.8" font-family="Times,serif" font-size="14.00">entry:</text>
</g>
<!-- Node0x2adaebb0 -->
<g id="node2" class="node"><title>Node0x2adaebb0</title>
<polygon fill="none" stroke="black" points="59,-383.5 59,-676.5 387,-676.5 387,-383.5 59,-383.5"/>
<text text-anchor="start" x="67" y="-661.3" font-family="Times,serif" font-size="14.00">0x1e1fddc0:</text>
<text text-anchor="start" x="67" y="-646.3" font-family="Times,serif" font-size="14.00"> v1 = g29</text>
<text text-anchor="start" x="67" y="-631.3" font-family="Times,serif" font-size="14.00"> v2 = IntToPtrCastExpr&lt;ptr&gt;((v1 + 2500))</text>
<text text-anchor="start" x="67" y="-616.3" font-family="Times,serif" font-size="14.00"> g36 = 1</text>
<text text-anchor="start" x="67" y="-601.3" font-family="Times,serif" font-size="14.00"> v3 = ((*(v2) + 31337) + g30)</text>
<text text-anchor="start" x="67" y="-586.3" font-family="Times,serif" font-size="14.00"> g37 = v3</text>
<text text-anchor="start" x="67" y="-571.3" font-family="Times,serif" font-size="14.00"> v4 = (((8192 * v3) | (v3 / 524288)) + v3)</text>
<text text-anchor="start" x="67" y="-556.3" font-family="Times,serif" font-size="14.00"> g30 = v4</text>
<text text-anchor="start" x="67" y="-541.3" font-family="Times,serif" font-size="14.00"> g29 = (v1 + 2504)</text>
<text text-anchor="start" x="67" y="-526.3" font-family="Times,serif" font-size="14.00"> *(v2) = v4</text>
<text text-anchor="start" x="67" y="-511.3" font-family="Times,serif" font-size="14.00"> v5 = g29</text>
<text text-anchor="start" x="67" y="-496.3" font-family="Times,serif" font-size="14.00"> v6 = (g36 + 1)</text>
<text text-anchor="start" x="67" y="-481.3" font-family="Times,serif" font-size="14.00"> v7 = IntToPtrCastExpr&lt;ptr&gt;(v5)</text>
<text text-anchor="start" x="67" y="-466.3" font-family="Times,serif" font-size="14.00"> g36 = v6</text>
<text text-anchor="start" x="67" y="-451.3" font-family="Times,serif" font-size="14.00"> v8 = ((*(v7) + 31337) + g30)</text>
<text text-anchor="start" x="67" y="-436.3" font-family="Times,serif" font-size="14.00"> v9 = (((8192 * v8) | (v8 / 524288)) + v8)</text>
<text text-anchor="start" x="67" y="-421.3" font-family="Times,serif" font-size="14.00"> g30 = v9</text>
<text text-anchor="start" x="67" y="-406.3" font-family="Times,serif" font-size="14.00"> g29 = (v5 + 4)</text>
<text text-anchor="start" x="67" y="-391.3" font-family="Times,serif" font-size="14.00"> *(v7) = v9</text>
</g>
<!-- Node0x3e4f03e0&#45;&gt;Node0x2adaebb0 -->
<g id="edge1" class="edge"><title>Node0x3e4f03e0&#45;&gt;Node0x2adaebb0</title>
<path fill="none" stroke="black" d="M223,-714.405C223,-707.01 223,-697.604 223,-686.972"/>
<polygon fill="black" stroke="black" points="226.5,-686.886 223,-676.886 219.5,-686.886 226.5,-686.886"/>
</g>
<!-- Node0x3e4f2000 -->
<g id="node3" class="node"><title>Node0x3e4f2000</title>
<polygon fill="none" stroke="black" points="157,-307.5 157,-345.5 289,-345.5 289,-307.5 157,-307.5"/>
<text text-anchor="start" x="165" y="-330.3" font-family="Times,serif" font-size="14.00">0x77bb630:</text>
<text text-anchor="start" x="165" y="-315.3" font-family="Times,serif" font-size="14.00"> while (v6 != 9):</text>
</g>
<!-- Node0x2adaebb0&#45;&gt;Node0x3e4f2000 -->
<g id="edge2" class="edge"><title>Node0x2adaebb0&#45;&gt;Node0x3e4f2000</title>
<path fill="none" stroke="black" d="M223,-383.361C223,-373.249 223,-363.894 223,-355.847"/>
<polygon fill="black" stroke="black" points="226.5,-355.734 223,-345.734 219.5,-355.734 226.5,-355.734"/>
</g>
<!-- Node0x3e4f60b0 -->
<g id="node4" class="node"><title>Node0x3e4f60b0</title>
<polygon fill="none" stroke="black" points="0,-97.5 0,-255.5 308,-255.5 308,-97.5 0,-97.5"/>
<text text-anchor="start" x="8" y="-240.3" font-family="Times,serif" font-size="14.00">0x46816ce0:</text>
<text text-anchor="start" x="8" y="-225.3" font-family="Times,serif" font-size="14.00"> v5 = g29</text>
<text text-anchor="start" x="8" y="-210.3" font-family="Times,serif" font-size="14.00"> v6 = (g36 + 1)</text>
<text text-anchor="start" x="8" y="-195.3" font-family="Times,serif" font-size="14.00"> v7 = IntToPtrCastExpr&lt;ptr&gt;(v5)</text>
<text text-anchor="start" x="8" y="-180.3" font-family="Times,serif" font-size="14.00"> g36 = v6</text>
<text text-anchor="start" x="8" y="-165.3" font-family="Times,serif" font-size="14.00"> v8 = ((*(v7) + 31337) + g30)</text>
<text text-anchor="start" x="8" y="-150.3" font-family="Times,serif" font-size="14.00"> v9 = (((8192 * v8) | (v8 / 524288)) + v8)</text>
<text text-anchor="start" x="8" y="-135.3" font-family="Times,serif" font-size="14.00"> g30 = v9</text>
<text text-anchor="start" x="8" y="-120.3" font-family="Times,serif" font-size="14.00"> g29 = (v5 + 4)</text>
<text text-anchor="start" x="8" y="-105.3" font-family="Times,serif" font-size="14.00"> *(v7) = v9</text>
</g>
<!-- Node0x3e4f2000&#45;&gt;Node0x3e4f60b0 -->
<g id="edge3" class="edge"><title>Node0x3e4f2000&#45;&gt;Node0x3e4f60b0</title>
<path fill="none" stroke="black" d="M173.447,-307.312C166.105,-302.476 159.504,-296.454 155,-289 150.694,-281.874 147.806,-273.995 145.982,-265.817"/>
<polygon fill="black" stroke="black" points="149.392,-264.993 144.261,-255.724 142.492,-266.17 149.392,-264.993"/>
<text text-anchor="middle" x="182" y="-277.8" font-family="Times,serif" font-size="14.00">v6 != 9</text>
</g>
<!-- Node0x41f0e6c0 -->
<g id="node5" class="node"><title>Node0x41f0e6c0</title>
<polygon fill="none" stroke="black" points="326.5,-150 326.5,-203 427.5,-203 427.5,-150 326.5,-150"/>
<text text-anchor="start" x="334.5" y="-187.8" font-family="Times,serif" font-size="14.00">0x77bb150:</text>
<text text-anchor="start" x="334.5" y="-172.8" font-family="Times,serif" font-size="14.00"> g6 = True</text>
<text text-anchor="start" x="334.5" y="-157.8" font-family="Times,serif" font-size="14.00"> g9 = True</text>
</g>
<!-- Node0x3e4f2000&#45;&gt;Node0x41f0e6c0 -->
<g id="edge4" class="edge"><title>Node0x3e4f2000&#45;&gt;Node0x41f0e6c0</title>
<path fill="none" stroke="black" d="M251.78,-307.336C271.282,-294.307 297.038,-275.646 317,-256 330.695,-242.522 343.892,-225.809 354.406,-211.273"/>
<polygon fill="black" stroke="black" points="357.339,-213.188 360.27,-203.007 351.629,-209.138 357.339,-213.188"/>
<text text-anchor="middle" x="325" y="-277.8" font-family="Times,serif" font-size="14.00">v6 == 9</text>
</g>
<!-- Node0x3e4f60b0&#45;&gt;Node0x3e4f2000 -->
<g id="edge5" class="edge"><title>Node0x3e4f60b0&#45;&gt;Node0x3e4f2000</title>
<path fill="none" stroke="black" d="M200.7,-255.675C203.688,-261.788 206.497,-267.94 209,-274 212.099,-281.503 214.717,-289.901 216.819,-297.705"/>
<polygon fill="black" stroke="black" points="213.448,-298.651 219.284,-307.494 220.237,-296.942 213.448,-298.651"/>
</g>
<!-- Node0x3e4f4c50 -->
<g id="node6" class="node"><title>Node0x3e4f4c50</title>
<polygon fill="none" stroke="black" points="350,-23.5 350,-59.5 404,-59.5 404,-23.5 350,-23.5"/>
<text text-anchor="start" x="358" y="-37.8" font-family="Times,serif" font-size="14.00">exit:</text>
</g>
<!-- Node0x41f0e6c0&#45;&gt;Node0x3e4f4c50 -->
<g id="edge6" class="edge"><title>Node0x41f0e6c0&#45;&gt;Node0x3e4f4c50</title>
<path fill="none" stroke="black" d="M377,-149.856C377,-126.918 377,-93.3918 377,-69.9254"/>
<polygon fill="black" stroke="black" points="380.5,-69.6151 377,-59.6151 373.5,-69.6152 380.5,-69.6151"/>
</g>
</g>
</svg>
