<?xml version="1.0" encoding="UTF-8" standalone="no"?>
<!DOCTYPE svg PUBLIC "-//W3C//DTD SVG 1.1//EN"
 "http://www.w3.org/Graphics/SVG/1.1/DTD/svg11.dtd">
<!-- Generated by graphviz version 2.38.0 (20140413.2041)
 -->
<!-- Title: Control&#45;flow graph for function &#39;function_18f44()&#39;. Pages: 1 -->
<svg width="1041pt" height="3161pt"
 viewBox="0.00 0.00 1041.18 3161.00" xmlns="http://www.w3.org/2000/svg" xmlns:xlink="http://www.w3.org/1999/xlink">
<g id="graph0" class="graph" transform="scale(1 1) rotate(0) translate(4 3157)">
<title>Control&#45;flow graph for function &#39;function_18f44()&#39;.</title>
<polygon fill="white" stroke="none" points="-4,4 -4,-3157 1037.18,-3157 1037.18,4 -4,4"/>
<text text-anchor="middle" x="516.59" y="-7.8" font-family="Times,serif" font-size="14.00">Control&#45;flow graph for function &#39;function_18f44()&#39;.</text>
<!-- Node0x44c2d480 -->
<g id="node1" class="node"><title>Node0x44c2d480</title>
<polygon fill="none" stroke="black" points="151,-3116.5 151,-3152.5 210,-3152.5 210,-3116.5 151,-3116.5"/>
<text text-anchor="start" x="159" y="-3130.8" font-family="Times,serif" font-size="14.00">entry:</text>
</g>
<!-- Node0xfcb4440 -->
<g id="node2" class="node"><title>Node0xfcb4440</title>
<polygon fill="none" stroke="black" points="12,-2785.5 12,-3078.5 349,-3078.5 349,-2785.5 12,-2785.5"/>
<text text-anchor="start" x="20" y="-3063.3" font-family="Times,serif" font-size="14.00">0x3452bec0:</text>
<text text-anchor="start" x="20" y="-3048.3" font-family="Times,serif" font-size="14.00"> v1 = g38</text>
<text text-anchor="start" x="20" y="-3033.3" font-family="Times,serif" font-size="14.00"> v2 = g39</text>
<text text-anchor="start" x="20" y="-3018.3" font-family="Times,serif" font-size="14.00"> v3 = g40</text>
<text text-anchor="start" x="20" y="-3003.3" font-family="Times,serif" font-size="14.00"> v4 = g41</text>
<text text-anchor="start" x="20" y="-2988.3" font-family="Times,serif" font-size="14.00"> v5 = g42</text>
<text text-anchor="start" x="20" y="-2973.3" font-family="Times,serif" font-size="14.00"> v6 = g43</text>
<text text-anchor="start" x="20" y="-2958.3" font-family="Times,serif" font-size="14.00"> v7 = g31</text>
<text text-anchor="start" x="20" y="-2943.3" font-family="Times,serif" font-size="14.00"> v8 = g32</text>
<text text-anchor="start" x="20" y="-2928.3" font-family="Times,serif" font-size="14.00"> v9 = g35</text>
<text text-anchor="start" x="20" y="-2913.3" font-family="Times,serif" font-size="14.00"> v10 = g29</text>
<text text-anchor="start" x="20" y="-2898.3" font-family="Times,serif" font-size="14.00"> g40 = v10</text>
<text text-anchor="start" x="20" y="-2883.3" font-family="Times,serif" font-size="14.00"> v11 = *(IntToPtrCastExpr&lt;ptr&gt;((v10 + 8)))</text>
<text text-anchor="start" x="20" y="-2868.3" font-family="Times,serif" font-size="14.00"> g41 = g30</text>
<text text-anchor="start" x="20" y="-2853.3" font-family="Times,serif" font-size="14.00"> g8 = False</text>
<text text-anchor="start" x="20" y="-2838.3" font-family="Times,serif" font-size="14.00"> g7 = (v11 &lt; 0)</text>
<text text-anchor="start" x="20" y="-2823.3" font-family="Times,serif" font-size="14.00"> g9 = (v11 == 0)</text>
<text text-anchor="start" x="20" y="-2808.3" font-family="Times,serif" font-size="14.00"> g29 = g37</text>
<text text-anchor="start" x="20" y="-2793.3" font-family="Times,serif" font-size="14.00"> v12</text>
</g>
<!-- Node0x44c2d480&#45;&gt;Node0xfcb4440 -->
<g id="edge1" class="edge"><title>Node0x44c2d480&#45;&gt;Node0xfcb4440</title>
<path fill="none" stroke="black" d="M180.5,-3116.41C180.5,-3109.01 180.5,-3099.6 180.5,-3088.97"/>
<polygon fill="black" stroke="black" points="184,-3088.89 180.5,-3078.89 177,-3088.89 184,-3088.89"/>
</g>
<!-- Node0x37318160 -->
<g id="node3" class="node"><title>Node0x37318160</title>
<polygon fill="none" stroke="black" points="127,-2709.5 127,-2747.5 234,-2747.5 234,-2709.5 127,-2709.5"/>
<text text-anchor="start" x="135" y="-2732.3" font-family="Times,serif" font-size="14.00">0x8afb840:</text>
<text text-anchor="start" x="135" y="-2717.3" font-family="Times,serif" font-size="14.00"> if (v11 &lt; 1):</text>
</g>
<!-- Node0xfcb4440&#45;&gt;Node0x37318160 -->
<g id="edge2" class="edge"><title>Node0xfcb4440&#45;&gt;Node0x37318160</title>
<path fill="none" stroke="black" d="M180.5,-2785.36C180.5,-2775.25 180.5,-2765.89 180.5,-2757.85"/>
<polygon fill="black" stroke="black" points="184,-2757.73 180.5,-2747.73 177,-2757.73 184,-2757.73"/>
</g>
<!-- Node0x39336330 -->
<g id="node4" class="node"><title>Node0x39336330</title>
<polygon fill="none" stroke="black" points="0,-2217.5 0,-2420.5 233,-2420.5 233,-2217.5 0,-2217.5"/>
<text text-anchor="start" x="8" y="-2405.3" font-family="Times,serif" font-size="14.00">0x8afa860:</text>
<text text-anchor="start" x="8" y="-2390.3" font-family="Times,serif" font-size="14.00"> g29 = 0</text>
<text text-anchor="start" x="8" y="-2375.3" font-family="Times,serif" font-size="14.00"> g38 = v1</text>
<text text-anchor="start" x="8" y="-2360.3" font-family="Times,serif" font-size="14.00"> g39 = v2</text>
<text text-anchor="start" x="8" y="-2345.3" font-family="Times,serif" font-size="14.00"> g40 = v3</text>
<text text-anchor="start" x="8" y="-2330.3" font-family="Times,serif" font-size="14.00"> g41 = v4</text>
<text text-anchor="start" x="8" y="-2315.3" font-family="Times,serif" font-size="14.00"> g42 = v5</text>
<text text-anchor="start" x="8" y="-2300.3" font-family="Times,serif" font-size="14.00"> g43 = v6</text>
<text text-anchor="start" x="8" y="-2285.3" font-family="Times,serif" font-size="14.00"> g31 = v7</text>
<text text-anchor="start" x="8" y="-2270.3" font-family="Times,serif" font-size="14.00"> g32 = v8</text>
<text text-anchor="start" x="8" y="-2255.3" font-family="Times,serif" font-size="14.00"> g34 = v12</text>
<text text-anchor="start" x="8" y="-2240.3" font-family="Times,serif" font-size="14.00"> IntToPtrCastExpr&lt;ptr&gt;(v9)()</text>
<text text-anchor="start" x="8" y="-2225.3" font-family="Times,serif" font-size="14.00"> return</text>
</g>
<!-- Node0x37318160&#45;&gt;Node0x39336330 -->
<g id="edge3" class="edge"><title>Node0x37318160&#45;&gt;Node0x39336330</title>
<path fill="none" stroke="black" d="M159.011,-2709.37C153.635,-2703.93 148.319,-2697.63 144.5,-2691 136.915,-2677.83 137.94,-2673.01 135.5,-2658 123.275,-2582.82 118.558,-2497.14 116.88,-2430.85"/>
<polygon fill="black" stroke="black" points="120.378,-2430.71 116.646,-2420.8 113.38,-2430.88 120.378,-2430.71"/>
<text text-anchor="middle" x="173" y="-2679.8" font-family="Times,serif" font-size="14.00">v11 &lt; 1</text>
</g>
<!-- Node0x351ee580 -->
<g id="node5" class="node"><title>Node0x351ee580</title>
<polygon fill="none" stroke="black" points="145,-2439.5 145,-2657.5 442,-2657.5 442,-2439.5 145,-2439.5"/>
<text text-anchor="start" x="153" y="-2642.3" font-family="Times,serif" font-size="14.00">0x8afbeb0:</text>
<text text-anchor="start" x="153" y="-2627.3" font-family="Times,serif" font-size="14.00"> g30 = *(IntToPtrCastExpr&lt;ptr&gt;(v10))</text>
<text text-anchor="start" x="153" y="-2612.3" font-family="Times,serif" font-size="14.00"> function_24238()</text>
<text text-anchor="start" x="153" y="-2597.3" font-family="Times,serif" font-size="14.00"> g37 = &#45;4</text>
<text text-anchor="start" x="153" y="-2582.3" font-family="Times,serif" font-size="14.00"> v13 = g29</text>
<text text-anchor="start" x="153" y="-2567.3" font-family="Times,serif" font-size="14.00"> g31 = (&#45;4 * v13)</text>
<text text-anchor="start" x="153" y="-2552.3" font-family="Times,serif" font-size="14.00"> g39 = v13</text>
<text text-anchor="start" x="153" y="-2537.3" font-family="Times,serif" font-size="14.00"> g38 = g41</text>
<text text-anchor="start" x="153" y="-2522.3" font-family="Times,serif" font-size="14.00"> g41 = 0</text>
<text text-anchor="start" x="153" y="-2507.3" font-family="Times,serif" font-size="14.00"> g43 = (4 * v13)</text>
<text text-anchor="start" x="153" y="-2492.3" font-family="Times,serif" font-size="14.00"> v14 = &#45;(v13)</text>
<text text-anchor="start" x="153" y="-2477.3" font-family="Times,serif" font-size="14.00"> g8 = ((v13 &amp; v14) &lt; 0)</text>
<text text-anchor="start" x="153" y="-2462.3" font-family="Times,serif" font-size="14.00"> g7 = (v14 &lt; 0)</text>
<text text-anchor="start" x="153" y="-2447.3" font-family="Times,serif" font-size="14.00"> g9 = (v13 == 0)</text>
</g>
<!-- Node0x37318160&#45;&gt;Node0x351ee580 -->
<g id="edge4" class="edge"><title>Node0x37318160&#45;&gt;Node0x351ee580</title>
<path fill="none" stroke="black" d="M191.957,-2709.45C198.981,-2698.39 208.64,-2683.17 219.226,-2666.5"/>
<polygon fill="black" stroke="black" points="222.432,-2667.98 224.837,-2657.66 216.522,-2664.23 222.432,-2667.98"/>
<text text-anchor="middle" x="246" y="-2679.8" font-family="Times,serif" font-size="14.00">v11 &gt;= 1</text>
</g>
<!-- Node0x24333110 -->
<g id="node6" class="node"><title>Node0x24333110</title>
<polygon fill="none" stroke="black" points="138.5,-23.5 138.5,-59.5 192.5,-59.5 192.5,-23.5 138.5,-23.5"/>
<text text-anchor="start" x="146.5" y="-37.8" font-family="Times,serif" font-size="14.00">exit:</text>
</g>
<!-- Node0x39336330&#45;&gt;Node0x24333110 -->
<g id="edge5" class="edge"><title>Node0x39336330&#45;&gt;Node0x24333110</title>
<path fill="none" stroke="black" d="M116.5,-2217.12C116.5,-2190.57 116.5,-2161.96 116.5,-2135.5 116.5,-2135.5 116.5,-2135.5 116.5,-198 116.5,-150.749 137.335,-99.0007 151.833,-68.7119"/>
<polygon fill="black" stroke="black" points="155.01,-70.1829 156.283,-59.6648 148.729,-67.0932 155.01,-70.1829"/>
</g>
<!-- Node0x3187fe10 -->
<g id="node7" class="node"><title>Node0x3187fe10</title>
<polygon fill="none" stroke="black" points="162,-2160.5 162,-2198.5 425,-2198.5 425,-2160.5 162,-2160.5"/>
<text text-anchor="start" x="170" y="-2183.3" font-family="Times,serif" font-size="14.00">0x8b08ea0:</text>
<text text-anchor="start" x="170" y="-2168.3" font-family="Times,serif" font-size="14.00"> if ((v14 &lt; 0) ^ ((v13 &amp; v14) &lt; 0)):</text>
</g>
<!-- Node0x351ee580&#45;&gt;Node0x3187fe10 -->
<g id="edge6" class="edge"><title>Node0x351ee580&#45;&gt;Node0x3187fe10</title>
<path fill="none" stroke="black" d="M293.5,-2439.37C293.5,-2359.96 293.5,-2257.75 293.5,-2208.92"/>
<polygon fill="black" stroke="black" points="297,-2208.79 293.5,-2198.79 290,-2208.79 297,-2208.79"/>
</g>
<!-- Node0x153a4dc0 -->
<g id="node8" class="node"><title>Node0x153a4dc0</title>
<polygon fill="none" stroke="black" points="481,-2055.5 481,-2108.5 586,-2108.5 586,-2055.5 481,-2055.5"/>
<text text-anchor="start" x="489" y="-2093.3" font-family="Times,serif" font-size="14.00">0x436fee40:</text>
<text text-anchor="start" x="489" y="-2078.3" font-family="Times,serif" font-size="14.00"> v15 = g40</text>
<text text-anchor="start" x="489" y="-2063.3" font-family="Times,serif" font-size="14.00"> v16</text>
</g>
<!-- Node0x3187fe10&#45;&gt;Node0x153a4dc0 -->
<g id="edge7" class="edge"><title>Node0x3187fe10&#45;&gt;Node0x153a4dc0</title>
<path fill="none" stroke="black" d="M425.002,-2167.42C462.549,-2161.91 497.182,-2153.81 511.5,-2142 518.807,-2135.97 523.688,-2127.26 526.948,-2118.38"/>
<polygon fill="black" stroke="black" points="530.302,-2119.38 529.887,-2108.79 523.61,-2117.33 530.302,-2119.38"/>
<text text-anchor="middle" x="630.5" y="-2130.8" font-family="Times,serif" font-size="14.00">(v14 &lt; 0) ^ ((v13 &amp; v14) &lt; 0)</text>
</g>
<!-- Node0x351f02f0 -->
<g id="node9" class="node"><title>Node0x351f02f0</title>
<polygon fill="none" stroke="black" points="132,-1848.5 132,-2036.5 365,-2036.5 365,-1848.5 132,-1848.5"/>
<text text-anchor="start" x="140" y="-2021.3" font-family="Times,serif" font-size="14.00">0x8b09050:</text>
<text text-anchor="start" x="140" y="-2006.3" font-family="Times,serif" font-size="14.00"> g29 = 0</text>
<text text-anchor="start" x="140" y="-1991.3" font-family="Times,serif" font-size="14.00"> g38 = v1</text>
<text text-anchor="start" x="140" y="-1976.3" font-family="Times,serif" font-size="14.00"> g39 = v2</text>
<text text-anchor="start" x="140" y="-1961.3" font-family="Times,serif" font-size="14.00"> g40 = v3</text>
<text text-anchor="start" x="140" y="-1946.3" font-family="Times,serif" font-size="14.00"> g41 = v4</text>
<text text-anchor="start" x="140" y="-1931.3" font-family="Times,serif" font-size="14.00"> g42 = v5</text>
<text text-anchor="start" x="140" y="-1916.3" font-family="Times,serif" font-size="14.00"> g43 = v6</text>
<text text-anchor="start" x="140" y="-1901.3" font-family="Times,serif" font-size="14.00"> g31 = v7</text>
<text text-anchor="start" x="140" y="-1886.3" font-family="Times,serif" font-size="14.00"> g32 = v8</text>
<text text-anchor="start" x="140" y="-1871.3" font-family="Times,serif" font-size="14.00"> g34 = v12</text>
<text text-anchor="start" x="140" y="-1856.3" font-family="Times,serif" font-size="14.00"> IntToPtrCastExpr&lt;ptr&gt;(v9)()</text>
</g>
<!-- Node0x3187fe10&#45;&gt;Node0x351f02f0 -->
<g id="edge8" class="edge"><title>Node0x3187fe10&#45;&gt;Node0x351f02f0</title>
<path fill="none" stroke="black" d="M260.922,-2160.31C254.701,-2155.24 249.035,-2149.13 245.5,-2142 231.166,-2113.09 227.717,-2078.78 229.109,-2046.89"/>
<polygon fill="black" stroke="black" points="232.619,-2046.82 229.723,-2036.62 225.631,-2046.4 232.619,-2046.82"/>
<text text-anchor="middle" x="376.5" y="-2130.8" font-family="Times,serif" font-size="14.00">not (((v14 &lt; 0) ^ ((v13 &amp; v14) &lt; 0)))</text>
</g>
<!-- Node0x39337c30 -->
<g id="node10" class="node"><title>Node0x39337c30</title>
<polygon fill="none" stroke="black" points="483,-1791.5 483,-1829.5 584,-1829.5 584,-1791.5 483,-1791.5"/>
<text text-anchor="start" x="491" y="-1814.3" font-family="Times,serif" font-size="14.00">0x8b08cc0:</text>
<text text-anchor="start" x="491" y="-1799.3" font-family="Times,serif" font-size="14.00"> while True:</text>
</g>
<!-- Node0x153a4dc0&#45;&gt;Node0x39337c30 -->
<g id="edge9" class="edge"><title>Node0x153a4dc0&#45;&gt;Node0x39337c30</title>
<path fill="none" stroke="black" d="M533.5,-2055.16C533.5,-2004.48 533.5,-1892.43 533.5,-1839.82"/>
<polygon fill="black" stroke="black" points="537,-1839.54 533.5,-1829.54 530,-1839.54 537,-1839.54"/>
</g>
<!-- Node0x351f02f0&#45;&gt;Node0x24333110 -->
<g id="edge10" class="edge"><title>Node0x351f02f0&#45;&gt;Node0x24333110</title>
<path fill="none" stroke="black" d="M186.23,-1848.45C174.33,-1822.96 165.5,-1794.58 165.5,-1766.5 165.5,-1766.5 165.5,-1766.5 165.5,-198 165.5,-153.082 165.5,-100.866 165.5,-69.8128"/>
<polygon fill="black" stroke="black" points="169,-69.758 165.5,-59.758 162,-69.758 169,-69.758"/>
</g>
<!-- Node0x39339930 -->
<g id="node11" class="node"><title>Node0x39339930</title>
<polygon fill="none" stroke="black" points="441,-1596.5 441,-1739.5 584,-1739.5 584,-1596.5 441,-1596.5"/>
<text text-anchor="start" x="449" y="-1724.3" font-family="Times,serif" font-size="14.00">0x8afeb10:</text>
<text text-anchor="start" x="449" y="-1709.3" font-family="Times,serif" font-size="14.00"> g29 = v15</text>
<text text-anchor="start" x="449" y="-1694.3" font-family="Times,serif" font-size="14.00"> g30 = g36</text>
<text text-anchor="start" x="449" y="-1679.3" font-family="Times,serif" font-size="14.00"> g37 = v12</text>
<text text-anchor="start" x="449" y="-1664.3" font-family="Times,serif" font-size="14.00"> function_18bb8()</text>
<text text-anchor="start" x="449" y="-1649.3" font-family="Times,serif" font-size="14.00"> v17 = g29</text>
<text text-anchor="start" x="449" y="-1634.3" font-family="Times,serif" font-size="14.00"> g8 = False</text>
<text text-anchor="start" x="449" y="-1619.3" font-family="Times,serif" font-size="14.00"> g7 = (v17 &lt; 0)</text>
<text text-anchor="start" x="449" y="-1604.3" font-family="Times,serif" font-size="14.00"> g9 = (v17 == 0)</text>
</g>
<!-- Node0x39337c30&#45;&gt;Node0x39339930 -->
<g id="edge11" class="edge"><title>Node0x39337c30&#45;&gt;Node0x39339930</title>
<path fill="none" stroke="black" d="M530.798,-1791.42C529.137,-1780.31 526.881,-1765.21 524.52,-1749.42"/>
<polygon fill="black" stroke="black" points="527.98,-1748.89 523.04,-1739.52 521.057,-1749.93 527.98,-1748.89"/>
<text text-anchor="middle" x="545.5" y="-1761.8" font-family="Times,serif" font-size="14.00">True</text>
</g>
<!-- Node0x3df75320 -->
<g id="node12" class="node"><title>Node0x3df75320</title>
<polygon fill="none" stroke="black" points="445,-1505.5 445,-1558.5 564,-1558.5 564,-1505.5 445,-1505.5"/>
<text text-anchor="start" x="453" y="-1543.3" font-family="Times,serif" font-size="14.00">0x8b07880:</text>
<text text-anchor="start" x="453" y="-1528.3" font-family="Times,serif" font-size="14.00"> if (v17 == 0):</text>
<text text-anchor="start" x="453" y="-1513.3" font-family="Times,serif" font-size="14.00"> else:</text>
</g>
<!-- Node0x39339930&#45;&gt;Node0x3df75320 -->
<g id="edge12" class="edge"><title>Node0x39339930&#45;&gt;Node0x3df75320</title>
<path fill="none" stroke="black" d="M508.289,-1596.47C507.716,-1586.88 507.15,-1577.38 506.636,-1568.77"/>
<polygon fill="black" stroke="black" points="510.128,-1568.53 506.038,-1558.76 503.14,-1568.95 510.128,-1568.53"/>
</g>
<!-- Node0x3df76720 -->
<g id="node13" class="node"><title>Node0x3df76720</title>
<polygon fill="none" stroke="black" points="356.5,-1355.5 356.5,-1453.5 652.5,-1453.5 652.5,-1355.5 356.5,-1355.5"/>
<text text-anchor="start" x="364.5" y="-1438.3" font-family="Times,serif" font-size="14.00">0x3c6adba0:</text>
<text text-anchor="start" x="364.5" y="-1423.3" font-family="Times,serif" font-size="14.00"> v18 = g40</text>
<text text-anchor="start" x="364.5" y="-1408.3" font-family="Times,serif" font-size="14.00"> v19 = *(IntToPtrCastExpr&lt;ptr&gt;(v18))</text>
<text text-anchor="start" x="364.5" y="-1393.3" font-family="Times,serif" font-size="14.00"> g37 = v19</text>
<text text-anchor="start" x="364.5" y="-1378.3" font-family="Times,serif" font-size="14.00"> v20 = (g43 + g38)</text>
<text text-anchor="start" x="364.5" y="-1363.3" font-family="Times,serif" font-size="14.00"> g30 = v20</text>
</g>
<!-- Node0x3df75320&#45;&gt;Node0x3df76720 -->
<g id="edge13" class="edge"><title>Node0x3df75320&#45;&gt;Node0x3df76720</title>
<path fill="none" stroke="black" d="M504.5,-1505.3C504.5,-1493.24 504.5,-1478.33 504.5,-1463.75"/>
<polygon fill="black" stroke="black" points="508,-1463.75 504.5,-1453.75 501,-1463.75 508,-1463.75"/>
<text text-anchor="middle" x="539" y="-1475.8" font-family="Times,serif" font-size="14.00">v17 == 0</text>
</g>
<!-- Node0x3df7a820 -->
<g id="node14" class="node"><title>Node0x3df7a820</title>
<polygon fill="none" stroke="black" points="205,-1298.5 205,-1336.5 306,-1336.5 306,-1298.5 205,-1298.5"/>
<text text-anchor="start" x="213" y="-1321.3" font-family="Times,serif" font-size="14.00">0x8b07a40:</text>
<text text-anchor="start" x="213" y="-1306.3" font-family="Times,serif" font-size="14.00"> v16 = &#45;1</text>
</g>
<!-- Node0x3df75320&#45;&gt;Node0x3df7a820 -->
<g id="edge14" class="edge"><title>Node0x3df75320&#45;&gt;Node0x3df7a820</title>
<path fill="none" stroke="black" d="M444.991,-1510.38C413.645,-1497.52 375.922,-1478.68 347.5,-1454 312.051,-1423.21 284.055,-1375.76 268.647,-1345.96"/>
<polygon fill="black" stroke="black" points="271.726,-1344.29 264.093,-1336.95 265.478,-1347.45 271.726,-1344.29"/>
<text text-anchor="middle" x="427" y="-1475.8" font-family="Times,serif" font-size="14.00">v17 != 0</text>
</g>
<!-- Node0x3df76c20 -->
<g id="node15" class="node"><title>Node0x3df76c20</title>
<polygon fill="none" stroke="black" points="451,-1241.5 451,-1279.5 558,-1279.5 558,-1241.5 451,-1241.5"/>
<text text-anchor="start" x="459" y="-1264.3" font-family="Times,serif" font-size="14.00">0x8b04d20:</text>
<text text-anchor="start" x="459" y="-1249.3" font-family="Times,serif" font-size="14.00"> if (v19 &gt; 0):</text>
</g>
<!-- Node0x3df76720&#45;&gt;Node0x3df76c20 -->
<g id="edge15" class="edge"><title>Node0x3df76720&#45;&gt;Node0x3df76c20</title>
<path fill="none" stroke="black" d="M504.5,-1355.43C504.5,-1333.63 504.5,-1308.61 504.5,-1289.88"/>
<polygon fill="black" stroke="black" points="508,-1289.65 504.5,-1279.65 501,-1289.65 508,-1289.65"/>
</g>
<!-- Node0x39337830 -->
<g id="node16" class="node"><title>Node0x39337830</title>
<polygon fill="none" stroke="black" points="194,-97.5 194,-300.5 427,-300.5 427,-97.5 194,-97.5"/>
<text text-anchor="start" x="202" y="-285.3" font-family="Times,serif" font-size="14.00">0x8b07d20:</text>
<text text-anchor="start" x="202" y="-270.3" font-family="Times,serif" font-size="14.00"> g29 = v16</text>
<text text-anchor="start" x="202" y="-255.3" font-family="Times,serif" font-size="14.00"> g38 = v1</text>
<text text-anchor="start" x="202" y="-240.3" font-family="Times,serif" font-size="14.00"> g39 = v2</text>
<text text-anchor="start" x="202" y="-225.3" font-family="Times,serif" font-size="14.00"> g40 = v3</text>
<text text-anchor="start" x="202" y="-210.3" font-family="Times,serif" font-size="14.00"> g41 = v4</text>
<text text-anchor="start" x="202" y="-195.3" font-family="Times,serif" font-size="14.00"> g42 = v5</text>
<text text-anchor="start" x="202" y="-180.3" font-family="Times,serif" font-size="14.00"> g43 = v6</text>
<text text-anchor="start" x="202" y="-165.3" font-family="Times,serif" font-size="14.00"> g31 = v7</text>
<text text-anchor="start" x="202" y="-150.3" font-family="Times,serif" font-size="14.00"> g32 = v8</text>
<text text-anchor="start" x="202" y="-135.3" font-family="Times,serif" font-size="14.00"> g34 = v12</text>
<text text-anchor="start" x="202" y="-120.3" font-family="Times,serif" font-size="14.00"> IntToPtrCastExpr&lt;ptr&gt;(v9)()</text>
<text text-anchor="start" x="202" y="-105.3" font-family="Times,serif" font-size="14.00"> return</text>
</g>
<!-- Node0x3df7a820&#45;&gt;Node0x39337830 -->
<g id="edge16" class="edge"><title>Node0x3df7a820&#45;&gt;Node0x39337830</title>
<path fill="none" stroke="black" d="M248.429,-1298.38C241.35,-1278.59 231.5,-1245.78 231.5,-1216.5 231.5,-1216.5 231.5,-1216.5 231.5,-364 231.5,-345.868 235.468,-327.625 241.626,-310.233"/>
<polygon fill="black" stroke="black" points="244.982,-311.255 245.261,-300.664 238.438,-308.769 244.982,-311.255"/>
</g>
<!-- Node0x3df7a720 -->
<g id="node17" class="node"><title>Node0x3df7a720</title>
<polygon fill="none" stroke="black" points="334,-1001.5 334,-1189.5 671,-1189.5 671,-1001.5 334,-1001.5"/>
<text text-anchor="start" x="342" y="-1174.3" font-family="Times,serif" font-size="14.00">0x8af4b30:</text>
<text text-anchor="start" x="342" y="-1159.3" font-family="Times,serif" font-size="14.00"> v21</text>
<text text-anchor="start" x="342" y="-1144.3" font-family="Times,serif" font-size="14.00"> g36 = v21</text>
<text text-anchor="start" x="342" y="-1129.3" font-family="Times,serif" font-size="14.00"> v22 = IntToPtrCastExpr&lt;ptr&gt;((g31 + v20))</text>
<text text-anchor="start" x="342" y="-1114.3" font-family="Times,serif" font-size="14.00"> g29 = 1</text>
<text text-anchor="start" x="342" y="-1099.3" font-family="Times,serif" font-size="14.00"> *(v22) = (*(v22) + v21)</text>
<text text-anchor="start" x="342" y="-1084.3" font-family="Times,serif" font-size="14.00"> v23 = g29</text>
<text text-anchor="start" x="342" y="-1069.3" font-family="Times,serif" font-size="14.00"> v24 = g40</text>
<text text-anchor="start" x="342" y="-1054.3" font-family="Times,serif" font-size="14.00"> v25 = *(IntToPtrCastExpr&lt;ptr&gt;(v24))</text>
<text text-anchor="start" x="342" y="-1039.3" font-family="Times,serif" font-size="14.00"> g37 = v25</text>
<text text-anchor="start" x="342" y="-1024.3" font-family="Times,serif" font-size="14.00"> v26 = (g43 + g30)</text>
<text text-anchor="start" x="342" y="-1009.3" font-family="Times,serif" font-size="14.00"> g30 = v26</text>
</g>
<!-- Node0x3df76c20&#45;&gt;Node0x3df7a720 -->
<g id="edge17" class="edge"><title>Node0x3df76c20&#45;&gt;Node0x3df7a720</title>
<path fill="none" stroke="black" d="M504.278,-1241.43C504.145,-1230.59 503.964,-1215.82 503.768,-1199.84"/>
<polygon fill="black" stroke="black" points="507.267,-1199.72 503.644,-1189.76 500.267,-1199.81 507.267,-1199.72"/>
<text text-anchor="middle" x="533" y="-1211.8" font-family="Times,serif" font-size="14.00">v19 &gt; 0</text>
</g>
<!-- Node0x3df77920 -->
<g id="node18" class="node"><title>Node0x3df77920</title>
<polygon fill="none" stroke="black" points="439,-519.5 439,-662.5 740,-662.5 740,-519.5 439,-519.5"/>
<text text-anchor="start" x="447" y="-647.3" font-family="Times,serif" font-size="14.00">0x43a62160:</text>
<text text-anchor="start" x="447" y="-632.3" font-family="Times,serif" font-size="14.00"> v27 = (g41 + 1)</text>
<text text-anchor="start" x="447" y="-617.3" font-family="Times,serif" font-size="14.00"> g41 = v27</text>
<text text-anchor="start" x="447" y="-602.3" font-family="Times,serif" font-size="14.00"> g38 = (g38 + 4)</text>
<text text-anchor="start" x="447" y="-587.3" font-family="Times,serif" font-size="14.00"> v28 = g39</text>
<text text-anchor="start" x="447" y="-572.3" font-family="Times,serif" font-size="14.00"> v29 = (v27 &#45; v28)</text>
<text text-anchor="start" x="447" y="-557.3" font-family="Times,serif" font-size="14.00"> g8 = (((v29 ^ v27) &amp; (v28 ^ v27)) &lt; 0)</text>
<text text-anchor="start" x="447" y="-542.3" font-family="Times,serif" font-size="14.00"> g7 = (v29 &lt; 0)</text>
<text text-anchor="start" x="447" y="-527.3" font-family="Times,serif" font-size="14.00"> g9 = (v27 == v28)</text>
</g>
<!-- Node0x3df76c20&#45;&gt;Node0x3df77920 -->
<g id="edge18" class="edge"><title>Node0x3df76c20&#45;&gt;Node0x3df77920</title>
<path fill="none" stroke="black" d="M558.285,-1248.29C629.313,-1229.97 745.5,-1186.28 745.5,-1096.5 745.5,-1096.5 745.5,-1096.5 745.5,-786 745.5,-746.856 747.304,-733.158 726.5,-700 719.832,-689.372 711.735,-679.356 702.845,-670.031"/>
<polygon fill="black" stroke="black" points="705.091,-667.326 695.558,-662.703 700.127,-672.262 705.091,-667.326"/>
<text text-anchor="middle" x="780" y="-940.8" font-family="Times,serif" font-size="14.00">v19 &lt;= 0</text>
</g>
<!-- Node0x39337830&#45;&gt;Node0x24333110 -->
<g id="edge19" class="edge"><title>Node0x39337830&#45;&gt;Node0x24333110</title>
<path fill="none" stroke="black" d="M216.622,-97.3235C206.284,-86.237 196.583,-75.8335 188.468,-67.1311"/>
<polygon fill="black" stroke="black" points="190.868,-64.5734 181.489,-59.6466 185.749,-69.3473 190.868,-64.5734"/>
</g>
<!-- Node0x3df7bf20 -->
<g id="node19" class="node"><title>Node0x3df7bf20</title>
<polygon fill="none" stroke="black" points="426.5,-925.5 426.5,-963.5 578.5,-963.5 578.5,-925.5 426.5,-925.5"/>
<text text-anchor="start" x="434.5" y="-948.3" font-family="Times,serif" font-size="14.00">0x8b04b80:</text>
<text text-anchor="start" x="434.5" y="-933.3" font-family="Times,serif" font-size="14.00"> while (v23 &lt; v25):</text>
</g>
<!-- Node0x3df7a720&#45;&gt;Node0x3df7bf20 -->
<g id="edge20" class="edge"><title>Node0x3df7a720&#45;&gt;Node0x3df7bf20</title>
<path fill="none" stroke="black" d="M502.5,-1001.41C502.5,-991.426 502.5,-981.921 502.5,-973.673"/>
<polygon fill="black" stroke="black" points="506,-973.619 502.5,-963.619 499,-973.619 506,-973.619"/>
</g>
<!-- Node0x3df78d20 -->
<g id="node20" class="node"><title>Node0x3df78d20</title>
<polygon fill="none" stroke="black" points="381,-443.5 381,-481.5 798,-481.5 798,-443.5 381,-443.5"/>
<text text-anchor="start" x="389" y="-466.3" font-family="Times,serif" font-size="14.00">0x8b074b0:</text>
<text text-anchor="start" x="389" y="-451.3" font-family="Times,serif" font-size="14.00"> if not (((v29 &lt; 0) ^ (((v29 ^ v27) &amp; (v28 ^ v27)) &lt; 0))):</text>
</g>
<!-- Node0x3df77920&#45;&gt;Node0x3df78d20 -->
<g id="edge21" class="edge"><title>Node0x3df77920&#45;&gt;Node0x3df78d20</title>
<path fill="none" stroke="black" d="M589.5,-519.353C589.5,-509.594 589.5,-500.073 589.5,-491.737"/>
<polygon fill="black" stroke="black" points="593,-491.54 589.5,-481.54 586,-491.54 593,-491.54"/>
</g>
<!-- Node0x3fc45bd0 -->
<g id="node21" class="node"><title>Node0x3fc45bd0</title>
<polygon fill="none" stroke="black" points="380,-700.5 380,-873.5 717,-873.5 717,-700.5 380,-700.5"/>
<text text-anchor="start" x="388" y="-858.3" font-family="Times,serif" font-size="14.00">0x4021a520:</text>
<text text-anchor="start" x="388" y="-843.3" font-family="Times,serif" font-size="14.00"> g36 = v21</text>
<text text-anchor="start" x="388" y="-828.3" font-family="Times,serif" font-size="14.00"> v22 = IntToPtrCastExpr&lt;ptr&gt;((g31 + v26))</text>
<text text-anchor="start" x="388" y="-813.3" font-family="Times,serif" font-size="14.00"> g29 = (v23 + 1)</text>
<text text-anchor="start" x="388" y="-798.3" font-family="Times,serif" font-size="14.00"> *(v22) = (*(v22) + v21)</text>
<text text-anchor="start" x="388" y="-783.3" font-family="Times,serif" font-size="14.00"> v23 = g29</text>
<text text-anchor="start" x="388" y="-768.3" font-family="Times,serif" font-size="14.00"> v24 = g40</text>
<text text-anchor="start" x="388" y="-753.3" font-family="Times,serif" font-size="14.00"> v25 = *(IntToPtrCastExpr&lt;ptr&gt;(v24))</text>
<text text-anchor="start" x="388" y="-738.3" font-family="Times,serif" font-size="14.00"> g37 = v25</text>
<text text-anchor="start" x="388" y="-723.3" font-family="Times,serif" font-size="14.00"> v26 = (g43 + g30)</text>
<text text-anchor="start" x="388" y="-708.3" font-family="Times,serif" font-size="14.00"> g30 = v26</text>
</g>
<!-- Node0x3df7bf20&#45;&gt;Node0x3fc45bd0 -->
<g id="edge22" class="edge"><title>Node0x3df7bf20&#45;&gt;Node0x3fc45bd0</title>
<path fill="none" stroke="black" d="M501.146,-925.186C500.838,-915.258 501.146,-902.836 503.5,-892 504.117,-889.161 504.812,-886.304 505.574,-883.44"/>
<polygon fill="black" stroke="black" points="508.978,-884.272 508.411,-873.692 502.256,-882.316 508.978,-884.272"/>
<text text-anchor="middle" x="540.5" y="-895.8" font-family="Times,serif" font-size="14.00">v23 &lt; v25</text>
</g>
<!-- Node0x3df7ca20 -->
<g id="node22" class="node"><title>Node0x3df7ca20</title>
<polygon fill="none" stroke="black" points="261,-768 261,-806 362,-806 362,-768 261,-768"/>
<text text-anchor="start" x="269" y="-790.8" font-family="Times,serif" font-size="14.00">0x8b04810:</text>
<text text-anchor="start" x="269" y="-775.8" font-family="Times,serif" font-size="14.00"> v18 = v24</text>
</g>
<!-- Node0x3df7bf20&#45;&gt;Node0x3df7ca20 -->
<g id="edge23" class="edge"><title>Node0x3df7bf20&#45;&gt;Node0x3df7ca20</title>
<path fill="none" stroke="black" d="M450.862,-925.45C437.992,-920.175 424.46,-913.937 412.5,-907 391.965,-895.089 386.735,-891.32 370.5,-874 353.629,-856.001 338.004,-832.8 327.077,-815.033"/>
<polygon fill="black" stroke="black" points="329.969,-813.052 321.81,-806.294 323.974,-816.665 329.969,-813.052"/>
<text text-anchor="middle" x="455.5" y="-895.8" font-family="Times,serif" font-size="14.00">v23 &gt;= v25</text>
</g>
<!-- Node0x3fc45ad0 -->
<g id="node23" class="node"><title>Node0x3fc45ad0</title>
<polygon fill="none" stroke="black" points="260,-338.5 260,-391.5 361,-391.5 361,-338.5 260,-338.5"/>
<text text-anchor="start" x="268" y="-376.3" font-family="Times,serif" font-size="14.00">0x8b06b40:</text>
<text text-anchor="start" x="268" y="-361.3" font-family="Times,serif" font-size="14.00"> v16 = 0</text>
<text text-anchor="start" x="268" y="-346.3" font-family="Times,serif" font-size="14.00"> break</text>
</g>
<!-- Node0x3df78d20&#45;&gt;Node0x3fc45ad0 -->
<g id="edge24" class="edge"><title>Node0x3df78d20&#45;&gt;Node0x3fc45ad0</title>
<path fill="none" stroke="black" d="M380.727,-446.636C332.304,-441.11 292.442,-433.95 284.5,-425 278.214,-417.916 278.923,-409.07 282.69,-400.401"/>
<polygon fill="black" stroke="black" points="285.825,-401.963 287.557,-391.511 279.685,-398.601 285.825,-401.963"/>
<text text-anchor="middle" x="473.5" y="-413.8" font-family="Times,serif" font-size="14.00">not (((v29 &lt; 0) ^ (((v29 ^ v27) &amp; (v28 ^ v27)) &lt; 0)))</text>
</g>
<!-- Node0x3df7a520 -->
<g id="node24" class="node"><title>Node0x3df7a520</title>
<polygon fill="none" stroke="black" points="810,-338.5 810,-391.5 911,-391.5 911,-338.5 810,-338.5"/>
<text text-anchor="start" x="818" y="-376.3" font-family="Times,serif" font-size="14.00">0x8b06a40:</text>
<text text-anchor="start" x="818" y="-361.3" font-family="Times,serif" font-size="14.00"> v15 = v18</text>
<text text-anchor="start" x="818" y="-346.3" font-family="Times,serif" font-size="14.00"> continue</text>
</g>
<!-- Node0x3df78d20&#45;&gt;Node0x3df7a520 -->
<g id="edge25" class="edge"><title>Node0x3df78d20&#45;&gt;Node0x3df7a520</title>
<path fill="none" stroke="black" d="M630.383,-443.377C642.203,-437.802 655.011,-431.431 666.5,-425 677.149,-419.039 678.331,-414.919 689.5,-410 724.585,-394.547 766.201,-383.692 799.593,-376.63"/>
<polygon fill="black" stroke="black" points="800.584,-379.999 809.675,-374.559 799.176,-373.142 800.584,-379.999"/>
<text text-anchor="middle" x="854" y="-413.8" font-family="Times,serif" font-size="14.00">(v29 &lt; 0) ^ (((v29 ^ v27) &amp; (v28 ^ v27)) &lt; 0)</text>
</g>
<!-- Node0x3fc45bd0&#45;&gt;Node0x3df7bf20 -->
<g id="edge26" class="edge"><title>Node0x3fc45bd0&#45;&gt;Node0x3df7bf20</title>
<path fill="none" stroke="black" d="M585.493,-873.611C586.017,-885.328 583.871,-896.814 577.5,-907 574.524,-911.757 570.731,-915.911 566.436,-919.534"/>
<polygon fill="black" stroke="black" points="564.261,-916.788 558.231,-925.5 568.378,-922.45 564.261,-916.788"/>
</g>
<!-- Node0x3df7ca20&#45;&gt;Node0x3df77920 -->
<g id="edge27" class="edge"><title>Node0x3df7ca20&#45;&gt;Node0x3df77920</title>
<path fill="none" stroke="black" d="M320.37,-767.848C330.373,-748.905 348.192,-719.323 370.5,-700 388.383,-684.509 408.878,-670.64 429.995,-658.421"/>
<polygon fill="black" stroke="black" points="431.775,-661.436 438.754,-653.465 428.327,-655.343 431.775,-661.436"/>
</g>
<!-- Node0x3fc45ad0&#45;&gt;Node0x39337830 -->
<g id="edge28" class="edge"><title>Node0x3fc45ad0&#45;&gt;Node0x39337830</title>
<path fill="none" stroke="black" d="M310.5,-338.375C310.5,-330.402 310.5,-321.051 310.5,-311.037"/>
<polygon fill="black" stroke="black" points="314,-310.828 310.5,-300.828 307,-310.828 314,-310.828"/>
</g>
<!-- Node0x3df7a520&#45;&gt;Node0x39337c30 -->
<g id="edge29" class="edge"><title>Node0x3df7a520&#45;&gt;Node0x39337c30</title>
<path fill="none" stroke="black" d="M911.114,-367.499C945.78,-371.217 990.399,-381.725 1018.5,-410 1035.22,-426.824 1032.5,-437.78 1032.5,-461.5 1032.5,-1669 1032.5,-1669 1032.5,-1669 1032.5,-1759.13 727.074,-1794.23 594.124,-1805.24"/>
<polygon fill="black" stroke="black" points="593.778,-1801.76 584.093,-1806.05 594.343,-1808.73 593.778,-1801.76"/>
</g>
</g>
</svg>
