<?xml version="1.0" encoding="UTF-8" standalone="no"?>
<!DOCTYPE svg PUBLIC "-//W3C//DTD SVG 1.1//EN"
 "http://www.w3.org/Graphics/SVG/1.1/DTD/svg11.dtd">
<!-- Generated by graphviz version 2.38.0 (20140413.2041)
 -->
<!-- Title: Control&#45;flow graph for function &#39;function_8738()&#39;. Pages: 1 -->
<svg width="1747pt" height="2309pt"
 viewBox="0.00 0.00 1746.50 2309.00" xmlns="http://www.w3.org/2000/svg" xmlns:xlink="http://www.w3.org/1999/xlink">
<g id="graph0" class="graph" transform="scale(1 1) rotate(0) translate(4 2305)">
<title>Control&#45;flow graph for function &#39;function_8738()&#39;.</title>
<polygon fill="white" stroke="none" points="-4,4 -4,-2305 1742.5,-2305 1742.5,4 -4,4"/>
<text text-anchor="middle" x="869.25" y="-7.8" font-family="Times,serif" font-size="14.00">Control&#45;flow graph for function &#39;function_8738()&#39;.</text>
<!-- Node0xcc8db10 -->
<g id="node1" class="node"><title>Node0xcc8db10</title>
<polygon fill="none" stroke="black" points="1551,-2264.5 1551,-2300.5 1610,-2300.5 1610,-2264.5 1551,-2264.5"/>
<text text-anchor="start" x="1559" y="-2278.8" font-family="Times,serif" font-size="14.00">entry:</text>
</g>
<!-- Node0x1f524610 -->
<g id="node2" class="node"><title>Node0x1f524610</title>
<polygon fill="none" stroke="black" points="1436.5,-2098.5 1436.5,-2226.5 1724.5,-2226.5 1724.5,-2098.5 1436.5,-2098.5"/>
<text text-anchor="start" x="1444.5" y="-2211.3" font-family="Times,serif" font-size="14.00">0x31c36990:</text>
<text text-anchor="start" x="1444.5" y="-2196.3" font-family="Times,serif" font-size="14.00"> v1 = g35</text>
<text text-anchor="start" x="1444.5" y="-2181.3" font-family="Times,serif" font-size="14.00"> v2 = (g30 / 4)</text>
<text text-anchor="start" x="1444.5" y="-2166.3" font-family="Times,serif" font-size="14.00"> g37 = v2</text>
<text text-anchor="start" x="1444.5" y="-2151.3" font-family="Times,serif" font-size="14.00"> g33 = 1</text>
<text text-anchor="start" x="1444.5" y="-2136.3" font-family="Times,serif" font-size="14.00"> g35 = 0</text>
<text text-anchor="start" x="1444.5" y="-2121.3" font-family="Times,serif" font-size="14.00"> *(IntToPtrCastExpr&lt;ptr&gt;(g36)) = v2</text>
<text text-anchor="start" x="1444.5" y="-2106.3" font-family="Times,serif" font-size="14.00"> v3 = g33</text>
</g>
<!-- Node0xcc8db10&#45;&gt;Node0x1f524610 -->
<g id="edge1" class="edge"><title>Node0xcc8db10&#45;&gt;Node0x1f524610</title>
<path fill="none" stroke="black" d="M1580.5,-2264.34C1580.5,-2256.72 1580.5,-2247.18 1580.5,-2237.02"/>
<polygon fill="black" stroke="black" points="1584,-2236.71 1580.5,-2226.71 1577,-2236.71 1584,-2236.71"/>
</g>
<!-- Node0x268455b0 -->
<g id="node3" class="node"><title>Node0x268455b0</title>
<polygon fill="none" stroke="black" points="1516.5,-2022.5 1516.5,-2060.5 1644.5,-2060.5 1644.5,-2022.5 1516.5,-2022.5"/>
<text text-anchor="start" x="1524.5" y="-2045.3" font-family="Times,serif" font-size="14.00">0x6bbcb40:</text>
<text text-anchor="start" x="1524.5" y="-2030.3" font-family="Times,serif" font-size="14.00"> if (v3 &lt;= g37):</text>
</g>
<!-- Node0x1f524610&#45;&gt;Node0x268455b0 -->
<g id="edge2" class="edge"><title>Node0x1f524610&#45;&gt;Node0x268455b0</title>
<path fill="none" stroke="black" d="M1580.5,-2098.17C1580.5,-2088.6 1580.5,-2079.16 1580.5,-2070.85"/>
<polygon fill="black" stroke="black" points="1584,-2070.66 1580.5,-2060.66 1577,-2070.66 1584,-2070.66"/>
</g>
<!-- Node0x3565e2d0 -->
<g id="node4" class="node"><title>Node0x3565e2d0</title>
<polygon fill="none" stroke="black" points="1225,-1887.5 1225,-1970.5 1608,-1970.5 1608,-1887.5 1225,-1887.5"/>
<text text-anchor="start" x="1233" y="-1955.3" font-family="Times,serif" font-size="14.00">0xfb3e000:</text>
<text text-anchor="start" x="1233" y="-1940.3" font-family="Times,serif" font-size="14.00"> *(IntToPtrCastExpr&lt;ptr&gt;(((4 * v3) + g36))) = g35</text>
<text text-anchor="start" x="1233" y="-1925.3" font-family="Times,serif" font-size="14.00"> v4 = (g33 + 1)</text>
<text text-anchor="start" x="1233" y="-1910.3" font-family="Times,serif" font-size="14.00"> g33 = v4</text>
<text text-anchor="start" x="1233" y="-1895.3" font-family="Times,serif" font-size="14.00"> v5 = g37</text>
</g>
<!-- Node0x268455b0&#45;&gt;Node0x3565e2d0 -->
<g id="edge3" class="edge"><title>Node0x268455b0&#45;&gt;Node0x3565e2d0</title>
<path fill="none" stroke="black" d="M1553.42,-2022.25C1534.78,-2009.7 1509.14,-1992.42 1485.08,-1976.21"/>
<polygon fill="black" stroke="black" points="1486.9,-1973.22 1476.65,-1970.53 1482.99,-1979.02 1486.9,-1973.22"/>
<text text-anchor="middle" x="1562.5" y="-1992.8" font-family="Times,serif" font-size="14.00">v3 &lt;= g37</text>
</g>
<!-- Node0x268480b0 -->
<g id="node5" class="node"><title>Node0x268480b0</title>
<polygon fill="none" stroke="black" points="1573,-1570.5 1573,-1638.5 1710,-1638.5 1710,-1570.5 1573,-1570.5"/>
<text text-anchor="start" x="1581" y="-1623.3" font-family="Times,serif" font-size="14.00">0x1fed3400:</text>
<text text-anchor="start" x="1581" y="-1608.3" font-family="Times,serif" font-size="14.00"> v6 = g30</text>
<text text-anchor="start" x="1581" y="-1593.3" font-family="Times,serif" font-size="14.00"> g40 = (g36 + 4)</text>
<text text-anchor="start" x="1581" y="-1578.3" font-family="Times,serif" font-size="14.00"> v7 = (8 * v6)</text>
</g>
<!-- Node0x268455b0&#45;&gt;Node0x268480b0 -->
<g id="edge4" class="edge"><title>Node0x268455b0&#45;&gt;Node0x268480b0</title>
<path fill="none" stroke="black" d="M1609.61,-2022.39C1636.56,-2003.12 1672.5,-1969.94 1672.5,-1930 1672.5,-1930 1672.5,-1930 1672.5,-1717 1672.5,-1693.69 1666.13,-1668.61 1659.17,-1648.15"/>
<polygon fill="black" stroke="black" points="1662.39,-1646.75 1655.73,-1638.5 1655.79,-1649.1 1662.39,-1646.75"/>
<text text-anchor="middle" x="1705.5" y="-1826.8" font-family="Times,serif" font-size="14.00">v3 &gt; g37</text>
</g>
<!-- Node0x21d68f40 -->
<g id="node6" class="node"><title>Node0x21d68f40</title>
<polygon fill="none" stroke="black" points="1316.5,-1811.5 1316.5,-1849.5 1462.5,-1849.5 1462.5,-1811.5 1316.5,-1811.5"/>
<text text-anchor="start" x="1324.5" y="-1834.3" font-family="Times,serif" font-size="14.00">0x6bbca20:</text>
<text text-anchor="start" x="1324.5" y="-1819.3" font-family="Times,serif" font-size="14.00"> while (v4 &lt;= v5):</text>
</g>
<!-- Node0x3565e2d0&#45;&gt;Node0x21d68f40 -->
<g id="edge5" class="edge"><title>Node0x3565e2d0&#45;&gt;Node0x21d68f40</title>
<path fill="none" stroke="black" d="M1405.13,-1887.35C1402.48,-1877.88 1399.71,-1868 1397.26,-1859.23"/>
<polygon fill="black" stroke="black" points="1400.61,-1858.22 1394.55,-1849.54 1393.87,-1860.11 1400.61,-1858.22"/>
</g>
<!-- Node0x2bad3500 -->
<g id="node7" class="node"><title>Node0x2bad3500</title>
<polygon fill="none" stroke="black" points="1591,-1494.5 1591,-1532.5 1692,-1532.5 1692,-1494.5 1591,-1494.5"/>
<text text-anchor="start" x="1599" y="-1517.3" font-family="Times,serif" font-size="14.00">0x6be2d50:</text>
<text text-anchor="start" x="1599" y="-1502.3" font-family="Times,serif" font-size="14.00"> while True:</text>
</g>
<!-- Node0x268480b0&#45;&gt;Node0x2bad3500 -->
<g id="edge6" class="edge"><title>Node0x268480b0&#45;&gt;Node0x2bad3500</title>
<path fill="none" stroke="black" d="M1641.5,-1570.36C1641.5,-1561.36 1641.5,-1551.71 1641.5,-1542.99"/>
<polygon fill="black" stroke="black" points="1645,-1542.94 1641.5,-1532.94 1638,-1542.94 1645,-1542.94"/>
</g>
<!-- Node0x133c6f20 -->
<g id="node8" class="node"><title>Node0x133c6f20</title>
<polygon fill="none" stroke="black" points="1105,-1676.5 1105,-1759.5 1488,-1759.5 1488,-1676.5 1105,-1676.5"/>
<text text-anchor="start" x="1113" y="-1744.3" font-family="Times,serif" font-size="14.00">0x1ba3c770:</text>
<text text-anchor="start" x="1113" y="-1729.3" font-family="Times,serif" font-size="14.00"> *(IntToPtrCastExpr&lt;ptr&gt;(((4 * v4) + g36))) = g35</text>
<text text-anchor="start" x="1113" y="-1714.3" font-family="Times,serif" font-size="14.00"> v4 = (g33 + 1)</text>
<text text-anchor="start" x="1113" y="-1699.3" font-family="Times,serif" font-size="14.00"> g33 = v4</text>
<text text-anchor="start" x="1113" y="-1684.3" font-family="Times,serif" font-size="14.00"> v5 = g37</text>
</g>
<!-- Node0x21d68f40&#45;&gt;Node0x133c6f20 -->
<g id="edge7" class="edge"><title>Node0x21d68f40&#45;&gt;Node0x133c6f20</title>
<path fill="none" stroke="black" d="M1325.97,-1811.46C1317.68,-1806.67 1310.13,-1800.62 1304.5,-1793 1299.53,-1786.28 1296.56,-1778.23 1294.9,-1769.95"/>
<polygon fill="black" stroke="black" points="1298.33,-1769.23 1293.48,-1759.81 1291.4,-1770.2 1298.33,-1769.23"/>
<text text-anchor="middle" x="1338.5" y="-1781.8" font-family="Times,serif" font-size="14.00">v4 &lt;= v5</text>
</g>
<!-- Node0x1cdeced0 -->
<g id="node9" class="node"><title>Node0x1cdeced0</title>
<polygon fill="none" stroke="black" points="1506.5,-1699 1506.5,-1737 1644.5,-1737 1644.5,-1699 1506.5,-1699"/>
<text text-anchor="start" x="1514.5" y="-1721.8" font-family="Times,serif" font-size="14.00">0x6bbc7d0:</text>
<text text-anchor="start" x="1514.5" y="-1706.8" font-family="Times,serif" font-size="14.00"> g9 = (v4 == v5)</text>
</g>
<!-- Node0x21d68f40&#45;&gt;Node0x1cdeced0 -->
<g id="edge8" class="edge"><title>Node0x21d68f40&#45;&gt;Node0x1cdeced0</title>
<path fill="none" stroke="black" d="M1420.21,-1811.25C1451.94,-1792.4 1501.58,-1762.92 1536.16,-1742.37"/>
<polygon fill="black" stroke="black" points="1538.24,-1745.21 1545.05,-1737.09 1534.66,-1739.19 1538.24,-1745.21"/>
<text text-anchor="middle" x="1499.5" y="-1781.8" font-family="Times,serif" font-size="14.00">v4 &gt; v5</text>
</g>
<!-- Node0x3565ddd0 -->
<g id="node10" class="node"><title>Node0x3565ddd0</title>
<polygon fill="none" stroke="black" points="970,-1329.5 970,-1442.5 1097,-1442.5 1097,-1329.5 970,-1329.5"/>
<text text-anchor="start" x="978" y="-1427.3" font-family="Times,serif" font-size="14.00">0x1d734930:</text>
<text text-anchor="start" x="978" y="-1412.3" font-family="Times,serif" font-size="14.00"> v8 = (v6 &#45; 1)</text>
<text text-anchor="start" x="978" y="-1397.3" font-family="Times,serif" font-size="14.00"> g35 = v8</text>
<text text-anchor="start" x="978" y="-1382.3" font-family="Times,serif" font-size="14.00"> v9 = g29</text>
<text text-anchor="start" x="978" y="-1367.3" font-family="Times,serif" font-size="14.00"> g29 = (v9 + 1)</text>
<text text-anchor="start" x="978" y="-1352.3" font-family="Times,serif" font-size="14.00"> v10 = (v7 &#45; 8)</text>
<text text-anchor="start" x="978" y="-1337.3" font-family="Times,serif" font-size="14.00"> g30 = v10</text>
</g>
<!-- Node0x2bad3500&#45;&gt;Node0x3565ddd0 -->
<g id="edge9" class="edge"><title>Node0x2bad3500&#45;&gt;Node0x3565ddd0</title>
<path fill="none" stroke="black" d="M1590.97,-1502.07C1483.6,-1479.91 1232.34,-1428.04 1107.13,-1402.2"/>
<polygon fill="black" stroke="black" points="1107.74,-1398.75 1097.24,-1400.16 1106.33,-1405.61 1107.74,-1398.75"/>
<text text-anchor="middle" x="1479.5" y="-1464.8" font-family="Times,serif" font-size="14.00">True</text>
</g>
<!-- Node0x133c6f20&#45;&gt;Node0x21d68f40 -->
<g id="edge10" class="edge"><title>Node0x133c6f20&#45;&gt;Node0x21d68f40</title>
<path fill="none" stroke="black" d="M1356.33,-1759.58C1362.31,-1765.28 1367.88,-1771.45 1372.5,-1778 1377.39,-1784.92 1380.94,-1793.34 1383.49,-1801.35"/>
<polygon fill="black" stroke="black" points="1380.16,-1802.44 1386.21,-1811.13 1386.9,-1800.56 1380.16,-1802.44"/>
</g>
<!-- Node0x1cdeced0&#45;&gt;Node0x268480b0 -->
<g id="edge11" class="edge"><title>Node0x1cdeced0&#45;&gt;Node0x268480b0</title>
<path fill="none" stroke="black" d="M1586.4,-1698.59C1594.57,-1684.79 1606.08,-1665.34 1616.47,-1647.78"/>
<polygon fill="black" stroke="black" points="1619.7,-1649.21 1621.78,-1638.82 1613.67,-1645.64 1619.7,-1649.21"/>
</g>
<!-- Node0x37bf5c80 -->
<g id="node11" class="node"><title>Node0x37bf5c80</title>
<polygon fill="none" stroke="black" points="826.5,-1238.5 826.5,-1291.5 936.5,-1291.5 936.5,-1238.5 826.5,-1238.5"/>
<text text-anchor="start" x="834.5" y="-1276.3" font-family="Times,serif" font-size="14.00">0x6bd9430:</text>
<text text-anchor="start" x="834.5" y="-1261.3" font-family="Times,serif" font-size="14.00"> if (v6 == 0):</text>
<text text-anchor="start" x="834.5" y="-1246.3" font-family="Times,serif" font-size="14.00"> else:</text>
</g>
<!-- Node0x3565ddd0&#45;&gt;Node0x37bf5c80 -->
<g id="edge12" class="edge"><title>Node0x3565ddd0&#45;&gt;Node0x37bf5c80</title>
<path fill="none" stroke="black" d="M969.919,-1335.22C953.72,-1322.54 936.747,-1309.25 922.053,-1297.75"/>
<polygon fill="black" stroke="black" points="924.174,-1294.96 914.143,-1291.56 919.859,-1300.48 924.174,-1294.96"/>
</g>
<!-- Node0x46d4c960 -->
<g id="node12" class="node"><title>Node0x46d4c960</title>
<polygon fill="none" stroke="black" points="615,-1148.5 615,-1186.5 716,-1186.5 716,-1148.5 615,-1148.5"/>
<text text-anchor="start" x="623" y="-1171.3" font-family="Times,serif" font-size="14.00">0x6bd9310:</text>
<text text-anchor="start" x="623" y="-1156.3" font-family="Times,serif" font-size="14.00"> while True:</text>
</g>
<!-- Node0x37bf5c80&#45;&gt;Node0x46d4c960 -->
<g id="edge13" class="edge"><title>Node0x37bf5c80&#45;&gt;Node0x46d4c960</title>
<path fill="none" stroke="black" d="M826.435,-1239.65C792.421,-1224.62 749.099,-1205.46 715.973,-1190.82"/>
<polygon fill="black" stroke="black" points="717.042,-1187.46 706.48,-1186.62 714.211,-1193.86 717.042,-1187.46"/>
<text text-anchor="middle" x="810.5" y="-1208.8" font-family="Times,serif" font-size="14.00">v6 == 0</text>
</g>
<!-- Node0x3e8e6960 -->
<g id="node13" class="node"><title>Node0x3e8e6960</title>
<polygon fill="none" stroke="black" points="818.5,-1148.5 818.5,-1186.5 944.5,-1186.5 944.5,-1148.5 818.5,-1148.5"/>
<text text-anchor="start" x="826.5" y="-1171.3" font-family="Times,serif" font-size="14.00">0x36b9dad0:</text>
<text text-anchor="start" x="826.5" y="-1156.3" font-family="Times,serif" font-size="14.00"> v20 = (v6 + 2)</text>
</g>
<!-- Node0x37bf5c80&#45;&gt;Node0x3e8e6960 -->
<g id="edge14" class="edge"><title>Node0x37bf5c80&#45;&gt;Node0x3e8e6960</title>
<path fill="none" stroke="black" d="M881.5,-1238.41C881.5,-1225.63 881.5,-1210.13 881.5,-1196.98"/>
<polygon fill="black" stroke="black" points="885,-1196.6 881.5,-1186.6 878,-1196.6 885,-1196.6"/>
<text text-anchor="middle" x="908.5" y="-1208.8" font-family="Times,serif" font-size="14.00">v6 != 0</text>
</g>
<!-- Node0x2bad2000 -->
<g id="node14" class="node"><title>Node0x2bad2000</title>
<polygon fill="none" stroke="black" points="341.5,-923.5 341.5,-1096.5 637.5,-1096.5 637.5,-923.5 341.5,-923.5"/>
<text text-anchor="start" x="349.5" y="-1081.3" font-family="Times,serif" font-size="14.00">0x1d804e30:</text>
<text text-anchor="start" x="349.5" y="-1066.3" font-family="Times,serif" font-size="14.00"> v11 = g36</text>
<text text-anchor="start" x="349.5" y="-1051.3" font-family="Times,serif" font-size="14.00"> v12 = *(IntToPtrCastExpr&lt;ptr&gt;(v11))</text>
<text text-anchor="start" x="349.5" y="-1036.3" font-family="Times,serif" font-size="14.00"> g37 = v12</text>
<text text-anchor="start" x="349.5" y="-1021.3" font-family="Times,serif" font-size="14.00"> v13 = (v12 &#45; 1)</text>
<text text-anchor="start" x="349.5" y="-1006.3" font-family="Times,serif" font-size="14.00"> g6 = (v12 != 0)</text>
<text text-anchor="start" x="349.5" y="-991.3" font-family="Times,serif" font-size="14.00"> g8 = ((v12 &amp; &#45;(v12)) &lt; 0)</text>
<text text-anchor="start" x="349.5" y="-976.3" font-family="Times,serif" font-size="14.00"> g7 = (v13 &lt; 0)</text>
<text text-anchor="start" x="349.5" y="-961.3" font-family="Times,serif" font-size="14.00"> g9 = (v12 == 1)</text>
<text text-anchor="start" x="349.5" y="-946.3" font-family="Times,serif" font-size="14.00"> g30 = v13</text>
<text text-anchor="start" x="349.5" y="-931.3" font-family="Times,serif" font-size="14.00"> v14 = v12</text>
</g>
<!-- Node0x46d4c960&#45;&gt;Node0x2bad2000 -->
<g id="edge15" class="edge"><title>Node0x46d4c960&#45;&gt;Node0x2bad2000</title>
<path fill="none" stroke="black" d="M640.715,-1148.39C633.141,-1142.66 624.869,-1136.2 617.5,-1130 607.51,-1121.59 597.262,-1112.65 587.125,-1103.59"/>
<polygon fill="black" stroke="black" points="589.177,-1100.73 579.4,-1096.64 584.496,-1105.93 589.177,-1100.73"/>
<text text-anchor="middle" x="634.5" y="-1118.8" font-family="Times,serif" font-size="14.00">True</text>
</g>
<!-- Node0x3c8f93f0 -->
<g id="node15" class="node"><title>Node0x3c8f93f0</title>
<polygon fill="none" stroke="black" points="830.5,-991 830.5,-1029 932.5,-1029 932.5,-991 830.5,-991"/>
<text text-anchor="start" x="838.5" y="-1013.8" font-family="Times,serif" font-size="14.00">0x6bda5e0:</text>
<text text-anchor="start" x="838.5" y="-998.8" font-family="Times,serif" font-size="14.00"> if (v8 &gt; &#45;1):</text>
</g>
<!-- Node0x3e8e6960&#45;&gt;Node0x3c8f93f0 -->
<g id="edge16" class="edge"><title>Node0x3e8e6960&#45;&gt;Node0x3c8f93f0</title>
<path fill="none" stroke="black" d="M881.5,-1148.36C881.5,-1121.55 881.5,-1071.13 881.5,-1039.4"/>
<polygon fill="black" stroke="black" points="885,-1039.03 881.5,-1029.03 878,-1039.03 885,-1039.03"/>
</g>
<!-- Node0x1810cdc0 -->
<g id="node16" class="node"><title>Node0x1810cdc0</title>
<polygon fill="none" stroke="black" points="436,-833.5 436,-871.5 543,-871.5 543,-833.5 436,-833.5"/>
<text text-anchor="start" x="444" y="-856.3" font-family="Times,serif" font-size="14.00">0x6bd6f50:</text>
<text text-anchor="start" x="444" y="-841.3" font-family="Times,serif" font-size="14.00"> if (v12 &lt; 2):</text>
</g>
<!-- Node0x2bad2000&#45;&gt;Node0x1810cdc0 -->
<g id="edge17" class="edge"><title>Node0x2bad2000&#45;&gt;Node0x1810cdc0</title>
<path fill="none" stroke="black" d="M489.5,-923.063C489.5,-908.113 489.5,-893.571 489.5,-881.682"/>
<polygon fill="black" stroke="black" points="493,-881.573 489.5,-871.573 486,-881.573 493,-881.573"/>
</g>
<!-- Node0xc4e0f80 -->
<g id="node17" class="node"><title>Node0xc4e0f80</title>
<polygon fill="none" stroke="black" points="796,-833.5 796,-871.5 897,-871.5 897,-833.5 796,-833.5"/>
<text text-anchor="start" x="804" y="-856.3" font-family="Times,serif" font-size="14.00">0x6bda400:</text>
<text text-anchor="start" x="804" y="-841.3" font-family="Times,serif" font-size="14.00"> v20 = v8</text>
</g>
<!-- Node0x3c8f93f0&#45;&gt;Node0xc4e0f80 -->
<g id="edge18" class="edge"><title>Node0x3c8f93f0&#45;&gt;Node0xc4e0f80</title>
<path fill="none" stroke="black" d="M877.417,-990.858C871.357,-963.938 859.935,-913.191 852.799,-881.487"/>
<polygon fill="black" stroke="black" points="856.168,-880.514 850.557,-871.527 849.339,-882.051 856.168,-880.514"/>
<text text-anchor="middle" x="884.5" y="-893.8" font-family="Times,serif" font-size="14.00">v8 &gt; &#45;1</text>
</g>
<!-- Node0x31adbbe0 -->
<g id="node18" class="node"><title>Node0x31adbbe0</title>
<polygon fill="none" stroke="black" points="747,-638.5 747,-781.5 1104,-781.5 1104,-638.5 747,-638.5"/>
<text text-anchor="start" x="755" y="-766.3" font-family="Times,serif" font-size="14.00">0x36598d10:</text>
<text text-anchor="start" x="755" y="-751.3" font-family="Times,serif" font-size="14.00"> v21 = (v10 &amp; &#45;2147483617)</text>
<text text-anchor="start" x="755" y="-736.3" font-family="Times,serif" font-size="14.00"> v22 = (ExtCastExpr&lt;int32&gt;((v21 &lt; 0)) + v21)</text>
<text text-anchor="start" x="755" y="-721.3" font-family="Times,serif" font-size="14.00"> g33 = v22</text>
<text text-anchor="start" x="755" y="-706.3" font-family="Times,serif" font-size="14.00"> v23</text>
<text text-anchor="start" x="755" y="-691.3" font-family="Times,serif" font-size="14.00"> v24</text>
<text text-anchor="start" x="755" y="-676.3" font-family="Times,serif" font-size="14.00"> v25</text>
<text text-anchor="start" x="755" y="-661.3" font-family="Times,serif" font-size="14.00"> v26</text>
<text text-anchor="start" x="755" y="-646.3" font-family="Times,serif" font-size="14.00"> v27</text>
</g>
<!-- Node0x3c8f93f0&#45;&gt;Node0x31adbbe0 -->
<g id="edge19" class="edge"><title>Node0x3c8f93f0&#45;&gt;Node0x31adbbe0</title>
<path fill="none" stroke="black" d="M888.758,-990.943C896.624,-970.474 908.81,-935.926 914.5,-905 921.278,-868.16 924.246,-826.78 925.433,-791.729"/>
<polygon fill="black" stroke="black" points="928.937,-791.644 925.735,-781.545 921.94,-791.437 928.937,-791.644"/>
<text text-anchor="middle" x="955.5" y="-848.8" font-family="Times,serif" font-size="14.00">v8 &lt;= &#45;1</text>
</g>
<!-- Node0x35680170 -->
<g id="node19" class="node"><title>Node0x35680170</title>
<polygon fill="none" stroke="black" points="0,-638.5 0,-781.5 493,-781.5 493,-638.5 0,-638.5"/>
<text text-anchor="start" x="8" y="-766.3" font-family="Times,serif" font-size="14.00">0x4819eea0:</text>
<text text-anchor="start" x="8" y="-751.3" font-family="Times,serif" font-size="14.00"> v15 = g34</text>
<text text-anchor="start" x="8" y="-736.3" font-family="Times,serif" font-size="14.00"> g38 = *(IntToPtrCastExpr&lt;ptr&gt;(v15))</text>
<text text-anchor="start" x="8" y="-721.3" font-family="Times,serif" font-size="14.00"> g39 = *(IntToPtrCastExpr&lt;ptr&gt;((v15 + 4)))</text>
<text text-anchor="start" x="8" y="-706.3" font-family="Times,serif" font-size="14.00"> g40 = *(IntToPtrCastExpr&lt;ptr&gt;((v15 + 8)))</text>
<text text-anchor="start" x="8" y="-691.3" font-family="Times,serif" font-size="14.00"> g34 = (v15 + 16)</text>
<text text-anchor="start" x="8" y="-676.3" font-family="Times,serif" font-size="14.00"> IntToPtrCastExpr&lt;ptr&gt;(*(IntToPtrCastExpr&lt;ptr&gt;((v15 + 12))))()</text>
<text text-anchor="start" x="8" y="-661.3" font-family="Times,serif" font-size="14.00"> v14 = g37</text>
<text text-anchor="start" x="8" y="-646.3" font-family="Times,serif" font-size="14.00"> v11 = g36</text>
</g>
<!-- Node0x1810cdc0&#45;&gt;Node0x35680170 -->
<g id="edge20" class="edge"><title>Node0x1810cdc0&#45;&gt;Node0x35680170</title>
<path fill="none" stroke="black" d="M458.229,-833.42C437.113,-821.21 407.665,-804.184 377.434,-786.705"/>
<polygon fill="black" stroke="black" points="378.875,-783.495 368.466,-781.519 375.371,-789.555 378.875,-783.495"/>
<text text-anchor="middle" x="453" y="-803.8" font-family="Times,serif" font-size="14.00">v12 &lt; 2</text>
</g>
<!-- Node0x356599d0 -->
<g id="node20" class="node"><title>Node0x356599d0</title>
<polygon fill="none" stroke="black" points="230.5,-487.5 230.5,-600.5 620.5,-600.5 620.5,-487.5 230.5,-487.5"/>
<text text-anchor="start" x="238.5" y="-585.3" font-family="Times,serif" font-size="14.00">0x375b0510:</text>
<text text-anchor="start" x="238.5" y="-570.3" font-family="Times,serif" font-size="14.00"> v16 = *(IntToPtrCastExpr&lt;ptr&gt;(((4 * v14) + v11)))</text>
<text text-anchor="start" x="238.5" y="-555.3" font-family="Times,serif" font-size="14.00"> g37 = v16</text>
<text text-anchor="start" x="238.5" y="-540.3" font-family="Times,serif" font-size="14.00"> g6 = True</text>
<text text-anchor="start" x="238.5" y="-525.3" font-family="Times,serif" font-size="14.00"> g8 = False</text>
<text text-anchor="start" x="238.5" y="-510.3" font-family="Times,serif" font-size="14.00"> g7 = (v16 &lt; 0)</text>
<text text-anchor="start" x="238.5" y="-495.3" font-family="Times,serif" font-size="14.00"> g9 = (v16 == 0)</text>
</g>
<!-- Node0x1810cdc0&#45;&gt;Node0x356599d0 -->
<g id="edge21" class="edge"><title>Node0x1810cdc0&#45;&gt;Node0x356599d0</title>
<path fill="none" stroke="black" d="M495.115,-833.397C505.821,-795.729 526.005,-706.711 501.5,-638 497.907,-627.925 492.702,-618.154 486.676,-608.969"/>
<polygon fill="black" stroke="black" points="489.515,-606.921 480.934,-600.707 483.767,-610.916 489.515,-606.921"/>
<text text-anchor="middle" x="548" y="-706.3" font-family="Times,serif" font-size="14.00">v12 &gt;= 2</text>
</g>
<!-- Node0xc4e0f80&#45;&gt;Node0x31adbbe0 -->
<g id="edge22" class="edge"><title>Node0xc4e0f80&#45;&gt;Node0x31adbbe0</title>
<path fill="none" stroke="black" d="M856.666,-833.42C863.03,-822.101 871.722,-806.643 880.787,-790.522"/>
<polygon fill="black" stroke="black" points="883.998,-791.951 885.849,-781.519 877.897,-788.521 883.998,-791.951"/>
</g>
<!-- Node0x26845cb0 -->
<g id="node21" class="node"><title>Node0x26845cb0</title>
<polygon fill="none" stroke="black" points="872,-517.5 872,-570.5 979,-570.5 979,-517.5 872,-517.5"/>
<text text-anchor="start" x="880" y="-555.3" font-family="Times,serif" font-size="14.00">0x6bde950:</text>
<text text-anchor="start" x="880" y="-540.3" font-family="Times,serif" font-size="14.00"> if (v21 &lt; 0):</text>
<text text-anchor="start" x="880" y="-525.3" font-family="Times,serif" font-size="14.00"> else:</text>
</g>
<!-- Node0x31adbbe0&#45;&gt;Node0x26845cb0 -->
<g id="edge23" class="edge"><title>Node0x31adbbe0&#45;&gt;Node0x26845cb0</title>
<path fill="none" stroke="black" d="M925.5,-638.497C925.5,-618.511 925.5,-597.595 925.5,-580.626"/>
<polygon fill="black" stroke="black" points="929,-580.614 925.5,-570.614 922,-580.614 929,-580.614"/>
</g>
<!-- Node0x35680170&#45;&gt;Node0x356599d0 -->
<g id="edge24" class="edge"><title>Node0x35680170&#45;&gt;Node0x356599d0</title>
<path fill="none" stroke="black" d="M323.451,-638.497C334.691,-628.199 346.201,-617.654 357.252,-607.529"/>
<polygon fill="black" stroke="black" points="359.812,-609.93 364.821,-600.594 355.083,-604.769 359.812,-609.93"/>
</g>
<!-- Node0x102b7110 -->
<g id="node22" class="node"><title>Node0x102b7110</title>
<polygon fill="none" stroke="black" points="369,-345 369,-383 482,-383 482,-345 369,-345"/>
<text text-anchor="start" x="377" y="-367.8" font-family="Times,serif" font-size="14.00">0x6bd87d0:</text>
<text text-anchor="start" x="377" y="-352.8" font-family="Times,serif" font-size="14.00"> if (v16 != 0):</text>
</g>
<!-- Node0x356599d0&#45;&gt;Node0x102b7110 -->
<g id="edge25" class="edge"><title>Node0x356599d0&#45;&gt;Node0x102b7110</title>
<path fill="none" stroke="black" d="M425.5,-487.168C425.5,-456.083 425.5,-418.699 425.5,-393.541"/>
<polygon fill="black" stroke="black" points="429,-393.235 425.5,-383.235 422,-393.235 429,-393.235"/>
</g>
<!-- Node0x31aa52e0 -->
<g id="node23" class="node"><title>Node0x31aa52e0</title>
<polygon fill="none" stroke="black" points="693.5,-292.5 693.5,-435.5 1145.5,-435.5 1145.5,-292.5 693.5,-292.5"/>
<text text-anchor="start" x="701.5" y="-420.3" font-family="Times,serif" font-size="14.00">0xf766320:</text>
<text text-anchor="start" x="701.5" y="-405.3" font-family="Times,serif" font-size="14.00"> v28 = (v20 &amp; &#45;4)</text>
<text text-anchor="start" x="701.5" y="-390.3" font-family="Times,serif" font-size="14.00"> v29 = g40</text>
<text text-anchor="start" x="701.5" y="-375.3" font-family="Times,serif" font-size="14.00"> v24 = ((v22 | &#45;32) + 1)</text>
<text text-anchor="start" x="701.5" y="-360.3" font-family="Times,serif" font-size="14.00"> g33 = v24</text>
<text text-anchor="start" x="701.5" y="-345.3" font-family="Times,serif" font-size="14.00"> v26 = v28</text>
<text text-anchor="start" x="701.5" y="-330.3" font-family="Times,serif" font-size="14.00"> v25 = v29</text>
<text text-anchor="start" x="701.5" y="-315.3" font-family="Times,serif" font-size="14.00"> v27 = *(IntToPtrCastExpr&lt;ptr&gt;((v29 + v28)))</text>
<text text-anchor="start" x="701.5" y="-300.3" font-family="Times,serif" font-size="14.00"> v23 = ExtCastExpr&lt;int32&gt;(*(IntToPtrCastExpr&lt;ptr&gt;(v9)))</text>
</g>
<!-- Node0x26845cb0&#45;&gt;Node0x31aa52e0 -->
<g id="edge26" class="edge"><title>Node0x26845cb0&#45;&gt;Node0x31aa52e0</title>
<path fill="none" stroke="black" d="M924.64,-517.497C924.005,-498.657 923.103,-471.896 922.232,-446.039"/>
<polygon fill="black" stroke="black" points="925.722,-445.686 921.887,-435.81 918.726,-445.922 925.722,-445.686"/>
<text text-anchor="middle" x="952" y="-457.8" font-family="Times,serif" font-size="14.00">v21 &lt; 0</text>
</g>
<!-- Node0xcc8df00 -->
<g id="node24" class="node"><title>Node0xcc8df00</title>
<polygon fill="none" stroke="black" points="1163.5,-300 1163.5,-428 1615.5,-428 1615.5,-300 1163.5,-300"/>
<text text-anchor="start" x="1171.5" y="-412.8" font-family="Times,serif" font-size="14.00">0x12a586a0:</text>
<text text-anchor="start" x="1171.5" y="-397.8" font-family="Times,serif" font-size="14.00"> v30 = (v20 &amp; &#45;4)</text>
<text text-anchor="start" x="1171.5" y="-382.8" font-family="Times,serif" font-size="14.00"> v31 = g40</text>
<text text-anchor="start" x="1171.5" y="-367.8" font-family="Times,serif" font-size="14.00"> v26 = v30</text>
<text text-anchor="start" x="1171.5" y="-352.8" font-family="Times,serif" font-size="14.00"> v25 = v31</text>
<text text-anchor="start" x="1171.5" y="-337.8" font-family="Times,serif" font-size="14.00"> v27 = *(IntToPtrCastExpr&lt;ptr&gt;((v31 + v30)))</text>
<text text-anchor="start" x="1171.5" y="-322.8" font-family="Times,serif" font-size="14.00"> v24 = v22</text>
<text text-anchor="start" x="1171.5" y="-307.8" font-family="Times,serif" font-size="14.00"> v23 = ExtCastExpr&lt;int32&gt;(*(IntToPtrCastExpr&lt;ptr&gt;(v9)))</text>
</g>
<!-- Node0x26845cb0&#45;&gt;Node0xcc8df00 -->
<g id="edge27" class="edge"><title>Node0x26845cb0&#45;&gt;Node0xcc8df00</title>
<path fill="none" stroke="black" d="M979.18,-522.407C1036.95,-500.245 1131.87,-463.833 1215.87,-431.609"/>
<polygon fill="black" stroke="black" points="1217.18,-434.853 1225.27,-428.003 1214.68,-428.317 1217.18,-434.853"/>
<text text-anchor="middle" x="1192" y="-457.8" font-family="Times,serif" font-size="14.00">v21 &gt;= 0</text>
</g>
<!-- Node0x243e7d10 -->
<g id="node25" class="node"><title>Node0x243e7d10</title>
<polygon fill="none" stroke="black" points="256.5,-97.5 256.5,-240.5 498.5,-240.5 498.5,-97.5 256.5,-97.5"/>
<text text-anchor="start" x="264.5" y="-225.3" font-family="Times,serif" font-size="14.00">0x6bd8330:</text>
<text text-anchor="start" x="264.5" y="-210.3" font-family="Times,serif" font-size="14.00"> g38 = v1</text>
<text text-anchor="start" x="264.5" y="-195.3" font-family="Times,serif" font-size="14.00"> v17</text>
<text text-anchor="start" x="264.5" y="-180.3" font-family="Times,serif" font-size="14.00"> g39 = v17</text>
<text text-anchor="start" x="264.5" y="-165.3" font-family="Times,serif" font-size="14.00"> v18</text>
<text text-anchor="start" x="264.5" y="-150.3" font-family="Times,serif" font-size="14.00"> g40 = v18</text>
<text text-anchor="start" x="264.5" y="-135.3" font-family="Times,serif" font-size="14.00"> v19</text>
<text text-anchor="start" x="264.5" y="-120.3" font-family="Times,serif" font-size="14.00"> IntToPtrCastExpr&lt;ptr&gt;(v19)()</text>
<text text-anchor="start" x="264.5" y="-105.3" font-family="Times,serif" font-size="14.00"> return</text>
</g>
<!-- Node0x102b7110&#45;&gt;Node0x243e7d10 -->
<g id="edge28" class="edge"><title>Node0x102b7110&#45;&gt;Node0x243e7d10</title>
<path fill="none" stroke="black" d="M420.984,-344.843C415.587,-323.142 406.194,-285.375 397.516,-250.482"/>
<polygon fill="black" stroke="black" points="400.902,-249.592 395.092,-240.733 394.109,-251.282 400.902,-249.592"/>
<text text-anchor="middle" x="435" y="-262.8" font-family="Times,serif" font-size="14.00">v16 != 0</text>
</g>
<!-- Node0x365e3cf0 -->
<g id="node26" class="node"><title>Node0x365e3cf0</title>
<polygon fill="none" stroke="black" points="517,-150 517,-188 814,-188 814,-150 517,-150"/>
<text text-anchor="start" x="525" y="-172.8" font-family="Times,serif" font-size="14.00">0x6bd8d00:</text>
<text text-anchor="start" x="525" y="-157.8" font-family="Times,serif" font-size="14.00"> *(IntToPtrCastExpr&lt;ptr&gt;(v11)) = g30</text>
</g>
<!-- Node0x102b7110&#45;&gt;Node0x365e3cf0 -->
<g id="edge29" class="edge"><title>Node0x102b7110&#45;&gt;Node0x365e3cf0</title>
<path fill="none" stroke="black" d="M448.079,-344.843C491.319,-310.07 585.858,-234.045 634.791,-194.695"/>
<polygon fill="black" stroke="black" points="637.207,-197.244 642.807,-188.249 632.82,-191.789 637.207,-197.244"/>
<text text-anchor="middle" x="588" y="-262.8" font-family="Times,serif" font-size="14.00">v16 == 0</text>
</g>
<!-- Node0x26846bb0 -->
<g id="node27" class="node"><title>Node0x26846bb0</title>
<polygon fill="none" stroke="black" points="1145.5,-112.5 1145.5,-225.5 1633.5,-225.5 1633.5,-112.5 1145.5,-112.5"/>
<text text-anchor="start" x="1153.5" y="-210.3" font-family="Times,serif" font-size="14.00">0x3c3ef540:</text>
<text text-anchor="start" x="1153.5" y="-195.3" font-family="Times,serif" font-size="14.00"> v32 = (v24 % 256)</text>
<text text-anchor="start" x="1153.5" y="-180.3" font-family="Times,serif" font-size="14.00"> v33 = (v23 if (v32 == 0) else ((v23 &lt;&lt; v32) if (v32 &lt; 32) else 0))</text>
<text text-anchor="start" x="1153.5" y="-165.3" font-family="Times,serif" font-size="14.00"> *(IntToPtrCastExpr&lt;ptr&gt;((v25 + v26))) = (v33 | v27)</text>
<text text-anchor="start" x="1153.5" y="-150.3" font-family="Times,serif" font-size="14.00"> v7 = g30</text>
<text text-anchor="start" x="1153.5" y="-135.3" font-family="Times,serif" font-size="14.00"> v6 = g35</text>
<text text-anchor="start" x="1153.5" y="-120.3" font-family="Times,serif" font-size="14.00"> continue</text>
</g>
<!-- Node0x31aa52e0&#45;&gt;Node0x26846bb0 -->
<g id="edge30" class="edge"><title>Node0x31aa52e0&#45;&gt;Node0x26846bb0</title>
<path fill="none" stroke="black" d="M1091.51,-292.367C1141.86,-271.689 1196.39,-249.3 1244.86,-229.395"/>
<polygon fill="black" stroke="black" points="1246.23,-232.615 1254.15,-225.579 1243.57,-226.14 1246.23,-232.615"/>
</g>
<!-- Node0xcc8df00&#45;&gt;Node0x26846bb0 -->
<g id="edge31" class="edge"><title>Node0xcc8df00&#45;&gt;Node0x26846bb0</title>
<path fill="none" stroke="black" d="M1389.5,-299.805C1389.5,-279.209 1389.5,-256.306 1389.5,-235.542"/>
<polygon fill="black" stroke="black" points="1393,-235.54 1389.5,-225.54 1386,-235.54 1393,-235.54"/>
</g>
<!-- Node0x2b0ead00 -->
<g id="node28" class="node"><title>Node0x2b0ead00</title>
<polygon fill="none" stroke="black" points="350.5,-23.5 350.5,-59.5 404.5,-59.5 404.5,-23.5 350.5,-23.5"/>
<text text-anchor="start" x="358.5" y="-37.8" font-family="Times,serif" font-size="14.00">exit:</text>
</g>
<!-- Node0x243e7d10&#45;&gt;Node0x2b0ead00 -->
<g id="edge32" class="edge"><title>Node0x243e7d10&#45;&gt;Node0x2b0ead00</title>
<path fill="none" stroke="black" d="M377.5,-97.181C377.5,-87.439 377.5,-77.9608 377.5,-69.7068"/>
<polygon fill="black" stroke="black" points="381,-69.642 377.5,-59.642 374,-69.6421 381,-69.642"/>
</g>
<!-- Node0x365e3cf0&#45;&gt;Node0x46d4c960 -->
<g id="edge33" class="edge"><title>Node0x365e3cf0&#45;&gt;Node0x46d4c960</title>
<path fill="none" stroke="black" d="M665.5,-188.094C665.5,-222.271 665.5,-298.667 665.5,-363 665.5,-1011 665.5,-1011 665.5,-1011 665.5,-1055.43 665.5,-1107.01 665.5,-1138.18"/>
<polygon fill="black" stroke="black" points="662,-1138.31 665.5,-1148.31 669,-1138.31 662,-1138.31"/>
</g>
<!-- Node0x26846bb0&#45;&gt;Node0x2bad3500 -->
<g id="edge34" class="edge"><title>Node0x26846bb0&#45;&gt;Node0x2bad3500</title>
<path fill="none" stroke="black" d="M1541.91,-225.56C1572.83,-242.801 1602.55,-264.673 1624.5,-292 1644.96,-317.467 1643.5,-330.334 1643.5,-363 1643.5,-1387 1643.5,-1387 1643.5,-1387 1643.5,-1420.37 1642.78,-1458.72 1642.21,-1484.15"/>
<polygon fill="black" stroke="black" points="1638.71,-1484.13 1641.97,-1494.21 1645.71,-1484.3 1638.71,-1484.13"/>
</g>
</g>
</svg>
