<?xml version="1.0" encoding="UTF-8" standalone="no"?>
<!DOCTYPE svg PUBLIC "-//W3C//DTD SVG 1.1//EN"
 "http://www.w3.org/Graphics/SVG/1.1/DTD/svg11.dtd">
<!-- Generated by graphviz version 2.38.0 (20140413.2041)
 -->
<!-- Title: Control&#45;flow graph for function &#39;function_23a0a()&#39;. Pages: 1 -->
<svg width="650pt" height="955pt"
 viewBox="0.00 0.00 649.50 955.00" xmlns="http://www.w3.org/2000/svg" xmlns:xlink="http://www.w3.org/1999/xlink">
<g id="graph0" class="graph" transform="scale(1 1) rotate(0) translate(4 951)">
<title>Control&#45;flow graph for function &#39;function_23a0a()&#39;.</title>
<polygon fill="white" stroke="none" points="-4,4 -4,-951 645.5,-951 645.5,4 -4,4"/>
<text text-anchor="middle" x="320.75" y="-7.8" font-family="Times,serif" font-size="14.00">Control&#45;flow graph for function &#39;function_23a0a()&#39;.</text>
<!-- Node0x31f30d50 -->
<g id="node1" class="node"><title>Node0x31f30d50</title>
<polygon fill="none" stroke="black" points="216,-910.5 216,-946.5 275,-946.5 275,-910.5 216,-910.5"/>
<text text-anchor="start" x="224" y="-924.8" font-family="Times,serif" font-size="14.00">entry:</text>
</g>
<!-- Node0x19b24f60 -->
<g id="node2" class="node"><title>Node0x19b24f60</title>
<polygon fill="none" stroke="black" points="-2.84217e-14,-714.5 -2.84217e-14,-872.5 491,-872.5 491,-714.5 -2.84217e-14,-714.5"/>
<text text-anchor="start" x="8" y="-857.3" font-family="Times,serif" font-size="14.00">0x36d624d0:</text>
<text text-anchor="start" x="8" y="-842.3" font-family="Times,serif" font-size="14.00"> v1 = *(IntToPtrCastExpr&lt;ptr&gt;((g42 + 236)))</text>
<text text-anchor="start" x="8" y="-827.3" font-family="Times,serif" font-size="14.00"> v2 = g40</text>
<text text-anchor="start" x="8" y="-812.3" font-family="Times,serif" font-size="14.00"> v3 = g29</text>
<text text-anchor="start" x="8" y="-797.3" font-family="Times,serif" font-size="14.00"> v4 = (v2 &gt;&gt; (32 if ((v3 % 32) == 0) else v3))</text>
<text text-anchor="start" x="8" y="-782.3" font-family="Times,serif" font-size="14.00"> v5 = ExtCastExpr&lt;int32&gt;(*(IntToPtrCastExpr&lt;ptr&gt;((v4 + v1))))</text>
<text text-anchor="start" x="8" y="-767.3" font-family="Times,serif" font-size="14.00"> v6 = g30</text>
<text text-anchor="start" x="8" y="-752.3" font-family="Times,serif" font-size="14.00"> v7 = (v6 &#45; v5)</text>
<text text-anchor="start" x="8" y="-737.3" font-family="Times,serif" font-size="14.00"> v8</text>
<text text-anchor="start" x="8" y="-722.3" font-family="Times,serif" font-size="14.00"> v9</text>
</g>
<!-- Node0x31f30d50&#45;&gt;Node0x19b24f60 -->
<g id="edge1" class="edge"><title>Node0x31f30d50&#45;&gt;Node0x19b24f60</title>
<path fill="none" stroke="black" d="M245.5,-910.385C245.5,-902.782 245.5,-893.206 245.5,-882.833"/>
<polygon fill="black" stroke="black" points="249,-882.682 245.5,-872.682 242,-882.682 249,-882.682"/>
</g>
<!-- Node0x19b27260 -->
<g id="node3" class="node"><title>Node0x19b27260</title>
<polygon fill="none" stroke="black" points="186.5,-623.5 186.5,-676.5 304.5,-676.5 304.5,-623.5 186.5,-623.5"/>
<text text-anchor="start" x="194.5" y="-661.3" font-family="Times,serif" font-size="14.00">0xa3e9d30:</text>
<text text-anchor="start" x="194.5" y="-646.3" font-family="Times,serif" font-size="14.00"> if (v6 == v5):</text>
<text text-anchor="start" x="194.5" y="-631.3" font-family="Times,serif" font-size="14.00"> else:</text>
</g>
<!-- Node0x19b24f60&#45;&gt;Node0x19b27260 -->
<g id="edge2" class="edge"><title>Node0x19b24f60&#45;&gt;Node0x19b27260</title>
<path fill="none" stroke="black" d="M245.5,-714.3C245.5,-704.773 245.5,-695.428 245.5,-686.966"/>
<polygon fill="black" stroke="black" points="249,-686.773 245.5,-676.773 242,-686.773 249,-686.773"/>
</g>
<!-- Node0x1b5f6530 -->
<g id="node4" class="node"><title>Node0x1b5f6530</title>
<polygon fill="none" stroke="black" points="41.5,-481 41.5,-534 141.5,-534 141.5,-481 41.5,-481"/>
<text text-anchor="start" x="49.5" y="-518.8" font-family="Times,serif" font-size="14.00">0xa3e9820:</text>
<text text-anchor="start" x="49.5" y="-503.8" font-family="Times,serif" font-size="14.00"> v9 = g41</text>
<text text-anchor="start" x="49.5" y="-488.8" font-family="Times,serif" font-size="14.00"> v8 = v2</text>
</g>
<!-- Node0x19b27260&#45;&gt;Node0x1b5f6530 -->
<g id="edge3" class="edge"><title>Node0x19b27260&#45;&gt;Node0x1b5f6530</title>
<path fill="none" stroke="black" d="M211.561,-623.382C192.992,-608.904 169.888,-590.121 150.5,-572 140.337,-562.502 129.821,-551.583 120.532,-541.509"/>
<polygon fill="black" stroke="black" points="123.017,-539.04 113.694,-534.007 117.844,-543.756 123.017,-539.04"/>
<text text-anchor="middle" x="223.5" y="-593.8" font-family="Times,serif" font-size="14.00">v6 == v5</text>
</g>
<!-- Node0x1b5f66d0 -->
<g id="node5" class="node"><title>Node0x1b5f66d0</title>
<polygon fill="none" stroke="black" points="159.5,-443.5 159.5,-571.5 641.5,-571.5 641.5,-443.5 159.5,-443.5"/>
<text text-anchor="start" x="167.5" y="-556.3" font-family="Times,serif" font-size="14.00">0x2cc47600:</text>
<text text-anchor="start" x="167.5" y="-541.3" font-family="Times,serif" font-size="14.00"> v10 = g43</text>
<text text-anchor="start" x="167.5" y="-526.3" font-family="Times,serif" font-size="14.00"> v11 = (32 &#45; v7)</text>
<text text-anchor="start" x="167.5" y="-511.3" font-family="Times,serif" font-size="14.00"> v12 = (v2 &lt;&lt; v7)</text>
<text text-anchor="start" x="167.5" y="-496.3" font-family="Times,serif" font-size="14.00"> g40 = v12</text>
<text text-anchor="start" x="167.5" y="-481.3" font-family="Times,serif" font-size="14.00"> g43 = (v10 &lt;&lt; v7)</text>
<text text-anchor="start" x="167.5" y="-466.3" font-family="Times,serif" font-size="14.00"> v9 = ((v10 &gt;&gt; (32 if ((v11 % 32) == 0) else v11)) | (g41 &lt;&lt; v7))</text>
<text text-anchor="start" x="167.5" y="-451.3" font-family="Times,serif" font-size="14.00"> v8 = v12</text>
</g>
<!-- Node0x19b27260&#45;&gt;Node0x1b5f66d0 -->
<g id="edge4" class="edge"><title>Node0x19b27260&#45;&gt;Node0x1b5f66d0</title>
<path fill="none" stroke="black" d="M273.929,-623.23C287.924,-610.545 305.545,-594.572 323.155,-578.61"/>
<polygon fill="black" stroke="black" points="325.632,-581.088 330.691,-571.779 320.931,-575.902 325.632,-581.088"/>
<text text-anchor="middle" x="339.5" y="-593.8" font-family="Times,serif" font-size="14.00">v6 != v5</text>
</g>
<!-- Node0x2d4bf130 -->
<g id="node6" class="node"><title>Node0x2d4bf130</title>
<polygon fill="none" stroke="black" points="143,-97.5 143,-405.5 420,-405.5 420,-97.5 143,-97.5"/>
<text text-anchor="start" x="151" y="-390.3" font-family="Times,serif" font-size="14.00">0x451bdf20:</text>
<text text-anchor="start" x="151" y="-375.3" font-family="Times,serif" font-size="14.00"> v13 = (v8 / 65536)</text>
<text text-anchor="start" x="151" y="-360.3" font-family="Times,serif" font-size="14.00"> g36 = v13</text>
<text text-anchor="start" x="151" y="-345.3" font-family="Times,serif" font-size="14.00"> v14 = (v8 % 65536)</text>
<text text-anchor="start" x="151" y="-330.3" font-family="Times,serif" font-size="14.00"> g32 = v14</text>
<text text-anchor="start" x="151" y="-315.3" font-family="Times,serif" font-size="14.00"> g42 = v13</text>
<text text-anchor="start" x="151" y="-300.3" font-family="Times,serif" font-size="14.00"> v15 = (v9 / v13)</text>
<text text-anchor="start" x="151" y="-285.3" font-family="Times,serif" font-size="14.00"> g30 = v13</text>
<text text-anchor="start" x="151" y="-270.3" font-family="Times,serif" font-size="14.00"> g31 = v15</text>
<text text-anchor="start" x="151" y="-255.3" font-family="Times,serif" font-size="14.00"> g38 = (v15 * v14)</text>
<text text-anchor="start" x="151" y="-240.3" font-family="Times,serif" font-size="14.00"> g29 = v9</text>
<text text-anchor="start" x="151" y="-225.3" font-family="Times,serif" font-size="14.00"> unknown_228ca()</text>
<text text-anchor="start" x="151" y="-210.3" font-family="Times,serif" font-size="14.00"> v16 = g43</text>
<text text-anchor="start" x="151" y="-195.3" font-family="Times,serif" font-size="14.00"> g39 = v16</text>
<text text-anchor="start" x="151" y="-180.3" font-family="Times,serif" font-size="14.00"> v17 = (v16 / 65536)</text>
<text text-anchor="start" x="151" y="-165.3" font-family="Times,serif" font-size="14.00"> g37 = v17</text>
<text text-anchor="start" x="151" y="-150.3" font-family="Times,serif" font-size="14.00"> g41 = &#45;1</text>
<text text-anchor="start" x="151" y="-135.3" font-family="Times,serif" font-size="14.00"> g30 = (g40 + ((65536 * g30) | v17))</text>
<text text-anchor="start" x="151" y="-120.3" font-family="Times,serif" font-size="14.00"> g31 = (g31 &#45; 1)</text>
<text text-anchor="start" x="151" y="-105.3" font-family="Times,serif" font-size="14.00"> function_23e02()</text>
</g>
<!-- Node0x1b5f6530&#45;&gt;Node0x2d4bf130 -->
<g id="edge5" class="edge"><title>Node0x1b5f6530&#45;&gt;Node0x2d4bf130</title>
<path fill="none" stroke="black" d="M110.764,-480.747C123.503,-463.717 141.398,-439.794 160.844,-413.798"/>
<polygon fill="black" stroke="black" points="163.737,-415.773 166.925,-405.669 158.132,-411.58 163.737,-415.773"/>
</g>
<!-- Node0x1b5f66d0&#45;&gt;Node0x2d4bf130 -->
<g id="edge6" class="edge"><title>Node0x1b5f66d0&#45;&gt;Node0x2d4bf130</title>
<path fill="none" stroke="black" d="M370.931,-443.387C366.715,-434.388 362.228,-424.81 357.595,-414.921"/>
<polygon fill="black" stroke="black" points="360.714,-413.33 353.302,-405.759 354.376,-416.299 360.714,-413.33"/>
</g>
<!-- Node0x19b29260 -->
<g id="node7" class="node"><title>Node0x19b29260</title>
<polygon fill="none" stroke="black" points="254.5,-23.5 254.5,-59.5 308.5,-59.5 308.5,-23.5 254.5,-23.5"/>
<text text-anchor="start" x="262.5" y="-37.8" font-family="Times,serif" font-size="14.00">exit:</text>
</g>
<!-- Node0x2d4bf130&#45;&gt;Node0x19b29260 -->
<g id="edge7" class="edge"><title>Node0x2d4bf130&#45;&gt;Node0x19b29260</title>
<path fill="none" stroke="black" d="M281.5,-97.4216C281.5,-87.1629 281.5,-77.7308 281.5,-69.685"/>
<polygon fill="black" stroke="black" points="285,-69.6251 281.5,-59.6251 278,-69.6251 285,-69.6251"/>
</g>
</g>
</svg>
