<?xml version="1.0" encoding="UTF-8" standalone="no"?>
<!DOCTYPE svg PUBLIC "-//W3C//DTD SVG 1.1//EN"
 "http://www.w3.org/Graphics/SVG/1.1/DTD/svg11.dtd">
<!-- Generated by graphviz version 2.38.0 (20140413.2041)
 -->
<!-- Title: Control&#45;flow graph for function &#39;function_fab0()&#39;. Pages: 1 -->
<svg width="520pt" height="366pt"
 viewBox="0.00 0.00 520.00 366.00" xmlns="http://www.w3.org/2000/svg" xmlns:xlink="http://www.w3.org/1999/xlink">
<g id="graph0" class="graph" transform="scale(1 1) rotate(0) translate(4 362)">
<title>Control&#45;flow graph for function &#39;function_fab0()&#39;.</title>
<polygon fill="white" stroke="none" points="-4,4 -4,-362 516,-362 516,4 -4,4"/>
<text text-anchor="middle" x="256" y="-7.8" font-family="Times,serif" font-size="14.00">Control&#45;flow graph for function &#39;function_fab0()&#39;.</text>
<!-- Node0x33647f00 -->
<g id="node1" class="node"><title>Node0x33647f00</title>
<polygon fill="none" stroke="black" points="226.5,-321.5 226.5,-357.5 285.5,-357.5 285.5,-321.5 226.5,-321.5"/>
<text text-anchor="start" x="234.5" y="-335.8" font-family="Times,serif" font-size="14.00">entry:</text>
</g>
<!-- Node0x3364aaa0 -->
<g id="node2" class="node"><title>Node0x3364aaa0</title>
<polygon fill="none" stroke="black" points="0,-96.5 0,-284.5 512,-284.5 512,-96.5 0,-96.5"/>
<text text-anchor="start" x="8" y="-269.3" font-family="Times,serif" font-size="14.00">0x3c18c910:</text>
<text text-anchor="start" x="8" y="-254.3" font-family="Times,serif" font-size="14.00"> v1</text>
<text text-anchor="start" x="8" y="-239.3" font-family="Times,serif" font-size="14.00"> g32 = v1</text>
<text text-anchor="start" x="8" y="-224.3" font-family="Times,serif" font-size="14.00"> v2</text>
<text text-anchor="start" x="8" y="-209.3" font-family="Times,serif" font-size="14.00"> g34 = v2</text>
<text text-anchor="start" x="8" y="-194.3" font-family="Times,serif" font-size="14.00"> v3</text>
<text text-anchor="start" x="8" y="-179.3" font-family="Times,serif" font-size="14.00"> IntToPtrCastExpr&lt;ptr&gt;(v3)()</text>
<text text-anchor="start" x="8" y="-164.3" font-family="Times,serif" font-size="14.00"> g29 = ExtCastExpr&lt;int32&gt;(*(IntToPtrCastExpr&lt;ptr&gt;((g29 + 22))))</text>
<text text-anchor="start" x="8" y="-149.3" font-family="Times,serif" font-size="14.00"> v4 = g34</text>
<text text-anchor="start" x="8" y="-134.3" font-family="Times,serif" font-size="14.00"> g32 = *(IntToPtrCastExpr&lt;ptr&gt;(v4))</text>
<text text-anchor="start" x="8" y="-119.3" font-family="Times,serif" font-size="14.00"> g34 = *(IntToPtrCastExpr&lt;ptr&gt;((v4 + 4)))</text>
<text text-anchor="start" x="8" y="-104.3" font-family="Times,serif" font-size="14.00"> IntToPtrCastExpr&lt;ptr&gt;(*(IntToPtrCastExpr&lt;ptr&gt;((v4 + 8))))()</text>
</g>
<!-- Node0x33647f00&#45;&gt;Node0x3364aaa0 -->
<g id="edge1" class="edge"><title>Node0x33647f00&#45;&gt;Node0x3364aaa0</title>
<path fill="none" stroke="black" d="M256,-321.35C256,-314.079 256,-304.97 256,-294.967"/>
<polygon fill="black" stroke="black" points="259.5,-294.701 256,-284.702 252.5,-294.702 259.5,-294.701"/>
</g>
<!-- Node0x33646230 -->
<g id="node3" class="node"><title>Node0x33646230</title>
<polygon fill="none" stroke="black" points="229,-23.5 229,-59.5 283,-59.5 283,-23.5 229,-23.5"/>
<text text-anchor="start" x="237" y="-37.8" font-family="Times,serif" font-size="14.00">exit:</text>
</g>
<!-- Node0x3364aaa0&#45;&gt;Node0x33646230 -->
<g id="edge2" class="edge"><title>Node0x3364aaa0&#45;&gt;Node0x33646230</title>
<path fill="none" stroke="black" d="M256,-96.4027C256,-86.9531 256,-77.9697 256,-70.142"/>
<polygon fill="black" stroke="black" points="259.5,-69.9174 256,-59.9174 252.5,-69.9174 259.5,-69.9174"/>
</g>
</g>
</svg>
