<?xml version="1.0" encoding="UTF-8" standalone="no"?>
<!DOCTYPE svg PUBLIC "-//W3C//DTD SVG 1.1//EN"
 "http://www.w3.org/Graphics/SVG/1.1/DTD/svg11.dtd">
<!-- Generated by graphviz version 2.38.0 (20140413.2041)
 -->
<!-- Title: Control&#45;flow graph for function &#39;function_10330()&#39;. Pages: 1 -->
<svg width="1055pt" height="3459pt"
 viewBox="0.00 0.00 1054.50 3459.00" xmlns="http://www.w3.org/2000/svg" xmlns:xlink="http://www.w3.org/1999/xlink">
<g id="graph0" class="graph" transform="scale(1 1) rotate(0) translate(4 3455)">
<title>Control&#45;flow graph for function &#39;function_10330()&#39;.</title>
<polygon fill="white" stroke="none" points="-4,4 -4,-3455 1050.5,-3455 1050.5,4 -4,4"/>
<text text-anchor="middle" x="523.25" y="-7.8" font-family="Times,serif" font-size="14.00">Control&#45;flow graph for function &#39;function_10330()&#39;.</text>
<!-- Node0x294d0950 -->
<g id="node1" class="node"><title>Node0x294d0950</title>
<polygon fill="none" stroke="black" points="567,-3414.5 567,-3450.5 626,-3450.5 626,-3414.5 567,-3414.5"/>
<text text-anchor="start" x="575" y="-3428.8" font-family="Times,serif" font-size="14.00">entry:</text>
</g>
<!-- Node0x294ce8b0 -->
<g id="node2" class="node"><title>Node0x294ce8b0</title>
<polygon fill="none" stroke="black" points="372,-2978.5 372,-3376.5 821,-3376.5 821,-2978.5 372,-2978.5"/>
<text text-anchor="start" x="380" y="-3361.3" font-family="Times,serif" font-size="14.00">0x46b0f5a0:</text>
<text text-anchor="start" x="380" y="-3346.3" font-family="Times,serif" font-size="14.00"> v1 = g38</text>
<text text-anchor="start" x="380" y="-3331.3" font-family="Times,serif" font-size="14.00"> v2 = g39</text>
<text text-anchor="start" x="380" y="-3316.3" font-family="Times,serif" font-size="14.00"> v3 = g40</text>
<text text-anchor="start" x="380" y="-3301.3" font-family="Times,serif" font-size="14.00"> v4 = g30</text>
<text text-anchor="start" x="380" y="-3286.3" font-family="Times,serif" font-size="14.00"> g39 = v4</text>
<text text-anchor="start" x="380" y="-3271.3" font-family="Times,serif" font-size="14.00"> g38 = 165012</text>
<text text-anchor="start" x="380" y="-3256.3" font-family="Times,serif" font-size="14.00"> g40 = g29</text>
<text text-anchor="start" x="380" y="-3241.3" font-family="Times,serif" font-size="14.00"> g30 = 156308</text>
<text text-anchor="start" x="380" y="-3226.3" font-family="Times,serif" font-size="14.00"> g29 = v4</text>
<text text-anchor="start" x="380" y="-3211.3" font-family="Times,serif" font-size="14.00"> g36 = 19</text>
<text text-anchor="start" x="380" y="-3196.3" font-family="Times,serif" font-size="14.00"> function_130c4()</text>
<text text-anchor="start" x="380" y="-3181.3" font-family="Times,serif" font-size="14.00"> v5 = g29</text>
<text text-anchor="start" x="380" y="-3166.3" font-family="Times,serif" font-size="14.00"> g9 = (v5 == 0)</text>
<text text-anchor="start" x="380" y="-3151.3" font-family="Times,serif" font-size="14.00"> g39 = v2</text>
<text text-anchor="start" x="380" y="-3136.3" font-family="Times,serif" font-size="14.00"> g40 = v3</text>
<text text-anchor="start" x="380" y="-3121.3" font-family="Times,serif" font-size="14.00"> v6</text>
<text text-anchor="start" x="380" y="-3106.3" font-family="Times,serif" font-size="14.00"> g34 = v6</text>
<text text-anchor="start" x="380" y="-3091.3" font-family="Times,serif" font-size="14.00"> IntToPtrCastExpr&lt;ptr&gt;(ExtCastExpr&lt;int32&gt;((v5 == 0)))()</text>
<text text-anchor="start" x="380" y="-3076.3" font-family="Times,serif" font-size="14.00"> memcpy(IntToPtrCastExpr&lt;ptr&gt;((g39 + 6)), &amp;(v1), 7)</text>
<text text-anchor="start" x="380" y="-3061.3" font-family="Times,serif" font-size="14.00"> v7 = (g39 + 13)</text>
<text text-anchor="start" x="380" y="-3046.3" font-family="Times,serif" font-size="14.00"> g30 = v7</text>
<text text-anchor="start" x="380" y="-3031.3" font-family="Times,serif" font-size="14.00"> g37 = 58</text>
<text text-anchor="start" x="380" y="-3016.3" font-family="Times,serif" font-size="14.00"> v8 = *(IntToPtrCastExpr&lt;ptr&gt;(v7))</text>
<text text-anchor="start" x="380" y="-3001.3" font-family="Times,serif" font-size="14.00"> v9 = v8</text>
<text text-anchor="start" x="380" y="-2986.3" font-family="Times,serif" font-size="14.00"> g36 = v9</text>
</g>
<!-- Node0x294d0950&#45;&gt;Node0x294ce8b0 -->
<g id="edge1" class="edge"><title>Node0x294d0950&#45;&gt;Node0x294ce8b0</title>
<path fill="none" stroke="black" d="M596.5,-3414.11C596.5,-3406.8 596.5,-3397.51 596.5,-3386.86"/>
<polygon fill="black" stroke="black" points="600,-3386.72 596.5,-3376.72 593,-3386.72 600,-3386.72"/>
</g>
<!-- Node0x294d1d60 -->
<g id="node3" class="node"><title>Node0x294d1d60</title>
<polygon fill="none" stroke="black" points="544.5,-2902.5 544.5,-2940.5 648.5,-2940.5 648.5,-2902.5 544.5,-2902.5"/>
<text text-anchor="start" x="552.5" y="-2925.3" font-family="Times,serif" font-size="14.00">0x79a6200:</text>
<text text-anchor="start" x="552.5" y="-2910.3" font-family="Times,serif" font-size="14.00"> if (v8 != 0):</text>
</g>
<!-- Node0x294ce8b0&#45;&gt;Node0x294d1d60 -->
<g id="edge2" class="edge"><title>Node0x294ce8b0&#45;&gt;Node0x294d1d60</title>
<path fill="none" stroke="black" d="M596.5,-2978.24C596.5,-2967.95 596.5,-2958.59 596.5,-2950.59"/>
<polygon fill="black" stroke="black" points="600,-2950.59 596.5,-2940.59 593,-2950.59 600,-2950.59"/>
</g>
<!-- Node0x324db7f0 -->
<g id="node4" class="node"><title>Node0x324db7f0</title>
<polygon fill="none" stroke="black" points="496.5,-2797.5 496.5,-2850.5 606.5,-2850.5 606.5,-2797.5 496.5,-2797.5"/>
<text text-anchor="start" x="504.5" y="-2835.3" font-family="Times,serif" font-size="14.00">0x13242be0:</text>
<text text-anchor="start" x="504.5" y="-2820.3" font-family="Times,serif" font-size="14.00"> v10</text>
<text text-anchor="start" x="504.5" y="-2805.3" font-family="Times,serif" font-size="14.00"> v11</text>
</g>
<!-- Node0x294d1d60&#45;&gt;Node0x324db7f0 -->
<g id="edge3" class="edge"><title>Node0x294d1d60&#45;&gt;Node0x324db7f0</title>
<path fill="none" stroke="black" d="M578.908,-2902.29C574.323,-2896.77 569.759,-2890.44 566.5,-2884 562.809,-2876.71 559.979,-2868.43 557.827,-2860.44"/>
<polygon fill="black" stroke="black" points="561.192,-2859.46 555.45,-2850.56 554.386,-2861.1 561.192,-2859.46"/>
<text text-anchor="middle" x="593.5" y="-2872.8" font-family="Times,serif" font-size="14.00">v8 != 0</text>
</g>
<!-- Node0x294d2630 -->
<g id="node5" class="node"><title>Node0x294d2630</title>
<polygon fill="none" stroke="black" points="449.5,-1906.5 449.5,-2004.5 751.5,-2004.5 751.5,-1906.5 449.5,-1906.5"/>
<text text-anchor="start" x="457.5" y="-1989.3" font-family="Times,serif" font-size="14.00">0x3c0708a0:</text>
<text text-anchor="start" x="457.5" y="-1974.3" font-family="Times,serif" font-size="14.00"> v14 = IntToPtrCastExpr&lt;ptr&gt;((v7 &#45; 1))</text>
<text text-anchor="start" x="457.5" y="-1959.3" font-family="Times,serif" font-size="14.00"> v15 = *(v14)</text>
<text text-anchor="start" x="457.5" y="-1944.3" font-family="Times,serif" font-size="14.00"> g37 = v15</text>
<text text-anchor="start" x="457.5" y="-1929.3" font-family="Times,serif" font-size="14.00"> v16 = (g39 + 6)</text>
<text text-anchor="start" x="457.5" y="-1914.3" font-family="Times,serif" font-size="14.00"> g39 = v16</text>
</g>
<!-- Node0x294d1d60&#45;&gt;Node0x294d2630 -->
<g id="edge4" class="edge"><title>Node0x294d1d60&#45;&gt;Node0x294d2630</title>
<path fill="none" stroke="black" d="M610.276,-2902.27C614.027,-2896.64 617.796,-2890.27 620.5,-2884 631.176,-2859.25 634.5,-2851.95 634.5,-2825 634.5,-2825 634.5,-2825 634.5,-2068 634.5,-2050.15 630.465,-2031.37 625.175,-2014.41"/>
<polygon fill="black" stroke="black" points="628.41,-2013.05 621.936,-2004.66 621.767,-2015.25 628.41,-2013.05"/>
<text text-anchor="middle" x="664.5" y="-2473.3" font-family="Times,serif" font-size="14.00">v8 == 0</text>
</g>
<!-- Node0x324dbbf0 -->
<g id="node6" class="node"><title>Node0x324dbbf0</title>
<polygon fill="none" stroke="black" points="501,-2721.5 501,-2759.5 602,-2759.5 602,-2721.5 501,-2721.5"/>
<text text-anchor="start" x="509" y="-2744.3" font-family="Times,serif" font-size="14.00">0x79a6060:</text>
<text text-anchor="start" x="509" y="-2729.3" font-family="Times,serif" font-size="14.00"> while True:</text>
</g>
<!-- Node0x324db7f0&#45;&gt;Node0x324dbbf0 -->
<g id="edge5" class="edge"><title>Node0x324db7f0&#45;&gt;Node0x324dbbf0</title>
<path fill="none" stroke="black" d="M551.5,-2797.21C551.5,-2788.53 551.5,-2778.79 551.5,-2769.91"/>
<polygon fill="black" stroke="black" points="555,-2769.64 551.5,-2759.64 548,-2769.64 555,-2769.64"/>
</g>
<!-- Node0x427a7b80 -->
<g id="node7" class="node"><title>Node0x427a7b80</title>
<polygon fill="none" stroke="black" points="536.5,-1830.5 536.5,-1868.5 664.5,-1868.5 664.5,-1830.5 536.5,-1830.5"/>
<text text-anchor="start" x="544.5" y="-1853.3" font-family="Times,serif" font-size="14.00">0x79a7f70:</text>
<text text-anchor="start" x="544.5" y="-1838.3" font-family="Times,serif" font-size="14.00"> if (v15 == 58):</text>
</g>
<!-- Node0x294d2630&#45;&gt;Node0x427a7b80 -->
<g id="edge6" class="edge"><title>Node0x294d2630&#45;&gt;Node0x427a7b80</title>
<path fill="none" stroke="black" d="M600.5,-1906.46C600.5,-1896.95 600.5,-1887.27 600.5,-1878.69"/>
<polygon fill="black" stroke="black" points="604,-1878.51 600.5,-1868.51 597,-1878.51 604,-1878.51"/>
</g>
<!-- Node0x294d2ff0 -->
<g id="node8" class="node"><title>Node0x294d2ff0</title>
<polygon fill="none" stroke="black" points="448.5,-2631.5 448.5,-2669.5 558.5,-2669.5 558.5,-2631.5 448.5,-2631.5"/>
<text text-anchor="start" x="456.5" y="-2654.3" font-family="Times,serif" font-size="14.00">0x19610580:</text>
<text text-anchor="start" x="456.5" y="-2639.3" font-family="Times,serif" font-size="14.00"> v12 = v7</text>
</g>
<!-- Node0x324dbbf0&#45;&gt;Node0x294d2ff0 -->
<g id="edge7" class="edge"><title>Node0x324dbbf0&#45;&gt;Node0x294d2ff0</title>
<path fill="none" stroke="black" d="M541.554,-2721.27C534.861,-2709 525.916,-2692.6 518.38,-2678.78"/>
<polygon fill="black" stroke="black" points="521.294,-2676.81 513.433,-2669.71 515.149,-2680.17 521.294,-2676.81"/>
<text text-anchor="middle" x="547.5" y="-2691.8" font-family="Times,serif" font-size="14.00">True</text>
</g>
<!-- Node0x324dc3f0 -->
<g id="node9" class="node"><title>Node0x324dc3f0</title>
<polygon fill="none" stroke="black" points="335.5,-1725.5 335.5,-1778.5 611.5,-1778.5 611.5,-1725.5 335.5,-1725.5"/>
<text text-anchor="start" x="343.5" y="-1763.3" font-family="Times,serif" font-size="14.00">0x79a79c0:</text>
<text text-anchor="start" x="343.5" y="-1748.3" font-family="Times,serif" font-size="14.00"> *(v14) = TruncCastExpr&lt;int8&gt;(v9)</text>
<text text-anchor="start" x="343.5" y="-1733.3" font-family="Times,serif" font-size="14.00"> v16 = g39</text>
</g>
<!-- Node0x427a7b80&#45;&gt;Node0x324dc3f0 -->
<g id="edge8" class="edge"><title>Node0x427a7b80&#45;&gt;Node0x324dc3f0</title>
<path fill="none" stroke="black" d="M576.313,-1830.31C559.235,-1817.47 535.901,-1799.92 515.78,-1784.79"/>
<polygon fill="black" stroke="black" points="517.767,-1781.91 507.671,-1778.7 513.56,-1787.5 517.767,-1781.91"/>
<text text-anchor="middle" x="587.5" y="-1800.8" font-family="Times,serif" font-size="14.00">v15 == 58</text>
</g>
<!-- Node0x294cc440 -->
<g id="node10" class="node"><title>Node0x294cc440</title>
<polygon fill="none" stroke="black" points="419.5,-1574.5 419.5,-1687.5 775.5,-1687.5 775.5,-1574.5 419.5,-1574.5"/>
<text text-anchor="start" x="427.5" y="-1672.3" font-family="Times,serif" font-size="14.00">0x1aa4a580:</text>
<text text-anchor="start" x="427.5" y="-1657.3" font-family="Times,serif" font-size="14.00"> v17 = *(IntToPtrCastExpr&lt;ptr&gt;((g40 + 164)))</text>
<text text-anchor="start" x="427.5" y="-1642.3" font-family="Times,serif" font-size="14.00"> g38 = v17</text>
<text text-anchor="start" x="427.5" y="-1627.3" font-family="Times,serif" font-size="14.00"> g9 = (v17 == 0)</text>
<text text-anchor="start" x="427.5" y="-1612.3" font-family="Times,serif" font-size="14.00"> g30 = v16</text>
<text text-anchor="start" x="427.5" y="-1597.3" font-family="Times,serif" font-size="14.00"> g29 = (v17 + 68)</text>
<text text-anchor="start" x="427.5" y="-1582.3" font-family="Times,serif" font-size="14.00"> v18</text>
</g>
<!-- Node0x427a7b80&#45;&gt;Node0x294cc440 -->
<g id="edge9" class="edge"><title>Node0x427a7b80&#45;&gt;Node0x294cc440</title>
<path fill="none" stroke="black" d="M619.471,-1830.38C623.955,-1824.94 628.121,-1818.64 630.5,-1812 632.748,-1805.72 630.96,-1803.65 630.5,-1797 628.272,-1764.77 626.609,-1756.72 620.5,-1725 618.791,-1716.12 616.771,-1706.83 614.649,-1697.68"/>
<polygon fill="black" stroke="black" points="618.031,-1696.78 612.317,-1687.85 611.22,-1698.39 618.031,-1696.78"/>
<text text-anchor="middle" x="665.5" y="-1748.3" font-family="Times,serif" font-size="14.00">v15 != 58</text>
</g>
<!-- Node0x294cfb20 -->
<g id="node11" class="node"><title>Node0x294cfb20</title>
<polygon fill="none" stroke="black" points="438,-2555.5 438,-2593.5 557,-2593.5 557,-2555.5 438,-2555.5"/>
<text text-anchor="start" x="446" y="-2578.3" font-family="Times,serif" font-size="14.00">0x79a3cf0:</text>
<text text-anchor="start" x="446" y="-2563.3" font-family="Times,serif" font-size="14.00"> if (v9 == 47):</text>
</g>
<!-- Node0x294d2ff0&#45;&gt;Node0x294cfb20 -->
<g id="edge10" class="edge"><title>Node0x294d2ff0&#45;&gt;Node0x294cfb20</title>
<path fill="none" stroke="black" d="M502.017,-2631.21C501.341,-2622.87 500.526,-2612.82 499.775,-2603.56"/>
<polygon fill="black" stroke="black" points="503.263,-2603.27 498.966,-2593.58 496.286,-2603.83 503.263,-2603.27"/>
</g>
<!-- Node0x324dc3f0&#45;&gt;Node0x294cc440 -->
<g id="edge11" class="edge"><title>Node0x324dc3f0&#45;&gt;Node0x294cc440</title>
<path fill="none" stroke="black" d="M500.101,-1725.47C509.616,-1716.34 520.804,-1705.6 532.143,-1694.72"/>
<polygon fill="black" stroke="black" points="534.808,-1697.02 539.599,-1687.57 529.961,-1691.96 534.808,-1697.02"/>
</g>
<!-- Node0x324da310 -->
<g id="node12" class="node"><title>Node0x324da310</title>
<polygon fill="none" stroke="black" points="538,-1498.5 538,-1536.5 657,-1536.5 657,-1498.5 538,-1498.5"/>
<text text-anchor="start" x="546" y="-1521.3" font-family="Times,serif" font-size="14.00">0x79b14e0:</text>
<text text-anchor="start" x="546" y="-1506.3" font-family="Times,serif" font-size="14.00"> if (v17 == 0):</text>
</g>
<!-- Node0x294cc440&#45;&gt;Node0x324da310 -->
<g id="edge12" class="edge"><title>Node0x294cc440&#45;&gt;Node0x324da310</title>
<path fill="none" stroke="black" d="M597.5,-1574.25C597.5,-1564.86 597.5,-1555.47 597.5,-1547.15"/>
<polygon fill="black" stroke="black" points="601,-1546.91 597.5,-1536.91 594,-1546.91 601,-1546.91"/>
</g>
<!-- Node0x152f8f20 -->
<g id="node13" class="node"><title>Node0x152f8f20</title>
<polygon fill="none" stroke="black" points="0,-2450.5 0,-2503.5 461,-2503.5 461,-2450.5 0,-2450.5"/>
<text text-anchor="start" x="8" y="-2488.3" font-family="Times,serif" font-size="14.00">0x79a3710:</text>
<text text-anchor="start" x="8" y="-2473.3" font-family="Times,serif" font-size="14.00"> *(IntToPtrCastExpr&lt;ptr&gt;(v7)) = TruncCastExpr&lt;int8&gt;(g37)</text>
<text text-anchor="start" x="8" y="-2458.3" font-family="Times,serif" font-size="14.00"> v12 = g30</text>
</g>
<!-- Node0x294cfb20&#45;&gt;Node0x152f8f20 -->
<g id="edge13" class="edge"><title>Node0x294cfb20&#45;&gt;Node0x152f8f20</title>
<path fill="none" stroke="black" d="M446.965,-2555.42C408.795,-2541.77 355.634,-2522.76 311.547,-2506.99"/>
<polygon fill="black" stroke="black" points="312.593,-2503.65 301.998,-2503.57 310.235,-2510.24 312.593,-2503.65"/>
<text text-anchor="middle" x="423" y="-2525.8" font-family="Times,serif" font-size="14.00">v9 == 47</text>
</g>
<!-- Node0x294cf7a0 -->
<g id="node14" class="node"><title>Node0x294cf7a0</title>
<polygon fill="none" stroke="black" points="264.5,-2314.5 264.5,-2412.5 560.5,-2412.5 560.5,-2314.5 264.5,-2314.5"/>
<text text-anchor="start" x="272.5" y="-2397.3" font-family="Times,serif" font-size="14.00">0x79a4090:</text>
<text text-anchor="start" x="272.5" y="-2382.3" font-family="Times,serif" font-size="14.00"> v10 = (v12 + 1)</text>
<text text-anchor="start" x="272.5" y="-2367.3" font-family="Times,serif" font-size="14.00"> g30 = v10</text>
<text text-anchor="start" x="272.5" y="-2352.3" font-family="Times,serif" font-size="14.00"> v13 = *(IntToPtrCastExpr&lt;ptr&gt;(v10))</text>
<text text-anchor="start" x="272.5" y="-2337.3" font-family="Times,serif" font-size="14.00"> v11 = v13</text>
<text text-anchor="start" x="272.5" y="-2322.3" font-family="Times,serif" font-size="14.00"> g36 = v11</text>
</g>
<!-- Node0x294cfb20&#45;&gt;Node0x294cf7a0 -->
<g id="edge14" class="edge"><title>Node0x294cfb20&#45;&gt;Node0x294cf7a0</title>
<path fill="none" stroke="black" d="M495.477,-2555.27C492.274,-2530.6 484.763,-2485.56 469.5,-2450 465.394,-2440.43 460.198,-2430.79 454.623,-2421.59"/>
<polygon fill="black" stroke="black" points="457.467,-2419.54 449.184,-2412.93 451.539,-2423.26 457.467,-2419.54"/>
<text text-anchor="middle" x="518" y="-2473.3" font-family="Times,serif" font-size="14.00">v9 != 47</text>
</g>
<!-- Node0x324dc8f0 -->
<g id="node15" class="node"><title>Node0x324dc8f0</title>
<polygon fill="none" stroke="black" points="249,-1318.5 249,-1446.5 742,-1446.5 742,-1318.5 249,-1318.5"/>
<text text-anchor="start" x="257" y="-1431.3" font-family="Times,serif" font-size="14.00">0x79b1700:</text>
<text text-anchor="start" x="257" y="-1416.3" font-family="Times,serif" font-size="14.00"> v18 = g34</text>
<text text-anchor="start" x="257" y="-1401.3" font-family="Times,serif" font-size="14.00"> g38 = *(IntToPtrCastExpr&lt;ptr&gt;((v18 + 4)))</text>
<text text-anchor="start" x="257" y="-1386.3" font-family="Times,serif" font-size="14.00"> g39 = *(IntToPtrCastExpr&lt;ptr&gt;((v18 + 8)))</text>
<text text-anchor="start" x="257" y="-1371.3" font-family="Times,serif" font-size="14.00"> g40 = *(IntToPtrCastExpr&lt;ptr&gt;((v18 + 12)))</text>
<text text-anchor="start" x="257" y="-1356.3" font-family="Times,serif" font-size="14.00"> g32 = *(IntToPtrCastExpr&lt;ptr&gt;((v18 + 16)))</text>
<text text-anchor="start" x="257" y="-1341.3" font-family="Times,serif" font-size="14.00"> g34 = *(IntToPtrCastExpr&lt;ptr&gt;((v18 + 20)))</text>
<text text-anchor="start" x="257" y="-1326.3" font-family="Times,serif" font-size="14.00"> IntToPtrCastExpr&lt;ptr&gt;(*(IntToPtrCastExpr&lt;ptr&gt;((v18 + 24))))()</text>
</g>
<!-- Node0x324da310&#45;&gt;Node0x324dc8f0 -->
<g id="edge15" class="edge"><title>Node0x324da310&#45;&gt;Node0x324dc8f0</title>
<path fill="none" stroke="black" d="M583.531,-1498.29C574.622,-1486.67 562.443,-1470.79 549.985,-1454.54"/>
<polygon fill="black" stroke="black" points="552.722,-1452.36 543.859,-1446.56 547.168,-1456.62 552.722,-1452.36"/>
<text text-anchor="middle" x="602" y="-1468.8" font-family="Times,serif" font-size="14.00">v17 == 0</text>
</g>
<!-- Node0x294d00a0 -->
<g id="node16" class="node"><title>Node0x294d00a0</title>
<polygon fill="none" stroke="black" points="829,-1363.5 829,-1401.5 930,-1401.5 930,-1363.5 829,-1363.5"/>
<text text-anchor="start" x="837" y="-1386.3" font-family="Times,serif" font-size="14.00">0x79b13c0:</text>
<text text-anchor="start" x="837" y="-1371.3" font-family="Times,serif" font-size="14.00"> while True:</text>
</g>
<!-- Node0x324da310&#45;&gt;Node0x294d00a0 -->
<g id="edge16" class="edge"><title>Node0x324da310&#45;&gt;Node0x294d00a0</title>
<path fill="none" stroke="black" d="M638.247,-1498.4C669.164,-1484.57 712.656,-1464.9 750.5,-1447 778.511,-1433.75 809.691,-1418.42 834.378,-1406.14"/>
<polygon fill="black" stroke="black" points="836.112,-1409.18 843.502,-1401.59 832.991,-1402.92 836.112,-1409.18"/>
<text text-anchor="middle" x="741" y="-1468.8" font-family="Times,serif" font-size="14.00">v17 != 0</text>
</g>
<!-- Node0x152f8f20&#45;&gt;Node0x294cf7a0 -->
<g id="edge17" class="edge"><title>Node0x152f8f20&#45;&gt;Node0x294cf7a0</title>
<path fill="none" stroke="black" d="M272.254,-2450.42C288.109,-2440.71 306.818,-2429.24 325.316,-2417.91"/>
<polygon fill="black" stroke="black" points="327.378,-2420.75 334.077,-2412.55 323.721,-2414.78 327.378,-2420.75"/>
</g>
<!-- Node0x294d0430 -->
<g id="node17" class="node"><title>Node0x294d0430</title>
<polygon fill="none" stroke="black" points="359,-2238.5 359,-2276.5 478,-2276.5 478,-2238.5 359,-2238.5"/>
<text text-anchor="start" x="367" y="-2261.3" font-family="Times,serif" font-size="14.00">0x79a5560:</text>
<text text-anchor="start" x="367" y="-2246.3" font-family="Times,serif" font-size="14.00"> if (v13 == 0):</text>
</g>
<!-- Node0x294cf7a0&#45;&gt;Node0x294d0430 -->
<g id="edge18" class="edge"><title>Node0x294cf7a0&#45;&gt;Node0x294d0430</title>
<path fill="none" stroke="black" d="M415.272,-2314.46C415.82,-2304.95 416.379,-2295.27 416.874,-2286.69"/>
<polygon fill="black" stroke="black" points="420.379,-2286.69 417.461,-2276.51 413.391,-2286.29 420.379,-2286.69"/>
</g>
<!-- Node0x324dd1f0 -->
<g id="node18" class="node"><title>Node0x324dd1f0</title>
<polygon fill="none" stroke="black" points="396,-1228.5 396,-1266.5 493,-1266.5 493,-1228.5 396,-1228.5"/>
<text text-anchor="start" x="404" y="-1251.3" font-family="Times,serif" font-size="14.00">0x79b3fa0:</text>
<text text-anchor="start" x="404" y="-1236.3" font-family="Times,serif" font-size="14.00"> if g9:</text>
</g>
<!-- Node0x324dc8f0&#45;&gt;Node0x324dd1f0 -->
<g id="edge19" class="edge"><title>Node0x324dc8f0&#45;&gt;Node0x324dd1f0</title>
<path fill="none" stroke="black" d="M471.195,-1318.12C465.543,-1303.38 459.812,-1288.43 455.117,-1276.19"/>
<polygon fill="black" stroke="black" points="458.29,-1274.69 451.441,-1266.6 451.754,-1277.19 458.29,-1274.69"/>
</g>
<!-- Node0x324dd7f0 -->
<g id="node19" class="node"><title>Node0x324dd7f0</title>
<polygon fill="none" stroke="black" points="812.5,-1228.5 812.5,-1266.5 946.5,-1266.5 946.5,-1228.5 812.5,-1228.5"/>
<text text-anchor="start" x="820.5" y="-1251.3" font-family="Times,serif" font-size="14.00">0x79a9460:</text>
<text text-anchor="start" x="820.5" y="-1236.3" font-family="Times,serif" font-size="14.00"> function_ad84()</text>
</g>
<!-- Node0x294d00a0&#45;&gt;Node0x324dd7f0 -->
<g id="edge20" class="edge"><title>Node0x294d00a0&#45;&gt;Node0x324dd7f0</title>
<path fill="none" stroke="black" d="M879.5,-1363.29C879.5,-1341.03 879.5,-1303.1 879.5,-1276.98"/>
<polygon fill="black" stroke="black" points="883,-1276.92 879.5,-1266.92 876,-1276.92 883,-1276.92"/>
<text text-anchor="middle" x="896.5" y="-1288.8" font-family="Times,serif" font-size="14.00">True</text>
</g>
<!-- Node0x427a70b0 -->
<g id="node20" class="node"><title>Node0x427a70b0</title>
<polygon fill="none" stroke="black" points="373,-2141 373,-2179 474,-2179 474,-2141 373,-2141"/>
<text text-anchor="start" x="381" y="-2163.8" font-family="Times,serif" font-size="14.00">0x79a51b0:</text>
<text text-anchor="start" x="381" y="-2148.8" font-family="Times,serif" font-size="14.00"> break</text>
</g>
<!-- Node0x294d0430&#45;&gt;Node0x427a70b0 -->
<g id="edge21" class="edge"><title>Node0x294d0430&#45;&gt;Node0x427a70b0</title>
<path fill="none" stroke="black" d="M418.537,-2238.37C418.636,-2228.5 418.89,-2216.07 419.5,-2205 419.776,-2200 420.171,-2194.68 420.607,-2189.54"/>
<polygon fill="black" stroke="black" points="424.11,-2189.67 421.534,-2179.39 417.139,-2189.03 424.11,-2189.67"/>
<text text-anchor="middle" x="454" y="-2208.8" font-family="Times,serif" font-size="14.00">v13 == 0</text>
</g>
<!-- Node0x294cf3d0 -->
<g id="node21" class="node"><title>Node0x294cf3d0</title>
<polygon fill="none" stroke="black" points="501,-2133.5 501,-2186.5 602,-2186.5 602,-2133.5 501,-2133.5"/>
<text text-anchor="start" x="509" y="-2171.3" font-family="Times,serif" font-size="14.00">0x79a50d0:</text>
<text text-anchor="start" x="509" y="-2156.3" font-family="Times,serif" font-size="14.00"> v7 = v10</text>
<text text-anchor="start" x="509" y="-2141.3" font-family="Times,serif" font-size="14.00"> v9 = v11</text>
</g>
<!-- Node0x294d0430&#45;&gt;Node0x294cf3d0 -->
<g id="edge22" class="edge"><title>Node0x294d0430&#45;&gt;Node0x294cf3d0</title>
<path fill="none" stroke="black" d="M457.751,-2238.42C468.086,-2233.02 478.996,-2226.74 488.5,-2220 499.304,-2212.34 510.157,-2202.94 519.737,-2193.91"/>
<polygon fill="black" stroke="black" points="522.352,-2196.25 527.121,-2186.79 517.493,-2191.21 522.352,-2196.25"/>
<text text-anchor="middle" x="539" y="-2208.8" font-family="Times,serif" font-size="14.00">v13 != 0</text>
</g>
<!-- Node0x294d30d0 -->
<g id="node22" class="node"><title>Node0x294d30d0</title>
<polygon fill="none" stroke="black" points="220.5,-1138.5 220.5,-1176.5 408.5,-1176.5 408.5,-1138.5 220.5,-1138.5"/>
<text text-anchor="start" x="228.5" y="-1161.3" font-family="Times,serif" font-size="14.00">0x79b3dc0:</text>
<text text-anchor="start" x="228.5" y="-1146.3" font-family="Times,serif" font-size="14.00"> g42 = (g30 &amp; (g29 / 4))</text>
</g>
<!-- Node0x324dd1f0&#45;&gt;Node0x294d30d0 -->
<g id="edge23" class="edge"><title>Node0x324dd1f0&#45;&gt;Node0x294d30d0</title>
<path fill="none" stroke="black" d="M417.879,-1228.48C398.292,-1215.22 371.462,-1197.06 350.044,-1182.56"/>
<polygon fill="black" stroke="black" points="351.775,-1179.51 341.532,-1176.8 347.851,-1185.3 351.775,-1179.51"/>
<text text-anchor="middle" x="397" y="-1198.8" font-family="Times,serif" font-size="14.00">g9</text>
</g>
<!-- Node0x324dd4f0 -->
<g id="node23" class="node"><title>Node0x324dd4f0</title>
<polygon fill="none" stroke="black" points="264,-1026 264,-1064 365,-1064 365,-1026 264,-1026"/>
<text text-anchor="start" x="272" y="-1048.8" font-family="Times,serif" font-size="14.00">0x79b40e0:</text>
<text text-anchor="start" x="272" y="-1033.8" font-family="Times,serif" font-size="14.00"> return</text>
</g>
<!-- Node0x324dd1f0&#45;&gt;Node0x324dd4f0 -->
<g id="edge24" class="edge"><title>Node0x324dd1f0&#45;&gt;Node0x324dd4f0</title>
<path fill="none" stroke="black" d="M443.257,-1228.35C441.006,-1205.74 434.746,-1166.59 417.5,-1138 400.917,-1110.51 373.504,-1086.61 351.127,-1070.06"/>
<polygon fill="black" stroke="black" points="352.991,-1067.09 342.83,-1064.09 348.9,-1072.77 352.991,-1067.09"/>
<text text-anchor="middle" x="463" y="-1153.8" font-family="Times,serif" font-size="14.00">not (g9)</text>
</g>
<!-- Node0x324ddaf0 -->
<g id="node24" class="node"><title>Node0x324ddaf0</title>
<polygon fill="none" stroke="black" points="823,-1138.5 823,-1176.5 936,-1176.5 936,-1138.5 823,-1138.5"/>
<text text-anchor="start" x="831" y="-1161.3" font-family="Times,serif" font-size="14.00">0x79ac060:</text>
<text text-anchor="start" x="831" y="-1146.3" font-family="Times,serif" font-size="14.00"> if (g29 != 0):</text>
</g>
<!-- Node0x324dd7f0&#45;&gt;Node0x324ddaf0 -->
<g id="edge25" class="edge"><title>Node0x324dd7f0&#45;&gt;Node0x324ddaf0</title>
<path fill="none" stroke="black" d="M879.5,-1228.27C879.5,-1216.35 879.5,-1200.54 879.5,-1186.98"/>
<polygon fill="black" stroke="black" points="883,-1186.71 879.5,-1176.71 876,-1186.71 883,-1186.71"/>
</g>
<!-- Node0x324dbef0 -->
<g id="node25" class="node"><title>Node0x324dbef0</title>
<polygon fill="none" stroke="black" points="473.5,-2042.5 473.5,-2095.5 573.5,-2095.5 573.5,-2042.5 473.5,-2042.5"/>
<text text-anchor="start" x="481.5" y="-2080.3" font-family="Times,serif" font-size="14.00">0x79a5a40:</text>
<text text-anchor="start" x="481.5" y="-2065.3" font-family="Times,serif" font-size="14.00"> v9 = v11</text>
<text text-anchor="start" x="481.5" y="-2050.3" font-family="Times,serif" font-size="14.00"> v7 = v10</text>
</g>
<!-- Node0x427a70b0&#45;&gt;Node0x324dbef0 -->
<g id="edge26" class="edge"><title>Node0x427a70b0&#45;&gt;Node0x324dbef0</title>
<path fill="none" stroke="black" d="M443.736,-2140.99C456.064,-2130.02 472.186,-2115.67 486.707,-2102.75"/>
<polygon fill="black" stroke="black" points="489.433,-2105.01 494.576,-2095.74 484.779,-2099.78 489.433,-2105.01"/>
</g>
<!-- Node0x294cf3d0&#45;&gt;Node0x324dbbf0 -->
<g id="edge27" class="edge"><title>Node0x294cf3d0&#45;&gt;Node0x324dbbf0</title>
<path fill="none" stroke="black" d="M567.406,-2186.72C577.434,-2205.38 588.5,-2231.61 588.5,-2256.5 588.5,-2651.5 588.5,-2651.5 588.5,-2651.5 588.5,-2673.17 578.844,-2695.67 569.397,-2712.49"/>
<polygon fill="black" stroke="black" points="566.317,-2710.82 564.233,-2721.21 572.34,-2714.39 566.317,-2710.82"/>
</g>
<!-- Node0x294d30d0&#45;&gt;Node0x324dd4f0 -->
<g id="edge28" class="edge"><title>Node0x294d30d0&#45;&gt;Node0x324dd4f0</title>
<path fill="none" stroke="black" d="M314.5,-1138.25C314.5,-1120.9 314.5,-1094.53 314.5,-1074.42"/>
<polygon fill="black" stroke="black" points="318,-1074.27 314.5,-1064.27 311,-1074.27 318,-1074.27"/>
</g>
<!-- Node0x294d0ed0 -->
<g id="node26" class="node"><title>Node0x294d0ed0</title>
<polygon fill="none" stroke="black" points="276.5,-23.5 276.5,-59.5 330.5,-59.5 330.5,-23.5 276.5,-23.5"/>
<text text-anchor="start" x="284.5" y="-37.8" font-family="Times,serif" font-size="14.00">exit:</text>
</g>
<!-- Node0x324dd4f0&#45;&gt;Node0x294d0ed0 -->
<g id="edge29" class="edge"><title>Node0x324dd4f0&#45;&gt;Node0x294d0ed0</title>
<path fill="none" stroke="black" d="M288.269,-1025.81C266.641,-1008.46 239.5,-980.176 239.5,-947.5 239.5,-947.5 239.5,-947.5 239.5,-115.5 239.5,-95.4483 253.322,-78.268 268.119,-65.6208"/>
<polygon fill="black" stroke="black" points="270.708,-68.0338 276.358,-59.0714 266.352,-62.5541 270.708,-68.0338"/>
</g>
<!-- Node0x324d9c10 -->
<g id="node27" class="node"><title>Node0x324d9c10</title>
<polygon fill="none" stroke="black" points="516,-1003.5 516,-1086.5 863,-1086.5 863,-1003.5 516,-1003.5"/>
<text text-anchor="start" x="524" y="-1071.3" font-family="Times,serif" font-size="14.00">0xf387930:</text>
<text text-anchor="start" x="524" y="-1056.3" font-family="Times,serif" font-size="14.00"> v19 = *(IntToPtrCastExpr&lt;ptr&gt;((g40 + 16)))</text>
<text text-anchor="start" x="524" y="-1041.3" font-family="Times,serif" font-size="14.00"> g29 = v19</text>
<text text-anchor="start" x="524" y="-1026.3" font-family="Times,serif" font-size="14.00"> v20 = g38</text>
<text text-anchor="start" x="524" y="-1011.3" font-family="Times,serif" font-size="14.00"> v21 = v20</text>
</g>
<!-- Node0x324ddaf0&#45;&gt;Node0x324d9c10 -->
<g id="edge30" class="edge"><title>Node0x324ddaf0&#45;&gt;Node0x324d9c10</title>
<path fill="none" stroke="black" d="M848.125,-1138.25C826.251,-1125.53 796.048,-1107.97 767.862,-1091.57"/>
<polygon fill="black" stroke="black" points="769.595,-1088.53 759.191,-1086.53 766.076,-1094.58 769.595,-1088.53"/>
<text text-anchor="middle" x="845.5" y="-1108.8" font-family="Times,serif" font-size="14.00">g29 != 0</text>
</g>
<!-- Node0x324dddf0 -->
<g id="node28" class="node"><title>Node0x324dddf0</title>
<polygon fill="none" stroke="black" points="558.5,-595.5 558.5,-693.5 896.5,-693.5 896.5,-595.5 558.5,-595.5"/>
<text text-anchor="start" x="566.5" y="-678.3" font-family="Times,serif" font-size="14.00">0x34501340:</text>
<text text-anchor="start" x="566.5" y="-663.3" font-family="Times,serif" font-size="14.00"> v22 = *(IntToPtrCastExpr&lt;ptr&gt;((g38 + 4)))</text>
<text text-anchor="start" x="566.5" y="-648.3" font-family="Times,serif" font-size="14.00"> g38 = v22</text>
<text text-anchor="start" x="566.5" y="-633.3" font-family="Times,serif" font-size="14.00"> g9 = (v22 == 0)</text>
<text text-anchor="start" x="566.5" y="-618.3" font-family="Times,serif" font-size="14.00"> g30 = g39</text>
<text text-anchor="start" x="566.5" y="-603.3" font-family="Times,serif" font-size="14.00"> g29 = (v22 + 68)</text>
</g>
<!-- Node0x324ddaf0&#45;&gt;Node0x324dddf0 -->
<g id="edge31" class="edge"><title>Node0x324ddaf0&#45;&gt;Node0x324dddf0</title>
<path fill="none" stroke="black" d="M884.592,-1138.29C890.22,-1116.52 898.5,-1078.9 898.5,-1046 898.5,-1046 898.5,-1046 898.5,-757 898.5,-733.796 887.315,-715.168 870.666,-700.292"/>
<polygon fill="black" stroke="black" points="872.604,-697.355 862.653,-693.719 868.165,-702.767 872.604,-697.355"/>
<text text-anchor="middle" x="933.5" y="-897.8" font-family="Times,serif" font-size="14.00">g29 == 0</text>
</g>
<!-- Node0x324dbef0&#45;&gt;Node0x294d2630 -->
<g id="edge32" class="edge"><title>Node0x324dbef0&#45;&gt;Node0x294d2630</title>
<path fill="none" stroke="black" d="M541.165,-2042.42C547.261,-2033.59 554.355,-2023.32 561.472,-2013.01"/>
<polygon fill="black" stroke="black" points="564.364,-2014.99 567.167,-2004.77 558.604,-2011.01 564.364,-2014.99"/>
</g>
<!-- Node0x294cee40 -->
<g id="node29" class="node"><title>Node0x294cee40</title>
<polygon fill="none" stroke="black" points="426.5,-927.5 426.5,-965.5 804.5,-965.5 804.5,-927.5 426.5,-927.5"/>
<text text-anchor="start" x="434.5" y="-950.3" font-family="Times,serif" font-size="14.00">0x79ab9e0:</text>
<text text-anchor="start" x="434.5" y="-935.3" font-family="Times,serif" font-size="14.00"> if (*(IntToPtrCastExpr&lt;ptr&gt;((v19 + 4))) == v20):</text>
</g>
<!-- Node0x324d9c10&#45;&gt;Node0x294cee40 -->
<g id="edge33" class="edge"><title>Node0x324d9c10&#45;&gt;Node0x294cee40</title>
<path fill="none" stroke="black" d="M658.332,-1003.35C650.59,-993.259 642.499,-982.708 635.46,-973.529"/>
<polygon fill="black" stroke="black" points="638.195,-971.343 629.332,-965.538 632.64,-975.603 638.195,-971.343"/>
</g>
<!-- Node0x294d0ff0 -->
<g id="node30" class="node"><title>Node0x294d0ff0</title>
<polygon fill="none" stroke="black" points="668,-519.5 668,-557.5 787,-557.5 787,-519.5 668,-519.5"/>
<text text-anchor="start" x="676" y="-542.3" font-family="Times,serif" font-size="14.00">0x79ad880:</text>
<text text-anchor="start" x="676" y="-527.3" font-family="Times,serif" font-size="14.00"> if (v22 == 0):</text>
</g>
<!-- Node0x324dddf0&#45;&gt;Node0x294d0ff0 -->
<g id="edge34" class="edge"><title>Node0x324dddf0&#45;&gt;Node0x294d0ff0</title>
<path fill="none" stroke="black" d="M727.5,-595.458C727.5,-585.952 727.5,-576.27 727.5,-567.69"/>
<polygon fill="black" stroke="black" points="731,-567.509 727.5,-557.509 724,-567.509 731,-567.509"/>
</g>
<!-- Node0x2f687850 -->
<g id="node31" class="node"><title>Node0x2f687850</title>
<polygon fill="none" stroke="black" points="319,-822.5 319,-875.5 462,-875.5 462,-822.5 319,-822.5"/>
<text text-anchor="start" x="327" y="-860.3" font-family="Times,serif" font-size="14.00">0x79ab370:</text>
<text text-anchor="start" x="327" y="-845.3" font-family="Times,serif" font-size="14.00"> function_11050()</text>
<text text-anchor="start" x="327" y="-830.3" font-family="Times,serif" font-size="14.00"> v21 = g38</text>
</g>
<!-- Node0x294cee40&#45;&gt;Node0x2f687850 -->
<g id="edge35" class="edge"><title>Node0x294cee40&#45;&gt;Node0x2f687850</title>
<path fill="none" stroke="black" d="M426.097,-935.875C353.336,-930.203 284.827,-921.6 273.5,-909 255.728,-889.231 278.558,-875.216 308.627,-865.822"/>
<polygon fill="black" stroke="black" points="309.97,-869.077 318.601,-862.933 308.022,-862.353 309.97,-869.077"/>
<text text-anchor="middle" x="437.5" y="-897.8" font-family="Times,serif" font-size="14.00">*(IntToPtrCastExpr&lt;ptr&gt;((v19 + 4))) == v20</text>
</g>
<!-- Node0x324d9ac0 -->
<g id="node32" class="node"><title>Node0x324d9ac0</title>
<polygon fill="none" stroke="black" points="483,-731.5 483,-784.5 614,-784.5 614,-731.5 483,-731.5"/>
<text text-anchor="start" x="491" y="-769.3" font-family="Times,serif" font-size="14.00">0x79abb60:</text>
<text text-anchor="start" x="491" y="-754.3" font-family="Times,serif" font-size="14.00"> g29 = v21</text>
<text text-anchor="start" x="491" y="-739.3" font-family="Times,serif" font-size="14.00"> function_8f38()</text>
</g>
<!-- Node0x294cee40&#45;&gt;Node0x324d9ac0 -->
<g id="edge36" class="edge"><title>Node0x294cee40&#45;&gt;Node0x324d9ac0</title>
<path fill="none" stroke="black" d="M614.316,-927.038C612.766,-916.335 609.277,-903.198 601.5,-894 589.174,-879.422 573.728,-891.44 562.5,-876 545.656,-852.837 543.048,-820.017 544.143,-795.03"/>
<polygon fill="black" stroke="black" points="547.649,-795.058 544.808,-784.851 540.663,-794.602 547.649,-795.058"/>
<text text-anchor="middle" x="723.5" y="-845.3" font-family="Times,serif" font-size="14.00">*(IntToPtrCastExpr&lt;ptr&gt;((v19 + 4))) != v20</text>
</g>
<!-- Node0x294d0ff0&#45;&gt;Node0x294d00a0 -->
<g id="edge38" class="edge"><title>Node0x294d0ff0&#45;&gt;Node0x294d00a0</title>
<path fill="none" stroke="black" d="M787.198,-551.325C862.844,-568.054 983.5,-601.345 983.5,-643.5 983.5,-1248.5 983.5,-1248.5 983.5,-1248.5 983.5,-1294.05 945.182,-1333.3 915.064,-1357.12"/>
<polygon fill="black" stroke="black" points="912.641,-1354.57 906.825,-1363.43 916.894,-1360.13 912.641,-1354.57"/>
<text text-anchor="middle" x="1015" y="-942.8" font-family="Times,serif" font-size="14.00">v22 != 0</text>
</g>
<!-- Node0x2f687260 -->
<g id="node33" class="node"><title>Node0x2f687260</title>
<polygon fill="none" stroke="black" points="557.5,-429.5 557.5,-467.5 657.5,-467.5 657.5,-429.5 557.5,-429.5"/>
<text text-anchor="start" x="565.5" y="-452.3" font-family="Times,serif" font-size="14.00">0x79ad2a0:</text>
<text text-anchor="start" x="565.5" y="-437.3" font-family="Times,serif" font-size="14.00"> break</text>
</g>
<!-- Node0x294d0ff0&#45;&gt;Node0x2f687260 -->
<g id="edge37" class="edge"><title>Node0x294d0ff0&#45;&gt;Node0x2f687260</title>
<path fill="none" stroke="black" d="M702.927,-519.48C684.927,-506.28 660.301,-488.22 640.574,-473.754"/>
<polygon fill="black" stroke="black" points="642.587,-470.89 632.453,-467.799 638.447,-476.535 642.587,-470.89"/>
<text text-anchor="middle" x="710" y="-489.8" font-family="Times,serif" font-size="14.00">v22 == 0</text>
</g>
<!-- Node0x2f687850&#45;&gt;Node0x324d9ac0 -->
<g id="edge39" class="edge"><title>Node0x2f687850&#45;&gt;Node0x324d9ac0</title>
<path fill="none" stroke="black" d="M435.776,-822.496C454.04,-812.209 475.264,-800.253 494.337,-789.51"/>
<polygon fill="black" stroke="black" points="496.222,-792.465 503.217,-784.508 492.786,-786.366 496.222,-792.465"/>
</g>
<!-- Node0x324d9ac0&#45;&gt;Node0x324dddf0 -->
<g id="edge40" class="edge"><title>Node0x324d9ac0&#45;&gt;Node0x324dddf0</title>
<path fill="none" stroke="black" d="M589.566,-731.42C605.089,-721.75 623.393,-710.348 641.506,-699.066"/>
<polygon fill="black" stroke="black" points="643.732,-701.803 650.369,-693.545 640.031,-695.862 643.732,-701.803"/>
</g>
<!-- Node0x324dabf0 -->
<g id="node34" class="node"><title>Node0x324dabf0</title>
<polygon fill="none" stroke="black" points="281,-263.5 281,-391.5 774,-391.5 774,-263.5 281,-263.5"/>
<text text-anchor="start" x="289" y="-376.3" font-family="Times,serif" font-size="14.00">0x79adb00:</text>
<text text-anchor="start" x="289" y="-361.3" font-family="Times,serif" font-size="14.00"> v18 = g34</text>
<text text-anchor="start" x="289" y="-346.3" font-family="Times,serif" font-size="14.00"> g38 = *(IntToPtrCastExpr&lt;ptr&gt;((v18 + 4)))</text>
<text text-anchor="start" x="289" y="-331.3" font-family="Times,serif" font-size="14.00"> g39 = *(IntToPtrCastExpr&lt;ptr&gt;((v18 + 8)))</text>
<text text-anchor="start" x="289" y="-316.3" font-family="Times,serif" font-size="14.00"> g40 = *(IntToPtrCastExpr&lt;ptr&gt;((v18 + 12)))</text>
<text text-anchor="start" x="289" y="-301.3" font-family="Times,serif" font-size="14.00"> g32 = *(IntToPtrCastExpr&lt;ptr&gt;((v18 + 16)))</text>
<text text-anchor="start" x="289" y="-286.3" font-family="Times,serif" font-size="14.00"> g34 = *(IntToPtrCastExpr&lt;ptr&gt;((v18 + 20)))</text>
<text text-anchor="start" x="289" y="-271.3" font-family="Times,serif" font-size="14.00"> IntToPtrCastExpr&lt;ptr&gt;(*(IntToPtrCastExpr&lt;ptr&gt;((v18 + 24))))()</text>
</g>
<!-- Node0x2f687260&#45;&gt;Node0x324dabf0 -->
<g id="edge41" class="edge"><title>Node0x2f687260&#45;&gt;Node0x324dabf0</title>
<path fill="none" stroke="black" d="M595.35,-429.426C589.811,-421.188 582.859,-410.847 575.532,-399.947"/>
<polygon fill="black" stroke="black" points="578.357,-397.876 569.873,-391.529 572.547,-401.781 578.357,-397.876"/>
</g>
<!-- Node0x324db4f0 -->
<g id="node35" class="node"><title>Node0x324db4f0</title>
<polygon fill="none" stroke="black" points="423.5,-187.5 423.5,-225.5 521.5,-225.5 521.5,-187.5 423.5,-187.5"/>
<text text-anchor="start" x="431.5" y="-210.3" font-family="Times,serif" font-size="14.00">0x79b0f00:</text>
<text text-anchor="start" x="431.5" y="-195.3" font-family="Times,serif" font-size="14.00"> if g9:</text>
</g>
<!-- Node0x324dabf0&#45;&gt;Node0x324db4f0 -->
<g id="edge42" class="edge"><title>Node0x324dabf0&#45;&gt;Node0x324db4f0</title>
<path fill="none" stroke="black" d="M498.229,-263.167C493.656,-253.273 489.149,-243.521 485.215,-235.012"/>
<polygon fill="black" stroke="black" points="488.265,-233.267 480.893,-225.659 481.911,-236.204 488.265,-233.267"/>
</g>
<!-- Node0x324db4f0&#45;&gt;Node0x294d0ed0 -->
<g id="edge44" class="edge"><title>Node0x324db4f0&#45;&gt;Node0x294d0ed0</title>
<path fill="none" stroke="black" d="M423.284,-197.755C386.55,-189.222 338.407,-171.645 312.5,-136 298.765,-117.103 297.584,-90.0764 299.207,-69.9364"/>
<polygon fill="black" stroke="black" points="302.704,-70.1498 300.298,-59.8319 295.745,-69.3986 302.704,-70.1498"/>
<text text-anchor="middle" x="341" y="-112.8" font-family="Times,serif" font-size="14.00">not (g9)</text>
</g>
<!-- Node0x294d2200 -->
<g id="node36" class="node"><title>Node0x294d2200</title>
<polygon fill="none" stroke="black" points="378.5,-97.5 378.5,-135.5 566.5,-135.5 566.5,-97.5 378.5,-97.5"/>
<text text-anchor="start" x="386.5" y="-120.3" font-family="Times,serif" font-size="14.00">0x79b0c90:</text>
<text text-anchor="start" x="386.5" y="-105.3" font-family="Times,serif" font-size="14.00"> g42 = (g30 &amp; (g29 / 4))</text>
</g>
<!-- Node0x324db4f0&#45;&gt;Node0x294d2200 -->
<g id="edge43" class="edge"><title>Node0x324db4f0&#45;&gt;Node0x294d2200</title>
<path fill="none" stroke="black" d="M472.5,-187.266C472.5,-175.349 472.5,-159.538 472.5,-145.982"/>
<polygon fill="black" stroke="black" points="476,-145.71 472.5,-135.71 469,-145.71 476,-145.71"/>
<text text-anchor="middle" x="482" y="-157.8" font-family="Times,serif" font-size="14.00">g9</text>
</g>
<!-- Node0x294d2200&#45;&gt;Node0x294d0ed0 -->
<g id="edge45" class="edge"><title>Node0x294d2200&#45;&gt;Node0x294d0ed0</title>
<path fill="none" stroke="black" d="M430.725,-97.4551C402.867,-85.4219 366.603,-69.7573 339.922,-58.2325"/>
<polygon fill="black" stroke="black" points="341.127,-54.9406 330.559,-54.1882 338.351,-61.3667 341.127,-54.9406"/>
</g>
</g>
</svg>
