<?xml version="1.0" encoding="UTF-8" standalone="no"?>
<!DOCTYPE svg PUBLIC "-//W3C//DTD SVG 1.1//EN"
 "http://www.w3.org/Graphics/SVG/1.1/DTD/svg11.dtd">
<!-- Generated by graphviz version 2.38.0 (20140413.2041)
 -->
<!-- Title: Control&#45;flow graph for function &#39;function_133a0()&#39;. Pages: 1 -->
<svg width="385pt" height="550pt"
 viewBox="0.00 0.00 385.00 550.00" xmlns="http://www.w3.org/2000/svg" xmlns:xlink="http://www.w3.org/1999/xlink">
<g id="graph0" class="graph" transform="scale(1 1) rotate(0) translate(4 546)">
<title>Control&#45;flow graph for function &#39;function_133a0()&#39;.</title>
<polygon fill="white" stroke="none" points="-4,4 -4,-546 381,-546 381,4 -4,4"/>
<text text-anchor="middle" x="188.5" y="-7.8" font-family="Times,serif" font-size="14.00">Control&#45;flow graph for function &#39;function_133a0()&#39;.</text>
<!-- Node0x37591d80 -->
<g id="node1" class="node"><title>Node0x37591d80</title>
<polygon fill="none" stroke="black" points="159,-505.5 159,-541.5 218,-541.5 218,-505.5 159,-505.5"/>
<text text-anchor="start" x="167" y="-519.8" font-family="Times,serif" font-size="14.00">entry:</text>
</g>
<!-- Node0x37591ee0 -->
<g id="node2" class="node"><title>Node0x37591ee0</title>
<polygon fill="none" stroke="black" points="30,-354.5 30,-467.5 347,-467.5 347,-354.5 30,-354.5"/>
<text text-anchor="start" x="38" y="-452.3" font-family="Times,serif" font-size="14.00">0x7f890f0:</text>
<text text-anchor="start" x="38" y="-437.3" font-family="Times,serif" font-size="14.00"> g40 = g29</text>
<text text-anchor="start" x="38" y="-422.3" font-family="Times,serif" font-size="14.00"> v1 = g36</text>
<text text-anchor="start" x="38" y="-407.3" font-family="Times,serif" font-size="14.00"> g41 = v1</text>
<text text-anchor="start" x="38" y="-392.3" font-family="Times,serif" font-size="14.00"> g39 = g30</text>
<text text-anchor="start" x="38" y="-377.3" font-family="Times,serif" font-size="14.00"> len = strlen(IntToPtrCastExpr&lt;ptr&gt;(v1))</text>
<text text-anchor="start" x="38" y="-362.3" font-family="Times,serif" font-size="14.00"> g6 = (len &gt;= g39)</text>
</g>
<!-- Node0x37591d80&#45;&gt;Node0x37591ee0 -->
<g id="edge1" class="edge"><title>Node0x37591d80&#45;&gt;Node0x37591ee0</title>
<path fill="none" stroke="black" d="M188.5,-505.234C188.5,-497.586 188.5,-488.056 188.5,-478.033"/>
<polygon fill="black" stroke="black" points="192,-477.897 188.5,-467.897 185,-477.897 192,-477.897"/>
</g>
<!-- Node0x37594cf0 -->
<g id="node3" class="node"><title>Node0x37594cf0</title>
<polygon fill="none" stroke="black" points="128.5,-278.5 128.5,-316.5 248.5,-316.5 248.5,-278.5 128.5,-278.5"/>
<text text-anchor="start" x="136.5" y="-301.3" font-family="Times,serif" font-size="14.00">0x7f8a430:</text>
<text text-anchor="start" x="136.5" y="-286.3" font-family="Times,serif" font-size="14.00"> if (len &lt; g39):</text>
</g>
<!-- Node0x37591ee0&#45;&gt;Node0x37594cf0 -->
<g id="edge2" class="edge"><title>Node0x37591ee0&#45;&gt;Node0x37594cf0</title>
<path fill="none" stroke="black" d="M188.5,-354.25C188.5,-344.862 188.5,-335.474 188.5,-327.151"/>
<polygon fill="black" stroke="black" points="192,-326.912 188.5,-316.912 185,-326.912 192,-326.912"/>
</g>
<!-- Node0x375923b0 -->
<g id="node4" class="node"><title>Node0x375923b0</title>
<polygon fill="none" stroke="black" points="66,-188.5 66,-226.5 195,-226.5 195,-188.5 66,-188.5"/>
<text text-anchor="start" x="74" y="-211.3" font-family="Times,serif" font-size="14.00">0x7f89ef0:</text>
<text text-anchor="start" x="74" y="-196.3" font-family="Times,serif" font-size="14.00"> g36 = (g39 &#45; 1)</text>
</g>
<!-- Node0x37594cf0&#45;&gt;Node0x375923b0 -->
<g id="edge3" class="edge"><title>Node0x37594cf0&#45;&gt;Node0x375923b0</title>
<path fill="none" stroke="black" d="M163.797,-278.272C157.819,-272.921 151.895,-266.691 147.5,-260 142.848,-252.917 139.366,-244.449 136.806,-236.445"/>
<polygon fill="black" stroke="black" points="140.136,-235.359 134.038,-226.695 133.402,-237.271 140.136,-235.359"/>
<text text-anchor="middle" x="182.5" y="-248.8" font-family="Times,serif" font-size="14.00">len &lt; g39</text>
</g>
<!-- Node0x37593580 -->
<g id="node5" class="node"><title>Node0x37593580</title>
<polygon fill="none" stroke="black" points="120.5,-97.5 120.5,-150.5 278.5,-150.5 278.5,-97.5 120.5,-97.5"/>
<text text-anchor="start" x="128.5" y="-135.3" font-family="Times,serif" font-size="14.00">0x7f8aa00:</text>
<text text-anchor="start" x="128.5" y="-120.3" font-family="Times,serif" font-size="14.00"> abort()</text>
<text text-anchor="start" x="128.5" y="-105.3" font-family="Times,serif" font-size="14.00"> # UNREACHABLE</text>
</g>
<!-- Node0x37594cf0&#45;&gt;Node0x37593580 -->
<g id="edge4" class="edge"><title>Node0x37594cf0&#45;&gt;Node0x37593580</title>
<path fill="none" stroke="black" d="M206.847,-278.284C211.182,-272.847 215.207,-266.572 217.5,-260 228.877,-227.391 221.412,-188.046 212.902,-160.266"/>
<polygon fill="black" stroke="black" points="216.176,-159.014 209.753,-150.588 209.519,-161.181 216.176,-159.014"/>
<text text-anchor="middle" x="264.5" y="-203.8" font-family="Times,serif" font-size="14.00">len &gt;= g39</text>
</g>
<!-- Node0x375923b0&#45;&gt;Node0x37593580 -->
<g id="edge5" class="edge"><title>Node0x375923b0&#45;&gt;Node0x37593580</title>
<path fill="none" stroke="black" d="M145.813,-188.413C153.28,-179.593 162.505,-168.697 171.189,-158.44"/>
<polygon fill="black" stroke="black" points="173.895,-160.66 177.686,-150.766 168.553,-156.137 173.895,-160.66"/>
</g>
<!-- Node0x375940f0 -->
<g id="node6" class="node"><title>Node0x375940f0</title>
<polygon fill="none" stroke="black" points="172.5,-23.5 172.5,-59.5 226.5,-59.5 226.5,-23.5 172.5,-23.5"/>
<text text-anchor="start" x="180.5" y="-37.8" font-family="Times,serif" font-size="14.00">exit:</text>
</g>
<!-- Node0x37593580&#45;&gt;Node0x375940f0 -->
<g id="edge6" class="edge"><title>Node0x37593580&#45;&gt;Node0x375940f0</title>
<path fill="none" stroke="black" d="M199.5,-97.0862C199.5,-88.4596 199.5,-78.8224 199.5,-70.0748"/>
<polygon fill="black" stroke="black" points="203,-69.9735 199.5,-59.9735 196,-69.9735 203,-69.9735"/>
</g>
</g>
</svg>
