<?xml version="1.0" encoding="UTF-8" standalone="no"?>
<!DOCTYPE svg PUBLIC "-//W3C//DTD SVG 1.1//EN"
 "http://www.w3.org/Graphics/SVG/1.1/DTD/svg11.dtd">
<!-- Generated by graphviz version 2.38.0 (20140413.2041)
 -->
<!-- Title: Control&#45;flow graph for function &#39;function_11914()&#39;. Pages: 1 -->
<svg width="457pt" height="516pt"
 viewBox="0.00 0.00 457.00 516.00" xmlns="http://www.w3.org/2000/svg" xmlns:xlink="http://www.w3.org/1999/xlink">
<g id="graph0" class="graph" transform="scale(1 1) rotate(0) translate(4 512)">
<title>Control&#45;flow graph for function &#39;function_11914()&#39;.</title>
<polygon fill="white" stroke="none" points="-4,4 -4,-512 453,-512 453,4 -4,4"/>
<text text-anchor="middle" x="224.5" y="-7.8" font-family="Times,serif" font-size="14.00">Control&#45;flow graph for function &#39;function_11914()&#39;.</text>
<!-- Node0x2cf10eb0 -->
<g id="node1" class="node"><title>Node0x2cf10eb0</title>
<polygon fill="none" stroke="black" points="195,-471.5 195,-507.5 254,-507.5 254,-471.5 195,-471.5"/>
<text text-anchor="start" x="203" y="-485.8" font-family="Times,serif" font-size="14.00">entry:</text>
</g>
<!-- Node0x1c724de0 -->
<g id="node2" class="node"><title>Node0x1c724de0</title>
<polygon fill="none" stroke="black" points="0,-96.5 0,-434.5 449,-434.5 449,-96.5 0,-96.5"/>
<text text-anchor="start" x="8" y="-419.3" font-family="Times,serif" font-size="14.00">0x1c800ce0:</text>
<text text-anchor="start" x="8" y="-404.3" font-family="Times,serif" font-size="14.00"> v1 = NULL</text>
<text text-anchor="start" x="8" y="-389.3" font-family="Times,serif" font-size="14.00"> v2 = *(IntToPtrCastExpr&lt;ptr&gt;((g29 + 21)))</text>
<text text-anchor="start" x="8" y="-374.3" font-family="Times,serif" font-size="14.00"> g37 = v2</text>
<text text-anchor="start" x="8" y="-359.3" font-family="Times,serif" font-size="14.00"> g9 = (v2 == 0)</text>
<text text-anchor="start" x="8" y="-344.3" font-family="Times,serif" font-size="14.00"> g34 = PtrToIntCastExpr&lt;int32&gt;(v1)</text>
<text text-anchor="start" x="8" y="-329.3" font-family="Times,serif" font-size="14.00"> IntToPtrCastExpr&lt;ptr&gt;(ExtCastExpr&lt;int32&gt;((v2 == 0)))()</text>
<text text-anchor="start" x="8" y="-314.3" font-family="Times,serif" font-size="14.00"> g38 = 0</text>
<text text-anchor="start" x="8" y="-299.3" font-family="Times,serif" font-size="14.00"> *(IntToPtrCastExpr&lt;ptr&gt;((g29 + 21))) = 0</text>
<text text-anchor="start" x="8" y="-284.3" font-family="Times,serif" font-size="14.00"> g29 = *(IntToPtrCastExpr&lt;ptr&gt;((g29 + 8)))</text>
<text text-anchor="start" x="8" y="-269.3" font-family="Times,serif" font-size="14.00"> function_6b00()</text>
<text text-anchor="start" x="8" y="-254.3" font-family="Times,serif" font-size="14.00"> g29 = *(IntToPtrCastExpr&lt;ptr&gt;(g39))</text>
<text text-anchor="start" x="8" y="-239.3" font-family="Times,serif" font-size="14.00"> v3 = g38</text>
<text text-anchor="start" x="8" y="-224.3" font-family="Times,serif" font-size="14.00"> g36 = v3</text>
<text text-anchor="start" x="8" y="-209.3" font-family="Times,serif" font-size="14.00"> g30 = 7</text>
<text text-anchor="start" x="8" y="-194.3" font-family="Times,serif" font-size="14.00"> g37 = v3</text>
<text text-anchor="start" x="8" y="-179.3" font-family="Times,serif" font-size="14.00"> g38 = *(IntToPtrCastExpr&lt;ptr&gt;(g34))</text>
<text text-anchor="start" x="8" y="-164.3" font-family="Times,serif" font-size="14.00"> g39 = v1[&#39;1&#39;]</text>
<text text-anchor="start" x="8" y="-149.3" font-family="Times,serif" font-size="14.00"> g32 = v1[&#39;2&#39;]</text>
<text text-anchor="start" x="8" y="-134.3" font-family="Times,serif" font-size="14.00"> g34 = v1[&#39;3&#39;]</text>
<text text-anchor="start" x="8" y="-119.3" font-family="Times,serif" font-size="14.00"> g35 = v1[&#39;4&#39;]</text>
<text text-anchor="start" x="8" y="-104.3" font-family="Times,serif" font-size="14.00"> function_10418()</text>
</g>
<!-- Node0x2cf10eb0&#45;&gt;Node0x1c724de0 -->
<g id="edge1" class="edge"><title>Node0x2cf10eb0&#45;&gt;Node0x1c724de0</title>
<path fill="none" stroke="black" d="M224.5,-471.449C224.5,-464.293 224.5,-455.224 224.5,-444.904"/>
<polygon fill="black" stroke="black" points="228,-444.648 224.5,-434.648 221,-444.648 228,-444.648"/>
</g>
<!-- Node0x43b9dad0 -->
<g id="node3" class="node"><title>Node0x43b9dad0</title>
<polygon fill="none" stroke="black" points="197.5,-23.5 197.5,-59.5 251.5,-59.5 251.5,-23.5 197.5,-23.5"/>
<text text-anchor="start" x="205.5" y="-37.8" font-family="Times,serif" font-size="14.00">exit:</text>
</g>
<!-- Node0x1c724de0&#45;&gt;Node0x43b9dad0 -->
<g id="edge2" class="edge"><title>Node0x1c724de0&#45;&gt;Node0x43b9dad0</title>
<path fill="none" stroke="black" d="M224.5,-96.24C224.5,-86.3752 224.5,-77.3412 224.5,-69.6101"/>
<polygon fill="black" stroke="black" points="228,-69.5972 224.5,-59.5972 221,-69.5973 228,-69.5972"/>
</g>
</g>
</svg>
