<?xml version="1.0" encoding="UTF-8" standalone="no"?>
<!DOCTYPE svg PUBLIC "-//W3C//DTD SVG 1.1//EN"
 "http://www.w3.org/Graphics/SVG/1.1/DTD/svg11.dtd">
<!-- Generated by graphviz version 2.38.0 (20140413.2041)
 -->
<!-- Title: Control&#45;flow graph for function &#39;function_20cc4()&#39;. Pages: 1 -->
<svg width="1026pt" height="3099pt"
 viewBox="0.00 0.00 1025.50 3099.00" xmlns="http://www.w3.org/2000/svg" xmlns:xlink="http://www.w3.org/1999/xlink">
<g id="graph0" class="graph" transform="scale(1 1) rotate(0) translate(4 3095)">
<title>Control&#45;flow graph for function &#39;function_20cc4()&#39;.</title>
<polygon fill="white" stroke="none" points="-4,4 -4,-3095 1021.5,-3095 1021.5,4 -4,4"/>
<text text-anchor="middle" x="508.75" y="-7.8" font-family="Times,serif" font-size="14.00">Control&#45;flow graph for function &#39;function_20cc4()&#39;.</text>
<!-- Node0x3fb70630 -->
<g id="node1" class="node"><title>Node0x3fb70630</title>
<polygon fill="none" stroke="black" points="343,-3054.5 343,-3090.5 402,-3090.5 402,-3054.5 343,-3054.5"/>
<text text-anchor="start" x="351" y="-3068.8" font-family="Times,serif" font-size="14.00">entry:</text>
</g>
<!-- Node0x20d4bf70 -->
<g id="node2" class="node"><title>Node0x20d4bf70</title>
<polygon fill="none" stroke="black" points="307.5,-2738.5 307.5,-3016.5 437.5,-3016.5 437.5,-2738.5 307.5,-2738.5"/>
<text text-anchor="start" x="315.5" y="-3001.3" font-family="Times,serif" font-size="14.00">0x34fcc0f0:</text>
<text text-anchor="start" x="315.5" y="-2986.3" font-family="Times,serif" font-size="14.00"> v1 = g38</text>
<text text-anchor="start" x="315.5" y="-2971.3" font-family="Times,serif" font-size="14.00"> v2 = g39</text>
<text text-anchor="start" x="315.5" y="-2956.3" font-family="Times,serif" font-size="14.00"> v3 = g32</text>
<text text-anchor="start" x="315.5" y="-2941.3" font-family="Times,serif" font-size="14.00"> v4 = g35</text>
<text text-anchor="start" x="315.5" y="-2926.3" font-family="Times,serif" font-size="14.00"> v5 = g30</text>
<text text-anchor="start" x="315.5" y="-2911.3" font-family="Times,serif" font-size="14.00"> g6 = True</text>
<text text-anchor="start" x="315.5" y="-2896.3" font-family="Times,serif" font-size="14.00"> g9 = (v5 == 0)</text>
<text text-anchor="start" x="315.5" y="-2881.3" font-family="Times,serif" font-size="14.00"> g38 = v5</text>
<text text-anchor="start" x="315.5" y="-2866.3" font-family="Times,serif" font-size="14.00"> g39 = g29</text>
<text text-anchor="start" x="315.5" y="-2851.3" font-family="Times,serif" font-size="14.00"> v6</text>
<text text-anchor="start" x="315.5" y="-2836.3" font-family="Times,serif" font-size="14.00"> v7</text>
<text text-anchor="start" x="315.5" y="-2821.3" font-family="Times,serif" font-size="14.00"> v8</text>
<text text-anchor="start" x="315.5" y="-2806.3" font-family="Times,serif" font-size="14.00"> v9</text>
<text text-anchor="start" x="315.5" y="-2791.3" font-family="Times,serif" font-size="14.00"> v10</text>
<text text-anchor="start" x="315.5" y="-2776.3" font-family="Times,serif" font-size="14.00"> v11</text>
<text text-anchor="start" x="315.5" y="-2761.3" font-family="Times,serif" font-size="14.00"> v12</text>
<text text-anchor="start" x="315.5" y="-2746.3" font-family="Times,serif" font-size="14.00"> v13</text>
</g>
<!-- Node0x3fb70630&#45;&gt;Node0x20d4bf70 -->
<g id="edge1" class="edge"><title>Node0x3fb70630&#45;&gt;Node0x20d4bf70</title>
<path fill="none" stroke="black" d="M372.5,-3054.37C372.5,-3046.96 372.5,-3037.53 372.5,-3026.92"/>
<polygon fill="black" stroke="black" points="376,-3026.85 372.5,-3016.85 369,-3026.85 376,-3026.85"/>
</g>
<!-- Node0x2956cf50 -->
<g id="node3" class="node"><title>Node0x2956cf50</title>
<polygon fill="none" stroke="black" points="317.5,-2662.5 317.5,-2700.5 427.5,-2700.5 427.5,-2662.5 317.5,-2662.5"/>
<text text-anchor="start" x="325.5" y="-2685.3" font-family="Times,serif" font-size="14.00">0x9fc43f0:</text>
<text text-anchor="start" x="325.5" y="-2670.3" font-family="Times,serif" font-size="14.00"> if (v5 == 0):</text>
</g>
<!-- Node0x20d4bf70&#45;&gt;Node0x2956cf50 -->
<g id="edge2" class="edge"><title>Node0x20d4bf70&#45;&gt;Node0x2956cf50</title>
<path fill="none" stroke="black" d="M372.5,-2738.35C372.5,-2728.21 372.5,-2718.8 372.5,-2710.71"/>
<polygon fill="black" stroke="black" points="376,-2710.55 372.5,-2700.55 369,-2710.55 376,-2710.55"/>
</g>
<!-- Node0x20d3ee00 -->
<g id="node4" class="node"><title>Node0x20d3ee00</title>
<polygon fill="none" stroke="black" points="80,-2110.5 80,-2538.5 437,-2538.5 437,-2110.5 80,-2110.5"/>
<text text-anchor="start" x="88" y="-2523.3" font-family="Times,serif" font-size="14.00">0x9fda270:</text>
<text text-anchor="start" x="88" y="-2508.3" font-family="Times,serif" font-size="14.00"> g29 = 0</text>
<text text-anchor="start" x="88" y="-2493.3" font-family="Times,serif" font-size="14.00"> g38 = v1</text>
<text text-anchor="start" x="88" y="-2478.3" font-family="Times,serif" font-size="14.00"> g39 = v2</text>
<text text-anchor="start" x="88" y="-2463.3" font-family="Times,serif" font-size="14.00"> g32 = v3</text>
<text text-anchor="start" x="88" y="-2448.3" font-family="Times,serif" font-size="14.00"> g34 = v7</text>
<text text-anchor="start" x="88" y="-2433.3" font-family="Times,serif" font-size="14.00"> IntToPtrCastExpr&lt;ptr&gt;(v4)()</text>
<text text-anchor="start" x="88" y="-2418.3" font-family="Times,serif" font-size="14.00"> v11 = g34</text>
<text text-anchor="start" x="88" y="-2403.3" font-family="Times,serif" font-size="14.00"> g33 = v11</text>
<text text-anchor="start" x="88" y="-2388.3" font-family="Times,serif" font-size="14.00"> *(IntToPtrCastExpr&lt;ptr&gt;((v11 &#45; 36))) = g38</text>
<text text-anchor="start" x="88" y="-2373.3" font-family="Times,serif" font-size="14.00"> *(IntToPtrCastExpr&lt;ptr&gt;((v11 &#45; 32))) = g39</text>
<text text-anchor="start" x="88" y="-2358.3" font-family="Times,serif" font-size="14.00"> *(IntToPtrCastExpr&lt;ptr&gt;((v11 &#45; 28))) = g40</text>
<text text-anchor="start" x="88" y="-2343.3" font-family="Times,serif" font-size="14.00"> *(IntToPtrCastExpr&lt;ptr&gt;((v11 &#45; 24))) = g41</text>
<text text-anchor="start" x="88" y="-2328.3" font-family="Times,serif" font-size="14.00"> *(IntToPtrCastExpr&lt;ptr&gt;((v11 &#45; 20))) = g42</text>
<text text-anchor="start" x="88" y="-2313.3" font-family="Times,serif" font-size="14.00"> *(IntToPtrCastExpr&lt;ptr&gt;((v11 &#45; 16))) = g32</text>
<text text-anchor="start" x="88" y="-2298.3" font-family="Times,serif" font-size="14.00"> *(IntToPtrCastExpr&lt;ptr&gt;((v11 &#45; 12))) = g33</text>
<text text-anchor="start" x="88" y="-2283.3" font-family="Times,serif" font-size="14.00"> *(IntToPtrCastExpr&lt;ptr&gt;((v11 &#45; 8))) = g35</text>
<text text-anchor="start" x="88" y="-2268.3" font-family="Times,serif" font-size="14.00"> *(IntToPtrCastExpr&lt;ptr&gt;((v11 &#45; 4))) = 134576</text>
<text text-anchor="start" x="88" y="-2253.3" font-family="Times,serif" font-size="14.00"> g32 = (g33 &#45; 4)</text>
<text text-anchor="start" x="88" y="-2238.3" font-family="Times,serif" font-size="14.00"> g34 = (v11 &#45; 40)</text>
<text text-anchor="start" x="88" y="-2223.3" font-family="Times,serif" font-size="14.00"> g40 = g30</text>
<text text-anchor="start" x="88" y="-2208.3" font-family="Times,serif" font-size="14.00"> g42 = g29</text>
<text text-anchor="start" x="88" y="-2193.3" font-family="Times,serif" font-size="14.00"> g29 = g36</text>
<text text-anchor="start" x="88" y="-2178.3" font-family="Times,serif" font-size="14.00"> function_20914()</text>
<text text-anchor="start" x="88" y="-2163.3" font-family="Times,serif" font-size="14.00"> v8 = g40</text>
<text text-anchor="start" x="88" y="-2148.3" font-family="Times,serif" font-size="14.00"> v12 = g29</text>
<text text-anchor="start" x="88" y="-2133.3" font-family="Times,serif" font-size="14.00"> g41 = v12</text>
<text text-anchor="start" x="88" y="-2118.3" font-family="Times,serif" font-size="14.00"> v13 = v12</text>
</g>
<!-- Node0x2956cf50&#45;&gt;Node0x20d3ee00 -->
<g id="edge3" class="edge"><title>Node0x2956cf50&#45;&gt;Node0x20d3ee00</title>
<path fill="none" stroke="black" d="M354.945,-2662.28C350.36,-2656.75 345.788,-2650.43 342.5,-2644 327.268,-2614.23 314.612,-2581.44 304.15,-2548.57"/>
<polygon fill="black" stroke="black" points="307.433,-2547.34 301.115,-2538.83 300.75,-2549.42 307.433,-2547.34"/>
<text text-anchor="middle" x="372.5" y="-2632.8" font-family="Times,serif" font-size="14.00">v5 == 0</text>
</g>
<!-- Node0x3fb70550 -->
<g id="node5" class="node"><title>Node0x3fb70550</title>
<polygon fill="none" stroke="black" points="407,-2557.5 407,-2610.5 504,-2610.5 504,-2557.5 407,-2557.5"/>
<text text-anchor="start" x="415" y="-2595.3" font-family="Times,serif" font-size="14.00">0x9fc4630:</text>
<text text-anchor="start" x="415" y="-2580.3" font-family="Times,serif" font-size="14.00"> g37 = 0</text>
<text text-anchor="start" x="415" y="-2565.3" font-family="Times,serif" font-size="14.00"> v14 = v5</text>
</g>
<!-- Node0x2956cf50&#45;&gt;Node0x3fb70550 -->
<g id="edge4" class="edge"><title>Node0x2956cf50&#45;&gt;Node0x3fb70550</title>
<path fill="none" stroke="black" d="M388.503,-2662.09C399.235,-2649.74 413.68,-2633.12 426.41,-2618.47"/>
<polygon fill="black" stroke="black" points="429.353,-2620.42 433.271,-2610.58 424.07,-2615.83 429.353,-2620.42"/>
<text text-anchor="middle" x="442.5" y="-2632.8" font-family="Times,serif" font-size="14.00">v5 != 0</text>
</g>
<!-- Node0x244c6820 -->
<g id="node6" class="node"><title>Node0x244c6820</title>
<polygon fill="none" stroke="black" points="163.5,-729.5 163.5,-767.5 273.5,-767.5 273.5,-729.5 163.5,-729.5"/>
<text text-anchor="start" x="171.5" y="-752.3" font-family="Times,serif" font-size="14.00">0x9fe06a0:</text>
<text text-anchor="start" x="171.5" y="-737.3" font-family="Times,serif" font-size="14.00"> if (v8 &gt;= 5):</text>
</g>
<!-- Node0x20d3ee00&#45;&gt;Node0x244c6820 -->
<g id="edge5" class="edge"><title>Node0x20d3ee00&#45;&gt;Node0x244c6820</title>
<path fill="none" stroke="black" d="M222.705,-2110.47C220.119,-2082.96 218.5,-2055.12 218.5,-2028.5 218.5,-2028.5 218.5,-2028.5 218.5,-1018.5 218.5,-930.796 218.5,-827.008 218.5,-777.931"/>
<polygon fill="black" stroke="black" points="222,-777.765 218.5,-767.765 215,-777.765 222,-777.765"/>
</g>
<!-- Node0x3fb6c850 -->
<g id="node7" class="node"><title>Node0x3fb6c850</title>
<polygon fill="none" stroke="black" points="433,-2053.5 433,-2091.5 552,-2091.5 552,-2053.5 433,-2053.5"/>
<text text-anchor="start" x="441" y="-2076.3" font-family="Times,serif" font-size="14.00">0x9fc77f0:</text>
<text text-anchor="start" x="441" y="-2061.3" font-family="Times,serif" font-size="14.00"> if (v5 &gt;= 32):</text>
</g>
<!-- Node0x3fb70550&#45;&gt;Node0x3fb6c850 -->
<g id="edge6" class="edge"><title>Node0x3fb70550&#45;&gt;Node0x3fb6c850</title>
<path fill="none" stroke="black" d="M457.36,-2557.38C463.627,-2471.09 483.937,-2191.41 490.462,-2101.57"/>
<polygon fill="black" stroke="black" points="493.954,-2101.8 491.187,-2091.58 486.972,-2101.3 493.954,-2101.8"/>
</g>
<!-- Node0x2a8b2360 -->
<g id="node8" class="node"><title>Node0x2a8b2360</title>
<polygon fill="none" stroke="black" points="11.5,-609.5 11.5,-677.5 205.5,-677.5 205.5,-609.5 11.5,-609.5"/>
<text text-anchor="start" x="19.5" y="-662.3" font-family="Times,serif" font-size="14.00">0x9fdfef0:</text>
<text text-anchor="start" x="19.5" y="-647.3" font-family="Times,serif" font-size="14.00"> g29 = ((v8 + 16) + v12)</text>
<text text-anchor="start" x="19.5" y="-632.3" font-family="Times,serif" font-size="14.00"> function_20914()</text>
<text text-anchor="start" x="19.5" y="-617.3" font-family="Times,serif" font-size="14.00"> v13 = g29</text>
</g>
<!-- Node0x244c6820&#45;&gt;Node0x2a8b2360 -->
<g id="edge7" class="edge"><title>Node0x244c6820&#45;&gt;Node0x2a8b2360</title>
<path fill="none" stroke="black" d="M190.899,-729.446C183.059,-723.872 174.701,-717.485 167.5,-711 158.807,-703.171 150.09,-694.149 142.124,-685.326"/>
<polygon fill="black" stroke="black" points="144.586,-682.827 135.337,-677.658 139.345,-687.466 144.586,-682.827"/>
<text text-anchor="middle" x="197.5" y="-699.8" font-family="Times,serif" font-size="14.00">v8 &gt;= 5</text>
</g>
<!-- Node0x40d78580 -->
<g id="node9" class="node"><title>Node0x40d78580</title>
<polygon fill="none" stroke="black" points="108.5,-458.5 108.5,-571.5 250.5,-571.5 250.5,-458.5 108.5,-458.5"/>
<text text-anchor="start" x="116.5" y="-556.3" font-family="Times,serif" font-size="14.00">0x9fe0800:</text>
<text text-anchor="start" x="116.5" y="-541.3" font-family="Times,serif" font-size="14.00"> g30 = v13</text>
<text text-anchor="start" x="116.5" y="-526.3" font-family="Times,serif" font-size="14.00"> g29 = g42</text>
<text text-anchor="start" x="116.5" y="-511.3" font-family="Times,serif" font-size="14.00"> function_20cc4()</text>
<text text-anchor="start" x="116.5" y="-496.3" font-family="Times,serif" font-size="14.00"> v9 = g29</text>
<text text-anchor="start" x="116.5" y="-481.3" font-family="Times,serif" font-size="14.00"> g6 = True</text>
<text text-anchor="start" x="116.5" y="-466.3" font-family="Times,serif" font-size="14.00"> g9 = (v9 == 0)</text>
</g>
<!-- Node0x244c6820&#45;&gt;Node0x40d78580 -->
<g id="edge8" class="edge"><title>Node0x244c6820&#45;&gt;Node0x40d78580</title>
<path fill="none" stroke="black" d="M223.862,-729.466C225.35,-723.629 226.76,-717.09 227.5,-711 228.304,-704.382 227.994,-702.648 227.5,-696 224.603,-657.012 224.329,-646.84 214.5,-609 212.15,-599.953 209.227,-590.571 206.079,-581.399"/>
<polygon fill="black" stroke="black" points="209.367,-580.2 202.731,-571.94 202.769,-582.535 209.367,-580.2"/>
<text text-anchor="middle" x="250.5" y="-639.8" font-family="Times,serif" font-size="14.00">v8 &lt; 5</text>
</g>
<!-- Node0x20d3df00 -->
<g id="node10" class="node"><title>Node0x20d3df00</title>
<polygon fill="none" stroke="black" points="247,-1858.5 247,-2001.5 738,-2001.5 738,-1858.5 247,-1858.5"/>
<text text-anchor="start" x="255" y="-1986.3" font-family="Times,serif" font-size="14.00">0x9fc5030:</text>
<text text-anchor="start" x="255" y="-1971.3" font-family="Times,serif" font-size="14.00"> g29 = v5</text>
<text text-anchor="start" x="255" y="-1956.3" font-family="Times,serif" font-size="14.00"> function_20a44()</text>
<text text-anchor="start" x="255" y="-1941.3" font-family="Times,serif" font-size="14.00"> v15 = ((g29 &#45; 5) % 256)</text>
<text text-anchor="start" x="255" y="-1926.3" font-family="Times,serif" font-size="14.00"> v16 = (0 if (v15 == 0) else (((1 &lt;&lt; v15) &#45; 1) if (v15 &lt; 32) else &#45;1))</text>
<text text-anchor="start" x="255" y="-1911.3" font-family="Times,serif" font-size="14.00"> g37 = v16</text>
<text text-anchor="start" x="255" y="-1896.3" font-family="Times,serif" font-size="14.00"> v17 = (v16 + g38)</text>
<text text-anchor="start" x="255" y="-1881.3" font-family="Times,serif" font-size="14.00"> g38 = v17</text>
<text text-anchor="start" x="255" y="-1866.3" font-family="Times,serif" font-size="14.00"> v14 = v17</text>
</g>
<!-- Node0x3fb6c850&#45;&gt;Node0x20d3df00 -->
<g id="edge9" class="edge"><title>Node0x3fb6c850&#45;&gt;Node0x20d3df00</title>
<path fill="none" stroke="black" d="M492.5,-2053.42C492.5,-2042.42 492.5,-2027.5 492.5,-2011.86"/>
<polygon fill="black" stroke="black" points="496,-2011.52 492.5,-2001.52 489,-2011.52 496,-2011.52"/>
<text text-anchor="middle" x="527" y="-2023.8" font-family="Times,serif" font-size="14.00">v5 &gt;= 32</text>
</g>
<!-- Node0x40d71850 -->
<g id="node11" class="node"><title>Node0x40d71850</title>
<polygon fill="none" stroke="black" points="371,-1527.5 371,-1820.5 726,-1820.5 726,-1527.5 371,-1527.5"/>
<text text-anchor="start" x="379" y="-1805.3" font-family="Times,serif" font-size="14.00">0x9fc79e0:</text>
<text text-anchor="start" x="379" y="-1790.3" font-family="Times,serif" font-size="14.00"> g29 = v14</text>
<text text-anchor="start" x="379" y="-1775.3" font-family="Times,serif" font-size="14.00"> function_20a58()</text>
<text text-anchor="start" x="379" y="-1760.3" font-family="Times,serif" font-size="14.00"> g38 = 0</text>
<text text-anchor="start" x="379" y="-1745.3" font-family="Times,serif" font-size="14.00"> v18 = *(IntToPtrCastExpr&lt;ptr&gt;((g39 + 32)))</text>
<text text-anchor="start" x="379" y="-1730.3" font-family="Times,serif" font-size="14.00"> g36 = v18</text>
<text text-anchor="start" x="379" y="-1715.3" font-family="Times,serif" font-size="14.00"> g30 = &#45;1</text>
<text text-anchor="start" x="379" y="-1700.3" font-family="Times,serif" font-size="14.00"> g29 = v18</text>
<text text-anchor="start" x="379" y="-1685.3" font-family="Times,serif" font-size="14.00"> function_20cb0()</text>
<text text-anchor="start" x="379" y="-1670.3" font-family="Times,serif" font-size="14.00"> v19 = g29</text>
<text text-anchor="start" x="379" y="-1655.3" font-family="Times,serif" font-size="14.00"> v20 = g39</text>
<text text-anchor="start" x="379" y="-1640.3" font-family="Times,serif" font-size="14.00"> v21 = ((4 * (v19 + (32 * g38))) + v20)</text>
<text text-anchor="start" x="379" y="-1625.3" font-family="Times,serif" font-size="14.00"> g37 = v21</text>
<text text-anchor="start" x="379" y="-1610.3" font-family="Times,serif" font-size="14.00"> v22 = *(IntToPtrCastExpr&lt;ptr&gt;((v21 + 128)))</text>
<text text-anchor="start" x="379" y="-1595.3" font-family="Times,serif" font-size="14.00"> g38 = v22</text>
<text text-anchor="start" x="379" y="-1580.3" font-family="Times,serif" font-size="14.00"> g33 = v19</text>
<text text-anchor="start" x="379" y="-1565.3" font-family="Times,serif" font-size="14.00"> g6 = True</text>
<text text-anchor="start" x="379" y="-1550.3" font-family="Times,serif" font-size="14.00"> g9 = (v22 == 0)</text>
<text text-anchor="start" x="379" y="-1535.3" font-family="Times,serif" font-size="14.00"> v23</text>
</g>
<!-- Node0x3fb6c850&#45;&gt;Node0x40d71850 -->
<g id="edge10" class="edge"><title>Node0x3fb6c850&#45;&gt;Node0x40d71850</title>
<path fill="none" stroke="black" d="M552.08,-2063.64C619.757,-2053.35 723.893,-2032.9 747.5,-2002 786.352,-1951.14 773.224,-1916.6 747.5,-1858 743.059,-1847.88 737.751,-1838.08 731.774,-1828.61"/>
<polygon fill="black" stroke="black" points="734.532,-1826.44 726.103,-1820.02 728.689,-1830.29 734.532,-1826.44"/>
<text text-anchor="middle" x="800" y="-1926.3" font-family="Times,serif" font-size="14.00">v5 &lt; 32</text>
</g>
<!-- Node0x2a8b2360&#45;&gt;Node0x40d78580 -->
<g id="edge11" class="edge"><title>Node0x2a8b2360&#45;&gt;Node0x40d78580</title>
<path fill="none" stroke="black" d="M127.154,-609.264C132.175,-600.318 137.781,-590.33 143.407,-580.306"/>
<polygon fill="black" stroke="black" points="146.5,-581.947 148.342,-571.514 140.396,-578.521 146.5,-581.947"/>
</g>
<!-- Node0x244bff10 -->
<g id="node12" class="node"><title>Node0x244bff10</title>
<polygon fill="none" stroke="black" points="127.5,-382.5 127.5,-420.5 231.5,-420.5 231.5,-382.5 127.5,-382.5"/>
<text text-anchor="start" x="135.5" y="-405.3" font-family="Times,serif" font-size="14.00">0x9fe47e0:</text>
<text text-anchor="start" x="135.5" y="-390.3" font-family="Times,serif" font-size="14.00"> if (v9 != 0):</text>
</g>
<!-- Node0x40d78580&#45;&gt;Node0x244bff10 -->
<g id="edge12" class="edge"><title>Node0x40d78580&#45;&gt;Node0x244bff10</title>
<path fill="none" stroke="black" d="M179.5,-458.25C179.5,-448.862 179.5,-439.474 179.5,-431.151"/>
<polygon fill="black" stroke="black" points="183,-430.912 179.5,-420.912 176,-430.912 183,-430.912"/>
</g>
<!-- Node0x20d3df00&#45;&gt;Node0x40d71850 -->
<g id="edge13" class="edge"><title>Node0x20d3df00&#45;&gt;Node0x40d71850</title>
<path fill="none" stroke="black" d="M508.099,-1858.25C510.045,-1849.42 512.09,-1840.14 514.186,-1830.64"/>
<polygon fill="black" stroke="black" points="517.65,-1831.18 516.385,-1820.66 510.814,-1829.67 517.65,-1831.18"/>
</g>
<!-- Node0xf115190 -->
<g id="node13" class="node"><title>Node0xf115190</title>
<polygon fill="none" stroke="black" points="492,-1436.5 492,-1489.5 605,-1489.5 605,-1436.5 492,-1436.5"/>
<text text-anchor="start" x="500" y="-1474.3" font-family="Times,serif" font-size="14.00">0x9fcbc30:</text>
<text text-anchor="start" x="500" y="-1459.3" font-family="Times,serif" font-size="14.00"> if (v22 != 0):</text>
<text text-anchor="start" x="500" y="-1444.3" font-family="Times,serif" font-size="14.00"> else:</text>
</g>
<!-- Node0x40d71850&#45;&gt;Node0xf115190 -->
<g id="edge14" class="edge"><title>Node0x40d71850&#45;&gt;Node0xf115190</title>
<path fill="none" stroke="black" d="M548.5,-1527.27C548.5,-1517.37 548.5,-1508.06 548.5,-1499.78"/>
<polygon fill="black" stroke="black" points="552,-1499.53 548.5,-1489.53 545,-1499.53 552,-1499.53"/>
</g>
<!-- Node0x1e6fbef0 -->
<g id="node14" class="node"><title>Node0x1e6fbef0</title>
<polygon fill="none" stroke="black" points="0,-157.5 0,-270.5 143,-270.5 143,-157.5 0,-157.5"/>
<text text-anchor="start" x="8" y="-255.3" font-family="Times,serif" font-size="14.00">0x9fe4a10:</text>
<text text-anchor="start" x="8" y="-240.3" font-family="Times,serif" font-size="14.00"> v10 = (v9 + 8)</text>
<text text-anchor="start" x="8" y="-225.3" font-family="Times,serif" font-size="14.00"> g38 = v10</text>
<text text-anchor="start" x="8" y="-210.3" font-family="Times,serif" font-size="14.00"> g29 = v10</text>
<text text-anchor="start" x="8" y="-195.3" font-family="Times,serif" font-size="14.00"> g30 = g40</text>
<text text-anchor="start" x="8" y="-180.3" font-family="Times,serif" font-size="14.00"> function_20900()</text>
<text text-anchor="start" x="8" y="-165.3" font-family="Times,serif" font-size="14.00"> return</text>
</g>
<!-- Node0x244bff10&#45;&gt;Node0x1e6fbef0 -->
<g id="edge15" class="edge"><title>Node0x244bff10&#45;&gt;Node0x1e6fbef0</title>
<path fill="none" stroke="black" d="M168.948,-382.376C155.198,-358.76 130.417,-316.195 109.286,-279.901"/>
<polygon fill="black" stroke="black" points="112.058,-277.705 104.001,-270.824 106.008,-281.227 112.058,-277.705"/>
<text text-anchor="middle" x="183.5" y="-352.8" font-family="Times,serif" font-size="14.00">v9 != 0</text>
</g>
<!-- Node0xf113750 -->
<g id="node15" class="node"><title>Node0xf113750</title>
<polygon fill="none" stroke="black" points="161.5,-97.5 161.5,-330.5 499.5,-330.5 499.5,-97.5 161.5,-97.5"/>
<text text-anchor="start" x="169.5" y="-315.3" font-family="Times,serif" font-size="14.00">0x9fe1410:</text>
<text text-anchor="start" x="169.5" y="-300.3" font-family="Times,serif" font-size="14.00"> g29 = g42</text>
<text text-anchor="start" x="169.5" y="-285.3" font-family="Times,serif" font-size="14.00"> g30 = 0</text>
<text text-anchor="start" x="169.5" y="-270.3" font-family="Times,serif" font-size="14.00"> g36 = g41</text>
<text text-anchor="start" x="169.5" y="-255.3" font-family="Times,serif" font-size="14.00"> v6 = g34</text>
<text text-anchor="start" x="169.5" y="-240.3" font-family="Times,serif" font-size="14.00"> g38 = *(IntToPtrCastExpr&lt;ptr&gt;((v6 + 4)))</text>
<text text-anchor="start" x="169.5" y="-225.3" font-family="Times,serif" font-size="14.00"> g39 = *(IntToPtrCastExpr&lt;ptr&gt;((v6 + 8)))</text>
<text text-anchor="start" x="169.5" y="-210.3" font-family="Times,serif" font-size="14.00"> g40 = *(IntToPtrCastExpr&lt;ptr&gt;((v6 + 12)))</text>
<text text-anchor="start" x="169.5" y="-195.3" font-family="Times,serif" font-size="14.00"> g41 = *(IntToPtrCastExpr&lt;ptr&gt;((v6 + 16)))</text>
<text text-anchor="start" x="169.5" y="-180.3" font-family="Times,serif" font-size="14.00"> g42 = *(IntToPtrCastExpr&lt;ptr&gt;((v6 + 20)))</text>
<text text-anchor="start" x="169.5" y="-165.3" font-family="Times,serif" font-size="14.00"> g32 = *(IntToPtrCastExpr&lt;ptr&gt;((v6 + 24)))</text>
<text text-anchor="start" x="169.5" y="-150.3" font-family="Times,serif" font-size="14.00"> g34 = *(IntToPtrCastExpr&lt;ptr&gt;((v6 + 28)))</text>
<text text-anchor="start" x="169.5" y="-135.3" font-family="Times,serif" font-size="14.00"> g35 = *(IntToPtrCastExpr&lt;ptr&gt;((v6 + 32)))</text>
<text text-anchor="start" x="169.5" y="-120.3" font-family="Times,serif" font-size="14.00"> function_20b30()</text>
<text text-anchor="start" x="169.5" y="-105.3" font-family="Times,serif" font-size="14.00"> return</text>
</g>
<!-- Node0x244bff10&#45;&gt;Node0xf113750 -->
<g id="edge16" class="edge"><title>Node0x244bff10&#45;&gt;Node0xf113750</title>
<path fill="none" stroke="black" d="M197.684,-382.276C203.211,-376.542 209.217,-370.11 214.5,-364 221.559,-355.836 228.721,-347.308 235.843,-338.644"/>
<polygon fill="black" stroke="black" points="238.753,-340.614 242.368,-330.655 233.331,-336.186 238.753,-340.614"/>
<text text-anchor="middle" x="254.5" y="-352.8" font-family="Times,serif" font-size="14.00">v9 == 0</text>
</g>
<!-- Node0x244c0380 -->
<g id="node16" class="node"><title>Node0x244c0380</title>
<polygon fill="none" stroke="black" points="421,-1271.5 421,-1384.5 564,-1384.5 564,-1271.5 421,-1271.5"/>
<text text-anchor="start" x="429" y="-1369.3" font-family="Times,serif" font-size="14.00">0x9fcad10:</text>
<text text-anchor="start" x="429" y="-1354.3" font-family="Times,serif" font-size="14.00"> g29 = v20</text>
<text text-anchor="start" x="429" y="-1339.3" font-family="Times,serif" font-size="14.00"> g37 = v19</text>
<text text-anchor="start" x="429" y="-1324.3" font-family="Times,serif" font-size="14.00"> g30 = v22</text>
<text text-anchor="start" x="429" y="-1309.3" font-family="Times,serif" font-size="14.00"> g36 = 0</text>
<text text-anchor="start" x="429" y="-1294.3" font-family="Times,serif" font-size="14.00"> function_2093c()</text>
<text text-anchor="start" x="429" y="-1279.3" font-family="Times,serif" font-size="14.00"> v23 = g38</text>
</g>
<!-- Node0xf115190&#45;&gt;Node0x244c0380 -->
<g id="edge17" class="edge"><title>Node0xf115190&#45;&gt;Node0x244c0380</title>
<path fill="none" stroke="black" d="M537.703,-1436.36C532.57,-1424.17 526.179,-1408.99 519.833,-1393.92"/>
<polygon fill="black" stroke="black" points="523.006,-1392.43 515.899,-1384.57 516.554,-1395.15 523.006,-1392.43"/>
<text text-anchor="middle" x="560" y="-1406.8" font-family="Times,serif" font-size="14.00">v22 != 0</text>
</g>
<!-- Node0x20d40e80 -->
<g id="node17" class="node"><title>Node0x20d40e80</title>
<polygon fill="none" stroke="black" points="582,-1309 582,-1347 679,-1347 679,-1309 582,-1309"/>
<text text-anchor="start" x="590" y="-1331.8" font-family="Times,serif" font-size="14.00">0x9fcbd50:</text>
<text text-anchor="start" x="590" y="-1316.8" font-family="Times,serif" font-size="14.00"> v23 = 0</text>
</g>
<!-- Node0xf115190&#45;&gt;Node0x20d40e80 -->
<g id="edge18" class="edge"><title>Node0xf115190&#45;&gt;Node0x20d40e80</title>
<path fill="none" stroke="black" d="M579.919,-1436.32C585.599,-1430.7 591.105,-1424.47 595.5,-1418 608.19,-1399.31 617.277,-1375.35 623.007,-1357"/>
<polygon fill="black" stroke="black" points="626.429,-1357.77 625.92,-1347.19 619.719,-1355.78 626.429,-1357.77"/>
<text text-anchor="middle" x="638" y="-1406.8" font-family="Times,serif" font-size="14.00">v22 == 0</text>
</g>
<!-- Node0x40423060 -->
<g id="node18" class="node"><title>Node0x40423060</title>
<polygon fill="none" stroke="black" points="432.5,-23.5 432.5,-59.5 486.5,-59.5 486.5,-23.5 432.5,-23.5"/>
<text text-anchor="start" x="440.5" y="-37.8" font-family="Times,serif" font-size="14.00">exit:</text>
</g>
<!-- Node0x1e6fbef0&#45;&gt;Node0x40423060 -->
<g id="edge19" class="edge"><title>Node0x1e6fbef0&#45;&gt;Node0x40423060</title>
<path fill="none" stroke="black" d="M98.0875,-157.339C111.408,-135.221 129.627,-111.611 152.5,-97 196.759,-68.7274 350.299,-52.0032 422.031,-45.5638"/>
<polygon fill="black" stroke="black" points="422.75,-49.0143 432.405,-44.6532 422.137,-42.0411 422.75,-49.0143"/>
</g>
<!-- Node0xf113750&#45;&gt;Node0x40423060 -->
<g id="edge20" class="edge"><title>Node0xf113750&#45;&gt;Node0x40423060</title>
<path fill="none" stroke="black" d="M417.974,-97.3858C426.111,-86.6308 433.687,-76.6175 440.081,-68.1667"/>
<polygon fill="black" stroke="black" points="443.047,-70.0466 446.29,-59.9601 437.465,-65.823 443.047,-70.0466"/>
</g>
<!-- Node0x3e06ca50 -->
<g id="node19" class="node"><title>Node0x3e06ca50</title>
<polygon fill="none" stroke="black" points="384,-805.5 384,-1233.5 741,-1233.5 741,-805.5 384,-805.5"/>
<text text-anchor="start" x="392" y="-1218.3" font-family="Times,serif" font-size="14.00">0x9fcbf70:</text>
<text text-anchor="start" x="392" y="-1203.3" font-family="Times,serif" font-size="14.00"> g29 = v23</text>
<text text-anchor="start" x="392" y="-1188.3" font-family="Times,serif" font-size="14.00"> g38 = v1</text>
<text text-anchor="start" x="392" y="-1173.3" font-family="Times,serif" font-size="14.00"> g39 = v2</text>
<text text-anchor="start" x="392" y="-1158.3" font-family="Times,serif" font-size="14.00"> g32 = v3</text>
<text text-anchor="start" x="392" y="-1143.3" font-family="Times,serif" font-size="14.00"> g34 = v7</text>
<text text-anchor="start" x="392" y="-1128.3" font-family="Times,serif" font-size="14.00"> IntToPtrCastExpr&lt;ptr&gt;(v4)()</text>
<text text-anchor="start" x="392" y="-1113.3" font-family="Times,serif" font-size="14.00"> v11 = g34</text>
<text text-anchor="start" x="392" y="-1098.3" font-family="Times,serif" font-size="14.00"> g33 = v11</text>
<text text-anchor="start" x="392" y="-1083.3" font-family="Times,serif" font-size="14.00"> *(IntToPtrCastExpr&lt;ptr&gt;((v11 &#45; 36))) = g38</text>
<text text-anchor="start" x="392" y="-1068.3" font-family="Times,serif" font-size="14.00"> *(IntToPtrCastExpr&lt;ptr&gt;((v11 &#45; 32))) = g39</text>
<text text-anchor="start" x="392" y="-1053.3" font-family="Times,serif" font-size="14.00"> *(IntToPtrCastExpr&lt;ptr&gt;((v11 &#45; 28))) = g40</text>
<text text-anchor="start" x="392" y="-1038.3" font-family="Times,serif" font-size="14.00"> *(IntToPtrCastExpr&lt;ptr&gt;((v11 &#45; 24))) = g41</text>
<text text-anchor="start" x="392" y="-1023.3" font-family="Times,serif" font-size="14.00"> *(IntToPtrCastExpr&lt;ptr&gt;((v11 &#45; 20))) = g42</text>
<text text-anchor="start" x="392" y="-1008.3" font-family="Times,serif" font-size="14.00"> *(IntToPtrCastExpr&lt;ptr&gt;((v11 &#45; 16))) = g32</text>
<text text-anchor="start" x="392" y="-993.3" font-family="Times,serif" font-size="14.00"> *(IntToPtrCastExpr&lt;ptr&gt;((v11 &#45; 12))) = g33</text>
<text text-anchor="start" x="392" y="-978.3" font-family="Times,serif" font-size="14.00"> *(IntToPtrCastExpr&lt;ptr&gt;((v11 &#45; 8))) = g35</text>
<text text-anchor="start" x="392" y="-963.3" font-family="Times,serif" font-size="14.00"> *(IntToPtrCastExpr&lt;ptr&gt;((v11 &#45; 4))) = 134576</text>
<text text-anchor="start" x="392" y="-948.3" font-family="Times,serif" font-size="14.00"> g32 = (g33 &#45; 4)</text>
<text text-anchor="start" x="392" y="-933.3" font-family="Times,serif" font-size="14.00"> g34 = (v11 &#45; 40)</text>
<text text-anchor="start" x="392" y="-918.3" font-family="Times,serif" font-size="14.00"> g40 = g30</text>
<text text-anchor="start" x="392" y="-903.3" font-family="Times,serif" font-size="14.00"> g42 = g29</text>
<text text-anchor="start" x="392" y="-888.3" font-family="Times,serif" font-size="14.00"> g29 = g36</text>
<text text-anchor="start" x="392" y="-873.3" font-family="Times,serif" font-size="14.00"> function_20914()</text>
<text text-anchor="start" x="392" y="-858.3" font-family="Times,serif" font-size="14.00"> v8 = g40</text>
<text text-anchor="start" x="392" y="-843.3" font-family="Times,serif" font-size="14.00"> v12 = g29</text>
<text text-anchor="start" x="392" y="-828.3" font-family="Times,serif" font-size="14.00"> g41 = v12</text>
<text text-anchor="start" x="392" y="-813.3" font-family="Times,serif" font-size="14.00"> v13 = v12</text>
</g>
<!-- Node0x244c0380&#45;&gt;Node0x3e06ca50 -->
<g id="edge21" class="edge"><title>Node0x244c0380&#45;&gt;Node0x3e06ca50</title>
<path fill="none" stroke="black" d="M505.176,-1271.5C507.156,-1262.83 509.3,-1253.44 511.555,-1243.57"/>
<polygon fill="black" stroke="black" points="515.032,-1244.06 513.847,-1233.53 508.208,-1242.5 515.032,-1244.06"/>
</g>
<!-- Node0x20d40e80&#45;&gt;Node0x3e06ca50 -->
<g id="edge22" class="edge"><title>Node0x20d40e80&#45;&gt;Node0x3e06ca50</title>
<path fill="none" stroke="black" d="M626.45,-1308.74C623.114,-1293.71 617.978,-1270.56 612.035,-1243.77"/>
<polygon fill="black" stroke="black" points="615.394,-1242.75 609.811,-1233.75 608.56,-1244.27 615.394,-1242.75"/>
</g>
<!-- Node0x20d3b1d0 -->
<g id="node20" class="node"><title>Node0x20d3b1d0</title>
<polygon fill="none" stroke="black" points="507.5,-729.5 507.5,-767.5 617.5,-767.5 617.5,-729.5 507.5,-729.5"/>
<text text-anchor="start" x="515.5" y="-752.3" font-family="Times,serif" font-size="14.00">0x9fd3dc0:</text>
<text text-anchor="start" x="515.5" y="-737.3" font-family="Times,serif" font-size="14.00"> if (v8 &gt;= 5):</text>
</g>
<!-- Node0x3e06ca50&#45;&gt;Node0x20d3b1d0 -->
<g id="edge23" class="edge"><title>Node0x3e06ca50&#45;&gt;Node0x20d3b1d0</title>
<path fill="none" stroke="black" d="M562.5,-805.237C562.5,-794.891 562.5,-785.505 562.5,-777.509"/>
<polygon fill="black" stroke="black" points="566,-777.509 562.5,-767.509 559,-777.509 566,-777.509"/>
</g>
<!-- Node0x36091890 -->
<g id="node21" class="node"><title>Node0x36091890</title>
<polygon fill="none" stroke="black" points="447.5,-609.5 447.5,-677.5 641.5,-677.5 641.5,-609.5 447.5,-609.5"/>
<text text-anchor="start" x="455.5" y="-662.3" font-family="Times,serif" font-size="14.00">0x9fd3430:</text>
<text text-anchor="start" x="455.5" y="-647.3" font-family="Times,serif" font-size="14.00"> g29 = ((v8 + 16) + v12)</text>
<text text-anchor="start" x="455.5" y="-632.3" font-family="Times,serif" font-size="14.00"> function_20914()</text>
<text text-anchor="start" x="455.5" y="-617.3" font-family="Times,serif" font-size="14.00"> v13 = g29</text>
</g>
<!-- Node0x20d3b1d0&#45;&gt;Node0x36091890 -->
<g id="edge24" class="edge"><title>Node0x20d3b1d0&#45;&gt;Node0x36091890</title>
<path fill="none" stroke="black" d="M559.282,-729.086C557.28,-717.631 554.617,-702.39 552.102,-688.003"/>
<polygon fill="black" stroke="black" points="555.479,-686.992 550.31,-677.743 548.583,-688.197 555.479,-686.992"/>
<text text-anchor="middle" x="585.5" y="-699.8" font-family="Times,serif" font-size="14.00">v8 &gt;= 5</text>
</g>
<!-- Node0x20d465b0 -->
<g id="node22" class="node"><title>Node0x20d465b0</title>
<polygon fill="none" stroke="black" points="553.5,-458.5 553.5,-571.5 695.5,-571.5 695.5,-458.5 553.5,-458.5"/>
<text text-anchor="start" x="561.5" y="-556.3" font-family="Times,serif" font-size="14.00">0x9fd3f40:</text>
<text text-anchor="start" x="561.5" y="-541.3" font-family="Times,serif" font-size="14.00"> g30 = v13</text>
<text text-anchor="start" x="561.5" y="-526.3" font-family="Times,serif" font-size="14.00"> g29 = g42</text>
<text text-anchor="start" x="561.5" y="-511.3" font-family="Times,serif" font-size="14.00"> function_20cc4()</text>
<text text-anchor="start" x="561.5" y="-496.3" font-family="Times,serif" font-size="14.00"> v9 = g29</text>
<text text-anchor="start" x="561.5" y="-481.3" font-family="Times,serif" font-size="14.00"> g6 = True</text>
<text text-anchor="start" x="561.5" y="-466.3" font-family="Times,serif" font-size="14.00"> g9 = (v9 == 0)</text>
</g>
<!-- Node0x20d3b1d0&#45;&gt;Node0x20d465b0 -->
<g id="edge25" class="edge"><title>Node0x20d3b1d0&#45;&gt;Node0x20d465b0</title>
<path fill="none" stroke="black" d="M601.008,-729.302C620.349,-717.726 641.54,-700.625 650.5,-678 662.614,-647.411 658.505,-611.448 650.345,-581.186"/>
<polygon fill="black" stroke="black" points="653.706,-580.212 647.569,-571.576 646.981,-582.154 653.706,-580.212"/>
<text text-anchor="middle" x="681.5" y="-639.8" font-family="Times,serif" font-size="14.00">v8 &lt; 5</text>
</g>
<!-- Node0x36091890&#45;&gt;Node0x20d465b0 -->
<g id="edge26" class="edge"><title>Node0x36091890&#45;&gt;Node0x20d465b0</title>
<path fill="none" stroke="black" d="M565.519,-609.264C571.233,-600.228 577.621,-590.128 584.024,-580.002"/>
<polygon fill="black" stroke="black" points="587.006,-581.836 589.393,-571.514 581.09,-578.094 587.006,-581.836"/>
</g>
<!-- Node0x3e8e0400 -->
<g id="node23" class="node"><title>Node0x3e8e0400</title>
<polygon fill="none" stroke="black" points="572.5,-382.5 572.5,-420.5 676.5,-420.5 676.5,-382.5 572.5,-382.5"/>
<text text-anchor="start" x="580.5" y="-405.3" font-family="Times,serif" font-size="14.00">0x9fd9060:</text>
<text text-anchor="start" x="580.5" y="-390.3" font-family="Times,serif" font-size="14.00"> if (v9 != 0):</text>
</g>
<!-- Node0x20d465b0&#45;&gt;Node0x3e8e0400 -->
<g id="edge27" class="edge"><title>Node0x20d465b0&#45;&gt;Node0x3e8e0400</title>
<path fill="none" stroke="black" d="M624.5,-458.25C624.5,-448.862 624.5,-439.474 624.5,-431.151"/>
<polygon fill="black" stroke="black" points="628,-430.912 624.5,-420.912 621,-430.912 628,-430.912"/>
</g>
<!-- Node0x1e6f9920 -->
<g id="node24" class="node"><title>Node0x1e6f9920</title>
<polygon fill="none" stroke="black" points="518,-157.5 518,-270.5 661,-270.5 661,-157.5 518,-157.5"/>
<text text-anchor="start" x="526" y="-255.3" font-family="Times,serif" font-size="14.00">0x9fd9440:</text>
<text text-anchor="start" x="526" y="-240.3" font-family="Times,serif" font-size="14.00"> v10 = (v9 + 8)</text>
<text text-anchor="start" x="526" y="-225.3" font-family="Times,serif" font-size="14.00"> g38 = v10</text>
<text text-anchor="start" x="526" y="-210.3" font-family="Times,serif" font-size="14.00"> g29 = v10</text>
<text text-anchor="start" x="526" y="-195.3" font-family="Times,serif" font-size="14.00"> g30 = g40</text>
<text text-anchor="start" x="526" y="-180.3" font-family="Times,serif" font-size="14.00"> function_20900()</text>
<text text-anchor="start" x="526" y="-165.3" font-family="Times,serif" font-size="14.00"> return</text>
</g>
<!-- Node0x3e8e0400&#45;&gt;Node0x1e6f9920 -->
<g id="edge28" class="edge"><title>Node0x3e8e0400&#45;&gt;Node0x1e6f9920</title>
<path fill="none" stroke="black" d="M621.08,-382.376C616.662,-358.96 608.729,-316.915 601.92,-280.825"/>
<polygon fill="black" stroke="black" points="605.326,-280.002 600.033,-270.824 598.448,-281.3 605.326,-280.002"/>
<text text-anchor="middle" x="643.5" y="-352.8" font-family="Times,serif" font-size="14.00">v9 != 0</text>
</g>
<!-- Node0x2446b430 -->
<g id="node25" class="node"><title>Node0x2446b430</title>
<polygon fill="none" stroke="black" points="679.5,-105 679.5,-323 1017.5,-323 1017.5,-105 679.5,-105"/>
<text text-anchor="start" x="687.5" y="-307.8" font-family="Times,serif" font-size="14.00">0x9fd5210:</text>
<text text-anchor="start" x="687.5" y="-292.8" font-family="Times,serif" font-size="14.00"> g29 = g42</text>
<text text-anchor="start" x="687.5" y="-277.8" font-family="Times,serif" font-size="14.00"> g30 = 0</text>
<text text-anchor="start" x="687.5" y="-262.8" font-family="Times,serif" font-size="14.00"> g36 = g41</text>
<text text-anchor="start" x="687.5" y="-247.8" font-family="Times,serif" font-size="14.00"> v6 = g34</text>
<text text-anchor="start" x="687.5" y="-232.8" font-family="Times,serif" font-size="14.00"> g38 = *(IntToPtrCastExpr&lt;ptr&gt;((v6 + 4)))</text>
<text text-anchor="start" x="687.5" y="-217.8" font-family="Times,serif" font-size="14.00"> g39 = *(IntToPtrCastExpr&lt;ptr&gt;((v6 + 8)))</text>
<text text-anchor="start" x="687.5" y="-202.8" font-family="Times,serif" font-size="14.00"> g40 = *(IntToPtrCastExpr&lt;ptr&gt;((v6 + 12)))</text>
<text text-anchor="start" x="687.5" y="-187.8" font-family="Times,serif" font-size="14.00"> g41 = *(IntToPtrCastExpr&lt;ptr&gt;((v6 + 16)))</text>
<text text-anchor="start" x="687.5" y="-172.8" font-family="Times,serif" font-size="14.00"> g42 = *(IntToPtrCastExpr&lt;ptr&gt;((v6 + 20)))</text>
<text text-anchor="start" x="687.5" y="-157.8" font-family="Times,serif" font-size="14.00"> g32 = *(IntToPtrCastExpr&lt;ptr&gt;((v6 + 24)))</text>
<text text-anchor="start" x="687.5" y="-142.8" font-family="Times,serif" font-size="14.00"> g34 = *(IntToPtrCastExpr&lt;ptr&gt;((v6 + 28)))</text>
<text text-anchor="start" x="687.5" y="-127.8" font-family="Times,serif" font-size="14.00"> g35 = *(IntToPtrCastExpr&lt;ptr&gt;((v6 + 32)))</text>
<text text-anchor="start" x="687.5" y="-112.8" font-family="Times,serif" font-size="14.00"> function_20b30()</text>
</g>
<!-- Node0x3e8e0400&#45;&gt;Node0x2446b430 -->
<g id="edge29" class="edge"><title>Node0x3e8e0400&#45;&gt;Node0x2446b430</title>
<path fill="none" stroke="black" d="M649.965,-382.494C657.92,-376.715 666.662,-370.202 674.5,-364 688.316,-353.069 702.56,-341.459 716.671,-329.734"/>
<polygon fill="black" stroke="black" points="719.054,-332.303 724.493,-323.211 714.571,-326.927 719.054,-332.303"/>
<text text-anchor="middle" x="718.5" y="-352.8" font-family="Times,serif" font-size="14.00">v9 == 0</text>
</g>
<!-- Node0x1e6f9920&#45;&gt;Node0x40423060 -->
<g id="edge30" class="edge"><title>Node0x1e6f9920&#45;&gt;Node0x40423060</title>
<path fill="none" stroke="black" d="M552.733,-157.411C539.314,-137.928 523.695,-116.142 508.5,-97 500.546,-86.9798 491.281,-76.4234 482.962,-67.2978"/>
<polygon fill="black" stroke="black" points="485.304,-64.6745 475.952,-59.6961 480.159,-69.4201 485.304,-64.6745"/>
</g>
<!-- Node0x2446b430&#45;&gt;Node0x40423060 -->
<g id="edge31" class="edge"><title>Node0x2446b430&#45;&gt;Node0x40423060</title>
<path fill="none" stroke="black" d="M687.5,-104.954C681.829,-102.154 676.154,-99.492 670.5,-97 612.451,-71.4127 539.925,-55.9633 496.789,-48.3485"/>
<polygon fill="black" stroke="black" points="497.192,-44.8664 486.743,-46.6234 496.007,-51.7654 497.192,-44.8664"/>
</g>
</g>
</svg>
