<?xml version="1.0" encoding="UTF-8" standalone="no"?>
<!DOCTYPE svg PUBLIC "-//W3C//DTD SVG 1.1//EN"
 "http://www.w3.org/Graphics/SVG/1.1/DTD/svg11.dtd">
<!-- Generated by graphviz version 2.38.0 (20140413.2041)
 -->
<!-- Title: Control&#45;flow graph for function &#39;function_16730()&#39;. Pages: 1 -->
<svg width="901pt" height="1695pt"
 viewBox="0.00 0.00 901.00 1695.00" xmlns="http://www.w3.org/2000/svg" xmlns:xlink="http://www.w3.org/1999/xlink">
<g id="graph0" class="graph" transform="scale(1 1) rotate(0) translate(4 1691)">
<title>Control&#45;flow graph for function &#39;function_16730()&#39;.</title>
<polygon fill="white" stroke="none" points="-4,4 -4,-1691 897,-1691 897,4 -4,4"/>
<text text-anchor="middle" x="446.5" y="-7.8" font-family="Times,serif" font-size="14.00">Control&#45;flow graph for function &#39;function_16730()&#39;.</text>
<!-- Node0x37ef2650 -->
<g id="node1" class="node"><title>Node0x37ef2650</title>
<polygon fill="none" stroke="black" points="444.5,-1650.5 444.5,-1686.5 503.5,-1686.5 503.5,-1650.5 444.5,-1650.5"/>
<text text-anchor="start" x="452.5" y="-1664.8" font-family="Times,serif" font-size="14.00">entry:</text>
</g>
<!-- Node0x3eaeee50 -->
<g id="node2" class="node"><title>Node0x3eaeee50</title>
<polygon fill="none" stroke="black" points="409,-1514.5 409,-1612.5 539,-1612.5 539,-1514.5 409,-1514.5"/>
<text text-anchor="start" x="417" y="-1597.3" font-family="Times,serif" font-size="14.00">0x8502d30:</text>
<text text-anchor="start" x="417" y="-1582.3" font-family="Times,serif" font-size="14.00"> v1</text>
<text text-anchor="start" x="417" y="-1567.3" font-family="Times,serif" font-size="14.00"> v2 = g18</text>
<text text-anchor="start" x="417" y="-1552.3" font-family="Times,serif" font-size="14.00"> g37 = v2</text>
<text text-anchor="start" x="417" y="-1537.3" font-family="Times,serif" font-size="14.00"> g6 = True</text>
<text text-anchor="start" x="417" y="-1522.3" font-family="Times,serif" font-size="14.00"> g9 = (v2 == 0)</text>
</g>
<!-- Node0x37ef2650&#45;&gt;Node0x3eaeee50 -->
<g id="edge1" class="edge"><title>Node0x37ef2650&#45;&gt;Node0x3eaeee50</title>
<path fill="none" stroke="black" d="M474,-1650.49C474,-1642.69 474,-1632.94 474,-1622.83"/>
<polygon fill="black" stroke="black" points="477.5,-1622.66 474,-1612.66 470.5,-1622.66 477.5,-1622.66"/>
</g>
<!-- Node0x15164e50 -->
<g id="node3" class="node"><title>Node0x15164e50</title>
<polygon fill="none" stroke="black" points="419,-1438.5 419,-1476.5 529,-1476.5 529,-1438.5 419,-1438.5"/>
<text text-anchor="start" x="427" y="-1461.3" font-family="Times,serif" font-size="14.00">0x84eba90:</text>
<text text-anchor="start" x="427" y="-1446.3" font-family="Times,serif" font-size="14.00"> if (v2 == 0):</text>
</g>
<!-- Node0x3eaeee50&#45;&gt;Node0x15164e50 -->
<g id="edge2" class="edge"><title>Node0x3eaeee50&#45;&gt;Node0x15164e50</title>
<path fill="none" stroke="black" d="M474,-1514.46C474,-1504.95 474,-1495.27 474,-1486.69"/>
<polygon fill="black" stroke="black" points="477.5,-1486.51 474,-1476.51 470.5,-1486.51 477.5,-1486.51"/>
</g>
<!-- Node0x2e9144a0 -->
<g id="node4" class="node"><title>Node0x2e9144a0</title>
<polygon fill="none" stroke="black" points="374.5,-1348.5 374.5,-1386.5 475.5,-1386.5 475.5,-1348.5 374.5,-1348.5"/>
<text text-anchor="start" x="382.5" y="-1371.3" font-family="Times,serif" font-size="14.00">0x84eb510:</text>
<text text-anchor="start" x="382.5" y="-1356.3" font-family="Times,serif" font-size="14.00"> g29 = 6</text>
</g>
<!-- Node0x15164e50&#45;&gt;Node0x2e9144a0 -->
<g id="edge3" class="edge"><title>Node0x15164e50&#45;&gt;Node0x2e9144a0</title>
<path fill="none" stroke="black" d="M452.427,-1438.41C447.051,-1432.98 441.756,-1426.67 438,-1420 433.973,-1412.85 431.175,-1404.45 429.238,-1396.52"/>
<polygon fill="black" stroke="black" points="432.623,-1395.61 427.156,-1386.54 425.77,-1397.04 432.623,-1395.61"/>
<text text-anchor="middle" x="468" y="-1408.8" font-family="Times,serif" font-size="14.00">v2 == 0</text>
</g>
<!-- Node0x4760ad10 -->
<g id="node5" class="node"><title>Node0x4760ad10</title>
<polygon fill="none" stroke="black" points="259.5,-1212.5 259.5,-1310.5 708.5,-1310.5 708.5,-1212.5 259.5,-1212.5"/>
<text text-anchor="start" x="267.5" y="-1295.3" font-family="Times,serif" font-size="14.00">0x1d10cea0:</text>
<text text-anchor="start" x="267.5" y="-1280.3" font-family="Times,serif" font-size="14.00"> v3 = v1[&#39;0&#39;]</text>
<text text-anchor="start" x="267.5" y="-1265.3" font-family="Times,serif" font-size="14.00"> IntToPtrCastExpr&lt;ptr&gt;(ExtCastExpr&lt;int32&gt;((v2 == 0)))()</text>
<text text-anchor="start" x="267.5" y="-1250.3" font-family="Times,serif" font-size="14.00"> v4 = g39</text>
<text text-anchor="start" x="267.5" y="-1235.3" font-family="Times,serif" font-size="14.00"> g6 = True</text>
<text text-anchor="start" x="267.5" y="-1220.3" font-family="Times,serif" font-size="14.00"> g9 = (v4 == 0)</text>
</g>
<!-- Node0x15164e50&#45;&gt;Node0x4760ad10 -->
<g id="edge4" class="edge"><title>Node0x15164e50&#45;&gt;Node0x4760ad10</title>
<path fill="none" stroke="black" d="M488.969,-1438.23C492.652,-1432.7 496.086,-1426.39 498,-1420 507.583,-1387.98 504.886,-1350.8 499.421,-1320.61"/>
<polygon fill="black" stroke="black" points="502.828,-1319.79 497.475,-1310.65 495.958,-1321.14 502.828,-1319.79"/>
<text text-anchor="middle" x="532" y="-1363.8" font-family="Times,serif" font-size="14.00">v2 != 0</text>
</g>
<!-- Node0x2e9144a0&#45;&gt;Node0x4760ad10 -->
<g id="edge5" class="edge"><title>Node0x2e9144a0&#45;&gt;Node0x4760ad10</title>
<path fill="none" stroke="black" d="M435.277,-1348.38C439.92,-1340.2 445.688,-1330.03 451.613,-1319.59"/>
<polygon fill="black" stroke="black" points="454.715,-1321.21 456.605,-1310.79 448.626,-1317.76 454.715,-1321.21"/>
</g>
<!-- Node0x2462bd70 -->
<g id="node6" class="node"><title>Node0x2462bd70</title>
<polygon fill="none" stroke="black" points="429,-1136.5 429,-1174.5 539,-1174.5 539,-1136.5 429,-1136.5"/>
<text text-anchor="start" x="437" y="-1159.3" font-family="Times,serif" font-size="14.00">0x84ed790:</text>
<text text-anchor="start" x="437" y="-1144.3" font-family="Times,serif" font-size="14.00"> if (v4 == 0):</text>
</g>
<!-- Node0x4760ad10&#45;&gt;Node0x2462bd70 -->
<g id="edge6" class="edge"><title>Node0x4760ad10&#45;&gt;Node0x2462bd70</title>
<path fill="none" stroke="black" d="M484,-1212.46C484,-1202.95 484,-1193.27 484,-1184.69"/>
<polygon fill="black" stroke="black" points="487.5,-1184.51 484,-1174.51 480.5,-1184.51 487.5,-1184.51"/>
</g>
<!-- Node0x2e9145a0 -->
<g id="node7" class="node"><title>Node0x2e9145a0</title>
<polygon fill="none" stroke="black" points="384.5,-1046.5 384.5,-1084.5 485.5,-1084.5 485.5,-1046.5 384.5,-1046.5"/>
<text text-anchor="start" x="392.5" y="-1069.3" font-family="Times,serif" font-size="14.00">0x84ed480:</text>
<text text-anchor="start" x="392.5" y="-1054.3" font-family="Times,serif" font-size="14.00"> g29 = 4</text>
</g>
<!-- Node0x2462bd70&#45;&gt;Node0x2e9145a0 -->
<g id="edge7" class="edge"><title>Node0x2462bd70&#45;&gt;Node0x2e9145a0</title>
<path fill="none" stroke="black" d="M462.427,-1136.41C457.051,-1130.98 451.756,-1124.67 448,-1118 443.973,-1110.85 441.175,-1102.45 439.238,-1094.52"/>
<polygon fill="black" stroke="black" points="442.623,-1093.61 437.156,-1084.54 435.77,-1095.04 442.623,-1093.61"/>
<text text-anchor="middle" x="478" y="-1106.8" font-family="Times,serif" font-size="14.00">v4 == 0</text>
</g>
<!-- Node0x2462a7f0 -->
<g id="node8" class="node"><title>Node0x2462a7f0</title>
<polygon fill="none" stroke="black" points="95,-760.5 95,-1008.5 893,-1008.5 893,-760.5 95,-760.5"/>
<text text-anchor="start" x="103" y="-993.3" font-family="Times,serif" font-size="14.00">0x38fa8fc0:</text>
<text text-anchor="start" x="103" y="-978.3" font-family="Times,serif" font-size="14.00"> v5 = *(IntToPtrCastExpr&lt;ptr&gt;(v3))</text>
<text text-anchor="start" x="103" y="-963.3" font-family="Times,serif" font-size="14.00"> v6 = *(IntToPtrCastExpr&lt;ptr&gt;((v3 + 4)))</text>
<text text-anchor="start" x="103" y="-948.3" font-family="Times,serif" font-size="14.00"> str = IntToPtrCastExpr&lt;ptr&gt;(v6)</text>
<text text-anchor="start" x="103" y="-933.3" font-family="Times,serif" font-size="14.00"> g32 = *(IntToPtrCastExpr&lt;ptr&gt;((v3 + 16)))</text>
<text text-anchor="start" x="103" y="-918.3" font-family="Times,serif" font-size="14.00"> g34 = *(IntToPtrCastExpr&lt;ptr&gt;((v3 + 20)))</text>
<text text-anchor="start" x="103" y="-903.3" font-family="Times,serif" font-size="14.00"> IntToPtrCastExpr&lt;ptr&gt;(ExtCastExpr&lt;int32&gt;((v4 == 0)))()</text>
<text text-anchor="start" x="103" y="-888.3" font-family="Times,serif" font-size="14.00"> g29 = (v5 + 188)</text>
<text text-anchor="start" x="103" y="-873.3" font-family="Times,serif" font-size="14.00"> function_13fa8()</text>
<text text-anchor="start" x="103" y="-858.3" font-family="Times,serif" font-size="14.00"> strcpy(str, IntToPtrCastExpr&lt;ptr&gt;(v5))</text>
<text text-anchor="start" x="103" y="-843.3" font-family="Times,serif" font-size="14.00"> strcpy(str, IntToPtrCastExpr&lt;ptr&gt;((v5 + 16)))</text>
<text text-anchor="start" x="103" y="-828.3" font-family="Times,serif" font-size="14.00"> strcpy(IntToPtrCastExpr&lt;ptr&gt;((v6 + 214)), IntToPtrCastExpr&lt;ptr&gt;(*(IntToPtrCastExpr&lt;ptr&gt;((v3 + 12)))))</text>
<text text-anchor="start" x="103" y="-813.3" font-family="Times,serif" font-size="14.00"> strcpy(IntToPtrCastExpr&lt;ptr&gt;((v6 + 276)), IntToPtrCastExpr&lt;ptr&gt;((v5 + 80)))</text>
<text text-anchor="start" x="103" y="-798.3" font-family="Times,serif" font-size="14.00"> v7 = *(IntToPtrCastExpr&lt;ptr&gt;((v5 + 2852)))</text>
<text text-anchor="start" x="103" y="-783.3" font-family="Times,serif" font-size="14.00"> g6 = (v7 &gt; 8)</text>
<text text-anchor="start" x="103" y="-768.3" font-family="Times,serif" font-size="14.00"> g9 = (v7 == 9)</text>
</g>
<!-- Node0x2462bd70&#45;&gt;Node0x2462a7f0 -->
<g id="edge8" class="edge"><title>Node0x2462bd70&#45;&gt;Node0x2462a7f0</title>
<path fill="none" stroke="black" d="M498.969,-1136.23C502.652,-1130.7 506.086,-1124.39 508,-1118 509.912,-1111.61 508.214,-1109.66 508,-1103 507.123,-1075.72 505.628,-1046.54 503.934,-1018.7"/>
<polygon fill="black" stroke="black" points="507.414,-1018.27 503.301,-1008.51 500.428,-1018.71 507.414,-1018.27"/>
<text text-anchor="middle" x="535" y="-1061.8" font-family="Times,serif" font-size="14.00">v4 != 0</text>
</g>
<!-- Node0x2e9145a0&#45;&gt;Node0x2462a7f0 -->
<g id="edge9" class="edge"><title>Node0x2e9145a0&#45;&gt;Node0x2462a7f0</title>
<path fill="none" stroke="black" d="M440.982,-1046.35C443.497,-1038.72 446.659,-1029.13 450.181,-1018.44"/>
<polygon fill="black" stroke="black" points="453.555,-1019.39 453.361,-1008.79 446.907,-1017.2 453.555,-1019.39"/>
</g>
<!-- Node0x1516b330 -->
<g id="node9" class="node"><title>Node0x1516b330</title>
<polygon fill="none" stroke="black" points="445,-669.5 445,-722.5 543,-722.5 543,-669.5 445,-669.5"/>
<text text-anchor="start" x="453" y="-707.3" font-family="Times,serif" font-size="14.00">0x84f49d0:</text>
<text text-anchor="start" x="453" y="-692.3" font-family="Times,serif" font-size="14.00"> if (v7 &gt; 9):</text>
<text text-anchor="start" x="453" y="-677.3" font-family="Times,serif" font-size="14.00"> else:</text>
</g>
<!-- Node0x2462a7f0&#45;&gt;Node0x1516b330 -->
<g id="edge10" class="edge"><title>Node0x2462a7f0&#45;&gt;Node0x1516b330</title>
<path fill="none" stroke="black" d="M494,-760.401C494,-750.46 494,-741.025 494,-732.619"/>
<polygon fill="black" stroke="black" points="497.5,-732.559 494,-722.559 490.5,-732.559 497.5,-732.559"/>
</g>
<!-- Node0x246910e0 -->
<g id="node10" class="node"><title>Node0x246910e0</title>
<polygon fill="none" stroke="black" points="358.5,-579.5 358.5,-617.5 495.5,-617.5 495.5,-579.5 358.5,-579.5"/>
<text text-anchor="start" x="366.5" y="-602.3" font-family="Times,serif" font-size="14.00">0x84f4f00:</text>
<text text-anchor="start" x="366.5" y="-587.3" font-family="Times,serif" font-size="14.00"> g37 = (v7 &#45; 624)</text>
</g>
<!-- Node0x1516b330&#45;&gt;Node0x246910e0 -->
<g id="edge11" class="edge"><title>Node0x1516b330&#45;&gt;Node0x246910e0</title>
<path fill="none" stroke="black" d="M472.043,-669.426C467.248,-663.501 462.32,-657.132 458,-651 452.497,-643.19 446.966,-634.38 442.13,-626.284"/>
<polygon fill="black" stroke="black" points="445.08,-624.396 437.004,-617.538 439.041,-627.935 445.08,-624.396"/>
<text text-anchor="middle" x="488" y="-639.8" font-family="Times,serif" font-size="14.00">v7 &lt;= 9</text>
</g>
<!-- Node0xf7ce3e0 -->
<g id="node11" class="node"><title>Node0xf7ce3e0</title>
<polygon fill="none" stroke="black" points="182,-278.5 182,-541.5 816,-541.5 816,-278.5 182,-278.5"/>
<text text-anchor="start" x="190" y="-526.3" font-family="Times,serif" font-size="14.00">0x84f5c40:</text>
<text text-anchor="start" x="190" y="-511.3" font-family="Times,serif" font-size="14.00"> strncpy(IntToPtrCastExpr&lt;ptr&gt;((v6 + 356)), IntToPtrCastExpr&lt;ptr&gt;(v7), 0)</text>
<text text-anchor="start" x="190" y="-496.3" font-family="Times,serif" font-size="14.00"> g30 = &#45;6528</text>
<text text-anchor="start" x="190" y="-481.3" font-family="Times,serif" font-size="14.00"> g38 = 0</text>
<text text-anchor="start" x="190" y="-466.3" font-family="Times,serif" font-size="14.00"> *(IntToPtrCastExpr&lt;ptr&gt;((v6 + 373))) = 0</text>
<text text-anchor="start" x="190" y="-451.3" font-family="Times,serif" font-size="14.00"> strncpy(IntToPtrCastExpr&lt;ptr&gt;((v6 + 340)), IntToPtrCastExpr&lt;ptr&gt;((v7 &#45; 6528)), 0)</text>
<text text-anchor="start" x="190" y="-436.3" font-family="Times,serif" font-size="14.00"> v8 = g38</text>
<text text-anchor="start" x="190" y="-421.3" font-family="Times,serif" font-size="14.00"> g29 = v8</text>
<text text-anchor="start" x="190" y="-406.3" font-family="Times,serif" font-size="14.00"> *(IntToPtrCastExpr&lt;ptr&gt;((v6 + 357))) = TruncCastExpr&lt;int8&gt;(v8)</text>
<text text-anchor="start" x="190" y="-391.3" font-family="Times,serif" font-size="14.00"> v9 = g34</text>
<text text-anchor="start" x="190" y="-376.3" font-family="Times,serif" font-size="14.00"> g38 = *(IntToPtrCastExpr&lt;ptr&gt;(v9))</text>
<text text-anchor="start" x="190" y="-361.3" font-family="Times,serif" font-size="14.00"> g39 = *(IntToPtrCastExpr&lt;ptr&gt;((v9 + 4)))</text>
<text text-anchor="start" x="190" y="-346.3" font-family="Times,serif" font-size="14.00"> g40 = *(IntToPtrCastExpr&lt;ptr&gt;((v9 + 8)))</text>
<text text-anchor="start" x="190" y="-331.3" font-family="Times,serif" font-size="14.00"> g41 = *(IntToPtrCastExpr&lt;ptr&gt;((v9 + 12)))</text>
<text text-anchor="start" x="190" y="-316.3" font-family="Times,serif" font-size="14.00"> g32 = *(IntToPtrCastExpr&lt;ptr&gt;((v9 + 16)))</text>
<text text-anchor="start" x="190" y="-301.3" font-family="Times,serif" font-size="14.00"> g34 = *(IntToPtrCastExpr&lt;ptr&gt;((v9 + 20)))</text>
<text text-anchor="start" x="190" y="-286.3" font-family="Times,serif" font-size="14.00"> IntToPtrCastExpr&lt;ptr&gt;(*(IntToPtrCastExpr&lt;ptr&gt;((v9 + 24))))()</text>
</g>
<!-- Node0x1516b330&#45;&gt;Node0xf7ce3e0 -->
<g id="edge12" class="edge"><title>Node0x1516b330&#45;&gt;Node0xf7ce3e0</title>
<path fill="none" stroke="black" d="M510.731,-669.365C513.732,-663.548 516.409,-657.239 518,-651 519.647,-644.54 518.281,-642.661 518,-636 516.853,-608.791 514.93,-579.781 512.735,-551.951"/>
<polygon fill="black" stroke="black" points="516.206,-551.443 511.916,-541.756 509.229,-552.004 516.206,-551.443"/>
<text text-anchor="middle" x="541" y="-594.8" font-family="Times,serif" font-size="14.00">v7 &gt; 9</text>
</g>
<!-- Node0x246910e0&#45;&gt;Node0xf7ce3e0 -->
<g id="edge13" class="edge"><title>Node0x246910e0&#45;&gt;Node0xf7ce3e0</title>
<path fill="none" stroke="black" d="M434.035,-579.278C436.963,-571.693 440.642,-562.163 444.753,-551.516"/>
<polygon fill="black" stroke="black" points="448.131,-552.482 448.468,-541.892 441.601,-549.961 448.131,-552.482"/>
</g>
<!-- Node0x2e914380 -->
<g id="node12" class="node"><title>Node0x2e914380</title>
<polygon fill="none" stroke="black" points="450.5,-202.5 450.5,-240.5 547.5,-240.5 547.5,-202.5 450.5,-202.5"/>
<text text-anchor="start" x="458.5" y="-225.3" font-family="Times,serif" font-size="14.00">0x84fc550:</text>
<text text-anchor="start" x="458.5" y="-210.3" font-family="Times,serif" font-size="14.00"> if g9:</text>
</g>
<!-- Node0xf7ce3e0&#45;&gt;Node0x2e914380 -->
<g id="edge14" class="edge"><title>Node0xf7ce3e0&#45;&gt;Node0x2e914380</title>
<path fill="none" stroke="black" d="M499,-278.456C499,-268.355 499,-258.953 499,-250.849"/>
<polygon fill="black" stroke="black" points="502.5,-250.658 499,-240.658 495.5,-250.658 502.5,-250.658"/>
</g>
<!-- Node0x24691210 -->
<g id="node13" class="node"><title>Node0x24691210</title>
<polygon fill="none" stroke="black" points="0,-97.5 0,-150.5 540,-150.5 540,-97.5 0,-97.5"/>
<text text-anchor="start" x="8" y="-135.3" font-family="Times,serif" font-size="14.00">0x388b34d0:</text>
<text text-anchor="start" x="8" y="-120.3" font-family="Times,serif" font-size="14.00"> v10 = (g40 % 256)</text>
<text text-anchor="start" x="8" y="-105.3" font-family="Times,serif" font-size="14.00"> g30 = ((g38 &gt;&gt; (0 if (v10 == 0) else (31 if (v10 &gt; 31) else v10))) &amp; g29)</text>
</g>
<!-- Node0x2e914380&#45;&gt;Node0x24691210 -->
<g id="edge15" class="edge"><title>Node0x2e914380&#45;&gt;Node0x24691210</title>
<path fill="none" stroke="black" d="M455.658,-202.425C423.263,-188.915 378.279,-170.156 340.704,-154.486"/>
<polygon fill="black" stroke="black" points="341.899,-151.192 331.323,-150.573 339.205,-157.653 341.899,-151.192"/>
<text text-anchor="middle" x="415.5" y="-172.8" font-family="Times,serif" font-size="14.00">g9</text>
</g>
<!-- Node0x1516ab50 -->
<g id="node14" class="node"><title>Node0x1516ab50</title>
<polygon fill="none" stroke="black" points="466,-23.5 466,-59.5 520,-59.5 520,-23.5 466,-23.5"/>
<text text-anchor="start" x="474" y="-37.8" font-family="Times,serif" font-size="14.00">exit:</text>
</g>
<!-- Node0x2e914380&#45;&gt;Node0x1516ab50 -->
<g id="edge16" class="edge"><title>Node0x2e914380&#45;&gt;Node0x1516ab50</title>
<path fill="none" stroke="black" d="M517.065,-202.258C528.669,-189.194 542.707,-170.523 549,-151 556.363,-128.157 558.335,-119.11 549,-97 544.053,-85.2829 535.219,-74.8387 526.009,-66.3064"/>
<polygon fill="black" stroke="black" points="528.113,-63.4988 518.26,-59.603 523.533,-68.7926 528.113,-63.4988"/>
<text text-anchor="middle" x="583.5" y="-120.3" font-family="Times,serif" font-size="14.00">not (g9)</text>
</g>
<!-- Node0x24691210&#45;&gt;Node0x1516ab50 -->
<g id="edge17" class="edge"><title>Node0x24691210&#45;&gt;Node0x1516ab50</title>
<path fill="none" stroke="black" d="M340.865,-97.4187C379.187,-83.5851 424.927,-67.0734 456.18,-55.7917"/>
<polygon fill="black" stroke="black" points="457.572,-59.0101 465.79,-52.3226 455.195,-52.426 457.572,-59.0101"/>
</g>
</g>
</svg>
