<?xml version="1.0" encoding="UTF-8" standalone="no"?>
<!DOCTYPE svg PUBLIC "-//W3C//DTD SVG 1.1//EN"
 "http://www.w3.org/Graphics/SVG/1.1/DTD/svg11.dtd">
<!-- Generated by graphviz version 2.38.0 (20140413.2041)
 -->
<!-- Title: Control&#45;flow graph for function &#39;function_115a4()&#39;. Pages: 1 -->
<svg width="692pt" height="1031pt"
 viewBox="0.00 0.00 692.00 1031.00" xmlns="http://www.w3.org/2000/svg" xmlns:xlink="http://www.w3.org/1999/xlink">
<g id="graph0" class="graph" transform="scale(1 1) rotate(0) translate(4 1027)">
<title>Control&#45;flow graph for function &#39;function_115a4()&#39;.</title>
<polygon fill="white" stroke="none" points="-4,4 -4,-1027 688,-1027 688,4 -4,4"/>
<text text-anchor="middle" x="342" y="-7.8" font-family="Times,serif" font-size="14.00">Control&#45;flow graph for function &#39;function_115a4()&#39;.</text>
<!-- Node0x10879100 -->
<g id="node1" class="node"><title>Node0x10879100</title>
<polygon fill="none" stroke="black" points="343.5,-986.5 343.5,-1022.5 402.5,-1022.5 402.5,-986.5 343.5,-986.5"/>
<text text-anchor="start" x="351.5" y="-1000.8" font-family="Times,serif" font-size="14.00">entry:</text>
</g>
<!-- Node0x10879510 -->
<g id="node2" class="node"><title>Node0x10879510</title>
<polygon fill="none" stroke="black" points="208.5,-700.5 208.5,-948.5 537.5,-948.5 537.5,-700.5 208.5,-700.5"/>
<text text-anchor="start" x="216.5" y="-933.3" font-family="Times,serif" font-size="14.00">0x1c6d2ec0:</text>
<text text-anchor="start" x="216.5" y="-918.3" font-family="Times,serif" font-size="14.00"> v1 = g38</text>
<text text-anchor="start" x="216.5" y="-903.3" font-family="Times,serif" font-size="14.00"> v2 = g39</text>
<text text-anchor="start" x="216.5" y="-888.3" font-family="Times,serif" font-size="14.00"> v3 = g40</text>
<text text-anchor="start" x="216.5" y="-873.3" font-family="Times,serif" font-size="14.00"> v4 = g32</text>
<text text-anchor="start" x="216.5" y="-858.3" font-family="Times,serif" font-size="14.00"> v5 = g35</text>
<text text-anchor="start" x="216.5" y="-843.3" font-family="Times,serif" font-size="14.00"> v6 = g29</text>
<text text-anchor="start" x="216.5" y="-828.3" font-family="Times,serif" font-size="14.00"> g39 = v6</text>
<text text-anchor="start" x="216.5" y="-813.3" font-family="Times,serif" font-size="14.00"> g29 = *(IntToPtrCastExpr&lt;ptr&gt;((v6 + 4)))</text>
<text text-anchor="start" x="216.5" y="-798.3" font-family="Times,serif" font-size="14.00"> g40 = g30</text>
<text text-anchor="start" x="216.5" y="-783.3" font-family="Times,serif" font-size="14.00"> function_8ef0()</text>
<text text-anchor="start" x="216.5" y="-768.3" font-family="Times,serif" font-size="14.00"> v7 = g29</text>
<text text-anchor="start" x="216.5" y="-753.3" font-family="Times,serif" font-size="14.00"> g6 = True</text>
<text text-anchor="start" x="216.5" y="-738.3" font-family="Times,serif" font-size="14.00"> g38 = v7</text>
<text text-anchor="start" x="216.5" y="-723.3" font-family="Times,serif" font-size="14.00"> v8</text>
<text text-anchor="start" x="216.5" y="-708.3" font-family="Times,serif" font-size="14.00"> v9</text>
</g>
<!-- Node0x10879100&#45;&gt;Node0x10879510 -->
<g id="edge1" class="edge"><title>Node0x10879100&#45;&gt;Node0x10879510</title>
<path fill="none" stroke="black" d="M373,-986.433C373,-978.971 373,-969.495 373,-958.888"/>
<polygon fill="black" stroke="black" points="376.5,-958.854 373,-948.854 369.5,-958.854 376.5,-958.854"/>
</g>
<!-- Node0x1087bf40 -->
<g id="node3" class="node"><title>Node0x1087bf40</title>
<polygon fill="none" stroke="black" points="321,-624.5 321,-662.5 425,-662.5 425,-624.5 321,-624.5"/>
<text text-anchor="start" x="329" y="-647.3" font-family="Times,serif" font-size="14.00">0x7c515c0:</text>
<text text-anchor="start" x="329" y="-632.3" font-family="Times,serif" font-size="14.00"> if (v7 != 0):</text>
</g>
<!-- Node0x10879510&#45;&gt;Node0x1087bf40 -->
<g id="edge2" class="edge"><title>Node0x10879510&#45;&gt;Node0x1087bf40</title>
<path fill="none" stroke="black" d="M373,-700.156C373,-690.164 373,-680.832 373,-672.772"/>
<polygon fill="black" stroke="black" points="376.5,-672.628 373,-662.628 369.5,-672.628 376.5,-672.628"/>
</g>
<!-- Node0x1087da60 -->
<g id="node4" class="node"><title>Node0x1087da60</title>
<polygon fill="none" stroke="black" points="0,-482 0,-550 328,-550 328,-482 0,-482"/>
<text text-anchor="start" x="8" y="-534.8" font-family="Times,serif" font-size="14.00">0x24b6c500:</text>
<text text-anchor="start" x="8" y="-519.8" font-family="Times,serif" font-size="14.00"> v10 = *(IntToPtrCastExpr&lt;ptr&gt;((v7 + 8)))</text>
<text text-anchor="start" x="8" y="-504.8" font-family="Times,serif" font-size="14.00"> g37 = v10</text>
<text text-anchor="start" x="8" y="-489.8" font-family="Times,serif" font-size="14.00"> g9 = ((v10 &amp; 192) == 0)</text>
</g>
<!-- Node0x1087bf40&#45;&gt;Node0x1087da60 -->
<g id="edge3" class="edge"><title>Node0x1087bf40&#45;&gt;Node0x1087da60</title>
<path fill="none" stroke="black" d="M342.61,-624.251C312.738,-606.314 266.222,-578.382 228.149,-555.52"/>
<polygon fill="black" stroke="black" points="229.542,-552.274 219.168,-550.127 225.939,-558.276 229.542,-552.274"/>
<text text-anchor="middle" x="339" y="-594.8" font-family="Times,serif" font-size="14.00">v7 != 0</text>
</g>
<!-- Node0x38e75ef0 -->
<g id="node5" class="node"><title>Node0x38e75ef0</title>
<polygon fill="none" stroke="black" points="346,-459.5 346,-572.5 684,-572.5 684,-459.5 346,-459.5"/>
<text text-anchor="start" x="354" y="-557.3" font-family="Times,serif" font-size="14.00">0x7c4ee00:</text>
<text text-anchor="start" x="354" y="-542.3" font-family="Times,serif" font-size="14.00"> g29 = *(IntToPtrCastExpr&lt;ptr&gt;((g39 + 4)))</text>
<text text-anchor="start" x="354" y="-527.3" font-family="Times,serif" font-size="14.00"> g30 = g40</text>
<text text-anchor="start" x="354" y="-512.3" font-family="Times,serif" font-size="14.00"> function_95e0()</text>
<text text-anchor="start" x="354" y="-497.3" font-family="Times,serif" font-size="14.00"> v11 = g29</text>
<text text-anchor="start" x="354" y="-482.3" font-family="Times,serif" font-size="14.00"> g6 = True</text>
<text text-anchor="start" x="354" y="-467.3" font-family="Times,serif" font-size="14.00"> g9 = (v11 == 0)</text>
</g>
<!-- Node0x1087bf40&#45;&gt;Node0x38e75ef0 -->
<g id="edge4" class="edge"><title>Node0x1087bf40&#45;&gt;Node0x38e75ef0</title>
<path fill="none" stroke="black" d="M393.648,-624.251C407.176,-612.295 425.73,-595.897 444.26,-579.521"/>
<polygon fill="black" stroke="black" points="447.009,-581.761 452.185,-572.516 442.374,-576.516 447.009,-581.761"/>
<text text-anchor="middle" x="458" y="-594.8" font-family="Times,serif" font-size="14.00">v7 == 0</text>
</g>
<!-- Node0x1e9ecb10 -->
<g id="node6" class="node"><title>Node0x1e9ecb10</title>
<polygon fill="none" stroke="black" points="75,-368.5 75,-421.5 253,-421.5 253,-368.5 75,-368.5"/>
<text text-anchor="start" x="83" y="-406.3" font-family="Times,serif" font-size="14.00">0x7c52ab0:</text>
<text text-anchor="start" x="83" y="-391.3" font-family="Times,serif" font-size="14.00"> if ((v10 &amp; 192) == 0):</text>
<text text-anchor="start" x="83" y="-376.3" font-family="Times,serif" font-size="14.00"> else:</text>
</g>
<!-- Node0x1087da60&#45;&gt;Node0x1e9ecb10 -->
<g id="edge5" class="edge"><title>Node0x1087da60&#45;&gt;Node0x1e9ecb10</title>
<path fill="none" stroke="black" d="M164,-481.852C164,-466.43 164,-448.048 164,-432.257"/>
<polygon fill="black" stroke="black" points="167.5,-431.807 164,-421.807 160.5,-431.808 167.5,-431.807"/>
</g>
<!-- Node0x1e9ebc50 -->
<g id="node7" class="node"><title>Node0x1e9ebc50</title>
<polygon fill="none" stroke="black" points="455.5,-368.5 455.5,-421.5 574.5,-421.5 574.5,-368.5 455.5,-368.5"/>
<text text-anchor="start" x="463.5" y="-406.3" font-family="Times,serif" font-size="14.00">0x7c502e0:</text>
<text text-anchor="start" x="463.5" y="-391.3" font-family="Times,serif" font-size="14.00"> if (v11 == 0):</text>
<text text-anchor="start" x="463.5" y="-376.3" font-family="Times,serif" font-size="14.00"> else:</text>
</g>
<!-- Node0x38e75ef0&#45;&gt;Node0x1e9ebc50 -->
<g id="edge6" class="edge"><title>Node0x38e75ef0&#45;&gt;Node0x1e9ebc50</title>
<path fill="none" stroke="black" d="M515,-459.333C515,-449.958 515,-440.455 515,-431.761"/>
<polygon fill="black" stroke="black" points="518.5,-431.621 515,-421.621 511.5,-431.621 518.5,-431.621"/>
</g>
<!-- Node0x1087a060 -->
<g id="node8" class="node"><title>Node0x1087a060</title>
<polygon fill="none" stroke="black" points="124.5,-278.5 124.5,-316.5 225.5,-316.5 225.5,-278.5 124.5,-278.5"/>
<text text-anchor="start" x="132.5" y="-301.3" font-family="Times,serif" font-size="14.00">0x7c521b0:</text>
<text text-anchor="start" x="132.5" y="-286.3" font-family="Times,serif" font-size="14.00"> v9 = 1</text>
</g>
<!-- Node0x1e9ecb10&#45;&gt;Node0x1087a060 -->
<g id="edge7" class="edge"><title>Node0x1e9ecb10&#45;&gt;Node0x1087a060</title>
<path fill="none" stroke="black" d="M161.616,-368.305C161.157,-357.907 161.266,-345.824 163,-335 163.44,-332.254 164.055,-329.435 164.776,-326.639"/>
<polygon fill="black" stroke="black" points="168.21,-327.37 167.73,-316.786 161.505,-325.359 168.21,-327.37"/>
<text text-anchor="middle" x="227" y="-338.8" font-family="Times,serif" font-size="14.00">(v10 &amp; 192) == 0</text>
</g>
<!-- Node0x20baa510 -->
<g id="node9" class="node"><title>Node0x20baa510</title>
<polygon fill="none" stroke="black" points="257,-278.5 257,-316.5 357,-316.5 357,-278.5 257,-278.5"/>
<text text-anchor="start" x="265" y="-301.3" font-family="Times,serif" font-size="14.00">0x7c52c90:</text>
<text text-anchor="start" x="265" y="-286.3" font-family="Times,serif" font-size="14.00"> v9 = v7</text>
</g>
<!-- Node0x1e9ecb10&#45;&gt;Node0x20baa510 -->
<g id="edge8" class="edge"><title>Node0x1e9ecb10&#45;&gt;Node0x20baa510</title>
<path fill="none" stroke="black" d="M253.302,-375.124C267.275,-368.97 280.531,-360.813 291,-350 297.112,-343.688 300.893,-335.083 303.23,-326.714"/>
<polygon fill="black" stroke="black" points="306.682,-327.314 305.426,-316.794 299.848,-325.801 306.682,-327.314"/>
<text text-anchor="middle" x="362" y="-338.8" font-family="Times,serif" font-size="14.00">(v10 &amp; 192) != 0</text>
</g>
<!-- Node0x1087e460 -->
<g id="node10" class="node"><title>Node0x1087e460</title>
<polygon fill="none" stroke="black" points="431.5,-278.5 431.5,-316.5 524.5,-316.5 524.5,-278.5 431.5,-278.5"/>
<text text-anchor="start" x="439.5" y="-301.3" font-family="Times,serif" font-size="14.00">0x7c4ff70:</text>
<text text-anchor="start" x="439.5" y="-286.3" font-family="Times,serif" font-size="14.00"> v9 = 2</text>
</g>
<!-- Node0x1e9ebc50&#45;&gt;Node0x1087e460 -->
<g id="edge9" class="edge"><title>Node0x1e9ebc50&#45;&gt;Node0x1087e460</title>
<path fill="none" stroke="black" d="M499.667,-368.464C496.507,-362.537 493.412,-356.158 491,-350 488.133,-342.68 485.734,-334.524 483.809,-326.901"/>
<polygon fill="black" stroke="black" points="487.169,-325.901 481.478,-316.964 480.354,-327.5 487.169,-325.901"/>
<text text-anchor="middle" x="525.5" y="-338.8" font-family="Times,serif" font-size="14.00">v11 == 0</text>
</g>
<!-- Node0x1e9eb2a0 -->
<g id="node11" class="node"><title>Node0x1e9eb2a0</title>
<polygon fill="none" stroke="black" points="542.5,-278.5 542.5,-316.5 643.5,-316.5 643.5,-278.5 542.5,-278.5"/>
<text text-anchor="start" x="550.5" y="-301.3" font-family="Times,serif" font-size="14.00">0x7c50760:</text>
<text text-anchor="start" x="550.5" y="-286.3" font-family="Times,serif" font-size="14.00"> v9 = g38</text>
</g>
<!-- Node0x1e9ebc50&#45;&gt;Node0x1e9eb2a0 -->
<g id="edge10" class="edge"><title>Node0x1e9ebc50&#45;&gt;Node0x1e9eb2a0</title>
<path fill="none" stroke="black" d="M543.154,-368.412C548.982,-362.592 554.895,-356.271 560,-350 566.203,-342.38 572.234,-333.54 577.405,-325.358"/>
<polygon fill="black" stroke="black" points="580.395,-327.178 582.648,-316.826 574.431,-323.513 580.395,-327.178"/>
<text text-anchor="middle" x="601.5" y="-338.8" font-family="Times,serif" font-size="14.00">v11 != 0</text>
</g>
<!-- Node0x1e9ec420 -->
<g id="node12" class="node"><title>Node0x1e9ec420</title>
<polygon fill="none" stroke="black" points="138.5,-97.5 138.5,-240.5 371.5,-240.5 371.5,-97.5 138.5,-97.5"/>
<text text-anchor="start" x="146.5" y="-225.3" font-family="Times,serif" font-size="14.00">0x7c52eb0:</text>
<text text-anchor="start" x="146.5" y="-210.3" font-family="Times,serif" font-size="14.00"> g29 = v9</text>
<text text-anchor="start" x="146.5" y="-195.3" font-family="Times,serif" font-size="14.00"> g38 = v1</text>
<text text-anchor="start" x="146.5" y="-180.3" font-family="Times,serif" font-size="14.00"> g39 = v2</text>
<text text-anchor="start" x="146.5" y="-165.3" font-family="Times,serif" font-size="14.00"> g40 = v3</text>
<text text-anchor="start" x="146.5" y="-150.3" font-family="Times,serif" font-size="14.00"> g32 = v4</text>
<text text-anchor="start" x="146.5" y="-135.3" font-family="Times,serif" font-size="14.00"> g34 = v8</text>
<text text-anchor="start" x="146.5" y="-120.3" font-family="Times,serif" font-size="14.00"> IntToPtrCastExpr&lt;ptr&gt;(v5)()</text>
<text text-anchor="start" x="146.5" y="-105.3" font-family="Times,serif" font-size="14.00"> return</text>
</g>
<!-- Node0x1087a060&#45;&gt;Node0x1e9ec420 -->
<g id="edge11" class="edge"><title>Node0x1087a060&#45;&gt;Node0x1e9ec420</title>
<path fill="none" stroke="black" d="M186.462,-278.376C191.626,-270.21 198.115,-259.95 205.028,-249.018"/>
<polygon fill="black" stroke="black" points="207.995,-250.875 210.382,-240.552 202.079,-247.133 207.995,-250.875"/>
</g>
<!-- Node0x20baa510&#45;&gt;Node0x1e9ec420 -->
<g id="edge12" class="edge"><title>Node0x20baa510&#45;&gt;Node0x1e9ec420</title>
<path fill="none" stroke="black" d="M299.55,-278.376C296.292,-270.45 292.223,-260.551 287.878,-249.981"/>
<polygon fill="black" stroke="black" points="291.041,-248.47 284.002,-240.552 284.567,-251.132 291.041,-248.47"/>
</g>
<!-- Node0x1087df60 -->
<g id="node13" class="node"><title>Node0x1087df60</title>
<polygon fill="none" stroke="black" points="389.5,-105 389.5,-233 622.5,-233 622.5,-105 389.5,-105"/>
<text text-anchor="start" x="397.5" y="-217.8" font-family="Times,serif" font-size="14.00">0x7c50a70:</text>
<text text-anchor="start" x="397.5" y="-202.8" font-family="Times,serif" font-size="14.00"> g29 = v9</text>
<text text-anchor="start" x="397.5" y="-187.8" font-family="Times,serif" font-size="14.00"> g38 = v1</text>
<text text-anchor="start" x="397.5" y="-172.8" font-family="Times,serif" font-size="14.00"> g39 = v2</text>
<text text-anchor="start" x="397.5" y="-157.8" font-family="Times,serif" font-size="14.00"> g40 = v3</text>
<text text-anchor="start" x="397.5" y="-142.8" font-family="Times,serif" font-size="14.00"> g32 = v4</text>
<text text-anchor="start" x="397.5" y="-127.8" font-family="Times,serif" font-size="14.00"> g34 = v8</text>
<text text-anchor="start" x="397.5" y="-112.8" font-family="Times,serif" font-size="14.00"> IntToPtrCastExpr&lt;ptr&gt;(v5)()</text>
</g>
<!-- Node0x1087e460&#45;&gt;Node0x1087df60 -->
<g id="edge13" class="edge"><title>Node0x1087e460&#45;&gt;Node0x1087df60</title>
<path fill="none" stroke="black" d="M482.012,-278.376C484.133,-268.794 486.891,-256.33 489.78,-243.281"/>
<polygon fill="black" stroke="black" points="493.261,-243.747 492.005,-233.227 486.427,-242.234 493.261,-243.747"/>
</g>
<!-- Node0x1e9eb2a0&#45;&gt;Node0x1087df60 -->
<g id="edge14" class="edge"><title>Node0x1e9eb2a0&#45;&gt;Node0x1087df60</title>
<path fill="none" stroke="black" d="M580.535,-278.376C573.687,-268.418 564.698,-255.348 555.341,-241.743"/>
<polygon fill="black" stroke="black" points="558.035,-239.483 549.484,-233.227 552.267,-243.45 558.035,-239.483"/>
</g>
<!-- Node0x1087f960 -->
<g id="node14" class="node"><title>Node0x1087f960</title>
<polygon fill="none" stroke="black" points="381,-23.5 381,-59.5 435,-59.5 435,-23.5 381,-23.5"/>
<text text-anchor="start" x="389" y="-37.8" font-family="Times,serif" font-size="14.00">exit:</text>
</g>
<!-- Node0x1e9ec420&#45;&gt;Node0x1087f960 -->
<g id="edge15" class="edge"><title>Node0x1e9ec420&#45;&gt;Node0x1087f960</title>
<path fill="none" stroke="black" d="M341.337,-97.181C354.949,-86.016 368.138,-75.1975 379.142,-66.1712"/>
<polygon fill="black" stroke="black" points="381.59,-68.6902 387.102,-59.642 377.15,-63.278 381.59,-68.6902"/>
</g>
<!-- Node0x1087df60&#45;&gt;Node0x1087f960 -->
<g id="edge16" class="edge"><title>Node0x1087df60&#45;&gt;Node0x1087f960</title>
<path fill="none" stroke="black" d="M456.713,-104.882C446.408,-91.6855 436.12,-78.5104 427.672,-67.6918"/>
<polygon fill="black" stroke="black" points="430.239,-65.2929 421.326,-59.5653 424.722,-69.6011 430.239,-65.2929"/>
</g>
</g>
</svg>
