<?xml version="1.0" encoding="UTF-8" standalone="no"?>
<!DOCTYPE svg PUBLIC "-//W3C//DTD SVG 1.1//EN"
 "http://www.w3.org/Graphics/SVG/1.1/DTD/svg11.dtd">
<!-- Generated by graphviz version 2.38.0 (20140413.2041)
 -->
<!-- Title: Control&#45;flow graph for function &#39;function_15d24()&#39;. Pages: 1 -->
<svg width="386pt" height="1001pt"
 viewBox="0.00 0.00 386.00 1001.00" xmlns="http://www.w3.org/2000/svg" xmlns:xlink="http://www.w3.org/1999/xlink">
<g id="graph0" class="graph" transform="scale(1 1) rotate(0) translate(4 997)">
<title>Control&#45;flow graph for function &#39;function_15d24()&#39;.</title>
<polygon fill="white" stroke="none" points="-4,4 -4,-997 382,-997 382,4 -4,4"/>
<text text-anchor="middle" x="189" y="-7.8" font-family="Times,serif" font-size="14.00">Control&#45;flow graph for function &#39;function_15d24()&#39;.</text>
<!-- Node0x478fbeb0 -->
<g id="node1" class="node"><title>Node0x478fbeb0</title>
<polygon fill="none" stroke="black" points="202.75,-956.5 202.75,-992.5 261.75,-992.5 261.75,-956.5 202.75,-956.5"/>
<text text-anchor="start" x="210.75" y="-970.8" font-family="Times,serif" font-size="14.00">entry:</text>
</g>
<!-- Node0x151a3880 -->
<g id="node2" class="node"><title>Node0x151a3880</title>
<polygon fill="none" stroke="black" points="88.25,-805.5 88.25,-918.5 376.25,-918.5 376.25,-805.5 88.25,-805.5"/>
<text text-anchor="start" x="96.25" y="-903.3" font-family="Times,serif" font-size="14.00">0xf9e7380:</text>
<text text-anchor="start" x="96.25" y="-888.3" font-family="Times,serif" font-size="14.00"> v1 = *(IntToPtrCastExpr&lt;ptr&gt;(g40))</text>
<text text-anchor="start" x="96.25" y="-873.3" font-family="Times,serif" font-size="14.00"> g37 = v1</text>
<text text-anchor="start" x="96.25" y="-858.3" font-family="Times,serif" font-size="14.00"> v2 = g29</text>
<text text-anchor="start" x="96.25" y="-843.3" font-family="Times,serif" font-size="14.00"> g39 = v2</text>
<text text-anchor="start" x="96.25" y="-828.3" font-family="Times,serif" font-size="14.00"> g9 = (v1 == 0)</text>
<text text-anchor="start" x="96.25" y="-813.3" font-family="Times,serif" font-size="14.00"> v3 = v2</text>
</g>
<!-- Node0x478fbeb0&#45;&gt;Node0x151a3880 -->
<g id="edge1" class="edge"><title>Node0x478fbeb0&#45;&gt;Node0x151a3880</title>
<path fill="none" stroke="black" d="M232.25,-956.234C232.25,-948.586 232.25,-939.056 232.25,-929.033"/>
<polygon fill="black" stroke="black" points="235.75,-928.897 232.25,-918.897 228.75,-928.897 235.75,-928.897"/>
</g>
<!-- Node0x151a1a40 -->
<g id="node3" class="node"><title>Node0x151a1a40</title>
<polygon fill="none" stroke="black" points="180.25,-729.5 180.25,-767.5 284.25,-767.5 284.25,-729.5 180.25,-729.5"/>
<text text-anchor="start" x="188.25" y="-752.3" font-family="Times,serif" font-size="14.00">0x8357a20:</text>
<text text-anchor="start" x="188.25" y="-737.3" font-family="Times,serif" font-size="14.00"> if (v1 != 0):</text>
</g>
<!-- Node0x151a3880&#45;&gt;Node0x151a1a40 -->
<g id="edge2" class="edge"><title>Node0x151a3880&#45;&gt;Node0x151a1a40</title>
<path fill="none" stroke="black" d="M232.25,-805.25C232.25,-795.862 232.25,-786.474 232.25,-778.151"/>
<polygon fill="black" stroke="black" points="235.75,-777.912 232.25,-767.912 228.75,-777.912 235.75,-777.912"/>
</g>
<!-- Node0x476087d0 -->
<g id="node4" class="node"><title>Node0x476087d0</title>
<polygon fill="none" stroke="black" points="1.75,-549.5 1.75,-677.5 234.75,-677.5 234.75,-549.5 1.75,-549.5"/>
<text text-anchor="start" x="9.75" y="-662.3" font-family="Times,serif" font-size="14.00">0xf9e7460:</text>
<text text-anchor="start" x="9.75" y="-647.3" font-family="Times,serif" font-size="14.00"> v4 = g38</text>
<text text-anchor="start" x="9.75" y="-632.3" font-family="Times,serif" font-size="14.00"> g29 = (v4 &#45; 7068)</text>
<text text-anchor="start" x="9.75" y="-617.3" font-family="Times,serif" font-size="14.00"> g30 = (v4 &#45; 7420)</text>
<text text-anchor="start" x="9.75" y="-602.3" font-family="Times,serif" font-size="14.00"> g36 = v2</text>
<text text-anchor="start" x="9.75" y="-587.3" font-family="Times,serif" font-size="14.00"> g35 = 89424</text>
<text text-anchor="start" x="9.75" y="-572.3" font-family="Times,serif" font-size="14.00"> IntToPtrCastExpr&lt;ptr&gt;(v1)()</text>
<text text-anchor="start" x="9.75" y="-557.3" font-family="Times,serif" font-size="14.00"> v3 = g39</text>
</g>
<!-- Node0x151a1a40&#45;&gt;Node0x476087d0 -->
<g id="edge3" class="edge"><title>Node0x151a1a40&#45;&gt;Node0x476087d0</title>
<path fill="none" stroke="black" d="M216.638,-729.286C206.681,-717.669 193.068,-701.788 179.145,-685.544"/>
<polygon fill="black" stroke="black" points="181.464,-682.872 172.299,-677.557 176.149,-687.427 181.464,-682.872"/>
<text text-anchor="middle" x="226.25" y="-699.8" font-family="Times,serif" font-size="14.00">v1 != 0</text>
</g>
<!-- Node0x151a1940 -->
<g id="node5" class="node"><title>Node0x151a1940</title>
<polygon fill="none" stroke="black" points="105.25,-293.5 105.25,-511.5 347.25,-511.5 347.25,-293.5 105.25,-293.5"/>
<text text-anchor="start" x="113.25" y="-496.3" font-family="Times,serif" font-size="14.00">0x8357ba0:</text>
<text text-anchor="start" x="113.25" y="-481.3" font-family="Times,serif" font-size="14.00"> g29 = v3</text>
<text text-anchor="start" x="113.25" y="-466.3" font-family="Times,serif" font-size="14.00"> v5</text>
<text text-anchor="start" x="113.25" y="-451.3" font-family="Times,serif" font-size="14.00"> g38 = v5</text>
<text text-anchor="start" x="113.25" y="-436.3" font-family="Times,serif" font-size="14.00"> v6</text>
<text text-anchor="start" x="113.25" y="-421.3" font-family="Times,serif" font-size="14.00"> g39 = v6</text>
<text text-anchor="start" x="113.25" y="-406.3" font-family="Times,serif" font-size="14.00"> v7</text>
<text text-anchor="start" x="113.25" y="-391.3" font-family="Times,serif" font-size="14.00"> g40 = v7</text>
<text text-anchor="start" x="113.25" y="-376.3" font-family="Times,serif" font-size="14.00"> v8</text>
<text text-anchor="start" x="113.25" y="-361.3" font-family="Times,serif" font-size="14.00"> g32 = v8</text>
<text text-anchor="start" x="113.25" y="-346.3" font-family="Times,serif" font-size="14.00"> v9</text>
<text text-anchor="start" x="113.25" y="-331.3" font-family="Times,serif" font-size="14.00"> g34 = v9</text>
<text text-anchor="start" x="113.25" y="-316.3" font-family="Times,serif" font-size="14.00"> v10</text>
<text text-anchor="start" x="113.25" y="-301.3" font-family="Times,serif" font-size="14.00"> IntToPtrCastExpr&lt;ptr&gt;(v10)()</text>
</g>
<!-- Node0x151a1a40&#45;&gt;Node0x151a1940 -->
<g id="edge4" class="edge"><title>Node0x151a1a40&#45;&gt;Node0x151a1940</title>
<path fill="none" stroke="black" d="M247.836,-729.316C251.672,-723.787 255.251,-717.457 257.25,-711 259.222,-704.632 257.566,-702.659 257.25,-696 254.518,-638.496 248.18,-574.915 241.943,-521.761"/>
<polygon fill="black" stroke="black" points="245.393,-521.136 240.739,-511.618 238.442,-521.961 245.393,-521.136"/>
<text text-anchor="middle" x="286.25" y="-609.8" font-family="Times,serif" font-size="14.00">v1 == 0</text>
</g>
<!-- Node0x476087d0&#45;&gt;Node0x151a1940 -->
<g id="edge5" class="edge"><title>Node0x476087d0&#45;&gt;Node0x151a1940</title>
<path fill="none" stroke="black" d="M150.947,-549.226C155.652,-540.119 160.615,-530.515 165.656,-520.761"/>
<polygon fill="black" stroke="black" points="168.82,-522.261 170.302,-511.77 162.602,-519.047 168.82,-522.261"/>
</g>
<!-- Node0x1519fe40 -->
<g id="node6" class="node"><title>Node0x1519fe40</title>
<polygon fill="none" stroke="black" points="175.75,-217.5 175.75,-255.5 276.75,-255.5 276.75,-217.5 175.75,-217.5"/>
<text text-anchor="start" x="183.75" y="-240.3" font-family="Times,serif" font-size="14.00">0x8359690:</text>
<text text-anchor="start" x="183.75" y="-225.3" font-family="Times,serif" font-size="14.00"> if g9:</text>
</g>
<!-- Node0x151a1940&#45;&gt;Node0x1519fe40 -->
<g id="edge6" class="edge"><title>Node0x151a1940&#45;&gt;Node0x1519fe40</title>
<path fill="none" stroke="black" d="M226.25,-293.481C226.25,-283.585 226.25,-274.254 226.25,-266.151"/>
<polygon fill="black" stroke="black" points="229.75,-265.925 226.25,-255.925 222.75,-265.925 229.75,-265.925"/>
</g>
<!-- Node0x47608c70 -->
<g id="node7" class="node"><title>Node0x47608c70</title>
<polygon fill="none" stroke="black" points="3.25,-97.5 3.25,-165.5 227.25,-165.5 227.25,-97.5 3.25,-97.5"/>
<text text-anchor="start" x="11.25" y="-150.3" font-family="Times,serif" font-size="14.00">0xf9e6fa0:</text>
<text text-anchor="start" x="11.25" y="-135.3" font-family="Times,serif" font-size="14.00"> v11 = g29</text>
<text text-anchor="start" x="11.25" y="-120.3" font-family="Times,serif" font-size="14.00"> g36 = (g30 &amp; (v11 / 32768))</text>
<text text-anchor="start" x="11.25" y="-105.3" font-family="Times,serif" font-size="14.00"> g29 = ((g42 / 2) &amp; v11)</text>
</g>
<!-- Node0x1519fe40&#45;&gt;Node0x47608c70 -->
<g id="edge7" class="edge"><title>Node0x1519fe40&#45;&gt;Node0x47608c70</title>
<path fill="none" stroke="black" d="M206.661,-217.323C193.384,-205.003 175.302,-188.223 158.723,-172.84"/>
<polygon fill="black" stroke="black" points="160.946,-170.128 151.235,-165.891 156.184,-175.259 160.946,-170.128"/>
<text text-anchor="middle" x="193.75" y="-187.8" font-family="Times,serif" font-size="14.00">g9</text>
</g>
<!-- Node0x151a3780 -->
<g id="node8" class="node"><title>Node0x151a3780</title>
<polygon fill="none" stroke="black" points="193.25,-23.5 193.25,-59.5 247.25,-59.5 247.25,-23.5 193.25,-23.5"/>
<text text-anchor="start" x="201.25" y="-37.8" font-family="Times,serif" font-size="14.00">exit:</text>
</g>
<!-- Node0x1519fe40&#45;&gt;Node0x151a3780 -->
<g id="edge8" class="edge"><title>Node0x1519fe40&#45;&gt;Node0x151a3780</title>
<path fill="none" stroke="black" d="M230.003,-217.485C234.972,-190.975 242.425,-139.952 236.25,-97 234.939,-87.8798 232.453,-78.1568 229.825,-69.486"/>
<polygon fill="black" stroke="black" points="233.132,-68.3365 226.737,-59.8897 226.469,-70.4811 233.132,-68.3365"/>
<text text-anchor="middle" x="267.75" y="-127.8" font-family="Times,serif" font-size="14.00">not (g9)</text>
</g>
<!-- Node0x47608c70&#45;&gt;Node0x151a3780 -->
<g id="edge9" class="edge"><title>Node0x47608c70&#45;&gt;Node0x151a3780</title>
<path fill="none" stroke="black" d="M154.647,-97.4817C167.009,-87.1211 180.407,-75.8926 191.852,-66.3001"/>
<polygon fill="black" stroke="black" points="194.383,-68.7461 199.799,-59.6402 189.886,-63.3811 194.383,-68.7461"/>
</g>
</g>
</svg>
