<?xml version="1.0" encoding="UTF-8" standalone="no"?>
<!DOCTYPE svg PUBLIC "-//W3C//DTD SVG 1.1//EN"
 "http://www.w3.org/Graphics/SVG/1.1/DTD/svg11.dtd">
<!-- Generated by graphviz version 2.38.0 (20140413.2041)
 -->
<!-- Title: Control&#45;flow graph for function &#39;function_bc50()&#39;. Pages: 1 -->
<svg width="1097pt" height="1545pt"
 viewBox="0.00 0.00 1097.00 1545.00" xmlns="http://www.w3.org/2000/svg" xmlns:xlink="http://www.w3.org/1999/xlink">
<g id="graph0" class="graph" transform="scale(1 1) rotate(0) translate(4 1541)">
<title>Control&#45;flow graph for function &#39;function_bc50()&#39;.</title>
<polygon fill="white" stroke="none" points="-4,4 -4,-1541 1093,-1541 1093,4 -4,4"/>
<text text-anchor="middle" x="544.5" y="-7.8" font-family="Times,serif" font-size="14.00">Control&#45;flow graph for function &#39;function_bc50()&#39;.</text>
<!-- Node0x47230480 -->
<g id="node1" class="node"><title>Node0x47230480</title>
<polygon fill="none" stroke="black" points="856.5,-1500.5 856.5,-1536.5 915.5,-1536.5 915.5,-1500.5 856.5,-1500.5"/>
<text text-anchor="start" x="864.5" y="-1514.8" font-family="Times,serif" font-size="14.00">entry:</text>
</g>
<!-- Node0x47233020 -->
<g id="node2" class="node"><title>Node0x47233020</title>
<polygon fill="none" stroke="black" points="821,-1274.5 821,-1462.5 951,-1462.5 951,-1274.5 821,-1274.5"/>
<text text-anchor="start" x="829" y="-1447.3" font-family="Times,serif" font-size="14.00">0x214f76f0:</text>
<text text-anchor="start" x="829" y="-1432.3" font-family="Times,serif" font-size="14.00"> v1 = g38</text>
<text text-anchor="start" x="829" y="-1417.3" font-family="Times,serif" font-size="14.00"> v2 = g39</text>
<text text-anchor="start" x="829" y="-1402.3" font-family="Times,serif" font-size="14.00"> v3 = g40</text>
<text text-anchor="start" x="829" y="-1387.3" font-family="Times,serif" font-size="14.00"> v4 = g29</text>
<text text-anchor="start" x="829" y="-1372.3" font-family="Times,serif" font-size="14.00"> g38 = v4</text>
<text text-anchor="start" x="829" y="-1357.3" font-family="Times,serif" font-size="14.00"> v5 = g30</text>
<text text-anchor="start" x="829" y="-1342.3" font-family="Times,serif" font-size="14.00"> g40 = v5</text>
<text text-anchor="start" x="829" y="-1327.3" font-family="Times,serif" font-size="14.00"> v6 = g36</text>
<text text-anchor="start" x="829" y="-1312.3" font-family="Times,serif" font-size="14.00"> g6 = (v6 != 0)</text>
<text text-anchor="start" x="829" y="-1297.3" font-family="Times,serif" font-size="14.00"> g9 = (v6 == 1)</text>
<text text-anchor="start" x="829" y="-1282.3" font-family="Times,serif" font-size="14.00"> g39 = (v6 &#45; 1)</text>
</g>
<!-- Node0x47230480&#45;&gt;Node0x47233020 -->
<g id="edge1" class="edge"><title>Node0x47230480&#45;&gt;Node0x47233020</title>
<path fill="none" stroke="black" d="M886,-1500.23C886,-1492.72 886,-1483.26 886,-1472.88"/>
<polygon fill="black" stroke="black" points="889.5,-1472.67 886,-1462.67 882.5,-1472.67 889.5,-1472.67"/>
</g>
<!-- Node0x2231c140 -->
<g id="node3" class="node"><title>Node0x2231c140</title>
<polygon fill="none" stroke="black" points="834,-1198.5 834,-1236.5 938,-1236.5 938,-1198.5 834,-1198.5"/>
<text text-anchor="start" x="842" y="-1221.3" font-family="Times,serif" font-size="14.00">0x738adc0:</text>
<text text-anchor="start" x="842" y="-1206.3" font-family="Times,serif" font-size="14.00"> if (v6 != 0):</text>
</g>
<!-- Node0x47233020&#45;&gt;Node0x2231c140 -->
<g id="edge2" class="edge"><title>Node0x47233020&#45;&gt;Node0x2231c140</title>
<path fill="none" stroke="black" d="M886,-1274.41C886,-1264.43 886,-1254.92 886,-1246.67"/>
<polygon fill="black" stroke="black" points="889.5,-1246.62 886,-1236.62 882.5,-1246.62 889.5,-1246.62"/>
</g>
<!-- Node0x47233380 -->
<g id="node4" class="node"><title>Node0x47233380</title>
<polygon fill="none" stroke="black" points="727.5,-1071 727.5,-1109 828.5,-1109 828.5,-1071 727.5,-1071"/>
<text text-anchor="start" x="735.5" y="-1093.8" font-family="Times,serif" font-size="14.00">0x738aca0:</text>
<text text-anchor="start" x="735.5" y="-1078.8" font-family="Times,serif" font-size="14.00"> while True:</text>
</g>
<!-- Node0x2231c140&#45;&gt;Node0x47233380 -->
<g id="edge3" class="edge"><title>Node0x2231c140&#45;&gt;Node0x47233380</title>
<path fill="none" stroke="black" d="M869.425,-1198.42C864.133,-1192.58 858.281,-1186.05 853,-1180 834.678,-1159.01 814.336,-1134.81 799.464,-1116.95"/>
<polygon fill="black" stroke="black" points="802.127,-1114.68 793.043,-1109.23 796.743,-1119.15 802.127,-1114.68"/>
<text text-anchor="middle" x="880" y="-1168.8" font-family="Times,serif" font-size="14.00">v6 != 0</text>
</g>
<!-- Node0x47230a70 -->
<g id="node5" class="node"><title>Node0x47230a70</title>
<polygon fill="none" stroke="black" points="847,-1033.5 847,-1146.5 1089,-1146.5 1089,-1033.5 847,-1033.5"/>
<text text-anchor="start" x="855" y="-1131.3" font-family="Times,serif" font-size="14.00">0x738b020:</text>
<text text-anchor="start" x="855" y="-1116.3" font-family="Times,serif" font-size="14.00"> g38 = v1</text>
<text text-anchor="start" x="855" y="-1101.3" font-family="Times,serif" font-size="14.00"> g39 = v2</text>
<text text-anchor="start" x="855" y="-1086.3" font-family="Times,serif" font-size="14.00"> g40 = v3</text>
<text text-anchor="start" x="855" y="-1071.3" font-family="Times,serif" font-size="14.00"> v13</text>
<text text-anchor="start" x="855" y="-1056.3" font-family="Times,serif" font-size="14.00"> g34 = v13</text>
<text text-anchor="start" x="855" y="-1041.3" font-family="Times,serif" font-size="14.00"> IntToPtrCastExpr&lt;ptr&gt;(g35)()</text>
</g>
<!-- Node0x2231c140&#45;&gt;Node0x47230a70 -->
<g id="edge4" class="edge"><title>Node0x2231c140&#45;&gt;Node0x47230a70</title>
<path fill="none" stroke="black" d="M897.924,-1198.25C905.457,-1186.72 915.688,-1171.06 926.003,-1155.28"/>
<polygon fill="black" stroke="black" points="929.187,-1156.8 931.726,-1146.52 923.326,-1152.97 929.187,-1156.8"/>
<text text-anchor="middle" x="948" y="-1168.8" font-family="Times,serif" font-size="14.00">v6 == 0</text>
</g>
<!-- Node0x47233de0 -->
<g id="node6" class="node"><title>Node0x47233de0</title>
<polygon fill="none" stroke="black" points="172,-868.5 172,-981.5 750,-981.5 750,-868.5 172,-868.5"/>
<text text-anchor="start" x="180" y="-966.3" font-family="Times,serif" font-size="14.00">0x3392b180:</text>
<text text-anchor="start" x="180" y="-951.3" font-family="Times,serif" font-size="14.00"> v7 = *(IntToPtrCastExpr&lt;ptr&gt;((v4 + 92)))</text>
<text text-anchor="start" x="180" y="-936.3" font-family="Times,serif" font-size="14.00"> v8 = (*(IntToPtrCastExpr&lt;ptr&gt;((v4 + 20))) + 8)</text>
<text text-anchor="start" x="180" y="-921.3" font-family="Times,serif" font-size="14.00"> g36 = v8</text>
<text text-anchor="start" x="180" y="-906.3" font-family="Times,serif" font-size="14.00"> g30 = (v7 + 1)</text>
<text text-anchor="start" x="180" y="-891.3" font-family="Times,serif" font-size="14.00"> *(IntToPtrCastExpr&lt;ptr&gt;(((v7 + v4) + 28))) = *(IntToPtrCastExpr&lt;ptr&gt;(v5))</text>
<text text-anchor="start" x="180" y="-876.3" font-family="Times,serif" font-size="14.00"> v9 = g38</text>
</g>
<!-- Node0x47233380&#45;&gt;Node0x47233de0 -->
<g id="edge5" class="edge"><title>Node0x47233380&#45;&gt;Node0x47233de0</title>
<path fill="none" stroke="black" d="M742.864,-1070.93C703.229,-1050.55 636.657,-1016.32 578.162,-986.244"/>
<polygon fill="black" stroke="black" points="579.716,-983.108 569.222,-981.647 576.515,-989.333 579.716,-983.108"/>
<text text-anchor="middle" x="647" y="-1003.8" font-family="Times,serif" font-size="14.00">True</text>
</g>
<!-- Node0x2231fe50 -->
<g id="node7" class="node"><title>Node0x2231fe50</title>
<polygon fill="none" stroke="black" points="941,-907 941,-943 995,-943 995,-907 941,-907"/>
<text text-anchor="start" x="949" y="-921.3" font-family="Times,serif" font-size="14.00">exit:</text>
</g>
<!-- Node0x47230a70&#45;&gt;Node0x2231fe50 -->
<g id="edge6" class="edge"><title>Node0x47230a70&#45;&gt;Node0x2231fe50</title>
<path fill="none" stroke="black" d="M968,-1033.36C968,-1006.38 968,-975.176 968,-953.388"/>
<polygon fill="black" stroke="black" points="971.5,-953.216 968,-943.216 964.5,-953.216 971.5,-953.216"/>
</g>
<!-- Node0x15cf2060 -->
<g id="node8" class="node"><title>Node0x15cf2060</title>
<polygon fill="none" stroke="black" points="406,-777.5 406,-830.5 516,-830.5 516,-777.5 406,-777.5"/>
<text text-anchor="start" x="414" y="-815.3" font-family="Times,serif" font-size="14.00">0x73864b0:</text>
<text text-anchor="start" x="414" y="-800.3" font-family="Times,serif" font-size="14.00"> if (v8 == 0):</text>
<text text-anchor="start" x="414" y="-785.3" font-family="Times,serif" font-size="14.00"> else:</text>
</g>
<!-- Node0x47233de0&#45;&gt;Node0x15cf2060 -->
<g id="edge7" class="edge"><title>Node0x47233de0&#45;&gt;Node0x15cf2060</title>
<path fill="none" stroke="black" d="M461,-868.333C461,-858.958 461,-849.455 461,-840.761"/>
<polygon fill="black" stroke="black" points="464.5,-840.621 461,-830.621 457.5,-840.621 464.5,-840.621"/>
</g>
<!-- Node0x15cf37a0 -->
<g id="node9" class="node"><title>Node0x15cf37a0</title>
<polygon fill="none" stroke="black" points="0,-657.5 0,-725.5 388,-725.5 388,-657.5 0,-657.5"/>
<text text-anchor="start" x="8" y="-710.3" font-family="Times,serif" font-size="14.00">0x7385490:</text>
<text text-anchor="start" x="8" y="-695.3" font-family="Times,serif" font-size="14.00"> g37 = *(IntToPtrCastExpr&lt;ptr&gt;((v9 + 24)))</text>
<text text-anchor="start" x="8" y="-680.3" font-family="Times,serif" font-size="14.00"> *(IntToPtrCastExpr&lt;ptr&gt;((v9 + 92))) = g30</text>
<text text-anchor="start" x="8" y="-665.3" font-family="Times,serif" font-size="14.00"> *(IntToPtrCastExpr&lt;ptr&gt;((g38 + 24))) = (g37 + 1)</text>
</g>
<!-- Node0x15cf2060&#45;&gt;Node0x15cf37a0 -->
<g id="edge8" class="edge"><title>Node0x15cf2060&#45;&gt;Node0x15cf37a0</title>
<path fill="none" stroke="black" d="M405.677,-780.104C370.321,-765.472 323.67,-746.165 283.162,-729.4"/>
<polygon fill="black" stroke="black" points="284.395,-726.123 273.816,-725.533 281.718,-732.591 284.395,-726.123"/>
<text text-anchor="middle" x="382" y="-747.8" font-family="Times,serif" font-size="14.00">v8 == 0</text>
</g>
<!-- Node0x47234c20 -->
<g id="node10" class="node"><title>Node0x47234c20</title>
<polygon fill="none" stroke="black" points="406,-672.5 406,-710.5 744,-710.5 744,-672.5 406,-672.5"/>
<text text-anchor="start" x="414" y="-695.3" font-family="Times,serif" font-size="14.00">0x7386b30:</text>
<text text-anchor="start" x="414" y="-680.3" font-family="Times,serif" font-size="14.00"> *(IntToPtrCastExpr&lt;ptr&gt;((v9 + 92))) = g30</text>
</g>
<!-- Node0x15cf2060&#45;&gt;Node0x47234c20 -->
<g id="edge9" class="edge"><title>Node0x15cf2060&#45;&gt;Node0x47234c20</title>
<path fill="none" stroke="black" d="M487.44,-777.371C505.857,-759.52 530.317,-735.811 548.703,-717.99"/>
<polygon fill="black" stroke="black" points="551.431,-720.22 556.175,-710.747 546.559,-715.194 551.431,-720.22"/>
<text text-anchor="middle" x="549" y="-747.8" font-family="Times,serif" font-size="14.00">v8 != 0</text>
</g>
<!-- Node0x15cf2360 -->
<g id="node11" class="node"><title>Node0x15cf2360</title>
<polygon fill="none" stroke="black" points="395.5,-491.5 395.5,-619.5 742.5,-619.5 742.5,-491.5 395.5,-491.5"/>
<text text-anchor="start" x="403.5" y="-604.3" font-family="Times,serif" font-size="14.00">0x481b76d0:</text>
<text text-anchor="start" x="403.5" y="-589.3" font-family="Times,serif" font-size="14.00"> v10 = g38</text>
<text text-anchor="start" x="403.5" y="-574.3" font-family="Times,serif" font-size="14.00"> v11 = *(IntToPtrCastExpr&lt;ptr&gt;((v10 + 92)))</text>
<text text-anchor="start" x="403.5" y="-559.3" font-family="Times,serif" font-size="14.00"> g37 = v11</text>
<text text-anchor="start" x="403.5" y="-544.3" font-family="Times,serif" font-size="14.00"> g40 = (g40 + 1)</text>
<text text-anchor="start" x="403.5" y="-529.3" font-family="Times,serif" font-size="14.00"> g6 = (v11 &gt; 63)</text>
<text text-anchor="start" x="403.5" y="-514.3" font-family="Times,serif" font-size="14.00"> g9 = (v11 == 64)</text>
<text text-anchor="start" x="403.5" y="-499.3" font-family="Times,serif" font-size="14.00"> *(IntToPtrCastExpr&lt;ptr&gt;((v10 + 20))) = g36</text>
</g>
<!-- Node0x15cf37a0&#45;&gt;Node0x15cf2360 -->
<g id="edge10" class="edge"><title>Node0x15cf37a0&#45;&gt;Node0x15cf2360</title>
<path fill="none" stroke="black" d="M286.697,-657.376C316.831,-646.608 351.399,-634.256 385.775,-621.972"/>
<polygon fill="black" stroke="black" points="387.223,-625.172 395.462,-618.511 384.867,-618.58 387.223,-625.172"/>
</g>
<!-- Node0x47234c20&#45;&gt;Node0x15cf2360 -->
<g id="edge11" class="edge"><title>Node0x47234c20&#45;&gt;Node0x15cf2360</title>
<path fill="none" stroke="black" d="M574.191,-672.428C573.687,-661.177 573.002,-645.877 572.295,-630.085"/>
<polygon fill="black" stroke="black" points="575.773,-629.508 571.829,-619.674 568.78,-629.821 575.773,-629.508"/>
</g>
<!-- Node0x15cf2f60 -->
<g id="node12" class="node"><title>Node0x15cf2f60</title>
<polygon fill="none" stroke="black" points="510,-415.5 510,-453.5 638,-453.5 638,-415.5 510,-415.5"/>
<text text-anchor="start" x="518" y="-438.3" font-family="Times,serif" font-size="14.00">0x73891d0:</text>
<text text-anchor="start" x="518" y="-423.3" font-family="Times,serif" font-size="14.00"> if (v11 == 64):</text>
</g>
<!-- Node0x15cf2360&#45;&gt;Node0x15cf2f60 -->
<g id="edge12" class="edge"><title>Node0x15cf2360&#45;&gt;Node0x15cf2f60</title>
<path fill="none" stroke="black" d="M571.661,-491.167C572.063,-481.596 572.46,-472.158 572.809,-463.848"/>
<polygon fill="black" stroke="black" points="576.314,-463.797 573.237,-453.659 569.32,-463.503 576.314,-463.797"/>
</g>
<!-- Node0x47231fd0 -->
<g id="node13" class="node"><title>Node0x47231fd0</title>
<polygon fill="none" stroke="black" points="507,-310.5 507,-363.5 641,-363.5 641,-310.5 507,-310.5"/>
<text text-anchor="start" x="515" y="-348.3" font-family="Times,serif" font-size="14.00">0x7388cf0:</text>
<text text-anchor="start" x="515" y="-333.3" font-family="Times,serif" font-size="14.00"> g29 = g38</text>
<text text-anchor="start" x="515" y="-318.3" font-family="Times,serif" font-size="14.00"> function_b9e8()</text>
</g>
<!-- Node0x15cf2f60&#45;&gt;Node0x47231fd0 -->
<g id="edge13" class="edge"><title>Node0x15cf2f60&#45;&gt;Node0x47231fd0</title>
<path fill="none" stroke="black" d="M574,-415.087C574,-403.425 574,-387.951 574,-373.929"/>
<polygon fill="black" stroke="black" points="577.5,-373.577 574,-363.577 570.5,-373.577 577.5,-373.577"/>
<text text-anchor="middle" x="613" y="-385.8" font-family="Times,serif" font-size="14.00">v11 == 64</text>
</g>
<!-- Node0x47232430 -->
<g id="node14" class="node"><title>Node0x47232430</title>
<polygon fill="none" stroke="black" points="613,-219.5 613,-272.5 741,-272.5 741,-219.5 613,-219.5"/>
<text text-anchor="start" x="621" y="-257.3" font-family="Times,serif" font-size="14.00">0x36991740:</text>
<text text-anchor="start" x="621" y="-242.3" font-family="Times,serif" font-size="14.00"> v12 = g39</text>
<text text-anchor="start" x="621" y="-227.3" font-family="Times,serif" font-size="14.00"> g39 = (v12 &#45; 1)</text>
</g>
<!-- Node0x15cf2f60&#45;&gt;Node0x47232430 -->
<g id="edge14" class="edge"><title>Node0x15cf2f60&#45;&gt;Node0x47232430</title>
<path fill="none" stroke="black" d="M634.297,-415.446C642.632,-410.639 650.281,-404.593 656,-397 680.697,-364.211 683.083,-315.635 681.184,-282.717"/>
<polygon fill="black" stroke="black" points="684.666,-282.335 680.44,-272.62 677.684,-282.85 684.666,-282.335"/>
<text text-anchor="middle" x="718" y="-333.3" font-family="Times,serif" font-size="14.00">v11 != 64</text>
</g>
<!-- Node0x47231fd0&#45;&gt;Node0x47232430 -->
<g id="edge15" class="edge"><title>Node0x47231fd0&#45;&gt;Node0x47232430</title>
<path fill="none" stroke="black" d="M603.516,-310.496C614.829,-300.721 627.885,-289.439 639.825,-279.122"/>
<polygon fill="black" stroke="black" points="642.202,-281.694 647.48,-272.508 637.625,-276.397 642.202,-281.694"/>
</g>
<!-- Node0x47235550 -->
<g id="node15" class="node"><title>Node0x47235550</title>
<polygon fill="none" stroke="black" points="721.5,-143.5 721.5,-181.5 834.5,-181.5 834.5,-143.5 721.5,-143.5"/>
<text text-anchor="start" x="729.5" y="-166.3" font-family="Times,serif" font-size="14.00">0x738a8f0:</text>
<text text-anchor="start" x="729.5" y="-151.3" font-family="Times,serif" font-size="14.00"> if (v12 != 0):</text>
</g>
<!-- Node0x47232430&#45;&gt;Node0x47235550 -->
<g id="edge16" class="edge"><title>Node0x47232430&#45;&gt;Node0x47235550</title>
<path fill="none" stroke="black" d="M708.68,-219.437C720.995,-209.499 735.053,-198.155 747.275,-188.293"/>
<polygon fill="black" stroke="black" points="749.815,-190.741 755.399,-181.737 745.419,-185.293 749.815,-190.741"/>
</g>
<!-- Node0x47235550&#45;&gt;Node0x47233380 -->
<g id="edge18" class="edge"><title>Node0x47235550&#45;&gt;Node0x47233380</title>
<path fill="none" stroke="black" d="M778,-181.627C778,-198.143 778,-223.21 778,-245 778,-926 778,-926 778,-926 778,-973.29 778,-1028.3 778,-1060.79"/>
<polygon fill="black" stroke="black" points="774.5,-1060.91 778,-1070.91 781.5,-1060.91 774.5,-1060.91"/>
<text text-anchor="middle" x="812.5" y="-551.8" font-family="Times,serif" font-size="14.00">v12 == 0</text>
</g>
<!-- Node0x472349f0 -->
<g id="node16" class="node"><title>Node0x472349f0</title>
<polygon fill="none" stroke="black" points="780.5,-23.5 780.5,-91.5 881.5,-91.5 881.5,-23.5 780.5,-23.5"/>
<text text-anchor="start" x="788.5" y="-76.3" font-family="Times,serif" font-size="14.00">0x738a140:</text>
<text text-anchor="start" x="788.5" y="-61.3" font-family="Times,serif" font-size="14.00"> v5 = g40</text>
<text text-anchor="start" x="788.5" y="-46.3" font-family="Times,serif" font-size="14.00"> v4 = g38</text>
<text text-anchor="start" x="788.5" y="-31.3" font-family="Times,serif" font-size="14.00"> continue</text>
</g>
<!-- Node0x47235550&#45;&gt;Node0x472349f0 -->
<g id="edge17" class="edge"><title>Node0x47235550&#45;&gt;Node0x472349f0</title>
<path fill="none" stroke="black" d="M783.999,-143.482C787.595,-133.418 792.525,-120.774 798,-110 799.587,-106.876 801.314,-103.701 803.117,-100.542"/>
<polygon fill="black" stroke="black" points="806.254,-102.114 808.352,-91.7288 800.236,-98.5394 806.254,-102.114"/>
<text text-anchor="middle" x="829.5" y="-113.8" font-family="Times,serif" font-size="14.00">v12 != 0</text>
</g>
<!-- Node0x472349f0&#45;&gt;Node0x47233380 -->
<g id="edge19" class="edge"><title>Node0x472349f0&#45;&gt;Node0x47233380</title>
<path fill="none" stroke="black" d="M853.258,-91.7914C864.171,-111.262 875,-136.805 875,-161.5 875,-926 875,-926 875,-926 875,-980.715 834.139,-1033.07 805.458,-1063.08"/>
<polygon fill="black" stroke="black" points="802.607,-1060.99 798.098,-1070.57 807.602,-1065.89 802.607,-1060.99"/>
</g>
</g>
</svg>
