<?xml version="1.0" encoding="UTF-8" standalone="no"?>
<!DOCTYPE svg PUBLIC "-//W3C//DTD SVG 1.1//EN"
 "http://www.w3.org/Graphics/SVG/1.1/DTD/svg11.dtd">
<!-- Generated by graphviz version 2.38.0 (20140413.2041)
 -->
<!-- Title: Control&#45;flow graph for function &#39;function_1642c()&#39;. Pages: 1 -->
<svg width="570pt" height="429pt"
 viewBox="0.00 0.00 569.50 429.00" xmlns="http://www.w3.org/2000/svg" xmlns:xlink="http://www.w3.org/1999/xlink">
<g id="graph0" class="graph" transform="scale(1 1) rotate(0) translate(4 425)">
<title>Control&#45;flow graph for function &#39;function_1642c()&#39;.</title>
<polygon fill="white" stroke="none" points="-4,4 -4,-425 565.5,-425 565.5,4 -4,4"/>
<text text-anchor="middle" x="280.75" y="-7.8" font-family="Times,serif" font-size="14.00">Control&#45;flow graph for function &#39;function_1642c()&#39;.</text>
<!-- Node0x15165990 -->
<g id="node1" class="node"><title>Node0x15165990</title>
<polygon fill="none" stroke="black" points="425,-384.5 425,-420.5 484,-420.5 484,-384.5 425,-384.5"/>
<text text-anchor="start" x="433" y="-398.8" font-family="Times,serif" font-size="14.00">entry:</text>
</g>
<!-- Node0x1eb1d830 -->
<g id="node2" class="node"><title>Node0x1eb1d830</title>
<polygon fill="none" stroke="black" points="389.5,-263.5 389.5,-346.5 519.5,-346.5 519.5,-263.5 389.5,-263.5"/>
<text text-anchor="start" x="397.5" y="-331.3" font-family="Times,serif" font-size="14.00">0x8494d00:</text>
<text text-anchor="start" x="397.5" y="-316.3" font-family="Times,serif" font-size="14.00"> g36 = 5748</text>
<text text-anchor="start" x="397.5" y="-301.3" font-family="Times,serif" font-size="14.00"> v1 = g18</text>
<text text-anchor="start" x="397.5" y="-286.3" font-family="Times,serif" font-size="14.00"> g37 = 170760</text>
<text text-anchor="start" x="397.5" y="-271.3" font-family="Times,serif" font-size="14.00"> g9 = (v1 == 0)</text>
</g>
<!-- Node0x15165990&#45;&gt;Node0x1eb1d830 -->
<g id="edge1" class="edge"><title>Node0x15165990&#45;&gt;Node0x1eb1d830</title>
<path fill="none" stroke="black" d="M454.5,-384.427C454.5,-376.622 454.5,-366.921 454.5,-357.032"/>
<polygon fill="black" stroke="black" points="458,-356.73 454.5,-346.73 451,-356.73 458,-356.73"/>
</g>
<!-- Node0x3eaf1ab0 -->
<g id="node3" class="node"><title>Node0x3eaf1ab0</title>
<polygon fill="none" stroke="black" points="402.5,-187.5 402.5,-225.5 506.5,-225.5 506.5,-187.5 402.5,-187.5"/>
<text text-anchor="start" x="410.5" y="-210.3" font-family="Times,serif" font-size="14.00">0x8498dd0:</text>
<text text-anchor="start" x="410.5" y="-195.3" font-family="Times,serif" font-size="14.00"> if (v1 != 0):</text>
</g>
<!-- Node0x1eb1d830&#45;&gt;Node0x3eaf1ab0 -->
<g id="edge2" class="edge"><title>Node0x1eb1d830&#45;&gt;Node0x3eaf1ab0</title>
<path fill="none" stroke="black" d="M454.5,-263.355C454.5,-254.083 454.5,-244.427 454.5,-235.803"/>
<polygon fill="black" stroke="black" points="458,-235.538 454.5,-225.538 451,-235.538 458,-235.538"/>
</g>
<!-- Node0x3eaedfb0 -->
<g id="node4" class="node"><title>Node0x3eaedfb0</title>
<polygon fill="none" stroke="black" points="0,-97.5 0,-135.5 489,-135.5 489,-97.5 0,-97.5"/>
<text text-anchor="start" x="8" y="-120.3" font-family="Times,serif" font-size="14.00">0x8498c70:</text>
<text text-anchor="start" x="8" y="-105.3" font-family="Times,serif" font-size="14.00"> g29 = ExtCastExpr&lt;int32&gt;(*(IntToPtrCastExpr&lt;ptr&gt;(170768)))</text>
</g>
<!-- Node0x3eaf1ab0&#45;&gt;Node0x3eaedfb0 -->
<g id="edge3" class="edge"><title>Node0x3eaf1ab0&#45;&gt;Node0x3eaedfb0</title>
<path fill="none" stroke="black" d="M411.497,-187.48C378.482,-173.645 332.726,-154.471 297.457,-139.691"/>
<polygon fill="black" stroke="black" points="298.382,-136.284 287.806,-135.647 295.676,-142.74 298.382,-136.284"/>
<text text-anchor="middle" x="389.5" y="-157.8" font-family="Times,serif" font-size="14.00">v1 != 0</text>
</g>
<!-- Node0x15165690 -->
<g id="node5" class="node"><title>Node0x15165690</title>
<polygon fill="none" stroke="black" points="421.5,-23.5 421.5,-59.5 475.5,-59.5 475.5,-23.5 421.5,-23.5"/>
<text text-anchor="start" x="429.5" y="-37.8" font-family="Times,serif" font-size="14.00">exit:</text>
</g>
<!-- Node0x3eaf1ab0&#45;&gt;Node0x15165690 -->
<g id="edge4" class="edge"><title>Node0x3eaf1ab0&#45;&gt;Node0x15165690</title>
<path fill="none" stroke="black" d="M470.57,-187.119C487.36,-165.579 509.687,-128.784 497.5,-97 493.166,-85.6979 485.287,-75.2696 477.095,-66.6264"/>
<polygon fill="black" stroke="black" points="479.471,-64.0531 469.898,-59.5133 474.55,-69.032 479.471,-64.0531"/>
<text text-anchor="middle" x="531.5" y="-112.8" font-family="Times,serif" font-size="14.00">v1 == 0</text>
</g>
<!-- Node0x3eaedfb0&#45;&gt;Node0x15165690 -->
<g id="edge5" class="edge"><title>Node0x3eaedfb0&#45;&gt;Node0x15165690</title>
<path fill="none" stroke="black" d="M294.927,-97.4551C331.175,-84.4838 379.216,-67.2928 411.846,-55.6162"/>
<polygon fill="black" stroke="black" points="413.212,-58.8449 421.448,-52.1803 410.854,-52.2542 413.212,-58.8449"/>
</g>
</g>
</svg>
