<?xml version="1.0" encoding="UTF-8" standalone="no"?>
<!DOCTYPE svg PUBLIC "-//W3C//DTD SVG 1.1//EN"
 "http://www.w3.org/Graphics/SVG/1.1/DTD/svg11.dtd">
<!-- Generated by graphviz version 2.38.0 (20140413.2041)
 -->
<!-- Title: Control&#45;flow graph for function &#39;function_34b8()&#39;. Pages: 1 -->
<svg width="511pt" height="216pt"
 viewBox="0.00 0.00 511.00 216.00" xmlns="http://www.w3.org/2000/svg" xmlns:xlink="http://www.w3.org/1999/xlink">
<g id="graph0" class="graph" transform="scale(1 1) rotate(0) translate(4 212)">
<title>Control&#45;flow graph for function &#39;function_34b8()&#39;.</title>
<polygon fill="white" stroke="none" points="-4,4 -4,-212 507,-212 507,4 -4,4"/>
<text text-anchor="middle" x="251.5" y="-7.8" font-family="Times,serif" font-size="14.00">Control&#45;flow graph for function &#39;function_34b8()&#39;.</text>
<!-- Node0x307aa670 -->
<g id="node1" class="node"><title>Node0x307aa670</title>
<polygon fill="none" stroke="black" points="222,-171.5 222,-207.5 281,-207.5 281,-171.5 222,-171.5"/>
<text text-anchor="start" x="230" y="-185.8" font-family="Times,serif" font-size="14.00">entry:</text>
</g>
<!-- Node0x2414cfa0 -->
<g id="node2" class="node"><title>Node0x2414cfa0</title>
<polygon fill="none" stroke="black" points="0,-96.5 0,-134.5 503,-134.5 503,-96.5 0,-96.5"/>
<text text-anchor="start" x="8" y="-119.3" font-family="Times,serif" font-size="14.00">0x500d8d0:</text>
<text text-anchor="start" x="8" y="-104.3" font-family="Times,serif" font-size="14.00"> g29 = ExtCastExpr&lt;int32&gt;(*(IntToPtrCastExpr&lt;ptr&gt;((g29 + 9))))</text>
</g>
<!-- Node0x307aa670&#45;&gt;Node0x2414cfa0 -->
<g id="edge1" class="edge"><title>Node0x307aa670&#45;&gt;Node0x2414cfa0</title>
<path fill="none" stroke="black" d="M251.5,-171.437C251.5,-163.487 251.5,-153.813 251.5,-144.813"/>
<polygon fill="black" stroke="black" points="255,-144.699 251.5,-134.699 248,-144.699 255,-144.699"/>
</g>
<!-- Node0x307aaee0 -->
<g id="node3" class="node"><title>Node0x307aaee0</title>
<polygon fill="none" stroke="black" points="224.5,-23.5 224.5,-59.5 278.5,-59.5 278.5,-23.5 224.5,-23.5"/>
<text text-anchor="start" x="232.5" y="-37.8" font-family="Times,serif" font-size="14.00">exit:</text>
</g>
<!-- Node0x2414cfa0&#45;&gt;Node0x307aaee0 -->
<g id="edge2" class="edge"><title>Node0x2414cfa0&#45;&gt;Node0x307aaee0</title>
<path fill="none" stroke="black" d="M251.5,-96.3314C251.5,-88.394 251.5,-78.9095 251.5,-70.1285"/>
<polygon fill="black" stroke="black" points="255,-69.9177 251.5,-59.9177 248,-69.9177 255,-69.9177"/>
</g>
</g>
</svg>
