<?xml version="1.0" encoding="UTF-8" standalone="no"?>
<!DOCTYPE svg PUBLIC "-//W3C//DTD SVG 1.1//EN"
 "http://www.w3.org/Graphics/SVG/1.1/DTD/svg11.dtd">
<!-- Generated by graphviz version 2.38.0 (20140413.2041)
 -->
<!-- Title: Control&#45;flow graph for function &#39;function_1371c()&#39;. Pages: 1 -->
<svg width="590pt" height="2234pt"
 viewBox="0.00 0.00 589.50 2234.00" xmlns="http://www.w3.org/2000/svg" xmlns:xlink="http://www.w3.org/1999/xlink">
<g id="graph0" class="graph" transform="scale(1 1) rotate(0) translate(4 2230)">
<title>Control&#45;flow graph for function &#39;function_1371c()&#39;.</title>
<polygon fill="white" stroke="none" points="-4,4 -4,-2230 585.5,-2230 585.5,4 -4,4"/>
<text text-anchor="middle" x="290.75" y="-7.8" font-family="Times,serif" font-size="14.00">Control&#45;flow graph for function &#39;function_1371c()&#39;.</text>
<!-- Node0x47e01a00 -->
<g id="node1" class="node"><title>Node0x47e01a00</title>
<polygon fill="none" stroke="black" points="166,-2189.5 166,-2225.5 225,-2225.5 225,-2189.5 166,-2189.5"/>
<text text-anchor="start" x="174" y="-2203.8" font-family="Times,serif" font-size="14.00">entry:</text>
</g>
<!-- Node0x333fafb0 -->
<g id="node2" class="node"><title>Node0x333fafb0</title>
<polygon fill="none" stroke="black" points="59.5,-1753.5 59.5,-2151.5 331.5,-2151.5 331.5,-1753.5 59.5,-1753.5"/>
<text text-anchor="start" x="67.5" y="-2136.3" font-family="Times,serif" font-size="14.00">0x121f5af0:</text>
<text text-anchor="start" x="67.5" y="-2121.3" font-family="Times,serif" font-size="14.00"> v1 = g38</text>
<text text-anchor="start" x="67.5" y="-2106.3" font-family="Times,serif" font-size="14.00"> v2 = g39</text>
<text text-anchor="start" x="67.5" y="-2091.3" font-family="Times,serif" font-size="14.00"> v3 = g40</text>
<text text-anchor="start" x="67.5" y="-2076.3" font-family="Times,serif" font-size="14.00"> v4 = g41</text>
<text text-anchor="start" x="67.5" y="-2061.3" font-family="Times,serif" font-size="14.00"> v5 = g42</text>
<text text-anchor="start" x="67.5" y="-2046.3" font-family="Times,serif" font-size="14.00"> v6 = g43</text>
<text text-anchor="start" x="67.5" y="-2031.3" font-family="Times,serif" font-size="14.00"> v7 = g31</text>
<text text-anchor="start" x="67.5" y="-2016.3" font-family="Times,serif" font-size="14.00"> v8 = g32</text>
<text text-anchor="start" x="67.5" y="-2001.3" font-family="Times,serif" font-size="14.00"> v9 = g35</text>
<text text-anchor="start" x="67.5" y="-1986.3" font-family="Times,serif" font-size="14.00"> v10 = g30</text>
<text text-anchor="start" x="67.5" y="-1971.3" font-family="Times,serif" font-size="14.00"> g42 = v10</text>
<text text-anchor="start" x="67.5" y="-1956.3" font-family="Times,serif" font-size="14.00"> g41 = g29</text>
<text text-anchor="start" x="67.5" y="-1941.3" font-family="Times,serif" font-size="14.00"> g40 = g36</text>
<text text-anchor="start" x="67.5" y="-1926.3" font-family="Times,serif" font-size="14.00"> g39 = v10</text>
<text text-anchor="start" x="67.5" y="-1911.3" font-family="Times,serif" font-size="14.00"> function_1321c()</text>
<text text-anchor="start" x="67.5" y="-1896.3" font-family="Times,serif" font-size="14.00"> v11</text>
<text text-anchor="start" x="67.5" y="-1881.3" font-family="Times,serif" font-size="14.00"> g37 = v11</text>
<text text-anchor="start" x="67.5" y="-1866.3" font-family="Times,serif" font-size="14.00"> v12 = g39</text>
<text text-anchor="start" x="67.5" y="-1851.3" font-family="Times,serif" font-size="14.00"> v13 = g40</text>
<text text-anchor="start" x="67.5" y="-1836.3" font-family="Times,serif" font-size="14.00"> v14 = (v13 if (v13 &lt; v11) else v11)</text>
<text text-anchor="start" x="67.5" y="-1821.3" font-family="Times,serif" font-size="14.00"> g38 = v14</text>
<text text-anchor="start" x="67.5" y="-1806.3" font-family="Times,serif" font-size="14.00"> g8 = False</text>
<text text-anchor="start" x="67.5" y="-1791.3" font-family="Times,serif" font-size="14.00"> g7 = (v14 &lt; 0)</text>
<text text-anchor="start" x="67.5" y="-1776.3" font-family="Times,serif" font-size="14.00"> g9 = (v14 == 0)</text>
<text text-anchor="start" x="67.5" y="-1761.3" font-family="Times,serif" font-size="14.00"> v15</text>
</g>
<!-- Node0x47e01a00&#45;&gt;Node0x333fafb0 -->
<g id="edge1" class="edge"><title>Node0x47e01a00&#45;&gt;Node0x333fafb0</title>
<path fill="none" stroke="black" d="M195.5,-2189.11C195.5,-2181.8 195.5,-2172.51 195.5,-2161.86"/>
<polygon fill="black" stroke="black" points="199,-2161.72 195.5,-2151.72 192,-2161.72 199,-2161.72"/>
</g>
<!-- Node0x32d86410 -->
<g id="node3" class="node"><title>Node0x32d86410</title>
<polygon fill="none" stroke="black" points="136,-1677.5 136,-1715.5 255,-1715.5 255,-1677.5 136,-1677.5"/>
<text text-anchor="start" x="144" y="-1700.3" font-family="Times,serif" font-size="14.00">0x80098a0:</text>
<text text-anchor="start" x="144" y="-1685.3" font-family="Times,serif" font-size="14.00"> if (v14 == 0):</text>
</g>
<!-- Node0x333fafb0&#45;&gt;Node0x32d86410 -->
<g id="edge2" class="edge"><title>Node0x333fafb0&#45;&gt;Node0x32d86410</title>
<path fill="none" stroke="black" d="M195.5,-1753.24C195.5,-1742.95 195.5,-1733.59 195.5,-1725.59"/>
<polygon fill="black" stroke="black" points="199,-1725.59 195.5,-1715.59 192,-1725.59 199,-1725.59"/>
</g>
<!-- Node0x32d89110 -->
<g id="node4" class="node"><title>Node0x32d89110</title>
<polygon fill="none" stroke="black" points="0,-1365.5 0,-1568.5 233,-1568.5 233,-1365.5 0,-1365.5"/>
<text text-anchor="start" x="8" y="-1553.3" font-family="Times,serif" font-size="14.00">0x80088c0:</text>
<text text-anchor="start" x="8" y="-1538.3" font-family="Times,serif" font-size="14.00"> g29 = (v12 &#45; g42)</text>
<text text-anchor="start" x="8" y="-1523.3" font-family="Times,serif" font-size="14.00"> g38 = v1</text>
<text text-anchor="start" x="8" y="-1508.3" font-family="Times,serif" font-size="14.00"> g39 = v2</text>
<text text-anchor="start" x="8" y="-1493.3" font-family="Times,serif" font-size="14.00"> g40 = v3</text>
<text text-anchor="start" x="8" y="-1478.3" font-family="Times,serif" font-size="14.00"> g41 = v4</text>
<text text-anchor="start" x="8" y="-1463.3" font-family="Times,serif" font-size="14.00"> g42 = v5</text>
<text text-anchor="start" x="8" y="-1448.3" font-family="Times,serif" font-size="14.00"> g43 = v6</text>
<text text-anchor="start" x="8" y="-1433.3" font-family="Times,serif" font-size="14.00"> g31 = v7</text>
<text text-anchor="start" x="8" y="-1418.3" font-family="Times,serif" font-size="14.00"> g32 = v8</text>
<text text-anchor="start" x="8" y="-1403.3" font-family="Times,serif" font-size="14.00"> g34 = v15</text>
<text text-anchor="start" x="8" y="-1388.3" font-family="Times,serif" font-size="14.00"> IntToPtrCastExpr&lt;ptr&gt;(v9)()</text>
<text text-anchor="start" x="8" y="-1373.3" font-family="Times,serif" font-size="14.00"> return</text>
</g>
<!-- Node0x32d86410&#45;&gt;Node0x32d89110 -->
<g id="edge3" class="edge"><title>Node0x32d86410&#45;&gt;Node0x32d89110</title>
<path fill="none" stroke="black" d="M187.783,-1677.4C185.368,-1671.56 182.748,-1665.03 180.5,-1659 170.823,-1633.02 161.002,-1604.82 152.055,-1578.26"/>
<polygon fill="black" stroke="black" points="155.299,-1576.93 148.8,-1568.56 148.662,-1579.15 155.299,-1576.93"/>
<text text-anchor="middle" x="215" y="-1647.8" font-family="Times,serif" font-size="14.00">v14 == 0</text>
</g>
<!-- Node0x32d86c10 -->
<g id="node5" class="node"><title>Node0x32d86c10</title>
<polygon fill="none" stroke="black" points="270.5,-1587.5 270.5,-1625.5 380.5,-1625.5 380.5,-1587.5 270.5,-1587.5"/>
<text text-anchor="start" x="278.5" y="-1610.3" font-family="Times,serif" font-size="14.00">0x163ab530:</text>
<text text-anchor="start" x="278.5" y="-1595.3" font-family="Times,serif" font-size="14.00"> v16</text>
</g>
<!-- Node0x32d86410&#45;&gt;Node0x32d86c10 -->
<g id="edge4" class="edge"><title>Node0x32d86410&#45;&gt;Node0x32d86c10</title>
<path fill="none" stroke="black" d="M222.121,-1677.48C241.708,-1664.22 268.538,-1646.06 289.956,-1631.56"/>
<polygon fill="black" stroke="black" points="292.149,-1634.3 298.468,-1625.8 288.225,-1628.51 292.149,-1634.3"/>
<text text-anchor="middle" x="300" y="-1647.8" font-family="Times,serif" font-size="14.00">v14 != 0</text>
</g>
<!-- Node0x47e06960 -->
<g id="node6" class="node"><title>Node0x47e06960</title>
<polygon fill="none" stroke="black" points="213.5,-23.5 213.5,-59.5 267.5,-59.5 267.5,-23.5 213.5,-23.5"/>
<text text-anchor="start" x="221.5" y="-37.8" font-family="Times,serif" font-size="14.00">exit:</text>
</g>
<!-- Node0x32d89110&#45;&gt;Node0x47e06960 -->
<g id="edge5" class="edge"><title>Node0x32d89110&#45;&gt;Node0x47e06960</title>
<path fill="none" stroke="black" d="M110.498,-1365.15C109.351,-1338.6 108.5,-1309.98 108.5,-1283.5 108.5,-1283.5 108.5,-1283.5 108.5,-190.5 108.5,-132.649 165.367,-86.9799 204.451,-62.4245"/>
<polygon fill="black" stroke="black" points="206.75,-65.1222 213.469,-56.9305 203.108,-59.1441 206.75,-65.1222"/>
</g>
<!-- Node0x32d86f10 -->
<g id="node7" class="node"><title>Node0x32d86f10</title>
<polygon fill="none" stroke="black" points="284,-1308.5 284,-1346.5 385,-1346.5 385,-1308.5 284,-1308.5"/>
<text text-anchor="start" x="292" y="-1331.3" font-family="Times,serif" font-size="14.00">0x80117b0:</text>
<text text-anchor="start" x="292" y="-1316.3" font-family="Times,serif" font-size="14.00"> while True:</text>
</g>
<!-- Node0x32d86c10&#45;&gt;Node0x32d86f10 -->
<g id="edge6" class="edge"><title>Node0x32d86c10&#45;&gt;Node0x32d86f10</title>
<path fill="none" stroke="black" d="M326.091,-1587.33C327.623,-1540.17 331.733,-1413.65 333.58,-1356.82"/>
<polygon fill="black" stroke="black" points="337.081,-1356.85 333.907,-1346.74 330.084,-1356.62 337.081,-1356.85"/>
</g>
<!-- Node0x32d8ac10 -->
<g id="node8" class="node"><title>Node0x32d8ac10</title>
<polygon fill="none" stroke="black" points="136.5,-1008.5 136.5,-1256.5 532.5,-1256.5 532.5,-1008.5 136.5,-1008.5"/>
<text text-anchor="start" x="144.5" y="-1241.3" font-family="Times,serif" font-size="14.00">0x121f5460:</text>
<text text-anchor="start" x="144.5" y="-1226.3" font-family="Times,serif" font-size="14.00"> v17</text>
<text text-anchor="start" x="144.5" y="-1211.3" font-family="Times,serif" font-size="14.00"> memcpy(&amp;(v17), IntToPtrCastExpr&lt;ptr&gt;(v12), v14)</text>
<text text-anchor="start" x="144.5" y="-1196.3" font-family="Times,serif" font-size="14.00"> v18 = IntToPtrCastExpr&lt;ptr&gt;((g41 + 8))</text>
<text text-anchor="start" x="144.5" y="-1181.3" font-family="Times,serif" font-size="14.00"> v19 = g38</text>
<text text-anchor="start" x="144.5" y="-1166.3" font-family="Times,serif" font-size="14.00"> v20 = g40</text>
<text text-anchor="start" x="144.5" y="-1151.3" font-family="Times,serif" font-size="14.00"> v21 = (v20 &#45; v19)</text>
<text text-anchor="start" x="144.5" y="-1136.3" font-family="Times,serif" font-size="14.00"> g8 = (((v21 ^ v20) &amp; (v20 ^ v19)) &lt; 0)</text>
<text text-anchor="start" x="144.5" y="-1121.3" font-family="Times,serif" font-size="14.00"> g7 = (v21 &lt; 0)</text>
<text text-anchor="start" x="144.5" y="-1106.3" font-family="Times,serif" font-size="14.00"> g9 = (v20 == v19)</text>
<text text-anchor="start" x="144.5" y="-1091.3" font-family="Times,serif" font-size="14.00"> g40 = v21</text>
<text text-anchor="start" x="144.5" y="-1076.3" font-family="Times,serif" font-size="14.00"> v22 = (v19 + *(v18))</text>
<text text-anchor="start" x="144.5" y="-1061.3" font-family="Times,serif" font-size="14.00"> g37 = v22</text>
<text text-anchor="start" x="144.5" y="-1046.3" font-family="Times,serif" font-size="14.00"> *(v18) = v22</text>
<text text-anchor="start" x="144.5" y="-1031.3" font-family="Times,serif" font-size="14.00"> v23 = (g39 + g38)</text>
<text text-anchor="start" x="144.5" y="-1016.3" font-family="Times,serif" font-size="14.00"> g39 = v23</text>
</g>
<!-- Node0x32d86f10&#45;&gt;Node0x32d8ac10 -->
<g id="edge7" class="edge"><title>Node0x32d86f10&#45;&gt;Node0x32d8ac10</title>
<path fill="none" stroke="black" d="M334.5,-1308.34C334.5,-1297.7 334.5,-1283.18 334.5,-1267.04"/>
<polygon fill="black" stroke="black" points="338,-1266.8 334.5,-1256.8 331,-1266.8 338,-1266.8"/>
<text text-anchor="middle" x="351.5" y="-1278.8" font-family="Times,serif" font-size="14.00">True</text>
</g>
<!-- Node0x333ff5d0 -->
<g id="node9" class="node"><title>Node0x333ff5d0</title>
<polygon fill="none" stroke="black" points="266.5,-932.5 266.5,-970.5 402.5,-970.5 402.5,-932.5 266.5,-932.5"/>
<text text-anchor="start" x="274.5" y="-955.3" font-family="Times,serif" font-size="14.00">0x800e300:</text>
<text text-anchor="start" x="274.5" y="-940.3" font-family="Times,serif" font-size="14.00"> if (v20 == v19):</text>
</g>
<!-- Node0x32d8ac10&#45;&gt;Node0x333ff5d0 -->
<g id="edge8" class="edge"><title>Node0x32d8ac10&#45;&gt;Node0x333ff5d0</title>
<path fill="none" stroke="black" d="M334.5,-1008.16C334.5,-998.164 334.5,-988.832 334.5,-980.772"/>
<polygon fill="black" stroke="black" points="338,-980.628 334.5,-970.628 331,-980.628 338,-980.628"/>
</g>
<!-- Node0x34054b90 -->
<g id="node10" class="node"><title>Node0x34054b90</title>
<polygon fill="none" stroke="black" points="124,-485.5 124,-688.5 357,-688.5 357,-485.5 124,-485.5"/>
<text text-anchor="start" x="132" y="-673.3" font-family="Times,serif" font-size="14.00">0x800d250:</text>
<text text-anchor="start" x="132" y="-658.3" font-family="Times,serif" font-size="14.00"> g29 = (v23 &#45; g42)</text>
<text text-anchor="start" x="132" y="-643.3" font-family="Times,serif" font-size="14.00"> g38 = v1</text>
<text text-anchor="start" x="132" y="-628.3" font-family="Times,serif" font-size="14.00"> g39 = v2</text>
<text text-anchor="start" x="132" y="-613.3" font-family="Times,serif" font-size="14.00"> g40 = v3</text>
<text text-anchor="start" x="132" y="-598.3" font-family="Times,serif" font-size="14.00"> g41 = v4</text>
<text text-anchor="start" x="132" y="-583.3" font-family="Times,serif" font-size="14.00"> g42 = v5</text>
<text text-anchor="start" x="132" y="-568.3" font-family="Times,serif" font-size="14.00"> g43 = v6</text>
<text text-anchor="start" x="132" y="-553.3" font-family="Times,serif" font-size="14.00"> g31 = v7</text>
<text text-anchor="start" x="132" y="-538.3" font-family="Times,serif" font-size="14.00"> g32 = v8</text>
<text text-anchor="start" x="132" y="-523.3" font-family="Times,serif" font-size="14.00"> g34 = v15</text>
<text text-anchor="start" x="132" y="-508.3" font-family="Times,serif" font-size="14.00"> IntToPtrCastExpr&lt;ptr&gt;(v9)()</text>
<text text-anchor="start" x="132" y="-493.3" font-family="Times,serif" font-size="14.00"> return</text>
</g>
<!-- Node0x333ff5d0&#45;&gt;Node0x34054b90 -->
<g id="edge9" class="edge"><title>Node0x333ff5d0&#45;&gt;Node0x34054b90</title>
<path fill="none" stroke="black" d="M281.789,-932.329C273.382,-927.476 265.494,-921.444 259.5,-914 211.719,-854.654 208.869,-767.775 216.943,-698.627"/>
<polygon fill="black" stroke="black" points="220.434,-698.917 218.209,-688.559 213.488,-698.044 220.434,-698.917"/>
<text text-anchor="middle" x="302.5" y="-902.8" font-family="Times,serif" font-size="14.00">v20 == v19</text>
</g>
<!-- Node0x333ffcd0 -->
<g id="node11" class="node"><title>Node0x333ffcd0</title>
<polygon fill="none" stroke="black" points="260.5,-707.5 260.5,-880.5 532.5,-880.5 532.5,-707.5 260.5,-707.5"/>
<text text-anchor="start" x="268.5" y="-865.3" font-family="Times,serif" font-size="14.00">0x800e750:</text>
<text text-anchor="start" x="268.5" y="-850.3" font-family="Times,serif" font-size="14.00"> g29 = g41</text>
<text text-anchor="start" x="268.5" y="-835.3" font-family="Times,serif" font-size="14.00"> function_1321c()</text>
<text text-anchor="start" x="268.5" y="-820.3" font-family="Times,serif" font-size="14.00"> g37 = v11</text>
<text text-anchor="start" x="268.5" y="-805.3" font-family="Times,serif" font-size="14.00"> v16 = g39</text>
<text text-anchor="start" x="268.5" y="-790.3" font-family="Times,serif" font-size="14.00"> v24 = g40</text>
<text text-anchor="start" x="268.5" y="-775.3" font-family="Times,serif" font-size="14.00"> v25 = (v24 if (v24 &lt; v11) else v11)</text>
<text text-anchor="start" x="268.5" y="-760.3" font-family="Times,serif" font-size="14.00"> g38 = v25</text>
<text text-anchor="start" x="268.5" y="-745.3" font-family="Times,serif" font-size="14.00"> g8 = False</text>
<text text-anchor="start" x="268.5" y="-730.3" font-family="Times,serif" font-size="14.00"> g7 = (v25 &lt; 0)</text>
<text text-anchor="start" x="268.5" y="-715.3" font-family="Times,serif" font-size="14.00"> g9 = (v25 == 0)</text>
</g>
<!-- Node0x333ff5d0&#45;&gt;Node0x333ffcd0 -->
<g id="edge10" class="edge"><title>Node0x333ff5d0&#45;&gt;Node0x333ffcd0</title>
<path fill="none" stroke="black" d="M341.734,-932.358C346.139,-921.308 352.146,-906.242 358.571,-890.128"/>
<polygon fill="black" stroke="black" points="361.941,-891.126 362.394,-880.541 355.439,-888.533 361.941,-891.126"/>
<text text-anchor="middle" x="395.5" y="-902.8" font-family="Times,serif" font-size="14.00">v20 != v19</text>
</g>
<!-- Node0x34054b90&#45;&gt;Node0x47e06960 -->
<g id="edge11" class="edge"><title>Node0x34054b90&#45;&gt;Node0x47e06960</title>
<path fill="none" stroke="black" d="M240.5,-485.119C240.5,-458.57 240.5,-429.956 240.5,-403.5 240.5,-403.5 240.5,-403.5 240.5,-190.5 240.5,-148.393 240.5,-99.5479 240.5,-69.8456"/>
<polygon fill="black" stroke="black" points="244,-69.8166 240.5,-59.8167 237,-69.8167 244,-69.8166"/>
</g>
<!-- Node0x334014d0 -->
<g id="node12" class="node"><title>Node0x334014d0</title>
<polygon fill="none" stroke="black" points="337,-428.5 337,-466.5 456,-466.5 456,-428.5 337,-428.5"/>
<text text-anchor="start" x="345" y="-451.3" font-family="Times,serif" font-size="14.00">0x8010340:</text>
<text text-anchor="start" x="345" y="-436.3" font-family="Times,serif" font-size="14.00"> if (v25 == 0):</text>
</g>
<!-- Node0x333ffcd0&#45;&gt;Node0x334014d0 -->
<g id="edge12" class="edge"><title>Node0x333ffcd0&#45;&gt;Node0x334014d0</title>
<path fill="none" stroke="black" d="M396.5,-707.4C396.5,-632.026 396.5,-526.719 396.5,-476.843"/>
<polygon fill="black" stroke="black" points="400,-476.793 396.5,-466.793 393,-476.793 400,-476.793"/>
</g>
<!-- Node0x34056a50 -->
<g id="node13" class="node"><title>Node0x34056a50</title>
<polygon fill="none" stroke="black" points="336,-331 336,-369 437,-369 437,-331 336,-331"/>
<text text-anchor="start" x="344" y="-353.8" font-family="Times,serif" font-size="14.00">0x8010100:</text>
<text text-anchor="start" x="344" y="-338.8" font-family="Times,serif" font-size="14.00"> break</text>
</g>
<!-- Node0x334014d0&#45;&gt;Node0x34056a50 -->
<g id="edge13" class="edge"><title>Node0x334014d0&#45;&gt;Node0x34056a50</title>
<path fill="none" stroke="black" d="M393.167,-428.353C392.188,-422.51 391.195,-415.996 390.5,-410 389.338,-399.964 388.478,-388.926 387.86,-379.139"/>
<polygon fill="black" stroke="black" points="391.352,-378.898 387.281,-369.116 384.363,-379.301 391.352,-378.898"/>
<text text-anchor="middle" x="425" y="-398.8" font-family="Times,serif" font-size="14.00">v25 == 0</text>
</g>
<!-- Node0x333fb7c0 -->
<g id="node14" class="node"><title>Node0x333fb7c0</title>
<polygon fill="none" stroke="black" points="483.5,-323.5 483.5,-376.5 581.5,-376.5 581.5,-323.5 483.5,-323.5"/>
<text text-anchor="start" x="491.5" y="-361.3" font-family="Times,serif" font-size="14.00">0x800fdd0:</text>
<text text-anchor="start" x="491.5" y="-346.3" font-family="Times,serif" font-size="14.00"> v14 = v25</text>
<text text-anchor="start" x="491.5" y="-331.3" font-family="Times,serif" font-size="14.00"> v12 = v16</text>
</g>
<!-- Node0x334014d0&#45;&gt;Node0x333fb7c0 -->
<g id="edge14" class="edge"><title>Node0x334014d0&#45;&gt;Node0x333fb7c0</title>
<path fill="none" stroke="black" d="M429.791,-428.493C439.557,-422.871 450.126,-416.446 459.5,-410 471.385,-401.827 483.778,-392.252 494.908,-383.222"/>
<polygon fill="black" stroke="black" points="497.257,-385.822 502.763,-376.771 492.814,-380.413 497.257,-385.822"/>
<text text-anchor="middle" x="509" y="-398.8" font-family="Times,serif" font-size="14.00">v25 != 0</text>
</g>
<!-- Node0x32d87610 -->
<g id="node15" class="node"><title>Node0x32d87610</title>
<polygon fill="none" stroke="black" points="269,-97.5 269,-285.5 502,-285.5 502,-97.5 269,-97.5"/>
<text text-anchor="start" x="277" y="-270.3" font-family="Times,serif" font-size="14.00">0x8010840:</text>
<text text-anchor="start" x="277" y="-255.3" font-family="Times,serif" font-size="14.00"> g29 = (v16 &#45; g42)</text>
<text text-anchor="start" x="277" y="-240.3" font-family="Times,serif" font-size="14.00"> g38 = v1</text>
<text text-anchor="start" x="277" y="-225.3" font-family="Times,serif" font-size="14.00"> g39 = v2</text>
<text text-anchor="start" x="277" y="-210.3" font-family="Times,serif" font-size="14.00"> g40 = v3</text>
<text text-anchor="start" x="277" y="-195.3" font-family="Times,serif" font-size="14.00"> g41 = v4</text>
<text text-anchor="start" x="277" y="-180.3" font-family="Times,serif" font-size="14.00"> g42 = v5</text>
<text text-anchor="start" x="277" y="-165.3" font-family="Times,serif" font-size="14.00"> g43 = v6</text>
<text text-anchor="start" x="277" y="-150.3" font-family="Times,serif" font-size="14.00"> g31 = v7</text>
<text text-anchor="start" x="277" y="-135.3" font-family="Times,serif" font-size="14.00"> g32 = v8</text>
<text text-anchor="start" x="277" y="-120.3" font-family="Times,serif" font-size="14.00"> g34 = v15</text>
<text text-anchor="start" x="277" y="-105.3" font-family="Times,serif" font-size="14.00"> IntToPtrCastExpr&lt;ptr&gt;(v9)()</text>
</g>
<!-- Node0x34056a50&#45;&gt;Node0x32d87610 -->
<g id="edge15" class="edge"><title>Node0x34056a50&#45;&gt;Node0x32d87610</title>
<path fill="none" stroke="black" d="M386.383,-330.741C386.324,-321.425 386.246,-309.272 386.162,-296.039"/>
<polygon fill="black" stroke="black" points="389.66,-295.715 386.096,-285.738 382.66,-295.76 389.66,-295.715"/>
</g>
<!-- Node0x333fb7c0&#45;&gt;Node0x32d86f10 -->
<g id="edge16" class="edge"><title>Node0x333fb7c0&#45;&gt;Node0x32d86f10</title>
<path fill="none" stroke="black" d="M544.375,-376.752C552.006,-395.642 560.5,-422.138 560.5,-446.5 560.5,-1133.5 560.5,-1133.5 560.5,-1133.5 560.5,-1189.03 577.266,-1214.52 541.5,-1257 505.562,-1299.69 442.514,-1316.26 395.414,-1322.64"/>
<polygon fill="black" stroke="black" points="394.816,-1319.19 385.32,-1323.89 395.674,-1326.14 394.816,-1319.19"/>
</g>
<!-- Node0x32d87610&#45;&gt;Node0x47e06960 -->
<g id="edge17" class="edge"><title>Node0x32d87610&#45;&gt;Node0x47e06960</title>
<path fill="none" stroke="black" d="M294.081,-97.1892C283.233,-86.1174 272.993,-75.6657 264.428,-66.9234"/>
<polygon fill="black" stroke="black" points="266.858,-64.4018 257.359,-59.7081 261.858,-69.3007 266.858,-64.4018"/>
</g>
</g>
</svg>
