<?xml version="1.0" encoding="UTF-8" standalone="no"?>
<!DOCTYPE svg PUBLIC "-//W3C//DTD SVG 1.1//EN"
 "http://www.w3.org/Graphics/SVG/1.1/DTD/svg11.dtd">
<!-- Generated by graphviz version 2.38.0 (20140413.2041)
 -->
<!-- Title: Control&#45;flow graph for function &#39;function_1b690()&#39;. Pages: 1 -->
<svg width="805pt" height="2229pt"
 viewBox="0.00 0.00 805.00 2229.00" xmlns="http://www.w3.org/2000/svg" xmlns:xlink="http://www.w3.org/1999/xlink">
<g id="graph0" class="graph" transform="scale(1 1) rotate(0) translate(4 2225)">
<title>Control&#45;flow graph for function &#39;function_1b690()&#39;.</title>
<polygon fill="white" stroke="none" points="-4,4 -4,-2225 801,-2225 801,4 -4,4"/>
<text text-anchor="middle" x="398.5" y="-7.8" font-family="Times,serif" font-size="14.00">Control&#45;flow graph for function &#39;function_1b690()&#39;.</text>
<!-- Node0x3648fbc0 -->
<g id="node1" class="node"><title>Node0x3648fbc0</title>
<polygon fill="none" stroke="black" points="154,-2184.5 154,-2220.5 213,-2220.5 213,-2184.5 154,-2184.5"/>
<text text-anchor="start" x="162" y="-2198.8" font-family="Times,serif" font-size="14.00">entry:</text>
</g>
<!-- Node0x3f812650 -->
<g id="node2" class="node"><title>Node0x3f812650</title>
<polygon fill="none" stroke="black" points="118.5,-1958.5 118.5,-2146.5 248.5,-2146.5 248.5,-1958.5 118.5,-1958.5"/>
<text text-anchor="start" x="126.5" y="-2131.3" font-family="Times,serif" font-size="14.00">0x259cc450:</text>
<text text-anchor="start" x="126.5" y="-2116.3" font-family="Times,serif" font-size="14.00"> v1 = g38</text>
<text text-anchor="start" x="126.5" y="-2101.3" font-family="Times,serif" font-size="14.00"> v2 = g39</text>
<text text-anchor="start" x="126.5" y="-2086.3" font-family="Times,serif" font-size="14.00"> v3 = g32</text>
<text text-anchor="start" x="126.5" y="-2071.3" font-family="Times,serif" font-size="14.00"> v4 = g35</text>
<text text-anchor="start" x="126.5" y="-2056.3" font-family="Times,serif" font-size="14.00"> v5 = g29</text>
<text text-anchor="start" x="126.5" y="-2041.3" font-family="Times,serif" font-size="14.00"> g38 = v5</text>
<text text-anchor="start" x="126.5" y="-2026.3" font-family="Times,serif" font-size="14.00"> v6 = g30</text>
<text text-anchor="start" x="126.5" y="-2011.3" font-family="Times,serif" font-size="14.00"> g8 = False</text>
<text text-anchor="start" x="126.5" y="-1996.3" font-family="Times,serif" font-size="14.00"> g7 = (v5 &lt; 0)</text>
<text text-anchor="start" x="126.5" y="-1981.3" font-family="Times,serif" font-size="14.00"> g9 = (v5 == 0)</text>
<text text-anchor="start" x="126.5" y="-1966.3" font-family="Times,serif" font-size="14.00"> v7</text>
</g>
<!-- Node0x3648fbc0&#45;&gt;Node0x3f812650 -->
<g id="edge1" class="edge"><title>Node0x3648fbc0&#45;&gt;Node0x3f812650</title>
<path fill="none" stroke="black" d="M183.5,-2184.23C183.5,-2176.72 183.5,-2167.26 183.5,-2156.88"/>
<polygon fill="black" stroke="black" points="187,-2156.67 183.5,-2146.67 180,-2156.67 187,-2156.67"/>
</g>
<!-- Node0x3f8158e0 -->
<g id="node3" class="node"><title>Node0x3f8158e0</title>
<polygon fill="none" stroke="black" points="128.5,-1882.5 128.5,-1920.5 238.5,-1920.5 238.5,-1882.5 128.5,-1882.5"/>
<text text-anchor="start" x="136.5" y="-1905.3" font-family="Times,serif" font-size="14.00">0x93aa3b0:</text>
<text text-anchor="start" x="136.5" y="-1890.3" font-family="Times,serif" font-size="14.00"> if (v5 == 0):</text>
</g>
<!-- Node0x3f812650&#45;&gt;Node0x3f8158e0 -->
<g id="edge2" class="edge"><title>Node0x3f812650&#45;&gt;Node0x3f8158e0</title>
<path fill="none" stroke="black" d="M183.5,-1958.41C183.5,-1948.43 183.5,-1938.92 183.5,-1930.67"/>
<polygon fill="black" stroke="black" points="187,-1930.62 183.5,-1920.62 180,-1930.62 187,-1930.62"/>
</g>
<!-- Node0x3648e8c0 -->
<g id="node4" class="node"><title>Node0x3648e8c0</title>
<polygon fill="none" stroke="black" points="0,-1540.5 0,-1668.5 233,-1668.5 233,-1540.5 0,-1540.5"/>
<text text-anchor="start" x="8" y="-1653.3" font-family="Times,serif" font-size="14.00">0x93a9a10:</text>
<text text-anchor="start" x="8" y="-1638.3" font-family="Times,serif" font-size="14.00"> g29 = 0</text>
<text text-anchor="start" x="8" y="-1623.3" font-family="Times,serif" font-size="14.00"> g38 = v1</text>
<text text-anchor="start" x="8" y="-1608.3" font-family="Times,serif" font-size="14.00"> g39 = v2</text>
<text text-anchor="start" x="8" y="-1593.3" font-family="Times,serif" font-size="14.00"> g32 = v3</text>
<text text-anchor="start" x="8" y="-1578.3" font-family="Times,serif" font-size="14.00"> g34 = v7</text>
<text text-anchor="start" x="8" y="-1563.3" font-family="Times,serif" font-size="14.00"> IntToPtrCastExpr&lt;ptr&gt;(v4)()</text>
<text text-anchor="start" x="8" y="-1548.3" font-family="Times,serif" font-size="14.00"> return</text>
</g>
<!-- Node0x3f8158e0&#45;&gt;Node0x3648e8c0 -->
<g id="edge3" class="edge"><title>Node0x3f8158e0&#45;&gt;Node0x3648e8c0</title>
<path fill="none" stroke="black" d="M166.114,-1882.49C154.798,-1869.4 141.131,-1850.59 135.5,-1831 121.303,-1781.61 116.654,-1723.81 115.502,-1679.1"/>
<polygon fill="black" stroke="black" points="118.997,-1678.83 115.294,-1668.9 111.999,-1678.97 118.997,-1678.83"/>
<text text-anchor="middle" x="181.5" y="-1852.8" font-family="Times,serif" font-size="14.00">v5 == 0</text>
</g>
<!-- Node0x3648eac0 -->
<g id="node5" class="node"><title>Node0x3648eac0</title>
<polygon fill="none" stroke="black" points="145,-1687.5 145,-1830.5 464,-1830.5 464,-1687.5 145,-1687.5"/>
<text text-anchor="start" x="153" y="-1815.3" font-family="Times,serif" font-size="14.00">0x259cbf50:</text>
<text text-anchor="start" x="153" y="-1800.3" font-family="Times,serif" font-size="14.00"> v8 = *(IntToPtrCastExpr&lt;ptr&gt;((v5 + 8)))</text>
<text text-anchor="start" x="153" y="-1785.3" font-family="Times,serif" font-size="14.00"> g36 = v8</text>
<text text-anchor="start" x="153" y="-1770.3" font-family="Times,serif" font-size="14.00"> v9 = (v6 &#45; v8)</text>
<text text-anchor="start" x="153" y="-1755.3" font-family="Times,serif" font-size="14.00"> g8 = (((v9 ^ v6) &amp; (v8 ^ v6)) &lt; 0)</text>
<text text-anchor="start" x="153" y="-1740.3" font-family="Times,serif" font-size="14.00"> g7 = (v9 &lt; 0)</text>
<text text-anchor="start" x="153" y="-1725.3" font-family="Times,serif" font-size="14.00"> g9 = (v6 == v8)</text>
<text text-anchor="start" x="153" y="-1710.3" font-family="Times,serif" font-size="14.00"> v10</text>
<text text-anchor="start" x="153" y="-1695.3" font-family="Times,serif" font-size="14.00"> v11</text>
</g>
<!-- Node0x3f8158e0&#45;&gt;Node0x3648eac0 -->
<g id="edge4" class="edge"><title>Node0x3f8158e0&#45;&gt;Node0x3648eac0</title>
<path fill="none" stroke="black" d="M199.071,-1882.42C209.089,-1870.79 222.874,-1854.78 237.173,-1838.18"/>
<polygon fill="black" stroke="black" points="239.894,-1840.38 243.768,-1830.52 234.59,-1835.81 239.894,-1840.38"/>
<text text-anchor="middle" x="253.5" y="-1852.8" font-family="Times,serif" font-size="14.00">v5 != 0</text>
</g>
<!-- Node0xdbe7900 -->
<g id="node6" class="node"><title>Node0xdbe7900</title>
<polygon fill="none" stroke="black" points="288.5,-23.5 288.5,-59.5 342.5,-59.5 342.5,-23.5 288.5,-23.5"/>
<text text-anchor="start" x="296.5" y="-37.8" font-family="Times,serif" font-size="14.00">exit:</text>
</g>
<!-- Node0x3648e8c0&#45;&gt;Node0xdbe7900 -->
<g id="edge5" class="edge"><title>Node0x3648e8c0&#45;&gt;Node0xdbe7900</title>
<path fill="none" stroke="black" d="M116.5,-1540.43C116.5,-1510.98 116.5,-1475.44 116.5,-1443.5 116.5,-1443.5 116.5,-1443.5 116.5,-153 116.5,-79.898 220.409,-54.7453 278.057,-46.4159"/>
<polygon fill="black" stroke="black" points="278.801,-49.8474 288.247,-45.0486 277.871,-42.9096 278.801,-49.8474"/>
</g>
<!-- Node0x32b36c30 -->
<g id="node7" class="node"><title>Node0x32b36c30</title>
<polygon fill="none" stroke="black" points="251.5,-1468.5 251.5,-1521.5 357.5,-1521.5 357.5,-1468.5 251.5,-1468.5"/>
<text text-anchor="start" x="259.5" y="-1506.3" font-family="Times,serif" font-size="14.00">0x93adde0:</text>
<text text-anchor="start" x="259.5" y="-1491.3" font-family="Times,serif" font-size="14.00"> if (v6 &lt; v8):</text>
<text text-anchor="start" x="259.5" y="-1476.3" font-family="Times,serif" font-size="14.00"> else:</text>
</g>
<!-- Node0x3648eac0&#45;&gt;Node0x32b36c30 -->
<g id="edge6" class="edge"><title>Node0x3648eac0&#45;&gt;Node0x32b36c30</title>
<path fill="none" stroke="black" d="M304.5,-1687.44C304.5,-1637.08 304.5,-1571.45 304.5,-1531.58"/>
<polygon fill="black" stroke="black" points="308,-1531.54 304.5,-1521.54 301,-1531.54 308,-1531.54"/>
</g>
<!-- Node0x3f8182c0 -->
<g id="node8" class="node"><title>Node0x3f8182c0</title>
<polygon fill="none" stroke="black" points="131.5,-1231.5 131.5,-1344.5 469.5,-1344.5 469.5,-1231.5 131.5,-1231.5"/>
<text text-anchor="start" x="139.5" y="-1329.3" font-family="Times,serif" font-size="14.00">0x93ac240:</text>
<text text-anchor="start" x="139.5" y="-1314.3" font-family="Times,serif" font-size="14.00"> v10 = IntToPtrCastExpr&lt;ptr&gt;((v5 + 4))</text>
<text text-anchor="start" x="139.5" y="-1299.3" font-family="Times,serif" font-size="14.00"> g36 = (v8 &#45; v6)</text>
<text text-anchor="start" x="139.5" y="-1284.3" font-family="Times,serif" font-size="14.00"> v11 = (*(v10) + v6)</text>
<text text-anchor="start" x="139.5" y="-1269.3" font-family="Times,serif" font-size="14.00"> g37 = v11</text>
<text text-anchor="start" x="139.5" y="-1254.3" font-family="Times,serif" font-size="14.00"> *(v10) = v11</text>
<text text-anchor="start" x="139.5" y="-1239.3" font-family="Times,serif" font-size="14.00"> *(IntToPtrCastExpr&lt;ptr&gt;((g38 + 8))) = g36</text>
</g>
<!-- Node0x32b36c30&#45;&gt;Node0x3f8182c0 -->
<g id="edge7" class="edge"><title>Node0x32b36c30&#45;&gt;Node0x3f8182c0</title>
<path fill="none" stroke="black" d="M301.781,-1468.43C301.248,-1462.4 300.771,-1455.98 300.5,-1450 299.078,-1418.65 298.903,-1383.84 299.155,-1354.62"/>
<polygon fill="black" stroke="black" points="302.656,-1354.58 299.261,-1344.54 295.656,-1354.5 302.656,-1354.58"/>
<text text-anchor="middle" x="328.5" y="-1438.8" font-family="Times,serif" font-size="14.00">v6 &lt; v8</text>
</g>
<!-- Node0x3f818020 -->
<g id="node9" class="node"><title>Node0x3f818020</title>
<polygon fill="none" stroke="black" points="381.5,-1363.5 381.5,-1416.5 487.5,-1416.5 487.5,-1363.5 381.5,-1363.5"/>
<text text-anchor="start" x="389.5" y="-1401.3" font-family="Times,serif" font-size="14.00">0x259cb9f0:</text>
<text text-anchor="start" x="389.5" y="-1386.3" font-family="Times,serif" font-size="14.00"> v12</text>
<text text-anchor="start" x="389.5" y="-1371.3" font-family="Times,serif" font-size="14.00"> v13</text>
</g>
<!-- Node0x32b36c30&#45;&gt;Node0x3f818020 -->
<g id="edge8" class="edge"><title>Node0x32b36c30&#45;&gt;Node0x3f818020</title>
<path fill="none" stroke="black" d="M337.104,-1468.45C344.785,-1462.41 352.938,-1455.99 360.5,-1450 371.593,-1441.22 383.595,-1431.67 394.64,-1422.87"/>
<polygon fill="black" stroke="black" points="396.852,-1425.58 402.486,-1416.61 392.486,-1420.11 396.852,-1425.58"/>
<text text-anchor="middle" x="413.5" y="-1438.8" font-family="Times,serif" font-size="14.00">v6 &gt;= v8</text>
</g>
<!-- Node0x3f817e90 -->
<g id="node10" class="node"><title>Node0x3f817e90</title>
<polygon fill="none" stroke="black" points="199,-97.5 199,-210.5 432,-210.5 432,-97.5 199,-97.5"/>
<text text-anchor="start" x="207" y="-195.3" font-family="Times,serif" font-size="14.00">0x93b42a0:</text>
<text text-anchor="start" x="207" y="-180.3" font-family="Times,serif" font-size="14.00"> g29 = g38</text>
<text text-anchor="start" x="207" y="-165.3" font-family="Times,serif" font-size="14.00"> g38 = v1</text>
<text text-anchor="start" x="207" y="-150.3" font-family="Times,serif" font-size="14.00"> g39 = v2</text>
<text text-anchor="start" x="207" y="-135.3" font-family="Times,serif" font-size="14.00"> g32 = v3</text>
<text text-anchor="start" x="207" y="-120.3" font-family="Times,serif" font-size="14.00"> g34 = v7</text>
<text text-anchor="start" x="207" y="-105.3" font-family="Times,serif" font-size="14.00"> IntToPtrCastExpr&lt;ptr&gt;(v4)()</text>
</g>
<!-- Node0x3f8182c0&#45;&gt;Node0x3f817e90 -->
<g id="edge9" class="edge"><title>Node0x3f8182c0&#45;&gt;Node0x3f817e90</title>
<path fill="none" stroke="black" d="M275.341,-1231.3C266.396,-1206.74 258.5,-1177.21 258.5,-1149.5 258.5,-1149.5 258.5,-1149.5 258.5,-304 258.5,-275.263 267.863,-245.344 279,-219.922"/>
<polygon fill="black" stroke="black" points="282.209,-221.321 283.17,-210.77 275.839,-218.419 282.209,-221.321"/>
</g>
<!-- Node0x10b24b60 -->
<g id="node11" class="node"><title>Node0x10b24b60</title>
<polygon fill="none" stroke="black" points="434,-1174.5 434,-1212.5 535,-1212.5 535,-1174.5 434,-1174.5"/>
<text text-anchor="start" x="442" y="-1197.3" font-family="Times,serif" font-size="14.00">0x93b40a0:</text>
<text text-anchor="start" x="442" y="-1182.3" font-family="Times,serif" font-size="14.00"> while True:</text>
</g>
<!-- Node0x3f818020&#45;&gt;Node0x10b24b60 -->
<g id="edge10" class="edge"><title>Node0x3f818020&#45;&gt;Node0x10b24b60</title>
<path fill="none" stroke="black" d="M459.745,-1363.19C463.998,-1357.58 467.878,-1351.39 470.5,-1345 486.891,-1305.04 487.992,-1254.25 486.689,-1223.08"/>
<polygon fill="black" stroke="black" points="490.175,-1222.72 486.149,-1212.92 483.185,-1223.09 490.175,-1222.72"/>
</g>
<!-- Node0x3f817e90&#45;&gt;Node0xdbe7900 -->
<g id="edge11" class="edge"><title>Node0x3f817e90&#45;&gt;Node0xdbe7900</title>
<path fill="none" stroke="black" d="M315.5,-97.4263C315.5,-87.8599 315.5,-78.3065 315.5,-69.9133"/>
<polygon fill="black" stroke="black" points="319,-69.6444 315.5,-59.6444 312,-69.6444 319,-69.6444"/>
</g>
<!-- Node0x1fdae0b0 -->
<g id="node12" class="node"><title>Node0x1fdae0b0</title>
<polygon fill="none" stroke="black" points="324.5,-979.5 324.5,-1122.5 662.5,-1122.5 662.5,-979.5 324.5,-979.5"/>
<text text-anchor="start" x="332.5" y="-1107.3" font-family="Times,serif" font-size="14.00">0x93ae950:</text>
<text text-anchor="start" x="332.5" y="-1092.3" font-family="Times,serif" font-size="14.00"> g38 = *(IntToPtrCastExpr&lt;ptr&gt;((v5 + 12)))</text>
<text text-anchor="start" x="332.5" y="-1077.3" font-family="Times,serif" font-size="14.00"> g39 = v9</text>
<text text-anchor="start" x="332.5" y="-1062.3" font-family="Times,serif" font-size="14.00"> function_1b61c()</text>
<text text-anchor="start" x="332.5" y="-1047.3" font-family="Times,serif" font-size="14.00"> v12 = g38</text>
<text text-anchor="start" x="332.5" y="-1032.3" font-family="Times,serif" font-size="14.00"> g8 = False</text>
<text text-anchor="start" x="332.5" y="-1017.3" font-family="Times,serif" font-size="14.00"> g7 = (v12 &lt; 0)</text>
<text text-anchor="start" x="332.5" y="-1002.3" font-family="Times,serif" font-size="14.00"> g9 = (v12 == 0)</text>
<text text-anchor="start" x="332.5" y="-987.3" font-family="Times,serif" font-size="14.00"> g29 = v12</text>
</g>
<!-- Node0x10b24b60&#45;&gt;Node0x1fdae0b0 -->
<g id="edge12" class="edge"><title>Node0x10b24b60&#45;&gt;Node0x1fdae0b0</title>
<path fill="none" stroke="black" d="M485.658,-1174.42C486.363,-1163.42 487.319,-1148.5 488.32,-1132.86"/>
<polygon fill="black" stroke="black" points="491.836,-1132.72 488.983,-1122.52 484.851,-1132.28 491.836,-1132.72"/>
<text text-anchor="middle" x="504.5" y="-1144.8" font-family="Times,serif" font-size="14.00">True</text>
</g>
<!-- Node0x32bffb30 -->
<g id="node13" class="node"><title>Node0x32bffb30</title>
<polygon fill="none" stroke="black" points="437,-903.5 437,-941.5 550,-941.5 550,-903.5 437,-903.5"/>
<text text-anchor="start" x="445" y="-926.3" font-family="Times,serif" font-size="14.00">0x93b1b90:</text>
<text text-anchor="start" x="445" y="-911.3" font-family="Times,serif" font-size="14.00"> if (v12 != 0):</text>
</g>
<!-- Node0x1fdae0b0&#45;&gt;Node0x32bffb30 -->
<g id="edge13" class="edge"><title>Node0x1fdae0b0&#45;&gt;Node0x32bffb30</title>
<path fill="none" stroke="black" d="M493.5,-979.353C493.5,-969.594 493.5,-960.073 493.5,-951.737"/>
<polygon fill="black" stroke="black" points="497,-951.54 493.5,-941.54 490,-951.54 497,-951.54"/>
</g>
<!-- Node0x31738210 -->
<g id="node14" class="node"><title>Node0x31738210</title>
<polygon fill="none" stroke="black" points="325,-723.5 325,-851.5 662,-851.5 662,-723.5 325,-723.5"/>
<text text-anchor="start" x="333" y="-836.3" font-family="Times,serif" font-size="14.00">0x259cc030:</text>
<text text-anchor="start" x="333" y="-821.3" font-family="Times,serif" font-size="14.00"> v14 = g39</text>
<text text-anchor="start" x="333" y="-806.3" font-family="Times,serif" font-size="14.00"> v13 = *(IntToPtrCastExpr&lt;ptr&gt;((v12 + 8)))</text>
<text text-anchor="start" x="333" y="-791.3" font-family="Times,serif" font-size="14.00"> g36 = v13</text>
<text text-anchor="start" x="333" y="-776.3" font-family="Times,serif" font-size="14.00"> v15 = (v14 &#45; v13)</text>
<text text-anchor="start" x="333" y="-761.3" font-family="Times,serif" font-size="14.00"> g8 = (((v15 ^ v14) &amp; (v13 ^ v14)) &lt; 0)</text>
<text text-anchor="start" x="333" y="-746.3" font-family="Times,serif" font-size="14.00"> g7 = (v15 &lt; 0)</text>
<text text-anchor="start" x="333" y="-731.3" font-family="Times,serif" font-size="14.00"> g9 = (v14 == v13)</text>
</g>
<!-- Node0x32bffb30&#45;&gt;Node0x31738210 -->
<g id="edge14" class="edge"><title>Node0x32bffb30&#45;&gt;Node0x31738210</title>
<path fill="none" stroke="black" d="M493.5,-903.286C493.5,-892.197 493.5,-877.223 493.5,-861.756"/>
<polygon fill="black" stroke="black" points="497,-861.557 493.5,-851.557 490,-861.557 497,-861.557"/>
<text text-anchor="middle" x="525" y="-873.8" font-family="Times,serif" font-size="14.00">v12 != 0</text>
</g>
<!-- Node0xdbe79b0 -->
<g id="node15" class="node"><title>Node0xdbe79b0</title>
<polygon fill="none" stroke="black" points="564,-576.5 564,-704.5 797,-704.5 797,-576.5 564,-576.5"/>
<text text-anchor="start" x="572" y="-689.3" font-family="Times,serif" font-size="14.00">0x93b1f70:</text>
<text text-anchor="start" x="572" y="-674.3" font-family="Times,serif" font-size="14.00"> g29 = 0</text>
<text text-anchor="start" x="572" y="-659.3" font-family="Times,serif" font-size="14.00"> g38 = v1</text>
<text text-anchor="start" x="572" y="-644.3" font-family="Times,serif" font-size="14.00"> g39 = v2</text>
<text text-anchor="start" x="572" y="-629.3" font-family="Times,serif" font-size="14.00"> g32 = v3</text>
<text text-anchor="start" x="572" y="-614.3" font-family="Times,serif" font-size="14.00"> g34 = v7</text>
<text text-anchor="start" x="572" y="-599.3" font-family="Times,serif" font-size="14.00"> IntToPtrCastExpr&lt;ptr&gt;(v4)()</text>
<text text-anchor="start" x="572" y="-584.3" font-family="Times,serif" font-size="14.00"> return</text>
</g>
<!-- Node0x32bffb30&#45;&gt;Node0xdbe79b0 -->
<g id="edge15" class="edge"><title>Node0x32bffb30&#45;&gt;Node0xdbe79b0</title>
<path fill="none" stroke="black" d="M550.373,-915.468C591.237,-907.876 643.815,-890.728 671.5,-852 699.425,-812.937 701.078,-758.584 696.059,-714.895"/>
<polygon fill="black" stroke="black" points="699.519,-714.364 694.774,-704.891 692.576,-715.256 699.519,-714.364"/>
<text text-anchor="middle" x="689" y="-873.8" font-family="Times,serif" font-size="14.00">v12 == 0</text>
</g>
<!-- Node0x37403a70 -->
<g id="node16" class="node"><title>Node0x37403a70</title>
<polygon fill="none" stroke="black" points="394.5,-519.5 394.5,-557.5 518.5,-557.5 518.5,-519.5 394.5,-519.5"/>
<text text-anchor="start" x="402.5" y="-542.3" font-family="Times,serif" font-size="14.00">0x93b1960:</text>
<text text-anchor="start" x="402.5" y="-527.3" font-family="Times,serif" font-size="14.00"> if (v14 &lt; v13):</text>
</g>
<!-- Node0x31738210&#45;&gt;Node0x37403a70 -->
<g id="edge16" class="edge"><title>Node0x31738210&#45;&gt;Node0x37403a70</title>
<path fill="none" stroke="black" d="M484.02,-723.212C476.517,-673.126 466.394,-605.547 460.751,-567.88"/>
<polygon fill="black" stroke="black" points="464.161,-567.016 459.218,-557.645 457.238,-568.053 464.161,-567.016"/>
</g>
<!-- Node0xdbe79b0&#45;&gt;Node0xdbe7900 -->
<g id="edge17" class="edge"><title>Node0xdbe79b0&#45;&gt;Node0xdbe7900</title>
<path fill="none" stroke="black" d="M668.575,-576.211C664.758,-550.898 661.5,-521.412 661.5,-494.5 661.5,-494.5 661.5,-494.5 661.5,-153 661.5,-88.7038 441.946,-56.7249 352.626,-46.3753"/>
<polygon fill="black" stroke="black" points="352.98,-42.8932 342.65,-45.247 352.193,-49.8488 352.98,-42.8932"/>
</g>
<!-- Node0x3f815950 -->
<g id="node17" class="node"><title>Node0x3f815950</title>
<polygon fill="none" stroke="black" points="406,-407 406,-460 507,-460 507,-407 406,-407"/>
<text text-anchor="start" x="414" y="-444.8" font-family="Times,serif" font-size="14.00">0x93b1620:</text>
<text text-anchor="start" x="414" y="-429.8" font-family="Times,serif" font-size="14.00"> v6 = v14</text>
<text text-anchor="start" x="414" y="-414.8" font-family="Times,serif" font-size="14.00"> break</text>
</g>
<!-- Node0x37403a70&#45;&gt;Node0x3f815950 -->
<g id="edge18" class="edge"><title>Node0x37403a70&#45;&gt;Node0x3f815950</title>
<path fill="none" stroke="black" d="M456.5,-519.086C456.5,-505.605 456.5,-486.88 456.5,-470.473"/>
<polygon fill="black" stroke="black" points="460,-470.105 456.5,-460.105 453,-470.105 460,-470.105"/>
<text text-anchor="middle" x="493.5" y="-489.8" font-family="Times,serif" font-size="14.00">v14 &lt; v13</text>
</g>
<!-- Node0x32b3a520 -->
<g id="node18" class="node"><title>Node0x32b3a520</title>
<polygon fill="none" stroke="black" points="287,-399.5 287,-467.5 388,-467.5 388,-399.5 287,-399.5"/>
<text text-anchor="start" x="295" y="-452.3" font-family="Times,serif" font-size="14.00">0x93b10b0:</text>
<text text-anchor="start" x="295" y="-437.3" font-family="Times,serif" font-size="14.00"> v9 = v15</text>
<text text-anchor="start" x="295" y="-422.3" font-family="Times,serif" font-size="14.00"> v5 = v12</text>
<text text-anchor="start" x="295" y="-407.3" font-family="Times,serif" font-size="14.00"> continue</text>
</g>
<!-- Node0x37403a70&#45;&gt;Node0x32b3a520 -->
<g id="edge19" class="edge"><title>Node0x37403a70&#45;&gt;Node0x32b3a520</title>
<path fill="none" stroke="black" d="M394.069,-519.637C384.015,-514.766 374.35,-508.649 366.5,-501 359.677,-494.351 354.354,-485.826 350.24,-477.113"/>
<polygon fill="black" stroke="black" points="353.361,-475.508 346.237,-467.666 346.916,-478.239 353.361,-475.508"/>
<text text-anchor="middle" x="409.5" y="-489.8" font-family="Times,serif" font-size="14.00">v14 &gt;= v13</text>
</g>
<!-- Node0x32c00690 -->
<g id="node19" class="node"><title>Node0x32c00690</title>
<polygon fill="none" stroke="black" points="286.5,-248.5 286.5,-361.5 624.5,-361.5 624.5,-248.5 286.5,-248.5"/>
<text text-anchor="start" x="294.5" y="-346.3" font-family="Times,serif" font-size="14.00">0x93b2bb0:</text>
<text text-anchor="start" x="294.5" y="-331.3" font-family="Times,serif" font-size="14.00"> v10 = IntToPtrCastExpr&lt;ptr&gt;((v12 + 4))</text>
<text text-anchor="start" x="294.5" y="-316.3" font-family="Times,serif" font-size="14.00"> g36 = (v13 &#45; v6)</text>
<text text-anchor="start" x="294.5" y="-301.3" font-family="Times,serif" font-size="14.00"> v11 = (*(v10) + v6)</text>
<text text-anchor="start" x="294.5" y="-286.3" font-family="Times,serif" font-size="14.00"> g37 = v11</text>
<text text-anchor="start" x="294.5" y="-271.3" font-family="Times,serif" font-size="14.00"> *(v10) = v11</text>
<text text-anchor="start" x="294.5" y="-256.3" font-family="Times,serif" font-size="14.00"> *(IntToPtrCastExpr&lt;ptr&gt;((g38 + 8))) = g36</text>
</g>
<!-- Node0x3f815950&#45;&gt;Node0x32c00690 -->
<g id="edge20" class="edge"><title>Node0x3f815950&#45;&gt;Node0x32c00690</title>
<path fill="none" stroke="black" d="M456.298,-406.901C456.216,-396.59 456.118,-384.18 456.019,-371.645"/>
<polygon fill="black" stroke="black" points="459.519,-371.575 455.94,-361.603 452.519,-371.63 459.519,-371.575"/>
</g>
<!-- Node0x32b3a520&#45;&gt;Node0x10b24b60 -->
<g id="edge21" class="edge"><title>Node0x32b3a520&#45;&gt;Node0x10b24b60</title>
<path fill="none" stroke="black" d="M317,-467.523C306.75,-487.114 296.5,-512.864 296.5,-537.5 296.5,-1052 296.5,-1052 296.5,-1052 296.5,-1084.67 293.935,-1098.46 315.5,-1123 343.259,-1154.58 387.574,-1172.09 423.862,-1181.63"/>
<polygon fill="black" stroke="black" points="423.314,-1185.1 433.863,-1184.12 425.002,-1178.31 423.314,-1185.1"/>
</g>
<!-- Node0x32c00690&#45;&gt;Node0x3f817e90 -->
<g id="edge22" class="edge"><title>Node0x32c00690&#45;&gt;Node0x3f817e90</title>
<path fill="none" stroke="black" d="M402.971,-248.094C393.82,-238.355 384.244,-228.163 374.924,-218.244"/>
<polygon fill="black" stroke="black" points="377.256,-215.615 367.858,-210.724 372.155,-220.408 377.256,-215.615"/>
</g>
</g>
</svg>
