<?xml version="1.0" encoding="UTF-8" standalone="no"?>
<!DOCTYPE svg PUBLIC "-//W3C//DTD SVG 1.1//EN"
 "http://www.w3.org/Graphics/SVG/1.1/DTD/svg11.dtd">
<!-- Generated by graphviz version 2.38.0 (20140413.2041)
 -->
<!-- Title: Control&#45;flow graph for function &#39;function_f334()&#39;. Pages: 1 -->
<svg width="777pt" height="306pt"
 viewBox="0.00 0.00 777.00 306.00" xmlns="http://www.w3.org/2000/svg" xmlns:xlink="http://www.w3.org/1999/xlink">
<g id="graph0" class="graph" transform="scale(1 1) rotate(0) translate(4 302)">
<title>Control&#45;flow graph for function &#39;function_f334()&#39;.</title>
<polygon fill="white" stroke="none" points="-4,4 -4,-302 773,-302 773,4 -4,4"/>
<text text-anchor="middle" x="384.5" y="-7.8" font-family="Times,serif" font-size="14.00">Control&#45;flow graph for function &#39;function_f334()&#39;.</text>
<!-- Node0x3fb55540 -->
<g id="node1" class="node"><title>Node0x3fb55540</title>
<polygon fill="none" stroke="black" points="355,-261.5 355,-297.5 414,-297.5 414,-261.5 355,-261.5"/>
<text text-anchor="start" x="363" y="-275.8" font-family="Times,serif" font-size="14.00">entry:</text>
</g>
<!-- Node0x3fb52090 -->
<g id="node2" class="node"><title>Node0x3fb52090</title>
<polygon fill="none" stroke="black" points="0,-96.5 0,-224.5 769,-224.5 769,-96.5 0,-96.5"/>
<text text-anchor="start" x="8" y="-209.3" font-family="Times,serif" font-size="14.00">0x19a1d370:</text>
<text text-anchor="start" x="8" y="-194.3" font-family="Times,serif" font-size="14.00"> v1 = ((*(IntToPtrCastExpr&lt;ptr&gt;((g29 + 16))) + 106440) + (2 * *(IntToPtrCastExpr&lt;ptr&gt;((g29 + 12)))))</text>
<text text-anchor="start" x="8" y="-179.3" font-family="Times,serif" font-size="14.00"> v2 = *(IntToPtrCastExpr&lt;ptr&gt;((g29 + 28)))</text>
<text text-anchor="start" x="8" y="-164.3" font-family="Times,serif" font-size="14.00"> g30 = v2</text>
<text text-anchor="start" x="8" y="-149.3" font-family="Times,serif" font-size="14.00"> v3 = (v1 + (256 * *(IntToPtrCastExpr&lt;ptr&gt;((g29 + 8)))))</text>
<text text-anchor="start" x="8" y="-134.3" font-family="Times,serif" font-size="14.00"> g37 = v3</text>
<text text-anchor="start" x="8" y="-119.3" font-family="Times,serif" font-size="14.00"> g36 = 12</text>
<text text-anchor="start" x="8" y="-104.3" font-family="Times,serif" font-size="14.00"> g29 = ((12 * v2) + v3)</text>
</g>
<!-- Node0x3fb55540&#45;&gt;Node0x3fb52090 -->
<g id="edge1" class="edge"><title>Node0x3fb55540&#45;&gt;Node0x3fb52090</title>
<path fill="none" stroke="black" d="M384.5,-261.487C384.5,-254.024 384.5,-244.706 384.5,-234.78"/>
<polygon fill="black" stroke="black" points="388,-234.697 384.5,-224.697 381,-234.697 388,-234.697"/>
</g>
<!-- Node0x3fb54950 -->
<g id="node3" class="node"><title>Node0x3fb54950</title>
<polygon fill="none" stroke="black" points="357.5,-23.5 357.5,-59.5 411.5,-59.5 411.5,-23.5 357.5,-23.5"/>
<text text-anchor="start" x="365.5" y="-37.8" font-family="Times,serif" font-size="14.00">exit:</text>
</g>
<!-- Node0x3fb52090&#45;&gt;Node0x3fb54950 -->
<g id="edge2" class="edge"><title>Node0x3fb52090&#45;&gt;Node0x3fb54950</title>
<path fill="none" stroke="black" d="M384.5,-96.206C384.5,-87.0257 384.5,-78.004 384.5,-70.0532"/>
<polygon fill="black" stroke="black" points="388,-69.9607 384.5,-59.9608 381,-69.9608 388,-69.9607"/>
</g>
</g>
</svg>
