<?xml version="1.0" encoding="UTF-8" standalone="no"?>
<!DOCTYPE svg PUBLIC "-//W3C//DTD SVG 1.1//EN"
 "http://www.w3.org/Graphics/SVG/1.1/DTD/svg11.dtd">
<!-- Generated by graphviz version 2.38.0 (20140413.2041)
 -->
<!-- Title: Control&#45;flow graph for function &#39;function_f67c()&#39;. Pages: 1 -->
<svg width="568pt" height="246pt"
 viewBox="0.00 0.00 568.00 246.00" xmlns="http://www.w3.org/2000/svg" xmlns:xlink="http://www.w3.org/1999/xlink">
<g id="graph0" class="graph" transform="scale(1 1) rotate(0) translate(4 242)">
<title>Control&#45;flow graph for function &#39;function_f67c()&#39;.</title>
<polygon fill="white" stroke="none" points="-4,4 -4,-242 564,-242 564,4 -4,4"/>
<text text-anchor="middle" x="280" y="-7.8" font-family="Times,serif" font-size="14.00">Control&#45;flow graph for function &#39;function_f67c()&#39;.</text>
<!-- Node0x160e56b0 -->
<g id="node1" class="node"><title>Node0x160e56b0</title>
<polygon fill="none" stroke="black" points="250.5,-201.5 250.5,-237.5 309.5,-237.5 309.5,-201.5 250.5,-201.5"/>
<text text-anchor="start" x="258.5" y="-215.8" font-family="Times,serif" font-size="14.00">entry:</text>
</g>
<!-- Node0x160e6640 -->
<g id="node2" class="node"><title>Node0x160e6640</title>
<polygon fill="none" stroke="black" points="0,-96.5 0,-164.5 560,-164.5 560,-96.5 0,-96.5"/>
<text text-anchor="start" x="8" y="-149.3" font-family="Times,serif" font-size="14.00">0x13bff920:</text>
<text text-anchor="start" x="8" y="-134.3" font-family="Times,serif" font-size="14.00"> v1 = ExtCastExpr&lt;int32&gt;(*(IntToPtrCastExpr&lt;ptr&gt;((g29 + 12))))</text>
<text text-anchor="start" x="8" y="-119.3" font-family="Times,serif" font-size="14.00"> g37 = v1</text>
<text text-anchor="start" x="8" y="-104.3" font-family="Times,serif" font-size="14.00"> g29 = (ExtCastExpr&lt;int32&gt;(*(IntToPtrCastExpr&lt;ptr&gt;((g29 + 16)))) + v1)</text>
</g>
<!-- Node0x160e56b0&#45;&gt;Node0x160e6640 -->
<g id="edge1" class="edge"><title>Node0x160e56b0&#45;&gt;Node0x160e6640</title>
<path fill="none" stroke="black" d="M280,-201.312C280,-193.602 280,-184.126 280,-174.671"/>
<polygon fill="black" stroke="black" points="283.5,-174.503 280,-164.503 276.5,-174.503 283.5,-174.503"/>
</g>
<!-- Node0x160e5da0 -->
<g id="node3" class="node"><title>Node0x160e5da0</title>
<polygon fill="none" stroke="black" points="253,-23.5 253,-59.5 307,-59.5 307,-23.5 253,-23.5"/>
<text text-anchor="start" x="261" y="-37.8" font-family="Times,serif" font-size="14.00">exit:</text>
</g>
<!-- Node0x160e6640&#45;&gt;Node0x160e5da0 -->
<g id="edge2" class="edge"><title>Node0x160e6640&#45;&gt;Node0x160e5da0</title>
<path fill="none" stroke="black" d="M280,-96.1123C280,-87.3522 280,-78.0128 280,-69.6246"/>
<polygon fill="black" stroke="black" points="283.5,-69.6235 280,-59.6235 276.5,-69.6235 283.5,-69.6235"/>
</g>
</g>
</svg>
