<?xml version="1.0" encoding="UTF-8" standalone="no"?>
<!DOCTYPE svg PUBLIC "-//W3C//DTD SVG 1.1//EN"
 "http://www.w3.org/Graphics/SVG/1.1/DTD/svg11.dtd">
<!-- Generated by graphviz version 2.38.0 (20140413.2041)
 -->
<!-- Title: Control&#45;flow graph for function &#39;function_34cc()&#39;. Pages: 1 -->
<svg width="376pt" height="246pt"
 viewBox="0.00 0.00 376.00 246.00" xmlns="http://www.w3.org/2000/svg" xmlns:xlink="http://www.w3.org/1999/xlink">
<g id="graph0" class="graph" transform="scale(1 1) rotate(0) translate(4 242)">
<title>Control&#45;flow graph for function &#39;function_34cc()&#39;.</title>
<polygon fill="white" stroke="none" points="-4,4 -4,-242 372,-242 372,4 -4,4"/>
<text text-anchor="middle" x="184" y="-7.8" font-family="Times,serif" font-size="14.00">Control&#45;flow graph for function &#39;function_34cc()&#39;.</text>
<!-- Node0x2414dd40 -->
<g id="node1" class="node"><title>Node0x2414dd40</title>
<polygon fill="none" stroke="black" points="154.5,-201.5 154.5,-237.5 213.5,-237.5 213.5,-201.5 154.5,-201.5"/>
<text text-anchor="start" x="162.5" y="-215.8" font-family="Times,serif" font-size="14.00">entry:</text>
</g>
<!-- Node0x2414e940 -->
<g id="node2" class="node"><title>Node0x2414e940</title>
<polygon fill="none" stroke="black" points="10.5,-96.5 10.5,-164.5 357.5,-164.5 357.5,-96.5 10.5,-96.5"/>
<text text-anchor="start" x="18.5" y="-149.3" font-family="Times,serif" font-size="14.00">0x10dc9cf0:</text>
<text text-anchor="start" x="18.5" y="-134.3" font-family="Times,serif" font-size="14.00"> v1 = *(IntToPtrCastExpr&lt;ptr&gt;(g29))</text>
<text text-anchor="start" x="18.5" y="-119.3" font-family="Times,serif" font-size="14.00"> g37 = v1</text>
<text text-anchor="start" x="18.5" y="-104.3" font-family="Times,serif" font-size="14.00"> g29 = *(IntToPtrCastExpr&lt;ptr&gt;((v1 + 136)))</text>
</g>
<!-- Node0x2414dd40&#45;&gt;Node0x2414e940 -->
<g id="edge1" class="edge"><title>Node0x2414dd40&#45;&gt;Node0x2414e940</title>
<path fill="none" stroke="black" d="M184,-201.312C184,-193.602 184,-184.126 184,-174.671"/>
<polygon fill="black" stroke="black" points="187.5,-174.503 184,-164.503 180.5,-174.503 187.5,-174.503"/>
</g>
<!-- Node0x307a7110 -->
<g id="node3" class="node"><title>Node0x307a7110</title>
<polygon fill="none" stroke="black" points="157,-23.5 157,-59.5 211,-59.5 211,-23.5 157,-23.5"/>
<text text-anchor="start" x="165" y="-37.8" font-family="Times,serif" font-size="14.00">exit:</text>
</g>
<!-- Node0x2414e940&#45;&gt;Node0x307a7110 -->
<g id="edge2" class="edge"><title>Node0x2414e940&#45;&gt;Node0x307a7110</title>
<path fill="none" stroke="black" d="M184,-96.1123C184,-87.3522 184,-78.0128 184,-69.6246"/>
<polygon fill="black" stroke="black" points="187.5,-69.6235 184,-59.6235 180.5,-69.6235 187.5,-69.6235"/>
</g>
</g>
</svg>
