<?xml version="1.0" encoding="UTF-8" standalone="no"?>
<!DOCTYPE svg PUBLIC "-//W3C//DTD SVG 1.1//EN"
 "http://www.w3.org/Graphics/SVG/1.1/DTD/svg11.dtd">
<!-- Generated by graphviz version 2.38.0 (20140413.2041)
 -->
<!-- Title: Control&#45;flow graph for function &#39;function_af30()&#39;. Pages: 1 -->
<svg width="373pt" height="381pt"
 viewBox="0.00 0.00 373.00 381.00" xmlns="http://www.w3.org/2000/svg" xmlns:xlink="http://www.w3.org/1999/xlink">
<g id="graph0" class="graph" transform="scale(1 1) rotate(0) translate(4 377)">
<title>Control&#45;flow graph for function &#39;function_af30()&#39;.</title>
<polygon fill="white" stroke="none" points="-4,4 -4,-377 369,-377 369,4 -4,4"/>
<text text-anchor="middle" x="182.5" y="-7.8" font-family="Times,serif" font-size="14.00">Control&#45;flow graph for function &#39;function_af30()&#39;.</text>
<!-- Node0x11126bc0 -->
<g id="node1" class="node"><title>Node0x11126bc0</title>
<polygon fill="none" stroke="black" points="153,-336.5 153,-372.5 212,-372.5 212,-336.5 153,-336.5"/>
<text text-anchor="start" x="161" y="-350.8" font-family="Times,serif" font-size="14.00">entry:</text>
</g>
<!-- Node0x15d778b0 -->
<g id="node2" class="node"><title>Node0x15d778b0</title>
<polygon fill="none" stroke="black" points="9,-96.5 9,-299.5 356,-299.5 356,-96.5 9,-96.5"/>
<text text-anchor="start" x="17" y="-284.3" font-family="Times,serif" font-size="14.00">0x72c39e0:</text>
<text text-anchor="start" x="17" y="-269.3" font-family="Times,serif" font-size="14.00"> g30 = &#45;732</text>
<text text-anchor="start" x="17" y="-254.3" font-family="Times,serif" font-size="14.00"> g33 = 165012</text>
<text text-anchor="start" x="17" y="-239.3" font-family="Times,serif" font-size="14.00"> g36 = 0</text>
<text text-anchor="start" x="17" y="-224.3" font-family="Times,serif" font-size="14.00"> g37 = &#45;1</text>
<text text-anchor="start" x="17" y="-209.3" font-family="Times,serif" font-size="14.00"> *(IntToPtrCastExpr&lt;ptr&gt;((g29 + 144))) = 0</text>
<text text-anchor="start" x="17" y="-194.3" font-family="Times,serif" font-size="14.00"> *(IntToPtrCastExpr&lt;ptr&gt;((g29 + 8))) = g36</text>
<text text-anchor="start" x="17" y="-179.3" font-family="Times,serif" font-size="14.00"> *(IntToPtrCastExpr&lt;ptr&gt;((g29 + 12))) = g37</text>
<text text-anchor="start" x="17" y="-164.3" font-family="Times,serif" font-size="14.00"> v1 = g29</text>
<text text-anchor="start" x="17" y="-149.3" font-family="Times,serif" font-size="14.00"> g36 = v1</text>
<text text-anchor="start" x="17" y="-134.3" font-family="Times,serif" font-size="14.00"> g30 = (g33 + g30)</text>
<text text-anchor="start" x="17" y="-119.3" font-family="Times,serif" font-size="14.00"> g29 = (v1 + 272)</text>
<text text-anchor="start" x="17" y="-104.3" font-family="Times,serif" font-size="14.00"> function_b150()</text>
</g>
<!-- Node0x11126bc0&#45;&gt;Node0x15d778b0 -->
<g id="edge1" class="edge"><title>Node0x11126bc0&#45;&gt;Node0x15d778b0</title>
<path fill="none" stroke="black" d="M182.5,-336.375C182.5,-329.052 182.5,-319.842 182.5,-309.676"/>
<polygon fill="black" stroke="black" points="186,-309.665 182.5,-299.665 179,-309.665 186,-309.665"/>
</g>
<!-- Node0x2cae66b0 -->
<g id="node3" class="node"><title>Node0x2cae66b0</title>
<polygon fill="none" stroke="black" points="155.5,-23.5 155.5,-59.5 209.5,-59.5 209.5,-23.5 155.5,-23.5"/>
<text text-anchor="start" x="163.5" y="-37.8" font-family="Times,serif" font-size="14.00">exit:</text>
</g>
<!-- Node0x15d778b0&#45;&gt;Node0x2cae66b0 -->
<g id="edge2" class="edge"><title>Node0x15d778b0&#45;&gt;Node0x2cae66b0</title>
<path fill="none" stroke="black" d="M182.5,-96.103C182.5,-86.6073 182.5,-77.6391 182.5,-69.853"/>
<polygon fill="black" stroke="black" points="186,-69.7012 182.5,-59.7012 179,-69.7013 186,-69.7012"/>
</g>
</g>
</svg>
