<?xml version="1.0" encoding="UTF-8" standalone="no"?>
<!DOCTYPE svg PUBLIC "-//W3C//DTD SVG 1.1//EN"
 "http://www.w3.org/Graphics/SVG/1.1/DTD/svg11.dtd">
<!-- Generated by graphviz version 2.38.0 (20140413.2041)
 -->
<!-- Title: Control&#45;flow graph for function &#39;function_bd90()&#39;. Pages: 1 -->
<svg width="377pt" height="441pt"
 viewBox="0.00 0.00 377.00 441.00" xmlns="http://www.w3.org/2000/svg" xmlns:xlink="http://www.w3.org/1999/xlink">
<g id="graph0" class="graph" transform="scale(1 1) rotate(0) translate(4 437)">
<title>Control&#45;flow graph for function &#39;function_bd90()&#39;.</title>
<polygon fill="white" stroke="none" points="-4,4 -4,-437 373,-437 373,4 -4,4"/>
<text text-anchor="middle" x="184.5" y="-7.8" font-family="Times,serif" font-size="14.00">Control&#45;flow graph for function &#39;function_bd90()&#39;.</text>
<!-- Node0x15cf5d60 -->
<g id="node1" class="node"><title>Node0x15cf5d60</title>
<polygon fill="none" stroke="black" points="155,-396.5 155,-432.5 214,-432.5 214,-396.5 155,-396.5"/>
<text text-anchor="start" x="163" y="-410.8" font-family="Times,serif" font-size="14.00">entry:</text>
</g>
<!-- Node0x15cf5f60 -->
<g id="node2" class="node"><title>Node0x15cf5f60</title>
<polygon fill="none" stroke="black" points="111.5,-96.5 111.5,-359.5 257.5,-359.5 257.5,-96.5 111.5,-96.5"/>
<text text-anchor="start" x="119.5" y="-344.3" font-family="Times,serif" font-size="14.00">0x24bbf480:</text>
<text text-anchor="start" x="119.5" y="-329.3" font-family="Times,serif" font-size="14.00"> v1 = g38</text>
<text text-anchor="start" x="119.5" y="-314.3" font-family="Times,serif" font-size="14.00"> v2 = g39</text>
<text text-anchor="start" x="119.5" y="-299.3" font-family="Times,serif" font-size="14.00"> g38 = (g29 + 96)</text>
<text text-anchor="start" x="119.5" y="-284.3" font-family="Times,serif" font-size="14.00"> g39 = g30</text>
<text text-anchor="start" x="119.5" y="-269.3" font-family="Times,serif" font-size="14.00"> function_bd54()</text>
<text text-anchor="start" x="119.5" y="-254.3" font-family="Times,serif" font-size="14.00"> g29 = g38</text>
<text text-anchor="start" x="119.5" y="-239.3" font-family="Times,serif" font-size="14.00"> g30 = g39</text>
<text text-anchor="start" x="119.5" y="-224.3" font-family="Times,serif" font-size="14.00"> g36 = 20</text>
<text text-anchor="start" x="119.5" y="-209.3" font-family="Times,serif" font-size="14.00"> function_bc50()</text>
<text text-anchor="start" x="119.5" y="-194.3" font-family="Times,serif" font-size="14.00"> g29 = g38</text>
<text text-anchor="start" x="119.5" y="-179.3" font-family="Times,serif" font-size="14.00"> g30 = g39</text>
<text text-anchor="start" x="119.5" y="-164.3" font-family="Times,serif" font-size="14.00"> g38 = v1</text>
<text text-anchor="start" x="119.5" y="-149.3" font-family="Times,serif" font-size="14.00"> g39 = v2</text>
<text text-anchor="start" x="119.5" y="-134.3" font-family="Times,serif" font-size="14.00"> v3</text>
<text text-anchor="start" x="119.5" y="-119.3" font-family="Times,serif" font-size="14.00"> g34 = v3</text>
<text text-anchor="start" x="119.5" y="-104.3" font-family="Times,serif" font-size="14.00"> function_bd54()</text>
</g>
<!-- Node0x15cf5d60&#45;&gt;Node0x15cf5f60 -->
<g id="edge1" class="edge"><title>Node0x15cf5d60&#45;&gt;Node0x15cf5f60</title>
<path fill="none" stroke="black" d="M184.5,-396.473C184.5,-389.24 184.5,-380.097 184.5,-369.831"/>
<polygon fill="black" stroke="black" points="188,-369.67 184.5,-359.67 181,-369.67 188,-369.67"/>
</g>
<!-- Node0x15cf4e60 -->
<g id="node3" class="node"><title>Node0x15cf4e60</title>
<polygon fill="none" stroke="black" points="157.5,-23.5 157.5,-59.5 211.5,-59.5 211.5,-23.5 157.5,-23.5"/>
<text text-anchor="start" x="165.5" y="-37.8" font-family="Times,serif" font-size="14.00">exit:</text>
</g>
<!-- Node0x15cf5f60&#45;&gt;Node0x15cf4e60 -->
<g id="edge2" class="edge"><title>Node0x15cf5f60&#45;&gt;Node0x15cf4e60</title>
<path fill="none" stroke="black" d="M184.5,-96.361C184.5,-86.7102 184.5,-77.7416 184.5,-70.0001"/>
<polygon fill="black" stroke="black" points="188,-69.93 184.5,-59.93 181,-69.93 188,-69.93"/>
</g>
</g>
</svg>
