<?xml version="1.0" encoding="UTF-8" standalone="no"?>
<!DOCTYPE svg PUBLIC "-//W3C//DTD SVG 1.1//EN"
 "http://www.w3.org/Graphics/SVG/1.1/DTD/svg11.dtd">
<!-- Generated by graphviz version 2.38.0 (20140413.2041)
 -->
<!-- Title: Control&#45;flow graph for function &#39;SpZeroConfGetVars()&#39;. Pages: 1 -->
<svg width="586pt" height="1288pt"
 viewBox="0.00 0.00 586.00 1288.00" xmlns="http://www.w3.org/2000/svg" xmlns:xlink="http://www.w3.org/1999/xlink">
<g id="graph0" class="graph" transform="scale(1 1) rotate(0) translate(4 1284)">
<title>Control&#45;flow graph for function &#39;SpZeroConfGetVars()&#39;.</title>
<polygon fill="white" stroke="none" points="-4,4 -4,-1284 582,-1284 582,4 -4,4"/>
<text text-anchor="middle" x="289" y="-7.8" font-family="Times,serif" font-size="14.00">Control&#45;flow graph for function &#39;SpZeroConfGetVars()&#39;.</text>
<!-- Node0x39807f10 -->
<g id="node1" class="node"><title>Node0x39807f10</title>
<polygon fill="none" stroke="black" points="146.5,-1243.5 146.5,-1279.5 205.5,-1279.5 205.5,-1243.5 146.5,-1243.5"/>
<text text-anchor="start" x="154.5" y="-1257.8" font-family="Times,serif" font-size="14.00">entry:</text>
</g>
<!-- Node0x1238adb0 -->
<g id="node2" class="node"><title>Node0x1238adb0</title>
<polygon fill="none" stroke="black" points="18.5,-1047.5 18.5,-1205.5 333.5,-1205.5 333.5,-1047.5 18.5,-1047.5"/>
<text text-anchor="start" x="26.5" y="-1190.3" font-family="Times,serif" font-size="14.00">0x365fc150:</text>
<text text-anchor="start" x="26.5" y="-1175.3" font-family="Times,serif" font-size="14.00"> v1 = g38</text>
<text text-anchor="start" x="26.5" y="-1160.3" font-family="Times,serif" font-size="14.00"> v2 = g39</text>
<text text-anchor="start" x="26.5" y="-1145.3" font-family="Times,serif" font-size="14.00"> v3 = g40</text>
<text text-anchor="start" x="26.5" y="-1130.3" font-family="Times,serif" font-size="14.00"> g38 = 165012</text>
<text text-anchor="start" x="26.5" y="-1115.3" font-family="Times,serif" font-size="14.00"> v4 = *(IntToPtrCastExpr&lt;ptr&gt;(165212))</text>
<text text-anchor="start" x="26.5" y="-1100.3" font-family="Times,serif" font-size="14.00"> g40 = v4</text>
<text text-anchor="start" x="26.5" y="-1085.3" font-family="Times,serif" font-size="14.00"> v5 = g29</text>
<text text-anchor="start" x="26.5" y="-1070.3" font-family="Times,serif" font-size="14.00"> g39 = v5</text>
<text text-anchor="start" x="26.5" y="-1055.3" font-family="Times,serif" font-size="14.00"> v6 = v5</text>
</g>
<!-- Node0x39807f10&#45;&gt;Node0x1238adb0 -->
<g id="edge1" class="edge"><title>Node0x39807f10&#45;&gt;Node0x1238adb0</title>
<path fill="none" stroke="black" d="M176,-1243.38C176,-1235.78 176,-1226.21 176,-1215.83"/>
<polygon fill="black" stroke="black" points="179.5,-1215.68 176,-1205.68 172.5,-1215.68 179.5,-1215.68"/>
</g>
<!-- Node0x39809ee0 -->
<g id="node3" class="node"><title>Node0x39809ee0</title>
<polygon fill="none" stroke="black" points="23.5,-971.5 23.5,-1009.5 328.5,-1009.5 328.5,-971.5 23.5,-971.5"/>
<text text-anchor="start" x="31.5" y="-994.3" font-family="Times,serif" font-size="14.00">0x81e2030:</text>
<text text-anchor="start" x="31.5" y="-979.3" font-family="Times,serif" font-size="14.00"> if (*(IntToPtrCastExpr&lt;ptr&gt;(v4)) != 0):</text>
</g>
<!-- Node0x1238adb0&#45;&gt;Node0x39809ee0 -->
<g id="edge2" class="edge"><title>Node0x1238adb0&#45;&gt;Node0x39809ee0</title>
<path fill="none" stroke="black" d="M176,-1047.16C176,-1037.45 176,-1028.06 176,-1019.85"/>
<polygon fill="black" stroke="black" points="179.5,-1019.8 176,-1009.8 172.5,-1019.8 179.5,-1019.8"/>
</g>
<!-- Node0x39806c10 -->
<g id="node4" class="node"><title>Node0x39806c10</title>
<polygon fill="none" stroke="black" points="0,-836.5 0,-919.5 212,-919.5 212,-836.5 0,-836.5"/>
<text text-anchor="start" x="8" y="-904.3" font-family="Times,serif" font-size="14.00">0x81e16b0:</text>
<text text-anchor="start" x="8" y="-889.3" font-family="Times,serif" font-size="14.00"> g30 = 156864</text>
<text text-anchor="start" x="8" y="-874.3" font-family="Times,serif" font-size="14.00"> g36 = v5</text>
<text text-anchor="start" x="8" y="-859.3" font-family="Times,serif" font-size="14.00"> imported_function_ord_0()</text>
<text text-anchor="start" x="8" y="-844.3" font-family="Times,serif" font-size="14.00"> v6 = g39</text>
</g>
<!-- Node0x39809ee0&#45;&gt;Node0x39806c10 -->
<g id="edge3" class="edge"><title>Node0x39809ee0&#45;&gt;Node0x39806c10</title>
<path fill="none" stroke="black" d="M78.3324,-971.438C61.4478,-966.374 47.526,-960.233 42,-953 35.724,-944.786 36.0491,-936.295 40.1914,-928.123"/>
<polygon fill="black" stroke="black" points="43.1398,-930.01 45.7732,-919.748 37.3149,-926.128 43.1398,-930.01"/>
<text text-anchor="middle" x="170" y="-941.8" font-family="Times,serif" font-size="14.00">*(IntToPtrCastExpr&lt;ptr&gt;(v4)) != 0</text>
</g>
<!-- Node0x3980bb80 -->
<g id="node5" class="node"><title>Node0x3980bb80</title>
<polygon fill="none" stroke="black" points="110,-655.5 110,-798.5 398,-798.5 398,-655.5 110,-655.5"/>
<text text-anchor="start" x="118" y="-783.3" font-family="Times,serif" font-size="14.00">0x81e21b0:</text>
<text text-anchor="start" x="118" y="-768.3" font-family="Times,serif" font-size="14.00"> g29 = v6</text>
<text text-anchor="start" x="118" y="-753.3" font-family="Times,serif" font-size="14.00"> function_16730()</text>
<text text-anchor="start" x="118" y="-738.3" font-family="Times,serif" font-size="14.00"> v7 = *(IntToPtrCastExpr&lt;ptr&gt;(g40))</text>
<text text-anchor="start" x="118" y="-723.3" font-family="Times,serif" font-size="14.00"> g37 = v7</text>
<text text-anchor="start" x="118" y="-708.3" font-family="Times,serif" font-size="14.00"> v8 = g29</text>
<text text-anchor="start" x="118" y="-693.3" font-family="Times,serif" font-size="14.00"> g39 = v8</text>
<text text-anchor="start" x="118" y="-678.3" font-family="Times,serif" font-size="14.00"> g9 = (v7 == 0)</text>
<text text-anchor="start" x="118" y="-663.3" font-family="Times,serif" font-size="14.00"> v9 = v8</text>
</g>
<!-- Node0x39809ee0&#45;&gt;Node0x3980bb80 -->
<g id="edge4" class="edge"><title>Node0x39809ee0&#45;&gt;Node0x3980bb80</title>
<path fill="none" stroke="black" d="M277.32,-971.409C285.278,-966.576 292.388,-960.536 298,-953 328.801,-911.635 317.151,-854.502 298.131,-808.16"/>
<polygon fill="black" stroke="black" points="301.255,-806.564 294.107,-798.744 294.818,-809.315 301.255,-806.564"/>
<text text-anchor="middle" x="447" y="-874.3" font-family="Times,serif" font-size="14.00">*(IntToPtrCastExpr&lt;ptr&gt;(v4)) == 0</text>
</g>
<!-- Node0x39806c10&#45;&gt;Node0x3980bb80 -->
<g id="edge5" class="edge"><title>Node0x39806c10&#45;&gt;Node0x3980bb80</title>
<path fill="none" stroke="black" d="M146.442,-836.285C155.829,-826.834 166.131,-816.462 176.525,-805.999"/>
<polygon fill="black" stroke="black" points="179.161,-808.311 183.725,-798.75 174.194,-803.378 179.161,-808.311"/>
</g>
<!-- Node0x39806e10 -->
<g id="node6" class="node"><title>Node0x39806e10</title>
<polygon fill="none" stroke="black" points="202,-579.5 202,-617.5 306,-617.5 306,-579.5 202,-579.5"/>
<text text-anchor="start" x="210" y="-602.3" font-family="Times,serif" font-size="14.00">0x81e45d0:</text>
<text text-anchor="start" x="210" y="-587.3" font-family="Times,serif" font-size="14.00"> if (v7 != 0):</text>
</g>
<!-- Node0x3980bb80&#45;&gt;Node0x39806e10 -->
<g id="edge6" class="edge"><title>Node0x3980bb80&#45;&gt;Node0x39806e10</title>
<path fill="none" stroke="black" d="M254,-655.353C254,-645.594 254,-636.073 254,-627.737"/>
<polygon fill="black" stroke="black" points="257.5,-627.54 254,-617.54 250.5,-627.54 257.5,-627.54"/>
</g>
<!-- Node0x39808710 -->
<g id="node7" class="node"><title>Node0x39808710</title>
<polygon fill="none" stroke="black" points="42,-444.5 42,-527.5 254,-527.5 254,-444.5 42,-444.5"/>
<text text-anchor="start" x="50" y="-512.3" font-family="Times,serif" font-size="14.00">0x81e3bb0:</text>
<text text-anchor="start" x="50" y="-497.3" font-family="Times,serif" font-size="14.00"> g30 = (g38 &#45; 8148)</text>
<text text-anchor="start" x="50" y="-482.3" font-family="Times,serif" font-size="14.00"> g36 = v8</text>
<text text-anchor="start" x="50" y="-467.3" font-family="Times,serif" font-size="14.00"> imported_function_ord_0()</text>
<text text-anchor="start" x="50" y="-452.3" font-family="Times,serif" font-size="14.00"> v9 = g39</text>
</g>
<!-- Node0x39806e10&#45;&gt;Node0x39808710 -->
<g id="edge7" class="edge"><title>Node0x39806e10&#45;&gt;Node0x39808710</title>
<path fill="none" stroke="black" d="M236.496,-579.253C224.975,-567.242 209.311,-550.914 194.363,-535.331"/>
<polygon fill="black" stroke="black" points="196.552,-532.557 187.104,-527.764 191.5,-537.403 196.552,-532.557"/>
<text text-anchor="middle" x="243" y="-549.8" font-family="Times,serif" font-size="14.00">v7 != 0</text>
</g>
<!-- Node0x39805f90 -->
<g id="node8" class="node"><title>Node0x39805f90</title>
<polygon fill="none" stroke="black" points="127,-278.5 127,-406.5 369,-406.5 369,-278.5 127,-278.5"/>
<text text-anchor="start" x="135" y="-391.3" font-family="Times,serif" font-size="14.00">0x81e4750:</text>
<text text-anchor="start" x="135" y="-376.3" font-family="Times,serif" font-size="14.00"> g29 = v9</text>
<text text-anchor="start" x="135" y="-361.3" font-family="Times,serif" font-size="14.00"> g38 = v1</text>
<text text-anchor="start" x="135" y="-346.3" font-family="Times,serif" font-size="14.00"> g39 = v2</text>
<text text-anchor="start" x="135" y="-331.3" font-family="Times,serif" font-size="14.00"> g40 = v3</text>
<text text-anchor="start" x="135" y="-316.3" font-family="Times,serif" font-size="14.00"> v10</text>
<text text-anchor="start" x="135" y="-301.3" font-family="Times,serif" font-size="14.00"> g34 = v10</text>
<text text-anchor="start" x="135" y="-286.3" font-family="Times,serif" font-size="14.00"> IntToPtrCastExpr&lt;ptr&gt;(g35)()</text>
</g>
<!-- Node0x39806e10&#45;&gt;Node0x39805f90 -->
<g id="edge8" class="edge"><title>Node0x39806e10&#45;&gt;Node0x39805f90</title>
<path fill="none" stroke="black" d="M266.288,-579.309C269.436,-573.682 272.387,-567.3 274,-561 275.653,-554.542 274.358,-552.657 274,-546 271.685,-502.95 265.701,-455.096 260.056,-416.721"/>
<polygon fill="black" stroke="black" points="263.494,-416.043 258.554,-406.67 256.571,-417.077 263.494,-416.043"/>
<text text-anchor="middle" x="302" y="-482.3" font-family="Times,serif" font-size="14.00">v7 == 0</text>
</g>
<!-- Node0x39808710&#45;&gt;Node0x39805f90 -->
<g id="edge9" class="edge"><title>Node0x39808710&#45;&gt;Node0x39805f90</title>
<path fill="none" stroke="black" d="M176.656,-444.452C183.149,-435.264 190.233,-425.24 197.335,-415.191"/>
<polygon fill="black" stroke="black" points="200.379,-416.948 203.292,-406.762 194.662,-412.908 200.379,-416.948"/>
</g>
<!-- Node0x11aa3e40 -->
<g id="node9" class="node"><title>Node0x11aa3e40</title>
<polygon fill="none" stroke="black" points="197.5,-202.5 197.5,-240.5 298.5,-240.5 298.5,-202.5 197.5,-202.5"/>
<text text-anchor="start" x="205.5" y="-225.3" font-family="Times,serif" font-size="14.00">0x81e6340:</text>
<text text-anchor="start" x="205.5" y="-210.3" font-family="Times,serif" font-size="14.00"> if g9:</text>
</g>
<!-- Node0x39805f90&#45;&gt;Node0x11aa3e40 -->
<g id="edge10" class="edge"><title>Node0x39805f90&#45;&gt;Node0x11aa3e40</title>
<path fill="none" stroke="black" d="M248,-278.167C248,-268.596 248,-259.158 248,-250.848"/>
<polygon fill="black" stroke="black" points="251.5,-250.658 248,-240.659 244.5,-250.659 251.5,-250.658"/>
</g>
<!-- Node0x39809510 -->
<g id="node10" class="node"><title>Node0x39809510</title>
<polygon fill="none" stroke="black" points="10,-97.5 10,-150.5 252,-150.5 252,-97.5 10,-97.5"/>
<text text-anchor="start" x="18" y="-135.3" font-family="Times,serif" font-size="14.00">0x81e59a0:</text>
<text text-anchor="start" x="18" y="-120.3" font-family="Times,serif" font-size="14.00"> g37 = (g30 &amp; (g33 / 8388608))</text>
<text text-anchor="start" x="18" y="-105.3" font-family="Times,serif" font-size="14.00"> g29 = (g29 &amp; (g42 / 2))</text>
</g>
<!-- Node0x11aa3e40&#45;&gt;Node0x39809510 -->
<g id="edge11" class="edge"><title>Node0x11aa3e40&#45;&gt;Node0x39809510</title>
<path fill="none" stroke="black" d="M225.718,-202.312C210.194,-189.641 189.06,-172.391 170.694,-157.4"/>
<polygon fill="black" stroke="black" points="172.44,-154.307 162.48,-150.695 168.014,-159.73 172.44,-154.307"/>
<text text-anchor="middle" x="208.5" y="-172.8" font-family="Times,serif" font-size="14.00">g9</text>
</g>
<!-- Node0x308c3d30 -->
<g id="node11" class="node"><title>Node0x308c3d30</title>
<polygon fill="none" stroke="black" points="215,-23.5 215,-59.5 269,-59.5 269,-23.5 215,-23.5"/>
<text text-anchor="start" x="223" y="-37.8" font-family="Times,serif" font-size="14.00">exit:</text>
</g>
<!-- Node0x11aa3e40&#45;&gt;Node0x308c3d30 -->
<g id="edge12" class="edge"><title>Node0x11aa3e40&#45;&gt;Node0x308c3d30</title>
<path fill="none" stroke="black" d="M252.972,-202.405C258.911,-178.252 267.298,-134.2 261,-97 259.437,-87.7687 256.484,-78.0156 253.363,-69.3515"/>
<polygon fill="black" stroke="black" points="256.542,-67.8643 249.697,-59.7773 250.005,-70.3677 256.542,-67.8643"/>
<text text-anchor="middle" x="291.5" y="-120.3" font-family="Times,serif" font-size="14.00">not (g9)</text>
</g>
<!-- Node0x39809510&#45;&gt;Node0x308c3d30 -->
<g id="edge13" class="edge"><title>Node0x39809510&#45;&gt;Node0x308c3d30</title>
<path fill="none" stroke="black" d="M166.426,-97.308C180.508,-87.0959 196.581,-75.4388 210.274,-65.5083"/>
<polygon fill="black" stroke="black" points="212.413,-68.2808 218.453,-59.5766 208.303,-62.6142 212.413,-68.2808"/>
</g>
</g>
</svg>
