<?xml version="1.0" encoding="UTF-8" standalone="no"?>
<!DOCTYPE svg PUBLIC "-//W3C//DTD SVG 1.1//EN"
 "http://www.w3.org/Graphics/SVG/1.1/DTD/svg11.dtd">
<!-- Generated by graphviz version 2.38.0 (20140413.2041)
 -->
<!-- Title: Control&#45;flow graph for function &#39;function_3404()&#39;. Pages: 1 -->
<svg width="377pt" height="565pt"
 viewBox="0.00 0.00 377.00 565.00" xmlns="http://www.w3.org/2000/svg" xmlns:xlink="http://www.w3.org/1999/xlink">
<g id="graph0" class="graph" transform="scale(1 1) rotate(0) translate(4 561)">
<title>Control&#45;flow graph for function &#39;function_3404()&#39;.</title>
<polygon fill="white" stroke="none" points="-4,4 -4,-561 373,-561 373,4 -4,4"/>
<text text-anchor="middle" x="184.5" y="-7.8" font-family="Times,serif" font-size="14.00">Control&#45;flow graph for function &#39;function_3404()&#39;.</text>
<!-- Node0x307a7540 -->
<g id="node1" class="node"><title>Node0x307a7540</title>
<polygon fill="none" stroke="black" points="178.25,-520.5 178.25,-556.5 237.25,-556.5 237.25,-520.5 178.25,-520.5"/>
<text text-anchor="start" x="186.25" y="-534.8" font-family="Times,serif" font-size="14.00">entry:</text>
</g>
<!-- Node0x307a73e0 -->
<g id="node2" class="node"><title>Node0x307a73e0</title>
<polygon fill="none" stroke="black" points="154.75,-429.5 154.75,-482.5 260.75,-482.5 260.75,-429.5 154.75,-429.5"/>
<text text-anchor="start" x="162.75" y="-467.3" font-family="Times,serif" font-size="14.00">0x430f8be0:</text>
<text text-anchor="start" x="162.75" y="-452.3" font-family="Times,serif" font-size="14.00"> v1 = g29</text>
<text text-anchor="start" x="162.75" y="-437.3" font-family="Times,serif" font-size="14.00"> v2</text>
</g>
<!-- Node0x307a7540&#45;&gt;Node0x307a73e0 -->
<g id="edge1" class="edge"><title>Node0x307a7540&#45;&gt;Node0x307a73e0</title>
<path fill="none" stroke="black" d="M207.75,-520.428C207.75,-512.361 207.75,-502.411 207.75,-492.802"/>
<polygon fill="black" stroke="black" points="211.25,-492.616 207.75,-482.616 204.25,-492.616 211.25,-492.616"/>
</g>
<!-- Node0x307a7850 -->
<g id="node3" class="node"><title>Node0x307a7850</title>
<polygon fill="none" stroke="black" points="144.75,-338.5 144.75,-391.5 270.75,-391.5 270.75,-338.5 144.75,-338.5"/>
<text text-anchor="start" x="152.75" y="-376.3" font-family="Times,serif" font-size="14.00">0x4ffa970:</text>
<text text-anchor="start" x="152.75" y="-361.3" font-family="Times,serif" font-size="14.00"> if (v1 != &#45;113):</text>
<text text-anchor="start" x="152.75" y="-346.3" font-family="Times,serif" font-size="14.00"> else:</text>
</g>
<!-- Node0x307a73e0&#45;&gt;Node0x307a7850 -->
<g id="edge2" class="edge"><title>Node0x307a73e0&#45;&gt;Node0x307a7850</title>
<path fill="none" stroke="black" d="M207.75,-429.258C207.75,-420.678 207.75,-410.961 207.75,-401.762"/>
<polygon fill="black" stroke="black" points="211.25,-401.685 207.75,-391.685 204.25,-401.685 211.25,-401.685"/>
</g>
<!-- Node0x307a83c0 -->
<g id="node4" class="node"><title>Node0x307a83c0</title>
<polygon fill="none" stroke="black" points="27.25,-173.5 27.25,-286.5 226.25,-286.5 226.25,-173.5 27.25,-173.5"/>
<text text-anchor="start" x="35.25" y="-271.3" font-family="Times,serif" font-size="14.00">0x4398fc20:</text>
<text text-anchor="start" x="35.25" y="-256.3" font-family="Times,serif" font-size="14.00"> v3 = (v1 + 101)</text>
<text text-anchor="start" x="35.25" y="-241.3" font-family="Times,serif" font-size="14.00"> g6 = (v1 &gt; 4294967194)</text>
<text text-anchor="start" x="35.25" y="-226.3" font-family="Times,serif" font-size="14.00"> g8 = ((v3 &amp; &#45;(v1)) &lt; 0)</text>
<text text-anchor="start" x="35.25" y="-211.3" font-family="Times,serif" font-size="14.00"> g7 = (v3 &lt; 0)</text>
<text text-anchor="start" x="35.25" y="-196.3" font-family="Times,serif" font-size="14.00"> g9 = (v3 == 0)</text>
<text text-anchor="start" x="35.25" y="-181.3" font-family="Times,serif" font-size="14.00"> v2 = 1</text>
</g>
<!-- Node0x307a7850&#45;&gt;Node0x307a83c0 -->
<g id="edge3" class="edge"><title>Node0x307a7850&#45;&gt;Node0x307a83c0</title>
<path fill="none" stroke="black" d="M188.246,-338.318C183.984,-332.398 179.6,-326.059 175.75,-320 170.818,-312.238 165.862,-303.945 161.097,-295.661"/>
<polygon fill="black" stroke="black" points="163.991,-293.669 156.011,-286.7 157.903,-297.124 163.991,-293.669"/>
<text text-anchor="middle" x="213.75" y="-308.8" font-family="Times,serif" font-size="14.00">v1 != &#45;113</text>
</g>
<!-- Node0x307a8820 -->
<g id="node5" class="node"><title>Node0x307a8820</title>
<polygon fill="none" stroke="black" points="244.25,-211 244.25,-249 337.25,-249 337.25,-211 244.25,-211"/>
<text text-anchor="start" x="252.25" y="-233.8" font-family="Times,serif" font-size="14.00">0x4ffab70:</text>
<text text-anchor="start" x="252.25" y="-218.8" font-family="Times,serif" font-size="14.00"> v2 = 0</text>
</g>
<!-- Node0x307a7850&#45;&gt;Node0x307a8820 -->
<g id="edge4" class="edge"><title>Node0x307a7850&#45;&gt;Node0x307a8820</title>
<path fill="none" stroke="black" d="M236.468,-338.438C241.964,-332.714 247.363,-326.423 251.75,-320 264.755,-300.958 274.991,-276.878 281.707,-258.568"/>
<polygon fill="black" stroke="black" points="285.035,-259.653 285.071,-249.058 278.436,-257.318 285.035,-259.653"/>
<text text-anchor="middle" x="300.75" y="-308.8" font-family="Times,serif" font-size="14.00">v1 == &#45;113</text>
</g>
<!-- Node0x3a73d8f0 -->
<g id="node6" class="node"><title>Node0x3a73d8f0</title>
<polygon fill="none" stroke="black" points="179.75,-97.5 179.75,-135.5 271.75,-135.5 271.75,-97.5 179.75,-97.5"/>
<text text-anchor="start" x="187.75" y="-120.3" font-family="Times,serif" font-size="14.00">0x4ffada0:</text>
<text text-anchor="start" x="187.75" y="-105.3" font-family="Times,serif" font-size="14.00"> g29 = v2</text>
</g>
<!-- Node0x307a83c0&#45;&gt;Node0x3a73d8f0 -->
<g id="edge5" class="edge"><title>Node0x307a83c0&#45;&gt;Node0x3a73d8f0</title>
<path fill="none" stroke="black" d="M176.25,-173.25C185.429,-162.913 194.607,-152.575 202.523,-143.659"/>
<polygon fill="black" stroke="black" points="205.38,-145.714 209.402,-135.912 200.145,-141.066 205.38,-145.714"/>
</g>
<!-- Node0x307a8820&#45;&gt;Node0x3a73d8f0 -->
<g id="edge6" class="edge"><title>Node0x307a8820&#45;&gt;Node0x3a73d8f0</title>
<path fill="none" stroke="black" d="M280.017,-210.588C269.51,-192.565 253.387,-164.908 241.442,-144.419"/>
<polygon fill="black" stroke="black" points="244.344,-142.446 236.284,-135.569 238.296,-145.971 244.344,-142.446"/>
</g>
<!-- Node0x1543adf0 -->
<g id="node7" class="node"><title>Node0x1543adf0</title>
<polygon fill="none" stroke="black" points="198.75,-23.5 198.75,-59.5 252.75,-59.5 252.75,-23.5 198.75,-23.5"/>
<text text-anchor="start" x="206.75" y="-37.8" font-family="Times,serif" font-size="14.00">exit:</text>
</g>
<!-- Node0x3a73d8f0&#45;&gt;Node0x1543adf0 -->
<g id="edge7" class="edge"><title>Node0x3a73d8f0&#45;&gt;Node0x1543adf0</title>
<path fill="none" stroke="black" d="M225.75,-97.4551C225.75,-89.2008 225.75,-79.2377 225.75,-70.0742"/>
<polygon fill="black" stroke="black" points="229.25,-69.8347 225.75,-59.8347 222.25,-69.8347 229.25,-69.8347"/>
</g>
</g>
</svg>
