<?xml version="1.0" encoding="UTF-8" standalone="no"?>
<!DOCTYPE svg PUBLIC "-//W3C//DTD SVG 1.1//EN"
 "http://www.w3.org/Graphics/SVG/1.1/DTD/svg11.dtd">
<!-- Generated by graphviz version 2.38.0 (20140413.2041)
 -->
<!-- Title: Control&#45;flow graph for function &#39;function_fcb0()&#39;. Pages: 1 -->
<svg width="510pt" height="456pt"
 viewBox="0.00 0.00 510.00 456.00" xmlns="http://www.w3.org/2000/svg" xmlns:xlink="http://www.w3.org/1999/xlink">
<g id="graph0" class="graph" transform="scale(1 1) rotate(0) translate(4 452)">
<title>Control&#45;flow graph for function &#39;function_fcb0()&#39;.</title>
<polygon fill="white" stroke="none" points="-4,4 -4,-452 506,-452 506,4 -4,4"/>
<text text-anchor="middle" x="251" y="-7.8" font-family="Times,serif" font-size="14.00">Control&#45;flow graph for function &#39;function_fcb0()&#39;.</text>
<!-- Node0x427a7830 -->
<g id="node1" class="node"><title>Node0x427a7830</title>
<polygon fill="none" stroke="black" points="221.5,-411.5 221.5,-447.5 280.5,-447.5 280.5,-411.5 221.5,-411.5"/>
<text text-anchor="start" x="229.5" y="-425.8" font-family="Times,serif" font-size="14.00">entry:</text>
</g>
<!-- Node0x427a8340 -->
<g id="node2" class="node"><title>Node0x427a8340</title>
<polygon fill="none" stroke="black" points="-2.84217e-14,-96.5 -2.84217e-14,-374.5 502,-374.5 502,-96.5 -2.84217e-14,-96.5"/>
<text text-anchor="start" x="8" y="-359.3" font-family="Times,serif" font-size="14.00">0xe732200:</text>
<text text-anchor="start" x="8" y="-344.3" font-family="Times,serif" font-size="14.00"> v1 = g38</text>
<text text-anchor="start" x="8" y="-329.3" font-family="Times,serif" font-size="14.00"> v2 = g39</text>
<text text-anchor="start" x="8" y="-314.3" font-family="Times,serif" font-size="14.00"> v3 = g29</text>
<text text-anchor="start" x="8" y="-299.3" font-family="Times,serif" font-size="14.00"> g38 = v3</text>
<text text-anchor="start" x="8" y="-284.3" font-family="Times,serif" font-size="14.00"> v4 = *(IntToPtrCastExpr&lt;ptr&gt;((v3 + 16)))</text>
<text text-anchor="start" x="8" y="-269.3" font-family="Times,serif" font-size="14.00"> g29 = v4</text>
<text text-anchor="start" x="8" y="-254.3" font-family="Times,serif" font-size="14.00"> g37 = (g37 != 0)</text>
<text text-anchor="start" x="8" y="-239.3" font-family="Times,serif" font-size="14.00"> g39 = ExtCastExpr&lt;int32&gt;(*(IntToPtrCastExpr&lt;ptr&gt;((v4 + 23))))</text>
<text text-anchor="start" x="8" y="-224.3" font-family="Times,serif" font-size="14.00"> function_120a0()</text>
<text text-anchor="start" x="8" y="-209.3" font-family="Times,serif" font-size="14.00"> g9 = (g39 == 0)</text>
<text text-anchor="start" x="8" y="-194.3" font-family="Times,serif" font-size="14.00"> g29 = *(IntToPtrCastExpr&lt;ptr&gt;((g38 + 20)))</text>
<text text-anchor="start" x="8" y="-179.3" font-family="Times,serif" font-size="14.00"> g30 = (11 if (g39 == 0) else 1)</text>
<text text-anchor="start" x="8" y="-164.3" font-family="Times,serif" font-size="14.00"> g38 = v1</text>
<text text-anchor="start" x="8" y="-149.3" font-family="Times,serif" font-size="14.00"> g39 = v2</text>
<text text-anchor="start" x="8" y="-134.3" font-family="Times,serif" font-size="14.00"> v5</text>
<text text-anchor="start" x="8" y="-119.3" font-family="Times,serif" font-size="14.00"> g34 = v5</text>
<text text-anchor="start" x="8" y="-104.3" font-family="Times,serif" font-size="14.00"> function_21c70()</text>
</g>
<!-- Node0x427a7830&#45;&gt;Node0x427a8340 -->
<g id="edge1" class="edge"><title>Node0x427a7830&#45;&gt;Node0x427a8340</title>
<path fill="none" stroke="black" d="M251,-411.461C251,-404.228 251,-395.076 251,-384.767"/>
<polygon fill="black" stroke="black" points="254.5,-384.554 251,-374.554 247.5,-384.554 254.5,-384.554"/>
</g>
<!-- Node0x427aa2c0 -->
<g id="node3" class="node"><title>Node0x427aa2c0</title>
<polygon fill="none" stroke="black" points="224,-23.5 224,-59.5 278,-59.5 278,-23.5 224,-23.5"/>
<text text-anchor="start" x="232" y="-37.8" font-family="Times,serif" font-size="14.00">exit:</text>
</g>
<!-- Node0x427a8340&#45;&gt;Node0x427aa2c0 -->
<g id="edge2" class="edge"><title>Node0x427a8340&#45;&gt;Node0x427aa2c0</title>
<path fill="none" stroke="black" d="M251,-96.4937C251,-86.7679 251,-77.7587 251,-69.9967"/>
<polygon fill="black" stroke="black" points="254.5,-69.9092 251,-59.9092 247.5,-69.9093 254.5,-69.9092"/>
</g>
</g>
</svg>
