<?xml version="1.0" encoding="UTF-8" standalone="no"?>
<!DOCTYPE svg PUBLIC "-//W3C//DTD SVG 1.1//EN"
 "http://www.w3.org/Graphics/SVG/1.1/DTD/svg11.dtd">
<!-- Generated by graphviz version 2.38.0 (20140413.2041)
 -->
<!-- Title: Control&#45;flow graph for function &#39;function_bfa8()&#39;. Pages: 1 -->
<svg width="652pt" height="759pt"
 viewBox="0.00 0.00 651.50 759.00" xmlns="http://www.w3.org/2000/svg" xmlns:xlink="http://www.w3.org/1999/xlink">
<g id="graph0" class="graph" transform="scale(1 1) rotate(0) translate(4 755)">
<title>Control&#45;flow graph for function &#39;function_bfa8()&#39;.</title>
<polygon fill="white" stroke="none" points="-4,4 -4,-755 647.5,-755 647.5,4 -4,4"/>
<text text-anchor="middle" x="321.75" y="-7.8" font-family="Times,serif" font-size="14.00">Control&#45;flow graph for function &#39;function_bfa8()&#39;.</text>
<!-- Node0x15cf8490 -->
<g id="node1" class="node"><title>Node0x15cf8490</title>
<polygon fill="none" stroke="black" points="187.5,-714.5 187.5,-750.5 246.5,-750.5 246.5,-714.5 187.5,-714.5"/>
<text text-anchor="start" x="195.5" y="-728.8" font-family="Times,serif" font-size="14.00">entry:</text>
</g>
<!-- Node0x2993fa60 -->
<g id="node2" class="node"><title>Node0x2993fa60</title>
<polygon fill="none" stroke="black" points="69,-368.5 69,-676.5 365,-676.5 365,-368.5 69,-368.5"/>
<text text-anchor="start" x="77" y="-661.3" font-family="Times,serif" font-size="14.00">0x3af217c0:</text>
<text text-anchor="start" x="77" y="-646.3" font-family="Times,serif" font-size="14.00"> v1 = g38</text>
<text text-anchor="start" x="77" y="-631.3" font-family="Times,serif" font-size="14.00"> g38 = g29</text>
<text text-anchor="start" x="77" y="-616.3" font-family="Times,serif" font-size="14.00"> g30 = 0</text>
<text text-anchor="start" x="77" y="-601.3" font-family="Times,serif" font-size="14.00"> function_bef8()</text>
<text text-anchor="start" x="77" y="-586.3" font-family="Times,serif" font-size="14.00"> v2 = g38</text>
<text text-anchor="start" x="77" y="-571.3" font-family="Times,serif" font-size="14.00"> v3 = IntToPtrCastExpr&lt;ptr&gt;(v2)</text>
<text text-anchor="start" x="77" y="-556.3" font-family="Times,serif" font-size="14.00"> g29 = *(v3)</text>
<text text-anchor="start" x="77" y="-541.3" font-family="Times,serif" font-size="14.00"> g30 = 2</text>
<text text-anchor="start" x="77" y="-526.3" font-family="Times,serif" font-size="14.00"> v4 = (v2 + 4)</text>
<text text-anchor="start" x="77" y="-511.3" font-family="Times,serif" font-size="14.00"> g36 = v4</text>
<text text-anchor="start" x="77" y="-496.3" font-family="Times,serif" font-size="14.00"> *(v3) = *(IntToPtrCastExpr&lt;ptr&gt;(v4))</text>
<text text-anchor="start" x="77" y="-481.3" font-family="Times,serif" font-size="14.00"> v5 = g36</text>
<text text-anchor="start" x="77" y="-466.3" font-family="Times,serif" font-size="14.00"> v6 = (g30 + 1)</text>
<text text-anchor="start" x="77" y="-451.3" font-family="Times,serif" font-size="14.00"> g30 = v6</text>
<text text-anchor="start" x="77" y="-436.3" font-family="Times,serif" font-size="14.00"> v7 = (v5 + 4)</text>
<text text-anchor="start" x="77" y="-421.3" font-family="Times,serif" font-size="14.00"> v8 = *(IntToPtrCastExpr&lt;ptr&gt;(v7))</text>
<text text-anchor="start" x="77" y="-406.3" font-family="Times,serif" font-size="14.00"> g37 = v8</text>
<text text-anchor="start" x="77" y="-391.3" font-family="Times,serif" font-size="14.00"> g36 = v7</text>
<text text-anchor="start" x="77" y="-376.3" font-family="Times,serif" font-size="14.00"> *(IntToPtrCastExpr&lt;ptr&gt;(v5)) = v8</text>
</g>
<!-- Node0x15cf8490&#45;&gt;Node0x2993fa60 -->
<g id="edge1" class="edge"><title>Node0x15cf8490&#45;&gt;Node0x2993fa60</title>
<path fill="none" stroke="black" d="M217,-714.478C217,-707.05 217,-697.573 217,-686.826"/>
<polygon fill="black" stroke="black" points="220.5,-686.621 217,-676.621 213.5,-686.621 220.5,-686.621"/>
</g>
<!-- Node0x2993d6e0 -->
<g id="node3" class="node"><title>Node0x2993d6e0</title>
<polygon fill="none" stroke="black" points="146.5,-292.5 146.5,-330.5 287.5,-330.5 287.5,-292.5 146.5,-292.5"/>
<text text-anchor="start" x="154.5" y="-315.3" font-family="Times,serif" font-size="14.00">0x73d8ad0:</text>
<text text-anchor="start" x="154.5" y="-300.3" font-family="Times,serif" font-size="14.00"> while (v6 != 16):</text>
</g>
<!-- Node0x2993fa60&#45;&gt;Node0x2993d6e0 -->
<g id="edge2" class="edge"><title>Node0x2993fa60&#45;&gt;Node0x2993d6e0</title>
<path fill="none" stroke="black" d="M217,-368.234C217,-358.177 217,-348.898 217,-340.912"/>
<polygon fill="black" stroke="black" points="220.5,-340.874 217,-330.874 213.5,-340.874 220.5,-340.874"/>
</g>
<!-- Node0x2993e960 -->
<g id="node4" class="node"><title>Node0x2993e960</title>
<polygon fill="none" stroke="black" points="0,-97.5 0,-240.5 278,-240.5 278,-97.5 0,-97.5"/>
<text text-anchor="start" x="8" y="-225.3" font-family="Times,serif" font-size="14.00">0x292f8cc0:</text>
<text text-anchor="start" x="8" y="-210.3" font-family="Times,serif" font-size="14.00"> v5 = g36</text>
<text text-anchor="start" x="8" y="-195.3" font-family="Times,serif" font-size="14.00"> v6 = (g30 + 1)</text>
<text text-anchor="start" x="8" y="-180.3" font-family="Times,serif" font-size="14.00"> g30 = v6</text>
<text text-anchor="start" x="8" y="-165.3" font-family="Times,serif" font-size="14.00"> v7 = (v5 + 4)</text>
<text text-anchor="start" x="8" y="-150.3" font-family="Times,serif" font-size="14.00"> v8 = *(IntToPtrCastExpr&lt;ptr&gt;(v7))</text>
<text text-anchor="start" x="8" y="-135.3" font-family="Times,serif" font-size="14.00"> g37 = v8</text>
<text text-anchor="start" x="8" y="-120.3" font-family="Times,serif" font-size="14.00"> g36 = v7</text>
<text text-anchor="start" x="8" y="-105.3" font-family="Times,serif" font-size="14.00"> *(IntToPtrCastExpr&lt;ptr&gt;(v5)) = v8</text>
</g>
<!-- Node0x2993d6e0&#45;&gt;Node0x2993e960 -->
<g id="edge3" class="edge"><title>Node0x2993d6e0&#45;&gt;Node0x2993e960</title>
<path fill="none" stroke="black" d="M159.494,-292.464C151.778,-287.655 144.861,-281.603 140,-274 135.421,-266.838 132.492,-258.793 130.761,-250.432"/>
<polygon fill="black" stroke="black" points="134.216,-249.867 129.253,-240.506 127.295,-250.918 134.216,-249.867"/>
<text text-anchor="middle" x="171.5" y="-262.8" font-family="Times,serif" font-size="14.00">v6 != 16</text>
</g>
<!-- Node0x15cf6360 -->
<g id="node5" class="node"><title>Node0x15cf6360</title>
<polygon fill="none" stroke="black" points="296.5,-112.5 296.5,-225.5 643.5,-225.5 643.5,-112.5 296.5,-112.5"/>
<text text-anchor="start" x="304.5" y="-210.3" font-family="Times,serif" font-size="14.00">0x73d77f0:</text>
<text text-anchor="start" x="304.5" y="-195.3" font-family="Times,serif" font-size="14.00"> g9 = True</text>
<text text-anchor="start" x="304.5" y="-180.3" font-family="Times,serif" font-size="14.00"> *(IntToPtrCastExpr&lt;ptr&gt;((g38 + 60))) = g29</text>
<text text-anchor="start" x="304.5" y="-165.3" font-family="Times,serif" font-size="14.00"> g38 = v1</text>
<text text-anchor="start" x="304.5" y="-150.3" font-family="Times,serif" font-size="14.00"> v9</text>
<text text-anchor="start" x="304.5" y="-135.3" font-family="Times,serif" font-size="14.00"> g34 = v9</text>
<text text-anchor="start" x="304.5" y="-120.3" font-family="Times,serif" font-size="14.00"> IntToPtrCastExpr&lt;ptr&gt;(g35)()</text>
</g>
<!-- Node0x2993d6e0&#45;&gt;Node0x15cf6360 -->
<g id="edge4" class="edge"><title>Node0x2993d6e0&#45;&gt;Node0x15cf6360</title>
<path fill="none" stroke="black" d="M249.557,-292.42C277.906,-276.677 320.675,-252.926 361.019,-230.521"/>
<polygon fill="black" stroke="black" points="362.811,-233.529 369.854,-225.614 359.413,-227.41 362.811,-233.529"/>
<text text-anchor="middle" x="340.5" y="-262.8" font-family="Times,serif" font-size="14.00">v6 == 16</text>
</g>
<!-- Node0x2993e960&#45;&gt;Node0x2993d6e0 -->
<g id="edge5" class="edge"><title>Node0x2993e960&#45;&gt;Node0x2993d6e0</title>
<path fill="none" stroke="black" d="M193.033,-240.51C196.671,-246.608 200.054,-252.814 203,-259 206.49,-266.329 209.231,-274.673 211.327,-282.479"/>
<polygon fill="black" stroke="black" points="207.952,-283.413 213.719,-292.301 214.753,-281.757 207.952,-283.413"/>
</g>
<!-- Node0x2993d5c0 -->
<g id="node6" class="node"><title>Node0x2993d5c0</title>
<polygon fill="none" stroke="black" points="443,-23.5 443,-59.5 497,-59.5 497,-23.5 443,-23.5"/>
<text text-anchor="start" x="451" y="-37.8" font-family="Times,serif" font-size="14.00">exit:</text>
</g>
<!-- Node0x15cf6360&#45;&gt;Node0x2993d5c0 -->
<g id="edge6" class="edge"><title>Node0x15cf6360&#45;&gt;Node0x2993d5c0</title>
<path fill="none" stroke="black" d="M470,-112.223C470,-97.5395 470,-82.3402 470,-69.8951"/>
<polygon fill="black" stroke="black" points="473.5,-69.7496 470,-59.7497 466.5,-69.7497 473.5,-69.7496"/>
</g>
</g>
</svg>
