<?xml version="1.0" encoding="UTF-8" standalone="no"?>
<!DOCTYPE svg PUBLIC "-//W3C//DTD SVG 1.1//EN"
 "http://www.w3.org/Graphics/SVG/1.1/DTD/svg11.dtd">
<!-- Generated by graphviz version 2.38.0 (20140413.2041)
 -->
<!-- Title: Control&#45;flow graph for function &#39;function_1a9c4()&#39;. Pages: 1 -->
<svg width="525pt" height="2450pt"
 viewBox="0.00 0.00 525.00 2450.00" xmlns="http://www.w3.org/2000/svg" xmlns:xlink="http://www.w3.org/1999/xlink">
<g id="graph0" class="graph" transform="scale(1 1) rotate(0) translate(4 2446)">
<title>Control&#45;flow graph for function &#39;function_1a9c4()&#39;.</title>
<polygon fill="white" stroke="none" points="-4,4 -4,-2446 521,-2446 521,4 -4,4"/>
<text text-anchor="middle" x="258.5" y="-7.8" font-family="Times,serif" font-size="14.00">Control&#45;flow graph for function &#39;function_1a9c4()&#39;.</text>
<!-- Node0x13446d70 -->
<g id="node1" class="node"><title>Node0x13446d70</title>
<polygon fill="none" stroke="black" points="263,-2405.5 263,-2441.5 322,-2441.5 322,-2405.5 263,-2405.5"/>
<text text-anchor="start" x="271" y="-2419.8" font-family="Times,serif" font-size="14.00">entry:</text>
</g>
<!-- Node0x13448d70 -->
<g id="node2" class="node"><title>Node0x13448d70</title>
<polygon fill="none" stroke="black" points="68,-2164.5 68,-2367.5 517,-2367.5 517,-2164.5 68,-2164.5"/>
<text text-anchor="start" x="76" y="-2352.3" font-family="Times,serif" font-size="14.00">0x11de4a20:</text>
<text text-anchor="start" x="76" y="-2337.3" font-family="Times,serif" font-size="14.00"> v1 = IntToPtrCastExpr&lt;ptr&gt;(g39)</text>
<text text-anchor="start" x="76" y="-2322.3" font-family="Times,serif" font-size="14.00"> v2 = g29</text>
<text text-anchor="start" x="76" y="-2307.3" font-family="Times,serif" font-size="14.00"> g9 = (v2 == 0)</text>
<text text-anchor="start" x="76" y="-2292.3" font-family="Times,serif" font-size="14.00"> v3</text>
<text text-anchor="start" x="76" y="-2277.3" font-family="Times,serif" font-size="14.00"> g34 = v3</text>
<text text-anchor="start" x="76" y="-2262.3" font-family="Times,serif" font-size="14.00"> IntToPtrCastExpr&lt;ptr&gt;(ExtCastExpr&lt;int32&gt;((v2 == 0)))()</text>
<text text-anchor="start" x="76" y="-2247.3" font-family="Times,serif" font-size="14.00"> v4 = *(IntToPtrCastExpr&lt;ptr&gt;(g39))</text>
<text text-anchor="start" x="76" y="-2232.3" font-family="Times,serif" font-size="14.00"> g30 = v4</text>
<text text-anchor="start" x="76" y="-2217.3" font-family="Times,serif" font-size="14.00"> v5 = v1[&#39;7&#39;]</text>
<text text-anchor="start" x="76" y="-2202.3" font-family="Times,serif" font-size="14.00"> g38 = v5</text>
<text text-anchor="start" x="76" y="-2187.3" font-family="Times,serif" font-size="14.00"> g9 = (v4 == 0)</text>
<text text-anchor="start" x="76" y="-2172.3" font-family="Times,serif" font-size="14.00"> v6 = v1</text>
</g>
<!-- Node0x13446d70&#45;&gt;Node0x13448d70 -->
<g id="edge1" class="edge"><title>Node0x13446d70&#45;&gt;Node0x13448d70</title>
<path fill="none" stroke="black" d="M292.5,-2405.26C292.5,-2397.77 292.5,-2388.32 292.5,-2377.89"/>
<polygon fill="black" stroke="black" points="296,-2377.62 292.5,-2367.62 289,-2377.62 296,-2377.62"/>
</g>
<!-- Node0x3e122e60 -->
<g id="node3" class="node"><title>Node0x3e122e60</title>
<polygon fill="none" stroke="black" points="240.5,-2088.5 240.5,-2126.5 344.5,-2126.5 344.5,-2088.5 240.5,-2088.5"/>
<text text-anchor="start" x="248.5" y="-2111.3" font-family="Times,serif" font-size="14.00">0x91aaeb0:</text>
<text text-anchor="start" x="248.5" y="-2096.3" font-family="Times,serif" font-size="14.00"> if (v4 != 0):</text>
</g>
<!-- Node0x13448d70&#45;&gt;Node0x3e122e60 -->
<g id="edge2" class="edge"><title>Node0x13448d70&#45;&gt;Node0x3e122e60</title>
<path fill="none" stroke="black" d="M292.5,-2164.12C292.5,-2154.36 292.5,-2145.11 292.5,-2137.06"/>
<polygon fill="black" stroke="black" points="296,-2136.89 292.5,-2126.89 289,-2136.89 296,-2136.89"/>
</g>
<!-- Node0x2ba810e0 -->
<g id="node4" class="node"><title>Node0x2ba810e0</title>
<polygon fill="none" stroke="black" points="38.5,-1953.5 38.5,-2036.5 298.5,-2036.5 298.5,-1953.5 38.5,-1953.5"/>
<text text-anchor="start" x="46.5" y="-2021.3" font-family="Times,serif" font-size="14.00">0x91aa2f0:</text>
<text text-anchor="start" x="46.5" y="-2006.3" font-family="Times,serif" font-size="14.00"> g29 = v5</text>
<text text-anchor="start" x="46.5" y="-1991.3" font-family="Times,serif" font-size="14.00"> g35 = 109044</text>
<text text-anchor="start" x="46.5" y="-1976.3" font-family="Times,serif" font-size="14.00"> IntToPtrCastExpr&lt;ptr&gt;(v1[&#39;9&#39;])()</text>
<text text-anchor="start" x="46.5" y="-1961.3" font-family="Times,serif" font-size="14.00"> v6 = v1</text>
</g>
<!-- Node0x3e122e60&#45;&gt;Node0x2ba810e0 -->
<g id="edge3" class="edge"><title>Node0x3e122e60&#45;&gt;Node0x2ba810e0</title>
<path fill="none" stroke="black" d="M272.024,-2088.25C258.241,-2075.97 239.39,-2059.17 221.549,-2043.27"/>
<polygon fill="black" stroke="black" points="223.777,-2040.57 213.983,-2036.53 219.12,-2045.8 223.777,-2040.57"/>
<text text-anchor="middle" x="276.5" y="-2058.8" font-family="Times,serif" font-size="14.00">v4 != 0</text>
</g>
<!-- Node0x26856a00 -->
<g id="node5" class="node"><title>Node0x26856a00</title>
<polygon fill="none" stroke="black" points="221.5,-1832.5 221.5,-1915.5 351.5,-1915.5 351.5,-1832.5 221.5,-1832.5"/>
<text text-anchor="start" x="229.5" y="-1900.3" font-family="Times,serif" font-size="14.00">0x100161b0:</text>
<text text-anchor="start" x="229.5" y="-1885.3" font-family="Times,serif" font-size="14.00"> v7 = v6[&#39;1&#39;]</text>
<text text-anchor="start" x="229.5" y="-1870.3" font-family="Times,serif" font-size="14.00"> g30 = v7</text>
<text text-anchor="start" x="229.5" y="-1855.3" font-family="Times,serif" font-size="14.00"> g9 = (v7 == 0)</text>
<text text-anchor="start" x="229.5" y="-1840.3" font-family="Times,serif" font-size="14.00"> v8 = v6</text>
</g>
<!-- Node0x3e122e60&#45;&gt;Node0x26856a00 -->
<g id="edge4" class="edge"><title>Node0x3e122e60&#45;&gt;Node0x26856a00</title>
<path fill="none" stroke="black" d="M301.577,-2088.37C303.998,-2082.64 306.279,-2076.18 307.5,-2070 317.574,-2018.99 314.318,-2004.55 307.5,-1953 306.324,-1944.11 304.426,-1934.8 302.239,-1925.82"/>
<polygon fill="black" stroke="black" points="305.56,-1924.69 299.671,-1915.88 298.783,-1926.44 305.56,-1924.69"/>
<text text-anchor="middle" x="344.5" y="-1991.3" font-family="Times,serif" font-size="14.00">v4 == 0</text>
</g>
<!-- Node0x2ba810e0&#45;&gt;Node0x26856a00 -->
<g id="edge5" class="edge"><title>Node0x2ba810e0&#45;&gt;Node0x26856a00</title>
<path fill="none" stroke="black" d="M208.779,-1953.38C218.449,-1943.63 228.868,-1933.12 238.839,-1923.07"/>
<polygon fill="black" stroke="black" points="241.446,-1925.41 246.002,-1915.84 236.476,-1920.48 241.446,-1925.41"/>
</g>
<!-- Node0x3581ab50 -->
<g id="node6" class="node"><title>Node0x3581ab50</title>
<polygon fill="none" stroke="black" points="234.5,-1756.5 234.5,-1794.5 338.5,-1794.5 338.5,-1756.5 234.5,-1756.5"/>
<text text-anchor="start" x="242.5" y="-1779.3" font-family="Times,serif" font-size="14.00">0x91aca70:</text>
<text text-anchor="start" x="242.5" y="-1764.3" font-family="Times,serif" font-size="14.00"> if (v7 != 0):</text>
</g>
<!-- Node0x26856a00&#45;&gt;Node0x3581ab50 -->
<g id="edge6" class="edge"><title>Node0x26856a00&#45;&gt;Node0x3581ab50</title>
<path fill="none" stroke="black" d="M286.5,-1832.35C286.5,-1823.08 286.5,-1813.43 286.5,-1804.8"/>
<polygon fill="black" stroke="black" points="290,-1804.54 286.5,-1794.54 283,-1804.54 290,-1804.54"/>
</g>
<!-- Node0x43135fb0 -->
<g id="node7" class="node"><title>Node0x43135fb0</title>
<polygon fill="none" stroke="black" points="32.5,-1621.5 32.5,-1704.5 292.5,-1704.5 292.5,-1621.5 32.5,-1621.5"/>
<text text-anchor="start" x="40.5" y="-1689.3" font-family="Times,serif" font-size="14.00">0x91abd80:</text>
<text text-anchor="start" x="40.5" y="-1674.3" font-family="Times,serif" font-size="14.00"> g29 = g38</text>
<text text-anchor="start" x="40.5" y="-1659.3" font-family="Times,serif" font-size="14.00"> g35 = 109068</text>
<text text-anchor="start" x="40.5" y="-1644.3" font-family="Times,serif" font-size="14.00"> IntToPtrCastExpr&lt;ptr&gt;(v6[&#39;9&#39;])()</text>
<text text-anchor="start" x="40.5" y="-1629.3" font-family="Times,serif" font-size="14.00"> v8 = v1</text>
</g>
<!-- Node0x3581ab50&#45;&gt;Node0x43135fb0 -->
<g id="edge7" class="edge"><title>Node0x3581ab50&#45;&gt;Node0x43135fb0</title>
<path fill="none" stroke="black" d="M266.024,-1756.25C252.241,-1743.97 233.39,-1727.17 215.549,-1711.27"/>
<polygon fill="black" stroke="black" points="217.777,-1708.57 207.983,-1704.53 213.12,-1713.8 217.777,-1708.57"/>
<text text-anchor="middle" x="270.5" y="-1726.8" font-family="Times,serif" font-size="14.00">v7 != 0</text>
</g>
<!-- Node0x32b34960 -->
<g id="node8" class="node"><title>Node0x32b34960</title>
<polygon fill="none" stroke="black" points="215.5,-1500.5 215.5,-1583.5 345.5,-1583.5 345.5,-1500.5 215.5,-1500.5"/>
<text text-anchor="start" x="223.5" y="-1568.3" font-family="Times,serif" font-size="14.00">0x295d6eb0:</text>
<text text-anchor="start" x="223.5" y="-1553.3" font-family="Times,serif" font-size="14.00"> v9 = v8[&#39;2&#39;]</text>
<text text-anchor="start" x="223.5" y="-1538.3" font-family="Times,serif" font-size="14.00"> g30 = v9</text>
<text text-anchor="start" x="223.5" y="-1523.3" font-family="Times,serif" font-size="14.00"> g9 = (v9 == 0)</text>
<text text-anchor="start" x="223.5" y="-1508.3" font-family="Times,serif" font-size="14.00"> v10 = v8</text>
</g>
<!-- Node0x3581ab50&#45;&gt;Node0x32b34960 -->
<g id="edge8" class="edge"><title>Node0x3581ab50&#45;&gt;Node0x32b34960</title>
<path fill="none" stroke="black" d="M295.577,-1756.37C297.998,-1750.64 300.279,-1744.18 301.5,-1738 311.574,-1686.99 308.318,-1672.55 301.5,-1621 300.324,-1612.11 298.426,-1602.8 296.239,-1593.82"/>
<polygon fill="black" stroke="black" points="299.56,-1592.69 293.671,-1583.88 292.783,-1594.44 299.56,-1592.69"/>
<text text-anchor="middle" x="338.5" y="-1659.3" font-family="Times,serif" font-size="14.00">v7 == 0</text>
</g>
<!-- Node0x43135fb0&#45;&gt;Node0x32b34960 -->
<g id="edge9" class="edge"><title>Node0x43135fb0&#45;&gt;Node0x32b34960</title>
<path fill="none" stroke="black" d="M202.779,-1621.38C212.449,-1611.63 222.868,-1601.12 232.839,-1591.07"/>
<polygon fill="black" stroke="black" points="235.446,-1593.41 240.002,-1583.84 230.476,-1588.48 235.446,-1593.41"/>
</g>
<!-- Node0x268510d0 -->
<g id="node9" class="node"><title>Node0x268510d0</title>
<polygon fill="none" stroke="black" points="228.5,-1424.5 228.5,-1462.5 332.5,-1462.5 332.5,-1424.5 228.5,-1424.5"/>
<text text-anchor="start" x="236.5" y="-1447.3" font-family="Times,serif" font-size="14.00">0x91bda80:</text>
<text text-anchor="start" x="236.5" y="-1432.3" font-family="Times,serif" font-size="14.00"> if (v9 != 0):</text>
</g>
<!-- Node0x32b34960&#45;&gt;Node0x268510d0 -->
<g id="edge10" class="edge"><title>Node0x32b34960&#45;&gt;Node0x268510d0</title>
<path fill="none" stroke="black" d="M280.5,-1500.35C280.5,-1491.08 280.5,-1481.43 280.5,-1472.8"/>
<polygon fill="black" stroke="black" points="284,-1472.54 280.5,-1462.54 277,-1472.54 284,-1472.54"/>
</g>
<!-- Node0x31520510 -->
<g id="node10" class="node"><title>Node0x31520510</title>
<polygon fill="none" stroke="black" points="26.5,-1289.5 26.5,-1372.5 286.5,-1372.5 286.5,-1289.5 26.5,-1289.5"/>
<text text-anchor="start" x="34.5" y="-1357.3" font-family="Times,serif" font-size="14.00">0x91ad980:</text>
<text text-anchor="start" x="34.5" y="-1342.3" font-family="Times,serif" font-size="14.00"> g29 = g38</text>
<text text-anchor="start" x="34.5" y="-1327.3" font-family="Times,serif" font-size="14.00"> g35 = 109092</text>
<text text-anchor="start" x="34.5" y="-1312.3" font-family="Times,serif" font-size="14.00"> IntToPtrCastExpr&lt;ptr&gt;(v8[&#39;9&#39;])()</text>
<text text-anchor="start" x="34.5" y="-1297.3" font-family="Times,serif" font-size="14.00"> v10 = v1</text>
</g>
<!-- Node0x268510d0&#45;&gt;Node0x31520510 -->
<g id="edge11" class="edge"><title>Node0x268510d0&#45;&gt;Node0x31520510</title>
<path fill="none" stroke="black" d="M260.024,-1424.25C246.241,-1411.97 227.39,-1395.17 209.549,-1379.27"/>
<polygon fill="black" stroke="black" points="211.777,-1376.57 201.983,-1372.53 207.12,-1381.8 211.777,-1376.57"/>
<text text-anchor="middle" x="264.5" y="-1394.8" font-family="Times,serif" font-size="14.00">v9 != 0</text>
</g>
<!-- Node0x431355a0 -->
<g id="node11" class="node"><title>Node0x431355a0</title>
<polygon fill="none" stroke="black" points="205,-1168.5 205,-1251.5 344,-1251.5 344,-1168.5 205,-1168.5"/>
<text text-anchor="start" x="213" y="-1236.3" font-family="Times,serif" font-size="14.00">0x1f129b70:</text>
<text text-anchor="start" x="213" y="-1221.3" font-family="Times,serif" font-size="14.00"> v11 = v10[&#39;3&#39;]</text>
<text text-anchor="start" x="213" y="-1206.3" font-family="Times,serif" font-size="14.00"> g30 = v11</text>
<text text-anchor="start" x="213" y="-1191.3" font-family="Times,serif" font-size="14.00"> g9 = (v11 == 0)</text>
<text text-anchor="start" x="213" y="-1176.3" font-family="Times,serif" font-size="14.00"> v12 = v10</text>
</g>
<!-- Node0x268510d0&#45;&gt;Node0x431355a0 -->
<g id="edge12" class="edge"><title>Node0x268510d0&#45;&gt;Node0x431355a0</title>
<path fill="none" stroke="black" d="M289.577,-1424.37C291.998,-1418.64 294.279,-1412.18 295.5,-1406 305.574,-1354.99 302.318,-1340.55 295.5,-1289 294.324,-1280.11 292.426,-1270.8 290.239,-1261.82"/>
<polygon fill="black" stroke="black" points="293.56,-1260.69 287.671,-1251.88 286.783,-1262.44 293.56,-1260.69"/>
<text text-anchor="middle" x="332.5" y="-1327.3" font-family="Times,serif" font-size="14.00">v9 == 0</text>
</g>
<!-- Node0x31520510&#45;&gt;Node0x431355a0 -->
<g id="edge13" class="edge"><title>Node0x31520510&#45;&gt;Node0x431355a0</title>
<path fill="none" stroke="black" d="M196.779,-1289.38C206.449,-1279.63 216.868,-1269.12 226.839,-1259.07"/>
<polygon fill="black" stroke="black" points="229.446,-1261.41 234.002,-1251.84 224.476,-1256.48 229.446,-1261.41"/>
</g>
<!-- Node0x1fdadd20 -->
<g id="node12" class="node"><title>Node0x1fdadd20</title>
<polygon fill="none" stroke="black" points="218,-1092.5 218,-1130.5 331,-1130.5 331,-1092.5 218,-1092.5"/>
<text text-anchor="start" x="226" y="-1115.3" font-family="Times,serif" font-size="14.00">0x91bf530:</text>
<text text-anchor="start" x="226" y="-1100.3" font-family="Times,serif" font-size="14.00"> if (v11 != 0):</text>
</g>
<!-- Node0x431355a0&#45;&gt;Node0x1fdadd20 -->
<g id="edge14" class="edge"><title>Node0x431355a0&#45;&gt;Node0x1fdadd20</title>
<path fill="none" stroke="black" d="M274.5,-1168.35C274.5,-1159.08 274.5,-1149.43 274.5,-1140.8"/>
<polygon fill="black" stroke="black" points="278,-1140.54 274.5,-1130.54 271,-1140.54 278,-1140.54"/>
</g>
<!-- Node0x47a6a980 -->
<g id="node13" class="node"><title>Node0x47a6a980</title>
<polygon fill="none" stroke="black" points="12,-957.5 12,-1040.5 281,-1040.5 281,-957.5 12,-957.5"/>
<text text-anchor="start" x="20" y="-1025.3" font-family="Times,serif" font-size="14.00">0x91be810:</text>
<text text-anchor="start" x="20" y="-1010.3" font-family="Times,serif" font-size="14.00"> g29 = g38</text>
<text text-anchor="start" x="20" y="-995.3" font-family="Times,serif" font-size="14.00"> g35 = 109116</text>
<text text-anchor="start" x="20" y="-980.3" font-family="Times,serif" font-size="14.00"> IntToPtrCastExpr&lt;ptr&gt;(v10[&#39;9&#39;])()</text>
<text text-anchor="start" x="20" y="-965.3" font-family="Times,serif" font-size="14.00"> v12 = v1</text>
</g>
<!-- Node0x1fdadd20&#45;&gt;Node0x47a6a980 -->
<g id="edge15" class="edge"><title>Node0x1fdadd20&#45;&gt;Node0x47a6a980</title>
<path fill="none" stroke="black" d="M253.363,-1092.25C239.135,-1079.97 219.677,-1063.17 201.26,-1047.27"/>
<polygon fill="black" stroke="black" points="203.307,-1044.42 193.45,-1040.53 198.732,-1049.71 203.307,-1044.42"/>
<text text-anchor="middle" x="261" y="-1062.8" font-family="Times,serif" font-size="14.00">v11 != 0</text>
</g>
<!-- Node0x14707e70 -->
<g id="node14" class="node"><title>Node0x14707e70</title>
<polygon fill="none" stroke="black" points="199,-836.5 199,-919.5 338,-919.5 338,-836.5 199,-836.5"/>
<text text-anchor="start" x="207" y="-904.3" font-family="Times,serif" font-size="14.00">0x106329c0:</text>
<text text-anchor="start" x="207" y="-889.3" font-family="Times,serif" font-size="14.00"> v13 = v12[&#39;4&#39;]</text>
<text text-anchor="start" x="207" y="-874.3" font-family="Times,serif" font-size="14.00"> g30 = v13</text>
<text text-anchor="start" x="207" y="-859.3" font-family="Times,serif" font-size="14.00"> g9 = (v13 == 0)</text>
<text text-anchor="start" x="207" y="-844.3" font-family="Times,serif" font-size="14.00"> v14 = v12</text>
</g>
<!-- Node0x1fdadd20&#45;&gt;Node0x14707e70 -->
<g id="edge16" class="edge"><title>Node0x1fdadd20&#45;&gt;Node0x14707e70</title>
<path fill="none" stroke="black" d="M288.004,-1092.45C291.467,-1086.83 294.716,-1080.42 296.5,-1074 298.286,-1067.58 296.728,-1065.66 296.5,-1059 294.944,-1013.59 296.998,-1001.82 289.5,-957 287.988,-947.96 285.879,-938.451 283.576,-929.303"/>
<polygon fill="black" stroke="black" points="286.943,-928.342 281.021,-919.557 280.172,-930.118 286.943,-928.342"/>
<text text-anchor="middle" x="331" y="-995.3" font-family="Times,serif" font-size="14.00">v11 == 0</text>
</g>
<!-- Node0x47a6a980&#45;&gt;Node0x14707e70 -->
<g id="edge17" class="edge"><title>Node0x47a6a980&#45;&gt;Node0x14707e70</title>
<path fill="none" stroke="black" d="M188.144,-957.38C198.143,-947.627 208.915,-937.12 219.223,-927.065"/>
<polygon fill="black" stroke="black" points="221.915,-929.329 226.629,-919.841 217.027,-924.318 221.915,-929.329"/>
</g>
<!-- Node0x340b61b0 -->
<g id="node15" class="node"><title>Node0x340b61b0</title>
<polygon fill="none" stroke="black" points="212,-760.5 212,-798.5 325,-798.5 325,-760.5 212,-760.5"/>
<text text-anchor="start" x="220" y="-783.3" font-family="Times,serif" font-size="14.00">0x91c1380:</text>
<text text-anchor="start" x="220" y="-768.3" font-family="Times,serif" font-size="14.00"> if (v13 != 0):</text>
</g>
<!-- Node0x14707e70&#45;&gt;Node0x340b61b0 -->
<g id="edge18" class="edge"><title>Node0x14707e70&#45;&gt;Node0x340b61b0</title>
<path fill="none" stroke="black" d="M268.5,-836.355C268.5,-827.083 268.5,-817.427 268.5,-808.803"/>
<polygon fill="black" stroke="black" points="272,-808.538 268.5,-798.538 265,-808.538 272,-808.538"/>
</g>
<!-- Node0x1fda7e00 -->
<g id="node16" class="node"><title>Node0x1fda7e00</title>
<polygon fill="none" stroke="black" points="6,-625.5 6,-708.5 275,-708.5 275,-625.5 6,-625.5"/>
<text text-anchor="start" x="14" y="-693.3" font-family="Times,serif" font-size="14.00">0x91c0420:</text>
<text text-anchor="start" x="14" y="-678.3" font-family="Times,serif" font-size="14.00"> g29 = g38</text>
<text text-anchor="start" x="14" y="-663.3" font-family="Times,serif" font-size="14.00"> g35 = 109140</text>
<text text-anchor="start" x="14" y="-648.3" font-family="Times,serif" font-size="14.00"> IntToPtrCastExpr&lt;ptr&gt;(v12[&#39;9&#39;])()</text>
<text text-anchor="start" x="14" y="-633.3" font-family="Times,serif" font-size="14.00"> v14 = v1</text>
</g>
<!-- Node0x340b61b0&#45;&gt;Node0x1fda7e00 -->
<g id="edge19" class="edge"><title>Node0x340b61b0&#45;&gt;Node0x1fda7e00</title>
<path fill="none" stroke="black" d="M247.363,-760.253C233.135,-747.97 213.677,-731.172 195.26,-715.274"/>
<polygon fill="black" stroke="black" points="197.307,-712.416 187.45,-708.531 192.732,-717.715 197.307,-712.416"/>
<text text-anchor="middle" x="255" y="-730.8" font-family="Times,serif" font-size="14.00">v13 != 0</text>
</g>
<!-- Node0x12d64070 -->
<g id="node17" class="node"><title>Node0x12d64070</title>
<polygon fill="none" stroke="black" points="193,-519.5 193,-587.5 332,-587.5 332,-519.5 193,-519.5"/>
<text text-anchor="start" x="201" y="-572.3" font-family="Times,serif" font-size="14.00">0x3d2ecb60:</text>
<text text-anchor="start" x="201" y="-557.3" font-family="Times,serif" font-size="14.00"> v15 = v14[&#39;5&#39;]</text>
<text text-anchor="start" x="201" y="-542.3" font-family="Times,serif" font-size="14.00"> g30 = v15</text>
<text text-anchor="start" x="201" y="-527.3" font-family="Times,serif" font-size="14.00"> g9 = (v15 == 0)</text>
</g>
<!-- Node0x340b61b0&#45;&gt;Node0x12d64070 -->
<g id="edge20" class="edge"><title>Node0x340b61b0&#45;&gt;Node0x12d64070</title>
<path fill="none" stroke="black" d="M282.004,-760.454C285.467,-754.831 288.716,-748.416 290.5,-742 292.286,-735.577 290.728,-733.663 290.5,-727 288.944,-681.587 291.591,-669.714 283.5,-625 281.881,-616.052 279.538,-606.628 276.999,-597.684"/>
<polygon fill="black" stroke="black" points="280.278,-596.432 274.077,-587.842 273.568,-598.424 280.278,-596.432"/>
<text text-anchor="middle" x="325" y="-663.3" font-family="Times,serif" font-size="14.00">v13 == 0</text>
</g>
<!-- Node0x1fda7e00&#45;&gt;Node0x12d64070 -->
<g id="edge21" class="edge"><title>Node0x1fda7e00&#45;&gt;Node0x12d64070</title>
<path fill="none" stroke="black" d="M184.89,-625.431C195.961,-615.312 207.823,-604.472 218.857,-594.387"/>
<polygon fill="black" stroke="black" points="221.324,-596.873 226.345,-587.543 216.602,-591.706 221.324,-596.873"/>
</g>
<!-- Node0x47a69320 -->
<g id="node18" class="node"><title>Node0x47a69320</title>
<polygon fill="none" stroke="black" points="206,-443.5 206,-481.5 319,-481.5 319,-443.5 206,-443.5"/>
<text text-anchor="start" x="214" y="-466.3" font-family="Times,serif" font-size="14.00">0x91c2e60:</text>
<text text-anchor="start" x="214" y="-451.3" font-family="Times,serif" font-size="14.00"> if (v15 != 0):</text>
</g>
<!-- Node0x12d64070&#45;&gt;Node0x47a69320 -->
<g id="edge22" class="edge"><title>Node0x12d64070&#45;&gt;Node0x47a69320</title>
<path fill="none" stroke="black" d="M262.5,-519.36C262.5,-510.365 262.5,-500.707 262.5,-491.993"/>
<polygon fill="black" stroke="black" points="266,-491.941 262.5,-481.941 259,-491.941 266,-491.941"/>
</g>
<!-- Node0x102a9060 -->
<g id="node19" class="node"><title>Node0x102a9060</title>
<polygon fill="none" stroke="black" points="0,-323.5 0,-391.5 269,-391.5 269,-323.5 0,-323.5"/>
<text text-anchor="start" x="8" y="-376.3" font-family="Times,serif" font-size="14.00">0x91c2310:</text>
<text text-anchor="start" x="8" y="-361.3" font-family="Times,serif" font-size="14.00"> g29 = g38</text>
<text text-anchor="start" x="8" y="-346.3" font-family="Times,serif" font-size="14.00"> g35 = 109164</text>
<text text-anchor="start" x="8" y="-331.3" font-family="Times,serif" font-size="14.00"> IntToPtrCastExpr&lt;ptr&gt;(v14[&#39;9&#39;])()</text>
</g>
<!-- Node0x47a69320&#45;&gt;Node0x102a9060 -->
<g id="edge23" class="edge"><title>Node0x47a69320&#45;&gt;Node0x102a9060</title>
<path fill="none" stroke="black" d="M239.911,-443.323C224.33,-430.785 203.011,-413.63 183.622,-398.028"/>
<polygon fill="black" stroke="black" points="185.722,-395.225 175.737,-391.683 181.334,-400.679 185.722,-395.225"/>
<text text-anchor="middle" x="246" y="-413.8" font-family="Times,serif" font-size="14.00">v15 != 0</text>
</g>
<!-- Node0x2ae6a380 -->
<g id="node20" class="node"><title>Node0x2ae6a380</title>
<polygon fill="none" stroke="black" points="10,-97.5 10,-285.5 503,-285.5 503,-97.5 10,-97.5"/>
<text text-anchor="start" x="18" y="-270.3" font-family="Times,serif" font-size="14.00">0x91c3790:</text>
<text text-anchor="start" x="18" y="-255.3" font-family="Times,serif" font-size="14.00"> memset(IntToPtrCastExpr&lt;ptr&gt;(g39), g10, 40)</text>
<text text-anchor="start" x="18" y="-240.3" font-family="Times,serif" font-size="14.00"> g29 = g38</text>
<text text-anchor="start" x="18" y="-225.3" font-family="Times,serif" font-size="14.00"> g30 = g39</text>
<text text-anchor="start" x="18" y="-210.3" font-family="Times,serif" font-size="14.00"> g35 = 109196</text>
<text text-anchor="start" x="18" y="-195.3" font-family="Times,serif" font-size="14.00"> IntToPtrCastExpr&lt;ptr&gt;(v1[&#39;9&#39;])()</text>
<text text-anchor="start" x="18" y="-180.3" font-family="Times,serif" font-size="14.00"> v16 = g34</text>
<text text-anchor="start" x="18" y="-165.3" font-family="Times,serif" font-size="14.00"> g38 = *(IntToPtrCastExpr&lt;ptr&gt;(v16))</text>
<text text-anchor="start" x="18" y="-150.3" font-family="Times,serif" font-size="14.00"> g39 = *(IntToPtrCastExpr&lt;ptr&gt;((v16 + 4)))</text>
<text text-anchor="start" x="18" y="-135.3" font-family="Times,serif" font-size="14.00"> g32 = *(IntToPtrCastExpr&lt;ptr&gt;((v16 + 8)))</text>
<text text-anchor="start" x="18" y="-120.3" font-family="Times,serif" font-size="14.00"> g34 = *(IntToPtrCastExpr&lt;ptr&gt;((v16 + 12)))</text>
<text text-anchor="start" x="18" y="-105.3" font-family="Times,serif" font-size="14.00"> IntToPtrCastExpr&lt;ptr&gt;(*(IntToPtrCastExpr&lt;ptr&gt;((v16 + 16))))()</text>
</g>
<!-- Node0x47a69320&#45;&gt;Node0x2ae6a380 -->
<g id="edge24" class="edge"><title>Node0x47a69320&#45;&gt;Node0x2ae6a380</title>
<path fill="none" stroke="black" d="M274.179,-443.24C277.17,-437.611 279.972,-431.245 281.5,-425 283.085,-418.524 281.653,-416.665 281.5,-410 280.611,-371.303 281.47,-361.503 277.5,-323 276.584,-314.115 275.461,-304.916 274.215,-295.702"/>
<polygon fill="black" stroke="black" points="277.67,-295.133 272.819,-285.714 270.737,-296.102 277.67,-295.133"/>
<text text-anchor="middle" x="316" y="-353.8" font-family="Times,serif" font-size="14.00">v15 == 0</text>
</g>
<!-- Node0x102a9060&#45;&gt;Node0x2ae6a380 -->
<g id="edge25" class="edge"><title>Node0x102a9060&#45;&gt;Node0x2ae6a380</title>
<path fill="none" stroke="black" d="M159.189,-323.312C165.791,-314.437 173.286,-304.361 181.116,-293.836"/>
<polygon fill="black" stroke="black" points="184,-295.823 187.16,-285.711 178.383,-291.645 184,-295.823"/>
</g>
<!-- Node0x358151c0 -->
<g id="node21" class="node"><title>Node0x358151c0</title>
<polygon fill="none" stroke="black" points="229.5,-23.5 229.5,-59.5 283.5,-59.5 283.5,-23.5 229.5,-23.5"/>
<text text-anchor="start" x="237.5" y="-37.8" font-family="Times,serif" font-size="14.00">exit:</text>
</g>
<!-- Node0x2ae6a380&#45;&gt;Node0x358151c0 -->
<g id="edge26" class="edge"><title>Node0x2ae6a380&#45;&gt;Node0x358151c0</title>
<path fill="none" stroke="black" d="M256.5,-97.1892C256.5,-87.3476 256.5,-77.9959 256.5,-69.8993"/>
<polygon fill="black" stroke="black" points="260,-69.7081 256.5,-59.7081 253,-69.7082 260,-69.7081"/>
</g>
</g>
</svg>
