<?xml version="1.0" encoding="UTF-8" standalone="no"?>
<!DOCTYPE svg PUBLIC "-//W3C//DTD SVG 1.1//EN"
 "http://www.w3.org/Graphics/SVG/1.1/DTD/svg11.dtd">
<!-- Generated by graphviz version 2.38.0 (20140413.2041)
 -->
<!-- Title: Control&#45;flow graph for function &#39;function_12574()&#39;. Pages: 1 -->
<svg width="726pt" height="1318pt"
 viewBox="0.00 0.00 725.50 1318.00" xmlns="http://www.w3.org/2000/svg" xmlns:xlink="http://www.w3.org/1999/xlink">
<g id="graph0" class="graph" transform="scale(1 1) rotate(0) translate(4 1314)">
<title>Control&#45;flow graph for function &#39;function_12574()&#39;.</title>
<polygon fill="white" stroke="none" points="-4,4 -4,-1314 721.5,-1314 721.5,4 -4,4"/>
<text text-anchor="middle" x="358.75" y="-7.8" font-family="Times,serif" font-size="14.00">Control&#45;flow graph for function &#39;function_12574()&#39;.</text>
<!-- Node0x151a75e0 -->
<g id="node1" class="node"><title>Node0x151a75e0</title>
<polygon fill="none" stroke="black" points="426,-1273.5 426,-1309.5 485,-1309.5 485,-1273.5 426,-1273.5"/>
<text text-anchor="start" x="434" y="-1287.8" font-family="Times,serif" font-size="14.00">entry:</text>
</g>
<!-- Node0x40415b40 -->
<g id="node2" class="node"><title>Node0x40415b40</title>
<polygon fill="none" stroke="black" points="271,-1032.5 271,-1235.5 640,-1235.5 640,-1032.5 271,-1032.5"/>
<text text-anchor="start" x="279" y="-1220.3" font-family="Times,serif" font-size="14.00">0x37409180:</text>
<text text-anchor="start" x="279" y="-1205.3" font-family="Times,serif" font-size="14.00"> v1 = NULL</text>
<text text-anchor="start" x="279" y="-1190.3" font-family="Times,serif" font-size="14.00"> v2 = g29</text>
<text text-anchor="start" x="279" y="-1175.3" font-family="Times,serif" font-size="14.00"> v3 = *(IntToPtrCastExpr&lt;ptr&gt;((v2 + 16)))</text>
<text text-anchor="start" x="279" y="-1160.3" font-family="Times,serif" font-size="14.00"> g36 = v3</text>
<text text-anchor="start" x="279" y="-1145.3" font-family="Times,serif" font-size="14.00"> v4 = g32</text>
<text text-anchor="start" x="279" y="-1130.3" font-family="Times,serif" font-size="14.00"> v5 = ((g30 + 7) &amp; &#45;8)</text>
<text text-anchor="start" x="279" y="-1115.3" font-family="Times,serif" font-size="14.00"> g30 = v5</text>
<text text-anchor="start" x="279" y="-1100.3" font-family="Times,serif" font-size="14.00"> v6 = (*(IntToPtrCastExpr&lt;ptr&gt;((v2 + 20))) &#45; v3)</text>
<text text-anchor="start" x="279" y="-1085.3" font-family="Times,serif" font-size="14.00"> g6 = (v5 &gt;= v6)</text>
<text text-anchor="start" x="279" y="-1070.3" font-family="Times,serif" font-size="14.00"> g9 = (v5 == v6)</text>
<text text-anchor="start" x="279" y="-1055.3" font-family="Times,serif" font-size="14.00"> g33 = 165012</text>
<text text-anchor="start" x="279" y="-1040.3" font-family="Times,serif" font-size="14.00"> v7 = v5</text>
</g>
<!-- Node0x151a75e0&#45;&gt;Node0x40415b40 -->
<g id="edge1" class="edge"><title>Node0x151a75e0&#45;&gt;Node0x40415b40</title>
<path fill="none" stroke="black" d="M455.5,-1273.26C455.5,-1265.77 455.5,-1256.32 455.5,-1245.89"/>
<polygon fill="black" stroke="black" points="459,-1245.62 455.5,-1235.62 452,-1245.62 459,-1245.62"/>
</g>
<!-- Node0x2cf0b060 -->
<g id="node3" class="node"><title>Node0x2cf0b060</title>
<polygon fill="none" stroke="black" points="402.5,-956.5 402.5,-994.5 508.5,-994.5 508.5,-956.5 402.5,-956.5"/>
<text text-anchor="start" x="410.5" y="-979.3" font-family="Times,serif" font-size="14.00">0x7e45190:</text>
<text text-anchor="start" x="410.5" y="-964.3" font-family="Times,serif" font-size="14.00"> if (v5 &gt; v6):</text>
</g>
<!-- Node0x40415b40&#45;&gt;Node0x2cf0b060 -->
<g id="edge2" class="edge"><title>Node0x40415b40&#45;&gt;Node0x2cf0b060</title>
<path fill="none" stroke="black" d="M455.5,-1032.12C455.5,-1022.36 455.5,-1013.11 455.5,-1005.06"/>
<polygon fill="black" stroke="black" points="459,-1004.89 455.5,-994.893 452,-1004.89 459,-1004.89"/>
</g>
<!-- Node0x151ac1a0 -->
<g id="node4" class="node"><title>Node0x151ac1a0</title>
<polygon fill="none" stroke="black" points="0,-821.5 0,-904.5 517,-904.5 517,-821.5 0,-821.5"/>
<text text-anchor="start" x="8" y="-889.3" font-family="Times,serif" font-size="14.00">0x39770d20:</text>
<text text-anchor="start" x="8" y="-874.3" font-family="Times,serif" font-size="14.00"> v8 = *(IntToPtrCastExpr&lt;ptr&gt;(*(IntToPtrCastExpr&lt;ptr&gt;(165212))))</text>
<text text-anchor="start" x="8" y="-859.3" font-family="Times,serif" font-size="14.00"> g37 = v8</text>
<text text-anchor="start" x="8" y="-844.3" font-family="Times,serif" font-size="14.00"> g6 = True</text>
<text text-anchor="start" x="8" y="-829.3" font-family="Times,serif" font-size="14.00"> g9 = (v8 == 0)</text>
</g>
<!-- Node0x2cf0b060&#45;&gt;Node0x151ac1a0 -->
<g id="edge3" class="edge"><title>Node0x2cf0b060&#45;&gt;Node0x151ac1a0</title>
<path fill="none" stroke="black" d="M422.969,-956.253C400.29,-943.532 368.974,-925.966 339.749,-909.574"/>
<polygon fill="black" stroke="black" points="341.193,-906.37 330.759,-904.531 337.768,-912.476 341.193,-906.37"/>
<text text-anchor="middle" x="413.5" y="-926.8" font-family="Times,serif" font-size="14.00">v5 &gt; v6</text>
</g>
<!-- Node0x3e8ac6c0 -->
<g id="node5" class="node"><title>Node0x3e8ac6c0</title>
<polygon fill="none" stroke="black" points="233.5,-263.5 233.5,-406.5 717.5,-406.5 717.5,-263.5 233.5,-263.5"/>
<text text-anchor="start" x="241.5" y="-391.3" font-family="Times,serif" font-size="14.00">0x33427070:</text>
<text text-anchor="start" x="241.5" y="-376.3" font-family="Times,serif" font-size="14.00"> v9 = (v3 + v7)</text>
<text text-anchor="start" x="241.5" y="-361.3" font-family="Times,serif" font-size="14.00"> g37 = v9</text>
<text text-anchor="start" x="241.5" y="-346.3" font-family="Times,serif" font-size="14.00"> *(IntToPtrCastExpr&lt;ptr&gt;((g29 + 16))) = v9</text>
<text text-anchor="start" x="241.5" y="-331.3" font-family="Times,serif" font-size="14.00"> g29 = (g29 + g36)</text>
<text text-anchor="start" x="241.5" y="-316.3" font-family="Times,serif" font-size="14.00"> v10 = g34</text>
<text text-anchor="start" x="241.5" y="-301.3" font-family="Times,serif" font-size="14.00"> g32 = *(IntToPtrCastExpr&lt;ptr&gt;(v10))</text>
<text text-anchor="start" x="241.5" y="-286.3" font-family="Times,serif" font-size="14.00"> g34 = *(IntToPtrCastExpr&lt;ptr&gt;((v10 + 4)))</text>
<text text-anchor="start" x="241.5" y="-271.3" font-family="Times,serif" font-size="14.00"> IntToPtrCastExpr&lt;ptr&gt;(*(IntToPtrCastExpr&lt;ptr&gt;((v10 + 8))))()</text>
</g>
<!-- Node0x2cf0b060&#45;&gt;Node0x3e8ac6c0 -->
<g id="edge4" class="edge"><title>Node0x2cf0b060&#45;&gt;Node0x3e8ac6c0</title>
<path fill="none" stroke="black" d="M483.977,-956.238C510.344,-936.854 545.5,-903.587 545.5,-864 545.5,-864 545.5,-864 545.5,-530 545.5,-491.053 532.862,-450.178 518.327,-416.046"/>
<polygon fill="black" stroke="black" points="521.408,-414.357 514.185,-406.605 514.997,-417.169 521.408,-414.357"/>
<text text-anchor="middle" x="579.5" y="-715.8" font-family="Times,serif" font-size="14.00">v5 &lt;= v6</text>
</g>
<!-- Node0x2715b250 -->
<g id="node6" class="node"><title>Node0x2715b250</title>
<polygon fill="none" stroke="black" points="203.5,-745.5 203.5,-783.5 313.5,-783.5 313.5,-745.5 203.5,-745.5"/>
<text text-anchor="start" x="211.5" y="-768.3" font-family="Times,serif" font-size="14.00">0x7e41fe0:</text>
<text text-anchor="start" x="211.5" y="-753.3" font-family="Times,serif" font-size="14.00"> if (v8 == 0):</text>
</g>
<!-- Node0x151ac1a0&#45;&gt;Node0x2715b250 -->
<g id="edge5" class="edge"><title>Node0x151ac1a0&#45;&gt;Node0x2715b250</title>
<path fill="none" stroke="black" d="M258.5,-821.355C258.5,-812.083 258.5,-802.427 258.5,-793.803"/>
<polygon fill="black" stroke="black" points="262,-793.538 258.5,-783.538 255,-793.538 262,-793.538"/>
</g>
<!-- Node0x46be08e0 -->
<g id="node7" class="node"><title>Node0x46be08e0</title>
<polygon fill="none" stroke="black" points="425,-187.5 425,-225.5 526,-225.5 526,-187.5 425,-187.5"/>
<text text-anchor="start" x="433" y="-210.3" font-family="Times,serif" font-size="14.00">0x7e48360:</text>
<text text-anchor="start" x="433" y="-195.3" font-family="Times,serif" font-size="14.00"> if g9:</text>
</g>
<!-- Node0x3e8ac6c0&#45;&gt;Node0x46be08e0 -->
<g id="edge6" class="edge"><title>Node0x3e8ac6c0&#45;&gt;Node0x46be08e0</title>
<path fill="none" stroke="black" d="M475.5,-263.353C475.5,-253.594 475.5,-244.073 475.5,-235.737"/>
<polygon fill="black" stroke="black" points="479,-235.54 475.5,-225.54 472,-235.54 479,-235.54"/>
</g>
<!-- Node0x1dd00e00 -->
<g id="node8" class="node"><title>Node0x1dd00e00</title>
<polygon fill="none" stroke="black" points="190.5,-655.5 190.5,-693.5 290.5,-693.5 290.5,-655.5 190.5,-655.5"/>
<text text-anchor="start" x="198.5" y="-678.3" font-family="Times,serif" font-size="14.00">0x7e41e80:</text>
<text text-anchor="start" x="198.5" y="-663.3" font-family="Times,serif" font-size="14.00"> g29 = 0</text>
</g>
<!-- Node0x2715b250&#45;&gt;Node0x1dd00e00 -->
<g id="edge7" class="edge"><title>Node0x2715b250&#45;&gt;Node0x1dd00e00</title>
<path fill="none" stroke="black" d="M254.77,-745.266C252.309,-733.231 249.035,-717.225 246.244,-703.58"/>
<polygon fill="black" stroke="black" points="249.658,-702.806 244.225,-693.71 242.8,-704.209 249.658,-702.806"/>
<text text-anchor="middle" x="281.5" y="-715.8" font-family="Times,serif" font-size="14.00">v8 == 0</text>
</g>
<!-- Node0x151a8f40 -->
<g id="node9" class="node"><title>Node0x151a8f40</title>
<polygon fill="none" stroke="black" points="68,-444.5 68,-617.5 517,-617.5 517,-444.5 68,-444.5"/>
<text text-anchor="start" x="76" y="-602.3" font-family="Times,serif" font-size="14.00">0x7e42120:</text>
<text text-anchor="start" x="76" y="-587.3" font-family="Times,serif" font-size="14.00"> g32 = v4</text>
<text text-anchor="start" x="76" y="-572.3" font-family="Times,serif" font-size="14.00"> g34 = PtrToIntCastExpr&lt;int32&gt;(v1)</text>
<text text-anchor="start" x="76" y="-557.3" font-family="Times,serif" font-size="14.00"> IntToPtrCastExpr&lt;ptr&gt;(ExtCastExpr&lt;int32&gt;((v8 == 0)))()</text>
<text text-anchor="start" x="76" y="-542.3" font-family="Times,serif" font-size="14.00"> imported_function_ord_0()</text>
<text text-anchor="start" x="76" y="-527.3" font-family="Times,serif" font-size="14.00"> g29 = 0</text>
<text text-anchor="start" x="76" y="-512.3" font-family="Times,serif" font-size="14.00"> g32 = *(IntToPtrCastExpr&lt;ptr&gt;(g34))</text>
<text text-anchor="start" x="76" y="-497.3" font-family="Times,serif" font-size="14.00"> g34 = v1[&#39;1&#39;]</text>
<text text-anchor="start" x="76" y="-482.3" font-family="Times,serif" font-size="14.00"> IntToPtrCastExpr&lt;ptr&gt;(v1[&#39;2&#39;])()</text>
<text text-anchor="start" x="76" y="-467.3" font-family="Times,serif" font-size="14.00"> v7 = g30</text>
<text text-anchor="start" x="76" y="-452.3" font-family="Times,serif" font-size="14.00"> v3 = g36</text>
</g>
<!-- Node0x2715b250&#45;&gt;Node0x151a8f40 -->
<g id="edge8" class="edge"><title>Node0x2715b250&#45;&gt;Node0x151a8f40</title>
<path fill="none" stroke="black" d="M295.892,-745.395C302.57,-740.398 308.625,-734.295 312.5,-727 328.412,-697.038 328.899,-660.842 323.562,-627.81"/>
<polygon fill="black" stroke="black" points="326.952,-626.888 321.729,-617.67 320.063,-628.133 326.952,-626.888"/>
<text text-anchor="middle" x="354.5" y="-670.8" font-family="Times,serif" font-size="14.00">v8 != 0</text>
</g>
<!-- Node0x40416600 -->
<g id="node10" class="node"><title>Node0x40416600</title>
<polygon fill="none" stroke="black" points="284.5,-97.5 284.5,-135.5 472.5,-135.5 472.5,-97.5 284.5,-97.5"/>
<text text-anchor="start" x="292.5" y="-120.3" font-family="Times,serif" font-size="14.00">0x7e480f0:</text>
<text text-anchor="start" x="292.5" y="-105.3" font-family="Times,serif" font-size="14.00"> g29 = (g29 &amp; (g42 / 2))</text>
</g>
<!-- Node0x46be08e0&#45;&gt;Node0x40416600 -->
<g id="edge9" class="edge"><title>Node0x46be08e0&#45;&gt;Node0x40416600</title>
<path fill="none" stroke="black" d="M455.402,-187.266C441.225,-174.405 422.05,-157.009 406.394,-142.806"/>
<polygon fill="black" stroke="black" points="408.331,-139.837 398.573,-135.71 403.627,-145.022 408.331,-139.837"/>
<text text-anchor="middle" x="442" y="-157.8" font-family="Times,serif" font-size="14.00">g9</text>
</g>
<!-- Node0x46be56e0 -->
<g id="node11" class="node"><title>Node0x46be56e0</title>
<polygon fill="none" stroke="black" points="442.5,-23.5 442.5,-59.5 496.5,-59.5 496.5,-23.5 442.5,-23.5"/>
<text text-anchor="start" x="450.5" y="-37.8" font-family="Times,serif" font-size="14.00">exit:</text>
</g>
<!-- Node0x46be08e0&#45;&gt;Node0x46be56e0 -->
<g id="edge10" class="edge"><title>Node0x46be08e0&#45;&gt;Node0x46be56e0</title>
<path fill="none" stroke="black" d="M478.303,-187.406C481.229,-165.828 484.948,-128.696 481.5,-97 480.517,-87.9613 478.642,-78.2257 476.661,-69.5188"/>
<polygon fill="black" stroke="black" points="479.997,-68.4222 474.245,-59.5244 473.193,-70.0668 479.997,-68.4222"/>
<text text-anchor="middle" x="511" y="-112.8" font-family="Times,serif" font-size="14.00">not (g9)</text>
</g>
<!-- Node0x1dd00e00&#45;&gt;Node0x151a8f40 -->
<g id="edge11" class="edge"><title>Node0x1dd00e00&#45;&gt;Node0x151a8f40</title>
<path fill="none" stroke="black" d="M247.192,-655.291C250.056,-647.497 253.636,-637.755 257.521,-627.183"/>
<polygon fill="black" stroke="black" points="260.839,-628.3 261.004,-617.706 254.269,-625.885 260.839,-628.3"/>
</g>
<!-- Node0x151a8f40&#45;&gt;Node0x3e8ac6c0 -->
<g id="edge12" class="edge"><title>Node0x151a8f40&#45;&gt;Node0x3e8ac6c0</title>
<path fill="none" stroke="black" d="M373.299,-444.344C382.76,-434.314 392.376,-424.12 401.735,-414.199"/>
<polygon fill="black" stroke="black" points="404.518,-416.349 408.834,-406.673 399.426,-411.546 404.518,-416.349"/>
</g>
<!-- Node0x40416600&#45;&gt;Node0x46be56e0 -->
<g id="edge13" class="edge"><title>Node0x40416600&#45;&gt;Node0x46be56e0</title>
<path fill="none" stroke="black" d="M400.994,-97.4551C412.824,-87.9651 427.47,-76.2165 440.179,-66.0211"/>
<polygon fill="black" stroke="black" points="442.592,-68.5726 448.202,-59.585 438.212,-63.1123 442.592,-68.5726"/>
</g>
</g>
</svg>
