<?xml version="1.0" encoding="UTF-8" standalone="no"?>
<!DOCTYPE svg PUBLIC "-//W3C//DTD SVG 1.1//EN"
 "http://www.w3.org/Graphics/SVG/1.1/DTD/svg11.dtd">
<!-- Generated by graphviz version 2.38.0 (20140413.2041)
 -->
<!-- Title: Control&#45;flow graph for function &#39;function_aff8()&#39;. Pages: 1 -->
<svg width="512pt" height="865pt"
 viewBox="0.00 0.00 512.00 865.00" xmlns="http://www.w3.org/2000/svg" xmlns:xlink="http://www.w3.org/1999/xlink">
<g id="graph0" class="graph" transform="scale(1 1) rotate(0) translate(4 861)">
<title>Control&#45;flow graph for function &#39;function_aff8()&#39;.</title>
<polygon fill="white" stroke="none" points="-4,4 -4,-861 508,-861 508,4 -4,4"/>
<text text-anchor="middle" x="252" y="-7.8" font-family="Times,serif" font-size="14.00">Control&#45;flow graph for function &#39;function_aff8()&#39;.</text>
<!-- Node0x6bb9f40 -->
<g id="node1" class="node"><title>Node0x6bb9f40</title>
<polygon fill="none" stroke="black" points="227.5,-820.5 227.5,-856.5 286.5,-856.5 286.5,-820.5 227.5,-820.5"/>
<text text-anchor="start" x="235.5" y="-834.8" font-family="Times,serif" font-size="14.00">entry:</text>
</g>
<!-- Node0x3af13bb0 -->
<g id="node2" class="node"><title>Node0x3af13bb0</title>
<polygon fill="none" stroke="black" points="106.5,-594.5 106.5,-782.5 407.5,-782.5 407.5,-594.5 106.5,-594.5"/>
<text text-anchor="start" x="114.5" y="-767.3" font-family="Times,serif" font-size="14.00">0x47da6770:</text>
<text text-anchor="start" x="114.5" y="-752.3" font-family="Times,serif" font-size="14.00"> v1 = NULL</text>
<text text-anchor="start" x="114.5" y="-737.3" font-family="Times,serif" font-size="14.00"> v2 = g39</text>
<text text-anchor="start" x="114.5" y="-722.3" font-family="Times,serif" font-size="14.00"> v3 = g29</text>
<text text-anchor="start" x="114.5" y="-707.3" font-family="Times,serif" font-size="14.00"> v4 = IntToPtrCastExpr&lt;ptr&gt;((v3 + 4))</text>
<text text-anchor="start" x="114.5" y="-692.3" font-family="Times,serif" font-size="14.00"> v5 = *(IntToPtrCastExpr&lt;ptr&gt;(v3))</text>
<text text-anchor="start" x="114.5" y="-677.3" font-family="Times,serif" font-size="14.00"> g33 = v5</text>
<text text-anchor="start" x="114.5" y="-662.3" font-family="Times,serif" font-size="14.00"> v6 = (*(v4) &#45; v5)</text>
<text text-anchor="start" x="114.5" y="-647.3" font-family="Times,serif" font-size="14.00"> g37 = v6</text>
<text text-anchor="start" x="114.5" y="-632.3" font-family="Times,serif" font-size="14.00"> g8 = (((18 &#45; v6) &amp; v6) &lt; 0)</text>
<text text-anchor="start" x="114.5" y="-617.3" font-family="Times,serif" font-size="14.00"> g7 = (v6 &lt; 19)</text>
<text text-anchor="start" x="114.5" y="-602.3" font-family="Times,serif" font-size="14.00"> g9 = (v6 == 19)</text>
</g>
<!-- Node0x6bb9f40&#45;&gt;Node0x3af13bb0 -->
<g id="edge1" class="edge"><title>Node0x6bb9f40&#45;&gt;Node0x3af13bb0</title>
<path fill="none" stroke="black" d="M257,-820.233C257,-812.721 257,-803.26 257,-792.877"/>
<polygon fill="black" stroke="black" points="260.5,-792.674 257,-782.674 253.5,-792.675 260.5,-792.674"/>
</g>
<!-- Node0x3c9ec780 -->
<g id="node3" class="node"><title>Node0x3c9ec780</title>
<polygon fill="none" stroke="black" points="203.5,-503.5 203.5,-556.5 310.5,-556.5 310.5,-503.5 203.5,-503.5"/>
<text text-anchor="start" x="211.5" y="-541.3" font-family="Times,serif" font-size="14.00">0x72dda80:</text>
<text text-anchor="start" x="211.5" y="-526.3" font-family="Times,serif" font-size="14.00"> if (v6 &lt; 20):</text>
<text text-anchor="start" x="211.5" y="-511.3" font-family="Times,serif" font-size="14.00"> else:</text>
</g>
<!-- Node0x3af13bb0&#45;&gt;Node0x3c9ec780 -->
<g id="edge2" class="edge"><title>Node0x3af13bb0&#45;&gt;Node0x3c9ec780</title>
<path fill="none" stroke="black" d="M257,-594.203C257,-584.538 257,-575.191 257,-566.782"/>
<polygon fill="black" stroke="black" points="260.5,-566.68 257,-556.68 253.5,-566.68 260.5,-566.68"/>
</g>
<!-- Node0x3af149d0 -->
<g id="node4" class="node"><title>Node0x3af149d0</title>
<polygon fill="none" stroke="black" points="-2.84217e-14,-383.5 -2.84217e-14,-451.5 298,-451.5 298,-383.5 -2.84217e-14,-383.5"/>
<text text-anchor="start" x="8" y="-436.3" font-family="Times,serif" font-size="14.00">0x72dc970:</text>
<text text-anchor="start" x="8" y="-421.3" font-family="Times,serif" font-size="14.00"> g37 = 0</text>
<text text-anchor="start" x="8" y="-406.3" font-family="Times,serif" font-size="14.00"> *(v4) = 0</text>
<text text-anchor="start" x="8" y="-391.3" font-family="Times,serif" font-size="14.00"> *(IntToPtrCastExpr&lt;ptr&gt;(g29)) = g37</text>
</g>
<!-- Node0x3c9ec780&#45;&gt;Node0x3af149d0 -->
<g id="edge3" class="edge"><title>Node0x3c9ec780&#45;&gt;Node0x3af149d0</title>
<path fill="none" stroke="black" d="M231.951,-503.371C218.992,-490.112 202.875,-473.622 188.303,-458.712"/>
<polygon fill="black" stroke="black" points="190.787,-456.246 181.294,-451.541 185.781,-461.139 190.787,-456.246"/>
<text text-anchor="middle" x="241.5" y="-473.8" font-family="Times,serif" font-size="14.00">v6 &lt; 20</text>
</g>
<!-- Node0x3af14be0 -->
<g id="node5" class="node"><title>Node0x3af14be0</title>
<polygon fill="none" stroke="black" points="315.5,-398.5 315.5,-436.5 416.5,-436.5 416.5,-398.5 315.5,-398.5"/>
<text text-anchor="start" x="323.5" y="-421.3" font-family="Times,serif" font-size="14.00">0x72ddeb0:</text>
<text text-anchor="start" x="323.5" y="-406.3" font-family="Times,serif" font-size="14.00"> g39 = g36</text>
</g>
<!-- Node0x3c9ec780&#45;&gt;Node0x3af14be0 -->
<g id="edge4" class="edge"><title>Node0x3c9ec780&#45;&gt;Node0x3af14be0</title>
<path fill="none" stroke="black" d="M282.281,-503.371C299.89,-485.52 323.277,-461.811 340.856,-443.99"/>
<polygon fill="black" stroke="black" points="343.47,-446.324 348.001,-436.747 338.487,-441.408 343.47,-446.324"/>
<text text-anchor="middle" x="348.5" y="-473.8" font-family="Times,serif" font-size="14.00">v6 &gt;= 20</text>
</g>
<!-- Node0x2e11fe10 -->
<g id="node6" class="node"><title>Node0x2e11fe10</title>
<polygon fill="none" stroke="black" points="58,-97.5 58,-345.5 504,-345.5 504,-97.5 58,-97.5"/>
<text text-anchor="start" x="66" y="-330.3" font-family="Times,serif" font-size="14.00">0x72de320:</text>
<text text-anchor="start" x="66" y="-315.3" font-family="Times,serif" font-size="14.00"> g39 = v2</text>
<text text-anchor="start" x="66" y="-300.3" font-family="Times,serif" font-size="14.00"> g34 = PtrToIntCastExpr&lt;int32&gt;(v1)</text>
<text text-anchor="start" x="66" y="-285.3" font-family="Times,serif" font-size="14.00"> IntToPtrCastExpr&lt;ptr&gt;(ExtCastExpr&lt;int32&gt;((v6 &lt; 20)))()</text>
<text text-anchor="start" x="66" y="-270.3" font-family="Times,serif" font-size="14.00"> g29 = (8 * g30)</text>
<text text-anchor="start" x="66" y="-255.3" font-family="Times,serif" font-size="14.00"> g30 = g33</text>
<text text-anchor="start" x="66" y="-240.3" font-family="Times,serif" font-size="14.00"> function_afb8()</text>
<text text-anchor="start" x="66" y="-225.3" font-family="Times,serif" font-size="14.00"> g30 = g29</text>
<text text-anchor="start" x="66" y="-210.3" font-family="Times,serif" font-size="14.00"> g29 = g39</text>
<text text-anchor="start" x="66" y="-195.3" font-family="Times,serif" font-size="14.00"> function_afb8()</text>
<text text-anchor="start" x="66" y="-180.3" font-family="Times,serif" font-size="14.00"> *(IntToPtrCastExpr&lt;ptr&gt;(g38)) = g29</text>
<text text-anchor="start" x="66" y="-165.3" font-family="Times,serif" font-size="14.00"> g38 = *(IntToPtrCastExpr&lt;ptr&gt;(g34))</text>
<text text-anchor="start" x="66" y="-150.3" font-family="Times,serif" font-size="14.00"> g39 = v1[&#39;1&#39;]</text>
<text text-anchor="start" x="66" y="-135.3" font-family="Times,serif" font-size="14.00"> g32 = v1[&#39;2&#39;]</text>
<text text-anchor="start" x="66" y="-120.3" font-family="Times,serif" font-size="14.00"> g34 = v1[&#39;3&#39;]</text>
<text text-anchor="start" x="66" y="-105.3" font-family="Times,serif" font-size="14.00"> IntToPtrCastExpr&lt;ptr&gt;(v1[&#39;4&#39;])()</text>
</g>
<!-- Node0x3af149d0&#45;&gt;Node0x2e11fe10 -->
<g id="edge5" class="edge"><title>Node0x3af149d0&#45;&gt;Node0x2e11fe10</title>
<path fill="none" stroke="black" d="M171.692,-383.15C177.566,-374.516 184.26,-364.678 191.376,-354.219"/>
<polygon fill="black" stroke="black" points="194.435,-355.947 197.166,-345.71 188.647,-352.009 194.435,-355.947"/>
</g>
<!-- Node0x3af14be0&#45;&gt;Node0x2e11fe10 -->
<g id="edge6" class="edge"><title>Node0x3af14be0&#45;&gt;Node0x2e11fe10</title>
<path fill="none" stroke="black" d="M358.003,-398.249C353.156,-387.187 346.49,-371.971 339.091,-355.084"/>
<polygon fill="black" stroke="black" points="342.131,-353.302 334.912,-345.547 335.72,-356.111 342.131,-353.302"/>
</g>
<!-- Node0x44279170 -->
<g id="node7" class="node"><title>Node0x44279170</title>
<polygon fill="none" stroke="black" points="254,-23.5 254,-59.5 308,-59.5 308,-23.5 254,-23.5"/>
<text text-anchor="start" x="262" y="-37.8" font-family="Times,serif" font-size="14.00">exit:</text>
</g>
<!-- Node0x2e11fe10&#45;&gt;Node0x44279170 -->
<g id="edge7" class="edge"><title>Node0x2e11fe10&#45;&gt;Node0x44279170</title>
<path fill="none" stroke="black" d="M281,-97.3583C281,-87.3316 281,-77.9863 281,-69.9522"/>
<polygon fill="black" stroke="black" points="284.5,-69.8686 281,-59.8686 277.5,-69.8686 284.5,-69.8686"/>
</g>
</g>
</svg>
