<?xml version="1.0" encoding="UTF-8" standalone="no"?>
<!DOCTYPE svg PUBLIC "-//W3C//DTD SVG 1.1//EN"
 "http://www.w3.org/Graphics/SVG/1.1/DTD/svg11.dtd">
<!-- Generated by graphviz version 2.38.0 (20140413.2041)
 -->
<!-- Title: Control&#45;flow graph for function &#39;function_13000()&#39;. Pages: 1 -->
<svg width="509pt" height="261pt"
 viewBox="0.00 0.00 509.00 261.00" xmlns="http://www.w3.org/2000/svg" xmlns:xlink="http://www.w3.org/1999/xlink">
<g id="graph0" class="graph" transform="scale(1 1) rotate(0) translate(4 257)">
<title>Control&#45;flow graph for function &#39;function_13000()&#39;.</title>
<polygon fill="white" stroke="none" points="-4,4 -4,-257 505,-257 505,4 -4,4"/>
<text text-anchor="middle" x="250.5" y="-7.8" font-family="Times,serif" font-size="14.00">Control&#45;flow graph for function &#39;function_13000()&#39;.</text>
<!-- Node0x15917580 -->
<g id="node1" class="node"><title>Node0x15917580</title>
<polygon fill="none" stroke="black" points="221,-216.5 221,-252.5 280,-252.5 280,-216.5 221,-216.5"/>
<text text-anchor="start" x="229" y="-230.8" font-family="Times,serif" font-size="14.00">entry:</text>
</g>
<!-- Node0x3b6f0c40 -->
<g id="node2" class="node"><title>Node0x3b6f0c40</title>
<polygon fill="none" stroke="black" points="0,-96.5 0,-179.5 501,-179.5 501,-96.5 0,-96.5"/>
<text text-anchor="start" x="8" y="-164.3" font-family="Times,serif" font-size="14.00">0x2928c480:</text>
<text text-anchor="start" x="8" y="-149.3" font-family="Times,serif" font-size="14.00"> v1 = g29</text>
<text text-anchor="start" x="8" y="-134.3" font-family="Times,serif" font-size="14.00"> g37 = (v1 / 256)</text>
<text text-anchor="start" x="8" y="-119.3" font-family="Times,serif" font-size="14.00"> *(IntToPtrCastExpr&lt;ptr&gt;((g30 + 1))) = TruncCastExpr&lt;int8&gt;(v1)</text>
<text text-anchor="start" x="8" y="-104.3" font-family="Times,serif" font-size="14.00"> *(IntToPtrCastExpr&lt;ptr&gt;(g30)) = TruncCastExpr&lt;int8&gt;(g37)</text>
</g>
<!-- Node0x15917580&#45;&gt;Node0x3b6f0c40 -->
<g id="edge1" class="edge"><title>Node0x15917580&#45;&gt;Node0x3b6f0c40</title>
<path fill="none" stroke="black" d="M250.5,-216.167C250.5,-208.654 250.5,-199.427 250.5,-189.999"/>
<polygon fill="black" stroke="black" points="254,-189.762 250.5,-179.762 247,-189.762 254,-189.762"/>
</g>
<!-- Node0x1591b830 -->
<g id="node3" class="node"><title>Node0x1591b830</title>
<polygon fill="none" stroke="black" points="223.5,-23.5 223.5,-59.5 277.5,-59.5 277.5,-23.5 223.5,-23.5"/>
<text text-anchor="start" x="231.5" y="-37.8" font-family="Times,serif" font-size="14.00">exit:</text>
</g>
<!-- Node0x3b6f0c40&#45;&gt;Node0x1591b830 -->
<g id="edge2" class="edge"><title>Node0x3b6f0c40&#45;&gt;Node0x1591b830</title>
<path fill="none" stroke="black" d="M250.5,-96.3751C250.5,-87.4706 250.5,-78.246 250.5,-70"/>
<polygon fill="black" stroke="black" points="254,-69.8327 250.5,-59.8328 247,-69.8328 254,-69.8327"/>
</g>
</g>
</svg>
