<?xml version="1.0" encoding="UTF-8" standalone="no"?>
<!DOCTYPE svg PUBLIC "-//W3C//DTD SVG 1.1//EN"
 "http://www.w3.org/Graphics/SVG/1.1/DTD/svg11.dtd">
<!-- Generated by graphviz version 2.38.0 (20140413.2041)
 -->
<!-- Title: Control&#45;flow graph for function &#39;function_f2ac()&#39;. Pages: 1 -->
<svg width="483pt" height="366pt"
 viewBox="0.00 0.00 483.00 366.00" xmlns="http://www.w3.org/2000/svg" xmlns:xlink="http://www.w3.org/1999/xlink">
<g id="graph0" class="graph" transform="scale(1 1) rotate(0) translate(4 362)">
<title>Control&#45;flow graph for function &#39;function_f2ac()&#39;.</title>
<polygon fill="white" stroke="none" points="-4,4 -4,-362 479,-362 479,4 -4,4"/>
<text text-anchor="middle" x="237.5" y="-7.8" font-family="Times,serif" font-size="14.00">Control&#45;flow graph for function &#39;function_f2ac()&#39;.</text>
<!-- Node0x4777c500 -->
<g id="node1" class="node"><title>Node0x4777c500</title>
<polygon fill="none" stroke="black" points="208,-321.5 208,-357.5 267,-357.5 267,-321.5 208,-321.5"/>
<text text-anchor="start" x="216" y="-335.8" font-family="Times,serif" font-size="14.00">entry:</text>
</g>
<!-- Node0x3e4f34b0 -->
<g id="node2" class="node"><title>Node0x3e4f34b0</title>
<polygon fill="none" stroke="black" points="-2.84217e-14,-96.5 -2.84217e-14,-284.5 475,-284.5 475,-96.5 -2.84217e-14,-96.5"/>
<text text-anchor="start" x="8" y="-269.3" font-family="Times,serif" font-size="14.00">0x1e387bc0:</text>
<text text-anchor="start" x="8" y="-254.3" font-family="Times,serif" font-size="14.00"> v1 = *(IntToPtrCastExpr&lt;ptr&gt;((g29 + 4)))</text>
<text text-anchor="start" x="8" y="-239.3" font-family="Times,serif" font-size="14.00"> g37 = v1</text>
<text text-anchor="start" x="8" y="-224.3" font-family="Times,serif" font-size="14.00"> g29 = v1</text>
<text text-anchor="start" x="8" y="-209.3" font-family="Times,serif" font-size="14.00"> g35 = 62152</text>
<text text-anchor="start" x="8" y="-194.3" font-family="Times,serif" font-size="14.00"> IntToPtrCastExpr&lt;ptr&gt;(*(IntToPtrCastExpr&lt;ptr&gt;((v1 + 4))))()</text>
<text text-anchor="start" x="8" y="-179.3" font-family="Times,serif" font-size="14.00"> v2</text>
<text text-anchor="start" x="8" y="-164.3" font-family="Times,serif" font-size="14.00"> g32 = v2</text>
<text text-anchor="start" x="8" y="-149.3" font-family="Times,serif" font-size="14.00"> v3</text>
<text text-anchor="start" x="8" y="-134.3" font-family="Times,serif" font-size="14.00"> g34 = v3</text>
<text text-anchor="start" x="8" y="-119.3" font-family="Times,serif" font-size="14.00"> v4</text>
<text text-anchor="start" x="8" y="-104.3" font-family="Times,serif" font-size="14.00"> IntToPtrCastExpr&lt;ptr&gt;(v4)()</text>
</g>
<!-- Node0x4777c500&#45;&gt;Node0x3e4f34b0 -->
<g id="edge1" class="edge"><title>Node0x4777c500&#45;&gt;Node0x3e4f34b0</title>
<path fill="none" stroke="black" d="M237.5,-321.35C237.5,-314.079 237.5,-304.97 237.5,-294.967"/>
<polygon fill="black" stroke="black" points="241,-294.701 237.5,-284.702 234,-294.702 241,-294.701"/>
</g>
<!-- Node0x3881bf30 -->
<g id="node3" class="node"><title>Node0x3881bf30</title>
<polygon fill="none" stroke="black" points="210.5,-23.5 210.5,-59.5 264.5,-59.5 264.5,-23.5 210.5,-23.5"/>
<text text-anchor="start" x="218.5" y="-37.8" font-family="Times,serif" font-size="14.00">exit:</text>
</g>
<!-- Node0x3e4f34b0&#45;&gt;Node0x3881bf30 -->
<g id="edge2" class="edge"><title>Node0x3e4f34b0&#45;&gt;Node0x3881bf30</title>
<path fill="none" stroke="black" d="M237.5,-96.4027C237.5,-86.9531 237.5,-77.9697 237.5,-70.142"/>
<polygon fill="black" stroke="black" points="241,-69.9174 237.5,-59.9174 234,-69.9174 241,-69.9174"/>
</g>
</g>
</svg>
