<?xml version="1.0" encoding="UTF-8" standalone="no"?>
<!DOCTYPE svg PUBLIC "-//W3C//DTD SVG 1.1//EN"
 "http://www.w3.org/Graphics/SVG/1.1/DTD/svg11.dtd">
<!-- Generated by graphviz version 2.38.0 (20140413.2041)
 -->
<!-- Title: Control&#45;flow graph for function &#39;function_24124()&#39;. Pages: 1 -->
<svg width="2112pt" height="2300pt"
 viewBox="0.00 0.00 2111.50 2300.00" xmlns="http://www.w3.org/2000/svg" xmlns:xlink="http://www.w3.org/1999/xlink">
<g id="graph0" class="graph" transform="scale(1 1) rotate(0) translate(4 2296)">
<title>Control&#45;flow graph for function &#39;function_24124()&#39;.</title>
<polygon fill="white" stroke="none" points="-4,4 -4,-2296 2107.5,-2296 2107.5,4 -4,4"/>
<text text-anchor="middle" x="1051.75" y="-7.8" font-family="Times,serif" font-size="14.00">Control&#45;flow graph for function &#39;function_24124()&#39;.</text>
<!-- Node0x275247e0 -->
<g id="node1" class="node"><title>Node0x275247e0</title>
<polygon fill="none" stroke="black" points="659,-2255.5 659,-2291.5 718,-2291.5 718,-2255.5 659,-2255.5"/>
<text text-anchor="start" x="667" y="-2269.8" font-family="Times,serif" font-size="14.00">entry:</text>
</g>
<!-- Node0x27524ed0 -->
<g id="node2" class="node"><title>Node0x27524ed0</title>
<polygon fill="none" stroke="black" points="547.5,-1864.5 547.5,-2217.5 829.5,-2217.5 829.5,-1864.5 547.5,-1864.5"/>
<text text-anchor="start" x="555.5" y="-2202.3" font-family="Times,serif" font-size="14.00">0x424b0280:</text>
<text text-anchor="start" x="555.5" y="-2187.3" font-family="Times,serif" font-size="14.00"> v1 = g30</text>
<text text-anchor="start" x="555.5" y="-2172.3" font-family="Times,serif" font-size="14.00"> v2 = (32 &#45; v1)</text>
<text text-anchor="start" x="555.5" y="-2157.3" font-family="Times,serif" font-size="14.00"> v3 = g40</text>
<text text-anchor="start" x="555.5" y="-2142.3" font-family="Times,serif" font-size="14.00"> v4 = (32 if ((v2 % 32) == 0) else v2)</text>
<text text-anchor="start" x="555.5" y="-2127.3" font-family="Times,serif" font-size="14.00"> v5 = ((g32 &gt;&gt; v4) | (v3 &lt;&lt; v1))</text>
<text text-anchor="start" x="555.5" y="-2112.3" font-family="Times,serif" font-size="14.00"> v6 = (g39 &lt;&lt; v1)</text>
<text text-anchor="start" x="555.5" y="-2097.3" font-family="Times,serif" font-size="14.00"> g39 = v6</text>
<text text-anchor="start" x="555.5" y="-2082.3" font-family="Times,serif" font-size="14.00"> v7 = (v6 / 65536)</text>
<text text-anchor="start" x="555.5" y="-2067.3" font-family="Times,serif" font-size="14.00"> g41 = v7</text>
<text text-anchor="start" x="555.5" y="-2052.3" font-family="Times,serif" font-size="14.00"> v8 = (v6 % 65536)</text>
<text text-anchor="start" x="555.5" y="-2037.3" font-family="Times,serif" font-size="14.00"> g43 = v8</text>
<text text-anchor="start" x="555.5" y="-2022.3" font-family="Times,serif" font-size="14.00"> g30 = v7</text>
<text text-anchor="start" x="555.5" y="-2007.3" font-family="Times,serif" font-size="14.00"> g40 = (((v3 &gt;&gt; v4) / v7) * v8)</text>
<text text-anchor="start" x="555.5" y="-1992.3" font-family="Times,serif" font-size="14.00"> unknown_228ca()</text>
<text text-anchor="start" x="555.5" y="-1977.3" font-family="Times,serif" font-size="14.00"> v9 = ((v5 / 65536) | (65536 * g30))</text>
<text text-anchor="start" x="555.5" y="-1962.3" font-family="Times,serif" font-size="14.00"> v10 = g40</text>
<text text-anchor="start" x="555.5" y="-1947.3" font-family="Times,serif" font-size="14.00"> v11</text>
<text text-anchor="start" x="555.5" y="-1932.3" font-family="Times,serif" font-size="14.00"> v12</text>
<text text-anchor="start" x="555.5" y="-1917.3" font-family="Times,serif" font-size="14.00"> v13</text>
<text text-anchor="start" x="555.5" y="-1902.3" font-family="Times,serif" font-size="14.00"> v14</text>
<text text-anchor="start" x="555.5" y="-1887.3" font-family="Times,serif" font-size="14.00"> v15</text>
<text text-anchor="start" x="555.5" y="-1872.3" font-family="Times,serif" font-size="14.00"> v16</text>
</g>
<!-- Node0x275247e0&#45;&gt;Node0x27524ed0 -->
<g id="edge1" class="edge"><title>Node0x275247e0&#45;&gt;Node0x27524ed0</title>
<path fill="none" stroke="black" d="M688.5,-2255.18C688.5,-2247.8 688.5,-2238.42 688.5,-2227.73"/>
<polygon fill="black" stroke="black" points="692,-2227.55 688.5,-2217.55 685,-2227.55 692,-2227.55"/>
</g>
<!-- Node0x27524450 -->
<g id="node3" class="node"><title>Node0x27524450</title>
<polygon fill="none" stroke="black" points="522.5,-1788.5 522.5,-1826.5 854.5,-1826.5 854.5,-1788.5 522.5,-1788.5"/>
<text text-anchor="start" x="530.5" y="-1811.3" font-family="Times,serif" font-size="14.00">0xa53c490:</text>
<text text-anchor="start" x="530.5" y="-1796.3" font-family="Times,serif" font-size="14.00"> if ((v10 == v9) or (((&#45;2 &#45; v9) + v10) &gt; v10)):</text>
</g>
<!-- Node0x27524ed0&#45;&gt;Node0x27524450 -->
<g id="edge2" class="edge"><title>Node0x27524ed0&#45;&gt;Node0x27524450</title>
<path fill="none" stroke="black" d="M688.5,-1864.24C688.5,-1854.06 688.5,-1844.73 688.5,-1836.74"/>
<polygon fill="black" stroke="black" points="692,-1836.72 688.5,-1826.72 685,-1836.72 692,-1836.72"/>
</g>
<!-- Node0x275293b0 -->
<g id="node4" class="node"><title>Node0x275293b0</title>
<polygon fill="none" stroke="black" points="381,-1551.5 381,-1664.5 668,-1664.5 668,-1551.5 381,-1551.5"/>
<text text-anchor="start" x="389" y="-1649.3" font-family="Times,serif" font-size="14.00">0xa53c950:</text>
<text text-anchor="start" x="389" y="-1634.3" font-family="Times,serif" font-size="14.00"> v14 = g41</text>
<text text-anchor="start" x="389" y="-1619.3" font-family="Times,serif" font-size="14.00"> g30 = v14</text>
<text text-anchor="start" x="389" y="-1604.3" font-family="Times,serif" font-size="14.00"> g40 = (g43 * ((v9 &#45; v10) / v14))</text>
<text text-anchor="start" x="389" y="-1589.3" font-family="Times,serif" font-size="14.00"> unknown_228ca()</text>
<text text-anchor="start" x="389" y="-1574.3" font-family="Times,serif" font-size="14.00"> v16 = ((65536 * g30) | (v5 % 65536))</text>
<text text-anchor="start" x="389" y="-1559.3" font-family="Times,serif" font-size="14.00"> v11 = g40</text>
</g>
<!-- Node0x27524450&#45;&gt;Node0x275293b0 -->
<g id="edge3" class="edge"><title>Node0x27524450&#45;&gt;Node0x275293b0</title>
<path fill="none" stroke="black" d="M568.267,-1788.4C550.809,-1783.5 536.642,-1777.43 530.5,-1770 509.039,-1744.02 506.447,-1706.85 509.718,-1674.76"/>
<polygon fill="black" stroke="black" points="513.227,-1674.89 510.969,-1664.54 506.279,-1674.04 513.227,-1674.89"/>
<text text-anchor="middle" x="671.5" y="-1758.8" font-family="Times,serif" font-size="14.00">(v10 == v9) or (((&#45;2 &#45; v9) + v10) &gt; v10)</text>
</g>
<!-- Node0x27526380 -->
<g id="node5" class="node"><title>Node0x27526380</title>
<polygon fill="none" stroke="black" points="910,-1683.5 910,-1736.5 1053,-1736.5 1053,-1683.5 910,-1683.5"/>
<text text-anchor="start" x="918" y="-1721.3" font-family="Times,serif" font-size="14.00">0x27e55d70:</text>
<text text-anchor="start" x="918" y="-1706.3" font-family="Times,serif" font-size="14.00"> v17 = g39</text>
<text text-anchor="start" x="918" y="-1691.3" font-family="Times,serif" font-size="14.00"> v18 = (v17 + v9)</text>
</g>
<!-- Node0x27524450&#45;&gt;Node0x27526380 -->
<g id="edge4" class="edge"><title>Node0x27524450&#45;&gt;Node0x27526380</title>
<path fill="none" stroke="black" d="M754.854,-1788.47C774.758,-1782.83 796.588,-1776.39 816.5,-1770 845.132,-1760.81 876.253,-1749.92 903.671,-1740.01"/>
<polygon fill="black" stroke="black" points="904.998,-1743.26 913.205,-1736.56 902.611,-1736.68 904.998,-1743.26"/>
<text text-anchor="middle" x="1008" y="-1758.8" font-family="Times,serif" font-size="14.00">(v10 != v9) and (((&#45;2 &#45; v9) + v10) &lt;= v10)</text>
</g>
<!-- Node0x27529920 -->
<g id="node6" class="node"><title>Node0x27529920</title>
<polygon fill="none" stroke="black" points="213.5,-847 213.5,-885 563.5,-885 563.5,-847 213.5,-847"/>
<text text-anchor="start" x="221.5" y="-869.8" font-family="Times,serif" font-size="14.00">0x7c0cd90:</text>
<text text-anchor="start" x="221.5" y="-854.8" font-family="Times,serif" font-size="14.00"> if ((v11 == v16) or (((&#45;2 &#45; v16) + v11) &gt; v11)):</text>
</g>
<!-- Node0x275293b0&#45;&gt;Node0x27529920 -->
<g id="edge5" class="edge"><title>Node0x275293b0&#45;&gt;Node0x27529920</title>
<path fill="none" stroke="black" d="M522.738,-1551.48C522.085,-1526.43 521.5,-1496.48 521.5,-1469.5 521.5,-1469.5 521.5,-1469.5 521.5,-1000 521.5,-950.119 474.146,-912.411 435.95,-890.11"/>
<polygon fill="black" stroke="black" points="437.399,-886.908 426.969,-885.045 433.96,-893.006 437.399,-886.908"/>
</g>
<!-- Node0x275279a0 -->
<g id="node7" class="node"><title>Node0x275279a0</title>
<polygon fill="none" stroke="black" points="943.5,-1494.5 943.5,-1532.5 1067.5,-1532.5 1067.5,-1494.5 943.5,-1494.5"/>
<text text-anchor="start" x="951.5" y="-1517.3" font-family="Times,serif" font-size="14.00">0xa530520:</text>
<text text-anchor="start" x="951.5" y="-1502.3" font-family="Times,serif" font-size="14.00"> if (v17 &gt; v18):</text>
</g>
<!-- Node0x27526380&#45;&gt;Node0x275279a0 -->
<g id="edge6" class="edge"><title>Node0x27526380&#45;&gt;Node0x275279a0</title>
<path fill="none" stroke="black" d="M984.687,-1683.17C989.178,-1646.77 997.34,-1580.63 1002,-1542.89"/>
<polygon fill="black" stroke="black" points="1005.52,-1542.95 1003.27,-1532.6 998.568,-1542.1 1005.52,-1542.95"/>
</g>
<!-- Node0x2752c260 -->
<g id="node8" class="node"><title>Node0x2752c260</title>
<polygon fill="none" stroke="black" points="0,-608.5 0,-691.5 167,-691.5 167,-608.5 0,-608.5"/>
<text text-anchor="start" x="8" y="-676.3" font-family="Times,serif" font-size="14.00">0x7c16c50:</text>
<text text-anchor="start" x="8" y="-661.3" font-family="Times,serif" font-size="14.00"> g32 = (g32 &lt;&lt; g31)</text>
<text text-anchor="start" x="8" y="-646.3" font-family="Times,serif" font-size="14.00"> g40 = (v16 &#45; v11)</text>
<text text-anchor="start" x="8" y="-631.3" font-family="Times,serif" font-size="14.00"> function_23f8e()</text>
<text text-anchor="start" x="8" y="-616.3" font-family="Times,serif" font-size="14.00"> return</text>
</g>
<!-- Node0x27529920&#45;&gt;Node0x2752c260 -->
<g id="edge7" class="edge"><title>Node0x27529920&#45;&gt;Node0x2752c260</title>
<path fill="none" stroke="black" d="M213.099,-858.96C156.04,-853.041 102.668,-841.862 84.5,-821 56.5954,-788.957 59.7596,-739.191 67.8736,-701.769"/>
<polygon fill="black" stroke="black" points="71.3906,-702.102 70.2717,-691.566 64.5763,-700.5 71.3906,-702.102"/>
<text text-anchor="middle" x="234.5" y="-797.8" font-family="Times,serif" font-size="14.00">(v11 == v16) or (((&#45;2 &#45; v16) + v11) &gt; v11)</text>
</g>
<!-- Node0x27529e80 -->
<g id="node9" class="node"><title>Node0x27529e80</title>
<polygon fill="none" stroke="black" points="312.5,-710.5 312.5,-763.5 464.5,-763.5 464.5,-710.5 312.5,-710.5"/>
<text text-anchor="start" x="320.5" y="-748.3" font-family="Times,serif" font-size="14.00">0x7c0d0d0:</text>
<text text-anchor="start" x="320.5" y="-733.3" font-family="Times,serif" font-size="14.00"> v12 = g39</text>
<text text-anchor="start" x="320.5" y="-718.3" font-family="Times,serif" font-size="14.00"> v15 = (v12 + v16)</text>
</g>
<!-- Node0x27529920&#45;&gt;Node0x27529e80 -->
<g id="edge8" class="edge"><title>Node0x27529920&#45;&gt;Node0x27529e80</title>
<path fill="none" stroke="black" d="M388.5,-846.804C388.5,-827.805 388.5,-797.515 388.5,-773.714"/>
<polygon fill="black" stroke="black" points="392,-773.631 388.5,-763.631 385,-773.631 392,-773.631"/>
<text text-anchor="middle" x="547" y="-797.8" font-family="Times,serif" font-size="14.00">(v11 != v16) and (((&#45;2 &#45; v16) + v11) &lt;= v11)</text>
</g>
<!-- Node0x2752b060 -->
<g id="node10" class="node"><title>Node0x2752b060</title>
<polygon fill="none" stroke="black" points="862,-1329.5 862,-1442.5 1149,-1442.5 1149,-1329.5 862,-1329.5"/>
<text text-anchor="start" x="870" y="-1427.3" font-family="Times,serif" font-size="14.00">0xa530b50:</text>
<text text-anchor="start" x="870" y="-1412.3" font-family="Times,serif" font-size="14.00"> v14 = g41</text>
<text text-anchor="start" x="870" y="-1397.3" font-family="Times,serif" font-size="14.00"> g30 = v14</text>
<text text-anchor="start" x="870" y="-1382.3" font-family="Times,serif" font-size="14.00"> g40 = (g43 * ((v18 &#45; v10) / v14))</text>
<text text-anchor="start" x="870" y="-1367.3" font-family="Times,serif" font-size="14.00"> unknown_228ca()</text>
<text text-anchor="start" x="870" y="-1352.3" font-family="Times,serif" font-size="14.00"> v16 = ((65536 * g30) | (v5 % 65536))</text>
<text text-anchor="start" x="870" y="-1337.3" font-family="Times,serif" font-size="14.00"> v11 = g40</text>
</g>
<!-- Node0x275279a0&#45;&gt;Node0x2752b060 -->
<g id="edge9" class="edge"><title>Node0x275279a0&#45;&gt;Node0x2752b060</title>
<path fill="none" stroke="black" d="M1005.5,-1494.25C1005.5,-1483.04 1005.5,-1467.93 1005.5,-1452.59"/>
<polygon fill="black" stroke="black" points="1009,-1452.52 1005.5,-1442.52 1002,-1452.52 1009,-1452.52"/>
<text text-anchor="middle" x="1042.5" y="-1464.8" font-family="Times,serif" font-size="14.00">v17 &gt; v18</text>
</g>
<!-- Node0x27527e30 -->
<g id="node11" class="node"><title>Node0x27527e30</title>
<polygon fill="none" stroke="black" points="1247.5,-1367 1247.5,-1405 1357.5,-1405 1357.5,-1367 1247.5,-1367"/>
<text text-anchor="start" x="1255.5" y="-1389.8" font-family="Times,serif" font-size="14.00">0x451b0e40:</text>
<text text-anchor="start" x="1255.5" y="-1374.8" font-family="Times,serif" font-size="14.00"> v19</text>
</g>
<!-- Node0x275279a0&#45;&gt;Node0x27527e30 -->
<g id="edge10" class="edge"><title>Node0x275279a0&#45;&gt;Node0x27527e30</title>
<path fill="none" stroke="black" d="M1048.37,-1494.39C1101.78,-1471.82 1192.99,-1433.27 1250.39,-1409.02"/>
<polygon fill="black" stroke="black" points="1251.79,-1412.23 1259.64,-1405.11 1249.07,-1405.78 1251.79,-1412.23"/>
<text text-anchor="middle" x="1162.5" y="-1464.8" font-family="Times,serif" font-size="14.00">v17 &lt;= v18</text>
</g>
<!-- Node0x27525e80 -->
<g id="node12" class="node"><title>Node0x27525e80</title>
<polygon fill="none" stroke="black" points="471.5,-23.5 471.5,-59.5 525.5,-59.5 525.5,-23.5 471.5,-23.5"/>
<text text-anchor="start" x="479.5" y="-37.8" font-family="Times,serif" font-size="14.00">exit:</text>
</g>
<!-- Node0x2752c260&#45;&gt;Node0x27525e80 -->
<g id="edge11" class="edge"><title>Node0x2752c260&#45;&gt;Node0x27525e80</title>
<path fill="none" stroke="black" d="M108.997,-608.271C128.653,-572.952 152.5,-519.746 152.5,-469.5 152.5,-469.5 152.5,-469.5 152.5,-138 152.5,-74.4612 372.054,-51.5512 461.374,-44.8598"/>
<polygon fill="black" stroke="black" points="461.628,-48.3507 471.35,-44.1398 461.124,-41.3689 461.628,-48.3507"/>
</g>
<!-- Node0x27529f80 -->
<g id="node13" class="node"><title>Node0x27529f80</title>
<polygon fill="none" stroke="black" points="326.5,-529 326.5,-567 450.5,-567 450.5,-529 326.5,-529"/>
<text text-anchor="start" x="334.5" y="-551.8" font-family="Times,serif" font-size="14.00">0x7c141c0:</text>
<text text-anchor="start" x="334.5" y="-536.8" font-family="Times,serif" font-size="14.00"> if (v12 &gt; v15):</text>
</g>
<!-- Node0x27529e80&#45;&gt;Node0x27529f80 -->
<g id="edge12" class="edge"><title>Node0x27529e80&#45;&gt;Node0x27529f80</title>
<path fill="none" stroke="black" d="M388.5,-710.391C388.5,-675.581 388.5,-613.532 388.5,-577.354"/>
<polygon fill="black" stroke="black" points="392,-577.015 388.5,-567.015 385,-577.015 392,-577.015"/>
</g>
<!-- Node0x2752b3a0 -->
<g id="node14" class="node"><title>Node0x2752b3a0</title>
<polygon fill="none" stroke="black" points="830.5,-1238.5 830.5,-1291.5 1180.5,-1291.5 1180.5,-1238.5 830.5,-1238.5"/>
<text text-anchor="start" x="838.5" y="-1276.3" font-family="Times,serif" font-size="14.00">0xa5348b0:</text>
<text text-anchor="start" x="838.5" y="-1261.3" font-family="Times,serif" font-size="14.00"> if ((v11 == v16) or (((&#45;2 &#45; v16) + v11) &gt; v11)):</text>
<text text-anchor="start" x="838.5" y="-1246.3" font-family="Times,serif" font-size="14.00"> else:</text>
</g>
<!-- Node0x2752b060&#45;&gt;Node0x2752b3a0 -->
<g id="edge13" class="edge"><title>Node0x2752b060&#45;&gt;Node0x2752b3a0</title>
<path fill="none" stroke="black" d="M1005.5,-1329.33C1005.5,-1319.96 1005.5,-1310.46 1005.5,-1301.76"/>
<polygon fill="black" stroke="black" points="1009,-1301.62 1005.5,-1291.62 1002,-1301.62 1009,-1301.62"/>
</g>
<!-- Node0x27527ef0 -->
<g id="node15" class="node"><title>Node0x27527ef0</title>
<polygon fill="none" stroke="black" points="1200,-1238.5 1200,-1291.5 1567,-1291.5 1567,-1238.5 1200,-1238.5"/>
<text text-anchor="start" x="1208" y="-1276.3" font-family="Times,serif" font-size="14.00">0xa522550:</text>
<text text-anchor="start" x="1208" y="-1261.3" font-family="Times,serif" font-size="14.00"> if ((v10 != v18) and (((&#45;2 &#45; v18) + v10) &lt;= v10)):</text>
<text text-anchor="start" x="1208" y="-1246.3" font-family="Times,serif" font-size="14.00"> else:</text>
</g>
<!-- Node0x27527e30&#45;&gt;Node0x27527ef0 -->
<g id="edge14" class="edge"><title>Node0x27527e30&#45;&gt;Node0x27527ef0</title>
<path fill="none" stroke="black" d="M1314.8,-1366.93C1326.84,-1349.25 1345.46,-1321.88 1360.29,-1300.1"/>
<polygon fill="black" stroke="black" points="1363.23,-1302 1365.96,-1291.76 1357.44,-1298.06 1363.23,-1302"/>
</g>
<!-- Node0x2752c5d0 -->
<g id="node16" class="node"><title>Node0x2752c5d0</title>
<polygon fill="none" stroke="black" points="185,-275.5 185,-358.5 352,-358.5 352,-275.5 185,-275.5"/>
<text text-anchor="start" x="193" y="-343.3" font-family="Times,serif" font-size="14.00">0x7c14a10:</text>
<text text-anchor="start" x="193" y="-328.3" font-family="Times,serif" font-size="14.00"> g32 = (g32 &lt;&lt; g31)</text>
<text text-anchor="start" x="193" y="-313.3" font-family="Times,serif" font-size="14.00"> g40 = (v15 &#45; v11)</text>
<text text-anchor="start" x="193" y="-298.3" font-family="Times,serif" font-size="14.00"> function_23f8e()</text>
<text text-anchor="start" x="193" y="-283.3" font-family="Times,serif" font-size="14.00"> return</text>
</g>
<!-- Node0x27529f80&#45;&gt;Node0x2752c5d0 -->
<g id="edge15" class="edge"><title>Node0x27529f80&#45;&gt;Node0x2752c5d0</title>
<path fill="none" stroke="black" d="M366.85,-528.929C343.285,-507.954 306.44,-471.077 287.5,-431 278.374,-411.69 273.561,-388.702 271.048,-368.517"/>
<polygon fill="black" stroke="black" points="274.526,-368.119 269.962,-358.558 267.567,-368.879 274.526,-368.119"/>
<text text-anchor="middle" x="363.5" y="-464.8" font-family="Times,serif" font-size="14.00">v12 &gt; v15</text>
</g>
<!-- Node0x2752a640 -->
<g id="node17" class="node"><title>Node0x2752a640</title>
<polygon fill="none" stroke="black" points="297,-377.5 297,-430.5 664,-430.5 664,-377.5 297,-377.5"/>
<text text-anchor="start" x="305" y="-415.3" font-family="Times,serif" font-size="14.00">0x7c11a90:</text>
<text text-anchor="start" x="305" y="-400.3" font-family="Times,serif" font-size="14.00"> if ((v11 != v15) and (((&#45;2 &#45; v15) + v11) &lt;= v11)):</text>
<text text-anchor="start" x="305" y="-385.3" font-family="Times,serif" font-size="14.00"> else:</text>
</g>
<!-- Node0x27529f80&#45;&gt;Node0x2752a640 -->
<g id="edge16" class="edge"><title>Node0x27529f80&#45;&gt;Node0x2752a640</title>
<path fill="none" stroke="black" d="M400.339,-528.727C414.922,-506.219 439.997,-467.515 458.227,-439.378"/>
<polygon fill="black" stroke="black" points="461.383,-440.943 463.883,-430.648 455.508,-437.137 461.383,-440.943"/>
<text text-anchor="middle" x="494.5" y="-464.8" font-family="Times,serif" font-size="14.00">v12 &lt;= v15</text>
</g>
<!-- Node0x2752ca70 -->
<g id="node18" class="node"><title>Node0x2752ca70</title>
<polygon fill="none" stroke="black" points="670,-1076.5 670,-1114.5 771,-1114.5 771,-1076.5 670,-1076.5"/>
<text text-anchor="start" x="678" y="-1099.3" font-family="Times,serif" font-size="14.00">0xa534460:</text>
<text text-anchor="start" x="678" y="-1084.3" font-family="Times,serif" font-size="14.00"> v13 = v16</text>
</g>
<!-- Node0x2752b3a0&#45;&gt;Node0x2752ca70 -->
<g id="edge17" class="edge"><title>Node0x2752b3a0&#45;&gt;Node0x2752ca70</title>
<path fill="none" stroke="black" d="M830.303,-1254.53C782.737,-1248.16 740.035,-1237.57 724.5,-1220 701.696,-1194.2 705.913,-1152.21 712.233,-1124.47"/>
<polygon fill="black" stroke="black" points="715.671,-1125.15 714.707,-1114.6 708.881,-1123.45 715.671,-1125.15"/>
<text text-anchor="middle" x="874.5" y="-1208.8" font-family="Times,serif" font-size="14.00">(v11 == v16) or (((&#45;2 &#45; v16) + v11) &gt; v11)</text>
</g>
<!-- Node0x2430b100 -->
<g id="node19" class="node"><title>Node0x2430b100</title>
<polygon fill="none" stroke="black" points="979.5,-1133.5 979.5,-1186.5 1131.5,-1186.5 1131.5,-1133.5 979.5,-1133.5"/>
<text text-anchor="start" x="987.5" y="-1171.3" font-family="Times,serif" font-size="14.00">0xa534bf0:</text>
<text text-anchor="start" x="987.5" y="-1156.3" font-family="Times,serif" font-size="14.00"> v12 = g39</text>
<text text-anchor="start" x="987.5" y="-1141.3" font-family="Times,serif" font-size="14.00"> v15 = (v12 + v16)</text>
</g>
<!-- Node0x2752b3a0&#45;&gt;Node0x2430b100 -->
<g id="edge18" class="edge"><title>Node0x2752b3a0&#45;&gt;Node0x2430b100</title>
<path fill="none" stroke="black" d="M1017.99,-1238.27C1024.19,-1225.49 1031.78,-1209.86 1038.51,-1196"/>
<polygon fill="black" stroke="black" points="1041.78,-1197.28 1043,-1186.75 1035.48,-1194.22 1041.78,-1197.28"/>
<text text-anchor="middle" x="1192" y="-1208.8" font-family="Times,serif" font-size="14.00">(v11 != v16) and (((&#45;2 &#45; v16) + v11) &lt;= v11)</text>
</g>
<!-- Node0x2752bd30 -->
<g id="node20" class="node"><title>Node0x2752bd30</title>
<polygon fill="none" stroke="black" points="1405.5,-1141 1405.5,-1179 1557.5,-1179 1557.5,-1141 1405.5,-1141"/>
<text text-anchor="start" x="1413.5" y="-1163.8" font-family="Times,serif" font-size="14.00">0xa522180:</text>
<text text-anchor="start" x="1413.5" y="-1148.8" font-family="Times,serif" font-size="14.00"> v19 = (v18 + v17)</text>
</g>
<!-- Node0x27527ef0&#45;&gt;Node0x2752bd30 -->
<g id="edge19" class="edge"><title>Node0x27527ef0&#45;&gt;Node0x2752bd30</title>
<path fill="none" stroke="black" d="M1378.14,-1238.4C1377.21,-1227.31 1378.15,-1214.68 1384.5,-1205 1390.06,-1196.54 1397.67,-1189.68 1406.21,-1184.13"/>
<polygon fill="black" stroke="black" points="1408.14,-1187.06 1415.02,-1179.01 1404.62,-1181.01 1408.14,-1187.06"/>
<text text-anchor="middle" x="1543" y="-1208.8" font-family="Times,serif" font-size="14.00">(v10 != v18) and (((&#45;2 &#45; v18) + v10) &lt;= v10)</text>
</g>
<!-- Node0x2752be80 -->
<g id="node21" class="node"><title>Node0x2752be80</title>
<polygon fill="none" stroke="black" points="1621,-1141 1621,-1179 1722,-1179 1722,-1141 1621,-1141"/>
<text text-anchor="start" x="1629" y="-1163.8" font-family="Times,serif" font-size="14.00">0xa5226b0:</text>
<text text-anchor="start" x="1629" y="-1148.8" font-family="Times,serif" font-size="14.00"> v19 = v18</text>
</g>
<!-- Node0x27527ef0&#45;&gt;Node0x2752be80 -->
<g id="edge20" class="edge"><title>Node0x27527ef0&#45;&gt;Node0x2752be80</title>
<path fill="none" stroke="black" d="M1567.42,-1258.91C1626.95,-1253.1 1682.55,-1241.75 1701.5,-1220 1709.86,-1210.4 1705.37,-1198.07 1697.58,-1187.16"/>
<polygon fill="black" stroke="black" points="1700.14,-1184.75 1691.15,-1179.16 1694.69,-1189.14 1700.14,-1184.75"/>
<text text-anchor="middle" x="1856.5" y="-1208.8" font-family="Times,serif" font-size="14.00">(v10 == v18) or (((&#45;2 &#45; v18) + v10) &gt; v10)</text>
</g>
<!-- Node0x2752c5d0&#45;&gt;Node0x27525e80 -->
<g id="edge21" class="edge"><title>Node0x2752c5d0&#45;&gt;Node0x27525e80</title>
<path fill="none" stroke="black" d="M273.175,-275.192C276.477,-256.903 282.07,-235.55 291.5,-218 326.473,-152.915 347.707,-143.034 405.5,-97 422.951,-83.0995 444.318,-70.3262 462.168,-60.6449"/>
<polygon fill="black" stroke="black" points="463.956,-63.6586 471.143,-55.8745 460.67,-57.4775 463.956,-63.6586"/>
</g>
<!-- Node0x2752c810 -->
<g id="node22" class="node"><title>Node0x2752c810</title>
<polygon fill="none" stroke="black" points="300.5,-218.5 300.5,-256.5 452.5,-256.5 452.5,-218.5 300.5,-218.5"/>
<text text-anchor="start" x="308.5" y="-241.3" font-family="Times,serif" font-size="14.00">0x7c115d0:</text>
<text text-anchor="start" x="308.5" y="-226.3" font-family="Times,serif" font-size="14.00"> v13 = (v15 + v12)</text>
</g>
<!-- Node0x2752a640&#45;&gt;Node0x2752c810 -->
<g id="edge22" class="edge"><title>Node0x2752a640&#45;&gt;Node0x2752c810</title>
<path fill="none" stroke="black" d="M393.649,-377.35C386.579,-372.293 380.317,-366.241 375.5,-359 357.372,-331.749 361.774,-292.803 367.94,-266.633"/>
<polygon fill="black" stroke="black" points="371.417,-267.166 370.534,-256.608 364.64,-265.412 371.417,-267.166"/>
<text text-anchor="middle" x="534" y="-313.3" font-family="Times,serif" font-size="14.00">(v11 != v15) and (((&#45;2 &#45; v15) + v11) &lt;= v11)</text>
</g>
<!-- Node0x2752c960 -->
<g id="node23" class="node"><title>Node0x2752c960</title>
<polygon fill="none" stroke="black" points="568,-218.5 568,-256.5 665,-256.5 665,-218.5 568,-218.5"/>
<text text-anchor="start" x="576" y="-241.3" font-family="Times,serif" font-size="14.00">0x7c11bf0:</text>
<text text-anchor="start" x="576" y="-226.3" font-family="Times,serif" font-size="14.00"> v13 = v15</text>
</g>
<!-- Node0x2752a640&#45;&gt;Node0x2752c960 -->
<g id="edge23" class="edge"><title>Node0x2752a640&#45;&gt;Node0x2752c960</title>
<path fill="none" stroke="black" d="M660.324,-377.385C675.1,-372.287 686.628,-366.216 692.5,-359 716.064,-330.043 712.379,-306.6 692.5,-275 687.906,-267.698 681.4,-261.823 674.104,-257.106"/>
<polygon fill="black" stroke="black" points="675.67,-253.971 665.245,-252.084 672.218,-260.061 675.67,-253.971"/>
<text text-anchor="middle" x="859.5" y="-313.3" font-family="Times,serif" font-size="14.00">(v11 == v15) or (((&#45;2 &#45; v15) + v11) &gt; v11)</text>
</g>
<!-- Node0x2752b900 -->
<g id="node24" class="node"><title>Node0x2752b900</title>
<polygon fill="none" stroke="black" points="946,-506.5 946,-589.5 1113,-589.5 1113,-506.5 946,-506.5"/>
<text text-anchor="start" x="954" y="-574.3" font-family="Times,serif" font-size="14.00">0xa53a560:</text>
<text text-anchor="start" x="954" y="-559.3" font-family="Times,serif" font-size="14.00"> g32 = (g32 &lt;&lt; g31)</text>
<text text-anchor="start" x="954" y="-544.3" font-family="Times,serif" font-size="14.00"> g40 = (v13 &#45; v11)</text>
<text text-anchor="start" x="954" y="-529.3" font-family="Times,serif" font-size="14.00"> function_23f8e()</text>
<text text-anchor="start" x="954" y="-514.3" font-family="Times,serif" font-size="14.00"> return</text>
</g>
<!-- Node0x2752ca70&#45;&gt;Node0x2752b900 -->
<g id="edge24" class="edge"><title>Node0x2752ca70&#45;&gt;Node0x2752b900</title>
<path fill="none" stroke="black" d="M720.5,-1076.11C720.5,-1044.22 720.5,-976.618 720.5,-919.5 720.5,-919.5 720.5,-919.5 720.5,-736 720.5,-634.057 845.121,-586.177 936.079,-564.806"/>
<polygon fill="black" stroke="black" points="936.907,-568.208 945.88,-562.575 935.353,-561.382 936.907,-568.208"/>
</g>
<!-- Node0x2430b250 -->
<g id="node25" class="node"><title>Node0x2430b250</title>
<polygon fill="none" stroke="black" points="1000.5,-974.5 1000.5,-1027.5 1136.5,-1027.5 1136.5,-974.5 1000.5,-974.5"/>
<text text-anchor="start" x="1008.5" y="-1012.3" font-family="Times,serif" font-size="14.00">0xa539b70:</text>
<text text-anchor="start" x="1008.5" y="-997.3" font-family="Times,serif" font-size="14.00"> if (v12 &lt;= v15):</text>
<text text-anchor="start" x="1008.5" y="-982.3" font-family="Times,serif" font-size="14.00"> else:</text>
</g>
<!-- Node0x2430b100&#45;&gt;Node0x2430b250 -->
<g id="edge25" class="edge"><title>Node0x2430b100&#45;&gt;Node0x2430b250</title>
<path fill="none" stroke="black" d="M1057.62,-1133.43C1059.77,-1107.42 1063.12,-1066.92 1065.54,-1037.75"/>
<polygon fill="black" stroke="black" points="1069.05,-1037.82 1066.38,-1027.56 1062.07,-1037.24 1069.05,-1037.82"/>
</g>
<!-- Node0x27528560 -->
<g id="node26" class="node"><title>Node0x27528560</title>
<polygon fill="none" stroke="black" points="1422,-944.5 1422,-1057.5 1709,-1057.5 1709,-944.5 1422,-944.5"/>
<text text-anchor="start" x="1430" y="-1042.3" font-family="Times,serif" font-size="14.00">0xa522d00:</text>
<text text-anchor="start" x="1430" y="-1027.3" font-family="Times,serif" font-size="14.00"> v14 = g41</text>
<text text-anchor="start" x="1430" y="-1012.3" font-family="Times,serif" font-size="14.00"> g30 = v14</text>
<text text-anchor="start" x="1430" y="-997.3" font-family="Times,serif" font-size="14.00"> g40 = (g43 * ((v19 &#45; v10) / v14))</text>
<text text-anchor="start" x="1430" y="-982.3" font-family="Times,serif" font-size="14.00"> unknown_228ca()</text>
<text text-anchor="start" x="1430" y="-967.3" font-family="Times,serif" font-size="14.00"> v16 = ((65536 * g30) | (v5 % 65536))</text>
<text text-anchor="start" x="1430" y="-952.3" font-family="Times,serif" font-size="14.00"> v11 = g40</text>
</g>
<!-- Node0x2752bd30&#45;&gt;Node0x27528560 -->
<g id="edge26" class="edge"><title>Node0x2752bd30&#45;&gt;Node0x27528560</title>
<path fill="none" stroke="black" d="M1491.14,-1140.99C1500.85,-1122.83 1516.44,-1093.7 1530.83,-1066.79"/>
<polygon fill="black" stroke="black" points="1534.03,-1068.24 1535.66,-1057.77 1527.86,-1064.94 1534.03,-1068.24"/>
</g>
<!-- Node0x2752be80&#45;&gt;Node0x27528560 -->
<g id="edge27" class="edge"><title>Node0x2752be80&#45;&gt;Node0x27528560</title>
<path fill="none" stroke="black" d="M1659.34,-1140.99C1646.97,-1122.67 1627.07,-1093.19 1608.77,-1066.09"/>
<polygon fill="black" stroke="black" points="1611.65,-1064.1 1603.15,-1057.77 1605.85,-1068.02 1611.65,-1064.1"/>
</g>
<!-- Node0x2752aba0 -->
<g id="node27" class="node"><title>Node0x2752aba0</title>
<polygon fill="none" stroke="black" points="415,-97.5 415,-180.5 582,-180.5 582,-97.5 415,-97.5"/>
<text text-anchor="start" x="423" y="-165.3" font-family="Times,serif" font-size="14.00">0x7c124c0:</text>
<text text-anchor="start" x="423" y="-150.3" font-family="Times,serif" font-size="14.00"> g32 = (g32 &lt;&lt; g31)</text>
<text text-anchor="start" x="423" y="-135.3" font-family="Times,serif" font-size="14.00"> g40 = (v13 &#45; v11)</text>
<text text-anchor="start" x="423" y="-120.3" font-family="Times,serif" font-size="14.00"> function_23f8e()</text>
<text text-anchor="start" x="423" y="-105.3" font-family="Times,serif" font-size="14.00"> return</text>
</g>
<!-- Node0x2752c810&#45;&gt;Node0x2752aba0 -->
<g id="edge28" class="edge"><title>Node0x2752c810&#45;&gt;Node0x2752aba0</title>
<path fill="none" stroke="black" d="M399.447,-218.349C410.699,-209.449 424.826,-198.275 438.858,-187.176"/>
<polygon fill="black" stroke="black" points="441.414,-189.617 447.086,-180.668 437.071,-184.127 441.414,-189.617"/>
</g>
<!-- Node0x2752c960&#45;&gt;Node0x2752aba0 -->
<g id="edge29" class="edge"><title>Node0x2752c960&#45;&gt;Node0x2752aba0</title>
<path fill="none" stroke="black" d="M594.305,-218.349C583.478,-209.495 569.898,-198.389 556.396,-187.347"/>
<polygon fill="black" stroke="black" points="558.433,-184.491 548.476,-180.87 554.001,-189.91 558.433,-184.491"/>
</g>
<!-- Node0x2752b900&#45;&gt;Node0x27525e80 -->
<g id="edge30" class="edge"><title>Node0x2752b900&#45;&gt;Node0x27525e80</title>
<path fill="none" stroke="black" d="M1029.5,-506.296C1029.5,-477.906 1029.5,-439.144 1029.5,-405 1029.5,-405 1029.5,-405 1029.5,-138 1029.5,-87.7654 656.618,-54.6603 535.796,-45.2521"/>
<polygon fill="black" stroke="black" points="535.801,-41.7423 525.562,-44.4652 535.265,-48.7216 535.801,-41.7423"/>
</g>
<!-- Node0x46826f20 -->
<g id="node28" class="node"><title>Node0x46826f20</title>
<polygon fill="none" stroke="black" points="885,-839.5 885,-892.5 1252,-892.5 1252,-839.5 885,-839.5"/>
<text text-anchor="start" x="893" y="-877.3" font-family="Times,serif" font-size="14.00">0xa539780:</text>
<text text-anchor="start" x="893" y="-862.3" font-family="Times,serif" font-size="14.00"> if ((v11 != v15) and (((&#45;2 &#45; v15) + v11) &lt;= v11)):</text>
<text text-anchor="start" x="893" y="-847.3" font-family="Times,serif" font-size="14.00"> else:</text>
</g>
<!-- Node0x2430b250&#45;&gt;Node0x46826f20 -->
<g id="edge31" class="edge"><title>Node0x2430b250&#45;&gt;Node0x46826f20</title>
<path fill="none" stroke="black" d="M1068.5,-974.356C1068.5,-954.025 1068.5,-925.375 1068.5,-902.785"/>
<polygon fill="black" stroke="black" points="1072,-902.565 1068.5,-892.565 1065,-902.565 1072,-902.565"/>
<text text-anchor="middle" x="1111.5" y="-914.8" font-family="Times,serif" font-size="14.00">v12 &lt;= v15</text>
</g>
<!-- Node0x27528ff0 -->
<g id="node29" class="node"><title>Node0x27528ff0</title>
<polygon fill="none" stroke="black" points="1398.5,-782.5 1398.5,-820.5 1498.5,-820.5 1498.5,-782.5 1398.5,-782.5"/>
<text text-anchor="start" x="1406.5" y="-805.3" font-family="Times,serif" font-size="14.00">0xa539cd0:</text>
<text text-anchor="start" x="1406.5" y="-790.3" font-family="Times,serif" font-size="14.00"> v13 = v15</text>
</g>
<!-- Node0x2430b250&#45;&gt;Node0x27528ff0 -->
<g id="edge32" class="edge"><title>Node0x2430b250&#45;&gt;Node0x27528ff0</title>
<path fill="none" stroke="black" d="M1117.79,-974.383C1192.45,-935.576 1333.08,-862.49 1404.49,-825.375"/>
<polygon fill="black" stroke="black" points="1406.42,-828.317 1413.68,-820.6 1403.19,-822.106 1406.42,-828.317"/>
<text text-anchor="middle" x="1271.5" y="-914.8" font-family="Times,serif" font-size="14.00">v12 &gt; v15</text>
</g>
<!-- Node0x27528ac0 -->
<g id="node30" class="node"><title>Node0x27528ac0</title>
<polygon fill="none" stroke="black" points="1390.5,-839.5 1390.5,-892.5 1740.5,-892.5 1740.5,-839.5 1390.5,-839.5"/>
<text text-anchor="start" x="1398.5" y="-877.3" font-family="Times,serif" font-size="14.00">0xa527880:</text>
<text text-anchor="start" x="1398.5" y="-862.3" font-family="Times,serif" font-size="14.00"> if ((v11 == v16) or (((&#45;2 &#45; v16) + v11) &gt; v11)):</text>
<text text-anchor="start" x="1398.5" y="-847.3" font-family="Times,serif" font-size="14.00"> else:</text>
</g>
<!-- Node0x27528560&#45;&gt;Node0x27528ac0 -->
<g id="edge33" class="edge"><title>Node0x27528560&#45;&gt;Node0x27528ac0</title>
<path fill="none" stroke="black" d="M1565.5,-944.367C1565.5,-930.353 1565.5,-915.677 1565.5,-902.92"/>
<polygon fill="black" stroke="black" points="1569,-902.713 1565.5,-892.713 1562,-902.713 1569,-902.713"/>
</g>
<!-- Node0x2752aba0&#45;&gt;Node0x27525e80 -->
<g id="edge34" class="edge"><title>Node0x2752aba0&#45;&gt;Node0x27525e80</title>
<path fill="none" stroke="black" d="M498.5,-97.4994C498.5,-88.2058 498.5,-78.537 498.5,-69.9459"/>
<polygon fill="black" stroke="black" points="502,-69.7494 498.5,-59.7494 495,-69.7494 502,-69.7494"/>
</g>
<!-- Node0x46827810 -->
<g id="node31" class="node"><title>Node0x46827810</title>
<polygon fill="none" stroke="black" points="801.5,-718 801.5,-756 953.5,-756 953.5,-718 801.5,-718"/>
<text text-anchor="start" x="809.5" y="-740.8" font-family="Times,serif" font-size="14.00">0xa539370:</text>
<text text-anchor="start" x="809.5" y="-725.8" font-family="Times,serif" font-size="14.00"> v13 = (v15 + v12)</text>
</g>
<!-- Node0x46826f20&#45;&gt;Node0x46827810 -->
<g id="edge35" class="edge"><title>Node0x46826f20&#45;&gt;Node0x46827810</title>
<path fill="none" stroke="black" d="M884.576,-859.913C825.051,-854.102 769.446,-842.748 750.5,-821 739.114,-807.931 740.448,-796.121 750.5,-782 760.568,-767.857 775.51,-758.218 791.643,-751.66"/>
<polygon fill="black" stroke="black" points="793.064,-754.867 801.252,-748.144 790.659,-748.294 793.064,-754.867"/>
<text text-anchor="middle" x="909" y="-797.8" font-family="Times,serif" font-size="14.00">(v11 != v15) and (((&#45;2 &#45; v15) + v11) &lt;= v11)</text>
</g>
<!-- Node0x2430d9b0 -->
<g id="node32" class="node"><title>Node0x2430d9b0</title>
<polygon fill="none" stroke="black" points="1023.5,-718 1023.5,-756 1123.5,-756 1123.5,-718 1023.5,-718"/>
<text text-anchor="start" x="1031.5" y="-740.8" font-family="Times,serif" font-size="14.00">0xa5398e0:</text>
<text text-anchor="start" x="1031.5" y="-725.8" font-family="Times,serif" font-size="14.00"> v13 = v15</text>
</g>
<!-- Node0x46826f20&#45;&gt;Node0x2430d9b0 -->
<g id="edge36" class="edge"><title>Node0x46826f20&#45;&gt;Node0x2430d9b0</title>
<path fill="none" stroke="black" d="M1070.44,-839.418C1070.84,-833.381 1071.22,-826.966 1071.5,-821 1072.34,-802.867 1072.83,-782.488 1073.12,-766.461"/>
<polygon fill="black" stroke="black" points="1076.63,-766.198 1073.29,-756.142 1069.63,-766.084 1076.63,-766.198"/>
<text text-anchor="middle" x="1223.5" y="-797.8" font-family="Times,serif" font-size="14.00">(v11 == v15) or (((&#45;2 &#45; v15) + v11) &gt; v11)</text>
</g>
<!-- Node0x27528ff0&#45;&gt;Node0x2752b900 -->
<g id="edge37" class="edge"><title>Node0x27528ff0&#45;&gt;Node0x2752b900</title>
<path fill="none" stroke="black" d="M1418.37,-782.413C1353.59,-743.53 1199.37,-650.965 1105.78,-594.787"/>
<polygon fill="black" stroke="black" points="1107.57,-591.78 1097.2,-589.635 1103.97,-597.782 1107.57,-591.78"/>
</g>
<!-- Node0x2752bf90 -->
<g id="node33" class="node"><title>Node0x2752bf90</title>
<polygon fill="none" stroke="black" points="1421,-449.5 1421,-487.5 1522,-487.5 1522,-449.5 1421,-449.5"/>
<text text-anchor="start" x="1429" y="-472.3" font-family="Times,serif" font-size="14.00">0xa527350:</text>
<text text-anchor="start" x="1429" y="-457.3" font-family="Times,serif" font-size="14.00"> v13 = v16</text>
</g>
<!-- Node0x27528ac0&#45;&gt;Node0x2752bf90 -->
<g id="edge38" class="edge"><title>Node0x27528ac0&#45;&gt;Node0x2752bf90</title>
<path fill="none" stroke="black" d="M1552.67,-839.45C1543.08,-819.386 1530.32,-790.504 1522.5,-764 1494.33,-668.553 1479.74,-550.829 1474.2,-497.776"/>
<polygon fill="black" stroke="black" points="1477.67,-497.355 1473.18,-487.76 1470.71,-498.063 1477.67,-497.355"/>
<text text-anchor="middle" x="1672.5" y="-733.3" font-family="Times,serif" font-size="14.00">(v11 == v16) or (((&#45;2 &#45; v16) + v11) &gt; v11)</text>
</g>
<!-- Node0x27523b40 -->
<g id="node34" class="node"><title>Node0x27523b40</title>
<polygon fill="none" stroke="black" points="1831.5,-710.5 1831.5,-763.5 1983.5,-763.5 1983.5,-710.5 1831.5,-710.5"/>
<text text-anchor="start" x="1839.5" y="-748.3" font-family="Times,serif" font-size="14.00">0xa527c60:</text>
<text text-anchor="start" x="1839.5" y="-733.3" font-family="Times,serif" font-size="14.00"> v12 = g39</text>
<text text-anchor="start" x="1839.5" y="-718.3" font-family="Times,serif" font-size="14.00"> v15 = (v12 + v16)</text>
</g>
<!-- Node0x27528ac0&#45;&gt;Node0x27523b40 -->
<g id="edge39" class="edge"><title>Node0x27528ac0&#45;&gt;Node0x27523b40</title>
<path fill="none" stroke="black" d="M1634.3,-839.452C1690.65,-818.525 1770.4,-788.911 1829.2,-767.078"/>
<polygon fill="black" stroke="black" points="1830.66,-770.269 1838.81,-763.507 1828.22,-763.707 1830.66,-770.269"/>
<text text-anchor="middle" x="1945" y="-797.8" font-family="Times,serif" font-size="14.00">(v11 != v16) and (((&#45;2 &#45; v16) + v11) &lt;= v11)</text>
</g>
<!-- Node0x46827810&#45;&gt;Node0x2752b900 -->
<g id="edge40" class="edge"><title>Node0x46827810&#45;&gt;Node0x2752b900</title>
<path fill="none" stroke="black" d="M892.351,-717.729C914.738,-690.188 957.905,-637.081 989.856,-597.772"/>
<polygon fill="black" stroke="black" points="992.901,-599.575 996.493,-589.608 987.469,-595.16 992.901,-599.575"/>
</g>
<!-- Node0x2430d9b0&#45;&gt;Node0x2752b900 -->
<g id="edge41" class="edge"><title>Node0x2430d9b0&#45;&gt;Node0x2752b900</title>
<path fill="none" stroke="black" d="M1069.2,-717.729C1062.83,-690.648 1050.64,-638.851 1041.44,-599.757"/>
<polygon fill="black" stroke="black" points="1044.75,-598.54 1039.05,-589.608 1037.94,-600.144 1044.75,-598.54"/>
</g>
<!-- Node0x27529210 -->
<g id="node35" class="node"><title>Node0x27529210</title>
<polygon fill="none" stroke="black" points="1259,-105 1259,-173 1426,-173 1426,-105 1259,-105"/>
<text text-anchor="start" x="1267" y="-157.8" font-family="Times,serif" font-size="14.00">0xa52e110:</text>
<text text-anchor="start" x="1267" y="-142.8" font-family="Times,serif" font-size="14.00"> g32 = (g32 &lt;&lt; g31)</text>
<text text-anchor="start" x="1267" y="-127.8" font-family="Times,serif" font-size="14.00"> g40 = (v13 &#45; v11)</text>
<text text-anchor="start" x="1267" y="-112.8" font-family="Times,serif" font-size="14.00"> function_23f8e()</text>
</g>
<!-- Node0x2752bf90&#45;&gt;Node0x27529210 -->
<g id="edge42" class="edge"><title>Node0x2752bf90&#45;&gt;Node0x27529210</title>
<path fill="none" stroke="black" d="M1420.71,-458.328C1368.27,-445.856 1289.08,-417.947 1252.5,-359 1219.44,-305.719 1229.78,-274.246 1257.5,-218 1264.47,-203.852 1275.2,-191.028 1286.71,-180.051"/>
<polygon fill="black" stroke="black" points="1289.3,-182.423 1294.36,-173.109 1284.6,-177.24 1289.3,-182.423"/>
</g>
<!-- Node0x27523cc0 -->
<g id="node36" class="node"><title>Node0x27523cc0</title>
<polygon fill="none" stroke="black" points="1839.5,-521.5 1839.5,-574.5 1975.5,-574.5 1975.5,-521.5 1839.5,-521.5"/>
<text text-anchor="start" x="1847.5" y="-559.3" font-family="Times,serif" font-size="14.00">0xa52d5b0:</text>
<text text-anchor="start" x="1847.5" y="-544.3" font-family="Times,serif" font-size="14.00"> if (v12 &lt;= v15):</text>
<text text-anchor="start" x="1847.5" y="-529.3" font-family="Times,serif" font-size="14.00"> else:</text>
</g>
<!-- Node0x27523b40&#45;&gt;Node0x27523cc0 -->
<g id="edge43" class="edge"><title>Node0x27523b40&#45;&gt;Node0x27523cc0</title>
<path fill="none" stroke="black" d="M1907.5,-710.391C1907.5,-677.889 1907.5,-621.641 1907.5,-584.876"/>
<polygon fill="black" stroke="black" points="1911,-584.599 1907.5,-574.6 1904,-584.6 1911,-584.599"/>
</g>
<!-- Node0x27529210&#45;&gt;Node0x27525e80 -->
<g id="edge44" class="edge"><title>Node0x27529210&#45;&gt;Node0x27525e80</title>
<path fill="none" stroke="black" d="M1258.9,-118.123C1199.22,-104.694 1116.85,-87.7048 1043.5,-78 853.586,-52.8732 623.983,-45.2958 535.624,-43.2178"/>
<polygon fill="black" stroke="black" points="535.637,-39.7173 525.561,-42.9908 535.479,-46.7155 535.637,-39.7173"/>
</g>
<!-- Node0x2430b620 -->
<g id="node37" class="node"><title>Node0x2430b620</title>
<polygon fill="none" stroke="black" points="1428,-377.5 1428,-430.5 1795,-430.5 1795,-377.5 1428,-377.5"/>
<text text-anchor="start" x="1436" y="-415.3" font-family="Times,serif" font-size="14.00">0xa52d150:</text>
<text text-anchor="start" x="1436" y="-400.3" font-family="Times,serif" font-size="14.00"> if ((v11 != v15) and (((&#45;2 &#45; v15) + v11) &lt;= v11)):</text>
<text text-anchor="start" x="1436" y="-385.3" font-family="Times,serif" font-size="14.00"> else:</text>
</g>
<!-- Node0x27523cc0&#45;&gt;Node0x2430b620 -->
<g id="edge45" class="edge"><title>Node0x27523cc0&#45;&gt;Node0x2430b620</title>
<path fill="none" stroke="black" d="M1854.24,-521.449C1803.57,-497.144 1727.36,-460.58 1673.88,-434.923"/>
<polygon fill="black" stroke="black" points="1675.36,-431.754 1664.83,-430.585 1672.33,-438.066 1675.36,-431.754"/>
<text text-anchor="middle" x="1819.5" y="-464.8" font-family="Times,serif" font-size="14.00">v12 &lt;= v15</text>
</g>
<!-- Node0x46826e60 -->
<g id="node38" class="node"><title>Node0x46826e60</title>
<polygon fill="none" stroke="black" points="1917,-298 1917,-336 2018,-336 2018,-298 1917,-298"/>
<text text-anchor="start" x="1925" y="-320.8" font-family="Times,serif" font-size="14.00">0xa52d760:</text>
<text text-anchor="start" x="1925" y="-305.8" font-family="Times,serif" font-size="14.00"> v13 = v15</text>
</g>
<!-- Node0x27523cc0&#45;&gt;Node0x46826e60 -->
<g id="edge46" class="edge"><title>Node0x27523cc0&#45;&gt;Node0x46826e60</title>
<path fill="none" stroke="black" d="M1914.27,-521.176C1925.62,-477.86 1948.39,-390.918 1960.13,-346.115"/>
<polygon fill="black" stroke="black" points="1963.58,-346.757 1962.73,-336.197 1956.81,-344.983 1963.58,-346.757"/>
<text text-anchor="middle" x="1968.5" y="-464.8" font-family="Times,serif" font-size="14.00">v12 &gt; v15</text>
</g>
<!-- Node0x275290b0 -->
<g id="node39" class="node"><title>Node0x275290b0</title>
<polygon fill="none" stroke="black" points="1266.5,-218.5 1266.5,-256.5 1418.5,-256.5 1418.5,-218.5 1266.5,-218.5"/>
<text text-anchor="start" x="1274.5" y="-241.3" font-family="Times,serif" font-size="14.00">0xa52cd80:</text>
<text text-anchor="start" x="1274.5" y="-226.3" font-family="Times,serif" font-size="14.00"> v13 = (v15 + v12)</text>
</g>
<!-- Node0x2430b620&#45;&gt;Node0x275290b0 -->
<g id="edge47" class="edge"><title>Node0x2430b620&#45;&gt;Node0x275290b0</title>
<path fill="none" stroke="black" d="M1427.72,-389.784C1352.43,-382.463 1280.08,-372.155 1268.5,-359 1243.84,-330.972 1248.79,-306.704 1268.5,-275 1271.43,-270.286 1275.17,-266.163 1279.41,-262.56"/>
<polygon fill="black" stroke="black" points="1281.51,-265.358 1287.5,-256.62 1277.37,-259.715 1281.51,-265.358"/>
<text text-anchor="middle" x="1427" y="-313.3" font-family="Times,serif" font-size="14.00">(v11 != v15) and (((&#45;2 &#45; v15) + v11) &lt;= v11)</text>
</g>
<!-- Node0x46827720 -->
<g id="node40" class="node"><title>Node0x46827720</title>
<polygon fill="none" stroke="black" points="1499,-218.5 1499,-256.5 1600,-256.5 1600,-218.5 1499,-218.5"/>
<text text-anchor="start" x="1507" y="-241.3" font-family="Times,serif" font-size="14.00">0xa52d2b0:</text>
<text text-anchor="start" x="1507" y="-226.3" font-family="Times,serif" font-size="14.00"> v13 = v15</text>
</g>
<!-- Node0x2430b620&#45;&gt;Node0x46827720 -->
<g id="edge48" class="edge"><title>Node0x2430b620&#45;&gt;Node0x46827720</title>
<path fill="none" stroke="black" d="M1609.07,-377.312C1605.7,-345.157 1598.92,-292.209 1589.5,-275 1587.42,-271.196 1584.79,-267.578 1581.88,-264.202"/>
<polygon fill="black" stroke="black" points="1584.16,-261.534 1574.69,-256.792 1579.14,-266.407 1584.16,-261.534"/>
<text text-anchor="middle" x="1757.5" y="-313.3" font-family="Times,serif" font-size="14.00">(v11 == v15) or (((&#45;2 &#45; v15) + v11) &gt; v11)</text>
</g>
<!-- Node0x46826e60&#45;&gt;Node0x27529210 -->
<g id="edge49" class="edge"><title>Node0x46826e60&#45;&gt;Node0x27529210</title>
<path fill="none" stroke="black" d="M1946.96,-297.882C1936.88,-289.825 1924.19,-280.858 1911.5,-275 1753.63,-202.128 1552.34,-166.339 1436.37,-150.63"/>
<polygon fill="black" stroke="black" points="1436.83,-147.16 1426.45,-149.307 1435.9,-154.098 1436.83,-147.16"/>
</g>
<!-- Node0x275290b0&#45;&gt;Node0x27529210 -->
<g id="edge50" class="edge"><title>Node0x275290b0&#45;&gt;Node0x27529210</title>
<path fill="none" stroke="black" d="M1342.5,-218.349C1342.5,-208.453 1342.5,-195.745 1342.5,-183.456"/>
<polygon fill="black" stroke="black" points="1346,-183.303 1342.5,-173.303 1339,-183.303 1346,-183.303"/>
</g>
<!-- Node0x46827720&#45;&gt;Node0x27529210 -->
<g id="edge51" class="edge"><title>Node0x46827720&#45;&gt;Node0x27529210</title>
<path fill="none" stroke="black" d="M1510.56,-218.349C1485.84,-206.821 1452.92,-191.475 1422.77,-177.422"/>
<polygon fill="black" stroke="black" points="1424.06,-174.161 1413.52,-173.108 1421.1,-180.505 1424.06,-174.161"/>
</g>
</g>
</svg>
