<?xml version="1.0" encoding="UTF-8" standalone="no"?>
<!DOCTYPE svg PUBLIC "-//W3C//DTD SVG 1.1//EN"
 "http://www.w3.org/Graphics/SVG/1.1/DTD/svg11.dtd">
<!-- Generated by graphviz version 2.38.0 (20140413.2041)
 -->
<!-- Title: Control&#45;flow graph for function &#39;function_a264()&#39;. Pages: 1 -->
<svg width="537pt" height="591pt"
 viewBox="0.00 0.00 537.00 591.00" xmlns="http://www.w3.org/2000/svg" xmlns:xlink="http://www.w3.org/1999/xlink">
<g id="graph0" class="graph" transform="scale(1 1) rotate(0) translate(4 587)">
<title>Control&#45;flow graph for function &#39;function_a264()&#39;.</title>
<polygon fill="white" stroke="none" points="-4,4 -4,-587 533,-587 533,4 -4,4"/>
<text text-anchor="middle" x="264.5" y="-7.8" font-family="Times,serif" font-size="14.00">Control&#45;flow graph for function &#39;function_a264()&#39;.</text>
<!-- Node0x266313a0 -->
<g id="node1" class="node"><title>Node0x266313a0</title>
<polygon fill="none" stroke="black" points="235,-546.5 235,-582.5 294,-582.5 294,-546.5 235,-546.5"/>
<text text-anchor="start" x="243" y="-560.8" font-family="Times,serif" font-size="14.00">entry:</text>
</g>
<!-- Node0x351cecd0 -->
<g id="node2" class="node"><title>Node0x351cecd0</title>
<polygon fill="none" stroke="black" points="0,-96.5 0,-509.5 529,-509.5 529,-96.5 0,-96.5"/>
<text text-anchor="start" x="8" y="-494.3" font-family="Times,serif" font-size="14.00">0xfa274d0:</text>
<text text-anchor="start" x="8" y="-479.3" font-family="Times,serif" font-size="14.00"> v1 = g38</text>
<text text-anchor="start" x="8" y="-464.3" font-family="Times,serif" font-size="14.00"> v2 = g39</text>
<text text-anchor="start" x="8" y="-449.3" font-family="Times,serif" font-size="14.00"> v3 = g40</text>
<text text-anchor="start" x="8" y="-434.3" font-family="Times,serif" font-size="14.00"> v4 = g41</text>
<text text-anchor="start" x="8" y="-419.3" font-family="Times,serif" font-size="14.00"> g40 = g30</text>
<text text-anchor="start" x="8" y="-404.3" font-family="Times,serif" font-size="14.00"> g41 = g36</text>
<text text-anchor="start" x="8" y="-389.3" font-family="Times,serif" font-size="14.00"> v5 = g29</text>
<text text-anchor="start" x="8" y="-374.3" font-family="Times,serif" font-size="14.00"> g38 = v5</text>
<text text-anchor="start" x="8" y="-359.3" font-family="Times,serif" font-size="14.00"> g39 = g37</text>
<text text-anchor="start" x="8" y="-344.3" font-family="Times,serif" font-size="14.00"> memset(IntToPtrCastExpr&lt;ptr&gt;(v5), g10, 652)</text>
<text text-anchor="start" x="8" y="-329.3" font-family="Times,serif" font-size="14.00"> g36 = &#45;1</text>
<text text-anchor="start" x="8" y="-314.3" font-family="Times,serif" font-size="14.00"> *(IntToPtrCastExpr&lt;ptr&gt;((g38 + 60))) = 1</text>
<text text-anchor="start" x="8" y="-299.3" font-family="Times,serif" font-size="14.00"> g37 = 40</text>
<text text-anchor="start" x="8" y="-284.3" font-family="Times,serif" font-size="14.00"> *(IntToPtrCastExpr&lt;ptr&gt;((g38 + 328))) = g36</text>
<text text-anchor="start" x="8" y="-269.3" font-family="Times,serif" font-size="14.00"> *(IntToPtrCastExpr&lt;ptr&gt;(g38)) = g40</text>
<text text-anchor="start" x="8" y="-254.3" font-family="Times,serif" font-size="14.00"> *(IntToPtrCastExpr&lt;ptr&gt;((g38 + 8))) = g41</text>
<text text-anchor="start" x="8" y="-239.3" font-family="Times,serif" font-size="14.00"> *(IntToPtrCastExpr&lt;ptr&gt;((g38 + 14))) = TruncCastExpr&lt;int16&gt;(g39)</text>
<text text-anchor="start" x="8" y="-224.3" font-family="Times,serif" font-size="14.00"> *(IntToPtrCastExpr&lt;ptr&gt;((g38 + 20))) = TruncCastExpr&lt;int16&gt;(g37)</text>
<text text-anchor="start" x="8" y="-209.3" font-family="Times,serif" font-size="14.00"> *(IntToPtrCastExpr&lt;ptr&gt;((g38 + 24))) = g36</text>
<text text-anchor="start" x="8" y="-194.3" font-family="Times,serif" font-size="14.00"> g38 = v1</text>
<text text-anchor="start" x="8" y="-179.3" font-family="Times,serif" font-size="14.00"> g39 = v2</text>
<text text-anchor="start" x="8" y="-164.3" font-family="Times,serif" font-size="14.00"> g40 = v3</text>
<text text-anchor="start" x="8" y="-149.3" font-family="Times,serif" font-size="14.00"> g41 = v4</text>
<text text-anchor="start" x="8" y="-134.3" font-family="Times,serif" font-size="14.00"> v6</text>
<text text-anchor="start" x="8" y="-119.3" font-family="Times,serif" font-size="14.00"> g34 = v6</text>
<text text-anchor="start" x="8" y="-104.3" font-family="Times,serif" font-size="14.00"> IntToPtrCastExpr&lt;ptr&gt;(g35)()</text>
</g>
<!-- Node0x266313a0&#45;&gt;Node0x351cecd0 -->
<g id="edge1" class="edge"><title>Node0x266313a0&#45;&gt;Node0x351cecd0</title>
<path fill="none" stroke="black" d="M264.5,-546.473C264.5,-539.381 264.5,-530.372 264.5,-520.024"/>
<polygon fill="black" stroke="black" points="268,-519.712 264.5,-509.712 261,-519.712 268,-519.712"/>
</g>
<!-- Node0x15d77fe0 -->
<g id="node3" class="node"><title>Node0x15d77fe0</title>
<polygon fill="none" stroke="black" points="237.5,-23.5 237.5,-59.5 291.5,-59.5 291.5,-23.5 237.5,-23.5"/>
<text text-anchor="start" x="245.5" y="-37.8" font-family="Times,serif" font-size="14.00">exit:</text>
</g>
<!-- Node0x351cecd0&#45;&gt;Node0x15d77fe0 -->
<g id="edge2" class="edge"><title>Node0x351cecd0&#45;&gt;Node0x15d77fe0</title>
<path fill="none" stroke="black" d="M264.5,-96.2686C264.5,-86.5147 264.5,-77.6453 264.5,-70.048"/>
<polygon fill="black" stroke="black" points="268,-69.8725 264.5,-59.8726 261,-69.8726 268,-69.8725"/>
</g>
</g>
</svg>
