<?xml version="1.0" encoding="UTF-8" standalone="no"?>
<!DOCTYPE svg PUBLIC "-//W3C//DTD SVG 1.1//EN"
 "http://www.w3.org/Graphics/SVG/1.1/DTD/svg11.dtd">
<!-- Generated by graphviz version 2.38.0 (20140413.2041)
 -->
<!-- Title: Control&#45;flow graph for function &#39;function_19c8()&#39;. Pages: 1 -->
<svg width="410pt" height="956pt"
 viewBox="0.00 0.00 410.00 956.00" xmlns="http://www.w3.org/2000/svg" xmlns:xlink="http://www.w3.org/1999/xlink">
<g id="graph0" class="graph" transform="scale(1 1) rotate(0) translate(4 952)">
<title>Control&#45;flow graph for function &#39;function_19c8()&#39;.</title>
<polygon fill="white" stroke="none" points="-4,4 -4,-952 406,-952 406,4 -4,4"/>
<text text-anchor="middle" x="201" y="-7.8" font-family="Times,serif" font-size="14.00">Control&#45;flow graph for function &#39;function_19c8()&#39;.</text>
<!-- Node0x29535d70 -->
<g id="node1" class="node"><title>Node0x29535d70</title>
<polygon fill="none" stroke="black" points="257.5,-911.5 257.5,-947.5 316.5,-947.5 316.5,-911.5 257.5,-911.5"/>
<text text-anchor="start" x="265.5" y="-925.8" font-family="Times,serif" font-size="14.00">entry:</text>
</g>
<!-- Node0x29535870 -->
<g id="node2" class="node"><title>Node0x29535870</title>
<polygon fill="none" stroke="black" points="214.5,-640.5 214.5,-873.5 359.5,-873.5 359.5,-640.5 214.5,-640.5"/>
<text text-anchor="start" x="222.5" y="-858.3" font-family="Times,serif" font-size="14.00">0x387771a0:</text>
<text text-anchor="start" x="222.5" y="-843.3" font-family="Times,serif" font-size="14.00"> v1 = g38</text>
<text text-anchor="start" x="222.5" y="-828.3" font-family="Times,serif" font-size="14.00"> v2 = g39</text>
<text text-anchor="start" x="222.5" y="-813.3" font-family="Times,serif" font-size="14.00"> v3 = g29</text>
<text text-anchor="start" x="222.5" y="-798.3" font-family="Times,serif" font-size="14.00"> g33 = 165012</text>
<text text-anchor="start" x="222.5" y="-783.3" font-family="Times,serif" font-size="14.00"> g39 = v3</text>
<text text-anchor="start" x="222.5" y="-768.3" font-family="Times,serif" font-size="14.00"> v4 = (v3 + 2370)</text>
<text text-anchor="start" x="222.5" y="-753.3" font-family="Times,serif" font-size="14.00"> g38 = v4</text>
<text text-anchor="start" x="222.5" y="-738.3" font-family="Times,serif" font-size="14.00"> g36 = 148344</text>
<text text-anchor="start" x="222.5" y="-723.3" font-family="Times,serif" font-size="14.00"> g29 = v4</text>
<text text-anchor="start" x="222.5" y="-708.3" font-family="Times,serif" font-size="14.00"> g30 = 128</text>
<text text-anchor="start" x="222.5" y="-693.3" font-family="Times,serif" font-size="14.00"> g37 = (v3 + 460)</text>
<text text-anchor="start" x="222.5" y="-678.3" font-family="Times,serif" font-size="14.00"> function_1343c()</text>
<text text-anchor="start" x="222.5" y="-663.3" font-family="Times,serif" font-size="14.00"> v5 = g29</text>
<text text-anchor="start" x="222.5" y="-648.3" font-family="Times,serif" font-size="14.00"> g9 = (v5 == 0)</text>
</g>
<!-- Node0x29535d70&#45;&gt;Node0x29535870 -->
<g id="edge1" class="edge"><title>Node0x29535d70&#45;&gt;Node0x29535870</title>
<path fill="none" stroke="black" d="M287,-911.213C287,-903.694 287,-894.174 287,-883.573"/>
<polygon fill="black" stroke="black" points="290.5,-883.559 287,-873.559 283.5,-883.559 290.5,-883.559"/>
</g>
<!-- Node0x29535cf0 -->
<g id="node3" class="node"><title>Node0x29535cf0</title>
<polygon fill="none" stroke="black" points="235,-564.5 235,-602.5 339,-602.5 339,-564.5 235,-564.5"/>
<text text-anchor="start" x="243" y="-587.3" font-family="Times,serif" font-size="14.00">0x4d90700:</text>
<text text-anchor="start" x="243" y="-572.3" font-family="Times,serif" font-size="14.00"> if (v5 != 0):</text>
</g>
<!-- Node0x29535870&#45;&gt;Node0x29535cf0 -->
<g id="edge2" class="edge"><title>Node0x29535870&#45;&gt;Node0x29535cf0</title>
<path fill="none" stroke="black" d="M287,-640.181C287,-630.254 287,-620.942 287,-612.881"/>
<polygon fill="black" stroke="black" points="290.5,-612.722 287,-602.722 283.5,-612.722 290.5,-612.722"/>
</g>
<!-- Node0x1d4c4ce0 -->
<g id="node4" class="node"><title>Node0x1d4c4ce0</title>
<polygon fill="none" stroke="black" points="0,-399.5 0,-512.5 298,-512.5 298,-399.5 0,-399.5"/>
<text text-anchor="start" x="8" y="-497.3" font-family="Times,serif" font-size="14.00">0x4d8f2f0:</text>
<text text-anchor="start" x="8" y="-482.3" font-family="Times,serif" font-size="14.00"> g33 = 0</text>
<text text-anchor="start" x="8" y="-467.3" font-family="Times,serif" font-size="14.00"> g29 = *(IntToPtrCastExpr&lt;ptr&gt;(g39))</text>
<text text-anchor="start" x="8" y="-452.3" font-family="Times,serif" font-size="14.00"> g36 = g38</text>
<text text-anchor="start" x="8" y="-437.3" font-family="Times,serif" font-size="14.00"> g37 = 0</text>
<text text-anchor="start" x="8" y="-422.3" font-family="Times,serif" font-size="14.00"> g30 = 3</text>
<text text-anchor="start" x="8" y="-407.3" font-family="Times,serif" font-size="14.00"> function_3c94()</text>
</g>
<!-- Node0x29535cf0&#45;&gt;Node0x1d4c4ce0 -->
<g id="edge3" class="edge"><title>Node0x29535cf0&#45;&gt;Node0x1d4c4ce0</title>
<path fill="none" stroke="black" d="M266.934,-564.251C253.786,-552.295 235.756,-535.897 217.748,-519.521"/>
<polygon fill="black" stroke="black" points="219.799,-516.655 210.046,-512.516 215.089,-521.834 219.799,-516.655"/>
<text text-anchor="middle" x="274" y="-534.8" font-family="Times,serif" font-size="14.00">v5 != 0</text>
</g>
<!-- Node0xa6b7e90 -->
<g id="node5" class="node"><title>Node0xa6b7e90</title>
<polygon fill="none" stroke="black" points="160,-263.5 160,-361.5 402,-361.5 402,-263.5 160,-263.5"/>
<text text-anchor="start" x="168" y="-346.3" font-family="Times,serif" font-size="14.00">0x4d908a0:</text>
<text text-anchor="start" x="168" y="-331.3" font-family="Times,serif" font-size="14.00"> g38 = v1</text>
<text text-anchor="start" x="168" y="-316.3" font-family="Times,serif" font-size="14.00"> g39 = v2</text>
<text text-anchor="start" x="168" y="-301.3" font-family="Times,serif" font-size="14.00"> v6</text>
<text text-anchor="start" x="168" y="-286.3" font-family="Times,serif" font-size="14.00"> g34 = v6</text>
<text text-anchor="start" x="168" y="-271.3" font-family="Times,serif" font-size="14.00"> IntToPtrCastExpr&lt;ptr&gt;(g35)()</text>
</g>
<!-- Node0x29535cf0&#45;&gt;Node0xa6b7e90 -->
<g id="edge4" class="edge"><title>Node0x29535cf0&#45;&gt;Node0xa6b7e90</title>
<path fill="none" stroke="black" d="M297.644,-564.489C300.54,-558.764 303.333,-552.283 305,-546 313.079,-515.552 315.092,-453.425 307,-399 305.659,-389.984 303.565,-380.603 301.133,-371.5"/>
<polygon fill="black" stroke="black" points="304.469,-370.433 298.381,-361.761 297.732,-372.336 304.469,-370.433"/>
<text text-anchor="middle" x="343" y="-452.3" font-family="Times,serif" font-size="14.00">v5 == 0</text>
</g>
<!-- Node0x1d4c4ce0&#45;&gt;Node0xa6b7e90 -->
<g id="edge5" class="edge"><title>Node0x1d4c4ce0&#45;&gt;Node0xa6b7e90</title>
<path fill="none" stroke="black" d="M200.791,-399.482C210.115,-389.486 219.837,-379.065 229.162,-369.069"/>
<polygon fill="black" stroke="black" points="231.941,-371.221 236.203,-361.521 226.822,-366.446 231.941,-371.221"/>
</g>
<!-- Node0x24187c80 -->
<g id="node6" class="node"><title>Node0x24187c80</title>
<polygon fill="none" stroke="black" points="231,-187.5 231,-225.5 331,-225.5 331,-187.5 231,-187.5"/>
<text text-anchor="start" x="239" y="-210.3" font-family="Times,serif" font-size="14.00">0x4d91ae0:</text>
<text text-anchor="start" x="239" y="-195.3" font-family="Times,serif" font-size="14.00"> if g9:</text>
</g>
<!-- Node0xa6b7e90&#45;&gt;Node0x24187c80 -->
<g id="edge6" class="edge"><title>Node0xa6b7e90&#45;&gt;Node0x24187c80</title>
<path fill="none" stroke="black" d="M281,-263.458C281,-253.952 281,-244.27 281,-235.69"/>
<polygon fill="black" stroke="black" points="284.5,-235.509 281,-225.509 277.5,-235.509 284.5,-235.509"/>
</g>
<!-- Node0x295360f0 -->
<g id="node7" class="node"><title>Node0x295360f0</title>
<polygon fill="none" stroke="black" points="43,-97.5 43,-135.5 285,-135.5 285,-97.5 43,-97.5"/>
<text text-anchor="start" x="51" y="-120.3" font-family="Times,serif" font-size="14.00">0x4d91880:</text>
<text text-anchor="start" x="51" y="-105.3" font-family="Times,serif" font-size="14.00"> g40 = (g36 &amp; (g33 / 2097152))</text>
</g>
<!-- Node0x24187c80&#45;&gt;Node0x295360f0 -->
<g id="edge7" class="edge"><title>Node0x24187c80&#45;&gt;Node0x295360f0</title>
<path fill="none" stroke="black" d="M257.041,-187.48C239.57,-174.339 215.695,-156.382 196.505,-141.948"/>
<polygon fill="black" stroke="black" points="198.425,-139.013 188.329,-135.799 194.217,-144.607 198.425,-139.013"/>
<text text-anchor="middle" x="239.5" y="-157.8" font-family="Times,serif" font-size="14.00">g9</text>
</g>
<!-- Node0xdf829a0 -->
<g id="node8" class="node"><title>Node0xdf829a0</title>
<polygon fill="none" stroke="black" points="248,-23.5 248,-59.5 302,-59.5 302,-23.5 248,-23.5"/>
<text text-anchor="start" x="256" y="-37.8" font-family="Times,serif" font-size="14.00">exit:</text>
</g>
<!-- Node0x24187c80&#45;&gt;Node0xdf829a0 -->
<g id="edge8" class="edge"><title>Node0x24187c80&#45;&gt;Node0xdf829a0</title>
<path fill="none" stroke="black" d="M286.338,-187.377C291.972,-165.771 299.352,-128.612 294,-97 292.437,-87.7687 289.484,-78.0156 286.363,-69.3515"/>
<polygon fill="black" stroke="black" points="289.542,-67.8643 282.697,-59.7773 283.005,-70.3677 289.542,-67.8643"/>
<text text-anchor="middle" x="324.5" y="-112.8" font-family="Times,serif" font-size="14.00">not (g9)</text>
</g>
<!-- Node0x295360f0&#45;&gt;Node0xdf829a0 -->
<g id="edge9" class="edge"><title>Node0x295360f0&#45;&gt;Node0xdf829a0</title>
<path fill="none" stroke="black" d="M191.438,-97.4551C206.28,-87.694 224.756,-75.5433 240.558,-65.1512"/>
<polygon fill="black" stroke="black" points="242.59,-68.0041 249.021,-59.585 238.743,-62.1556 242.59,-68.0041"/>
</g>
</g>
</svg>
