<?xml version="1.0" encoding="UTF-8" standalone="no"?>
<!DOCTYPE svg PUBLIC "-//W3C//DTD SVG 1.1//EN"
 "http://www.w3.org/Graphics/SVG/1.1/DTD/svg11.dtd">
<!-- Generated by graphviz version 2.38.0 (20140413.2041)
 -->
<!-- Title: Control&#45;flow graph for function &#39;function_9448()&#39;. Pages: 1 -->
<svg width="377pt" height="231pt"
 viewBox="0.00 0.00 377.00 231.00" xmlns="http://www.w3.org/2000/svg" xmlns:xlink="http://www.w3.org/1999/xlink">
<g id="graph0" class="graph" transform="scale(1 1) rotate(0) translate(4 227)">
<title>Control&#45;flow graph for function &#39;function_9448()&#39;.</title>
<polygon fill="white" stroke="none" points="-4,4 -4,-227 373,-227 373,4 -4,4"/>
<text text-anchor="middle" x="184.5" y="-7.8" font-family="Times,serif" font-size="14.00">Control&#45;flow graph for function &#39;function_9448()&#39;.</text>
<!-- Node0x3fa1d520 -->
<g id="node1" class="node"><title>Node0x3fa1d520</title>
<polygon fill="none" stroke="black" points="155,-186.5 155,-222.5 214,-222.5 214,-186.5 155,-186.5"/>
<text text-anchor="start" x="163" y="-200.8" font-family="Times,serif" font-size="14.00">entry:</text>
</g>
<!-- Node0x2a3eb070 -->
<g id="node2" class="node"><title>Node0x2a3eb070</title>
<polygon fill="none" stroke="black" points="116,-96.5 116,-149.5 253,-149.5 253,-96.5 116,-96.5"/>
<text text-anchor="start" x="124" y="-134.3" font-family="Times,serif" font-size="14.00">0x6da01e0:</text>
<text text-anchor="start" x="124" y="-119.3" font-family="Times,serif" font-size="14.00"> g36 = (g36 + 4)</text>
<text text-anchor="start" x="124" y="-104.3" font-family="Times,serif" font-size="14.00"> function_9410()</text>
</g>
<!-- Node0x3fa1d520&#45;&gt;Node0x2a3eb070 -->
<g id="edge1" class="edge"><title>Node0x3fa1d520&#45;&gt;Node0x2a3eb070</title>
<path fill="none" stroke="black" d="M184.5,-186.25C184.5,-178.486 184.5,-169.014 184.5,-159.825"/>
<polygon fill="black" stroke="black" points="188,-159.676 184.5,-149.676 181,-159.676 188,-159.676"/>
</g>
<!-- Node0x2a3e71b0 -->
<g id="node3" class="node"><title>Node0x2a3e71b0</title>
<polygon fill="none" stroke="black" points="157.5,-23.5 157.5,-59.5 211.5,-59.5 211.5,-23.5 157.5,-23.5"/>
<text text-anchor="start" x="165.5" y="-37.8" font-family="Times,serif" font-size="14.00">exit:</text>
</g>
<!-- Node0x2a3eb070&#45;&gt;Node0x2a3e71b0 -->
<g id="edge2" class="edge"><title>Node0x2a3eb070&#45;&gt;Node0x2a3e71b0</title>
<path fill="none" stroke="black" d="M184.5,-96.4081C184.5,-87.9823 184.5,-78.5803 184.5,-70.0174"/>
<polygon fill="black" stroke="black" points="188,-69.7564 184.5,-59.7564 181,-69.7565 188,-69.7564"/>
</g>
</g>
</svg>
