<?xml version="1.0" encoding="UTF-8" standalone="no"?>
<!DOCTYPE svg PUBLIC "-//W3C//DTD SVG 1.1//EN"
 "http://www.w3.org/Graphics/SVG/1.1/DTD/svg11.dtd">
<!-- Generated by graphviz version 2.38.0 (20140413.2041)
 -->
<!-- Title: Control&#45;flow graph for function &#39;function_241f8()&#39;. Pages: 1 -->
<svg width="382pt" height="276pt"
 viewBox="0.00 0.00 382.00 276.00" xmlns="http://www.w3.org/2000/svg" xmlns:xlink="http://www.w3.org/1999/xlink">
<g id="graph0" class="graph" transform="scale(1 1) rotate(0) translate(4 272)">
<title>Control&#45;flow graph for function &#39;function_241f8()&#39;.</title>
<polygon fill="white" stroke="none" points="-4,4 -4,-272 378,-272 378,4 -4,4"/>
<text text-anchor="middle" x="187" y="-7.8" font-family="Times,serif" font-size="14.00">Control&#45;flow graph for function &#39;function_241f8()&#39;.</text>
<!-- Node0x2430e020 -->
<g id="node1" class="node"><title>Node0x2430e020</title>
<polygon fill="none" stroke="black" points="157.5,-231.5 157.5,-267.5 216.5,-267.5 216.5,-231.5 157.5,-231.5"/>
<text text-anchor="start" x="165.5" y="-245.8" font-family="Times,serif" font-size="14.00">entry:</text>
</g>
<!-- Node0x2752b170 -->
<g id="node2" class="node"><title>Node0x2752b170</title>
<polygon fill="none" stroke="black" points="115.5,-96.5 115.5,-194.5 258.5,-194.5 258.5,-96.5 115.5,-96.5"/>
<text text-anchor="start" x="123.5" y="-179.3" font-family="Times,serif" font-size="14.00">0xa564270:</text>
<text text-anchor="start" x="123.5" y="-164.3" font-family="Times,serif" font-size="14.00"> g29 = 8</text>
<text text-anchor="start" x="123.5" y="-149.3" font-family="Times,serif" font-size="14.00"> g30 = 24</text>
<text text-anchor="start" x="123.5" y="-134.3" font-family="Times,serif" font-size="14.00"> g7 = False</text>
<text text-anchor="start" x="123.5" y="-119.3" font-family="Times,serif" font-size="14.00"> g9 = False</text>
<text text-anchor="start" x="123.5" y="-104.3" font-family="Times,serif" font-size="14.00"> function_23e50()</text>
</g>
<!-- Node0x2430e020&#45;&gt;Node0x2752b170 -->
<g id="edge1" class="edge"><title>Node0x2430e020&#45;&gt;Node0x2752b170</title>
<path fill="none" stroke="black" d="M187,-231.197C187,-223.688 187,-214.415 187,-204.789"/>
<polygon fill="black" stroke="black" points="190.5,-204.688 187,-194.688 183.5,-204.688 190.5,-204.688"/>
</g>
<!-- Node0x468276e0 -->
<g id="node3" class="node"><title>Node0x468276e0</title>
<polygon fill="none" stroke="black" points="160,-23.5 160,-59.5 214,-59.5 214,-23.5 160,-23.5"/>
<text text-anchor="start" x="168" y="-37.8" font-family="Times,serif" font-size="14.00">exit:</text>
</g>
<!-- Node0x2752b170&#45;&gt;Node0x468276e0 -->
<g id="edge2" class="edge"><title>Node0x2752b170&#45;&gt;Node0x468276e0</title>
<path fill="none" stroke="black" d="M187,-96.4868C187,-87.2893 187,-77.9618 187,-69.7064"/>
<polygon fill="black" stroke="black" points="190.5,-69.5725 187,-59.5725 183.5,-69.5725 190.5,-69.5725"/>
</g>
</g>
</svg>
