<?xml version="1.0" encoding="UTF-8" standalone="no"?>
<!DOCTYPE svg PUBLIC "-//W3C//DTD SVG 1.1//EN"
 "http://www.w3.org/Graphics/SVG/1.1/DTD/svg11.dtd">
<!-- Generated by graphviz version 2.38.0 (20140413.2041)
 -->
<!-- Title: Control&#45;flow graph for function &#39;function_1be1c()&#39;. Pages: 1 -->
<svg width="385pt" height="565pt"
 viewBox="0.00 0.00 385.00 565.00" xmlns="http://www.w3.org/2000/svg" xmlns:xlink="http://www.w3.org/1999/xlink">
<g id="graph0" class="graph" transform="scale(1 1) rotate(0) translate(4 561)">
<title>Control&#45;flow graph for function &#39;function_1be1c()&#39;.</title>
<polygon fill="white" stroke="none" points="-4,4 -4,-561 381,-561 381,4 -4,4"/>
<text text-anchor="middle" x="188.5" y="-7.8" font-family="Times,serif" font-size="14.00">Control&#45;flow graph for function &#39;function_1be1c()&#39;.</text>
<!-- Node0x136becd0 -->
<g id="node1" class="node"><title>Node0x136becd0</title>
<polygon fill="none" stroke="black" points="159,-520.5 159,-556.5 218,-556.5 218,-520.5 159,-520.5"/>
<text text-anchor="start" x="167" y="-534.8" font-family="Times,serif" font-size="14.00">entry:</text>
</g>
<!-- Node0x136c05d0 -->
<g id="node2" class="node"><title>Node0x136c05d0</title>
<polygon fill="none" stroke="black" points="39.5,-399.5 39.5,-482.5 337.5,-482.5 337.5,-399.5 39.5,-399.5"/>
<text text-anchor="start" x="47.5" y="-467.3" font-family="Times,serif" font-size="14.00">0x9488a10:</text>
<text text-anchor="start" x="47.5" y="-452.3" font-family="Times,serif" font-size="14.00"> g30 = *(IntToPtrCastExpr&lt;ptr&gt;(g29))</text>
<text text-anchor="start" x="47.5" y="-437.3" font-family="Times,serif" font-size="14.00"> function_1bc68()</text>
<text text-anchor="start" x="47.5" y="-422.3" font-family="Times,serif" font-size="14.00"> v1 = g29</text>
<text text-anchor="start" x="47.5" y="-407.3" font-family="Times,serif" font-size="14.00"> g9 = (v1 == 0)</text>
</g>
<!-- Node0x136becd0&#45;&gt;Node0x136c05d0 -->
<g id="edge1" class="edge"><title>Node0x136becd0&#45;&gt;Node0x136c05d0</title>
<path fill="none" stroke="black" d="M188.5,-520.427C188.5,-512.622 188.5,-502.921 188.5,-493.032"/>
<polygon fill="black" stroke="black" points="192,-492.73 188.5,-482.73 185,-492.73 192,-492.73"/>
</g>
<!-- Node0x136bf6f0 -->
<g id="node3" class="node"><title>Node0x136bf6f0</title>
<polygon fill="none" stroke="black" points="133.5,-308.5 133.5,-361.5 243.5,-361.5 243.5,-308.5 133.5,-308.5"/>
<text text-anchor="start" x="141.5" y="-346.3" font-family="Times,serif" font-size="14.00">0x948d500:</text>
<text text-anchor="start" x="141.5" y="-331.3" font-family="Times,serif" font-size="14.00"> if (v1 == 0):</text>
<text text-anchor="start" x="141.5" y="-316.3" font-family="Times,serif" font-size="14.00"> else:</text>
</g>
<!-- Node0x136c05d0&#45;&gt;Node0x136bf6f0 -->
<g id="edge2" class="edge"><title>Node0x136c05d0&#45;&gt;Node0x136bf6f0</title>
<path fill="none" stroke="black" d="M188.5,-399.493C188.5,-390.311 188.5,-380.625 188.5,-371.66"/>
<polygon fill="black" stroke="black" points="192,-371.541 188.5,-361.541 185,-371.541 192,-371.541"/>
</g>
<!-- Node0x136c0a90 -->
<g id="node4" class="node"><title>Node0x136c0a90</title>
<polygon fill="none" stroke="black" points="48,-203.5 48,-256.5 191,-256.5 191,-203.5 48,-203.5"/>
<text text-anchor="start" x="56" y="-241.3" font-family="Times,serif" font-size="14.00">0x948d130:</text>
<text text-anchor="start" x="56" y="-226.3" font-family="Times,serif" font-size="14.00"> g30 = 5</text>
<text text-anchor="start" x="56" y="-211.3" font-family="Times,serif" font-size="14.00"> function_1b810()</text>
</g>
<!-- Node0x136bf6f0&#45;&gt;Node0x136c0a90 -->
<g id="edge3" class="edge"><title>Node0x136bf6f0&#45;&gt;Node0x136c0a90</title>
<path fill="none" stroke="black" d="M171.266,-308.274C162.54,-295.248 151.827,-279.256 142.415,-265.207"/>
<polygon fill="black" stroke="black" points="145.227,-263.115 136.753,-256.755 139.411,-267.011 145.227,-263.115"/>
<text text-anchor="middle" x="188.5" y="-278.8" font-family="Times,serif" font-size="14.00">v1 == 0</text>
</g>
<!-- Node0x136c1290 -->
<g id="node5" class="node"><title>Node0x136c1290</title>
<polygon fill="none" stroke="black" points="209,-211 209,-249 310,-249 310,-211 209,-211"/>
<text text-anchor="start" x="217" y="-233.8" font-family="Times,serif" font-size="14.00">0x948d6a0:</text>
<text text-anchor="start" x="217" y="-218.8" font-family="Times,serif" font-size="14.00"> g29 = &#45;1</text>
</g>
<!-- Node0x136bf6f0&#45;&gt;Node0x136c1290 -->
<g id="edge4" class="edge"><title>Node0x136bf6f0&#45;&gt;Node0x136c1290</title>
<path fill="none" stroke="black" d="M209.065,-308.257C213.601,-302.341 218.303,-296.018 222.5,-290 229.722,-279.645 237.208,-267.922 243.541,-257.67"/>
<polygon fill="black" stroke="black" points="246.544,-259.467 248.774,-249.11 240.572,-255.816 246.544,-259.467"/>
<text text-anchor="middle" x="258.5" y="-278.8" font-family="Times,serif" font-size="14.00">v1 != 0</text>
</g>
<!-- Node0x136bcef0 -->
<g id="node6" class="node"><title>Node0x136bcef0</title>
<polygon fill="none" stroke="black" points="82.5,-97.5 82.5,-165.5 324.5,-165.5 324.5,-97.5 82.5,-97.5"/>
<text text-anchor="start" x="90.5" y="-150.3" font-family="Times,serif" font-size="14.00">0x338ffc00:</text>
<text text-anchor="start" x="90.5" y="-135.3" font-family="Times,serif" font-size="14.00"> v2</text>
<text text-anchor="start" x="90.5" y="-120.3" font-family="Times,serif" font-size="14.00"> g34 = v2</text>
<text text-anchor="start" x="90.5" y="-105.3" font-family="Times,serif" font-size="14.00"> IntToPtrCastExpr&lt;ptr&gt;(g35)()</text>
</g>
<!-- Node0x136c0a90&#45;&gt;Node0x136bcef0 -->
<g id="edge5" class="edge"><title>Node0x136c0a90&#45;&gt;Node0x136bcef0</title>
<path fill="none" stroke="black" d="M141.79,-203.393C149.846,-194.138 159.154,-183.446 168.058,-173.216"/>
<polygon fill="black" stroke="black" points="170.835,-175.356 174.761,-165.516 165.555,-170.761 170.835,-175.356"/>
</g>
<!-- Node0x136c1290&#45;&gt;Node0x136bcef0 -->
<g id="edge6" class="edge"><title>Node0x136c1290&#45;&gt;Node0x136bcef0</title>
<path fill="none" stroke="black" d="M248.967,-210.849C242.995,-200.558 235.257,-187.224 227.864,-174.484"/>
<polygon fill="black" stroke="black" points="230.872,-172.695 222.826,-165.803 224.818,-176.209 230.872,-172.695"/>
</g>
<!-- Node0x136be720 -->
<g id="node7" class="node"><title>Node0x136be720</title>
<polygon fill="none" stroke="black" points="176.5,-23.5 176.5,-59.5 230.5,-59.5 230.5,-23.5 176.5,-23.5"/>
<text text-anchor="start" x="184.5" y="-37.8" font-family="Times,serif" font-size="14.00">exit:</text>
</g>
<!-- Node0x136bcef0&#45;&gt;Node0x136be720 -->
<g id="edge7" class="edge"><title>Node0x136bcef0&#45;&gt;Node0x136be720</title>
<path fill="none" stroke="black" d="M203.5,-97.4817C203.5,-88.3281 203.5,-78.4972 203.5,-69.7155"/>
<polygon fill="black" stroke="black" points="207,-69.6402 203.5,-59.6402 200,-69.6403 207,-69.6402"/>
</g>
</g>
</svg>
