<?xml version="1.0" encoding="UTF-8" standalone="no"?>
<!DOCTYPE svg PUBLIC "-//W3C//DTD SVG 1.1//EN"
 "http://www.w3.org/Graphics/SVG/1.1/DTD/svg11.dtd">
<!-- Generated by graphviz version 2.38.0 (20140413.2041)
 -->
<!-- Title: Control&#45;flow graph for function &#39;function_a168()&#39;. Pages: 1 -->
<svg width="1398pt" height="2952pt"
 viewBox="0.00 0.00 1398.00 2952.00" xmlns="http://www.w3.org/2000/svg" xmlns:xlink="http://www.w3.org/1999/xlink">
<g id="graph0" class="graph" transform="scale(1 1) rotate(0) translate(4 2948)">
<title>Control&#45;flow graph for function &#39;function_a168()&#39;.</title>
<polygon fill="white" stroke="none" points="-4,4 -4,-2948 1394,-2948 1394,4 -4,4"/>
<text text-anchor="middle" x="695" y="-7.8" font-family="Times,serif" font-size="14.00">Control&#45;flow graph for function &#39;function_a168()&#39;.</text>
<!-- Node0x34aeed60 -->
<g id="node1" class="node"><title>Node0x34aeed60</title>
<polygon fill="none" stroke="black" points="1173.5,-2907.5 1173.5,-2943.5 1232.5,-2943.5 1232.5,-2907.5 1173.5,-2907.5"/>
<text text-anchor="start" x="1181.5" y="-2921.8" font-family="Times,serif" font-size="14.00">entry:</text>
</g>
<!-- Node0x34aef4e0 -->
<g id="node2" class="node"><title>Node0x34aef4e0</title>
<polygon fill="none" stroke="black" points="1080,-2576.5 1080,-2869.5 1326,-2869.5 1326,-2576.5 1080,-2576.5"/>
<text text-anchor="start" x="1088" y="-2854.3" font-family="Times,serif" font-size="14.00">0x428d32c0:</text>
<text text-anchor="start" x="1088" y="-2839.3" font-family="Times,serif" font-size="14.00"> v1 = g38</text>
<text text-anchor="start" x="1088" y="-2824.3" font-family="Times,serif" font-size="14.00"> v2 = g39</text>
<text text-anchor="start" x="1088" y="-2809.3" font-family="Times,serif" font-size="14.00"> v3 = g40</text>
<text text-anchor="start" x="1088" y="-2794.3" font-family="Times,serif" font-size="14.00"> v4 = g41</text>
<text text-anchor="start" x="1088" y="-2779.3" font-family="Times,serif" font-size="14.00"> v5 = g42</text>
<text text-anchor="start" x="1088" y="-2764.3" font-family="Times,serif" font-size="14.00"> v6 = g32</text>
<text text-anchor="start" x="1088" y="-2749.3" font-family="Times,serif" font-size="14.00"> v7 = g35</text>
<text text-anchor="start" x="1088" y="-2734.3" font-family="Times,serif" font-size="14.00"> g39 = g29</text>
<text text-anchor="start" x="1088" y="-2719.3" font-family="Times,serif" font-size="14.00"> function_f67c()</text>
<text text-anchor="start" x="1088" y="-2704.3" font-family="Times,serif" font-size="14.00"> g42 = g29</text>
<text text-anchor="start" x="1088" y="-2689.3" font-family="Times,serif" font-size="14.00"> g29 = g39</text>
<text text-anchor="start" x="1088" y="-2674.3" font-family="Times,serif" font-size="14.00"> function_f68c()</text>
<text text-anchor="start" x="1088" y="-2659.3" font-family="Times,serif" font-size="14.00"> v8 = ((g29 + 1) &#45; g42)</text>
<text text-anchor="start" x="1088" y="-2644.3" font-family="Times,serif" font-size="14.00"> g29 = v8</text>
<text text-anchor="start" x="1088" y="-2629.3" font-family="Times,serif" font-size="14.00"> v9 = (v8 if (v8 &lt; 100) else 100)</text>
<text text-anchor="start" x="1088" y="-2614.3" font-family="Times,serif" font-size="14.00"> g40 = v9</text>
<text text-anchor="start" x="1088" y="-2599.3" font-family="Times,serif" font-size="14.00"> g37 = 0</text>
<text text-anchor="start" x="1088" y="-2584.3" font-family="Times,serif" font-size="14.00"> v10</text>
</g>
<!-- Node0x34aeed60&#45;&gt;Node0x34aef4e0 -->
<g id="edge1" class="edge"><title>Node0x34aeed60&#45;&gt;Node0x34aef4e0</title>
<path fill="none" stroke="black" d="M1203,-2907.41C1203,-2900.01 1203,-2890.6 1203,-2879.97"/>
<polygon fill="black" stroke="black" points="1206.5,-2879.89 1203,-2869.89 1199.5,-2879.89 1206.5,-2879.89"/>
</g>
<!-- Node0x443896c0 -->
<g id="node3" class="node"><title>Node0x443896c0</title>
<polygon fill="none" stroke="black" points="1152.5,-2500.5 1152.5,-2538.5 1253.5,-2538.5 1253.5,-2500.5 1152.5,-2500.5"/>
<text text-anchor="start" x="1160.5" y="-2523.3" font-family="Times,serif" font-size="14.00">0x7126070:</text>
<text text-anchor="start" x="1160.5" y="-2508.3" font-family="Times,serif" font-size="14.00"> if (v9 &gt; 0):</text>
</g>
<!-- Node0x34aef4e0&#45;&gt;Node0x443896c0 -->
<g id="edge2" class="edge"><title>Node0x34aef4e0&#45;&gt;Node0x443896c0</title>
<path fill="none" stroke="black" d="M1203,-2576.36C1203,-2566.25 1203,-2556.89 1203,-2548.85"/>
<polygon fill="black" stroke="black" points="1206.5,-2548.73 1203,-2538.73 1199.5,-2548.73 1206.5,-2548.73"/>
</g>
<!-- Node0x266317b0 -->
<g id="node4" class="node"><title>Node0x266317b0</title>
<polygon fill="none" stroke="black" points="984.5,-2380.5 984.5,-2448.5 1203.5,-2448.5 1203.5,-2380.5 984.5,-2380.5"/>
<text text-anchor="start" x="992.5" y="-2433.3" font-family="Times,serif" font-size="14.00">0x39774e30:</text>
<text text-anchor="start" x="992.5" y="-2418.3" font-family="Times,serif" font-size="14.00"> v11 = (v9 if (v9 &gt; 1) else 1)</text>
<text text-anchor="start" x="992.5" y="-2403.3" font-family="Times,serif" font-size="14.00"> g37 = v11</text>
<text text-anchor="start" x="992.5" y="-2388.3" font-family="Times,serif" font-size="14.00"> v10 = (v11 + 255)</text>
</g>
<!-- Node0x443896c0&#45;&gt;Node0x266317b0 -->
<g id="edge3" class="edge"><title>Node0x443896c0&#45;&gt;Node0x266317b0</title>
<path fill="none" stroke="black" d="M1183.76,-2500.32C1170.73,-2488 1152.97,-2471.22 1136.69,-2455.84"/>
<polygon fill="black" stroke="black" points="1139.01,-2453.22 1129.34,-2448.89 1134.2,-2458.3 1139.01,-2453.22"/>
<text text-anchor="middle" x="1186" y="-2470.8" font-family="Times,serif" font-size="14.00">v9 &gt; 0</text>
</g>
<!-- Node0xec1cfd0 -->
<g id="node5" class="node"><title>Node0xec1cfd0</title>
<polygon fill="none" stroke="black" points="1142,-2289.5 1142,-2342.5 1252,-2342.5 1252,-2289.5 1142,-2289.5"/>
<text text-anchor="start" x="1150" y="-2327.3" font-family="Times,serif" font-size="14.00">0x1bd40bc0:</text>
<text text-anchor="start" x="1150" y="-2312.3" font-family="Times,serif" font-size="14.00"> v12 = v10</text>
<text text-anchor="start" x="1150" y="-2297.3" font-family="Times,serif" font-size="14.00"> v13 = 1</text>
</g>
<!-- Node0x443896c0&#45;&gt;Node0xec1cfd0 -->
<g id="edge4" class="edge"><title>Node0x443896c0&#45;&gt;Node0xec1cfd0</title>
<path fill="none" stroke="black" d="M1209.67,-2500.17C1211.44,-2494.43 1213.11,-2488.02 1214,-2482 1214.97,-2475.4 1214.08,-2473.67 1214,-2467 1213.56,-2428.33 1216.95,-2418.36 1212,-2380 1210.83,-2370.93 1208.89,-2361.26 1206.78,-2352.28"/>
<polygon fill="black" stroke="black" points="1210.17,-2351.39 1204.37,-2342.52 1203.37,-2353.07 1210.17,-2351.39"/>
<text text-anchor="middle" x="1245" y="-2410.8" font-family="Times,serif" font-size="14.00">v9 &lt;= 0</text>
</g>
<!-- Node0x266317b0&#45;&gt;Node0xec1cfd0 -->
<g id="edge5" class="edge"><title>Node0x266317b0&#45;&gt;Node0xec1cfd0</title>
<path fill="none" stroke="black" d="M1129.45,-2380.29C1140.03,-2370.38 1151.62,-2359.52 1162.16,-2349.64"/>
<polygon fill="black" stroke="black" points="1164.72,-2352.04 1169.62,-2342.65 1159.93,-2346.93 1164.72,-2352.04"/>
</g>
<!-- Node0x38e6c340 -->
<g id="node6" class="node"><title>Node0x38e6c340</title>
<polygon fill="none" stroke="black" points="1146.5,-2213.5 1146.5,-2251.5 1247.5,-2251.5 1247.5,-2213.5 1146.5,-2213.5"/>
<text text-anchor="start" x="1154.5" y="-2236.3" font-family="Times,serif" font-size="14.00">0x601b020:</text>
<text text-anchor="start" x="1154.5" y="-2221.3" font-family="Times,serif" font-size="14.00"> while True:</text>
</g>
<!-- Node0xec1cfd0&#45;&gt;Node0x38e6c340 -->
<g id="edge6" class="edge"><title>Node0xec1cfd0&#45;&gt;Node0x38e6c340</title>
<path fill="none" stroke="black" d="M1197,-2289.21C1197,-2280.53 1197,-2270.79 1197,-2261.91"/>
<polygon fill="black" stroke="black" points="1200.5,-2261.64 1197,-2251.64 1193.5,-2261.64 1200.5,-2261.64"/>
</g>
<!-- Node0x4759f9d0 -->
<g id="node7" class="node"><title>Node0x4759f9d0</title>
<polygon fill="none" stroke="black" points="921,-2033.5 921,-2161.5 1213,-2161.5 1213,-2033.5 921,-2033.5"/>
<text text-anchor="start" x="929" y="-2146.3" font-family="Times,serif" font-size="14.00">0x7126ae0:</text>
<text text-anchor="start" x="929" y="-2131.3" font-family="Times,serif" font-size="14.00"> g38 = v13</text>
<text text-anchor="start" x="929" y="-2116.3" font-family="Times,serif" font-size="14.00"> v14 = (v13 &#45; v9)</text>
<text text-anchor="start" x="929" y="-2101.3" font-family="Times,serif" font-size="14.00"> g6 = (v13 &gt;= v9)</text>
<text text-anchor="start" x="929" y="-2086.3" font-family="Times,serif" font-size="14.00"> g8 = (((v14 ^ v13) &amp; (v13 ^ v9)) &lt; 0)</text>
<text text-anchor="start" x="929" y="-2071.3" font-family="Times,serif" font-size="14.00"> g7 = (v14 &lt; 0)</text>
<text text-anchor="start" x="929" y="-2056.3" font-family="Times,serif" font-size="14.00"> g9 = (v13 == v9)</text>
<text text-anchor="start" x="929" y="-2041.3" font-family="Times,serif" font-size="14.00"> g30 = (v13 + 1)</text>
</g>
<!-- Node0x38e6c340&#45;&gt;Node0x4759f9d0 -->
<g id="edge7" class="edge"><title>Node0x38e6c340&#45;&gt;Node0x4759f9d0</title>
<path fill="none" stroke="black" d="M1179.2,-2213.29C1167.74,-2201.56 1152.04,-2185.5 1136.01,-2169.1"/>
<polygon fill="black" stroke="black" points="1138.13,-2166.26 1128.63,-2161.56 1133.12,-2171.15 1138.13,-2166.26"/>
<text text-anchor="middle" x="1176" y="-2183.8" font-family="Times,serif" font-size="14.00">True</text>
</g>
<!-- Node0x2210a780 -->
<g id="node8" class="node"><title>Node0x2210a780</title>
<polygon fill="none" stroke="black" points="1003.5,-1957.5 1003.5,-1995.5 1130.5,-1995.5 1130.5,-1957.5 1003.5,-1957.5"/>
<text text-anchor="start" x="1011.5" y="-1980.3" font-family="Times,serif" font-size="14.00">0x7128fa0:</text>
<text text-anchor="start" x="1011.5" y="-1965.3" font-family="Times,serif" font-size="14.00"> if (v13 &gt;= v9):</text>
</g>
<!-- Node0x4759f9d0&#45;&gt;Node0x2210a780 -->
<g id="edge8" class="edge"><title>Node0x4759f9d0&#45;&gt;Node0x2210a780</title>
<path fill="none" stroke="black" d="M1067,-2033.17C1067,-2023.6 1067,-2014.16 1067,-2005.85"/>
<polygon fill="black" stroke="black" points="1070.5,-2005.66 1067,-1995.66 1063.5,-2005.66 1070.5,-2005.66"/>
</g>
<!-- Node0x15d783d0 -->
<g id="node9" class="node"><title>Node0x15d783d0</title>
<polygon fill="none" stroke="black" points="973.5,-1792.5 973.5,-1905.5 1074.5,-1905.5 1074.5,-1792.5 973.5,-1792.5"/>
<text text-anchor="start" x="981.5" y="-1890.3" font-family="Times,serif" font-size="14.00">0x71290e0:</text>
<text text-anchor="start" x="981.5" y="-1875.3" font-family="Times,serif" font-size="14.00"> g35 = 0</text>
<text text-anchor="start" x="981.5" y="-1860.3" font-family="Times,serif" font-size="14.00"> v15 = g39</text>
<text text-anchor="start" x="981.5" y="-1845.3" font-family="Times,serif" font-size="14.00"> v16 = 0</text>
<text text-anchor="start" x="981.5" y="-1830.3" font-family="Times,serif" font-size="14.00"> v17 = 0</text>
<text text-anchor="start" x="981.5" y="-1815.3" font-family="Times,serif" font-size="14.00"> v18</text>
<text text-anchor="start" x="981.5" y="-1800.3" font-family="Times,serif" font-size="14.00"> v19</text>
</g>
<!-- Node0x2210a780&#45;&gt;Node0x15d783d0 -->
<g id="edge9" class="edge"><title>Node0x2210a780&#45;&gt;Node0x15d783d0</title>
<path fill="none" stroke="black" d="M1053.78,-1957.22C1050.18,-1951.59 1046.57,-1945.23 1044,-1939 1040.91,-1931.51 1038.25,-1923.45 1035.98,-1915.36"/>
<polygon fill="black" stroke="black" points="1039.32,-1914.29 1033.4,-1905.51 1032.55,-1916.07 1039.32,-1914.29"/>
<text text-anchor="middle" x="1082.5" y="-1927.8" font-family="Times,serif" font-size="14.00">v13 &gt;= v9</text>
</g>
<!-- Node0x442784a0 -->
<g id="node10" class="node"><title>Node0x442784a0</title>
<polygon fill="none" stroke="black" points="1092,-1792.5 1092,-1905.5 1390,-1905.5 1390,-1792.5 1092,-1792.5"/>
<text text-anchor="start" x="1100" y="-1890.3" font-family="Times,serif" font-size="14.00">0x7128090:</text>
<text text-anchor="start" x="1100" y="-1875.3" font-family="Times,serif" font-size="14.00"> g29 = *(IntToPtrCastExpr&lt;ptr&gt;(g39))</text>
<text text-anchor="start" x="1100" y="-1860.3" font-family="Times,serif" font-size="14.00"> function_f234()</text>
<text text-anchor="start" x="1100" y="-1845.3" font-family="Times,serif" font-size="14.00"> g36 = v12</text>
<text text-anchor="start" x="1100" y="-1830.3" font-family="Times,serif" font-size="14.00"> g37 = v12</text>
<text text-anchor="start" x="1100" y="-1815.3" font-family="Times,serif" font-size="14.00"> v9 = g40</text>
<text text-anchor="start" x="1100" y="-1800.3" font-family="Times,serif" font-size="14.00"> v13 = (g38 + 1)</text>
</g>
<!-- Node0x2210a780&#45;&gt;Node0x442784a0 -->
<g id="edge10" class="edge"><title>Node0x2210a780&#45;&gt;Node0x442784a0</title>
<path fill="none" stroke="black" d="M1094.35,-1957.35C1102.94,-1951.56 1112.41,-1945.08 1121,-1939 1133.33,-1930.27 1146.26,-1920.9 1158.88,-1911.64"/>
<polygon fill="black" stroke="black" points="1161.13,-1914.33 1167.12,-1905.58 1156.99,-1908.69 1161.13,-1914.33"/>
<text text-anchor="middle" x="1173.5" y="-1927.8" font-family="Times,serif" font-size="14.00">v13 &lt; v9</text>
</g>
<!-- Node0x44274810 -->
<g id="node11" class="node"><title>Node0x44274810</title>
<polygon fill="none" stroke="black" points="973.5,-1716.5 973.5,-1754.5 1074.5,-1754.5 1074.5,-1716.5 973.5,-1716.5"/>
<text text-anchor="start" x="981.5" y="-1739.3" font-family="Times,serif" font-size="14.00">0x601ad10:</text>
<text text-anchor="start" x="981.5" y="-1724.3" font-family="Times,serif" font-size="14.00"> while True:</text>
</g>
<!-- Node0x15d783d0&#45;&gt;Node0x44274810 -->
<g id="edge11" class="edge"><title>Node0x15d783d0&#45;&gt;Node0x44274810</title>
<path fill="none" stroke="black" d="M1024,-1792.25C1024,-1782.86 1024,-1773.47 1024,-1765.15"/>
<polygon fill="black" stroke="black" points="1027.5,-1764.91 1024,-1754.91 1020.5,-1764.91 1027.5,-1764.91"/>
</g>
<!-- Node0x442784a0&#45;&gt;Node0x38e6c340 -->
<g id="edge12" class="edge"><title>Node0x442784a0&#45;&gt;Node0x38e6c340</title>
<path fill="none" stroke="black" d="M1242.34,-1905.57C1242.77,-1968.46 1240.19,-2073.63 1222,-2162 1219.08,-2176.17 1213.88,-2191.35 1208.97,-2203.9"/>
<polygon fill="black" stroke="black" points="1205.66,-2202.75 1205.15,-2213.33 1212.15,-2205.38 1205.66,-2202.75"/>
</g>
<!-- Node0x351cd7c0 -->
<g id="node12" class="node"><title>Node0x351cd7c0</title>
<polygon fill="none" stroke="black" points="830.5,-1566.5 830.5,-1664.5 1027.5,-1664.5 1027.5,-1566.5 830.5,-1566.5"/>
<text text-anchor="start" x="838.5" y="-1649.3" font-family="Times,serif" font-size="14.00">0x45748d70:</text>
<text text-anchor="start" x="838.5" y="-1634.3" font-family="Times,serif" font-size="14.00"> v20 = ((16 * v17) + v15)</text>
<text text-anchor="start" x="838.5" y="-1619.3" font-family="Times,serif" font-size="14.00"> v21 = v16</text>
<text text-anchor="start" x="838.5" y="-1604.3" font-family="Times,serif" font-size="14.00"> v22</text>
<text text-anchor="start" x="838.5" y="-1589.3" font-family="Times,serif" font-size="14.00"> v23</text>
<text text-anchor="start" x="838.5" y="-1574.3" font-family="Times,serif" font-size="14.00"> v24</text>
</g>
<!-- Node0x44274810&#45;&gt;Node0x351cd7c0 -->
<g id="edge13" class="edge"><title>Node0x44274810&#45;&gt;Node0x351cd7c0</title>
<path fill="none" stroke="black" d="M1009.36,-1716.32C999.88,-1704.54 986.966,-1688.5 974.265,-1672.72"/>
<polygon fill="black" stroke="black" points="976.66,-1670.12 967.663,-1664.52 971.207,-1674.51 976.66,-1670.12"/>
<text text-anchor="middle" x="1011" y="-1686.8" font-family="Times,serif" font-size="14.00">True</text>
</g>
<!-- Node0x351d03d0 -->
<g id="node13" class="node"><title>Node0x351d03d0</title>
<polygon fill="none" stroke="black" points="878.5,-1490.5 878.5,-1528.5 979.5,-1528.5 979.5,-1490.5 878.5,-1490.5"/>
<text text-anchor="start" x="886.5" y="-1513.3" font-family="Times,serif" font-size="14.00">0x6019940:</text>
<text text-anchor="start" x="886.5" y="-1498.3" font-family="Times,serif" font-size="14.00"> while True:</text>
</g>
<!-- Node0x351cd7c0&#45;&gt;Node0x351d03d0 -->
<g id="edge14" class="edge"><title>Node0x351cd7c0&#45;&gt;Node0x351d03d0</title>
<path fill="none" stroke="black" d="M929,-1566.46C929,-1556.95 929,-1547.27 929,-1538.69"/>
<polygon fill="black" stroke="black" points="932.5,-1538.51 929,-1528.51 925.5,-1538.51 932.5,-1538.51"/>
</g>
<!-- Node0x2e124d30 -->
<g id="node14" class="node"><title>Node0x2e124d30</title>
<polygon fill="none" stroke="black" points="666,-1370.5 666,-1438.5 820,-1438.5 820,-1370.5 666,-1370.5"/>
<text text-anchor="start" x="674" y="-1423.3" font-family="Times,serif" font-size="14.00">0x7141190:</text>
<text text-anchor="start" x="674" y="-1408.3" font-family="Times,serif" font-size="14.00"> g37 = v20</text>
<text text-anchor="start" x="674" y="-1393.3" font-family="Times,serif" font-size="14.00"> v25 = (v21 &#45; v9)</text>
<text text-anchor="start" x="674" y="-1378.3" font-family="Times,serif" font-size="14.00"> g33 = (v20 + 332)</text>
</g>
<!-- Node0x351d03d0&#45;&gt;Node0x2e124d30 -->
<g id="edge15" class="edge"><title>Node0x351d03d0&#45;&gt;Node0x2e124d30</title>
<path fill="none" stroke="black" d="M896.175,-1490.32C872.83,-1477.4 840.62,-1459.56 811.759,-1443.58"/>
<polygon fill="black" stroke="black" points="813.366,-1440.47 802.922,-1438.68 809.975,-1446.59 813.366,-1440.47"/>
<text text-anchor="middle" x="876" y="-1460.8" font-family="Times,serif" font-size="14.00">True</text>
</g>
<!-- Node0x44275bf0 -->
<g id="node15" class="node"><title>Node0x44275bf0</title>
<polygon fill="none" stroke="black" points="574.5,-1294.5 574.5,-1332.5 701.5,-1332.5 701.5,-1294.5 574.5,-1294.5"/>
<text text-anchor="start" x="582.5" y="-1317.3" font-family="Times,serif" font-size="14.00">0x7143e20:</text>
<text text-anchor="start" x="582.5" y="-1302.3" font-family="Times,serif" font-size="14.00"> if (v21 &gt;= v9):</text>
</g>
<!-- Node0x2e124d30&#45;&gt;Node0x44275bf0 -->
<g id="edge16" class="edge"><title>Node0x2e124d30&#45;&gt;Node0x44275bf0</title>
<path fill="none" stroke="black" d="M703.902,-1370.36C691.797,-1360.1 678.673,-1348.98 667.347,-1339.38"/>
<polygon fill="black" stroke="black" points="669.35,-1336.48 659.458,-1332.69 664.823,-1341.82 669.35,-1336.48"/>
</g>
<!-- Node0x31497050 -->
<g id="node16" class="node"><title>Node0x31497050</title>
<polygon fill="none" stroke="black" points="0,-862.5 0,-1095.5 518,-1095.5 518,-862.5 0,-862.5"/>
<text text-anchor="start" x="8" y="-1080.3" font-family="Times,serif" font-size="14.00">0x7143f60:</text>
<text text-anchor="start" x="8" y="-1065.3" font-family="Times,serif" font-size="14.00"> g6 = (v21 &gt;= v9)</text>
<text text-anchor="start" x="8" y="-1050.3" font-family="Times,serif" font-size="14.00"> g8 = (((v25 ^ v21) &amp; (v21 ^ v9)) &lt; 0)</text>
<text text-anchor="start" x="8" y="-1035.3" font-family="Times,serif" font-size="14.00"> g7 = (v25 &lt; 0)</text>
<text text-anchor="start" x="8" y="-1020.3" font-family="Times,serif" font-size="14.00"> g9 = (v21 == v9)</text>
<text text-anchor="start" x="8" y="-1005.3" font-family="Times,serif" font-size="14.00"> *(IntToPtrCastExpr&lt;ptr&gt;((v15 + 41))) = TruncCastExpr&lt;int8&gt;(v17)</text>
<text text-anchor="start" x="8" y="-990.3" font-family="Times,serif" font-size="14.00"> g38 = v1</text>
<text text-anchor="start" x="8" y="-975.3" font-family="Times,serif" font-size="14.00"> g39 = v2</text>
<text text-anchor="start" x="8" y="-960.3" font-family="Times,serif" font-size="14.00"> g40 = v3</text>
<text text-anchor="start" x="8" y="-945.3" font-family="Times,serif" font-size="14.00"> g41 = v4</text>
<text text-anchor="start" x="8" y="-930.3" font-family="Times,serif" font-size="14.00"> g42 = v5</text>
<text text-anchor="start" x="8" y="-915.3" font-family="Times,serif" font-size="14.00"> g32 = v6</text>
<text text-anchor="start" x="8" y="-900.3" font-family="Times,serif" font-size="14.00"> g34 = v19</text>
<text text-anchor="start" x="8" y="-885.3" font-family="Times,serif" font-size="14.00"> IntToPtrCastExpr&lt;ptr&gt;(v7)()</text>
<text text-anchor="start" x="8" y="-870.3" font-family="Times,serif" font-size="14.00"> return</text>
</g>
<!-- Node0x44275bf0&#45;&gt;Node0x31497050 -->
<g id="edge17" class="edge"><title>Node0x44275bf0&#45;&gt;Node0x31497050</title>
<path fill="none" stroke="black" d="M574.274,-1304.33C499.777,-1293.58 382.51,-1272.52 350,-1243 311.017,-1207.6 288.733,-1154.68 275.995,-1105.57"/>
<polygon fill="black" stroke="black" points="279.377,-1104.66 273.573,-1095.8 272.583,-1106.35 279.377,-1104.66"/>
<text text-anchor="middle" x="462.5" y="-1264.8" font-family="Times,serif" font-size="14.00">v21 &gt;= v9</text>
</g>
<!-- Node0x44277070 -->
<g id="node17" class="node"><title>Node0x44277070</title>
<polygon fill="none" stroke="black" points="359.5,-1114.5 359.5,-1242.5 916.5,-1242.5 916.5,-1114.5 359.5,-1114.5"/>
<text text-anchor="start" x="367.5" y="-1227.3" font-family="Times,serif" font-size="14.00">0x31d22160:</text>
<text text-anchor="start" x="367.5" y="-1212.3" font-family="Times,serif" font-size="14.00"> v26 = ExtCastExpr&lt;int32&gt;(*(IntToPtrCastExpr&lt;ptr&gt;((v15 + 12))))</text>
<text text-anchor="start" x="367.5" y="-1197.3" font-family="Times,serif" font-size="14.00"> g30 = v26</text>
<text text-anchor="start" x="367.5" y="-1182.3" font-family="Times,serif" font-size="14.00"> v24 = ((256 * ((v12 &#45; v26) + g42)) + *(IntToPtrCastExpr&lt;ptr&gt;((v15 + 8))))</text>
<text text-anchor="start" x="367.5" y="-1167.3" font-family="Times,serif" font-size="14.00"> g36 = v24</text>
<text text-anchor="start" x="367.5" y="-1152.3" font-family="Times,serif" font-size="14.00"> v22 = (v24 + 12)</text>
<text text-anchor="start" x="367.5" y="-1137.3" font-family="Times,serif" font-size="14.00"> g29 = v22</text>
<text text-anchor="start" x="367.5" y="-1122.3" font-family="Times,serif" font-size="14.00"> v23 = (v21 + 1)</text>
</g>
<!-- Node0x44275bf0&#45;&gt;Node0x44277070 -->
<g id="edge18" class="edge"><title>Node0x44275bf0&#45;&gt;Node0x44277070</title>
<path fill="none" stroke="black" d="M638,-1294.29C638,-1283.2 638,-1268.22 638,-1252.76"/>
<polygon fill="black" stroke="black" points="641.5,-1252.56 638,-1242.56 634.5,-1252.56 641.5,-1252.56"/>
<text text-anchor="middle" x="670.5" y="-1264.8" font-family="Times,serif" font-size="14.00">v21 &lt; v9</text>
</g>
<!-- Node0x15d7b0d0 -->
<g id="node18" class="node"><title>Node0x15d7b0d0</title>
<polygon fill="none" stroke="black" points="298,-23.5 298,-59.5 352,-59.5 352,-23.5 298,-23.5"/>
<text text-anchor="start" x="306" y="-37.8" font-family="Times,serif" font-size="14.00">exit:</text>
</g>
<!-- Node0x31497050&#45;&gt;Node0x15d7b0d0 -->
<g id="edge19" class="edge"><title>Node0x31497050&#45;&gt;Node0x15d7b0d0</title>
<path fill="none" stroke="black" d="M249.619,-862.411C248.093,-835.542 247,-807.036 247,-780.5 247,-780.5 247,-780.5 247,-183 247,-143.856 246.508,-130.946 266,-97 272.684,-85.3589 282.684,-74.7663 292.561,-66.0797"/>
<polygon fill="black" stroke="black" points="294.961,-68.6359 300.39,-59.5382 290.472,-63.2642 294.961,-68.6359"/>
</g>
<!-- Node0x44279720 -->
<g id="node19" class="node"><title>Node0x44279720</title>
<polygon fill="none" stroke="black" points="439.5,-805.5 439.5,-843.5 836.5,-843.5 836.5,-805.5 439.5,-805.5"/>
<text text-anchor="start" x="447.5" y="-828.3" font-family="Times,serif" font-size="14.00">0x7143d60:</text>
<text text-anchor="start" x="447.5" y="-813.3" font-family="Times,serif" font-size="14.00"> if ((*(IntToPtrCastExpr&lt;ptr&gt;((v24 + 8))) % 2) != 0):</text>
</g>
<!-- Node0x44277070&#45;&gt;Node0x44279720 -->
<g id="edge20" class="edge"><title>Node0x44277070&#45;&gt;Node0x44279720</title>
<path fill="none" stroke="black" d="M638,-1114.16C638,-1037.15 638,-910.499 638,-854.116"/>
<polygon fill="black" stroke="black" points="641.5,-853.812 638,-843.812 634.5,-853.812 641.5,-853.812"/>
</g>
<!-- Node0x17666df0 -->
<g id="node20" class="node"><title>Node0x17666df0</title>
<polygon fill="none" stroke="black" points="432,-715.5 432,-753.5 530,-753.5 530,-715.5 432,-715.5"/>
<text text-anchor="start" x="440" y="-738.3" font-family="Times,serif" font-size="14.00">0x71439f0:</text>
<text text-anchor="start" x="440" y="-723.3" font-family="Times,serif" font-size="14.00"> break</text>
</g>
<!-- Node0x44279720&#45;&gt;Node0x17666df0 -->
<g id="edge21" class="edge"><title>Node0x44279720&#45;&gt;Node0x17666df0</title>
<path fill="none" stroke="black" d="M439.292,-813.291C369.227,-807.629 304.97,-799.195 294,-787 289.542,-782.043 289.761,-777.146 294,-772 310.001,-752.573 373.057,-743.345 421.57,-739.055"/>
<polygon fill="black" stroke="black" points="422.005,-742.531 431.68,-738.213 421.424,-735.555 422.005,-742.531"/>
<text text-anchor="middle" x="467.5" y="-775.8" font-family="Times,serif" font-size="14.00">(*(IntToPtrCastExpr&lt;ptr&gt;((v24 + 8))) % 2) != 0</text>
</g>
<!-- Node0x31499a00 -->
<g id="node21" class="node"><title>Node0x31499a00</title>
<polygon fill="none" stroke="black" points="652.5,-715.5 652.5,-753.5 753.5,-753.5 753.5,-715.5 652.5,-715.5"/>
<text text-anchor="start" x="660.5" y="-738.3" font-family="Times,serif" font-size="14.00">0x7143640:</text>
<text text-anchor="start" x="660.5" y="-723.3" font-family="Times,serif" font-size="14.00"> v21 = v23</text>
</g>
<!-- Node0x44279720&#45;&gt;Node0x31499a00 -->
<g id="edge22" class="edge"><title>Node0x44279720&#45;&gt;Node0x31499a00</title>
<path fill="none" stroke="black" d="M639.479,-805.041C641.056,-794.597 644.306,-781.722 651,-772 653.973,-767.682 657.635,-763.709 661.627,-760.102"/>
<polygon fill="black" stroke="black" points="664.055,-762.64 669.617,-753.622 659.646,-757.203 664.055,-762.64"/>
<text text-anchor="middle" x="827.5" y="-775.8" font-family="Times,serif" font-size="14.00">(*(IntToPtrCastExpr&lt;ptr&gt;((v24 + 8))) % 2) == 0</text>
</g>
<!-- Node0x4759bd80 -->
<g id="node22" class="node"><title>Node0x4759bd80</title>
<polygon fill="none" stroke="black" points="340.5,-489.5 340.5,-677.5 687.5,-677.5 687.5,-489.5 340.5,-489.5"/>
<text text-anchor="start" x="348.5" y="-662.3" font-family="Times,serif" font-size="14.00">0x6016540:</text>
<text text-anchor="start" x="348.5" y="-647.3" font-family="Times,serif" font-size="14.00"> v18 = (v17 + 1)</text>
<text text-anchor="start" x="348.5" y="-632.3" font-family="Times,serif" font-size="14.00"> g35 = v18</text>
<text text-anchor="start" x="348.5" y="-617.3" font-family="Times,serif" font-size="14.00"> g6 = (v18 &gt; 18)</text>
<text text-anchor="start" x="348.5" y="-602.3" font-family="Times,serif" font-size="14.00"> g8 = ((v18 &amp; (17 &#45; v17)) &lt; 0)</text>
<text text-anchor="start" x="348.5" y="-587.3" font-family="Times,serif" font-size="14.00"> g7 = (v17 &lt; 18)</text>
<text text-anchor="start" x="348.5" y="-572.3" font-family="Times,serif" font-size="14.00"> g9 = (v18 == 19)</text>
<text text-anchor="start" x="348.5" y="-557.3" font-family="Times,serif" font-size="14.00"> v19 = *(IntToPtrCastExpr&lt;ptr&gt;(v22))</text>
<text text-anchor="start" x="348.5" y="-542.3" font-family="Times,serif" font-size="14.00"> g29 = v19</text>
<text text-anchor="start" x="348.5" y="-527.3" font-family="Times,serif" font-size="14.00"> g30 = *(IntToPtrCastExpr&lt;ptr&gt;((v24 + 16)))</text>
<text text-anchor="start" x="348.5" y="-512.3" font-family="Times,serif" font-size="14.00"> g36 = *(IntToPtrCastExpr&lt;ptr&gt;((v24 + 20)))</text>
<text text-anchor="start" x="348.5" y="-497.3" font-family="Times,serif" font-size="14.00"> g37 = *(IntToPtrCastExpr&lt;ptr&gt;((v24 + 24)))</text>
</g>
<!-- Node0x17666df0&#45;&gt;Node0x4759bd80 -->
<g id="edge23" class="edge"><title>Node0x17666df0&#45;&gt;Node0x4759bd80</title>
<path fill="none" stroke="black" d="M485.046,-715.23C486.746,-707.555 488.868,-697.976 491.185,-687.514"/>
<polygon fill="black" stroke="black" points="494.616,-688.207 493.361,-677.687 487.782,-686.693 494.616,-688.207"/>
</g>
<!-- Node0x31499a00&#45;&gt;Node0x351d03d0 -->
<g id="edge24" class="edge"><title>Node0x31499a00&#45;&gt;Node0x351d03d0</title>
<path fill="none" stroke="black" d="M753.581,-735.026C829.411,-735.38 967.568,-740.494 1004,-772 1021.94,-787.515 1018,-799.78 1018,-823.5 1018,-1405.5 1018,-1405.5 1018,-1405.5 1018,-1438.27 991.893,-1465.75 967.958,-1484.07"/>
<polygon fill="black" stroke="black" points="965.636,-1481.43 959.629,-1490.16 969.767,-1487.08 965.636,-1481.43"/>
</g>
<!-- Node0x17664fc0 -->
<g id="node23" class="node"><title>Node0x17664fc0</title>
<polygon fill="none" stroke="black" points="476,-413.5 476,-451.5 592,-451.5 592,-413.5 476,-413.5"/>
<text text-anchor="start" x="484" y="-436.3" font-family="Times,serif" font-size="14.00">0x60196d0:</text>
<text text-anchor="start" x="484" y="-421.3" font-family="Times,serif" font-size="14.00"> if (v18 &gt; 19):</text>
</g>
<!-- Node0x4759bd80&#45;&gt;Node0x17664fc0 -->
<g id="edge25" class="edge"><title>Node0x4759bd80&#45;&gt;Node0x17664fc0</title>
<path fill="none" stroke="black" d="M526.496,-489.406C527.835,-479.426 529.111,-469.921 530.218,-461.673"/>
<polygon fill="black" stroke="black" points="533.706,-461.996 531.568,-451.619 526.769,-461.065 533.706,-461.996"/>
</g>
<!-- Node0x31495be0 -->
<g id="node24" class="node"><title>Node0x31495be0</title>
<polygon fill="none" stroke="black" points="485,-316 485,-354 583,-354 583,-316 485,-316"/>
<text text-anchor="start" x="493" y="-338.8" font-family="Times,serif" font-size="14.00">0x60194f0:</text>
<text text-anchor="start" x="493" y="-323.8" font-family="Times,serif" font-size="14.00"> break</text>
</g>
<!-- Node0x17664fc0&#45;&gt;Node0x31495be0 -->
<g id="edge26" class="edge"><title>Node0x17664fc0&#45;&gt;Node0x31495be0</title>
<path fill="none" stroke="black" d="M534,-413.087C534,-399.258 534,-380.071 534,-364.299"/>
<polygon fill="black" stroke="black" points="537.5,-364.033 534,-354.033 530.5,-364.033 537.5,-364.033"/>
<text text-anchor="middle" x="567" y="-383.8" font-family="Times,serif" font-size="14.00">v18 &gt; 19</text>
</g>
<!-- Node0x2e122e70 -->
<g id="node25" class="node"><title>Node0x2e122e70</title>
<polygon fill="none" stroke="black" points="763.5,-308.5 763.5,-361.5 864.5,-361.5 864.5,-308.5 763.5,-308.5"/>
<text text-anchor="start" x="771.5" y="-346.3" font-family="Times,serif" font-size="14.00">0x6018e50:</text>
<text text-anchor="start" x="771.5" y="-331.3" font-family="Times,serif" font-size="14.00"> v16 = v23</text>
<text text-anchor="start" x="771.5" y="-316.3" font-family="Times,serif" font-size="14.00"> v17 = v18</text>
</g>
<!-- Node0x17664fc0&#45;&gt;Node0x2e122e70 -->
<g id="edge27" class="edge"><title>Node0x17664fc0&#45;&gt;Node0x2e122e70</title>
<path fill="none" stroke="black" d="M586.995,-413.425C634.41,-397.253 703.884,-373.558 753.47,-356.645"/>
<polygon fill="black" stroke="black" points="754.775,-359.898 763.11,-353.357 752.515,-353.273 754.775,-359.898"/>
<text text-anchor="middle" x="722" y="-383.8" font-family="Times,serif" font-size="14.00">v18 &lt;= 19</text>
</g>
<!-- Node0x26630fe0 -->
<g id="node26" class="node"><title>Node0x26630fe0</title>
<polygon fill="none" stroke="black" points="275,-97.5 275,-270.5 793,-270.5 793,-97.5 275,-97.5"/>
<text text-anchor="start" x="283" y="-255.3" font-family="Times,serif" font-size="14.00">0x6019ec0:</text>
<text text-anchor="start" x="283" y="-240.3" font-family="Times,serif" font-size="14.00"> *(IntToPtrCastExpr&lt;ptr&gt;((v15 + 41))) = TruncCastExpr&lt;int8&gt;(v18)</text>
<text text-anchor="start" x="283" y="-225.3" font-family="Times,serif" font-size="14.00"> g38 = v1</text>
<text text-anchor="start" x="283" y="-210.3" font-family="Times,serif" font-size="14.00"> g39 = v2</text>
<text text-anchor="start" x="283" y="-195.3" font-family="Times,serif" font-size="14.00"> g40 = v3</text>
<text text-anchor="start" x="283" y="-180.3" font-family="Times,serif" font-size="14.00"> g41 = v4</text>
<text text-anchor="start" x="283" y="-165.3" font-family="Times,serif" font-size="14.00"> g42 = v5</text>
<text text-anchor="start" x="283" y="-150.3" font-family="Times,serif" font-size="14.00"> g32 = v6</text>
<text text-anchor="start" x="283" y="-135.3" font-family="Times,serif" font-size="14.00"> g34 = v19</text>
<text text-anchor="start" x="283" y="-120.3" font-family="Times,serif" font-size="14.00"> IntToPtrCastExpr&lt;ptr&gt;(v7)()</text>
<text text-anchor="start" x="283" y="-105.3" font-family="Times,serif" font-size="14.00"> return</text>
</g>
<!-- Node0x31495be0&#45;&gt;Node0x26630fe0 -->
<g id="edge28" class="edge"><title>Node0x31495be0&#45;&gt;Node0x26630fe0</title>
<path fill="none" stroke="black" d="M534,-315.73C534,-306.379 534,-294.203 534,-281.046"/>
<polygon fill="black" stroke="black" points="537.5,-280.824 534,-270.824 530.5,-280.824 537.5,-280.824"/>
</g>
<!-- Node0x2e122e70&#45;&gt;Node0x44274810 -->
<g id="edge29" class="edge"><title>Node0x2e122e70&#45;&gt;Node0x44274810</title>
<path fill="none" stroke="black" d="M864.731,-345.383C935.693,-359.98 1056,-390.737 1056,-431.5 1056,-1616.5 1056,-1616.5 1056,-1616.5 1056,-1648.26 1045.07,-1683.2 1035.98,-1706.76"/>
<polygon fill="black" stroke="black" points="1032.71,-1705.53 1032.24,-1716.12 1039.2,-1708.13 1032.71,-1705.53"/>
</g>
<!-- Node0x26630fe0&#45;&gt;Node0x15d7b0d0 -->
<g id="edge30" class="edge"><title>Node0x26630fe0&#45;&gt;Node0x15d7b0d0</title>
<path fill="none" stroke="black" d="M406.703,-97.4246C389.223,-85.6741 372.639,-74.5249 359.036,-65.3806"/>
<polygon fill="black" stroke="black" points="360.8,-62.3492 350.548,-59.6748 356.895,-68.1585 360.8,-62.3492"/>
</g>
</g>
</svg>
