<?xml version="1.0" encoding="UTF-8" standalone="no"?>
<!DOCTYPE svg PUBLIC "-//W3C//DTD SVG 1.1//EN"
 "http://www.w3.org/Graphics/SVG/1.1/DTD/svg11.dtd">
<!-- Generated by graphviz version 2.38.0 (20140413.2041)
 -->
<!-- Title: Control&#45;flow graph for function &#39;SpPlaybackSeek()&#39;. Pages: 1 -->
<svg width="702pt" height="1303pt"
 viewBox="0.00 0.00 702.00 1303.00" xmlns="http://www.w3.org/2000/svg" xmlns:xlink="http://www.w3.org/1999/xlink">
<g id="graph0" class="graph" transform="scale(1 1) rotate(0) translate(4 1299)">
<title>Control&#45;flow graph for function &#39;SpPlaybackSeek()&#39;.</title>
<polygon fill="white" stroke="none" points="-4,4 -4,-1299 698,-1299 698,4 -4,4"/>
<text text-anchor="middle" x="347" y="-7.8" font-family="Times,serif" font-size="14.00">Control&#45;flow graph for function &#39;SpPlaybackSeek()&#39;.</text>
<!-- Node0x478fa2f0 -->
<g id="node1" class="node"><title>Node0x478fa2f0</title>
<polygon fill="none" stroke="black" points="262.5,-1258.5 262.5,-1294.5 321.5,-1294.5 321.5,-1258.5 262.5,-1258.5"/>
<text text-anchor="start" x="270.5" y="-1272.8" font-family="Times,serif" font-size="14.00">entry:</text>
</g>
<!-- Node0x383b3990 -->
<g id="node2" class="node"><title>Node0x383b3990</title>
<polygon fill="none" stroke="black" points="134.5,-1062.5 134.5,-1220.5 449.5,-1220.5 449.5,-1062.5 134.5,-1062.5"/>
<text text-anchor="start" x="142.5" y="-1205.3" font-family="Times,serif" font-size="14.00">0x34897c40:</text>
<text text-anchor="start" x="142.5" y="-1190.3" font-family="Times,serif" font-size="14.00"> v1 = g38</text>
<text text-anchor="start" x="142.5" y="-1175.3" font-family="Times,serif" font-size="14.00"> v2 = g39</text>
<text text-anchor="start" x="142.5" y="-1160.3" font-family="Times,serif" font-size="14.00"> v3 = g40</text>
<text text-anchor="start" x="142.5" y="-1145.3" font-family="Times,serif" font-size="14.00"> g38 = 165012</text>
<text text-anchor="start" x="142.5" y="-1130.3" font-family="Times,serif" font-size="14.00"> v4 = *(IntToPtrCastExpr&lt;ptr&gt;(165212))</text>
<text text-anchor="start" x="142.5" y="-1115.3" font-family="Times,serif" font-size="14.00"> g40 = v4</text>
<text text-anchor="start" x="142.5" y="-1100.3" font-family="Times,serif" font-size="14.00"> v5 = g29</text>
<text text-anchor="start" x="142.5" y="-1085.3" font-family="Times,serif" font-size="14.00"> g39 = v5</text>
<text text-anchor="start" x="142.5" y="-1070.3" font-family="Times,serif" font-size="14.00"> v6 = v5</text>
</g>
<!-- Node0x478fa2f0&#45;&gt;Node0x383b3990 -->
<g id="edge1" class="edge"><title>Node0x478fa2f0&#45;&gt;Node0x383b3990</title>
<path fill="none" stroke="black" d="M292,-1258.38C292,-1250.78 292,-1241.21 292,-1230.83"/>
<polygon fill="black" stroke="black" points="295.5,-1230.68 292,-1220.68 288.5,-1230.68 295.5,-1230.68"/>
</g>
<!-- Node0x28477780 -->
<g id="node3" class="node"><title>Node0x28477780</title>
<polygon fill="none" stroke="black" points="139.5,-986.5 139.5,-1024.5 444.5,-1024.5 444.5,-986.5 139.5,-986.5"/>
<text text-anchor="start" x="147.5" y="-1009.3" font-family="Times,serif" font-size="14.00">0x82f9250:</text>
<text text-anchor="start" x="147.5" y="-994.3" font-family="Times,serif" font-size="14.00"> if (*(IntToPtrCastExpr&lt;ptr&gt;(v4)) != 0):</text>
</g>
<!-- Node0x383b3990&#45;&gt;Node0x28477780 -->
<g id="edge2" class="edge"><title>Node0x383b3990&#45;&gt;Node0x28477780</title>
<path fill="none" stroke="black" d="M292,-1062.16C292,-1052.45 292,-1043.06 292,-1034.85"/>
<polygon fill="black" stroke="black" points="295.5,-1034.8 292,-1024.8 288.5,-1034.8 295.5,-1034.8"/>
</g>
<!-- Node0x383b50c0 -->
<g id="node4" class="node"><title>Node0x383b50c0</title>
<polygon fill="none" stroke="black" points="116,-851.5 116,-934.5 328,-934.5 328,-851.5 116,-851.5"/>
<text text-anchor="start" x="124" y="-919.3" font-family="Times,serif" font-size="14.00">0x82f88a0:</text>
<text text-anchor="start" x="124" y="-904.3" font-family="Times,serif" font-size="14.00"> g30 = 157400</text>
<text text-anchor="start" x="124" y="-889.3" font-family="Times,serif" font-size="14.00"> g36 = v5</text>
<text text-anchor="start" x="124" y="-874.3" font-family="Times,serif" font-size="14.00"> imported_function_ord_0()</text>
<text text-anchor="start" x="124" y="-859.3" font-family="Times,serif" font-size="14.00"> v6 = g39</text>
</g>
<!-- Node0x28477780&#45;&gt;Node0x383b50c0 -->
<g id="edge3" class="edge"><title>Node0x28477780&#45;&gt;Node0x383b50c0</title>
<path fill="none" stroke="black" d="M194.332,-986.438C177.448,-981.374 163.526,-975.233 158,-968 151.724,-959.786 152.049,-951.295 156.191,-943.123"/>
<polygon fill="black" stroke="black" points="159.14,-945.01 161.773,-934.748 153.315,-941.128 159.14,-945.01"/>
<text text-anchor="middle" x="286" y="-956.8" font-family="Times,serif" font-size="14.00">*(IntToPtrCastExpr&lt;ptr&gt;(v4)) != 0</text>
</g>
<!-- Node0x478fd010 -->
<g id="node5" class="node"><title>Node0x478fd010</title>
<polygon fill="none" stroke="black" points="226,-670.5 226,-813.5 514,-813.5 514,-670.5 226,-670.5"/>
<text text-anchor="start" x="234" y="-798.3" font-family="Times,serif" font-size="14.00">0x82f93d0:</text>
<text text-anchor="start" x="234" y="-783.3" font-family="Times,serif" font-size="14.00"> g29 = v6</text>
<text text-anchor="start" x="234" y="-768.3" font-family="Times,serif" font-size="14.00"> function_16fa4()</text>
<text text-anchor="start" x="234" y="-753.3" font-family="Times,serif" font-size="14.00"> v7 = *(IntToPtrCastExpr&lt;ptr&gt;(g40))</text>
<text text-anchor="start" x="234" y="-738.3" font-family="Times,serif" font-size="14.00"> g37 = v7</text>
<text text-anchor="start" x="234" y="-723.3" font-family="Times,serif" font-size="14.00"> v8 = g29</text>
<text text-anchor="start" x="234" y="-708.3" font-family="Times,serif" font-size="14.00"> g39 = v8</text>
<text text-anchor="start" x="234" y="-693.3" font-family="Times,serif" font-size="14.00"> g9 = (v7 == 0)</text>
<text text-anchor="start" x="234" y="-678.3" font-family="Times,serif" font-size="14.00"> v9 = v8</text>
</g>
<!-- Node0x28477780&#45;&gt;Node0x478fd010 -->
<g id="edge4" class="edge"><title>Node0x28477780&#45;&gt;Node0x478fd010</title>
<path fill="none" stroke="black" d="M393.32,-986.409C401.278,-981.576 408.388,-975.536 414,-968 444.801,-926.635 433.151,-869.502 414.131,-823.16"/>
<polygon fill="black" stroke="black" points="417.255,-821.564 410.107,-813.744 410.818,-824.315 417.255,-821.564"/>
<text text-anchor="middle" x="563" y="-889.3" font-family="Times,serif" font-size="14.00">*(IntToPtrCastExpr&lt;ptr&gt;(v4)) == 0</text>
</g>
<!-- Node0x383b50c0&#45;&gt;Node0x478fd010 -->
<g id="edge5" class="edge"><title>Node0x383b50c0&#45;&gt;Node0x478fd010</title>
<path fill="none" stroke="black" d="M262.442,-851.285C271.829,-841.834 282.131,-831.462 292.525,-820.999"/>
<polygon fill="black" stroke="black" points="295.161,-823.311 299.725,-813.75 290.194,-818.378 295.161,-823.311"/>
</g>
<!-- Node0x478f9af0 -->
<g id="node6" class="node"><title>Node0x478f9af0</title>
<polygon fill="none" stroke="black" points="318,-594.5 318,-632.5 422,-632.5 422,-594.5 318,-594.5"/>
<text text-anchor="start" x="326" y="-617.3" font-family="Times,serif" font-size="14.00">0x82fb7f0:</text>
<text text-anchor="start" x="326" y="-602.3" font-family="Times,serif" font-size="14.00"> if (v7 != 0):</text>
</g>
<!-- Node0x478fd010&#45;&gt;Node0x478f9af0 -->
<g id="edge6" class="edge"><title>Node0x478fd010&#45;&gt;Node0x478f9af0</title>
<path fill="none" stroke="black" d="M370,-670.353C370,-660.594 370,-651.073 370,-642.737"/>
<polygon fill="black" stroke="black" points="373.5,-642.54 370,-632.54 366.5,-642.54 373.5,-642.54"/>
</g>
<!-- Node0x478fbab0 -->
<g id="node7" class="node"><title>Node0x478fbab0</title>
<polygon fill="none" stroke="black" points="158,-459.5 158,-542.5 370,-542.5 370,-459.5 158,-459.5"/>
<text text-anchor="start" x="166" y="-527.3" font-family="Times,serif" font-size="14.00">0x82fae00:</text>
<text text-anchor="start" x="166" y="-512.3" font-family="Times,serif" font-size="14.00"> g30 = (g38 &#45; 7612)</text>
<text text-anchor="start" x="166" y="-497.3" font-family="Times,serif" font-size="14.00"> g36 = v8</text>
<text text-anchor="start" x="166" y="-482.3" font-family="Times,serif" font-size="14.00"> imported_function_ord_0()</text>
<text text-anchor="start" x="166" y="-467.3" font-family="Times,serif" font-size="14.00"> v9 = g39</text>
</g>
<!-- Node0x478f9af0&#45;&gt;Node0x478fbab0 -->
<g id="edge7" class="edge"><title>Node0x478f9af0&#45;&gt;Node0x478fbab0</title>
<path fill="none" stroke="black" d="M352.496,-594.253C340.975,-582.242 325.311,-565.914 310.363,-550.331"/>
<polygon fill="black" stroke="black" points="312.552,-547.557 303.104,-542.764 307.5,-552.403 312.552,-547.557"/>
<text text-anchor="middle" x="359" y="-564.8" font-family="Times,serif" font-size="14.00">v7 != 0</text>
</g>
<!-- Node0x383ae370 -->
<g id="node8" class="node"><title>Node0x383ae370</title>
<polygon fill="none" stroke="black" points="243,-278.5 243,-421.5 485,-421.5 485,-278.5 243,-278.5"/>
<text text-anchor="start" x="251" y="-406.3" font-family="Times,serif" font-size="14.00">0x82fb970:</text>
<text text-anchor="start" x="251" y="-391.3" font-family="Times,serif" font-size="14.00"> g29 = v9</text>
<text text-anchor="start" x="251" y="-376.3" font-family="Times,serif" font-size="14.00"> g38 = v1</text>
<text text-anchor="start" x="251" y="-361.3" font-family="Times,serif" font-size="14.00"> g39 = v2</text>
<text text-anchor="start" x="251" y="-346.3" font-family="Times,serif" font-size="14.00"> g40 = v3</text>
<text text-anchor="start" x="251" y="-331.3" font-family="Times,serif" font-size="14.00"> v10</text>
<text text-anchor="start" x="251" y="-316.3" font-family="Times,serif" font-size="14.00"> g34 = v10</text>
<text text-anchor="start" x="251" y="-301.3" font-family="Times,serif" font-size="14.00"> IntToPtrCastExpr&lt;ptr&gt;(g35)()</text>
<text text-anchor="start" x="251" y="-286.3" font-family="Times,serif" font-size="14.00"> v11 = (g34 % 256)</text>
</g>
<!-- Node0x478f9af0&#45;&gt;Node0x383ae370 -->
<g id="edge8" class="edge"><title>Node0x478f9af0&#45;&gt;Node0x383ae370</title>
<path fill="none" stroke="black" d="M382.288,-594.309C385.436,-588.682 388.387,-582.3 390,-576 391.653,-569.542 390.358,-567.657 390,-561 387.701,-518.233 382.103,-470.867 376.689,-431.96"/>
<polygon fill="black" stroke="black" points="380.11,-431.153 375.244,-421.741 373.179,-432.133 380.11,-431.153"/>
<text text-anchor="middle" x="418" y="-497.3" font-family="Times,serif" font-size="14.00">v7 == 0</text>
</g>
<!-- Node0x478fbab0&#45;&gt;Node0x383ae370 -->
<g id="edge9" class="edge"><title>Node0x478fbab0&#45;&gt;Node0x383ae370</title>
<path fill="none" stroke="black" d="M291.325,-459.285C297.425,-450.197 304.095,-440.259 310.842,-430.206"/>
<polygon fill="black" stroke="black" points="313.85,-432.004 316.517,-421.75 308.038,-428.103 313.85,-432.004"/>
</g>
<!-- Node0x383b3390 -->
<g id="node9" class="node"><title>Node0x383b3390</title>
<polygon fill="none" stroke="black" points="317.5,-202.5 317.5,-240.5 410.5,-240.5 410.5,-202.5 317.5,-202.5"/>
<text text-anchor="start" x="325.5" y="-225.3" font-family="Times,serif" font-size="14.00">0x82fe0f0:</text>
<text text-anchor="start" x="325.5" y="-210.3" font-family="Times,serif" font-size="14.00"> if g9:</text>
</g>
<!-- Node0x383ae370&#45;&gt;Node0x383b3390 -->
<g id="edge10" class="edge"><title>Node0x383ae370&#45;&gt;Node0x383b3390</title>
<path fill="none" stroke="black" d="M364,-278.353C364,-268.594 364,-259.073 364,-250.737"/>
<polygon fill="black" stroke="black" points="367.5,-250.54 364,-240.54 360.5,-250.54 367.5,-250.54"/>
</g>
<!-- Node0x478f9340 -->
<g id="node10" class="node"><title>Node0x478f9340</title>
<polygon fill="none" stroke="black" points="0,-97.5 0,-150.5 386,-150.5 386,-97.5 0,-97.5"/>
<text text-anchor="start" x="8" y="-135.3" font-family="Times,serif" font-size="14.00">0x82fd690:</text>
<text text-anchor="start" x="8" y="-120.3" font-family="Times,serif" font-size="14.00"> g36 = (g30 &amp; (g38 &gt;&gt; (32 if (v11 &gt; 32) else v11)))</text>
<text text-anchor="start" x="8" y="-105.3" font-family="Times,serif" font-size="14.00"> g29 = (g29 &amp; (g42 / 2))</text>
</g>
<!-- Node0x383b3390&#45;&gt;Node0x478f9340 -->
<g id="edge11" class="edge"><title>Node0x383b3390&#45;&gt;Node0x478f9340</title>
<path fill="none" stroke="black" d="M331.434,-202.312C307.738,-189.079 275.098,-170.85 247.464,-155.417"/>
<polygon fill="black" stroke="black" points="249.123,-152.335 238.685,-150.514 245.709,-158.446 249.123,-152.335"/>
<text text-anchor="middle" x="302.5" y="-172.8" font-family="Times,serif" font-size="14.00">g9</text>
</g>
<!-- Node0x383ae870 -->
<g id="node11" class="node"><title>Node0x383ae870</title>
<polygon fill="none" stroke="black" points="331,-23.5 331,-59.5 385,-59.5 385,-23.5 331,-23.5"/>
<text text-anchor="start" x="339" y="-37.8" font-family="Times,serif" font-size="14.00">exit:</text>
</g>
<!-- Node0x383b3390&#45;&gt;Node0x383ae870 -->
<g id="edge12" class="edge"><title>Node0x383b3390&#45;&gt;Node0x383ae870</title>
<path fill="none" stroke="black" d="M374.643,-202.345C381.982,-188.726 391.093,-169.35 395,-151 399.998,-127.526 402.051,-119.941 395,-97 391.825,-86.6697 385.952,-76.5396 379.806,-67.8696"/>
<polygon fill="black" stroke="black" points="382.479,-65.6019 373.658,-59.733 376.894,-69.8217 382.479,-65.6019"/>
<text text-anchor="middle" x="427.5" y="-120.3" font-family="Times,serif" font-size="14.00">not (g9)</text>
</g>
<!-- Node0x478f9340&#45;&gt;Node0x383ae870 -->
<g id="edge13" class="edge"><title>Node0x478f9340&#45;&gt;Node0x383ae870</title>
<path fill="none" stroke="black" d="M245.661,-97.308C270.418,-85.2294 299.318,-71.1295 321.606,-60.2558"/>
<polygon fill="black" stroke="black" points="323.269,-63.3389 330.722,-55.8085 320.2,-57.0477 323.269,-63.3389"/>
</g>
</g>
</svg>
