<?xml version="1.0" encoding="UTF-8" standalone="no"?>
<!DOCTYPE svg PUBLIC "-//W3C//DTD SVG 1.1//EN"
 "http://www.w3.org/Graphics/SVG/1.1/DTD/svg11.dtd">
<!-- Generated by graphviz version 2.38.0 (20140413.2041)
 -->
<!-- Title: Control&#45;flow graph for function &#39;SpConnectionSetConnectivity()&#39;. Pages: 1 -->
<svg width="702pt" height="1318pt"
 viewBox="0.00 0.00 701.50 1318.00" xmlns="http://www.w3.org/2000/svg" xmlns:xlink="http://www.w3.org/1999/xlink">
<g id="graph0" class="graph" transform="scale(1 1) rotate(0) translate(4 1314)">
<title>Control&#45;flow graph for function &#39;SpConnectionSetConnectivity()&#39;.</title>
<polygon fill="white" stroke="none" points="-4,4 -4,-1314 697.5,-1314 697.5,4 -4,4"/>
<text text-anchor="middle" x="346.75" y="-7.8" font-family="Times,serif" font-size="14.00">Control&#45;flow graph for function &#39;SpConnectionSetConnectivity()&#39;.</text>
<!-- Node0x245b2580 -->
<g id="node1" class="node"><title>Node0x245b2580</title>
<polygon fill="none" stroke="black" points="262,-1273.5 262,-1309.5 321,-1309.5 321,-1273.5 262,-1273.5"/>
<text text-anchor="start" x="270" y="-1287.8" font-family="Times,serif" font-size="14.00">entry:</text>
</g>
<!-- Node0x245b0f90 -->
<g id="node2" class="node"><title>Node0x245b0f90</title>
<polygon fill="none" stroke="black" points="134,-1077.5 134,-1235.5 449,-1235.5 449,-1077.5 134,-1077.5"/>
<text text-anchor="start" x="142" y="-1220.3" font-family="Times,serif" font-size="14.00">0x1f6aaa30:</text>
<text text-anchor="start" x="142" y="-1205.3" font-family="Times,serif" font-size="14.00"> v1 = g38</text>
<text text-anchor="start" x="142" y="-1190.3" font-family="Times,serif" font-size="14.00"> v2 = g39</text>
<text text-anchor="start" x="142" y="-1175.3" font-family="Times,serif" font-size="14.00"> v3 = g40</text>
<text text-anchor="start" x="142" y="-1160.3" font-family="Times,serif" font-size="14.00"> g38 = 165012</text>
<text text-anchor="start" x="142" y="-1145.3" font-family="Times,serif" font-size="14.00"> v4 = *(IntToPtrCastExpr&lt;ptr&gt;(165212))</text>
<text text-anchor="start" x="142" y="-1130.3" font-family="Times,serif" font-size="14.00"> g40 = v4</text>
<text text-anchor="start" x="142" y="-1115.3" font-family="Times,serif" font-size="14.00"> v5 = g29</text>
<text text-anchor="start" x="142" y="-1100.3" font-family="Times,serif" font-size="14.00"> g39 = v5</text>
<text text-anchor="start" x="142" y="-1085.3" font-family="Times,serif" font-size="14.00"> v6 = v5</text>
</g>
<!-- Node0x245b2580&#45;&gt;Node0x245b0f90 -->
<g id="edge1" class="edge"><title>Node0x245b2580&#45;&gt;Node0x245b0f90</title>
<path fill="none" stroke="black" d="M291.5,-1273.38C291.5,-1265.78 291.5,-1256.21 291.5,-1245.83"/>
<polygon fill="black" stroke="black" points="295,-1245.68 291.5,-1235.68 288,-1245.68 295,-1245.68"/>
</g>
<!-- Node0x245b2cc0 -->
<g id="node3" class="node"><title>Node0x245b2cc0</title>
<polygon fill="none" stroke="black" points="139,-1001.5 139,-1039.5 444,-1039.5 444,-1001.5 139,-1001.5"/>
<text text-anchor="start" x="147" y="-1024.3" font-family="Times,serif" font-size="14.00">0x8276890:</text>
<text text-anchor="start" x="147" y="-1009.3" font-family="Times,serif" font-size="14.00"> if (*(IntToPtrCastExpr&lt;ptr&gt;(v4)) != 0):</text>
</g>
<!-- Node0x245b0f90&#45;&gt;Node0x245b2cc0 -->
<g id="edge2" class="edge"><title>Node0x245b0f90&#45;&gt;Node0x245b2cc0</title>
<path fill="none" stroke="black" d="M291.5,-1077.16C291.5,-1067.45 291.5,-1058.06 291.5,-1049.85"/>
<polygon fill="black" stroke="black" points="295,-1049.8 291.5,-1039.8 288,-1049.8 295,-1049.8"/>
</g>
<!-- Node0x245b1e20 -->
<g id="node4" class="node"><title>Node0x245b1e20</title>
<polygon fill="none" stroke="black" points="115.5,-866.5 115.5,-949.5 327.5,-949.5 327.5,-866.5 115.5,-866.5"/>
<text text-anchor="start" x="123.5" y="-934.3" font-family="Times,serif" font-size="14.00">0x8275f30:</text>
<text text-anchor="start" x="123.5" y="-919.3" font-family="Times,serif" font-size="14.00"> g30 = 157080</text>
<text text-anchor="start" x="123.5" y="-904.3" font-family="Times,serif" font-size="14.00"> g36 = v5</text>
<text text-anchor="start" x="123.5" y="-889.3" font-family="Times,serif" font-size="14.00"> imported_function_ord_0()</text>
<text text-anchor="start" x="123.5" y="-874.3" font-family="Times,serif" font-size="14.00"> v6 = g39</text>
</g>
<!-- Node0x245b2cc0&#45;&gt;Node0x245b1e20 -->
<g id="edge3" class="edge"><title>Node0x245b2cc0&#45;&gt;Node0x245b1e20</title>
<path fill="none" stroke="black" d="M193.832,-1001.44C176.948,-996.374 163.026,-990.233 157.5,-983 151.224,-974.786 151.549,-966.295 155.691,-958.123"/>
<polygon fill="black" stroke="black" points="158.64,-960.01 161.273,-949.748 152.815,-956.128 158.64,-960.01"/>
<text text-anchor="middle" x="285.5" y="-971.8" font-family="Times,serif" font-size="14.00">*(IntToPtrCastExpr&lt;ptr&gt;(v4)) != 0</text>
</g>
<!-- Node0x245b2fc0 -->
<g id="node5" class="node"><title>Node0x245b2fc0</title>
<polygon fill="none" stroke="black" points="225.5,-685.5 225.5,-828.5 513.5,-828.5 513.5,-685.5 225.5,-685.5"/>
<text text-anchor="start" x="233.5" y="-813.3" font-family="Times,serif" font-size="14.00">0x8276a10:</text>
<text text-anchor="start" x="233.5" y="-798.3" font-family="Times,serif" font-size="14.00"> g29 = v6</text>
<text text-anchor="start" x="233.5" y="-783.3" font-family="Times,serif" font-size="14.00"> function_16bb8()</text>
<text text-anchor="start" x="233.5" y="-768.3" font-family="Times,serif" font-size="14.00"> v7 = *(IntToPtrCastExpr&lt;ptr&gt;(g40))</text>
<text text-anchor="start" x="233.5" y="-753.3" font-family="Times,serif" font-size="14.00"> g37 = v7</text>
<text text-anchor="start" x="233.5" y="-738.3" font-family="Times,serif" font-size="14.00"> v8 = g29</text>
<text text-anchor="start" x="233.5" y="-723.3" font-family="Times,serif" font-size="14.00"> g39 = v8</text>
<text text-anchor="start" x="233.5" y="-708.3" font-family="Times,serif" font-size="14.00"> g9 = (v7 == 0)</text>
<text text-anchor="start" x="233.5" y="-693.3" font-family="Times,serif" font-size="14.00"> v9 = v8</text>
</g>
<!-- Node0x245b2cc0&#45;&gt;Node0x245b2fc0 -->
<g id="edge4" class="edge"><title>Node0x245b2cc0&#45;&gt;Node0x245b2fc0</title>
<path fill="none" stroke="black" d="M392.82,-1001.41C400.778,-996.576 407.888,-990.536 413.5,-983 444.301,-941.635 432.651,-884.502 413.631,-838.16"/>
<polygon fill="black" stroke="black" points="416.755,-836.564 409.607,-828.744 410.318,-839.315 416.755,-836.564"/>
<text text-anchor="middle" x="562.5" y="-904.3" font-family="Times,serif" font-size="14.00">*(IntToPtrCastExpr&lt;ptr&gt;(v4)) == 0</text>
</g>
<!-- Node0x245b1e20&#45;&gt;Node0x245b2fc0 -->
<g id="edge5" class="edge"><title>Node0x245b1e20&#45;&gt;Node0x245b2fc0</title>
<path fill="none" stroke="black" d="M261.942,-866.285C271.329,-856.834 281.631,-846.462 292.025,-835.999"/>
<polygon fill="black" stroke="black" points="294.661,-838.311 299.225,-828.75 289.694,-833.378 294.661,-838.311"/>
</g>
<!-- Node0x245b0a90 -->
<g id="node6" class="node"><title>Node0x245b0a90</title>
<polygon fill="none" stroke="black" points="317.5,-609.5 317.5,-647.5 421.5,-647.5 421.5,-609.5 317.5,-609.5"/>
<text text-anchor="start" x="325.5" y="-632.3" font-family="Times,serif" font-size="14.00">0x8278e10:</text>
<text text-anchor="start" x="325.5" y="-617.3" font-family="Times,serif" font-size="14.00"> if (v7 != 0):</text>
</g>
<!-- Node0x245b2fc0&#45;&gt;Node0x245b0a90 -->
<g id="edge6" class="edge"><title>Node0x245b2fc0&#45;&gt;Node0x245b0a90</title>
<path fill="none" stroke="black" d="M369.5,-685.353C369.5,-675.594 369.5,-666.073 369.5,-657.737"/>
<polygon fill="black" stroke="black" points="373,-657.54 369.5,-647.54 366,-657.54 373,-657.54"/>
</g>
<!-- Node0x28476800 -->
<g id="node7" class="node"><title>Node0x28476800</title>
<polygon fill="none" stroke="black" points="157.5,-474.5 157.5,-557.5 369.5,-557.5 369.5,-474.5 157.5,-474.5"/>
<text text-anchor="start" x="165.5" y="-542.3" font-family="Times,serif" font-size="14.00">0x8278470:</text>
<text text-anchor="start" x="165.5" y="-527.3" font-family="Times,serif" font-size="14.00"> g30 = (g38 &#45; 7932)</text>
<text text-anchor="start" x="165.5" y="-512.3" font-family="Times,serif" font-size="14.00"> g36 = v8</text>
<text text-anchor="start" x="165.5" y="-497.3" font-family="Times,serif" font-size="14.00"> imported_function_ord_0()</text>
<text text-anchor="start" x="165.5" y="-482.3" font-family="Times,serif" font-size="14.00"> v9 = g39</text>
</g>
<!-- Node0x245b0a90&#45;&gt;Node0x28476800 -->
<g id="edge7" class="edge"><title>Node0x245b0a90&#45;&gt;Node0x28476800</title>
<path fill="none" stroke="black" d="M351.996,-609.253C340.475,-597.242 324.811,-580.914 309.863,-565.331"/>
<polygon fill="black" stroke="black" points="312.052,-562.557 302.604,-557.764 307,-567.403 312.052,-562.557"/>
<text text-anchor="middle" x="359.5" y="-579.8" font-family="Times,serif" font-size="14.00">v7 != 0</text>
</g>
<!-- Node0x245b0800 -->
<g id="node8" class="node"><title>Node0x245b0800</title>
<polygon fill="none" stroke="black" points="242.5,-293.5 242.5,-436.5 484.5,-436.5 484.5,-293.5 242.5,-293.5"/>
<text text-anchor="start" x="250.5" y="-421.3" font-family="Times,serif" font-size="14.00">0x8278f90:</text>
<text text-anchor="start" x="250.5" y="-406.3" font-family="Times,serif" font-size="14.00"> g29 = v9</text>
<text text-anchor="start" x="250.5" y="-391.3" font-family="Times,serif" font-size="14.00"> g38 = v1</text>
<text text-anchor="start" x="250.5" y="-376.3" font-family="Times,serif" font-size="14.00"> g39 = v2</text>
<text text-anchor="start" x="250.5" y="-361.3" font-family="Times,serif" font-size="14.00"> g40 = v3</text>
<text text-anchor="start" x="250.5" y="-346.3" font-family="Times,serif" font-size="14.00"> v10</text>
<text text-anchor="start" x="250.5" y="-331.3" font-family="Times,serif" font-size="14.00"> g34 = v10</text>
<text text-anchor="start" x="250.5" y="-316.3" font-family="Times,serif" font-size="14.00"> IntToPtrCastExpr&lt;ptr&gt;(g35)()</text>
<text text-anchor="start" x="250.5" y="-301.3" font-family="Times,serif" font-size="14.00"> v11 = (g39 % 256)</text>
</g>
<!-- Node0x245b0a90&#45;&gt;Node0x245b0800 -->
<g id="edge8" class="edge"><title>Node0x245b0a90&#45;&gt;Node0x245b0800</title>
<path fill="none" stroke="black" d="M382.396,-609.38C385.702,-603.755 388.802,-597.357 390.5,-591 392.221,-584.559 390.89,-582.655 390.5,-576 387.992,-533.22 382.169,-485.852 376.57,-446.947"/>
<polygon fill="black" stroke="black" points="379.986,-446.119 375.077,-436.73 373.06,-447.131 379.986,-446.119"/>
<text text-anchor="middle" x="419.5" y="-512.3" font-family="Times,serif" font-size="14.00">v7 == 0</text>
</g>
<!-- Node0x28476800&#45;&gt;Node0x245b0800 -->
<g id="edge9" class="edge"><title>Node0x28476800&#45;&gt;Node0x245b0800</title>
<path fill="none" stroke="black" d="M290.825,-474.285C296.925,-465.197 303.595,-455.259 310.342,-445.206"/>
<polygon fill="black" stroke="black" points="313.35,-447.004 316.017,-436.75 307.538,-443.103 313.35,-447.004"/>
</g>
<!-- Node0x245b0470 -->
<g id="node9" class="node"><title>Node0x245b0470</title>
<polygon fill="none" stroke="black" points="313,-217.5 313,-255.5 414,-255.5 414,-217.5 313,-217.5"/>
<text text-anchor="start" x="321" y="-240.3" font-family="Times,serif" font-size="14.00">0x827b4e0:</text>
<text text-anchor="start" x="321" y="-225.3" font-family="Times,serif" font-size="14.00"> if g9:</text>
</g>
<!-- Node0x245b0800&#45;&gt;Node0x245b0470 -->
<g id="edge10" class="edge"><title>Node0x245b0800&#45;&gt;Node0x245b0470</title>
<path fill="none" stroke="black" d="M363.5,-293.353C363.5,-283.594 363.5,-274.073 363.5,-265.737"/>
<polygon fill="black" stroke="black" points="367,-265.54 363.5,-255.54 360,-265.54 367,-265.54"/>
</g>
<!-- Node0x245afd80 -->
<g id="node10" class="node"><title>Node0x245afd80</title>
<polygon fill="none" stroke="black" points="0,-97.5 0,-165.5 385,-165.5 385,-97.5 0,-97.5"/>
<text text-anchor="start" x="8" y="-150.3" font-family="Times,serif" font-size="14.00">0x1f6aa630:</text>
<text text-anchor="start" x="8" y="-135.3" font-family="Times,serif" font-size="14.00"> v12 = g29</text>
<text text-anchor="start" x="8" y="-120.3" font-family="Times,serif" font-size="14.00"> g37 = (g30 &amp; (v12 &gt;&gt; (32 if (v11 &gt; 32) else v11)))</text>
<text text-anchor="start" x="8" y="-105.3" font-family="Times,serif" font-size="14.00"> g29 = ((g42 / 2) &amp; v12)</text>
</g>
<!-- Node0x245b0470&#45;&gt;Node0x245afd80 -->
<g id="edge11" class="edge"><title>Node0x245b0470&#45;&gt;Node0x245afd80</title>
<path fill="none" stroke="black" d="M333.322,-217.323C312.045,-204.507 282.757,-186.866 256.4,-170.99"/>
<polygon fill="black" stroke="black" points="257.962,-167.844 247.59,-165.683 254.35,-173.841 257.962,-167.844"/>
<text text-anchor="middle" x="308" y="-187.8" font-family="Times,serif" font-size="14.00">g9</text>
</g>
<!-- Node0x245ac540 -->
<g id="node11" class="node"><title>Node0x245ac540</title>
<polygon fill="none" stroke="black" points="330.5,-23.5 330.5,-59.5 384.5,-59.5 384.5,-23.5 330.5,-23.5"/>
<text text-anchor="start" x="338.5" y="-37.8" font-family="Times,serif" font-size="14.00">exit:</text>
</g>
<!-- Node0x245b0470&#45;&gt;Node0x245ac540 -->
<g id="edge12" class="edge"><title>Node0x245b0470&#45;&gt;Node0x245ac540</title>
<path fill="none" stroke="black" d="M373.802,-217.301C380.907,-203.66 389.724,-184.276 393.5,-166 399.705,-135.968 402.324,-126.37 393.5,-97 390.416,-86.7372 384.704,-76.6248 378.723,-67.9503"/>
<polygon fill="black" stroke="black" points="381.481,-65.7918 372.741,-59.8026 375.838,-69.9347 381.481,-65.7918"/>
<text text-anchor="middle" x="428" y="-127.8" font-family="Times,serif" font-size="14.00">not (g9)</text>
</g>
<!-- Node0x245afd80&#45;&gt;Node0x245ac540 -->
<g id="edge13" class="edge"><title>Node0x245afd80&#45;&gt;Node0x245ac540</title>
<path fill="none" stroke="black" d="M254.409,-97.4817C276.987,-85.4404 301.762,-72.2269 321.365,-61.7718"/>
<polygon fill="black" stroke="black" points="323.084,-64.8217 330.261,-57.0276 319.79,-58.6453 323.084,-64.8217"/>
</g>
</g>
</svg>
