<?xml version="1.0" encoding="UTF-8" standalone="no"?>
<!DOCTYPE svg PUBLIC "-//W3C//DTD SVG 1.1//EN"
 "http://www.w3.org/Graphics/SVG/1.1/DTD/svg11.dtd">
<!-- Generated by graphviz version 2.38.0 (20140413.2041)
 -->
<!-- Title: Control&#45;flow graph for function &#39;function_36f4()&#39;. Pages: 1 -->
<svg width="465pt" height="1377pt"
 viewBox="0.00 0.00 464.50 1377.00" xmlns="http://www.w3.org/2000/svg" xmlns:xlink="http://www.w3.org/1999/xlink">
<g id="graph0" class="graph" transform="scale(1 1) rotate(0) translate(4 1373)">
<title>Control&#45;flow graph for function &#39;function_36f4()&#39;.</title>
<polygon fill="white" stroke="none" points="-4,4 -4,-1373 460.5,-1373 460.5,4 -4,4"/>
<text text-anchor="middle" x="228.25" y="-7.8" font-family="Times,serif" font-size="14.00">Control&#45;flow graph for function &#39;function_36f4()&#39;.</text>
<!-- Node0x24656620 -->
<g id="node1" class="node"><title>Node0x24656620</title>
<polygon fill="none" stroke="black" points="346.5,-1332.5 346.5,-1368.5 405.5,-1368.5 405.5,-1332.5 346.5,-1332.5"/>
<text text-anchor="start" x="354.5" y="-1346.8" font-family="Times,serif" font-size="14.00">entry:</text>
</g>
<!-- Node0x43786ca0 -->
<g id="node2" class="node"><title>Node0x43786ca0</title>
<polygon fill="none" stroke="black" points="322.5,-1121.5 322.5,-1294.5 429.5,-1294.5 429.5,-1121.5 322.5,-1121.5"/>
<text text-anchor="start" x="330.5" y="-1279.3" font-family="Times,serif" font-size="14.00">0x1fddb690:</text>
<text text-anchor="start" x="330.5" y="-1264.3" font-family="Times,serif" font-size="14.00"> v1 = g38</text>
<text text-anchor="start" x="330.5" y="-1249.3" font-family="Times,serif" font-size="14.00"> v2 = g39</text>
<text text-anchor="start" x="330.5" y="-1234.3" font-family="Times,serif" font-size="14.00"> v3 = g40</text>
<text text-anchor="start" x="330.5" y="-1219.3" font-family="Times,serif" font-size="14.00"> v4 = g41</text>
<text text-anchor="start" x="330.5" y="-1204.3" font-family="Times,serif" font-size="14.00"> v5 = g42</text>
<text text-anchor="start" x="330.5" y="-1189.3" font-family="Times,serif" font-size="14.00"> v6 = g29</text>
<text text-anchor="start" x="330.5" y="-1174.3" font-family="Times,serif" font-size="14.00"> g41 = v6</text>
<text text-anchor="start" x="330.5" y="-1159.3" font-family="Times,serif" font-size="14.00"> g40 = g30</text>
<text text-anchor="start" x="330.5" y="-1144.3" font-family="Times,serif" font-size="14.00"> g39 = g36</text>
<text text-anchor="start" x="330.5" y="-1129.3" font-family="Times,serif" font-size="14.00"> g42 = g37</text>
</g>
<!-- Node0x24656620&#45;&gt;Node0x43786ca0 -->
<g id="edge1" class="edge"><title>Node0x24656620&#45;&gt;Node0x43786ca0</title>
<path fill="none" stroke="black" d="M376,-1332.27C376,-1324.72 376,-1315.21 376,-1304.85"/>
<polygon fill="black" stroke="black" points="379.5,-1304.68 376,-1294.68 372.5,-1304.68 379.5,-1304.68"/>
</g>
<!-- Node0x24151a90 -->
<g id="node3" class="node"><title>Node0x24151a90</title>
<polygon fill="none" stroke="black" points="325.5,-1045.5 325.5,-1083.5 426.5,-1083.5 426.5,-1045.5 325.5,-1045.5"/>
<text text-anchor="start" x="333.5" y="-1068.3" font-family="Times,serif" font-size="14.00">0x5080cf0:</text>
<text text-anchor="start" x="333.5" y="-1053.3" font-family="Times,serif" font-size="14.00"> while True:</text>
</g>
<!-- Node0x43786ca0&#45;&gt;Node0x24151a90 -->
<g id="edge2" class="edge"><title>Node0x43786ca0&#45;&gt;Node0x24151a90</title>
<path fill="none" stroke="black" d="M376,-1121.42C376,-1111.55 376,-1102.08 376,-1093.83"/>
<polygon fill="black" stroke="black" points="379.5,-1093.75 376,-1083.75 372.5,-1093.75 379.5,-1093.75"/>
</g>
<!-- Node0x246547f0 -->
<g id="node4" class="node"><title>Node0x246547f0</title>
<polygon fill="none" stroke="black" points="235.5,-880.5 235.5,-993.5 378.5,-993.5 378.5,-880.5 235.5,-880.5"/>
<text text-anchor="start" x="243.5" y="-978.3" font-family="Times,serif" font-size="14.00">0x50702d0:</text>
<text text-anchor="start" x="243.5" y="-963.3" font-family="Times,serif" font-size="14.00"> g29 = v6</text>
<text text-anchor="start" x="243.5" y="-948.3" font-family="Times,serif" font-size="14.00"> function_1321c()</text>
<text text-anchor="start" x="243.5" y="-933.3" font-family="Times,serif" font-size="14.00"> v7</text>
<text text-anchor="start" x="243.5" y="-918.3" font-family="Times,serif" font-size="14.00"> g38 = v7</text>
<text text-anchor="start" x="243.5" y="-903.3" font-family="Times,serif" font-size="14.00"> v8 = g39</text>
<text text-anchor="start" x="243.5" y="-888.3" font-family="Times,serif" font-size="14.00"> v9 = v7</text>
</g>
<!-- Node0x24151a90&#45;&gt;Node0x246547f0 -->
<g id="edge3" class="edge"><title>Node0x24151a90&#45;&gt;Node0x246547f0</title>
<path fill="none" stroke="black" d="M365.967,-1045.25C359.687,-1033.83 351.178,-1018.35 342.58,-1002.71"/>
<polygon fill="black" stroke="black" points="345.408,-1000.59 337.523,-993.516 339.274,-1003.97 345.408,-1000.59"/>
<text text-anchor="middle" x="373" y="-1015.8" font-family="Times,serif" font-size="14.00">True</text>
</g>
<!-- Node0x24152310 -->
<g id="node5" class="node"><title>Node0x24152310</title>
<polygon fill="none" stroke="black" points="226,-804.5 226,-842.5 332,-842.5 332,-804.5 226,-804.5"/>
<text text-anchor="start" x="234" y="-827.3" font-family="Times,serif" font-size="14.00">0x507c510:</text>
<text text-anchor="start" x="234" y="-812.3" font-family="Times,serif" font-size="14.00"> if (v8 &lt; v7):</text>
</g>
<!-- Node0x246547f0&#45;&gt;Node0x24152310 -->
<g id="edge4" class="edge"><title>Node0x246547f0&#45;&gt;Node0x24152310</title>
<path fill="none" stroke="black" d="M293,-880.25C290.616,-870.756 288.232,-861.263 286.124,-852.87"/>
<polygon fill="black" stroke="black" points="289.454,-851.758 283.624,-842.912 282.665,-853.463 289.454,-851.758"/>
</g>
<!-- Node0x246565b0 -->
<g id="node6" class="node"><title>Node0x246565b0</title>
<polygon fill="none" stroke="black" points="145,-699.5 145,-752.5 243,-752.5 243,-699.5 145,-699.5"/>
<text text-anchor="start" x="153" y="-737.3" font-family="Times,serif" font-size="14.00">0x5070f10:</text>
<text text-anchor="start" x="153" y="-722.3" font-family="Times,serif" font-size="14.00"> g38 = v8</text>
<text text-anchor="start" x="153" y="-707.3" font-family="Times,serif" font-size="14.00"> v9 = v8</text>
</g>
<!-- Node0x24152310&#45;&gt;Node0x246565b0 -->
<g id="edge5" class="edge"><title>Node0x24152310&#45;&gt;Node0x246565b0</title>
<path fill="none" stroke="black" d="M230.91,-804.395C222.66,-799.485 214.869,-793.415 209,-786 203.684,-779.284 200.23,-770.906 197.993,-762.593"/>
<polygon fill="black" stroke="black" points="201.365,-761.63 195.823,-752.6 194.525,-763.115 201.365,-761.63"/>
<text text-anchor="middle" x="237" y="-774.8" font-family="Times,serif" font-size="14.00">v8 &lt; v7</text>
</g>
<!-- Node0x437850a0 -->
<g id="node7" class="node"><title>Node0x437850a0</title>
<polygon fill="none" stroke="black" points="0,-383.5 0,-661.5 388,-661.5 388,-383.5 0,-383.5"/>
<text text-anchor="start" x="8" y="-646.3" font-family="Times,serif" font-size="14.00">0x46249550:</text>
<text text-anchor="start" x="8" y="-631.3" font-family="Times,serif" font-size="14.00"> v10</text>
<text text-anchor="start" x="8" y="-616.3" font-family="Times,serif" font-size="14.00"> memcpy(&amp;(v10), IntToPtrCastExpr&lt;ptr&gt;(g40), v9)</text>
<text text-anchor="start" x="8" y="-601.3" font-family="Times,serif" font-size="14.00"> g29 = g42</text>
<text text-anchor="start" x="8" y="-586.3" font-family="Times,serif" font-size="14.00"> g36 = g38</text>
<text text-anchor="start" x="8" y="-571.3" font-family="Times,serif" font-size="14.00"> g30 = v10</text>
<text text-anchor="start" x="8" y="-556.3" font-family="Times,serif" font-size="14.00"> function_c220()</text>
<text text-anchor="start" x="8" y="-541.3" font-family="Times,serif" font-size="14.00"> g29 = g41</text>
<text text-anchor="start" x="8" y="-526.3" font-family="Times,serif" font-size="14.00"> g30 = g38</text>
<text text-anchor="start" x="8" y="-511.3" font-family="Times,serif" font-size="14.00"> function_13264()</text>
<text text-anchor="start" x="8" y="-496.3" font-family="Times,serif" font-size="14.00"> v11 = g38</text>
<text text-anchor="start" x="8" y="-481.3" font-family="Times,serif" font-size="14.00"> v12 = g39</text>
<text text-anchor="start" x="8" y="-466.3" font-family="Times,serif" font-size="14.00"> v13 = (v12 &#45; v11)</text>
<text text-anchor="start" x="8" y="-451.3" font-family="Times,serif" font-size="14.00"> g8 = (((v13 ^ v12) &amp; (v12 ^ v11)) &lt; 0)</text>
<text text-anchor="start" x="8" y="-436.3" font-family="Times,serif" font-size="14.00"> g7 = (v13 &lt; 0)</text>
<text text-anchor="start" x="8" y="-421.3" font-family="Times,serif" font-size="14.00"> g9 = (v12 == v11)</text>
<text text-anchor="start" x="8" y="-406.3" font-family="Times,serif" font-size="14.00"> g39 = v13</text>
<text text-anchor="start" x="8" y="-391.3" font-family="Times,serif" font-size="14.00"> g40 = (g40 + v11)</text>
</g>
<!-- Node0x24152310&#45;&gt;Node0x437850a0 -->
<g id="edge6" class="edge"><title>Node0x24152310&#45;&gt;Node0x437850a0</title>
<path fill="none" stroke="black" d="M275.647,-804.358C271.035,-780.154 262.141,-736.045 252,-699 249.516,-689.926 246.84,-680.629 244.049,-671.279"/>
<polygon fill="black" stroke="black" points="247.345,-670.084 241.103,-661.523 240.644,-672.108 247.345,-670.084"/>
<text text-anchor="middle" x="299" y="-722.3" font-family="Times,serif" font-size="14.00">v8 &gt;= v7</text>
</g>
<!-- Node0x246565b0&#45;&gt;Node0x437850a0 -->
<g id="edge7" class="edge"><title>Node0x246565b0&#45;&gt;Node0x437850a0</title>
<path fill="none" stroke="black" d="M194,-699.48C194,-691.535 194,-682.14 194,-671.89"/>
<polygon fill="black" stroke="black" points="197.5,-671.821 194,-661.821 190.5,-671.821 197.5,-671.821"/>
</g>
<!-- Node0x307a94e0 -->
<g id="node8" class="node"><title>Node0x307a94e0</title>
<polygon fill="none" stroke="black" points="138,-307.5 138,-345.5 274,-345.5 274,-307.5 138,-307.5"/>
<text text-anchor="start" x="146" y="-330.3" font-family="Times,serif" font-size="14.00">0x50803a0:</text>
<text text-anchor="start" x="146" y="-315.3" font-family="Times,serif" font-size="14.00"> if (v12 == v11):</text>
</g>
<!-- Node0x437850a0&#45;&gt;Node0x307a94e0 -->
<g id="edge8" class="edge"><title>Node0x437850a0&#45;&gt;Node0x307a94e0</title>
<path fill="none" stroke="black" d="M202.545,-383.353C203.173,-373.21 203.754,-363.804 204.255,-355.713"/>
<polygon fill="black" stroke="black" points="207.759,-355.747 204.884,-345.55 200.773,-355.314 207.759,-355.747"/>
</g>
<!-- Node0x246581b0 -->
<g id="node9" class="node"><title>Node0x246581b0</title>
<polygon fill="none" stroke="black" points="85,-97.5 85,-255.5 327,-255.5 327,-97.5 85,-97.5"/>
<text text-anchor="start" x="93" y="-240.3" font-family="Times,serif" font-size="14.00">0x507f400:</text>
<text text-anchor="start" x="93" y="-225.3" font-family="Times,serif" font-size="14.00"> g38 = v1</text>
<text text-anchor="start" x="93" y="-210.3" font-family="Times,serif" font-size="14.00"> g39 = v2</text>
<text text-anchor="start" x="93" y="-195.3" font-family="Times,serif" font-size="14.00"> g40 = v3</text>
<text text-anchor="start" x="93" y="-180.3" font-family="Times,serif" font-size="14.00"> g41 = v4</text>
<text text-anchor="start" x="93" y="-165.3" font-family="Times,serif" font-size="14.00"> g42 = v5</text>
<text text-anchor="start" x="93" y="-150.3" font-family="Times,serif" font-size="14.00"> v14</text>
<text text-anchor="start" x="93" y="-135.3" font-family="Times,serif" font-size="14.00"> g34 = v14</text>
<text text-anchor="start" x="93" y="-120.3" font-family="Times,serif" font-size="14.00"> IntToPtrCastExpr&lt;ptr&gt;(g35)()</text>
<text text-anchor="start" x="93" y="-105.3" font-family="Times,serif" font-size="14.00"> return</text>
</g>
<!-- Node0x307a94e0&#45;&gt;Node0x246581b0 -->
<g id="edge9" class="edge"><title>Node0x307a94e0&#45;&gt;Node0x246581b0</title>
<path fill="none" stroke="black" d="M206,-307.352C206,-296.462 206,-281.712 206,-266.058"/>
<polygon fill="black" stroke="black" points="209.5,-265.671 206,-255.671 202.5,-265.671 209.5,-265.671"/>
<text text-anchor="middle" x="249" y="-277.8" font-family="Times,serif" font-size="14.00">v12 == v11</text>
</g>
<!-- Node0x24152000 -->
<g id="node10" class="node"><title>Node0x24152000</title>
<polygon fill="none" stroke="black" points="355.5,-157.5 355.5,-195.5 456.5,-195.5 456.5,-157.5 355.5,-157.5"/>
<text text-anchor="start" x="363.5" y="-180.3" font-family="Times,serif" font-size="14.00">0x5080760:</text>
<text text-anchor="start" x="363.5" y="-165.3" font-family="Times,serif" font-size="14.00"> v6 = g41</text>
</g>
<!-- Node0x307a94e0&#45;&gt;Node0x24152000 -->
<g id="edge10" class="edge"><title>Node0x307a94e0&#45;&gt;Node0x24152000</title>
<path fill="none" stroke="black" d="M258.225,-307.453C270.951,-302.215 284.269,-295.993 296,-289 333.144,-266.859 366.587,-229.201 386.594,-203.847"/>
<polygon fill="black" stroke="black" points="389.5,-205.812 392.85,-195.761 383.963,-201.528 389.5,-205.812"/>
<text text-anchor="middle" x="358" y="-277.8" font-family="Times,serif" font-size="14.00">v12 != v11</text>
</g>
<!-- Node0x24654200 -->
<g id="node11" class="node"><title>Node0x24654200</title>
<polygon fill="none" stroke="black" points="179,-23.5 179,-59.5 233,-59.5 233,-23.5 179,-23.5"/>
<text text-anchor="start" x="187" y="-37.8" font-family="Times,serif" font-size="14.00">exit:</text>
</g>
<!-- Node0x246581b0&#45;&gt;Node0x24654200 -->
<g id="edge11" class="edge"><title>Node0x246581b0&#45;&gt;Node0x24654200</title>
<path fill="none" stroke="black" d="M206,-97.3641C206,-87.4565 206,-77.9047 206,-69.6254"/>
<polygon fill="black" stroke="black" points="209.5,-69.5515 206,-59.5516 202.5,-69.5516 209.5,-69.5515"/>
</g>
<!-- Node0x24152000&#45;&gt;Node0x24151a90 -->
<g id="edge12" class="edge"><title>Node0x24152000&#45;&gt;Node0x24151a90</title>
<path fill="none" stroke="black" d="M408.024,-195.701C410.946,-223.599 416,-278.629 416,-325.5 416,-938 416,-938 416,-938 416,-973.128 401.598,-1011.28 390.078,-1036.19"/>
<polygon fill="black" stroke="black" points="386.845,-1034.84 385.683,-1045.37 393.158,-1037.86 386.845,-1034.84"/>
</g>
</g>
</svg>
