<?xml version="1.0" encoding="UTF-8" standalone="no"?>
<!DOCTYPE svg PUBLIC "-//W3C//DTD SVG 1.1//EN"
 "http://www.w3.org/Graphics/SVG/1.1/DTD/svg11.dtd">
<!-- Generated by graphviz version 2.38.0 (20140413.2041)
 -->
<!-- Title: Control&#45;flow graph for function &#39;function_1a3c()&#39;. Pages: 1 -->
<svg width="933pt" height="2175pt"
 viewBox="0.00 0.00 933.00 2175.00" xmlns="http://www.w3.org/2000/svg" xmlns:xlink="http://www.w3.org/1999/xlink">
<g id="graph0" class="graph" transform="scale(1 1) rotate(0) translate(4 2171)">
<title>Control&#45;flow graph for function &#39;function_1a3c()&#39;.</title>
<polygon fill="white" stroke="none" points="-4,4 -4,-2171 929,-2171 929,4 -4,4"/>
<text text-anchor="middle" x="462.5" y="-7.8" font-family="Times,serif" font-size="14.00">Control&#45;flow graph for function &#39;function_1a3c()&#39;.</text>
<!-- Node0x47ace010 -->
<g id="node1" class="node"><title>Node0x47ace010</title>
<polygon fill="none" stroke="black" points="807.5,-2130.5 807.5,-2166.5 866.5,-2166.5 866.5,-2130.5 807.5,-2130.5"/>
<text text-anchor="start" x="815.5" y="-2144.8" font-family="Times,serif" font-size="14.00">entry:</text>
</g>
<!-- Node0x24188080 -->
<g id="node2" class="node"><title>Node0x24188080</title>
<polygon fill="none" stroke="black" points="775.5,-1874.5 775.5,-2092.5 898.5,-2092.5 898.5,-1874.5 775.5,-1874.5"/>
<text text-anchor="start" x="783.5" y="-2077.3" font-family="Times,serif" font-size="14.00">0x1b2124f0:</text>
<text text-anchor="start" x="783.5" y="-2062.3" font-family="Times,serif" font-size="14.00"> v1 = g39</text>
<text text-anchor="start" x="783.5" y="-2047.3" font-family="Times,serif" font-size="14.00"> v2 = g40</text>
<text text-anchor="start" x="783.5" y="-2032.3" font-family="Times,serif" font-size="14.00"> v3 = g41</text>
<text text-anchor="start" x="783.5" y="-2017.3" font-family="Times,serif" font-size="14.00"> v4 = g42</text>
<text text-anchor="start" x="783.5" y="-2002.3" font-family="Times,serif" font-size="14.00"> v5 = g31</text>
<text text-anchor="start" x="783.5" y="-1987.3" font-family="Times,serif" font-size="14.00"> v6 = g35</text>
<text text-anchor="start" x="783.5" y="-1972.3" font-family="Times,serif" font-size="14.00"> g33 = 283</text>
<text text-anchor="start" x="783.5" y="-1957.3" font-family="Times,serif" font-size="14.00"> g36 = 1</text>
<text text-anchor="start" x="783.5" y="-1942.3" font-family="Times,serif" font-size="14.00"> g30 = 0</text>
<text text-anchor="start" x="783.5" y="-1927.3" font-family="Times,serif" font-size="14.00"> g35 = 165012</text>
<text text-anchor="start" x="783.5" y="-1912.3" font-family="Times,serif" font-size="14.00"> v7 = 0</text>
<text text-anchor="start" x="783.5" y="-1897.3" font-family="Times,serif" font-size="14.00"> v8 = 283</text>
<text text-anchor="start" x="783.5" y="-1882.3" font-family="Times,serif" font-size="14.00"> v9 = 1</text>
</g>
<!-- Node0x47ace010&#45;&gt;Node0x24188080 -->
<g id="edge1" class="edge"><title>Node0x47ace010&#45;&gt;Node0x24188080</title>
<path fill="none" stroke="black" d="M837,-2130.36C837,-2122.93 837,-2113.54 837,-2103.11"/>
<polygon fill="black" stroke="black" points="840.5,-2102.83 837,-2092.83 833.5,-2102.83 840.5,-2102.83"/>
</g>
<!-- Node0x474838f0 -->
<g id="node3" class="node"><title>Node0x474838f0</title>
<polygon fill="none" stroke="black" points="786.5,-1798.5 786.5,-1836.5 887.5,-1836.5 887.5,-1798.5 786.5,-1798.5"/>
<text text-anchor="start" x="794.5" y="-1821.3" font-family="Times,serif" font-size="14.00">0x4daf000:</text>
<text text-anchor="start" x="794.5" y="-1806.3" font-family="Times,serif" font-size="14.00"> while True:</text>
</g>
<!-- Node0x24188080&#45;&gt;Node0x474838f0 -->
<g id="edge2" class="edge"><title>Node0x24188080&#45;&gt;Node0x474838f0</title>
<path fill="none" stroke="black" d="M837,-1874.48C837,-1864.59 837,-1855.25 837,-1847.15"/>
<polygon fill="black" stroke="black" points="840.5,-1846.92 837,-1836.92 833.5,-1846.92 840.5,-1846.92"/>
</g>
<!-- Node0x29535ff0 -->
<g id="node4" class="node"><title>Node0x29535ff0</title>
<polygon fill="none" stroke="black" points="599.5,-1618.5 599.5,-1746.5 846.5,-1746.5 846.5,-1618.5 599.5,-1618.5"/>
<text text-anchor="start" x="607.5" y="-1731.3" font-family="Times,serif" font-size="14.00">0x4d97940:</text>
<text text-anchor="start" x="607.5" y="-1716.3" font-family="Times,serif" font-size="14.00"> g37 = ((v9 / 128) * v8)</text>
<text text-anchor="start" x="607.5" y="-1701.3" font-family="Times,serif" font-size="14.00"> NULL[v7] = v9</text>
<text text-anchor="start" x="607.5" y="-1686.3" font-family="Times,serif" font-size="14.00"> v10 = (g30 + 4)</text>
<text text-anchor="start" x="607.5" y="-1671.3" font-family="Times,serif" font-size="14.00"> g30 = v10</text>
<text text-anchor="start" x="607.5" y="-1656.3" font-family="Times,serif" font-size="14.00"> v11 = g36</text>
<text text-anchor="start" x="607.5" y="-1641.3" font-family="Times,serif" font-size="14.00"> v12 = ((g37 ^ (2 * v11)) ^ v11)</text>
<text text-anchor="start" x="607.5" y="-1626.3" font-family="Times,serif" font-size="14.00"> g36 = v12</text>
</g>
<!-- Node0x474838f0&#45;&gt;Node0x29535ff0 -->
<g id="edge3" class="edge"><title>Node0x474838f0&#45;&gt;Node0x29535ff0</title>
<path fill="none" stroke="black" d="M821.388,-1798.29C811.431,-1786.67 797.818,-1770.79 783.895,-1754.54"/>
<polygon fill="black" stroke="black" points="786.214,-1751.87 777.049,-1746.56 780.899,-1756.43 786.214,-1751.87"/>
<text text-anchor="middle" x="821" y="-1768.8" font-family="Times,serif" font-size="14.00">True</text>
</g>
<!-- Node0x474834f0 -->
<g id="node5" class="node"><title>Node0x474834f0</title>
<polygon fill="none" stroke="black" points="650,-1527.5 650,-1580.5 796,-1580.5 796,-1527.5 650,-1527.5"/>
<text text-anchor="start" x="658" y="-1565.3" font-family="Times,serif" font-size="14.00">0x4dae4d0:</text>
<text text-anchor="start" x="658" y="-1550.3" font-family="Times,serif" font-size="14.00"> if (v10 == 1024):</text>
<text text-anchor="start" x="658" y="-1535.3" font-family="Times,serif" font-size="14.00"> else:</text>
</g>
<!-- Node0x29535ff0&#45;&gt;Node0x474834f0 -->
<g id="edge4" class="edge"><title>Node0x29535ff0&#45;&gt;Node0x474834f0</title>
<path fill="none" stroke="black" d="M723,-1618.25C723,-1608.76 723,-1599.28 723,-1590.65"/>
<polygon fill="black" stroke="black" points="726.5,-1590.6 723,-1580.6 719.5,-1590.6 726.5,-1590.6"/>
</g>
<!-- Node0x47483df0 -->
<g id="node6" class="node"><title>Node0x47483df0</title>
<polygon fill="none" stroke="black" points="255,-1400 255,-1468 807,-1468 807,-1400 255,-1400"/>
<text text-anchor="start" x="263" y="-1452.8" font-family="Times,serif" font-size="14.00">0x2acc9c20:</text>
<text text-anchor="start" x="263" y="-1437.8" font-family="Times,serif" font-size="14.00"> v13</text>
<text text-anchor="start" x="263" y="-1422.8" font-family="Times,serif" font-size="14.00"> v14 = ((256 * v13) | v13)</text>
<text text-anchor="start" x="263" y="-1407.8" font-family="Times,serif" font-size="14.00"> v15 = (((((v14 ^ 99) ^ (v14 / 32)) ^ (v14 / 16)) ^ (v14 / 64)) ^ (v14 / 128))</text>
</g>
<!-- Node0x474834f0&#45;&gt;Node0x47483df0 -->
<g id="edge5" class="edge"><title>Node0x474834f0&#45;&gt;Node0x47483df0</title>
<path fill="none" stroke="black" d="M681.339,-1527.4C655.751,-1511.67 622.485,-1491.22 593.752,-1473.57"/>
<polygon fill="black" stroke="black" points="595.346,-1470.44 584.994,-1468.18 591.681,-1476.4 595.346,-1470.44"/>
<text text-anchor="middle" x="698" y="-1497.8" font-family="Times,serif" font-size="14.00">v10 == 1024</text>
</g>
<!-- Node0x1d780d50 -->
<g id="node7" class="node"><title>Node0x1d780d50</title>
<polygon fill="none" stroke="black" points="825,-1392.5 825,-1475.5 925,-1475.5 925,-1392.5 825,-1392.5"/>
<text text-anchor="start" x="833" y="-1460.3" font-family="Times,serif" font-size="14.00">0x4dae890:</text>
<text text-anchor="start" x="833" y="-1445.3" font-family="Times,serif" font-size="14.00"> v7 = v10</text>
<text text-anchor="start" x="833" y="-1430.3" font-family="Times,serif" font-size="14.00"> v8 = g33</text>
<text text-anchor="start" x="833" y="-1415.3" font-family="Times,serif" font-size="14.00"> v9 = v12</text>
<text text-anchor="start" x="833" y="-1400.3" font-family="Times,serif" font-size="14.00"> continue</text>
</g>
<!-- Node0x474834f0&#45;&gt;Node0x1d780d50 -->
<g id="edge6" class="edge"><title>Node0x474834f0&#45;&gt;Node0x1d780d50</title>
<path fill="none" stroke="black" d="M739.511,-1527.21C747.839,-1515.82 758.767,-1503 771,-1494 788.352,-1481.24 797.034,-1486.21 816,-1476 816.093,-1475.95 816.185,-1475.9 816.278,-1475.85"/>
<polygon fill="black" stroke="black" points="818.003,-1478.9 824.949,-1470.9 814.53,-1472.82 818.003,-1478.9"/>
<text text-anchor="middle" x="816" y="-1497.8" font-family="Times,serif" font-size="14.00">v10 != 1024</text>
</g>
<!-- Node0x474832f0 -->
<g id="node8" class="node"><title>Node0x474832f0</title>
<polygon fill="none" stroke="black" points="430.5,-1316.5 430.5,-1354.5 631.5,-1354.5 631.5,-1316.5 430.5,-1316.5"/>
<text text-anchor="start" x="438.5" y="-1339.3" font-family="Times,serif" font-size="14.00">0x1e8e4e00:</text>
<text text-anchor="start" x="438.5" y="-1324.3" font-family="Times,serif" font-size="14.00"> for i in range(0, 1017, 4):</text>
</g>
<!-- Node0x47483df0&#45;&gt;Node0x474832f0 -->
<g id="edge7" class="edge"><title>Node0x47483df0&#45;&gt;Node0x474832f0</title>
<path fill="none" stroke="black" d="M531,-1399.79C531,-1388.42 531,-1375.82 531,-1364.87"/>
<polygon fill="black" stroke="black" points="534.5,-1364.58 531,-1354.58 527.5,-1364.58 534.5,-1364.58"/>
</g>
<!-- Node0x1d780d50&#45;&gt;Node0x474838f0 -->
<g id="edge8" class="edge"><title>Node0x1d780d50&#45;&gt;Node0x474838f0</title>
<path fill="none" stroke="black" d="M874.841,-1475.66C874.056,-1535.47 870.442,-1650.53 855,-1747 852.784,-1760.85 849.039,-1775.94 845.538,-1788.52"/>
<polygon fill="black" stroke="black" points="842.094,-1787.83 842.692,-1798.41 848.821,-1789.77 842.094,-1787.83"/>
</g>
<!-- Node0x474832f0&#45;&gt;Node0x474832f0 -->
<g id="edge10" class="edge"><title>Node0x474832f0&#45;&gt;Node0x474832f0</title>
<path fill="none" stroke="black" d="M631.713,-1341.45C642.537,-1340.3 649.5,-1338.32 649.5,-1335.5 649.5,-1333.69 646.643,-1332.23 641.743,-1331.11"/>
<polygon fill="black" stroke="black" points="642.132,-1327.63 631.713,-1329.55 641.056,-1334.55 642.132,-1327.63"/>
</g>
<!-- Node0x44eb9230 -->
<g id="node9" class="node"><title>Node0x44eb9230</title>
<polygon fill="none" stroke="black" points="449.5,-1120.5 449.5,-1278.5 612.5,-1278.5 612.5,-1120.5 449.5,-1120.5"/>
<text text-anchor="start" x="457.5" y="-1263.3" font-family="Times,serif" font-size="14.00">0x1e608850:</text>
<text text-anchor="start" x="457.5" y="-1248.3" font-family="Times,serif" font-size="14.00"> v16 = g35</text>
<text text-anchor="start" x="457.5" y="-1233.3" font-family="Times,serif" font-size="14.00"> v17 = (v16 + 304)</text>
<text text-anchor="start" x="457.5" y="-1218.3" font-family="Times,serif" font-size="14.00"> g40 = v17</text>
<text text-anchor="start" x="457.5" y="-1203.3" font-family="Times,serif" font-size="14.00"> g35 = 0</text>
<text text-anchor="start" x="457.5" y="-1188.3" font-family="Times,serif" font-size="14.00"> g31 = (v16 + 1328)</text>
<text text-anchor="start" x="457.5" y="-1173.3" font-family="Times,serif" font-size="14.00"> g42 = (v16 + 2352)</text>
<text text-anchor="start" x="457.5" y="-1158.3" font-family="Times,serif" font-size="14.00"> g41 = (v16 + 3376)</text>
<text text-anchor="start" x="457.5" y="-1143.3" font-family="Times,serif" font-size="14.00"> v18 = 0</text>
<text text-anchor="start" x="457.5" y="-1128.3" font-family="Times,serif" font-size="14.00"> v19 = 0</text>
</g>
<!-- Node0x474832f0&#45;&gt;Node0x44eb9230 -->
<g id="edge9" class="edge"><title>Node0x474832f0&#45;&gt;Node0x44eb9230</title>
<path fill="none" stroke="black" d="M531,-1316.43C531,-1308.74 531,-1299.16 531,-1288.83"/>
<polygon fill="black" stroke="black" points="534.5,-1288.73 531,-1278.73 527.5,-1288.73 534.5,-1288.73"/>
</g>
<!-- Node0xa659e30 -->
<g id="node10" class="node"><title>Node0xa659e30</title>
<polygon fill="none" stroke="black" points="480.5,-1044.5 480.5,-1082.5 581.5,-1082.5 581.5,-1044.5 480.5,-1044.5"/>
<text text-anchor="start" x="488.5" y="-1067.3" font-family="Times,serif" font-size="14.00">0x4dae060:</text>
<text text-anchor="start" x="488.5" y="-1052.3" font-family="Times,serif" font-size="14.00"> while True:</text>
</g>
<!-- Node0x44eb9230&#45;&gt;Node0xa659e30 -->
<g id="edge11" class="edge"><title>Node0x44eb9230&#45;&gt;Node0xa659e30</title>
<path fill="none" stroke="black" d="M531,-1120.16C531,-1110.45 531,-1101.06 531,-1092.85"/>
<polygon fill="black" stroke="black" points="534.5,-1092.8 531,-1082.8 527.5,-1092.8 534.5,-1092.8"/>
</g>
<!-- Node0x1f469ee0 -->
<g id="node11" class="node"><title>Node0x1f469ee0</title>
<polygon fill="none" stroke="black" points="99,-624.5 99,-992.5 569,-992.5 569,-624.5 99,-624.5"/>
<text text-anchor="start" x="107" y="-977.3" font-family="Times,serif" font-size="14.00">0x1063e870:</text>
<text text-anchor="start" x="107" y="-962.3" font-family="Times,serif" font-size="14.00"> v20 = IntToPtrCastExpr&lt;ptr&gt;((v15 % 256))[v19]</text>
<text text-anchor="start" x="107" y="-947.3" font-family="Times,serif" font-size="14.00"> v21 = ((283 * (v20 / 128)) ^ (2 * v20))</text>
<text text-anchor="start" x="107" y="-932.3" font-family="Times,serif" font-size="14.00"> v22 = (v21 ^ v20)</text>
<text text-anchor="start" x="107" y="-917.3" font-family="Times,serif" font-size="14.00"> v23 = ((((65536 * v20) | (256 * v20)) | v22) | (16777216 * v21))</text>
<text text-anchor="start" x="107" y="-902.3" font-family="Times,serif" font-size="14.00"> g37 = v23</text>
<text text-anchor="start" x="107" y="-887.3" font-family="Times,serif" font-size="14.00"> v24 = (16843009 * v20)</text>
<text text-anchor="start" x="107" y="-872.3" font-family="Times,serif" font-size="14.00"> g33 = v24</text>
<text text-anchor="start" x="107" y="-857.3" font-family="Times,serif" font-size="14.00"> v25 = (v23 / 256)</text>
<text text-anchor="start" x="107" y="-842.3" font-family="Times,serif" font-size="14.00"> v26 = ((16777216 * v22) | v25)</text>
<text text-anchor="start" x="107" y="-827.3" font-family="Times,serif" font-size="14.00"> g30 = v26</text>
<text text-anchor="start" x="107" y="-812.3" font-family="Times,serif" font-size="14.00"> v27 = (v26 / 256)</text>
<text text-anchor="start" x="107" y="-797.3" font-family="Times,serif" font-size="14.00"> v28 = (v27 | (16777216 * v25))</text>
<text text-anchor="start" x="107" y="-782.3" font-family="Times,serif" font-size="14.00"> g29 = v28</text>
<text text-anchor="start" x="107" y="-767.3" font-family="Times,serif" font-size="14.00"> v29 = (v19 + 1)</text>
<text text-anchor="start" x="107" y="-752.3" font-family="Times,serif" font-size="14.00"> g39 = v29</text>
<text text-anchor="start" x="107" y="-737.3" font-family="Times,serif" font-size="14.00"> g36 = ((v28 / 256) | (16777216 * v27))</text>
<text text-anchor="start" x="107" y="-722.3" font-family="Times,serif" font-size="14.00"> *(IntToPtrCastExpr&lt;ptr&gt;((v18 + v17))) = v24</text>
<text text-anchor="start" x="107" y="-707.3" font-family="Times,serif" font-size="14.00"> g12[g35] = g36</text>
<text text-anchor="start" x="107" y="-692.3" font-family="Times,serif" font-size="14.00"> *(IntToPtrCastExpr&lt;ptr&gt;((g31 + g35))) = g37</text>
<text text-anchor="start" x="107" y="-677.3" font-family="Times,serif" font-size="14.00"> *(IntToPtrCastExpr&lt;ptr&gt;((g42 + g35))) = g30</text>
<text text-anchor="start" x="107" y="-662.3" font-family="Times,serif" font-size="14.00"> *(IntToPtrCastExpr&lt;ptr&gt;((g41 + g35))) = g29</text>
<text text-anchor="start" x="107" y="-647.3" font-family="Times,serif" font-size="14.00"> v30 = (g35 + 4)</text>
<text text-anchor="start" x="107" y="-632.3" font-family="Times,serif" font-size="14.00"> g35 = v30</text>
</g>
<!-- Node0xa659e30&#45;&gt;Node0x1f469ee0 -->
<g id="edge12" class="edge"><title>Node0xa659e30&#45;&gt;Node0x1f469ee0</title>
<path fill="none" stroke="black" d="M516.832,-1044.3C508.302,-1033.35 496.473,-1018.16 482.895,-1000.72"/>
<polygon fill="black" stroke="black" points="485.445,-998.298 476.539,-992.558 479.921,-1002.6 485.445,-998.298"/>
<text text-anchor="middle" x="520" y="-1014.8" font-family="Times,serif" font-size="14.00">True</text>
</g>
<!-- Node0x17eed430 -->
<g id="node12" class="node"><title>Node0x17eed430</title>
<polygon fill="none" stroke="black" points="301.5,-548.5 301.5,-586.5 438.5,-586.5 438.5,-548.5 301.5,-548.5"/>
<text text-anchor="start" x="309.5" y="-571.3" font-family="Times,serif" font-size="14.00">0x4dace10:</text>
<text text-anchor="start" x="309.5" y="-556.3" font-family="Times,serif" font-size="14.00"> if (v29 == 256):</text>
</g>
<!-- Node0x1f469ee0&#45;&gt;Node0x17eed430 -->
<g id="edge13" class="edge"><title>Node0x1f469ee0&#45;&gt;Node0x17eed430</title>
<path fill="none" stroke="black" d="M361.605,-624.233C363.144,-614.014 364.551,-604.675 365.755,-596.684"/>
<polygon fill="black" stroke="black" points="369.235,-597.077 367.263,-586.668 362.313,-596.035 369.235,-597.077"/>
</g>
<!-- Node0x9d829f0 -->
<g id="node13" class="node"><title>Node0x9d829f0</title>
<polygon fill="none" stroke="black" points="253.5,-338.5 253.5,-496.5 486.5,-496.5 486.5,-338.5 253.5,-338.5"/>
<text text-anchor="start" x="261.5" y="-481.3" font-family="Times,serif" font-size="14.00">0x4da7850:</text>
<text text-anchor="start" x="261.5" y="-466.3" font-family="Times,serif" font-size="14.00"> g6 = True</text>
<text text-anchor="start" x="261.5" y="-451.3" font-family="Times,serif" font-size="14.00"> g9 = True</text>
<text text-anchor="start" x="261.5" y="-436.3" font-family="Times,serif" font-size="14.00"> g39 = v1</text>
<text text-anchor="start" x="261.5" y="-421.3" font-family="Times,serif" font-size="14.00"> g40 = v2</text>
<text text-anchor="start" x="261.5" y="-406.3" font-family="Times,serif" font-size="14.00"> g41 = v3</text>
<text text-anchor="start" x="261.5" y="-391.3" font-family="Times,serif" font-size="14.00"> g42 = v4</text>
<text text-anchor="start" x="261.5" y="-376.3" font-family="Times,serif" font-size="14.00"> g31 = v5</text>
<text text-anchor="start" x="261.5" y="-361.3" font-family="Times,serif" font-size="14.00"> IntToPtrCastExpr&lt;ptr&gt;(v6)()</text>
<text text-anchor="start" x="261.5" y="-346.3" font-family="Times,serif" font-size="14.00"> v31 = (g31 % 256)</text>
</g>
<!-- Node0x17eed430&#45;&gt;Node0x9d829f0 -->
<g id="edge14" class="edge"><title>Node0x17eed430&#45;&gt;Node0x9d829f0</title>
<path fill="none" stroke="black" d="M370,-548.352C370,-537.462 370,-522.712 370,-507.058"/>
<polygon fill="black" stroke="black" points="373.5,-506.671 370,-496.671 366.5,-506.671 373.5,-506.671"/>
<text text-anchor="middle" x="413.5" y="-518.8" font-family="Times,serif" font-size="14.00">v29 == 256</text>
</g>
<!-- Node0xeb93e20 -->
<g id="node14" class="node"><title>Node0xeb93e20</title>
<polygon fill="none" stroke="black" points="525.5,-383.5 525.5,-451.5 626.5,-451.5 626.5,-383.5 525.5,-383.5"/>
<text text-anchor="start" x="533.5" y="-436.3" font-family="Times,serif" font-size="14.00">0x4dad760:</text>
<text text-anchor="start" x="533.5" y="-421.3" font-family="Times,serif" font-size="14.00"> v17 = g40</text>
<text text-anchor="start" x="533.5" y="-406.3" font-family="Times,serif" font-size="14.00"> v18 = v30</text>
<text text-anchor="start" x="533.5" y="-391.3" font-family="Times,serif" font-size="14.00"> v19 = g39</text>
</g>
<!-- Node0x17eed430&#45;&gt;Node0xeb93e20 -->
<g id="edge15" class="edge"><title>Node0x17eed430&#45;&gt;Node0xeb93e20</title>
<path fill="none" stroke="black" d="M425.129,-548.386C437.392,-543.281 450.006,-537.136 461,-530 491.074,-510.481 520.024,-482.342 541.354,-459.217"/>
<polygon fill="black" stroke="black" points="544.153,-461.341 548.286,-451.586 538.971,-456.634 544.153,-461.341"/>
<text text-anchor="middle" x="519.5" y="-518.8" font-family="Times,serif" font-size="14.00">v29 != 256</text>
</g>
<!-- Node0xa65be40 -->
<g id="node15" class="node"><title>Node0xa65be40</title>
<polygon fill="none" stroke="black" points="320.5,-262.5 320.5,-300.5 419.5,-300.5 419.5,-262.5 320.5,-262.5"/>
<text text-anchor="start" x="328.5" y="-285.3" font-family="Times,serif" font-size="14.00">0x4daca60:</text>
<text text-anchor="start" x="328.5" y="-270.3" font-family="Times,serif" font-size="14.00"> if g9:</text>
</g>
<!-- Node0x9d829f0&#45;&gt;Node0xa65be40 -->
<g id="edge16" class="edge"><title>Node0x9d829f0&#45;&gt;Node0xa65be40</title>
<path fill="none" stroke="black" d="M370,-338.164C370,-328.447 370,-319.058 370,-310.846"/>
<polygon fill="black" stroke="black" points="373.5,-310.801 370,-300.801 366.5,-310.801 373.5,-310.801"/>
</g>
<!-- Node0xeb93e20&#45;&gt;Node0xa659e30 -->
<g id="edge17" class="edge"><title>Node0xeb93e20&#45;&gt;Node0xa659e30</title>
<path fill="none" stroke="black" d="M582.778,-451.564C599.752,-541.196 638.555,-795.357 578,-993 573.181,-1008.73 563.466,-1024.11 554.114,-1036.38"/>
<polygon fill="black" stroke="black" points="551.258,-1034.35 547.761,-1044.35 556.732,-1038.71 551.258,-1034.35"/>
</g>
<!-- Node0xa67abb0 -->
<g id="node16" class="node"><title>Node0xa67abb0</title>
<polygon fill="none" stroke="black" points="0,-97.5 0,-210.5 548,-210.5 548,-97.5 0,-97.5"/>
<text text-anchor="start" x="8" y="-195.3" font-family="Times,serif" font-size="14.00">0x4da9ee0:</text>
<text text-anchor="start" x="8" y="-180.3" font-family="Times,serif" font-size="14.00"> g40 = (g36 &amp; (g38 &gt;&gt; (32 if (v31 &gt; 32) else v31)))</text>
<text text-anchor="start" x="8" y="-165.3" font-family="Times,serif" font-size="14.00"> v32 = (g30 % 256)</text>
<text text-anchor="start" x="8" y="-150.3" font-family="Times,serif" font-size="14.00"> v33 = ((g32 if (v32 == 0) else ((g32 &lt;&lt; v32) if (v32 &lt; 32) else 0)) &amp; g29)</text>
<text text-anchor="start" x="8" y="-135.3" font-family="Times,serif" font-size="14.00"> g36 = (v33 &amp; (g42 / 4))</text>
<text text-anchor="start" x="8" y="-120.3" font-family="Times,serif" font-size="14.00"> g29 = ((v33 &gt;&gt; (32 if (v32 &gt; 32) else v32)) &amp; v33)</text>
<text text-anchor="start" x="8" y="-105.3" font-family="Times,serif" font-size="14.00"> return</text>
</g>
<!-- Node0xa65be40&#45;&gt;Node0xa67abb0 -->
<g id="edge18" class="edge"><title>Node0xa65be40&#45;&gt;Node0xa67abb0</title>
<path fill="none" stroke="black" d="M356.041,-262.251C347.14,-250.615 335.021,-234.773 322.831,-218.837"/>
<polygon fill="black" stroke="black" points="325.322,-216.333 316.467,-210.516 319.762,-220.586 325.322,-216.333"/>
<text text-anchor="middle" x="351.5" y="-232.8" font-family="Times,serif" font-size="14.00">g9</text>
</g>
<!-- Node0x1f726400 -->
<g id="node17" class="node"><title>Node0x1f726400</title>
<polygon fill="none" stroke="black" points="566,-135 566,-173 666,-173 666,-135 566,-135"/>
<text text-anchor="start" x="574" y="-157.8" font-family="Times,serif" font-size="14.00">0x4dacb80:</text>
<text text-anchor="start" x="574" y="-142.8" font-family="Times,serif" font-size="14.00"> return</text>
</g>
<!-- Node0xa65be40&#45;&gt;Node0x1f726400 -->
<g id="edge19" class="edge"><title>Node0xa65be40&#45;&gt;Node0x1f726400</title>
<path fill="none" stroke="black" d="M419.739,-267.967C458.927,-256.728 513.945,-237.848 557,-211 570.307,-202.702 583.171,-191.066 593.473,-180.549"/>
<polygon fill="black" stroke="black" points="596.147,-182.816 600.491,-173.153 591.069,-177.998 596.147,-182.816"/>
<text text-anchor="middle" x="552.5" y="-232.8" font-family="Times,serif" font-size="14.00">not (g9)</text>
</g>
<!-- Node0x474839f0 -->
<g id="node18" class="node"><title>Node0x474839f0</title>
<polygon fill="none" stroke="black" points="457,-23.5 457,-59.5 511,-59.5 511,-23.5 457,-23.5"/>
<text text-anchor="start" x="465" y="-37.8" font-family="Times,serif" font-size="14.00">exit:</text>
</g>
<!-- Node0xa67abb0&#45;&gt;Node0x474839f0 -->
<g id="edge20" class="edge"><title>Node0xa67abb0&#45;&gt;Node0x474839f0</title>
<path fill="none" stroke="black" d="M379.615,-97.4263C404.192,-84.4942 428.724,-71.5859 447.824,-61.5352"/>
<polygon fill="black" stroke="black" points="449.521,-64.5973 456.741,-56.8433 446.262,-58.4025 449.521,-64.5973"/>
</g>
<!-- Node0x1f726400&#45;&gt;Node0x474839f0 -->
<g id="edge21" class="edge"><title>Node0x1f726400&#45;&gt;Node0x474839f0</title>
<path fill="none" stroke="black" d="M597.915,-134.768C586.495,-123.527 571.254,-109.014 557,-97 544.203,-86.214 529.512,-75.0328 516.679,-65.626"/>
<polygon fill="black" stroke="black" points="518.701,-62.7688 508.554,-59.7227 514.587,-68.432 518.701,-62.7688"/>
</g>
</g>
</svg>
