<?xml version="1.0" encoding="UTF-8" standalone="no"?>
<!DOCTYPE svg PUBLIC "-//W3C//DTD SVG 1.1//EN"
 "http://www.w3.org/Graphics/SVG/1.1/DTD/svg11.dtd">
<!-- Generated by graphviz version 2.38.0 (20140413.2041)
 -->
<!-- Title: Control&#45;flow graph for function &#39;function_23d7c()&#39;. Pages: 1 -->
<svg width="385pt" height="396pt"
 viewBox="0.00 0.00 385.00 396.00" xmlns="http://www.w3.org/2000/svg" xmlns:xlink="http://www.w3.org/1999/xlink">
<g id="graph0" class="graph" transform="scale(1 1) rotate(0) translate(4 392)">
<title>Control&#45;flow graph for function &#39;function_23d7c()&#39;.</title>
<polygon fill="white" stroke="none" points="-4,4 -4,-392 381,-392 381,4 -4,4"/>
<text text-anchor="middle" x="188.5" y="-7.8" font-family="Times,serif" font-size="14.00">Control&#45;flow graph for function &#39;function_23d7c()&#39;.</text>
<!-- Node0x310a7ee0 -->
<g id="node1" class="node"><title>Node0x310a7ee0</title>
<polygon fill="none" stroke="black" points="159,-351.5 159,-387.5 218,-387.5 218,-351.5 159,-351.5"/>
<text text-anchor="start" x="167" y="-365.8" font-family="Times,serif" font-size="14.00">entry:</text>
</g>
<!-- Node0x4660b970 -->
<g id="node2" class="node"><title>Node0x4660b970</title>
<polygon fill="none" stroke="black" points="109.5,-96.5 109.5,-314.5 267.5,-314.5 267.5,-96.5 109.5,-96.5"/>
<text text-anchor="start" x="117.5" y="-299.3" font-family="Times,serif" font-size="14.00">0xa46e2e0:</text>
<text text-anchor="start" x="117.5" y="-284.3" font-family="Times,serif" font-size="14.00"> unknown_228ca()</text>
<text text-anchor="start" x="117.5" y="-269.3" font-family="Times,serif" font-size="14.00"> v1</text>
<text text-anchor="start" x="117.5" y="-254.3" font-family="Times,serif" font-size="14.00"> g36 = v1</text>
<text text-anchor="start" x="117.5" y="-239.3" font-family="Times,serif" font-size="14.00"> v2 = (65536 * g30)</text>
<text text-anchor="start" x="117.5" y="-224.3" font-family="Times,serif" font-size="14.00"> g30 = v2</text>
<text text-anchor="start" x="117.5" y="-209.3" font-family="Times,serif" font-size="14.00"> v3 = (v1 % 65536)</text>
<text text-anchor="start" x="117.5" y="-194.3" font-family="Times,serif" font-size="14.00"> g37 = v3</text>
<text text-anchor="start" x="117.5" y="-179.3" font-family="Times,serif" font-size="14.00"> g8 = False</text>
<text text-anchor="start" x="117.5" y="-164.3" font-family="Times,serif" font-size="14.00"> g6 = False</text>
<text text-anchor="start" x="117.5" y="-149.3" font-family="Times,serif" font-size="14.00"> v4 = (v2 | v3)</text>
<text text-anchor="start" x="117.5" y="-134.3" font-family="Times,serif" font-size="14.00"> g29 = v4</text>
<text text-anchor="start" x="117.5" y="-119.3" font-family="Times,serif" font-size="14.00"> g7 = (v4 &lt; 0)</text>
<text text-anchor="start" x="117.5" y="-104.3" font-family="Times,serif" font-size="14.00"> g9 = (v4 == 0)</text>
</g>
<!-- Node0x310a7ee0&#45;&gt;Node0x4660b970 -->
<g id="edge1" class="edge"><title>Node0x310a7ee0&#45;&gt;Node0x4660b970</title>
<path fill="none" stroke="black" d="M188.5,-351.469C188.5,-344.144 188.5,-334.901 188.5,-324.644"/>
<polygon fill="black" stroke="black" points="192,-324.529 188.5,-314.529 185,-324.529 192,-324.529"/>
</g>
<!-- Node0x310ab810 -->
<g id="node3" class="node"><title>Node0x310ab810</title>
<polygon fill="none" stroke="black" points="161.5,-23.5 161.5,-59.5 215.5,-59.5 215.5,-23.5 161.5,-23.5"/>
<text text-anchor="start" x="169.5" y="-37.8" font-family="Times,serif" font-size="14.00">exit:</text>
</g>
<!-- Node0x4660b970&#45;&gt;Node0x310ab810 -->
<g id="edge2" class="edge"><title>Node0x4660b970&#45;&gt;Node0x310ab810</title>
<path fill="none" stroke="black" d="M188.5,-96.4437C188.5,-86.8181 188.5,-77.7685 188.5,-69.9316"/>
<polygon fill="black" stroke="black" points="192,-69.7265 188.5,-59.7265 185,-69.7266 192,-69.7265"/>
</g>
</g>
</svg>
