<?xml version="1.0" encoding="UTF-8" standalone="no"?>
<!DOCTYPE svg PUBLIC "-//W3C//DTD SVG 1.1//EN"
 "http://www.w3.org/Graphics/SVG/1.1/DTD/svg11.dtd">
<!-- Generated by graphviz version 2.38.0 (20140413.2041)
 -->
<!-- Title: Control&#45;flow graph for function &#39;function_240ca()&#39;. Pages: 1 -->
<svg width="606pt" height="685pt"
 viewBox="0.00 0.00 605.50 685.00" xmlns="http://www.w3.org/2000/svg" xmlns:xlink="http://www.w3.org/1999/xlink">
<g id="graph0" class="graph" transform="scale(1 1) rotate(0) translate(4 681)">
<title>Control&#45;flow graph for function &#39;function_240ca()&#39;.</title>
<polygon fill="white" stroke="none" points="-4,4 -4,-681 601.5,-681 601.5,4 -4,4"/>
<text text-anchor="middle" x="298.75" y="-7.8" font-family="Times,serif" font-size="14.00">Control&#45;flow graph for function &#39;function_240ca()&#39;.</text>
<!-- Node0x3c6e29a0 -->
<g id="node1" class="node"><title>Node0x3c6e29a0</title>
<polygon fill="none" stroke="black" points="170,-640.5 170,-676.5 229,-676.5 229,-640.5 170,-640.5"/>
<text text-anchor="start" x="178" y="-654.8" font-family="Times,serif" font-size="14.00">entry:</text>
</g>
<!-- Node0x3c6e4240 -->
<g id="node2" class="node"><title>Node0x3c6e4240</title>
<polygon fill="none" stroke="black" points="33.5,-429.5 33.5,-602.5 365.5,-602.5 365.5,-429.5 33.5,-429.5"/>
<text text-anchor="start" x="41.5" y="-587.3" font-family="Times,serif" font-size="14.00">0xa50d020:</text>
<text text-anchor="start" x="41.5" y="-572.3" font-family="Times,serif" font-size="14.00"> g33 = (g29 &#45; g40)</text>
<text text-anchor="start" x="41.5" y="-557.3" font-family="Times,serif" font-size="14.00"> v1 = g39</text>
<text text-anchor="start" x="41.5" y="-542.3" font-family="Times,serif" font-size="14.00"> v2 = (v1 | (65536 * g43))</text>
<text text-anchor="start" x="41.5" y="-527.3" font-family="Times,serif" font-size="14.00"> v3</text>
<text text-anchor="start" x="41.5" y="-512.3" font-family="Times,serif" font-size="14.00"> v4 = (v3 % 65536)</text>
<text text-anchor="start" x="41.5" y="-497.3" font-family="Times,serif" font-size="14.00"> v5 = (v3 / 65536)</text>
<text text-anchor="start" x="41.5" y="-482.3" font-family="Times,serif" font-size="14.00"> v6 = (v1 % 65536)</text>
<text text-anchor="start" x="41.5" y="-467.3" font-family="Times,serif" font-size="14.00"> v7 = (v2 / 65536)</text>
<text text-anchor="start" x="41.5" y="-452.3" font-family="Times,serif" font-size="14.00"> v8 = (v7 * v4)</text>
<text text-anchor="start" x="41.5" y="-437.3" font-family="Times,serif" font-size="14.00"> v9 = ((v8 + (v6 * v5)) + ((v6 * v4) / 65536))</text>
</g>
<!-- Node0x3c6e29a0&#45;&gt;Node0x3c6e4240 -->
<g id="edge1" class="edge"><title>Node0x3c6e29a0&#45;&gt;Node0x3c6e4240</title>
<path fill="none" stroke="black" d="M199.5,-640.272C199.5,-632.72 199.5,-623.213 199.5,-612.845"/>
<polygon fill="black" stroke="black" points="203,-612.676 199.5,-602.676 196,-612.676 203,-612.676"/>
</g>
<!-- Node0x27525790 -->
<g id="node3" class="node"><title>Node0x27525790</title>
<polygon fill="none" stroke="black" points="38.5,-353.5 38.5,-391.5 360.5,-391.5 360.5,-353.5 38.5,-353.5"/>
<text text-anchor="start" x="46.5" y="-376.3" font-family="Times,serif" font-size="14.00">0xa513240:</text>
<text text-anchor="start" x="46.5" y="-361.3" font-family="Times,serif" font-size="14.00"> if ((v8 != v9) and (((&#45;2 &#45; v9) + v8) &lt;= v8)):</text>
</g>
<!-- Node0x3c6e4240&#45;&gt;Node0x27525790 -->
<g id="edge2" class="edge"><title>Node0x3c6e4240&#45;&gt;Node0x27525790</title>
<path fill="none" stroke="black" d="M199.5,-429.425C199.5,-419.55 199.5,-410.079 199.5,-401.829"/>
<polygon fill="black" stroke="black" points="203,-401.754 199.5,-391.754 196,-401.754 203,-401.754"/>
</g>
<!-- Node0x27525060 -->
<g id="node4" class="node"><title>Node0x27525060</title>
<polygon fill="none" stroke="black" points="0,-263.5 0,-301.5 243,-301.5 243,-263.5 0,-263.5"/>
<text text-anchor="start" x="8" y="-286.3" font-family="Times,serif" font-size="14.00">0xa512f60:</text>
<text text-anchor="start" x="8" y="-271.3" font-family="Times,serif" font-size="14.00"> g6 = ((v7 * v5) &gt; 4294901759)</text>
</g>
<!-- Node0x27525790&#45;&gt;Node0x27525060 -->
<g id="edge3" class="edge"><title>Node0x27525790&#45;&gt;Node0x27525060</title>
<path fill="none" stroke="black" d="M94.2826,-353.466C77.1864,-348.465 63.1934,-342.342 57.5,-335 49.4828,-324.661 55.4292,-315.119 66.3615,-307.13"/>
<polygon fill="black" stroke="black" points="68.5083,-309.913 75.0746,-301.599 64.7563,-304.004 68.5083,-309.913"/>
<text text-anchor="middle" x="193.5" y="-323.8" font-family="Times,serif" font-size="14.00">(v8 != v9) and (((&#45;2 &#45; v9) + v8) &lt;= v8)</text>
</g>
<!-- Node0x27525f80 -->
<g id="node5" class="node"><title>Node0x27525f80</title>
<polygon fill="none" stroke="black" points="211.5,-97.5 211.5,-225.5 351.5,-225.5 351.5,-97.5 211.5,-97.5"/>
<text text-anchor="start" x="219.5" y="-210.3" font-family="Times,serif" font-size="14.00">0xa513460:</text>
<text text-anchor="start" x="219.5" y="-195.3" font-family="Times,serif" font-size="14.00"> g29 = v2</text>
<text text-anchor="start" x="219.5" y="-180.3" font-family="Times,serif" font-size="14.00"> g8 = False</text>
<text text-anchor="start" x="219.5" y="-165.3" font-family="Times,serif" font-size="14.00"> g6 = False</text>
<text text-anchor="start" x="219.5" y="-150.3" font-family="Times,serif" font-size="14.00"> g37 = 0</text>
<text text-anchor="start" x="219.5" y="-135.3" font-family="Times,serif" font-size="14.00"> g7 = False</text>
<text text-anchor="start" x="219.5" y="-120.3" font-family="Times,serif" font-size="14.00"> g9 = True</text>
<text text-anchor="start" x="219.5" y="-105.3" font-family="Times,serif" font-size="14.00"> function_23f36()</text>
</g>
<!-- Node0x27525790&#45;&gt;Node0x27525f80 -->
<g id="edge4" class="edge"><title>Node0x27525790&#45;&gt;Node0x27525f80</title>
<path fill="none" stroke="black" d="M293.296,-353.47C310.115,-348.361 324.049,-342.193 329.5,-335 351.297,-306.24 343.456,-268.093 328.374,-234.985"/>
<polygon fill="black" stroke="black" points="331.439,-233.284 323.946,-225.793 325.132,-236.321 331.439,-233.284"/>
<text text-anchor="middle" x="470" y="-278.8" font-family="Times,serif" font-size="14.00">(v8 == v9) or (((&#45;2 &#45; v9) + v8) &gt; v8)</text>
</g>
<!-- Node0x27525060&#45;&gt;Node0x27525f80 -->
<g id="edge5" class="edge"><title>Node0x27525060&#45;&gt;Node0x27525f80</title>
<path fill="none" stroke="black" d="M145.801,-263.426C161.236,-251.946 182.163,-236.382 202.958,-220.915"/>
<polygon fill="black" stroke="black" points="205.285,-223.547 211.22,-214.771 201.107,-217.93 205.285,-223.547"/>
</g>
<!-- Node0x3c6e69a0 -->
<g id="node6" class="node"><title>Node0x3c6e69a0</title>
<polygon fill="none" stroke="black" points="254.5,-23.5 254.5,-59.5 308.5,-59.5 308.5,-23.5 254.5,-23.5"/>
<text text-anchor="start" x="262.5" y="-37.8" font-family="Times,serif" font-size="14.00">exit:</text>
</g>
<!-- Node0x27525f80&#45;&gt;Node0x3c6e69a0 -->
<g id="edge6" class="edge"><title>Node0x27525f80&#45;&gt;Node0x3c6e69a0</title>
<path fill="none" stroke="black" d="M281.5,-97.3546C281.5,-87.7534 281.5,-78.2993 281.5,-70.016"/>
<polygon fill="black" stroke="black" points="285,-69.8875 281.5,-59.8875 278,-69.8876 285,-69.8875"/>
</g>
</g>
</svg>
