<?xml version="1.0" encoding="UTF-8" standalone="no"?>
<!DOCTYPE svg PUBLIC "-//W3C//DTD SVG 1.1//EN"
 "http://www.w3.org/Graphics/SVG/1.1/DTD/svg11.dtd">
<!-- Generated by graphviz version 2.38.0 (20140413.2041)
 -->
<!-- Title: Control&#45;flow graph for function &#39;function_7e04()&#39;. Pages: 1 -->
<svg width="1098pt" height="3770pt"
 viewBox="0.00 0.00 1097.77 3770.00" xmlns="http://www.w3.org/2000/svg" xmlns:xlink="http://www.w3.org/1999/xlink">
<g id="graph0" class="graph" transform="scale(1 1) rotate(0) translate(4 3766)">
<title>Control&#45;flow graph for function &#39;function_7e04()&#39;.</title>
<polygon fill="white" stroke="none" points="-4,4 -4,-3766 1093.77,-3766 1093.77,4 -4,4"/>
<text text-anchor="middle" x="544.885" y="-7.8" font-family="Times,serif" font-size="14.00">Control&#45;flow graph for function &#39;function_7e04()&#39;.</text>
<!-- Node0x244142e0 -->
<g id="node1" class="node"><title>Node0x244142e0</title>
<polygon fill="none" stroke="black" points="106,-3725.5 106,-3761.5 165,-3761.5 165,-3725.5 106,-3725.5"/>
<text text-anchor="start" x="114" y="-3739.8" font-family="Times,serif" font-size="14.00">entry:</text>
</g>
<!-- Node0x2cec3d30 -->
<g id="node2" class="node"><title>Node0x2cec3d30</title>
<polygon fill="none" stroke="black" points="64,-3319.5 64,-3687.5 207,-3687.5 207,-3319.5 64,-3319.5"/>
<text text-anchor="start" x="72" y="-3672.3" font-family="Times,serif" font-size="14.00">0x12675a80:</text>
<text text-anchor="start" x="72" y="-3657.3" font-family="Times,serif" font-size="14.00"> v1 = g38</text>
<text text-anchor="start" x="72" y="-3642.3" font-family="Times,serif" font-size="14.00"> v2 = g39</text>
<text text-anchor="start" x="72" y="-3627.3" font-family="Times,serif" font-size="14.00"> v3 = g40</text>
<text text-anchor="start" x="72" y="-3612.3" font-family="Times,serif" font-size="14.00"> v4 = g41</text>
<text text-anchor="start" x="72" y="-3597.3" font-family="Times,serif" font-size="14.00"> v5 = g42</text>
<text text-anchor="start" x="72" y="-3582.3" font-family="Times,serif" font-size="14.00"> v6 = g43</text>
<text text-anchor="start" x="72" y="-3567.3" font-family="Times,serif" font-size="14.00"> v7 = g31</text>
<text text-anchor="start" x="72" y="-3552.3" font-family="Times,serif" font-size="14.00"> v8 = g35</text>
<text text-anchor="start" x="72" y="-3537.3" font-family="Times,serif" font-size="14.00"> v9 = g37</text>
<text text-anchor="start" x="72" y="-3522.3" font-family="Times,serif" font-size="14.00"> g43 = v9</text>
<text text-anchor="start" x="72" y="-3507.3" font-family="Times,serif" font-size="14.00"> v10</text>
<text text-anchor="start" x="72" y="-3492.3" font-family="Times,serif" font-size="14.00"> v11 = *(v10)</text>
<text text-anchor="start" x="72" y="-3477.3" font-family="Times,serif" font-size="14.00"> g35 = v11</text>
<text text-anchor="start" x="72" y="-3462.3" font-family="Times,serif" font-size="14.00"> g37 = 0</text>
<text text-anchor="start" x="72" y="-3447.3" font-family="Times,serif" font-size="14.00"> v12 = g30</text>
<text text-anchor="start" x="72" y="-3432.3" font-family="Times,serif" font-size="14.00"> g33 = v12</text>
<text text-anchor="start" x="72" y="-3417.3" font-family="Times,serif" font-size="14.00"> v13 = g36</text>
<text text-anchor="start" x="72" y="-3402.3" font-family="Times,serif" font-size="14.00"> g39 = v13</text>
<text text-anchor="start" x="72" y="-3387.3" font-family="Times,serif" font-size="14.00"> v14 = g29</text>
<text text-anchor="start" x="72" y="-3372.3" font-family="Times,serif" font-size="14.00"> g38 = v14</text>
<text text-anchor="start" x="72" y="-3357.3" font-family="Times,serif" font-size="14.00"> v15 = (v12 + v9)</text>
<text text-anchor="start" x="72" y="-3342.3" font-family="Times,serif" font-size="14.00"> g36 = v15</text>
<text text-anchor="start" x="72" y="-3327.3" font-family="Times,serif" font-size="14.00"> g30 = 0</text>
</g>
<!-- Node0x244142e0&#45;&gt;Node0x2cec3d30 -->
<g id="edge1" class="edge"><title>Node0x244142e0&#45;&gt;Node0x2cec3d30</title>
<path fill="none" stroke="black" d="M135.5,-3725.38C135.5,-3718 135.5,-3708.57 135.5,-3697.78"/>
<polygon fill="black" stroke="black" points="139,-3697.51 135.5,-3687.51 132,-3697.51 139,-3697.51"/>
</g>
<!-- Node0x271e57e0 -->
<g id="node3" class="node"><title>Node0x271e57e0</title>
<polygon fill="none" stroke="black" points="82,-3243.5 82,-3281.5 189,-3281.5 189,-3243.5 82,-3243.5"/>
<text text-anchor="start" x="90" y="-3266.3" font-family="Times,serif" font-size="14.00">0x6a36f20:</text>
<text text-anchor="start" x="90" y="-3251.3" font-family="Times,serif" font-size="14.00"> if (v15 &gt; 0):</text>
</g>
<!-- Node0x2cec3d30&#45;&gt;Node0x271e57e0 -->
<g id="edge2" class="edge"><title>Node0x2cec3d30&#45;&gt;Node0x271e57e0</title>
<path fill="none" stroke="black" d="M135.5,-3319.23C135.5,-3309.01 135.5,-3299.68 135.5,-3291.68"/>
<polygon fill="black" stroke="black" points="139,-3291.67 135.5,-3281.67 132,-3291.67 139,-3291.67"/>
</g>
<!-- Node0x446143b0 -->
<g id="node4" class="node"><title>Node0x446143b0</title>
<polygon fill="none" stroke="black" points="142.5,-3123.5 142.5,-3191.5 278.5,-3191.5 278.5,-3123.5 142.5,-3123.5"/>
<text text-anchor="start" x="150.5" y="-3176.3" font-family="Times,serif" font-size="14.00">0x6a31180:</text>
<text text-anchor="start" x="150.5" y="-3161.3" font-family="Times,serif" font-size="14.00"> *(v10) = 0</text>
<text text-anchor="start" x="150.5" y="-3146.3" font-family="Times,serif" font-size="14.00"> v16 = (g37 + 1)</text>
<text text-anchor="start" x="150.5" y="-3131.3" font-family="Times,serif" font-size="14.00"> g37 = v16</text>
</g>
<!-- Node0x271e57e0&#45;&gt;Node0x446143b0 -->
<g id="edge3" class="edge"><title>Node0x271e57e0&#45;&gt;Node0x446143b0</title>
<path fill="none" stroke="black" d="M148.908,-3243.09C157.654,-3231.08 169.431,-3214.9 180.344,-3199.91"/>
<polygon fill="black" stroke="black" points="183.237,-3201.89 186.294,-3191.74 177.578,-3197.77 183.237,-3201.89"/>
<text text-anchor="middle" x="202" y="-3213.8" font-family="Times,serif" font-size="14.00">v15 &gt; 0</text>
</g>
<!-- Node0xe455230 -->
<g id="node5" class="node"><title>Node0xe455230</title>
<polygon fill="none" stroke="black" points="71,-2311.5 71,-2649.5 256,-2649.5 256,-2311.5 71,-2311.5"/>
<text text-anchor="start" x="79" y="-2634.3" font-family="Times,serif" font-size="14.00">0x1199a620:</text>
<text text-anchor="start" x="79" y="-2619.3" font-family="Times,serif" font-size="14.00"> v18 = (4 * v12)</text>
<text text-anchor="start" x="79" y="-2604.3" font-family="Times,serif" font-size="14.00"> g29 = v18</text>
<text text-anchor="start" x="79" y="-2589.3" font-family="Times,serif" font-size="14.00"> v19 = (4 * v9)</text>
<text text-anchor="start" x="79" y="-2574.3" font-family="Times,serif" font-size="14.00"> v20 = ((v19 &#45; 8) + v18)</text>
<text text-anchor="start" x="79" y="-2559.3" font-family="Times,serif" font-size="14.00"> g37 = v20</text>
<text text-anchor="start" x="79" y="-2544.3" font-family="Times,serif" font-size="14.00"> v21 = (v11 + 4)</text>
<text text-anchor="start" x="79" y="-2529.3" font-family="Times,serif" font-size="14.00"> g30 = v21</text>
<text text-anchor="start" x="79" y="-2514.3" font-family="Times,serif" font-size="14.00"> v22 = (v19 &#45; 4)</text>
<text text-anchor="start" x="79" y="-2499.3" font-family="Times,serif" font-size="14.00"> g36 = v22</text>
<text text-anchor="start" x="79" y="-2484.3" font-family="Times,serif" font-size="14.00"> v23 = (v22 + v13)</text>
<text text-anchor="start" x="79" y="-2469.3" font-family="Times,serif" font-size="14.00"> v24 = (v18 + v11)</text>
<text text-anchor="start" x="79" y="-2454.3" font-family="Times,serif" font-size="14.00"> g35 = v24</text>
<text text-anchor="start" x="79" y="-2439.3" font-family="Times,serif" font-size="14.00"> v25 = (v20 + v21)</text>
<text text-anchor="start" x="79" y="-2424.3" font-family="Times,serif" font-size="14.00"> g31 = v25</text>
<text text-anchor="start" x="79" y="-2409.3" font-family="Times,serif" font-size="14.00"> v26 = (v18 + v14)</text>
<text text-anchor="start" x="79" y="-2394.3" font-family="Times,serif" font-size="14.00"> g42 = v26</text>
<text text-anchor="start" x="79" y="-2379.3" font-family="Times,serif" font-size="14.00"> v27 = (v12 &#45; 1)</text>
<text text-anchor="start" x="79" y="-2364.3" font-family="Times,serif" font-size="14.00"> g41 = v27</text>
<text text-anchor="start" x="79" y="-2349.3" font-family="Times,serif" font-size="14.00"> g6 = True</text>
<text text-anchor="start" x="79" y="-2334.3" font-family="Times,serif" font-size="14.00"> g8 = False</text>
<text text-anchor="start" x="79" y="-2319.3" font-family="Times,serif" font-size="14.00"> g7 = (v27 &lt; 0)</text>
</g>
<!-- Node0x271e57e0&#45;&gt;Node0xe455230 -->
<g id="edge4" class="edge"><title>Node0x271e57e0&#45;&gt;Node0xe455230</title>
<path fill="none" stroke="black" d="M124.894,-3243.19C114.274,-3223.1 99.5,-3189.57 99.5,-3158.5 99.5,-3158.5 99.5,-3158.5 99.5,-2735.5 99.5,-2710.71 102.402,-2684.96 106.97,-2659.78"/>
<polygon fill="black" stroke="black" points="110.441,-2660.27 108.875,-2649.79 103.564,-2658.96 110.441,-2660.27"/>
<text text-anchor="middle" x="134" y="-2957.8" font-family="Times,serif" font-size="14.00">v15 &lt;= 0</text>
</g>
<!-- Node0x27d67cc0 -->
<g id="node6" class="node"><title>Node0x27d67cc0</title>
<polygon fill="none" stroke="black" points="192,-3047.5 192,-3085.5 317,-3085.5 317,-3047.5 192,-3047.5"/>
<text text-anchor="start" x="200" y="-3070.3" font-family="Times,serif" font-size="14.00">0x6a34f20:</text>
<text text-anchor="start" x="200" y="-3055.3" font-family="Times,serif" font-size="14.00"> if (v16 &lt; g36):</text>
</g>
<!-- Node0x446143b0&#45;&gt;Node0x27d67cc0 -->
<g id="edge5" class="edge"><title>Node0x446143b0&#45;&gt;Node0x27d67cc0</title>
<path fill="none" stroke="black" d="M226.884,-3123.36C231.477,-3114.07 236.421,-3104.07 240.838,-3095.13"/>
<polygon fill="black" stroke="black" points="244.089,-3096.46 245.383,-3085.94 237.814,-3093.35 244.089,-3096.46"/>
</g>
<!-- Node0x3d70f4c0 -->
<g id="node7" class="node"><title>Node0x3d70f4c0</title>
<polygon fill="none" stroke="black" points="110,-2235.5 110,-2273.5 217,-2273.5 217,-2235.5 110,-2235.5"/>
<text text-anchor="start" x="118" y="-2258.3" font-family="Times,serif" font-size="14.00">0x6a3b3c0:</text>
<text text-anchor="start" x="118" y="-2243.3" font-family="Times,serif" font-size="14.00"> if (v27 &lt; 0):</text>
</g>
<!-- Node0xe455230&#45;&gt;Node0x3d70f4c0 -->
<g id="edge6" class="edge"><title>Node0xe455230&#45;&gt;Node0x3d70f4c0</title>
<path fill="none" stroke="black" d="M163.5,-2311.45C163.5,-2301.27 163.5,-2291.92 163.5,-2283.91"/>
<polygon fill="black" stroke="black" points="167,-2283.84 163.5,-2273.84 160,-2283.84 167,-2283.84"/>
</g>
<!-- Node0x41d17c10 -->
<g id="node8" class="node"><title>Node0x41d17c10</title>
<polygon fill="none" stroke="black" points="186.5,-2927.5 186.5,-2995.5 322.5,-2995.5 322.5,-2927.5 186.5,-2927.5"/>
<text text-anchor="start" x="194.5" y="-2980.3" font-family="Times,serif" font-size="14.00">0x1ee35550:</text>
<text text-anchor="start" x="194.5" y="-2965.3" font-family="Times,serif" font-size="14.00"> v10[v16] = g30</text>
<text text-anchor="start" x="194.5" y="-2950.3" font-family="Times,serif" font-size="14.00"> v17 = (g37 + 1)</text>
<text text-anchor="start" x="194.5" y="-2935.3" font-family="Times,serif" font-size="14.00"> g37 = v17</text>
</g>
<!-- Node0x27d67cc0&#45;&gt;Node0x41d17c10 -->
<g id="edge7" class="edge"><title>Node0x27d67cc0&#45;&gt;Node0x41d17c10</title>
<path fill="none" stroke="black" d="M254.5,-3047.09C254.5,-3035.63 254.5,-3020.39 254.5,-3006"/>
<polygon fill="black" stroke="black" points="258,-3005.74 254.5,-2995.74 251,-3005.74 258,-3005.74"/>
<text text-anchor="middle" x="292" y="-3017.8" font-family="Times,serif" font-size="14.00">v16 &lt; g36</text>
</g>
<!-- Node0x47a4f5f0 -->
<g id="node9" class="node"><title>Node0x47a4f5f0</title>
<polygon fill="none" stroke="black" points="281.5,-2687.5 281.5,-2785.5 381.5,-2785.5 381.5,-2687.5 281.5,-2687.5"/>
<text text-anchor="start" x="289.5" y="-2770.3" font-family="Times,serif" font-size="14.00">0x6a365e0:</text>
<text text-anchor="start" x="289.5" y="-2755.3" font-family="Times,serif" font-size="14.00"> v14 = g38</text>
<text text-anchor="start" x="289.5" y="-2740.3" font-family="Times,serif" font-size="14.00"> v13 = g39</text>
<text text-anchor="start" x="289.5" y="-2725.3" font-family="Times,serif" font-size="14.00"> v11 = g35</text>
<text text-anchor="start" x="289.5" y="-2710.3" font-family="Times,serif" font-size="14.00"> v9 = g43</text>
<text text-anchor="start" x="289.5" y="-2695.3" font-family="Times,serif" font-size="14.00"> v12 = g33</text>
</g>
<!-- Node0x27d67cc0&#45;&gt;Node0x47a4f5f0 -->
<g id="edge8" class="edge"><title>Node0x27d67cc0&#45;&gt;Node0x47a4f5f0</title>
<path fill="none" stroke="black" d="M310.223,-3047.39C318.95,-3042.55 327.162,-3036.5 333.5,-3029 395.915,-2955.13 377.721,-2914.86 390.5,-2819 391.381,-2812.39 392.866,-2810.23 390.5,-2804 389.257,-2800.73 387.771,-2797.51 386.095,-2794.37"/>
<polygon fill="black" stroke="black" points="389.054,-2792.5 380.911,-2785.72 383.05,-2796.1 389.054,-2792.5"/>
<text text-anchor="middle" x="428" y="-2897.8" font-family="Times,serif" font-size="14.00">v16 &gt;= g36</text>
</g>
<!-- Node0x30e15080 -->
<g id="node10" class="node"><title>Node0x30e15080</title>
<polygon fill="none" stroke="black" points="0,-1968.5 0,-2126.5 233,-2126.5 233,-1968.5 0,-1968.5"/>
<text text-anchor="start" x="8" y="-2111.3" font-family="Times,serif" font-size="14.00">0x6a3a4d0:</text>
<text text-anchor="start" x="8" y="-2096.3" font-family="Times,serif" font-size="14.00"> g38 = v1</text>
<text text-anchor="start" x="8" y="-2081.3" font-family="Times,serif" font-size="14.00"> g39 = v2</text>
<text text-anchor="start" x="8" y="-2066.3" font-family="Times,serif" font-size="14.00"> g40 = v3</text>
<text text-anchor="start" x="8" y="-2051.3" font-family="Times,serif" font-size="14.00"> g41 = v4</text>
<text text-anchor="start" x="8" y="-2036.3" font-family="Times,serif" font-size="14.00"> g42 = v5</text>
<text text-anchor="start" x="8" y="-2021.3" font-family="Times,serif" font-size="14.00"> g43 = v6</text>
<text text-anchor="start" x="8" y="-2006.3" font-family="Times,serif" font-size="14.00"> g31 = v7</text>
<text text-anchor="start" x="8" y="-1991.3" font-family="Times,serif" font-size="14.00"> IntToPtrCastExpr&lt;ptr&gt;(v8)()</text>
<text text-anchor="start" x="8" y="-1976.3" font-family="Times,serif" font-size="14.00"> return</text>
</g>
<!-- Node0x3d70f4c0&#45;&gt;Node0x30e15080 -->
<g id="edge9" class="edge"><title>Node0x3d70f4c0&#45;&gt;Node0x30e15080</title>
<path fill="none" stroke="black" d="M149.96,-2235.34C146.356,-2229.72 142.823,-2223.33 140.5,-2217 131.198,-2191.67 125.479,-2162.96 121.97,-2136.52"/>
<polygon fill="black" stroke="black" points="125.432,-2136 120.73,-2126.5 118.485,-2136.86 125.432,-2136"/>
<text text-anchor="middle" x="169" y="-2205.8" font-family="Times,serif" font-size="14.00">v27 &lt; 0</text>
</g>
<!-- Node0x306c5840 -->
<g id="node11" class="node"><title>Node0x306c5840</title>
<polygon fill="none" stroke="black" points="198,-2145.5 198,-2183.5 299,-2183.5 299,-2145.5 198,-2145.5"/>
<text text-anchor="start" x="206" y="-2168.3" font-family="Times,serif" font-size="14.00">0x6a4ad90:</text>
<text text-anchor="start" x="206" y="-2153.3" font-family="Times,serif" font-size="14.00"> while True:</text>
</g>
<!-- Node0x3d70f4c0&#45;&gt;Node0x306c5840 -->
<g id="edge10" class="edge"><title>Node0x3d70f4c0&#45;&gt;Node0x306c5840</title>
<path fill="none" stroke="black" d="M181.112,-2235.27C193.421,-2222.52 210.03,-2205.33 223.678,-2191.2"/>
<polygon fill="black" stroke="black" points="226.48,-2193.33 230.911,-2183.71 221.446,-2188.47 226.48,-2193.33"/>
<text text-anchor="middle" x="246" y="-2205.8" font-family="Times,serif" font-size="14.00">v27 &gt;= 0</text>
</g>
<!-- Node0x451be370 -->
<g id="node12" class="node"><title>Node0x451be370</title>
<polygon fill="none" stroke="black" points="146,-2837.5 146,-2875.5 299,-2875.5 299,-2837.5 146,-2837.5"/>
<text text-anchor="start" x="154" y="-2860.3" font-family="Times,serif" font-size="14.00">0x6a34d80:</text>
<text text-anchor="start" x="154" y="-2845.3" font-family="Times,serif" font-size="14.00"> while (v17 &lt; g36):</text>
</g>
<!-- Node0x41d17c10&#45;&gt;Node0x451be370 -->
<g id="edge11" class="edge"><title>Node0x41d17c10&#45;&gt;Node0x451be370</title>
<path fill="none" stroke="black" d="M244.199,-2927.34C239.989,-2913.79 235.174,-2898.29 231.151,-2885.35"/>
<polygon fill="black" stroke="black" points="234.43,-2884.1 228.121,-2875.59 227.745,-2886.18 234.43,-2884.1"/>
</g>
<!-- Node0x47a4f5f0&#45;&gt;Node0xe455230 -->
<g id="edge12" class="edge"><title>Node0x47a4f5f0&#45;&gt;Node0xe455230</title>
<path fill="none" stroke="black" d="M299.703,-2687.43C288.583,-2670.61 275.441,-2650.74 261.78,-2630.09"/>
<polygon fill="black" stroke="black" points="264.544,-2627.92 256.108,-2621.51 258.705,-2631.79 264.544,-2627.92"/>
</g>
<!-- Node0x30dee5b0 -->
<g id="node13" class="node"><title>Node0x30dee5b0</title>
<polygon fill="none" stroke="black" points="127.5,-23.5 127.5,-59.5 181.5,-59.5 181.5,-23.5 127.5,-23.5"/>
<text text-anchor="start" x="135.5" y="-37.8" font-family="Times,serif" font-size="14.00">exit:</text>
</g>
<!-- Node0x30e15080&#45;&gt;Node0x30dee5b0 -->
<g id="edge13" class="edge"><title>Node0x30e15080&#45;&gt;Node0x30dee5b0</title>
<path fill="none" stroke="black" d="M116.5,-1968.24C116.5,-1924.12 116.5,-1867.98 116.5,-1818 116.5,-1818 116.5,-1818 116.5,-198 116.5,-151.808 132.519,-100.048 143.755,-69.4218"/>
<polygon fill="black" stroke="black" points="147.098,-70.4761 147.352,-59.8843 140.549,-68.0057 147.098,-70.4761"/>
</g>
<!-- Node0x30e13380 -->
<g id="node14" class="node"><title>Node0x30e13380</title>
<polygon fill="none" stroke="black" points="192.5,-1836.5 192.5,-1949.5 320.5,-1949.5 320.5,-1836.5 192.5,-1836.5"/>
<text text-anchor="start" x="200.5" y="-1934.3" font-family="Times,serif" font-size="14.00">0x12f66820:</text>
<text text-anchor="start" x="200.5" y="-1919.3" font-family="Times,serif" font-size="14.00"> v28 = (v9 &#45; 1)</text>
<text text-anchor="start" x="200.5" y="-1904.3" font-family="Times,serif" font-size="14.00"> g40 = v28</text>
<text text-anchor="start" x="200.5" y="-1889.3" font-family="Times,serif" font-size="14.00"> g33 = (v25 &#45; 4)</text>
<text text-anchor="start" x="200.5" y="-1874.3" font-family="Times,serif" font-size="14.00"> g35 = (v23 &#45; 4)</text>
<text text-anchor="start" x="200.5" y="-1859.3" font-family="Times,serif" font-size="14.00"> v29 = 0</text>
<text text-anchor="start" x="200.5" y="-1844.3" font-family="Times,serif" font-size="14.00"> v30</text>
</g>
<!-- Node0x306c5840&#45;&gt;Node0x30e13380 -->
<g id="edge14" class="edge"><title>Node0x306c5840&#45;&gt;Node0x30e13380</title>
<path fill="none" stroke="black" d="M249.037,-2145.4C250.143,-2108.14 252.723,-2021.23 254.539,-1960.08"/>
<polygon fill="black" stroke="black" points="258.047,-1959.84 254.846,-1949.74 251.05,-1959.63 258.047,-1959.84"/>
<text text-anchor="middle" x="271.5" y="-2043.8" font-family="Times,serif" font-size="14.00">True</text>
</g>
<!-- Node0x451be370&#45;&gt;Node0x47a4f5f0 -->
<g id="edge16" class="edge"><title>Node0x451be370&#45;&gt;Node0x47a4f5f0</title>
<path fill="none" stroke="black" d="M263.147,-2837.34C271.847,-2832.24 280.512,-2826.1 287.5,-2819 294.519,-2811.86 300.726,-2803.38 306.101,-2794.62"/>
<polygon fill="black" stroke="black" points="309.217,-2796.23 311.198,-2785.82 303.159,-2792.72 309.217,-2796.23"/>
<text text-anchor="middle" x="343" y="-2807.8" font-family="Times,serif" font-size="14.00">v17 &gt;= g36</text>
</g>
<!-- Node0x23b81d40 -->
<g id="node15" class="node"><title>Node0x23b81d40</title>
<polygon fill="none" stroke="black" points="127.5,-2702.5 127.5,-2770.5 263.5,-2770.5 263.5,-2702.5 127.5,-2702.5"/>
<text text-anchor="start" x="135.5" y="-2755.3" font-family="Times,serif" font-size="14.00">0x12b67ed0:</text>
<text text-anchor="start" x="135.5" y="-2740.3" font-family="Times,serif" font-size="14.00"> v10[v17] = g30</text>
<text text-anchor="start" x="135.5" y="-2725.3" font-family="Times,serif" font-size="14.00"> v17 = (g37 + 1)</text>
<text text-anchor="start" x="135.5" y="-2710.3" font-family="Times,serif" font-size="14.00"> g37 = v17</text>
</g>
<!-- Node0x451be370&#45;&gt;Node0x23b81d40 -->
<g id="edge15" class="edge"><title>Node0x451be370&#45;&gt;Node0x23b81d40</title>
<path fill="none" stroke="black" d="M217.293,-2837.36C215.68,-2831.52 213.947,-2825 212.5,-2819 209.51,-2806.6 206.561,-2793.05 203.979,-2780.64"/>
<polygon fill="black" stroke="black" points="207.342,-2779.61 201.905,-2770.52 200.485,-2781.02 207.342,-2779.61"/>
<text text-anchor="middle" x="250" y="-2807.8" font-family="Times,serif" font-size="14.00">v17 &lt; g36</text>
</g>
<!-- Node0x3cee8cf0 -->
<g id="node16" class="node"><title>Node0x3cee8cf0</title>
<polygon fill="none" stroke="black" points="197,-1760.5 197,-1798.5 316,-1798.5 316,-1760.5 197,-1760.5"/>
<text text-anchor="start" x="205" y="-1783.3" font-family="Times,serif" font-size="14.00">0x6a47e90:</text>
<text text-anchor="start" x="205" y="-1768.3" font-family="Times,serif" font-size="14.00"> if (v28 &gt;= 0):</text>
</g>
<!-- Node0x30e13380&#45;&gt;Node0x3cee8cf0 -->
<g id="edge17" class="edge"><title>Node0x30e13380&#45;&gt;Node0x3cee8cf0</title>
<path fill="none" stroke="black" d="M256.5,-1836.25C256.5,-1826.86 256.5,-1817.47 256.5,-1809.15"/>
<polygon fill="black" stroke="black" points="260,-1808.91 256.5,-1798.91 253,-1808.91 260,-1808.91"/>
</g>
<!-- Node0x23b81d40&#45;&gt;Node0x451be370 -->
<g id="edge18" class="edge"><title>Node0x23b81d40&#45;&gt;Node0x451be370</title>
<path fill="none" stroke="black" d="M197.222,-2770.88C198.596,-2785.82 201.064,-2803.51 205.5,-2819 206.358,-2821.99 207.432,-2825.05 208.622,-2828.06"/>
<polygon fill="black" stroke="black" points="205.476,-2829.6 212.689,-2837.37 211.89,-2826.8 205.476,-2829.6"/>
</g>
<!-- Node0x3da94520 -->
<g id="node17" class="node"><title>Node0x3da94520</title>
<polygon fill="none" stroke="black" points="397.5,-1670.5 397.5,-1708.5 501.5,-1708.5 501.5,-1670.5 397.5,-1670.5"/>
<text text-anchor="start" x="405.5" y="-1693.3" font-family="Times,serif" font-size="14.00">0x1c24fca0:</text>
<text text-anchor="start" x="405.5" y="-1678.3" font-family="Times,serif" font-size="14.00"> v31 = 0</text>
</g>
<!-- Node0x3cee8cf0&#45;&gt;Node0x3da94520 -->
<g id="edge19" class="edge"><title>Node0x3cee8cf0&#45;&gt;Node0x3da94520</title>
<path fill="none" stroke="black" d="M296.022,-1760.48C326.235,-1746.7 368.057,-1727.63 400.414,-1712.88"/>
<polygon fill="black" stroke="black" points="402.053,-1715.98 409.7,-1708.65 399.149,-1709.61 402.053,-1715.98"/>
<text text-anchor="middle" x="400" y="-1730.8" font-family="Times,serif" font-size="14.00">v28 &gt;= 0</text>
</g>
<!-- Node0x3598f510 -->
<g id="node18" class="node"><title>Node0x3598f510</title>
<polygon fill="none" stroke="black" points="182.5,-428.5 182.5,-541.5 478.5,-541.5 478.5,-428.5 182.5,-428.5"/>
<text text-anchor="start" x="190.5" y="-526.3" font-family="Times,serif" font-size="14.00">0x6a48100:</text>
<text text-anchor="start" x="190.5" y="-511.3" font-family="Times,serif" font-size="14.00"> g41 = (v27 &#45; 1)</text>
<text text-anchor="start" x="190.5" y="-496.3" font-family="Times,serif" font-size="14.00"> v30 = (v24 &#45; 4)</text>
<text text-anchor="start" x="190.5" y="-481.3" font-family="Times,serif" font-size="14.00"> g37 = v30</text>
<text text-anchor="start" x="190.5" y="-466.3" font-family="Times,serif" font-size="14.00"> *(IntToPtrCastExpr&lt;ptr&gt;(v30)) = v29</text>
<text text-anchor="start" x="190.5" y="-451.3" font-family="Times,serif" font-size="14.00"> g31 = (g31 &#45; 4)</text>
<text text-anchor="start" x="190.5" y="-436.3" font-family="Times,serif" font-size="14.00"> g42 = (g42 &#45; 4)</text>
</g>
<!-- Node0x3cee8cf0&#45;&gt;Node0x3598f510 -->
<g id="edge20" class="edge"><title>Node0x3cee8cf0&#45;&gt;Node0x3598f510</title>
<path fill="none" stroke="black" d="M232.296,-1760.39C213.816,-1744.31 191.5,-1718.99 191.5,-1690.5 191.5,-1690.5 191.5,-1690.5 191.5,-808 191.5,-697.602 148.142,-654.328 205.5,-560 207.785,-556.243 210.338,-552.654 213.113,-549.228"/>
<polygon fill="black" stroke="black" points="215.933,-551.324 219.968,-541.527 210.705,-546.669 215.933,-551.324"/>
<text text-anchor="middle" x="220" y="-1173.8" font-family="Times,serif" font-size="14.00">v28 &lt; 0</text>
</g>
<!-- Node0x11df3250 -->
<g id="node19" class="node"><title>Node0x11df3250</title>
<polygon fill="none" stroke="black" points="577,-1594.5 577,-1632.5 678,-1632.5 678,-1594.5 577,-1594.5"/>
<text text-anchor="start" x="585" y="-1617.3" font-family="Times,serif" font-size="14.00">0x6a47d70:</text>
<text text-anchor="start" x="585" y="-1602.3" font-family="Times,serif" font-size="14.00"> while True:</text>
</g>
<!-- Node0x3da94520&#45;&gt;Node0x11df3250 -->
<g id="edge21" class="edge"><title>Node0x3da94520&#45;&gt;Node0x11df3250</title>
<path fill="none" stroke="black" d="M493.044,-1670.4C517.702,-1660.15 548.723,-1647.25 574.754,-1636.43"/>
<polygon fill="black" stroke="black" points="576.207,-1639.61 584.098,-1632.54 573.52,-1633.15 576.207,-1639.61"/>
</g>
<!-- Node0x3978a9e0 -->
<g id="node20" class="node"><title>Node0x3978a9e0</title>
<polygon fill="none" stroke="black" points="271,-352.5 271,-390.5 390,-390.5 390,-352.5 271,-352.5"/>
<text text-anchor="start" x="279" y="-375.3" font-family="Times,serif" font-size="14.00">0x6a497f0:</text>
<text text-anchor="start" x="279" y="-360.3" font-family="Times,serif" font-size="14.00"> if (g41 &gt;= 0):</text>
</g>
<!-- Node0x3598f510&#45;&gt;Node0x3978a9e0 -->
<g id="edge22" class="edge"><title>Node0x3598f510&#45;&gt;Node0x3978a9e0</title>
<path fill="none" stroke="black" d="M330.5,-428.25C330.5,-418.862 330.5,-409.474 330.5,-401.151"/>
<polygon fill="black" stroke="black" points="334,-400.912 330.5,-390.912 327,-400.912 334,-400.912"/>
</g>
<!-- Node0x106c95c0 -->
<g id="node21" class="node"><title>Node0x106c95c0</title>
<polygon fill="none" stroke="black" points="220,-1234.5 220,-1542.5 1035,-1542.5 1035,-1234.5 220,-1234.5"/>
<text text-anchor="start" x="228" y="-1527.3" font-family="Times,serif" font-size="14.00">0xfa53c00:</text>
<text text-anchor="start" x="228" y="-1512.3" font-family="Times,serif" font-size="14.00"> v32 = IntToPtrCastExpr&lt;ptr&gt;(v25)</text>
<text text-anchor="start" x="228" y="-1497.3" font-family="Times,serif" font-size="14.00"> v33 = *(v32)</text>
<text text-anchor="start" x="228" y="-1482.3" font-family="Times,serif" font-size="14.00"> v34 = *(IntToPtrCastExpr&lt;ptr&gt;(v23))</text>
<text text-anchor="start" x="228" y="-1467.3" font-family="Times,serif" font-size="14.00"> g29 = v34</text>
<text text-anchor="start" x="228" y="-1452.3" font-family="Times,serif" font-size="14.00"> v35 = *(IntToPtrCastExpr&lt;ptr&gt;((v26 &#45; 4)))</text>
<text text-anchor="start" x="228" y="-1437.3" font-family="Times,serif" font-size="14.00"> g30 = v35</text>
<text text-anchor="start" x="228" y="-1422.3" font-family="Times,serif" font-size="14.00"> v36 = ((4294967296 * ExtCastExpr&lt;int64&gt;(v35)) + (ExtCastExpr&lt;int64&gt;(v34) * ExtCastExpr&lt;int64&gt;(v33)))</text>
<text text-anchor="start" x="228" y="-1407.3" font-family="Times,serif" font-size="14.00"> v37 = TruncCastExpr&lt;int32&gt;(v36)</text>
<text text-anchor="start" x="228" y="-1392.3" font-family="Times,serif" font-size="14.00"> v38 = (v37 + v31)</text>
<text text-anchor="start" x="228" y="-1377.3" font-family="Times,serif" font-size="14.00"> g36 = v38</text>
<text text-anchor="start" x="228" y="-1362.3" font-family="Times,serif" font-size="14.00"> g37 = (ExtCastExpr&lt;int32&gt;((v38 &lt; v37)) + TruncCastExpr&lt;int32&gt;((v36 / 4294967296)))</text>
<text text-anchor="start" x="228" y="-1347.3" font-family="Times,serif" font-size="14.00"> *(v32) = v38</text>
<text text-anchor="start" x="228" y="-1332.3" font-family="Times,serif" font-size="14.00"> v39 = g37</text>
<text text-anchor="start" x="228" y="-1317.3" font-family="Times,serif" font-size="14.00"> v40 = g33</text>
<text text-anchor="start" x="228" y="-1302.3" font-family="Times,serif" font-size="14.00"> v41 = g35</text>
<text text-anchor="start" x="228" y="-1287.3" font-family="Times,serif" font-size="14.00"> v42 = (g40 &#45; 1)</text>
<text text-anchor="start" x="228" y="-1272.3" font-family="Times,serif" font-size="14.00"> g40 = v42</text>
<text text-anchor="start" x="228" y="-1257.3" font-family="Times,serif" font-size="14.00"> g33 = (v40 &#45; 4)</text>
<text text-anchor="start" x="228" y="-1242.3" font-family="Times,serif" font-size="14.00"> g35 = (v41 &#45; 4)</text>
</g>
<!-- Node0x11df3250&#45;&gt;Node0x106c95c0 -->
<g id="edge23" class="edge"><title>Node0x11df3250&#45;&gt;Node0x106c95c0</title>
<path fill="none" stroke="black" d="M627.5,-1594.25C627.5,-1583.7 627.5,-1569.29 627.5,-1552.97"/>
<polygon fill="black" stroke="black" points="631,-1552.57 627.5,-1542.57 624,-1552.57 631,-1552.57"/>
<text text-anchor="middle" x="644.5" y="-1564.8" font-family="Times,serif" font-size="14.00">True</text>
</g>
<!-- Node0x3f398b40 -->
<g id="node22" class="node"><title>Node0x3f398b40</title>
<polygon fill="none" stroke="black" points="437,-180 437,-218 574,-218 574,-180 437,-180"/>
<text text-anchor="start" x="445" y="-202.8" font-family="Times,serif" font-size="14.00">0x6a49740:</text>
<text text-anchor="start" x="445" y="-187.8" font-family="Times,serif" font-size="14.00"> goto 0x6a45530</text>
</g>
<!-- Node0x3978a9e0&#45;&gt;Node0x3f398b40 -->
<g id="edge24" class="edge"><title>Node0x3978a9e0&#45;&gt;Node0x3f398b40</title>
<path fill="none" stroke="black" d="M359.853,-352.372C379.753,-339.358 406.052,-320.702 426.5,-301 450.312,-278.057 473.087,-247.736 488.012,-226.323"/>
<polygon fill="black" stroke="black" points="490.938,-228.246 493.716,-218.022 485.168,-224.281 490.938,-228.246"/>
<text text-anchor="middle" x="440.5" y="-322.8" font-family="Times,serif" font-size="14.00">g41 &gt;= 0</text>
</g>
<!-- Node0x306c3640 -->
<g id="node23" class="node"><title>Node0x306c3640</title>
<polygon fill="none" stroke="black" points="185,-97.5 185,-300.5 418,-300.5 418,-97.5 185,-97.5"/>
<text text-anchor="start" x="193" y="-285.3" font-family="Times,serif" font-size="14.00">0x6a49b00:</text>
<text text-anchor="start" x="193" y="-270.3" font-family="Times,serif" font-size="14.00"> g6 = True</text>
<text text-anchor="start" x="193" y="-255.3" font-family="Times,serif" font-size="14.00"> g8 = False</text>
<text text-anchor="start" x="193" y="-240.3" font-family="Times,serif" font-size="14.00"> g7 = True</text>
<text text-anchor="start" x="193" y="-225.3" font-family="Times,serif" font-size="14.00"> g38 = v1</text>
<text text-anchor="start" x="193" y="-210.3" font-family="Times,serif" font-size="14.00"> g39 = v2</text>
<text text-anchor="start" x="193" y="-195.3" font-family="Times,serif" font-size="14.00"> g40 = v3</text>
<text text-anchor="start" x="193" y="-180.3" font-family="Times,serif" font-size="14.00"> g41 = v4</text>
<text text-anchor="start" x="193" y="-165.3" font-family="Times,serif" font-size="14.00"> g42 = v5</text>
<text text-anchor="start" x="193" y="-150.3" font-family="Times,serif" font-size="14.00"> g43 = v6</text>
<text text-anchor="start" x="193" y="-135.3" font-family="Times,serif" font-size="14.00"> g31 = v7</text>
<text text-anchor="start" x="193" y="-120.3" font-family="Times,serif" font-size="14.00"> IntToPtrCastExpr&lt;ptr&gt;(v8)()</text>
<text text-anchor="start" x="193" y="-105.3" font-family="Times,serif" font-size="14.00"> return</text>
</g>
<!-- Node0x3978a9e0&#45;&gt;Node0x306c3640 -->
<g id="edge25" class="edge"><title>Node0x3978a9e0&#45;&gt;Node0x306c3640</title>
<path fill="none" stroke="black" d="M325.677,-352.38C324.218,-346.539 322.688,-340.019 321.5,-334 320.01,-326.455 318.575,-318.652 317.204,-310.779"/>
<polygon fill="black" stroke="black" points="320.631,-310.055 315.503,-300.784 313.73,-311.23 320.631,-310.055"/>
<text text-anchor="middle" x="350.5" y="-322.8" font-family="Times,serif" font-size="14.00">g41 &lt; 0</text>
</g>
<!-- Node0x400b6200 -->
<g id="node24" class="node"><title>Node0x400b6200</title>
<polygon fill="none" stroke="black" points="574,-1158.5 574,-1196.5 681,-1196.5 681,-1158.5 574,-1158.5"/>
<text text-anchor="start" x="582" y="-1181.3" font-family="Times,serif" font-size="14.00">0x6a47020:</text>
<text text-anchor="start" x="582" y="-1166.3" font-family="Times,serif" font-size="14.00"> if (v42 &lt; 0):</text>
</g>
<!-- Node0x106c95c0&#45;&gt;Node0x400b6200 -->
<g id="edge26" class="edge"><title>Node0x106c95c0&#45;&gt;Node0x400b6200</title>
<path fill="none" stroke="black" d="M627.5,-1234.23C627.5,-1224.18 627.5,-1214.9 627.5,-1206.91"/>
<polygon fill="black" stroke="black" points="631,-1206.87 627.5,-1196.87 624,-1206.87 631,-1206.87"/>
</g>
<!-- Node0x31060250 -->
<g id="node25" class="node"><title>Node0x31060250</title>
<polygon fill="none" stroke="black" points="418,-782.5 418,-835.5 519,-835.5 519,-782.5 418,-782.5"/>
<text text-anchor="start" x="426" y="-820.3" font-family="Times,serif" font-size="14.00">0x6a45530:</text>
<text text-anchor="start" x="426" y="-805.3" font-family="Times,serif" font-size="14.00"> v24 = g37</text>
<text text-anchor="start" x="426" y="-790.3" font-family="Times,serif" font-size="14.00"> break</text>
</g>
<!-- Node0x3f398b40&#45;&gt;Node0x31060250 -->
<g id="edge27" class="edge"><title>Node0x3f398b40&#45;&gt;Node0x31060250</title>
<path fill="none" stroke="black" d="M505.785,-218.125C506.648,-288.569 507.6,-550.804 478.5,-764 478.135,-766.673 477.688,-769.423 477.186,-772.181"/>
<polygon fill="black" stroke="black" points="473.736,-771.585 475.185,-782.08 480.597,-772.972 473.736,-771.585"/>
</g>
<!-- Node0x306c3640&#45;&gt;Node0x30dee5b0 -->
<g id="edge28" class="edge"><title>Node0x306c3640&#45;&gt;Node0x30dee5b0</title>
<path fill="none" stroke="black" d="M206.327,-97.3235C195.846,-86.237 186.011,-75.8335 177.785,-67.1311"/>
<polygon fill="black" stroke="black" points="180.122,-64.5092 170.709,-59.6466 175.036,-69.3179 180.122,-64.5092"/>
</g>
<!-- Node0x46d49f20 -->
<g id="node26" class="node"><title>Node0x46d49f20</title>
<polygon fill="none" stroke="black" points="362.5,-963.5 362.5,-1106.5 658.5,-1106.5 658.5,-963.5 362.5,-963.5"/>
<text text-anchor="start" x="370.5" y="-1091.3" font-family="Times,serif" font-size="14.00">0x6a42940:</text>
<text text-anchor="start" x="370.5" y="-1076.3" font-family="Times,serif" font-size="14.00"> v27 = g41</text>
<text text-anchor="start" x="370.5" y="-1061.3" font-family="Times,serif" font-size="14.00"> v29 = v39</text>
<text text-anchor="start" x="370.5" y="-1046.3" font-family="Times,serif" font-size="14.00"> g41 = (v27 &#45; 1)</text>
<text text-anchor="start" x="370.5" y="-1031.3" font-family="Times,serif" font-size="14.00"> v30 = (v24 &#45; 4)</text>
<text text-anchor="start" x="370.5" y="-1016.3" font-family="Times,serif" font-size="14.00"> g37 = v30</text>
<text text-anchor="start" x="370.5" y="-1001.3" font-family="Times,serif" font-size="14.00"> *(IntToPtrCastExpr&lt;ptr&gt;(v30)) = v29</text>
<text text-anchor="start" x="370.5" y="-986.3" font-family="Times,serif" font-size="14.00"> g31 = (g31 &#45; 4)</text>
<text text-anchor="start" x="370.5" y="-971.3" font-family="Times,serif" font-size="14.00"> g42 = (g42 &#45; 4)</text>
</g>
<!-- Node0x400b6200&#45;&gt;Node0x46d49f20 -->
<g id="edge29" class="edge"><title>Node0x400b6200&#45;&gt;Node0x46d49f20</title>
<path fill="none" stroke="black" d="M593.52,-1158.49C585.393,-1153.22 577.154,-1146.97 570.5,-1140 563.355,-1132.52 556.725,-1124.03 550.679,-1115.2"/>
<polygon fill="black" stroke="black" points="553.481,-1113.09 545.064,-1106.65 547.631,-1116.93 553.481,-1113.09"/>
<text text-anchor="middle" x="599" y="-1128.8" font-family="Times,serif" font-size="14.00">v42 &lt; 0</text>
</g>
<!-- Node0x30e13a80 -->
<g id="node27" class="node"><title>Node0x30e13a80</title>
<polygon fill="none" stroke="black" points="872,-993.5 872,-1076.5 973,-1076.5 973,-993.5 872,-993.5"/>
<text text-anchor="start" x="880" y="-1061.3" font-family="Times,serif" font-size="14.00">0x6a47420:</text>
<text text-anchor="start" x="880" y="-1046.3" font-family="Times,serif" font-size="14.00"> v26 = g42</text>
<text text-anchor="start" x="880" y="-1031.3" font-family="Times,serif" font-size="14.00"> v31 = v39</text>
<text text-anchor="start" x="880" y="-1016.3" font-family="Times,serif" font-size="14.00"> v25 = v40</text>
<text text-anchor="start" x="880" y="-1001.3" font-family="Times,serif" font-size="14.00"> v23 = v41</text>
</g>
<!-- Node0x400b6200&#45;&gt;Node0x30e13a80 -->
<g id="edge30" class="edge"><title>Node0x400b6200&#45;&gt;Node0x30e13a80</title>
<path fill="none" stroke="black" d="M665.462,-1158.42C715.389,-1134.64 803.675,-1092.59 862.641,-1064.51"/>
<polygon fill="black" stroke="black" points="864.319,-1067.59 871.843,-1060.13 861.309,-1061.27 864.319,-1067.59"/>
<text text-anchor="middle" x="765" y="-1128.8" font-family="Times,serif" font-size="14.00">v42 &gt;= 0</text>
</g>
<!-- Node0x31060250&#45;&gt;Node0x3598f510 -->
<g id="edge31" class="edge"><title>Node0x31060250&#45;&gt;Node0x3598f510</title>
<path fill="none" stroke="black" d="M473.351,-782.174C480.891,-734.416 490.444,-630.731 447.5,-560 445.255,-556.302 442.747,-552.758 440.024,-549.365"/>
<polygon fill="black" stroke="black" points="442.536,-546.921 433.305,-541.72 437.278,-551.542 442.536,-546.921"/>
</g>
<!-- Node0x115e7760 -->
<g id="node28" class="node"><title>Node0x115e7760</title>
<polygon fill="none" stroke="black" points="409,-887.5 409,-925.5 528,-925.5 528,-887.5 409,-887.5"/>
<text text-anchor="start" x="417" y="-910.3" font-family="Times,serif" font-size="14.00">0x6a458f0:</text>
<text text-anchor="start" x="417" y="-895.3" font-family="Times,serif" font-size="14.00"> if (g41 &gt;= 0):</text>
</g>
<!-- Node0x46d49f20&#45;&gt;Node0x115e7760 -->
<g id="edge32" class="edge"><title>Node0x46d49f20&#45;&gt;Node0x115e7760</title>
<path fill="none" stroke="black" d="M487.044,-963.353C483.731,-953.375 480.501,-943.645 477.689,-935.177"/>
<polygon fill="black" stroke="black" points="480.962,-933.928 474.49,-925.54 474.319,-936.134 480.962,-933.928"/>
</g>
<!-- Node0x30e13a80&#45;&gt;Node0x11df3250 -->
<g id="edge33" class="edge"><title>Node0x30e13a80&#45;&gt;Node0x11df3250</title>
<path fill="none" stroke="black" d="M953.014,-1076.57C1019.48,-1170.21 1162.27,-1403.98 1044.5,-1543 999.564,-1596.05 792.781,-1608.64 688.294,-1611.61"/>
<polygon fill="black" stroke="black" points="688.11,-1608.11 678.205,-1611.87 688.294,-1615.11 688.11,-1608.11"/>
</g>
<!-- Node0x115e7760&#45;&gt;Node0x31060250 -->
<g id="edge34" class="edge"><title>Node0x115e7760&#45;&gt;Node0x31060250</title>
<path fill="none" stroke="black" d="M468.5,-887.087C468.5,-875.425 468.5,-859.951 468.5,-845.929"/>
<polygon fill="black" stroke="black" points="472,-845.577 468.5,-835.577 465,-845.577 472,-845.577"/>
<text text-anchor="middle" x="503.5" y="-857.8" font-family="Times,serif" font-size="14.00">g41 &gt;= 0</text>
</g>
<!-- Node0x384c63e0 -->
<g id="node29" class="node"><title>Node0x384c63e0</title>
<polygon fill="none" stroke="black" points="211,-560.5 211,-763.5 444,-763.5 444,-560.5 211,-560.5"/>
<text text-anchor="start" x="219" y="-748.3" font-family="Times,serif" font-size="14.00">0x6a45b60:</text>
<text text-anchor="start" x="219" y="-733.3" font-family="Times,serif" font-size="14.00"> g6 = True</text>
<text text-anchor="start" x="219" y="-718.3" font-family="Times,serif" font-size="14.00"> g8 = False</text>
<text text-anchor="start" x="219" y="-703.3" font-family="Times,serif" font-size="14.00"> g7 = True</text>
<text text-anchor="start" x="219" y="-688.3" font-family="Times,serif" font-size="14.00"> g38 = v1</text>
<text text-anchor="start" x="219" y="-673.3" font-family="Times,serif" font-size="14.00"> g39 = v2</text>
<text text-anchor="start" x="219" y="-658.3" font-family="Times,serif" font-size="14.00"> g40 = v3</text>
<text text-anchor="start" x="219" y="-643.3" font-family="Times,serif" font-size="14.00"> g41 = v4</text>
<text text-anchor="start" x="219" y="-628.3" font-family="Times,serif" font-size="14.00"> g42 = v5</text>
<text text-anchor="start" x="219" y="-613.3" font-family="Times,serif" font-size="14.00"> g43 = v6</text>
<text text-anchor="start" x="219" y="-598.3" font-family="Times,serif" font-size="14.00"> g31 = v7</text>
<text text-anchor="start" x="219" y="-583.3" font-family="Times,serif" font-size="14.00"> IntToPtrCastExpr&lt;ptr&gt;(v8)()</text>
<text text-anchor="start" x="219" y="-568.3" font-family="Times,serif" font-size="14.00"> return</text>
</g>
<!-- Node0x115e7760&#45;&gt;Node0x384c63e0 -->
<g id="edge35" class="edge"><title>Node0x115e7760&#45;&gt;Node0x384c63e0</title>
<path fill="none" stroke="black" d="M428.745,-887.487C420.589,-882.406 412.633,-876.246 406.5,-869 383.3,-841.593 366.498,-806.634 354.518,-773.33"/>
<polygon fill="black" stroke="black" points="357.699,-771.821 351.11,-763.524 351.087,-774.119 357.699,-771.821"/>
<text text-anchor="middle" x="435.5" y="-857.8" font-family="Times,serif" font-size="14.00">g41 &lt; 0</text>
</g>
<!-- Node0x384c63e0&#45;&gt;Node0x30dee5b0 -->
<g id="edge36" class="edge"><title>Node0x384c63e0&#45;&gt;Node0x30dee5b0</title>
<path fill="none" stroke="black" d="M210.97,-587.585C196.447,-574.03 183.287,-558.783 173.5,-542 143.642,-490.798 154.5,-469.271 154.5,-410 154.5,-410 154.5,-410 154.5,-198 154.5,-153.082 154.5,-100.866 154.5,-69.8128"/>
<polygon fill="black" stroke="black" points="158,-69.758 154.5,-59.758 151,-69.758 158,-69.758"/>
</g>
</g>
</svg>
