<?xml version="1.0" encoding="UTF-8" standalone="no"?>
<!DOCTYPE svg PUBLIC "-//W3C//DTD SVG 1.1//EN"
 "http://www.w3.org/Graphics/SVG/1.1/DTD/svg11.dtd">
<!-- Generated by graphviz version 2.38.0 (20140413.2041)
 -->
<!-- Title: Control&#45;flow graph for function &#39;function_13090()&#39;. Pages: 1 -->
<svg width="386pt" height="429pt"
 viewBox="0.00 0.00 386.00 429.00" xmlns="http://www.w3.org/2000/svg" xmlns:xlink="http://www.w3.org/1999/xlink">
<g id="graph0" class="graph" transform="scale(1 1) rotate(0) translate(4 425)">
<title>Control&#45;flow graph for function &#39;function_13090()&#39;.</title>
<polygon fill="white" stroke="none" points="-4,4 -4,-425 382,-425 382,4 -4,4"/>
<text text-anchor="middle" x="189" y="-7.8" font-family="Times,serif" font-size="14.00">Control&#45;flow graph for function &#39;function_13090()&#39;.</text>
<!-- Node0x159167c0 -->
<g id="node1" class="node"><title>Node0x159167c0</title>
<polygon fill="none" stroke="black" points="160,-384.5 160,-420.5 219,-420.5 219,-384.5 160,-384.5"/>
<text text-anchor="start" x="168" y="-398.8" font-family="Times,serif" font-size="14.00">entry:</text>
</g>
<!-- Node0x23c62380 -->
<g id="node2" class="node"><title>Node0x23c62380</title>
<polygon fill="none" stroke="black" points="124.5,-263.5 124.5,-346.5 254.5,-346.5 254.5,-263.5 124.5,-263.5"/>
<text text-anchor="start" x="132.5" y="-331.3" font-family="Times,serif" font-size="14.00">0x1faa8240:</text>
<text text-anchor="start" x="132.5" y="-316.3" font-family="Times,serif" font-size="14.00"> v1 = (g29 &#45; 48)</text>
<text text-anchor="start" x="132.5" y="-301.3" font-family="Times,serif" font-size="14.00"> g37 = v1</text>
<text text-anchor="start" x="132.5" y="-286.3" font-family="Times,serif" font-size="14.00"> g6 = (v1 &gt; 8)</text>
<text text-anchor="start" x="132.5" y="-271.3" font-family="Times,serif" font-size="14.00"> g9 = (v1 == 9)</text>
</g>
<!-- Node0x159167c0&#45;&gt;Node0x23c62380 -->
<g id="edge1" class="edge"><title>Node0x159167c0&#45;&gt;Node0x23c62380</title>
<path fill="none" stroke="black" d="M189.5,-384.427C189.5,-376.622 189.5,-366.921 189.5,-357.032"/>
<polygon fill="black" stroke="black" points="193,-356.73 189.5,-346.73 186,-356.73 193,-356.73"/>
</g>
<!-- Node0x1591c130 -->
<g id="node3" class="node"><title>Node0x1591c130</title>
<polygon fill="none" stroke="black" points="136,-187.5 136,-225.5 243,-225.5 243,-187.5 136,-187.5"/>
<text text-anchor="start" x="144" y="-210.3" font-family="Times,serif" font-size="14.00">0x7f16330:</text>
<text text-anchor="start" x="144" y="-195.3" font-family="Times,serif" font-size="14.00"> if (v1 &lt; 10):</text>
</g>
<!-- Node0x23c62380&#45;&gt;Node0x1591c130 -->
<g id="edge2" class="edge"><title>Node0x23c62380&#45;&gt;Node0x1591c130</title>
<path fill="none" stroke="black" d="M189.5,-263.355C189.5,-254.083 189.5,-244.427 189.5,-235.803"/>
<polygon fill="black" stroke="black" points="193,-235.538 189.5,-225.538 186,-235.538 193,-235.538"/>
</g>
<!-- Node0x23c5b780 -->
<g id="node4" class="node"><title>Node0x23c5b780</title>
<polygon fill="none" stroke="black" points="92.5,-97.5 92.5,-135.5 190.5,-135.5 190.5,-97.5 92.5,-97.5"/>
<text text-anchor="start" x="100.5" y="-120.3" font-family="Times,serif" font-size="14.00">0x7f16150:</text>
<text text-anchor="start" x="100.5" y="-105.3" font-family="Times,serif" font-size="14.00"> g29 = v1</text>
</g>
<!-- Node0x1591c130&#45;&gt;Node0x23c5b780 -->
<g id="edge3" class="edge"><title>Node0x1591c130&#45;&gt;Node0x23c5b780</title>
<path fill="none" stroke="black" d="M169.223,-187.2C164.146,-181.763 159.121,-175.508 155.5,-169 151.554,-161.906 148.669,-153.637 146.581,-145.826"/>
<polygon fill="black" stroke="black" points="149.959,-144.901 144.273,-135.961 143.143,-146.495 149.959,-144.901"/>
<text text-anchor="middle" x="184" y="-157.8" font-family="Times,serif" font-size="14.00">v1 &lt; 10</text>
</g>
<!-- Node0x3b6f33c0 -->
<g id="node5" class="node"><title>Node0x3b6f33c0</title>
<polygon fill="none" stroke="black" points="171.5,-23.5 171.5,-59.5 225.5,-59.5 225.5,-23.5 171.5,-23.5"/>
<text text-anchor="start" x="179.5" y="-37.8" font-family="Times,serif" font-size="14.00">exit:</text>
</g>
<!-- Node0x1591c130&#45;&gt;Node0x3b6f33c0 -->
<g id="edge4" class="edge"><title>Node0x1591c130&#45;&gt;Node0x3b6f33c0</title>
<path fill="none" stroke="black" d="M203.852,-187.155C207.382,-181.624 210.671,-175.332 212.5,-169 222.145,-135.603 214.648,-95.4787 207.436,-69.5089"/>
<polygon fill="black" stroke="black" points="210.708,-68.2326 204.516,-59.6354 203.995,-70.2175 210.708,-68.2326"/>
<text text-anchor="middle" x="251" y="-112.8" font-family="Times,serif" font-size="14.00">v1 &gt;= 10</text>
</g>
<!-- Node0x23c5b780&#45;&gt;Node0x3b6f33c0 -->
<g id="edge5" class="edge"><title>Node0x23c5b780&#45;&gt;Node0x3b6f33c0</title>
<path fill="none" stroke="black" d="M155.59,-97.4551C162.525,-88.5727 171.006,-77.7116 178.591,-67.9975"/>
<polygon fill="black" stroke="black" points="181.569,-69.8706 184.965,-59.8347 176.052,-65.5626 181.569,-69.8706"/>
</g>
</g>
</svg>
