<?xml version="1.0" encoding="UTF-8" standalone="no"?>
<!DOCTYPE svg PUBLIC "-//W3C//DTD SVG 1.1//EN"
 "http://www.w3.org/Graphics/SVG/1.1/DTD/svg11.dtd">
<!-- Generated by graphviz version 2.38.0 (20140413.2041)
 -->
<!-- Title: Control&#45;flow graph for function &#39;function_1bd48()&#39;. Pages: 1 -->
<svg width="1218pt" height="1580pt"
 viewBox="0.00 0.00 1218.00 1580.00" xmlns="http://www.w3.org/2000/svg" xmlns:xlink="http://www.w3.org/1999/xlink">
<g id="graph0" class="graph" transform="scale(1 1) rotate(0) translate(4 1576)">
<title>Control&#45;flow graph for function &#39;function_1bd48()&#39;.</title>
<polygon fill="white" stroke="none" points="-4,4 -4,-1576 1214,-1576 1214,4 -4,4"/>
<text text-anchor="middle" x="605" y="-7.8" font-family="Times,serif" font-size="14.00">Control&#45;flow graph for function &#39;function_1bd48()&#39;.</text>
<!-- Node0x15564ad0 -->
<g id="node1" class="node"><title>Node0x15564ad0</title>
<polygon fill="none" stroke="black" points="719.5,-1535.5 719.5,-1571.5 778.5,-1571.5 778.5,-1535.5 719.5,-1535.5"/>
<text text-anchor="start" x="727.5" y="-1549.8" font-family="Times,serif" font-size="14.00">entry:</text>
</g>
<!-- Node0x15564b50 -->
<g id="node2" class="node"><title>Node0x15564b50</title>
<polygon fill="none" stroke="black" points="600,-1339.5 600,-1497.5 898,-1497.5 898,-1339.5 600,-1339.5"/>
<text text-anchor="start" x="608" y="-1482.3" font-family="Times,serif" font-size="14.00">0x408b7440:</text>
<text text-anchor="start" x="608" y="-1467.3" font-family="Times,serif" font-size="14.00"> v1 = g38</text>
<text text-anchor="start" x="608" y="-1452.3" font-family="Times,serif" font-size="14.00"> v2 = g39</text>
<text text-anchor="start" x="608" y="-1437.3" font-family="Times,serif" font-size="14.00"> v3 = g40</text>
<text text-anchor="start" x="608" y="-1422.3" font-family="Times,serif" font-size="14.00"> g30 = *(IntToPtrCastExpr&lt;ptr&gt;(g29))</text>
<text text-anchor="start" x="608" y="-1407.3" font-family="Times,serif" font-size="14.00"> function_1bc68()</text>
<text text-anchor="start" x="608" y="-1392.3" font-family="Times,serif" font-size="14.00"> v4 = g29</text>
<text text-anchor="start" x="608" y="-1377.3" font-family="Times,serif" font-size="14.00"> g9 = (v4 == 0)</text>
<text text-anchor="start" x="608" y="-1362.3" font-family="Times,serif" font-size="14.00"> v5</text>
<text text-anchor="start" x="608" y="-1347.3" font-family="Times,serif" font-size="14.00"> v6</text>
</g>
<!-- Node0x15564ad0&#45;&gt;Node0x15564b50 -->
<g id="edge1" class="edge"><title>Node0x15564ad0&#45;&gt;Node0x15564b50</title>
<path fill="none" stroke="black" d="M749,-1535.38C749,-1527.78 749,-1518.21 749,-1507.83"/>
<polygon fill="black" stroke="black" points="752.5,-1507.68 749,-1497.68 745.5,-1507.68 752.5,-1507.68"/>
</g>
<!-- Node0x136bda30 -->
<g id="node3" class="node"><title>Node0x136bda30</title>
<polygon fill="none" stroke="black" points="694,-1248.5 694,-1301.5 804,-1301.5 804,-1248.5 694,-1248.5"/>
<text text-anchor="start" x="702" y="-1286.3" font-family="Times,serif" font-size="14.00">0x94865e0:</text>
<text text-anchor="start" x="702" y="-1271.3" font-family="Times,serif" font-size="14.00"> if (v4 == 0):</text>
<text text-anchor="start" x="702" y="-1256.3" font-family="Times,serif" font-size="14.00"> else:</text>
</g>
<!-- Node0x15564b50&#45;&gt;Node0x136bda30 -->
<g id="edge2" class="edge"><title>Node0x15564b50&#45;&gt;Node0x136bda30</title>
<path fill="none" stroke="black" d="M749,-1339.3C749,-1329.77 749,-1320.43 749,-1311.97"/>
<polygon fill="black" stroke="black" points="752.5,-1311.77 749,-1301.77 745.5,-1311.77 752.5,-1311.77"/>
</g>
<!-- Node0x136bdeb0 -->
<g id="node4" class="node"><title>Node0x136bdeb0</title>
<polygon fill="none" stroke="black" points="275,-903.5 275,-1196.5 793,-1196.5 793,-903.5 275,-903.5"/>
<text text-anchor="start" x="283" y="-1181.3" font-family="Times,serif" font-size="14.00">0x947d660:</text>
<text text-anchor="start" x="283" y="-1166.3" font-family="Times,serif" font-size="14.00"> g29 = g38</text>
<text text-anchor="start" x="283" y="-1151.3" font-family="Times,serif" font-size="14.00"> function_1b720()</text>
<text text-anchor="start" x="283" y="-1136.3" font-family="Times,serif" font-size="14.00"> v7 = g38</text>
<text text-anchor="start" x="283" y="-1121.3" font-family="Times,serif" font-size="14.00"> g40 = v7</text>
<text text-anchor="start" x="283" y="-1106.3" font-family="Times,serif" font-size="14.00"> v8 = (g39 + 6)</text>
<text text-anchor="start" x="283" y="-1091.3" font-family="Times,serif" font-size="14.00"> g38 = v8</text>
<text text-anchor="start" x="283" y="-1076.3" font-family="Times,serif" font-size="14.00"> g30 = v8</text>
<text text-anchor="start" x="283" y="-1061.3" font-family="Times,serif" font-size="14.00"> g29 = v7</text>
<text text-anchor="start" x="283" y="-1046.3" font-family="Times,serif" font-size="14.00"> function_1b75c()</text>
<text text-anchor="start" x="283" y="-1031.3" font-family="Times,serif" font-size="14.00"> v9</text>
<text text-anchor="start" x="283" y="-1016.3" font-family="Times,serif" font-size="14.00"> v10 = (g38 &#45; v9)</text>
<text text-anchor="start" x="283" y="-1001.3" font-family="Times,serif" font-size="14.00"> g38 = v10</text>
<text text-anchor="start" x="283" y="-986.3" font-family="Times,serif" font-size="14.00"> v11</text>
<text text-anchor="start" x="283" y="-971.3" font-family="Times,serif" font-size="14.00"> v12 = ExtCastExpr&lt;int32&gt;(*(IntToPtrCastExpr&lt;ptr&gt;((v10 + v11))))</text>
<text text-anchor="start" x="283" y="-956.3" font-family="Times,serif" font-size="14.00"> v13 = (g39 + 1)</text>
<text text-anchor="start" x="283" y="-941.3" font-family="Times,serif" font-size="14.00"> g39 = v13</text>
<text text-anchor="start" x="283" y="-926.3" font-family="Times,serif" font-size="14.00"> g9 = (v13 == 7)</text>
<text text-anchor="start" x="283" y="-911.3" font-family="Times,serif" font-size="14.00"> v14 = g40</text>
</g>
<!-- Node0x136bda30&#45;&gt;Node0x136bdeb0 -->
<g id="edge3" class="edge"><title>Node0x136bda30&#45;&gt;Node0x136bdeb0</title>
<path fill="none" stroke="black" d="M724.337,-1248.42C712.755,-1236.41 697.919,-1221.02 681.65,-1204.14"/>
<polygon fill="black" stroke="black" points="684.056,-1201.6 674.595,-1196.83 679.016,-1206.45 684.056,-1201.6"/>
<text text-anchor="middle" x="733" y="-1218.8" font-family="Times,serif" font-size="14.00">v4 == 0</text>
</g>
<!-- Node0x136bfe80 -->
<g id="node5" class="node"><title>Node0x136bfe80</title>
<polygon fill="none" stroke="black" points="801.5,-831.5 801.5,-884.5 902.5,-884.5 902.5,-831.5 801.5,-831.5"/>
<text text-anchor="start" x="809.5" y="-869.3" font-family="Times,serif" font-size="14.00">0x9486b20:</text>
<text text-anchor="start" x="809.5" y="-854.3" font-family="Times,serif" font-size="14.00"> v6 = &#45;1</text>
<text text-anchor="start" x="809.5" y="-839.3" font-family="Times,serif" font-size="14.00"> v5 = &#45;1</text>
</g>
<!-- Node0x136bda30&#45;&gt;Node0x136bfe80 -->
<g id="edge4" class="edge"><title>Node0x136bda30&#45;&gt;Node0x136bfe80</title>
<path fill="none" stroke="black" d="M771.134,-1248.29C782.171,-1234.08 794.691,-1215.58 802,-1197 843.062,-1092.64 850.744,-958.072 851.954,-894.836"/>
<polygon fill="black" stroke="black" points="855.457,-894.647 852.105,-884.597 848.458,-894.544 855.457,-894.647"/>
<text text-anchor="middle" x="821" y="-1218.8" font-family="Times,serif" font-size="14.00">v4 != 0</text>
</g>
<!-- Node0x136bed10 -->
<g id="node6" class="node"><title>Node0x136bed10</title>
<polygon fill="none" stroke="black" points="448.5,-774.5 448.5,-812.5 589.5,-812.5 589.5,-774.5 448.5,-774.5"/>
<text text-anchor="start" x="456.5" y="-797.3" font-family="Times,serif" font-size="14.00">0x94863d0:</text>
<text text-anchor="start" x="456.5" y="-782.3" font-family="Times,serif" font-size="14.00"> while (v13 != 7):</text>
</g>
<!-- Node0x136bdeb0&#45;&gt;Node0x136bed10 -->
<g id="edge5" class="edge"><title>Node0x136bdeb0&#45;&gt;Node0x136bed10</title>
<path fill="none" stroke="black" d="M525.405,-903.169C523.596,-872.479 521.874,-843.262 520.672,-822.868"/>
<polygon fill="black" stroke="black" points="524.159,-822.546 520.077,-812.769 517.171,-822.958 524.159,-822.546"/>
</g>
<!-- Node0x2a3f4ac0 -->
<g id="node7" class="node"><title>Node0x2a3f4ac0</title>
<polygon fill="none" stroke="black" points="968,-97.5 968,-240.5 1210,-240.5 1210,-97.5 968,-97.5"/>
<text text-anchor="start" x="976" y="-225.3" font-family="Times,serif" font-size="14.00">0x9487130:</text>
<text text-anchor="start" x="976" y="-210.3" font-family="Times,serif" font-size="14.00"> g29 = v5</text>
<text text-anchor="start" x="976" y="-195.3" font-family="Times,serif" font-size="14.00"> g30 = v6</text>
<text text-anchor="start" x="976" y="-180.3" font-family="Times,serif" font-size="14.00"> g38 = v1</text>
<text text-anchor="start" x="976" y="-165.3" font-family="Times,serif" font-size="14.00"> g39 = v2</text>
<text text-anchor="start" x="976" y="-150.3" font-family="Times,serif" font-size="14.00"> g40 = v3</text>
<text text-anchor="start" x="976" y="-135.3" font-family="Times,serif" font-size="14.00"> v20</text>
<text text-anchor="start" x="976" y="-120.3" font-family="Times,serif" font-size="14.00"> g34 = v20</text>
<text text-anchor="start" x="976" y="-105.3" font-family="Times,serif" font-size="14.00"> IntToPtrCastExpr&lt;ptr&gt;(g35)()</text>
</g>
<!-- Node0x136bfe80&#45;&gt;Node0x2a3f4ac0 -->
<g id="edge6" class="edge"><title>Node0x136bfe80&#45;&gt;Node0x2a3f4ac0</title>
<path fill="none" stroke="black" d="M902.589,-847.144C979.246,-830.741 1116,-795.09 1116,-749.5 1116,-749.5 1116,-749.5 1116,-334 1116,-306.622 1112.29,-277.011 1107.62,-250.582"/>
<polygon fill="black" stroke="black" points="1111.04,-249.823 1105.79,-240.621 1104.16,-251.088 1111.04,-249.823"/>
</g>
<!-- Node0x136bfff0 -->
<g id="node8" class="node"><title>Node0x136bfff0</title>
<polygon fill="none" stroke="black" points="0,-519.5 0,-722.5 518,-722.5 518,-519.5 0,-519.5"/>
<text text-anchor="start" x="8" y="-707.3" font-family="Times,serif" font-size="14.00">0x6175aa0:</text>
<text text-anchor="start" x="8" y="-692.3" font-family="Times,serif" font-size="14.00"> v8 = (v13 + 6)</text>
<text text-anchor="start" x="8" y="-677.3" font-family="Times,serif" font-size="14.00"> g38 = v8</text>
<text text-anchor="start" x="8" y="-662.3" font-family="Times,serif" font-size="14.00"> g30 = v8</text>
<text text-anchor="start" x="8" y="-647.3" font-family="Times,serif" font-size="14.00"> g29 = v14</text>
<text text-anchor="start" x="8" y="-632.3" font-family="Times,serif" font-size="14.00"> function_1b75c()</text>
<text text-anchor="start" x="8" y="-617.3" font-family="Times,serif" font-size="14.00"> v10 = (g38 &#45; v9)</text>
<text text-anchor="start" x="8" y="-602.3" font-family="Times,serif" font-size="14.00"> g38 = v10</text>
<text text-anchor="start" x="8" y="-587.3" font-family="Times,serif" font-size="14.00"> v12 = ExtCastExpr&lt;int32&gt;(*(IntToPtrCastExpr&lt;ptr&gt;((v10 + v11))))</text>
<text text-anchor="start" x="8" y="-572.3" font-family="Times,serif" font-size="14.00"> v13 = (g39 + 1)</text>
<text text-anchor="start" x="8" y="-557.3" font-family="Times,serif" font-size="14.00"> g39 = v13</text>
<text text-anchor="start" x="8" y="-542.3" font-family="Times,serif" font-size="14.00"> g9 = (v13 == 7)</text>
<text text-anchor="start" x="8" y="-527.3" font-family="Times,serif" font-size="14.00"> v14 = g40</text>
</g>
<!-- Node0x136bed10&#45;&gt;Node0x136bfff0 -->
<g id="edge7" class="edge"><title>Node0x136bed10&#45;&gt;Node0x136bfff0</title>
<path fill="none" stroke="black" d="M448.372,-784.442C422.595,-779.166 394.121,-770.437 371,-756 359.307,-748.699 348.236,-739.764 337.932,-730.007"/>
<polygon fill="black" stroke="black" points="340.153,-727.283 330.568,-722.769 335.246,-732.275 340.153,-727.283"/>
<text text-anchor="middle" x="402.5" y="-744.8" font-family="Times,serif" font-size="14.00">v13 != 7</text>
</g>
<!-- Node0x136bf140 -->
<g id="node9" class="node"><title>Node0x136bf140</title>
<polygon fill="none" stroke="black" points="536.5,-549.5 536.5,-692.5 1087.5,-692.5 1087.5,-549.5 536.5,-549.5"/>
<text text-anchor="start" x="544.5" y="-677.3" font-family="Times,serif" font-size="14.00">0x9481560:</text>
<text text-anchor="start" x="544.5" y="-662.3" font-family="Times,serif" font-size="14.00"> g29 = v14</text>
<text text-anchor="start" x="544.5" y="-647.3" font-family="Times,serif" font-size="14.00"> g30 = 13</text>
<text text-anchor="start" x="544.5" y="-632.3" font-family="Times,serif" font-size="14.00"> function_1b75c()</text>
<text text-anchor="start" x="544.5" y="-617.3" font-family="Times,serif" font-size="14.00"> v15 = ExtCastExpr&lt;int32&gt;(*(IntToPtrCastExpr&lt;ptr&gt;(((13 &#45; v9) + v11))))</text>
<text text-anchor="start" x="544.5" y="-602.3" font-family="Times,serif" font-size="14.00"> v16 = 6</text>
<text text-anchor="start" x="544.5" y="-587.3" font-family="Times,serif" font-size="14.00"> v17 = (256 * v15)</text>
<text text-anchor="start" x="544.5" y="-572.3" font-family="Times,serif" font-size="14.00"> v18 = (v17 | v12)</text>
<text text-anchor="start" x="544.5" y="-557.3" font-family="Times,serif" font-size="14.00"> v19 = (v15 / 16777216)</text>
</g>
<!-- Node0x136bed10&#45;&gt;Node0x136bf140 -->
<g id="edge8" class="edge"><title>Node0x136bed10&#45;&gt;Node0x136bf140</title>
<path fill="none" stroke="black" d="M550.079,-774.415C581.756,-755.981 633.042,-726.138 681.871,-697.724"/>
<polygon fill="black" stroke="black" points="683.752,-700.679 690.635,-692.624 680.231,-694.628 683.752,-700.679"/>
<text text-anchor="middle" x="640.5" y="-744.8" font-family="Times,serif" font-size="14.00">v13 == 7</text>
</g>
<!-- Node0x2a3f0a80 -->
<g id="node10" class="node"><title>Node0x2a3f0a80</title>
<polygon fill="none" stroke="black" points="1062,-23.5 1062,-59.5 1116,-59.5 1116,-23.5 1062,-23.5"/>
<text text-anchor="start" x="1070" y="-37.8" font-family="Times,serif" font-size="14.00">exit:</text>
</g>
<!-- Node0x2a3f4ac0&#45;&gt;Node0x2a3f0a80 -->
<g id="edge9" class="edge"><title>Node0x2a3f4ac0&#45;&gt;Node0x2a3f0a80</title>
<path fill="none" stroke="black" d="M1089,-97.181C1089,-87.439 1089,-77.9608 1089,-69.7068"/>
<polygon fill="black" stroke="black" points="1092.5,-69.642 1089,-59.642 1085.5,-69.6421 1092.5,-69.642"/>
</g>
<!-- Node0x136bfff0&#45;&gt;Node0x136bed10 -->
<g id="edge10" class="edge"><title>Node0x136bfff0&#45;&gt;Node0x136bed10</title>
<path fill="none" stroke="black" d="M412.404,-722.598C438.686,-739.833 463.648,-756.202 482.801,-768.762"/>
<polygon fill="black" stroke="black" points="480.894,-771.697 491.175,-774.254 484.732,-765.843 480.894,-771.697"/>
</g>
<!-- Node0x136bf6b0 -->
<g id="node11" class="node"><title>Node0x136bf6b0</title>
<polygon fill="none" stroke="black" points="751.5,-443.5 751.5,-481.5 892.5,-481.5 892.5,-443.5 751.5,-443.5"/>
<text text-anchor="start" x="759.5" y="-466.3" font-family="Times,serif" font-size="14.00">0x9486160:</text>
<text text-anchor="start" x="759.5" y="-451.3" font-family="Times,serif" font-size="14.00"> while (v16 != 0):</text>
</g>
<!-- Node0x136bf140&#45;&gt;Node0x136bf6b0 -->
<g id="edge11" class="edge"><title>Node0x136bf140&#45;&gt;Node0x136bf6b0</title>
<path fill="none" stroke="black" d="M816.532,-549.076C817.825,-528.837 819.16,-507.939 820.188,-491.861"/>
<polygon fill="black" stroke="black" points="823.701,-491.77 820.846,-481.567 816.715,-491.324 823.701,-491.77"/>
</g>
<!-- Node0x16356220 -->
<g id="node12" class="node"><title>Node0x16356220</title>
<polygon fill="none" stroke="black" points="657.5,-286 657.5,-384 952.5,-384 952.5,-286 657.5,-286"/>
<text text-anchor="start" x="665.5" y="-368.8" font-family="Times,serif" font-size="14.00">0xfaf2ca0:</text>
<text text-anchor="start" x="665.5" y="-353.8" font-family="Times,serif" font-size="14.00"> v15 = v18</text>
<text text-anchor="start" x="665.5" y="-338.8" font-family="Times,serif" font-size="14.00"> v16 = (v16 &#45; 1)</text>
<text text-anchor="start" x="665.5" y="-323.8" font-family="Times,serif" font-size="14.00"> v17 = (256 * v15)</text>
<text text-anchor="start" x="665.5" y="-308.8" font-family="Times,serif" font-size="14.00"> v18 = (v17 | v12)</text>
<text text-anchor="start" x="665.5" y="-293.8" font-family="Times,serif" font-size="14.00"> v19 = ((v15 / 16777216) | (256 * v19))</text>
</g>
<!-- Node0x136bf6b0&#45;&gt;Node0x16356220 -->
<g id="edge12" class="edge"><title>Node0x136bf6b0&#45;&gt;Node0x16356220</title>
<path fill="none" stroke="black" d="M797.274,-443.4C791.896,-438.126 786.94,-431.901 784,-425 779.85,-415.26 779.288,-404.555 780.725,-394.049"/>
<polygon fill="black" stroke="black" points="784.191,-394.559 782.663,-384.075 777.32,-393.223 784.191,-394.559"/>
<text text-anchor="middle" x="815.5" y="-413.8" font-family="Times,serif" font-size="14.00">v16 != 0</text>
</g>
<!-- Node0x136bf880 -->
<g id="node13" class="node"><title>Node0x136bf880</title>
<polygon fill="none" stroke="black" points="981.5,-278.5 981.5,-391.5 1082.5,-391.5 1082.5,-278.5 981.5,-278.5"/>
<text text-anchor="start" x="989.5" y="-376.3" font-family="Times,serif" font-size="14.00">0x9485310:</text>
<text text-anchor="start" x="989.5" y="-361.3" font-family="Times,serif" font-size="14.00"> g37 = v19</text>
<text text-anchor="start" x="989.5" y="-346.3" font-family="Times,serif" font-size="14.00"> g33 = &#45;1</text>
<text text-anchor="start" x="989.5" y="-331.3" font-family="Times,serif" font-size="14.00"> g36 = v17</text>
<text text-anchor="start" x="989.5" y="-316.3" font-family="Times,serif" font-size="14.00"> g9 = True</text>
<text text-anchor="start" x="989.5" y="-301.3" font-family="Times,serif" font-size="14.00"> v6 = v19</text>
<text text-anchor="start" x="989.5" y="-286.3" font-family="Times,serif" font-size="14.00"> v5 = v18</text>
</g>
<!-- Node0x136bf6b0&#45;&gt;Node0x136bf880 -->
<g id="edge13" class="edge"><title>Node0x136bf6b0&#45;&gt;Node0x136bf880</title>
<path fill="none" stroke="black" d="M864.311,-443.368C892.766,-430.49 930.657,-411.991 962,-392 965.717,-389.629 969.469,-387.097 973.202,-384.469"/>
<polygon fill="black" stroke="black" points="975.277,-387.287 981.323,-378.587 971.171,-381.618 975.277,-387.287"/>
<text text-anchor="middle" x="963.5" y="-413.8" font-family="Times,serif" font-size="14.00">v16 == 0</text>
</g>
<!-- Node0x16356220&#45;&gt;Node0x136bf6b0 -->
<g id="edge14" class="edge"><title>Node0x16356220&#45;&gt;Node0x136bf6b0</title>
<path fill="none" stroke="black" d="M836.979,-384.232C841.111,-392.525 844.7,-401.287 847,-410 848.702,-416.446 848.972,-418.632 847,-425 845.969,-428.329 844.518,-431.625 842.829,-434.794"/>
<polygon fill="black" stroke="black" points="839.845,-432.965 837.586,-443.316 845.807,-436.633 839.845,-432.965"/>
</g>
<!-- Node0x136bf880&#45;&gt;Node0x2a3f4ac0 -->
<g id="edge15" class="edge"><title>Node0x136bf880&#45;&gt;Node0x2a3f4ac0</title>
<path fill="none" stroke="black" d="M1051.3,-278.477C1054.47,-269.347 1057.81,-259.727 1061.15,-250.14"/>
<polygon fill="black" stroke="black" points="1064.49,-251.179 1064.47,-240.584 1057.88,-248.881 1064.49,-251.179"/>
</g>
</g>
</svg>
