<?xml version="1.0" encoding="UTF-8" standalone="no"?>
<!DOCTYPE svg PUBLIC "-//W3C//DTD SVG 1.1//EN"
 "http://www.w3.org/Graphics/SVG/1.1/DTD/svg11.dtd">
<!-- Generated by graphviz version 2.38.0 (20140413.2041)
 -->
<!-- Title: Control&#45;flow graph for function &#39;function_a4dc()&#39;. Pages: 1 -->
<svg width="528pt" height="306pt"
 viewBox="0.00 0.00 528.00 306.00" xmlns="http://www.w3.org/2000/svg" xmlns:xlink="http://www.w3.org/1999/xlink">
<g id="graph0" class="graph" transform="scale(1 1) rotate(0) translate(4 302)">
<title>Control&#45;flow graph for function &#39;function_a4dc()&#39;.</title>
<polygon fill="white" stroke="none" points="-4,4 -4,-302 524,-302 524,4 -4,4"/>
<text text-anchor="middle" x="260" y="-7.8" font-family="Times,serif" font-size="14.00">Control&#45;flow graph for function &#39;function_a4dc()&#39;.</text>
<!-- Node0x2a403f80 -->
<g id="node1" class="node"><title>Node0x2a403f80</title>
<polygon fill="none" stroke="black" points="230.5,-261.5 230.5,-297.5 289.5,-297.5 289.5,-261.5 230.5,-261.5"/>
<text text-anchor="start" x="238.5" y="-275.8" font-family="Times,serif" font-size="14.00">entry:</text>
</g>
<!-- Node0x43039240 -->
<g id="node2" class="node"><title>Node0x43039240</title>
<polygon fill="none" stroke="black" points="0,-96.5 0,-224.5 520,-224.5 520,-96.5 0,-96.5"/>
<text text-anchor="start" x="8" y="-209.3" font-family="Times,serif" font-size="14.00">0x14670610:</text>
<text text-anchor="start" x="8" y="-194.3" font-family="Times,serif" font-size="14.00"> v1 = IntToPtrCastExpr&lt;ptr&gt;((g29 + 60))</text>
<text text-anchor="start" x="8" y="-179.3" font-family="Times,serif" font-size="14.00"> g36 = 1</text>
<text text-anchor="start" x="8" y="-164.3" font-family="Times,serif" font-size="14.00"> *(v1) = (*(v1) + 1)</text>
<text text-anchor="start" x="8" y="-149.3" font-family="Times,serif" font-size="14.00"> g37 = &#45;1</text>
<text text-anchor="start" x="8" y="-134.3" font-family="Times,serif" font-size="14.00"> *(IntToPtrCastExpr&lt;ptr&gt;((g29 + 37))) = TruncCastExpr&lt;int8&gt;(g36)</text>
<text text-anchor="start" x="8" y="-119.3" font-family="Times,serif" font-size="14.00"> *(IntToPtrCastExpr&lt;ptr&gt;((g29 + 24))) = g37</text>
<text text-anchor="start" x="8" y="-104.3" font-family="Times,serif" font-size="14.00"> *(IntToPtrCastExpr&lt;ptr&gt;((g29 + 36))) = TruncCastExpr&lt;int8&gt;(g36)</text>
</g>
<!-- Node0x2a403f80&#45;&gt;Node0x43039240 -->
<g id="edge1" class="edge"><title>Node0x2a403f80&#45;&gt;Node0x43039240</title>
<path fill="none" stroke="black" d="M260,-261.487C260,-254.024 260,-244.706 260,-234.78"/>
<polygon fill="black" stroke="black" points="263.5,-234.697 260,-224.697 256.5,-234.697 263.5,-234.697"/>
</g>
<!-- Node0x26631970 -->
<g id="node3" class="node"><title>Node0x26631970</title>
<polygon fill="none" stroke="black" points="233,-23.5 233,-59.5 287,-59.5 287,-23.5 233,-23.5"/>
<text text-anchor="start" x="241" y="-37.8" font-family="Times,serif" font-size="14.00">exit:</text>
</g>
<!-- Node0x43039240&#45;&gt;Node0x26631970 -->
<g id="edge2" class="edge"><title>Node0x43039240&#45;&gt;Node0x26631970</title>
<path fill="none" stroke="black" d="M260,-96.206C260,-87.0257 260,-78.004 260,-70.0532"/>
<polygon fill="black" stroke="black" points="263.5,-69.9607 260,-59.9608 256.5,-69.9608 263.5,-69.9607"/>
</g>
</g>
</svg>
