<?xml version="1.0" encoding="UTF-8" standalone="no"?>
<!DOCTYPE svg PUBLIC "-//W3C//DTD SVG 1.1//EN"
 "http://www.w3.org/Graphics/SVG/1.1/DTD/svg11.dtd">
<!-- Generated by graphviz version 2.38.0 (20140413.2041)
 -->
<!-- Title: Control&#45;flow graph for function &#39;function_16d20()&#39;. Pages: 1 -->
<svg width="605pt" height="564pt"
 viewBox="0.00 0.00 604.50 564.00" xmlns="http://www.w3.org/2000/svg" xmlns:xlink="http://www.w3.org/1999/xlink">
<g id="graph0" class="graph" transform="scale(1 1) rotate(0) translate(4 560)">
<title>Control&#45;flow graph for function &#39;function_16d20()&#39;.</title>
<polygon fill="white" stroke="none" points="-4,4 -4,-560 600.5,-560 600.5,4 -4,4"/>
<text text-anchor="middle" x="298.25" y="-7.8" font-family="Times,serif" font-size="14.00">Control&#45;flow graph for function &#39;function_16d20()&#39;.</text>
<!-- Node0x26512880 -->
<g id="node1" class="node"><title>Node0x26512880</title>
<polygon fill="none" stroke="black" points="446,-519.5 446,-555.5 505,-555.5 505,-519.5 446,-519.5"/>
<text text-anchor="start" x="454" y="-533.8" font-family="Times,serif" font-size="14.00">entry:</text>
</g>
<!-- Node0x2adc3710 -->
<g id="node2" class="node"><title>Node0x2adc3710</title>
<polygon fill="none" stroke="black" points="354.5,-278.5 354.5,-481.5 596.5,-481.5 596.5,-278.5 354.5,-278.5"/>
<text text-anchor="start" x="362.5" y="-466.3" font-family="Times,serif" font-size="14.00">0x8612eb0:</text>
<text text-anchor="start" x="362.5" y="-451.3" font-family="Times,serif" font-size="14.00"> g36 = 5748</text>
<text text-anchor="start" x="362.5" y="-436.3" font-family="Times,serif" font-size="14.00"> g37 = 165012</text>
<text text-anchor="start" x="362.5" y="-421.3" font-family="Times,serif" font-size="14.00"> g30 = g29</text>
<text text-anchor="start" x="362.5" y="-406.3" font-family="Times,serif" font-size="14.00"> g29 = g18</text>
<text text-anchor="start" x="362.5" y="-391.3" font-family="Times,serif" font-size="14.00"> function_f3b0()</text>
<text text-anchor="start" x="362.5" y="-376.3" font-family="Times,serif" font-size="14.00"> v1 = g29</text>
<text text-anchor="start" x="362.5" y="-361.3" font-family="Times,serif" font-size="14.00"> g6 = True</text>
<text text-anchor="start" x="362.5" y="-346.3" font-family="Times,serif" font-size="14.00"> g9 = (v1 == 0)</text>
<text text-anchor="start" x="362.5" y="-331.3" font-family="Times,serif" font-size="14.00"> g29 = (v1 != 0)</text>
<text text-anchor="start" x="362.5" y="-316.3" font-family="Times,serif" font-size="14.00"> v2</text>
<text text-anchor="start" x="362.5" y="-301.3" font-family="Times,serif" font-size="14.00"> g34 = v2</text>
<text text-anchor="start" x="362.5" y="-286.3" font-family="Times,serif" font-size="14.00"> IntToPtrCastExpr&lt;ptr&gt;(g35)()</text>
</g>
<!-- Node0x26512880&#45;&gt;Node0x2adc3710 -->
<g id="edge1" class="edge"><title>Node0x26512880&#45;&gt;Node0x2adc3710</title>
<path fill="none" stroke="black" d="M475.5,-519.265C475.5,-511.774 475.5,-502.323 475.5,-491.892"/>
<polygon fill="black" stroke="black" points="479,-491.624 475.5,-481.624 472,-491.624 479,-491.624"/>
</g>
<!-- Node0x26510d80 -->
<g id="node3" class="node"><title>Node0x26510d80</title>
<polygon fill="none" stroke="black" points="426.5,-202.5 426.5,-240.5 524.5,-240.5 524.5,-202.5 426.5,-202.5"/>
<text text-anchor="start" x="434.5" y="-225.3" font-family="Times,serif" font-size="14.00">0x86194f0:</text>
<text text-anchor="start" x="434.5" y="-210.3" font-family="Times,serif" font-size="14.00"> if g9:</text>
</g>
<!-- Node0x2adc3710&#45;&gt;Node0x26510d80 -->
<g id="edge2" class="edge"><title>Node0x2adc3710&#45;&gt;Node0x26510d80</title>
<path fill="none" stroke="black" d="M475.5,-278.117C475.5,-268.358 475.5,-259.113 475.5,-251.064"/>
<polygon fill="black" stroke="black" points="479,-250.893 475.5,-240.893 472,-250.894 479,-250.893"/>
</g>
<!-- Node0x2adc01e0 -->
<g id="node4" class="node"><title>Node0x2adc01e0</title>
<polygon fill="none" stroke="black" points="0,-97.5 0,-150.5 513,-150.5 513,-97.5 0,-97.5"/>
<text text-anchor="start" x="8" y="-135.3" font-family="Times,serif" font-size="14.00">0x131469b0:</text>
<text text-anchor="start" x="8" y="-120.3" font-family="Times,serif" font-size="14.00"> v3 = (g40 % 256)</text>
<text text-anchor="start" x="8" y="-105.3" font-family="Times,serif" font-size="14.00"> g30 = ((g38 &gt;&gt; (0 if (v3 == 0) else (31 if (v3 &gt; 31) else v3))) &amp; g29)</text>
</g>
<!-- Node0x26510d80&#45;&gt;Node0x2adc01e0 -->
<g id="edge3" class="edge"><title>Node0x26510d80&#45;&gt;Node0x2adc01e0</title>
<path fill="none" stroke="black" d="M434.05,-202.425C403.202,-188.973 360.415,-170.314 324.573,-154.685"/>
<polygon fill="black" stroke="black" points="325.71,-151.362 315.145,-150.573 322.912,-157.779 325.71,-151.362"/>
<text text-anchor="middle" x="396" y="-172.8" font-family="Times,serif" font-size="14.00">g9</text>
</g>
<!-- Node0x2adc2a10 -->
<g id="node5" class="node"><title>Node0x2adc2a10</title>
<polygon fill="none" stroke="black" points="442.5,-23.5 442.5,-59.5 496.5,-59.5 496.5,-23.5 442.5,-23.5"/>
<text text-anchor="start" x="450.5" y="-37.8" font-family="Times,serif" font-size="14.00">exit:</text>
</g>
<!-- Node0x26510d80&#45;&gt;Node0x2adc2a10 -->
<g id="edge4" class="edge"><title>Node0x26510d80&#45;&gt;Node0x2adc2a10</title>
<path fill="none" stroke="black" d="M491.91,-202.287C502.64,-189.094 515.704,-170.259 521.5,-151 528.417,-128.018 530.424,-119.279 521.5,-97 516.949,-85.6385 508.777,-75.3005 500.238,-66.7559"/>
<polygon fill="black" stroke="black" points="502.417,-64.0015 492.722,-59.728 497.636,-69.1145 502.417,-64.0015"/>
<text text-anchor="middle" x="556" y="-120.3" font-family="Times,serif" font-size="14.00">not (g9)</text>
</g>
<!-- Node0x2adc01e0&#45;&gt;Node0x2adc2a10 -->
<g id="edge5" class="edge"><title>Node0x2adc01e0&#45;&gt;Node0x2adc2a10</title>
<path fill="none" stroke="black" d="M324.187,-97.4187C360.194,-83.8104 403.058,-67.6106 432.861,-56.3471"/>
<polygon fill="black" stroke="black" points="434.322,-59.5368 442.439,-52.7274 431.847,-52.9888 434.322,-59.5368"/>
</g>
</g>
</svg>
