<?xml version="1.0" encoding="UTF-8" standalone="no"?>
<!DOCTYPE svg PUBLIC "-//W3C//DTD SVG 1.1//EN"
 "http://www.w3.org/Graphics/SVG/1.1/DTD/svg11.dtd">
<!-- Generated by graphviz version 2.38.0 (20140413.2041)
 -->
<!-- Title: Control&#45;flow graph for function &#39;function_f588()&#39;. Pages: 1 -->
<svg width="373pt" height="261pt"
 viewBox="0.00 0.00 373.00 261.00" xmlns="http://www.w3.org/2000/svg" xmlns:xlink="http://www.w3.org/1999/xlink">
<g id="graph0" class="graph" transform="scale(1 1) rotate(0) translate(4 257)">
<title>Control&#45;flow graph for function &#39;function_f588()&#39;.</title>
<polygon fill="white" stroke="none" points="-4,4 -4,-257 369,-257 369,4 -4,4"/>
<text text-anchor="middle" x="182.5" y="-7.8" font-family="Times,serif" font-size="14.00">Control&#45;flow graph for function &#39;function_f588()&#39;.</text>
<!-- Node0x160e32f0 -->
<g id="node1" class="node"><title>Node0x160e32f0</title>
<polygon fill="none" stroke="black" points="153,-216.5 153,-252.5 212,-252.5 212,-216.5 153,-216.5"/>
<text text-anchor="start" x="161" y="-230.8" font-family="Times,serif" font-size="14.00">entry:</text>
</g>
<!-- Node0x3ef59600 -->
<g id="node2" class="node"><title>Node0x3ef59600</title>
<polygon fill="none" stroke="black" points="18,-96.5 18,-179.5 347,-179.5 347,-96.5 18,-96.5"/>
<text text-anchor="start" x="26" y="-164.3" font-family="Times,serif" font-size="14.00">0x15e40000:</text>
<text text-anchor="start" x="26" y="-149.3" font-family="Times,serif" font-size="14.00"> v1 = *(IntToPtrCastExpr&lt;ptr&gt;((g29 + 8)))</text>
<text text-anchor="start" x="26" y="-134.3" font-family="Times,serif" font-size="14.00"> g37 = v1</text>
<text text-anchor="start" x="26" y="-119.3" font-family="Times,serif" font-size="14.00"> g9 = ((v1 &amp; 192) == 0)</text>
<text text-anchor="start" x="26" y="-104.3" font-family="Times,serif" font-size="14.00"> g29 = ((v1 &amp; 192) != 0)</text>
</g>
<!-- Node0x160e32f0&#45;&gt;Node0x3ef59600 -->
<g id="edge1" class="edge"><title>Node0x160e32f0&#45;&gt;Node0x3ef59600</title>
<path fill="none" stroke="black" d="M182.5,-216.167C182.5,-208.654 182.5,-199.427 182.5,-189.999"/>
<polygon fill="black" stroke="black" points="186,-189.762 182.5,-179.762 179,-189.762 186,-189.762"/>
</g>
<!-- Node0x160e2f30 -->
<g id="node3" class="node"><title>Node0x160e2f30</title>
<polygon fill="none" stroke="black" points="155.5,-23.5 155.5,-59.5 209.5,-59.5 209.5,-23.5 155.5,-23.5"/>
<text text-anchor="start" x="163.5" y="-37.8" font-family="Times,serif" font-size="14.00">exit:</text>
</g>
<!-- Node0x3ef59600&#45;&gt;Node0x160e2f30 -->
<g id="edge2" class="edge"><title>Node0x3ef59600&#45;&gt;Node0x160e2f30</title>
<path fill="none" stroke="black" d="M182.5,-96.3751C182.5,-87.4706 182.5,-78.246 182.5,-70"/>
<polygon fill="black" stroke="black" points="186,-69.8327 182.5,-59.8328 179,-69.8328 186,-69.8327"/>
</g>
</g>
</svg>
