<?xml version="1.0" encoding="UTF-8" standalone="no"?>
<!DOCTYPE svg PUBLIC "-//W3C//DTD SVG 1.1//EN"
 "http://www.w3.org/Graphics/SVG/1.1/DTD/svg11.dtd">
<!-- Generated by graphviz version 2.38.0 (20140413.2041)
 -->
<!-- Title: Control&#45;flow graph for function &#39;function_238d8()&#39;. Pages: 1 -->
<svg width="652pt" height="1651pt"
 viewBox="0.00 0.00 651.57 1651.00" xmlns="http://www.w3.org/2000/svg" xmlns:xlink="http://www.w3.org/1999/xlink">
<g id="graph0" class="graph" transform="scale(1 1) rotate(0) translate(4 1647)">
<title>Control&#45;flow graph for function &#39;function_238d8()&#39;.</title>
<polygon fill="white" stroke="none" points="-4,4 -4,-1647 647.569,-1647 647.569,4 -4,4"/>
<text text-anchor="middle" x="321.785" y="-7.8" font-family="Times,serif" font-size="14.00">Control&#45;flow graph for function &#39;function_238d8()&#39;.</text>
<!-- Node0x235e0c40 -->
<g id="node1" class="node"><title>Node0x235e0c40</title>
<polygon fill="none" stroke="black" points="173.5,-1606.5 173.5,-1642.5 232.5,-1642.5 232.5,-1606.5 173.5,-1606.5"/>
<text text-anchor="start" x="181.5" y="-1620.8" font-family="Times,serif" font-size="14.00">entry:</text>
</g>
<!-- Node0x1b5f5e10 -->
<g id="node2" class="node"><title>Node0x1b5f5e10</title>
<polygon fill="none" stroke="black" points="115.5,-1530.5 115.5,-1568.5 290.5,-1568.5 290.5,-1530.5 115.5,-1530.5"/>
<text text-anchor="start" x="123.5" y="-1553.3" font-family="Times,serif" font-size="14.00">0xa3b3e70:</text>
<text text-anchor="start" x="123.5" y="-1538.3" font-family="Times,serif" font-size="14.00"> if (g9 or (g6 ^ True)):</text>
</g>
<!-- Node0x235e0c40&#45;&gt;Node0x1b5f5e10 -->
<g id="edge1" class="edge"><title>Node0x235e0c40&#45;&gt;Node0x1b5f5e10</title>
<path fill="none" stroke="black" d="M203,-1606.2C203,-1597.99 203,-1587.97 203,-1578.7"/>
<polygon fill="black" stroke="black" points="206.5,-1578.69 203,-1568.69 199.5,-1578.69 206.5,-1578.69"/>
</g>
<!-- Node0x19b24060 -->
<g id="node3" class="node"><title>Node0x19b24060</title>
<polygon fill="none" stroke="black" points="0,-1440.5 0,-1478.5 238,-1478.5 238,-1440.5 0,-1440.5"/>
<text text-anchor="start" x="8" y="-1463.3" font-family="Times,serif" font-size="14.00">0xa3b3c80:</text>
<text text-anchor="start" x="8" y="-1448.3" font-family="Times,serif" font-size="14.00"> g43 = ((g43 &amp; &#45;65536) | 4608)</text>
</g>
<!-- Node0x1b5f5e10&#45;&gt;Node0x19b24060 -->
<g id="edge2" class="edge"><title>Node0x1b5f5e10&#45;&gt;Node0x19b24060</title>
<path fill="none" stroke="black" d="M157.274,-1530.36C148.979,-1525.41 141.053,-1519.34 135,-1512 129.555,-1505.4 125.958,-1496.94 123.584,-1488.8"/>
<polygon fill="black" stroke="black" points="126.925,-1487.73 121.184,-1478.82 120.119,-1489.36 126.925,-1487.73"/>
<text text-anchor="middle" x="197.5" y="-1500.8" font-family="Times,serif" font-size="14.00">g9 or (g6 ^ True)</text>
</g>
<!-- Node0x1c1d1590 -->
<g id="node4" class="node"><title>Node0x1c1d1590</title>
<polygon fill="none" stroke="black" points="126.5,-1364.5 126.5,-1402.5 331.5,-1402.5 331.5,-1364.5 126.5,-1364.5"/>
<text text-anchor="start" x="134.5" y="-1387.3" font-family="Times,serif" font-size="14.00">0x2e12cff0:</text>
<text text-anchor="start" x="134.5" y="-1372.3" font-family="Times,serif" font-size="14.00"> v1 = unknown_fe5df8ea()</text>
</g>
<!-- Node0x1b5f5e10&#45;&gt;Node0x1c1d1590 -->
<g id="edge3" class="edge"><title>Node0x1b5f5e10&#45;&gt;Node0x1c1d1590</title>
<path fill="none" stroke="black" d="M243.005,-1530.33C249.828,-1525.39 255.996,-1519.32 260,-1512 277.41,-1480.18 261.17,-1438.62 246.404,-1411.74"/>
<polygon fill="black" stroke="black" points="249.327,-1409.8 241.3,-1402.89 243.262,-1413.3 249.327,-1409.8"/>
<text text-anchor="middle" x="374.5" y="-1455.8" font-family="Times,serif" font-size="14.00">not (g9) and not ((g6 ^ True))</text>
</g>
<!-- Node0x19b24060&#45;&gt;Node0x1c1d1590 -->
<g id="edge4" class="edge"><title>Node0x19b24060&#45;&gt;Node0x1c1d1590</title>
<path fill="none" stroke="black" d="M145.909,-1440.4C160.292,-1430.72 178.177,-1418.69 193.666,-1408.27"/>
<polygon fill="black" stroke="black" points="195.644,-1411.16 201.988,-1402.67 191.737,-1405.35 195.644,-1411.16"/>
</g>
<!-- Node0x31f2dac0 -->
<g id="node5" class="node"><title>Node0x31f2dac0</title>
<polygon fill="none" stroke="black" points="175.5,-1288.5 175.5,-1326.5 282.5,-1326.5 282.5,-1288.5 175.5,-1288.5"/>
<text text-anchor="start" x="183.5" y="-1311.3" font-family="Times,serif" font-size="14.00">0xa3b4fe0:</text>
<text text-anchor="start" x="183.5" y="-1296.3" font-family="Times,serif" font-size="14.00"> if (g7 ^ g8):</text>
</g>
<!-- Node0x1c1d1590&#45;&gt;Node0x31f2dac0 -->
<g id="edge5" class="edge"><title>Node0x1c1d1590&#45;&gt;Node0x31f2dac0</title>
<path fill="none" stroke="black" d="M229,-1364.21C229,-1355.96 229,-1346.04 229,-1336.86"/>
<polygon fill="black" stroke="black" points="232.5,-1336.58 229,-1326.58 225.5,-1336.58 232.5,-1336.58"/>
</g>
<!-- Node0x19b24660 -->
<g id="node6" class="node"><title>Node0x19b24660</title>
<polygon fill="none" stroke="black" points="38.5,-1198.5 38.5,-1236.5 229.5,-1236.5 229.5,-1198.5 38.5,-1198.5"/>
<text text-anchor="start" x="46.5" y="-1221.3" font-family="Times,serif" font-size="14.00">0xa3b4df0:</text>
<text text-anchor="start" x="46.5" y="-1206.3" font-family="Times,serif" font-size="14.00"> g38 = (g37 &amp; (8 * g34))</text>
</g>
<!-- Node0x31f2dac0&#45;&gt;Node0x19b24660 -->
<g id="edge6" class="edge"><title>Node0x31f2dac0&#45;&gt;Node0x19b24660</title>
<path fill="none" stroke="black" d="M209.316,-1288.27C195.432,-1275.41 176.652,-1258.01 161.319,-1243.81"/>
<polygon fill="black" stroke="black" points="163.374,-1240.94 153.659,-1236.71 158.617,-1246.07 163.374,-1240.94"/>
<text text-anchor="middle" x="217" y="-1258.8" font-family="Times,serif" font-size="14.00">g7 ^ g8</text>
</g>
<!-- Node0x2b7b9060 -->
<g id="node7" class="node"><title>Node0x2b7b9060</title>
<polygon fill="none" stroke="black" points="0.5,-1047.5 0.5,-1160.5 453.5,-1160.5 453.5,-1047.5 0.5,-1047.5"/>
<text text-anchor="start" x="8.5" y="-1145.3" font-family="Times,serif" font-size="14.00">0x2e12d0d0:</text>
<text text-anchor="start" x="8.5" y="-1130.3" font-family="Times,serif" font-size="14.00"> v2 = (v1 % 256)</text>
<text text-anchor="start" x="8.5" y="-1115.3" font-family="Times,serif" font-size="14.00"> v3 = (g33 if (v2 == 0) else ((g33 &lt;&lt; v2) if (v2 &lt; 32) else 0))</text>
<text text-anchor="start" x="8.5" y="-1100.3" font-family="Times,serif" font-size="14.00"> v4</text>
<text text-anchor="start" x="8.5" y="-1085.3" font-family="Times,serif" font-size="14.00"> v5</text>
<text text-anchor="start" x="8.5" y="-1070.3" font-family="Times,serif" font-size="14.00"> v6</text>
<text text-anchor="start" x="8.5" y="-1055.3" font-family="Times,serif" font-size="14.00"> v7</text>
</g>
<!-- Node0x31f2dac0&#45;&gt;Node0x2b7b9060 -->
<g id="edge7" class="edge"><title>Node0x31f2dac0&#45;&gt;Node0x2b7b9060</title>
<path fill="none" stroke="black" d="M241.896,-1288.38C245.202,-1282.76 248.302,-1276.36 250,-1270 258.584,-1237.87 254.815,-1201.31 248.058,-1170.78"/>
<polygon fill="black" stroke="black" points="251.376,-1169.6 245.666,-1160.67 244.564,-1171.21 251.376,-1169.6"/>
<text text-anchor="middle" x="308" y="-1213.8" font-family="Times,serif" font-size="14.00">not ((g7 ^ g8))</text>
</g>
<!-- Node0x19b24660&#45;&gt;Node0x2b7b9060 -->
<g id="edge8" class="edge"><title>Node0x19b24660&#45;&gt;Node0x2b7b9060</title>
<path fill="none" stroke="black" d="M149.357,-1198.09C156.332,-1189.73 165.036,-1179.29 174.07,-1168.46"/>
<polygon fill="black" stroke="black" points="176.97,-1170.45 180.687,-1160.53 171.594,-1165.96 176.97,-1170.45"/>
</g>
<!-- Node0x23994030 -->
<g id="node8" class="node"><title>Node0x23994030</title>
<polygon fill="none" stroke="black" points="177.5,-956.5 177.5,-1009.5 276.5,-1009.5 276.5,-956.5 177.5,-956.5"/>
<text text-anchor="start" x="185.5" y="-994.3" font-family="Times,serif" font-size="14.00">0xa3c3c40:</text>
<text text-anchor="start" x="185.5" y="-979.3" font-family="Times,serif" font-size="14.00"> if g8:</text>
<text text-anchor="start" x="185.5" y="-964.3" font-family="Times,serif" font-size="14.00"> else:</text>
</g>
<!-- Node0x2b7b9060&#45;&gt;Node0x23994030 -->
<g id="edge9" class="edge"><title>Node0x2b7b9060&#45;&gt;Node0x23994030</title>
<path fill="none" stroke="black" d="M227,-1047.33C227,-1037.96 227,-1028.46 227,-1019.76"/>
<polygon fill="black" stroke="black" points="230.5,-1019.62 227,-1009.62 223.5,-1019.62 230.5,-1019.62"/>
</g>
<!-- Node0x19b24b60 -->
<g id="node9" class="node"><title>Node0x19b24b60</title>
<polygon fill="none" stroke="black" points="22,-806.5 22,-904.5 306,-904.5 306,-806.5 22,-806.5"/>
<text text-anchor="start" x="30" y="-889.3" font-family="Times,serif" font-size="14.00">0x2e12d270:</text>
<text text-anchor="start" x="30" y="-874.3" font-family="Times,serif" font-size="14.00"> v8 = (g34 &#45; v3)</text>
<text text-anchor="start" x="30" y="-859.3" font-family="Times,serif" font-size="14.00"> v4 = (((v8 ^ g34) &amp; (g34 ^ v3)) &lt; 0)</text>
<text text-anchor="start" x="30" y="-844.3" font-family="Times,serif" font-size="14.00"> v6 = (v8 &lt; 0)</text>
<text text-anchor="start" x="30" y="-829.3" font-family="Times,serif" font-size="14.00"> v7 = (g34 == v3)</text>
<text text-anchor="start" x="30" y="-814.3" font-family="Times,serif" font-size="14.00"> v5 = (g34 &gt;= v3)</text>
</g>
<!-- Node0x23994030&#45;&gt;Node0x19b24b60 -->
<g id="edge10" class="edge"><title>Node0x23994030&#45;&gt;Node0x19b24b60</title>
<path fill="none" stroke="black" d="M214.099,-956.3C207.928,-944.007 200.273,-928.759 192.82,-913.911"/>
<polygon fill="black" stroke="black" points="195.835,-912.116 188.221,-904.749 189.579,-915.256 195.835,-912.116"/>
<text text-anchor="middle" x="214.5" y="-926.8" font-family="Times,serif" font-size="14.00">g8</text>
</g>
<!-- Node0x19b25b60 -->
<g id="node10" class="node"><title>Node0x19b25b60</title>
<polygon fill="none" stroke="black" points="324.5,-814 324.5,-897 421.5,-897 421.5,-814 324.5,-814"/>
<text text-anchor="start" x="332.5" y="-881.8" font-family="Times,serif" font-size="14.00">0xa3c3ff0:</text>
<text text-anchor="start" x="332.5" y="-866.8" font-family="Times,serif" font-size="14.00"> v4 = False</text>
<text text-anchor="start" x="332.5" y="-851.8" font-family="Times,serif" font-size="14.00"> v6 = g7</text>
<text text-anchor="start" x="332.5" y="-836.8" font-family="Times,serif" font-size="14.00"> v7 = g9</text>
<text text-anchor="start" x="332.5" y="-821.8" font-family="Times,serif" font-size="14.00"> v5 = g6</text>
</g>
<!-- Node0x23994030&#45;&gt;Node0x19b25b60 -->
<g id="edge11" class="edge"><title>Node0x23994030&#45;&gt;Node0x19b25b60</title>
<path fill="none" stroke="black" d="M256.898,-956.3C274.43,-941.23 297.13,-921.717 317.801,-903.948"/>
<polygon fill="black" stroke="black" points="320.308,-906.409 325.61,-897.236 315.745,-901.101 320.308,-906.409"/>
<text text-anchor="middle" x="323.5" y="-926.8" font-family="Times,serif" font-size="14.00">not (g8)</text>
</g>
<!-- Node0x2d4bad40 -->
<g id="node11" class="node"><title>Node0x2d4bad40</title>
<polygon fill="none" stroke="black" points="204.5,-730.5 204.5,-768.5 377.5,-768.5 377.5,-730.5 204.5,-730.5"/>
<text text-anchor="start" x="212.5" y="-753.3" font-family="Times,serif" font-size="14.00">0xa3c50b0:</text>
<text text-anchor="start" x="212.5" y="-738.3" font-family="Times,serif" font-size="14.00"> if (v7 or (v5 ^ True)):</text>
</g>
<!-- Node0x19b24b60&#45;&gt;Node0x2d4bad40 -->
<g id="edge12" class="edge"><title>Node0x19b24b60&#45;&gt;Node0x2d4bad40</title>
<path fill="none" stroke="black" d="M222.667,-806.458C235.951,-795.579 249.519,-784.469 261.027,-775.045"/>
<polygon fill="black" stroke="black" points="263.489,-777.552 269.009,-768.509 259.054,-772.137 263.489,-777.552"/>
</g>
<!-- Node0x19b25b60&#45;&gt;Node0x2d4bad40 -->
<g id="edge13" class="edge"><title>Node0x19b25b60&#45;&gt;Node0x2d4bad40</title>
<path fill="none" stroke="black" d="M341.062,-813.993C331.171,-801.449 320.54,-787.966 311.63,-776.665"/>
<polygon fill="black" stroke="black" points="314.133,-774.186 305.193,-768.5 308.636,-778.52 314.133,-774.186"/>
</g>
<!-- Node0x19b26760 -->
<g id="node12" class="node"><title>Node0x19b26760</title>
<polygon fill="none" stroke="black" points="87,-640.5 87,-678.5 325,-678.5 325,-640.5 87,-640.5"/>
<text text-anchor="start" x="95" y="-663.3" font-family="Times,serif" font-size="14.00">0xa3c4e70:</text>
<text text-anchor="start" x="95" y="-648.3" font-family="Times,serif" font-size="14.00"> g43 = ((g43 &amp; &#45;65536) | 4608)</text>
</g>
<!-- Node0x2d4bad40&#45;&gt;Node0x19b26760 -->
<g id="edge14" class="edge"><title>Node0x2d4bad40&#45;&gt;Node0x19b26760</title>
<path fill="none" stroke="black" d="M245.726,-730.487C237.297,-725.507 229.204,-719.388 223,-712 217.404,-705.336 213.633,-696.771 211.098,-688.547"/>
<polygon fill="black" stroke="black" points="214.478,-687.636 208.58,-678.834 207.702,-689.393 214.478,-687.636"/>
<text text-anchor="middle" x="285" y="-700.8" font-family="Times,serif" font-size="14.00">v7 or (v5 ^ True)</text>
</g>
<!-- Node0x19b23360 -->
<g id="node13" class="node"><title>Node0x19b23360</title>
<polygon fill="none" stroke="black" points="254.5,-534.5 254.5,-602.5 377.5,-602.5 377.5,-534.5 254.5,-534.5"/>
<text text-anchor="start" x="262.5" y="-587.3" font-family="Times,serif" font-size="14.00">0xa3c5380:</text>
<text text-anchor="start" x="262.5" y="-572.3" font-family="Times,serif" font-size="14.00"> g35 = 145692</text>
<text text-anchor="start" x="262.5" y="-557.3" font-family="Times,serif" font-size="14.00"> v9</text>
<text text-anchor="start" x="262.5" y="-542.3" font-family="Times,serif" font-size="14.00"> v10</text>
</g>
<!-- Node0x2d4bad40&#45;&gt;Node0x19b23360 -->
<g id="edge15" class="edge"><title>Node0x2d4bad40&#45;&gt;Node0x19b23360</title>
<path fill="none" stroke="black" d="M330.033,-730.423C336.848,-725.448 343.019,-719.346 347,-712 363.816,-680.967 353.123,-641.473 339.896,-611.937"/>
<polygon fill="black" stroke="black" points="342.979,-610.269 335.544,-602.72 336.649,-613.257 342.979,-610.269"/>
<text text-anchor="middle" x="460.5" y="-655.8" font-family="Times,serif" font-size="14.00">not (v7) and not ((v5 ^ True))</text>
</g>
<!-- Node0x19b26760&#45;&gt;Node0x19b23360 -->
<g id="edge16" class="edge"><title>Node0x19b26760&#45;&gt;Node0x19b23360</title>
<path fill="none" stroke="black" d="M228.26,-640.49C239.491,-631.403 253.584,-620 267.17,-609.008"/>
<polygon fill="black" stroke="black" points="269.511,-611.616 275.084,-602.605 265.108,-606.174 269.511,-611.616"/>
</g>
<!-- Node0x19b23b60 -->
<g id="node14" class="node"><title>Node0x19b23b60</title>
<polygon fill="none" stroke="black" points="263,-443.5 263,-496.5 369,-496.5 369,-443.5 263,-443.5"/>
<text text-anchor="start" x="271" y="-481.3" font-family="Times,serif" font-size="14.00">0xa3c7510:</text>
<text text-anchor="start" x="271" y="-466.3" font-family="Times,serif" font-size="14.00"> if (v6 ^ v4):</text>
<text text-anchor="start" x="271" y="-451.3" font-family="Times,serif" font-size="14.00"> else:</text>
</g>
<!-- Node0x19b23360&#45;&gt;Node0x19b23b60 -->
<g id="edge17" class="edge"><title>Node0x19b23360&#45;&gt;Node0x19b23b60</title>
<path fill="none" stroke="black" d="M316,-534.29C316,-525.434 316,-515.827 316,-506.837"/>
<polygon fill="black" stroke="black" points="319.5,-506.648 316,-496.648 312.5,-506.648 319.5,-506.648"/>
</g>
<!-- Node0x19b26d60 -->
<g id="node15" class="node"><title>Node0x19b26d60</title>
<polygon fill="none" stroke="black" points="124.5,-353.5 124.5,-391.5 315.5,-391.5 315.5,-353.5 124.5,-353.5"/>
<text text-anchor="start" x="132.5" y="-376.3" font-family="Times,serif" font-size="14.00">0xa3c5ce0:</text>
<text text-anchor="start" x="132.5" y="-361.3" font-family="Times,serif" font-size="14.00"> g38 = (g37 &amp; (8 * g34))</text>
</g>
<!-- Node0x19b23b60&#45;&gt;Node0x19b26d60 -->
<g id="edge18" class="edge"><title>Node0x19b23b60&#45;&gt;Node0x19b26d60</title>
<path fill="none" stroke="black" d="M290.274,-443.408C276.403,-429.609 259.343,-412.638 245.506,-398.873"/>
<polygon fill="black" stroke="black" points="247.749,-396.167 238.191,-391.596 242.812,-401.13 247.749,-396.167"/>
<text text-anchor="middle" x="299" y="-413.8" font-family="Times,serif" font-size="14.00">v6 ^ v4</text>
</g>
<!-- Node0x19b27860 -->
<g id="node16" class="node"><title>Node0x19b27860</title>
<polygon fill="none" stroke="black" points="422.5,-277.5 422.5,-315.5 521.5,-315.5 521.5,-277.5 422.5,-277.5"/>
<text text-anchor="start" x="430.5" y="-300.3" font-family="Times,serif" font-size="14.00">0xa3c8c90:</text>
<text text-anchor="start" x="430.5" y="-285.3" font-family="Times,serif" font-size="14.00"> if v4:</text>
</g>
<!-- Node0x19b23b60&#45;&gt;Node0x19b27860 -->
<g id="edge19" class="edge"><title>Node0x19b23b60&#45;&gt;Node0x19b27860</title>
<path fill="none" stroke="black" d="M339.355,-443.325C368.66,-411.107 418.648,-356.153 448.173,-323.694"/>
<polygon fill="black" stroke="black" points="451.074,-325.707 455.214,-315.954 445.896,-320.996 451.074,-325.707"/>
<text text-anchor="middle" x="471.5" y="-368.8" font-family="Times,serif" font-size="14.00">not ((v6 ^ v4))</text>
</g>
<!-- Node0x19b27160 -->
<g id="node17" class="node"><title>Node0x19b27160</title>
<polygon fill="none" stroke="black" points="130,-277.5 130,-315.5 230,-315.5 230,-277.5 130,-277.5"/>
<text text-anchor="start" x="138" y="-300.3" font-family="Times,serif" font-size="14.00">0xa3c7390:</text>
<text text-anchor="start" x="138" y="-285.3" font-family="Times,serif" font-size="14.00"> if v4:</text>
</g>
<!-- Node0x19b26d60&#45;&gt;Node0x19b27160 -->
<g id="edge20" class="edge"><title>Node0x19b26d60&#45;&gt;Node0x19b27160</title>
<path fill="none" stroke="black" d="M210.112,-353.208C205.462,-344.605 199.822,-334.171 194.686,-324.67"/>
<polygon fill="black" stroke="black" points="197.608,-322.714 189.774,-315.582 191.45,-326.043 197.608,-322.714"/>
</g>
<!-- Node0x19b28d60 -->
<g id="node18" class="node"><title>Node0x19b28d60</title>
<polygon fill="none" stroke="black" points="335,-97.5 335,-225.5 609,-225.5 609,-97.5 335,-97.5"/>
<text text-anchor="start" x="343" y="-210.3" font-family="Times,serif" font-size="14.00">0xa3c7990:</text>
<text text-anchor="start" x="343" y="-195.3" font-family="Times,serif" font-size="14.00"> v9 = g34</text>
<text text-anchor="start" x="343" y="-180.3" font-family="Times,serif" font-size="14.00"> v10 = (v9 &#45; v3)</text>
<text text-anchor="start" x="343" y="-165.3" font-family="Times,serif" font-size="14.00"> g6 = (v9 &gt;= v3)</text>
<text text-anchor="start" x="343" y="-150.3" font-family="Times,serif" font-size="14.00"> g8 = (((v10 ^ v9) &amp; (v9 ^ v3)) &lt; 0)</text>
<text text-anchor="start" x="343" y="-135.3" font-family="Times,serif" font-size="14.00"> g7 = (v10 &lt; 0)</text>
<text text-anchor="start" x="343" y="-120.3" font-family="Times,serif" font-size="14.00"> g9 = (v9 == v3)</text>
<text text-anchor="start" x="343" y="-105.3" font-family="Times,serif" font-size="14.00"> g40 = v10</text>
</g>
<!-- Node0x19b27860&#45;&gt;Node0x19b28d60 -->
<g id="edge21" class="edge"><title>Node0x19b27860&#45;&gt;Node0x19b28d60</title>
<path fill="none" stroke="black" d="M472,-277.286C472,-266.197 472,-251.223 472,-235.756"/>
<polygon fill="black" stroke="black" points="475.5,-235.557 472,-225.557 468.5,-235.557 475.5,-235.557"/>
<text text-anchor="middle" x="481" y="-247.8" font-family="Times,serif" font-size="14.00">v4</text>
</g>
<!-- Node0x2398ccd0 -->
<g id="node19" class="node"><title>Node0x2398ccd0</title>
<polygon fill="none" stroke="black" points="266,-23.5 266,-59.5 320,-59.5 320,-23.5 266,-23.5"/>
<text text-anchor="start" x="274" y="-37.8" font-family="Times,serif" font-size="14.00">exit:</text>
</g>
<!-- Node0x19b27860&#45;&gt;Node0x2398ccd0 -->
<g id="edge22" class="edge"><title>Node0x19b27860&#45;&gt;Node0x2398ccd0</title>
<path fill="none" stroke="black" d="M521.839,-286.091C555.318,-276.901 597.015,-259.23 618,-226 648.613,-177.523 655.037,-140.765 618,-97 581.511,-53.8822 407.95,-44.8557 330.484,-42.9822"/>
<polygon fill="black" stroke="black" points="330.288,-39.4773 320.216,-42.7625 330.138,-46.4757 330.288,-39.4773"/>
</g>
<!-- Node0x19b27160&#45;&gt;Node0x2398ccd0 -->
<g id="edge24" class="edge"><title>Node0x19b27160&#45;&gt;Node0x2398ccd0</title>
<path fill="none" stroke="black" d="M129.802,-285.992C96.3844,-276.774 54.9098,-259.112 34,-226 3.38737,-177.523 -2.12648,-141.52 34,-97 61.4954,-63.1168 190.751,-49.5118 255.641,-44.7461"/>
<polygon fill="black" stroke="black" points="256.121,-48.2212 265.851,-44.0304 255.631,-41.2383 256.121,-48.2212"/>
</g>
<!-- Node0x19b27d60 -->
<g id="node20" class="node"><title>Node0x19b27d60</title>
<polygon fill="none" stroke="black" points="43,-97.5 43,-225.5 317,-225.5 317,-97.5 43,-97.5"/>
<text text-anchor="start" x="51" y="-210.3" font-family="Times,serif" font-size="14.00">0xa3c5de0:</text>
<text text-anchor="start" x="51" y="-195.3" font-family="Times,serif" font-size="14.00"> v9 = g34</text>
<text text-anchor="start" x="51" y="-180.3" font-family="Times,serif" font-size="14.00"> v10 = (v9 &#45; v3)</text>
<text text-anchor="start" x="51" y="-165.3" font-family="Times,serif" font-size="14.00"> g6 = (v9 &gt;= v3)</text>
<text text-anchor="start" x="51" y="-150.3" font-family="Times,serif" font-size="14.00"> g8 = (((v10 ^ v9) &amp; (v9 ^ v3)) &lt; 0)</text>
<text text-anchor="start" x="51" y="-135.3" font-family="Times,serif" font-size="14.00"> g7 = (v10 &lt; 0)</text>
<text text-anchor="start" x="51" y="-120.3" font-family="Times,serif" font-size="14.00"> g9 = (v9 == v3)</text>
<text text-anchor="start" x="51" y="-105.3" font-family="Times,serif" font-size="14.00"> g40 = v10</text>
</g>
<!-- Node0x19b27160&#45;&gt;Node0x19b27d60 -->
<g id="edge23" class="edge"><title>Node0x19b27160&#45;&gt;Node0x19b27d60</title>
<path fill="none" stroke="black" d="M180,-277.286C180,-266.197 180,-251.223 180,-235.756"/>
<polygon fill="black" stroke="black" points="183.5,-235.557 180,-225.557 176.5,-235.557 183.5,-235.557"/>
<text text-anchor="middle" x="189" y="-247.8" font-family="Times,serif" font-size="14.00">v4</text>
</g>
<!-- Node0x19b28d60&#45;&gt;Node0x2398ccd0 -->
<g id="edge25" class="edge"><title>Node0x19b28d60&#45;&gt;Node0x2398ccd0</title>
<path fill="none" stroke="black" d="M376.212,-97.3546C358.727,-85.8287 341.565,-74.5148 327.41,-65.184"/>
<polygon fill="black" stroke="black" points="329.286,-62.2281 319.01,-59.6464 325.433,-68.0725 329.286,-62.2281"/>
</g>
<!-- Node0x19b27d60&#45;&gt;Node0x2398ccd0 -->
<g id="edge26" class="edge"><title>Node0x19b27d60&#45;&gt;Node0x2398ccd0</title>
<path fill="none" stroke="black" d="M240.47,-97.3546C250.697,-86.6746 260.75,-76.1766 269.28,-67.2697"/>
<polygon fill="black" stroke="black" points="271.961,-69.5307 276.349,-59.8875 266.905,-64.6892 271.961,-69.5307"/>
</g>
</g>
</svg>
