<?xml version="1.0" encoding="UTF-8" standalone="no"?>
<!DOCTYPE svg PUBLIC "-//W3C//DTD SVG 1.1//EN"
 "http://www.w3.org/Graphics/SVG/1.1/DTD/svg11.dtd">
<!-- Generated by graphviz version 2.38.0 (20140413.2041)
 -->
<!-- Title: Control&#45;flow graph for function &#39;function_1640c()&#39;. Pages: 1 -->
<svg width="385pt" height="246pt"
 viewBox="0.00 0.00 385.00 246.00" xmlns="http://www.w3.org/2000/svg" xmlns:xlink="http://www.w3.org/1999/xlink">
<g id="graph0" class="graph" transform="scale(1 1) rotate(0) translate(4 242)">
<title>Control&#45;flow graph for function &#39;function_1640c()&#39;.</title>
<polygon fill="white" stroke="none" points="-4,4 -4,-242 381,-242 381,4 -4,4"/>
<text text-anchor="middle" x="188.5" y="-7.8" font-family="Times,serif" font-size="14.00">Control&#45;flow graph for function &#39;function_1640c()&#39;.</text>
<!-- Node0x15165490 -->
<g id="node1" class="node"><title>Node0x15165490</title>
<polygon fill="none" stroke="black" points="159,-201.5 159,-237.5 218,-237.5 218,-201.5 159,-201.5"/>
<text text-anchor="start" x="167" y="-215.8" font-family="Times,serif" font-size="14.00">entry:</text>
</g>
<!-- Node0x16369720 -->
<g id="node2" class="node"><title>Node0x16369720</title>
<polygon fill="none" stroke="black" points="127,-96.5 127,-164.5 250,-164.5 250,-96.5 127,-96.5"/>
<text text-anchor="start" x="135" y="-149.3" font-family="Times,serif" font-size="14.00">0x8496240:</text>
<text text-anchor="start" x="135" y="-134.3" font-family="Times,serif" font-size="14.00"> g36 = 165012</text>
<text text-anchor="start" x="135" y="-119.3" font-family="Times,serif" font-size="14.00"> g37 = 170760</text>
<text text-anchor="start" x="135" y="-104.3" font-family="Times,serif" font-size="14.00"> g29 = g22</text>
</g>
<!-- Node0x15165490&#45;&gt;Node0x16369720 -->
<g id="edge1" class="edge"><title>Node0x15165490&#45;&gt;Node0x16369720</title>
<path fill="none" stroke="black" d="M188.5,-201.312C188.5,-193.602 188.5,-184.126 188.5,-174.671"/>
<polygon fill="black" stroke="black" points="192,-174.503 188.5,-164.503 185,-174.503 192,-174.503"/>
</g>
<!-- Node0x15167590 -->
<g id="node3" class="node"><title>Node0x15167590</title>
<polygon fill="none" stroke="black" points="161.5,-23.5 161.5,-59.5 215.5,-59.5 215.5,-23.5 161.5,-23.5"/>
<text text-anchor="start" x="169.5" y="-37.8" font-family="Times,serif" font-size="14.00">exit:</text>
</g>
<!-- Node0x16369720&#45;&gt;Node0x15167590 -->
<g id="edge2" class="edge"><title>Node0x16369720&#45;&gt;Node0x15167590</title>
<path fill="none" stroke="black" d="M188.5,-96.1123C188.5,-87.3522 188.5,-78.0128 188.5,-69.6246"/>
<polygon fill="black" stroke="black" points="192,-69.6235 188.5,-59.6235 185,-69.6235 192,-69.6235"/>
</g>
</g>
</svg>
