<?xml version="1.0" encoding="UTF-8" standalone="no"?>
<!DOCTYPE svg PUBLIC "-//W3C//DTD SVG 1.1//EN"
 "http://www.w3.org/Graphics/SVG/1.1/DTD/svg11.dtd">
<!-- Generated by graphviz version 2.38.0 (20140413.2041)
 -->
<!-- Title: Control&#45;flow graph for function &#39;function_fdf0()&#39;. Pages: 1 -->
<svg width="370pt" height="246pt"
 viewBox="0.00 0.00 370.00 246.00" xmlns="http://www.w3.org/2000/svg" xmlns:xlink="http://www.w3.org/1999/xlink">
<g id="graph0" class="graph" transform="scale(1 1) rotate(0) translate(4 242)">
<title>Control&#45;flow graph for function &#39;function_fdf0()&#39;.</title>
<polygon fill="white" stroke="none" points="-4,4 -4,-242 366,-242 366,4 -4,4"/>
<text text-anchor="middle" x="181" y="-7.8" font-family="Times,serif" font-size="14.00">Control&#45;flow graph for function &#39;function_fdf0()&#39;.</text>
<!-- Node0x427a8cc0 -->
<g id="node1" class="node"><title>Node0x427a8cc0</title>
<polygon fill="none" stroke="black" points="151.5,-201.5 151.5,-237.5 210.5,-237.5 210.5,-201.5 151.5,-201.5"/>
<text text-anchor="start" x="159.5" y="-215.8" font-family="Times,serif" font-size="14.00">entry:</text>
</g>
<!-- Node0x152f6510 -->
<g id="node2" class="node"><title>Node0x152f6510</title>
<polygon fill="none" stroke="black" points="115.5,-96.5 115.5,-164.5 246.5,-164.5 246.5,-96.5 115.5,-96.5"/>
<text text-anchor="start" x="123.5" y="-149.3" font-family="Times,serif" font-size="14.00">0x7905310:</text>
<text text-anchor="start" x="123.5" y="-134.3" font-family="Times,serif" font-size="14.00"> g36 = 0</text>
<text text-anchor="start" x="123.5" y="-119.3" font-family="Times,serif" font-size="14.00"> g37 = 0</text>
<text text-anchor="start" x="123.5" y="-104.3" font-family="Times,serif" font-size="14.00"> function_fd70()</text>
</g>
<!-- Node0x427a8cc0&#45;&gt;Node0x152f6510 -->
<g id="edge1" class="edge"><title>Node0x427a8cc0&#45;&gt;Node0x152f6510</title>
<path fill="none" stroke="black" d="M181,-201.312C181,-193.602 181,-184.126 181,-174.671"/>
<polygon fill="black" stroke="black" points="184.5,-174.503 181,-164.503 177.5,-174.503 184.5,-174.503"/>
</g>
<!-- Node0x152f5b30 -->
<g id="node3" class="node"><title>Node0x152f5b30</title>
<polygon fill="none" stroke="black" points="154,-23.5 154,-59.5 208,-59.5 208,-23.5 154,-23.5"/>
<text text-anchor="start" x="162" y="-37.8" font-family="Times,serif" font-size="14.00">exit:</text>
</g>
<!-- Node0x152f6510&#45;&gt;Node0x152f5b30 -->
<g id="edge2" class="edge"><title>Node0x152f6510&#45;&gt;Node0x152f5b30</title>
<path fill="none" stroke="black" d="M181,-96.1123C181,-87.3522 181,-78.0128 181,-69.6246"/>
<polygon fill="black" stroke="black" points="184.5,-69.6235 181,-59.6235 177.5,-69.6235 184.5,-69.6235"/>
</g>
</g>
</svg>
