<?xml version="1.0" encoding="UTF-8" standalone="no"?>
<!DOCTYPE svg PUBLIC "-//W3C//DTD SVG 1.1//EN"
 "http://www.w3.org/Graphics/SVG/1.1/DTD/svg11.dtd">
<!-- Generated by graphviz version 2.38.0 (20140413.2041)
 -->
<!-- Title: Control&#45;flow graph for function &#39;function_1b3a8()&#39;. Pages: 1 -->
<svg width="1040pt" height="745pt"
 viewBox="0.00 0.00 1040.00 745.00" xmlns="http://www.w3.org/2000/svg" xmlns:xlink="http://www.w3.org/1999/xlink">
<g id="graph0" class="graph" transform="scale(1 1) rotate(0) translate(4 741)">
<title>Control&#45;flow graph for function &#39;function_1b3a8()&#39;.</title>
<polygon fill="white" stroke="none" points="-4,4 -4,-741 1036,-741 1036,4 -4,4"/>
<text text-anchor="middle" x="516" y="-7.8" font-family="Times,serif" font-size="14.00">Control&#45;flow graph for function &#39;function_1b3a8()&#39;.</text>
<!-- Node0x3e9b6580 -->
<g id="node1" class="node"><title>Node0x3e9b6580</title>
<polygon fill="none" stroke="black" points="449.5,-700.5 449.5,-736.5 508.5,-736.5 508.5,-700.5 449.5,-700.5"/>
<text text-anchor="start" x="457.5" y="-714.8" font-family="Times,serif" font-size="14.00">entry:</text>
</g>
<!-- Node0x32b39730 -->
<g id="node2" class="node"><title>Node0x32b39730</title>
<polygon fill="none" stroke="black" points="315,-489.5 315,-662.5 643,-662.5 643,-489.5 315,-489.5"/>
<text text-anchor="start" x="323" y="-647.3" font-family="Times,serif" font-size="14.00">0x18371e70:</text>
<text text-anchor="start" x="323" y="-632.3" font-family="Times,serif" font-size="14.00"> v1 = g29</text>
<text text-anchor="start" x="323" y="-617.3" font-family="Times,serif" font-size="14.00"> g36 = v1</text>
<text text-anchor="start" x="323" y="-602.3" font-family="Times,serif" font-size="14.00"> v2 = *(IntToPtrCastExpr&lt;ptr&gt;((v1 + 4)))</text>
<text text-anchor="start" x="323" y="-587.3" font-family="Times,serif" font-size="14.00"> g29 = v2</text>
<text text-anchor="start" x="323" y="-572.3" font-family="Times,serif" font-size="14.00"> v3 = IntToPtrCastExpr&lt;ptr&gt;((v1 + 8))</text>
<text text-anchor="start" x="323" y="-557.3" font-family="Times,serif" font-size="14.00"> g9 = (v2 == 0)</text>
<text text-anchor="start" x="323" y="-542.3" font-family="Times,serif" font-size="14.00"> *(v3) = (*(v3) + 1)</text>
<text text-anchor="start" x="323" y="-527.3" font-family="Times,serif" font-size="14.00"> v4 = g36</text>
<text text-anchor="start" x="323" y="-512.3" font-family="Times,serif" font-size="14.00"> v5 = *(IntToPtrCastExpr&lt;ptr&gt;((v4 + 16)))</text>
<text text-anchor="start" x="323" y="-497.3" font-family="Times,serif" font-size="14.00"> g37 = v5</text>
</g>
<!-- Node0x3e9b6580&#45;&gt;Node0x32b39730 -->
<g id="edge1" class="edge"><title>Node0x3e9b6580&#45;&gt;Node0x32b39730</title>
<path fill="none" stroke="black" d="M479,-700.272C479,-692.72 479,-683.213 479,-672.845"/>
<polygon fill="black" stroke="black" points="482.5,-672.676 479,-662.676 475.5,-672.676 482.5,-672.676"/>
</g>
<!-- Node0x3e9b85a0 -->
<g id="node3" class="node"><title>Node0x3e9b85a0</title>
<polygon fill="none" stroke="black" points="424,-398.5 424,-451.5 534,-451.5 534,-398.5 424,-398.5"/>
<text text-anchor="start" x="432" y="-436.3" font-family="Times,serif" font-size="14.00">0x931fa80:</text>
<text text-anchor="start" x="432" y="-421.3" font-family="Times,serif" font-size="14.00"> if (v2 == 0):</text>
<text text-anchor="start" x="432" y="-406.3" font-family="Times,serif" font-size="14.00"> else:</text>
</g>
<!-- Node0x32b39730&#45;&gt;Node0x3e9b85a0 -->
<g id="edge2" class="edge"><title>Node0x32b39730&#45;&gt;Node0x3e9b85a0</title>
<path fill="none" stroke="black" d="M479,-489.189C479,-479.546 479,-470.162 479,-461.704"/>
<polygon fill="black" stroke="black" points="482.5,-461.535 479,-451.535 475.5,-461.535 482.5,-461.535"/>
</g>
<!-- Node0x2ba7e6a0 -->
<g id="node4" class="node"><title>Node0x2ba7e6a0</title>
<polygon fill="none" stroke="black" points="0,-263.5 0,-346.5 434,-346.5 434,-263.5 0,-263.5"/>
<text text-anchor="start" x="8" y="-331.3" font-family="Times,serif" font-size="14.00">0x931ec20:</text>
<text text-anchor="start" x="8" y="-316.3" font-family="Times,serif" font-size="14.00"> g29 = v5</text>
<text text-anchor="start" x="8" y="-301.3" font-family="Times,serif" font-size="14.00"> g30 = 16</text>
<text text-anchor="start" x="8" y="-286.3" font-family="Times,serif" font-size="14.00"> g35 = 111592</text>
<text text-anchor="start" x="8" y="-271.3" font-family="Times,serif" font-size="14.00"> IntToPtrCastExpr&lt;ptr&gt;(*(IntToPtrCastExpr&lt;ptr&gt;(v5)))()</text>
</g>
<!-- Node0x3e9b85a0&#45;&gt;Node0x2ba7e6a0 -->
<g id="edge3" class="edge"><title>Node0x3e9b85a0&#45;&gt;Node0x2ba7e6a0</title>
<path fill="none" stroke="black" d="M423.757,-399.119C392.547,-385.063 352.596,-367.07 316.148,-350.654"/>
<polygon fill="black" stroke="black" points="317.519,-347.433 306.964,-346.518 314.645,-353.816 317.519,-347.433"/>
<text text-anchor="middle" x="410" y="-368.8" font-family="Times,serif" font-size="14.00">v2 == 0</text>
</g>
<!-- Node0x3e9af4b0 -->
<g id="node5" class="node"><title>Node0x3e9af4b0</title>
<polygon fill="none" stroke="black" points="452,-286 452,-324 1032,-324 1032,-286 452,-286"/>
<text text-anchor="start" x="460" y="-308.8" font-family="Times,serif" font-size="14.00">0x9320900:</text>
<text text-anchor="start" x="460" y="-293.8" font-family="Times,serif" font-size="14.00"> *(IntToPtrCastExpr&lt;ptr&gt;((v4 + 4))) = *(IntToPtrCastExpr&lt;ptr&gt;((g29 + 12)))</text>
</g>
<!-- Node0x3e9b85a0&#45;&gt;Node0x3e9af4b0 -->
<g id="edge4" class="edge"><title>Node0x3e9b85a0&#45;&gt;Node0x3e9af4b0</title>
<path fill="none" stroke="black" d="M534.133,-399.263C580.82,-378.316 647.16,-348.552 692.248,-328.322"/>
<polygon fill="black" stroke="black" points="693.841,-331.444 701.532,-324.157 690.975,-325.057 693.841,-331.444"/>
<text text-anchor="middle" x="637" y="-368.8" font-family="Times,serif" font-size="14.00">v2 != 0</text>
</g>
<!-- Node0x3e9b0c80 -->
<g id="node6" class="node"><title>Node0x3e9b0c80</title>
<polygon fill="none" stroke="black" points="373,-97.5 373,-225.5 711,-225.5 711,-97.5 373,-97.5"/>
<text text-anchor="start" x="381" y="-210.3" font-family="Times,serif" font-size="14.00">0x9320e00:</text>
<text text-anchor="start" x="381" y="-195.3" font-family="Times,serif" font-size="14.00"> g37 = 0</text>
<text text-anchor="start" x="381" y="-180.3" font-family="Times,serif" font-size="14.00"> *(IntToPtrCastExpr&lt;ptr&gt;((g29 + 12))) = 0</text>
<text text-anchor="start" x="381" y="-165.3" font-family="Times,serif" font-size="14.00"> *(IntToPtrCastExpr&lt;ptr&gt;((g29 + 4))) = g37</text>
<text text-anchor="start" x="381" y="-150.3" font-family="Times,serif" font-size="14.00"> *(IntToPtrCastExpr&lt;ptr&gt;((g29 + 8))) = g37</text>
<text text-anchor="start" x="381" y="-135.3" font-family="Times,serif" font-size="14.00"> v6</text>
<text text-anchor="start" x="381" y="-120.3" font-family="Times,serif" font-size="14.00"> g34 = v6</text>
<text text-anchor="start" x="381" y="-105.3" font-family="Times,serif" font-size="14.00"> IntToPtrCastExpr&lt;ptr&gt;(g35)()</text>
</g>
<!-- Node0x2ba7e6a0&#45;&gt;Node0x3e9b0c80 -->
<g id="edge5" class="edge"><title>Node0x2ba7e6a0&#45;&gt;Node0x3e9b0c80</title>
<path fill="none" stroke="black" d="M310.132,-263.452C334.377,-252.896 361.159,-241.235 387.652,-229.701"/>
<polygon fill="black" stroke="black" points="389.234,-232.829 397.005,-225.628 386.44,-226.411 389.234,-232.829"/>
</g>
<!-- Node0x3e9af4b0&#45;&gt;Node0x3e9b0c80 -->
<g id="edge6" class="edge"><title>Node0x3e9af4b0&#45;&gt;Node0x3e9b0c80</title>
<path fill="none" stroke="black" d="M716.263,-285.791C696.578,-271.864 668.098,-251.715 639.847,-231.727"/>
<polygon fill="black" stroke="black" points="641.682,-228.737 631.497,-225.819 637.639,-234.452 641.682,-228.737"/>
</g>
<!-- Node0x32b3a7b0 -->
<g id="node7" class="node"><title>Node0x32b3a7b0</title>
<polygon fill="none" stroke="black" points="515,-23.5 515,-59.5 569,-59.5 569,-23.5 515,-23.5"/>
<text text-anchor="start" x="523" y="-37.8" font-family="Times,serif" font-size="14.00">exit:</text>
</g>
<!-- Node0x3e9b0c80&#45;&gt;Node0x32b3a7b0 -->
<g id="edge7" class="edge"><title>Node0x3e9b0c80&#45;&gt;Node0x32b3a7b0</title>
<path fill="none" stroke="black" d="M542,-97.3546C542,-87.7534 542,-78.2993 542,-70.016"/>
<polygon fill="black" stroke="black" points="545.5,-69.8875 542,-59.8875 538.5,-69.8876 545.5,-69.8875"/>
</g>
</g>
</svg>
