<?xml version="1.0" encoding="UTF-8" standalone="no"?>
<!DOCTYPE svg PUBLIC "-//W3C//DTD SVG 1.1//EN"
 "http://www.w3.org/Graphics/SVG/1.1/DTD/svg11.dtd">
<!-- Generated by graphviz version 2.38.0 (20140413.2041)
 -->
<!-- Title: Control&#45;flow graph for function &#39;function_20ba4()&#39;. Pages: 1 -->
<svg width="385pt" height="516pt"
 viewBox="0.00 0.00 385.00 516.00" xmlns="http://www.w3.org/2000/svg" xmlns:xlink="http://www.w3.org/1999/xlink">
<g id="graph0" class="graph" transform="scale(1 1) rotate(0) translate(4 512)">
<title>Control&#45;flow graph for function &#39;function_20ba4()&#39;.</title>
<polygon fill="white" stroke="none" points="-4,4 -4,-512 381,-512 381,4 -4,4"/>
<text text-anchor="middle" x="188.5" y="-7.8" font-family="Times,serif" font-size="14.00">Control&#45;flow graph for function &#39;function_20ba4()&#39;.</text>
<!-- Node0x3e8dcb00 -->
<g id="node1" class="node"><title>Node0x3e8dcb00</title>
<polygon fill="none" stroke="black" points="159,-471.5 159,-507.5 218,-507.5 218,-471.5 159,-471.5"/>
<text text-anchor="start" x="167" y="-485.8" font-family="Times,serif" font-size="14.00">entry:</text>
</g>
<!-- Node0x1e6fcd10 -->
<g id="node2" class="node"><title>Node0x1e6fcd10</title>
<polygon fill="none" stroke="black" points="29,-96.5 29,-434.5 348,-434.5 348,-96.5 29,-96.5"/>
<text text-anchor="start" x="37" y="-419.3" font-family="Times,serif" font-size="14.00">0x242aaa90:</text>
<text text-anchor="start" x="37" y="-404.3" font-family="Times,serif" font-size="14.00"> v1 = g38</text>
<text text-anchor="start" x="37" y="-389.3" font-family="Times,serif" font-size="14.00"> v2 = g39</text>
<text text-anchor="start" x="37" y="-374.3" font-family="Times,serif" font-size="14.00"> v3 = g30</text>
<text text-anchor="start" x="37" y="-359.3" font-family="Times,serif" font-size="14.00"> v4 = *(IntToPtrCastExpr&lt;ptr&gt;((v3 + 4)))</text>
<text text-anchor="start" x="37" y="-344.3" font-family="Times,serif" font-size="14.00"> g37 = v4</text>
<text text-anchor="start" x="37" y="-329.3" font-family="Times,serif" font-size="14.00"> g38 = v3</text>
<text text-anchor="start" x="37" y="-314.3" font-family="Times,serif" font-size="14.00"> g39 = g29</text>
<text text-anchor="start" x="37" y="-299.3" font-family="Times,serif" font-size="14.00"> g29 = (v4 &amp; &#45;4)</text>
<text text-anchor="start" x="37" y="-284.3" font-family="Times,serif" font-size="14.00"> function_20a58()</text>
<text text-anchor="start" x="37" y="-269.3" font-family="Times,serif" font-size="14.00"> g29 = g39</text>
<text text-anchor="start" x="37" y="-254.3" font-family="Times,serif" font-size="14.00"> g30 = g38</text>
<text text-anchor="start" x="37" y="-239.3" font-family="Times,serif" font-size="14.00"> v5</text>
<text text-anchor="start" x="37" y="-224.3" font-family="Times,serif" font-size="14.00"> g36 = v5</text>
<text text-anchor="start" x="37" y="-209.3" font-family="Times,serif" font-size="14.00"> v6</text>
<text text-anchor="start" x="37" y="-194.3" font-family="Times,serif" font-size="14.00"> g37 = v6</text>
<text text-anchor="start" x="37" y="-179.3" font-family="Times,serif" font-size="14.00"> function_2093c()</text>
<text text-anchor="start" x="37" y="-164.3" font-family="Times,serif" font-size="14.00"> g38 = v1</text>
<text text-anchor="start" x="37" y="-149.3" font-family="Times,serif" font-size="14.00"> g39 = v2</text>
<text text-anchor="start" x="37" y="-134.3" font-family="Times,serif" font-size="14.00"> v7</text>
<text text-anchor="start" x="37" y="-119.3" font-family="Times,serif" font-size="14.00"> g34 = v7</text>
<text text-anchor="start" x="37" y="-104.3" font-family="Times,serif" font-size="14.00"> IntToPtrCastExpr&lt;ptr&gt;(g35)()</text>
</g>
<!-- Node0x3e8dcb00&#45;&gt;Node0x1e6fcd10 -->
<g id="edge1" class="edge"><title>Node0x3e8dcb00&#45;&gt;Node0x1e6fcd10</title>
<path fill="none" stroke="black" d="M188.5,-471.449C188.5,-464.293 188.5,-455.224 188.5,-444.904"/>
<polygon fill="black" stroke="black" points="192,-444.648 188.5,-434.648 185,-444.648 192,-444.648"/>
</g>
<!-- Node0x40d78f00 -->
<g id="node3" class="node"><title>Node0x40d78f00</title>
<polygon fill="none" stroke="black" points="161.5,-23.5 161.5,-59.5 215.5,-59.5 215.5,-23.5 161.5,-23.5"/>
<text text-anchor="start" x="169.5" y="-37.8" font-family="Times,serif" font-size="14.00">exit:</text>
</g>
<!-- Node0x1e6fcd10&#45;&gt;Node0x40d78f00 -->
<g id="edge2" class="edge"><title>Node0x1e6fcd10&#45;&gt;Node0x40d78f00</title>
<path fill="none" stroke="black" d="M188.5,-96.24C188.5,-86.3752 188.5,-77.3412 188.5,-69.6101"/>
<polygon fill="black" stroke="black" points="192,-69.5972 188.5,-59.5972 185,-69.5973 192,-69.5972"/>
</g>
</g>
</svg>
