<?xml version="1.0" encoding="UTF-8" standalone="no"?>
<!DOCTYPE svg PUBLIC "-//W3C//DTD SVG 1.1//EN"
 "http://www.w3.org/Graphics/SVG/1.1/DTD/svg11.dtd">
<!-- Generated by graphviz version 2.38.0 (20140413.2041)
 -->
<!-- Title: Control&#45;flow graph for function &#39;function_f458()&#39;. Pages: 1 -->
<svg width="800pt" height="1129pt"
 viewBox="0.00 0.00 799.50 1129.00" xmlns="http://www.w3.org/2000/svg" xmlns:xlink="http://www.w3.org/1999/xlink">
<g id="graph0" class="graph" transform="scale(1 1) rotate(0) translate(4 1125)">
<title>Control&#45;flow graph for function &#39;function_f458()&#39;.</title>
<polygon fill="white" stroke="none" points="-4,4 -4,-1125 795.5,-1125 795.5,4 -4,4"/>
<text text-anchor="middle" x="395.75" y="-7.8" font-family="Times,serif" font-size="14.00">Control&#45;flow graph for function &#39;function_f458()&#39;.</text>
<!-- Node0x3ef561e0 -->
<g id="node1" class="node"><title>Node0x3ef561e0</title>
<polygon fill="none" stroke="black" points="305.5,-1084.5 305.5,-1120.5 364.5,-1120.5 364.5,-1084.5 305.5,-1084.5"/>
<text text-anchor="start" x="313.5" y="-1098.8" font-family="Times,serif" font-size="14.00">entry:</text>
</g>
<!-- Node0x3ef54bb0 -->
<g id="node2" class="node"><title>Node0x3ef54bb0</title>
<polygon fill="none" stroke="black" points="175.5,-888.5 175.5,-1046.5 494.5,-1046.5 494.5,-888.5 175.5,-888.5"/>
<text text-anchor="start" x="183.5" y="-1031.3" font-family="Times,serif" font-size="14.00">0x40c8fe20:</text>
<text text-anchor="start" x="183.5" y="-1016.3" font-family="Times,serif" font-size="14.00"> v1 = g38</text>
<text text-anchor="start" x="183.5" y="-1001.3" font-family="Times,serif" font-size="14.00"> v2 = g32</text>
<text text-anchor="start" x="183.5" y="-986.3" font-family="Times,serif" font-size="14.00"> v3 = g35</text>
<text text-anchor="start" x="183.5" y="-971.3" font-family="Times,serif" font-size="14.00"> v4 = g29</text>
<text text-anchor="start" x="183.5" y="-956.3" font-family="Times,serif" font-size="14.00"> g38 = v4</text>
<text text-anchor="start" x="183.5" y="-941.3" font-family="Times,serif" font-size="14.00"> v5 = *(IntToPtrCastExpr&lt;ptr&gt;((v4 + 8)))</text>
<text text-anchor="start" x="183.5" y="-926.3" font-family="Times,serif" font-size="14.00"> g29 = v5</text>
<text text-anchor="start" x="183.5" y="-911.3" font-family="Times,serif" font-size="14.00"> g9 = (v5 == 0)</text>
<text text-anchor="start" x="183.5" y="-896.3" font-family="Times,serif" font-size="14.00"> v6</text>
</g>
<!-- Node0x3ef561e0&#45;&gt;Node0x3ef54bb0 -->
<g id="edge1" class="edge"><title>Node0x3ef561e0&#45;&gt;Node0x3ef54bb0</title>
<path fill="none" stroke="black" d="M335,-1084.38C335,-1076.78 335,-1067.21 335,-1056.83"/>
<polygon fill="black" stroke="black" points="338.5,-1056.68 335,-1046.68 331.5,-1056.68 338.5,-1056.68"/>
</g>
<!-- Node0x3ef56b70 -->
<g id="node3" class="node"><title>Node0x3ef56b70</title>
<polygon fill="none" stroke="black" points="280,-812.5 280,-850.5 390,-850.5 390,-812.5 280,-812.5"/>
<text text-anchor="start" x="288" y="-835.3" font-family="Times,serif" font-size="14.00">0x77f8c30:</text>
<text text-anchor="start" x="288" y="-820.3" font-family="Times,serif" font-size="14.00"> if (v5 == 0):</text>
</g>
<!-- Node0x3ef54bb0&#45;&gt;Node0x3ef56b70 -->
<g id="edge2" class="edge"><title>Node0x3ef54bb0&#45;&gt;Node0x3ef56b70</title>
<path fill="none" stroke="black" d="M335,-888.164C335,-878.447 335,-869.058 335,-860.846"/>
<polygon fill="black" stroke="black" points="338.5,-860.801 335,-850.801 331.5,-860.801 338.5,-860.801"/>
</g>
<!-- Node0x3ef565f0 -->
<g id="node4" class="node"><title>Node0x3ef565f0</title>
<polygon fill="none" stroke="black" points="0,-545.5 0,-673.5 484,-673.5 484,-545.5 0,-545.5"/>
<text text-anchor="start" x="8" y="-658.3" font-family="Times,serif" font-size="14.00">0x77f68e0:</text>
<text text-anchor="start" x="8" y="-643.3" font-family="Times,serif" font-size="14.00"> g29 = &#45;1</text>
<text text-anchor="start" x="8" y="-628.3" font-family="Times,serif" font-size="14.00"> v6 = g34</text>
<text text-anchor="start" x="8" y="-613.3" font-family="Times,serif" font-size="14.00"> g38 = *(IntToPtrCastExpr&lt;ptr&gt;((v6 + 4)))</text>
<text text-anchor="start" x="8" y="-598.3" font-family="Times,serif" font-size="14.00"> g32 = *(IntToPtrCastExpr&lt;ptr&gt;((v6 + 8)))</text>
<text text-anchor="start" x="8" y="-583.3" font-family="Times,serif" font-size="14.00"> g34 = *(IntToPtrCastExpr&lt;ptr&gt;((v6 + 12)))</text>
<text text-anchor="start" x="8" y="-568.3" font-family="Times,serif" font-size="14.00"> IntToPtrCastExpr&lt;ptr&gt;(*(IntToPtrCastExpr&lt;ptr&gt;((v6 + 16))))()</text>
<text text-anchor="start" x="8" y="-553.3" font-family="Times,serif" font-size="14.00"> return</text>
</g>
<!-- Node0x3ef56b70&#45;&gt;Node0x3ef565f0 -->
<g id="edge3" class="edge"><title>Node0x3ef56b70&#45;&gt;Node0x3ef565f0</title>
<path fill="none" stroke="black" d="M307.536,-812.25C291.198,-799.83 271.641,-781.887 261,-761 249.022,-737.487 243.509,-709.324 241.236,-683.753"/>
<polygon fill="black" stroke="black" points="244.723,-683.439 240.495,-673.724 237.742,-683.955 244.723,-683.439"/>
<text text-anchor="middle" x="317" y="-782.8" font-family="Times,serif" font-size="14.00">v5 == 0</text>
</g>
<!-- Node0x3ef56e70 -->
<g id="node5" class="node"><title>Node0x3ef56e70</title>
<polygon fill="none" stroke="black" points="270.5,-692.5 270.5,-760.5 791.5,-760.5 791.5,-692.5 270.5,-692.5"/>
<text text-anchor="start" x="278.5" y="-745.3" font-family="Times,serif" font-size="14.00">0x1fcb3050:</text>
<text text-anchor="start" x="278.5" y="-730.3" font-family="Times,serif" font-size="14.00"> v7 = *(IntToPtrCastExpr&lt;ptr&gt;((*(IntToPtrCastExpr&lt;ptr&gt;(v5)) + 8)))</text>
<text text-anchor="start" x="278.5" y="-715.3" font-family="Times,serif" font-size="14.00"> g37 = v7</text>
<text text-anchor="start" x="278.5" y="-700.3" font-family="Times,serif" font-size="14.00"> g9 = (v7 == 0)</text>
</g>
<!-- Node0x3ef56b70&#45;&gt;Node0x3ef56e70 -->
<g id="edge4" class="edge"><title>Node0x3ef56b70&#45;&gt;Node0x3ef56e70</title>
<path fill="none" stroke="black" d="M369.59,-812.323C394.296,-799.34 428.424,-781.405 458.938,-765.369"/>
<polygon fill="black" stroke="black" points="460.632,-768.433 467.856,-760.683 457.376,-762.237 460.632,-768.433"/>
<text text-anchor="middle" x="460" y="-782.8" font-family="Times,serif" font-size="14.00">v5 != 0</text>
</g>
<!-- Node0x3fb53ce0 -->
<g id="node6" class="node"><title>Node0x3fb53ce0</title>
<polygon fill="none" stroke="black" points="288,-23.5 288,-59.5 342,-59.5 342,-23.5 288,-23.5"/>
<text text-anchor="start" x="296" y="-37.8" font-family="Times,serif" font-size="14.00">exit:</text>
</g>
<!-- Node0x3ef565f0&#45;&gt;Node0x3fb53ce0 -->
<g id="edge5" class="edge"><title>Node0x3ef565f0&#45;&gt;Node0x3fb53ce0</title>
<path fill="none" stroke="black" d="M242,-545.335C242,-519.908 242,-490.31 242,-463.5 242,-463.5 242,-463.5 242,-153 242,-126.718 247.174,-119.352 261,-97 267.843,-85.9376 277.323,-75.3844 286.432,-66.5616"/>
<polygon fill="black" stroke="black" points="288.994,-68.9586 293.931,-59.5843 284.226,-63.8338 288.994,-68.9586"/>
</g>
<!-- Node0x3ef55d00 -->
<g id="node7" class="node"><title>Node0x3ef55d00</title>
<polygon fill="none" stroke="black" points="479,-488.5 479,-526.5 583,-526.5 583,-488.5 479,-488.5"/>
<text text-anchor="start" x="487" y="-511.3" font-family="Times,serif" font-size="14.00">0x77fbbf0:</text>
<text text-anchor="start" x="487" y="-496.3" font-family="Times,serif" font-size="14.00"> if (v7 != 0):</text>
</g>
<!-- Node0x3ef56e70&#45;&gt;Node0x3ef55d00 -->
<g id="edge6" class="edge"><title>Node0x3ef56e70&#45;&gt;Node0x3ef55d00</title>
<path fill="none" stroke="black" d="M531,-692.069C531,-649.488 531,-576.652 531,-536.726"/>
<polygon fill="black" stroke="black" points="534.5,-536.623 531,-526.623 527.5,-536.623 534.5,-536.623"/>
</g>
<!-- Node0x3ef57cb0 -->
<g id="node8" class="node"><title>Node0x3ef57cb0</title>
<polygon fill="none" stroke="black" points="291,-248.5 291,-436.5 647,-436.5 647,-248.5 291,-248.5"/>
<text text-anchor="start" x="299" y="-421.3" font-family="Times,serif" font-size="14.00">0x77fa2b0:</text>
<text text-anchor="start" x="299" y="-406.3" font-family="Times,serif" font-size="14.00"> g30 = *(IntToPtrCastExpr&lt;ptr&gt;((v4 + 2340)))</text>
<text text-anchor="start" x="299" y="-391.3" font-family="Times,serif" font-size="14.00"> g35 = 62608</text>
<text text-anchor="start" x="299" y="-376.3" font-family="Times,serif" font-size="14.00"> IntToPtrCastExpr&lt;ptr&gt;(v7)()</text>
<text text-anchor="start" x="299" y="-361.3" font-family="Times,serif" font-size="14.00"> g37 = 10</text>
<text text-anchor="start" x="299" y="-346.3" font-family="Times,serif" font-size="14.00"> g29 = 0</text>
<text text-anchor="start" x="299" y="-331.3" font-family="Times,serif" font-size="14.00"> *(IntToPtrCastExpr&lt;ptr&gt;((g38 + 2340))) = 10</text>
<text text-anchor="start" x="299" y="-316.3" font-family="Times,serif" font-size="14.00"> g38 = v1</text>
<text text-anchor="start" x="299" y="-301.3" font-family="Times,serif" font-size="14.00"> g32 = v2</text>
<text text-anchor="start" x="299" y="-286.3" font-family="Times,serif" font-size="14.00"> v8</text>
<text text-anchor="start" x="299" y="-271.3" font-family="Times,serif" font-size="14.00"> g34 = v8</text>
<text text-anchor="start" x="299" y="-256.3" font-family="Times,serif" font-size="14.00"> IntToPtrCastExpr&lt;ptr&gt;(v3)()</text>
</g>
<!-- Node0x3ef55d00&#45;&gt;Node0x3ef57cb0 -->
<g id="edge7" class="edge"><title>Node0x3ef55d00&#45;&gt;Node0x3ef57cb0</title>
<path fill="none" stroke="black" d="M524.128,-488.433C519.964,-477.486 514.28,-462.541 508.136,-446.391"/>
<polygon fill="black" stroke="black" points="511.301,-444.866 504.475,-436.764 504.758,-447.355 511.301,-444.866"/>
<text text-anchor="middle" x="544" y="-458.8" font-family="Times,serif" font-size="14.00">v7 != 0</text>
</g>
<!-- Node0x3ef55130 -->
<g id="node9" class="node"><title>Node0x3ef55130</title>
<polygon fill="none" stroke="black" points="270,-97.5 270,-210.5 754,-210.5 754,-97.5 270,-97.5"/>
<text text-anchor="start" x="278" y="-195.3" font-family="Times,serif" font-size="14.00">0x77fbd70:</text>
<text text-anchor="start" x="278" y="-180.3" font-family="Times,serif" font-size="14.00"> g29 = &#45;1</text>
<text text-anchor="start" x="278" y="-165.3" font-family="Times,serif" font-size="14.00"> v6 = g34</text>
<text text-anchor="start" x="278" y="-150.3" font-family="Times,serif" font-size="14.00"> g38 = *(IntToPtrCastExpr&lt;ptr&gt;((v6 + 4)))</text>
<text text-anchor="start" x="278" y="-135.3" font-family="Times,serif" font-size="14.00"> g32 = *(IntToPtrCastExpr&lt;ptr&gt;((v6 + 8)))</text>
<text text-anchor="start" x="278" y="-120.3" font-family="Times,serif" font-size="14.00"> g34 = *(IntToPtrCastExpr&lt;ptr&gt;((v6 + 12)))</text>
<text text-anchor="start" x="278" y="-105.3" font-family="Times,serif" font-size="14.00"> IntToPtrCastExpr&lt;ptr&gt;(*(IntToPtrCastExpr&lt;ptr&gt;((v6 + 16))))()</text>
</g>
<!-- Node0x3ef55d00&#45;&gt;Node0x3ef55130 -->
<g id="edge8" class="edge"><title>Node0x3ef55d00&#45;&gt;Node0x3ef55130</title>
<path fill="none" stroke="black" d="M583.015,-491.672C609.852,-481.088 640.202,-463.86 656,-437 698.586,-364.596 696.174,-321.77 656,-248 649.818,-236.649 641.59,-226.473 632.187,-217.4"/>
<polygon fill="black" stroke="black" points="634.538,-214.807 624.782,-210.675 629.832,-219.989 634.538,-214.807"/>
<text text-anchor="middle" x="717" y="-338.8" font-family="Times,serif" font-size="14.00">v7 == 0</text>
</g>
<!-- Node0x3ef57cb0&#45;&gt;Node0x3ef55130 -->
<g id="edge9" class="edge"><title>Node0x3ef57cb0&#45;&gt;Node0x3ef55130</title>
<path fill="none" stroke="black" d="M490.5,-248.25C492.651,-238.921 494.802,-229.592 496.867,-220.636"/>
<polygon fill="black" stroke="black" points="500.321,-221.234 499.157,-210.704 493.5,-219.662 500.321,-221.234"/>
</g>
<!-- Node0x3ef55130&#45;&gt;Node0x3fb53ce0 -->
<g id="edge10" class="edge"><title>Node0x3ef55130&#45;&gt;Node0x3fb53ce0</title>
<path fill="none" stroke="black" d="M412.923,-97.4263C390.73,-84.9779 368.576,-72.5515 350.968,-62.6748"/>
<polygon fill="black" stroke="black" points="352.632,-59.5953 342.198,-57.7558 349.208,-65.7005 352.632,-59.5953"/>
</g>
</g>
</svg>
