<?xml version="1.0" encoding="UTF-8" standalone="no"?>
<!DOCTYPE svg PUBLIC "-//W3C//DTD SVG 1.1//EN"
 "http://www.w3.org/Graphics/SVG/1.1/DTD/svg11.dtd">
<!-- Generated by graphviz version 2.38.0 (20140413.2041)
 -->
<!-- Title: Control&#45;flow graph for function &#39;function_23fc2()&#39;. Pages: 1 -->
<svg width="892pt" height="1438pt"
 viewBox="0.00 0.00 891.50 1438.00" xmlns="http://www.w3.org/2000/svg" xmlns:xlink="http://www.w3.org/1999/xlink">
<g id="graph0" class="graph" transform="scale(1 1) rotate(0) translate(4 1434)">
<title>Control&#45;flow graph for function &#39;function_23fc2()&#39;.</title>
<polygon fill="white" stroke="none" points="-4,4 -4,-1434 887.5,-1434 887.5,4 -4,4"/>
<text text-anchor="middle" x="441.75" y="-7.8" font-family="Times,serif" font-size="14.00">Control&#45;flow graph for function &#39;function_23fc2()&#39;.</text>
<!-- Node0x3c6e1f10 -->
<g id="node1" class="node"><title>Node0x3c6e1f10</title>
<polygon fill="none" stroke="black" points="202,-1393.5 202,-1429.5 261,-1429.5 261,-1393.5 202,-1393.5"/>
<text text-anchor="start" x="210" y="-1407.8" font-family="Times,serif" font-size="14.00">entry:</text>
</g>
<!-- Node0x3c6e1340 -->
<g id="node2" class="node"><title>Node0x3c6e1340</title>
<polygon fill="none" stroke="black" points="88,-1167.5 88,-1355.5 375,-1355.5 375,-1167.5 88,-1167.5"/>
<text text-anchor="start" x="96" y="-1340.3" font-family="Times,serif" font-size="14.00">0x2de08b10:</text>
<text text-anchor="start" x="96" y="-1325.3" font-family="Times,serif" font-size="14.00"> v1 = g41</text>
<text text-anchor="start" x="96" y="-1310.3" font-family="Times,serif" font-size="14.00"> v2 = ((g30 &#45; g38) / v1)</text>
<text text-anchor="start" x="96" y="-1295.3" font-family="Times,serif" font-size="14.00"> g40 = v2</text>
<text text-anchor="start" x="96" y="-1280.3" font-family="Times,serif" font-size="14.00"> g30 = v1</text>
<text text-anchor="start" x="96" y="-1265.3" font-family="Times,serif" font-size="14.00"> g31 = (g43 * v2)</text>
<text text-anchor="start" x="96" y="-1250.3" font-family="Times,serif" font-size="14.00"> unknown_228ca()</text>
<text text-anchor="start" x="96" y="-1235.3" font-family="Times,serif" font-size="14.00"> v3 = ((g32 % 65536) | (65536 * g30))</text>
<text text-anchor="start" x="96" y="-1220.3" font-family="Times,serif" font-size="14.00"> v4 = g31</text>
<text text-anchor="start" x="96" y="-1205.3" font-family="Times,serif" font-size="14.00"> v5 = (v4 + 1)</text>
<text text-anchor="start" x="96" y="-1190.3" font-family="Times,serif" font-size="14.00"> v6</text>
<text text-anchor="start" x="96" y="-1175.3" font-family="Times,serif" font-size="14.00"> v7</text>
</g>
<!-- Node0x3c6e1f10&#45;&gt;Node0x3c6e1340 -->
<g id="edge1" class="edge"><title>Node0x3c6e1f10&#45;&gt;Node0x3c6e1340</title>
<path fill="none" stroke="black" d="M231.5,-1393.23C231.5,-1385.72 231.5,-1376.26 231.5,-1365.88"/>
<polygon fill="black" stroke="black" points="235,-1365.67 231.5,-1355.67 228,-1365.67 235,-1365.67"/>
</g>
<!-- Node0x3c6e1570 -->
<g id="node3" class="node"><title>Node0x3c6e1570</title>
<polygon fill="none" stroke="black" points="40,-1091.5 40,-1129.5 423,-1129.5 423,-1091.5 40,-1091.5"/>
<text text-anchor="start" x="48" y="-1114.3" font-family="Times,serif" font-size="14.00">0xa4de270:</text>
<text text-anchor="start" x="48" y="-1099.3" font-family="Times,serif" font-size="14.00"> if (((v5 + (&#45;1 &#45; v3)) == 0) or (((&#45;2 &#45; v3) + v4) &gt; v4)):</text>
</g>
<!-- Node0x3c6e1340&#45;&gt;Node0x3c6e1570 -->
<g id="edge2" class="edge"><title>Node0x3c6e1340&#45;&gt;Node0x3c6e1570</title>
<path fill="none" stroke="black" d="M231.5,-1167.41C231.5,-1157.43 231.5,-1147.92 231.5,-1139.67"/>
<polygon fill="black" stroke="black" points="235,-1139.62 231.5,-1129.62 228,-1139.62 235,-1139.62"/>
</g>
<!-- Node0x3c6e4a10 -->
<g id="node4" class="node"><title>Node0x3c6e4a10</title>
<polygon fill="none" stroke="black" points="0,-779.5 0,-937.5 209,-937.5 209,-779.5 0,-779.5"/>
<text text-anchor="start" x="8" y="-922.3" font-family="Times,serif" font-size="14.00">0xa4e6e80:</text>
<text text-anchor="start" x="8" y="-907.3" font-family="Times,serif" font-size="14.00"> g8 = False</text>
<text text-anchor="start" x="8" y="-892.3" font-family="Times,serif" font-size="14.00"> g6 = False</text>
<text text-anchor="start" x="8" y="-877.3" font-family="Times,serif" font-size="14.00"> v7 = ((65536 * g42) | g40)</text>
<text text-anchor="start" x="8" y="-862.3" font-family="Times,serif" font-size="14.00"> g29 = v7</text>
<text text-anchor="start" x="8" y="-847.3" font-family="Times,serif" font-size="14.00"> g7 = (v7 &lt; 0)</text>
<text text-anchor="start" x="8" y="-832.3" font-family="Times,serif" font-size="14.00"> g9 = (v7 == 0)</text>
<text text-anchor="start" x="8" y="-817.3" font-family="Times,serif" font-size="14.00"> g37 = v6</text>
<text text-anchor="start" x="8" y="-802.3" font-family="Times,serif" font-size="14.00"> function_23f36()</text>
<text text-anchor="start" x="8" y="-787.3" font-family="Times,serif" font-size="14.00"> return</text>
</g>
<!-- Node0x3c6e1570&#45;&gt;Node0x3c6e4a10 -->
<g id="edge3" class="edge"><title>Node0x3c6e1570&#45;&gt;Node0x3c6e4a10</title>
<path fill="none" stroke="black" d="M87.212,-1091.4C70.2108,-1086.6 56.6926,-1080.57 50.5,-1073 21.5662,-1037.65 31.4041,-988.789 50.1248,-946.73"/>
<polygon fill="black" stroke="black" points="53.3323,-948.133 54.3774,-937.59 46.9856,-945.18 53.3323,-948.133"/>
<text text-anchor="middle" x="217" y="-1061.8" font-family="Times,serif" font-size="14.00">((v5 + (&#45;1 &#45; v3)) == 0) or (((&#45;2 &#45; v3) + v4) &gt; v4)</text>
</g>
<!-- Node0x3c6e3190 -->
<g id="node5" class="node"><title>Node0x3c6e3190</title>
<polygon fill="none" stroke="black" points="343.5,-956.5 343.5,-1039.5 471.5,-1039.5 471.5,-956.5 343.5,-956.5"/>
<text text-anchor="start" x="351.5" y="-1024.3" font-family="Times,serif" font-size="14.00">0x20aa1230:</text>
<text text-anchor="start" x="351.5" y="-1009.3" font-family="Times,serif" font-size="14.00"> v8 = g39</text>
<text text-anchor="start" x="351.5" y="-994.3" font-family="Times,serif" font-size="14.00"> v9 = (v8 + v3)</text>
<text text-anchor="start" x="351.5" y="-979.3" font-family="Times,serif" font-size="14.00"> v10 = g40</text>
<text text-anchor="start" x="351.5" y="-964.3" font-family="Times,serif" font-size="14.00"> v11 = (v10 &#45; 1)</text>
</g>
<!-- Node0x3c6e1570&#45;&gt;Node0x3c6e3190 -->
<g id="edge4" class="edge"><title>Node0x3c6e1570&#45;&gt;Node0x3c6e3190</title>
<path fill="none" stroke="black" d="M343.929,-1091.43C363.505,-1086.38 380,-1080.25 387.5,-1073 394.176,-1066.55 398.699,-1058.12 401.746,-1049.26"/>
<polygon fill="black" stroke="black" points="405.135,-1050.14 404.506,-1039.57 398.402,-1048.23 405.135,-1050.14"/>
<text text-anchor="middle" x="573.5" y="-1061.8" font-family="Times,serif" font-size="14.00">((v5 + (&#45;1 &#45; v3)) != 0) and (((&#45;2 &#45; v3) + v4) &lt;= v4)</text>
</g>
<!-- Node0x3c6e0e40 -->
<g id="node6" class="node"><title>Node0x3c6e0e40</title>
<polygon fill="none" stroke="black" points="146.5,-23.5 146.5,-59.5 200.5,-59.5 200.5,-23.5 146.5,-23.5"/>
<text text-anchor="start" x="154.5" y="-37.8" font-family="Times,serif" font-size="14.00">exit:</text>
</g>
<!-- Node0x3c6e4a10&#45;&gt;Node0x3c6e0e40 -->
<g id="edge5" class="edge"><title>Node0x3c6e4a10&#45;&gt;Node0x3c6e0e40</title>
<path fill="none" stroke="black" d="M121.658,-779.347C126.021,-753.433 129.5,-724.35 129.5,-697.5 129.5,-697.5 129.5,-697.5 129.5,-168 129.5,-132.126 145.708,-93.5683 158.45,-68.7991"/>
<polygon fill="black" stroke="black" points="161.683,-70.1742 163.295,-59.7027 155.505,-66.8835 161.683,-70.1742"/>
</g>
<!-- Node0x3c6e3610 -->
<g id="node7" class="node"><title>Node0x3c6e3610</title>
<polygon fill="none" stroke="black" points="339.5,-722.5 339.5,-760.5 445.5,-760.5 445.5,-722.5 339.5,-722.5"/>
<text text-anchor="start" x="347.5" y="-745.3" font-family="Times,serif" font-size="14.00">0xa4e53e0:</text>
<text text-anchor="start" x="347.5" y="-730.3" font-family="Times,serif" font-size="14.00"> if (v8 &gt; v9):</text>
</g>
<!-- Node0x3c6e3190&#45;&gt;Node0x3c6e3610 -->
<g id="edge6" class="edge"><title>Node0x3c6e3190&#45;&gt;Node0x3c6e3610</title>
<path fill="none" stroke="black" d="M405.107,-956.392C402.05,-904.534 396.839,-816.113 394.175,-770.921"/>
<polygon fill="black" stroke="black" points="397.653,-770.446 393.571,-760.669 390.665,-770.858 397.653,-770.446"/>
</g>
<!-- Node0x3c6e4f00 -->
<g id="node8" class="node"><title>Node0x3c6e4f00</title>
<polygon fill="none" stroke="black" points="161,-440.5 161,-598.5 370,-598.5 370,-440.5 161,-440.5"/>
<text text-anchor="start" x="169" y="-583.3" font-family="Times,serif" font-size="14.00">0xa4e59f0:</text>
<text text-anchor="start" x="169" y="-568.3" font-family="Times,serif" font-size="14.00"> g8 = False</text>
<text text-anchor="start" x="169" y="-553.3" font-family="Times,serif" font-size="14.00"> g6 = False</text>
<text text-anchor="start" x="169" y="-538.3" font-family="Times,serif" font-size="14.00"> v7 = ((65536 * g42) | v11)</text>
<text text-anchor="start" x="169" y="-523.3" font-family="Times,serif" font-size="14.00"> g29 = v7</text>
<text text-anchor="start" x="169" y="-508.3" font-family="Times,serif" font-size="14.00"> g7 = (v7 &lt; 0)</text>
<text text-anchor="start" x="169" y="-493.3" font-family="Times,serif" font-size="14.00"> g9 = (v7 == 0)</text>
<text text-anchor="start" x="169" y="-478.3" font-family="Times,serif" font-size="14.00"> g37 = v6</text>
<text text-anchor="start" x="169" y="-463.3" font-family="Times,serif" font-size="14.00"> function_23f36()</text>
<text text-anchor="start" x="169" y="-448.3" font-family="Times,serif" font-size="14.00"> return</text>
</g>
<!-- Node0x3c6e3610&#45;&gt;Node0x3c6e4f00 -->
<g id="edge7" class="edge"><title>Node0x3c6e3610&#45;&gt;Node0x3c6e4f00</title>
<path fill="none" stroke="black" d="M353.943,-722.365C346.054,-717.29 338.378,-711.163 332.5,-704 310.078,-676.676 294.808,-641.188 284.583,-608.711"/>
<polygon fill="black" stroke="black" points="287.813,-607.3 281.569,-598.741 281.113,-609.325 287.813,-607.3"/>
<text text-anchor="middle" x="360.5" y="-692.8" font-family="Times,serif" font-size="14.00">v8 &gt; v9</text>
</g>
<!-- Node0x3c6e37c0 -->
<g id="node9" class="node"><title>Node0x3c6e37c0</title>
<polygon fill="none" stroke="black" points="331,-617.5 331,-670.5 454,-670.5 454,-617.5 331,-617.5"/>
<text text-anchor="start" x="339" y="-655.3" font-family="Times,serif" font-size="14.00">0x46a7cce0:</text>
<text text-anchor="start" x="339" y="-640.3" font-family="Times,serif" font-size="14.00"> v12 = (&#45;1 &#45; v9)</text>
<text text-anchor="start" x="339" y="-625.3" font-family="Times,serif" font-size="14.00"> v13</text>
</g>
<!-- Node0x3c6e3610&#45;&gt;Node0x3c6e37c0 -->
<g id="edge8" class="edge"><title>Node0x3c6e3610&#45;&gt;Node0x3c6e37c0</title>
<path fill="none" stroke="black" d="M392.5,-722.087C392.5,-710.425 392.5,-694.951 392.5,-680.929"/>
<polygon fill="black" stroke="black" points="396,-680.577 392.5,-670.577 389,-680.577 396,-680.577"/>
<text text-anchor="middle" x="426.5" y="-692.8" font-family="Times,serif" font-size="14.00">v8 &lt;= v9</text>
</g>
<!-- Node0x3c6e4f00&#45;&gt;Node0x3c6e0e40 -->
<g id="edge9" class="edge"><title>Node0x3c6e4f00&#45;&gt;Node0x3c6e0e40</title>
<path fill="none" stroke="black" d="M204.135,-440.115C187.259,-411.352 173.5,-377.481 173.5,-343.5 173.5,-343.5 173.5,-343.5 173.5,-168 173.5,-134.065 173.5,-94.9683 173.5,-69.5517"/>
<polygon fill="black" stroke="black" points="177,-69.5513 173.5,-59.5513 170,-69.5514 177,-69.5513"/>
</g>
<!-- Node0x3c6e38f0 -->
<g id="node10" class="node"><title>Node0x3c6e38f0</title>
<polygon fill="none" stroke="black" points="204.5,-368.5 204.5,-421.5 580.5,-421.5 580.5,-368.5 204.5,-368.5"/>
<text text-anchor="start" x="212.5" y="-406.3" font-family="Times,serif" font-size="14.00">0xa4e3a90:</text>
<text text-anchor="start" x="212.5" y="-391.3" font-family="Times,serif" font-size="14.00"> if (((v12 + v5) != 0) and (((v4 &#45; 1) + v12) &lt;= v4)):</text>
<text text-anchor="start" x="212.5" y="-376.3" font-family="Times,serif" font-size="14.00"> else:</text>
</g>
<!-- Node0x3c6e37c0&#45;&gt;Node0x3c6e38f0 -->
<g id="edge10" class="edge"><title>Node0x3c6e37c0&#45;&gt;Node0x3c6e38f0</title>
<path fill="none" stroke="black" d="M392.5,-617.497C392.5,-573.309 392.5,-482.407 392.5,-431.874"/>
<polygon fill="black" stroke="black" points="396,-431.734 392.5,-421.734 389,-431.734 396,-431.734"/>
</g>
<!-- Node0x3c6e5370 -->
<g id="node11" class="node"><title>Node0x3c6e5370</title>
<polygon fill="none" stroke="black" points="213.5,-278.5 213.5,-316.5 341.5,-316.5 341.5,-278.5 213.5,-278.5"/>
<text text-anchor="start" x="221.5" y="-301.3" font-family="Times,serif" font-size="14.00">0xa4e37f0:</text>
<text text-anchor="start" x="221.5" y="-286.3" font-family="Times,serif" font-size="14.00"> v13 = (v10 &#45; 2)</text>
</g>
<!-- Node0x3c6e38f0&#45;&gt;Node0x3c6e5370 -->
<g id="edge11" class="edge"><title>Node0x3c6e38f0&#45;&gt;Node0x3c6e5370</title>
<path fill="none" stroke="black" d="M272.451,-368.478C257.545,-363.095 245.699,-356.918 240.5,-350 234.17,-341.577 237.744,-332.255 244.701,-323.882"/>
<polygon fill="black" stroke="black" points="247.4,-326.126 251.855,-316.513 242.378,-321.25 247.4,-326.126"/>
<text text-anchor="middle" x="403.5" y="-338.8" font-family="Times,serif" font-size="14.00">((v12 + v5) != 0) and (((v4 &#45; 1) + v12) &lt;= v4)</text>
</g>
<!-- Node0x3c6e4740 -->
<g id="node12" class="node"><title>Node0x3c6e4740</title>
<polygon fill="none" stroke="black" points="449.5,-278.5 449.5,-316.5 545.5,-316.5 545.5,-278.5 449.5,-278.5"/>
<text text-anchor="start" x="457.5" y="-301.3" font-family="Times,serif" font-size="14.00">0xa4e3bf0:</text>
<text text-anchor="start" x="457.5" y="-286.3" font-family="Times,serif" font-size="14.00"> v13 = v11</text>
</g>
<!-- Node0x3c6e38f0&#45;&gt;Node0x3c6e4740 -->
<g id="edge12" class="edge"><title>Node0x3c6e38f0&#45;&gt;Node0x3c6e4740</title>
<path fill="none" stroke="black" d="M538.216,-368.384C553.189,-363.179 564.956,-357.081 570.5,-350 580.423,-337.326 570.303,-326.464 554.76,-318.028"/>
<polygon fill="black" stroke="black" points="556.183,-314.828 545.66,-313.595 553.117,-321.121 556.183,-314.828"/>
<text text-anchor="middle" x="729" y="-338.8" font-family="Times,serif" font-size="14.00">((v12 + v5) == 0) or (((v4 &#45; 1) + v12) &gt; v4)</text>
</g>
<!-- Node0x3c6e4590 -->
<g id="node13" class="node"><title>Node0x3c6e4590</title>
<polygon fill="none" stroke="black" points="202,-97.5 202,-240.5 411,-240.5 411,-97.5 202,-97.5"/>
<text text-anchor="start" x="210" y="-225.3" font-family="Times,serif" font-size="14.00">0xa4e40e0:</text>
<text text-anchor="start" x="210" y="-210.3" font-family="Times,serif" font-size="14.00"> g8 = False</text>
<text text-anchor="start" x="210" y="-195.3" font-family="Times,serif" font-size="14.00"> g6 = False</text>
<text text-anchor="start" x="210" y="-180.3" font-family="Times,serif" font-size="14.00"> v7 = ((65536 * g42) | v13)</text>
<text text-anchor="start" x="210" y="-165.3" font-family="Times,serif" font-size="14.00"> g29 = v7</text>
<text text-anchor="start" x="210" y="-150.3" font-family="Times,serif" font-size="14.00"> g7 = (v7 &lt; 0)</text>
<text text-anchor="start" x="210" y="-135.3" font-family="Times,serif" font-size="14.00"> g9 = (v7 == 0)</text>
<text text-anchor="start" x="210" y="-120.3" font-family="Times,serif" font-size="14.00"> g37 = v6</text>
<text text-anchor="start" x="210" y="-105.3" font-family="Times,serif" font-size="14.00"> function_23f36()</text>
</g>
<!-- Node0x3c6e5370&#45;&gt;Node0x3c6e4590 -->
<g id="edge13" class="edge"><title>Node0x3c6e5370&#45;&gt;Node0x3c6e4590</title>
<path fill="none" stroke="black" d="M281.655,-278.376C283.454,-270.53 285.695,-260.751 288.091,-250.301"/>
<polygon fill="black" stroke="black" points="291.503,-251.081 290.326,-240.552 284.68,-249.517 291.503,-251.081"/>
</g>
<!-- Node0x3c6e4740&#45;&gt;Node0x3c6e4590 -->
<g id="edge14" class="edge"><title>Node0x3c6e4740&#45;&gt;Node0x3c6e4590</title>
<path fill="none" stroke="black" d="M470.134,-278.376C456.297,-269.211 438.477,-257.409 419.712,-244.981"/>
<polygon fill="black" stroke="black" points="421.599,-242.032 411.329,-239.429 417.734,-247.868 421.599,-242.032"/>
</g>
<!-- Node0x3c6e4590&#45;&gt;Node0x3c6e0e40 -->
<g id="edge15" class="edge"><title>Node0x3c6e4590&#45;&gt;Node0x3c6e0e40</title>
<path fill="none" stroke="black" d="M231.449,-97.181C219.849,-86.2349 208.601,-75.6219 199.151,-66.7042"/>
<polygon fill="black" stroke="black" points="201.342,-63.9595 191.666,-59.642 196.538,-69.0507 201.342,-63.9595"/>
</g>
</g>
</svg>
