<?xml version="1.0" encoding="UTF-8" standalone="no"?>
<!DOCTYPE svg PUBLIC "-//W3C//DTD SVG 1.1//EN"
 "http://www.w3.org/Graphics/SVG/1.1/DTD/svg11.dtd">
<!-- Generated by graphviz version 2.38.0 (20140413.2041)
 -->
<!-- Title: Control&#45;flow graph for function &#39;function_143ec()&#39;. Pages: 1 -->
<svg width="861pt" height="2219pt"
 viewBox="0.00 0.00 860.50 2219.00" xmlns="http://www.w3.org/2000/svg" xmlns:xlink="http://www.w3.org/1999/xlink">
<g id="graph0" class="graph" transform="scale(1 1) rotate(0) translate(4 2215)">
<title>Control&#45;flow graph for function &#39;function_143ec()&#39;.</title>
<polygon fill="white" stroke="none" points="-4,4 -4,-2215 856.5,-2215 856.5,4 -4,4"/>
<text text-anchor="middle" x="426.25" y="-7.8" font-family="Times,serif" font-size="14.00">Control&#45;flow graph for function &#39;function_143ec()&#39;.</text>
<!-- Node0x44384960 -->
<g id="node1" class="node"><title>Node0x44384960</title>
<polygon fill="none" stroke="black" points="648,-2174.5 648,-2210.5 707,-2210.5 707,-2174.5 648,-2174.5"/>
<text text-anchor="start" x="656" y="-2188.8" font-family="Times,serif" font-size="14.00">entry:</text>
</g>
<!-- Node0xe7a4e70 -->
<g id="node2" class="node"><title>Node0xe7a4e70</title>
<polygon fill="none" stroke="black" points="572,-1828.5 572,-2136.5 783,-2136.5 783,-1828.5 572,-1828.5"/>
<text text-anchor="start" x="580" y="-2121.3" font-family="Times,serif" font-size="14.00">0x1f4d24b0:</text>
<text text-anchor="start" x="580" y="-2106.3" font-family="Times,serif" font-size="14.00"> v1 = g38</text>
<text text-anchor="start" x="580" y="-2091.3" font-family="Times,serif" font-size="14.00"> v2 = g39</text>
<text text-anchor="start" x="580" y="-2076.3" font-family="Times,serif" font-size="14.00"> v3 = g40</text>
<text text-anchor="start" x="580" y="-2061.3" font-family="Times,serif" font-size="14.00"> v4 = g41</text>
<text text-anchor="start" x="580" y="-2046.3" font-family="Times,serif" font-size="14.00"> v5 = g42</text>
<text text-anchor="start" x="580" y="-2031.3" font-family="Times,serif" font-size="14.00"> v6 = g32</text>
<text text-anchor="start" x="580" y="-2016.3" font-family="Times,serif" font-size="14.00"> v7 = g35</text>
<text text-anchor="start" x="580" y="-2001.3" font-family="Times,serif" font-size="14.00"> v8 = g30</text>
<text text-anchor="start" x="580" y="-1986.3" font-family="Times,serif" font-size="14.00"> g35 = (v8 &amp; 16711680)</text>
<text text-anchor="start" x="580" y="-1971.3" font-family="Times,serif" font-size="14.00"> g33 = llvm_bswap_i32(v8)</text>
<text text-anchor="start" x="580" y="-1956.3" font-family="Times,serif" font-size="14.00"> g40 = g36</text>
<text text-anchor="start" x="580" y="-1941.3" font-family="Times,serif" font-size="14.00"> g38 = g37</text>
<text text-anchor="start" x="580" y="-1926.3" font-family="Times,serif" font-size="14.00"> function_bdc8()</text>
<text text-anchor="start" x="580" y="-1911.3" font-family="Times,serif" font-size="14.00"> g36 = 192</text>
<text text-anchor="start" x="580" y="-1896.3" font-family="Times,serif" font-size="14.00"> function_1f38()</text>
<text text-anchor="start" x="580" y="-1881.3" font-family="Times,serif" font-size="14.00"> v9 = g38</text>
<text text-anchor="start" x="580" y="-1866.3" font-family="Times,serif" font-size="14.00"> g6 = True</text>
<text text-anchor="start" x="580" y="-1851.3" font-family="Times,serif" font-size="14.00"> g9 = (v9 == 0)</text>
<text text-anchor="start" x="580" y="-1836.3" font-family="Times,serif" font-size="14.00"> v10</text>
</g>
<!-- Node0x44384960&#45;&gt;Node0xe7a4e70 -->
<g id="edge1" class="edge"><title>Node0x44384960&#45;&gt;Node0xe7a4e70</title>
<path fill="none" stroke="black" d="M677.5,-2174.48C677.5,-2167.05 677.5,-2157.57 677.5,-2146.83"/>
<polygon fill="black" stroke="black" points="681,-2146.62 677.5,-2136.62 674,-2146.62 681,-2146.62"/>
</g>
<!-- Node0x1238abf0 -->
<g id="node3" class="node"><title>Node0x1238abf0</title>
<polygon fill="none" stroke="black" points="625.5,-1752.5 625.5,-1790.5 729.5,-1790.5 729.5,-1752.5 625.5,-1752.5"/>
<text text-anchor="start" x="633.5" y="-1775.3" font-family="Times,serif" font-size="14.00">0x8193a80:</text>
<text text-anchor="start" x="633.5" y="-1760.3" font-family="Times,serif" font-size="14.00"> if (v9 != 0):</text>
</g>
<!-- Node0xe7a4e70&#45;&gt;Node0x1238abf0 -->
<g id="edge2" class="edge"><title>Node0xe7a4e70&#45;&gt;Node0x1238abf0</title>
<path fill="none" stroke="black" d="M677.5,-1828.23C677.5,-1818.18 677.5,-1808.9 677.5,-1800.91"/>
<polygon fill="black" stroke="black" points="681,-1800.87 677.5,-1790.87 674,-1800.87 681,-1800.87"/>
</g>
<!-- Node0x470f8550 -->
<g id="node4" class="node"><title>Node0x470f8550</title>
<polygon fill="none" stroke="black" points="545,-1647.5 545,-1700.5 684,-1700.5 684,-1647.5 545,-1647.5"/>
<text text-anchor="start" x="553" y="-1685.3" font-family="Times,serif" font-size="14.00">0x32c50a40:</text>
<text text-anchor="start" x="553" y="-1670.3" font-family="Times,serif" font-size="14.00"> v11 = (v9 % 16)</text>
<text text-anchor="start" x="553" y="-1655.3" font-family="Times,serif" font-size="14.00"> g9 = (v11 == 0)</text>
</g>
<!-- Node0x1238abf0&#45;&gt;Node0x470f8550 -->
<g id="edge3" class="edge"><title>Node0x1238abf0&#45;&gt;Node0x470f8550</title>
<path fill="none" stroke="black" d="M659.366,-1752.35C654.231,-1746.73 648.859,-1740.33 644.5,-1734 639.294,-1726.43 634.414,-1717.84 630.165,-1709.6"/>
<polygon fill="black" stroke="black" points="633.236,-1707.92 625.651,-1700.52 626.968,-1711.03 633.236,-1707.92"/>
<text text-anchor="middle" x="671.5" y="-1722.8" font-family="Times,serif" font-size="14.00">v9 != 0</text>
</g>
<!-- Node0x44385640 -->
<g id="node5" class="node"><title>Node0x44385640</title>
<polygon fill="none" stroke="black" points="572.5,-1317.5 572.5,-1505.5 852.5,-1505.5 852.5,-1317.5 572.5,-1317.5"/>
<text text-anchor="start" x="580.5" y="-1490.3" font-family="Times,serif" font-size="14.00">0x8193c80:</text>
<text text-anchor="start" x="580.5" y="-1475.3" font-family="Times,serif" font-size="14.00"> g37 = 0</text>
<text text-anchor="start" x="580.5" y="-1460.3" font-family="Times,serif" font-size="14.00"> g29 = 0</text>
<text text-anchor="start" x="580.5" y="-1445.3" font-family="Times,serif" font-size="14.00"> *(IntToPtrCastExpr&lt;ptr&gt;(g40)) = 0</text>
<text text-anchor="start" x="580.5" y="-1430.3" font-family="Times,serif" font-size="14.00"> g38 = v1</text>
<text text-anchor="start" x="580.5" y="-1415.3" font-family="Times,serif" font-size="14.00"> g39 = v2</text>
<text text-anchor="start" x="580.5" y="-1400.3" font-family="Times,serif" font-size="14.00"> g40 = v3</text>
<text text-anchor="start" x="580.5" y="-1385.3" font-family="Times,serif" font-size="14.00"> g41 = v4</text>
<text text-anchor="start" x="580.5" y="-1370.3" font-family="Times,serif" font-size="14.00"> g42 = v5</text>
<text text-anchor="start" x="580.5" y="-1355.3" font-family="Times,serif" font-size="14.00"> g32 = v6</text>
<text text-anchor="start" x="580.5" y="-1340.3" font-family="Times,serif" font-size="14.00"> g34 = v10</text>
<text text-anchor="start" x="580.5" y="-1325.3" font-family="Times,serif" font-size="14.00"> IntToPtrCastExpr&lt;ptr&gt;(v7)()</text>
</g>
<!-- Node0x1238abf0&#45;&gt;Node0x44385640 -->
<g id="edge4" class="edge"><title>Node0x1238abf0&#45;&gt;Node0x44385640</title>
<path fill="none" stroke="black" d="M690.222,-1752.33C693.523,-1746.71 696.664,-1740.32 698.5,-1734 719.07,-1663.21 722.155,-1579.99 720.315,-1515.96"/>
<polygon fill="black" stroke="black" points="723.81,-1515.73 719.98,-1505.85 716.813,-1515.96 723.81,-1515.73"/>
<text text-anchor="middle" x="748.5" y="-1617.8" font-family="Times,serif" font-size="14.00">v9 == 0</text>
</g>
<!-- Node0x470f8950 -->
<g id="node6" class="node"><title>Node0x470f8950</title>
<polygon fill="none" stroke="black" points="555,-1557.5 555,-1595.5 674,-1595.5 674,-1557.5 555,-1557.5"/>
<text text-anchor="start" x="563" y="-1580.3" font-family="Times,serif" font-size="14.00">0x81938e0:</text>
<text text-anchor="start" x="563" y="-1565.3" font-family="Times,serif" font-size="14.00"> if (v11 == 0):</text>
</g>
<!-- Node0x470f8550&#45;&gt;Node0x470f8950 -->
<g id="edge5" class="edge"><title>Node0x470f8550&#45;&gt;Node0x470f8950</title>
<path fill="none" stroke="black" d="M614.5,-1647.41C614.5,-1634.63 614.5,-1619.13 614.5,-1605.98"/>
<polygon fill="black" stroke="black" points="618,-1605.6 614.5,-1595.6 611,-1605.6 618,-1605.6"/>
</g>
<!-- Node0x443855c0 -->
<g id="node7" class="node"><title>Node0x443855c0</title>
<polygon fill="none" stroke="black" points="488.5,-23.5 488.5,-59.5 542.5,-59.5 542.5,-23.5 488.5,-23.5"/>
<text text-anchor="start" x="496.5" y="-37.8" font-family="Times,serif" font-size="14.00">exit:</text>
</g>
<!-- Node0x44385640&#45;&gt;Node0x443855c0 -->
<g id="edge6" class="edge"><title>Node0x44385640&#45;&gt;Node0x443855c0</title>
<path fill="none" stroke="black" d="M712.5,-1317.11C712.5,-1298.68 712.5,-1279.48 712.5,-1261.5 712.5,-1261.5 712.5,-1261.5 712.5,-213 712.5,-160.684 727.052,-136.283 692.5,-97 657.24,-56.9121 593.256,-45.8992 552.643,-43.1094"/>
<polygon fill="black" stroke="black" points="552.781,-39.6118 542.603,-42.554 552.395,-46.6011 552.781,-39.6118"/>
</g>
<!-- Node0x470f8950&#45;&gt;Node0x44385640 -->
<g id="edge8" class="edge"><title>Node0x470f8950&#45;&gt;Node0x44385640</title>
<path fill="none" stroke="black" d="M620.769,-1557.43C624.535,-1547.34 629.712,-1534.7 635.5,-1524 637.254,-1520.76 639.082,-1517.49 640.968,-1514.22"/>
<polygon fill="black" stroke="black" points="644.011,-1515.95 646.085,-1505.56 637.984,-1512.39 644.011,-1515.95"/>
<text text-anchor="middle" x="667" y="-1527.8" font-family="Times,serif" font-size="14.00">v11 != 0</text>
</g>
<!-- Node0x1542fe60 -->
<g id="node8" class="node"><title>Node0x1542fe60</title>
<polygon fill="none" stroke="black" points="398.5,-1325 398.5,-1498 554.5,-1498 554.5,-1325 398.5,-1325"/>
<text text-anchor="start" x="406.5" y="-1482.8" font-family="Times,serif" font-size="14.00">0x8167320:</text>
<text text-anchor="start" x="406.5" y="-1467.8" font-family="Times,serif" font-size="14.00"> v12 = 0</text>
<text text-anchor="start" x="406.5" y="-1452.8" font-family="Times,serif" font-size="14.00"> v13 = (g40 + v12)</text>
<text text-anchor="start" x="406.5" y="-1437.8" font-family="Times,serif" font-size="14.00"> g36 = v13</text>
<text text-anchor="start" x="406.5" y="-1422.8" font-family="Times,serif" font-size="14.00"> g39 = (v12 + 16)</text>
<text text-anchor="start" x="406.5" y="-1407.8" font-family="Times,serif" font-size="14.00"> g37 = v13</text>
<text text-anchor="start" x="406.5" y="-1392.8" font-family="Times,serif" font-size="14.00"> function_2834()</text>
<text text-anchor="start" x="406.5" y="-1377.8" font-family="Times,serif" font-size="14.00"> v14 = g38</text>
<text text-anchor="start" x="406.5" y="-1362.8" font-family="Times,serif" font-size="14.00"> v15 = g39</text>
<text text-anchor="start" x="406.5" y="-1347.8" font-family="Times,serif" font-size="14.00"> g6 = (v15 &gt;= v14)</text>
<text text-anchor="start" x="406.5" y="-1332.8" font-family="Times,serif" font-size="14.00"> g9 = (v15 == v14)</text>
</g>
<!-- Node0x470f8950&#45;&gt;Node0x1542fe60 -->
<g id="edge7" class="edge"><title>Node0x470f8950&#45;&gt;Node0x1542fe60</title>
<path fill="none" stroke="black" d="M580.112,-1557.39C571.839,-1552.11 563.406,-1545.89 556.5,-1539 546.731,-1529.25 537.572,-1518.1 529.19,-1506.56"/>
<polygon fill="black" stroke="black" points="531.848,-1504.25 523.227,-1498.09 526.125,-1508.28 531.848,-1504.25"/>
<text text-anchor="middle" x="591" y="-1527.8" font-family="Times,serif" font-size="14.00">v11 == 0</text>
</g>
<!-- Node0x15435e90 -->
<g id="node9" class="node"><title>Node0x15435e90</title>
<polygon fill="none" stroke="black" points="400.5,-1241.5 400.5,-1279.5 552.5,-1279.5 552.5,-1241.5 400.5,-1241.5"/>
<text text-anchor="start" x="408.5" y="-1264.3" font-family="Times,serif" font-size="14.00">0x81935e0:</text>
<text text-anchor="start" x="408.5" y="-1249.3" font-family="Times,serif" font-size="14.00"> while (v15 &lt; v14):</text>
</g>
<!-- Node0x1542fe60&#45;&gt;Node0x15435e90 -->
<g id="edge9" class="edge"><title>Node0x1542fe60&#45;&gt;Node0x15435e90</title>
<path fill="none" stroke="black" d="M476.5,-1324.69C476.5,-1312.15 476.5,-1300.04 476.5,-1289.84"/>
<polygon fill="black" stroke="black" points="480,-1289.59 476.5,-1279.59 473,-1289.59 480,-1289.59"/>
</g>
<!-- Node0x27104090 -->
<g id="node10" class="node"><title>Node0x27104090</title>
<polygon fill="none" stroke="black" points="309.5,-1016.5 309.5,-1189.5 465.5,-1189.5 465.5,-1016.5 309.5,-1016.5"/>
<text text-anchor="start" x="317.5" y="-1174.3" font-family="Times,serif" font-size="14.00">0x1aa0e1c0:</text>
<text text-anchor="start" x="317.5" y="-1159.3" font-family="Times,serif" font-size="14.00"> v12 = v15</text>
<text text-anchor="start" x="317.5" y="-1144.3" font-family="Times,serif" font-size="14.00"> v13 = (g40 + v12)</text>
<text text-anchor="start" x="317.5" y="-1129.3" font-family="Times,serif" font-size="14.00"> g36 = v13</text>
<text text-anchor="start" x="317.5" y="-1114.3" font-family="Times,serif" font-size="14.00"> g39 = (v12 + 16)</text>
<text text-anchor="start" x="317.5" y="-1099.3" font-family="Times,serif" font-size="14.00"> g37 = v13</text>
<text text-anchor="start" x="317.5" y="-1084.3" font-family="Times,serif" font-size="14.00"> function_2834()</text>
<text text-anchor="start" x="317.5" y="-1069.3" font-family="Times,serif" font-size="14.00"> v14 = g38</text>
<text text-anchor="start" x="317.5" y="-1054.3" font-family="Times,serif" font-size="14.00"> v15 = g39</text>
<text text-anchor="start" x="317.5" y="-1039.3" font-family="Times,serif" font-size="14.00"> g6 = (v15 &gt;= v14)</text>
<text text-anchor="start" x="317.5" y="-1024.3" font-family="Times,serif" font-size="14.00"> g9 = (v15 == v14)</text>
</g>
<!-- Node0x15435e90&#45;&gt;Node0x27104090 -->
<g id="edge10" class="edge"><title>Node0x15435e90&#45;&gt;Node0x27104090</title>
<path fill="none" stroke="black" d="M408.343,-1241.28C400.545,-1236.53 393.584,-1230.54 388.5,-1223 383.687,-1215.86 380.414,-1207.89 378.309,-1199.54"/>
<polygon fill="black" stroke="black" points="381.719,-1198.74 376.351,-1189.61 374.851,-1200.1 381.719,-1198.74"/>
<text text-anchor="middle" x="425.5" y="-1211.8" font-family="Times,serif" font-size="14.00">v15 &lt; v14</text>
</g>
<!-- Node0x308c7760 -->
<g id="node11" class="node"><title>Node0x308c7760</title>
<polygon fill="none" stroke="black" points="483.5,-1054 483.5,-1152 635.5,-1152 635.5,-1054 483.5,-1054"/>
<text text-anchor="start" x="491.5" y="-1136.8" font-family="Times,serif" font-size="14.00">0x4818f690:</text>
<text text-anchor="start" x="491.5" y="-1121.8" font-family="Times,serif" font-size="14.00"> v16 = g40</text>
<text text-anchor="start" x="491.5" y="-1106.8" font-family="Times,serif" font-size="14.00"> v17 = (v16 + v14)</text>
<text text-anchor="start" x="491.5" y="-1091.8" font-family="Times,serif" font-size="14.00"> g30 = v17</text>
<text text-anchor="start" x="491.5" y="-1076.8" font-family="Times,serif" font-size="14.00"> v18 = (v16 + 16)</text>
<text text-anchor="start" x="491.5" y="-1061.8" font-family="Times,serif" font-size="14.00"> g29 = v18</text>
</g>
<!-- Node0x15435e90&#45;&gt;Node0x308c7760 -->
<g id="edge11" class="edge"><title>Node0x15435e90&#45;&gt;Node0x308c7760</title>
<path fill="none" stroke="black" d="M486.184,-1241.36C496.641,-1221.77 513.833,-1189.56 528.942,-1161.25"/>
<polygon fill="black" stroke="black" points="532.142,-1162.69 533.763,-1152.22 525.966,-1159.39 532.142,-1162.69"/>
<text text-anchor="middle" x="546.5" y="-1211.8" font-family="Times,serif" font-size="14.00">v15 &gt;= v14</text>
</g>
<!-- Node0x27104090&#45;&gt;Node0x15435e90 -->
<g id="edge12" class="edge"><title>Node0x27104090&#45;&gt;Node0x15435e90</title>
<path fill="none" stroke="black" d="M452.755,-1189.66C456.285,-1195.73 459.577,-1201.87 462.5,-1208 465.995,-1215.33 468.737,-1223.67 470.833,-1231.48"/>
<polygon fill="black" stroke="black" points="467.458,-1232.41 473.225,-1241.3 474.26,-1230.75 467.458,-1232.41"/>
</g>
<!-- Node0xd51aeb0 -->
<g id="node12" class="node"><title>Node0xd51aeb0</title>
<polygon fill="none" stroke="black" points="494.5,-940.5 494.5,-978.5 624.5,-978.5 624.5,-940.5 494.5,-940.5"/>
<text text-anchor="start" x="502.5" y="-963.3" font-family="Times,serif" font-size="14.00">0x818e9b0:</text>
<text text-anchor="start" x="502.5" y="-948.3" font-family="Times,serif" font-size="14.00"> if (v17 != v18):</text>
</g>
<!-- Node0x308c7760&#45;&gt;Node0xd51aeb0 -->
<g id="edge13" class="edge"><title>Node0x308c7760&#45;&gt;Node0xd51aeb0</title>
<path fill="none" stroke="black" d="M559.5,-1053.7C559.5,-1032.15 559.5,-1007.5 559.5,-988.964"/>
<polygon fill="black" stroke="black" points="563,-988.828 559.5,-978.828 556,-988.828 563,-988.828"/>
</g>
<!-- Node0x1e2e3f70 -->
<g id="node13" class="node"><title>Node0x1e2e3f70</title>
<polygon fill="none" stroke="black" points="119.5,-805.5 119.5,-888.5 551.5,-888.5 551.5,-805.5 119.5,-805.5"/>
<text text-anchor="start" x="127.5" y="-873.3" font-family="Times,serif" font-size="14.00">0x1d586990:</text>
<text text-anchor="start" x="127.5" y="-858.3" font-family="Times,serif" font-size="14.00"> v19 = (v17 &#45; 1)</text>
<text text-anchor="start" x="127.5" y="-843.3" font-family="Times,serif" font-size="14.00"> v20 = IntToPtrCastExpr&lt;ptr&gt;(v19)</text>
<text text-anchor="start" x="127.5" y="-828.3" font-family="Times,serif" font-size="14.00"> g30 = v19</text>
<text text-anchor="start" x="127.5" y="-813.3" font-family="Times,serif" font-size="14.00"> *(v20) = (*(IntToPtrCastExpr&lt;ptr&gt;((v17 &#45; 17))) ^ *(v20))</text>
</g>
<!-- Node0xd51aeb0&#45;&gt;Node0x1e2e3f70 -->
<g id="edge14" class="edge"><title>Node0xd51aeb0&#45;&gt;Node0x1e2e3f70</title>
<path fill="none" stroke="black" d="M522.511,-940.253C496.5,-927.422 460.5,-909.663 427.026,-893.15"/>
<polygon fill="black" stroke="black" points="428.179,-889.816 417.662,-888.531 425.082,-896.094 428.179,-889.816"/>
<text text-anchor="middle" x="521.5" y="-910.8" font-family="Times,serif" font-size="14.00">v17 != v18</text>
</g>
<!-- Node0x1e2e38f0 -->
<g id="node14" class="node"><title>Node0x1e2e38f0</title>
<polygon fill="none" stroke="black" points="72,-458.5 72,-541.5 623,-541.5 623,-458.5 72,-458.5"/>
<text text-anchor="start" x="80" y="-526.3" font-family="Times,serif" font-size="14.00">0x2ace7d30:</text>
<text text-anchor="start" x="80" y="-511.3" font-family="Times,serif" font-size="14.00"> v21 = ExtCastExpr&lt;int32&gt;(*(IntToPtrCastExpr&lt;ptr&gt;(((v14 + v16) &#45; 1))))</text>
<text text-anchor="start" x="80" y="-496.3" font-family="Times,serif" font-size="14.00"> g36 = v21</text>
<text text-anchor="start" x="80" y="-481.3" font-family="Times,serif" font-size="14.00"> g6 = (v14 &lt;= v21)</text>
<text text-anchor="start" x="80" y="-466.3" font-family="Times,serif" font-size="14.00"> g9 = (v14 == v21)</text>
</g>
<!-- Node0xd51aeb0&#45;&gt;Node0x1e2e38f0 -->
<g id="edge15" class="edge"><title>Node0xd51aeb0&#45;&gt;Node0x1e2e38f0</title>
<path fill="none" stroke="black" d="M564.86,-940.304C570.784,-918.551 579.5,-880.948 579.5,-848 579.5,-848 579.5,-848 579.5,-627.5 579.5,-591.123 557.241,-565.144 526.513,-546.612"/>
<polygon fill="black" stroke="black" points="528.059,-543.465 517.633,-541.58 524.608,-549.556 528.059,-543.465"/>
<text text-anchor="middle" x="622.5" y="-744.8" font-family="Times,serif" font-size="14.00">v17 == v18</text>
</g>
<!-- Node0xe7a2570 -->
<g id="node15" class="node"><title>Node0xe7a2570</title>
<polygon fill="none" stroke="black" points="255.5,-729.5 255.5,-767.5 415.5,-767.5 415.5,-729.5 255.5,-729.5"/>
<text text-anchor="start" x="263.5" y="-752.3" font-family="Times,serif" font-size="14.00">0x818e810:</text>
<text text-anchor="start" x="263.5" y="-737.3" font-family="Times,serif" font-size="14.00"> while (g30 != g29):</text>
</g>
<!-- Node0x1e2e3f70&#45;&gt;Node0xe7a2570 -->
<g id="edge16" class="edge"><title>Node0x1e2e3f70&#45;&gt;Node0xe7a2570</title>
<path fill="none" stroke="black" d="M335.5,-805.355C335.5,-796.083 335.5,-786.427 335.5,-777.803"/>
<polygon fill="black" stroke="black" points="339,-777.538 335.5,-767.538 332,-777.538 339,-777.538"/>
</g>
<!-- Node0x1e2e2b60 -->
<g id="node16" class="node"><title>Node0x1e2e2b60</title>
<polygon fill="none" stroke="black" points="285.5,-382.5 285.5,-420.5 409.5,-420.5 409.5,-382.5 285.5,-382.5"/>
<text text-anchor="start" x="293.5" y="-405.3" font-family="Times,serif" font-size="14.00">0x8191900:</text>
<text text-anchor="start" x="293.5" y="-390.3" font-family="Times,serif" font-size="14.00"> if (v14 &lt; v21):</text>
</g>
<!-- Node0x1e2e38f0&#45;&gt;Node0x1e2e2b60 -->
<g id="edge17" class="edge"><title>Node0x1e2e38f0&#45;&gt;Node0x1e2e2b60</title>
<path fill="none" stroke="black" d="M347.5,-458.355C347.5,-449.083 347.5,-439.427 347.5,-430.803"/>
<polygon fill="black" stroke="black" points="351,-430.538 347.5,-420.538 344,-430.538 351,-430.538"/>
</g>
<!-- Node0x11aa4120 -->
<g id="node17" class="node"><title>Node0x11aa4120</title>
<polygon fill="none" stroke="black" points="119.5,-579.5 119.5,-677.5 551.5,-677.5 551.5,-579.5 119.5,-579.5"/>
<text text-anchor="start" x="127.5" y="-662.3" font-family="Times,serif" font-size="14.00">0x15a55690:</text>
<text text-anchor="start" x="127.5" y="-647.3" font-family="Times,serif" font-size="14.00"> v17 = g30</text>
<text text-anchor="start" x="127.5" y="-632.3" font-family="Times,serif" font-size="14.00"> v19 = (v17 &#45; 1)</text>
<text text-anchor="start" x="127.5" y="-617.3" font-family="Times,serif" font-size="14.00"> v20 = IntToPtrCastExpr&lt;ptr&gt;(v19)</text>
<text text-anchor="start" x="127.5" y="-602.3" font-family="Times,serif" font-size="14.00"> g30 = v19</text>
<text text-anchor="start" x="127.5" y="-587.3" font-family="Times,serif" font-size="14.00"> *(v20) = (*(IntToPtrCastExpr&lt;ptr&gt;((v17 &#45; 17))) ^ *(v20))</text>
</g>
<!-- Node0xe7a2570&#45;&gt;Node0x11aa4120 -->
<g id="edge18" class="edge"><title>Node0xe7a2570&#45;&gt;Node0x11aa4120</title>
<path fill="none" stroke="black" d="M335.5,-729.321C335.5,-718.08 335.5,-702.962 335.5,-687.896"/>
<polygon fill="black" stroke="black" points="339,-687.523 335.5,-677.523 332,-687.523 339,-687.523"/>
<text text-anchor="middle" x="376.5" y="-699.8" font-family="Times,serif" font-size="14.00">g30 != g29</text>
</g>
<!-- Node0x44385390 -->
<g id="node18" class="node"><title>Node0x44385390</title>
<polygon fill="none" stroke="black" points="0,-602 0,-655 101,-655 101,-602 0,-602"/>
<text text-anchor="start" x="8" y="-639.8" font-family="Times,serif" font-size="14.00">0x818e3b0:</text>
<text text-anchor="start" x="8" y="-624.8" font-family="Times,serif" font-size="14.00"> v16 = g40</text>
<text text-anchor="start" x="8" y="-609.8" font-family="Times,serif" font-size="14.00"> v14 = g38</text>
</g>
<!-- Node0xe7a2570&#45;&gt;Node0x44385390 -->
<g id="edge19" class="edge"><title>Node0xe7a2570&#45;&gt;Node0x44385390</title>
<path fill="none" stroke="black" d="M255.268,-730.613C210.956,-719.376 155.869,-702.182 110.5,-678 101.993,-673.466 93.5275,-667.648 85.752,-661.627"/>
<polygon fill="black" stroke="black" points="87.5972,-658.618 77.6164,-655.064 83.2022,-664.067 87.5972,-658.618"/>
<text text-anchor="middle" x="232.5" y="-699.8" font-family="Times,serif" font-size="14.00">g30 == g29</text>
</g>
<!-- Node0x1641ae80 -->
<g id="node19" class="node"><title>Node0x1641ae80</title>
<polygon fill="none" stroke="black" points="48.5,-112.5 48.5,-315.5 328.5,-315.5 328.5,-112.5 48.5,-112.5"/>
<text text-anchor="start" x="56.5" y="-300.3" font-family="Times,serif" font-size="14.00">0x8191ac0:</text>
<text text-anchor="start" x="56.5" y="-285.3" font-family="Times,serif" font-size="14.00"> g37 = 0</text>
<text text-anchor="start" x="56.5" y="-270.3" font-family="Times,serif" font-size="14.00"> g29 = 0</text>
<text text-anchor="start" x="56.5" y="-255.3" font-family="Times,serif" font-size="14.00"> *(IntToPtrCastExpr&lt;ptr&gt;(g40)) = 0</text>
<text text-anchor="start" x="56.5" y="-240.3" font-family="Times,serif" font-size="14.00"> g38 = v1</text>
<text text-anchor="start" x="56.5" y="-225.3" font-family="Times,serif" font-size="14.00"> g39 = v2</text>
<text text-anchor="start" x="56.5" y="-210.3" font-family="Times,serif" font-size="14.00"> g40 = v3</text>
<text text-anchor="start" x="56.5" y="-195.3" font-family="Times,serif" font-size="14.00"> g41 = v4</text>
<text text-anchor="start" x="56.5" y="-180.3" font-family="Times,serif" font-size="14.00"> g42 = v5</text>
<text text-anchor="start" x="56.5" y="-165.3" font-family="Times,serif" font-size="14.00"> g32 = v6</text>
<text text-anchor="start" x="56.5" y="-150.3" font-family="Times,serif" font-size="14.00"> g34 = v10</text>
<text text-anchor="start" x="56.5" y="-135.3" font-family="Times,serif" font-size="14.00"> IntToPtrCastExpr&lt;ptr&gt;(v7)()</text>
<text text-anchor="start" x="56.5" y="-120.3" font-family="Times,serif" font-size="14.00"> return</text>
</g>
<!-- Node0x1e2e2b60&#45;&gt;Node0x1641ae80 -->
<g id="edge20" class="edge"><title>Node0x1e2e2b60&#45;&gt;Node0x1641ae80</title>
<path fill="none" stroke="black" d="M324.4,-382.387C317.724,-376.762 310.598,-370.362 304.5,-364 292.345,-351.32 280.198,-337.421 268.586,-323.369"/>
<polygon fill="black" stroke="black" points="271.234,-321.078 262.193,-315.553 265.815,-325.51 271.234,-321.078"/>
<text text-anchor="middle" x="341.5" y="-352.8" font-family="Times,serif" font-size="14.00">v14 &lt; v21</text>
</g>
<!-- Node0x1e2e4850 -->
<g id="node20" class="node"><title>Node0x1e2e4850</title>
<polygon fill="none" stroke="black" points="347,-97.5 347,-330.5 684,-330.5 684,-97.5 347,-97.5"/>
<text text-anchor="start" x="355" y="-315.3" font-family="Times,serif" font-size="14.00">0x1f155ab0:</text>
<text text-anchor="start" x="355" y="-300.3" font-family="Times,serif" font-size="14.00"> v22 = (v14 &#45; v21)</text>
<text text-anchor="start" x="355" y="-285.3" font-family="Times,serif" font-size="14.00"> g36 = v22</text>
<text text-anchor="start" x="355" y="-270.3" font-family="Times,serif" font-size="14.00"> g37 = 0</text>
<text text-anchor="start" x="355" y="-255.3" font-family="Times,serif" font-size="14.00"> *(IntToPtrCastExpr&lt;ptr&gt;((v22 + v16))) = 0</text>
<text text-anchor="start" x="355" y="-240.3" font-family="Times,serif" font-size="14.00"> g29 = 1</text>
<text text-anchor="start" x="355" y="-225.3" font-family="Times,serif" font-size="14.00"> g38 = v1</text>
<text text-anchor="start" x="355" y="-210.3" font-family="Times,serif" font-size="14.00"> g39 = v2</text>
<text text-anchor="start" x="355" y="-195.3" font-family="Times,serif" font-size="14.00"> g40 = v3</text>
<text text-anchor="start" x="355" y="-180.3" font-family="Times,serif" font-size="14.00"> g41 = v4</text>
<text text-anchor="start" x="355" y="-165.3" font-family="Times,serif" font-size="14.00"> g42 = v5</text>
<text text-anchor="start" x="355" y="-150.3" font-family="Times,serif" font-size="14.00"> g32 = v6</text>
<text text-anchor="start" x="355" y="-135.3" font-family="Times,serif" font-size="14.00"> g34 = v10</text>
<text text-anchor="start" x="355" y="-120.3" font-family="Times,serif" font-size="14.00"> IntToPtrCastExpr&lt;ptr&gt;(v7)()</text>
<text text-anchor="start" x="355" y="-105.3" font-family="Times,serif" font-size="14.00"> return</text>
</g>
<!-- Node0x1e2e2b60&#45;&gt;Node0x1e2e4850 -->
<g id="edge21" class="edge"><title>Node0x1e2e2b60&#45;&gt;Node0x1e2e4850</title>
<path fill="none" stroke="black" d="M363.914,-382.376C374.173,-371.048 388.38,-355.362 404.014,-338.099"/>
<polygon fill="black" stroke="black" points="406.676,-340.374 410.795,-330.612 401.488,-335.675 406.676,-340.374"/>
<text text-anchor="middle" x="436.5" y="-352.8" font-family="Times,serif" font-size="14.00">v14 &gt;= v21</text>
</g>
<!-- Node0x11aa4120&#45;&gt;Node0xe7a2570 -->
<g id="edge22" class="edge"><title>Node0x11aa4120&#45;&gt;Node0xe7a2570</title>
<path fill="none" stroke="black" d="M333.488,-677.768C333.262,-688.696 333.206,-700.247 333.5,-711 333.571,-713.609 333.672,-716.322 333.789,-719.037"/>
<polygon fill="black" stroke="black" points="330.308,-719.502 334.307,-729.314 337.299,-719.15 330.308,-719.502"/>
</g>
<!-- Node0x44385390&#45;&gt;Node0x1e2e38f0 -->
<g id="edge23" class="edge"><title>Node0x44385390&#45;&gt;Node0x1e2e38f0</title>
<path fill="none" stroke="black" d="M77.9821,-601.806C87.7138,-593.685 99.0911,-585.216 110.5,-579 134.299,-566.033 160.621,-554.746 186.812,-545.091"/>
<polygon fill="black" stroke="black" points="188.235,-548.298 196.45,-541.608 185.856,-541.715 188.235,-548.298"/>
</g>
<!-- Node0x1641ae80&#45;&gt;Node0x443855c0 -->
<g id="edge24" class="edge"><title>Node0x1641ae80&#45;&gt;Node0x443855c0</title>
<path fill="none" stroke="black" d="M311.007,-112.281C319.755,-106.77 328.628,-101.611 337.5,-97 383.372,-73.1587 441.415,-57.8331 478.509,-49.6896"/>
<polygon fill="black" stroke="black" points="479.339,-53.0914 488.389,-47.5821 477.879,-46.2455 479.339,-53.0914"/>
</g>
<!-- Node0x1e2e4850&#45;&gt;Node0x443855c0 -->
<g id="edge25" class="edge"><title>Node0x1e2e4850&#45;&gt;Node0x443855c0</title>
<path fill="none" stroke="black" d="M515.5,-97.3858C515.5,-87.4233 515.5,-78.0972 515.5,-70.0599"/>
<polygon fill="black" stroke="black" points="519,-69.9601 515.5,-59.9601 512,-69.9602 519,-69.9601"/>
</g>
</g>
</svg>
