<?xml version="1.0" encoding="UTF-8" standalone="no"?>
<!DOCTYPE svg PUBLIC "-//W3C//DTD SVG 1.1//EN"
 "http://www.w3.org/Graphics/SVG/1.1/DTD/svg11.dtd">
<!-- Generated by graphviz version 2.38.0 (20140413.2041)
 -->
<!-- Title: Control&#45;flow graph for function &#39;function_1b4a4()&#39;. Pages: 1 -->
<svg width="663pt" height="2367pt"
 viewBox="0.00 0.00 662.50 2367.00" xmlns="http://www.w3.org/2000/svg" xmlns:xlink="http://www.w3.org/1999/xlink">
<g id="graph0" class="graph" transform="scale(1 1) rotate(0) translate(4 2363)">
<title>Control&#45;flow graph for function &#39;function_1b4a4()&#39;.</title>
<polygon fill="white" stroke="none" points="-4,4 -4,-2363 658.5,-2363 658.5,4 -4,4"/>
<text text-anchor="middle" x="327.25" y="-7.8" font-family="Times,serif" font-size="14.00">Control&#45;flow graph for function &#39;function_1b4a4()&#39;.</text>
<!-- Node0x32c039d0 -->
<g id="node1" class="node"><title>Node0x32c039d0</title>
<polygon fill="none" stroke="black" points="157,-2322.5 157,-2358.5 216,-2358.5 216,-2322.5 157,-2322.5"/>
<text text-anchor="start" x="165" y="-2336.8" font-family="Times,serif" font-size="14.00">entry:</text>
</g>
<!-- Node0x32c00f30 -->
<g id="node2" class="node"><title>Node0x32c00f30</title>
<polygon fill="none" stroke="black" points="136.5,-2111.5 136.5,-2284.5 236.5,-2284.5 236.5,-2111.5 136.5,-2111.5"/>
<text text-anchor="start" x="144.5" y="-2269.3" font-family="Times,serif" font-size="14.00">0xe608c70:</text>
<text text-anchor="start" x="144.5" y="-2254.3" font-family="Times,serif" font-size="14.00"> v1 = g38</text>
<text text-anchor="start" x="144.5" y="-2239.3" font-family="Times,serif" font-size="14.00"> v2 = g39</text>
<text text-anchor="start" x="144.5" y="-2224.3" font-family="Times,serif" font-size="14.00"> v3 = g40</text>
<text text-anchor="start" x="144.5" y="-2209.3" font-family="Times,serif" font-size="14.00"> v4 = g32</text>
<text text-anchor="start" x="144.5" y="-2194.3" font-family="Times,serif" font-size="14.00"> v5 = g35</text>
<text text-anchor="start" x="144.5" y="-2179.3" font-family="Times,serif" font-size="14.00"> g39 = 0</text>
<text text-anchor="start" x="144.5" y="-2164.3" font-family="Times,serif" font-size="14.00"> v6 = g29</text>
<text text-anchor="start" x="144.5" y="-2149.3" font-family="Times,serif" font-size="14.00"> g38 = v6</text>
<text text-anchor="start" x="144.5" y="-2134.3" font-family="Times,serif" font-size="14.00"> g40 = 0</text>
<text text-anchor="start" x="144.5" y="-2119.3" font-family="Times,serif" font-size="14.00"> v7</text>
</g>
<!-- Node0x32c039d0&#45;&gt;Node0x32c00f30 -->
<g id="edge1" class="edge"><title>Node0x32c039d0&#45;&gt;Node0x32c00f30</title>
<path fill="none" stroke="black" d="M186.5,-2322.27C186.5,-2314.72 186.5,-2305.21 186.5,-2294.85"/>
<polygon fill="black" stroke="black" points="190,-2294.68 186.5,-2284.68 183,-2294.68 190,-2294.68"/>
</g>
<!-- Node0x35819cb0 -->
<g id="node3" class="node"><title>Node0x35819cb0</title>
<polygon fill="none" stroke="black" points="131.5,-2035.5 131.5,-2073.5 241.5,-2073.5 241.5,-2035.5 131.5,-2035.5"/>
<text text-anchor="start" x="139.5" y="-2058.3" font-family="Times,serif" font-size="14.00">0x934bba0:</text>
<text text-anchor="start" x="139.5" y="-2043.3" font-family="Times,serif" font-size="14.00"> if (v6 == 0):</text>
</g>
<!-- Node0x32c00f30&#45;&gt;Node0x35819cb0 -->
<g id="edge2" class="edge"><title>Node0x32c00f30&#45;&gt;Node0x35819cb0</title>
<path fill="none" stroke="black" d="M186.5,-2111.42C186.5,-2101.55 186.5,-2092.08 186.5,-2083.83"/>
<polygon fill="black" stroke="black" points="190,-2083.75 186.5,-2073.75 183,-2083.75 190,-2083.75"/>
</g>
<!-- Node0x1047c370 -->
<g id="node4" class="node"><title>Node0x1047c370</title>
<polygon fill="none" stroke="black" points="0,-1768.5 0,-1926.5 233,-1926.5 233,-1768.5 0,-1768.5"/>
<text text-anchor="start" x="8" y="-1911.3" font-family="Times,serif" font-size="14.00">0x934b890:</text>
<text text-anchor="start" x="8" y="-1896.3" font-family="Times,serif" font-size="14.00"> g29 = 0</text>
<text text-anchor="start" x="8" y="-1881.3" font-family="Times,serif" font-size="14.00"> g9 = True</text>
<text text-anchor="start" x="8" y="-1866.3" font-family="Times,serif" font-size="14.00"> g38 = v1</text>
<text text-anchor="start" x="8" y="-1851.3" font-family="Times,serif" font-size="14.00"> g39 = v2</text>
<text text-anchor="start" x="8" y="-1836.3" font-family="Times,serif" font-size="14.00"> g40 = v3</text>
<text text-anchor="start" x="8" y="-1821.3" font-family="Times,serif" font-size="14.00"> g32 = v4</text>
<text text-anchor="start" x="8" y="-1806.3" font-family="Times,serif" font-size="14.00"> g34 = v7</text>
<text text-anchor="start" x="8" y="-1791.3" font-family="Times,serif" font-size="14.00"> IntToPtrCastExpr&lt;ptr&gt;(v5)()</text>
<text text-anchor="start" x="8" y="-1776.3" font-family="Times,serif" font-size="14.00"> return</text>
</g>
<!-- Node0x35819cb0&#45;&gt;Node0x1047c370 -->
<g id="edge3" class="edge"><title>Node0x35819cb0&#45;&gt;Node0x1047c370</title>
<path fill="none" stroke="black" d="M180.288,-2035.31C172.671,-2013 159.216,-1973.6 146.621,-1936.71"/>
<polygon fill="black" stroke="black" points="149.814,-1935.23 143.27,-1926.9 143.189,-1937.49 149.814,-1935.23"/>
<text text-anchor="middle" x="204.5" y="-2005.8" font-family="Times,serif" font-size="14.00">v6 == 0</text>
</g>
<!-- Node0x32bff230 -->
<g id="node5" class="node"><title>Node0x32bff230</title>
<polygon fill="none" stroke="black" points="285,-1945.5 285,-1983.5 386,-1983.5 386,-1945.5 285,-1945.5"/>
<text text-anchor="start" x="293" y="-1968.3" font-family="Times,serif" font-size="14.00">0x9356550:</text>
<text text-anchor="start" x="293" y="-1953.3" font-family="Times,serif" font-size="14.00"> while True:</text>
</g>
<!-- Node0x35819cb0&#45;&gt;Node0x32bff230 -->
<g id="edge4" class="edge"><title>Node0x35819cb0&#45;&gt;Node0x32bff230</title>
<path fill="none" stroke="black" d="M217.012,-2035.48C239.836,-2022 271.242,-2003.45 295.987,-1988.84"/>
<polygon fill="black" stroke="black" points="297.943,-1991.75 304.773,-1983.65 294.383,-1985.72 297.943,-1991.75"/>
<text text-anchor="middle" x="297.5" y="-2005.8" font-family="Times,serif" font-size="14.00">v6 != 0</text>
</g>
<!-- Node0x3e9b7160 -->
<g id="node6" class="node"><title>Node0x3e9b7160</title>
<polygon fill="none" stroke="black" points="127.5,-23.5 127.5,-59.5 181.5,-59.5 181.5,-23.5 127.5,-23.5"/>
<text text-anchor="start" x="135.5" y="-37.8" font-family="Times,serif" font-size="14.00">exit:</text>
</g>
<!-- Node0x1047c370&#45;&gt;Node0x3e9b7160 -->
<g id="edge5" class="edge"><title>Node0x1047c370&#45;&gt;Node0x3e9b7160</title>
<path fill="none" stroke="black" d="M64.9471,-1768.4C61.8487,-1762.3 58.9859,-1756.12 56.5,-1750 41.6126,-1713.33 37.5,-1702.58 37.5,-1663 37.5,-1663 37.5,-1663 37.5,-153 37.5,-108.052 83.7044,-75.9589 118.042,-58.3144"/>
<polygon fill="black" stroke="black" points="119.94,-61.2811 127.364,-53.7223 116.846,-55.0017 119.94,-61.2811"/>
</g>
<!-- Node0x32bff1c0 -->
<g id="node7" class="node"><title>Node0x32bff1c0</title>
<polygon fill="none" stroke="black" points="66,-1681.5 66,-1749.5 605,-1749.5 605,-1681.5 66,-1681.5"/>
<text text-anchor="start" x="74" y="-1734.3" font-family="Times,serif" font-size="14.00">0x934c690:</text>
<text text-anchor="start" x="74" y="-1719.3" font-family="Times,serif" font-size="14.00"> g29 = *(IntToPtrCastExpr&lt;ptr&gt;((*(IntToPtrCastExpr&lt;ptr&gt;(v6)) + 12)))</text>
<text text-anchor="start" x="74" y="-1704.3" font-family="Times,serif" font-size="14.00"> function_1b3a8()</text>
<text text-anchor="start" x="74" y="-1689.3" font-family="Times,serif" font-size="14.00"> v8 = g40</text>
</g>
<!-- Node0x32bff230&#45;&gt;Node0x32bff1c0 -->
<g id="edge6" class="edge"><title>Node0x32bff230&#45;&gt;Node0x32bff1c0</title>
<path fill="none" stroke="black" d="M335.5,-1945.34C335.5,-1906.51 335.5,-1814.5 335.5,-1759.71"/>
<polygon fill="black" stroke="black" points="339,-1759.6 335.5,-1749.6 332,-1759.6 339,-1759.6"/>
<text text-anchor="middle" x="352.5" y="-1843.8" font-family="Times,serif" font-size="14.00">True</text>
</g>
<!-- Node0x3e9b68c0 -->
<g id="node8" class="node"><title>Node0x3e9b68c0</title>
<polygon fill="none" stroke="black" points="283.5,-1605.5 283.5,-1643.5 387.5,-1643.5 387.5,-1605.5 283.5,-1605.5"/>
<text text-anchor="start" x="291.5" y="-1628.3" font-family="Times,serif" font-size="14.00">0x934d8a0:</text>
<text text-anchor="start" x="291.5" y="-1613.3" font-family="Times,serif" font-size="14.00"> if (v8 != 0):</text>
</g>
<!-- Node0x32bff1c0&#45;&gt;Node0x3e9b68c0 -->
<g id="edge7" class="edge"><title>Node0x32bff1c0&#45;&gt;Node0x3e9b68c0</title>
<path fill="none" stroke="black" d="M335.5,-1681.36C335.5,-1672.36 335.5,-1662.71 335.5,-1653.99"/>
<polygon fill="black" stroke="black" points="339,-1653.94 335.5,-1643.94 332,-1653.94 339,-1653.94"/>
</g>
<!-- Node0x1047a770 -->
<g id="node9" class="node"><title>Node0x1047a770</title>
<polygon fill="none" stroke="black" points="90.5,-1515.5 90.5,-1553.5 428.5,-1553.5 428.5,-1515.5 90.5,-1515.5"/>
<text text-anchor="start" x="98.5" y="-1538.3" font-family="Times,serif" font-size="14.00">0x934d650:</text>
<text text-anchor="start" x="98.5" y="-1523.3" font-family="Times,serif" font-size="14.00"> *(IntToPtrCastExpr&lt;ptr&gt;((v8 + 12))) = g29</text>
</g>
<!-- Node0x3e9b68c0&#45;&gt;Node0x1047a770 -->
<g id="edge8" class="edge"><title>Node0x3e9b68c0&#45;&gt;Node0x1047a770</title>
<path fill="none" stroke="black" d="M319.753,-1605.27C308.849,-1592.64 294.172,-1575.65 282.033,-1561.59"/>
<polygon fill="black" stroke="black" points="284.412,-1558.99 275.227,-1553.71 279.114,-1563.57 284.412,-1558.99"/>
<text text-anchor="middle" x="329.5" y="-1575.8" font-family="Times,serif" font-size="14.00">v8 != 0</text>
</g>
<!-- Node0x3e9b3600 -->
<g id="node10" class="node"><title>Node0x3e9b3600</title>
<polygon fill="none" stroke="black" points="247.5,-1349.5 247.5,-1477.5 585.5,-1477.5 585.5,-1349.5 247.5,-1349.5"/>
<text text-anchor="start" x="255.5" y="-1462.3" font-family="Times,serif" font-size="14.00">0xe6084d0:</text>
<text text-anchor="start" x="255.5" y="-1447.3" font-family="Times,serif" font-size="14.00"> v9 = g38</text>
<text text-anchor="start" x="255.5" y="-1432.3" font-family="Times,serif" font-size="14.00"> v10 = *(IntToPtrCastExpr&lt;ptr&gt;(v9))</text>
<text text-anchor="start" x="255.5" y="-1417.3" font-family="Times,serif" font-size="14.00"> g37 = v10</text>
<text text-anchor="start" x="255.5" y="-1402.3" font-family="Times,serif" font-size="14.00"> g36 = *(IntToPtrCastExpr&lt;ptr&gt;((v9 + 4)))</text>
<text text-anchor="start" x="255.5" y="-1387.3" font-family="Times,serif" font-size="14.00"> g30 = *(IntToPtrCastExpr&lt;ptr&gt;((v9 + 8)))</text>
<text text-anchor="start" x="255.5" y="-1372.3" font-family="Times,serif" font-size="14.00"> g38 = *(IntToPtrCastExpr&lt;ptr&gt;((v9 + 12)))</text>
<text text-anchor="start" x="255.5" y="-1357.3" font-family="Times,serif" font-size="14.00"> v11 = g29</text>
</g>
<!-- Node0x3e9b68c0&#45;&gt;Node0x3e9b3600 -->
<g id="edge9" class="edge"><title>Node0x3e9b68c0&#45;&gt;Node0x3e9b3600</title>
<path fill="none" stroke="black" d="M379.776,-1605.44C401.348,-1594.12 425.231,-1577.21 437.5,-1554 448.17,-1533.82 448.286,-1509.84 444.12,-1487.51"/>
<polygon fill="black" stroke="black" points="447.538,-1486.75 442.009,-1477.72 440.695,-1488.23 447.538,-1486.75"/>
<text text-anchor="middle" x="477.5" y="-1530.8" font-family="Times,serif" font-size="14.00">v8 == 0</text>
</g>
<!-- Node0x1047a770&#45;&gt;Node0x3e9b3600 -->
<g id="edge10" class="edge"><title>Node0x1047a770&#45;&gt;Node0x3e9b3600</title>
<path fill="none" stroke="black" d="M283.345,-1515.43C294.96,-1506.62 309.743,-1495.42 325.208,-1483.7"/>
<polygon fill="black" stroke="black" points="327.488,-1486.36 333.344,-1477.53 323.26,-1480.78 327.488,-1486.36"/>
</g>
<!-- Node0x3e9b5fd0 -->
<g id="node11" class="node"><title>Node0x3e9b5fd0</title>
<polygon fill="none" stroke="black" points="361.5,-1273.5 361.5,-1311.5 471.5,-1311.5 471.5,-1273.5 361.5,-1273.5"/>
<text text-anchor="start" x="369.5" y="-1296.3" font-family="Times,serif" font-size="14.00">0x934fb90:</text>
<text text-anchor="start" x="369.5" y="-1281.3" font-family="Times,serif" font-size="14.00"> if (v8 == 0):</text>
</g>
<!-- Node0x3e9b3600&#45;&gt;Node0x3e9b5fd0 -->
<g id="edge11" class="edge"><title>Node0x3e9b3600&#45;&gt;Node0x3e9b5fd0</title>
<path fill="none" stroke="black" d="M416.5,-1349.17C416.5,-1339.6 416.5,-1330.16 416.5,-1321.85"/>
<polygon fill="black" stroke="black" points="420,-1321.66 416.5,-1311.66 413,-1321.66 420,-1321.66"/>
</g>
<!-- Node0x1047ec70 -->
<g id="node12" class="node"><title>Node0x1047ec70</title>
<polygon fill="none" stroke="black" points="322.5,-1183.5 322.5,-1221.5 420.5,-1221.5 420.5,-1183.5 322.5,-1183.5"/>
<text text-anchor="start" x="330.5" y="-1206.3" font-family="Times,serif" font-size="14.00">0x934f8b0:</text>
<text text-anchor="start" x="330.5" y="-1191.3" font-family="Times,serif" font-size="14.00"> g39 = v11</text>
</g>
<!-- Node0x3e9b5fd0&#45;&gt;Node0x1047ec70 -->
<g id="edge12" class="edge"><title>Node0x3e9b5fd0&#45;&gt;Node0x1047ec70</title>
<path fill="none" stroke="black" d="M395.985,-1273.33C390.906,-1267.89 385.94,-1261.61 382.5,-1255 378.8,-1247.9 376.344,-1239.62 374.714,-1231.81"/>
<polygon fill="black" stroke="black" points="378.162,-1231.21 373.012,-1221.95 371.264,-1232.4 378.162,-1231.21"/>
<text text-anchor="middle" x="412.5" y="-1243.8" font-family="Times,serif" font-size="14.00">v8 == 0</text>
</g>
<!-- Node0x32c02d70 -->
<g id="node13" class="node"><title>Node0x32c02d70</title>
<polygon fill="none" stroke="black" points="267.5,-1047.5 267.5,-1145.5 605.5,-1145.5 605.5,-1047.5 267.5,-1047.5"/>
<text text-anchor="start" x="275.5" y="-1130.3" font-family="Times,serif" font-size="14.00">0x934ffa0:</text>
<text text-anchor="start" x="275.5" y="-1115.3" font-family="Times,serif" font-size="14.00"> *(IntToPtrCastExpr&lt;ptr&gt;(v11)) = v10</text>
<text text-anchor="start" x="275.5" y="-1100.3" font-family="Times,serif" font-size="14.00"> *(IntToPtrCastExpr&lt;ptr&gt;((g29 + 4))) = g36</text>
<text text-anchor="start" x="275.5" y="-1085.3" font-family="Times,serif" font-size="14.00"> *(IntToPtrCastExpr&lt;ptr&gt;((g29 + 8))) = g30</text>
<text text-anchor="start" x="275.5" y="-1070.3" font-family="Times,serif" font-size="14.00"> v12 = g38</text>
<text text-anchor="start" x="275.5" y="-1055.3" font-family="Times,serif" font-size="14.00"> g40 = g29</text>
</g>
<!-- Node0x3e9b5fd0&#45;&gt;Node0x32c02d70 -->
<g id="edge13" class="edge"><title>Node0x3e9b5fd0&#45;&gt;Node0x32c02d70</title>
<path fill="none" stroke="black" d="M432.701,-1273.4C436.691,-1267.87 440.415,-1261.52 442.5,-1255 452.683,-1223.15 451.778,-1185.83 448.051,-1155.51"/>
<polygon fill="black" stroke="black" points="451.507,-1154.95 446.69,-1145.51 444.571,-1155.89 451.507,-1154.95"/>
<text text-anchor="middle" x="478.5" y="-1198.8" font-family="Times,serif" font-size="14.00">v8 != 0</text>
</g>
<!-- Node0x1047ec70&#45;&gt;Node0x32c02d70 -->
<g id="edge14" class="edge"><title>Node0x1047ec70&#45;&gt;Node0x32c02d70</title>
<path fill="none" stroke="black" d="M382.822,-1183.38C387.988,-1175.12 394.419,-1164.83 401.015,-1154.28"/>
<polygon fill="black" stroke="black" points="403.987,-1156.12 406.319,-1145.79 398.051,-1152.41 403.987,-1156.12"/>
</g>
<!-- Node0x102ab760 -->
<g id="node14" class="node"><title>Node0x102ab760</title>
<polygon fill="none" stroke="black" points="397,-971.5 397,-1009.5 516,-1009.5 516,-971.5 397,-971.5"/>
<text text-anchor="start" x="405" y="-994.3" font-family="Times,serif" font-size="14.00">0x9352370:</text>
<text text-anchor="start" x="405" y="-979.3" font-family="Times,serif" font-size="14.00"> if (v12 == 0):</text>
</g>
<!-- Node0x32c02d70&#45;&gt;Node0x102ab760 -->
<g id="edge15" class="edge"><title>Node0x32c02d70&#45;&gt;Node0x102ab760</title>
<path fill="none" stroke="black" d="M445.739,-1047.46C447.587,-1037.85 449.47,-1028.05 451.134,-1019.4"/>
<polygon fill="black" stroke="black" points="454.585,-1019.99 453.037,-1009.51 447.711,-1018.67 454.585,-1019.99"/>
</g>
<!-- Node0x10481f70 -->
<g id="node15" class="node"><title>Node0x10481f70</title>
<polygon fill="none" stroke="black" points="406,-881.5 406,-919.5 507,-919.5 507,-881.5 406,-881.5"/>
<text text-anchor="start" x="414" y="-904.3" font-family="Times,serif" font-size="14.00">0x9351cb0:</text>
<text text-anchor="start" x="414" y="-889.3" font-family="Times,serif" font-size="14.00"> break</text>
</g>
<!-- Node0x102ab760&#45;&gt;Node0x10481f70 -->
<g id="edge16" class="edge"><title>Node0x102ab760&#45;&gt;Node0x10481f70</title>
<path fill="none" stroke="black" d="M456.5,-971.266C456.5,-959.349 456.5,-943.538 456.5,-929.982"/>
<polygon fill="black" stroke="black" points="460,-929.71 456.5,-919.71 453,-929.71 460,-929.71"/>
<text text-anchor="middle" x="491" y="-941.8" font-family="Times,serif" font-size="14.00">v12 == 0</text>
</g>
<!-- Node0x309cfd20 -->
<g id="node16" class="node"><title>Node0x309cfd20</title>
<polygon fill="none" stroke="black" points="554.5,-881.5 554.5,-919.5 654.5,-919.5 654.5,-881.5 554.5,-881.5"/>
<text text-anchor="start" x="562.5" y="-904.3" font-family="Times,serif" font-size="14.00">0x9351ee0:</text>
<text text-anchor="start" x="562.5" y="-889.3" font-family="Times,serif" font-size="14.00"> v6 = v12</text>
</g>
<!-- Node0x102ab760&#45;&gt;Node0x309cfd20 -->
<g id="edge17" class="edge"><title>Node0x102ab760&#45;&gt;Node0x309cfd20</title>
<path fill="none" stroke="black" d="M495.296,-971.344C506.503,-965.767 518.636,-959.404 529.5,-953 543.651,-944.658 558.682,-934.594 571.543,-925.584"/>
<polygon fill="black" stroke="black" points="573.925,-928.186 580.062,-919.549 569.879,-922.474 573.925,-928.186"/>
<text text-anchor="middle" x="584" y="-941.8" font-family="Times,serif" font-size="14.00">v12 != 0</text>
</g>
<!-- Node0x3e9b7910 -->
<g id="node17" class="node"><title>Node0x3e9b7910</title>
<polygon fill="none" stroke="black" points="387,-775.5 387,-843.5 526,-843.5 526,-775.5 387,-775.5"/>
<text text-anchor="start" x="395" y="-828.3" font-family="Times,serif" font-size="14.00">0xe608750:</text>
<text text-anchor="start" x="395" y="-813.3" font-family="Times,serif" font-size="14.00"> v13 = g39</text>
<text text-anchor="start" x="395" y="-798.3" font-family="Times,serif" font-size="14.00"> g29 = v13</text>
<text text-anchor="start" x="395" y="-783.3" font-family="Times,serif" font-size="14.00"> g9 = (v13 == 0)</text>
</g>
<!-- Node0x10481f70&#45;&gt;Node0x3e9b7910 -->
<g id="edge18" class="edge"><title>Node0x10481f70&#45;&gt;Node0x3e9b7910</title>
<path fill="none" stroke="black" d="M456.5,-881.49C456.5,-873.422 456.5,-863.529 456.5,-853.718"/>
<polygon fill="black" stroke="black" points="460,-853.605 456.5,-843.605 453,-853.605 460,-853.605"/>
</g>
<!-- Node0x309cfd20&#45;&gt;Node0x32bff230 -->
<g id="edge19" class="edge"><title>Node0x309cfd20&#45;&gt;Node0x32bff230</title>
<path fill="none" stroke="black" d="M614.318,-919.806C622.731,-937.217 633.5,-964.406 633.5,-989.5 633.5,-1716.5 633.5,-1716.5 633.5,-1716.5 633.5,-1838.91 482.598,-1912.18 395.56,-1944.26"/>
<polygon fill="black" stroke="black" points="394.268,-1941.01 386.052,-1947.7 396.646,-1947.59 394.268,-1941.01"/>
</g>
<!-- Node0x3e9afdf0 -->
<g id="node18" class="node"><title>Node0x3e9afdf0</title>
<polygon fill="none" stroke="black" points="400,-699.5 400,-737.5 513,-737.5 513,-699.5 400,-699.5"/>
<text text-anchor="start" x="408" y="-722.3" font-family="Times,serif" font-size="14.00">0x9355880:</text>
<text text-anchor="start" x="408" y="-707.3" font-family="Times,serif" font-size="14.00"> if (v13 != 0):</text>
</g>
<!-- Node0x3e9b7910&#45;&gt;Node0x3e9afdf0 -->
<g id="edge20" class="edge"><title>Node0x3e9b7910&#45;&gt;Node0x3e9afdf0</title>
<path fill="none" stroke="black" d="M456.5,-775.36C456.5,-766.365 456.5,-756.707 456.5,-747.993"/>
<polygon fill="black" stroke="black" points="460,-747.941 456.5,-737.941 453,-747.941 460,-747.941"/>
</g>
<!-- Node0x39337030 -->
<g id="node19" class="node"><title>Node0x39337030</title>
<polygon fill="none" stroke="black" points="183,-519.5 183,-647.5 530,-647.5 530,-519.5 183,-519.5"/>
<text text-anchor="start" x="191" y="-632.3" font-family="Times,serif" font-size="14.00">0xe6089d0:</text>
<text text-anchor="start" x="191" y="-617.3" font-family="Times,serif" font-size="14.00"> v14 = *(IntToPtrCastExpr&lt;ptr&gt;(v13))</text>
<text text-anchor="start" x="191" y="-602.3" font-family="Times,serif" font-size="14.00"> g36 = v14</text>
<text text-anchor="start" x="191" y="-587.3" font-family="Times,serif" font-size="14.00"> g39 = *(IntToPtrCastExpr&lt;ptr&gt;((v13 + 12)))</text>
<text text-anchor="start" x="191" y="-572.3" font-family="Times,serif" font-size="14.00"> v15 = IntToPtrCastExpr&lt;ptr&gt;((v14 + 8))</text>
<text text-anchor="start" x="191" y="-557.3" font-family="Times,serif" font-size="14.00"> v16 = (*(v15) + 1)</text>
<text text-anchor="start" x="191" y="-542.3" font-family="Times,serif" font-size="14.00"> g37 = v16</text>
<text text-anchor="start" x="191" y="-527.3" font-family="Times,serif" font-size="14.00"> *(v15) = v16</text>
</g>
<!-- Node0x3e9afdf0&#45;&gt;Node0x39337030 -->
<g id="edge21" class="edge"><title>Node0x3e9afdf0&#45;&gt;Node0x39337030</title>
<path fill="none" stroke="black" d="M442.805,-699.286C434.15,-687.775 422.347,-672.077 410.249,-655.987"/>
<polygon fill="black" stroke="black" points="412.718,-653.446 403.911,-647.557 407.123,-657.653 412.718,-653.446"/>
<text text-anchor="middle" x="459" y="-669.8" font-family="Times,serif" font-size="14.00">v13 != 0</text>
</g>
<!-- Node0x2825d620 -->
<g id="node20" class="node"><title>Node0x2825d620</title>
<polygon fill="none" stroke="black" points="364,-97.5 364,-210.5 597,-210.5 597,-97.5 364,-97.5"/>
<text text-anchor="start" x="372" y="-195.3" font-family="Times,serif" font-size="14.00">0x9355a60:</text>
<text text-anchor="start" x="372" y="-180.3" font-family="Times,serif" font-size="14.00"> g38 = v1</text>
<text text-anchor="start" x="372" y="-165.3" font-family="Times,serif" font-size="14.00"> g39 = v2</text>
<text text-anchor="start" x="372" y="-150.3" font-family="Times,serif" font-size="14.00"> g40 = v3</text>
<text text-anchor="start" x="372" y="-135.3" font-family="Times,serif" font-size="14.00"> g32 = v4</text>
<text text-anchor="start" x="372" y="-120.3" font-family="Times,serif" font-size="14.00"> g34 = v7</text>
<text text-anchor="start" x="372" y="-105.3" font-family="Times,serif" font-size="14.00"> IntToPtrCastExpr&lt;ptr&gt;(v5)()</text>
</g>
<!-- Node0x3e9afdf0&#45;&gt;Node0x2825d620 -->
<g id="edge22" class="edge"><title>Node0x3e9afdf0&#45;&gt;Node0x2825d620</title>
<path fill="none" stroke="black" d="M485.09,-699.315C502.702,-686.8 524.514,-668.729 538.5,-648 555.126,-623.359 559.5,-614.225 559.5,-584.5 559.5,-584.5 559.5,-584.5 559.5,-319 559.5,-283.915 544.644,-248.419 527.816,-219.465"/>
<polygon fill="black" stroke="black" points="530.697,-217.464 522.544,-210.697 524.697,-221.071 530.697,-217.464"/>
<text text-anchor="middle" x="594" y="-458.8" font-family="Times,serif" font-size="14.00">v13 == 0</text>
</g>
<!-- Node0x32b39130 -->
<g id="node21" class="node"><title>Node0x32b39130</title>
<polygon fill="none" stroke="black" points="262.5,-443.5 262.5,-481.5 404.5,-481.5 404.5,-443.5 262.5,-443.5"/>
<text text-anchor="start" x="270.5" y="-466.3" font-family="Times,serif" font-size="14.00">0x93556e0:</text>
<text text-anchor="start" x="270.5" y="-451.3" font-family="Times,serif" font-size="14.00"> while (g39 != 0):</text>
</g>
<!-- Node0x39337030&#45;&gt;Node0x32b39130 -->
<g id="edge23" class="edge"><title>Node0x39337030&#45;&gt;Node0x32b39130</title>
<path fill="none" stroke="black" d="M344.259,-519.167C342.389,-509.489 340.544,-499.945 338.925,-491.568"/>
<polygon fill="black" stroke="black" points="342.344,-490.813 337.01,-481.659 335.471,-492.141 342.344,-490.813"/>
</g>
<!-- Node0x2825d620&#45;&gt;Node0x3e9b7160 -->
<g id="edge24" class="edge"><title>Node0x2825d620&#45;&gt;Node0x3e9b7160</title>
<path fill="none" stroke="black" d="M363.727,-113.419C303.134,-92.8806 233.25,-69.1929 191.536,-55.0537"/>
<polygon fill="black" stroke="black" points="192.408,-51.6536 181.814,-51.7581 190.161,-58.2831 192.408,-51.6536"/>
</g>
<!-- Node0x32c00540 -->
<g id="node22" class="node"><title>Node0x32c00540</title>
<polygon fill="none" stroke="black" points="65,-248.5 65,-391.5 412,-391.5 412,-248.5 65,-248.5"/>
<text text-anchor="start" x="73" y="-376.3" font-family="Times,serif" font-size="14.00">0x46cd9ea0:</text>
<text text-anchor="start" x="73" y="-361.3" font-family="Times,serif" font-size="14.00"> v13 = g39</text>
<text text-anchor="start" x="73" y="-346.3" font-family="Times,serif" font-size="14.00"> v14 = *(IntToPtrCastExpr&lt;ptr&gt;(v13))</text>
<text text-anchor="start" x="73" y="-331.3" font-family="Times,serif" font-size="14.00"> g36 = v14</text>
<text text-anchor="start" x="73" y="-316.3" font-family="Times,serif" font-size="14.00"> g39 = *(IntToPtrCastExpr&lt;ptr&gt;((v13 + 12)))</text>
<text text-anchor="start" x="73" y="-301.3" font-family="Times,serif" font-size="14.00"> v15 = IntToPtrCastExpr&lt;ptr&gt;((v14 + 8))</text>
<text text-anchor="start" x="73" y="-286.3" font-family="Times,serif" font-size="14.00"> v16 = (*(v15) + 1)</text>
<text text-anchor="start" x="73" y="-271.3" font-family="Times,serif" font-size="14.00"> g37 = v16</text>
<text text-anchor="start" x="73" y="-256.3" font-family="Times,serif" font-size="14.00"> *(v15) = v16</text>
</g>
<!-- Node0x32b39130&#45;&gt;Node0x32c00540 -->
<g id="edge25" class="edge"><title>Node0x32b39130&#45;&gt;Node0x32c00540</title>
<path fill="none" stroke="black" d="M266.178,-443.255C258.148,-438.505 250.9,-432.525 245.5,-425 240.457,-417.972 237.054,-409.944 234.853,-401.533"/>
<polygon fill="black" stroke="black" points="238.237,-400.611 232.795,-391.52 231.38,-402.02 238.237,-400.611"/>
<text text-anchor="middle" x="277.5" y="-413.8" font-family="Times,serif" font-size="14.00">g39 != 0</text>
</g>
<!-- Node0x2ba7de90 -->
<g id="node23" class="node"><title>Node0x2ba7de90</title>
<polygon fill="none" stroke="black" points="430,-301 430,-339 531,-339 531,-301 430,-301"/>
<text text-anchor="start" x="438" y="-323.8" font-family="Times,serif" font-size="14.00">0x9355410:</text>
<text text-anchor="start" x="438" y="-308.8" font-family="Times,serif" font-size="14.00"> g9 = True</text>
</g>
<!-- Node0x32b39130&#45;&gt;Node0x2ba7de90 -->
<g id="edge26" class="edge"><title>Node0x32b39130&#45;&gt;Node0x2ba7de90</title>
<path fill="none" stroke="black" d="M358.951,-443.247C376.9,-429.888 401.1,-410.872 420.5,-392 434.774,-378.115 449.227,-361.12 460.37,-347.239"/>
<polygon fill="black" stroke="black" points="463.387,-349.067 466.85,-339.055 457.899,-344.723 463.387,-349.067"/>
<text text-anchor="middle" x="435.5" y="-413.8" font-family="Times,serif" font-size="14.00">g39 == 0</text>
</g>
<!-- Node0x32c00540&#45;&gt;Node0x32b39130 -->
<g id="edge27" class="edge"><title>Node0x32c00540&#45;&gt;Node0x32b39130</title>
<path fill="none" stroke="black" d="M297.201,-391.563C301.54,-397.674 305.7,-403.867 309.5,-410 314.154,-417.511 318.49,-426.071 322.16,-434.027"/>
<polygon fill="black" stroke="black" points="319.028,-435.599 326.283,-443.32 325.427,-432.76 319.028,-435.599"/>
</g>
<!-- Node0x2ba7de90&#45;&gt;Node0x2825d620 -->
<g id="edge28" class="edge"><title>Node0x2ba7de90&#45;&gt;Node0x2825d620</title>
<path fill="none" stroke="black" d="M480.5,-300.823C480.5,-281.501 480.5,-249.806 480.5,-220.893"/>
<polygon fill="black" stroke="black" points="484,-220.807 480.5,-210.807 477,-220.807 484,-220.807"/>
</g>
</g>
</svg>
