<?xml version="1.0" encoding="UTF-8" standalone="no"?>
<!DOCTYPE svg PUBLIC "-//W3C//DTD SVG 1.1//EN"
 "http://www.w3.org/Graphics/SVG/1.1/DTD/svg11.dtd">
<!-- Generated by graphviz version 2.38.0 (20140413.2041)
 -->
<!-- Title: Control&#45;flow graph for function &#39;function_211b4()&#39;. Pages: 1 -->
<svg width="538pt" height="231pt"
 viewBox="0.00 0.00 538.00 231.00" xmlns="http://www.w3.org/2000/svg" xmlns:xlink="http://www.w3.org/1999/xlink">
<g id="graph0" class="graph" transform="scale(1 1) rotate(0) translate(4 227)">
<title>Control&#45;flow graph for function &#39;function_211b4()&#39;.</title>
<polygon fill="white" stroke="none" points="-4,4 -4,-227 534,-227 534,4 -4,4"/>
<text text-anchor="middle" x="265" y="-7.8" font-family="Times,serif" font-size="14.00">Control&#45;flow graph for function &#39;function_211b4()&#39;.</text>
<!-- Node0x24466890 -->
<g id="node1" class="node"><title>Node0x24466890</title>
<polygon fill="none" stroke="black" points="235.5,-186.5 235.5,-222.5 294.5,-222.5 294.5,-186.5 235.5,-186.5"/>
<text text-anchor="start" x="243.5" y="-200.8" font-family="Times,serif" font-size="14.00">entry:</text>
</g>
<!-- Node0x1e6f7560 -->
<g id="node2" class="node"><title>Node0x1e6f7560</title>
<polygon fill="none" stroke="black" points="0,-96.5 0,-149.5 530,-149.5 530,-96.5 0,-96.5"/>
<text text-anchor="start" x="8" y="-134.3" font-family="Times,serif" font-size="14.00">0xa029e00:</text>
<text text-anchor="start" x="8" y="-119.3" font-family="Times,serif" font-size="14.00"> g37 = 5480</text>
<text text-anchor="start" x="8" y="-104.3" font-family="Times,serif" font-size="14.00"> g29 = ExtCastExpr&lt;int32&gt;(*(IntToPtrCastExpr&lt;ptr&gt;((g29 + 5480))))</text>
</g>
<!-- Node0x24466890&#45;&gt;Node0x1e6f7560 -->
<g id="edge1" class="edge"><title>Node0x24466890&#45;&gt;Node0x1e6f7560</title>
<path fill="none" stroke="black" d="M265,-186.25C265,-178.486 265,-169.014 265,-159.825"/>
<polygon fill="black" stroke="black" points="268.5,-159.676 265,-149.676 261.5,-159.676 268.5,-159.676"/>
</g>
<!-- Node0x40d71c50 -->
<g id="node3" class="node"><title>Node0x40d71c50</title>
<polygon fill="none" stroke="black" points="238,-23.5 238,-59.5 292,-59.5 292,-23.5 238,-23.5"/>
<text text-anchor="start" x="246" y="-37.8" font-family="Times,serif" font-size="14.00">exit:</text>
</g>
<!-- Node0x1e6f7560&#45;&gt;Node0x40d71c50 -->
<g id="edge2" class="edge"><title>Node0x1e6f7560&#45;&gt;Node0x40d71c50</title>
<path fill="none" stroke="black" d="M265,-96.4081C265,-87.9823 265,-78.5803 265,-70.0174"/>
<polygon fill="black" stroke="black" points="268.5,-69.7564 265,-59.7564 261.5,-69.7565 268.5,-69.7564"/>
</g>
</g>
</svg>
