<?xml version="1.0" encoding="UTF-8" standalone="no"?>
<!DOCTYPE svg PUBLIC "-//W3C//DTD SVG 1.1//EN"
 "http://www.w3.org/Graphics/SVG/1.1/DTD/svg11.dtd">
<!-- Generated by graphviz version 2.38.0 (20140413.2041)
 -->
<!-- Title: Control&#45;flow graph for function &#39;function_f820()&#39;. Pages: 1 -->
<svg width="1003pt" height="3025pt"
 viewBox="0.00 0.00 1002.50 3025.00" xmlns="http://www.w3.org/2000/svg" xmlns:xlink="http://www.w3.org/1999/xlink">
<g id="graph0" class="graph" transform="scale(1 1) rotate(0) translate(4 3021)">
<title>Control&#45;flow graph for function &#39;function_f820()&#39;.</title>
<polygon fill="white" stroke="none" points="-4,4 -4,-3021 998.5,-3021 998.5,4 -4,4"/>
<text text-anchor="middle" x="497.25" y="-7.8" font-family="Times,serif" font-size="14.00">Control&#45;flow graph for function &#39;function_f820()&#39;.</text>
<!-- Node0x32b472d0 -->
<g id="node1" class="node"><title>Node0x32b472d0</title>
<polygon fill="none" stroke="black" points="384.5,-2980.5 384.5,-3016.5 443.5,-3016.5 443.5,-2980.5 384.5,-2980.5"/>
<text text-anchor="start" x="392.5" y="-2994.8" font-family="Times,serif" font-size="14.00">entry:</text>
</g>
<!-- Node0x1ba4fc60 -->
<g id="node2" class="node"><title>Node0x1ba4fc60</title>
<polygon fill="none" stroke="black" points="347,-2784.5 347,-2942.5 481,-2942.5 481,-2784.5 347,-2784.5"/>
<text text-anchor="start" x="355" y="-2927.3" font-family="Times,serif" font-size="14.00">0x1018e820:</text>
<text text-anchor="start" x="355" y="-2912.3" font-family="Times,serif" font-size="14.00"> v1 = g38</text>
<text text-anchor="start" x="355" y="-2897.3" font-family="Times,serif" font-size="14.00"> v2 = g39</text>
<text text-anchor="start" x="355" y="-2882.3" font-family="Times,serif" font-size="14.00"> g39 = g29</text>
<text text-anchor="start" x="355" y="-2867.3" font-family="Times,serif" font-size="14.00"> g29 = g30</text>
<text text-anchor="start" x="355" y="-2852.3" font-family="Times,serif" font-size="14.00"> g38 = g36</text>
<text text-anchor="start" x="355" y="-2837.3" font-family="Times,serif" font-size="14.00"> function_a758()</text>
<text text-anchor="start" x="355" y="-2822.3" font-family="Times,serif" font-size="14.00"> v3 = g29</text>
<text text-anchor="start" x="355" y="-2807.3" font-family="Times,serif" font-size="14.00"> g9 = (v3 == 0)</text>
<text text-anchor="start" x="355" y="-2792.3" font-family="Times,serif" font-size="14.00"> v4 = &#45;2</text>
</g>
<!-- Node0x32b472d0&#45;&gt;Node0x1ba4fc60 -->
<g id="edge1" class="edge"><title>Node0x32b472d0&#45;&gt;Node0x1ba4fc60</title>
<path fill="none" stroke="black" d="M414,-2980.38C414,-2972.78 414,-2963.21 414,-2952.83"/>
<polygon fill="black" stroke="black" points="417.5,-2952.68 414,-2942.68 410.5,-2952.68 417.5,-2952.68"/>
</g>
<!-- Node0x32b47370 -->
<g id="node3" class="node"><title>Node0x32b47370</title>
<polygon fill="none" stroke="black" points="362,-2708.5 362,-2746.5 466,-2746.5 466,-2708.5 362,-2708.5"/>
<text text-anchor="start" x="370" y="-2731.3" font-family="Times,serif" font-size="14.00">0x785cef0:</text>
<text text-anchor="start" x="370" y="-2716.3" font-family="Times,serif" font-size="14.00"> if (v3 != 0):</text>
</g>
<!-- Node0x1ba4fc60&#45;&gt;Node0x32b47370 -->
<g id="edge2" class="edge"><title>Node0x1ba4fc60&#45;&gt;Node0x32b47370</title>
<path fill="none" stroke="black" d="M414,-2784.16C414,-2774.45 414,-2765.06 414,-2756.85"/>
<polygon fill="black" stroke="black" points="417.5,-2756.8 414,-2746.8 410.5,-2756.8 417.5,-2756.8"/>
</g>
<!-- Node0x160e8830 -->
<g id="node4" class="node"><title>Node0x160e8830</title>
<polygon fill="none" stroke="black" points="281,-2573.5 281,-2656.5 413,-2656.5 413,-2573.5 281,-2573.5"/>
<text text-anchor="start" x="289" y="-2641.3" font-family="Times,serif" font-size="14.00">0x785c720:</text>
<text text-anchor="start" x="289" y="-2626.3" font-family="Times,serif" font-size="14.00"> g29 = g39</text>
<text text-anchor="start" x="289" y="-2611.3" font-family="Times,serif" font-size="14.00"> g36 = g38</text>
<text text-anchor="start" x="289" y="-2596.3" font-family="Times,serif" font-size="14.00"> function_a3cc()</text>
<text text-anchor="start" x="289" y="-2581.3" font-family="Times,serif" font-size="14.00"> v4 = 0</text>
</g>
<!-- Node0x32b47370&#45;&gt;Node0x160e8830 -->
<g id="edge3" class="edge"><title>Node0x32b47370&#45;&gt;Node0x160e8830</title>
<path fill="none" stroke="black" d="M395.707,-2708.46C390.567,-2702.84 385.232,-2696.42 381,-2690 376.081,-2682.54 371.518,-2674.25 367.435,-2666"/>
<polygon fill="black" stroke="black" points="370.49,-2664.27 363.037,-2656.74 364.168,-2667.28 370.49,-2664.27"/>
<text text-anchor="middle" x="408" y="-2678.8" font-family="Times,serif" font-size="14.00">v3 != 0</text>
</g>
<!-- Node0x32b48f80 -->
<g id="node5" class="node"><title>Node0x32b48f80</title>
<polygon fill="none" stroke="black" points="188,-2077.5 188,-2535.5 646,-2535.5 646,-2077.5 188,-2077.5"/>
<text text-anchor="start" x="196" y="-2520.3" font-family="Times,serif" font-size="14.00">0x785d070:</text>
<text text-anchor="start" x="196" y="-2505.3" font-family="Times,serif" font-size="14.00"> g29 = v4</text>
<text text-anchor="start" x="196" y="-2490.3" font-family="Times,serif" font-size="14.00"> g38 = v1</text>
<text text-anchor="start" x="196" y="-2475.3" font-family="Times,serif" font-size="14.00"> g39 = v2</text>
<text text-anchor="start" x="196" y="-2460.3" font-family="Times,serif" font-size="14.00"> v5</text>
<text text-anchor="start" x="196" y="-2445.3" font-family="Times,serif" font-size="14.00"> g34 = v5</text>
<text text-anchor="start" x="196" y="-2430.3" font-family="Times,serif" font-size="14.00"> IntToPtrCastExpr&lt;ptr&gt;(g35)()</text>
<text text-anchor="start" x="196" y="-2415.3" font-family="Times,serif" font-size="14.00"> v6 = g34</text>
<text text-anchor="start" x="196" y="-2400.3" font-family="Times,serif" font-size="14.00"> g33 = v6</text>
<text text-anchor="start" x="196" y="-2385.3" font-family="Times,serif" font-size="14.00"> v7 = IntToPtrCastExpr&lt;ptr&gt;((v6 &#45; 20))</text>
<text text-anchor="start" x="196" y="-2370.3" font-family="Times,serif" font-size="14.00"> *(v7) = g38</text>
<text text-anchor="start" x="196" y="-2355.3" font-family="Times,serif" font-size="14.00"> v8 = IntToPtrCastExpr&lt;ptr&gt;((v6 &#45; 16))</text>
<text text-anchor="start" x="196" y="-2340.3" font-family="Times,serif" font-size="14.00"> *(v8) = g32</text>
<text text-anchor="start" x="196" y="-2325.3" font-family="Times,serif" font-size="14.00"> v9 = IntToPtrCastExpr&lt;ptr&gt;((v6 &#45; 12))</text>
<text text-anchor="start" x="196" y="-2310.3" font-family="Times,serif" font-size="14.00"> *(v9) = g33</text>
<text text-anchor="start" x="196" y="-2295.3" font-family="Times,serif" font-size="14.00"> *(IntToPtrCastExpr&lt;ptr&gt;((v6 &#45; 8))) = g35</text>
<text text-anchor="start" x="196" y="-2280.3" font-family="Times,serif" font-size="14.00"> *(IntToPtrCastExpr&lt;ptr&gt;((v6 &#45; 4))) = 63612</text>
<text text-anchor="start" x="196" y="-2265.3" font-family="Times,serif" font-size="14.00"> v10 = *(IntToPtrCastExpr&lt;ptr&gt;((g29 + 39)))</text>
<text text-anchor="start" x="196" y="-2250.3" font-family="Times,serif" font-size="14.00"> g37 = v10</text>
<text text-anchor="start" x="196" y="-2235.3" font-family="Times,serif" font-size="14.00"> g9 = (v10 == 0)</text>
<text text-anchor="start" x="196" y="-2220.3" font-family="Times,serif" font-size="14.00"> g38 = *(v7)</text>
<text text-anchor="start" x="196" y="-2205.3" font-family="Times,serif" font-size="14.00"> g32 = *(v8)</text>
<text text-anchor="start" x="196" y="-2190.3" font-family="Times,serif" font-size="14.00"> g34 = *(v9)</text>
<text text-anchor="start" x="196" y="-2175.3" font-family="Times,serif" font-size="14.00"> IntToPtrCastExpr&lt;ptr&gt;(ExtCastExpr&lt;int32&gt;((v10 == 0)))()</text>
<text text-anchor="start" x="196" y="-2160.3" font-family="Times,serif" font-size="14.00"> function_979c()</text>
<text text-anchor="start" x="196" y="-2145.3" font-family="Times,serif" font-size="14.00"> v11 = g38</text>
<text text-anchor="start" x="196" y="-2130.3" font-family="Times,serif" font-size="14.00"> v12 = IntToPtrCastExpr&lt;ptr&gt;(v11)</text>
<text text-anchor="start" x="196" y="-2115.3" font-family="Times,serif" font-size="14.00"> v13 = (*(v12) + 164)</text>
<text text-anchor="start" x="196" y="-2100.3" font-family="Times,serif" font-size="14.00"> v14 = *(IntToPtrCastExpr&lt;ptr&gt;(v13))</text>
<text text-anchor="start" x="196" y="-2085.3" font-family="Times,serif" font-size="14.00"> g9 = (v14 == v11)</text>
</g>
<!-- Node0x32b47370&#45;&gt;Node0x32b48f80 -->
<g id="edge4" class="edge"><title>Node0x32b47370&#45;&gt;Node0x32b48f80</title>
<path fill="none" stroke="black" d="M426.896,-2708.38C430.202,-2702.76 433.302,-2696.36 435,-2690 436.721,-2683.56 435.163,-2681.66 435,-2675 433.978,-2633.23 432.303,-2588.82 430.376,-2545.84"/>
<polygon fill="black" stroke="black" points="433.871,-2545.65 429.921,-2535.82 426.878,-2545.97 433.871,-2545.65"/>
<text text-anchor="middle" x="465" y="-2611.3" font-family="Times,serif" font-size="14.00">v3 == 0</text>
</g>
<!-- Node0x160e8830&#45;&gt;Node0x32b48f80 -->
<g id="edge5" class="edge"><title>Node0x160e8830&#45;&gt;Node0x32b48f80</title>
<path fill="none" stroke="black" d="M356.295,-2573.3C358.198,-2564.97 360.326,-2555.65 362.616,-2545.62"/>
<polygon fill="black" stroke="black" points="366.044,-2546.33 364.859,-2535.8 359.22,-2544.77 366.044,-2546.33"/>
</g>
<!-- Node0x32b44270 -->
<g id="node6" class="node"><title>Node0x32b44270</title>
<polygon fill="none" stroke="black" points="352,-2001.5 352,-2039.5 482,-2039.5 482,-2001.5 352,-2001.5"/>
<text text-anchor="start" x="360" y="-2024.3" font-family="Times,serif" font-size="14.00">0x7865f80:</text>
<text text-anchor="start" x="360" y="-2009.3" font-family="Times,serif" font-size="14.00"> if (v14 != v11):</text>
</g>
<!-- Node0x32b48f80&#45;&gt;Node0x32b44270 -->
<g id="edge6" class="edge"><title>Node0x32b48f80&#45;&gt;Node0x32b44270</title>
<path fill="none" stroke="black" d="M417,-2077.27C417,-2067.16 417,-2057.98 417,-2050.13"/>
<polygon fill="black" stroke="black" points="420.5,-2049.95 417,-2039.95 413.5,-2049.95 420.5,-2049.95"/>
</g>
<!-- Node0x160e89c0 -->
<g id="node7" class="node"><title>Node0x160e89c0</title>
<polygon fill="none" stroke="black" points="119,-1896.5 119,-1949.5 415,-1949.5 415,-1896.5 119,-1896.5"/>
<text text-anchor="start" x="127" y="-1934.3" font-family="Times,serif" font-size="14.00">0x1b5de6b0:</text>
<text text-anchor="start" x="127" y="-1919.3" font-family="Times,serif" font-size="14.00"> v15 = (v14 + 4)</text>
<text text-anchor="start" x="127" y="-1904.3" font-family="Times,serif" font-size="14.00"> v16 = *(IntToPtrCastExpr&lt;ptr&gt;(v15))</text>
</g>
<!-- Node0x32b44270&#45;&gt;Node0x160e89c0 -->
<g id="edge7" class="edge"><title>Node0x32b44270&#45;&gt;Node0x160e89c0</title>
<path fill="none" stroke="black" d="M381.774,-2001.33C371.393,-1995.7 360.111,-1989.32 350,-1983 336.47,-1974.55 322.166,-1964.72 309.315,-1955.55"/>
<polygon fill="black" stroke="black" points="311.262,-1952.63 301.102,-1949.63 307.17,-1958.31 311.262,-1952.63"/>
<text text-anchor="middle" x="390" y="-1971.8" font-family="Times,serif" font-size="14.00">v14 != v11</text>
</g>
<!-- Node0x32b47650 -->
<g id="node8" class="node"><title>Node0x32b47650</title>
<polygon fill="none" stroke="black" points="171.5,-1144.5 171.5,-1677.5 664.5,-1677.5 664.5,-1144.5 171.5,-1144.5"/>
<text text-anchor="start" x="179.5" y="-1662.3" font-family="Times,serif" font-size="14.00">0x1bdb8270:</text>
<text text-anchor="start" x="179.5" y="-1647.3" font-family="Times,serif" font-size="14.00"> v17 = *(IntToPtrCastExpr&lt;ptr&gt;((v11 + 4)))</text>
<text text-anchor="start" x="179.5" y="-1632.3" font-family="Times,serif" font-size="14.00"> g36 = v17</text>
<text text-anchor="start" x="179.5" y="-1617.3" font-family="Times,serif" font-size="14.00"> g37 = *(IntToPtrCastExpr&lt;ptr&gt;((*(v12) + 4)))</text>
<text text-anchor="start" x="179.5" y="-1602.3" font-family="Times,serif" font-size="14.00"> *(IntToPtrCastExpr&lt;ptr&gt;(v13)) = v17</text>
<text text-anchor="start" x="179.5" y="-1587.3" font-family="Times,serif" font-size="14.00"> v18 = g37</text>
<text text-anchor="start" x="179.5" y="-1572.3" font-family="Times,serif" font-size="14.00"> g29 = v18</text>
<text text-anchor="start" x="179.5" y="-1557.3" font-family="Times,serif" font-size="14.00"> g30 = g38</text>
<text text-anchor="start" x="179.5" y="-1542.3" font-family="Times,serif" font-size="14.00"> g35 = 63696</text>
<text text-anchor="start" x="179.5" y="-1527.3" font-family="Times,serif" font-size="14.00"> IntToPtrCastExpr&lt;ptr&gt;(*(IntToPtrCastExpr&lt;ptr&gt;((v18 + 4))))()</text>
<text text-anchor="start" x="179.5" y="-1512.3" font-family="Times,serif" font-size="14.00"> v19 = g34</text>
<text text-anchor="start" x="179.5" y="-1497.3" font-family="Times,serif" font-size="14.00"> g38 = *(IntToPtrCastExpr&lt;ptr&gt;((v19 + 4)))</text>
<text text-anchor="start" x="179.5" y="-1482.3" font-family="Times,serif" font-size="14.00"> g32 = *(IntToPtrCastExpr&lt;ptr&gt;((v19 + 8)))</text>
<text text-anchor="start" x="179.5" y="-1467.3" font-family="Times,serif" font-size="14.00"> g34 = *(IntToPtrCastExpr&lt;ptr&gt;((v19 + 12)))</text>
<text text-anchor="start" x="179.5" y="-1452.3" font-family="Times,serif" font-size="14.00"> IntToPtrCastExpr&lt;ptr&gt;(*(IntToPtrCastExpr&lt;ptr&gt;((v19 + 16))))()</text>
<text text-anchor="start" x="179.5" y="-1437.3" font-family="Times,serif" font-size="14.00"> v20 = g34</text>
<text text-anchor="start" x="179.5" y="-1422.3" font-family="Times,serif" font-size="14.00"> g33 = v20</text>
<text text-anchor="start" x="179.5" y="-1407.3" font-family="Times,serif" font-size="14.00"> *(IntToPtrCastExpr&lt;ptr&gt;((v20 &#45; 28))) = g38</text>
<text text-anchor="start" x="179.5" y="-1392.3" font-family="Times,serif" font-size="14.00"> *(IntToPtrCastExpr&lt;ptr&gt;((v20 &#45; 24))) = g39</text>
<text text-anchor="start" x="179.5" y="-1377.3" font-family="Times,serif" font-size="14.00"> *(IntToPtrCastExpr&lt;ptr&gt;((v20 &#45; 20))) = g40</text>
<text text-anchor="start" x="179.5" y="-1362.3" font-family="Times,serif" font-size="14.00"> *(IntToPtrCastExpr&lt;ptr&gt;((v20 &#45; 16))) = g32</text>
<text text-anchor="start" x="179.5" y="-1347.3" font-family="Times,serif" font-size="14.00"> *(IntToPtrCastExpr&lt;ptr&gt;((v20 &#45; 12))) = g33</text>
<text text-anchor="start" x="179.5" y="-1332.3" font-family="Times,serif" font-size="14.00"> *(IntToPtrCastExpr&lt;ptr&gt;((v20 &#45; 8))) = g35</text>
<text text-anchor="start" x="179.5" y="-1317.3" font-family="Times,serif" font-size="14.00"> *(IntToPtrCastExpr&lt;ptr&gt;((v20 &#45; 4))) = 63712</text>
<text text-anchor="start" x="179.5" y="-1302.3" font-family="Times,serif" font-size="14.00"> g32 = (g33 &#45; 4)</text>
<text text-anchor="start" x="179.5" y="-1287.3" font-family="Times,serif" font-size="14.00"> g34 = (v20 &#45; 32)</text>
<text text-anchor="start" x="179.5" y="-1272.3" font-family="Times,serif" font-size="14.00"> v21 = g30</text>
<text text-anchor="start" x="179.5" y="-1257.3" font-family="Times,serif" font-size="14.00"> g39 = v21</text>
<text text-anchor="start" x="179.5" y="-1242.3" font-family="Times,serif" font-size="14.00"> g30 = ((256 * v21) + 652)</text>
<text text-anchor="start" x="179.5" y="-1227.3" font-family="Times,serif" font-size="14.00"> g40 = g29</text>
<text text-anchor="start" x="179.5" y="-1212.3" font-family="Times,serif" font-size="14.00"> function_f28c()</text>
<text text-anchor="start" x="179.5" y="-1197.3" font-family="Times,serif" font-size="14.00"> v22 = g29</text>
<text text-anchor="start" x="179.5" y="-1182.3" font-family="Times,serif" font-size="14.00"> g9 = (v22 == 0)</text>
<text text-anchor="start" x="179.5" y="-1167.3" font-family="Times,serif" font-size="14.00"> g38 = v22</text>
<text text-anchor="start" x="179.5" y="-1152.3" font-family="Times,serif" font-size="14.00"> v23</text>
</g>
<!-- Node0x32b44270&#45;&gt;Node0x32b47650 -->
<g id="edge8" class="edge"><title>Node0x32b44270&#45;&gt;Node0x32b47650</title>
<path fill="none" stroke="black" d="M425.395,-2001.27C433.321,-1982.36 444,-1951.74 444,-1924 444,-1924 444,-1924 444,-1741 444,-1723.6 443.634,-1705.69 442.989,-1687.65"/>
<polygon fill="black" stroke="black" points="446.485,-1687.47 442.602,-1677.61 439.49,-1687.74 446.485,-1687.47"/>
<text text-anchor="middle" x="487" y="-1835.8" font-family="Times,serif" font-size="14.00">v14 == v11</text>
</g>
<!-- Node0x32b4a880 -->
<g id="node9" class="node"><title>Node0x32b4a880</title>
<polygon fill="none" stroke="black" points="170,-1820.5 170,-1858.5 328,-1858.5 328,-1820.5 170,-1820.5"/>
<text text-anchor="start" x="178" y="-1843.3" font-family="Times,serif" font-size="14.00">0x7865de0:</text>
<text text-anchor="start" x="178" y="-1828.3" font-family="Times,serif" font-size="14.00"> while (v16 != v11):</text>
</g>
<!-- Node0x160e89c0&#45;&gt;Node0x32b4a880 -->
<g id="edge9" class="edge"><title>Node0x160e89c0&#45;&gt;Node0x32b4a880</title>
<path fill="none" stroke="black" d="M261.305,-1896.21C259.365,-1887.43 257.188,-1877.57 255.21,-1868.62"/>
<polygon fill="black" stroke="black" points="258.58,-1867.65 253.006,-1858.64 251.745,-1869.16 258.58,-1867.65"/>
</g>
<!-- Node0x32b4b130 -->
<g id="node10" class="node"><title>Node0x32b4b130</title>
<polygon fill="none" stroke="black" points="358.5,-1068.5 358.5,-1106.5 477.5,-1106.5 477.5,-1068.5 358.5,-1068.5"/>
<text text-anchor="start" x="366.5" y="-1091.3" font-family="Times,serif" font-size="14.00">0x7872560:</text>
<text text-anchor="start" x="366.5" y="-1076.3" font-family="Times,serif" font-size="14.00"> if (v22 == 0):</text>
</g>
<!-- Node0x32b47650&#45;&gt;Node0x32b4b130 -->
<g id="edge10" class="edge"><title>Node0x32b47650&#45;&gt;Node0x32b4b130</title>
<path fill="none" stroke="black" d="M418,-1144.13C418,-1133.93 418,-1124.74 418,-1116.9"/>
<polygon fill="black" stroke="black" points="421.5,-1116.75 418,-1106.75 414.5,-1116.75 421.5,-1116.75"/>
</g>
<!-- Node0x33645e30 -->
<g id="node11" class="node"><title>Node0x33645e30</title>
<polygon fill="none" stroke="black" points="0,-1715.5 0,-1768.5 296,-1768.5 296,-1715.5 0,-1715.5"/>
<text text-anchor="start" x="8" y="-1753.3" font-family="Times,serif" font-size="14.00">0x2410f300:</text>
<text text-anchor="start" x="8" y="-1738.3" font-family="Times,serif" font-size="14.00"> v15 = (v16 + 4)</text>
<text text-anchor="start" x="8" y="-1723.3" font-family="Times,serif" font-size="14.00"> v16 = *(IntToPtrCastExpr&lt;ptr&gt;(v15))</text>
</g>
<!-- Node0x32b4a880&#45;&gt;Node0x33645e30 -->
<g id="edge11" class="edge"><title>Node0x32b4a880&#45;&gt;Node0x33645e30</title>
<path fill="none" stroke="black" d="M175.721,-1820.35C167.371,-1815.59 159.794,-1809.58 154,-1802 148.932,-1795.37 146.472,-1787.03 145.476,-1778.71"/>
<polygon fill="black" stroke="black" points="148.97,-1778.5 144.911,-1768.71 141.981,-1778.89 148.97,-1778.5"/>
<text text-anchor="middle" x="194" y="-1790.8" font-family="Times,serif" font-size="14.00">v16 != v11</text>
</g>
<!-- Node0xb095750 -->
<g id="node12" class="node"><title>Node0xb095750</title>
<polygon fill="none" stroke="black" points="314.5,-1715.5 314.5,-1768.5 415.5,-1768.5 415.5,-1715.5 314.5,-1715.5"/>
<text text-anchor="start" x="322.5" y="-1753.3" font-family="Times,serif" font-size="14.00">0x78659c0:</text>
<text text-anchor="start" x="322.5" y="-1738.3" font-family="Times,serif" font-size="14.00"> g9 = True</text>
<text text-anchor="start" x="322.5" y="-1723.3" font-family="Times,serif" font-size="14.00"> v13 = v15</text>
</g>
<!-- Node0x32b4a880&#45;&gt;Node0xb095750 -->
<g id="edge12" class="edge"><title>Node0x32b4a880&#45;&gt;Node0xb095750</title>
<path fill="none" stroke="black" d="M271.092,-1820.31C286.483,-1807.64 307.436,-1790.39 325.645,-1775.4"/>
<polygon fill="black" stroke="black" points="328.293,-1777.75 333.789,-1768.7 323.844,-1772.35 328.293,-1777.75"/>
<text text-anchor="middle" x="354" y="-1790.8" font-family="Times,serif" font-size="14.00">v16 == v11</text>
</g>
<!-- Node0xb095520 -->
<g id="node13" class="node"><title>Node0xb095520</title>
<polygon fill="none" stroke="black" points="108.5,-666.5 108.5,-824.5 601.5,-824.5 601.5,-666.5 108.5,-666.5"/>
<text text-anchor="start" x="116.5" y="-809.3" font-family="Times,serif" font-size="14.00">0x786f9b0:</text>
<text text-anchor="start" x="116.5" y="-794.3" font-family="Times,serif" font-size="14.00"> g29 = 0</text>
<text text-anchor="start" x="116.5" y="-779.3" font-family="Times,serif" font-size="14.00"> v23 = g34</text>
<text text-anchor="start" x="116.5" y="-764.3" font-family="Times,serif" font-size="14.00"> g38 = *(IntToPtrCastExpr&lt;ptr&gt;((v23 + 4)))</text>
<text text-anchor="start" x="116.5" y="-749.3" font-family="Times,serif" font-size="14.00"> g39 = *(IntToPtrCastExpr&lt;ptr&gt;((v23 + 8)))</text>
<text text-anchor="start" x="116.5" y="-734.3" font-family="Times,serif" font-size="14.00"> g40 = *(IntToPtrCastExpr&lt;ptr&gt;((v23 + 12)))</text>
<text text-anchor="start" x="116.5" y="-719.3" font-family="Times,serif" font-size="14.00"> g32 = *(IntToPtrCastExpr&lt;ptr&gt;((v23 + 16)))</text>
<text text-anchor="start" x="116.5" y="-704.3" font-family="Times,serif" font-size="14.00"> g34 = *(IntToPtrCastExpr&lt;ptr&gt;((v23 + 20)))</text>
<text text-anchor="start" x="116.5" y="-689.3" font-family="Times,serif" font-size="14.00"> IntToPtrCastExpr&lt;ptr&gt;(*(IntToPtrCastExpr&lt;ptr&gt;((v23 + 24))))()</text>
<text text-anchor="start" x="116.5" y="-674.3" font-family="Times,serif" font-size="14.00"> return</text>
</g>
<!-- Node0x32b4b130&#45;&gt;Node0xb095520 -->
<g id="edge13" class="edge"><title>Node0x32b4b130&#45;&gt;Node0xb095520</title>
<path fill="none" stroke="black" d="M400.435,-1068.48C395.993,-1062.95 391.718,-1056.58 389,-1050 360.686,-981.407 353.169,-897.101 352.172,-834.765"/>
<polygon fill="black" stroke="black" points="355.669,-834.527 352.063,-824.565 348.67,-834.601 355.669,-834.527"/>
<text text-anchor="middle" x="423.5" y="-1038.8" font-family="Times,serif" font-size="14.00">v22 == 0</text>
</g>
<!-- Node0x32b4b450 -->
<g id="node14" class="node"><title>Node0x32b4b450</title>
<polygon fill="none" stroke="black" points="434.5,-843.5 434.5,-1016.5 763.5,-1016.5 763.5,-843.5 434.5,-843.5"/>
<text text-anchor="start" x="442.5" y="-1001.3" font-family="Times,serif" font-size="14.00">0x7872960:</text>
<text text-anchor="start" x="442.5" y="-986.3" font-family="Times,serif" font-size="14.00"> g37 = g39</text>
<text text-anchor="start" x="442.5" y="-971.3" font-family="Times,serif" font-size="14.00"> g30 = g40</text>
<text text-anchor="start" x="442.5" y="-956.3" font-family="Times,serif" font-size="14.00"> g36 = (v22 + 652)</text>
<text text-anchor="start" x="442.5" y="-941.3" font-family="Times,serif" font-size="14.00"> function_a264()</text>
<text text-anchor="start" x="442.5" y="-926.3" font-family="Times,serif" font-size="14.00"> g29 = (g40 + 164)</text>
<text text-anchor="start" x="442.5" y="-911.3" font-family="Times,serif" font-size="14.00"> *(IntToPtrCastExpr&lt;ptr&gt;((g38 + 39))) = 1</text>
<text text-anchor="start" x="442.5" y="-896.3" font-family="Times,serif" font-size="14.00"> v24 = g29</text>
<text text-anchor="start" x="442.5" y="-881.3" font-family="Times,serif" font-size="14.00"> v25 = *(IntToPtrCastExpr&lt;ptr&gt;(v24))</text>
<text text-anchor="start" x="442.5" y="-866.3" font-family="Times,serif" font-size="14.00"> g37 = v25</text>
<text text-anchor="start" x="442.5" y="-851.3" font-family="Times,serif" font-size="14.00"> g9 = (v25 == 0)</text>
</g>
<!-- Node0x32b4b130&#45;&gt;Node0x32b4b450 -->
<g id="edge14" class="edge"><title>Node0x32b4b130&#45;&gt;Node0x32b4b450</title>
<path fill="none" stroke="black" d="M439.117,-1068.36C452.761,-1056.64 471.663,-1040.4 491.704,-1023.18"/>
<polygon fill="black" stroke="black" points="494.127,-1025.71 499.432,-1016.54 489.566,-1020.4 494.127,-1025.71"/>
<text text-anchor="middle" x="508.5" y="-1038.8" font-family="Times,serif" font-size="14.00">v22 != 0</text>
</g>
<!-- Node0x33645e30&#45;&gt;Node0x32b4a880 -->
<g id="edge15" class="edge"><title>Node0x33645e30&#45;&gt;Node0x32b4a880</title>
<path fill="none" stroke="black" d="M212.929,-1768.63C220.803,-1773.8 228.124,-1779.89 234,-1787 239.423,-1793.56 242.885,-1802 245.096,-1810.15"/>
<polygon fill="black" stroke="black" points="241.725,-1811.11 247.281,-1820.14 248.564,-1809.62 241.725,-1811.11"/>
</g>
<!-- Node0xb095750&#45;&gt;Node0x32b47650 -->
<g id="edge16" class="edge"><title>Node0xb095750&#45;&gt;Node0x32b47650</title>
<path fill="none" stroke="black" d="M369.115,-1715.46C370.381,-1707.6 371.895,-1698.2 373.594,-1687.65"/>
<polygon fill="black" stroke="black" points="377.069,-1688.09 375.204,-1677.66 370.158,-1686.98 377.069,-1688.09"/>
</g>
<!-- Node0x32b47570 -->
<g id="node15" class="node"><title>Node0x32b47570</title>
<polygon fill="none" stroke="black" points="432,-23.5 432,-59.5 486,-59.5 486,-23.5 432,-23.5"/>
<text text-anchor="start" x="440" y="-37.8" font-family="Times,serif" font-size="14.00">exit:</text>
</g>
<!-- Node0xb095520&#45;&gt;Node0x32b47570 -->
<g id="edge17" class="edge"><title>Node0xb095520&#45;&gt;Node0x32b47570</title>
<path fill="none" stroke="black" d="M355,-666.375C355,-640.333 355,-611.167 355,-584.5 355,-584.5 355,-584.5 355,-175.5 355,-129.283 394.453,-89.5432 424.76,-65.8347"/>
<polygon fill="black" stroke="black" points="427.162,-68.4059 433.025,-59.5807 422.938,-62.8238 427.162,-68.4059"/>
</g>
<!-- Node0x33643f60 -->
<g id="node16" class="node"><title>Node0x33643f60</title>
<polygon fill="none" stroke="black" points="560.5,-609.5 560.5,-647.5 673.5,-647.5 673.5,-609.5 560.5,-609.5"/>
<text text-anchor="start" x="568.5" y="-632.3" font-family="Times,serif" font-size="14.00">0x7876900:</text>
<text text-anchor="start" x="568.5" y="-617.3" font-family="Times,serif" font-size="14.00"> if (v25 != 0):</text>
</g>
<!-- Node0x32b4b450&#45;&gt;Node0x33643f60 -->
<g id="edge18" class="edge"><title>Node0x32b4b450&#45;&gt;Node0x33643f60</title>
<path fill="none" stroke="black" d="M604.158,-843.175C607.914,-780.683 612.769,-699.907 615.298,-657.826"/>
<polygon fill="black" stroke="black" points="618.797,-657.946 615.903,-647.754 611.809,-657.526 618.797,-657.946"/>
</g>
<!-- Node0x336458b0 -->
<g id="node17" class="node"><title>Node0x336458b0</title>
<polygon fill="none" stroke="black" points="464,-489.5 464,-557.5 760,-557.5 760,-489.5 464,-489.5"/>
<text text-anchor="start" x="472" y="-542.3" font-family="Times,serif" font-size="14.00">0x15caefc0:</text>
<text text-anchor="start" x="472" y="-527.3" font-family="Times,serif" font-size="14.00"> v26 = (v25 + 4)</text>
<text text-anchor="start" x="472" y="-512.3" font-family="Times,serif" font-size="14.00"> v27 = *(IntToPtrCastExpr&lt;ptr&gt;(v26))</text>
<text text-anchor="start" x="472" y="-497.3" font-family="Times,serif" font-size="14.00"> g37 = v27</text>
</g>
<!-- Node0x33643f60&#45;&gt;Node0x336458b0 -->
<g id="edge19" class="edge"><title>Node0x33643f60&#45;&gt;Node0x336458b0</title>
<path fill="none" stroke="black" d="M616.106,-609.086C615.55,-597.631 614.81,-582.39 614.112,-568.003"/>
<polygon fill="black" stroke="black" points="617.595,-567.562 613.614,-557.743 610.603,-567.901 617.595,-567.562"/>
<text text-anchor="middle" x="647.5" y="-579.8" font-family="Times,serif" font-size="14.00">v25 != 0</text>
</g>
<!-- Node0x336441f0 -->
<g id="node18" class="node"><title>Node0x336441f0</title>
<polygon fill="none" stroke="black" points="501.5,-97.5 501.5,-255.5 994.5,-255.5 994.5,-97.5 501.5,-97.5"/>
<text text-anchor="start" x="509.5" y="-240.3" font-family="Times,serif" font-size="14.00">0x7876f50:</text>
<text text-anchor="start" x="509.5" y="-225.3" font-family="Times,serif" font-size="14.00"> *(IntToPtrCastExpr&lt;ptr&gt;(v24)) = g38</text>
<text text-anchor="start" x="509.5" y="-210.3" font-family="Times,serif" font-size="14.00"> g29 = g38</text>
<text text-anchor="start" x="509.5" y="-195.3" font-family="Times,serif" font-size="14.00"> v23 = g34</text>
<text text-anchor="start" x="509.5" y="-180.3" font-family="Times,serif" font-size="14.00"> g38 = *(IntToPtrCastExpr&lt;ptr&gt;((v23 + 4)))</text>
<text text-anchor="start" x="509.5" y="-165.3" font-family="Times,serif" font-size="14.00"> g39 = *(IntToPtrCastExpr&lt;ptr&gt;((v23 + 8)))</text>
<text text-anchor="start" x="509.5" y="-150.3" font-family="Times,serif" font-size="14.00"> g40 = *(IntToPtrCastExpr&lt;ptr&gt;((v23 + 12)))</text>
<text text-anchor="start" x="509.5" y="-135.3" font-family="Times,serif" font-size="14.00"> g32 = *(IntToPtrCastExpr&lt;ptr&gt;((v23 + 16)))</text>
<text text-anchor="start" x="509.5" y="-120.3" font-family="Times,serif" font-size="14.00"> g34 = *(IntToPtrCastExpr&lt;ptr&gt;((v23 + 20)))</text>
<text text-anchor="start" x="509.5" y="-105.3" font-family="Times,serif" font-size="14.00"> IntToPtrCastExpr&lt;ptr&gt;(*(IntToPtrCastExpr&lt;ptr&gt;((v23 + 24))))()</text>
</g>
<!-- Node0x33643f60&#45;&gt;Node0x336441f0 -->
<g id="edge20" class="edge"><title>Node0x33643f60&#45;&gt;Node0x336441f0</title>
<path fill="none" stroke="black" d="M673.552,-623.642C735.751,-615.965 827,-593.025 827,-524.5 827,-524.5 827,-524.5 827,-326.5 827,-305.268 820.661,-284.109 811.575,-264.685"/>
<polygon fill="black" stroke="black" points="814.644,-262.997 807.065,-255.594 808.373,-266.108 814.644,-262.997"/>
<text text-anchor="middle" x="861.5" y="-428.8" font-family="Times,serif" font-size="14.00">v25 == 0</text>
</g>
<!-- Node0x33645aa0 -->
<g id="node19" class="node"><title>Node0x33645aa0</title>
<polygon fill="none" stroke="black" points="539.5,-413.5 539.5,-451.5 680.5,-451.5 680.5,-413.5 539.5,-413.5"/>
<text text-anchor="start" x="547.5" y="-436.3" font-family="Times,serif" font-size="14.00">0x7876760:</text>
<text text-anchor="start" x="547.5" y="-421.3" font-family="Times,serif" font-size="14.00"> while (v27 != 0):</text>
</g>
<!-- Node0x336458b0&#45;&gt;Node0x33645aa0 -->
<g id="edge21" class="edge"><title>Node0x336458b0&#45;&gt;Node0x33645aa0</title>
<path fill="none" stroke="black" d="M611.255,-489.36C611.053,-480.365 610.836,-470.707 610.64,-461.993"/>
<polygon fill="black" stroke="black" points="614.138,-461.86 610.414,-451.941 607.14,-462.017 614.138,-461.86"/>
</g>
<!-- Node0x336441f0&#45;&gt;Node0x32b47570 -->
<g id="edge22" class="edge"><title>Node0x336441f0&#45;&gt;Node0x32b47570</title>
<path fill="none" stroke="black" d="M578.216,-97.3641C546.964,-82.9816 517.34,-69.3487 495.441,-59.2702"/>
<polygon fill="black" stroke="black" points="496.793,-56.0397 486.245,-55.0385 493.866,-62.3986 496.793,-56.0397"/>
</g>
<!-- Node0x336460b0 -->
<g id="node20" class="node"><title>Node0x336460b0</title>
<polygon fill="none" stroke="black" points="383,-293.5 383,-361.5 679,-361.5 679,-293.5 383,-293.5"/>
<text text-anchor="start" x="391" y="-346.3" font-family="Times,serif" font-size="14.00">0x146bfb60:</text>
<text text-anchor="start" x="391" y="-331.3" font-family="Times,serif" font-size="14.00"> v26 = (v27 + 4)</text>
<text text-anchor="start" x="391" y="-316.3" font-family="Times,serif" font-size="14.00"> v27 = *(IntToPtrCastExpr&lt;ptr&gt;(v26))</text>
<text text-anchor="start" x="391" y="-301.3" font-family="Times,serif" font-size="14.00"> g37 = v27</text>
</g>
<!-- Node0x33645aa0&#45;&gt;Node0x336460b0 -->
<g id="edge23" class="edge"><title>Node0x33645aa0&#45;&gt;Node0x336460b0</title>
<path fill="none" stroke="black" d="M551.412,-413.321C543.744,-408.539 536.872,-402.533 532,-395 527.591,-388.183 525.529,-380.094 524.856,-371.946"/>
<polygon fill="black" stroke="black" points="528.351,-371.622 524.676,-361.685 521.352,-371.745 528.351,-371.622"/>
<text text-anchor="middle" x="563.5" y="-383.8" font-family="Times,serif" font-size="14.00">v27 != 0</text>
</g>
<!-- Node0x33645c90 -->
<g id="node21" class="node"><title>Node0x33645c90</title>
<polygon fill="none" stroke="black" points="697.5,-301 697.5,-354 798.5,-354 798.5,-301 697.5,-301"/>
<text text-anchor="start" x="705.5" y="-338.8" font-family="Times,serif" font-size="14.00">0x7876360:</text>
<text text-anchor="start" x="705.5" y="-323.8" font-family="Times,serif" font-size="14.00"> g9 = True</text>
<text text-anchor="start" x="705.5" y="-308.8" font-family="Times,serif" font-size="14.00"> v24 = v26</text>
</g>
<!-- Node0x33645aa0&#45;&gt;Node0x33645c90 -->
<g id="edge24" class="edge"><title>Node0x33645aa0&#45;&gt;Node0x33645c90</title>
<path fill="none" stroke="black" d="M634.354,-413.323C654.081,-398.599 682.339,-377.508 705.742,-360.04"/>
<polygon fill="black" stroke="black" points="707.875,-362.816 713.796,-354.029 703.688,-357.206 707.875,-362.816"/>
<text text-anchor="middle" x="713.5" y="-383.8" font-family="Times,serif" font-size="14.00">v27 == 0</text>
</g>
<!-- Node0x336460b0&#45;&gt;Node0x33645aa0 -->
<g id="edge25" class="edge"><title>Node0x336460b0&#45;&gt;Node0x33645aa0</title>
<path fill="none" stroke="black" d="M579.037,-361.52C585.012,-367.155 590.568,-373.356 595,-380 599.651,-386.972 602.886,-395.407 605.125,-403.415"/>
<polygon fill="black" stroke="black" points="601.732,-404.275 607.461,-413.187 608.54,-402.647 601.732,-404.275"/>
</g>
<!-- Node0x33645c90&#45;&gt;Node0x336441f0 -->
<g id="edge26" class="edge"><title>Node0x33645c90&#45;&gt;Node0x336441f0</title>
<path fill="none" stroke="black" d="M748,-300.886C748,-290.841 748,-278.673 748,-265.941"/>
<polygon fill="black" stroke="black" points="751.5,-265.64 748,-255.64 744.5,-265.64 751.5,-265.64"/>
</g>
</g>
</svg>
