<?xml version="1.0" encoding="UTF-8" standalone="no"?>
<!DOCTYPE svg PUBLIC "-//W3C//DTD SVG 1.1//EN"
 "http://www.w3.org/Graphics/SVG/1.1/DTD/svg11.dtd">
<!-- Generated by graphviz version 2.38.0 (20140413.2041)
 -->
<!-- Title: Control&#45;flow graph for function &#39;function_13264()&#39;. Pages: 1 -->
<svg width="386pt" height="261pt"
 viewBox="0.00 0.00 386.00 261.00" xmlns="http://www.w3.org/2000/svg" xmlns:xlink="http://www.w3.org/1999/xlink">
<g id="graph0" class="graph" transform="scale(1 1) rotate(0) translate(4 257)">
<title>Control&#45;flow graph for function &#39;function_13264()&#39;.</title>
<polygon fill="white" stroke="none" points="-4,4 -4,-257 382,-257 382,4 -4,4"/>
<text text-anchor="middle" x="189" y="-7.8" font-family="Times,serif" font-size="14.00">Control&#45;flow graph for function &#39;function_13264()&#39;.</text>
<!-- Node0x21b0b4d0 -->
<g id="node1" class="node"><title>Node0x21b0b4d0</title>
<polygon fill="none" stroke="black" points="159.5,-216.5 159.5,-252.5 218.5,-252.5 218.5,-216.5 159.5,-216.5"/>
<text text-anchor="start" x="167.5" y="-230.8" font-family="Times,serif" font-size="14.00">entry:</text>
</g>
<!-- Node0x3408ab30 -->
<g id="node2" class="node"><title>Node0x3408ab30</title>
<polygon fill="none" stroke="black" points="33.5,-96.5 33.5,-179.5 344.5,-179.5 344.5,-96.5 33.5,-96.5"/>
<text text-anchor="start" x="41.5" y="-164.3" font-family="Times,serif" font-size="14.00">0x21567b90:</text>
<text text-anchor="start" x="41.5" y="-149.3" font-family="Times,serif" font-size="14.00"> v1 = IntToPtrCastExpr&lt;ptr&gt;((g29 + 8))</text>
<text text-anchor="start" x="41.5" y="-134.3" font-family="Times,serif" font-size="14.00"> v2 = (g30 + *(v1))</text>
<text text-anchor="start" x="41.5" y="-119.3" font-family="Times,serif" font-size="14.00"> g37 = v2</text>
<text text-anchor="start" x="41.5" y="-104.3" font-family="Times,serif" font-size="14.00"> *(v1) = v2</text>
</g>
<!-- Node0x21b0b4d0&#45;&gt;Node0x3408ab30 -->
<g id="edge1" class="edge"><title>Node0x21b0b4d0&#45;&gt;Node0x3408ab30</title>
<path fill="none" stroke="black" d="M189,-216.167C189,-208.654 189,-199.427 189,-189.999"/>
<polygon fill="black" stroke="black" points="192.5,-189.762 189,-179.762 185.5,-189.762 192.5,-189.762"/>
</g>
<!-- Node0x21b108a0 -->
<g id="node3" class="node"><title>Node0x21b108a0</title>
<polygon fill="none" stroke="black" points="162,-23.5 162,-59.5 216,-59.5 216,-23.5 162,-23.5"/>
<text text-anchor="start" x="170" y="-37.8" font-family="Times,serif" font-size="14.00">exit:</text>
</g>
<!-- Node0x3408ab30&#45;&gt;Node0x21b108a0 -->
<g id="edge2" class="edge"><title>Node0x3408ab30&#45;&gt;Node0x21b108a0</title>
<path fill="none" stroke="black" d="M189,-96.3751C189,-87.4706 189,-78.246 189,-70"/>
<polygon fill="black" stroke="black" points="192.5,-69.8327 189,-59.8328 185.5,-69.8328 192.5,-69.8327"/>
</g>
</g>
</svg>
