<?xml version="1.0" encoding="UTF-8" standalone="no"?>
<!DOCTYPE svg PUBLIC "-//W3C//DTD SVG 1.1//EN"
 "http://www.w3.org/Graphics/SVG/1.1/DTD/svg11.dtd">
<!-- Generated by graphviz version 2.38.0 (20140413.2041)
 -->
<!-- Title: Control&#45;flow graph for function &#39;function_18920()&#39;. Pages: 1 -->
<svg width="570pt" height="858pt"
 viewBox="0.00 0.00 570.00 858.00" xmlns="http://www.w3.org/2000/svg" xmlns:xlink="http://www.w3.org/1999/xlink">
<g id="graph0" class="graph" transform="scale(1 1) rotate(0) translate(4 854)">
<title>Control&#45;flow graph for function &#39;function_18920()&#39;.</title>
<polygon fill="white" stroke="none" points="-4,4 -4,-854 566,-854 566,4 -4,4"/>
<text text-anchor="middle" x="281" y="-7.8" font-family="Times,serif" font-size="14.00">Control&#45;flow graph for function &#39;function_18920()&#39;.</text>
<!-- Node0x4382e590 -->
<g id="node1" class="node"><title>Node0x4382e590</title>
<polygon fill="none" stroke="black" points="130,-813.5 130,-849.5 189,-849.5 189,-813.5 130,-813.5"/>
<text text-anchor="start" x="138" y="-827.8" font-family="Times,serif" font-size="14.00">entry:</text>
</g>
<!-- Node0x43772e30 -->
<g id="node2" class="node"><title>Node0x43772e30</title>
<polygon fill="none" stroke="black" points="0,-587.5 0,-775.5 319,-775.5 319,-587.5 0,-587.5"/>
<text text-anchor="start" x="8" y="-760.3" font-family="Times,serif" font-size="14.00">0x3fbb6450:</text>
<text text-anchor="start" x="8" y="-745.3" font-family="Times,serif" font-size="14.00"> v1 = g29</text>
<text text-anchor="start" x="8" y="-730.3" font-family="Times,serif" font-size="14.00"> v2 = *(IntToPtrCastExpr&lt;ptr&gt;((v1 + 4)))</text>
<text text-anchor="start" x="8" y="-715.3" font-family="Times,serif" font-size="14.00"> g37 = v2</text>
<text text-anchor="start" x="8" y="-700.3" font-family="Times,serif" font-size="14.00"> v3 = g30</text>
<text text-anchor="start" x="8" y="-685.3" font-family="Times,serif" font-size="14.00"> v4 = (v3 &#45; v2)</text>
<text text-anchor="start" x="8" y="-670.3" font-family="Times,serif" font-size="14.00"> g8 = (((v4 ^ v3) &amp; (v3 ^ v2)) &lt; 0)</text>
<text text-anchor="start" x="8" y="-655.3" font-family="Times,serif" font-size="14.00"> g7 = (v4 &lt; 0)</text>
<text text-anchor="start" x="8" y="-640.3" font-family="Times,serif" font-size="14.00"> g9 = (v3 == v2)</text>
<text text-anchor="start" x="8" y="-625.3" font-family="Times,serif" font-size="14.00"> v5 = g35</text>
<text text-anchor="start" x="8" y="-610.3" font-family="Times,serif" font-size="14.00"> g33 = 165012</text>
<text text-anchor="start" x="8" y="-595.3" font-family="Times,serif" font-size="14.00"> g35 = v3</text>
</g>
<!-- Node0x4382e590&#45;&gt;Node0x43772e30 -->
<g id="edge1" class="edge"><title>Node0x4382e590&#45;&gt;Node0x43772e30</title>
<path fill="none" stroke="black" d="M159.5,-813.233C159.5,-805.721 159.5,-796.26 159.5,-785.877"/>
<polygon fill="black" stroke="black" points="163,-785.674 159.5,-775.674 156,-785.675 163,-785.674"/>
</g>
<!-- Node0x43773100 -->
<g id="node3" class="node"><title>Node0x43773100</title>
<polygon fill="none" stroke="black" points="106.5,-511.5 106.5,-549.5 212.5,-549.5 212.5,-511.5 106.5,-511.5"/>
<text text-anchor="start" x="114.5" y="-534.3" font-family="Times,serif" font-size="14.00">0x888b750:</text>
<text text-anchor="start" x="114.5" y="-519.3" font-family="Times,serif" font-size="14.00"> if (v3 &gt; v2):</text>
</g>
<!-- Node0x43772e30&#45;&gt;Node0x43773100 -->
<g id="edge2" class="edge"><title>Node0x43772e30&#45;&gt;Node0x43773100</title>
<path fill="none" stroke="black" d="M159.5,-587.406C159.5,-577.426 159.5,-567.921 159.5,-559.673"/>
<polygon fill="black" stroke="black" points="163,-559.619 159.5,-549.619 156,-559.619 163,-559.619"/>
</g>
<!-- Node0x43830d80 -->
<g id="node4" class="node"><title>Node0x43830d80</title>
<polygon fill="none" stroke="black" points="9,-244.5 9,-312.5 152,-312.5 152,-244.5 9,-244.5"/>
<text text-anchor="start" x="17" y="-297.3" font-family="Times,serif" font-size="14.00">0x888b3c0:</text>
<text text-anchor="start" x="17" y="-282.3" font-family="Times,serif" font-size="14.00"> g35 = v5</text>
<text text-anchor="start" x="17" y="-267.3" font-family="Times,serif" font-size="14.00"> function_18648()</text>
<text text-anchor="start" x="17" y="-252.3" font-family="Times,serif" font-size="14.00"> return</text>
</g>
<!-- Node0x43773100&#45;&gt;Node0x43830d80 -->
<g id="edge3" class="edge"><title>Node0x43773100&#45;&gt;Node0x43830d80</title>
<path fill="none" stroke="black" d="M138.283,-511.4C124.749,-498.536 108.175,-480.041 99.5,-460 80.4495,-415.991 77.3348,-360.515 77.9413,-322.76"/>
<polygon fill="black" stroke="black" points="81.4441,-322.691 78.2009,-312.605 74.4464,-322.512 81.4441,-322.691"/>
<text text-anchor="middle" x="149.5" y="-481.8" font-family="Times,serif" font-size="14.00">v3 &gt; v2</text>
</g>
<!-- Node0x4382eb30 -->
<g id="node5" class="node"><title>Node0x4382eb30</title>
<polygon fill="none" stroke="black" points="108.5,-331.5 108.5,-459.5 530.5,-459.5 530.5,-331.5 108.5,-331.5"/>
<text text-anchor="start" x="116.5" y="-444.3" font-family="Times,serif" font-size="14.00">0x3fbb68d0:</text>
<text text-anchor="start" x="116.5" y="-429.3" font-family="Times,serif" font-size="14.00"> v6 = *(IntToPtrCastExpr&lt;ptr&gt;(v1))</text>
<text text-anchor="start" x="116.5" y="-414.3" font-family="Times,serif" font-size="14.00"> g36 = v6</text>
<text text-anchor="start" x="116.5" y="-399.3" font-family="Times,serif" font-size="14.00"> v7 = *(IntToPtrCastExpr&lt;ptr&gt;(165240))</text>
<text text-anchor="start" x="116.5" y="-384.3" font-family="Times,serif" font-size="14.00"> g37 = v7</text>
<text text-anchor="start" x="116.5" y="-369.3" font-family="Times,serif" font-size="14.00"> g29 = (*(IntToPtrCastExpr&lt;ptr&gt;((v7 + (4 * v3)))) &amp; v6)</text>
<text text-anchor="start" x="116.5" y="-354.3" font-family="Times,serif" font-size="14.00"> IntToPtrCastExpr&lt;ptr&gt;(v5)()</text>
<text text-anchor="start" x="116.5" y="-339.3" font-family="Times,serif" font-size="14.00"> IntToPtrCastExpr&lt;ptr&gt;(ExtCastExpr&lt;int32&gt;(g9))()</text>
</g>
<!-- Node0x43773100&#45;&gt;Node0x4382eb30 -->
<g id="edge4" class="edge"><title>Node0x43773100&#45;&gt;Node0x4382eb30</title>
<path fill="none" stroke="black" d="M181.412,-511.286C195.831,-499.3 215.713,-482.773 235.901,-465.992"/>
<polygon fill="black" stroke="black" points="238.189,-468.641 243.642,-459.557 233.715,-463.258 238.189,-468.641"/>
<text text-anchor="middle" x="254.5" y="-481.8" font-family="Times,serif" font-size="14.00">v3 &lt;= v2</text>
</g>
<!-- Node0x4382f9f0 -->
<g id="node6" class="node"><title>Node0x4382f9f0</title>
<polygon fill="none" stroke="black" points="99.5,-23.5 99.5,-59.5 153.5,-59.5 153.5,-23.5 99.5,-23.5"/>
<text text-anchor="start" x="107.5" y="-37.8" font-family="Times,serif" font-size="14.00">exit:</text>
</g>
<!-- Node0x43830d80&#45;&gt;Node0x4382f9f0 -->
<g id="edge5" class="edge"><title>Node0x43830d80&#45;&gt;Node0x4382f9f0</title>
<path fill="none" stroke="black" d="M85.9978,-244.186C92.7094,-204.468 104.75,-136.151 117.5,-78 118.092,-75.2984 118.743,-72.4899 119.416,-69.6888"/>
<polygon fill="black" stroke="black" points="122.863,-70.3297 121.88,-59.7806 116.07,-68.6404 122.863,-70.3297"/>
</g>
<!-- Node0x4382fa70 -->
<g id="node7" class="node"><title>Node0x4382fa70</title>
<polygon fill="none" stroke="black" points="270.5,-187.5 270.5,-225.5 368.5,-225.5 368.5,-187.5 270.5,-187.5"/>
<text text-anchor="start" x="278.5" y="-210.3" font-family="Times,serif" font-size="14.00">0x88932f0:</text>
<text text-anchor="start" x="278.5" y="-195.3" font-family="Times,serif" font-size="14.00"> if g9:</text>
</g>
<!-- Node0x4382eb30&#45;&gt;Node0x4382fa70 -->
<g id="edge6" class="edge"><title>Node0x4382eb30&#45;&gt;Node0x4382fa70</title>
<path fill="none" stroke="black" d="M319.5,-331.451C319.5,-298.979 319.5,-261.006 319.5,-235.731"/>
<polygon fill="black" stroke="black" points="323,-235.729 319.5,-225.729 316,-235.729 323,-235.729"/>
</g>
<!-- Node0x4382fa70&#45;&gt;Node0x4382f9f0 -->
<g id="edge8" class="edge"><title>Node0x4382fa70&#45;&gt;Node0x4382f9f0</title>
<path fill="none" stroke="black" d="M270.358,-201.087C227.539,-194.439 167.442,-177.774 135.5,-136 121.226,-117.332 120.17,-90.0548 121.974,-69.7753"/>
<polygon fill="black" stroke="black" points="125.477,-69.949 123.163,-59.61 118.525,-69.1353 125.477,-69.949"/>
<text text-anchor="middle" x="164" y="-112.8" font-family="Times,serif" font-size="14.00">not (g9)</text>
</g>
<!-- Node0x3187b010 -->
<g id="node8" class="node"><title>Node0x3187b010</title>
<polygon fill="none" stroke="black" points="201,-97.5 201,-135.5 562,-135.5 562,-97.5 201,-97.5"/>
<text text-anchor="start" x="209" y="-120.3" font-family="Times,serif" font-size="14.00">0x88930b0:</text>
<text text-anchor="start" x="209" y="-105.3" font-family="Times,serif" font-size="14.00"> g29 = (g29 &amp; ((g38 / 2) | (&#45;2147483648 * g38)))</text>
</g>
<!-- Node0x4382fa70&#45;&gt;Node0x3187b010 -->
<g id="edge7" class="edge"><title>Node0x4382fa70&#45;&gt;Node0x3187b010</title>
<path fill="none" stroke="black" d="M332.346,-187.266C341.158,-174.759 352.992,-157.963 362.84,-143.986"/>
<polygon fill="black" stroke="black" points="365.772,-145.901 368.67,-135.71 360.049,-141.869 365.772,-145.901"/>
<text text-anchor="middle" x="363" y="-157.8" font-family="Times,serif" font-size="14.00">g9</text>
</g>
<!-- Node0x3187b010&#45;&gt;Node0x4382f9f0 -->
<g id="edge9" class="edge"><title>Node0x3187b010&#45;&gt;Node0x4382f9f0</title>
<path fill="none" stroke="black" d="M318.466,-97.4551C269.791,-83.5206 204.106,-64.7165 163.563,-53.1103"/>
<polygon fill="black" stroke="black" points="164.401,-49.7094 153.823,-50.322 162.474,-56.4391 164.401,-49.7094"/>
</g>
</g>
</svg>
