<?xml version="1.0" encoding="UTF-8" standalone="no"?>
<!DOCTYPE svg PUBLIC "-//W3C//DTD SVG 1.1//EN"
 "http://www.w3.org/Graphics/SVG/1.1/DTD/svg11.dtd">
<!-- Generated by graphviz version 2.38.0 (20140413.2041)
 -->
<!-- Title: Control&#45;flow graph for function &#39;function_21328()&#39;. Pages: 1 -->
<svg width="488pt" height="1272pt"
 viewBox="0.00 0.00 488.00 1272.00" xmlns="http://www.w3.org/2000/svg" xmlns:xlink="http://www.w3.org/1999/xlink">
<g id="graph0" class="graph" transform="scale(1 1) rotate(0) translate(4 1268)">
<title>Control&#45;flow graph for function &#39;function_21328()&#39;.</title>
<polygon fill="white" stroke="none" points="-4,4 -4,-1268 484,-1268 484,4 -4,4"/>
<text text-anchor="middle" x="240" y="-7.8" font-family="Times,serif" font-size="14.00">Control&#45;flow graph for function &#39;function_21328()&#39;.</text>
<!-- Node0x20174f90 -->
<g id="node1" class="node"><title>Node0x20174f90</title>
<polygon fill="none" stroke="black" points="102.5,-1227.5 102.5,-1263.5 161.5,-1263.5 161.5,-1227.5 102.5,-1227.5"/>
<text text-anchor="start" x="110.5" y="-1241.8" font-family="Times,serif" font-size="14.00">entry:</text>
</g>
<!-- Node0x201737c0 -->
<g id="node2" class="node"><title>Node0x201737c0</title>
<polygon fill="none" stroke="black" points="65,-1001.5 65,-1189.5 199,-1189.5 199,-1001.5 65,-1001.5"/>
<text text-anchor="start" x="73" y="-1174.3" font-family="Times,serif" font-size="14.00">0x29039590:</text>
<text text-anchor="start" x="73" y="-1159.3" font-family="Times,serif" font-size="14.00"> v1 = g38</text>
<text text-anchor="start" x="73" y="-1144.3" font-family="Times,serif" font-size="14.00"> v2 = g39</text>
<text text-anchor="start" x="73" y="-1129.3" font-family="Times,serif" font-size="14.00"> v3 = g32</text>
<text text-anchor="start" x="73" y="-1114.3" font-family="Times,serif" font-size="14.00"> v4 = g35</text>
<text text-anchor="start" x="73" y="-1099.3" font-family="Times,serif" font-size="14.00"> g38 = g30</text>
<text text-anchor="start" x="73" y="-1084.3" font-family="Times,serif" font-size="14.00"> g30 = 27</text>
<text text-anchor="start" x="73" y="-1069.3" font-family="Times,serif" font-size="14.00"> g39 = g29</text>
<text text-anchor="start" x="73" y="-1054.3" font-family="Times,serif" font-size="14.00"> function_b0e0()</text>
<text text-anchor="start" x="73" y="-1039.3" font-family="Times,serif" font-size="14.00"> v5 = g38</text>
<text text-anchor="start" x="73" y="-1024.3" font-family="Times,serif" font-size="14.00"> g6 = True</text>
<text text-anchor="start" x="73" y="-1009.3" font-family="Times,serif" font-size="14.00"> v6</text>
</g>
<!-- Node0x20174f90&#45;&gt;Node0x201737c0 -->
<g id="edge1" class="edge"><title>Node0x20174f90&#45;&gt;Node0x201737c0</title>
<path fill="none" stroke="black" d="M132,-1227.23C132,-1219.72 132,-1210.26 132,-1199.88"/>
<polygon fill="black" stroke="black" points="135.5,-1199.67 132,-1189.67 128.5,-1199.67 135.5,-1199.67"/>
</g>
<!-- Node0x20171c90 -->
<g id="node3" class="node"><title>Node0x20171c90</title>
<polygon fill="none" stroke="black" points="77,-925.5 77,-963.5 187,-963.5 187,-925.5 77,-925.5"/>
<text text-anchor="start" x="85" y="-948.3" font-family="Times,serif" font-size="14.00">0xa05c730:</text>
<text text-anchor="start" x="85" y="-933.3" font-family="Times,serif" font-size="14.00"> if (v5 == 0):</text>
</g>
<!-- Node0x201737c0&#45;&gt;Node0x20171c90 -->
<g id="edge2" class="edge"><title>Node0x201737c0&#45;&gt;Node0x20171c90</title>
<path fill="none" stroke="black" d="M132,-1001.41C132,-991.426 132,-981.921 132,-973.673"/>
<polygon fill="black" stroke="black" points="135.5,-973.619 132,-963.619 128.5,-973.619 135.5,-973.619"/>
</g>
<!-- Node0x20172160 -->
<g id="node4" class="node"><title>Node0x20172160</title>
<polygon fill="none" stroke="black" points="0,-643.5 0,-786.5 134,-786.5 134,-643.5 0,-643.5"/>
<text text-anchor="start" x="8" y="-771.3" font-family="Times,serif" font-size="14.00">0xa05bee0:</text>
<text text-anchor="start" x="8" y="-756.3" font-family="Times,serif" font-size="14.00"> g29 = g39</text>
<text text-anchor="start" x="8" y="-741.3" font-family="Times,serif" font-size="14.00"> g38 = v1</text>
<text text-anchor="start" x="8" y="-726.3" font-family="Times,serif" font-size="14.00"> g39 = v2</text>
<text text-anchor="start" x="8" y="-711.3" font-family="Times,serif" font-size="14.00"> g32 = v3</text>
<text text-anchor="start" x="8" y="-696.3" font-family="Times,serif" font-size="14.00"> g34 = v6</text>
<text text-anchor="start" x="8" y="-681.3" font-family="Times,serif" font-size="14.00"> g35 = v4</text>
<text text-anchor="start" x="8" y="-666.3" font-family="Times,serif" font-size="14.00"> function_b864()</text>
<text text-anchor="start" x="8" y="-651.3" font-family="Times,serif" font-size="14.00"> return</text>
</g>
<!-- Node0x20171c90&#45;&gt;Node0x20172160 -->
<g id="edge3" class="edge"><title>Node0x20171c90&#45;&gt;Node0x20172160</title>
<path fill="none" stroke="black" d="M116.529,-925.334C106.09,-912.017 92.9876,-893.014 86,-874 77.1214,-849.84 72.1886,-822.34 69.5057,-797.129"/>
<polygon fill="black" stroke="black" points="72.9591,-796.475 68.5204,-786.854 65.991,-797.143 72.9591,-796.475"/>
<text text-anchor="middle" x="133" y="-895.8" font-family="Times,serif" font-size="14.00">v5 == 0</text>
</g>
<!-- Node0x201708f0 -->
<g id="node5" class="node"><title>Node0x201708f0</title>
<polygon fill="none" stroke="black" points="95.5,-805.5 95.5,-873.5 396.5,-873.5 396.5,-805.5 95.5,-805.5"/>
<text text-anchor="start" x="103.5" y="-858.3" font-family="Times,serif" font-size="14.00">0x2a785b70:</text>
<text text-anchor="start" x="103.5" y="-843.3" font-family="Times,serif" font-size="14.00"> v7 = IntToPtrCastExpr&lt;ptr&gt;((v5 + 8))</text>
<text text-anchor="start" x="103.5" y="-828.3" font-family="Times,serif" font-size="14.00"> v8 = *(v7)</text>
<text text-anchor="start" x="103.5" y="-813.3" font-family="Times,serif" font-size="14.00"> g9 = ((v8 % 2) == 0)</text>
</g>
<!-- Node0x20171c90&#45;&gt;Node0x201708f0 -->
<g id="edge4" class="edge"><title>Node0x20171c90&#45;&gt;Node0x201708f0</title>
<path fill="none" stroke="black" d="M152.118,-925.323C165.754,-913.003 184.325,-896.223 201.352,-880.84"/>
<polygon fill="black" stroke="black" points="203.969,-883.192 209.043,-873.891 199.276,-877.998 203.969,-883.192"/>
<text text-anchor="middle" x="216" y="-895.8" font-family="Times,serif" font-size="14.00">v5 != 0</text>
</g>
<!-- Node0x201710e0 -->
<g id="node6" class="node"><title>Node0x201710e0</title>
<polygon fill="none" stroke="black" points="130,-23.5 130,-59.5 184,-59.5 184,-23.5 130,-23.5"/>
<text text-anchor="start" x="138" y="-37.8" font-family="Times,serif" font-size="14.00">exit:</text>
</g>
<!-- Node0x20172160&#45;&gt;Node0x201710e0 -->
<g id="edge5" class="edge"><title>Node0x20172160&#45;&gt;Node0x201710e0</title>
<path fill="none" stroke="black" d="M67,-643.39C67,-617.618 67,-588.24 67,-561.5 67,-561.5 67,-561.5 67,-160.5 67,-121.675 98.1846,-87.6712 123.841,-66.2655"/>
<polygon fill="black" stroke="black" points="126.325,-68.7592 131.93,-59.7682 121.942,-63.3017 126.325,-68.7592"/>
</g>
<!-- Node0x201712a0 -->
<g id="node7" class="node"><title>Node0x201712a0</title>
<polygon fill="none" stroke="black" points="173,-586.5 173,-624.5 319,-624.5 319,-586.5 173,-586.5"/>
<text text-anchor="start" x="181" y="-609.3" font-family="Times,serif" font-size="14.00">0xa05e6d0:</text>
<text text-anchor="start" x="181" y="-594.3" font-family="Times,serif" font-size="14.00"> if ((v8 % 2) != 0):</text>
</g>
<!-- Node0x201708f0&#45;&gt;Node0x201712a0 -->
<g id="edge6" class="edge"><title>Node0x201708f0&#45;&gt;Node0x201712a0</title>
<path fill="none" stroke="black" d="M246,-805.26C246,-759.405 246,-677.547 246,-634.588"/>
<polygon fill="black" stroke="black" points="249.5,-634.549 246,-624.549 242.5,-634.549 249.5,-634.549"/>
</g>
<!-- Node0x201748a0 -->
<g id="node8" class="node"><title>Node0x201748a0</title>
<polygon fill="none" stroke="black" points="82,-334.5 82,-447.5 218,-447.5 218,-334.5 82,-334.5"/>
<text text-anchor="start" x="90" y="-432.3" font-family="Times,serif" font-size="14.00">0xa05dbc0:</text>
<text text-anchor="start" x="90" y="-417.3" font-family="Times,serif" font-size="14.00"> g29 = g39</text>
<text text-anchor="start" x="90" y="-402.3" font-family="Times,serif" font-size="14.00"> g30 = 1</text>
<text text-anchor="start" x="90" y="-387.3" font-family="Times,serif" font-size="14.00"> g36 = (v5 + 12)</text>
<text text-anchor="start" x="90" y="-372.3" font-family="Times,serif" font-size="14.00"> g37 = 16</text>
<text text-anchor="start" x="90" y="-357.3" font-family="Times,serif" font-size="14.00"> function_b7f0()</text>
<text text-anchor="start" x="90" y="-342.3" font-family="Times,serif" font-size="14.00"> return</text>
</g>
<!-- Node0x201712a0&#45;&gt;Node0x201748a0 -->
<g id="edge7" class="edge"><title>Node0x201712a0&#45;&gt;Node0x201748a0</title>
<path fill="none" stroke="black" d="M178.527,-586.362C170.52,-581.596 163.318,-575.584 158,-568 135.944,-536.544 133.605,-493.588 136.944,-457.989"/>
<polygon fill="black" stroke="black" points="140.464,-458.004 138.086,-447.68 133.507,-457.234 140.464,-458.004"/>
<text text-anchor="middle" x="206" y="-556.8" font-family="Times,serif" font-size="14.00">(v8 % 2) != 0</text>
</g>
<!-- Node0x20173740 -->
<g id="node9" class="node"><title>Node0x20173740</title>
<polygon fill="none" stroke="black" points="178,-466.5 178,-534.5 376,-534.5 376,-466.5 178,-466.5"/>
<text text-anchor="start" x="186" y="-519.3" font-family="Times,serif" font-size="14.00">0x13fb1880:</text>
<text text-anchor="start" x="186" y="-504.3" font-family="Times,serif" font-size="14.00"> v9 = *(v7)</text>
<text text-anchor="start" x="186" y="-489.3" font-family="Times,serif" font-size="14.00"> g37 = v9</text>
<text text-anchor="start" x="186" y="-474.3" font-family="Times,serif" font-size="14.00"> g9 = ((v9 &amp; 1024) == 0)</text>
</g>
<!-- Node0x201712a0&#45;&gt;Node0x20173740 -->
<g id="edge8" class="edge"><title>Node0x201712a0&#45;&gt;Node0x20173740</title>
<path fill="none" stroke="black" d="M251.542,-586.086C255.023,-574.52 259.666,-559.094 264.033,-544.584"/>
<polygon fill="black" stroke="black" points="267.464,-545.328 266.995,-534.743 260.761,-543.31 267.464,-545.328"/>
<text text-anchor="middle" x="313" y="-556.8" font-family="Times,serif" font-size="14.00">(v8 % 2) == 0</text>
</g>
<!-- Node0x201748a0&#45;&gt;Node0x201710e0 -->
<g id="edge9" class="edge"><title>Node0x201748a0&#45;&gt;Node0x201710e0</title>
<path fill="none" stroke="black" d="M146.094,-334.241C142.737,-275.193 139.51,-179.325 147,-97 147.818,-88.0096 149.38,-78.2869 151.031,-69.5769"/>
<polygon fill="black" stroke="black" points="154.502,-70.0662 153.044,-59.5722 147.64,-68.6851 154.502,-70.0662"/>
</g>
<!-- Node0x20173de0 -->
<g id="node10" class="node"><title>Node0x20173de0</title>
<polygon fill="none" stroke="black" points="191,-277.5 191,-315.5 363,-315.5 363,-277.5 191,-277.5"/>
<text text-anchor="start" x="199" y="-300.3" font-family="Times,serif" font-size="14.00">0xa05fe70:</text>
<text text-anchor="start" x="199" y="-285.3" font-family="Times,serif" font-size="14.00"> if ((v9 &amp; 1024) != 0):</text>
</g>
<!-- Node0x20173740&#45;&gt;Node0x20173de0 -->
<g id="edge10" class="edge"><title>Node0x20173740&#45;&gt;Node0x20173de0</title>
<path fill="none" stroke="black" d="M277,-466.144C277,-426.878 277,-362.366 277,-325.557"/>
<polygon fill="black" stroke="black" points="280.5,-325.518 277,-315.518 273.5,-325.518 280.5,-325.518"/>
</g>
<!-- Node0x20176950 -->
<g id="node11" class="node"><title>Node0x20176950</title>
<polygon fill="none" stroke="black" points="156,-112.5 156,-210.5 282,-210.5 282,-112.5 156,-112.5"/>
<text text-anchor="start" x="164" y="-195.3" font-family="Times,serif" font-size="14.00">0xa060230:</text>
<text text-anchor="start" x="164" y="-180.3" font-family="Times,serif" font-size="14.00"> g29 = g39</text>
<text text-anchor="start" x="164" y="-165.3" font-family="Times,serif" font-size="14.00"> g30 = 3</text>
<text text-anchor="start" x="164" y="-150.3" font-family="Times,serif" font-size="14.00"> g36 = 1</text>
<text text-anchor="start" x="164" y="-135.3" font-family="Times,serif" font-size="14.00"> function_aff8()</text>
<text text-anchor="start" x="164" y="-120.3" font-family="Times,serif" font-size="14.00"> return</text>
</g>
<!-- Node0x20173de0&#45;&gt;Node0x20176950 -->
<g id="edge11" class="edge"><title>Node0x20173de0&#45;&gt;Node0x20176950</title>
<path fill="none" stroke="black" d="M239.104,-277.417C232.29,-272.418 226.069,-266.309 222,-259 215.568,-247.446 212.815,-233.849 212.085,-220.566"/>
<polygon fill="black" stroke="black" points="215.583,-220.439 211.894,-210.508 208.585,-220.572 215.583,-220.439"/>
<text text-anchor="middle" x="283" y="-247.8" font-family="Times,serif" font-size="14.00">(v9 &amp; 1024) != 0</text>
</g>
<!-- Node0x359c9570 -->
<g id="node12" class="node"><title>Node0x359c9570</title>
<polygon fill="none" stroke="black" points="300,-97.5 300,-225.5 434,-225.5 434,-97.5 300,-97.5"/>
<text text-anchor="start" x="308" y="-210.3" font-family="Times,serif" font-size="14.00">0xa05f400:</text>
<text text-anchor="start" x="308" y="-195.3" font-family="Times,serif" font-size="14.00"> g29 = g39</text>
<text text-anchor="start" x="308" y="-180.3" font-family="Times,serif" font-size="14.00"> g38 = v1</text>
<text text-anchor="start" x="308" y="-165.3" font-family="Times,serif" font-size="14.00"> g39 = v2</text>
<text text-anchor="start" x="308" y="-150.3" font-family="Times,serif" font-size="14.00"> g32 = v3</text>
<text text-anchor="start" x="308" y="-135.3" font-family="Times,serif" font-size="14.00"> g34 = v6</text>
<text text-anchor="start" x="308" y="-120.3" font-family="Times,serif" font-size="14.00"> g35 = v4</text>
<text text-anchor="start" x="308" y="-105.3" font-family="Times,serif" font-size="14.00"> function_b864()</text>
</g>
<!-- Node0x20173de0&#45;&gt;Node0x359c9570 -->
<g id="edge12" class="edge"><title>Node0x20173de0&#45;&gt;Node0x359c9570</title>
<path fill="none" stroke="black" d="M322.79,-277.358C330.805,-272.431 338.367,-266.365 344,-259 349.398,-251.943 353.554,-243.812 356.75,-235.326"/>
<polygon fill="black" stroke="black" points="360.139,-236.226 359.965,-225.632 353.495,-234.022 360.139,-236.226"/>
<text text-anchor="middle" x="416" y="-247.8" font-family="Times,serif" font-size="14.00">(v9 &amp; 1024) == 0</text>
</g>
<!-- Node0x20176950&#45;&gt;Node0x201710e0 -->
<g id="edge13" class="edge"><title>Node0x20176950&#45;&gt;Node0x201710e0</title>
<path fill="none" stroke="black" d="M193.603,-112.164C185.822,-97.3545 177.553,-81.6173 170.847,-68.8545"/>
<polygon fill="black" stroke="black" points="173.808,-66.9636 166.058,-59.7391 167.611,-70.2195 173.808,-66.9636"/>
</g>
<!-- Node0x359c9570&#45;&gt;Node0x201710e0 -->
<g id="edge14" class="edge"><title>Node0x359c9570&#45;&gt;Node0x201710e0</title>
<path fill="none" stroke="black" d="M299.834,-102.618C296.898,-100.654 293.947,-98.7714 291,-97 260.038,-78.3917 221.567,-63.489 193.799,-54.0023"/>
<polygon fill="black" stroke="black" points="194.68,-50.6066 184.086,-50.7554 192.461,-57.2455 194.68,-50.6066"/>
</g>
</g>
</svg>
