<?xml version="1.0" encoding="UTF-8" standalone="no"?>
<!DOCTYPE svg PUBLIC "-//W3C//DTD SVG 1.1//EN"
 "http://www.w3.org/Graphics/SVG/1.1/DTD/svg11.dtd">
<!-- Generated by graphviz version 2.38.0 (20140413.2041)
 -->
<!-- Title: Control&#45;flow graph for function &#39;function_20a00()&#39;. Pages: 1 -->
<svg width="385pt" height="426pt"
 viewBox="0.00 0.00 385.00 426.00" xmlns="http://www.w3.org/2000/svg" xmlns:xlink="http://www.w3.org/1999/xlink">
<g id="graph0" class="graph" transform="scale(1 1) rotate(0) translate(4 422)">
<title>Control&#45;flow graph for function &#39;function_20a00()&#39;.</title>
<polygon fill="white" stroke="none" points="-4,4 -4,-422 381,-422 381,4 -4,4"/>
<text text-anchor="middle" x="188.5" y="-7.8" font-family="Times,serif" font-size="14.00">Control&#45;flow graph for function &#39;function_20a00()&#39;.</text>
<!-- Node0x33934200 -->
<g id="node1" class="node"><title>Node0x33934200</title>
<polygon fill="none" stroke="black" points="159,-381.5 159,-417.5 218,-417.5 218,-381.5 159,-381.5"/>
<text text-anchor="start" x="167" y="-395.8" font-family="Times,serif" font-size="14.00">entry:</text>
</g>
<!-- Node0x244bf3a0 -->
<g id="node2" class="node"><title>Node0x244bf3a0</title>
<polygon fill="none" stroke="black" points="1.5,-96.5 1.5,-344.5 375.5,-344.5 375.5,-96.5 1.5,-96.5"/>
<text text-anchor="start" x="9.5" y="-329.3" font-family="Times,serif" font-size="14.00">0x1ff50960:</text>
<text text-anchor="start" x="9.5" y="-314.3" font-family="Times,serif" font-size="14.00"> v1 = g38</text>
<text text-anchor="start" x="9.5" y="-299.3" font-family="Times,serif" font-size="14.00"> v2 = IntToPtrCastExpr&lt;ptr&gt;((g29 + 4))</text>
<text text-anchor="start" x="9.5" y="-284.3" font-family="Times,serif" font-size="14.00"> v3 = (*(IntToPtrCastExpr&lt;ptr&gt;((g30 + 4))) &amp; &#45;4)</text>
<text text-anchor="start" x="9.5" y="-269.3" font-family="Times,serif" font-size="14.00"> g36 = v3</text>
<text text-anchor="start" x="9.5" y="-254.3" font-family="Times,serif" font-size="14.00"> v4 = ((v3 + 4) + *(v2))</text>
<text text-anchor="start" x="9.5" y="-239.3" font-family="Times,serif" font-size="14.00"> g37 = v4</text>
<text text-anchor="start" x="9.5" y="-224.3" font-family="Times,serif" font-size="14.00"> *(v2) = v4</text>
<text text-anchor="start" x="9.5" y="-209.3" font-family="Times,serif" font-size="14.00"> g38 = g29</text>
<text text-anchor="start" x="9.5" y="-194.3" font-family="Times,serif" font-size="14.00"> function_20878()</text>
<text text-anchor="start" x="9.5" y="-179.3" font-family="Times,serif" font-size="14.00"> g29 = g38</text>
<text text-anchor="start" x="9.5" y="-164.3" font-family="Times,serif" font-size="14.00"> g38 = v1</text>
<text text-anchor="start" x="9.5" y="-149.3" font-family="Times,serif" font-size="14.00"> v5</text>
<text text-anchor="start" x="9.5" y="-134.3" font-family="Times,serif" font-size="14.00"> g34 = v5</text>
<text text-anchor="start" x="9.5" y="-119.3" font-family="Times,serif" font-size="14.00"> IntToPtrCastExpr&lt;ptr&gt;(g35)()</text>
<text text-anchor="start" x="9.5" y="-104.3" font-family="Times,serif" font-size="14.00"> g29 = 3208</text>
</g>
<!-- Node0x33934200&#45;&gt;Node0x244bf3a0 -->
<g id="edge1" class="edge"><title>Node0x33934200&#45;&gt;Node0x244bf3a0</title>
<path fill="none" stroke="black" d="M188.5,-381.206C188.5,-373.955 188.5,-364.831 188.5,-354.638"/>
<polygon fill="black" stroke="black" points="192,-354.562 188.5,-344.562 185,-354.562 192,-354.562"/>
</g>
<!-- Node0x2a8b21c0 -->
<g id="node3" class="node"><title>Node0x2a8b21c0</title>
<polygon fill="none" stroke="black" points="161.5,-23.5 161.5,-59.5 215.5,-59.5 215.5,-23.5 161.5,-23.5"/>
<text text-anchor="start" x="169.5" y="-37.8" font-family="Times,serif" font-size="14.00">exit:</text>
</g>
<!-- Node0x244bf3a0&#45;&gt;Node0x2a8b21c0 -->
<g id="edge2" class="edge"><title>Node0x244bf3a0&#45;&gt;Node0x2a8b21c0</title>
<path fill="none" stroke="black" d="M188.5,-96.0862C188.5,-86.536 188.5,-77.6318 188.5,-69.9315"/>
<polygon fill="black" stroke="black" points="192,-69.9051 188.5,-59.9051 185,-69.9052 192,-69.9051"/>
</g>
</g>
</svg>
