<?xml version="1.0" encoding="UTF-8" standalone="no"?>
<!DOCTYPE svg PUBLIC "-//W3C//DTD SVG 1.1//EN"
 "http://www.w3.org/Graphics/SVG/1.1/DTD/svg11.dtd">
<!-- Generated by graphviz version 2.38.0 (20140413.2041)
 -->
<!-- Title: Control&#45;flow graph for function &#39;function_23d6c()&#39;. Pages: 1 -->
<svg width="385pt" height="336pt"
 viewBox="0.00 0.00 385.00 336.00" xmlns="http://www.w3.org/2000/svg" xmlns:xlink="http://www.w3.org/1999/xlink">
<g id="graph0" class="graph" transform="scale(1 1) rotate(0) translate(4 332)">
<title>Control&#45;flow graph for function &#39;function_23d6c()&#39;.</title>
<polygon fill="white" stroke="none" points="-4,4 -4,-332 381,-332 381,4 -4,4"/>
<text text-anchor="middle" x="188.5" y="-7.8" font-family="Times,serif" font-size="14.00">Control&#45;flow graph for function &#39;function_23d6c()&#39;.</text>
<!-- Node0x46609df0 -->
<g id="node1" class="node"><title>Node0x46609df0</title>
<polygon fill="none" stroke="black" points="159,-291.5 159,-327.5 218,-327.5 218,-291.5 159,-291.5"/>
<text text-anchor="start" x="167" y="-305.8" font-family="Times,serif" font-size="14.00">entry:</text>
</g>
<!-- Node0x466082e0 -->
<g id="node2" class="node"><title>Node0x466082e0</title>
<polygon fill="none" stroke="black" points="118.5,-96.5 118.5,-254.5 258.5,-254.5 258.5,-96.5 118.5,-96.5"/>
<text text-anchor="start" x="126.5" y="-239.3" font-family="Times,serif" font-size="14.00">0x155de7c0:</text>
<text text-anchor="start" x="126.5" y="-224.3" font-family="Times,serif" font-size="14.00"> v1 = (g38 / g30)</text>
<text text-anchor="start" x="126.5" y="-209.3" font-family="Times,serif" font-size="14.00"> g30 = g41</text>
<text text-anchor="start" x="126.5" y="-194.3" font-family="Times,serif" font-size="14.00"> g42 = v1</text>
<text text-anchor="start" x="126.5" y="-179.3" font-family="Times,serif" font-size="14.00"> g39 = (g32 * v1)</text>
<text text-anchor="start" x="126.5" y="-164.3" font-family="Times,serif" font-size="14.00"> g29 = g38</text>
<text text-anchor="start" x="126.5" y="-149.3" font-family="Times,serif" font-size="14.00"> g8 = False</text>
<text text-anchor="start" x="126.5" y="-134.3" font-family="Times,serif" font-size="14.00"> g7 = (g38 &lt; 0)</text>
<text text-anchor="start" x="126.5" y="-119.3" font-family="Times,serif" font-size="14.00"> g9 = (g38 == 0)</text>
<text text-anchor="start" x="126.5" y="-104.3" font-family="Times,serif" font-size="14.00"> g6 = False</text>
</g>
<!-- Node0x46609df0&#45;&gt;Node0x466082e0 -->
<g id="edge1" class="edge"><title>Node0x46609df0&#45;&gt;Node0x466082e0</title>
<path fill="none" stroke="black" d="M188.5,-291.243C188.5,-283.906 188.5,-274.752 188.5,-264.835"/>
<polygon fill="black" stroke="black" points="192,-264.703 188.5,-254.703 185,-264.704 192,-264.703"/>
</g>
<!-- Node0x310ac860 -->
<g id="node3" class="node"><title>Node0x310ac860</title>
<polygon fill="none" stroke="black" points="161.5,-23.5 161.5,-59.5 215.5,-59.5 215.5,-23.5 161.5,-23.5"/>
<text text-anchor="start" x="169.5" y="-37.8" font-family="Times,serif" font-size="14.00">exit:</text>
</g>
<!-- Node0x466082e0&#45;&gt;Node0x310ac860 -->
<g id="edge2" class="edge"><title>Node0x466082e0&#45;&gt;Node0x310ac860</title>
<path fill="none" stroke="black" d="M188.5,-96.1895C188.5,-86.7241 188.5,-77.609 188.5,-69.6605"/>
<polygon fill="black" stroke="black" points="192,-69.6213 188.5,-59.6214 185,-69.6214 192,-69.6213"/>
</g>
</g>
</svg>
