<?xml version="1.0" encoding="UTF-8" standalone="no"?>
<!DOCTYPE svg PUBLIC "-//W3C//DTD SVG 1.1//EN"
 "http://www.w3.org/Graphics/SVG/1.1/DTD/svg11.dtd">
<!-- Generated by graphviz version 2.38.0 (20140413.2041)
 -->
<!-- Title: Control&#45;flow graph for function &#39;function_1fd1c()&#39;. Pages: 1 -->
<svg width="483pt" height="501pt"
 viewBox="0.00 0.00 483.00 501.00" xmlns="http://www.w3.org/2000/svg" xmlns:xlink="http://www.w3.org/1999/xlink">
<g id="graph0" class="graph" transform="scale(1 1) rotate(0) translate(4 497)">
<title>Control&#45;flow graph for function &#39;function_1fd1c()&#39;.</title>
<polygon fill="white" stroke="none" points="-4,4 -4,-497 479,-497 479,4 -4,4"/>
<text text-anchor="middle" x="237.5" y="-7.8" font-family="Times,serif" font-size="14.00">Control&#45;flow graph for function &#39;function_1fd1c()&#39;.</text>
<!-- Node0x3ddedfb0 -->
<g id="node1" class="node"><title>Node0x3ddedfb0</title>
<polygon fill="none" stroke="black" points="208,-456.5 208,-492.5 267,-492.5 267,-456.5 208,-456.5"/>
<text text-anchor="start" x="216" y="-470.8" font-family="Times,serif" font-size="14.00">entry:</text>
</g>
<!-- Node0x3ddef130 -->
<g id="node2" class="node"><title>Node0x3ddef130</title>
<polygon fill="none" stroke="black" points="-2.84217e-14,-96.5 -2.84217e-14,-419.5 475,-419.5 475,-96.5 -2.84217e-14,-96.5"/>
<text text-anchor="start" x="8" y="-404.3" font-family="Times,serif" font-size="14.00">0x31453ff0:</text>
<text text-anchor="start" x="8" y="-389.3" font-family="Times,serif" font-size="14.00"> v1 = g38</text>
<text text-anchor="start" x="8" y="-374.3" font-family="Times,serif" font-size="14.00"> v2 = g39</text>
<text text-anchor="start" x="8" y="-359.3" font-family="Times,serif" font-size="14.00"> v3 = g35</text>
<text text-anchor="start" x="8" y="-344.3" font-family="Times,serif" font-size="14.00"> g38 = g30</text>
<text text-anchor="start" x="8" y="-329.3" font-family="Times,serif" font-size="14.00"> v4 = g29</text>
<text text-anchor="start" x="8" y="-314.3" font-family="Times,serif" font-size="14.00"> g39 = v4</text>
<text text-anchor="start" x="8" y="-299.3" font-family="Times,serif" font-size="14.00"> memset(IntToPtrCastExpr&lt;ptr&gt;(v4), g10, 36)</text>
<text text-anchor="start" x="8" y="-284.3" font-family="Times,serif" font-size="14.00"> *(IntToPtrCastExpr&lt;ptr&gt;((g39 + 32))) = g38</text>
<text text-anchor="start" x="8" y="-269.3" font-family="Times,serif" font-size="14.00"> v5 = g38</text>
<text text-anchor="start" x="8" y="-254.3" font-family="Times,serif" font-size="14.00"> g29 = v5</text>
<text text-anchor="start" x="8" y="-239.3" font-family="Times,serif" font-size="14.00"> g30 = 1</text>
<text text-anchor="start" x="8" y="-224.3" font-family="Times,serif" font-size="14.00"> g36 = 52</text>
<text text-anchor="start" x="8" y="-209.3" font-family="Times,serif" font-size="14.00"> g35 = 130388</text>
<text text-anchor="start" x="8" y="-194.3" font-family="Times,serif" font-size="14.00"> IntToPtrCastExpr&lt;ptr&gt;(*(IntToPtrCastExpr&lt;ptr&gt;((v5 + 4))))()</text>
<text text-anchor="start" x="8" y="-179.3" font-family="Times,serif" font-size="14.00"> *(IntToPtrCastExpr&lt;ptr&gt;((g39 + 28))) = g29</text>
<text text-anchor="start" x="8" y="-164.3" font-family="Times,serif" font-size="14.00"> g38 = v1</text>
<text text-anchor="start" x="8" y="-149.3" font-family="Times,serif" font-size="14.00"> g39 = v2</text>
<text text-anchor="start" x="8" y="-134.3" font-family="Times,serif" font-size="14.00"> v6</text>
<text text-anchor="start" x="8" y="-119.3" font-family="Times,serif" font-size="14.00"> g34 = v6</text>
<text text-anchor="start" x="8" y="-104.3" font-family="Times,serif" font-size="14.00"> IntToPtrCastExpr&lt;ptr&gt;(v3)()</text>
</g>
<!-- Node0x3ddedfb0&#45;&gt;Node0x3ddef130 -->
<g id="edge1" class="edge"><title>Node0x3ddedfb0&#45;&gt;Node0x3ddef130</title>
<path fill="none" stroke="black" d="M237.5,-456.309C237.5,-449.152 237.5,-440.107 237.5,-429.846"/>
<polygon fill="black" stroke="black" points="241,-429.657 237.5,-419.657 234,-429.657 241,-429.657"/>
</g>
<!-- Node0x40426890 -->
<g id="node3" class="node"><title>Node0x40426890</title>
<polygon fill="none" stroke="black" points="210.5,-23.5 210.5,-59.5 264.5,-59.5 264.5,-23.5 210.5,-23.5"/>
<text text-anchor="start" x="218.5" y="-37.8" font-family="Times,serif" font-size="14.00">exit:</text>
</g>
<!-- Node0x3ddef130&#45;&gt;Node0x40426890 -->
<g id="edge2" class="edge"><title>Node0x3ddef130&#45;&gt;Node0x40426890</title>
<path fill="none" stroke="black" d="M237.5,-96.3505C237.5,-86.5078 237.5,-77.4706 237.5,-69.7249"/>
<polygon fill="black" stroke="black" points="241,-69.6852 237.5,-59.6852 234,-69.6852 241,-69.6852"/>
</g>
</g>
</svg>
