<?xml version="1.0" encoding="UTF-8" standalone="no"?>
<!DOCTYPE svg PUBLIC "-//W3C//DTD SVG 1.1//EN"
 "http://www.w3.org/Graphics/SVG/1.1/DTD/svg11.dtd">
<!-- Generated by graphviz version 2.38.0 (20140413.2041)
 -->
<!-- Title: Control&#45;flow graph for function &#39;function_100c0()&#39;. Pages: 1 -->
<svg width="727pt" height="1295pt"
 viewBox="0.00 0.00 726.50 1295.00" xmlns="http://www.w3.org/2000/svg" xmlns:xlink="http://www.w3.org/1999/xlink">
<g id="graph0" class="graph" transform="scale(1 1) rotate(0) translate(4 1291)">
<title>Control&#45;flow graph for function &#39;function_100c0()&#39;.</title>
<polygon fill="white" stroke="none" points="-4,4 -4,-1291 722.5,-1291 722.5,4 -4,4"/>
<text text-anchor="middle" x="359.25" y="-7.8" font-family="Times,serif" font-size="14.00">Control&#45;flow graph for function &#39;function_100c0()&#39;.</text>
<!-- Node0x2f685010 -->
<g id="node1" class="node"><title>Node0x2f685010</title>
<polygon fill="none" stroke="black" points="359,-1250.5 359,-1286.5 418,-1286.5 418,-1250.5 359,-1250.5"/>
<text text-anchor="start" x="367" y="-1264.8" font-family="Times,serif" font-size="14.00">entry:</text>
</g>
<!-- Node0x2f6896a0 -->
<g id="node2" class="node"><title>Node0x2f6896a0</title>
<polygon fill="none" stroke="black" points="224.5,-1069.5 224.5,-1212.5 552.5,-1212.5 552.5,-1069.5 224.5,-1069.5"/>
<text text-anchor="start" x="232.5" y="-1197.3" font-family="Times,serif" font-size="14.00">0x3e12df20:</text>
<text text-anchor="start" x="232.5" y="-1182.3" font-family="Times,serif" font-size="14.00"> v1 = g38</text>
<text text-anchor="start" x="232.5" y="-1167.3" font-family="Times,serif" font-size="14.00"> v2 = g39</text>
<text text-anchor="start" x="232.5" y="-1152.3" font-family="Times,serif" font-size="14.00"> v3 = g32</text>
<text text-anchor="start" x="232.5" y="-1137.3" font-family="Times,serif" font-size="14.00"> v4 = g29</text>
<text text-anchor="start" x="232.5" y="-1122.3" font-family="Times,serif" font-size="14.00"> v5 = *(IntToPtrCastExpr&lt;ptr&gt;((v4 + 20)))</text>
<text text-anchor="start" x="232.5" y="-1107.3" font-family="Times,serif" font-size="14.00"> g8 = False</text>
<text text-anchor="start" x="232.5" y="-1092.3" font-family="Times,serif" font-size="14.00"> g7 = (v5 &lt; 0)</text>
<text text-anchor="start" x="232.5" y="-1077.3" font-family="Times,serif" font-size="14.00"> g9 = (v5 == 0)</text>
</g>
<!-- Node0x2f685010&#45;&gt;Node0x2f6896a0 -->
<g id="edge1" class="edge"><title>Node0x2f685010&#45;&gt;Node0x2f6896a0</title>
<path fill="none" stroke="black" d="M388.5,-1250.31C388.5,-1242.68 388.5,-1233.1 388.5,-1222.81"/>
<polygon fill="black" stroke="black" points="392,-1222.77 388.5,-1212.77 385,-1222.77 392,-1222.77"/>
</g>
<!-- Node0x294cc520 -->
<g id="node3" class="node"><title>Node0x294cc520</title>
<polygon fill="none" stroke="black" points="333.5,-978.5 333.5,-1031.5 443.5,-1031.5 443.5,-978.5 333.5,-978.5"/>
<text text-anchor="start" x="341.5" y="-1016.3" font-family="Times,serif" font-size="14.00">0x7963250:</text>
<text text-anchor="start" x="341.5" y="-1001.3" font-family="Times,serif" font-size="14.00"> if (v5 == 0):</text>
<text text-anchor="start" x="341.5" y="-986.3" font-family="Times,serif" font-size="14.00"> else:</text>
</g>
<!-- Node0x2f6896a0&#45;&gt;Node0x294cc520 -->
<g id="edge2" class="edge"><title>Node0x2f6896a0&#45;&gt;Node0x294cc520</title>
<path fill="none" stroke="black" d="M388.5,-1069.47C388.5,-1059.88 388.5,-1050.38 388.5,-1041.77"/>
<polygon fill="black" stroke="black" points="392,-1041.76 388.5,-1031.76 385,-1041.76 392,-1041.76"/>
</g>
<!-- Node0x2f686750 -->
<g id="node4" class="node"><title>Node0x2f686750</title>
<polygon fill="none" stroke="black" points="81.5,-768.5 81.5,-926.5 419.5,-926.5 419.5,-768.5 81.5,-768.5"/>
<text text-anchor="start" x="89.5" y="-911.3" font-family="Times,serif" font-size="14.00">0x79609f0:</text>
<text text-anchor="start" x="89.5" y="-896.3" font-family="Times,serif" font-size="14.00"> g38 = v4</text>
<text text-anchor="start" x="89.5" y="-881.3" font-family="Times,serif" font-size="14.00"> g39 = g30</text>
<text text-anchor="start" x="89.5" y="-866.3" font-family="Times,serif" font-size="14.00"> g30 = 7872</text>
<text text-anchor="start" x="89.5" y="-851.3" font-family="Times,serif" font-size="14.00"> function_f28c()</text>
<text text-anchor="start" x="89.5" y="-836.3" font-family="Times,serif" font-size="14.00"> v6 = g29</text>
<text text-anchor="start" x="89.5" y="-821.3" font-family="Times,serif" font-size="14.00"> g8 = False</text>
<text text-anchor="start" x="89.5" y="-806.3" font-family="Times,serif" font-size="14.00"> g7 = (v6 &lt; 0)</text>
<text text-anchor="start" x="89.5" y="-791.3" font-family="Times,serif" font-size="14.00"> g9 = (v6 == 0)</text>
<text text-anchor="start" x="89.5" y="-776.3" font-family="Times,serif" font-size="14.00"> *(IntToPtrCastExpr&lt;ptr&gt;((g38 + 20))) = v6</text>
</g>
<!-- Node0x294cc520&#45;&gt;Node0x2f686750 -->
<g id="edge3" class="edge"><title>Node0x294cc520&#45;&gt;Node0x2f686750</title>
<path fill="none" stroke="black" d="M365.712,-978.322C354.791,-966.016 341.012,-950.49 326.815,-934.492"/>
<polygon fill="black" stroke="black" points="329.078,-931.769 319.822,-926.613 323.842,-936.416 329.078,-931.769"/>
<text text-anchor="middle" x="378.5" y="-948.8" font-family="Times,serif" font-size="14.00">v5 == 0</text>
</g>
<!-- Node0x294cbfd0 -->
<g id="node5" class="node"><title>Node0x294cbfd0</title>
<polygon fill="none" stroke="black" points="236.5,-666.5 236.5,-749.5 718.5,-749.5 718.5,-666.5 236.5,-666.5"/>
<text text-anchor="start" x="244.5" y="-734.3" font-family="Times,serif" font-size="14.00">0x12966050:</text>
<text text-anchor="start" x="244.5" y="-719.3" font-family="Times,serif" font-size="14.00"> v8 = IntToPtrCastExpr&lt;ptr&gt;((v4 + 187))</text>
<text text-anchor="start" x="244.5" y="-704.3" font-family="Times,serif" font-size="14.00"> g38 = v4</text>
<text text-anchor="start" x="244.5" y="-689.3" font-family="Times,serif" font-size="14.00"> g39 = g30</text>
<text text-anchor="start" x="244.5" y="-674.3" font-family="Times,serif" font-size="14.00"> *(v8) = TruncCastExpr&lt;int8&gt;((ExtCastExpr&lt;int32&gt;(*(v8)) | 1))</text>
</g>
<!-- Node0x294cc520&#45;&gt;Node0x294cbfd0 -->
<g id="edge4" class="edge"><title>Node0x294cc520&#45;&gt;Node0x294cbfd0</title>
<path fill="none" stroke="black" d="M404.123,-978.459C412.449,-963.851 422.237,-944.918 428.5,-927 448.035,-871.115 461.692,-804.387 469.538,-759.604"/>
<polygon fill="black" stroke="black" points="473.02,-760.003 471.265,-749.554 466.122,-758.817 473.02,-760.003"/>
<text text-anchor="middle" x="447.5" y="-948.8" font-family="Times,serif" font-size="14.00">v5 != 0</text>
</g>
<!-- Node0x2f6887a0 -->
<g id="node6" class="node"><title>Node0x2f6887a0</title>
<polygon fill="none" stroke="black" points="166.5,-609.5 166.5,-647.5 276.5,-647.5 276.5,-609.5 166.5,-609.5"/>
<text text-anchor="start" x="174.5" y="-632.3" font-family="Times,serif" font-size="14.00">0x7962080:</text>
<text text-anchor="start" x="174.5" y="-617.3" font-family="Times,serif" font-size="14.00"> if (v6 == 0):</text>
</g>
<!-- Node0x2f686750&#45;&gt;Node0x2f6887a0 -->
<g id="edge5" class="edge"><title>Node0x2f686750&#45;&gt;Node0x2f6887a0</title>
<path fill="none" stroke="black" d="M238.087,-768.327C237.183,-762.13 236.31,-755.964 235.5,-750 231.23,-718.55 227.136,-682.37 224.49,-657.928"/>
<polygon fill="black" stroke="black" points="227.961,-657.471 223.415,-647.901 221.001,-658.217 227.961,-657.471"/>
</g>
<!-- Node0x2f686620 -->
<g id="node7" class="node"><title>Node0x2f686620</title>
<polygon fill="none" stroke="black" points="165.5,-97.5 165.5,-300.5 649.5,-300.5 649.5,-97.5 165.5,-97.5"/>
<text text-anchor="start" x="173.5" y="-285.3" font-family="Times,serif" font-size="14.00">0x7965130:</text>
<text text-anchor="start" x="173.5" y="-270.3" font-family="Times,serif" font-size="14.00"> g29 = *(IntToPtrCastExpr&lt;ptr&gt;((g38 + 20)))</text>
<text text-anchor="start" x="173.5" y="-255.3" font-family="Times,serif" font-size="14.00"> g30 = g39</text>
<text text-anchor="start" x="173.5" y="-240.3" font-family="Times,serif" font-size="14.00"> function_2123c()</text>
<text text-anchor="start" x="173.5" y="-225.3" font-family="Times,serif" font-size="14.00"> g29 = 0</text>
<text text-anchor="start" x="173.5" y="-210.3" font-family="Times,serif" font-size="14.00"> v9 = g34</text>
<text text-anchor="start" x="173.5" y="-195.3" font-family="Times,serif" font-size="14.00"> g38 = *(IntToPtrCastExpr&lt;ptr&gt;(v9))</text>
<text text-anchor="start" x="173.5" y="-180.3" font-family="Times,serif" font-size="14.00"> g39 = *(IntToPtrCastExpr&lt;ptr&gt;((v9 + 4)))</text>
<text text-anchor="start" x="173.5" y="-165.3" font-family="Times,serif" font-size="14.00"> g32 = *(IntToPtrCastExpr&lt;ptr&gt;((v9 + 8)))</text>
<text text-anchor="start" x="173.5" y="-150.3" font-family="Times,serif" font-size="14.00"> g34 = *(IntToPtrCastExpr&lt;ptr&gt;((v9 + 12)))</text>
<text text-anchor="start" x="173.5" y="-135.3" font-family="Times,serif" font-size="14.00"> IntToPtrCastExpr&lt;ptr&gt;(*(IntToPtrCastExpr&lt;ptr&gt;((v9 + 16))))()</text>
<text text-anchor="start" x="173.5" y="-120.3" font-family="Times,serif" font-size="14.00"> abort()</text>
<text text-anchor="start" x="173.5" y="-105.3" font-family="Times,serif" font-size="14.00"> # UNREACHABLE</text>
</g>
<!-- Node0x294cbfd0&#45;&gt;Node0x2f686620 -->
<g id="edge6" class="edge"><title>Node0x294cbfd0&#45;&gt;Node0x2f686620</title>
<path fill="none" stroke="black" d="M477.5,-666.445C477.5,-642.587 477.5,-611.829 477.5,-584.5 477.5,-584.5 477.5,-584.5 477.5,-409 477.5,-375.969 469.541,-341.451 458.991,-310.204"/>
<polygon fill="black" stroke="black" points="462.244,-308.902 455.639,-300.617 455.636,-311.212 462.244,-308.902"/>
</g>
<!-- Node0x2f6871f0 -->
<g id="node8" class="node"><title>Node0x2f6871f0</title>
<polygon fill="none" stroke="black" points="139,-519.5 139,-557.5 240,-557.5 240,-519.5 139,-519.5"/>
<text text-anchor="start" x="147" y="-542.3" font-family="Times,serif" font-size="14.00">0x7961bc0:</text>
<text text-anchor="start" x="147" y="-527.3" font-family="Times,serif" font-size="14.00"> g29 = &#45;20</text>
</g>
<!-- Node0x2f6887a0&#45;&gt;Node0x2f6871f0 -->
<g id="edge7" class="edge"><title>Node0x2f6887a0&#45;&gt;Node0x2f6871f0</title>
<path fill="none" stroke="black" d="M210.976,-609.317C207.949,-603.584 204.837,-597.143 202.5,-591 199.704,-583.653 197.329,-575.488 195.404,-567.865"/>
<polygon fill="black" stroke="black" points="198.763,-566.862 193.061,-557.933 191.95,-568.469 198.763,-566.862"/>
<text text-anchor="middle" x="232.5" y="-579.8" font-family="Times,serif" font-size="14.00">v6 == 0</text>
</g>
<!-- Node0x2f686320 -->
<g id="node9" class="node"><title>Node0x2f686320</title>
<polygon fill="none" stroke="black" points="0,-338.5 0,-481.5 449,-481.5 449,-338.5 0,-338.5"/>
<text text-anchor="start" x="8" y="-466.3" font-family="Times,serif" font-size="14.00">0x7962200:</text>
<text text-anchor="start" x="8" y="-451.3" font-family="Times,serif" font-size="14.00"> g38 = v1</text>
<text text-anchor="start" x="8" y="-436.3" font-family="Times,serif" font-size="14.00"> g39 = v2</text>
<text text-anchor="start" x="8" y="-421.3" font-family="Times,serif" font-size="14.00"> g32 = v3</text>
<text text-anchor="start" x="8" y="-406.3" font-family="Times,serif" font-size="14.00"> v7</text>
<text text-anchor="start" x="8" y="-391.3" font-family="Times,serif" font-size="14.00"> g34 = v7</text>
<text text-anchor="start" x="8" y="-376.3" font-family="Times,serif" font-size="14.00"> IntToPtrCastExpr&lt;ptr&gt;(ExtCastExpr&lt;int32&gt;((v6 == 0)))()</text>
<text text-anchor="start" x="8" y="-361.3" font-family="Times,serif" font-size="14.00"> g30 = g38</text>
<text text-anchor="start" x="8" y="-346.3" font-family="Times,serif" font-size="14.00"> function_212a0()</text>
</g>
<!-- Node0x2f6887a0&#45;&gt;Node0x2f686320 -->
<g id="edge8" class="edge"><title>Node0x2f6887a0&#45;&gt;Node0x2f686320</title>
<path fill="none" stroke="black" d="M248.566,-609.329C254.205,-604.129 259.379,-597.956 262.5,-591 276.48,-559.838 272.149,-523.301 262.367,-491.317"/>
<polygon fill="black" stroke="black" points="265.607,-489.964 259.17,-481.549 258.954,-492.141 265.607,-489.964"/>
<text text-anchor="middle" x="298.5" y="-534.8" font-family="Times,serif" font-size="14.00">v6 != 0</text>
</g>
<!-- Node0x2f689ad0 -->
<g id="node10" class="node"><title>Node0x2f689ad0</title>
<polygon fill="none" stroke="black" points="380.5,-23.5 380.5,-59.5 434.5,-59.5 434.5,-23.5 380.5,-23.5"/>
<text text-anchor="start" x="388.5" y="-37.8" font-family="Times,serif" font-size="14.00">exit:</text>
</g>
<!-- Node0x2f686620&#45;&gt;Node0x2f689ad0 -->
<g id="edge9" class="edge"><title>Node0x2f686620&#45;&gt;Node0x2f689ad0</title>
<path fill="none" stroke="black" d="M407.5,-97.3235C407.5,-87.3683 407.5,-77.9638 407.5,-69.8472"/>
<polygon fill="black" stroke="black" points="411,-69.6466 407.5,-59.6466 404,-69.6467 411,-69.6466"/>
</g>
<!-- Node0x2f6871f0&#45;&gt;Node0x2f686320 -->
<g id="edge10" class="edge"><title>Node0x2f6871f0&#45;&gt;Node0x2f686320</title>
<path fill="none" stroke="black" d="M194.515,-519.376C196.685,-511.53 199.391,-501.751 202.282,-491.301"/>
<polygon fill="black" stroke="black" points="205.686,-492.123 204.98,-481.552 198.94,-490.257 205.686,-492.123"/>
</g>
<!-- Node0x2f686320&#45;&gt;Node0x2f686620 -->
<g id="edge11" class="edge"><title>Node0x2f686320&#45;&gt;Node0x2f686620</title>
<path fill="none" stroke="black" d="M286.455,-338.242C294.884,-328.617 303.686,-318.563 312.532,-308.46"/>
<polygon fill="black" stroke="black" points="315.346,-310.56 319.3,-300.731 310.079,-305.949 315.346,-310.56"/>
</g>
</g>
</svg>
