<?xml version="1.0" encoding="UTF-8" standalone="no"?>
<!DOCTYPE svg PUBLIC "-//W3C//DTD SVG 1.1//EN"
 "http://www.w3.org/Graphics/SVG/1.1/DTD/svg11.dtd">
<!-- Generated by graphviz version 2.38.0 (20140413.2041)
 -->
<!-- Title: Control&#45;flow graph for function &#39;function_1113c()&#39;. Pages: 1 -->
<svg width="1228pt" height="1933pt"
 viewBox="0.00 0.00 1227.50 1933.00" xmlns="http://www.w3.org/2000/svg" xmlns:xlink="http://www.w3.org/1999/xlink">
<g id="graph0" class="graph" transform="scale(1 1) rotate(0) translate(4 1929)">
<title>Control&#45;flow graph for function &#39;function_1113c()&#39;.</title>
<polygon fill="white" stroke="none" points="-4,4 -4,-1929 1223.5,-1929 1223.5,4 -4,4"/>
<text text-anchor="middle" x="609.75" y="-7.8" font-family="Times,serif" font-size="14.00">Control&#45;flow graph for function &#39;function_1113c()&#39;.</text>
<!-- Node0x13bef190 -->
<g id="node1" class="node"><title>Node0x13bef190</title>
<polygon fill="none" stroke="black" points="362,-1888.5 362,-1924.5 421,-1924.5 421,-1888.5 362,-1888.5"/>
<text text-anchor="start" x="370" y="-1902.8" font-family="Times,serif" font-size="14.00">entry:</text>
</g>
<!-- Node0x3783e1f0 -->
<g id="node2" class="node"><title>Node0x3783e1f0</title>
<polygon fill="none" stroke="black" points="218.5,-1572.5 218.5,-1850.5 564.5,-1850.5 564.5,-1572.5 218.5,-1572.5"/>
<text text-anchor="start" x="226.5" y="-1835.3" font-family="Times,serif" font-size="14.00">0x451cd240:</text>
<text text-anchor="start" x="226.5" y="-1820.3" font-family="Times,serif" font-size="14.00"> v1 = g38</text>
<text text-anchor="start" x="226.5" y="-1805.3" font-family="Times,serif" font-size="14.00"> v2 = g39</text>
<text text-anchor="start" x="226.5" y="-1790.3" font-family="Times,serif" font-size="14.00"> v3 = g40</text>
<text text-anchor="start" x="226.5" y="-1775.3" font-family="Times,serif" font-size="14.00"> v4 = g41</text>
<text text-anchor="start" x="226.5" y="-1760.3" font-family="Times,serif" font-size="14.00"> v5 = g42</text>
<text text-anchor="start" x="226.5" y="-1745.3" font-family="Times,serif" font-size="14.00"> v6 = g43</text>
<text text-anchor="start" x="226.5" y="-1730.3" font-family="Times,serif" font-size="14.00"> v7 = g31</text>
<text text-anchor="start" x="226.5" y="-1715.3" font-family="Times,serif" font-size="14.00"> v8 = g32</text>
<text text-anchor="start" x="226.5" y="-1700.3" font-family="Times,serif" font-size="14.00"> v9 = g35</text>
<text text-anchor="start" x="226.5" y="-1685.3" font-family="Times,serif" font-size="14.00"> v10 = g29</text>
<text text-anchor="start" x="226.5" y="-1670.3" font-family="Times,serif" font-size="14.00"> v11 = *(IntToPtrCastExpr&lt;ptr&gt;((v10 + 20)))</text>
<text text-anchor="start" x="226.5" y="-1655.3" font-family="Times,serif" font-size="14.00"> g37 = v11</text>
<text text-anchor="start" x="226.5" y="-1640.3" font-family="Times,serif" font-size="14.00"> g43 = v10</text>
<text text-anchor="start" x="226.5" y="-1625.3" font-family="Times,serif" font-size="14.00"> g8 = False</text>
<text text-anchor="start" x="226.5" y="-1610.3" font-family="Times,serif" font-size="14.00"> g7 = (v11 &lt; 0)</text>
<text text-anchor="start" x="226.5" y="-1595.3" font-family="Times,serif" font-size="14.00"> g9 = (v11 == 0)</text>
<text text-anchor="start" x="226.5" y="-1580.3" font-family="Times,serif" font-size="14.00"> v12</text>
</g>
<!-- Node0x13bef190&#45;&gt;Node0x3783e1f0 -->
<g id="edge1" class="edge"><title>Node0x13bef190&#45;&gt;Node0x3783e1f0</title>
<path fill="none" stroke="black" d="M391.5,-1888.37C391.5,-1880.96 391.5,-1871.53 391.5,-1860.92"/>
<polygon fill="black" stroke="black" points="395,-1860.85 391.5,-1850.85 388,-1860.85 395,-1860.85"/>
</g>
<!-- Node0x3783fdf0 -->
<g id="node3" class="node"><title>Node0x3783fdf0</title>
<polygon fill="none" stroke="black" points="332,-1496.5 332,-1534.5 451,-1534.5 451,-1496.5 332,-1496.5"/>
<text text-anchor="start" x="340" y="-1519.3" font-family="Times,serif" font-size="14.00">0x7bc5660:</text>
<text text-anchor="start" x="340" y="-1504.3" font-family="Times,serif" font-size="14.00"> if (v11 == 0):</text>
</g>
<!-- Node0x3783e1f0&#45;&gt;Node0x3783fdf0 -->
<g id="edge2" class="edge"><title>Node0x3783e1f0&#45;&gt;Node0x3783fdf0</title>
<path fill="none" stroke="black" d="M391.5,-1572.35C391.5,-1562.21 391.5,-1552.8 391.5,-1544.71"/>
<polygon fill="black" stroke="black" points="395,-1544.55 391.5,-1534.55 388,-1544.55 395,-1544.55"/>
</g>
<!-- Node0x1fbe4570 -->
<g id="node4" class="node"><title>Node0x1fbe4570</title>
<polygon fill="none" stroke="black" points="41,-1264 41,-1437 274,-1437 274,-1264 41,-1264"/>
<text text-anchor="start" x="49" y="-1421.8" font-family="Times,serif" font-size="14.00">0x7bc5890:</text>
<text text-anchor="start" x="49" y="-1406.8" font-family="Times,serif" font-size="14.00"> g38 = v1</text>
<text text-anchor="start" x="49" y="-1391.8" font-family="Times,serif" font-size="14.00"> g39 = v2</text>
<text text-anchor="start" x="49" y="-1376.8" font-family="Times,serif" font-size="14.00"> g40 = v3</text>
<text text-anchor="start" x="49" y="-1361.8" font-family="Times,serif" font-size="14.00"> g41 = v4</text>
<text text-anchor="start" x="49" y="-1346.8" font-family="Times,serif" font-size="14.00"> g42 = v5</text>
<text text-anchor="start" x="49" y="-1331.8" font-family="Times,serif" font-size="14.00"> g43 = v6</text>
<text text-anchor="start" x="49" y="-1316.8" font-family="Times,serif" font-size="14.00"> g31 = v7</text>
<text text-anchor="start" x="49" y="-1301.8" font-family="Times,serif" font-size="14.00"> g32 = v8</text>
<text text-anchor="start" x="49" y="-1286.8" font-family="Times,serif" font-size="14.00"> g34 = v12</text>
<text text-anchor="start" x="49" y="-1271.8" font-family="Times,serif" font-size="14.00"> IntToPtrCastExpr&lt;ptr&gt;(v9)()</text>
</g>
<!-- Node0x3783fdf0&#45;&gt;Node0x1fbe4570 -->
<g id="edge3" class="edge"><title>Node0x3783fdf0&#45;&gt;Node0x1fbe4570</title>
<path fill="none" stroke="black" d="M361.967,-1496.5C339.816,-1482.8 308.898,-1463.25 282.5,-1445 281.58,-1444.36 280.658,-1443.72 279.733,-1443.08"/>
<polygon fill="black" stroke="black" points="281.549,-1440.08 271.351,-1437.21 277.532,-1445.81 281.549,-1440.08"/>
<text text-anchor="middle" x="365" y="-1466.8" font-family="Times,serif" font-size="14.00">v11 == 0</text>
</g>
<!-- Node0x30d29a80 -->
<g id="node5" class="node"><title>Node0x30d29a80</title>
<polygon fill="none" stroke="black" points="292,-1256.5 292,-1444.5 811,-1444.5 811,-1256.5 292,-1256.5"/>
<text text-anchor="start" x="300" y="-1429.3" font-family="Times,serif" font-size="14.00">0x1e817160:</text>
<text text-anchor="start" x="300" y="-1414.3" font-family="Times,serif" font-size="14.00"> v13 = ExtCastExpr&lt;int32&gt;(*(IntToPtrCastExpr&lt;ptr&gt;((v10 + 686))))</text>
<text text-anchor="start" x="300" y="-1399.3" font-family="Times,serif" font-size="14.00"> g38 = v13</text>
<text text-anchor="start" x="300" y="-1384.3" font-family="Times,serif" font-size="14.00"> v14 = ExtCastExpr&lt;int32&gt;(*(IntToPtrCastExpr&lt;ptr&gt;((v10 + 688))))</text>
<text text-anchor="start" x="300" y="-1369.3" font-family="Times,serif" font-size="14.00"> g41 = v14</text>
<text text-anchor="start" x="300" y="-1354.3" font-family="Times,serif" font-size="14.00"> v15 = (10 * v13)</text>
<text text-anchor="start" x="300" y="-1339.3" font-family="Times,serif" font-size="14.00"> g36 = v15</text>
<text text-anchor="start" x="300" y="-1324.3" font-family="Times,serif" font-size="14.00"> v16 = (9 * v14)</text>
<text text-anchor="start" x="300" y="-1309.3" font-family="Times,serif" font-size="14.00"> g37 = v16</text>
<text text-anchor="start" x="300" y="-1294.3" font-family="Times,serif" font-size="14.00"> g8 = False</text>
<text text-anchor="start" x="300" y="-1279.3" font-family="Times,serif" font-size="14.00"> g7 = ((v15 &#45; v16) &lt; 0)</text>
<text text-anchor="start" x="300" y="-1264.3" font-family="Times,serif" font-size="14.00"> g9 = (v15 == v16)</text>
</g>
<!-- Node0x3783fdf0&#45;&gt;Node0x30d29a80 -->
<g id="edge4" class="edge"><title>Node0x3783fdf0&#45;&gt;Node0x30d29a80</title>
<path fill="none" stroke="black" d="M409.234,-1496.43C420.483,-1484.97 436.029,-1469.14 452.732,-1452.12"/>
<polygon fill="black" stroke="black" points="455.445,-1454.35 459.953,-1444.76 450.45,-1449.45 455.445,-1454.35"/>
<text text-anchor="middle" x="470" y="-1466.8" font-family="Times,serif" font-size="14.00">v11 != 0</text>
</g>
<!-- Node0x43270550 -->
<g id="node6" class="node"><title>Node0x43270550</title>
<polygon fill="none" stroke="black" points="107,-1180.5 107,-1218.5 208,-1218.5 208,-1180.5 107,-1180.5"/>
<text text-anchor="start" x="115" y="-1203.3" font-family="Times,serif" font-size="14.00">0x7bc6dd0:</text>
<text text-anchor="start" x="115" y="-1188.3" font-family="Times,serif" font-size="14.00"> if g9:</text>
</g>
<!-- Node0x1fbe4570&#45;&gt;Node0x43270550 -->
<g id="edge5" class="edge"><title>Node0x1fbe4570&#45;&gt;Node0x43270550</title>
<path fill="none" stroke="black" d="M157.5,-1263.69C157.5,-1251.15 157.5,-1239.04 157.5,-1228.84"/>
<polygon fill="black" stroke="black" points="161,-1228.59 157.5,-1218.59 154,-1228.59 161,-1228.59"/>
</g>
<!-- Node0x45607e20 -->
<g id="node7" class="node"><title>Node0x45607e20</title>
<polygon fill="none" stroke="black" points="489.5,-1180.5 489.5,-1218.5 613.5,-1218.5 613.5,-1180.5 489.5,-1180.5"/>
<text text-anchor="start" x="497.5" y="-1203.3" font-family="Times,serif" font-size="14.00">0x7bc3b50:</text>
<text text-anchor="start" x="497.5" y="-1188.3" font-family="Times,serif" font-size="14.00"> if (v15 &lt; v16):</text>
</g>
<!-- Node0x30d29a80&#45;&gt;Node0x45607e20 -->
<g id="edge6" class="edge"><title>Node0x30d29a80&#45;&gt;Node0x45607e20</title>
<path fill="none" stroke="black" d="M551.5,-1256.41C551.5,-1246.43 551.5,-1236.92 551.5,-1228.67"/>
<polygon fill="black" stroke="black" points="555,-1228.62 551.5,-1218.62 548,-1228.62 555,-1228.62"/>
</g>
<!-- Node0x15eadb20 -->
<g id="node8" class="node"><title>Node0x15eadb20</title>
<polygon fill="none" stroke="black" points="0,-1023 0,-1061 197,-1061 197,-1023 0,-1023"/>
<text text-anchor="start" x="8" y="-1045.8" font-family="Times,serif" font-size="14.00">0x7bc6bb0:</text>
<text text-anchor="start" x="8" y="-1030.8" font-family="Times,serif" font-size="14.00"> g29 = (g29 &amp; (g35 / 32))</text>
</g>
<!-- Node0x43270550&#45;&gt;Node0x15eadb20 -->
<g id="edge7" class="edge"><title>Node0x43270550&#45;&gt;Node0x15eadb20</title>
<path fill="none" stroke="black" d="M150.616,-1180.36C140.358,-1153.32 120.981,-1102.25 108.962,-1070.57"/>
<polygon fill="black" stroke="black" points="112.16,-1069.13 105.34,-1061.03 105.615,-1071.62 112.16,-1069.13"/>
<text text-anchor="middle" x="153" y="-1150.8" font-family="Times,serif" font-size="14.00">g9</text>
</g>
<!-- Node0x3783f1f0 -->
<g id="node9" class="node"><title>Node0x3783f1f0</title>
<polygon fill="none" stroke="black" points="89,-879.5 89,-917.5 186,-917.5 186,-879.5 89,-879.5"/>
<text text-anchor="start" x="97" y="-902.3" font-family="Times,serif" font-size="14.00">0x7bc6f10:</text>
<text text-anchor="start" x="97" y="-887.3" font-family="Times,serif" font-size="14.00"> return</text>
</g>
<!-- Node0x43270550&#45;&gt;Node0x3783f1f0 -->
<g id="edge8" class="edge"><title>Node0x43270550&#45;&gt;Node0x3783f1f0</title>
<path fill="none" stroke="black" d="M174.612,-1180.41C185.804,-1167.28 199.433,-1148.46 205.5,-1129 228.517,-1055.17 238.658,-1024.86 205.5,-955 199.616,-942.604 189.459,-932.061 178.761,-923.602"/>
<polygon fill="black" stroke="black" points="180.665,-920.657 170.538,-917.544 176.513,-926.293 180.665,-920.657"/>
<text text-anchor="middle" x="256" y="-1038.3" font-family="Times,serif" font-size="14.00">not (g9)</text>
</g>
<!-- Node0x3c8ee780 -->
<g id="node10" class="node"><title>Node0x3c8ee780</title>
<polygon fill="none" stroke="black" points="331,-955.5 331,-1128.5 564,-1128.5 564,-955.5 331,-955.5"/>
<text text-anchor="start" x="339" y="-1113.3" font-family="Times,serif" font-size="14.00">0x7bc3d30:</text>
<text text-anchor="start" x="339" y="-1098.3" font-family="Times,serif" font-size="14.00"> g38 = v1</text>
<text text-anchor="start" x="339" y="-1083.3" font-family="Times,serif" font-size="14.00"> g39 = v2</text>
<text text-anchor="start" x="339" y="-1068.3" font-family="Times,serif" font-size="14.00"> g40 = v3</text>
<text text-anchor="start" x="339" y="-1053.3" font-family="Times,serif" font-size="14.00"> g41 = v4</text>
<text text-anchor="start" x="339" y="-1038.3" font-family="Times,serif" font-size="14.00"> g42 = v5</text>
<text text-anchor="start" x="339" y="-1023.3" font-family="Times,serif" font-size="14.00"> g43 = v6</text>
<text text-anchor="start" x="339" y="-1008.3" font-family="Times,serif" font-size="14.00"> g31 = v7</text>
<text text-anchor="start" x="339" y="-993.3" font-family="Times,serif" font-size="14.00"> g32 = v8</text>
<text text-anchor="start" x="339" y="-978.3" font-family="Times,serif" font-size="14.00"> g34 = v12</text>
<text text-anchor="start" x="339" y="-963.3" font-family="Times,serif" font-size="14.00"> IntToPtrCastExpr&lt;ptr&gt;(v9)()</text>
</g>
<!-- Node0x45607e20&#45;&gt;Node0x3c8ee780 -->
<g id="edge9" class="edge"><title>Node0x45607e20&#45;&gt;Node0x3c8ee780</title>
<path fill="none" stroke="black" d="M534.567,-1180.46C529.501,-1174.73 524.08,-1168.26 519.5,-1162 513.723,-1154.11 507.972,-1145.74 502.383,-1137.23"/>
<polygon fill="black" stroke="black" points="505.228,-1135.19 496.853,-1128.7 499.353,-1138.99 505.228,-1135.19"/>
<text text-anchor="middle" x="556.5" y="-1150.8" font-family="Times,serif" font-size="14.00">v15 &lt; v16</text>
</g>
<!-- Node0x30d29880 -->
<g id="node11" class="node"><title>Node0x30d29880</title>
<polygon fill="none" stroke="black" points="659,-970.5 659,-1113.5 832,-1113.5 832,-970.5 659,-970.5"/>
<text text-anchor="start" x="667" y="-1098.3" font-family="Times,serif" font-size="14.00">0x7bba430:</text>
<text text-anchor="start" x="667" y="-1083.3" font-family="Times,serif" font-size="14.00"> g29 = v14</text>
<text text-anchor="start" x="667" y="-1068.3" font-family="Times,serif" font-size="14.00"> g30 = 5</text>
<text text-anchor="start" x="667" y="-1053.3" font-family="Times,serif" font-size="14.00"> function_24228()</text>
<text text-anchor="start" x="667" y="-1038.3" font-family="Times,serif" font-size="14.00"> v17 = (g29 % 65536)</text>
<text text-anchor="start" x="667" y="-1023.3" font-family="Times,serif" font-size="14.00"> g29 = v17</text>
<text text-anchor="start" x="667" y="-1008.3" font-family="Times,serif" font-size="14.00"> g8 = False</text>
<text text-anchor="start" x="667" y="-993.3" font-family="Times,serif" font-size="14.00"> g7 = (v17 &lt; 32)</text>
<text text-anchor="start" x="667" y="-978.3" font-family="Times,serif" font-size="14.00"> g9 = (v17 == 32)</text>
</g>
<!-- Node0x45607e20&#45;&gt;Node0x30d29880 -->
<g id="edge10" class="edge"><title>Node0x45607e20&#45;&gt;Node0x30d29880</title>
<path fill="none" stroke="black" d="M574.134,-1180.36C593.32,-1164.98 622.207,-1141.83 650.823,-1118.89"/>
<polygon fill="black" stroke="black" points="653.265,-1121.42 658.879,-1112.43 648.887,-1115.95 653.265,-1121.42"/>
<text text-anchor="middle" x="656.5" y="-1150.8" font-family="Times,serif" font-size="14.00">v15 &gt;= v16</text>
</g>
<!-- Node0x15eadb20&#45;&gt;Node0x3783f1f0 -->
<g id="edge11" class="edge"><title>Node0x15eadb20&#45;&gt;Node0x3783f1f0</title>
<path fill="none" stroke="black" d="M103.519,-1022.79C110.188,-998.593 122.035,-955.609 129.829,-927.33"/>
<polygon fill="black" stroke="black" points="133.218,-928.21 132.501,-917.639 126.469,-926.35 133.218,-928.21"/>
</g>
<!-- Node0x3783d3f0 -->
<g id="node12" class="node"><title>Node0x3783d3f0</title>
<polygon fill="none" stroke="black" points="361.5,-23.5 361.5,-59.5 415.5,-59.5 415.5,-23.5 361.5,-23.5"/>
<text text-anchor="start" x="369.5" y="-37.8" font-family="Times,serif" font-size="14.00">exit:</text>
</g>
<!-- Node0x3783f1f0&#45;&gt;Node0x3783d3f0 -->
<g id="edge12" class="edge"><title>Node0x3783f1f0&#45;&gt;Node0x3783d3f0</title>
<path fill="none" stroke="black" d="M137.5,-879.329C137.5,-838.626 137.5,-737.03 137.5,-652 137.5,-652 137.5,-652 137.5,-115.5 137.5,-71.5786 280.996,-52.3418 350.992,-45.571"/>
<polygon fill="black" stroke="black" points="351.528,-49.0363 361.161,-44.6251 350.88,-42.0664 351.528,-49.0363"/>
</g>
<!-- Node0x324d99a0 -->
<g id="node13" class="node"><title>Node0x324d99a0</title>
<polygon fill="none" stroke="black" points="349,-879.5 349,-917.5 450,-917.5 450,-879.5 349,-879.5"/>
<text text-anchor="start" x="357" y="-902.3" font-family="Times,serif" font-size="14.00">0x7bc5300:</text>
<text text-anchor="start" x="357" y="-887.3" font-family="Times,serif" font-size="14.00"> if g9:</text>
</g>
<!-- Node0x3c8ee780&#45;&gt;Node0x324d99a0 -->
<g id="edge13" class="edge"><title>Node0x3c8ee780&#45;&gt;Node0x324d99a0</title>
<path fill="none" stroke="black" d="M418.471,-955.425C415.046,-945.328 411.764,-935.654 408.922,-927.274"/>
<polygon fill="black" stroke="black" points="412.219,-926.1 405.692,-917.754 405.59,-928.348 412.219,-926.1"/>
</g>
<!-- Node0x4560a820 -->
<g id="node14" class="node"><title>Node0x4560a820</title>
<polygon fill="none" stroke="black" points="710.5,-879.5 710.5,-917.5 838.5,-917.5 838.5,-879.5 710.5,-879.5"/>
<text text-anchor="start" x="718.5" y="-902.3" font-family="Times,serif" font-size="14.00">0x7bc1c40:</text>
<text text-anchor="start" x="718.5" y="-887.3" font-family="Times,serif" font-size="14.00"> if (v17 &lt;= 32):</text>
</g>
<!-- Node0x30d29880&#45;&gt;Node0x4560a820 -->
<g id="edge14" class="edge"><title>Node0x30d29880&#45;&gt;Node0x4560a820</title>
<path fill="none" stroke="black" d="M760,-970.25C763.088,-955.18 766.177,-940.111 768.705,-927.776"/>
<polygon fill="black" stroke="black" points="772.189,-928.208 770.768,-917.709 765.332,-926.803 772.189,-928.208"/>
</g>
<!-- Node0x4560a730 -->
<g id="node15" class="node"><title>Node0x4560a730</title>
<polygon fill="none" stroke="black" points="166,-632 166,-670 363,-670 363,-632 166,-632"/>
<text text-anchor="start" x="174" y="-654.8" font-family="Times,serif" font-size="14.00">0x7bc5120:</text>
<text text-anchor="start" x="174" y="-639.8" font-family="Times,serif" font-size="14.00"> g29 = (g29 &amp; (g35 / 32))</text>
</g>
<!-- Node0x324d99a0&#45;&gt;Node0x4560a730 -->
<g id="edge15" class="edge"><title>Node0x324d99a0&#45;&gt;Node0x4560a730</title>
<path fill="none" stroke="black" d="M381.301,-879.396C376.164,-873.771 370.807,-867.369 366.5,-861 325.549,-800.438 291.499,-720.989 275.075,-679.669"/>
<polygon fill="black" stroke="black" points="278.292,-678.285 271.378,-670.257 271.777,-680.845 278.292,-678.285"/>
<text text-anchor="middle" x="376" y="-849.8" font-family="Times,serif" font-size="14.00">g9</text>
</g>
<!-- Node0x1fbdeb50 -->
<g id="node16" class="node"><title>Node0x1fbdeb50</title>
<polygon fill="none" stroke="black" points="315,-331 315,-369 416,-369 416,-331 315,-331"/>
<text text-anchor="start" x="323" y="-353.8" font-family="Times,serif" font-size="14.00">0x7bc5400:</text>
<text text-anchor="start" x="323" y="-338.8" font-family="Times,serif" font-size="14.00"> return</text>
</g>
<!-- Node0x324d99a0&#45;&gt;Node0x1fbdeb50 -->
<g id="edge16" class="edge"><title>Node0x324d99a0&#45;&gt;Node0x1fbdeb50</title>
<path fill="none" stroke="black" d="M398.369,-879.317C393.382,-799.164 373.342,-477.043 367.259,-379.276"/>
<polygon fill="black" stroke="black" points="370.75,-379.015 366.635,-369.251 363.763,-379.449 370.75,-379.015"/>
<text text-anchor="middle" x="423" y="-647.3" font-family="Times,serif" font-size="14.00">not (g9)</text>
</g>
<!-- Node0x13bebe20 -->
<g id="node17" class="node"><title>Node0x13bebe20</title>
<polygon fill="none" stroke="black" points="474.5,-474.5 474.5,-827.5 1074.5,-827.5 1074.5,-474.5 474.5,-474.5"/>
<text text-anchor="start" x="482.5" y="-812.3" font-family="Times,serif" font-size="14.00">0x16654f40:</text>
<text text-anchor="start" x="482.5" y="-797.3" font-family="Times,serif" font-size="14.00"> v18 = (g41 &#45; v17)</text>
<text text-anchor="start" x="482.5" y="-782.3" font-family="Times,serif" font-size="14.00"> g41 = v18</text>
<text text-anchor="start" x="482.5" y="-767.3" font-family="Times,serif" font-size="14.00"> v19 = (2 * v17)</text>
<text text-anchor="start" x="482.5" y="-752.3" font-family="Times,serif" font-size="14.00"> g40 = v19</text>
<text text-anchor="start" x="482.5" y="-737.3" font-family="Times,serif" font-size="14.00"> v20 = (2 * v18)</text>
<text text-anchor="start" x="482.5" y="-722.3" font-family="Times,serif" font-size="14.00"> g42 = v20</text>
<text text-anchor="start" x="482.5" y="-707.3" font-family="Times,serif" font-size="14.00"> v21 = (g38 &#45; v18)</text>
<text text-anchor="start" x="482.5" y="-692.3" font-family="Times,serif" font-size="14.00"> g37 = v21</text>
<text text-anchor="start" x="482.5" y="-677.3" font-family="Times,serif" font-size="14.00"> g30 = (v20 + 2624)</text>
<text text-anchor="start" x="482.5" y="-662.3" font-family="Times,serif" font-size="14.00"> g38 = (v19 + 2624)</text>
<text text-anchor="start" x="482.5" y="-647.3" font-family="Times,serif" font-size="14.00"> *(IntToPtrCastExpr&lt;ptr&gt;((g39 + g43))) = TruncCastExpr&lt;int16&gt;(v21)</text>
<text text-anchor="start" x="482.5" y="-632.3" font-family="Times,serif" font-size="14.00"> v22 = g43</text>
<text text-anchor="start" x="482.5" y="-617.3" font-family="Times,serif" font-size="14.00"> g38 = (g38 + v22)</text>
<text text-anchor="start" x="482.5" y="-602.3" font-family="Times,serif" font-size="14.00"> g39 = (v22 + 2624)</text>
<text text-anchor="start" x="482.5" y="-587.3" font-family="Times,serif" font-size="14.00"> v23</text>
<text text-anchor="start" x="482.5" y="-572.3" font-family="Times,serif" font-size="14.00"> memcpy(BitCastExpr&lt;ptr&gt;(&amp;(v23)), IntToPtrCastExpr&lt;ptr&gt;((v22 + g30)), g40)</text>
<text text-anchor="start" x="482.5" y="-557.3" font-family="Times,serif" font-size="14.00"> memmove(IntToPtrCastExpr&lt;ptr&gt;(g38), IntToPtrCastExpr&lt;ptr&gt;(g39), g42)</text>
<text text-anchor="start" x="482.5" y="-542.3" font-family="Times,serif" font-size="14.00"> memcpy(IntToPtrCastExpr&lt;ptr&gt;(g39), v23, g40)</text>
<text text-anchor="start" x="482.5" y="-527.3" font-family="Times,serif" font-size="14.00"> g29 = *(IntToPtrCastExpr&lt;ptr&gt;(g43))</text>
<text text-anchor="start" x="482.5" y="-512.3" font-family="Times,serif" font-size="14.00"> g30 = g38</text>
<text text-anchor="start" x="482.5" y="-497.3" font-family="Times,serif" font-size="14.00"> g36 = g41</text>
<text text-anchor="start" x="482.5" y="-482.3" font-family="Times,serif" font-size="14.00"> function_110e0()</text>
</g>
<!-- Node0x4560a820&#45;&gt;Node0x13bebe20 -->
<g id="edge17" class="edge"><title>Node0x4560a820&#45;&gt;Node0x13bebe20</title>
<path fill="none" stroke="black" d="M774.5,-879.448C774.5,-868.895 774.5,-854.392 774.5,-837.773"/>
<polygon fill="black" stroke="black" points="778,-837.758 774.5,-827.758 771,-837.758 778,-837.758"/>
<text text-anchor="middle" x="813.5" y="-849.8" font-family="Times,serif" font-size="14.00">v17 &lt;= 32</text>
</g>
<!-- Node0x30d2e260 -->
<g id="node18" class="node"><title>Node0x30d2e260</title>
<polygon fill="none" stroke="black" points="658,-263.5 658,-436.5 891,-436.5 891,-263.5 658,-263.5"/>
<text text-anchor="start" x="666" y="-421.3" font-family="Times,serif" font-size="14.00">0x7bc1de0:</text>
<text text-anchor="start" x="666" y="-406.3" font-family="Times,serif" font-size="14.00"> g38 = v1</text>
<text text-anchor="start" x="666" y="-391.3" font-family="Times,serif" font-size="14.00"> g39 = v2</text>
<text text-anchor="start" x="666" y="-376.3" font-family="Times,serif" font-size="14.00"> g40 = v3</text>
<text text-anchor="start" x="666" y="-361.3" font-family="Times,serif" font-size="14.00"> g41 = v4</text>
<text text-anchor="start" x="666" y="-346.3" font-family="Times,serif" font-size="14.00"> g42 = v5</text>
<text text-anchor="start" x="666" y="-331.3" font-family="Times,serif" font-size="14.00"> g43 = v6</text>
<text text-anchor="start" x="666" y="-316.3" font-family="Times,serif" font-size="14.00"> g31 = v7</text>
<text text-anchor="start" x="666" y="-301.3" font-family="Times,serif" font-size="14.00"> g32 = v8</text>
<text text-anchor="start" x="666" y="-286.3" font-family="Times,serif" font-size="14.00"> g34 = v12</text>
<text text-anchor="start" x="666" y="-271.3" font-family="Times,serif" font-size="14.00"> IntToPtrCastExpr&lt;ptr&gt;(v9)()</text>
</g>
<!-- Node0x4560a820&#45;&gt;Node0x30d2e260 -->
<g id="edge18" class="edge"><title>Node0x4560a820&#45;&gt;Node0x30d2e260</title>
<path fill="none" stroke="black" d="M838.701,-892.313C920.084,-884.251 1053.44,-865.569 1083.5,-828 1181.79,-705.147 1171.81,-604.209 1083.5,-474 1042.73,-413.89 967.418,-383.155 901.355,-367.44"/>
<polygon fill="black" stroke="black" points="901.788,-363.949 891.26,-365.136 900.231,-370.773 901.788,-363.949"/>
<text text-anchor="middle" x="1186.5" y="-647.3" font-family="Times,serif" font-size="14.00">v17 &gt; 32</text>
</g>
<!-- Node0x4560a730&#45;&gt;Node0x1fbdeb50 -->
<g id="edge19" class="edge"><title>Node0x4560a730&#45;&gt;Node0x1fbdeb50</title>
<path fill="none" stroke="black" d="M270.666,-631.746C287.752,-581.166 335.783,-438.973 356.166,-378.632"/>
<polygon fill="black" stroke="black" points="359.53,-379.609 359.415,-369.015 352.898,-377.369 359.53,-379.609"/>
</g>
<!-- Node0x1fbdeb50&#45;&gt;Node0x3783d3f0 -->
<g id="edge20" class="edge"><title>Node0x1fbdeb50&#45;&gt;Node0x3783d3f0</title>
<path fill="none" stroke="black" d="M366.87,-330.745C370.756,-278.954 381.868,-130.884 386.468,-69.5824"/>
<polygon fill="black" stroke="black" points="389.965,-69.7523 387.223,-59.5184 382.984,-69.2284 389.965,-69.7523"/>
</g>
<!-- Node0x13bebe20&#45;&gt;Node0x30d2e260 -->
<g id="edge21" class="edge"><title>Node0x13bebe20&#45;&gt;Node0x30d2e260</title>
<path fill="none" stroke="black" d="M774.5,-474.341C774.5,-464.92 774.5,-455.643 774.5,-446.664"/>
<polygon fill="black" stroke="black" points="778,-446.663 774.5,-436.663 771,-446.663 778,-446.663"/>
</g>
<!-- Node0x22826ca0 -->
<g id="node19" class="node"><title>Node0x22826ca0</title>
<polygon fill="none" stroke="black" points="535,-187.5 535,-225.5 636,-225.5 636,-187.5 535,-187.5"/>
<text text-anchor="start" x="543" y="-210.3" font-family="Times,serif" font-size="14.00">0x7bc3670:</text>
<text text-anchor="start" x="543" y="-195.3" font-family="Times,serif" font-size="14.00"> if g9:</text>
</g>
<!-- Node0x30d2e260&#45;&gt;Node0x22826ca0 -->
<g id="edge22" class="edge"><title>Node0x30d2e260&#45;&gt;Node0x22826ca0</title>
<path fill="none" stroke="black" d="M660.198,-263.425C644.66,-251.792 629.869,-240.718 617.611,-231.541"/>
<polygon fill="black" stroke="black" points="619.654,-228.698 609.551,-225.506 615.458,-234.301 619.654,-228.698"/>
</g>
<!-- Node0x22826ca0&#45;&gt;Node0x3783d3f0 -->
<g id="edge24" class="edge"><title>Node0x22826ca0&#45;&gt;Node0x3783d3f0</title>
<path fill="none" stroke="black" d="M534.794,-195.46C498.749,-185.875 451.58,-167.991 421.5,-136 404.429,-117.845 396.113,-90.3237 392.108,-69.8346"/>
<polygon fill="black" stroke="black" points="395.534,-69.1066 390.383,-59.8481 388.636,-70.2978 395.534,-69.1066"/>
<text text-anchor="middle" x="450" y="-112.8" font-family="Times,serif" font-size="14.00">not (g9)</text>
</g>
<!-- Node0x30d2dee0 -->
<g id="node20" class="node"><title>Node0x30d2dee0</title>
<polygon fill="none" stroke="black" points="487,-97.5 487,-135.5 684,-135.5 684,-97.5 487,-97.5"/>
<text text-anchor="start" x="495" y="-120.3" font-family="Times,serif" font-size="14.00">0x7bc3400:</text>
<text text-anchor="start" x="495" y="-105.3" font-family="Times,serif" font-size="14.00"> g29 = (g29 &amp; (g35 / 32))</text>
</g>
<!-- Node0x22826ca0&#45;&gt;Node0x30d2dee0 -->
<g id="edge23" class="edge"><title>Node0x22826ca0&#45;&gt;Node0x30d2dee0</title>
<path fill="none" stroke="black" d="M585.5,-187.266C585.5,-175.349 585.5,-159.538 585.5,-145.982"/>
<polygon fill="black" stroke="black" points="589,-145.71 585.5,-135.71 582,-145.71 589,-145.71"/>
<text text-anchor="middle" x="595" y="-157.8" font-family="Times,serif" font-size="14.00">g9</text>
</g>
<!-- Node0x30d2dee0&#45;&gt;Node0x3783d3f0 -->
<g id="edge25" class="edge"><title>Node0x30d2dee0&#45;&gt;Node0x3783d3f0</title>
<path fill="none" stroke="black" d="M536.803,-97.4551C502.361,-84.6921 456.894,-67.8438 425.425,-56.183"/>
<polygon fill="black" stroke="black" points="426.325,-52.7839 415.732,-52.591 423.893,-59.3477 426.325,-52.7839"/>
</g>
</g>
</svg>
