<?xml version="1.0" encoding="UTF-8" standalone="no"?>
<!DOCTYPE svg PUBLIC "-//W3C//DTD SVG 1.1//EN"
 "http://www.w3.org/Graphics/SVG/1.1/DTD/svg11.dtd">
<!-- Generated by graphviz version 2.38.0 (20140413.2041)
 -->
<!-- Title: Control&#45;flow graph for function &#39;SpGetMetadata()&#39;. Pages: 1 -->
<svg width="398pt" height="1393pt"
 viewBox="0.00 0.00 397.50 1393.00" xmlns="http://www.w3.org/2000/svg" xmlns:xlink="http://www.w3.org/1999/xlink">
<g id="graph0" class="graph" transform="scale(1 1) rotate(0) translate(4 1389)">
<title>Control&#45;flow graph for function &#39;SpGetMetadata()&#39;.</title>
<polygon fill="white" stroke="none" points="-4,4 -4,-1389 393.5,-1389 393.5,4 -4,4"/>
<text text-anchor="middle" x="194.75" y="-7.8" font-family="Times,serif" font-size="14.00">Control&#45;flow graph for function &#39;SpGetMetadata()&#39;.</text>
<!-- Node0x20b51010 -->
<g id="node1" class="node"><title>Node0x20b51010</title>
<polygon fill="none" stroke="black" points="202.5,-1348.5 202.5,-1384.5 261.5,-1384.5 261.5,-1348.5 202.5,-1348.5"/>
<text text-anchor="start" x="210.5" y="-1362.8" font-family="Times,serif" font-size="14.00">entry:</text>
</g>
<!-- Node0x20b52660 -->
<g id="node2" class="node"><title>Node0x20b52660</title>
<polygon fill="none" stroke="black" points="74.5,-1077.5 74.5,-1310.5 389.5,-1310.5 389.5,-1077.5 74.5,-1077.5"/>
<text text-anchor="start" x="82.5" y="-1295.3" font-family="Times,serif" font-size="14.00">0x3fc18710:</text>
<text text-anchor="start" x="82.5" y="-1280.3" font-family="Times,serif" font-size="14.00"> v1 = g38</text>
<text text-anchor="start" x="82.5" y="-1265.3" font-family="Times,serif" font-size="14.00"> v2 = g39</text>
<text text-anchor="start" x="82.5" y="-1250.3" font-family="Times,serif" font-size="14.00"> v3 = g40</text>
<text text-anchor="start" x="82.5" y="-1235.3" font-family="Times,serif" font-size="14.00"> v4 = g41</text>
<text text-anchor="start" x="82.5" y="-1220.3" font-family="Times,serif" font-size="14.00"> g38 = 165012</text>
<text text-anchor="start" x="82.5" y="-1205.3" font-family="Times,serif" font-size="14.00"> v5 = *(IntToPtrCastExpr&lt;ptr&gt;(165212))</text>
<text text-anchor="start" x="82.5" y="-1190.3" font-family="Times,serif" font-size="14.00"> g41 = v5</text>
<text text-anchor="start" x="82.5" y="-1175.3" font-family="Times,serif" font-size="14.00"> v6 = *(IntToPtrCastExpr&lt;ptr&gt;(v5))</text>
<text text-anchor="start" x="82.5" y="-1160.3" font-family="Times,serif" font-size="14.00"> g33 = v6</text>
<text text-anchor="start" x="82.5" y="-1145.3" font-family="Times,serif" font-size="14.00"> v7 = g29</text>
<text text-anchor="start" x="82.5" y="-1130.3" font-family="Times,serif" font-size="14.00"> g40 = v7</text>
<text text-anchor="start" x="82.5" y="-1115.3" font-family="Times,serif" font-size="14.00"> v8 = g30</text>
<text text-anchor="start" x="82.5" y="-1100.3" font-family="Times,serif" font-size="14.00"> g39 = v8</text>
<text text-anchor="start" x="82.5" y="-1085.3" font-family="Times,serif" font-size="14.00"> v9 = v7</text>
</g>
<!-- Node0x20b51010&#45;&gt;Node0x20b52660 -->
<g id="edge1" class="edge"><title>Node0x20b51010&#45;&gt;Node0x20b52660</title>
<path fill="none" stroke="black" d="M232,-1348.21C232,-1340.69 232,-1331.17 232,-1320.57"/>
<polygon fill="black" stroke="black" points="235.5,-1320.56 232,-1310.56 228.5,-1320.56 235.5,-1320.56"/>
</g>
<!-- Node0x295334b0 -->
<g id="node3" class="node"><title>Node0x295334b0</title>
<polygon fill="none" stroke="black" points="180,-1001.5 180,-1039.5 284,-1039.5 284,-1001.5 180,-1001.5"/>
<text text-anchor="start" x="188" y="-1024.3" font-family="Times,serif" font-size="14.00">0x8243db0:</text>
<text text-anchor="start" x="188" y="-1009.3" font-family="Times,serif" font-size="14.00"> if (v6 != 0):</text>
</g>
<!-- Node0x20b52660&#45;&gt;Node0x295334b0 -->
<g id="edge2" class="edge"><title>Node0x20b52660&#45;&gt;Node0x295334b0</title>
<path fill="none" stroke="black" d="M232,-1077.18C232,-1067.25 232,-1057.94 232,-1049.88"/>
<polygon fill="black" stroke="black" points="235.5,-1049.72 232,-1039.72 228.5,-1049.72 235.5,-1049.72"/>
</g>
<!-- Node0x20b4af60 -->
<g id="node4" class="node"><title>Node0x20b4af60</title>
<polygon fill="none" stroke="black" points="20,-866.5 20,-949.5 232,-949.5 232,-866.5 20,-866.5"/>
<text text-anchor="start" x="28" y="-934.3" font-family="Times,serif" font-size="14.00">0x8243120:</text>
<text text-anchor="start" x="28" y="-919.3" font-family="Times,serif" font-size="14.00"> g36 = v7</text>
<text text-anchor="start" x="28" y="-904.3" font-family="Times,serif" font-size="14.00"> imported_function_ord_0()</text>
<text text-anchor="start" x="28" y="-889.3" font-family="Times,serif" font-size="14.00"> v9 = g40</text>
<text text-anchor="start" x="28" y="-874.3" font-family="Times,serif" font-size="14.00"> v8 = g39</text>
</g>
<!-- Node0x295334b0&#45;&gt;Node0x20b4af60 -->
<g id="edge3" class="edge"><title>Node0x295334b0&#45;&gt;Node0x20b4af60</title>
<path fill="none" stroke="black" d="M214.496,-1001.25C202.975,-989.242 187.311,-972.914 172.363,-957.331"/>
<polygon fill="black" stroke="black" points="174.552,-954.557 165.104,-949.764 169.5,-959.403 174.552,-954.557"/>
<text text-anchor="middle" x="222" y="-971.8" font-family="Times,serif" font-size="14.00">v6 != 0</text>
</g>
<!-- Node0x295337b0 -->
<g id="node5" class="node"><title>Node0x295337b0</title>
<polygon fill="none" stroke="black" points="77.5,-670.5 77.5,-828.5 374.5,-828.5 374.5,-670.5 77.5,-670.5"/>
<text text-anchor="start" x="85.5" y="-813.3" font-family="Times,serif" font-size="14.00">0x8243f30:</text>
<text text-anchor="start" x="85.5" y="-798.3" font-family="Times,serif" font-size="14.00"> g30 = v8</text>
<text text-anchor="start" x="85.5" y="-783.3" font-family="Times,serif" font-size="14.00"> g29 = v9</text>
<text text-anchor="start" x="85.5" y="-768.3" font-family="Times,serif" font-size="14.00"> function_169e8()</text>
<text text-anchor="start" x="85.5" y="-753.3" font-family="Times,serif" font-size="14.00"> v10 = *(IntToPtrCastExpr&lt;ptr&gt;(g41))</text>
<text text-anchor="start" x="85.5" y="-738.3" font-family="Times,serif" font-size="14.00"> g37 = v10</text>
<text text-anchor="start" x="85.5" y="-723.3" font-family="Times,serif" font-size="14.00"> v11 = g29</text>
<text text-anchor="start" x="85.5" y="-708.3" font-family="Times,serif" font-size="14.00"> g39 = v11</text>
<text text-anchor="start" x="85.5" y="-693.3" font-family="Times,serif" font-size="14.00"> g9 = (v10 == 0)</text>
<text text-anchor="start" x="85.5" y="-678.3" font-family="Times,serif" font-size="14.00"> v12 = v11</text>
</g>
<!-- Node0x295334b0&#45;&gt;Node0x295337b0 -->
<g id="edge4" class="edge"><title>Node0x295334b0&#45;&gt;Node0x295337b0</title>
<path fill="none" stroke="black" d="M244.896,-1001.38C248.202,-995.755 251.302,-989.357 253,-983 254.721,-976.559 253.39,-974.655 253,-968 250.496,-925.282 244.981,-878.122 239.584,-838.667"/>
<polygon fill="black" stroke="black" points="243.021,-837.97 238.18,-828.546 236.088,-838.932 243.021,-837.97"/>
<text text-anchor="middle" x="281" y="-904.3" font-family="Times,serif" font-size="14.00">v6 == 0</text>
</g>
<!-- Node0x20b4af60&#45;&gt;Node0x295337b0 -->
<g id="edge5" class="edge"><title>Node0x20b4af60&#45;&gt;Node0x295337b0</title>
<path fill="none" stroke="black" d="M152.013,-866.29C157.8,-857.233 164.149,-847.297 170.619,-837.171"/>
<polygon fill="black" stroke="black" points="173.638,-838.947 176.073,-828.635 167.739,-835.177 173.638,-838.947"/>
</g>
<!-- Node0x2952d150 -->
<g id="node6" class="node"><title>Node0x2952d150</title>
<polygon fill="none" stroke="black" points="169.5,-594.5 169.5,-632.5 282.5,-632.5 282.5,-594.5 169.5,-594.5"/>
<text text-anchor="start" x="177.5" y="-617.3" font-family="Times,serif" font-size="14.00">0x8246490:</text>
<text text-anchor="start" x="177.5" y="-602.3" font-family="Times,serif" font-size="14.00"> if (v10 != 0):</text>
</g>
<!-- Node0x295337b0&#45;&gt;Node0x2952d150 -->
<g id="edge6" class="edge"><title>Node0x295337b0&#45;&gt;Node0x2952d150</title>
<path fill="none" stroke="black" d="M226,-670.164C226,-660.447 226,-651.058 226,-642.846"/>
<polygon fill="black" stroke="black" points="229.5,-642.801 226,-632.801 222.5,-642.801 229.5,-642.801"/>
</g>
<!-- Node0x2952e6c0 -->
<g id="node7" class="node"><title>Node0x2952e6c0</title>
<polygon fill="none" stroke="black" points="17,-459.5 17,-542.5 229,-542.5 229,-459.5 17,-459.5"/>
<text text-anchor="start" x="25" y="-527.3" font-family="Times,serif" font-size="14.00">0x8245aa0:</text>
<text text-anchor="start" x="25" y="-512.3" font-family="Times,serif" font-size="14.00"> g30 = (g38 &#45; 8044)</text>
<text text-anchor="start" x="25" y="-497.3" font-family="Times,serif" font-size="14.00"> g36 = v11</text>
<text text-anchor="start" x="25" y="-482.3" font-family="Times,serif" font-size="14.00"> imported_function_ord_0()</text>
<text text-anchor="start" x="25" y="-467.3" font-family="Times,serif" font-size="14.00"> v12 = g39</text>
</g>
<!-- Node0x2952d150&#45;&gt;Node0x2952e6c0 -->
<g id="edge7" class="edge"><title>Node0x2952d150&#45;&gt;Node0x2952e6c0</title>
<path fill="none" stroke="black" d="M206.358,-594.242C200.361,-588.506 193.817,-582.082 188,-576 180.23,-567.876 172.164,-559.044 164.466,-550.404"/>
<polygon fill="black" stroke="black" points="167.061,-548.054 157.814,-542.883 161.818,-552.692 167.061,-548.054"/>
<text text-anchor="middle" x="219.5" y="-564.8" font-family="Times,serif" font-size="14.00">v10 != 0</text>
</g>
<!-- Node0x20b51ef0 -->
<g id="node8" class="node"><title>Node0x20b51ef0</title>
<polygon fill="none" stroke="black" points="102,-278.5 102,-421.5 344,-421.5 344,-278.5 102,-278.5"/>
<text text-anchor="start" x="110" y="-406.3" font-family="Times,serif" font-size="14.00">0x8246610:</text>
<text text-anchor="start" x="110" y="-391.3" font-family="Times,serif" font-size="14.00"> g29 = v12</text>
<text text-anchor="start" x="110" y="-376.3" font-family="Times,serif" font-size="14.00"> g38 = v1</text>
<text text-anchor="start" x="110" y="-361.3" font-family="Times,serif" font-size="14.00"> g39 = v2</text>
<text text-anchor="start" x="110" y="-346.3" font-family="Times,serif" font-size="14.00"> g40 = v3</text>
<text text-anchor="start" x="110" y="-331.3" font-family="Times,serif" font-size="14.00"> g41 = v4</text>
<text text-anchor="start" x="110" y="-316.3" font-family="Times,serif" font-size="14.00"> v13</text>
<text text-anchor="start" x="110" y="-301.3" font-family="Times,serif" font-size="14.00"> g34 = v13</text>
<text text-anchor="start" x="110" y="-286.3" font-family="Times,serif" font-size="14.00"> IntToPtrCastExpr&lt;ptr&gt;(g35)()</text>
</g>
<!-- Node0x2952d150&#45;&gt;Node0x20b51ef0 -->
<g id="edge8" class="edge"><title>Node0x2952d150&#45;&gt;Node0x20b51ef0</title>
<path fill="none" stroke="black" d="M241.586,-594.316C245.422,-588.787 249.001,-582.457 251,-576 252.972,-569.632 251.422,-567.653 251,-561 248.284,-518.206 242.235,-470.837 236.452,-431.935"/>
<polygon fill="black" stroke="black" points="239.863,-431.084 234.91,-421.718 232.941,-432.129 239.863,-431.084"/>
<text text-anchor="middle" x="283.5" y="-497.3" font-family="Times,serif" font-size="14.00">v10 == 0</text>
</g>
<!-- Node0x2952e6c0&#45;&gt;Node0x20b51ef0 -->
<g id="edge9" class="edge"><title>Node0x2952e6c0&#45;&gt;Node0x20b51ef0</title>
<path fill="none" stroke="black" d="M150.325,-459.285C156.425,-450.197 163.095,-440.259 169.842,-430.206"/>
<polygon fill="black" stroke="black" points="172.85,-432.004 175.517,-421.75 167.038,-428.103 172.85,-432.004"/>
</g>
<!-- Node0x20b4b060 -->
<g id="node9" class="node"><title>Node0x20b4b060</title>
<polygon fill="none" stroke="black" points="172.5,-202.5 172.5,-240.5 273.5,-240.5 273.5,-202.5 172.5,-202.5"/>
<text text-anchor="start" x="180.5" y="-225.3" font-family="Times,serif" font-size="14.00">0x82483c0:</text>
<text text-anchor="start" x="180.5" y="-210.3" font-family="Times,serif" font-size="14.00"> if g9:</text>
</g>
<!-- Node0x20b51ef0&#45;&gt;Node0x20b4b060 -->
<g id="edge10" class="edge"><title>Node0x20b51ef0&#45;&gt;Node0x20b4b060</title>
<path fill="none" stroke="black" d="M223,-278.353C223,-268.594 223,-259.073 223,-250.737"/>
<polygon fill="black" stroke="black" points="226.5,-250.54 223,-240.54 219.5,-250.54 226.5,-250.54"/>
</g>
<!-- Node0x2952d910 -->
<g id="node10" class="node"><title>Node0x2952d910</title>
<polygon fill="none" stroke="black" points="0,-97.5 0,-150.5 224,-150.5 224,-97.5 0,-97.5"/>
<text text-anchor="start" x="8" y="-135.3" font-family="Times,serif" font-size="14.00">0x8247940:</text>
<text text-anchor="start" x="8" y="-120.3" font-family="Times,serif" font-size="14.00"> g37 = (g30 &amp; (g33 / 65536))</text>
<text text-anchor="start" x="8" y="-105.3" font-family="Times,serif" font-size="14.00"> g29 = (g29 &amp; (g42 / 2))</text>
</g>
<!-- Node0x20b4b060&#45;&gt;Node0x2952d910 -->
<g id="edge11" class="edge"><title>Node0x20b4b060&#45;&gt;Node0x2952d910</title>
<path fill="none" stroke="black" d="M201.86,-202.312C187.133,-189.641 167.083,-172.391 149.658,-157.4"/>
<polygon fill="black" stroke="black" points="151.729,-154.564 141.866,-150.695 147.164,-159.87 151.729,-154.564"/>
<text text-anchor="middle" x="187.5" y="-172.8" font-family="Times,serif" font-size="14.00">g9</text>
</g>
<!-- Node0x29532aa0 -->
<g id="node11" class="node"><title>Node0x29532aa0</title>
<polygon fill="none" stroke="black" points="190,-23.5 190,-59.5 244,-59.5 244,-23.5 190,-23.5"/>
<text text-anchor="start" x="198" y="-37.8" font-family="Times,serif" font-size="14.00">exit:</text>
</g>
<!-- Node0x20b4b060&#45;&gt;Node0x29532aa0 -->
<g id="edge12" class="edge"><title>Node0x20b4b060&#45;&gt;Node0x29532aa0</title>
<path fill="none" stroke="black" d="M226.979,-202.423C231.717,-178.291 238.357,-134.261 233,-97 231.689,-87.8798 229.203,-78.1568 226.575,-69.486"/>
<polygon fill="black" stroke="black" points="229.882,-68.3365 223.487,-59.8897 223.219,-70.4811 229.882,-68.3365"/>
<text text-anchor="middle" x="262.5" y="-120.3" font-family="Times,serif" font-size="14.00">not (g9)</text>
</g>
<!-- Node0x2952d910&#45;&gt;Node0x29532aa0 -->
<g id="edge13" class="edge"><title>Node0x2952d910&#45;&gt;Node0x29532aa0</title>
<path fill="none" stroke="black" d="M145.511,-97.308C158.706,-87.1922 173.75,-75.6586 186.622,-65.7898"/>
<polygon fill="black" stroke="black" points="188.92,-68.4386 194.726,-59.5766 184.661,-62.8833 188.92,-68.4386"/>
</g>
</g>
</svg>
