<?xml version="1.0" encoding="UTF-8" standalone="no"?>
<!DOCTYPE svg PUBLIC "-//W3C//DTD SVG 1.1//EN"
 "http://www.w3.org/Graphics/SVG/1.1/DTD/svg11.dtd">
<!-- Generated by graphviz version 2.38.0 (20140413.2041)
 -->
<!-- Title: Control&#45;flow graph for function &#39;function_f4fc()&#39;. Pages: 1 -->
<svg width="369pt" height="216pt"
 viewBox="0.00 0.00 369.00 216.00" xmlns="http://www.w3.org/2000/svg" xmlns:xlink="http://www.w3.org/1999/xlink">
<g id="graph0" class="graph" transform="scale(1 1) rotate(0) translate(4 212)">
<title>Control&#45;flow graph for function &#39;function_f4fc()&#39;.</title>
<polygon fill="white" stroke="none" points="-4,4 -4,-212 365,-212 365,4 -4,4"/>
<text text-anchor="middle" x="180.5" y="-7.8" font-family="Times,serif" font-size="14.00">Control&#45;flow graph for function &#39;function_f4fc()&#39;.</text>
<!-- Node0x3ef59250 -->
<g id="node1" class="node"><title>Node0x3ef59250</title>
<polygon fill="none" stroke="black" points="151,-171.5 151,-207.5 210,-207.5 210,-171.5 151,-171.5"/>
<text text-anchor="start" x="159" y="-185.8" font-family="Times,serif" font-size="14.00">entry:</text>
</g>
<!-- Node0x3ef55e90 -->
<g id="node2" class="node"><title>Node0x3ef55e90</title>
<polygon fill="none" stroke="black" points="130,-96.5 130,-134.5 231,-134.5 231,-96.5 130,-96.5"/>
<text text-anchor="start" x="138" y="-119.3" font-family="Times,serif" font-size="14.00">0x78070c0:</text>
<text text-anchor="start" x="138" y="-104.3" font-family="Times,serif" font-size="14.00"> g29 = 0</text>
</g>
<!-- Node0x3ef59250&#45;&gt;Node0x3ef55e90 -->
<g id="edge1" class="edge"><title>Node0x3ef59250&#45;&gt;Node0x3ef55e90</title>
<path fill="none" stroke="black" d="M180.5,-171.437C180.5,-163.487 180.5,-153.813 180.5,-144.813"/>
<polygon fill="black" stroke="black" points="184,-144.699 180.5,-134.699 177,-144.699 184,-144.699"/>
</g>
<!-- Node0x3ef52f80 -->
<g id="node3" class="node"><title>Node0x3ef52f80</title>
<polygon fill="none" stroke="black" points="153.5,-23.5 153.5,-59.5 207.5,-59.5 207.5,-23.5 153.5,-23.5"/>
<text text-anchor="start" x="161.5" y="-37.8" font-family="Times,serif" font-size="14.00">exit:</text>
</g>
<!-- Node0x3ef55e90&#45;&gt;Node0x3ef52f80 -->
<g id="edge2" class="edge"><title>Node0x3ef55e90&#45;&gt;Node0x3ef52f80</title>
<path fill="none" stroke="black" d="M180.5,-96.3314C180.5,-88.394 180.5,-78.9095 180.5,-70.1285"/>
<polygon fill="black" stroke="black" points="184,-69.9177 180.5,-59.9177 177,-69.9177 184,-69.9177"/>
</g>
</g>
</svg>
