<?xml version="1.0" encoding="UTF-8" standalone="no"?>
<!DOCTYPE svg PUBLIC "-//W3C//DTD SVG 1.1//EN"
 "http://www.w3.org/Graphics/SVG/1.1/DTD/svg11.dtd">
<!-- Generated by graphviz version 2.38.0 (20140413.2041)
 -->
<!-- Title: Control&#45;flow graph for function &#39;function_6668()&#39;. Pages: 1 -->
<svg width="492pt" height="730pt"
 viewBox="0.00 0.00 492.00 730.00" xmlns="http://www.w3.org/2000/svg" xmlns:xlink="http://www.w3.org/1999/xlink">
<g id="graph0" class="graph" transform="scale(1 1) rotate(0) translate(4 726)">
<title>Control&#45;flow graph for function &#39;function_6668()&#39;.</title>
<polygon fill="white" stroke="none" points="-4,4 -4,-726 488,-726 488,4 -4,4"/>
<text text-anchor="middle" x="242" y="-7.8" font-family="Times,serif" font-size="14.00">Control&#45;flow graph for function &#39;function_6668()&#39;.</text>
<!-- Node0x153839b0 -->
<g id="node1" class="node"><title>Node0x153839b0</title>
<polygon fill="none" stroke="black" points="202.5,-685.5 202.5,-721.5 261.5,-721.5 261.5,-685.5 202.5,-685.5"/>
<text text-anchor="start" x="210.5" y="-699.8" font-family="Times,serif" font-size="14.00">entry:</text>
</g>
<!-- Node0x22ab53c0 -->
<g id="node2" class="node"><title>Node0x22ab53c0</title>
<polygon fill="none" stroke="black" points="63.5,-534.5 63.5,-647.5 400.5,-647.5 400.5,-534.5 63.5,-534.5"/>
<text text-anchor="start" x="71.5" y="-632.3" font-family="Times,serif" font-size="14.00">0x44fd5850:</text>
<text text-anchor="start" x="71.5" y="-617.3" font-family="Times,serif" font-size="14.00"> v1 = g29</text>
<text text-anchor="start" x="71.5" y="-602.3" font-family="Times,serif" font-size="14.00"> v2 = *(IntToPtrCastExpr&lt;ptr&gt;((v1 + 136)))</text>
<text text-anchor="start" x="71.5" y="-587.3" font-family="Times,serif" font-size="14.00"> g37 = v2</text>
<text text-anchor="start" x="71.5" y="-572.3" font-family="Times,serif" font-size="14.00"> v3 = *(IntToPtrCastExpr&lt;ptr&gt;((v1 + 128)))</text>
<text text-anchor="start" x="71.5" y="-557.3" font-family="Times,serif" font-size="14.00"> g36 = v3</text>
<text text-anchor="start" x="71.5" y="-542.3" font-family="Times,serif" font-size="14.00"> g9 = (v2 == 0)</text>
</g>
<!-- Node0x153839b0&#45;&gt;Node0x22ab53c0 -->
<g id="edge1" class="edge"><title>Node0x153839b0&#45;&gt;Node0x22ab53c0</title>
<path fill="none" stroke="black" d="M232,-685.234C232,-677.586 232,-668.056 232,-658.033"/>
<polygon fill="black" stroke="black" points="235.5,-657.897 232,-647.897 228.5,-657.897 235.5,-657.897"/>
</g>
<!-- Node0x32ffa0c0 -->
<g id="node3" class="node"><title>Node0x32ffa0c0</title>
<polygon fill="none" stroke="black" points="177,-458.5 177,-496.5 287,-496.5 287,-458.5 177,-458.5"/>
<text text-anchor="start" x="185" y="-481.3" font-family="Times,serif" font-size="14.00">0x6130ed0:</text>
<text text-anchor="start" x="185" y="-466.3" font-family="Times,serif" font-size="14.00"> if (v2 == 0):</text>
</g>
<!-- Node0x22ab53c0&#45;&gt;Node0x32ffa0c0 -->
<g id="edge2" class="edge"><title>Node0x22ab53c0&#45;&gt;Node0x32ffa0c0</title>
<path fill="none" stroke="black" d="M232,-534.25C232,-524.862 232,-515.474 232,-507.151"/>
<polygon fill="black" stroke="black" points="235.5,-506.912 232,-496.912 228.5,-506.912 235.5,-506.912"/>
</g>
<!-- Node0x16d28150 -->
<g id="node4" class="node"><title>Node0x16d28150</title>
<polygon fill="none" stroke="black" points="132.5,-353.5 132.5,-406.5 233.5,-406.5 233.5,-353.5 132.5,-353.5"/>
<text text-anchor="start" x="140.5" y="-391.3" font-family="Times,serif" font-size="14.00">0x61308c0:</text>
<text text-anchor="start" x="140.5" y="-376.3" font-family="Times,serif" font-size="14.00"> g29 = v3</text>
<text text-anchor="start" x="140.5" y="-361.3" font-family="Times,serif" font-size="14.00"> g30 = 0</text>
</g>
<!-- Node0x32ffa0c0&#45;&gt;Node0x16d28150 -->
<g id="edge3" class="edge"><title>Node0x32ffa0c0&#45;&gt;Node0x16d28150</title>
<path fill="none" stroke="black" d="M210.293,-458.488C204.916,-453.052 199.654,-446.726 196,-440 192.127,-432.872 189.408,-424.665 187.499,-416.683"/>
<polygon fill="black" stroke="black" points="190.909,-415.892 185.488,-406.789 184.05,-417.286 190.909,-415.892"/>
<text text-anchor="middle" x="226" y="-428.8" font-family="Times,serif" font-size="14.00">v2 == 0</text>
</g>
<!-- Node0x2e2c2d30 -->
<g id="node5" class="node"><title>Node0x2e2c2d30</title>
<polygon fill="none" stroke="black" points="0,-97.5 0,-315.5 484,-315.5 484,-97.5 0,-97.5"/>
<text text-anchor="start" x="8" y="-300.3" font-family="Times,serif" font-size="14.00">0x1b5fb760:</text>
<text text-anchor="start" x="8" y="-285.3" font-family="Times,serif" font-size="14.00"> v4</text>
<text text-anchor="start" x="8" y="-270.3" font-family="Times,serif" font-size="14.00"> g34 = v4</text>
<text text-anchor="start" x="8" y="-255.3" font-family="Times,serif" font-size="14.00"> IntToPtrCastExpr&lt;ptr&gt;(ExtCastExpr&lt;int32&gt;((v2 == 0)))()</text>
<text text-anchor="start" x="8" y="-240.3" font-family="Times,serif" font-size="14.00"> function_6618()</text>
<text text-anchor="start" x="8" y="-225.3" font-family="Times,serif" font-size="14.00"> v5 = *(IntToPtrCastExpr&lt;ptr&gt;((g38 + 132)))</text>
<text text-anchor="start" x="8" y="-210.3" font-family="Times,serif" font-size="14.00"> g37 = v5</text>
<text text-anchor="start" x="8" y="-195.3" font-family="Times,serif" font-size="14.00"> g29 = v5</text>
<text text-anchor="start" x="8" y="-180.3" font-family="Times,serif" font-size="14.00"> g30 = 0</text>
<text text-anchor="start" x="8" y="-165.3" font-family="Times,serif" font-size="14.00"> v6 = g34</text>
<text text-anchor="start" x="8" y="-150.3" font-family="Times,serif" font-size="14.00"> g38 = *(IntToPtrCastExpr&lt;ptr&gt;((v6 + 4)))</text>
<text text-anchor="start" x="8" y="-135.3" font-family="Times,serif" font-size="14.00"> g32 = *(IntToPtrCastExpr&lt;ptr&gt;((v6 + 8)))</text>
<text text-anchor="start" x="8" y="-120.3" font-family="Times,serif" font-size="14.00"> g34 = *(IntToPtrCastExpr&lt;ptr&gt;((v6 + 12)))</text>
<text text-anchor="start" x="8" y="-105.3" font-family="Times,serif" font-size="14.00"> IntToPtrCastExpr&lt;ptr&gt;(*(IntToPtrCastExpr&lt;ptr&gt;((v6 + 16))))()</text>
</g>
<!-- Node0x32ffa0c0&#45;&gt;Node0x2e2c2d30 -->
<g id="edge4" class="edge"><title>Node0x32ffa0c0&#45;&gt;Node0x2e2c2d30</title>
<path fill="none" stroke="black" d="M246.969,-458.234C250.652,-452.705 254.086,-446.394 256,-440 257.912,-433.613 256.214,-431.663 256,-425 254.966,-392.836 253.074,-358.039 251.008,-325.907"/>
<polygon fill="black" stroke="black" points="254.477,-325.325 250.332,-315.575 247.492,-325.782 254.477,-325.325"/>
<text text-anchor="middle" x="283" y="-376.3" font-family="Times,serif" font-size="14.00">v2 != 0</text>
</g>
<!-- Node0x16d28150&#45;&gt;Node0x2e2c2d30 -->
<g id="edge5" class="edge"><title>Node0x16d28150&#45;&gt;Node0x2e2c2d30</title>
<path fill="none" stroke="black" d="M191.833,-353.325C194.639,-345.169 197.946,-335.556 201.502,-325.22"/>
<polygon fill="black" stroke="black" points="204.886,-326.14 204.83,-315.545 198.267,-323.863 204.886,-326.14"/>
</g>
<!-- Node0x17a0a710 -->
<g id="node6" class="node"><title>Node0x17a0a710</title>
<polygon fill="none" stroke="black" points="215,-23.5 215,-59.5 269,-59.5 269,-23.5 215,-23.5"/>
<text text-anchor="start" x="223" y="-37.8" font-family="Times,serif" font-size="14.00">exit:</text>
</g>
<!-- Node0x2e2c2d30&#45;&gt;Node0x17a0a710 -->
<g id="edge6" class="edge"><title>Node0x2e2c2d30&#45;&gt;Node0x17a0a710</title>
<path fill="none" stroke="black" d="M242,-97.2301C242,-87.2044 242,-77.7868 242,-69.684"/>
<polygon fill="black" stroke="black" points="245.5,-69.516 242,-59.516 238.5,-69.5161 245.5,-69.516"/>
</g>
</g>
</svg>
