<?xml version="1.0" encoding="UTF-8" standalone="no"?>
<!DOCTYPE svg PUBLIC "-//W3C//DTD SVG 1.1//EN"
 "http://www.w3.org/Graphics/SVG/1.1/DTD/svg11.dtd">
<!-- Generated by graphviz version 2.38.0 (20140413.2041)
 -->
<!-- Title: Control&#45;flow graph for function &#39;function_239e8()&#39;. Pages: 1 -->
<svg width="631pt" height="957pt"
 viewBox="0.00 0.00 631.00 957.00" xmlns="http://www.w3.org/2000/svg" xmlns:xlink="http://www.w3.org/1999/xlink">
<g id="graph0" class="graph" transform="scale(1 1) rotate(0) translate(4 953)">
<title>Control&#45;flow graph for function &#39;function_239e8()&#39;.</title>
<polygon fill="white" stroke="none" points="-4,4 -4,-953 627,-953 627,4 -4,4"/>
<text text-anchor="middle" x="311.5" y="-7.8" font-family="Times,serif" font-size="14.00">Control&#45;flow graph for function &#39;function_239e8()&#39;.</text>
<!-- Node0x31f36e70 -->
<g id="node1" class="node"><title>Node0x31f36e70</title>
<polygon fill="none" stroke="black" points="96.5,-912.5 96.5,-948.5 155.5,-948.5 155.5,-912.5 96.5,-912.5"/>
<text text-anchor="start" x="104.5" y="-926.8" font-family="Times,serif" font-size="14.00">entry:</text>
</g>
<!-- Node0x235df090 -->
<g id="node2" class="node"><title>Node0x235df090</title>
<polygon fill="none" stroke="black" points="71.5,-776.5 71.5,-874.5 180.5,-874.5 180.5,-776.5 71.5,-776.5"/>
<text text-anchor="start" x="79.5" y="-859.3" font-family="Times,serif" font-size="14.00">0x2a71c350:</text>
<text text-anchor="start" x="79.5" y="-844.3" font-family="Times,serif" font-size="14.00"> v1 = g38</text>
<text text-anchor="start" x="79.5" y="-829.3" font-family="Times,serif" font-size="14.00"> g40 = v1</text>
<text text-anchor="start" x="79.5" y="-814.3" font-family="Times,serif" font-size="14.00"> g43 = g29</text>
<text text-anchor="start" x="79.5" y="-799.3" font-family="Times,serif" font-size="14.00"> v2 = g30</text>
<text text-anchor="start" x="79.5" y="-784.3" font-family="Times,serif" font-size="14.00"> g41 = v2</text>
</g>
<!-- Node0x31f36e70&#45;&gt;Node0x235df090 -->
<g id="edge1" class="edge"><title>Node0x31f36e70&#45;&gt;Node0x235df090</title>
<path fill="none" stroke="black" d="M126,-912.492C126,-904.692 126,-894.94 126,-884.829"/>
<polygon fill="black" stroke="black" points="129.5,-884.659 126,-874.659 122.5,-884.659 129.5,-884.659"/>
</g>
<!-- Node0x19b29960 -->
<g id="node3" class="node"><title>Node0x19b29960</title>
<polygon fill="none" stroke="black" points="67,-700.5 67,-738.5 185,-738.5 185,-700.5 67,-700.5"/>
<text text-anchor="start" x="75" y="-723.3" font-family="Times,serif" font-size="14.00">0xa3dfe80:</text>
<text text-anchor="start" x="75" y="-708.3" font-family="Times,serif" font-size="14.00"> if (v1 &lt;= v2):</text>
</g>
<!-- Node0x235df090&#45;&gt;Node0x19b29960 -->
<g id="edge2" class="edge"><title>Node0x235df090&#45;&gt;Node0x19b29960</title>
<path fill="none" stroke="black" d="M126,-776.458C126,-766.952 126,-757.27 126,-748.69"/>
<polygon fill="black" stroke="black" points="129.5,-748.509 126,-738.509 122.5,-748.509 129.5,-748.509"/>
</g>
<!-- Node0x19b27e60 -->
<g id="node4" class="node"><title>Node0x19b27e60</title>
<polygon fill="none" stroke="black" points="0,-538.5 0,-591.5 142,-591.5 142,-538.5 0,-538.5"/>
<text text-anchor="start" x="8" y="-576.3" font-family="Times,serif" font-size="14.00">0xa3df9d0:</text>
<text text-anchor="start" x="8" y="-561.3" font-family="Times,serif" font-size="14.00"> function_23ae4()</text>
<text text-anchor="start" x="8" y="-546.3" font-family="Times,serif" font-size="14.00"> return</text>
</g>
<!-- Node0x19b29960&#45;&gt;Node0x19b27e60 -->
<g id="edge3" class="edge"><title>Node0x19b29960&#45;&gt;Node0x19b27e60</title>
<path fill="none" stroke="black" d="M106.645,-700.191C101.865,-694.754 97.203,-688.501 94,-682 81.5908,-656.812 75.8761,-625.431 73.2447,-601.661"/>
<polygon fill="black" stroke="black" points="76.7229,-601.266 72.2673,-591.654 69.756,-601.946 76.7229,-601.266"/>
<text text-anchor="middle" x="128" y="-670.8" font-family="Times,serif" font-size="14.00">v1 &lt;= v2</text>
</g>
<!-- Node0x19b29060 -->
<g id="node5" class="node"><title>Node0x19b29060</title>
<polygon fill="none" stroke="black" points="158,-610.5 158,-648.5 272,-648.5 272,-610.5 158,-610.5"/>
<text text-anchor="start" x="166" y="-633.3" font-family="Times,serif" font-size="14.00">0xa3dffe0:</text>
<text text-anchor="start" x="166" y="-618.3" font-family="Times,serif" font-size="14.00"> g37 = 65535</text>
</g>
<!-- Node0x19b29960&#45;&gt;Node0x19b29060 -->
<g id="edge4" class="edge"><title>Node0x19b29960&#45;&gt;Node0x19b29060</title>
<path fill="none" stroke="black" d="M144.441,-700.266C157.448,-687.405 175.042,-670.009 189.407,-655.806"/>
<polygon fill="black" stroke="black" points="191.933,-658.23 196.583,-648.71 187.011,-653.253 191.933,-658.23"/>
<text text-anchor="middle" x="204" y="-670.8" font-family="Times,serif" font-size="14.00">v1 &gt; v2</text>
</g>
<!-- Node0x19b26660 -->
<g id="node6" class="node"><title>Node0x19b26660</title>
<polygon fill="none" stroke="black" points="154,-23.5 154,-59.5 208,-59.5 208,-23.5 154,-23.5"/>
<text text-anchor="start" x="162" y="-37.8" font-family="Times,serif" font-size="14.00">exit:</text>
</g>
<!-- Node0x19b27e60&#45;&gt;Node0x19b26660 -->
<g id="edge5" class="edge"><title>Node0x19b27e60&#45;&gt;Node0x19b26660</title>
<path fill="none" stroke="black" d="M70.2553,-538.372C69.6866,-516.594 69,-484.5 69,-456.5 69,-456.5 69,-456.5 69,-145.5 69,-103.664 111.862,-74.1722 144.555,-57.7619"/>
<polygon fill="black" stroke="black" points="146.385,-60.7658 153.888,-53.2853 143.358,-54.4542 146.385,-60.7658"/>
</g>
<!-- Node0x19b29560 -->
<g id="node7" class="node"><title>Node0x19b29560</title>
<polygon fill="none" stroke="black" points="97.5,-481.5 97.5,-519.5 376.5,-519.5 376.5,-481.5 97.5,-481.5"/>
<text text-anchor="start" x="105.5" y="-504.3" font-family="Times,serif" font-size="14.00">0xa3e1bf0:</text>
<text text-anchor="start" x="105.5" y="-489.3" font-family="Times,serif" font-size="14.00"> if ((v1 != 65535) and (v1 &gt; 65536)):</text>
</g>
<!-- Node0x19b29060&#45;&gt;Node0x19b29560 -->
<g id="edge6" class="edge"><title>Node0x19b29060&#45;&gt;Node0x19b29560</title>
<path fill="none" stroke="black" d="M218.152,-610.304C221.795,-589.273 227.835,-554.409 232.094,-529.824"/>
<polygon fill="black" stroke="black" points="235.595,-530.113 233.854,-519.662 228.698,-528.918 235.595,-530.113"/>
</g>
<!-- Node0x19b26e60 -->
<g id="node8" class="node"><title>Node0x19b26e60</title>
<polygon fill="none" stroke="black" points="84.5,-304.5 84.5,-357.5 227.5,-357.5 227.5,-304.5 84.5,-304.5"/>
<text text-anchor="start" x="92.5" y="-342.3" font-family="Times,serif" font-size="14.00">0xa3e18f0:</text>
<text text-anchor="start" x="92.5" y="-327.3" font-family="Times,serif" font-size="14.00"> function_23c12()</text>
<text text-anchor="start" x="92.5" y="-312.3" font-family="Times,serif" font-size="14.00"> return</text>
</g>
<!-- Node0x19b29560&#45;&gt;Node0x19b26e60 -->
<g id="edge7" class="edge"><title>Node0x19b29560&#45;&gt;Node0x19b26e60</title>
<path fill="none" stroke="black" d="M166.825,-481.293C159.032,-476.542 152.086,-470.552 147,-463 128.172,-435.046 134.092,-395.688 142.456,-367.422"/>
<polygon fill="black" stroke="black" points="145.9,-368.142 145.606,-357.551 139.231,-366.013 145.9,-368.142"/>
<text text-anchor="middle" x="261.5" y="-451.8" font-family="Times,serif" font-size="14.00">(v1 != 65535) and (v1 &gt; 65536)</text>
</g>
<!-- Node0x19b25860 -->
<g id="node9" class="node"><title>Node0x19b25860</title>
<polygon fill="none" stroke="black" points="192.5,-376.5 192.5,-429.5 581.5,-429.5 581.5,-376.5 192.5,-376.5"/>
<text text-anchor="start" x="200.5" y="-414.3" font-family="Times,serif" font-size="14.00">0xa3e22b0:</text>
<text text-anchor="start" x="200.5" y="-399.3" font-family="Times,serif" font-size="14.00"> g8 = ((((v1 &#45; 257) ^ v1) &amp; (v1 + 2147483391)) &lt; 0)</text>
<text text-anchor="start" x="200.5" y="-384.3" font-family="Times,serif" font-size="14.00"> g6 = (v1 &gt; 256)</text>
</g>
<!-- Node0x19b29560&#45;&gt;Node0x19b25860 -->
<g id="edge8" class="edge"><title>Node0x19b29560&#45;&gt;Node0x19b25860</title>
<path fill="none" stroke="black" d="M340.874,-481.401C358.772,-476.352 373.668,-470.227 380,-463 385.606,-456.602 388.326,-448.203 389.439,-439.757"/>
<polygon fill="black" stroke="black" points="392.945,-439.763 390.084,-429.562 385.959,-439.321 392.945,-439.763"/>
<text text-anchor="middle" x="505" y="-451.8" font-family="Times,serif" font-size="14.00">(v1 == 65535) or (v1 &lt;= 65536)</text>
</g>
<!-- Node0x19b26e60&#45;&gt;Node0x19b26660 -->
<g id="edge9" class="edge"><title>Node0x19b26e60&#45;&gt;Node0x19b26660</title>
<path fill="none" stroke="black" d="M157.845,-304.466C160.997,-261.572 167.782,-172.347 175,-97 175.852,-88.1078 176.885,-78.4112 177.853,-69.6951"/>
<polygon fill="black" stroke="black" points="181.341,-69.9987 178.984,-59.6694 174.385,-69.214 181.341,-69.9987"/>
</g>
<!-- Node0x2d4c0d30 -->
<g id="node10" class="node"><title>Node0x2d4c0d30</title>
<polygon fill="none" stroke="black" points="308,-247.5 308,-285.5 436,-285.5 436,-247.5 308,-247.5"/>
<text text-anchor="start" x="316" y="-270.3" font-family="Times,serif" font-size="14.00">0xa3e3b60:</text>
<text text-anchor="start" x="316" y="-255.3" font-family="Times,serif" font-size="14.00"> if (v1 &lt;= 256):</text>
</g>
<!-- Node0x19b25860&#45;&gt;Node0x2d4c0d30 -->
<g id="edge10" class="edge"><title>Node0x19b25860&#45;&gt;Node0x2d4c0d30</title>
<path fill="none" stroke="black" d="M384.143,-376.385C381.578,-353.384 377.818,-319.669 375.163,-295.861"/>
<polygon fill="black" stroke="black" points="378.616,-295.244 374.029,-285.694 371.659,-296.02 378.616,-295.244"/>
</g>
<!-- Node0x1b5f5410 -->
<g id="node11" class="node"><title>Node0x1b5f5410</title>
<polygon fill="none" stroke="black" points="184,-97.5 184,-195.5 284,-195.5 284,-97.5 184,-97.5"/>
<text text-anchor="start" x="192" y="-180.3" font-family="Times,serif" font-size="14.00">0xa3e3280:</text>
<text text-anchor="start" x="192" y="-165.3" font-family="Times,serif" font-size="14.00"> g29 = 0</text>
<text text-anchor="start" x="192" y="-150.3" font-family="Times,serif" font-size="14.00"> g30 = 32</text>
<text text-anchor="start" x="192" y="-135.3" font-family="Times,serif" font-size="14.00"> g7 = False</text>
<text text-anchor="start" x="192" y="-120.3" font-family="Times,serif" font-size="14.00"> g9 = False</text>
<text text-anchor="start" x="192" y="-105.3" font-family="Times,serif" font-size="14.00"> return</text>
</g>
<!-- Node0x2d4c0d30&#45;&gt;Node0x1b5f5410 -->
<g id="edge11" class="edge"><title>Node0x2d4c0d30&#45;&gt;Node0x1b5f5410</title>
<path fill="none" stroke="black" d="M319.608,-247.362C309.172,-242.367 298.746,-236.274 290,-229 281.323,-221.783 273.409,-212.898 266.439,-203.677"/>
<polygon fill="black" stroke="black" points="269.247,-201.588 260.561,-195.522 263.569,-205.681 269.247,-201.588"/>
<text text-anchor="middle" x="329" y="-217.8" font-family="Times,serif" font-size="14.00">v1 &lt;= 256</text>
</g>
<!-- Node0x31961e60 -->
<g id="node12" class="node"><title>Node0x31961e60</title>
<polygon fill="none" stroke="black" points="302,-127.5 302,-165.5 442,-165.5 442,-127.5 302,-127.5"/>
<text text-anchor="start" x="310" y="-150.3" font-family="Times,serif" font-size="14.00">0xa3e3db0:</text>
<text text-anchor="start" x="310" y="-135.3" font-family="Times,serif" font-size="14.00"> function_23df0()</text>
</g>
<!-- Node0x2d4c0d30&#45;&gt;Node0x31961e60 -->
<g id="edge12" class="edge"><title>Node0x2d4c0d30&#45;&gt;Node0x31961e60</title>
<path fill="none" stroke="black" d="M372,-247.321C372,-228.209 372,-197.889 372,-175.675"/>
<polygon fill="black" stroke="black" points="375.5,-175.506 372,-165.506 368.5,-175.506 375.5,-175.506"/>
<text text-anchor="middle" x="405" y="-217.8" font-family="Times,serif" font-size="14.00">v1 &gt; 256</text>
</g>
<!-- Node0x1b5f5410&#45;&gt;Node0x19b26660 -->
<g id="edge13" class="edge"><title>Node0x1b5f5410&#45;&gt;Node0x19b26660</title>
<path fill="none" stroke="black" d="M209.207,-97.3173C204.196,-87.5789 199.103,-77.6816 194.649,-69.0261"/>
<polygon fill="black" stroke="black" points="197.618,-67.1465 189.931,-59.8561 191.394,-70.3494 197.618,-67.1465"/>
</g>
<!-- Node0x31961e60&#45;&gt;Node0x19b26660 -->
<g id="edge14" class="edge"><title>Node0x31961e60&#45;&gt;Node0x19b26660</title>
<path fill="none" stroke="black" d="M343.874,-127.308C328.963,-117.901 310.214,-106.443 293,-97 268.227,-83.4107 239.565,-69.4955 217.438,-59.1273"/>
<polygon fill="black" stroke="black" points="218.62,-55.8172 208.077,-54.7699 215.666,-62.1633 218.62,-55.8172"/>
</g>
</g>
</svg>
