<?xml version="1.0" encoding="UTF-8" standalone="no"?>
<!DOCTYPE svg PUBLIC "-//W3C//DTD SVG 1.1//EN"
 "http://www.w3.org/Graphics/SVG/1.1/DTD/svg11.dtd">
<!-- Generated by graphviz version 2.38.0 (20140413.2041)
 -->
<!-- Title: Control&#45;flow graph for function &#39;function_99d8()&#39;. Pages: 1 -->
<svg width="626pt" height="760pt"
 viewBox="0.00 0.00 626.00 760.00" xmlns="http://www.w3.org/2000/svg" xmlns:xlink="http://www.w3.org/1999/xlink">
<g id="graph0" class="graph" transform="scale(1 1) rotate(0) translate(4 756)">
<title>Control&#45;flow graph for function &#39;function_99d8()&#39;.</title>
<polygon fill="white" stroke="none" points="-4,4 -4,-756 622,-756 622,4 -4,4"/>
<text text-anchor="middle" x="309" y="-7.8" font-family="Times,serif" font-size="14.00">Control&#45;flow graph for function &#39;function_99d8()&#39;.</text>
<!-- Node0x24f309e0 -->
<g id="node1" class="node"><title>Node0x24f309e0</title>
<polygon fill="none" stroke="black" points="379.5,-715.5 379.5,-751.5 438.5,-751.5 438.5,-715.5 379.5,-715.5"/>
<text text-anchor="start" x="387.5" y="-729.8" font-family="Times,serif" font-size="14.00">entry:</text>
</g>
<!-- Node0x3807f830 -->
<g id="node2" class="node"><title>Node0x3807f830</title>
<polygon fill="none" stroke="black" points="344,-519.5 344,-677.5 474,-677.5 474,-519.5 344,-519.5"/>
<text text-anchor="start" x="352" y="-662.3" font-family="Times,serif" font-size="14.00">0x217abd30:</text>
<text text-anchor="start" x="352" y="-647.3" font-family="Times,serif" font-size="14.00"> v1 = g38</text>
<text text-anchor="start" x="352" y="-632.3" font-family="Times,serif" font-size="14.00"> v2 = g35</text>
<text text-anchor="start" x="352" y="-617.3" font-family="Times,serif" font-size="14.00"> v3 = g30</text>
<text text-anchor="start" x="352" y="-602.3" font-family="Times,serif" font-size="14.00"> g9 = (v3 == 0)</text>
<text text-anchor="start" x="352" y="-587.3" font-family="Times,serif" font-size="14.00"> g37 = 0</text>
<text text-anchor="start" x="352" y="-572.3" font-family="Times,serif" font-size="14.00"> g35 = 165012</text>
<text text-anchor="start" x="352" y="-557.3" font-family="Times,serif" font-size="14.00"> v4 = g29</text>
<text text-anchor="start" x="352" y="-542.3" font-family="Times,serif" font-size="14.00"> g38 = v4</text>
<text text-anchor="start" x="352" y="-527.3" font-family="Times,serif" font-size="14.00"> v5</text>
</g>
<!-- Node0x24f309e0&#45;&gt;Node0x3807f830 -->
<g id="edge1" class="edge"><title>Node0x24f309e0&#45;&gt;Node0x3807f830</title>
<path fill="none" stroke="black" d="M409,-715.385C409,-707.782 409,-698.206 409,-687.833"/>
<polygon fill="black" stroke="black" points="412.5,-687.682 409,-677.682 405.5,-687.682 412.5,-687.682"/>
</g>
<!-- Node0x24f2d7b0 -->
<g id="node3" class="node"><title>Node0x24f2d7b0</title>
<polygon fill="none" stroke="black" points="357,-428.5 357,-481.5 461,-481.5 461,-428.5 357,-428.5"/>
<text text-anchor="start" x="365" y="-466.3" font-family="Times,serif" font-size="14.00">0x6f14320:</text>
<text text-anchor="start" x="365" y="-451.3" font-family="Times,serif" font-size="14.00"> if (v3 != 0):</text>
<text text-anchor="start" x="365" y="-436.3" font-family="Times,serif" font-size="14.00"> else:</text>
</g>
<!-- Node0x3807f830&#45;&gt;Node0x24f2d7b0 -->
<g id="edge2" class="edge"><title>Node0x3807f830&#45;&gt;Node0x24f2d7b0</title>
<path fill="none" stroke="black" d="M409,-519.3C409,-509.773 409,-500.428 409,-491.966"/>
<polygon fill="black" stroke="black" points="412.5,-491.773 409,-481.773 405.5,-491.773 412.5,-491.773"/>
</g>
<!-- Node0x24f2d0f0 -->
<g id="node4" class="node"><title>Node0x24f2d0f0</title>
<polygon fill="none" stroke="black" points="0,-263.5 0,-376.5 502,-376.5 502,-263.5 0,-263.5"/>
<text text-anchor="start" x="8" y="-361.3" font-family="Times,serif" font-size="14.00">0x6f134d0:</text>
<text text-anchor="start" x="8" y="-346.3" font-family="Times,serif" font-size="14.00"> g33 = ExtCastExpr&lt;int32&gt;(*(IntToPtrCastExpr&lt;ptr&gt;((v4 + 46))))</text>
<text text-anchor="start" x="8" y="-331.3" font-family="Times,serif" font-size="14.00"> g37 = ExtCastExpr&lt;int32&gt;(*(IntToPtrCastExpr&lt;ptr&gt;((v4 + 44))))</text>
<text text-anchor="start" x="8" y="-316.3" font-family="Times,serif" font-size="14.00"> g36 = 155136</text>
<text text-anchor="start" x="8" y="-301.3" font-family="Times,serif" font-size="14.00"> g30 = 40</text>
<text text-anchor="start" x="8" y="-286.3" font-family="Times,serif" font-size="14.00"> function_1343c()</text>
<text text-anchor="start" x="8" y="-271.3" font-family="Times,serif" font-size="14.00"> v5 = g38</text>
</g>
<!-- Node0x24f2d7b0&#45;&gt;Node0x24f2d0f0 -->
<g id="edge3" class="edge"><title>Node0x24f2d7b0&#45;&gt;Node0x24f2d0f0</title>
<path fill="none" stroke="black" d="M378.536,-428.356C363.167,-415.419 343.797,-399.114 324.826,-383.145"/>
<polygon fill="black" stroke="black" points="326.924,-380.335 317.019,-376.573 322.416,-385.691 326.924,-380.335"/>
<text text-anchor="middle" x="381" y="-398.8" font-family="Times,serif" font-size="14.00">v3 != 0</text>
</g>
<!-- Node0x34af0b20 -->
<g id="node5" class="node"><title>Node0x34af0b20</title>
<polygon fill="none" stroke="black" points="520,-301 520,-339 618,-339 618,-301 520,-301"/>
<text text-anchor="start" x="528" y="-323.8" font-family="Times,serif" font-size="14.00">0x6f14420:</text>
<text text-anchor="start" x="528" y="-308.8" font-family="Times,serif" font-size="14.00"> v5 = v4</text>
</g>
<!-- Node0x24f2d7b0&#45;&gt;Node0x34af0b20 -->
<g id="edge4" class="edge"><title>Node0x24f2d7b0&#45;&gt;Node0x34af0b20</title>
<path fill="none" stroke="black" d="M445.231,-428.303C465.105,-413.801 489.917,-395.02 511,-377 522.192,-367.434 533.979,-356.274 543.982,-346.446"/>
<polygon fill="black" stroke="black" points="546.612,-348.767 551.244,-339.238 541.681,-343.798 546.612,-348.767"/>
<text text-anchor="middle" x="517" y="-398.8" font-family="Times,serif" font-size="14.00">v3 == 0</text>
</g>
<!-- Node0x24897b40 -->
<g id="node6" class="node"><title>Node0x24897b40</title>
<polygon fill="none" stroke="black" points="302,-97.5 302,-225.5 590,-225.5 590,-97.5 302,-97.5"/>
<text text-anchor="start" x="310" y="-210.3" font-family="Times,serif" font-size="14.00">0x6f145f0:</text>
<text text-anchor="start" x="310" y="-195.3" font-family="Times,serif" font-size="14.00"> g30 = (v5 + 68)</text>
<text text-anchor="start" x="310" y="-180.3" font-family="Times,serif" font-size="14.00"> g29 = *(IntToPtrCastExpr&lt;ptr&gt;(v5))</text>
<text text-anchor="start" x="310" y="-165.3" font-family="Times,serif" font-size="14.00"> function_ae48()</text>
<text text-anchor="start" x="310" y="-150.3" font-family="Times,serif" font-size="14.00"> g38 = v1</text>
<text text-anchor="start" x="310" y="-135.3" font-family="Times,serif" font-size="14.00"> v6</text>
<text text-anchor="start" x="310" y="-120.3" font-family="Times,serif" font-size="14.00"> g34 = v6</text>
<text text-anchor="start" x="310" y="-105.3" font-family="Times,serif" font-size="14.00"> IntToPtrCastExpr&lt;ptr&gt;(v2)()</text>
</g>
<!-- Node0x24f2d0f0&#45;&gt;Node0x24897b40 -->
<g id="edge5" class="edge"><title>Node0x24f2d0f0&#45;&gt;Node0x24897b40</title>
<path fill="none" stroke="black" d="M320.299,-263.383C332.9,-253.27 346.188,-242.605 359.219,-232.148"/>
<polygon fill="black" stroke="black" points="361.682,-234.659 367.29,-225.67 357.3,-229.2 361.682,-234.659"/>
</g>
<!-- Node0x34af0b20&#45;&gt;Node0x24897b40 -->
<g id="edge6" class="edge"><title>Node0x34af0b20&#45;&gt;Node0x24897b40</title>
<path fill="none" stroke="black" d="M554.65,-300.741C541.555,-284.08 521.333,-258.35 501.869,-233.585"/>
<polygon fill="black" stroke="black" points="504.518,-231.291 495.586,-225.592 499.014,-235.617 504.518,-231.291"/>
</g>
<!-- Node0x46957350 -->
<g id="node7" class="node"><title>Node0x46957350</title>
<polygon fill="none" stroke="black" points="419,-23.5 419,-59.5 473,-59.5 473,-23.5 419,-23.5"/>
<text text-anchor="start" x="427" y="-37.8" font-family="Times,serif" font-size="14.00">exit:</text>
</g>
<!-- Node0x24897b40&#45;&gt;Node0x46957350 -->
<g id="edge7" class="edge"><title>Node0x24897b40&#45;&gt;Node0x46957350</title>
<path fill="none" stroke="black" d="M446,-97.3546C446,-87.7534 446,-78.2993 446,-70.016"/>
<polygon fill="black" stroke="black" points="449.5,-69.8875 446,-59.8875 442.5,-69.8876 449.5,-69.8875"/>
</g>
</g>
</svg>
