<?xml version="1.0" encoding="UTF-8" standalone="no"?>
<!DOCTYPE svg PUBLIC "-//W3C//DTD SVG 1.1//EN"
 "http://www.w3.org/Graphics/SVG/1.1/DTD/svg11.dtd">
<!-- Generated by graphviz version 2.38.0 (20140413.2041)
 -->
<!-- Title: Control&#45;flow graph for function &#39;function_187a4()&#39;. Pages: 1 -->
<svg width="385pt" height="572pt"
 viewBox="0.00 0.00 385.00 572.00" xmlns="http://www.w3.org/2000/svg" xmlns:xlink="http://www.w3.org/1999/xlink">
<g id="graph0" class="graph" transform="scale(1 1) rotate(0) translate(4 568)">
<title>Control&#45;flow graph for function &#39;function_187a4()&#39;.</title>
<polygon fill="white" stroke="none" points="-4,4 -4,-568 381,-568 381,4 -4,4"/>
<text text-anchor="middle" x="188.5" y="-7.8" font-family="Times,serif" font-size="14.00">Control&#45;flow graph for function &#39;function_187a4()&#39;.</text>
<!-- Node0x37c0bae0 -->
<g id="node1" class="node"><title>Node0x37c0bae0</title>
<polygon fill="none" stroke="black" points="100.25,-527.5 100.25,-563.5 159.25,-563.5 159.25,-527.5 100.25,-527.5"/>
<text text-anchor="start" x="108.25" y="-541.8" font-family="Times,serif" font-size="14.00">entry:</text>
</g>
<!-- Node0x37c097a0 -->
<g id="node2" class="node"><title>Node0x37c097a0</title>
<polygon fill="none" stroke="black" points="70.25,-451.5 70.25,-489.5 189.25,-489.5 189.25,-451.5 70.25,-451.5"/>
<text text-anchor="start" x="78.25" y="-474.3" font-family="Times,serif" font-size="14.00">0x88606a0:</text>
<text text-anchor="start" x="78.25" y="-459.3" font-family="Times,serif" font-size="14.00"> if (g29 == 0):</text>
</g>
<!-- Node0x37c0bae0&#45;&gt;Node0x37c097a0 -->
<g id="edge1" class="edge"><title>Node0x37c0bae0&#45;&gt;Node0x37c097a0</title>
<path fill="none" stroke="black" d="M129.75,-527.2C129.75,-518.99 129.75,-508.969 129.75,-499.701"/>
<polygon fill="black" stroke="black" points="133.25,-499.694 129.75,-489.694 126.25,-499.695 133.25,-499.694"/>
</g>
<!-- Node0x242f9710 -->
<g id="node3" class="node"><title>Node0x242f9710</title>
<polygon fill="none" stroke="black" points="32.25,-274.5 32.25,-327.5 133.25,-327.5 133.25,-274.5 32.25,-274.5"/>
<text text-anchor="start" x="40.25" y="-312.3" font-family="Times,serif" font-size="14.00">0x885d740:</text>
<text text-anchor="start" x="40.25" y="-297.3" font-family="Times,serif" font-size="14.00"> g29 = 0</text>
<text text-anchor="start" x="40.25" y="-282.3" font-family="Times,serif" font-size="14.00"> return</text>
</g>
<!-- Node0x37c097a0&#45;&gt;Node0x242f9710 -->
<g id="edge2" class="edge"><title>Node0x37c097a0&#45;&gt;Node0x242f9710</title>
<path fill="none" stroke="black" d="M96.5065,-451.427C90.1552,-446.349 84.3672,-440.205 80.75,-433 65.909,-403.439 68.5744,-365.191 73.6459,-337.664"/>
<polygon fill="black" stroke="black" points="77.1133,-338.176 75.676,-327.679 70.2537,-336.781 77.1133,-338.176"/>
<text text-anchor="middle" x="115.75" y="-421.8" font-family="Times,serif" font-size="14.00">g29 == 0</text>
</g>
<!-- Node0x44fd8e30 -->
<g id="node4" class="node"><title>Node0x44fd8e30</title>
<polygon fill="none" stroke="black" points="125.25,-346.5 125.25,-399.5 232.25,-399.5 232.25,-346.5 125.25,-346.5"/>
<text text-anchor="start" x="133.25" y="-384.3" font-family="Times,serif" font-size="14.00">0x1475b9f0:</text>
<text text-anchor="start" x="133.25" y="-369.3" font-family="Times,serif" font-size="14.00"> v1 = g29</text>
<text text-anchor="start" x="133.25" y="-354.3" font-family="Times,serif" font-size="14.00"> v2 = 1</text>
</g>
<!-- Node0x37c097a0&#45;&gt;Node0x44fd8e30 -->
<g id="edge3" class="edge"><title>Node0x37c097a0&#45;&gt;Node0x44fd8e30</title>
<path fill="none" stroke="black" d="M143.264,-451.416C147.233,-445.688 151.403,-439.223 154.75,-433 158.809,-425.453 162.61,-417.069 165.936,-409.046"/>
<polygon fill="black" stroke="black" points="169.283,-410.104 169.745,-399.519 162.783,-407.506 169.283,-410.104"/>
<text text-anchor="middle" x="193.75" y="-421.8" font-family="Times,serif" font-size="14.00">g29 != 0</text>
</g>
<!-- Node0x242fc800 -->
<g id="node5" class="node"><title>Node0x242fc800</title>
<polygon fill="none" stroke="black" points="114.75,-23.5 114.75,-59.5 168.75,-59.5 168.75,-23.5 114.75,-23.5"/>
<text text-anchor="start" x="122.75" y="-37.8" font-family="Times,serif" font-size="14.00">exit:</text>
</g>
<!-- Node0x242f9710&#45;&gt;Node0x242fc800 -->
<g id="edge4" class="edge"><title>Node0x242f9710&#45;&gt;Node0x242fc800</title>
<path fill="none" stroke="black" d="M80.8733,-274.341C78.9143,-234.841 78.7977,-157.385 101.75,-97 105.732,-86.5245 112.308,-76.2814 118.989,-67.5548"/>
<polygon fill="black" stroke="black" points="121.779,-69.671 125.346,-59.6946 116.336,-65.2692 121.779,-69.671"/>
</g>
<!-- Node0x37c0df00 -->
<g id="node6" class="node"><title>Node0x37c0df00</title>
<polygon fill="none" stroke="black" points="115.75,-217.5 115.75,-255.5 253.75,-255.5 253.75,-217.5 115.75,-217.5"/>
<text text-anchor="start" x="123.75" y="-240.3" font-family="Times,serif" font-size="14.00">0x8862020:</text>
<text text-anchor="start" x="123.75" y="-225.3" font-family="Times,serif" font-size="14.00"> while (v1 &gt;= 2):</text>
</g>
<!-- Node0x44fd8e30&#45;&gt;Node0x37c0df00 -->
<g id="edge5" class="edge"><title>Node0x44fd8e30&#45;&gt;Node0x37c0df00</title>
<path fill="none" stroke="black" d="M179.893,-346.385C180.919,-323.384 182.423,-289.669 183.485,-265.861"/>
<polygon fill="black" stroke="black" points="186.989,-265.84 183.938,-255.694 179.996,-265.528 186.989,-265.84"/>
</g>
<!-- Node0x242f5950 -->
<g id="node7" class="node"><title>Node0x242f5950</title>
<polygon fill="none" stroke="black" points="111.25,-105 111.25,-158 228.25,-158 228.25,-105 111.25,-105"/>
<text text-anchor="start" x="119.25" y="-142.8" font-family="Times,serif" font-size="14.00">0x3e183670:</text>
<text text-anchor="start" x="119.25" y="-127.8" font-family="Times,serif" font-size="14.00"> v1 = (v1 / 2)</text>
<text text-anchor="start" x="119.25" y="-112.8" font-family="Times,serif" font-size="14.00"> v2 = (v2 + 1)</text>
</g>
<!-- Node0x37c0df00&#45;&gt;Node0x242f5950 -->
<g id="edge6" class="edge"><title>Node0x37c0df00&#45;&gt;Node0x242f5950</title>
<path fill="none" stroke="black" d="M157.684,-217.329C152.045,-212.129 146.871,-205.956 143.75,-199 139.166,-188.782 141.056,-177.494 145.42,-167.164"/>
<polygon fill="black" stroke="black" points="148.659,-168.512 150.01,-158.004 142.401,-165.376 148.659,-168.512"/>
<text text-anchor="middle" x="173.75" y="-187.8" font-family="Times,serif" font-size="14.00">v1 &gt;= 2</text>
</g>
<!-- Node0x37c0fe50 -->
<g id="node8" class="node"><title>Node0x37c0fe50</title>
<polygon fill="none" stroke="black" points="246.75,-97.5 246.75,-165.5 344.75,-165.5 344.75,-97.5 246.75,-97.5"/>
<text text-anchor="start" x="254.75" y="-150.3" font-family="Times,serif" font-size="14.00">0x88615f0:</text>
<text text-anchor="start" x="254.75" y="-135.3" font-family="Times,serif" font-size="14.00"> g37 = v2</text>
<text text-anchor="start" x="254.75" y="-120.3" font-family="Times,serif" font-size="14.00"> g9 = True</text>
<text text-anchor="start" x="254.75" y="-105.3" font-family="Times,serif" font-size="14.00"> g29 = v2</text>
</g>
<!-- Node0x37c0df00&#45;&gt;Node0x37c0fe50 -->
<g id="edge7" class="edge"><title>Node0x37c0df00&#45;&gt;Node0x37c0fe50</title>
<path fill="none" stroke="black" d="M204.339,-217.323C217.616,-205.003 235.698,-188.223 252.277,-172.84"/>
<polygon fill="black" stroke="black" points="254.816,-175.259 259.765,-165.891 250.054,-170.128 254.816,-175.259"/>
<text text-anchor="middle" x="263.75" y="-187.8" font-family="Times,serif" font-size="14.00">v1 &lt; 2</text>
</g>
<!-- Node0x242f5950&#45;&gt;Node0x37c0df00 -->
<g id="edge8" class="edge"><title>Node0x242f5950&#45;&gt;Node0x37c0df00</title>
<path fill="none" stroke="black" d="M190.956,-158.261C196.173,-166.063 201.038,-174.97 203.75,-184 206.101,-191.83 204.744,-200.194 201.898,-207.857"/>
<polygon fill="black" stroke="black" points="198.65,-206.544 197.666,-217.094 205.014,-209.46 198.65,-206.544"/>
</g>
<!-- Node0x37c0fe50&#45;&gt;Node0x242fc800 -->
<g id="edge9" class="edge"><title>Node0x37c0fe50&#45;&gt;Node0x242fc800</title>
<path fill="none" stroke="black" d="M246.717,-102.145C243.684,-100.402 240.676,-98.6758 237.75,-97 218.064,-85.727 196.059,-73.2272 178.088,-63.0451"/>
<polygon fill="black" stroke="black" points="179.518,-59.8327 169.091,-57.9506 176.068,-65.9239 179.518,-59.8327"/>
</g>
</g>
</svg>
