<?xml version="1.0" encoding="UTF-8" standalone="no"?>
<!DOCTYPE svg PUBLIC "-//W3C//DTD SVG 1.1//EN"
 "http://www.w3.org/Graphics/SVG/1.1/DTD/svg11.dtd">
<!-- Generated by graphviz version 2.38.0 (20140413.2041)
 -->
<!-- Title: Control&#45;flow graph for function &#39;SpPlaybackSetBitrate()&#39;. Pages: 1 -->
<svg width="431pt" height="1333pt"
 viewBox="0.00 0.00 431.00 1333.00" xmlns="http://www.w3.org/2000/svg" xmlns:xlink="http://www.w3.org/1999/xlink">
<g id="graph0" class="graph" transform="scale(1 1) rotate(0) translate(4 1329)">
<title>Control&#45;flow graph for function &#39;SpPlaybackSetBitrate()&#39;.</title>
<polygon fill="white" stroke="none" points="-4,4 -4,-1329 427,-1329 427,4 -4,4"/>
<text text-anchor="middle" x="211.5" y="-7.8" font-family="Times,serif" font-size="14.00">Control&#45;flow graph for function &#39;SpPlaybackSetBitrate()&#39;.</text>
<!-- Node0x20b4e3b0 -->
<g id="node1" class="node"><title>Node0x20b4e3b0</title>
<polygon fill="none" stroke="black" points="220.75,-1288.5 220.75,-1324.5 279.75,-1324.5 279.75,-1288.5 220.75,-1288.5"/>
<text text-anchor="start" x="228.75" y="-1302.8" font-family="Times,serif" font-size="14.00">entry:</text>
</g>
<!-- Node0x470fce20 -->
<g id="node2" class="node"><title>Node0x470fce20</title>
<polygon fill="none" stroke="black" points="92.75,-1062.5 92.75,-1250.5 407.75,-1250.5 407.75,-1062.5 92.75,-1062.5"/>
<text text-anchor="start" x="100.75" y="-1235.3" font-family="Times,serif" font-size="14.00">0x42e517b0:</text>
<text text-anchor="start" x="100.75" y="-1220.3" font-family="Times,serif" font-size="14.00"> v1 = g38</text>
<text text-anchor="start" x="100.75" y="-1205.3" font-family="Times,serif" font-size="14.00"> v2 = g39</text>
<text text-anchor="start" x="100.75" y="-1190.3" font-family="Times,serif" font-size="14.00"> v3 = g40</text>
<text text-anchor="start" x="100.75" y="-1175.3" font-family="Times,serif" font-size="14.00"> g38 = 165012</text>
<text text-anchor="start" x="100.75" y="-1160.3" font-family="Times,serif" font-size="14.00"> v4 = *(IntToPtrCastExpr&lt;ptr&gt;(165212))</text>
<text text-anchor="start" x="100.75" y="-1145.3" font-family="Times,serif" font-size="14.00"> g40 = v4</text>
<text text-anchor="start" x="100.75" y="-1130.3" font-family="Times,serif" font-size="14.00"> v5 = g29</text>
<text text-anchor="start" x="100.75" y="-1115.3" font-family="Times,serif" font-size="14.00"> g39 = v5</text>
<text text-anchor="start" x="100.75" y="-1100.3" font-family="Times,serif" font-size="14.00"> v6 = *(IntToPtrCastExpr&lt;ptr&gt;(v4))</text>
<text text-anchor="start" x="100.75" y="-1085.3" font-family="Times,serif" font-size="14.00"> g9 = (v6 == 0)</text>
<text text-anchor="start" x="100.75" y="-1070.3" font-family="Times,serif" font-size="14.00"> v7 = v5</text>
</g>
<!-- Node0x20b4e3b0&#45;&gt;Node0x470fce20 -->
<g id="edge1" class="edge"><title>Node0x20b4e3b0&#45;&gt;Node0x470fce20</title>
<path fill="none" stroke="black" d="M250.25,-1288.23C250.25,-1280.72 250.25,-1271.26 250.25,-1260.88"/>
<polygon fill="black" stroke="black" points="253.75,-1260.67 250.25,-1250.67 246.75,-1260.67 253.75,-1260.67"/>
</g>
<!-- Node0x29532a30 -->
<g id="node3" class="node"><title>Node0x29532a30</title>
<polygon fill="none" stroke="black" points="198.25,-986.5 198.25,-1024.5 302.25,-1024.5 302.25,-986.5 198.25,-986.5"/>
<text text-anchor="start" x="206.25" y="-1009.3" font-family="Times,serif" font-size="14.00">0x824e760:</text>
<text text-anchor="start" x="206.25" y="-994.3" font-family="Times,serif" font-size="14.00"> if (v6 != 0):</text>
</g>
<!-- Node0x470fce20&#45;&gt;Node0x29532a30 -->
<g id="edge2" class="edge"><title>Node0x470fce20&#45;&gt;Node0x29532a30</title>
<path fill="none" stroke="black" d="M250.25,-1062.41C250.25,-1052.43 250.25,-1042.92 250.25,-1034.67"/>
<polygon fill="black" stroke="black" points="253.75,-1034.62 250.25,-1024.62 246.75,-1034.62 253.75,-1034.62"/>
</g>
<!-- Node0x20b4e7c0 -->
<g id="node4" class="node"><title>Node0x20b4e7c0</title>
<polygon fill="none" stroke="black" points="38.25,-851.5 38.25,-934.5 250.25,-934.5 250.25,-851.5 38.25,-851.5"/>
<text text-anchor="start" x="46.25" y="-919.3" font-family="Times,serif" font-size="14.00">0x824de00:</text>
<text text-anchor="start" x="46.25" y="-904.3" font-family="Times,serif" font-size="14.00"> g30 = 156984</text>
<text text-anchor="start" x="46.25" y="-889.3" font-family="Times,serif" font-size="14.00"> g36 = v5</text>
<text text-anchor="start" x="46.25" y="-874.3" font-family="Times,serif" font-size="14.00"> imported_function_ord_0()</text>
<text text-anchor="start" x="46.25" y="-859.3" font-family="Times,serif" font-size="14.00"> v7 = g39</text>
</g>
<!-- Node0x29532a30&#45;&gt;Node0x20b4e7c0 -->
<g id="edge3" class="edge"><title>Node0x29532a30&#45;&gt;Node0x20b4e7c0</title>
<path fill="none" stroke="black" d="M232.746,-986.253C221.225,-974.242 205.561,-957.914 190.613,-942.331"/>
<polygon fill="black" stroke="black" points="192.802,-939.557 183.354,-934.764 187.75,-944.403 192.802,-939.557"/>
<text text-anchor="middle" x="240.25" y="-956.8" font-family="Times,serif" font-size="14.00">v6 != 0</text>
</g>
<!-- Node0x245ac0e0 -->
<g id="node5" class="node"><title>Node0x245ac0e0</title>
<polygon fill="none" stroke="black" points="100.25,-670.5 100.25,-813.5 388.25,-813.5 388.25,-670.5 100.25,-670.5"/>
<text text-anchor="start" x="108.25" y="-798.3" font-family="Times,serif" font-size="14.00">0x824e8e0:</text>
<text text-anchor="start" x="108.25" y="-783.3" font-family="Times,serif" font-size="14.00"> g29 = v7</text>
<text text-anchor="start" x="108.25" y="-768.3" font-family="Times,serif" font-size="14.00"> function_16d20()</text>
<text text-anchor="start" x="108.25" y="-753.3" font-family="Times,serif" font-size="14.00"> v8 = *(IntToPtrCastExpr&lt;ptr&gt;(g40))</text>
<text text-anchor="start" x="108.25" y="-738.3" font-family="Times,serif" font-size="14.00"> g37 = v8</text>
<text text-anchor="start" x="108.25" y="-723.3" font-family="Times,serif" font-size="14.00"> v9 = g29</text>
<text text-anchor="start" x="108.25" y="-708.3" font-family="Times,serif" font-size="14.00"> g39 = v9</text>
<text text-anchor="start" x="108.25" y="-693.3" font-family="Times,serif" font-size="14.00"> g9 = (v8 == 0)</text>
<text text-anchor="start" x="108.25" y="-678.3" font-family="Times,serif" font-size="14.00"> v10 = v9</text>
</g>
<!-- Node0x29532a30&#45;&gt;Node0x245ac0e0 -->
<g id="edge4" class="edge"><title>Node0x29532a30&#45;&gt;Node0x245ac0e0</title>
<path fill="none" stroke="black" d="M263.146,-986.38C266.452,-980.755 269.552,-974.357 271.25,-968 272.971,-961.559 271.64,-959.655 271.25,-953 268.742,-910.22 262.919,-862.852 257.32,-823.947"/>
<polygon fill="black" stroke="black" points="260.736,-823.119 255.827,-813.73 253.81,-824.131 260.736,-823.119"/>
<text text-anchor="middle" x="299.25" y="-889.3" font-family="Times,serif" font-size="14.00">v6 == 0</text>
</g>
<!-- Node0x20b4e7c0&#45;&gt;Node0x245ac0e0 -->
<g id="edge5" class="edge"><title>Node0x20b4e7c0&#45;&gt;Node0x245ac0e0</title>
<path fill="none" stroke="black" d="M171.575,-851.285C177.675,-842.197 184.345,-832.259 191.092,-822.206"/>
<polygon fill="black" stroke="black" points="194.1,-824.004 196.767,-813.75 188.288,-820.103 194.1,-824.004"/>
</g>
<!-- Node0x295339b0 -->
<g id="node6" class="node"><title>Node0x295339b0</title>
<polygon fill="none" stroke="black" points="192.25,-594.5 192.25,-632.5 296.25,-632.5 296.25,-594.5 192.25,-594.5"/>
<text text-anchor="start" x="200.25" y="-617.3" font-family="Times,serif" font-size="14.00">0x8250ce0:</text>
<text text-anchor="start" x="200.25" y="-602.3" font-family="Times,serif" font-size="14.00"> if (v8 != 0):</text>
</g>
<!-- Node0x245ac0e0&#45;&gt;Node0x295339b0 -->
<g id="edge6" class="edge"><title>Node0x245ac0e0&#45;&gt;Node0x295339b0</title>
<path fill="none" stroke="black" d="M244.25,-670.353C244.25,-660.594 244.25,-651.073 244.25,-642.737"/>
<polygon fill="black" stroke="black" points="247.75,-642.54 244.25,-632.54 240.75,-642.54 247.75,-642.54"/>
</g>
<!-- Node0x29532b20 -->
<g id="node7" class="node"><title>Node0x29532b20</title>
<polygon fill="none" stroke="black" points="32.25,-459.5 32.25,-542.5 244.25,-542.5 244.25,-459.5 32.25,-459.5"/>
<text text-anchor="start" x="40.25" y="-527.3" font-family="Times,serif" font-size="14.00">0x8250340:</text>
<text text-anchor="start" x="40.25" y="-512.3" font-family="Times,serif" font-size="14.00"> g30 = (g38 &#45; 8028)</text>
<text text-anchor="start" x="40.25" y="-497.3" font-family="Times,serif" font-size="14.00"> g36 = v9</text>
<text text-anchor="start" x="40.25" y="-482.3" font-family="Times,serif" font-size="14.00"> imported_function_ord_0()</text>
<text text-anchor="start" x="40.25" y="-467.3" font-family="Times,serif" font-size="14.00"> v10 = g39</text>
</g>
<!-- Node0x295339b0&#45;&gt;Node0x29532b20 -->
<g id="edge7" class="edge"><title>Node0x295339b0&#45;&gt;Node0x29532b20</title>
<path fill="none" stroke="black" d="M226.746,-594.253C215.225,-582.242 199.561,-565.914 184.613,-550.331"/>
<polygon fill="black" stroke="black" points="186.802,-547.557 177.354,-542.764 181.75,-552.403 186.802,-547.557"/>
<text text-anchor="middle" x="234.25" y="-564.8" font-family="Times,serif" font-size="14.00">v8 != 0</text>
</g>
<!-- Node0x295336b0 -->
<g id="node8" class="node"><title>Node0x295336b0</title>
<polygon fill="none" stroke="black" points="117.25,-293.5 117.25,-421.5 359.25,-421.5 359.25,-293.5 117.25,-293.5"/>
<text text-anchor="start" x="125.25" y="-406.3" font-family="Times,serif" font-size="14.00">0x8250e60:</text>
<text text-anchor="start" x="125.25" y="-391.3" font-family="Times,serif" font-size="14.00"> g29 = v10</text>
<text text-anchor="start" x="125.25" y="-376.3" font-family="Times,serif" font-size="14.00"> g38 = v1</text>
<text text-anchor="start" x="125.25" y="-361.3" font-family="Times,serif" font-size="14.00"> g39 = v2</text>
<text text-anchor="start" x="125.25" y="-346.3" font-family="Times,serif" font-size="14.00"> g40 = v3</text>
<text text-anchor="start" x="125.25" y="-331.3" font-family="Times,serif" font-size="14.00"> v11</text>
<text text-anchor="start" x="125.25" y="-316.3" font-family="Times,serif" font-size="14.00"> g34 = v11</text>
<text text-anchor="start" x="125.25" y="-301.3" font-family="Times,serif" font-size="14.00"> IntToPtrCastExpr&lt;ptr&gt;(g35)()</text>
</g>
<!-- Node0x295339b0&#45;&gt;Node0x295336b0 -->
<g id="edge8" class="edge"><title>Node0x295339b0&#45;&gt;Node0x295336b0</title>
<path fill="none" stroke="black" d="M257.146,-594.38C260.452,-588.755 263.552,-582.357 265.25,-576 266.971,-569.559 265.64,-567.655 265.25,-561 262.725,-517.935 256.505,-470.08 250.67,-431.708"/>
<polygon fill="black" stroke="black" points="254.104,-431.007 249.118,-421.658 247.186,-432.075 254.104,-431.007"/>
<text text-anchor="middle" x="293.25" y="-497.3" font-family="Times,serif" font-size="14.00">v8 == 0</text>
</g>
<!-- Node0x29532b20&#45;&gt;Node0x295336b0 -->
<g id="edge9" class="edge"><title>Node0x29532b20&#45;&gt;Node0x295336b0</title>
<path fill="none" stroke="black" d="M166.906,-459.452C173.399,-450.264 180.483,-440.24 187.585,-430.191"/>
<polygon fill="black" stroke="black" points="190.629,-431.948 193.542,-421.762 184.912,-427.908 190.629,-431.948"/>
</g>
<!-- Node0x295332b0 -->
<g id="node9" class="node"><title>Node0x295332b0</title>
<polygon fill="none" stroke="black" points="187.75,-217.5 187.75,-255.5 288.75,-255.5 288.75,-217.5 187.75,-217.5"/>
<text text-anchor="start" x="195.75" y="-240.3" font-family="Times,serif" font-size="14.00">0x8252920:</text>
<text text-anchor="start" x="195.75" y="-225.3" font-family="Times,serif" font-size="14.00"> if g9:</text>
</g>
<!-- Node0x295336b0&#45;&gt;Node0x295332b0 -->
<g id="edge10" class="edge"><title>Node0x295336b0&#45;&gt;Node0x295332b0</title>
<path fill="none" stroke="black" d="M238.25,-293.167C238.25,-283.596 238.25,-274.158 238.25,-265.848"/>
<polygon fill="black" stroke="black" points="241.75,-265.658 238.25,-255.659 234.75,-265.659 241.75,-265.658"/>
</g>
<!-- Node0x15c16c50 -->
<g id="node10" class="node"><title>Node0x15c16c50</title>
<polygon fill="none" stroke="black" points="15.25,-97.5 15.25,-165.5 239.25,-165.5 239.25,-97.5 15.25,-97.5"/>
<text text-anchor="start" x="23.25" y="-150.3" font-family="Times,serif" font-size="14.00">0x2001c550:</text>
<text text-anchor="start" x="23.25" y="-135.3" font-family="Times,serif" font-size="14.00"> v12 = g29</text>
<text text-anchor="start" x="23.25" y="-120.3" font-family="Times,serif" font-size="14.00"> g37 = (g30 &amp; (v12 / 32768))</text>
<text text-anchor="start" x="23.25" y="-105.3" font-family="Times,serif" font-size="14.00"> g29 = ((g42 / 2) &amp; v12)</text>
</g>
<!-- Node0x295332b0&#45;&gt;Node0x15c16c50 -->
<g id="edge11" class="edge"><title>Node0x295332b0&#45;&gt;Node0x15c16c50</title>
<path fill="none" stroke="black" d="M218.661,-217.323C205.384,-205.003 187.302,-188.223 170.723,-172.84"/>
<polygon fill="black" stroke="black" points="172.946,-170.128 163.235,-165.891 168.184,-175.259 172.946,-170.128"/>
<text text-anchor="middle" x="205.75" y="-187.8" font-family="Times,serif" font-size="14.00">g9</text>
</g>
<!-- Node0x20b51a80 -->
<g id="node11" class="node"><title>Node0x20b51a80</title>
<polygon fill="none" stroke="black" points="205.25,-23.5 205.25,-59.5 259.25,-59.5 259.25,-23.5 205.25,-23.5"/>
<text text-anchor="start" x="213.25" y="-37.8" font-family="Times,serif" font-size="14.00">exit:</text>
</g>
<!-- Node0x295332b0&#45;&gt;Node0x20b51a80 -->
<g id="edge12" class="edge"><title>Node0x295332b0&#45;&gt;Node0x20b51a80</title>
<path fill="none" stroke="black" d="M242.003,-217.485C246.972,-190.975 254.425,-139.952 248.25,-97 246.939,-87.8798 244.453,-78.1568 241.825,-69.486"/>
<polygon fill="black" stroke="black" points="245.132,-68.3365 238.737,-59.8897 238.469,-70.4811 245.132,-68.3365"/>
<text text-anchor="middle" x="278.75" y="-127.8" font-family="Times,serif" font-size="14.00">not (g9)</text>
</g>
<!-- Node0x15c16c50&#45;&gt;Node0x20b51a80 -->
<g id="edge13" class="edge"><title>Node0x15c16c50&#45;&gt;Node0x20b51a80</title>
<path fill="none" stroke="black" d="M166.647,-97.4817C179.009,-87.1211 192.407,-75.8926 203.852,-66.3001"/>
<polygon fill="black" stroke="black" points="206.383,-68.7461 211.799,-59.6402 201.886,-63.3811 206.383,-68.7461"/>
</g>
</g>
</svg>
