<?xml version="1.0" encoding="UTF-8" standalone="no"?>
<!DOCTYPE svg PUBLIC "-//W3C//DTD SVG 1.1//EN"
 "http://www.w3.org/Graphics/SVG/1.1/DTD/svg11.dtd">
<!-- Generated by graphviz version 2.38.0 (20140413.2041)
 -->
<!-- Title: Control&#45;flow graph for function &#39;function_17950()&#39;. Pages: 1 -->
<svg width="1341pt" height="2630pt"
 viewBox="0.00 0.00 1341.00 2630.00" xmlns="http://www.w3.org/2000/svg" xmlns:xlink="http://www.w3.org/1999/xlink">
<g id="graph0" class="graph" transform="scale(1 1) rotate(0) translate(4 2626)">
<title>Control&#45;flow graph for function &#39;function_17950()&#39;.</title>
<polygon fill="white" stroke="none" points="-4,4 -4,-2626 1337,-2626 1337,4 -4,4"/>
<text text-anchor="middle" x="666.5" y="-7.8" font-family="Times,serif" font-size="14.00">Control&#45;flow graph for function &#39;function_17950()&#39;.</text>
<!-- Node0x1f0a0eb0 -->
<g id="node1" class="node"><title>Node0x1f0a0eb0</title>
<polygon fill="none" stroke="black" points="697.5,-2585.5 697.5,-2621.5 756.5,-2621.5 756.5,-2585.5 697.5,-2585.5"/>
<text text-anchor="start" x="705.5" y="-2599.8" font-family="Times,serif" font-size="14.00">entry:</text>
</g>
<!-- Node0x21116510 -->
<g id="node2" class="node"><title>Node0x21116510</title>
<polygon fill="none" stroke="black" points="662,-2449.5 662,-2547.5 792,-2547.5 792,-2449.5 662,-2449.5"/>
<text text-anchor="start" x="670" y="-2532.3" font-family="Times,serif" font-size="14.00">0x1cc66280:</text>
<text text-anchor="start" x="670" y="-2517.3" font-family="Times,serif" font-size="14.00"> v1 = NULL</text>
<text text-anchor="start" x="670" y="-2502.3" font-family="Times,serif" font-size="14.00"> g37 = 5748</text>
<text text-anchor="start" x="670" y="-2487.3" font-family="Times,serif" font-size="14.00"> v2 = g18</text>
<text text-anchor="start" x="670" y="-2472.3" font-family="Times,serif" font-size="14.00"> g36 = v2</text>
<text text-anchor="start" x="670" y="-2457.3" font-family="Times,serif" font-size="14.00"> g9 = (v2 == 0)</text>
</g>
<!-- Node0x1f0a0eb0&#45;&gt;Node0x21116510 -->
<g id="edge1" class="edge"><title>Node0x1f0a0eb0&#45;&gt;Node0x21116510</title>
<path fill="none" stroke="black" d="M727,-2585.49C727,-2577.69 727,-2567.94 727,-2557.83"/>
<polygon fill="black" stroke="black" points="730.5,-2557.66 727,-2547.66 723.5,-2557.66 730.5,-2557.66"/>
</g>
<!-- Node0x1f0a22b0 -->
<g id="node3" class="node"><title>Node0x1f0a22b0</title>
<polygon fill="none" stroke="black" points="672,-2373.5 672,-2411.5 782,-2411.5 782,-2373.5 672,-2373.5"/>
<text text-anchor="start" x="680" y="-2396.3" font-family="Times,serif" font-size="14.00">0x8790ff0:</text>
<text text-anchor="start" x="680" y="-2381.3" font-family="Times,serif" font-size="14.00"> if (v2 == 0):</text>
</g>
<!-- Node0x21116510&#45;&gt;Node0x1f0a22b0 -->
<g id="edge2" class="edge"><title>Node0x21116510&#45;&gt;Node0x1f0a22b0</title>
<path fill="none" stroke="black" d="M727,-2449.46C727,-2439.95 727,-2430.27 727,-2421.69"/>
<polygon fill="black" stroke="black" points="730.5,-2421.51 727,-2411.51 723.5,-2421.51 730.5,-2421.51"/>
</g>
<!-- Node0x21118ba0 -->
<g id="node4" class="node"><title>Node0x21118ba0</title>
<polygon fill="none" stroke="black" points="627.5,-2283.5 627.5,-2321.5 728.5,-2321.5 728.5,-2283.5 627.5,-2283.5"/>
<text text-anchor="start" x="635.5" y="-2306.3" font-family="Times,serif" font-size="14.00">0x8790b30:</text>
<text text-anchor="start" x="635.5" y="-2291.3" font-family="Times,serif" font-size="14.00"> g29 = 6</text>
</g>
<!-- Node0x1f0a22b0&#45;&gt;Node0x21118ba0 -->
<g id="edge3" class="edge"><title>Node0x1f0a22b0&#45;&gt;Node0x21118ba0</title>
<path fill="none" stroke="black" d="M705.427,-2373.41C700.051,-2367.98 694.756,-2361.67 691,-2355 686.973,-2347.85 684.175,-2339.45 682.238,-2331.52"/>
<polygon fill="black" stroke="black" points="685.623,-2330.61 680.156,-2321.54 678.77,-2332.04 685.623,-2330.61"/>
<text text-anchor="middle" x="721" y="-2343.8" font-family="Times,serif" font-size="14.00">v2 == 0</text>
</g>
<!-- Node0x451adbd0 -->
<g id="node5" class="node"><title>Node0x451adbd0</title>
<polygon fill="none" stroke="black" points="512.5,-2162.5 512.5,-2245.5 961.5,-2245.5 961.5,-2162.5 512.5,-2162.5"/>
<text text-anchor="start" x="520.5" y="-2230.3" font-family="Times,serif" font-size="14.00">0x8791590:</text>
<text text-anchor="start" x="520.5" y="-2215.3" font-family="Times,serif" font-size="14.00"> g34 = PtrToIntCastExpr&lt;int32&gt;(v1)</text>
<text text-anchor="start" x="520.5" y="-2200.3" font-family="Times,serif" font-size="14.00"> IntToPtrCastExpr&lt;ptr&gt;(ExtCastExpr&lt;int32&gt;((v2 == 0)))()</text>
<text text-anchor="start" x="520.5" y="-2185.3" font-family="Times,serif" font-size="14.00"> v3 = *(IntToPtrCastExpr&lt;ptr&gt;((g38 + 12)))</text>
<text text-anchor="start" x="520.5" y="-2170.3" font-family="Times,serif" font-size="14.00"> g37 = v3</text>
</g>
<!-- Node0x1f0a22b0&#45;&gt;Node0x451adbd0 -->
<g id="edge4" class="edge"><title>Node0x1f0a22b0&#45;&gt;Node0x451adbd0</title>
<path fill="none" stroke="black" d="M741.969,-2373.23C745.652,-2367.7 749.086,-2361.39 751,-2355 760.627,-2322.84 757.08,-2285.21 751.149,-2255.69"/>
<polygon fill="black" stroke="black" points="754.504,-2254.65 748.97,-2245.61 747.662,-2256.13 754.504,-2254.65"/>
<text text-anchor="middle" x="784" y="-2298.8" font-family="Times,serif" font-size="14.00">v2 != 0</text>
</g>
<!-- Node0x21118ba0&#45;&gt;Node0x451adbd0 -->
<g id="edge5" class="edge"><title>Node0x21118ba0&#45;&gt;Node0x451adbd0</title>
<path fill="none" stroke="black" d="M689.097,-2283.35C694.157,-2275.07 700.418,-2264.83 706.727,-2254.51"/>
<polygon fill="black" stroke="black" points="709.782,-2256.23 712.012,-2245.87 703.81,-2252.58 709.782,-2256.23"/>
</g>
<!-- Node0x1f0a00b0 -->
<g id="node6" class="node"><title>Node0x1f0a00b0</title>
<polygon fill="none" stroke="black" points="685,-2086.5 685,-2124.5 789,-2124.5 789,-2086.5 685,-2086.5"/>
<text text-anchor="start" x="693" y="-2109.3" font-family="Times,serif" font-size="14.00">0x879cdc0:</text>
<text text-anchor="start" x="693" y="-2094.3" font-family="Times,serif" font-size="14.00"> if (v3 != 0):</text>
</g>
<!-- Node0x451adbd0&#45;&gt;Node0x1f0a00b0 -->
<g id="edge6" class="edge"><title>Node0x451adbd0&#45;&gt;Node0x1f0a00b0</title>
<path fill="none" stroke="black" d="M737,-2162.35C737,-2153.08 737,-2143.43 737,-2134.8"/>
<polygon fill="black" stroke="black" points="740.5,-2134.54 737,-2124.54 733.5,-2134.54 740.5,-2134.54"/>
</g>
<!-- Node0x21118fa0 -->
<g id="node7" class="node"><title>Node0x21118fa0</title>
<polygon fill="none" stroke="black" points="545,-1966.5 545,-2034.5 685,-2034.5 685,-1966.5 545,-1966.5"/>
<text text-anchor="start" x="553" y="-2019.3" font-family="Times,serif" font-size="14.00">0x8799590:</text>
<text text-anchor="start" x="553" y="-2004.3" font-family="Times,serif" font-size="14.00"> function_176f4()</text>
<text text-anchor="start" x="553" y="-1989.3" font-family="Times,serif" font-size="14.00"> v4 = g29</text>
<text text-anchor="start" x="553" y="-1974.3" font-family="Times,serif" font-size="14.00"> g9 = (v4 == 0)</text>
</g>
<!-- Node0x1f0a00b0&#45;&gt;Node0x21118fa0 -->
<g id="edge7" class="edge"><title>Node0x1f0a00b0&#45;&gt;Node0x21118fa0</title>
<path fill="none" stroke="black" d="M705.937,-2086.41C697.262,-2080.88 688.02,-2074.53 680,-2068 670.414,-2060.2 660.747,-2051.11 651.907,-2042.21"/>
<polygon fill="black" stroke="black" points="654.18,-2039.53 644.694,-2034.81 649.167,-2044.42 654.18,-2039.53"/>
<text text-anchor="middle" x="707" y="-2056.8" font-family="Times,serif" font-size="14.00">v3 != 0</text>
</g>
<!-- Node0x1f0a0a40 -->
<g id="node8" class="node"><title>Node0x1f0a0a40</title>
<polygon fill="none" stroke="black" points="496.5,-1393.5 496.5,-1611.5 861.5,-1611.5 861.5,-1393.5 496.5,-1393.5"/>
<text text-anchor="start" x="504.5" y="-1596.3" font-family="Times,serif" font-size="14.00">0x879d000:</text>
<text text-anchor="start" x="504.5" y="-1581.3" font-family="Times,serif" font-size="14.00"> g38 = 5748</text>
<text text-anchor="start" x="504.5" y="-1566.3" font-family="Times,serif" font-size="14.00"> g29 = *(IntToPtrCastExpr&lt;ptr&gt;((g39 + 5748)))</text>
<text text-anchor="start" x="504.5" y="-1551.3" font-family="Times,serif" font-size="14.00"> function_108a4()</text>
<text text-anchor="start" x="504.5" y="-1536.3" font-family="Times,serif" font-size="14.00"> g29 = *(IntToPtrCastExpr&lt;ptr&gt;((g38 + g39)))</text>
<text text-anchor="start" x="504.5" y="-1521.3" font-family="Times,serif" font-size="14.00"> function_f458()</text>
<text text-anchor="start" x="504.5" y="-1506.3" font-family="Times,serif" font-size="14.00"> v5 = g29</text>
<text text-anchor="start" x="504.5" y="-1491.3" font-family="Times,serif" font-size="14.00"> g9 = (v5 == 0)</text>
<text text-anchor="start" x="504.5" y="-1476.3" font-family="Times,serif" font-size="14.00"> v6 = g39</text>
<text text-anchor="start" x="504.5" y="-1461.3" font-family="Times,serif" font-size="14.00"> v7 = (v6 + g38)</text>
<text text-anchor="start" x="504.5" y="-1446.3" font-family="Times,serif" font-size="14.00"> g38 = v7</text>
<text text-anchor="start" x="504.5" y="-1431.3" font-family="Times,serif" font-size="14.00"> v8</text>
<text text-anchor="start" x="504.5" y="-1416.3" font-family="Times,serif" font-size="14.00"> v9</text>
<text text-anchor="start" x="504.5" y="-1401.3" font-family="Times,serif" font-size="14.00"> v10</text>
</g>
<!-- Node0x1f0a00b0&#45;&gt;Node0x1f0a0a40 -->
<g id="edge8" class="edge"><title>Node0x1f0a00b0&#45;&gt;Node0x1f0a0a40</title>
<path fill="none" stroke="black" d="M740.123,-2086.33C743.375,-2065.8 748,-2031.35 748,-2001.5 748,-2001.5 748,-2001.5 748,-1705 748,-1677.17 742.037,-1648.29 733.617,-1621.38"/>
<polygon fill="black" stroke="black" points="736.842,-1619.98 730.41,-1611.56 730.187,-1622.16 736.842,-1619.98"/>
<text text-anchor="middle" x="778" y="-1860.8" font-family="Times,serif" font-size="14.00">v3 == 0</text>
</g>
<!-- Node0x211194a0 -->
<g id="node9" class="node"><title>Node0x211194a0</title>
<polygon fill="none" stroke="black" points="533,-1890.5 533,-1928.5 637,-1928.5 637,-1890.5 533,-1890.5"/>
<text text-anchor="start" x="541" y="-1913.3" font-family="Times,serif" font-size="14.00">0x8799ea0:</text>
<text text-anchor="start" x="541" y="-1898.3" font-family="Times,serif" font-size="14.00"> if (v4 != 0):</text>
</g>
<!-- Node0x21118fa0&#45;&gt;Node0x211194a0 -->
<g id="edge9" class="edge"><title>Node0x21118fa0&#45;&gt;Node0x211194a0</title>
<path fill="none" stroke="black" d="M603.829,-1966.36C600.731,-1957.17 597.398,-1947.28 594.411,-1938.42"/>
<polygon fill="black" stroke="black" points="597.727,-1937.3 591.216,-1928.94 591.094,-1939.53 597.727,-1937.3"/>
</g>
<!-- Node0x39ed2600 -->
<g id="node10" class="node"><title>Node0x39ed2600</title>
<polygon fill="none" stroke="black" points="624,-1317.5 624,-1355.5 734,-1355.5 734,-1317.5 624,-1317.5"/>
<text text-anchor="start" x="632" y="-1340.3" font-family="Times,serif" font-size="14.00">0x87ab840:</text>
<text text-anchor="start" x="632" y="-1325.3" font-family="Times,serif" font-size="14.00"> if (v5 == 0):</text>
</g>
<!-- Node0x1f0a0a40&#45;&gt;Node0x39ed2600 -->
<g id="edge10" class="edge"><title>Node0x1f0a0a40&#45;&gt;Node0x39ed2600</title>
<path fill="none" stroke="black" d="M679,-1393.48C679,-1383.59 679,-1374.25 679,-1366.15"/>
<polygon fill="black" stroke="black" points="682.5,-1365.92 679,-1355.92 675.5,-1365.92 682.5,-1365.92"/>
</g>
<!-- Node0x19aa76c0 -->
<g id="node11" class="node"><title>Node0x19aa76c0</title>
<polygon fill="none" stroke="black" points="447.5,-1800.5 447.5,-1838.5 548.5,-1838.5 548.5,-1800.5 447.5,-1800.5"/>
<text text-anchor="start" x="455.5" y="-1823.3" font-family="Times,serif" font-size="14.00">0x8799c00:</text>
<text text-anchor="start" x="455.5" y="-1808.3" font-family="Times,serif" font-size="14.00"> g29 = 1</text>
</g>
<!-- Node0x211194a0&#45;&gt;Node0x19aa76c0 -->
<g id="edge11" class="edge"><title>Node0x211194a0&#45;&gt;Node0x19aa76c0</title>
<path fill="none" stroke="black" d="M539.922,-1890.32C531.479,-1885.35 523.331,-1879.28 517,-1872 511.22,-1865.35 507.137,-1856.79 504.279,-1848.57"/>
<polygon fill="black" stroke="black" points="507.591,-1847.43 501.369,-1838.85 500.885,-1849.44 507.591,-1847.43"/>
<text text-anchor="middle" x="544" y="-1860.8" font-family="Times,serif" font-size="14.00">v4 != 0</text>
</g>
<!-- Node0x211197a0 -->
<g id="node12" class="node"><title>Node0x211197a0</title>
<polygon fill="none" stroke="black" points="276.5,-1649.5 276.5,-1762.5 719.5,-1762.5 719.5,-1649.5 276.5,-1649.5"/>
<text text-anchor="start" x="284.5" y="-1747.3" font-family="Times,serif" font-size="14.00">0x879a640:</text>
<text text-anchor="start" x="284.5" y="-1732.3" font-family="Times,serif" font-size="14.00"> g38 = *(IntToPtrCastExpr&lt;ptr&gt;(g34))</text>
<text text-anchor="start" x="284.5" y="-1717.3" font-family="Times,serif" font-size="14.00"> g39 = v1[&#39;1&#39;]</text>
<text text-anchor="start" x="284.5" y="-1702.3" font-family="Times,serif" font-size="14.00"> g32 = v1[&#39;2&#39;]</text>
<text text-anchor="start" x="284.5" y="-1687.3" font-family="Times,serif" font-size="14.00"> g34 = v1[&#39;3&#39;]</text>
<text text-anchor="start" x="284.5" y="-1672.3" font-family="Times,serif" font-size="14.00"> IntToPtrCastExpr&lt;ptr&gt;(ExtCastExpr&lt;int32&gt;((v4 != 0)))()</text>
<text text-anchor="start" x="284.5" y="-1657.3" font-family="Times,serif" font-size="14.00"> v1[&#39;3&#39;] = g29</text>
</g>
<!-- Node0x211194a0&#45;&gt;Node0x211197a0 -->
<g id="edge12" class="edge"><title>Node0x211194a0&#45;&gt;Node0x211197a0</title>
<path fill="none" stroke="black" d="M582.096,-1890.27C578.183,-1868.23 570.151,-1830.34 557,-1800 552.88,-1790.49 547.861,-1780.85 542.509,-1771.54"/>
<polygon fill="black" stroke="black" points="545.403,-1769.56 537.293,-1762.74 539.381,-1773.13 545.403,-1769.56"/>
<text text-anchor="middle" x="601" y="-1815.8" font-family="Times,serif" font-size="14.00">v4 == 0</text>
</g>
<!-- Node0x39ed5030 -->
<g id="node13" class="node"><title>Node0x39ed5030</title>
<polygon fill="none" stroke="black" points="283,-1137.5 283,-1265.5 767,-1265.5 767,-1137.5 283,-1137.5"/>
<text text-anchor="start" x="291" y="-1250.3" font-family="Times,serif" font-size="14.00">0x87ab9c0:</text>
<text text-anchor="start" x="291" y="-1235.3" font-family="Times,serif" font-size="14.00"> g29 = 0</text>
<text text-anchor="start" x="291" y="-1220.3" font-family="Times,serif" font-size="14.00"> v8 = g34</text>
<text text-anchor="start" x="291" y="-1205.3" font-family="Times,serif" font-size="14.00"> g38 = *(IntToPtrCastExpr&lt;ptr&gt;(v8))</text>
<text text-anchor="start" x="291" y="-1190.3" font-family="Times,serif" font-size="14.00"> g39 = *(IntToPtrCastExpr&lt;ptr&gt;((v8 + 4)))</text>
<text text-anchor="start" x="291" y="-1175.3" font-family="Times,serif" font-size="14.00"> g32 = *(IntToPtrCastExpr&lt;ptr&gt;((v8 + 8)))</text>
<text text-anchor="start" x="291" y="-1160.3" font-family="Times,serif" font-size="14.00"> g34 = *(IntToPtrCastExpr&lt;ptr&gt;((v8 + 12)))</text>
<text text-anchor="start" x="291" y="-1145.3" font-family="Times,serif" font-size="14.00"> IntToPtrCastExpr&lt;ptr&gt;(*(IntToPtrCastExpr&lt;ptr&gt;((v8 + 16))))()</text>
</g>
<!-- Node0x39ed2600&#45;&gt;Node0x39ed5030 -->
<g id="edge13" class="edge"><title>Node0x39ed2600&#45;&gt;Node0x39ed5030</title>
<path fill="none" stroke="black" d="M657.91,-1317.29C644.093,-1305.35 625.064,-1288.92 605.721,-1272.21"/>
<polygon fill="black" stroke="black" points="607.869,-1269.44 598.013,-1265.56 603.294,-1274.74 607.869,-1269.44"/>
<text text-anchor="middle" x="664" y="-1287.8" font-family="Times,serif" font-size="14.00">v5 == 0</text>
</g>
<!-- Node0x39ed4c80 -->
<g id="node14" class="node"><title>Node0x39ed4c80</title>
<polygon fill="none" stroke="black" points="785,-1160 785,-1243 1333,-1243 1333,-1160 785,-1160"/>
<text text-anchor="start" x="793" y="-1227.8" font-family="Times,serif" font-size="14.00">0x1cc65380:</text>
<text text-anchor="start" x="793" y="-1212.8" font-family="Times,serif" font-size="14.00"> v11 = *(IntToPtrCastExpr&lt;ptr&gt;(*(IntToPtrCastExpr&lt;ptr&gt;((v6 + 200)))))</text>
<text text-anchor="start" x="793" y="-1197.8" font-family="Times,serif" font-size="14.00"> g37 = v11</text>
<text text-anchor="start" x="793" y="-1182.8" font-family="Times,serif" font-size="14.00"> g9 = (v11 == 0)</text>
<text text-anchor="start" x="793" y="-1167.8" font-family="Times,serif" font-size="14.00"> v12 = v7</text>
</g>
<!-- Node0x39ed2600&#45;&gt;Node0x39ed4c80 -->
<g id="edge14" class="edge"><title>Node0x39ed2600&#45;&gt;Node0x39ed4c80</title>
<path fill="none" stroke="black" d="M730.644,-1317.42C782.489,-1299.28 864.351,-1270.63 933.366,-1246.47"/>
<polygon fill="black" stroke="black" points="934.732,-1249.7 943.014,-1243.1 932.419,-1243.1 934.732,-1249.7"/>
<text text-anchor="middle" x="851" y="-1287.8" font-family="Times,serif" font-size="14.00">v5 != 0</text>
</g>
<!-- Node0x19aa76c0&#45;&gt;Node0x211197a0 -->
<g id="edge15" class="edge"><title>Node0x19aa76c0&#45;&gt;Node0x211197a0</title>
<path fill="none" stroke="black" d="M498,-1800.09C498,-1792.29 498,-1782.7 498,-1772.66"/>
<polygon fill="black" stroke="black" points="501.5,-1772.53 498,-1762.53 494.5,-1772.53 501.5,-1772.53"/>
</g>
<!-- Node0x211197a0&#45;&gt;Node0x1f0a0a40 -->
<g id="edge16" class="edge"><title>Node0x211197a0&#45;&gt;Node0x1f0a0a40</title>
<path fill="none" stroke="black" d="M547.938,-1649.41C556.443,-1639.94 565.549,-1629.8 574.853,-1619.44"/>
<polygon fill="black" stroke="black" points="577.578,-1621.65 581.657,-1611.87 572.37,-1616.97 577.578,-1621.65"/>
</g>
<!-- Node0x3b76a220 -->
<g id="node15" class="node"><title>Node0x3b76a220</title>
<polygon fill="none" stroke="black" points="476.5,-1061.5 476.5,-1099.5 573.5,-1099.5 573.5,-1061.5 476.5,-1061.5"/>
<text text-anchor="start" x="484.5" y="-1084.3" font-family="Times,serif" font-size="14.00">0x87af470:</text>
<text text-anchor="start" x="484.5" y="-1069.3" font-family="Times,serif" font-size="14.00"> if g9:</text>
</g>
<!-- Node0x39ed5030&#45;&gt;Node0x3b76a220 -->
<g id="edge17" class="edge"><title>Node0x39ed5030&#45;&gt;Node0x3b76a220</title>
<path fill="none" stroke="black" d="M525,-1137.17C525,-1127.6 525,-1118.16 525,-1109.85"/>
<polygon fill="black" stroke="black" points="528.5,-1109.66 525,-1099.66 521.5,-1109.66 528.5,-1109.66"/>
</g>
<!-- Node0x39ed4f50 -->
<g id="node16" class="node"><title>Node0x39ed4f50</title>
<polygon fill="none" stroke="black" points="1002.5,-1061.5 1002.5,-1099.5 1115.5,-1099.5 1115.5,-1061.5 1002.5,-1061.5"/>
<text text-anchor="start" x="1010.5" y="-1084.3" font-family="Times,serif" font-size="14.00">0x87a2720:</text>
<text text-anchor="start" x="1010.5" y="-1069.3" font-family="Times,serif" font-size="14.00"> if (v11 != 0):</text>
</g>
<!-- Node0x39ed4c80&#45;&gt;Node0x39ed4f50 -->
<g id="edge18" class="edge"><title>Node0x39ed4c80&#45;&gt;Node0x39ed4f50</title>
<path fill="none" stroke="black" d="M1059,-1159.88C1059,-1143.41 1059,-1124.78 1059,-1109.82"/>
<polygon fill="black" stroke="black" points="1062.5,-1109.66 1059,-1099.66 1055.5,-1109.66 1062.5,-1109.66"/>
</g>
<!-- Node0x451ab090 -->
<g id="node17" class="node"><title>Node0x451ab090</title>
<polygon fill="none" stroke="black" points="0,-911.5 0,-994.5 512,-994.5 512,-911.5 0,-911.5"/>
<text text-anchor="start" x="8" y="-979.3" font-family="Times,serif" font-size="14.00">0x87addc0:</text>
<text text-anchor="start" x="8" y="-964.3" font-family="Times,serif" font-size="14.00"> v10 = (g30 &amp; (g33 / 4194304))</text>
<text text-anchor="start" x="8" y="-949.3" font-family="Times,serif" font-size="14.00"> v9 = (g40 % 256)</text>
<text text-anchor="start" x="8" y="-934.3" font-family="Times,serif" font-size="14.00"> g30 = ((g38 &gt;&gt; (0 if (v9 == 0) else (31 if (v9 &gt; 31) else v9))) &amp; v10)</text>
<text text-anchor="start" x="8" y="-919.3" font-family="Times,serif" font-size="14.00"> g29 = ((g42 / 2) &amp; v10)</text>
</g>
<!-- Node0x3b76a220&#45;&gt;Node0x451ab090 -->
<g id="edge19" class="edge"><title>Node0x3b76a220&#45;&gt;Node0x451ab090</title>
<path fill="none" stroke="black" d="M486.172,-1061.39C451.185,-1045.06 398.29,-1020.38 352.025,-998.8"/>
<polygon fill="black" stroke="black" points="353.41,-995.584 342.868,-994.528 350.451,-1001.93 353.41,-995.584"/>
<text text-anchor="middle" x="455.5" y="-1031.8" font-family="Times,serif" font-size="14.00">g9</text>
</g>
<!-- Node0x1f0a0670 -->
<g id="node18" class="node"><title>Node0x1f0a0670</title>
<polygon fill="none" stroke="black" points="496.5,-805.5 496.5,-843.5 593.5,-843.5 593.5,-805.5 496.5,-805.5"/>
<text text-anchor="start" x="504.5" y="-828.3" font-family="Times,serif" font-size="14.00">0x87af5b0:</text>
<text text-anchor="start" x="504.5" y="-813.3" font-family="Times,serif" font-size="14.00"> return</text>
</g>
<!-- Node0x3b76a220&#45;&gt;Node0x1f0a0670 -->
<g id="edge20" class="edge"><title>Node0x3b76a220&#45;&gt;Node0x1f0a0670</title>
<path fill="none" stroke="black" d="M526.438,-1061.23C529.883,-1017.48 538.628,-906.423 542.765,-853.88"/>
<polygon fill="black" stroke="black" points="546.279,-853.845 543.575,-843.602 539.3,-853.296 546.279,-853.845"/>
<text text-anchor="middle" x="568.5" y="-949.3" font-family="Times,serif" font-size="14.00">not (g9)</text>
</g>
<!-- Node0x1f09abd0 -->
<g id="node19" class="node"><title>Node0x1f09abd0</title>
<polygon fill="none" stroke="black" points="780.5,-896.5 780.5,-1009.5 1127.5,-1009.5 1127.5,-896.5 780.5,-896.5"/>
<text text-anchor="start" x="788.5" y="-994.3" font-family="Times,serif" font-size="14.00">0x87a12c0:</text>
<text text-anchor="start" x="788.5" y="-979.3" font-family="Times,serif" font-size="14.00"> g30 = *(IntToPtrCastExpr&lt;ptr&gt;((v7 + 180)))</text>
<text text-anchor="start" x="788.5" y="-964.3" font-family="Times,serif" font-size="14.00"> g29 = (v6 &#45; 6272)</text>
<text text-anchor="start" x="788.5" y="-949.3" font-family="Times,serif" font-size="14.00"> g36 = *(IntToPtrCastExpr&lt;ptr&gt;((v7 + 184)))</text>
<text text-anchor="start" x="788.5" y="-934.3" font-family="Times,serif" font-size="14.00"> g35 = 96740</text>
<text text-anchor="start" x="788.5" y="-919.3" font-family="Times,serif" font-size="14.00"> IntToPtrCastExpr&lt;ptr&gt;(v11)()</text>
<text text-anchor="start" x="788.5" y="-904.3" font-family="Times,serif" font-size="14.00"> v12 = g38</text>
</g>
<!-- Node0x39ed4f50&#45;&gt;Node0x1f09abd0 -->
<g id="edge21" class="edge"><title>Node0x39ed4f50&#45;&gt;Node0x1f09abd0</title>
<path fill="none" stroke="black" d="M1043.73,-1061.25C1033.91,-1049.51 1020.5,-1033.48 1007.04,-1017.4"/>
<polygon fill="black" stroke="black" points="1009.55,-1014.94 1000.45,-1009.52 1004.18,-1019.43 1009.55,-1014.94"/>
<text text-anchor="middle" x="1058.5" y="-1031.8" font-family="Times,serif" font-size="14.00">v11 != 0</text>
</g>
<!-- Node0x211177a0 -->
<g id="node20" class="node"><title>Node0x211177a0</title>
<polygon fill="none" stroke="black" points="796.5,-790.5 796.5,-858.5 1151.5,-858.5 1151.5,-790.5 796.5,-790.5"/>
<text text-anchor="start" x="804.5" y="-843.3" font-family="Times,serif" font-size="14.00">0x473715b0:</text>
<text text-anchor="start" x="804.5" y="-828.3" font-family="Times,serif" font-size="14.00"> v13 = *(IntToPtrCastExpr&lt;ptr&gt;((v12 + 180)))</text>
<text text-anchor="start" x="804.5" y="-813.3" font-family="Times,serif" font-size="14.00"> g37 = v13</text>
<text text-anchor="start" x="804.5" y="-798.3" font-family="Times,serif" font-size="14.00"> g9 = (v13 == 0)</text>
</g>
<!-- Node0x39ed4f50&#45;&gt;Node0x211177a0 -->
<g id="edge22" class="edge"><title>Node0x39ed4f50&#45;&gt;Node0x211177a0</title>
<path fill="none" stroke="black" d="M1089.68,-1061.48C1107.08,-1049.37 1127.28,-1031.68 1137,-1010 1157.73,-963.767 1164.82,-938.345 1137,-896 1128.53,-883.106 1117.14,-872.559 1104.3,-863.934"/>
<polygon fill="black" stroke="black" points="1106,-860.872 1095.67,-858.539 1102.29,-866.807 1106,-860.872"/>
<text text-anchor="middle" x="1189.5" y="-949.3" font-family="Times,serif" font-size="14.00">v11 == 0</text>
</g>
<!-- Node0x451ab090&#45;&gt;Node0x1f0a0670 -->
<g id="edge23" class="edge"><title>Node0x451ab090&#45;&gt;Node0x1f0a0670</title>
<path fill="none" stroke="black" d="M348.634,-911.453C396.933,-890.311 454.147,-865.268 494.319,-847.684"/>
<polygon fill="black" stroke="black" points="495.882,-850.821 503.639,-843.604 493.075,-844.408 495.882,-850.821"/>
</g>
<!-- Node0x451a98c0 -->
<g id="node21" class="node"><title>Node0x451a98c0</title>
<polygon fill="none" stroke="black" points="564,-23.5 564,-59.5 618,-59.5 618,-23.5 564,-23.5"/>
<text text-anchor="start" x="572" y="-37.8" font-family="Times,serif" font-size="14.00">exit:</text>
</g>
<!-- Node0x1f0a0670&#45;&gt;Node0x451a98c0 -->
<g id="edge24" class="edge"><title>Node0x1f0a0670&#45;&gt;Node0x451a98c0</title>
<path fill="none" stroke="black" d="M545,-805.431C545,-787.45 545,-759.068 545,-734.5 545,-734.5 545,-734.5 545,-138 545,-112.38 558.604,-86.3816 571.016,-67.9938"/>
<polygon fill="black" stroke="black" points="574.027,-69.7976 576.949,-59.6134 568.314,-65.7531 574.027,-69.7976"/>
</g>
<!-- Node0x1f09abd0&#45;&gt;Node0x211177a0 -->
<g id="edge25" class="edge"><title>Node0x1f09abd0&#45;&gt;Node0x211177a0</title>
<path fill="none" stroke="black" d="M962.831,-896.147C964.29,-886.918 965.782,-877.476 967.182,-868.622"/>
<polygon fill="black" stroke="black" points="970.671,-868.969 968.775,-858.545 963.757,-867.876 970.671,-868.969"/>
</g>
<!-- Node0x21117ca0 -->
<g id="node22" class="node"><title>Node0x21117ca0</title>
<polygon fill="none" stroke="black" points="917.5,-714.5 917.5,-752.5 1030.5,-752.5 1030.5,-714.5 917.5,-714.5"/>
<text text-anchor="start" x="925.5" y="-737.3" font-family="Times,serif" font-size="14.00">0x87a6560:</text>
<text text-anchor="start" x="925.5" y="-722.3" font-family="Times,serif" font-size="14.00"> if (v13 != 0):</text>
</g>
<!-- Node0x211177a0&#45;&gt;Node0x21117ca0 -->
<g id="edge26" class="edge"><title>Node0x211177a0&#45;&gt;Node0x21117ca0</title>
<path fill="none" stroke="black" d="M974,-790.36C974,-781.365 974,-771.707 974,-762.993"/>
<polygon fill="black" stroke="black" points="977.5,-762.941 974,-752.941 970.5,-762.941 977.5,-762.941"/>
</g>
<!-- Node0x2288b380 -->
<g id="node23" class="node"><title>Node0x2288b380</title>
<polygon fill="none" stroke="black" points="595.5,-474.5 595.5,-662.5 1088.5,-662.5 1088.5,-474.5 595.5,-474.5"/>
<text text-anchor="start" x="603.5" y="-647.3" font-family="Times,serif" font-size="14.00">0x87a3280:</text>
<text text-anchor="start" x="603.5" y="-632.3" font-family="Times,serif" font-size="14.00"> g29 = 1</text>
<text text-anchor="start" x="603.5" y="-617.3" font-family="Times,serif" font-size="14.00"> g30 = *(IntToPtrCastExpr&lt;ptr&gt;((v12 + 184)))</text>
<text text-anchor="start" x="603.5" y="-602.3" font-family="Times,serif" font-size="14.00"> g35 = 96764</text>
<text text-anchor="start" x="603.5" y="-587.3" font-family="Times,serif" font-size="14.00"> IntToPtrCastExpr&lt;ptr&gt;(v13)()</text>
<text text-anchor="start" x="603.5" y="-572.3" font-family="Times,serif" font-size="14.00"> g29 = 0</text>
<text text-anchor="start" x="603.5" y="-557.3" font-family="Times,serif" font-size="14.00"> v14 = g34</text>
<text text-anchor="start" x="603.5" y="-542.3" font-family="Times,serif" font-size="14.00"> g38 = *(IntToPtrCastExpr&lt;ptr&gt;(v14))</text>
<text text-anchor="start" x="603.5" y="-527.3" font-family="Times,serif" font-size="14.00"> g39 = *(IntToPtrCastExpr&lt;ptr&gt;((v14 + 4)))</text>
<text text-anchor="start" x="603.5" y="-512.3" font-family="Times,serif" font-size="14.00"> g32 = *(IntToPtrCastExpr&lt;ptr&gt;((v14 + 8)))</text>
<text text-anchor="start" x="603.5" y="-497.3" font-family="Times,serif" font-size="14.00"> g34 = *(IntToPtrCastExpr&lt;ptr&gt;((v14 + 12)))</text>
<text text-anchor="start" x="603.5" y="-482.3" font-family="Times,serif" font-size="14.00"> IntToPtrCastExpr&lt;ptr&gt;(*(IntToPtrCastExpr&lt;ptr&gt;((v14 + 16))))()</text>
</g>
<!-- Node0x21117ca0&#45;&gt;Node0x2288b380 -->
<g id="edge27" class="edge"><title>Node0x21117ca0&#45;&gt;Node0x2288b380</title>
<path fill="none" stroke="black" d="M959.369,-714.433C950.172,-703.076 937.492,-687.418 923.852,-670.575"/>
<polygon fill="black" stroke="black" points="926.54,-668.332 917.527,-662.764 921.1,-672.738 926.54,-668.332"/>
<text text-anchor="middle" x="973.5" y="-684.8" font-family="Times,serif" font-size="14.00">v13 != 0</text>
</g>
<!-- Node0x21117fa0 -->
<g id="node24" class="node"><title>Node0x21117fa0</title>
<polygon fill="none" stroke="black" points="660,-308.5 660,-436.5 1144,-436.5 1144,-308.5 660,-308.5"/>
<text text-anchor="start" x="668" y="-421.3" font-family="Times,serif" font-size="14.00">0x87a6720:</text>
<text text-anchor="start" x="668" y="-406.3" font-family="Times,serif" font-size="14.00"> g29 = 0</text>
<text text-anchor="start" x="668" y="-391.3" font-family="Times,serif" font-size="14.00"> v8 = g34</text>
<text text-anchor="start" x="668" y="-376.3" font-family="Times,serif" font-size="14.00"> g38 = *(IntToPtrCastExpr&lt;ptr&gt;(v8))</text>
<text text-anchor="start" x="668" y="-361.3" font-family="Times,serif" font-size="14.00"> g39 = *(IntToPtrCastExpr&lt;ptr&gt;((v8 + 4)))</text>
<text text-anchor="start" x="668" y="-346.3" font-family="Times,serif" font-size="14.00"> g32 = *(IntToPtrCastExpr&lt;ptr&gt;((v8 + 8)))</text>
<text text-anchor="start" x="668" y="-331.3" font-family="Times,serif" font-size="14.00"> g34 = *(IntToPtrCastExpr&lt;ptr&gt;((v8 + 12)))</text>
<text text-anchor="start" x="668" y="-316.3" font-family="Times,serif" font-size="14.00"> IntToPtrCastExpr&lt;ptr&gt;(*(IntToPtrCastExpr&lt;ptr&gt;((v8 + 16))))()</text>
</g>
<!-- Node0x21117ca0&#45;&gt;Node0x21117fa0 -->
<g id="edge28" class="edge"><title>Node0x21117ca0&#45;&gt;Node0x21117fa0</title>
<path fill="none" stroke="black" d="M1030.74,-715.453C1056.02,-704.713 1083.34,-688.02 1098,-663 1140.46,-590.523 1141.8,-545.678 1098,-474 1091.01,-462.559 1082.26,-452.366 1072.36,-443.295"/>
<polygon fill="black" stroke="black" points="1074.43,-440.46 1064.57,-436.575 1069.85,-445.759 1074.43,-440.46"/>
<text text-anchor="middle" x="1164.5" y="-564.8" font-family="Times,serif" font-size="14.00">v13 == 0</text>
</g>
<!-- Node0x2288b380&#45;&gt;Node0x21117fa0 -->
<g id="edge29" class="edge"><title>Node0x2288b380&#45;&gt;Node0x21117fa0</title>
<path fill="none" stroke="black" d="M870.77,-474.478C873.685,-465.051 876.616,-455.574 879.452,-446.404"/>
<polygon fill="black" stroke="black" points="882.876,-447.179 882.487,-436.591 876.189,-445.11 882.876,-447.179"/>
</g>
<!-- Node0x211188a0 -->
<g id="node25" class="node"><title>Node0x211188a0</title>
<polygon fill="none" stroke="black" points="852,-232.5 852,-270.5 952,-270.5 952,-232.5 852,-232.5"/>
<text text-anchor="start" x="860" y="-255.3" font-family="Times,serif" font-size="14.00">0x87ab2a0:</text>
<text text-anchor="start" x="860" y="-240.3" font-family="Times,serif" font-size="14.00"> if g9:</text>
</g>
<!-- Node0x21117fa0&#45;&gt;Node0x211188a0 -->
<g id="edge30" class="edge"><title>Node0x21117fa0&#45;&gt;Node0x211188a0</title>
<path fill="none" stroke="black" d="M902,-308.167C902,-298.596 902,-289.158 902,-280.848"/>
<polygon fill="black" stroke="black" points="905.5,-280.658 902,-270.659 898.5,-280.659 905.5,-280.658"/>
</g>
<!-- Node0x211188a0&#45;&gt;Node0x451a98c0 -->
<g id="edge32" class="edge"><title>Node0x211188a0&#45;&gt;Node0x451a98c0</title>
<path fill="none" stroke="black" d="M851.696,-246.08C774.437,-238.166 632.11,-218.757 600,-181 573.888,-150.295 578.058,-100.582 584.084,-69.8118"/>
<polygon fill="black" stroke="black" points="587.561,-70.2932 586.247,-59.7802 580.718,-68.818 587.561,-70.2932"/>
<text text-anchor="middle" x="628.5" y="-135.3" font-family="Times,serif" font-size="14.00">not (g9)</text>
</g>
<!-- Node0x451ae700 -->
<g id="node26" class="node"><title>Node0x451ae700</title>
<polygon fill="none" stroke="black" points="666,-97.5 666,-180.5 1178,-180.5 1178,-97.5 666,-97.5"/>
<text text-anchor="start" x="674" y="-165.3" font-family="Times,serif" font-size="14.00">0x87a93f0:</text>
<text text-anchor="start" x="674" y="-150.3" font-family="Times,serif" font-size="14.00"> v10 = (g30 &amp; (g33 / 4194304))</text>
<text text-anchor="start" x="674" y="-135.3" font-family="Times,serif" font-size="14.00"> v9 = (g40 % 256)</text>
<text text-anchor="start" x="674" y="-120.3" font-family="Times,serif" font-size="14.00"> g30 = ((g38 &gt;&gt; (0 if (v9 == 0) else (31 if (v9 &gt; 31) else v9))) &amp; v10)</text>
<text text-anchor="start" x="674" y="-105.3" font-family="Times,serif" font-size="14.00"> g29 = ((g42 / 2) &amp; v10)</text>
</g>
<!-- Node0x211188a0&#45;&gt;Node0x451ae700 -->
<g id="edge31" class="edge"><title>Node0x211188a0&#45;&gt;Node0x451ae700</title>
<path fill="none" stroke="black" d="M905.303,-232.253C907.358,-220.898 910.112,-205.682 912.79,-190.887"/>
<polygon fill="black" stroke="black" points="916.285,-191.227 914.622,-180.764 909.397,-189.98 916.285,-191.227"/>
<text text-anchor="middle" x="919.5" y="-202.8" font-family="Times,serif" font-size="14.00">g9</text>
</g>
<!-- Node0x451ae700&#45;&gt;Node0x451a98c0 -->
<g id="edge33" class="edge"><title>Node0x451ae700&#45;&gt;Node0x451a98c0</title>
<path fill="none" stroke="black" d="M781.626,-97.4994C725.578,-81.3285 665.594,-64.0219 628.198,-53.2324"/>
<polygon fill="black" stroke="black" points="628.85,-49.7778 618.272,-50.3684 626.91,-56.5035 628.85,-49.7778"/>
</g>
</g>
</svg>
