<?xml version="1.0" encoding="UTF-8" standalone="no"?>
<!DOCTYPE svg PUBLIC "-//W3C//DTD SVG 1.1//EN"
 "http://www.w3.org/Graphics/SVG/1.1/DTD/svg11.dtd">
<!-- Generated by graphviz version 2.38.0 (20140413.2041)
 -->
<!-- Title: Control&#45;flow graph for function &#39;SpGetMetadataValidRange()&#39;. Pages: 1 -->
<svg width="467pt" height="1453pt"
 viewBox="0.00 0.00 467.00 1453.00" xmlns="http://www.w3.org/2000/svg" xmlns:xlink="http://www.w3.org/1999/xlink">
<g id="graph0" class="graph" transform="scale(1 1) rotate(0) translate(4 1449)">
<title>Control&#45;flow graph for function &#39;SpGetMetadataValidRange()&#39;.</title>
<polygon fill="white" stroke="none" points="-4,4 -4,-1449 463,-1449 463,4 -4,4"/>
<text text-anchor="middle" x="229.5" y="-7.8" font-family="Times,serif" font-size="14.00">Control&#45;flow graph for function &#39;SpGetMetadataValidRange()&#39;.</text>
<!-- Node0x470ff4b0 -->
<g id="node1" class="node"><title>Node0x470ff4b0</title>
<polygon fill="none" stroke="black" points="228.75,-1408.5 228.75,-1444.5 287.75,-1444.5 287.75,-1408.5 228.75,-1408.5"/>
<text text-anchor="start" x="236.75" y="-1422.8" font-family="Times,serif" font-size="14.00">entry:</text>
</g>
<!-- Node0x20b50340 -->
<g id="node2" class="node"><title>Node0x20b50340</title>
<polygon fill="none" stroke="black" points="100.75,-1092.5 100.75,-1370.5 415.75,-1370.5 415.75,-1092.5 100.75,-1092.5"/>
<text text-anchor="start" x="108.75" y="-1355.3" font-family="Times,serif" font-size="14.00">0x13800810:</text>
<text text-anchor="start" x="108.75" y="-1340.3" font-family="Times,serif" font-size="14.00"> v1 = g38</text>
<text text-anchor="start" x="108.75" y="-1325.3" font-family="Times,serif" font-size="14.00"> v2 = g39</text>
<text text-anchor="start" x="108.75" y="-1310.3" font-family="Times,serif" font-size="14.00"> v3 = g40</text>
<text text-anchor="start" x="108.75" y="-1295.3" font-family="Times,serif" font-size="14.00"> v4 = g41</text>
<text text-anchor="start" x="108.75" y="-1280.3" font-family="Times,serif" font-size="14.00"> v5 = g42</text>
<text text-anchor="start" x="108.75" y="-1265.3" font-family="Times,serif" font-size="14.00"> g37 = 200</text>
<text text-anchor="start" x="108.75" y="-1250.3" font-family="Times,serif" font-size="14.00"> g38 = 165012</text>
<text text-anchor="start" x="108.75" y="-1235.3" font-family="Times,serif" font-size="14.00"> v6 = *(IntToPtrCastExpr&lt;ptr&gt;(165212))</text>
<text text-anchor="start" x="108.75" y="-1220.3" font-family="Times,serif" font-size="14.00"> g42 = v6</text>
<text text-anchor="start" x="108.75" y="-1205.3" font-family="Times,serif" font-size="14.00"> v7 = g29</text>
<text text-anchor="start" x="108.75" y="-1190.3" font-family="Times,serif" font-size="14.00"> g40 = v7</text>
<text text-anchor="start" x="108.75" y="-1175.3" font-family="Times,serif" font-size="14.00"> v8 = *(IntToPtrCastExpr&lt;ptr&gt;(v6))</text>
<text text-anchor="start" x="108.75" y="-1160.3" font-family="Times,serif" font-size="14.00"> g33 = v8</text>
<text text-anchor="start" x="108.75" y="-1145.3" font-family="Times,serif" font-size="14.00"> v9 = g30</text>
<text text-anchor="start" x="108.75" y="-1130.3" font-family="Times,serif" font-size="14.00"> g39 = v9</text>
<text text-anchor="start" x="108.75" y="-1115.3" font-family="Times,serif" font-size="14.00"> v10 = v9</text>
<text text-anchor="start" x="108.75" y="-1100.3" font-family="Times,serif" font-size="14.00"> v11 = v7</text>
</g>
<!-- Node0x470ff4b0&#45;&gt;Node0x20b50340 -->
<g id="edge1" class="edge"><title>Node0x470ff4b0&#45;&gt;Node0x20b50340</title>
<path fill="none" stroke="black" d="M258.25,-1408.37C258.25,-1400.96 258.25,-1391.53 258.25,-1380.92"/>
<polygon fill="black" stroke="black" points="261.75,-1380.85 258.25,-1370.85 254.75,-1380.85 261.75,-1380.85"/>
</g>
<!-- Node0x2952f4c0 -->
<g id="node3" class="node"><title>Node0x2952f4c0</title>
<polygon fill="none" stroke="black" points="206.25,-1016.5 206.25,-1054.5 310.25,-1054.5 310.25,-1016.5 206.25,-1016.5"/>
<text text-anchor="start" x="214.25" y="-1039.3" font-family="Times,serif" font-size="14.00">0x821a850:</text>
<text text-anchor="start" x="214.25" y="-1024.3" font-family="Times,serif" font-size="14.00"> if (v8 != 0):</text>
</g>
<!-- Node0x20b50340&#45;&gt;Node0x2952f4c0 -->
<g id="edge2" class="edge"><title>Node0x20b50340&#45;&gt;Node0x2952f4c0</title>
<path fill="none" stroke="black" d="M258.25,-1092.35C258.25,-1082.21 258.25,-1072.8 258.25,-1064.71"/>
<polygon fill="black" stroke="black" points="261.75,-1064.55 258.25,-1054.55 254.75,-1064.55 261.75,-1064.55"/>
</g>
<!-- Node0x470f7950 -->
<g id="node4" class="node"><title>Node0x470f7950</title>
<polygon fill="none" stroke="black" points="46.25,-866.5 46.25,-964.5 258.25,-964.5 258.25,-866.5 46.25,-866.5"/>
<text text-anchor="start" x="54.25" y="-949.3" font-family="Times,serif" font-size="14.00">0x8219b60:</text>
<text text-anchor="start" x="54.25" y="-934.3" font-family="Times,serif" font-size="14.00"> g36 = v7</text>
<text text-anchor="start" x="54.25" y="-919.3" font-family="Times,serif" font-size="14.00"> g37 = v9</text>
<text text-anchor="start" x="54.25" y="-904.3" font-family="Times,serif" font-size="14.00"> imported_function_ord_0()</text>
<text text-anchor="start" x="54.25" y="-889.3" font-family="Times,serif" font-size="14.00"> v10 = g39</text>
<text text-anchor="start" x="54.25" y="-874.3" font-family="Times,serif" font-size="14.00"> v11 = g40</text>
</g>
<!-- Node0x2952f4c0&#45;&gt;Node0x470f7950 -->
<g id="edge3" class="edge"><title>Node0x2952f4c0&#45;&gt;Node0x470f7950</title>
<path fill="none" stroke="black" d="M241.92,-1016.32C231.24,-1004.43 216.663,-988.205 202.367,-972.29"/>
<polygon fill="black" stroke="black" points="204.676,-969.623 195.389,-964.523 199.468,-974.301 204.676,-969.623"/>
<text text-anchor="middle" x="251.25" y="-986.8" font-family="Times,serif" font-size="14.00">v8 != 0</text>
</g>
<!-- Node0x2952fac0 -->
<g id="node5" class="node"><title>Node0x2952fac0</title>
<polygon fill="none" stroke="black" points="103.75,-685.5 103.75,-828.5 400.75,-828.5 400.75,-685.5 103.75,-685.5"/>
<text text-anchor="start" x="111.75" y="-813.3" font-family="Times,serif" font-size="14.00">0x821a9b0:</text>
<text text-anchor="start" x="111.75" y="-798.3" font-family="Times,serif" font-size="14.00"> g29 = v11</text>
<text text-anchor="start" x="111.75" y="-783.3" font-family="Times,serif" font-size="14.00"> g30 = v10</text>
<text text-anchor="start" x="111.75" y="-768.3" font-family="Times,serif" font-size="14.00"> function_16898()</text>
<text text-anchor="start" x="111.75" y="-753.3" font-family="Times,serif" font-size="14.00"> v12 = *(IntToPtrCastExpr&lt;ptr&gt;(g42))</text>
<text text-anchor="start" x="111.75" y="-738.3" font-family="Times,serif" font-size="14.00"> g33 = v12</text>
<text text-anchor="start" x="111.75" y="-723.3" font-family="Times,serif" font-size="14.00"> v13 = g29</text>
<text text-anchor="start" x="111.75" y="-708.3" font-family="Times,serif" font-size="14.00"> g41 = v13</text>
<text text-anchor="start" x="111.75" y="-693.3" font-family="Times,serif" font-size="14.00"> g9 = (v12 == 0)</text>
</g>
<!-- Node0x2952f4c0&#45;&gt;Node0x2952fac0 -->
<g id="edge4" class="edge"><title>Node0x2952f4c0&#45;&gt;Node0x2952fac0</title>
<path fill="none" stroke="black" d="M271.754,-1016.45C275.217,-1010.83 278.466,-1004.42 280.25,-998 282.036,-991.577 280.619,-989.656 280.25,-983 277.59,-934.97 271.089,-881.524 265.02,-838.778"/>
<polygon fill="black" stroke="black" points="268.461,-838.111 263.571,-828.712 261.532,-839.108 268.461,-838.111"/>
<text text-anchor="middle" x="308.25" y="-911.8" font-family="Times,serif" font-size="14.00">v8 == 0</text>
</g>
<!-- Node0x470f7950&#45;&gt;Node0x2952fac0 -->
<g id="edge5" class="edge"><title>Node0x470f7950&#45;&gt;Node0x2952fac0</title>
<path fill="none" stroke="black" d="M183.069,-866.268C188.973,-857.029 195.296,-847.133 201.633,-837.215"/>
<polygon fill="black" stroke="black" points="204.76,-838.822 207.195,-828.511 198.861,-835.053 204.76,-838.822"/>
</g>
<!-- Node0x470fe580 -->
<g id="node6" class="node"><title>Node0x470fe580</title>
<polygon fill="none" stroke="black" points="195.75,-609.5 195.75,-647.5 308.75,-647.5 308.75,-609.5 195.75,-609.5"/>
<text text-anchor="start" x="203.75" y="-632.3" font-family="Times,serif" font-size="14.00">0x6258750:</text>
<text text-anchor="start" x="203.75" y="-617.3" font-family="Times,serif" font-size="14.00"> if (v12 != 0):</text>
</g>
<!-- Node0x2952fac0&#45;&gt;Node0x470fe580 -->
<g id="edge6" class="edge"><title>Node0x2952fac0&#45;&gt;Node0x470fe580</title>
<path fill="none" stroke="black" d="M252.25,-685.353C252.25,-675.594 252.25,-666.073 252.25,-657.737"/>
<polygon fill="black" stroke="black" points="255.75,-657.54 252.25,-647.54 248.75,-657.54 255.75,-657.54"/>
</g>
<!-- Node0x2952d9b0 -->
<g id="node7" class="node"><title>Node0x2952d9b0</title>
<polygon fill="none" stroke="black" points="43.25,-459.5 43.25,-557.5 255.25,-557.5 255.25,-459.5 43.25,-459.5"/>
<text text-anchor="start" x="51.25" y="-542.3" font-family="Times,serif" font-size="14.00">0x62577d0:</text>
<text text-anchor="start" x="51.25" y="-527.3" font-family="Times,serif" font-size="14.00"> g30 = (g38 &#45; 8092)</text>
<text text-anchor="start" x="51.25" y="-512.3" font-family="Times,serif" font-size="14.00"> g36 = g40</text>
<text text-anchor="start" x="51.25" y="-497.3" font-family="Times,serif" font-size="14.00"> g37 = g39</text>
<text text-anchor="start" x="51.25" y="-482.3" font-family="Times,serif" font-size="14.00"> imported_function_ord_0()</text>
<text text-anchor="start" x="51.25" y="-467.3" font-family="Times,serif" font-size="14.00"> v13 = g41</text>
</g>
<!-- Node0x470fe580&#45;&gt;Node0x2952d9b0 -->
<g id="edge7" class="edge"><title>Node0x470fe580&#45;&gt;Node0x2952d9b0</title>
<path fill="none" stroke="black" d="M232.428,-609.41C226.423,-603.681 219.921,-597.218 214.25,-591 206.967,-583.014 199.545,-574.319 192.445,-565.68"/>
<polygon fill="black" stroke="black" points="195.051,-563.337 186.028,-557.784 189.619,-567.752 195.051,-563.337"/>
<text text-anchor="middle" x="245.75" y="-579.8" font-family="Times,serif" font-size="14.00">v12 != 0</text>
</g>
<!-- Node0x20b4d660 -->
<g id="node8" class="node"><title>Node0x20b4d660</title>
<polygon fill="none" stroke="black" points="128.25,-263.5 128.25,-421.5 370.25,-421.5 370.25,-263.5 128.25,-263.5"/>
<text text-anchor="start" x="136.25" y="-406.3" font-family="Times,serif" font-size="14.00">0x62588d0:</text>
<text text-anchor="start" x="136.25" y="-391.3" font-family="Times,serif" font-size="14.00"> g29 = v13</text>
<text text-anchor="start" x="136.25" y="-376.3" font-family="Times,serif" font-size="14.00"> g38 = v1</text>
<text text-anchor="start" x="136.25" y="-361.3" font-family="Times,serif" font-size="14.00"> g39 = v2</text>
<text text-anchor="start" x="136.25" y="-346.3" font-family="Times,serif" font-size="14.00"> g40 = v3</text>
<text text-anchor="start" x="136.25" y="-331.3" font-family="Times,serif" font-size="14.00"> g41 = v4</text>
<text text-anchor="start" x="136.25" y="-316.3" font-family="Times,serif" font-size="14.00"> g42 = v5</text>
<text text-anchor="start" x="136.25" y="-301.3" font-family="Times,serif" font-size="14.00"> v14</text>
<text text-anchor="start" x="136.25" y="-286.3" font-family="Times,serif" font-size="14.00"> g34 = v14</text>
<text text-anchor="start" x="136.25" y="-271.3" font-family="Times,serif" font-size="14.00"> IntToPtrCastExpr&lt;ptr&gt;(g35)()</text>
</g>
<!-- Node0x470fe580&#45;&gt;Node0x20b4d660 -->
<g id="edge8" class="edge"><title>Node0x470fe580&#45;&gt;Node0x20b4d660</title>
<path fill="none" stroke="black" d="M267.836,-609.316C271.672,-603.787 275.251,-597.457 277.25,-591 279.222,-584.632 277.619,-582.656 277.25,-576 274.596,-528.077 268.435,-474.91 262.566,-431.527"/>
<polygon fill="black" stroke="black" points="266.028,-431.006 261.202,-421.574 259.093,-431.957 266.028,-431.006"/>
<text text-anchor="middle" x="309.75" y="-504.8" font-family="Times,serif" font-size="14.00">v12 == 0</text>
</g>
<!-- Node0x2952d9b0&#45;&gt;Node0x20b4d660 -->
<g id="edge9" class="edge"><title>Node0x2952d9b0&#45;&gt;Node0x20b4d660</title>
<path fill="none" stroke="black" d="M178.712,-459.182C184.282,-450.047 190.264,-440.237 196.303,-430.333"/>
<polygon fill="black" stroke="black" points="199.398,-431.98 201.616,-421.62 193.421,-428.336 199.398,-431.98"/>
</g>
<!-- Node0x20b51340 -->
<g id="node9" class="node"><title>Node0x20b51340</title>
<polygon fill="none" stroke="black" points="198.75,-187.5 198.75,-225.5 299.75,-225.5 299.75,-187.5 198.75,-187.5"/>
<text text-anchor="start" x="206.75" y="-210.3" font-family="Times,serif" font-size="14.00">0x625a070:</text>
<text text-anchor="start" x="206.75" y="-195.3" font-family="Times,serif" font-size="14.00"> if g9:</text>
</g>
<!-- Node0x20b4d660&#45;&gt;Node0x20b51340 -->
<g id="edge10" class="edge"><title>Node0x20b4d660&#45;&gt;Node0x20b51340</title>
<path fill="none" stroke="black" d="M249.25,-263.164C249.25,-253.447 249.25,-244.058 249.25,-235.846"/>
<polygon fill="black" stroke="black" points="252.75,-235.801 249.25,-225.801 245.75,-235.801 252.75,-235.801"/>
</g>
<!-- Node0x20b4e110 -->
<g id="node10" class="node"><title>Node0x20b4e110</title>
<polygon fill="none" stroke="black" points="58.25,-97.5 58.25,-135.5 246.25,-135.5 246.25,-97.5 58.25,-97.5"/>
<text text-anchor="start" x="66.25" y="-120.3" font-family="Times,serif" font-size="14.00">0x6259e00:</text>
<text text-anchor="start" x="66.25" y="-105.3" font-family="Times,serif" font-size="14.00"> g29 = (g29 &amp; (g42 / 2))</text>
</g>
<!-- Node0x20b51340&#45;&gt;Node0x20b4e110 -->
<g id="edge11" class="edge"><title>Node0x20b51340&#45;&gt;Node0x20b4e110</title>
<path fill="none" stroke="black" d="M229.152,-187.266C214.975,-174.405 195.8,-157.009 180.144,-142.806"/>
<polygon fill="black" stroke="black" points="182.081,-139.837 172.323,-135.71 177.377,-145.022 182.081,-139.837"/>
<text text-anchor="middle" x="216.75" y="-157.8" font-family="Times,serif" font-size="14.00">g9</text>
</g>
<!-- Node0x2952e0c0 -->
<g id="node11" class="node"><title>Node0x2952e0c0</title>
<polygon fill="none" stroke="black" points="216.25,-23.5 216.25,-59.5 270.25,-59.5 270.25,-23.5 216.25,-23.5"/>
<text text-anchor="start" x="224.25" y="-37.8" font-family="Times,serif" font-size="14.00">exit:</text>
</g>
<!-- Node0x20b51340&#45;&gt;Node0x2952e0c0 -->
<g id="edge12" class="edge"><title>Node0x20b51340&#45;&gt;Node0x2952e0c0</title>
<path fill="none" stroke="black" d="M252.053,-187.406C254.979,-165.828 258.698,-128.696 255.25,-97 254.267,-87.9613 252.392,-78.2257 250.411,-69.5188"/>
<polygon fill="black" stroke="black" points="253.747,-68.4222 247.995,-59.5244 246.943,-70.0668 253.747,-68.4222"/>
<text text-anchor="middle" x="284.75" y="-112.8" font-family="Times,serif" font-size="14.00">not (g9)</text>
</g>
<!-- Node0x20b4e110&#45;&gt;Node0x2952e0c0 -->
<g id="edge13" class="edge"><title>Node0x20b4e110&#45;&gt;Node0x2952e0c0</title>
<path fill="none" stroke="black" d="M174.744,-97.4551C186.574,-87.9651 201.22,-76.2165 213.929,-66.0211"/>
<polygon fill="black" stroke="black" points="216.342,-68.5726 221.952,-59.585 211.962,-63.1123 216.342,-68.5726"/>
</g>
</g>
</svg>
