<?xml version="1.0" encoding="UTF-8" standalone="no"?>
<!DOCTYPE svg PUBLIC "-//W3C//DTD SVG 1.1//EN"
 "http://www.w3.org/Graphics/SVG/1.1/DTD/svg11.dtd">
<!-- Generated by graphviz version 2.38.0 (20140413.2041)
 -->
<!-- Title: Control&#45;flow graph for function &#39;function_2124c()&#39;. Pages: 1 -->
<svg width="555pt" height="941pt"
 viewBox="0.00 0.00 554.50 941.00" xmlns="http://www.w3.org/2000/svg" xmlns:xlink="http://www.w3.org/1999/xlink">
<g id="graph0" class="graph" transform="scale(1 1) rotate(0) translate(4 937)">
<title>Control&#45;flow graph for function &#39;function_2124c()&#39;.</title>
<polygon fill="white" stroke="none" points="-4,4 -4,-937 550.5,-937 550.5,4 -4,4"/>
<text text-anchor="middle" x="273.25" y="-7.8" font-family="Times,serif" font-size="14.00">Control&#45;flow graph for function &#39;function_2124c()&#39;.</text>
<!-- Node0x20170b10 -->
<g id="node1" class="node"><title>Node0x20170b10</title>
<polygon fill="none" stroke="black" points="292.5,-896.5 292.5,-932.5 351.5,-932.5 351.5,-896.5 292.5,-896.5"/>
<text text-anchor="start" x="300.5" y="-910.8" font-family="Times,serif" font-size="14.00">entry:</text>
</g>
<!-- Node0x1af4bbc0 -->
<g id="node2" class="node"><title>Node0x1af4bbc0</title>
<polygon fill="none" stroke="black" points="97.5,-595.5 97.5,-858.5 546.5,-858.5 546.5,-595.5 97.5,-595.5"/>
<text text-anchor="start" x="105.5" y="-843.3" font-family="Times,serif" font-size="14.00">0x19fc7850:</text>
<text text-anchor="start" x="105.5" y="-828.3" font-family="Times,serif" font-size="14.00"> v1 = NULL</text>
<text text-anchor="start" x="105.5" y="-813.3" font-family="Times,serif" font-size="14.00"> v2 = *(IntToPtrCastExpr&lt;ptr&gt;((g29 + 4428)))</text>
<text text-anchor="start" x="105.5" y="-798.3" font-family="Times,serif" font-size="14.00"> g37 = v2</text>
<text text-anchor="start" x="105.5" y="-783.3" font-family="Times,serif" font-size="14.00"> g9 = (v2 == 0)</text>
<text text-anchor="start" x="105.5" y="-768.3" font-family="Times,serif" font-size="14.00"> g34 = PtrToIntCastExpr&lt;int32&gt;(v1)</text>
<text text-anchor="start" x="105.5" y="-753.3" font-family="Times,serif" font-size="14.00"> IntToPtrCastExpr&lt;ptr&gt;(ExtCastExpr&lt;int32&gt;((v2 == 0)))()</text>
<text text-anchor="start" x="105.5" y="-738.3" font-family="Times,serif" font-size="14.00"> v3 = g29</text>
<text text-anchor="start" x="105.5" y="-723.3" font-family="Times,serif" font-size="14.00"> v4 = (v3 + 4428)</text>
<text text-anchor="start" x="105.5" y="-708.3" font-family="Times,serif" font-size="14.00"> g38 = v4</text>
<text text-anchor="start" x="105.5" y="-693.3" font-family="Times,serif" font-size="14.00"> g39 = *(IntToPtrCastExpr&lt;ptr&gt;(v3))</text>
<text text-anchor="start" x="105.5" y="-678.3" font-family="Times,serif" font-size="14.00"> g30 = g38</text>
<text text-anchor="start" x="105.5" y="-663.3" font-family="Times,serif" font-size="14.00"> g36 = strlen(IntToPtrCastExpr&lt;ptr&gt;(v4))</text>
<text text-anchor="start" x="105.5" y="-648.3" font-family="Times,serif" font-size="14.00"> g29 = *(IntToPtrCastExpr&lt;ptr&gt;(g39))</text>
<text text-anchor="start" x="105.5" y="-633.3" font-family="Times,serif" font-size="14.00"> function_39c0()</text>
<text text-anchor="start" x="105.5" y="-618.3" font-family="Times,serif" font-size="14.00"> v5 = g29</text>
<text text-anchor="start" x="105.5" y="-603.3" font-family="Times,serif" font-size="14.00"> g9 = (v5 == 0)</text>
</g>
<!-- Node0x20170b10&#45;&gt;Node0x1af4bbc0 -->
<g id="edge1" class="edge"><title>Node0x20170b10&#45;&gt;Node0x1af4bbc0</title>
<path fill="none" stroke="black" d="M322,-896.381C322,-888.896 322,-879.378 322,-868.688"/>
<polygon fill="black" stroke="black" points="325.5,-868.565 322,-858.565 318.5,-868.566 325.5,-868.565"/>
</g>
<!-- Node0x201721a0 -->
<g id="node3" class="node"><title>Node0x201721a0</title>
<polygon fill="none" stroke="black" points="267,-519.5 267,-557.5 377,-557.5 377,-519.5 267,-519.5"/>
<text text-anchor="start" x="275" y="-542.3" font-family="Times,serif" font-size="14.00">0xa0417a0:</text>
<text text-anchor="start" x="275" y="-527.3" font-family="Times,serif" font-size="14.00"> if (v5 == 0):</text>
</g>
<!-- Node0x1af4bbc0&#45;&gt;Node0x201721a0 -->
<g id="edge2" class="edge"><title>Node0x1af4bbc0&#45;&gt;Node0x201721a0</title>
<path fill="none" stroke="black" d="M322,-595.456C322,-585.355 322,-575.953 322,-567.849"/>
<polygon fill="black" stroke="black" points="325.5,-567.658 322,-557.658 318.5,-567.658 325.5,-567.658"/>
</g>
<!-- Node0x20172f70 -->
<g id="node4" class="node"><title>Node0x20172f70</title>
<polygon fill="none" stroke="black" points="0,-429.5 0,-467.5 338,-467.5 338,-429.5 0,-429.5"/>
<text text-anchor="start" x="8" y="-452.3" font-family="Times,serif" font-size="14.00">0xa041510:</text>
<text text-anchor="start" x="8" y="-437.3" font-family="Times,serif" font-size="14.00"> *(IntToPtrCastExpr&lt;ptr&gt;((g41 + g40))) = 0</text>
</g>
<!-- Node0x201721a0&#45;&gt;Node0x20172f70 -->
<g id="edge3" class="edge"><title>Node0x201721a0&#45;&gt;Node0x20172f70</title>
<path fill="none" stroke="black" d="M290.669,-519.48C267.129,-505.94 234.7,-487.288 209.24,-472.645"/>
<polygon fill="black" stroke="black" points="210.965,-469.599 200.552,-467.647 207.475,-475.667 210.965,-469.599"/>
<text text-anchor="middle" x="285" y="-489.8" font-family="Times,serif" font-size="14.00">v5 == 0</text>
</g>
<!-- Node0x2a8b8ee0 -->
<g id="node5" class="node"><title>Node0x2a8b8ee0</title>
<polygon fill="none" stroke="black" points="167,-263.5 167,-391.5 465,-391.5 465,-263.5 167,-263.5"/>
<text text-anchor="start" x="175" y="-376.3" font-family="Times,serif" font-size="14.00">0xa041f80:</text>
<text text-anchor="start" x="175" y="-361.3" font-family="Times,serif" font-size="14.00"> g38 = *(IntToPtrCastExpr&lt;ptr&gt;(g34))</text>
<text text-anchor="start" x="175" y="-346.3" font-family="Times,serif" font-size="14.00"> g39 = v1[&#39;1&#39;]</text>
<text text-anchor="start" x="175" y="-331.3" font-family="Times,serif" font-size="14.00"> g40 = v1[&#39;2&#39;]</text>
<text text-anchor="start" x="175" y="-316.3" font-family="Times,serif" font-size="14.00"> g41 = v1[&#39;3&#39;]</text>
<text text-anchor="start" x="175" y="-301.3" font-family="Times,serif" font-size="14.00"> g32 = v1[&#39;4&#39;]</text>
<text text-anchor="start" x="175" y="-286.3" font-family="Times,serif" font-size="14.00"> g34 = v1[&#39;5&#39;]</text>
<text text-anchor="start" x="175" y="-271.3" font-family="Times,serif" font-size="14.00"> IntToPtrCastExpr&lt;ptr&gt;(v1[&#39;6&#39;])()</text>
</g>
<!-- Node0x201721a0&#45;&gt;Node0x2a8b8ee0 -->
<g id="edge4" class="edge"><title>Node0x201721a0&#45;&gt;Node0x2a8b8ee0</title>
<path fill="none" stroke="black" d="M330.471,-519.389C336.418,-505.633 343.85,-486.064 347,-468 350.771,-446.373 348.232,-423.031 343.294,-401.742"/>
<polygon fill="black" stroke="black" points="346.624,-400.636 340.783,-391.797 339.837,-402.349 346.624,-400.636"/>
<text text-anchor="middle" x="376" y="-444.8" font-family="Times,serif" font-size="14.00">v5 != 0</text>
</g>
<!-- Node0x20172f70&#45;&gt;Node0x2a8b8ee0 -->
<g id="edge5" class="edge"><title>Node0x20172f70&#45;&gt;Node0x2a8b8ee0</title>
<path fill="none" stroke="black" d="M191.326,-429.426C202.101,-420.704 215.789,-409.623 230.124,-398.018"/>
<polygon fill="black" stroke="black" points="232.57,-400.542 238.14,-391.529 228.165,-395.101 232.57,-400.542"/>
</g>
<!-- Node0x2a8b4ff0 -->
<g id="node6" class="node"><title>Node0x2a8b4ff0</title>
<polygon fill="none" stroke="black" points="265.5,-187.5 265.5,-225.5 366.5,-225.5 366.5,-187.5 265.5,-187.5"/>
<text text-anchor="start" x="273.5" y="-210.3" font-family="Times,serif" font-size="14.00">0xa0455b0:</text>
<text text-anchor="start" x="273.5" y="-195.3" font-family="Times,serif" font-size="14.00"> if g9:</text>
</g>
<!-- Node0x2a8b8ee0&#45;&gt;Node0x2a8b4ff0 -->
<g id="edge6" class="edge"><title>Node0x2a8b8ee0&#45;&gt;Node0x2a8b4ff0</title>
<path fill="none" stroke="black" d="M316,-263.167C316,-253.596 316,-244.158 316,-235.848"/>
<polygon fill="black" stroke="black" points="319.5,-235.658 316,-225.659 312.5,-235.659 319.5,-235.658"/>
</g>
<!-- Node0x201736e0 -->
<g id="node7" class="node"><title>Node0x201736e0</title>
<polygon fill="none" stroke="black" points="125,-97.5 125,-135.5 313,-135.5 313,-97.5 125,-97.5"/>
<text text-anchor="start" x="133" y="-120.3" font-family="Times,serif" font-size="14.00">0xa045340:</text>
<text text-anchor="start" x="133" y="-105.3" font-family="Times,serif" font-size="14.00"> g30 = (g29 &amp; (g33 / 4))</text>
</g>
<!-- Node0x2a8b4ff0&#45;&gt;Node0x201736e0 -->
<g id="edge7" class="edge"><title>Node0x2a8b4ff0&#45;&gt;Node0x201736e0</title>
<path fill="none" stroke="black" d="M295.902,-187.266C281.725,-174.405 262.55,-157.009 246.894,-142.806"/>
<polygon fill="black" stroke="black" points="248.831,-139.837 239.073,-135.71 244.127,-145.022 248.831,-139.837"/>
<text text-anchor="middle" x="283.5" y="-157.8" font-family="Times,serif" font-size="14.00">g9</text>
</g>
<!-- Node0x1578c480 -->
<g id="node8" class="node"><title>Node0x1578c480</title>
<polygon fill="none" stroke="black" points="283,-23.5 283,-59.5 337,-59.5 337,-23.5 283,-23.5"/>
<text text-anchor="start" x="291" y="-37.8" font-family="Times,serif" font-size="14.00">exit:</text>
</g>
<!-- Node0x2a8b4ff0&#45;&gt;Node0x1578c480 -->
<g id="edge8" class="edge"><title>Node0x2a8b4ff0&#45;&gt;Node0x1578c480</title>
<path fill="none" stroke="black" d="M318.803,-187.406C321.729,-165.828 325.448,-128.696 322,-97 321.017,-87.9613 319.142,-78.2257 317.161,-69.5188"/>
<polygon fill="black" stroke="black" points="320.497,-68.4222 314.745,-59.5244 313.693,-70.0668 320.497,-68.4222"/>
<text text-anchor="middle" x="352.5" y="-112.8" font-family="Times,serif" font-size="14.00">not (g9)</text>
</g>
<!-- Node0x201736e0&#45;&gt;Node0x1578c480 -->
<g id="edge9" class="edge"><title>Node0x201736e0&#45;&gt;Node0x1578c480</title>
<path fill="none" stroke="black" d="M241.494,-97.4551C253.324,-87.9651 267.97,-76.2165 280.679,-66.0211"/>
<polygon fill="black" stroke="black" points="283.092,-68.5726 288.702,-59.585 278.712,-63.1123 283.092,-68.5726"/>
</g>
</g>
</svg>
