<?xml version="1.0" encoding="UTF-8" standalone="no"?>
<!DOCTYPE svg PUBLIC "-//W3C//DTD SVG 1.1//EN"
 "http://www.w3.org/Graphics/SVG/1.1/DTD/svg11.dtd">
<!-- Generated by graphviz version 2.38.0 (20140413.2041)
 -->
<!-- Title: Control&#45;flow graph for function &#39;function_113e0()&#39;. Pages: 1 -->
<svg width="1046pt" height="2322pt"
 viewBox="0.00 0.00 1045.50 2322.00" xmlns="http://www.w3.org/2000/svg" xmlns:xlink="http://www.w3.org/1999/xlink">
<g id="graph0" class="graph" transform="scale(1 1) rotate(0) translate(4 2318)">
<title>Control&#45;flow graph for function &#39;function_113e0()&#39;.</title>
<polygon fill="white" stroke="none" points="-4,4 -4,-2318 1041.5,-2318 1041.5,4 -4,4"/>
<text text-anchor="middle" x="518.75" y="-7.8" font-family="Times,serif" font-size="14.00">Control&#45;flow graph for function &#39;function_113e0()&#39;.</text>
<!-- Node0x30d2a080 -->
<g id="node1" class="node"><title>Node0x30d2a080</title>
<polygon fill="none" stroke="black" points="549.5,-2277.5 549.5,-2313.5 608.5,-2313.5 608.5,-2277.5 549.5,-2277.5"/>
<text text-anchor="start" x="557.5" y="-2291.8" font-family="Times,serif" font-size="14.00">entry:</text>
</g>
<!-- Node0x1e9ebbb0 -->
<g id="node2" class="node"><title>Node0x1e9ebbb0</title>
<polygon fill="none" stroke="black" points="419.5,-1991.5 419.5,-2239.5 738.5,-2239.5 738.5,-1991.5 419.5,-1991.5"/>
<text text-anchor="start" x="427.5" y="-2224.3" font-family="Times,serif" font-size="14.00">0x19c1e360:</text>
<text text-anchor="start" x="427.5" y="-2209.3" font-family="Times,serif" font-size="14.00"> v1 = g38</text>
<text text-anchor="start" x="427.5" y="-2194.3" font-family="Times,serif" font-size="14.00"> v2 = g39</text>
<text text-anchor="start" x="427.5" y="-2179.3" font-family="Times,serif" font-size="14.00"> v3 = g40</text>
<text text-anchor="start" x="427.5" y="-2164.3" font-family="Times,serif" font-size="14.00"> v4 = g41</text>
<text text-anchor="start" x="427.5" y="-2149.3" font-family="Times,serif" font-size="14.00"> v5 = g42</text>
<text text-anchor="start" x="427.5" y="-2134.3" font-family="Times,serif" font-size="14.00"> v6 = g32</text>
<text text-anchor="start" x="427.5" y="-2119.3" font-family="Times,serif" font-size="14.00"> v7 = g35</text>
<text text-anchor="start" x="427.5" y="-2104.3" font-family="Times,serif" font-size="14.00"> v8 = g30</text>
<text text-anchor="start" x="427.5" y="-2089.3" font-family="Times,serif" font-size="14.00"> g40 = v8</text>
<text text-anchor="start" x="427.5" y="-2074.3" font-family="Times,serif" font-size="14.00"> v9 = *(IntToPtrCastExpr&lt;ptr&gt;((v8 + 8)))</text>
<text text-anchor="start" x="427.5" y="-2059.3" font-family="Times,serif" font-size="14.00"> v10 = g29</text>
<text text-anchor="start" x="427.5" y="-2044.3" font-family="Times,serif" font-size="14.00"> g39 = v10</text>
<text text-anchor="start" x="427.5" y="-2029.3" font-family="Times,serif" font-size="14.00"> g9 = ((v9 &amp; 2048) == 0)</text>
<text text-anchor="start" x="427.5" y="-2014.3" font-family="Times,serif" font-size="14.00"> g41 = g36</text>
<text text-anchor="start" x="427.5" y="-1999.3" font-family="Times,serif" font-size="14.00"> g42 = g37</text>
</g>
<!-- Node0x30d2a080&#45;&gt;Node0x1e9ebbb0 -->
<g id="edge1" class="edge"><title>Node0x30d2a080&#45;&gt;Node0x1e9ebbb0</title>
<path fill="none" stroke="black" d="M579,-2277.43C579,-2269.97 579,-2260.49 579,-2249.89"/>
<polygon fill="black" stroke="black" points="582.5,-2249.85 579,-2239.85 575.5,-2249.85 582.5,-2249.85"/>
</g>
<!-- Node0x1087a490 -->
<g id="node3" class="node"><title>Node0x1087a490</title>
<polygon fill="none" stroke="black" points="490,-1915.5 490,-1953.5 668,-1953.5 668,-1915.5 490,-1915.5"/>
<text text-anchor="start" x="498" y="-1938.3" font-family="Times,serif" font-size="14.00">0x7c2a400:</text>
<text text-anchor="start" x="498" y="-1923.3" font-family="Times,serif" font-size="14.00"> if ((v9 &amp; 2048) == 0):</text>
</g>
<!-- Node0x1e9ebbb0&#45;&gt;Node0x1087a490 -->
<g id="edge2" class="edge"><title>Node0x1e9ebbb0&#45;&gt;Node0x1087a490</title>
<path fill="none" stroke="black" d="M579,-1991.16C579,-1981.16 579,-1971.83 579,-1963.77"/>
<polygon fill="black" stroke="black" points="582.5,-1963.63 579,-1953.63 575.5,-1963.63 582.5,-1963.63"/>
</g>
<!-- Node0x1087c260 -->
<g id="node4" class="node"><title>Node0x1087c260</title>
<polygon fill="none" stroke="black" points="36,-1240.5 36,-1863.5 674,-1863.5 674,-1240.5 36,-1240.5"/>
<text text-anchor="start" x="44" y="-1848.3" font-family="Times,serif" font-size="14.00">0x681b920:</text>
<text text-anchor="start" x="44" y="-1833.3" font-family="Times,serif" font-size="14.00"> g30 = 1500</text>
<text text-anchor="start" x="44" y="-1818.3" font-family="Times,serif" font-size="14.00"> g29 = *(IntToPtrCastExpr&lt;ptr&gt;(v10))</text>
<text text-anchor="start" x="44" y="-1803.3" font-family="Times,serif" font-size="14.00"> function_f234()</text>
<text text-anchor="start" x="44" y="-1788.3" font-family="Times,serif" font-size="14.00"> v11 = g40</text>
<text text-anchor="start" x="44" y="-1773.3" font-family="Times,serif" font-size="14.00"> v12 = (g29 + 500)</text>
<text text-anchor="start" x="44" y="-1758.3" font-family="Times,serif" font-size="14.00"> g38 = v12</text>
<text text-anchor="start" x="44" y="-1743.3" font-family="Times,serif" font-size="14.00"> g37 = v12</text>
<text text-anchor="start" x="44" y="-1728.3" font-family="Times,serif" font-size="14.00"> g30 = (ExtCastExpr&lt;int32&gt;(*(IntToPtrCastExpr&lt;ptr&gt;((v11 + 2)))) + v11)</text>
<text text-anchor="start" x="44" y="-1713.3" font-family="Times,serif" font-size="14.00"> g29 = (g39 + 696)</text>
<text text-anchor="start" x="44" y="-1698.3" font-family="Times,serif" font-size="14.00"> g36 = 64</text>
<text text-anchor="start" x="44" y="-1683.3" font-family="Times,serif" font-size="14.00"> function_112b8()</text>
<text text-anchor="start" x="44" y="-1668.3" font-family="Times,serif" font-size="14.00"> v13 = g40</text>
<text text-anchor="start" x="44" y="-1653.3" font-family="Times,serif" font-size="14.00"> g37 = g38</text>
<text text-anchor="start" x="44" y="-1638.3" font-family="Times,serif" font-size="14.00"> g29 = (g39 + 1980)</text>
<text text-anchor="start" x="44" y="-1623.3" font-family="Times,serif" font-size="14.00"> g30 = (ExtCastExpr&lt;int32&gt;(*(IntToPtrCastExpr&lt;ptr&gt;((v13 + 1)))) + v13)</text>
<text text-anchor="start" x="44" y="-1608.3" font-family="Times,serif" font-size="14.00"> g36 = 16</text>
<text text-anchor="start" x="44" y="-1593.3" font-family="Times,serif" font-size="14.00"> function_112b8()</text>
<text text-anchor="start" x="44" y="-1578.3" font-family="Times,serif" font-size="14.00"> v14 = g40</text>
<text text-anchor="start" x="44" y="-1563.3" font-family="Times,serif" font-size="14.00"> g37 = g38</text>
<text text-anchor="start" x="44" y="-1548.3" font-family="Times,serif" font-size="14.00"> g30 = (ExtCastExpr&lt;int32&gt;(*(IntToPtrCastExpr&lt;ptr&gt;(v14))) + v14)</text>
<text text-anchor="start" x="44" y="-1533.3" font-family="Times,serif" font-size="14.00"> v15 = g39</text>
<text text-anchor="start" x="44" y="-1518.3" font-family="Times,serif" font-size="14.00"> g29 = (v15 + 2304)</text>
<text text-anchor="start" x="44" y="-1503.3" font-family="Times,serif" font-size="14.00"> g36 = 16</text>
<text text-anchor="start" x="44" y="-1488.3" font-family="Times,serif" font-size="14.00"> g38 = (v15 + 2816)</text>
<text text-anchor="start" x="44" y="-1473.3" font-family="Times,serif" font-size="14.00"> function_112b8()</text>
<text text-anchor="start" x="44" y="-1458.3" font-family="Times,serif" font-size="14.00"> v16 = (g38 + 8)</text>
<text text-anchor="start" x="44" y="-1443.3" font-family="Times,serif" font-size="14.00"> g38 = v16</text>
<text text-anchor="start" x="44" y="-1428.3" font-family="Times,serif" font-size="14.00"> memmove(IntToPtrCastExpr&lt;ptr&gt;((g39 + 2840)), IntToPtrCastExpr&lt;ptr&gt;(v16), 304)</text>
<text text-anchor="start" x="44" y="-1413.3" font-family="Times,serif" font-size="14.00"> v17 = *(IntToPtrCastExpr&lt;ptr&gt;((g39 + 44)))</text>
<text text-anchor="start" x="44" y="-1398.3" font-family="Times,serif" font-size="14.00"> g33 = v17</text>
<text text-anchor="start" x="44" y="-1383.3" font-family="Times,serif" font-size="14.00"> v18 = g40</text>
<text text-anchor="start" x="44" y="-1368.3" font-family="Times,serif" font-size="14.00"> g6 = (v17 &gt; 18)</text>
<text text-anchor="start" x="44" y="-1353.3" font-family="Times,serif" font-size="14.00"> g30 = *(IntToPtrCastExpr&lt;ptr&gt;((v18 + 16)))</text>
<text text-anchor="start" x="44" y="-1338.3" font-family="Times,serif" font-size="14.00"> g36 = *(IntToPtrCastExpr&lt;ptr&gt;((v18 + 20)))</text>
<text text-anchor="start" x="44" y="-1323.3" font-family="Times,serif" font-size="14.00"> g37 = *(IntToPtrCastExpr&lt;ptr&gt;((v18 + 24)))</text>
<text text-anchor="start" x="44" y="-1308.3" font-family="Times,serif" font-size="14.00"> v19 = g38</text>
<text text-anchor="start" x="44" y="-1293.3" font-family="Times,serif" font-size="14.00"> *(IntToPtrCastExpr&lt;ptr&gt;(v19)) = *(IntToPtrCastExpr&lt;ptr&gt;((v18 + 12)))</text>
<text text-anchor="start" x="44" y="-1278.3" font-family="Times,serif" font-size="14.00"> *(IntToPtrCastExpr&lt;ptr&gt;((v19 + 4))) = g30</text>
<text text-anchor="start" x="44" y="-1263.3" font-family="Times,serif" font-size="14.00"> *(IntToPtrCastExpr&lt;ptr&gt;((v19 + 8))) = g36</text>
<text text-anchor="start" x="44" y="-1248.3" font-family="Times,serif" font-size="14.00"> *(IntToPtrCastExpr&lt;ptr&gt;((v19 + 12))) = g37</text>
</g>
<!-- Node0x1087a490&#45;&gt;Node0x1087c260 -->
<g id="edge3" class="edge"><title>Node0x1087a490&#45;&gt;Node0x1087c260</title>
<path fill="none" stroke="black" d="M568.347,-1915.4C562.108,-1904.81 553.427,-1890.06 543.111,-1872.54"/>
<polygon fill="black" stroke="black" points="546.009,-1870.56 537.919,-1863.72 539.976,-1874.11 546.009,-1870.56"/>
<text text-anchor="middle" x="619" y="-1885.8" font-family="Times,serif" font-size="14.00">(v9 &amp; 2048) == 0</text>
</g>
<!-- Node0x1087ac90 -->
<g id="node5" class="node"><title>Node0x1087ac90</title>
<polygon fill="none" stroke="black" points="154.5,-683.5 154.5,-1036.5 1037.5,-1036.5 1037.5,-683.5 154.5,-683.5"/>
<text text-anchor="start" x="162.5" y="-1021.3" font-family="Times,serif" font-size="14.00">0x7c2a640:</text>
<text text-anchor="start" x="162.5" y="-1006.3" font-family="Times,serif" font-size="14.00"> g37 = 0</text>
<text text-anchor="start" x="162.5" y="-991.3" font-family="Times,serif" font-size="14.00"> *(IntToPtrCastExpr&lt;ptr&gt;((g39 + 56))) = 0</text>
<text text-anchor="start" x="162.5" y="-976.3" font-family="Times,serif" font-size="14.00"> *(IntToPtrCastExpr&lt;ptr&gt;((g39 + 21))) = TruncCastExpr&lt;int8&gt;((g37 + 1))</text>
<text text-anchor="start" x="162.5" y="-961.3" font-family="Times,serif" font-size="14.00"> memcpy(IntToPtrCastExpr&lt;ptr&gt;((g39 + 136)), IntToPtrCastExpr&lt;ptr&gt;(g40), PtrToIntCastExpr&lt;int32&gt;(&quot;[P6\&quot;K^H$&quot;))</text>
<text text-anchor="start" x="162.5" y="-946.3" font-family="Times,serif" font-size="14.00"> g29 = g40</text>
<text text-anchor="start" x="162.5" y="-931.3" font-family="Times,serif" font-size="14.00"> g38 = *(IntToPtrCastExpr&lt;ptr&gt;((g39 + 8)))</text>
<text text-anchor="start" x="162.5" y="-916.3" font-family="Times,serif" font-size="14.00"> function_f50c()</text>
<text text-anchor="start" x="162.5" y="-901.3" font-family="Times,serif" font-size="14.00"> v20 = g39</text>
<text text-anchor="start" x="162.5" y="-886.3" font-family="Times,serif" font-size="14.00"> g35 = ExtCastExpr&lt;int32&gt;(*(IntToPtrCastExpr&lt;ptr&gt;((v20 + 24))))</text>
<text text-anchor="start" x="162.5" y="-871.3" font-family="Times,serif" font-size="14.00"> g37 = (125 * g29)</text>
<text text-anchor="start" x="162.5" y="-856.3" font-family="Times,serif" font-size="14.00"> g33 = (v20 + 72)</text>
<text text-anchor="start" x="162.5" y="-841.3" font-family="Times,serif" font-size="14.00"> g29 = g38</text>
<text text-anchor="start" x="162.5" y="-826.3" font-family="Times,serif" font-size="14.00"> v21 = g40</text>
<text text-anchor="start" x="162.5" y="-811.3" font-family="Times,serif" font-size="14.00"> g36 = (v21 + 12)</text>
<text text-anchor="start" x="162.5" y="-796.3" font-family="Times,serif" font-size="14.00"> g30 = (v21 + 80)</text>
<text text-anchor="start" x="162.5" y="-781.3" font-family="Times,serif" font-size="14.00"> function_7654()</text>
<text text-anchor="start" x="162.5" y="-766.3" font-family="Times,serif" font-size="14.00"> v22 = g39</text>
<text text-anchor="start" x="162.5" y="-751.3" font-family="Times,serif" font-size="14.00"> v23 = *(IntToPtrCastExpr&lt;ptr&gt;((*(IntToPtrCastExpr&lt;ptr&gt;((v22 + 8))) + 280)))</text>
<text text-anchor="start" x="162.5" y="-736.3" font-family="Times,serif" font-size="14.00"> g37 = v23</text>
<text text-anchor="start" x="162.5" y="-721.3" font-family="Times,serif" font-size="14.00"> g6 = True</text>
<text text-anchor="start" x="162.5" y="-706.3" font-family="Times,serif" font-size="14.00"> g9 = (v23 == 0)</text>
<text text-anchor="start" x="162.5" y="-691.3" font-family="Times,serif" font-size="14.00"> v24</text>
</g>
<!-- Node0x1087a490&#45;&gt;Node0x1087ac90 -->
<g id="edge4" class="edge"><title>Node0x1087a490&#45;&gt;Node0x1087ac90</title>
<path fill="none" stroke="black" d="M665.733,-1915.41C673.932,-1910.63 681.294,-1904.6 687,-1897 778.91,-1774.64 702,-1706.03 702,-1553 702,-1553 702,-1553 702,-1092.5 702,-1077.18 700.057,-1061.76 696.698,-1046.56"/>
<polygon fill="black" stroke="black" points="700.042,-1045.5 694.291,-1036.6 693.238,-1047.15 700.042,-1045.5"/>
<text text-anchor="middle" x="763" y="-1179.8" font-family="Times,serif" font-size="14.00">(v9 &amp; 2048) != 0</text>
</g>
<!-- Node0x1087ed60 -->
<g id="node6" class="node"><title>Node0x1087ed60</title>
<polygon fill="none" stroke="black" points="297,-1164.5 297,-1202.5 413,-1202.5 413,-1164.5 297,-1164.5"/>
<text text-anchor="start" x="305" y="-1187.3" font-family="Times,serif" font-size="14.00">0x7c2a260:</text>
<text text-anchor="start" x="305" y="-1172.3" font-family="Times,serif" font-size="14.00"> if (v17 &lt; 20):</text>
</g>
<!-- Node0x1087c260&#45;&gt;Node0x1087ed60 -->
<g id="edge5" class="edge"><title>Node0x1087c260&#45;&gt;Node0x1087ed60</title>
<path fill="none" stroke="black" d="M355,-1240.16C355,-1229.86 355,-1220.62 355,-1212.77"/>
<polygon fill="black" stroke="black" points="358.5,-1212.63 355,-1202.63 351.5,-1212.63 358.5,-1212.63"/>
</g>
<!-- Node0x1e9eca30 -->
<g id="node7" class="node"><title>Node0x1e9eca30</title>
<polygon fill="none" stroke="black" points="536.5,-607.5 536.5,-645.5 655.5,-645.5 655.5,-607.5 536.5,-607.5"/>
<text text-anchor="start" x="544.5" y="-630.3" font-family="Times,serif" font-size="14.00">0x7c33270:</text>
<text text-anchor="start" x="544.5" y="-615.3" font-family="Times,serif" font-size="14.00"> if (v23 == 0):</text>
</g>
<!-- Node0x1087ac90&#45;&gt;Node0x1e9eca30 -->
<g id="edge6" class="edge"><title>Node0x1087ac90&#45;&gt;Node0x1e9eca30</title>
<path fill="none" stroke="black" d="M596,-683.245C596,-673.06 596,-663.733 596,-655.742"/>
<polygon fill="black" stroke="black" points="599.5,-655.718 596,-645.718 592.5,-655.718 599.5,-655.718"/>
</g>
<!-- Node0x1087ed60&#45;&gt;Node0x1087ac90 -->
<g id="edge8" class="edge"><title>Node0x1087ed60&#45;&gt;Node0x1087ac90</title>
<path fill="none" stroke="black" d="M413.246,-1180.29C462.706,-1175.06 531.461,-1159.25 569,-1113 584.597,-1093.78 594.643,-1070.84 600.825,-1046.75"/>
<polygon fill="black" stroke="black" points="604.298,-1047.26 603.164,-1036.73 597.482,-1045.67 604.298,-1047.26"/>
<text text-anchor="middle" x="630" y="-1089.8" font-family="Times,serif" font-size="14.00">v17 &gt;= 20</text>
</g>
<!-- Node0x1087fd60 -->
<g id="node8" class="node"><title>Node0x1087fd60</title>
<polygon fill="none" stroke="black" points="0,-1074.5 0,-1112.5 560,-1112.5 560,-1074.5 0,-1074.5"/>
<text text-anchor="start" x="8" y="-1097.3" font-family="Times,serif" font-size="14.00">0x7c29d00:</text>
<text text-anchor="start" x="8" y="-1082.3" font-family="Times,serif" font-size="14.00"> *(IntToPtrCastExpr&lt;ptr&gt;((g39 + 44))) = TruncCastExpr&lt;int8&gt;((g33 + 1))</text>
</g>
<!-- Node0x1087ed60&#45;&gt;Node0x1087fd60 -->
<g id="edge7" class="edge"><title>Node0x1087ed60&#45;&gt;Node0x1087fd60</title>
<path fill="none" stroke="black" d="M339.46,-1164.27C328.7,-1151.64 314.215,-1134.65 302.237,-1120.59"/>
<polygon fill="black" stroke="black" points="304.671,-1118.05 295.52,-1112.71 299.343,-1122.59 304.671,-1118.05"/>
<text text-anchor="middle" x="355" y="-1134.8" font-family="Times,serif" font-size="14.00">v17 &lt; 20</text>
</g>
<!-- Node0x1087f260 -->
<g id="node9" class="node"><title>Node0x1087f260</title>
<polygon fill="none" stroke="black" points="273,-457.5 273,-555.5 619,-555.5 619,-457.5 273,-457.5"/>
<text text-anchor="start" x="281" y="-540.3" font-family="Times,serif" font-size="14.00">0x271ec300:</text>
<text text-anchor="start" x="281" y="-525.3" font-family="Times,serif" font-size="14.00"> v25 = *(IntToPtrCastExpr&lt;ptr&gt;((v22 + 25)))</text>
<text text-anchor="start" x="281" y="-510.3" font-family="Times,serif" font-size="14.00"> v26 = v25</text>
<text text-anchor="start" x="281" y="-495.3" font-family="Times,serif" font-size="14.00"> g36 = v26</text>
<text text-anchor="start" x="281" y="-480.3" font-family="Times,serif" font-size="14.00"> g6 = True</text>
<text text-anchor="start" x="281" y="-465.3" font-family="Times,serif" font-size="14.00"> g9 = (v25 == 0)</text>
</g>
<!-- Node0x1e9eca30&#45;&gt;Node0x1087f260 -->
<g id="edge9" class="edge"><title>Node0x1e9eca30&#45;&gt;Node0x1087f260</title>
<path fill="none" stroke="black" d="M572.891,-607.321C557.297,-595.054 535.832,-578.168 514.99,-561.772"/>
<polygon fill="black" stroke="black" points="517.07,-558.955 507.046,-555.523 512.742,-564.457 517.07,-558.955"/>
<text text-anchor="middle" x="581.5" y="-577.8" font-family="Times,serif" font-size="14.00">v23 == 0</text>
</g>
<!-- Node0x1e9ed5d0 -->
<g id="node10" class="node"><title>Node0x1e9ed5d0</title>
<polygon fill="none" stroke="black" points="530.5,-135 530.5,-278 763.5,-278 763.5,-135 530.5,-135"/>
<text text-anchor="start" x="538.5" y="-262.8" font-family="Times,serif" font-size="14.00">0x7c33490:</text>
<text text-anchor="start" x="538.5" y="-247.8" font-family="Times,serif" font-size="14.00"> g38 = v1</text>
<text text-anchor="start" x="538.5" y="-232.8" font-family="Times,serif" font-size="14.00"> g39 = v2</text>
<text text-anchor="start" x="538.5" y="-217.8" font-family="Times,serif" font-size="14.00"> g40 = v3</text>
<text text-anchor="start" x="538.5" y="-202.8" font-family="Times,serif" font-size="14.00"> g41 = v4</text>
<text text-anchor="start" x="538.5" y="-187.8" font-family="Times,serif" font-size="14.00"> g42 = v5</text>
<text text-anchor="start" x="538.5" y="-172.8" font-family="Times,serif" font-size="14.00"> g32 = v6</text>
<text text-anchor="start" x="538.5" y="-157.8" font-family="Times,serif" font-size="14.00"> g34 = v24</text>
<text text-anchor="start" x="538.5" y="-142.8" font-family="Times,serif" font-size="14.00"> IntToPtrCastExpr&lt;ptr&gt;(v7)()</text>
</g>
<!-- Node0x1e9eca30&#45;&gt;Node0x1e9ed5d0 -->
<g id="edge10" class="edge"><title>Node0x1e9eca30&#45;&gt;Node0x1e9ed5d0</title>
<path fill="none" stroke="black" d="M609.757,-607.259C613.507,-601.63 617.281,-595.261 620,-589 626.012,-575.158 625.802,-570.931 628,-556 641.394,-465.009 645.584,-359.404 646.776,-288.502"/>
<polygon fill="black" stroke="black" points="650.279,-288.351 646.931,-278.299 643.28,-288.245 650.279,-288.351"/>
<text text-anchor="middle" x="672.5" y="-427.8" font-family="Times,serif" font-size="14.00">v23 != 0</text>
</g>
<!-- Node0x1087fd60&#45;&gt;Node0x1087ac90 -->
<g id="edge11" class="edge"><title>Node0x1087fd60&#45;&gt;Node0x1087ac90</title>
<path fill="none" stroke="black" d="M304.796,-1074.33C316.237,-1065.95 331.032,-1055.11 347.881,-1042.77"/>
<polygon fill="black" stroke="black" points="350.314,-1045.33 356.312,-1036.59 346.177,-1039.68 350.314,-1045.33"/>
</g>
<!-- Node0x1087fa60 -->
<g id="node11" class="node"><title>Node0x1087fa60</title>
<polygon fill="none" stroke="black" points="386.5,-367.5 386.5,-405.5 505.5,-405.5 505.5,-367.5 386.5,-367.5"/>
<text text-anchor="start" x="394.5" y="-390.3" font-family="Times,serif" font-size="14.00">0x7c330a0:</text>
<text text-anchor="start" x="394.5" y="-375.3" font-family="Times,serif" font-size="14.00"> if (v25 == 0):</text>
</g>
<!-- Node0x1087f260&#45;&gt;Node0x1087fa60 -->
<g id="edge12" class="edge"><title>Node0x1087f260&#45;&gt;Node0x1087fa60</title>
<path fill="none" stroke="black" d="M446,-457.164C446,-443.085 446,-428.168 446,-415.766"/>
<polygon fill="black" stroke="black" points="449.5,-415.597 446,-405.597 442.5,-415.597 449.5,-415.597"/>
</g>
<!-- Node0x1e9eb140 -->
<g id="node12" class="node"><title>Node0x1e9eb140</title>
<polygon fill="none" stroke="black" points="510,-23.5 510,-59.5 564,-59.5 564,-23.5 510,-23.5"/>
<text text-anchor="start" x="518" y="-37.8" font-family="Times,serif" font-size="14.00">exit:</text>
</g>
<!-- Node0x1e9ed5d0&#45;&gt;Node0x1e9eb140 -->
<g id="edge13" class="edge"><title>Node0x1e9ed5d0&#45;&gt;Node0x1e9eb140</title>
<path fill="none" stroke="black" d="M599.392,-134.954C583.471,-111.361 566.708,-86.5216 554.571,-68.5372"/>
<polygon fill="black" stroke="black" points="557.17,-66.1316 548.675,-59.8004 551.368,-70.0473 557.17,-66.1316"/>
</g>
<!-- Node0x1087fa60&#45;&gt;Node0x1e9ed5d0 -->
<g id="edge15" class="edge"><title>Node0x1087fa60&#45;&gt;Node0x1e9ed5d0</title>
<path fill="none" stroke="black" d="M469.094,-367.173C476.189,-361.435 483.976,-355.026 491,-349 514.789,-328.59 540.138,-305.983 563.335,-284.939"/>
<polygon fill="black" stroke="black" points="565.741,-287.482 570.786,-278.166 561.032,-282.302 565.741,-287.482"/>
<text text-anchor="middle" x="539.5" y="-337.8" font-family="Times,serif" font-size="14.00">v25 != 0</text>
</g>
<!-- Node0x1e9ec930 -->
<g id="node13" class="node"><title>Node0x1e9ec930</title>
<polygon fill="none" stroke="black" points="215.5,-97.5 215.5,-315.5 512.5,-315.5 512.5,-97.5 215.5,-97.5"/>
<text text-anchor="start" x="223.5" y="-300.3" font-family="Times,serif" font-size="14.00">0x7c31f20:</text>
<text text-anchor="start" x="223.5" y="-285.3" font-family="Times,serif" font-size="14.00"> g29 = *(IntToPtrCastExpr&lt;ptr&gt;(v22))</text>
<text text-anchor="start" x="223.5" y="-270.3" font-family="Times,serif" font-size="14.00"> g30 = 7</text>
<text text-anchor="start" x="223.5" y="-255.3" font-family="Times,serif" font-size="14.00"> g37 = v26</text>
<text text-anchor="start" x="223.5" y="-240.3" font-family="Times,serif" font-size="14.00"> g38 = v1</text>
<text text-anchor="start" x="223.5" y="-225.3" font-family="Times,serif" font-size="14.00"> g39 = v2</text>
<text text-anchor="start" x="223.5" y="-210.3" font-family="Times,serif" font-size="14.00"> g40 = v3</text>
<text text-anchor="start" x="223.5" y="-195.3" font-family="Times,serif" font-size="14.00"> g41 = v4</text>
<text text-anchor="start" x="223.5" y="-180.3" font-family="Times,serif" font-size="14.00"> g42 = v5</text>
<text text-anchor="start" x="223.5" y="-165.3" font-family="Times,serif" font-size="14.00"> g32 = v6</text>
<text text-anchor="start" x="223.5" y="-150.3" font-family="Times,serif" font-size="14.00"> g34 = v24</text>
<text text-anchor="start" x="223.5" y="-135.3" font-family="Times,serif" font-size="14.00"> g35 = v7</text>
<text text-anchor="start" x="223.5" y="-120.3" font-family="Times,serif" font-size="14.00"> function_10418()</text>
<text text-anchor="start" x="223.5" y="-105.3" font-family="Times,serif" font-size="14.00"> return</text>
</g>
<!-- Node0x1087fa60&#45;&gt;Node0x1e9ec930 -->
<g id="edge14" class="edge"><title>Node0x1087fa60&#45;&gt;Node0x1e9ec930</title>
<path fill="none" stroke="black" d="M433.078,-367.352C429.27,-361.621 425.255,-355.172 422,-349 417.862,-341.153 413.815,-332.944 409.908,-324.601"/>
<polygon fill="black" stroke="black" points="413.083,-323.128 405.724,-315.506 406.723,-326.054 413.083,-323.128"/>
<text text-anchor="middle" x="456.5" y="-337.8" font-family="Times,serif" font-size="14.00">v25 == 0</text>
</g>
<!-- Node0x1e9ec930&#45;&gt;Node0x1e9eb140 -->
<g id="edge16" class="edge"><title>Node0x1e9ec930&#45;&gt;Node0x1e9eb140</title>
<path fill="none" stroke="black" d="M478.912,-97.2301C491.004,-85.8373 502.262,-75.2296 511.587,-66.4443"/>
<polygon fill="black" stroke="black" points="514.062,-68.9211 518.94,-59.516 509.262,-63.8262 514.062,-68.9211"/>
</g>
</g>
</svg>
