<?xml version="1.0" encoding="UTF-8" standalone="no"?>
<!DOCTYPE svg PUBLIC "-//W3C//DTD SVG 1.1//EN"
 "http://www.w3.org/Graphics/SVG/1.1/DTD/svg11.dtd">
<!-- Generated by graphviz version 2.38.0 (20140413.2041)
 -->
<!-- Title: Control&#45;flow graph for function &#39;function_20a58()&#39;. Pages: 1 -->
<svg width="579pt" height="895pt"
 viewBox="0.00 0.00 579.00 895.00" xmlns="http://www.w3.org/2000/svg" xmlns:xlink="http://www.w3.org/1999/xlink">
<g id="graph0" class="graph" transform="scale(1 1) rotate(0) translate(4 891)">
<title>Control&#45;flow graph for function &#39;function_20a58()&#39;.</title>
<polygon fill="white" stroke="none" points="-4,4 -4,-891 575,-891 575,4 -4,4"/>
<text text-anchor="middle" x="285.5" y="-7.8" font-family="Times,serif" font-size="14.00">Control&#45;flow graph for function &#39;function_20a58()&#39;.</text>
<!-- Node0x1e6fc010 -->
<g id="node1" class="node"><title>Node0x1e6fc010</title>
<polygon fill="none" stroke="black" points="242.5,-850.5 242.5,-886.5 301.5,-886.5 301.5,-850.5 242.5,-850.5"/>
<text text-anchor="start" x="250.5" y="-864.8" font-family="Times,serif" font-size="14.00">entry:</text>
</g>
<!-- Node0x3e8d6480 -->
<g id="node2" class="node"><title>Node0x3e8d6480</title>
<polygon fill="none" stroke="black" points="163,-579.5 163,-812.5 381,-812.5 381,-579.5 163,-579.5"/>
<text text-anchor="start" x="171" y="-797.3" font-family="Times,serif" font-size="14.00">0x3e642e80:</text>
<text text-anchor="start" x="171" y="-782.3" font-family="Times,serif" font-size="14.00"> v1 = g38</text>
<text text-anchor="start" x="171" y="-767.3" font-family="Times,serif" font-size="14.00"> v2 = g39</text>
<text text-anchor="start" x="171" y="-752.3" font-family="Times,serif" font-size="14.00"> v3 = g40</text>
<text text-anchor="start" x="171" y="-737.3" font-family="Times,serif" font-size="14.00"> v4 = g29</text>
<text text-anchor="start" x="171" y="-722.3" font-family="Times,serif" font-size="14.00"> g6 = (v4 &gt; 126)</text>
<text text-anchor="start" x="171" y="-707.3" font-family="Times,serif" font-size="14.00"> g8 = (((126 &#45; v4) &amp; v4) &lt; 0)</text>
<text text-anchor="start" x="171" y="-692.3" font-family="Times,serif" font-size="14.00"> g7 = (v4 &lt; 127)</text>
<text text-anchor="start" x="171" y="-677.3" font-family="Times,serif" font-size="14.00"> g9 = (v4 == 127)</text>
<text text-anchor="start" x="171" y="-662.3" font-family="Times,serif" font-size="14.00"> g38 = v4</text>
<text text-anchor="start" x="171" y="-647.3" font-family="Times,serif" font-size="14.00"> v5 = g30</text>
<text text-anchor="start" x="171" y="-632.3" font-family="Times,serif" font-size="14.00"> g39 = v5</text>
<text text-anchor="start" x="171" y="-617.3" font-family="Times,serif" font-size="14.00"> g40 = g36</text>
<text text-anchor="start" x="171" y="-602.3" font-family="Times,serif" font-size="14.00"> v6</text>
<text text-anchor="start" x="171" y="-587.3" font-family="Times,serif" font-size="14.00"> v7</text>
</g>
<!-- Node0x1e6fc010&#45;&gt;Node0x3e8d6480 -->
<g id="edge1" class="edge"><title>Node0x1e6fc010&#45;&gt;Node0x3e8d6480</title>
<path fill="none" stroke="black" d="M272,-850.213C272,-842.694 272,-833.174 272,-822.573"/>
<polygon fill="black" stroke="black" points="275.5,-822.559 272,-812.559 268.5,-822.559 275.5,-822.559"/>
</g>
<!-- Node0x244c1230 -->
<g id="node3" class="node"><title>Node0x244c1230</title>
<polygon fill="none" stroke="black" points="150.5,-488.5 150.5,-541.5 393.5,-541.5 393.5,-488.5 150.5,-488.5"/>
<text text-anchor="start" x="158.5" y="-526.3" font-family="Times,serif" font-size="14.00">0x9f89490:</text>
<text text-anchor="start" x="158.5" y="-511.3" font-family="Times,serif" font-size="14.00"> if ((v4 &gt; 126) and (v4 != 127)):</text>
<text text-anchor="start" x="158.5" y="-496.3" font-family="Times,serif" font-size="14.00"> else:</text>
</g>
<!-- Node0x3e8d6480&#45;&gt;Node0x244c1230 -->
<g id="edge2" class="edge"><title>Node0x3e8d6480&#45;&gt;Node0x244c1230</title>
<path fill="none" stroke="black" d="M272,-579.361C272,-569.499 272,-560.101 272,-551.707"/>
<polygon fill="black" stroke="black" points="275.5,-551.652 272,-541.652 268.5,-551.652 275.5,-551.652"/>
</g>
<!-- Node0x3e8de840 -->
<g id="node4" class="node"><title>Node0x3e8de840</title>
<polygon fill="none" stroke="black" points="0,-278.5 0,-436.5 308,-436.5 308,-278.5 0,-278.5"/>
<text text-anchor="start" x="8" y="-421.3" font-family="Times,serif" font-size="14.00">0x9f86ee0:</text>
<text text-anchor="start" x="8" y="-406.3" font-family="Times,serif" font-size="14.00"> function_20a44()</text>
<text text-anchor="start" x="8" y="-391.3" font-family="Times,serif" font-size="14.00"> v8 = g29</text>
<text text-anchor="start" x="8" y="-376.3" font-family="Times,serif" font-size="14.00"> v9 = ((v8 + 251) % 256)</text>
<text text-anchor="start" x="8" y="-361.3" font-family="Times,serif" font-size="14.00"> v10 = (g38 &gt;&gt; (32 if (v9 &gt; 32) else v9))</text>
<text text-anchor="start" x="8" y="-346.3" font-family="Times,serif" font-size="14.00"> g37 = v10</text>
<text text-anchor="start" x="8" y="-331.3" font-family="Times,serif" font-size="14.00"> v6 = (v8 &#45; 6)</text>
<text text-anchor="start" x="8" y="-316.3" font-family="Times,serif" font-size="14.00"> g36 = v6</text>
<text text-anchor="start" x="8" y="-301.3" font-family="Times,serif" font-size="14.00"> g29 = (v10 ^ 32)</text>
<text text-anchor="start" x="8" y="-286.3" font-family="Times,serif" font-size="14.00"> v7 = g39</text>
</g>
<!-- Node0x244c1230&#45;&gt;Node0x3e8de840 -->
<g id="edge3" class="edge"><title>Node0x244c1230&#45;&gt;Node0x3e8de840</title>
<path fill="none" stroke="black" d="M190.064,-488.3C182.431,-483.238 175.507,-477.199 170,-470 164.604,-462.947 160.619,-454.888 157.715,-446.401"/>
<polygon fill="black" stroke="black" points="161.036,-445.289 154.876,-436.669 154.316,-447.249 161.036,-445.289"/>
<text text-anchor="middle" x="266.5" y="-458.8" font-family="Times,serif" font-size="14.00">(v4 &gt; 126) and (v4 != 127)</text>
</g>
<!-- Node0x3e8dacd0 -->
<g id="node5" class="node"><title>Node0x3e8dacd0</title>
<polygon fill="none" stroke="black" points="326,-293.5 326,-421.5 456,-421.5 456,-293.5 326,-293.5"/>
<text text-anchor="start" x="334" y="-406.3" font-family="Times,serif" font-size="14.00">0x9f896c0:</text>
<text text-anchor="start" x="334" y="-391.3" font-family="Times,serif" font-size="14.00"> g6 = True</text>
<text text-anchor="start" x="334" y="-376.3" font-family="Times,serif" font-size="14.00"> g8 = False</text>
<text text-anchor="start" x="334" y="-361.3" font-family="Times,serif" font-size="14.00"> g9 = (v4 == 0)</text>
<text text-anchor="start" x="334" y="-346.3" font-family="Times,serif" font-size="14.00"> g29 = (v4 / 4)</text>
<text text-anchor="start" x="334" y="-331.3" font-family="Times,serif" font-size="14.00"> g36 = 0</text>
<text text-anchor="start" x="334" y="-316.3" font-family="Times,serif" font-size="14.00"> v6 = 0</text>
<text text-anchor="start" x="334" y="-301.3" font-family="Times,serif" font-size="14.00"> v7 = v5</text>
</g>
<!-- Node0x244c1230&#45;&gt;Node0x3e8dacd0 -->
<g id="edge4" class="edge"><title>Node0x244c1230&#45;&gt;Node0x3e8dacd0</title>
<path fill="none" stroke="black" d="M341.838,-488.484C349.788,-483.325 357.128,-477.213 363,-470 371.973,-458.977 378.121,-445.458 382.32,-431.685"/>
<polygon fill="black" stroke="black" points="385.804,-432.211 385.047,-421.644 379.049,-430.377 385.804,-432.211"/>
<text text-anchor="middle" x="471" y="-458.8" font-family="Times,serif" font-size="14.00">(v4 &lt;= 126) or (v4 == 127)</text>
</g>
<!-- Node0x3eb110c0 -->
<g id="node6" class="node"><title>Node0x3eb110c0</title>
<polygon fill="none" stroke="black" points="150,-97.5 150,-240.5 448,-240.5 448,-97.5 150,-97.5"/>
<text text-anchor="start" x="158" y="-225.3" font-family="Times,serif" font-size="14.00">0x9f8a840:</text>
<text text-anchor="start" x="158" y="-210.3" font-family="Times,serif" font-size="14.00"> *(IntToPtrCastExpr&lt;ptr&gt;(v7)) = v6</text>
<text text-anchor="start" x="158" y="-195.3" font-family="Times,serif" font-size="14.00"> *(IntToPtrCastExpr&lt;ptr&gt;(g40)) = g29</text>
<text text-anchor="start" x="158" y="-180.3" font-family="Times,serif" font-size="14.00"> g38 = v1</text>
<text text-anchor="start" x="158" y="-165.3" font-family="Times,serif" font-size="14.00"> g39 = v2</text>
<text text-anchor="start" x="158" y="-150.3" font-family="Times,serif" font-size="14.00"> g40 = v3</text>
<text text-anchor="start" x="158" y="-135.3" font-family="Times,serif" font-size="14.00"> v11</text>
<text text-anchor="start" x="158" y="-120.3" font-family="Times,serif" font-size="14.00"> g34 = v11</text>
<text text-anchor="start" x="158" y="-105.3" font-family="Times,serif" font-size="14.00"> IntToPtrCastExpr&lt;ptr&gt;(g35)()</text>
</g>
<!-- Node0x3e8de840&#45;&gt;Node0x3eb110c0 -->
<g id="edge5" class="edge"><title>Node0x3e8de840&#45;&gt;Node0x3eb110c0</title>
<path fill="none" stroke="black" d="M214.653,-278.488C222.369,-268.564 230.268,-258.403 237.989,-248.472"/>
<polygon fill="black" stroke="black" points="240.762,-250.609 244.137,-240.566 235.235,-246.312 240.762,-250.609"/>
</g>
<!-- Node0x3e8dacd0&#45;&gt;Node0x3eb110c0 -->
<g id="edge6" class="edge"><title>Node0x3e8dacd0&#45;&gt;Node0x3eb110c0</title>
<path fill="none" stroke="black" d="M359.853,-293.36C352.946,-279.358 345.538,-264.341 338.352,-249.773"/>
<polygon fill="black" stroke="black" points="341.475,-248.193 333.912,-240.774 335.198,-251.29 341.475,-248.193"/>
</g>
<!-- Node0x244c5db0 -->
<g id="node7" class="node"><title>Node0x244c5db0</title>
<polygon fill="none" stroke="black" points="272,-23.5 272,-59.5 326,-59.5 326,-23.5 272,-23.5"/>
<text text-anchor="start" x="280" y="-37.8" font-family="Times,serif" font-size="14.00">exit:</text>
</g>
<!-- Node0x3eb110c0&#45;&gt;Node0x244c5db0 -->
<g id="edge7" class="edge"><title>Node0x3eb110c0&#45;&gt;Node0x244c5db0</title>
<path fill="none" stroke="black" d="M299,-97.181C299,-87.439 299,-77.9608 299,-69.7068"/>
<polygon fill="black" stroke="black" points="302.5,-69.642 299,-59.642 295.5,-69.6421 302.5,-69.642"/>
</g>
</g>
</svg>
