<?xml version="1.0" encoding="UTF-8" standalone="no"?>
<!DOCTYPE svg PUBLIC "-//W3C//DTD SVG 1.1//EN"
 "http://www.w3.org/Graphics/SVG/1.1/DTD/svg11.dtd">
<!-- Generated by graphviz version 2.38.0 (20140413.2041)
 -->
<!-- Title: Control&#45;flow graph for function &#39;function_16f2c()&#39;. Pages: 1 -->
<svg width="1098pt" height="1046pt"
 viewBox="0.00 0.00 1097.50 1046.00" xmlns="http://www.w3.org/2000/svg" xmlns:xlink="http://www.w3.org/1999/xlink">
<g id="graph0" class="graph" transform="scale(1 1) rotate(0) translate(4 1042)">
<title>Control&#45;flow graph for function &#39;function_16f2c()&#39;.</title>
<polygon fill="white" stroke="none" points="-4,4 -4,-1042 1093.5,-1042 1093.5,4 -4,4"/>
<text text-anchor="middle" x="544.75" y="-7.8" font-family="Times,serif" font-size="14.00">Control&#45;flow graph for function &#39;function_16f2c()&#39;.</text>
<!-- Node0x20907d60 -->
<g id="node1" class="node"><title>Node0x20907d60</title>
<polygon fill="none" stroke="black" points="262,-1001.5 262,-1037.5 321,-1037.5 321,-1001.5 262,-1001.5"/>
<text text-anchor="start" x="270" y="-1015.8" font-family="Times,serif" font-size="14.00">entry:</text>
</g>
<!-- Node0x2adc2120 -->
<g id="node2" class="node"><title>Node0x2adc2120</title>
<polygon fill="none" stroke="black" points="226,-835.5 226,-963.5 357,-963.5 357,-835.5 226,-835.5"/>
<text text-anchor="start" x="234" y="-948.3" font-family="Times,serif" font-size="14.00">0x1054d8d0:</text>
<text text-anchor="start" x="234" y="-933.3" font-family="Times,serif" font-size="14.00"> v1 = g38</text>
<text text-anchor="start" x="234" y="-918.3" font-family="Times,serif" font-size="14.00"> v2 = g40</text>
<text text-anchor="start" x="234" y="-903.3" font-family="Times,serif" font-size="14.00"> g38 = 165012</text>
<text text-anchor="start" x="234" y="-888.3" font-family="Times,serif" font-size="14.00"> g29 = g18</text>
<text text-anchor="start" x="234" y="-873.3" font-family="Times,serif" font-size="14.00"> g40 = 170760</text>
<text text-anchor="start" x="234" y="-858.3" font-family="Times,serif" font-size="14.00"> function_fb24()</text>
<text text-anchor="start" x="234" y="-843.3" font-family="Times,serif" font-size="14.00"> v3 = g38</text>
</g>
<!-- Node0x20907d60&#45;&gt;Node0x2adc2120 -->
<g id="edge1" class="edge"><title>Node0x20907d60&#45;&gt;Node0x2adc2120</title>
<path fill="none" stroke="black" d="M291.5,-1001.34C291.5,-993.719 291.5,-984.177 291.5,-974.023"/>
<polygon fill="black" stroke="black" points="295,-973.713 291.5,-963.713 288,-973.713 295,-973.713"/>
</g>
<!-- Node0x26514250 -->
<g id="node3" class="node"><title>Node0x26514250</title>
<polygon fill="none" stroke="black" points="8.5,-759.5 8.5,-797.5 574.5,-797.5 574.5,-759.5 8.5,-759.5"/>
<text text-anchor="start" x="16.5" y="-782.3" font-family="Times,serif" font-size="14.00">0x865be40:</text>
<text text-anchor="start" x="16.5" y="-767.3" font-family="Times,serif" font-size="14.00"> if (*(IntToPtrCastExpr&lt;ptr&gt;(*(IntToPtrCastExpr&lt;ptr&gt;((v3 + 200))))) != 0):</text>
</g>
<!-- Node0x2adc2120&#45;&gt;Node0x26514250 -->
<g id="edge2" class="edge"><title>Node0x2adc2120&#45;&gt;Node0x26514250</title>
<path fill="none" stroke="black" d="M291.5,-835.167C291.5,-825.596 291.5,-816.158 291.5,-807.848"/>
<polygon fill="black" stroke="black" points="295,-807.658 291.5,-797.659 288,-807.659 295,-807.658"/>
</g>
<!-- Node0x26515780 -->
<g id="node4" class="node"><title>Node0x26515780</title>
<polygon fill="none" stroke="black" points="115.5,-654.5 115.5,-707.5 327.5,-707.5 327.5,-654.5 115.5,-654.5"/>
<text text-anchor="start" x="123.5" y="-692.3" font-family="Times,serif" font-size="14.00">0x865b9c0:</text>
<text text-anchor="start" x="123.5" y="-677.3" font-family="Times,serif" font-size="14.00"> g29 = (v3 &#45; 6396)</text>
<text text-anchor="start" x="123.5" y="-662.3" font-family="Times,serif" font-size="14.00"> imported_function_ord_0()</text>
</g>
<!-- Node0x26514250&#45;&gt;Node0x26515780 -->
<g id="edge3" class="edge"><title>Node0x26514250&#45;&gt;Node0x26515780</title>
<path fill="none" stroke="black" d="M61.4424,-759.488C46.0976,-754.651 34.1108,-748.588 27.5,-741 -2.61321,-706.437 48.1028,-691.77 105.21,-685.702"/>
<polygon fill="black" stroke="black" points="105.557,-689.184 115.171,-684.732 104.879,-682.217 105.557,-689.184"/>
<text text-anchor="middle" x="285.5" y="-729.8" font-family="Times,serif" font-size="14.00">*(IntToPtrCastExpr&lt;ptr&gt;(*(IntToPtrCastExpr&lt;ptr&gt;((v3 + 200))))) != 0</text>
</g>
<!-- Node0x26514920 -->
<g id="node5" class="node"><title>Node0x26514920</title>
<polygon fill="none" stroke="black" points="225.5,-308.5 225.5,-616.5 709.5,-616.5 709.5,-308.5 225.5,-308.5"/>
<text text-anchor="start" x="233.5" y="-601.3" font-family="Times,serif" font-size="14.00">0x3c1a8d00:</text>
<text text-anchor="start" x="233.5" y="-586.3" font-family="Times,serif" font-size="14.00"> v4 = g21</text>
<text text-anchor="start" x="233.5" y="-571.3" font-family="Times,serif" font-size="14.00"> g37 = v4</text>
<text text-anchor="start" x="233.5" y="-556.3" font-family="Times,serif" font-size="14.00"> g9 = (v4 == 0)</text>
<text text-anchor="start" x="233.5" y="-541.3" font-family="Times,serif" font-size="14.00"> g38 = v1</text>
<text text-anchor="start" x="233.5" y="-526.3" font-family="Times,serif" font-size="14.00"> g40 = v2</text>
<text text-anchor="start" x="233.5" y="-511.3" font-family="Times,serif" font-size="14.00"> v5</text>
<text text-anchor="start" x="233.5" y="-496.3" font-family="Times,serif" font-size="14.00"> g34 = v5</text>
<text text-anchor="start" x="233.5" y="-481.3" font-family="Times,serif" font-size="14.00"> IntToPtrCastExpr&lt;ptr&gt;(ExtCastExpr&lt;int32&gt;((v4 == 0)))()</text>
<text text-anchor="start" x="233.5" y="-466.3" font-family="Times,serif" font-size="14.00"> g29 = g39</text>
<text text-anchor="start" x="233.5" y="-451.3" font-family="Times,serif" font-size="14.00"> g30 = *(IntToPtrCastExpr&lt;ptr&gt;((g40 + 160)))</text>
<text text-anchor="start" x="233.5" y="-436.3" font-family="Times,serif" font-size="14.00"> g35 = 94096</text>
<text text-anchor="start" x="233.5" y="-421.3" font-family="Times,serif" font-size="14.00"> IntToPtrCastExpr&lt;ptr&gt;(g37)()</text>
<text text-anchor="start" x="233.5" y="-406.3" font-family="Times,serif" font-size="14.00"> v6 = g34</text>
<text text-anchor="start" x="233.5" y="-391.3" font-family="Times,serif" font-size="14.00"> g38 = *(IntToPtrCastExpr&lt;ptr&gt;((v6 + 4)))</text>
<text text-anchor="start" x="233.5" y="-376.3" font-family="Times,serif" font-size="14.00"> g39 = *(IntToPtrCastExpr&lt;ptr&gt;((v6 + 8)))</text>
<text text-anchor="start" x="233.5" y="-361.3" font-family="Times,serif" font-size="14.00"> g40 = *(IntToPtrCastExpr&lt;ptr&gt;((v6 + 12)))</text>
<text text-anchor="start" x="233.5" y="-346.3" font-family="Times,serif" font-size="14.00"> g32 = *(IntToPtrCastExpr&lt;ptr&gt;((v6 + 16)))</text>
<text text-anchor="start" x="233.5" y="-331.3" font-family="Times,serif" font-size="14.00"> g34 = *(IntToPtrCastExpr&lt;ptr&gt;((v6 + 20)))</text>
<text text-anchor="start" x="233.5" y="-316.3" font-family="Times,serif" font-size="14.00"> IntToPtrCastExpr&lt;ptr&gt;(*(IntToPtrCastExpr&lt;ptr&gt;((v6 + 24))))()</text>
</g>
<!-- Node0x26514250&#45;&gt;Node0x26514920 -->
<g id="edge4" class="edge"><title>Node0x26514250&#45;&gt;Node0x26514920</title>
<path fill="none" stroke="black" d="M509.097,-759.473C524.715,-754.658 536.918,-748.604 543.5,-741 571.268,-708.92 572.243,-667.578 561.147,-626.652"/>
<polygon fill="black" stroke="black" points="564.434,-625.427 558.253,-616.822 557.719,-627.404 564.434,-625.427"/>
<text text-anchor="middle" x="828.5" y="-677.3" font-family="Times,serif" font-size="14.00">*(IntToPtrCastExpr&lt;ptr&gt;(*(IntToPtrCastExpr&lt;ptr&gt;((v3 + 200))))) == 0</text>
</g>
<!-- Node0x26515780&#45;&gt;Node0x26514920 -->
<g id="edge5" class="edge"><title>Node0x26515780&#45;&gt;Node0x26514920</title>
<path fill="none" stroke="black" d="M250.685,-654.314C260.633,-645.56 272.596,-635.031 285.727,-623.475"/>
<polygon fill="black" stroke="black" points="288.393,-625.791 293.588,-616.557 283.768,-620.536 288.393,-625.791"/>
</g>
<!-- Node0x26515450 -->
<g id="node6" class="node"><title>Node0x26515450</title>
<polygon fill="none" stroke="black" points="418.5,-232.5 418.5,-270.5 516.5,-270.5 516.5,-232.5 418.5,-232.5"/>
<text text-anchor="start" x="426.5" y="-255.3" font-family="Times,serif" font-size="14.00">0x8662df0:</text>
<text text-anchor="start" x="426.5" y="-240.3" font-family="Times,serif" font-size="14.00"> if g9:</text>
</g>
<!-- Node0x26514920&#45;&gt;Node0x26515450 -->
<g id="edge6" class="edge"><title>Node0x26514920&#45;&gt;Node0x26515450</title>
<path fill="none" stroke="black" d="M467.5,-308.234C467.5,-298.177 467.5,-288.898 467.5,-280.912"/>
<polygon fill="black" stroke="black" points="471,-280.874 467.5,-270.874 464,-280.874 471,-280.874"/>
</g>
<!-- Node0x265158f0 -->
<g id="node7" class="node"><title>Node0x265158f0</title>
<polygon fill="none" stroke="black" points="0,-97.5 0,-180.5 503,-180.5 503,-97.5 0,-97.5"/>
<text text-anchor="start" x="8" y="-165.3" font-family="Times,serif" font-size="14.00">0x1e72e390:</text>
<text text-anchor="start" x="8" y="-150.3" font-family="Times,serif" font-size="14.00"> v7 = (g40 % 256)</text>
<text text-anchor="start" x="8" y="-135.3" font-family="Times,serif" font-size="14.00"> v8 = g29</text>
<text text-anchor="start" x="8" y="-120.3" font-family="Times,serif" font-size="14.00"> g30 = ((g38 &gt;&gt; (0 if (v7 == 0) else (31 if (v7 &gt; 31) else v7))) &amp; v8)</text>
<text text-anchor="start" x="8" y="-105.3" font-family="Times,serif" font-size="14.00"> g29 = ((g42 / 2) &amp; v8)</text>
</g>
<!-- Node0x26515450&#45;&gt;Node0x265158f0 -->
<g id="edge7" class="edge"><title>Node0x26515450&#45;&gt;Node0x265158f0</title>
<path fill="none" stroke="black" d="M431.832,-232.253C406.75,-219.422 372.036,-201.663 339.757,-185.15"/>
<polygon fill="black" stroke="black" points="341.225,-181.969 330.728,-180.531 338.036,-188.201 341.225,-181.969"/>
<text text-anchor="middle" x="401" y="-202.8" font-family="Times,serif" font-size="14.00">g9</text>
</g>
<!-- Node0x2adbf0c0 -->
<g id="node8" class="node"><title>Node0x2adbf0c0</title>
<polygon fill="none" stroke="black" points="434.5,-23.5 434.5,-59.5 488.5,-59.5 488.5,-23.5 434.5,-23.5"/>
<text text-anchor="start" x="442.5" y="-37.8" font-family="Times,serif" font-size="14.00">exit:</text>
</g>
<!-- Node0x26515450&#45;&gt;Node0x2adbf0c0 -->
<g id="edge8" class="edge"><title>Node0x26515450&#45;&gt;Node0x2adbf0c0</title>
<path fill="none" stroke="black" d="M482.986,-232.45C493.295,-219.188 505.933,-200.202 511.5,-181 521.896,-145.143 525.041,-131.791 511.5,-97 507.105,-85.7089 499.157,-75.3371 490.872,-66.7408"/>
<polygon fill="black" stroke="black" points="493.198,-64.1208 483.586,-59.6652 488.322,-69.1427 493.198,-64.1208"/>
<text text-anchor="middle" x="550" y="-135.3" font-family="Times,serif" font-size="14.00">not (g9)</text>
</g>
<!-- Node0x265158f0&#45;&gt;Node0x2adbf0c0 -->
<g id="edge9" class="edge"><title>Node0x265158f0&#45;&gt;Node0x2adbf0c0</title>
<path fill="none" stroke="black" d="M340.559,-97.4994C370.231,-84.0058 401.642,-69.7213 425.014,-59.0926"/>
<polygon fill="black" stroke="black" points="426.537,-62.2449 434.191,-54.9191 423.639,-55.8728 426.537,-62.2449"/>
</g>
</g>
</svg>
