<?xml version="1.0" encoding="UTF-8" standalone="no"?>
<!DOCTYPE svg PUBLIC "-//W3C//DTD SVG 1.1//EN"
 "http://www.w3.org/Graphics/SVG/1.1/DTD/svg11.dtd">
<!-- Generated by graphviz version 2.38.0 (20140413.2041)
 -->
<!-- Title: Control&#45;flow graph for function &#39;function_23e50()&#39;. Pages: 1 -->
<svg width="642pt" height="760pt"
 viewBox="0.00 0.00 641.50 760.00" xmlns="http://www.w3.org/2000/svg" xmlns:xlink="http://www.w3.org/1999/xlink">
<g id="graph0" class="graph" transform="scale(1 1) rotate(0) translate(4 756)">
<title>Control&#45;flow graph for function &#39;function_23e50()&#39;.</title>
<polygon fill="white" stroke="none" points="-4,4 -4,-756 637.5,-756 637.5,4 -4,4"/>
<text text-anchor="middle" x="316.75" y="-7.8" font-family="Times,serif" font-size="14.00">Control&#45;flow graph for function &#39;function_23e50()&#39;.</text>
<!-- Node0x4660e810 -->
<g id="node1" class="node"><title>Node0x4660e810</title>
<polygon fill="none" stroke="black" points="305.5,-715.5 305.5,-751.5 364.5,-751.5 364.5,-715.5 305.5,-715.5"/>
<text text-anchor="start" x="313.5" y="-729.8" font-family="Times,serif" font-size="14.00">entry:</text>
</g>
<!-- Node0x466101d0 -->
<g id="node2" class="node"><title>Node0x466101d0</title>
<polygon fill="none" stroke="black" points="36.5,-534.5 36.5,-677.5 633.5,-677.5 633.5,-534.5 36.5,-534.5"/>
<text text-anchor="start" x="44.5" y="-662.3" font-family="Times,serif" font-size="14.00">0x4565cf70:</text>
<text text-anchor="start" x="44.5" y="-647.3" font-family="Times,serif" font-size="14.00"> v1 = g39</text>
<text text-anchor="start" x="44.5" y="-632.3" font-family="Times,serif" font-size="14.00"> v2 = g29</text>
<text text-anchor="start" x="44.5" y="-617.3" font-family="Times,serif" font-size="14.00"> v3 = (v1 &gt;&gt; (32 if ((v2 % 32) == 0) else v2))</text>
<text text-anchor="start" x="44.5" y="-602.3" font-family="Times,serif" font-size="14.00"> v4 = *(IntToPtrCastExpr&lt;ptr&gt;((v3 + *(IntToPtrCastExpr&lt;ptr&gt;((g38 + 236))))))</text>
<text text-anchor="start" x="44.5" y="-587.3" font-family="Times,serif" font-size="14.00"> v5 = v4</text>
<text text-anchor="start" x="44.5" y="-572.3" font-family="Times,serif" font-size="14.00"> v6 = g30</text>
<text text-anchor="start" x="44.5" y="-557.3" font-family="Times,serif" font-size="14.00"> v7 = (v6 &#45; v5)</text>
<text text-anchor="start" x="44.5" y="-542.3" font-family="Times,serif" font-size="14.00"> g30 = v7</text>
</g>
<!-- Node0x4660e810&#45;&gt;Node0x466101d0 -->
<g id="edge1" class="edge"><title>Node0x4660e810&#45;&gt;Node0x466101d0</title>
<path fill="none" stroke="black" d="M335,-715.313C335,-707.682 335,-698.101 335,-687.811"/>
<polygon fill="black" stroke="black" points="338.5,-687.769 335,-677.769 331.5,-687.769 338.5,-687.769"/>
</g>
<!-- Node0x4660f1c0 -->
<g id="node3" class="node"><title>Node0x4660f1c0</title>
<polygon fill="none" stroke="black" points="279,-458.5 279,-496.5 391,-496.5 391,-458.5 279,-458.5"/>
<text text-anchor="start" x="287" y="-481.3" font-family="Times,serif" font-size="14.00">0xa496870:</text>
<text text-anchor="start" x="287" y="-466.3" font-family="Times,serif" font-size="14.00"> if (v6 != v5):</text>
</g>
<!-- Node0x466101d0&#45;&gt;Node0x4660f1c0 -->
<g id="edge2" class="edge"><title>Node0x466101d0&#45;&gt;Node0x4660f1c0</title>
<path fill="none" stroke="black" d="M335,-534.353C335,-524.594 335,-515.073 335,-506.737"/>
<polygon fill="black" stroke="black" points="338.5,-506.54 335,-496.54 331.5,-506.54 338.5,-506.54"/>
</g>
<!-- Node0x46610750 -->
<g id="node4" class="node"><title>Node0x46610750</title>
<polygon fill="none" stroke="black" points="0,-173.5 0,-406.5 352,-406.5 352,-173.5 0,-173.5"/>
<text text-anchor="start" x="8" y="-391.3" font-family="Times,serif" font-size="14.00">0x4565dcc0:</text>
<text text-anchor="start" x="8" y="-376.3" font-family="Times,serif" font-size="14.00"> v8 = g32</text>
<text text-anchor="start" x="8" y="-361.3" font-family="Times,serif" font-size="14.00"> v9 = (32 &#45; v7)</text>
<text text-anchor="start" x="8" y="-346.3" font-family="Times,serif" font-size="14.00"> v10 = (v8 &gt;&gt; (32 if ((v9 % 32) == 0) else v9))</text>
<text text-anchor="start" x="8" y="-331.3" font-family="Times,serif" font-size="14.00"> g29 = v10</text>
<text text-anchor="start" x="8" y="-316.3" font-family="Times,serif" font-size="14.00"> g8 = False</text>
<text text-anchor="start" x="8" y="-301.3" font-family="Times,serif" font-size="14.00"> g40 = (v10 | (g40 &lt;&lt; v7))</text>
<text text-anchor="start" x="8" y="-286.3" font-family="Times,serif" font-size="14.00"> v11 = (v8 &lt;&lt; v7)</text>
<text text-anchor="start" x="8" y="-271.3" font-family="Times,serif" font-size="14.00"> g36 = v11</text>
<text text-anchor="start" x="8" y="-256.3" font-family="Times,serif" font-size="14.00"> v12 = (v1 &lt;&lt; v7)</text>
<text text-anchor="start" x="8" y="-241.3" font-family="Times,serif" font-size="14.00"> g39 = v12</text>
<text text-anchor="start" x="8" y="-226.3" font-family="Times,serif" font-size="14.00"> g7 = (v12 &lt; 0)</text>
<text text-anchor="start" x="8" y="-211.3" font-family="Times,serif" font-size="14.00"> g9 = (v12 == 0)</text>
<text text-anchor="start" x="8" y="-196.3" font-family="Times,serif" font-size="14.00"> g6 = (((1 &lt;&lt; v9) &amp; v1) != 0)</text>
<text text-anchor="start" x="8" y="-181.3" font-family="Times,serif" font-size="14.00"> g32 = v11</text>
</g>
<!-- Node0x4660f1c0&#45;&gt;Node0x46610750 -->
<g id="edge3" class="edge"><title>Node0x4660f1c0&#45;&gt;Node0x46610750</title>
<path fill="none" stroke="black" d="M319.465,-458.376C309.842,-447.15 296.55,-431.642 281.909,-414.561"/>
<polygon fill="black" stroke="black" points="284.261,-411.927 275.096,-406.612 278.947,-416.482 284.261,-411.927"/>
<text text-anchor="middle" x="332" y="-428.8" font-family="Times,serif" font-size="14.00">v6 != v5</text>
</g>
<!-- Node0x46610690 -->
<g id="node5" class="node"><title>Node0x46610690</title>
<polygon fill="none" stroke="black" points="272,-97.5 272,-135.5 386,-135.5 386,-97.5 272,-97.5"/>
<text text-anchor="start" x="280" y="-120.3" font-family="Times,serif" font-size="14.00">0xa496a30:</text>
<text text-anchor="start" x="280" y="-105.3" font-family="Times,serif" font-size="14.00"> g37 = 65535</text>
</g>
<!-- Node0x4660f1c0&#45;&gt;Node0x46610690 -->
<g id="edge4" class="edge"><title>Node0x4660f1c0&#45;&gt;Node0x46610690</title>
<path fill="none" stroke="black" d="M355.549,-458.183C360.205,-452.833 364.507,-446.625 367,-440 369.348,-433.76 367.079,-431.666 367,-425 365.667,-312.976 391.251,-280.87 361,-173 358.236,-163.144 353.324,-153.202 348.165,-144.509"/>
<polygon fill="black" stroke="black" points="351.071,-142.555 342.779,-135.959 345.147,-146.285 351.071,-142.555"/>
<text text-anchor="middle" x="410" y="-286.3" font-family="Times,serif" font-size="14.00">v6 == v5</text>
</g>
<!-- Node0x46610750&#45;&gt;Node0x46610690 -->
<g id="edge5" class="edge"><title>Node0x46610750&#45;&gt;Node0x46610690</title>
<path fill="none" stroke="black" d="M279.325,-173.181C289.087,-162.239 298.182,-152.044 305.852,-143.447"/>
<polygon fill="black" stroke="black" points="308.699,-145.514 312.744,-135.722 303.475,-140.854 308.699,-145.514"/>
</g>
<!-- Node0x4660f230 -->
<g id="node6" class="node"><title>Node0x4660f230</title>
<polygon fill="none" stroke="black" points="302,-23.5 302,-59.5 356,-59.5 356,-23.5 302,-23.5"/>
<text text-anchor="start" x="310" y="-37.8" font-family="Times,serif" font-size="14.00">exit:</text>
</g>
<!-- Node0x46610690&#45;&gt;Node0x4660f230 -->
<g id="edge6" class="edge"><title>Node0x46610690&#45;&gt;Node0x4660f230</title>
<path fill="none" stroke="black" d="M329,-97.4551C329,-89.2008 329,-79.2377 329,-70.0742"/>
<polygon fill="black" stroke="black" points="332.5,-69.8347 329,-59.8347 325.5,-69.8347 332.5,-69.8347"/>
</g>
</g>
</svg>
