<?xml version="1.0" encoding="UTF-8" standalone="no"?>
<!DOCTYPE svg PUBLIC "-//W3C//DTD SVG 1.1//EN"
 "http://www.w3.org/Graphics/SVG/1.1/DTD/svg11.dtd">
<!-- Generated by graphviz version 2.38.0 (20140413.2041)
 -->
<!-- Title: Control&#45;flow graph for function &#39;function_23d8c()&#39;. Pages: 1 -->
<svg width="385pt" height="351pt"
 viewBox="0.00 0.00 385.00 351.00" xmlns="http://www.w3.org/2000/svg" xmlns:xlink="http://www.w3.org/1999/xlink">
<g id="graph0" class="graph" transform="scale(1 1) rotate(0) translate(4 347)">
<title>Control&#45;flow graph for function &#39;function_23d8c()&#39;.</title>
<polygon fill="white" stroke="none" points="-4,4 -4,-347 381,-347 381,4 -4,4"/>
<text text-anchor="middle" x="188.5" y="-7.8" font-family="Times,serif" font-size="14.00">Control&#45;flow graph for function &#39;function_23d8c()&#39;.</text>
<!-- Node0x310ad960 -->
<g id="node1" class="node"><title>Node0x310ad960</title>
<polygon fill="none" stroke="black" points="159,-306.5 159,-342.5 218,-342.5 218,-306.5 159,-306.5"/>
<text text-anchor="start" x="167" y="-320.8" font-family="Times,serif" font-size="14.00">entry:</text>
</g>
<!-- Node0x4660af60 -->
<g id="node2" class="node"><title>Node0x4660af60</title>
<polygon fill="none" stroke="black" points="43.5,-96.5 43.5,-269.5 333.5,-269.5 333.5,-96.5 43.5,-96.5"/>
<text text-anchor="start" x="51.5" y="-254.3" font-family="Times,serif" font-size="14.00">0x25555f50:</text>
<text text-anchor="start" x="51.5" y="-239.3" font-family="Times,serif" font-size="14.00"> v1 = g29</text>
<text text-anchor="start" x="51.5" y="-224.3" font-family="Times,serif" font-size="14.00"> g37 = &#45;1</text>
<text text-anchor="start" x="51.5" y="-209.3" font-family="Times,serif" font-size="14.00"> v2 = (g40 + v1)</text>
<text text-anchor="start" x="51.5" y="-194.3" font-family="Times,serif" font-size="14.00"> g29 = v2</text>
<text text-anchor="start" x="51.5" y="-179.3" font-family="Times,serif" font-size="14.00"> g42 = (g42 &#45; 1)</text>
<text text-anchor="start" x="51.5" y="-164.3" font-family="Times,serif" font-size="14.00"> v3 = ((&#45;2 &#45; v2) + g40)</text>
<text text-anchor="start" x="51.5" y="-149.3" font-family="Times,serif" font-size="14.00"> g8 = (((v3 ^ g40) &amp; (v3 ^ &#45;(v2))) &lt; 0)</text>
<text text-anchor="start" x="51.5" y="-134.3" font-family="Times,serif" font-size="14.00"> g7 = (&#45;(v1) &lt; 0)</text>
<text text-anchor="start" x="51.5" y="-119.3" font-family="Times,serif" font-size="14.00"> g9 = (v1 == 0)</text>
<text text-anchor="start" x="51.5" y="-104.3" font-family="Times,serif" font-size="14.00"> g6 = (v3 &lt;= g40)</text>
</g>
<!-- Node0x310ad960&#45;&gt;Node0x4660af60 -->
<g id="edge1" class="edge"><title>Node0x310ad960&#45;&gt;Node0x4660af60</title>
<path fill="none" stroke="black" d="M188.5,-306.395C188.5,-299.083 188.5,-289.926 188.5,-279.929"/>
<polygon fill="black" stroke="black" points="192,-279.69 188.5,-269.69 185,-279.69 192,-279.69"/>
</g>
<!-- Node0x310ac610 -->
<g id="node3" class="node"><title>Node0x310ac610</title>
<polygon fill="none" stroke="black" points="161.5,-23.5 161.5,-59.5 215.5,-59.5 215.5,-23.5 161.5,-23.5"/>
<text text-anchor="start" x="169.5" y="-37.8" font-family="Times,serif" font-size="14.00">exit:</text>
</g>
<!-- Node0x4660af60&#45;&gt;Node0x310ac610 -->
<g id="edge2" class="edge"><title>Node0x4660af60&#45;&gt;Node0x310ac610</title>
<path fill="none" stroke="black" d="M188.5,-96.4343C188.5,-86.8184 188.5,-77.6259 188.5,-69.641"/>
<polygon fill="black" stroke="black" points="192,-69.5749 188.5,-59.5749 185,-69.5749 192,-69.5749"/>
</g>
</g>
</svg>
