<?xml version="1.0" encoding="UTF-8" standalone="no"?>
<!DOCTYPE svg PUBLIC "-//W3C//DTD SVG 1.1//EN"
 "http://www.w3.org/Graphics/SVG/1.1/DTD/svg11.dtd">
<!-- Generated by graphviz version 2.38.0 (20140413.2041)
 -->
<!-- Title: Control&#45;flow graph for function &#39;function_3508()&#39;. Pages: 1 -->
<svg width="661pt" height="790pt"
 viewBox="0.00 0.00 661.00 790.00" xmlns="http://www.w3.org/2000/svg" xmlns:xlink="http://www.w3.org/1999/xlink">
<g id="graph0" class="graph" transform="scale(1 1) rotate(0) translate(4 786)">
<title>Control&#45;flow graph for function &#39;function_3508()&#39;.</title>
<polygon fill="white" stroke="none" points="-4,4 -4,-786 657,-786 657,4 -4,4"/>
<text text-anchor="middle" x="326.5" y="-7.8" font-family="Times,serif" font-size="14.00">Control&#45;flow graph for function &#39;function_3508()&#39;.</text>
<!-- Node0x2414dbb0 -->
<g id="node1" class="node"><title>Node0x2414dbb0</title>
<polygon fill="none" stroke="black" points="287,-745.5 287,-781.5 346,-781.5 346,-745.5 287,-745.5"/>
<text text-anchor="start" x="295" y="-759.8" font-family="Times,serif" font-size="14.00">entry:</text>
</g>
<!-- Node0x2414ecc0 -->
<g id="node2" class="node"><title>Node0x2414ecc0</title>
<polygon fill="none" stroke="black" points="47,-639.5 47,-707.5 586,-707.5 586,-639.5 47,-639.5"/>
<text text-anchor="start" x="55" y="-692.3" font-family="Times,serif" font-size="14.00">0x39a4e4b0:</text>
<text text-anchor="start" x="55" y="-677.3" font-family="Times,serif" font-size="14.00"> v1 = *(IntToPtrCastExpr&lt;ptr&gt;((*(IntToPtrCastExpr&lt;ptr&gt;(g29)) + 32)))</text>
<text text-anchor="start" x="55" y="-662.3" font-family="Times,serif" font-size="14.00"> g6 = True</text>
<text text-anchor="start" x="55" y="-647.3" font-family="Times,serif" font-size="14.00"> g9 = (v1 == 0)</text>
</g>
<!-- Node0x2414dbb0&#45;&gt;Node0x2414ecc0 -->
<g id="edge1" class="edge"><title>Node0x2414dbb0&#45;&gt;Node0x2414ecc0</title>
<path fill="none" stroke="black" d="M316.5,-745.114C316.5,-737.158 316.5,-727.343 316.5,-717.588"/>
<polygon fill="black" stroke="black" points="320,-717.524 316.5,-707.524 313,-717.524 320,-717.524"/>
</g>
<!-- Node0x307aa070 -->
<g id="node3" class="node"><title>Node0x307aa070</title>
<polygon fill="none" stroke="black" points="261.5,-563.5 261.5,-601.5 371.5,-601.5 371.5,-563.5 261.5,-563.5"/>
<text text-anchor="start" x="269.5" y="-586.3" font-family="Times,serif" font-size="14.00">0x501bff0:</text>
<text text-anchor="start" x="269.5" y="-571.3" font-family="Times,serif" font-size="14.00"> if (v1 == 0):</text>
</g>
<!-- Node0x2414ecc0&#45;&gt;Node0x307aa070 -->
<g id="edge2" class="edge"><title>Node0x2414ecc0&#45;&gt;Node0x307aa070</title>
<path fill="none" stroke="black" d="M316.5,-639.36C316.5,-630.365 316.5,-620.707 316.5,-611.993"/>
<polygon fill="black" stroke="black" points="320,-611.941 316.5,-601.941 313,-611.941 320,-611.941"/>
</g>
<!-- Node0x2414fb90 -->
<g id="node4" class="node"><title>Node0x2414fb90</title>
<polygon fill="none" stroke="black" points="217,-458.5 217,-511.5 318,-511.5 318,-458.5 217,-458.5"/>
<text text-anchor="start" x="225" y="-496.3" font-family="Times,serif" font-size="14.00">0x501b8b0:</text>
<text text-anchor="start" x="225" y="-481.3" font-family="Times,serif" font-size="14.00"> g29 = 0</text>
<text text-anchor="start" x="225" y="-466.3" font-family="Times,serif" font-size="14.00"> g30 = 0</text>
</g>
<!-- Node0x307aa070&#45;&gt;Node0x2414fb90 -->
<g id="edge3" class="edge"><title>Node0x307aa070&#45;&gt;Node0x2414fb90</title>
<path fill="none" stroke="black" d="M294.793,-563.488C289.416,-558.052 284.154,-551.726 280.5,-545 276.627,-537.872 273.908,-529.665 271.999,-521.683"/>
<polygon fill="black" stroke="black" points="275.409,-520.892 269.988,-511.789 268.55,-522.286 275.409,-520.892"/>
<text text-anchor="middle" x="310.5" y="-533.8" font-family="Times,serif" font-size="14.00">v1 == 0</text>
</g>
<!-- Node0x307aa330 -->
<g id="node5" class="node"><title>Node0x307aa330</title>
<polygon fill="none" stroke="black" points="0,-97.5 0,-420.5 653,-420.5 653,-97.5 0,-97.5"/>
<text text-anchor="start" x="8" y="-405.3" font-family="Times,serif" font-size="14.00">0x12fb92c0:</text>
<text text-anchor="start" x="8" y="-390.3" font-family="Times,serif" font-size="14.00"> v2</text>
<text text-anchor="start" x="8" y="-375.3" font-family="Times,serif" font-size="14.00"> g34 = v2</text>
<text text-anchor="start" x="8" y="-360.3" font-family="Times,serif" font-size="14.00"> IntToPtrCastExpr&lt;ptr&gt;(ExtCastExpr&lt;int32&gt;((v1 == 0)))()</text>
<text text-anchor="start" x="8" y="-345.3" font-family="Times,serif" font-size="14.00"> v3 = *(IntToPtrCastExpr&lt;ptr&gt;(g40))</text>
<text text-anchor="start" x="8" y="-330.3" font-family="Times,serif" font-size="14.00"> g37 = v3</text>
<text text-anchor="start" x="8" y="-315.3" font-family="Times,serif" font-size="14.00"> g29 = *(IntToPtrCastExpr&lt;ptr&gt;((v3 + 2348)))</text>
<text text-anchor="start" x="8" y="-300.3" font-family="Times,serif" font-size="14.00"> g35 = 13632</text>
<text text-anchor="start" x="8" y="-285.3" font-family="Times,serif" font-size="14.00"> IntToPtrCastExpr&lt;ptr&gt;(*(IntToPtrCastExpr&lt;ptr&gt;((v3 + 2344))))()</text>
<text text-anchor="start" x="8" y="-270.3" font-family="Times,serif" font-size="14.00"> v4 = (((g29 &#45; *(IntToPtrCastExpr&lt;ptr&gt;((g40 + 36)))) / &#45;2147483648) + (g38 / 4294968))</text>
<text text-anchor="start" x="8" y="-255.3" font-family="Times,serif" font-size="14.00"> g37 = v4</text>
<text text-anchor="start" x="8" y="-240.3" font-family="Times,serif" font-size="14.00"> g30 = v4</text>
<text text-anchor="start" x="8" y="-225.3" font-family="Times,serif" font-size="14.00"> v5 = g34</text>
<text text-anchor="start" x="8" y="-210.3" font-family="Times,serif" font-size="14.00"> g38 = *(IntToPtrCastExpr&lt;ptr&gt;((v5 + 4)))</text>
<text text-anchor="start" x="8" y="-195.3" font-family="Times,serif" font-size="14.00"> g39 = *(IntToPtrCastExpr&lt;ptr&gt;((v5 + 8)))</text>
<text text-anchor="start" x="8" y="-180.3" font-family="Times,serif" font-size="14.00"> g40 = *(IntToPtrCastExpr&lt;ptr&gt;((v5 + 12)))</text>
<text text-anchor="start" x="8" y="-165.3" font-family="Times,serif" font-size="14.00"> g42 = *(IntToPtrCastExpr&lt;ptr&gt;((v5 + 16)))</text>
<text text-anchor="start" x="8" y="-150.3" font-family="Times,serif" font-size="14.00"> g43 = *(IntToPtrCastExpr&lt;ptr&gt;((v5 + 20)))</text>
<text text-anchor="start" x="8" y="-135.3" font-family="Times,serif" font-size="14.00"> g32 = *(IntToPtrCastExpr&lt;ptr&gt;((v5 + 24)))</text>
<text text-anchor="start" x="8" y="-120.3" font-family="Times,serif" font-size="14.00"> g34 = *(IntToPtrCastExpr&lt;ptr&gt;((v5 + 28)))</text>
<text text-anchor="start" x="8" y="-105.3" font-family="Times,serif" font-size="14.00"> IntToPtrCastExpr&lt;ptr&gt;(*(IntToPtrCastExpr&lt;ptr&gt;((v5 + 32))))()</text>
</g>
<!-- Node0x307aa070&#45;&gt;Node0x307aa330 -->
<g id="edge4" class="edge"><title>Node0x307aa070&#45;&gt;Node0x307aa330</title>
<path fill="none" stroke="black" d="M331.469,-563.234C335.152,-557.705 338.586,-551.394 340.5,-545 342.412,-538.613 340.673,-536.664 340.5,-530 339.668,-497.895 338.281,-463.664 336.695,-430.737"/>
<polygon fill="black" stroke="black" points="340.181,-430.381 336.196,-420.564 333.19,-430.723 340.181,-430.381"/>
<text text-anchor="middle" x="367.5" y="-481.3" font-family="Times,serif" font-size="14.00">v1 != 0</text>
</g>
<!-- Node0x2414fb90&#45;&gt;Node0x307aa330 -->
<g id="edge5" class="edge"><title>Node0x2414fb90&#45;&gt;Node0x307aa330</title>
<path fill="none" stroke="black" d="M274.268,-458.304C276.377,-450.298 278.879,-440.798 281.628,-430.36"/>
<polygon fill="black" stroke="black" points="285.056,-431.088 284.218,-420.527 278.287,-429.305 285.056,-431.088"/>
</g>
<!-- Node0x307ab100 -->
<g id="node6" class="node"><title>Node0x307ab100</title>
<polygon fill="none" stroke="black" points="299.5,-23.5 299.5,-59.5 353.5,-59.5 353.5,-23.5 299.5,-23.5"/>
<text text-anchor="start" x="307.5" y="-37.8" font-family="Times,serif" font-size="14.00">exit:</text>
</g>
<!-- Node0x307aa330&#45;&gt;Node0x307ab100 -->
<g id="edge6" class="edge"><title>Node0x307aa330&#45;&gt;Node0x307ab100</title>
<path fill="none" stroke="black" d="M326.5,-97.4373C326.5,-87.1305 326.5,-77.6801 326.5,-69.6314"/>
<polygon fill="black" stroke="black" points="330,-69.5759 326.5,-59.576 323,-69.576 330,-69.5759"/>
</g>
</g>
</svg>
