<?xml version="1.0" encoding="UTF-8" standalone="no"?>
<!DOCTYPE svg PUBLIC "-//W3C//DTD SVG 1.1//EN"
 "http://www.w3.org/Graphics/SVG/1.1/DTD/svg11.dtd">
<!-- Generated by graphviz version 2.38.0 (20140413.2041)
 -->
<!-- Title: Control&#45;flow graph for function &#39;SpConnectionLoginBlob()&#39;. Pages: 1 -->
<svg width="674pt" height="1408pt"
 viewBox="0.00 0.00 673.50 1408.00" xmlns="http://www.w3.org/2000/svg" xmlns:xlink="http://www.w3.org/1999/xlink">
<g id="graph0" class="graph" transform="scale(1 1) rotate(0) translate(4 1404)">
<title>Control&#45;flow graph for function &#39;SpConnectionLoginBlob()&#39;.</title>
<polygon fill="white" stroke="none" points="-4,4 -4,-1404 669.5,-1404 669.5,4 -4,4"/>
<text text-anchor="middle" x="332.75" y="-7.8" font-family="Times,serif" font-size="14.00">Control&#45;flow graph for function &#39;SpConnectionLoginBlob()&#39;.</text>
<!-- Node0x245b1d40 -->
<g id="node1" class="node"><title>Node0x245b1d40</title>
<polygon fill="none" stroke="black" points="478.5,-1363.5 478.5,-1399.5 537.5,-1399.5 537.5,-1363.5 478.5,-1363.5"/>
<text text-anchor="start" x="486.5" y="-1377.8" font-family="Times,serif" font-size="14.00">entry:</text>
</g>
<!-- Node0x245b2ac0 -->
<g id="node2" class="node"><title>Node0x245b2ac0</title>
<polygon fill="none" stroke="black" points="350.5,-1092.5 350.5,-1325.5 665.5,-1325.5 665.5,-1092.5 350.5,-1092.5"/>
<text text-anchor="start" x="358.5" y="-1310.3" font-family="Times,serif" font-size="14.00">0x1398cd60:</text>
<text text-anchor="start" x="358.5" y="-1295.3" font-family="Times,serif" font-size="14.00"> v1 = g38</text>
<text text-anchor="start" x="358.5" y="-1280.3" font-family="Times,serif" font-size="14.00"> v2 = g39</text>
<text text-anchor="start" x="358.5" y="-1265.3" font-family="Times,serif" font-size="14.00"> v3 = g40</text>
<text text-anchor="start" x="358.5" y="-1250.3" font-family="Times,serif" font-size="14.00"> v4 = g41</text>
<text text-anchor="start" x="358.5" y="-1235.3" font-family="Times,serif" font-size="14.00"> g38 = 165012</text>
<text text-anchor="start" x="358.5" y="-1220.3" font-family="Times,serif" font-size="14.00"> v5 = *(IntToPtrCastExpr&lt;ptr&gt;(165212))</text>
<text text-anchor="start" x="358.5" y="-1205.3" font-family="Times,serif" font-size="14.00"> g41 = v5</text>
<text text-anchor="start" x="358.5" y="-1190.3" font-family="Times,serif" font-size="14.00"> v6 = *(IntToPtrCastExpr&lt;ptr&gt;(v5))</text>
<text text-anchor="start" x="358.5" y="-1175.3" font-family="Times,serif" font-size="14.00"> g33 = v6</text>
<text text-anchor="start" x="358.5" y="-1160.3" font-family="Times,serif" font-size="14.00"> v7 = g29</text>
<text text-anchor="start" x="358.5" y="-1145.3" font-family="Times,serif" font-size="14.00"> g40 = v7</text>
<text text-anchor="start" x="358.5" y="-1130.3" font-family="Times,serif" font-size="14.00"> v8 = g30</text>
<text text-anchor="start" x="358.5" y="-1115.3" font-family="Times,serif" font-size="14.00"> g39 = v8</text>
<text text-anchor="start" x="358.5" y="-1100.3" font-family="Times,serif" font-size="14.00"> v9 = v7</text>
</g>
<!-- Node0x245b1d40&#45;&gt;Node0x245b2ac0 -->
<g id="edge1" class="edge"><title>Node0x245b1d40&#45;&gt;Node0x245b2ac0</title>
<path fill="none" stroke="black" d="M508,-1363.21C508,-1355.69 508,-1346.17 508,-1335.57"/>
<polygon fill="black" stroke="black" points="511.5,-1335.56 508,-1325.56 504.5,-1335.56 511.5,-1335.56"/>
</g>
<!-- Node0x2847a8e0 -->
<g id="node3" class="node"><title>Node0x2847a8e0</title>
<polygon fill="none" stroke="black" points="456,-1016.5 456,-1054.5 560,-1054.5 560,-1016.5 456,-1016.5"/>
<text text-anchor="start" x="464" y="-1039.3" font-family="Times,serif" font-size="14.00">0x8296b40:</text>
<text text-anchor="start" x="464" y="-1024.3" font-family="Times,serif" font-size="14.00"> if (v6 != 0):</text>
</g>
<!-- Node0x245b2ac0&#45;&gt;Node0x2847a8e0 -->
<g id="edge2" class="edge"><title>Node0x245b2ac0&#45;&gt;Node0x2847a8e0</title>
<path fill="none" stroke="black" d="M508,-1092.18C508,-1082.25 508,-1072.94 508,-1064.88"/>
<polygon fill="black" stroke="black" points="511.5,-1064.72 508,-1054.72 504.5,-1064.72 511.5,-1064.72"/>
</g>
<!-- Node0x28479070 -->
<g id="node4" class="node"><title>Node0x28479070</title>
<polygon fill="none" stroke="black" points="296,-881.5 296,-964.5 508,-964.5 508,-881.5 296,-881.5"/>
<text text-anchor="start" x="304" y="-949.3" font-family="Times,serif" font-size="14.00">0x8295e50:</text>
<text text-anchor="start" x="304" y="-934.3" font-family="Times,serif" font-size="14.00"> g36 = v7</text>
<text text-anchor="start" x="304" y="-919.3" font-family="Times,serif" font-size="14.00"> imported_function_ord_0()</text>
<text text-anchor="start" x="304" y="-904.3" font-family="Times,serif" font-size="14.00"> v9 = g40</text>
<text text-anchor="start" x="304" y="-889.3" font-family="Times,serif" font-size="14.00"> v8 = g39</text>
</g>
<!-- Node0x2847a8e0&#45;&gt;Node0x28479070 -->
<g id="edge3" class="edge"><title>Node0x2847a8e0&#45;&gt;Node0x28479070</title>
<path fill="none" stroke="black" d="M490.496,-1016.25C478.975,-1004.24 463.311,-987.914 448.363,-972.331"/>
<polygon fill="black" stroke="black" points="450.552,-969.557 441.104,-964.764 445.5,-974.403 450.552,-969.557"/>
<text text-anchor="middle" x="498" y="-986.8" font-family="Times,serif" font-size="14.00">v6 != 0</text>
</g>
<!-- Node0x2847abe0 -->
<g id="node5" class="node"><title>Node0x2847abe0</title>
<polygon fill="none" stroke="black" points="353.5,-685.5 353.5,-843.5 650.5,-843.5 650.5,-685.5 353.5,-685.5"/>
<text text-anchor="start" x="361.5" y="-828.3" font-family="Times,serif" font-size="14.00">0x8296ca0:</text>
<text text-anchor="start" x="361.5" y="-813.3" font-family="Times,serif" font-size="14.00"> g30 = v8</text>
<text text-anchor="start" x="361.5" y="-798.3" font-family="Times,serif" font-size="14.00"> g29 = v9</text>
<text text-anchor="start" x="361.5" y="-783.3" font-family="Times,serif" font-size="14.00"> function_17acc()</text>
<text text-anchor="start" x="361.5" y="-768.3" font-family="Times,serif" font-size="14.00"> v10 = *(IntToPtrCastExpr&lt;ptr&gt;(g41))</text>
<text text-anchor="start" x="361.5" y="-753.3" font-family="Times,serif" font-size="14.00"> g37 = v10</text>
<text text-anchor="start" x="361.5" y="-738.3" font-family="Times,serif" font-size="14.00"> v11 = g29</text>
<text text-anchor="start" x="361.5" y="-723.3" font-family="Times,serif" font-size="14.00"> g39 = v11</text>
<text text-anchor="start" x="361.5" y="-708.3" font-family="Times,serif" font-size="14.00"> g9 = (v10 == 0)</text>
<text text-anchor="start" x="361.5" y="-693.3" font-family="Times,serif" font-size="14.00"> v12 = v11</text>
</g>
<!-- Node0x2847a8e0&#45;&gt;Node0x2847abe0 -->
<g id="edge4" class="edge"><title>Node0x2847a8e0&#45;&gt;Node0x2847abe0</title>
<path fill="none" stroke="black" d="M520.896,-1016.38C524.202,-1010.76 527.302,-1004.36 529,-998 530.721,-991.559 529.39,-989.655 529,-983 526.496,-940.282 520.981,-893.122 515.584,-853.667"/>
<polygon fill="black" stroke="black" points="519.021,-852.97 514.18,-843.546 512.088,-853.932 519.021,-852.97"/>
<text text-anchor="middle" x="557" y="-919.3" font-family="Times,serif" font-size="14.00">v6 == 0</text>
</g>
<!-- Node0x28479070&#45;&gt;Node0x2847abe0 -->
<g id="edge5" class="edge"><title>Node0x28479070&#45;&gt;Node0x2847abe0</title>
<path fill="none" stroke="black" d="M428.013,-881.29C433.8,-872.233 440.149,-862.297 446.619,-852.171"/>
<polygon fill="black" stroke="black" points="449.638,-853.947 452.073,-843.635 443.739,-850.177 449.638,-853.947"/>
</g>
<!-- Node0x28478970 -->
<g id="node6" class="node"><title>Node0x28478970</title>
<polygon fill="none" stroke="black" points="445.5,-609.5 445.5,-647.5 558.5,-647.5 558.5,-609.5 445.5,-609.5"/>
<text text-anchor="start" x="453.5" y="-632.3" font-family="Times,serif" font-size="14.00">0x82991e0:</text>
<text text-anchor="start" x="453.5" y="-617.3" font-family="Times,serif" font-size="14.00"> if (v10 != 0):</text>
</g>
<!-- Node0x2847abe0&#45;&gt;Node0x28478970 -->
<g id="edge6" class="edge"><title>Node0x2847abe0&#45;&gt;Node0x28478970</title>
<path fill="none" stroke="black" d="M502,-685.164C502,-675.447 502,-666.058 502,-657.846"/>
<polygon fill="black" stroke="black" points="505.5,-657.801 502,-647.801 498.5,-657.801 505.5,-657.801"/>
</g>
<!-- Node0x2847a160 -->
<g id="node7" class="node"><title>Node0x2847a160</title>
<polygon fill="none" stroke="black" points="293,-474.5 293,-557.5 505,-557.5 505,-474.5 293,-474.5"/>
<text text-anchor="start" x="301" y="-542.3" font-family="Times,serif" font-size="14.00">0x8298840:</text>
<text text-anchor="start" x="301" y="-527.3" font-family="Times,serif" font-size="14.00"> g30 = (g38 &#45; 7848)</text>
<text text-anchor="start" x="301" y="-512.3" font-family="Times,serif" font-size="14.00"> g36 = v11</text>
<text text-anchor="start" x="301" y="-497.3" font-family="Times,serif" font-size="14.00"> imported_function_ord_0()</text>
<text text-anchor="start" x="301" y="-482.3" font-family="Times,serif" font-size="14.00"> v12 = g39</text>
</g>
<!-- Node0x28478970&#45;&gt;Node0x2847a160 -->
<g id="edge7" class="edge"><title>Node0x28478970&#45;&gt;Node0x2847a160</title>
<path fill="none" stroke="black" d="M482.358,-609.242C476.361,-603.506 469.817,-597.082 464,-591 456.23,-582.876 448.164,-574.044 440.466,-565.404"/>
<polygon fill="black" stroke="black" points="443.061,-563.054 433.814,-557.883 437.818,-567.692 443.061,-563.054"/>
<text text-anchor="middle" x="495.5" y="-579.8" font-family="Times,serif" font-size="14.00">v10 != 0</text>
</g>
<!-- Node0x245b2ec0 -->
<g id="node8" class="node"><title>Node0x245b2ec0</title>
<polygon fill="none" stroke="black" points="378,-278.5 378,-436.5 620,-436.5 620,-278.5 378,-278.5"/>
<text text-anchor="start" x="386" y="-421.3" font-family="Times,serif" font-size="14.00">0x8299360:</text>
<text text-anchor="start" x="386" y="-406.3" font-family="Times,serif" font-size="14.00"> g29 = v12</text>
<text text-anchor="start" x="386" y="-391.3" font-family="Times,serif" font-size="14.00"> g38 = v1</text>
<text text-anchor="start" x="386" y="-376.3" font-family="Times,serif" font-size="14.00"> g39 = v2</text>
<text text-anchor="start" x="386" y="-361.3" font-family="Times,serif" font-size="14.00"> g40 = v3</text>
<text text-anchor="start" x="386" y="-346.3" font-family="Times,serif" font-size="14.00"> g41 = v4</text>
<text text-anchor="start" x="386" y="-331.3" font-family="Times,serif" font-size="14.00"> v13</text>
<text text-anchor="start" x="386" y="-316.3" font-family="Times,serif" font-size="14.00"> g34 = v13</text>
<text text-anchor="start" x="386" y="-301.3" font-family="Times,serif" font-size="14.00"> IntToPtrCastExpr&lt;ptr&gt;(g35)()</text>
<text text-anchor="start" x="386" y="-286.3" font-family="Times,serif" font-size="14.00"> v14 = (g37 % 256)</text>
</g>
<!-- Node0x28478970&#45;&gt;Node0x245b2ec0 -->
<g id="edge8" class="edge"><title>Node0x28478970&#45;&gt;Node0x245b2ec0</title>
<path fill="none" stroke="black" d="M517.586,-609.316C521.422,-603.787 525.001,-597.457 527,-591 528.972,-584.632 527.422,-582.653 527,-576 524.288,-533.27 518.555,-486.109 512.979,-446.655"/>
<polygon fill="black" stroke="black" points="516.412,-445.938 511.529,-436.536 509.483,-446.931 516.412,-445.938"/>
<text text-anchor="middle" x="559.5" y="-512.3" font-family="Times,serif" font-size="14.00">v10 == 0</text>
</g>
<!-- Node0x2847a160&#45;&gt;Node0x245b2ec0 -->
<g id="edge9" class="edge"><title>Node0x2847a160&#45;&gt;Node0x245b2ec0</title>
<path fill="none" stroke="black" d="M425.013,-474.29C430.8,-465.233 437.149,-455.297 443.619,-445.171"/>
<polygon fill="black" stroke="black" points="446.638,-446.947 449.073,-436.635 440.739,-443.177 446.638,-446.947"/>
</g>
<!-- Node0x245b03a0 -->
<g id="node9" class="node"><title>Node0x245b03a0</title>
<polygon fill="none" stroke="black" points="449,-202.5 449,-240.5 549,-240.5 549,-202.5 449,-202.5"/>
<text text-anchor="start" x="457" y="-225.3" font-family="Times,serif" font-size="14.00">0x829c1e0:</text>
<text text-anchor="start" x="457" y="-210.3" font-family="Times,serif" font-size="14.00"> if g9:</text>
</g>
<!-- Node0x245b2ec0&#45;&gt;Node0x245b03a0 -->
<g id="edge10" class="edge"><title>Node0x245b2ec0&#45;&gt;Node0x245b03a0</title>
<path fill="none" stroke="black" d="M499,-278.164C499,-268.447 499,-259.058 499,-250.846"/>
<polygon fill="black" stroke="black" points="502.5,-250.801 499,-240.801 495.5,-250.801 502.5,-250.801"/>
</g>
<!-- Node0x245b2720 -->
<g id="node10" class="node"><title>Node0x245b2720</title>
<polygon fill="none" stroke="black" points="0,-97.5 0,-150.5 540,-150.5 540,-97.5 0,-97.5"/>
<text text-anchor="start" x="8" y="-135.3" font-family="Times,serif" font-size="14.00">0x829b780:</text>
<text text-anchor="start" x="8" y="-120.3" font-family="Times,serif" font-size="14.00"> g37 = (g30 &amp; (g33 &gt;&gt; (0 if (v14 == 0) else (31 if (v14 &gt; 31) else v14))))</text>
<text text-anchor="start" x="8" y="-105.3" font-family="Times,serif" font-size="14.00"> g29 = (g29 &amp; (g42 / 2))</text>
</g>
<!-- Node0x245b03a0&#45;&gt;Node0x245b2720 -->
<g id="edge11" class="edge"><title>Node0x245b03a0&#45;&gt;Node0x245b2720</title>
<path fill="none" stroke="black" d="M455.658,-202.425C423.263,-188.915 378.279,-170.156 340.704,-154.486"/>
<polygon fill="black" stroke="black" points="341.899,-151.192 331.323,-150.573 339.205,-157.653 341.899,-151.192"/>
<text text-anchor="middle" x="415.5" y="-172.8" font-family="Times,serif" font-size="14.00">g9</text>
</g>
<!-- Node0x2847a240 -->
<g id="node11" class="node"><title>Node0x2847a240</title>
<polygon fill="none" stroke="black" points="466,-23.5 466,-59.5 520,-59.5 520,-23.5 466,-23.5"/>
<text text-anchor="start" x="474" y="-37.8" font-family="Times,serif" font-size="14.00">exit:</text>
</g>
<!-- Node0x245b03a0&#45;&gt;Node0x2847a240 -->
<g id="edge12" class="edge"><title>Node0x245b03a0&#45;&gt;Node0x2847a240</title>
<path fill="none" stroke="black" d="M517.065,-202.258C528.669,-189.194 542.707,-170.523 549,-151 556.363,-128.157 558.335,-119.11 549,-97 544.053,-85.2829 535.219,-74.8387 526.009,-66.3064"/>
<polygon fill="black" stroke="black" points="528.113,-63.4988 518.26,-59.603 523.533,-68.7926 528.113,-63.4988"/>
<text text-anchor="middle" x="583.5" y="-120.3" font-family="Times,serif" font-size="14.00">not (g9)</text>
</g>
<!-- Node0x245b2720&#45;&gt;Node0x2847a240 -->
<g id="edge13" class="edge"><title>Node0x245b2720&#45;&gt;Node0x2847a240</title>
<path fill="none" stroke="black" d="M340.865,-97.4187C379.187,-83.5851 424.927,-67.0734 456.18,-55.7917"/>
<polygon fill="black" stroke="black" points="457.572,-59.0101 465.79,-52.3226 455.195,-52.426 457.572,-59.0101"/>
</g>
</g>
</svg>
