<?xml version="1.0" encoding="UTF-8" standalone="no"?>
<!DOCTYPE svg PUBLIC "-//W3C//DTD SVG 1.1//EN"
 "http://www.w3.org/Graphics/SVG/1.1/DTD/svg11.dtd">
<!-- Generated by graphviz version 2.38.0 (20140413.2041)
 -->
<!-- Title: Control&#45;flow graph for function &#39;function_23bd6()&#39;. Pages: 1 -->
<svg width="490pt" height="366pt"
 viewBox="0.00 0.00 490.00 366.00" xmlns="http://www.w3.org/2000/svg" xmlns:xlink="http://www.w3.org/1999/xlink">
<g id="graph0" class="graph" transform="scale(1 1) rotate(0) translate(4 362)">
<title>Control&#45;flow graph for function &#39;function_23bd6()&#39;.</title>
<polygon fill="white" stroke="none" points="-4,4 -4,-362 486,-362 486,4 -4,4"/>
<text text-anchor="middle" x="241" y="-7.8" font-family="Times,serif" font-size="14.00">Control&#45;flow graph for function &#39;function_23bd6()&#39;.</text>
<!-- Node0x310a4370 -->
<g id="node1" class="node"><title>Node0x310a4370</title>
<polygon fill="none" stroke="black" points="211.5,-321.5 211.5,-357.5 270.5,-357.5 270.5,-321.5 211.5,-321.5"/>
<text text-anchor="start" x="219.5" y="-335.8" font-family="Times,serif" font-size="14.00">entry:</text>
</g>
<!-- Node0x310a8830 -->
<g id="node2" class="node"><title>Node0x310a8830</title>
<polygon fill="none" stroke="black" points="-2.84217e-14,-96.5 -2.84217e-14,-284.5 482,-284.5 482,-96.5 -2.84217e-14,-96.5"/>
<text text-anchor="start" x="8" y="-269.3" font-family="Times,serif" font-size="14.00">0x1a376070:</text>
<text text-anchor="start" x="8" y="-254.3" font-family="Times,serif" font-size="14.00"> v1 = g29</text>
<text text-anchor="start" x="8" y="-239.3" font-family="Times,serif" font-size="14.00"> g40 = v1</text>
<text text-anchor="start" x="8" y="-224.3" font-family="Times,serif" font-size="14.00"> g29 = &#45;(v1)</text>
<text text-anchor="start" x="8" y="-209.3" font-family="Times,serif" font-size="14.00"> g30 = ((&#45;1 &#45; g30) + ExtCastExpr&lt;int32&gt;(((&#45;2 &#45; v1) &lt;= (&#45;1 &#45; v1))))</text>
<text text-anchor="start" x="8" y="-194.3" font-family="Times,serif" font-size="14.00"> g41 = &#45;1</text>
<text text-anchor="start" x="8" y="-179.3" font-family="Times,serif" font-size="14.00"> v2 = g37</text>
<text text-anchor="start" x="8" y="-164.3" font-family="Times,serif" font-size="14.00"> g8 = ((((v2 &#45; 2) ^ v2) &amp; (1 &#45; v2)) &lt; 0)</text>
<text text-anchor="start" x="8" y="-149.3" font-family="Times,serif" font-size="14.00"> g7 = (v2 &lt; 0)</text>
<text text-anchor="start" x="8" y="-134.3" font-family="Times,serif" font-size="14.00"> g9 = (v2 == 0)</text>
<text text-anchor="start" x="8" y="-119.3" font-family="Times,serif" font-size="14.00"> g6 = (v2 &gt; 1)</text>
<text text-anchor="start" x="8" y="-104.3" font-family="Times,serif" font-size="14.00"> function_239e8()</text>
</g>
<!-- Node0x310a4370&#45;&gt;Node0x310a8830 -->
<g id="edge1" class="edge"><title>Node0x310a4370&#45;&gt;Node0x310a8830</title>
<path fill="none" stroke="black" d="M241,-321.35C241,-314.079 241,-304.97 241,-294.967"/>
<polygon fill="black" stroke="black" points="244.5,-294.701 241,-284.702 237.5,-294.702 244.5,-294.701"/>
</g>
<!-- Node0x310a7310 -->
<g id="node3" class="node"><title>Node0x310a7310</title>
<polygon fill="none" stroke="black" points="214,-23.5 214,-59.5 268,-59.5 268,-23.5 214,-23.5"/>
<text text-anchor="start" x="222" y="-37.8" font-family="Times,serif" font-size="14.00">exit:</text>
</g>
<!-- Node0x310a8830&#45;&gt;Node0x310a7310 -->
<g id="edge2" class="edge"><title>Node0x310a8830&#45;&gt;Node0x310a7310</title>
<path fill="none" stroke="black" d="M241,-96.4027C241,-86.9531 241,-77.9697 241,-70.142"/>
<polygon fill="black" stroke="black" points="244.5,-69.9174 241,-59.9174 237.5,-69.9174 244.5,-69.9174"/>
</g>
</g>
</svg>
