<?xml version="1.0" encoding="UTF-8" standalone="no"?>
<!DOCTYPE svg PUBLIC "-//W3C//DTD SVG 1.1//EN"
 "http://www.w3.org/Graphics/SVG/1.1/DTD/svg11.dtd">
<!-- Generated by graphviz version 2.38.0 (20140413.2041)
 -->
<!-- Title: Control&#45;flow graph for function &#39;function_adcc()&#39;. Pages: 1 -->
<svg width="708pt" height="1603pt"
 viewBox="0.00 0.00 708.00 1603.00" xmlns="http://www.w3.org/2000/svg" xmlns:xlink="http://www.w3.org/1999/xlink">
<g id="graph0" class="graph" transform="scale(1 1) rotate(0) translate(4 1599)">
<title>Control&#45;flow graph for function &#39;function_adcc()&#39;.</title>
<polygon fill="white" stroke="none" points="-4,4 -4,-1599 704,-1599 704,4 -4,4"/>
<text text-anchor="middle" x="350" y="-7.8" font-family="Times,serif" font-size="14.00">Control&#45;flow graph for function &#39;function_adcc()&#39;.</text>
<!-- Node0x2e120210 -->
<g id="node1" class="node"><title>Node0x2e120210</title>
<polygon fill="none" stroke="black" points="140,-1558.5 140,-1594.5 199,-1594.5 199,-1558.5 140,-1558.5"/>
<text text-anchor="start" x="148" y="-1572.8" font-family="Times,serif" font-size="14.00">entry:</text>
</g>
<!-- Node0x1d7c7fe0 -->
<g id="node2" class="node"><title>Node0x1d7c7fe0</title>
<polygon fill="none" stroke="black" points="25.5,-1287.5 25.5,-1520.5 313.5,-1520.5 313.5,-1287.5 25.5,-1287.5"/>
<text text-anchor="start" x="33.5" y="-1505.3" font-family="Times,serif" font-size="14.00">0x10c74b50:</text>
<text text-anchor="start" x="33.5" y="-1490.3" font-family="Times,serif" font-size="14.00"> v1 = g38</text>
<text text-anchor="start" x="33.5" y="-1475.3" font-family="Times,serif" font-size="14.00"> v2 = g39</text>
<text text-anchor="start" x="33.5" y="-1460.3" font-family="Times,serif" font-size="14.00"> v3 = g40</text>
<text text-anchor="start" x="33.5" y="-1445.3" font-family="Times,serif" font-size="14.00"> v4 = g32</text>
<text text-anchor="start" x="33.5" y="-1430.3" font-family="Times,serif" font-size="14.00"> v5 = g35</text>
<text text-anchor="start" x="33.5" y="-1415.3" font-family="Times,serif" font-size="14.00"> v6 = *(IntToPtrCastExpr&lt;ptr&gt;(g29))</text>
<text text-anchor="start" x="33.5" y="-1400.3" font-family="Times,serif" font-size="14.00"> g36 = v6</text>
<text text-anchor="start" x="33.5" y="-1385.3" font-family="Times,serif" font-size="14.00"> v7 = g30</text>
<text text-anchor="start" x="33.5" y="-1370.3" font-family="Times,serif" font-size="14.00"> v8 = *(IntToPtrCastExpr&lt;ptr&gt;(v7))</text>
<text text-anchor="start" x="33.5" y="-1355.3" font-family="Times,serif" font-size="14.00"> g37 = v8</text>
<text text-anchor="start" x="33.5" y="-1340.3" font-family="Times,serif" font-size="14.00"> g38 = v7</text>
<text text-anchor="start" x="33.5" y="-1325.3" font-family="Times,serif" font-size="14.00"> g6 = (v6 &gt;= v8)</text>
<text text-anchor="start" x="33.5" y="-1310.3" font-family="Times,serif" font-size="14.00"> g9 = (v6 == v8)</text>
<text text-anchor="start" x="33.5" y="-1295.3" font-family="Times,serif" font-size="14.00"> v9</text>
</g>
<!-- Node0x2e120210&#45;&gt;Node0x1d7c7fe0 -->
<g id="edge1" class="edge"><title>Node0x2e120210&#45;&gt;Node0x1d7c7fe0</title>
<path fill="none" stroke="black" d="M169.5,-1558.21C169.5,-1550.69 169.5,-1541.17 169.5,-1530.57"/>
<polygon fill="black" stroke="black" points="173,-1530.56 169.5,-1520.56 166,-1530.56 173,-1530.56"/>
</g>
<!-- Node0x38e6d420 -->
<g id="node3" class="node"><title>Node0x38e6d420</title>
<polygon fill="none" stroke="black" points="113.5,-1211.5 113.5,-1249.5 225.5,-1249.5 225.5,-1211.5 113.5,-1211.5"/>
<text text-anchor="start" x="121.5" y="-1234.3" font-family="Times,serif" font-size="14.00">0x72ac760:</text>
<text text-anchor="start" x="121.5" y="-1219.3" font-family="Times,serif" font-size="14.00"> if (v6 != v8):</text>
</g>
<!-- Node0x1d7c7fe0&#45;&gt;Node0x38e6d420 -->
<g id="edge2" class="edge"><title>Node0x1d7c7fe0&#45;&gt;Node0x38e6d420</title>
<path fill="none" stroke="black" d="M169.5,-1287.18C169.5,-1277.25 169.5,-1267.94 169.5,-1259.88"/>
<polygon fill="black" stroke="black" points="173,-1259.72 169.5,-1249.72 166,-1259.72 173,-1259.72"/>
</g>
<!-- Node0x2662fc50 -->
<g id="node4" class="node"><title>Node0x2662fc50</title>
<polygon fill="none" stroke="black" points="0,-899.5 0,-1042.5 233,-1042.5 233,-899.5 0,-899.5"/>
<text text-anchor="start" x="8" y="-1027.3" font-family="Times,serif" font-size="14.00">0x72ac910:</text>
<text text-anchor="start" x="8" y="-1012.3" font-family="Times,serif" font-size="14.00"> g29 = 0</text>
<text text-anchor="start" x="8" y="-997.3" font-family="Times,serif" font-size="14.00"> g38 = v1</text>
<text text-anchor="start" x="8" y="-982.3" font-family="Times,serif" font-size="14.00"> g39 = v2</text>
<text text-anchor="start" x="8" y="-967.3" font-family="Times,serif" font-size="14.00"> g40 = v3</text>
<text text-anchor="start" x="8" y="-952.3" font-family="Times,serif" font-size="14.00"> g32 = v4</text>
<text text-anchor="start" x="8" y="-937.3" font-family="Times,serif" font-size="14.00"> g34 = v9</text>
<text text-anchor="start" x="8" y="-922.3" font-family="Times,serif" font-size="14.00"> IntToPtrCastExpr&lt;ptr&gt;(v5)()</text>
<text text-anchor="start" x="8" y="-907.3" font-family="Times,serif" font-size="14.00"> return</text>
</g>
<!-- Node0x38e6d420&#45;&gt;Node0x2662fc50 -->
<g id="edge3" class="edge"><title>Node0x38e6d420&#45;&gt;Node0x2662fc50</title>
<path fill="none" stroke="black" d="M141.366,-1211.44C135.443,-1206.23 129.95,-1200.03 126.5,-1193 105.392,-1149.97 102.485,-1096.39 105.051,-1052.76"/>
<polygon fill="black" stroke="black" points="108.544,-1052.97 105.744,-1042.75 101.561,-1052.48 108.544,-1052.97"/>
<text text-anchor="middle" x="157.5" y="-1181.8" font-family="Times,serif" font-size="14.00">v6 != v8</text>
</g>
<!-- Node0x31499a40 -->
<g id="node5" class="node"><title>Node0x31499a40</title>
<polygon fill="none" stroke="black" points="170,-1061.5 170,-1159.5 309,-1159.5 309,-1061.5 170,-1061.5"/>
<text text-anchor="start" x="178" y="-1144.3" font-family="Times,serif" font-size="14.00">0x72a7920:</text>
<text text-anchor="start" x="178" y="-1129.3" font-family="Times,serif" font-size="14.00"> g36 = 128</text>
<text text-anchor="start" x="178" y="-1114.3" font-family="Times,serif" font-size="14.00"> function_abd0()</text>
<text text-anchor="start" x="178" y="-1099.3" font-family="Times,serif" font-size="14.00"> v10 = g29</text>
<text text-anchor="start" x="178" y="-1084.3" font-family="Times,serif" font-size="14.00"> g6 = True</text>
<text text-anchor="start" x="178" y="-1069.3" font-family="Times,serif" font-size="14.00"> g9 = (v10 == 0)</text>
</g>
<!-- Node0x38e6d420&#45;&gt;Node0x31499a40 -->
<g id="edge4" class="edge"><title>Node0x38e6d420&#45;&gt;Node0x31499a40</title>
<path fill="none" stroke="black" d="M180.284,-1211.32C187.209,-1199.65 196.614,-1183.79 205.889,-1168.16"/>
<polygon fill="black" stroke="black" points="208.92,-1169.91 211.012,-1159.52 202.899,-1166.34 208.92,-1169.91"/>
<text text-anchor="middle" x="232.5" y="-1181.8" font-family="Times,serif" font-size="14.00">v6 == v8</text>
</g>
<!-- Node0x2210b170 -->
<g id="node6" class="node"><title>Node0x2210b170</title>
<polygon fill="none" stroke="black" points="127.5,-23.5 127.5,-59.5 181.5,-59.5 181.5,-23.5 127.5,-23.5"/>
<text text-anchor="start" x="135.5" y="-37.8" font-family="Times,serif" font-size="14.00">exit:</text>
</g>
<!-- Node0x2662fc50&#45;&gt;Node0x2210b170 -->
<g id="edge5" class="edge"><title>Node0x2662fc50&#45;&gt;Node0x2210b170</title>
<path fill="none" stroke="black" d="M116.5,-899.39C116.5,-873.618 116.5,-844.24 116.5,-817.5 116.5,-817.5 116.5,-817.5 116.5,-160.5 116.5,-127.732 129.941,-92.2038 140.835,-68.7881"/>
<polygon fill="black" stroke="black" points="144.105,-70.0649 145.301,-59.5378 137.801,-67.0212 144.105,-70.0649"/>
</g>
<!-- Node0x314964a0 -->
<g id="node7" class="node"><title>Node0x314964a0</title>
<polygon fill="none" stroke="black" points="189,-842.5 189,-880.5 308,-880.5 308,-842.5 189,-842.5"/>
<text text-anchor="start" x="197" y="-865.3" font-family="Times,serif" font-size="14.00">0x72ab7f0:</text>
<text text-anchor="start" x="197" y="-850.3" font-family="Times,serif" font-size="14.00"> if (v10 == 0):</text>
</g>
<!-- Node0x31499a40&#45;&gt;Node0x314964a0 -->
<g id="edge6" class="edge"><title>Node0x31499a40&#45;&gt;Node0x314964a0</title>
<path fill="none" stroke="black" d="M241.257,-1061.29C243.102,-1010.64 245.943,-932.673 247.46,-891.03"/>
<polygon fill="black" stroke="black" points="250.967,-890.903 247.834,-880.782 243.972,-890.648 250.967,-890.903"/>
</g>
<!-- Node0x2e122730 -->
<g id="node8" class="node"><title>Node0x2e122730</title>
<polygon fill="none" stroke="black" points="132,-500.5 132,-643.5 365,-643.5 365,-500.5 132,-500.5"/>
<text text-anchor="start" x="140" y="-628.3" font-family="Times,serif" font-size="14.00">0x72abba0:</text>
<text text-anchor="start" x="140" y="-613.3" font-family="Times,serif" font-size="14.00"> g29 = 0</text>
<text text-anchor="start" x="140" y="-598.3" font-family="Times,serif" font-size="14.00"> g38 = v1</text>
<text text-anchor="start" x="140" y="-583.3" font-family="Times,serif" font-size="14.00"> g39 = v2</text>
<text text-anchor="start" x="140" y="-568.3" font-family="Times,serif" font-size="14.00"> g40 = v3</text>
<text text-anchor="start" x="140" y="-553.3" font-family="Times,serif" font-size="14.00"> g32 = v4</text>
<text text-anchor="start" x="140" y="-538.3" font-family="Times,serif" font-size="14.00"> g34 = v9</text>
<text text-anchor="start" x="140" y="-523.3" font-family="Times,serif" font-size="14.00"> IntToPtrCastExpr&lt;ptr&gt;(v5)()</text>
<text text-anchor="start" x="140" y="-508.3" font-family="Times,serif" font-size="14.00"> return</text>
</g>
<!-- Node0x314964a0&#45;&gt;Node0x2e122730 -->
<g id="edge7" class="edge"><title>Node0x314964a0&#45;&gt;Node0x2e122730</title>
<path fill="none" stroke="black" d="M248.5,-842.078C248.5,-804.845 248.5,-718.662 248.5,-653.794"/>
<polygon fill="black" stroke="black" points="252,-653.577 248.5,-643.577 245,-653.577 252,-653.577"/>
<text text-anchor="middle" x="283" y="-812.8" font-family="Times,serif" font-size="14.00">v10 == 0</text>
</g>
<!-- Node0x1766a1f0 -->
<g id="node9" class="node"><title>Node0x1766a1f0</title>
<polygon fill="none" stroke="black" points="295,-662.5 295,-790.5 434,-790.5 434,-662.5 295,-662.5"/>
<text text-anchor="start" x="303" y="-775.3" font-family="Times,serif" font-size="14.00">0x72a8810:</text>
<text text-anchor="start" x="303" y="-760.3" font-family="Times,serif" font-size="14.00"> g29 = g38</text>
<text text-anchor="start" x="303" y="-745.3" font-family="Times,serif" font-size="14.00"> g36 = 128</text>
<text text-anchor="start" x="303" y="-730.3" font-family="Times,serif" font-size="14.00"> function_abd0()</text>
<text text-anchor="start" x="303" y="-715.3" font-family="Times,serif" font-size="14.00"> v11 = g29</text>
<text text-anchor="start" x="303" y="-700.3" font-family="Times,serif" font-size="14.00"> g6 = True</text>
<text text-anchor="start" x="303" y="-685.3" font-family="Times,serif" font-size="14.00"> g9 = (v11 == 0)</text>
<text text-anchor="start" x="303" y="-670.3" font-family="Times,serif" font-size="14.00"> v12</text>
</g>
<!-- Node0x314964a0&#45;&gt;Node0x1766a1f0 -->
<g id="edge8" class="edge"><title>Node0x314964a0&#45;&gt;Node0x1766a1f0</title>
<path fill="none" stroke="black" d="M296.496,-842.464C305.589,-837.485 314.448,-831.373 321.5,-824 328.346,-816.843 334.217,-808.411 339.22,-799.561"/>
<polygon fill="black" stroke="black" points="342.375,-801.083 343.938,-790.604 336.181,-797.821 342.375,-801.083"/>
<text text-anchor="middle" x="363" y="-812.8" font-family="Times,serif" font-size="14.00">v10 != 0</text>
</g>
<!-- Node0x2e122730&#45;&gt;Node0x2210b170 -->
<g id="edge9" class="edge"><title>Node0x2e122730&#45;&gt;Node0x2210b170</title>
<path fill="none" stroke="black" d="M188.171,-500.241C169.865,-471.998 154.5,-438.013 154.5,-403.5 154.5,-403.5 154.5,-403.5 154.5,-160.5 154.5,-129.411 154.5,-93.714 154.5,-69.7977"/>
<polygon fill="black" stroke="black" points="158,-69.697 154.5,-59.697 151,-69.697 158,-69.697"/>
</g>
<!-- Node0x26634990 -->
<g id="node10" class="node"><title>Node0x26634990</title>
<polygon fill="none" stroke="black" points="326,-428.5 326,-481.5 439,-481.5 439,-428.5 326,-428.5"/>
<text text-anchor="start" x="334" y="-466.3" font-family="Times,serif" font-size="14.00">0x72aa960:</text>
<text text-anchor="start" x="334" y="-451.3" font-family="Times,serif" font-size="14.00"> if (v11 != 0):</text>
<text text-anchor="start" x="334" y="-436.3" font-family="Times,serif" font-size="14.00"> else:</text>
</g>
<!-- Node0x1766a1f0&#45;&gt;Node0x26634990 -->
<g id="edge10" class="edge"><title>Node0x1766a1f0&#45;&gt;Node0x26634990</title>
<path fill="none" stroke="black" d="M368.72,-662.314C372.272,-609.135 377.223,-535.007 380.122,-491.603"/>
<polygon fill="black" stroke="black" points="383.621,-491.734 380.795,-481.523 376.637,-491.267 383.621,-491.734"/>
</g>
<!-- Node0x15d76c20 -->
<g id="node11" class="node"><title>Node0x15d76c20</title>
<polygon fill="none" stroke="black" points="182,-263.5 182,-376.5 583,-376.5 583,-263.5 182,-263.5"/>
<text text-anchor="start" x="190" y="-361.3" font-family="Times,serif" font-size="14.00">0x16c5d610:</text>
<text text-anchor="start" x="190" y="-346.3" font-family="Times,serif" font-size="14.00"> v13</text>
<text text-anchor="start" x="190" y="-331.3" font-family="Times,serif" font-size="14.00"> str</text>
<text text-anchor="start" x="190" y="-316.3" font-family="Times,serif" font-size="14.00"> strcmp_rc = strcmp(BitCastExpr&lt;ptr&gt;(&amp;(v13)), str)</text>
<text text-anchor="start" x="190" y="-301.3" font-family="Times,serif" font-size="14.00"> g6 = (strcmp_rc &lt; 2)</text>
<text text-anchor="start" x="190" y="-286.3" font-family="Times,serif" font-size="14.00"> g9 = (strcmp_rc == 1)</text>
<text text-anchor="start" x="190" y="-271.3" font-family="Times,serif" font-size="14.00"> v12 = (0 if (strcmp_rc &gt; 1) else (1 &#45; strcmp_rc))</text>
</g>
<!-- Node0x26634990&#45;&gt;Node0x15d76c20 -->
<g id="edge11" class="edge"><title>Node0x26634990&#45;&gt;Node0x15d76c20</title>
<path fill="none" stroke="black" d="M382.5,-428.356C382.5,-416.397 382.5,-401.559 382.5,-386.769"/>
<polygon fill="black" stroke="black" points="386,-386.573 382.5,-376.573 379,-386.573 386,-386.573"/>
<text text-anchor="middle" x="414" y="-398.8" font-family="Times,serif" font-size="14.00">v11 != 0</text>
</g>
<!-- Node0x266330e0 -->
<g id="node12" class="node"><title>Node0x266330e0</title>
<polygon fill="none" stroke="black" points="601,-301 601,-339 700,-339 700,-301 601,-301"/>
<text text-anchor="start" x="609" y="-323.8" font-family="Times,serif" font-size="14.00">0x72aaa80:</text>
<text text-anchor="start" x="609" y="-308.8" font-family="Times,serif" font-size="14.00"> v12 = 0</text>
</g>
<!-- Node0x26634990&#45;&gt;Node0x266330e0 -->
<g id="edge12" class="edge"><title>Node0x26634990&#45;&gt;Node0x266330e0</title>
<path fill="none" stroke="black" d="M439.338,-440.112C483.329,-427.768 544.619,-406.995 592.5,-377 605.672,-368.748 618.33,-357.118 628.441,-346.593"/>
<polygon fill="black" stroke="black" points="631.079,-348.896 635.325,-339.189 625.953,-344.13 631.079,-348.896"/>
<text text-anchor="middle" x="589" y="-398.8" font-family="Times,serif" font-size="14.00">v11 == 0</text>
</g>
<!-- Node0x351cd360 -->
<g id="node13" class="node"><title>Node0x351cd360</title>
<polygon fill="none" stroke="black" points="266,-97.5 266,-225.5 499,-225.5 499,-97.5 266,-97.5"/>
<text text-anchor="start" x="274" y="-210.3" font-family="Times,serif" font-size="14.00">0x72aaca0:</text>
<text text-anchor="start" x="274" y="-195.3" font-family="Times,serif" font-size="14.00"> g29 = v12</text>
<text text-anchor="start" x="274" y="-180.3" font-family="Times,serif" font-size="14.00"> g38 = v1</text>
<text text-anchor="start" x="274" y="-165.3" font-family="Times,serif" font-size="14.00"> g39 = v2</text>
<text text-anchor="start" x="274" y="-150.3" font-family="Times,serif" font-size="14.00"> g40 = v3</text>
<text text-anchor="start" x="274" y="-135.3" font-family="Times,serif" font-size="14.00"> g32 = v4</text>
<text text-anchor="start" x="274" y="-120.3" font-family="Times,serif" font-size="14.00"> g34 = v9</text>
<text text-anchor="start" x="274" y="-105.3" font-family="Times,serif" font-size="14.00"> IntToPtrCastExpr&lt;ptr&gt;(v5)()</text>
</g>
<!-- Node0x15d76c20&#45;&gt;Node0x351cd360 -->
<g id="edge13" class="edge"><title>Node0x15d76c20&#45;&gt;Node0x351cd360</title>
<path fill="none" stroke="black" d="M382.5,-263.383C382.5,-254.415 382.5,-245.013 382.5,-235.706"/>
<polygon fill="black" stroke="black" points="386,-235.67 382.5,-225.67 379,-235.67 386,-235.67"/>
</g>
<!-- Node0x266330e0&#45;&gt;Node0x351cd360 -->
<g id="edge14" class="edge"><title>Node0x266330e0&#45;&gt;Node0x351cd360</title>
<path fill="none" stroke="black" d="M634.521,-300.78C623.526,-288.986 608.134,-273.86 592.5,-263 566.59,-245.002 536.958,-228.637 508.282,-214.581"/>
<polygon fill="black" stroke="black" points="509.538,-211.301 499.011,-210.1 506.491,-217.603 509.538,-211.301"/>
</g>
<!-- Node0x351cd360&#45;&gt;Node0x2210b170 -->
<g id="edge15" class="edge"><title>Node0x351cd360&#45;&gt;Node0x2210b170</title>
<path fill="none" stroke="black" d="M265.828,-100.117C238.465,-85.9557 211.308,-71.9004 190.666,-61.2173"/>
<polygon fill="black" stroke="black" points="192.153,-58.0459 181.663,-56.5579 188.935,-64.2627 192.153,-58.0459"/>
</g>
</g>
</svg>
