<?xml version="1.0" encoding="UTF-8" standalone="no"?>
<!DOCTYPE svg PUBLIC "-//W3C//DTD SVG 1.1//EN"
 "http://www.w3.org/Graphics/SVG/1.1/DTD/svg11.dtd">
<!-- Generated by graphviz version 2.38.0 (20140413.2041)
 -->
<!-- Title: Control&#45;flow graph for function &#39;function_63c0()&#39;. Pages: 1 -->
<svg width="1429pt" height="3016pt"
 viewBox="0.00 0.00 1429.00 3016.00" xmlns="http://www.w3.org/2000/svg" xmlns:xlink="http://www.w3.org/1999/xlink">
<g id="graph0" class="graph" transform="scale(1 1) rotate(0) translate(4 3012)">
<title>Control&#45;flow graph for function &#39;function_63c0()&#39;.</title>
<polygon fill="white" stroke="none" points="-4,4 -4,-3012 1425,-3012 1425,4 -4,4"/>
<text text-anchor="middle" x="710.5" y="-7.8" font-family="Times,serif" font-size="14.00">Control&#45;flow graph for function &#39;function_63c0()&#39;.</text>
<!-- Node0x230055b0 -->
<g id="node1" class="node"><title>Node0x230055b0</title>
<polygon fill="none" stroke="black" points="155,-2971.5 155,-3007.5 214,-3007.5 214,-2971.5 155,-2971.5"/>
<text text-anchor="start" x="163" y="-2985.8" font-family="Times,serif" font-size="14.00">entry:</text>
</g>
<!-- Node0x35677620 -->
<g id="node2" class="node"><title>Node0x35677620</title>
<polygon fill="none" stroke="black" points="25,-2685.5 25,-2933.5 344,-2933.5 344,-2685.5 25,-2685.5"/>
<text text-anchor="start" x="33" y="-2918.3" font-family="Times,serif" font-size="14.00">0x1c9b5e70:</text>
<text text-anchor="start" x="33" y="-2903.3" font-family="Times,serif" font-size="14.00"> v1 = g38</text>
<text text-anchor="start" x="33" y="-2888.3" font-family="Times,serif" font-size="14.00"> v2 = g39</text>
<text text-anchor="start" x="33" y="-2873.3" font-family="Times,serif" font-size="14.00"> v3 = g40</text>
<text text-anchor="start" x="33" y="-2858.3" font-family="Times,serif" font-size="14.00"> v4 = g41</text>
<text text-anchor="start" x="33" y="-2843.3" font-family="Times,serif" font-size="14.00"> v5 = g32</text>
<text text-anchor="start" x="33" y="-2828.3" font-family="Times,serif" font-size="14.00"> v6 = g35</text>
<text text-anchor="start" x="33" y="-2813.3" font-family="Times,serif" font-size="14.00"> v7 = g29</text>
<text text-anchor="start" x="33" y="-2798.3" font-family="Times,serif" font-size="14.00"> v8 = IntToPtrCastExpr&lt;ptr&gt;((v7 + 108))</text>
<text text-anchor="start" x="33" y="-2783.3" font-family="Times,serif" font-size="14.00"> v9 = *(v8)</text>
<text text-anchor="start" x="33" y="-2768.3" font-family="Times,serif" font-size="14.00"> g37 = v9</text>
<text text-anchor="start" x="33" y="-2753.3" font-family="Times,serif" font-size="14.00"> g38 = v7</text>
<text text-anchor="start" x="33" y="-2738.3" font-family="Times,serif" font-size="14.00"> g8 = False</text>
<text text-anchor="start" x="33" y="-2723.3" font-family="Times,serif" font-size="14.00"> g7 = (v9 &lt; 0)</text>
<text text-anchor="start" x="33" y="-2708.3" font-family="Times,serif" font-size="14.00"> g9 = (v9 == 0)</text>
<text text-anchor="start" x="33" y="-2693.3" font-family="Times,serif" font-size="14.00"> v10</text>
</g>
<!-- Node0x230055b0&#45;&gt;Node0x35677620 -->
<g id="edge1" class="edge"><title>Node0x230055b0&#45;&gt;Node0x35677620</title>
<path fill="none" stroke="black" d="M184.5,-2971.43C184.5,-2963.97 184.5,-2954.49 184.5,-2943.89"/>
<polygon fill="black" stroke="black" points="188,-2943.85 184.5,-2933.85 181,-2943.85 188,-2943.85"/>
</g>
<!-- Node0x455fe2d0 -->
<g id="node3" class="node"><title>Node0x455fe2d0</title>
<polygon fill="none" stroke="black" points="129.5,-2609.5 129.5,-2647.5 239.5,-2647.5 239.5,-2609.5 129.5,-2609.5"/>
<text text-anchor="start" x="137.5" y="-2632.3" font-family="Times,serif" font-size="14.00">0x60e1a10:</text>
<text text-anchor="start" x="137.5" y="-2617.3" font-family="Times,serif" font-size="14.00"> if (v9 == 0):</text>
</g>
<!-- Node0x35677620&#45;&gt;Node0x455fe2d0 -->
<g id="edge2" class="edge"><title>Node0x35677620&#45;&gt;Node0x455fe2d0</title>
<path fill="none" stroke="black" d="M184.5,-2685.16C184.5,-2675.16 184.5,-2665.83 184.5,-2657.77"/>
<polygon fill="black" stroke="black" points="188,-2657.63 184.5,-2647.63 181,-2657.63 188,-2657.63"/>
</g>
<!-- Node0x356749c0 -->
<g id="node4" class="node"><title>Node0x356749c0</title>
<polygon fill="none" stroke="black" points="0,-2282.5 0,-2440.5 233,-2440.5 233,-2282.5 0,-2282.5"/>
<text text-anchor="start" x="8" y="-2425.3" font-family="Times,serif" font-size="14.00">0x60e1000:</text>
<text text-anchor="start" x="8" y="-2410.3" font-family="Times,serif" font-size="14.00"> g29 = 0</text>
<text text-anchor="start" x="8" y="-2395.3" font-family="Times,serif" font-size="14.00"> g38 = v1</text>
<text text-anchor="start" x="8" y="-2380.3" font-family="Times,serif" font-size="14.00"> g39 = v2</text>
<text text-anchor="start" x="8" y="-2365.3" font-family="Times,serif" font-size="14.00"> g40 = v3</text>
<text text-anchor="start" x="8" y="-2350.3" font-family="Times,serif" font-size="14.00"> g41 = v4</text>
<text text-anchor="start" x="8" y="-2335.3" font-family="Times,serif" font-size="14.00"> g32 = v5</text>
<text text-anchor="start" x="8" y="-2320.3" font-family="Times,serif" font-size="14.00"> g34 = v10</text>
<text text-anchor="start" x="8" y="-2305.3" font-family="Times,serif" font-size="14.00"> IntToPtrCastExpr&lt;ptr&gt;(v6)()</text>
<text text-anchor="start" x="8" y="-2290.3" font-family="Times,serif" font-size="14.00"> return</text>
</g>
<!-- Node0x455fe2d0&#45;&gt;Node0x356749c0 -->
<g id="edge3" class="edge"><title>Node0x455fe2d0&#45;&gt;Node0x356749c0</title>
<path fill="none" stroke="black" d="M167.626,-2609.27C156.474,-2596.07 142.642,-2577.24 135.5,-2558 122.969,-2524.25 117.542,-2485.08 115.492,-2450.71"/>
<polygon fill="black" stroke="black" points="118.985,-2450.49 114.979,-2440.68 111.994,-2450.85 118.985,-2450.49"/>
<text text-anchor="middle" x="183.5" y="-2579.8" font-family="Times,serif" font-size="14.00">v9 == 0</text>
</g>
<!-- Node0x23c4fc10 -->
<g id="node5" class="node"><title>Node0x23c4fc10</title>
<polygon fill="none" stroke="black" points="144.5,-2459.5 144.5,-2557.5 472.5,-2557.5 472.5,-2459.5 144.5,-2459.5"/>
<text text-anchor="start" x="152.5" y="-2542.3" font-family="Times,serif" font-size="14.00">0x11deb4b0:</text>
<text text-anchor="start" x="152.5" y="-2527.3" font-family="Times,serif" font-size="14.00"> v11 = *(IntToPtrCastExpr&lt;ptr&gt;((v7 + 4)))</text>
<text text-anchor="start" x="152.5" y="-2512.3" font-family="Times,serif" font-size="14.00"> g37 = v11</text>
<text text-anchor="start" x="152.5" y="-2497.3" font-family="Times,serif" font-size="14.00"> g8 = False</text>
<text text-anchor="start" x="152.5" y="-2482.3" font-family="Times,serif" font-size="14.00"> g7 = (v11 &lt; 0)</text>
<text text-anchor="start" x="152.5" y="-2467.3" font-family="Times,serif" font-size="14.00"> g9 = (v11 == 0)</text>
</g>
<!-- Node0x455fe2d0&#45;&gt;Node0x23c4fc10 -->
<g id="edge4" class="edge"><title>Node0x455fe2d0&#45;&gt;Node0x23c4fc10</title>
<path fill="none" stroke="black" d="M203.603,-2609.32C216.324,-2597.22 233.771,-2580.61 250.785,-2564.42"/>
<polygon fill="black" stroke="black" points="253.204,-2566.95 258.035,-2557.52 248.378,-2561.88 253.204,-2566.95"/>
<text text-anchor="middle" x="262.5" y="-2579.8" font-family="Times,serif" font-size="14.00">v9 != 0</text>
</g>
<!-- Node0x3ef6bf60 -->
<g id="node6" class="node"><title>Node0x3ef6bf60</title>
<polygon fill="none" stroke="black" points="284.5,-23.5 284.5,-59.5 338.5,-59.5 338.5,-23.5 284.5,-23.5"/>
<text text-anchor="start" x="292.5" y="-37.8" font-family="Times,serif" font-size="14.00">exit:</text>
</g>
<!-- Node0x356749c0&#45;&gt;Node0x3ef6bf60 -->
<g id="edge5" class="edge"><title>Node0x356749c0&#45;&gt;Node0x3ef6bf60</title>
<path fill="none" stroke="black" d="M116.5,-2282.38C116.5,-2256.33 116.5,-2227.17 116.5,-2200.5 116.5,-2200.5 116.5,-2200.5 116.5,-228 116.5,-141.427 218.645,-83.0003 275.079,-57.3268"/>
<polygon fill="black" stroke="black" points="276.663,-60.4534 284.386,-53.2008 273.826,-54.0541 276.663,-60.4534"/>
</g>
<!-- Node0x1c5bd970 -->
<g id="node7" class="node"><title>Node0x1c5bd970</title>
<polygon fill="none" stroke="black" points="249,-2225.5 249,-2263.5 368,-2263.5 368,-2225.5 249,-2225.5"/>
<text text-anchor="start" x="257" y="-2248.3" font-family="Times,serif" font-size="14.00">0x60e3660:</text>
<text text-anchor="start" x="257" y="-2233.3" font-family="Times,serif" font-size="14.00"> if (v11 == 0):</text>
</g>
<!-- Node0x23c4fc10&#45;&gt;Node0x1c5bd970 -->
<g id="edge6" class="edge"><title>Node0x23c4fc10&#45;&gt;Node0x1c5bd970</title>
<path fill="none" stroke="black" d="M308.5,-2459.45C308.5,-2404.99 308.5,-2318.05 308.5,-2273.63"/>
<polygon fill="black" stroke="black" points="312,-2273.55 308.5,-2263.55 305,-2273.55 312,-2273.55"/>
</g>
<!-- Node0x2520c240 -->
<g id="node8" class="node"><title>Node0x2520c240</title>
<polygon fill="none" stroke="black" points="132,-1898.5 132,-2056.5 365,-2056.5 365,-1898.5 132,-1898.5"/>
<text text-anchor="start" x="140" y="-2041.3" font-family="Times,serif" font-size="14.00">0x60e2b30:</text>
<text text-anchor="start" x="140" y="-2026.3" font-family="Times,serif" font-size="14.00"> g29 = 0</text>
<text text-anchor="start" x="140" y="-2011.3" font-family="Times,serif" font-size="14.00"> g38 = v1</text>
<text text-anchor="start" x="140" y="-1996.3" font-family="Times,serif" font-size="14.00"> g39 = v2</text>
<text text-anchor="start" x="140" y="-1981.3" font-family="Times,serif" font-size="14.00"> g40 = v3</text>
<text text-anchor="start" x="140" y="-1966.3" font-family="Times,serif" font-size="14.00"> g41 = v4</text>
<text text-anchor="start" x="140" y="-1951.3" font-family="Times,serif" font-size="14.00"> g32 = v5</text>
<text text-anchor="start" x="140" y="-1936.3" font-family="Times,serif" font-size="14.00"> g34 = v10</text>
<text text-anchor="start" x="140" y="-1921.3" font-family="Times,serif" font-size="14.00"> IntToPtrCastExpr&lt;ptr&gt;(v6)()</text>
<text text-anchor="start" x="140" y="-1906.3" font-family="Times,serif" font-size="14.00"> return</text>
</g>
<!-- Node0x1c5bd970&#45;&gt;Node0x2520c240 -->
<g id="edge7" class="edge"><title>Node0x1c5bd970&#45;&gt;Node0x2520c240</title>
<path fill="none" stroke="black" d="M292.913,-2225.25C288.551,-2219.62 284.039,-2213.26 280.5,-2207 272.738,-2193.28 271.187,-2189.33 267.5,-2174 259.224,-2139.6 254.535,-2100.96 251.886,-2067.18"/>
<polygon fill="black" stroke="black" points="255.351,-2066.58 251.127,-2056.86 248.37,-2067.09 255.351,-2066.58"/>
<text text-anchor="middle" x="315" y="-2195.8" font-family="Times,serif" font-size="14.00">v11 == 0</text>
</g>
<!-- Node0x41d13910 -->
<g id="node9" class="node"><title>Node0x41d13910</title>
<polygon fill="none" stroke="black" points="277,-2075.5 277,-2173.5 614,-2173.5 614,-2075.5 277,-2075.5"/>
<text text-anchor="start" x="285" y="-2158.3" font-family="Times,serif" font-size="14.00">0x1bbc8f50:</text>
<text text-anchor="start" x="285" y="-2143.3" font-family="Times,serif" font-size="14.00"> v12 = *(IntToPtrCastExpr&lt;ptr&gt;((v11 + 5)))</text>
<text text-anchor="start" x="285" y="-2128.3" font-family="Times,serif" font-size="14.00"> g37 = v12</text>
<text text-anchor="start" x="285" y="-2113.3" font-family="Times,serif" font-size="14.00"> g8 = False</text>
<text text-anchor="start" x="285" y="-2098.3" font-family="Times,serif" font-size="14.00"> g7 = (v12 &lt; 0)</text>
<text text-anchor="start" x="285" y="-2083.3" font-family="Times,serif" font-size="14.00"> g9 = (v12 == 0)</text>
</g>
<!-- Node0x1c5bd970&#45;&gt;Node0x41d13910 -->
<g id="edge8" class="edge"><title>Node0x1c5bd970&#45;&gt;Node0x41d13910</title>
<path fill="none" stroke="black" d="M329.606,-2225.32C343.723,-2213.16 363.108,-2196.47 381.986,-2180.21"/>
<polygon fill="black" stroke="black" points="384.452,-2182.7 389.744,-2173.52 379.883,-2177.4 384.452,-2182.7"/>
<text text-anchor="middle" x="397" y="-2195.8" font-family="Times,serif" font-size="14.00">v11 != 0</text>
</g>
<!-- Node0x2520c240&#45;&gt;Node0x3ef6bf60 -->
<g id="edge9" class="edge"><title>Node0x2520c240&#45;&gt;Node0x3ef6bf60</title>
<path fill="none" stroke="black" d="M239.613,-1898.48C237.328,-1872.44 235.5,-1843.25 235.5,-1816.5 235.5,-1816.5 235.5,-1816.5 235.5,-228 235.5,-168.809 232.611,-149.731 259.5,-97 265.255,-85.7137 274.101,-75.1648 282.874,-66.4115"/>
<polygon fill="black" stroke="black" points="285.31,-68.9253 290.157,-59.5043 280.493,-63.8462 285.31,-68.9253"/>
</g>
<!-- Node0x46cea4f0 -->
<g id="node10" class="node"><title>Node0x46cea4f0</title>
<polygon fill="none" stroke="black" points="386,-1841.5 386,-1879.5 505,-1879.5 505,-1841.5 386,-1841.5"/>
<text text-anchor="start" x="394" y="-1864.3" font-family="Times,serif" font-size="14.00">0x60e5630:</text>
<text text-anchor="start" x="394" y="-1849.3" font-family="Times,serif" font-size="14.00"> if (v12 == 0):</text>
</g>
<!-- Node0x41d13910&#45;&gt;Node0x46cea4f0 -->
<g id="edge10" class="edge"><title>Node0x41d13910&#45;&gt;Node0x46cea4f0</title>
<path fill="none" stroke="black" d="M445.5,-2075.45C445.5,-2020.99 445.5,-1934.05 445.5,-1889.63"/>
<polygon fill="black" stroke="black" points="449,-1889.55 445.5,-1879.55 442,-1889.55 449,-1889.55"/>
</g>
<!-- Node0x15385880 -->
<g id="node11" class="node"><title>Node0x15385880</title>
<polygon fill="none" stroke="black" points="251,-1469.5 251,-1627.5 484,-1627.5 484,-1469.5 251,-1469.5"/>
<text text-anchor="start" x="259" y="-1612.3" font-family="Times,serif" font-size="14.00">0x60e4b80:</text>
<text text-anchor="start" x="259" y="-1597.3" font-family="Times,serif" font-size="14.00"> g29 = 0</text>
<text text-anchor="start" x="259" y="-1582.3" font-family="Times,serif" font-size="14.00"> g38 = v1</text>
<text text-anchor="start" x="259" y="-1567.3" font-family="Times,serif" font-size="14.00"> g39 = v2</text>
<text text-anchor="start" x="259" y="-1552.3" font-family="Times,serif" font-size="14.00"> g40 = v3</text>
<text text-anchor="start" x="259" y="-1537.3" font-family="Times,serif" font-size="14.00"> g41 = v4</text>
<text text-anchor="start" x="259" y="-1522.3" font-family="Times,serif" font-size="14.00"> g32 = v5</text>
<text text-anchor="start" x="259" y="-1507.3" font-family="Times,serif" font-size="14.00"> g34 = v10</text>
<text text-anchor="start" x="259" y="-1492.3" font-family="Times,serif" font-size="14.00"> IntToPtrCastExpr&lt;ptr&gt;(v6)()</text>
<text text-anchor="start" x="259" y="-1477.3" font-family="Times,serif" font-size="14.00"> return</text>
</g>
<!-- Node0x46cea4f0&#45;&gt;Node0x15385880 -->
<g id="edge11" class="edge"><title>Node0x46cea4f0&#45;&gt;Node0x15385880</title>
<path fill="none" stroke="black" d="M403.817,-1841.46C396.601,-1836.51 389.988,-1830.4 385.5,-1823 352.105,-1767.91 348.995,-1694.61 353.479,-1637.76"/>
<polygon fill="black" stroke="black" points="356.974,-1637.97 354.364,-1627.7 350.001,-1637.36 356.974,-1637.97"/>
<text text-anchor="middle" x="420" y="-1811.8" font-family="Times,serif" font-size="14.00">v12 == 0</text>
</g>
<!-- Node0x39b88460 -->
<g id="node12" class="node"><title>Node0x39b88460</title>
<polygon fill="none" stroke="black" points="419.5,-1646.5 419.5,-1789.5 563.5,-1789.5 563.5,-1646.5 419.5,-1646.5"/>
<text text-anchor="start" x="427.5" y="-1774.3" font-family="Times,serif" font-size="14.00">0x22562470:</text>
<text text-anchor="start" x="427.5" y="-1759.3" font-family="Times,serif" font-size="14.00"> v13 = (v7 + 100)</text>
<text text-anchor="start" x="427.5" y="-1744.3" font-family="Times,serif" font-size="14.00"> g39 = v13</text>
<text text-anchor="start" x="427.5" y="-1729.3" font-family="Times,serif" font-size="14.00"> v14 = *(v8)</text>
<text text-anchor="start" x="427.5" y="-1714.3" font-family="Times,serif" font-size="14.00"> g37 = v14</text>
<text text-anchor="start" x="427.5" y="-1699.3" font-family="Times,serif" font-size="14.00"> g29 = v13</text>
<text text-anchor="start" x="427.5" y="-1684.3" font-family="Times,serif" font-size="14.00"> g8 = False</text>
<text text-anchor="start" x="427.5" y="-1669.3" font-family="Times,serif" font-size="14.00"> g7 = (v14 &lt; 0)</text>
<text text-anchor="start" x="427.5" y="-1654.3" font-family="Times,serif" font-size="14.00"> g9 = (v14 == 0)</text>
</g>
<!-- Node0x46cea4f0&#45;&gt;Node0x39b88460 -->
<g id="edge12" class="edge"><title>Node0x46cea4f0&#45;&gt;Node0x39b88460</title>
<path fill="none" stroke="black" d="M451.42,-1841.42C455.057,-1830.31 459.999,-1815.21 465.171,-1799.42"/>
<polygon fill="black" stroke="black" points="468.627,-1800.11 468.412,-1789.52 461.974,-1797.93 468.627,-1800.11"/>
<text text-anchor="middle" x="494" y="-1811.8" font-family="Times,serif" font-size="14.00">v12 != 0</text>
</g>
<!-- Node0x15385880&#45;&gt;Node0x3ef6bf60 -->
<g id="edge13" class="edge"><title>Node0x15385880&#45;&gt;Node0x3ef6bf60</title>
<path fill="none" stroke="black" d="M300.185,-1469.5C285.118,-1444.88 273.5,-1416.5 273.5,-1387.5 273.5,-1387.5 273.5,-1387.5 273.5,-228 273.5,-170.553 291.207,-105.098 302.446,-69.3361"/>
<polygon fill="black" stroke="black" points="305.832,-70.2413 305.562,-59.6499 299.168,-68.0975 305.832,-70.2413"/>
</g>
<!-- Node0x2a715bc0 -->
<g id="node13" class="node"><title>Node0x2a715bc0</title>
<polygon fill="none" stroke="black" points="440,-1412.5 440,-1450.5 559,-1450.5 559,-1412.5 440,-1412.5"/>
<text text-anchor="start" x="448" y="-1435.3" font-family="Times,serif" font-size="14.00">0x60e7c10:</text>
<text text-anchor="start" x="448" y="-1420.3" font-family="Times,serif" font-size="14.00"> if (v14 == 0):</text>
</g>
<!-- Node0x39b88460&#45;&gt;Node0x2a715bc0 -->
<g id="edge14" class="edge"><title>Node0x39b88460&#45;&gt;Node0x2a715bc0</title>
<path fill="none" stroke="black" d="M493.488,-1646.31C495.169,-1586.51 497.492,-1503.9 498.699,-1460.97"/>
<polygon fill="black" stroke="black" points="502.205,-1460.8 498.988,-1450.71 495.208,-1460.61 502.205,-1460.8"/>
</g>
<!-- Node0x30c83640 -->
<g id="node14" class="node"><title>Node0x30c83640</title>
<polygon fill="none" stroke="black" points="311,-1145.5 311,-1303.5 544,-1303.5 544,-1145.5 311,-1145.5"/>
<text text-anchor="start" x="319" y="-1288.3" font-family="Times,serif" font-size="14.00">0x60e6d90:</text>
<text text-anchor="start" x="319" y="-1273.3" font-family="Times,serif" font-size="14.00"> g29 = 0</text>
<text text-anchor="start" x="319" y="-1258.3" font-family="Times,serif" font-size="14.00"> g38 = v1</text>
<text text-anchor="start" x="319" y="-1243.3" font-family="Times,serif" font-size="14.00"> g39 = v2</text>
<text text-anchor="start" x="319" y="-1228.3" font-family="Times,serif" font-size="14.00"> g40 = v3</text>
<text text-anchor="start" x="319" y="-1213.3" font-family="Times,serif" font-size="14.00"> g41 = v4</text>
<text text-anchor="start" x="319" y="-1198.3" font-family="Times,serif" font-size="14.00"> g32 = v5</text>
<text text-anchor="start" x="319" y="-1183.3" font-family="Times,serif" font-size="14.00"> g34 = v10</text>
<text text-anchor="start" x="319" y="-1168.3" font-family="Times,serif" font-size="14.00"> IntToPtrCastExpr&lt;ptr&gt;(v6)()</text>
<text text-anchor="start" x="319" y="-1153.3" font-family="Times,serif" font-size="14.00"> return</text>
</g>
<!-- Node0x2a715bc0&#45;&gt;Node0x30c83640 -->
<g id="edge15" class="edge"><title>Node0x2a715bc0&#45;&gt;Node0x30c83640</title>
<path fill="none" stroke="black" d="M493.11,-1412.31C485.275,-1390 471.436,-1350.6 458.482,-1313.71"/>
<polygon fill="black" stroke="black" points="461.651,-1312.17 455.035,-1303.9 455.046,-1314.49 461.651,-1312.17"/>
<text text-anchor="middle" x="521" y="-1382.8" font-family="Times,serif" font-size="14.00">v14 == 0</text>
</g>
<!-- Node0x3a519230 -->
<g id="node15" class="node"><title>Node0x3a519230</title>
<polygon fill="none" stroke="black" points="539,-1322.5 539,-1360.5 640,-1360.5 640,-1322.5 539,-1322.5"/>
<text text-anchor="start" x="547" y="-1345.3" font-family="Times,serif" font-size="14.00">0x60f1ba0:</text>
<text text-anchor="start" x="547" y="-1330.3" font-family="Times,serif" font-size="14.00"> while True:</text>
</g>
<!-- Node0x2a715bc0&#45;&gt;Node0x3a519230 -->
<g id="edge16" class="edge"><title>Node0x2a715bc0&#45;&gt;Node0x3a519230</title>
<path fill="none" stroke="black" d="M540.712,-1412.36C549.287,-1407.29 557.756,-1401.16 564.5,-1394 570.868,-1387.24 575.917,-1378.55 579.763,-1370.25"/>
<polygon fill="black" stroke="black" points="583.081,-1371.39 583.731,-1360.81 576.629,-1368.67 583.081,-1371.39"/>
<text text-anchor="middle" x="606" y="-1382.8" font-family="Times,serif" font-size="14.00">v14 != 0</text>
</g>
<!-- Node0x30c83640&#45;&gt;Node0x3ef6bf60 -->
<g id="edge17" class="edge"><title>Node0x30c83640&#45;&gt;Node0x3ef6bf60</title>
<path fill="none" stroke="black" d="M348.367,-1145.28C344.621,-1139.36 341.274,-1133.25 338.5,-1127 284.717,-1005.86 311.5,-962.544 311.5,-830 311.5,-830 311.5,-830 311.5,-228 311.5,-171.818 311.5,-106.064 311.5,-69.8737"/>
<polygon fill="black" stroke="black" points="315,-69.6348 311.5,-59.6348 308,-69.6349 315,-69.6348"/>
</g>
<!-- Node0x25f24c30 -->
<g id="node16" class="node"><title>Node0x25f24c30</title>
<polygon fill="none" stroke="black" points="347.5,-848.5 347.5,-1126.5 831.5,-1126.5 831.5,-848.5 347.5,-848.5"/>
<text text-anchor="start" x="355.5" y="-1111.3" font-family="Times,serif" font-size="14.00">0x60e7ec0:</text>
<text text-anchor="start" x="355.5" y="-1096.3" font-family="Times,serif" font-size="14.00"> function_136ec()</text>
<text text-anchor="start" x="355.5" y="-1081.3" font-family="Times,serif" font-size="14.00"> v15 = *(IntToPtrCastExpr&lt;ptr&gt;((g38 + 4)))</text>
<text text-anchor="start" x="355.5" y="-1066.3" font-family="Times,serif" font-size="14.00"> v16</text>
<text text-anchor="start" x="355.5" y="-1051.3" font-family="Times,serif" font-size="14.00"> g30 = v16</text>
<text text-anchor="start" x="355.5" y="-1036.3" font-family="Times,serif" font-size="14.00"> g29 = v15</text>
<text text-anchor="start" x="355.5" y="-1021.3" font-family="Times,serif" font-size="14.00"> v17</text>
<text text-anchor="start" x="355.5" y="-1006.3" font-family="Times,serif" font-size="14.00"> g36 = v17</text>
<text text-anchor="start" x="355.5" y="-991.3" font-family="Times,serif" font-size="14.00"> v18 = *(IntToPtrCastExpr&lt;ptr&gt;(v15))</text>
<text text-anchor="start" x="355.5" y="-976.3" font-family="Times,serif" font-size="14.00"> g37 = v18</text>
<text text-anchor="start" x="355.5" y="-961.3" font-family="Times,serif" font-size="14.00"> g35 = 25628</text>
<text text-anchor="start" x="355.5" y="-946.3" font-family="Times,serif" font-size="14.00"> IntToPtrCastExpr&lt;ptr&gt;(*(IntToPtrCastExpr&lt;ptr&gt;((v18 + 8))))()</text>
<text text-anchor="start" x="355.5" y="-931.3" font-family="Times,serif" font-size="14.00"> v19 = g29</text>
<text text-anchor="start" x="355.5" y="-916.3" font-family="Times,serif" font-size="14.00"> g8 = False</text>
<text text-anchor="start" x="355.5" y="-901.3" font-family="Times,serif" font-size="14.00"> g7 = (v19 &lt; 0)</text>
<text text-anchor="start" x="355.5" y="-886.3" font-family="Times,serif" font-size="14.00"> g9 = (v19 == 0)</text>
<text text-anchor="start" x="355.5" y="-871.3" font-family="Times,serif" font-size="14.00"> g30 = v19</text>
<text text-anchor="start" x="355.5" y="-856.3" font-family="Times,serif" font-size="14.00"> g29 = g39</text>
</g>
<!-- Node0x3a519230&#45;&gt;Node0x25f24c30 -->
<g id="edge18" class="edge"><title>Node0x3a519230&#45;&gt;Node0x25f24c30</title>
<path fill="none" stroke="black" d="M589.5,-1322.07C589.5,-1287.28 589.5,-1208.95 589.5,-1136.93"/>
<polygon fill="black" stroke="black" points="593,-1136.82 589.5,-1126.82 586,-1136.82 593,-1136.82"/>
<text text-anchor="middle" x="606.5" y="-1220.8" font-family="Times,serif" font-size="14.00">True</text>
</g>
<!-- Node0x13119370 -->
<g id="node17" class="node"><title>Node0x13119370</title>
<polygon fill="none" stroke="black" points="530,-772.5 530,-810.5 649,-810.5 649,-772.5 530,-772.5"/>
<text text-anchor="start" x="538" y="-795.3" font-family="Times,serif" font-size="14.00">0x60ec600:</text>
<text text-anchor="start" x="538" y="-780.3" font-family="Times,serif" font-size="14.00"> if (v19 &lt;= 0):</text>
</g>
<!-- Node0x25f24c30&#45;&gt;Node0x13119370 -->
<g id="edge19" class="edge"><title>Node0x25f24c30&#45;&gt;Node0x13119370</title>
<path fill="none" stroke="black" d="M589.5,-848.353C589.5,-838.21 589.5,-828.804 589.5,-820.713"/>
<polygon fill="black" stroke="black" points="593,-820.55 589.5,-810.55 586,-820.55 593,-820.55"/>
</g>
<!-- Node0x271e6490 -->
<g id="node18" class="node"><title>Node0x271e6490</title>
<polygon fill="none" stroke="black" points="451,-412.5 451,-450.5 570,-450.5 570,-412.5 451,-412.5"/>
<text text-anchor="start" x="459" y="-435.3" font-family="Times,serif" font-size="14.00">0x60ef040:</text>
<text text-anchor="start" x="459" y="-420.3" font-family="Times,serif" font-size="14.00"> if (v19 == 0):</text>
</g>
<!-- Node0x13119370&#45;&gt;Node0x271e6490 -->
<g id="edge20" class="edge"><title>Node0x13119370&#45;&gt;Node0x271e6490</title>
<path fill="none" stroke="black" d="M567.728,-772.226C554.141,-759.421 537.721,-741.059 529.5,-721 492.903,-631.706 500.558,-513.818 506.64,-460.646"/>
<polygon fill="black" stroke="black" points="510.128,-460.957 507.86,-450.608 503.179,-460.113 510.128,-460.957"/>
<text text-anchor="middle" x="537" y="-562.8" font-family="Times,serif" font-size="14.00">v19 &lt;= 0</text>
</g>
<!-- Node0x1810f5a0 -->
<g id="node19" class="node"><title>Node0x1810f5a0</title>
<polygon fill="none" stroke="black" points="538.5,-592.5 538.5,-720.5 894.5,-720.5 894.5,-592.5 538.5,-592.5"/>
<text text-anchor="start" x="546.5" y="-705.3" font-family="Times,serif" font-size="14.00">0x60ea930:</text>
<text text-anchor="start" x="546.5" y="-690.3" font-family="Times,serif" font-size="14.00"> function_13274()</text>
<text text-anchor="start" x="546.5" y="-675.3" font-family="Times,serif" font-size="14.00"> v22 = *(IntToPtrCastExpr&lt;ptr&gt;((g38 + 108)))</text>
<text text-anchor="start" x="546.5" y="-660.3" font-family="Times,serif" font-size="14.00"> g37 = v22</text>
<text text-anchor="start" x="546.5" y="-645.3" font-family="Times,serif" font-size="14.00"> g29 = g39</text>
<text text-anchor="start" x="546.5" y="-630.3" font-family="Times,serif" font-size="14.00"> g8 = False</text>
<text text-anchor="start" x="546.5" y="-615.3" font-family="Times,serif" font-size="14.00"> g7 = (v22 &lt; 0)</text>
<text text-anchor="start" x="546.5" y="-600.3" font-family="Times,serif" font-size="14.00"> g9 = (v22 == 0)</text>
</g>
<!-- Node0x13119370&#45;&gt;Node0x1810f5a0 -->
<g id="edge21" class="edge"><title>Node0x13119370&#45;&gt;Node0x1810f5a0</title>
<path fill="none" stroke="black" d="M606.893,-772.286C618.086,-760.564 633.426,-744.499 649.084,-728.1"/>
<polygon fill="black" stroke="black" points="651.913,-730.206 656.288,-720.557 646.85,-725.372 651.913,-730.206"/>
<text text-anchor="middle" x="666" y="-742.8" font-family="Times,serif" font-size="14.00">v19 &gt; 0</text>
</g>
<!-- Node0x1311bf80 -->
<g id="node20" class="node"><title>Node0x1311bf80</title>
<polygon fill="none" stroke="black" points="340,-150 340,-308 573,-308 573,-150 340,-150"/>
<text text-anchor="start" x="348" y="-292.8" font-family="Times,serif" font-size="14.00">0x60ef360:</text>
<text text-anchor="start" x="348" y="-277.8" font-family="Times,serif" font-size="14.00"> g29 = 0</text>
<text text-anchor="start" x="348" y="-262.8" font-family="Times,serif" font-size="14.00"> g38 = v1</text>
<text text-anchor="start" x="348" y="-247.8" font-family="Times,serif" font-size="14.00"> g39 = v2</text>
<text text-anchor="start" x="348" y="-232.8" font-family="Times,serif" font-size="14.00"> g40 = v3</text>
<text text-anchor="start" x="348" y="-217.8" font-family="Times,serif" font-size="14.00"> g41 = v4</text>
<text text-anchor="start" x="348" y="-202.8" font-family="Times,serif" font-size="14.00"> g32 = v5</text>
<text text-anchor="start" x="348" y="-187.8" font-family="Times,serif" font-size="14.00"> g34 = v10</text>
<text text-anchor="start" x="348" y="-172.8" font-family="Times,serif" font-size="14.00"> IntToPtrCastExpr&lt;ptr&gt;(v6)()</text>
<text text-anchor="start" x="348" y="-157.8" font-family="Times,serif" font-size="14.00"> return</text>
</g>
<!-- Node0x271e6490&#45;&gt;Node0x1311bf80 -->
<g id="edge22" class="edge"><title>Node0x271e6490&#45;&gt;Node0x1311bf80</title>
<path fill="none" stroke="black" d="M505.613,-412.353C499.822,-390.854 489.757,-353.483 480.24,-318.147"/>
<polygon fill="black" stroke="black" points="483.555,-316.995 477.575,-308.25 476.796,-318.816 483.555,-316.995"/>
<text text-anchor="middle" x="535" y="-382.8" font-family="Times,serif" font-size="14.00">v19 == 0</text>
</g>
<!-- Node0x3e1b2ea0 -->
<g id="node21" class="node"><title>Node0x3e1b2ea0</title>
<polygon fill="none" stroke="black" points="591,-97.5 591,-360.5 1170,-360.5 1170,-97.5 591,-97.5"/>
<text text-anchor="start" x="599" y="-345.3" font-family="Times,serif" font-size="14.00">0x671e570:</text>
<text text-anchor="start" x="599" y="-330.3" font-family="Times,serif" font-size="14.00"> v20 = g38</text>
<text text-anchor="start" x="599" y="-315.3" font-family="Times,serif" font-size="14.00"> g29 = v20</text>
<text text-anchor="start" x="599" y="-300.3" font-family="Times,serif" font-size="14.00"> v21 = *(IntToPtrCastExpr&lt;ptr&gt;((*(IntToPtrCastExpr&lt;ptr&gt;((v20 + 4))) + 8)))</text>
<text text-anchor="start" x="599" y="-285.3" font-family="Times,serif" font-size="14.00"> g37 = v21</text>
<text text-anchor="start" x="599" y="-270.3" font-family="Times,serif" font-size="14.00"> g30 = &#45;34</text>
<text text-anchor="start" x="599" y="-255.3" font-family="Times,serif" font-size="14.00"> *(IntToPtrCastExpr&lt;ptr&gt;((v20 + 132))) = v21</text>
<text text-anchor="start" x="599" y="-240.3" font-family="Times,serif" font-size="14.00"> function_557c()</text>
<text text-anchor="start" x="599" y="-225.3" font-family="Times,serif" font-size="14.00"> g29 = &#45;34</text>
<text text-anchor="start" x="599" y="-210.3" font-family="Times,serif" font-size="14.00"> g38 = v1</text>
<text text-anchor="start" x="599" y="-195.3" font-family="Times,serif" font-size="14.00"> g39 = v2</text>
<text text-anchor="start" x="599" y="-180.3" font-family="Times,serif" font-size="14.00"> g40 = v3</text>
<text text-anchor="start" x="599" y="-165.3" font-family="Times,serif" font-size="14.00"> g41 = v4</text>
<text text-anchor="start" x="599" y="-150.3" font-family="Times,serif" font-size="14.00"> g32 = v5</text>
<text text-anchor="start" x="599" y="-135.3" font-family="Times,serif" font-size="14.00"> g34 = v10</text>
<text text-anchor="start" x="599" y="-120.3" font-family="Times,serif" font-size="14.00"> IntToPtrCastExpr&lt;ptr&gt;(v6)()</text>
<text text-anchor="start" x="599" y="-105.3" font-family="Times,serif" font-size="14.00"> return</text>
</g>
<!-- Node0x271e6490&#45;&gt;Node0x3e1b2ea0 -->
<g id="edge23" class="edge"><title>Node0x271e6490&#45;&gt;Node0x3e1b2ea0</title>
<path fill="none" stroke="black" d="M543.988,-412.353C565.788,-400.54 596.431,-383.935 630.434,-365.508"/>
<polygon fill="black" stroke="black" points="632.502,-368.369 639.627,-360.527 629.167,-362.214 632.502,-368.369"/>
<text text-anchor="middle" x="631" y="-382.8" font-family="Times,serif" font-size="14.00">v19 != 0</text>
</g>
<!-- Node0x3fa18950 -->
<g id="node22" class="node"><title>Node0x3fa18950</title>
<polygon fill="none" stroke="black" points="863,-502.5 863,-540.5 982,-540.5 982,-502.5 863,-502.5"/>
<text text-anchor="start" x="871" y="-525.3" font-family="Times,serif" font-size="14.00">0x60ec3e0:</text>
<text text-anchor="start" x="871" y="-510.3" font-family="Times,serif" font-size="14.00"> if (v22 == 0):</text>
</g>
<!-- Node0x1810f5a0&#45;&gt;Node0x3fa18950 -->
<g id="edge24" class="edge"><title>Node0x1810f5a0&#45;&gt;Node0x3fa18950</title>
<path fill="none" stroke="black" d="M814.372,-592.311C839.873,-575.847 865.794,-559.111 885.862,-546.154"/>
<polygon fill="black" stroke="black" points="887.864,-549.028 894.367,-540.664 884.067,-543.147 887.864,-549.028"/>
</g>
<!-- Node0x1311bf80&#45;&gt;Node0x3ef6bf60 -->
<g id="edge25" class="edge"><title>Node0x1311bf80&#45;&gt;Node0x3ef6bf60</title>
<path fill="none" stroke="black" d="M395.427,-149.869C372.435,-120.454 347.869,-89.0277 331.297,-67.8261"/>
<polygon fill="black" stroke="black" points="333.843,-65.4003 324.927,-59.6772 328.328,-69.7113 333.843,-65.4003"/>
</g>
<!-- Node0x3e1b2ea0&#45;&gt;Node0x3ef6bf60 -->
<g id="edge26" class="edge"><title>Node0x3e1b2ea0&#45;&gt;Node0x3ef6bf60</title>
<path fill="none" stroke="black" d="M590.854,-100.01C587.726,-98.9857 584.607,-97.9819 581.5,-97 500.447,-71.3887 401.779,-55.0681 349.036,-47.484"/>
<polygon fill="black" stroke="black" points="349.201,-43.9727 338.81,-46.0408 348.222,-50.904 349.201,-43.9727"/>
</g>
<!-- Node0x3fa18950&#45;&gt;Node0x3a519230 -->
<g id="edge28" class="edge"><title>Node0x3fa18950&#45;&gt;Node0x3a519230</title>
<path fill="none" stroke="black" d="M922.5,-540.57C922.5,-566.154 922.5,-614.399 922.5,-655.5 922.5,-988.5 922.5,-988.5 922.5,-988.5 922.5,-1152.38 729.665,-1270.68 637.481,-1317.87"/>
<polygon fill="black" stroke="black" points="635.7,-1314.85 628.351,-1322.48 638.855,-1321.1 635.7,-1314.85"/>
<text text-anchor="middle" x="954" y="-787.8" font-family="Times,serif" font-size="14.00">v22 != 0</text>
</g>
<!-- Node0x3df2b440 -->
<g id="node23" class="node"><title>Node0x3df2b440</title>
<polygon fill="none" stroke="black" points="939.5,-412.5 939.5,-450.5 1039.5,-450.5 1039.5,-412.5 939.5,-412.5"/>
<text text-anchor="start" x="947.5" y="-435.3" font-family="Times,serif" font-size="14.00">0x60ec200:</text>
<text text-anchor="start" x="947.5" y="-420.3" font-family="Times,serif" font-size="14.00"> break</text>
</g>
<!-- Node0x3fa18950&#45;&gt;Node0x3df2b440 -->
<g id="edge27" class="edge"><title>Node0x3fa18950&#45;&gt;Node0x3df2b440</title>
<path fill="none" stroke="black" d="M936.382,-502.266C945.905,-489.759 958.693,-472.963 969.335,-458.986"/>
<polygon fill="black" stroke="black" points="972.362,-460.787 975.635,-450.71 966.793,-456.546 972.362,-460.787"/>
<text text-anchor="middle" x="994" y="-472.8" font-family="Times,serif" font-size="14.00">v22 == 0</text>
</g>
<!-- Node0x24e28b00 -->
<g id="node24" class="node"><title>Node0x24e28b00</title>
<polygon fill="none" stroke="black" points="1188,-157.5 1188,-300.5 1421,-300.5 1421,-157.5 1188,-157.5"/>
<text text-anchor="start" x="1196" y="-285.3" font-family="Times,serif" font-size="14.00">0x60f0b80:</text>
<text text-anchor="start" x="1196" y="-270.3" font-family="Times,serif" font-size="14.00"> g29 = 0</text>
<text text-anchor="start" x="1196" y="-255.3" font-family="Times,serif" font-size="14.00"> g38 = v1</text>
<text text-anchor="start" x="1196" y="-240.3" font-family="Times,serif" font-size="14.00"> g39 = v2</text>
<text text-anchor="start" x="1196" y="-225.3" font-family="Times,serif" font-size="14.00"> g40 = v3</text>
<text text-anchor="start" x="1196" y="-210.3" font-family="Times,serif" font-size="14.00"> g41 = v4</text>
<text text-anchor="start" x="1196" y="-195.3" font-family="Times,serif" font-size="14.00"> g32 = v5</text>
<text text-anchor="start" x="1196" y="-180.3" font-family="Times,serif" font-size="14.00"> g34 = v10</text>
<text text-anchor="start" x="1196" y="-165.3" font-family="Times,serif" font-size="14.00"> IntToPtrCastExpr&lt;ptr&gt;(v6)()</text>
</g>
<!-- Node0x3df2b440&#45;&gt;Node0x24e28b00 -->
<g id="edge29" class="edge"><title>Node0x3df2b440&#45;&gt;Node0x24e28b00</title>
<path fill="none" stroke="black" d="M1039.6,-418.924C1079.69,-408.129 1136.16,-389.381 1179.5,-361 1201.77,-346.417 1222.98,-327.148 1241.41,-307.888"/>
<polygon fill="black" stroke="black" points="1244.03,-310.203 1248.32,-300.517 1238.93,-305.413 1244.03,-310.203"/>
</g>
<!-- Node0x24e28b00&#45;&gt;Node0x3ef6bf60 -->
<g id="edge30" class="edge"><title>Node0x24e28b00&#45;&gt;Node0x3ef6bf60</title>
<path fill="none" stroke="black" d="M1254.47,-157.166C1234.06,-133.85 1208.43,-110.468 1179.5,-97 1103.48,-61.6041 505.788,-46.5997 349.036,-43.2502"/>
<polygon fill="black" stroke="black" points="349.013,-39.749 338.941,-43.0377 348.865,-46.7475 349.013,-39.749"/>
</g>
</g>
</svg>
