<?xml version="1.0" encoding="UTF-8" standalone="no"?>
<!DOCTYPE svg PUBLIC "-//W3C//DTD SVG 1.1//EN"
 "http://www.w3.org/Graphics/SVG/1.1/DTD/svg11.dtd">
<!-- Generated by graphviz version 2.38.0 (20140413.2041)
 -->
<!-- Title: Control&#45;flow graph for function &#39;function_57b0()&#39;. Pages: 1 -->
<svg width="742pt" height="1370pt"
 viewBox="0.00 0.00 741.50 1370.00" xmlns="http://www.w3.org/2000/svg" xmlns:xlink="http://www.w3.org/1999/xlink">
<g id="graph0" class="graph" transform="scale(1 1) rotate(0) translate(4 1366)">
<title>Control&#45;flow graph for function &#39;function_57b0()&#39;.</title>
<polygon fill="white" stroke="none" points="-4,4 -4,-1366 737.5,-1366 737.5,4 -4,4"/>
<text text-anchor="middle" x="366.75" y="-7.8" font-family="Times,serif" font-size="14.00">Control&#45;flow graph for function &#39;function_57b0()&#39;.</text>
<!-- Node0x36840830 -->
<g id="node1" class="node"><title>Node0x36840830</title>
<polygon fill="none" stroke="black" points="393.5,-1325.5 393.5,-1361.5 452.5,-1361.5 452.5,-1325.5 393.5,-1325.5"/>
<text text-anchor="start" x="401.5" y="-1339.8" font-family="Times,serif" font-size="14.00">entry:</text>
</g>
<!-- Node0x2afc54d0 -->
<g id="node2" class="node"><title>Node0x2afc54d0</title>
<polygon fill="none" stroke="black" points="323,-1114.5 323,-1287.5 523,-1287.5 523,-1114.5 323,-1114.5"/>
<text text-anchor="start" x="331" y="-1272.3" font-family="Times,serif" font-size="14.00">0x1f1a8430:</text>
<text text-anchor="start" x="331" y="-1257.3" font-family="Times,serif" font-size="14.00"> v1</text>
<text text-anchor="start" x="331" y="-1242.3" font-family="Times,serif" font-size="14.00"> v2 = v1</text>
<text text-anchor="start" x="331" y="-1227.3" font-family="Times,serif" font-size="14.00"> v3 = g38</text>
<text text-anchor="start" x="331" y="-1212.3" font-family="Times,serif" font-size="14.00"> v4 = g32</text>
<text text-anchor="start" x="331" y="-1197.3" font-family="Times,serif" font-size="14.00"> g35 = v1</text>
<text text-anchor="start" x="331" y="-1182.3" font-family="Times,serif" font-size="14.00"> g8 = (((1 &#45; v1) &amp; v1) &lt; 0)</text>
<text text-anchor="start" x="331" y="-1167.3" font-family="Times,serif" font-size="14.00"> g7 = (v1 &lt; 2)</text>
<text text-anchor="start" x="331" y="-1152.3" font-family="Times,serif" font-size="14.00"> g38 = g29</text>
<text text-anchor="start" x="331" y="-1137.3" font-family="Times,serif" font-size="14.00"> g37 = 165012</text>
<text text-anchor="start" x="331" y="-1122.3" font-family="Times,serif" font-size="14.00"> g29 = g30</text>
</g>
<!-- Node0x36840830&#45;&gt;Node0x2afc54d0 -->
<g id="edge1" class="edge"><title>Node0x36840830&#45;&gt;Node0x2afc54d0</title>
<path fill="none" stroke="black" d="M423,-1325.27C423,-1317.72 423,-1308.21 423,-1297.85"/>
<polygon fill="black" stroke="black" points="426.5,-1297.68 423,-1287.68 419.5,-1297.68 426.5,-1297.68"/>
</g>
<!-- Node0x3177d130 -->
<g id="node3" class="node"><title>Node0x3177d130</title>
<polygon fill="none" stroke="black" points="368,-1023.5 368,-1076.5 478,-1076.5 478,-1023.5 368,-1023.5"/>
<text text-anchor="start" x="376" y="-1061.3" font-family="Times,serif" font-size="14.00">0x5ecf450:</text>
<text text-anchor="start" x="376" y="-1046.3" font-family="Times,serif" font-size="14.00"> if (v1 == 2):</text>
<text text-anchor="start" x="376" y="-1031.3" font-family="Times,serif" font-size="14.00"> else:</text>
</g>
<!-- Node0x2afc54d0&#45;&gt;Node0x3177d130 -->
<g id="edge2" class="edge"><title>Node0x2afc54d0&#45;&gt;Node0x3177d130</title>
<path fill="none" stroke="black" d="M423,-1114.19C423,-1104.55 423,-1095.16 423,-1086.7"/>
<polygon fill="black" stroke="black" points="426.5,-1086.53 423,-1076.53 419.5,-1086.53 426.5,-1086.53"/>
</g>
<!-- Node0x27d67b00 -->
<g id="node4" class="node"><title>Node0x27d67b00</title>
<polygon fill="none" stroke="black" points="274,-858.5 274,-971.5 414,-971.5 414,-858.5 274,-858.5"/>
<text text-anchor="start" x="282" y="-956.3" font-family="Times,serif" font-size="14.00">0x5ebe770:</text>
<text text-anchor="start" x="282" y="-941.3" font-family="Times,serif" font-size="14.00"> g30 = 154376</text>
<text text-anchor="start" x="282" y="-926.3" font-family="Times,serif" font-size="14.00"> function_132f8()</text>
<text text-anchor="start" x="282" y="-911.3" font-family="Times,serif" font-size="14.00"> v5 = g29</text>
<text text-anchor="start" x="282" y="-896.3" font-family="Times,serif" font-size="14.00"> g8 = False</text>
<text text-anchor="start" x="282" y="-881.3" font-family="Times,serif" font-size="14.00"> g7 = (v5 &lt; 0)</text>
<text text-anchor="start" x="282" y="-866.3" font-family="Times,serif" font-size="14.00"> g9 = (v5 == 0)</text>
</g>
<!-- Node0x3177d130&#45;&gt;Node0x27d67b00 -->
<g id="edge3" class="edge"><title>Node0x3177d130&#45;&gt;Node0x27d67b00</title>
<path fill="none" stroke="black" d="M406.216,-1023.07C402.472,-1017.16 398.559,-1010.89 395,-1005 390.265,-997.165 385.376,-988.887 380.585,-980.662"/>
<polygon fill="black" stroke="black" points="383.479,-978.676 375.436,-971.779 377.423,-982.186 383.479,-978.676"/>
<text text-anchor="middle" x="425" y="-993.8" font-family="Times,serif" font-size="14.00">v1 == 2</text>
</g>
<!-- Node0x1eab2390 -->
<g id="node5" class="node"><title>Node0x1eab2390</title>
<polygon fill="none" stroke="black" points="290.5,-726.5 290.5,-839.5 733.5,-839.5 733.5,-726.5 290.5,-726.5"/>
<text text-anchor="start" x="298.5" y="-824.3" font-family="Times,serif" font-size="14.00">0x5ecf790:</text>
<text text-anchor="start" x="298.5" y="-809.3" font-family="Times,serif" font-size="14.00"> g8 = (((2 &#45; v1) &amp; v1) &lt; 0)</text>
<text text-anchor="start" x="298.5" y="-794.3" font-family="Times,serif" font-size="14.00"> g7 = (v1 &lt; 3)</text>
<text text-anchor="start" x="298.5" y="-779.3" font-family="Times,serif" font-size="14.00"> g9 = (v1 == 3)</text>
<text text-anchor="start" x="298.5" y="-764.3" font-family="Times,serif" font-size="14.00"> g38 = v3</text>
<text text-anchor="start" x="298.5" y="-749.3" font-family="Times,serif" font-size="14.00"> g32 = v4</text>
<text text-anchor="start" x="298.5" y="-734.3" font-family="Times,serif" font-size="14.00"> IntToPtrCastExpr&lt;ptr&gt;(ExtCastExpr&lt;int32&gt;((v1 != 3)))()</text>
</g>
<!-- Node0x3177d130&#45;&gt;Node0x1eab2390 -->
<g id="edge4" class="edge"><title>Node0x3177d130&#45;&gt;Node0x1eab2390</title>
<path fill="none" stroke="black" d="M444.004,-1023.49C448.088,-1017.67 452.019,-1011.32 455,-1005 478.409,-955.354 493.174,-894.728 501.795,-849.54"/>
<polygon fill="black" stroke="black" points="505.263,-850.035 503.647,-839.564 498.381,-848.757 505.263,-850.035"/>
<text text-anchor="middle" x="487" y="-993.8" font-family="Times,serif" font-size="14.00">v1 != 2</text>
</g>
<!-- Node0x11df2550 -->
<g id="node6" class="node"><title>Node0x11df2550</title>
<polygon fill="none" stroke="black" points="223,-669.5 223,-707.5 327,-707.5 327,-669.5 223,-669.5"/>
<text text-anchor="start" x="231" y="-692.3" font-family="Times,serif" font-size="14.00">0x5ec0100:</text>
<text text-anchor="start" x="231" y="-677.3" font-family="Times,serif" font-size="14.00"> if (v5 != 0):</text>
</g>
<!-- Node0x27d67b00&#45;&gt;Node0x11df2550 -->
<g id="edge5" class="edge"><title>Node0x27d67b00&#45;&gt;Node0x11df2550</title>
<path fill="none" stroke="black" d="M297.999,-858.482C294.503,-852.488 291.406,-846.278 289,-840 273.544,-799.669 272.175,-748.986 273.169,-717.934"/>
<polygon fill="black" stroke="black" points="276.671,-717.958 273.599,-707.819 269.677,-717.661 276.671,-717.958"/>
</g>
<!-- Node0x13a4a3b0 -->
<g id="node7" class="node"><title>Node0x13a4a3b0</title>
<polygon fill="none" stroke="black" points="215,-97.5 215,-360.5 661,-360.5 661,-97.5 215,-97.5"/>
<text text-anchor="start" x="223" y="-345.3" font-family="Times,serif" font-size="14.00">0xac93f40:</text>
<text text-anchor="start" x="223" y="-330.3" font-family="Times,serif" font-size="14.00"> v8 = g36</text>
<text text-anchor="start" x="223" y="-315.3" font-family="Times,serif" font-size="14.00"> g8 = (((22 &#45; v8) &amp; v8) &lt; 0)</text>
<text text-anchor="start" x="223" y="-300.3" font-family="Times,serif" font-size="14.00"> g7 = (v8 &lt; 23)</text>
<text text-anchor="start" x="223" y="-285.3" font-family="Times,serif" font-size="14.00"> g9 = (v8 == 23)</text>
<text text-anchor="start" x="223" y="-270.3" font-family="Times,serif" font-size="14.00"> v9 = &amp;(v2)</text>
<text text-anchor="start" x="223" y="-255.3" font-family="Times,serif" font-size="14.00"> g38 = *(IntToPtrCastExpr&lt;ptr&gt;((v9 + 4)))</text>
<text text-anchor="start" x="223" y="-240.3" font-family="Times,serif" font-size="14.00"> g32 = *(IntToPtrCastExpr&lt;ptr&gt;((v9 + 8)))</text>
<text text-anchor="start" x="223" y="-225.3" font-family="Times,serif" font-size="14.00"> g34 = *(IntToPtrCastExpr&lt;ptr&gt;((v9 + 12)))</text>
<text text-anchor="start" x="223" y="-210.3" font-family="Times,serif" font-size="14.00"> IntToPtrCastExpr&lt;ptr&gt;(ExtCastExpr&lt;int32&gt;((v8 &gt; 23)))()</text>
<text text-anchor="start" x="223" y="-195.3" font-family="Times,serif" font-size="14.00"> g29 = *(IntToPtrCastExpr&lt;ptr&gt;((g38 + 8)))</text>
<text text-anchor="start" x="223" y="-180.3" font-family="Times,serif" font-size="14.00"> v10 = g34</text>
<text text-anchor="start" x="223" y="-165.3" font-family="Times,serif" font-size="14.00"> g38 = *(IntToPtrCastExpr&lt;ptr&gt;((v10 + 4)))</text>
<text text-anchor="start" x="223" y="-150.3" font-family="Times,serif" font-size="14.00"> g32 = *(IntToPtrCastExpr&lt;ptr&gt;((v10 + 8)))</text>
<text text-anchor="start" x="223" y="-135.3" font-family="Times,serif" font-size="14.00"> g34 = *(IntToPtrCastExpr&lt;ptr&gt;((v10 + 12)))</text>
<text text-anchor="start" x="223" y="-120.3" font-family="Times,serif" font-size="14.00"> g35 = *(IntToPtrCastExpr&lt;ptr&gt;((v10 + 16)))</text>
<text text-anchor="start" x="223" y="-105.3" font-family="Times,serif" font-size="14.00"> memcpy(&amp;(v2), IntToPtrCastExpr&lt;ptr&gt;(g30), g36)</text>
</g>
<!-- Node0x1eab2390&#45;&gt;Node0x13a4a3b0 -->
<g id="edge6" class="edge"><title>Node0x1eab2390&#45;&gt;Node0x13a4a3b0</title>
<path fill="none" stroke="black" d="M512,-726.471C512,-701.426 512,-671.475 512,-644.5 512,-644.5 512,-644.5 512,-446.5 512,-421.34 507.47,-395.376 500.651,-370.546"/>
<polygon fill="black" stroke="black" points="503.952,-369.362 497.82,-360.723 497.226,-371.301 503.952,-369.362"/>
</g>
<!-- Node0x156024d0 -->
<g id="node8" class="node"><title>Node0x156024d0</title>
<polygon fill="none" stroke="black" points="7.5,-534.5 7.5,-617.5 336.5,-617.5 336.5,-534.5 7.5,-534.5"/>
<text text-anchor="start" x="15.5" y="-602.3" font-family="Times,serif" font-size="14.00">0x4f1d860:</text>
<text text-anchor="start" x="15.5" y="-587.3" font-family="Times,serif" font-size="14.00"> v6 = *(IntToPtrCastExpr&lt;ptr&gt;((g38 + 4)))</text>
<text text-anchor="start" x="15.5" y="-572.3" font-family="Times,serif" font-size="14.00"> g36 = v6</text>
<text text-anchor="start" x="15.5" y="-557.3" font-family="Times,serif" font-size="14.00"> g37 = 1</text>
<text text-anchor="start" x="15.5" y="-542.3" font-family="Times,serif" font-size="14.00"> *(IntToPtrCastExpr&lt;ptr&gt;(v6)) = 1</text>
</g>
<!-- Node0x11df2550&#45;&gt;Node0x156024d0 -->
<g id="edge7" class="edge"><title>Node0x11df2550&#45;&gt;Node0x156024d0</title>
<path fill="none" stroke="black" d="M257.992,-669.253C246.796,-657.242 231.576,-640.914 217.051,-625.331"/>
<polygon fill="black" stroke="black" points="219.376,-622.692 209.997,-617.764 214.255,-627.465 219.376,-622.692"/>
<text text-anchor="middle" x="266" y="-639.8" font-family="Times,serif" font-size="14.00">v5 != 0</text>
</g>
<!-- Node0x37078a00 -->
<g id="node9" class="node"><title>Node0x37078a00</title>
<polygon fill="none" stroke="black" points="0,-398.5 0,-496.5 484,-496.5 484,-398.5 0,-398.5"/>
<text text-anchor="start" x="8" y="-481.3" font-family="Times,serif" font-size="14.00">0x1b5d3f00:</text>
<text text-anchor="start" x="8" y="-466.3" font-family="Times,serif" font-size="14.00"> v7 = g34</text>
<text text-anchor="start" x="8" y="-451.3" font-family="Times,serif" font-size="14.00"> g38 = *(IntToPtrCastExpr&lt;ptr&gt;((v7 + 4)))</text>
<text text-anchor="start" x="8" y="-436.3" font-family="Times,serif" font-size="14.00"> g32 = *(IntToPtrCastExpr&lt;ptr&gt;((v7 + 8)))</text>
<text text-anchor="start" x="8" y="-421.3" font-family="Times,serif" font-size="14.00"> g34 = *(IntToPtrCastExpr&lt;ptr&gt;((v7 + 12)))</text>
<text text-anchor="start" x="8" y="-406.3" font-family="Times,serif" font-size="14.00"> IntToPtrCastExpr&lt;ptr&gt;(*(IntToPtrCastExpr&lt;ptr&gt;((v7 + 16))))()</text>
</g>
<!-- Node0x11df2550&#45;&gt;Node0x37078a00 -->
<g id="edge8" class="edge"><title>Node0x11df2550&#45;&gt;Node0x37078a00</title>
<path fill="none" stroke="black" d="M301.888,-669.348C317.694,-656.965 336.246,-639.027 345,-618 359.349,-583.534 360.867,-567.794 345,-534 339.868,-523.071 332.577,-513.056 324.215,-504.035"/>
<polygon fill="black" stroke="black" points="326.48,-501.348 316.962,-496.693 321.5,-506.267 326.48,-501.348"/>
<text text-anchor="middle" x="387" y="-572.3" font-family="Times,serif" font-size="14.00">v5 == 0</text>
</g>
<!-- Node0x22ab8650 -->
<g id="node10" class="node"><title>Node0x22ab8650</title>
<polygon fill="none" stroke="black" points="411,-23.5 411,-59.5 465,-59.5 465,-23.5 411,-23.5"/>
<text text-anchor="start" x="419" y="-37.8" font-family="Times,serif" font-size="14.00">exit:</text>
</g>
<!-- Node0x13a4a3b0&#45;&gt;Node0x22ab8650 -->
<g id="edge9" class="edge"><title>Node0x13a4a3b0&#45;&gt;Node0x22ab8650</title>
<path fill="none" stroke="black" d="M438,-97.4032C438,-87.3069 438,-77.9329 438,-69.8915"/>
<polygon fill="black" stroke="black" points="441.5,-69.8095 438,-59.8095 434.5,-69.8095 441.5,-69.8095"/>
</g>
<!-- Node0x156024d0&#45;&gt;Node0x37078a00 -->
<g id="edge10" class="edge"><title>Node0x156024d0&#45;&gt;Node0x37078a00</title>
<path fill="none" stroke="black" d="M194.534,-534.278C199.613,-525.099 205.096,-515.191 210.468,-505.482"/>
<polygon fill="black" stroke="black" points="213.577,-507.093 215.357,-496.648 207.452,-503.704 213.577,-507.093"/>
</g>
<!-- Node0x37078a00&#45;&gt;Node0x13a4a3b0 -->
<g id="edge11" class="edge"><title>Node0x37078a00&#45;&gt;Node0x13a4a3b0</title>
<path fill="none" stroke="black" d="M285.499,-398.452C294.021,-389.038 303.349,-378.735 313.06,-368.008"/>
<polygon fill="black" stroke="black" points="315.722,-370.283 319.838,-360.52 310.532,-365.585 315.722,-370.283"/>
</g>
</g>
</svg>
