<?xml version="1.0" encoding="UTF-8" standalone="no"?>
<!DOCTYPE svg PUBLIC "-//W3C//DTD SVG 1.1//EN"
 "http://www.w3.org/Graphics/SVG/1.1/DTD/svg11.dtd">
<!-- Generated by graphviz version 2.38.0 (20140413.2041)
 -->
<!-- Title: Control&#45;flow graph for function &#39;function_13010()&#39;. Pages: 1 -->
<svg width="606pt" height="246pt"
 viewBox="0.00 0.00 606.00 246.00" xmlns="http://www.w3.org/2000/svg" xmlns:xlink="http://www.w3.org/1999/xlink">
<g id="graph0" class="graph" transform="scale(1 1) rotate(0) translate(4 242)">
<title>Control&#45;flow graph for function &#39;function_13010()&#39;.</title>
<polygon fill="white" stroke="none" points="-4,4 -4,-242 602,-242 602,4 -4,4"/>
<text text-anchor="middle" x="299" y="-7.8" font-family="Times,serif" font-size="14.00">Control&#45;flow graph for function &#39;function_13010()&#39;.</text>
<!-- Node0x3b6f2ef0 -->
<g id="node1" class="node"><title>Node0x3b6f2ef0</title>
<polygon fill="none" stroke="black" points="269.5,-201.5 269.5,-237.5 328.5,-237.5 328.5,-201.5 269.5,-201.5"/>
<text text-anchor="start" x="277.5" y="-215.8" font-family="Times,serif" font-size="14.00">entry:</text>
</g>
<!-- Node0x15916600 -->
<g id="node2" class="node"><title>Node0x15916600</title>
<polygon fill="none" stroke="black" points="0,-96.5 0,-164.5 598,-164.5 598,-96.5 0,-96.5"/>
<text text-anchor="start" x="8" y="-149.3" font-family="Times,serif" font-size="14.00">0x13711be0:</text>
<text text-anchor="start" x="8" y="-134.3" font-family="Times,serif" font-size="14.00"> v1 = ExtCastExpr&lt;int32&gt;(*(IntToPtrCastExpr&lt;ptr&gt;(g29)))</text>
<text text-anchor="start" x="8" y="-119.3" font-family="Times,serif" font-size="14.00"> g37 = v1</text>
<text text-anchor="start" x="8" y="-104.3" font-family="Times,serif" font-size="14.00"> g29 = (ExtCastExpr&lt;int32&gt;(*(IntToPtrCastExpr&lt;ptr&gt;((g29 + 1)))) | (256 * v1))</text>
</g>
<!-- Node0x3b6f2ef0&#45;&gt;Node0x15916600 -->
<g id="edge1" class="edge"><title>Node0x3b6f2ef0&#45;&gt;Node0x15916600</title>
<path fill="none" stroke="black" d="M299,-201.312C299,-193.602 299,-184.126 299,-174.671"/>
<polygon fill="black" stroke="black" points="302.5,-174.503 299,-164.503 295.5,-174.503 302.5,-174.503"/>
</g>
<!-- Node0x15916a90 -->
<g id="node3" class="node"><title>Node0x15916a90</title>
<polygon fill="none" stroke="black" points="272,-23.5 272,-59.5 326,-59.5 326,-23.5 272,-23.5"/>
<text text-anchor="start" x="280" y="-37.8" font-family="Times,serif" font-size="14.00">exit:</text>
</g>
<!-- Node0x15916600&#45;&gt;Node0x15916a90 -->
<g id="edge2" class="edge"><title>Node0x15916600&#45;&gt;Node0x15916a90</title>
<path fill="none" stroke="black" d="M299,-96.1123C299,-87.3522 299,-78.0128 299,-69.6246"/>
<polygon fill="black" stroke="black" points="302.5,-69.6235 299,-59.6235 295.5,-69.6235 302.5,-69.6235"/>
</g>
</g>
</svg>
