<?xml version="1.0" encoding="UTF-8" standalone="no"?>
<!DOCTYPE svg PUBLIC "-//W3C//DTD SVG 1.1//EN"
 "http://www.w3.org/Graphics/SVG/1.1/DTD/svg11.dtd">
<!-- Generated by graphviz version 2.38.0 (20140413.2041)
 -->
<!-- Title: Control&#45;flow graph for function &#39;SpPlaybackSkipToPrev()&#39;. Pages: 1 -->
<svg width="439pt" height="1243pt"
 viewBox="0.00 0.00 439.00 1243.00" xmlns="http://www.w3.org/2000/svg" xmlns:xlink="http://www.w3.org/1999/xlink">
<g id="graph0" class="graph" transform="scale(1 1) rotate(0) translate(4 1239)">
<title>Control&#45;flow graph for function &#39;SpPlaybackSkipToPrev()&#39;.</title>
<polygon fill="white" stroke="none" points="-4,4 -4,-1239 435,-1239 435,4 -4,4"/>
<text text-anchor="middle" x="215.5" y="-7.8" font-family="Times,serif" font-size="14.00">Control&#45;flow graph for function &#39;SpPlaybackSkipToPrev()&#39;.</text>
<!-- Node0x383b1b40 -->
<g id="node1" class="node"><title>Node0x383b1b40</title>
<polygon fill="none" stroke="black" points="216.25,-1198.5 216.25,-1234.5 275.25,-1234.5 275.25,-1198.5 216.25,-1198.5"/>
<text text-anchor="start" x="224.25" y="-1212.8" font-family="Times,serif" font-size="14.00">entry:</text>
</g>
<!-- Node0x383b3790 -->
<g id="node2" class="node"><title>Node0x383b3790</title>
<polygon fill="none" stroke="black" points="88.25,-1017.5 88.25,-1160.5 403.25,-1160.5 403.25,-1017.5 88.25,-1017.5"/>
<text text-anchor="start" x="96.25" y="-1145.3" font-family="Times,serif" font-size="14.00">0x2000ffb0:</text>
<text text-anchor="start" x="96.25" y="-1130.3" font-family="Times,serif" font-size="14.00"> v1 = g38</text>
<text text-anchor="start" x="96.25" y="-1115.3" font-family="Times,serif" font-size="14.00"> v2 = g39</text>
<text text-anchor="start" x="96.25" y="-1100.3" font-family="Times,serif" font-size="14.00"> v3 = g40</text>
<text text-anchor="start" x="96.25" y="-1085.3" font-family="Times,serif" font-size="14.00"> g38 = 165012</text>
<text text-anchor="start" x="96.25" y="-1070.3" font-family="Times,serif" font-size="14.00"> v4 = *(IntToPtrCastExpr&lt;ptr&gt;(165212))</text>
<text text-anchor="start" x="96.25" y="-1055.3" font-family="Times,serif" font-size="14.00"> g40 = v4</text>
<text text-anchor="start" x="96.25" y="-1040.3" font-family="Times,serif" font-size="14.00"> v5 = *(IntToPtrCastExpr&lt;ptr&gt;(v4))</text>
<text text-anchor="start" x="96.25" y="-1025.3" font-family="Times,serif" font-size="14.00"> g37 = v5</text>
</g>
<!-- Node0x383b1b40&#45;&gt;Node0x383b3790 -->
<g id="edge1" class="edge"><title>Node0x383b1b40&#45;&gt;Node0x383b3790</title>
<path fill="none" stroke="black" d="M245.75,-1198.31C245.75,-1190.68 245.75,-1181.1 245.75,-1170.81"/>
<polygon fill="black" stroke="black" points="249.25,-1170.77 245.75,-1160.77 242.25,-1170.77 249.25,-1170.77"/>
</g>
<!-- Node0x478fe830 -->
<g id="node3" class="node"><title>Node0x478fe830</title>
<polygon fill="none" stroke="black" points="193.75,-941.5 193.75,-979.5 297.75,-979.5 297.75,-941.5 193.75,-941.5"/>
<text text-anchor="start" x="201.75" y="-964.3" font-family="Times,serif" font-size="14.00">0x83039c0:</text>
<text text-anchor="start" x="201.75" y="-949.3" font-family="Times,serif" font-size="14.00"> if (v5 != 0):</text>
</g>
<!-- Node0x383b3790&#45;&gt;Node0x478fe830 -->
<g id="edge2" class="edge"><title>Node0x383b3790&#45;&gt;Node0x478fe830</title>
<path fill="none" stroke="black" d="M245.75,-1017.35C245.75,-1007.59 245.75,-998.073 245.75,-989.737"/>
<polygon fill="black" stroke="black" points="249.25,-989.54 245.75,-979.54 242.25,-989.54 249.25,-989.54"/>
</g>
<!-- Node0x478fd110 -->
<g id="node4" class="node"><title>Node0x478fd110</title>
<polygon fill="none" stroke="black" points="33.75,-806.5 33.75,-889.5 245.75,-889.5 245.75,-806.5 33.75,-806.5"/>
<text text-anchor="start" x="41.75" y="-874.3" font-family="Times,serif" font-size="14.00">0x8302f30:</text>
<text text-anchor="start" x="41.75" y="-859.3" font-family="Times,serif" font-size="14.00"> g29 = 157724</text>
<text text-anchor="start" x="41.75" y="-844.3" font-family="Times,serif" font-size="14.00"> g30 = 157416</text>
<text text-anchor="start" x="41.75" y="-829.3" font-family="Times,serif" font-size="14.00"> g36 = 155984</text>
<text text-anchor="start" x="41.75" y="-814.3" font-family="Times,serif" font-size="14.00"> imported_function_ord_0()</text>
</g>
<!-- Node0x478fe830&#45;&gt;Node0x478fd110 -->
<g id="edge3" class="edge"><title>Node0x478fe830&#45;&gt;Node0x478fd110</title>
<path fill="none" stroke="black" d="M228.246,-941.253C216.725,-929.242 201.061,-912.914 186.113,-897.331"/>
<polygon fill="black" stroke="black" points="188.302,-894.557 178.854,-889.764 183.25,-899.403 188.302,-894.557"/>
<text text-anchor="middle" x="235.75" y="-911.8" font-family="Times,serif" font-size="14.00">v5 != 0</text>
</g>
<!-- Node0x478feb00 -->
<g id="node5" class="node"><title>Node0x478feb00</title>
<polygon fill="none" stroke="black" points="95.75,-640.5 95.75,-768.5 383.75,-768.5 383.75,-640.5 95.75,-640.5"/>
<text text-anchor="start" x="103.75" y="-753.3" font-family="Times,serif" font-size="14.00">0x8303bd0:</text>
<text text-anchor="start" x="103.75" y="-738.3" font-family="Times,serif" font-size="14.00"> function_17008()</text>
<text text-anchor="start" x="103.75" y="-723.3" font-family="Times,serif" font-size="14.00"> v6 = *(IntToPtrCastExpr&lt;ptr&gt;(g40))</text>
<text text-anchor="start" x="103.75" y="-708.3" font-family="Times,serif" font-size="14.00"> g37 = v6</text>
<text text-anchor="start" x="103.75" y="-693.3" font-family="Times,serif" font-size="14.00"> v7 = g29</text>
<text text-anchor="start" x="103.75" y="-678.3" font-family="Times,serif" font-size="14.00"> g39 = v7</text>
<text text-anchor="start" x="103.75" y="-663.3" font-family="Times,serif" font-size="14.00"> g9 = (v6 == 0)</text>
<text text-anchor="start" x="103.75" y="-648.3" font-family="Times,serif" font-size="14.00"> v8 = v7</text>
</g>
<!-- Node0x478fe830&#45;&gt;Node0x478feb00 -->
<g id="edge4" class="edge"><title>Node0x478fe830&#45;&gt;Node0x478feb00</title>
<path fill="none" stroke="black" d="M258.646,-941.38C261.952,-935.755 265.052,-929.357 266.75,-923 268.471,-916.559 267.14,-914.655 266.75,-908 264.225,-864.935 258.005,-817.08 252.17,-778.708"/>
<polygon fill="black" stroke="black" points="255.604,-778.007 250.618,-768.658 248.686,-779.075 255.604,-778.007"/>
<text text-anchor="middle" x="294.75" y="-844.3" font-family="Times,serif" font-size="14.00">v5 == 0</text>
</g>
<!-- Node0x478fd110&#45;&gt;Node0x478feb00 -->
<g id="edge5" class="edge"><title>Node0x478fd110&#45;&gt;Node0x478feb00</title>
<path fill="none" stroke="black" d="M168.406,-806.452C174.899,-797.264 181.983,-787.24 189.085,-777.191"/>
<polygon fill="black" stroke="black" points="192.129,-778.948 195.042,-768.762 186.412,-774.908 192.129,-778.948"/>
</g>
<!-- Node0x478ff400 -->
<g id="node6" class="node"><title>Node0x478ff400</title>
<polygon fill="none" stroke="black" points="187.75,-564.5 187.75,-602.5 291.75,-602.5 291.75,-564.5 187.75,-564.5"/>
<text text-anchor="start" x="195.75" y="-587.3" font-family="Times,serif" font-size="14.00">0x8305e90:</text>
<text text-anchor="start" x="195.75" y="-572.3" font-family="Times,serif" font-size="14.00"> if (v6 != 0):</text>
</g>
<!-- Node0x478feb00&#45;&gt;Node0x478ff400 -->
<g id="edge6" class="edge"><title>Node0x478feb00&#45;&gt;Node0x478ff400</title>
<path fill="none" stroke="black" d="M239.75,-640.167C239.75,-630.596 239.75,-621.158 239.75,-612.848"/>
<polygon fill="black" stroke="black" points="243.25,-612.658 239.75,-602.659 236.25,-612.659 243.25,-612.658"/>
</g>
<!-- Node0x383b4ec0 -->
<g id="node7" class="node"><title>Node0x383b4ec0</title>
<polygon fill="none" stroke="black" points="27.75,-429.5 27.75,-512.5 239.75,-512.5 239.75,-429.5 27.75,-429.5"/>
<text text-anchor="start" x="35.75" y="-497.3" font-family="Times,serif" font-size="14.00">0x8305500:</text>
<text text-anchor="start" x="35.75" y="-482.3" font-family="Times,serif" font-size="14.00"> g30 = (g38 &#45; 7596)</text>
<text text-anchor="start" x="35.75" y="-467.3" font-family="Times,serif" font-size="14.00"> g36 = v7</text>
<text text-anchor="start" x="35.75" y="-452.3" font-family="Times,serif" font-size="14.00"> imported_function_ord_0()</text>
<text text-anchor="start" x="35.75" y="-437.3" font-family="Times,serif" font-size="14.00"> v8 = g39</text>
</g>
<!-- Node0x478ff400&#45;&gt;Node0x383b4ec0 -->
<g id="edge7" class="edge"><title>Node0x478ff400&#45;&gt;Node0x383b4ec0</title>
<path fill="none" stroke="black" d="M222.246,-564.253C210.725,-552.242 195.061,-535.914 180.113,-520.331"/>
<polygon fill="black" stroke="black" points="182.302,-517.557 172.854,-512.764 177.25,-522.403 182.302,-517.557"/>
<text text-anchor="middle" x="229.75" y="-534.8" font-family="Times,serif" font-size="14.00">v6 != 0</text>
</g>
<!-- Node0x478fbfb0 -->
<g id="node8" class="node"><title>Node0x478fbfb0</title>
<polygon fill="none" stroke="black" points="112.75,-263.5 112.75,-391.5 354.75,-391.5 354.75,-263.5 112.75,-263.5"/>
<text text-anchor="start" x="120.75" y="-376.3" font-family="Times,serif" font-size="14.00">0x8306030:</text>
<text text-anchor="start" x="120.75" y="-361.3" font-family="Times,serif" font-size="14.00"> g29 = v8</text>
<text text-anchor="start" x="120.75" y="-346.3" font-family="Times,serif" font-size="14.00"> g38 = v1</text>
<text text-anchor="start" x="120.75" y="-331.3" font-family="Times,serif" font-size="14.00"> g39 = v2</text>
<text text-anchor="start" x="120.75" y="-316.3" font-family="Times,serif" font-size="14.00"> g40 = v3</text>
<text text-anchor="start" x="120.75" y="-301.3" font-family="Times,serif" font-size="14.00"> v9</text>
<text text-anchor="start" x="120.75" y="-286.3" font-family="Times,serif" font-size="14.00"> g34 = v9</text>
<text text-anchor="start" x="120.75" y="-271.3" font-family="Times,serif" font-size="14.00"> IntToPtrCastExpr&lt;ptr&gt;(g35)()</text>
</g>
<!-- Node0x478ff400&#45;&gt;Node0x478fbfb0 -->
<g id="edge8" class="edge"><title>Node0x478ff400&#45;&gt;Node0x478fbfb0</title>
<path fill="none" stroke="black" d="M252.646,-564.38C255.952,-558.755 259.052,-552.357 260.75,-546 262.471,-539.559 261.14,-537.655 260.75,-531 258.225,-487.935 252.005,-440.08 246.17,-401.708"/>
<polygon fill="black" stroke="black" points="249.604,-401.007 244.618,-391.658 242.686,-402.075 249.604,-401.007"/>
<text text-anchor="middle" x="288.75" y="-467.3" font-family="Times,serif" font-size="14.00">v6 == 0</text>
</g>
<!-- Node0x383b4ec0&#45;&gt;Node0x478fbfb0 -->
<g id="edge9" class="edge"><title>Node0x383b4ec0&#45;&gt;Node0x478fbfb0</title>
<path fill="none" stroke="black" d="M162.406,-429.452C168.899,-420.264 175.983,-410.24 183.085,-400.191"/>
<polygon fill="black" stroke="black" points="186.129,-401.948 189.042,-391.762 180.412,-397.908 186.129,-401.948"/>
</g>
<!-- Node0x478fd210 -->
<g id="node9" class="node"><title>Node0x478fd210</title>
<polygon fill="none" stroke="black" points="183.25,-187.5 183.25,-225.5 284.25,-225.5 284.25,-187.5 183.25,-187.5"/>
<text text-anchor="start" x="191.25" y="-210.3" font-family="Times,serif" font-size="14.00">0x8307580:</text>
<text text-anchor="start" x="191.25" y="-195.3" font-family="Times,serif" font-size="14.00"> if g9:</text>
</g>
<!-- Node0x478fbfb0&#45;&gt;Node0x478fd210 -->
<g id="edge10" class="edge"><title>Node0x478fbfb0&#45;&gt;Node0x478fd210</title>
<path fill="none" stroke="black" d="M233.75,-263.167C233.75,-253.596 233.75,-244.158 233.75,-235.848"/>
<polygon fill="black" stroke="black" points="237.25,-235.658 233.75,-225.659 230.25,-235.659 237.25,-235.658"/>
</g>
<!-- Node0x478fb3b0 -->
<g id="node10" class="node"><title>Node0x478fb3b0</title>
<polygon fill="none" stroke="black" points="42.75,-97.5 42.75,-135.5 230.75,-135.5 230.75,-97.5 42.75,-97.5"/>
<text text-anchor="start" x="50.75" y="-120.3" font-family="Times,serif" font-size="14.00">0x83072e0:</text>
<text text-anchor="start" x="50.75" y="-105.3" font-family="Times,serif" font-size="14.00"> g29 = (g29 &amp; (g42 / 2))</text>
</g>
<!-- Node0x478fd210&#45;&gt;Node0x478fb3b0 -->
<g id="edge11" class="edge"><title>Node0x478fd210&#45;&gt;Node0x478fb3b0</title>
<path fill="none" stroke="black" d="M213.652,-187.266C199.475,-174.405 180.3,-157.009 164.644,-142.806"/>
<polygon fill="black" stroke="black" points="166.581,-139.837 156.823,-135.71 161.877,-145.022 166.581,-139.837"/>
<text text-anchor="middle" x="201.25" y="-157.8" font-family="Times,serif" font-size="14.00">g9</text>
</g>
<!-- Node0x478fe720 -->
<g id="node11" class="node"><title>Node0x478fe720</title>
<polygon fill="none" stroke="black" points="200.75,-23.5 200.75,-59.5 254.75,-59.5 254.75,-23.5 200.75,-23.5"/>
<text text-anchor="start" x="208.75" y="-37.8" font-family="Times,serif" font-size="14.00">exit:</text>
</g>
<!-- Node0x478fd210&#45;&gt;Node0x478fe720 -->
<g id="edge12" class="edge"><title>Node0x478fd210&#45;&gt;Node0x478fe720</title>
<path fill="none" stroke="black" d="M236.553,-187.406C239.479,-165.828 243.198,-128.696 239.75,-97 238.767,-87.9613 236.892,-78.2257 234.911,-69.5188"/>
<polygon fill="black" stroke="black" points="238.247,-68.4222 232.495,-59.5244 231.443,-70.0668 238.247,-68.4222"/>
<text text-anchor="middle" x="269.25" y="-112.8" font-family="Times,serif" font-size="14.00">not (g9)</text>
</g>
<!-- Node0x478fb3b0&#45;&gt;Node0x478fe720 -->
<g id="edge13" class="edge"><title>Node0x478fb3b0&#45;&gt;Node0x478fe720</title>
<path fill="none" stroke="black" d="M159.244,-97.4551C171.074,-87.9651 185.72,-76.2165 198.429,-66.0211"/>
<polygon fill="black" stroke="black" points="200.842,-68.5726 206.452,-59.585 196.462,-63.1123 200.842,-68.5726"/>
</g>
</g>
</svg>
