<?xml version="1.0" encoding="UTF-8" standalone="no"?>
<!DOCTYPE svg PUBLIC "-//W3C//DTD SVG 1.1//EN"
 "http://www.w3.org/Graphics/SVG/1.1/DTD/svg11.dtd">
<!-- Generated by graphviz version 2.38.0 (20140413.2041)
 -->
<!-- Title: Control&#45;flow graph for function &#39;function_366c()&#39;. Pages: 1 -->
<svg width="376pt" height="231pt"
 viewBox="0.00 0.00 376.00 231.00" xmlns="http://www.w3.org/2000/svg" xmlns:xlink="http://www.w3.org/1999/xlink">
<g id="graph0" class="graph" transform="scale(1 1) rotate(0) translate(4 227)">
<title>Control&#45;flow graph for function &#39;function_366c()&#39;.</title>
<polygon fill="white" stroke="none" points="-4,4 -4,-227 372,-227 372,4 -4,4"/>
<text text-anchor="middle" x="184" y="-7.8" font-family="Times,serif" font-size="14.00">Control&#45;flow graph for function &#39;function_366c()&#39;.</text>
<!-- Node0x24655140 -->
<g id="node1" class="node"><title>Node0x24655140</title>
<polygon fill="none" stroke="black" points="154.5,-186.5 154.5,-222.5 213.5,-222.5 213.5,-186.5 154.5,-186.5"/>
<text text-anchor="start" x="162.5" y="-200.8" font-family="Times,serif" font-size="14.00">entry:</text>
</g>
<!-- Node0x24654180 -->
<g id="node2" class="node"><title>Node0x24654180</title>
<polygon fill="none" stroke="black" points="122.5,-96.5 122.5,-149.5 245.5,-149.5 245.5,-96.5 122.5,-96.5"/>
<text text-anchor="start" x="130.5" y="-134.3" font-family="Times,serif" font-size="14.00">0x504e5c0:</text>
<text text-anchor="start" x="130.5" y="-119.3" font-family="Times,serif" font-size="14.00"> g37 = 165012</text>
<text text-anchor="start" x="130.5" y="-104.3" font-family="Times,serif" font-size="14.00"> g29 = 154212</text>
</g>
<!-- Node0x24655140&#45;&gt;Node0x24654180 -->
<g id="edge1" class="edge"><title>Node0x24655140&#45;&gt;Node0x24654180</title>
<path fill="none" stroke="black" d="M184,-186.25C184,-178.486 184,-169.014 184,-159.825"/>
<polygon fill="black" stroke="black" points="187.5,-159.676 184,-149.676 180.5,-159.676 187.5,-159.676"/>
</g>
<!-- Node0x24656a40 -->
<g id="node3" class="node"><title>Node0x24656a40</title>
<polygon fill="none" stroke="black" points="157,-23.5 157,-59.5 211,-59.5 211,-23.5 157,-23.5"/>
<text text-anchor="start" x="165" y="-37.8" font-family="Times,serif" font-size="14.00">exit:</text>
</g>
<!-- Node0x24654180&#45;&gt;Node0x24656a40 -->
<g id="edge2" class="edge"><title>Node0x24654180&#45;&gt;Node0x24656a40</title>
<path fill="none" stroke="black" d="M184,-96.4081C184,-87.9823 184,-78.5803 184,-70.0174"/>
<polygon fill="black" stroke="black" points="187.5,-69.7564 184,-59.7564 180.5,-69.7565 187.5,-69.7564"/>
</g>
</g>
</svg>
