<?xml version="1.0" encoding="UTF-8" standalone="no"?>
<!DOCTYPE svg PUBLIC "-//W3C//DTD SVG 1.1//EN"
 "http://www.w3.org/Graphics/SVG/1.1/DTD/svg11.dtd">
<!-- Generated by graphviz version 2.38.0 (20140413.2041)
 -->
<!-- Title: Control&#45;flow graph for function &#39;function_16584()&#39;. Pages: 1 -->
<svg width="1066pt" height="2545pt"
 viewBox="0.00 0.00 1066.00 2545.00" xmlns="http://www.w3.org/2000/svg" xmlns:xlink="http://www.w3.org/1999/xlink">
<g id="graph0" class="graph" transform="scale(1 1) rotate(0) translate(4 2541)">
<title>Control&#45;flow graph for function &#39;function_16584()&#39;.</title>
<polygon fill="white" stroke="none" points="-4,4 -4,-2541 1062,-2541 1062,4 -4,4"/>
<text text-anchor="middle" x="529" y="-7.8" font-family="Times,serif" font-size="14.00">Control&#45;flow graph for function &#39;function_16584()&#39;.</text>
<!-- Node0x1516a680 -->
<g id="node1" class="node"><title>Node0x1516a680</title>
<polygon fill="none" stroke="black" points="725,-2500.5 725,-2536.5 784,-2536.5 784,-2500.5 725,-2500.5"/>
<text text-anchor="start" x="733" y="-2514.8" font-family="Times,serif" font-size="14.00">entry:</text>
</g>
<!-- Node0x24629cb0 -->
<g id="node2" class="node"><title>Node0x24629cb0</title>
<polygon fill="none" stroke="black" points="689.5,-2184.5 689.5,-2462.5 819.5,-2462.5 819.5,-2184.5 689.5,-2184.5"/>
<text text-anchor="start" x="697.5" y="-2447.3" font-family="Times,serif" font-size="14.00">0x3ceed0d0:</text>
<text text-anchor="start" x="697.5" y="-2432.3" font-family="Times,serif" font-size="14.00"> v1 = g38</text>
<text text-anchor="start" x="697.5" y="-2417.3" font-family="Times,serif" font-size="14.00"> v2 = g39</text>
<text text-anchor="start" x="697.5" y="-2402.3" font-family="Times,serif" font-size="14.00"> v3 = g40</text>
<text text-anchor="start" x="697.5" y="-2387.3" font-family="Times,serif" font-size="14.00"> v4 = g41</text>
<text text-anchor="start" x="697.5" y="-2372.3" font-family="Times,serif" font-size="14.00"> v5 = g42</text>
<text text-anchor="start" x="697.5" y="-2357.3" font-family="Times,serif" font-size="14.00"> v6 = g32</text>
<text text-anchor="start" x="697.5" y="-2342.3" font-family="Times,serif" font-size="14.00"> v7 = g35</text>
<text text-anchor="start" x="697.5" y="-2327.3" font-family="Times,serif" font-size="14.00"> g37 = 5748</text>
<text text-anchor="start" x="697.5" y="-2312.3" font-family="Times,serif" font-size="14.00"> g41 = 165012</text>
<text text-anchor="start" x="697.5" y="-2297.3" font-family="Times,serif" font-size="14.00"> v8 = g18</text>
<text text-anchor="start" x="697.5" y="-2282.3" font-family="Times,serif" font-size="14.00"> g36 = v8</text>
<text text-anchor="start" x="697.5" y="-2267.3" font-family="Times,serif" font-size="14.00"> v9 = g29</text>
<text text-anchor="start" x="697.5" y="-2252.3" font-family="Times,serif" font-size="14.00"> g40 = v9</text>
<text text-anchor="start" x="697.5" y="-2237.3" font-family="Times,serif" font-size="14.00"> g9 = (v8 == 0)</text>
<text text-anchor="start" x="697.5" y="-2222.3" font-family="Times,serif" font-size="14.00"> v10</text>
<text text-anchor="start" x="697.5" y="-2207.3" font-family="Times,serif" font-size="14.00"> v11</text>
<text text-anchor="start" x="697.5" y="-2192.3" font-family="Times,serif" font-size="14.00"> v12</text>
</g>
<!-- Node0x1516a680&#45;&gt;Node0x24629cb0 -->
<g id="edge1" class="edge"><title>Node0x1516a680&#45;&gt;Node0x24629cb0</title>
<path fill="none" stroke="black" d="M754.5,-2500.37C754.5,-2492.96 754.5,-2483.53 754.5,-2472.92"/>
<polygon fill="black" stroke="black" points="758,-2472.85 754.5,-2462.85 751,-2472.85 758,-2472.85"/>
</g>
<!-- Node0x1516a600 -->
<g id="node3" class="node"><title>Node0x1516a600</title>
<polygon fill="none" stroke="black" points="699.5,-2108.5 699.5,-2146.5 809.5,-2146.5 809.5,-2108.5 699.5,-2108.5"/>
<text text-anchor="start" x="707.5" y="-2131.3" font-family="Times,serif" font-size="14.00">0x84c6960:</text>
<text text-anchor="start" x="707.5" y="-2116.3" font-family="Times,serif" font-size="14.00"> if (v8 == 0):</text>
</g>
<!-- Node0x24629cb0&#45;&gt;Node0x1516a600 -->
<g id="edge2" class="edge"><title>Node0x24629cb0&#45;&gt;Node0x1516a600</title>
<path fill="none" stroke="black" d="M754.5,-2184.35C754.5,-2174.21 754.5,-2164.8 754.5,-2156.71"/>
<polygon fill="black" stroke="black" points="758,-2156.55 754.5,-2146.55 751,-2156.55 758,-2156.55"/>
</g>
<!-- Node0x2462d370 -->
<g id="node4" class="node"><title>Node0x2462d370</title>
<polygon fill="none" stroke="black" points="454,-1883.5 454,-2056.5 687,-2056.5 687,-1883.5 454,-1883.5"/>
<text text-anchor="start" x="462" y="-2041.3" font-family="Times,serif" font-size="14.00">0x84c6740:</text>
<text text-anchor="start" x="462" y="-2026.3" font-family="Times,serif" font-size="14.00"> g29 = 6</text>
<text text-anchor="start" x="462" y="-2011.3" font-family="Times,serif" font-size="14.00"> g38 = v1</text>
<text text-anchor="start" x="462" y="-1996.3" font-family="Times,serif" font-size="14.00"> g39 = v2</text>
<text text-anchor="start" x="462" y="-1981.3" font-family="Times,serif" font-size="14.00"> g40 = v3</text>
<text text-anchor="start" x="462" y="-1966.3" font-family="Times,serif" font-size="14.00"> g41 = v4</text>
<text text-anchor="start" x="462" y="-1951.3" font-family="Times,serif" font-size="14.00"> g42 = v5</text>
<text text-anchor="start" x="462" y="-1936.3" font-family="Times,serif" font-size="14.00"> g32 = v6</text>
<text text-anchor="start" x="462" y="-1921.3" font-family="Times,serif" font-size="14.00"> g34 = v10</text>
<text text-anchor="start" x="462" y="-1906.3" font-family="Times,serif" font-size="14.00"> IntToPtrCastExpr&lt;ptr&gt;(v7)()</text>
<text text-anchor="start" x="462" y="-1891.3" font-family="Times,serif" font-size="14.00"> v11 = (g40 % 256)</text>
</g>
<!-- Node0x1516a600&#45;&gt;Node0x2462d370 -->
<g id="edge3" class="edge"><title>Node0x1516a600&#45;&gt;Node0x2462d370</title>
<path fill="none" stroke="black" d="M733.033,-2108.36C719.163,-2096.64 699.948,-2080.4 679.575,-2063.18"/>
<polygon fill="black" stroke="black" points="681.616,-2060.32 671.719,-2056.54 677.097,-2065.67 681.616,-2060.32"/>
<text text-anchor="middle" x="740.5" y="-2078.8" font-family="Times,serif" font-size="14.00">v8 == 0</text>
</g>
<!-- Node0x1516ad50 -->
<g id="node5" class="node"><title>Node0x1516ad50</title>
<polygon fill="none" stroke="black" points="705,-1913.5 705,-2026.5 1058,-2026.5 1058,-1913.5 705,-1913.5"/>
<text text-anchor="start" x="713" y="-2011.3" font-family="Times,serif" font-size="14.00">0x35530d80:</text>
<text text-anchor="start" x="713" y="-1996.3" font-family="Times,serif" font-size="14.00"> v13 = g30</text>
<text text-anchor="start" x="713" y="-1981.3" font-family="Times,serif" font-size="14.00"> v14 = ((v13 &#45; 132) if (v13 == 132) else 1)</text>
<text text-anchor="start" x="713" y="-1966.3" font-family="Times,serif" font-size="14.00"> g37 = v14</text>
<text text-anchor="start" x="713" y="-1951.3" font-family="Times,serif" font-size="14.00"> v15 = (v14 | ExtCastExpr&lt;int32&gt;((v9 == 0)))</text>
<text text-anchor="start" x="713" y="-1936.3" font-family="Times,serif" font-size="14.00"> g39 = v15</text>
<text text-anchor="start" x="713" y="-1921.3" font-family="Times,serif" font-size="14.00"> g9 = (v15 == 0)</text>
</g>
<!-- Node0x1516a600&#45;&gt;Node0x1516ad50 -->
<g id="edge4" class="edge"><title>Node0x1516a600&#45;&gt;Node0x1516ad50</title>
<path fill="none" stroke="black" d="M769.317,-2108.36C784.146,-2090.2 807.827,-2061.21 829.618,-2034.53"/>
<polygon fill="black" stroke="black" points="832.39,-2036.66 836.005,-2026.7 826.969,-2032.24 832.39,-2036.66"/>
<text text-anchor="middle" x="822.5" y="-2078.8" font-family="Times,serif" font-size="14.00">v8 != 0</text>
</g>
<!-- Node0x2462eb70 -->
<g id="node6" class="node"><title>Node0x2462eb70</title>
<polygon fill="none" stroke="black" points="520,-1800 520,-1838 621,-1838 621,-1800 520,-1800"/>
<text text-anchor="start" x="528" y="-1822.8" font-family="Times,serif" font-size="14.00">0x84d6260:</text>
<text text-anchor="start" x="528" y="-1807.8" font-family="Times,serif" font-size="14.00"> if g9:</text>
</g>
<!-- Node0x2462d370&#45;&gt;Node0x2462eb70 -->
<g id="edge5" class="edge"><title>Node0x2462d370&#45;&gt;Node0x2462eb70</title>
<path fill="none" stroke="black" d="M570.5,-1883.19C570.5,-1870.65 570.5,-1858.54 570.5,-1848.34"/>
<polygon fill="black" stroke="black" points="574,-1848.09 570.5,-1838.09 567,-1848.09 574,-1848.09"/>
</g>
<!-- Node0x1516c040 -->
<g id="node7" class="node"><title>Node0x1516c040</title>
<polygon fill="none" stroke="black" points="822,-1792.5 822,-1845.5 941,-1845.5 941,-1792.5 822,-1792.5"/>
<text text-anchor="start" x="830" y="-1830.3" font-family="Times,serif" font-size="14.00">0x84d0700:</text>
<text text-anchor="start" x="830" y="-1815.3" font-family="Times,serif" font-size="14.00"> if (v15 == 0):</text>
<text text-anchor="start" x="830" y="-1800.3" font-family="Times,serif" font-size="14.00"> else:</text>
</g>
<!-- Node0x1516ad50&#45;&gt;Node0x1516c040 -->
<g id="edge6" class="edge"><title>Node0x1516ad50&#45;&gt;Node0x1516c040</title>
<path fill="none" stroke="black" d="M881.5,-1913.09C881.5,-1893.95 881.5,-1873.05 881.5,-1855.91"/>
<polygon fill="black" stroke="black" points="885,-1855.78 881.5,-1845.78 878,-1855.78 885,-1855.78"/>
</g>
<!-- Node0x1636d420 -->
<g id="node8" class="node"><title>Node0x1636d420</title>
<polygon fill="none" stroke="black" points="0,-1672.5 0,-1740.5 539,-1740.5 539,-1672.5 0,-1672.5"/>
<text text-anchor="start" x="8" y="-1725.3" font-family="Times,serif" font-size="14.00">0x84d58b0:</text>
<text text-anchor="start" x="8" y="-1710.3" font-family="Times,serif" font-size="14.00"> v12 = g29</text>
<text text-anchor="start" x="8" y="-1695.3" font-family="Times,serif" font-size="14.00"> g30 = (v12 &amp; (g38 &gt;&gt; (0 if (v11 == 0) else (31 if (v11 &gt; 31) else v11))))</text>
<text text-anchor="start" x="8" y="-1680.3" font-family="Times,serif" font-size="14.00"> g29 = ((g42 / 2) &amp; v12)</text>
</g>
<!-- Node0x2462eb70&#45;&gt;Node0x1636d420 -->
<g id="edge7" class="edge"><title>Node0x2462eb70&#45;&gt;Node0x1636d420</title>
<path fill="none" stroke="black" d="M521.133,-1799.88C479.996,-1784.78 420.097,-1762.79 369.06,-1744.05"/>
<polygon fill="black" stroke="black" points="370.233,-1740.75 359.639,-1740.59 367.821,-1747.32 370.233,-1740.75"/>
<text text-anchor="middle" x="457" y="-1762.8" font-family="Times,serif" font-size="14.00">g9</text>
</g>
<!-- Node0x2462f170 -->
<g id="node9" class="node"><title>Node0x2462f170</title>
<polygon fill="none" stroke="black" points="234,-1551 234,-1589 335,-1589 335,-1551 234,-1551"/>
<text text-anchor="start" x="242" y="-1573.8" font-family="Times,serif" font-size="14.00">0x84d63a0:</text>
<text text-anchor="start" x="242" y="-1558.8" font-family="Times,serif" font-size="14.00"> return</text>
</g>
<!-- Node0x2462eb70&#45;&gt;Node0x2462f170 -->
<g id="edge8" class="edge"><title>Node0x2462eb70&#45;&gt;Node0x2462f170</title>
<path fill="none" stroke="black" d="M573.015,-1799.54C576.057,-1769.36 577.518,-1709.11 547.5,-1672 497.846,-1610.62 406.252,-1586.49 345.345,-1577.04"/>
<polygon fill="black" stroke="black" points="345.497,-1573.52 335.096,-1575.54 344.485,-1580.45 345.497,-1573.52"/>
<text text-anchor="middle" x="602" y="-1702.8" font-family="Times,serif" font-size="14.00">not (g9)</text>
</g>
<!-- Node0x1516bc40 -->
<g id="node10" class="node"><title>Node0x1516bc40</title>
<polygon fill="none" stroke="black" points="680,-1680 680,-1733 967,-1733 967,-1680 680,-1680"/>
<text text-anchor="start" x="688" y="-1717.8" font-family="Times,serif" font-size="14.00">0x1c7e8e70:</text>
<text text-anchor="start" x="688" y="-1702.8" font-family="Times,serif" font-size="14.00"> v16 = *(IntToPtrCastExpr&lt;ptr&gt;(v9))</text>
<text text-anchor="start" x="688" y="-1687.8" font-family="Times,serif" font-size="14.00"> g9 = (v16 == 3)</text>
</g>
<!-- Node0x1516c040&#45;&gt;Node0x1516bc40 -->
<g id="edge9" class="edge"><title>Node0x1516c040&#45;&gt;Node0x1516bc40</title>
<path fill="none" stroke="black" d="M868.048,-1792.37C860.271,-1777.56 850.376,-1758.7 841.888,-1742.53"/>
<polygon fill="black" stroke="black" points="844.827,-1740.6 837.08,-1733.37 838.629,-1743.85 844.827,-1740.6"/>
<text text-anchor="middle" x="892" y="-1762.8" font-family="Times,serif" font-size="14.00">v15 == 0</text>
</g>
<!-- Node0x15169f90 -->
<g id="node11" class="node"><title>Node0x15169f90</title>
<polygon fill="none" stroke="black" points="945,-1615.5 945,-1653.5 1046,-1653.5 1046,-1615.5 945,-1615.5"/>
<text text-anchor="start" x="953" y="-1638.3" font-family="Times,serif" font-size="14.00">0x84d0940:</text>
<text text-anchor="start" x="953" y="-1623.3" font-family="Times,serif" font-size="14.00"> g29 = 5</text>
</g>
<!-- Node0x1516c040&#45;&gt;Node0x15169f90 -->
<g id="edge10" class="edge"><title>Node0x1516c040&#45;&gt;Node0x15169f90</title>
<path fill="none" stroke="black" d="M925.393,-1792.44C943.997,-1779.38 964.183,-1761.83 976.5,-1741 990.418,-1717.46 994.618,-1686.18 995.671,-1663.8"/>
<polygon fill="black" stroke="black" points="999.175,-1663.7 995.964,-1653.61 992.178,-1663.5 999.175,-1663.7"/>
<text text-anchor="middle" x="994" y="-1762.8" font-family="Times,serif" font-size="14.00">v15 != 0</text>
</g>
<!-- Node0x1636d420&#45;&gt;Node0x2462f170 -->
<g id="edge11" class="edge"><title>Node0x1636d420&#45;&gt;Node0x2462f170</title>
<path fill="none" stroke="black" d="M273.208,-1672.25C275.716,-1649.76 278.993,-1620.38 281.37,-1599.06"/>
<polygon fill="black" stroke="black" points="284.86,-1599.35 282.49,-1589.02 277.903,-1598.57 284.86,-1599.35"/>
</g>
<!-- Node0x151644c0 -->
<g id="node12" class="node"><title>Node0x151644c0</title>
<polygon fill="none" stroke="black" points="336.5,-23.5 336.5,-59.5 390.5,-59.5 390.5,-23.5 336.5,-23.5"/>
<text text-anchor="start" x="344.5" y="-37.8" font-family="Times,serif" font-size="14.00">exit:</text>
</g>
<!-- Node0x2462f170&#45;&gt;Node0x151644c0 -->
<g id="edge12" class="edge"><title>Node0x2462f170&#45;&gt;Node0x151644c0</title>
<path fill="none" stroke="black" d="M284.5,-1550.9C284.5,-1509.38 284.5,-1404.07 284.5,-1316 284.5,-1316 284.5,-1316 284.5,-130.5 284.5,-102.406 307.071,-79.2034 328.084,-63.6895"/>
<polygon fill="black" stroke="black" points="330.131,-66.5288 336.313,-57.9244 326.114,-60.7957 330.131,-66.5288"/>
</g>
<!-- Node0x1516b7e0 -->
<g id="node13" class="node"><title>Node0x1516b7e0</title>
<polygon fill="none" stroke="black" points="764,-1543.5 764,-1596.5 883,-1596.5 883,-1543.5 764,-1543.5"/>
<text text-anchor="start" x="772" y="-1581.3" font-family="Times,serif" font-size="14.00">0x84cbda0:</text>
<text text-anchor="start" x="772" y="-1566.3" font-family="Times,serif" font-size="14.00"> if (v16 == 3):</text>
<text text-anchor="start" x="772" y="-1551.3" font-family="Times,serif" font-size="14.00"> else:</text>
</g>
<!-- Node0x1516bc40&#45;&gt;Node0x1516b7e0 -->
<g id="edge13" class="edge"><title>Node0x1516bc40&#45;&gt;Node0x1516b7e0</title>
<path fill="none" stroke="black" d="M823.5,-1679.88C823.5,-1659.13 823.5,-1629.65 823.5,-1606.6"/>
<polygon fill="black" stroke="black" points="827,-1606.52 823.5,-1596.52 820,-1606.52 827,-1606.52"/>
</g>
<!-- Node0x1eb1bec0 -->
<g id="node14" class="node"><title>Node0x1eb1bec0</title>
<polygon fill="none" stroke="black" points="691,-293.5 691,-451.5 924,-451.5 924,-293.5 691,-293.5"/>
<text text-anchor="start" x="699" y="-436.3" font-family="Times,serif" font-size="14.00">0x84d0d10:</text>
<text text-anchor="start" x="699" y="-421.3" font-family="Times,serif" font-size="14.00"> g38 = v1</text>
<text text-anchor="start" x="699" y="-406.3" font-family="Times,serif" font-size="14.00"> g39 = v2</text>
<text text-anchor="start" x="699" y="-391.3" font-family="Times,serif" font-size="14.00"> g40 = v3</text>
<text text-anchor="start" x="699" y="-376.3" font-family="Times,serif" font-size="14.00"> g41 = v4</text>
<text text-anchor="start" x="699" y="-361.3" font-family="Times,serif" font-size="14.00"> g42 = v5</text>
<text text-anchor="start" x="699" y="-346.3" font-family="Times,serif" font-size="14.00"> g32 = v6</text>
<text text-anchor="start" x="699" y="-331.3" font-family="Times,serif" font-size="14.00"> g34 = v10</text>
<text text-anchor="start" x="699" y="-316.3" font-family="Times,serif" font-size="14.00"> IntToPtrCastExpr&lt;ptr&gt;(v7)()</text>
<text text-anchor="start" x="699" y="-301.3" font-family="Times,serif" font-size="14.00"> v11 = (g40 % 256)</text>
</g>
<!-- Node0x15169f90&#45;&gt;Node0x1eb1bec0 -->
<g id="edge14" class="edge"><title>Node0x15169f90&#45;&gt;Node0x1eb1bec0</title>
<path fill="none" stroke="black" d="M995.5,-1615.18C995.5,-1592.48 995.5,-1552.64 995.5,-1518.5 995.5,-1518.5 995.5,-1518.5 995.5,-515 995.5,-474.61 967.458,-444.313 933.033,-422.336"/>
<polygon fill="black" stroke="black" points="934.518,-419.142 924.157,-416.927 930.875,-425.119 934.518,-419.142"/>
</g>
<!-- Node0x15165f90 -->
<g id="node15" class="node"><title>Node0x15165f90</title>
<polygon fill="none" stroke="black" points="375,-1138.5 375,-1491.5 794,-1491.5 794,-1138.5 375,-1138.5"/>
<text text-anchor="start" x="383" y="-1476.3" font-family="Times,serif" font-size="14.00">0x84c89b0:</text>
<text text-anchor="start" x="383" y="-1461.3" font-family="Times,serif" font-size="14.00"> g29 = v8</text>
<text text-anchor="start" x="383" y="-1446.3" font-family="Times,serif" font-size="14.00"> function_f4f0()</text>
<text text-anchor="start" x="383" y="-1431.3" font-family="Times,serif" font-size="14.00"> g38 = g29</text>
<text text-anchor="start" x="383" y="-1416.3" font-family="Times,serif" font-size="14.00"> function_8f38()</text>
<text text-anchor="start" x="383" y="-1401.3" font-family="Times,serif" font-size="14.00"> g29 = g38</text>
<text text-anchor="start" x="383" y="-1386.3" font-family="Times,serif" font-size="14.00"> v17 = g39</text>
<text text-anchor="start" x="383" y="-1371.3" font-family="Times,serif" font-size="14.00"> g30 = v17</text>
<text text-anchor="start" x="383" y="-1356.3" font-family="Times,serif" font-size="14.00"> g36 = v17</text>
<text text-anchor="start" x="383" y="-1341.3" font-family="Times,serif" font-size="14.00"> function_9850()</text>
<text text-anchor="start" x="383" y="-1326.3" font-family="Times,serif" font-size="14.00"> v18 = g39</text>
<text text-anchor="start" x="383" y="-1311.3" font-family="Times,serif" font-size="14.00"> g30 = v18</text>
<text text-anchor="start" x="383" y="-1296.3" font-family="Times,serif" font-size="14.00"> g36 = (g40 + 4)</text>
<text text-anchor="start" x="383" y="-1281.3" font-family="Times,serif" font-size="14.00"> g37 = v18</text>
<text text-anchor="start" x="383" y="-1266.3" font-family="Times,serif" font-size="14.00"> g29 = g38</text>
<text text-anchor="start" x="383" y="-1251.3" font-family="Times,serif" font-size="14.00"> function_a484()</text>
<text text-anchor="start" x="383" y="-1236.3" font-family="Times,serif" font-size="14.00"> g29 = g38</text>
<text text-anchor="start" x="383" y="-1221.3" font-family="Times,serif" font-size="14.00"> function_8f84()</text>
<text text-anchor="start" x="383" y="-1206.3" font-family="Times,serif" font-size="14.00"> g29 = g38</text>
<text text-anchor="start" x="383" y="-1191.3" font-family="Times,serif" font-size="14.00"> function_a168()</text>
<text text-anchor="start" x="383" y="-1176.3" font-family="Times,serif" font-size="14.00"> g30 = &#45;9568</text>
<text text-anchor="start" x="383" y="-1161.3" font-family="Times,serif" font-size="14.00"> v19</text>
<text text-anchor="start" x="383" y="-1146.3" font-family="Times,serif" font-size="14.00"> strcpy(BitCastExpr&lt;ptr&gt;(&amp;(v19)), &quot;&lt;TRACKRADIO&gt;&quot;)</text>
</g>
<!-- Node0x1516b7e0&#45;&gt;Node0x15165f90 -->
<g id="edge15" class="edge"><title>Node0x1516b7e0&#45;&gt;Node0x15165f90</title>
<path fill="none" stroke="black" d="M783.306,-1543.29C775.453,-1537.62 767.493,-1531.39 760.5,-1525 751.45,-1516.73 742.433,-1508 733.536,-1498.99"/>
<polygon fill="black" stroke="black" points="735.917,-1496.42 726.428,-1491.71 730.907,-1501.31 735.917,-1496.42"/>
<text text-anchor="middle" x="795" y="-1513.8" font-family="Times,serif" font-size="14.00">v16 == 3</text>
</g>
<!-- Node0x2462b8a0 -->
<g id="node16" class="node"><title>Node0x2462b8a0</title>
<polygon fill="none" stroke="black" points="812.5,-1288.5 812.5,-1341.5 946.5,-1341.5 946.5,-1288.5 812.5,-1288.5"/>
<text text-anchor="start" x="820.5" y="-1326.3" font-family="Times,serif" font-size="14.00">0x84cbf60:</text>
<text text-anchor="start" x="820.5" y="-1311.3" font-family="Times,serif" font-size="14.00"> g36 = 128</text>
<text text-anchor="start" x="820.5" y="-1296.3" font-family="Times,serif" font-size="14.00"> function_abd0()</text>
</g>
<!-- Node0x1516b7e0&#45;&gt;Node0x2462b8a0 -->
<g id="edge16" class="edge"><title>Node0x1516b7e0&#45;&gt;Node0x2462b8a0</title>
<path fill="none" stroke="black" d="M829.178,-1543.35C839.219,-1497.98 860.13,-1403.51 871.582,-1351.77"/>
<polygon fill="black" stroke="black" points="875.063,-1352.24 873.807,-1341.72 868.229,-1350.73 875.063,-1352.24"/>
<text text-anchor="middle" x="867" y="-1513.8" font-family="Times,serif" font-size="14.00">v16 != 3</text>
</g>
<!-- Node0x2462cf70 -->
<g id="node17" class="node"><title>Node0x2462cf70</title>
<polygon fill="none" stroke="black" points="658,-217.5 658,-255.5 759,-255.5 759,-217.5 658,-217.5"/>
<text text-anchor="start" x="666" y="-240.3" font-family="Times,serif" font-size="14.00">0x84d3900:</text>
<text text-anchor="start" x="666" y="-225.3" font-family="Times,serif" font-size="14.00"> if g9:</text>
</g>
<!-- Node0x1eb1bec0&#45;&gt;Node0x2462cf70 -->
<g id="edge17" class="edge"><title>Node0x1eb1bec0&#45;&gt;Node0x2462cf70</title>
<path fill="none" stroke="black" d="M749.625,-293.164C741.881,-282.683 734.42,-272.583 728.027,-263.931"/>
<polygon fill="black" stroke="black" points="730.778,-261.764 722.021,-255.801 725.148,-265.924 730.778,-261.764"/>
</g>
<!-- Node0x1516b490 -->
<g id="node18" class="node"><title>Node0x1516b490</title>
<polygon fill="none" stroke="black" points="735,-972.5 735,-1100.5 866,-1100.5 866,-972.5 735,-972.5"/>
<text text-anchor="start" x="743" y="-1085.3" font-family="Times,serif" font-size="14.00">0x84cc4a0:</text>
<text text-anchor="start" x="743" y="-1070.3" font-family="Times,serif" font-size="14.00"> g36 = 0</text>
<text text-anchor="start" x="743" y="-1055.3" font-family="Times,serif" font-size="14.00"> g29 = g18</text>
<text text-anchor="start" x="743" y="-1040.3" font-family="Times,serif" font-size="14.00"> g37 = 0</text>
<text text-anchor="start" x="743" y="-1025.3" font-family="Times,serif" font-size="14.00"> function_fd70()</text>
<text text-anchor="start" x="743" y="-1010.3" font-family="Times,serif" font-size="14.00"> v20 = g29</text>
<text text-anchor="start" x="743" y="-995.3" font-family="Times,serif" font-size="14.00"> g38 = v20</text>
<text text-anchor="start" x="743" y="-980.3" font-family="Times,serif" font-size="14.00"> v21 = 0</text>
</g>
<!-- Node0x15165f90&#45;&gt;Node0x1516b490 -->
<g id="edge18" class="edge"><title>Node0x15165f90&#45;&gt;Node0x1516b490</title>
<path fill="none" stroke="black" d="M721.602,-1138.5C729.607,-1128.25 737.381,-1118.3 744.73,-1108.89"/>
<polygon fill="black" stroke="black" points="747.676,-1110.8 751.074,-1100.77 742.16,-1106.5 747.676,-1110.8"/>
</g>
<!-- Node0x2462b8a0&#45;&gt;Node0x1516b490 -->
<g id="edge19" class="edge"><title>Node0x2462b8a0&#45;&gt;Node0x1516b490</title>
<path fill="none" stroke="black" d="M872.209,-1288.48C860.739,-1248.34 838.058,-1168.95 821.26,-1110.16"/>
<polygon fill="black" stroke="black" points="824.625,-1109.2 818.513,-1100.54 817.895,-1111.12 824.625,-1109.2"/>
</g>
<!-- Node0x2462cf70&#45;&gt;Node0x151644c0 -->
<g id="edge21" class="edge"><title>Node0x2462cf70&#45;&gt;Node0x151644c0</title>
<path fill="none" stroke="black" d="M657.787,-232.306C573.317,-225.85 409.413,-208.105 372.5,-166 349.503,-139.769 352.044,-97.1712 356.988,-69.4947"/>
<polygon fill="black" stroke="black" points="360.421,-70.1757 358.952,-59.6832 353.557,-68.8017 360.421,-70.1757"/>
<text text-anchor="middle" x="401" y="-127.8" font-family="Times,serif" font-size="14.00">not (g9)</text>
</g>
<!-- Node0x1516b850 -->
<g id="node19" class="node"><title>Node0x1516b850</title>
<polygon fill="none" stroke="black" points="439,-97.5 439,-165.5 978,-165.5 978,-97.5 439,-97.5"/>
<text text-anchor="start" x="447" y="-150.3" font-family="Times,serif" font-size="14.00">0x84d2d10:</text>
<text text-anchor="start" x="447" y="-135.3" font-family="Times,serif" font-size="14.00"> v12 = g29</text>
<text text-anchor="start" x="447" y="-120.3" font-family="Times,serif" font-size="14.00"> g30 = (v12 &amp; (g38 &gt;&gt; (0 if (v11 == 0) else (31 if (v11 &gt; 31) else v11))))</text>
<text text-anchor="start" x="447" y="-105.3" font-family="Times,serif" font-size="14.00"> g29 = ((g42 / 2) &amp; v12)</text>
</g>
<!-- Node0x2462cf70&#45;&gt;Node0x1516b850 -->
<g id="edge20" class="edge"><title>Node0x2462cf70&#45;&gt;Node0x1516b850</title>
<path fill="none" stroke="black" d="M708.5,-217.086C708.5,-205.631 708.5,-190.39 708.5,-176.003"/>
<polygon fill="black" stroke="black" points="712,-175.743 708.5,-165.743 705,-175.743 712,-175.743"/>
<text text-anchor="middle" x="718" y="-187.8" font-family="Times,serif" font-size="14.00">g9</text>
</g>
<!-- Node0x1516a730 -->
<g id="node20" class="node"><title>Node0x1516a730</title>
<polygon fill="none" stroke="black" points="744,-896.5 744,-934.5 857,-934.5 857,-896.5 744,-896.5"/>
<text text-anchor="start" x="752" y="-919.3" font-family="Times,serif" font-size="14.00">0x84cfb20:</text>
<text text-anchor="start" x="752" y="-904.3" font-family="Times,serif" font-size="14.00"> if (v20 != 0):</text>
</g>
<!-- Node0x1516b490&#45;&gt;Node0x1516a730 -->
<g id="edge22" class="edge"><title>Node0x1516b490&#45;&gt;Node0x1516a730</title>
<path fill="none" stroke="black" d="M800.5,-972.167C800.5,-962.596 800.5,-953.158 800.5,-944.848"/>
<polygon fill="black" stroke="black" points="804,-944.658 800.5,-934.659 797,-944.659 804,-944.658"/>
</g>
<!-- Node0x1516b850&#45;&gt;Node0x151644c0 -->
<g id="edge23" class="edge"><title>Node0x1516b850&#45;&gt;Node0x151644c0</title>
<path fill="none" stroke="black" d="M579.053,-97.4817C515.287,-81.2167 443.136,-62.8129 400.578,-51.9576"/>
<polygon fill="black" stroke="black" points="401.231,-48.5121 390.676,-49.4319 399.501,-55.295 401.231,-48.5121"/>
</g>
<!-- Node0x2462b080 -->
<g id="node21" class="node"><title>Node0x2462b080</title>
<polygon fill="none" stroke="black" points="313,-791.5 313,-844.5 870,-844.5 870,-791.5 313,-791.5"/>
<text text-anchor="start" x="321" y="-829.3" font-family="Times,serif" font-size="14.00">0x1c361950:</text>
<text text-anchor="start" x="321" y="-814.3" font-family="Times,serif" font-size="14.00"> v22 = *(IntToPtrCastExpr&lt;ptr&gt;(*(IntToPtrCastExpr&lt;ptr&gt;((g41 + 200)))))</text>
<text text-anchor="start" x="321" y="-799.3" font-family="Times,serif" font-size="14.00"> g37 = v22</text>
</g>
<!-- Node0x1516a730&#45;&gt;Node0x2462b080 -->
<g id="edge24" class="edge"><title>Node0x1516a730&#45;&gt;Node0x2462b080</title>
<path fill="none" stroke="black" d="M760.697,-896.312C731.359,-882.907 690.805,-864.376 656.754,-848.817"/>
<polygon fill="black" stroke="black" points="657.888,-845.487 647.338,-844.514 654.978,-851.854 657.888,-845.487"/>
<text text-anchor="middle" x="747" y="-866.8" font-family="Times,serif" font-size="14.00">v20 != 0</text>
</g>
<!-- Node0x15165790 -->
<g id="node22" class="node"><title>Node0x15165790</title>
<polygon fill="none" stroke="black" points="736.5,-489.5 736.5,-542.5 878.5,-542.5 878.5,-489.5 736.5,-489.5"/>
<text text-anchor="start" x="744.5" y="-527.3" font-family="Times,serif" font-size="14.00">0x84cfd90:</text>
<text text-anchor="start" x="744.5" y="-512.3" font-family="Times,serif" font-size="14.00"> g9 = (v21 == 0)</text>
<text text-anchor="start" x="744.5" y="-497.3" font-family="Times,serif" font-size="14.00"> g29 = (v21 != 0)</text>
</g>
<!-- Node0x1516a730&#45;&gt;Node0x15165790 -->
<g id="edge25" class="edge"><title>Node0x1516a730&#45;&gt;Node0x15165790</title>
<path fill="none" stroke="black" d="M838.389,-896.46C865.967,-880.406 898.5,-854.041 898.5,-819 898.5,-819 898.5,-819 898.5,-613.5 898.5,-587.174 880.352,-565.116 860.264,-548.764"/>
<polygon fill="black" stroke="black" points="862.26,-545.883 852.2,-542.557 857.99,-551.43 862.26,-545.883"/>
<text text-anchor="middle" x="933" y="-723.3" font-family="Times,serif" font-size="14.00">v20 == 0</text>
</g>
<!-- Node0x2462bc20 -->
<g id="node23" class="node"><title>Node0x2462bc20</title>
<polygon fill="none" stroke="black" points="579,-700.5 579,-753.5 692,-753.5 692,-700.5 579,-700.5"/>
<text text-anchor="start" x="587" y="-738.3" font-family="Times,serif" font-size="14.00">0x84cf8a0:</text>
<text text-anchor="start" x="587" y="-723.3" font-family="Times,serif" font-size="14.00"> if (v22 != 0):</text>
<text text-anchor="start" x="587" y="-708.3" font-family="Times,serif" font-size="14.00"> else:</text>
</g>
<!-- Node0x2462b080&#45;&gt;Node0x2462bc20 -->
<g id="edge26" class="edge"><title>Node0x2462b080&#45;&gt;Node0x2462bc20</title>
<path fill="none" stroke="black" d="M604.227,-791.258C608.605,-782.402 613.583,-772.333 618.259,-762.873"/>
<polygon fill="black" stroke="black" points="621.508,-764.2 622.802,-753.685 615.233,-761.098 621.508,-764.2"/>
</g>
<!-- Node0x15165790&#45;&gt;Node0x1eb1bec0 -->
<g id="edge27" class="edge"><title>Node0x15165790&#45;&gt;Node0x1eb1bec0</title>
<path fill="none" stroke="black" d="M807.5,-489.375C807.5,-481.252 807.5,-471.766 807.5,-461.784"/>
<polygon fill="black" stroke="black" points="811,-461.667 807.5,-451.667 804,-461.667 811,-461.667"/>
</g>
<!-- Node0x1516bea0 -->
<g id="node24" class="node"><title>Node0x1516bea0</title>
<polygon fill="none" stroke="black" points="529.5,-580.5 529.5,-648.5 741.5,-648.5 741.5,-580.5 529.5,-580.5"/>
<text text-anchor="start" x="537.5" y="-633.3" font-family="Times,serif" font-size="14.00">0x84ceb40:</text>
<text text-anchor="start" x="537.5" y="-618.3" font-family="Times,serif" font-size="14.00"> g30 = v20</text>
<text text-anchor="start" x="537.5" y="-603.3" font-family="Times,serif" font-size="14.00"> imported_function_ord_0()</text>
<text text-anchor="start" x="537.5" y="-588.3" font-family="Times,serif" font-size="14.00"> v21 = g38</text>
</g>
<!-- Node0x2462bc20&#45;&gt;Node0x1516bea0 -->
<g id="edge28" class="edge"><title>Node0x2462bc20&#45;&gt;Node0x1516bea0</title>
<path fill="none" stroke="black" d="M635.5,-700.371C635.5,-687.956 635.5,-672.707 635.5,-658.577"/>
<polygon fill="black" stroke="black" points="639,-658.541 635.5,-648.541 632,-658.541 639,-658.541"/>
<text text-anchor="middle" x="667" y="-670.8" font-family="Times,serif" font-size="14.00">v22 != 0</text>
</g>
<!-- Node0x1202a8d0 -->
<g id="node25" class="node"><title>Node0x1202a8d0</title>
<polygon fill="none" stroke="black" points="759.5,-595.5 759.5,-633.5 855.5,-633.5 855.5,-595.5 759.5,-595.5"/>
<text text-anchor="start" x="767.5" y="-618.3" font-family="Times,serif" font-size="14.00">0x84cf9e0:</text>
<text text-anchor="start" x="767.5" y="-603.3" font-family="Times,serif" font-size="14.00"> v21 = v20</text>
</g>
<!-- Node0x2462bc20&#45;&gt;Node0x1202a8d0 -->
<g id="edge29" class="edge"><title>Node0x2462bc20&#45;&gt;Node0x1202a8d0</title>
<path fill="none" stroke="black" d="M675.393,-700.371C704.137,-681.904 742.639,-657.169 770.659,-639.168"/>
<polygon fill="black" stroke="black" points="772.841,-641.927 779.362,-633.577 769.057,-636.037 772.841,-641.927"/>
<text text-anchor="middle" x="762" y="-670.8" font-family="Times,serif" font-size="14.00">v22 == 0</text>
</g>
<!-- Node0x1516bea0&#45;&gt;Node0x15165790 -->
<g id="edge30" class="edge"><title>Node0x1516bea0&#45;&gt;Node0x15165790</title>
<path fill="none" stroke="black" d="M694.693,-580.29C713.566,-569.701 734.353,-558.039 752.886,-547.641"/>
<polygon fill="black" stroke="black" points="754.776,-550.594 761.785,-542.648 751.351,-544.489 754.776,-550.594"/>
</g>
<!-- Node0x1202a8d0&#45;&gt;Node0x15165790 -->
<g id="edge31" class="edge"><title>Node0x1202a8d0&#45;&gt;Node0x15165790</title>
<path fill="none" stroke="black" d="M807.5,-595.349C807.5,-583.399 807.5,-567.348 807.5,-552.886"/>
<polygon fill="black" stroke="black" points="811,-552.718 807.5,-542.718 804,-552.718 811,-552.718"/>
</g>
</g>
</svg>
