<?xml version="1.0" encoding="UTF-8" standalone="no"?>
<!DOCTYPE svg PUBLIC "-//W3C//DTD SVG 1.1//EN"
 "http://www.w3.org/Graphics/SVG/1.1/DTD/svg11.dtd">
<!-- Generated by graphviz version 2.38.0 (20140413.2041)
 -->
<!-- Title: Control&#45;flow graph for function &#39;function_f6e8()&#39;. Pages: 1 -->
<svg width="802pt" height="874pt"
 viewBox="0.00 0.00 801.50 874.00" xmlns="http://www.w3.org/2000/svg" xmlns:xlink="http://www.w3.org/1999/xlink">
<g id="graph0" class="graph" transform="scale(1 1) rotate(0) translate(4 870)">
<title>Control&#45;flow graph for function &#39;function_f6e8()&#39;.</title>
<polygon fill="white" stroke="none" points="-4,4 -4,-870 797.5,-870 797.5,4 -4,4"/>
<text text-anchor="middle" x="396.75" y="-7.8" font-family="Times,serif" font-size="14.00">Control&#45;flow graph for function &#39;function_f6e8()&#39;.</text>
<!-- Node0x160e7c00 -->
<g id="node1" class="node"><title>Node0x160e7c00</title>
<polygon fill="none" stroke="black" points="288.5,-829.5 288.5,-865.5 347.5,-865.5 347.5,-829.5 288.5,-829.5"/>
<text text-anchor="start" x="296.5" y="-843.8" font-family="Times,serif" font-size="14.00">entry:</text>
</g>
<!-- Node0x160e8030 -->
<g id="node2" class="node"><title>Node0x160e8030</title>
<polygon fill="none" stroke="black" points="149,-738.5 149,-791.5 487,-791.5 487,-738.5 149,-738.5"/>
<text text-anchor="start" x="157" y="-776.3" font-family="Times,serif" font-size="14.00">0xf7a1970:</text>
<text text-anchor="start" x="157" y="-761.3" font-family="Times,serif" font-size="14.00"> v1 = *(IntToPtrCastExpr&lt;ptr&gt;((g29 + 16)))</text>
<text text-anchor="start" x="157" y="-746.3" font-family="Times,serif" font-size="14.00"> v2 = *(IntToPtrCastExpr&lt;ptr&gt;((v1 + 25)))</text>
</g>
<!-- Node0x160e7c00&#45;&gt;Node0x160e8030 -->
<g id="edge1" class="edge"><title>Node0x160e7c00&#45;&gt;Node0x160e8030</title>
<path fill="none" stroke="black" d="M318,-829.428C318,-821.361 318,-811.411 318,-801.802"/>
<polygon fill="black" stroke="black" points="321.5,-801.616 318,-791.616 314.5,-801.616 321.5,-801.616"/>
</g>
<!-- Node0x160e8270 -->
<g id="node3" class="node"><title>Node0x160e8270</title>
<polygon fill="none" stroke="black" points="140.5,-662.5 140.5,-700.5 495.5,-700.5 495.5,-662.5 140.5,-662.5"/>
<text text-anchor="start" x="148.5" y="-685.3" font-family="Times,serif" font-size="14.00">0x7839e70:</text>
<text text-anchor="start" x="148.5" y="-670.3" font-family="Times,serif" font-size="14.00"> if (*(IntToPtrCastExpr&lt;ptr&gt;((v1 + 21))) != 0):</text>
</g>
<!-- Node0x160e8030&#45;&gt;Node0x160e8270 -->
<g id="edge2" class="edge"><title>Node0x160e8030&#45;&gt;Node0x160e8270</title>
<path fill="none" stroke="black" d="M318,-738.213C318,-729.526 318,-719.787 318,-710.91"/>
<polygon fill="black" stroke="black" points="321.5,-710.638 318,-700.638 314.5,-710.638 321.5,-710.638"/>
</g>
<!-- Node0x32b447e0 -->
<g id="node4" class="node"><title>Node0x32b447e0</title>
<polygon fill="none" stroke="black" points="0,-410.5 0,-463.5 308,-463.5 308,-410.5 0,-410.5"/>
<text text-anchor="start" x="8" y="-448.3" font-family="Times,serif" font-size="14.00">0x7839bc0:</text>
<text text-anchor="start" x="8" y="-433.3" font-family="Times,serif" font-size="14.00"> g29 = ((136 if (v2 == 0) else 392) + v1)</text>
<text text-anchor="start" x="8" y="-418.3" font-family="Times,serif" font-size="14.00"> return</text>
</g>
<!-- Node0x160e8270&#45;&gt;Node0x32b447e0 -->
<g id="edge3" class="edge"><title>Node0x160e8270&#45;&gt;Node0x32b447e0</title>
<path fill="none" stroke="black" d="M187.932,-662.411C170.792,-657.564 157.048,-651.513 151,-644 112.11,-595.692 127.276,-518.324 141.114,-473.42"/>
<polygon fill="black" stroke="black" points="144.474,-474.407 144.207,-463.816 137.81,-472.262 144.474,-474.407"/>
<text text-anchor="middle" x="303.5" y="-632.8" font-family="Times,serif" font-size="14.00">*(IntToPtrCastExpr&lt;ptr&gt;((v1 + 21))) != 0</text>
</g>
<!-- Node0x32b43ff0 -->
<g id="node5" class="node"><title>Node0x32b43ff0</title>
<polygon fill="none" stroke="black" points="241,-482.5 241,-610.5 723,-610.5 723,-482.5 241,-482.5"/>
<text text-anchor="start" x="249" y="-595.3" font-family="Times,serif" font-size="14.00">0xf7a1d70:</text>
<text text-anchor="start" x="249" y="-580.3" font-family="Times,serif" font-size="14.00"> v3 = *(IntToPtrCastExpr&lt;ptr&gt;(((12 if (v2 == 0) else 16) + v1)))</text>
<text text-anchor="start" x="249" y="-565.3" font-family="Times,serif" font-size="14.00"> g30 = v3</text>
<text text-anchor="start" x="249" y="-550.3" font-family="Times,serif" font-size="14.00"> v4 = *(IntToPtrCastExpr&lt;ptr&gt;((v1 + 4)))</text>
<text text-anchor="start" x="249" y="-535.3" font-family="Times,serif" font-size="14.00"> g33 = v4</text>
<text text-anchor="start" x="249" y="-520.3" font-family="Times,serif" font-size="14.00"> g8 = False</text>
<text text-anchor="start" x="249" y="-505.3" font-family="Times,serif" font-size="14.00"> g7 = (v3 &lt; 0)</text>
<text text-anchor="start" x="249" y="-490.3" font-family="Times,serif" font-size="14.00"> g9 = (v3 == 0)</text>
</g>
<!-- Node0x160e8270&#45;&gt;Node0x32b43ff0 -->
<g id="edge4" class="edge"><title>Node0x160e8270&#45;&gt;Node0x32b43ff0</title>
<path fill="none" stroke="black" d="M434.84,-662.337C444.134,-657.5 452.722,-651.48 460,-644 466.512,-637.307 471.25,-629.107 474.675,-620.341"/>
<polygon fill="black" stroke="black" points="478.063,-621.246 477.897,-610.652 471.42,-619.037 478.063,-621.246"/>
<text text-anchor="middle" x="626.5" y="-632.8" font-family="Times,serif" font-size="14.00">*(IntToPtrCastExpr&lt;ptr&gt;((v1 + 21))) == 0</text>
</g>
<!-- Node0x160e7810 -->
<g id="node6" class="node"><title>Node0x160e7810</title>
<polygon fill="none" stroke="black" points="201,-23.5 201,-59.5 255,-59.5 255,-23.5 201,-23.5"/>
<text text-anchor="start" x="209" y="-37.8" font-family="Times,serif" font-size="14.00">exit:</text>
</g>
<!-- Node0x32b447e0&#45;&gt;Node0x160e7810 -->
<g id="edge5" class="edge"><title>Node0x32b447e0&#45;&gt;Node0x160e7810</title>
<path fill="none" stroke="black" d="M154,-410.19C154,-385.399 154,-346.89 154,-313.5 154,-313.5 154,-313.5 154,-115.5 154,-91.8691 173.361,-73.3133 192.277,-60.8235"/>
<polygon fill="black" stroke="black" points="194.199,-63.7501 200.865,-55.5153 190.519,-57.7956 194.199,-63.7501"/>
</g>
<!-- Node0x32b443c0 -->
<g id="node7" class="node"><title>Node0x32b443c0</title>
<polygon fill="none" stroke="black" points="431.5,-338.5 431.5,-391.5 532.5,-391.5 532.5,-338.5 431.5,-338.5"/>
<text text-anchor="start" x="439.5" y="-376.3" font-family="Times,serif" font-size="14.00">0x783d110:</text>
<text text-anchor="start" x="439.5" y="-361.3" font-family="Times,serif" font-size="14.00"> if (v3 &lt; 0):</text>
<text text-anchor="start" x="439.5" y="-346.3" font-family="Times,serif" font-size="14.00"> else:</text>
</g>
<!-- Node0x32b43ff0&#45;&gt;Node0x32b443c0 -->
<g id="edge6" class="edge"><title>Node0x32b43ff0&#45;&gt;Node0x32b443c0</title>
<path fill="none" stroke="black" d="M482,-482.467C482,-455.486 482,-424.96 482,-401.931"/>
<polygon fill="black" stroke="black" points="485.5,-401.917 482,-391.917 478.5,-401.917 485.5,-401.917"/>
</g>
<!-- Node0x160e6840 -->
<g id="node8" class="node"><title>Node0x160e6840</title>
<polygon fill="none" stroke="black" points="182,-173.5 182,-286.5 674,-286.5 674,-173.5 182,-173.5"/>
<text text-anchor="start" x="190" y="-271.3" font-family="Times,serif" font-size="14.00">0x1ed128d0:</text>
<text text-anchor="start" x="190" y="-256.3" font-family="Times,serif" font-size="14.00"> v5 = ExtCastExpr&lt;int32&gt;(*(IntToPtrCastExpr&lt;ptr&gt;((v4 + 16))))</text>
<text text-anchor="start" x="190" y="-241.3" font-family="Times,serif" font-size="14.00"> g36 = v5</text>
<text text-anchor="start" x="190" y="-226.3" font-family="Times,serif" font-size="14.00"> v6 = ExtCastExpr&lt;int32&gt;(*(IntToPtrCastExpr&lt;ptr&gt;((v4 + 12))))</text>
<text text-anchor="start" x="190" y="-211.3" font-family="Times,serif" font-size="14.00"> g37 = v6</text>
<text text-anchor="start" x="190" y="-196.3" font-family="Times,serif" font-size="14.00"> g29 = v4</text>
<text text-anchor="start" x="190" y="-181.3" font-family="Times,serif" font-size="14.00"> g30 = (v6 + v5)</text>
</g>
<!-- Node0x32b443c0&#45;&gt;Node0x160e6840 -->
<g id="edge7" class="edge"><title>Node0x32b443c0&#45;&gt;Node0x160e6840</title>
<path fill="none" stroke="black" d="M471.588,-338.356C466.639,-326.167 460.476,-310.987 454.357,-295.915"/>
<polygon fill="black" stroke="black" points="457.568,-294.522 450.564,-286.573 451.083,-297.155 457.568,-294.522"/>
<text text-anchor="middle" x="487" y="-308.8" font-family="Times,serif" font-size="14.00">v3 &lt; 0</text>
</g>
<!-- Node0x32b44bb0 -->
<g id="node9" class="node"><title>Node0x32b44bb0</title>
<polygon fill="none" stroke="black" points="692.5,-211 692.5,-249 793.5,-249 793.5,-211 692.5,-211"/>
<text text-anchor="start" x="700.5" y="-233.8" font-family="Times,serif" font-size="14.00">0x783d340:</text>
<text text-anchor="start" x="700.5" y="-218.8" font-family="Times,serif" font-size="14.00"> g29 = v4</text>
</g>
<!-- Node0x32b443c0&#45;&gt;Node0x32b44bb0 -->
<g id="edge8" class="edge"><title>Node0x32b443c0&#45;&gt;Node0x32b44bb0</title>
<path fill="none" stroke="black" d="M532.816,-350.477C575.029,-337.887 635.619,-316.599 683,-287 696.42,-278.617 709.487,-266.969 719.982,-256.467"/>
<polygon fill="black" stroke="black" points="722.691,-258.701 727.138,-249.085 717.665,-253.829 722.691,-258.701"/>
<text text-anchor="middle" x="677" y="-308.8" font-family="Times,serif" font-size="14.00">v3 &gt;= 0</text>
</g>
<!-- Node0x32b44720 -->
<g id="node10" class="node"><title>Node0x32b44720</title>
<polygon fill="none" stroke="black" points="363,-97.5 363,-135.5 493,-135.5 493,-97.5 363,-97.5"/>
<text text-anchor="start" x="371" y="-120.3" font-family="Times,serif" font-size="14.00">0x783d6e0:</text>
<text text-anchor="start" x="371" y="-105.3" font-family="Times,serif" font-size="14.00"> function_8ef0()</text>
</g>
<!-- Node0x160e6840&#45;&gt;Node0x32b44720 -->
<g id="edge9" class="edge"><title>Node0x160e6840&#45;&gt;Node0x32b44720</title>
<path fill="none" stroke="black" d="M428,-173.25C428,-163.862 428,-154.474 428,-146.151"/>
<polygon fill="black" stroke="black" points="431.5,-145.912 428,-135.912 424.5,-145.912 431.5,-145.912"/>
</g>
<!-- Node0x32b44bb0&#45;&gt;Node0x32b44720 -->
<g id="edge10" class="edge"><title>Node0x32b44bb0&#45;&gt;Node0x32b44720</title>
<path fill="none" stroke="black" d="M728.328,-210.896C717.19,-198.365 700.796,-182.324 683,-173 626.823,-143.567 555.84,-129.728 503.039,-123.229"/>
<polygon fill="black" stroke="black" points="503.404,-119.748 493.065,-122.062 502.591,-126.701 503.404,-119.748"/>
</g>
<!-- Node0x32b44720&#45;&gt;Node0x160e7810 -->
<g id="edge11" class="edge"><title>Node0x32b44720&#45;&gt;Node0x160e7810</title>
<path fill="none" stroke="black" d="M378.562,-97.4551C343.234,-84.5604 296.481,-67.4955 264.503,-55.8235"/>
<polygon fill="black" stroke="black" points="265.676,-52.5258 255.082,-52.3848 263.276,-59.1015 265.676,-52.5258"/>
</g>
</g>
</svg>
