<?xml version="1.0" encoding="UTF-8" standalone="no"?>
<!DOCTYPE svg PUBLIC "-//W3C//DTD SVG 1.1//EN"
 "http://www.w3.org/Graphics/SVG/1.1/DTD/svg11.dtd">
<!-- Generated by graphviz version 2.38.0 (20140413.2041)
 -->
<!-- Title: Control&#45;flow graph for function &#39;function_fa4c()&#39;. Pages: 1 -->
<svg width="434pt" height="655pt"
 viewBox="0.00 0.00 433.50 655.00" xmlns="http://www.w3.org/2000/svg" xmlns:xlink="http://www.w3.org/1999/xlink">
<g id="graph0" class="graph" transform="scale(1 1) rotate(0) translate(4 651)">
<title>Control&#45;flow graph for function &#39;function_fa4c()&#39;.</title>
<polygon fill="white" stroke="none" points="-4,4 -4,-651 429.5,-651 429.5,4 -4,4"/>
<text text-anchor="middle" x="212.75" y="-7.8" font-family="Times,serif" font-size="14.00">Control&#45;flow graph for function &#39;function_fa4c()&#39;.</text>
<!-- Node0x6ef1220 -->
<g id="node1" class="node"><title>Node0x6ef1220</title>
<polygon fill="none" stroke="black" points="215.5,-610.5 215.5,-646.5 274.5,-646.5 274.5,-610.5 215.5,-610.5"/>
<text text-anchor="start" x="223.5" y="-624.8" font-family="Times,serif" font-size="14.00">entry:</text>
</g>
<!-- Node0x32b45a70 -->
<g id="node2" class="node"><title>Node0x32b45a70</title>
<polygon fill="none" stroke="black" points="64.5,-444.5 64.5,-572.5 425.5,-572.5 425.5,-444.5 64.5,-444.5"/>
<text text-anchor="start" x="72.5" y="-557.3" font-family="Times,serif" font-size="14.00">0x27c016a0:</text>
<text text-anchor="start" x="72.5" y="-542.3" font-family="Times,serif" font-size="14.00"> v1 = g38</text>
<text text-anchor="start" x="72.5" y="-527.3" font-family="Times,serif" font-size="14.00"> v2 = g29</text>
<text text-anchor="start" x="72.5" y="-512.3" font-family="Times,serif" font-size="14.00"> v3 = (*(IntToPtrCastExpr&lt;ptr&gt;((v2 + 8))) % 2)</text>
<text text-anchor="start" x="72.5" y="-497.3" font-family="Times,serif" font-size="14.00"> g9 = (v3 == 0)</text>
<text text-anchor="start" x="72.5" y="-482.3" font-family="Times,serif" font-size="14.00"> g37 = v3</text>
<text text-anchor="start" x="72.5" y="-467.3" font-family="Times,serif" font-size="14.00"> v4 = (g30 + 2370)</text>
<text text-anchor="start" x="72.5" y="-452.3" font-family="Times,serif" font-size="14.00"> g38 = v4</text>
</g>
<!-- Node0x6ef1220&#45;&gt;Node0x32b45a70 -->
<g id="edge1" class="edge"><title>Node0x6ef1220&#45;&gt;Node0x32b45a70</title>
<path fill="none" stroke="black" d="M245,-610.342C245,-602.719 245,-593.177 245,-583.023"/>
<polygon fill="black" stroke="black" points="248.5,-582.713 245,-572.713 241.5,-582.713 248.5,-582.713"/>
</g>
<!-- Node0x33648d60 -->
<g id="node3" class="node"><title>Node0x33648d60</title>
<polygon fill="none" stroke="black" points="190,-353.5 190,-406.5 300,-406.5 300,-353.5 190,-353.5"/>
<text text-anchor="start" x="198" y="-391.3" font-family="Times,serif" font-size="14.00">0x78987b0:</text>
<text text-anchor="start" x="198" y="-376.3" font-family="Times,serif" font-size="14.00"> if (v3 == 0):</text>
<text text-anchor="start" x="198" y="-361.3" font-family="Times,serif" font-size="14.00"> else:</text>
</g>
<!-- Node0x32b45a70&#45;&gt;Node0x33648d60 -->
<g id="edge2" class="edge"><title>Node0x32b45a70&#45;&gt;Node0x33648d60</title>
<path fill="none" stroke="black" d="M245,-444.25C245,-434.765 245,-425.28 245,-416.648"/>
<polygon fill="black" stroke="black" points="248.5,-416.599 245,-406.599 241.5,-416.599 248.5,-416.599"/>
</g>
<!-- Node0x32b48b80 -->
<g id="node4" class="node"><title>Node0x32b48b80</title>
<polygon fill="none" stroke="black" points="0,-248.5 0,-286.5 270,-286.5 270,-248.5 0,-248.5"/>
<text text-anchor="start" x="8" y="-271.3" font-family="Times,serif" font-size="14.00">0x78984d0:</text>
<text text-anchor="start" x="8" y="-256.3" font-family="Times,serif" font-size="14.00"> *(IntToPtrCastExpr&lt;ptr&gt;(v4)) = 0</text>
</g>
<!-- Node0x33648d60&#45;&gt;Node0x32b48b80 -->
<g id="edge3" class="edge"><title>Node0x33648d60&#45;&gt;Node0x32b48b80</title>
<path fill="none" stroke="black" d="M219.487,-353.371C201.717,-335.52 178.115,-311.811 160.374,-293.99"/>
<polygon fill="black" stroke="black" points="162.7,-291.365 153.164,-286.747 157.739,-296.303 162.7,-291.365"/>
<text text-anchor="middle" x="230" y="-323.8" font-family="Times,serif" font-size="14.00">v3 == 0</text>
</g>
<!-- Node0x32b4af00 -->
<g id="node5" class="node"><title>Node0x32b4af00</title>
<polygon fill="none" stroke="black" points="288,-233.5 288,-301.5 424,-301.5 424,-233.5 288,-233.5"/>
<text text-anchor="start" x="296" y="-286.3" font-family="Times,serif" font-size="14.00">0x7898a60:</text>
<text text-anchor="start" x="296" y="-271.3" font-family="Times,serif" font-size="14.00"> g29 = (v2 + 12)</text>
<text text-anchor="start" x="296" y="-256.3" font-family="Times,serif" font-size="14.00"> g30 = v4</text>
<text text-anchor="start" x="296" y="-241.3" font-family="Times,serif" font-size="14.00"> function_ab84()</text>
</g>
<!-- Node0x33648d60&#45;&gt;Node0x32b4af00 -->
<g id="edge4" class="edge"><title>Node0x33648d60&#45;&gt;Node0x32b4af00</title>
<path fill="none" stroke="black" d="M270.745,-353.371C284.064,-340.112 300.629,-323.622 315.606,-308.712"/>
<polygon fill="black" stroke="black" points="318.191,-311.077 322.809,-301.541 313.253,-306.116 318.191,-311.077"/>
<text text-anchor="middle" x="330" y="-323.8" font-family="Times,serif" font-size="14.00">v3 != 0</text>
</g>
<!-- Node0x33643d30 -->
<g id="node6" class="node"><title>Node0x33643d30</title>
<polygon fill="none" stroke="black" points="149,-97.5 149,-195.5 391,-195.5 391,-97.5 149,-97.5"/>
<text text-anchor="start" x="157" y="-180.3" font-family="Times,serif" font-size="14.00">0x78992a0:</text>
<text text-anchor="start" x="157" y="-165.3" font-family="Times,serif" font-size="14.00"> g29 = g38</text>
<text text-anchor="start" x="157" y="-150.3" font-family="Times,serif" font-size="14.00"> g38 = v1</text>
<text text-anchor="start" x="157" y="-135.3" font-family="Times,serif" font-size="14.00"> v5</text>
<text text-anchor="start" x="157" y="-120.3" font-family="Times,serif" font-size="14.00"> g34 = v5</text>
<text text-anchor="start" x="157" y="-105.3" font-family="Times,serif" font-size="14.00"> IntToPtrCastExpr&lt;ptr&gt;(g35)()</text>
</g>
<!-- Node0x32b48b80&#45;&gt;Node0x33643d30 -->
<g id="edge5" class="edge"><title>Node0x32b48b80&#45;&gt;Node0x33643d30</title>
<path fill="none" stroke="black" d="M155.504,-248.426C169.507,-236.083 188.867,-219.017 207.686,-202.428"/>
<polygon fill="black" stroke="black" points="210.231,-204.851 215.419,-195.612 205.603,-199.599 210.231,-204.851"/>
</g>
<!-- Node0x32b4af00&#45;&gt;Node0x33643d30 -->
<g id="edge6" class="edge"><title>Node0x32b4af00&#45;&gt;Node0x33643d30</title>
<path fill="none" stroke="black" d="M332.044,-233.352C325.443,-224.218 318.092,-214.046 310.824,-203.989"/>
<polygon fill="black" stroke="black" points="313.451,-201.649 304.757,-195.594 307.777,-205.749 313.451,-201.649"/>
</g>
<!-- Node0x42b722c0 -->
<g id="node7" class="node"><title>Node0x42b722c0</title>
<polygon fill="none" stroke="black" points="243,-23.5 243,-59.5 297,-59.5 297,-23.5 243,-23.5"/>
<text text-anchor="start" x="251" y="-37.8" font-family="Times,serif" font-size="14.00">exit:</text>
</g>
<!-- Node0x33643d30&#45;&gt;Node0x42b722c0 -->
<g id="edge7" class="edge"><title>Node0x33643d30&#45;&gt;Node0x42b722c0</title>
<path fill="none" stroke="black" d="M270,-97.3173C270,-87.893 270,-78.32 270,-69.8676"/>
<polygon fill="black" stroke="black" points="273.5,-69.856 270,-59.8561 266.5,-69.8561 273.5,-69.856"/>
</g>
</g>
</svg>
