<?xml version="1.0" encoding="UTF-8" standalone="no"?>
<!DOCTYPE svg PUBLIC "-//W3C//DTD SVG 1.1//EN"
 "http://www.w3.org/Graphics/SVG/1.1/DTD/svg11.dtd">
<!-- Generated by graphviz version 2.38.0 (20140413.2041)
 -->
<!-- Title: Control&#45;flow graph for function &#39;function_132d0()&#39;. Pages: 1 -->
<svg width="652pt" height="366pt"
 viewBox="0.00 0.00 652.00 366.00" xmlns="http://www.w3.org/2000/svg" xmlns:xlink="http://www.w3.org/1999/xlink">
<g id="graph0" class="graph" transform="scale(1 1) rotate(0) translate(4 362)">
<title>Control&#45;flow graph for function &#39;function_132d0()&#39;.</title>
<polygon fill="white" stroke="none" points="-4,4 -4,-362 648,-362 648,4 -4,4"/>
<text text-anchor="middle" x="322" y="-7.8" font-family="Times,serif" font-size="14.00">Control&#45;flow graph for function &#39;function_132d0()&#39;.</text>
<!-- Node0x1fb0c8a0 -->
<g id="node1" class="node"><title>Node0x1fb0c8a0</title>
<polygon fill="none" stroke="black" points="292.5,-321.5 292.5,-357.5 351.5,-357.5 351.5,-321.5 292.5,-321.5"/>
<text text-anchor="start" x="300.5" y="-335.8" font-family="Times,serif" font-size="14.00">entry:</text>
</g>
<!-- Node0x37591080 -->
<g id="node2" class="node"><title>Node0x37591080</title>
<polygon fill="none" stroke="black" points="0,-96.5 0,-284.5 644,-284.5 644,-96.5 0,-96.5"/>
<text text-anchor="start" x="8" y="-269.3" font-family="Times,serif" font-size="14.00">0x1c234370:</text>
<text text-anchor="start" x="8" y="-254.3" font-family="Times,serif" font-size="14.00"> v1 = (ExtCastExpr&lt;int64&gt;(g29) * ExtCastExpr&lt;int64&gt;(g30))</text>
<text text-anchor="start" x="8" y="-239.3" font-family="Times,serif" font-size="14.00"> v2 = TruncCastExpr&lt;int32&gt;(v1)</text>
<text text-anchor="start" x="8" y="-224.3" font-family="Times,serif" font-size="14.00"> v3 = (v2 + (g36 / 2))</text>
<text text-anchor="start" x="8" y="-209.3" font-family="Times,serif" font-size="14.00"> g6 = (v3 &lt; v2)</text>
<text text-anchor="start" x="8" y="-194.3" font-family="Times,serif" font-size="14.00"> g29 = v3</text>
<text text-anchor="start" x="8" y="-179.3" font-family="Times,serif" font-size="14.00"> g30 = (ExtCastExpr&lt;int32&gt;((v3 &lt; v2)) + TruncCastExpr&lt;int32&gt;((v1 / 4294967296)))</text>
<text text-anchor="start" x="8" y="-164.3" font-family="Times,serif" font-size="14.00"> g37 = 0</text>
<text text-anchor="start" x="8" y="-149.3" font-family="Times,serif" font-size="14.00"> function_238ac()</text>
<text text-anchor="start" x="8" y="-134.3" font-family="Times,serif" font-size="14.00"> v4</text>
<text text-anchor="start" x="8" y="-119.3" font-family="Times,serif" font-size="14.00"> g34 = v4</text>
<text text-anchor="start" x="8" y="-104.3" font-family="Times,serif" font-size="14.00"> IntToPtrCastExpr&lt;ptr&gt;(g35)()</text>
</g>
<!-- Node0x1fb0c8a0&#45;&gt;Node0x37591080 -->
<g id="edge1" class="edge"><title>Node0x1fb0c8a0&#45;&gt;Node0x37591080</title>
<path fill="none" stroke="black" d="M322,-321.35C322,-314.079 322,-304.97 322,-294.967"/>
<polygon fill="black" stroke="black" points="325.5,-294.701 322,-284.702 318.5,-294.702 325.5,-294.701"/>
</g>
<!-- Node0x21b0dff0 -->
<g id="node3" class="node"><title>Node0x21b0dff0</title>
<polygon fill="none" stroke="black" points="295,-23.5 295,-59.5 349,-59.5 349,-23.5 295,-23.5"/>
<text text-anchor="start" x="303" y="-37.8" font-family="Times,serif" font-size="14.00">exit:</text>
</g>
<!-- Node0x37591080&#45;&gt;Node0x21b0dff0 -->
<g id="edge2" class="edge"><title>Node0x37591080&#45;&gt;Node0x21b0dff0</title>
<path fill="none" stroke="black" d="M322,-96.4027C322,-86.9531 322,-77.9697 322,-70.142"/>
<polygon fill="black" stroke="black" points="325.5,-69.9174 322,-59.9174 318.5,-69.9174 325.5,-69.9174"/>
</g>
</g>
</svg>
