<?xml version="1.0" encoding="UTF-8" standalone="no"?>
<!DOCTYPE svg PUBLIC "-//W3C//DTD SVG 1.1//EN"
 "http://www.w3.org/Graphics/SVG/1.1/DTD/svg11.dtd">
<!-- Generated by graphviz version 2.38.0 (20140413.2041)
 -->
<!-- Title: Control&#45;flow graph for function &#39;function_f93c()&#39;. Pages: 1 -->
<svg width="404pt" height="926pt"
 viewBox="0.00 0.00 404.00 926.00" xmlns="http://www.w3.org/2000/svg" xmlns:xlink="http://www.w3.org/1999/xlink">
<g id="graph0" class="graph" transform="scale(1 1) rotate(0) translate(4 922)">
<title>Control&#45;flow graph for function &#39;function_f93c()&#39;.</title>
<polygon fill="white" stroke="none" points="-4,4 -4,-922 400,-922 400,4 -4,4"/>
<text text-anchor="middle" x="198" y="-7.8" font-family="Times,serif" font-size="14.00">Control&#45;flow graph for function &#39;function_f93c()&#39;.</text>
<!-- Node0x336442b0 -->
<g id="node1" class="node"><title>Node0x336442b0</title>
<polygon fill="none" stroke="black" points="180.5,-881.5 180.5,-917.5 239.5,-917.5 239.5,-881.5 180.5,-881.5"/>
<text text-anchor="start" x="188.5" y="-895.8" font-family="Times,serif" font-size="14.00">entry:</text>
</g>
<!-- Node0x33646070 -->
<g id="node2" class="node"><title>Node0x33646070</title>
<polygon fill="none" stroke="black" points="36.5,-655.5 36.5,-843.5 383.5,-843.5 383.5,-655.5 36.5,-655.5"/>
<text text-anchor="start" x="44.5" y="-828.3" font-family="Times,serif" font-size="14.00">0xf7a1570:</text>
<text text-anchor="start" x="44.5" y="-813.3" font-family="Times,serif" font-size="14.00"> v1 = g38</text>
<text text-anchor="start" x="44.5" y="-798.3" font-family="Times,serif" font-size="14.00"> *(IntToPtrCastExpr&lt;ptr&gt;((g30 + 2370))) = 0</text>
<text text-anchor="start" x="44.5" y="-783.3" font-family="Times,serif" font-size="14.00"> v2 = g29</text>
<text text-anchor="start" x="44.5" y="-768.3" font-family="Times,serif" font-size="14.00"> v3 = *(IntToPtrCastExpr&lt;ptr&gt;((v2 + 8)))</text>
<text text-anchor="start" x="44.5" y="-753.3" font-family="Times,serif" font-size="14.00"> g37 = v3</text>
<text text-anchor="start" x="44.5" y="-738.3" font-family="Times,serif" font-size="14.00"> v4 = g30</text>
<text text-anchor="start" x="44.5" y="-723.3" font-family="Times,serif" font-size="14.00"> g38 = v4</text>
<text text-anchor="start" x="44.5" y="-708.3" font-family="Times,serif" font-size="14.00"> g9 = ((v3 &amp; 256) == 0)</text>
<text text-anchor="start" x="44.5" y="-693.3" font-family="Times,serif" font-size="14.00"> g33 = v2</text>
<text text-anchor="start" x="44.5" y="-678.3" font-family="Times,serif" font-size="14.00"> g30 = 165012</text>
<text text-anchor="start" x="44.5" y="-663.3" font-family="Times,serif" font-size="14.00"> v5 = v4</text>
</g>
<!-- Node0x336442b0&#45;&gt;Node0x33646070 -->
<g id="edge1" class="edge"><title>Node0x336442b0&#45;&gt;Node0x33646070</title>
<path fill="none" stroke="black" d="M210,-881.233C210,-873.721 210,-864.26 210,-853.877"/>
<polygon fill="black" stroke="black" points="213.5,-853.674 210,-843.674 206.5,-853.675 213.5,-853.674"/>
</g>
<!-- Node0x32b4a8c0 -->
<g id="node3" class="node"><title>Node0x32b4a8c0</title>
<polygon fill="none" stroke="black" points="128.5,-579.5 128.5,-617.5 291.5,-617.5 291.5,-579.5 128.5,-579.5"/>
<text text-anchor="start" x="136.5" y="-602.3" font-family="Times,serif" font-size="14.00">0x787c470:</text>
<text text-anchor="start" x="136.5" y="-587.3" font-family="Times,serif" font-size="14.00"> if ((v3 &amp; 256) != 0):</text>
</g>
<!-- Node0x33646070&#45;&gt;Node0x32b4a8c0 -->
<g id="edge2" class="edge"><title>Node0x33646070&#45;&gt;Node0x32b4a8c0</title>
<path fill="none" stroke="black" d="M210,-655.406C210,-645.426 210,-635.921 210,-627.673"/>
<polygon fill="black" stroke="black" points="213.5,-627.619 210,-617.619 206.5,-627.619 213.5,-627.619"/>
</g>
<!-- Node0x33646640 -->
<g id="node4" class="node"><title>Node0x33646640</title>
<polygon fill="none" stroke="black" points="77,-399.5 77,-527.5 231,-527.5 231,-399.5 77,-399.5"/>
<text text-anchor="start" x="85" y="-512.3" font-family="Times,serif" font-size="14.00">0x787b410:</text>
<text text-anchor="start" x="85" y="-497.3" font-family="Times,serif" font-size="14.00"> g36 = 155484</text>
<text text-anchor="start" x="85" y="-482.3" font-family="Times,serif" font-size="14.00"> g33 = (v2 + 60)</text>
<text text-anchor="start" x="85" y="-467.3" font-family="Times,serif" font-size="14.00"> g29 = (v4 + 2370)</text>
<text text-anchor="start" x="85" y="-452.3" font-family="Times,serif" font-size="14.00"> g30 = 60</text>
<text text-anchor="start" x="85" y="-437.3" font-family="Times,serif" font-size="14.00"> g37 = 20</text>
<text text-anchor="start" x="85" y="-422.3" font-family="Times,serif" font-size="14.00"> function_1343c()</text>
<text text-anchor="start" x="85" y="-407.3" font-family="Times,serif" font-size="14.00"> v5 = g38</text>
</g>
<!-- Node0x32b4a8c0&#45;&gt;Node0x33646640 -->
<g id="edge3" class="edge"><title>Node0x32b4a8c0&#45;&gt;Node0x33646640</title>
<path fill="none" stroke="black" d="M164.918,-579.407C157.749,-574.513 151.292,-568.447 147,-561 142.885,-553.861 140.605,-545.914 139.606,-537.732"/>
<polygon fill="black" stroke="black" points="143.095,-537.439 138.987,-527.673 136.108,-537.869 143.095,-537.439"/>
<text text-anchor="middle" x="203.5" y="-549.8" font-family="Times,serif" font-size="14.00">(v3 &amp; 256) != 0</text>
</g>
<!-- Node0x33643fc0 -->
<g id="node5" class="node"><title>Node0x33643fc0</title>
<polygon fill="none" stroke="black" points="117,-263.5 117,-361.5 359,-361.5 359,-263.5 117,-263.5"/>
<text text-anchor="start" x="125" y="-346.3" font-family="Times,serif" font-size="14.00">0x787c640:</text>
<text text-anchor="start" x="125" y="-331.3" font-family="Times,serif" font-size="14.00"> g29 = (v5 + 2370)</text>
<text text-anchor="start" x="125" y="-316.3" font-family="Times,serif" font-size="14.00"> g38 = v1</text>
<text text-anchor="start" x="125" y="-301.3" font-family="Times,serif" font-size="14.00"> v6</text>
<text text-anchor="start" x="125" y="-286.3" font-family="Times,serif" font-size="14.00"> g34 = v6</text>
<text text-anchor="start" x="125" y="-271.3" font-family="Times,serif" font-size="14.00"> IntToPtrCastExpr&lt;ptr&gt;(g35)()</text>
</g>
<!-- Node0x32b4a8c0&#45;&gt;Node0x33643fc0 -->
<g id="edge4" class="edge"><title>Node0x32b4a8c0&#45;&gt;Node0x33643fc0</title>
<path fill="none" stroke="black" d="M244.164,-579.34C250.545,-574.294 256.349,-568.186 260,-561 290.198,-501.566 275.92,-423.696 259.858,-371.306"/>
<polygon fill="black" stroke="black" points="263.108,-369.976 256.742,-361.506 256.437,-372.097 263.108,-369.976"/>
<text text-anchor="middle" x="336.5" y="-459.8" font-family="Times,serif" font-size="14.00">(v3 &amp; 256) == 0</text>
</g>
<!-- Node0x33646640&#45;&gt;Node0x33643fc0 -->
<g id="edge5" class="edge"><title>Node0x33646640&#45;&gt;Node0x33643fc0</title>
<path fill="none" stroke="black" d="M189.624,-399.311C194.978,-389.814 200.473,-380.066 205.751,-370.704"/>
<polygon fill="black" stroke="black" points="208.871,-372.296 210.733,-361.866 202.773,-368.859 208.871,-372.296"/>
</g>
<!-- Node0x33646340 -->
<g id="node6" class="node"><title>Node0x33646340</title>
<polygon fill="none" stroke="black" points="187.5,-187.5 187.5,-225.5 288.5,-225.5 288.5,-187.5 187.5,-187.5"/>
<text text-anchor="start" x="195.5" y="-210.3" font-family="Times,serif" font-size="14.00">0x78873a0:</text>
<text text-anchor="start" x="195.5" y="-195.3" font-family="Times,serif" font-size="14.00"> if g9:</text>
</g>
<!-- Node0x33643fc0&#45;&gt;Node0x33646340 -->
<g id="edge6" class="edge"><title>Node0x33643fc0&#45;&gt;Node0x33646340</title>
<path fill="none" stroke="black" d="M238,-263.458C238,-253.952 238,-244.27 238,-235.69"/>
<polygon fill="black" stroke="black" points="241.5,-235.509 238,-225.509 234.5,-235.509 241.5,-235.509"/>
</g>
<!-- Node0x33647040 -->
<g id="node7" class="node"><title>Node0x33647040</title>
<polygon fill="none" stroke="black" points="0,-97.5 0,-135.5 242,-135.5 242,-97.5 0,-97.5"/>
<text text-anchor="start" x="8" y="-120.3" font-family="Times,serif" font-size="14.00">0x7887240:</text>
<text text-anchor="start" x="8" y="-105.3" font-family="Times,serif" font-size="14.00"> g42 = (g30 &amp; (g38 / 4194304))</text>
</g>
<!-- Node0x33646340&#45;&gt;Node0x33647040 -->
<g id="edge7" class="edge"><title>Node0x33646340&#45;&gt;Node0x33647040</title>
<path fill="none" stroke="black" d="M214.041,-187.48C196.57,-174.339 172.695,-156.382 153.505,-141.948"/>
<polygon fill="black" stroke="black" points="155.425,-139.013 145.329,-135.799 151.217,-144.607 155.425,-139.013"/>
<text text-anchor="middle" x="195.5" y="-157.8" font-family="Times,serif" font-size="14.00">g9</text>
</g>
<!-- Node0xb0954e0 -->
<g id="node8" class="node"><title>Node0xb0954e0</title>
<polygon fill="none" stroke="black" points="205,-23.5 205,-59.5 259,-59.5 259,-23.5 205,-23.5"/>
<text text-anchor="start" x="213" y="-37.8" font-family="Times,serif" font-size="14.00">exit:</text>
</g>
<!-- Node0x33646340&#45;&gt;Node0xb0954e0 -->
<g id="edge8" class="edge"><title>Node0x33646340&#45;&gt;Node0xb0954e0</title>
<path fill="none" stroke="black" d="M243.338,-187.377C248.972,-165.771 256.352,-128.612 251,-97 249.437,-87.7687 246.484,-78.0156 243.363,-69.3515"/>
<polygon fill="black" stroke="black" points="246.542,-67.8643 239.697,-59.7773 240.005,-70.3677 246.542,-67.8643"/>
<text text-anchor="middle" x="280.5" y="-112.8" font-family="Times,serif" font-size="14.00">not (g9)</text>
</g>
<!-- Node0x33647040&#45;&gt;Node0xb0954e0 -->
<g id="edge9" class="edge"><title>Node0x33647040&#45;&gt;Node0xb0954e0</title>
<path fill="none" stroke="black" d="M148.438,-97.4551C163.28,-87.694 181.756,-75.5433 197.558,-65.1512"/>
<polygon fill="black" stroke="black" points="199.59,-68.0041 206.021,-59.585 195.743,-62.1556 199.59,-68.0041"/>
</g>
</g>
</svg>
