<?xml version="1.0" encoding="UTF-8" standalone="no"?>
<!DOCTYPE svg PUBLIC "-//W3C//DTD SVG 1.1//EN"
 "http://www.w3.org/Graphics/SVG/1.1/DTD/svg11.dtd">
<!-- Generated by graphviz version 2.38.0 (20140413.2041)
 -->
<!-- Title: Control&#45;flow graph for function &#39;SpGetPreset()&#39;. Pages: 1 -->
<svg width="429pt" height="1393pt"
 viewBox="0.00 0.00 428.50 1393.00" xmlns="http://www.w3.org/2000/svg" xmlns:xlink="http://www.w3.org/1999/xlink">
<g id="graph0" class="graph" transform="scale(1 1) rotate(0) translate(4 1389)">
<title>Control&#45;flow graph for function &#39;SpGetPreset()&#39;.</title>
<polygon fill="white" stroke="none" points="-4,4 -4,-1389 424.5,-1389 424.5,4 -4,4"/>
<text text-anchor="middle" x="210.25" y="-7.8" font-family="Times,serif" font-size="14.00">Control&#45;flow graph for function &#39;SpGetPreset()&#39;.</text>
<!-- Node0x1e2e4530 -->
<g id="node1" class="node"><title>Node0x1e2e4530</title>
<polygon fill="none" stroke="black" points="233.5,-1348.5 233.5,-1384.5 292.5,-1384.5 292.5,-1348.5 233.5,-1348.5"/>
<text text-anchor="start" x="241.5" y="-1362.8" font-family="Times,serif" font-size="14.00">entry:</text>
</g>
<!-- Node0x163a5640 -->
<g id="node2" class="node"><title>Node0x163a5640</title>
<polygon fill="none" stroke="black" points="105.5,-1077.5 105.5,-1310.5 420.5,-1310.5 420.5,-1077.5 105.5,-1077.5"/>
<text text-anchor="start" x="113.5" y="-1295.3" font-family="Times,serif" font-size="14.00">0x1f4d2590:</text>
<text text-anchor="start" x="113.5" y="-1280.3" font-family="Times,serif" font-size="14.00"> v1 = g38</text>
<text text-anchor="start" x="113.5" y="-1265.3" font-family="Times,serif" font-size="14.00"> v2 = g39</text>
<text text-anchor="start" x="113.5" y="-1250.3" font-family="Times,serif" font-size="14.00"> v3 = g40</text>
<text text-anchor="start" x="113.5" y="-1235.3" font-family="Times,serif" font-size="14.00"> v4 = g41</text>
<text text-anchor="start" x="113.5" y="-1220.3" font-family="Times,serif" font-size="14.00"> g38 = 165012</text>
<text text-anchor="start" x="113.5" y="-1205.3" font-family="Times,serif" font-size="14.00"> v5 = *(IntToPtrCastExpr&lt;ptr&gt;(165212))</text>
<text text-anchor="start" x="113.5" y="-1190.3" font-family="Times,serif" font-size="14.00"> g41 = v5</text>
<text text-anchor="start" x="113.5" y="-1175.3" font-family="Times,serif" font-size="14.00"> v6 = *(IntToPtrCastExpr&lt;ptr&gt;(v5))</text>
<text text-anchor="start" x="113.5" y="-1160.3" font-family="Times,serif" font-size="14.00"> g33 = v6</text>
<text text-anchor="start" x="113.5" y="-1145.3" font-family="Times,serif" font-size="14.00"> v7 = g29</text>
<text text-anchor="start" x="113.5" y="-1130.3" font-family="Times,serif" font-size="14.00"> g40 = v7</text>
<text text-anchor="start" x="113.5" y="-1115.3" font-family="Times,serif" font-size="14.00"> v8 = g30</text>
<text text-anchor="start" x="113.5" y="-1100.3" font-family="Times,serif" font-size="14.00"> g39 = v8</text>
<text text-anchor="start" x="113.5" y="-1085.3" font-family="Times,serif" font-size="14.00"> v9 = v7</text>
</g>
<!-- Node0x1e2e4530&#45;&gt;Node0x163a5640 -->
<g id="edge1" class="edge"><title>Node0x1e2e4530&#45;&gt;Node0x163a5640</title>
<path fill="none" stroke="black" d="M263,-1348.21C263,-1340.69 263,-1331.17 263,-1320.57"/>
<polygon fill="black" stroke="black" points="266.5,-1320.56 263,-1310.56 259.5,-1320.56 266.5,-1320.56"/>
</g>
<!-- Node0x39805400 -->
<g id="node3" class="node"><title>Node0x39805400</title>
<polygon fill="none" stroke="black" points="211,-1001.5 211,-1039.5 315,-1039.5 315,-1001.5 211,-1001.5"/>
<text text-anchor="start" x="219" y="-1024.3" font-family="Times,serif" font-size="14.00">0x81bec60:</text>
<text text-anchor="start" x="219" y="-1009.3" font-family="Times,serif" font-size="14.00"> if (v6 != 0):</text>
</g>
<!-- Node0x163a5640&#45;&gt;Node0x39805400 -->
<g id="edge2" class="edge"><title>Node0x163a5640&#45;&gt;Node0x39805400</title>
<path fill="none" stroke="black" d="M263,-1077.18C263,-1067.25 263,-1057.94 263,-1049.88"/>
<polygon fill="black" stroke="black" points="266.5,-1049.72 263,-1039.72 259.5,-1049.72 266.5,-1049.72"/>
</g>
<!-- Node0x39806b10 -->
<g id="node4" class="node"><title>Node0x39806b10</title>
<polygon fill="none" stroke="black" points="51,-866.5 51,-949.5 263,-949.5 263,-866.5 51,-866.5"/>
<text text-anchor="start" x="59" y="-934.3" font-family="Times,serif" font-size="14.00">0x81be0c0:</text>
<text text-anchor="start" x="59" y="-919.3" font-family="Times,serif" font-size="14.00"> g36 = v7</text>
<text text-anchor="start" x="59" y="-904.3" font-family="Times,serif" font-size="14.00"> imported_function_ord_0()</text>
<text text-anchor="start" x="59" y="-889.3" font-family="Times,serif" font-size="14.00"> v9 = g40</text>
<text text-anchor="start" x="59" y="-874.3" font-family="Times,serif" font-size="14.00"> v8 = g39</text>
</g>
<!-- Node0x39805400&#45;&gt;Node0x39806b10 -->
<g id="edge3" class="edge"><title>Node0x39805400&#45;&gt;Node0x39806b10</title>
<path fill="none" stroke="black" d="M245.496,-1001.25C233.975,-989.242 218.311,-972.914 203.363,-957.331"/>
<polygon fill="black" stroke="black" points="205.552,-954.557 196.104,-949.764 200.5,-959.403 205.552,-954.557"/>
<text text-anchor="middle" x="253" y="-971.8" font-family="Times,serif" font-size="14.00">v6 != 0</text>
</g>
<!-- Node0x39805b90 -->
<g id="node5" class="node"><title>Node0x39805b90</title>
<polygon fill="none" stroke="black" points="108.5,-670.5 108.5,-828.5 405.5,-828.5 405.5,-670.5 108.5,-670.5"/>
<text text-anchor="start" x="116.5" y="-813.3" font-family="Times,serif" font-size="14.00">0x81bedc0:</text>
<text text-anchor="start" x="116.5" y="-798.3" font-family="Times,serif" font-size="14.00"> g30 = v8</text>
<text text-anchor="start" x="116.5" y="-783.3" font-family="Times,serif" font-size="14.00"> g29 = v9</text>
<text text-anchor="start" x="116.5" y="-768.3" font-family="Times,serif" font-size="14.00"> function_16454()</text>
<text text-anchor="start" x="116.5" y="-753.3" font-family="Times,serif" font-size="14.00"> v10 = *(IntToPtrCastExpr&lt;ptr&gt;(g41))</text>
<text text-anchor="start" x="116.5" y="-738.3" font-family="Times,serif" font-size="14.00"> g37 = v10</text>
<text text-anchor="start" x="116.5" y="-723.3" font-family="Times,serif" font-size="14.00"> v11 = g29</text>
<text text-anchor="start" x="116.5" y="-708.3" font-family="Times,serif" font-size="14.00"> g39 = v11</text>
<text text-anchor="start" x="116.5" y="-693.3" font-family="Times,serif" font-size="14.00"> g9 = (v10 == 0)</text>
<text text-anchor="start" x="116.5" y="-678.3" font-family="Times,serif" font-size="14.00"> v12 = v11</text>
</g>
<!-- Node0x39805400&#45;&gt;Node0x39805b90 -->
<g id="edge4" class="edge"><title>Node0x39805400&#45;&gt;Node0x39805b90</title>
<path fill="none" stroke="black" d="M275.896,-1001.38C279.202,-995.755 282.302,-989.357 284,-983 285.721,-976.559 284.39,-974.655 284,-968 281.496,-925.282 275.981,-878.122 270.584,-838.667"/>
<polygon fill="black" stroke="black" points="274.021,-837.97 269.18,-828.546 267.088,-838.932 274.021,-837.97"/>
<text text-anchor="middle" x="312" y="-904.3" font-family="Times,serif" font-size="14.00">v6 == 0</text>
</g>
<!-- Node0x39806b10&#45;&gt;Node0x39805b90 -->
<g id="edge5" class="edge"><title>Node0x39806b10&#45;&gt;Node0x39805b90</title>
<path fill="none" stroke="black" d="M183.013,-866.29C188.8,-857.233 195.149,-847.297 201.619,-837.171"/>
<polygon fill="black" stroke="black" points="204.638,-838.947 207.073,-828.635 198.739,-835.177 204.638,-838.947"/>
</g>
<!-- Node0x443820c0 -->
<g id="node6" class="node"><title>Node0x443820c0</title>
<polygon fill="none" stroke="black" points="200.5,-594.5 200.5,-632.5 313.5,-632.5 313.5,-594.5 200.5,-594.5"/>
<text text-anchor="start" x="208.5" y="-617.3" font-family="Times,serif" font-size="14.00">0x81c1320:</text>
<text text-anchor="start" x="208.5" y="-602.3" font-family="Times,serif" font-size="14.00"> if (v10 != 0):</text>
</g>
<!-- Node0x39805b90&#45;&gt;Node0x443820c0 -->
<g id="edge6" class="edge"><title>Node0x39805b90&#45;&gt;Node0x443820c0</title>
<path fill="none" stroke="black" d="M257,-670.164C257,-660.447 257,-651.058 257,-642.846"/>
<polygon fill="black" stroke="black" points="260.5,-642.801 257,-632.801 253.5,-642.801 260.5,-642.801"/>
</g>
<!-- Node0x39807210 -->
<g id="node7" class="node"><title>Node0x39807210</title>
<polygon fill="none" stroke="black" points="48,-459.5 48,-542.5 260,-542.5 260,-459.5 48,-459.5"/>
<text text-anchor="start" x="56" y="-527.3" font-family="Times,serif" font-size="14.00">0x81c0930:</text>
<text text-anchor="start" x="56" y="-512.3" font-family="Times,serif" font-size="14.00"> g30 = (g38 &#45; 8204)</text>
<text text-anchor="start" x="56" y="-497.3" font-family="Times,serif" font-size="14.00"> g36 = v11</text>
<text text-anchor="start" x="56" y="-482.3" font-family="Times,serif" font-size="14.00"> imported_function_ord_0()</text>
<text text-anchor="start" x="56" y="-467.3" font-family="Times,serif" font-size="14.00"> v12 = g39</text>
</g>
<!-- Node0x443820c0&#45;&gt;Node0x39807210 -->
<g id="edge7" class="edge"><title>Node0x443820c0&#45;&gt;Node0x39807210</title>
<path fill="none" stroke="black" d="M237.358,-594.242C231.361,-588.506 224.817,-582.082 219,-576 211.23,-567.876 203.164,-559.044 195.466,-550.404"/>
<polygon fill="black" stroke="black" points="198.061,-548.054 188.814,-542.883 192.818,-552.692 198.061,-548.054"/>
<text text-anchor="middle" x="250.5" y="-564.8" font-family="Times,serif" font-size="14.00">v10 != 0</text>
</g>
<!-- Node0x308c3c30 -->
<g id="node8" class="node"><title>Node0x308c3c30</title>
<polygon fill="none" stroke="black" points="133,-278.5 133,-421.5 375,-421.5 375,-278.5 133,-278.5"/>
<text text-anchor="start" x="141" y="-406.3" font-family="Times,serif" font-size="14.00">0x81c14a0:</text>
<text text-anchor="start" x="141" y="-391.3" font-family="Times,serif" font-size="14.00"> g29 = v12</text>
<text text-anchor="start" x="141" y="-376.3" font-family="Times,serif" font-size="14.00"> g38 = v1</text>
<text text-anchor="start" x="141" y="-361.3" font-family="Times,serif" font-size="14.00"> g39 = v2</text>
<text text-anchor="start" x="141" y="-346.3" font-family="Times,serif" font-size="14.00"> g40 = v3</text>
<text text-anchor="start" x="141" y="-331.3" font-family="Times,serif" font-size="14.00"> g41 = v4</text>
<text text-anchor="start" x="141" y="-316.3" font-family="Times,serif" font-size="14.00"> v13</text>
<text text-anchor="start" x="141" y="-301.3" font-family="Times,serif" font-size="14.00"> g34 = v13</text>
<text text-anchor="start" x="141" y="-286.3" font-family="Times,serif" font-size="14.00"> IntToPtrCastExpr&lt;ptr&gt;(g35)()</text>
</g>
<!-- Node0x443820c0&#45;&gt;Node0x308c3c30 -->
<g id="edge8" class="edge"><title>Node0x443820c0&#45;&gt;Node0x308c3c30</title>
<path fill="none" stroke="black" d="M272.586,-594.316C276.422,-588.787 280.001,-582.457 282,-576 283.972,-569.632 282.422,-567.653 282,-561 279.284,-518.206 273.235,-470.837 267.452,-431.935"/>
<polygon fill="black" stroke="black" points="270.863,-431.084 265.91,-421.718 263.941,-432.129 270.863,-431.084"/>
<text text-anchor="middle" x="314.5" y="-497.3" font-family="Times,serif" font-size="14.00">v10 == 0</text>
</g>
<!-- Node0x39807210&#45;&gt;Node0x308c3c30 -->
<g id="edge9" class="edge"><title>Node0x39807210&#45;&gt;Node0x308c3c30</title>
<path fill="none" stroke="black" d="M181.325,-459.285C187.425,-450.197 194.095,-440.259 200.842,-430.206"/>
<polygon fill="black" stroke="black" points="203.85,-432.004 206.517,-421.75 198.038,-428.103 203.85,-432.004"/>
</g>
<!-- Node0x470ff190 -->
<g id="node9" class="node"><title>Node0x470ff190</title>
<polygon fill="none" stroke="black" points="204,-202.5 204,-240.5 304,-240.5 304,-202.5 204,-202.5"/>
<text text-anchor="start" x="212" y="-225.3" font-family="Times,serif" font-size="14.00">0x81c32a0:</text>
<text text-anchor="start" x="212" y="-210.3" font-family="Times,serif" font-size="14.00"> if g9:</text>
</g>
<!-- Node0x308c3c30&#45;&gt;Node0x470ff190 -->
<g id="edge10" class="edge"><title>Node0x308c3c30&#45;&gt;Node0x470ff190</title>
<path fill="none" stroke="black" d="M254,-278.353C254,-268.594 254,-259.073 254,-250.737"/>
<polygon fill="black" stroke="black" points="257.5,-250.54 254,-240.54 250.5,-250.54 257.5,-250.54"/>
</g>
<!-- Node0x39807910 -->
<g id="node10" class="node"><title>Node0x39807910</title>
<polygon fill="none" stroke="black" points="0,-97.5 0,-150.5 260,-150.5 260,-97.5 0,-97.5"/>
<text text-anchor="start" x="8" y="-135.3" font-family="Times,serif" font-size="14.00">0x81c2820:</text>
<text text-anchor="start" x="8" y="-120.3" font-family="Times,serif" font-size="14.00"> g37 = (g30 &amp; (g33 / 134217728))</text>
<text text-anchor="start" x="8" y="-105.3" font-family="Times,serif" font-size="14.00"> g29 = (g29 &amp; (g42 / 2))</text>
</g>
<!-- Node0x470ff190&#45;&gt;Node0x39807910 -->
<g id="edge11" class="edge"><title>Node0x470ff190&#45;&gt;Node0x39807910</title>
<path fill="none" stroke="black" d="M230.385,-202.312C213.784,-189.527 191.13,-172.08 171.543,-156.995"/>
<polygon fill="black" stroke="black" points="173.422,-154.024 163.364,-150.695 169.151,-159.57 173.422,-154.024"/>
<text text-anchor="middle" x="213.5" y="-172.8" font-family="Times,serif" font-size="14.00">g9</text>
</g>
<!-- Node0x308c3cb0 -->
<g id="node11" class="node"><title>Node0x308c3cb0</title>
<polygon fill="none" stroke="black" points="221,-23.5 221,-59.5 275,-59.5 275,-23.5 221,-23.5"/>
<text text-anchor="start" x="229" y="-37.8" font-family="Times,serif" font-size="14.00">exit:</text>
</g>
<!-- Node0x470ff190&#45;&gt;Node0x308c3cb0 -->
<g id="edge12" class="edge"><title>Node0x470ff190&#45;&gt;Node0x308c3cb0</title>
<path fill="none" stroke="black" d="M259.631,-202.393C266.364,-178.227 275.912,-134.16 269,-97 267.249,-87.584 263.931,-77.6972 260.441,-68.9687"/>
<polygon fill="black" stroke="black" points="263.632,-67.5294 256.502,-59.693 257.189,-70.2656 263.632,-67.5294"/>
<text text-anchor="middle" x="299.5" y="-120.3" font-family="Times,serif" font-size="14.00">not (g9)</text>
</g>
<!-- Node0x39807910&#45;&gt;Node0x308c3cb0 -->
<g id="edge13" class="edge"><title>Node0x39807910&#45;&gt;Node0x308c3cb0</title>
<path fill="none" stroke="black" d="M167.66,-97.308C182.771,-86.9995 200.04,-75.2187 214.685,-65.2277"/>
<polygon fill="black" stroke="black" points="216.68,-68.1035 222.968,-59.5766 212.735,-62.3209 216.68,-68.1035"/>
</g>
</g>
</svg>
