<?xml version="1.0" encoding="UTF-8" standalone="no"?>
<!DOCTYPE svg PUBLIC "-//W3C//DTD SVG 1.1//EN"
 "http://www.w3.org/Graphics/SVG/1.1/DTD/svg11.dtd">
<!-- Generated by graphviz version 2.38.0 (20140413.2041)
 -->
<!-- Title: Control&#45;flow graph for function &#39;function_ad84()&#39;. Pages: 1 -->
<svg width="670pt" height="655pt"
 viewBox="0.00 0.00 670.00 655.00" xmlns="http://www.w3.org/2000/svg" xmlns:xlink="http://www.w3.org/1999/xlink">
<g id="graph0" class="graph" transform="scale(1 1) rotate(0) translate(4 651)">
<title>Control&#45;flow graph for function &#39;function_ad84()&#39;.</title>
<polygon fill="white" stroke="none" points="-4,4 -4,-651 666,-651 666,4 -4,4"/>
<text text-anchor="middle" x="331" y="-7.8" font-family="Times,serif" font-size="14.00">Control&#45;flow graph for function &#39;function_ad84()&#39;.</text>
<!-- Node0x44277d60 -->
<g id="node1" class="node"><title>Node0x44277d60</title>
<polygon fill="none" stroke="black" points="506.5,-610.5 506.5,-646.5 565.5,-646.5 565.5,-610.5 506.5,-610.5"/>
<text text-anchor="start" x="514.5" y="-624.8" font-family="Times,serif" font-size="14.00">entry:</text>
</g>
<!-- Node0x3149a320 -->
<g id="node2" class="node"><title>Node0x3149a320</title>
<polygon fill="none" stroke="black" points="469,-444.5 469,-572.5 603,-572.5 603,-444.5 469,-444.5"/>
<text text-anchor="start" x="477" y="-557.3" font-family="Times,serif" font-size="14.00">0x39698f80:</text>
<text text-anchor="start" x="477" y="-542.3" font-family="Times,serif" font-size="14.00"> v1 = g38</text>
<text text-anchor="start" x="477" y="-527.3" font-family="Times,serif" font-size="14.00"> g38 = g30</text>
<text text-anchor="start" x="477" y="-512.3" font-family="Times,serif" font-size="14.00"> g36 = 128</text>
<text text-anchor="start" x="477" y="-497.3" font-family="Times,serif" font-size="14.00"> function_abd0()</text>
<text text-anchor="start" x="477" y="-482.3" font-family="Times,serif" font-size="14.00"> v2 = g29</text>
<text text-anchor="start" x="477" y="-467.3" font-family="Times,serif" font-size="14.00"> g6 = True</text>
<text text-anchor="start" x="477" y="-452.3" font-family="Times,serif" font-size="14.00"> g9 = (v2 == 0)</text>
</g>
<!-- Node0x44277d60&#45;&gt;Node0x3149a320 -->
<g id="edge1" class="edge"><title>Node0x44277d60&#45;&gt;Node0x3149a320</title>
<path fill="none" stroke="black" d="M536,-610.342C536,-602.719 536,-593.177 536,-583.023"/>
<polygon fill="black" stroke="black" points="539.5,-582.713 536,-572.713 532.5,-582.713 539.5,-582.713"/>
</g>
<!-- Node0x176671a0 -->
<g id="node3" class="node"><title>Node0x176671a0</title>
<polygon fill="none" stroke="black" points="484,-368.5 484,-406.5 588,-406.5 588,-368.5 484,-368.5"/>
<text text-anchor="start" x="492" y="-391.3" font-family="Times,serif" font-size="14.00">0x72a2790:</text>
<text text-anchor="start" x="492" y="-376.3" font-family="Times,serif" font-size="14.00"> if (v2 != 0):</text>
</g>
<!-- Node0x3149a320&#45;&gt;Node0x176671a0 -->
<g id="edge2" class="edge"><title>Node0x3149a320&#45;&gt;Node0x176671a0</title>
<path fill="none" stroke="black" d="M536,-444.167C536,-434.596 536,-425.158 536,-416.848"/>
<polygon fill="black" stroke="black" points="539.5,-416.658 536,-406.659 532.5,-416.659 539.5,-416.658"/>
</g>
<!-- Node0x1d7c7ce0 -->
<g id="node4" class="node"><title>Node0x1d7c7ce0</title>
<polygon fill="none" stroke="black" points="0,-218.5 0,-316.5 582,-316.5 582,-218.5 0,-218.5"/>
<text text-anchor="start" x="8" y="-301.3" font-family="Times,serif" font-size="14.00">0x1d3acdd0:</text>
<text text-anchor="start" x="8" y="-286.3" font-family="Times,serif" font-size="14.00"> v3</text>
<text text-anchor="start" x="8" y="-271.3" font-family="Times,serif" font-size="14.00"> strcmp_rc = strcmp(BitCastExpr&lt;ptr&gt;(&amp;(v3)), IntToPtrCastExpr&lt;ptr&gt;(g38))</text>
<text text-anchor="start" x="8" y="-256.3" font-family="Times,serif" font-size="14.00"> g6 = (strcmp_rc &lt; 2)</text>
<text text-anchor="start" x="8" y="-241.3" font-family="Times,serif" font-size="14.00"> g9 = (strcmp_rc == 1)</text>
<text text-anchor="start" x="8" y="-226.3" font-family="Times,serif" font-size="14.00"> g29 = (0 if (strcmp_rc &gt; 1) else (1 &#45; strcmp_rc))</text>
</g>
<!-- Node0x176671a0&#45;&gt;Node0x1d7c7ce0 -->
<g id="edge3" class="edge"><title>Node0x176671a0&#45;&gt;Node0x1d7c7ce0</title>
<path fill="none" stroke="black" d="M498.523,-368.45C472.19,-355.767 435.514,-338.103 400.309,-321.147"/>
<polygon fill="black" stroke="black" points="401.443,-317.808 390.915,-316.622 398.405,-324.115 401.443,-317.808"/>
<text text-anchor="middle" x="484" y="-338.8" font-family="Times,serif" font-size="14.00">v2 != 0</text>
</g>
<!-- Node0x16aad6d0 -->
<g id="node5" class="node"><title>Node0x16aad6d0</title>
<polygon fill="none" stroke="black" points="409,-97.5 409,-180.5 651,-180.5 651,-97.5 409,-97.5"/>
<text text-anchor="start" x="417" y="-165.3" font-family="Times,serif" font-size="14.00">0x72a2930:</text>
<text text-anchor="start" x="417" y="-150.3" font-family="Times,serif" font-size="14.00"> g38 = v1</text>
<text text-anchor="start" x="417" y="-135.3" font-family="Times,serif" font-size="14.00"> v4</text>
<text text-anchor="start" x="417" y="-120.3" font-family="Times,serif" font-size="14.00"> g34 = v4</text>
<text text-anchor="start" x="417" y="-105.3" font-family="Times,serif" font-size="14.00"> IntToPtrCastExpr&lt;ptr&gt;(g35)()</text>
</g>
<!-- Node0x176671a0&#45;&gt;Node0x16aad6d0 -->
<g id="edge4" class="edge"><title>Node0x176671a0&#45;&gt;Node0x16aad6d0</title>
<path fill="none" stroke="black" d="M556.115,-368.316C568.81,-355.415 584.075,-336.91 591,-317 605.455,-275.442 605.335,-259.599 591,-218 587.484,-207.796 582.024,-197.906 575.784,-188.789"/>
<polygon fill="black" stroke="black" points="578.578,-186.68 569.869,-180.647 572.915,-190.795 578.578,-186.68"/>
<text text-anchor="middle" x="632" y="-263.8" font-family="Times,serif" font-size="14.00">v2 == 0</text>
</g>
<!-- Node0x1d7c7ce0&#45;&gt;Node0x16aad6d0 -->
<g id="edge5" class="edge"><title>Node0x1d7c7ce0&#45;&gt;Node0x16aad6d0</title>
<path fill="none" stroke="black" d="M381.696,-218.495C402.287,-207.597 424.091,-196.057 444.459,-185.276"/>
<polygon fill="black" stroke="black" points="446.198,-188.316 453.399,-180.544 442.923,-182.129 446.198,-188.316"/>
</g>
<!-- Node0x176647c0 -->
<g id="node6" class="node"><title>Node0x176647c0</title>
<polygon fill="none" stroke="black" points="503,-23.5 503,-59.5 557,-59.5 557,-23.5 503,-23.5"/>
<text text-anchor="start" x="511" y="-37.8" font-family="Times,serif" font-size="14.00">exit:</text>
</g>
<!-- Node0x16aad6d0&#45;&gt;Node0x176647c0 -->
<g id="edge6" class="edge"><title>Node0x16aad6d0&#45;&gt;Node0x176647c0</title>
<path fill="none" stroke="black" d="M530,-97.4994C530,-88.2058 530,-78.537 530,-69.9459"/>
<polygon fill="black" stroke="black" points="533.5,-69.7494 530,-59.7494 526.5,-69.7494 533.5,-69.7494"/>
</g>
</g>
</svg>
