<?xml version="1.0" encoding="UTF-8" standalone="no"?>
<!DOCTYPE svg PUBLIC "-//W3C//DTD SVG 1.1//EN"
 "http://www.w3.org/Graphics/SVG/1.1/DTD/svg11.dtd">
<!-- Generated by graphviz version 2.38.0 (20140413.2041)
 -->
<!-- Title: Control&#45;flow graph for function &#39;function_979c()&#39;. Pages: 1 -->
<svg width="1672pt" height="2369pt"
 viewBox="0.00 0.00 1672.00 2369.00" xmlns="http://www.w3.org/2000/svg" xmlns:xlink="http://www.w3.org/1999/xlink">
<g id="graph0" class="graph" transform="scale(1 1) rotate(0) translate(4 2365)">
<title>Control&#45;flow graph for function &#39;function_979c()&#39;.</title>
<polygon fill="white" stroke="none" points="-4,4 -4,-2365 1668,-2365 1668,4 -4,4"/>
<text text-anchor="middle" x="832" y="-7.8" font-family="Times,serif" font-size="14.00">Control&#45;flow graph for function &#39;function_979c()&#39;.</text>
<!-- Node0x3fa21980 -->
<g id="node1" class="node"><title>Node0x3fa21980</title>
<polygon fill="none" stroke="black" points="825.5,-2324.5 825.5,-2360.5 884.5,-2360.5 884.5,-2324.5 825.5,-2324.5"/>
<text text-anchor="start" x="833.5" y="-2338.8" font-family="Times,serif" font-size="14.00">entry:</text>
</g>
<!-- Node0x17045980 -->
<g id="node2" class="node"><title>Node0x17045980</title>
<polygon fill="none" stroke="black" points="800,-2053.5 800,-2286.5 910,-2286.5 910,-2053.5 800,-2053.5"/>
<text text-anchor="start" x="808" y="-2271.3" font-family="Times,serif" font-size="14.00">0x43c40320:</text>
<text text-anchor="start" x="808" y="-2256.3" font-family="Times,serif" font-size="14.00"> v1 = g38</text>
<text text-anchor="start" x="808" y="-2241.3" font-family="Times,serif" font-size="14.00"> v2 = g32</text>
<text text-anchor="start" x="808" y="-2226.3" font-family="Times,serif" font-size="14.00"> v3 = g35</text>
<text text-anchor="start" x="808" y="-2211.3" font-family="Times,serif" font-size="14.00"> v4 = g29</text>
<text text-anchor="start" x="808" y="-2196.3" font-family="Times,serif" font-size="14.00"> g38 = v4</text>
<text text-anchor="start" x="808" y="-2181.3" font-family="Times,serif" font-size="14.00"> v5 = v4</text>
<text text-anchor="start" x="808" y="-2166.3" font-family="Times,serif" font-size="14.00"> v6</text>
<text text-anchor="start" x="808" y="-2151.3" font-family="Times,serif" font-size="14.00"> v7</text>
<text text-anchor="start" x="808" y="-2136.3" font-family="Times,serif" font-size="14.00"> v8</text>
<text text-anchor="start" x="808" y="-2121.3" font-family="Times,serif" font-size="14.00"> v9</text>
<text text-anchor="start" x="808" y="-2106.3" font-family="Times,serif" font-size="14.00"> v10</text>
<text text-anchor="start" x="808" y="-2091.3" font-family="Times,serif" font-size="14.00"> v11</text>
<text text-anchor="start" x="808" y="-2076.3" font-family="Times,serif" font-size="14.00"> v12</text>
<text text-anchor="start" x="808" y="-2061.3" font-family="Times,serif" font-size="14.00"> v13</text>
</g>
<!-- Node0x3fa21980&#45;&gt;Node0x17045980 -->
<g id="edge1" class="edge"><title>Node0x3fa21980&#45;&gt;Node0x17045980</title>
<path fill="none" stroke="black" d="M855,-2324.21C855,-2316.69 855,-2307.17 855,-2296.57"/>
<polygon fill="black" stroke="black" points="858.5,-2296.56 855,-2286.56 851.5,-2296.56 858.5,-2296.56"/>
</g>
<!-- Node0x24899c40 -->
<g id="node3" class="node"><title>Node0x24899c40</title>
<polygon fill="none" stroke="black" points="674.5,-1977.5 674.5,-2015.5 1035.5,-2015.5 1035.5,-1977.5 674.5,-1977.5"/>
<text text-anchor="start" x="682.5" y="-2000.3" font-family="Times,serif" font-size="14.00">0x6ed2cc0:</text>
<text text-anchor="start" x="682.5" y="-1985.3" font-family="Times,serif" font-size="14.00"> if (*(IntToPtrCastExpr&lt;ptr&gt;((v4 + 14))) == 0):</text>
</g>
<!-- Node0x17045980&#45;&gt;Node0x24899c40 -->
<g id="edge2" class="edge"><title>Node0x17045980&#45;&gt;Node0x24899c40</title>
<path fill="none" stroke="black" d="M855,-2053.18C855,-2043.25 855,-2033.94 855,-2025.88"/>
<polygon fill="black" stroke="black" points="858.5,-2025.72 855,-2015.72 851.5,-2025.72 858.5,-2025.72"/>
</g>
<!-- Node0xf7fc640 -->
<g id="node4" class="node"><title>Node0xf7fc640</title>
<polygon fill="none" stroke="black" points="470.5,-1797.5 470.5,-1895.5 807.5,-1895.5 807.5,-1797.5 470.5,-1797.5"/>
<text text-anchor="start" x="478.5" y="-1880.3" font-family="Times,serif" font-size="14.00">0x6ed3080:</text>
<text text-anchor="start" x="478.5" y="-1865.3" font-family="Times,serif" font-size="14.00"> v11 = *(IntToPtrCastExpr&lt;ptr&gt;((v5 + 50)))</text>
<text text-anchor="start" x="478.5" y="-1850.3" font-family="Times,serif" font-size="14.00"> g30 = v11</text>
<text text-anchor="start" x="478.5" y="-1835.3" font-family="Times,serif" font-size="14.00"> g8 = False</text>
<text text-anchor="start" x="478.5" y="-1820.3" font-family="Times,serif" font-size="14.00"> g7 = (v11 &lt; 0)</text>
<text text-anchor="start" x="478.5" y="-1805.3" font-family="Times,serif" font-size="14.00"> v7 = v5</text>
</g>
<!-- Node0x24899c40&#45;&gt;Node0xf7fc640 -->
<g id="edge3" class="edge"><title>Node0x24899c40&#45;&gt;Node0xf7fc640</title>
<path fill="none" stroke="black" d="M724.863,-1977.46C703.975,-1972.49 686.441,-1966.39 678,-1959 662.355,-1945.31 652.985,-1924.98 647.373,-1905.41"/>
<polygon fill="black" stroke="black" points="650.728,-1904.4 644.839,-1895.6 643.95,-1906.15 650.728,-1904.4"/>
<text text-anchor="middle" x="833.5" y="-1947.8" font-family="Times,serif" font-size="14.00">*(IntToPtrCastExpr&lt;ptr&gt;((v4 + 14))) == 0</text>
</g>
<!-- Node0x31d19fe0 -->
<g id="node5" class="node"><title>Node0x31d19fe0</title>
<polygon fill="none" stroke="black" points="832,-1767.5 832,-1925.5 1272,-1925.5 1272,-1767.5 832,-1767.5"/>
<text text-anchor="start" x="840" y="-1910.3" font-family="Times,serif" font-size="14.00">0x2005d7a0:</text>
<text text-anchor="start" x="840" y="-1895.3" font-family="Times,serif" font-size="14.00"> v14 = 0</text>
<text text-anchor="start" x="840" y="-1880.3" font-family="Times,serif" font-size="14.00"> v15 = (*(IntToPtrCastExpr&lt;ptr&gt;((v4 + 8))) + (256 * v14))</text>
<text text-anchor="start" x="840" y="-1865.3" font-family="Times,serif" font-size="14.00"> g36 = v15</text>
<text text-anchor="start" x="840" y="-1850.3" font-family="Times,serif" font-size="14.00"> v16 = IntToPtrCastExpr&lt;ptr&gt;((v15 + 8))</text>
<text text-anchor="start" x="840" y="-1835.3" font-family="Times,serif" font-size="14.00"> g30 = (v14 + 1)</text>
<text text-anchor="start" x="840" y="-1820.3" font-family="Times,serif" font-size="14.00"> *(v16) = (*(v16) &amp; &#45;33)</text>
<text text-anchor="start" x="840" y="-1805.3" font-family="Times,serif" font-size="14.00"> v17 = g38</text>
<text text-anchor="start" x="840" y="-1790.3" font-family="Times,serif" font-size="14.00"> v18 = g30</text>
<text text-anchor="start" x="840" y="-1775.3" font-family="Times,serif" font-size="14.00"> v5 = v17</text>
</g>
<!-- Node0x24899c40&#45;&gt;Node0x31d19fe0 -->
<g id="edge4" class="edge"><title>Node0x24899c40&#45;&gt;Node0x31d19fe0</title>
<path fill="none" stroke="black" d="M960.768,-1977.46C972.345,-1972.67 983.395,-1966.63 993,-1959 1001.75,-1952.05 1009.36,-1943.43 1015.93,-1934.1"/>
<polygon fill="black" stroke="black" points="1018.87,-1936.01 1021.45,-1925.73 1013.02,-1932.16 1018.87,-1936.01"/>
<text text-anchor="middle" x="1160.5" y="-1947.8" font-family="Times,serif" font-size="14.00">*(IntToPtrCastExpr&lt;ptr&gt;((v4 + 14))) != 0</text>
</g>
<!-- Node0x17044e70 -->
<g id="node6" class="node"><title>Node0x17044e70</title>
<polygon fill="none" stroke="black" points="466.5,-1691.5 466.5,-1729.5 585.5,-1729.5 585.5,-1691.5 466.5,-1691.5"/>
<text text-anchor="start" x="474.5" y="-1714.3" font-family="Times,serif" font-size="14.00">0x6ed5290:</text>
<text text-anchor="start" x="474.5" y="-1699.3" font-family="Times,serif" font-size="14.00"> if (v11 &gt;= 1):</text>
</g>
<!-- Node0xf7fc640&#45;&gt;Node0x17044e70 -->
<g id="edge5" class="edge"><title>Node0xf7fc640&#45;&gt;Node0x17044e70</title>
<path fill="none" stroke="black" d="M598.204,-1797.12C581.254,-1777.02 562.255,-1754.49 548.002,-1737.59"/>
<polygon fill="black" stroke="black" points="550.539,-1735.17 541.416,-1729.78 545.187,-1739.68 550.539,-1735.17"/>
</g>
<!-- Node0x34af0510 -->
<g id="node7" class="node"><title>Node0x34af0510</title>
<polygon fill="none" stroke="black" points="843,-1691.5 843,-1729.5 1411,-1729.5 1411,-1691.5 843,-1691.5"/>
<text text-anchor="start" x="851" y="-1714.3" font-family="Times,serif" font-size="14.00">0x6ed2b60:</text>
<text text-anchor="start" x="851" y="-1699.3" font-family="Times,serif" font-size="14.00"> while (v18 &lt; ExtCastExpr&lt;int32&gt;(*(IntToPtrCastExpr&lt;ptr&gt;((v17 + 14))))):</text>
</g>
<!-- Node0x31d19fe0&#45;&gt;Node0x34af0510 -->
<g id="edge6" class="edge"><title>Node0x31d19fe0&#45;&gt;Node0x34af0510</title>
<path fill="none" stroke="black" d="M1095.84,-1767.16C1101.53,-1757.01 1107.01,-1747.21 1111.75,-1738.75"/>
<polygon fill="black" stroke="black" points="1114.93,-1740.24 1116.76,-1729.8 1108.82,-1736.82 1114.93,-1740.24"/>
</g>
<!-- Node0x24f2dde0 -->
<g id="node8" class="node"><title>Node0x24f2dde0</title>
<polygon fill="none" stroke="black" points="0,-1519 0,-1602 490,-1602 490,-1519 0,-1519"/>
<text text-anchor="start" x="8" y="-1586.8" font-family="Times,serif" font-size="14.00">0x6ed4510:</text>
<text text-anchor="start" x="8" y="-1571.8" font-family="Times,serif" font-size="14.00"> g29 = *(IntToPtrCastExpr&lt;ptr&gt;(*(IntToPtrCastExpr&lt;ptr&gt;(v5))))</text>
<text text-anchor="start" x="8" y="-1556.8" font-family="Times,serif" font-size="14.00"> function_3920()</text>
<text text-anchor="start" x="8" y="-1541.8" font-family="Times,serif" font-size="14.00"> *(IntToPtrCastExpr&lt;ptr&gt;((g38 + 50))) = 0</text>
<text text-anchor="start" x="8" y="-1526.8" font-family="Times,serif" font-size="14.00"> v7 = g38</text>
</g>
<!-- Node0x17044e70&#45;&gt;Node0x24f2dde0 -->
<g id="edge7" class="edge"><title>Node0x17044e70&#45;&gt;Node0x24f2dde0</title>
<path fill="none" stroke="black" d="M482.547,-1691.35C469.693,-1685.73 455.672,-1679.34 443,-1673 402.5,-1652.75 358.516,-1628.25 322.314,-1607.37"/>
<polygon fill="black" stroke="black" points="323.692,-1604.13 313.284,-1602.15 320.187,-1610.19 323.692,-1604.13"/>
<text text-anchor="middle" x="477.5" y="-1661.8" font-family="Times,serif" font-size="14.00">v11 &gt;= 1</text>
</g>
<!-- Node0x170455c0 -->
<g id="node9" class="node"><title>Node0x170455c0</title>
<polygon fill="none" stroke="black" points="310.5,-1345.5 310.5,-1443.5 647.5,-1443.5 647.5,-1345.5 310.5,-1345.5"/>
<text text-anchor="start" x="318.5" y="-1428.3" font-family="Times,serif" font-size="14.00">0x6ed5610:</text>
<text text-anchor="start" x="318.5" y="-1413.3" font-family="Times,serif" font-size="14.00"> v12 = *(IntToPtrCastExpr&lt;ptr&gt;((v7 + 52)))</text>
<text text-anchor="start" x="318.5" y="-1398.3" font-family="Times,serif" font-size="14.00"> g30 = v12</text>
<text text-anchor="start" x="318.5" y="-1383.3" font-family="Times,serif" font-size="14.00"> g8 = False</text>
<text text-anchor="start" x="318.5" y="-1368.3" font-family="Times,serif" font-size="14.00"> g7 = (v12 &lt; 0)</text>
<text text-anchor="start" x="318.5" y="-1353.3" font-family="Times,serif" font-size="14.00"> v8 = v7</text>
</g>
<!-- Node0x17044e70&#45;&gt;Node0x170455c0 -->
<g id="edge8" class="edge"><title>Node0x17044e70&#45;&gt;Node0x170455c0</title>
<path fill="none" stroke="black" d="M524.551,-1691.33C521.302,-1652.51 512.635,-1558.71 499,-1481 497.433,-1472.07 495.514,-1462.67 493.492,-1453.51"/>
<polygon fill="black" stroke="black" points="496.89,-1452.67 491.268,-1443.69 490.063,-1454.21 496.89,-1452.67"/>
<text text-anchor="middle" x="548.5" y="-1556.8" font-family="Times,serif" font-size="14.00">v11 &lt; 1</text>
</g>
<!-- Node0x24898500 -->
<g id="node10" class="node"><title>Node0x24898500</title>
<polygon fill="none" stroke="black" points="601.5,-1481.5 601.5,-1639.5 1050.5,-1639.5 1050.5,-1481.5 601.5,-1481.5"/>
<text text-anchor="start" x="609.5" y="-1624.3" font-family="Times,serif" font-size="14.00">0x26ca0ca0:</text>
<text text-anchor="start" x="609.5" y="-1609.3" font-family="Times,serif" font-size="14.00"> v14 = v18</text>
<text text-anchor="start" x="609.5" y="-1594.3" font-family="Times,serif" font-size="14.00"> v15 = (*(IntToPtrCastExpr&lt;ptr&gt;((v17 + 8))) + (256 * v14))</text>
<text text-anchor="start" x="609.5" y="-1579.3" font-family="Times,serif" font-size="14.00"> g36 = v15</text>
<text text-anchor="start" x="609.5" y="-1564.3" font-family="Times,serif" font-size="14.00"> v16 = IntToPtrCastExpr&lt;ptr&gt;((v15 + 8))</text>
<text text-anchor="start" x="609.5" y="-1549.3" font-family="Times,serif" font-size="14.00"> g30 = (v14 + 1)</text>
<text text-anchor="start" x="609.5" y="-1534.3" font-family="Times,serif" font-size="14.00"> *(v16) = (*(v16) &amp; &#45;33)</text>
<text text-anchor="start" x="609.5" y="-1519.3" font-family="Times,serif" font-size="14.00"> v17 = g38</text>
<text text-anchor="start" x="609.5" y="-1504.3" font-family="Times,serif" font-size="14.00"> v18 = g30</text>
<text text-anchor="start" x="609.5" y="-1489.3" font-family="Times,serif" font-size="14.00"> v5 = v17</text>
</g>
<!-- Node0x34af0510&#45;&gt;Node0x24898500 -->
<g id="edge9" class="edge"><title>Node0x34af0510&#45;&gt;Node0x24898500</title>
<path fill="none" stroke="black" d="M842.926,-1704.47C740.663,-1699.66 646.233,-1690.47 630,-1673 622.393,-1664.81 618.919,-1657.07 618.752,-1649.76"/>
<polygon fill="black" stroke="black" points="622.23,-1650.2 620.632,-1639.73 615.349,-1648.91 622.23,-1650.2"/>
<text text-anchor="middle" x="875" y="-1661.8" font-family="Times,serif" font-size="14.00">v18 &lt; ExtCastExpr&lt;int32&gt;(*(IntToPtrCastExpr&lt;ptr&gt;((v17 + 14))))</text>
</g>
<!-- Node0x34af0d90 -->
<g id="node11" class="node"><title>Node0x34af0d90</title>
<polygon fill="none" stroke="black" points="1068.5,-1511.5 1068.5,-1609.5 1405.5,-1609.5 1405.5,-1511.5 1068.5,-1511.5"/>
<text text-anchor="start" x="1076.5" y="-1594.3" font-family="Times,serif" font-size="14.00">0x6ec8e30:</text>
<text text-anchor="start" x="1076.5" y="-1579.3" font-family="Times,serif" font-size="14.00"> v11 = *(IntToPtrCastExpr&lt;ptr&gt;((v5 + 50)))</text>
<text text-anchor="start" x="1076.5" y="-1564.3" font-family="Times,serif" font-size="14.00"> g30 = v11</text>
<text text-anchor="start" x="1076.5" y="-1549.3" font-family="Times,serif" font-size="14.00"> g8 = False</text>
<text text-anchor="start" x="1076.5" y="-1534.3" font-family="Times,serif" font-size="14.00"> g7 = (v11 &lt; 0)</text>
<text text-anchor="start" x="1076.5" y="-1519.3" font-family="Times,serif" font-size="14.00"> v7 = v5</text>
</g>
<!-- Node0x34af0510&#45;&gt;Node0x34af0d90 -->
<g id="edge10" class="edge"><title>Node0x34af0510&#45;&gt;Node0x34af0d90</title>
<path fill="none" stroke="black" d="M1140.49,-1691.35C1154.05,-1673.1 1175.67,-1644.02 1195.01,-1618"/>
<polygon fill="black" stroke="black" points="1198.03,-1619.79 1201.19,-1609.68 1192.42,-1615.62 1198.03,-1619.79"/>
<text text-anchor="middle" x="1413" y="-1661.8" font-family="Times,serif" font-size="14.00">v18 &gt;= ExtCastExpr&lt;int32&gt;(*(IntToPtrCastExpr&lt;ptr&gt;((v17 + 14))))</text>
</g>
<!-- Node0x24f2dde0&#45;&gt;Node0x170455c0 -->
<g id="edge11" class="edge"><title>Node0x24f2dde0&#45;&gt;Node0x170455c0</title>
<path fill="none" stroke="black" d="M302.843,-1518.96C332.66,-1498.06 369.433,-1472.29 401.655,-1449.71"/>
<polygon fill="black" stroke="black" points="403.996,-1452.34 410.176,-1443.74 399.978,-1446.61 403.996,-1452.34"/>
</g>
<!-- Node0x17046440 -->
<g id="node12" class="node"><title>Node0x17046440</title>
<polygon fill="none" stroke="black" points="419.5,-1233 419.5,-1271 538.5,-1271 538.5,-1233 419.5,-1233"/>
<text text-anchor="start" x="427.5" y="-1255.8" font-family="Times,serif" font-size="14.00">0x6ed7950:</text>
<text text-anchor="start" x="427.5" y="-1240.8" font-family="Times,serif" font-size="14.00"> if (v12 &gt;= 1):</text>
</g>
<!-- Node0x170455c0&#45;&gt;Node0x17046440 -->
<g id="edge12" class="edge"><title>Node0x170455c0&#45;&gt;Node0x17046440</title>
<path fill="none" stroke="black" d="M479,-1345.15C479,-1323.78 479,-1299.41 479,-1281.1"/>
<polygon fill="black" stroke="black" points="482.5,-1281.09 479,-1271.09 475.5,-1281.09 482.5,-1281.09"/>
</g>
<!-- Node0x24898500&#45;&gt;Node0x34af0510 -->
<g id="edge13" class="edge"><title>Node0x24898500&#45;&gt;Node0x34af0510</title>
<path fill="none" stroke="black" d="M1050.71,-1637.37C1053.49,-1638.26 1056.25,-1639.13 1059,-1640 1085.95,-1648.51 1101.59,-1636.55 1120,-1658 1125.46,-1664.35 1127.88,-1672.87 1128.74,-1681.14"/>
<polygon fill="black" stroke="black" points="1125.25,-1681.46 1129.13,-1691.32 1132.25,-1681.19 1125.25,-1681.46"/>
</g>
<!-- Node0x24897db0 -->
<g id="node13" class="node"><title>Node0x24897db0</title>
<polygon fill="none" stroke="black" points="1177.5,-1375.5 1177.5,-1413.5 1296.5,-1413.5 1296.5,-1375.5 1177.5,-1375.5"/>
<text text-anchor="start" x="1185.5" y="-1398.3" font-family="Times,serif" font-size="14.00">0x6eca970:</text>
<text text-anchor="start" x="1185.5" y="-1383.3" font-family="Times,serif" font-size="14.00"> if (v11 &gt;= 1):</text>
</g>
<!-- Node0x34af0d90&#45;&gt;Node0x24897db0 -->
<g id="edge14" class="edge"><title>Node0x34af0d90&#45;&gt;Node0x24897db0</title>
<path fill="none" stroke="black" d="M1237,-1511.18C1237,-1482.83 1237,-1447.98 1237,-1423.99"/>
<polygon fill="black" stroke="black" points="1240.5,-1423.79 1237,-1413.79 1233.5,-1423.79 1240.5,-1423.79"/>
</g>
<!-- Node0x24f2ebe0 -->
<g id="node14" class="node"><title>Node0x24f2ebe0</title>
<polygon fill="none" stroke="black" points="219,-1068 219,-1151 709,-1151 709,-1068 219,-1068"/>
<text text-anchor="start" x="227" y="-1135.8" font-family="Times,serif" font-size="14.00">0x6ed6b50:</text>
<text text-anchor="start" x="227" y="-1120.8" font-family="Times,serif" font-size="14.00"> g29 = *(IntToPtrCastExpr&lt;ptr&gt;(*(IntToPtrCastExpr&lt;ptr&gt;(v7))))</text>
<text text-anchor="start" x="227" y="-1105.8" font-family="Times,serif" font-size="14.00"> function_3920()</text>
<text text-anchor="start" x="227" y="-1090.8" font-family="Times,serif" font-size="14.00"> *(IntToPtrCastExpr&lt;ptr&gt;((g38 + 52))) = 0</text>
<text text-anchor="start" x="227" y="-1075.8" font-family="Times,serif" font-size="14.00"> v8 = g38</text>
</g>
<!-- Node0x17046440&#45;&gt;Node0x24f2ebe0 -->
<g id="edge15" class="edge"><title>Node0x17046440&#45;&gt;Node0x24f2ebe0</title>
<path fill="none" stroke="black" d="M477.07,-1232.92C475.143,-1214.88 472.094,-1186.31 469.425,-1161.31"/>
<polygon fill="black" stroke="black" points="472.889,-1160.79 468.347,-1151.22 465.929,-1161.54 472.889,-1160.79"/>
<text text-anchor="middle" x="507.5" y="-1180.8" font-family="Times,serif" font-size="14.00">v12 &gt;= 1</text>
</g>
<!-- Node0x170468e0 -->
<g id="node15" class="node"><title>Node0x170468e0</title>
<polygon fill="none" stroke="black" points="438.5,-924.5 438.5,-1022.5 757.5,-1022.5 757.5,-924.5 438.5,-924.5"/>
<text text-anchor="start" x="446.5" y="-1007.3" font-family="Times,serif" font-size="14.00">0x6ed7c30:</text>
<text text-anchor="start" x="446.5" y="-992.3" font-family="Times,serif" font-size="14.00"> v10 = IntToPtrCastExpr&lt;ptr&gt;((v8 + 43))</text>
<text text-anchor="start" x="446.5" y="-977.3" font-family="Times,serif" font-size="14.00"> v13 = *(v10)</text>
<text text-anchor="start" x="446.5" y="-962.3" font-family="Times,serif" font-size="14.00"> g8 = False</text>
<text text-anchor="start" x="446.5" y="-947.3" font-family="Times,serif" font-size="14.00"> g7 = (v13 &lt; 0)</text>
<text text-anchor="start" x="446.5" y="-932.3" font-family="Times,serif" font-size="14.00"> g9 = (v13 == 0)</text>
</g>
<!-- Node0x17046440&#45;&gt;Node0x170468e0 -->
<g id="edge16" class="edge"><title>Node0x17046440&#45;&gt;Node0x170468e0</title>
<path fill="none" stroke="black" d="M538.702,-1246.49C595.481,-1238.65 677.986,-1217.28 718,-1159 742.905,-1122.73 738.157,-1099.11 718,-1060 712.175,-1048.7 704.087,-1038.56 694.835,-1029.56"/>
<polygon fill="black" stroke="black" points="696.934,-1026.74 687.186,-1022.59 692.218,-1031.91 696.934,-1026.74"/>
<text text-anchor="middle" x="763.5" y="-1105.8" font-family="Times,serif" font-size="14.00">v12 &lt; 1</text>
</g>
<!-- Node0x2489b270 -->
<g id="node16" class="node"><title>Node0x2489b270</title>
<polygon fill="none" stroke="black" points="735,-1210.5 735,-1293.5 1225,-1293.5 1225,-1210.5 735,-1210.5"/>
<text text-anchor="start" x="743" y="-1278.3" font-family="Times,serif" font-size="14.00">0x6ec9e60:</text>
<text text-anchor="start" x="743" y="-1263.3" font-family="Times,serif" font-size="14.00"> g29 = *(IntToPtrCastExpr&lt;ptr&gt;(*(IntToPtrCastExpr&lt;ptr&gt;(v5))))</text>
<text text-anchor="start" x="743" y="-1248.3" font-family="Times,serif" font-size="14.00"> function_3920()</text>
<text text-anchor="start" x="743" y="-1233.3" font-family="Times,serif" font-size="14.00"> *(IntToPtrCastExpr&lt;ptr&gt;((g38 + 50))) = 0</text>
<text text-anchor="start" x="743" y="-1218.3" font-family="Times,serif" font-size="14.00"> v7 = g38</text>
</g>
<!-- Node0x24897db0&#45;&gt;Node0x2489b270 -->
<g id="edge17" class="edge"><title>Node0x24897db0&#45;&gt;Node0x2489b270</title>
<path fill="none" stroke="black" d="M1203.93,-1375.42C1168.51,-1356.06 1110.94,-1324.58 1063.04,-1298.4"/>
<polygon fill="black" stroke="black" points="1064.67,-1295.3 1054.22,-1293.57 1061.31,-1301.44 1064.67,-1295.3"/>
<text text-anchor="middle" x="1142.5" y="-1315.8" font-family="Times,serif" font-size="14.00">v11 &gt;= 1</text>
</g>
<!-- Node0x2489d260 -->
<g id="node17" class="node"><title>Node0x2489d260</title>
<polygon fill="none" stroke="black" points="944.5,-1060.5 944.5,-1158.5 1281.5,-1158.5 1281.5,-1060.5 944.5,-1060.5"/>
<text text-anchor="start" x="952.5" y="-1143.3" font-family="Times,serif" font-size="14.00">0x6ecad30:</text>
<text text-anchor="start" x="952.5" y="-1128.3" font-family="Times,serif" font-size="14.00"> v12 = *(IntToPtrCastExpr&lt;ptr&gt;((v7 + 52)))</text>
<text text-anchor="start" x="952.5" y="-1113.3" font-family="Times,serif" font-size="14.00"> g30 = v12</text>
<text text-anchor="start" x="952.5" y="-1098.3" font-family="Times,serif" font-size="14.00"> g8 = False</text>
<text text-anchor="start" x="952.5" y="-1083.3" font-family="Times,serif" font-size="14.00"> g7 = (v12 &lt; 0)</text>
<text text-anchor="start" x="952.5" y="-1068.3" font-family="Times,serif" font-size="14.00"> v8 = v7</text>
</g>
<!-- Node0x24897db0&#45;&gt;Node0x2489d260 -->
<g id="edge18" class="edge"><title>Node0x24897db0&#45;&gt;Node0x2489d260</title>
<path fill="none" stroke="black" d="M1241.46,-1375.43C1248.92,-1341.16 1260.65,-1265.24 1234,-1210 1225.92,-1193.26 1213.54,-1178.36 1199.71,-1165.52"/>
<polygon fill="black" stroke="black" points="1201.71,-1162.62 1191.91,-1158.6 1197.07,-1167.86 1201.71,-1162.62"/>
<text text-anchor="middle" x="1278.5" y="-1248.3" font-family="Times,serif" font-size="14.00">v11 &lt; 1</text>
</g>
<!-- Node0x24f2ebe0&#45;&gt;Node0x170468e0 -->
<g id="edge19" class="edge"><title>Node0x24f2ebe0&#45;&gt;Node0x170468e0</title>
<path fill="none" stroke="black" d="M504.568,-1067.93C516.416,-1056.08 529.578,-1042.92 542.195,-1030.31"/>
<polygon fill="black" stroke="black" points="544.95,-1032.5 549.546,-1022.95 540,-1027.55 544.95,-1032.5"/>
</g>
<!-- Node0x17048c10 -->
<g id="node18" class="node"><title>Node0x17048c10</title>
<polygon fill="none" stroke="black" points="541.5,-804.5 541.5,-857.5 654.5,-857.5 654.5,-804.5 541.5,-804.5"/>
<text text-anchor="start" x="549.5" y="-842.3" font-family="Times,serif" font-size="14.00">0x6ed9a40:</text>
<text text-anchor="start" x="549.5" y="-827.3" font-family="Times,serif" font-size="14.00"> if (v13 != 0):</text>
<text text-anchor="start" x="549.5" y="-812.3" font-family="Times,serif" font-size="14.00"> else:</text>
</g>
<!-- Node0x170468e0&#45;&gt;Node0x17048c10 -->
<g id="edge20" class="edge"><title>Node0x170468e0&#45;&gt;Node0x17048c10</title>
<path fill="none" stroke="black" d="M598,-924.148C598,-905.611 598,-884.813 598,-867.674"/>
<polygon fill="black" stroke="black" points="601.5,-867.527 598,-857.527 594.5,-867.528 601.5,-867.527"/>
</g>
<!-- Node0x2489b270&#45;&gt;Node0x2489d260 -->
<g id="edge21" class="edge"><title>Node0x2489b270&#45;&gt;Node0x2489d260</title>
<path fill="none" stroke="black" d="M1018.47,-1210.36C1031.47,-1196.63 1046.22,-1181.05 1060.14,-1166.34"/>
<polygon fill="black" stroke="black" points="1062.99,-1168.42 1067.33,-1158.75 1057.91,-1163.61 1062.99,-1168.42"/>
</g>
<!-- Node0x24f2a530 -->
<g id="node19" class="node"><title>Node0x24f2a530</title>
<polygon fill="none" stroke="black" points="1053.5,-954.5 1053.5,-992.5 1172.5,-992.5 1172.5,-954.5 1053.5,-954.5"/>
<text text-anchor="start" x="1061.5" y="-977.3" font-family="Times,serif" font-size="14.00">0x6eccec0:</text>
<text text-anchor="start" x="1061.5" y="-962.3" font-family="Times,serif" font-size="14.00"> if (v12 &gt;= 1):</text>
</g>
<!-- Node0x2489d260&#45;&gt;Node0x24f2a530 -->
<g id="edge22" class="edge"><title>Node0x2489d260&#45;&gt;Node0x24f2a530</title>
<path fill="none" stroke="black" d="M1113,-1060.12C1113,-1040.94 1113,-1019.54 1113,-1002.93"/>
<polygon fill="black" stroke="black" points="1116.5,-1002.78 1113,-992.781 1109.5,-1002.78 1116.5,-1002.78"/>
</g>
<!-- Node0x24f2f7e0 -->
<g id="node20" class="node"><title>Node0x24f2f7e0</title>
<polygon fill="none" stroke="black" points="404.5,-647 404.5,-730 751.5,-730 751.5,-647 404.5,-647"/>
<text text-anchor="start" x="412.5" y="-714.8" font-family="Times,serif" font-size="14.00">0x6ed8e40:</text>
<text text-anchor="start" x="412.5" y="-699.8" font-family="Times,serif" font-size="14.00"> *(v10) = 0</text>
<text text-anchor="start" x="412.5" y="-684.8" font-family="Times,serif" font-size="14.00"> g29 = *(IntToPtrCastExpr&lt;ptr&gt;((g38 + 28)))</text>
<text text-anchor="start" x="412.5" y="-669.8" font-family="Times,serif" font-size="14.00"> function_8a2c()</text>
<text text-anchor="start" x="412.5" y="-654.8" font-family="Times,serif" font-size="14.00"> v9 = g38</text>
</g>
<!-- Node0x17048c10&#45;&gt;Node0x24f2f7e0 -->
<g id="edge23" class="edge"><title>Node0x17048c10&#45;&gt;Node0x24f2f7e0</title>
<path fill="none" stroke="black" d="M594.332,-804.23C591.781,-786.312 588.297,-761.835 585.202,-740.091"/>
<polygon fill="black" stroke="black" points="588.64,-739.41 583.766,-730.003 581.71,-740.396 588.64,-739.41"/>
<text text-anchor="middle" x="621.5" y="-759.8" font-family="Times,serif" font-size="14.00">v13 != 0</text>
</g>
<!-- Node0x24f303e0 -->
<g id="node21" class="node"><title>Node0x24f303e0</title>
<polygon fill="none" stroke="black" points="769,-669.5 769,-707.5 869,-707.5 869,-669.5 769,-669.5"/>
<text text-anchor="start" x="777" y="-692.3" font-family="Times,serif" font-size="14.00">0x6ed9be0:</text>
<text text-anchor="start" x="777" y="-677.3" font-family="Times,serif" font-size="14.00"> v9 = v8</text>
</g>
<!-- Node0x17048c10&#45;&gt;Node0x24f303e0 -->
<g id="edge24" class="edge"><title>Node0x17048c10&#45;&gt;Node0x24f303e0</title>
<path fill="none" stroke="black" d="M639.901,-804.329C648.492,-799.181 657.505,-793.862 666,-789 707.252,-765.389 720.573,-764.546 760,-738 770.655,-730.826 781.695,-722.136 791.303,-714.105"/>
<polygon fill="black" stroke="black" points="793.646,-716.707 798.996,-707.562 789.111,-711.375 793.646,-716.707"/>
<text text-anchor="middle" x="765.5" y="-759.8" font-family="Times,serif" font-size="14.00">v13 == 0</text>
</g>
<!-- Node0x2489c380 -->
<g id="node22" class="node"><title>Node0x2489c380</title>
<polygon fill="none" stroke="black" points="675,-789.5 675,-872.5 1165,-872.5 1165,-789.5 675,-789.5"/>
<text text-anchor="start" x="683" y="-857.3" font-family="Times,serif" font-size="14.00">0x6ecbfd0:</text>
<text text-anchor="start" x="683" y="-842.3" font-family="Times,serif" font-size="14.00"> g29 = *(IntToPtrCastExpr&lt;ptr&gt;(*(IntToPtrCastExpr&lt;ptr&gt;(v7))))</text>
<text text-anchor="start" x="683" y="-827.3" font-family="Times,serif" font-size="14.00"> function_3920()</text>
<text text-anchor="start" x="683" y="-812.3" font-family="Times,serif" font-size="14.00"> *(IntToPtrCastExpr&lt;ptr&gt;((g38 + 52))) = 0</text>
<text text-anchor="start" x="683" y="-797.3" font-family="Times,serif" font-size="14.00"> v8 = g38</text>
</g>
<!-- Node0x24f2a530&#45;&gt;Node0x2489c380 -->
<g id="edge25" class="edge"><title>Node0x24f2a530&#45;&gt;Node0x2489c380</title>
<path fill="none" stroke="black" d="M1088.16,-954.42C1062.06,-935.414 1019.91,-904.736 984.351,-878.846"/>
<polygon fill="black" stroke="black" points="986.081,-875.776 975.936,-872.72 981.961,-881.435 986.081,-875.776"/>
<text text-anchor="middle" x="1051.5" y="-894.8" font-family="Times,serif" font-size="14.00">v12 &gt;= 1</text>
</g>
<!-- Node0x24f2b2b0 -->
<g id="node23" class="node"><title>Node0x24f2b2b0</title>
<polygon fill="none" stroke="black" points="928.5,-639.5 928.5,-737.5 1247.5,-737.5 1247.5,-639.5 928.5,-639.5"/>
<text text-anchor="start" x="936.5" y="-722.3" font-family="Times,serif" font-size="14.00">0x6ecd1e0:</text>
<text text-anchor="start" x="936.5" y="-707.3" font-family="Times,serif" font-size="14.00"> v10 = IntToPtrCastExpr&lt;ptr&gt;((v8 + 43))</text>
<text text-anchor="start" x="936.5" y="-692.3" font-family="Times,serif" font-size="14.00"> v13 = *(v10)</text>
<text text-anchor="start" x="936.5" y="-677.3" font-family="Times,serif" font-size="14.00"> g8 = False</text>
<text text-anchor="start" x="936.5" y="-662.3" font-family="Times,serif" font-size="14.00"> g7 = (v13 &lt; 0)</text>
<text text-anchor="start" x="936.5" y="-647.3" font-family="Times,serif" font-size="14.00"> g9 = (v13 == 0)</text>
</g>
<!-- Node0x24f2a530&#45;&gt;Node0x24f2b2b0 -->
<g id="edge26" class="edge"><title>Node0x24f2a530&#45;&gt;Node0x24f2b2b0</title>
<path fill="none" stroke="black" d="M1128.59,-954.181C1143.57,-935.268 1165.2,-904.201 1174,-873 1184.14,-837.069 1187.02,-823.988 1174,-789 1168.23,-773.495 1158.83,-758.796 1148.33,-745.688"/>
<polygon fill="black" stroke="black" points="1150.77,-743.156 1141.67,-737.74 1145.41,-747.652 1150.77,-743.156"/>
<text text-anchor="middle" x="1210.5" y="-827.3" font-family="Times,serif" font-size="14.00">v12 &lt; 1</text>
</g>
<!-- Node0x1d9d2630 -->
<g id="node24" class="node"><title>Node0x1d9d2630</title>
<polygon fill="none" stroke="black" points="486,-428.5 486,-601.5 1006,-601.5 1006,-428.5 486,-428.5"/>
<text text-anchor="start" x="494" y="-586.3" font-family="Times,serif" font-size="14.00">0x6ed9d90:</text>
<text text-anchor="start" x="494" y="-571.3" font-family="Times,serif" font-size="14.00"> g37 = 0</text>
<text text-anchor="start" x="494" y="-556.3" font-family="Times,serif" font-size="14.00"> *(IntToPtrCastExpr&lt;ptr&gt;((v9 + 32))) = 0</text>
<text text-anchor="start" x="494" y="-541.3" font-family="Times,serif" font-size="14.00"> *(IntToPtrCastExpr&lt;ptr&gt;((g38 + 40))) = TruncCastExpr&lt;int8&gt;(g37)</text>
<text text-anchor="start" x="494" y="-526.3" font-family="Times,serif" font-size="14.00"> *(IntToPtrCastExpr&lt;ptr&gt;((g38 + 38))) = TruncCastExpr&lt;int8&gt;(g37)</text>
<text text-anchor="start" x="494" y="-511.3" font-family="Times,serif" font-size="14.00"> *(IntToPtrCastExpr&lt;ptr&gt;((g38 + 36))) = TruncCastExpr&lt;int8&gt;(g37)</text>
<text text-anchor="start" x="494" y="-496.3" font-family="Times,serif" font-size="14.00"> g38 = v1</text>
<text text-anchor="start" x="494" y="-481.3" font-family="Times,serif" font-size="14.00"> g32 = v2</text>
<text text-anchor="start" x="494" y="-466.3" font-family="Times,serif" font-size="14.00"> g34 = v6</text>
<text text-anchor="start" x="494" y="-451.3" font-family="Times,serif" font-size="14.00"> IntToPtrCastExpr&lt;ptr&gt;(v3)()</text>
<text text-anchor="start" x="494" y="-436.3" font-family="Times,serif" font-size="14.00"> return</text>
</g>
<!-- Node0x24f2f7e0&#45;&gt;Node0x1d9d2630 -->
<g id="edge27" class="edge"><title>Node0x24f2f7e0&#45;&gt;Node0x1d9d2630</title>
<path fill="none" stroke="black" d="M617.814,-646.857C629.112,-635.323 641.901,-622.268 654.918,-608.98"/>
<polygon fill="black" stroke="black" points="657.668,-611.174 662.165,-601.581 652.667,-606.276 657.668,-611.174"/>
</g>
<!-- Node0x24f303e0&#45;&gt;Node0x1d9d2630 -->
<g id="edge28" class="edge"><title>Node0x24f303e0&#45;&gt;Node0x1d9d2630</title>
<path fill="none" stroke="black" d="M811.326,-669.471C805.148,-654.958 795.947,-633.341 786.385,-610.878"/>
<polygon fill="black" stroke="black" points="789.557,-609.392 782.42,-601.562 783.116,-612.134 789.557,-609.392"/>
</g>
<!-- Node0x2489c380&#45;&gt;Node0x24f2b2b0 -->
<g id="edge29" class="edge"><title>Node0x2489c380&#45;&gt;Node0x24f2b2b0</title>
<path fill="none" stroke="black" d="M968.593,-789.362C985.316,-775.376 1004.33,-759.473 1022.19,-744.535"/>
<polygon fill="black" stroke="black" points="1024.88,-746.849 1030.31,-737.749 1020.39,-741.48 1024.88,-746.849"/>
</g>
<!-- Node0x24f2d470 -->
<g id="node25" class="node"><title>Node0x24f2d470</title>
<polygon fill="none" stroke="black" points="1031.5,-488.5 1031.5,-541.5 1144.5,-541.5 1144.5,-488.5 1031.5,-488.5"/>
<text text-anchor="start" x="1039.5" y="-526.3" font-family="Times,serif" font-size="14.00">0x6ecf6b0:</text>
<text text-anchor="start" x="1039.5" y="-511.3" font-family="Times,serif" font-size="14.00"> if (v13 != 0):</text>
<text text-anchor="start" x="1039.5" y="-496.3" font-family="Times,serif" font-size="14.00"> else:</text>
</g>
<!-- Node0x24f2b2b0&#45;&gt;Node0x24f2d470 -->
<g id="edge30" class="edge"><title>Node0x24f2b2b0&#45;&gt;Node0x24f2d470</title>
<path fill="none" stroke="black" d="M1088,-639.271C1088,-611.531 1088,-577.264 1088,-551.906"/>
<polygon fill="black" stroke="black" points="1091.5,-551.629 1088,-541.629 1084.5,-551.629 1091.5,-551.629"/>
</g>
<!-- Node0x17045520 -->
<g id="node26" class="node"><title>Node0x17045520</title>
<polygon fill="none" stroke="black" points="797,-23.5 797,-59.5 851,-59.5 851,-23.5 797,-23.5"/>
<text text-anchor="start" x="805" y="-37.8" font-family="Times,serif" font-size="14.00">exit:</text>
</g>
<!-- Node0x1d9d2630&#45;&gt;Node0x17045520 -->
<g id="edge31" class="edge"><title>Node0x1d9d2630&#45;&gt;Node0x17045520</title>
<path fill="none" stroke="black" d="M731.631,-428.461C720.986,-340.883 715.725,-202.963 765,-97 770.521,-85.1274 779.93,-74.6321 789.631,-66.1011"/>
<polygon fill="black" stroke="black" points="791.916,-68.7535 797.405,-59.6917 787.463,-63.3523 791.916,-68.7535"/>
</g>
<!-- Node0x3fa20a40 -->
<g id="node27" class="node"><title>Node0x3fa20a40</title>
<polygon fill="none" stroke="black" points="796.5,-293.5 796.5,-376.5 1143.5,-376.5 1143.5,-293.5 796.5,-293.5"/>
<text text-anchor="start" x="804.5" y="-361.3" font-family="Times,serif" font-size="14.00">0x6ece540:</text>
<text text-anchor="start" x="804.5" y="-346.3" font-family="Times,serif" font-size="14.00"> *(v10) = 0</text>
<text text-anchor="start" x="804.5" y="-331.3" font-family="Times,serif" font-size="14.00"> g29 = *(IntToPtrCastExpr&lt;ptr&gt;((g38 + 28)))</text>
<text text-anchor="start" x="804.5" y="-316.3" font-family="Times,serif" font-size="14.00"> function_8a2c()</text>
<text text-anchor="start" x="804.5" y="-301.3" font-family="Times,serif" font-size="14.00"> v9 = g38</text>
</g>
<!-- Node0x24f2d470&#45;&gt;Node0x3fa20a40 -->
<g id="edge32" class="edge"><title>Node0x24f2d470&#45;&gt;Node0x3fa20a40</title>
<path fill="none" stroke="black" d="M1071.09,-488.497C1053.31,-461.671 1024.88,-418.785 1002.69,-385.315"/>
<polygon fill="black" stroke="black" points="1005.35,-382.987 996.905,-376.586 999.513,-386.855 1005.35,-382.987"/>
<text text-anchor="middle" x="1050.5" y="-398.8" font-family="Times,serif" font-size="14.00">v13 != 0</text>
</g>
<!-- Node0x2489bbd0 -->
<g id="node28" class="node"><title>Node0x2489bbd0</title>
<polygon fill="none" stroke="black" points="1161,-316 1161,-354 1257,-354 1257,-316 1161,-316"/>
<text text-anchor="start" x="1169" y="-338.8" font-family="Times,serif" font-size="14.00">0x6ecf830:</text>
<text text-anchor="start" x="1169" y="-323.8" font-family="Times,serif" font-size="14.00"> v9 = v8</text>
</g>
<!-- Node0x24f2d470&#45;&gt;Node0x2489bbd0 -->
<g id="edge33" class="edge"><title>Node0x24f2d470&#45;&gt;Node0x2489bbd0</title>
<path fill="none" stroke="black" d="M1105.34,-488.497C1128.07,-455.052 1167.77,-396.646 1190.89,-362.645"/>
<polygon fill="black" stroke="black" points="1193.94,-364.387 1196.66,-354.149 1188.15,-360.452 1193.94,-364.387"/>
<text text-anchor="middle" x="1200.5" y="-398.8" font-family="Times,serif" font-size="14.00">v13 == 0</text>
</g>
<!-- Node0x24f2c010 -->
<g id="node29" class="node"><title>Node0x24f2c010</title>
<polygon fill="none" stroke="black" points="774,-97.5 774,-255.5 1294,-255.5 1294,-97.5 774,-97.5"/>
<text text-anchor="start" x="782" y="-240.3" font-family="Times,serif" font-size="14.00">0x6ecf970:</text>
<text text-anchor="start" x="782" y="-225.3" font-family="Times,serif" font-size="14.00"> g37 = 0</text>
<text text-anchor="start" x="782" y="-210.3" font-family="Times,serif" font-size="14.00"> *(IntToPtrCastExpr&lt;ptr&gt;((v9 + 32))) = 0</text>
<text text-anchor="start" x="782" y="-195.3" font-family="Times,serif" font-size="14.00"> *(IntToPtrCastExpr&lt;ptr&gt;((g38 + 40))) = TruncCastExpr&lt;int8&gt;(g37)</text>
<text text-anchor="start" x="782" y="-180.3" font-family="Times,serif" font-size="14.00"> *(IntToPtrCastExpr&lt;ptr&gt;((g38 + 38))) = TruncCastExpr&lt;int8&gt;(g37)</text>
<text text-anchor="start" x="782" y="-165.3" font-family="Times,serif" font-size="14.00"> *(IntToPtrCastExpr&lt;ptr&gt;((g38 + 36))) = TruncCastExpr&lt;int8&gt;(g37)</text>
<text text-anchor="start" x="782" y="-150.3" font-family="Times,serif" font-size="14.00"> g38 = v1</text>
<text text-anchor="start" x="782" y="-135.3" font-family="Times,serif" font-size="14.00"> g32 = v2</text>
<text text-anchor="start" x="782" y="-120.3" font-family="Times,serif" font-size="14.00"> g34 = v6</text>
<text text-anchor="start" x="782" y="-105.3" font-family="Times,serif" font-size="14.00"> IntToPtrCastExpr&lt;ptr&gt;(v3)()</text>
</g>
<!-- Node0x3fa20a40&#45;&gt;Node0x24f2c010 -->
<g id="edge34" class="edge"><title>Node0x3fa20a40&#45;&gt;Node0x24f2c010</title>
<path fill="none" stroke="black" d="M986.648,-293.29C990.241,-284.505 994.172,-274.893 998.184,-265.082"/>
<polygon fill="black" stroke="black" points="1001.5,-266.216 1002.05,-255.635 995.022,-263.566 1001.5,-266.216"/>
</g>
<!-- Node0x2489bbd0&#45;&gt;Node0x24f2c010 -->
<g id="edge35" class="edge"><title>Node0x2489bbd0&#45;&gt;Node0x24f2c010</title>
<path fill="none" stroke="black" d="M1188.58,-315.741C1173.43,-302.195 1151.58,-282.653 1129.06,-262.51"/>
<polygon fill="black" stroke="black" points="1131.19,-259.72 1121.4,-255.663 1126.52,-264.938 1131.19,-259.72"/>
</g>
<!-- Node0x24f2c010&#45;&gt;Node0x17045520 -->
<g id="edge36" class="edge"><title>Node0x24f2c010&#45;&gt;Node0x17045520</title>
<path fill="none" stroke="black" d="M910.627,-97.3641C891.996,-85.5641 874.161,-74.2686 859.569,-65.0267"/>
<polygon fill="black" stroke="black" points="861.244,-61.9453 850.924,-59.5516 857.499,-67.859 861.244,-61.9453"/>
</g>
</g>
</svg>
