<?xml version="1.0" encoding="UTF-8" standalone="no"?>
<!DOCTYPE svg PUBLIC "-//W3C//DTD SVG 1.1//EN"
 "http://www.w3.org/Graphics/SVG/1.1/DTD/svg11.dtd">
<!-- Generated by graphviz version 2.38.0 (20140413.2041)
 -->
<!-- Title: Control&#45;flow graph for function &#39;SpPlaybackPause()&#39;. Pages: 1 -->
<svg width="515pt" height="1303pt"
 viewBox="0.00 0.00 515.00 1303.00" xmlns="http://www.w3.org/2000/svg" xmlns:xlink="http://www.w3.org/1999/xlink">
<g id="graph0" class="graph" transform="scale(1 1) rotate(0) translate(4 1299)">
<title>Control&#45;flow graph for function &#39;SpPlaybackPause()&#39;.</title>
<polygon fill="white" stroke="none" points="-4,4 -4,-1299 511,-1299 511,4 -4,4"/>
<text text-anchor="middle" x="253.5" y="-7.8" font-family="Times,serif" font-size="14.00">Control&#45;flow graph for function &#39;SpPlaybackPause()&#39;.</text>
<!-- Node0x383b02c0 -->
<g id="node1" class="node"><title>Node0x383b02c0</title>
<polygon fill="none" stroke="black" points="320,-1258.5 320,-1294.5 379,-1294.5 379,-1258.5 320,-1258.5"/>
<text text-anchor="start" x="328" y="-1272.8" font-family="Times,serif" font-size="14.00">entry:</text>
</g>
<!-- Node0x478f9300 -->
<g id="node2" class="node"><title>Node0x478f9300</title>
<polygon fill="none" stroke="black" points="192,-1062.5 192,-1220.5 507,-1220.5 507,-1062.5 192,-1062.5"/>
<text text-anchor="start" x="200" y="-1205.3" font-family="Times,serif" font-size="14.00">0x3298abe0:</text>
<text text-anchor="start" x="200" y="-1190.3" font-family="Times,serif" font-size="14.00"> v1 = g38</text>
<text text-anchor="start" x="200" y="-1175.3" font-family="Times,serif" font-size="14.00"> v2 = g39</text>
<text text-anchor="start" x="200" y="-1160.3" font-family="Times,serif" font-size="14.00"> v3 = g40</text>
<text text-anchor="start" x="200" y="-1145.3" font-family="Times,serif" font-size="14.00"> g38 = 165012</text>
<text text-anchor="start" x="200" y="-1130.3" font-family="Times,serif" font-size="14.00"> v4 = *(IntToPtrCastExpr&lt;ptr&gt;(165212))</text>
<text text-anchor="start" x="200" y="-1115.3" font-family="Times,serif" font-size="14.00"> g40 = v4</text>
<text text-anchor="start" x="200" y="-1100.3" font-family="Times,serif" font-size="14.00"> v5 = *(IntToPtrCastExpr&lt;ptr&gt;(v4))</text>
<text text-anchor="start" x="200" y="-1085.3" font-family="Times,serif" font-size="14.00"> g37 = v5</text>
<text text-anchor="start" x="200" y="-1070.3" font-family="Times,serif" font-size="14.00"> g6 = True</text>
</g>
<!-- Node0x383b02c0&#45;&gt;Node0x478f9300 -->
<g id="edge1" class="edge"><title>Node0x383b02c0&#45;&gt;Node0x478f9300</title>
<path fill="none" stroke="black" d="M349.5,-1258.38C349.5,-1250.78 349.5,-1241.21 349.5,-1230.83"/>
<polygon fill="black" stroke="black" points="353,-1230.68 349.5,-1220.68 346,-1230.68 353,-1230.68"/>
</g>
<!-- Node0x1519db80 -->
<g id="node3" class="node"><title>Node0x1519db80</title>
<polygon fill="none" stroke="black" points="297.5,-986.5 297.5,-1024.5 401.5,-1024.5 401.5,-986.5 297.5,-986.5"/>
<text text-anchor="start" x="305.5" y="-1009.3" font-family="Times,serif" font-size="14.00">0x83150d0:</text>
<text text-anchor="start" x="305.5" y="-994.3" font-family="Times,serif" font-size="14.00"> if (v5 != 0):</text>
</g>
<!-- Node0x478f9300&#45;&gt;Node0x1519db80 -->
<g id="edge2" class="edge"><title>Node0x478f9300&#45;&gt;Node0x1519db80</title>
<path fill="none" stroke="black" d="M349.5,-1062.16C349.5,-1052.45 349.5,-1043.06 349.5,-1034.85"/>
<polygon fill="black" stroke="black" points="353,-1034.8 349.5,-1024.8 346,-1034.8 353,-1034.8"/>
</g>
<!-- Node0x478fec00 -->
<g id="node4" class="node"><title>Node0x478fec00</title>
<polygon fill="none" stroke="black" points="137.5,-851.5 137.5,-934.5 349.5,-934.5 349.5,-851.5 137.5,-851.5"/>
<text text-anchor="start" x="145.5" y="-919.3" font-family="Times,serif" font-size="14.00">0x8314430:</text>
<text text-anchor="start" x="145.5" y="-904.3" font-family="Times,serif" font-size="14.00"> g29 = 157724</text>
<text text-anchor="start" x="145.5" y="-889.3" font-family="Times,serif" font-size="14.00"> g30 = 157464</text>
<text text-anchor="start" x="145.5" y="-874.3" font-family="Times,serif" font-size="14.00"> g36 = 155984</text>
<text text-anchor="start" x="145.5" y="-859.3" font-family="Times,serif" font-size="14.00"> imported_function_ord_0()</text>
</g>
<!-- Node0x1519db80&#45;&gt;Node0x478fec00 -->
<g id="edge3" class="edge"><title>Node0x1519db80&#45;&gt;Node0x478fec00</title>
<path fill="none" stroke="black" d="M331.996,-986.253C320.475,-974.242 304.811,-957.914 289.863,-942.331"/>
<polygon fill="black" stroke="black" points="292.052,-939.557 282.604,-934.764 287,-944.403 292.052,-939.557"/>
<text text-anchor="middle" x="339.5" y="-956.8" font-family="Times,serif" font-size="14.00">v5 != 0</text>
</g>
<!-- Node0x1519de80 -->
<g id="node5" class="node"><title>Node0x1519de80</title>
<polygon fill="none" stroke="black" points="199.5,-670.5 199.5,-813.5 487.5,-813.5 487.5,-670.5 199.5,-670.5"/>
<text text-anchor="start" x="207.5" y="-798.3" font-family="Times,serif" font-size="14.00">0x8315320:</text>
<text text-anchor="start" x="207.5" y="-783.3" font-family="Times,serif" font-size="14.00"> function_170e8()</text>
<text text-anchor="start" x="207.5" y="-768.3" font-family="Times,serif" font-size="14.00"> v6 = *(IntToPtrCastExpr&lt;ptr&gt;(g40))</text>
<text text-anchor="start" x="207.5" y="-753.3" font-family="Times,serif" font-size="14.00"> g37 = v6</text>
<text text-anchor="start" x="207.5" y="-738.3" font-family="Times,serif" font-size="14.00"> v7 = g29</text>
<text text-anchor="start" x="207.5" y="-723.3" font-family="Times,serif" font-size="14.00"> g39 = v7</text>
<text text-anchor="start" x="207.5" y="-708.3" font-family="Times,serif" font-size="14.00"> g6 = True</text>
<text text-anchor="start" x="207.5" y="-693.3" font-family="Times,serif" font-size="14.00"> g9 = (v6 == 0)</text>
<text text-anchor="start" x="207.5" y="-678.3" font-family="Times,serif" font-size="14.00"> v8 = v7</text>
</g>
<!-- Node0x1519db80&#45;&gt;Node0x1519de80 -->
<g id="edge4" class="edge"><title>Node0x1519db80&#45;&gt;Node0x1519de80</title>
<path fill="none" stroke="black" d="M362.396,-986.38C365.702,-980.755 368.802,-974.357 370.5,-968 372.221,-961.559 370.89,-959.655 370.5,-953 367.992,-910.22 362.169,-862.852 356.57,-823.947"/>
<polygon fill="black" stroke="black" points="359.986,-823.119 355.077,-813.73 353.06,-824.131 359.986,-823.119"/>
<text text-anchor="middle" x="399.5" y="-889.3" font-family="Times,serif" font-size="14.00">v5 == 0</text>
</g>
<!-- Node0x478fec00&#45;&gt;Node0x1519de80 -->
<g id="edge5" class="edge"><title>Node0x478fec00&#45;&gt;Node0x1519de80</title>
<path fill="none" stroke="black" d="M270.825,-851.285C276.925,-842.197 283.595,-832.259 290.342,-822.206"/>
<polygon fill="black" stroke="black" points="293.35,-824.004 296.017,-813.75 287.538,-820.103 293.35,-824.004"/>
</g>
<!-- Node0x478ff200 -->
<g id="node6" class="node"><title>Node0x478ff200</title>
<polygon fill="none" stroke="black" points="291.5,-594.5 291.5,-632.5 395.5,-632.5 395.5,-594.5 291.5,-594.5"/>
<text text-anchor="start" x="299.5" y="-617.3" font-family="Times,serif" font-size="14.00">0x8317700:</text>
<text text-anchor="start" x="299.5" y="-602.3" font-family="Times,serif" font-size="14.00"> if (v6 != 0):</text>
</g>
<!-- Node0x1519de80&#45;&gt;Node0x478ff200 -->
<g id="edge6" class="edge"><title>Node0x1519de80&#45;&gt;Node0x478ff200</title>
<path fill="none" stroke="black" d="M343.5,-670.353C343.5,-660.594 343.5,-651.073 343.5,-642.737"/>
<polygon fill="black" stroke="black" points="347,-642.54 343.5,-632.54 340,-642.54 347,-642.54"/>
</g>
<!-- Node0x383b1940 -->
<g id="node7" class="node"><title>Node0x383b1940</title>
<polygon fill="none" stroke="black" points="131.5,-459.5 131.5,-542.5 343.5,-542.5 343.5,-459.5 131.5,-459.5"/>
<text text-anchor="start" x="139.5" y="-527.3" font-family="Times,serif" font-size="14.00">0x8316d10:</text>
<text text-anchor="start" x="139.5" y="-512.3" font-family="Times,serif" font-size="14.00"> g30 = (g38 &#45; 7548)</text>
<text text-anchor="start" x="139.5" y="-497.3" font-family="Times,serif" font-size="14.00"> g36 = v7</text>
<text text-anchor="start" x="139.5" y="-482.3" font-family="Times,serif" font-size="14.00"> imported_function_ord_0()</text>
<text text-anchor="start" x="139.5" y="-467.3" font-family="Times,serif" font-size="14.00"> v8 = g39</text>
</g>
<!-- Node0x478ff200&#45;&gt;Node0x383b1940 -->
<g id="edge7" class="edge"><title>Node0x478ff200&#45;&gt;Node0x383b1940</title>
<path fill="none" stroke="black" d="M325.996,-594.253C314.475,-582.242 298.811,-565.914 283.863,-550.331"/>
<polygon fill="black" stroke="black" points="286.052,-547.557 276.604,-542.764 281,-552.403 286.052,-547.557"/>
<text text-anchor="middle" x="333.5" y="-564.8" font-family="Times,serif" font-size="14.00">v6 != 0</text>
</g>
<!-- Node0x47900a10 -->
<g id="node8" class="node"><title>Node0x47900a10</title>
<polygon fill="none" stroke="black" points="216.5,-278.5 216.5,-421.5 458.5,-421.5 458.5,-278.5 216.5,-278.5"/>
<text text-anchor="start" x="224.5" y="-406.3" font-family="Times,serif" font-size="14.00">0x8317880:</text>
<text text-anchor="start" x="224.5" y="-391.3" font-family="Times,serif" font-size="14.00"> g29 = v8</text>
<text text-anchor="start" x="224.5" y="-376.3" font-family="Times,serif" font-size="14.00"> g38 = v1</text>
<text text-anchor="start" x="224.5" y="-361.3" font-family="Times,serif" font-size="14.00"> g39 = v2</text>
<text text-anchor="start" x="224.5" y="-346.3" font-family="Times,serif" font-size="14.00"> g40 = v3</text>
<text text-anchor="start" x="224.5" y="-331.3" font-family="Times,serif" font-size="14.00"> v9</text>
<text text-anchor="start" x="224.5" y="-316.3" font-family="Times,serif" font-size="14.00"> g34 = v9</text>
<text text-anchor="start" x="224.5" y="-301.3" font-family="Times,serif" font-size="14.00"> IntToPtrCastExpr&lt;ptr&gt;(g35)()</text>
<text text-anchor="start" x="224.5" y="-286.3" font-family="Times,serif" font-size="14.00"> v10 = g29</text>
</g>
<!-- Node0x478ff200&#45;&gt;Node0x47900a10 -->
<g id="edge8" class="edge"><title>Node0x478ff200&#45;&gt;Node0x47900a10</title>
<path fill="none" stroke="black" d="M356.396,-594.38C359.702,-588.755 362.802,-582.357 364.5,-576 366.221,-569.559 364.89,-567.655 364.5,-561 361.992,-518.22 356.169,-470.852 350.57,-431.947"/>
<polygon fill="black" stroke="black" points="353.986,-431.119 349.077,-421.73 347.06,-432.131 353.986,-431.119"/>
<text text-anchor="middle" x="393.5" y="-497.3" font-family="Times,serif" font-size="14.00">v6 == 0</text>
</g>
<!-- Node0x383b1940&#45;&gt;Node0x47900a10 -->
<g id="edge9" class="edge"><title>Node0x383b1940&#45;&gt;Node0x47900a10</title>
<path fill="none" stroke="black" d="M264.825,-459.285C270.925,-450.197 277.595,-440.259 284.342,-430.206"/>
<polygon fill="black" stroke="black" points="287.35,-432.004 290.017,-421.75 281.538,-428.103 287.35,-432.004"/>
</g>
<!-- Node0x478fd410 -->
<g id="node9" class="node"><title>Node0x478fd410</title>
<polygon fill="none" stroke="black" points="287,-202.5 287,-240.5 388,-240.5 388,-202.5 287,-202.5"/>
<text text-anchor="start" x="295" y="-225.3" font-family="Times,serif" font-size="14.00">0x8319500:</text>
<text text-anchor="start" x="295" y="-210.3" font-family="Times,serif" font-size="14.00"> if g9:</text>
</g>
<!-- Node0x47900a10&#45;&gt;Node0x478fd410 -->
<g id="edge10" class="edge"><title>Node0x47900a10&#45;&gt;Node0x478fd410</title>
<path fill="none" stroke="black" d="M337.5,-278.353C337.5,-268.594 337.5,-259.073 337.5,-250.737"/>
<polygon fill="black" stroke="black" points="341,-250.54 337.5,-240.54 334,-250.54 341,-250.54"/>
</g>
<!-- Node0x383b2330 -->
<g id="node10" class="node"><title>Node0x383b2330</title>
<polygon fill="none" stroke="black" points="0,-97.5 0,-150.5 355,-150.5 355,-97.5 0,-97.5"/>
<text text-anchor="start" x="8" y="-135.3" font-family="Times,serif" font-size="14.00">0x8318c90:</text>
<text text-anchor="start" x="8" y="-120.3" font-family="Times,serif" font-size="14.00"> g36 = (g30 &amp; ((v10 / 4194304) | (1024 * v10)))</text>
<text text-anchor="start" x="8" y="-105.3" font-family="Times,serif" font-size="14.00"> g29 = ((g42 / 2) &amp; v10)</text>
</g>
<!-- Node0x478fd410&#45;&gt;Node0x383b2330 -->
<g id="edge11" class="edge"><title>Node0x478fd410&#45;&gt;Node0x383b2330</title>
<path fill="none" stroke="black" d="M307.029,-202.312C285.049,-189.193 254.845,-171.166 229.133,-155.819"/>
<polygon fill="black" stroke="black" points="230.627,-152.634 220.246,-150.514 227.039,-158.645 230.627,-152.634"/>
<text text-anchor="middle" x="282" y="-172.8" font-family="Times,serif" font-size="14.00">g9</text>
</g>
<!-- Node0x383b4cc0 -->
<g id="node11" class="node"><title>Node0x383b4cc0</title>
<polygon fill="none" stroke="black" points="304.5,-23.5 304.5,-59.5 358.5,-59.5 358.5,-23.5 304.5,-23.5"/>
<text text-anchor="start" x="312.5" y="-37.8" font-family="Times,serif" font-size="14.00">exit:</text>
</g>
<!-- Node0x478fd410&#45;&gt;Node0x383b4cc0 -->
<g id="edge12" class="edge"><title>Node0x478fd410&#45;&gt;Node0x383b4cc0</title>
<path fill="none" stroke="black" d="M346.683,-202.345C357.716,-178.126 373.56,-134.001 363.5,-97 360.765,-86.9415 355.654,-76.8431 350.306,-68.1195"/>
<polygon fill="black" stroke="black" points="353.133,-66.0474 344.737,-59.5856 347.271,-69.873 353.133,-66.0474"/>
<text text-anchor="middle" x="396" y="-120.3" font-family="Times,serif" font-size="14.00">not (g9)</text>
</g>
<!-- Node0x383b2330&#45;&gt;Node0x383b4cc0 -->
<g id="edge13" class="edge"><title>Node0x383b2330&#45;&gt;Node0x383b4cc0</title>
<path fill="none" stroke="black" d="M226.65,-97.308C248.94,-85.6565 274.828,-72.124 295.303,-61.421"/>
<polygon fill="black" stroke="black" points="297.057,-64.4539 304.298,-56.7195 293.814,-58.2503 297.057,-64.4539"/>
</g>
</g>
</svg>
