<?xml version="1.0" encoding="UTF-8" standalone="no"?>
<!DOCTYPE svg PUBLIC "-//W3C//DTD SVG 1.1//EN"
 "http://www.w3.org/Graphics/SVG/1.1/DTD/svg11.dtd">
<!-- Generated by graphviz version 2.38.0 (20140413.2041)
 -->
<!-- Title: Control&#45;flow graph for function &#39;function_39e4()&#39;. Pages: 1 -->
<svg width="566pt" height="1590pt"
 viewBox="0.00 0.00 566.00 1590.00" xmlns="http://www.w3.org/2000/svg" xmlns:xlink="http://www.w3.org/1999/xlink">
<g id="graph0" class="graph" transform="scale(1 1) rotate(0) translate(4 1586)">
<title>Control&#45;flow graph for function &#39;function_39e4()&#39;.</title>
<polygon fill="white" stroke="none" points="-4,4 -4,-1586 562,-1586 562,4 -4,4"/>
<text text-anchor="middle" x="279" y="-7.8" font-family="Times,serif" font-size="14.00">Control&#45;flow graph for function &#39;function_39e4()&#39;.</text>
<!-- Node0x43783f30 -->
<g id="node1" class="node"><title>Node0x43783f30</title>
<polygon fill="none" stroke="black" points="281.5,-1545.5 281.5,-1581.5 340.5,-1581.5 340.5,-1545.5 281.5,-1545.5"/>
<text text-anchor="start" x="289.5" y="-1559.8" font-family="Times,serif" font-size="14.00">entry:</text>
</g>
<!-- Node0x3eed5830 -->
<g id="node2" class="node"><title>Node0x3eed5830</title>
<polygon fill="none" stroke="black" points="137.5,-1379.5 137.5,-1507.5 484.5,-1507.5 484.5,-1379.5 137.5,-1379.5"/>
<text text-anchor="start" x="145.5" y="-1492.3" font-family="Times,serif" font-size="14.00">0x17949510:</text>
<text text-anchor="start" x="145.5" y="-1477.3" font-family="Times,serif" font-size="14.00"> v1 = *(IntToPtrCastExpr&lt;ptr&gt;((g29 + 608)))</text>
<text text-anchor="start" x="145.5" y="-1462.3" font-family="Times,serif" font-size="14.00"> g37 = v1</text>
<text text-anchor="start" x="145.5" y="-1447.3" font-family="Times,serif" font-size="14.00"> g6 = True</text>
<text text-anchor="start" x="145.5" y="-1432.3" font-family="Times,serif" font-size="14.00"> g8 = False</text>
<text text-anchor="start" x="145.5" y="-1417.3" font-family="Times,serif" font-size="14.00"> g7 = (v1 &lt; 0)</text>
<text text-anchor="start" x="145.5" y="-1402.3" font-family="Times,serif" font-size="14.00"> g9 = (v1 == 0)</text>
<text text-anchor="start" x="145.5" y="-1387.3" font-family="Times,serif" font-size="14.00"> g33 = 165012</text>
</g>
<!-- Node0x43783f30&#45;&gt;Node0x3eed5830 -->
<g id="edge1" class="edge"><title>Node0x43783f30&#45;&gt;Node0x3eed5830</title>
<path fill="none" stroke="black" d="M311,-1545.34C311,-1537.72 311,-1528.18 311,-1518.02"/>
<polygon fill="black" stroke="black" points="314.5,-1517.71 311,-1507.71 307.5,-1517.71 314.5,-1517.71"/>
</g>
<!-- Node0x43786bc0 -->
<g id="node3" class="node"><title>Node0x43786bc0</title>
<polygon fill="none" stroke="black" points="259,-1303.5 259,-1341.5 363,-1341.5 363,-1303.5 259,-1303.5"/>
<text text-anchor="start" x="267" y="-1326.3" font-family="Times,serif" font-size="14.00">0x50db200:</text>
<text text-anchor="start" x="267" y="-1311.3" font-family="Times,serif" font-size="14.00"> if (v1 != 0):</text>
</g>
<!-- Node0x3eed5830&#45;&gt;Node0x43786bc0 -->
<g id="edge2" class="edge"><title>Node0x3eed5830&#45;&gt;Node0x43786bc0</title>
<path fill="none" stroke="black" d="M311,-1379.17C311,-1369.6 311,-1360.16 311,-1351.85"/>
<polygon fill="black" stroke="black" points="314.5,-1351.66 311,-1341.66 307.5,-1351.66 314.5,-1351.66"/>
</g>
<!-- Node0x24658450 -->
<g id="node4" class="node"><title>Node0x24658450</title>
<polygon fill="none" stroke="black" points="208.5,-1213.5 208.5,-1251.5 309.5,-1251.5 309.5,-1213.5 208.5,-1213.5"/>
<text text-anchor="start" x="216.5" y="-1236.3" font-family="Times,serif" font-size="14.00">0x50db060:</text>
<text text-anchor="start" x="216.5" y="-1221.3" font-family="Times,serif" font-size="14.00"> g29 = 0</text>
</g>
<!-- Node0x43786bc0&#45;&gt;Node0x24658450 -->
<g id="edge3" class="edge"><title>Node0x43786bc0&#45;&gt;Node0x24658450</title>
<path fill="none" stroke="black" d="M292.046,-1303.28C287.008,-1297.75 281.893,-1291.43 278,-1285 273.628,-1277.78 270.007,-1269.39 267.14,-1261.5"/>
<polygon fill="black" stroke="black" points="270.419,-1260.27 263.913,-1251.91 263.784,-1262.5 270.419,-1260.27"/>
<text text-anchor="middle" x="305" y="-1273.8" font-family="Times,serif" font-size="14.00">v1 != 0</text>
</g>
<!-- Node0x3eed2a80 -->
<g id="node5" class="node"><title>Node0x3eed2a80</title>
<polygon fill="none" stroke="black" points="96.5,-1002.5 96.5,-1175.5 539.5,-1175.5 539.5,-1002.5 96.5,-1002.5"/>
<text text-anchor="start" x="104.5" y="-1160.3" font-family="Times,serif" font-size="14.00">0x46d26260:</text>
<text text-anchor="start" x="104.5" y="-1145.3" font-family="Times,serif" font-size="14.00"> v2</text>
<text text-anchor="start" x="104.5" y="-1130.3" font-family="Times,serif" font-size="14.00"> g34 = v2</text>
<text text-anchor="start" x="104.5" y="-1115.3" font-family="Times,serif" font-size="14.00"> IntToPtrCastExpr&lt;ptr&gt;(ExtCastExpr&lt;int32&gt;((v1 != 0)))()</text>
<text text-anchor="start" x="104.5" y="-1100.3" font-family="Times,serif" font-size="14.00"> v3 = *(IntToPtrCastExpr&lt;ptr&gt;((g38 + 8)))</text>
<text text-anchor="start" x="104.5" y="-1085.3" font-family="Times,serif" font-size="14.00"> v4 = v3</text>
<text text-anchor="start" x="104.5" y="-1070.3" font-family="Times,serif" font-size="14.00"> g37 = v4</text>
<text text-anchor="start" x="104.5" y="-1055.3" font-family="Times,serif" font-size="14.00"> g6 = (v3 &gt; 4)</text>
<text text-anchor="start" x="104.5" y="-1040.3" font-family="Times,serif" font-size="14.00"> g8 = (((4 &#45; v4) &amp; v4) &lt; 0)</text>
<text text-anchor="start" x="104.5" y="-1025.3" font-family="Times,serif" font-size="14.00"> g7 = (v4 &lt; 5)</text>
<text text-anchor="start" x="104.5" y="-1010.3" font-family="Times,serif" font-size="14.00"> g9 = (v3 == 5)</text>
</g>
<!-- Node0x43786bc0&#45;&gt;Node0x3eed2a80 -->
<g id="edge4" class="edge"><title>Node0x43786bc0&#45;&gt;Node0x3eed2a80</title>
<path fill="none" stroke="black" d="M323.896,-1303.38C327.202,-1297.76 330.302,-1291.36 332,-1285 333.721,-1278.56 332.259,-1276.66 332,-1270 330.938,-1242.64 328.971,-1213 326.84,-1185.82"/>
<polygon fill="black" stroke="black" points="330.303,-1185.22 326.017,-1175.53 323.326,-1185.78 330.303,-1185.22"/>
<text text-anchor="middle" x="362" y="-1228.8" font-family="Times,serif" font-size="14.00">v1 == 0</text>
</g>
<!-- Node0x24658450&#45;&gt;Node0x3eed2a80 -->
<g id="edge5" class="edge"><title>Node0x24658450&#45;&gt;Node0x3eed2a80</title>
<path fill="none" stroke="black" d="M266.592,-1213.29C269.842,-1205.5 273.904,-1195.75 278.313,-1185.18"/>
<polygon fill="black" stroke="black" points="281.646,-1186.28 282.264,-1175.71 275.185,-1183.59 281.646,-1186.28"/>
</g>
<!-- Node0x3ef684a0 -->
<g id="node6" class="node"><title>Node0x3ef684a0</title>
<polygon fill="none" stroke="black" points="267.5,-926.5 267.5,-964.5 368.5,-964.5 368.5,-926.5 267.5,-926.5"/>
<text text-anchor="start" x="275.5" y="-949.3" font-family="Times,serif" font-size="14.00">0x50ddcb0:</text>
<text text-anchor="start" x="275.5" y="-934.3" font-family="Times,serif" font-size="14.00"> if (v3 &lt; 6):</text>
</g>
<!-- Node0x3eed2a80&#45;&gt;Node0x3ef684a0 -->
<g id="edge6" class="edge"><title>Node0x3eed2a80&#45;&gt;Node0x3ef684a0</title>
<path fill="none" stroke="black" d="M318,-1002.42C318,-992.55 318,-983.079 318,-974.829"/>
<polygon fill="black" stroke="black" points="321.5,-974.754 318,-964.754 314.5,-974.754 321.5,-974.754"/>
</g>
<!-- Node0x24655c40 -->
<g id="node7" class="node"><title>Node0x24655c40</title>
<polygon fill="none" stroke="black" points="212.5,-836.5 212.5,-874.5 313.5,-874.5 313.5,-836.5 212.5,-836.5"/>
<text text-anchor="start" x="220.5" y="-859.3" font-family="Times,serif" font-size="14.00">0x50dd990:</text>
<text text-anchor="start" x="220.5" y="-844.3" font-family="Times,serif" font-size="14.00"> g29 = &#45;19</text>
</g>
<!-- Node0x3ef684a0&#45;&gt;Node0x24655c40 -->
<g id="edge7" class="edge"><title>Node0x3ef684a0&#45;&gt;Node0x24655c40</title>
<path fill="none" stroke="black" d="M301.541,-926.202C296.874,-920.572 291.983,-914.215 288,-908 283.196,-900.504 278.693,-891.949 274.869,-883.993"/>
<polygon fill="black" stroke="black" points="277.943,-882.301 270.565,-874.697 271.59,-885.242 277.943,-882.301"/>
<text text-anchor="middle" x="312" y="-896.8" font-family="Times,serif" font-size="14.00">v3 &lt; 6</text>
</g>
<!-- Node0x3eed2c40 -->
<g id="node8" class="node"><title>Node0x3eed2c40</title>
<polygon fill="none" stroke="black" points="103.5,-580.5 103.5,-798.5 540.5,-798.5 540.5,-580.5 103.5,-580.5"/>
<text text-anchor="start" x="111.5" y="-783.3" font-family="Times,serif" font-size="14.00">0x178dfe50:</text>
<text text-anchor="start" x="111.5" y="-768.3" font-family="Times,serif" font-size="14.00"> v5 = g34</text>
<text text-anchor="start" x="111.5" y="-753.3" font-family="Times,serif" font-size="14.00"> g38 = *(IntToPtrCastExpr&lt;ptr&gt;((v5 + 4)))</text>
<text text-anchor="start" x="111.5" y="-738.3" font-family="Times,serif" font-size="14.00"> g32 = *(IntToPtrCastExpr&lt;ptr&gt;((v5 + 8)))</text>
<text text-anchor="start" x="111.5" y="-723.3" font-family="Times,serif" font-size="14.00"> g34 = *(IntToPtrCastExpr&lt;ptr&gt;((v5 + 12)))</text>
<text text-anchor="start" x="111.5" y="-708.3" font-family="Times,serif" font-size="14.00"> IntToPtrCastExpr&lt;ptr&gt;(ExtCastExpr&lt;int32&gt;((v3 &lt; 6)))()</text>
<text text-anchor="start" x="111.5" y="-693.3" font-family="Times,serif" font-size="14.00"> g30 = 116</text>
<text text-anchor="start" x="111.5" y="-678.3" font-family="Times,serif" font-size="14.00"> g36 = (g33 &#45; 11472)</text>
<text text-anchor="start" x="111.5" y="-663.3" font-family="Times,serif" font-size="14.00"> function_38f4()</text>
<text text-anchor="start" x="111.5" y="-648.3" font-family="Times,serif" font-size="14.00"> v6 = g29</text>
<text text-anchor="start" x="111.5" y="-633.3" font-family="Times,serif" font-size="14.00"> g6 = True</text>
<text text-anchor="start" x="111.5" y="-618.3" font-family="Times,serif" font-size="14.00"> g8 = False</text>
<text text-anchor="start" x="111.5" y="-603.3" font-family="Times,serif" font-size="14.00"> g7 = (v6 &lt; 0)</text>
<text text-anchor="start" x="111.5" y="-588.3" font-family="Times,serif" font-size="14.00"> g9 = (v6 == 0)</text>
</g>
<!-- Node0x3ef684a0&#45;&gt;Node0x3eed2c40 -->
<g id="edge8" class="edge"><title>Node0x3ef684a0&#45;&gt;Node0x3eed2c40</title>
<path fill="none" stroke="black" d="M329.069,-926.173C331.903,-920.543 334.556,-914.193 336,-908 337.514,-901.507 336.23,-899.663 336,-893 335.058,-865.711 333.403,-836.39 331.554,-808.767"/>
<polygon fill="black" stroke="black" points="335.038,-808.412 330.865,-798.674 328.055,-808.889 335.038,-808.412"/>
<text text-anchor="middle" x="366" y="-851.8" font-family="Times,serif" font-size="14.00">v3 &gt;= 6</text>
</g>
<!-- Node0x24655c40&#45;&gt;Node0x3eed2c40 -->
<g id="edge9" class="edge"><title>Node0x24655c40&#45;&gt;Node0x3eed2c40</title>
<path fill="none" stroke="black" d="M269.539,-836.323C272.301,-828.647 275.765,-819.018 279.589,-808.387"/>
<polygon fill="black" stroke="black" points="282.943,-809.405 283.035,-798.811 276.356,-807.036 282.943,-809.405"/>
</g>
<!-- Node0x3eed48c0 -->
<g id="node9" class="node"><title>Node0x3eed48c0</title>
<polygon fill="none" stroke="black" points="271,-504.5 271,-542.5 373,-542.5 373,-504.5 271,-504.5"/>
<text text-anchor="start" x="279" y="-527.3" font-family="Times,serif" font-size="14.00">0x50e1ad0:</text>
<text text-anchor="start" x="279" y="-512.3" font-family="Times,serif" font-size="14.00"> if (v6 &gt; &#45;1):</text>
</g>
<!-- Node0x3eed2c40&#45;&gt;Node0x3eed48c0 -->
<g id="edge10" class="edge"><title>Node0x3eed2c40&#45;&gt;Node0x3eed48c0</title>
<path fill="none" stroke="black" d="M322,-580.481C322,-570.585 322,-561.254 322,-553.151"/>
<polygon fill="black" stroke="black" points="325.5,-552.925 322,-542.925 318.5,-552.925 325.5,-552.925"/>
</g>
<!-- Node0x241501d0 -->
<g id="node10" class="node"><title>Node0x241501d0</title>
<polygon fill="none" stroke="black" points="0,-399.5 0,-452.5 338,-452.5 338,-399.5 0,-399.5"/>
<text text-anchor="start" x="8" y="-437.3" font-family="Times,serif" font-size="14.00">0x50e0e20:</text>
<text text-anchor="start" x="8" y="-422.3" font-family="Times,serif" font-size="14.00"> g37 = 1</text>
<text text-anchor="start" x="8" y="-407.3" font-family="Times,serif" font-size="14.00"> *(IntToPtrCastExpr&lt;ptr&gt;((g38 + 608))) = 1</text>
</g>
<!-- Node0x3eed48c0&#45;&gt;Node0x241501d0 -->
<g id="edge11" class="edge"><title>Node0x3eed48c0&#45;&gt;Node0x241501d0</title>
<path fill="none" stroke="black" d="M292.862,-504.312C271.844,-491.193 242.962,-473.166 218.374,-457.819"/>
<polygon fill="black" stroke="black" points="220.213,-454.84 209.876,-452.514 216.506,-460.778 220.213,-454.84"/>
<text text-anchor="middle" x="286" y="-474.8" font-family="Times,serif" font-size="14.00">v6 &gt; &#45;1</text>
</g>
<!-- Node0x3eed18d0 -->
<g id="node11" class="node"><title>Node0x3eed18d0</title>
<polygon fill="none" stroke="black" points="74,-263.5 74,-361.5 558,-361.5 558,-263.5 74,-263.5"/>
<text text-anchor="start" x="82" y="-346.3" font-family="Times,serif" font-size="14.00">0x178df810:</text>
<text text-anchor="start" x="82" y="-331.3" font-family="Times,serif" font-size="14.00"> v7 = g34</text>
<text text-anchor="start" x="82" y="-316.3" font-family="Times,serif" font-size="14.00"> g38 = *(IntToPtrCastExpr&lt;ptr&gt;((v7 + 4)))</text>
<text text-anchor="start" x="82" y="-301.3" font-family="Times,serif" font-size="14.00"> g32 = *(IntToPtrCastExpr&lt;ptr&gt;((v7 + 8)))</text>
<text text-anchor="start" x="82" y="-286.3" font-family="Times,serif" font-size="14.00"> g34 = *(IntToPtrCastExpr&lt;ptr&gt;((v7 + 12)))</text>
<text text-anchor="start" x="82" y="-271.3" font-family="Times,serif" font-size="14.00"> IntToPtrCastExpr&lt;ptr&gt;(*(IntToPtrCastExpr&lt;ptr&gt;((v7 + 16))))()</text>
</g>
<!-- Node0x3eed48c0&#45;&gt;Node0x3eed18d0 -->
<g id="edge12" class="edge"><title>Node0x3eed48c0&#45;&gt;Node0x3eed18d0</title>
<path fill="none" stroke="black" d="M330.471,-504.389C336.418,-490.633 343.85,-471.064 347,-453 351.123,-429.357 351.153,-422.638 347,-399 345.395,-389.864 342.894,-380.418 339.993,-371.286"/>
<polygon fill="black" stroke="black" points="343.216,-369.891 336.711,-361.529 336.581,-372.123 343.216,-369.891"/>
<text text-anchor="middle" x="382" y="-422.3" font-family="Times,serif" font-size="14.00">v6 &lt;= &#45;1</text>
</g>
<!-- Node0x241501d0&#45;&gt;Node0x3eed18d0 -->
<g id="edge13" class="edge"><title>Node0x241501d0&#45;&gt;Node0x3eed18d0</title>
<path fill="none" stroke="black" d="M202.725,-399.42C215.241,-389.926 229.959,-378.763 244.568,-367.682"/>
<polygon fill="black" stroke="black" points="246.806,-370.377 252.658,-361.545 242.576,-364.8 246.806,-370.377"/>
</g>
<!-- Node0x3eed0b30 -->
<g id="node12" class="node"><title>Node0x3eed0b30</title>
<polygon fill="none" stroke="black" points="266,-187.5 266,-225.5 366,-225.5 366,-187.5 266,-187.5"/>
<text text-anchor="start" x="274" y="-210.3" font-family="Times,serif" font-size="14.00">0x50e45a0:</text>
<text text-anchor="start" x="274" y="-195.3" font-family="Times,serif" font-size="14.00"> if g9:</text>
</g>
<!-- Node0x3eed18d0&#45;&gt;Node0x3eed0b30 -->
<g id="edge14" class="edge"><title>Node0x3eed18d0&#45;&gt;Node0x3eed0b30</title>
<path fill="none" stroke="black" d="M316,-263.458C316,-253.952 316,-244.27 316,-235.69"/>
<polygon fill="black" stroke="black" points="319.5,-235.509 316,-225.509 312.5,-235.509 319.5,-235.509"/>
</g>
<!-- Node0x43788a00 -->
<g id="node13" class="node"><title>Node0x43788a00</title>
<polygon fill="none" stroke="black" points="74.5,-97.5 74.5,-135.5 319.5,-135.5 319.5,-97.5 74.5,-97.5"/>
<text text-anchor="start" x="82.5" y="-120.3" font-family="Times,serif" font-size="14.00">0x50e4330:</text>
<text text-anchor="start" x="82.5" y="-105.3" font-family="Times,serif" font-size="14.00"> g38 = (g36 &amp; (2097152 * g42))</text>
</g>
<!-- Node0x3eed0b30&#45;&gt;Node0x43788a00 -->
<g id="edge15" class="edge"><title>Node0x3eed0b30&#45;&gt;Node0x43788a00</title>
<path fill="none" stroke="black" d="M291.631,-187.48C273.782,-174.28 249.361,-156.22 229.798,-141.754"/>
<polygon fill="black" stroke="black" points="231.866,-138.93 221.745,-135.799 227.704,-144.559 231.866,-138.93"/>
<text text-anchor="middle" x="273.5" y="-157.8" font-family="Times,serif" font-size="14.00">g9</text>
</g>
<!-- Node0x43785960 -->
<g id="node14" class="node"><title>Node0x43785960</title>
<polygon fill="none" stroke="black" points="283,-23.5 283,-59.5 337,-59.5 337,-23.5 283,-23.5"/>
<text text-anchor="start" x="291" y="-37.8" font-family="Times,serif" font-size="14.00">exit:</text>
</g>
<!-- Node0x3eed0b30&#45;&gt;Node0x43785960 -->
<g id="edge16" class="edge"><title>Node0x3eed0b30&#45;&gt;Node0x43785960</title>
<path fill="none" stroke="black" d="M320.978,-187.38C326.228,-165.778 333.087,-128.622 328,-97 326.521,-87.8076 323.724,-78.0651 320.768,-69.3986"/>
<polygon fill="black" stroke="black" points="323.993,-68.025 317.294,-59.8167 317.412,-70.4109 323.993,-68.025"/>
<text text-anchor="middle" x="358.5" y="-112.8" font-family="Times,serif" font-size="14.00">not (g9)</text>
</g>
<!-- Node0x43788a00&#45;&gt;Node0x43785960 -->
<g id="edge17" class="edge"><title>Node0x43788a00&#45;&gt;Node0x43785960</title>
<path fill="none" stroke="black" d="M224.933,-97.4551C240.042,-87.694 258.851,-75.5433 274.937,-65.1512"/>
<polygon fill="black" stroke="black" points="277.053,-67.9513 283.553,-59.585 273.254,-62.0715 277.053,-67.9513"/>
</g>
</g>
</svg>
