<?xml version="1.0" encoding="UTF-8" standalone="no"?>
<!DOCTYPE svg PUBLIC "-//W3C//DTD SVG 1.1//EN"
 "http://www.w3.org/Graphics/SVG/1.1/DTD/svg11.dtd">
<!-- Generated by graphviz version 2.38.0 (20140413.2041)
 -->
<!-- Title: Control&#45;flow graph for function &#39;function_142f4()&#39;. Pages: 1 -->
<svg width="1298pt" height="2332pt"
 viewBox="0.00 0.00 1297.50 2332.00" xmlns="http://www.w3.org/2000/svg" xmlns:xlink="http://www.w3.org/1999/xlink">
<g id="graph0" class="graph" transform="scale(1 1) rotate(0) translate(4 2328)">
<title>Control&#45;flow graph for function &#39;function_142f4()&#39;.</title>
<polygon fill="white" stroke="none" points="-4,4 -4,-2328 1293.5,-2328 1293.5,4 -4,4"/>
<text text-anchor="middle" x="644.75" y="-7.8" font-family="Times,serif" font-size="14.00">Control&#45;flow graph for function &#39;function_142f4()&#39;.</text>
<!-- Node0xe7a6440 -->
<g id="node1" class="node"><title>Node0xe7a6440</title>
<polygon fill="none" stroke="black" points="278.5,-2287.5 278.5,-2323.5 337.5,-2323.5 337.5,-2287.5 278.5,-2287.5"/>
<text text-anchor="start" x="286.5" y="-2301.8" font-family="Times,serif" font-size="14.00">entry:</text>
</g>
<!-- Node0x32d8ad10 -->
<g id="node2" class="node"><title>Node0x32d8ad10</title>
<polygon fill="none" stroke="black" points="2.5,-1716.5 2.5,-2249.5 613.5,-2249.5 613.5,-1716.5 2.5,-1716.5"/>
<text text-anchor="start" x="10.5" y="-2234.3" font-family="Times,serif" font-size="14.00">0x447716f0:</text>
<text text-anchor="start" x="10.5" y="-2219.3" font-family="Times,serif" font-size="14.00"> v1 = g38</text>
<text text-anchor="start" x="10.5" y="-2204.3" font-family="Times,serif" font-size="14.00"> v2 = g39</text>
<text text-anchor="start" x="10.5" y="-2189.3" font-family="Times,serif" font-size="14.00"> v3 = g40</text>
<text text-anchor="start" x="10.5" y="-2174.3" font-family="Times,serif" font-size="14.00"> v4 = g41</text>
<text text-anchor="start" x="10.5" y="-2159.3" font-family="Times,serif" font-size="14.00"> v5 = g42</text>
<text text-anchor="start" x="10.5" y="-2144.3" font-family="Times,serif" font-size="14.00"> v6 = g32</text>
<text text-anchor="start" x="10.5" y="-2129.3" font-family="Times,serif" font-size="14.00"> v7 = g35</text>
<text text-anchor="start" x="10.5" y="-2114.3" font-family="Times,serif" font-size="14.00"> v8 = g30</text>
<text text-anchor="start" x="10.5" y="-2099.3" font-family="Times,serif" font-size="14.00"> g35 = (v8 &amp; 16711680)</text>
<text text-anchor="start" x="10.5" y="-2084.3" font-family="Times,serif" font-size="14.00"> g33 = llvm_bswap_i32(v8)</text>
<text text-anchor="start" x="10.5" y="-2069.3" font-family="Times,serif" font-size="14.00"> g40 = g36</text>
<text text-anchor="start" x="10.5" y="-2054.3" font-family="Times,serif" font-size="14.00"> v9 = g37</text>
<text text-anchor="start" x="10.5" y="-2039.3" font-family="Times,serif" font-size="14.00"> g41 = v9</text>
<text text-anchor="start" x="10.5" y="-2024.3" font-family="Times,serif" font-size="14.00"> g38 = *(IntToPtrCastExpr&lt;ptr&gt;(v9))</text>
<text text-anchor="start" x="10.5" y="-2009.3" font-family="Times,serif" font-size="14.00"> function_bdc8()</text>
<text text-anchor="start" x="10.5" y="-1994.3" font-family="Times,serif" font-size="14.00"> g36 = 192</text>
<text text-anchor="start" x="10.5" y="-1979.3" font-family="Times,serif" font-size="14.00"> function_1b7c()</text>
<text text-anchor="start" x="10.5" y="-1964.3" font-family="Times,serif" font-size="14.00"> v10 = IntToPtrCastExpr&lt;ptr&gt;(g41)</text>
<text text-anchor="start" x="10.5" y="-1949.3" font-family="Times,serif" font-size="14.00"> v11 = ((*(v10) + 16) &amp; &#45;16)</text>
<text text-anchor="start" x="10.5" y="-1934.3" font-family="Times,serif" font-size="14.00"> g36 = v11</text>
<text text-anchor="start" x="10.5" y="-1919.3" font-family="Times,serif" font-size="14.00"> *(v10) = v11</text>
<text text-anchor="start" x="10.5" y="-1904.3" font-family="Times,serif" font-size="14.00"> memset(IntToPtrCastExpr&lt;ptr&gt;((g40 + g38)), g10, (g36 &#45; g38))</text>
<text text-anchor="start" x="10.5" y="-1889.3" font-family="Times,serif" font-size="14.00"> v12 = *(IntToPtrCastExpr&lt;ptr&gt;(g41))</text>
<text text-anchor="start" x="10.5" y="-1874.3" font-family="Times,serif" font-size="14.00"> g30 = 16</text>
<text text-anchor="start" x="10.5" y="-1859.3" font-family="Times,serif" font-size="14.00"> g29 = 0</text>
<text text-anchor="start" x="10.5" y="-1844.3" font-family="Times,serif" font-size="14.00"> *(IntToPtrCastExpr&lt;ptr&gt;(((g40 + v12) &#45; 1))) = TruncCastExpr&lt;int8&gt;((v12 &#45; g38))</text>
<text text-anchor="start" x="10.5" y="-1829.3" font-family="Times,serif" font-size="14.00"> v13 = g41</text>
<text text-anchor="start" x="10.5" y="-1814.3" font-family="Times,serif" font-size="14.00"> v14 = g30</text>
<text text-anchor="start" x="10.5" y="-1799.3" font-family="Times,serif" font-size="14.00"> v15</text>
<text text-anchor="start" x="10.5" y="-1784.3" font-family="Times,serif" font-size="14.00"> v16</text>
<text text-anchor="start" x="10.5" y="-1769.3" font-family="Times,serif" font-size="14.00"> v17</text>
<text text-anchor="start" x="10.5" y="-1754.3" font-family="Times,serif" font-size="14.00"> v18</text>
<text text-anchor="start" x="10.5" y="-1739.3" font-family="Times,serif" font-size="14.00"> v19</text>
<text text-anchor="start" x="10.5" y="-1724.3" font-family="Times,serif" font-size="14.00"> v20</text>
</g>
<!-- Node0xe7a6440&#45;&gt;Node0x32d8ad10 -->
<g id="edge1" class="edge"><title>Node0xe7a6440&#45;&gt;Node0x32d8ad10</title>
<path fill="none" stroke="black" d="M308,-2287.27C308,-2280 308,-2270.71 308,-2259.91"/>
<polygon fill="black" stroke="black" points="311.5,-2259.6 308,-2249.6 304.5,-2259.6 311.5,-2259.6"/>
</g>
<!-- Node0xe7a6340 -->
<g id="node3" class="node"><title>Node0xe7a6340</title>
<polygon fill="none" stroke="black" points="139,-1640.5 139,-1678.5 477,-1678.5 477,-1640.5 139,-1640.5"/>
<text text-anchor="start" x="147" y="-1663.3" font-family="Times,serif" font-size="14.00">0x817a410:</text>
<text text-anchor="start" x="147" y="-1648.3" font-family="Times,serif" font-size="14.00"> if (v14 == *(IntToPtrCastExpr&lt;ptr&gt;(v13))):</text>
</g>
<!-- Node0x32d8ad10&#45;&gt;Node0xe7a6340 -->
<g id="edge2" class="edge"><title>Node0x32d8ad10&#45;&gt;Node0xe7a6340</title>
<path fill="none" stroke="black" d="M308,-1716.13C308,-1705.93 308,-1696.74 308,-1688.9"/>
<polygon fill="black" stroke="black" points="311.5,-1688.75 308,-1678.75 304.5,-1688.75 311.5,-1688.75"/>
</g>
<!-- Node0x1e2e2400 -->
<g id="node4" class="node"><title>Node0x1e2e2400</title>
<polygon fill="none" stroke="black" points="0,-1283.5 0,-1426.5 296,-1426.5 296,-1283.5 0,-1283.5"/>
<text text-anchor="start" x="8" y="-1411.3" font-family="Times,serif" font-size="14.00">0x817a870:</text>
<text text-anchor="start" x="8" y="-1396.3" font-family="Times,serif" font-size="14.00"> v18 = *(IntToPtrCastExpr&lt;ptr&gt;(v13))</text>
<text text-anchor="start" x="8" y="-1381.3" font-family="Times,serif" font-size="14.00"> g33 = v18</text>
<text text-anchor="start" x="8" y="-1366.3" font-family="Times,serif" font-size="14.00"> v19 = g40</text>
<text text-anchor="start" x="8" y="-1351.3" font-family="Times,serif" font-size="14.00"> g36 = v19</text>
<text text-anchor="start" x="8" y="-1336.3" font-family="Times,serif" font-size="14.00"> g6 = (v18 == 0)</text>
<text text-anchor="start" x="8" y="-1321.3" font-family="Times,serif" font-size="14.00"> g9 = (v18 == 0)</text>
<text text-anchor="start" x="8" y="-1306.3" font-family="Times,serif" font-size="14.00"> g37 = v19</text>
<text text-anchor="start" x="8" y="-1291.3" font-family="Times,serif" font-size="14.00"> g38 = 16</text>
</g>
<!-- Node0xe7a6340&#45;&gt;Node0x1e2e2400 -->
<g id="edge3" class="edge"><title>Node0xe7a6340&#45;&gt;Node0x1e2e2400</title>
<path fill="none" stroke="black" d="M187.207,-1640.44C169.94,-1635.55 155.986,-1629.47 150,-1622 108.91,-1570.73 112.873,-1494.29 124.504,-1436.5"/>
<polygon fill="black" stroke="black" points="127.939,-1437.17 126.592,-1426.66 121.091,-1435.72 127.939,-1437.17"/>
<text text-anchor="middle" x="294" y="-1610.8" font-family="Times,serif" font-size="14.00">v14 == *(IntToPtrCastExpr&lt;ptr&gt;(v13))</text>
</g>
<!-- Node0x4437fd70 -->
<g id="node5" class="node"><title>Node0x4437fd70</title>
<polygon fill="none" stroke="black" points="251,-1445.5 251,-1588.5 699,-1588.5 699,-1445.5 251,-1445.5"/>
<text text-anchor="start" x="259" y="-1573.3" font-family="Times,serif" font-size="14.00">0x1d264b90:</text>
<text text-anchor="start" x="259" y="-1558.3" font-family="Times,serif" font-size="14.00"> v21 = g40</text>
<text text-anchor="start" x="259" y="-1543.3" font-family="Times,serif" font-size="14.00"> v22 = IntToPtrCastExpr&lt;ptr&gt;((v21 + v14))</text>
<text text-anchor="start" x="259" y="-1528.3" font-family="Times,serif" font-size="14.00"> v23 = g29</text>
<text text-anchor="start" x="259" y="-1513.3" font-family="Times,serif" font-size="14.00"> g29 = (v23 + 1)</text>
<text text-anchor="start" x="259" y="-1498.3" font-family="Times,serif" font-size="14.00"> *(v22) = (*(IntToPtrCastExpr&lt;ptr&gt;((v23 + v21))) ^ *(v22))</text>
<text text-anchor="start" x="259" y="-1483.3" font-family="Times,serif" font-size="14.00"> v24 = (g30 + 1)</text>
<text text-anchor="start" x="259" y="-1468.3" font-family="Times,serif" font-size="14.00"> g30 = v24</text>
<text text-anchor="start" x="259" y="-1453.3" font-family="Times,serif" font-size="14.00"> v25 = g41</text>
</g>
<!-- Node0xe7a6340&#45;&gt;Node0x4437fd70 -->
<g id="edge4" class="edge"><title>Node0xe7a6340&#45;&gt;Node0x4437fd70</title>
<path fill="none" stroke="black" d="M414.749,-1640.46C424.749,-1635.64 434.084,-1629.6 442,-1622 449.05,-1615.24 454.599,-1606.97 458.966,-1598.09"/>
<polygon fill="black" stroke="black" points="462.295,-1599.22 463.101,-1588.65 455.883,-1596.41 462.295,-1599.22"/>
<text text-anchor="middle" x="595" y="-1610.8" font-family="Times,serif" font-size="14.00">v14 != *(IntToPtrCastExpr&lt;ptr&gt;(v13))</text>
</g>
<!-- Node0x38e878d0 -->
<g id="node6" class="node"><title>Node0x38e878d0</title>
<polygon fill="none" stroke="black" points="88.5,-955.5 88.5,-993.5 207.5,-993.5 207.5,-955.5 88.5,-955.5"/>
<text text-anchor="start" x="96.5" y="-978.3" font-family="Times,serif" font-size="14.00">0x817c500:</text>
<text text-anchor="start" x="96.5" y="-963.3" font-family="Times,serif" font-size="14.00"> if (v18 == 0):</text>
</g>
<!-- Node0x1e2e2400&#45;&gt;Node0x38e878d0 -->
<g id="edge5" class="edge"><title>Node0x1e2e2400&#45;&gt;Node0x38e878d0</title>
<path fill="none" stroke="black" d="M148,-1283.25C148,-1199.05 148,-1062.49 148,-1003.79"/>
<polygon fill="black" stroke="black" points="151.5,-1003.77 148,-993.767 144.5,-1003.77 151.5,-1003.77"/>
</g>
<!-- Node0x15430d90 -->
<g id="node7" class="node"><title>Node0x15430d90</title>
<polygon fill="none" stroke="black" points="297,-1226.5 297,-1264.5 657,-1264.5 657,-1226.5 297,-1226.5"/>
<text text-anchor="start" x="305" y="-1249.3" font-family="Times,serif" font-size="14.00">0x817a2b0:</text>
<text text-anchor="start" x="305" y="-1234.3" font-family="Times,serif" font-size="14.00"> while (v24 != *(IntToPtrCastExpr&lt;ptr&gt;(v25))):</text>
</g>
<!-- Node0x4437fd70&#45;&gt;Node0x15430d90 -->
<g id="edge6" class="edge"><title>Node0x4437fd70&#45;&gt;Node0x15430d90</title>
<path fill="none" stroke="black" d="M475.525,-1445.19C475.939,-1389.48 476.493,-1314.78 476.791,-1274.71"/>
<polygon fill="black" stroke="black" points="480.291,-1274.63 476.866,-1264.61 473.291,-1274.58 480.291,-1274.63"/>
</g>
<!-- Node0x38e82e10 -->
<g id="node8" class="node"><title>Node0x38e82e10</title>
<polygon fill="none" stroke="black" points="2.5,-538.5 2.5,-711.5 235.5,-711.5 235.5,-538.5 2.5,-538.5"/>
<text text-anchor="start" x="10.5" y="-696.3" font-family="Times,serif" font-size="14.00">0x817b780:</text>
<text text-anchor="start" x="10.5" y="-681.3" font-family="Times,serif" font-size="14.00"> g29 = 1</text>
<text text-anchor="start" x="10.5" y="-666.3" font-family="Times,serif" font-size="14.00"> g38 = v1</text>
<text text-anchor="start" x="10.5" y="-651.3" font-family="Times,serif" font-size="14.00"> g39 = v2</text>
<text text-anchor="start" x="10.5" y="-636.3" font-family="Times,serif" font-size="14.00"> g40 = v3</text>
<text text-anchor="start" x="10.5" y="-621.3" font-family="Times,serif" font-size="14.00"> g41 = v4</text>
<text text-anchor="start" x="10.5" y="-606.3" font-family="Times,serif" font-size="14.00"> g42 = v5</text>
<text text-anchor="start" x="10.5" y="-591.3" font-family="Times,serif" font-size="14.00"> g32 = v6</text>
<text text-anchor="start" x="10.5" y="-576.3" font-family="Times,serif" font-size="14.00"> g34 = v15</text>
<text text-anchor="start" x="10.5" y="-561.3" font-family="Times,serif" font-size="14.00"> IntToPtrCastExpr&lt;ptr&gt;(v7)()</text>
<text text-anchor="start" x="10.5" y="-546.3" font-family="Times,serif" font-size="14.00"> return</text>
</g>
<!-- Node0x38e878d0&#45;&gt;Node0x38e82e10 -->
<g id="edge7" class="edge"><title>Node0x38e878d0&#45;&gt;Node0x38e82e10</title>
<path fill="none" stroke="black" d="M131.211,-955.476C127.069,-949.95 123.193,-943.581 121,-937 97.9177,-867.733 98.662,-784.87 104.502,-722.1"/>
<polygon fill="black" stroke="black" points="108.019,-722.106 105.522,-711.809 101.053,-721.415 108.019,-722.106"/>
<text text-anchor="middle" x="155.5" y="-925.8" font-family="Times,serif" font-size="14.00">v18 == 0</text>
</g>
<!-- Node0x38e85030 -->
<g id="node9" class="node"><title>Node0x38e85030</title>
<polygon fill="none" stroke="black" points="193.5,-730.5 193.5,-903.5 490.5,-903.5 490.5,-730.5 193.5,-730.5"/>
<text text-anchor="start" x="201.5" y="-888.3" font-family="Times,serif" font-size="14.00">0x2ce5c7e0:</text>
<text text-anchor="start" x="201.5" y="-873.3" font-family="Times,serif" font-size="14.00"> function_2178()</text>
<text text-anchor="start" x="201.5" y="-858.3" font-family="Times,serif" font-size="14.00"> v16 = g38</text>
<text text-anchor="start" x="201.5" y="-843.3" font-family="Times,serif" font-size="14.00"> v17 = *(IntToPtrCastExpr&lt;ptr&gt;(g41))</text>
<text text-anchor="start" x="201.5" y="-828.3" font-family="Times,serif" font-size="14.00"> g33 = v17</text>
<text text-anchor="start" x="201.5" y="-813.3" font-family="Times,serif" font-size="14.00"> v20 = (g40 + v16)</text>
<text text-anchor="start" x="201.5" y="-798.3" font-family="Times,serif" font-size="14.00"> g36 = v20</text>
<text text-anchor="start" x="201.5" y="-783.3" font-family="Times,serif" font-size="14.00"> g6 = (v16 &gt;= v17)</text>
<text text-anchor="start" x="201.5" y="-768.3" font-family="Times,serif" font-size="14.00"> g9 = (v16 == v17)</text>
<text text-anchor="start" x="201.5" y="-753.3" font-family="Times,serif" font-size="14.00"> g37 = v20</text>
<text text-anchor="start" x="201.5" y="-738.3" font-family="Times,serif" font-size="14.00"> g38 = (v16 + 16)</text>
</g>
<!-- Node0x38e878d0&#45;&gt;Node0x38e85030 -->
<g id="edge8" class="edge"><title>Node0x38e878d0&#45;&gt;Node0x38e85030</title>
<path fill="none" stroke="black" d="M170.953,-955.335C178.321,-949.491 186.512,-942.981 194,-937 204.989,-928.223 216.424,-919.067 227.853,-909.902"/>
<polygon fill="black" stroke="black" points="230.149,-912.547 235.759,-903.56 225.768,-907.087 230.149,-912.547"/>
<text text-anchor="middle" x="242.5" y="-925.8" font-family="Times,serif" font-size="14.00">v18 != 0</text>
</g>
<!-- Node0x15430230 -->
<g id="node10" class="node"><title>Node0x15430230</title>
<polygon fill="none" stroke="black" points="176,-1031.5 176,-1174.5 624,-1174.5 624,-1031.5 176,-1031.5"/>
<text text-anchor="start" x="184" y="-1159.3" font-family="Times,serif" font-size="14.00">0x3552a2b0:</text>
<text text-anchor="start" x="184" y="-1144.3" font-family="Times,serif" font-size="14.00"> v21 = g40</text>
<text text-anchor="start" x="184" y="-1129.3" font-family="Times,serif" font-size="14.00"> v22 = IntToPtrCastExpr&lt;ptr&gt;((v21 + v24))</text>
<text text-anchor="start" x="184" y="-1114.3" font-family="Times,serif" font-size="14.00"> v23 = g29</text>
<text text-anchor="start" x="184" y="-1099.3" font-family="Times,serif" font-size="14.00"> g29 = (v23 + 1)</text>
<text text-anchor="start" x="184" y="-1084.3" font-family="Times,serif" font-size="14.00"> *(v22) = (*(IntToPtrCastExpr&lt;ptr&gt;((v23 + v21))) ^ *(v22))</text>
<text text-anchor="start" x="184" y="-1069.3" font-family="Times,serif" font-size="14.00"> v24 = (g30 + 1)</text>
<text text-anchor="start" x="184" y="-1054.3" font-family="Times,serif" font-size="14.00"> g30 = v24</text>
<text text-anchor="start" x="184" y="-1039.3" font-family="Times,serif" font-size="14.00"> v25 = g41</text>
</g>
<!-- Node0x15430d90&#45;&gt;Node0x15430230 -->
<g id="edge9" class="edge"><title>Node0x15430d90&#45;&gt;Node0x15430230</title>
<path fill="none" stroke="black" d="M327.893,-1226.48C310.822,-1221.68 297.273,-1215.62 291,-1208 284.384,-1199.96 282.461,-1191.9 283.933,-1184.03"/>
<polygon fill="black" stroke="black" points="287.257,-1185.13 287.325,-1174.54 280.665,-1182.78 287.257,-1185.13"/>
<text text-anchor="middle" x="432" y="-1196.8" font-family="Times,serif" font-size="14.00">v24 != *(IntToPtrCastExpr&lt;ptr&gt;(v25))</text>
</g>
<!-- Node0xe7a29d0 -->
<g id="node11" class="node"><title>Node0xe7a29d0</title>
<polygon fill="none" stroke="black" points="642,-1031.5 642,-1174.5 938,-1174.5 938,-1031.5 642,-1031.5"/>
<text text-anchor="start" x="650" y="-1159.3" font-family="Times,serif" font-size="14.00">0x8175190:</text>
<text text-anchor="start" x="650" y="-1144.3" font-family="Times,serif" font-size="14.00"> v18 = *(IntToPtrCastExpr&lt;ptr&gt;(v25))</text>
<text text-anchor="start" x="650" y="-1129.3" font-family="Times,serif" font-size="14.00"> g33 = v18</text>
<text text-anchor="start" x="650" y="-1114.3" font-family="Times,serif" font-size="14.00"> v19 = g40</text>
<text text-anchor="start" x="650" y="-1099.3" font-family="Times,serif" font-size="14.00"> g36 = v19</text>
<text text-anchor="start" x="650" y="-1084.3" font-family="Times,serif" font-size="14.00"> g6 = (v18 == 0)</text>
<text text-anchor="start" x="650" y="-1069.3" font-family="Times,serif" font-size="14.00"> g9 = (v18 == 0)</text>
<text text-anchor="start" x="650" y="-1054.3" font-family="Times,serif" font-size="14.00"> g37 = v19</text>
<text text-anchor="start" x="650" y="-1039.3" font-family="Times,serif" font-size="14.00"> g38 = 16</text>
</g>
<!-- Node0x15430d90&#45;&gt;Node0xe7a29d0 -->
<g id="edge10" class="edge"><title>Node0x15430d90&#45;&gt;Node0xe7a29d0</title>
<path fill="none" stroke="black" d="M538.4,-1226.48C555.02,-1221.06 572.869,-1214.75 589,-1208 609.681,-1199.35 631.127,-1189.39 651.971,-1179.13"/>
<polygon fill="black" stroke="black" points="653.779,-1182.14 661.181,-1174.56 650.667,-1175.87 653.779,-1182.14"/>
<text text-anchor="middle" x="767" y="-1196.8" font-family="Times,serif" font-size="14.00">v24 == *(IntToPtrCastExpr&lt;ptr&gt;(v25))</text>
</g>
<!-- Node0xe7a5910 -->
<g id="node12" class="node"><title>Node0xe7a5910</title>
<polygon fill="none" stroke="black" points="643,-23.5 643,-59.5 697,-59.5 697,-23.5 643,-23.5"/>
<text text-anchor="start" x="651" y="-37.8" font-family="Times,serif" font-size="14.00">exit:</text>
</g>
<!-- Node0x38e82e10&#45;&gt;Node0xe7a5910 -->
<g id="edge11" class="edge"><title>Node0x38e82e10&#45;&gt;Node0xe7a5910</title>
<path fill="none" stroke="black" d="M89.5141,-538.492C55.5545,-422.546 17.4365,-216.278 127,-97 161.184,-59.7852 515.499,-46.7474 632.637,-43.4356"/>
<polygon fill="black" stroke="black" points="632.997,-46.9271 642.897,-43.1534 632.805,-39.9297 632.997,-46.9271"/>
</g>
<!-- Node0x154304d0 -->
<g id="node13" class="node"><title>Node0x154304d0</title>
<polygon fill="none" stroke="black" points="270,-481.5 270,-519.5 422,-519.5 422,-481.5 270,-481.5"/>
<text text-anchor="start" x="278" y="-504.3" font-family="Times,serif" font-size="14.00">0x817f2d0:</text>
<text text-anchor="start" x="278" y="-489.3" font-family="Times,serif" font-size="14.00"> while (v16 &lt; v17):</text>
</g>
<!-- Node0x38e85030&#45;&gt;Node0x154304d0 -->
<g id="edge12" class="edge"><title>Node0x38e85030&#45;&gt;Node0x154304d0</title>
<path fill="none" stroke="black" d="M343.088,-730.477C343.938,-663.598 345.069,-574.688 345.639,-529.88"/>
<polygon fill="black" stroke="black" points="349.141,-529.777 345.768,-519.733 342.141,-529.688 349.141,-529.777"/>
</g>
<!-- Node0x15430230&#45;&gt;Node0x15430d90 -->
<g id="edge13" class="edge"><title>Node0x15430230&#45;&gt;Node0x15430d90</title>
<path fill="none" stroke="black" d="M559.347,-1174.87C564.443,-1180.48 569.042,-1186.51 573,-1193 580.293,-1204.95 575.339,-1214.3 564.613,-1221.55"/>
<polygon fill="black" stroke="black" points="562.875,-1218.51 555.874,-1226.46 566.306,-1224.61 562.875,-1218.51"/>
</g>
<!-- Node0x1e2e58e0 -->
<g id="node14" class="node"><title>Node0x1e2e58e0</title>
<polygon fill="none" stroke="black" points="730.5,-955.5 730.5,-993.5 849.5,-993.5 849.5,-955.5 730.5,-955.5"/>
<text text-anchor="start" x="738.5" y="-978.3" font-family="Times,serif" font-size="14.00">0x8177040:</text>
<text text-anchor="start" x="738.5" y="-963.3" font-family="Times,serif" font-size="14.00"> if (v18 == 0):</text>
</g>
<!-- Node0xe7a29d0&#45;&gt;Node0x1e2e58e0 -->
<g id="edge14" class="edge"><title>Node0xe7a29d0&#45;&gt;Node0x1e2e58e0</title>
<path fill="none" stroke="black" d="M790,-1031.35C790,-1021.59 790,-1012.07 790,-1003.74"/>
<polygon fill="black" stroke="black" points="793.5,-1003.54 790,-993.54 786.5,-1003.54 793.5,-1003.54"/>
</g>
<!-- Node0x1c3a4d60 -->
<g id="node15" class="node"><title>Node0x1c3a4d60</title>
<polygon fill="none" stroke="black" points="136.5,-97.5 136.5,-270.5 433.5,-270.5 433.5,-97.5 136.5,-97.5"/>
<text text-anchor="start" x="144.5" y="-255.3" font-family="Times,serif" font-size="14.00">0x147c3470:</text>
<text text-anchor="start" x="144.5" y="-240.3" font-family="Times,serif" font-size="14.00"> function_2178()</text>
<text text-anchor="start" x="144.5" y="-225.3" font-family="Times,serif" font-size="14.00"> v16 = g38</text>
<text text-anchor="start" x="144.5" y="-210.3" font-family="Times,serif" font-size="14.00"> v17 = *(IntToPtrCastExpr&lt;ptr&gt;(g41))</text>
<text text-anchor="start" x="144.5" y="-195.3" font-family="Times,serif" font-size="14.00"> g33 = v17</text>
<text text-anchor="start" x="144.5" y="-180.3" font-family="Times,serif" font-size="14.00"> v20 = (g40 + v16)</text>
<text text-anchor="start" x="144.5" y="-165.3" font-family="Times,serif" font-size="14.00"> g36 = v20</text>
<text text-anchor="start" x="144.5" y="-150.3" font-family="Times,serif" font-size="14.00"> g6 = (v16 &gt;= v17)</text>
<text text-anchor="start" x="144.5" y="-135.3" font-family="Times,serif" font-size="14.00"> g9 = (v16 == v17)</text>
<text text-anchor="start" x="144.5" y="-120.3" font-family="Times,serif" font-size="14.00"> g37 = v20</text>
<text text-anchor="start" x="144.5" y="-105.3" font-family="Times,serif" font-size="14.00"> g38 = (v16 + 16)</text>
</g>
<!-- Node0x154304d0&#45;&gt;Node0x1c3a4d60 -->
<g id="edge15" class="edge"><title>Node0x154304d0&#45;&gt;Node0x1c3a4d60</title>
<path fill="none" stroke="black" d="M283.555,-481.374C275.824,-476.598 268.923,-470.58 264,-463 229.359,-409.663 235.812,-337.84 250.299,-280.559"/>
<polygon fill="black" stroke="black" points="253.714,-281.333 252.887,-270.77 246.947,-279.543 253.714,-281.333"/>
<text text-anchor="middle" x="301" y="-372.3" font-family="Times,serif" font-size="14.00">v16 &lt; v17</text>
</g>
<!-- Node0x154323e0 -->
<g id="node16" class="node"><title>Node0x154323e0</title>
<polygon fill="none" stroke="black" points="451.5,-97.5 451.5,-270.5 684.5,-270.5 684.5,-97.5 451.5,-97.5"/>
<text text-anchor="start" x="459.5" y="-255.3" font-family="Times,serif" font-size="14.00">0x817e0e0:</text>
<text text-anchor="start" x="459.5" y="-240.3" font-family="Times,serif" font-size="14.00"> g29 = 1</text>
<text text-anchor="start" x="459.5" y="-225.3" font-family="Times,serif" font-size="14.00"> g38 = v1</text>
<text text-anchor="start" x="459.5" y="-210.3" font-family="Times,serif" font-size="14.00"> g39 = v2</text>
<text text-anchor="start" x="459.5" y="-195.3" font-family="Times,serif" font-size="14.00"> g40 = v3</text>
<text text-anchor="start" x="459.5" y="-180.3" font-family="Times,serif" font-size="14.00"> g41 = v4</text>
<text text-anchor="start" x="459.5" y="-165.3" font-family="Times,serif" font-size="14.00"> g42 = v5</text>
<text text-anchor="start" x="459.5" y="-150.3" font-family="Times,serif" font-size="14.00"> g32 = v6</text>
<text text-anchor="start" x="459.5" y="-135.3" font-family="Times,serif" font-size="14.00"> g34 = v15</text>
<text text-anchor="start" x="459.5" y="-120.3" font-family="Times,serif" font-size="14.00"> IntToPtrCastExpr&lt;ptr&gt;(v7)()</text>
<text text-anchor="start" x="459.5" y="-105.3" font-family="Times,serif" font-size="14.00"> return</text>
</g>
<!-- Node0x154304d0&#45;&gt;Node0x154323e0 -->
<g id="edge16" class="edge"><title>Node0x154304d0&#45;&gt;Node0x154323e0</title>
<path fill="none" stroke="black" d="M358.895,-481.232C386.106,-442.683 451.032,-350.705 501.377,-279.383"/>
<polygon fill="black" stroke="black" points="504.533,-280.98 507.441,-270.792 498.814,-276.944 504.533,-280.98"/>
<text text-anchor="middle" x="533" y="-372.3" font-family="Times,serif" font-size="14.00">v16 &gt;= v17</text>
</g>
<!-- Node0x443849a0 -->
<g id="node17" class="node"><title>Node0x443849a0</title>
<polygon fill="none" stroke="black" points="596.5,-289.5 596.5,-462.5 829.5,-462.5 829.5,-289.5 596.5,-289.5"/>
<text text-anchor="start" x="604.5" y="-447.3" font-family="Times,serif" font-size="14.00">0x8175f60:</text>
<text text-anchor="start" x="604.5" y="-432.3" font-family="Times,serif" font-size="14.00"> g29 = 1</text>
<text text-anchor="start" x="604.5" y="-417.3" font-family="Times,serif" font-size="14.00"> g38 = v1</text>
<text text-anchor="start" x="604.5" y="-402.3" font-family="Times,serif" font-size="14.00"> g39 = v2</text>
<text text-anchor="start" x="604.5" y="-387.3" font-family="Times,serif" font-size="14.00"> g40 = v3</text>
<text text-anchor="start" x="604.5" y="-372.3" font-family="Times,serif" font-size="14.00"> g41 = v4</text>
<text text-anchor="start" x="604.5" y="-357.3" font-family="Times,serif" font-size="14.00"> g42 = v5</text>
<text text-anchor="start" x="604.5" y="-342.3" font-family="Times,serif" font-size="14.00"> g32 = v6</text>
<text text-anchor="start" x="604.5" y="-327.3" font-family="Times,serif" font-size="14.00"> g34 = v15</text>
<text text-anchor="start" x="604.5" y="-312.3" font-family="Times,serif" font-size="14.00"> IntToPtrCastExpr&lt;ptr&gt;(v7)()</text>
<text text-anchor="start" x="604.5" y="-297.3" font-family="Times,serif" font-size="14.00"> return</text>
</g>
<!-- Node0x1e2e58e0&#45;&gt;Node0x443849a0 -->
<g id="edge17" class="edge"><title>Node0x1e2e58e0&#45;&gt;Node0x443849a0</title>
<path fill="none" stroke="black" d="M771.887,-955.219C760.191,-942.138 745.911,-923.463 739,-904 688.077,-760.58 692.3,-581.352 701.539,-473.199"/>
<polygon fill="black" stroke="black" points="705.05,-473.228 702.447,-462.958 698.077,-472.61 705.05,-473.228"/>
<text text-anchor="middle" x="773.5" y="-813.3" font-family="Times,serif" font-size="14.00">v18 == 0</text>
</g>
<!-- Node0x1e2e4e00 -->
<g id="node18" class="node"><title>Node0x1e2e4e00</title>
<polygon fill="none" stroke="black" points="817.5,-730.5 817.5,-903.5 1114.5,-903.5 1114.5,-730.5 817.5,-730.5"/>
<text text-anchor="start" x="825.5" y="-888.3" font-family="Times,serif" font-size="14.00">0x298c1cb0:</text>
<text text-anchor="start" x="825.5" y="-873.3" font-family="Times,serif" font-size="14.00"> function_2178()</text>
<text text-anchor="start" x="825.5" y="-858.3" font-family="Times,serif" font-size="14.00"> v16 = g38</text>
<text text-anchor="start" x="825.5" y="-843.3" font-family="Times,serif" font-size="14.00"> v17 = *(IntToPtrCastExpr&lt;ptr&gt;(g41))</text>
<text text-anchor="start" x="825.5" y="-828.3" font-family="Times,serif" font-size="14.00"> g33 = v17</text>
<text text-anchor="start" x="825.5" y="-813.3" font-family="Times,serif" font-size="14.00"> v20 = (g40 + v16)</text>
<text text-anchor="start" x="825.5" y="-798.3" font-family="Times,serif" font-size="14.00"> g36 = v20</text>
<text text-anchor="start" x="825.5" y="-783.3" font-family="Times,serif" font-size="14.00"> g6 = (v16 &gt;= v17)</text>
<text text-anchor="start" x="825.5" y="-768.3" font-family="Times,serif" font-size="14.00"> g9 = (v16 == v17)</text>
<text text-anchor="start" x="825.5" y="-753.3" font-family="Times,serif" font-size="14.00"> g37 = v20</text>
<text text-anchor="start" x="825.5" y="-738.3" font-family="Times,serif" font-size="14.00"> g38 = (v16 + 16)</text>
</g>
<!-- Node0x1e2e58e0&#45;&gt;Node0x1e2e4e00 -->
<g id="edge18" class="edge"><title>Node0x1e2e58e0&#45;&gt;Node0x1e2e4e00</title>
<path fill="none" stroke="black" d="M810.534,-955.358C823.801,-943.636 842.18,-927.397 861.668,-910.18"/>
<polygon fill="black" stroke="black" points="864.005,-912.785 869.182,-903.541 859.371,-907.539 864.005,-912.785"/>
<text text-anchor="middle" x="877.5" y="-925.8" font-family="Times,serif" font-size="14.00">v18 != 0</text>
</g>
<!-- Node0x1c3a4d60&#45;&gt;Node0x154304d0 -->
<g id="edge19" class="edge"><title>Node0x1c3a4d60&#45;&gt;Node0x154304d0</title>
<path fill="none" stroke="black" d="M332.189,-270.705C334.441,-276.788 336.417,-282.92 338,-289 354.533,-352.516 351.817,-430.427 348.716,-471.336"/>
<polygon fill="black" stroke="black" points="345.221,-471.127 347.888,-481.38 352.198,-471.701 345.221,-471.127"/>
</g>
<!-- Node0x154323e0&#45;&gt;Node0xe7a5910 -->
<g id="edge20" class="edge"><title>Node0x154323e0&#45;&gt;Node0xe7a5910</title>
<path fill="none" stroke="black" d="M630.272,-97.2233C637.906,-86.7072 645.186,-76.6798 651.38,-68.1488"/>
<polygon fill="black" stroke="black" points="654.367,-69.9911 657.41,-59.8425 648.702,-65.8787 654.367,-69.9911"/>
</g>
<!-- Node0x443849a0&#45;&gt;Node0xe7a5910 -->
<g id="edge21" class="edge"><title>Node0x443849a0&#45;&gt;Node0xe7a5910</title>
<path fill="none" stroke="black" d="M714.026,-289.344C712.94,-233.809 708.191,-160.285 693,-97 690.736,-87.5677 687.012,-77.6766 683.213,-68.9492"/>
<polygon fill="black" stroke="black" points="686.312,-67.3111 678.966,-59.6767 679.948,-70.226 686.312,-67.3111"/>
</g>
<!-- Node0x1e2e3d10 -->
<g id="node19" class="node"><title>Node0x1e2e3d10</title>
<polygon fill="none" stroke="black" points="901,-481.5 901,-519.5 1053,-519.5 1053,-481.5 901,-481.5"/>
<text text-anchor="start" x="909" y="-504.3" font-family="Times,serif" font-size="14.00">0x817a040:</text>
<text text-anchor="start" x="909" y="-489.3" font-family="Times,serif" font-size="14.00"> while (v16 &lt; v17):</text>
</g>
<!-- Node0x1e2e4e00&#45;&gt;Node0x1e2e3d10 -->
<g id="edge22" class="edge"><title>Node0x1e2e4e00&#45;&gt;Node0x1e2e3d10</title>
<path fill="none" stroke="black" d="M968.991,-730.477C971.33,-663.598 974.44,-574.688 976.007,-529.88"/>
<polygon fill="black" stroke="black" points="979.51,-529.849 976.362,-519.733 972.515,-529.605 979.51,-529.849"/>
</g>
<!-- Node0xe7a4e30 -->
<g id="node20" class="node"><title>Node0xe7a4e30</title>
<polygon fill="none" stroke="black" points="741.5,-97.5 741.5,-270.5 1038.5,-270.5 1038.5,-97.5 741.5,-97.5"/>
<text text-anchor="start" x="749.5" y="-255.3" font-family="Times,serif" font-size="14.00">0x26f0ca60:</text>
<text text-anchor="start" x="749.5" y="-240.3" font-family="Times,serif" font-size="14.00"> function_2178()</text>
<text text-anchor="start" x="749.5" y="-225.3" font-family="Times,serif" font-size="14.00"> v16 = g38</text>
<text text-anchor="start" x="749.5" y="-210.3" font-family="Times,serif" font-size="14.00"> v17 = *(IntToPtrCastExpr&lt;ptr&gt;(g41))</text>
<text text-anchor="start" x="749.5" y="-195.3" font-family="Times,serif" font-size="14.00"> g33 = v17</text>
<text text-anchor="start" x="749.5" y="-180.3" font-family="Times,serif" font-size="14.00"> v20 = (g40 + v16)</text>
<text text-anchor="start" x="749.5" y="-165.3" font-family="Times,serif" font-size="14.00"> g36 = v20</text>
<text text-anchor="start" x="749.5" y="-150.3" font-family="Times,serif" font-size="14.00"> g6 = (v16 &gt;= v17)</text>
<text text-anchor="start" x="749.5" y="-135.3" font-family="Times,serif" font-size="14.00"> g9 = (v16 == v17)</text>
<text text-anchor="start" x="749.5" y="-120.3" font-family="Times,serif" font-size="14.00"> g37 = v20</text>
<text text-anchor="start" x="749.5" y="-105.3" font-family="Times,serif" font-size="14.00"> g38 = (v16 + 16)</text>
</g>
<!-- Node0x1e2e3d10&#45;&gt;Node0xe7a4e30 -->
<g id="edge23" class="edge"><title>Node0x1e2e3d10&#45;&gt;Node0xe7a4e30</title>
<path fill="none" stroke="black" d="M909.967,-481.462C902.099,-476.681 895.079,-470.638 890,-463 854.896,-410.204 855.818,-338.392 865.037,-280.98"/>
<polygon fill="black" stroke="black" points="868.542,-281.249 866.782,-270.802 861.643,-280.067 868.542,-281.249"/>
<text text-anchor="middle" x="927" y="-372.3" font-family="Times,serif" font-size="14.00">v16 &lt; v17</text>
</g>
<!-- Node0xe7a6f10 -->
<g id="node21" class="node"><title>Node0xe7a6f10</title>
<polygon fill="none" stroke="black" points="1056.5,-105 1056.5,-263 1289.5,-263 1289.5,-105 1056.5,-105"/>
<text text-anchor="start" x="1064.5" y="-247.8" font-family="Times,serif" font-size="14.00">0x8179190:</text>
<text text-anchor="start" x="1064.5" y="-232.8" font-family="Times,serif" font-size="14.00"> g29 = 1</text>
<text text-anchor="start" x="1064.5" y="-217.8" font-family="Times,serif" font-size="14.00"> g38 = v1</text>
<text text-anchor="start" x="1064.5" y="-202.8" font-family="Times,serif" font-size="14.00"> g39 = v2</text>
<text text-anchor="start" x="1064.5" y="-187.8" font-family="Times,serif" font-size="14.00"> g40 = v3</text>
<text text-anchor="start" x="1064.5" y="-172.8" font-family="Times,serif" font-size="14.00"> g41 = v4</text>
<text text-anchor="start" x="1064.5" y="-157.8" font-family="Times,serif" font-size="14.00"> g42 = v5</text>
<text text-anchor="start" x="1064.5" y="-142.8" font-family="Times,serif" font-size="14.00"> g32 = v6</text>
<text text-anchor="start" x="1064.5" y="-127.8" font-family="Times,serif" font-size="14.00"> g34 = v15</text>
<text text-anchor="start" x="1064.5" y="-112.8" font-family="Times,serif" font-size="14.00"> IntToPtrCastExpr&lt;ptr&gt;(v7)()</text>
</g>
<!-- Node0x1e2e3d10&#45;&gt;Node0xe7a6f10 -->
<g id="edge24" class="edge"><title>Node0x1e2e3d10&#45;&gt;Node0xe7a6f10</title>
<path fill="none" stroke="black" d="M988.385,-481.232C1013.27,-441.297 1073.89,-344.023 1118.92,-271.775"/>
<polygon fill="black" stroke="black" points="1122.01,-273.432 1124.33,-263.094 1116.07,-269.729 1122.01,-273.432"/>
<text text-anchor="middle" x="1147" y="-372.3" font-family="Times,serif" font-size="14.00">v16 &gt;= v17</text>
</g>
<!-- Node0xe7a4e30&#45;&gt;Node0x1e2e3d10 -->
<g id="edge25" class="edge"><title>Node0xe7a4e30&#45;&gt;Node0x1e2e3d10</title>
<path fill="none" stroke="black" d="M956.158,-270.702C959.159,-276.714 961.82,-282.837 964,-289 985.973,-351.106 983.481,-429.891 980.06,-471.233"/>
<polygon fill="black" stroke="black" points="976.557,-471.104 979.137,-481.38 983.528,-471.738 976.557,-471.104"/>
</g>
<!-- Node0xe7a6f10&#45;&gt;Node0xe7a5910 -->
<g id="edge26" class="edge"><title>Node0xe7a6f10&#45;&gt;Node0xe7a5910</title>
<path fill="none" stroke="black" d="M1065.96,-104.98C1060.01,-102.04 1054.01,-99.3512 1048,-97 929.656,-50.702 776.639,-43.1803 707.201,-42.3239"/>
<polygon fill="black" stroke="black" points="707.213,-38.824 697.184,-42.2403 707.155,-45.8237 707.213,-38.824"/>
</g>
</g>
</svg>
