<?xml version="1.0" encoding="UTF-8" standalone="no"?>
<!DOCTYPE svg PUBLIC "-//W3C//DTD SVG 1.1//EN"
 "http://www.w3.org/Graphics/SVG/1.1/DTD/svg11.dtd">
<!-- Generated by graphviz version 2.38.0 (20140413.2041)
 -->
<!-- Title: Control&#45;flow graph for function &#39;function_19f8c()&#39;. Pages: 1 -->
<svg width="603pt" height="971pt"
 viewBox="0.00 0.00 602.50 971.00" xmlns="http://www.w3.org/2000/svg" xmlns:xlink="http://www.w3.org/1999/xlink">
<g id="graph0" class="graph" transform="scale(1 1) rotate(0) translate(4 967)">
<title>Control&#45;flow graph for function &#39;function_19f8c()&#39;.</title>
<polygon fill="white" stroke="none" points="-4,4 -4,-967 598.5,-967 598.5,4 -4,4"/>
<text text-anchor="middle" x="297.25" y="-7.8" font-family="Times,serif" font-size="14.00">Control&#45;flow graph for function &#39;function_19f8c()&#39;.</text>
<!-- Node0x13444190 -->
<g id="node1" class="node"><title>Node0x13444190</title>
<polygon fill="none" stroke="black" points="86.5,-926.5 86.5,-962.5 145.5,-962.5 145.5,-926.5 86.5,-926.5"/>
<text text-anchor="start" x="94.5" y="-940.8" font-family="Times,serif" font-size="14.00">entry:</text>
</g>
<!-- Node0x1ea96120 -->
<g id="node2" class="node"><title>Node0x1ea96120</title>
<polygon fill="none" stroke="black" points="56.5,-850.5 56.5,-888.5 175.5,-888.5 175.5,-850.5 56.5,-850.5"/>
<text text-anchor="start" x="64.5" y="-873.3" font-family="Times,serif" font-size="14.00">0x8ea7230:</text>
<text text-anchor="start" x="64.5" y="-858.3" font-family="Times,serif" font-size="14.00"> if (g29 == 0):</text>
</g>
<!-- Node0x13444190&#45;&gt;Node0x1ea96120 -->
<g id="edge1" class="edge"><title>Node0x13444190&#45;&gt;Node0x1ea96120</title>
<path fill="none" stroke="black" d="M116,-926.2C116,-917.99 116,-907.969 116,-898.701"/>
<polygon fill="black" stroke="black" points="119.5,-898.694 116,-888.694 112.5,-898.695 119.5,-898.694"/>
</g>
<!-- Node0x47a69c90 -->
<g id="node3" class="node"><title>Node0x47a69c90</title>
<polygon fill="none" stroke="black" points="0,-673.5 0,-741.5 100,-741.5 100,-673.5 0,-673.5"/>
<text text-anchor="start" x="8" y="-726.3" font-family="Times,serif" font-size="14.00">0x8ea7370:</text>
<text text-anchor="start" x="8" y="-711.3" font-family="Times,serif" font-size="14.00"> g33 = &#45;1</text>
<text text-anchor="start" x="8" y="-696.3" font-family="Times,serif" font-size="14.00"> g29 = &#45;1</text>
<text text-anchor="start" x="8" y="-681.3" font-family="Times,serif" font-size="14.00"> return</text>
</g>
<!-- Node0x1ea96120&#45;&gt;Node0x47a69c90 -->
<g id="edge2" class="edge"><title>Node0x1ea96120&#45;&gt;Node0x47a69c90</title>
<path fill="none" stroke="black" d="M101.27,-850.279C96.8413,-844.545 92.0781,-838.112 88,-832 78.6069,-817.922 75.0358,-814.811 69,-799 63.3244,-784.133 59.1955,-767.21 56.2663,-752.053"/>
<polygon fill="black" stroke="black" points="59.6517,-751.105 54.4258,-741.889 52.7637,-752.352 59.6517,-751.105"/>
<text text-anchor="middle" x="123" y="-820.8" font-family="Times,serif" font-size="14.00">g29 == 0</text>
</g>
<!-- Node0x39337d30 -->
<g id="node4" class="node"><title>Node0x39337d30</title>
<polygon fill="none" stroke="black" points="78,-760.5 78,-798.5 366,-798.5 366,-760.5 78,-760.5"/>
<text text-anchor="start" x="86" y="-783.3" font-family="Times,serif" font-size="14.00">0x3bf1ed80:</text>
<text text-anchor="start" x="86" y="-768.3" font-family="Times,serif" font-size="14.00"> v1 = *(IntToPtrCastExpr&lt;ptr&gt;(g29))</text>
</g>
<!-- Node0x1ea96120&#45;&gt;Node0x39337d30 -->
<g id="edge3" class="edge"><title>Node0x1ea96120&#45;&gt;Node0x39337d30</title>
<path fill="none" stroke="black" d="M137.706,-850.48C153.322,-837.516 174.584,-819.864 191.847,-805.532"/>
<polygon fill="black" stroke="black" points="194.5,-807.879 199.958,-798.799 190.029,-802.493 194.5,-807.879"/>
<text text-anchor="middle" x="207" y="-820.8" font-family="Times,serif" font-size="14.00">g29 != 0</text>
</g>
<!-- Node0x243f6430 -->
<g id="node5" class="node"><title>Node0x243f6430</title>
<polygon fill="none" stroke="black" points="100,-23.5 100,-59.5 154,-59.5 154,-23.5 100,-23.5"/>
<text text-anchor="start" x="108" y="-37.8" font-family="Times,serif" font-size="14.00">exit:</text>
</g>
<!-- Node0x47a69c90&#45;&gt;Node0x243f6430 -->
<g id="edge4" class="edge"><title>Node0x47a69c90&#45;&gt;Node0x243f6430</title>
<path fill="none" stroke="black" d="M50,-673.286C50,-650.317 50,-619.052 50,-591.5 50,-591.5 50,-591.5 50,-205.5 50,-152.576 83.5974,-98.4483 106.407,-67.7996"/>
<polygon fill="black" stroke="black" points="109.229,-69.87 112.517,-59.7982 103.666,-65.6215 109.229,-69.87"/>
</g>
<!-- Node0x1470d0b0 -->
<g id="node6" class="node"><title>Node0x1470d0b0</title>
<polygon fill="none" stroke="black" points="167,-616.5 167,-654.5 277,-654.5 277,-616.5 167,-616.5"/>
<text text-anchor="start" x="175" y="-639.3" font-family="Times,serif" font-size="14.00">0x8ea6a40:</text>
<text text-anchor="start" x="175" y="-624.3" font-family="Times,serif" font-size="14.00"> if (v1 == 0):</text>
</g>
<!-- Node0x39337d30&#45;&gt;Node0x1470d0b0 -->
<g id="edge5" class="edge"><title>Node0x39337d30&#45;&gt;Node0x1470d0b0</title>
<path fill="none" stroke="black" d="M222,-760.227C222,-736.05 222,-693.185 222,-664.803"/>
<polygon fill="black" stroke="black" points="225.5,-664.703 222,-654.703 218.5,-664.703 225.5,-664.703"/>
</g>
<!-- Node0x1fd90b30 -->
<g id="node7" class="node"><title>Node0x1fd90b30</title>
<polygon fill="none" stroke="black" points="65,-424.5 65,-492.5 165,-492.5 165,-424.5 65,-424.5"/>
<text text-anchor="start" x="73" y="-477.3" font-family="Times,serif" font-size="14.00">0x8ea6b80:</text>
<text text-anchor="start" x="73" y="-462.3" font-family="Times,serif" font-size="14.00"> g33 = &#45;1</text>
<text text-anchor="start" x="73" y="-447.3" font-family="Times,serif" font-size="14.00"> g29 = &#45;1</text>
<text text-anchor="start" x="73" y="-432.3" font-family="Times,serif" font-size="14.00"> return</text>
</g>
<!-- Node0x1470d0b0&#45;&gt;Node0x1fd90b30 -->
<g id="edge6" class="edge"><title>Node0x1470d0b0&#45;&gt;Node0x1fd90b30</title>
<path fill="none" stroke="black" d="M188.491,-616.338C169.507,-604.287 147.017,-586.704 134,-565 122.832,-546.38 117.897,-522.821 115.834,-502.691"/>
<polygon fill="black" stroke="black" points="119.305,-502.202 114.999,-492.522 112.329,-502.775 119.305,-502.202"/>
<text text-anchor="middle" x="192" y="-586.8" font-family="Times,serif" font-size="14.00">v1 == 0</text>
</g>
<!-- Node0x1fd935a0 -->
<g id="node8" class="node"><title>Node0x1fd935a0</title>
<polygon fill="none" stroke="black" points="143,-511.5 143,-564.5 471,-564.5 471,-511.5 143,-511.5"/>
<text text-anchor="start" x="151" y="-549.3" font-family="Times,serif" font-size="14.00">0x3bf1ee60:</text>
<text text-anchor="start" x="151" y="-534.3" font-family="Times,serif" font-size="14.00"> v2 = *(IntToPtrCastExpr&lt;ptr&gt;((v1 + 28)))</text>
<text text-anchor="start" x="151" y="-519.3" font-family="Times,serif" font-size="14.00"> g9 = (v2 == 0)</text>
</g>
<!-- Node0x1470d0b0&#45;&gt;Node0x1fd935a0 -->
<g id="edge7" class="edge"><title>Node0x1470d0b0&#45;&gt;Node0x1fd935a0</title>
<path fill="none" stroke="black" d="M238.389,-616.087C249.481,-603.625 264.447,-586.81 277.571,-572.065"/>
<polygon fill="black" stroke="black" points="280.201,-574.373 284.236,-564.577 274.973,-569.719 280.201,-574.373"/>
<text text-anchor="middle" x="294" y="-586.8" font-family="Times,serif" font-size="14.00">v1 != 0</text>
</g>
<!-- Node0x1fd90b30&#45;&gt;Node0x243f6430 -->
<g id="edge8" class="edge"><title>Node0x1fd90b30&#45;&gt;Node0x243f6430</title>
<path fill="none" stroke="black" d="M114.521,-424.159C113.835,-360.497 113.396,-217.256 121,-97 121.564,-88.0848 122.52,-78.3822 123.506,-69.6675"/>
<polygon fill="black" stroke="black" points="126.992,-69.9902 124.699,-59.6467 120.041,-69.163 126.992,-69.9902"/>
</g>
<!-- Node0x1038a7e0 -->
<g id="node9" class="node"><title>Node0x1038a7e0</title>
<polygon fill="none" stroke="black" points="252,-367.5 252,-405.5 362,-405.5 362,-367.5 252,-367.5"/>
<text text-anchor="start" x="260" y="-390.3" font-family="Times,serif" font-size="14.00">0x8ea6310:</text>
<text text-anchor="start" x="260" y="-375.3" font-family="Times,serif" font-size="14.00"> if (v2 == 0):</text>
</g>
<!-- Node0x1fd935a0&#45;&gt;Node0x1038a7e0 -->
<g id="edge9" class="edge"><title>Node0x1fd935a0&#45;&gt;Node0x1038a7e0</title>
<path fill="none" stroke="black" d="M307,-511.3C307,-484.767 307,-443.473 307,-415.967"/>
<polygon fill="black" stroke="black" points="310.5,-415.808 307,-405.808 303.5,-415.808 310.5,-415.808"/>
</g>
<!-- Node0x1470bc80 -->
<g id="node10" class="node"><title>Node0x1470bc80</title>
<polygon fill="none" stroke="black" points="130,-172.5 130,-240.5 230,-240.5 230,-172.5 130,-172.5"/>
<text text-anchor="start" x="138" y="-225.3" font-family="Times,serif" font-size="14.00">0x8ea6450:</text>
<text text-anchor="start" x="138" y="-210.3" font-family="Times,serif" font-size="14.00"> g33 = &#45;1</text>
<text text-anchor="start" x="138" y="-195.3" font-family="Times,serif" font-size="14.00"> g29 = &#45;1</text>
<text text-anchor="start" x="138" y="-180.3" font-family="Times,serif" font-size="14.00"> return</text>
</g>
<!-- Node0x1038a7e0&#45;&gt;Node0x1470bc80 -->
<g id="edge10" class="edge"><title>Node0x1038a7e0&#45;&gt;Node0x1470bc80</title>
<path fill="none" stroke="black" d="M286.178,-367.418C279.859,-361.69 273.004,-355.225 267,-349 253.646,-335.156 249.874,-331.866 239,-316 224.704,-295.141 211.058,-270.473 200.497,-249.933"/>
<polygon fill="black" stroke="black" points="203.517,-248.149 195.871,-240.815 197.275,-251.317 203.517,-248.149"/>
<text text-anchor="middle" x="297" y="-337.8" font-family="Times,serif" font-size="14.00">v2 == 0</text>
</g>
<!-- Node0x1038ab70 -->
<g id="node11" class="node"><title>Node0x1038ab70</title>
<polygon fill="none" stroke="black" points="247.5,-97.5 247.5,-315.5 594.5,-315.5 594.5,-97.5 247.5,-97.5"/>
<text text-anchor="start" x="255.5" y="-300.3" font-family="Times,serif" font-size="14.00">0x7ce43c0:</text>
<text text-anchor="start" x="255.5" y="-285.3" font-family="Times,serif" font-size="14.00"> g36 = &#45;1</text>
<text text-anchor="start" x="255.5" y="-270.3" font-family="Times,serif" font-size="14.00"> g37 = &#45;1</text>
<text text-anchor="start" x="255.5" y="-255.3" font-family="Times,serif" font-size="14.00"> g30 = &#45;1</text>
<text text-anchor="start" x="255.5" y="-240.3" font-family="Times,serif" font-size="14.00"> g33 = 0</text>
<text text-anchor="start" x="255.5" y="-225.3" font-family="Times,serif" font-size="14.00"> *(IntToPtrCastExpr&lt;ptr&gt;((g29 + 72))) = &#45;1</text>
<text text-anchor="start" x="255.5" y="-210.3" font-family="Times,serif" font-size="14.00"> *(IntToPtrCastExpr&lt;ptr&gt;((g29 + 76))) = g37</text>
<text text-anchor="start" x="255.5" y="-195.3" font-family="Times,serif" font-size="14.00"> *(IntToPtrCastExpr&lt;ptr&gt;((g29 + 40))) = g30</text>
<text text-anchor="start" x="255.5" y="-180.3" font-family="Times,serif" font-size="14.00"> *(IntToPtrCastExpr&lt;ptr&gt;((g29 + 44))) = g30</text>
<text text-anchor="start" x="255.5" y="-165.3" font-family="Times,serif" font-size="14.00"> *(IntToPtrCastExpr&lt;ptr&gt;((g29 + 56))) = g36</text>
<text text-anchor="start" x="255.5" y="-150.3" font-family="Times,serif" font-size="14.00"> *(IntToPtrCastExpr&lt;ptr&gt;((g29 + 60))) = g37</text>
<text text-anchor="start" x="255.5" y="-135.3" font-family="Times,serif" font-size="14.00"> *(IntToPtrCastExpr&lt;ptr&gt;((g29 + 64))) = g36</text>
<text text-anchor="start" x="255.5" y="-120.3" font-family="Times,serif" font-size="14.00"> *(IntToPtrCastExpr&lt;ptr&gt;((g29 + 68))) = g37</text>
<text text-anchor="start" x="255.5" y="-105.3" font-family="Times,serif" font-size="14.00"> g29 = g33</text>
</g>
<!-- Node0x1038a7e0&#45;&gt;Node0x1038ab70 -->
<g id="edge11" class="edge"><title>Node0x1038a7e0&#45;&gt;Node0x1038ab70</title>
<path fill="none" stroke="black" d="M318.558,-367.453C325.644,-356.389 335.389,-341.174 346.068,-324.498"/>
<polygon fill="black" stroke="black" points="349.283,-325.968 351.729,-315.66 343.389,-322.193 349.283,-325.968"/>
<text text-anchor="middle" x="364" y="-337.8" font-family="Times,serif" font-size="14.00">v2 != 0</text>
</g>
<!-- Node0x1470bc80&#45;&gt;Node0x243f6430 -->
<g id="edge12" class="edge"><title>Node0x1470bc80&#45;&gt;Node0x243f6430</title>
<path fill="none" stroke="black" d="M169.147,-172.121C159.275,-141.76 144.89,-97.5187 135.739,-69.3771"/>
<polygon fill="black" stroke="black" points="139.044,-68.2208 132.623,-59.7931 132.387,-70.3854 139.044,-68.2208"/>
</g>
<!-- Node0x1038ab70&#45;&gt;Node0x243f6430 -->
<g id="edge13" class="edge"><title>Node0x1038ab70&#45;&gt;Node0x243f6430</title>
<path fill="none" stroke="black" d="M247.303,-101.518C244.52,-99.9929 241.751,-98.486 239,-97 214.139,-83.5721 185.479,-69.6535 163.375,-59.2433"/>
<polygon fill="black" stroke="black" points="164.566,-55.9366 154.026,-54.8652 161.597,-62.2759 164.566,-55.9366"/>
</g>
</g>
</svg>
