<?xml version="1.0" encoding="UTF-8" standalone="no"?>
<!DOCTYPE svg PUBLIC "-//W3C//DTD SVG 1.1//EN"
 "http://www.w3.org/Graphics/SVG/1.1/DTD/svg11.dtd">
<!-- Generated by graphviz version 2.38.0 (20140413.2041)
 -->
<!-- Title: Control&#45;flow graph for function &#39;function_1b7b8()&#39;. Pages: 1 -->
<svg width="777pt" height="939pt"
 viewBox="0.00 0.00 776.50 939.00" xmlns="http://www.w3.org/2000/svg" xmlns:xlink="http://www.w3.org/1999/xlink">
<g id="graph0" class="graph" transform="scale(1 1) rotate(0) translate(4 935)">
<title>Control&#45;flow graph for function &#39;function_1b7b8()&#39;.</title>
<polygon fill="white" stroke="none" points="-4,4 -4,-935 772.5,-935 772.5,4 -4,4"/>
<text text-anchor="middle" x="384.25" y="-7.8" font-family="Times,serif" font-size="14.00">Control&#45;flow graph for function &#39;function_1b7b8()&#39;.</text>
<!-- Node0x36493ac0 -->
<g id="node1" class="node"><title>Node0x36493ac0</title>
<polygon fill="none" stroke="black" points="294,-894.5 294,-930.5 353,-930.5 353,-894.5 294,-894.5"/>
<text text-anchor="start" x="302" y="-908.8" font-family="Times,serif" font-size="14.00">entry:</text>
</g>
<!-- Node0x3e9afa20 -->
<g id="node2" class="node"><title>Node0x3e9afa20</title>
<polygon fill="none" stroke="black" points="69,-473.5 69,-856.5 578,-856.5 578,-473.5 69,-473.5"/>
<text text-anchor="start" x="77" y="-841.3" font-family="Times,serif" font-size="14.00">0x3eb4dd50:</text>
<text text-anchor="start" x="77" y="-826.3" font-family="Times,serif" font-size="14.00"> v1 = g38</text>
<text text-anchor="start" x="77" y="-811.3" font-family="Times,serif" font-size="14.00"> v2 = g39</text>
<text text-anchor="start" x="77" y="-796.3" font-family="Times,serif" font-size="14.00"> v3 = g40</text>
<text text-anchor="start" x="77" y="-781.3" font-family="Times,serif" font-size="14.00"> v4 = g41</text>
<text text-anchor="start" x="77" y="-766.3" font-family="Times,serif" font-size="14.00"> g40 = g30</text>
<text text-anchor="start" x="77" y="-751.3" font-family="Times,serif" font-size="14.00"> g38 = g36</text>
<text text-anchor="start" x="77" y="-736.3" font-family="Times,serif" font-size="14.00"> g39 = g29</text>
<text text-anchor="start" x="77" y="-721.3" font-family="Times,serif" font-size="14.00"> function_1b720()</text>
<text text-anchor="start" x="77" y="-706.3" font-family="Times,serif" font-size="14.00"> g41 = 0</text>
<text text-anchor="start" x="77" y="-691.3" font-family="Times,serif" font-size="14.00"> g30 = g38</text>
<text text-anchor="start" x="77" y="-676.3" font-family="Times,serif" font-size="14.00"> g29 = g39</text>
<text text-anchor="start" x="77" y="-661.3" font-family="Times,serif" font-size="14.00"> function_1b75c()</text>
<text text-anchor="start" x="77" y="-646.3" font-family="Times,serif" font-size="14.00"> v5 = g39</text>
<text text-anchor="start" x="77" y="-631.3" font-family="Times,serif" font-size="14.00"> v6 = (g41 + 1)</text>
<text text-anchor="start" x="77" y="-616.3" font-family="Times,serif" font-size="14.00"> g41 = v6</text>
<text text-anchor="start" x="77" y="-601.3" font-family="Times,serif" font-size="14.00"> v7 = *(IntToPtrCastExpr&lt;ptr&gt;((v5 + 8)))</text>
<text text-anchor="start" x="77" y="-586.3" font-family="Times,serif" font-size="14.00"> g36 = v7</text>
<text text-anchor="start" x="77" y="-571.3" font-family="Times,serif" font-size="14.00"> v8 = (g38 &#45; *(IntToPtrCastExpr&lt;ptr&gt;((v5 + 12))))</text>
<text text-anchor="start" x="77" y="-556.3" font-family="Times,serif" font-size="14.00"> g37 = v8</text>
<text text-anchor="start" x="77" y="-541.3" font-family="Times,serif" font-size="14.00"> g9 = (v6 == 4)</text>
<text text-anchor="start" x="77" y="-526.3" font-family="Times,serif" font-size="14.00"> *(IntToPtrCastExpr&lt;ptr&gt;((v8 + v7))) = TruncCastExpr&lt;int8&gt;(g40)</text>
<text text-anchor="start" x="77" y="-511.3" font-family="Times,serif" font-size="14.00"> v9 = (g38 + 1)</text>
<text text-anchor="start" x="77" y="-496.3" font-family="Times,serif" font-size="14.00"> g38 = v9</text>
<text text-anchor="start" x="77" y="-481.3" font-family="Times,serif" font-size="14.00"> g40 = (g40 / 256)</text>
</g>
<!-- Node0x36493ac0&#45;&gt;Node0x3e9afa20 -->
<g id="edge1" class="edge"><title>Node0x36493ac0&#45;&gt;Node0x3e9afa20</title>
<path fill="none" stroke="black" d="M323.5,-894.237C323.5,-886.883 323.5,-877.513 323.5,-866.784"/>
<polygon fill="black" stroke="black" points="327,-866.567 323.5,-856.567 320,-866.567 327,-866.567"/>
</g>
<!-- Node0x36493380 -->
<g id="node3" class="node"><title>Node0x36493380</title>
<polygon fill="none" stroke="black" points="257.5,-397.5 257.5,-435.5 389.5,-435.5 389.5,-397.5 257.5,-397.5"/>
<text text-anchor="start" x="265.5" y="-420.3" font-family="Times,serif" font-size="14.00">0x93dd110:</text>
<text text-anchor="start" x="265.5" y="-405.3" font-family="Times,serif" font-size="14.00"> while (v6 != 4):</text>
</g>
<!-- Node0x3e9afa20&#45;&gt;Node0x36493380 -->
<g id="edge2" class="edge"><title>Node0x3e9afa20&#45;&gt;Node0x36493380</title>
<path fill="none" stroke="black" d="M323.5,-473.435C323.5,-463.148 323.5,-453.764 323.5,-445.743"/>
<polygon fill="black" stroke="black" points="327,-445.694 323.5,-435.695 320,-445.695 327,-445.694"/>
</g>
<!-- Node0x1047c970 -->
<g id="node4" class="node"><title>Node0x1047c970</title>
<polygon fill="none" stroke="black" points="-2.84217e-14,-97.5 -2.84217e-14,-345.5 509,-345.5 509,-97.5 -2.84217e-14,-97.5"/>
<text text-anchor="start" x="8" y="-330.3" font-family="Times,serif" font-size="14.00">0x25fb02e0:</text>
<text text-anchor="start" x="8" y="-315.3" font-family="Times,serif" font-size="14.00"> g30 = v9</text>
<text text-anchor="start" x="8" y="-300.3" font-family="Times,serif" font-size="14.00"> g29 = g39</text>
<text text-anchor="start" x="8" y="-285.3" font-family="Times,serif" font-size="14.00"> function_1b75c()</text>
<text text-anchor="start" x="8" y="-270.3" font-family="Times,serif" font-size="14.00"> v5 = g39</text>
<text text-anchor="start" x="8" y="-255.3" font-family="Times,serif" font-size="14.00"> v6 = (g41 + 1)</text>
<text text-anchor="start" x="8" y="-240.3" font-family="Times,serif" font-size="14.00"> g41 = v6</text>
<text text-anchor="start" x="8" y="-225.3" font-family="Times,serif" font-size="14.00"> v7 = *(IntToPtrCastExpr&lt;ptr&gt;((v5 + 8)))</text>
<text text-anchor="start" x="8" y="-210.3" font-family="Times,serif" font-size="14.00"> g36 = v7</text>
<text text-anchor="start" x="8" y="-195.3" font-family="Times,serif" font-size="14.00"> v8 = (g38 &#45; *(IntToPtrCastExpr&lt;ptr&gt;((v5 + 12))))</text>
<text text-anchor="start" x="8" y="-180.3" font-family="Times,serif" font-size="14.00"> g37 = v8</text>
<text text-anchor="start" x="8" y="-165.3" font-family="Times,serif" font-size="14.00"> g9 = (v6 == 4)</text>
<text text-anchor="start" x="8" y="-150.3" font-family="Times,serif" font-size="14.00"> *(IntToPtrCastExpr&lt;ptr&gt;((v8 + v7))) = TruncCastExpr&lt;int8&gt;(g40)</text>
<text text-anchor="start" x="8" y="-135.3" font-family="Times,serif" font-size="14.00"> v9 = (g38 + 1)</text>
<text text-anchor="start" x="8" y="-120.3" font-family="Times,serif" font-size="14.00"> g38 = v9</text>
<text text-anchor="start" x="8" y="-105.3" font-family="Times,serif" font-size="14.00"> g40 = (g40 / 256)</text>
</g>
<!-- Node0x36493380&#45;&gt;Node0x1047c970 -->
<g id="edge3" class="edge"><title>Node0x36493380&#45;&gt;Node0x1047c970</title>
<path fill="none" stroke="black" d="M273.931,-397.322C266.591,-392.484 259.995,-386.46 255.5,-379 251.065,-371.64 247.711,-363.71 245.238,-355.464"/>
<polygon fill="black" stroke="black" points="248.597,-354.473 242.728,-345.652 241.816,-356.208 248.597,-354.473"/>
<text text-anchor="middle" x="282.5" y="-367.8" font-family="Times,serif" font-size="14.00">v6 != 4</text>
</g>
<!-- Node0x364935f0 -->
<g id="node5" class="node"><title>Node0x364935f0</title>
<polygon fill="none" stroke="black" points="526.5,-157.5 526.5,-285.5 768.5,-285.5 768.5,-157.5 526.5,-157.5"/>
<text text-anchor="start" x="534.5" y="-270.3" font-family="Times,serif" font-size="14.00">0x93dc5f0:</text>
<text text-anchor="start" x="534.5" y="-255.3" font-family="Times,serif" font-size="14.00"> g38 = v1</text>
<text text-anchor="start" x="534.5" y="-240.3" font-family="Times,serif" font-size="14.00"> g39 = v2</text>
<text text-anchor="start" x="534.5" y="-225.3" font-family="Times,serif" font-size="14.00"> g40 = v3</text>
<text text-anchor="start" x="534.5" y="-210.3" font-family="Times,serif" font-size="14.00"> g41 = v4</text>
<text text-anchor="start" x="534.5" y="-195.3" font-family="Times,serif" font-size="14.00"> v10</text>
<text text-anchor="start" x="534.5" y="-180.3" font-family="Times,serif" font-size="14.00"> g34 = v10</text>
<text text-anchor="start" x="534.5" y="-165.3" font-family="Times,serif" font-size="14.00"> IntToPtrCastExpr&lt;ptr&gt;(g35)()</text>
</g>
<!-- Node0x36493380&#45;&gt;Node0x364935f0 -->
<g id="edge4" class="edge"><title>Node0x36493380&#45;&gt;Node0x364935f0</title>
<path fill="none" stroke="black" d="M389.821,-399.399C429.077,-388.079 478.742,-370.54 518.5,-346 542.115,-331.424 564.987,-311.943 584.748,-292.769"/>
<polygon fill="black" stroke="black" points="587.223,-295.243 591.883,-285.728 582.307,-290.26 587.223,-295.243"/>
<text text-anchor="middle" x="513.5" y="-367.8" font-family="Times,serif" font-size="14.00">v6 == 4</text>
</g>
<!-- Node0x1047c970&#45;&gt;Node0x36493380 -->
<g id="edge5" class="edge"><title>Node0x1047c970&#45;&gt;Node0x36493380</title>
<path fill="none" stroke="black" d="M303.266,-345.699C305.431,-351.866 307.522,-357.992 309.5,-364 311.97,-371.503 314.348,-379.719 316.42,-387.343"/>
<polygon fill="black" stroke="black" points="313.099,-388.474 319.038,-397.248 319.867,-386.685 313.099,-388.474"/>
</g>
<!-- Node0x3f818d50 -->
<g id="node6" class="node"><title>Node0x3f818d50</title>
<polygon fill="none" stroke="black" points="620.5,-23.5 620.5,-59.5 674.5,-59.5 674.5,-23.5 620.5,-23.5"/>
<text text-anchor="start" x="628.5" y="-37.8" font-family="Times,serif" font-size="14.00">exit:</text>
</g>
<!-- Node0x364935f0&#45;&gt;Node0x3f818d50 -->
<g id="edge6" class="edge"><title>Node0x364935f0&#45;&gt;Node0x3f818d50</title>
<path fill="none" stroke="black" d="M647.5,-157.493C647.5,-127.448 647.5,-93.0708 647.5,-69.7893"/>
<polygon fill="black" stroke="black" points="651,-69.6241 647.5,-59.6242 644,-69.6242 651,-69.6241"/>
</g>
</g>
</svg>
