<?xml version="1.0" encoding="UTF-8" standalone="no"?>
<!DOCTYPE svg PUBLIC "-//W3C//DTD SVG 1.1//EN"
 "http://www.w3.org/Graphics/SVG/1.1/DTD/svg11.dtd">
<!-- Generated by graphviz version 2.38.0 (20140413.2041)
 -->
<!-- Title: Control&#45;flow graph for function &#39;SpSetDisplayName()&#39;. Pages: 1 -->
<svg width="837pt" height="1303pt"
 viewBox="0.00 0.00 837.00 1303.00" xmlns="http://www.w3.org/2000/svg" xmlns:xlink="http://www.w3.org/1999/xlink">
<g id="graph0" class="graph" transform="scale(1 1) rotate(0) translate(4 1299)">
<title>Control&#45;flow graph for function &#39;SpSetDisplayName()&#39;.</title>
<polygon fill="white" stroke="none" points="-4,4 -4,-1299 833,-1299 833,4 -4,4"/>
<text text-anchor="middle" x="414.5" y="-7.8" font-family="Times,serif" font-size="14.00">Control&#45;flow graph for function &#39;SpSetDisplayName()&#39;.</text>
<!-- Node0x20b50650 -->
<g id="node1" class="node"><title>Node0x20b50650</title>
<polygon fill="none" stroke="black" points="397.5,-1258.5 397.5,-1294.5 456.5,-1294.5 456.5,-1258.5 397.5,-1258.5"/>
<text text-anchor="start" x="405.5" y="-1272.8" font-family="Times,serif" font-size="14.00">entry:</text>
</g>
<!-- Node0x20b51e50 -->
<g id="node2" class="node"><title>Node0x20b51e50</title>
<polygon fill="none" stroke="black" points="269.5,-1062.5 269.5,-1220.5 584.5,-1220.5 584.5,-1062.5 269.5,-1062.5"/>
<text text-anchor="start" x="277.5" y="-1205.3" font-family="Times,serif" font-size="14.00">0xf179c80:</text>
<text text-anchor="start" x="277.5" y="-1190.3" font-family="Times,serif" font-size="14.00"> v1 = g38</text>
<text text-anchor="start" x="277.5" y="-1175.3" font-family="Times,serif" font-size="14.00"> v2 = g39</text>
<text text-anchor="start" x="277.5" y="-1160.3" font-family="Times,serif" font-size="14.00"> v3 = g40</text>
<text text-anchor="start" x="277.5" y="-1145.3" font-family="Times,serif" font-size="14.00"> g38 = 165012</text>
<text text-anchor="start" x="277.5" y="-1130.3" font-family="Times,serif" font-size="14.00"> v4 = *(IntToPtrCastExpr&lt;ptr&gt;(165212))</text>
<text text-anchor="start" x="277.5" y="-1115.3" font-family="Times,serif" font-size="14.00"> g40 = v4</text>
<text text-anchor="start" x="277.5" y="-1100.3" font-family="Times,serif" font-size="14.00"> v5 = g29</text>
<text text-anchor="start" x="277.5" y="-1085.3" font-family="Times,serif" font-size="14.00"> g39 = v5</text>
<text text-anchor="start" x="277.5" y="-1070.3" font-family="Times,serif" font-size="14.00"> v6 = v5</text>
</g>
<!-- Node0x20b50650&#45;&gt;Node0x20b51e50 -->
<g id="edge1" class="edge"><title>Node0x20b50650&#45;&gt;Node0x20b51e50</title>
<path fill="none" stroke="black" d="M427,-1258.38C427,-1250.78 427,-1241.21 427,-1230.83"/>
<polygon fill="black" stroke="black" points="430.5,-1230.68 427,-1220.68 423.5,-1230.68 430.5,-1230.68"/>
</g>
<!-- Node0x20b4cca0 -->
<g id="node3" class="node"><title>Node0x20b4cca0</title>
<polygon fill="none" stroke="black" points="274.5,-986.5 274.5,-1024.5 579.5,-1024.5 579.5,-986.5 274.5,-986.5"/>
<text text-anchor="start" x="282.5" y="-1009.3" font-family="Times,serif" font-size="14.00">0x820e370:</text>
<text text-anchor="start" x="282.5" y="-994.3" font-family="Times,serif" font-size="14.00"> if (*(IntToPtrCastExpr&lt;ptr&gt;(v4)) != 0):</text>
</g>
<!-- Node0x20b51e50&#45;&gt;Node0x20b4cca0 -->
<g id="edge2" class="edge"><title>Node0x20b51e50&#45;&gt;Node0x20b4cca0</title>
<path fill="none" stroke="black" d="M427,-1062.16C427,-1052.45 427,-1043.06 427,-1034.85"/>
<polygon fill="black" stroke="black" points="430.5,-1034.8 427,-1024.8 423.5,-1034.8 430.5,-1034.8"/>
</g>
<!-- Node0x2952d4a0 -->
<g id="node4" class="node"><title>Node0x2952d4a0</title>
<polygon fill="none" stroke="black" points="251,-851.5 251,-934.5 463,-934.5 463,-851.5 251,-851.5"/>
<text text-anchor="start" x="259" y="-919.3" font-family="Times,serif" font-size="14.00">0x820d990:</text>
<text text-anchor="start" x="259" y="-904.3" font-family="Times,serif" font-size="14.00"> g30 = 156900</text>
<text text-anchor="start" x="259" y="-889.3" font-family="Times,serif" font-size="14.00"> g36 = v5</text>
<text text-anchor="start" x="259" y="-874.3" font-family="Times,serif" font-size="14.00"> imported_function_ord_0()</text>
<text text-anchor="start" x="259" y="-859.3" font-family="Times,serif" font-size="14.00"> v6 = g39</text>
</g>
<!-- Node0x20b4cca0&#45;&gt;Node0x2952d4a0 -->
<g id="edge3" class="edge"><title>Node0x20b4cca0&#45;&gt;Node0x2952d4a0</title>
<path fill="none" stroke="black" d="M329.332,-986.438C312.448,-981.374 298.526,-975.233 293,-968 286.724,-959.786 287.049,-951.295 291.191,-943.123"/>
<polygon fill="black" stroke="black" points="294.14,-945.01 296.773,-934.748 288.315,-941.128 294.14,-945.01"/>
<text text-anchor="middle" x="421" y="-956.8" font-family="Times,serif" font-size="14.00">*(IntToPtrCastExpr&lt;ptr&gt;(v4)) != 0</text>
</g>
<!-- Node0x20b4d120 -->
<g id="node5" class="node"><title>Node0x20b4d120</title>
<polygon fill="none" stroke="black" points="361,-670.5 361,-813.5 649,-813.5 649,-670.5 361,-670.5"/>
<text text-anchor="start" x="369" y="-798.3" font-family="Times,serif" font-size="14.00">0x820e4f0:</text>
<text text-anchor="start" x="369" y="-783.3" font-family="Times,serif" font-size="14.00"> g29 = v6</text>
<text text-anchor="start" x="369" y="-768.3" font-family="Times,serif" font-size="14.00"> function_16824()</text>
<text text-anchor="start" x="369" y="-753.3" font-family="Times,serif" font-size="14.00"> v7 = *(IntToPtrCastExpr&lt;ptr&gt;(g40))</text>
<text text-anchor="start" x="369" y="-738.3" font-family="Times,serif" font-size="14.00"> g37 = v7</text>
<text text-anchor="start" x="369" y="-723.3" font-family="Times,serif" font-size="14.00"> v8 = g29</text>
<text text-anchor="start" x="369" y="-708.3" font-family="Times,serif" font-size="14.00"> g39 = v8</text>
<text text-anchor="start" x="369" y="-693.3" font-family="Times,serif" font-size="14.00"> g9 = (v7 == 0)</text>
<text text-anchor="start" x="369" y="-678.3" font-family="Times,serif" font-size="14.00"> v9 = v8</text>
</g>
<!-- Node0x20b4cca0&#45;&gt;Node0x20b4d120 -->
<g id="edge4" class="edge"><title>Node0x20b4cca0&#45;&gt;Node0x20b4d120</title>
<path fill="none" stroke="black" d="M528.32,-986.409C536.278,-981.576 543.388,-975.536 549,-968 579.801,-926.635 568.151,-869.502 549.131,-823.16"/>
<polygon fill="black" stroke="black" points="552.255,-821.564 545.107,-813.744 545.818,-824.315 552.255,-821.564"/>
<text text-anchor="middle" x="698" y="-889.3" font-family="Times,serif" font-size="14.00">*(IntToPtrCastExpr&lt;ptr&gt;(v4)) == 0</text>
</g>
<!-- Node0x2952d4a0&#45;&gt;Node0x20b4d120 -->
<g id="edge5" class="edge"><title>Node0x2952d4a0&#45;&gt;Node0x20b4d120</title>
<path fill="none" stroke="black" d="M397.442,-851.285C406.829,-841.834 417.131,-831.462 427.525,-820.999"/>
<polygon fill="black" stroke="black" points="430.161,-823.311 434.725,-813.75 425.194,-818.378 430.161,-823.311"/>
</g>
<!-- Node0x20b4fa10 -->
<g id="node6" class="node"><title>Node0x20b4fa10</title>
<polygon fill="none" stroke="black" points="453,-594.5 453,-632.5 557,-632.5 557,-594.5 453,-594.5"/>
<text text-anchor="start" x="461" y="-617.3" font-family="Times,serif" font-size="14.00">0x82108a0:</text>
<text text-anchor="start" x="461" y="-602.3" font-family="Times,serif" font-size="14.00"> if (v7 != 0):</text>
</g>
<!-- Node0x20b4d120&#45;&gt;Node0x20b4fa10 -->
<g id="edge6" class="edge"><title>Node0x20b4d120&#45;&gt;Node0x20b4fa10</title>
<path fill="none" stroke="black" d="M505,-670.353C505,-660.594 505,-651.073 505,-642.737"/>
<polygon fill="black" stroke="black" points="508.5,-642.54 505,-632.54 501.5,-642.54 508.5,-642.54"/>
</g>
<!-- Node0x1e2e3010 -->
<g id="node7" class="node"><title>Node0x1e2e3010</title>
<polygon fill="none" stroke="black" points="293,-459.5 293,-542.5 505,-542.5 505,-459.5 293,-459.5"/>
<text text-anchor="start" x="301" y="-527.3" font-family="Times,serif" font-size="14.00">0x820fe80:</text>
<text text-anchor="start" x="301" y="-512.3" font-family="Times,serif" font-size="14.00"> g30 = (g38 &#45; 8112)</text>
<text text-anchor="start" x="301" y="-497.3" font-family="Times,serif" font-size="14.00"> g36 = v8</text>
<text text-anchor="start" x="301" y="-482.3" font-family="Times,serif" font-size="14.00"> imported_function_ord_0()</text>
<text text-anchor="start" x="301" y="-467.3" font-family="Times,serif" font-size="14.00"> v9 = g39</text>
</g>
<!-- Node0x20b4fa10&#45;&gt;Node0x1e2e3010 -->
<g id="edge7" class="edge"><title>Node0x20b4fa10&#45;&gt;Node0x1e2e3010</title>
<path fill="none" stroke="black" d="M487.496,-594.253C475.975,-582.242 460.311,-565.914 445.363,-550.331"/>
<polygon fill="black" stroke="black" points="447.552,-547.557 438.104,-542.764 442.5,-552.403 447.552,-547.557"/>
<text text-anchor="middle" x="494" y="-564.8" font-family="Times,serif" font-size="14.00">v7 != 0</text>
</g>
<!-- Node0x20b50800 -->
<g id="node8" class="node"><title>Node0x20b50800</title>
<polygon fill="none" stroke="black" points="378,-278.5 378,-421.5 620,-421.5 620,-278.5 378,-278.5"/>
<text text-anchor="start" x="386" y="-406.3" font-family="Times,serif" font-size="14.00">0x8210a20:</text>
<text text-anchor="start" x="386" y="-391.3" font-family="Times,serif" font-size="14.00"> g29 = v9</text>
<text text-anchor="start" x="386" y="-376.3" font-family="Times,serif" font-size="14.00"> g38 = v1</text>
<text text-anchor="start" x="386" y="-361.3" font-family="Times,serif" font-size="14.00"> g39 = v2</text>
<text text-anchor="start" x="386" y="-346.3" font-family="Times,serif" font-size="14.00"> g40 = v3</text>
<text text-anchor="start" x="386" y="-331.3" font-family="Times,serif" font-size="14.00"> v10</text>
<text text-anchor="start" x="386" y="-316.3" font-family="Times,serif" font-size="14.00"> g34 = v10</text>
<text text-anchor="start" x="386" y="-301.3" font-family="Times,serif" font-size="14.00"> IntToPtrCastExpr&lt;ptr&gt;(g35)()</text>
<text text-anchor="start" x="386" y="-286.3" font-family="Times,serif" font-size="14.00"> v11 = (g31 % 256)</text>
</g>
<!-- Node0x20b4fa10&#45;&gt;Node0x20b50800 -->
<g id="edge8" class="edge"><title>Node0x20b4fa10&#45;&gt;Node0x20b50800</title>
<path fill="none" stroke="black" d="M517.288,-594.309C520.436,-588.682 523.387,-582.3 525,-576 526.653,-569.542 525.358,-567.657 525,-561 522.701,-518.233 517.103,-470.867 511.689,-431.96"/>
<polygon fill="black" stroke="black" points="515.11,-431.153 510.244,-421.741 508.179,-432.133 515.11,-431.153"/>
<text text-anchor="middle" x="553" y="-497.3" font-family="Times,serif" font-size="14.00">v7 == 0</text>
</g>
<!-- Node0x1e2e3010&#45;&gt;Node0x20b50800 -->
<g id="edge9" class="edge"><title>Node0x1e2e3010&#45;&gt;Node0x20b50800</title>
<path fill="none" stroke="black" d="M426.325,-459.285C432.425,-450.197 439.095,-440.259 445.842,-430.206"/>
<polygon fill="black" stroke="black" points="448.85,-432.004 451.517,-421.75 443.038,-428.103 448.85,-432.004"/>
</g>
<!-- Node0x20b52700 -->
<g id="node9" class="node"><title>Node0x20b52700</title>
<polygon fill="none" stroke="black" points="448.5,-202.5 448.5,-240.5 549.5,-240.5 549.5,-202.5 448.5,-202.5"/>
<text text-anchor="start" x="456.5" y="-225.3" font-family="Times,serif" font-size="14.00">0x82136a0:</text>
<text text-anchor="start" x="456.5" y="-210.3" font-family="Times,serif" font-size="14.00"> if g9:</text>
</g>
<!-- Node0x20b50800&#45;&gt;Node0x20b52700 -->
<g id="edge10" class="edge"><title>Node0x20b50800&#45;&gt;Node0x20b52700</title>
<path fill="none" stroke="black" d="M499,-278.353C499,-268.594 499,-259.073 499,-250.737"/>
<polygon fill="black" stroke="black" points="502.5,-250.54 499,-240.54 495.5,-250.54 502.5,-250.54"/>
</g>
<!-- Node0x2952dcc0 -->
<g id="node10" class="node"><title>Node0x2952dcc0</title>
<polygon fill="none" stroke="black" points="0,-97.5 0,-150.5 540,-150.5 540,-97.5 0,-97.5"/>
<text text-anchor="start" x="8" y="-135.3" font-family="Times,serif" font-size="14.00">0x8212c40:</text>
<text text-anchor="start" x="8" y="-120.3" font-family="Times,serif" font-size="14.00"> g37 = (g30 &amp; (g38 &gt;&gt; (0 if (v11 == 0) else (31 if (v11 &gt; 31) else v11))))</text>
<text text-anchor="start" x="8" y="-105.3" font-family="Times,serif" font-size="14.00"> g29 = (g29 &amp; (g42 / 2))</text>
</g>
<!-- Node0x20b52700&#45;&gt;Node0x2952dcc0 -->
<g id="edge11" class="edge"><title>Node0x20b52700&#45;&gt;Node0x2952dcc0</title>
<path fill="none" stroke="black" d="M455.658,-202.425C423.263,-188.915 378.279,-170.156 340.704,-154.486"/>
<polygon fill="black" stroke="black" points="341.899,-151.192 331.323,-150.573 339.205,-157.653 341.899,-151.192"/>
<text text-anchor="middle" x="415.5" y="-172.8" font-family="Times,serif" font-size="14.00">g9</text>
</g>
<!-- Node0x20b50d80 -->
<g id="node11" class="node"><title>Node0x20b50d80</title>
<polygon fill="none" stroke="black" points="466,-23.5 466,-59.5 520,-59.5 520,-23.5 466,-23.5"/>
<text text-anchor="start" x="474" y="-37.8" font-family="Times,serif" font-size="14.00">exit:</text>
</g>
<!-- Node0x20b52700&#45;&gt;Node0x20b50d80 -->
<g id="edge12" class="edge"><title>Node0x20b52700&#45;&gt;Node0x20b50d80</title>
<path fill="none" stroke="black" d="M517.065,-202.258C528.669,-189.194 542.707,-170.523 549,-151 556.363,-128.157 558.335,-119.11 549,-97 544.053,-85.2829 535.219,-74.8387 526.009,-66.3064"/>
<polygon fill="black" stroke="black" points="528.113,-63.4988 518.26,-59.603 523.533,-68.7926 528.113,-63.4988"/>
<text text-anchor="middle" x="583.5" y="-120.3" font-family="Times,serif" font-size="14.00">not (g9)</text>
</g>
<!-- Node0x2952dcc0&#45;&gt;Node0x20b50d80 -->
<g id="edge13" class="edge"><title>Node0x2952dcc0&#45;&gt;Node0x20b50d80</title>
<path fill="none" stroke="black" d="M340.865,-97.4187C379.187,-83.5851 424.927,-67.0734 456.18,-55.7917"/>
<polygon fill="black" stroke="black" points="457.572,-59.0101 465.79,-52.3226 455.195,-52.426 457.572,-59.0101"/>
</g>
</g>
</svg>
