<?xml version="1.0" encoding="UTF-8" standalone="no"?>
<!DOCTYPE svg PUBLIC "-//W3C//DTD SVG 1.1//EN"
 "http://www.w3.org/Graphics/SVG/1.1/DTD/svg11.dtd">
<!-- Generated by graphviz version 2.38.0 (20140413.2041)
 -->
<!-- Title: Control&#45;flow graph for function &#39;function_12198()&#39;. Pages: 1 -->
<svg width="517pt" height="970pt"
 viewBox="0.00 0.00 517.00 970.00" xmlns="http://www.w3.org/2000/svg" xmlns:xlink="http://www.w3.org/1999/xlink">
<g id="graph0" class="graph" transform="scale(1 1) rotate(0) translate(4 966)">
<title>Control&#45;flow graph for function &#39;function_12198()&#39;.</title>
<polygon fill="white" stroke="none" points="-4,4 -4,-966 513,-966 513,4 -4,4"/>
<text text-anchor="middle" x="254.5" y="-7.8" font-family="Times,serif" font-size="14.00">Control&#45;flow graph for function &#39;function_12198()&#39;.</text>
<!-- Node0x2715aaf0 -->
<g id="node1" class="node"><title>Node0x2715aaf0</title>
<polygon fill="none" stroke="black" points="225,-925.5 225,-961.5 284,-961.5 284,-925.5 225,-925.5"/>
<text text-anchor="start" x="233" y="-939.8" font-family="Times,serif" font-size="14.00">entry:</text>
</g>
<!-- Node0x151a5210 -->
<g id="node2" class="node"><title>Node0x151a5210</title>
<polygon fill="none" stroke="black" points="-2.84217e-14,-669.5 -2.84217e-14,-887.5 509,-887.5 509,-669.5 -2.84217e-14,-669.5"/>
<text text-anchor="start" x="8" y="-872.3" font-family="Times,serif" font-size="14.00">0x126bbd70:</text>
<text text-anchor="start" x="8" y="-857.3" font-family="Times,serif" font-size="14.00"> v1 = *(IntToPtrCastExpr&lt;ptr&gt;((g30 + 8)))</text>
<text text-anchor="start" x="8" y="-842.3" font-family="Times,serif" font-size="14.00"> g37 = v1</text>
<text text-anchor="start" x="8" y="-827.3" font-family="Times,serif" font-size="14.00"> g9 = ((v1 &amp; 192) == 0)</text>
<text text-anchor="start" x="8" y="-812.3" font-family="Times,serif" font-size="14.00"> v2</text>
<text text-anchor="start" x="8" y="-797.3" font-family="Times,serif" font-size="14.00"> g34 = v2</text>
<text text-anchor="start" x="8" y="-782.3" font-family="Times,serif" font-size="14.00"> IntToPtrCastExpr&lt;ptr&gt;(ExtCastExpr&lt;int32&gt;(((v1 &amp; 192) == 0)))()</text>
<text text-anchor="start" x="8" y="-767.3" font-family="Times,serif" font-size="14.00"> g29 = *(IntToPtrCastExpr&lt;ptr&gt;((g29 + 8)))</text>
<text text-anchor="start" x="8" y="-752.3" font-family="Times,serif" font-size="14.00"> function_6604()</text>
<text text-anchor="start" x="8" y="-737.3" font-family="Times,serif" font-size="14.00"> v3 = g38</text>
<text text-anchor="start" x="8" y="-722.3" font-family="Times,serif" font-size="14.00"> v4 = *(IntToPtrCastExpr&lt;ptr&gt;((v3 + 25)))</text>
<text text-anchor="start" x="8" y="-707.3" font-family="Times,serif" font-size="14.00"> g6 = True</text>
<text text-anchor="start" x="8" y="-692.3" font-family="Times,serif" font-size="14.00"> g9 = (v4 == 0)</text>
<text text-anchor="start" x="8" y="-677.3" font-family="Times,serif" font-size="14.00"> v5</text>
</g>
<!-- Node0x2715aaf0&#45;&gt;Node0x151a5210 -->
<g id="edge1" class="edge"><title>Node0x2715aaf0&#45;&gt;Node0x151a5210</title>
<path fill="none" stroke="black" d="M254.5,-925.364C254.5,-917.931 254.5,-908.537 254.5,-898.113"/>
<polygon fill="black" stroke="black" points="258,-897.834 254.5,-887.834 251,-897.834 258,-897.834"/>
</g>
<!-- Node0x1dd06230 -->
<g id="node3" class="node"><title>Node0x1dd06230</title>
<polygon fill="none" stroke="black" points="202.5,-578.5 202.5,-631.5 306.5,-631.5 306.5,-578.5 202.5,-578.5"/>
<text text-anchor="start" x="210.5" y="-616.3" font-family="Times,serif" font-size="14.00">0x7deef70:</text>
<text text-anchor="start" x="210.5" y="-601.3" font-family="Times,serif" font-size="14.00"> if (v4 != 0):</text>
<text text-anchor="start" x="210.5" y="-586.3" font-family="Times,serif" font-size="14.00"> else:</text>
</g>
<!-- Node0x151a5210&#45;&gt;Node0x1dd06230 -->
<g id="edge2" class="edge"><title>Node0x151a5210&#45;&gt;Node0x1dd06230</title>
<path fill="none" stroke="black" d="M254.5,-669.373C254.5,-659.591 254.5,-650.226 254.5,-641.839"/>
<polygon fill="black" stroke="black" points="258,-641.78 254.5,-631.78 251,-641.78 258,-641.78"/>
</g>
<!-- Node0x151aaff0 -->
<g id="node4" class="node"><title>Node0x151aaff0</title>
<polygon fill="none" stroke="black" points="115,-458.5 115,-526.5 258,-526.5 258,-458.5 115,-458.5"/>
<text text-anchor="start" x="123" y="-511.3" font-family="Times,serif" font-size="14.00">0x7dee430:</text>
<text text-anchor="start" x="123" y="-496.3" font-family="Times,serif" font-size="14.00"> g29 = v3</text>
<text text-anchor="start" x="123" y="-481.3" font-family="Times,serif" font-size="14.00"> function_12138()</text>
<text text-anchor="start" x="123" y="-466.3" font-family="Times,serif" font-size="14.00"> v5 = g38</text>
</g>
<!-- Node0x1dd06230&#45;&gt;Node0x151aaff0 -->
<g id="edge3" class="edge"><title>Node0x1dd06230&#45;&gt;Node0x151aaff0</title>
<path fill="none" stroke="black" d="M238.729,-578.371C230.866,-565.594 221.156,-549.817 212.251,-535.345"/>
<polygon fill="black" stroke="black" points="215.055,-533.224 206.833,-526.541 209.093,-536.892 215.055,-533.224"/>
<text text-anchor="middle" x="254.5" y="-548.8" font-family="Times,serif" font-size="14.00">v4 != 0</text>
</g>
<!-- Node0x151a68b0 -->
<g id="node5" class="node"><title>Node0x151a68b0</title>
<polygon fill="none" stroke="black" points="276,-473.5 276,-511.5 369,-511.5 369,-473.5 276,-473.5"/>
<text text-anchor="start" x="284" y="-496.3" font-family="Times,serif" font-size="14.00">0x7def0f0:</text>
<text text-anchor="start" x="284" y="-481.3" font-family="Times,serif" font-size="14.00"> v5 = v3</text>
</g>
<!-- Node0x1dd06230&#45;&gt;Node0x151a68b0 -->
<g id="edge4" class="edge"><title>Node0x1dd06230&#45;&gt;Node0x151a68b0</title>
<path fill="none" stroke="black" d="M273.324,-578.251C277.457,-572.335 281.723,-566.014 285.5,-560 293.507,-547.25 301.717,-532.675 308.362,-520.425"/>
<polygon fill="black" stroke="black" points="311.465,-522.046 313.11,-511.58 305.297,-518.736 311.465,-522.046"/>
<text text-anchor="middle" x="323.5" y="-548.8" font-family="Times,serif" font-size="14.00">v4 == 0</text>
</g>
<!-- Node0x151a7160 -->
<g id="node6" class="node"><title>Node0x151a7160</title>
<polygon fill="none" stroke="black" points="98.5,-97.5 98.5,-420.5 436.5,-420.5 436.5,-97.5 98.5,-97.5"/>
<text text-anchor="start" x="106.5" y="-405.3" font-family="Times,serif" font-size="14.00">0x190ddbb0:</text>
<text text-anchor="start" x="106.5" y="-390.3" font-family="Times,serif" font-size="14.00"> v6 = IntToPtrCastExpr&lt;ptr&gt;((v5 + 28))</text>
<text text-anchor="start" x="106.5" y="-375.3" font-family="Times,serif" font-size="14.00"> g29 = v5</text>
<text text-anchor="start" x="106.5" y="-360.3" font-family="Times,serif" font-size="14.00"> v7 = (*(v6) | 1)</text>
<text text-anchor="start" x="106.5" y="-345.3" font-family="Times,serif" font-size="14.00"> g37 = v7</text>
<text text-anchor="start" x="106.5" y="-330.3" font-family="Times,serif" font-size="14.00"> *(v6) = v7</text>
<text text-anchor="start" x="106.5" y="-315.3" font-family="Times,serif" font-size="14.00"> function_1186c()</text>
<text text-anchor="start" x="106.5" y="-300.3" font-family="Times,serif" font-size="14.00"> g36 = 0</text>
<text text-anchor="start" x="106.5" y="-285.3" font-family="Times,serif" font-size="14.00"> v8 = g38</text>
<text text-anchor="start" x="106.5" y="-270.3" font-family="Times,serif" font-size="14.00"> g29 = v8</text>
<text text-anchor="start" x="106.5" y="-255.3" font-family="Times,serif" font-size="14.00"> g30 = g39</text>
<text text-anchor="start" x="106.5" y="-240.3" font-family="Times,serif" font-size="14.00"> g37 = g40</text>
<text text-anchor="start" x="106.5" y="-225.3" font-family="Times,serif" font-size="14.00"> *(IntToPtrCastExpr&lt;ptr&gt;((v8 + 24))) = 0</text>
<text text-anchor="start" x="106.5" y="-210.3" font-family="Times,serif" font-size="14.00"> v9 = g34</text>
<text text-anchor="start" x="106.5" y="-195.3" font-family="Times,serif" font-size="14.00"> g38 = *(IntToPtrCastExpr&lt;ptr&gt;((v9 + 4)))</text>
<text text-anchor="start" x="106.5" y="-180.3" font-family="Times,serif" font-size="14.00"> g39 = *(IntToPtrCastExpr&lt;ptr&gt;((v9 + 8)))</text>
<text text-anchor="start" x="106.5" y="-165.3" font-family="Times,serif" font-size="14.00"> g40 = *(IntToPtrCastExpr&lt;ptr&gt;((v9 + 12)))</text>
<text text-anchor="start" x="106.5" y="-150.3" font-family="Times,serif" font-size="14.00"> g32 = *(IntToPtrCastExpr&lt;ptr&gt;((v9 + 16)))</text>
<text text-anchor="start" x="106.5" y="-135.3" font-family="Times,serif" font-size="14.00"> g34 = *(IntToPtrCastExpr&lt;ptr&gt;((v9 + 20)))</text>
<text text-anchor="start" x="106.5" y="-120.3" font-family="Times,serif" font-size="14.00"> g35 = *(IntToPtrCastExpr&lt;ptr&gt;((v9 + 24)))</text>
<text text-anchor="start" x="106.5" y="-105.3" font-family="Times,serif" font-size="14.00"> function_113e0()</text>
</g>
<!-- Node0x151aaff0&#45;&gt;Node0x151a7160 -->
<g id="edge5" class="edge"><title>Node0x151aaff0&#45;&gt;Node0x151a7160</title>
<path fill="none" stroke="black" d="M198.105,-458.332C201.019,-450.004 204.349,-440.486 207.938,-430.229"/>
<polygon fill="black" stroke="black" points="211.303,-431.209 211.302,-420.615 204.696,-428.897 211.303,-431.209"/>
</g>
<!-- Node0x151a68b0&#45;&gt;Node0x151a7160 -->
<g id="edge6" class="edge"><title>Node0x151a68b0&#45;&gt;Node0x151a7160</title>
<path fill="none" stroke="black" d="M318.184,-473.335C315.623,-462.553 312.095,-447.706 308.083,-430.819"/>
<polygon fill="black" stroke="black" points="311.386,-429.577 305.669,-420.656 304.575,-431.195 311.386,-429.577"/>
</g>
<!-- Node0x151a61b0 -->
<g id="node7" class="node"><title>Node0x151a61b0</title>
<polygon fill="none" stroke="black" points="240.5,-23.5 240.5,-59.5 294.5,-59.5 294.5,-23.5 240.5,-23.5"/>
<text text-anchor="start" x="248.5" y="-37.8" font-family="Times,serif" font-size="14.00">exit:</text>
</g>
<!-- Node0x151a7160&#45;&gt;Node0x151a61b0 -->
<g id="edge7" class="edge"><title>Node0x151a7160&#45;&gt;Node0x151a61b0</title>
<path fill="none" stroke="black" d="M267.5,-97.4373C267.5,-87.1305 267.5,-77.6801 267.5,-69.6314"/>
<polygon fill="black" stroke="black" points="271,-69.5759 267.5,-59.576 264,-69.576 271,-69.5759"/>
</g>
</g>
</svg>
