<?xml version="1.0" encoding="UTF-8" standalone="no"?>
<!DOCTYPE svg PUBLIC "-//W3C//DTD SVG 1.1//EN"
 "http://www.w3.org/Graphics/SVG/1.1/DTD/svg11.dtd">
<!-- Generated by graphviz version 2.38.0 (20140413.2041)
 -->
<!-- Title: Control&#45;flow graph for function &#39;function_1c898()&#39;. Pages: 1 -->
<svg width="457pt" height="471pt"
 viewBox="0.00 0.00 457.00 471.00" xmlns="http://www.w3.org/2000/svg" xmlns:xlink="http://www.w3.org/1999/xlink">
<g id="graph0" class="graph" transform="scale(1 1) rotate(0) translate(4 467)">
<title>Control&#45;flow graph for function &#39;function_1c898()&#39;.</title>
<polygon fill="white" stroke="none" points="-4,4 -4,-467 453,-467 453,4 -4,4"/>
<text text-anchor="middle" x="224.5" y="-7.8" font-family="Times,serif" font-size="14.00">Control&#45;flow graph for function &#39;function_1c898()&#39;.</text>
<!-- Node0x1fae37b0 -->
<g id="node1" class="node"><title>Node0x1fae37b0</title>
<polygon fill="none" stroke="black" points="195,-426.5 195,-462.5 254,-462.5 254,-426.5 195,-426.5"/>
<text text-anchor="start" x="203" y="-440.8" font-family="Times,serif" font-size="14.00">entry:</text>
</g>
<!-- Node0x1fae4520 -->
<g id="node2" class="node"><title>Node0x1fae4520</title>
<polygon fill="none" stroke="black" points="0,-96.5 0,-389.5 449,-389.5 449,-96.5 0,-96.5"/>
<text text-anchor="start" x="8" y="-374.3" font-family="Times,serif" font-size="14.00">0x32985930:</text>
<text text-anchor="start" x="8" y="-359.3" font-family="Times,serif" font-size="14.00"> v1 = g29</text>
<text text-anchor="start" x="8" y="-344.3" font-family="Times,serif" font-size="14.00"> g8 = False</text>
<text text-anchor="start" x="8" y="-329.3" font-family="Times,serif" font-size="14.00"> g7 = (v1 &lt; 0)</text>
<text text-anchor="start" x="8" y="-314.3" font-family="Times,serif" font-size="14.00"> g9 = (v1 == 0)</text>
<text text-anchor="start" x="8" y="-299.3" font-family="Times,serif" font-size="14.00"> v2</text>
<text text-anchor="start" x="8" y="-284.3" font-family="Times,serif" font-size="14.00"> g34 = v2</text>
<text text-anchor="start" x="8" y="-269.3" font-family="Times,serif" font-size="14.00"> IntToPtrCastExpr&lt;ptr&gt;(ExtCastExpr&lt;int32&gt;((v1 == 0)))()</text>
<text text-anchor="start" x="8" y="-254.3" font-family="Times,serif" font-size="14.00"> v3 = (g29 &#45; 64)</text>
<text text-anchor="start" x="8" y="-239.3" font-family="Times,serif" font-size="14.00"> g38 = v3</text>
<text text-anchor="start" x="8" y="-224.3" font-family="Times,serif" font-size="14.00"> g29 = v3</text>
<text text-anchor="start" x="8" y="-209.3" font-family="Times,serif" font-size="14.00"> function_1c7c8()</text>
<text text-anchor="start" x="8" y="-194.3" font-family="Times,serif" font-size="14.00"> v4 = g38</text>
<text text-anchor="start" x="8" y="-179.3" font-family="Times,serif" font-size="14.00"> v5 = g34</text>
<text text-anchor="start" x="8" y="-164.3" font-family="Times,serif" font-size="14.00"> g38 = *(IntToPtrCastExpr&lt;ptr&gt;((v5 + 4)))</text>
<text text-anchor="start" x="8" y="-149.3" font-family="Times,serif" font-size="14.00"> g32 = *(IntToPtrCastExpr&lt;ptr&gt;((v5 + 8)))</text>
<text text-anchor="start" x="8" y="-134.3" font-family="Times,serif" font-size="14.00"> g34 = *(IntToPtrCastExpr&lt;ptr&gt;((v5 + 12)))</text>
<text text-anchor="start" x="8" y="-119.3" font-family="Times,serif" font-size="14.00"> g35 = *(IntToPtrCastExpr&lt;ptr&gt;((v5 + 16)))</text>
<text text-anchor="start" x="8" y="-104.3" font-family="Times,serif" font-size="14.00"> free(IntToPtrCastExpr&lt;ptr&gt;(v4))</text>
</g>
<!-- Node0x1fae37b0&#45;&gt;Node0x1fae4520 -->
<g id="edge1" class="edge"><title>Node0x1fae37b0&#45;&gt;Node0x1fae4520</title>
<path fill="none" stroke="black" d="M224.5,-426.491C224.5,-419.279 224.5,-410.145 224.5,-399.824"/>
<polygon fill="black" stroke="black" points="228,-399.59 224.5,-389.59 221,-399.591 228,-399.59"/>
</g>
<!-- Node0x42b61080 -->
<g id="node3" class="node"><title>Node0x42b61080</title>
<polygon fill="none" stroke="black" points="197.5,-23.5 197.5,-59.5 251.5,-59.5 251.5,-23.5 197.5,-23.5"/>
<text text-anchor="start" x="205.5" y="-37.8" font-family="Times,serif" font-size="14.00">exit:</text>
</g>
<!-- Node0x1fae4520&#45;&gt;Node0x42b61080 -->
<g id="edge2" class="edge"><title>Node0x1fae4520&#45;&gt;Node0x42b61080</title>
<path fill="none" stroke="black" d="M224.5,-96.4876C224.5,-86.7125 224.5,-77.686 224.5,-69.9233"/>
<polygon fill="black" stroke="black" points="228,-69.8444 224.5,-59.8445 221,-69.8445 228,-69.8444"/>
</g>
</g>
</svg>
