<?xml version="1.0" encoding="UTF-8" standalone="no"?>
<!DOCTYPE svg PUBLIC "-//W3C//DTD SVG 1.1//EN"
 "http://www.w3.org/Graphics/SVG/1.1/DTD/svg11.dtd">
<!-- Generated by graphviz version 2.38.0 (20140413.2041)
 -->
<!-- Title: Control&#45;flow graph for function &#39;function_23d9c()&#39;. Pages: 1 -->
<svg width="624pt" height="670pt"
 viewBox="0.00 0.00 624.00 670.00" xmlns="http://www.w3.org/2000/svg" xmlns:xlink="http://www.w3.org/1999/xlink">
<g id="graph0" class="graph" transform="scale(1 1) rotate(0) translate(4 666)">
<title>Control&#45;flow graph for function &#39;function_23d9c()&#39;.</title>
<polygon fill="white" stroke="none" points="-4,4 -4,-666 620,-666 620,4 -4,4"/>
<text text-anchor="middle" x="308" y="-7.8" font-family="Times,serif" font-size="14.00">Control&#45;flow graph for function &#39;function_23d9c()&#39;.</text>
<!-- Node0x466083d0 -->
<g id="node1" class="node"><title>Node0x466083d0</title>
<polygon fill="none" stroke="black" points="252.5,-625.5 252.5,-661.5 311.5,-661.5 311.5,-625.5 252.5,-625.5"/>
<text text-anchor="start" x="260.5" y="-639.8" font-family="Times,serif" font-size="14.00">entry:</text>
</g>
<!-- Node0x4660c170 -->
<g id="node2" class="node"><title>Node0x4660c170</title>
<polygon fill="none" stroke="black" points="195.5,-519.5 195.5,-587.5 368.5,-587.5 368.5,-519.5 195.5,-519.5"/>
<text text-anchor="start" x="203.5" y="-572.3" font-family="Times,serif" font-size="14.00">0x393cbe10:</text>
<text text-anchor="start" x="203.5" y="-557.3" font-family="Times,serif" font-size="14.00"> v1 = g29</text>
<text text-anchor="start" x="203.5" y="-542.3" font-family="Times,serif" font-size="14.00"> v2 = ((&#45;2 &#45; v1) + g39)</text>
<text text-anchor="start" x="203.5" y="-527.3" font-family="Times,serif" font-size="14.00"> v3</text>
</g>
<!-- Node0x466083d0&#45;&gt;Node0x4660c170 -->
<g id="edge1" class="edge"><title>Node0x466083d0&#45;&gt;Node0x4660c170</title>
<path fill="none" stroke="black" d="M282,-625.114C282,-617.158 282,-607.343 282,-597.588"/>
<polygon fill="black" stroke="black" points="285.5,-597.524 282,-587.524 278.5,-597.524 285.5,-597.524"/>
</g>
<!-- Node0x310ab910 -->
<g id="node3" class="node"><title>Node0x310ab910</title>
<polygon fill="none" stroke="black" points="154.5,-428.5 154.5,-481.5 409.5,-481.5 409.5,-428.5 154.5,-428.5"/>
<text text-anchor="start" x="162.5" y="-466.3" font-family="Times,serif" font-size="14.00">0xa4772f0:</text>
<text text-anchor="start" x="162.5" y="-451.3" font-family="Times,serif" font-size="14.00"> if ((g39 != v1) and (v2 &lt;= g39)):</text>
<text text-anchor="start" x="162.5" y="-436.3" font-family="Times,serif" font-size="14.00"> else:</text>
</g>
<!-- Node0x4660c170&#45;&gt;Node0x310ab910 -->
<g id="edge2" class="edge"><title>Node0x4660c170&#45;&gt;Node0x310ab910</title>
<path fill="none" stroke="black" d="M282,-519.29C282,-510.434 282,-500.827 282,-491.837"/>
<polygon fill="black" stroke="black" points="285.5,-491.648 282,-481.648 278.5,-491.648 285.5,-491.648"/>
</g>
<!-- Node0x4660cbe0 -->
<g id="node4" class="node"><title>Node0x4660cbe0</title>
<polygon fill="none" stroke="black" points="30.5,-278.5 30.5,-376.5 305.5,-376.5 305.5,-278.5 30.5,-278.5"/>
<text text-anchor="start" x="38.5" y="-361.3" font-family="Times,serif" font-size="14.00">0xa475ad0:</text>
<text text-anchor="start" x="38.5" y="-346.3" font-family="Times,serif" font-size="14.00"> g42 = (g37 + g42)</text>
<text text-anchor="start" x="38.5" y="-331.3" font-family="Times,serif" font-size="14.00"> v4 = (g40 + v1)</text>
<text text-anchor="start" x="38.5" y="-316.3" font-family="Times,serif" font-size="14.00"> g29 = v4</text>
<text text-anchor="start" x="38.5" y="-301.3" font-family="Times,serif" font-size="14.00"> g8 = (((v4 ^ v1) &amp; (v4 ^ g40)) &lt; 0)</text>
<text text-anchor="start" x="38.5" y="-286.3" font-family="Times,serif" font-size="14.00"> v3 = (v4 &lt; v1)</text>
</g>
<!-- Node0x310ab910&#45;&gt;Node0x4660cbe0 -->
<g id="edge3" class="edge"><title>Node0x310ab910&#45;&gt;Node0x4660cbe0</title>
<path fill="none" stroke="black" d="M187.683,-428.401C180.46,-423.336 174.035,-417.268 169,-410 164.245,-403.136 161.629,-395.107 160.418,-386.813"/>
<polygon fill="black" stroke="black" points="163.889,-386.31 159.589,-376.627 156.912,-386.878 163.889,-386.31"/>
<text text-anchor="middle" x="271.5" y="-398.8" font-family="Times,serif" font-size="14.00">(g39 != v1) and (v2 &lt;= g39)</text>
</g>
<!-- Node0x4660cf50 -->
<g id="node5" class="node"><title>Node0x4660cf50</title>
<polygon fill="none" stroke="black" points="323.5,-308.5 323.5,-346.5 470.5,-346.5 470.5,-308.5 323.5,-308.5"/>
<text text-anchor="start" x="331.5" y="-331.3" font-family="Times,serif" font-size="14.00">0xa477640:</text>
<text text-anchor="start" x="331.5" y="-316.3" font-family="Times,serif" font-size="14.00"> v3 = (v2 &lt;= g39)</text>
</g>
<!-- Node0x310ab910&#45;&gt;Node0x4660cf50 -->
<g id="edge4" class="edge"><title>Node0x310ab910&#45;&gt;Node0x4660cf50</title>
<path fill="none" stroke="black" d="M352.401,-428.417C360.471,-423.269 367.956,-417.178 374,-410 386.548,-395.099 392.268,-373.79 394.867,-356.698"/>
<polygon fill="black" stroke="black" points="398.35,-357.053 396.115,-346.696 391.404,-356.186 398.35,-357.053"/>
<text text-anchor="middle" x="476" y="-398.8" font-family="Times,serif" font-size="14.00">(g39 == v1) or (v2 &gt; g39)</text>
</g>
<!-- Node0x4660c070 -->
<g id="node6" class="node"><title>Node0x4660c070</title>
<polygon fill="none" stroke="black" points="0,-97.5 0,-240.5 616,-240.5 616,-97.5 0,-97.5"/>
<text text-anchor="start" x="8" y="-225.3" font-family="Times,serif" font-size="14.00">0xa477c60:</text>
<text text-anchor="start" x="8" y="-210.3" font-family="Times,serif" font-size="14.00"> g30 = g31</text>
<text text-anchor="start" x="8" y="-195.3" font-family="Times,serif" font-size="14.00"> v5</text>
<text text-anchor="start" x="8" y="-180.3" font-family="Times,serif" font-size="14.00"> g36 = v5</text>
<text text-anchor="start" x="8" y="-165.3" font-family="Times,serif" font-size="14.00"> v6 = (g43 &lt;&lt; g31)</text>
<text text-anchor="start" x="8" y="-150.3" font-family="Times,serif" font-size="14.00"> g38 = v6</text>
<text text-anchor="start" x="8" y="-135.3" font-family="Times,serif" font-size="14.00"> g7 = (v6 &lt; 0)</text>
<text text-anchor="start" x="8" y="-120.3" font-family="Times,serif" font-size="14.00"> g9 = (v6 == 0)</text>
<text text-anchor="start" x="8" y="-105.3" font-family="Times,serif" font-size="14.00"> g6 = ((ExtCastExpr&lt;int32&gt;(v3) if (g31 == 0) else ((g43 &gt;&gt; (32 &#45; g31)) % 2)) != 0)</text>
</g>
<!-- Node0x4660cbe0&#45;&gt;Node0x4660c070 -->
<g id="edge5" class="edge"><title>Node0x4660cbe0&#45;&gt;Node0x4660c070</title>
<path fill="none" stroke="black" d="M211.147,-278.268C219.745,-268.656 228.981,-258.332 238.212,-248.013"/>
<polygon fill="black" stroke="black" points="240.865,-250.297 244.923,-240.511 235.647,-245.63 240.865,-250.297"/>
</g>
<!-- Node0x4660cf50&#45;&gt;Node0x4660c070 -->
<g id="edge6" class="edge"><title>Node0x4660cf50&#45;&gt;Node0x4660c070</title>
<path fill="none" stroke="black" d="M386.616,-308.241C378.196,-293.435 365.704,-271.468 353.143,-249.381"/>
<polygon fill="black" stroke="black" points="356.133,-247.558 348.147,-240.595 350.048,-251.018 356.133,-247.558"/>
</g>
<!-- Node0x4660ba70 -->
<g id="node7" class="node"><title>Node0x4660ba70</title>
<polygon fill="none" stroke="black" points="281,-23.5 281,-59.5 335,-59.5 335,-23.5 281,-23.5"/>
<text text-anchor="start" x="289" y="-37.8" font-family="Times,serif" font-size="14.00">exit:</text>
</g>
<!-- Node0x4660c070&#45;&gt;Node0x4660ba70 -->
<g id="edge7" class="edge"><title>Node0x4660c070&#45;&gt;Node0x4660ba70</title>
<path fill="none" stroke="black" d="M308,-97.181C308,-87.439 308,-77.9608 308,-69.7068"/>
<polygon fill="black" stroke="black" points="311.5,-69.642 308,-59.642 304.5,-69.6421 311.5,-69.642"/>
</g>
</g>
</svg>
