<?xml version="1.0" encoding="UTF-8" standalone="no"?>
<!DOCTYPE svg PUBLIC "-//W3C//DTD SVG 1.1//EN"
 "http://www.w3.org/Graphics/SVG/1.1/DTD/svg11.dtd">
<!-- Generated by graphviz version 2.38.0 (20140413.2041)
 -->
<!-- Title: Control&#45;flow graph for function &#39;function_bfec()&#39;. Pages: 1 -->
<svg width="962pt" height="759pt"
 viewBox="0.00 0.00 961.50 759.00" xmlns="http://www.w3.org/2000/svg" xmlns:xlink="http://www.w3.org/1999/xlink">
<g id="graph0" class="graph" transform="scale(1 1) rotate(0) translate(4 755)">
<title>Control&#45;flow graph for function &#39;function_bfec()&#39;.</title>
<polygon fill="white" stroke="none" points="-4,4 -4,-755 957.5,-755 957.5,4 -4,4"/>
<text text-anchor="middle" x="476.75" y="-7.8" font-family="Times,serif" font-size="14.00">Control&#45;flow graph for function &#39;function_bfec()&#39;.</text>
<!-- Node0x2993ed60 -->
<g id="node1" class="node"><title>Node0x2993ed60</title>
<polygon fill="none" stroke="black" points="338,-714.5 338,-750.5 397,-750.5 397,-714.5 338,-714.5"/>
<text text-anchor="start" x="346" y="-728.8" font-family="Times,serif" font-size="14.00">entry:</text>
</g>
<!-- Node0x2993f860 -->
<g id="node2" class="node"><title>Node0x2993f860</title>
<polygon fill="none" stroke="black" points="78,-368.5 78,-676.5 657,-676.5 657,-368.5 78,-368.5"/>
<text text-anchor="start" x="86" y="-661.3" font-family="Times,serif" font-size="14.00">0x317fb8d0:</text>
<text text-anchor="start" x="86" y="-646.3" font-family="Times,serif" font-size="14.00"> v1 = g29</text>
<text text-anchor="start" x="86" y="-631.3" font-family="Times,serif" font-size="14.00"> v2 = IntToPtrCastExpr&lt;ptr&gt;((v1 + 64))</text>
<text text-anchor="start" x="86" y="-616.3" font-family="Times,serif" font-size="14.00"> g33 = v1</text>
<text text-anchor="start" x="86" y="-601.3" font-family="Times,serif" font-size="14.00"> v3 = *(IntToPtrCastExpr&lt;ptr&gt;((v1 + 124)))</text>
<text text-anchor="start" x="86" y="-586.3" font-family="Times,serif" font-size="14.00"> v4 = (((*(IntToPtrCastExpr&lt;ptr&gt;((v1 + 72))) ^ *(v2)) ^ v3) ^ g30)</text>
<text text-anchor="start" x="86" y="-571.3" font-family="Times,serif" font-size="14.00"> g36 = v4</text>
<text text-anchor="start" x="86" y="-556.3" font-family="Times,serif" font-size="14.00"> v5 = g35</text>
<text text-anchor="start" x="86" y="-541.3" font-family="Times,serif" font-size="14.00"> *(v2) = v4</text>
<text text-anchor="start" x="86" y="-526.3" font-family="Times,serif" font-size="14.00"> v6 = g33</text>
<text text-anchor="start" x="86" y="-511.3" font-family="Times,serif" font-size="14.00"> g29 = v6</text>
<text text-anchor="start" x="86" y="-496.3" font-family="Times,serif" font-size="14.00"> g35 = 2</text>
<text text-anchor="start" x="86" y="-481.3" font-family="Times,serif" font-size="14.00"> *(IntToPtrCastExpr&lt;ptr&gt;((v6 + 64))) = *(IntToPtrCastExpr&lt;ptr&gt;((v6 + 68)))</text>
<text text-anchor="start" x="86" y="-466.3" font-family="Times,serif" font-size="14.00"> v7 = (g29 + 4)</text>
<text text-anchor="start" x="86" y="-451.3" font-family="Times,serif" font-size="14.00"> g29 = v7</text>
<text text-anchor="start" x="86" y="-436.3" font-family="Times,serif" font-size="14.00"> v8 = (g35 + 1)</text>
<text text-anchor="start" x="86" y="-421.3" font-family="Times,serif" font-size="14.00"> g35 = v8</text>
<text text-anchor="start" x="86" y="-406.3" font-family="Times,serif" font-size="14.00"> *(IntToPtrCastExpr&lt;ptr&gt;((v7 + 64))) = *(IntToPtrCastExpr&lt;ptr&gt;((v7 + 68)))</text>
<text text-anchor="start" x="86" y="-391.3" font-family="Times,serif" font-size="14.00"> v9 = (g29 + 4)</text>
<text text-anchor="start" x="86" y="-376.3" font-family="Times,serif" font-size="14.00"> g29 = v9</text>
</g>
<!-- Node0x2993ed60&#45;&gt;Node0x2993f860 -->
<g id="edge1" class="edge"><title>Node0x2993ed60&#45;&gt;Node0x2993f860</title>
<path fill="none" stroke="black" d="M367.5,-714.478C367.5,-707.05 367.5,-697.573 367.5,-686.826"/>
<polygon fill="black" stroke="black" points="371,-686.621 367.5,-676.621 364,-686.621 371,-686.621"/>
</g>
<!-- Node0x2993f460 -->
<g id="node3" class="node"><title>Node0x2993f460</title>
<polygon fill="none" stroke="black" points="297,-292.5 297,-330.5 438,-330.5 438,-292.5 297,-292.5"/>
<text text-anchor="start" x="305" y="-315.3" font-family="Times,serif" font-size="14.00">0x73e3450:</text>
<text text-anchor="start" x="305" y="-300.3" font-family="Times,serif" font-size="14.00"> while (v8 != 16):</text>
</g>
<!-- Node0x2993f860&#45;&gt;Node0x2993f460 -->
<g id="edge2" class="edge"><title>Node0x2993f860&#45;&gt;Node0x2993f460</title>
<path fill="none" stroke="black" d="M367.5,-368.234C367.5,-358.177 367.5,-348.898 367.5,-340.912"/>
<polygon fill="black" stroke="black" points="371,-340.874 367.5,-330.874 364,-340.874 371,-340.874"/>
</g>
<!-- Node0x2993d000 -->
<g id="node4" class="node"><title>Node0x2993d000</title>
<polygon fill="none" stroke="black" points="0,-112.5 0,-225.5 579,-225.5 579,-112.5 0,-112.5"/>
<text text-anchor="start" x="8" y="-210.3" font-family="Times,serif" font-size="14.00">0x45a08500:</text>
<text text-anchor="start" x="8" y="-195.3" font-family="Times,serif" font-size="14.00"> v7 = v9</text>
<text text-anchor="start" x="8" y="-180.3" font-family="Times,serif" font-size="14.00"> v8 = (g35 + 1)</text>
<text text-anchor="start" x="8" y="-165.3" font-family="Times,serif" font-size="14.00"> g35 = v8</text>
<text text-anchor="start" x="8" y="-150.3" font-family="Times,serif" font-size="14.00"> *(IntToPtrCastExpr&lt;ptr&gt;((v7 + 64))) = *(IntToPtrCastExpr&lt;ptr&gt;((v7 + 68)))</text>
<text text-anchor="start" x="8" y="-135.3" font-family="Times,serif" font-size="14.00"> v9 = (g29 + 4)</text>
<text text-anchor="start" x="8" y="-120.3" font-family="Times,serif" font-size="14.00"> g29 = v9</text>
</g>
<!-- Node0x2993f460&#45;&gt;Node0x2993d000 -->
<g id="edge3" class="edge"><title>Node0x2993f460&#45;&gt;Node0x2993d000</title>
<path fill="none" stroke="black" d="M309.994,-292.464C302.278,-287.655 295.361,-281.603 290.5,-274 283.292,-262.726 280.173,-249.264 279.38,-235.825"/>
<polygon fill="black" stroke="black" points="282.875,-235.526 279.198,-225.59 275.877,-235.65 282.875,-235.526"/>
<text text-anchor="middle" x="322" y="-262.8" font-family="Times,serif" font-size="14.00">v8 != 16</text>
</g>
<!-- Node0x2993d6a0 -->
<g id="node5" class="node"><title>Node0x2993d6a0</title>
<polygon fill="none" stroke="black" points="597.5,-97.5 597.5,-240.5 953.5,-240.5 953.5,-97.5 597.5,-97.5"/>
<text text-anchor="start" x="605.5" y="-225.3" font-family="Times,serif" font-size="14.00">0x73e0e80:</text>
<text text-anchor="start" x="605.5" y="-210.3" font-family="Times,serif" font-size="14.00"> g9 = True</text>
<text text-anchor="start" x="605.5" y="-195.3" font-family="Times,serif" font-size="14.00"> v10 = g33</text>
<text text-anchor="start" x="605.5" y="-180.3" font-family="Times,serif" font-size="14.00"> g37 = *(IntToPtrCastExpr&lt;ptr&gt;((v10 + 52)))</text>
<text text-anchor="start" x="605.5" y="-165.3" font-family="Times,serif" font-size="14.00"> *(IntToPtrCastExpr&lt;ptr&gt;((v10 + 124))) = g36</text>
<text text-anchor="start" x="605.5" y="-150.3" font-family="Times,serif" font-size="14.00"> v11 = (g37 ^ g30)</text>
<text text-anchor="start" x="605.5" y="-135.3" font-family="Times,serif" font-size="14.00"> g37 = v11</text>
<text text-anchor="start" x="605.5" y="-120.3" font-family="Times,serif" font-size="14.00"> *(IntToPtrCastExpr&lt;ptr&gt;((g33 + 52))) = v11</text>
<text text-anchor="start" x="605.5" y="-105.3" font-family="Times,serif" font-size="14.00"> IntToPtrCastExpr&lt;ptr&gt;(v5)()</text>
</g>
<!-- Node0x2993f460&#45;&gt;Node0x2993d6a0 -->
<g id="edge4" class="edge"><title>Node0x2993f460&#45;&gt;Node0x2993d6a0</title>
<path fill="none" stroke="black" d="M428.313,-292.417C470.618,-279.598 528.492,-261.587 587.881,-241.179"/>
<polygon fill="black" stroke="black" points="589.114,-244.456 597.424,-237.883 586.829,-237.839 589.114,-244.456"/>
<text text-anchor="middle" x="568" y="-262.8" font-family="Times,serif" font-size="14.00">v8 == 16</text>
</g>
<!-- Node0x2993d000&#45;&gt;Node0x2993f460 -->
<g id="edge5" class="edge"><title>Node0x2993d000&#45;&gt;Node0x2993f460</title>
<path fill="none" stroke="black" d="M334.007,-225.563C341.23,-236.251 348.1,-247.659 353.5,-259 356.99,-266.329 359.731,-274.673 361.827,-282.479"/>
<polygon fill="black" stroke="black" points="358.452,-283.413 364.219,-292.301 365.253,-281.757 358.452,-283.413"/>
</g>
<!-- Node0x2993f160 -->
<g id="node6" class="node"><title>Node0x2993f160</title>
<polygon fill="none" stroke="black" points="748.5,-23.5 748.5,-59.5 802.5,-59.5 802.5,-23.5 748.5,-23.5"/>
<text text-anchor="start" x="756.5" y="-37.8" font-family="Times,serif" font-size="14.00">exit:</text>
</g>
<!-- Node0x2993d6a0&#45;&gt;Node0x2993f160 -->
<g id="edge6" class="edge"><title>Node0x2993d6a0&#45;&gt;Node0x2993f160</title>
<path fill="none" stroke="black" d="M775.5,-97.181C775.5,-87.439 775.5,-77.9608 775.5,-69.7068"/>
<polygon fill="black" stroke="black" points="779,-69.642 775.5,-59.642 772,-69.6421 779,-69.642"/>
</g>
</g>
</svg>
