<?xml version="1.0" encoding="UTF-8" standalone="no"?>
<!DOCTYPE svg PUBLIC "-//W3C//DTD SVG 1.1//EN"
 "http://www.w3.org/Graphics/SVG/1.1/DTD/svg11.dtd">
<!-- Generated by graphviz version 2.38.0 (20140413.2041)
 -->
<!-- Title: Control&#45;flow graph for function &#39;function_170e8()&#39;. Pages: 1 -->
<svg width="708pt" height="1168pt"
 viewBox="0.00 0.00 708.00 1168.00" xmlns="http://www.w3.org/2000/svg" xmlns:xlink="http://www.w3.org/1999/xlink">
<g id="graph0" class="graph" transform="scale(1 1) rotate(0) translate(4 1164)">
<title>Control&#45;flow graph for function &#39;function_170e8()&#39;.</title>
<polygon fill="white" stroke="none" points="-4,4 -4,-1164 704,-1164 704,4 -4,4"/>
<text text-anchor="middle" x="350" y="-7.8" font-family="Times,serif" font-size="14.00">Control&#45;flow graph for function &#39;function_170e8()&#39;.</text>
<!-- Node0x37ee2860 -->
<g id="node1" class="node"><title>Node0x37ee2860</title>
<polygon fill="none" stroke="black" points="426,-1123.5 426,-1159.5 485,-1159.5 485,-1123.5 426,-1123.5"/>
<text text-anchor="start" x="434" y="-1137.8" font-family="Times,serif" font-size="14.00">entry:</text>
</g>
<!-- Node0x37ee3100 -->
<g id="node2" class="node"><title>Node0x37ee3100</title>
<polygon fill="none" stroke="black" points="390.5,-1002.5 390.5,-1085.5 520.5,-1085.5 520.5,-1002.5 390.5,-1002.5"/>
<text text-anchor="start" x="398.5" y="-1070.3" font-family="Times,serif" font-size="14.00">0x10e2b040:</text>
<text text-anchor="start" x="398.5" y="-1055.3" font-family="Times,serif" font-size="14.00"> v1 = NULL</text>
<text text-anchor="start" x="398.5" y="-1040.3" font-family="Times,serif" font-size="14.00"> v2 = g18</text>
<text text-anchor="start" x="398.5" y="-1025.3" font-family="Times,serif" font-size="14.00"> g29 = v2</text>
<text text-anchor="start" x="398.5" y="-1010.3" font-family="Times,serif" font-size="14.00"> g9 = (v2 == 0)</text>
</g>
<!-- Node0x37ee2860&#45;&gt;Node0x37ee3100 -->
<g id="edge1" class="edge"><title>Node0x37ee2860&#45;&gt;Node0x37ee3100</title>
<path fill="none" stroke="black" d="M455.5,-1123.43C455.5,-1115.62 455.5,-1105.92 455.5,-1096.03"/>
<polygon fill="black" stroke="black" points="459,-1095.73 455.5,-1085.73 452,-1095.73 459,-1095.73"/>
</g>
<!-- Node0x37edfc10 -->
<g id="node3" class="node"><title>Node0x37edfc10</title>
<polygon fill="none" stroke="black" points="400.5,-926.5 400.5,-964.5 510.5,-964.5 510.5,-926.5 400.5,-926.5"/>
<text text-anchor="start" x="408.5" y="-949.3" font-family="Times,serif" font-size="14.00">0x86a2a10:</text>
<text text-anchor="start" x="408.5" y="-934.3" font-family="Times,serif" font-size="14.00"> if (v2 == 0):</text>
</g>
<!-- Node0x37ee3100&#45;&gt;Node0x37edfc10 -->
<g id="edge2" class="edge"><title>Node0x37ee3100&#45;&gt;Node0x37edfc10</title>
<path fill="none" stroke="black" d="M455.5,-1002.35C455.5,-993.083 455.5,-983.427 455.5,-974.803"/>
<polygon fill="black" stroke="black" points="459,-974.538 455.5,-964.538 452,-974.538 459,-974.538"/>
</g>
<!-- Node0x37edf450 -->
<g id="node4" class="node"><title>Node0x37edf450</title>
<polygon fill="none" stroke="black" points="356,-836.5 356,-874.5 457,-874.5 457,-836.5 356,-836.5"/>
<text text-anchor="start" x="364" y="-859.3" font-family="Times,serif" font-size="14.00">0x86a2550:</text>
<text text-anchor="start" x="364" y="-844.3" font-family="Times,serif" font-size="14.00"> g29 = 6</text>
</g>
<!-- Node0x37edfc10&#45;&gt;Node0x37edf450 -->
<g id="edge3" class="edge"><title>Node0x37edfc10&#45;&gt;Node0x37edf450</title>
<path fill="none" stroke="black" d="M433.927,-926.413C428.551,-920.977 423.256,-914.67 419.5,-908 415.473,-900.849 412.675,-892.446 410.738,-884.525"/>
<polygon fill="black" stroke="black" points="414.123,-883.612 408.656,-874.536 407.27,-885.04 414.123,-883.612"/>
<text text-anchor="middle" x="449.5" y="-896.8" font-family="Times,serif" font-size="14.00">v2 == 0</text>
</g>
<!-- Node0x37edfa10 -->
<g id="node5" class="node"><title>Node0x37edfa10</title>
<polygon fill="none" stroke="black" points="241,-700.5 241,-798.5 690,-798.5 690,-700.5 241,-700.5"/>
<text text-anchor="start" x="249" y="-783.3" font-family="Times,serif" font-size="14.00">0x86a82d0:</text>
<text text-anchor="start" x="249" y="-768.3" font-family="Times,serif" font-size="14.00"> g34 = PtrToIntCastExpr&lt;int32&gt;(v1)</text>
<text text-anchor="start" x="249" y="-753.3" font-family="Times,serif" font-size="14.00"> IntToPtrCastExpr&lt;ptr&gt;(ExtCastExpr&lt;int32&gt;((v2 == 0)))()</text>
<text text-anchor="start" x="249" y="-738.3" font-family="Times,serif" font-size="14.00"> function_f4a8()</text>
<text text-anchor="start" x="249" y="-723.3" font-family="Times,serif" font-size="14.00"> v3 = g29</text>
<text text-anchor="start" x="249" y="-708.3" font-family="Times,serif" font-size="14.00"> g9 = (v3 == 0)</text>
</g>
<!-- Node0x37edfc10&#45;&gt;Node0x37edfa10 -->
<g id="edge4" class="edge"><title>Node0x37edfc10&#45;&gt;Node0x37edfa10</title>
<path fill="none" stroke="black" d="M470.469,-926.234C474.152,-920.705 477.586,-914.394 479.5,-908 489.083,-875.984 486.386,-838.801 480.921,-808.605"/>
<polygon fill="black" stroke="black" points="484.328,-807.794 478.975,-798.651 477.458,-809.136 484.328,-807.794"/>
<text text-anchor="middle" x="513.5" y="-851.8" font-family="Times,serif" font-size="14.00">v2 != 0</text>
</g>
<!-- Node0x37edf450&#45;&gt;Node0x37edfa10 -->
<g id="edge5" class="edge"><title>Node0x37edf450&#45;&gt;Node0x37edfa10</title>
<path fill="none" stroke="black" d="M416.777,-836.385C421.42,-828.201 427.188,-818.033 433.113,-807.59"/>
<polygon fill="black" stroke="black" points="436.215,-809.214 438.105,-798.789 430.126,-805.76 436.215,-809.214"/>
</g>
<!-- Node0x26518450 -->
<g id="node6" class="node"><title>Node0x26518450</title>
<polygon fill="none" stroke="black" points="410.5,-624.5 410.5,-662.5 520.5,-662.5 520.5,-624.5 410.5,-624.5"/>
<text text-anchor="start" x="418.5" y="-647.3" font-family="Times,serif" font-size="14.00">0x86a8df0:</text>
<text text-anchor="start" x="418.5" y="-632.3" font-family="Times,serif" font-size="14.00"> if (v3 == 0):</text>
</g>
<!-- Node0x37edfa10&#45;&gt;Node0x26518450 -->
<g id="edge6" class="edge"><title>Node0x37edfa10&#45;&gt;Node0x26518450</title>
<path fill="none" stroke="black" d="M465.5,-700.458C465.5,-690.952 465.5,-681.27 465.5,-672.69"/>
<polygon fill="black" stroke="black" points="469,-672.509 465.5,-662.509 462,-672.509 469,-672.509"/>
</g>
<!-- Node0x26515950 -->
<g id="node7" class="node"><title>Node0x26515950</title>
<polygon fill="none" stroke="black" points="368,-534.5 368,-572.5 467,-572.5 467,-534.5 368,-534.5"/>
<text text-anchor="start" x="376" y="-557.3" font-family="Times,serif" font-size="14.00">0x86a8ae0:</text>
<text text-anchor="start" x="376" y="-542.3" font-family="Times,serif" font-size="14.00"> g29 = 14</text>
</g>
<!-- Node0x26518450&#45;&gt;Node0x26515950 -->
<g id="edge7" class="edge"><title>Node0x26518450&#45;&gt;Node0x26515950</title>
<path fill="none" stroke="black" d="M443.846,-624.458C438.47,-619.022 433.195,-612.704 429.5,-606 425.556,-598.844 422.904,-590.439 421.122,-582.519"/>
<polygon fill="black" stroke="black" points="424.532,-581.713 419.246,-572.531 417.653,-583.006 424.532,-581.713"/>
<text text-anchor="middle" x="459.5" y="-594.8" font-family="Times,serif" font-size="14.00">v3 == 0</text>
</g>
<!-- Node0x37ee34a0 -->
<g id="node8" class="node"><title>Node0x37ee34a0</title>
<polygon fill="none" stroke="black" points="251,-263.5 251,-496.5 700,-496.5 700,-263.5 251,-263.5"/>
<text text-anchor="start" x="259" y="-481.3" font-family="Times,serif" font-size="14.00">0x86a9620:</text>
<text text-anchor="start" x="259" y="-466.3" font-family="Times,serif" font-size="14.00"> g38 = *(IntToPtrCastExpr&lt;ptr&gt;(g34))</text>
<text text-anchor="start" x="259" y="-451.3" font-family="Times,serif" font-size="14.00"> g39 = v1[&#39;1&#39;]</text>
<text text-anchor="start" x="259" y="-436.3" font-family="Times,serif" font-size="14.00"> g32 = v1[&#39;2&#39;]</text>
<text text-anchor="start" x="259" y="-421.3" font-family="Times,serif" font-size="14.00"> g34 = v1[&#39;3&#39;]</text>
<text text-anchor="start" x="259" y="-406.3" font-family="Times,serif" font-size="14.00"> IntToPtrCastExpr&lt;ptr&gt;(ExtCastExpr&lt;int32&gt;((v3 == 0)))()</text>
<text text-anchor="start" x="259" y="-391.3" font-family="Times,serif" font-size="14.00"> g29 = *(IntToPtrCastExpr&lt;ptr&gt;((g39 + g38)))</text>
<text text-anchor="start" x="259" y="-376.3" font-family="Times,serif" font-size="14.00"> function_fbb4()</text>
<text text-anchor="start" x="259" y="-361.3" font-family="Times,serif" font-size="14.00"> g29 = 0</text>
<text text-anchor="start" x="259" y="-346.3" font-family="Times,serif" font-size="14.00"> g38 = v1[&#39;3&#39;]</text>
<text text-anchor="start" x="259" y="-331.3" font-family="Times,serif" font-size="14.00"> g39 = v1[&#39;4&#39;]</text>
<text text-anchor="start" x="259" y="-316.3" font-family="Times,serif" font-size="14.00"> g32 = v1[&#39;5&#39;]</text>
<text text-anchor="start" x="259" y="-301.3" font-family="Times,serif" font-size="14.00"> g34 = v1[&#39;6&#39;]</text>
<text text-anchor="start" x="259" y="-286.3" font-family="Times,serif" font-size="14.00"> IntToPtrCastExpr&lt;ptr&gt;(v1[&#39;7&#39;])()</text>
<text text-anchor="start" x="259" y="-271.3" font-family="Times,serif" font-size="14.00"> v4 = (g40 % 256)</text>
</g>
<!-- Node0x26518450&#45;&gt;Node0x37ee34a0 -->
<g id="edge8" class="edge"><title>Node0x26518450&#45;&gt;Node0x37ee34a0</title>
<path fill="none" stroke="black" d="M480.469,-624.234C484.152,-618.705 487.586,-612.394 489.5,-606 491.412,-599.613 489.722,-597.663 489.5,-591 488.593,-563.761 487.026,-534.567 485.261,-506.87"/>
<polygon fill="black" stroke="black" points="488.744,-506.491 484.602,-496.739 481.758,-506.945 488.744,-506.491"/>
<text text-anchor="middle" x="516.5" y="-549.8" font-family="Times,serif" font-size="14.00">v3 != 0</text>
</g>
<!-- Node0x26515950&#45;&gt;Node0x37ee34a0 -->
<g id="edge9" class="edge"><title>Node0x26515950&#45;&gt;Node0x37ee34a0</title>
<path fill="none" stroke="black" d="M423.597,-534.471C426.207,-526.755 429.495,-517.031 433.145,-506.239"/>
<polygon fill="black" stroke="black" points="436.549,-507.098 436.437,-496.504 429.918,-504.856 436.549,-507.098"/>
</g>
<!-- Node0x26515ab0 -->
<g id="node9" class="node"><title>Node0x26515ab0</title>
<polygon fill="none" stroke="black" points="427.5,-187.5 427.5,-225.5 523.5,-225.5 523.5,-187.5 427.5,-187.5"/>
<text text-anchor="start" x="435.5" y="-210.3" font-family="Times,serif" font-size="14.00">0x86afe30:</text>
<text text-anchor="start" x="435.5" y="-195.3" font-family="Times,serif" font-size="14.00"> if g9:</text>
</g>
<!-- Node0x37ee34a0&#45;&gt;Node0x26515ab0 -->
<g id="edge10" class="edge"><title>Node0x37ee34a0&#45;&gt;Node0x26515ab0</title>
<path fill="none" stroke="black" d="M475.5,-263.181C475.5,-253.254 475.5,-243.942 475.5,-235.881"/>
<polygon fill="black" stroke="black" points="479,-235.722 475.5,-225.722 472,-235.722 479,-235.722"/>
</g>
<!-- Node0x26519330 -->
<g id="node10" class="node"><title>Node0x26519330</title>
<polygon fill="none" stroke="black" points="0,-97.5 0,-135.5 513,-135.5 513,-97.5 0,-97.5"/>
<text text-anchor="start" x="8" y="-120.3" font-family="Times,serif" font-size="14.00">0x86afbe0:</text>
<text text-anchor="start" x="8" y="-105.3" font-family="Times,serif" font-size="14.00"> g30 = (g29 &amp; (g38 &gt;&gt; (0 if (v4 == 0) else (31 if (v4 &gt; 31) else v4))))</text>
</g>
<!-- Node0x26515ab0&#45;&gt;Node0x26519330 -->
<g id="edge11" class="edge"><title>Node0x26515ab0&#45;&gt;Node0x26519330</title>
<path fill="none" stroke="black" d="M430.654,-187.48C396.077,-173.586 348.099,-154.307 311.255,-139.502"/>
<polygon fill="black" stroke="black" points="312.246,-136.128 301.662,-135.647 309.636,-142.624 312.246,-136.128"/>
<text text-anchor="middle" x="389" y="-157.8" font-family="Times,serif" font-size="14.00">g9</text>
</g>
<!-- Node0x3d24fa70 -->
<g id="node11" class="node"><title>Node0x3d24fa70</title>
<polygon fill="none" stroke="black" points="442.5,-23.5 442.5,-59.5 496.5,-59.5 496.5,-23.5 442.5,-23.5"/>
<text text-anchor="start" x="450.5" y="-37.8" font-family="Times,serif" font-size="14.00">exit:</text>
</g>
<!-- Node0x26515ab0&#45;&gt;Node0x3d24fa70 -->
<g id="edge12" class="edge"><title>Node0x26515ab0&#45;&gt;Node0x3d24fa70</title>
<path fill="none" stroke="black" d="M492.943,-187.179C511.179,-165.695 535.475,-128.953 522.5,-97 517.806,-85.4403 509.352,-74.9864 500.555,-66.3978"/>
<polygon fill="black" stroke="black" points="502.902,-63.8016 493.159,-59.6389 498.179,-68.9687 502.902,-63.8016"/>
<text text-anchor="middle" x="554" y="-112.8" font-family="Times,serif" font-size="14.00">not (g9)</text>
</g>
<!-- Node0x26519330&#45;&gt;Node0x3d24fa70 -->
<g id="edge13" class="edge"><title>Node0x26519330&#45;&gt;Node0x3d24fa70</title>
<path fill="none" stroke="black" d="M309.152,-97.4551C347.611,-84.2742 398.784,-66.736 432.868,-55.0545"/>
<polygon fill="black" stroke="black" points="434.109,-58.3293 442.434,-51.7762 431.839,-51.7074 434.109,-58.3293"/>
</g>
</g>
</svg>
