<?xml version="1.0" encoding="UTF-8" standalone="no"?>
<!DOCTYPE svg PUBLIC "-//W3C//DTD SVG 1.1//EN"
 "http://www.w3.org/Graphics/SVG/1.1/DTD/svg11.dtd">
<!-- Generated by graphviz version 2.38.0 (20140413.2041)
 -->
<!-- Title: Control&#45;flow graph for function &#39;SpRegisterConnectionCallbacks()&#39;. Pages: 1 -->
<svg width="513pt" height="1423pt"
 viewBox="0.00 0.00 512.50 1423.00" xmlns="http://www.w3.org/2000/svg" xmlns:xlink="http://www.w3.org/1999/xlink">
<g id="graph0" class="graph" transform="scale(1 1) rotate(0) translate(4 1419)">
<title>Control&#45;flow graph for function &#39;SpRegisterConnectionCallbacks()&#39;.</title>
<polygon fill="white" stroke="none" points="-4,4 -4,-1419 508.5,-1419 508.5,4 -4,4"/>
<text text-anchor="middle" x="252.25" y="-7.8" font-family="Times,serif" font-size="14.00">Control&#45;flow graph for function &#39;SpRegisterConnectionCallbacks()&#39;.</text>
<!-- Node0x383b3190 -->
<g id="node1" class="node"><title>Node0x383b3190</title>
<polygon fill="none" stroke="black" points="317.5,-1378.5 317.5,-1414.5 376.5,-1414.5 376.5,-1378.5 317.5,-1378.5"/>
<text text-anchor="start" x="325.5" y="-1392.8" font-family="Times,serif" font-size="14.00">entry:</text>
</g>
<!-- Node0x151a2770 -->
<g id="node2" class="node"><title>Node0x151a2770</title>
<polygon fill="none" stroke="black" points="189.5,-1092.5 189.5,-1340.5 504.5,-1340.5 504.5,-1092.5 189.5,-1092.5"/>
<text text-anchor="start" x="197.5" y="-1325.3" font-family="Times,serif" font-size="14.00">0x16bbfb90:</text>
<text text-anchor="start" x="197.5" y="-1310.3" font-family="Times,serif" font-size="14.00"> v1 = g38</text>
<text text-anchor="start" x="197.5" y="-1295.3" font-family="Times,serif" font-size="14.00"> v2 = g39</text>
<text text-anchor="start" x="197.5" y="-1280.3" font-family="Times,serif" font-size="14.00"> v3 = g40</text>
<text text-anchor="start" x="197.5" y="-1265.3" font-family="Times,serif" font-size="14.00"> v4 = g41</text>
<text text-anchor="start" x="197.5" y="-1250.3" font-family="Times,serif" font-size="14.00"> g38 = 165012</text>
<text text-anchor="start" x="197.5" y="-1235.3" font-family="Times,serif" font-size="14.00"> v5 = *(IntToPtrCastExpr&lt;ptr&gt;(165212))</text>
<text text-anchor="start" x="197.5" y="-1220.3" font-family="Times,serif" font-size="14.00"> g41 = v5</text>
<text text-anchor="start" x="197.5" y="-1205.3" font-family="Times,serif" font-size="14.00"> v6 = *(IntToPtrCastExpr&lt;ptr&gt;(v5))</text>
<text text-anchor="start" x="197.5" y="-1190.3" font-family="Times,serif" font-size="14.00"> g33 = v6</text>
<text text-anchor="start" x="197.5" y="-1175.3" font-family="Times,serif" font-size="14.00"> v7 = g29</text>
<text text-anchor="start" x="197.5" y="-1160.3" font-family="Times,serif" font-size="14.00"> g40 = v7</text>
<text text-anchor="start" x="197.5" y="-1145.3" font-family="Times,serif" font-size="14.00"> g6 = True</text>
<text text-anchor="start" x="197.5" y="-1130.3" font-family="Times,serif" font-size="14.00"> v8 = g30</text>
<text text-anchor="start" x="197.5" y="-1115.3" font-family="Times,serif" font-size="14.00"> g39 = v8</text>
<text text-anchor="start" x="197.5" y="-1100.3" font-family="Times,serif" font-size="14.00"> v9 = v7</text>
</g>
<!-- Node0x383b3190&#45;&gt;Node0x151a2770 -->
<g id="edge1" class="edge"><title>Node0x383b3190&#45;&gt;Node0x151a2770</title>
<path fill="none" stroke="black" d="M347,-1378.43C347,-1370.97 347,-1361.49 347,-1350.89"/>
<polygon fill="black" stroke="black" points="350.5,-1350.85 347,-1340.85 343.5,-1350.85 350.5,-1350.85"/>
</g>
<!-- Node0x151a4c90 -->
<g id="node3" class="node"><title>Node0x151a4c90</title>
<polygon fill="none" stroke="black" points="295,-1016.5 295,-1054.5 399,-1054.5 399,-1016.5 295,-1016.5"/>
<text text-anchor="start" x="303" y="-1039.3" font-family="Times,serif" font-size="14.00">0x83404b0:</text>
<text text-anchor="start" x="303" y="-1024.3" font-family="Times,serif" font-size="14.00"> if (v6 != 0):</text>
</g>
<!-- Node0x151a2770&#45;&gt;Node0x151a4c90 -->
<g id="edge2" class="edge"><title>Node0x151a2770&#45;&gt;Node0x151a4c90</title>
<path fill="none" stroke="black" d="M347,-1092.16C347,-1082.16 347,-1072.83 347,-1064.77"/>
<polygon fill="black" stroke="black" points="350.5,-1064.63 347,-1054.63 343.5,-1064.63 350.5,-1064.63"/>
</g>
<!-- Node0x151a12b0 -->
<g id="node4" class="node"><title>Node0x151a12b0</title>
<polygon fill="none" stroke="black" points="135,-881.5 135,-964.5 347,-964.5 347,-881.5 135,-881.5"/>
<text text-anchor="start" x="143" y="-949.3" font-family="Times,serif" font-size="14.00">0x833f7c0:</text>
<text text-anchor="start" x="143" y="-934.3" font-family="Times,serif" font-size="14.00"> g36 = v7</text>
<text text-anchor="start" x="143" y="-919.3" font-family="Times,serif" font-size="14.00"> imported_function_ord_0()</text>
<text text-anchor="start" x="143" y="-904.3" font-family="Times,serif" font-size="14.00"> v9 = g40</text>
<text text-anchor="start" x="143" y="-889.3" font-family="Times,serif" font-size="14.00"> v8 = g39</text>
</g>
<!-- Node0x151a4c90&#45;&gt;Node0x151a12b0 -->
<g id="edge3" class="edge"><title>Node0x151a4c90&#45;&gt;Node0x151a12b0</title>
<path fill="none" stroke="black" d="M329.496,-1016.25C317.975,-1004.24 302.311,-987.914 287.363,-972.331"/>
<polygon fill="black" stroke="black" points="289.552,-969.557 280.104,-964.764 284.5,-974.403 289.552,-969.557"/>
<text text-anchor="middle" x="337" y="-986.8" font-family="Times,serif" font-size="14.00">v6 != 0</text>
</g>
<!-- Node0x47604510 -->
<g id="node5" class="node"><title>Node0x47604510</title>
<polygon fill="none" stroke="black" points="192.5,-670.5 192.5,-843.5 489.5,-843.5 489.5,-670.5 192.5,-670.5"/>
<text text-anchor="start" x="200.5" y="-828.3" font-family="Times,serif" font-size="14.00">0x8340610:</text>
<text text-anchor="start" x="200.5" y="-813.3" font-family="Times,serif" font-size="14.00"> g30 = v8</text>
<text text-anchor="start" x="200.5" y="-798.3" font-family="Times,serif" font-size="14.00"> g29 = v9</text>
<text text-anchor="start" x="200.5" y="-783.3" font-family="Times,serif" font-size="14.00"> function_163bc()</text>
<text text-anchor="start" x="200.5" y="-768.3" font-family="Times,serif" font-size="14.00"> v10 = *(IntToPtrCastExpr&lt;ptr&gt;(g41))</text>
<text text-anchor="start" x="200.5" y="-753.3" font-family="Times,serif" font-size="14.00"> g37 = v10</text>
<text text-anchor="start" x="200.5" y="-738.3" font-family="Times,serif" font-size="14.00"> v11 = g29</text>
<text text-anchor="start" x="200.5" y="-723.3" font-family="Times,serif" font-size="14.00"> g39 = v11</text>
<text text-anchor="start" x="200.5" y="-708.3" font-family="Times,serif" font-size="14.00"> g6 = True</text>
<text text-anchor="start" x="200.5" y="-693.3" font-family="Times,serif" font-size="14.00"> g9 = (v10 == 0)</text>
<text text-anchor="start" x="200.5" y="-678.3" font-family="Times,serif" font-size="14.00"> v12 = v11</text>
</g>
<!-- Node0x151a4c90&#45;&gt;Node0x47604510 -->
<g id="edge4" class="edge"><title>Node0x151a4c90&#45;&gt;Node0x47604510</title>
<path fill="none" stroke="black" d="M359.896,-1016.38C363.202,-1010.76 366.302,-1004.36 368,-998 369.721,-991.559 368.39,-989.655 368,-983 365.501,-940.366 360.266,-893.434 355.066,-853.513"/>
<polygon fill="black" stroke="black" points="358.526,-852.977 353.746,-843.522 351.586,-853.894 358.526,-852.977"/>
<text text-anchor="middle" x="397" y="-919.3" font-family="Times,serif" font-size="14.00">v6 == 0</text>
</g>
<!-- Node0x151a12b0&#45;&gt;Node0x47604510 -->
<g id="edge5" class="edge"><title>Node0x151a12b0&#45;&gt;Node0x47604510</title>
<path fill="none" stroke="black" d="M265.719,-881.461C271.232,-872.42 277.301,-862.467 283.528,-852.254"/>
<polygon fill="black" stroke="black" points="286.57,-853.989 288.787,-843.629 280.593,-850.345 286.57,-853.989"/>
</g>
<!-- Node0x1519d470 -->
<g id="node6" class="node"><title>Node0x1519d470</title>
<polygon fill="none" stroke="black" points="284.5,-594.5 284.5,-632.5 397.5,-632.5 397.5,-594.5 284.5,-594.5"/>
<text text-anchor="start" x="292.5" y="-617.3" font-family="Times,serif" font-size="14.00">0x8342c70:</text>
<text text-anchor="start" x="292.5" y="-602.3" font-family="Times,serif" font-size="14.00"> if (v10 != 0):</text>
</g>
<!-- Node0x47604510&#45;&gt;Node0x1519d470 -->
<g id="edge6" class="edge"><title>Node0x47604510&#45;&gt;Node0x1519d470</title>
<path fill="none" stroke="black" d="M341,-670.425C341,-660.55 341,-651.079 341,-642.829"/>
<polygon fill="black" stroke="black" points="344.5,-642.754 341,-632.754 337.5,-642.754 344.5,-642.754"/>
</g>
<!-- Node0x383ae970 -->
<g id="node7" class="node"><title>Node0x383ae970</title>
<polygon fill="none" stroke="black" points="132,-459.5 132,-542.5 344,-542.5 344,-459.5 132,-459.5"/>
<text text-anchor="start" x="140" y="-527.3" font-family="Times,serif" font-size="14.00">0x83422b0:</text>
<text text-anchor="start" x="140" y="-512.3" font-family="Times,serif" font-size="14.00"> g30 = (g38 &#45; 7460)</text>
<text text-anchor="start" x="140" y="-497.3" font-family="Times,serif" font-size="14.00"> g36 = v11</text>
<text text-anchor="start" x="140" y="-482.3" font-family="Times,serif" font-size="14.00"> imported_function_ord_0()</text>
<text text-anchor="start" x="140" y="-467.3" font-family="Times,serif" font-size="14.00"> v12 = g39</text>
</g>
<!-- Node0x1519d470&#45;&gt;Node0x383ae970 -->
<g id="edge7" class="edge"><title>Node0x1519d470&#45;&gt;Node0x383ae970</title>
<path fill="none" stroke="black" d="M321.358,-594.242C315.361,-588.506 308.817,-582.082 303,-576 295.23,-567.876 287.164,-559.044 279.466,-550.404"/>
<polygon fill="black" stroke="black" points="282.061,-548.054 272.814,-542.883 276.818,-552.692 282.061,-548.054"/>
<text text-anchor="middle" x="334.5" y="-564.8" font-family="Times,serif" font-size="14.00">v10 != 0</text>
</g>
<!-- Node0x151a2860 -->
<g id="node8" class="node"><title>Node0x151a2860</title>
<polygon fill="none" stroke="black" points="217,-278.5 217,-421.5 459,-421.5 459,-278.5 217,-278.5"/>
<text text-anchor="start" x="225" y="-406.3" font-family="Times,serif" font-size="14.00">0x8342df0:</text>
<text text-anchor="start" x="225" y="-391.3" font-family="Times,serif" font-size="14.00"> g29 = v12</text>
<text text-anchor="start" x="225" y="-376.3" font-family="Times,serif" font-size="14.00"> g38 = v1</text>
<text text-anchor="start" x="225" y="-361.3" font-family="Times,serif" font-size="14.00"> g39 = v2</text>
<text text-anchor="start" x="225" y="-346.3" font-family="Times,serif" font-size="14.00"> g40 = v3</text>
<text text-anchor="start" x="225" y="-331.3" font-family="Times,serif" font-size="14.00"> g41 = v4</text>
<text text-anchor="start" x="225" y="-316.3" font-family="Times,serif" font-size="14.00"> v13</text>
<text text-anchor="start" x="225" y="-301.3" font-family="Times,serif" font-size="14.00"> g34 = v13</text>
<text text-anchor="start" x="225" y="-286.3" font-family="Times,serif" font-size="14.00"> IntToPtrCastExpr&lt;ptr&gt;(g35)()</text>
</g>
<!-- Node0x1519d470&#45;&gt;Node0x151a2860 -->
<g id="edge8" class="edge"><title>Node0x1519d470&#45;&gt;Node0x151a2860</title>
<path fill="none" stroke="black" d="M356.586,-594.316C360.422,-588.787 364.001,-582.457 366,-576 367.972,-569.632 366.422,-567.653 366,-561 363.284,-518.206 357.235,-470.837 351.452,-431.935"/>
<polygon fill="black" stroke="black" points="354.863,-431.084 349.91,-421.718 347.941,-432.129 354.863,-431.084"/>
<text text-anchor="middle" x="399.5" y="-497.3" font-family="Times,serif" font-size="14.00">v10 == 0</text>
</g>
<!-- Node0x383ae970&#45;&gt;Node0x151a2860 -->
<g id="edge9" class="edge"><title>Node0x383ae970&#45;&gt;Node0x151a2860</title>
<path fill="none" stroke="black" d="M265.325,-459.285C271.425,-450.197 278.095,-440.259 284.842,-430.206"/>
<polygon fill="black" stroke="black" points="287.85,-432.004 290.517,-421.75 282.038,-428.103 287.85,-432.004"/>
</g>
<!-- Node0x478fef00 -->
<g id="node9" class="node"><title>Node0x478fef00</title>
<polygon fill="none" stroke="black" points="287.5,-202.5 287.5,-240.5 388.5,-240.5 388.5,-202.5 287.5,-202.5"/>
<text text-anchor="start" x="295.5" y="-225.3" font-family="Times,serif" font-size="14.00">0x8344c70:</text>
<text text-anchor="start" x="295.5" y="-210.3" font-family="Times,serif" font-size="14.00"> if g9:</text>
</g>
<!-- Node0x151a2860&#45;&gt;Node0x478fef00 -->
<g id="edge10" class="edge"><title>Node0x151a2860&#45;&gt;Node0x478fef00</title>
<path fill="none" stroke="black" d="M338,-278.353C338,-268.594 338,-259.073 338,-250.737"/>
<polygon fill="black" stroke="black" points="341.5,-250.54 338,-240.54 334.5,-250.54 341.5,-250.54"/>
</g>
<!-- Node0x47900910 -->
<g id="node10" class="node"><title>Node0x47900910</title>
<polygon fill="none" stroke="black" points="0,-97.5 0,-150.5 356,-150.5 356,-97.5 0,-97.5"/>
<text text-anchor="start" x="8" y="-135.3" font-family="Times,serif" font-size="14.00">0x8344400:</text>
<text text-anchor="start" x="8" y="-120.3" font-family="Times,serif" font-size="14.00"> g36 = (g30 &amp; ((g42 / 131072) | (32768 * g42)))</text>
<text text-anchor="start" x="8" y="-105.3" font-family="Times,serif" font-size="14.00"> g29 = (g29 &amp; (g42 / 2))</text>
</g>
<!-- Node0x478fef00&#45;&gt;Node0x47900910 -->
<g id="edge11" class="edge"><title>Node0x478fef00&#45;&gt;Node0x47900910</title>
<path fill="none" stroke="black" d="M307.529,-202.312C285.549,-189.193 255.345,-171.166 229.633,-155.819"/>
<polygon fill="black" stroke="black" points="231.127,-152.634 220.746,-150.514 227.539,-158.645 231.127,-152.634"/>
<text text-anchor="middle" x="282.5" y="-172.8" font-family="Times,serif" font-size="14.00">g9</text>
</g>
<!-- Node0x1519f540 -->
<g id="node11" class="node"><title>Node0x1519f540</title>
<polygon fill="none" stroke="black" points="305,-23.5 305,-59.5 359,-59.5 359,-23.5 305,-23.5"/>
<text text-anchor="start" x="313" y="-37.8" font-family="Times,serif" font-size="14.00">exit:</text>
</g>
<!-- Node0x478fef00&#45;&gt;Node0x1519f540 -->
<g id="edge12" class="edge"><title>Node0x478fef00&#45;&gt;Node0x1519f540</title>
<path fill="none" stroke="black" d="M347.5,-202.343C358.918,-178.122 375.327,-133.994 365,-97 362.175,-86.8789 356.902,-76.7643 351.387,-68.0452"/>
<polygon fill="black" stroke="black" points="354.135,-65.8601 345.645,-59.5223 348.33,-69.7714 354.135,-65.8601"/>
<text text-anchor="middle" x="397.5" y="-120.3" font-family="Times,serif" font-size="14.00">not (g9)</text>
</g>
<!-- Node0x47900910&#45;&gt;Node0x1519f540 -->
<g id="edge13" class="edge"><title>Node0x47900910&#45;&gt;Node0x1519f540</title>
<path fill="none" stroke="black" d="M227.15,-97.308C249.44,-85.6565 275.328,-72.124 295.803,-61.421"/>
<polygon fill="black" stroke="black" points="297.557,-64.4539 304.798,-56.7195 294.314,-58.2503 297.557,-64.4539"/>
</g>
</g>
</svg>
