<?xml version="1.0" encoding="UTF-8" standalone="no"?>
<!DOCTYPE svg PUBLIC "-//W3C//DTD SVG 1.1//EN"
 "http://www.w3.org/Graphics/SVG/1.1/DTD/svg11.dtd">
<!-- Generated by graphviz version 2.38.0 (20140413.2041)
 -->
<!-- Title: Control&#45;flow graph for function &#39;function_1d2bc()&#39;. Pages: 1 -->
<svg width="724pt" height="1424pt"
 viewBox="0.00 0.00 723.50 1424.00" xmlns="http://www.w3.org/2000/svg" xmlns:xlink="http://www.w3.org/1999/xlink">
<g id="graph0" class="graph" transform="scale(1 1) rotate(0) translate(4 1420)">
<title>Control&#45;flow graph for function &#39;function_1d2bc()&#39;.</title>
<polygon fill="white" stroke="none" points="-4,4 -4,-1420 719.5,-1420 719.5,4 -4,4"/>
<text text-anchor="middle" x="357.75" y="-7.8" font-family="Times,serif" font-size="14.00">Control&#45;flow graph for function &#39;function_1d2bc()&#39;.</text>
<!-- Node0x1dd1d1c0 -->
<g id="node1" class="node"><title>Node0x1dd1d1c0</title>
<polygon fill="none" stroke="black" points="426.5,-1379.5 426.5,-1415.5 485.5,-1415.5 485.5,-1379.5 426.5,-1379.5"/>
<text text-anchor="start" x="434.5" y="-1393.8" font-family="Times,serif" font-size="14.00">entry:</text>
</g>
<!-- Node0x24e35550 -->
<g id="node2" class="node"><title>Node0x24e35550</title>
<polygon fill="none" stroke="black" points="231.5,-1153.5 231.5,-1341.5 680.5,-1341.5 680.5,-1153.5 231.5,-1153.5"/>
<text text-anchor="start" x="239.5" y="-1326.3" font-family="Times,serif" font-size="14.00">0x38d07290:</text>
<text text-anchor="start" x="239.5" y="-1311.3" font-family="Times,serif" font-size="14.00"> v1 = NULL</text>
<text text-anchor="start" x="239.5" y="-1296.3" font-family="Times,serif" font-size="14.00"> v2 = g29</text>
<text text-anchor="start" x="239.5" y="-1281.3" font-family="Times,serif" font-size="14.00"> g9 = (v2 == 0)</text>
<text text-anchor="start" x="239.5" y="-1266.3" font-family="Times,serif" font-size="14.00"> g34 = PtrToIntCastExpr&lt;int32&gt;(v1)</text>
<text text-anchor="start" x="239.5" y="-1251.3" font-family="Times,serif" font-size="14.00"> IntToPtrCastExpr&lt;ptr&gt;(ExtCastExpr&lt;int32&gt;((v2 == 0)))()</text>
<text text-anchor="start" x="239.5" y="-1236.3" font-family="Times,serif" font-size="14.00"> v3 = g39</text>
<text text-anchor="start" x="239.5" y="-1221.3" font-family="Times,serif" font-size="14.00"> v4 = *(IntToPtrCastExpr&lt;ptr&gt;((v3 + 4)))</text>
<text text-anchor="start" x="239.5" y="-1206.3" font-family="Times,serif" font-size="14.00"> g30 = v4</text>
<text text-anchor="start" x="239.5" y="-1191.3" font-family="Times,serif" font-size="14.00"> v5 = *(IntToPtrCastExpr&lt;ptr&gt;((v3 + 20)))</text>
<text text-anchor="start" x="239.5" y="-1176.3" font-family="Times,serif" font-size="14.00"> g38 = v5</text>
<text text-anchor="start" x="239.5" y="-1161.3" font-family="Times,serif" font-size="14.00"> g9 = (v4 == 0)</text>
</g>
<!-- Node0x1dd1d1c0&#45;&gt;Node0x24e35550 -->
<g id="edge1" class="edge"><title>Node0x1dd1d1c0&#45;&gt;Node0x24e35550</title>
<path fill="none" stroke="black" d="M456,-1379.23C456,-1371.72 456,-1362.26 456,-1351.88"/>
<polygon fill="black" stroke="black" points="459.5,-1351.67 456,-1341.67 452.5,-1351.67 459.5,-1351.67"/>
</g>
<!-- Node0x1fae2800 -->
<g id="node3" class="node"><title>Node0x1fae2800</title>
<polygon fill="none" stroke="black" points="404,-1077.5 404,-1115.5 508,-1115.5 508,-1077.5 404,-1077.5"/>
<text text-anchor="start" x="412" y="-1100.3" font-family="Times,serif" font-size="14.00">0x99b15c0:</text>
<text text-anchor="start" x="412" y="-1085.3" font-family="Times,serif" font-size="14.00"> if (v4 != 0):</text>
</g>
<!-- Node0x24e35550&#45;&gt;Node0x1fae2800 -->
<g id="edge2" class="edge"><title>Node0x24e35550&#45;&gt;Node0x1fae2800</title>
<path fill="none" stroke="black" d="M456,-1153.41C456,-1143.43 456,-1133.92 456,-1125.67"/>
<polygon fill="black" stroke="black" points="459.5,-1125.62 456,-1115.62 452.5,-1125.62 459.5,-1125.62"/>
</g>
<!-- Node0x20d457a0 -->
<g id="node4" class="node"><title>Node0x20d457a0</title>
<polygon fill="none" stroke="black" points="6,-942.5 6,-1025.5 490,-1025.5 490,-942.5 6,-942.5"/>
<text text-anchor="start" x="14" y="-1010.3" font-family="Times,serif" font-size="14.00">0x99b0c10:</text>
<text text-anchor="start" x="14" y="-995.3" font-family="Times,serif" font-size="14.00"> g29 = v5</text>
<text text-anchor="start" x="14" y="-980.3" font-family="Times,serif" font-size="14.00"> g35 = 119532</text>
<text text-anchor="start" x="14" y="-965.3" font-family="Times,serif" font-size="14.00"> IntToPtrCastExpr&lt;ptr&gt;(*(IntToPtrCastExpr&lt;ptr&gt;((v5 + 12))))()</text>
<text text-anchor="start" x="14" y="-950.3" font-family="Times,serif" font-size="14.00"> v3 = g39</text>
</g>
<!-- Node0x1fae2800&#45;&gt;Node0x20d457a0 -->
<g id="edge3" class="edge"><title>Node0x1fae2800&#45;&gt;Node0x20d457a0</title>
<path fill="none" stroke="black" d="M421.653,-1077.25C397.604,-1064.48 364.357,-1046.81 333.387,-1030.36"/>
<polygon fill="black" stroke="black" points="334.767,-1027.13 324.293,-1025.53 331.483,-1033.31 334.767,-1027.13"/>
<text text-anchor="middle" x="410" y="-1047.8" font-family="Times,serif" font-size="14.00">v4 != 0</text>
</g>
<!-- Node0x42b66d60 -->
<g id="node5" class="node"><title>Node0x42b66d60</title>
<polygon fill="none" stroke="black" points="290.5,-836.5 290.5,-904.5 609.5,-904.5 609.5,-836.5 290.5,-836.5"/>
<text text-anchor="start" x="298.5" y="-889.3" font-family="Times,serif" font-size="14.00">0x2ac5f520:</text>
<text text-anchor="start" x="298.5" y="-874.3" font-family="Times,serif" font-size="14.00"> v6 = *(IntToPtrCastExpr&lt;ptr&gt;((v3 + 8)))</text>
<text text-anchor="start" x="298.5" y="-859.3" font-family="Times,serif" font-size="14.00"> g30 = v6</text>
<text text-anchor="start" x="298.5" y="-844.3" font-family="Times,serif" font-size="14.00"> g9 = (v6 == 0)</text>
</g>
<!-- Node0x1fae2800&#45;&gt;Node0x42b66d60 -->
<g id="edge4" class="edge"><title>Node0x1fae2800&#45;&gt;Node0x42b66d60</title>
<path fill="none" stroke="black" d="M471.139,-1077.39C481.216,-1064.1 493.567,-1045.11 499,-1026 509.211,-990.09 510.164,-977.625 499,-942 495.859,-931.976 490.733,-922.128 484.954,-913.119"/>
<polygon fill="black" stroke="black" points="487.781,-911.051 479.257,-904.76 481.997,-914.994 487.781,-911.051"/>
<text text-anchor="middle" x="537" y="-980.3" font-family="Times,serif" font-size="14.00">v4 == 0</text>
</g>
<!-- Node0x20d457a0&#45;&gt;Node0x42b66d60 -->
<g id="edge5" class="edge"><title>Node0x20d457a0&#45;&gt;Node0x42b66d60</title>
<path fill="none" stroke="black" d="M321.498,-942.431C340.975,-931.68 361.928,-920.114 381.148,-909.505"/>
<polygon fill="black" stroke="black" points="383.073,-912.44 390.136,-904.543 379.69,-906.312 383.073,-912.44"/>
</g>
<!-- Node0x28247eb0 -->
<g id="node6" class="node"><title>Node0x28247eb0</title>
<polygon fill="none" stroke="black" points="398,-760.5 398,-798.5 502,-798.5 502,-760.5 398,-760.5"/>
<text text-anchor="start" x="406" y="-783.3" font-family="Times,serif" font-size="14.00">0x99b2ed0:</text>
<text text-anchor="start" x="406" y="-768.3" font-family="Times,serif" font-size="14.00"> if (v6 != 0):</text>
</g>
<!-- Node0x42b66d60&#45;&gt;Node0x28247eb0 -->
<g id="edge6" class="edge"><title>Node0x42b66d60&#45;&gt;Node0x28247eb0</title>
<path fill="none" stroke="black" d="M450,-836.36C450,-827.365 450,-817.707 450,-808.993"/>
<polygon fill="black" stroke="black" points="453.5,-808.941 450,-798.941 446.5,-808.941 453.5,-808.941"/>
</g>
<!-- Node0x2da12c90 -->
<g id="node7" class="node"><title>Node0x2da12c90</title>
<polygon fill="none" stroke="black" points="0,-610.5 0,-708.5 484,-708.5 484,-610.5 0,-610.5"/>
<text text-anchor="start" x="8" y="-693.3" font-family="Times,serif" font-size="14.00">0x38d075a0:</text>
<text text-anchor="start" x="8" y="-678.3" font-family="Times,serif" font-size="14.00"> v7 = g38</text>
<text text-anchor="start" x="8" y="-663.3" font-family="Times,serif" font-size="14.00"> g29 = v7</text>
<text text-anchor="start" x="8" y="-648.3" font-family="Times,serif" font-size="14.00"> g35 = 119556</text>
<text text-anchor="start" x="8" y="-633.3" font-family="Times,serif" font-size="14.00"> IntToPtrCastExpr&lt;ptr&gt;(*(IntToPtrCastExpr&lt;ptr&gt;((v7 + 12))))()</text>
<text text-anchor="start" x="8" y="-618.3" font-family="Times,serif" font-size="14.00"> v3 = g39</text>
</g>
<!-- Node0x28247eb0&#45;&gt;Node0x2da12c90 -->
<g id="edge7" class="edge"><title>Node0x28247eb0&#45;&gt;Node0x2da12c90</title>
<path fill="none" stroke="black" d="M417.956,-760.321C395.76,-747.729 364.988,-730.272 335.377,-713.473"/>
<polygon fill="black" stroke="black" points="337.076,-710.413 326.651,-708.523 333.622,-716.502 337.076,-710.413"/>
<text text-anchor="middle" x="410" y="-730.8" font-family="Times,serif" font-size="14.00">v6 != 0</text>
</g>
<!-- Node0x1dd1d700 -->
<g id="node8" class="node"><title>Node0x1dd1d700</title>
<polygon fill="none" stroke="black" points="280,-489.5 280,-572.5 608,-572.5 608,-489.5 280,-489.5"/>
<text text-anchor="start" x="288" y="-557.3" font-family="Times,serif" font-size="14.00">0x11e2f8a0:</text>
<text text-anchor="start" x="288" y="-542.3" font-family="Times,serif" font-size="14.00"> v8 = *(IntToPtrCastExpr&lt;ptr&gt;((v3 + 16)))</text>
<text text-anchor="start" x="288" y="-527.3" font-family="Times,serif" font-size="14.00"> g30 = v8</text>
<text text-anchor="start" x="288" y="-512.3" font-family="Times,serif" font-size="14.00"> g9 = (v8 == 0)</text>
<text text-anchor="start" x="288" y="-497.3" font-family="Times,serif" font-size="14.00"> v9</text>
</g>
<!-- Node0x28247eb0&#45;&gt;Node0x1dd1d700 -->
<g id="edge8" class="edge"><title>Node0x28247eb0&#45;&gt;Node0x1dd1d700</title>
<path fill="none" stroke="black" d="M465.139,-760.392C475.216,-747.101 487.567,-728.107 493,-709 505.034,-666.678 505.179,-652.281 493,-610 490.211,-600.319 485.828,-590.678 480.803,-581.646"/>
<polygon fill="black" stroke="black" points="483.699,-579.666 475.6,-572.836 477.672,-583.226 483.699,-579.666"/>
<text text-anchor="middle" x="532" y="-655.8" font-family="Times,serif" font-size="14.00">v6 == 0</text>
</g>
<!-- Node0x2da12c90&#45;&gt;Node0x1dd1d700 -->
<g id="edge9" class="edge"><title>Node0x2da12c90&#45;&gt;Node0x1dd1d700</title>
<path fill="none" stroke="black" d="M318.656,-610.495C335.668,-599.841 353.661,-588.574 370.542,-578.002"/>
<polygon fill="black" stroke="black" points="372.64,-580.818 379.257,-572.544 368.924,-574.886 372.64,-580.818"/>
</g>
<!-- Node0x157f0f00 -->
<g id="node9" class="node"><title>Node0x157f0f00</title>
<polygon fill="none" stroke="black" points="392,-398.5 392,-451.5 496,-451.5 496,-398.5 392,-398.5"/>
<text text-anchor="start" x="400" y="-436.3" font-family="Times,serif" font-size="14.00">0x99b4e30:</text>
<text text-anchor="start" x="400" y="-421.3" font-family="Times,serif" font-size="14.00"> if (v8 != 0):</text>
<text text-anchor="start" x="400" y="-406.3" font-family="Times,serif" font-size="14.00"> else:</text>
</g>
<!-- Node0x1dd1d700&#45;&gt;Node0x157f0f00 -->
<g id="edge10" class="edge"><title>Node0x1dd1d700&#45;&gt;Node0x157f0f00</title>
<path fill="none" stroke="black" d="M444,-489.493C444,-480.311 444,-470.625 444,-461.66"/>
<polygon fill="black" stroke="black" points="447.5,-461.541 444,-451.541 440.5,-461.541 447.5,-461.541"/>
</g>
<!-- Node0x1a6870e0 -->
<g id="node10" class="node"><title>Node0x1a6870e0</title>
<polygon fill="none" stroke="black" points="100.5,-248.5 100.5,-346.5 593.5,-346.5 593.5,-248.5 100.5,-248.5"/>
<text text-anchor="start" x="108.5" y="-331.3" font-family="Times,serif" font-size="14.00">0x38d07750:</text>
<text text-anchor="start" x="108.5" y="-316.3" font-family="Times,serif" font-size="14.00"> v10 = g38</text>
<text text-anchor="start" x="108.5" y="-301.3" font-family="Times,serif" font-size="14.00"> g29 = v10</text>
<text text-anchor="start" x="108.5" y="-286.3" font-family="Times,serif" font-size="14.00"> g35 = 119580</text>
<text text-anchor="start" x="108.5" y="-271.3" font-family="Times,serif" font-size="14.00"> IntToPtrCastExpr&lt;ptr&gt;(*(IntToPtrCastExpr&lt;ptr&gt;((v10 + 12))))()</text>
<text text-anchor="start" x="108.5" y="-256.3" font-family="Times,serif" font-size="14.00"> v9 = g39</text>
</g>
<!-- Node0x157f0f00&#45;&gt;Node0x1a6870e0 -->
<g id="edge11" class="edge"><title>Node0x157f0f00&#45;&gt;Node0x1a6870e0</title>
<path fill="none" stroke="black" d="M424.137,-398.3C414.456,-385.775 402.404,-370.182 390.725,-355.071"/>
<polygon fill="black" stroke="black" points="393.177,-352.521 384.292,-346.749 387.638,-356.801 393.177,-352.521"/>
<text text-anchor="middle" x="437" y="-368.8" font-family="Times,serif" font-size="14.00">v8 != 0</text>
</g>
<!-- Node0x37274e60 -->
<g id="node11" class="node"><title>Node0x37274e60</title>
<polygon fill="none" stroke="black" points="611,-278.5 611,-316.5 709,-316.5 709,-278.5 611,-278.5"/>
<text text-anchor="start" x="619" y="-301.3" font-family="Times,serif" font-size="14.00">0x99b4fb0:</text>
<text text-anchor="start" x="619" y="-286.3" font-family="Times,serif" font-size="14.00"> v9 = v3</text>
</g>
<!-- Node0x157f0f00&#45;&gt;Node0x37274e60 -->
<g id="edge12" class="edge"><title>Node0x157f0f00&#45;&gt;Node0x37274e60</title>
<path fill="none" stroke="black" d="M496.228,-402.401C527.866,-388.391 568.453,-368.738 602,-347 612.757,-340.029 623.748,-331.319 633.228,-323.211"/>
<polygon fill="black" stroke="black" points="635.573,-325.81 640.798,-316.593 630.965,-320.54 635.573,-325.81"/>
<text text-anchor="middle" x="598" y="-368.8" font-family="Times,serif" font-size="14.00">v8 == 0</text>
</g>
<!-- Node0x37161dd0 -->
<g id="node12" class="node"><title>Node0x37161dd0</title>
<polygon fill="none" stroke="black" points="362.5,-97.5 362.5,-210.5 715.5,-210.5 715.5,-97.5 362.5,-97.5"/>
<text text-anchor="start" x="370.5" y="-195.3" font-family="Times,serif" font-size="14.00">0x99b5700:</text>
<text text-anchor="start" x="370.5" y="-180.3" font-family="Times,serif" font-size="14.00"> g38 = *(IntToPtrCastExpr&lt;ptr&gt;(g34))</text>
<text text-anchor="start" x="370.5" y="-165.3" font-family="Times,serif" font-size="14.00"> g39 = v1[&#39;1&#39;]</text>
<text text-anchor="start" x="370.5" y="-150.3" font-family="Times,serif" font-size="14.00"> g32 = v1[&#39;2&#39;]</text>
<text text-anchor="start" x="370.5" y="-135.3" font-family="Times,serif" font-size="14.00"> g34 = v1[&#39;3&#39;]</text>
<text text-anchor="start" x="370.5" y="-120.3" font-family="Times,serif" font-size="14.00"> g35 = v1[&#39;4&#39;]</text>
<text text-anchor="start" x="370.5" y="-105.3" font-family="Times,serif" font-size="14.00"> memset(IntToPtrCastExpr&lt;ptr&gt;(v9), g10, 24)</text>
</g>
<!-- Node0x1a6870e0&#45;&gt;Node0x37161dd0 -->
<g id="edge13" class="edge"><title>Node0x1a6870e0&#45;&gt;Node0x37161dd0</title>
<path fill="none" stroke="black" d="M412.27,-248.397C426.084,-238.217 440.846,-227.337 455.235,-216.733"/>
<polygon fill="black" stroke="black" points="457.681,-219.278 463.655,-210.528 453.528,-213.643 457.681,-219.278"/>
</g>
<!-- Node0x37274e60&#45;&gt;Node0x37161dd0 -->
<g id="edge14" class="edge"><title>Node0x37274e60&#45;&gt;Node0x37161dd0</title>
<path fill="none" stroke="black" d="M644.429,-278.291C631.354,-263.001 611.865,-240.21 593.187,-218.368"/>
<polygon fill="black" stroke="black" points="595.785,-216.021 586.626,-210.695 590.465,-220.57 595.785,-216.021"/>
</g>
<!-- Node0x282413b0 -->
<g id="node13" class="node"><title>Node0x282413b0</title>
<polygon fill="none" stroke="black" points="512,-23.5 512,-59.5 566,-59.5 566,-23.5 512,-23.5"/>
<text text-anchor="start" x="520" y="-37.8" font-family="Times,serif" font-size="14.00">exit:</text>
</g>
<!-- Node0x37161dd0&#45;&gt;Node0x282413b0 -->
<g id="edge15" class="edge"><title>Node0x37161dd0&#45;&gt;Node0x282413b0</title>
<path fill="none" stroke="black" d="M539,-97.4263C539,-87.8599 539,-78.3065 539,-69.9133"/>
<polygon fill="black" stroke="black" points="542.5,-69.6444 539,-59.6444 535.5,-69.6444 542.5,-69.6444"/>
</g>
</g>
</svg>
