<?xml version="1.0" encoding="UTF-8" standalone="no"?>
<!DOCTYPE svg PUBLIC "-//W3C//DTD SVG 1.1//EN"
 "http://www.w3.org/Graphics/SVG/1.1/DTD/svg11.dtd">
<!-- Generated by graphviz version 2.38.0 (20140413.2041)
 -->
<!-- Title: Control&#45;flow graph for function &#39;SpConnectionLoginPassword()&#39;. Pages: 1 -->
<svg width="483pt" height="1408pt"
 viewBox="0.00 0.00 483.00 1408.00" xmlns="http://www.w3.org/2000/svg" xmlns:xlink="http://www.w3.org/1999/xlink">
<g id="graph0" class="graph" transform="scale(1 1) rotate(0) translate(4 1404)">
<title>Control&#45;flow graph for function &#39;SpConnectionLoginPassword()&#39;.</title>
<polygon fill="white" stroke="none" points="-4,4 -4,-1404 479,-1404 479,4 -4,4"/>
<text text-anchor="middle" x="237.5" y="-7.8" font-family="Times,serif" font-size="14.00">Control&#45;flow graph for function &#39;SpConnectionLoginPassword()&#39;.</text>
<!-- Node0x245b1f00 -->
<g id="node1" class="node"><title>Node0x245b1f00</title>
<polygon fill="none" stroke="black" points="238.5,-1363.5 238.5,-1399.5 297.5,-1399.5 297.5,-1363.5 238.5,-1363.5"/>
<text text-anchor="start" x="246.5" y="-1377.8" font-family="Times,serif" font-size="14.00">entry:</text>
</g>
<!-- Node0x245b08f0 -->
<g id="node2" class="node"><title>Node0x245b08f0</title>
<polygon fill="none" stroke="black" points="110.5,-1092.5 110.5,-1325.5 425.5,-1325.5 425.5,-1092.5 110.5,-1092.5"/>
<text text-anchor="start" x="118.5" y="-1310.3" font-family="Times,serif" font-size="14.00">0x1ca68d30:</text>
<text text-anchor="start" x="118.5" y="-1295.3" font-family="Times,serif" font-size="14.00"> v1 = g38</text>
<text text-anchor="start" x="118.5" y="-1280.3" font-family="Times,serif" font-size="14.00"> v2 = g39</text>
<text text-anchor="start" x="118.5" y="-1265.3" font-family="Times,serif" font-size="14.00"> v3 = g40</text>
<text text-anchor="start" x="118.5" y="-1250.3" font-family="Times,serif" font-size="14.00"> v4 = g41</text>
<text text-anchor="start" x="118.5" y="-1235.3" font-family="Times,serif" font-size="14.00"> g38 = 165012</text>
<text text-anchor="start" x="118.5" y="-1220.3" font-family="Times,serif" font-size="14.00"> v5 = *(IntToPtrCastExpr&lt;ptr&gt;(165212))</text>
<text text-anchor="start" x="118.5" y="-1205.3" font-family="Times,serif" font-size="14.00"> g41 = v5</text>
<text text-anchor="start" x="118.5" y="-1190.3" font-family="Times,serif" font-size="14.00"> v6 = *(IntToPtrCastExpr&lt;ptr&gt;(v5))</text>
<text text-anchor="start" x="118.5" y="-1175.3" font-family="Times,serif" font-size="14.00"> g33 = v6</text>
<text text-anchor="start" x="118.5" y="-1160.3" font-family="Times,serif" font-size="14.00"> v7 = g29</text>
<text text-anchor="start" x="118.5" y="-1145.3" font-family="Times,serif" font-size="14.00"> g40 = v7</text>
<text text-anchor="start" x="118.5" y="-1130.3" font-family="Times,serif" font-size="14.00"> v8 = g30</text>
<text text-anchor="start" x="118.5" y="-1115.3" font-family="Times,serif" font-size="14.00"> g39 = v8</text>
<text text-anchor="start" x="118.5" y="-1100.3" font-family="Times,serif" font-size="14.00"> v9 = v7</text>
</g>
<!-- Node0x245b1f00&#45;&gt;Node0x245b08f0 -->
<g id="edge1" class="edge"><title>Node0x245b1f00&#45;&gt;Node0x245b08f0</title>
<path fill="none" stroke="black" d="M268,-1363.21C268,-1355.69 268,-1346.17 268,-1335.57"/>
<polygon fill="black" stroke="black" points="271.5,-1335.56 268,-1325.56 264.5,-1335.56 271.5,-1335.56"/>
</g>
<!-- Node0x28478b70 -->
<g id="node3" class="node"><title>Node0x28478b70</title>
<polygon fill="none" stroke="black" points="216,-1016.5 216,-1054.5 320,-1054.5 320,-1016.5 216,-1016.5"/>
<text text-anchor="start" x="224" y="-1039.3" font-family="Times,serif" font-size="14.00">0x828b850:</text>
<text text-anchor="start" x="224" y="-1024.3" font-family="Times,serif" font-size="14.00"> if (v6 != 0):</text>
</g>
<!-- Node0x245b08f0&#45;&gt;Node0x28478b70 -->
<g id="edge2" class="edge"><title>Node0x245b08f0&#45;&gt;Node0x28478b70</title>
<path fill="none" stroke="black" d="M268,-1092.18C268,-1082.25 268,-1072.94 268,-1064.88"/>
<polygon fill="black" stroke="black" points="271.5,-1064.72 268,-1054.72 264.5,-1064.72 271.5,-1064.72"/>
</g>
<!-- Node0x245b24d0 -->
<g id="node4" class="node"><title>Node0x245b24d0</title>
<polygon fill="none" stroke="black" points="56,-881.5 56,-964.5 268,-964.5 268,-881.5 56,-881.5"/>
<text text-anchor="start" x="64" y="-949.3" font-family="Times,serif" font-size="14.00">0x828ab80:</text>
<text text-anchor="start" x="64" y="-934.3" font-family="Times,serif" font-size="14.00"> g36 = v7</text>
<text text-anchor="start" x="64" y="-919.3" font-family="Times,serif" font-size="14.00"> imported_function_ord_0()</text>
<text text-anchor="start" x="64" y="-904.3" font-family="Times,serif" font-size="14.00"> v9 = g40</text>
<text text-anchor="start" x="64" y="-889.3" font-family="Times,serif" font-size="14.00"> v8 = g39</text>
</g>
<!-- Node0x28478b70&#45;&gt;Node0x245b24d0 -->
<g id="edge3" class="edge"><title>Node0x28478b70&#45;&gt;Node0x245b24d0</title>
<path fill="none" stroke="black" d="M250.496,-1016.25C238.975,-1004.24 223.311,-987.914 208.363,-972.331"/>
<polygon fill="black" stroke="black" points="210.552,-969.557 201.104,-964.764 205.5,-974.403 210.552,-969.557"/>
<text text-anchor="middle" x="258" y="-986.8" font-family="Times,serif" font-size="14.00">v6 != 0</text>
</g>
<!-- Node0x28478e70 -->
<g id="node5" class="node"><title>Node0x28478e70</title>
<polygon fill="none" stroke="black" points="113.5,-685.5 113.5,-843.5 410.5,-843.5 410.5,-685.5 113.5,-685.5"/>
<text text-anchor="start" x="121.5" y="-828.3" font-family="Times,serif" font-size="14.00">0x828b9b0:</text>
<text text-anchor="start" x="121.5" y="-813.3" font-family="Times,serif" font-size="14.00"> g30 = v8</text>
<text text-anchor="start" x="121.5" y="-798.3" font-family="Times,serif" font-size="14.00"> g29 = v9</text>
<text text-anchor="start" x="121.5" y="-783.3" font-family="Times,serif" font-size="14.00"> function_17a48()</text>
<text text-anchor="start" x="121.5" y="-768.3" font-family="Times,serif" font-size="14.00"> v10 = *(IntToPtrCastExpr&lt;ptr&gt;(g41))</text>
<text text-anchor="start" x="121.5" y="-753.3" font-family="Times,serif" font-size="14.00"> g37 = v10</text>
<text text-anchor="start" x="121.5" y="-738.3" font-family="Times,serif" font-size="14.00"> v11 = g29</text>
<text text-anchor="start" x="121.5" y="-723.3" font-family="Times,serif" font-size="14.00"> g39 = v11</text>
<text text-anchor="start" x="121.5" y="-708.3" font-family="Times,serif" font-size="14.00"> g9 = (v10 == 0)</text>
<text text-anchor="start" x="121.5" y="-693.3" font-family="Times,serif" font-size="14.00"> v12 = v11</text>
</g>
<!-- Node0x28478b70&#45;&gt;Node0x28478e70 -->
<g id="edge4" class="edge"><title>Node0x28478b70&#45;&gt;Node0x28478e70</title>
<path fill="none" stroke="black" d="M280.896,-1016.38C284.202,-1010.76 287.302,-1004.36 289,-998 290.721,-991.559 289.39,-989.655 289,-983 286.496,-940.282 280.981,-893.122 275.584,-853.667"/>
<polygon fill="black" stroke="black" points="279.021,-852.97 274.18,-843.546 272.088,-853.932 279.021,-852.97"/>
<text text-anchor="middle" x="318" y="-919.3" font-family="Times,serif" font-size="14.00">v6 == 0</text>
</g>
<!-- Node0x245b24d0&#45;&gt;Node0x28478e70 -->
<g id="edge5" class="edge"><title>Node0x245b24d0&#45;&gt;Node0x28478e70</title>
<path fill="none" stroke="black" d="M188.013,-881.29C193.8,-872.233 200.149,-862.297 206.619,-852.171"/>
<polygon fill="black" stroke="black" points="209.638,-853.947 212.073,-843.635 203.739,-850.177 209.638,-853.947"/>
</g>
<!-- Node0x245b2200 -->
<g id="node6" class="node"><title>Node0x245b2200</title>
<polygon fill="none" stroke="black" points="205.5,-609.5 205.5,-647.5 318.5,-647.5 318.5,-609.5 205.5,-609.5"/>
<text text-anchor="start" x="213.5" y="-632.3" font-family="Times,serif" font-size="14.00">0x828e070:</text>
<text text-anchor="start" x="213.5" y="-617.3" font-family="Times,serif" font-size="14.00"> if (v10 != 0):</text>
</g>
<!-- Node0x28478e70&#45;&gt;Node0x245b2200 -->
<g id="edge6" class="edge"><title>Node0x28478e70&#45;&gt;Node0x245b2200</title>
<path fill="none" stroke="black" d="M262,-685.164C262,-675.447 262,-666.058 262,-657.846"/>
<polygon fill="black" stroke="black" points="265.5,-657.801 262,-647.801 258.5,-657.801 265.5,-657.801"/>
</g>
<!-- Node0x245afee0 -->
<g id="node7" class="node"><title>Node0x245afee0</title>
<polygon fill="none" stroke="black" points="53,-474.5 53,-557.5 265,-557.5 265,-474.5 53,-474.5"/>
<text text-anchor="start" x="61" y="-542.3" font-family="Times,serif" font-size="14.00">0x828d700:</text>
<text text-anchor="start" x="61" y="-527.3" font-family="Times,serif" font-size="14.00"> g30 = (g38 &#45; 7876)</text>
<text text-anchor="start" x="61" y="-512.3" font-family="Times,serif" font-size="14.00"> g36 = v11</text>
<text text-anchor="start" x="61" y="-497.3" font-family="Times,serif" font-size="14.00"> imported_function_ord_0()</text>
<text text-anchor="start" x="61" y="-482.3" font-family="Times,serif" font-size="14.00"> v12 = g39</text>
</g>
<!-- Node0x245b2200&#45;&gt;Node0x245afee0 -->
<g id="edge7" class="edge"><title>Node0x245b2200&#45;&gt;Node0x245afee0</title>
<path fill="none" stroke="black" d="M242.358,-609.242C236.361,-603.506 229.817,-597.082 224,-591 216.23,-582.876 208.164,-574.044 200.466,-565.404"/>
<polygon fill="black" stroke="black" points="203.061,-563.054 193.814,-557.883 197.818,-567.692 203.061,-563.054"/>
<text text-anchor="middle" x="255.5" y="-579.8" font-family="Times,serif" font-size="14.00">v10 != 0</text>
</g>
<!-- Node0x28477280 -->
<g id="node8" class="node"><title>Node0x28477280</title>
<polygon fill="none" stroke="black" points="138,-293.5 138,-436.5 380,-436.5 380,-293.5 138,-293.5"/>
<text text-anchor="start" x="146" y="-421.3" font-family="Times,serif" font-size="14.00">0x828e210:</text>
<text text-anchor="start" x="146" y="-406.3" font-family="Times,serif" font-size="14.00"> g29 = v12</text>
<text text-anchor="start" x="146" y="-391.3" font-family="Times,serif" font-size="14.00"> g38 = v1</text>
<text text-anchor="start" x="146" y="-376.3" font-family="Times,serif" font-size="14.00"> g39 = v2</text>
<text text-anchor="start" x="146" y="-361.3" font-family="Times,serif" font-size="14.00"> g40 = v3</text>
<text text-anchor="start" x="146" y="-346.3" font-family="Times,serif" font-size="14.00"> g41 = v4</text>
<text text-anchor="start" x="146" y="-331.3" font-family="Times,serif" font-size="14.00"> v13</text>
<text text-anchor="start" x="146" y="-316.3" font-family="Times,serif" font-size="14.00"> g34 = v13</text>
<text text-anchor="start" x="146" y="-301.3" font-family="Times,serif" font-size="14.00"> IntToPtrCastExpr&lt;ptr&gt;(g35)()</text>
</g>
<!-- Node0x245b2200&#45;&gt;Node0x28477280 -->
<g id="edge8" class="edge"><title>Node0x245b2200&#45;&gt;Node0x28477280</title>
<path fill="none" stroke="black" d="M277.586,-609.316C281.422,-603.787 285.001,-597.457 287,-591 288.972,-584.632 287.422,-582.653 287,-576 284.284,-533.206 278.235,-485.837 272.452,-446.935"/>
<polygon fill="black" stroke="black" points="275.863,-446.084 270.91,-436.718 268.941,-447.129 275.863,-446.084"/>
<text text-anchor="middle" x="320.5" y="-512.3" font-family="Times,serif" font-size="14.00">v10 == 0</text>
</g>
<!-- Node0x245afee0&#45;&gt;Node0x28477280 -->
<g id="edge9" class="edge"><title>Node0x245afee0&#45;&gt;Node0x28477280</title>
<path fill="none" stroke="black" d="M186.325,-474.285C192.425,-465.197 199.095,-455.259 205.842,-445.206"/>
<polygon fill="black" stroke="black" points="208.85,-447.004 211.517,-436.75 203.038,-443.103 208.85,-447.004"/>
</g>
<!-- Node0x28476b80 -->
<g id="node9" class="node"><title>Node0x28476b80</title>
<polygon fill="none" stroke="black" points="210.5,-217.5 210.5,-255.5 307.5,-255.5 307.5,-217.5 210.5,-217.5"/>
<text text-anchor="start" x="218.5" y="-240.3" font-family="Times,serif" font-size="14.00">0x828fdc0:</text>
<text text-anchor="start" x="218.5" y="-225.3" font-family="Times,serif" font-size="14.00"> if g9:</text>
</g>
<!-- Node0x28477280&#45;&gt;Node0x28476b80 -->
<g id="edge10" class="edge"><title>Node0x28477280&#45;&gt;Node0x28476b80</title>
<path fill="none" stroke="black" d="M259,-293.353C259,-283.594 259,-274.073 259,-265.737"/>
<polygon fill="black" stroke="black" points="262.5,-265.54 259,-255.54 255.5,-265.54 262.5,-265.54"/>
</g>
<!-- Node0x28479ff0 -->
<g id="node10" class="node"><title>Node0x28479ff0</title>
<polygon fill="none" stroke="black" points="49.5,-97.5 49.5,-165.5 258.5,-165.5 258.5,-97.5 49.5,-97.5"/>
<text text-anchor="start" x="57.5" y="-150.3" font-family="Times,serif" font-size="14.00">0x1c174c20:</text>
<text text-anchor="start" x="57.5" y="-135.3" font-family="Times,serif" font-size="14.00"> v14 = g29</text>
<text text-anchor="start" x="57.5" y="-120.3" font-family="Times,serif" font-size="14.00"> g37 = (g30 &amp; (256 * v14))</text>
<text text-anchor="start" x="57.5" y="-105.3" font-family="Times,serif" font-size="14.00"> g29 = ((g42 / 2) &amp; v14)</text>
</g>
<!-- Node0x28476b80&#45;&gt;Node0x28479ff0 -->
<g id="edge11" class="edge"><title>Node0x28476b80&#45;&gt;Node0x28479ff0</title>
<path fill="none" stroke="black" d="M240.228,-217.086C227.758,-204.853 210.885,-188.301 195.37,-173.082"/>
<polygon fill="black" stroke="black" points="197.479,-170.248 187.889,-165.743 192.577,-175.245 197.479,-170.248"/>
<text text-anchor="middle" x="228.5" y="-187.8" font-family="Times,serif" font-size="14.00">g9</text>
</g>
<!-- Node0x245b2640 -->
<g id="node11" class="node"><title>Node0x245b2640</title>
<polygon fill="none" stroke="black" points="226,-23.5 226,-59.5 280,-59.5 280,-23.5 226,-23.5"/>
<text text-anchor="start" x="234" y="-37.8" font-family="Times,serif" font-size="14.00">exit:</text>
</g>
<!-- Node0x28476b80&#45;&gt;Node0x245b2640 -->
<g id="edge12" class="edge"><title>Node0x28476b80&#45;&gt;Node0x245b2640</title>
<path fill="none" stroke="black" d="M262.203,-217.056C266.341,-190.444 272.406,-139.772 267,-97 265.868,-88.0426 263.728,-78.4494 261.457,-69.8471"/>
<polygon fill="black" stroke="black" points="264.752,-68.636 258.679,-59.9548 258.013,-70.5287 264.752,-68.636"/>
<text text-anchor="middle" x="298.5" y="-127.8" font-family="Times,serif" font-size="14.00">not (g9)</text>
</g>
<!-- Node0x28479ff0&#45;&gt;Node0x245b2640 -->
<g id="edge13" class="edge"><title>Node0x28479ff0&#45;&gt;Node0x245b2640</title>
<path fill="none" stroke="black" d="M191.146,-97.4817C202.801,-87.1211 215.433,-75.8926 226.225,-66.3001"/>
<polygon fill="black" stroke="black" points="228.568,-68.8998 233.717,-59.6402 223.918,-63.668 228.568,-68.8998"/>
</g>
</g>
</svg>
