<?xml version="1.0" encoding="UTF-8" standalone="no"?>
<!DOCTYPE svg PUBLIC "-//W3C//DTD SVG 1.1//EN"
 "http://www.w3.org/Graphics/SVG/1.1/DTD/svg11.dtd">
<!-- Generated by graphviz version 2.38.0 (20140413.2041)
 -->
<!-- Title: Control&#45;flow graph for function &#39;function_66a8()&#39;. Pages: 1 -->
<svg width="1385pt" height="3002pt"
 viewBox="0.00 0.00 1385.00 3002.00" xmlns="http://www.w3.org/2000/svg" xmlns:xlink="http://www.w3.org/1999/xlink">
<g id="graph0" class="graph" transform="scale(1 1) rotate(0) translate(4 2998)">
<title>Control&#45;flow graph for function &#39;function_66a8()&#39;.</title>
<polygon fill="white" stroke="none" points="-4,4 -4,-2998 1381,-2998 1381,4 -4,4"/>
<text text-anchor="middle" x="688.5" y="-7.8" font-family="Times,serif" font-size="14.00">Control&#45;flow graph for function &#39;function_66a8()&#39;.</text>
<!-- Node0x23b81870 -->
<g id="node1" class="node"><title>Node0x23b81870</title>
<polygon fill="none" stroke="black" points="503.5,-2957.5 503.5,-2993.5 562.5,-2993.5 562.5,-2957.5 503.5,-2957.5"/>
<text text-anchor="start" x="511.5" y="-2971.8" font-family="Times,serif" font-size="14.00">entry:</text>
</g>
<!-- Node0x189c6fc0 -->
<g id="node2" class="node"><title>Node0x189c6fc0</title>
<polygon fill="none" stroke="black" points="364.5,-2611.5 364.5,-2919.5 701.5,-2919.5 701.5,-2611.5 364.5,-2611.5"/>
<text text-anchor="start" x="372.5" y="-2904.3" font-family="Times,serif" font-size="14.00">0x11dd5380:</text>
<text text-anchor="start" x="372.5" y="-2889.3" font-family="Times,serif" font-size="14.00"> v1 = g38</text>
<text text-anchor="start" x="372.5" y="-2874.3" font-family="Times,serif" font-size="14.00"> v2 = g39</text>
<text text-anchor="start" x="372.5" y="-2859.3" font-family="Times,serif" font-size="14.00"> v3 = g40</text>
<text text-anchor="start" x="372.5" y="-2844.3" font-family="Times,serif" font-size="14.00"> v4 = g41</text>
<text text-anchor="start" x="372.5" y="-2829.3" font-family="Times,serif" font-size="14.00"> v5 = g42</text>
<text text-anchor="start" x="372.5" y="-2814.3" font-family="Times,serif" font-size="14.00"> v6 = g32</text>
<text text-anchor="start" x="372.5" y="-2799.3" font-family="Times,serif" font-size="14.00"> v7 = g29</text>
<text text-anchor="start" x="372.5" y="-2784.3" font-family="Times,serif" font-size="14.00"> v8 = *(IntToPtrCastExpr&lt;ptr&gt;((v7 + 108)))</text>
<text text-anchor="start" x="372.5" y="-2769.3" font-family="Times,serif" font-size="14.00"> g39 = v8</text>
<text text-anchor="start" x="372.5" y="-2754.3" font-family="Times,serif" font-size="14.00"> g6 = True</text>
<text text-anchor="start" x="372.5" y="-2739.3" font-family="Times,serif" font-size="14.00"> g8 = False</text>
<text text-anchor="start" x="372.5" y="-2724.3" font-family="Times,serif" font-size="14.00"> g7 = (v8 &lt; 0)</text>
<text text-anchor="start" x="372.5" y="-2709.3" font-family="Times,serif" font-size="14.00"> g9 = (v8 == 0)</text>
<text text-anchor="start" x="372.5" y="-2694.3" font-family="Times,serif" font-size="14.00"> g38 = v7</text>
<text text-anchor="start" x="372.5" y="-2679.3" font-family="Times,serif" font-size="14.00"> g40 = 165012</text>
<text text-anchor="start" x="372.5" y="-2664.3" font-family="Times,serif" font-size="14.00"> v9 = g30</text>
<text text-anchor="start" x="372.5" y="-2649.3" font-family="Times,serif" font-size="14.00"> g42 = v9</text>
<text text-anchor="start" x="372.5" y="-2634.3" font-family="Times,serif" font-size="14.00"> v10</text>
<text text-anchor="start" x="372.5" y="-2619.3" font-family="Times,serif" font-size="14.00"> v11</text>
</g>
<!-- Node0x23b81870&#45;&gt;Node0x189c6fc0 -->
<g id="edge1" class="edge"><title>Node0x23b81870&#45;&gt;Node0x189c6fc0</title>
<path fill="none" stroke="black" d="M533,-2957.48C533,-2950.05 533,-2940.57 533,-2929.83"/>
<polygon fill="black" stroke="black" points="536.5,-2929.62 533,-2919.62 529.5,-2929.62 536.5,-2929.62"/>
</g>
<!-- Node0x32ff73c0 -->
<g id="node3" class="node"><title>Node0x32ff73c0</title>
<polygon fill="none" stroke="black" points="481,-2535.5 481,-2573.5 585,-2573.5 585,-2535.5 481,-2535.5"/>
<text text-anchor="start" x="489" y="-2558.3" font-family="Times,serif" font-size="14.00">0x6158e60:</text>
<text text-anchor="start" x="489" y="-2543.3" font-family="Times,serif" font-size="14.00"> if (v8 != 0):</text>
</g>
<!-- Node0x189c6fc0&#45;&gt;Node0x32ff73c0 -->
<g id="edge2" class="edge"><title>Node0x189c6fc0&#45;&gt;Node0x32ff73c0</title>
<path fill="none" stroke="black" d="M533,-2611.23C533,-2601.18 533,-2591.9 533,-2583.91"/>
<polygon fill="black" stroke="black" points="536.5,-2583.87 533,-2573.87 529.5,-2583.87 536.5,-2583.87"/>
</g>
<!-- Node0x27d5bee0 -->
<g id="node4" class="node"><title>Node0x27d5bee0</title>
<polygon fill="none" stroke="black" points="23.5,-2310.5 23.5,-2483.5 516.5,-2483.5 516.5,-2310.5 23.5,-2310.5"/>
<text text-anchor="start" x="31.5" y="-2468.3" font-family="Times,serif" font-size="14.00">0x6159060:</text>
<text text-anchor="start" x="31.5" y="-2453.3" font-family="Times,serif" font-size="14.00"> g29 = 0</text>
<text text-anchor="start" x="31.5" y="-2438.3" font-family="Times,serif" font-size="14.00"> v10 = g34</text>
<text text-anchor="start" x="31.5" y="-2423.3" font-family="Times,serif" font-size="14.00"> g38 = *(IntToPtrCastExpr&lt;ptr&gt;((v10 + 4)))</text>
<text text-anchor="start" x="31.5" y="-2408.3" font-family="Times,serif" font-size="14.00"> g39 = *(IntToPtrCastExpr&lt;ptr&gt;((v10 + 8)))</text>
<text text-anchor="start" x="31.5" y="-2393.3" font-family="Times,serif" font-size="14.00"> g40 = *(IntToPtrCastExpr&lt;ptr&gt;((v10 + 12)))</text>
<text text-anchor="start" x="31.5" y="-2378.3" font-family="Times,serif" font-size="14.00"> g41 = *(IntToPtrCastExpr&lt;ptr&gt;((v10 + 16)))</text>
<text text-anchor="start" x="31.5" y="-2363.3" font-family="Times,serif" font-size="14.00"> g42 = *(IntToPtrCastExpr&lt;ptr&gt;((v10 + 20)))</text>
<text text-anchor="start" x="31.5" y="-2348.3" font-family="Times,serif" font-size="14.00"> g32 = *(IntToPtrCastExpr&lt;ptr&gt;((v10 + 24)))</text>
<text text-anchor="start" x="31.5" y="-2333.3" font-family="Times,serif" font-size="14.00"> g34 = *(IntToPtrCastExpr&lt;ptr&gt;((v10 + 28)))</text>
<text text-anchor="start" x="31.5" y="-2318.3" font-family="Times,serif" font-size="14.00"> IntToPtrCastExpr&lt;ptr&gt;(*(IntToPtrCastExpr&lt;ptr&gt;((v10 + 32))))()</text>
</g>
<!-- Node0x32ff73c0&#45;&gt;Node0x27d5bee0 -->
<g id="edge3" class="edge"><title>Node0x32ff73c0&#45;&gt;Node0x27d5bee0</title>
<path fill="none" stroke="black" d="M502.316,-2535.36C481.967,-2523.33 453.569,-2506.54 423.593,-2488.81"/>
<polygon fill="black" stroke="black" points="425.066,-2485.62 414.677,-2483.54 421.503,-2491.64 425.066,-2485.62"/>
<text text-anchor="middle" x="497" y="-2505.8" font-family="Times,serif" font-size="14.00">v8 != 0</text>
</g>
<!-- Node0x34e82a90 -->
<g id="node5" class="node"><title>Node0x34e82a90</title>
<polygon fill="none" stroke="black" points="535,-2340.5 535,-2453.5 881,-2453.5 881,-2340.5 535,-2340.5"/>
<text text-anchor="start" x="543" y="-2438.3" font-family="Times,serif" font-size="14.00">0xf3faf70:</text>
<text text-anchor="start" x="543" y="-2423.3" font-family="Times,serif" font-size="14.00"> v12 = *(IntToPtrCastExpr&lt;ptr&gt;((v7 + 116)))</text>
<text text-anchor="start" x="543" y="-2408.3" font-family="Times,serif" font-size="14.00"> g37 = v12</text>
<text text-anchor="start" x="543" y="-2393.3" font-family="Times,serif" font-size="14.00"> g6 = True</text>
<text text-anchor="start" x="543" y="-2378.3" font-family="Times,serif" font-size="14.00"> g8 = False</text>
<text text-anchor="start" x="543" y="-2363.3" font-family="Times,serif" font-size="14.00"> g7 = (v12 &lt; 0)</text>
<text text-anchor="start" x="543" y="-2348.3" font-family="Times,serif" font-size="14.00"> g9 = (v12 == 0)</text>
</g>
<!-- Node0x32ff73c0&#45;&gt;Node0x34e82a90 -->
<g id="edge4" class="edge"><title>Node0x32ff73c0&#45;&gt;Node0x34e82a90</title>
<path fill="none" stroke="black" d="M553.417,-2535.36C574.114,-2516.97 607.324,-2487.46 637.667,-2460.5"/>
<polygon fill="black" stroke="black" points="640.16,-2462.96 645.31,-2453.7 635.51,-2457.73 640.16,-2462.96"/>
<text text-anchor="middle" x="619" y="-2505.8" font-family="Times,serif" font-size="14.00">v8 == 0</text>
</g>
<!-- Node0x15f77ba0 -->
<g id="node6" class="node"><title>Node0x15f77ba0</title>
<polygon fill="none" stroke="black" points="220,-2234.5 220,-2272.5 320,-2272.5 320,-2234.5 220,-2234.5"/>
<text text-anchor="start" x="228" y="-2257.3" font-family="Times,serif" font-size="14.00">0x615ce60:</text>
<text text-anchor="start" x="228" y="-2242.3" font-family="Times,serif" font-size="14.00"> if g9:</text>
</g>
<!-- Node0x27d5bee0&#45;&gt;Node0x15f77ba0 -->
<g id="edge5" class="edge"><title>Node0x27d5bee0&#45;&gt;Node0x15f77ba0</title>
<path fill="none" stroke="black" d="M270,-2310.42C270,-2300.55 270,-2291.08 270,-2282.83"/>
<polygon fill="black" stroke="black" points="273.5,-2282.75 270,-2272.75 266.5,-2282.75 273.5,-2282.75"/>
</g>
<!-- Node0x3d9e1810 -->
<g id="node7" class="node"><title>Node0x3d9e1810</title>
<polygon fill="none" stroke="black" points="648.5,-2234.5 648.5,-2272.5 767.5,-2272.5 767.5,-2234.5 648.5,-2234.5"/>
<text text-anchor="start" x="656.5" y="-2257.3" font-family="Times,serif" font-size="14.00">0x6154c60:</text>
<text text-anchor="start" x="656.5" y="-2242.3" font-family="Times,serif" font-size="14.00"> if (v12 == 0):</text>
</g>
<!-- Node0x34e82a90&#45;&gt;Node0x3d9e1810 -->
<g id="edge6" class="edge"><title>Node0x34e82a90&#45;&gt;Node0x3d9e1810</title>
<path fill="none" stroke="black" d="M708,-2340.48C708,-2320.67 708,-2299.18 708,-2282.64"/>
<polygon fill="black" stroke="black" points="711.5,-2282.55 708,-2272.55 704.5,-2282.55 711.5,-2282.55"/>
</g>
<!-- Node0x36919c50 -->
<g id="node8" class="node"><title>Node0x36919c50</title>
<polygon fill="none" stroke="black" points="0,-2024.5 0,-2092.5 260,-2092.5 260,-2024.5 0,-2024.5"/>
<text text-anchor="start" x="8" y="-2077.3" font-family="Times,serif" font-size="14.00">0x615c240:</text>
<text text-anchor="start" x="8" y="-2062.3" font-family="Times,serif" font-size="14.00"> v11 = g38</text>
<text text-anchor="start" x="8" y="-2047.3" font-family="Times,serif" font-size="14.00"> g30 = (g36 &amp; (v11 / 134217728))</text>
<text text-anchor="start" x="8" y="-2032.3" font-family="Times,serif" font-size="14.00"> g31 = (g29 &amp; (v11 / 16777216))</text>
</g>
<!-- Node0x15f77ba0&#45;&gt;Node0x36919c50 -->
<g id="edge7" class="edge"><title>Node0x15f77ba0&#45;&gt;Node0x36919c50</title>
<path fill="none" stroke="black" d="M256.829,-2234.34C234.859,-2204.06 190.187,-2142.47 160.166,-2101.09"/>
<polygon fill="black" stroke="black" points="162.887,-2098.88 154.182,-2092.84 157.221,-2102.99 162.887,-2098.88"/>
<text text-anchor="middle" x="253.5" y="-2204.8" font-family="Times,serif" font-size="14.00">g9</text>
</g>
<!-- Node0x2860d860 -->
<g id="node9" class="node"><title>Node0x2860d860</title>
<polygon fill="none" stroke="black" points="113,-1858.5 113,-1896.5 209,-1896.5 209,-1858.5 113,-1858.5"/>
<text text-anchor="start" x="121" y="-1881.3" font-family="Times,serif" font-size="14.00">0x615cfa0:</text>
<text text-anchor="start" x="121" y="-1866.3" font-family="Times,serif" font-size="14.00"> return</text>
</g>
<!-- Node0x15f77ba0&#45;&gt;Node0x2860d860 -->
<g id="edge8" class="edge"><title>Node0x15f77ba0&#45;&gt;Node0x2860d860</title>
<path fill="none" stroke="black" d="M276.016,-2234.2C291.833,-2182.47 329.368,-2032.55 269,-1934 257.691,-1915.54 238.076,-1902.96 218.638,-1894.51"/>
<polygon fill="black" stroke="black" points="219.731,-1891.18 209.147,-1890.69 217.116,-1897.67 219.731,-1891.18"/>
<text text-anchor="middle" x="331.5" y="-2054.8" font-family="Times,serif" font-size="14.00">not (g9)</text>
</g>
<!-- Node0x195bad20 -->
<g id="node10" class="node"><title>Node0x195bad20</title>
<polygon fill="none" stroke="black" points="383.5,-1972 383.5,-2145 876.5,-2145 876.5,-1972 383.5,-1972"/>
<text text-anchor="start" x="391.5" y="-2129.8" font-family="Times,serif" font-size="14.00">0x6154e60:</text>
<text text-anchor="start" x="391.5" y="-2114.8" font-family="Times,serif" font-size="14.00"> g29 = 0</text>
<text text-anchor="start" x="391.5" y="-2099.8" font-family="Times,serif" font-size="14.00"> v10 = g34</text>
<text text-anchor="start" x="391.5" y="-2084.8" font-family="Times,serif" font-size="14.00"> g38 = *(IntToPtrCastExpr&lt;ptr&gt;((v10 + 4)))</text>
<text text-anchor="start" x="391.5" y="-2069.8" font-family="Times,serif" font-size="14.00"> g39 = *(IntToPtrCastExpr&lt;ptr&gt;((v10 + 8)))</text>
<text text-anchor="start" x="391.5" y="-2054.8" font-family="Times,serif" font-size="14.00"> g40 = *(IntToPtrCastExpr&lt;ptr&gt;((v10 + 12)))</text>
<text text-anchor="start" x="391.5" y="-2039.8" font-family="Times,serif" font-size="14.00"> g41 = *(IntToPtrCastExpr&lt;ptr&gt;((v10 + 16)))</text>
<text text-anchor="start" x="391.5" y="-2024.8" font-family="Times,serif" font-size="14.00"> g42 = *(IntToPtrCastExpr&lt;ptr&gt;((v10 + 20)))</text>
<text text-anchor="start" x="391.5" y="-2009.8" font-family="Times,serif" font-size="14.00"> g32 = *(IntToPtrCastExpr&lt;ptr&gt;((v10 + 24)))</text>
<text text-anchor="start" x="391.5" y="-1994.8" font-family="Times,serif" font-size="14.00"> g34 = *(IntToPtrCastExpr&lt;ptr&gt;((v10 + 28)))</text>
<text text-anchor="start" x="391.5" y="-1979.8" font-family="Times,serif" font-size="14.00"> IntToPtrCastExpr&lt;ptr&gt;(*(IntToPtrCastExpr&lt;ptr&gt;((v10 + 32))))()</text>
</g>
<!-- Node0x3d9e1810&#45;&gt;Node0x195bad20 -->
<g id="edge9" class="edge"><title>Node0x3d9e1810&#45;&gt;Node0x195bad20</title>
<path fill="none" stroke="black" d="M700.662,-2234.34C693.101,-2215.63 680.714,-2184.98 668.405,-2154.53"/>
<polygon fill="black" stroke="black" points="671.585,-2153.06 664.593,-2145.1 665.095,-2155.68 671.585,-2153.06"/>
<text text-anchor="middle" x="727.5" y="-2204.8" font-family="Times,serif" font-size="14.00">v12 == 0</text>
</g>
<!-- Node0x1455dfd0 -->
<g id="node11" class="node"><title>Node0x1455dfd0</title>
<polygon fill="none" stroke="black" points="897,-1934.5 897,-2182.5 1253,-2182.5 1253,-1934.5 897,-1934.5"/>
<text text-anchor="start" x="905" y="-2167.3" font-family="Times,serif" font-size="14.00">0x613a2c0:</text>
<text text-anchor="start" x="905" y="-2152.3" font-family="Times,serif" font-size="14.00"> g30 = 44100</text>
<text text-anchor="start" x="905" y="-2137.3" font-family="Times,serif" font-size="14.00"> g36 = 1000</text>
<text text-anchor="start" x="905" y="-2122.3" font-family="Times,serif" font-size="14.00"> g29 = v9</text>
<text text-anchor="start" x="905" y="-2107.3" font-family="Times,serif" font-size="14.00"> function_132ac()</text>
<text text-anchor="start" x="905" y="-2092.3" font-family="Times,serif" font-size="14.00"> v13 = g29</text>
<text text-anchor="start" x="905" y="-2077.3" font-family="Times,serif" font-size="14.00"> g30 = v13</text>
<text text-anchor="start" x="905" y="-2062.3" font-family="Times,serif" font-size="14.00"> g41 = v13</text>
<text text-anchor="start" x="905" y="-2047.3" font-family="Times,serif" font-size="14.00"> g29 = *(IntToPtrCastExpr&lt;ptr&gt;((g38 + 116)))</text>
<text text-anchor="start" x="905" y="-2032.3" font-family="Times,serif" font-size="14.00"> function_1271c()</text>
<text text-anchor="start" x="905" y="-2017.3" font-family="Times,serif" font-size="14.00"> v14 = g29</text>
<text text-anchor="start" x="905" y="-2002.3" font-family="Times,serif" font-size="14.00"> v15 = (v14 + 1)</text>
<text text-anchor="start" x="905" y="-1987.3" font-family="Times,serif" font-size="14.00"> g6 = (v14 == &#45;1)</text>
<text text-anchor="start" x="905" y="-1972.3" font-family="Times,serif" font-size="14.00"> g8 = ((v15 &amp; &#45;(v14)) &lt; 0)</text>
<text text-anchor="start" x="905" y="-1957.3" font-family="Times,serif" font-size="14.00"> g7 = (v15 &lt; 0)</text>
<text text-anchor="start" x="905" y="-1942.3" font-family="Times,serif" font-size="14.00"> g9 = (v15 == 0)</text>
</g>
<!-- Node0x3d9e1810&#45;&gt;Node0x1455dfd0 -->
<g id="edge10" class="edge"><title>Node0x3d9e1810&#45;&gt;Node0x1455dfd0</title>
<path fill="none" stroke="black" d="M762.623,-2234.48C798.509,-2221.84 846.035,-2203.58 886,-2183 886.558,-2182.71 887.117,-2182.42 887.676,-2182.13"/>
<polygon fill="black" stroke="black" points="889.551,-2185.1 896.76,-2177.34 886.282,-2178.91 889.551,-2185.1"/>
<text text-anchor="middle" x="874.5" y="-2204.8" font-family="Times,serif" font-size="14.00">v12 != 0</text>
</g>
<!-- Node0x36919c50&#45;&gt;Node0x2860d860 -->
<g id="edge11" class="edge"><title>Node0x36919c50&#45;&gt;Node0x2860d860</title>
<path fill="none" stroke="black" d="M135.758,-2024.25C141.61,-1990.46 150.578,-1938.68 156.1,-1906.79"/>
<polygon fill="black" stroke="black" points="159.573,-1907.25 157.831,-1896.8 152.676,-1906.05 159.573,-1907.25"/>
</g>
<!-- Node0x32ff6dc0 -->
<g id="node12" class="node"><title>Node0x32ff6dc0</title>
<polygon fill="none" stroke="black" points="195,-23.5 195,-59.5 249,-59.5 249,-23.5 195,-23.5"/>
<text text-anchor="start" x="203" y="-37.8" font-family="Times,serif" font-size="14.00">exit:</text>
</g>
<!-- Node0x2860d860&#45;&gt;Node0x32ff6dc0 -->
<g id="edge12" class="edge"><title>Node0x2860d860&#45;&gt;Node0x32ff6dc0</title>
<path fill="none" stroke="black" d="M161,-1858.31C161,-1826.09 161,-1756.91 161,-1698.5 161,-1698.5 161,-1698.5 161,-130.5 161,-105.674 177.6,-82.8022 193.481,-66.6013"/>
<polygon fill="black" stroke="black" points="195.917,-69.1152 200.665,-59.644 191.047,-64.0867 195.917,-69.1152"/>
</g>
<!-- Node0x22ab5da0 -->
<g id="node13" class="node"><title>Node0x22ab5da0</title>
<polygon fill="none" stroke="black" points="468.5,-1858.5 468.5,-1896.5 569.5,-1896.5 569.5,-1858.5 468.5,-1858.5"/>
<text text-anchor="start" x="476.5" y="-1881.3" font-family="Times,serif" font-size="14.00">0x6158ad0:</text>
<text text-anchor="start" x="476.5" y="-1866.3" font-family="Times,serif" font-size="14.00"> if g9:</text>
</g>
<!-- Node0x195bad20&#45;&gt;Node0x22ab5da0 -->
<g id="edge13" class="edge"><title>Node0x195bad20&#45;&gt;Node0x22ab5da0</title>
<path fill="none" stroke="black" d="M576.938,-1971.93C561.939,-1947.74 546.702,-1923.17 535.621,-1905.3"/>
<polygon fill="black" stroke="black" points="538.472,-1903.26 530.228,-1896.61 532.523,-1906.95 538.472,-1903.26"/>
</g>
<!-- Node0x10ed3a80 -->
<g id="node14" class="node"><title>Node0x10ed3a80</title>
<polygon fill="none" stroke="black" points="1033.5,-1858.5 1033.5,-1896.5 1146.5,-1896.5 1146.5,-1858.5 1033.5,-1858.5"/>
<text text-anchor="start" x="1041.5" y="-1881.3" font-family="Times,serif" font-size="14.00">0x614fc90:</text>
<text text-anchor="start" x="1041.5" y="-1866.3" font-family="Times,serif" font-size="14.00"> if (v15 != 0):</text>
</g>
<!-- Node0x1455dfd0&#45;&gt;Node0x10ed3a80 -->
<g id="edge14" class="edge"><title>Node0x1455dfd0&#45;&gt;Node0x10ed3a80</title>
<path fill="none" stroke="black" d="M1085.34,-1934.16C1086.17,-1924.16 1086.96,-1914.83 1087.63,-1906.77"/>
<polygon fill="black" stroke="black" points="1091.13,-1906.89 1088.48,-1896.63 1084.16,-1906.3 1091.13,-1906.89"/>
</g>
<!-- Node0x35679690 -->
<g id="node15" class="node"><title>Node0x35679690</title>
<polygon fill="none" stroke="black" points="223,-1663.5 223,-1731.5 483,-1731.5 483,-1663.5 223,-1663.5"/>
<text text-anchor="start" x="231" y="-1716.3" font-family="Times,serif" font-size="14.00">0x6158160:</text>
<text text-anchor="start" x="231" y="-1701.3" font-family="Times,serif" font-size="14.00"> v11 = g38</text>
<text text-anchor="start" x="231" y="-1686.3" font-family="Times,serif" font-size="14.00"> g30 = (g36 &amp; (v11 / 134217728))</text>
<text text-anchor="start" x="231" y="-1671.3" font-family="Times,serif" font-size="14.00"> g31 = (g29 &amp; (v11 / 16777216))</text>
</g>
<!-- Node0x22ab5da0&#45;&gt;Node0x35679690 -->
<g id="edge15" class="edge"><title>Node0x22ab5da0&#45;&gt;Node0x35679690</title>
<path fill="none" stroke="black" d="M502.17,-1858.45C476.314,-1830.73 426.147,-1776.93 391.164,-1739.42"/>
<polygon fill="black" stroke="black" points="393.323,-1736.61 383.944,-1731.68 388.204,-1741.38 393.323,-1736.61"/>
<text text-anchor="middle" x="493.5" y="-1828.8" font-family="Times,serif" font-size="14.00">g9</text>
</g>
<!-- Node0x2300b030 -->
<g id="node16" class="node"><title>Node0x2300b030</title>
<polygon fill="none" stroke="black" points="302.5,-1512.5 302.5,-1550.5 403.5,-1550.5 403.5,-1512.5 302.5,-1512.5"/>
<text text-anchor="start" x="310.5" y="-1535.3" font-family="Times,serif" font-size="14.00">0x6158c10:</text>
<text text-anchor="start" x="310.5" y="-1520.3" font-family="Times,serif" font-size="14.00"> return</text>
</g>
<!-- Node0x22ab5da0&#45;&gt;Node0x2300b030 -->
<g id="edge16" class="edge"><title>Node0x22ab5da0&#45;&gt;Node0x2300b030</title>
<path fill="none" stroke="black" d="M523.191,-1858.36C533.426,-1809.21 554.515,-1671.59 492,-1588 473.416,-1563.15 441.923,-1549.41 413.608,-1541.82"/>
<polygon fill="black" stroke="black" points="414.3,-1538.38 403.752,-1539.38 412.62,-1545.18 414.3,-1538.38"/>
<text text-anchor="middle" x="563.5" y="-1693.8" font-family="Times,serif" font-size="14.00">not (g9)</text>
</g>
<!-- Node0x16d2a170 -->
<g id="node17" class="node"><title>Node0x16d2a170</title>
<polygon fill="none" stroke="black" points="912,-1588.5 912,-1806.5 1268,-1806.5 1268,-1588.5 912,-1588.5"/>
<text text-anchor="start" x="920" y="-1791.3" font-family="Times,serif" font-size="14.00">0x3b5b2240:</text>
<text text-anchor="start" x="920" y="-1776.3" font-family="Times,serif" font-size="14.00"> v16 = (v14 &amp; &#45;4)</text>
<text text-anchor="start" x="920" y="-1761.3" font-family="Times,serif" font-size="14.00"> g36 = v16</text>
<text text-anchor="start" x="920" y="-1746.3" font-family="Times,serif" font-size="14.00"> g30 = (g40 &#45; 10542)</text>
<text text-anchor="start" x="920" y="-1731.3" font-family="Times,serif" font-size="14.00"> *(IntToPtrCastExpr&lt;ptr&gt;((g38 + 208))) = v16</text>
<text text-anchor="start" x="920" y="-1716.3" font-family="Times,serif" font-size="14.00"> g29 = (g38 + 292)</text>
<text text-anchor="start" x="920" y="-1701.3" font-family="Times,serif" font-size="14.00"> g37 = 0</text>
<text text-anchor="start" x="920" y="-1686.3" font-family="Times,serif" font-size="14.00"> function_31a0()</text>
<text text-anchor="start" x="920" y="-1671.3" font-family="Times,serif" font-size="14.00"> v17 = g38</text>
<text text-anchor="start" x="920" y="-1656.3" font-family="Times,serif" font-size="14.00"> v18 = *(IntToPtrCastExpr&lt;ptr&gt;((v17 + 204)))</text>
<text text-anchor="start" x="920" y="-1641.3" font-family="Times,serif" font-size="14.00"> g30 = v18</text>
<text text-anchor="start" x="920" y="-1626.3" font-family="Times,serif" font-size="14.00"> g8 = False</text>
<text text-anchor="start" x="920" y="-1611.3" font-family="Times,serif" font-size="14.00"> g7 = (v18 &lt; 0)</text>
<text text-anchor="start" x="920" y="-1596.3" font-family="Times,serif" font-size="14.00"> v19 = v17</text>
</g>
<!-- Node0x10ed3a80&#45;&gt;Node0x16d2a170 -->
<g id="edge17" class="edge"><title>Node0x10ed3a80&#45;&gt;Node0x16d2a170</title>
<path fill="none" stroke="black" d="M1090,-1858.45C1090,-1847.69 1090,-1833.01 1090,-1816.87"/>
<polygon fill="black" stroke="black" points="1093.5,-1816.66 1090,-1806.66 1086.5,-1816.66 1093.5,-1816.66"/>
<text text-anchor="middle" x="1121.5" y="-1828.8" font-family="Times,serif" font-size="14.00">v15 != 0</text>
</g>
<!-- Node0x10ecec80 -->
<g id="node18" class="node"><title>Node0x10ecec80</title>
<polygon fill="none" stroke="black" points="631.5,-293.5 631.5,-466.5 1124.5,-466.5 1124.5,-293.5 631.5,-293.5"/>
<text text-anchor="start" x="639.5" y="-451.3" font-family="Times,serif" font-size="14.00">0x614fe50:</text>
<text text-anchor="start" x="639.5" y="-436.3" font-family="Times,serif" font-size="14.00"> g29 = 0</text>
<text text-anchor="start" x="639.5" y="-421.3" font-family="Times,serif" font-size="14.00"> v10 = g34</text>
<text text-anchor="start" x="639.5" y="-406.3" font-family="Times,serif" font-size="14.00"> g38 = *(IntToPtrCastExpr&lt;ptr&gt;((v10 + 4)))</text>
<text text-anchor="start" x="639.5" y="-391.3" font-family="Times,serif" font-size="14.00"> g39 = *(IntToPtrCastExpr&lt;ptr&gt;((v10 + 8)))</text>
<text text-anchor="start" x="639.5" y="-376.3" font-family="Times,serif" font-size="14.00"> g40 = *(IntToPtrCastExpr&lt;ptr&gt;((v10 + 12)))</text>
<text text-anchor="start" x="639.5" y="-361.3" font-family="Times,serif" font-size="14.00"> g41 = *(IntToPtrCastExpr&lt;ptr&gt;((v10 + 16)))</text>
<text text-anchor="start" x="639.5" y="-346.3" font-family="Times,serif" font-size="14.00"> g42 = *(IntToPtrCastExpr&lt;ptr&gt;((v10 + 20)))</text>
<text text-anchor="start" x="639.5" y="-331.3" font-family="Times,serif" font-size="14.00"> g32 = *(IntToPtrCastExpr&lt;ptr&gt;((v10 + 24)))</text>
<text text-anchor="start" x="639.5" y="-316.3" font-family="Times,serif" font-size="14.00"> g34 = *(IntToPtrCastExpr&lt;ptr&gt;((v10 + 28)))</text>
<text text-anchor="start" x="639.5" y="-301.3" font-family="Times,serif" font-size="14.00"> IntToPtrCastExpr&lt;ptr&gt;(*(IntToPtrCastExpr&lt;ptr&gt;((v10 + 32))))()</text>
</g>
<!-- Node0x10ed3a80&#45;&gt;Node0x10ecec80 -->
<g id="edge18" class="edge"><title>Node0x10ed3a80&#45;&gt;Node0x10ecec80</title>
<path fill="none" stroke="black" d="M1146.61,-1869.25C1188.19,-1861.02 1243.13,-1843.61 1277,-1807 1311.06,-1770.19 1308,-1748.65 1308,-1698.5 1308,-1698.5 1308,-1698.5 1308,-680 1308,-578.372 1226.03,-508.49 1133.67,-462.006"/>
<polygon fill="black" stroke="black" points="1135.22,-458.867 1124.71,-457.58 1132.12,-465.144 1135.22,-458.867"/>
<text text-anchor="middle" x="1342.5" y="-1211.8" font-family="Times,serif" font-size="14.00">v15 == 0</text>
</g>
<!-- Node0x35679690&#45;&gt;Node0x2300b030 -->
<g id="edge19" class="edge"><title>Node0x35679690&#45;&gt;Node0x2300b030</title>
<path fill="none" stroke="black" d="M353,-1663.31C353,-1633.27 353,-1589.48 353,-1560.99"/>
<polygon fill="black" stroke="black" points="356.5,-1560.88 353,-1550.88 349.5,-1560.88 356.5,-1560.88"/>
</g>
<!-- Node0x2300b030&#45;&gt;Node0x32ff6dc0 -->
<g id="edge20" class="edge"><title>Node0x2300b030&#45;&gt;Node0x32ff6dc0</title>
<path fill="none" stroke="black" d="M302.148,-1517.03C257.291,-1501.71 199,-1471.83 199,-1420 199,-1420 199,-1420 199,-130.5 199,-109.38 205.278,-86.3074 211.274,-69.088"/>
<polygon fill="black" stroke="black" points="214.566,-70.2785 214.723,-59.6848 207.994,-67.8684 214.566,-70.2785"/>
</g>
<!-- Node0x1d9be580 -->
<g id="node19" class="node"><title>Node0x1d9be580</title>
<polygon fill="none" stroke="black" points="1030.5,-1512.5 1030.5,-1550.5 1149.5,-1550.5 1149.5,-1512.5 1030.5,-1512.5"/>
<text text-anchor="start" x="1038.5" y="-1535.3" font-family="Times,serif" font-size="14.00">0x61412a0:</text>
<text text-anchor="start" x="1038.5" y="-1520.3" font-family="Times,serif" font-size="14.00"> if (v18 &gt;= 1):</text>
</g>
<!-- Node0x16d2a170&#45;&gt;Node0x1d9be580 -->
<g id="edge21" class="edge"><title>Node0x16d2a170&#45;&gt;Node0x1d9be580</title>
<path fill="none" stroke="black" d="M1090,-1588.48C1090,-1578.59 1090,-1569.25 1090,-1561.15"/>
<polygon fill="black" stroke="black" points="1093.5,-1560.92 1090,-1550.92 1086.5,-1560.92 1093.5,-1560.92"/>
</g>
<!-- Node0x4081c6c0 -->
<g id="node20" class="node"><title>Node0x4081c6c0</title>
<polygon fill="none" stroke="black" points="399.5,-217.5 399.5,-255.5 500.5,-255.5 500.5,-217.5 399.5,-217.5"/>
<text text-anchor="start" x="407.5" y="-240.3" font-family="Times,serif" font-size="14.00">0x6154780:</text>
<text text-anchor="start" x="407.5" y="-225.3" font-family="Times,serif" font-size="14.00"> if g9:</text>
</g>
<!-- Node0x10ecec80&#45;&gt;Node0x4081c6c0 -->
<g id="edge22" class="edge"><title>Node0x10ecec80&#45;&gt;Node0x4081c6c0</title>
<path fill="none" stroke="black" d="M631.2,-297.406C586.295,-282.56 543.363,-268.367 510.569,-257.525"/>
<polygon fill="black" stroke="black" points="511.32,-254.086 500.726,-254.271 509.122,-260.733 511.32,-254.086"/>
</g>
<!-- Node0x356785e0 -->
<g id="node21" class="node"><title>Node0x356785e0</title>
<polygon fill="none" stroke="black" points="736,-1377.5 736,-1460.5 1092,-1460.5 1092,-1377.5 736,-1377.5"/>
<text text-anchor="start" x="744" y="-1445.3" font-family="Times,serif" font-size="14.00">0x6140050:</text>
<text text-anchor="start" x="744" y="-1430.3" font-family="Times,serif" font-size="14.00"> g29 = *(IntToPtrCastExpr&lt;ptr&gt;((v17 + 4)))</text>
<text text-anchor="start" x="744" y="-1415.3" font-family="Times,serif" font-size="14.00"> function_3920()</text>
<text text-anchor="start" x="744" y="-1400.3" font-family="Times,serif" font-size="14.00"> *(IntToPtrCastExpr&lt;ptr&gt;((g38 + 204))) = g39</text>
<text text-anchor="start" x="744" y="-1385.3" font-family="Times,serif" font-size="14.00"> v19 = g38</text>
</g>
<!-- Node0x1d9be580&#45;&gt;Node0x356785e0 -->
<g id="edge23" class="edge"><title>Node0x1d9be580&#45;&gt;Node0x356785e0</title>
<path fill="none" stroke="black" d="M1060.94,-1512.25C1040.85,-1499.64 1013.18,-1482.27 987.264,-1466"/>
<polygon fill="black" stroke="black" points="988.886,-1462.88 978.556,-1460.53 985.164,-1468.81 988.886,-1462.88"/>
<text text-anchor="middle" x="1062.5" y="-1482.8" font-family="Times,serif" font-size="14.00">v18 &gt;= 1</text>
</g>
<!-- Node0x31aaacb0 -->
<g id="node22" class="node"><title>Node0x31aaacb0</title>
<polygon fill="none" stroke="black" points="643.5,-1091.5 643.5,-1339.5 1258.5,-1339.5 1258.5,-1091.5 643.5,-1091.5"/>
<text text-anchor="start" x="651.5" y="-1324.3" font-family="Times,serif" font-size="14.00">0x1b33e7e0:</text>
<text text-anchor="start" x="651.5" y="-1309.3" font-family="Times,serif" font-size="14.00"> v20 = *(IntToPtrCastExpr&lt;ptr&gt;((v19 + 124)))</text>
<text text-anchor="start" x="651.5" y="-1294.3" font-family="Times,serif" font-size="14.00"> g36 = 0</text>
<text text-anchor="start" x="651.5" y="-1279.3" font-family="Times,serif" font-size="14.00"> v21 = g41</text>
<text text-anchor="start" x="651.5" y="-1264.3" font-family="Times,serif" font-size="14.00"> v22 = (v21 &#45; v20)</text>
<text text-anchor="start" x="651.5" y="-1249.3" font-family="Times,serif" font-size="14.00"> g6 = (v21 &gt;= v20)</text>
<text text-anchor="start" x="651.5" y="-1234.3" font-family="Times,serif" font-size="14.00"> g8 = (((v22 ^ v21) &amp; (v21 ^ v20)) &lt; 0)</text>
<text text-anchor="start" x="651.5" y="-1219.3" font-family="Times,serif" font-size="14.00"> g7 = (v22 &lt; 0)</text>
<text text-anchor="start" x="651.5" y="-1204.3" font-family="Times,serif" font-size="14.00"> g9 = (v21 == v20)</text>
<text text-anchor="start" x="651.5" y="-1189.3" font-family="Times,serif" font-size="14.00"> g29 = 1</text>
<text text-anchor="start" x="651.5" y="-1174.3" font-family="Times,serif" font-size="14.00"> *(IntToPtrCastExpr&lt;ptr&gt;((v19 + 188))) = *(IntToPtrCastExpr&lt;ptr&gt;((v19 + 190)))</text>
<text text-anchor="start" x="651.5" y="-1159.3" font-family="Times,serif" font-size="14.00"> v23 = g38</text>
<text text-anchor="start" x="651.5" y="-1144.3" font-family="Times,serif" font-size="14.00"> g37 = ExtCastExpr&lt;int32&gt;(*(IntToPtrCastExpr&lt;ptr&gt;((v23 + 178))))</text>
<text text-anchor="start" x="651.5" y="-1129.3" font-family="Times,serif" font-size="14.00"> *(IntToPtrCastExpr&lt;ptr&gt;((v23 + 56))) = g39</text>
<text text-anchor="start" x="651.5" y="-1114.3" font-family="Times,serif" font-size="14.00"> *(IntToPtrCastExpr&lt;ptr&gt;((g38 + 176))) = TruncCastExpr&lt;int16&gt;(g37)</text>
<text text-anchor="start" x="651.5" y="-1099.3" font-family="Times,serif" font-size="14.00"> v24 = g38</text>
</g>
<!-- Node0x1d9be580&#45;&gt;Node0x31aaacb0 -->
<g id="edge24" class="edge"><title>Node0x1d9be580&#45;&gt;Node0x31aaacb0</title>
<path fill="none" stroke="black" d="M1096.26,-1512.24C1105.32,-1482.67 1119.14,-1422.98 1101,-1377 1097.13,-1367.19 1092.34,-1357.62 1086.88,-1348.36"/>
<polygon fill="black" stroke="black" points="1089.69,-1346.25 1081.45,-1339.58 1083.74,-1349.93 1089.69,-1346.25"/>
<text text-anchor="middle" x="1137.5" y="-1415.3" font-family="Times,serif" font-size="14.00">v18 &lt; 1</text>
</g>
<!-- Node0x4081c6c0&#45;&gt;Node0x32ff6dc0 -->
<g id="edge26" class="edge"><title>Node0x4081c6c0&#45;&gt;Node0x32ff6dc0</title>
<path fill="none" stroke="black" d="M399.339,-230.715C354.861,-223.816 291.563,-206.992 254,-166 229.825,-139.619 223.418,-97.3501 221.981,-69.7529"/>
<polygon fill="black" stroke="black" points="225.475,-69.4871 221.642,-59.6098 218.479,-69.7213 225.475,-69.4871"/>
<text text-anchor="middle" x="282.5" y="-127.8" font-family="Times,serif" font-size="14.00">not (g9)</text>
</g>
<!-- Node0x3691e4c0 -->
<g id="node23" class="node"><title>Node0x3691e4c0</title>
<polygon fill="none" stroke="black" points="320,-97.5 320,-165.5 580,-165.5 580,-97.5 320,-97.5"/>
<text text-anchor="start" x="328" y="-150.3" font-family="Times,serif" font-size="14.00">0x61538c0:</text>
<text text-anchor="start" x="328" y="-135.3" font-family="Times,serif" font-size="14.00"> v11 = g38</text>
<text text-anchor="start" x="328" y="-120.3" font-family="Times,serif" font-size="14.00"> g30 = (g36 &amp; (v11 / 134217728))</text>
<text text-anchor="start" x="328" y="-105.3" font-family="Times,serif" font-size="14.00"> g31 = (g29 &amp; (v11 / 16777216))</text>
</g>
<!-- Node0x4081c6c0&#45;&gt;Node0x3691e4c0 -->
<g id="edge25" class="edge"><title>Node0x4081c6c0&#45;&gt;Node0x3691e4c0</title>
<path fill="none" stroke="black" d="M450,-217.086C450,-205.631 450,-190.39 450,-176.003"/>
<polygon fill="black" stroke="black" points="453.5,-175.743 450,-165.743 446.5,-175.743 453.5,-175.743"/>
<text text-anchor="middle" x="459.5" y="-187.8" font-family="Times,serif" font-size="14.00">g9</text>
</g>
<!-- Node0x356785e0&#45;&gt;Node0x31aaacb0 -->
<g id="edge27" class="edge"><title>Node0x356785e0&#45;&gt;Node0x31aaacb0</title>
<path fill="none" stroke="black" d="M921.488,-1377.22C923.04,-1368.77 924.754,-1359.43 926.553,-1349.64"/>
<polygon fill="black" stroke="black" points="930.013,-1350.17 928.376,-1339.71 923.128,-1348.91 930.013,-1350.17"/>
</g>
<!-- Node0x1d316300 -->
<g id="node24" class="node"><title>Node0x1d316300</title>
<polygon fill="none" stroke="black" points="889,-1000.5 889,-1053.5 1013,-1053.5 1013,-1000.5 889,-1000.5"/>
<text text-anchor="start" x="897" y="-1038.3" font-family="Times,serif" font-size="14.00">0x6146ae0:</text>
<text text-anchor="start" x="897" y="-1023.3" font-family="Times,serif" font-size="14.00"> if (v21 &gt; v20):</text>
<text text-anchor="start" x="897" y="-1008.3" font-family="Times,serif" font-size="14.00"> else:</text>
</g>
<!-- Node0x31aaacb0&#45;&gt;Node0x1d316300 -->
<g id="edge28" class="edge"><title>Node0x31aaacb0&#45;&gt;Node0x1d316300</title>
<path fill="none" stroke="black" d="M951,-1091.4C951,-1081.46 951,-1072.03 951,-1063.62"/>
<polygon fill="black" stroke="black" points="954.5,-1063.56 951,-1053.56 947.5,-1063.56 954.5,-1063.56"/>
</g>
<!-- Node0x3691e4c0&#45;&gt;Node0x32ff6dc0 -->
<g id="edge29" class="edge"><title>Node0x3691e4c0&#45;&gt;Node0x32ff6dc0</title>
<path fill="none" stroke="black" d="M364.453,-97.4817C327.943,-83.3903 287.274,-67.6936 258.768,-56.691"/>
<polygon fill="black" stroke="black" points="259.808,-53.3409 249.218,-53.0053 257.287,-59.8714 259.808,-53.3409"/>
</g>
<!-- Node0x3e1b2a80 -->
<g id="node25" class="node"><title>Node0x3e1b2a80</title>
<polygon fill="none" stroke="black" points="227.5,-895.5 227.5,-948.5 744.5,-948.5 744.5,-895.5 227.5,-895.5"/>
<text text-anchor="start" x="235.5" y="-933.3" font-family="Times,serif" font-size="14.00">0x36b14710:</text>
<text text-anchor="start" x="235.5" y="-918.3" font-family="Times,serif" font-size="14.00"> v25 = IntToPtrCastExpr&lt;ptr&gt;((v24 + 226))</text>
<text text-anchor="start" x="235.5" y="-903.3" font-family="Times,serif" font-size="14.00"> *(v25) = TruncCastExpr&lt;int16&gt;((ExtCastExpr&lt;int32&gt;(*(v25)) + 1))</text>
</g>
<!-- Node0x1d316300&#45;&gt;Node0x3e1b2a80 -->
<g id="edge30" class="edge"><title>Node0x1d316300&#45;&gt;Node0x3e1b2a80</title>
<path fill="none" stroke="black" d="M888.771,-1012.22C818.164,-996.576 701.182,-970.664 611.432,-950.784"/>
<polygon fill="black" stroke="black" points="611.978,-947.32 601.457,-948.574 610.464,-954.154 611.978,-947.32"/>
<text text-anchor="middle" x="783" y="-970.8" font-family="Times,serif" font-size="14.00">v21 &gt; v20</text>
</g>
<!-- Node0x3691c1f0 -->
<g id="node26" class="node"><title>Node0x3691c1f0</title>
<polygon fill="none" stroke="black" points="762.5,-895.5 762.5,-948.5 1279.5,-948.5 1279.5,-895.5 762.5,-895.5"/>
<text text-anchor="start" x="770.5" y="-933.3" font-family="Times,serif" font-size="14.00">0x3fe2bff0:</text>
<text text-anchor="start" x="770.5" y="-918.3" font-family="Times,serif" font-size="14.00"> v26 = IntToPtrCastExpr&lt;ptr&gt;((v24 + 228))</text>
<text text-anchor="start" x="770.5" y="-903.3" font-family="Times,serif" font-size="14.00"> *(v26) = TruncCastExpr&lt;int16&gt;((ExtCastExpr&lt;int32&gt;(*(v26)) + 1))</text>
</g>
<!-- Node0x1d316300&#45;&gt;Node0x3691c1f0 -->
<g id="edge31" class="edge"><title>Node0x1d316300&#45;&gt;Node0x3691c1f0</title>
<path fill="none" stroke="black" d="M968.483,-1000.27C977.337,-987.248 988.205,-971.256 997.752,-957.207"/>
<polygon fill="black" stroke="black" points="1000.77,-958.993 1003.5,-948.755 994.981,-955.058 1000.77,-958.993"/>
<text text-anchor="middle" x="1033" y="-970.8" font-family="Times,serif" font-size="14.00">v21 &lt;= v20</text>
</g>
<!-- Node0x1507a130 -->
<g id="node27" class="node"><title>Node0x1507a130</title>
<polygon fill="none" stroke="black" points="613.5,-504.5 613.5,-857.5 1142.5,-857.5 1142.5,-504.5 613.5,-504.5"/>
<text text-anchor="start" x="621.5" y="-842.3" font-family="Times,serif" font-size="14.00">0x21d9b4c0:</text>
<text text-anchor="start" x="621.5" y="-827.3" font-family="Times,serif" font-size="14.00"> v27 = g38</text>
<text text-anchor="start" x="621.5" y="-812.3" font-family="Times,serif" font-size="14.00"> g37 = ExtCastExpr&lt;int32&gt;(*(IntToPtrCastExpr&lt;ptr&gt;((v27 + 100))))</text>
<text text-anchor="start" x="621.5" y="-797.3" font-family="Times,serif" font-size="14.00"> *(IntToPtrCastExpr&lt;ptr&gt;((v27 + 24))) = g39</text>
<text text-anchor="start" x="621.5" y="-782.3" font-family="Times,serif" font-size="14.00"> g37 = (g37 | 1)</text>
<text text-anchor="start" x="621.5" y="-767.3" font-family="Times,serif" font-size="14.00"> *(IntToPtrCastExpr&lt;ptr&gt;((g38 + 142))) = TruncCastExpr&lt;int8&gt;(g39)</text>
<text text-anchor="start" x="621.5" y="-752.3" font-family="Times,serif" font-size="14.00"> *(IntToPtrCastExpr&lt;ptr&gt;((g38 + 172))) = TruncCastExpr&lt;int8&gt;(g39)</text>
<text text-anchor="start" x="621.5" y="-737.3" font-family="Times,serif" font-size="14.00"> *(IntToPtrCastExpr&lt;ptr&gt;((g38 + 40))) = g39</text>
<text text-anchor="start" x="621.5" y="-722.3" font-family="Times,serif" font-size="14.00"> *(IntToPtrCastExpr&lt;ptr&gt;((g38 + 60))) = g39</text>
<text text-anchor="start" x="621.5" y="-707.3" font-family="Times,serif" font-size="14.00"> *(IntToPtrCastExpr&lt;ptr&gt;((g38 + 100))) = TruncCastExpr&lt;int8&gt;(g37)</text>
<text text-anchor="start" x="621.5" y="-692.3" font-family="Times,serif" font-size="14.00"> *(IntToPtrCastExpr&lt;ptr&gt;((g38 + 124))) = g41</text>
<text text-anchor="start" x="621.5" y="-677.3" font-family="Times,serif" font-size="14.00"> *(IntToPtrCastExpr&lt;ptr&gt;((g38 + 128))) = g42</text>
<text text-anchor="start" x="621.5" y="-662.3" font-family="Times,serif" font-size="14.00"> *(IntToPtrCastExpr&lt;ptr&gt;((g38 + 136))) = g36</text>
<text text-anchor="start" x="621.5" y="-647.3" font-family="Times,serif" font-size="14.00"> *(IntToPtrCastExpr&lt;ptr&gt;((g38 + 132))) = g36</text>
<text text-anchor="start" x="621.5" y="-632.3" font-family="Times,serif" font-size="14.00"> g38 = v1</text>
<text text-anchor="start" x="621.5" y="-617.3" font-family="Times,serif" font-size="14.00"> g39 = v2</text>
<text text-anchor="start" x="621.5" y="-602.3" font-family="Times,serif" font-size="14.00"> g40 = v3</text>
<text text-anchor="start" x="621.5" y="-587.3" font-family="Times,serif" font-size="14.00"> g41 = v4</text>
<text text-anchor="start" x="621.5" y="-572.3" font-family="Times,serif" font-size="14.00"> g42 = v5</text>
<text text-anchor="start" x="621.5" y="-557.3" font-family="Times,serif" font-size="14.00"> g32 = v6</text>
<text text-anchor="start" x="621.5" y="-542.3" font-family="Times,serif" font-size="14.00"> v28</text>
<text text-anchor="start" x="621.5" y="-527.3" font-family="Times,serif" font-size="14.00"> g34 = v28</text>
<text text-anchor="start" x="621.5" y="-512.3" font-family="Times,serif" font-size="14.00"> IntToPtrCastExpr&lt;ptr&gt;(g35)()</text>
</g>
<!-- Node0x3e1b2a80&#45;&gt;Node0x1507a130 -->
<g id="edge32" class="edge"><title>Node0x3e1b2a80&#45;&gt;Node0x1507a130</title>
<path fill="none" stroke="black" d="M527.951,-895.423C548.444,-882.928 575.007,-866.733 604.338,-848.85"/>
<polygon fill="black" stroke="black" points="606.386,-851.701 613.102,-843.507 602.742,-845.724 606.386,-851.701"/>
</g>
<!-- Node0x3691c1f0&#45;&gt;Node0x1507a130 -->
<g id="edge33" class="edge"><title>Node0x3691c1f0&#45;&gt;Node0x1507a130</title>
<path fill="none" stroke="black" d="M1005.7,-895.423C1000.81,-887.251 994.971,-877.497 988.524,-866.722"/>
<polygon fill="black" stroke="black" points="991.368,-864.658 983.23,-857.873 985.361,-868.252 991.368,-864.658"/>
</g>
<!-- Node0x1507a130&#45;&gt;Node0x10ecec80 -->
<g id="edge34" class="edge"><title>Node0x1507a130&#45;&gt;Node0x10ecec80</title>
<path fill="none" stroke="black" d="M878,-504.341C878,-494.92 878,-485.643 878,-476.664"/>
<polygon fill="black" stroke="black" points="881.5,-476.663 878,-466.663 874.5,-476.663 881.5,-476.663"/>
</g>
</g>
</svg>
