<?xml version="1.0" encoding="UTF-8" standalone="no"?>
<!DOCTYPE svg PUBLIC "-//W3C//DTD SVG 1.1//EN"
 "http://www.w3.org/Graphics/SVG/1.1/DTD/svg11.dtd">
<!-- Generated by graphviz version 2.38.0 (20140413.2041)
 -->
<!-- Title: Control&#45;flow graph for function &#39;function_1b664()&#39;. Pages: 1 -->
<svg width="741pt" height="843pt"
 viewBox="0.00 0.00 741.00 843.00" xmlns="http://www.w3.org/2000/svg" xmlns:xlink="http://www.w3.org/1999/xlink">
<g id="graph0" class="graph" transform="scale(1 1) rotate(0) translate(4 839)">
<title>Control&#45;flow graph for function &#39;function_1b664()&#39;.</title>
<polygon fill="white" stroke="none" points="-4,4 -4,-839 737,-839 737,4 -4,4"/>
<text text-anchor="middle" x="366.5" y="-7.8" font-family="Times,serif" font-size="14.00">Control&#45;flow graph for function &#39;function_1b664()&#39;.</text>
<!-- Node0x3f811af0 -->
<g id="node1" class="node"><title>Node0x3f811af0</title>
<polygon fill="none" stroke="black" points="157,-798.5 157,-834.5 216,-834.5 216,-798.5 157,-798.5"/>
<text text-anchor="start" x="165" y="-812.8" font-family="Times,serif" font-size="14.00">entry:</text>
</g>
<!-- Node0x3a498310 -->
<g id="node2" class="node"><title>Node0x3a498310</title>
<polygon fill="none" stroke="black" points="121.5,-647.5 121.5,-760.5 251.5,-760.5 251.5,-647.5 121.5,-647.5"/>
<text text-anchor="start" x="129.5" y="-745.3" font-family="Times,serif" font-size="14.00">0x469e21a0:</text>
<text text-anchor="start" x="129.5" y="-730.3" font-family="Times,serif" font-size="14.00"> v1 = g38</text>
<text text-anchor="start" x="129.5" y="-715.3" font-family="Times,serif" font-size="14.00"> v2 = g32</text>
<text text-anchor="start" x="129.5" y="-700.3" font-family="Times,serif" font-size="14.00"> v3 = g35</text>
<text text-anchor="start" x="129.5" y="-685.3" font-family="Times,serif" font-size="14.00"> v4 = g29</text>
<text text-anchor="start" x="129.5" y="-670.3" font-family="Times,serif" font-size="14.00"> g9 = (v4 == 0)</text>
<text text-anchor="start" x="129.5" y="-655.3" font-family="Times,serif" font-size="14.00"> v5</text>
</g>
<!-- Node0x3f811af0&#45;&gt;Node0x3a498310 -->
<g id="edge1" class="edge"><title>Node0x3f811af0&#45;&gt;Node0x3a498310</title>
<path fill="none" stroke="black" d="M186.5,-798.234C186.5,-790.586 186.5,-781.056 186.5,-771.033"/>
<polygon fill="black" stroke="black" points="190,-770.897 186.5,-760.897 183,-770.897 190,-770.897"/>
</g>
<!-- Node0x3f8144c0 -->
<g id="node3" class="node"><title>Node0x3f8144c0</title>
<polygon fill="none" stroke="black" points="131.5,-571.5 131.5,-609.5 241.5,-609.5 241.5,-571.5 131.5,-571.5"/>
<text text-anchor="start" x="139.5" y="-594.3" font-family="Times,serif" font-size="14.00">0x93a4870:</text>
<text text-anchor="start" x="139.5" y="-579.3" font-family="Times,serif" font-size="14.00"> if (v4 == 0):</text>
</g>
<!-- Node0x3a498310&#45;&gt;Node0x3f8144c0 -->
<g id="edge2" class="edge"><title>Node0x3a498310&#45;&gt;Node0x3f8144c0</title>
<path fill="none" stroke="black" d="M186.5,-647.25C186.5,-637.862 186.5,-628.474 186.5,-620.151"/>
<polygon fill="black" stroke="black" points="190,-619.912 186.5,-609.912 183,-619.912 190,-619.912"/>
</g>
<!-- Node0x1047fc70 -->
<g id="node4" class="node"><title>Node0x1047fc70</title>
<polygon fill="none" stroke="black" points="0,-304.5 0,-402.5 233,-402.5 233,-304.5 0,-304.5"/>
<text text-anchor="start" x="8" y="-387.3" font-family="Times,serif" font-size="14.00">0x93a40b0:</text>
<text text-anchor="start" x="8" y="-372.3" font-family="Times,serif" font-size="14.00"> g38 = v1</text>
<text text-anchor="start" x="8" y="-357.3" font-family="Times,serif" font-size="14.00"> g32 = v2</text>
<text text-anchor="start" x="8" y="-342.3" font-family="Times,serif" font-size="14.00"> g34 = v5</text>
<text text-anchor="start" x="8" y="-327.3" font-family="Times,serif" font-size="14.00"> IntToPtrCastExpr&lt;ptr&gt;(v3)()</text>
<text text-anchor="start" x="8" y="-312.3" font-family="Times,serif" font-size="14.00"> return</text>
</g>
<!-- Node0x3f8144c0&#45;&gt;Node0x1047fc70 -->
<g id="edge3" class="edge"><title>Node0x3f8144c0&#45;&gt;Node0x1047fc70</title>
<path fill="none" stroke="black" d="M181.003,-571.31C179.241,-565.464 177.284,-558.96 175.5,-553 161.34,-505.69 145.39,-452.002 133.647,-412.401"/>
<polygon fill="black" stroke="black" points="136.954,-411.241 130.755,-402.648 130.242,-413.231 136.954,-411.241"/>
<text text-anchor="middle" x="205.5" y="-541.8" font-family="Times,serif" font-size="14.00">v4 == 0</text>
</g>
<!-- Node0x3e9b7c90 -->
<g id="node5" class="node"><title>Node0x3e9b7c90</title>
<polygon fill="none" stroke="black" points="178.5,-421.5 178.5,-519.5 516.5,-519.5 516.5,-421.5 178.5,-421.5"/>
<text text-anchor="start" x="186.5" y="-504.3" font-family="Times,serif" font-size="14.00">0x14d2f900:</text>
<text text-anchor="start" x="186.5" y="-489.3" font-family="Times,serif" font-size="14.00"> g38 = *(IntToPtrCastExpr&lt;ptr&gt;((v4 + 12)))</text>
<text text-anchor="start" x="186.5" y="-474.3" font-family="Times,serif" font-size="14.00"> function_1b61c()</text>
<text text-anchor="start" x="186.5" y="-459.3" font-family="Times,serif" font-size="14.00"> v6 = g38</text>
<text text-anchor="start" x="186.5" y="-444.3" font-family="Times,serif" font-size="14.00"> g9 = (v6 == 0)</text>
<text text-anchor="start" x="186.5" y="-429.3" font-family="Times,serif" font-size="14.00"> g29 = v6</text>
</g>
<!-- Node0x3f8144c0&#45;&gt;Node0x3e9b7c90 -->
<g id="edge4" class="edge"><title>Node0x3f8144c0&#45;&gt;Node0x3e9b7c90</title>
<path fill="none" stroke="black" d="M211.303,-571.321C228.115,-559 251.283,-542.019 273.746,-525.556"/>
<polygon fill="black" stroke="black" points="275.98,-528.258 281.977,-519.523 271.842,-522.612 275.98,-528.258"/>
<text text-anchor="middle" x="280.5" y="-541.8" font-family="Times,serif" font-size="14.00">v4 != 0</text>
</g>
<!-- Node0x32c08cf0 -->
<g id="node6" class="node"><title>Node0x32c08cf0</title>
<polygon fill="none" stroke="black" points="220.5,-23.5 220.5,-59.5 274.5,-59.5 274.5,-23.5 220.5,-23.5"/>
<text text-anchor="start" x="228.5" y="-37.8" font-family="Times,serif" font-size="14.00">exit:</text>
</g>
<!-- Node0x1047fc70&#45;&gt;Node0x32c08cf0 -->
<g id="edge5" class="edge"><title>Node0x1047fc70&#45;&gt;Node0x32c08cf0</title>
<path fill="none" stroke="black" d="M106.746,-304.113C98.4469,-249.01 93.6735,-158.656 135.5,-97 152.648,-71.7231 184.969,-57.7479 210.5,-50.2979"/>
<polygon fill="black" stroke="black" points="211.514,-53.6496 220.257,-47.6649 209.69,-46.8913 211.514,-53.6496"/>
</g>
<!-- Node0x3f819180 -->
<g id="node7" class="node"><title>Node0x3f819180</title>
<polygon fill="none" stroke="black" points="281.5,-247.5 281.5,-285.5 413.5,-285.5 413.5,-247.5 281.5,-247.5"/>
<text text-anchor="start" x="289.5" y="-270.3" font-family="Times,serif" font-size="14.00">0x93a68c0:</text>
<text text-anchor="start" x="289.5" y="-255.3" font-family="Times,serif" font-size="14.00"> while (v6 != 0):</text>
</g>
<!-- Node0x3e9b7c90&#45;&gt;Node0x3f819180 -->
<g id="edge6" class="edge"><title>Node0x3e9b7c90&#45;&gt;Node0x3f819180</title>
<path fill="none" stroke="black" d="M347.5,-421.373C347.5,-382.371 347.5,-328.721 347.5,-296.166"/>
<polygon fill="black" stroke="black" points="351,-295.985 347.5,-285.986 344,-295.986 351,-295.985"/>
</g>
<!-- Node0x3648eec0 -->
<g id="node8" class="node"><title>Node0x3648eec0</title>
<polygon fill="none" stroke="black" points="144.5,-97.5 144.5,-195.5 482.5,-195.5 482.5,-97.5 144.5,-97.5"/>
<text text-anchor="start" x="152.5" y="-180.3" font-family="Times,serif" font-size="14.00">0x3b66b100:</text>
<text text-anchor="start" x="152.5" y="-165.3" font-family="Times,serif" font-size="14.00"> g38 = *(IntToPtrCastExpr&lt;ptr&gt;((v6 + 12)))</text>
<text text-anchor="start" x="152.5" y="-150.3" font-family="Times,serif" font-size="14.00"> function_1b61c()</text>
<text text-anchor="start" x="152.5" y="-135.3" font-family="Times,serif" font-size="14.00"> v6 = g38</text>
<text text-anchor="start" x="152.5" y="-120.3" font-family="Times,serif" font-size="14.00"> g9 = (v6 == 0)</text>
<text text-anchor="start" x="152.5" y="-105.3" font-family="Times,serif" font-size="14.00"> g29 = v6</text>
</g>
<!-- Node0x3f819180&#45;&gt;Node0x3648eec0 -->
<g id="edge7" class="edge"><title>Node0x3f819180&#45;&gt;Node0x3648eec0</title>
<path fill="none" stroke="black" d="M297.892,-247.346C290.555,-242.506 283.971,-236.474 279.5,-229 275.08,-221.611 274.235,-213.541 275.611,-205.445"/>
<polygon fill="black" stroke="black" points="279.041,-206.169 278.298,-195.6 272.288,-204.325 279.041,-206.169"/>
<text text-anchor="middle" x="306.5" y="-217.8" font-family="Times,serif" font-size="14.00">v6 != 0</text>
</g>
<!-- Node0x3f812810 -->
<g id="node9" class="node"><title>Node0x3f812810</title>
<polygon fill="none" stroke="black" points="500,-105 500,-188 733,-188 733,-105 500,-105"/>
<text text-anchor="start" x="508" y="-172.8" font-family="Times,serif" font-size="14.00">0x93a6160:</text>
<text text-anchor="start" x="508" y="-157.8" font-family="Times,serif" font-size="14.00"> g38 = v1</text>
<text text-anchor="start" x="508" y="-142.8" font-family="Times,serif" font-size="14.00"> g32 = v2</text>
<text text-anchor="start" x="508" y="-127.8" font-family="Times,serif" font-size="14.00"> g34 = v5</text>
<text text-anchor="start" x="508" y="-112.8" font-family="Times,serif" font-size="14.00"> IntToPtrCastExpr&lt;ptr&gt;(v3)()</text>
</g>
<!-- Node0x3f819180&#45;&gt;Node0x3f812810 -->
<g id="edge8" class="edge"><title>Node0x3f819180&#45;&gt;Node0x3f812810</title>
<path fill="none" stroke="black" d="M388.648,-247.45C422.175,-232.743 470.972,-211.338 514.814,-192.106"/>
<polygon fill="black" stroke="black" points="516.336,-195.26 524.087,-188.038 513.524,-188.85 516.336,-195.26"/>
<text text-anchor="middle" x="487.5" y="-217.8" font-family="Times,serif" font-size="14.00">v6 == 0</text>
</g>
<!-- Node0x3648eec0&#45;&gt;Node0x3f819180 -->
<g id="edge9" class="edge"><title>Node0x3648eec0&#45;&gt;Node0x3f819180</title>
<path fill="none" stroke="black" d="M328.18,-195.762C329.996,-201.894 331.808,-208.089 333.5,-214 335.674,-221.594 337.952,-229.841 340.025,-237.464"/>
<polygon fill="black" stroke="black" points="336.709,-238.611 342.694,-247.353 343.467,-236.787 336.709,-238.611"/>
</g>
<!-- Node0x3f812810&#45;&gt;Node0x32c08cf0 -->
<g id="edge10" class="edge"><title>Node0x3f812810&#45;&gt;Node0x32c08cf0</title>
<path fill="none" stroke="black" d="M515.642,-104.885C507.524,-102.071 499.407,-99.402 491.5,-97 419.34,-75.078 332.733,-57.808 284.53,-48.9736"/>
<polygon fill="black" stroke="black" points="285.024,-45.5063 274.56,-47.1667 283.776,-52.394 285.024,-45.5063"/>
</g>
</g>
</svg>
