<?xml version="1.0" encoding="UTF-8" standalone="no"?>
<!DOCTYPE svg PUBLIC "-//W3C//DTD SVG 1.1//EN"
 "http://www.w3.org/Graphics/SVG/1.1/DTD/svg11.dtd">
<!-- Generated by graphviz version 2.38.0 (20140413.2041)
 -->
<!-- Title: Control&#45;flow graph for function &#39;function_4570()&#39;. Pages: 1 -->
<svg width="2128pt" height="2984pt"
 viewBox="0.00 0.00 2128.00 2984.00" xmlns="http://www.w3.org/2000/svg" xmlns:xlink="http://www.w3.org/1999/xlink">
<g id="graph0" class="graph" transform="scale(1 1) rotate(0) translate(4 2980)">
<title>Control&#45;flow graph for function &#39;function_4570()&#39;.</title>
<polygon fill="white" stroke="none" points="-4,4 -4,-2980 2124,-2980 2124,4 -4,4"/>
<text text-anchor="middle" x="1060" y="-7.8" font-family="Times,serif" font-size="14.00">Control&#45;flow graph for function &#39;function_4570()&#39;.</text>
<!-- Node0x346a4340 -->
<g id="node1" class="node"><title>Node0x346a4340</title>
<polygon fill="none" stroke="black" points="977.5,-2939.5 977.5,-2975.5 1036.5,-2975.5 1036.5,-2939.5 977.5,-2939.5"/>
<text text-anchor="start" x="985.5" y="-2953.8" font-family="Times,serif" font-size="14.00">entry:</text>
</g>
<!-- Node0x346a57b0 -->
<g id="node2" class="node"><title>Node0x346a57b0</title>
<polygon fill="none" stroke="black" points="838.5,-2458.5 838.5,-2901.5 1175.5,-2901.5 1175.5,-2458.5 838.5,-2458.5"/>
<text text-anchor="start" x="846.5" y="-2886.3" font-family="Times,serif" font-size="14.00">0x19af5530:</text>
<text text-anchor="start" x="846.5" y="-2871.3" font-family="Times,serif" font-size="14.00"> v1 = g38</text>
<text text-anchor="start" x="846.5" y="-2856.3" font-family="Times,serif" font-size="14.00"> v2 = g39</text>
<text text-anchor="start" x="846.5" y="-2841.3" font-family="Times,serif" font-size="14.00"> v3 = g40</text>
<text text-anchor="start" x="846.5" y="-2826.3" font-family="Times,serif" font-size="14.00"> v4 = g41</text>
<text text-anchor="start" x="846.5" y="-2811.3" font-family="Times,serif" font-size="14.00"> v5 = g42</text>
<text text-anchor="start" x="846.5" y="-2796.3" font-family="Times,serif" font-size="14.00"> v6 = g31</text>
<text text-anchor="start" x="846.5" y="-2781.3" font-family="Times,serif" font-size="14.00"> v7 = g32</text>
<text text-anchor="start" x="846.5" y="-2766.3" font-family="Times,serif" font-size="14.00"> v8 = g35</text>
<text text-anchor="start" x="846.5" y="-2751.3" font-family="Times,serif" font-size="14.00"> v9 = g29</text>
<text text-anchor="start" x="846.5" y="-2736.3" font-family="Times,serif" font-size="14.00"> v10 = *(IntToPtrCastExpr&lt;ptr&gt;((v9 + 24)))</text>
<text text-anchor="start" x="846.5" y="-2721.3" font-family="Times,serif" font-size="14.00"> g37 = v10</text>
<text text-anchor="start" x="846.5" y="-2706.3" font-family="Times,serif" font-size="14.00"> g41 = v9</text>
<text text-anchor="start" x="846.5" y="-2691.3" font-family="Times,serif" font-size="14.00"> g31 = g30</text>
<text text-anchor="start" x="846.5" y="-2676.3" font-family="Times,serif" font-size="14.00"> memcmp_rc</text>
<text text-anchor="start" x="846.5" y="-2661.3" font-family="Times,serif" font-size="14.00"> v11</text>
<text text-anchor="start" x="846.5" y="-2646.3" font-family="Times,serif" font-size="14.00"> v12</text>
<text text-anchor="start" x="846.5" y="-2631.3" font-family="Times,serif" font-size="14.00"> v13</text>
<text text-anchor="start" x="846.5" y="-2616.3" font-family="Times,serif" font-size="14.00"> v14</text>
<text text-anchor="start" x="846.5" y="-2601.3" font-family="Times,serif" font-size="14.00"> v15</text>
<text text-anchor="start" x="846.5" y="-2586.3" font-family="Times,serif" font-size="14.00"> v16</text>
<text text-anchor="start" x="846.5" y="-2571.3" font-family="Times,serif" font-size="14.00"> v17</text>
<text text-anchor="start" x="846.5" y="-2556.3" font-family="Times,serif" font-size="14.00"> v18</text>
<text text-anchor="start" x="846.5" y="-2541.3" font-family="Times,serif" font-size="14.00"> v19</text>
<text text-anchor="start" x="846.5" y="-2526.3" font-family="Times,serif" font-size="14.00"> v20</text>
<text text-anchor="start" x="846.5" y="-2511.3" font-family="Times,serif" font-size="14.00"> v21</text>
<text text-anchor="start" x="846.5" y="-2496.3" font-family="Times,serif" font-size="14.00"> v22</text>
<text text-anchor="start" x="846.5" y="-2481.3" font-family="Times,serif" font-size="14.00"> v23</text>
<text text-anchor="start" x="846.5" y="-2466.3" font-family="Times,serif" font-size="14.00"> v24</text>
</g>
<!-- Node0x346a4340&#45;&gt;Node0x346a57b0 -->
<g id="edge1" class="edge"><title>Node0x346a4340&#45;&gt;Node0x346a57b0</title>
<path fill="none" stroke="black" d="M1007,-2939.27C1007,-2931.96 1007,-2922.64 1007,-2911.89"/>
<polygon fill="black" stroke="black" points="1010.5,-2911.63 1007,-2901.64 1003.5,-2911.64 1010.5,-2911.63"/>
</g>
<!-- Node0x21d638b0 -->
<g id="node3" class="node"><title>Node0x21d638b0</title>
<polygon fill="none" stroke="black" points="951.5,-2367.5 951.5,-2420.5 1062.5,-2420.5 1062.5,-2367.5 951.5,-2367.5"/>
<text text-anchor="start" x="959.5" y="-2405.3" font-family="Times,serif" font-size="14.00">0x539f450:</text>
<text text-anchor="start" x="959.5" y="-2390.3" font-family="Times,serif" font-size="14.00"> if (v10 &gt; &#45;1):</text>
<text text-anchor="start" x="959.5" y="-2375.3" font-family="Times,serif" font-size="14.00"> else:</text>
</g>
<!-- Node0x346a57b0&#45;&gt;Node0x21d638b0 -->
<g id="edge2" class="edge"><title>Node0x346a57b0&#45;&gt;Node0x21d638b0</title>
<path fill="none" stroke="black" d="M1007,-2458.38C1007,-2448.27 1007,-2438.94 1007,-2430.72"/>
<polygon fill="black" stroke="black" points="1010.5,-2430.58 1007,-2420.58 1003.5,-2430.58 1010.5,-2430.58"/>
</g>
<!-- Node0x21d64250 -->
<g id="node4" class="node"><title>Node0x21d64250</title>
<polygon fill="none" stroke="black" points="713,-2025.5 713,-2168.5 1091,-2168.5 1091,-2025.5 713,-2025.5"/>
<text text-anchor="start" x="721" y="-2153.3" font-family="Times,serif" font-size="14.00">0x538f1b0:</text>
<text text-anchor="start" x="721" y="-2138.3" font-family="Times,serif" font-size="14.00"> g29 = v9</text>
<text text-anchor="start" x="721" y="-2123.3" font-family="Times,serif" font-size="14.00"> g30 = (*(IntToPtrCastExpr&lt;ptr&gt;((v9 + 24))) + 7)</text>
<text text-anchor="start" x="721" y="-2108.3" font-family="Times,serif" font-size="14.00"> function_43a0()</text>
<text text-anchor="start" x="721" y="-2093.3" font-family="Times,serif" font-size="14.00"> v13 = g29</text>
<text text-anchor="start" x="721" y="-2078.3" font-family="Times,serif" font-size="14.00"> g8 = False</text>
<text text-anchor="start" x="721" y="-2063.3" font-family="Times,serif" font-size="14.00"> g7 = (v13 &lt; 0)</text>
<text text-anchor="start" x="721" y="-2048.3" font-family="Times,serif" font-size="14.00"> g9 = (v13 == 0)</text>
<text text-anchor="start" x="721" y="-2033.3" font-family="Times,serif" font-size="14.00"> g42 = v13</text>
</g>
<!-- Node0x21d638b0&#45;&gt;Node0x21d64250 -->
<g id="edge3" class="edge"><title>Node0x21d638b0&#45;&gt;Node0x21d64250</title>
<path fill="none" stroke="black" d="M978.357,-2367.32C973.328,-2361.7 968.57,-2355.47 965,-2349 935.911,-2296.26 920.011,-2229.92 911.464,-2178.69"/>
<polygon fill="black" stroke="black" points="914.894,-2177.97 909.851,-2168.66 907.983,-2179.09 914.894,-2177.97"/>
<text text-anchor="middle" x="995.5" y="-2337.8" font-family="Times,serif" font-size="14.00">v10 &gt; &#45;1</text>
</g>
<!-- Node0xec44880 -->
<g id="node5" class="node"><title>Node0xec44880</title>
<polygon fill="none" stroke="black" points="1009.5,-2187.5 1009.5,-2315.5 1148.5,-2315.5 1148.5,-2187.5 1009.5,-2187.5"/>
<text text-anchor="start" x="1017.5" y="-2300.3" font-family="Times,serif" font-size="14.00">0x539f650:</text>
<text text-anchor="start" x="1017.5" y="-2285.3" font-family="Times,serif" font-size="14.00"> g30 = 7</text>
<text text-anchor="start" x="1017.5" y="-2270.3" font-family="Times,serif" font-size="14.00"> function_43a0()</text>
<text text-anchor="start" x="1017.5" y="-2255.3" font-family="Times,serif" font-size="14.00"> v25 = g29</text>
<text text-anchor="start" x="1017.5" y="-2240.3" font-family="Times,serif" font-size="14.00"> g8 = False</text>
<text text-anchor="start" x="1017.5" y="-2225.3" font-family="Times,serif" font-size="14.00"> g7 = (v25 &lt; 0)</text>
<text text-anchor="start" x="1017.5" y="-2210.3" font-family="Times,serif" font-size="14.00"> g9 = (v25 == 0)</text>
<text text-anchor="start" x="1017.5" y="-2195.3" font-family="Times,serif" font-size="14.00"> g42 = v25</text>
</g>
<!-- Node0x21d638b0&#45;&gt;Node0xec44880 -->
<g id="edge4" class="edge"><title>Node0x21d638b0&#45;&gt;Node0xec44880</title>
<path fill="none" stroke="black" d="M1020.21,-2367.23C1026.42,-2355.11 1034.16,-2339.99 1041.98,-2324.75"/>
<polygon fill="black" stroke="black" points="1045.13,-2326.27 1046.57,-2315.78 1038.9,-2323.08 1045.13,-2326.27"/>
<text text-anchor="middle" x="1072.5" y="-2337.8" font-family="Times,serif" font-size="14.00">v10 &lt;= &#45;1</text>
</g>
<!-- Node0x21d64e70 -->
<g id="node6" class="node"><title>Node0x21d64e70</title>
<polygon fill="none" stroke="black" points="842.5,-1284.5 842.5,-1322.5 961.5,-1322.5 961.5,-1284.5 842.5,-1284.5"/>
<text text-anchor="start" x="850.5" y="-1307.3" font-family="Times,serif" font-size="14.00">0x539f100:</text>
<text text-anchor="start" x="850.5" y="-1292.3" font-family="Times,serif" font-size="14.00"> if (v13 == 0):</text>
</g>
<!-- Node0x21d64250&#45;&gt;Node0x21d64e70 -->
<g id="edge5" class="edge"><title>Node0x21d64250&#45;&gt;Node0x21d64e70</title>
<path fill="none" stroke="black" d="M902,-2025.41C902,-1858.39 902,-1444.57 902,-1332.74"/>
<polygon fill="black" stroke="black" points="905.5,-1332.59 902,-1322.59 898.5,-1332.59 905.5,-1332.59"/>
</g>
<!-- Node0x21d65b30 -->
<g id="node7" class="node"><title>Node0x21d65b30</title>
<polygon fill="none" stroke="black" points="1046.5,-1953.5 1046.5,-2006.5 1165.5,-2006.5 1165.5,-1953.5 1046.5,-1953.5"/>
<text text-anchor="start" x="1054.5" y="-1991.3" font-family="Times,serif" font-size="14.00">0x53b3e80:</text>
<text text-anchor="start" x="1054.5" y="-1976.3" font-family="Times,serif" font-size="14.00"> if (v25 == 0):</text>
<text text-anchor="start" x="1054.5" y="-1961.3" font-family="Times,serif" font-size="14.00"> else:</text>
</g>
<!-- Node0xec44880&#45;&gt;Node0x21d65b30 -->
<g id="edge6" class="edge"><title>Node0xec44880&#45;&gt;Node0x21d65b30</title>
<path fill="none" stroke="black" d="M1089.6,-2187.39C1090.48,-2181.19 1091.3,-2174.98 1092,-2169 1098.18,-2116.11 1102.16,-2054.51 1104.24,-2016.63"/>
<polygon fill="black" stroke="black" points="1107.74,-2016.78 1104.77,-2006.61 1100.75,-2016.41 1107.74,-2016.78"/>
</g>
<!-- Node0x21d65e20 -->
<g id="node8" class="node"><title>Node0x21d65e20</title>
<polygon fill="none" stroke="black" points="0,-744.5 0,-1232.5 914,-1232.5 914,-744.5 0,-744.5"/>
<text text-anchor="start" x="8" y="-1217.3" font-family="Times,serif" font-size="14.00">0x5390180:</text>
<text text-anchor="start" x="8" y="-1202.3" font-family="Times,serif" font-size="14.00"> v15 = g41</text>
<text text-anchor="start" x="8" y="-1187.3" font-family="Times,serif" font-size="14.00"> g40 = (v15 + 396)</text>
<text text-anchor="start" x="8" y="-1172.3" font-family="Times,serif" font-size="14.00"> v23 = (*(IntToPtrCastExpr&lt;ptr&gt;((v15 + 116))) + *(IntToPtrCastExpr&lt;ptr&gt;((v15 + 128))))</text>
<text text-anchor="start" x="8" y="-1157.3" font-family="Times,serif" font-size="14.00"> g38 = v23</text>
<text text-anchor="start" x="8" y="-1142.3" font-family="Times,serif" font-size="14.00"> *(IntToPtrCastExpr&lt;ptr&gt;(g31)) = ExtCastExpr&lt;int32&gt;(*(IntToPtrCastExpr&lt;ptr&gt;(v23)))</text>
<text text-anchor="start" x="8" y="-1127.3" font-family="Times,serif" font-size="14.00"> v21 = *(IntToPtrCastExpr&lt;ptr&gt;((g41 + 24)))</text>
<text text-anchor="start" x="8" y="-1112.3" font-family="Times,serif" font-size="14.00"> g30 = v21</text>
<text text-anchor="start" x="8" y="-1097.3" font-family="Times,serif" font-size="14.00"> g38 = (g38 + 3)</text>
<text text-anchor="start" x="8" y="-1082.3" font-family="Times,serif" font-size="14.00"> *(IntToPtrCastExpr&lt;ptr&gt;((g31 + 8))) = v21</text>
<text text-anchor="start" x="8" y="-1067.3" font-family="Times,serif" font-size="14.00"> v16 = g41</text>
<text text-anchor="start" x="8" y="-1052.3" font-family="Times,serif" font-size="14.00"> v20 = IntToPtrCastExpr&lt;ptr&gt;((v16 + 164))</text>
<text text-anchor="start" x="8" y="-1037.3" font-family="Times,serif" font-size="14.00"> v24 = ((*(v20) + 7) + g30)</text>
<text text-anchor="start" x="8" y="-1022.3" font-family="Times,serif" font-size="14.00"> g37 = v24</text>
<text text-anchor="start" x="8" y="-1007.3" font-family="Times,serif" font-size="14.00"> g36 = (*(IntToPtrCastExpr&lt;ptr&gt;((v16 + 168))) + 1)</text>
<text text-anchor="start" x="8" y="-992.3" font-family="Times,serif" font-size="14.00"> *(v20) = v24</text>
<text text-anchor="start" x="8" y="-977.3" font-family="Times,serif" font-size="14.00"> g29 = g40</text>
<text text-anchor="start" x="8" y="-962.3" font-family="Times,serif" font-size="14.00"> *(IntToPtrCastExpr&lt;ptr&gt;((g41 + 168))) = g36</text>
<text text-anchor="start" x="8" y="-947.3" font-family="Times,serif" font-size="14.00"> v18 = g38</text>
<text text-anchor="start" x="8" y="-932.3" font-family="Times,serif" font-size="14.00"> g30 = v18</text>
<text text-anchor="start" x="8" y="-917.3" font-family="Times,serif" font-size="14.00"> g36 = *(IntToPtrCastExpr&lt;ptr&gt;((g41 + 24)))</text>
<text text-anchor="start" x="8" y="-902.3" font-family="Times,serif" font-size="14.00"> *(IntToPtrCastExpr&lt;ptr&gt;((g31 + 4))) = v18</text>
<text text-anchor="start" x="8" y="-887.3" font-family="Times,serif" font-size="14.00"> function_cb2c()</text>
<text text-anchor="start" x="8" y="-872.3" font-family="Times,serif" font-size="14.00"> g29 = g40</text>
<text text-anchor="start" x="8" y="-857.3" font-family="Times,serif" font-size="14.00"> g36 = 4</text>
<text text-anchor="start" x="8" y="-842.3" font-family="Times,serif" font-size="14.00"> function_d444()</text>
<text text-anchor="start" x="8" y="-827.3" font-family="Times,serif" font-size="14.00"> v22 = *(IntToPtrCastExpr&lt;ptr&gt;((g41 + 24)))</text>
<text text-anchor="start" x="8" y="-812.3" font-family="Times,serif" font-size="14.00"> g40 = v22</text>
<text text-anchor="start" x="8" y="-797.3" font-family="Times,serif" font-size="14.00"> memcmp_rc = memcmp(BitCastExpr&lt;ptr&gt;(&amp;(v12)), IntToPtrCastExpr&lt;ptr&gt;((g38 + v22)), PtrToIntCastExpr&lt;int32&gt;(g28))</text>
<text text-anchor="start" x="8" y="-782.3" font-family="Times,serif" font-size="14.00"> g8 = False</text>
<text text-anchor="start" x="8" y="-767.3" font-family="Times,serif" font-size="14.00"> g7 = (memcmp_rc &lt; 0)</text>
<text text-anchor="start" x="8" y="-752.3" font-family="Times,serif" font-size="14.00"> g9 = (memcmp_rc == 0)</text>
</g>
<!-- Node0x21d64e70&#45;&gt;Node0x21d65e20 -->
<g id="edge7" class="edge"><title>Node0x21d64e70&#45;&gt;Node0x21d65e20</title>
<path fill="none" stroke="black" d="M870.653,-1284.43C861.033,-1278.71 850.487,-1272.24 841,-1266 827.428,-1257.08 813.663,-1247.88 799.814,-1238.51"/>
<polygon fill="black" stroke="black" points="801.421,-1235.37 791.181,-1232.66 797.492,-1241.17 801.421,-1235.37"/>
<text text-anchor="middle" x="875.5" y="-1254.8" font-family="Times,serif" font-size="14.00">v13 == 0</text>
</g>
<!-- Node0x21d65120 -->
<g id="node9" class="node"><title>Node0x21d65120</title>
<polygon fill="none" stroke="black" points="932.5,-969.5 932.5,-1007.5 1029.5,-1007.5 1029.5,-969.5 932.5,-969.5"/>
<text text-anchor="start" x="940.5" y="-992.3" font-family="Times,serif" font-size="14.00">0x539f2e0:</text>
<text text-anchor="start" x="940.5" y="-977.3" font-family="Times,serif" font-size="14.00"> v19 = v13</text>
</g>
<!-- Node0x21d64e70&#45;&gt;Node0x21d65120 -->
<g id="edge8" class="edge"><title>Node0x21d64e70&#45;&gt;Node0x21d65120</title>
<path fill="none" stroke="black" d="M907.825,-1284.29C912.217,-1270.32 918.27,-1250.52 923,-1233 943.916,-1155.51 964.841,-1063.09 974.875,-1017.62"/>
<polygon fill="black" stroke="black" points="978.345,-1018.13 977.073,-1007.62 971.508,-1016.63 978.345,-1018.13"/>
<text text-anchor="middle" x="949.5" y="-1254.8" font-family="Times,serif" font-size="14.00">v13 != 0</text>
</g>
<!-- Node0x3af1bac0 -->
<g id="node10" class="node"><title>Node0x3af1bac0</title>
<polygon fill="none" stroke="black" points="1085.5,-1398.5 1085.5,-1901.5 1690.5,-1901.5 1690.5,-1398.5 1085.5,-1398.5"/>
<text text-anchor="start" x="1093.5" y="-1886.3" font-family="Times,serif" font-size="14.00">0x28f35b20:</text>
<text text-anchor="start" x="1093.5" y="-1871.3" font-family="Times,serif" font-size="14.00"> v26 = g41</text>
<text text-anchor="start" x="1093.5" y="-1856.3" font-family="Times,serif" font-size="14.00"> v27 = IntToPtrCastExpr&lt;ptr&gt;((v26 + 184))</text>
<text text-anchor="start" x="1093.5" y="-1841.3" font-family="Times,serif" font-size="14.00"> v28 = *(v27)</text>
<text text-anchor="start" x="1093.5" y="-1826.3" font-family="Times,serif" font-size="14.00"> g29 = v28</text>
<text text-anchor="start" x="1093.5" y="-1811.3" font-family="Times,serif" font-size="14.00"> g36 = *(IntToPtrCastExpr&lt;ptr&gt;((v26 + 128)))</text>
<text text-anchor="start" x="1093.5" y="-1796.3" font-family="Times,serif" font-size="14.00"> g38 = *(IntToPtrCastExpr&lt;ptr&gt;((v26 + 116)))</text>
<text text-anchor="start" x="1093.5" y="-1781.3" font-family="Times,serif" font-size="14.00"> *(v27) = (v28 + 1)</text>
<text text-anchor="start" x="1093.5" y="-1766.3" font-family="Times,serif" font-size="14.00"> g40 = (g41 + 396)</text>
<text text-anchor="start" x="1093.5" y="-1751.3" font-family="Times,serif" font-size="14.00"> g38 = (g38 + g36)</text>
<text text-anchor="start" x="1093.5" y="-1736.3" font-family="Times,serif" font-size="14.00"> function_12fe0()</text>
<text text-anchor="start" x="1093.5" y="-1721.3" font-family="Times,serif" font-size="14.00"> g36 = 4</text>
<text text-anchor="start" x="1093.5" y="-1706.3" font-family="Times,serif" font-size="14.00"> g29 = g40</text>
<text text-anchor="start" x="1093.5" y="-1691.3" font-family="Times,serif" font-size="14.00"> function_c1cc()</text>
<text text-anchor="start" x="1093.5" y="-1676.3" font-family="Times,serif" font-size="14.00"> g36 = 3</text>
<text text-anchor="start" x="1093.5" y="-1661.3" font-family="Times,serif" font-size="14.00"> g29 = g40</text>
<text text-anchor="start" x="1093.5" y="-1646.3" font-family="Times,serif" font-size="14.00"> g30 = g38</text>
<text text-anchor="start" x="1093.5" y="-1631.3" font-family="Times,serif" font-size="14.00"> function_cb2c()</text>
<text text-anchor="start" x="1093.5" y="-1616.3" font-family="Times,serif" font-size="14.00"> v29 = g38</text>
<text text-anchor="start" x="1093.5" y="-1601.3" font-family="Times,serif" font-size="14.00"> v30 = ExtCastExpr&lt;int32&gt;(*(IntToPtrCastExpr&lt;ptr&gt;((v29 + 1))))</text>
<text text-anchor="start" x="1093.5" y="-1586.3" font-family="Times,serif" font-size="14.00"> g36 = v30</text>
<text text-anchor="start" x="1093.5" y="-1571.3" font-family="Times,serif" font-size="14.00"> v31 = ((256 * v30) | ExtCastExpr&lt;int32&gt;(*(IntToPtrCastExpr&lt;ptr&gt;((v29 + 2)))))</text>
<text text-anchor="start" x="1093.5" y="-1556.3" font-family="Times,serif" font-size="14.00"> g37 = v31</text>
<text text-anchor="start" x="1093.5" y="-1541.3" font-family="Times,serif" font-size="14.00"> *(IntToPtrCastExpr&lt;ptr&gt;((g41 + 24))) = v31</text>
<text text-anchor="start" x="1093.5" y="-1526.3" font-family="Times,serif" font-size="14.00"> v9 = g41</text>
<text text-anchor="start" x="1093.5" y="-1511.3" font-family="Times,serif" font-size="14.00"> g29 = v9</text>
<text text-anchor="start" x="1093.5" y="-1496.3" font-family="Times,serif" font-size="14.00"> g30 = (*(IntToPtrCastExpr&lt;ptr&gt;((v9 + 24))) + 7)</text>
<text text-anchor="start" x="1093.5" y="-1481.3" font-family="Times,serif" font-size="14.00"> function_43a0()</text>
<text text-anchor="start" x="1093.5" y="-1466.3" font-family="Times,serif" font-size="14.00"> v13 = g29</text>
<text text-anchor="start" x="1093.5" y="-1451.3" font-family="Times,serif" font-size="14.00"> g8 = False</text>
<text text-anchor="start" x="1093.5" y="-1436.3" font-family="Times,serif" font-size="14.00"> g7 = (v13 &lt; 0)</text>
<text text-anchor="start" x="1093.5" y="-1421.3" font-family="Times,serif" font-size="14.00"> g9 = (v13 == 0)</text>
<text text-anchor="start" x="1093.5" y="-1406.3" font-family="Times,serif" font-size="14.00"> g42 = v13</text>
</g>
<!-- Node0x21d65b30&#45;&gt;Node0x3af1bac0 -->
<g id="edge9" class="edge"><title>Node0x21d65b30&#45;&gt;Node0x3af1bac0</title>
<path fill="none" stroke="black" d="M1128.13,-1953.26C1138.15,-1941.61 1151.05,-1926.6 1165.75,-1909.51"/>
<polygon fill="black" stroke="black" points="1168.75,-1911.38 1172.62,-1901.52 1163.44,-1906.82 1168.75,-1911.38"/>
<text text-anchor="middle" x="1187.5" y="-1923.8" font-family="Times,serif" font-size="14.00">v25 == 0</text>
</g>
<!-- Node0x16081a10 -->
<g id="node11" class="node"><title>Node0x16081a10</title>
<polygon fill="none" stroke="black" points="1007.5,-1341.5 1007.5,-1379.5 1108.5,-1379.5 1108.5,-1341.5 1007.5,-1341.5"/>
<text text-anchor="start" x="1015.5" y="-1364.3" font-family="Times,serif" font-size="14.00">0x53b4060:</text>
<text text-anchor="start" x="1015.5" y="-1349.3" font-family="Times,serif" font-size="14.00"> v19 = v25</text>
</g>
<!-- Node0x21d65b30&#45;&gt;Node0x16081a10 -->
<g id="edge10" class="edge"><title>Node0x21d65b30&#45;&gt;Node0x16081a10</title>
<path fill="none" stroke="black" d="M1087.49,-1953.49C1084.09,-1947.67 1080.99,-1941.33 1079,-1935 1074.58,-1920.99 1077.7,-1916.68 1077,-1902 1067.63,-1706.28 1060.91,-1470.48 1058.75,-1390.01"/>
<polygon fill="black" stroke="black" points="1062.24,-1389.61 1058.47,-1379.7 1055.24,-1389.79 1062.24,-1389.61"/>
<text text-anchor="middle" x="1110.5" y="-1923.8" font-family="Times,serif" font-size="14.00">v25 != 0</text>
</g>
<!-- Node0x3af1f780 -->
<g id="node12" class="node"><title>Node0x3af1f780</title>
<polygon fill="none" stroke="black" points="434.5,-593.5 434.5,-646.5 615.5,-646.5 615.5,-593.5 434.5,-593.5"/>
<text text-anchor="start" x="442.5" y="-631.3" font-family="Times,serif" font-size="14.00">0x539d910:</text>
<text text-anchor="start" x="442.5" y="-616.3" font-family="Times,serif" font-size="14.00"> if (memcmp_rc == 0):</text>
<text text-anchor="start" x="442.5" y="-601.3" font-family="Times,serif" font-size="14.00"> else:</text>
</g>
<!-- Node0x21d65e20&#45;&gt;Node0x3af1f780 -->
<g id="edge11" class="edge"><title>Node0x21d65e20&#45;&gt;Node0x3af1f780</title>
<path fill="none" stroke="black" d="M502.12,-744.314C508.442,-710.243 514.187,-679.278 518.339,-656.9"/>
<polygon fill="black" stroke="black" points="521.805,-657.406 520.188,-646.935 514.922,-656.129 521.805,-657.406"/>
</g>
<!-- Node0xec3f2f0 -->
<g id="node13" class="node"><title>Node0xec3f2f0</title>
<polygon fill="none" stroke="black" points="941.5,-533.5 941.5,-706.5 1174.5,-706.5 1174.5,-533.5 941.5,-533.5"/>
<text text-anchor="start" x="949.5" y="-691.3" font-family="Times,serif" font-size="14.00">0x53b4250:</text>
<text text-anchor="start" x="949.5" y="-676.3" font-family="Times,serif" font-size="14.00"> g29 = v19</text>
<text text-anchor="start" x="949.5" y="-661.3" font-family="Times,serif" font-size="14.00"> g38 = v1</text>
<text text-anchor="start" x="949.5" y="-646.3" font-family="Times,serif" font-size="14.00"> g39 = v2</text>
<text text-anchor="start" x="949.5" y="-631.3" font-family="Times,serif" font-size="14.00"> g40 = v3</text>
<text text-anchor="start" x="949.5" y="-616.3" font-family="Times,serif" font-size="14.00"> g41 = v4</text>
<text text-anchor="start" x="949.5" y="-601.3" font-family="Times,serif" font-size="14.00"> g42 = v5</text>
<text text-anchor="start" x="949.5" y="-586.3" font-family="Times,serif" font-size="14.00"> g31 = v6</text>
<text text-anchor="start" x="949.5" y="-571.3" font-family="Times,serif" font-size="14.00"> g32 = v7</text>
<text text-anchor="start" x="949.5" y="-556.3" font-family="Times,serif" font-size="14.00"> g34 = v11</text>
<text text-anchor="start" x="949.5" y="-541.3" font-family="Times,serif" font-size="14.00"> IntToPtrCastExpr&lt;ptr&gt;(v8)()</text>
</g>
<!-- Node0x21d65120&#45;&gt;Node0xec3f2f0 -->
<g id="edge12" class="edge"><title>Node0x21d65120&#45;&gt;Node0xec3f2f0</title>
<path fill="none" stroke="black" d="M984.818,-969.325C994.344,-923.986 1019.7,-803.312 1037.89,-716.72"/>
<polygon fill="black" stroke="black" points="1041.33,-717.372 1039.96,-706.866 1034.48,-715.933 1041.33,-717.372"/>
</g>
<!-- Node0x3af1d220 -->
<g id="node14" class="node"><title>Node0x3af1d220</title>
<polygon fill="none" stroke="black" points="1328.5,-1284.5 1328.5,-1322.5 1447.5,-1322.5 1447.5,-1284.5 1328.5,-1284.5"/>
<text text-anchor="start" x="1336.5" y="-1307.3" font-family="Times,serif" font-size="14.00">0x53b3980:</text>
<text text-anchor="start" x="1336.5" y="-1292.3" font-family="Times,serif" font-size="14.00"> if (v13 == 0):</text>
</g>
<!-- Node0x3af1bac0&#45;&gt;Node0x3af1d220 -->
<g id="edge13" class="edge"><title>Node0x3af1bac0&#45;&gt;Node0x3af1d220</title>
<path fill="none" stroke="black" d="M1388,-1398.18C1388,-1372.27 1388,-1349.37 1388,-1332.7"/>
<polygon fill="black" stroke="black" points="1391.5,-1332.68 1388,-1322.68 1384.5,-1332.68 1391.5,-1332.68"/>
</g>
<!-- Node0x16081a10&#45;&gt;Node0xec3f2f0 -->
<g id="edge14" class="edge"><title>Node0x16081a10&#45;&gt;Node0xec3f2f0</title>
<path fill="none" stroke="black" d="M1058,-1341.24C1058,-1255.83 1058,-892.45 1058,-716.812"/>
<polygon fill="black" stroke="black" points="1061.5,-716.798 1058,-706.798 1054.5,-716.798 1061.5,-716.798"/>
</g>
<!-- Node0x3af1eb40 -->
<g id="node15" class="node"><title>Node0x3af1eb40</title>
<polygon fill="none" stroke="black" points="593.5,-323.5 593.5,-481.5 1006.5,-481.5 1006.5,-323.5 593.5,-323.5"/>
<text text-anchor="start" x="601.5" y="-466.3" font-family="Times,serif" font-size="14.00">0x5399e20:</text>
<text text-anchor="start" x="601.5" y="-451.3" font-family="Times,serif" font-size="14.00"> v17 = g41</text>
<text text-anchor="start" x="601.5" y="-436.3" font-family="Times,serif" font-size="14.00"> v14 = (g40 + 7)</text>
<text text-anchor="start" x="601.5" y="-421.3" font-family="Times,serif" font-size="14.00"> g30 = (*(IntToPtrCastExpr&lt;ptr&gt;((v17 + 124))) &#45; v14)</text>
<text text-anchor="start" x="601.5" y="-406.3" font-family="Times,serif" font-size="14.00"> g36 = (v14 + *(IntToPtrCastExpr&lt;ptr&gt;((v17 + 128))))</text>
<text text-anchor="start" x="601.5" y="-391.3" font-family="Times,serif" font-size="14.00"> g37 = &#45;1</text>
<text text-anchor="start" x="601.5" y="-376.3" font-family="Times,serif" font-size="14.00"> *(IntToPtrCastExpr&lt;ptr&gt;((v17 + 24))) = &#45;1</text>
<text text-anchor="start" x="601.5" y="-361.3" font-family="Times,serif" font-size="14.00"> *(IntToPtrCastExpr&lt;ptr&gt;((g41 + 128))) = g36</text>
<text text-anchor="start" x="601.5" y="-346.3" font-family="Times,serif" font-size="14.00"> *(IntToPtrCastExpr&lt;ptr&gt;((g41 + 124))) = g30</text>
<text text-anchor="start" x="601.5" y="-331.3" font-family="Times,serif" font-size="14.00"> v19 = g42</text>
</g>
<!-- Node0x3af1f780&#45;&gt;Node0x3af1eb40 -->
<g id="edge15" class="edge"><title>Node0x3af1f780&#45;&gt;Node0x3af1eb40</title>
<path fill="none" stroke="black" d="M557.626,-593.433C590.847,-567.4 644.178,-525.608 692.366,-487.846"/>
<polygon fill="black" stroke="black" points="694.649,-490.503 700.362,-481.58 690.332,-484.993 694.649,-490.503"/>
<text text-anchor="middle" x="736.5" y="-503.8" font-family="Times,serif" font-size="14.00">memcmp_rc == 0</text>
</g>
<!-- Node0x346a13d0 -->
<g id="node16" class="node"><title>Node0x346a13d0</title>
<polygon fill="none" stroke="black" points="474.5,-383.5 474.5,-421.5 575.5,-421.5 575.5,-383.5 474.5,-383.5"/>
<text text-anchor="start" x="482.5" y="-406.3" font-family="Times,serif" font-size="14.00">0x539dcb0:</text>
<text text-anchor="start" x="482.5" y="-391.3" font-family="Times,serif" font-size="14.00"> v19 = &#45;13</text>
</g>
<!-- Node0x3af1f780&#45;&gt;Node0x346a13d0 -->
<g id="edge16" class="edge"><title>Node0x3af1f780&#45;&gt;Node0x346a13d0</title>
<path fill="none" stroke="black" d="M525,-593.433C525,-552.818 525,-473.847 525,-431.662"/>
<polygon fill="black" stroke="black" points="528.5,-431.532 525,-421.532 521.5,-431.532 528.5,-431.532"/>
<text text-anchor="middle" x="587.5" y="-503.8" font-family="Times,serif" font-size="14.00">memcmp_rc != 0</text>
</g>
<!-- Node0x1797b8f0 -->
<g id="node17" class="node"><title>Node0x1797b8f0</title>
<polygon fill="none" stroke="black" points="1031,-23.5 1031,-59.5 1085,-59.5 1085,-23.5 1031,-23.5"/>
<text text-anchor="start" x="1039" y="-37.8" font-family="Times,serif" font-size="14.00">exit:</text>
</g>
<!-- Node0xec3f2f0&#45;&gt;Node0x1797b8f0 -->
<g id="edge17" class="edge"><title>Node0xec3f2f0&#45;&gt;Node0x1797b8f0</title>
<path fill="none" stroke="black" d="M1058,-533.315C1058,-400.633 1058,-152.168 1058,-69.804"/>
<polygon fill="black" stroke="black" points="1061.5,-69.74 1058,-59.74 1054.5,-69.7401 1061.5,-69.74"/>
</g>
<!-- Node0x3af1f9b0 -->
<g id="node18" class="node"><title>Node0x3af1f9b0</title>
<polygon fill="none" stroke="black" points="1206,-744.5 1206,-1232.5 2120,-1232.5 2120,-744.5 1206,-744.5"/>
<text text-anchor="start" x="1214" y="-1217.3" font-family="Times,serif" font-size="14.00">0x53a8010:</text>
<text text-anchor="start" x="1214" y="-1202.3" font-family="Times,serif" font-size="14.00"> v15 = g41</text>
<text text-anchor="start" x="1214" y="-1187.3" font-family="Times,serif" font-size="14.00"> g40 = (v15 + 396)</text>
<text text-anchor="start" x="1214" y="-1172.3" font-family="Times,serif" font-size="14.00"> v23 = (*(IntToPtrCastExpr&lt;ptr&gt;((v15 + 116))) + *(IntToPtrCastExpr&lt;ptr&gt;((v15 + 128))))</text>
<text text-anchor="start" x="1214" y="-1157.3" font-family="Times,serif" font-size="14.00"> g38 = v23</text>
<text text-anchor="start" x="1214" y="-1142.3" font-family="Times,serif" font-size="14.00"> *(IntToPtrCastExpr&lt;ptr&gt;(g31)) = ExtCastExpr&lt;int32&gt;(*(IntToPtrCastExpr&lt;ptr&gt;(v23)))</text>
<text text-anchor="start" x="1214" y="-1127.3" font-family="Times,serif" font-size="14.00"> v21 = *(IntToPtrCastExpr&lt;ptr&gt;((g41 + 24)))</text>
<text text-anchor="start" x="1214" y="-1112.3" font-family="Times,serif" font-size="14.00"> g30 = v21</text>
<text text-anchor="start" x="1214" y="-1097.3" font-family="Times,serif" font-size="14.00"> g38 = (g38 + 3)</text>
<text text-anchor="start" x="1214" y="-1082.3" font-family="Times,serif" font-size="14.00"> *(IntToPtrCastExpr&lt;ptr&gt;((g31 + 8))) = v21</text>
<text text-anchor="start" x="1214" y="-1067.3" font-family="Times,serif" font-size="14.00"> v16 = g41</text>
<text text-anchor="start" x="1214" y="-1052.3" font-family="Times,serif" font-size="14.00"> v20 = IntToPtrCastExpr&lt;ptr&gt;((v16 + 164))</text>
<text text-anchor="start" x="1214" y="-1037.3" font-family="Times,serif" font-size="14.00"> v24 = ((*(v20) + 7) + g30)</text>
<text text-anchor="start" x="1214" y="-1022.3" font-family="Times,serif" font-size="14.00"> g37 = v24</text>
<text text-anchor="start" x="1214" y="-1007.3" font-family="Times,serif" font-size="14.00"> g36 = (*(IntToPtrCastExpr&lt;ptr&gt;((v16 + 168))) + 1)</text>
<text text-anchor="start" x="1214" y="-992.3" font-family="Times,serif" font-size="14.00"> *(v20) = v24</text>
<text text-anchor="start" x="1214" y="-977.3" font-family="Times,serif" font-size="14.00"> g29 = g40</text>
<text text-anchor="start" x="1214" y="-962.3" font-family="Times,serif" font-size="14.00"> *(IntToPtrCastExpr&lt;ptr&gt;((g41 + 168))) = g36</text>
<text text-anchor="start" x="1214" y="-947.3" font-family="Times,serif" font-size="14.00"> v18 = g38</text>
<text text-anchor="start" x="1214" y="-932.3" font-family="Times,serif" font-size="14.00"> g30 = v18</text>
<text text-anchor="start" x="1214" y="-917.3" font-family="Times,serif" font-size="14.00"> g36 = *(IntToPtrCastExpr&lt;ptr&gt;((g41 + 24)))</text>
<text text-anchor="start" x="1214" y="-902.3" font-family="Times,serif" font-size="14.00"> *(IntToPtrCastExpr&lt;ptr&gt;((g31 + 4))) = v18</text>
<text text-anchor="start" x="1214" y="-887.3" font-family="Times,serif" font-size="14.00"> function_cb2c()</text>
<text text-anchor="start" x="1214" y="-872.3" font-family="Times,serif" font-size="14.00"> g29 = g40</text>
<text text-anchor="start" x="1214" y="-857.3" font-family="Times,serif" font-size="14.00"> g36 = 4</text>
<text text-anchor="start" x="1214" y="-842.3" font-family="Times,serif" font-size="14.00"> function_d444()</text>
<text text-anchor="start" x="1214" y="-827.3" font-family="Times,serif" font-size="14.00"> v22 = *(IntToPtrCastExpr&lt;ptr&gt;((g41 + 24)))</text>
<text text-anchor="start" x="1214" y="-812.3" font-family="Times,serif" font-size="14.00"> g40 = v22</text>
<text text-anchor="start" x="1214" y="-797.3" font-family="Times,serif" font-size="14.00"> memcmp_rc = memcmp(BitCastExpr&lt;ptr&gt;(&amp;(v12)), IntToPtrCastExpr&lt;ptr&gt;((g38 + v22)), PtrToIntCastExpr&lt;int32&gt;(g28))</text>
<text text-anchor="start" x="1214" y="-782.3" font-family="Times,serif" font-size="14.00"> g8 = False</text>
<text text-anchor="start" x="1214" y="-767.3" font-family="Times,serif" font-size="14.00"> g7 = (memcmp_rc &lt; 0)</text>
<text text-anchor="start" x="1214" y="-752.3" font-family="Times,serif" font-size="14.00"> g9 = (memcmp_rc == 0)</text>
</g>
<!-- Node0x3af1d220&#45;&gt;Node0x3af1f9b0 -->
<g id="edge18" class="edge"><title>Node0x3af1d220&#45;&gt;Node0x3af1f9b0</title>
<path fill="none" stroke="black" d="M1403.97,-1284.32C1413.55,-1273.42 1426.9,-1258.22 1442.54,-1240.42"/>
<polygon fill="black" stroke="black" points="1445.41,-1242.46 1449.38,-1232.64 1440.15,-1237.84 1445.41,-1242.46"/>
<text text-anchor="middle" x="1461.5" y="-1254.8" font-family="Times,serif" font-size="14.00">v13 == 0</text>
</g>
<!-- Node0x21d67820 -->
<g id="node19" class="node"><title>Node0x21d67820</title>
<polygon fill="none" stroke="black" points="1086.5,-969.5 1086.5,-1007.5 1187.5,-1007.5 1187.5,-969.5 1086.5,-969.5"/>
<text text-anchor="start" x="1094.5" y="-992.3" font-family="Times,serif" font-size="14.00">0x53b3b60:</text>
<text text-anchor="start" x="1094.5" y="-977.3" font-family="Times,serif" font-size="14.00"> v19 = v13</text>
</g>
<!-- Node0x3af1d220&#45;&gt;Node0x21d67820 -->
<g id="edge19" class="edge"><title>Node0x3af1d220&#45;&gt;Node0x21d67820</title>
<path fill="none" stroke="black" d="M1328.47,-1295.69C1285.97,-1287.71 1230.6,-1270.41 1197,-1233 1141.85,-1171.58 1135.48,-1067.58 1135.88,-1017.76"/>
<polygon fill="black" stroke="black" points="1139.38,-1017.77 1136.07,-1007.7 1132.39,-1017.64 1139.38,-1017.77"/>
<text text-anchor="middle" x="1266.5" y="-1254.8" font-family="Times,serif" font-size="14.00">v13 != 0</text>
</g>
<!-- Node0xec41750 -->
<g id="node20" class="node"><title>Node0xec41750</title>
<polygon fill="none" stroke="black" points="683.5,-97.5 683.5,-285.5 916.5,-285.5 916.5,-97.5 683.5,-97.5"/>
<text text-anchor="start" x="691.5" y="-270.3" font-family="Times,serif" font-size="14.00">0x539e0a0:</text>
<text text-anchor="start" x="691.5" y="-255.3" font-family="Times,serif" font-size="14.00"> g29 = v19</text>
<text text-anchor="start" x="691.5" y="-240.3" font-family="Times,serif" font-size="14.00"> g38 = v1</text>
<text text-anchor="start" x="691.5" y="-225.3" font-family="Times,serif" font-size="14.00"> g39 = v2</text>
<text text-anchor="start" x="691.5" y="-210.3" font-family="Times,serif" font-size="14.00"> g40 = v3</text>
<text text-anchor="start" x="691.5" y="-195.3" font-family="Times,serif" font-size="14.00"> g41 = v4</text>
<text text-anchor="start" x="691.5" y="-180.3" font-family="Times,serif" font-size="14.00"> g42 = v5</text>
<text text-anchor="start" x="691.5" y="-165.3" font-family="Times,serif" font-size="14.00"> g31 = v6</text>
<text text-anchor="start" x="691.5" y="-150.3" font-family="Times,serif" font-size="14.00"> g32 = v7</text>
<text text-anchor="start" x="691.5" y="-135.3" font-family="Times,serif" font-size="14.00"> g34 = v11</text>
<text text-anchor="start" x="691.5" y="-120.3" font-family="Times,serif" font-size="14.00"> IntToPtrCastExpr&lt;ptr&gt;(v8)()</text>
<text text-anchor="start" x="691.5" y="-105.3" font-family="Times,serif" font-size="14.00"> return</text>
</g>
<!-- Node0x3af1eb40&#45;&gt;Node0xec41750 -->
<g id="edge20" class="edge"><title>Node0x3af1eb40&#45;&gt;Node0xec41750</title>
<path fill="none" stroke="black" d="M800,-323.379C800,-314.353 800,-305.047 800,-295.754"/>
<polygon fill="black" stroke="black" points="803.5,-295.688 800,-285.689 796.5,-295.689 803.5,-295.688"/>
</g>
<!-- Node0x346a13d0&#45;&gt;Node0xec41750 -->
<g id="edge21" class="edge"><title>Node0x346a13d0&#45;&gt;Node0xec41750</title>
<path fill="none" stroke="black" d="M535.737,-383.413C546.45,-366.406 564.142,-340.947 584,-323 611.038,-298.565 643.309,-276.231 674.559,-257.214"/>
<polygon fill="black" stroke="black" points="676.57,-260.088 683.34,-251.938 672.966,-254.087 676.57,-260.088"/>
</g>
<!-- Node0x46b43180 -->
<g id="node21" class="node"><title>Node0x46b43180</title>
<polygon fill="none" stroke="black" points="1500.5,-593.5 1500.5,-646.5 1681.5,-646.5 1681.5,-593.5 1500.5,-593.5"/>
<text text-anchor="start" x="1508.5" y="-631.3" font-family="Times,serif" font-size="14.00">0x53b2190:</text>
<text text-anchor="start" x="1508.5" y="-616.3" font-family="Times,serif" font-size="14.00"> if (memcmp_rc == 0):</text>
<text text-anchor="start" x="1508.5" y="-601.3" font-family="Times,serif" font-size="14.00"> else:</text>
</g>
<!-- Node0x3af1f9b0&#45;&gt;Node0x46b43180 -->
<g id="edge22" class="edge"><title>Node0x3af1f9b0&#45;&gt;Node0x46b43180</title>
<path fill="none" stroke="black" d="M1615.23,-744.314C1608.53,-710.243 1602.45,-679.278 1598.05,-656.9"/>
<polygon fill="black" stroke="black" points="1601.46,-656.073 1596.1,-646.935 1594.59,-657.422 1601.46,-656.073"/>
</g>
<!-- Node0x21d67820&#45;&gt;Node0xec3f2f0 -->
<g id="edge23" class="edge"><title>Node0x21d67820&#45;&gt;Node0xec3f2f0</title>
<path fill="none" stroke="black" d="M1133.08,-969.325C1123.31,-923.986 1097.3,-803.312 1078.63,-716.72"/>
<polygon fill="black" stroke="black" points="1082.04,-715.904 1076.51,-706.866 1075.19,-717.379 1082.04,-715.904"/>
</g>
<!-- Node0xec41750&#45;&gt;Node0x1797b8f0 -->
<g id="edge24" class="edge"><title>Node0xec41750&#45;&gt;Node0x1797b8f0</title>
<path fill="none" stroke="black" d="M916.546,-123.644C954.698,-101.758 994.317,-79.0311 1021.89,-63.2163"/>
<polygon fill="black" stroke="black" points="1023.82,-66.141 1030.75,-58.1292 1020.34,-60.0691 1023.82,-66.141"/>
</g>
<!-- Node0x3af1d760 -->
<g id="node22" class="node"><title>Node0x3af1d760</title>
<polygon fill="none" stroke="black" points="1110.5,-323.5 1110.5,-481.5 1523.5,-481.5 1523.5,-323.5 1110.5,-323.5"/>
<text text-anchor="start" x="1118.5" y="-466.3" font-family="Times,serif" font-size="14.00">0x53af6c0:</text>
<text text-anchor="start" x="1118.5" y="-451.3" font-family="Times,serif" font-size="14.00"> v17 = g41</text>
<text text-anchor="start" x="1118.5" y="-436.3" font-family="Times,serif" font-size="14.00"> v14 = (g40 + 7)</text>
<text text-anchor="start" x="1118.5" y="-421.3" font-family="Times,serif" font-size="14.00"> g30 = (*(IntToPtrCastExpr&lt;ptr&gt;((v17 + 124))) &#45; v14)</text>
<text text-anchor="start" x="1118.5" y="-406.3" font-family="Times,serif" font-size="14.00"> g36 = (v14 + *(IntToPtrCastExpr&lt;ptr&gt;((v17 + 128))))</text>
<text text-anchor="start" x="1118.5" y="-391.3" font-family="Times,serif" font-size="14.00"> g37 = &#45;1</text>
<text text-anchor="start" x="1118.5" y="-376.3" font-family="Times,serif" font-size="14.00"> *(IntToPtrCastExpr&lt;ptr&gt;((v17 + 24))) = &#45;1</text>
<text text-anchor="start" x="1118.5" y="-361.3" font-family="Times,serif" font-size="14.00"> *(IntToPtrCastExpr&lt;ptr&gt;((g41 + 128))) = g36</text>
<text text-anchor="start" x="1118.5" y="-346.3" font-family="Times,serif" font-size="14.00"> *(IntToPtrCastExpr&lt;ptr&gt;((g41 + 124))) = g30</text>
<text text-anchor="start" x="1118.5" y="-331.3" font-family="Times,serif" font-size="14.00"> v19 = g42</text>
</g>
<!-- Node0x46b43180&#45;&gt;Node0x3af1d760 -->
<g id="edge25" class="edge"><title>Node0x46b43180&#45;&gt;Node0x3af1d760</title>
<path fill="none" stroke="black" d="M1557.29,-593.325C1529.9,-572.387 1490.31,-541.97 1456,-515 1444.93,-506.301 1433.41,-497.171 1421.94,-488.04"/>
<polygon fill="black" stroke="black" points="1424.02,-485.219 1414.02,-481.723 1419.66,-490.693 1424.02,-485.219"/>
<text text-anchor="middle" x="1521.5" y="-503.8" font-family="Times,serif" font-size="14.00">memcmp_rc == 0</text>
</g>
<!-- Node0x14c22e90 -->
<g id="node23" class="node"><title>Node0x14c22e90</title>
<polygon fill="none" stroke="black" points="1542,-383.5 1542,-421.5 1640,-421.5 1640,-383.5 1542,-383.5"/>
<text text-anchor="start" x="1550" y="-406.3" font-family="Times,serif" font-size="14.00">0x53b24f0:</text>
<text text-anchor="start" x="1550" y="-391.3" font-family="Times,serif" font-size="14.00"> v19 = &#45;13</text>
</g>
<!-- Node0x46b43180&#45;&gt;Node0x14c22e90 -->
<g id="edge26" class="edge"><title>Node0x46b43180&#45;&gt;Node0x14c22e90</title>
<path fill="none" stroke="black" d="M1591,-593.433C1591,-552.818 1591,-473.847 1591,-431.662"/>
<polygon fill="black" stroke="black" points="1594.5,-431.532 1591,-421.532 1587.5,-431.532 1594.5,-431.532"/>
<text text-anchor="middle" x="1653.5" y="-503.8" font-family="Times,serif" font-size="14.00">memcmp_rc != 0</text>
</g>
<!-- Node0x47679800 -->
<g id="node24" class="node"><title>Node0x47679800</title>
<polygon fill="none" stroke="black" points="1200.5,-97.5 1200.5,-285.5 1433.5,-285.5 1433.5,-97.5 1200.5,-97.5"/>
<text text-anchor="start" x="1208.5" y="-270.3" font-family="Times,serif" font-size="14.00">0x53b2850:</text>
<text text-anchor="start" x="1208.5" y="-255.3" font-family="Times,serif" font-size="14.00"> g29 = v19</text>
<text text-anchor="start" x="1208.5" y="-240.3" font-family="Times,serif" font-size="14.00"> g38 = v1</text>
<text text-anchor="start" x="1208.5" y="-225.3" font-family="Times,serif" font-size="14.00"> g39 = v2</text>
<text text-anchor="start" x="1208.5" y="-210.3" font-family="Times,serif" font-size="14.00"> g40 = v3</text>
<text text-anchor="start" x="1208.5" y="-195.3" font-family="Times,serif" font-size="14.00"> g41 = v4</text>
<text text-anchor="start" x="1208.5" y="-180.3" font-family="Times,serif" font-size="14.00"> g42 = v5</text>
<text text-anchor="start" x="1208.5" y="-165.3" font-family="Times,serif" font-size="14.00"> g31 = v6</text>
<text text-anchor="start" x="1208.5" y="-150.3" font-family="Times,serif" font-size="14.00"> g32 = v7</text>
<text text-anchor="start" x="1208.5" y="-135.3" font-family="Times,serif" font-size="14.00"> g34 = v11</text>
<text text-anchor="start" x="1208.5" y="-120.3" font-family="Times,serif" font-size="14.00"> IntToPtrCastExpr&lt;ptr&gt;(v8)()</text>
<text text-anchor="start" x="1208.5" y="-105.3" font-family="Times,serif" font-size="14.00"> return</text>
</g>
<!-- Node0x3af1d760&#45;&gt;Node0x47679800 -->
<g id="edge27" class="edge"><title>Node0x3af1d760&#45;&gt;Node0x47679800</title>
<path fill="none" stroke="black" d="M1317,-323.379C1317,-314.353 1317,-305.047 1317,-295.754"/>
<polygon fill="black" stroke="black" points="1320.5,-295.688 1317,-285.689 1313.5,-295.689 1320.5,-295.688"/>
</g>
<!-- Node0x14c22e90&#45;&gt;Node0x47679800 -->
<g id="edge28" class="edge"><title>Node0x14c22e90&#45;&gt;Node0x47679800</title>
<path fill="none" stroke="black" d="M1580.51,-383.4C1570.02,-366.384 1552.66,-340.918 1533,-323 1505.99,-298.387 1473.65,-275.959 1442.32,-256.906"/>
<polygon fill="black" stroke="black" points="1443.89,-253.767 1433.52,-251.622 1440.29,-259.769 1443.89,-253.767"/>
</g>
<!-- Node0x47679800&#45;&gt;Node0x1797b8f0 -->
<g id="edge29" class="edge"><title>Node0x47679800&#45;&gt;Node0x1797b8f0</title>
<path fill="none" stroke="black" d="M1200.38,-123.86C1161.9,-101.871 1121.89,-79.0059 1094.11,-63.1358"/>
<polygon fill="black" stroke="black" points="1095.6,-59.9559 1085.18,-58.0333 1092.13,-66.0336 1095.6,-59.9559"/>
</g>
</g>
</svg>
