<?xml version="1.0" encoding="UTF-8" standalone="no"?>
<!DOCTYPE svg PUBLIC "-//W3C//DTD SVG 1.1//EN"
 "http://www.w3.org/Graphics/SVG/1.1/DTD/svg11.dtd">
<!-- Generated by graphviz version 2.38.0 (20140413.2041)
 -->
<!-- Title: Control&#45;flow graph for function &#39;function_21168()&#39;. Pages: 1 -->
<svg width="434pt" height="414pt"
 viewBox="0.00 0.00 433.50 414.00" xmlns="http://www.w3.org/2000/svg" xmlns:xlink="http://www.w3.org/1999/xlink">
<g id="graph0" class="graph" transform="scale(1 1) rotate(0) translate(4 410)">
<title>Control&#45;flow graph for function &#39;function_21168()&#39;.</title>
<polygon fill="white" stroke="none" points="-4,4 -4,-410 429.5,-410 429.5,4 -4,4"/>
<text text-anchor="middle" x="212.75" y="-7.8" font-family="Times,serif" font-size="14.00">Control&#45;flow graph for function &#39;function_21168()&#39;.</text>
<!-- Node0x2a8b7200 -->
<g id="node1" class="node"><title>Node0x2a8b7200</title>
<polygon fill="none" stroke="black" points="300,-369.5 300,-405.5 359,-405.5 359,-369.5 300,-369.5"/>
<text text-anchor="start" x="308" y="-383.8" font-family="Times,serif" font-size="14.00">entry:</text>
</g>
<!-- Node0x20d3b070 -->
<g id="node2" class="node"><title>Node0x20d3b070</title>
<polygon fill="none" stroke="black" points="259.5,-293.5 259.5,-331.5 399.5,-331.5 399.5,-293.5 259.5,-293.5"/>
<text text-anchor="start" x="267.5" y="-316.3" font-family="Times,serif" font-size="14.00">0xa01ffc0:</text>
<text text-anchor="start" x="267.5" y="-301.3" font-family="Times,serif" font-size="14.00"> g9 = (g30 == 5)</text>
</g>
<!-- Node0x2a8b7200&#45;&gt;Node0x20d3b070 -->
<g id="edge1" class="edge"><title>Node0x2a8b7200&#45;&gt;Node0x20d3b070</title>
<path fill="none" stroke="black" d="M329.5,-369.2C329.5,-360.99 329.5,-350.969 329.5,-341.701"/>
<polygon fill="black" stroke="black" points="333,-341.694 329.5,-331.694 326,-341.695 333,-341.694"/>
</g>
<!-- Node0x244c0d20 -->
<g id="node3" class="node"><title>Node0x244c0d20</title>
<polygon fill="none" stroke="black" points="270,-217.5 270,-255.5 389,-255.5 389,-217.5 270,-217.5"/>
<text text-anchor="start" x="278" y="-240.3" font-family="Times,serif" font-size="14.00">0xa023310:</text>
<text text-anchor="start" x="278" y="-225.3" font-family="Times,serif" font-size="14.00"> if (g30 == 5):</text>
</g>
<!-- Node0x20d3b070&#45;&gt;Node0x244c0d20 -->
<g id="edge2" class="edge"><title>Node0x20d3b070&#45;&gt;Node0x244c0d20</title>
<path fill="none" stroke="black" d="M329.5,-293.208C329.5,-284.964 329.5,-275.038 329.5,-265.862"/>
<polygon fill="black" stroke="black" points="333,-265.582 329.5,-255.582 326,-265.582 333,-265.582"/>
</g>
<!-- Node0x2a8b50e0 -->
<g id="node4" class="node"><title>Node0x2a8b50e0</title>
<polygon fill="none" stroke="black" points="0,-97.5 0,-165.5 347,-165.5 347,-97.5 0,-97.5"/>
<text text-anchor="start" x="8" y="-150.3" font-family="Times,serif" font-size="14.00">0x2252ad40:</text>
<text text-anchor="start" x="8" y="-135.3" font-family="Times,serif" font-size="14.00"> v1 = *(IntToPtrCastExpr&lt;ptr&gt;(g36))</text>
<text text-anchor="start" x="8" y="-120.3" font-family="Times,serif" font-size="14.00"> g37 = v1</text>
<text text-anchor="start" x="8" y="-105.3" font-family="Times,serif" font-size="14.00"> *(IntToPtrCastExpr&lt;ptr&gt;((g29 + 172))) = v1</text>
</g>
<!-- Node0x244c0d20&#45;&gt;Node0x2a8b50e0 -->
<g id="edge3" class="edge"><title>Node0x244c0d20&#45;&gt;Node0x2a8b50e0</title>
<path fill="none" stroke="black" d="M301.969,-217.323C282.643,-204.562 256.072,-187.019 232.109,-171.197"/>
<polygon fill="black" stroke="black" points="234.031,-168.272 223.758,-165.683 230.174,-174.114 234.031,-168.272"/>
<text text-anchor="middle" x="305.5" y="-187.8" font-family="Times,serif" font-size="14.00">g30 == 5</text>
</g>
<!-- Node0x23280d10 -->
<g id="node5" class="node"><title>Node0x23280d10</title>
<polygon fill="none" stroke="black" points="296.5,-23.5 296.5,-59.5 350.5,-59.5 350.5,-23.5 296.5,-23.5"/>
<text text-anchor="start" x="304.5" y="-37.8" font-family="Times,serif" font-size="14.00">exit:</text>
</g>
<!-- Node0x244c0d20&#45;&gt;Node0x23280d10 -->
<g id="edge4" class="edge"><title>Node0x244c0d20&#45;&gt;Node0x23280d10</title>
<path fill="none" stroke="black" d="M337.223,-217.402C339.638,-211.561 342.256,-205.037 344.5,-199 360.384,-156.26 367.462,-140.999 355.5,-97 352.765,-86.9415 347.654,-76.8431 342.306,-68.1195"/>
<polygon fill="black" stroke="black" points="345.133,-66.0474 336.737,-59.5856 339.271,-69.873 345.133,-66.0474"/>
<text text-anchor="middle" x="393.5" y="-127.8" font-family="Times,serif" font-size="14.00">g30 != 5</text>
</g>
<!-- Node0x2a8b50e0&#45;&gt;Node0x23280d10 -->
<g id="edge5" class="edge"><title>Node0x2a8b50e0&#45;&gt;Node0x23280d10</title>
<path fill="none" stroke="black" d="M229.781,-97.4817C249.178,-86.1022 270.359,-73.6758 287.67,-63.52"/>
<polygon fill="black" stroke="black" points="289.486,-66.5128 296.34,-58.4337 285.944,-60.4751 289.486,-66.5128"/>
</g>
</g>
</svg>
