<?xml version="1.0" encoding="UTF-8" standalone="no"?>
<!DOCTYPE svg PUBLIC "-//W3C//DTD SVG 1.1//EN"
 "http://www.w3.org/Graphics/SVG/1.1/DTD/svg11.dtd">
<!-- Generated by graphviz version 2.38.0 (20140413.2041)
 -->
<!-- Title: Control&#45;flow graph for function &#39;function_1883c()&#39;. Pages: 1 -->
<svg width="427pt" height="905pt"
 viewBox="0.00 0.00 427.00 905.00" xmlns="http://www.w3.org/2000/svg" xmlns:xlink="http://www.w3.org/1999/xlink">
<g id="graph0" class="graph" transform="scale(1 1) rotate(0) translate(4 901)">
<title>Control&#45;flow graph for function &#39;function_1883c()&#39;.</title>
<polygon fill="white" stroke="none" points="-4,4 -4,-901 423,-901 423,4 -4,4"/>
<text text-anchor="middle" x="209.5" y="-7.8" font-family="Times,serif" font-size="14.00">Control&#45;flow graph for function &#39;function_1883c()&#39;.</text>
<!-- Node0x242fbb00 -->
<g id="node1" class="node"><title>Node0x242fbb00</title>
<polygon fill="none" stroke="black" points="88.5,-860.5 88.5,-896.5 147.5,-896.5 147.5,-860.5 88.5,-860.5"/>
<text text-anchor="start" x="96.5" y="-874.8" font-family="Times,serif" font-size="14.00">entry:</text>
</g>
<!-- Node0x37c0db90 -->
<g id="node2" class="node"><title>Node0x37c0db90</title>
<polygon fill="none" stroke="black" points="63.5,-769.5 63.5,-822.5 172.5,-822.5 172.5,-769.5 63.5,-769.5"/>
<text text-anchor="start" x="71.5" y="-807.3" font-family="Times,serif" font-size="14.00">0x130c84e0:</text>
<text text-anchor="start" x="71.5" y="-792.3" font-family="Times,serif" font-size="14.00"> v1 = g29</text>
<text text-anchor="start" x="71.5" y="-777.3" font-family="Times,serif" font-size="14.00"> v2 = v1</text>
</g>
<!-- Node0x242fbb00&#45;&gt;Node0x37c0db90 -->
<g id="edge1" class="edge"><title>Node0x242fbb00&#45;&gt;Node0x37c0db90</title>
<path fill="none" stroke="black" d="M118,-860.428C118,-852.361 118,-842.411 118,-832.802"/>
<polygon fill="black" stroke="black" points="121.5,-832.616 118,-822.616 114.5,-832.616 121.5,-832.616"/>
</g>
<!-- Node0x37c08760 -->
<g id="node3" class="node"><title>Node0x37c08760</title>
<polygon fill="none" stroke="black" points="63,-693.5 63,-731.5 173,-731.5 173,-693.5 63,-693.5"/>
<text text-anchor="start" x="71" y="-716.3" font-family="Times,serif" font-size="14.00">0x886f800:</text>
<text text-anchor="start" x="71" y="-701.3" font-family="Times,serif" font-size="14.00"> if (v1 == 3):</text>
</g>
<!-- Node0x37c0db90&#45;&gt;Node0x37c08760 -->
<g id="edge2" class="edge"><title>Node0x37c0db90&#45;&gt;Node0x37c08760</title>
<path fill="none" stroke="black" d="M118,-769.213C118,-760.526 118,-750.787 118,-741.91"/>
<polygon fill="black" stroke="black" points="121.5,-741.638 118,-731.638 114.5,-741.638 121.5,-741.638"/>
</g>
<!-- Node0x37c10050 -->
<g id="node4" class="node"><title>Node0x37c10050</title>
<polygon fill="none" stroke="black" points="22,-588.5 22,-641.5 120,-641.5 120,-588.5 22,-588.5"/>
<text text-anchor="start" x="30" y="-626.3" font-family="Times,serif" font-size="14.00">0x886f400:</text>
<text text-anchor="start" x="30" y="-611.3" font-family="Times,serif" font-size="14.00"> g29 = 4</text>
<text text-anchor="start" x="30" y="-596.3" font-family="Times,serif" font-size="14.00"> v2 = 4</text>
</g>
<!-- Node0x37c08760&#45;&gt;Node0x37c10050 -->
<g id="edge3" class="edge"><title>Node0x37c08760&#45;&gt;Node0x37c10050</title>
<path fill="none" stroke="black" d="M95.7724,-693.185C90.5278,-687.834 85.4618,-681.627 82,-675 78.2685,-667.857 75.7877,-659.645 74.1424,-651.661"/>
<polygon fill="black" stroke="black" points="77.5884,-651.048 72.4741,-641.769 70.6859,-652.212 77.5884,-651.048"/>
<text text-anchor="middle" x="112" y="-663.8" font-family="Times,serif" font-size="14.00">v1 == 3</text>
</g>
<!-- Node0x2111d370 -->
<g id="node5" class="node"><title>Node0x2111d370</title>
<polygon fill="none" stroke="black" points="50.5,-512.5 50.5,-550.5 205.5,-550.5 205.5,-512.5 50.5,-512.5"/>
<text text-anchor="start" x="58.5" y="-535.3" font-family="Times,serif" font-size="14.00">0x130c85c0:</text>
<text text-anchor="start" x="58.5" y="-520.3" font-family="Times,serif" font-size="14.00"> v3 = ((3 * g36) &#45; 6)</text>
</g>
<!-- Node0x37c08760&#45;&gt;Node0x2111d370 -->
<g id="edge4" class="edge"><title>Node0x37c08760&#45;&gt;Node0x2111d370</title>
<path fill="none" stroke="black" d="M132.969,-693.234C136.652,-687.705 140.086,-681.394 142,-675 153.491,-636.61 144.959,-590.064 137.064,-560.856"/>
<polygon fill="black" stroke="black" points="140.339,-559.578 134.223,-550.927 133.609,-561.504 140.339,-559.578"/>
<text text-anchor="middle" x="175" y="-611.3" font-family="Times,serif" font-size="14.00">v1 != 3</text>
</g>
<!-- Node0x37c10050&#45;&gt;Node0x2111d370 -->
<g id="edge5" class="edge"><title>Node0x37c10050&#45;&gt;Node0x2111d370</title>
<path fill="none" stroke="black" d="M89.0352,-588.213C95.5777,-578.858 102.975,-568.282 109.552,-558.877"/>
<polygon fill="black" stroke="black" points="112.451,-560.839 115.314,-550.638 106.715,-556.827 112.451,-560.839"/>
</g>
<!-- Node0x242f8e80 -->
<g id="node6" class="node"><title>Node0x242f8e80</title>
<polygon fill="none" stroke="black" points="73,-436.5 73,-474.5 183,-474.5 183,-436.5 73,-436.5"/>
<text text-anchor="start" x="81" y="-459.3" font-family="Times,serif" font-size="14.00">0x8870d50:</text>
<text text-anchor="start" x="81" y="-444.3" font-family="Times,serif" font-size="14.00"> if (v3 == 0):</text>
</g>
<!-- Node0x2111d370&#45;&gt;Node0x242f8e80 -->
<g id="edge6" class="edge"><title>Node0x2111d370&#45;&gt;Node0x242f8e80</title>
<path fill="none" stroke="black" d="M128,-512.208C128,-503.964 128,-494.038 128,-484.862"/>
<polygon fill="black" stroke="black" points="131.5,-484.582 128,-474.582 124.5,-484.582 131.5,-484.582"/>
</g>
<!-- Node0x242f5b60 -->
<g id="node7" class="node"><title>Node0x242f5b60</title>
<polygon fill="none" stroke="black" points="0,-274.5 0,-327.5 166,-327.5 166,-274.5 0,-274.5"/>
<text text-anchor="start" x="8" y="-312.3" font-family="Times,serif" font-size="14.00">0x8870a70:</text>
<text text-anchor="start" x="8" y="-297.3" font-family="Times,serif" font-size="14.00"> g9 = (1 == (4 * v2))</text>
<text text-anchor="start" x="8" y="-282.3" font-family="Times,serif" font-size="14.00"> return</text>
</g>
<!-- Node0x242f8e80&#45;&gt;Node0x242f5b60 -->
<g id="edge7" class="edge"><title>Node0x242f8e80&#45;&gt;Node0x242f5b60</title>
<path fill="none" stroke="black" d="M101.104,-436.251C95.4589,-431.054 90.24,-424.901 87,-418 75.2883,-393.054 74.9484,-361.655 77.1725,-337.818"/>
<polygon fill="black" stroke="black" points="80.6621,-338.106 78.2999,-327.778 73.7058,-337.325 80.6621,-338.106"/>
<text text-anchor="middle" x="117" y="-406.8" font-family="Times,serif" font-size="14.00">v3 == 0</text>
</g>
<!-- Node0x37c0da40 -->
<g id="node8" class="node"><title>Node0x37c0da40</title>
<polygon fill="none" stroke="black" points="122.5,-346.5 122.5,-384.5 231.5,-384.5 231.5,-346.5 122.5,-346.5"/>
<text text-anchor="start" x="130.5" y="-369.3" font-family="Times,serif" font-size="14.00">0x130c86a0:</text>
<text text-anchor="start" x="130.5" y="-354.3" font-family="Times,serif" font-size="14.00"> v4 = 2</text>
</g>
<!-- Node0x242f8e80&#45;&gt;Node0x37c0da40 -->
<g id="edge8" class="edge"><title>Node0x242f8e80&#45;&gt;Node0x37c0da40</title>
<path fill="none" stroke="black" d="M140.046,-436.138C143.682,-430.398 147.607,-423.997 151,-418 155.348,-410.315 159.785,-401.816 163.733,-393.975"/>
<polygon fill="black" stroke="black" points="166.959,-395.349 168.269,-384.835 160.688,-392.237 166.959,-395.349"/>
<text text-anchor="middle" x="186" y="-406.8" font-family="Times,serif" font-size="14.00">v3 != 0</text>
</g>
<!-- Node0x44fd8e70 -->
<g id="node9" class="node"><title>Node0x44fd8e70</title>
<polygon fill="none" stroke="black" points="123,-23.5 123,-59.5 177,-59.5 177,-23.5 123,-23.5"/>
<text text-anchor="start" x="131" y="-37.8" font-family="Times,serif" font-size="14.00">exit:</text>
</g>
<!-- Node0x242f5b60&#45;&gt;Node0x44fd8e70 -->
<g id="edge9" class="edge"><title>Node0x242f5b60&#45;&gt;Node0x44fd8e70</title>
<path fill="none" stroke="black" d="M80.0226,-274.355C76.4999,-234.541 74.0265,-156.28 100,-97 104.902,-85.8113 113.066,-75.4122 121.39,-66.7608"/>
<polygon fill="black" stroke="black" points="123.973,-69.1298 128.668,-59.6321 119.075,-64.1289 123.973,-69.1298"/>
</g>
<!-- Node0x37c0fad0 -->
<g id="node10" class="node"><title>Node0x37c0fad0</title>
<polygon fill="none" stroke="black" points="118,-217.5 118,-255.5 256,-255.5 256,-217.5 118,-217.5"/>
<text text-anchor="start" x="126" y="-240.3" font-family="Times,serif" font-size="14.00">0x8872f00:</text>
<text text-anchor="start" x="126" y="-225.3" font-family="Times,serif" font-size="14.00"> while (v3 &gt;= 2):</text>
</g>
<!-- Node0x37c0da40&#45;&gt;Node0x37c0fad0 -->
<g id="edge10" class="edge"><title>Node0x37c0da40&#45;&gt;Node0x37c0fad0</title>
<path fill="none" stroke="black" d="M178.433,-346.304C180.089,-325.273 182.834,-290.409 184.77,-265.824"/>
<polygon fill="black" stroke="black" points="188.274,-265.906 185.57,-255.662 181.296,-265.357 188.274,-265.906"/>
</g>
<!-- Node0x4382c230 -->
<g id="node11" class="node"><title>Node0x4382c230</title>
<polygon fill="none" stroke="black" points="109.5,-105 109.5,-158 226.5,-158 226.5,-105 109.5,-105"/>
<text text-anchor="start" x="117.5" y="-142.8" font-family="Times,serif" font-size="14.00">0x1eb86450:</text>
<text text-anchor="start" x="117.5" y="-127.8" font-family="Times,serif" font-size="14.00"> v3 = (v3 / 2)</text>
<text text-anchor="start" x="117.5" y="-112.8" font-family="Times,serif" font-size="14.00"> v4 = (v4 + 1)</text>
</g>
<!-- Node0x37c0fad0&#45;&gt;Node0x4382c230 -->
<g id="edge11" class="edge"><title>Node0x37c0fad0&#45;&gt;Node0x4382c230</title>
<path fill="none" stroke="black" d="M156.882,-217.374C150.871,-212.239 145.375,-206.083 142,-199 137.183,-188.89 139.004,-177.634 143.377,-167.299"/>
<polygon fill="black" stroke="black" points="146.624,-168.633 147.995,-158.127 140.372,-165.485 146.624,-168.633"/>
<text text-anchor="middle" x="172" y="-187.8" font-family="Times,serif" font-size="14.00">v3 &gt;= 2</text>
</g>
<!-- Node0x242f6070 -->
<g id="node12" class="node"><title>Node0x242f6070</title>
<polygon fill="none" stroke="black" points="245,-97.5 245,-165.5 419,-165.5 419,-97.5 245,-97.5"/>
<text text-anchor="start" x="253" y="-150.3" font-family="Times,serif" font-size="14.00">0x8872330:</text>
<text text-anchor="start" x="253" y="-135.3" font-family="Times,serif" font-size="14.00"> g37 = 0</text>
<text text-anchor="start" x="253" y="-120.3" font-family="Times,serif" font-size="14.00"> g36 = v4</text>
<text text-anchor="start" x="253" y="-105.3" font-family="Times,serif" font-size="14.00"> g9 = (v4 == (4 * v2))</text>
</g>
<!-- Node0x37c0fad0&#45;&gt;Node0x242f6070 -->
<g id="edge12" class="edge"><title>Node0x37c0fad0&#45;&gt;Node0x242f6070</title>
<path fill="none" stroke="black" d="M212.589,-217.323C230.396,-204.674 254.819,-187.325 276.94,-171.612"/>
<polygon fill="black" stroke="black" points="279.161,-174.327 285.286,-165.683 275.107,-168.621 279.161,-174.327"/>
<text text-anchor="middle" x="283" y="-187.8" font-family="Times,serif" font-size="14.00">v3 &lt; 2</text>
</g>
<!-- Node0x4382c230&#45;&gt;Node0x37c0fad0 -->
<g id="edge13" class="edge"><title>Node0x4382c230&#45;&gt;Node0x37c0fad0</title>
<path fill="none" stroke="black" d="M189.206,-158.261C194.423,-166.063 199.288,-174.97 202,-184 204.335,-191.776 203.34,-200.229 201.012,-207.996"/>
<polygon fill="black" stroke="black" points="197.733,-206.772 197.501,-217.365 204.288,-209.229 197.733,-206.772"/>
</g>
<!-- Node0x242f6070&#45;&gt;Node0x44fd8e70 -->
<g id="edge14" class="edge"><title>Node0x242f6070&#45;&gt;Node0x44fd8e70</title>
<path fill="none" stroke="black" d="M263.712,-97.4817C237.411,-84.7648 208.407,-70.7406 186.273,-60.0388"/>
<polygon fill="black" stroke="black" points="187.763,-56.8714 177.236,-55.6693 184.716,-63.1734 187.763,-56.8714"/>
</g>
</g>
</svg>
