<?xml version="1.0" encoding="UTF-8" standalone="no"?>
<!DOCTYPE svg PUBLIC "-//W3C//DTD SVG 1.1//EN"
 "http://www.w3.org/Graphics/SVG/1.1/DTD/svg11.dtd">
<!-- Generated by graphviz version 2.38.0 (20140413.2041)
 -->
<!-- Title: Control&#45;flow graph for function &#39;function_16cac()&#39;. Pages: 1 -->
<svg width="726pt" height="1500pt"
 viewBox="0.00 0.00 725.50 1500.00" xmlns="http://www.w3.org/2000/svg" xmlns:xlink="http://www.w3.org/1999/xlink">
<g id="graph0" class="graph" transform="scale(1 1) rotate(0) translate(4 1496)">
<title>Control&#45;flow graph for function &#39;function_16cac()&#39;.</title>
<polygon fill="white" stroke="none" points="-4,4 -4,-1496 721.5,-1496 721.5,4 -4,4"/>
<text text-anchor="middle" x="358.75" y="-7.8" font-family="Times,serif" font-size="14.00">Control&#45;flow graph for function &#39;function_16cac()&#39;.</text>
<!-- Node0x31cb04d0 -->
<g id="node1" class="node"><title>Node0x31cb04d0</title>
<polygon fill="none" stroke="black" points="363,-1455.5 363,-1491.5 422,-1491.5 422,-1455.5 363,-1455.5"/>
<text text-anchor="start" x="371" y="-1469.8" font-family="Times,serif" font-size="14.00">entry:</text>
</g>
<!-- Node0x3de64030 -->
<g id="node2" class="node"><title>Node0x3de64030</title>
<polygon fill="none" stroke="black" points="327.5,-1304.5 327.5,-1417.5 457.5,-1417.5 457.5,-1304.5 327.5,-1304.5"/>
<text text-anchor="start" x="335.5" y="-1402.3" font-family="Times,serif" font-size="14.00">0x8602f50:</text>
<text text-anchor="start" x="335.5" y="-1387.3" font-family="Times,serif" font-size="14.00"> g37 = 5748</text>
<text text-anchor="start" x="335.5" y="-1372.3" font-family="Times,serif" font-size="14.00"> g33 = 165012</text>
<text text-anchor="start" x="335.5" y="-1357.3" font-family="Times,serif" font-size="14.00"> v1 = g18</text>
<text text-anchor="start" x="335.5" y="-1342.3" font-family="Times,serif" font-size="14.00"> g30 = v1</text>
<text text-anchor="start" x="335.5" y="-1327.3" font-family="Times,serif" font-size="14.00"> g36 = g29</text>
<text text-anchor="start" x="335.5" y="-1312.3" font-family="Times,serif" font-size="14.00"> g9 = (v1 == 0)</text>
</g>
<!-- Node0x31cb04d0&#45;&gt;Node0x3de64030 -->
<g id="edge1" class="edge"><title>Node0x31cb04d0&#45;&gt;Node0x3de64030</title>
<path fill="none" stroke="black" d="M392.5,-1455.23C392.5,-1447.59 392.5,-1438.06 392.5,-1428.03"/>
<polygon fill="black" stroke="black" points="396,-1427.9 392.5,-1417.9 389,-1427.9 396,-1427.9"/>
</g>
<!-- Node0x2adbdaf0 -->
<g id="node3" class="node"><title>Node0x2adbdaf0</title>
<polygon fill="none" stroke="black" points="337.5,-1228.5 337.5,-1266.5 447.5,-1266.5 447.5,-1228.5 337.5,-1228.5"/>
<text text-anchor="start" x="345.5" y="-1251.3" font-family="Times,serif" font-size="14.00">0x8603fb0:</text>
<text text-anchor="start" x="345.5" y="-1236.3" font-family="Times,serif" font-size="14.00"> if (v1 == 0):</text>
</g>
<!-- Node0x3de64030&#45;&gt;Node0x2adbdaf0 -->
<g id="edge2" class="edge"><title>Node0x3de64030&#45;&gt;Node0x2adbdaf0</title>
<path fill="none" stroke="black" d="M392.5,-1304.25C392.5,-1294.86 392.5,-1285.47 392.5,-1277.15"/>
<polygon fill="black" stroke="black" points="396,-1276.91 392.5,-1266.91 389,-1276.91 396,-1276.91"/>
</g>
<!-- Node0x26512380 -->
<g id="node4" class="node"><title>Node0x26512380</title>
<polygon fill="none" stroke="black" points="297,-1138.5 297,-1176.5 394,-1176.5 394,-1138.5 297,-1138.5"/>
<text text-anchor="start" x="305" y="-1161.3" font-family="Times,serif" font-size="14.00">0x8603af0:</text>
<text text-anchor="start" x="305" y="-1146.3" font-family="Times,serif" font-size="14.00"> g29 = 6</text>
</g>
<!-- Node0x2adbdaf0&#45;&gt;Node0x26512380 -->
<g id="edge3" class="edge"><title>Node0x2adbdaf0&#45;&gt;Node0x26512380</title>
<path fill="none" stroke="black" d="M370.389,-1228.12C365.144,-1222.77 360.048,-1216.58 356.5,-1210 352.639,-1202.84 350.132,-1194.43 348.506,-1186.51"/>
<polygon fill="black" stroke="black" points="351.938,-1185.81 346.835,-1176.52 345.034,-1186.96 351.938,-1185.81"/>
<text text-anchor="middle" x="386.5" y="-1198.8" font-family="Times,serif" font-size="14.00">v1 == 0</text>
</g>
<!-- Node0x2adbe510 -->
<g id="node5" class="node"><title>Node0x2adbe510</title>
<polygon fill="none" stroke="black" points="178,-1002.5 178,-1100.5 627,-1100.5 627,-1002.5 178,-1002.5"/>
<text text-anchor="start" x="186" y="-1085.3" font-family="Times,serif" font-size="14.00">0x406b28f0:</text>
<text text-anchor="start" x="186" y="-1070.3" font-family="Times,serif" font-size="14.00"> v2</text>
<text text-anchor="start" x="186" y="-1055.3" font-family="Times,serif" font-size="14.00"> g34 = v2</text>
<text text-anchor="start" x="186" y="-1040.3" font-family="Times,serif" font-size="14.00"> IntToPtrCastExpr&lt;ptr&gt;(ExtCastExpr&lt;int32&gt;((v1 == 0)))()</text>
<text text-anchor="start" x="186" y="-1025.3" font-family="Times,serif" font-size="14.00"> v3 = g36</text>
<text text-anchor="start" x="186" y="-1010.3" font-family="Times,serif" font-size="14.00"> g9 = (v3 == 0)</text>
</g>
<!-- Node0x2adbdaf0&#45;&gt;Node0x2adbe510 -->
<g id="edge4" class="edge"><title>Node0x2adbdaf0&#45;&gt;Node0x2adbe510</title>
<path fill="none" stroke="black" d="M407.469,-1228.23C411.152,-1222.7 414.586,-1216.39 416.5,-1210 426.083,-1177.98 423.386,-1140.8 417.921,-1110.61"/>
<polygon fill="black" stroke="black" points="421.328,-1109.79 415.975,-1100.65 414.458,-1111.14 421.328,-1109.79"/>
<text text-anchor="middle" x="450.5" y="-1153.8" font-family="Times,serif" font-size="14.00">v1 != 0</text>
</g>
<!-- Node0x26512380&#45;&gt;Node0x2adbe510 -->
<g id="edge5" class="edge"><title>Node0x26512380&#45;&gt;Node0x2adbe510</title>
<path fill="none" stroke="black" d="M355.429,-1138.38C359.914,-1130.2 365.486,-1120.03 371.21,-1109.59"/>
<polygon fill="black" stroke="black" points="374.297,-1111.24 376.034,-1100.79 368.158,-1107.88 374.297,-1111.24"/>
</g>
<!-- Node0x2adc2470 -->
<g id="node6" class="node"><title>Node0x2adc2470</title>
<polygon fill="none" stroke="black" points="347.5,-926.5 347.5,-964.5 457.5,-964.5 457.5,-926.5 347.5,-926.5"/>
<text text-anchor="start" x="355.5" y="-949.3" font-family="Times,serif" font-size="14.00">0x860b510:</text>
<text text-anchor="start" x="355.5" y="-934.3" font-family="Times,serif" font-size="14.00"> if (v3 == 0):</text>
</g>
<!-- Node0x2adbe510&#45;&gt;Node0x2adc2470 -->
<g id="edge6" class="edge"><title>Node0x2adbe510&#45;&gt;Node0x2adc2470</title>
<path fill="none" stroke="black" d="M402.5,-1002.46C402.5,-992.952 402.5,-983.27 402.5,-974.69"/>
<polygon fill="black" stroke="black" points="406,-974.509 402.5,-964.509 399,-974.509 406,-974.509"/>
</g>
<!-- Node0x26512980 -->
<g id="node7" class="node"><title>Node0x26512980</title>
<polygon fill="none" stroke="black" points="303,-836.5 303,-874.5 404,-874.5 404,-836.5 303,-836.5"/>
<text text-anchor="start" x="311" y="-859.3" font-family="Times,serif" font-size="14.00">0x860b3b0:</text>
<text text-anchor="start" x="311" y="-844.3" font-family="Times,serif" font-size="14.00"> g29 = 4</text>
</g>
<!-- Node0x2adc2470&#45;&gt;Node0x26512980 -->
<g id="edge7" class="edge"><title>Node0x2adc2470&#45;&gt;Node0x26512980</title>
<path fill="none" stroke="black" d="M380.927,-926.413C375.551,-920.977 370.256,-914.67 366.5,-908 362.473,-900.849 359.675,-892.446 357.738,-884.525"/>
<polygon fill="black" stroke="black" points="361.123,-883.612 355.656,-874.536 354.27,-885.04 361.123,-883.612"/>
<text text-anchor="middle" x="396.5" y="-896.8" font-family="Times,serif" font-size="14.00">v3 == 0</text>
</g>
<!-- Node0x31cb2260 -->
<g id="node8" class="node"><title>Node0x31cb2260</title>
<polygon fill="none" stroke="black" points="188,-610.5 188,-798.5 637,-798.5 637,-610.5 188,-610.5"/>
<text text-anchor="start" x="196" y="-783.3" font-family="Times,serif" font-size="14.00">0x473ebd30:</text>
<text text-anchor="start" x="196" y="-768.3" font-family="Times,serif" font-size="14.00"> v4 = g34</text>
<text text-anchor="start" x="196" y="-753.3" font-family="Times,serif" font-size="14.00"> g38 = *(IntToPtrCastExpr&lt;ptr&gt;((v4 + 4)))</text>
<text text-anchor="start" x="196" y="-738.3" font-family="Times,serif" font-size="14.00"> g32 = *(IntToPtrCastExpr&lt;ptr&gt;((v4 + 8)))</text>
<text text-anchor="start" x="196" y="-723.3" font-family="Times,serif" font-size="14.00"> g34 = *(IntToPtrCastExpr&lt;ptr&gt;((v4 + 12)))</text>
<text text-anchor="start" x="196" y="-708.3" font-family="Times,serif" font-size="14.00"> IntToPtrCastExpr&lt;ptr&gt;(ExtCastExpr&lt;int32&gt;((v3 == 0)))()</text>
<text text-anchor="start" x="196" y="-693.3" font-family="Times,serif" font-size="14.00"> g29 = g30</text>
<text text-anchor="start" x="196" y="-678.3" font-family="Times,serif" font-size="14.00"> g37 = 3</text>
<text text-anchor="start" x="196" y="-663.3" font-family="Times,serif" font-size="14.00"> g30 = (g33 &#45; 9028)</text>
<text text-anchor="start" x="196" y="-648.3" font-family="Times,serif" font-size="14.00"> function_101c0()</text>
<text text-anchor="start" x="196" y="-633.3" font-family="Times,serif" font-size="14.00"> v5 = g29</text>
<text text-anchor="start" x="196" y="-618.3" font-family="Times,serif" font-size="14.00"> g9 = (v5 == 0)</text>
</g>
<!-- Node0x2adc2470&#45;&gt;Node0x31cb2260 -->
<g id="edge8" class="edge"><title>Node0x2adc2470&#45;&gt;Node0x31cb2260</title>
<path fill="none" stroke="black" d="M417.469,-926.234C421.152,-920.705 424.586,-914.394 426.5,-908 435.914,-876.547 436.622,-841.166 433.714,-808.884"/>
<polygon fill="black" stroke="black" points="437.153,-808.11 432.649,-798.52 430.189,-808.825 437.153,-808.11"/>
<text text-anchor="middle" x="462.5" y="-851.8" font-family="Times,serif" font-size="14.00">v3 != 0</text>
</g>
<!-- Node0x26512980&#45;&gt;Node0x31cb2260 -->
<g id="edge9" class="edge"><title>Node0x26512980&#45;&gt;Node0x31cb2260</title>
<path fill="none" stroke="black" d="M360.735,-836.23C363.805,-828.476 367.644,-818.78 371.836,-808.193"/>
<polygon fill="black" stroke="black" points="375.173,-809.273 375.601,-798.687 368.665,-806.696 375.173,-809.273"/>
</g>
<!-- Node0x3de60790 -->
<g id="node9" class="node"><title>Node0x3de60790</title>
<polygon fill="none" stroke="black" points="357.5,-519.5 357.5,-572.5 467.5,-572.5 467.5,-519.5 357.5,-519.5"/>
<text text-anchor="start" x="365.5" y="-557.3" font-family="Times,serif" font-size="14.00">0x860e6c0:</text>
<text text-anchor="start" x="365.5" y="-542.3" font-family="Times,serif" font-size="14.00"> if (v5 == 0):</text>
<text text-anchor="start" x="365.5" y="-527.3" font-family="Times,serif" font-size="14.00"> else:</text>
</g>
<!-- Node0x31cb2260&#45;&gt;Node0x3de60790 -->
<g id="edge10" class="edge"><title>Node0x31cb2260&#45;&gt;Node0x3de60790</title>
<path fill="none" stroke="black" d="M412.5,-610.203C412.5,-600.538 412.5,-591.191 412.5,-582.782"/>
<polygon fill="black" stroke="black" points="416,-582.68 412.5,-572.68 409,-582.68 416,-582.68"/>
</g>
<!-- Node0x26512f80 -->
<g id="node10" class="node"><title>Node0x26512f80</title>
<polygon fill="none" stroke="black" points="175.5,-414.5 175.5,-467.5 495.5,-467.5 495.5,-414.5 175.5,-414.5"/>
<text text-anchor="start" x="183.5" y="-452.3" font-family="Times,serif" font-size="14.00">0x860d950:</text>
<text text-anchor="start" x="183.5" y="-437.3" font-family="Times,serif" font-size="14.00"> g37 = 1</text>
<text text-anchor="start" x="183.5" y="-422.3" font-family="Times,serif" font-size="14.00"> *(IntToPtrCastExpr&lt;ptr&gt;((g38 + 4))) = 1</text>
</g>
<!-- Node0x3de60790&#45;&gt;Node0x26512f80 -->
<g id="edge11" class="edge"><title>Node0x3de60790&#45;&gt;Node0x26512f80</title>
<path fill="none" stroke="black" d="M393.268,-519.274C383.438,-506.125 371.349,-489.954 360.775,-475.81"/>
<polygon fill="black" stroke="black" points="363.544,-473.668 354.753,-467.755 357.938,-477.86 363.544,-473.668"/>
<text text-anchor="middle" x="409.5" y="-489.8" font-family="Times,serif" font-size="14.00">v5 == 0</text>
</g>
<!-- Node0x2adc2b10 -->
<g id="node11" class="node"><title>Node0x2adc2b10</title>
<polygon fill="none" stroke="black" points="514,-422 514,-460 615,-460 615,-422 514,-422"/>
<text text-anchor="start" x="522" y="-444.8" font-family="Times,serif" font-size="14.00">0x860e940:</text>
<text text-anchor="start" x="522" y="-429.8" font-family="Times,serif" font-size="14.00"> g29 = 1</text>
</g>
<!-- Node0x3de60790&#45;&gt;Node0x2adc2b10 -->
<g id="edge12" class="edge"><title>Node0x3de60790&#45;&gt;Node0x2adc2b10</title>
<path fill="none" stroke="black" d="M450.464,-519.274C474.585,-502.929 505.593,-481.917 529.185,-465.931"/>
<polygon fill="black" stroke="black" points="531.199,-468.794 537.514,-460.286 527.272,-462.999 531.199,-468.794"/>
<text text-anchor="middle" x="524.5" y="-489.8" font-family="Times,serif" font-size="14.00">v5 != 0</text>
</g>
<!-- Node0x26511480 -->
<g id="node12" class="node"><title>Node0x26511480</title>
<polygon fill="none" stroke="black" points="233.5,-278.5 233.5,-376.5 717.5,-376.5 717.5,-278.5 233.5,-278.5"/>
<text text-anchor="start" x="241.5" y="-361.3" font-family="Times,serif" font-size="14.00">0x21b6bb20:</text>
<text text-anchor="start" x="241.5" y="-346.3" font-family="Times,serif" font-size="14.00"> v6 = g34</text>
<text text-anchor="start" x="241.5" y="-331.3" font-family="Times,serif" font-size="14.00"> g38 = *(IntToPtrCastExpr&lt;ptr&gt;((v6 + 4)))</text>
<text text-anchor="start" x="241.5" y="-316.3" font-family="Times,serif" font-size="14.00"> g32 = *(IntToPtrCastExpr&lt;ptr&gt;((v6 + 8)))</text>
<text text-anchor="start" x="241.5" y="-301.3" font-family="Times,serif" font-size="14.00"> g34 = *(IntToPtrCastExpr&lt;ptr&gt;((v6 + 12)))</text>
<text text-anchor="start" x="241.5" y="-286.3" font-family="Times,serif" font-size="14.00"> IntToPtrCastExpr&lt;ptr&gt;(*(IntToPtrCastExpr&lt;ptr&gt;((v6 + 16))))()</text>
</g>
<!-- Node0x26512f80&#45;&gt;Node0x26511480 -->
<g id="edge13" class="edge"><title>Node0x26512f80&#45;&gt;Node0x26511480</title>
<path fill="none" stroke="black" d="M367.619,-414.42C379.428,-405.014 393.297,-393.969 407.083,-382.989"/>
<polygon fill="black" stroke="black" points="409.533,-385.513 415.174,-376.545 405.172,-380.037 409.533,-385.513"/>
</g>
<!-- Node0x2adc2b10&#45;&gt;Node0x26511480 -->
<g id="edge14" class="edge"><title>Node0x2adc2b10&#45;&gt;Node0x26511480</title>
<path fill="none" stroke="black" d="M549.803,-421.588C541.632,-411.35 530.978,-398.004 520.302,-384.628"/>
<polygon fill="black" stroke="black" points="523.005,-382.404 514.031,-376.772 517.534,-386.771 523.005,-382.404"/>
</g>
<!-- Node0x26511f80 -->
<g id="node13" class="node"><title>Node0x26511f80</title>
<polygon fill="none" stroke="black" points="425,-202.5 425,-240.5 526,-240.5 526,-202.5 425,-202.5"/>
<text text-anchor="start" x="433" y="-225.3" font-family="Times,serif" font-size="14.00">0x8612650:</text>
<text text-anchor="start" x="433" y="-210.3" font-family="Times,serif" font-size="14.00"> if g9:</text>
</g>
<!-- Node0x26511480&#45;&gt;Node0x26511f80 -->
<g id="edge15" class="edge"><title>Node0x26511480&#45;&gt;Node0x26511f80</title>
<path fill="none" stroke="black" d="M475.5,-278.458C475.5,-268.952 475.5,-259.27 475.5,-250.69"/>
<polygon fill="black" stroke="black" points="479,-250.509 475.5,-240.509 472,-250.509 479,-250.509"/>
</g>
<!-- Node0x2adc3110 -->
<g id="node14" class="node"><title>Node0x2adc3110</title>
<polygon fill="none" stroke="black" points="0,-97.5 0,-150.5 513,-150.5 513,-97.5 0,-97.5"/>
<text text-anchor="start" x="8" y="-135.3" font-family="Times,serif" font-size="14.00">0x1225d650:</text>
<text text-anchor="start" x="8" y="-120.3" font-family="Times,serif" font-size="14.00"> v7 = (g40 % 256)</text>
<text text-anchor="start" x="8" y="-105.3" font-family="Times,serif" font-size="14.00"> g30 = ((g38 &gt;&gt; (0 if (v7 == 0) else (31 if (v7 &gt; 31) else v7))) &amp; g29)</text>
</g>
<!-- Node0x26511f80&#45;&gt;Node0x2adc3110 -->
<g id="edge16" class="edge"><title>Node0x26511f80&#45;&gt;Node0x2adc3110</title>
<path fill="none" stroke="black" d="M434.05,-202.425C403.202,-188.973 360.415,-170.314 324.573,-154.685"/>
<polygon fill="black" stroke="black" points="325.71,-151.362 315.145,-150.573 322.912,-157.779 325.71,-151.362"/>
<text text-anchor="middle" x="396" y="-172.8" font-family="Times,serif" font-size="14.00">g9</text>
</g>
<!-- Node0x32188a00 -->
<g id="node15" class="node"><title>Node0x32188a00</title>
<polygon fill="none" stroke="black" points="442.5,-23.5 442.5,-59.5 496.5,-59.5 496.5,-23.5 442.5,-23.5"/>
<text text-anchor="start" x="450.5" y="-37.8" font-family="Times,serif" font-size="14.00">exit:</text>
</g>
<!-- Node0x26511f80&#45;&gt;Node0x32188a00 -->
<g id="edge17" class="edge"><title>Node0x26511f80&#45;&gt;Node0x32188a00</title>
<path fill="none" stroke="black" d="M492.261,-202.349C503.222,-189.185 516.569,-170.359 522.5,-151 529.531,-128.053 531.529,-119.237 522.5,-97 517.806,-85.4403 509.352,-74.9864 500.555,-66.3978"/>
<polygon fill="black" stroke="black" points="502.902,-63.8016 493.159,-59.6389 498.179,-68.9687 502.902,-63.8016"/>
<text text-anchor="middle" x="557" y="-120.3" font-family="Times,serif" font-size="14.00">not (g9)</text>
</g>
<!-- Node0x2adc3110&#45;&gt;Node0x32188a00 -->
<g id="edge18" class="edge"><title>Node0x2adc3110&#45;&gt;Node0x32188a00</title>
<path fill="none" stroke="black" d="M324.187,-97.4187C360.194,-83.8104 403.058,-67.6106 432.861,-56.3471"/>
<polygon fill="black" stroke="black" points="434.322,-59.5368 442.439,-52.7274 431.847,-52.9888 434.322,-59.5368"/>
</g>
</g>
</svg>
