<?xml version="1.0" encoding="UTF-8" standalone="no"?>
<!DOCTYPE svg PUBLIC "-//W3C//DTD SVG 1.1//EN"
 "http://www.w3.org/Graphics/SVG/1.1/DTD/svg11.dtd">
<!-- Generated by graphviz version 2.38.0 (20140413.2041)
 -->
<!-- Title: Control&#45;flow graph for function &#39;function_120a0()&#39;. Pages: 1 -->
<svg width="1090pt" height="1227pt"
 viewBox="0.00 0.00 1089.50 1227.00" xmlns="http://www.w3.org/2000/svg" xmlns:xlink="http://www.w3.org/1999/xlink">
<g id="graph0" class="graph" transform="scale(1 1) rotate(0) translate(4 1223)">
<title>Control&#45;flow graph for function &#39;function_120a0()&#39;.</title>
<polygon fill="white" stroke="none" points="-4,4 -4,-1223 1085.5,-1223 1085.5,4 -4,4"/>
<text text-anchor="middle" x="540.75" y="-7.8" font-family="Times,serif" font-size="14.00">Control&#45;flow graph for function &#39;function_120a0()&#39;.</text>
<!-- Node0x43b9f660 -->
<g id="node1" class="node"><title>Node0x43b9f660</title>
<polygon fill="none" stroke="black" points="602.5,-1182.5 602.5,-1218.5 661.5,-1218.5 661.5,-1182.5 602.5,-1182.5"/>
<text text-anchor="start" x="610.5" y="-1196.8" font-family="Times,serif" font-size="14.00">entry:</text>
</g>
<!-- Node0x27dad9b0 -->
<g id="node2" class="node"><title>Node0x27dad9b0</title>
<polygon fill="none" stroke="black" points="577,-1061.5 577,-1144.5 687,-1144.5 687,-1061.5 577,-1061.5"/>
<text text-anchor="start" x="585" y="-1129.3" font-family="Times,serif" font-size="14.00">0x1d169240:</text>
<text text-anchor="start" x="585" y="-1114.3" font-family="Times,serif" font-size="14.00"> v1 = g38</text>
<text text-anchor="start" x="585" y="-1099.3" font-family="Times,serif" font-size="14.00"> v2 = g39</text>
<text text-anchor="start" x="585" y="-1084.3" font-family="Times,serif" font-size="14.00"> v3 = g40</text>
<text text-anchor="start" x="585" y="-1069.3" font-family="Times,serif" font-size="14.00"> g40 = g37</text>
</g>
<!-- Node0x43b9f660&#45;&gt;Node0x27dad9b0 -->
<g id="edge1" class="edge"><title>Node0x43b9f660&#45;&gt;Node0x27dad9b0</title>
<path fill="none" stroke="black" d="M632,-1182.43C632,-1174.62 632,-1164.92 632,-1155.03"/>
<polygon fill="black" stroke="black" points="635.5,-1154.73 632,-1144.73 628.5,-1154.73 635.5,-1154.73"/>
</g>
<!-- Node0x27157d10 -->
<g id="node3" class="node"><title>Node0x27157d10</title>
<polygon fill="none" stroke="black" points="578.5,-970.5 578.5,-1023.5 685.5,-1023.5 685.5,-970.5 578.5,-970.5"/>
<text text-anchor="start" x="586.5" y="-1008.3" font-family="Times,serif" font-size="14.00">0x7ce00c0:</text>
<text text-anchor="start" x="586.5" y="-993.3" font-family="Times,serif" font-size="14.00"> if (g30 &lt; 0):</text>
<text text-anchor="start" x="586.5" y="-978.3" font-family="Times,serif" font-size="14.00"> else:</text>
</g>
<!-- Node0x27dad9b0&#45;&gt;Node0x27157d10 -->
<g id="edge2" class="edge"><title>Node0x27dad9b0&#45;&gt;Node0x27157d10</title>
<path fill="none" stroke="black" d="M632,-1061.49C632,-1052.31 632,-1042.62 632,-1033.66"/>
<polygon fill="black" stroke="black" points="635.5,-1033.54 632,-1023.54 628.5,-1033.54 635.5,-1033.54"/>
</g>
<!-- Node0x40418a80 -->
<g id="node4" class="node"><title>Node0x40418a80</title>
<polygon fill="none" stroke="black" points="0,-820.5 0,-918.5 716,-918.5 716,-820.5 0,-820.5"/>
<text text-anchor="start" x="8" y="-903.3" font-family="Times,serif" font-size="14.00">0x1d169080:</text>
<text text-anchor="start" x="8" y="-888.3" font-family="Times,serif" font-size="14.00"> v4 = g29</text>
<text text-anchor="start" x="8" y="-873.3" font-family="Times,serif" font-size="14.00"> g38 = v4</text>
<text text-anchor="start" x="8" y="-858.3" font-family="Times,serif" font-size="14.00"> g39 = g36</text>
<text text-anchor="start" x="8" y="-843.3" font-family="Times,serif" font-size="14.00"> *(IntToPtrCastExpr&lt;ptr&gt;((v4 + 56))) = (1 if (*(IntToPtrCastExpr&lt;ptr&gt;((v4 + 22))) == 0) else 5)</text>
<text text-anchor="start" x="8" y="-828.3" font-family="Times,serif" font-size="14.00"> *(IntToPtrCastExpr&lt;ptr&gt;((g29 + 60))) = &#45;1</text>
</g>
<!-- Node0x27157d10&#45;&gt;Node0x40418a80 -->
<g id="edge3" class="edge"><title>Node0x27157d10&#45;&gt;Node0x40418a80</title>
<path fill="none" stroke="black" d="M578.193,-971.355C547.95,-957.502 509,-939.663 472.289,-922.848"/>
<polygon fill="black" stroke="black" points="473.56,-919.58 463.011,-918.598 470.645,-925.944 473.56,-919.58"/>
<text text-anchor="middle" x="565" y="-940.8" font-family="Times,serif" font-size="14.00">g30 &lt; 0</text>
</g>
<!-- Node0xd3e5910 -->
<g id="node5" class="node"><title>Node0xd3e5910</title>
<polygon fill="none" stroke="black" points="734.5,-820.5 734.5,-918.5 1081.5,-918.5 1081.5,-820.5 734.5,-820.5"/>
<text text-anchor="start" x="742.5" y="-903.3" font-family="Times,serif" font-size="14.00">0x1d168ed0:</text>
<text text-anchor="start" x="742.5" y="-888.3" font-family="Times,serif" font-size="14.00"> v5 = g29</text>
<text text-anchor="start" x="742.5" y="-873.3" font-family="Times,serif" font-size="14.00"> g38 = v5</text>
<text text-anchor="start" x="742.5" y="-858.3" font-family="Times,serif" font-size="14.00"> g39 = g36</text>
<text text-anchor="start" x="742.5" y="-843.3" font-family="Times,serif" font-size="14.00"> *(IntToPtrCastExpr&lt;ptr&gt;((v5 + 56))) = 4</text>
<text text-anchor="start" x="742.5" y="-828.3" font-family="Times,serif" font-size="14.00"> *(IntToPtrCastExpr&lt;ptr&gt;((g29 + 60))) = g30</text>
</g>
<!-- Node0x27157d10&#45;&gt;Node0xd3e5910 -->
<g id="edge4" class="edge"><title>Node0x27157d10&#45;&gt;Node0xd3e5910</title>
<path fill="none" stroke="black" d="M685.543,-971.654C716.108,-957.755 755.654,-939.773 792.909,-922.833"/>
<polygon fill="black" stroke="black" points="794.67,-925.877 802.324,-918.552 791.772,-919.505 794.67,-925.877"/>
<text text-anchor="middle" x="797" y="-940.8" font-family="Times,serif" font-size="14.00">g30 &gt;= 0</text>
</g>
<!-- Node0x2715ae40 -->
<g id="node6" class="node"><title>Node0x2715ae40</title>
<polygon fill="none" stroke="black" points="529,-624.5 529,-782.5 867,-782.5 867,-624.5 529,-624.5"/>
<text text-anchor="start" x="537" y="-767.3" font-family="Times,serif" font-size="14.00">0x7db92b0:</text>
<text text-anchor="start" x="537" y="-752.3" font-family="Times,serif" font-size="14.00"> g29 = *(IntToPtrCastExpr&lt;ptr&gt;((g38 + 8)))</text>
<text text-anchor="start" x="537" y="-737.3" font-family="Times,serif" font-size="14.00"> function_6604()</text>
<text text-anchor="start" x="537" y="-722.3" font-family="Times,serif" font-size="14.00"> v6 = g38</text>
<text text-anchor="start" x="537" y="-707.3" font-family="Times,serif" font-size="14.00"> v7 = *(IntToPtrCastExpr&lt;ptr&gt;((v6 + 25)))</text>
<text text-anchor="start" x="537" y="-692.3" font-family="Times,serif" font-size="14.00"> g29 = v6</text>
<text text-anchor="start" x="537" y="-677.3" font-family="Times,serif" font-size="14.00"> g8 = False</text>
<text text-anchor="start" x="537" y="-662.3" font-family="Times,serif" font-size="14.00"> g7 = (v7 &lt; 0)</text>
<text text-anchor="start" x="537" y="-647.3" font-family="Times,serif" font-size="14.00"> g9 = (v7 == 0)</text>
<text text-anchor="start" x="537" y="-632.3" font-family="Times,serif" font-size="14.00"> v8</text>
</g>
<!-- Node0x40418a80&#45;&gt;Node0x2715ae40 -->
<g id="edge5" class="edge"><title>Node0x40418a80&#45;&gt;Node0x2715ae40</title>
<path fill="none" stroke="black" d="M457.714,-820.403C479.519,-809.885 503.197,-798.464 526.904,-787.029"/>
<polygon fill="black" stroke="black" points="528.501,-790.144 535.987,-782.647 525.459,-783.84 528.501,-790.144"/>
</g>
<!-- Node0xd3e5910&#45;&gt;Node0x2715ae40 -->
<g id="edge6" class="edge"><title>Node0xd3e5910&#45;&gt;Node0x2715ae40</title>
<path fill="none" stroke="black" d="M846.412,-820.403C833.766,-810.527 820.1,-799.854 806.357,-789.122"/>
<polygon fill="black" stroke="black" points="808.3,-786.198 798.264,-782.801 803.991,-791.715 808.3,-786.198"/>
</g>
<!-- Node0x4041be20 -->
<g id="node7" class="node"><title>Node0x4041be20</title>
<polygon fill="none" stroke="black" points="646,-533.5 646,-586.5 750,-586.5 750,-533.5 646,-533.5"/>
<text text-anchor="start" x="654" y="-571.3" font-family="Times,serif" font-size="14.00">0x7dbc710:</text>
<text text-anchor="start" x="654" y="-556.3" font-family="Times,serif" font-size="14.00"> if (v7 != 0):</text>
<text text-anchor="start" x="654" y="-541.3" font-family="Times,serif" font-size="14.00"> else:</text>
</g>
<!-- Node0x2715ae40&#45;&gt;Node0x4041be20 -->
<g id="edge7" class="edge"><title>Node0x2715ae40&#45;&gt;Node0x4041be20</title>
<path fill="none" stroke="black" d="M698,-624.3C698,-614.773 698,-605.428 698,-596.966"/>
<polygon fill="black" stroke="black" points="701.5,-596.773 698,-586.773 694.5,-596.773 701.5,-596.773"/>
</g>
<!-- Node0x151a66b0 -->
<g id="node8" class="node"><title>Node0x151a66b0</title>
<polygon fill="none" stroke="black" points="337,-368.5 337,-481.5 857,-481.5 857,-368.5 337,-368.5"/>
<text text-anchor="start" x="345" y="-466.3" font-family="Times,serif" font-size="14.00">0x7dba220:</text>
<text text-anchor="start" x="345" y="-451.3" font-family="Times,serif" font-size="14.00"> g37 = 0</text>
<text text-anchor="start" x="345" y="-436.3" font-family="Times,serif" font-size="14.00"> *(IntToPtrCastExpr&lt;ptr&gt;((v6 + 28))) = 0</text>
<text text-anchor="start" x="345" y="-421.3" font-family="Times,serif" font-size="14.00"> *(IntToPtrCastExpr&lt;ptr&gt;((g38 + 32))) = g37</text>
<text text-anchor="start" x="345" y="-406.3" font-family="Times,serif" font-size="14.00"> *(IntToPtrCastExpr&lt;ptr&gt;((g38 + 36))) = g37</text>
<text text-anchor="start" x="345" y="-391.3" font-family="Times,serif" font-size="14.00"> *(IntToPtrCastExpr&lt;ptr&gt;((g38 + 25))) = TruncCastExpr&lt;int8&gt;(g37)</text>
<text text-anchor="start" x="345" y="-376.3" font-family="Times,serif" font-size="14.00"> v8 = g38</text>
</g>
<!-- Node0x4041be20&#45;&gt;Node0x151a66b0 -->
<g id="edge8" class="edge"><title>Node0x4041be20&#45;&gt;Node0x151a66b0</title>
<path fill="none" stroke="black" d="M678.526,-533.356C669.007,-520.822 657.088,-505.125 645.325,-489.636"/>
<polygon fill="black" stroke="black" points="648.037,-487.42 639.202,-481.573 642.463,-491.654 648.037,-487.42"/>
<text text-anchor="middle" x="690" y="-503.8" font-family="Times,serif" font-size="14.00">v7 != 0</text>
</g>
<!-- Node0x151a7eb0 -->
<g id="node9" class="node"><title>Node0x151a7eb0</title>
<polygon fill="none" stroke="black" points="875.5,-406 875.5,-444 976.5,-444 976.5,-406 875.5,-406"/>
<text text-anchor="start" x="883.5" y="-428.8" font-family="Times,serif" font-size="14.00">0x7dbc840:</text>
<text text-anchor="start" x="883.5" y="-413.8" font-family="Times,serif" font-size="14.00"> v8 = v6</text>
</g>
<!-- Node0x4041be20&#45;&gt;Node0x151a7eb0 -->
<g id="edge9" class="edge"><title>Node0x4041be20&#45;&gt;Node0x151a7eb0</title>
<path fill="none" stroke="black" d="M750.24,-540.116C784.602,-526.502 829.751,-506.289 866,-482 879.05,-473.256 891.987,-461.658 902.488,-451.286"/>
<polygon fill="black" stroke="black" points="905.138,-453.584 909.671,-444.008 900.156,-448.666 905.138,-453.584"/>
<text text-anchor="middle" x="865" y="-503.8" font-family="Times,serif" font-size="14.00">v7 == 0</text>
</g>
<!-- Node0x151a6d10 -->
<g id="node10" class="node"><title>Node0x151a6d10</title>
<polygon fill="none" stroke="black" points="539,-97.5 539,-330.5 1059,-330.5 1059,-97.5 539,-97.5"/>
<text text-anchor="start" x="547" y="-315.3" font-family="Times,serif" font-size="14.00">0x7dbce70:</text>
<text text-anchor="start" x="547" y="-300.3" font-family="Times,serif" font-size="14.00"> g37 = *(IntToPtrCastExpr&lt;ptr&gt;((v8 + 28)))</text>
<text text-anchor="start" x="547" y="-285.3" font-family="Times,serif" font-size="14.00"> *(IntToPtrCastExpr&lt;ptr&gt;((v8 + 64))) = g39</text>
<text text-anchor="start" x="547" y="-270.3" font-family="Times,serif" font-size="14.00"> v9 = (g37 | 1)</text>
<text text-anchor="start" x="547" y="-255.3" font-family="Times,serif" font-size="14.00"> g37 = v9</text>
<text text-anchor="start" x="547" y="-240.3" font-family="Times,serif" font-size="14.00"> *(IntToPtrCastExpr&lt;ptr&gt;((g38 + 28))) = v9</text>
<text text-anchor="start" x="547" y="-225.3" font-family="Times,serif" font-size="14.00"> *(IntToPtrCastExpr&lt;ptr&gt;((g38 + 24))) = TruncCastExpr&lt;int8&gt;(g40)</text>
<text text-anchor="start" x="547" y="-210.3" font-family="Times,serif" font-size="14.00"> function_1186c()</text>
<text text-anchor="start" x="547" y="-195.3" font-family="Times,serif" font-size="14.00"> g29 = g38</text>
<text text-anchor="start" x="547" y="-180.3" font-family="Times,serif" font-size="14.00"> g38 = v1</text>
<text text-anchor="start" x="547" y="-165.3" font-family="Times,serif" font-size="14.00"> g39 = v2</text>
<text text-anchor="start" x="547" y="-150.3" font-family="Times,serif" font-size="14.00"> g40 = v3</text>
<text text-anchor="start" x="547" y="-135.3" font-family="Times,serif" font-size="14.00"> v10</text>
<text text-anchor="start" x="547" y="-120.3" font-family="Times,serif" font-size="14.00"> g34 = v10</text>
<text text-anchor="start" x="547" y="-105.3" font-family="Times,serif" font-size="14.00"> function_1199c()</text>
</g>
<!-- Node0x151a66b0&#45;&gt;Node0x151a6d10 -->
<g id="edge10" class="edge"><title>Node0x151a66b0&#45;&gt;Node0x151a6d10</title>
<path fill="none" stroke="black" d="M650.867,-368.266C660.078,-358.736 669.963,-348.508 680.097,-338.023"/>
<polygon fill="black" stroke="black" points="682.714,-340.352 687.147,-330.729 677.681,-335.487 682.714,-340.352"/>
</g>
<!-- Node0x151a7eb0&#45;&gt;Node0x151a6d10 -->
<g id="edge11" class="edge"><title>Node0x151a7eb0&#45;&gt;Node0x151a6d10</title>
<path fill="none" stroke="black" d="M914.952,-405.818C905.313,-389.956 890.405,-365.422 874.453,-339.17"/>
<polygon fill="black" stroke="black" points="877.426,-337.323 869.242,-330.595 871.444,-340.958 877.426,-337.323"/>
</g>
<!-- Node0x1c72b060 -->
<g id="node11" class="node"><title>Node0x1c72b060</title>
<polygon fill="none" stroke="black" points="772,-23.5 772,-59.5 826,-59.5 826,-23.5 772,-23.5"/>
<text text-anchor="start" x="780" y="-37.8" font-family="Times,serif" font-size="14.00">exit:</text>
</g>
<!-- Node0x151a6d10&#45;&gt;Node0x1c72b060 -->
<g id="edge12" class="edge"><title>Node0x151a6d10&#45;&gt;Node0x1c72b060</title>
<path fill="none" stroke="black" d="M799,-97.3858C799,-87.4233 799,-78.0972 799,-70.0599"/>
<polygon fill="black" stroke="black" points="802.5,-69.9601 799,-59.9601 795.5,-69.9602 802.5,-69.9601"/>
</g>
</g>
</svg>
