<?xml version="1.0" encoding="UTF-8" standalone="no"?>
<!DOCTYPE svg PUBLIC "-//W3C//DTD SVG 1.1//EN"
 "http://www.w3.org/Graphics/SVG/1.1/DTD/svg11.dtd">
<!-- Generated by graphviz version 2.38.0 (20140413.2041)
 -->
<!-- Title: Control&#45;flow graph for function &#39;function_9028()&#39;. Pages: 1 -->
<svg width="557pt" height="366pt"
 viewBox="0.00 0.00 557.00 366.00" xmlns="http://www.w3.org/2000/svg" xmlns:xlink="http://www.w3.org/1999/xlink">
<g id="graph0" class="graph" transform="scale(1 1) rotate(0) translate(4 362)">
<title>Control&#45;flow graph for function &#39;function_9028()&#39;.</title>
<polygon fill="white" stroke="none" points="-4,4 -4,-362 553,-362 553,4 -4,4"/>
<text text-anchor="middle" x="274.5" y="-7.8" font-family="Times,serif" font-size="14.00">Control&#45;flow graph for function &#39;function_9028()&#39;.</text>
<!-- Node0x30e5cf70 -->
<g id="node1" class="node"><title>Node0x30e5cf70</title>
<polygon fill="none" stroke="black" points="245,-321.5 245,-357.5 304,-357.5 304,-321.5 245,-321.5"/>
<text text-anchor="start" x="253" y="-335.8" font-family="Times,serif" font-size="14.00">entry:</text>
</g>
<!-- Node0x17442f90 -->
<g id="node2" class="node"><title>Node0x17442f90</title>
<polygon fill="none" stroke="black" points="0,-96.5 0,-284.5 549,-284.5 549,-96.5 0,-96.5"/>
<text text-anchor="start" x="8" y="-269.3" font-family="Times,serif" font-size="14.00">0x1ec43f10:</text>
<text text-anchor="start" x="8" y="-254.3" font-family="Times,serif" font-size="14.00"> v1 = g38</text>
<text text-anchor="start" x="8" y="-239.3" font-family="Times,serif" font-size="14.00"> g37 = 0</text>
<text text-anchor="start" x="8" y="-224.3" font-family="Times,serif" font-size="14.00"> *(IntToPtrCastExpr&lt;ptr&gt;((g36 + g29))) = 0</text>
<text text-anchor="start" x="8" y="-209.3" font-family="Times,serif" font-size="14.00"> v2 = g36</text>
<text text-anchor="start" x="8" y="-194.3" font-family="Times,serif" font-size="14.00"> g38 = v2</text>
<text text-anchor="start" x="8" y="-179.3" font-family="Times,serif" font-size="14.00"> memcpy(IntToPtrCastExpr&lt;ptr&gt;(g29), IntToPtrCastExpr&lt;ptr&gt;(g30), v2)</text>
<text text-anchor="start" x="8" y="-164.3" font-family="Times,serif" font-size="14.00"> g29 = (g38 + 1)</text>
<text text-anchor="start" x="8" y="-149.3" font-family="Times,serif" font-size="14.00"> g38 = v1</text>
<text text-anchor="start" x="8" y="-134.3" font-family="Times,serif" font-size="14.00"> v3</text>
<text text-anchor="start" x="8" y="-119.3" font-family="Times,serif" font-size="14.00"> g34 = v3</text>
<text text-anchor="start" x="8" y="-104.3" font-family="Times,serif" font-size="14.00"> IntToPtrCastExpr&lt;ptr&gt;(g35)()</text>
</g>
<!-- Node0x30e5cf70&#45;&gt;Node0x17442f90 -->
<g id="edge1" class="edge"><title>Node0x30e5cf70&#45;&gt;Node0x17442f90</title>
<path fill="none" stroke="black" d="M274.5,-321.35C274.5,-314.079 274.5,-304.97 274.5,-294.967"/>
<polygon fill="black" stroke="black" points="278,-294.701 274.5,-284.702 271,-294.702 278,-294.701"/>
</g>
<!-- Node0x1ee30b40 -->
<g id="node3" class="node"><title>Node0x1ee30b40</title>
<polygon fill="none" stroke="black" points="247.5,-23.5 247.5,-59.5 301.5,-59.5 301.5,-23.5 247.5,-23.5"/>
<text text-anchor="start" x="255.5" y="-37.8" font-family="Times,serif" font-size="14.00">exit:</text>
</g>
<!-- Node0x17442f90&#45;&gt;Node0x1ee30b40 -->
<g id="edge2" class="edge"><title>Node0x17442f90&#45;&gt;Node0x1ee30b40</title>
<path fill="none" stroke="black" d="M274.5,-96.4027C274.5,-86.9531 274.5,-77.9697 274.5,-70.142"/>
<polygon fill="black" stroke="black" points="278,-69.9174 274.5,-59.9174 271,-69.9174 278,-69.9174"/>
</g>
</g>
</svg>
