<?xml version="1.0" encoding="UTF-8" standalone="no"?>
<!DOCTYPE svg PUBLIC "-//W3C//DTD SVG 1.1//EN"
 "http://www.w3.org/Graphics/SVG/1.1/DTD/svg11.dtd">
<!-- Generated by graphviz version 2.38.0 (20140413.2041)
 -->
<!-- Title: Control&#45;flow graph for function &#39;function_23a72()&#39;. Pages: 1 -->
<svg width="770pt" height="1498pt"
 viewBox="0.00 0.00 769.50 1498.00" xmlns="http://www.w3.org/2000/svg" xmlns:xlink="http://www.w3.org/1999/xlink">
<g id="graph0" class="graph" transform="scale(1 1) rotate(0) translate(4 1494)">
<title>Control&#45;flow graph for function &#39;function_23a72()&#39;.</title>
<polygon fill="white" stroke="none" points="-4,4 -4,-1494 765.5,-1494 765.5,4 -4,4"/>
<text text-anchor="middle" x="380.75" y="-7.8" font-family="Times,serif" font-size="14.00">Control&#45;flow graph for function &#39;function_23a72()&#39;.</text>
<!-- Node0x1b5f6690 -->
<g id="node1" class="node"><title>Node0x1b5f6690</title>
<polygon fill="none" stroke="black" points="195,-1453.5 195,-1489.5 254,-1489.5 254,-1453.5 195,-1453.5"/>
<text text-anchor="start" x="203" y="-1467.8" font-family="Times,serif" font-size="14.00">entry:</text>
</g>
<!-- Node0x1b5f52c0 -->
<g id="node2" class="node"><title>Node0x1b5f52c0</title>
<polygon fill="none" stroke="black" points="81,-1227.5 81,-1415.5 368,-1415.5 368,-1227.5 81,-1227.5"/>
<text text-anchor="start" x="89" y="-1400.3" font-family="Times,serif" font-size="14.00">0x108a5cf0:</text>
<text text-anchor="start" x="89" y="-1385.3" font-family="Times,serif" font-size="14.00"> v1 = (g30 &#45; g38)</text>
<text text-anchor="start" x="89" y="-1370.3" font-family="Times,serif" font-size="14.00"> g38 = v1</text>
<text text-anchor="start" x="89" y="-1355.3" font-family="Times,serif" font-size="14.00"> v2 = g42</text>
<text text-anchor="start" x="89" y="-1340.3" font-family="Times,serif" font-size="14.00"> v3 = (v1 / v2)</text>
<text text-anchor="start" x="89" y="-1325.3" font-family="Times,serif" font-size="14.00"> g30 = v2</text>
<text text-anchor="start" x="89" y="-1310.3" font-family="Times,serif" font-size="14.00"> g39 = v3</text>
<text text-anchor="start" x="89" y="-1295.3" font-family="Times,serif" font-size="14.00"> g41 = (g32 * v3)</text>
<text text-anchor="start" x="89" y="-1280.3" font-family="Times,serif" font-size="14.00"> unknown_228ca()</text>
<text text-anchor="start" x="89" y="-1265.3" font-family="Times,serif" font-size="14.00"> v4 = ((65536 * g30) | (g43 % 65536))</text>
<text text-anchor="start" x="89" y="-1250.3" font-family="Times,serif" font-size="14.00"> v5 = g41</text>
<text text-anchor="start" x="89" y="-1235.3" font-family="Times,serif" font-size="14.00"> v6</text>
</g>
<!-- Node0x1b5f6690&#45;&gt;Node0x1b5f52c0 -->
<g id="edge1" class="edge"><title>Node0x1b5f6690&#45;&gt;Node0x1b5f52c0</title>
<path fill="none" stroke="black" d="M224.5,-1453.23C224.5,-1445.72 224.5,-1436.26 224.5,-1425.88"/>
<polygon fill="black" stroke="black" points="228,-1425.67 224.5,-1415.67 221,-1425.67 228,-1425.67"/>
</g>
<!-- Node0x1b5f5cc0 -->
<g id="node3" class="node"><title>Node0x1b5f5cc0</title>
<polygon fill="none" stroke="black" points="72,-1151.5 72,-1189.5 377,-1189.5 377,-1151.5 72,-1151.5"/>
<text text-anchor="start" x="80" y="-1174.3" font-family="Times,serif" font-size="14.00">0xa3fab90:</text>
<text text-anchor="start" x="80" y="-1159.3" font-family="Times,serif" font-size="14.00"> if ((v5 == v4) or (((&#45;2 &#45; v4) + v5) &gt; v5)):</text>
</g>
<!-- Node0x1b5f52c0&#45;&gt;Node0x1b5f5cc0 -->
<g id="edge2" class="edge"><title>Node0x1b5f52c0&#45;&gt;Node0x1b5f5cc0</title>
<path fill="none" stroke="black" d="M224.5,-1227.41C224.5,-1217.43 224.5,-1207.92 224.5,-1199.67"/>
<polygon fill="black" stroke="black" points="228,-1199.62 224.5,-1189.62 221,-1199.62 228,-1199.62"/>
</g>
<!-- Node0x19b2ba00 -->
<g id="node4" class="node"><title>Node0x19b2ba00</title>
<polygon fill="none" stroke="black" points="0,-809.5 0,-982.5 209,-982.5 209,-809.5 0,-809.5"/>
<text text-anchor="start" x="8" y="-967.3" font-family="Times,serif" font-size="14.00">0xa402ba0:</text>
<text text-anchor="start" x="8" y="-952.3" font-family="Times,serif" font-size="14.00"> v6 = g31</text>
<text text-anchor="start" x="8" y="-937.3" font-family="Times,serif" font-size="14.00"> g30 = v6</text>
<text text-anchor="start" x="8" y="-922.3" font-family="Times,serif" font-size="14.00"> g8 = False</text>
<text text-anchor="start" x="8" y="-907.3" font-family="Times,serif" font-size="14.00"> g6 = False</text>
<text text-anchor="start" x="8" y="-892.3" font-family="Times,serif" font-size="14.00"> g29 = ((65536 * v6) | g39)</text>
<text text-anchor="start" x="8" y="-877.3" font-family="Times,serif" font-size="14.00"> g37 = 0</text>
<text text-anchor="start" x="8" y="-862.3" font-family="Times,serif" font-size="14.00"> g7 = False</text>
<text text-anchor="start" x="8" y="-847.3" font-family="Times,serif" font-size="14.00"> g9 = True</text>
<text text-anchor="start" x="8" y="-832.3" font-family="Times,serif" font-size="14.00"> function_23abe()</text>
<text text-anchor="start" x="8" y="-817.3" font-family="Times,serif" font-size="14.00"> return</text>
</g>
<!-- Node0x1b5f5cc0&#45;&gt;Node0x19b2ba00 -->
<g id="edge3" class="edge"><title>Node0x1b5f5cc0&#45;&gt;Node0x19b2ba00</title>
<path fill="none" stroke="black" d="M119.283,-1151.47C102.186,-1146.46 88.1934,-1140.34 82.5,-1133 52.1306,-1093.84 55.2044,-1039.29 66.9764,-992.503"/>
<polygon fill="black" stroke="black" points="70.4103,-993.21 69.6115,-982.646 63.6477,-991.402 70.4103,-993.21"/>
<text text-anchor="middle" x="210" y="-1121.8" font-family="Times,serif" font-size="14.00">(v5 == v4) or (((&#45;2 &#45; v4) + v5) &gt; v5)</text>
</g>
<!-- Node0x19b27a60 -->
<g id="node5" class="node"><title>Node0x19b27a60</title>
<polygon fill="none" stroke="black" points="300,-1001.5 300,-1099.5 425,-1099.5 425,-1001.5 300,-1001.5"/>
<text text-anchor="start" x="308" y="-1084.3" font-family="Times,serif" font-size="14.00">0x33407ca0:</text>
<text text-anchor="start" x="308" y="-1069.3" font-family="Times,serif" font-size="14.00"> v7 = g40</text>
<text text-anchor="start" x="308" y="-1054.3" font-family="Times,serif" font-size="14.00"> v8 = (v7 + v4)</text>
<text text-anchor="start" x="308" y="-1039.3" font-family="Times,serif" font-size="14.00"> v9 = g39</text>
<text text-anchor="start" x="308" y="-1024.3" font-family="Times,serif" font-size="14.00"> v10 = (v9 &#45; 1)</text>
<text text-anchor="start" x="308" y="-1009.3" font-family="Times,serif" font-size="14.00"> g39 = v10</text>
</g>
<!-- Node0x1b5f5cc0&#45;&gt;Node0x19b27a60 -->
<g id="edge4" class="edge"><title>Node0x1b5f5cc0&#45;&gt;Node0x19b27a60</title>
<path fill="none" stroke="black" d="M315.9,-1151.46C325.416,-1146.68 334.242,-1140.63 341.5,-1133 347.859,-1126.31 352.359,-1117.97 355.53,-1109.18"/>
<polygon fill="black" stroke="black" points="358.901,-1110.13 358.474,-1099.54 352.206,-1108.08 358.901,-1110.13"/>
<text text-anchor="middle" x="488.5" y="-1121.8" font-family="Times,serif" font-size="14.00">(v5 != v4) and (((&#45;2 &#45; v4) + v5) &lt;= v5)</text>
</g>
<!-- Node0x19b25660 -->
<g id="node6" class="node"><title>Node0x19b25660</title>
<polygon fill="none" stroke="black" points="132.5,-23.5 132.5,-59.5 186.5,-59.5 186.5,-23.5 132.5,-23.5"/>
<text text-anchor="start" x="140.5" y="-37.8" font-family="Times,serif" font-size="14.00">exit:</text>
</g>
<!-- Node0x19b2ba00&#45;&gt;Node0x19b25660 -->
<g id="edge5" class="edge"><title>Node0x19b2ba00&#45;&gt;Node0x19b25660</title>
<path fill="none" stroke="black" d="M110.873,-809.406C112.35,-783.143 113.5,-754.146 113.5,-727.5 113.5,-727.5 113.5,-727.5 113.5,-175.5 113.5,-136.767 131.14,-95.0022 144.573,-68.8141"/>
<polygon fill="black" stroke="black" points="147.704,-70.3803 149.291,-59.905 141.518,-67.1043 147.704,-70.3803"/>
</g>
<!-- Node0x224008b0 -->
<g id="node7" class="node"><title>Node0x224008b0</title>
<polygon fill="none" stroke="black" points="303.5,-752.5 303.5,-790.5 409.5,-790.5 409.5,-752.5 303.5,-752.5"/>
<text text-anchor="start" x="311.5" y="-775.3" font-family="Times,serif" font-size="14.00">0xa4015e0:</text>
<text text-anchor="start" x="311.5" y="-760.3" font-family="Times,serif" font-size="14.00"> if (v7 &gt; v8):</text>
</g>
<!-- Node0x19b27a60&#45;&gt;Node0x224008b0 -->
<g id="edge6" class="edge"><title>Node0x19b27a60&#45;&gt;Node0x224008b0</title>
<path fill="none" stroke="black" d="M361.455,-1001.25C360.2,-943.298 358.135,-848.005 357.113,-800.808"/>
<polygon fill="black" stroke="black" points="360.61,-800.617 356.894,-790.695 353.612,-800.768 360.61,-800.617"/>
</g>
<!-- Node0x19b2bf60 -->
<g id="node8" class="node"><title>Node0x19b2bf60</title>
<polygon fill="none" stroke="black" points="131,-470.5 131,-643.5 340,-643.5 340,-470.5 131,-470.5"/>
<text text-anchor="start" x="139" y="-628.3" font-family="Times,serif" font-size="14.00">0xa4018d0:</text>
<text text-anchor="start" x="139" y="-613.3" font-family="Times,serif" font-size="14.00"> v6 = g31</text>
<text text-anchor="start" x="139" y="-598.3" font-family="Times,serif" font-size="14.00"> g30 = v6</text>
<text text-anchor="start" x="139" y="-583.3" font-family="Times,serif" font-size="14.00"> g8 = False</text>
<text text-anchor="start" x="139" y="-568.3" font-family="Times,serif" font-size="14.00"> g6 = False</text>
<text text-anchor="start" x="139" y="-553.3" font-family="Times,serif" font-size="14.00"> g29 = ((65536 * v6) | v10)</text>
<text text-anchor="start" x="139" y="-538.3" font-family="Times,serif" font-size="14.00"> g37 = 0</text>
<text text-anchor="start" x="139" y="-523.3" font-family="Times,serif" font-size="14.00"> g7 = False</text>
<text text-anchor="start" x="139" y="-508.3" font-family="Times,serif" font-size="14.00"> g9 = True</text>
<text text-anchor="start" x="139" y="-493.3" font-family="Times,serif" font-size="14.00"> function_23abe()</text>
<text text-anchor="start" x="139" y="-478.3" font-family="Times,serif" font-size="14.00"> return</text>
</g>
<!-- Node0x224008b0&#45;&gt;Node0x19b2bf60 -->
<g id="edge7" class="edge"><title>Node0x224008b0&#45;&gt;Node0x19b2bf60</title>
<path fill="none" stroke="black" d="M317.855,-752.436C309.971,-747.358 302.319,-741.211 296.5,-734 277.789,-710.812 264.645,-681.517 255.484,-653.515"/>
<polygon fill="black" stroke="black" points="258.733,-652.176 252.407,-643.676 252.052,-654.265 258.733,-652.176"/>
<text text-anchor="middle" x="324.5" y="-722.8" font-family="Times,serif" font-size="14.00">v7 &gt; v8</text>
</g>
<!-- Node0x1b5f64c0 -->
<g id="node9" class="node"><title>Node0x1b5f64c0</title>
<polygon fill="none" stroke="black" points="301.5,-662.5 301.5,-700.5 411.5,-700.5 411.5,-662.5 301.5,-662.5"/>
<text text-anchor="start" x="309.5" y="-685.3" font-family="Times,serif" font-size="14.00">0x14d14bd0:</text>
<text text-anchor="start" x="309.5" y="-670.3" font-family="Times,serif" font-size="14.00"> v11</text>
</g>
<!-- Node0x224008b0&#45;&gt;Node0x1b5f64c0 -->
<g id="edge8" class="edge"><title>Node0x224008b0&#45;&gt;Node0x1b5f64c0</title>
<path fill="none" stroke="black" d="M356.5,-752.266C356.5,-740.349 356.5,-724.538 356.5,-710.982"/>
<polygon fill="black" stroke="black" points="360,-710.71 356.5,-700.71 353,-710.71 360,-710.71"/>
<text text-anchor="middle" x="390.5" y="-722.8" font-family="Times,serif" font-size="14.00">v7 &lt;= v8</text>
</g>
<!-- Node0x19b2bf60&#45;&gt;Node0x19b25660 -->
<g id="edge9" class="edge"><title>Node0x19b2bf60&#45;&gt;Node0x19b25660</title>
<path fill="none" stroke="black" d="M183.756,-470.317C170.299,-440.703 159.5,-406.62 159.5,-373.5 159.5,-373.5 159.5,-373.5 159.5,-175.5 159.5,-138.97 159.5,-96.7973 159.5,-69.9064"/>
<polygon fill="black" stroke="black" points="163,-69.7165 159.5,-59.7166 156,-69.7166 163,-69.7165"/>
</g>
<!-- Node0x19b24260 -->
<g id="node10" class="node"><title>Node0x19b24260</title>
<polygon fill="none" stroke="black" points="195.5,-398.5 195.5,-451.5 517.5,-451.5 517.5,-398.5 195.5,-398.5"/>
<text text-anchor="start" x="203.5" y="-436.3" font-family="Times,serif" font-size="14.00">0xa400010:</text>
<text text-anchor="start" x="203.5" y="-421.3" font-family="Times,serif" font-size="14.00"> if ((v5 != v8) and (((&#45;2 &#45; v8) + v5) &lt;= v5)):</text>
<text text-anchor="start" x="203.5" y="-406.3" font-family="Times,serif" font-size="14.00"> else:</text>
</g>
<!-- Node0x1b5f64c0&#45;&gt;Node0x19b24260 -->
<g id="edge10" class="edge"><title>Node0x1b5f64c0&#45;&gt;Node0x19b24260</title>
<path fill="none" stroke="black" d="M356.5,-662.197C356.5,-620.331 356.5,-516.964 356.5,-461.891"/>
<polygon fill="black" stroke="black" points="360,-461.873 356.5,-451.874 353,-461.874 360,-461.873"/>
</g>
<!-- Node0x19b2b510 -->
<g id="node11" class="node"><title>Node0x19b2b510</title>
<polygon fill="none" stroke="black" points="202,-293.5 202,-346.5 321,-346.5 321,-293.5 202,-293.5"/>
<text text-anchor="start" x="210" y="-331.3" font-family="Times,serif" font-size="14.00">0xa3feb20:</text>
<text text-anchor="start" x="210" y="-316.3" font-family="Times,serif" font-size="14.00"> v11 = (v9 &#45; 2)</text>
<text text-anchor="start" x="210" y="-301.3" font-family="Times,serif" font-size="14.00"> g39 = v11</text>
</g>
<!-- Node0x19b24260&#45;&gt;Node0x19b2b510 -->
<g id="edge11" class="edge"><title>Node0x19b24260&#45;&gt;Node0x19b2b510</title>
<path fill="none" stroke="black" d="M249.376,-398.437C242.125,-393.355 235.664,-387.274 230.5,-380 225.031,-372.297 226.203,-363.507 230.337,-355.107"/>
<polygon fill="black" stroke="black" points="233.334,-356.913 235.562,-346.555 227.361,-353.263 233.334,-356.913"/>
<text text-anchor="middle" x="366.5" y="-368.8" font-family="Times,serif" font-size="14.00">(v5 != v8) and (((&#45;2 &#45; v8) + v5) &lt;= v5)</text>
</g>
<!-- Node0x19b2c7a0 -->
<g id="node12" class="node"><title>Node0x19b2c7a0</title>
<polygon fill="none" stroke="black" points="403,-301 403,-339 504,-339 504,-301 403,-301"/>
<text text-anchor="start" x="411" y="-323.8" font-family="Times,serif" font-size="14.00">0xa400170:</text>
<text text-anchor="start" x="411" y="-308.8" font-family="Times,serif" font-size="14.00"> v11 = v10</text>
</g>
<!-- Node0x19b24260&#45;&gt;Node0x19b2c7a0 -->
<g id="edge12" class="edge"><title>Node0x19b24260&#45;&gt;Node0x19b2c7a0</title>
<path fill="none" stroke="black" d="M483.347,-398.422C490.614,-393.307 497.132,-387.225 502.5,-380 511.099,-368.427 503.657,-356.089 492.206,-345.703"/>
<polygon fill="black" stroke="black" points="494.189,-342.804 484.23,-339.188 489.76,-348.225 494.189,-342.804"/>
<text text-anchor="middle" x="634" y="-368.8" font-family="Times,serif" font-size="14.00">(v5 == v8) or (((&#45;2 &#45; v8) + v5) &gt; v5)</text>
</g>
<!-- Node0x1b5f6980 -->
<g id="node13" class="node"><title>Node0x1b5f6980</title>
<polygon fill="none" stroke="black" points="188,-97.5 188,-255.5 397,-255.5 397,-97.5 188,-97.5"/>
<text text-anchor="start" x="196" y="-240.3" font-family="Times,serif" font-size="14.00">0xa4002d0:</text>
<text text-anchor="start" x="196" y="-225.3" font-family="Times,serif" font-size="14.00"> v6 = g31</text>
<text text-anchor="start" x="196" y="-210.3" font-family="Times,serif" font-size="14.00"> g30 = v6</text>
<text text-anchor="start" x="196" y="-195.3" font-family="Times,serif" font-size="14.00"> g8 = False</text>
<text text-anchor="start" x="196" y="-180.3" font-family="Times,serif" font-size="14.00"> g6 = False</text>
<text text-anchor="start" x="196" y="-165.3" font-family="Times,serif" font-size="14.00"> g29 = ((65536 * v6) | v11)</text>
<text text-anchor="start" x="196" y="-150.3" font-family="Times,serif" font-size="14.00"> g37 = 0</text>
<text text-anchor="start" x="196" y="-135.3" font-family="Times,serif" font-size="14.00"> g7 = False</text>
<text text-anchor="start" x="196" y="-120.3" font-family="Times,serif" font-size="14.00"> g9 = True</text>
<text text-anchor="start" x="196" y="-105.3" font-family="Times,serif" font-size="14.00"> function_23abe()</text>
</g>
<!-- Node0x19b2b510&#45;&gt;Node0x1b5f6980 -->
<g id="edge13" class="edge"><title>Node0x19b2b510&#45;&gt;Node0x1b5f6980</title>
<path fill="none" stroke="black" d="M267.114,-293.375C268.912,-285.167 271.015,-275.569 273.227,-265.472"/>
<polygon fill="black" stroke="black" points="276.654,-266.185 275.375,-255.667 269.816,-264.687 276.654,-266.185"/>
</g>
<!-- Node0x19b2c7a0&#45;&gt;Node0x1b5f6980 -->
<g id="edge14" class="edge"><title>Node0x19b2c7a0&#45;&gt;Node0x1b5f6980</title>
<path fill="none" stroke="black" d="M432.782,-300.791C421.071,-290.499 405.495,-276.809 388.983,-262.297"/>
<polygon fill="black" stroke="black" points="391.163,-259.554 381.341,-255.581 386.542,-264.812 391.163,-259.554"/>
</g>
<!-- Node0x1b5f6980&#45;&gt;Node0x19b25660 -->
<g id="edge15" class="edge"><title>Node0x1b5f6980&#45;&gt;Node0x19b25660</title>
<path fill="none" stroke="black" d="M214.364,-97.3641C203.343,-86.3433 192.763,-75.7627 183.884,-66.8841"/>
<polygon fill="black" stroke="black" points="186.098,-64.1478 176.552,-59.5516 181.148,-69.0976 186.098,-64.1478"/>
</g>
</g>
</svg>
