<?xml version="1.0" encoding="UTF-8" standalone="no"?>
<!DOCTYPE svg PUBLIC "-//W3C//DTD SVG 1.1//EN"
 "http://www.w3.org/Graphics/SVG/1.1/DTD/svg11.dtd">
<!-- Generated by graphviz version 2.38.0 (20140413.2041)
 -->
<!-- Title: Control&#45;flow graph for function &#39;function_b150()&#39;. Pages: 1 -->
<svg width="478pt" height="321pt"
 viewBox="0.00 0.00 478.00 321.00" xmlns="http://www.w3.org/2000/svg" xmlns:xlink="http://www.w3.org/1999/xlink">
<g id="graph0" class="graph" transform="scale(1 1) rotate(0) translate(4 317)">
<title>Control&#45;flow graph for function &#39;function_b150()&#39;.</title>
<polygon fill="white" stroke="none" points="-4,4 -4,-317 474,-317 474,4 -4,4"/>
<text text-anchor="middle" x="235" y="-7.8" font-family="Times,serif" font-size="14.00">Control&#45;flow graph for function &#39;function_b150()&#39;.</text>
<!-- Node0x3af15e20 -->
<g id="node1" class="node"><title>Node0x3af15e20</title>
<polygon fill="none" stroke="black" points="205.5,-276.5 205.5,-312.5 264.5,-312.5 264.5,-276.5 205.5,-276.5"/>
<text text-anchor="start" x="213.5" y="-290.8" font-family="Times,serif" font-size="14.00">entry:</text>
</g>
<!-- Node0x2231bfb0 -->
<g id="node2" class="node"><title>Node0x2231bfb0</title>
<polygon fill="none" stroke="black" points="0,-96.5 0,-239.5 470,-239.5 470,-96.5 0,-96.5"/>
<text text-anchor="start" x="8" y="-224.3" font-family="Times,serif" font-size="14.00">0x730be00:</text>
<text text-anchor="start" x="8" y="-209.3" font-family="Times,serif" font-size="14.00"> g33 = 0</text>
<text text-anchor="start" x="8" y="-194.3" font-family="Times,serif" font-size="14.00"> g37 = &#45;1</text>
<text text-anchor="start" x="8" y="-179.3" font-family="Times,serif" font-size="14.00"> *(IntToPtrCastExpr&lt;ptr&gt;((g29 + 36))) = &#45;1</text>
<text text-anchor="start" x="8" y="-164.3" font-family="Times,serif" font-size="14.00"> *(IntToPtrCastExpr&lt;ptr&gt;((g29 + 32))) = g33</text>
<text text-anchor="start" x="8" y="-149.3" font-family="Times,serif" font-size="14.00"> *(IntToPtrCastExpr&lt;ptr&gt;((g29 + 40))) = g30</text>
<text text-anchor="start" x="8" y="-134.3" font-family="Times,serif" font-size="14.00"> *(IntToPtrCastExpr&lt;ptr&gt;((g29 + 44))) = g36</text>
<text text-anchor="start" x="8" y="-119.3" font-family="Times,serif" font-size="14.00"> *(IntToPtrCastExpr&lt;ptr&gt;(g29)) = TruncCastExpr&lt;int8&gt;(g33)</text>
<text text-anchor="start" x="8" y="-104.3" font-family="Times,serif" font-size="14.00"> *(IntToPtrCastExpr&lt;ptr&gt;((g29 + 48))) = g33</text>
</g>
<!-- Node0x3af15e20&#45;&gt;Node0x2231bfb0 -->
<g id="edge1" class="edge"><title>Node0x3af15e20&#45;&gt;Node0x2231bfb0</title>
<path fill="none" stroke="black" d="M235,-276.45C235,-269.058 235,-259.82 235,-249.886"/>
<polygon fill="black" stroke="black" points="238.5,-249.761 235,-239.761 231.5,-249.761 238.5,-249.761"/>
</g>
<!-- Node0x314983c0 -->
<g id="node3" class="node"><title>Node0x314983c0</title>
<polygon fill="none" stroke="black" points="208,-23.5 208,-59.5 262,-59.5 262,-23.5 208,-23.5"/>
<text text-anchor="start" x="216" y="-37.8" font-family="Times,serif" font-size="14.00">exit:</text>
</g>
<!-- Node0x2231bfb0&#45;&gt;Node0x314983c0 -->
<g id="edge2" class="edge"><title>Node0x2231bfb0&#45;&gt;Node0x314983c0</title>
<path fill="none" stroke="black" d="M235,-96.3834C235,-87.0259 235,-77.9253 235,-69.9482"/>
<polygon fill="black" stroke="black" points="238.5,-69.848 235,-59.848 231.5,-69.8481 238.5,-69.848"/>
</g>
</g>
</svg>
