<?xml version="1.0" encoding="UTF-8" standalone="no"?>
<!DOCTYPE svg PUBLIC "-//W3C//DTD SVG 1.1//EN"
 "http://www.w3.org/Graphics/SVG/1.1/DTD/svg11.dtd">
<!-- Generated by graphviz version 2.38.0 (20140413.2041)
 -->
<!-- Title: Control&#45;flow graph for function &#39;function_16df0()&#39;. Pages: 1 -->
<svg width="726pt" height="1303pt"
 viewBox="0.00 0.00 725.50 1303.00" xmlns="http://www.w3.org/2000/svg" xmlns:xlink="http://www.w3.org/1999/xlink">
<g id="graph0" class="graph" transform="scale(1 1) rotate(0) translate(4 1299)">
<title>Control&#45;flow graph for function &#39;function_16df0()&#39;.</title>
<polygon fill="white" stroke="none" points="-4,4 -4,-1299 721.5,-1299 721.5,4 -4,4"/>
<text text-anchor="middle" x="358.75" y="-7.8" font-family="Times,serif" font-size="14.00">Control&#45;flow graph for function &#39;function_16df0()&#39;.</text>
<!-- Node0x2adbe2f0 -->
<g id="node1" class="node"><title>Node0x2adbe2f0</title>
<polygon fill="none" stroke="black" points="426,-1258.5 426,-1294.5 485,-1294.5 485,-1258.5 426,-1258.5"/>
<text text-anchor="start" x="434" y="-1272.8" font-family="Times,serif" font-size="14.00">entry:</text>
</g>
<!-- Node0x2adc3210 -->
<g id="node2" class="node"><title>Node0x2adc3210</title>
<polygon fill="none" stroke="black" points="390.5,-1152.5 390.5,-1220.5 520.5,-1220.5 520.5,-1152.5 390.5,-1152.5"/>
<text text-anchor="start" x="398.5" y="-1205.3" font-family="Times,serif" font-size="14.00">0x184ce2c0:</text>
<text text-anchor="start" x="398.5" y="-1190.3" font-family="Times,serif" font-size="14.00"> v1 = g18</text>
<text text-anchor="start" x="398.5" y="-1175.3" font-family="Times,serif" font-size="14.00"> g37 = v1</text>
<text text-anchor="start" x="398.5" y="-1160.3" font-family="Times,serif" font-size="14.00"> g9 = (v1 == 0)</text>
</g>
<!-- Node0x2adbe2f0&#45;&gt;Node0x2adc3210 -->
<g id="edge1" class="edge"><title>Node0x2adbe2f0&#45;&gt;Node0x2adc3210</title>
<path fill="none" stroke="black" d="M455.5,-1258.11C455.5,-1250.16 455.5,-1240.34 455.5,-1230.59"/>
<polygon fill="black" stroke="black" points="459,-1230.52 455.5,-1220.52 452,-1230.52 459,-1230.52"/>
</g>
<!-- Node0x26512580 -->
<g id="node3" class="node"><title>Node0x26512580</title>
<polygon fill="none" stroke="black" points="400.5,-1076.5 400.5,-1114.5 510.5,-1114.5 510.5,-1076.5 400.5,-1076.5"/>
<text text-anchor="start" x="408.5" y="-1099.3" font-family="Times,serif" font-size="14.00">0x8634040:</text>
<text text-anchor="start" x="408.5" y="-1084.3" font-family="Times,serif" font-size="14.00"> if (v1 == 0):</text>
</g>
<!-- Node0x2adc3210&#45;&gt;Node0x26512580 -->
<g id="edge2" class="edge"><title>Node0x2adc3210&#45;&gt;Node0x26512580</title>
<path fill="none" stroke="black" d="M455.5,-1152.36C455.5,-1143.36 455.5,-1133.71 455.5,-1124.99"/>
<polygon fill="black" stroke="black" points="459,-1124.94 455.5,-1114.94 452,-1124.94 459,-1124.94"/>
</g>
<!-- Node0x2e918600 -->
<g id="node4" class="node"><title>Node0x2e918600</title>
<polygon fill="none" stroke="black" points="357.5,-986.5 357.5,-1024.5 457.5,-1024.5 457.5,-986.5 357.5,-986.5"/>
<text text-anchor="start" x="365.5" y="-1009.3" font-family="Times,serif" font-size="14.00">0x8633ee0:</text>
<text text-anchor="start" x="365.5" y="-994.3" font-family="Times,serif" font-size="14.00"> g29 = 6</text>
</g>
<!-- Node0x26512580&#45;&gt;Node0x2e918600 -->
<g id="edge3" class="edge"><title>Node0x26512580&#45;&gt;Node0x2e918600</title>
<path fill="none" stroke="black" d="M433.846,-1076.46C428.47,-1071.02 423.195,-1064.7 419.5,-1058 415.556,-1050.84 412.904,-1042.44 411.122,-1034.52"/>
<polygon fill="black" stroke="black" points="414.532,-1033.71 409.246,-1024.53 407.653,-1035.01 414.532,-1033.71"/>
<text text-anchor="middle" x="449.5" y="-1046.8" font-family="Times,serif" font-size="14.00">v1 == 0</text>
</g>
<!-- Node0x2adbecd0 -->
<g id="node5" class="node"><title>Node0x2adbecd0</title>
<polygon fill="none" stroke="black" points="241,-820.5 241,-948.5 690,-948.5 690,-820.5 241,-820.5"/>
<text text-anchor="start" x="249" y="-933.3" font-family="Times,serif" font-size="14.00">0x28ac4bd0:</text>
<text text-anchor="start" x="249" y="-918.3" font-family="Times,serif" font-size="14.00"> v2</text>
<text text-anchor="start" x="249" y="-903.3" font-family="Times,serif" font-size="14.00"> g34 = v2</text>
<text text-anchor="start" x="249" y="-888.3" font-family="Times,serif" font-size="14.00"> IntToPtrCastExpr&lt;ptr&gt;(ExtCastExpr&lt;int32&gt;((v1 == 0)))()</text>
<text text-anchor="start" x="249" y="-873.3" font-family="Times,serif" font-size="14.00"> g29 = g37</text>
<text text-anchor="start" x="249" y="-858.3" font-family="Times,serif" font-size="14.00"> function_f4a8()</text>
<text text-anchor="start" x="249" y="-843.3" font-family="Times,serif" font-size="14.00"> v3 = g29</text>
<text text-anchor="start" x="249" y="-828.3" font-family="Times,serif" font-size="14.00"> g9 = (v3 == 0)</text>
</g>
<!-- Node0x26512580&#45;&gt;Node0x2adbecd0 -->
<g id="edge4" class="edge"><title>Node0x26512580&#45;&gt;Node0x2adbecd0</title>
<path fill="none" stroke="black" d="M470.469,-1076.23C474.152,-1070.7 477.586,-1064.39 479.5,-1058 489.023,-1026.18 487.713,-989.681 483.148,-958.472"/>
<polygon fill="black" stroke="black" points="486.595,-957.861 481.561,-948.538 479.683,-958.965 486.595,-957.861"/>
<text text-anchor="middle" x="514.5" y="-1001.8" font-family="Times,serif" font-size="14.00">v1 != 0</text>
</g>
<!-- Node0x2e918600&#45;&gt;Node0x2adbecd0 -->
<g id="edge5" class="edge"><title>Node0x2e918600&#45;&gt;Node0x2adbecd0</title>
<path fill="none" stroke="black" d="M416.309,-986.426C420.245,-978.35 425.167,-968.252 430.365,-957.588"/>
<polygon fill="black" stroke="black" points="433.545,-959.052 434.78,-948.529 427.252,-955.985 433.545,-959.052"/>
</g>
<!-- Node0x2adbfa60 -->
<g id="node6" class="node"><title>Node0x2adbfa60</title>
<polygon fill="none" stroke="black" points="410.5,-744.5 410.5,-782.5 520.5,-782.5 520.5,-744.5 410.5,-744.5"/>
<text text-anchor="start" x="418.5" y="-767.3" font-family="Times,serif" font-size="14.00">0x8635bc0:</text>
<text text-anchor="start" x="418.5" y="-752.3" font-family="Times,serif" font-size="14.00"> if (v3 == 0):</text>
</g>
<!-- Node0x2adbecd0&#45;&gt;Node0x2adbfa60 -->
<g id="edge6" class="edge"><title>Node0x2adbecd0&#45;&gt;Node0x2adbfa60</title>
<path fill="none" stroke="black" d="M465.5,-820.167C465.5,-810.596 465.5,-801.158 465.5,-792.848"/>
<polygon fill="black" stroke="black" points="469,-792.658 465.5,-782.659 462,-792.659 469,-792.658"/>
</g>
<!-- Node0x26512b80 -->
<g id="node7" class="node"><title>Node0x26512b80</title>
<polygon fill="none" stroke="black" points="366,-654.5 366,-692.5 467,-692.5 467,-654.5 366,-654.5"/>
<text text-anchor="start" x="374" y="-677.3" font-family="Times,serif" font-size="14.00">0x8635620:</text>
<text text-anchor="start" x="374" y="-662.3" font-family="Times,serif" font-size="14.00"> g29 = 14</text>
</g>
<!-- Node0x2adbfa60&#45;&gt;Node0x26512b80 -->
<g id="edge7" class="edge"><title>Node0x2adbfa60&#45;&gt;Node0x26512b80</title>
<path fill="none" stroke="black" d="M443.927,-744.413C438.551,-738.977 433.256,-732.67 429.5,-726 425.473,-718.849 422.675,-710.446 420.738,-702.525"/>
<polygon fill="black" stroke="black" points="424.123,-701.612 418.656,-692.536 417.27,-703.04 424.123,-701.612"/>
<text text-anchor="middle" x="459.5" y="-714.8" font-family="Times,serif" font-size="14.00">v3 == 0</text>
</g>
<!-- Node0x31cb43e0 -->
<g id="node8" class="node"><title>Node0x31cb43e0</title>
<polygon fill="none" stroke="black" points="233.5,-278.5 233.5,-616.5 717.5,-616.5 717.5,-278.5 233.5,-278.5"/>
<text text-anchor="start" x="241.5" y="-601.3" font-family="Times,serif" font-size="14.00">0x28ac4cd0:</text>
<text text-anchor="start" x="241.5" y="-586.3" font-family="Times,serif" font-size="14.00"> v4 = g34</text>
<text text-anchor="start" x="241.5" y="-571.3" font-family="Times,serif" font-size="14.00"> g38 = *(IntToPtrCastExpr&lt;ptr&gt;((v4 + 4)))</text>
<text text-anchor="start" x="241.5" y="-556.3" font-family="Times,serif" font-size="14.00"> g39 = *(IntToPtrCastExpr&lt;ptr&gt;((v4 + 8)))</text>
<text text-anchor="start" x="241.5" y="-541.3" font-family="Times,serif" font-size="14.00"> g40 = *(IntToPtrCastExpr&lt;ptr&gt;((v4 + 12)))</text>
<text text-anchor="start" x="241.5" y="-526.3" font-family="Times,serif" font-size="14.00"> g32 = *(IntToPtrCastExpr&lt;ptr&gt;((v4 + 16)))</text>
<text text-anchor="start" x="241.5" y="-511.3" font-family="Times,serif" font-size="14.00"> g34 = *(IntToPtrCastExpr&lt;ptr&gt;((v4 + 20)))</text>
<text text-anchor="start" x="241.5" y="-496.3" font-family="Times,serif" font-size="14.00"> IntToPtrCastExpr&lt;ptr&gt;(ExtCastExpr&lt;int32&gt;((v3 == 0)))()</text>
<text text-anchor="start" x="241.5" y="-481.3" font-family="Times,serif" font-size="14.00"> g29 = *(IntToPtrCastExpr&lt;ptr&gt;((g40 + g38)))</text>
<text text-anchor="start" x="241.5" y="-466.3" font-family="Times,serif" font-size="14.00"> g30 = g39</text>
<text text-anchor="start" x="241.5" y="-451.3" font-family="Times,serif" font-size="14.00"> g36 = 0</text>
<text text-anchor="start" x="241.5" y="-436.3" font-family="Times,serif" font-size="14.00"> function_106b0()</text>
<text text-anchor="start" x="241.5" y="-421.3" font-family="Times,serif" font-size="14.00"> v5 = g29</text>
<text text-anchor="start" x="241.5" y="-406.3" font-family="Times,serif" font-size="14.00"> g9 = (v5 == 0)</text>
<text text-anchor="start" x="241.5" y="-391.3" font-family="Times,serif" font-size="14.00"> g29 = (v5 != 0)</text>
<text text-anchor="start" x="241.5" y="-376.3" font-family="Times,serif" font-size="14.00"> v6 = g34</text>
<text text-anchor="start" x="241.5" y="-361.3" font-family="Times,serif" font-size="14.00"> g38 = *(IntToPtrCastExpr&lt;ptr&gt;((v6 + 4)))</text>
<text text-anchor="start" x="241.5" y="-346.3" font-family="Times,serif" font-size="14.00"> g39 = *(IntToPtrCastExpr&lt;ptr&gt;((v6 + 8)))</text>
<text text-anchor="start" x="241.5" y="-331.3" font-family="Times,serif" font-size="14.00"> g40 = *(IntToPtrCastExpr&lt;ptr&gt;((v6 + 12)))</text>
<text text-anchor="start" x="241.5" y="-316.3" font-family="Times,serif" font-size="14.00"> g32 = *(IntToPtrCastExpr&lt;ptr&gt;((v6 + 16)))</text>
<text text-anchor="start" x="241.5" y="-301.3" font-family="Times,serif" font-size="14.00"> g34 = *(IntToPtrCastExpr&lt;ptr&gt;((v6 + 20)))</text>
<text text-anchor="start" x="241.5" y="-286.3" font-family="Times,serif" font-size="14.00"> IntToPtrCastExpr&lt;ptr&gt;(*(IntToPtrCastExpr&lt;ptr&gt;((v6 + 24))))()</text>
</g>
<!-- Node0x2adbfa60&#45;&gt;Node0x31cb43e0 -->
<g id="edge8" class="edge"><title>Node0x2adbfa60&#45;&gt;Node0x31cb43e0</title>
<path fill="none" stroke="black" d="M480.469,-744.234C484.152,-738.705 487.586,-732.394 489.5,-726 491.412,-719.613 489.678,-717.664 489.5,-711 488.777,-683.878 487.635,-655.197 486.308,-627.144"/>
<polygon fill="black" stroke="black" points="489.788,-626.66 485.81,-616.84 482.797,-626.998 489.788,-626.66"/>
<text text-anchor="middle" x="516.5" y="-669.8" font-family="Times,serif" font-size="14.00">v3 != 0</text>
</g>
<!-- Node0x26512b80&#45;&gt;Node0x31cb43e0 -->
<g id="edge9" class="edge"><title>Node0x26512b80&#45;&gt;Node0x31cb43e0</title>
<path fill="none" stroke="black" d="M421.328,-654.169C423.308,-646.653 425.8,-637.19 428.623,-626.475"/>
<polygon fill="black" stroke="black" points="432.021,-627.315 431.183,-616.754 425.251,-625.532 432.021,-627.315"/>
</g>
<!-- Node0x2adbe4a0 -->
<g id="node9" class="node"><title>Node0x2adbe4a0</title>
<polygon fill="none" stroke="black" points="425,-202.5 425,-240.5 526,-240.5 526,-202.5 425,-202.5"/>
<text text-anchor="start" x="433" y="-225.3" font-family="Times,serif" font-size="14.00">0x863e4d0:</text>
<text text-anchor="start" x="433" y="-210.3" font-family="Times,serif" font-size="14.00"> if g9:</text>
</g>
<!-- Node0x31cb43e0&#45;&gt;Node0x2adbe4a0 -->
<g id="edge10" class="edge"><title>Node0x31cb43e0&#45;&gt;Node0x2adbe4a0</title>
<path fill="none" stroke="black" d="M475.5,-278.447C475.5,-268.269 475.5,-258.924 475.5,-250.905"/>
<polygon fill="black" stroke="black" points="479,-250.84 475.5,-240.84 472,-250.84 479,-250.84"/>
</g>
<!-- Node0x321869e0 -->
<g id="node10" class="node"><title>Node0x321869e0</title>
<polygon fill="none" stroke="black" points="0,-97.5 0,-150.5 513,-150.5 513,-97.5 0,-97.5"/>
<text text-anchor="start" x="8" y="-135.3" font-family="Times,serif" font-size="14.00">0x184ce1c0:</text>
<text text-anchor="start" x="8" y="-120.3" font-family="Times,serif" font-size="14.00"> v7 = (g40 % 256)</text>
<text text-anchor="start" x="8" y="-105.3" font-family="Times,serif" font-size="14.00"> g30 = ((g38 &gt;&gt; (0 if (v7 == 0) else (31 if (v7 &gt; 31) else v7))) &amp; g29)</text>
</g>
<!-- Node0x2adbe4a0&#45;&gt;Node0x321869e0 -->
<g id="edge11" class="edge"><title>Node0x2adbe4a0&#45;&gt;Node0x321869e0</title>
<path fill="none" stroke="black" d="M434.05,-202.425C403.202,-188.973 360.415,-170.314 324.573,-154.685"/>
<polygon fill="black" stroke="black" points="325.71,-151.362 315.145,-150.573 322.912,-157.779 325.71,-151.362"/>
<text text-anchor="middle" x="396" y="-172.8" font-family="Times,serif" font-size="14.00">g9</text>
</g>
<!-- Node0x2e914640 -->
<g id="node11" class="node"><title>Node0x2e914640</title>
<polygon fill="none" stroke="black" points="442.5,-23.5 442.5,-59.5 496.5,-59.5 496.5,-23.5 442.5,-23.5"/>
<text text-anchor="start" x="450.5" y="-37.8" font-family="Times,serif" font-size="14.00">exit:</text>
</g>
<!-- Node0x2adbe4a0&#45;&gt;Node0x2e914640 -->
<g id="edge12" class="edge"><title>Node0x2adbe4a0&#45;&gt;Node0x2e914640</title>
<path fill="none" stroke="black" d="M492.261,-202.349C503.222,-189.185 516.569,-170.359 522.5,-151 529.531,-128.053 531.529,-119.237 522.5,-97 517.806,-85.4403 509.352,-74.9864 500.555,-66.3978"/>
<polygon fill="black" stroke="black" points="502.902,-63.8016 493.159,-59.6389 498.179,-68.9687 502.902,-63.8016"/>
<text text-anchor="middle" x="557" y="-120.3" font-family="Times,serif" font-size="14.00">not (g9)</text>
</g>
<!-- Node0x321869e0&#45;&gt;Node0x2e914640 -->
<g id="edge13" class="edge"><title>Node0x321869e0&#45;&gt;Node0x2e914640</title>
<path fill="none" stroke="black" d="M324.187,-97.4187C360.194,-83.8104 403.058,-67.6106 432.861,-56.3471"/>
<polygon fill="black" stroke="black" points="434.322,-59.5368 442.439,-52.7274 431.847,-52.9888 434.322,-59.5368"/>
</g>
</g>
</svg>
