<?xml version="1.0" encoding="UTF-8" standalone="no"?>
<!DOCTYPE svg PUBLIC "-//W3C//DTD SVG 1.1//EN"
 "http://www.w3.org/Graphics/SVG/1.1/DTD/svg11.dtd">
<!-- Generated by graphviz version 2.38.0 (20140413.2041)
 -->
<!-- Title: Control&#45;flow graph for function &#39;function_12294()&#39;. Pages: 1 -->
<svg width="548pt" height="1196pt"
 viewBox="0.00 0.00 548.00 1196.00" xmlns="http://www.w3.org/2000/svg" xmlns:xlink="http://www.w3.org/1999/xlink">
<g id="graph0" class="graph" transform="scale(1 1) rotate(0) translate(4 1192)">
<title>Control&#45;flow graph for function &#39;function_12294()&#39;.</title>
<polygon fill="white" stroke="none" points="-4,4 -4,-1192 544,-1192 544,4 -4,4"/>
<text text-anchor="middle" x="270" y="-7.8" font-family="Times,serif" font-size="14.00">Control&#45;flow graph for function &#39;function_12294()&#39;.</text>
<!-- Node0x3e8ac9c0 -->
<g id="node1" class="node"><title>Node0x3e8ac9c0</title>
<polygon fill="none" stroke="black" points="135,-1151.5 135,-1187.5 194,-1187.5 194,-1151.5 135,-1151.5"/>
<text text-anchor="start" x="143" y="-1165.8" font-family="Times,serif" font-size="14.00">entry:</text>
</g>
<!-- Node0x46be06e0 -->
<g id="node2" class="node"><title>Node0x46be06e0</title>
<polygon fill="none" stroke="black" points="-2.84217e-14,-910.5 -2.84217e-14,-1113.5 329,-1113.5 329,-910.5 -2.84217e-14,-910.5"/>
<text text-anchor="start" x="8" y="-1098.3" font-family="Times,serif" font-size="14.00">0x3b9b1310:</text>
<text text-anchor="start" x="8" y="-1083.3" font-family="Times,serif" font-size="14.00"> v1 = g38</text>
<text text-anchor="start" x="8" y="-1068.3" font-family="Times,serif" font-size="14.00"> v2 = g32</text>
<text text-anchor="start" x="8" y="-1053.3" font-family="Times,serif" font-size="14.00"> v3 = g35</text>
<text text-anchor="start" x="8" y="-1038.3" font-family="Times,serif" font-size="14.00"> v4 = g29</text>
<text text-anchor="start" x="8" y="-1023.3" font-family="Times,serif" font-size="14.00"> g38 = v4</text>
<text text-anchor="start" x="8" y="-1008.3" font-family="Times,serif" font-size="14.00"> g29 = *(IntToPtrCastExpr&lt;ptr&gt;((v4 + 8)))</text>
<text text-anchor="start" x="8" y="-993.3" font-family="Times,serif" font-size="14.00"> function_6604()</text>
<text text-anchor="start" x="8" y="-978.3" font-family="Times,serif" font-size="14.00"> v5 = g38</text>
<text text-anchor="start" x="8" y="-963.3" font-family="Times,serif" font-size="14.00"> v6 = *(IntToPtrCastExpr&lt;ptr&gt;((v5 + 25)))</text>
<text text-anchor="start" x="8" y="-948.3" font-family="Times,serif" font-size="14.00"> g8 = False</text>
<text text-anchor="start" x="8" y="-933.3" font-family="Times,serif" font-size="14.00"> g7 = (v6 &lt; 0)</text>
<text text-anchor="start" x="8" y="-918.3" font-family="Times,serif" font-size="14.00"> v7 = v5</text>
</g>
<!-- Node0x3e8ac9c0&#45;&gt;Node0x46be06e0 -->
<g id="edge1" class="edge"><title>Node0x3e8ac9c0&#45;&gt;Node0x46be06e0</title>
<path fill="none" stroke="black" d="M164.5,-1151.26C164.5,-1143.77 164.5,-1134.32 164.5,-1123.89"/>
<polygon fill="black" stroke="black" points="168,-1123.62 164.5,-1113.62 161,-1123.62 168,-1123.62"/>
</g>
<!-- Node0x46bdf2e0 -->
<g id="node3" class="node"><title>Node0x46bdf2e0</title>
<polygon fill="none" stroke="black" points="112.5,-834.5 112.5,-872.5 216.5,-872.5 216.5,-834.5 112.5,-834.5"/>
<text text-anchor="start" x="120.5" y="-857.3" font-family="Times,serif" font-size="14.00">0x7e0c130:</text>
<text text-anchor="start" x="120.5" y="-842.3" font-family="Times,serif" font-size="14.00"> if (v6 != 0):</text>
</g>
<!-- Node0x46be06e0&#45;&gt;Node0x46bdf2e0 -->
<g id="edge2" class="edge"><title>Node0x46be06e0&#45;&gt;Node0x46bdf2e0</title>
<path fill="none" stroke="black" d="M164.5,-910.117C164.5,-900.358 164.5,-891.113 164.5,-883.064"/>
<polygon fill="black" stroke="black" points="168,-882.893 164.5,-872.893 161,-882.894 168,-882.893"/>
</g>
<!-- Node0x40416750 -->
<g id="node4" class="node"><title>Node0x40416750</title>
<polygon fill="none" stroke="black" points="20,-714.5 20,-782.5 163,-782.5 163,-714.5 20,-714.5"/>
<text text-anchor="start" x="28" y="-767.3" font-family="Times,serif" font-size="14.00">0x7e0b8e0:</text>
<text text-anchor="start" x="28" y="-752.3" font-family="Times,serif" font-size="14.00"> g29 = v5</text>
<text text-anchor="start" x="28" y="-737.3" font-family="Times,serif" font-size="14.00"> function_12138()</text>
<text text-anchor="start" x="28" y="-722.3" font-family="Times,serif" font-size="14.00"> v7 = g38</text>
</g>
<!-- Node0x46bdf2e0&#45;&gt;Node0x40416750 -->
<g id="edge3" class="edge"><title>Node0x46bdf2e0&#45;&gt;Node0x40416750</title>
<path fill="none" stroke="black" d="M146.647,-834.151C141.52,-828.519 136.081,-822.175 131.5,-816 125.78,-808.291 120.146,-799.721 114.993,-791.368"/>
<polygon fill="black" stroke="black" points="117.977,-789.539 109.813,-782.786 111.984,-793.156 117.977,-789.539"/>
<text text-anchor="middle" x="158.5" y="-804.8" font-family="Times,serif" font-size="14.00">v6 != 0</text>
</g>
<!-- Node0x46be0ee0 -->
<g id="node5" class="node"><title>Node0x46be0ee0</title>
<polygon fill="none" stroke="black" points="2,-548.5 2,-676.5 331,-676.5 331,-548.5 2,-548.5"/>
<text text-anchor="start" x="10" y="-661.3" font-family="Times,serif" font-size="14.00">0x7e0c730:</text>
<text text-anchor="start" x="10" y="-646.3" font-family="Times,serif" font-size="14.00"> g29 = *(IntToPtrCastExpr&lt;ptr&gt;((v7 + 8)))</text>
<text text-anchor="start" x="10" y="-631.3" font-family="Times,serif" font-size="14.00"> function_67c0()</text>
<text text-anchor="start" x="10" y="-616.3" font-family="Times,serif" font-size="14.00"> v8 = g29</text>
<text text-anchor="start" x="10" y="-601.3" font-family="Times,serif" font-size="14.00"> g8 = False</text>
<text text-anchor="start" x="10" y="-586.3" font-family="Times,serif" font-size="14.00"> g7 = (v8 &lt; 0)</text>
<text text-anchor="start" x="10" y="-571.3" font-family="Times,serif" font-size="14.00"> v9 = g38</text>
<text text-anchor="start" x="10" y="-556.3" font-family="Times,serif" font-size="14.00"> v10</text>
</g>
<!-- Node0x46bdf2e0&#45;&gt;Node0x46be0ee0 -->
<g id="edge4" class="edge"><title>Node0x46bdf2e0&#45;&gt;Node0x46be0ee0</title>
<path fill="none" stroke="black" d="M177.396,-834.38C180.702,-828.755 183.802,-822.357 185.5,-816 187.221,-809.559 185.836,-807.658 185.5,-801 183.591,-763.229 179.532,-721.34 175.655,-686.753"/>
<polygon fill="black" stroke="black" points="179.123,-686.275 174.514,-676.735 172.168,-687.067 179.123,-686.275"/>
<text text-anchor="middle" x="214.5" y="-744.8" font-family="Times,serif" font-size="14.00">v6 == 0</text>
</g>
<!-- Node0x40416750&#45;&gt;Node0x46be0ee0 -->
<g id="edge5" class="edge"><title>Node0x40416750&#45;&gt;Node0x46be0ee0</title>
<path fill="none" stroke="black" d="M110.039,-714.376C115.005,-705.505 120.572,-695.558 126.224,-685.46"/>
<polygon fill="black" stroke="black" points="129.37,-687.006 131.2,-676.57 123.261,-683.587 129.37,-687.006"/>
</g>
<!-- Node0x27157b50 -->
<g id="node6" class="node"><title>Node0x27157b50</title>
<polygon fill="none" stroke="black" points="114.5,-472.5 114.5,-510.5 218.5,-510.5 218.5,-472.5 114.5,-472.5"/>
<text text-anchor="start" x="122.5" y="-495.3" font-family="Times,serif" font-size="14.00">0x7e12ea0:</text>
<text text-anchor="start" x="122.5" y="-480.3" font-family="Times,serif" font-size="14.00"> if (v8 != 0):</text>
</g>
<!-- Node0x46be0ee0&#45;&gt;Node0x27157b50 -->
<g id="edge6" class="edge"><title>Node0x46be0ee0&#45;&gt;Node0x27157b50</title>
<path fill="none" stroke="black" d="M166.5,-548.167C166.5,-538.596 166.5,-529.158 166.5,-520.848"/>
<polygon fill="black" stroke="black" points="170,-520.658 166.5,-510.659 163,-520.659 170,-520.658"/>
</g>
<!-- Node0x3e8addc0 -->
<g id="node7" class="node"><title>Node0x3e8addc0</title>
<polygon fill="none" stroke="black" points="8,-187.5 8,-330.5 151,-330.5 151,-187.5 8,-187.5"/>
<text text-anchor="start" x="16" y="-315.3" font-family="Times,serif" font-size="14.00">0x7e13040:</text>
<text text-anchor="start" x="16" y="-300.3" font-family="Times,serif" font-size="14.00"> g29 = v9</text>
<text text-anchor="start" x="16" y="-285.3" font-family="Times,serif" font-size="14.00"> g30 = 0</text>
<text text-anchor="start" x="16" y="-270.3" font-family="Times,serif" font-size="14.00"> g38 = v1</text>
<text text-anchor="start" x="16" y="-255.3" font-family="Times,serif" font-size="14.00"> g32 = v2</text>
<text text-anchor="start" x="16" y="-240.3" font-family="Times,serif" font-size="14.00"> g34 = v10</text>
<text text-anchor="start" x="16" y="-225.3" font-family="Times,serif" font-size="14.00"> g35 = v3</text>
<text text-anchor="start" x="16" y="-210.3" font-family="Times,serif" font-size="14.00"> function_11298()</text>
<text text-anchor="start" x="16" y="-195.3" font-family="Times,serif" font-size="14.00"> return</text>
</g>
<!-- Node0x27157b50&#45;&gt;Node0x3e8addc0 -->
<g id="edge7" class="edge"><title>Node0x27157b50&#45;&gt;Node0x3e8addc0</title>
<path fill="none" stroke="black" d="M159.673,-472.413C148.989,-444.106 127.68,-387.648 109.714,-340.051"/>
<polygon fill="black" stroke="black" points="112.976,-338.78 106.17,-330.66 106.427,-341.252 112.976,-338.78"/>
<text text-anchor="middle" x="179.5" y="-442.8" font-family="Times,serif" font-size="14.00">v8 != 0</text>
</g>
<!-- Node0x46be23e0 -->
<g id="node8" class="node"><title>Node0x46be23e0</title>
<polygon fill="none" stroke="black" points="169,-97.5 169,-420.5 540,-420.5 540,-97.5 169,-97.5"/>
<text text-anchor="start" x="177" y="-405.3" font-family="Times,serif" font-size="14.00">0x34f86520:</text>
<text text-anchor="start" x="177" y="-390.3" font-family="Times,serif" font-size="14.00"> v11 = *(IntToPtrCastExpr&lt;ptr&gt;((v9 + 22)))</text>
<text text-anchor="start" x="177" y="-375.3" font-family="Times,serif" font-size="14.00"> g8 = False</text>
<text text-anchor="start" x="177" y="-360.3" font-family="Times,serif" font-size="14.00"> g7 = (v11 &lt; 0)</text>
<text text-anchor="start" x="177" y="-345.3" font-family="Times,serif" font-size="14.00"> g9 = (v11 == 0)</text>
<text text-anchor="start" x="177" y="-330.3" font-family="Times,serif" font-size="14.00"> g30 = *(IntToPtrCastExpr&lt;ptr&gt;((v9 + 12)))</text>
<text text-anchor="start" x="177" y="-315.3" font-family="Times,serif" font-size="14.00"> g36 = (1 if (v11 == 0) else 5)</text>
<text text-anchor="start" x="177" y="-300.3" font-family="Times,serif" font-size="14.00"> g37 = (*(IntToPtrCastExpr&lt;ptr&gt;((v9 + 28))) | 1)</text>
<text text-anchor="start" x="177" y="-285.3" font-family="Times,serif" font-size="14.00"> *(IntToPtrCastExpr&lt;ptr&gt;((v9 + 24))) = 0</text>
<text text-anchor="start" x="177" y="-270.3" font-family="Times,serif" font-size="14.00"> *(IntToPtrCastExpr&lt;ptr&gt;((g38 + 28))) = g37</text>
<text text-anchor="start" x="177" y="-255.3" font-family="Times,serif" font-size="14.00"> v12 = g38</text>
<text text-anchor="start" x="177" y="-240.3" font-family="Times,serif" font-size="14.00"> g29 = v12</text>
<text text-anchor="start" x="177" y="-225.3" font-family="Times,serif" font-size="14.00"> *(IntToPtrCastExpr&lt;ptr&gt;((v12 + 56))) = g36</text>
<text text-anchor="start" x="177" y="-210.3" font-family="Times,serif" font-size="14.00"> *(IntToPtrCastExpr&lt;ptr&gt;((g38 + 60))) = g30</text>
<text text-anchor="start" x="177" y="-195.3" font-family="Times,serif" font-size="14.00"> function_1186c()</text>
<text text-anchor="start" x="177" y="-180.3" font-family="Times,serif" font-size="14.00"> g29 = g38</text>
<text text-anchor="start" x="177" y="-165.3" font-family="Times,serif" font-size="14.00"> g38 = v1</text>
<text text-anchor="start" x="177" y="-150.3" font-family="Times,serif" font-size="14.00"> g32 = v2</text>
<text text-anchor="start" x="177" y="-135.3" font-family="Times,serif" font-size="14.00"> g34 = v10</text>
<text text-anchor="start" x="177" y="-120.3" font-family="Times,serif" font-size="14.00"> g35 = v3</text>
<text text-anchor="start" x="177" y="-105.3" font-family="Times,serif" font-size="14.00"> function_1199c()</text>
</g>
<!-- Node0x27157b50&#45;&gt;Node0x46be23e0 -->
<g id="edge8" class="edge"><title>Node0x27157b50&#45;&gt;Node0x46be23e0</title>
<path fill="none" stroke="black" d="M190.716,-472.165C197.417,-466.635 204.493,-460.34 210.5,-454 218.254,-445.816 225.966,-437.213 233.561,-428.367"/>
<polygon fill="black" stroke="black" points="236.404,-430.427 240.204,-420.536 231.066,-425.899 236.404,-430.427"/>
<text text-anchor="middle" x="253.5" y="-442.8" font-family="Times,serif" font-size="14.00">v8 == 0</text>
</g>
<!-- Node0x46bdf6e0 -->
<g id="node9" class="node"><title>Node0x46bdf6e0</title>
<polygon fill="none" stroke="black" points="220.5,-23.5 220.5,-59.5 274.5,-59.5 274.5,-23.5 220.5,-23.5"/>
<text text-anchor="start" x="228.5" y="-37.8" font-family="Times,serif" font-size="14.00">exit:</text>
</g>
<!-- Node0x3e8addc0&#45;&gt;Node0x46bdf6e0 -->
<g id="edge9" class="edge"><title>Node0x3e8addc0&#45;&gt;Node0x46bdf6e0</title>
<path fill="none" stroke="black" d="M104.443,-187.421C117.544,-157.196 135.857,-122.96 159.5,-97 173.794,-81.3059 193.633,-68.4913 210.856,-59.2404"/>
<polygon fill="black" stroke="black" points="212.82,-62.1657 220.104,-54.472 209.612,-55.9441 212.82,-62.1657"/>
</g>
<!-- Node0x46be23e0&#45;&gt;Node0x46bdf6e0 -->
<g id="edge10" class="edge"><title>Node0x46be23e0&#45;&gt;Node0x46bdf6e0</title>
<path fill="none" stroke="black" d="M274.777,-97.4373C269.427,-86.662 264.542,-76.8227 260.431,-68.5426"/>
<polygon fill="black" stroke="black" points="263.561,-66.9761 255.979,-59.576 257.291,-70.0892 263.561,-66.9761"/>
</g>
</g>
</svg>
