<?xml version="1.0" encoding="UTF-8" standalone="no"?>
<!DOCTYPE svg PUBLIC "-//W3C//DTD SVG 1.1//EN"
 "http://www.w3.org/Graphics/SVG/1.1/DTD/svg11.dtd">
<!-- Generated by graphviz version 2.38.0 (20140413.2041)
 -->
<!-- Title: Control&#45;flow graph for function &#39;function_22690()&#39;. Pages: 1 -->
<svg width="386pt" height="640pt"
 viewBox="0.00 0.00 386.00 640.00" xmlns="http://www.w3.org/2000/svg" xmlns:xlink="http://www.w3.org/1999/xlink">
<g id="graph0" class="graph" transform="scale(1 1) rotate(0) translate(4 636)">
<title>Control&#45;flow graph for function &#39;function_22690()&#39;.</title>
<polygon fill="white" stroke="none" points="-4,4 -4,-636 382,-636 382,4 -4,4"/>
<text text-anchor="middle" x="189" y="-7.8" font-family="Times,serif" font-size="14.00">Control&#45;flow graph for function &#39;function_22690()&#39;.</text>
<!-- Node0x2b7b7800 -->
<g id="node1" class="node"><title>Node0x2b7b7800</title>
<polygon fill="none" stroke="black" points="170.25,-595.5 170.25,-631.5 229.25,-631.5 229.25,-595.5 170.25,-595.5"/>
<text text-anchor="start" x="178.25" y="-609.8" font-family="Times,serif" font-size="14.00">entry:</text>
</g>
<!-- Node0x235dce70 -->
<g id="node2" class="node"><title>Node0x235dce70</title>
<polygon fill="none" stroke="black" points="128.25,-399.5 128.25,-557.5 271.25,-557.5 271.25,-399.5 128.25,-399.5"/>
<text text-anchor="start" x="136.25" y="-542.3" font-family="Times,serif" font-size="14.00">0x241d5d90:</text>
<text text-anchor="start" x="136.25" y="-527.3" font-family="Times,serif" font-size="14.00"> v1 = g39</text>
<text text-anchor="start" x="136.25" y="-512.3" font-family="Times,serif" font-size="14.00"> v2 = g29</text>
<text text-anchor="start" x="136.25" y="-497.3" font-family="Times,serif" font-size="14.00"> g39 = v2</text>
<text text-anchor="start" x="136.25" y="-482.3" font-family="Times,serif" font-size="14.00"> g29 = g30</text>
<text text-anchor="start" x="136.25" y="-467.3" font-family="Times,serif" font-size="14.00"> g30 = g36</text>
<text text-anchor="start" x="136.25" y="-452.3" font-family="Times,serif" font-size="14.00"> g37 = v2</text>
<text text-anchor="start" x="136.25" y="-437.3" font-family="Times,serif" font-size="14.00"> function_21960()</text>
<text text-anchor="start" x="136.25" y="-422.3" font-family="Times,serif" font-size="14.00"> v3 = g29</text>
<text text-anchor="start" x="136.25" y="-407.3" font-family="Times,serif" font-size="14.00"> g9 = (v3 == 0)</text>
</g>
<!-- Node0x2b7b7800&#45;&gt;Node0x235dce70 -->
<g id="edge1" class="edge"><title>Node0x2b7b7800&#45;&gt;Node0x235dce70</title>
<path fill="none" stroke="black" d="M199.75,-595.385C199.75,-587.782 199.75,-578.206 199.75,-567.833"/>
<polygon fill="black" stroke="black" points="203.25,-567.682 199.75,-557.682 196.25,-567.682 203.25,-567.682"/>
</g>
<!-- Node0x31f33e60 -->
<g id="node3" class="node"><title>Node0x31f33e60</title>
<polygon fill="none" stroke="black" points="147.75,-323.5 147.75,-361.5 251.75,-361.5 251.75,-323.5 147.75,-323.5"/>
<text text-anchor="start" x="155.75" y="-346.3" font-family="Times,serif" font-size="14.00">0xa370730:</text>
<text text-anchor="start" x="155.75" y="-331.3" font-family="Times,serif" font-size="14.00"> if (v3 != 0):</text>
</g>
<!-- Node0x235dce70&#45;&gt;Node0x31f33e60 -->
<g id="edge2" class="edge"><title>Node0x235dce70&#45;&gt;Node0x31f33e60</title>
<path fill="none" stroke="black" d="M199.75,-399.164C199.75,-389.447 199.75,-380.058 199.75,-371.846"/>
<polygon fill="black" stroke="black" points="203.25,-371.801 199.75,-361.801 196.25,-371.801 203.25,-371.801"/>
</g>
<!-- Node0x235dd370 -->
<g id="node4" class="node"><title>Node0x235dd370</title>
<polygon fill="none" stroke="black" points="55.25,-218.5 55.25,-271.5 198.25,-271.5 198.25,-218.5 55.25,-218.5"/>
<text text-anchor="start" x="63.25" y="-256.3" font-family="Times,serif" font-size="14.00">0xa36a410:</text>
<text text-anchor="start" x="63.25" y="-241.3" font-family="Times,serif" font-size="14.00"> g29 = g39</text>
<text text-anchor="start" x="63.25" y="-226.3" font-family="Times,serif" font-size="14.00"> function_22090()</text>
</g>
<!-- Node0x31f33e60&#45;&gt;Node0x235dd370 -->
<g id="edge3" class="edge"><title>Node0x31f33e60&#45;&gt;Node0x235dd370</title>
<path fill="none" stroke="black" d="M182.447,-323.366C177.229,-317.635 171.602,-311.183 166.75,-305 160.569,-297.125 154.3,-288.335 148.616,-279.995"/>
<polygon fill="black" stroke="black" points="151.41,-277.878 142.932,-271.524 145.598,-281.778 151.41,-277.878"/>
<text text-anchor="middle" x="193.75" y="-293.8" font-family="Times,serif" font-size="14.00">v3 != 0</text>
</g>
<!-- Node0x23332580 -->
<g id="node5" class="node"><title>Node0x23332580</title>
<polygon fill="none" stroke="black" points="80.75,-97.5 80.75,-180.5 322.75,-180.5 322.75,-97.5 80.75,-97.5"/>
<text text-anchor="start" x="88.75" y="-165.3" font-family="Times,serif" font-size="14.00">0xa3708b0:</text>
<text text-anchor="start" x="88.75" y="-150.3" font-family="Times,serif" font-size="14.00"> g39 = v1</text>
<text text-anchor="start" x="88.75" y="-135.3" font-family="Times,serif" font-size="14.00"> v4</text>
<text text-anchor="start" x="88.75" y="-120.3" font-family="Times,serif" font-size="14.00"> g34 = v4</text>
<text text-anchor="start" x="88.75" y="-105.3" font-family="Times,serif" font-size="14.00"> IntToPtrCastExpr&lt;ptr&gt;(g35)()</text>
</g>
<!-- Node0x31f33e60&#45;&gt;Node0x23332580 -->
<g id="edge4" class="edge"><title>Node0x31f33e60&#45;&gt;Node0x23332580</title>
<path fill="none" stroke="black" d="M212.646,-323.38C215.952,-317.755 219.052,-311.357 220.75,-305 230.799,-267.383 224.961,-223.543 217.2,-190.511"/>
<polygon fill="black" stroke="black" points="220.552,-189.487 214.745,-180.625 213.758,-191.174 220.552,-189.487"/>
<text text-anchor="middle" x="256.75" y="-241.3" font-family="Times,serif" font-size="14.00">v3 == 0</text>
</g>
<!-- Node0x235dd370&#45;&gt;Node0x23332580 -->
<g id="edge5" class="edge"><title>Node0x235dd370&#45;&gt;Node0x23332580</title>
<path fill="none" stroke="black" d="M145.289,-218.292C151.661,-209.457 159.023,-199.249 166.283,-189.181"/>
<polygon fill="black" stroke="black" points="169.323,-190.949 172.333,-180.791 163.645,-186.855 169.323,-190.949"/>
</g>
<!-- Node0x2017aaa0 -->
<g id="node6" class="node"><title>Node0x2017aaa0</title>
<polygon fill="none" stroke="black" points="174.75,-23.5 174.75,-59.5 228.75,-59.5 228.75,-23.5 174.75,-23.5"/>
<text text-anchor="start" x="182.75" y="-37.8" font-family="Times,serif" font-size="14.00">exit:</text>
</g>
<!-- Node0x23332580&#45;&gt;Node0x2017aaa0 -->
<g id="edge6" class="edge"><title>Node0x23332580&#45;&gt;Node0x2017aaa0</title>
<path fill="none" stroke="black" d="M201.75,-97.4994C201.75,-88.2058 201.75,-78.537 201.75,-69.9459"/>
<polygon fill="black" stroke="black" points="205.25,-69.7494 201.75,-59.7494 198.25,-69.7494 205.25,-69.7494"/>
</g>
</g>
</svg>
