<?xml version="1.0" encoding="UTF-8" standalone="no"?>
<!DOCTYPE svg PUBLIC "-//W3C//DTD SVG 1.1//EN"
 "http://www.w3.org/Graphics/SVG/1.1/DTD/svg11.dtd">
<!-- Generated by graphviz version 2.38.0 (20140413.2041)
 -->
<!-- Title: Control&#45;flow graph for function &#39;SpRegisterDebugCallbacks()&#39;. Pages: 1 -->
<svg width="538pt" height="1468pt"
 viewBox="0.00 0.00 538.00 1468.00" xmlns="http://www.w3.org/2000/svg" xmlns:xlink="http://www.w3.org/1999/xlink">
<g id="graph0" class="graph" transform="scale(1 1) rotate(0) translate(4 1464)">
<title>Control&#45;flow graph for function &#39;SpRegisterDebugCallbacks()&#39;.</title>
<polygon fill="white" stroke="none" points="-4,4 -4,-1464 534,-1464 534,4 -4,4"/>
<text text-anchor="middle" x="265" y="-7.8" font-family="Times,serif" font-size="14.00">Control&#45;flow graph for function &#39;SpRegisterDebugCallbacks()&#39;.</text>
<!-- Node0x1519e480 -->
<g id="node1" class="node"><title>Node0x1519e480</title>
<polygon fill="none" stroke="black" points="343,-1423.5 343,-1459.5 402,-1459.5 402,-1423.5 343,-1423.5"/>
<text text-anchor="start" x="351" y="-1437.8" font-family="Times,serif" font-size="14.00">entry:</text>
</g>
<!-- Node0x383b3490 -->
<g id="node2" class="node"><title>Node0x383b3490</title>
<polygon fill="none" stroke="black" points="215,-1122.5 215,-1385.5 530,-1385.5 530,-1122.5 215,-1122.5"/>
<text text-anchor="start" x="223" y="-1370.3" font-family="Times,serif" font-size="14.00">0x3c2b4830:</text>
<text text-anchor="start" x="223" y="-1355.3" font-family="Times,serif" font-size="14.00"> v1 = g38</text>
<text text-anchor="start" x="223" y="-1340.3" font-family="Times,serif" font-size="14.00"> v2 = g39</text>
<text text-anchor="start" x="223" y="-1325.3" font-family="Times,serif" font-size="14.00"> v3 = g40</text>
<text text-anchor="start" x="223" y="-1310.3" font-family="Times,serif" font-size="14.00"> v4 = g41</text>
<text text-anchor="start" x="223" y="-1295.3" font-family="Times,serif" font-size="14.00"> g37 = 200</text>
<text text-anchor="start" x="223" y="-1280.3" font-family="Times,serif" font-size="14.00"> g38 = 165012</text>
<text text-anchor="start" x="223" y="-1265.3" font-family="Times,serif" font-size="14.00"> v5 = *(IntToPtrCastExpr&lt;ptr&gt;(165212))</text>
<text text-anchor="start" x="223" y="-1250.3" font-family="Times,serif" font-size="14.00"> g41 = v5</text>
<text text-anchor="start" x="223" y="-1235.3" font-family="Times,serif" font-size="14.00"> v6 = *(IntToPtrCastExpr&lt;ptr&gt;(v5))</text>
<text text-anchor="start" x="223" y="-1220.3" font-family="Times,serif" font-size="14.00"> g33 = v6</text>
<text text-anchor="start" x="223" y="-1205.3" font-family="Times,serif" font-size="14.00"> v7 = g29</text>
<text text-anchor="start" x="223" y="-1190.3" font-family="Times,serif" font-size="14.00"> g40 = v7</text>
<text text-anchor="start" x="223" y="-1175.3" font-family="Times,serif" font-size="14.00"> v8 = g30</text>
<text text-anchor="start" x="223" y="-1160.3" font-family="Times,serif" font-size="14.00"> g39 = v8</text>
<text text-anchor="start" x="223" y="-1145.3" font-family="Times,serif" font-size="14.00"> v9 = v7</text>
<text text-anchor="start" x="223" y="-1130.3" font-family="Times,serif" font-size="14.00"> v10 = v8</text>
</g>
<!-- Node0x1519e480&#45;&gt;Node0x383b3490 -->
<g id="edge1" class="edge"><title>Node0x1519e480&#45;&gt;Node0x383b3490</title>
<path fill="none" stroke="black" d="M372.5,-1423.38C372.5,-1415.9 372.5,-1406.38 372.5,-1395.69"/>
<polygon fill="black" stroke="black" points="376,-1395.57 372.5,-1385.57 369,-1395.57 376,-1395.57"/>
</g>
<!-- Node0x151a15b0 -->
<g id="node3" class="node"><title>Node0x151a15b0</title>
<polygon fill="none" stroke="black" points="320.5,-1046.5 320.5,-1084.5 424.5,-1084.5 424.5,-1046.5 320.5,-1046.5"/>
<text text-anchor="start" x="328.5" y="-1069.3" font-family="Times,serif" font-size="14.00">0x8328b20:</text>
<text text-anchor="start" x="328.5" y="-1054.3" font-family="Times,serif" font-size="14.00"> if (v6 != 0):</text>
</g>
<!-- Node0x383b3490&#45;&gt;Node0x151a15b0 -->
<g id="edge2" class="edge"><title>Node0x383b3490&#45;&gt;Node0x151a15b0</title>
<path fill="none" stroke="black" d="M372.5,-1122.46C372.5,-1112.36 372.5,-1102.95 372.5,-1094.85"/>
<polygon fill="black" stroke="black" points="376,-1094.66 372.5,-1084.66 369,-1094.66 376,-1094.66"/>
</g>
<!-- Node0x1519fb40 -->
<g id="node4" class="node"><title>Node0x1519fb40</title>
<polygon fill="none" stroke="black" points="160.5,-896.5 160.5,-994.5 372.5,-994.5 372.5,-896.5 160.5,-896.5"/>
<text text-anchor="start" x="168.5" y="-979.3" font-family="Times,serif" font-size="14.00">0x8327e50:</text>
<text text-anchor="start" x="168.5" y="-964.3" font-family="Times,serif" font-size="14.00"> g36 = v7</text>
<text text-anchor="start" x="168.5" y="-949.3" font-family="Times,serif" font-size="14.00"> g37 = v8</text>
<text text-anchor="start" x="168.5" y="-934.3" font-family="Times,serif" font-size="14.00"> imported_function_ord_0()</text>
<text text-anchor="start" x="168.5" y="-919.3" font-family="Times,serif" font-size="14.00"> v9 = g40</text>
<text text-anchor="start" x="168.5" y="-904.3" font-family="Times,serif" font-size="14.00"> v10 = g39</text>
</g>
<!-- Node0x151a15b0&#45;&gt;Node0x1519fb40 -->
<g id="edge3" class="edge"><title>Node0x151a15b0&#45;&gt;Node0x1519fb40</title>
<path fill="none" stroke="black" d="M356.17,-1046.32C345.49,-1034.43 330.913,-1018.2 316.617,-1002.29"/>
<polygon fill="black" stroke="black" points="318.926,-999.623 309.639,-994.523 313.718,-1004.3 318.926,-999.623"/>
<text text-anchor="middle" x="365.5" y="-1016.8" font-family="Times,serif" font-size="14.00">v6 != 0</text>
</g>
<!-- Node0x478fe900 -->
<g id="node5" class="node"><title>Node0x478fe900</title>
<polygon fill="none" stroke="black" points="218,-700.5 218,-858.5 515,-858.5 515,-700.5 218,-700.5"/>
<text text-anchor="start" x="226" y="-843.3" font-family="Times,serif" font-size="14.00">0x8328c80:</text>
<text text-anchor="start" x="226" y="-828.3" font-family="Times,serif" font-size="14.00"> g30 = v10</text>
<text text-anchor="start" x="226" y="-813.3" font-family="Times,serif" font-size="14.00"> g29 = v9</text>
<text text-anchor="start" x="226" y="-798.3" font-family="Times,serif" font-size="14.00"> function_1719c()</text>
<text text-anchor="start" x="226" y="-783.3" font-family="Times,serif" font-size="14.00"> v11 = *(IntToPtrCastExpr&lt;ptr&gt;(g41))</text>
<text text-anchor="start" x="226" y="-768.3" font-family="Times,serif" font-size="14.00"> g37 = v11</text>
<text text-anchor="start" x="226" y="-753.3" font-family="Times,serif" font-size="14.00"> v12 = g29</text>
<text text-anchor="start" x="226" y="-738.3" font-family="Times,serif" font-size="14.00"> g39 = v12</text>
<text text-anchor="start" x="226" y="-723.3" font-family="Times,serif" font-size="14.00"> g9 = (v11 == 0)</text>
<text text-anchor="start" x="226" y="-708.3" font-family="Times,serif" font-size="14.00"> v13 = v12</text>
</g>
<!-- Node0x151a15b0&#45;&gt;Node0x478fe900 -->
<g id="edge4" class="edge"><title>Node0x151a15b0&#45;&gt;Node0x478fe900</title>
<path fill="none" stroke="black" d="M386.004,-1046.45C389.467,-1040.83 392.716,-1034.42 394.5,-1028 396.286,-1021.58 394.869,-1019.66 394.5,-1013 391.846,-965.077 385.685,-911.91 379.816,-868.527"/>
<polygon fill="black" stroke="black" points="383.278,-868.006 378.452,-858.574 376.343,-868.957 383.278,-868.006"/>
<text text-anchor="middle" x="423.5" y="-941.8" font-family="Times,serif" font-size="14.00">v6 == 0</text>
</g>
<!-- Node0x1519fb40&#45;&gt;Node0x478fe900 -->
<g id="edge5" class="edge"><title>Node0x1519fb40&#45;&gt;Node0x478fe900</title>
<path fill="none" stroke="black" d="M295.962,-896.182C301.532,-887.047 307.514,-877.237 313.553,-867.333"/>
<polygon fill="black" stroke="black" points="316.648,-868.98 318.866,-858.62 310.671,-865.336 316.648,-868.98"/>
</g>
<!-- Node0x47900410 -->
<g id="node6" class="node"><title>Node0x47900410</title>
<polygon fill="none" stroke="black" points="310,-624.5 310,-662.5 423,-662.5 423,-624.5 310,-624.5"/>
<text text-anchor="start" x="318" y="-647.3" font-family="Times,serif" font-size="14.00">0x832b260:</text>
<text text-anchor="start" x="318" y="-632.3" font-family="Times,serif" font-size="14.00"> if (v11 != 0):</text>
</g>
<!-- Node0x478fe900&#45;&gt;Node0x47900410 -->
<g id="edge6" class="edge"><title>Node0x478fe900&#45;&gt;Node0x47900410</title>
<path fill="none" stroke="black" d="M366.5,-700.164C366.5,-690.447 366.5,-681.058 366.5,-672.846"/>
<polygon fill="black" stroke="black" points="370,-672.801 366.5,-662.801 363,-672.801 370,-672.801"/>
</g>
<!-- Node0x383b4bc0 -->
<g id="node7" class="node"><title>Node0x383b4bc0</title>
<polygon fill="none" stroke="black" points="157.5,-489.5 157.5,-572.5 369.5,-572.5 369.5,-489.5 157.5,-489.5"/>
<text text-anchor="start" x="165.5" y="-557.3" font-family="Times,serif" font-size="14.00">0x832a8d0:</text>
<text text-anchor="start" x="165.5" y="-542.3" font-family="Times,serif" font-size="14.00"> g30 = (g38 &#45; 7516)</text>
<text text-anchor="start" x="165.5" y="-527.3" font-family="Times,serif" font-size="14.00"> g36 = v12</text>
<text text-anchor="start" x="165.5" y="-512.3" font-family="Times,serif" font-size="14.00"> imported_function_ord_0()</text>
<text text-anchor="start" x="165.5" y="-497.3" font-family="Times,serif" font-size="14.00"> v13 = g39</text>
</g>
<!-- Node0x47900410&#45;&gt;Node0x383b4bc0 -->
<g id="edge7" class="edge"><title>Node0x47900410&#45;&gt;Node0x383b4bc0</title>
<path fill="none" stroke="black" d="M346.858,-624.242C340.861,-618.506 334.317,-612.082 328.5,-606 320.73,-597.876 312.664,-589.044 304.966,-580.404"/>
<polygon fill="black" stroke="black" points="307.561,-578.054 298.314,-572.883 302.318,-582.692 307.561,-578.054"/>
<text text-anchor="middle" x="360" y="-594.8" font-family="Times,serif" font-size="14.00">v11 != 0</text>
</g>
<!-- Node0x1519dd80 -->
<g id="node8" class="node"><title>Node0x1519dd80</title>
<polygon fill="none" stroke="black" points="242.5,-293.5 242.5,-451.5 484.5,-451.5 484.5,-293.5 242.5,-293.5"/>
<text text-anchor="start" x="250.5" y="-436.3" font-family="Times,serif" font-size="14.00">0x832b400:</text>
<text text-anchor="start" x="250.5" y="-421.3" font-family="Times,serif" font-size="14.00"> g29 = v13</text>
<text text-anchor="start" x="250.5" y="-406.3" font-family="Times,serif" font-size="14.00"> g38 = v1</text>
<text text-anchor="start" x="250.5" y="-391.3" font-family="Times,serif" font-size="14.00"> g39 = v2</text>
<text text-anchor="start" x="250.5" y="-376.3" font-family="Times,serif" font-size="14.00"> g40 = v3</text>
<text text-anchor="start" x="250.5" y="-361.3" font-family="Times,serif" font-size="14.00"> g41 = v4</text>
<text text-anchor="start" x="250.5" y="-346.3" font-family="Times,serif" font-size="14.00"> v14</text>
<text text-anchor="start" x="250.5" y="-331.3" font-family="Times,serif" font-size="14.00"> g34 = v14</text>
<text text-anchor="start" x="250.5" y="-316.3" font-family="Times,serif" font-size="14.00"> IntToPtrCastExpr&lt;ptr&gt;(g35)()</text>
<text text-anchor="start" x="250.5" y="-301.3" font-family="Times,serif" font-size="14.00"> v15 = (g31 % 256)</text>
</g>
<!-- Node0x47900410&#45;&gt;Node0x1519dd80 -->
<g id="edge8" class="edge"><title>Node0x47900410&#45;&gt;Node0x1519dd80</title>
<path fill="none" stroke="black" d="M382.086,-624.316C385.922,-618.787 389.501,-612.457 391.5,-606 393.472,-599.632 391.922,-597.653 391.5,-591 388.788,-548.27 383.055,-501.109 377.479,-461.655"/>
<polygon fill="black" stroke="black" points="380.912,-460.938 376.029,-451.536 373.983,-461.931 380.912,-460.938"/>
<text text-anchor="middle" x="425" y="-527.3" font-family="Times,serif" font-size="14.00">v11 == 0</text>
</g>
<!-- Node0x383b4bc0&#45;&gt;Node0x1519dd80 -->
<g id="edge9" class="edge"><title>Node0x383b4bc0&#45;&gt;Node0x1519dd80</title>
<path fill="none" stroke="black" d="M289.513,-489.29C295.3,-480.233 301.649,-470.297 308.119,-460.171"/>
<polygon fill="black" stroke="black" points="311.138,-461.947 313.573,-451.635 305.239,-458.177 311.138,-461.947"/>
</g>
<!-- Node0x1519e380 -->
<g id="node9" class="node"><title>Node0x1519e380</title>
<polygon fill="none" stroke="black" points="313,-217.5 313,-255.5 414,-255.5 414,-217.5 313,-217.5"/>
<text text-anchor="start" x="321" y="-240.3" font-family="Times,serif" font-size="14.00">0x832db40:</text>
<text text-anchor="start" x="321" y="-225.3" font-family="Times,serif" font-size="14.00"> if g9:</text>
</g>
<!-- Node0x1519dd80&#45;&gt;Node0x1519e380 -->
<g id="edge10" class="edge"><title>Node0x1519dd80&#45;&gt;Node0x1519e380</title>
<path fill="none" stroke="black" d="M363.5,-293.164C363.5,-283.447 363.5,-274.058 363.5,-265.846"/>
<polygon fill="black" stroke="black" points="367,-265.801 363.5,-255.801 360,-265.801 367,-265.801"/>
</g>
<!-- Node0x151a2820 -->
<g id="node10" class="node"><title>Node0x151a2820</title>
<polygon fill="none" stroke="black" points="0,-97.5 0,-165.5 385,-165.5 385,-97.5 0,-97.5"/>
<text text-anchor="start" x="8" y="-150.3" font-family="Times,serif" font-size="14.00">0x35129570:</text>
<text text-anchor="start" x="8" y="-135.3" font-family="Times,serif" font-size="14.00"> v16 = g29</text>
<text text-anchor="start" x="8" y="-120.3" font-family="Times,serif" font-size="14.00"> g36 = (g30 &amp; (v16 &gt;&gt; (32 if (v15 &gt; 32) else v15)))</text>
<text text-anchor="start" x="8" y="-105.3" font-family="Times,serif" font-size="14.00"> g29 = ((g42 / 2) &amp; v16)</text>
</g>
<!-- Node0x1519e380&#45;&gt;Node0x151a2820 -->
<g id="edge11" class="edge"><title>Node0x1519e380&#45;&gt;Node0x151a2820</title>
<path fill="none" stroke="black" d="M333.322,-217.323C312.045,-204.507 282.757,-186.866 256.4,-170.99"/>
<polygon fill="black" stroke="black" points="257.962,-167.844 247.59,-165.683 254.35,-173.841 257.962,-167.844"/>
<text text-anchor="middle" x="308" y="-187.8" font-family="Times,serif" font-size="14.00">g9</text>
</g>
<!-- Node0x478f9ef0 -->
<g id="node11" class="node"><title>Node0x478f9ef0</title>
<polygon fill="none" stroke="black" points="330.5,-23.5 330.5,-59.5 384.5,-59.5 384.5,-23.5 330.5,-23.5"/>
<text text-anchor="start" x="338.5" y="-37.8" font-family="Times,serif" font-size="14.00">exit:</text>
</g>
<!-- Node0x1519e380&#45;&gt;Node0x478f9ef0 -->
<g id="edge12" class="edge"><title>Node0x1519e380&#45;&gt;Node0x478f9ef0</title>
<path fill="none" stroke="black" d="M373.802,-217.301C380.907,-203.66 389.724,-184.276 393.5,-166 399.705,-135.968 402.324,-126.37 393.5,-97 390.416,-86.7372 384.704,-76.6248 378.723,-67.9503"/>
<polygon fill="black" stroke="black" points="381.481,-65.7918 372.741,-59.8026 375.838,-69.9347 381.481,-65.7918"/>
<text text-anchor="middle" x="428" y="-127.8" font-family="Times,serif" font-size="14.00">not (g9)</text>
</g>
<!-- Node0x151a2820&#45;&gt;Node0x478f9ef0 -->
<g id="edge13" class="edge"><title>Node0x151a2820&#45;&gt;Node0x478f9ef0</title>
<path fill="none" stroke="black" d="M254.409,-97.4817C276.987,-85.4404 301.762,-72.2269 321.365,-61.7718"/>
<polygon fill="black" stroke="black" points="323.084,-64.8217 330.261,-57.0276 319.79,-58.6453 323.084,-64.8217"/>
</g>
</g>
</svg>
