<?xml version="1.0" encoding="UTF-8" standalone="no"?>
<!DOCTYPE svg PUBLIC "-//W3C//DTD SVG 1.1//EN"
 "http://www.w3.org/Graphics/SVG/1.1/DTD/svg11.dtd">
<!-- Generated by graphviz version 2.38.0 (20140413.2041)
 -->
<!-- Title: Control&#45;flow graph for function &#39;function_1902c()&#39;. Pages: 1 -->
<svg width="719pt" height="1092pt"
 viewBox="0.00 0.00 719.00 1092.00" xmlns="http://www.w3.org/2000/svg" xmlns:xlink="http://www.w3.org/1999/xlink">
<g id="graph0" class="graph" transform="scale(1 1) rotate(0) translate(4 1088)">
<title>Control&#45;flow graph for function &#39;function_1902c()&#39;.</title>
<polygon fill="white" stroke="none" points="-4,4 -4,-1088 715,-1088 715,4 -4,4"/>
<text text-anchor="middle" x="355.5" y="-7.8" font-family="Times,serif" font-size="14.00">Control&#45;flow graph for function &#39;function_1902c()&#39;.</text>
<!-- Node0x153a54c0 -->
<g id="node1" class="node"><title>Node0x153a54c0</title>
<polygon fill="none" stroke="black" points="420.5,-1047.5 420.5,-1083.5 479.5,-1083.5 479.5,-1047.5 420.5,-1047.5"/>
<text text-anchor="start" x="428.5" y="-1061.8" font-family="Times,serif" font-size="14.00">entry:</text>
</g>
<!-- Node0xfcb3fa0 -->
<g id="node2" class="node"><title>Node0xfcb3fa0</title>
<polygon fill="none" stroke="black" points="286,-836.5 286,-1009.5 614,-1009.5 614,-836.5 286,-836.5"/>
<text text-anchor="start" x="294" y="-994.3" font-family="Times,serif" font-size="14.00">0x215038f0:</text>
<text text-anchor="start" x="294" y="-979.3" font-family="Times,serif" font-size="14.00"> v1 = g29</text>
<text text-anchor="start" x="294" y="-964.3" font-family="Times,serif" font-size="14.00"> v2 = *(IntToPtrCastExpr&lt;ptr&gt;((v1 + 60)))</text>
<text text-anchor="start" x="294" y="-949.3" font-family="Times,serif" font-size="14.00"> g37 = v2</text>
<text text-anchor="start" x="294" y="-934.3" font-family="Times,serif" font-size="14.00"> g9 = (v2 == 0)</text>
<text text-anchor="start" x="294" y="-919.3" font-family="Times,serif" font-size="14.00"> v3 = g38</text>
<text text-anchor="start" x="294" y="-904.3" font-family="Times,serif" font-size="14.00"> v4 = g39</text>
<text text-anchor="start" x="294" y="-889.3" font-family="Times,serif" font-size="14.00"> v5 = g35</text>
<text text-anchor="start" x="294" y="-874.3" font-family="Times,serif" font-size="14.00"> g39 = v1</text>
<text text-anchor="start" x="294" y="-859.3" font-family="Times,serif" font-size="14.00"> v6 = g30</text>
<text text-anchor="start" x="294" y="-844.3" font-family="Times,serif" font-size="14.00"> g38 = v6</text>
</g>
<!-- Node0x153a54c0&#45;&gt;Node0xfcb3fa0 -->
<g id="edge1" class="edge"><title>Node0x153a54c0&#45;&gt;Node0xfcb3fa0</title>
<path fill="none" stroke="black" d="M450,-1047.27C450,-1039.72 450,-1030.21 450,-1019.85"/>
<polygon fill="black" stroke="black" points="453.5,-1019.68 450,-1009.68 446.5,-1019.68 453.5,-1019.68"/>
</g>
<!-- Node0x39337a30 -->
<g id="node3" class="node"><title>Node0x39337a30</title>
<polygon fill="none" stroke="black" points="398,-760.5 398,-798.5 502,-798.5 502,-760.5 398,-760.5"/>
<text text-anchor="start" x="406" y="-783.3" font-family="Times,serif" font-size="14.00">0x8b130c0:</text>
<text text-anchor="start" x="406" y="-768.3" font-family="Times,serif" font-size="14.00"> if (v2 != 0):</text>
</g>
<!-- Node0xfcb3fa0&#45;&gt;Node0x39337a30 -->
<g id="edge2" class="edge"><title>Node0xfcb3fa0&#45;&gt;Node0x39337a30</title>
<path fill="none" stroke="black" d="M450,-836.425C450,-826.55 450,-817.079 450,-808.829"/>
<polygon fill="black" stroke="black" points="453.5,-808.754 450,-798.754 446.5,-808.754 453.5,-808.754"/>
</g>
<!-- Node0x243321b0 -->
<g id="node4" class="node"><title>Node0x243321b0</title>
<polygon fill="none" stroke="black" points="0,-610.5 0,-708.5 484,-708.5 484,-610.5 0,-610.5"/>
<text text-anchor="start" x="8" y="-693.3" font-family="Times,serif" font-size="14.00">0x8b120b0:</text>
<text text-anchor="start" x="8" y="-678.3" font-family="Times,serif" font-size="14.00"> g30 = v2</text>
<text text-anchor="start" x="8" y="-663.3" font-family="Times,serif" font-size="14.00"> g29 = v6</text>
<text text-anchor="start" x="8" y="-648.3" font-family="Times,serif" font-size="14.00"> g35 = 102492</text>
<text text-anchor="start" x="8" y="-633.3" font-family="Times,serif" font-size="14.00"> IntToPtrCastExpr&lt;ptr&gt;(*(IntToPtrCastExpr&lt;ptr&gt;((v6 + 12))))()</text>
<text text-anchor="start" x="8" y="-618.3" font-family="Times,serif" font-size="14.00"> v1 = g39</text>
</g>
<!-- Node0x39337a30&#45;&gt;Node0x243321b0 -->
<g id="edge3" class="edge"><title>Node0x39337a30&#45;&gt;Node0x243321b0</title>
<path fill="none" stroke="black" d="M417.956,-760.321C395.76,-747.729 364.988,-730.272 335.377,-713.473"/>
<polygon fill="black" stroke="black" points="337.076,-710.413 326.651,-708.523 333.622,-716.502 337.076,-710.413"/>
<text text-anchor="middle" x="410" y="-730.8" font-family="Times,serif" font-size="14.00">v2 != 0</text>
</g>
<!-- Node0x44c31870 -->
<g id="node5" class="node"><title>Node0x44c31870</title>
<polygon fill="none" stroke="black" points="280,-489.5 280,-572.5 608,-572.5 608,-489.5 280,-489.5"/>
<text text-anchor="start" x="288" y="-557.3" font-family="Times,serif" font-size="14.00">0x21503c90:</text>
<text text-anchor="start" x="288" y="-542.3" font-family="Times,serif" font-size="14.00"> v7 = *(IntToPtrCastExpr&lt;ptr&gt;((v1 + 16)))</text>
<text text-anchor="start" x="288" y="-527.3" font-family="Times,serif" font-size="14.00"> g30 = v7</text>
<text text-anchor="start" x="288" y="-512.3" font-family="Times,serif" font-size="14.00"> g9 = (v7 == 0)</text>
<text text-anchor="start" x="288" y="-497.3" font-family="Times,serif" font-size="14.00"> v8</text>
</g>
<!-- Node0x39337a30&#45;&gt;Node0x44c31870 -->
<g id="edge4" class="edge"><title>Node0x39337a30&#45;&gt;Node0x44c31870</title>
<path fill="none" stroke="black" d="M465.139,-760.392C475.216,-747.101 487.567,-728.107 493,-709 505.034,-666.678 505.179,-652.281 493,-610 490.211,-600.319 485.828,-590.678 480.803,-581.646"/>
<polygon fill="black" stroke="black" points="483.699,-579.666 475.6,-572.836 477.672,-583.226 483.699,-579.666"/>
<text text-anchor="middle" x="533" y="-655.8" font-family="Times,serif" font-size="14.00">v2 == 0</text>
</g>
<!-- Node0x243321b0&#45;&gt;Node0x44c31870 -->
<g id="edge5" class="edge"><title>Node0x243321b0&#45;&gt;Node0x44c31870</title>
<path fill="none" stroke="black" d="M318.656,-610.495C335.668,-599.841 353.661,-588.574 370.542,-578.002"/>
<polygon fill="black" stroke="black" points="372.64,-580.818 379.257,-572.544 368.924,-574.886 372.64,-580.818"/>
</g>
<!-- Node0x186fd560 -->
<g id="node6" class="node"><title>Node0x186fd560</title>
<polygon fill="none" stroke="black" points="392,-398.5 392,-451.5 496,-451.5 496,-398.5 392,-398.5"/>
<text text-anchor="start" x="400" y="-436.3" font-family="Times,serif" font-size="14.00">0x8b15060:</text>
<text text-anchor="start" x="400" y="-421.3" font-family="Times,serif" font-size="14.00"> if (v7 != 0):</text>
<text text-anchor="start" x="400" y="-406.3" font-family="Times,serif" font-size="14.00"> else:</text>
</g>
<!-- Node0x44c31870&#45;&gt;Node0x186fd560 -->
<g id="edge6" class="edge"><title>Node0x44c31870&#45;&gt;Node0x186fd560</title>
<path fill="none" stroke="black" d="M444,-489.493C444,-480.311 444,-470.625 444,-461.66"/>
<polygon fill="black" stroke="black" points="447.5,-461.541 444,-451.541 440.5,-461.541 447.5,-461.541"/>
</g>
<!-- Node0x15eb85e0 -->
<g id="node7" class="node"><title>Node0x15eb85e0</title>
<polygon fill="none" stroke="black" points="106,-248.5 106,-346.5 590,-346.5 590,-248.5 106,-248.5"/>
<text text-anchor="start" x="114" y="-331.3" font-family="Times,serif" font-size="14.00">0x21503ab0:</text>
<text text-anchor="start" x="114" y="-316.3" font-family="Times,serif" font-size="14.00"> v9 = g38</text>
<text text-anchor="start" x="114" y="-301.3" font-family="Times,serif" font-size="14.00"> g29 = v9</text>
<text text-anchor="start" x="114" y="-286.3" font-family="Times,serif" font-size="14.00"> g35 = 102516</text>
<text text-anchor="start" x="114" y="-271.3" font-family="Times,serif" font-size="14.00"> IntToPtrCastExpr&lt;ptr&gt;(*(IntToPtrCastExpr&lt;ptr&gt;((v9 + 12))))()</text>
<text text-anchor="start" x="114" y="-256.3" font-family="Times,serif" font-size="14.00"> v8 = g39</text>
</g>
<!-- Node0x186fd560&#45;&gt;Node0x15eb85e0 -->
<g id="edge7" class="edge"><title>Node0x186fd560&#45;&gt;Node0x15eb85e0</title>
<path fill="none" stroke="black" d="M424.341,-398.3C414.76,-385.775 402.833,-370.182 391.274,-355.071"/>
<polygon fill="black" stroke="black" points="393.763,-352.565 384.907,-346.749 388.203,-356.818 393.763,-352.565"/>
<text text-anchor="middle" x="438" y="-368.8" font-family="Times,serif" font-size="14.00">v7 != 0</text>
</g>
<!-- Node0x15eb9dc0 -->
<g id="node8" class="node"><title>Node0x15eb9dc0</title>
<polygon fill="none" stroke="black" points="608.5,-278.5 608.5,-316.5 709.5,-316.5 709.5,-278.5 608.5,-278.5"/>
<text text-anchor="start" x="616.5" y="-301.3" font-family="Times,serif" font-size="14.00">0x8b151e0:</text>
<text text-anchor="start" x="616.5" y="-286.3" font-family="Times,serif" font-size="14.00"> v8 = v1</text>
</g>
<!-- Node0x186fd560&#45;&gt;Node0x15eb9dc0 -->
<g id="edge8" class="edge"><title>Node0x186fd560&#45;&gt;Node0x15eb9dc0</title>
<path fill="none" stroke="black" d="M496.147,-401.568C526.97,-387.469 566.25,-368.012 599,-347 610.009,-339.937 621.35,-331.205 631.168,-323.105"/>
<polygon fill="black" stroke="black" points="633.618,-325.617 639.016,-316.5 629.111,-320.261 633.618,-325.617"/>
<text text-anchor="middle" x="596" y="-368.8" font-family="Times,serif" font-size="14.00">v7 == 0</text>
</g>
<!-- Node0x47cf1f70 -->
<g id="node9" class="node"><title>Node0x47cf1f70</title>
<polygon fill="none" stroke="black" points="367,-97.5 367,-210.5 711,-210.5 711,-97.5 367,-97.5"/>
<text text-anchor="start" x="375" y="-195.3" font-family="Times,serif" font-size="14.00">0x8b15330:</text>
<text text-anchor="start" x="375" y="-180.3" font-family="Times,serif" font-size="14.00"> g38 = v3</text>
<text text-anchor="start" x="375" y="-165.3" font-family="Times,serif" font-size="14.00"> g39 = v4</text>
<text text-anchor="start" x="375" y="-150.3" font-family="Times,serif" font-size="14.00"> v10</text>
<text text-anchor="start" x="375" y="-135.3" font-family="Times,serif" font-size="14.00"> g34 = v10</text>
<text text-anchor="start" x="375" y="-120.3" font-family="Times,serif" font-size="14.00"> g35 = v5</text>
<text text-anchor="start" x="375" y="-105.3" font-family="Times,serif" font-size="14.00"> memset(IntToPtrCastExpr&lt;ptr&gt;(v8), g10, 0)</text>
</g>
<!-- Node0x15eb85e0&#45;&gt;Node0x47cf1f70 -->
<g id="edge9" class="edge"><title>Node0x15eb85e0&#45;&gt;Node0x47cf1f70</title>
<path fill="none" stroke="black" d="M412.93,-248.397C426.672,-238.217 441.357,-227.337 455.672,-216.733"/>
<polygon fill="black" stroke="black" points="458.095,-219.293 464.047,-210.528 453.928,-213.668 458.095,-219.293"/>
</g>
<!-- Node0x15eb9dc0&#45;&gt;Node0x47cf1f70 -->
<g id="edge10" class="edge"><title>Node0x15eb9dc0&#45;&gt;Node0x47cf1f70</title>
<path fill="none" stroke="black" d="M643.558,-278.291C630.591,-263.001 611.263,-240.21 592.739,-218.368"/>
<polygon fill="black" stroke="black" points="595.37,-216.058 586.233,-210.695 590.031,-220.586 595.37,-216.058"/>
</g>
<!-- Node0x1ea8ed20 -->
<g id="node10" class="node"><title>Node0x1ea8ed20</title>
<polygon fill="none" stroke="black" points="512,-23.5 512,-59.5 566,-59.5 566,-23.5 512,-23.5"/>
<text text-anchor="start" x="520" y="-37.8" font-family="Times,serif" font-size="14.00">exit:</text>
</g>
<!-- Node0x47cf1f70&#45;&gt;Node0x1ea8ed20 -->
<g id="edge11" class="edge"><title>Node0x47cf1f70&#45;&gt;Node0x1ea8ed20</title>
<path fill="none" stroke="black" d="M539,-97.4263C539,-87.8599 539,-78.3065 539,-69.9133"/>
<polygon fill="black" stroke="black" points="542.5,-69.6444 539,-59.6444 535.5,-69.6444 542.5,-69.6444"/>
</g>
</g>
</svg>
