<?xml version="1.0" encoding="UTF-8" standalone="no"?>
<!DOCTYPE svg PUBLIC "-//W3C//DTD SVG 1.1//EN"
 "http://www.w3.org/Graphics/SVG/1.1/DTD/svg11.dtd">
<!-- Generated by graphviz version 2.38.0 (20140413.2041)
 -->
<!-- Title: Control&#45;flow graph for function &#39;SpPlayPreset()&#39;. Pages: 1 -->
<svg width="538pt" height="1423pt"
 viewBox="0.00 0.00 538.00 1423.00" xmlns="http://www.w3.org/2000/svg" xmlns:xlink="http://www.w3.org/1999/xlink">
<g id="graph0" class="graph" transform="scale(1 1) rotate(0) translate(4 1419)">
<title>Control&#45;flow graph for function &#39;SpPlayPreset()&#39;.</title>
<polygon fill="white" stroke="none" points="-4,4 -4,-1419 534,-1419 534,4 -4,4"/>
<text text-anchor="middle" x="265" y="-7.8" font-family="Times,serif" font-size="14.00">Control&#45;flow graph for function &#39;SpPlayPreset()&#39;.</text>
<!-- Node0x39807110 -->
<g id="node1" class="node"><title>Node0x39807110</title>
<polygon fill="none" stroke="black" points="343,-1378.5 343,-1414.5 402,-1414.5 402,-1378.5 343,-1378.5"/>
<text text-anchor="start" x="351" y="-1392.8" font-family="Times,serif" font-size="14.00">entry:</text>
</g>
<!-- Node0x1e2e1790 -->
<g id="node2" class="node"><title>Node0x1e2e1790</title>
<polygon fill="none" stroke="black" points="215,-1107.5 215,-1340.5 530,-1340.5 530,-1107.5 215,-1107.5"/>
<text text-anchor="start" x="223" y="-1325.3" font-family="Times,serif" font-size="14.00">0x30df4f10:</text>
<text text-anchor="start" x="223" y="-1310.3" font-family="Times,serif" font-size="14.00"> v1 = g38</text>
<text text-anchor="start" x="223" y="-1295.3" font-family="Times,serif" font-size="14.00"> v2 = g39</text>
<text text-anchor="start" x="223" y="-1280.3" font-family="Times,serif" font-size="14.00"> v3 = g40</text>
<text text-anchor="start" x="223" y="-1265.3" font-family="Times,serif" font-size="14.00"> v4 = g41</text>
<text text-anchor="start" x="223" y="-1250.3" font-family="Times,serif" font-size="14.00"> g38 = 165012</text>
<text text-anchor="start" x="223" y="-1235.3" font-family="Times,serif" font-size="14.00"> v5 = *(IntToPtrCastExpr&lt;ptr&gt;(165212))</text>
<text text-anchor="start" x="223" y="-1220.3" font-family="Times,serif" font-size="14.00"> g41 = v5</text>
<text text-anchor="start" x="223" y="-1205.3" font-family="Times,serif" font-size="14.00"> v6 = *(IntToPtrCastExpr&lt;ptr&gt;(v5))</text>
<text text-anchor="start" x="223" y="-1190.3" font-family="Times,serif" font-size="14.00"> g33 = v6</text>
<text text-anchor="start" x="223" y="-1175.3" font-family="Times,serif" font-size="14.00"> v7 = g29</text>
<text text-anchor="start" x="223" y="-1160.3" font-family="Times,serif" font-size="14.00"> g40 = v7</text>
<text text-anchor="start" x="223" y="-1145.3" font-family="Times,serif" font-size="14.00"> v8 = g30</text>
<text text-anchor="start" x="223" y="-1130.3" font-family="Times,serif" font-size="14.00"> g39 = v8</text>
<text text-anchor="start" x="223" y="-1115.3" font-family="Times,serif" font-size="14.00"> v9 = v7</text>
</g>
<!-- Node0x39807110&#45;&gt;Node0x1e2e1790 -->
<g id="edge1" class="edge"><title>Node0x39807110&#45;&gt;Node0x1e2e1790</title>
<path fill="none" stroke="black" d="M372.5,-1378.21C372.5,-1370.69 372.5,-1361.17 372.5,-1350.57"/>
<polygon fill="black" stroke="black" points="376,-1350.56 372.5,-1340.56 369,-1350.56 376,-1350.56"/>
</g>
<!-- Node0x39808b10 -->
<g id="node3" class="node"><title>Node0x39808b10</title>
<polygon fill="none" stroke="black" points="320.5,-1031.5 320.5,-1069.5 424.5,-1069.5 424.5,-1031.5 320.5,-1031.5"/>
<text text-anchor="start" x="328.5" y="-1054.3" font-family="Times,serif" font-size="14.00">0x81ca1e0:</text>
<text text-anchor="start" x="328.5" y="-1039.3" font-family="Times,serif" font-size="14.00"> if (v6 != 0):</text>
</g>
<!-- Node0x1e2e1790&#45;&gt;Node0x39808b10 -->
<g id="edge2" class="edge"><title>Node0x1e2e1790&#45;&gt;Node0x39808b10</title>
<path fill="none" stroke="black" d="M372.5,-1107.18C372.5,-1097.25 372.5,-1087.94 372.5,-1079.88"/>
<polygon fill="black" stroke="black" points="376,-1079.72 372.5,-1069.72 369,-1079.72 376,-1079.72"/>
</g>
<!-- Node0x38e85580 -->
<g id="node4" class="node"><title>Node0x38e85580</title>
<polygon fill="none" stroke="black" points="160.5,-896.5 160.5,-979.5 372.5,-979.5 372.5,-896.5 160.5,-896.5"/>
<text text-anchor="start" x="168.5" y="-964.3" font-family="Times,serif" font-size="14.00">0x81c9550:</text>
<text text-anchor="start" x="168.5" y="-949.3" font-family="Times,serif" font-size="14.00"> g36 = v7</text>
<text text-anchor="start" x="168.5" y="-934.3" font-family="Times,serif" font-size="14.00"> imported_function_ord_0()</text>
<text text-anchor="start" x="168.5" y="-919.3" font-family="Times,serif" font-size="14.00"> v9 = g40</text>
<text text-anchor="start" x="168.5" y="-904.3" font-family="Times,serif" font-size="14.00"> v8 = g39</text>
</g>
<!-- Node0x39808b10&#45;&gt;Node0x38e85580 -->
<g id="edge3" class="edge"><title>Node0x39808b10&#45;&gt;Node0x38e85580</title>
<path fill="none" stroke="black" d="M354.996,-1031.25C343.475,-1019.24 327.811,-1002.91 312.863,-987.331"/>
<polygon fill="black" stroke="black" points="315.052,-984.557 305.604,-979.764 310,-989.403 315.052,-984.557"/>
<text text-anchor="middle" x="362.5" y="-1001.8" font-family="Times,serif" font-size="14.00">v6 != 0</text>
</g>
<!-- Node0x39809110 -->
<g id="node5" class="node"><title>Node0x39809110</title>
<polygon fill="none" stroke="black" points="218,-700.5 218,-858.5 515,-858.5 515,-700.5 218,-700.5"/>
<text text-anchor="start" x="226" y="-843.3" font-family="Times,serif" font-size="14.00">0x81ca360:</text>
<text text-anchor="start" x="226" y="-828.3" font-family="Times,serif" font-size="14.00"> g30 = v8</text>
<text text-anchor="start" x="226" y="-813.3" font-family="Times,serif" font-size="14.00"> g29 = v9</text>
<text text-anchor="start" x="226" y="-798.3" font-family="Times,serif" font-size="14.00"> function_16584()</text>
<text text-anchor="start" x="226" y="-783.3" font-family="Times,serif" font-size="14.00"> v10 = *(IntToPtrCastExpr&lt;ptr&gt;(g41))</text>
<text text-anchor="start" x="226" y="-768.3" font-family="Times,serif" font-size="14.00"> g37 = v10</text>
<text text-anchor="start" x="226" y="-753.3" font-family="Times,serif" font-size="14.00"> v11 = g29</text>
<text text-anchor="start" x="226" y="-738.3" font-family="Times,serif" font-size="14.00"> g39 = v11</text>
<text text-anchor="start" x="226" y="-723.3" font-family="Times,serif" font-size="14.00"> g9 = (v10 == 0)</text>
<text text-anchor="start" x="226" y="-708.3" font-family="Times,serif" font-size="14.00"> v12 = v11</text>
</g>
<!-- Node0x39808b10&#45;&gt;Node0x39809110 -->
<g id="edge4" class="edge"><title>Node0x39808b10&#45;&gt;Node0x39809110</title>
<path fill="none" stroke="black" d="M385.396,-1031.38C388.702,-1025.76 391.802,-1019.36 393.5,-1013 395.221,-1006.56 393.89,-1004.66 393.5,-998 390.996,-955.282 385.481,-908.122 380.084,-868.667"/>
<polygon fill="black" stroke="black" points="383.521,-867.97 378.68,-858.546 376.588,-868.932 383.521,-867.97"/>
<text text-anchor="middle" x="422.5" y="-934.3" font-family="Times,serif" font-size="14.00">v6 == 0</text>
</g>
<!-- Node0x38e85580&#45;&gt;Node0x39809110 -->
<g id="edge5" class="edge"><title>Node0x38e85580&#45;&gt;Node0x39809110</title>
<path fill="none" stroke="black" d="M292.513,-896.29C298.3,-887.233 304.649,-877.297 311.119,-867.171"/>
<polygon fill="black" stroke="black" points="314.138,-868.947 316.573,-858.635 308.239,-865.177 314.138,-868.947"/>
</g>
<!-- Node0x39805ab0 -->
<g id="node6" class="node"><title>Node0x39805ab0</title>
<polygon fill="none" stroke="black" points="310,-624.5 310,-662.5 423,-662.5 423,-624.5 310,-624.5"/>
<text text-anchor="start" x="318" y="-647.3" font-family="Times,serif" font-size="14.00">0x81cc870:</text>
<text text-anchor="start" x="318" y="-632.3" font-family="Times,serif" font-size="14.00"> if (v10 != 0):</text>
</g>
<!-- Node0x39809110&#45;&gt;Node0x39805ab0 -->
<g id="edge6" class="edge"><title>Node0x39809110&#45;&gt;Node0x39805ab0</title>
<path fill="none" stroke="black" d="M366.5,-700.164C366.5,-690.447 366.5,-681.058 366.5,-672.846"/>
<polygon fill="black" stroke="black" points="370,-672.801 366.5,-662.801 363,-672.801 370,-672.801"/>
</g>
<!-- Node0x470fb010 -->
<g id="node7" class="node"><title>Node0x470fb010</title>
<polygon fill="none" stroke="black" points="157.5,-489.5 157.5,-572.5 369.5,-572.5 369.5,-489.5 157.5,-489.5"/>
<text text-anchor="start" x="165.5" y="-557.3" font-family="Times,serif" font-size="14.00">0x81cbe80:</text>
<text text-anchor="start" x="165.5" y="-542.3" font-family="Times,serif" font-size="14.00"> g30 = (g38 &#45; 8192)</text>
<text text-anchor="start" x="165.5" y="-527.3" font-family="Times,serif" font-size="14.00"> g36 = v11</text>
<text text-anchor="start" x="165.5" y="-512.3" font-family="Times,serif" font-size="14.00"> imported_function_ord_0()</text>
<text text-anchor="start" x="165.5" y="-497.3" font-family="Times,serif" font-size="14.00"> v12 = g39</text>
</g>
<!-- Node0x39805ab0&#45;&gt;Node0x470fb010 -->
<g id="edge7" class="edge"><title>Node0x39805ab0&#45;&gt;Node0x470fb010</title>
<path fill="none" stroke="black" d="M346.858,-624.242C340.861,-618.506 334.317,-612.082 328.5,-606 320.73,-597.876 312.664,-589.044 304.966,-580.404"/>
<polygon fill="black" stroke="black" points="307.561,-578.054 298.314,-572.883 302.318,-582.692 307.561,-578.054"/>
<text text-anchor="middle" x="360" y="-594.8" font-family="Times,serif" font-size="14.00">v10 != 0</text>
</g>
<!-- Node0x470f7d50 -->
<g id="node8" class="node"><title>Node0x470f7d50</title>
<polygon fill="none" stroke="black" points="242.5,-293.5 242.5,-451.5 484.5,-451.5 484.5,-293.5 242.5,-293.5"/>
<text text-anchor="start" x="250.5" y="-436.3" font-family="Times,serif" font-size="14.00">0x81cc9f0:</text>
<text text-anchor="start" x="250.5" y="-421.3" font-family="Times,serif" font-size="14.00"> g29 = v12</text>
<text text-anchor="start" x="250.5" y="-406.3" font-family="Times,serif" font-size="14.00"> g38 = v1</text>
<text text-anchor="start" x="250.5" y="-391.3" font-family="Times,serif" font-size="14.00"> g39 = v2</text>
<text text-anchor="start" x="250.5" y="-376.3" font-family="Times,serif" font-size="14.00"> g40 = v3</text>
<text text-anchor="start" x="250.5" y="-361.3" font-family="Times,serif" font-size="14.00"> g41 = v4</text>
<text text-anchor="start" x="250.5" y="-346.3" font-family="Times,serif" font-size="14.00"> v13</text>
<text text-anchor="start" x="250.5" y="-331.3" font-family="Times,serif" font-size="14.00"> g34 = v13</text>
<text text-anchor="start" x="250.5" y="-316.3" font-family="Times,serif" font-size="14.00"> IntToPtrCastExpr&lt;ptr&gt;(g35)()</text>
<text text-anchor="start" x="250.5" y="-301.3" font-family="Times,serif" font-size="14.00"> v14 = (g34 % 256)</text>
</g>
<!-- Node0x39805ab0&#45;&gt;Node0x470f7d50 -->
<g id="edge8" class="edge"><title>Node0x39805ab0&#45;&gt;Node0x470f7d50</title>
<path fill="none" stroke="black" d="M382.086,-624.316C385.922,-618.787 389.501,-612.457 391.5,-606 393.472,-599.632 391.922,-597.653 391.5,-591 388.788,-548.27 383.055,-501.109 377.479,-461.655"/>
<polygon fill="black" stroke="black" points="380.912,-460.938 376.029,-451.536 373.983,-461.931 380.912,-460.938"/>
<text text-anchor="middle" x="425" y="-527.3" font-family="Times,serif" font-size="14.00">v10 == 0</text>
</g>
<!-- Node0x470fb010&#45;&gt;Node0x470f7d50 -->
<g id="edge9" class="edge"><title>Node0x470fb010&#45;&gt;Node0x470f7d50</title>
<path fill="none" stroke="black" d="M289.513,-489.29C295.3,-480.233 301.649,-470.297 308.119,-460.171"/>
<polygon fill="black" stroke="black" points="311.138,-461.947 313.573,-451.635 305.239,-458.177 311.138,-461.947"/>
</g>
<!-- Node0x44384b90 -->
<g id="node9" class="node"><title>Node0x44384b90</title>
<polygon fill="none" stroke="black" points="315,-217.5 315,-255.5 412,-255.5 412,-217.5 315,-217.5"/>
<text text-anchor="start" x="323" y="-240.3" font-family="Times,serif" font-size="14.00">0x81cf0d0:</text>
<text text-anchor="start" x="323" y="-225.3" font-family="Times,serif" font-size="14.00"> if g9:</text>
</g>
<!-- Node0x470f7d50&#45;&gt;Node0x44384b90 -->
<g id="edge10" class="edge"><title>Node0x470f7d50&#45;&gt;Node0x44384b90</title>
<path fill="none" stroke="black" d="M363.5,-293.164C363.5,-283.447 363.5,-274.058 363.5,-265.846"/>
<polygon fill="black" stroke="black" points="367,-265.801 363.5,-255.801 360,-265.801 367,-265.801"/>
</g>
<!-- Node0x470fea10 -->
<g id="node10" class="node"><title>Node0x470fea10</title>
<polygon fill="none" stroke="black" points="0,-97.5 0,-165.5 385,-165.5 385,-97.5 0,-97.5"/>
<text text-anchor="start" x="8" y="-150.3" font-family="Times,serif" font-size="14.00">0x17a6c760:</text>
<text text-anchor="start" x="8" y="-135.3" font-family="Times,serif" font-size="14.00"> v15 = g29</text>
<text text-anchor="start" x="8" y="-120.3" font-family="Times,serif" font-size="14.00"> g37 = (g30 &amp; (v15 &gt;&gt; (32 if (v14 &gt; 32) else v14)))</text>
<text text-anchor="start" x="8" y="-105.3" font-family="Times,serif" font-size="14.00"> g29 = ((g42 / 2) &amp; v15)</text>
</g>
<!-- Node0x44384b90&#45;&gt;Node0x470fea10 -->
<g id="edge11" class="edge"><title>Node0x44384b90&#45;&gt;Node0x470fea10</title>
<path fill="none" stroke="black" d="M333.322,-217.323C312.045,-204.507 282.757,-186.866 256.4,-170.99"/>
<polygon fill="black" stroke="black" points="257.962,-167.844 247.59,-165.683 254.35,-173.841 257.962,-167.844"/>
<text text-anchor="middle" x="308" y="-187.8" font-family="Times,serif" font-size="14.00">g9</text>
</g>
<!-- Node0x39807d10 -->
<g id="node11" class="node"><title>Node0x39807d10</title>
<polygon fill="none" stroke="black" points="330.5,-23.5 330.5,-59.5 384.5,-59.5 384.5,-23.5 330.5,-23.5"/>
<text text-anchor="start" x="338.5" y="-37.8" font-family="Times,serif" font-size="14.00">exit:</text>
</g>
<!-- Node0x44384b90&#45;&gt;Node0x39807d10 -->
<g id="edge12" class="edge"><title>Node0x44384b90&#45;&gt;Node0x39807d10</title>
<path fill="none" stroke="black" d="M373.802,-217.301C380.907,-203.66 389.724,-184.276 393.5,-166 399.705,-135.968 402.324,-126.37 393.5,-97 390.416,-86.7372 384.704,-76.6248 378.723,-67.9503"/>
<polygon fill="black" stroke="black" points="381.481,-65.7918 372.741,-59.8026 375.838,-69.9347 381.481,-65.7918"/>
<text text-anchor="middle" x="428" y="-127.8" font-family="Times,serif" font-size="14.00">not (g9)</text>
</g>
<!-- Node0x470fea10&#45;&gt;Node0x39807d10 -->
<g id="edge13" class="edge"><title>Node0x470fea10&#45;&gt;Node0x39807d10</title>
<path fill="none" stroke="black" d="M254.409,-97.4817C276.987,-85.4404 301.762,-72.2269 321.365,-61.7718"/>
<polygon fill="black" stroke="black" points="323.084,-64.8217 330.261,-57.0276 319.79,-58.6453 323.084,-64.8217"/>
</g>
</g>
</svg>
