<?xml version="1.0" encoding="UTF-8" standalone="no"?>
<!DOCTYPE svg PUBLIC "-//W3C//DTD SVG 1.1//EN"
 "http://www.w3.org/Graphics/SVG/1.1/DTD/svg11.dtd">
<!-- Generated by graphviz version 2.38.0 (20140413.2041)
 -->
<!-- Title: Control&#45;flow graph for function &#39;function_bccc()&#39;. Pages: 1 -->
<svg width="734pt" height="1807pt"
 viewBox="0.00 0.00 733.50 1807.00" xmlns="http://www.w3.org/2000/svg" xmlns:xlink="http://www.w3.org/1999/xlink">
<g id="graph0" class="graph" transform="scale(1 1) rotate(0) translate(4 1803)">
<title>Control&#45;flow graph for function &#39;function_bccc()&#39;.</title>
<polygon fill="white" stroke="none" points="-4,4 -4,-1803 729.5,-1803 729.5,4 -4,4"/>
<text text-anchor="middle" x="362.75" y="-7.8" font-family="Times,serif" font-size="14.00">Control&#45;flow graph for function &#39;function_bccc()&#39;.</text>
<!-- Node0x15cf2460 -->
<g id="node1" class="node"><title>Node0x15cf2460</title>
<polygon fill="none" stroke="black" points="242,-1762.5 242,-1798.5 301,-1798.5 301,-1762.5 242,-1762.5"/>
<text text-anchor="start" x="250" y="-1776.8" font-family="Times,serif" font-size="14.00">entry:</text>
</g>
<!-- Node0x47231c90 -->
<g id="node2" class="node"><title>Node0x47231c90</title>
<polygon fill="none" stroke="black" points="76,-1431.5 76,-1724.5 467,-1724.5 467,-1431.5 76,-1431.5"/>
<text text-anchor="start" x="84" y="-1709.3" font-family="Times,serif" font-size="14.00">0x1801e0a0:</text>
<text text-anchor="start" x="84" y="-1694.3" font-family="Times,serif" font-size="14.00"> v1 = g38</text>
<text text-anchor="start" x="84" y="-1679.3" font-family="Times,serif" font-size="14.00"> v2 = g39</text>
<text text-anchor="start" x="84" y="-1664.3" font-family="Times,serif" font-size="14.00"> v3 = g32</text>
<text text-anchor="start" x="84" y="-1649.3" font-family="Times,serif" font-size="14.00"> v4 = g35</text>
<text text-anchor="start" x="84" y="-1634.3" font-family="Times,serif" font-size="14.00"> v5 = g29</text>
<text text-anchor="start" x="84" y="-1619.3" font-family="Times,serif" font-size="14.00"> v6 = *(IntToPtrCastExpr&lt;ptr&gt;((v5 + 92)))</text>
<text text-anchor="start" x="84" y="-1604.3" font-family="Times,serif" font-size="14.00"> g36 = &#45;128</text>
<text text-anchor="start" x="84" y="-1589.3" font-family="Times,serif" font-size="14.00"> g30 = (v6 + 1)</text>
<text text-anchor="start" x="84" y="-1574.3" font-family="Times,serif" font-size="14.00"> g38 = v5</text>
<text text-anchor="start" x="84" y="-1559.3" font-family="Times,serif" font-size="14.00"> g39 = 0</text>
<text text-anchor="start" x="84" y="-1544.3" font-family="Times,serif" font-size="14.00"> *(IntToPtrCastExpr&lt;ptr&gt;(((v6 + v5) + 28))) = &#45;128</text>
<text text-anchor="start" x="84" y="-1529.3" font-family="Times,serif" font-size="14.00"> *(IntToPtrCastExpr&lt;ptr&gt;((g29 + 92))) = g30</text>
<text text-anchor="start" x="84" y="-1514.3" font-family="Times,serif" font-size="14.00"> v7 = g38</text>
<text text-anchor="start" x="84" y="-1499.3" font-family="Times,serif" font-size="14.00"> v8 = *(IntToPtrCastExpr&lt;ptr&gt;((v7 + 92)))</text>
<text text-anchor="start" x="84" y="-1484.3" font-family="Times,serif" font-size="14.00"> g37 = v8</text>
<text text-anchor="start" x="84" y="-1469.3" font-family="Times,serif" font-size="14.00"> g9 = (v8 == 56)</text>
<text text-anchor="start" x="84" y="-1454.3" font-family="Times,serif" font-size="14.00"> v9</text>
<text text-anchor="start" x="84" y="-1439.3" font-family="Times,serif" font-size="14.00"> v10</text>
</g>
<!-- Node0x15cf2460&#45;&gt;Node0x47231c90 -->
<g id="edge1" class="edge"><title>Node0x15cf2460&#45;&gt;Node0x47231c90</title>
<path fill="none" stroke="black" d="M271.5,-1762.41C271.5,-1755.01 271.5,-1745.6 271.5,-1734.97"/>
<polygon fill="black" stroke="black" points="275,-1734.89 271.5,-1724.89 268,-1734.89 275,-1734.89"/>
</g>
<!-- Node0x472333c0 -->
<g id="node3" class="node"><title>Node0x472333c0</title>
<polygon fill="none" stroke="black" points="212,-1355.5 212,-1393.5 331,-1393.5 331,-1355.5 212,-1355.5"/>
<text text-anchor="start" x="220" y="-1378.3" font-family="Times,serif" font-size="14.00">0x73954f0:</text>
<text text-anchor="start" x="220" y="-1363.3" font-family="Times,serif" font-size="14.00"> if (v8 == 56):</text>
</g>
<!-- Node0x47231c90&#45;&gt;Node0x472333c0 -->
<g id="edge2" class="edge"><title>Node0x47231c90&#45;&gt;Node0x472333c0</title>
<path fill="none" stroke="black" d="M271.5,-1431.36C271.5,-1421.25 271.5,-1411.89 271.5,-1403.85"/>
<polygon fill="black" stroke="black" points="275,-1403.73 271.5,-1393.73 268,-1403.73 275,-1403.73"/>
</g>
<!-- Node0x47233ad0 -->
<g id="node4" class="node"><title>Node0x47233ad0</title>
<polygon fill="none" stroke="black" points="0,-998.5 0,-1246.5 347,-1246.5 347,-998.5 0,-998.5"/>
<text text-anchor="start" x="8" y="-1231.3" font-family="Times,serif" font-size="14.00">0x73935b0:</text>
<text text-anchor="start" x="8" y="-1216.3" font-family="Times,serif" font-size="14.00"> g29 = *(IntToPtrCastExpr&lt;ptr&gt;((v7 + 24)))</text>
<text text-anchor="start" x="8" y="-1201.3" font-family="Times,serif" font-size="14.00"> g30 = (v7 + 84)</text>
<text text-anchor="start" x="8" y="-1186.3" font-family="Times,serif" font-size="14.00"> function_12fe0()</text>
<text text-anchor="start" x="8" y="-1171.3" font-family="Times,serif" font-size="14.00"> v10 = g38</text>
<text text-anchor="start" x="8" y="-1156.3" font-family="Times,serif" font-size="14.00"> g29 = *(IntToPtrCastExpr&lt;ptr&gt;((v10 + 20)))</text>
<text text-anchor="start" x="8" y="-1141.3" font-family="Times,serif" font-size="14.00"> g30 = (v10 + 88)</text>
<text text-anchor="start" x="8" y="-1126.3" font-family="Times,serif" font-size="14.00"> function_12fe0()</text>
<text text-anchor="start" x="8" y="-1111.3" font-family="Times,serif" font-size="14.00"> g29 = g38</text>
<text text-anchor="start" x="8" y="-1096.3" font-family="Times,serif" font-size="14.00"> g38 = v1</text>
<text text-anchor="start" x="8" y="-1081.3" font-family="Times,serif" font-size="14.00"> g39 = v2</text>
<text text-anchor="start" x="8" y="-1066.3" font-family="Times,serif" font-size="14.00"> g32 = v3</text>
<text text-anchor="start" x="8" y="-1051.3" font-family="Times,serif" font-size="14.00"> g34 = v9</text>
<text text-anchor="start" x="8" y="-1036.3" font-family="Times,serif" font-size="14.00"> g35 = v4</text>
<text text-anchor="start" x="8" y="-1021.3" font-family="Times,serif" font-size="14.00"> function_b9e8()</text>
<text text-anchor="start" x="8" y="-1006.3" font-family="Times,serif" font-size="14.00"> return</text>
</g>
<!-- Node0x472333c0&#45;&gt;Node0x47233ad0 -->
<g id="edge3" class="edge"><title>Node0x472333c0&#45;&gt;Node0x47233ad0</title>
<path fill="none" stroke="black" d="M264.294,-1355.12C255.782,-1333.4 240.83,-1295.26 225.486,-1256.12"/>
<polygon fill="black" stroke="black" points="228.699,-1254.72 221.791,-1246.69 222.182,-1257.28 228.699,-1254.72"/>
<text text-anchor="middle" x="292" y="-1325.8" font-family="Times,serif" font-size="14.00">v8 == 56</text>
</g>
<!-- Node0x47232cd0 -->
<g id="node5" class="node"><title>Node0x47232cd0</title>
<polygon fill="none" stroke="black" points="379,-1265.5 379,-1303.5 480,-1303.5 480,-1265.5 379,-1265.5"/>
<text text-anchor="start" x="387" y="-1288.3" font-family="Times,serif" font-size="14.00">0x739c260:</text>
<text text-anchor="start" x="387" y="-1273.3" font-family="Times,serif" font-size="14.00"> while True:</text>
</g>
<!-- Node0x472333c0&#45;&gt;Node0x47232cd0 -->
<g id="edge4" class="edge"><title>Node0x472333c0&#45;&gt;Node0x47232cd0</title>
<path fill="none" stroke="black" d="M303.855,-1355.48C328.164,-1341.94 361.653,-1323.29 387.945,-1308.64"/>
<polygon fill="black" stroke="black" points="389.884,-1311.57 396.917,-1303.65 386.478,-1305.46 389.884,-1311.57"/>
<text text-anchor="middle" x="392" y="-1325.8" font-family="Times,serif" font-size="14.00">v8 != 56</text>
</g>
<!-- Node0x472326a0 -->
<g id="node6" class="node"><title>Node0x472326a0</title>
<polygon fill="none" stroke="black" points="120.5,-23.5 120.5,-59.5 174.5,-59.5 174.5,-23.5 120.5,-23.5"/>
<text text-anchor="start" x="128.5" y="-37.8" font-family="Times,serif" font-size="14.00">exit:</text>
</g>
<!-- Node0x47233ad0&#45;&gt;Node0x472326a0 -->
<g id="edge5" class="edge"><title>Node0x47233ad0&#45;&gt;Node0x472326a0</title>
<path fill="none" stroke="black" d="M108.99,-998.318C98.7747,-969.457 91.5,-938.276 91.5,-908 91.5,-908 91.5,-908 91.5,-213 91.5,-160.757 91.1519,-145.528 110.5,-97 114.566,-86.8019 120.786,-76.5883 126.972,-67.8049"/>
<polygon fill="black" stroke="black" points="129.941,-69.6755 133.066,-59.5519 124.31,-65.5173 129.941,-69.6755"/>
</g>
<!-- Node0x472351c0 -->
<g id="node7" class="node"><title>Node0x472351c0</title>
<polygon fill="none" stroke="black" points="360,-926.5 360,-979.5 499,-979.5 499,-926.5 360,-926.5"/>
<text text-anchor="start" x="368" y="-964.3" font-family="Times,serif" font-size="14.00">0x7395c50:</text>
<text text-anchor="start" x="368" y="-949.3" font-family="Times,serif" font-size="14.00"> g9 = (v8 == 64)</text>
<text text-anchor="start" x="368" y="-934.3" font-family="Times,serif" font-size="14.00"> v11 = v7</text>
</g>
<!-- Node0x47232cd0&#45;&gt;Node0x472351c0 -->
<g id="edge6" class="edge"><title>Node0x47232cd0&#45;&gt;Node0x472351c0</title>
<path fill="none" stroke="black" d="M429.5,-1265.32C429.5,-1212.7 429.5,-1059.63 429.5,-989.652"/>
<polygon fill="black" stroke="black" points="433,-989.558 429.5,-979.558 426,-989.558 433,-989.558"/>
<text text-anchor="middle" x="446.5" y="-1118.8" font-family="Times,serif" font-size="14.00">True</text>
</g>
<!-- Node0x15cf4b90 -->
<g id="node8" class="node"><title>Node0x15cf4b90</title>
<polygon fill="none" stroke="black" points="370,-850.5 370,-888.5 489,-888.5 489,-850.5 370,-850.5"/>
<text text-anchor="start" x="378" y="-873.3" font-family="Times,serif" font-size="14.00">0x7396a60:</text>
<text text-anchor="start" x="378" y="-858.3" font-family="Times,serif" font-size="14.00"> if (v8 == 64):</text>
</g>
<!-- Node0x472351c0&#45;&gt;Node0x15cf4b90 -->
<g id="edge7" class="edge"><title>Node0x472351c0&#45;&gt;Node0x15cf4b90</title>
<path fill="none" stroke="black" d="M429.5,-926.213C429.5,-917.526 429.5,-907.787 429.5,-898.91"/>
<polygon fill="black" stroke="black" points="433,-898.638 429.5,-888.638 426,-898.638 433,-898.638"/>
</g>
<!-- Node0x15cf56a0 -->
<g id="node9" class="node"><title>Node0x15cf56a0</title>
<polygon fill="none" stroke="black" points="289.5,-730.5 289.5,-798.5 423.5,-798.5 423.5,-730.5 289.5,-730.5"/>
<text text-anchor="start" x="297.5" y="-783.3" font-family="Times,serif" font-size="14.00">0x7396240:</text>
<text text-anchor="start" x="297.5" y="-768.3" font-family="Times,serif" font-size="14.00"> g29 = v7</text>
<text text-anchor="start" x="297.5" y="-753.3" font-family="Times,serif" font-size="14.00"> function_b9e8()</text>
<text text-anchor="start" x="297.5" y="-738.3" font-family="Times,serif" font-size="14.00"> v11 = g38</text>
</g>
<!-- Node0x15cf4b90&#45;&gt;Node0x15cf56a0 -->
<g id="edge8" class="edge"><title>Node0x15cf4b90&#45;&gt;Node0x15cf56a0</title>
<path fill="none" stroke="black" d="M395.708,-850.314C388.559,-845.181 381.634,-839.042 376.5,-832 371.395,-824.998 367.581,-816.686 364.734,-808.351"/>
<polygon fill="black" stroke="black" points="368.044,-807.205 361.817,-798.633 361.34,-809.217 368.044,-807.205"/>
<text text-anchor="middle" x="411" y="-820.8" font-family="Times,serif" font-size="14.00">v8 == 64</text>
</g>
<!-- Node0x15cf4e20 -->
<g id="node10" class="node"><title>Node0x15cf4e20</title>
<polygon fill="none" stroke="black" points="120,-549.5 120,-692.5 697,-692.5 697,-549.5 120,-549.5"/>
<text text-anchor="start" x="128" y="-677.3" font-family="Times,serif" font-size="14.00">0xfa28ba0:</text>
<text text-anchor="start" x="128" y="-662.3" font-family="Times,serif" font-size="14.00"> v12 = *(IntToPtrCastExpr&lt;ptr&gt;((v11 + 92)))</text>
<text text-anchor="start" x="128" y="-647.3" font-family="Times,serif" font-size="14.00"> g36 = (v12 + 1)</text>
<text text-anchor="start" x="128" y="-632.3" font-family="Times,serif" font-size="14.00"> *(IntToPtrCastExpr&lt;ptr&gt;(((v12 + v11) + 28))) = TruncCastExpr&lt;int8&gt;(g39)</text>
<text text-anchor="start" x="128" y="-617.3" font-family="Times,serif" font-size="14.00"> *(IntToPtrCastExpr&lt;ptr&gt;((g38 + 92))) = g36</text>
<text text-anchor="start" x="128" y="-602.3" font-family="Times,serif" font-size="14.00"> v13 = g38</text>
<text text-anchor="start" x="128" y="-587.3" font-family="Times,serif" font-size="14.00"> v14 = *(IntToPtrCastExpr&lt;ptr&gt;((v13 + 92)))</text>
<text text-anchor="start" x="128" y="-572.3" font-family="Times,serif" font-size="14.00"> g37 = v14</text>
<text text-anchor="start" x="128" y="-557.3" font-family="Times,serif" font-size="14.00"> g9 = (v14 == 56)</text>
</g>
<!-- Node0x15cf4b90&#45;&gt;Node0x15cf4e20 -->
<g id="edge9" class="edge"><title>Node0x15cf4b90&#45;&gt;Node0x15cf4e20</title>
<path fill="none" stroke="black" d="M439.179,-850.424C441.761,-844.696 444.194,-838.23 445.5,-832 446.867,-825.475 445.994,-823.648 445.5,-817 442.688,-779.156 435.448,-737.785 428.11,-702.925"/>
<polygon fill="black" stroke="black" points="431.458,-701.845 425.939,-692.801 424.614,-703.313 431.458,-701.845"/>
<text text-anchor="middle" x="476" y="-760.8" font-family="Times,serif" font-size="14.00">v8 != 64</text>
</g>
<!-- Node0x15cf56a0&#45;&gt;Node0x15cf4e20 -->
<g id="edge10" class="edge"><title>Node0x15cf56a0&#45;&gt;Node0x15cf4e20</title>
<path fill="none" stroke="black" d="M368.692,-730.325C371.854,-721.72 375.4,-712.071 379.038,-702.172"/>
<polygon fill="black" stroke="black" points="382.38,-703.223 382.544,-692.629 375.81,-700.808 382.38,-703.223"/>
</g>
<!-- Node0x15cf52a0 -->
<g id="node11" class="node"><title>Node0x15cf52a0</title>
<polygon fill="none" stroke="black" points="344.5,-473.5 344.5,-511.5 472.5,-511.5 472.5,-473.5 344.5,-473.5"/>
<text text-anchor="start" x="352.5" y="-496.3" font-family="Times,serif" font-size="14.00">0x7399e00:</text>
<text text-anchor="start" x="352.5" y="-481.3" font-family="Times,serif" font-size="14.00"> if (v14 == 56):</text>
</g>
<!-- Node0x15cf4e20&#45;&gt;Node0x15cf52a0 -->
<g id="edge11" class="edge"><title>Node0x15cf4e20&#45;&gt;Node0x15cf52a0</title>
<path fill="none" stroke="black" d="M408.5,-549.353C408.5,-539.594 408.5,-530.073 408.5,-521.737"/>
<polygon fill="black" stroke="black" points="412,-521.54 408.5,-511.54 405,-521.54 412,-521.54"/>
</g>
<!-- Node0x15cf5980 -->
<g id="node12" class="node"><title>Node0x15cf5980</title>
<polygon fill="none" stroke="black" points="249,-368.5 249,-421.5 350,-421.5 350,-368.5 249,-368.5"/>
<text text-anchor="start" x="257" y="-406.3" font-family="Times,serif" font-size="14.00">0x73996a0:</text>
<text text-anchor="start" x="257" y="-391.3" font-family="Times,serif" font-size="14.00"> v7 = v13</text>
<text text-anchor="start" x="257" y="-376.3" font-family="Times,serif" font-size="14.00"> break</text>
</g>
<!-- Node0x15cf52a0&#45;&gt;Node0x15cf5980 -->
<g id="edge12" class="edge"><title>Node0x15cf52a0&#45;&gt;Node0x15cf5980</title>
<path fill="none" stroke="black" d="M344.45,-478.944C331.217,-473.58 318.567,-465.924 309.5,-455 304.075,-448.464 301.096,-440.085 299.553,-431.707"/>
<polygon fill="black" stroke="black" points="303.006,-431.112 298.315,-421.612 296.058,-431.963 303.006,-431.112"/>
<text text-anchor="middle" x="348.5" y="-443.8" font-family="Times,serif" font-size="14.00">v14 == 56</text>
</g>
<!-- Node0x15cf5530 -->
<g id="node13" class="node"><title>Node0x15cf5530</title>
<polygon fill="none" stroke="black" points="525,-368.5 525,-421.5 626,-421.5 626,-368.5 525,-368.5"/>
<text text-anchor="start" x="533" y="-406.3" font-family="Times,serif" font-size="14.00">0x73998a0:</text>
<text text-anchor="start" x="533" y="-391.3" font-family="Times,serif" font-size="14.00"> v7 = v13</text>
<text text-anchor="start" x="533" y="-376.3" font-family="Times,serif" font-size="14.00"> v8 = v14</text>
</g>
<!-- Node0x15cf52a0&#45;&gt;Node0x15cf5530 -->
<g id="edge13" class="edge"><title>Node0x15cf52a0&#45;&gt;Node0x15cf5530</title>
<path fill="none" stroke="black" d="M440.305,-473.312C463.346,-460.136 495.046,-442.008 521.959,-426.618"/>
<polygon fill="black" stroke="black" points="523.94,-429.517 530.883,-421.514 520.465,-423.44 523.94,-429.517"/>
<text text-anchor="middle" x="532.5" y="-443.8" font-family="Times,serif" font-size="14.00">v14 != 56</text>
</g>
<!-- Node0x47233d40 -->
<g id="node14" class="node"><title>Node0x47233d40</title>
<polygon fill="none" stroke="black" points="120,-97.5 120,-330.5 467,-330.5 467,-97.5 120,-97.5"/>
<text text-anchor="start" x="128" y="-315.3" font-family="Times,serif" font-size="14.00">0x739a570:</text>
<text text-anchor="start" x="128" y="-300.3" font-family="Times,serif" font-size="14.00"> g29 = *(IntToPtrCastExpr&lt;ptr&gt;((v7 + 24)))</text>
<text text-anchor="start" x="128" y="-285.3" font-family="Times,serif" font-size="14.00"> g30 = (v7 + 84)</text>
<text text-anchor="start" x="128" y="-270.3" font-family="Times,serif" font-size="14.00"> function_12fe0()</text>
<text text-anchor="start" x="128" y="-255.3" font-family="Times,serif" font-size="14.00"> v10 = g38</text>
<text text-anchor="start" x="128" y="-240.3" font-family="Times,serif" font-size="14.00"> g29 = *(IntToPtrCastExpr&lt;ptr&gt;((v10 + 20)))</text>
<text text-anchor="start" x="128" y="-225.3" font-family="Times,serif" font-size="14.00"> g30 = (v10 + 88)</text>
<text text-anchor="start" x="128" y="-210.3" font-family="Times,serif" font-size="14.00"> function_12fe0()</text>
<text text-anchor="start" x="128" y="-195.3" font-family="Times,serif" font-size="14.00"> g29 = g38</text>
<text text-anchor="start" x="128" y="-180.3" font-family="Times,serif" font-size="14.00"> g38 = v1</text>
<text text-anchor="start" x="128" y="-165.3" font-family="Times,serif" font-size="14.00"> g39 = v2</text>
<text text-anchor="start" x="128" y="-150.3" font-family="Times,serif" font-size="14.00"> g32 = v3</text>
<text text-anchor="start" x="128" y="-135.3" font-family="Times,serif" font-size="14.00"> g34 = v9</text>
<text text-anchor="start" x="128" y="-120.3" font-family="Times,serif" font-size="14.00"> g35 = v4</text>
<text text-anchor="start" x="128" y="-105.3" font-family="Times,serif" font-size="14.00"> function_b9e8()</text>
</g>
<!-- Node0x15cf5980&#45;&gt;Node0x47233d40 -->
<g id="edge14" class="edge"><title>Node0x15cf5980&#45;&gt;Node0x47233d40</title>
<path fill="none" stroke="black" d="M298.64,-368.354C298.375,-360.451 298.064,-351.162 297.728,-341.132"/>
<polygon fill="black" stroke="black" points="301.217,-340.755 297.384,-330.878 294.221,-340.989 301.217,-340.755"/>
</g>
<!-- Node0x15cf5530&#45;&gt;Node0x47232cd0 -->
<g id="edge15" class="edge"><title>Node0x15cf5530&#45;&gt;Node0x47232cd0</title>
<path fill="none" stroke="black" d="M626.283,-406.286C669.799,-418.412 725.5,-443.34 725.5,-491.5 725.5,-954 725.5,-954 725.5,-954 725.5,-1102.61 556.816,-1214.62 474.128,-1260.6"/>
<polygon fill="black" stroke="black" points="472.291,-1257.62 465.205,-1265.49 475.656,-1263.76 472.291,-1257.62"/>
</g>
<!-- Node0x47233d40&#45;&gt;Node0x472326a0 -->
<g id="edge16" class="edge"><title>Node0x47233d40&#45;&gt;Node0x472326a0</title>
<path fill="none" stroke="black" d="M194.499,-97.3858C185.096,-86.4044 176.354,-76.1963 169.023,-67.6351"/>
<polygon fill="black" stroke="black" points="171.614,-65.2794 162.451,-59.9601 166.297,-69.8324 171.614,-65.2794"/>
</g>
</g>
</svg>
