<?xml version="1.0" encoding="UTF-8" standalone="no"?>
<!DOCTYPE svg PUBLIC "-//W3C//DTD SVG 1.1//EN"
 "http://www.w3.org/Graphics/SVG/1.1/DTD/svg11.dtd">
<!-- Generated by graphviz version 2.38.0 (20140413.2041)
 -->
<!-- Title: Control&#45;flow graph for function &#39;function_13100()&#39;. Pages: 1 -->
<svg width="754pt" height="768pt"
 viewBox="0.00 0.00 754.00 768.00" xmlns="http://www.w3.org/2000/svg" xmlns:xlink="http://www.w3.org/1999/xlink">
<g id="graph0" class="graph" transform="scale(1 1) rotate(0) translate(4 764)">
<title>Control&#45;flow graph for function &#39;function_13100()&#39;.</title>
<polygon fill="white" stroke="none" points="-4,4 -4,-764 750,-764 750,4 -4,4"/>
<text text-anchor="middle" x="373" y="-7.8" font-family="Times,serif" font-size="14.00">Control&#45;flow graph for function &#39;function_13100()&#39;.</text>
<!-- Node0x15917010 -->
<g id="node1" class="node"><title>Node0x15917010</title>
<polygon fill="none" stroke="black" points="217.5,-723.5 217.5,-759.5 276.5,-759.5 276.5,-723.5 217.5,-723.5"/>
<text text-anchor="start" x="225.5" y="-737.8" font-family="Times,serif" font-size="14.00">entry:</text>
</g>
<!-- Node0x3b6f32e0 -->
<g id="node2" class="node"><title>Node0x3b6f32e0</title>
<polygon fill="none" stroke="black" points="0,-527.5 0,-685.5 494,-685.5 494,-527.5 0,-527.5"/>
<text text-anchor="start" x="8" y="-670.3" font-family="Times,serif" font-size="14.00">0x7f242d0:</text>
<text text-anchor="start" x="8" y="-655.3" font-family="Times,serif" font-size="14.00"> g30 = 0</text>
<text text-anchor="start" x="8" y="-640.3" font-family="Times,serif" font-size="14.00"> g33 = 10</text>
<text text-anchor="start" x="8" y="-625.3" font-family="Times,serif" font-size="14.00"> v1 = (g29 + 1)</text>
<text text-anchor="start" x="8" y="-610.3" font-family="Times,serif" font-size="14.00"> v2 = (ExtCastExpr&lt;int32&gt;(*(IntToPtrCastExpr&lt;ptr&gt;(g29))) &#45; 48)</text>
<text text-anchor="start" x="8" y="-595.3" font-family="Times,serif" font-size="14.00"> g36 = v2</text>
<text text-anchor="start" x="8" y="-580.3" font-family="Times,serif" font-size="14.00"> v3 = (v2 % 256)</text>
<text text-anchor="start" x="8" y="-565.3" font-family="Times,serif" font-size="14.00"> g37 = v3</text>
<text text-anchor="start" x="8" y="-550.3" font-family="Times,serif" font-size="14.00"> g6 = (v3 &gt; 8)</text>
<text text-anchor="start" x="8" y="-535.3" font-family="Times,serif" font-size="14.00"> g9 = (v3 == 9)</text>
</g>
<!-- Node0x15917010&#45;&gt;Node0x3b6f32e0 -->
<g id="edge1" class="edge"><title>Node0x15917010&#45;&gt;Node0x3b6f32e0</title>
<path fill="none" stroke="black" d="M247,-723.385C247,-715.782 247,-706.206 247,-695.833"/>
<polygon fill="black" stroke="black" points="250.5,-695.682 247,-685.682 243.5,-695.682 250.5,-695.682"/>
</g>
<!-- Node0x3b6ef850 -->
<g id="node3" class="node"><title>Node0x3b6ef850</title>
<polygon fill="none" stroke="black" points="187.5,-451.5 187.5,-489.5 306.5,-489.5 306.5,-451.5 187.5,-451.5"/>
<text text-anchor="start" x="195.5" y="-474.3" font-family="Times,serif" font-size="14.00">0x7f2a310:</text>
<text text-anchor="start" x="195.5" y="-459.3" font-family="Times,serif" font-size="14.00"> if (v3 &gt;= 10):</text>
</g>
<!-- Node0x3b6f32e0&#45;&gt;Node0x3b6ef850 -->
<g id="edge2" class="edge"><title>Node0x3b6f32e0&#45;&gt;Node0x3b6ef850</title>
<path fill="none" stroke="black" d="M247,-527.164C247,-517.447 247,-508.058 247,-499.846"/>
<polygon fill="black" stroke="black" points="250.5,-499.801 247,-489.801 243.5,-499.801 250.5,-499.801"/>
</g>
<!-- Node0x159177f0 -->
<g id="node4" class="node"><title>Node0x159177f0</title>
<polygon fill="none" stroke="black" points="75.5,-274.5 75.5,-327.5 172.5,-327.5 172.5,-274.5 75.5,-274.5"/>
<text text-anchor="start" x="83.5" y="-312.3" font-family="Times,serif" font-size="14.00">0x7f2a4b0:</text>
<text text-anchor="start" x="83.5" y="-297.3" font-family="Times,serif" font-size="14.00"> g29 = 0</text>
<text text-anchor="start" x="83.5" y="-282.3" font-family="Times,serif" font-size="14.00"> return</text>
</g>
<!-- Node0x3b6ef850&#45;&gt;Node0x159177f0 -->
<g id="edge3" class="edge"><title>Node0x3b6ef850&#45;&gt;Node0x159177f0</title>
<path fill="none" stroke="black" d="M233.603,-451.256C213.341,-423.663 174.559,-370.85 148.984,-336.023"/>
<polygon fill="black" stroke="black" points="151.526,-333.571 142.786,-327.583 145.884,-337.715 151.526,-333.571"/>
<text text-anchor="middle" x="253.5" y="-421.8" font-family="Times,serif" font-size="14.00">v3 &gt;= 10</text>
</g>
<!-- Node0x15918410 -->
<g id="node5" class="node"><title>Node0x15918410</title>
<polygon fill="none" stroke="black" points="251.5,-346.5 251.5,-399.5 736.5,-399.5 736.5,-346.5 251.5,-346.5"/>
<text text-anchor="start" x="259.5" y="-384.3" font-family="Times,serif" font-size="14.00">0x1d1538b0:</text>
<text text-anchor="start" x="259.5" y="-369.3" font-family="Times,serif" font-size="14.00"> v4 = v2</text>
<text text-anchor="start" x="259.5" y="-354.3" font-family="Times,serif" font-size="14.00"> v5 = (ExtCastExpr&lt;int32&gt;(*(IntToPtrCastExpr&lt;ptr&gt;(v1))) &#45; 48)</text>
</g>
<!-- Node0x3b6ef850&#45;&gt;Node0x15918410 -->
<g id="edge4" class="edge"><title>Node0x3b6ef850&#45;&gt;Node0x15918410</title>
<path fill="none" stroke="black" d="M293.749,-451.425C328.912,-437.83 377.828,-418.917 418.511,-403.187"/>
<polygon fill="black" stroke="black" points="419.792,-406.444 427.857,-399.573 417.268,-399.915 419.792,-406.444"/>
<text text-anchor="middle" x="406.5" y="-421.8" font-family="Times,serif" font-size="14.00">v3 &lt; 10</text>
</g>
<!-- Node0x159172b0 -->
<g id="node6" class="node"><title>Node0x159172b0</title>
<polygon fill="none" stroke="black" points="244,-23.5 244,-59.5 298,-59.5 298,-23.5 244,-23.5"/>
<text text-anchor="start" x="252" y="-37.8" font-family="Times,serif" font-size="14.00">exit:</text>
</g>
<!-- Node0x159177f0&#45;&gt;Node0x159172b0 -->
<g id="edge5" class="edge"><title>Node0x159177f0&#45;&gt;Node0x159172b0</title>
<path fill="none" stroke="black" d="M118.041,-274.375C109.955,-232.836 100.565,-150.104 139,-97 161.006,-66.5946 203.146,-53.0913 233.911,-47.1326"/>
<polygon fill="black" stroke="black" points="234.618,-50.5621 243.863,-45.3875 233.409,-43.6673 234.618,-50.5621"/>
</g>
<!-- Node0x23c5ed80 -->
<g id="node7" class="node"><title>Node0x23c5ed80</title>
<polygon fill="none" stroke="black" points="420.5,-217.5 420.5,-255.5 615.5,-255.5 615.5,-217.5 420.5,-217.5"/>
<text text-anchor="start" x="428.5" y="-240.3" font-family="Times,serif" font-size="14.00">0x7f2a1b0:</text>
<text text-anchor="start" x="428.5" y="-225.3" font-family="Times,serif" font-size="14.00"> while ((v5 % 256) &lt; 10):</text>
</g>
<!-- Node0x15918410&#45;&gt;Node0x23c5ed80 -->
<g id="edge6" class="edge"><title>Node0x15918410&#45;&gt;Node0x23c5ed80</title>
<path fill="none" stroke="black" d="M498.571,-346.385C502.694,-323.28 508.745,-289.365 512.997,-265.54"/>
<polygon fill="black" stroke="black" points="516.442,-266.153 514.754,-255.694 509.551,-264.924 516.442,-266.153"/>
</g>
<!-- Node0x3b6f3040 -->
<g id="node8" class="node"><title>Node0x3b6f3040</title>
<polygon fill="none" stroke="black" points="148.5,-97.5 148.5,-165.5 633.5,-165.5 633.5,-97.5 148.5,-97.5"/>
<text text-anchor="start" x="156.5" y="-150.3" font-family="Times,serif" font-size="14.00">0x14ce5f70:</text>
<text text-anchor="start" x="156.5" y="-135.3" font-family="Times,serif" font-size="14.00"> v1 = (v1 + 1)</text>
<text text-anchor="start" x="156.5" y="-120.3" font-family="Times,serif" font-size="14.00"> v4 = ((10 * v4) + v5)</text>
<text text-anchor="start" x="156.5" y="-105.3" font-family="Times,serif" font-size="14.00"> v5 = (ExtCastExpr&lt;int32&gt;(*(IntToPtrCastExpr&lt;ptr&gt;(v1))) &#45; 48)</text>
</g>
<!-- Node0x23c5ed80&#45;&gt;Node0x3b6f3040 -->
<g id="edge7" class="edge"><title>Node0x23c5ed80&#45;&gt;Node0x3b6f3040</title>
<path fill="none" stroke="black" d="M424.919,-217.403C408.23,-212.297 394.405,-206.147 389,-199 383.948,-192.32 381.918,-184.088 381.604,-175.72"/>
<polygon fill="black" stroke="black" points="385.108,-175.664 381.984,-165.54 378.113,-175.403 385.108,-175.664"/>
<text text-anchor="middle" x="447.5" y="-187.8" font-family="Times,serif" font-size="14.00">(v5 % 256) &lt; 10</text>
</g>
<!-- Node0x3b6ed6e0 -->
<g id="node9" class="node"><title>Node0x3b6ed6e0</title>
<polygon fill="none" stroke="black" points="652,-112.5 652,-150.5 746,-150.5 746,-112.5 652,-112.5"/>
<text text-anchor="start" x="660" y="-135.3" font-family="Times,serif" font-size="14.00">0x7f29f10:</text>
<text text-anchor="start" x="660" y="-120.3" font-family="Times,serif" font-size="14.00"> g29 = v4</text>
</g>
<!-- Node0x23c5ed80&#45;&gt;Node0x3b6ed6e0 -->
<g id="edge8" class="edge"><title>Node0x23c5ed80&#45;&gt;Node0x3b6ed6e0</title>
<path fill="none" stroke="black" d="M551.058,-217.492C576.35,-203.624 612.029,-183.868 643,-166 648.603,-162.768 654.492,-159.311 660.261,-155.891"/>
<polygon fill="black" stroke="black" points="662.369,-158.708 669.169,-150.583 658.787,-152.695 662.369,-158.708"/>
<text text-anchor="middle" x="672.5" y="-187.8" font-family="Times,serif" font-size="14.00">(v5 % 256) &gt;= 10</text>
</g>
<!-- Node0x3b6f3040&#45;&gt;Node0x23c5ed80 -->
<g id="edge9" class="edge"><title>Node0x3b6f3040&#45;&gt;Node0x23c5ed80</title>
<path fill="none" stroke="black" d="M485.752,-165.624C493.302,-170.907 500.226,-176.994 506,-184 511.337,-190.475 514.393,-198.892 516.116,-207.039"/>
<polygon fill="black" stroke="black" points="512.676,-207.696 517.657,-217.046 519.594,-206.63 512.676,-207.696"/>
</g>
<!-- Node0x3b6ed6e0&#45;&gt;Node0x159172b0 -->
<g id="edge10" class="edge"><title>Node0x3b6ed6e0&#45;&gt;Node0x159172b0</title>
<path fill="none" stroke="black" d="M673.568,-112.403C664.334,-106.627 653.565,-100.764 643,-97 525.689,-55.2004 376.611,-45.434 308.277,-43.1707"/>
<polygon fill="black" stroke="black" points="308.119,-39.6646 298.021,-42.8681 307.913,-46.6616 308.119,-39.6646"/>
</g>
</g>
</svg>
