<?xml version="1.0" encoding="UTF-8" standalone="no"?>
<!DOCTYPE svg PUBLIC "-//W3C//DTD SVG 1.1//EN"
 "http://www.w3.org/Graphics/SVG/1.1/DTD/svg11.dtd">
<!-- Generated by graphviz version 2.38.0 (20140413.2041)
 -->
<!-- Title: Control&#45;flow graph for function &#39;function_21100()&#39;. Pages: 1 -->
<svg width="980pt" height="1144pt"
 viewBox="0.00 0.00 980.00 1144.00" xmlns="http://www.w3.org/2000/svg" xmlns:xlink="http://www.w3.org/1999/xlink">
<g id="graph0" class="graph" transform="scale(1 1) rotate(0) translate(4 1140)">
<title>Control&#45;flow graph for function &#39;function_21100()&#39;.</title>
<polygon fill="white" stroke="none" points="-4,4 -4,-1140 976,-1140 976,4 -4,4"/>
<text text-anchor="middle" x="486" y="-7.8" font-family="Times,serif" font-size="14.00">Control&#45;flow graph for function &#39;function_21100()&#39;.</text>
<!-- Node0x2a8b2bc0 -->
<g id="node1" class="node"><title>Node0x2a8b2bc0</title>
<polygon fill="none" stroke="black" points="601.5,-1099.5 601.5,-1135.5 660.5,-1135.5 660.5,-1099.5 601.5,-1099.5"/>
<text text-anchor="start" x="609.5" y="-1113.8" font-family="Times,serif" font-size="14.00">entry:</text>
</g>
<!-- Node0x2a8b5390 -->
<g id="node2" class="node"><title>Node0x2a8b5390</title>
<polygon fill="none" stroke="black" points="462,-978.5 462,-1061.5 800,-1061.5 800,-978.5 462,-978.5"/>
<text text-anchor="start" x="470" y="-1046.3" font-family="Times,serif" font-size="14.00">0x22529680:</text>
<text text-anchor="start" x="470" y="-1031.3" font-family="Times,serif" font-size="14.00"> v1 = g30</text>
<text text-anchor="start" x="470" y="-1016.3" font-family="Times,serif" font-size="14.00"> v2 = *(IntToPtrCastExpr&lt;ptr&gt;((g29 + 44)))</text>
<text text-anchor="start" x="470" y="-1001.3" font-family="Times,serif" font-size="14.00"> g36 = v2</text>
<text text-anchor="start" x="470" y="-986.3" font-family="Times,serif" font-size="14.00"> v3</text>
</g>
<!-- Node0x2a8b2bc0&#45;&gt;Node0x2a8b5390 -->
<g id="edge1" class="edge"><title>Node0x2a8b2bc0&#45;&gt;Node0x2a8b5390</title>
<path fill="none" stroke="black" d="M631,-1099.43C631,-1091.62 631,-1081.92 631,-1072.03"/>
<polygon fill="black" stroke="black" points="634.5,-1071.73 631,-1061.73 627.5,-1071.73 634.5,-1071.73"/>
</g>
<!-- Node0x3dde9940 -->
<g id="node3" class="node"><title>Node0x3dde9940</title>
<polygon fill="none" stroke="black" points="574.5,-902.5 574.5,-940.5 687.5,-940.5 687.5,-902.5 574.5,-902.5"/>
<text text-anchor="start" x="582.5" y="-925.3" font-family="Times,serif" font-size="14.00">0xa01c070:</text>
<text text-anchor="start" x="582.5" y="-910.3" font-family="Times,serif" font-size="14.00"> if (v1 != 11):</text>
</g>
<!-- Node0x2a8b5390&#45;&gt;Node0x3dde9940 -->
<g id="edge2" class="edge"><title>Node0x2a8b5390&#45;&gt;Node0x3dde9940</title>
<path fill="none" stroke="black" d="M631,-978.355C631,-969.083 631,-959.427 631,-950.803"/>
<polygon fill="black" stroke="black" points="634.5,-950.538 631,-940.538 627.5,-950.538 634.5,-950.538"/>
</g>
<!-- Node0x2a8b5640 -->
<g id="node4" class="node"><title>Node0x2a8b5640</title>
<polygon fill="none" stroke="black" points="439,-782.5 439,-820.5 553,-820.5 553,-782.5 439,-782.5"/>
<text text-anchor="start" x="447" y="-805.3" font-family="Times,serif" font-size="14.00">0xa01f930:</text>
<text text-anchor="start" x="447" y="-790.3" font-family="Times,serif" font-size="14.00"> if (v1 == &#45;2):</text>
</g>
<!-- Node0x3dde9940&#45;&gt;Node0x2a8b5640 -->
<g id="edge3" class="edge"><title>Node0x3dde9940&#45;&gt;Node0x2a8b5640</title>
<path fill="none" stroke="black" d="M610.202,-902.321C587.144,-882.167 549.826,-849.548 524.162,-827.116"/>
<polygon fill="black" stroke="black" points="526.433,-824.452 516.6,-820.506 521.826,-829.722 526.433,-824.452"/>
<text text-anchor="middle" x="618.5" y="-872.8" font-family="Times,serif" font-size="14.00">v1 != 11</text>
</g>
<!-- Node0x3fb68080 -->
<g id="node5" class="node"><title>Node0x3fb68080</title>
<polygon fill="none" stroke="black" points="571.5,-752.5 571.5,-850.5 890.5,-850.5 890.5,-752.5 571.5,-752.5"/>
<text text-anchor="start" x="579.5" y="-835.3" font-family="Times,serif" font-size="14.00">0x225298d0:</text>
<text text-anchor="start" x="579.5" y="-820.3" font-family="Times,serif" font-size="14.00"> v6 = IntToPtrCastExpr&lt;ptr&gt;((v2 + 565))</text>
<text text-anchor="start" x="579.5" y="-805.3" font-family="Times,serif" font-size="14.00"> v7 = *(v6)</text>
<text text-anchor="start" x="579.5" y="-790.3" font-family="Times,serif" font-size="14.00"> v8 = v7</text>
<text text-anchor="start" x="579.5" y="-775.3" font-family="Times,serif" font-size="14.00"> g6 = (v7 &gt; 14)</text>
<text text-anchor="start" x="579.5" y="-760.3" font-family="Times,serif" font-size="14.00"> g9 = (v7 == 15)</text>
</g>
<!-- Node0x3dde9940&#45;&gt;Node0x3fb68080 -->
<g id="edge4" class="edge"><title>Node0x3dde9940&#45;&gt;Node0x3fb68080</title>
<path fill="none" stroke="black" d="M646.406,-902.321C656.481,-890.432 670.233,-874.205 683.72,-858.29"/>
<polygon fill="black" stroke="black" points="686.507,-860.415 690.303,-850.523 681.167,-855.889 686.507,-860.415"/>
<text text-anchor="middle" x="706.5" y="-872.8" font-family="Times,serif" font-size="14.00">v1 == 11</text>
</g>
<!-- Node0x1af4bae0 -->
<g id="node6" class="node"><title>Node0x1af4bae0</title>
<polygon fill="none" stroke="black" points="139.5,-632.5 139.5,-700.5 476.5,-700.5 476.5,-632.5 139.5,-632.5"/>
<text text-anchor="start" x="147.5" y="-685.3" font-family="Times,serif" font-size="14.00">0x22529d10:</text>
<text text-anchor="start" x="147.5" y="-670.3" font-family="Times,serif" font-size="14.00"> v4 = *(IntToPtrCastExpr&lt;ptr&gt;((v2 + 565)))</text>
<text text-anchor="start" x="147.5" y="-655.3" font-family="Times,serif" font-size="14.00"> g6 = (v4 &gt; 14)</text>
<text text-anchor="start" x="147.5" y="-640.3" font-family="Times,serif" font-size="14.00"> g9 = (v4 == 15)</text>
</g>
<!-- Node0x2a8b5640&#45;&gt;Node0x1af4bae0 -->
<g id="edge5" class="edge"><title>Node0x2a8b5640&#45;&gt;Node0x1af4bae0</title>
<path fill="none" stroke="black" d="M470.254,-782.286C442.789,-762.856 398.459,-731.495 363.07,-706.459"/>
<polygon fill="black" stroke="black" points="364.93,-703.487 354.745,-700.569 360.887,-709.202 364.93,-703.487"/>
<text text-anchor="middle" x="434" y="-722.8" font-family="Times,serif" font-size="14.00">v1 == &#45;2</text>
</g>
<!-- Node0x2a8b5c00 -->
<g id="node7" class="node"><title>Node0x2a8b5c00</title>
<polygon fill="none" stroke="black" points="457,-560.5 457,-613.5 553,-613.5 553,-560.5 457,-560.5"/>
<text text-anchor="start" x="465" y="-598.3" font-family="Times,serif" font-size="14.00">0xa01fbc0:</text>
<text text-anchor="start" x="465" y="-583.3" font-family="Times,serif" font-size="14.00"> g29 = 0</text>
<text text-anchor="start" x="465" y="-568.3" font-family="Times,serif" font-size="14.00"> return</text>
</g>
<!-- Node0x2a8b5640&#45;&gt;Node0x2a8b5c00 -->
<g id="edge6" class="edge"><title>Node0x2a8b5640&#45;&gt;Node0x2a8b5c00</title>
<path fill="none" stroke="black" d="M496.767,-782.382C498.254,-747.278 501.551,-669.426 503.492,-623.611"/>
<polygon fill="black" stroke="black" points="506.993,-623.663 503.919,-613.524 499.999,-623.366 506.993,-623.663"/>
<text text-anchor="middle" x="529" y="-722.8" font-family="Times,serif" font-size="14.00">v1 != &#45;2</text>
</g>
<!-- Node0x2a8b4f10 -->
<g id="node8" class="node"><title>Node0x2a8b4f10</title>
<polygon fill="none" stroke="black" points="671.5,-647.5 671.5,-685.5 790.5,-685.5 790.5,-647.5 671.5,-647.5"/>
<text text-anchor="start" x="679.5" y="-670.3" font-family="Times,serif" font-size="14.00">0xa01bb30:</text>
<text text-anchor="start" x="679.5" y="-655.3" font-family="Times,serif" font-size="14.00"> if (v7 &lt;= 15):</text>
</g>
<!-- Node0x3fb68080&#45;&gt;Node0x2a8b4f10 -->
<g id="edge7" class="edge"><title>Node0x3fb68080&#45;&gt;Node0x2a8b4f10</title>
<path fill="none" stroke="black" d="M731,-752.484C731,-733.44 731,-712.2 731,-695.718"/>
<polygon fill="black" stroke="black" points="734.5,-695.645 731,-685.645 727.5,-695.645 734.5,-695.645"/>
</g>
<!-- Node0x1e6f5e50 -->
<g id="node9" class="node"><title>Node0x1e6f5e50</title>
<polygon fill="none" stroke="black" points="248.5,-436 248.5,-474 367.5,-474 367.5,-436 248.5,-436"/>
<text text-anchor="start" x="256.5" y="-458.8" font-family="Times,serif" font-size="14.00">0xa01f2f0:</text>
<text text-anchor="start" x="256.5" y="-443.8" font-family="Times,serif" font-size="14.00"> if (v4 &lt;= 15):</text>
</g>
<!-- Node0x1af4bae0&#45;&gt;Node0x1e6f5e50 -->
<g id="edge8" class="edge"><title>Node0x1af4bae0&#45;&gt;Node0x1e6f5e50</title>
<path fill="none" stroke="black" d="M308,-632.304C308,-591.56 308,-523.148 308,-484.618"/>
<polygon fill="black" stroke="black" points="311.5,-484.137 308,-474.137 304.5,-484.137 311.5,-484.137"/>
</g>
<!-- Node0x20d39450 -->
<g id="node10" class="node"><title>Node0x20d39450</title>
<polygon fill="none" stroke="black" points="478,-23.5 478,-59.5 532,-59.5 532,-23.5 478,-23.5"/>
<text text-anchor="start" x="486" y="-37.8" font-family="Times,serif" font-size="14.00">exit:</text>
</g>
<!-- Node0x2a8b5c00&#45;&gt;Node0x20d39450 -->
<g id="edge9" class="edge"><title>Node0x2a8b5c00&#45;&gt;Node0x20d39450</title>
<path fill="none" stroke="black" d="M505,-560.16C505,-515.832 505,-422.439 505,-343.5 505,-343.5 505,-343.5 505,-123 505,-105.286 505,-85.379 505,-69.7932"/>
<polygon fill="black" stroke="black" points="508.5,-69.7734 505,-59.7734 501.5,-69.7735 508.5,-69.7734"/>
</g>
<!-- Node0x2a8b6100 -->
<g id="node11" class="node"><title>Node0x2a8b6100</title>
<polygon fill="none" stroke="black" points="532.5,-368.5 532.5,-541.5 879.5,-541.5 879.5,-368.5 532.5,-368.5"/>
<text text-anchor="start" x="540.5" y="-526.3" font-family="Times,serif" font-size="14.00">0xa010470:</text>
<text text-anchor="start" x="540.5" y="-511.3" font-family="Times,serif" font-size="14.00"> g30 = ((8 * v8) + v2)</text>
<text text-anchor="start" x="540.5" y="-496.3" font-family="Times,serif" font-size="14.00"> *(v6) = TruncCastExpr&lt;int8&gt;((v8 + 1))</text>
<text text-anchor="start" x="540.5" y="-481.3" font-family="Times,serif" font-size="14.00"> v9 = g36</text>
<text text-anchor="start" x="540.5" y="-466.3" font-family="Times,serif" font-size="14.00"> v3 = (g30 + 576)</text>
<text text-anchor="start" x="540.5" y="-451.3" font-family="Times,serif" font-size="14.00"> g30 = v3</text>
<text text-anchor="start" x="540.5" y="-436.3" font-family="Times,serif" font-size="14.00"> v10 = *(IntToPtrCastExpr&lt;ptr&gt;((v9 + 568)))</text>
<text text-anchor="start" x="540.5" y="-421.3" font-family="Times,serif" font-size="14.00"> g36 = v10</text>
<text text-anchor="start" x="540.5" y="-406.3" font-family="Times,serif" font-size="14.00"> g37 = *(IntToPtrCastExpr&lt;ptr&gt;((v9 + 572)))</text>
<text text-anchor="start" x="540.5" y="-391.3" font-family="Times,serif" font-size="14.00"> *(IntToPtrCastExpr&lt;ptr&gt;(v3)) = v10</text>
<text text-anchor="start" x="540.5" y="-376.3" font-family="Times,serif" font-size="14.00"> *(IntToPtrCastExpr&lt;ptr&gt;((v3 + 4))) = g37</text>
</g>
<!-- Node0x2a8b4f10&#45;&gt;Node0x2a8b6100 -->
<g id="edge10" class="edge"><title>Node0x2a8b4f10&#45;&gt;Node0x2a8b6100</title>
<path fill="none" stroke="black" d="M728.825,-647.275C726.252,-625.709 721.77,-588.15 717.455,-551.992"/>
<polygon fill="black" stroke="black" points="720.904,-551.36 716.244,-541.846 713.954,-552.19 720.904,-551.36"/>
<text text-anchor="middle" x="758.5" y="-583.3" font-family="Times,serif" font-size="14.00">v7 &lt;= 15</text>
</g>
<!-- Node0x3608ded0 -->
<g id="node12" class="node"><title>Node0x3608ded0</title>
<polygon fill="none" stroke="black" points="655.5,-233.5 655.5,-271.5 756.5,-271.5 756.5,-233.5 655.5,-233.5"/>
<text text-anchor="start" x="663.5" y="-256.3" font-family="Times,serif" font-size="14.00">0xa01bd40:</text>
<text text-anchor="start" x="663.5" y="-241.3" font-family="Times,serif" font-size="14.00"> g29 = 0</text>
</g>
<!-- Node0x2a8b4f10&#45;&gt;Node0x3608ded0 -->
<g id="edge11" class="edge"><title>Node0x2a8b4f10&#45;&gt;Node0x3608ded0</title>
<path fill="none" stroke="black" d="M771.058,-647.365C809.329,-627.577 864.677,-591.921 889,-542 922.872,-472.479 926.472,-435.648 889,-368 863,-321.063 808.844,-290.814 766.157,-273.267"/>
<polygon fill="black" stroke="black" points="767.271,-269.943 756.686,-269.502 764.685,-276.448 767.271,-269.943"/>
<text text-anchor="middle" x="943.5" y="-451.3" font-family="Times,serif" font-size="14.00">v7 &gt; 15</text>
</g>
<!-- Node0x20d391a0 -->
<g id="node13" class="node"><title>Node0x20d391a0</title>
<polygon fill="none" stroke="black" points="0,-188.5 0,-316.5 384,-316.5 384,-188.5 0,-188.5"/>
<text text-anchor="start" x="8" y="-301.3" font-family="Times,serif" font-size="14.00">0x22529760:</text>
<text text-anchor="start" x="8" y="-286.3" font-family="Times,serif" font-size="14.00"> v5 = ((v2 + 576) + (8 * ExtCastExpr&lt;int32&gt;(v4)))</text>
<text text-anchor="start" x="8" y="-271.3" font-family="Times,serif" font-size="14.00"> g30 = v5</text>
<text text-anchor="start" x="8" y="-256.3" font-family="Times,serif" font-size="14.00"> g36 = 0</text>
<text text-anchor="start" x="8" y="-241.3" font-family="Times,serif" font-size="14.00"> v3 = v5</text>
<text text-anchor="start" x="8" y="-226.3" font-family="Times,serif" font-size="14.00"> g37 = 0</text>
<text text-anchor="start" x="8" y="-211.3" font-family="Times,serif" font-size="14.00"> *(IntToPtrCastExpr&lt;ptr&gt;(v3)) = 0</text>
<text text-anchor="start" x="8" y="-196.3" font-family="Times,serif" font-size="14.00"> *(IntToPtrCastExpr&lt;ptr&gt;((v3 + 4))) = g37</text>
</g>
<!-- Node0x1e6f5e50&#45;&gt;Node0x20d391a0 -->
<g id="edge12" class="edge"><title>Node0x1e6f5e50&#45;&gt;Node0x20d391a0</title>
<path fill="none" stroke="black" d="M297.501,-435.853C283.139,-411.029 256.534,-365.044 233.636,-325.466"/>
<polygon fill="black" stroke="black" points="236.548,-323.51 228.511,-316.607 230.489,-327.016 236.548,-323.51"/>
<text text-anchor="middle" x="281.5" y="-338.8" font-family="Times,serif" font-size="14.00">v4 &lt;= 15</text>
</g>
<!-- Node0xf114c40 -->
<g id="node14" class="node"><title>Node0xf114c40</title>
<polygon fill="none" stroke="black" points="373.5,-97.5 373.5,-150.5 466.5,-150.5 466.5,-97.5 373.5,-97.5"/>
<text text-anchor="start" x="381.5" y="-135.3" font-family="Times,serif" font-size="14.00">0xa01f4f0:</text>
<text text-anchor="start" x="381.5" y="-120.3" font-family="Times,serif" font-size="14.00"> g29 = 0</text>
<text text-anchor="start" x="381.5" y="-105.3" font-family="Times,serif" font-size="14.00"> return</text>
</g>
<!-- Node0x1e6f5e50&#45;&gt;Node0xf114c40 -->
<g id="edge13" class="edge"><title>Node0x1e6f5e50&#45;&gt;Node0xf114c40</title>
<path fill="none" stroke="black" d="M322.799,-435.795C342.339,-410.703 376.223,-363.319 393,-317 411.902,-264.816 417.656,-200.205 419.357,-160.823"/>
<polygon fill="black" stroke="black" points="422.861,-160.777 419.73,-150.656 415.866,-160.521 422.861,-160.777"/>
<text text-anchor="middle" x="446.5" y="-248.8" font-family="Times,serif" font-size="14.00">v4 &gt; 15</text>
</g>
<!-- Node0x2a8b6100&#45;&gt;Node0x3608ded0 -->
<g id="edge14" class="edge"><title>Node0x2a8b6100&#45;&gt;Node0x3608ded0</title>
<path fill="none" stroke="black" d="M706,-368.388C706,-337.472 706,-304.657 706,-282.049"/>
<polygon fill="black" stroke="black" points="709.5,-281.823 706,-271.823 702.5,-281.823 709.5,-281.823"/>
</g>
<!-- Node0x3608ded0&#45;&gt;Node0x20d39450 -->
<g id="edge15" class="edge"><title>Node0x3608ded0&#45;&gt;Node0x20d39450</title>
<path fill="none" stroke="black" d="M688.514,-233.318C652.368,-195.734 569.395,-109.458 528.567,-67.0055"/>
<polygon fill="black" stroke="black" points="530.91,-64.3918 521.455,-59.6103 525.864,-69.2441 530.91,-64.3918"/>
</g>
<!-- Node0x20d391a0&#45;&gt;Node0xf114c40 -->
<g id="edge16" class="edge"><title>Node0x20d391a0&#45;&gt;Node0xf114c40</title>
<path fill="none" stroke="black" d="M305.666,-188.435C326.278,-176.999 346.905,-165.555 364.851,-155.598"/>
<polygon fill="black" stroke="black" points="366.931,-158.447 373.977,-150.535 363.535,-152.326 366.931,-158.447"/>
</g>
<!-- Node0xf114c40&#45;&gt;Node0x20d39450 -->
<g id="edge17" class="edge"><title>Node0xf114c40&#45;&gt;Node0x20d39450</title>
<path fill="none" stroke="black" d="M447.362,-97.0862C457.65,-87.3436 469.298,-76.312 479.417,-66.7285"/>
<polygon fill="black" stroke="black" points="481.955,-69.1451 486.809,-59.7276 477.142,-64.0626 481.955,-69.1451"/>
</g>
</g>
</svg>
