<?xml version="1.0" encoding="UTF-8" standalone="no"?>
<!DOCTYPE svg PUBLIC "-//W3C//DTD SVG 1.1//EN"
 "http://www.w3.org/Graphics/SVG/1.1/DTD/svg11.dtd">
<!-- Generated by graphviz version 2.38.0 (20140413.2041)
 -->
<!-- Title: Control&#45;flow graph for function &#39;function_10b90()&#39;. Pages: 1 -->
<svg width="461pt" height="1182pt"
 viewBox="0.00 0.00 461.00 1182.00" xmlns="http://www.w3.org/2000/svg" xmlns:xlink="http://www.w3.org/1999/xlink">
<g id="graph0" class="graph" transform="scale(1 1) rotate(0) translate(4 1178)">
<title>Control&#45;flow graph for function &#39;function_10b90()&#39;.</title>
<polygon fill="white" stroke="none" points="-4,4 -4,-1178 457,-1178 457,4 -4,4"/>
<text text-anchor="middle" x="226.5" y="-7.8" font-family="Times,serif" font-size="14.00">Control&#45;flow graph for function &#39;function_10b90()&#39;.</text>
<!-- Node0x2e5e8db0 -->
<g id="node1" class="node"><title>Node0x2e5e8db0</title>
<polygon fill="none" stroke="black" points="185,-1137.5 185,-1173.5 244,-1173.5 244,-1137.5 185,-1137.5"/>
<text text-anchor="start" x="193" y="-1151.8" font-family="Times,serif" font-size="14.00">entry:</text>
</g>
<!-- Node0x2e5e64b0 -->
<g id="node2" class="node"><title>Node0x2e5e64b0</title>
<polygon fill="none" stroke="black" points="45.5,-956.5 45.5,-1099.5 383.5,-1099.5 383.5,-956.5 45.5,-956.5"/>
<text text-anchor="start" x="53.5" y="-1084.3" font-family="Times,serif" font-size="14.00">0x27e53d90:</text>
<text text-anchor="start" x="53.5" y="-1069.3" font-family="Times,serif" font-size="14.00"> v1 = NULL</text>
<text text-anchor="start" x="53.5" y="-1054.3" font-family="Times,serif" font-size="14.00"> v2 = g29</text>
<text text-anchor="start" x="53.5" y="-1039.3" font-family="Times,serif" font-size="14.00"> v3 = *(IntToPtrCastExpr&lt;ptr&gt;((v2 + 188)))</text>
<text text-anchor="start" x="53.5" y="-1024.3" font-family="Times,serif" font-size="14.00"> g37 = v3</text>
<text text-anchor="start" x="53.5" y="-1009.3" font-family="Times,serif" font-size="14.00"> g36 = *(IntToPtrCastExpr&lt;ptr&gt;((v2 + 16)))</text>
<text text-anchor="start" x="53.5" y="-994.3" font-family="Times,serif" font-size="14.00"> g8 = (((2 &#45; v3) &amp; v3) &lt; 0)</text>
<text text-anchor="start" x="53.5" y="-979.3" font-family="Times,serif" font-size="14.00"> g7 = (v3 &lt; 3)</text>
<text text-anchor="start" x="53.5" y="-964.3" font-family="Times,serif" font-size="14.00"> g9 = (v3 == 3)</text>
</g>
<!-- Node0x2e5e8db0&#45;&gt;Node0x2e5e64b0 -->
<g id="edge1" class="edge"><title>Node0x2e5e8db0&#45;&gt;Node0x2e5e64b0</title>
<path fill="none" stroke="black" d="M214.5,-1137.31C214.5,-1129.68 214.5,-1120.1 214.5,-1109.81"/>
<polygon fill="black" stroke="black" points="218,-1109.77 214.5,-1099.77 211,-1109.77 218,-1109.77"/>
</g>
<!-- Node0x2e5ea2b0 -->
<g id="node3" class="node"><title>Node0x2e5ea2b0</title>
<polygon fill="none" stroke="black" points="164,-880.5 164,-918.5 265,-918.5 265,-880.5 164,-880.5"/>
<text text-anchor="start" x="172" y="-903.3" font-family="Times,serif" font-size="14.00">0x7b09850:</text>
<text text-anchor="start" x="172" y="-888.3" font-family="Times,serif" font-size="14.00"> if (v3 &gt; 3):</text>
</g>
<!-- Node0x2e5e64b0&#45;&gt;Node0x2e5ea2b0 -->
<g id="edge2" class="edge"><title>Node0x2e5e64b0&#45;&gt;Node0x2e5ea2b0</title>
<path fill="none" stroke="black" d="M214.5,-956.353C214.5,-946.594 214.5,-937.073 214.5,-928.737"/>
<polygon fill="black" stroke="black" points="218,-928.54 214.5,-918.54 211,-928.54 218,-928.54"/>
</g>
<!-- Node0x2e5e7cb0 -->
<g id="node4" class="node"><title>Node0x2e5e7cb0</title>
<polygon fill="none" stroke="black" points="109,-790.5 109,-828.5 210,-828.5 210,-790.5 109,-790.5"/>
<text text-anchor="start" x="117" y="-813.3" font-family="Times,serif" font-size="14.00">0x7b09390:</text>
<text text-anchor="start" x="117" y="-798.3" font-family="Times,serif" font-size="14.00"> g29 = &#45;45</text>
</g>
<!-- Node0x2e5ea2b0&#45;&gt;Node0x2e5e7cb0 -->
<g id="edge3" class="edge"><title>Node0x2e5ea2b0&#45;&gt;Node0x2e5e7cb0</title>
<path fill="none" stroke="black" d="M198.041,-880.202C193.374,-874.572 188.483,-868.215 184.5,-862 179.696,-854.504 175.193,-845.949 171.369,-837.993"/>
<polygon fill="black" stroke="black" points="174.443,-836.301 167.065,-828.697 168.09,-839.242 174.443,-836.301"/>
<text text-anchor="middle" x="208.5" y="-850.8" font-family="Times,serif" font-size="14.00">v3 &gt; 3</text>
</g>
<!-- Node0x378394f0 -->
<g id="node5" class="node"><title>Node0x378394f0</title>
<polygon fill="none" stroke="black" points="0,-624.5 0,-752.5 437,-752.5 437,-624.5 0,-624.5"/>
<text text-anchor="start" x="8" y="-737.3" font-family="Times,serif" font-size="14.00">0x7b0a0a0:</text>
<text text-anchor="start" x="8" y="-722.3" font-family="Times,serif" font-size="14.00"> g34 = PtrToIntCastExpr&lt;int32&gt;(v1)</text>
<text text-anchor="start" x="8" y="-707.3" font-family="Times,serif" font-size="14.00"> IntToPtrCastExpr&lt;ptr&gt;(ExtCastExpr&lt;int32&gt;((v3 &gt; 3)))()</text>
<text text-anchor="start" x="8" y="-692.3" font-family="Times,serif" font-size="14.00"> function_fc04()</text>
<text text-anchor="start" x="8" y="-677.3" font-family="Times,serif" font-size="14.00"> v4 = g29</text>
<text text-anchor="start" x="8" y="-662.3" font-family="Times,serif" font-size="14.00"> g8 = False</text>
<text text-anchor="start" x="8" y="-647.3" font-family="Times,serif" font-size="14.00"> g7 = (v4 &lt; 0)</text>
<text text-anchor="start" x="8" y="-632.3" font-family="Times,serif" font-size="14.00"> g9 = (v4 == 0)</text>
</g>
<!-- Node0x2e5ea2b0&#45;&gt;Node0x378394f0 -->
<g id="edge4" class="edge"><title>Node0x2e5ea2b0&#45;&gt;Node0x378394f0</title>
<path fill="none" stroke="black" d="M225.569,-880.173C228.403,-874.543 231.056,-868.193 232.5,-862 239.948,-830.058 238.499,-793.992 234.386,-763.127"/>
<polygon fill="black" stroke="black" points="237.797,-762.267 232.898,-752.873 230.87,-763.272 237.797,-762.267"/>
<text text-anchor="middle" x="268.5" y="-805.8" font-family="Times,serif" font-size="14.00">v3 &lt;= 3</text>
</g>
<!-- Node0x2e5e7cb0&#45;&gt;Node0x378394f0 -->
<g id="edge5" class="edge"><title>Node0x2e5e7cb0&#45;&gt;Node0x378394f0</title>
<path fill="none" stroke="black" d="M168.461,-790.426C172.465,-782.35 177.472,-772.252 182.759,-761.588"/>
<polygon fill="black" stroke="black" points="185.944,-763.043 187.25,-752.529 179.672,-759.934 185.944,-763.043"/>
</g>
<!-- Node0x2e5e70b0 -->
<g id="node6" class="node"><title>Node0x2e5e70b0</title>
<polygon fill="none" stroke="black" points="163.5,-548.5 163.5,-586.5 273.5,-586.5 273.5,-548.5 163.5,-548.5"/>
<text text-anchor="start" x="171.5" y="-571.3" font-family="Times,serif" font-size="14.00">0x7b0b6c0:</text>
<text text-anchor="start" x="171.5" y="-556.3" font-family="Times,serif" font-size="14.00"> if (v4 == 0):</text>
</g>
<!-- Node0x378394f0&#45;&gt;Node0x2e5e70b0 -->
<g id="edge6" class="edge"><title>Node0x378394f0&#45;&gt;Node0x2e5e70b0</title>
<path fill="none" stroke="black" d="M218.5,-624.167C218.5,-614.596 218.5,-605.158 218.5,-596.848"/>
<polygon fill="black" stroke="black" points="222,-596.658 218.5,-586.659 215,-596.659 222,-596.658"/>
</g>
<!-- Node0x467c2080 -->
<g id="node7" class="node"><title>Node0x467c2080</title>
<polygon fill="none" stroke="black" points="119,-458.5 119,-496.5 220,-496.5 220,-458.5 119,-458.5"/>
<text text-anchor="start" x="127" y="-481.3" font-family="Times,serif" font-size="14.00">0x7b0b140:</text>
<text text-anchor="start" x="127" y="-466.3" font-family="Times,serif" font-size="14.00"> g29 = &#45;46</text>
</g>
<!-- Node0x2e5e70b0&#45;&gt;Node0x467c2080 -->
<g id="edge7" class="edge"><title>Node0x2e5e70b0&#45;&gt;Node0x467c2080</title>
<path fill="none" stroke="black" d="M196.927,-548.413C191.551,-542.977 186.256,-536.67 182.5,-530 178.473,-522.849 175.675,-514.446 173.738,-506.525"/>
<polygon fill="black" stroke="black" points="177.123,-505.612 171.656,-496.536 170.27,-507.04 177.123,-505.612"/>
<text text-anchor="middle" x="212.5" y="-518.8" font-family="Times,serif" font-size="14.00">v4 == 0</text>
</g>
<!-- Node0x2e5e60b0 -->
<g id="node8" class="node"><title>Node0x2e5e60b0</title>
<polygon fill="none" stroke="black" points="4,-97.5 4,-420.5 453,-420.5 453,-97.5 4,-97.5"/>
<text text-anchor="start" x="12" y="-405.3" font-family="Times,serif" font-size="14.00">0x7b0bed0:</text>
<text text-anchor="start" x="12" y="-390.3" font-family="Times,serif" font-size="14.00"> g38 = *(IntToPtrCastExpr&lt;ptr&gt;(g34))</text>
<text text-anchor="start" x="12" y="-375.3" font-family="Times,serif" font-size="14.00"> g39 = v1[&#39;1&#39;]</text>
<text text-anchor="start" x="12" y="-360.3" font-family="Times,serif" font-size="14.00"> g32 = v1[&#39;2&#39;]</text>
<text text-anchor="start" x="12" y="-345.3" font-family="Times,serif" font-size="14.00"> g34 = v1[&#39;3&#39;]</text>
<text text-anchor="start" x="12" y="-330.3" font-family="Times,serif" font-size="14.00"> IntToPtrCastExpr&lt;ptr&gt;(ExtCastExpr&lt;int32&gt;((v4 == 0)))()</text>
<text text-anchor="start" x="12" y="-315.3" font-family="Times,serif" font-size="14.00"> g29 = v1[&#39;4&#39;]</text>
<text text-anchor="start" x="12" y="-300.3" font-family="Times,serif" font-size="14.00"> function_1220c()</text>
<text text-anchor="start" x="12" y="-285.3" font-family="Times,serif" font-size="14.00"> v5 = g39</text>
<text text-anchor="start" x="12" y="-270.3" font-family="Times,serif" font-size="14.00"> g8 = False</text>
<text text-anchor="start" x="12" y="-255.3" font-family="Times,serif" font-size="14.00"> g7 = (v5 &lt; 0)</text>
<text text-anchor="start" x="12" y="-240.3" font-family="Times,serif" font-size="14.00"> g9 = (v5 == 0)</text>
<text text-anchor="start" x="12" y="-225.3" font-family="Times,serif" font-size="14.00"> g29 = v1[&#39;5&#39;]</text>
<text text-anchor="start" x="12" y="-210.3" font-family="Times,serif" font-size="14.00"> g30 = (11 if (v5 == 0) else 4)</text>
<text text-anchor="start" x="12" y="-195.3" font-family="Times,serif" font-size="14.00"> function_21c70()</text>
<text text-anchor="start" x="12" y="-180.3" font-family="Times,serif" font-size="14.00"> g29 = 0</text>
<text text-anchor="start" x="12" y="-165.3" font-family="Times,serif" font-size="14.00"> g38 = v1[&#39;3&#39;]</text>
<text text-anchor="start" x="12" y="-150.3" font-family="Times,serif" font-size="14.00"> g39 = v1[&#39;4&#39;]</text>
<text text-anchor="start" x="12" y="-135.3" font-family="Times,serif" font-size="14.00"> g32 = v1[&#39;5&#39;]</text>
<text text-anchor="start" x="12" y="-120.3" font-family="Times,serif" font-size="14.00"> g34 = v1[&#39;6&#39;]</text>
<text text-anchor="start" x="12" y="-105.3" font-family="Times,serif" font-size="14.00"> IntToPtrCastExpr&lt;ptr&gt;(v1[&#39;7&#39;])()</text>
</g>
<!-- Node0x2e5e70b0&#45;&gt;Node0x2e5e60b0 -->
<g id="edge8" class="edge"><title>Node0x2e5e70b0&#45;&gt;Node0x2e5e60b0</title>
<path fill="none" stroke="black" d="M233.469,-548.234C237.152,-542.705 240.586,-536.394 242.5,-530 244.412,-523.613 242.683,-521.664 242.5,-515 241.756,-487.862 240.566,-459.118 239.188,-431.089"/>
<polygon fill="black" stroke="black" points="242.668,-430.611 238.672,-420.799 235.677,-430.961 242.668,-430.611"/>
<text text-anchor="middle" x="269.5" y="-473.8" font-family="Times,serif" font-size="14.00">v4 != 0</text>
</g>
<!-- Node0x467c2080&#45;&gt;Node0x2e5e60b0 -->
<g id="edge9" class="edge"><title>Node0x467c2080&#45;&gt;Node0x2e5e60b0</title>
<path fill="none" stroke="black" d="M174.429,-458.414C176.485,-450.868 179.082,-441.338 182.02,-430.558"/>
<polygon fill="black" stroke="black" points="185.432,-431.349 184.684,-420.781 178.678,-429.509 185.432,-431.349"/>
</g>
<!-- Node0x2e5e49b0 -->
<g id="node9" class="node"><title>Node0x2e5e49b0</title>
<polygon fill="none" stroke="black" points="201.5,-23.5 201.5,-59.5 255.5,-59.5 255.5,-23.5 201.5,-23.5"/>
<text text-anchor="start" x="209.5" y="-37.8" font-family="Times,serif" font-size="14.00">exit:</text>
</g>
<!-- Node0x2e5e60b0&#45;&gt;Node0x2e5e49b0 -->
<g id="edge10" class="edge"><title>Node0x2e5e60b0&#45;&gt;Node0x2e5e49b0</title>
<path fill="none" stroke="black" d="M228.5,-97.4373C228.5,-87.1305 228.5,-77.6801 228.5,-69.6314"/>
<polygon fill="black" stroke="black" points="232,-69.5759 228.5,-59.576 225,-69.576 232,-69.5759"/>
</g>
</g>
</svg>
