<?xml version="1.0" encoding="UTF-8" standalone="no"?>
<!DOCTYPE svg PUBLIC "-//W3C//DTD SVG 1.1//EN"
 "http://www.w3.org/Graphics/SVG/1.1/DTD/svg11.dtd">
<!-- Generated by graphviz version 2.38.0 (20140413.2041)
 -->
<!-- Title: Control&#45;flow graph for function &#39;function_891c()&#39;. Pages: 1 -->
<svg width="550pt" height="1433pt"
 viewBox="0.00 0.00 549.50 1433.00" xmlns="http://www.w3.org/2000/svg" xmlns:xlink="http://www.w3.org/1999/xlink">
<g id="graph0" class="graph" transform="scale(1 1) rotate(0) translate(4 1429)">
<title>Control&#45;flow graph for function &#39;function_891c()&#39;.</title>
<polygon fill="white" stroke="none" points="-4,4 -4,-1429 545.5,-1429 545.5,4 -4,4"/>
<text text-anchor="middle" x="270.75" y="-7.8" font-family="Times,serif" font-size="14.00">Control&#45;flow graph for function &#39;function_891c()&#39;.</text>
<!-- Node0x2bad2700 -->
<g id="node1" class="node"><title>Node0x2bad2700</title>
<polygon fill="none" stroke="black" points="192,-1388.5 192,-1424.5 251,-1424.5 251,-1388.5 192,-1388.5"/>
<text text-anchor="start" x="200" y="-1402.8" font-family="Times,serif" font-size="14.00">entry:</text>
</g>
<!-- Node0x15075010 -->
<g id="node2" class="node"><title>Node0x15075010</title>
<polygon fill="none" stroke="black" points="0,-1192.5 0,-1350.5 443,-1350.5 443,-1192.5 0,-1192.5"/>
<text text-anchor="start" x="8" y="-1335.3" font-family="Times,serif" font-size="14.00">0x16a87530:</text>
<text text-anchor="start" x="8" y="-1320.3" font-family="Times,serif" font-size="14.00"> v1 = g30</text>
<text text-anchor="start" x="8" y="-1305.3" font-family="Times,serif" font-size="14.00"> v2 = *(IntToPtrCastExpr&lt;ptr&gt;((v1 + 1)))</text>
<text text-anchor="start" x="8" y="-1290.3" font-family="Times,serif" font-size="14.00"> g33 = v2</text>
<text text-anchor="start" x="8" y="-1275.3" font-family="Times,serif" font-size="14.00"> v3 = ExtCastExpr&lt;int32&gt;(*(IntToPtrCastExpr&lt;ptr&gt;(v1)))</text>
<text text-anchor="start" x="8" y="-1260.3" font-family="Times,serif" font-size="14.00"> g30 = v3</text>
<text text-anchor="start" x="8" y="-1245.3" font-family="Times,serif" font-size="14.00"> v4 = *(IntToPtrCastExpr&lt;ptr&gt;(g29))</text>
<text text-anchor="start" x="8" y="-1230.3" font-family="Times,serif" font-size="14.00"> v5 = v4</text>
<text text-anchor="start" x="8" y="-1215.3" font-family="Times,serif" font-size="14.00"> g36 = v5</text>
<text text-anchor="start" x="8" y="-1200.3" font-family="Times,serif" font-size="14.00"> g9 = (v4 == 0)</text>
</g>
<!-- Node0x2bad2700&#45;&gt;Node0x15075010 -->
<g id="edge1" class="edge"><title>Node0x2bad2700&#45;&gt;Node0x15075010</title>
<path fill="none" stroke="black" d="M221.5,-1388.38C221.5,-1380.78 221.5,-1371.21 221.5,-1360.83"/>
<polygon fill="black" stroke="black" points="225,-1360.68 221.5,-1350.68 218,-1360.68 225,-1360.68"/>
</g>
<!-- Node0x271f2710 -->
<g id="node3" class="node"><title>Node0x271f2710</title>
<polygon fill="none" stroke="black" points="166.5,-1116.5 166.5,-1154.5 276.5,-1154.5 276.5,-1116.5 166.5,-1116.5"/>
<text text-anchor="start" x="174.5" y="-1139.3" font-family="Times,serif" font-size="14.00">0x6c04680:</text>
<text text-anchor="start" x="174.5" y="-1124.3" font-family="Times,serif" font-size="14.00"> if (v4 == 0):</text>
</g>
<!-- Node0x15075010&#45;&gt;Node0x271f2710 -->
<g id="edge2" class="edge"><title>Node0x15075010&#45;&gt;Node0x271f2710</title>
<path fill="none" stroke="black" d="M221.5,-1192.16C221.5,-1182.45 221.5,-1173.06 221.5,-1164.85"/>
<polygon fill="black" stroke="black" points="225,-1164.8 221.5,-1154.8 218,-1164.8 225,-1164.8"/>
</g>
<!-- Node0x2bad1300 -->
<g id="node4" class="node"><title>Node0x2bad1300</title>
<polygon fill="none" stroke="black" points="115.5,-954.5 115.5,-1007.5 215.5,-1007.5 215.5,-954.5 115.5,-954.5"/>
<text text-anchor="start" x="123.5" y="-992.3" font-family="Times,serif" font-size="14.00">0x6c040e0:</text>
<text text-anchor="start" x="123.5" y="-977.3" font-family="Times,serif" font-size="14.00"> g29 = 0</text>
<text text-anchor="start" x="123.5" y="-962.3" font-family="Times,serif" font-size="14.00"> return</text>
</g>
<!-- Node0x271f2710&#45;&gt;Node0x2bad1300 -->
<g id="edge3" class="edge"><title>Node0x271f2710&#45;&gt;Node0x2bad1300</title>
<path fill="none" stroke="black" d="M193.694,-1116.27C187.762,-1111.07 182.182,-1104.91 178.5,-1098 165.391,-1073.38 162.62,-1041.7 162.86,-1017.68"/>
<polygon fill="black" stroke="black" points="166.362,-1017.65 163.141,-1007.56 159.365,-1017.46 166.362,-1017.65"/>
<text text-anchor="middle" x="208.5" y="-1086.8" font-family="Times,serif" font-size="14.00">v4 == 0</text>
</g>
<!-- Node0x115e75d0 -->
<g id="node5" class="node"><title>Node0x115e75d0</title>
<polygon fill="none" stroke="black" points="216.5,-1026.5 216.5,-1064.5 326.5,-1064.5 326.5,-1026.5 216.5,-1026.5"/>
<text text-anchor="start" x="224.5" y="-1049.3" font-family="Times,serif" font-size="14.00">0x16a87680:</text>
<text text-anchor="start" x="224.5" y="-1034.3" font-family="Times,serif" font-size="14.00"> v6 = g29</text>
</g>
<!-- Node0x271f2710&#45;&gt;Node0x115e75d0 -->
<g id="edge4" class="edge"><title>Node0x271f2710&#45;&gt;Node0x115e75d0</title>
<path fill="none" stroke="black" d="M232.001,-1116.32C235.366,-1110.48 239.1,-1103.97 242.5,-1098 247.024,-1090.05 251.913,-1081.4 256.364,-1073.49"/>
<polygon fill="black" stroke="black" points="259.491,-1075.07 261.341,-1064.64 253.389,-1071.64 259.491,-1075.07"/>
<text text-anchor="middle" x="278.5" y="-1086.8" font-family="Times,serif" font-size="14.00">v4 != 0</text>
</g>
<!-- Node0x400b2d00 -->
<g id="node6" class="node"><title>Node0x400b2d00</title>
<polygon fill="none" stroke="black" points="144.5,-23.5 144.5,-59.5 198.5,-59.5 198.5,-23.5 144.5,-23.5"/>
<text text-anchor="start" x="152.5" y="-37.8" font-family="Times,serif" font-size="14.00">exit:</text>
</g>
<!-- Node0x2bad1300&#45;&gt;Node0x400b2d00 -->
<g id="edge5" class="edge"><title>Node0x2bad1300&#45;&gt;Node0x400b2d00</title>
<path fill="none" stroke="black" d="M144.948,-954.279C130.413,-933.477 113.5,-902.769 113.5,-872.5 113.5,-872.5 113.5,-872.5 113.5,-115.5 113.5,-96.2427 126.026,-79.1184 139.436,-66.3036"/>
<polygon fill="black" stroke="black" points="141.771,-68.9106 146.903,-59.6414 137.111,-63.6874 141.771,-68.9106"/>
</g>
<!-- Node0x44612d50 -->
<g id="node7" class="node"><title>Node0x44612d50</title>
<polygon fill="none" stroke="black" points="251,-897.5 251,-935.5 352,-935.5 352,-897.5 251,-897.5"/>
<text text-anchor="start" x="259" y="-920.3" font-family="Times,serif" font-size="14.00">0x6c08550:</text>
<text text-anchor="start" x="259" y="-905.3" font-family="Times,serif" font-size="14.00"> while True:</text>
</g>
<!-- Node0x115e75d0&#45;&gt;Node0x44612d50 -->
<g id="edge6" class="edge"><title>Node0x115e75d0&#45;&gt;Node0x44612d50</title>
<path fill="none" stroke="black" d="M275.798,-1026.3C280.788,-1005.18 289.076,-970.096 294.887,-945.493"/>
<polygon fill="black" stroke="black" points="298.317,-946.199 297.21,-935.662 291.504,-944.59 298.317,-946.199"/>
</g>
<!-- Node0x115e7bc0 -->
<g id="node8" class="node"><title>Node0x115e7bc0</title>
<polygon fill="none" stroke="black" points="142,-792.5 142,-845.5 461,-845.5 461,-792.5 142,-792.5"/>
<text text-anchor="start" x="150" y="-830.3" font-family="Times,serif" font-size="14.00">0x16a879c0:</text>
<text text-anchor="start" x="150" y="-815.3" font-family="Times,serif" font-size="14.00"> v7 = *(IntToPtrCastExpr&lt;ptr&gt;((v6 + 1)))</text>
<text text-anchor="start" x="150" y="-800.3" font-family="Times,serif" font-size="14.00"> v8 = (v6 + 2)</text>
</g>
<!-- Node0x44612d50&#45;&gt;Node0x115e7bc0 -->
<g id="edge7" class="edge"><title>Node0x44612d50&#45;&gt;Node0x115e7bc0</title>
<path fill="none" stroke="black" d="M301.5,-897.087C301.5,-885.425 301.5,-869.951 301.5,-855.929"/>
<polygon fill="black" stroke="black" points="305,-855.577 301.5,-845.577 298,-855.577 305,-855.577"/>
<text text-anchor="middle" x="318.5" y="-867.8" font-family="Times,serif" font-size="14.00">True</text>
</g>
<!-- Node0x1abf4d50 -->
<g id="node9" class="node"><title>Node0x1abf4d50</title>
<polygon fill="none" stroke="black" points="227.5,-716.5 227.5,-754.5 337.5,-754.5 337.5,-716.5 227.5,-716.5"/>
<text text-anchor="start" x="235.5" y="-739.3" font-family="Times,serif" font-size="14.00">0x6c060f0:</text>
<text text-anchor="start" x="235.5" y="-724.3" font-family="Times,serif" font-size="14.00"> if (v7 == 0):</text>
</g>
<!-- Node0x115e7bc0&#45;&gt;Node0x1abf4d50 -->
<g id="edge8" class="edge"><title>Node0x115e7bc0&#45;&gt;Node0x1abf4d50</title>
<path fill="none" stroke="black" d="M295.488,-792.213C293.441,-783.431 291.143,-773.572 289.055,-764.617"/>
<polygon fill="black" stroke="black" points="292.408,-763.582 286.729,-754.638 285.59,-765.172 292.408,-763.582"/>
</g>
<!-- Node0x1224dd10 -->
<g id="node10" class="node"><title>Node0x1224dd10</title>
<polygon fill="none" stroke="black" points="135,-554.5 135,-607.5 234,-607.5 234,-554.5 135,-554.5"/>
<text text-anchor="start" x="143" y="-592.3" font-family="Times,serif" font-size="14.00">0x6c05ac0:</text>
<text text-anchor="start" x="143" y="-577.3" font-family="Times,serif" font-size="14.00"> g29 = 0</text>
<text text-anchor="start" x="143" y="-562.3" font-family="Times,serif" font-size="14.00"> return</text>
</g>
<!-- Node0x1abf4d50&#45;&gt;Node0x1224dd10 -->
<g id="edge9" class="edge"><title>Node0x1abf4d50&#45;&gt;Node0x1224dd10</title>
<path fill="none" stroke="black" d="M240.02,-716.442C231.982,-711.442 224.29,-705.326 218.5,-698 200.283,-674.949 191.822,-642.418 187.895,-617.669"/>
<polygon fill="black" stroke="black" points="191.336,-617.003 186.474,-607.589 184.404,-617.98 191.336,-617.003"/>
<text text-anchor="middle" x="248.5" y="-686.8" font-family="Times,serif" font-size="14.00">v7 == 0</text>
</g>
<!-- Node0xc4e0ce0 -->
<g id="node11" class="node"><title>Node0xc4e0ce0</title>
<polygon fill="none" stroke="black" points="223.5,-626.5 223.5,-664.5 341.5,-664.5 341.5,-626.5 223.5,-626.5"/>
<text text-anchor="start" x="231.5" y="-649.3" font-family="Times,serif" font-size="14.00">0x6c06ca0:</text>
<text text-anchor="start" x="231.5" y="-634.3" font-family="Times,serif" font-size="14.00"> if (v5 == v3):</text>
</g>
<!-- Node0x1abf4d50&#45;&gt;Node0xc4e0ce0 -->
<g id="edge10" class="edge"><title>Node0x1abf4d50&#45;&gt;Node0xc4e0ce0</title>
<path fill="none" stroke="black" d="M282.5,-716.266C282.5,-704.349 282.5,-688.538 282.5,-674.982"/>
<polygon fill="black" stroke="black" points="286,-674.71 282.5,-664.71 279,-674.71 286,-674.71"/>
<text text-anchor="middle" x="309.5" y="-686.8" font-family="Times,serif" font-size="14.00">v7 != 0</text>
</g>
<!-- Node0x1224dd10&#45;&gt;Node0x400b2d00 -->
<g id="edge11" class="edge"><title>Node0x1224dd10&#45;&gt;Node0x400b2d00</title>
<path fill="none" stroke="black" d="M171.836,-554.173C162.53,-532.809 151.5,-501.394 151.5,-472.5 151.5,-472.5 151.5,-472.5 151.5,-115.5 151.5,-99.7928 155.86,-82.8386 160.509,-69.2263"/>
<polygon fill="black" stroke="black" points="163.902,-70.1381 164.053,-59.5443 157.329,-67.732 163.902,-70.1381"/>
</g>
<!-- Node0x3565bed0 -->
<g id="node12" class="node"><title>Node0x3565bed0</title>
<polygon fill="none" stroke="black" points="203.5,-497.5 203.5,-535.5 321.5,-535.5 321.5,-497.5 203.5,-497.5"/>
<text text-anchor="start" x="211.5" y="-520.3" font-family="Times,serif" font-size="14.00">0x6c06ad0:</text>
<text text-anchor="start" x="211.5" y="-505.3" font-family="Times,serif" font-size="14.00"> if (v7 == v2):</text>
</g>
<!-- Node0xc4e0ce0&#45;&gt;Node0x3565bed0 -->
<g id="edge12" class="edge"><title>Node0xc4e0ce0&#45;&gt;Node0x3565bed0</title>
<path fill="none" stroke="black" d="M278.843,-626.336C277.713,-620.492 276.503,-613.982 275.5,-608 272.007,-587.16 268.631,-563.521 266.196,-545.63"/>
<polygon fill="black" stroke="black" points="269.644,-545.012 264.842,-535.568 262.706,-545.945 269.644,-545.012"/>
<text text-anchor="middle" x="309.5" y="-577.3" font-family="Times,serif" font-size="14.00">v5 == v3</text>
</g>
<!-- Node0x11deeee0 -->
<g id="node13" class="node"><title>Node0x11deeee0</title>
<polygon fill="none" stroke="black" points="217.5,-407.5 217.5,-445.5 495.5,-445.5 495.5,-407.5 217.5,-407.5"/>
<text text-anchor="start" x="225.5" y="-430.3" font-family="Times,serif" font-size="14.00">0x16a87840:</text>
<text text-anchor="start" x="225.5" y="-415.3" font-family="Times,serif" font-size="14.00"> v9 = *(IntToPtrCastExpr&lt;ptr&gt;(v8))</text>
</g>
<!-- Node0xc4e0ce0&#45;&gt;Node0x11deeee0 -->
<g id="edge13" class="edge"><title>Node0xc4e0ce0&#45;&gt;Node0x11deeee0</title>
<path fill="none" stroke="black" d="M325.14,-626.346C332.359,-621.42 338.972,-615.357 343.5,-608 372.428,-561 367.778,-493.515 362.01,-455.787"/>
<polygon fill="black" stroke="black" points="365.397,-454.82 360.3,-445.532 358.492,-455.971 365.397,-454.82"/>
<text text-anchor="middle" x="397.5" y="-512.8" font-family="Times,serif" font-size="14.00">v5 != v3</text>
</g>
<!-- Node0x3565bed0&#45;&gt;Node0x11deeee0 -->
<g id="edge15" class="edge"><title>Node0x3565bed0&#45;&gt;Node0x11deeee0</title>
<path fill="none" stroke="black" d="M265.735,-497.029C268.416,-486.322 273.186,-473.185 281.5,-464 286.005,-459.023 291.338,-454.651 297.051,-450.829"/>
<polygon fill="black" stroke="black" points="298.909,-453.796 305.642,-445.616 295.277,-447.812 298.909,-453.796"/>
<text text-anchor="middle" x="312.5" y="-467.8" font-family="Times,serif" font-size="14.00">v7 != v2</text>
</g>
<!-- Node0x3565d2d0 -->
<g id="node14" class="node"><title>Node0x3565d2d0</title>
<polygon fill="none" stroke="black" points="167,-335.5 167,-388.5 268,-388.5 268,-335.5 167,-335.5"/>
<text text-anchor="start" x="175" y="-373.3" font-family="Times,serif" font-size="14.00">0x6c06730:</text>
<text text-anchor="start" x="175" y="-358.3" font-family="Times,serif" font-size="14.00"> g29 = 1</text>
<text text-anchor="start" x="175" y="-343.3" font-family="Times,serif" font-size="14.00"> return</text>
</g>
<!-- Node0x3565bed0&#45;&gt;Node0x3565d2d0 -->
<g id="edge14" class="edge"><title>Node0x3565bed0&#45;&gt;Node0x3565d2d0</title>
<path fill="none" stroke="black" d="M218.12,-497.288C211.066,-492.405 204.716,-486.374 200.5,-479 186.471,-454.462 192.665,-422.412 201.269,-398.22"/>
<polygon fill="black" stroke="black" points="204.604,-399.299 204.916,-388.709 198.068,-396.793 204.604,-399.299"/>
<text text-anchor="middle" x="234.5" y="-467.8" font-family="Times,serif" font-size="14.00">v7 == v2</text>
</g>
<!-- Node0xcc39840 -->
<g id="node15" class="node"><title>Node0xcc39840</title>
<polygon fill="none" stroke="black" points="301.5,-278.5 301.5,-316.5 411.5,-316.5 411.5,-278.5 301.5,-278.5"/>
<text text-anchor="start" x="309.5" y="-301.3" font-family="Times,serif" font-size="14.00">0x6c07eb0:</text>
<text text-anchor="start" x="309.5" y="-286.3" font-family="Times,serif" font-size="14.00"> if (v9 == 0):</text>
</g>
<!-- Node0x11deeee0&#45;&gt;Node0xcc39840 -->
<g id="edge16" class="edge"><title>Node0x11deeee0&#45;&gt;Node0xcc39840</title>
<path fill="none" stroke="black" d="M356.5,-407.304C356.5,-386.273 356.5,-351.409 356.5,-326.824"/>
<polygon fill="black" stroke="black" points="360,-326.662 356.5,-316.662 353,-326.662 360,-326.662"/>
</g>
<!-- Node0x3565d2d0&#45;&gt;Node0x400b2d00 -->
<g id="edge17" class="edge"><title>Node0x3565d2d0&#45;&gt;Node0x400b2d00</title>
<path fill="none" stroke="black" d="M208.049,-335.322C200.969,-313.783 192.5,-282.05 192.5,-253.5 192.5,-253.5 192.5,-253.5 192.5,-115.5 192.5,-99.7367 187.922,-82.7788 183.041,-69.1785"/>
<polygon fill="black" stroke="black" points="186.177,-67.5842 179.32,-59.5081 179.644,-70.098 186.177,-67.5842"/>
</g>
<!-- Node0x232a87e0 -->
<g id="node16" class="node"><title>Node0x232a87e0</title>
<polygon fill="none" stroke="black" points="298,-181 298,-219 399,-219 399,-181 298,-181"/>
<text text-anchor="start" x="306" y="-203.8" font-family="Times,serif" font-size="14.00">0x6c07bd0:</text>
<text text-anchor="start" x="306" y="-188.8" font-family="Times,serif" font-size="14.00"> break</text>
</g>
<!-- Node0xcc39840&#45;&gt;Node0x232a87e0 -->
<g id="edge18" class="edge"><title>Node0xcc39840&#45;&gt;Node0x232a87e0</title>
<path fill="none" stroke="black" d="M354.958,-278.087C353.799,-264.258 352.192,-245.071 350.871,-229.299"/>
<polygon fill="black" stroke="black" points="354.333,-228.706 350.011,-219.033 347.358,-229.29 354.333,-228.706"/>
<text text-anchor="middle" x="383.5" y="-248.8" font-family="Times,serif" font-size="14.00">v9 == 0</text>
</g>
<!-- Node0x20a8b8a0 -->
<g id="node17" class="node"><title>Node0x20a8b8a0</title>
<polygon fill="none" stroke="black" points="445.5,-173.5 445.5,-226.5 541.5,-226.5 541.5,-173.5 445.5,-173.5"/>
<text text-anchor="start" x="453.5" y="-211.3" font-family="Times,serif" font-size="14.00">0x6c07af0:</text>
<text text-anchor="start" x="453.5" y="-196.3" font-family="Times,serif" font-size="14.00"> v5 = v9</text>
<text text-anchor="start" x="453.5" y="-181.3" font-family="Times,serif" font-size="14.00"> v6 = v8</text>
</g>
<!-- Node0xcc39840&#45;&gt;Node0x20a8b8a0 -->
<g id="edge19" class="edge"><title>Node0xcc39840&#45;&gt;Node0x20a8b8a0</title>
<path fill="none" stroke="black" d="M388.302,-278.456C397.841,-272.782 408.229,-266.338 417.5,-260 429.706,-251.656 442.557,-242.028 454.148,-233.002"/>
<polygon fill="black" stroke="black" points="456.64,-235.495 462.338,-226.563 452.313,-229.992 456.64,-235.495"/>
<text text-anchor="middle" x="463.5" y="-248.8" font-family="Times,serif" font-size="14.00">v9 != 0</text>
</g>
<!-- Node0x15801040 -->
<g id="node18" class="node"><title>Node0x15801040</title>
<polygon fill="none" stroke="black" points="265,-97.5 265,-135.5 366,-135.5 366,-97.5 265,-97.5"/>
<text text-anchor="start" x="273" y="-120.3" font-family="Times,serif" font-size="14.00">0x6c08280:</text>
<text text-anchor="start" x="273" y="-105.3" font-family="Times,serif" font-size="14.00"> g29 = 0</text>
</g>
<!-- Node0x232a87e0&#45;&gt;Node0x15801040 -->
<g id="edge20" class="edge"><title>Node0x232a87e0&#45;&gt;Node0x15801040</title>
<path fill="none" stroke="black" d="M341.176,-180.913C336.904,-170.361 331.428,-156.837 326.631,-144.991"/>
<polygon fill="black" stroke="black" points="329.801,-143.492 322.803,-135.537 323.312,-146.12 329.801,-143.492"/>
</g>
<!-- Node0x20a8b8a0&#45;&gt;Node0x44612d50 -->
<g id="edge21" class="edge"><title>Node0x20a8b8a0&#45;&gt;Node0x44612d50</title>
<path fill="none" stroke="black" d="M506.223,-226.666C514.399,-245.514 523.5,-271.996 523.5,-296.5 523.5,-820 523.5,-820 523.5,-820 523.5,-890.392 428.149,-909.537 362.427,-914.372"/>
<polygon fill="black" stroke="black" points="361.909,-910.898 352.153,-915.031 362.357,-917.884 361.909,-910.898"/>
</g>
<!-- Node0x15801040&#45;&gt;Node0x400b2d00 -->
<g id="edge22" class="edge"><title>Node0x15801040&#45;&gt;Node0x400b2d00</title>
<path fill="none" stroke="black" d="M279.904,-97.4551C257.896,-86.298 229.729,-72.019 207.623,-60.8126"/>
<polygon fill="black" stroke="black" points="209.058,-57.6159 198.556,-56.216 205.893,-63.8595 209.058,-57.6159"/>
</g>
</g>
</svg>
