<?xml version="1.0" encoding="UTF-8" standalone="no"?>
<!DOCTYPE svg PUBLIC "-//W3C//DTD SVG 1.1//EN"
 "http://www.w3.org/Graphics/SVG/1.1/DTD/svg11.dtd">
<!-- Generated by graphviz version 2.38.0 (20140413.2041)
 -->
<!-- Title: Control&#45;flow graph for function &#39;function_6484()&#39;. Pages: 1 -->
<svg width="543pt" height="1090pt"
 viewBox="0.00 0.00 543.00 1090.00" xmlns="http://www.w3.org/2000/svg" xmlns:xlink="http://www.w3.org/1999/xlink">
<g id="graph0" class="graph" transform="scale(1 1) rotate(0) translate(4 1086)">
<title>Control&#45;flow graph for function &#39;function_6484()&#39;.</title>
<polygon fill="white" stroke="none" points="-4,4 -4,-1086 539,-1086 539,4 -4,4"/>
<text text-anchor="middle" x="267.5" y="-7.8" font-family="Times,serif" font-size="14.00">Control&#45;flow graph for function &#39;function_6484()&#39;.</text>
<!-- Node0x3fa17f50 -->
<g id="node1" class="node"><title>Node0x3fa17f50</title>
<polygon fill="none" stroke="black" points="288.5,-1045.5 288.5,-1081.5 347.5,-1081.5 347.5,-1045.5 288.5,-1045.5"/>
<text text-anchor="start" x="296.5" y="-1059.8" font-family="Times,serif" font-size="14.00">entry:</text>
</g>
<!-- Node0x13118ff0 -->
<g id="node2" class="node"><title>Node0x13118ff0</title>
<polygon fill="none" stroke="black" points="101,-669.5 101,-1007.5 535,-1007.5 535,-669.5 101,-669.5"/>
<text text-anchor="start" x="109" y="-992.3" font-family="Times,serif" font-size="14.00">0x17b2eda0:</text>
<text text-anchor="start" x="109" y="-977.3" font-family="Times,serif" font-size="14.00"> v1 = g39</text>
<text text-anchor="start" x="109" y="-962.3" font-family="Times,serif" font-size="14.00"> v2 = g40</text>
<text text-anchor="start" x="109" y="-947.3" font-family="Times,serif" font-size="14.00"> v3 = g41</text>
<text text-anchor="start" x="109" y="-932.3" font-family="Times,serif" font-size="14.00"> v4 = g42</text>
<text text-anchor="start" x="109" y="-917.3" font-family="Times,serif" font-size="14.00"> v5 = g35</text>
<text text-anchor="start" x="109" y="-902.3" font-family="Times,serif" font-size="14.00"> v6 = g29</text>
<text text-anchor="start" x="109" y="-887.3" font-family="Times,serif" font-size="14.00"> v7 = *(IntToPtrCastExpr&lt;ptr&gt;((v6 + 4)))</text>
<text text-anchor="start" x="109" y="-872.3" font-family="Times,serif" font-size="14.00"> g37 = v7</text>
<text text-anchor="start" x="109" y="-857.3" font-family="Times,serif" font-size="14.00"> v8 = g30</text>
<text text-anchor="start" x="109" y="-842.3" font-family="Times,serif" font-size="14.00"> g40 = v8</text>
<text text-anchor="start" x="109" y="-827.3" font-family="Times,serif" font-size="14.00"> g41 = v6</text>
<text text-anchor="start" x="109" y="-812.3" font-family="Times,serif" font-size="14.00"> v9 = g36</text>
<text text-anchor="start" x="109" y="-797.3" font-family="Times,serif" font-size="14.00"> g30 = ((v8 + 2160) + v9)</text>
<text text-anchor="start" x="109" y="-782.3" font-family="Times,serif" font-size="14.00"> g29 = v7</text>
<text text-anchor="start" x="109" y="-767.3" font-family="Times,serif" font-size="14.00"> g42 = v9</text>
<text text-anchor="start" x="109" y="-752.3" font-family="Times,serif" font-size="14.00"> g35 = 25784</text>
<text text-anchor="start" x="109" y="-737.3" font-family="Times,serif" font-size="14.00"> IntToPtrCastExpr&lt;ptr&gt;(*(IntToPtrCastExpr&lt;ptr&gt;(v7)))()</text>
<text text-anchor="start" x="109" y="-722.3" font-family="Times,serif" font-size="14.00"> v10 = g29</text>
<text text-anchor="start" x="109" y="-707.3" font-family="Times,serif" font-size="14.00"> g9 = (v10 == 0)</text>
<text text-anchor="start" x="109" y="-692.3" font-family="Times,serif" font-size="14.00"> g39 = v10</text>
<text text-anchor="start" x="109" y="-677.3" font-family="Times,serif" font-size="14.00"> v11</text>
</g>
<!-- Node0x3fa17f50&#45;&gt;Node0x13118ff0 -->
<g id="edge1" class="edge"><title>Node0x3fa17f50&#45;&gt;Node0x13118ff0</title>
<path fill="none" stroke="black" d="M318,-1045.37C318,-1038.03 318,-1028.69 318,-1018.05"/>
<polygon fill="black" stroke="black" points="321.5,-1017.93 318,-1007.93 314.5,-1017.93 321.5,-1017.93"/>
</g>
<!-- Node0x397897c0 -->
<g id="node3" class="node"><title>Node0x397897c0</title>
<polygon fill="none" stroke="black" points="261.5,-578.5 261.5,-631.5 374.5,-631.5 374.5,-578.5 261.5,-578.5"/>
<text text-anchor="start" x="269.5" y="-616.3" font-family="Times,serif" font-size="14.00">0x60fa6b0:</text>
<text text-anchor="start" x="269.5" y="-601.3" font-family="Times,serif" font-size="14.00"> if (v10 != 0):</text>
<text text-anchor="start" x="269.5" y="-586.3" font-family="Times,serif" font-size="14.00"> else:</text>
</g>
<!-- Node0x13118ff0&#45;&gt;Node0x397897c0 -->
<g id="edge2" class="edge"><title>Node0x13118ff0&#45;&gt;Node0x397897c0</title>
<path fill="none" stroke="black" d="M318,-669.258C318,-659.312 318,-650.021 318,-641.787"/>
<polygon fill="black" stroke="black" points="321.5,-641.603 318,-631.603 314.5,-641.603 321.5,-641.603"/>
</g>
<!-- Node0xee4f780 -->
<g id="node4" class="node"><title>Node0xee4f780</title>
<polygon fill="none" stroke="black" points="0,-308.5 0,-526.5 380,-526.5 380,-308.5 0,-308.5"/>
<text text-anchor="start" x="8" y="-511.3" font-family="Times,serif" font-size="14.00">0x60f7090:</text>
<text text-anchor="start" x="8" y="-496.3" font-family="Times,serif" font-size="14.00"> g38 = (v10 + 2160)</text>
<text text-anchor="start" x="8" y="-481.3" font-family="Times,serif" font-size="14.00"> memset(IntToPtrCastExpr&lt;ptr&gt;(v10), g10, 2160)</text>
<text text-anchor="start" x="8" y="-466.3" font-family="Times,serif" font-size="14.00"> v12 = g39</text>
<text text-anchor="start" x="8" y="-451.3" font-family="Times,serif" font-size="14.00"> g29 = (v12 + 116)</text>
<text text-anchor="start" x="8" y="-436.3" font-family="Times,serif" font-size="14.00"> g30 = g38</text>
<text text-anchor="start" x="8" y="-421.3" font-family="Times,serif" font-size="14.00"> g36 = g40</text>
<text text-anchor="start" x="8" y="-406.3" font-family="Times,serif" font-size="14.00"> *(IntToPtrCastExpr&lt;ptr&gt;(v12)) = g41</text>
<text text-anchor="start" x="8" y="-391.3" font-family="Times,serif" font-size="14.00"> function_13204()</text>
<text text-anchor="start" x="8" y="-376.3" font-family="Times,serif" font-size="14.00"> g30 = (g38 + g40)</text>
<text text-anchor="start" x="8" y="-361.3" font-family="Times,serif" font-size="14.00"> g36 = g42</text>
<text text-anchor="start" x="8" y="-346.3" font-family="Times,serif" font-size="14.00"> g29 = (g39 + 100)</text>
<text text-anchor="start" x="8" y="-331.3" font-family="Times,serif" font-size="14.00"> function_13204()</text>
<text text-anchor="start" x="8" y="-316.3" font-family="Times,serif" font-size="14.00"> v11 = g39</text>
</g>
<!-- Node0x397897c0&#45;&gt;Node0xee4f780 -->
<g id="edge3" class="edge"><title>Node0x397897c0&#45;&gt;Node0xee4f780</title>
<path fill="none" stroke="black" d="M300.202,-578.207C292.013,-566.339 281.662,-551.338 270.601,-535.308"/>
<polygon fill="black" stroke="black" points="273.319,-533.085 264.759,-526.842 267.558,-537.061 273.319,-533.085"/>
<text text-anchor="middle" x="319.5" y="-548.8" font-family="Times,serif" font-size="14.00">v10 != 0</text>
</g>
<!-- Node0x41d17810 -->
<g id="node5" class="node"><title>Node0x41d17810</title>
<polygon fill="none" stroke="black" points="398.5,-398.5 398.5,-436.5 495.5,-436.5 495.5,-398.5 398.5,-398.5"/>
<text text-anchor="start" x="406.5" y="-421.3" font-family="Times,serif" font-size="14.00">0x60fa810:</text>
<text text-anchor="start" x="406.5" y="-406.3" font-family="Times,serif" font-size="14.00"> v11 = 0</text>
</g>
<!-- Node0x397897c0&#45;&gt;Node0x41d17810 -->
<g id="edge4" class="edge"><title>Node0x397897c0&#45;&gt;Node0x41d17810</title>
<path fill="none" stroke="black" d="M344.745,-578.355C358.871,-564.019 375.938,-545.379 389,-527 407.432,-501.067 424.051,-468.578 434.726,-445.943"/>
<polygon fill="black" stroke="black" points="438.029,-447.14 439.062,-436.595 431.679,-444.194 438.029,-447.14"/>
<text text-anchor="middle" x="409.5" y="-548.8" font-family="Times,serif" font-size="14.00">v10 == 0</text>
</g>
<!-- Node0x189c6a80 -->
<g id="node6" class="node"><title>Node0x189c6a80</title>
<polygon fill="none" stroke="black" points="217,-97.5 217,-270.5 477,-270.5 477,-97.5 217,-97.5"/>
<text text-anchor="start" x="225" y="-255.3" font-family="Times,serif" font-size="14.00">0x60faa40:</text>
<text text-anchor="start" x="225" y="-240.3" font-family="Times,serif" font-size="14.00"> g29 = v11</text>
<text text-anchor="start" x="225" y="-225.3" font-family="Times,serif" font-size="14.00"> g38 = v1</text>
<text text-anchor="start" x="225" y="-210.3" font-family="Times,serif" font-size="14.00"> g39 = v2</text>
<text text-anchor="start" x="225" y="-195.3" font-family="Times,serif" font-size="14.00"> g40 = v3</text>
<text text-anchor="start" x="225" y="-180.3" font-family="Times,serif" font-size="14.00"> g41 = v4</text>
<text text-anchor="start" x="225" y="-165.3" font-family="Times,serif" font-size="14.00"> g42 = g32</text>
<text text-anchor="start" x="225" y="-150.3" font-family="Times,serif" font-size="14.00"> v13</text>
<text text-anchor="start" x="225" y="-135.3" font-family="Times,serif" font-size="14.00"> g32 = v13</text>
<text text-anchor="start" x="225" y="-120.3" font-family="Times,serif" font-size="14.00"> g34 = v5</text>
<text text-anchor="start" x="225" y="-105.3" font-family="Times,serif" font-size="14.00"> IntToPtrCastExpr&lt;ptr&gt;(25744)()</text>
</g>
<!-- Node0xee4f780&#45;&gt;Node0x189c6a80 -->
<g id="edge5" class="edge"><title>Node0xee4f780&#45;&gt;Node0x189c6a80</title>
<path fill="none" stroke="black" d="M263.444,-308.206C270.048,-298.467 276.701,-288.658 283.213,-279.055"/>
<polygon fill="black" stroke="black" points="286.179,-280.917 288.895,-270.677 280.386,-276.988 286.179,-280.917"/>
</g>
<!-- Node0x41d17810&#45;&gt;Node0x189c6a80 -->
<g id="edge6" class="edge"><title>Node0x41d17810&#45;&gt;Node0x189c6a80</title>
<path fill="none" stroke="black" d="M439.153,-398.335C428.106,-372.76 407.175,-324.306 388.05,-280.032"/>
<polygon fill="black" stroke="black" points="391.18,-278.45 384.001,-270.657 384.754,-281.225 391.18,-278.45"/>
</g>
<!-- Node0x3e82b250 -->
<g id="node7" class="node"><title>Node0x3e82b250</title>
<polygon fill="none" stroke="black" points="320,-23.5 320,-59.5 374,-59.5 374,-23.5 320,-23.5"/>
<text text-anchor="start" x="328" y="-37.8" font-family="Times,serif" font-size="14.00">exit:</text>
</g>
<!-- Node0x189c6a80&#45;&gt;Node0x3e82b250 -->
<g id="edge7" class="edge"><title>Node0x189c6a80&#45;&gt;Node0x3e82b250</title>
<path fill="none" stroke="black" d="M347,-97.2233C347,-87.4821 347,-78.1602 347,-70.0586"/>
<polygon fill="black" stroke="black" points="350.5,-69.8425 347,-59.8425 343.5,-69.8426 350.5,-69.8425"/>
</g>
</g>
</svg>
