<?xml version="1.0" encoding="UTF-8" standalone="no"?>
<!DOCTYPE svg PUBLIC "-//W3C//DTD SVG 1.1//EN"
 "http://www.w3.org/Graphics/SVG/1.1/DTD/svg11.dtd">
<!-- Generated by graphviz version 2.38.0 (20140413.2041)
 -->
<!-- Title: Control&#45;flow graph for function &#39;function_169e8()&#39;. Pages: 1 -->
<svg width="1335pt" height="3425pt"
 viewBox="0.00 0.00 1334.50 3425.00" xmlns="http://www.w3.org/2000/svg" xmlns:xlink="http://www.w3.org/1999/xlink">
<g id="graph0" class="graph" transform="scale(1 1) rotate(0) translate(4 3421)">
<title>Control&#45;flow graph for function &#39;function_169e8()&#39;.</title>
<polygon fill="white" stroke="none" points="-4,4 -4,-3421 1330.5,-3421 1330.5,4 -4,4"/>
<text text-anchor="middle" x="663.25" y="-7.8" font-family="Times,serif" font-size="14.00">Control&#45;flow graph for function &#39;function_169e8()&#39;.</text>
<!-- Node0x31cad990 -->
<g id="node1" class="node"><title>Node0x31cad990</title>
<polygon fill="none" stroke="black" points="521,-3380.5 521,-3416.5 580,-3416.5 580,-3380.5 521,-3380.5"/>
<text text-anchor="start" x="529" y="-3394.8" font-family="Times,serif" font-size="14.00">entry:</text>
</g>
<!-- Node0x2e91a970 -->
<g id="node2" class="node"><title>Node0x2e91a970</title>
<polygon fill="none" stroke="black" points="485.5,-3259.5 485.5,-3342.5 615.5,-3342.5 615.5,-3259.5 485.5,-3259.5"/>
<text text-anchor="start" x="493.5" y="-3327.3" font-family="Times,serif" font-size="14.00">0x12f50d00:</text>
<text text-anchor="start" x="493.5" y="-3312.3" font-family="Times,serif" font-size="14.00"> v1 = g18</text>
<text text-anchor="start" x="493.5" y="-3297.3" font-family="Times,serif" font-size="14.00"> g37 = v1</text>
<text text-anchor="start" x="493.5" y="-3282.3" font-family="Times,serif" font-size="14.00"> g6 = True</text>
<text text-anchor="start" x="493.5" y="-3267.3" font-family="Times,serif" font-size="14.00"> g9 = (v1 == 0)</text>
</g>
<!-- Node0x31cad990&#45;&gt;Node0x2e91a970 -->
<g id="edge1" class="edge"><title>Node0x31cad990&#45;&gt;Node0x2e91a970</title>
<path fill="none" stroke="black" d="M550.5,-3380.43C550.5,-3372.62 550.5,-3362.92 550.5,-3353.03"/>
<polygon fill="black" stroke="black" points="554,-3352.73 550.5,-3342.73 547,-3352.73 554,-3352.73"/>
</g>
<!-- Node0x32187630 -->
<g id="node3" class="node"><title>Node0x32187630</title>
<polygon fill="none" stroke="black" points="495.5,-3183.5 495.5,-3221.5 605.5,-3221.5 605.5,-3183.5 495.5,-3183.5"/>
<text text-anchor="start" x="503.5" y="-3206.3" font-family="Times,serif" font-size="14.00">0x85724a0:</text>
<text text-anchor="start" x="503.5" y="-3191.3" font-family="Times,serif" font-size="14.00"> if (v1 == 0):</text>
</g>
<!-- Node0x2e91a970&#45;&gt;Node0x32187630 -->
<g id="edge2" class="edge"><title>Node0x2e91a970&#45;&gt;Node0x32187630</title>
<path fill="none" stroke="black" d="M550.5,-3259.35C550.5,-3250.08 550.5,-3240.43 550.5,-3231.8"/>
<polygon fill="black" stroke="black" points="554,-3231.54 550.5,-3221.54 547,-3231.54 554,-3231.54"/>
</g>
<!-- Node0x3218ac90 -->
<g id="node4" class="node"><title>Node0x3218ac90</title>
<polygon fill="none" stroke="black" points="454.5,-3093.5 454.5,-3131.5 552.5,-3131.5 552.5,-3093.5 454.5,-3093.5"/>
<text text-anchor="start" x="462.5" y="-3116.3" font-family="Times,serif" font-size="14.00">0x8571f60:</text>
<text text-anchor="start" x="462.5" y="-3101.3" font-family="Times,serif" font-size="14.00"> g29 = 6</text>
</g>
<!-- Node0x32187630&#45;&gt;Node0x3218ac90 -->
<g id="edge3" class="edge"><title>Node0x32187630&#45;&gt;Node0x3218ac90</title>
<path fill="none" stroke="black" d="M528.389,-3183.12C523.144,-3177.77 518.048,-3171.58 514.5,-3165 510.639,-3157.84 508.132,-3149.43 506.506,-3141.51"/>
<polygon fill="black" stroke="black" points="509.938,-3140.81 504.835,-3131.52 503.034,-3141.96 509.938,-3140.81"/>
<text text-anchor="middle" x="544.5" y="-3153.8" font-family="Times,serif" font-size="14.00">v1 == 0</text>
</g>
<!-- Node0x31cad790 -->
<g id="node5" class="node"><title>Node0x31cad790</title>
<polygon fill="none" stroke="black" points="336,-2972.5 336,-3055.5 785,-3055.5 785,-2972.5 336,-2972.5"/>
<text text-anchor="start" x="344" y="-3040.3" font-family="Times,serif" font-size="14.00">0x8572ff0:</text>
<text text-anchor="start" x="344" y="-3025.3" font-family="Times,serif" font-size="14.00"> IntToPtrCastExpr&lt;ptr&gt;(ExtCastExpr&lt;int32&gt;((v1 == 0)))()</text>
<text text-anchor="start" x="344" y="-3010.3" font-family="Times,serif" font-size="14.00"> v2 = g38</text>
<text text-anchor="start" x="344" y="-2995.3" font-family="Times,serif" font-size="14.00"> g6 = True</text>
<text text-anchor="start" x="344" y="-2980.3" font-family="Times,serif" font-size="14.00"> g9 = (v2 == 0)</text>
</g>
<!-- Node0x32187630&#45;&gt;Node0x31cad790 -->
<g id="edge4" class="edge"><title>Node0x32187630&#45;&gt;Node0x31cad790</title>
<path fill="none" stroke="black" d="M565.469,-3183.23C569.152,-3177.7 572.586,-3171.39 574.5,-3165 584.127,-3132.84 580.58,-3095.21 574.649,-3065.69"/>
<polygon fill="black" stroke="black" points="578.004,-3064.65 572.47,-3055.61 571.162,-3066.13 578.004,-3064.65"/>
<text text-anchor="middle" x="607.5" y="-3108.8" font-family="Times,serif" font-size="14.00">v1 != 0</text>
</g>
<!-- Node0x3218ac90&#45;&gt;Node0x31cad790 -->
<g id="edge5" class="edge"><title>Node0x3218ac90&#45;&gt;Node0x31cad790</title>
<path fill="none" stroke="black" d="M514.221,-3093.35C519.109,-3085.07 525.158,-3074.83 531.253,-3064.51"/>
<polygon fill="black" stroke="black" points="534.287,-3066.26 536.359,-3055.87 528.26,-3062.7 534.287,-3066.26"/>
</g>
<!-- Node0x32185fc0 -->
<g id="node6" class="node"><title>Node0x32185fc0</title>
<polygon fill="none" stroke="black" points="505.5,-2896.5 505.5,-2934.5 615.5,-2934.5 615.5,-2896.5 505.5,-2896.5"/>
<text text-anchor="start" x="513.5" y="-2919.3" font-family="Times,serif" font-size="14.00">0x8573e20:</text>
<text text-anchor="start" x="513.5" y="-2904.3" font-family="Times,serif" font-size="14.00"> if (v2 == 0):</text>
</g>
<!-- Node0x31cad790&#45;&gt;Node0x32185fc0 -->
<g id="edge6" class="edge"><title>Node0x31cad790&#45;&gt;Node0x32185fc0</title>
<path fill="none" stroke="black" d="M560.5,-2972.35C560.5,-2963.08 560.5,-2953.43 560.5,-2944.8"/>
<polygon fill="black" stroke="black" points="564,-2944.54 560.5,-2934.54 557,-2944.54 564,-2944.54"/>
</g>
<!-- Node0x32189d70 -->
<g id="node7" class="node"><title>Node0x32189d70</title>
<polygon fill="none" stroke="black" points="461,-2806.5 461,-2844.5 562,-2844.5 562,-2806.5 461,-2806.5"/>
<text text-anchor="start" x="469" y="-2829.3" font-family="Times,serif" font-size="14.00">0x8573880:</text>
<text text-anchor="start" x="469" y="-2814.3" font-family="Times,serif" font-size="14.00"> g29 = 4</text>
</g>
<!-- Node0x32185fc0&#45;&gt;Node0x32189d70 -->
<g id="edge7" class="edge"><title>Node0x32185fc0&#45;&gt;Node0x32189d70</title>
<path fill="none" stroke="black" d="M538.927,-2896.41C533.551,-2890.98 528.256,-2884.67 524.5,-2878 520.473,-2870.85 517.675,-2862.45 515.738,-2854.52"/>
<polygon fill="black" stroke="black" points="519.123,-2853.61 513.656,-2844.54 512.27,-2855.04 519.123,-2853.61"/>
<text text-anchor="middle" x="554.5" y="-2866.8" font-family="Times,serif" font-size="14.00">v2 == 0</text>
</g>
<!-- Node0x1516a640 -->
<g id="node8" class="node"><title>Node0x1516a640</title>
<polygon fill="none" stroke="black" points="346,-2475.5 346,-2768.5 795,-2768.5 795,-2475.5 346,-2475.5"/>
<text text-anchor="start" x="354" y="-2753.3" font-family="Times,serif" font-size="14.00">0x105bd590:</text>
<text text-anchor="start" x="354" y="-2738.3" font-family="Times,serif" font-size="14.00"> v3</text>
<text text-anchor="start" x="354" y="-2723.3" font-family="Times,serif" font-size="14.00"> v4 = &amp;(v3)</text>
<text text-anchor="start" x="354" y="-2708.3" font-family="Times,serif" font-size="14.00"> v5 = *(IntToPtrCastExpr&lt;ptr&gt;((v4 + 4)))</text>
<text text-anchor="start" x="354" y="-2693.3" font-family="Times,serif" font-size="14.00"> str = IntToPtrCastExpr&lt;ptr&gt;(v5)</text>
<text text-anchor="start" x="354" y="-2678.3" font-family="Times,serif" font-size="14.00"> g39 = *(IntToPtrCastExpr&lt;ptr&gt;((v4 + 8)))</text>
<text text-anchor="start" x="354" y="-2663.3" font-family="Times,serif" font-size="14.00"> g40 = *(IntToPtrCastExpr&lt;ptr&gt;((v4 + 12)))</text>
<text text-anchor="start" x="354" y="-2648.3" font-family="Times,serif" font-size="14.00"> g41 = *(IntToPtrCastExpr&lt;ptr&gt;((v4 + 16)))</text>
<text text-anchor="start" x="354" y="-2633.3" font-family="Times,serif" font-size="14.00"> g42 = *(IntToPtrCastExpr&lt;ptr&gt;((v4 + 20)))</text>
<text text-anchor="start" x="354" y="-2618.3" font-family="Times,serif" font-size="14.00"> g32 = *(IntToPtrCastExpr&lt;ptr&gt;((v4 + 24)))</text>
<text text-anchor="start" x="354" y="-2603.3" font-family="Times,serif" font-size="14.00"> v6 = *(IntToPtrCastExpr&lt;ptr&gt;((v4 + 28)))</text>
<text text-anchor="start" x="354" y="-2588.3" font-family="Times,serif" font-size="14.00"> IntToPtrCastExpr&lt;ptr&gt;(ExtCastExpr&lt;int32&gt;((v2 == 0)))()</text>
<text text-anchor="start" x="354" y="-2573.3" font-family="Times,serif" font-size="14.00"> g29 = g37</text>
<text text-anchor="start" x="354" y="-2558.3" font-family="Times,serif" font-size="14.00"> function_f4f0()</text>
<text text-anchor="start" x="354" y="-2543.3" font-family="Times,serif" font-size="14.00"> v7 = g29</text>
<text text-anchor="start" x="354" y="-2528.3" font-family="Times,serif" font-size="14.00"> g6 = True</text>
<text text-anchor="start" x="354" y="-2513.3" font-family="Times,serif" font-size="14.00"> g9 = (v7 == 0)</text>
<text text-anchor="start" x="354" y="-2498.3" font-family="Times,serif" font-size="14.00"> g40 = v7</text>
<text text-anchor="start" x="354" y="-2483.3" font-family="Times,serif" font-size="14.00"> v8</text>
</g>
<!-- Node0x32185fc0&#45;&gt;Node0x1516a640 -->
<g id="edge8" class="edge"><title>Node0x32185fc0&#45;&gt;Node0x1516a640</title>
<path fill="none" stroke="black" d="M575.469,-2896.23C579.152,-2890.7 582.586,-2884.39 584.5,-2878 586.412,-2871.61 584.694,-2869.66 584.5,-2863 583.707,-2835.78 582.409,-2806.85 580.915,-2778.85"/>
<polygon fill="black" stroke="black" points="584.394,-2778.37 580.356,-2768.58 577.404,-2778.75 584.394,-2778.37"/>
<text text-anchor="middle" x="611.5" y="-2821.8" font-family="Times,serif" font-size="14.00">v2 != 0</text>
</g>
<!-- Node0x32189d70&#45;&gt;Node0x1516a640 -->
<g id="edge9" class="edge"><title>Node0x32189d70&#45;&gt;Node0x1516a640</title>
<path fill="none" stroke="black" d="M516.84,-2806.26C519.056,-2798.7 521.845,-2789.17 524.98,-2778.46"/>
<polygon fill="black" stroke="black" points="528.368,-2779.35 527.819,-2768.77 521.65,-2777.38 528.368,-2779.35"/>
</g>
<!-- Node0x3218ce40 -->
<g id="node9" class="node"><title>Node0x3218ce40</title>
<polygon fill="none" stroke="black" points="515.5,-2399.5 515.5,-2437.5 625.5,-2437.5 625.5,-2399.5 515.5,-2399.5"/>
<text text-anchor="start" x="523.5" y="-2422.3" font-family="Times,serif" font-size="14.00">0x8599da0:</text>
<text text-anchor="start" x="523.5" y="-2407.3" font-family="Times,serif" font-size="14.00"> if (v7 == 0):</text>
</g>
<!-- Node0x1516a640&#45;&gt;Node0x3218ce40 -->
<g id="edge10" class="edge"><title>Node0x1516a640&#45;&gt;Node0x3218ce40</title>
<path fill="none" stroke="black" d="M570.5,-2475.36C570.5,-2465.25 570.5,-2455.89 570.5,-2447.85"/>
<polygon fill="black" stroke="black" points="574,-2447.73 570.5,-2437.73 567,-2447.73 574,-2447.73"/>
</g>
<!-- Node0x2e918bb0 -->
<g id="node10" class="node"><title>Node0x2e918bb0</title>
<polygon fill="none" stroke="black" points="198.5,-2189.5 198.5,-2347.5 682.5,-2347.5 682.5,-2189.5 198.5,-2189.5"/>
<text text-anchor="start" x="206.5" y="-2332.3" font-family="Times,serif" font-size="14.00">0x8599f20:</text>
<text text-anchor="start" x="206.5" y="-2317.3" font-family="Times,serif" font-size="14.00"> g29 = 1</text>
<text text-anchor="start" x="206.5" y="-2302.3" font-family="Times,serif" font-size="14.00"> g38 = *(IntToPtrCastExpr&lt;ptr&gt;((v6 + 4)))</text>
<text text-anchor="start" x="206.5" y="-2287.3" font-family="Times,serif" font-size="14.00"> g39 = *(IntToPtrCastExpr&lt;ptr&gt;((v6 + 8)))</text>
<text text-anchor="start" x="206.5" y="-2272.3" font-family="Times,serif" font-size="14.00"> g40 = *(IntToPtrCastExpr&lt;ptr&gt;((v6 + 12)))</text>
<text text-anchor="start" x="206.5" y="-2257.3" font-family="Times,serif" font-size="14.00"> g41 = *(IntToPtrCastExpr&lt;ptr&gt;((v6 + 16)))</text>
<text text-anchor="start" x="206.5" y="-2242.3" font-family="Times,serif" font-size="14.00"> g42 = *(IntToPtrCastExpr&lt;ptr&gt;((v6 + 20)))</text>
<text text-anchor="start" x="206.5" y="-2227.3" font-family="Times,serif" font-size="14.00"> g32 = *(IntToPtrCastExpr&lt;ptr&gt;((v6 + 24)))</text>
<text text-anchor="start" x="206.5" y="-2212.3" font-family="Times,serif" font-size="14.00"> g34 = *(IntToPtrCastExpr&lt;ptr&gt;((v6 + 28)))</text>
<text text-anchor="start" x="206.5" y="-2197.3" font-family="Times,serif" font-size="14.00"> IntToPtrCastExpr&lt;ptr&gt;(*(IntToPtrCastExpr&lt;ptr&gt;((v6 + 32))))()</text>
</g>
<!-- Node0x3218ce40&#45;&gt;Node0x2e918bb0 -->
<g id="edge11" class="edge"><title>Node0x3218ce40&#45;&gt;Node0x2e918bb0</title>
<path fill="none" stroke="black" d="M554.559,-2399.35C544.447,-2387.84 530.546,-2372.01 515.923,-2355.37"/>
<polygon fill="black" stroke="black" points="518.393,-2352.87 509.164,-2347.67 513.134,-2357.49 518.393,-2352.87"/>
<text text-anchor="middle" x="566.5" y="-2369.8" font-family="Times,serif" font-size="14.00">v7 == 0</text>
</g>
<!-- Node0x31cae490 -->
<g id="node11" class="node"><title>Node0x31cae490</title>
<polygon fill="none" stroke="black" points="700.5,-2242 700.5,-2295 1056.5,-2295 1056.5,-2242 700.5,-2242"/>
<text text-anchor="start" x="708.5" y="-2279.8" font-family="Times,serif" font-size="14.00">0x8578b90:</text>
<text text-anchor="start" x="708.5" y="-2264.8" font-family="Times,serif" font-size="14.00"> g6 = True</text>
<text text-anchor="start" x="708.5" y="-2249.8" font-family="Times,serif" font-size="14.00"> g29 = *(IntToPtrCastExpr&lt;ptr&gt;((g41 + g42)))</text>
</g>
<!-- Node0x3218ce40&#45;&gt;Node0x31cae490 -->
<g id="edge12" class="edge"><title>Node0x3218ce40&#45;&gt;Node0x31cae490</title>
<path fill="none" stroke="black" d="M608.267,-2399.35C659.987,-2374.5 753.523,-2329.55 815.83,-2299.61"/>
<polygon fill="black" stroke="black" points="817.672,-2302.61 825.169,-2295.13 814.64,-2296.3 817.672,-2302.61"/>
<text text-anchor="middle" x="697.5" y="-2369.8" font-family="Times,serif" font-size="14.00">v7 != 0</text>
</g>
<!-- Node0x1f888570 -->
<g id="node12" class="node"><title>Node0x1f888570</title>
<polygon fill="none" stroke="black" points="392,-2106 392,-2144 489,-2144 489,-2106 392,-2106"/>
<text text-anchor="start" x="400" y="-2128.8" font-family="Times,serif" font-size="14.00">0x859dfc0:</text>
<text text-anchor="start" x="400" y="-2113.8" font-family="Times,serif" font-size="14.00"> if g9:</text>
</g>
<!-- Node0x2e918bb0&#45;&gt;Node0x1f888570 -->
<g id="edge13" class="edge"><title>Node0x2e918bb0&#45;&gt;Node0x1f888570</title>
<path fill="none" stroke="black" d="M440.5,-2189.3C440.5,-2176.68 440.5,-2164.38 440.5,-2154.03"/>
<polygon fill="black" stroke="black" points="444,-2154.02 440.5,-2144.02 437,-2154.02 444,-2154.02"/>
</g>
<!-- Node0x31cad390 -->
<g id="node13" class="node"><title>Node0x31cad390</title>
<polygon fill="none" stroke="black" points="819,-2098.5 819,-2151.5 938,-2151.5 938,-2098.5 819,-2098.5"/>
<text text-anchor="start" x="827" y="-2136.3" font-family="Times,serif" font-size="14.00">0x8579e40:</text>
<text text-anchor="start" x="827" y="-2121.3" font-family="Times,serif" font-size="14.00"> if (g39 == 0):</text>
<text text-anchor="start" x="827" y="-2106.3" font-family="Times,serif" font-size="14.00"> else:</text>
</g>
<!-- Node0x31cae490&#45;&gt;Node0x31cad390 -->
<g id="edge14" class="edge"><title>Node0x31cae490&#45;&gt;Node0x31cad390</title>
<path fill="none" stroke="black" d="M878.5,-2241.88C878.5,-2219.58 878.5,-2187.01 878.5,-2162.08"/>
<polygon fill="black" stroke="black" points="882,-2161.91 878.5,-2151.91 875,-2161.91 882,-2161.91"/>
</g>
<!-- Node0x31cb2700 -->
<g id="node14" class="node"><title>Node0x31cb2700</title>
<polygon fill="none" stroke="black" points="0,-1978.5 0,-2031.5 513,-2031.5 513,-1978.5 0,-1978.5"/>
<text text-anchor="start" x="8" y="-2016.3" font-family="Times,serif" font-size="14.00">0x859d000:</text>
<text text-anchor="start" x="8" y="-2001.3" font-family="Times,serif" font-size="14.00"> v8 = (g40 % 256)</text>
<text text-anchor="start" x="8" y="-1986.3" font-family="Times,serif" font-size="14.00"> g30 = ((g38 &gt;&gt; (0 if (v8 == 0) else (31 if (v8 &gt; 31) else v8))) &amp; g29)</text>
</g>
<!-- Node0x1f888570&#45;&gt;Node0x31cb2700 -->
<g id="edge15" class="edge"><title>Node0x1f888570&#45;&gt;Node0x31cb2700</title>
<path fill="none" stroke="black" d="M412.153,-2105.82C383.623,-2087.52 339.074,-2058.96 304.933,-2037.06"/>
<polygon fill="black" stroke="black" points="306.801,-2034.1 296.493,-2031.65 303.022,-2039.99 306.801,-2034.1"/>
<text text-anchor="middle" x="380" y="-2068.8" font-family="Times,serif" font-size="14.00">g9</text>
</g>
<!-- Node0x1f8886f0 -->
<g id="node15" class="node"><title>Node0x1f8886f0</title>
<polygon fill="none" stroke="black" points="284,-1865 284,-1903 385,-1903 385,-1865 284,-1865"/>
<text text-anchor="start" x="292" y="-1887.8" font-family="Times,serif" font-size="14.00">0x859e100:</text>
<text text-anchor="start" x="292" y="-1872.8" font-family="Times,serif" font-size="14.00"> return</text>
</g>
<!-- Node0x1f888570&#45;&gt;Node0x1f8886f0 -->
<g id="edge16" class="edge"><title>Node0x1f888570&#45;&gt;Node0x1f8886f0</title>
<path fill="none" stroke="black" d="M469.128,-2105.98C487.899,-2092.35 510.865,-2071.78 521.5,-2047 536.222,-2012.69 542.203,-1994.07 521.5,-1963 493.54,-1921.04 438.267,-1901.62 395.031,-1892.65"/>
<polygon fill="black" stroke="black" points="395.649,-1889.2 385.166,-1890.73 394.317,-1896.07 395.649,-1889.2"/>
<text text-anchor="middle" x="564" y="-2001.3" font-family="Times,serif" font-size="14.00">not (g9)</text>
</g>
<!-- Node0x31caff20 -->
<g id="node16" class="node"><title>Node0x31caff20</title>
<polygon fill="none" stroke="black" points="750.5,-1986 750.5,-2024 880.5,-2024 880.5,-1986 750.5,-1986"/>
<text text-anchor="start" x="758.5" y="-2008.8" font-family="Times,serif" font-size="14.00">0x8579b70:</text>
<text text-anchor="start" x="758.5" y="-1993.8" font-family="Times,serif" font-size="14.00"> function_f6e8()</text>
</g>
<!-- Node0x31cad390&#45;&gt;Node0x31caff20 -->
<g id="edge17" class="edge"><title>Node0x31cad390&#45;&gt;Node0x31caff20</title>
<path fill="none" stroke="black" d="M864.83,-2098.4C854.567,-2079.17 840.539,-2052.9 830.065,-2033.28"/>
<polygon fill="black" stroke="black" points="833.039,-2031.42 825.241,-2024.25 826.864,-2034.72 833.039,-2031.42"/>
<text text-anchor="middle" x="888.5" y="-2068.8" font-family="Times,serif" font-size="14.00">g39 == 0</text>
</g>
<!-- Node0x31cb0070 -->
<g id="node17" class="node"><title>Node0x31cb0070</title>
<polygon fill="none" stroke="black" points="899,-1963.5 899,-2046.5 1054,-2046.5 1054,-1963.5 899,-1963.5"/>
<text text-anchor="start" x="907" y="-2031.3" font-family="Times,serif" font-size="14.00">0x857a070:</text>
<text text-anchor="start" x="907" y="-2016.3" font-family="Times,serif" font-size="14.00"> function_10c48()</text>
<text text-anchor="start" x="907" y="-2001.3" font-family="Times,serif" font-size="14.00"> g30 = (g29 + g39)</text>
<text text-anchor="start" x="907" y="-1986.3" font-family="Times,serif" font-size="14.00"> g29 = g40</text>
<text text-anchor="start" x="907" y="-1971.3" font-family="Times,serif" font-size="14.00"> function_f6e4()</text>
</g>
<!-- Node0x31cad390&#45;&gt;Node0x31cb0070 -->
<g id="edge18" class="edge"><title>Node0x31cad390&#45;&gt;Node0x31cb0070</title>
<path fill="none" stroke="black" d="M909.46,-2098.38C915.719,-2092.61 922.047,-2086.32 927.5,-2080 934.144,-2072.3 940.619,-2063.65 946.571,-2055.06"/>
<polygon fill="black" stroke="black" points="949.642,-2056.76 952.335,-2046.52 943.84,-2052.85 949.642,-2056.76"/>
<text text-anchor="middle" x="969.5" y="-2068.8" font-family="Times,serif" font-size="14.00">g39 != 0</text>
</g>
<!-- Node0x31cb2700&#45;&gt;Node0x1f8886f0 -->
<g id="edge19" class="edge"><title>Node0x31cb2700&#45;&gt;Node0x1f8886f0</title>
<path fill="none" stroke="black" d="M273.233,-1978.47C286.121,-1958.81 303.887,-1931.7 316.97,-1911.74"/>
<polygon fill="black" stroke="black" points="320.063,-1913.41 322.618,-1903.13 314.208,-1909.57 320.063,-1913.41"/>
</g>
<!-- Node0x32189b70 -->
<g id="node18" class="node"><title>Node0x32189b70</title>
<polygon fill="none" stroke="black" points="375.5,-23.5 375.5,-59.5 429.5,-59.5 429.5,-23.5 375.5,-23.5"/>
<text text-anchor="start" x="383.5" y="-37.8" font-family="Times,serif" font-size="14.00">exit:</text>
</g>
<!-- Node0x1f8886f0&#45;&gt;Node0x32189b70 -->
<g id="edge20" class="edge"><title>Node0x1f8886f0&#45;&gt;Node0x32189b70</title>
<path fill="none" stroke="black" d="M334.5,-1864.86C334.5,-1845.46 334.5,-1813.81 334.5,-1786.5 334.5,-1786.5 334.5,-1786.5 334.5,-123 334.5,-100.046 350.834,-80.2552 367.492,-66.0407"/>
<polygon fill="black" stroke="black" points="370.011,-68.5067 375.625,-59.5212 365.633,-63.0449 370.011,-68.5067"/>
</g>
<!-- Node0x32189210 -->
<g id="node19" class="node"><title>Node0x32189210</title>
<polygon fill="none" stroke="black" points="830.5,-1842.5 830.5,-1925.5 960.5,-1925.5 960.5,-1842.5 830.5,-1842.5"/>
<text text-anchor="start" x="838.5" y="-1910.3" font-family="Times,serif" font-size="14.00">0x127b4070:</text>
<text text-anchor="start" x="838.5" y="-1895.3" font-family="Times,serif" font-size="14.00"> v9 = g29</text>
<text text-anchor="start" x="838.5" y="-1880.3" font-family="Times,serif" font-size="14.00"> g6 = True</text>
<text text-anchor="start" x="838.5" y="-1865.3" font-family="Times,serif" font-size="14.00"> g9 = (v9 == 0)</text>
<text text-anchor="start" x="838.5" y="-1850.3" font-family="Times,serif" font-size="14.00"> g39 = v9</text>
</g>
<!-- Node0x31caff20&#45;&gt;Node0x32189210 -->
<g id="edge21" class="edge"><title>Node0x31caff20&#45;&gt;Node0x32189210</title>
<path fill="none" stroke="black" d="M827.65,-1985.93C836.937,-1972.11 850.2,-1952.38 862.54,-1934.03"/>
<polygon fill="black" stroke="black" points="865.452,-1935.97 868.127,-1925.72 859.643,-1932.06 865.452,-1935.97"/>
</g>
<!-- Node0x31cb0070&#45;&gt;Node0x32189210 -->
<g id="edge22" class="edge"><title>Node0x31cb0070&#45;&gt;Node0x32189210</title>
<path fill="none" stroke="black" d="M948.851,-1963.38C942.471,-1954.01 935.615,-1943.93 929.015,-1934.24"/>
<polygon fill="black" stroke="black" points="931.82,-1932.14 923.299,-1925.84 926.033,-1936.08 931.82,-1932.14"/>
</g>
<!-- Node0x31cae690 -->
<g id="node20" class="node"><title>Node0x31cae690</title>
<polygon fill="none" stroke="black" points="843.5,-1766.5 843.5,-1804.5 947.5,-1804.5 947.5,-1766.5 843.5,-1766.5"/>
<text text-anchor="start" x="851.5" y="-1789.3" font-family="Times,serif" font-size="14.00">0x85943b0:</text>
<text text-anchor="start" x="851.5" y="-1774.3" font-family="Times,serif" font-size="14.00"> if (v9 != 0):</text>
</g>
<!-- Node0x32189210&#45;&gt;Node0x31cae690 -->
<g id="edge23" class="edge"><title>Node0x32189210&#45;&gt;Node0x31cae690</title>
<path fill="none" stroke="black" d="M895.5,-1842.35C895.5,-1833.08 895.5,-1823.43 895.5,-1814.8"/>
<polygon fill="black" stroke="black" points="899,-1814.54 895.5,-1804.54 892,-1814.54 899,-1814.54"/>
</g>
<!-- Node0x3218a380 -->
<g id="node21" class="node"><title>Node0x3218a380</title>
<polygon fill="none" stroke="black" points="362.5,-1046.5 362.5,-1714.5 1238.5,-1714.5 1238.5,-1046.5 362.5,-1046.5"/>
<text text-anchor="start" x="370.5" y="-1699.3" font-family="Times,serif" font-size="14.00">0x857bcc0:</text>
<text text-anchor="start" x="370.5" y="-1684.3" font-family="Times,serif" font-size="14.00"> g29 = g40</text>
<text text-anchor="start" x="370.5" y="-1669.3" font-family="Times,serif" font-size="14.00"> function_f66c()</text>
<text text-anchor="start" x="370.5" y="-1654.3" font-family="Times,serif" font-size="14.00"> g41 = 0</text>
<text text-anchor="start" x="370.5" y="-1639.3" font-family="Times,serif" font-size="14.00"> strncpy(str, IntToPtrCastExpr&lt;ptr&gt;(g29), PtrToIntCastExpr&lt;int32&gt;(&quot;[P6\&quot;K^H$&quot;))</text>
<text text-anchor="start" x="370.5" y="-1624.3" font-family="Times,serif" font-size="14.00"> g29 = g40</text>
<text text-anchor="start" x="370.5" y="-1609.3" font-family="Times,serif" font-size="14.00"> *(IntToPtrCastExpr&lt;ptr&gt;((v5 + 255))) = TruncCastExpr&lt;int8&gt;(g41)</text>
<text text-anchor="start" x="370.5" y="-1594.3" font-family="Times,serif" font-size="14.00"> function_f734()</text>
<text text-anchor="start" x="370.5" y="-1579.3" font-family="Times,serif" font-size="14.00"> strncpy(str, IntToPtrCastExpr&lt;ptr&gt;(g29), 128)</text>
<text text-anchor="start" x="370.5" y="-1564.3" font-family="Times,serif" font-size="14.00"> *(IntToPtrCastExpr&lt;ptr&gt;((v5 + 383))) = TruncCastExpr&lt;int8&gt;(g41)</text>
<text text-anchor="start" x="370.5" y="-1549.3" font-family="Times,serif" font-size="14.00"> g29 = g39</text>
<text text-anchor="start" x="370.5" y="-1534.3" font-family="Times,serif" font-size="14.00"> function_f564()</text>
<text text-anchor="start" x="370.5" y="-1519.3" font-family="Times,serif" font-size="14.00"> g40 = 5748</text>
<text text-anchor="start" x="370.5" y="-1504.3" font-family="Times,serif" font-size="14.00"> strncpy(IntToPtrCastExpr&lt;ptr&gt;((v5 + 384)), IntToPtrCastExpr&lt;ptr&gt;(g29), PtrToIntCastExpr&lt;int32&gt;(&quot;[P6\&quot;K^H$&quot;))</text>
<text text-anchor="start" x="370.5" y="-1489.3" font-family="Times,serif" font-size="14.00"> *(IntToPtrCastExpr&lt;ptr&gt;((v5 + 639))) = TruncCastExpr&lt;int8&gt;(g41)</text>
<text text-anchor="start" x="370.5" y="-1474.3" font-family="Times,serif" font-size="14.00"> g30 = *(IntToPtrCastExpr&lt;ptr&gt;((g40 + g42)))</text>
<text text-anchor="start" x="370.5" y="-1459.3" font-family="Times,serif" font-size="14.00"> g29 = g39</text>
<text text-anchor="start" x="370.5" y="-1444.3" font-family="Times,serif" font-size="14.00"> function_fa4c()</text>
<text text-anchor="start" x="370.5" y="-1429.3" font-family="Times,serif" font-size="14.00"> strncpy(IntToPtrCastExpr&lt;ptr&gt;((v5 + 640)), IntToPtrCastExpr&lt;ptr&gt;(g29), 128)</text>
<text text-anchor="start" x="370.5" y="-1414.3" font-family="Times,serif" font-size="14.00"> *(IntToPtrCastExpr&lt;ptr&gt;((v5 + 767))) = TruncCastExpr&lt;int8&gt;(g41)</text>
<text text-anchor="start" x="370.5" y="-1399.3" font-family="Times,serif" font-size="14.00"> g29 = g39</text>
<text text-anchor="start" x="370.5" y="-1384.3" font-family="Times,serif" font-size="14.00"> function_f570()</text>
<text text-anchor="start" x="370.5" y="-1369.3" font-family="Times,serif" font-size="14.00"> strncpy(IntToPtrCastExpr&lt;ptr&gt;((v5 + 768)), IntToPtrCastExpr&lt;ptr&gt;(g29), PtrToIntCastExpr&lt;int32&gt;(&quot;[P6\&quot;K^H$&quot;))</text>
<text text-anchor="start" x="370.5" y="-1354.3" font-family="Times,serif" font-size="14.00"> *(IntToPtrCastExpr&lt;ptr&gt;((v5 + 1023))) = TruncCastExpr&lt;int8&gt;(g41)</text>
<text text-anchor="start" x="370.5" y="-1339.3" font-family="Times,serif" font-size="14.00"> g30 = *(IntToPtrCastExpr&lt;ptr&gt;((g40 + g42)))</text>
<text text-anchor="start" x="370.5" y="-1324.3" font-family="Times,serif" font-size="14.00"> g29 = g39</text>
<text text-anchor="start" x="370.5" y="-1309.3" font-family="Times,serif" font-size="14.00"> function_f9fc()</text>
<text text-anchor="start" x="370.5" y="-1294.3" font-family="Times,serif" font-size="14.00"> strncpy(IntToPtrCastExpr&lt;ptr&gt;((v5 + 1024)), IntToPtrCastExpr&lt;ptr&gt;(g29), 128)</text>
<text text-anchor="start" x="370.5" y="-1279.3" font-family="Times,serif" font-size="14.00"> *(IntToPtrCastExpr&lt;ptr&gt;((v5 + 1151))) = TruncCastExpr&lt;int8&gt;(g41)</text>
<text text-anchor="start" x="370.5" y="-1264.3" font-family="Times,serif" font-size="14.00"> g29 = g39</text>
<text text-anchor="start" x="370.5" y="-1249.3" font-family="Times,serif" font-size="14.00"> function_f57c()</text>
<text text-anchor="start" x="370.5" y="-1234.3" font-family="Times,serif" font-size="14.00"> strncpy(IntToPtrCastExpr&lt;ptr&gt;((v5 + 1152)), IntToPtrCastExpr&lt;ptr&gt;(g29), PtrToIntCastExpr&lt;int32&gt;(&quot;[P6\&quot;K^H$&quot;))</text>
<text text-anchor="start" x="370.5" y="-1219.3" font-family="Times,serif" font-size="14.00"> *(IntToPtrCastExpr&lt;ptr&gt;((v5 + 1407))) = TruncCastExpr&lt;int8&gt;(g41)</text>
<text text-anchor="start" x="370.5" y="-1204.3" font-family="Times,serif" font-size="14.00"> g30 = *(IntToPtrCastExpr&lt;ptr&gt;((g40 + g42)))</text>
<text text-anchor="start" x="370.5" y="-1189.3" font-family="Times,serif" font-size="14.00"> g29 = g39</text>
<text text-anchor="start" x="370.5" y="-1174.3" font-family="Times,serif" font-size="14.00"> function_f9ac()</text>
<text text-anchor="start" x="370.5" y="-1159.3" font-family="Times,serif" font-size="14.00"> strncpy(IntToPtrCastExpr&lt;ptr&gt;((v5 + 1408)), IntToPtrCastExpr&lt;ptr&gt;(g29), 128)</text>
<text text-anchor="start" x="370.5" y="-1144.3" font-family="Times,serif" font-size="14.00"> *(IntToPtrCastExpr&lt;ptr&gt;((v5 + 1535))) = TruncCastExpr&lt;int8&gt;(g41)</text>
<text text-anchor="start" x="370.5" y="-1129.3" font-family="Times,serif" font-size="14.00"> g29 = g39</text>
<text text-anchor="start" x="370.5" y="-1114.3" font-family="Times,serif" font-size="14.00"> function_f5f0()</text>
<text text-anchor="start" x="370.5" y="-1099.3" font-family="Times,serif" font-size="14.00"> *(IntToPtrCastExpr&lt;ptr&gt;((v5 + 1664))) = g29</text>
<text text-anchor="start" x="370.5" y="-1084.3" font-family="Times,serif" font-size="14.00"> v10 = (*(IntToPtrCastExpr&lt;ptr&gt;((g39 + 8))) &amp; 256)</text>
<text text-anchor="start" x="370.5" y="-1069.3" font-family="Times,serif" font-size="14.00"> g9 = (v10 == 0)</text>
<text text-anchor="start" x="370.5" y="-1054.3" font-family="Times,serif" font-size="14.00"> g37 = v10</text>
</g>
<!-- Node0x31cae690&#45;&gt;Node0x3218a380 -->
<g id="edge24" class="edge"><title>Node0x31cae690&#45;&gt;Node0x3218a380</title>
<path fill="none" stroke="black" d="M891.233,-1766.4C888.781,-1756 885.383,-1741.58 881.332,-1724.4"/>
<polygon fill="black" stroke="black" points="884.718,-1723.51 879.017,-1714.58 877.905,-1725.11 884.718,-1723.51"/>
<text text-anchor="middle" x="912.5" y="-1736.8" font-family="Times,serif" font-size="14.00">v9 != 0</text>
</g>
<!-- Node0x31cac390 -->
<g id="node22" class="node"><title>Node0x31cac390</title>
<polygon fill="none" stroke="black" points="558.5,-278.5 558.5,-436.5 1042.5,-436.5 1042.5,-278.5 558.5,-278.5"/>
<text text-anchor="start" x="566.5" y="-421.3" font-family="Times,serif" font-size="14.00">0x8594640:</text>
<text text-anchor="start" x="566.5" y="-406.3" font-family="Times,serif" font-size="14.00"> g29 = 1</text>
<text text-anchor="start" x="566.5" y="-391.3" font-family="Times,serif" font-size="14.00"> g38 = *(IntToPtrCastExpr&lt;ptr&gt;((v6 + 4)))</text>
<text text-anchor="start" x="566.5" y="-376.3" font-family="Times,serif" font-size="14.00"> g39 = *(IntToPtrCastExpr&lt;ptr&gt;((v6 + 8)))</text>
<text text-anchor="start" x="566.5" y="-361.3" font-family="Times,serif" font-size="14.00"> g40 = *(IntToPtrCastExpr&lt;ptr&gt;((v6 + 12)))</text>
<text text-anchor="start" x="566.5" y="-346.3" font-family="Times,serif" font-size="14.00"> g41 = *(IntToPtrCastExpr&lt;ptr&gt;((v6 + 16)))</text>
<text text-anchor="start" x="566.5" y="-331.3" font-family="Times,serif" font-size="14.00"> g42 = *(IntToPtrCastExpr&lt;ptr&gt;((v6 + 20)))</text>
<text text-anchor="start" x="566.5" y="-316.3" font-family="Times,serif" font-size="14.00"> g32 = *(IntToPtrCastExpr&lt;ptr&gt;((v6 + 24)))</text>
<text text-anchor="start" x="566.5" y="-301.3" font-family="Times,serif" font-size="14.00"> g34 = *(IntToPtrCastExpr&lt;ptr&gt;((v6 + 28)))</text>
<text text-anchor="start" x="566.5" y="-286.3" font-family="Times,serif" font-size="14.00"> IntToPtrCastExpr&lt;ptr&gt;(*(IntToPtrCastExpr&lt;ptr&gt;((v6 + 32))))()</text>
</g>
<!-- Node0x31cae690&#45;&gt;Node0x31cac390 -->
<g id="edge25" class="edge"><title>Node0x31cae690&#45;&gt;Node0x31cac390</title>
<path fill="none" stroke="black" d="M947.619,-1781.81C1035.86,-1776.08 1208.9,-1759.34 1247.5,-1715 1344.99,-1603.03 1266.5,-1529.96 1266.5,-1381.5 1266.5,-1381.5 1266.5,-1381.5 1266.5,-650 1266.5,-565.981 1259.54,-530.662 1197.5,-474 1156.96,-436.973 1105.2,-411.761 1052.55,-394.609"/>
<polygon fill="black" stroke="black" points="1053.3,-391.176 1042.71,-391.499 1051.19,-397.85 1053.3,-391.176"/>
<text text-anchor="middle" x="1296.5" y="-940.8" font-family="Times,serif" font-size="14.00">v9 == 0</text>
</g>
<!-- Node0x31cb16f0 -->
<g id="node23" class="node"><title>Node0x31cb16f0</title>
<polygon fill="none" stroke="black" points="741,-970.5 741,-1008.5 860,-1008.5 860,-970.5 741,-970.5"/>
<text text-anchor="start" x="749" y="-993.3" font-family="Times,serif" font-size="14.00">0x858b830:</text>
<text text-anchor="start" x="749" y="-978.3" font-family="Times,serif" font-size="14.00"> if (v10 == 0):</text>
</g>
<!-- Node0x3218a380&#45;&gt;Node0x31cb16f0 -->
<g id="edge26" class="edge"><title>Node0x3218a380&#45;&gt;Node0x31cb16f0</title>
<path fill="none" stroke="black" d="M800.5,-1046.23C800.5,-1035.87 800.5,-1026.61 800.5,-1018.74"/>
<polygon fill="black" stroke="black" points="804,-1018.59 800.5,-1008.59 797,-1018.59 804,-1018.59"/>
</g>
<!-- Node0x32188d80 -->
<g id="node24" class="node"><title>Node0x32188d80</title>
<polygon fill="none" stroke="black" points="684,-202.5 684,-240.5 785,-240.5 785,-202.5 684,-202.5"/>
<text text-anchor="start" x="692" y="-225.3" font-family="Times,serif" font-size="14.00">0x8599810:</text>
<text text-anchor="start" x="692" y="-210.3" font-family="Times,serif" font-size="14.00"> if g9:</text>
</g>
<!-- Node0x31cac390&#45;&gt;Node0x32188d80 -->
<g id="edge27" class="edge"><title>Node0x31cac390&#45;&gt;Node0x32188d80</title>
<path fill="none" stroke="black" d="M761.917,-278.164C756.969,-268.12 752.195,-258.425 748.055,-250.02"/>
<polygon fill="black" stroke="black" points="751.072,-248.225 743.514,-240.801 744.793,-251.318 751.072,-248.225"/>
</g>
<!-- Node0x31cb28c0 -->
<g id="node25" class="node"><title>Node0x31cb28c0</title>
<polygon fill="none" stroke="black" points="517,-865.5 517,-918.5 864,-918.5 864,-865.5 517,-865.5"/>
<text text-anchor="start" x="525" y="-903.3" font-family="Times,serif" font-size="14.00">0x858ab30:</text>
<text text-anchor="start" x="525" y="-888.3" font-family="Times,serif" font-size="14.00"> g29 = 0</text>
<text text-anchor="start" x="525" y="-873.3" font-family="Times,serif" font-size="14.00"> *(IntToPtrCastExpr&lt;ptr&gt;((g38 + 1536))) = 0</text>
</g>
<!-- Node0x31cb16f0&#45;&gt;Node0x31cb28c0 -->
<g id="edge28" class="edge"><title>Node0x31cb16f0&#45;&gt;Node0x31cb28c0</title>
<path fill="none" stroke="black" d="M779.551,-970.312C764.956,-957.641 745.086,-940.391 727.819,-925.4"/>
<polygon fill="black" stroke="black" points="729.942,-922.608 720.097,-918.695 725.353,-927.894 729.942,-922.608"/>
<text text-anchor="middle" x="789" y="-940.8" font-family="Times,serif" font-size="14.00">v10 == 0</text>
</g>
<!-- Node0x31cb1a10 -->
<g id="node26" class="node"><title>Node0x31cb1a10</title>
<polygon fill="none" stroke="black" points="412.5,-474.5 412.5,-827.5 1188.5,-827.5 1188.5,-474.5 412.5,-474.5"/>
<text text-anchor="start" x="420.5" y="-812.3" font-family="Times,serif" font-size="14.00">0x858bfa0:</text>
<text text-anchor="start" x="420.5" y="-797.3" font-family="Times,serif" font-size="14.00"> g38 = *(IntToPtrCastExpr&lt;ptr&gt;((v6 + 4)))</text>
<text text-anchor="start" x="420.5" y="-782.3" font-family="Times,serif" font-size="14.00"> g40 = *(IntToPtrCastExpr&lt;ptr&gt;((v6 + 12)))</text>
<text text-anchor="start" x="420.5" y="-767.3" font-family="Times,serif" font-size="14.00"> g41 = *(IntToPtrCastExpr&lt;ptr&gt;((v6 + 16)))</text>
<text text-anchor="start" x="420.5" y="-752.3" font-family="Times,serif" font-size="14.00"> g42 = *(IntToPtrCastExpr&lt;ptr&gt;((v6 + 20)))</text>
<text text-anchor="start" x="420.5" y="-737.3" font-family="Times,serif" font-size="14.00"> g32 = *(IntToPtrCastExpr&lt;ptr&gt;((v6 + 24)))</text>
<text text-anchor="start" x="420.5" y="-722.3" font-family="Times,serif" font-size="14.00"> g34 = *(IntToPtrCastExpr&lt;ptr&gt;((v6 + 28)))</text>
<text text-anchor="start" x="420.5" y="-707.3" font-family="Times,serif" font-size="14.00"> IntToPtrCastExpr&lt;ptr&gt;(ExtCastExpr&lt;int32&gt;((v10 == 0)))()</text>
<text text-anchor="start" x="420.5" y="-692.3" font-family="Times,serif" font-size="14.00"> g30 = *(IntToPtrCastExpr&lt;ptr&gt;((g40 + g42)))</text>
<text text-anchor="start" x="420.5" y="-677.3" font-family="Times,serif" font-size="14.00"> function_f93c()</text>
<text text-anchor="start" x="420.5" y="-662.3" font-family="Times,serif" font-size="14.00"> strncpy(IntToPtrCastExpr&lt;ptr&gt;(v6), IntToPtrCastExpr&lt;ptr&gt;(*(IntToPtrCastExpr&lt;ptr&gt;((v6 + 8)))), 128)</text>
<text text-anchor="start" x="420.5" y="-647.3" font-family="Times,serif" font-size="14.00"> v11 = g41</text>
<text text-anchor="start" x="420.5" y="-632.3" font-family="Times,serif" font-size="14.00"> g29 = v11</text>
<text text-anchor="start" x="420.5" y="-617.3" font-family="Times,serif" font-size="14.00"> *(IntToPtrCastExpr&lt;ptr&gt;((g38 + 1663))) = TruncCastExpr&lt;int8&gt;(v11)</text>
<text text-anchor="start" x="420.5" y="-602.3" font-family="Times,serif" font-size="14.00"> v12 = g34</text>
<text text-anchor="start" x="420.5" y="-587.3" font-family="Times,serif" font-size="14.00"> g38 = *(IntToPtrCastExpr&lt;ptr&gt;((v12 + 4)))</text>
<text text-anchor="start" x="420.5" y="-572.3" font-family="Times,serif" font-size="14.00"> g39 = *(IntToPtrCastExpr&lt;ptr&gt;((v12 + 8)))</text>
<text text-anchor="start" x="420.5" y="-557.3" font-family="Times,serif" font-size="14.00"> g40 = *(IntToPtrCastExpr&lt;ptr&gt;((v12 + 12)))</text>
<text text-anchor="start" x="420.5" y="-542.3" font-family="Times,serif" font-size="14.00"> g41 = *(IntToPtrCastExpr&lt;ptr&gt;((v12 + 16)))</text>
<text text-anchor="start" x="420.5" y="-527.3" font-family="Times,serif" font-size="14.00"> g42 = *(IntToPtrCastExpr&lt;ptr&gt;((v12 + 20)))</text>
<text text-anchor="start" x="420.5" y="-512.3" font-family="Times,serif" font-size="14.00"> g32 = *(IntToPtrCastExpr&lt;ptr&gt;((v12 + 24)))</text>
<text text-anchor="start" x="420.5" y="-497.3" font-family="Times,serif" font-size="14.00"> g34 = *(IntToPtrCastExpr&lt;ptr&gt;((v12 + 28)))</text>
<text text-anchor="start" x="420.5" y="-482.3" font-family="Times,serif" font-size="14.00"> IntToPtrCastExpr&lt;ptr&gt;(*(IntToPtrCastExpr&lt;ptr&gt;((v12 + 32))))()</text>
</g>
<!-- Node0x31cb16f0&#45;&gt;Node0x31cb1a10 -->
<g id="edge29" class="edge"><title>Node0x31cb16f0&#45;&gt;Node0x31cb1a10</title>
<path fill="none" stroke="black" d="M828.504,-970.236C844.675,-957.927 863.537,-940.109 872.5,-919 883.404,-893.319 885.648,-865.538 882.6,-837.935"/>
<polygon fill="black" stroke="black" points="886.037,-837.227 881.244,-827.778 879.098,-838.153 886.037,-837.227"/>
<text text-anchor="middle" x="915" y="-888.3" font-family="Times,serif" font-size="14.00">v10 != 0</text>
</g>
<!-- Node0x32188d80&#45;&gt;Node0x32189b70 -->
<g id="edge31" class="edge"><title>Node0x32188d80&#45;&gt;Node0x32189b70</title>
<path fill="none" stroke="black" d="M683.813,-216.799C602.095,-209.705 446.802,-191.184 411.5,-151 392.157,-128.982 392.944,-93.8325 396.572,-69.5358"/>
<polygon fill="black" stroke="black" points="400.045,-69.9925 398.313,-59.5401 393.149,-68.7911 400.045,-69.9925"/>
<text text-anchor="middle" x="440" y="-120.3" font-family="Times,serif" font-size="14.00">not (g9)</text>
</g>
<!-- Node0x31cb2540 -->
<g id="node27" class="node"><title>Node0x31cb2540</title>
<polygon fill="none" stroke="black" points="478,-97.5 478,-150.5 991,-150.5 991,-97.5 478,-97.5"/>
<text text-anchor="start" x="486" y="-135.3" font-family="Times,serif" font-size="14.00">0x8598320:</text>
<text text-anchor="start" x="486" y="-120.3" font-family="Times,serif" font-size="14.00"> v8 = (g40 % 256)</text>
<text text-anchor="start" x="486" y="-105.3" font-family="Times,serif" font-size="14.00"> g30 = ((g38 &gt;&gt; (0 if (v8 == 0) else (31 if (v8 &gt; 31) else v8))) &amp; g29)</text>
</g>
<!-- Node0x32188d80&#45;&gt;Node0x31cb2540 -->
<g id="edge30" class="edge"><title>Node0x32188d80&#45;&gt;Node0x31cb2540</title>
<path fill="none" stroke="black" d="M734.5,-202.087C734.5,-190.425 734.5,-174.951 734.5,-160.929"/>
<polygon fill="black" stroke="black" points="738,-160.577 734.5,-150.577 731,-160.577 738,-160.577"/>
<text text-anchor="middle" x="744" y="-172.8" font-family="Times,serif" font-size="14.00">g9</text>
</g>
<!-- Node0x31cb28c0&#45;&gt;Node0x31cb1a10 -->
<g id="edge32" class="edge"><title>Node0x31cb28c0&#45;&gt;Node0x31cb1a10</title>
<path fill="none" stroke="black" d="M702.272,-865.423C705.996,-857.332 710.434,-847.69 715.334,-837.042"/>
<polygon fill="black" stroke="black" points="718.553,-838.421 719.554,-827.873 712.194,-835.494 718.553,-838.421"/>
</g>
<!-- Node0x31cb1a10&#45;&gt;Node0x31cac390 -->
<g id="edge33" class="edge"><title>Node0x31cb1a10&#45;&gt;Node0x31cac390</title>
<path fill="none" stroke="black" d="M800.5,-474.127C800.5,-464.794 800.5,-455.632 800.5,-446.806"/>
<polygon fill="black" stroke="black" points="804,-446.608 800.5,-436.608 797,-446.608 804,-446.608"/>
</g>
<!-- Node0x31cb2540&#45;&gt;Node0x32189b70 -->
<g id="edge34" class="edge"><title>Node0x31cb2540&#45;&gt;Node0x32189b70</title>
<path fill="none" stroke="black" d="M628.997,-97.4187C564.174,-81.701 485.091,-62.5259 439.589,-51.493"/>
<polygon fill="black" stroke="black" points="440.133,-48.0235 429.59,-49.0684 438.483,-54.8264 440.133,-48.0235"/>
</g>
</g>
</svg>
