<?xml version="1.0" encoding="UTF-8" standalone="no"?>
<!DOCTYPE svg PUBLIC "-//W3C//DTD SVG 1.1//EN"
 "http://www.w3.org/Graphics/SVG/1.1/DTD/svg11.dtd">
<!-- Generated by graphviz version 2.38.0 (20140413.2041)
 -->
<!-- Title: Control&#45;flow graph for function &#39;SpPlaybackIsActiveDevice()&#39;. Pages: 1 -->
<svg width="814pt" height="1243pt"
 viewBox="0.00 0.00 813.50 1243.00" xmlns="http://www.w3.org/2000/svg" xmlns:xlink="http://www.w3.org/1999/xlink">
<g id="graph0" class="graph" transform="scale(1 1) rotate(0) translate(4 1239)">
<title>Control&#45;flow graph for function &#39;SpPlaybackIsActiveDevice()&#39;.</title>
<polygon fill="white" stroke="none" points="-4,4 -4,-1239 809.5,-1239 809.5,4 -4,4"/>
<text text-anchor="middle" x="402.75" y="-7.8" font-family="Times,serif" font-size="14.00">Control&#45;flow graph for function &#39;SpPlaybackIsActiveDevice()&#39;.</text>
<!-- Node0x2847c4e0 -->
<g id="node1" class="node"><title>Node0x2847c4e0</title>
<polygon fill="none" stroke="black" points="374,-1198.5 374,-1234.5 433,-1234.5 433,-1198.5 374,-1198.5"/>
<text text-anchor="start" x="382" y="-1212.8" font-family="Times,serif" font-size="14.00">entry:</text>
</g>
<!-- Node0x2847c0e0 -->
<g id="node2" class="node"><title>Node0x2847c0e0</title>
<polygon fill="none" stroke="black" points="246,-1047.5 246,-1160.5 561,-1160.5 561,-1047.5 246,-1047.5"/>
<text text-anchor="start" x="254" y="-1145.3" font-family="Times,serif" font-size="14.00">0x1564b000:</text>
<text text-anchor="start" x="254" y="-1130.3" font-family="Times,serif" font-size="14.00"> v1 = g38</text>
<text text-anchor="start" x="254" y="-1115.3" font-family="Times,serif" font-size="14.00"> v2 = g39</text>
<text text-anchor="start" x="254" y="-1100.3" font-family="Times,serif" font-size="14.00"> v3 = g40</text>
<text text-anchor="start" x="254" y="-1085.3" font-family="Times,serif" font-size="14.00"> g38 = 165012</text>
<text text-anchor="start" x="254" y="-1070.3" font-family="Times,serif" font-size="14.00"> v4 = *(IntToPtrCastExpr&lt;ptr&gt;(165212))</text>
<text text-anchor="start" x="254" y="-1055.3" font-family="Times,serif" font-size="14.00"> g40 = v4</text>
</g>
<!-- Node0x2847c4e0&#45;&gt;Node0x2847c0e0 -->
<g id="edge1" class="edge"><title>Node0x2847c4e0&#45;&gt;Node0x2847c0e0</title>
<path fill="none" stroke="black" d="M403.5,-1198.23C403.5,-1190.59 403.5,-1181.06 403.5,-1171.03"/>
<polygon fill="black" stroke="black" points="407,-1170.9 403.5,-1160.9 400,-1170.9 407,-1170.9"/>
</g>
<!-- Node0x2847c5e0 -->
<g id="node3" class="node"><title>Node0x2847c5e0</title>
<polygon fill="none" stroke="black" points="251,-971.5 251,-1009.5 556,-1009.5 556,-971.5 251,-971.5"/>
<text text-anchor="start" x="259" y="-994.3" font-family="Times,serif" font-size="14.00">0x82b7270:</text>
<text text-anchor="start" x="259" y="-979.3" font-family="Times,serif" font-size="14.00"> if (*(IntToPtrCastExpr&lt;ptr&gt;(v4)) != 0):</text>
</g>
<!-- Node0x2847c0e0&#45;&gt;Node0x2847c5e0 -->
<g id="edge2" class="edge"><title>Node0x2847c0e0&#45;&gt;Node0x2847c5e0</title>
<path fill="none" stroke="black" d="M403.5,-1047.25C403.5,-1037.86 403.5,-1028.47 403.5,-1020.15"/>
<polygon fill="black" stroke="black" points="407,-1019.91 403.5,-1009.91 400,-1019.91 407,-1019.91"/>
</g>
<!-- Node0x383af290 -->
<g id="node4" class="node"><title>Node0x383af290</title>
<polygon fill="none" stroke="black" points="227.5,-836.5 227.5,-919.5 439.5,-919.5 439.5,-836.5 227.5,-836.5"/>
<text text-anchor="start" x="235.5" y="-904.3" font-family="Times,serif" font-size="14.00">0x82b6670:</text>
<text text-anchor="start" x="235.5" y="-889.3" font-family="Times,serif" font-size="14.00"> g29 = 157724</text>
<text text-anchor="start" x="235.5" y="-874.3" font-family="Times,serif" font-size="14.00"> g30 = 157236</text>
<text text-anchor="start" x="235.5" y="-859.3" font-family="Times,serif" font-size="14.00"> g36 = 155984</text>
<text text-anchor="start" x="235.5" y="-844.3" font-family="Times,serif" font-size="14.00"> imported_function_ord_0()</text>
</g>
<!-- Node0x2847c5e0&#45;&gt;Node0x383af290 -->
<g id="edge3" class="edge"><title>Node0x2847c5e0&#45;&gt;Node0x383af290</title>
<path fill="none" stroke="black" d="M305.832,-971.438C288.948,-966.374 275.026,-960.233 269.5,-953 263.224,-944.786 263.549,-936.295 267.691,-928.123"/>
<polygon fill="black" stroke="black" points="270.64,-930.01 273.273,-919.748 264.815,-926.128 270.64,-930.01"/>
<text text-anchor="middle" x="397.5" y="-941.8" font-family="Times,serif" font-size="14.00">*(IntToPtrCastExpr&lt;ptr&gt;(v4)) != 0</text>
</g>
<!-- Node0x2847b1b0 -->
<g id="node5" class="node"><title>Node0x2847b1b0</title>
<polygon fill="none" stroke="black" points="337.5,-670.5 337.5,-798.5 625.5,-798.5 625.5,-670.5 337.5,-670.5"/>
<text text-anchor="start" x="345.5" y="-783.3" font-family="Times,serif" font-size="14.00">0x82b74c0:</text>
<text text-anchor="start" x="345.5" y="-768.3" font-family="Times,serif" font-size="14.00"> function_16d58()</text>
<text text-anchor="start" x="345.5" y="-753.3" font-family="Times,serif" font-size="14.00"> v5 = *(IntToPtrCastExpr&lt;ptr&gt;(g40))</text>
<text text-anchor="start" x="345.5" y="-738.3" font-family="Times,serif" font-size="14.00"> g37 = v5</text>
<text text-anchor="start" x="345.5" y="-723.3" font-family="Times,serif" font-size="14.00"> v6 = g29</text>
<text text-anchor="start" x="345.5" y="-708.3" font-family="Times,serif" font-size="14.00"> g39 = v6</text>
<text text-anchor="start" x="345.5" y="-693.3" font-family="Times,serif" font-size="14.00"> g9 = (v5 == 0)</text>
<text text-anchor="start" x="345.5" y="-678.3" font-family="Times,serif" font-size="14.00"> v7 = v6</text>
</g>
<!-- Node0x2847c5e0&#45;&gt;Node0x2847b1b0 -->
<g id="edge4" class="edge"><title>Node0x2847c5e0&#45;&gt;Node0x2847b1b0</title>
<path fill="none" stroke="black" d="M504.82,-971.409C512.778,-966.576 519.888,-960.536 525.5,-953 556.389,-911.517 542.78,-853.727 522.849,-808.142"/>
<polygon fill="black" stroke="black" points="525.975,-806.561 518.652,-798.904 519.602,-809.456 525.975,-806.561"/>
<text text-anchor="middle" x="674.5" y="-874.3" font-family="Times,serif" font-size="14.00">*(IntToPtrCastExpr&lt;ptr&gt;(v4)) == 0</text>
</g>
<!-- Node0x383af290&#45;&gt;Node0x2847b1b0 -->
<g id="edge5" class="edge"><title>Node0x383af290&#45;&gt;Node0x2847b1b0</title>
<path fill="none" stroke="black" d="M375.911,-836.452C386.001,-826.805 397.055,-816.236 408.092,-805.684"/>
<polygon fill="black" stroke="black" points="410.523,-808.202 415.332,-798.762 405.686,-803.142 410.523,-808.202"/>
</g>
<!-- Node0x383aeb70 -->
<g id="node6" class="node"><title>Node0x383aeb70</title>
<polygon fill="none" stroke="black" points="429.5,-594.5 429.5,-632.5 533.5,-632.5 533.5,-594.5 429.5,-594.5"/>
<text text-anchor="start" x="437.5" y="-617.3" font-family="Times,serif" font-size="14.00">0x82b9680:</text>
<text text-anchor="start" x="437.5" y="-602.3" font-family="Times,serif" font-size="14.00"> if (v5 != 0):</text>
</g>
<!-- Node0x2847b1b0&#45;&gt;Node0x383aeb70 -->
<g id="edge6" class="edge"><title>Node0x2847b1b0&#45;&gt;Node0x383aeb70</title>
<path fill="none" stroke="black" d="M481.5,-670.167C481.5,-660.596 481.5,-651.158 481.5,-642.848"/>
<polygon fill="black" stroke="black" points="485,-642.658 481.5,-632.659 478,-642.659 485,-642.658"/>
</g>
<!-- Node0x2847df40 -->
<g id="node7" class="node"><title>Node0x2847df40</title>
<polygon fill="none" stroke="black" points="269.5,-459.5 269.5,-542.5 481.5,-542.5 481.5,-459.5 269.5,-459.5"/>
<text text-anchor="start" x="277.5" y="-527.3" font-family="Times,serif" font-size="14.00">0x82b8ce0:</text>
<text text-anchor="start" x="277.5" y="-512.3" font-family="Times,serif" font-size="14.00"> g30 = (g38 &#45; 7776)</text>
<text text-anchor="start" x="277.5" y="-497.3" font-family="Times,serif" font-size="14.00"> g36 = v6</text>
<text text-anchor="start" x="277.5" y="-482.3" font-family="Times,serif" font-size="14.00"> imported_function_ord_0()</text>
<text text-anchor="start" x="277.5" y="-467.3" font-family="Times,serif" font-size="14.00"> v7 = g39</text>
</g>
<!-- Node0x383aeb70&#45;&gt;Node0x2847df40 -->
<g id="edge7" class="edge"><title>Node0x383aeb70&#45;&gt;Node0x2847df40</title>
<path fill="none" stroke="black" d="M463.996,-594.253C452.475,-582.242 436.811,-565.914 421.863,-550.331"/>
<polygon fill="black" stroke="black" points="424.052,-547.557 414.604,-542.764 419,-552.403 424.052,-547.557"/>
<text text-anchor="middle" x="471.5" y="-564.8" font-family="Times,serif" font-size="14.00">v5 != 0</text>
</g>
<!-- Node0x2847c8e0 -->
<g id="node8" class="node"><title>Node0x2847c8e0</title>
<polygon fill="none" stroke="black" points="354.5,-278.5 354.5,-421.5 596.5,-421.5 596.5,-278.5 354.5,-278.5"/>
<text text-anchor="start" x="362.5" y="-406.3" font-family="Times,serif" font-size="14.00">0x82b9800:</text>
<text text-anchor="start" x="362.5" y="-391.3" font-family="Times,serif" font-size="14.00"> g29 = v7</text>
<text text-anchor="start" x="362.5" y="-376.3" font-family="Times,serif" font-size="14.00"> g38 = v1</text>
<text text-anchor="start" x="362.5" y="-361.3" font-family="Times,serif" font-size="14.00"> g39 = v2</text>
<text text-anchor="start" x="362.5" y="-346.3" font-family="Times,serif" font-size="14.00"> g40 = v3</text>
<text text-anchor="start" x="362.5" y="-331.3" font-family="Times,serif" font-size="14.00"> v8</text>
<text text-anchor="start" x="362.5" y="-316.3" font-family="Times,serif" font-size="14.00"> g34 = v8</text>
<text text-anchor="start" x="362.5" y="-301.3" font-family="Times,serif" font-size="14.00"> IntToPtrCastExpr&lt;ptr&gt;(g35)()</text>
<text text-anchor="start" x="362.5" y="-286.3" font-family="Times,serif" font-size="14.00"> v9 = (g30 % 256)</text>
</g>
<!-- Node0x383aeb70&#45;&gt;Node0x2847c8e0 -->
<g id="edge8" class="edge"><title>Node0x383aeb70&#45;&gt;Node0x2847c8e0</title>
<path fill="none" stroke="black" d="M494.396,-594.38C497.702,-588.755 500.802,-582.357 502.5,-576 504.221,-569.559 502.89,-567.655 502.5,-561 499.992,-518.22 494.169,-470.852 488.57,-431.947"/>
<polygon fill="black" stroke="black" points="491.986,-431.119 487.077,-421.73 485.06,-432.131 491.986,-431.119"/>
<text text-anchor="middle" x="531.5" y="-497.3" font-family="Times,serif" font-size="14.00">v5 == 0</text>
</g>
<!-- Node0x2847df40&#45;&gt;Node0x2847c8e0 -->
<g id="edge9" class="edge"><title>Node0x2847df40&#45;&gt;Node0x2847c8e0</title>
<path fill="none" stroke="black" d="M402.825,-459.285C408.925,-450.197 415.595,-440.259 422.342,-430.206"/>
<polygon fill="black" stroke="black" points="425.35,-432.004 428.017,-421.75 419.538,-428.103 425.35,-432.004"/>
</g>
<!-- Node0x245b2180 -->
<g id="node9" class="node"><title>Node0x245b2180</title>
<polygon fill="none" stroke="black" points="425,-202.5 425,-240.5 526,-240.5 526,-202.5 425,-202.5"/>
<text text-anchor="start" x="433" y="-225.3" font-family="Times,serif" font-size="14.00">0x82bc080:</text>
<text text-anchor="start" x="433" y="-210.3" font-family="Times,serif" font-size="14.00"> if g9:</text>
</g>
<!-- Node0x2847c8e0&#45;&gt;Node0x245b2180 -->
<g id="edge10" class="edge"><title>Node0x2847c8e0&#45;&gt;Node0x245b2180</title>
<path fill="none" stroke="black" d="M475.5,-278.353C475.5,-268.594 475.5,-259.073 475.5,-250.737"/>
<polygon fill="black" stroke="black" points="479,-250.54 475.5,-240.54 472,-250.54 479,-250.54"/>
</g>
<!-- Node0x245b1e90 -->
<g id="node10" class="node"><title>Node0x245b1e90</title>
<polygon fill="none" stroke="black" points="0,-97.5 0,-150.5 513,-150.5 513,-97.5 0,-97.5"/>
<text text-anchor="start" x="8" y="-135.3" font-family="Times,serif" font-size="14.00">0x82bb870:</text>
<text text-anchor="start" x="8" y="-120.3" font-family="Times,serif" font-size="14.00"> g37 = ((g42 &gt;&gt; (0 if (v9 == 0) else (31 if (v9 &gt; 31) else v9))) &amp; g30)</text>
<text text-anchor="start" x="8" y="-105.3" font-family="Times,serif" font-size="14.00"> g29 = (g29 &amp; (g42 / 2))</text>
</g>
<!-- Node0x245b2180&#45;&gt;Node0x245b1e90 -->
<g id="edge11" class="edge"><title>Node0x245b2180&#45;&gt;Node0x245b1e90</title>
<path fill="none" stroke="black" d="M434.05,-202.425C403.202,-188.973 360.415,-170.314 324.573,-154.685"/>
<polygon fill="black" stroke="black" points="325.71,-151.362 315.145,-150.573 322.912,-157.779 325.71,-151.362"/>
<text text-anchor="middle" x="396" y="-172.8" font-family="Times,serif" font-size="14.00">g9</text>
</g>
<!-- Node0x245b26b0 -->
<g id="node11" class="node"><title>Node0x245b26b0</title>
<polygon fill="none" stroke="black" points="442.5,-23.5 442.5,-59.5 496.5,-59.5 496.5,-23.5 442.5,-23.5"/>
<text text-anchor="start" x="450.5" y="-37.8" font-family="Times,serif" font-size="14.00">exit:</text>
</g>
<!-- Node0x245b2180&#45;&gt;Node0x245b26b0 -->
<g id="edge12" class="edge"><title>Node0x245b2180&#45;&gt;Node0x245b26b0</title>
<path fill="none" stroke="black" d="M491.91,-202.287C502.64,-189.094 515.704,-170.259 521.5,-151 528.417,-128.018 530.424,-119.279 521.5,-97 516.949,-85.6385 508.777,-75.3005 500.238,-66.7559"/>
<polygon fill="black" stroke="black" points="502.417,-64.0015 492.722,-59.728 497.636,-69.1145 502.417,-64.0015"/>
<text text-anchor="middle" x="556" y="-120.3" font-family="Times,serif" font-size="14.00">not (g9)</text>
</g>
<!-- Node0x245b1e90&#45;&gt;Node0x245b26b0 -->
<g id="edge13" class="edge"><title>Node0x245b1e90&#45;&gt;Node0x245b26b0</title>
<path fill="none" stroke="black" d="M324.187,-97.4187C360.194,-83.8104 403.058,-67.6106 432.861,-56.3471"/>
<polygon fill="black" stroke="black" points="434.322,-59.5368 442.439,-52.7274 431.847,-52.9888 434.322,-59.5368"/>
</g>
</g>
</svg>
