<?xml version="1.0" encoding="UTF-8" standalone="no"?>
<!DOCTYPE svg PUBLIC "-//W3C//DTD SVG 1.1//EN"
 "http://www.w3.org/Graphics/SVG/1.1/DTD/svg11.dtd">
<!-- Generated by graphviz version 2.38.0 (20140413.2041)
 -->
<!-- Title: Control&#45;flow graph for function &#39;function_3920()&#39;. Pages: 1 -->
<svg width="945pt" height="1724pt"
 viewBox="0.00 0.00 945.00 1724.00" xmlns="http://www.w3.org/2000/svg" xmlns:xlink="http://www.w3.org/1999/xlink">
<g id="graph0" class="graph" transform="scale(1 1) rotate(0) translate(4 1720)">
<title>Control&#45;flow graph for function &#39;function_3920()&#39;.</title>
<polygon fill="white" stroke="none" points="-4,4 -4,-1720 941,-1720 941,4 -4,4"/>
<text text-anchor="middle" x="468.5" y="-7.8" font-family="Times,serif" font-size="14.00">Control&#45;flow graph for function &#39;function_3920()&#39;.</text>
<!-- Node0x43788c30 -->
<g id="node1" class="node"><title>Node0x43788c30</title>
<polygon fill="none" stroke="black" points="153,-1679.5 153,-1715.5 212,-1715.5 212,-1679.5 153,-1679.5"/>
<text text-anchor="start" x="161" y="-1693.8" font-family="Times,serif" font-size="14.00">entry:</text>
</g>
<!-- Node0x3eed1430 -->
<g id="node2" class="node"><title>Node0x3eed1430</title>
<polygon fill="none" stroke="black" points="23,-1423.5 23,-1641.5 342,-1641.5 342,-1423.5 23,-1423.5"/>
<text text-anchor="start" x="31" y="-1626.3" font-family="Times,serif" font-size="14.00">0xef9f810:</text>
<text text-anchor="start" x="31" y="-1611.3" font-family="Times,serif" font-size="14.00"> v1 = g38</text>
<text text-anchor="start" x="31" y="-1596.3" font-family="Times,serif" font-size="14.00"> v2 = g39</text>
<text text-anchor="start" x="31" y="-1581.3" font-family="Times,serif" font-size="14.00"> v3 = g32</text>
<text text-anchor="start" x="31" y="-1566.3" font-family="Times,serif" font-size="14.00"> v4 = g35</text>
<text text-anchor="start" x="31" y="-1551.3" font-family="Times,serif" font-size="14.00"> v5 = g29</text>
<text text-anchor="start" x="31" y="-1536.3" font-family="Times,serif" font-size="14.00"> v6 = *(IntToPtrCastExpr&lt;ptr&gt;((v5 + 8)))</text>
<text text-anchor="start" x="31" y="-1521.3" font-family="Times,serif" font-size="14.00"> g37 = v6</text>
<text text-anchor="start" x="31" y="-1506.3" font-family="Times,serif" font-size="14.00"> g39 = v5</text>
<text text-anchor="start" x="31" y="-1491.3" font-family="Times,serif" font-size="14.00"> g6 = (v6 &gt; 4)</text>
<text text-anchor="start" x="31" y="-1476.3" font-family="Times,serif" font-size="14.00"> g9 = (v6 == 5)</text>
<text text-anchor="start" x="31" y="-1461.3" font-family="Times,serif" font-size="14.00"> v7 = g30</text>
<text text-anchor="start" x="31" y="-1446.3" font-family="Times,serif" font-size="14.00"> g29 = v7</text>
<text text-anchor="start" x="31" y="-1431.3" font-family="Times,serif" font-size="14.00"> v8</text>
</g>
<!-- Node0x43788c30&#45;&gt;Node0x3eed1430 -->
<g id="edge1" class="edge"><title>Node0x43788c30&#45;&gt;Node0x3eed1430</title>
<path fill="none" stroke="black" d="M182.5,-1679.36C182.5,-1671.93 182.5,-1662.54 182.5,-1652.11"/>
<polygon fill="black" stroke="black" points="186,-1651.83 182.5,-1641.83 179,-1651.83 186,-1651.83"/>
</g>
<!-- Node0x3ef68ac0 -->
<g id="node3" class="node"><title>Node0x3ef68ac0</title>
<polygon fill="none" stroke="black" points="132,-1347.5 132,-1385.5 233,-1385.5 233,-1347.5 132,-1347.5"/>
<text text-anchor="start" x="140" y="-1370.3" font-family="Times,serif" font-size="14.00">0x50cb820:</text>
<text text-anchor="start" x="140" y="-1355.3" font-family="Times,serif" font-size="14.00"> if (v6 &lt; 6):</text>
</g>
<!-- Node0x3eed1430&#45;&gt;Node0x3ef68ac0 -->
<g id="edge2" class="edge"><title>Node0x3eed1430&#45;&gt;Node0x3ef68ac0</title>
<path fill="none" stroke="black" d="M182.5,-1423.48C182.5,-1413.59 182.5,-1404.25 182.5,-1396.15"/>
<polygon fill="black" stroke="black" points="186,-1395.92 182.5,-1385.92 179,-1395.92 186,-1395.92"/>
</g>
<!-- Node0x3eed0dd0 -->
<g id="node4" class="node"><title>Node0x3eed0dd0</title>
<polygon fill="none" stroke="black" points="0,-1125.5 0,-1238.5 233,-1238.5 233,-1125.5 0,-1125.5"/>
<text text-anchor="start" x="8" y="-1223.3" font-family="Times,serif" font-size="14.00">0x50cb2e0:</text>
<text text-anchor="start" x="8" y="-1208.3" font-family="Times,serif" font-size="14.00"> g38 = v1</text>
<text text-anchor="start" x="8" y="-1193.3" font-family="Times,serif" font-size="14.00"> g39 = v2</text>
<text text-anchor="start" x="8" y="-1178.3" font-family="Times,serif" font-size="14.00"> g32 = v3</text>
<text text-anchor="start" x="8" y="-1163.3" font-family="Times,serif" font-size="14.00"> g34 = v8</text>
<text text-anchor="start" x="8" y="-1148.3" font-family="Times,serif" font-size="14.00"> IntToPtrCastExpr&lt;ptr&gt;(v4)()</text>
<text text-anchor="start" x="8" y="-1133.3" font-family="Times,serif" font-size="14.00"> return</text>
</g>
<!-- Node0x3ef68ac0&#45;&gt;Node0x3eed0dd0 -->
<g id="edge3" class="edge"><title>Node0x3ef68ac0&#45;&gt;Node0x3eed0dd0</title>
<path fill="none" stroke="black" d="M175.93,-1347.33C167.645,-1324.42 152.945,-1283.78 140.238,-1248.64"/>
<polygon fill="black" stroke="black" points="143.406,-1247.11 136.714,-1238.9 136.824,-1249.49 143.406,-1247.11"/>
<text text-anchor="middle" x="192.5" y="-1317.8" font-family="Times,serif" font-size="14.00">v6 &lt; 6</text>
</g>
<!-- Node0x3ef68f20 -->
<g id="node5" class="node"><title>Node0x3ef68f20</title>
<polygon fill="none" stroke="black" points="229.5,-1257.5 229.5,-1295.5 339.5,-1295.5 339.5,-1257.5 229.5,-1257.5"/>
<text text-anchor="start" x="237.5" y="-1280.3" font-family="Times,serif" font-size="14.00">0x400fd220:</text>
<text text-anchor="start" x="237.5" y="-1265.3" font-family="Times,serif" font-size="14.00"> v9 = (v7 &#45; 1)</text>
</g>
<!-- Node0x3ef68ac0&#45;&gt;Node0x3ef68f20 -->
<g id="edge4" class="edge"><title>Node0x3ef68ac0&#45;&gt;Node0x3ef68f20</title>
<path fill="none" stroke="black" d="M203.634,-1347.27C218.678,-1334.29 239.076,-1316.69 255.62,-1302.42"/>
<polygon fill="black" stroke="black" points="258.107,-1304.89 263.393,-1295.71 253.535,-1299.59 258.107,-1304.89"/>
<text text-anchor="middle" x="270.5" y="-1317.8" font-family="Times,serif" font-size="14.00">v6 &gt;= 6</text>
</g>
<!-- Node0x43789240 -->
<g id="node6" class="node"><title>Node0x43789240</title>
<polygon fill="none" stroke="black" points="510.5,-23.5 510.5,-59.5 564.5,-59.5 564.5,-23.5 510.5,-23.5"/>
<text text-anchor="start" x="518.5" y="-37.8" font-family="Times,serif" font-size="14.00">exit:</text>
</g>
<!-- Node0x3eed0dd0&#45;&gt;Node0x43789240 -->
<g id="edge5" class="edge"><title>Node0x3eed0dd0&#45;&gt;Node0x43789240</title>
<path fill="none" stroke="black" d="M108.235,-1125.27C105.204,-1100.32 102.5,-1070.49 102.5,-1043.5 102.5,-1043.5 102.5,-1043.5 102.5,-145.5 102.5,-64.0901 394.646,-46.9382 500.103,-43.3988"/>
<polygon fill="black" stroke="black" points="500.403,-46.8912 510.289,-43.0802 500.184,-39.8946 500.403,-46.8912"/>
</g>
<!-- Node0x3eed10e0 -->
<g id="node7" class="node"><title>Node0x3eed10e0</title>
<polygon fill="none" stroke="black" points="255,-1068.5 255,-1106.5 362,-1106.5 362,-1068.5 255,-1068.5"/>
<text text-anchor="start" x="263" y="-1091.3" font-family="Times,serif" font-size="14.00">0x50cde80:</text>
<text text-anchor="start" x="263" y="-1076.3" font-family="Times,serif" font-size="14.00"> if (v9 &gt; 63):</text>
</g>
<!-- Node0x3ef68f20&#45;&gt;Node0x3eed10e0 -->
<g id="edge6" class="edge"><title>Node0x3ef68f20&#45;&gt;Node0x3eed10e0</title>
<path fill="none" stroke="black" d="M286.845,-1257.23C291.05,-1224.47 299.897,-1155.53 304.884,-1116.68"/>
<polygon fill="black" stroke="black" points="308.379,-1116.93 306.181,-1106.57 301.436,-1116.04 308.379,-1116.93"/>
</g>
<!-- Node0x43788670 -->
<g id="node8" class="node"><title>Node0x43788670</title>
<polygon fill="none" stroke="black" points="234.5,-903.5 234.5,-986.5 382.5,-986.5 382.5,-903.5 234.5,-903.5"/>
<text text-anchor="start" x="242.5" y="-971.3" font-family="Times,serif" font-size="14.00">0x1e766260:</text>
<text text-anchor="start" x="242.5" y="-956.3" font-family="Times,serif" font-size="14.00"> v10 = (v7 &#45; 65)</text>
<text text-anchor="start" x="242.5" y="-941.3" font-family="Times,serif" font-size="14.00"> g37 = v10</text>
<text text-anchor="start" x="242.5" y="-926.3" font-family="Times,serif" font-size="14.00"> g6 = (v10 &gt; 14)</text>
<text text-anchor="start" x="242.5" y="-911.3" font-family="Times,serif" font-size="14.00"> g9 = (v10 == 15)</text>
</g>
<!-- Node0x3eed10e0&#45;&gt;Node0x43788670 -->
<g id="edge7" class="edge"><title>Node0x3eed10e0&#45;&gt;Node0x43788670</title>
<path fill="none" stroke="black" d="M308.5,-1068.42C308.5,-1050.38 308.5,-1021.81 308.5,-996.813"/>
<polygon fill="black" stroke="black" points="312,-996.72 308.5,-986.72 305,-996.72 312,-996.72"/>
<text text-anchor="middle" x="337" y="-1038.8" font-family="Times,serif" font-size="14.00">v9 &gt; 63</text>
</g>
<!-- Node0x3eed2460 -->
<g id="node9" class="node"><title>Node0x3eed2460</title>
<polygon fill="none" stroke="black" points="426,-873.5 426,-1016.5 763,-1016.5 763,-873.5 426,-873.5"/>
<text text-anchor="start" x="434" y="-1001.3" font-family="Times,serif" font-size="14.00">0x1578b270:</text>
<text text-anchor="start" x="434" y="-986.3" font-family="Times,serif" font-size="14.00"> v12 = (v9 + v5)</text>
<text text-anchor="start" x="434" y="-971.3" font-family="Times,serif" font-size="14.00"> g36 = v12</text>
<text text-anchor="start" x="434" y="-956.3" font-family="Times,serif" font-size="14.00"> v13 = IntToPtrCastExpr&lt;ptr&gt;((v12 + 801))</text>
<text text-anchor="start" x="434" y="-941.3" font-family="Times,serif" font-size="14.00"> v14 = *(v13)</text>
<text text-anchor="start" x="434" y="-926.3" font-family="Times,serif" font-size="14.00"> v15 = ExtCastExpr&lt;int32&gt;(v14)</text>
<text text-anchor="start" x="434" y="-911.3" font-family="Times,serif" font-size="14.00"> g37 = v15</text>
<text text-anchor="start" x="434" y="-896.3" font-family="Times,serif" font-size="14.00"> g6 = True</text>
<text text-anchor="start" x="434" y="-881.3" font-family="Times,serif" font-size="14.00"> g9 = (v14 == 0)</text>
</g>
<!-- Node0x3eed10e0&#45;&gt;Node0x3eed2460 -->
<g id="edge8" class="edge"><title>Node0x3eed10e0&#45;&gt;Node0x3eed2460</title>
<path fill="none" stroke="black" d="M345.304,-1068.42C370.478,-1056.05 405.71,-1038.74 441.771,-1021.03"/>
<polygon fill="black" stroke="black" points="443.52,-1024.07 450.952,-1016.52 440.433,-1017.79 443.52,-1024.07"/>
<text text-anchor="middle" x="444" y="-1038.8" font-family="Times,serif" font-size="14.00">v9 &lt;= 63</text>
</g>
<!-- Node0x24658140 -->
<g id="node10" class="node"><title>Node0x24658140</title>
<polygon fill="none" stroke="black" points="250.5,-797.5 250.5,-835.5 366.5,-835.5 366.5,-797.5 250.5,-797.5"/>
<text text-anchor="start" x="258.5" y="-820.3" font-family="Times,serif" font-size="14.00">0x50cdce0:</text>
<text text-anchor="start" x="258.5" y="-805.3" font-family="Times,serif" font-size="14.00"> if (v10 &lt; 16):</text>
</g>
<!-- Node0x43788670&#45;&gt;Node0x24658140 -->
<g id="edge9" class="edge"><title>Node0x43788670&#45;&gt;Node0x24658140</title>
<path fill="none" stroke="black" d="M308.5,-903.278C308.5,-884.556 308.5,-862.804 308.5,-845.889"/>
<polygon fill="black" stroke="black" points="312,-845.553 308.5,-835.553 305,-845.553 312,-845.553"/>
</g>
<!-- Node0x43787b00 -->
<g id="node11" class="node"><title>Node0x43787b00</title>
<polygon fill="none" stroke="black" points="564,-797.5 564,-835.5 683,-835.5 683,-797.5 564,-797.5"/>
<text text-anchor="start" x="572" y="-820.3" font-family="Times,serif" font-size="14.00">0x50d3150:</text>
<text text-anchor="start" x="572" y="-805.3" font-family="Times,serif" font-size="14.00"> if (v14 == 0):</text>
</g>
<!-- Node0x3eed2460&#45;&gt;Node0x43787b00 -->
<g id="edge10" class="edge"><title>Node0x3eed2460&#45;&gt;Node0x43787b00</title>
<path fill="none" stroke="black" d="M610.696,-873.353C612.958,-863.484 615.165,-853.859 617.091,-845.456"/>
<polygon fill="black" stroke="black" points="620.541,-846.07 619.364,-835.54 613.718,-844.505 620.541,-846.07"/>
</g>
<!-- Node0x24658220 -->
<g id="node12" class="node"><title>Node0x24658220</title>
<polygon fill="none" stroke="black" points="130.5,-662.5 130.5,-745.5 468.5,-745.5 468.5,-662.5 130.5,-662.5"/>
<text text-anchor="start" x="138.5" y="-730.3" font-family="Times,serif" font-size="14.00">0x13210e70:</text>
<text text-anchor="start" x="138.5" y="-715.3" font-family="Times,serif" font-size="14.00"> v11 = ((12 * v7) + v5)</text>
<text text-anchor="start" x="138.5" y="-700.3" font-family="Times,serif" font-size="14.00"> g36 = v11</text>
<text text-anchor="start" x="138.5" y="-685.3" font-family="Times,serif" font-size="14.00"> g37 = 0</text>
<text text-anchor="start" x="138.5" y="-670.3" font-family="Times,serif" font-size="14.00"> *(IntToPtrCastExpr&lt;ptr&gt;((v11 + 600))) = 0</text>
</g>
<!-- Node0x24658140&#45;&gt;Node0x24658220 -->
<g id="edge11" class="edge"><title>Node0x24658140&#45;&gt;Node0x24658220</title>
<path fill="none" stroke="black" d="M307.014,-797.253C306.089,-785.898 304.85,-770.682 303.645,-755.887"/>
<polygon fill="black" stroke="black" points="307.12,-755.446 302.82,-745.764 300.144,-756.015 307.12,-755.446"/>
<text text-anchor="middle" x="338.5" y="-767.8" font-family="Times,serif" font-size="14.00">v10 &lt; 16</text>
</g>
<!-- Node0x3eed45a0 -->
<g id="node13" class="node"><title>Node0x3eed45a0</title>
<polygon fill="none" stroke="black" points="322,-398.5 322,-511.5 555,-511.5 555,-398.5 322,-398.5"/>
<text text-anchor="start" x="330" y="-496.3" font-family="Times,serif" font-size="14.00">0x50d3b90:</text>
<text text-anchor="start" x="330" y="-481.3" font-family="Times,serif" font-size="14.00"> g38 = v1</text>
<text text-anchor="start" x="330" y="-466.3" font-family="Times,serif" font-size="14.00"> g39 = v2</text>
<text text-anchor="start" x="330" y="-451.3" font-family="Times,serif" font-size="14.00"> g32 = v3</text>
<text text-anchor="start" x="330" y="-436.3" font-family="Times,serif" font-size="14.00"> g34 = v8</text>
<text text-anchor="start" x="330" y="-421.3" font-family="Times,serif" font-size="14.00"> IntToPtrCastExpr&lt;ptr&gt;(v4)()</text>
<text text-anchor="start" x="330" y="-406.3" font-family="Times,serif" font-size="14.00"> return</text>
</g>
<!-- Node0x24658140&#45;&gt;Node0x3eed45a0 -->
<g id="edge12" class="edge"><title>Node0x24658140&#45;&gt;Node0x3eed45a0</title>
<path fill="none" stroke="black" d="M366.753,-808.175C405.24,-799.976 452.955,-782.634 477.5,-746 522.349,-679.062 496.654,-583.75 470.612,-520.918"/>
<polygon fill="black" stroke="black" points="473.744,-519.338 466.609,-511.506 467.303,-522.078 473.744,-519.338"/>
<text text-anchor="middle" x="540.5" y="-700.3" font-family="Times,serif" font-size="14.00">v10 &gt;= 16</text>
</g>
<!-- Node0x3eed14e0 -->
<g id="node14" class="node"><title>Node0x3eed14e0</title>
<polygon fill="none" stroke="black" points="520,-530.5 520,-643.5 753,-643.5 753,-530.5 520,-530.5"/>
<text text-anchor="start" x="528" y="-628.3" font-family="Times,serif" font-size="14.00">0x50d3300:</text>
<text text-anchor="start" x="528" y="-613.3" font-family="Times,serif" font-size="14.00"> g38 = v1</text>
<text text-anchor="start" x="528" y="-598.3" font-family="Times,serif" font-size="14.00"> g39 = v2</text>
<text text-anchor="start" x="528" y="-583.3" font-family="Times,serif" font-size="14.00"> g32 = v3</text>
<text text-anchor="start" x="528" y="-568.3" font-family="Times,serif" font-size="14.00"> g34 = v8</text>
<text text-anchor="start" x="528" y="-553.3" font-family="Times,serif" font-size="14.00"> IntToPtrCastExpr&lt;ptr&gt;(v4)()</text>
<text text-anchor="start" x="528" y="-538.3" font-family="Times,serif" font-size="14.00"> return</text>
</g>
<!-- Node0x43787b00&#45;&gt;Node0x3eed14e0 -->
<g id="edge13" class="edge"><title>Node0x43787b00&#45;&gt;Node0x3eed14e0</title>
<path fill="none" stroke="black" d="M623.174,-797.38C623.079,-787.508 623.091,-775.079 623.5,-764 624.846,-727.512 627.756,-686.855 630.482,-653.819"/>
<polygon fill="black" stroke="black" points="633.972,-654.081 631.32,-643.823 626.997,-653.496 633.972,-654.081"/>
<text text-anchor="middle" x="658" y="-767.8" font-family="Times,serif" font-size="14.00">v14 == 0</text>
</g>
<!-- Node0x3eed5ec0 -->
<g id="node15" class="node"><title>Node0x3eed5ec0</title>
<polygon fill="none" stroke="black" points="652,-662.5 652,-745.5 937,-745.5 937,-662.5 652,-662.5"/>
<text text-anchor="start" x="660" y="-730.3" font-family="Times,serif" font-size="14.00">0xfe96820:</text>
<text text-anchor="start" x="660" y="-715.3" font-family="Times,serif" font-size="14.00"> v16 = (v15 | 4)</text>
<text text-anchor="start" x="660" y="-700.3" font-family="Times,serif" font-size="14.00"> g37 = v16</text>
<text text-anchor="start" x="660" y="-685.3" font-family="Times,serif" font-size="14.00"> g9 = ((v15 % 2) == 0)</text>
<text text-anchor="start" x="660" y="-670.3" font-family="Times,serif" font-size="14.00"> *(v13) = TruncCastExpr&lt;int8&gt;(v16)</text>
</g>
<!-- Node0x43787b00&#45;&gt;Node0x3eed5ec0 -->
<g id="edge14" class="edge"><title>Node0x43787b00&#45;&gt;Node0x3eed5ec0</title>
<path fill="none" stroke="black" d="M662.862,-797.466C673.966,-791.94 685.904,-785.573 696.5,-779 709.727,-770.795 723.38,-761.252 736.141,-751.801"/>
<polygon fill="black" stroke="black" points="738.484,-754.418 744.384,-745.618 734.284,-748.818 738.484,-754.418"/>
<text text-anchor="middle" x="750" y="-767.8" font-family="Times,serif" font-size="14.00">v14 != 0</text>
</g>
<!-- Node0x24658220&#45;&gt;Node0x3eed45a0 -->
<g id="edge15" class="edge"><title>Node0x24658220&#45;&gt;Node0x3eed45a0</title>
<path fill="none" stroke="black" d="M322.297,-662.49C343.959,-623.997 376.886,-565.486 402.166,-520.564"/>
<polygon fill="black" stroke="black" points="405.261,-522.202 407.115,-511.771 399.16,-518.769 405.261,-522.202"/>
</g>
<!-- Node0x3eed45a0&#45;&gt;Node0x43789240 -->
<g id="edge16" class="edge"><title>Node0x3eed45a0&#45;&gt;Node0x43789240</title>
<path fill="none" stroke="black" d="M451.955,-398.075C473.489,-308.566 514.902,-136.429 530.935,-69.7858"/>
<polygon fill="black" stroke="black" points="534.433,-70.2102 533.369,-59.6689 527.627,-68.5728 534.433,-70.2102"/>
</g>
<!-- Node0x3eed14e0&#45;&gt;Node0x43789240 -->
<g id="edge17" class="edge"><title>Node0x3eed14e0&#45;&gt;Node0x43789240</title>
<path fill="none" stroke="black" d="M614.637,-530.123C600.037,-487.806 583.5,-427.872 583.5,-373.5 583.5,-373.5 583.5,-373.5 583.5,-145.5 583.5,-117.308 568.955,-88.253 556.222,-68.2199"/>
<polygon fill="black" stroke="black" points="559.005,-66.0826 550.559,-59.6859 553.172,-69.9533 559.005,-66.0826"/>
</g>
<!-- Node0x3eed1550 -->
<g id="node16" class="node"><title>Node0x3eed1550</title>
<polygon fill="none" stroke="black" points="717,-436 717,-474 872,-474 872,-436 717,-436"/>
<text text-anchor="start" x="725" y="-458.8" font-family="Times,serif" font-size="14.00">0x50d26f0:</text>
<text text-anchor="start" x="725" y="-443.8" font-family="Times,serif" font-size="14.00"> if ((v15 % 2) != 0):</text>
</g>
<!-- Node0x3eed5ec0&#45;&gt;Node0x3eed1550 -->
<g id="edge18" class="edge"><title>Node0x3eed5ec0&#45;&gt;Node0x3eed1550</title>
<path fill="none" stroke="black" d="M794.5,-662.49C794.5,-612.274 794.5,-527.989 794.5,-484.251"/>
<polygon fill="black" stroke="black" points="798,-484.051 794.5,-474.051 791,-484.051 798,-484.051"/>
</g>
<!-- Node0x24656e50 -->
<g id="node17" class="node"><title>Node0x24656e50</title>
<polygon fill="none" stroke="black" points="634,-233.5 634,-346.5 777,-346.5 777,-233.5 634,-233.5"/>
<text text-anchor="start" x="642" y="-331.3" font-family="Times,serif" font-size="14.00">0x50d1710:</text>
<text text-anchor="start" x="642" y="-316.3" font-family="Times,serif" font-size="14.00"> function_13000()</text>
<text text-anchor="start" x="642" y="-301.3" font-family="Times,serif" font-size="14.00"> g29 = 0</text>
<text text-anchor="start" x="642" y="-286.3" font-family="Times,serif" font-size="14.00"> function_12fe0()</text>
<text text-anchor="start" x="642" y="-271.3" font-family="Times,serif" font-size="14.00"> g29 = g39</text>
<text text-anchor="start" x="642" y="-256.3" font-family="Times,serif" font-size="14.00"> g30 = 11</text>
<text text-anchor="start" x="642" y="-241.3" font-family="Times,serif" font-size="14.00"> function_38f4()</text>
</g>
<!-- Node0x3eed1550&#45;&gt;Node0x24656e50 -->
<g id="edge19" class="edge"><title>Node0x3eed1550&#45;&gt;Node0x24656e50</title>
<path fill="none" stroke="black" d="M757.651,-435.807C736.718,-423.28 712.382,-404.476 700.5,-380 697.031,-372.854 695.154,-364.996 694.37,-356.998"/>
<polygon fill="black" stroke="black" points="697.859,-356.673 693.924,-346.836 690.866,-356.98 697.859,-356.673"/>
<text text-anchor="middle" x="753" y="-368.8" font-family="Times,serif" font-size="14.00">(v15 % 2) != 0</text>
</g>
<!-- Node0x3eed1380 -->
<g id="node18" class="node"><title>Node0x3eed1380</title>
<polygon fill="none" stroke="black" points="612,-97.5 612,-195.5 845,-195.5 845,-97.5 612,-97.5"/>
<text text-anchor="start" x="620" y="-180.3" font-family="Times,serif" font-size="14.00">0x50d2850:</text>
<text text-anchor="start" x="620" y="-165.3" font-family="Times,serif" font-size="14.00"> g38 = v1</text>
<text text-anchor="start" x="620" y="-150.3" font-family="Times,serif" font-size="14.00"> g39 = v2</text>
<text text-anchor="start" x="620" y="-135.3" font-family="Times,serif" font-size="14.00"> g32 = v3</text>
<text text-anchor="start" x="620" y="-120.3" font-family="Times,serif" font-size="14.00"> g34 = v8</text>
<text text-anchor="start" x="620" y="-105.3" font-family="Times,serif" font-size="14.00"> IntToPtrCastExpr&lt;ptr&gt;(v4)()</text>
</g>
<!-- Node0x3eed1550&#45;&gt;Node0x3eed1380 -->
<g id="edge20" class="edge"><title>Node0x3eed1550&#45;&gt;Node0x3eed1380</title>
<path fill="none" stroke="black" d="M797.965,-435.837C800.628,-420.908 804.083,-399.171 805.5,-380 809.619,-324.27 796.842,-259.702 786.5,-233 782.72,-223.24 777.65,-213.487 772.074,-204.245"/>
<polygon fill="black" stroke="black" points="774.892,-202.152 766.599,-195.558 768.97,-205.884 774.892,-202.152"/>
<text text-anchor="middle" x="861" y="-286.3" font-family="Times,serif" font-size="14.00">(v15 % 2) == 0</text>
</g>
<!-- Node0x24656e50&#45;&gt;Node0x3eed1380 -->
<g id="edge21" class="edge"><title>Node0x24656e50&#45;&gt;Node0x3eed1380</title>
<path fill="none" stroke="black" d="M714.524,-233.482C716.021,-224.27 717.577,-214.697 719.084,-205.428"/>
<polygon fill="black" stroke="black" points="722.545,-205.953 720.694,-195.521 715.635,-204.83 722.545,-205.953"/>
</g>
<!-- Node0x3eed1380&#45;&gt;Node0x43789240 -->
<g id="edge22" class="edge"><title>Node0x3eed1380&#45;&gt;Node0x43789240</title>
<path fill="none" stroke="black" d="M639.431,-97.4679C616.135,-84.9054 592.327,-72.0665 573.585,-61.9593"/>
<polygon fill="black" stroke="black" points="575.009,-58.7508 564.546,-57.0849 571.686,-64.9121 575.009,-58.7508"/>
</g>
</g>
</svg>
