<?xml version="1.0" encoding="UTF-8" standalone="no"?>
<!DOCTYPE svg PUBLIC "-//W3C//DTD SVG 1.1//EN"
 "http://www.w3.org/Graphics/SVG/1.1/DTD/svg11.dtd">
<!-- Generated by graphviz version 2.38.0 (20140413.2041)
 -->
<!-- Title: Control&#45;flow graph for function &#39;function_24216()&#39;. Pages: 1 -->
<svg width="386pt" height="351pt"
 viewBox="0.00 0.00 386.00 351.00" xmlns="http://www.w3.org/2000/svg" xmlns:xlink="http://www.w3.org/1999/xlink">
<g id="graph0" class="graph" transform="scale(1 1) rotate(0) translate(4 347)">
<title>Control&#45;flow graph for function &#39;function_24216()&#39;.</title>
<polygon fill="white" stroke="none" points="-4,4 -4,-347 382,-347 382,4 -4,4"/>
<text text-anchor="middle" x="189" y="-7.8" font-family="Times,serif" font-size="14.00">Control&#45;flow graph for function &#39;function_24216()&#39;.</text>
<!-- Node0x24310920 -->
<g id="node1" class="node"><title>Node0x24310920</title>
<polygon fill="none" stroke="black" points="159.5,-306.5 159.5,-342.5 218.5,-342.5 218.5,-306.5 159.5,-306.5"/>
<text text-anchor="start" x="167.5" y="-320.8" font-family="Times,serif" font-size="14.00">entry:</text>
</g>
<!-- Node0x2430ef20 -->
<g id="node2" class="node"><title>Node0x2430ef20</title>
<polygon fill="none" stroke="black" points="56.5,-96.5 56.5,-269.5 321.5,-269.5 321.5,-96.5 56.5,-96.5"/>
<text text-anchor="start" x="64.5" y="-254.3" font-family="Times,serif" font-size="14.00">0xa56a8f0:</text>
<text text-anchor="start" x="64.5" y="-239.3" font-family="Times,serif" font-size="14.00"> g42 = (g36 + g42)</text>
<text text-anchor="start" x="64.5" y="-224.3" font-family="Times,serif" font-size="14.00"> v1 = g39</text>
<text text-anchor="start" x="64.5" y="-209.3" font-family="Times,serif" font-size="14.00"> v2 = g30</text>
<text text-anchor="start" x="64.5" y="-194.3" font-family="Times,serif" font-size="14.00"> v3 = (v2 + v1)</text>
<text text-anchor="start" x="64.5" y="-179.3" font-family="Times,serif" font-size="14.00"> g30 = v3</text>
<text text-anchor="start" x="64.5" y="-164.3" font-family="Times,serif" font-size="14.00"> g8 = (((v3 ^ v2) &amp; (v3 ^ v1)) &lt; 0)</text>
<text text-anchor="start" x="64.5" y="-149.3" font-family="Times,serif" font-size="14.00"> g7 = (v3 &lt; 0)</text>
<text text-anchor="start" x="64.5" y="-134.3" font-family="Times,serif" font-size="14.00"> g9 = (v3 == 0)</text>
<text text-anchor="start" x="64.5" y="-119.3" font-family="Times,serif" font-size="14.00"> g6 = (v3 &lt; v2)</text>
<text text-anchor="start" x="64.5" y="-104.3" font-family="Times,serif" font-size="14.00"> function_23eb4()</text>
</g>
<!-- Node0x24310920&#45;&gt;Node0x2430ef20 -->
<g id="edge1" class="edge"><title>Node0x24310920&#45;&gt;Node0x2430ef20</title>
<path fill="none" stroke="black" d="M189,-306.395C189,-299.083 189,-289.926 189,-279.929"/>
<polygon fill="black" stroke="black" points="192.5,-279.69 189,-269.69 185.5,-279.69 192.5,-279.69"/>
</g>
<!-- Node0x2430dd20 -->
<g id="node3" class="node"><title>Node0x2430dd20</title>
<polygon fill="none" stroke="black" points="162,-23.5 162,-59.5 216,-59.5 216,-23.5 162,-23.5"/>
<text text-anchor="start" x="170" y="-37.8" font-family="Times,serif" font-size="14.00">exit:</text>
</g>
<!-- Node0x2430ef20&#45;&gt;Node0x2430dd20 -->
<g id="edge2" class="edge"><title>Node0x2430ef20&#45;&gt;Node0x2430dd20</title>
<path fill="none" stroke="black" d="M189,-96.4343C189,-86.8184 189,-77.6259 189,-69.641"/>
<polygon fill="black" stroke="black" points="192.5,-69.5749 189,-59.5749 185.5,-69.5749 192.5,-69.5749"/>
</g>
</g>
</svg>
