<?xml version="1.0" encoding="UTF-8" standalone="no"?>
<!DOCTYPE svg PUBLIC "-//W3C//DTD SVG 1.1//EN"
 "http://www.w3.org/Graphics/SVG/1.1/DTD/svg11.dtd">
<!-- Generated by graphviz version 2.38.0 (20140413.2041)
 -->
<!-- Title: Control&#45;flow graph for function &#39;function_16d58()&#39;. Pages: 1 -->
<svg width="708pt" height="564pt"
 viewBox="0.00 0.00 708.00 564.00" xmlns="http://www.w3.org/2000/svg" xmlns:xlink="http://www.w3.org/1999/xlink">
<g id="graph0" class="graph" transform="scale(1 1) rotate(0) translate(4 560)">
<title>Control&#45;flow graph for function &#39;function_16d58()&#39;.</title>
<polygon fill="white" stroke="none" points="-4,4 -4,-560 704,-560 704,4 -4,4"/>
<text text-anchor="middle" x="350" y="-7.8" font-family="Times,serif" font-size="14.00">Control&#45;flow graph for function &#39;function_16d58()&#39;.</text>
<!-- Node0x2adc4710 -->
<g id="node1" class="node"><title>Node0x2adc4710</title>
<polygon fill="none" stroke="black" points="446,-519.5 446,-555.5 505,-555.5 505,-519.5 446,-519.5"/>
<text text-anchor="start" x="454" y="-533.8" font-family="Times,serif" font-size="14.00">entry:</text>
</g>
<!-- Node0x2adc3010 -->
<g id="node2" class="node"><title>Node0x2adc3010</title>
<polygon fill="none" stroke="black" points="251,-278.5 251,-481.5 700,-481.5 700,-278.5 251,-278.5"/>
<text text-anchor="start" x="259" y="-466.3" font-family="Times,serif" font-size="14.00">0x3993bd20:</text>
<text text-anchor="start" x="259" y="-451.3" font-family="Times,serif" font-size="14.00"> v1 = NULL</text>
<text text-anchor="start" x="259" y="-436.3" font-family="Times,serif" font-size="14.00"> g36 = 5748</text>
<text text-anchor="start" x="259" y="-421.3" font-family="Times,serif" font-size="14.00"> g37 = 165012</text>
<text text-anchor="start" x="259" y="-406.3" font-family="Times,serif" font-size="14.00"> v2 = g18</text>
<text text-anchor="start" x="259" y="-391.3" font-family="Times,serif" font-size="14.00"> g29 = v2</text>
<text text-anchor="start" x="259" y="-376.3" font-family="Times,serif" font-size="14.00"> g9 = (v2 == 0)</text>
<text text-anchor="start" x="259" y="-361.3" font-family="Times,serif" font-size="14.00"> g34 = PtrToIntCastExpr&lt;int32&gt;(v1)</text>
<text text-anchor="start" x="259" y="-346.3" font-family="Times,serif" font-size="14.00"> IntToPtrCastExpr&lt;ptr&gt;(ExtCastExpr&lt;int32&gt;((v2 == 0)))()</text>
<text text-anchor="start" x="259" y="-331.3" font-family="Times,serif" font-size="14.00"> function_f4a8()</text>
<text text-anchor="start" x="259" y="-316.3" font-family="Times,serif" font-size="14.00"> g32 = *(IntToPtrCastExpr&lt;ptr&gt;(g34))</text>
<text text-anchor="start" x="259" y="-301.3" font-family="Times,serif" font-size="14.00"> g34 = v1[&#39;1&#39;]</text>
<text text-anchor="start" x="259" y="-286.3" font-family="Times,serif" font-size="14.00"> IntToPtrCastExpr&lt;ptr&gt;(v1[&#39;2&#39;])()</text>
</g>
<!-- Node0x2adc4710&#45;&gt;Node0x2adc3010 -->
<g id="edge1" class="edge"><title>Node0x2adc4710&#45;&gt;Node0x2adc3010</title>
<path fill="none" stroke="black" d="M475.5,-519.265C475.5,-511.774 475.5,-502.323 475.5,-491.892"/>
<polygon fill="black" stroke="black" points="479,-491.624 475.5,-481.624 472,-491.624 479,-491.624"/>
</g>
<!-- Node0x2adc2d10 -->
<g id="node3" class="node"><title>Node0x2adc2d10</title>
<polygon fill="none" stroke="black" points="427,-202.5 427,-240.5 524,-240.5 524,-202.5 427,-202.5"/>
<text text-anchor="start" x="435" y="-225.3" font-family="Times,serif" font-size="14.00">0x861fe90:</text>
<text text-anchor="start" x="435" y="-210.3" font-family="Times,serif" font-size="14.00"> if g9:</text>
</g>
<!-- Node0x2adc3010&#45;&gt;Node0x2adc2d10 -->
<g id="edge2" class="edge"><title>Node0x2adc3010&#45;&gt;Node0x2adc2d10</title>
<path fill="none" stroke="black" d="M475.5,-278.117C475.5,-268.358 475.5,-259.113 475.5,-251.064"/>
<polygon fill="black" stroke="black" points="479,-250.893 475.5,-240.893 472,-250.894 479,-250.893"/>
</g>
<!-- Node0x3de64070 -->
<g id="node4" class="node"><title>Node0x3de64070</title>
<polygon fill="none" stroke="black" points="0,-97.5 0,-150.5 513,-150.5 513,-97.5 0,-97.5"/>
<text text-anchor="start" x="8" y="-135.3" font-family="Times,serif" font-size="14.00">0x3d231d80:</text>
<text text-anchor="start" x="8" y="-120.3" font-family="Times,serif" font-size="14.00"> v3 = (g40 % 256)</text>
<text text-anchor="start" x="8" y="-105.3" font-family="Times,serif" font-size="14.00"> g30 = ((g38 &gt;&gt; (0 if (v3 == 0) else (31 if (v3 &gt; 31) else v3))) &amp; g29)</text>
</g>
<!-- Node0x2adc2d10&#45;&gt;Node0x3de64070 -->
<g id="edge3" class="edge"><title>Node0x2adc2d10&#45;&gt;Node0x3de64070</title>
<path fill="none" stroke="black" d="M434.05,-202.425C403.202,-188.973 360.415,-170.314 324.573,-154.685"/>
<polygon fill="black" stroke="black" points="325.71,-151.362 315.145,-150.573 322.912,-157.779 325.71,-151.362"/>
<text text-anchor="middle" x="396" y="-172.8" font-family="Times,serif" font-size="14.00">g9</text>
</g>
<!-- Node0x26512e80 -->
<g id="node5" class="node"><title>Node0x26512e80</title>
<polygon fill="none" stroke="black" points="442.5,-23.5 442.5,-59.5 496.5,-59.5 496.5,-23.5 442.5,-23.5"/>
<text text-anchor="start" x="450.5" y="-37.8" font-family="Times,serif" font-size="14.00">exit:</text>
</g>
<!-- Node0x2adc2d10&#45;&gt;Node0x26512e80 -->
<g id="edge4" class="edge"><title>Node0x2adc2d10&#45;&gt;Node0x26512e80</title>
<path fill="none" stroke="black" d="M491.91,-202.287C502.64,-189.094 515.704,-170.259 521.5,-151 528.417,-128.018 530.424,-119.279 521.5,-97 516.949,-85.6385 508.777,-75.3005 500.238,-66.7559"/>
<polygon fill="black" stroke="black" points="502.417,-64.0015 492.722,-59.728 497.636,-69.1145 502.417,-64.0015"/>
<text text-anchor="middle" x="556" y="-120.3" font-family="Times,serif" font-size="14.00">not (g9)</text>
</g>
<!-- Node0x3de64070&#45;&gt;Node0x26512e80 -->
<g id="edge5" class="edge"><title>Node0x3de64070&#45;&gt;Node0x26512e80</title>
<path fill="none" stroke="black" d="M324.187,-97.4187C360.194,-83.8104 403.058,-67.6106 432.861,-56.3471"/>
<polygon fill="black" stroke="black" points="434.322,-59.5368 442.439,-52.7274 431.847,-52.9888 434.322,-59.5368"/>
</g>
</g>
</svg>
