<?xml version="1.0" encoding="UTF-8" standalone="no"?>
<!DOCTYPE svg PUBLIC "-//W3C//DTD SVG 1.1//EN"
 "http://www.w3.org/Graphics/SVG/1.1/DTD/svg11.dtd">
<!-- Generated by graphviz version 2.38.0 (20140413.2041)
 -->
<!-- Title: Control&#45;flow graph for function &#39;function_9050()&#39;. Pages: 1 -->
<svg width="808pt" height="910pt"
 viewBox="0.00 0.00 808.00 910.00" xmlns="http://www.w3.org/2000/svg" xmlns:xlink="http://www.w3.org/1999/xlink">
<g id="graph0" class="graph" transform="scale(1 1) rotate(0) translate(4 906)">
<title>Control&#45;flow graph for function &#39;function_9050()&#39;.</title>
<polygon fill="white" stroke="none" points="-4,4 -4,-906 804,-906 804,4 -4,4"/>
<text text-anchor="middle" x="400" y="-7.8" font-family="Times,serif" font-size="14.00">Control&#45;flow graph for function &#39;function_9050()&#39;.</text>
<!-- Node0x17443df0 -->
<g id="node1" class="node"><title>Node0x17443df0</title>
<polygon fill="none" stroke="black" points="443.5,-865.5 443.5,-901.5 502.5,-901.5 502.5,-865.5 443.5,-865.5"/>
<text text-anchor="start" x="451.5" y="-879.8" font-family="Times,serif" font-size="14.00">entry:</text>
</g>
<!-- Node0x30e5d0c0 -->
<g id="node2" class="node"><title>Node0x30e5d0c0</title>
<polygon fill="none" stroke="black" points="146,-429.5 146,-827.5 800,-827.5 800,-429.5 146,-429.5"/>
<text text-anchor="start" x="154" y="-812.3" font-family="Times,serif" font-size="14.00">0x106327c0:</text>
<text text-anchor="start" x="154" y="-797.3" font-family="Times,serif" font-size="14.00"> v1 = *(IntToPtrCastExpr&lt;ptr&gt;((g30 + 8)))</text>
<text text-anchor="start" x="154" y="-782.3" font-family="Times,serif" font-size="14.00"> g37 = v1</text>
<text text-anchor="start" x="154" y="-767.3" font-family="Times,serif" font-size="14.00"> g9 = ((v1 &amp; 36) == 0)</text>
<text text-anchor="start" x="154" y="-752.3" font-family="Times,serif" font-size="14.00"> IntToPtrCastExpr&lt;ptr&gt;(ExtCastExpr&lt;int32&gt;(((v1 &amp; 36) == 0)))()</text>
<text text-anchor="start" x="154" y="-737.3" font-family="Times,serif" font-size="14.00"> v2 = *(IntToPtrCastExpr&lt;ptr&gt;((g29 + 32)))</text>
<text text-anchor="start" x="154" y="-722.3" font-family="Times,serif" font-size="14.00"> g6 = True</text>
<text text-anchor="start" x="154" y="-707.3" font-family="Times,serif" font-size="14.00"> g9 = (v2 == 0)</text>
<text text-anchor="start" x="154" y="-692.3" font-family="Times,serif" font-size="14.00"> v3</text>
<text text-anchor="start" x="154" y="-677.3" font-family="Times,serif" font-size="14.00"> v4 = &amp;(v3)</text>
<text text-anchor="start" x="154" y="-662.3" font-family="Times,serif" font-size="14.00"> g38 = *(IntToPtrCastExpr&lt;ptr&gt;((v4 + 4)))</text>
<text text-anchor="start" x="154" y="-647.3" font-family="Times,serif" font-size="14.00"> g32 = *(IntToPtrCastExpr&lt;ptr&gt;((v4 + 8)))</text>
<text text-anchor="start" x="154" y="-632.3" font-family="Times,serif" font-size="14.00"> g34 = *(IntToPtrCastExpr&lt;ptr&gt;((v4 + 12)))</text>
<text text-anchor="start" x="154" y="-617.3" font-family="Times,serif" font-size="14.00"> IntToPtrCastExpr&lt;ptr&gt;(ExtCastExpr&lt;int32&gt;((v2 == 0)))()</text>
<text text-anchor="start" x="154" y="-602.3" font-family="Times,serif" font-size="14.00"> v5 = g38</text>
<text text-anchor="start" x="154" y="-587.3" font-family="Times,serif" font-size="14.00"> g29 = ((v5 + 4) + (256 * ExtCastExpr&lt;int32&gt;((*(IntToPtrCastExpr&lt;ptr&gt;(v5)) % 16))))</text>
<text text-anchor="start" x="154" y="-572.3" font-family="Times,serif" font-size="14.00"> memcpy(&amp;(v3), IntToPtrCastExpr&lt;ptr&gt;(g30), PtrToIntCastExpr&lt;int32&gt;(&quot;[P6\&quot;K^H$&quot;))</text>
<text text-anchor="start" x="154" y="-557.3" font-family="Times,serif" font-size="14.00"> v6 = g38</text>
<text text-anchor="start" x="154" y="-542.3" font-family="Times,serif" font-size="14.00"> v7 = *(IntToPtrCastExpr&lt;ptr&gt;((v6 + 1)))</text>
<text text-anchor="start" x="154" y="-527.3" font-family="Times,serif" font-size="14.00"> g36 = v7</text>
<text text-anchor="start" x="154" y="-512.3" font-family="Times,serif" font-size="14.00"> v8 = IntToPtrCastExpr&lt;ptr&gt;(v6)</text>
<text text-anchor="start" x="154" y="-497.3" font-family="Times,serif" font-size="14.00"> g6 = (v7 &gt; 15)</text>
<text text-anchor="start" x="154" y="-482.3" font-family="Times,serif" font-size="14.00"> g9 = (v7 == 16)</text>
<text text-anchor="start" x="154" y="-467.3" font-family="Times,serif" font-size="14.00"> v9 = (ExtCastExpr&lt;int32&gt;(*(v8)) + 1)</text>
<text text-anchor="start" x="154" y="-452.3" font-family="Times,serif" font-size="14.00"> g37 = v9</text>
<text text-anchor="start" x="154" y="-437.3" font-family="Times,serif" font-size="14.00"> *(v8) = TruncCastExpr&lt;int8&gt;(v9)</text>
</g>
<!-- Node0x17443df0&#45;&gt;Node0x30e5d0c0 -->
<g id="edge1" class="edge"><title>Node0x17443df0&#45;&gt;Node0x30e5d0c0</title>
<path fill="none" stroke="black" d="M473,-865.11C473,-857.802 473,-848.511 473,-837.864"/>
<polygon fill="black" stroke="black" points="476.5,-837.723 473,-827.723 469.5,-837.723 476.5,-837.723"/>
</g>
<!-- Node0x12200960 -->
<g id="node3" class="node"><title>Node0x12200960</title>
<polygon fill="none" stroke="black" points="416.5,-353.5 416.5,-391.5 529.5,-391.5 529.5,-353.5 416.5,-353.5"/>
<text text-anchor="start" x="424.5" y="-376.3" font-family="Times,serif" font-size="14.00">0x6d0d900:</text>
<text text-anchor="start" x="424.5" y="-361.3" font-family="Times,serif" font-size="14.00"> if (v7 != 16):</text>
</g>
<!-- Node0x30e5d0c0&#45;&gt;Node0x12200960 -->
<g id="edge2" class="edge"><title>Node0x30e5d0c0&#45;&gt;Node0x12200960</title>
<path fill="none" stroke="black" d="M473,-429.241C473,-418.954 473,-409.589 473,-401.595"/>
<polygon fill="black" stroke="black" points="476.5,-401.586 473,-391.586 469.5,-401.586 476.5,-401.586"/>
</g>
<!-- Node0x12200f80 -->
<g id="node4" class="node"><title>Node0x12200f80</title>
<polygon fill="none" stroke="black" points="0,-233.5 0,-301.5 510,-301.5 510,-233.5 0,-233.5"/>
<text text-anchor="start" x="8" y="-286.3" font-family="Times,serif" font-size="14.00">0x1147d9e0:</text>
<text text-anchor="start" x="8" y="-271.3" font-family="Times,serif" font-size="14.00"> v10 = (g36 + 1)</text>
<text text-anchor="start" x="8" y="-256.3" font-family="Times,serif" font-size="14.00"> g37 = v10</text>
<text text-anchor="start" x="8" y="-241.3" font-family="Times,serif" font-size="14.00"> *(IntToPtrCastExpr&lt;ptr&gt;((g38 + 1))) = TruncCastExpr&lt;int8&gt;(v10)</text>
</g>
<!-- Node0x12200960&#45;&gt;Node0x12200f80 -->
<g id="edge3" class="edge"><title>Node0x12200960&#45;&gt;Node0x12200f80</title>
<path fill="none" stroke="black" d="M434.778,-353.441C406.978,-340.306 368.357,-322.059 334.034,-305.842"/>
<polygon fill="black" stroke="black" points="335.483,-302.656 324.946,-301.548 332.493,-308.985 335.483,-302.656"/>
<text text-anchor="middle" x="421.5" y="-323.8" font-family="Times,serif" font-size="14.00">v7 != 16</text>
</g>
<!-- Node0x12200c00 -->
<g id="node5" class="node"><title>Node0x12200c00</title>
<polygon fill="none" stroke="black" points="220.5,-97.5 220.5,-195.5 713.5,-195.5 713.5,-97.5 220.5,-97.5"/>
<text text-anchor="start" x="228.5" y="-180.3" font-family="Times,serif" font-size="14.00">0x14669cf0:</text>
<text text-anchor="start" x="228.5" y="-165.3" font-family="Times,serif" font-size="14.00"> v11 = g34</text>
<text text-anchor="start" x="228.5" y="-150.3" font-family="Times,serif" font-size="14.00"> g38 = *(IntToPtrCastExpr&lt;ptr&gt;((v11 + 4)))</text>
<text text-anchor="start" x="228.5" y="-135.3" font-family="Times,serif" font-size="14.00"> g32 = *(IntToPtrCastExpr&lt;ptr&gt;((v11 + 8)))</text>
<text text-anchor="start" x="228.5" y="-120.3" font-family="Times,serif" font-size="14.00"> g34 = *(IntToPtrCastExpr&lt;ptr&gt;((v11 + 12)))</text>
<text text-anchor="start" x="228.5" y="-105.3" font-family="Times,serif" font-size="14.00"> IntToPtrCastExpr&lt;ptr&gt;(*(IntToPtrCastExpr&lt;ptr&gt;((v11 + 16))))()</text>
</g>
<!-- Node0x12200960&#45;&gt;Node0x12200c00 -->
<g id="edge4" class="edge"><title>Node0x12200960&#45;&gt;Node0x12200c00</title>
<path fill="none" stroke="black" d="M489.41,-353.287C500.14,-340.094 513.204,-321.259 519,-302 527.838,-272.634 527.275,-262.529 519,-233 516.293,-223.339 512.161,-213.686 507.385,-204.528"/>
<polygon fill="black" stroke="black" points="510.324,-202.612 502.423,-195.554 504.199,-205.999 510.324,-202.612"/>
<text text-anchor="middle" x="559.5" y="-263.8" font-family="Times,serif" font-size="14.00">v7 == 16</text>
</g>
<!-- Node0x12200f80&#45;&gt;Node0x12200c00 -->
<g id="edge5" class="edge"><title>Node0x12200f80&#45;&gt;Node0x12200c00</title>
<path fill="none" stroke="black" d="M314.054,-233.352C332.197,-223.168 352.64,-211.693 372.534,-200.526"/>
<polygon fill="black" stroke="black" points="374.314,-203.541 381.321,-195.594 370.887,-197.436 374.314,-203.541"/>
</g>
<!-- Node0x30e5d810 -->
<g id="node6" class="node"><title>Node0x30e5d810</title>
<polygon fill="none" stroke="black" points="440,-23.5 440,-59.5 494,-59.5 494,-23.5 440,-23.5"/>
<text text-anchor="start" x="448" y="-37.8" font-family="Times,serif" font-size="14.00">exit:</text>
</g>
<!-- Node0x12200c00&#45;&gt;Node0x30e5d810 -->
<g id="edge6" class="edge"><title>Node0x12200c00&#45;&gt;Node0x30e5d810</title>
<path fill="none" stroke="black" d="M467,-97.3173C467,-87.893 467,-78.32 467,-69.8676"/>
<polygon fill="black" stroke="black" points="470.5,-69.856 467,-59.8561 463.5,-69.8561 470.5,-69.856"/>
</g>
</g>
</svg>
