<?xml version="1.0" encoding="UTF-8" standalone="no"?>
<!DOCTYPE svg PUBLIC "-//W3C//DTD SVG 1.1//EN"
 "http://www.w3.org/Graphics/SVG/1.1/DTD/svg11.dtd">
<!-- Generated by graphviz version 2.38.0 (20140413.2041)
 -->
<!-- Title: Control&#45;flow graph for function &#39;function_8a4c()&#39;. Pages: 1 -->
<svg width="1549pt" height="3357pt"
 viewBox="0.00 0.00 1548.50 3357.00" xmlns="http://www.w3.org/2000/svg" xmlns:xlink="http://www.w3.org/1999/xlink">
<g id="graph0" class="graph" transform="scale(1 1) rotate(0) translate(4 3353)">
<title>Control&#45;flow graph for function &#39;function_8a4c()&#39;.</title>
<polygon fill="white" stroke="none" points="-4,4 -4,-3353 1544.5,-3353 1544.5,4 -4,4"/>
<text text-anchor="middle" x="770.25" y="-7.8" font-family="Times,serif" font-size="14.00">Control&#45;flow graph for function &#39;function_8a4c()&#39;.</text>
<!-- Node0x38452760 -->
<g id="node1" class="node"><title>Node0x38452760</title>
<polygon fill="none" stroke="black" points="1192,-3312.5 1192,-3348.5 1251,-3348.5 1251,-3312.5 1192,-3312.5"/>
<text text-anchor="start" x="1200" y="-3326.8" font-family="Times,serif" font-size="14.00">entry:</text>
</g>
<!-- Node0x384537d0 -->
<g id="node2" class="node"><title>Node0x384537d0</title>
<polygon fill="none" stroke="black" points="966.5,-2981.5 966.5,-3274.5 1476.5,-3274.5 1476.5,-2981.5 966.5,-2981.5"/>
<text text-anchor="start" x="974.5" y="-3259.3" font-family="Times,serif" font-size="14.00">0x12813e30:</text>
<text text-anchor="start" x="974.5" y="-3244.3" font-family="Times,serif" font-size="14.00"> v1 = g38</text>
<text text-anchor="start" x="974.5" y="-3229.3" font-family="Times,serif" font-size="14.00"> v2 = g39</text>
<text text-anchor="start" x="974.5" y="-3214.3" font-family="Times,serif" font-size="14.00"> v3 = g40</text>
<text text-anchor="start" x="974.5" y="-3199.3" font-family="Times,serif" font-size="14.00"> v4 = g41</text>
<text text-anchor="start" x="974.5" y="-3184.3" font-family="Times,serif" font-size="14.00"> v5 = g42</text>
<text text-anchor="start" x="974.5" y="-3169.3" font-family="Times,serif" font-size="14.00"> v6 = g43</text>
<text text-anchor="start" x="974.5" y="-3154.3" font-family="Times,serif" font-size="14.00"> v7 = g31</text>
<text text-anchor="start" x="974.5" y="-3139.3" font-family="Times,serif" font-size="14.00"> v8 = g32</text>
<text text-anchor="start" x="974.5" y="-3124.3" font-family="Times,serif" font-size="14.00"> v9 = g35</text>
<text text-anchor="start" x="974.5" y="-3109.3" font-family="Times,serif" font-size="14.00"> v10 = g29</text>
<text text-anchor="start" x="974.5" y="-3094.3" font-family="Times,serif" font-size="14.00"> v11 = ExtCastExpr&lt;int32&gt;(*(IntToPtrCastExpr&lt;ptr&gt;((v10 + 28))))</text>
<text text-anchor="start" x="974.5" y="-3079.3" font-family="Times,serif" font-size="14.00"> g41 = v11</text>
<text text-anchor="start" x="974.5" y="-3064.3" font-family="Times,serif" font-size="14.00"> v12 = *(IntToPtrCastExpr&lt;ptr&gt;((v10 + 4)))</text>
<text text-anchor="start" x="974.5" y="-3049.3" font-family="Times,serif" font-size="14.00"> v13 = ExtCastExpr&lt;int32&gt;(*(IntToPtrCastExpr&lt;ptr&gt;((v10 + 30))))</text>
<text text-anchor="start" x="974.5" y="-3034.3" font-family="Times,serif" font-size="14.00"> g31 = 165012</text>
<text text-anchor="start" x="974.5" y="-3019.3" font-family="Times,serif" font-size="14.00"> g42 = v12</text>
<text text-anchor="start" x="974.5" y="-3004.3" font-family="Times,serif" font-size="14.00"> g39 = v10</text>
<text text-anchor="start" x="974.5" y="-2989.3" font-family="Times,serif" font-size="14.00"> v14 = v11</text>
</g>
<!-- Node0x38452760&#45;&gt;Node0x384537d0 -->
<g id="edge1" class="edge"><title>Node0x38452760&#45;&gt;Node0x384537d0</title>
<path fill="none" stroke="black" d="M1221.5,-3312.41C1221.5,-3305.01 1221.5,-3295.6 1221.5,-3284.97"/>
<polygon fill="black" stroke="black" points="1225,-3284.89 1221.5,-3274.89 1218,-3284.89 1225,-3284.89"/>
</g>
<!-- Node0x3565ecd0 -->
<g id="node3" class="node"><title>Node0x3565ecd0</title>
<polygon fill="none" stroke="black" points="1163.5,-2905.5 1163.5,-2943.5 1279.5,-2943.5 1279.5,-2905.5 1163.5,-2905.5"/>
<text text-anchor="start" x="1171.5" y="-2928.3" font-family="Times,serif" font-size="14.00">0x6c33410:</text>
<text text-anchor="start" x="1171.5" y="-2913.3" font-family="Times,serif" font-size="14.00"> if (v11 &gt; 99):</text>
</g>
<!-- Node0x384537d0&#45;&gt;Node0x3565ecd0 -->
<g id="edge2" class="edge"><title>Node0x384537d0&#45;&gt;Node0x3565ecd0</title>
<path fill="none" stroke="black" d="M1221.5,-2981.36C1221.5,-2971.25 1221.5,-2961.89 1221.5,-2953.85"/>
<polygon fill="black" stroke="black" points="1225,-2953.73 1221.5,-2943.73 1218,-2953.73 1225,-2953.73"/>
</g>
<!-- Node0x3844f8f0 -->
<g id="node4" class="node"><title>Node0x3844f8f0</title>
<polygon fill="none" stroke="black" points="1129,-2800.5 1129,-2853.5 1226,-2853.5 1226,-2800.5 1129,-2800.5"/>
<text text-anchor="start" x="1137" y="-2838.3" font-family="Times,serif" font-size="14.00">0x6c32f70:</text>
<text text-anchor="start" x="1137" y="-2823.3" font-family="Times,serif" font-size="14.00"> g41 = 100</text>
<text text-anchor="start" x="1137" y="-2808.3" font-family="Times,serif" font-size="14.00"> v14 = 100</text>
</g>
<!-- Node0x3565ecd0&#45;&gt;Node0x3844f8f0 -->
<g id="edge3" class="edge"><title>Node0x3565ecd0&#45;&gt;Node0x3844f8f0</title>
<path fill="none" stroke="black" d="M1196.54,-2905.32C1191.01,-2900.05 1185.82,-2893.84 1182.5,-2887 1179.07,-2879.93 1177.24,-2871.81 1176.37,-2863.91"/>
<polygon fill="black" stroke="black" points="1179.85,-2863.51 1175.71,-2853.75 1172.86,-2863.96 1179.85,-2863.51"/>
<text text-anchor="middle" x="1215.5" y="-2875.8" font-family="Times,serif" font-size="14.00">v11 &gt; 99</text>
</g>
<!-- Node0x400b2f00 -->
<g id="node5" class="node"><title>Node0x400b2f00</title>
<polygon fill="none" stroke="black" points="1160,-2679.5 1160,-2762.5 1309,-2762.5 1309,-2679.5 1160,-2679.5"/>
<text text-anchor="start" x="1168" y="-2747.3" font-family="Times,serif" font-size="14.00">0x6c33740:</text>
<text text-anchor="start" x="1168" y="-2732.3" font-family="Times,serif" font-size="14.00"> g40 = (256 * v13)</text>
<text text-anchor="start" x="1168" y="-2717.3" font-family="Times,serif" font-size="14.00"> v15 = 0</text>
<text text-anchor="start" x="1168" y="-2702.3" font-family="Times,serif" font-size="14.00"> v16 = v12</text>
<text text-anchor="start" x="1168" y="-2687.3" font-family="Times,serif" font-size="14.00"> v17 = 0</text>
</g>
<!-- Node0x3565ecd0&#45;&gt;Node0x400b2f00 -->
<g id="edge4" class="edge"><title>Node0x3565ecd0&#45;&gt;Node0x400b2f00</title>
<path fill="none" stroke="black" d="M1238.32,-2905.48C1242.46,-2899.96 1246.33,-2893.59 1248.5,-2887 1260.69,-2850.01 1256.06,-2805.96 1248.99,-2772.68"/>
<polygon fill="black" stroke="black" points="1252.36,-2771.7 1246.74,-2762.72 1245.53,-2773.24 1252.36,-2771.7"/>
<text text-anchor="middle" x="1295.5" y="-2823.3" font-family="Times,serif" font-size="14.00">v11 &lt;= 99</text>
</g>
<!-- Node0x3844f8f0&#45;&gt;Node0x400b2f00 -->
<g id="edge5" class="edge"><title>Node0x3844f8f0&#45;&gt;Node0x400b2f00</title>
<path fill="none" stroke="black" d="M1191.59,-2800.29C1196.34,-2791.63 1201.8,-2781.66 1207.21,-2771.79"/>
<polygon fill="black" stroke="black" points="1210.41,-2773.24 1212.14,-2762.79 1204.27,-2769.88 1210.41,-2773.24"/>
</g>
<!-- Node0x155d91a0 -->
<g id="node6" class="node"><title>Node0x155d91a0</title>
<polygon fill="none" stroke="black" points="1184,-2603.5 1184,-2641.5 1285,-2641.5 1285,-2603.5 1184,-2603.5"/>
<text text-anchor="start" x="1192" y="-2626.3" font-family="Times,serif" font-size="14.00">0x6c5a1f0:</text>
<text text-anchor="start" x="1192" y="-2611.3" font-family="Times,serif" font-size="14.00"> while True:</text>
</g>
<!-- Node0x400b2f00&#45;&gt;Node0x155d91a0 -->
<g id="edge6" class="edge"><title>Node0x400b2f00&#45;&gt;Node0x155d91a0</title>
<path fill="none" stroke="black" d="M1234.5,-2679.35C1234.5,-2670.08 1234.5,-2660.43 1234.5,-2651.8"/>
<polygon fill="black" stroke="black" points="1238,-2651.54 1234.5,-2641.54 1231,-2651.54 1238,-2651.54"/>
</g>
<!-- Node0x133c7320 -->
<g id="node7" class="node"><title>Node0x133c7320</title>
<polygon fill="none" stroke="black" points="1122,-2513.5 1122,-2551.5 1231,-2551.5 1231,-2513.5 1122,-2513.5"/>
<text text-anchor="start" x="1130" y="-2536.3" font-family="Times,serif" font-size="14.00">0x3cd913e0:</text>
<text text-anchor="start" x="1130" y="-2521.3" font-family="Times,serif" font-size="14.00"> v18 = v15</text>
</g>
<!-- Node0x155d91a0&#45;&gt;Node0x133c7320 -->
<g id="edge7" class="edge"><title>Node0x155d91a0&#45;&gt;Node0x133c7320</title>
<path fill="none" stroke="black" d="M1222.48,-2603.27C1214.32,-2590.88 1203.38,-2574.28 1194.22,-2560.38"/>
<polygon fill="black" stroke="black" points="1196.93,-2558.13 1188.5,-2551.71 1191.08,-2561.99 1196.93,-2558.13"/>
<text text-anchor="middle" x="1226.5" y="-2573.8" font-family="Times,serif" font-size="14.00">True</text>
</g>
<!-- Node0x38451350 -->
<g id="node8" class="node"><title>Node0x38451350</title>
<polygon fill="none" stroke="black" points="1126,-2437.5 1126,-2475.5 1227,-2475.5 1227,-2437.5 1126,-2437.5"/>
<text text-anchor="start" x="1134" y="-2460.3" font-family="Times,serif" font-size="14.00">0x6c59f70:</text>
<text text-anchor="start" x="1134" y="-2445.3" font-family="Times,serif" font-size="14.00"> while True:</text>
</g>
<!-- Node0x133c7320&#45;&gt;Node0x38451350 -->
<g id="edge8" class="edge"><title>Node0x133c7320&#45;&gt;Node0x38451350</title>
<path fill="none" stroke="black" d="M1176.5,-2513.21C1176.5,-2504.96 1176.5,-2495.04 1176.5,-2485.86"/>
<polygon fill="black" stroke="black" points="1180,-2485.58 1176.5,-2475.58 1173,-2485.58 1180,-2485.58"/>
</g>
<!-- Node0x21fcaf30 -->
<g id="node9" class="node"><title>Node0x21fcaf30</title>
<polygon fill="none" stroke="black" points="818.5,-2257.5 818.5,-2385.5 1164.5,-2385.5 1164.5,-2257.5 818.5,-2257.5"/>
<text text-anchor="start" x="826.5" y="-2370.3" font-family="Times,serif" font-size="14.00">0x1aa61d10:</text>
<text text-anchor="start" x="826.5" y="-2355.3" font-family="Times,serif" font-size="14.00"> v19 = *(IntToPtrCastExpr&lt;ptr&gt;((v10 + 12)))</text>
<text text-anchor="start" x="826.5" y="-2340.3" font-family="Times,serif" font-size="14.00"> g37 = v19</text>
<text text-anchor="start" x="826.5" y="-2325.3" font-family="Times,serif" font-size="14.00"> v20 = (v18 + v13)</text>
<text text-anchor="start" x="826.5" y="-2310.3" font-family="Times,serif" font-size="14.00"> g36 = v20</text>
<text text-anchor="start" x="826.5" y="-2295.3" font-family="Times,serif" font-size="14.00"> g30 = v17</text>
<text text-anchor="start" x="826.5" y="-2280.3" font-family="Times,serif" font-size="14.00"> v21 = (v18 + 1)</text>
<text text-anchor="start" x="826.5" y="-2265.3" font-family="Times,serif" font-size="14.00"> g43 = v21</text>
</g>
<!-- Node0x38451350&#45;&gt;Node0x21fcaf30 -->
<g id="edge9" class="edge"><title>Node0x38451350&#45;&gt;Node0x21fcaf30</title>
<path fill="none" stroke="black" d="M1151.16,-2437.29C1134.35,-2425.19 1111.1,-2408.48 1087.54,-2391.55"/>
<polygon fill="black" stroke="black" points="1089.37,-2388.55 1079.21,-2385.56 1085.29,-2394.24 1089.37,-2388.55"/>
<text text-anchor="middle" x="1139.5" y="-2407.8" font-family="Times,serif" font-size="14.00">True</text>
</g>
<!-- Node0x21fcb450 -->
<g id="node10" class="node"><title>Node0x21fcb450</title>
<polygon fill="none" stroke="black" points="804.5,-2181.5 804.5,-2219.5 940.5,-2219.5 940.5,-2181.5 804.5,-2181.5"/>
<text text-anchor="start" x="812.5" y="-2204.3" font-family="Times,serif" font-size="14.00">0x6c384a0:</text>
<text text-anchor="start" x="812.5" y="-2189.3" font-family="Times,serif" font-size="14.00"> if (v20 &gt;= v19):</text>
</g>
<!-- Node0x21fcaf30&#45;&gt;Node0x21fcb450 -->
<g id="edge10" class="edge"><title>Node0x21fcaf30&#45;&gt;Node0x21fcb450</title>
<path fill="none" stroke="black" d="M928.167,-2257.17C917.413,-2246.41 906.826,-2235.83 897.821,-2226.82"/>
<polygon fill="black" stroke="black" points="900.204,-2224.25 890.659,-2219.66 895.255,-2229.2 900.204,-2224.25"/>
</g>
<!-- Node0x21fcbfc0 -->
<g id="node11" class="node"><title>Node0x21fcbfc0</title>
<polygon fill="none" stroke="black" points="130,-2001.5 130,-2129.5 657,-2129.5 657,-2001.5 130,-2001.5"/>
<text text-anchor="start" x="138" y="-2114.3" font-family="Times,serif" font-size="14.00">0x6c38720:</text>
<text text-anchor="start" x="138" y="-2099.3" font-family="Times,serif" font-size="14.00"> g6 = True</text>
<text text-anchor="start" x="138" y="-2084.3" font-family="Times,serif" font-size="14.00"> g8 = False</text>
<text text-anchor="start" x="138" y="-2069.3" font-family="Times,serif" font-size="14.00"> g7 = (v17 &lt; 0)</text>
<text text-anchor="start" x="138" y="-2054.3" font-family="Times,serif" font-size="14.00"> g9 = (v17 == 0)</text>
<text text-anchor="start" x="138" y="-2039.3" font-family="Times,serif" font-size="14.00"> *(IntToPtrCastExpr&lt;ptr&gt;((v10 + 32))) = TruncCastExpr&lt;int16&gt;(v20)</text>
<text text-anchor="start" x="138" y="-2024.3" font-family="Times,serif" font-size="14.00"> v22</text>
<text text-anchor="start" x="138" y="-2009.3" font-family="Times,serif" font-size="14.00"> v23</text>
</g>
<!-- Node0x21fcb450&#45;&gt;Node0x21fcbfc0 -->
<g id="edge11" class="edge"><title>Node0x21fcb450&#45;&gt;Node0x21fcbfc0</title>
<path fill="none" stroke="black" d="M807.401,-2181.42C761.052,-2168.56 695.669,-2150.4 630.529,-2132.31"/>
<polygon fill="black" stroke="black" points="631.074,-2128.83 620.502,-2129.53 629.201,-2135.58 631.074,-2128.83"/>
<text text-anchor="middle" x="774.5" y="-2151.8" font-family="Times,serif" font-size="14.00">v20 &gt;= v19</text>
</g>
<!-- Node0x21fcb5f0 -->
<g id="node12" class="node"><title>Node0x21fcb5f0</title>
<polygon fill="none" stroke="black" points="675,-2024 675,-2107 1070,-2107 1070,-2024 675,-2024"/>
<text text-anchor="start" x="683" y="-2091.8" font-family="Times,serif" font-size="14.00">0x1b2be360:</text>
<text text-anchor="start" x="683" y="-2076.8" font-family="Times,serif" font-size="14.00"> v30 = g40</text>
<text text-anchor="start" x="683" y="-2061.8" font-family="Times,serif" font-size="14.00"> v31 = (v30 + *(IntToPtrCastExpr&lt;ptr&gt;((v10 + 8))))</text>
<text text-anchor="start" x="683" y="-2046.8" font-family="Times,serif" font-size="14.00"> g38 = v31</text>
<text text-anchor="start" x="683" y="-2031.8" font-family="Times,serif" font-size="14.00"> g40 = (v30 + 256)</text>
</g>
<!-- Node0x21fcb450&#45;&gt;Node0x21fcb5f0 -->
<g id="edge12" class="edge"><title>Node0x21fcb450&#45;&gt;Node0x21fcb5f0</title>
<path fill="none" stroke="black" d="M872.5,-2181.29C872.5,-2164.81 872.5,-2139.76 872.5,-2117.27"/>
<polygon fill="black" stroke="black" points="876,-2117.15 872.5,-2107.15 869,-2117.15 876,-2117.15"/>
<text text-anchor="middle" x="909.5" y="-2151.8" font-family="Times,serif" font-size="14.00">v20 &lt; v19</text>
</g>
<!-- Node0x21fcc420 -->
<g id="node13" class="node"><title>Node0x21fcc420</title>
<polygon fill="none" stroke="black" points="334,-1925.5 334,-1963.5 453,-1963.5 453,-1925.5 334,-1925.5"/>
<text text-anchor="start" x="342" y="-1948.3" font-family="Times,serif" font-size="14.00">0x5fce1b0:</text>
<text text-anchor="start" x="342" y="-1933.3" font-family="Times,serif" font-size="14.00"> if (v17 == 0):</text>
</g>
<!-- Node0x21fcbfc0&#45;&gt;Node0x21fcc420 -->
<g id="edge13" class="edge"><title>Node0x21fcbfc0&#45;&gt;Node0x21fcc420</title>
<path fill="none" stroke="black" d="M393.5,-2001.17C393.5,-1991.6 393.5,-1982.16 393.5,-1973.85"/>
<polygon fill="black" stroke="black" points="397,-1973.66 393.5,-1963.66 390,-1973.66 397,-1973.66"/>
</g>
<!-- Node0x21fcb880 -->
<g id="node14" class="node"><title>Node0x21fcb880</title>
<polygon fill="none" stroke="black" points="656.5,-1925.5 656.5,-1963.5 1052.5,-1963.5 1052.5,-1925.5 656.5,-1925.5"/>
<text text-anchor="start" x="664.5" y="-1948.3" font-family="Times,serif" font-size="14.00">0x6c38360:</text>
<text text-anchor="start" x="664.5" y="-1933.3" font-family="Times,serif" font-size="14.00"> if ((*(IntToPtrCastExpr&lt;ptr&gt;((v31 + 8))) &amp; 8) != 0):</text>
</g>
<!-- Node0x21fcb5f0&#45;&gt;Node0x21fcb880 -->
<g id="edge14" class="edge"><title>Node0x21fcb5f0&#45;&gt;Node0x21fcb880</title>
<path fill="none" stroke="black" d="M866.356,-2023.88C863.864,-2007.41 861.047,-1988.78 858.784,-1973.82"/>
<polygon fill="black" stroke="black" points="862.204,-1973.03 857.247,-1963.66 855.282,-1974.07 862.204,-1973.03"/>
</g>
<!-- Node0x21fce9e0 -->
<g id="node15" class="node"><title>Node0x21fce9e0</title>
<polygon fill="none" stroke="black" points="0,-1343.5 0,-1591.5 493,-1591.5 493,-1343.5 0,-1343.5"/>
<text text-anchor="start" x="8" y="-1576.3" font-family="Times,serif" font-size="14.00">0x5fcd100:</text>
<text text-anchor="start" x="8" y="-1561.3" font-family="Times,serif" font-size="14.00"> v23 = g39</text>
<text text-anchor="start" x="8" y="-1546.3" font-family="Times,serif" font-size="14.00"> g29 = v23</text>
<text text-anchor="start" x="8" y="-1531.3" font-family="Times,serif" font-size="14.00"> g35 = 35804</text>
<text text-anchor="start" x="8" y="-1516.3" font-family="Times,serif" font-size="14.00"> IntToPtrCastExpr&lt;ptr&gt;(*(IntToPtrCastExpr&lt;ptr&gt;((v23 + 16))))()</text>
<text text-anchor="start" x="8" y="-1501.3" font-family="Times,serif" font-size="14.00"> g38 = v1</text>
<text text-anchor="start" x="8" y="-1486.3" font-family="Times,serif" font-size="14.00"> g39 = v2</text>
<text text-anchor="start" x="8" y="-1471.3" font-family="Times,serif" font-size="14.00"> g40 = v3</text>
<text text-anchor="start" x="8" y="-1456.3" font-family="Times,serif" font-size="14.00"> g41 = v4</text>
<text text-anchor="start" x="8" y="-1441.3" font-family="Times,serif" font-size="14.00"> g42 = v5</text>
<text text-anchor="start" x="8" y="-1426.3" font-family="Times,serif" font-size="14.00"> g43 = v6</text>
<text text-anchor="start" x="8" y="-1411.3" font-family="Times,serif" font-size="14.00"> g31 = v7</text>
<text text-anchor="start" x="8" y="-1396.3" font-family="Times,serif" font-size="14.00"> g32 = v8</text>
<text text-anchor="start" x="8" y="-1381.3" font-family="Times,serif" font-size="14.00"> g34 = v22</text>
<text text-anchor="start" x="8" y="-1366.3" font-family="Times,serif" font-size="14.00"> IntToPtrCastExpr&lt;ptr&gt;(v9)()</text>
<text text-anchor="start" x="8" y="-1351.3" font-family="Times,serif" font-size="14.00"> IntToPtrCastExpr&lt;ptr&gt;(ExtCastExpr&lt;int32&gt;(g9))()</text>
</g>
<!-- Node0x21fcc420&#45;&gt;Node0x21fce9e0 -->
<g id="edge15" class="edge"><title>Node0x21fcc420&#45;&gt;Node0x21fce9e0</title>
<path fill="none" stroke="black" d="M333.843,-1925.9C308.348,-1915.16 280.949,-1898.64 265.5,-1874 215.219,-1793.82 212.462,-1686.17 221.205,-1601.94"/>
<polygon fill="black" stroke="black" points="224.707,-1602.12 222.326,-1591.79 217.75,-1601.35 224.707,-1602.12"/>
<text text-anchor="middle" x="332" y="-1895.8" font-family="Times,serif" font-size="14.00">v17 == 0</text>
</g>
<!-- Node0xd7feab0 -->
<g id="node16" class="node"><title>Node0xd7feab0</title>
<polygon fill="none" stroke="black" points="274.5,-1610.5 274.5,-1873.5 900.5,-1873.5 900.5,-1610.5 274.5,-1610.5"/>
<text text-anchor="start" x="282.5" y="-1858.3" font-family="Times,serif" font-size="14.00">0x8020a10:</text>
<text text-anchor="start" x="282.5" y="-1843.3" font-family="Times,serif" font-size="14.00"> v24 = g39</text>
<text text-anchor="start" x="282.5" y="-1828.3" font-family="Times,serif" font-size="14.00"> v25 = (v24 + 40)</text>
<text text-anchor="start" x="282.5" y="-1813.3" font-family="Times,serif" font-size="14.00"> g38 = v25</text>
<text text-anchor="start" x="282.5" y="-1798.3" font-family="Times,serif" font-size="14.00"> g30 = (g31 &#45; 1000)</text>
<text text-anchor="start" x="282.5" y="-1783.3" font-family="Times,serif" font-size="14.00"> g36 = v25</text>
<text text-anchor="start" x="282.5" y="-1768.3" font-family="Times,serif" font-size="14.00"> g29 = (v24 + 1072)</text>
<text text-anchor="start" x="282.5" y="-1753.3" font-family="Times,serif" font-size="14.00"> function_b150()</text>
<text text-anchor="start" x="282.5" y="-1738.3" font-family="Times,serif" font-size="14.00"> v26 = g39</text>
<text text-anchor="start" x="282.5" y="-1723.3" font-family="Times,serif" font-size="14.00"> g36 = *(IntToPtrCastExpr&lt;ptr&gt;(v26))</text>
<text text-anchor="start" x="282.5" y="-1708.3" font-family="Times,serif" font-size="14.00"> *(IntToPtrCastExpr&lt;ptr&gt;((v26 + 1076))) = g38</text>
<text text-anchor="start" x="282.5" y="-1693.3" font-family="Times,serif" font-size="14.00"> v27 = g36</text>
<text text-anchor="start" x="282.5" y="-1678.3" font-family="Times,serif" font-size="14.00"> g30 = (v27 + 3696)</text>
<text text-anchor="start" x="282.5" y="-1663.3" font-family="Times,serif" font-size="14.00"> *(IntToPtrCastExpr&lt;ptr&gt;((g39 + 1328))) = (v27 + 2367)</text>
<text text-anchor="start" x="282.5" y="-1648.3" font-family="Times,serif" font-size="14.00"> *(IntToPtrCastExpr&lt;ptr&gt;((g39 + 1332))) = g30</text>
<text text-anchor="start" x="282.5" y="-1633.3" font-family="Times,serif" font-size="14.00"> g37 = *(IntToPtrCastExpr&lt;ptr&gt;((g31 + 200)))</text>
<text text-anchor="start" x="282.5" y="-1618.3" font-family="Times,serif" font-size="14.00"> *(IntToPtrCastExpr&lt;ptr&gt;((g39 + 1336))) = *(IntToPtrCastExpr&lt;ptr&gt;((g36 + 186)))</text>
</g>
<!-- Node0x21fcc420&#45;&gt;Node0xd7feab0 -->
<g id="edge16" class="edge"><title>Node0x21fcc420&#45;&gt;Node0xd7feab0</title>
<path fill="none" stroke="black" d="M398.588,-1925.28C402.034,-1914.91 407.284,-1902.03 414.5,-1892 416.974,-1888.56 419.542,-1885.15 422.193,-1881.77"/>
<polygon fill="black" stroke="black" points="424.958,-1883.92 428.524,-1873.94 419.515,-1879.51 424.958,-1883.92"/>
<text text-anchor="middle" x="446" y="-1895.8" font-family="Times,serif" font-size="14.00">v17 != 0</text>
</g>
<!-- Node0x21fce8d0 -->
<g id="node17" class="node"><title>Node0x21fce8d0</title>
<polygon fill="none" stroke="black" points="942,-1723 942,-1761 1043,-1761 1043,-1723 942,-1723"/>
<text text-anchor="start" x="950" y="-1745.8" font-family="Times,serif" font-size="14.00">0x6c38140:</text>
<text text-anchor="start" x="950" y="-1730.8" font-family="Times,serif" font-size="14.00"> break</text>
</g>
<!-- Node0x21fcb880&#45;&gt;Node0x21fce8d0 -->
<g id="edge17" class="edge"><title>Node0x21fcb880&#45;&gt;Node0x21fce8d0</title>
<path fill="none" stroke="black" d="M656.347,-1940.49C554.497,-1935.3 457.235,-1922.54 486.5,-1892 519.049,-1858.04 868.776,-1897.55 909.5,-1874 948.618,-1851.38 972.119,-1802.11 983.667,-1770.86"/>
<polygon fill="black" stroke="black" points="986.977,-1772 987,-1761.4 980.375,-1769.67 986.977,-1772"/>
<text text-anchor="middle" x="659.5" y="-1895.8" font-family="Times,serif" font-size="14.00">(*(IntToPtrCastExpr&lt;ptr&gt;((v31 + 8))) &amp; 8) != 0</text>
</g>
<!-- Node0x21fcbec0 -->
<g id="node18" class="node"><title>Node0x21fcbec0</title>
<polygon fill="none" stroke="black" points="1107,-1723 1107,-1761 1208,-1761 1208,-1723 1107,-1723"/>
<text text-anchor="start" x="1115" y="-1745.8" font-family="Times,serif" font-size="14.00">0x6c37d80:</text>
<text text-anchor="start" x="1115" y="-1730.8" font-family="Times,serif" font-size="14.00"> v18 = v21</text>
</g>
<!-- Node0x21fcb880&#45;&gt;Node0x21fcbec0 -->
<g id="edge18" class="edge"><title>Node0x21fcb880&#45;&gt;Node0x21fcbec0</title>
<path fill="none" stroke="black" d="M849.317,-1925.04C847.445,-1914.06 847.46,-1900.64 855.5,-1892 885.292,-1859.98 1012.93,-1894.62 1051.5,-1874 1094.99,-1850.75 1127.16,-1801.32 1144.07,-1770.27"/>
<polygon fill="black" stroke="black" points="1147.25,-1771.75 1148.82,-1761.27 1141.06,-1768.48 1147.25,-1771.75"/>
<text text-anchor="middle" x="1031.5" y="-1895.8" font-family="Times,serif" font-size="14.00">(*(IntToPtrCastExpr&lt;ptr&gt;((v31 + 8))) &amp; 8) == 0</text>
</g>
<!-- Node0x21fcf220 -->
<g id="node19" class="node"><title>Node0x21fcf220</title>
<polygon fill="none" stroke="black" points="196.5,-202.5 196.5,-240.5 296.5,-240.5 296.5,-202.5 196.5,-202.5"/>
<text text-anchor="start" x="204.5" y="-225.3" font-family="Times,serif" font-size="14.00">0x6c55e70:</text>
<text text-anchor="start" x="204.5" y="-210.3" font-family="Times,serif" font-size="14.00"> if g9:</text>
</g>
<!-- Node0x21fce9e0&#45;&gt;Node0x21fcf220 -->
<g id="edge19" class="edge"><title>Node0x21fce9e0&#45;&gt;Node0x21fcf220</title>
<path fill="none" stroke="black" d="M246.5,-1343.24C246.5,-1257.27 246.5,-1139.89 246.5,-1036.5 246.5,-1036.5 246.5,-1036.5 246.5,-371.5 246.5,-329.569 246.5,-281.002 246.5,-251.012"/>
<polygon fill="black" stroke="black" points="250,-250.851 246.5,-240.851 243,-250.851 250,-250.851"/>
</g>
<!-- Node0x21fcd1d0 -->
<g id="node20" class="node"><title>Node0x21fcd1d0</title>
<polygon fill="none" stroke="black" points="430,-1174 430,-1212 745,-1212 745,-1174 430,-1174"/>
<text text-anchor="start" x="438" y="-1196.8" font-family="Times,serif" font-size="14.00">0x6c495c0:</text>
<text text-anchor="start" x="438" y="-1181.8" font-family="Times,serif" font-size="14.00"> if (*(IntToPtrCastExpr&lt;ptr&gt;(g37)) != 0):</text>
</g>
<!-- Node0xd7feab0&#45;&gt;Node0x21fcd1d0 -->
<g id="edge20" class="edge"><title>Node0xd7feab0&#45;&gt;Node0x21fcd1d0</title>
<path fill="none" stroke="black" d="M587.5,-1610.33C587.5,-1481.33 587.5,-1293.42 587.5,-1222.51"/>
<polygon fill="black" stroke="black" points="591,-1222.16 587.5,-1212.16 584,-1222.16 591,-1222.16"/>
</g>
<!-- Node0x21fc9f20 -->
<g id="node21" class="node"><title>Node0x21fc9f20</title>
<polygon fill="none" stroke="black" points="834.5,-1061.5 834.5,-1324.5 1540.5,-1324.5 1540.5,-1061.5 834.5,-1061.5"/>
<text text-anchor="start" x="842.5" y="-1309.3" font-family="Times,serif" font-size="14.00">0x6c563c0:</text>
<text text-anchor="start" x="842.5" y="-1294.3" font-family="Times,serif" font-size="14.00"> g6 = (v17 &gt;= v14)</text>
<text text-anchor="start" x="842.5" y="-1279.3" font-family="Times,serif" font-size="14.00"> g8 = ((((v17 &#45; v14) ^ v17) &amp; (v17 ^ v14)) &lt; 0)</text>
<text text-anchor="start" x="842.5" y="-1264.3" font-family="Times,serif" font-size="14.00"> g7 = False</text>
<text text-anchor="start" x="842.5" y="-1249.3" font-family="Times,serif" font-size="14.00"> g9 = False</text>
<text text-anchor="start" x="842.5" y="-1234.3" font-family="Times,serif" font-size="14.00"> memcpy(IntToPtrCastExpr&lt;ptr&gt;(v16), BitCastExpr&lt;ptr&gt;(&quot;\n8\n6hm://metadata/3/track/&quot;), 26)</text>
<text text-anchor="start" x="842.5" y="-1219.3" font-family="Times,serif" font-size="14.00"> g36 = (g42 + 26)</text>
<text text-anchor="start" x="842.5" y="-1204.3" font-family="Times,serif" font-size="14.00"> g29 = (g38 + 12)</text>
<text text-anchor="start" x="842.5" y="-1189.3" font-family="Times,serif" font-size="14.00"> g30 = 16</text>
<text text-anchor="start" x="842.5" y="-1174.3" font-family="Times,serif" font-size="14.00"> function_1319c()</text>
<text text-anchor="start" x="842.5" y="-1159.3" font-family="Times,serif" font-size="14.00"> v32 = (g42 + 58)</text>
<text text-anchor="start" x="842.5" y="-1144.3" font-family="Times,serif" font-size="14.00"> g42 = v32</text>
<text text-anchor="start" x="842.5" y="-1129.3" font-family="Times,serif" font-size="14.00"> v14 = g41</text>
<text text-anchor="start" x="842.5" y="-1114.3" font-family="Times,serif" font-size="14.00"> v15 = g43</text>
<text text-anchor="start" x="842.5" y="-1099.3" font-family="Times,serif" font-size="14.00"> v10 = g39</text>
<text text-anchor="start" x="842.5" y="-1084.3" font-family="Times,serif" font-size="14.00"> v16 = v32</text>
<text text-anchor="start" x="842.5" y="-1069.3" font-family="Times,serif" font-size="14.00"> v17 = (v17 + 1)</text>
</g>
<!-- Node0x21fce8d0&#45;&gt;Node0x21fc9f20 -->
<g id="edge21" class="edge"><title>Node0x21fce8d0&#45;&gt;Node0x21fc9f20</title>
<path fill="none" stroke="black" d="M998.988,-1722.8C1020.24,-1663.2 1089.14,-1469.91 1137.47,-1334.35"/>
<polygon fill="black" stroke="black" points="1140.85,-1335.28 1140.91,-1324.69 1134.26,-1332.93 1140.85,-1335.28"/>
</g>
<!-- Node0x21fcbec0&#45;&gt;Node0x38451350 -->
<g id="edge22" class="edge"><title>Node0x21fcbec0&#45;&gt;Node0x38451350</title>
<path fill="none" stroke="black" d="M1167.5,-1761.17C1185.5,-1795.64 1221.5,-1873.34 1221.5,-1943.5 1221.5,-2322.5 1221.5,-2322.5 1221.5,-2322.5 1221.5,-2360.71 1204.63,-2401.99 1191.55,-2428.26"/>
<polygon fill="black" stroke="black" points="1188.4,-2426.73 1186.94,-2437.22 1194.62,-2429.93 1188.4,-2426.73"/>
</g>
<!-- Node0x21fcfa80 -->
<g id="node22" class="node"><title>Node0x21fcfa80</title>
<polygon fill="none" stroke="black" points="92.5,-97.5 92.5,-150.5 280.5,-150.5 280.5,-97.5 92.5,-97.5"/>
<text text-anchor="start" x="100.5" y="-135.3" font-family="Times,serif" font-size="14.00">0x6c55b60:</text>
<text text-anchor="start" x="100.5" y="-120.3" font-family="Times,serif" font-size="14.00"> g29 = (g29 &amp; (g42 / 2))</text>
<text text-anchor="start" x="100.5" y="-105.3" font-family="Times,serif" font-size="14.00"> return</text>
</g>
<!-- Node0x21fcf220&#45;&gt;Node0x21fcfa80 -->
<g id="edge23" class="edge"><title>Node0x21fcf220&#45;&gt;Node0x21fcfa80</title>
<path fill="none" stroke="black" d="M234.931,-202.087C227.317,-189.968 217.117,-173.732 208.041,-159.287"/>
<polygon fill="black" stroke="black" points="210.853,-157.182 202.569,-150.577 204.925,-160.906 210.853,-157.182"/>
<text text-anchor="middle" x="232" y="-172.8" font-family="Times,serif" font-size="14.00">g9</text>
</g>
<!-- Node0x21fcf360 -->
<g id="node23" class="node"><title>Node0x21fcf360</title>
<polygon fill="none" stroke="black" points="299,-105 299,-143 396,-143 396,-105 299,-105"/>
<text text-anchor="start" x="307" y="-127.8" font-family="Times,serif" font-size="14.00">0x6c55f70:</text>
<text text-anchor="start" x="307" y="-112.8" font-family="Times,serif" font-size="14.00"> return</text>
</g>
<!-- Node0x21fcf220&#45;&gt;Node0x21fcf360 -->
<g id="edge24" class="edge"><title>Node0x21fcf220&#45;&gt;Node0x21fcf360</title>
<path fill="none" stroke="black" d="M265.974,-202.087C281.583,-187.328 303.648,-166.464 320.888,-150.163"/>
<polygon fill="black" stroke="black" points="323.567,-152.447 328.428,-143.033 318.758,-147.36 323.567,-152.447"/>
<text text-anchor="middle" x="329" y="-172.8" font-family="Times,serif" font-size="14.00">not (g9)</text>
</g>
<!-- Node0x21fcf420 -->
<g id="node24" class="node"><title>Node0x21fcf420</title>
<polygon fill="none" stroke="black" points="331.5,-971.5 331.5,-1009.5 543.5,-1009.5 543.5,-971.5 331.5,-971.5"/>
<text text-anchor="start" x="339.5" y="-994.3" font-family="Times,serif" font-size="14.00">0x6c49290:</text>
<text text-anchor="start" x="339.5" y="-979.3" font-family="Times,serif" font-size="14.00"> imported_function_ord_0()</text>
</g>
<!-- Node0x21fcd1d0&#45;&gt;Node0x21fcf420 -->
<g id="edge25" class="edge"><title>Node0x21fcd1d0&#45;&gt;Node0x21fcf420</title>
<path fill="none" stroke="black" d="M532.39,-1173.97C476.894,-1152.52 394.372,-1110.82 357.5,-1043 351.276,-1031.55 356.485,-1022.27 366.672,-1014.9"/>
<polygon fill="black" stroke="black" points="368.6,-1017.83 375.326,-1009.64 364.963,-1011.85 368.6,-1017.83"/>
<text text-anchor="middle" x="490" y="-1031.8" font-family="Times,serif" font-size="14.00">*(IntToPtrCastExpr&lt;ptr&gt;(g37)) != 0</text>
</g>
<!-- Node0x21fcd570 -->
<g id="node25" class="node"><title>Node0x21fcd570</title>
<polygon fill="none" stroke="black" points="304.5,-745.5 304.5,-933.5 804.5,-933.5 804.5,-745.5 304.5,-745.5"/>
<text text-anchor="start" x="312.5" y="-918.3" font-family="Times,serif" font-size="14.00">0x5b57d50:</text>
<text text-anchor="start" x="312.5" y="-903.3" font-family="Times,serif" font-size="14.00"> g29 = *(IntToPtrCastExpr&lt;ptr&gt;(*(IntToPtrCastExpr&lt;ptr&gt;(g39))))</text>
<text text-anchor="start" x="312.5" y="-888.3" font-family="Times,serif" font-size="14.00"> g36 = (g31 &#45; 9940)</text>
<text text-anchor="start" x="312.5" y="-873.3" font-family="Times,serif" font-size="14.00"> g37 = v12</text>
<text text-anchor="start" x="312.5" y="-858.3" font-family="Times,serif" font-size="14.00"> g30 = 4</text>
<text text-anchor="start" x="312.5" y="-843.3" font-family="Times,serif" font-size="14.00"> function_3e94()</text>
<text text-anchor="start" x="312.5" y="-828.3" font-family="Times,serif" font-size="14.00"> v28 = g29</text>
<text text-anchor="start" x="312.5" y="-813.3" font-family="Times,serif" font-size="14.00"> g6 = True</text>
<text text-anchor="start" x="312.5" y="-798.3" font-family="Times,serif" font-size="14.00"> g8 = False</text>
<text text-anchor="start" x="312.5" y="-783.3" font-family="Times,serif" font-size="14.00"> g7 = (v28 &lt; 0)</text>
<text text-anchor="start" x="312.5" y="-768.3" font-family="Times,serif" font-size="14.00"> g9 = (v28 == 0)</text>
<text text-anchor="start" x="312.5" y="-753.3" font-family="Times,serif" font-size="14.00"> v29 = g39</text>
</g>
<!-- Node0x21fcd1d0&#45;&gt;Node0x21fcd570 -->
<g id="edge26" class="edge"><title>Node0x21fcd1d0&#45;&gt;Node0x21fcd570</title>
<path fill="none" stroke="black" d="M596.022,-1173.88C609.149,-1143.74 631.873,-1081.33 622.5,-1028 617.541,-999.781 608.684,-970.215 598.966,-943.122"/>
<polygon fill="black" stroke="black" points="602.222,-941.835 595.498,-933.648 595.649,-944.242 602.222,-941.835"/>
<text text-anchor="middle" x="755" y="-986.8" font-family="Times,serif" font-size="14.00">*(IntToPtrCastExpr&lt;ptr&gt;(g37)) == 0</text>
</g>
<!-- Node0x21fc9f20&#45;&gt;Node0x155d91a0 -->
<g id="edge27" class="edge"><title>Node0x21fc9f20&#45;&gt;Node0x155d91a0</title>
<path fill="none" stroke="black" d="M1214.46,-1324.61C1234.9,-1435.04 1259.5,-1597.68 1259.5,-1741 1259.5,-2533.5 1259.5,-2533.5 1259.5,-2533.5 1259.5,-2554.34 1252.93,-2576.94 1246.53,-2594.02"/>
<polygon fill="black" stroke="black" points="1243.25,-2592.8 1242.82,-2603.38 1249.76,-2595.37 1243.25,-2592.8"/>
</g>
<!-- Node0x31adbe40 -->
<g id="node26" class="node"><title>Node0x31adbe40</title>
<polygon fill="none" stroke="black" points="400.5,-23.5 400.5,-59.5 454.5,-59.5 454.5,-23.5 400.5,-23.5"/>
<text text-anchor="start" x="408.5" y="-37.8" font-family="Times,serif" font-size="14.00">exit:</text>
</g>
<!-- Node0x21fcfa80&#45;&gt;Node0x31adbe40 -->
<g id="edge28" class="edge"><title>Node0x21fcfa80&#45;&gt;Node0x31adbe40</title>
<path fill="none" stroke="black" d="M263.085,-97.4187C305.678,-83.1914 356.752,-66.1315 390.552,-54.8415"/>
<polygon fill="black" stroke="black" points="392.083,-58.0204 400.459,-51.5324 389.865,-51.3809 392.083,-58.0204"/>
</g>
<!-- Node0x21fcf360&#45;&gt;Node0x31adbe40 -->
<g id="edge29" class="edge"><title>Node0x21fcf360&#45;&gt;Node0x31adbe40</title>
<path fill="none" stroke="black" d="M365.653,-104.733C376.801,-93.516 391.214,-79.0127 403.322,-66.8294"/>
<polygon fill="black" stroke="black" points="405.946,-69.1538 410.513,-59.5935 400.981,-64.2194 405.946,-69.1538"/>
</g>
<!-- Node0x21fcf420&#45;&gt;Node0x21fcd570 -->
<g id="edge30" class="edge"><title>Node0x21fcf420&#45;&gt;Node0x21fcd570</title>
<path fill="none" stroke="black" d="M451.846,-971.23C458.242,-963.085 466.321,-952.796 475.126,-941.583"/>
<polygon fill="black" stroke="black" points="477.903,-943.713 481.327,-933.687 472.398,-939.39 477.903,-943.713"/>
</g>
<!-- Node0x21fcdb40 -->
<g id="node27" class="node"><title>Node0x21fcdb40</title>
<polygon fill="none" stroke="black" points="499,-654.5 499,-707.5 610,-707.5 610,-654.5 499,-654.5"/>
<text text-anchor="start" x="507" y="-692.3" font-family="Times,serif" font-size="14.00">0x6c4e8b0:</text>
<text text-anchor="start" x="507" y="-677.3" font-family="Times,serif" font-size="14.00"> if (v28 &gt; &#45;1):</text>
<text text-anchor="start" x="507" y="-662.3" font-family="Times,serif" font-size="14.00"> else:</text>
</g>
<!-- Node0x21fcd570&#45;&gt;Node0x21fcdb40 -->
<g id="edge31" class="edge"><title>Node0x21fcd570&#45;&gt;Node0x21fcdb40</title>
<path fill="none" stroke="black" d="M554.5,-745.203C554.5,-735.538 554.5,-726.191 554.5,-717.782"/>
<polygon fill="black" stroke="black" points="558,-717.68 554.5,-707.68 551,-717.68 558,-717.68"/>
</g>
<!-- Node0x38450af0 -->
<g id="node28" class="node"><title>Node0x38450af0</title>
<polygon fill="none" stroke="black" points="314.5,-534.5 314.5,-572.5 660.5,-572.5 660.5,-534.5 314.5,-534.5"/>
<text text-anchor="start" x="322.5" y="-557.3" font-family="Times,serif" font-size="14.00">0x6c4e4e0:</text>
<text text-anchor="start" x="322.5" y="-542.3" font-family="Times,serif" font-size="14.00"> *(IntToPtrCastExpr&lt;ptr&gt;((v29 + 36))) = v28</text>
</g>
<!-- Node0x21fcdb40&#45;&gt;Node0x38450af0 -->
<g id="edge32" class="edge"><title>Node0x21fcdb40&#45;&gt;Node0x38450af0</title>
<path fill="none" stroke="black" d="M540.78,-654.3C529.508,-633.186 513.581,-603.353 502.08,-581.81"/>
<polygon fill="black" stroke="black" points="505.092,-580.02 497.294,-572.846 498.917,-583.316 505.092,-580.02"/>
<text text-anchor="middle" x="562" y="-624.8" font-family="Times,serif" font-size="14.00">v28 &gt; &#45;1</text>
</g>
<!-- Node0x38450c40 -->
<g id="node29" class="node"><title>Node0x38450c40</title>
<polygon fill="none" stroke="black" points="679,-504.5 679,-602.5 1172,-602.5 1172,-504.5 679,-504.5"/>
<text text-anchor="start" x="687" y="-587.3" font-family="Times,serif" font-size="14.00">0x6c4ee50:</text>
<text text-anchor="start" x="687" y="-572.3" font-family="Times,serif" font-size="14.00"> *(IntToPtrCastExpr&lt;ptr&gt;((v29 + 24))) = v28</text>
<text text-anchor="start" x="687" y="-557.3" font-family="Times,serif" font-size="14.00"> v23 = g39</text>
<text text-anchor="start" x="687" y="-542.3" font-family="Times,serif" font-size="14.00"> g29 = v23</text>
<text text-anchor="start" x="687" y="-527.3" font-family="Times,serif" font-size="14.00"> g35 = 35804</text>
<text text-anchor="start" x="687" y="-512.3" font-family="Times,serif" font-size="14.00"> IntToPtrCastExpr&lt;ptr&gt;(*(IntToPtrCastExpr&lt;ptr&gt;((v23 + 16))))()</text>
</g>
<!-- Node0x21fcdb40&#45;&gt;Node0x38450c40 -->
<g id="edge33" class="edge"><title>Node0x21fcdb40&#45;&gt;Node0x38450c40</title>
<path fill="none" stroke="black" d="M610.042,-661.211C653.413,-646.54 715.831,-625.426 773.716,-605.845"/>
<polygon fill="black" stroke="black" points="774.986,-609.11 783.337,-602.59 772.743,-602.479 774.986,-609.11"/>
<text text-anchor="middle" x="766" y="-624.8" font-family="Times,serif" font-size="14.00">v28 &lt;= &#45;1</text>
</g>
<!-- Node0x21fcdde0 -->
<g id="node30" class="node"><title>Node0x21fcdde0</title>
<polygon fill="none" stroke="black" points="360.5,-278.5 360.5,-466.5 758.5,-466.5 758.5,-278.5 360.5,-278.5"/>
<text text-anchor="start" x="368.5" y="-451.3" font-family="Times,serif" font-size="14.00">0x6c4fdf0:</text>
<text text-anchor="start" x="368.5" y="-436.3" font-family="Times,serif" font-size="14.00"> g38 = v1</text>
<text text-anchor="start" x="368.5" y="-421.3" font-family="Times,serif" font-size="14.00"> g39 = v2</text>
<text text-anchor="start" x="368.5" y="-406.3" font-family="Times,serif" font-size="14.00"> g40 = v3</text>
<text text-anchor="start" x="368.5" y="-391.3" font-family="Times,serif" font-size="14.00"> g41 = v4</text>
<text text-anchor="start" x="368.5" y="-376.3" font-family="Times,serif" font-size="14.00"> g42 = v5</text>
<text text-anchor="start" x="368.5" y="-361.3" font-family="Times,serif" font-size="14.00"> g43 = v6</text>
<text text-anchor="start" x="368.5" y="-346.3" font-family="Times,serif" font-size="14.00"> g31 = v7</text>
<text text-anchor="start" x="368.5" y="-331.3" font-family="Times,serif" font-size="14.00"> g32 = v8</text>
<text text-anchor="start" x="368.5" y="-316.3" font-family="Times,serif" font-size="14.00"> g34 = v22</text>
<text text-anchor="start" x="368.5" y="-301.3" font-family="Times,serif" font-size="14.00"> IntToPtrCastExpr&lt;ptr&gt;(v9)()</text>
<text text-anchor="start" x="368.5" y="-286.3" font-family="Times,serif" font-size="14.00"> IntToPtrCastExpr&lt;ptr&gt;(ExtCastExpr&lt;int32&gt;(g9))()</text>
</g>
<!-- Node0x38450af0&#45;&gt;Node0x21fcdde0 -->
<g id="edge34" class="edge"><title>Node0x38450af0&#45;&gt;Node0x21fcdde0</title>
<path fill="none" stroke="black" d="M494.8,-534.351C500.582,-519.978 509.166,-498.637 518.205,-476.164"/>
<polygon fill="black" stroke="black" points="521.477,-477.409 521.961,-466.826 514.982,-474.797 521.477,-477.409"/>
</g>
<!-- Node0x38450c40&#45;&gt;Node0x21fcdde0 -->
<g id="edge35" class="edge"><title>Node0x38450c40&#45;&gt;Node0x21fcdde0</title>
<path fill="none" stroke="black" d="M826.937,-504.296C805.629,-493.874 782.364,-482.496 758.735,-470.94"/>
<polygon fill="black" stroke="black" points="760.185,-467.753 749.664,-466.504 757.11,-474.042 760.185,-467.753"/>
</g>
<!-- Node0x21fcb330 -->
<g id="node31" class="node"><title>Node0x21fcb330</title>
<polygon fill="none" stroke="black" points="509.5,-202.5 509.5,-240.5 609.5,-240.5 609.5,-202.5 509.5,-202.5"/>
<text text-anchor="start" x="517.5" y="-225.3" font-family="Times,serif" font-size="14.00">0x5e0d3c0:</text>
<text text-anchor="start" x="517.5" y="-210.3" font-family="Times,serif" font-size="14.00"> if g9:</text>
</g>
<!-- Node0x21fcdde0&#45;&gt;Node0x21fcb330 -->
<g id="edge36" class="edge"><title>Node0x21fcdde0&#45;&gt;Node0x21fcb330</title>
<path fill="none" stroke="black" d="M559.5,-278.406C559.5,-268.426 559.5,-258.921 559.5,-250.673"/>
<polygon fill="black" stroke="black" points="563,-250.619 559.5,-240.619 556,-250.619 563,-250.619"/>
</g>
<!-- Node0x21fcf8c0 -->
<g id="node32" class="node"><title>Node0x21fcf8c0</title>
<polygon fill="none" stroke="black" points="414.5,-97.5 414.5,-150.5 602.5,-150.5 602.5,-97.5 414.5,-97.5"/>
<text text-anchor="start" x="422.5" y="-135.3" font-family="Times,serif" font-size="14.00">0x5e0cf80:</text>
<text text-anchor="start" x="422.5" y="-120.3" font-family="Times,serif" font-size="14.00"> g29 = (g29 &amp; (g42 / 2))</text>
<text text-anchor="start" x="422.5" y="-105.3" font-family="Times,serif" font-size="14.00"> return</text>
</g>
<!-- Node0x21fcb330&#45;&gt;Node0x21fcf8c0 -->
<g id="edge37" class="edge"><title>Node0x21fcb330&#45;&gt;Node0x21fcf8c0</title>
<path fill="none" stroke="black" d="M549.667,-202.087C543.256,-190.082 534.688,-174.038 527.029,-159.696"/>
<polygon fill="black" stroke="black" points="529.957,-157.749 522.159,-150.577 523.782,-161.046 529.957,-157.749"/>
<text text-anchor="middle" x="549" y="-172.8" font-family="Times,serif" font-size="14.00">g9</text>
</g>
<!-- Node0x21fce810 -->
<g id="node33" class="node"><title>Node0x21fce810</title>
<polygon fill="none" stroke="black" points="620.5,-105 620.5,-143 720.5,-143 720.5,-105 620.5,-105"/>
<text text-anchor="start" x="628.5" y="-127.8" font-family="Times,serif" font-size="14.00">0x5e0d4e0:</text>
<text text-anchor="start" x="628.5" y="-112.8" font-family="Times,serif" font-size="14.00"> return</text>
</g>
<!-- Node0x21fcb330&#45;&gt;Node0x21fce810 -->
<g id="edge38" class="edge"><title>Node0x21fcb330&#45;&gt;Node0x21fce810</title>
<path fill="none" stroke="black" d="M580.64,-202.312C597.922,-187.443 622.532,-166.269 641.63,-149.839"/>
<polygon fill="black" stroke="black" points="644.141,-152.295 649.439,-143.12 639.576,-146.989 644.141,-152.295"/>
<text text-anchor="middle" x="647" y="-172.8" font-family="Times,serif" font-size="14.00">not (g9)</text>
</g>
<!-- Node0x21fcf8c0&#45;&gt;Node0x31adbe40 -->
<g id="edge39" class="edge"><title>Node0x21fcf8c0&#45;&gt;Node0x31adbe40</title>
<path fill="none" stroke="black" d="M482.425,-97.0862C472.791,-87.5117 461.905,-76.6922 452.379,-67.2257"/>
<polygon fill="black" stroke="black" points="454.642,-64.5401 445.082,-59.9735 449.708,-69.5052 454.642,-64.5401"/>
</g>
<!-- Node0x21fce810&#45;&gt;Node0x31adbe40 -->
<g id="edge40" class="edge"><title>Node0x21fce810&#45;&gt;Node0x31adbe40</title>
<path fill="none" stroke="black" d="M631.431,-104.953C624.836,-102.147 618.016,-99.3896 611.5,-97 561.466,-78.6499 502.119,-61.9532 464.633,-52.0081"/>
<polygon fill="black" stroke="black" points="465.227,-48.5453 454.665,-49.3864 463.446,-55.3151 465.227,-48.5453"/>
</g>
</g>
</svg>
