<?xml version="1.0" encoding="UTF-8" standalone="no"?>
<!DOCTYPE svg PUBLIC "-//W3C//DTD SVG 1.1//EN"
 "http://www.w3.org/Graphics/SVG/1.1/DTD/svg11.dtd">
<!-- Generated by graphviz version 2.38.0 (20140413.2041)
 -->
<!-- Title: Control&#45;flow graph for function &#39;function_1186c()&#39;. Pages: 1 -->
<svg width="588pt" height="1650pt"
 viewBox="0.00 0.00 587.50 1650.00" xmlns="http://www.w3.org/2000/svg" xmlns:xlink="http://www.w3.org/1999/xlink">
<g id="graph0" class="graph" transform="scale(1 1) rotate(0) translate(4 1646)">
<title>Control&#45;flow graph for function &#39;function_1186c()&#39;.</title>
<polygon fill="white" stroke="none" points="-4,4 -4,-1646 583.5,-1646 583.5,4 -4,4"/>
<text text-anchor="middle" x="289.75" y="-7.8" font-family="Times,serif" font-size="14.00">Control&#45;flow graph for function &#39;function_1186c()&#39;.</text>
<!-- Node0x43b99ee0 -->
<g id="node1" class="node"><title>Node0x43b99ee0</title>
<polygon fill="none" stroke="black" points="299,-1605.5 299,-1641.5 358,-1641.5 358,-1605.5 299,-1605.5"/>
<text text-anchor="start" x="307" y="-1619.8" font-family="Times,serif" font-size="14.00">entry:</text>
</g>
<!-- Node0x2cf0b250 -->
<g id="node2" class="node"><title>Node0x2cf0b250</title>
<polygon fill="none" stroke="black" points="77.5,-1364.5 77.5,-1567.5 579.5,-1567.5 579.5,-1364.5 77.5,-1364.5"/>
<text text-anchor="start" x="85.5" y="-1552.3" font-family="Times,serif" font-size="14.00">0x1326ff40:</text>
<text text-anchor="start" x="85.5" y="-1537.3" font-family="Times,serif" font-size="14.00"> v1 = g38</text>
<text text-anchor="start" x="85.5" y="-1522.3" font-family="Times,serif" font-size="14.00"> v2 = g39</text>
<text text-anchor="start" x="85.5" y="-1507.3" font-family="Times,serif" font-size="14.00"> v3 = g40</text>
<text text-anchor="start" x="85.5" y="-1492.3" font-family="Times,serif" font-size="14.00"> v4 = g29</text>
<text text-anchor="start" x="85.5" y="-1477.3" font-family="Times,serif" font-size="14.00"> v5 = *(IntToPtrCastExpr&lt;ptr&gt;((v4 + 3144)))</text>
<text text-anchor="start" x="85.5" y="-1462.3" font-family="Times,serif" font-size="14.00"> g36 = v5</text>
<text text-anchor="start" x="85.5" y="-1447.3" font-family="Times,serif" font-size="14.00"> g9 = (v5 == 0)</text>
<text text-anchor="start" x="85.5" y="-1432.3" font-family="Times,serif" font-size="14.00"> g39 = 165012</text>
<text text-anchor="start" x="85.5" y="-1417.3" font-family="Times,serif" font-size="14.00"> g38 = v4</text>
<text text-anchor="start" x="85.5" y="-1402.3" font-family="Times,serif" font-size="14.00"> g33 = ExtCastExpr&lt;int32&gt;(*(IntToPtrCastExpr&lt;ptr&gt;((v4 + 23))))</text>
<text text-anchor="start" x="85.5" y="-1387.3" font-family="Times,serif" font-size="14.00"> v6 = (v4 + 72)</text>
<text text-anchor="start" x="85.5" y="-1372.3" font-family="Times,serif" font-size="14.00"> g40 = v6</text>
</g>
<!-- Node0x43b99ee0&#45;&gt;Node0x2cf0b250 -->
<g id="edge1" class="edge"><title>Node0x43b99ee0&#45;&gt;Node0x2cf0b250</title>
<path fill="none" stroke="black" d="M328.5,-1605.26C328.5,-1597.77 328.5,-1588.32 328.5,-1577.89"/>
<polygon fill="black" stroke="black" points="332,-1577.62 328.5,-1567.62 325,-1577.62 332,-1577.62"/>
</g>
<!-- Node0x43b9a800 -->
<g id="node3" class="node"><title>Node0x43b9a800</title>
<polygon fill="none" stroke="black" points="273.5,-1288.5 273.5,-1326.5 383.5,-1326.5 383.5,-1288.5 273.5,-1288.5"/>
<text text-anchor="start" x="281.5" y="-1311.3" font-family="Times,serif" font-size="14.00">0x7cbec20:</text>
<text text-anchor="start" x="281.5" y="-1296.3" font-family="Times,serif" font-size="14.00"> if (v5 == 0):</text>
</g>
<!-- Node0x2cf0b250&#45;&gt;Node0x43b9a800 -->
<g id="edge2" class="edge"><title>Node0x2cf0b250&#45;&gt;Node0x43b9a800</title>
<path fill="none" stroke="black" d="M328.5,-1364.12C328.5,-1354.36 328.5,-1345.11 328.5,-1337.06"/>
<polygon fill="black" stroke="black" points="332,-1336.89 328.5,-1326.89 325,-1336.89 332,-1336.89"/>
</g>
<!-- Node0x2cf107b0 -->
<g id="node4" class="node"><title>Node0x2cf107b0</title>
<polygon fill="none" stroke="black" points="207,-1183.5 207,-1236.5 330,-1236.5 330,-1183.5 207,-1183.5"/>
<text text-anchor="start" x="215" y="-1221.3" font-family="Times,serif" font-size="14.00">0x7cbe800:</text>
<text text-anchor="start" x="215" y="-1206.3" font-family="Times,serif" font-size="14.00"> g37 = &#45;8448</text>
<text text-anchor="start" x="215" y="-1191.3" font-family="Times,serif" font-size="14.00"> g36 = 156564</text>
</g>
<!-- Node0x43b9a800&#45;&gt;Node0x2cf107b0 -->
<g id="edge3" class="edge"><title>Node0x43b9a800&#45;&gt;Node0x2cf107b0</title>
<path fill="none" stroke="black" d="M307.903,-1288.42C302.408,-1282.9 296.808,-1276.54 292.5,-1270 287.691,-1262.7 283.563,-1254.28 280.155,-1246.13"/>
<polygon fill="black" stroke="black" points="283.394,-1244.8 276.486,-1236.77 276.877,-1247.36 283.394,-1244.8"/>
<text text-anchor="middle" x="322.5" y="-1258.8" font-family="Times,serif" font-size="14.00">v5 == 0</text>
</g>
<!-- Node0x43b9a8a0 -->
<g id="node5" class="node"><title>Node0x43b9a8a0</title>
<polygon fill="none" stroke="black" points="205,-1077.5 205,-1145.5 466,-1145.5 466,-1077.5 205,-1077.5"/>
<text text-anchor="start" x="213" y="-1130.3" font-family="Times,serif" font-size="14.00">0x7cbedc0:</text>
<text text-anchor="start" x="213" y="-1115.3" font-family="Times,serif" font-size="14.00"> g29 = v6</text>
<text text-anchor="start" x="213" y="-1100.3" font-family="Times,serif" font-size="14.00"> function_133ec()</text>
<text text-anchor="start" x="213" y="-1085.3" font-family="Times,serif" font-size="14.00"> v7 = IntToPtrCastExpr&lt;ptr&gt;(64)</text>
</g>
<!-- Node0x43b9a800&#45;&gt;Node0x43b9a8a0 -->
<g id="edge4" class="edge"><title>Node0x43b9a800&#45;&gt;Node0x43b9a8a0</title>
<path fill="none" stroke="black" d="M343.469,-1288.23C347.152,-1282.7 350.586,-1276.39 352.5,-1270 363.743,-1232.44 357.191,-1187.86 349.177,-1155.74"/>
<polygon fill="black" stroke="black" points="352.482,-1154.54 346.544,-1145.77 345.714,-1156.33 352.482,-1154.54"/>
<text text-anchor="middle" x="386.5" y="-1206.3" font-family="Times,serif" font-size="14.00">v5 != 0</text>
</g>
<!-- Node0x2cf107b0&#45;&gt;Node0x43b9a8a0 -->
<g id="edge5" class="edge"><title>Node0x2cf107b0&#45;&gt;Node0x43b9a8a0</title>
<path fill="none" stroke="black" d="M286.279,-1183.39C292.579,-1174.32 299.838,-1163.86 306.812,-1153.82"/>
<polygon fill="black" stroke="black" points="309.749,-1155.73 312.577,-1145.52 303.999,-1151.73 309.749,-1155.73"/>
</g>
<!-- Node0x1c724ce0 -->
<g id="node6" class="node"><title>Node0x1c724ce0</title>
<polygon fill="none" stroke="black" points="276,-1001.5 276,-1039.5 395,-1039.5 395,-1001.5 276,-1001.5"/>
<text text-anchor="start" x="284" y="-1024.3" font-family="Times,serif" font-size="14.00">0x7cc93a0:</text>
<text text-anchor="start" x="284" y="-1009.3" font-family="Times,serif" font-size="14.00"> if (g29 == 0):</text>
</g>
<!-- Node0x43b9a8a0&#45;&gt;Node0x1c724ce0 -->
<g id="edge6" class="edge"><title>Node0x43b9a8a0&#45;&gt;Node0x1c724ce0</title>
<path fill="none" stroke="black" d="M335.5,-1077.36C335.5,-1068.36 335.5,-1058.71 335.5,-1049.99"/>
<polygon fill="black" stroke="black" points="339,-1049.94 335.5,-1039.94 332,-1049.94 339,-1049.94"/>
</g>
<!-- Node0x2cf10fb0 -->
<g id="node7" class="node"><title>Node0x2cf10fb0</title>
<polygon fill="none" stroke="black" points="7,-881.5 7,-949.5 352,-949.5 352,-881.5 7,-881.5"/>
<text text-anchor="start" x="15" y="-934.3" font-family="Times,serif" font-size="14.00">0x7cc8ce0:</text>
<text text-anchor="start" x="15" y="-919.3" font-family="Times,serif" font-size="14.00"> g30 = &#45;10516</text>
<text text-anchor="start" x="15" y="-904.3" font-family="Times,serif" font-size="14.00"> strcpy(IntToPtrCastExpr&lt;ptr&gt;(g40), &quot;none&quot;)</text>
<text text-anchor="start" x="15" y="-889.3" font-family="Times,serif" font-size="14.00"> v7 = &quot;none&quot;</text>
</g>
<!-- Node0x1c724ce0&#45;&gt;Node0x2cf10fb0 -->
<g id="edge7" class="edge"><title>Node0x1c724ce0&#45;&gt;Node0x2cf10fb0</title>
<path fill="none" stroke="black" d="M307.969,-1001.32C288.643,-988.562 262.072,-971.019 238.109,-955.197"/>
<polygon fill="black" stroke="black" points="240.031,-952.272 229.758,-949.683 236.174,-958.114 240.031,-952.272"/>
<text text-anchor="middle" x="311.5" y="-971.8" font-family="Times,serif" font-size="14.00">g29 == 0</text>
</g>
<!-- Node0x1c7254e0 -->
<g id="node8" class="node"><title>Node0x1c7254e0</title>
<polygon fill="none" stroke="black" points="165.5,-745.5 165.5,-843.5 493.5,-843.5 493.5,-745.5 165.5,-745.5"/>
<text text-anchor="start" x="173.5" y="-828.3" font-family="Times,serif" font-size="14.00">0x2a724fd0:</text>
<text text-anchor="start" x="173.5" y="-813.3" font-family="Times,serif" font-size="14.00"> v8 = g38</text>
<text text-anchor="start" x="173.5" y="-798.3" font-family="Times,serif" font-size="14.00"> v9 = *(IntToPtrCastExpr&lt;ptr&gt;((v8 + 23)))</text>
<text text-anchor="start" x="173.5" y="-783.3" font-family="Times,serif" font-size="14.00"> g37 = v9</text>
<text text-anchor="start" x="173.5" y="-768.3" font-family="Times,serif" font-size="14.00"> g9 = (v9 == 0)</text>
<text text-anchor="start" x="173.5" y="-753.3" font-family="Times,serif" font-size="14.00"> v10 = v8</text>
</g>
<!-- Node0x1c724ce0&#45;&gt;Node0x1c7254e0 -->
<g id="edge8" class="edge"><title>Node0x1c724ce0&#45;&gt;Node0x1c7254e0</title>
<path fill="none" stroke="black" d="M344.242,-1001.43C350.326,-987.699 357.812,-968.139 360.5,-950 364.995,-919.665 365.807,-911.204 360.5,-881 358.895,-871.864 356.394,-862.418 353.493,-853.286"/>
<polygon fill="black" stroke="black" points="356.716,-851.891 350.211,-843.529 350.081,-854.123 356.716,-851.891"/>
<text text-anchor="middle" x="396.5" y="-911.8" font-family="Times,serif" font-size="14.00">g29 != 0</text>
</g>
<!-- Node0x2cf10fb0&#45;&gt;Node0x1c7254e0 -->
<g id="edge9" class="edge"><title>Node0x2cf10fb0&#45;&gt;Node0x1c7254e0</title>
<path fill="none" stroke="black" d="M221.283,-881.352C233.602,-871.579 247.42,-860.617 260.955,-849.879"/>
<polygon fill="black" stroke="black" points="263.219,-852.551 268.878,-843.594 258.868,-847.067 263.219,-852.551"/>
</g>
<!-- Node0x1c725fe0 -->
<g id="node9" class="node"><title>Node0x1c725fe0</title>
<polygon fill="none" stroke="black" points="274.5,-669.5 274.5,-707.5 384.5,-707.5 384.5,-669.5 274.5,-669.5"/>
<text text-anchor="start" x="282.5" y="-692.3" font-family="Times,serif" font-size="14.00">0x7ccb6a0:</text>
<text text-anchor="start" x="282.5" y="-677.3" font-family="Times,serif" font-size="14.00"> if (v9 == 0):</text>
</g>
<!-- Node0x1c7254e0&#45;&gt;Node0x1c725fe0 -->
<g id="edge10" class="edge"><title>Node0x1c7254e0&#45;&gt;Node0x1c725fe0</title>
<path fill="none" stroke="black" d="M329.5,-745.458C329.5,-735.952 329.5,-726.27 329.5,-717.69"/>
<polygon fill="black" stroke="black" points="333,-717.509 329.5,-707.509 326,-717.509 333,-717.509"/>
</g>
<!-- Node0x2cf118b0 -->
<g id="node10" class="node"><title>Node0x2cf118b0</title>
<polygon fill="none" stroke="black" points="0,-504.5 0,-617.5 347,-617.5 347,-504.5 0,-504.5"/>
<text text-anchor="start" x="8" y="-602.3" font-family="Times,serif" font-size="14.00">0x7cca180:</text>
<text text-anchor="start" x="8" y="-587.3" font-family="Times,serif" font-size="14.00"> g29 = *(IntToPtrCastExpr&lt;ptr&gt;(v8))</text>
<text text-anchor="start" x="8" y="-572.3" font-family="Times,serif" font-size="14.00"> function_3508()</text>
<text text-anchor="start" x="8" y="-557.3" font-family="Times,serif" font-size="14.00"> v11 = g38</text>
<text text-anchor="start" x="8" y="-542.3" font-family="Times,serif" font-size="14.00"> *(IntToPtrCastExpr&lt;ptr&gt;((v11 + 48))) = g29</text>
<text text-anchor="start" x="8" y="-527.3" font-family="Times,serif" font-size="14.00"> *(IntToPtrCastExpr&lt;ptr&gt;((v11 + 52))) = v7</text>
<text text-anchor="start" x="8" y="-512.3" font-family="Times,serif" font-size="14.00"> v10 = g38</text>
</g>
<!-- Node0x1c725fe0&#45;&gt;Node0x2cf118b0 -->
<g id="edge11" class="edge"><title>Node0x1c725fe0&#45;&gt;Node0x2cf118b0</title>
<path fill="none" stroke="black" d="M306.816,-669.251C291.755,-657.135 271.025,-640.457 250.397,-623.863"/>
<polygon fill="black" stroke="black" points="252.494,-621.058 242.508,-617.516 248.106,-626.512 252.494,-621.058"/>
<text text-anchor="middle" x="313.5" y="-639.8" font-family="Times,serif" font-size="14.00">v9 == 0</text>
</g>
<!-- Node0x1c7267e0 -->
<g id="node11" class="node"><title>Node0x1c7267e0</title>
<polygon fill="none" stroke="black" points="159,-263.5 159,-466.5 488,-466.5 488,-263.5 159,-263.5"/>
<text text-anchor="start" x="167" y="-451.3" font-family="Times,serif" font-size="14.00">0x7ccb840:</text>
<text text-anchor="start" x="167" y="-436.3" font-family="Times,serif" font-size="14.00"> g37 = 1</text>
<text text-anchor="start" x="167" y="-421.3" font-family="Times,serif" font-size="14.00"> *(IntToPtrCastExpr&lt;ptr&gt;((v10 + 23))) = 1</text>
<text text-anchor="start" x="167" y="-406.3" font-family="Times,serif" font-size="14.00"> g29 = *(IntToPtrCastExpr&lt;ptr&gt;(g38))</text>
<text text-anchor="start" x="167" y="-391.3" font-family="Times,serif" font-size="14.00"> g30 = 16</text>
<text text-anchor="start" x="167" y="-376.3" font-family="Times,serif" font-size="14.00"> g36 = 0</text>
<text text-anchor="start" x="167" y="-361.3" font-family="Times,serif" font-size="14.00"> function_10418()</text>
<text text-anchor="start" x="167" y="-346.3" font-family="Times,serif" font-size="14.00"> g38 = v1</text>
<text text-anchor="start" x="167" y="-331.3" font-family="Times,serif" font-size="14.00"> g39 = v2</text>
<text text-anchor="start" x="167" y="-316.3" font-family="Times,serif" font-size="14.00"> g40 = v3</text>
<text text-anchor="start" x="167" y="-301.3" font-family="Times,serif" font-size="14.00"> v12</text>
<text text-anchor="start" x="167" y="-286.3" font-family="Times,serif" font-size="14.00"> g34 = v12</text>
<text text-anchor="start" x="167" y="-271.3" font-family="Times,serif" font-size="14.00"> IntToPtrCastExpr&lt;ptr&gt;(g35)()</text>
</g>
<!-- Node0x1c725fe0&#45;&gt;Node0x1c7267e0 -->
<g id="edge12" class="edge"><title>Node0x1c725fe0&#45;&gt;Node0x1c7267e0</title>
<path fill="none" stroke="black" d="M339.468,-669.277C342.335,-663.543 345.283,-657.111 347.5,-651 352.646,-636.813 353.71,-632.985 355.5,-618 361.511,-567.691 361.26,-554.338 355.5,-504 354.473,-495.028 353.083,-485.791 351.454,-476.549"/>
<polygon fill="black" stroke="black" points="354.861,-475.726 349.599,-466.531 347.978,-477.001 354.861,-475.726"/>
<text text-anchor="middle" x="387.5" y="-557.3" font-family="Times,serif" font-size="14.00">v9 != 0</text>
</g>
<!-- Node0x2cf118b0&#45;&gt;Node0x1c7267e0 -->
<g id="edge13" class="edge"><title>Node0x2cf118b0&#45;&gt;Node0x1c7267e0</title>
<path fill="none" stroke="black" d="M216.484,-504.407C223.725,-495.042 231.456,-485.044 239.324,-474.868"/>
<polygon fill="black" stroke="black" points="242.308,-476.73 245.656,-466.678 236.77,-472.448 242.308,-476.73"/>
</g>
<!-- Node0x2cf103b0 -->
<g id="node12" class="node"><title>Node0x2cf103b0</title>
<polygon fill="none" stroke="black" points="274,-187.5 274,-225.5 373,-225.5 373,-187.5 274,-187.5"/>
<text text-anchor="start" x="282" y="-210.3" font-family="Times,serif" font-size="14.00">0x7cce050:</text>
<text text-anchor="start" x="282" y="-195.3" font-family="Times,serif" font-size="14.00"> if g9:</text>
</g>
<!-- Node0x1c7267e0&#45;&gt;Node0x2cf103b0 -->
<g id="edge14" class="edge"><title>Node0x1c7267e0&#45;&gt;Node0x2cf103b0</title>
<path fill="none" stroke="black" d="M323.5,-263.117C323.5,-253.358 323.5,-244.113 323.5,-236.064"/>
<polygon fill="black" stroke="black" points="327,-235.893 323.5,-225.893 320,-235.894 327,-235.893"/>
</g>
<!-- Node0x43b9d940 -->
<g id="node13" class="node"><title>Node0x43b9d940</title>
<polygon fill="none" stroke="black" points="74.5,-97.5 74.5,-135.5 328.5,-135.5 328.5,-97.5 74.5,-97.5"/>
<text text-anchor="start" x="82.5" y="-120.3" font-family="Times,serif" font-size="14.00">0x7ccdde0:</text>
<text text-anchor="start" x="82.5" y="-105.3" font-family="Times,serif" font-size="14.00"> g40 = (g30 &amp; (16777216 * g38))</text>
</g>
<!-- Node0x2cf103b0&#45;&gt;Node0x43b9d940 -->
<g id="edge15" class="edge"><title>Node0x2cf103b0&#45;&gt;Node0x43b9d940</title>
<path fill="none" stroke="black" d="M298.517,-187.48C280.218,-174.28 255.181,-156.22 235.125,-141.754"/>
<polygon fill="black" stroke="black" points="237.027,-138.81 226.869,-135.799 232.932,-144.487 237.027,-138.81"/>
<text text-anchor="middle" x="280" y="-157.8" font-family="Times,serif" font-size="14.00">g9</text>
</g>
<!-- Node0x2cf0a6c0 -->
<g id="node14" class="node"><title>Node0x2cf0a6c0</title>
<polygon fill="none" stroke="black" points="290.5,-23.5 290.5,-59.5 344.5,-59.5 344.5,-23.5 290.5,-23.5"/>
<text text-anchor="start" x="298.5" y="-37.8" font-family="Times,serif" font-size="14.00">exit:</text>
</g>
<!-- Node0x2cf103b0&#45;&gt;Node0x2cf0a6c0 -->
<g id="edge16" class="edge"><title>Node0x2cf103b0&#45;&gt;Node0x2cf0a6c0</title>
<path fill="none" stroke="black" d="M329.197,-187.374C335.216,-165.765 343.116,-128.603 337.5,-97 335.835,-87.6271 332.675,-77.7515 329.352,-69.0202"/>
<polygon fill="black" stroke="black" points="332.592,-67.6962 325.6,-59.7361 326.102,-70.3191 332.592,-67.6962"/>
<text text-anchor="middle" x="368" y="-112.8" font-family="Times,serif" font-size="14.00">not (g9)</text>
</g>
<!-- Node0x43b9d940&#45;&gt;Node0x2cf0a6c0 -->
<g id="edge17" class="edge"><title>Node0x43b9d940&#45;&gt;Node0x2cf0a6c0</title>
<path fill="none" stroke="black" d="M230.174,-97.4551C245.685,-87.694 264.993,-75.5433 281.506,-65.1512"/>
<polygon fill="black" stroke="black" points="283.752,-67.8735 290.351,-59.585 280.023,-61.949 283.752,-67.8735"/>
</g>
</g>
</svg>
