<?xml version="1.0" encoding="UTF-8" standalone="no"?>
<!DOCTYPE svg PUBLIC "-//W3C//DTD SVG 1.1//EN"
 "http://www.w3.org/Graphics/SVG/1.1/DTD/svg11.dtd">
<!-- Generated by graphviz version 2.38.0 (20140413.2041)
 -->
<!-- Title: Control&#45;flow graph for function &#39;function_24082()&#39;. Pages: 1 -->
<svg width="865pt" height="1513pt"
 viewBox="0.00 0.00 865.00 1513.00" xmlns="http://www.w3.org/2000/svg" xmlns:xlink="http://www.w3.org/1999/xlink">
<g id="graph0" class="graph" transform="scale(1 1) rotate(0) translate(4 1509)">
<title>Control&#45;flow graph for function &#39;function_24082()&#39;.</title>
<polygon fill="white" stroke="none" points="-4,4 -4,-1509 861,-1509 861,4 -4,4"/>
<text text-anchor="middle" x="428.5" y="-7.8" font-family="Times,serif" font-size="14.00">Control&#45;flow graph for function &#39;function_24082()&#39;.</text>
<!-- Node0x3c6e5fd0 -->
<g id="node1" class="node"><title>Node0x3c6e5fd0</title>
<polygon fill="none" stroke="black" points="185.5,-1468.5 185.5,-1504.5 244.5,-1504.5 244.5,-1468.5 185.5,-1468.5"/>
<text text-anchor="start" x="193.5" y="-1482.8" font-family="Times,serif" font-size="14.00">entry:</text>
</g>
<!-- Node0x27522c10 -->
<g id="node2" class="node"><title>Node0x27522c10</title>
<polygon fill="none" stroke="black" points="164.5,-1332.5 164.5,-1430.5 265.5,-1430.5 265.5,-1332.5 164.5,-1332.5"/>
<text text-anchor="start" x="172.5" y="-1415.3" font-family="Times,serif" font-size="14.00">0xa503180:</text>
<text text-anchor="start" x="172.5" y="-1400.3" font-family="Times,serif" font-size="14.00"> v1 = g39</text>
<text text-anchor="start" x="172.5" y="-1385.3" font-family="Times,serif" font-size="14.00"> v2</text>
<text text-anchor="start" x="172.5" y="-1370.3" font-family="Times,serif" font-size="14.00"> v3</text>
<text text-anchor="start" x="172.5" y="-1355.3" font-family="Times,serif" font-size="14.00"> v4</text>
<text text-anchor="start" x="172.5" y="-1340.3" font-family="Times,serif" font-size="14.00"> v5</text>
</g>
<!-- Node0x3c6e5fd0&#45;&gt;Node0x27522c10 -->
<g id="edge1" class="edge"><title>Node0x3c6e5fd0&#45;&gt;Node0x27522c10</title>
<path fill="none" stroke="black" d="M215,-1468.49C215,-1460.69 215,-1450.94 215,-1440.83"/>
<polygon fill="black" stroke="black" points="218.5,-1440.66 215,-1430.66 211.5,-1440.66 218.5,-1440.66"/>
</g>
<!-- Node0x3c6e5300 -->
<g id="node3" class="node"><title>Node0x3c6e5300</title>
<polygon fill="none" stroke="black" points="53,-1256.5 53,-1294.5 377,-1294.5 377,-1256.5 53,-1256.5"/>
<text text-anchor="start" x="61" y="-1279.3" font-family="Times,serif" font-size="14.00">0xa4fd8a0:</text>
<text text-anchor="start" x="61" y="-1264.3" font-family="Times,serif" font-size="14.00"> if ((v1 == g30) or (((&#45;2 &#45; g30) + v1) &gt; v1)):</text>
</g>
<!-- Node0x27522c10&#45;&gt;Node0x3c6e5300 -->
<g id="edge2" class="edge"><title>Node0x27522c10&#45;&gt;Node0x3c6e5300</title>
<path fill="none" stroke="black" d="M215,-1332.46C215,-1322.95 215,-1313.27 215,-1304.69"/>
<polygon fill="black" stroke="black" points="218.5,-1304.51 215,-1294.51 211.5,-1304.51 218.5,-1304.51"/>
</g>
<!-- Node0x275246f0 -->
<g id="node4" class="node"><title>Node0x275246f0</title>
<polygon fill="none" stroke="black" points="0,-869.5 0,-1132.5 148,-1132.5 148,-869.5 0,-869.5"/>
<text text-anchor="start" x="8" y="-1117.3" font-family="Times,serif" font-size="14.00">0xa4fb8e0:</text>
<text text-anchor="start" x="8" y="-1102.3" font-family="Times,serif" font-size="14.00"> v3 = g30</text>
<text text-anchor="start" x="8" y="-1087.3" font-family="Times,serif" font-size="14.00"> v5 = (v3 &#45; v1)</text>
<text text-anchor="start" x="8" y="-1072.3" font-family="Times,serif" font-size="14.00"> g38 = v5</text>
<text text-anchor="start" x="8" y="-1057.3" font-family="Times,serif" font-size="14.00"> v4 = g41</text>
<text text-anchor="start" x="8" y="-1042.3" font-family="Times,serif" font-size="14.00"> v2 = (v5 / v4)</text>
<text text-anchor="start" x="8" y="-1027.3" font-family="Times,serif" font-size="14.00"> g30 = v4</text>
<text text-anchor="start" x="8" y="-1012.3" font-family="Times,serif" font-size="14.00"> g39 = v2</text>
<text text-anchor="start" x="8" y="-997.3" font-family="Times,serif" font-size="14.00"> g40 = (g40 * v2)</text>
<text text-anchor="start" x="8" y="-982.3" font-family="Times,serif" font-size="14.00"> g29 = v5</text>
<text text-anchor="start" x="8" y="-967.3" font-family="Times,serif" font-size="14.00"> g8 = False</text>
<text text-anchor="start" x="8" y="-952.3" font-family="Times,serif" font-size="14.00"> g7 = (v5 &lt; 0)</text>
<text text-anchor="start" x="8" y="-937.3" font-family="Times,serif" font-size="14.00"> g9 = (v3 == v1)</text>
<text text-anchor="start" x="8" y="-922.3" font-family="Times,serif" font-size="14.00"> g6 = False</text>
<text text-anchor="start" x="8" y="-907.3" font-family="Times,serif" font-size="14.00"> unknown_228ca()</text>
<text text-anchor="start" x="8" y="-892.3" font-family="Times,serif" font-size="14.00"> g37 = 65535</text>
<text text-anchor="start" x="8" y="-877.3" font-family="Times,serif" font-size="14.00"> return</text>
</g>
<!-- Node0x3c6e5300&#45;&gt;Node0x275246f0 -->
<g id="edge3" class="edge"><title>Node0x3c6e5300&#45;&gt;Node0x275246f0</title>
<path fill="none" stroke="black" d="M100.942,-1256.44C83.7737,-1251.51 69.8382,-1245.42 64,-1238 42.8775,-1211.16 36.556,-1176.81 37.641,-1142.68"/>
<polygon fill="black" stroke="black" points="41.1418,-1142.75 38.1717,-1132.58 34.1515,-1142.38 41.1418,-1142.75"/>
<text text-anchor="middle" x="201" y="-1226.8" font-family="Times,serif" font-size="14.00">(v1 == g30) or (((&#45;2 &#45; g30) + v1) &gt; v1)</text>
</g>
<!-- Node0x3c6e28e0 -->
<g id="node5" class="node"><title>Node0x3c6e28e0</title>
<polygon fill="none" stroke="black" points="290.5,-1151.5 290.5,-1204.5 435.5,-1204.5 435.5,-1151.5 290.5,-1151.5"/>
<text text-anchor="start" x="298.5" y="-1189.3" font-family="Times,serif" font-size="14.00">0x407828b0:</text>
<text text-anchor="start" x="298.5" y="-1174.3" font-family="Times,serif" font-size="14.00"> v6 = (g42 + g30)</text>
<text text-anchor="start" x="298.5" y="-1159.3" font-family="Times,serif" font-size="14.00"> v3 = v6</text>
</g>
<!-- Node0x3c6e5300&#45;&gt;Node0x3c6e28e0 -->
<g id="edge4" class="edge"><title>Node0x3c6e5300&#45;&gt;Node0x3c6e28e0</title>
<path fill="none" stroke="black" d="M314.072,-1256.45C324.298,-1251.66 333.892,-1245.62 342,-1238 348.735,-1231.67 353.313,-1223.04 356.423,-1214.33"/>
<polygon fill="black" stroke="black" points="359.825,-1215.17 359.349,-1204.59 353.121,-1213.16 359.825,-1215.17"/>
<text text-anchor="middle" x="499" y="-1226.8" font-family="Times,serif" font-size="14.00">(v1 != g30) and (((&#45;2 &#45; g30) + v1) &lt;= v1)</text>
</g>
<!-- Node0x3c6e51b0 -->
<g id="node6" class="node"><title>Node0x3c6e51b0</title>
<polygon fill="none" stroke="black" points="137,-23.5 137,-59.5 191,-59.5 191,-23.5 137,-23.5"/>
<text text-anchor="start" x="145" y="-37.8" font-family="Times,serif" font-size="14.00">exit:</text>
</g>
<!-- Node0x275246f0&#45;&gt;Node0x3c6e51b0 -->
<g id="edge5" class="edge"><title>Node0x275246f0&#45;&gt;Node0x3c6e51b0</title>
<path fill="none" stroke="black" d="M75.6167,-869.358C75.8429,-842.297 76,-813.971 76,-787.5 76,-787.5 76,-787.5 76,-213 76,-156.124 115.146,-99.2716 141.22,-67.7116"/>
<polygon fill="black" stroke="black" points="144.066,-69.7672 147.859,-59.8749 138.725,-65.2421 144.066,-69.7672"/>
</g>
<!-- Node0x3c6e6ad0 -->
<g id="node7" class="node"><title>Node0x3c6e6ad0</title>
<polygon fill="none" stroke="black" points="302.5,-812.5 302.5,-850.5 415.5,-850.5 415.5,-812.5 302.5,-812.5"/>
<text text-anchor="start" x="310.5" y="-835.3" font-family="Times,serif" font-size="14.00">0xa503f40:</text>
<text text-anchor="start" x="310.5" y="-820.3" font-family="Times,serif" font-size="14.00"> if (g30 != 0):</text>
</g>
<!-- Node0x3c6e28e0&#45;&gt;Node0x3c6e6ad0 -->
<g id="edge6" class="edge"><title>Node0x3c6e28e0&#45;&gt;Node0x3c6e6ad0</title>
<path fill="none" stroke="black" d="M362.703,-1151.39C361.972,-1088.46 360.093,-926.638 359.33,-860.898"/>
<polygon fill="black" stroke="black" points="362.829,-860.805 359.213,-850.846 355.829,-860.886 362.829,-860.805"/>
</g>
<!-- Node0x27524e70 -->
<g id="node8" class="node"><title>Node0x27524e70</title>
<polygon fill="none" stroke="black" points="91,-440.5 91,-688.5 239,-688.5 239,-440.5 91,-440.5"/>
<text text-anchor="start" x="99" y="-673.3" font-family="Times,serif" font-size="14.00">0xa5042c0:</text>
<text text-anchor="start" x="99" y="-658.3" font-family="Times,serif" font-size="14.00"> v5 = (v3 &#45; v1)</text>
<text text-anchor="start" x="99" y="-643.3" font-family="Times,serif" font-size="14.00"> g38 = v5</text>
<text text-anchor="start" x="99" y="-628.3" font-family="Times,serif" font-size="14.00"> v4 = g41</text>
<text text-anchor="start" x="99" y="-613.3" font-family="Times,serif" font-size="14.00"> v2 = (v5 / v4)</text>
<text text-anchor="start" x="99" y="-598.3" font-family="Times,serif" font-size="14.00"> g30 = v4</text>
<text text-anchor="start" x="99" y="-583.3" font-family="Times,serif" font-size="14.00"> g39 = v2</text>
<text text-anchor="start" x="99" y="-568.3" font-family="Times,serif" font-size="14.00"> g40 = (g40 * v2)</text>
<text text-anchor="start" x="99" y="-553.3" font-family="Times,serif" font-size="14.00"> g29 = v5</text>
<text text-anchor="start" x="99" y="-538.3" font-family="Times,serif" font-size="14.00"> g8 = False</text>
<text text-anchor="start" x="99" y="-523.3" font-family="Times,serif" font-size="14.00"> g7 = (v5 &lt; 0)</text>
<text text-anchor="start" x="99" y="-508.3" font-family="Times,serif" font-size="14.00"> g9 = (v3 == v1)</text>
<text text-anchor="start" x="99" y="-493.3" font-family="Times,serif" font-size="14.00"> g6 = False</text>
<text text-anchor="start" x="99" y="-478.3" font-family="Times,serif" font-size="14.00"> unknown_228ca()</text>
<text text-anchor="start" x="99" y="-463.3" font-family="Times,serif" font-size="14.00"> g37 = 65535</text>
<text text-anchor="start" x="99" y="-448.3" font-family="Times,serif" font-size="14.00"> return</text>
</g>
<!-- Node0x3c6e6ad0&#45;&gt;Node0x27524e70 -->
<g id="edge7" class="edge"><title>Node0x3c6e6ad0&#45;&gt;Node0x27524e70</title>
<path fill="none" stroke="black" d="M302.397,-823.499C262.693,-815.425 211.901,-798.099 184,-761 170.386,-742.898 162.558,-721.029 158.429,-698.565"/>
<polygon fill="black" stroke="black" points="161.865,-697.887 156.832,-688.564 154.952,-698.991 161.865,-697.887"/>
<text text-anchor="middle" x="254" y="-782.8" font-family="Times,serif" font-size="14.00">g30 != 0</text>
</g>
<!-- Node0x27523370 -->
<g id="node9" class="node"><title>Node0x27523370</title>
<polygon fill="none" stroke="black" points="193,-707.5 193,-760.5 525,-760.5 525,-707.5 193,-707.5"/>
<text text-anchor="start" x="201" y="-745.3" font-family="Times,serif" font-size="14.00">0xa502240:</text>
<text text-anchor="start" x="201" y="-730.3" font-family="Times,serif" font-size="14.00"> if ((v1 != g42) and (((&#45;2 &#45; v6) + v1) &lt;= v1)):</text>
<text text-anchor="start" x="201" y="-715.3" font-family="Times,serif" font-size="14.00"> else:</text>
</g>
<!-- Node0x3c6e6ad0&#45;&gt;Node0x27523370 -->
<g id="edge8" class="edge"><title>Node0x3c6e6ad0&#45;&gt;Node0x27523370</title>
<path fill="none" stroke="black" d="M359,-812.087C359,-800.425 359,-784.951 359,-770.929"/>
<polygon fill="black" stroke="black" points="362.5,-770.577 359,-760.577 355.5,-770.577 362.5,-770.577"/>
<text text-anchor="middle" x="394" y="-782.8" font-family="Times,serif" font-size="14.00">g30 == 0</text>
</g>
<!-- Node0x27524e70&#45;&gt;Node0x3c6e51b0 -->
<g id="edge9" class="edge"><title>Node0x27524e70&#45;&gt;Node0x3c6e51b0</title>
<path fill="none" stroke="black" d="M164.764,-440.36C164.528,-317.806 164.184,-138.44 164.053,-70.2218"/>
<polygon fill="black" stroke="black" points="167.553,-69.8842 164.033,-59.891 160.553,-69.8977 167.553,-69.8842"/>
</g>
<!-- Node0x27525730 -->
<g id="node10" class="node"><title>Node0x27525730</title>
<polygon fill="none" stroke="black" points="200.5,-368.5 200.5,-421.5 329.5,-421.5 329.5,-368.5 200.5,-368.5"/>
<text text-anchor="start" x="208.5" y="-406.3" font-family="Times,serif" font-size="14.00">0xa5017d0:</text>
<text text-anchor="start" x="208.5" y="-391.3" font-family="Times,serif" font-size="14.00"> g43 = (g43 &#45; 2)</text>
<text text-anchor="start" x="208.5" y="-376.3" font-family="Times,serif" font-size="14.00"> v3 = (2 * g42)</text>
</g>
<!-- Node0x27523370&#45;&gt;Node0x27525730 -->
<g id="edge10" class="edge"><title>Node0x27523370&#45;&gt;Node0x27525730</title>
<path fill="none" stroke="black" d="M282.43,-707.193C275.59,-702.151 269.545,-696.146 265,-689 238.514,-647.358 252.179,-500.51 260.345,-431.866"/>
<polygon fill="black" stroke="black" points="263.82,-432.287 261.553,-421.937 256.871,-431.441 263.82,-432.287"/>
<text text-anchor="middle" x="406" y="-560.8" font-family="Times,serif" font-size="14.00">(v1 != g42) and (((&#45;2 &#45; v6) + v1) &lt;= v1)</text>
</g>
<!-- Node0x3c6e40d0 -->
<g id="node11" class="node"><title>Node0x3c6e40d0</title>
<polygon fill="none" stroke="black" points="434,-376 434,-414 534,-414 534,-376 434,-376"/>
<text text-anchor="start" x="442" y="-398.8" font-family="Times,serif" font-size="14.00">0xa5023a0:</text>
<text text-anchor="start" x="442" y="-383.8" font-family="Times,serif" font-size="14.00"> v3 = g42</text>
</g>
<!-- Node0x27523370&#45;&gt;Node0x3c6e40d0 -->
<g id="edge11" class="edge"><title>Node0x27523370&#45;&gt;Node0x3c6e40d0</title>
<path fill="none" stroke="black" d="M514.517,-707.436C529.545,-702.261 541.324,-696.157 547,-689 615.761,-602.288 598.159,-538.132 547,-440 543.011,-432.348 537.015,-425.753 530.281,-420.17"/>
<polygon fill="black" stroke="black" points="532.222,-417.252 522.114,-414.079 528.037,-422.863 532.222,-417.252"/>
<text text-anchor="middle" x="724.5" y="-560.8" font-family="Times,serif" font-size="14.00">(v1 == g42) or (((&#45;2 &#45; v6) + v1) &gt; v1)</text>
</g>
<!-- Node0x3c6e2010 -->
<g id="node12" class="node"><title>Node0x3c6e2010</title>
<polygon fill="none" stroke="black" points="192,-97.5 192,-330.5 340,-330.5 340,-97.5 192,-97.5"/>
<text text-anchor="start" x="200" y="-315.3" font-family="Times,serif" font-size="14.00">0xa502530:</text>
<text text-anchor="start" x="200" y="-300.3" font-family="Times,serif" font-size="14.00"> v5 = (v3 &#45; v1)</text>
<text text-anchor="start" x="200" y="-285.3" font-family="Times,serif" font-size="14.00"> g38 = v5</text>
<text text-anchor="start" x="200" y="-270.3" font-family="Times,serif" font-size="14.00"> v4 = g41</text>
<text text-anchor="start" x="200" y="-255.3" font-family="Times,serif" font-size="14.00"> v2 = (v5 / v4)</text>
<text text-anchor="start" x="200" y="-240.3" font-family="Times,serif" font-size="14.00"> g30 = v4</text>
<text text-anchor="start" x="200" y="-225.3" font-family="Times,serif" font-size="14.00"> g39 = v2</text>
<text text-anchor="start" x="200" y="-210.3" font-family="Times,serif" font-size="14.00"> g40 = (g40 * v2)</text>
<text text-anchor="start" x="200" y="-195.3" font-family="Times,serif" font-size="14.00"> g29 = v5</text>
<text text-anchor="start" x="200" y="-180.3" font-family="Times,serif" font-size="14.00"> g8 = False</text>
<text text-anchor="start" x="200" y="-165.3" font-family="Times,serif" font-size="14.00"> g7 = (v5 &lt; 0)</text>
<text text-anchor="start" x="200" y="-150.3" font-family="Times,serif" font-size="14.00"> g9 = (v3 == v1)</text>
<text text-anchor="start" x="200" y="-135.3" font-family="Times,serif" font-size="14.00"> g6 = False</text>
<text text-anchor="start" x="200" y="-120.3" font-family="Times,serif" font-size="14.00"> unknown_228ca()</text>
<text text-anchor="start" x="200" y="-105.3" font-family="Times,serif" font-size="14.00"> g37 = 65535</text>
</g>
<!-- Node0x27525730&#45;&gt;Node0x3c6e2010 -->
<g id="edge12" class="edge"><title>Node0x27525730&#45;&gt;Node0x3c6e2010</title>
<path fill="none" stroke="black" d="M265.143,-368.354C265.187,-360.451 265.239,-351.162 265.295,-341.132"/>
<polygon fill="black" stroke="black" points="268.797,-340.897 265.353,-330.878 261.797,-340.858 268.797,-340.897"/>
</g>
<!-- Node0x3c6e40d0&#45;&gt;Node0x3c6e2010 -->
<g id="edge13" class="edge"><title>Node0x3c6e40d0&#45;&gt;Node0x3c6e2010</title>
<path fill="none" stroke="black" d="M461.897,-375.851C435.254,-353.975 388.954,-315.958 348.055,-282.375"/>
<polygon fill="black" stroke="black" points="350.17,-279.584 340.221,-275.943 345.728,-284.994 350.17,-279.584"/>
</g>
<!-- Node0x3c6e2010&#45;&gt;Node0x3c6e51b0 -->
<g id="edge14" class="edge"><title>Node0x3c6e2010&#45;&gt;Node0x3c6e51b0</title>
<path fill="none" stroke="black" d="M196.835,-97.3858C190.536,-86.8572 184.663,-77.0395 179.675,-68.7025"/>
<polygon fill="black" stroke="black" points="182.583,-66.7449 174.445,-59.9601 176.576,-70.3386 182.583,-66.7449"/>
</g>
</g>
</svg>
