<?xml version="1.0" encoding="UTF-8" standalone="no"?>
<!DOCTYPE svg PUBLIC "-//W3C//DTD SVG 1.1//EN"
 "http://www.w3.org/Graphics/SVG/1.1/DTD/svg11.dtd">
<!-- Generated by graphviz version 2.38.0 (20140413.2041)
 -->
<!-- Title: Control&#45;flow graph for function &#39;function_7c10()&#39;. Pages: 1 -->
<svg width="789pt" height="1678pt"
 viewBox="0.00 0.00 789.00 1678.00" xmlns="http://www.w3.org/2000/svg" xmlns:xlink="http://www.w3.org/1999/xlink">
<g id="graph0" class="graph" transform="scale(1 1) rotate(0) translate(4 1674)">
<title>Control&#45;flow graph for function &#39;function_7c10()&#39;.</title>
<polygon fill="white" stroke="none" points="-4,4 -4,-1674 785,-1674 785,4 -4,4"/>
<text text-anchor="middle" x="390.5" y="-7.8" font-family="Times,serif" font-size="14.00">Control&#45;flow graph for function &#39;function_7c10()&#39;.</text>
<!-- Node0x3c8f3a50 -->
<g id="node1" class="node"><title>Node0x3c8f3a50</title>
<polygon fill="none" stroke="black" points="435.5,-1633.5 435.5,-1669.5 494.5,-1669.5 494.5,-1633.5 435.5,-1633.5"/>
<text text-anchor="start" x="443.5" y="-1647.8" font-family="Times,serif" font-size="14.00">entry:</text>
</g>
<!-- Node0x243e5930 -->
<g id="node2" class="node"><title>Node0x243e5930</title>
<polygon fill="none" stroke="black" points="149,-1122.5 149,-1595.5 781,-1595.5 781,-1122.5 149,-1122.5"/>
<text text-anchor="start" x="157" y="-1580.3" font-family="Times,serif" font-size="14.00">0x4816b1b0:</text>
<text text-anchor="start" x="157" y="-1565.3" font-family="Times,serif" font-size="14.00"> v1 = g38</text>
<text text-anchor="start" x="157" y="-1550.3" font-family="Times,serif" font-size="14.00"> v2 = g39</text>
<text text-anchor="start" x="157" y="-1535.3" font-family="Times,serif" font-size="14.00"> v3 = g40</text>
<text text-anchor="start" x="157" y="-1520.3" font-family="Times,serif" font-size="14.00"> v4 = g41</text>
<text text-anchor="start" x="157" y="-1505.3" font-family="Times,serif" font-size="14.00"> g41 = g30</text>
<text text-anchor="start" x="157" y="-1490.3" font-family="Times,serif" font-size="14.00"> g40 = g36</text>
<text text-anchor="start" x="157" y="-1475.3" font-family="Times,serif" font-size="14.00"> v5 = g29</text>
<text text-anchor="start" x="157" y="-1460.3" font-family="Times,serif" font-size="14.00"> g38 = v5</text>
<text text-anchor="start" x="157" y="-1445.3" font-family="Times,serif" font-size="14.00"> g39 = g37</text>
<text text-anchor="start" x="157" y="-1430.3" font-family="Times,serif" font-size="14.00"> memset(IntToPtrCastExpr&lt;ptr&gt;(v5), g10, PtrToIntCastExpr&lt;int32&gt;(&quot;@4ORZ0MJ&quot;))</text>
<text text-anchor="start" x="157" y="-1415.3" font-family="Times,serif" font-size="14.00"> g36 = g39</text>
<text text-anchor="start" x="157" y="-1400.3" font-family="Times,serif" font-size="14.00"> *(IntToPtrCastExpr&lt;ptr&gt;((g38 + 4))) = *(IntToPtrCastExpr&lt;ptr&gt;(g41))</text>
<text text-anchor="start" x="157" y="-1385.3" font-family="Times,serif" font-size="14.00"> g30 = g40</text>
<text text-anchor="start" x="157" y="-1370.3" font-family="Times,serif" font-size="14.00"> v6 = g38</text>
<text text-anchor="start" x="157" y="-1355.3" font-family="Times,serif" font-size="14.00"> g29 = (v6 + 32)</text>
<text text-anchor="start" x="157" y="-1340.3" font-family="Times,serif" font-size="14.00"> *(IntToPtrCastExpr&lt;ptr&gt;(v6)) = g41</text>
<text text-anchor="start" x="157" y="-1325.3" font-family="Times,serif" font-size="14.00"> function_13204()</text>
<text text-anchor="start" x="157" y="-1310.3" font-family="Times,serif" font-size="14.00"> v7</text>
<text text-anchor="start" x="157" y="-1295.3" font-family="Times,serif" font-size="14.00"> g30 = v7</text>
<text text-anchor="start" x="157" y="-1280.3" font-family="Times,serif" font-size="14.00"> v8</text>
<text text-anchor="start" x="157" y="-1265.3" font-family="Times,serif" font-size="14.00"> g36 = (2 * v8)</text>
<text text-anchor="start" x="157" y="-1250.3" font-family="Times,serif" font-size="14.00"> g29 = (g38 + 48)</text>
<text text-anchor="start" x="157" y="-1235.3" font-family="Times,serif" font-size="14.00"> function_13204()</text>
<text text-anchor="start" x="157" y="-1220.3" font-family="Times,serif" font-size="14.00"> v9 = g39</text>
<text text-anchor="start" x="157" y="-1205.3" font-family="Times,serif" font-size="14.00"> v10 = (v9 / 1024)</text>
<text text-anchor="start" x="157" y="-1190.3" font-family="Times,serif" font-size="14.00"> g36 = v10</text>
<text text-anchor="start" x="157" y="-1175.3" font-family="Times,serif" font-size="14.00"> g29 = 128</text>
<text text-anchor="start" x="157" y="-1160.3" font-family="Times,serif" font-size="14.00"> v11 = (v10 &#45; 128)</text>
<text text-anchor="start" x="157" y="-1145.3" font-family="Times,serif" font-size="14.00"> v12 = (v9 / 2048)</text>
<text text-anchor="start" x="157" y="-1130.3" font-family="Times,serif" font-size="14.00"> v13 = v11</text>
</g>
<!-- Node0x3c8f3a50&#45;&gt;Node0x243e5930 -->
<g id="edge1" class="edge"><title>Node0x3c8f3a50&#45;&gt;Node0x243e5930</title>
<path fill="none" stroke="black" d="M465,-1633.2C465,-1625.9 465,-1616.59 465,-1605.84"/>
<polygon fill="black" stroke="black" points="468.5,-1605.57 465,-1595.57 461.5,-1605.57 468.5,-1605.57"/>
</g>
<!-- Node0x3e8e7260 -->
<g id="node3" class="node"><title>Node0x3e8e7260</title>
<polygon fill="none" stroke="black" points="403,-1046.5 403,-1084.5 527,-1084.5 527,-1046.5 403,-1046.5"/>
<text text-anchor="start" x="411" y="-1069.3" font-family="Times,serif" font-size="14.00">0x69e9f00:</text>
<text text-anchor="start" x="411" y="-1054.3" font-family="Times,serif" font-size="14.00"> if (v11 &lt; v12):</text>
</g>
<!-- Node0x243e5930&#45;&gt;Node0x3e8e7260 -->
<g id="edge2" class="edge"><title>Node0x243e5930&#45;&gt;Node0x3e8e7260</title>
<path fill="none" stroke="black" d="M465,-1122.36C465,-1112.21 465,-1103.01 465,-1095.14"/>
<polygon fill="black" stroke="black" points="468.5,-1094.95 465,-1084.95 461.5,-1094.95 468.5,-1094.95"/>
</g>
<!-- Node0x22ab82d0 -->
<g id="node4" class="node"><title>Node0x22ab82d0</title>
<polygon fill="none" stroke="black" points="371.5,-956.5 371.5,-994.5 472.5,-994.5 472.5,-956.5 371.5,-956.5"/>
<text text-anchor="start" x="379.5" y="-979.3" font-family="Times,serif" font-size="14.00">0x69e9d20:</text>
<text text-anchor="start" x="379.5" y="-964.3" font-family="Times,serif" font-size="14.00"> v13 = v12</text>
</g>
<!-- Node0x3e8e7260&#45;&gt;Node0x22ab82d0 -->
<g id="edge3" class="edge"><title>Node0x3e8e7260&#45;&gt;Node0x22ab82d0</title>
<path fill="none" stroke="black" d="M436.196,-1046.15C430.453,-1041.03 425.208,-1034.93 422,-1028 418.747,-1020.97 417.695,-1012.8 417.728,-1005.07"/>
<polygon fill="black" stroke="black" points="421.23,-1005.14 418.339,-994.944 414.243,-1004.72 421.23,-1005.14"/>
<text text-anchor="middle" x="459" y="-1016.8" font-family="Times,serif" font-size="14.00">v11 &lt; v12</text>
</g>
<!-- Node0x31085c90 -->
<g id="node5" class="node"><title>Node0x31085c90</title>
<polygon fill="none" stroke="black" points="213.5,-760.5 213.5,-918.5 750.5,-918.5 750.5,-760.5 213.5,-760.5"/>
<text text-anchor="start" x="221.5" y="-903.3" font-family="Times,serif" font-size="14.00">0x69ea6e0:</text>
<text text-anchor="start" x="221.5" y="-888.3" font-family="Times,serif" font-size="14.00"> *(IntToPtrCastExpr&lt;ptr&gt;((g38 + 194))) = TruncCastExpr&lt;int16&gt;(v13)</text>
<text text-anchor="start" x="221.5" y="-873.3" font-family="Times,serif" font-size="14.00"> v14 = g29</text>
<text text-anchor="start" x="221.5" y="-858.3" font-family="Times,serif" font-size="14.00"> v15 = g36</text>
<text text-anchor="start" x="221.5" y="-843.3" font-family="Times,serif" font-size="14.00"> g30 = (v15 if (v15 &lt; v14) else v14)</text>
<text text-anchor="start" x="221.5" y="-828.3" font-family="Times,serif" font-size="14.00"> v16</text>
<text text-anchor="start" x="221.5" y="-813.3" font-family="Times,serif" font-size="14.00"> *(IntToPtrCastExpr&lt;ptr&gt;((g38 + 64))) = v16</text>
<text text-anchor="start" x="221.5" y="-798.3" font-family="Times,serif" font-size="14.00"> v17 = g36</text>
<text text-anchor="start" x="221.5" y="-783.3" font-family="Times,serif" font-size="14.00"> g8 = (((511 &#45; v17) &amp; v17) &lt; 0)</text>
<text text-anchor="start" x="221.5" y="-768.3" font-family="Times,serif" font-size="14.00"> g7 = (v17 &lt; 512)</text>
</g>
<!-- Node0x3e8e7260&#45;&gt;Node0x31085c90 -->
<g id="edge4" class="edge"><title>Node0x3e8e7260&#45;&gt;Node0x31085c90</title>
<path fill="none" stroke="black" d="M484.593,-1046.47C489.227,-1041.03 493.535,-1034.71 496,-1028 507.426,-996.896 507.589,-960.976 503.625,-928.952"/>
<polygon fill="black" stroke="black" points="507.044,-928.126 502.202,-918.702 500.11,-929.088 507.044,-928.126"/>
<text text-anchor="middle" x="549" y="-971.8" font-family="Times,serif" font-size="14.00">v11 &gt;= v12</text>
</g>
<!-- Node0x22ab82d0&#45;&gt;Node0x31085c90 -->
<g id="edge5" class="edge"><title>Node0x22ab82d0&#45;&gt;Node0x31085c90</title>
<path fill="none" stroke="black" d="M430.092,-956.428C433.64,-948.503 438.088,-938.57 442.879,-927.87"/>
<polygon fill="black" stroke="black" points="446.079,-929.287 446.972,-918.73 439.69,-926.427 446.079,-929.287"/>
</g>
<!-- Node0x271f2ce0 -->
<g id="node6" class="node"><title>Node0x271f2ce0</title>
<polygon fill="none" stroke="black" points="419.5,-684.5 419.5,-722.5 544.5,-722.5 544.5,-684.5 419.5,-684.5"/>
<text text-anchor="start" x="427.5" y="-707.3" font-family="Times,serif" font-size="14.00">0x69eccc0:</text>
<text text-anchor="start" x="427.5" y="-692.3" font-family="Times,serif" font-size="14.00"> if (v17 &gt; 511):</text>
</g>
<!-- Node0x31085c90&#45;&gt;Node0x271f2ce0 -->
<g id="edge6" class="edge"><title>Node0x31085c90&#45;&gt;Node0x271f2ce0</title>
<path fill="none" stroke="black" d="M482,-760.164C482,-750.447 482,-741.058 482,-732.846"/>
<polygon fill="black" stroke="black" points="485.5,-732.801 482,-722.801 478.5,-732.801 485.5,-732.801"/>
</g>
<!-- Node0x243e5a10 -->
<g id="node7" class="node"><title>Node0x243e5a10</title>
<polygon fill="none" stroke="black" points="389,-594.5 389,-632.5 489,-632.5 489,-594.5 389,-594.5"/>
<text text-anchor="start" x="397" y="-617.3" font-family="Times,serif" font-size="14.00">0x69ec740:</text>
<text text-anchor="start" x="397" y="-602.3" font-family="Times,serif" font-size="14.00"> g36 = 512</text>
</g>
<!-- Node0x271f2ce0&#45;&gt;Node0x243e5a10 -->
<g id="edge7" class="edge"><title>Node0x271f2ce0&#45;&gt;Node0x243e5a10</title>
<path fill="none" stroke="black" d="M452.539,-684.263C446.662,-679.133 441.291,-673.007 438,-666 434.706,-658.988 433.756,-650.825 433.941,-643.093"/>
<polygon fill="black" stroke="black" points="437.442,-643.219 434.782,-632.964 430.466,-642.64 437.442,-643.219"/>
<text text-anchor="middle" x="475.5" y="-654.8" font-family="Times,serif" font-size="14.00">v17 &gt; 511</text>
</g>
<!-- Node0x1810f530 -->
<g id="node8" class="node"><title>Node0x1810f530</title>
<polygon fill="none" stroke="black" points="230,-263.5 230,-556.5 768,-556.5 768,-263.5 230,-263.5"/>
<text text-anchor="start" x="238" y="-541.3" font-family="Times,serif" font-size="14.00">0x69ed500:</text>
<text text-anchor="start" x="238" y="-526.3" font-family="Times,serif" font-size="14.00"> *(IntToPtrCastExpr&lt;ptr&gt;((g38 + 104))) = 220500</text>
<text text-anchor="start" x="238" y="-511.3" font-family="Times,serif" font-size="14.00"> *(IntToPtrCastExpr&lt;ptr&gt;((g38 + 120))) = &#45;1</text>
<text text-anchor="start" x="238" y="-496.3" font-family="Times,serif" font-size="14.00"> *(IntToPtrCastExpr&lt;ptr&gt;((g38 + 180))) = 32</text>
<text text-anchor="start" x="238" y="-481.3" font-family="Times,serif" font-size="14.00"> *(IntToPtrCastExpr&lt;ptr&gt;((g38 + 182))) = 64</text>
<text text-anchor="start" x="238" y="-466.3" font-family="Times,serif" font-size="14.00"> *(IntToPtrCastExpr&lt;ptr&gt;((g38 + 190))) = 48</text>
<text text-anchor="start" x="238" y="-451.3" font-family="Times,serif" font-size="14.00"> g37 = 16</text>
<text text-anchor="start" x="238" y="-436.3" font-family="Times,serif" font-size="14.00"> *(IntToPtrCastExpr&lt;ptr&gt;(g38)) = g41</text>
<text text-anchor="start" x="238" y="-421.3" font-family="Times,serif" font-size="14.00"> *(IntToPtrCastExpr&lt;ptr&gt;((g38 + 178))) = TruncCastExpr&lt;int16&gt;(g30)</text>
<text text-anchor="start" x="238" y="-406.3" font-family="Times,serif" font-size="14.00"> *(IntToPtrCastExpr&lt;ptr&gt;((g38 + 186))) = TruncCastExpr&lt;int16&gt;(g36)</text>
<text text-anchor="start" x="238" y="-391.3" font-family="Times,serif" font-size="14.00"> *(IntToPtrCastExpr&lt;ptr&gt;((g38 + 184))) = TruncCastExpr&lt;int16&gt;(g29)</text>
<text text-anchor="start" x="238" y="-376.3" font-family="Times,serif" font-size="14.00"> *(IntToPtrCastExpr&lt;ptr&gt;((g38 + 192))) = TruncCastExpr&lt;int16&gt;(g37)</text>
<text text-anchor="start" x="238" y="-361.3" font-family="Times,serif" font-size="14.00"> g38 = v1</text>
<text text-anchor="start" x="238" y="-346.3" font-family="Times,serif" font-size="14.00"> g39 = v2</text>
<text text-anchor="start" x="238" y="-331.3" font-family="Times,serif" font-size="14.00"> g40 = v3</text>
<text text-anchor="start" x="238" y="-316.3" font-family="Times,serif" font-size="14.00"> g41 = v4</text>
<text text-anchor="start" x="238" y="-301.3" font-family="Times,serif" font-size="14.00"> g34 = v7</text>
<text text-anchor="start" x="238" y="-286.3" font-family="Times,serif" font-size="14.00"> IntToPtrCastExpr&lt;ptr&gt;(g35)()</text>
<text text-anchor="start" x="238" y="-271.3" font-family="Times,serif" font-size="14.00"> v18 = (g34 % 256)</text>
</g>
<!-- Node0x271f2ce0&#45;&gt;Node0x1810f530 -->
<g id="edge8" class="edge"><title>Node0x271f2ce0&#45;&gt;Node0x1810f530</title>
<path fill="none" stroke="black" d="M501.593,-684.469C506.227,-679.033 510.535,-672.711 513,-666 515.299,-659.742 513.194,-657.664 513,-651 512.207,-623.783 510.909,-594.851 509.415,-566.847"/>
<polygon fill="black" stroke="black" points="512.894,-566.372 508.856,-556.576 505.904,-566.752 512.894,-566.372"/>
<text text-anchor="middle" x="555.5" y="-609.8" font-family="Times,serif" font-size="14.00">v17 &lt;= 511</text>
</g>
<!-- Node0x243e5a10&#45;&gt;Node0x1810f530 -->
<g id="edge9" class="edge"><title>Node0x243e5a10&#45;&gt;Node0x1810f530</title>
<path fill="none" stroke="black" d="M444.43,-594.263C446.684,-586.695 449.52,-577.171 452.708,-566.462"/>
<polygon fill="black" stroke="black" points="456.096,-567.35 455.595,-556.767 449.387,-565.352 456.096,-567.35"/>
</g>
<!-- Node0x3c8f75c0 -->
<g id="node9" class="node"><title>Node0x3c8f75c0</title>
<polygon fill="none" stroke="black" points="450,-187.5 450,-225.5 548,-225.5 548,-187.5 450,-187.5"/>
<text text-anchor="start" x="458" y="-210.3" font-family="Times,serif" font-size="14.00">0x69f5040:</text>
<text text-anchor="start" x="458" y="-195.3" font-family="Times,serif" font-size="14.00"> if g9:</text>
</g>
<!-- Node0x1810f530&#45;&gt;Node0x3c8f75c0 -->
<g id="edge10" class="edge"><title>Node0x1810f530&#45;&gt;Node0x3c8f75c0</title>
<path fill="none" stroke="black" d="M499,-263.361C499,-253.249 499,-243.894 499,-235.847"/>
<polygon fill="black" stroke="black" points="502.5,-235.734 499,-225.734 495.5,-235.734 502.5,-235.734"/>
</g>
<!-- Node0x1d9bdff0 -->
<g id="node10" class="node"><title>Node0x1d9bdff0</title>
<polygon fill="none" stroke="black" points="0,-97.5 0,-135.5 540,-135.5 540,-97.5 0,-97.5"/>
<text text-anchor="start" x="8" y="-120.3" font-family="Times,serif" font-size="14.00">0x69f4df0:</text>
<text text-anchor="start" x="8" y="-105.3" font-family="Times,serif" font-size="14.00"> g39 = (g37 &amp; (g38 &gt;&gt; (0 if (v18 == 0) else (31 if (v18 &gt; 31) else v18))))</text>
</g>
<!-- Node0x3c8f75c0&#45;&gt;Node0x1d9bdff0 -->
<g id="edge11" class="edge"><title>Node0x3c8f75c0&#45;&gt;Node0x1d9bdff0</title>
<path fill="none" stroke="black" d="M452.106,-187.48C415.796,-173.526 365.355,-154.143 326.764,-139.313"/>
<polygon fill="black" stroke="black" points="327.814,-135.967 317.224,-135.647 325.303,-142.502 327.814,-135.967"/>
<text text-anchor="middle" x="408.5" y="-157.8" font-family="Times,serif" font-size="14.00">g9</text>
</g>
<!-- Node0x3108b090 -->
<g id="node11" class="node"><title>Node0x3108b090</title>
<polygon fill="none" stroke="black" points="466,-23.5 466,-59.5 520,-59.5 520,-23.5 466,-23.5"/>
<text text-anchor="start" x="474" y="-37.8" font-family="Times,serif" font-size="14.00">exit:</text>
</g>
<!-- Node0x3c8f75c0&#45;&gt;Node0x3108b090 -->
<g id="edge12" class="edge"><title>Node0x3c8f75c0&#45;&gt;Node0x3108b090</title>
<path fill="none" stroke="black" d="M517.467,-187.231C536.784,-165.796 562.553,-129.101 549,-97 544.053,-85.2829 535.219,-74.8387 526.009,-66.3064"/>
<polygon fill="black" stroke="black" points="528.113,-63.4988 518.26,-59.603 523.533,-68.7926 528.113,-63.4988"/>
<text text-anchor="middle" x="580.5" y="-112.8" font-family="Times,serif" font-size="14.00">not (g9)</text>
</g>
<!-- Node0x1d9bdff0&#45;&gt;Node0x3108b090 -->
<g id="edge13" class="edge"><title>Node0x1d9bdff0&#45;&gt;Node0x3108b090</title>
<path fill="none" stroke="black" d="M325.124,-97.4551C366.033,-84.0633 420.682,-66.1736 456.348,-54.4982"/>
<polygon fill="black" stroke="black" points="457.462,-57.8163 465.877,-51.3788 455.284,-51.1637 457.462,-57.8163"/>
</g>
</g>
</svg>
