<?xml version="1.0" encoding="UTF-8" standalone="no"?>
<!DOCTYPE svg PUBLIC "-//W3C//DTD SVG 1.1//EN"
 "http://www.w3.org/Graphics/SVG/1.1/DTD/svg11.dtd">
<!-- Generated by graphviz version 2.38.0 (20140413.2041)
 -->
<!-- Title: Control&#45;flow graph for function &#39;function_fbf0()&#39;. Pages: 1 -->
<svg width="370pt" height="216pt"
 viewBox="0.00 0.00 370.00 216.00" xmlns="http://www.w3.org/2000/svg" xmlns:xlink="http://www.w3.org/1999/xlink">
<g id="graph0" class="graph" transform="scale(1 1) rotate(0) translate(4 212)">
<title>Control&#45;flow graph for function &#39;function_fbf0()&#39;.</title>
<polygon fill="white" stroke="none" points="-4,4 -4,-212 366,-212 366,4 -4,4"/>
<text text-anchor="middle" x="181" y="-7.8" font-family="Times,serif" font-size="14.00">Control&#45;flow graph for function &#39;function_fbf0()&#39;.</text>
<!-- Node0x427a5840 -->
<g id="node1" class="node"><title>Node0x427a5840</title>
<polygon fill="none" stroke="black" points="151.5,-171.5 151.5,-207.5 210.5,-207.5 210.5,-171.5 151.5,-171.5"/>
<text text-anchor="start" x="159.5" y="-185.8" font-family="Times,serif" font-size="14.00">entry:</text>
</g>
<!-- Node0x427a5640 -->
<g id="node2" class="node"><title>Node0x427a5640</title>
<polygon fill="none" stroke="black" points="3,-96.5 3,-134.5 359,-134.5 359,-96.5 3,-96.5"/>
<text text-anchor="start" x="11" y="-119.3" font-family="Times,serif" font-size="14.00">0x78c4860:</text>
<text text-anchor="start" x="11" y="-104.3" font-family="Times,serif" font-size="14.00"> g37 = *(IntToPtrCastExpr&lt;ptr&gt;((g29 + 188)))</text>
</g>
<!-- Node0x427a5840&#45;&gt;Node0x427a5640 -->
<g id="edge1" class="edge"><title>Node0x427a5840&#45;&gt;Node0x427a5640</title>
<path fill="none" stroke="black" d="M181,-171.437C181,-163.487 181,-153.813 181,-144.813"/>
<polygon fill="black" stroke="black" points="184.5,-144.699 181,-134.699 177.5,-144.699 184.5,-144.699"/>
</g>
<!-- Node0x427a55d0 -->
<g id="node3" class="node"><title>Node0x427a55d0</title>
<polygon fill="none" stroke="black" points="154,-23.5 154,-59.5 208,-59.5 208,-23.5 154,-23.5"/>
<text text-anchor="start" x="162" y="-37.8" font-family="Times,serif" font-size="14.00">exit:</text>
</g>
<!-- Node0x427a5640&#45;&gt;Node0x427a55d0 -->
<g id="edge2" class="edge"><title>Node0x427a5640&#45;&gt;Node0x427a55d0</title>
<path fill="none" stroke="black" d="M181,-96.3314C181,-88.394 181,-78.9095 181,-70.1285"/>
<polygon fill="black" stroke="black" points="184.5,-69.9177 181,-59.9177 177.5,-69.9177 184.5,-69.9177"/>
</g>
</g>
</svg>
