<?xml version="1.0" encoding="UTF-8" standalone="no"?>
<!DOCTYPE svg PUBLIC "-//W3C//DTD SVG 1.1//EN"
 "http://www.w3.org/Graphics/SVG/1.1/DTD/svg11.dtd">
<!-- Generated by graphviz version 2.38.0 (20140413.2041)
 -->
<!-- Title: Control&#45;flow graph for function &#39;function_f548()&#39;. Pages: 1 -->
<svg width="507pt" height="399pt"
 viewBox="0.00 0.00 506.50 399.00" xmlns="http://www.w3.org/2000/svg" xmlns:xlink="http://www.w3.org/1999/xlink">
<g id="graph0" class="graph" transform="scale(1 1) rotate(0) translate(4 395)">
<title>Control&#45;flow graph for function &#39;function_f548()&#39;.</title>
<polygon fill="white" stroke="none" points="-4,4 -4,-395 502.5,-395 502.5,4 -4,4"/>
<text text-anchor="middle" x="249.25" y="-7.8" font-family="Times,serif" font-size="14.00">Control&#45;flow graph for function &#39;function_f548()&#39;.</text>
<!-- Node0x3ef59a90 -->
<g id="node1" class="node"><title>Node0x3ef59a90</title>
<polygon fill="none" stroke="black" points="300,-354.5 300,-390.5 359,-390.5 359,-354.5 300,-354.5"/>
<text text-anchor="start" x="308" y="-368.8" font-family="Times,serif" font-size="14.00">entry:</text>
</g>
<!-- Node0x160e1de0 -->
<g id="node2" class="node"><title>Node0x160e1de0</title>
<polygon fill="none" stroke="black" points="160.5,-263.5 160.5,-316.5 498.5,-316.5 498.5,-263.5 160.5,-263.5"/>
<text text-anchor="start" x="168.5" y="-301.3" font-family="Times,serif" font-size="14.00">0x3de9f800:</text>
<text text-anchor="start" x="168.5" y="-286.3" font-family="Times,serif" font-size="14.00"> v1 = *(IntToPtrCastExpr&lt;ptr&gt;((g37 + 24)))</text>
<text text-anchor="start" x="168.5" y="-271.3" font-family="Times,serif" font-size="14.00"> g9 = (v1 == 0)</text>
</g>
<!-- Node0x3ef59a90&#45;&gt;Node0x160e1de0 -->
<g id="edge1" class="edge"><title>Node0x3ef59a90&#45;&gt;Node0x160e1de0</title>
<path fill="none" stroke="black" d="M329.5,-354.428C329.5,-346.361 329.5,-336.411 329.5,-326.802"/>
<polygon fill="black" stroke="black" points="333,-326.616 329.5,-316.616 326,-326.616 333,-326.616"/>
</g>
<!-- Node0x160e1fa0 -->
<g id="node3" class="node"><title>Node0x160e1fa0</title>
<polygon fill="none" stroke="black" points="274.5,-187.5 274.5,-225.5 384.5,-225.5 384.5,-187.5 274.5,-187.5"/>
<text text-anchor="start" x="282.5" y="-210.3" font-family="Times,serif" font-size="14.00">0x780cff0:</text>
<text text-anchor="start" x="282.5" y="-195.3" font-family="Times,serif" font-size="14.00"> if (v1 == 0):</text>
</g>
<!-- Node0x160e1de0&#45;&gt;Node0x160e1fa0 -->
<g id="edge2" class="edge"><title>Node0x160e1de0&#45;&gt;Node0x160e1fa0</title>
<path fill="none" stroke="black" d="M329.5,-263.213C329.5,-254.526 329.5,-244.787 329.5,-235.91"/>
<polygon fill="black" stroke="black" points="333,-235.638 329.5,-225.638 326,-235.638 333,-235.638"/>
</g>
<!-- Node0x3ef56150 -->
<g id="node4" class="node"><title>Node0x3ef56150</title>
<polygon fill="none" stroke="black" points="0,-97.5 0,-135.5 347,-135.5 347,-97.5 0,-97.5"/>
<text text-anchor="start" x="8" y="-120.3" font-family="Times,serif" font-size="14.00">0x780cdf0:</text>
<text text-anchor="start" x="8" y="-105.3" font-family="Times,serif" font-size="14.00"> g29 = *(IntToPtrCastExpr&lt;ptr&gt;((g37 + 28)))</text>
</g>
<!-- Node0x160e1fa0&#45;&gt;Node0x3ef56150 -->
<g id="edge3" class="edge"><title>Node0x160e1fa0&#45;&gt;Node0x3ef56150</title>
<path fill="none" stroke="black" d="M297.555,-187.48C273.553,-173.94 240.488,-155.288 214.529,-140.645"/>
<polygon fill="black" stroke="black" points="216.1,-137.512 205.67,-135.647 212.66,-143.609 216.1,-137.512"/>
<text text-anchor="middle" x="291.5" y="-157.8" font-family="Times,serif" font-size="14.00">v1 == 0</text>
</g>
<!-- Node0x3ef598b0 -->
<g id="node5" class="node"><title>Node0x3ef598b0</title>
<polygon fill="none" stroke="black" points="296.5,-23.5 296.5,-59.5 350.5,-59.5 350.5,-23.5 296.5,-23.5"/>
<text text-anchor="start" x="304.5" y="-37.8" font-family="Times,serif" font-size="14.00">exit:</text>
</g>
<!-- Node0x160e1fa0&#45;&gt;Node0x3ef598b0 -->
<g id="edge4" class="edge"><title>Node0x160e1fa0&#45;&gt;Node0x3ef598b0</title>
<path fill="none" stroke="black" d="M339.443,-187.369C350.006,-165.755 364.088,-128.589 355.5,-97 352.765,-86.9415 347.654,-76.8431 342.306,-68.1195"/>
<polygon fill="black" stroke="black" points="345.133,-66.0474 336.737,-59.5856 339.271,-69.873 345.133,-66.0474"/>
<text text-anchor="middle" x="384.5" y="-112.8" font-family="Times,serif" font-size="14.00">v1 != 0</text>
</g>
<!-- Node0x3ef56150&#45;&gt;Node0x3ef598b0 -->
<g id="edge5" class="edge"><title>Node0x3ef56150&#45;&gt;Node0x3ef598b0</title>
<path fill="none" stroke="black" d="M210.579,-97.4551C233.911,-86.0998 263.889,-71.5106 287.093,-60.2182"/>
<polygon fill="black" stroke="black" points="288.803,-63.2786 296.263,-55.7555 285.739,-56.9844 288.803,-63.2786"/>
</g>
</g>
</svg>
