<?xml version="1.0" encoding="UTF-8" standalone="no"?>
<!DOCTYPE svg PUBLIC "-//W3C//DTD SVG 1.1//EN"
 "http://www.w3.org/Graphics/SVG/1.1/DTD/svg11.dtd">
<!-- Generated by graphviz version 2.38.0 (20140413.2041)
 -->
<!-- Title: Control&#45;flow graph for function &#39;function_1a0c0()&#39;. Pages: 1 -->
<svg width="465pt" height="844pt"
 viewBox="0.00 0.00 465.00 844.00" xmlns="http://www.w3.org/2000/svg" xmlns:xlink="http://www.w3.org/1999/xlink">
<g id="graph0" class="graph" transform="scale(1 1) rotate(0) translate(4 840)">
<title>Control&#45;flow graph for function &#39;function_1a0c0()&#39;.</title>
<polygon fill="white" stroke="none" points="-4,4 -4,-840 461,-840 461,4 -4,4"/>
<text text-anchor="middle" x="228.5" y="-7.8" font-family="Times,serif" font-size="14.00">Control&#45;flow graph for function &#39;function_1a0c0()&#39;.</text>
<!-- Node0x1038b410 -->
<g id="node1" class="node"><title>Node0x1038b410</title>
<polygon fill="none" stroke="black" points="267.5,-799.5 267.5,-835.5 326.5,-835.5 326.5,-799.5 267.5,-799.5"/>
<text text-anchor="start" x="275.5" y="-813.8" font-family="Times,serif" font-size="14.00">entry:</text>
</g>
<!-- Node0x1470f380 -->
<g id="node2" class="node"><title>Node0x1470f380</title>
<polygon fill="none" stroke="black" points="137,-708.5 137,-761.5 457,-761.5 457,-708.5 137,-708.5"/>
<text text-anchor="start" x="145" y="-746.3" font-family="Times,serif" font-size="14.00">0x12d81330:</text>
<text text-anchor="start" x="145" y="-731.3" font-family="Times,serif" font-size="14.00"> v1 = IntToPtrCastExpr&lt;ptr&gt;((g29 + 40))</text>
<text text-anchor="start" x="145" y="-716.3" font-family="Times,serif" font-size="14.00"> v2 = 0</text>
</g>
<!-- Node0x1038b410&#45;&gt;Node0x1470f380 -->
<g id="edge1" class="edge"><title>Node0x1038b410&#45;&gt;Node0x1470f380</title>
<path fill="none" stroke="black" d="M297,-799.428C297,-791.361 297,-781.411 297,-771.802"/>
<polygon fill="black" stroke="black" points="300.5,-771.616 297,-761.616 293.5,-771.616 300.5,-771.616"/>
</g>
<!-- Node0x1fd901e0 -->
<g id="node3" class="node"><title>Node0x1fd901e0</title>
<polygon fill="none" stroke="black" points="240.5,-632.5 240.5,-670.5 353.5,-670.5 353.5,-632.5 240.5,-632.5"/>
<text text-anchor="start" x="248.5" y="-655.3" font-family="Times,serif" font-size="14.00">0x8ef5a00:</text>
<text text-anchor="start" x="248.5" y="-640.3" font-family="Times,serif" font-size="14.00"> if (g30 != 0):</text>
</g>
<!-- Node0x1470f380&#45;&gt;Node0x1fd901e0 -->
<g id="edge2" class="edge"><title>Node0x1470f380&#45;&gt;Node0x1fd901e0</title>
<path fill="none" stroke="black" d="M297,-708.213C297,-699.526 297,-689.787 297,-680.91"/>
<polygon fill="black" stroke="black" points="300.5,-680.638 297,-670.638 293.5,-680.638 300.5,-680.638"/>
</g>
<!-- Node0x243f10e0 -->
<g id="node4" class="node"><title>Node0x243f10e0</title>
<polygon fill="none" stroke="black" points="0,-467.5 0,-580.5 338,-580.5 338,-467.5 0,-467.5"/>
<text text-anchor="start" x="8" y="-565.3" font-family="Times,serif" font-size="14.00">0x12d81410:</text>
<text text-anchor="start" x="8" y="-550.3" font-family="Times,serif" font-size="14.00"> v3 = *(IntToPtrCastExpr&lt;ptr&gt;((g29 + 44)))</text>
<text text-anchor="start" x="8" y="-535.3" font-family="Times,serif" font-size="14.00"> v4 = (*(v1) + g30)</text>
<text text-anchor="start" x="8" y="-520.3" font-family="Times,serif" font-size="14.00"> v5 = (v4 &#45; v3)</text>
<text text-anchor="start" x="8" y="-505.3" font-family="Times,serif" font-size="14.00"> g8 = (((v5 ^ v4) &amp; (v4 ^ v3)) &lt; 0)</text>
<text text-anchor="start" x="8" y="-490.3" font-family="Times,serif" font-size="14.00"> g7 = (v5 &lt; 0)</text>
<text text-anchor="start" x="8" y="-475.3" font-family="Times,serif" font-size="14.00"> g9 = (v4 == v3)</text>
</g>
<!-- Node0x1fd901e0&#45;&gt;Node0x243f10e0 -->
<g id="edge3" class="edge"><title>Node0x1fd901e0&#45;&gt;Node0x243f10e0</title>
<path fill="none" stroke="black" d="M278.388,-632.251C266.193,-620.295 249.469,-603.897 232.766,-587.521"/>
<polygon fill="black" stroke="black" points="235.213,-585.018 225.622,-580.516 230.312,-590.017 235.213,-585.018"/>
<text text-anchor="middle" x="292" y="-602.8" font-family="Times,serif" font-size="14.00">g30 != 0</text>
</g>
<!-- Node0x28264b90 -->
<g id="node5" class="node"><title>Node0x28264b90</title>
<polygon fill="none" stroke="black" points="225.5,-97.5 225.5,-195.5 368.5,-195.5 368.5,-97.5 225.5,-97.5"/>
<text text-anchor="start" x="233.5" y="-180.3" font-family="Times,serif" font-size="14.00">0x8ef5c60:</text>
<text text-anchor="start" x="233.5" y="-165.3" font-family="Times,serif" font-size="14.00"> g36 = 0</text>
<text text-anchor="start" x="233.5" y="-150.3" font-family="Times,serif" font-size="14.00"> v6 = (*(v1) + v2)</text>
<text text-anchor="start" x="233.5" y="-135.3" font-family="Times,serif" font-size="14.00"> g37 = v6</text>
<text text-anchor="start" x="233.5" y="-120.3" font-family="Times,serif" font-size="14.00"> *(v1) = v6</text>
<text text-anchor="start" x="233.5" y="-105.3" font-family="Times,serif" font-size="14.00"> g29 = g36</text>
</g>
<!-- Node0x1fd901e0&#45;&gt;Node0x28264b90 -->
<g id="edge4" class="edge"><title>Node0x1fd901e0&#45;&gt;Node0x28264b90</title>
<path fill="none" stroke="black" d="M314.769,-632.243C335.213,-609.23 366,-567.518 366,-525 366,-525 366,-525 366,-319.5 366,-279.062 349.369,-236.873 332.436,-204.398"/>
<polygon fill="black" stroke="black" points="335.478,-202.664 327.666,-195.506 329.309,-205.973 335.478,-202.664"/>
<text text-anchor="middle" x="401" y="-406.8" font-family="Times,serif" font-size="14.00">g30 == 0</text>
</g>
<!-- Node0x1fd8f610 -->
<g id="node6" class="node"><title>Node0x1fd8f610</title>
<polygon fill="none" stroke="black" points="144,-391.5 144,-429.5 250,-429.5 250,-391.5 144,-391.5"/>
<text text-anchor="start" x="152" y="-414.3" font-family="Times,serif" font-size="14.00">0x8ef5800:</text>
<text text-anchor="start" x="152" y="-399.3" font-family="Times,serif" font-size="14.00"> if (v4 &gt; v3):</text>
</g>
<!-- Node0x243f10e0&#45;&gt;Node0x1fd8f610 -->
<g id="edge5" class="edge"><title>Node0x243f10e0&#45;&gt;Node0x1fd8f610</title>
<path fill="none" stroke="black" d="M183,-467.25C185.384,-457.756 187.768,-448.263 189.876,-439.87"/>
<polygon fill="black" stroke="black" points="193.335,-440.463 192.376,-429.912 186.546,-438.758 193.335,-440.463"/>
</g>
<!-- Node0x147076b0 -->
<g id="node7" class="node"><title>Node0x147076b0</title>
<polygon fill="none" stroke="black" points="201,-23.5 201,-59.5 255,-59.5 255,-23.5 201,-23.5"/>
<text text-anchor="start" x="209" y="-37.8" font-family="Times,serif" font-size="14.00">exit:</text>
</g>
<!-- Node0x28264b90&#45;&gt;Node0x147076b0 -->
<g id="edge6" class="edge"><title>Node0x28264b90&#45;&gt;Node0x147076b0</title>
<path fill="none" stroke="black" d="M264.722,-97.3173C257.988,-87.2647 251.14,-77.0429 245.211,-68.1924"/>
<polygon fill="black" stroke="black" points="248.1,-66.2162 239.627,-59.8561 242.285,-70.1121 248.1,-66.2162"/>
</g>
<!-- Node0x243f3a90 -->
<g id="node8" class="node"><title>Node0x243f3a90</title>
<polygon fill="none" stroke="black" points="146.5,-214.5 146.5,-282.5 247.5,-282.5 247.5,-214.5 146.5,-214.5"/>
<text text-anchor="start" x="154.5" y="-267.3" font-family="Times,serif" font-size="14.00">0x8ef52f0:</text>
<text text-anchor="start" x="154.5" y="-252.3" font-family="Times,serif" font-size="14.00"> g36 = &#45;131</text>
<text text-anchor="start" x="154.5" y="-237.3" font-family="Times,serif" font-size="14.00"> g29 = &#45;131</text>
<text text-anchor="start" x="154.5" y="-222.3" font-family="Times,serif" font-size="14.00"> return</text>
</g>
<!-- Node0x1fd8f610&#45;&gt;Node0x243f3a90 -->
<g id="edge7" class="edge"><title>Node0x1fd8f610&#45;&gt;Node0x243f3a90</title>
<path fill="none" stroke="black" d="M197,-391.457C197,-367.711 197,-325.2 197,-292.869"/>
<polygon fill="black" stroke="black" points="200.5,-292.766 197,-282.766 193.5,-292.766 200.5,-292.766"/>
<text text-anchor="middle" x="225" y="-361.8" font-family="Times,serif" font-size="14.00">v4 &gt; v3</text>
</g>
<!-- Node0x1038be00 -->
<g id="node9" class="node"><title>Node0x1038be00</title>
<polygon fill="none" stroke="black" points="237.5,-301.5 237.5,-339.5 334.5,-339.5 334.5,-301.5 237.5,-301.5"/>
<text text-anchor="start" x="245.5" y="-324.3" font-family="Times,serif" font-size="14.00">0x8ef5940:</text>
<text text-anchor="start" x="245.5" y="-309.3" font-family="Times,serif" font-size="14.00"> v2 = g30</text>
</g>
<!-- Node0x1fd8f610&#45;&gt;Node0x1038be00 -->
<g id="edge8" class="edge"><title>Node0x1fd8f610&#45;&gt;Node0x1038be00</title>
<path fill="none" stroke="black" d="M233.47,-391.409C241.818,-386.206 250.22,-380.012 257,-373 263.737,-366.032 269.45,-357.196 273.978,-348.817"/>
<polygon fill="black" stroke="black" points="277.209,-350.183 278.578,-339.677 270.956,-347.036 277.209,-350.183"/>
<text text-anchor="middle" x="302" y="-361.8" font-family="Times,serif" font-size="14.00">v4 &lt;= v3</text>
</g>
<!-- Node0x243f3a90&#45;&gt;Node0x147076b0 -->
<g id="edge9" class="edge"><title>Node0x243f3a90&#45;&gt;Node0x147076b0</title>
<path fill="none" stroke="black" d="M200.292,-214.49C203.549,-183.912 209.047,-137.224 216,-97 217.549,-88.0408 219.574,-78.3265 221.519,-69.6145"/>
<polygon fill="black" stroke="black" points="224.991,-70.1324 223.814,-59.6031 218.168,-68.5683 224.991,-70.1324"/>
</g>
<!-- Node0x1038be00&#45;&gt;Node0x28264b90 -->
<g id="edge10" class="edge"><title>Node0x1038be00&#45;&gt;Node0x28264b90</title>
<path fill="none" stroke="black" d="M287.156,-301.418C288.596,-278.907 291.126,-239.349 293.26,-205.974"/>
<polygon fill="black" stroke="black" points="296.763,-206.044 293.908,-195.841 289.777,-205.597 296.763,-206.044"/>
</g>
</g>
</svg>
