<?xml version="1.0" encoding="UTF-8" standalone="no"?>
<!DOCTYPE svg PUBLIC "-//W3C//DTD SVG 1.1//EN"
 "http://www.w3.org/Graphics/SVG/1.1/DTD/svg11.dtd">
<!-- Generated by graphviz version 2.38.0 (20140413.2041)
 -->
<!-- Title: Control&#45;flow graph for function &#39;function_136ec()&#39;. Pages: 1 -->
<svg width="446pt" height="441pt"
 viewBox="0.00 0.00 446.00 441.00" xmlns="http://www.w3.org/2000/svg" xmlns:xlink="http://www.w3.org/1999/xlink">
<g id="graph0" class="graph" transform="scale(1 1) rotate(0) translate(4 437)">
<title>Control&#45;flow graph for function &#39;function_136ec()&#39;.</title>
<polygon fill="white" stroke="none" points="-4,4 -4,-437 442,-437 442,4 -4,4"/>
<text text-anchor="middle" x="219" y="-7.8" font-family="Times,serif" font-size="14.00">Control&#45;flow graph for function &#39;function_136ec()&#39;.</text>
<!-- Node0x47e01400 -->
<g id="node1" class="node"><title>Node0x47e01400</title>
<polygon fill="none" stroke="black" points="189.5,-396.5 189.5,-432.5 248.5,-432.5 248.5,-396.5 189.5,-396.5"/>
<text text-anchor="start" x="197.5" y="-410.8" font-family="Times,serif" font-size="14.00">entry:</text>
</g>
<!-- Node0x47e04ce0 -->
<g id="node2" class="node"><title>Node0x47e04ce0</title>
<polygon fill="none" stroke="black" points="0,-96.5 0,-359.5 438,-359.5 438,-96.5 0,-96.5"/>
<text text-anchor="start" x="8" y="-344.3" font-family="Times,serif" font-size="14.00">0xef763f0:</text>
<text text-anchor="start" x="8" y="-329.3" font-family="Times,serif" font-size="14.00"> v1 = g35</text>
<text text-anchor="start" x="8" y="-314.3" font-family="Times,serif" font-size="14.00"> v2 = g29</text>
<text text-anchor="start" x="8" y="-299.3" font-family="Times,serif" font-size="14.00"> v3 = *(IntToPtrCastExpr&lt;ptr&gt;((v2 + 12)))</text>
<text text-anchor="start" x="8" y="-284.3" font-family="Times,serif" font-size="14.00"> g35 = v3</text>
<text text-anchor="start" x="8" y="-269.3" font-family="Times,serif" font-size="14.00"> v4 = *(IntToPtrCastExpr&lt;ptr&gt;((v2 + 8)))</text>
<text text-anchor="start" x="8" y="-254.3" font-family="Times,serif" font-size="14.00"> g29 = v4</text>
<text text-anchor="start" x="8" y="-239.3" font-family="Times,serif" font-size="14.00"> v5 = (*(IntToPtrCastExpr&lt;ptr&gt;((v2 + 4))) &#45; v3)</text>
<text text-anchor="start" x="8" y="-224.3" font-family="Times,serif" font-size="14.00"> g37 = v5</text>
<text text-anchor="start" x="8" y="-209.3" font-family="Times,serif" font-size="14.00"> g33 = (*(IntToPtrCastExpr&lt;ptr&gt;(v2)) + v3)</text>
<text text-anchor="start" x="8" y="-194.3" font-family="Times,serif" font-size="14.00"> v6 = (v5 &#45; v4)</text>
<text text-anchor="start" x="8" y="-179.3" font-family="Times,serif" font-size="14.00"> g8 = (((v6 ^ v5) &amp; (v4 ^ v5)) &lt; 0)</text>
<text text-anchor="start" x="8" y="-164.3" font-family="Times,serif" font-size="14.00"> g7 = (v6 &lt; 0)</text>
<text text-anchor="start" x="8" y="-149.3" font-family="Times,serif" font-size="14.00"> g9 = (v5 == v4)</text>
<text text-anchor="start" x="8" y="-134.3" font-family="Times,serif" font-size="14.00"> *(IntToPtrCastExpr&lt;ptr&gt;(g36)) = (v4 if (v5 &gt; v4) else v5)</text>
<text text-anchor="start" x="8" y="-119.3" font-family="Times,serif" font-size="14.00"> *(IntToPtrCastExpr&lt;ptr&gt;(g30)) = g33</text>
<text text-anchor="start" x="8" y="-104.3" font-family="Times,serif" font-size="14.00"> IntToPtrCastExpr&lt;ptr&gt;(v1)()</text>
</g>
<!-- Node0x47e01400&#45;&gt;Node0x47e04ce0 -->
<g id="edge1" class="edge"><title>Node0x47e01400&#45;&gt;Node0x47e04ce0</title>
<path fill="none" stroke="black" d="M219,-396.473C219,-389.24 219,-380.097 219,-369.831"/>
<polygon fill="black" stroke="black" points="222.5,-369.67 219,-359.67 215.5,-369.67 222.5,-369.67"/>
</g>
<!-- Node0x47e02830 -->
<g id="node3" class="node"><title>Node0x47e02830</title>
<polygon fill="none" stroke="black" points="192,-23.5 192,-59.5 246,-59.5 246,-23.5 192,-23.5"/>
<text text-anchor="start" x="200" y="-37.8" font-family="Times,serif" font-size="14.00">exit:</text>
</g>
<!-- Node0x47e04ce0&#45;&gt;Node0x47e02830 -->
<g id="edge2" class="edge"><title>Node0x47e04ce0&#45;&gt;Node0x47e02830</title>
<path fill="none" stroke="black" d="M219,-96.361C219,-86.7102 219,-77.7416 219,-70.0001"/>
<polygon fill="black" stroke="black" points="222.5,-69.93 219,-59.93 215.5,-69.93 222.5,-69.93"/>
</g>
</g>
</svg>
