<?xml version="1.0" encoding="UTF-8" standalone="no"?>
<!DOCTYPE svg PUBLIC "-//W3C//DTD SVG 1.1//EN"
 "http://www.w3.org/Graphics/SVG/1.1/DTD/svg11.dtd">
<!-- Generated by graphviz version 2.38.0 (20140413.2041)
 -->
<!-- Title: Control&#45;flow graph for function &#39;function_13370()&#39;. Pages: 1 -->
<svg width="595pt" height="785pt"
 viewBox="0.00 0.00 595.00 785.00" xmlns="http://www.w3.org/2000/svg" xmlns:xlink="http://www.w3.org/1999/xlink">
<g id="graph0" class="graph" transform="scale(1 1) rotate(0) translate(4 781)">
<title>Control&#45;flow graph for function &#39;function_13370()&#39;.</title>
<polygon fill="white" stroke="none" points="-4,4 -4,-781 591,-781 591,4 -4,4"/>
<text text-anchor="middle" x="293.5" y="-7.8" font-family="Times,serif" font-size="14.00">Control&#45;flow graph for function &#39;function_13370()&#39;.</text>
<!-- Node0x37592000 -->
<g id="node1" class="node"><title>Node0x37592000</title>
<polygon fill="none" stroke="black" points="496.5,-740.5 496.5,-776.5 555.5,-776.5 555.5,-740.5 496.5,-740.5"/>
<text text-anchor="start" x="504.5" y="-754.8" font-family="Times,serif" font-size="14.00">entry:</text>
</g>
<!-- Node0x37590300 -->
<g id="node2" class="node"><title>Node0x37590300</title>
<polygon fill="none" stroke="black" points="473,-649.5 473,-702.5 579,-702.5 579,-649.5 473,-649.5"/>
<text text-anchor="start" x="481" y="-687.3" font-family="Times,serif" font-size="14.00">0x1f3450c0:</text>
<text text-anchor="start" x="481" y="-672.3" font-family="Times,serif" font-size="14.00"> v1 = g29</text>
<text text-anchor="start" x="481" y="-657.3" font-family="Times,serif" font-size="14.00"> v2 = g30</text>
</g>
<!-- Node0x37592000&#45;&gt;Node0x37590300 -->
<g id="edge1" class="edge"><title>Node0x37592000&#45;&gt;Node0x37590300</title>
<path fill="none" stroke="black" d="M526,-740.428C526,-732.361 526,-722.411 526,-712.802"/>
<polygon fill="black" stroke="black" points="529.5,-712.616 526,-702.616 522.5,-712.616 529.5,-712.616"/>
</g>
<!-- Node0x375920a0 -->
<g id="node3" class="node"><title>Node0x375920a0</title>
<polygon fill="none" stroke="black" points="475.5,-573.5 475.5,-611.5 576.5,-611.5 576.5,-573.5 475.5,-573.5"/>
<text text-anchor="start" x="483.5" y="-596.3" font-family="Times,serif" font-size="14.00">0x7f87b90:</text>
<text text-anchor="start" x="483.5" y="-581.3" font-family="Times,serif" font-size="14.00"> while True:</text>
</g>
<!-- Node0x37590300&#45;&gt;Node0x375920a0 -->
<g id="edge2" class="edge"><title>Node0x37590300&#45;&gt;Node0x375920a0</title>
<path fill="none" stroke="black" d="M526,-649.213C526,-640.526 526,-630.787 526,-621.91"/>
<polygon fill="black" stroke="black" points="529.5,-621.638 526,-611.638 522.5,-621.638 529.5,-621.638"/>
</g>
<!-- Node0x37593230 -->
<g id="node4" class="node"><title>Node0x37593230</title>
<polygon fill="none" stroke="black" points="252,-483.5 252,-521.5 530,-521.5 530,-483.5 252,-483.5"/>
<text text-anchor="start" x="260" y="-506.3" font-family="Times,serif" font-size="14.00">0x1f3451a0:</text>
<text text-anchor="start" x="260" y="-491.3" font-family="Times,serif" font-size="14.00"> v3 = *(IntToPtrCastExpr&lt;ptr&gt;(v2))</text>
</g>
<!-- Node0x375920a0&#45;&gt;Node0x37593230 -->
<g id="edge3" class="edge"><title>Node0x375920a0&#45;&gt;Node0x37593230</title>
<path fill="none" stroke="black" d="M498.355,-573.48C477.925,-560.162 449.905,-541.898 427.615,-527.367"/>
<polygon fill="black" stroke="black" points="429.361,-524.328 419.072,-521.799 425.538,-530.192 429.361,-524.328"/>
<text text-anchor="middle" x="483" y="-543.8" font-family="Times,serif" font-size="14.00">True</text>
</g>
<!-- Node0x375939a0 -->
<g id="node5" class="node"><title>Node0x375939a0</title>
<polygon fill="none" stroke="black" points="145,-407.5 145,-445.5 459,-445.5 459,-407.5 145,-407.5"/>
<text text-anchor="start" x="153" y="-430.3" font-family="Times,serif" font-size="14.00">0x7f86c00:</text>
<text text-anchor="start" x="153" y="-415.3" font-family="Times,serif" font-size="14.00"> if (v3 != *(IntToPtrCastExpr&lt;ptr&gt;(v1))):</text>
</g>
<!-- Node0x37593230&#45;&gt;Node0x375939a0 -->
<g id="edge4" class="edge"><title>Node0x37593230&#45;&gt;Node0x375939a0</title>
<path fill="none" stroke="black" d="M369,-483.208C357.683,-473.799 343.732,-462.199 331.496,-452.025"/>
<polygon fill="black" stroke="black" points="333.674,-449.284 323.747,-445.582 329.199,-454.666 333.674,-449.284"/>
</g>
<!-- Node0x37594bf0 -->
<g id="node6" class="node"><title>Node0x37594bf0</title>
<polygon fill="none" stroke="black" points="0,-245.5 0,-298.5 98,-298.5 98,-245.5 0,-245.5"/>
<text text-anchor="start" x="8" y="-283.3" font-family="Times,serif" font-size="14.00">0x7f86590:</text>
<text text-anchor="start" x="8" y="-268.3" font-family="Times,serif" font-size="14.00"> g29 = 0</text>
<text text-anchor="start" x="8" y="-253.3" font-family="Times,serif" font-size="14.00"> return</text>
</g>
<!-- Node0x375939a0&#45;&gt;Node0x37594bf0 -->
<g id="edge5" class="edge"><title>Node0x375939a0&#45;&gt;Node0x37594bf0</title>
<path fill="none" stroke="black" d="M144.832,-421.351C95.4948,-416.499 49.75,-407.04 34,-389 14.9342,-367.162 21.7978,-333.606 31.6003,-308.192"/>
<polygon fill="black" stroke="black" points="34.8591,-309.471 35.4532,-298.893 28.3921,-306.791 34.8591,-309.471"/>
<text text-anchor="middle" x="166" y="-377.8" font-family="Times,serif" font-size="14.00">v3 != *(IntToPtrCastExpr&lt;ptr&gt;(v1))</text>
</g>
<!-- Node0x375943f0 -->
<g id="node7" class="node"><title>Node0x375943f0</title>
<polygon fill="none" stroke="black" points="247,-317.5 247,-355.5 357,-355.5 357,-317.5 247,-317.5"/>
<text text-anchor="start" x="255" y="-340.3" font-family="Times,serif" font-size="14.00">0x7f87540:</text>
<text text-anchor="start" x="255" y="-325.3" font-family="Times,serif" font-size="14.00"> if (v3 == 0):</text>
</g>
<!-- Node0x375939a0&#45;&gt;Node0x375943f0 -->
<g id="edge6" class="edge"><title>Node0x375939a0&#45;&gt;Node0x375943f0</title>
<path fill="none" stroke="black" d="M302,-407.266C302,-395.349 302,-379.538 302,-365.982"/>
<polygon fill="black" stroke="black" points="305.5,-365.71 302,-355.71 298.5,-365.71 305.5,-365.71"/>
<text text-anchor="middle" x="437" y="-377.8" font-family="Times,serif" font-size="14.00">v3 == *(IntToPtrCastExpr&lt;ptr&gt;(v1))</text>
</g>
<!-- Node0x37593430 -->
<g id="node8" class="node"><title>Node0x37593430</title>
<polygon fill="none" stroke="black" points="117,-23.5 117,-59.5 171,-59.5 171,-23.5 117,-23.5"/>
<text text-anchor="start" x="125" y="-37.8" font-family="Times,serif" font-size="14.00">exit:</text>
</g>
<!-- Node0x37594bf0&#45;&gt;Node0x37593430 -->
<g id="edge7" class="edge"><title>Node0x37594bf0&#45;&gt;Node0x37593430</title>
<path fill="none" stroke="black" d="M59.713,-245.232C77.8937,-201.503 114.6,-113.214 132.984,-68.9954"/>
<polygon fill="black" stroke="black" points="136.218,-70.3347 136.825,-59.7573 129.754,-67.6474 136.218,-70.3347"/>
</g>
<!-- Node0x37594ff0 -->
<g id="node9" class="node"><title>Node0x37594ff0</title>
<polygon fill="none" stroke="black" points="179,-181 179,-219 277,-219 277,-181 179,-181"/>
<text text-anchor="start" x="187" y="-203.8" font-family="Times,serif" font-size="14.00">0x7f87290:</text>
<text text-anchor="start" x="187" y="-188.8" font-family="Times,serif" font-size="14.00"> break</text>
</g>
<!-- Node0x375943f0&#45;&gt;Node0x37594ff0 -->
<g id="edge8" class="edge"><title>Node0x375943f0&#45;&gt;Node0x37594ff0</title>
<path fill="none" stroke="black" d="M292.02,-317.361C279.386,-294.398 257.511,-254.638 242.897,-228.077"/>
<polygon fill="black" stroke="black" points="245.945,-226.356 238.058,-219.281 239.812,-229.73 245.945,-226.356"/>
<text text-anchor="middle" x="311" y="-268.3" font-family="Times,serif" font-size="14.00">v3 == 0</text>
</g>
<!-- Node0x375946f0 -->
<g id="node10" class="node"><title>Node0x375946f0</title>
<polygon fill="none" stroke="black" points="387.5,-173.5 387.5,-226.5 504.5,-226.5 504.5,-173.5 387.5,-173.5"/>
<text text-anchor="start" x="395.5" y="-211.3" font-family="Times,serif" font-size="14.00">0x7f87000:</text>
<text text-anchor="start" x="395.5" y="-196.3" font-family="Times,serif" font-size="14.00"> v1 = (v1 + 1)</text>
<text text-anchor="start" x="395.5" y="-181.3" font-family="Times,serif" font-size="14.00"> v2 = (v2 + 1)</text>
</g>
<!-- Node0x375943f0&#45;&gt;Node0x375946f0 -->
<g id="edge9" class="edge"><title>Node0x375943f0&#45;&gt;Node0x375946f0</title>
<path fill="none" stroke="black" d="M324.119,-317.209C330.9,-311.472 338.33,-305.055 345,-299 368.26,-277.886 393.633,-253.261 413.129,-233.977"/>
<polygon fill="black" stroke="black" points="415.662,-236.394 420.296,-226.866 410.732,-231.424 415.662,-236.394"/>
<text text-anchor="middle" x="428" y="-268.3" font-family="Times,serif" font-size="14.00">v3 != 0</text>
</g>
<!-- Node0x37592ae0 -->
<g id="node11" class="node"><title>Node0x37592ae0</title>
<polygon fill="none" stroke="black" points="153,-97.5 153,-135.5 251,-135.5 251,-97.5 153,-97.5"/>
<text text-anchor="start" x="161" y="-120.3" font-family="Times,serif" font-size="14.00">0x7f87880:</text>
<text text-anchor="start" x="161" y="-105.3" font-family="Times,serif" font-size="14.00"> g29 = 1</text>
</g>
<!-- Node0x37594ff0&#45;&gt;Node0x37592ae0 -->
<g id="edge10" class="edge"><title>Node0x37594ff0&#45;&gt;Node0x37592ae0</title>
<path fill="none" stroke="black" d="M222.23,-180.913C218.897,-170.467 214.635,-157.107 210.884,-145.347"/>
<polygon fill="black" stroke="black" points="214.128,-144 207.754,-135.537 207.459,-146.128 214.128,-144"/>
</g>
<!-- Node0x375946f0&#45;&gt;Node0x375920a0 -->
<g id="edge11" class="edge"><title>Node0x375946f0&#45;&gt;Node0x375920a0</title>
<path fill="none" stroke="black" d="M501.322,-226.569C540.824,-249.055 587,-285.939 587,-335.5 587,-503.5 587,-503.5 587,-503.5 587,-527.623 571.326,-549.901 555.869,-566.007"/>
<polygon fill="black" stroke="black" points="553.034,-563.886 548.368,-573.398 557.947,-568.872 553.034,-563.886"/>
</g>
<!-- Node0x37592ae0&#45;&gt;Node0x37593430 -->
<g id="edge12" class="edge"><title>Node0x37592ae0&#45;&gt;Node0x37593430</title>
<path fill="none" stroke="black" d="M187.663,-97.4551C180.534,-88.483 171.802,-77.492 164.025,-67.7035"/>
<polygon fill="black" stroke="black" points="166.734,-65.487 157.773,-59.8347 161.253,-69.8416 166.734,-65.487"/>
</g>
</g>
</svg>
