<?xml version="1.0" encoding="UTF-8" standalone="no"?>
<!DOCTYPE svg PUBLIC "-//W3C//DTD SVG 1.1//EN"
 "http://www.w3.org/Graphics/SVG/1.1/DTD/svg11.dtd">
<!-- Generated by graphviz version 2.38.0 (20140413.2041)
 -->
<!-- Title: Control&#45;flow graph for function &#39;function_17b54()&#39;. Pages: 1 -->
<svg width="621pt" height="1649pt"
 viewBox="0.00 0.00 621.00 1649.00" xmlns="http://www.w3.org/2000/svg" xmlns:xlink="http://www.w3.org/1999/xlink">
<g id="graph0" class="graph" transform="scale(1 1) rotate(0) translate(4 1645)">
<title>Control&#45;flow graph for function &#39;function_17b54()&#39;.</title>
<polygon fill="white" stroke="none" points="-4,4 -4,-1645 617,-1645 617,4 -4,4"/>
<text text-anchor="middle" x="306.5" y="-7.8" font-family="Times,serif" font-size="14.00">Control&#45;flow graph for function &#39;function_17b54()&#39;.</text>
<!-- Node0x1f09ac40 -->
<g id="node1" class="node"><title>Node0x1f09ac40</title>
<polygon fill="none" stroke="black" points="314,-1604.5 314,-1640.5 373,-1640.5 373,-1604.5 314,-1604.5"/>
<text text-anchor="start" x="322" y="-1618.8" font-family="Times,serif" font-size="14.00">entry:</text>
</g>
<!-- Node0x242f8ef0 -->
<g id="node2" class="node"><title>Node0x242f8ef0</title>
<polygon fill="none" stroke="black" points="74,-1273.5 74,-1566.5 613,-1566.5 613,-1273.5 74,-1273.5"/>
<text text-anchor="start" x="82" y="-1551.3" font-family="Times,serif" font-size="14.00">0x17415aa0:</text>
<text text-anchor="start" x="82" y="-1536.3" font-family="Times,serif" font-size="14.00"> v1 = g38</text>
<text text-anchor="start" x="82" y="-1521.3" font-family="Times,serif" font-size="14.00"> v2 = g39</text>
<text text-anchor="start" x="82" y="-1506.3" font-family="Times,serif" font-size="14.00"> v3 = g40</text>
<text text-anchor="start" x="82" y="-1491.3" font-family="Times,serif" font-size="14.00"> v4 = g41</text>
<text text-anchor="start" x="82" y="-1476.3" font-family="Times,serif" font-size="14.00"> v5 = g42</text>
<text text-anchor="start" x="82" y="-1461.3" font-family="Times,serif" font-size="14.00"> v6 = g31</text>
<text text-anchor="start" x="82" y="-1446.3" font-family="Times,serif" font-size="14.00"> g31 = 5748</text>
<text text-anchor="start" x="82" y="-1431.3" font-family="Times,serif" font-size="14.00"> g42 = 165012</text>
<text text-anchor="start" x="82" y="-1416.3" font-family="Times,serif" font-size="14.00"> g40 = g29</text>
<text text-anchor="start" x="82" y="-1401.3" font-family="Times,serif" font-size="14.00"> g29 = g18</text>
<text text-anchor="start" x="82" y="-1386.3" font-family="Times,serif" font-size="14.00"> g41 = g37</text>
<text text-anchor="start" x="82" y="-1371.3" font-family="Times,serif" font-size="14.00"> g38 = g30</text>
<text text-anchor="start" x="82" y="-1356.3" font-family="Times,serif" font-size="14.00"> g39 = g36</text>
<text text-anchor="start" x="82" y="-1341.3" font-family="Times,serif" font-size="14.00"> function_fb60()</text>
<text text-anchor="start" x="82" y="-1326.3" font-family="Times,serif" font-size="14.00"> v7 = g29</text>
<text text-anchor="start" x="82" y="-1311.3" font-family="Times,serif" font-size="14.00"> v8 = g42</text>
<text text-anchor="start" x="82" y="-1296.3" font-family="Times,serif" font-size="14.00"> v9 = *(IntToPtrCastExpr&lt;ptr&gt;(*(IntToPtrCastExpr&lt;ptr&gt;((v8 + 200)))))</text>
<text text-anchor="start" x="82" y="-1281.3" font-family="Times,serif" font-size="14.00"> g33 = v9</text>
</g>
<!-- Node0x1f09ac40&#45;&gt;Node0x242f8ef0 -->
<g id="edge1" class="edge"><title>Node0x1f09ac40&#45;&gt;Node0x242f8ef0</title>
<path fill="none" stroke="black" d="M343.5,-1604.41C343.5,-1597.01 343.5,-1587.6 343.5,-1576.97"/>
<polygon fill="black" stroke="black" points="347,-1576.89 343.5,-1566.89 340,-1576.89 347,-1576.89"/>
</g>
<!-- Node0x242f5910 -->
<g id="node3" class="node"><title>Node0x242f5910</title>
<polygon fill="none" stroke="black" points="291.5,-1197.5 291.5,-1235.5 395.5,-1235.5 395.5,-1197.5 291.5,-1197.5"/>
<text text-anchor="start" x="299.5" y="-1220.3" font-family="Times,serif" font-size="14.00">0x8811cf0:</text>
<text text-anchor="start" x="299.5" y="-1205.3" font-family="Times,serif" font-size="14.00"> if (v9 != 0):</text>
</g>
<!-- Node0x242f8ef0&#45;&gt;Node0x242f5910 -->
<g id="edge2" class="edge"><title>Node0x242f8ef0&#45;&gt;Node0x242f5910</title>
<path fill="none" stroke="black" d="M343.5,-1273.36C343.5,-1263.25 343.5,-1253.89 343.5,-1245.85"/>
<polygon fill="black" stroke="black" points="347,-1245.73 343.5,-1235.73 340,-1245.73 347,-1245.73"/>
</g>
<!-- Node0x242fb300 -->
<g id="node4" class="node"><title>Node0x242fb300</title>
<polygon fill="none" stroke="black" points="131.5,-1062.5 131.5,-1145.5 343.5,-1145.5 343.5,-1062.5 131.5,-1062.5"/>
<text text-anchor="start" x="139.5" y="-1130.3" font-family="Times,serif" font-size="14.00">0x8810d10:</text>
<text text-anchor="start" x="139.5" y="-1115.3" font-family="Times,serif" font-size="14.00"> g29 = (v8 &#45; 6204)</text>
<text text-anchor="start" x="139.5" y="-1100.3" font-family="Times,serif" font-size="14.00"> g30 = g40</text>
<text text-anchor="start" x="139.5" y="-1085.3" font-family="Times,serif" font-size="14.00"> g36 = g38</text>
<text text-anchor="start" x="139.5" y="-1070.3" font-family="Times,serif" font-size="14.00"> imported_function_ord_0()</text>
</g>
<!-- Node0x242f5910&#45;&gt;Node0x242fb300 -->
<g id="edge3" class="edge"><title>Node0x242f5910&#45;&gt;Node0x242fb300</title>
<path fill="none" stroke="black" d="M325.996,-1197.25C314.475,-1185.24 298.811,-1168.91 283.863,-1153.33"/>
<polygon fill="black" stroke="black" points="286.052,-1150.56 276.604,-1145.76 281,-1155.4 286.052,-1150.56"/>
<text text-anchor="middle" x="333.5" y="-1167.8" font-family="Times,serif" font-size="14.00">v9 != 0</text>
</g>
<!-- Node0x242f5a60 -->
<g id="node5" class="node"><title>Node0x242f5a60</title>
<polygon fill="none" stroke="black" points="110,-836.5 110,-1024.5 565,-1024.5 565,-836.5 110,-836.5"/>
<text text-anchor="start" x="118" y="-1009.3" font-family="Times,serif" font-size="14.00">0x34456840:</text>
<text text-anchor="start" x="118" y="-994.3" font-family="Times,serif" font-size="14.00"> v10 = g38</text>
<text text-anchor="start" x="118" y="-979.3" font-family="Times,serif" font-size="14.00"> v11 = (v10 &#45; 1)</text>
<text text-anchor="start" x="118" y="-964.3" font-family="Times,serif" font-size="14.00"> g37 = v11</text>
<text text-anchor="start" x="118" y="-949.3" font-family="Times,serif" font-size="14.00"> g38 = g31</text>
<text text-anchor="start" x="118" y="-934.3" font-family="Times,serif" font-size="14.00"> g6 = (v11 &gt; 26)</text>
<text text-anchor="start" x="118" y="-919.3" font-family="Times,serif" font-size="14.00"> g8 = ((v11 &amp; (27 &#45; v10)) &lt; 0)</text>
<text text-anchor="start" x="118" y="-904.3" font-family="Times,serif" font-size="14.00"> g7 = (v10 &lt; 28)</text>
<text text-anchor="start" x="118" y="-889.3" font-family="Times,serif" font-size="14.00"> g9 = (v11 == 27)</text>
<text text-anchor="start" x="118" y="-874.3" font-family="Times,serif" font-size="14.00"> IntToPtrCastExpr&lt;ptr&gt;(ExtCastExpr&lt;int32&gt;((v11 &lt; 28)))()</text>
<text text-anchor="start" x="118" y="-859.3" font-family="Times,serif" font-size="14.00"> v12</text>
<text text-anchor="start" x="118" y="-844.3" font-family="Times,serif" font-size="14.00"> v13</text>
</g>
<!-- Node0x242f5910&#45;&gt;Node0x242f5a60 -->
<g id="edge4" class="edge"><title>Node0x242f5910&#45;&gt;Node0x242f5a60</title>
<path fill="none" stroke="black" d="M356.396,-1197.38C359.702,-1191.76 362.802,-1185.36 364.5,-1179 366.221,-1172.56 364.885,-1170.66 364.5,-1164 362.044,-1121.55 357.085,-1074.96 352.079,-1034.71"/>
<polygon fill="black" stroke="black" points="355.531,-1034.1 350.807,-1024.62 348.585,-1034.98 355.531,-1034.1"/>
<text text-anchor="middle" x="393.5" y="-1100.3" font-family="Times,serif" font-size="14.00">v9 == 0</text>
</g>
<!-- Node0x242fb300&#45;&gt;Node0x242f5a60 -->
<g id="edge5" class="edge"><title>Node0x242fb300&#45;&gt;Node0x242f5a60</title>
<path fill="none" stroke="black" d="M261.199,-1062.36C266.433,-1053.38 272.205,-1043.48 278.16,-1033.27"/>
<polygon fill="black" stroke="black" points="281.184,-1035.03 283.197,-1024.63 275.136,-1031.51 281.184,-1035.03"/>
</g>
<!-- Node0x242f9340 -->
<g id="node6" class="node"><title>Node0x242f9340</title>
<polygon fill="none" stroke="black" points="287,-760.5 287,-798.5 388,-798.5 388,-760.5 287,-760.5"/>
<text text-anchor="start" x="295" y="-783.3" font-family="Times,serif" font-size="14.00">0x8818e80:</text>
<text text-anchor="start" x="295" y="-768.3" font-family="Times,serif" font-size="14.00"> while True:</text>
</g>
<!-- Node0x242f5a60&#45;&gt;Node0x242f9340 -->
<g id="edge6" class="edge"><title>Node0x242f5a60&#45;&gt;Node0x242f9340</title>
<path fill="none" stroke="black" d="M337.5,-836.406C337.5,-826.426 337.5,-816.921 337.5,-808.673"/>
<polygon fill="black" stroke="black" points="341,-808.619 337.5,-798.619 334,-808.619 341,-808.619"/>
</g>
<!-- Node0x242fba00 -->
<g id="node7" class="node"><title>Node0x242fba00</title>
<polygon fill="none" stroke="black" points="0,-355.5 0,-708.5 355,-708.5 355,-355.5 0,-355.5"/>
<text text-anchor="start" x="8" y="-693.3" font-family="Times,serif" font-size="14.00">0x8814190:</text>
<text text-anchor="start" x="8" y="-678.3" font-family="Times,serif" font-size="14.00"> g33 = v7</text>
<text text-anchor="start" x="8" y="-663.3" font-family="Times,serif" font-size="14.00"> v14 = g42</text>
<text text-anchor="start" x="8" y="-648.3" font-family="Times,serif" font-size="14.00"> g37 = (v14 + 5748)</text>
<text text-anchor="start" x="8" y="-633.3" font-family="Times,serif" font-size="14.00"> *(IntToPtrCastExpr&lt;ptr&gt;((v14 + 7984))) = v7</text>
<text text-anchor="start" x="8" y="-618.3" font-family="Times,serif" font-size="14.00"> g38 = v1</text>
<text text-anchor="start" x="8" y="-603.3" font-family="Times,serif" font-size="14.00"> g39 = v2</text>
<text text-anchor="start" x="8" y="-588.3" font-family="Times,serif" font-size="14.00"> g40 = v3</text>
<text text-anchor="start" x="8" y="-573.3" font-family="Times,serif" font-size="14.00"> g41 = v4</text>
<text text-anchor="start" x="8" y="-558.3" font-family="Times,serif" font-size="14.00"> g42 = v5</text>
<text text-anchor="start" x="8" y="-543.3" font-family="Times,serif" font-size="14.00"> g31 = v6</text>
<text text-anchor="start" x="8" y="-528.3" font-family="Times,serif" font-size="14.00"> v15</text>
<text text-anchor="start" x="8" y="-513.3" font-family="Times,serif" font-size="14.00"> g34 = v15</text>
<text text-anchor="start" x="8" y="-498.3" font-family="Times,serif" font-size="14.00"> IntToPtrCastExpr&lt;ptr&gt;(g35)()</text>
<text text-anchor="start" x="8" y="-483.3" font-family="Times,serif" font-size="14.00"> v12 = IntToPtrCastExpr&lt;ptr&gt;((g32 &#45; 2824))</text>
<text text-anchor="start" x="8" y="-468.3" font-family="Times,serif" font-size="14.00"> v16 = *(v12)</text>
<text text-anchor="start" x="8" y="-453.3" font-family="Times,serif" font-size="14.00"> g36 = v16</text>
<text text-anchor="start" x="8" y="-438.3" font-family="Times,serif" font-size="14.00"> v13 = *(IntToPtrCastExpr&lt;ptr&gt;((v16 + 168)))</text>
<text text-anchor="start" x="8" y="-423.3" font-family="Times,serif" font-size="14.00"> g37 = v13</text>
<text text-anchor="start" x="8" y="-408.3" font-family="Times,serif" font-size="14.00"> g6 = True</text>
<text text-anchor="start" x="8" y="-393.3" font-family="Times,serif" font-size="14.00"> g8 = False</text>
<text text-anchor="start" x="8" y="-378.3" font-family="Times,serif" font-size="14.00"> g7 = (v13 &lt; 0)</text>
<text text-anchor="start" x="8" y="-363.3" font-family="Times,serif" font-size="14.00"> g9 = (v13 == 0)</text>
</g>
<!-- Node0x242f9340&#45;&gt;Node0x242fba00 -->
<g id="edge7" class="edge"><title>Node0x242f9340&#45;&gt;Node0x242fba00</title>
<path fill="none" stroke="black" d="M325.735,-760.448C318.665,-749.599 308.873,-734.575 297.66,-717.37"/>
<polygon fill="black" stroke="black" points="300.439,-715.224 292.047,-708.758 294.575,-719.046 300.439,-715.224"/>
<text text-anchor="middle" x="328.5" y="-730.8" font-family="Times,serif" font-size="14.00">True</text>
</g>
<!-- Node0x37c08940 -->
<g id="node8" class="node"><title>Node0x37c08940</title>
<polygon fill="none" stroke="black" points="206,-279.5 206,-317.5 319,-317.5 319,-279.5 206,-279.5"/>
<text text-anchor="start" x="214" y="-302.3" font-family="Times,serif" font-size="14.00">0x8817720:</text>
<text text-anchor="start" x="214" y="-287.3" font-family="Times,serif" font-size="14.00"> if (v13 != 0):</text>
</g>
<!-- Node0x242fba00&#45;&gt;Node0x37c08940 -->
<g id="edge8" class="edge"><title>Node0x242fba00&#45;&gt;Node0x37c08940</title>
<path fill="none" stroke="black" d="M242.032,-355.245C245.857,-344.829 249.352,-335.309 252.33,-327.199"/>
<polygon fill="black" stroke="black" points="255.65,-328.312 255.811,-317.718 249.078,-325.899 255.65,-328.312"/>
</g>
<!-- Node0x37c08940&#45;&gt;Node0x242f9340 -->
<g id="edge10" class="edge"><title>Node0x37c08940&#45;&gt;Node0x242f9340</title>
<path fill="none" stroke="black" d="M319.021,-317.542C336.377,-326.035 353.517,-338.124 363.5,-355 440.532,-485.225 377.215,-679.107 349.175,-750.666"/>
<polygon fill="black" stroke="black" points="345.78,-749.73 345.315,-760.314 352.279,-752.33 345.78,-749.73"/>
<text text-anchor="middle" x="434" y="-528.3" font-family="Times,serif" font-size="14.00">v13 == 0</text>
</g>
<!-- Node0x37c09140 -->
<g id="node9" class="node"><title>Node0x37c09140</title>
<polygon fill="none" stroke="black" points="207,-189.5 207,-227.5 308,-227.5 308,-189.5 207,-189.5"/>
<text text-anchor="start" x="215" y="-212.3" font-family="Times,serif" font-size="14.00">0x8817210:</text>
<text text-anchor="start" x="215" y="-197.3" font-family="Times,serif" font-size="14.00"> break</text>
</g>
<!-- Node0x37c08940&#45;&gt;Node0x37c09140 -->
<g id="edge9" class="edge"><title>Node0x37c08940&#45;&gt;Node0x37c09140</title>
<path fill="none" stroke="black" d="M261.464,-279.266C260.787,-267.349 259.889,-251.538 259.118,-237.982"/>
<polygon fill="black" stroke="black" points="262.596,-237.496 258.535,-227.71 255.608,-237.893 262.596,-237.496"/>
<text text-anchor="middle" x="292" y="-249.8" font-family="Times,serif" font-size="14.00">v13 != 0</text>
</g>
<!-- Node0x242f9da0 -->
<g id="node10" class="node"><title>Node0x242f9da0</title>
<polygon fill="none" stroke="black" points="25.5,-23.5 25.5,-151.5 381.5,-151.5 381.5,-23.5 25.5,-23.5"/>
<text text-anchor="start" x="33.5" y="-136.3" font-family="Times,serif" font-size="14.00">0x178628b0:</text>
<text text-anchor="start" x="33.5" y="-121.3" font-family="Times,serif" font-size="14.00"> v17 = *(v12)</text>
<text text-anchor="start" x="33.5" y="-106.3" font-family="Times,serif" font-size="14.00"> g33 = v17</text>
<text text-anchor="start" x="33.5" y="-91.3" font-family="Times,serif" font-size="14.00"> g29 = g38</text>
<text text-anchor="start" x="33.5" y="-76.3" font-family="Times,serif" font-size="14.00"> g30 = *(IntToPtrCastExpr&lt;ptr&gt;((v17 + 176)))</text>
<text text-anchor="start" x="33.5" y="-61.3" font-family="Times,serif" font-size="14.00"> g35 = 98572</text>
<text text-anchor="start" x="33.5" y="-46.3" font-family="Times,serif" font-size="14.00"> IntToPtrCastExpr&lt;ptr&gt;(v13)()</text>
<text text-anchor="start" x="33.5" y="-31.3" font-family="Times,serif" font-size="14.00"> goto 0x8814190</text>
</g>
<!-- Node0x37c09140&#45;&gt;Node0x242f9da0 -->
<g id="edge11" class="edge"><title>Node0x37c09140&#45;&gt;Node0x242f9da0</title>
<path fill="none" stroke="black" d="M249.299,-189.426C245.67,-181.431 241.143,-171.453 236.357,-160.908"/>
<polygon fill="black" stroke="black" points="239.421,-159.189 232.102,-151.529 233.047,-162.082 239.421,-159.189"/>
</g>
<!-- Node0x242f9da0&#45;&gt;Node0x242fba00 -->
<g id="edge12" class="edge"><title>Node0x242f9da0&#45;&gt;Node0x242fba00</title>
<path fill="none" stroke="black" d="M199.711,-151.76C198.975,-164.11 198.211,-176.961 197.5,-189 194.507,-239.652 191.288,-294.526 188.325,-345.183"/>
<polygon fill="black" stroke="black" points="184.826,-345.068 187.736,-355.255 191.814,-345.477 184.826,-345.068"/>
</g>
<!-- Node0x242f5b60 -->
<g id="node11" class="node"><title>Node0x242f5b60</title>
<polygon fill="none" stroke="black" points="391.5,-1604.5 391.5,-1640.5 445.5,-1640.5 445.5,-1604.5 391.5,-1604.5"/>
<text text-anchor="start" x="399.5" y="-1618.8" font-family="Times,serif" font-size="14.00">exit:</text>
</g>
</g>
</svg>
