<?xml version="1.0" encoding="UTF-8" standalone="no"?>
<!DOCTYPE svg PUBLIC "-//W3C//DTD SVG 1.1//EN"
 "http://www.w3.org/Graphics/SVG/1.1/DTD/svg11.dtd">
<!-- Generated by graphviz version 2.38.0 (20140413.2041)
 -->
<!-- Title: Control&#45;flow graph for function &#39;function_7614()&#39;. Pages: 1 -->
<svg width="424pt" height="760pt"
 viewBox="0.00 0.00 424.00 760.00" xmlns="http://www.w3.org/2000/svg" xmlns:xlink="http://www.w3.org/1999/xlink">
<g id="graph0" class="graph" transform="scale(1 1) rotate(0) translate(4 756)">
<title>Control&#45;flow graph for function &#39;function_7614()&#39;.</title>
<polygon fill="white" stroke="none" points="-4,4 -4,-756 420,-756 420,4 -4,4"/>
<text text-anchor="middle" x="208" y="-7.8" font-family="Times,serif" font-size="14.00">Control&#45;flow graph for function &#39;function_7614()&#39;.</text>
<!-- Node0x30c86540 -->
<g id="node1" class="node"><title>Node0x30c86540</title>
<polygon fill="none" stroke="black" points="227.5,-715.5 227.5,-751.5 286.5,-751.5 286.5,-715.5 227.5,-715.5"/>
<text text-anchor="start" x="235.5" y="-729.8" font-family="Times,serif" font-size="14.00">entry:</text>
</g>
<!-- Node0x3d9dcf70 -->
<g id="node2" class="node"><title>Node0x3d9dcf70</title>
<polygon fill="none" stroke="black" points="190,-534.5 190,-677.5 324,-677.5 324,-534.5 190,-534.5"/>
<text text-anchor="start" x="198" y="-662.3" font-family="Times,serif" font-size="14.00">0x158b9a70:</text>
<text text-anchor="start" x="198" y="-647.3" font-family="Times,serif" font-size="14.00"> v1 = g38</text>
<text text-anchor="start" x="198" y="-632.3" font-family="Times,serif" font-size="14.00"> v2 = g39</text>
<text text-anchor="start" x="198" y="-617.3" font-family="Times,serif" font-size="14.00"> g38 = g29</text>
<text text-anchor="start" x="198" y="-602.3" font-family="Times,serif" font-size="14.00"> function_66a8()</text>
<text text-anchor="start" x="198" y="-587.3" font-family="Times,serif" font-size="14.00"> v3 = g29</text>
<text text-anchor="start" x="198" y="-572.3" font-family="Times,serif" font-size="14.00"> g9 = (v3 == 0)</text>
<text text-anchor="start" x="198" y="-557.3" font-family="Times,serif" font-size="14.00"> g39 = v3</text>
<text text-anchor="start" x="198" y="-542.3" font-family="Times,serif" font-size="14.00"> v4</text>
</g>
<!-- Node0x30c86540&#45;&gt;Node0x3d9dcf70 -->
<g id="edge1" class="edge"><title>Node0x30c86540&#45;&gt;Node0x3d9dcf70</title>
<path fill="none" stroke="black" d="M257,-715.313C257,-707.682 257,-698.101 257,-687.811"/>
<polygon fill="black" stroke="black" points="260.5,-687.769 257,-677.769 253.5,-687.769 260.5,-687.769"/>
</g>
<!-- Node0x1b1b60e0 -->
<g id="node3" class="node"><title>Node0x1b1b60e0</title>
<polygon fill="none" stroke="black" points="205,-443.5 205,-496.5 309,-496.5 309,-443.5 205,-443.5"/>
<text text-anchor="start" x="213" y="-481.3" font-family="Times,serif" font-size="14.00">0x67ca660:</text>
<text text-anchor="start" x="213" y="-466.3" font-family="Times,serif" font-size="14.00"> if (v3 != 0):</text>
<text text-anchor="start" x="213" y="-451.3" font-family="Times,serif" font-size="14.00"> else:</text>
</g>
<!-- Node0x3d9dcf70&#45;&gt;Node0x1b1b60e0 -->
<g id="edge2" class="edge"><title>Node0x3d9dcf70&#45;&gt;Node0x1b1b60e0</title>
<path fill="none" stroke="black" d="M257,-534.468C257,-524.876 257,-515.38 257,-506.77"/>
<polygon fill="black" stroke="black" points="260.5,-506.761 257,-496.761 253.5,-506.761 260.5,-506.761"/>
</g>
<!-- Node0x3146ab30 -->
<g id="node4" class="node"><title>Node0x3146ab30</title>
<polygon fill="none" stroke="black" points="0,-248.5 0,-391.5 298,-391.5 298,-248.5 0,-248.5"/>
<text text-anchor="start" x="8" y="-376.3" font-family="Times,serif" font-size="14.00">0x67d29b0:</text>
<text text-anchor="start" x="8" y="-361.3" font-family="Times,serif" font-size="14.00"> g29 = g38</text>
<text text-anchor="start" x="8" y="-346.3" font-family="Times,serif" font-size="14.00"> function_70b8()</text>
<text text-anchor="start" x="8" y="-331.3" font-family="Times,serif" font-size="14.00"> g36 = 0</text>
<text text-anchor="start" x="8" y="-316.3" font-family="Times,serif" font-size="14.00"> g29 = *(IntToPtrCastExpr&lt;ptr&gt;(g38))</text>
<text text-anchor="start" x="8" y="-301.3" font-family="Times,serif" font-size="14.00"> g30 = 8</text>
<text text-anchor="start" x="8" y="-286.3" font-family="Times,serif" font-size="14.00"> g37 = 0</text>
<text text-anchor="start" x="8" y="-271.3" font-family="Times,serif" font-size="14.00"> function_10418()</text>
<text text-anchor="start" x="8" y="-256.3" font-family="Times,serif" font-size="14.00"> v4 = g39</text>
</g>
<!-- Node0x1b1b60e0&#45;&gt;Node0x3146ab30 -->
<g id="edge3" class="edge"><title>Node0x1b1b60e0&#45;&gt;Node0x3146ab30</title>
<path fill="none" stroke="black" d="M238.188,-443.22C229.233,-430.949 217.992,-415.544 206.537,-399.847"/>
<polygon fill="black" stroke="black" points="209.261,-397.642 200.539,-391.627 203.606,-401.768 209.261,-397.642"/>
<text text-anchor="middle" x="250" y="-413.8" font-family="Times,serif" font-size="14.00">v3 != 0</text>
</g>
<!-- Node0x3b9d0c60 -->
<g id="node5" class="node"><title>Node0x3b9d0c60</title>
<polygon fill="none" stroke="black" points="316,-301 316,-339 416,-339 416,-301 316,-301"/>
<text text-anchor="start" x="324" y="-323.8" font-family="Times,serif" font-size="14.00">0x67ca780:</text>
<text text-anchor="start" x="324" y="-308.8" font-family="Times,serif" font-size="14.00"> v4 = 0</text>
</g>
<!-- Node0x1b1b60e0&#45;&gt;Node0x3b9d0c60 -->
<g id="edge4" class="edge"><title>Node0x1b1b60e0&#45;&gt;Node0x3b9d0c60</title>
<path fill="none" stroke="black" d="M275.986,-443.22C295.8,-416.317 326.706,-374.354 346.653,-347.269"/>
<polygon fill="black" stroke="black" points="349.604,-349.164 352.716,-339.037 343.968,-345.013 349.604,-349.164"/>
<text text-anchor="middle" x="329" y="-413.8" font-family="Times,serif" font-size="14.00">v3 == 0</text>
</g>
<!-- Node0x3d6463a0 -->
<g id="node6" class="node"><title>Node0x3d6463a0</title>
<polygon fill="none" stroke="black" points="160,-97.5 160,-210.5 402,-210.5 402,-97.5 160,-97.5"/>
<text text-anchor="start" x="168" y="-195.3" font-family="Times,serif" font-size="14.00">0x67ca900:</text>
<text text-anchor="start" x="168" y="-180.3" font-family="Times,serif" font-size="14.00"> g29 = v4</text>
<text text-anchor="start" x="168" y="-165.3" font-family="Times,serif" font-size="14.00"> g38 = v1</text>
<text text-anchor="start" x="168" y="-150.3" font-family="Times,serif" font-size="14.00"> g39 = v2</text>
<text text-anchor="start" x="168" y="-135.3" font-family="Times,serif" font-size="14.00"> v5</text>
<text text-anchor="start" x="168" y="-120.3" font-family="Times,serif" font-size="14.00"> g34 = v5</text>
<text text-anchor="start" x="168" y="-105.3" font-family="Times,serif" font-size="14.00"> IntToPtrCastExpr&lt;ptr&gt;(g35)()</text>
</g>
<!-- Node0x3146ab30&#45;&gt;Node0x3d6463a0 -->
<g id="edge5" class="edge"><title>Node0x3146ab30&#45;&gt;Node0x3d6463a0</title>
<path fill="none" stroke="black" d="M205.746,-248.497C213.796,-238.496 222.033,-228.262 229.966,-218.406"/>
<polygon fill="black" stroke="black" points="232.71,-220.579 236.253,-210.594 227.257,-216.19 232.71,-220.579"/>
</g>
<!-- Node0x3b9d0c60&#45;&gt;Node0x3d6463a0 -->
<g id="edge6" class="edge"><title>Node0x3b9d0c60&#45;&gt;Node0x3d6463a0</title>
<path fill="none" stroke="black" d="M356.579,-300.823C346.433,-281.248 329.706,-248.974 314.564,-219.758"/>
<polygon fill="black" stroke="black" points="317.634,-218.075 309.924,-210.807 311.419,-221.296 317.634,-218.075"/>
</g>
<!-- Node0x27d66ef0 -->
<g id="node7" class="node"><title>Node0x27d66ef0</title>
<polygon fill="none" stroke="black" points="254,-23.5 254,-59.5 308,-59.5 308,-23.5 254,-23.5"/>
<text text-anchor="start" x="262" y="-37.8" font-family="Times,serif" font-size="14.00">exit:</text>
</g>
<!-- Node0x3d6463a0&#45;&gt;Node0x27d66ef0 -->
<g id="edge7" class="edge"><title>Node0x3d6463a0&#45;&gt;Node0x27d66ef0</title>
<path fill="none" stroke="black" d="M281,-97.4263C281,-87.8599 281,-78.3065 281,-69.9133"/>
<polygon fill="black" stroke="black" points="284.5,-69.6444 281,-59.6444 277.5,-69.6444 284.5,-69.6444"/>
</g>
</g>
</svg>
