<?xml version="1.0" encoding="UTF-8" standalone="no"?>
<!DOCTYPE svg PUBLIC "-//W3C//DTD SVG 1.1//EN"
 "http://www.w3.org/Graphics/SVG/1.1/DTD/svg11.dtd">
<!-- Generated by graphviz version 2.38.0 (20140413.2041)
 -->
<!-- Title: Control&#45;flow graph for function &#39;function_23aba()&#39;. Pages: 1 -->
<svg width="385pt" height="261pt"
 viewBox="0.00 0.00 385.00 261.00" xmlns="http://www.w3.org/2000/svg" xmlns:xlink="http://www.w3.org/1999/xlink">
<g id="graph0" class="graph" transform="scale(1 1) rotate(0) translate(4 257)">
<title>Control&#45;flow graph for function &#39;function_23aba()&#39;.</title>
<polygon fill="white" stroke="none" points="-4,4 -4,-257 381,-257 381,4 -4,4"/>
<text text-anchor="middle" x="188.5" y="-7.8" font-family="Times,serif" font-size="14.00">Control&#45;flow graph for function &#39;function_23aba()&#39;.</text>
<!-- Node0x19b2ba80 -->
<g id="node1" class="node"><title>Node0x19b2ba80</title>
<polygon fill="none" stroke="black" points="159,-216.5 159,-252.5 218,-252.5 218,-216.5 159,-216.5"/>
<text text-anchor="start" x="167" y="-230.8" font-family="Times,serif" font-size="14.00">entry:</text>
</g>
<!-- Node0x19b27660 -->
<g id="node2" class="node"><title>Node0x19b27660</title>
<polygon fill="none" stroke="black" points="138.5,-96.5 138.5,-179.5 238.5,-179.5 238.5,-96.5 138.5,-96.5"/>
<text text-anchor="start" x="146.5" y="-164.3" font-family="Times,serif" font-size="14.00">0xa4058c0:</text>
<text text-anchor="start" x="146.5" y="-149.3" font-family="Times,serif" font-size="14.00"> g29 = 0</text>
<text text-anchor="start" x="146.5" y="-134.3" font-family="Times,serif" font-size="14.00"> g37 = 0</text>
<text text-anchor="start" x="146.5" y="-119.3" font-family="Times,serif" font-size="14.00"> g7 = False</text>
<text text-anchor="start" x="146.5" y="-104.3" font-family="Times,serif" font-size="14.00"> g9 = True</text>
</g>
<!-- Node0x19b2ba80&#45;&gt;Node0x19b27660 -->
<g id="edge1" class="edge"><title>Node0x19b2ba80&#45;&gt;Node0x19b27660</title>
<path fill="none" stroke="black" d="M188.5,-216.167C188.5,-208.654 188.5,-199.427 188.5,-189.999"/>
<polygon fill="black" stroke="black" points="192,-189.762 188.5,-179.762 185,-189.762 192,-189.762"/>
</g>
<!-- Node0x19b2c760 -->
<g id="node3" class="node"><title>Node0x19b2c760</title>
<polygon fill="none" stroke="black" points="161.5,-23.5 161.5,-59.5 215.5,-59.5 215.5,-23.5 161.5,-23.5"/>
<text text-anchor="start" x="169.5" y="-37.8" font-family="Times,serif" font-size="14.00">exit:</text>
</g>
<!-- Node0x19b27660&#45;&gt;Node0x19b2c760 -->
<g id="edge2" class="edge"><title>Node0x19b27660&#45;&gt;Node0x19b2c760</title>
<path fill="none" stroke="black" d="M188.5,-96.3751C188.5,-87.4706 188.5,-78.246 188.5,-70"/>
<polygon fill="black" stroke="black" points="192,-69.8327 188.5,-59.8328 185,-69.8328 192,-69.8327"/>
</g>
</g>
</svg>
