<?xml version="1.0" encoding="UTF-8" standalone="no"?>
<!DOCTYPE svg PUBLIC "-//W3C//DTD SVG 1.1//EN"
 "http://www.w3.org/Graphics/SVG/1.1/DTD/svg11.dtd">
<!-- Generated by graphviz version 2.38.0 (20140413.2041)
 -->
<!-- Title: Control&#45;flow graph for function &#39;function_21960()&#39;. Pages: 1 -->
<svg width="614pt" height="819pt"
 viewBox="0.00 0.00 614.00 819.00" xmlns="http://www.w3.org/2000/svg" xmlns:xlink="http://www.w3.org/1999/xlink">
<g id="graph0" class="graph" transform="scale(1 1) rotate(0) translate(4 815)">
<title>Control&#45;flow graph for function &#39;function_21960()&#39;.</title>
<polygon fill="white" stroke="none" points="-4,4 -4,-815 610,-815 610,4 -4,4"/>
<text text-anchor="middle" x="303" y="-7.8" font-family="Times,serif" font-size="14.00">Control&#45;flow graph for function &#39;function_21960()&#39;.</text>
<!-- Node0x223f9960 -->
<g id="node1" class="node"><title>Node0x223f9960</title>
<polygon fill="none" stroke="black" points="273.5,-774.5 273.5,-810.5 332.5,-810.5 332.5,-774.5 273.5,-774.5"/>
<text text-anchor="start" x="281.5" y="-788.8" font-family="Times,serif" font-size="14.00">entry:</text>
</g>
<!-- Node0x223fb600 -->
<g id="node2" class="node"><title>Node0x223fb600</title>
<polygon fill="none" stroke="black" points="0,-263.5 0,-736.5 606,-736.5 606,-263.5 0,-263.5"/>
<text text-anchor="start" x="8" y="-721.3" font-family="Times,serif" font-size="14.00">0xf957f60:</text>
<text text-anchor="start" x="8" y="-706.3" font-family="Times,serif" font-size="14.00"> v1 = g38</text>
<text text-anchor="start" x="8" y="-691.3" font-family="Times,serif" font-size="14.00"> v2 = g39</text>
<text text-anchor="start" x="8" y="-676.3" font-family="Times,serif" font-size="14.00"> v3 = g40</text>
<text text-anchor="start" x="8" y="-661.3" font-family="Times,serif" font-size="14.00"> v4 = g41</text>
<text text-anchor="start" x="8" y="-646.3" font-family="Times,serif" font-size="14.00"> v5 = g42</text>
<text text-anchor="start" x="8" y="-631.3" font-family="Times,serif" font-size="14.00"> v6 = g36</text>
<text text-anchor="start" x="8" y="-616.3" font-family="Times,serif" font-size="14.00"> g39 = v6</text>
<text text-anchor="start" x="8" y="-601.3" font-family="Times,serif" font-size="14.00"> g41 = g29</text>
<text text-anchor="start" x="8" y="-586.3" font-family="Times,serif" font-size="14.00"> g42 = g30</text>
<text text-anchor="start" x="8" y="-571.3" font-family="Times,serif" font-size="14.00"> g38 = 27380</text>
<text text-anchor="start" x="8" y="-556.3" font-family="Times,serif" font-size="14.00"> g40 = g37</text>
<text text-anchor="start" x="8" y="-541.3" font-family="Times,serif" font-size="14.00"> memset(IntToPtrCastExpr&lt;ptr&gt;(v6), g10, PtrToIntCastExpr&lt;int32&gt;(&quot;pEvents&quot;))</text>
<text text-anchor="start" x="8" y="-526.3" font-family="Times,serif" font-size="14.00"> g33 = &#45;588</text>
<text text-anchor="start" x="8" y="-511.3" font-family="Times,serif" font-size="14.00"> g38 = (g38 + 137632)</text>
<text text-anchor="start" x="8" y="-496.3" font-family="Times,serif" font-size="14.00"> g37 = &#45;1</text>
<text text-anchor="start" x="8" y="-481.3" font-family="Times,serif" font-size="14.00"> *(IntToPtrCastExpr&lt;ptr&gt;((g39 + 928))) = &#45;1</text>
<text text-anchor="start" x="8" y="-466.3" font-family="Times,serif" font-size="14.00"> g33 = (g38 + g33)</text>
<text text-anchor="start" x="8" y="-451.3" font-family="Times,serif" font-size="14.00"> g29 = g41</text>
<text text-anchor="start" x="8" y="-436.3" font-family="Times,serif" font-size="14.00"> g30 = g42</text>
<text text-anchor="start" x="8" y="-421.3" font-family="Times,serif" font-size="14.00"> g36 = g39</text>
<text text-anchor="start" x="8" y="-406.3" font-family="Times,serif" font-size="14.00"> g37 = (g37 + 1)</text>
<text text-anchor="start" x="8" y="-391.3" font-family="Times,serif" font-size="14.00"> function_b78c()</text>
<text text-anchor="start" x="8" y="-376.3" font-family="Times,serif" font-size="14.00"> g38 = v1</text>
<text text-anchor="start" x="8" y="-361.3" font-family="Times,serif" font-size="14.00"> g39 = v2</text>
<text text-anchor="start" x="8" y="-346.3" font-family="Times,serif" font-size="14.00"> g40 = v3</text>
<text text-anchor="start" x="8" y="-331.3" font-family="Times,serif" font-size="14.00"> g41 = v4</text>
<text text-anchor="start" x="8" y="-316.3" font-family="Times,serif" font-size="14.00"> g42 = v5</text>
<text text-anchor="start" x="8" y="-301.3" font-family="Times,serif" font-size="14.00"> v7</text>
<text text-anchor="start" x="8" y="-286.3" font-family="Times,serif" font-size="14.00"> g34 = v7</text>
<text text-anchor="start" x="8" y="-271.3" font-family="Times,serif" font-size="14.00"> IntToPtrCastExpr&lt;ptr&gt;(g35)()</text>
</g>
<!-- Node0x223f9960&#45;&gt;Node0x223fb600 -->
<g id="edge1" class="edge"><title>Node0x223f9960&#45;&gt;Node0x223fb600</title>
<path fill="none" stroke="black" d="M303,-774.198C303,-766.903 303,-757.594 303,-746.839"/>
<polygon fill="black" stroke="black" points="306.5,-746.571 303,-736.571 299.5,-746.571 306.5,-746.571"/>
</g>
<!-- Node0x3db3beb0 -->
<g id="node3" class="node"><title>Node0x3db3beb0</title>
<polygon fill="none" stroke="black" points="252.5,-187.5 252.5,-225.5 353.5,-225.5 353.5,-187.5 252.5,-187.5"/>
<text text-anchor="start" x="260.5" y="-210.3" font-family="Times,serif" font-size="14.00">0xa178950:</text>
<text text-anchor="start" x="260.5" y="-195.3" font-family="Times,serif" font-size="14.00"> if g9:</text>
</g>
<!-- Node0x223fb600&#45;&gt;Node0x3db3beb0 -->
<g id="edge2" class="edge"><title>Node0x223fb600&#45;&gt;Node0x3db3beb0</title>
<path fill="none" stroke="black" d="M303,-263.359C303,-253.208 303,-244.011 303,-236.143"/>
<polygon fill="black" stroke="black" points="306.5,-235.945 303,-225.945 299.5,-235.945 306.5,-235.945"/>
</g>
<!-- Node0x3db3cd20 -->
<g id="node4" class="node"><title>Node0x3db3cd20</title>
<polygon fill="none" stroke="black" points="145,-97.5 145,-135.5 295,-135.5 295,-97.5 145,-97.5"/>
<text text-anchor="start" x="153" y="-120.3" font-family="Times,serif" font-size="14.00">0xa178770:</text>
<text text-anchor="start" x="153" y="-105.3" font-family="Times,serif" font-size="14.00"> g29 = (g31 * g42)</text>
</g>
<!-- Node0x3db3beb0&#45;&gt;Node0x3db3cd20 -->
<g id="edge3" class="edge"><title>Node0x3db3beb0&#45;&gt;Node0x3db3cd20</title>
<path fill="none" stroke="black" d="M285.802,-187.266C273.783,-174.523 257.565,-157.328 244.237,-143.198"/>
<polygon fill="black" stroke="black" points="246.583,-140.584 237.176,-135.71 241.491,-145.387 246.583,-140.584"/>
<text text-anchor="middle" x="276.5" y="-157.8" font-family="Times,serif" font-size="14.00">g9</text>
</g>
<!-- Node0x223f9bb0 -->
<g id="node5" class="node"><title>Node0x223f9bb0</title>
<polygon fill="none" stroke="black" points="270,-23.5 270,-59.5 324,-59.5 324,-23.5 270,-23.5"/>
<text text-anchor="start" x="278" y="-37.8" font-family="Times,serif" font-size="14.00">exit:</text>
</g>
<!-- Node0x3db3beb0&#45;&gt;Node0x223f9bb0 -->
<g id="edge4" class="edge"><title>Node0x3db3beb0&#45;&gt;Node0x223f9bb0</title>
<path fill="none" stroke="black" d="M303.972,-187.432C304.945,-165.879 306.032,-128.771 304,-97 303.429,-88.066 302.335,-78.3584 301.18,-69.6448"/>
<polygon fill="black" stroke="black" points="304.63,-69.0427 299.77,-59.628 297.698,-70.0182 304.63,-69.0427"/>
<text text-anchor="middle" x="334.5" y="-112.8" font-family="Times,serif" font-size="14.00">not (g9)</text>
</g>
<!-- Node0x3db3cd20&#45;&gt;Node0x223f9bb0 -->
<g id="edge5" class="edge"><title>Node0x3db3cd20&#45;&gt;Node0x223f9bb0</title>
<path fill="none" stroke="black" d="M239.034,-97.4551C248.853,-88.1459 260.965,-76.6632 271.574,-66.6054"/>
<polygon fill="black" stroke="black" points="274.13,-69.0051 278.979,-59.585 269.314,-63.9251 274.13,-69.0051"/>
</g>
</g>
</svg>
