<?xml version="1.0" encoding="UTF-8" standalone="no"?>
<!DOCTYPE svg PUBLIC "-//W3C//DTD SVG 1.1//EN"
 "http://www.w3.org/Graphics/SVG/1.1/DTD/svg11.dtd">
<!-- Generated by graphviz version 2.38.0 (20140413.2041)
 -->
<!-- Title: Control&#45;flow graph for function &#39;function_106b0()&#39;. Pages: 1 -->
<svg width="1426pt" height="1902pt"
 viewBox="0.00 0.00 1426.00 1902.00" xmlns="http://www.w3.org/2000/svg" xmlns:xlink="http://www.w3.org/1999/xlink">
<g id="graph0" class="graph" transform="scale(1 1) rotate(0) translate(4 1898)">
<title>Control&#45;flow graph for function &#39;function_106b0()&#39;.</title>
<polygon fill="white" stroke="none" points="-4,4 -4,-1898 1422,-1898 1422,4 -4,4"/>
<text text-anchor="middle" x="709" y="-7.8" font-family="Times,serif" font-size="14.00">Control&#45;flow graph for function &#39;function_106b0()&#39;.</text>
<!-- Node0x47235ef0 -->
<g id="node1" class="node"><title>Node0x47235ef0</title>
<polygon fill="none" stroke="black" points="561.5,-1857.5 561.5,-1893.5 620.5,-1893.5 620.5,-1857.5 561.5,-1857.5"/>
<text text-anchor="start" x="569.5" y="-1871.8" font-family="Times,serif" font-size="14.00">entry:</text>
</g>
<!-- Node0x6aa5b90 -->
<g id="node2" class="node"><title>Node0x6aa5b90</title>
<polygon fill="none" stroke="black" points="427,-1571.5 427,-1819.5 755,-1819.5 755,-1571.5 427,-1571.5"/>
<text text-anchor="start" x="435" y="-1804.3" font-family="Times,serif" font-size="14.00">0x13156360:</text>
<text text-anchor="start" x="435" y="-1789.3" font-family="Times,serif" font-size="14.00"> v1 = g38</text>
<text text-anchor="start" x="435" y="-1774.3" font-family="Times,serif" font-size="14.00"> v2 = g39</text>
<text text-anchor="start" x="435" y="-1759.3" font-family="Times,serif" font-size="14.00"> v3 = g40</text>
<text text-anchor="start" x="435" y="-1744.3" font-family="Times,serif" font-size="14.00"> v4 = g32</text>
<text text-anchor="start" x="435" y="-1729.3" font-family="Times,serif" font-size="14.00"> v5 = g35</text>
<text text-anchor="start" x="435" y="-1714.3" font-family="Times,serif" font-size="14.00"> v6 = g29</text>
<text text-anchor="start" x="435" y="-1699.3" font-family="Times,serif" font-size="14.00"> v7 = *(IntToPtrCastExpr&lt;ptr&gt;((v6 + 16)))</text>
<text text-anchor="start" x="435" y="-1684.3" font-family="Times,serif" font-size="14.00"> g38 = v7</text>
<text text-anchor="start" x="435" y="-1669.3" font-family="Times,serif" font-size="14.00"> g40 = v6</text>
<text text-anchor="start" x="435" y="-1654.3" font-family="Times,serif" font-size="14.00"> v8 = g30</text>
<text text-anchor="start" x="435" y="-1639.3" font-family="Times,serif" font-size="14.00"> g39 = v8</text>
<text text-anchor="start" x="435" y="-1624.3" font-family="Times,serif" font-size="14.00"> v9</text>
<text text-anchor="start" x="435" y="-1609.3" font-family="Times,serif" font-size="14.00"> v10</text>
<text text-anchor="start" x="435" y="-1594.3" font-family="Times,serif" font-size="14.00"> v11</text>
<text text-anchor="start" x="435" y="-1579.3" font-family="Times,serif" font-size="14.00"> v12</text>
</g>
<!-- Node0x47235ef0&#45;&gt;Node0x6aa5b90 -->
<g id="edge1" class="edge"><title>Node0x47235ef0&#45;&gt;Node0x6aa5b90</title>
<path fill="none" stroke="black" d="M591,-1857.43C591,-1849.97 591,-1840.49 591,-1829.89"/>
<polygon fill="black" stroke="black" points="594.5,-1829.85 591,-1819.85 587.5,-1829.85 594.5,-1829.85"/>
</g>
<!-- Node0x294cf570 -->
<g id="node3" class="node"><title>Node0x294cf570</title>
<polygon fill="none" stroke="black" points="292.5,-1495.5 292.5,-1533.5 889.5,-1533.5 889.5,-1495.5 292.5,-1495.5"/>
<text text-anchor="start" x="300.5" y="-1518.3" font-family="Times,serif" font-size="14.00">0x79de920:</text>
<text text-anchor="start" x="300.5" y="-1503.3" font-family="Times,serif" font-size="14.00"> if (*(IntToPtrCastExpr&lt;ptr&gt;((*(IntToPtrCastExpr&lt;ptr&gt;((v7 + 4))) + 68))) != 0):</text>
</g>
<!-- Node0x6aa5b90&#45;&gt;Node0x294cf570 -->
<g id="edge2" class="edge"><title>Node0x6aa5b90&#45;&gt;Node0x294cf570</title>
<path fill="none" stroke="black" d="M591,-1571.16C591,-1561.16 591,-1551.83 591,-1543.77"/>
<polygon fill="black" stroke="black" points="594.5,-1543.63 591,-1533.63 587.5,-1543.63 594.5,-1543.63"/>
</g>
<!-- Node0x4723a0e0 -->
<g id="node4" class="node"><title>Node0x4723a0e0</title>
<polygon fill="none" stroke="black" points="141.5,-1360.5 141.5,-1443.5 470.5,-1443.5 470.5,-1360.5 141.5,-1360.5"/>
<text text-anchor="start" x="149.5" y="-1428.3" font-family="Times,serif" font-size="14.00">0x79dedc0:</text>
<text text-anchor="start" x="149.5" y="-1413.3" font-family="Times,serif" font-size="14.00"> v11 = IntToPtrCastExpr&lt;ptr&gt;((g38 + 22))</text>
<text text-anchor="start" x="149.5" y="-1398.3" font-family="Times,serif" font-size="14.00"> v12 = ExtCastExpr&lt;int32&gt;(*(v11))</text>
<text text-anchor="start" x="149.5" y="-1383.3" font-family="Times,serif" font-size="14.00"> v10 = g39</text>
<text text-anchor="start" x="149.5" y="-1368.3" font-family="Times,serif" font-size="14.00"> g9 = (v12 == v10)</text>
</g>
<!-- Node0x294cf570&#45;&gt;Node0x4723a0e0 -->
<g id="edge3" class="edge"><title>Node0x294cf570&#45;&gt;Node0x4723a0e0</title>
<path fill="none" stroke="black" d="M378.675,-1495.49C341.968,-1490.37 313.41,-1484.19 307,-1477 301.222,-1470.52 298.425,-1462.31 297.437,-1453.73"/>
<polygon fill="black" stroke="black" points="300.927,-1453.42 297.038,-1443.57 293.933,-1453.7 300.927,-1453.42"/>
<text text-anchor="middle" x="580.5" y="-1465.8" font-family="Times,serif" font-size="14.00">*(IntToPtrCastExpr&lt;ptr&gt;((*(IntToPtrCastExpr&lt;ptr&gt;((v7 + 4))) + 68))) != 0</text>
</g>
<!-- Node0x324d9900 -->
<g id="node5" class="node"><title>Node0x324d9900</title>
<polygon fill="none" stroke="black" points="821,-1383 821,-1421 931,-1421 931,-1383 821,-1383"/>
<text text-anchor="start" x="829" y="-1405.8" font-family="Times,serif" font-size="14.00">0x79d5440:</text>
<text text-anchor="start" x="829" y="-1390.8" font-family="Times,serif" font-size="14.00"> if (v8 == 0):</text>
</g>
<!-- Node0x294cf570&#45;&gt;Node0x324d9900 -->
<g id="edge4" class="edge"><title>Node0x294cf570&#45;&gt;Node0x324d9900</title>
<path fill="none" stroke="black" d="M809.982,-1495.44C829.438,-1490.66 845.128,-1484.62 854,-1477 867.05,-1465.79 872.544,-1447.21 874.779,-1431.48"/>
<polygon fill="black" stroke="black" points="878.298,-1431.47 875.858,-1421.16 871.336,-1430.74 878.298,-1431.47"/>
<text text-anchor="middle" x="1141.5" y="-1465.8" font-family="Times,serif" font-size="14.00">*(IntToPtrCastExpr&lt;ptr&gt;((*(IntToPtrCastExpr&lt;ptr&gt;((v7 + 4))) + 68))) == 0</text>
</g>
<!-- Node0x4723a320 -->
<g id="node6" class="node"><title>Node0x4723a320</title>
<polygon fill="none" stroke="black" points="241,-1240.5 241,-1278.5 371,-1278.5 371,-1240.5 241,-1240.5"/>
<text text-anchor="start" x="249" y="-1263.3" font-family="Times,serif" font-size="14.00">0x79e0ee0:</text>
<text text-anchor="start" x="249" y="-1248.3" font-family="Times,serif" font-size="14.00"> if (v12 != v10):</text>
</g>
<!-- Node0x4723a0e0&#45;&gt;Node0x4723a320 -->
<g id="edge5" class="edge"><title>Node0x4723a0e0&#45;&gt;Node0x4723a320</title>
<path fill="none" stroke="black" d="M306,-1360.36C306,-1337.42 306,-1309.31 306,-1288.77"/>
<polygon fill="black" stroke="black" points="309.5,-1288.5 306,-1278.5 302.5,-1288.5 309.5,-1288.5"/>
</g>
<!-- Node0x4723ae20 -->
<g id="node7" class="node"><title>Node0x4723ae20</title>
<polygon fill="none" stroke="black" points="593.5,-1210.5 593.5,-1308.5 922.5,-1308.5 922.5,-1210.5 593.5,-1210.5"/>
<text text-anchor="start" x="601.5" y="-1293.3" font-family="Times,serif" font-size="14.00">0x79d5150:</text>
<text text-anchor="start" x="601.5" y="-1278.3" font-family="Times,serif" font-size="14.00"> *(IntToPtrCastExpr&lt;ptr&gt;((v7 + 688))) = 0</text>
<text text-anchor="start" x="601.5" y="-1263.3" font-family="Times,serif" font-size="14.00"> v11 = IntToPtrCastExpr&lt;ptr&gt;((g38 + 22))</text>
<text text-anchor="start" x="601.5" y="-1248.3" font-family="Times,serif" font-size="14.00"> v12 = ExtCastExpr&lt;int32&gt;(*(v11))</text>
<text text-anchor="start" x="601.5" y="-1233.3" font-family="Times,serif" font-size="14.00"> v10 = g39</text>
<text text-anchor="start" x="601.5" y="-1218.3" font-family="Times,serif" font-size="14.00"> g9 = (v12 == v10)</text>
</g>
<!-- Node0x324d9900&#45;&gt;Node0x4723ae20 -->
<g id="edge6" class="edge"><title>Node0x324d9900&#45;&gt;Node0x4723ae20</title>
<path fill="none" stroke="black" d="M860.815,-1382.92C846.722,-1366.14 824.989,-1340.26 805.127,-1316.61"/>
<polygon fill="black" stroke="black" points="807.589,-1314.1 798.477,-1308.7 802.228,-1318.6 807.589,-1314.1"/>
<text text-anchor="middle" x="854" y="-1330.8" font-family="Times,serif" font-size="14.00">v8 == 0</text>
</g>
<!-- Node0x324dcef0 -->
<g id="node8" class="node"><title>Node0x324dcef0</title>
<polygon fill="none" stroke="black" points="940.5,-1225.5 940.5,-1293.5 1079.5,-1293.5 1079.5,-1225.5 940.5,-1225.5"/>
<text text-anchor="start" x="948.5" y="-1278.3" font-family="Times,serif" font-size="14.00">0xfee3bc0:</text>
<text text-anchor="start" x="948.5" y="-1263.3" font-family="Times,serif" font-size="14.00"> v13 = g36</text>
<text text-anchor="start" x="948.5" y="-1248.3" font-family="Times,serif" font-size="14.00"> g9 = (v13 == 0)</text>
<text text-anchor="start" x="948.5" y="-1233.3" font-family="Times,serif" font-size="14.00"> g29 = v7</text>
</g>
<!-- Node0x324d9900&#45;&gt;Node0x324dcef0 -->
<g id="edge7" class="edge"><title>Node0x324d9900&#45;&gt;Node0x324dcef0</title>
<path fill="none" stroke="black" d="M893.244,-1382.92C912.886,-1362.33 945.598,-1328.03 971.408,-1300.96"/>
<polygon fill="black" stroke="black" points="974.119,-1303.19 978.488,-1293.54 969.053,-1298.36 974.119,-1303.19"/>
<text text-anchor="middle" x="970" y="-1330.8" font-family="Times,serif" font-size="14.00">v8 != 0</text>
</g>
<!-- Node0x4723bf60 -->
<g id="node9" class="node"><title>Node0x4723bf60</title>
<polygon fill="none" stroke="black" points="0,-1030.5 0,-1158.5 332,-1158.5 332,-1030.5 0,-1030.5"/>
<text text-anchor="start" x="8" y="-1143.3" font-family="Times,serif" font-size="14.00">0x79dbb90:</text>
<text text-anchor="start" x="8" y="-1128.3" font-family="Times,serif" font-size="14.00"> g9 = (v10 == 0)</text>
<text text-anchor="start" x="8" y="-1113.3" font-family="Times,serif" font-size="14.00"> g36 = 0</text>
<text text-anchor="start" x="8" y="-1098.3" font-family="Times,serif" font-size="14.00"> *(v11) = TruncCastExpr&lt;int8&gt;((v10 != 0))</text>
<text text-anchor="start" x="8" y="-1083.3" font-family="Times,serif" font-size="14.00"> g29 = g40</text>
<text text-anchor="start" x="8" y="-1068.3" font-family="Times,serif" font-size="14.00"> g30 = 5</text>
<text text-anchor="start" x="8" y="-1053.3" font-family="Times,serif" font-size="14.00"> g37 = g36</text>
<text text-anchor="start" x="8" y="-1038.3" font-family="Times,serif" font-size="14.00"> function_10418()</text>
</g>
<!-- Node0x4723a320&#45;&gt;Node0x4723bf60 -->
<g id="edge8" class="edge"><title>Node0x4723a320&#45;&gt;Node0x4723bf60</title>
<path fill="none" stroke="black" d="M290.483,-1240.43C274.995,-1222.4 250.195,-1193.53 226.792,-1166.28"/>
<polygon fill="black" stroke="black" points="229.408,-1163.95 220.237,-1158.65 224.098,-1168.51 229.408,-1163.95"/>
<text text-anchor="middle" x="289" y="-1180.8" font-family="Times,serif" font-size="14.00">v12 != v10</text>
</g>
<!-- Node0x4723a6c0 -->
<g id="node10" class="node"><title>Node0x4723a6c0</title>
<polygon fill="none" stroke="black" points="35.5,-790.5 35.5,-978.5 382.5,-978.5 382.5,-790.5 35.5,-790.5"/>
<text text-anchor="start" x="43.5" y="-963.3" font-family="Times,serif" font-size="14.00">0x79e1620:</text>
<text text-anchor="start" x="43.5" y="-948.3" font-family="Times,serif" font-size="14.00"> g29 = *(IntToPtrCastExpr&lt;ptr&gt;((g40 + 20)))</text>
<text text-anchor="start" x="43.5" y="-933.3" font-family="Times,serif" font-size="14.00"> g30 = 7</text>
<text text-anchor="start" x="43.5" y="-918.3" font-family="Times,serif" font-size="14.00"> function_21c70()</text>
<text text-anchor="start" x="43.5" y="-903.3" font-family="Times,serif" font-size="14.00"> g29 = 0</text>
<text text-anchor="start" x="43.5" y="-888.3" font-family="Times,serif" font-size="14.00"> g38 = v1</text>
<text text-anchor="start" x="43.5" y="-873.3" font-family="Times,serif" font-size="14.00"> g39 = v2</text>
<text text-anchor="start" x="43.5" y="-858.3" font-family="Times,serif" font-size="14.00"> g40 = v3</text>
<text text-anchor="start" x="43.5" y="-843.3" font-family="Times,serif" font-size="14.00"> g32 = v4</text>
<text text-anchor="start" x="43.5" y="-828.3" font-family="Times,serif" font-size="14.00"> g34 = v9</text>
<text text-anchor="start" x="43.5" y="-813.3" font-family="Times,serif" font-size="14.00"> IntToPtrCastExpr&lt;ptr&gt;(v5)()</text>
<text text-anchor="start" x="43.5" y="-798.3" font-family="Times,serif" font-size="14.00"> return</text>
</g>
<!-- Node0x4723a320&#45;&gt;Node0x4723a6c0 -->
<g id="edge9" class="edge"><title>Node0x4723a320&#45;&gt;Node0x4723a6c0</title>
<path fill="none" stroke="black" d="M314.865,-1240.34C332.902,-1200.74 369.816,-1104.27 341,-1030 335.148,-1014.92 326.905,-1000.44 317.365,-986.878"/>
<polygon fill="black" stroke="black" points="319.999,-984.551 311.267,-978.552 314.352,-988.687 319.999,-984.551"/>
<text text-anchor="middle" x="395" y="-1090.8" font-family="Times,serif" font-size="14.00">v12 == v10</text>
</g>
<!-- Node0x4723b130 -->
<g id="node11" class="node"><title>Node0x4723b130</title>
<polygon fill="none" stroke="black" points="693,-1075.5 693,-1113.5 823,-1113.5 823,-1075.5 693,-1075.5"/>
<text text-anchor="start" x="701" y="-1098.3" font-family="Times,serif" font-size="14.00">0x79dcfc0:</text>
<text text-anchor="start" x="701" y="-1083.3" font-family="Times,serif" font-size="14.00"> if (v12 != v10):</text>
</g>
<!-- Node0x4723ae20&#45;&gt;Node0x4723b130 -->
<g id="edge10" class="edge"><title>Node0x4723ae20&#45;&gt;Node0x4723b130</title>
<path fill="none" stroke="black" d="M758,-1210.48C758,-1182.3 758,-1147.66 758,-1123.81"/>
<polygon fill="black" stroke="black" points="761.5,-1123.67 758,-1113.67 754.5,-1123.67 761.5,-1123.67"/>
</g>
<!-- Node0x324de3f0 -->
<g id="node12" class="node"><title>Node0x324de3f0</title>
<polygon fill="none" stroke="black" points="950.5,-1068 950.5,-1121 1069.5,-1121 1069.5,-1068 950.5,-1068"/>
<text text-anchor="start" x="958.5" y="-1105.8" font-family="Times,serif" font-size="14.00">0x79d61d0:</text>
<text text-anchor="start" x="958.5" y="-1090.8" font-family="Times,serif" font-size="14.00"> if (v13 == 0):</text>
<text text-anchor="start" x="958.5" y="-1075.8" font-family="Times,serif" font-size="14.00"> else:</text>
</g>
<!-- Node0x324dcef0&#45;&gt;Node0x324de3f0 -->
<g id="edge11" class="edge"><title>Node0x324dcef0&#45;&gt;Node0x324de3f0</title>
<path fill="none" stroke="black" d="M1010,-1225.12C1010,-1197.78 1010,-1159.19 1010,-1131.23"/>
<polygon fill="black" stroke="black" points="1013.5,-1131.09 1010,-1121.09 1006.5,-1131.09 1013.5,-1131.09"/>
</g>
<!-- Node0x4723bf60&#45;&gt;Node0x4723a6c0 -->
<g id="edge12" class="edge"><title>Node0x4723bf60&#45;&gt;Node0x4723a6c0</title>
<path fill="none" stroke="black" d="M179.077,-1030.25C181.807,-1017.04 184.752,-1002.79 187.693,-988.565"/>
<polygon fill="black" stroke="black" points="191.129,-989.236 189.726,-978.734 184.274,-987.818 191.129,-989.236"/>
</g>
<!-- Node0x1defb1c0 -->
<g id="node13" class="node"><title>Node0x1defb1c0</title>
<polygon fill="none" stroke="black" points="539,-23.5 539,-59.5 593,-59.5 593,-23.5 539,-23.5"/>
<text text-anchor="start" x="547" y="-37.8" font-family="Times,serif" font-size="14.00">exit:</text>
</g>
<!-- Node0x4723a6c0&#45;&gt;Node0x1defb1c0 -->
<g id="edge13" class="edge"><title>Node0x4723a6c0&#45;&gt;Node0x1defb1c0</title>
<path fill="none" stroke="black" d="M257.57,-790.391C273.875,-751.078 288,-704.139 288,-659.5 288,-659.5 288,-659.5 288,-183 288,-76.3461 453,-50.6355 528.766,-44.4516"/>
<polygon fill="black" stroke="black" points="529.125,-47.9346 538.838,-43.7022 528.606,-40.9539 529.125,-47.9346"/>
</g>
<!-- Node0x1defaee0 -->
<g id="node14" class="node"><title>Node0x1defaee0</title>
<polygon fill="none" stroke="black" points="401,-820.5 401,-948.5 733,-948.5 733,-820.5 401,-820.5"/>
<text text-anchor="start" x="409" y="-933.3" font-family="Times,serif" font-size="14.00">0x79dbd00:</text>
<text text-anchor="start" x="409" y="-918.3" font-family="Times,serif" font-size="14.00"> g9 = (v10 == 0)</text>
<text text-anchor="start" x="409" y="-903.3" font-family="Times,serif" font-size="14.00"> g36 = 0</text>
<text text-anchor="start" x="409" y="-888.3" font-family="Times,serif" font-size="14.00"> *(v11) = TruncCastExpr&lt;int8&gt;((v10 != 0))</text>
<text text-anchor="start" x="409" y="-873.3" font-family="Times,serif" font-size="14.00"> g29 = g40</text>
<text text-anchor="start" x="409" y="-858.3" font-family="Times,serif" font-size="14.00"> g30 = 5</text>
<text text-anchor="start" x="409" y="-843.3" font-family="Times,serif" font-size="14.00"> g37 = g36</text>
<text text-anchor="start" x="409" y="-828.3" font-family="Times,serif" font-size="14.00"> function_10418()</text>
</g>
<!-- Node0x4723b130&#45;&gt;Node0x1defaee0 -->
<g id="edge14" class="edge"><title>Node0x4723b130&#45;&gt;Node0x1defaee0</title>
<path fill="none" stroke="black" d="M738.402,-1075.19C721.272,-1058.97 695.937,-1034.45 675,-1012 658.541,-994.354 641.32,-974.749 625.588,-956.345"/>
<polygon fill="black" stroke="black" points="628.091,-953.886 618.944,-948.54 622.761,-958.424 628.091,-953.886"/>
<text text-anchor="middle" x="715" y="-1000.8" font-family="Times,serif" font-size="14.00">v12 != v10</text>
</g>
<!-- Node0x4723b300 -->
<g id="node15" class="node"><title>Node0x4723b300</title>
<polygon fill="none" stroke="black" points="393.5,-564.5 393.5,-752.5 740.5,-752.5 740.5,-564.5 393.5,-564.5"/>
<text text-anchor="start" x="401.5" y="-737.3" font-family="Times,serif" font-size="14.00">0x79dd6d0:</text>
<text text-anchor="start" x="401.5" y="-722.3" font-family="Times,serif" font-size="14.00"> g29 = *(IntToPtrCastExpr&lt;ptr&gt;((g40 + 20)))</text>
<text text-anchor="start" x="401.5" y="-707.3" font-family="Times,serif" font-size="14.00"> g30 = 7</text>
<text text-anchor="start" x="401.5" y="-692.3" font-family="Times,serif" font-size="14.00"> function_21c70()</text>
<text text-anchor="start" x="401.5" y="-677.3" font-family="Times,serif" font-size="14.00"> g29 = 0</text>
<text text-anchor="start" x="401.5" y="-662.3" font-family="Times,serif" font-size="14.00"> g38 = v1</text>
<text text-anchor="start" x="401.5" y="-647.3" font-family="Times,serif" font-size="14.00"> g39 = v2</text>
<text text-anchor="start" x="401.5" y="-632.3" font-family="Times,serif" font-size="14.00"> g40 = v3</text>
<text text-anchor="start" x="401.5" y="-617.3" font-family="Times,serif" font-size="14.00"> g32 = v4</text>
<text text-anchor="start" x="401.5" y="-602.3" font-family="Times,serif" font-size="14.00"> g34 = v9</text>
<text text-anchor="start" x="401.5" y="-587.3" font-family="Times,serif" font-size="14.00"> IntToPtrCastExpr&lt;ptr&gt;(v5)()</text>
<text text-anchor="start" x="401.5" y="-572.3" font-family="Times,serif" font-size="14.00"> return</text>
</g>
<!-- Node0x4723b130&#45;&gt;Node0x4723b300 -->
<g id="edge15" class="edge"><title>Node0x4723b130&#45;&gt;Node0x4723b300</title>
<path fill="none" stroke="black" d="M762.109,-1075.31C772.269,-1025.87 794.142,-886.272 742,-790 736.289,-779.456 729.316,-769.524 721.481,-760.215"/>
<polygon fill="black" stroke="black" points="723.949,-757.722 714.706,-752.543 718.702,-762.355 723.949,-757.722"/>
<text text-anchor="middle" x="818" y="-880.8" font-family="Times,serif" font-size="14.00">v12 == v10</text>
</g>
<!-- Node0x4723b8d0 -->
<g id="node16" class="node"><title>Node0x4723b8d0</title>
<polygon fill="none" stroke="black" points="883.5,-865.5 883.5,-903.5 1026.5,-903.5 1026.5,-865.5 883.5,-865.5"/>
<text text-anchor="start" x="891.5" y="-888.3" font-family="Times,serif" font-size="14.00">0x79d5f00:</text>
<text text-anchor="start" x="891.5" y="-873.3" font-family="Times,serif" font-size="14.00"> function_1245c()</text>
</g>
<!-- Node0x324de3f0&#45;&gt;Node0x4723b8d0 -->
<g id="edge16" class="edge"><title>Node0x324de3f0&#45;&gt;Node0x4723b8d0</title>
<path fill="none" stroke="black" d="M1003.26,-1068C992.886,-1028.78 973.1,-953.952 962.367,-913.36"/>
<polygon fill="black" stroke="black" points="965.722,-912.356 959.782,-903.583 958.954,-914.146 965.722,-912.356"/>
<text text-anchor="middle" x="1021.5" y="-1000.8" font-family="Times,serif" font-size="14.00">v13 == 0</text>
</g>
<!-- Node0x4723ba20 -->
<g id="node17" class="node"><title>Node0x4723ba20</title>
<polygon fill="none" stroke="black" points="1044.5,-865.5 1044.5,-903.5 1187.5,-903.5 1187.5,-865.5 1044.5,-865.5"/>
<text text-anchor="start" x="1052.5" y="-888.3" font-family="Times,serif" font-size="14.00">0x79d6420:</text>
<text text-anchor="start" x="1052.5" y="-873.3" font-family="Times,serif" font-size="14.00"> function_1105c()</text>
</g>
<!-- Node0x324de3f0&#45;&gt;Node0x4723ba20 -->
<g id="edge17" class="edge"><title>Node0x324de3f0&#45;&gt;Node0x4723ba20</title>
<path fill="none" stroke="black" d="M1026.89,-1067.95C1037.03,-1052.14 1049.89,-1031.25 1060,-1012 1077.35,-978.961 1094.27,-939.428 1104.89,-913.455"/>
<polygon fill="black" stroke="black" points="1108.26,-914.458 1108.77,-903.875 1101.77,-911.828 1108.26,-914.458"/>
<text text-anchor="middle" x="1097.5" y="-1000.8" font-family="Times,serif" font-size="14.00">v13 != 0</text>
</g>
<!-- Node0x1defaee0&#45;&gt;Node0x4723b300 -->
<g id="edge18" class="edge"><title>Node0x1defaee0&#45;&gt;Node0x4723b300</title>
<path fill="none" stroke="black" d="M567,-820.209C567,-802.361 567,-782.464 567,-762.918"/>
<polygon fill="black" stroke="black" points="570.5,-762.741 567,-752.741 563.5,-762.741 570.5,-762.741"/>
</g>
<!-- Node0x4723b300&#45;&gt;Node0x1defb1c0 -->
<g id="edge19" class="edge"><title>Node0x4723b300&#45;&gt;Node0x1defb1c0</title>
<path fill="none" stroke="black" d="M566.181,-564.109C566.074,-545.677 566,-526.479 566,-508.5 566,-508.5 566,-508.5 566,-183 566,-143.808 566,-98.4673 566,-70.1339"/>
<polygon fill="black" stroke="black" points="569.5,-69.8039 566,-59.8039 562.5,-69.804 569.5,-69.8039"/>
</g>
<!-- Node0x324daaf0 -->
<g id="node18" class="node"><title>Node0x324daaf0</title>
<polygon fill="none" stroke="black" points="801.5,-617 801.5,-700 1130.5,-700 1130.5,-617 801.5,-617"/>
<text text-anchor="start" x="809.5" y="-684.8" font-family="Times,serif" font-size="14.00">0x79d6bc0:</text>
<text text-anchor="start" x="809.5" y="-669.8" font-family="Times,serif" font-size="14.00"> v11 = IntToPtrCastExpr&lt;ptr&gt;((g38 + 22))</text>
<text text-anchor="start" x="809.5" y="-654.8" font-family="Times,serif" font-size="14.00"> v12 = ExtCastExpr&lt;int32&gt;(*(v11))</text>
<text text-anchor="start" x="809.5" y="-639.8" font-family="Times,serif" font-size="14.00"> v10 = g39</text>
<text text-anchor="start" x="809.5" y="-624.8" font-family="Times,serif" font-size="14.00"> g9 = (v12 == v10)</text>
</g>
<!-- Node0x4723b8d0&#45;&gt;Node0x324daaf0 -->
<g id="edge20" class="edge"><title>Node0x4723b8d0&#45;&gt;Node0x324daaf0</title>
<path fill="none" stroke="black" d="M955.9,-865.169C957.543,-831.71 961.082,-759.652 963.502,-710.366"/>
<polygon fill="black" stroke="black" points="967.006,-710.377 964.001,-700.217 960.014,-710.033 967.006,-710.377"/>
</g>
<!-- Node0x4723ba20&#45;&gt;Node0x324daaf0 -->
<g id="edge21" class="edge"><title>Node0x4723ba20&#45;&gt;Node0x324daaf0</title>
<path fill="none" stroke="black" d="M1103.72,-865.169C1081.08,-831.36 1032.05,-758.141 999.032,-708.827"/>
<polygon fill="black" stroke="black" points="1001.74,-706.579 993.266,-700.217 995.922,-710.473 1001.74,-706.579"/>
</g>
<!-- Node0x2f6881f0 -->
<g id="node19" class="node"><title>Node0x2f6881f0</title>
<polygon fill="none" stroke="black" points="901,-488.5 901,-526.5 1031,-526.5 1031,-488.5 901,-488.5"/>
<text text-anchor="start" x="909" y="-511.3" font-family="Times,serif" font-size="14.00">0x79d9260:</text>
<text text-anchor="start" x="909" y="-496.3" font-family="Times,serif" font-size="14.00"> if (v12 != v10):</text>
</g>
<!-- Node0x324daaf0&#45;&gt;Node0x2f6881f0 -->
<g id="edge22" class="edge"><title>Node0x324daaf0&#45;&gt;Node0x2f6881f0</title>
<path fill="none" stroke="black" d="M966,-616.785C966,-591.461 966,-559.529 966,-536.92"/>
<polygon fill="black" stroke="black" points="969.5,-536.64 966,-526.64 962.5,-536.64 969.5,-536.64"/>
</g>
<!-- Node0x4723bb70 -->
<g id="node20" class="node"><title>Node0x4723bb70</title>
<polygon fill="none" stroke="black" points="600,-308.5 600,-436.5 932,-436.5 932,-308.5 600,-308.5"/>
<text text-anchor="start" x="608" y="-421.3" font-family="Times,serif" font-size="14.00">0x79d7d20:</text>
<text text-anchor="start" x="608" y="-406.3" font-family="Times,serif" font-size="14.00"> g9 = (v10 == 0)</text>
<text text-anchor="start" x="608" y="-391.3" font-family="Times,serif" font-size="14.00"> g36 = 0</text>
<text text-anchor="start" x="608" y="-376.3" font-family="Times,serif" font-size="14.00"> *(v11) = TruncCastExpr&lt;int8&gt;((v10 != 0))</text>
<text text-anchor="start" x="608" y="-361.3" font-family="Times,serif" font-size="14.00"> g29 = g40</text>
<text text-anchor="start" x="608" y="-346.3" font-family="Times,serif" font-size="14.00"> g30 = 5</text>
<text text-anchor="start" x="608" y="-331.3" font-family="Times,serif" font-size="14.00"> g37 = g36</text>
<text text-anchor="start" x="608" y="-316.3" font-family="Times,serif" font-size="14.00"> function_10418()</text>
</g>
<!-- Node0x2f6881f0&#45;&gt;Node0x4723bb70 -->
<g id="edge23" class="edge"><title>Node0x2f6881f0&#45;&gt;Node0x4723bb70</title>
<path fill="none" stroke="black" d="M910.955,-488.319C898.397,-483.185 885.402,-477.045 874,-470 861.366,-462.194 848.813,-452.853 836.976,-443.101"/>
<polygon fill="black" stroke="black" points="839.212,-440.408 829.308,-436.646 834.704,-445.763 839.212,-440.408"/>
<text text-anchor="middle" x="914" y="-458.8" font-family="Times,serif" font-size="14.00">v12 != v10</text>
</g>
<!-- Node0x1defb200 -->
<g id="node21" class="node"><title>Node0x1defb200</title>
<polygon fill="none" stroke="black" points="593.5,-97.5 593.5,-270.5 940.5,-270.5 940.5,-97.5 593.5,-97.5"/>
<text text-anchor="start" x="601.5" y="-255.3" font-family="Times,serif" font-size="14.00">0x79d9b10:</text>
<text text-anchor="start" x="601.5" y="-240.3" font-family="Times,serif" font-size="14.00"> g29 = *(IntToPtrCastExpr&lt;ptr&gt;((g40 + 20)))</text>
<text text-anchor="start" x="601.5" y="-225.3" font-family="Times,serif" font-size="14.00"> g30 = 7</text>
<text text-anchor="start" x="601.5" y="-210.3" font-family="Times,serif" font-size="14.00"> function_21c70()</text>
<text text-anchor="start" x="601.5" y="-195.3" font-family="Times,serif" font-size="14.00"> g29 = 0</text>
<text text-anchor="start" x="601.5" y="-180.3" font-family="Times,serif" font-size="14.00"> g38 = v1</text>
<text text-anchor="start" x="601.5" y="-165.3" font-family="Times,serif" font-size="14.00"> g39 = v2</text>
<text text-anchor="start" x="601.5" y="-150.3" font-family="Times,serif" font-size="14.00"> g40 = v3</text>
<text text-anchor="start" x="601.5" y="-135.3" font-family="Times,serif" font-size="14.00"> g32 = v4</text>
<text text-anchor="start" x="601.5" y="-120.3" font-family="Times,serif" font-size="14.00"> g34 = v9</text>
<text text-anchor="start" x="601.5" y="-105.3" font-family="Times,serif" font-size="14.00"> IntToPtrCastExpr&lt;ptr&gt;(v5)()</text>
</g>
<!-- Node0x2f6881f0&#45;&gt;Node0x1defb200 -->
<g id="edge24" class="edge"><title>Node0x2f6881f0&#45;&gt;Node0x1defb200</title>
<path fill="none" stroke="black" d="M968.324,-488.237C972.092,-451.287 975.934,-366.23 941,-308 934.618,-297.362 926.922,-287.4 918.366,-278.12"/>
<polygon fill="black" stroke="black" points="920.79,-275.591 911.328,-270.824 915.751,-280.451 920.79,-275.591"/>
<text text-anchor="middle" x="1013" y="-368.8" font-family="Times,serif" font-size="14.00">v12 == v10</text>
</g>
<!-- Node0x4723bb70&#45;&gt;Node0x1defb200 -->
<g id="edge25" class="edge"><title>Node0x4723bb70&#45;&gt;Node0x1defb200</title>
<path fill="none" stroke="black" d="M766.339,-308.36C766.386,-299.435 766.436,-290.098 766.487,-280.728"/>
<polygon fill="black" stroke="black" points="769.987,-280.584 766.541,-270.566 762.988,-280.547 769.987,-280.584"/>
</g>
<!-- Node0x1defb200&#45;&gt;Node0x1defb1c0 -->
<g id="edge26" class="edge"><title>Node0x1defb200&#45;&gt;Node0x1defb1c0</title>
<path fill="none" stroke="black" d="M644.575,-97.4246C627.925,-85.786 612.119,-74.7374 599.108,-65.6424"/>
<polygon fill="black" stroke="black" points="600.772,-62.5353 590.57,-59.6748 596.761,-68.2726 600.772,-62.5353"/>
</g>
</g>
</svg>
