<?xml version="1.0" encoding="UTF-8" standalone="no"?>
<!DOCTYPE svg PUBLIC "-//W3C//DTD SVG 1.1//EN"
 "http://www.w3.org/Graphics/SVG/1.1/DTD/svg11.dtd">
<!-- Generated by graphviz version 2.38.0 (20140413.2041)
 -->
<!-- Title: Control&#45;flow graph for function &#39;function_11674()&#39;. Pages: 1 -->
<svg width="930pt" height="1444pt"
 viewBox="0.00 0.00 930.00 1444.00" xmlns="http://www.w3.org/2000/svg" xmlns:xlink="http://www.w3.org/1999/xlink">
<g id="graph0" class="graph" transform="scale(1 1) rotate(0) translate(4 1440)">
<title>Control&#45;flow graph for function &#39;function_11674()&#39;.</title>
<polygon fill="white" stroke="none" points="-4,4 -4,-1440 926,-1440 926,4 -4,4"/>
<text text-anchor="middle" x="461" y="-7.8" font-family="Times,serif" font-size="14.00">Control&#45;flow graph for function &#39;function_11674()&#39;.</text>
<!-- Node0x1e9ebe70 -->
<g id="node1" class="node"><title>Node0x1e9ebe70</title>
<polygon fill="none" stroke="black" points="431.5,-1399.5 431.5,-1435.5 490.5,-1435.5 490.5,-1399.5 431.5,-1399.5"/>
<text text-anchor="start" x="439.5" y="-1413.8" font-family="Times,serif" font-size="14.00">entry:</text>
</g>
<!-- Node0x1087f560 -->
<g id="node2" class="node"><title>Node0x1087f560</title>
<polygon fill="none" stroke="black" points="0,-933.5 0,-1361.5 922,-1361.5 922,-933.5 0,-933.5"/>
<text text-anchor="start" x="8" y="-1346.3" font-family="Times,serif" font-size="14.00">0x114e29e0:</text>
<text text-anchor="start" x="8" y="-1331.3" font-family="Times,serif" font-size="14.00"> v1 = g38</text>
<text text-anchor="start" x="8" y="-1316.3" font-family="Times,serif" font-size="14.00"> v2 = g39</text>
<text text-anchor="start" x="8" y="-1301.3" font-family="Times,serif" font-size="14.00"> v3 = g40</text>
<text text-anchor="start" x="8" y="-1286.3" font-family="Times,serif" font-size="14.00"> v4 = g32</text>
<text text-anchor="start" x="8" y="-1271.3" font-family="Times,serif" font-size="14.00"> v5 = g35</text>
<text text-anchor="start" x="8" y="-1256.3" font-family="Times,serif" font-size="14.00"> v6 = g29</text>
<text text-anchor="start" x="8" y="-1241.3" font-family="Times,serif" font-size="14.00"> g38 = v6</text>
<text text-anchor="start" x="8" y="-1226.3" font-family="Times,serif" font-size="14.00"> *(IntToPtrCastExpr&lt;ptr&gt;((v6 + 16))) = *(IntToPtrCastExpr&lt;ptr&gt;((v6 + 12)))</text>
<text text-anchor="start" x="8" y="-1211.3" font-family="Times,serif" font-size="14.00"> g40 = g30</text>
<text text-anchor="start" x="8" y="-1196.3" font-family="Times,serif" font-size="14.00"> v7 = g29</text>
<text text-anchor="start" x="8" y="-1181.3" font-family="Times,serif" font-size="14.00"> memcpy(IntToPtrCastExpr&lt;ptr&gt;((v7 + 392)), IntToPtrCastExpr&lt;ptr&gt;((v7 + 136)), PtrToIntCastExpr&lt;int32&gt;(&quot;[P6\&quot;K^H$&quot;))</text>
<text text-anchor="start" x="8" y="-1166.3" font-family="Times,serif" font-size="14.00"> v8 = g38</text>
<text text-anchor="start" x="8" y="-1151.3" font-family="Times,serif" font-size="14.00"> v9 = *(IntToPtrCastExpr&lt;ptr&gt;((v8 + 21)))</text>
<text text-anchor="start" x="8" y="-1136.3" font-family="Times,serif" font-size="14.00"> v10 = (v8 + 664)</text>
<text text-anchor="start" x="8" y="-1121.3" font-family="Times,serif" font-size="14.00"> g33 = v10</text>
<text text-anchor="start" x="8" y="-1106.3" font-family="Times,serif" font-size="14.00"> g6 = True</text>
<text text-anchor="start" x="8" y="-1091.3" font-family="Times,serif" font-size="14.00"> g9 = (v9 == 0)</text>
<text text-anchor="start" x="8" y="-1076.3" font-family="Times,serif" font-size="14.00"> v11 = *(IntToPtrCastExpr&lt;ptr&gt;((v8 + 648)))</text>
<text text-anchor="start" x="8" y="-1061.3" font-family="Times,serif" font-size="14.00"> g29 = v11</text>
<text text-anchor="start" x="8" y="-1046.3" font-family="Times,serif" font-size="14.00"> g30 = *(IntToPtrCastExpr&lt;ptr&gt;((v8 + 652)))</text>
<text text-anchor="start" x="8" y="-1031.3" font-family="Times,serif" font-size="14.00"> g36 = *(IntToPtrCastExpr&lt;ptr&gt;((v8 + 656)))</text>
<text text-anchor="start" x="8" y="-1016.3" font-family="Times,serif" font-size="14.00"> g37 = *(IntToPtrCastExpr&lt;ptr&gt;((v8 + 660)))</text>
<text text-anchor="start" x="8" y="-1001.3" font-family="Times,serif" font-size="14.00"> *(IntToPtrCastExpr&lt;ptr&gt;(v10)) = v11</text>
<text text-anchor="start" x="8" y="-986.3" font-family="Times,serif" font-size="14.00"> *(IntToPtrCastExpr&lt;ptr&gt;((v8 + 668))) = g30</text>
<text text-anchor="start" x="8" y="-971.3" font-family="Times,serif" font-size="14.00"> *(IntToPtrCastExpr&lt;ptr&gt;((v8 + 672))) = g36</text>
<text text-anchor="start" x="8" y="-956.3" font-family="Times,serif" font-size="14.00"> *(IntToPtrCastExpr&lt;ptr&gt;((v8 + 676))) = g37</text>
<text text-anchor="start" x="8" y="-941.3" font-family="Times,serif" font-size="14.00"> v12</text>
</g>
<!-- Node0x1e9ebe70&#45;&gt;Node0x1087f560 -->
<g id="edge1" class="edge"><title>Node0x1e9ebe70&#45;&gt;Node0x1087f560</title>
<path fill="none" stroke="black" d="M461,-1399.33C461,-1392.03 461,-1382.72 461,-1371.99"/>
<polygon fill="black" stroke="black" points="464.5,-1371.77 461,-1361.77 457.5,-1371.77 464.5,-1371.77"/>
</g>
<!-- Node0x1087c360 -->
<g id="node3" class="node"><title>Node0x1087c360</title>
<polygon fill="none" stroke="black" points="406,-857.5 406,-895.5 516,-895.5 516,-857.5 406,-857.5"/>
<text text-anchor="start" x="414" y="-880.3" font-family="Times,serif" font-size="14.00">0x7c6bca0:</text>
<text text-anchor="start" x="414" y="-865.3" font-family="Times,serif" font-size="14.00"> if (v9 == 0):</text>
</g>
<!-- Node0x1087f560&#45;&gt;Node0x1087c360 -->
<g id="edge2" class="edge"><title>Node0x1087f560&#45;&gt;Node0x1087c360</title>
<path fill="none" stroke="black" d="M461,-933.237C461,-922.891 461,-913.505 461,-905.509"/>
<polygon fill="black" stroke="black" points="464.5,-905.509 461,-895.509 457.5,-905.509 464.5,-905.509"/>
</g>
<!-- Node0x461578a0 -->
<g id="node4" class="node"><title>Node0x461578a0</title>
<polygon fill="none" stroke="black" points="220.5,-545.5 220.5,-703.5 549.5,-703.5 549.5,-545.5 220.5,-545.5"/>
<text text-anchor="start" x="228.5" y="-688.3" font-family="Times,serif" font-size="14.00">0x7c6a5a0:</text>
<text text-anchor="start" x="228.5" y="-673.3" font-family="Times,serif" font-size="14.00"> g37 = 0</text>
<text text-anchor="start" x="228.5" y="-658.3" font-family="Times,serif" font-size="14.00"> *(IntToPtrCastExpr&lt;ptr&gt;((g38 + 28))) = 0</text>
<text text-anchor="start" x="228.5" y="-643.3" font-family="Times,serif" font-size="14.00"> g38 = v1</text>
<text text-anchor="start" x="228.5" y="-628.3" font-family="Times,serif" font-size="14.00"> g39 = v2</text>
<text text-anchor="start" x="228.5" y="-613.3" font-family="Times,serif" font-size="14.00"> g40 = v3</text>
<text text-anchor="start" x="228.5" y="-598.3" font-family="Times,serif" font-size="14.00"> g32 = v4</text>
<text text-anchor="start" x="228.5" y="-583.3" font-family="Times,serif" font-size="14.00"> g34 = v12</text>
<text text-anchor="start" x="228.5" y="-568.3" font-family="Times,serif" font-size="14.00"> IntToPtrCastExpr&lt;ptr&gt;(v5)()</text>
<text text-anchor="start" x="228.5" y="-553.3" font-family="Times,serif" font-size="14.00"> return</text>
</g>
<!-- Node0x1087c360&#45;&gt;Node0x461578a0 -->
<g id="edge3" class="edge"><title>Node0x1087c360&#45;&gt;Node0x461578a0</title>
<path fill="none" stroke="black" d="M441.126,-857.478C428.219,-844.513 412.304,-825.869 404,-806 392.046,-777.399 386.473,-744.123 384.143,-713.99"/>
<polygon fill="black" stroke="black" points="387.629,-713.649 383.473,-703.903 380.644,-714.113 387.629,-713.649"/>
<text text-anchor="middle" x="455" y="-827.8" font-family="Times,serif" font-size="14.00">v9 == 0</text>
</g>
<!-- Node0x1087bca0 -->
<g id="node5" class="node"><title>Node0x1087bca0</title>
<polygon fill="none" stroke="black" points="413,-722.5 413,-805.5 801,-805.5 801,-722.5 413,-722.5"/>
<text text-anchor="start" x="421" y="-790.3" font-family="Times,serif" font-size="14.00">0x40571360:</text>
<text text-anchor="start" x="421" y="-775.3" font-family="Times,serif" font-size="14.00"> v13 = g38</text>
<text text-anchor="start" x="421" y="-760.3" font-family="Times,serif" font-size="14.00"> v14 = (*(IntToPtrCastExpr&lt;ptr&gt;((v13 + 28))) % 2)</text>
<text text-anchor="start" x="421" y="-745.3" font-family="Times,serif" font-size="14.00"> g9 = (v14 == 0)</text>
<text text-anchor="start" x="421" y="-730.3" font-family="Times,serif" font-size="14.00"> g39 = v14</text>
</g>
<!-- Node0x1087c360&#45;&gt;Node0x1087bca0 -->
<g id="edge4" class="edge"><title>Node0x1087c360&#45;&gt;Node0x1087bca0</title>
<path fill="none" stroke="black" d="M485.109,-857.253C501.555,-844.806 524.129,-827.721 545.382,-811.635"/>
<polygon fill="black" stroke="black" points="547.586,-814.357 553.448,-805.531 543.362,-808.775 547.586,-814.357"/>
<text text-anchor="middle" x="553" y="-827.8" font-family="Times,serif" font-size="14.00">v9 != 0</text>
</g>
<!-- Node0x1087cc60 -->
<g id="node6" class="node"><title>Node0x1087cc60</title>
<polygon fill="none" stroke="black" points="414,-23.5 414,-59.5 468,-59.5 468,-23.5 414,-23.5"/>
<text text-anchor="start" x="422" y="-37.8" font-family="Times,serif" font-size="14.00">exit:</text>
</g>
<!-- Node0x461578a0&#45;&gt;Node0x1087cc60 -->
<g id="edge5" class="edge"><title>Node0x461578a0&#45;&gt;Node0x1087cc60</title>
<path fill="none" stroke="black" d="M385,-545.375C385,-519.333 385,-490.167 385,-463.5 385,-463.5 385,-463.5 385,-168 385,-130.814 405.757,-92.3884 421.997,-68.0166"/>
<polygon fill="black" stroke="black" points="424.935,-69.9215 427.729,-59.7017 419.172,-65.9486 424.935,-69.9215"/>
</g>
<!-- Node0x36a9ff40 -->
<g id="node7" class="node"><title>Node0x36a9ff40</title>
<polygon fill="none" stroke="black" points="547.5,-488.5 547.5,-526.5 666.5,-526.5 666.5,-488.5 547.5,-488.5"/>
<text text-anchor="start" x="555.5" y="-511.3" font-family="Times,serif" font-size="14.00">0x7c704b0:</text>
<text text-anchor="start" x="555.5" y="-496.3" font-family="Times,serif" font-size="14.00"> if (v14 == 0):</text>
</g>
<!-- Node0x1087bca0&#45;&gt;Node0x36a9ff40 -->
<g id="edge6" class="edge"><title>Node0x1087bca0&#45;&gt;Node0x36a9ff40</title>
<path fill="none" stroke="black" d="M607,-722.392C607,-670.534 607,-582.113 607,-536.921"/>
<polygon fill="black" stroke="black" points="610.5,-536.669 607,-526.669 603.5,-536.669 610.5,-536.669"/>
</g>
<!-- Node0x10880590 -->
<g id="node8" class="node"><title>Node0x10880590</title>
<polygon fill="none" stroke="black" points="412.5,-278.5 412.5,-436.5 759.5,-436.5 759.5,-278.5 412.5,-278.5"/>
<text text-anchor="start" x="420.5" y="-421.3" font-family="Times,serif" font-size="14.00">0x7c6cdf0:</text>
<text text-anchor="start" x="420.5" y="-406.3" font-family="Times,serif" font-size="14.00"> g37 = 1</text>
<text text-anchor="start" x="420.5" y="-391.3" font-family="Times,serif" font-size="14.00"> *(IntToPtrCastExpr&lt;ptr&gt;((v13 + 25))) = 1</text>
<text text-anchor="start" x="420.5" y="-376.3" font-family="Times,serif" font-size="14.00"> *(IntToPtrCastExpr&lt;ptr&gt;((g38 + 32))) = g40</text>
<text text-anchor="start" x="420.5" y="-361.3" font-family="Times,serif" font-size="14.00"> g29 = *(IntToPtrCastExpr&lt;ptr&gt;((g38 + 8)))</text>
<text text-anchor="start" x="420.5" y="-346.3" font-family="Times,serif" font-size="14.00"> function_6b08()</text>
<text text-anchor="start" x="420.5" y="-331.3" font-family="Times,serif" font-size="14.00"> v15 = &#45;(g29)</text>
<text text-anchor="start" x="420.5" y="-316.3" font-family="Times,serif" font-size="14.00"> g29 = v15</text>
<text text-anchor="start" x="420.5" y="-301.3" font-family="Times,serif" font-size="14.00"> *(IntToPtrCastExpr&lt;ptr&gt;((g38 + 36))) = v15</text>
<text text-anchor="start" x="420.5" y="-286.3" font-family="Times,serif" font-size="14.00"> *(IntToPtrCastExpr&lt;ptr&gt;((g38 + 40))) = g39</text>
</g>
<!-- Node0x36a9ff40&#45;&gt;Node0x10880590 -->
<g id="edge7" class="edge"><title>Node0x36a9ff40&#45;&gt;Node0x10880590</title>
<path fill="none" stroke="black" d="M604.425,-488.352C602.865,-477.358 600.747,-462.431 598.502,-446.61"/>
<polygon fill="black" stroke="black" points="601.962,-446.08 597.092,-436.671 595.032,-447.064 601.962,-446.08"/>
<text text-anchor="middle" x="636.5" y="-458.8" font-family="Times,serif" font-size="14.00">v14 == 0</text>
</g>
<!-- Node0x46156e40 -->
<g id="node9" class="node"><title>Node0x46156e40</title>
<polygon fill="none" stroke="black" points="421.5,-97.5 421.5,-240.5 750.5,-240.5 750.5,-97.5 421.5,-97.5"/>
<text text-anchor="start" x="429.5" y="-225.3" font-family="Times,serif" font-size="14.00">0x7c706b0:</text>
<text text-anchor="start" x="429.5" y="-210.3" font-family="Times,serif" font-size="14.00"> g37 = 0</text>
<text text-anchor="start" x="429.5" y="-195.3" font-family="Times,serif" font-size="14.00"> *(IntToPtrCastExpr&lt;ptr&gt;((g38 + 28))) = 0</text>
<text text-anchor="start" x="429.5" y="-180.3" font-family="Times,serif" font-size="14.00"> g38 = v1</text>
<text text-anchor="start" x="429.5" y="-165.3" font-family="Times,serif" font-size="14.00"> g39 = v2</text>
<text text-anchor="start" x="429.5" y="-150.3" font-family="Times,serif" font-size="14.00"> g40 = v3</text>
<text text-anchor="start" x="429.5" y="-135.3" font-family="Times,serif" font-size="14.00"> g32 = v4</text>
<text text-anchor="start" x="429.5" y="-120.3" font-family="Times,serif" font-size="14.00"> g34 = v12</text>
<text text-anchor="start" x="429.5" y="-105.3" font-family="Times,serif" font-size="14.00"> IntToPtrCastExpr&lt;ptr&gt;(v5)()</text>
</g>
<!-- Node0x36a9ff40&#45;&gt;Node0x46156e40 -->
<g id="edge8" class="edge"><title>Node0x36a9ff40&#45;&gt;Node0x46156e40</title>
<path fill="none" stroke="black" d="M666.573,-497.416C702.526,-488.532 745.587,-471.087 768,-437 806.824,-377.954 802.967,-339.409 768,-278 761.688,-266.915 753.741,-256.85 744.718,-247.733"/>
<polygon fill="black" stroke="black" points="746.914,-244.991 737.261,-240.622 742.083,-250.056 746.914,-244.991"/>
<text text-anchor="middle" x="826.5" y="-353.8" font-family="Times,serif" font-size="14.00">v14 != 0</text>
</g>
<!-- Node0x10880590&#45;&gt;Node0x46156e40 -->
<g id="edge9" class="edge"><title>Node0x10880590&#45;&gt;Node0x46156e40</title>
<path fill="none" stroke="black" d="M586,-278.488C586,-269.35 586,-260.011 586,-250.836"/>
<polygon fill="black" stroke="black" points="589.5,-250.566 586,-240.566 582.5,-250.566 589.5,-250.566"/>
</g>
<!-- Node0x46156e40&#45;&gt;Node0x1087cc60 -->
<g id="edge10" class="edge"><title>Node0x46156e40&#45;&gt;Node0x1087cc60</title>
<path fill="none" stroke="black" d="M504.177,-97.181C491.404,-86.1254 479.023,-75.4096 468.656,-66.4372"/>
<polygon fill="black" stroke="black" points="470.657,-63.54 460.806,-59.642 466.076,-68.8328 470.657,-63.54"/>
</g>
</g>
</svg>
