<?xml version="1.0" encoding="UTF-8" standalone="no"?>
<!DOCTYPE svg PUBLIC "-//W3C//DTD SVG 1.1//EN"
 "http://www.w3.org/Graphics/SVG/1.1/DTD/svg11.dtd">
<!-- Generated by graphviz version 2.38.0 (20140413.2041)
 -->
<!-- Title: Control&#45;flow graph for function &#39;SpPlaybackPlay()&#39;. Pages: 1 -->
<svg width="416pt" height="1258pt"
 viewBox="0.00 0.00 415.50 1258.00" xmlns="http://www.w3.org/2000/svg" xmlns:xlink="http://www.w3.org/1999/xlink">
<g id="graph0" class="graph" transform="scale(1 1) rotate(0) translate(4 1254)">
<title>Control&#45;flow graph for function &#39;SpPlaybackPlay()&#39;.</title>
<polygon fill="white" stroke="none" points="-4,4 -4,-1254 411.5,-1254 411.5,4 -4,4"/>
<text text-anchor="middle" x="203.75" y="-7.8" font-family="Times,serif" font-size="14.00">Control&#45;flow graph for function &#39;SpPlaybackPlay()&#39;.</text>
<!-- Node0x478f9df0 -->
<g id="node1" class="node"><title>Node0x478f9df0</title>
<polygon fill="none" stroke="black" points="220.5,-1213.5 220.5,-1249.5 279.5,-1249.5 279.5,-1213.5 220.5,-1213.5"/>
<text text-anchor="start" x="228.5" y="-1227.8" font-family="Times,serif" font-size="14.00">entry:</text>
</g>
<!-- Node0x1519df80 -->
<g id="node2" class="node"><title>Node0x1519df80</title>
<polygon fill="none" stroke="black" points="92.5,-1032.5 92.5,-1175.5 407.5,-1175.5 407.5,-1032.5 92.5,-1032.5"/>
<text text-anchor="start" x="100.5" y="-1160.3" font-family="Times,serif" font-size="14.00">0x2a3ce5b0:</text>
<text text-anchor="start" x="100.5" y="-1145.3" font-family="Times,serif" font-size="14.00"> v1 = g38</text>
<text text-anchor="start" x="100.5" y="-1130.3" font-family="Times,serif" font-size="14.00"> v2 = g39</text>
<text text-anchor="start" x="100.5" y="-1115.3" font-family="Times,serif" font-size="14.00"> v3 = g40</text>
<text text-anchor="start" x="100.5" y="-1100.3" font-family="Times,serif" font-size="14.00"> g38 = 165012</text>
<text text-anchor="start" x="100.5" y="-1085.3" font-family="Times,serif" font-size="14.00"> v4 = *(IntToPtrCastExpr&lt;ptr&gt;(165212))</text>
<text text-anchor="start" x="100.5" y="-1070.3" font-family="Times,serif" font-size="14.00"> g40 = v4</text>
<text text-anchor="start" x="100.5" y="-1055.3" font-family="Times,serif" font-size="14.00"> v5 = *(IntToPtrCastExpr&lt;ptr&gt;(v4))</text>
<text text-anchor="start" x="100.5" y="-1040.3" font-family="Times,serif" font-size="14.00"> g37 = v5</text>
</g>
<!-- Node0x478f9df0&#45;&gt;Node0x1519df80 -->
<g id="edge1" class="edge"><title>Node0x478f9df0&#45;&gt;Node0x1519df80</title>
<path fill="none" stroke="black" d="M250,-1213.31C250,-1205.68 250,-1196.1 250,-1185.81"/>
<polygon fill="black" stroke="black" points="253.5,-1185.77 250,-1175.77 246.5,-1185.77 253.5,-1185.77"/>
</g>
<!-- Node0x1519f340 -->
<g id="node3" class="node"><title>Node0x1519f340</title>
<polygon fill="none" stroke="black" points="198,-956.5 198,-994.5 302,-994.5 302,-956.5 198,-956.5"/>
<text text-anchor="start" x="206" y="-979.3" font-family="Times,serif" font-size="14.00">0x831e4f0:</text>
<text text-anchor="start" x="206" y="-964.3" font-family="Times,serif" font-size="14.00"> if (v5 != 0):</text>
</g>
<!-- Node0x1519df80&#45;&gt;Node0x1519f340 -->
<g id="edge2" class="edge"><title>Node0x1519df80&#45;&gt;Node0x1519f340</title>
<path fill="none" stroke="black" d="M250,-1032.35C250,-1022.59 250,-1013.07 250,-1004.74"/>
<polygon fill="black" stroke="black" points="253.5,-1004.54 250,-994.54 246.5,-1004.54 253.5,-1004.54"/>
</g>
<!-- Node0x1519e080 -->
<g id="node4" class="node"><title>Node0x1519e080</title>
<polygon fill="none" stroke="black" points="38,-821.5 38,-904.5 250,-904.5 250,-821.5 38,-821.5"/>
<text text-anchor="start" x="46" y="-889.3" font-family="Times,serif" font-size="14.00">0x831d850:</text>
<text text-anchor="start" x="46" y="-874.3" font-family="Times,serif" font-size="14.00"> g29 = 157724</text>
<text text-anchor="start" x="46" y="-859.3" font-family="Times,serif" font-size="14.00"> g30 = 157480</text>
<text text-anchor="start" x="46" y="-844.3" font-family="Times,serif" font-size="14.00"> g36 = 155984</text>
<text text-anchor="start" x="46" y="-829.3" font-family="Times,serif" font-size="14.00"> imported_function_ord_0()</text>
</g>
<!-- Node0x1519f340&#45;&gt;Node0x1519e080 -->
<g id="edge3" class="edge"><title>Node0x1519f340&#45;&gt;Node0x1519e080</title>
<path fill="none" stroke="black" d="M232.496,-956.253C220.975,-944.242 205.311,-927.914 190.363,-912.331"/>
<polygon fill="black" stroke="black" points="192.552,-909.557 183.104,-904.764 187.5,-914.403 192.552,-909.557"/>
<text text-anchor="middle" x="240" y="-926.8" font-family="Times,serif" font-size="14.00">v5 != 0</text>
</g>
<!-- Node0x1519f640 -->
<g id="node5" class="node"><title>Node0x1519f640</title>
<polygon fill="none" stroke="black" points="100,-655.5 100,-783.5 388,-783.5 388,-655.5 100,-655.5"/>
<text text-anchor="start" x="108" y="-768.3" font-family="Times,serif" font-size="14.00">0x831e740:</text>
<text text-anchor="start" x="108" y="-753.3" font-family="Times,serif" font-size="14.00"> function_17138()</text>
<text text-anchor="start" x="108" y="-738.3" font-family="Times,serif" font-size="14.00"> v6 = *(IntToPtrCastExpr&lt;ptr&gt;(g40))</text>
<text text-anchor="start" x="108" y="-723.3" font-family="Times,serif" font-size="14.00"> g37 = v6</text>
<text text-anchor="start" x="108" y="-708.3" font-family="Times,serif" font-size="14.00"> v7 = g29</text>
<text text-anchor="start" x="108" y="-693.3" font-family="Times,serif" font-size="14.00"> g39 = v7</text>
<text text-anchor="start" x="108" y="-678.3" font-family="Times,serif" font-size="14.00"> g9 = (v6 == 0)</text>
<text text-anchor="start" x="108" y="-663.3" font-family="Times,serif" font-size="14.00"> v8 = v7</text>
</g>
<!-- Node0x1519f340&#45;&gt;Node0x1519f640 -->
<g id="edge4" class="edge"><title>Node0x1519f340&#45;&gt;Node0x1519f640</title>
<path fill="none" stroke="black" d="M262.896,-956.38C266.202,-950.755 269.302,-944.357 271,-938 272.721,-931.559 271.39,-929.655 271,-923 268.475,-879.935 262.255,-832.08 256.42,-793.708"/>
<polygon fill="black" stroke="black" points="259.854,-793.007 254.868,-783.658 252.936,-794.075 259.854,-793.007"/>
<text text-anchor="middle" x="299" y="-859.3" font-family="Times,serif" font-size="14.00">v5 == 0</text>
</g>
<!-- Node0x1519e080&#45;&gt;Node0x1519f640 -->
<g id="edge5" class="edge"><title>Node0x1519e080&#45;&gt;Node0x1519f640</title>
<path fill="none" stroke="black" d="M172.656,-821.452C179.149,-812.264 186.233,-802.24 193.335,-792.191"/>
<polygon fill="black" stroke="black" points="196.379,-793.948 199.292,-783.762 190.662,-789.908 196.379,-793.948"/>
</g>
<!-- Node0x1519ff40 -->
<g id="node6" class="node"><title>Node0x1519ff40</title>
<polygon fill="none" stroke="black" points="192,-579.5 192,-617.5 296,-617.5 296,-579.5 192,-579.5"/>
<text text-anchor="start" x="200" y="-602.3" font-family="Times,serif" font-size="14.00">0x8320950:</text>
<text text-anchor="start" x="200" y="-587.3" font-family="Times,serif" font-size="14.00"> if (v6 != 0):</text>
</g>
<!-- Node0x1519f640&#45;&gt;Node0x1519ff40 -->
<g id="edge6" class="edge"><title>Node0x1519f640&#45;&gt;Node0x1519ff40</title>
<path fill="none" stroke="black" d="M244,-655.167C244,-645.596 244,-636.158 244,-627.848"/>
<polygon fill="black" stroke="black" points="247.5,-627.658 244,-617.659 240.5,-627.659 247.5,-627.658"/>
</g>
<!-- Node0x1519da80 -->
<g id="node7" class="node"><title>Node0x1519da80</title>
<polygon fill="none" stroke="black" points="32,-444.5 32,-527.5 244,-527.5 244,-444.5 32,-444.5"/>
<text text-anchor="start" x="40" y="-512.3" font-family="Times,serif" font-size="14.00">0x831ff60:</text>
<text text-anchor="start" x="40" y="-497.3" font-family="Times,serif" font-size="14.00"> g30 = (g38 &#45; 7532)</text>
<text text-anchor="start" x="40" y="-482.3" font-family="Times,serif" font-size="14.00"> g36 = v7</text>
<text text-anchor="start" x="40" y="-467.3" font-family="Times,serif" font-size="14.00"> imported_function_ord_0()</text>
<text text-anchor="start" x="40" y="-452.3" font-family="Times,serif" font-size="14.00"> v8 = g39</text>
</g>
<!-- Node0x1519ff40&#45;&gt;Node0x1519da80 -->
<g id="edge7" class="edge"><title>Node0x1519ff40&#45;&gt;Node0x1519da80</title>
<path fill="none" stroke="black" d="M226.496,-579.253C214.975,-567.242 199.311,-550.914 184.363,-535.331"/>
<polygon fill="black" stroke="black" points="186.552,-532.557 177.104,-527.764 181.5,-537.403 186.552,-532.557"/>
<text text-anchor="middle" x="234" y="-549.8" font-family="Times,serif" font-size="14.00">v6 != 0</text>
</g>
<!-- Node0x478fd610 -->
<g id="node8" class="node"><title>Node0x478fd610</title>
<polygon fill="none" stroke="black" points="117,-278.5 117,-406.5 359,-406.5 359,-278.5 117,-278.5"/>
<text text-anchor="start" x="125" y="-391.3" font-family="Times,serif" font-size="14.00">0x8320ad0:</text>
<text text-anchor="start" x="125" y="-376.3" font-family="Times,serif" font-size="14.00"> g29 = v8</text>
<text text-anchor="start" x="125" y="-361.3" font-family="Times,serif" font-size="14.00"> g38 = v1</text>
<text text-anchor="start" x="125" y="-346.3" font-family="Times,serif" font-size="14.00"> g39 = v2</text>
<text text-anchor="start" x="125" y="-331.3" font-family="Times,serif" font-size="14.00"> g40 = v3</text>
<text text-anchor="start" x="125" y="-316.3" font-family="Times,serif" font-size="14.00"> v9</text>
<text text-anchor="start" x="125" y="-301.3" font-family="Times,serif" font-size="14.00"> g34 = v9</text>
<text text-anchor="start" x="125" y="-286.3" font-family="Times,serif" font-size="14.00"> IntToPtrCastExpr&lt;ptr&gt;(g35)()</text>
</g>
<!-- Node0x1519ff40&#45;&gt;Node0x478fd610 -->
<g id="edge8" class="edge"><title>Node0x1519ff40&#45;&gt;Node0x478fd610</title>
<path fill="none" stroke="black" d="M256.896,-579.38C260.202,-573.755 263.302,-567.357 265,-561 266.721,-554.559 265.39,-552.655 265,-546 262.475,-502.935 256.255,-455.08 250.42,-416.708"/>
<polygon fill="black" stroke="black" points="253.854,-416.007 248.868,-406.658 246.936,-417.075 253.854,-416.007"/>
<text text-anchor="middle" x="293" y="-482.3" font-family="Times,serif" font-size="14.00">v6 == 0</text>
</g>
<!-- Node0x1519da80&#45;&gt;Node0x478fd610 -->
<g id="edge9" class="edge"><title>Node0x1519da80&#45;&gt;Node0x478fd610</title>
<path fill="none" stroke="black" d="M166.656,-444.452C173.149,-435.264 180.233,-425.24 187.335,-415.191"/>
<polygon fill="black" stroke="black" points="190.379,-416.948 193.292,-406.762 184.662,-412.908 190.379,-416.948"/>
</g>
<!-- Node0x383b53c0 -->
<g id="node9" class="node"><title>Node0x383b53c0</title>
<polygon fill="none" stroke="black" points="189,-202.5 189,-240.5 287,-240.5 287,-202.5 189,-202.5"/>
<text text-anchor="start" x="197" y="-225.3" font-family="Times,serif" font-size="14.00">0x83226f0:</text>
<text text-anchor="start" x="197" y="-210.3" font-family="Times,serif" font-size="14.00"> if g9:</text>
</g>
<!-- Node0x478fd610&#45;&gt;Node0x383b53c0 -->
<g id="edge10" class="edge"><title>Node0x478fd610&#45;&gt;Node0x383b53c0</title>
<path fill="none" stroke="black" d="M238,-278.167C238,-268.596 238,-259.158 238,-250.848"/>
<polygon fill="black" stroke="black" points="241.5,-250.658 238,-240.659 234.5,-250.659 241.5,-250.658"/>
</g>
<!-- Node0x383b3290 -->
<g id="node10" class="node"><title>Node0x383b3290</title>
<polygon fill="none" stroke="black" points="0,-97.5 0,-150.5 242,-150.5 242,-97.5 0,-97.5"/>
<text text-anchor="start" x="8" y="-135.3" font-family="Times,serif" font-size="14.00">0x8321c70:</text>
<text text-anchor="start" x="8" y="-120.3" font-family="Times,serif" font-size="14.00"> g36 = (g30 &amp; (g38 / 2097152))</text>
<text text-anchor="start" x="8" y="-105.3" font-family="Times,serif" font-size="14.00"> g29 = (g29 &amp; (g42 / 2))</text>
</g>
<!-- Node0x383b53c0&#45;&gt;Node0x383b3290 -->
<g id="edge11" class="edge"><title>Node0x383b53c0&#45;&gt;Node0x383b3290</title>
<path fill="none" stroke="black" d="M215.718,-202.312C200.194,-189.641 179.06,-172.391 160.694,-157.4"/>
<polygon fill="black" stroke="black" points="162.44,-154.307 152.48,-150.695 158.014,-159.73 162.44,-154.307"/>
<text text-anchor="middle" x="199.5" y="-172.8" font-family="Times,serif" font-size="14.00">g9</text>
</g>
<!-- Node0x1519f2a0 -->
<g id="node11" class="node"><title>Node0x1519f2a0</title>
<polygon fill="none" stroke="black" points="205,-23.5 205,-59.5 259,-59.5 259,-23.5 205,-23.5"/>
<text text-anchor="start" x="213" y="-37.8" font-family="Times,serif" font-size="14.00">exit:</text>
</g>
<!-- Node0x383b53c0&#45;&gt;Node0x1519f2a0 -->
<g id="edge12" class="edge"><title>Node0x383b53c0&#45;&gt;Node0x1519f2a0</title>
<path fill="none" stroke="black" d="M242.972,-202.405C248.911,-178.252 257.298,-134.2 251,-97 249.437,-87.7687 246.484,-78.0156 243.363,-69.3515"/>
<polygon fill="black" stroke="black" points="246.542,-67.8643 239.697,-59.7773 240.005,-70.3677 246.542,-67.8643"/>
<text text-anchor="middle" x="281.5" y="-120.3" font-family="Times,serif" font-size="14.00">not (g9)</text>
</g>
<!-- Node0x383b3290&#45;&gt;Node0x1519f2a0 -->
<g id="edge13" class="edge"><title>Node0x383b3290&#45;&gt;Node0x1519f2a0</title>
<path fill="none" stroke="black" d="M156.426,-97.308C170.508,-87.0959 186.581,-75.4388 200.274,-65.5083"/>
<polygon fill="black" stroke="black" points="202.413,-68.2808 208.453,-59.5766 198.303,-62.6142 202.413,-68.2808"/>
</g>
</g>
</svg>
