<?xml version="1.0" encoding="UTF-8" standalone="no"?>
<!DOCTYPE svg PUBLIC "-//W3C//DTD SVG 1.1//EN"
 "http://www.w3.org/Graphics/SVG/1.1/DTD/svg11.dtd">
<!-- Generated by graphviz version 2.38.0 (20140413.2041)
 -->
<!-- Title: Control&#45;flow graph for function &#39;function_8964()&#39;. Pages: 1 -->
<svg width="377pt" height="399pt"
 viewBox="0.00 0.00 377.00 399.00" xmlns="http://www.w3.org/2000/svg" xmlns:xlink="http://www.w3.org/1999/xlink">
<g id="graph0" class="graph" transform="scale(1 1) rotate(0) translate(4 395)">
<title>Control&#45;flow graph for function &#39;function_8964()&#39;.</title>
<polygon fill="white" stroke="none" points="-4,4 -4,-395 373,-395 373,4 -4,4"/>
<text text-anchor="middle" x="184.5" y="-7.8" font-family="Times,serif" font-size="14.00">Control&#45;flow graph for function &#39;function_8964()&#39;.</text>
<!-- Node0x21d6e940 -->
<g id="node1" class="node"><title>Node0x21d6e940</title>
<polygon fill="none" stroke="black" points="155,-354.5 155,-390.5 214,-390.5 214,-354.5 155,-354.5"/>
<text text-anchor="start" x="163" y="-368.8" font-family="Times,serif" font-size="14.00">entry:</text>
</g>
<!-- Node0x34d28bc0 -->
<g id="node2" class="node"><title>Node0x34d28bc0</title>
<polygon fill="none" stroke="black" points="15.5,-263.5 15.5,-316.5 353.5,-316.5 353.5,-263.5 15.5,-263.5"/>
<text text-anchor="start" x="23.5" y="-301.3" font-family="Times,serif" font-size="14.00">0x6c08760:</text>
<text text-anchor="start" x="23.5" y="-286.3" font-family="Times,serif" font-size="14.00"> g9 = (g30 == &#45;1)</text>
<text text-anchor="start" x="23.5" y="-271.3" font-family="Times,serif" font-size="14.00"> g37 = *(IntToPtrCastExpr&lt;ptr&gt;((g29 + 4)))</text>
</g>
<!-- Node0x21d6e940&#45;&gt;Node0x34d28bc0 -->
<g id="edge1" class="edge"><title>Node0x21d6e940&#45;&gt;Node0x34d28bc0</title>
<path fill="none" stroke="black" d="M184.5,-354.428C184.5,-346.361 184.5,-336.411 184.5,-326.802"/>
<polygon fill="black" stroke="black" points="188,-326.616 184.5,-316.616 181,-326.616 188,-326.616"/>
</g>
<!-- Node0x24411ec0 -->
<g id="node3" class="node"><title>Node0x24411ec0</title>
<polygon fill="none" stroke="black" points="125.5,-187.5 125.5,-225.5 243.5,-225.5 243.5,-187.5 125.5,-187.5"/>
<text text-anchor="start" x="133.5" y="-210.3" font-family="Times,serif" font-size="14.00">0x6c0ad80:</text>
<text text-anchor="start" x="133.5" y="-195.3" font-family="Times,serif" font-size="14.00"> if (g30 != &#45;1):</text>
</g>
<!-- Node0x34d28bc0&#45;&gt;Node0x24411ec0 -->
<g id="edge2" class="edge"><title>Node0x34d28bc0&#45;&gt;Node0x24411ec0</title>
<path fill="none" stroke="black" d="M184.5,-263.213C184.5,-254.526 184.5,-244.787 184.5,-235.91"/>
<polygon fill="black" stroke="black" points="188,-235.638 184.5,-225.638 181,-235.638 188,-235.638"/>
</g>
<!-- Node0x30e0fb80 -->
<g id="node4" class="node"><title>Node0x30e0fb80</title>
<polygon fill="none" stroke="black" points="91,-97.5 91,-135.5 190,-135.5 190,-97.5 91,-97.5"/>
<text text-anchor="start" x="99" y="-120.3" font-family="Times,serif" font-size="14.00">0x6c0aa80:</text>
<text text-anchor="start" x="99" y="-105.3" font-family="Times,serif" font-size="14.00"> g29 = 0</text>
</g>
<!-- Node0x24411ec0&#45;&gt;Node0x30e0fb80 -->
<g id="edge3" class="edge"><title>Node0x24411ec0&#45;&gt;Node0x30e0fb80</title>
<path fill="none" stroke="black" d="M158.872,-187.436C153.203,-182.161 147.883,-175.927 144.5,-169 141.037,-161.909 139.482,-153.607 138.932,-145.766"/>
<polygon fill="black" stroke="black" points="142.427,-145.44 138.722,-135.514 135.428,-145.584 142.427,-145.44"/>
<text text-anchor="middle" x="178.5" y="-157.8" font-family="Times,serif" font-size="14.00">g30 != &#45;1</text>
</g>
<!-- Node0x24414400 -->
<g id="node5" class="node"><title>Node0x24414400</title>
<polygon fill="none" stroke="black" points="171.5,-23.5 171.5,-59.5 225.5,-59.5 225.5,-23.5 171.5,-23.5"/>
<text text-anchor="start" x="179.5" y="-37.8" font-family="Times,serif" font-size="14.00">exit:</text>
</g>
<!-- Node0x24411ec0&#45;&gt;Node0x24414400 -->
<g id="edge4" class="edge"><title>Node0x24411ec0&#45;&gt;Node0x24414400</title>
<path fill="none" stroke="black" d="M202.223,-187.194C206.408,-181.757 210.293,-175.504 212.5,-169 223.721,-135.936 215.755,-95.4904 208.013,-69.3751"/>
<polygon fill="black" stroke="black" points="211.334,-68.2673 204.988,-59.7834 204.658,-70.3732 211.334,-68.2673"/>
<text text-anchor="middle" x="255.5" y="-112.8" font-family="Times,serif" font-size="14.00">g30 == &#45;1</text>
</g>
<!-- Node0x30e0fb80&#45;&gt;Node0x24414400 -->
<g id="edge5" class="edge"><title>Node0x30e0fb80&#45;&gt;Node0x24414400</title>
<path fill="none" stroke="black" d="M154.837,-97.4551C161.966,-88.483 170.698,-77.492 178.475,-67.7035"/>
<polygon fill="black" stroke="black" points="181.247,-69.8416 184.727,-59.8347 175.766,-65.487 181.247,-69.8416"/>
</g>
</g>
</svg>
