<?xml version="1.0" encoding="UTF-8" standalone="no"?>
<!DOCTYPE svg PUBLIC "-//W3C//DTD SVG 1.1//EN"
 "http://www.w3.org/Graphics/SVG/1.1/DTD/svg11.dtd">
<!-- Generated by graphviz version 2.38.0 (20140413.2041)
 -->
<!-- Title: Control&#45;flow graph for function &#39;SpConnectionLogout()&#39;. Pages: 1 -->
<svg width="424pt" height="580pt"
 viewBox="0.00 0.00 424.00 580.00" xmlns="http://www.w3.org/2000/svg" xmlns:xlink="http://www.w3.org/1999/xlink">
<g id="graph0" class="graph" transform="scale(1 1) rotate(0) translate(4 576)">
<title>Control&#45;flow graph for function &#39;SpConnectionLogout()&#39;.</title>
<polygon fill="white" stroke="none" points="-4,4 -4,-576 420,-576 420,4 -4,4"/>
<text text-anchor="middle" x="208" y="-7.8" font-family="Times,serif" font-size="14.00">Control&#45;flow graph for function &#39;SpConnectionLogout()&#39;.</text>
<!-- Node0x245ae9e0 -->
<g id="node1" class="node"><title>Node0x245ae9e0</title>
<polygon fill="none" stroke="black" points="205.75,-535.5 205.75,-571.5 264.75,-571.5 264.75,-535.5 205.75,-535.5"/>
<text text-anchor="start" x="213.75" y="-549.8" font-family="Times,serif" font-size="14.00">entry:</text>
</g>
<!-- Node0x2952d190 -->
<g id="node2" class="node"><title>Node0x2952d190</title>
<polygon fill="none" stroke="black" points="77.75,-384.5 77.75,-497.5 392.75,-497.5 392.75,-384.5 77.75,-384.5"/>
<text text-anchor="start" x="85.75" y="-482.3" font-family="Times,serif" font-size="14.00">0x825d940:</text>
<text text-anchor="start" x="85.75" y="-467.3" font-family="Times,serif" font-size="14.00"> g38 = 165012</text>
<text text-anchor="start" x="85.75" y="-452.3" font-family="Times,serif" font-size="14.00"> v1 = *(IntToPtrCastExpr&lt;ptr&gt;(165212))</text>
<text text-anchor="start" x="85.75" y="-437.3" font-family="Times,serif" font-size="14.00"> g40 = v1</text>
<text text-anchor="start" x="85.75" y="-422.3" font-family="Times,serif" font-size="14.00"> v2 = *(IntToPtrCastExpr&lt;ptr&gt;(v1))</text>
<text text-anchor="start" x="85.75" y="-407.3" font-family="Times,serif" font-size="14.00"> g37 = v2</text>
<text text-anchor="start" x="85.75" y="-392.3" font-family="Times,serif" font-size="14.00"> g9 = (v2 == 0)</text>
</g>
<!-- Node0x245ae9e0&#45;&gt;Node0x2952d190 -->
<g id="edge1" class="edge"><title>Node0x245ae9e0&#45;&gt;Node0x2952d190</title>
<path fill="none" stroke="black" d="M235.25,-535.234C235.25,-527.586 235.25,-518.056 235.25,-508.033"/>
<polygon fill="black" stroke="black" points="238.75,-507.897 235.25,-497.897 231.75,-507.897 238.75,-507.897"/>
</g>
<!-- Node0x245aee00 -->
<g id="node3" class="node"><title>Node0x245aee00</title>
<polygon fill="none" stroke="black" points="183.25,-308.5 183.25,-346.5 287.25,-346.5 287.25,-308.5 183.25,-308.5"/>
<text text-anchor="start" x="191.25" y="-331.3" font-family="Times,serif" font-size="14.00">0x8261040:</text>
<text text-anchor="start" x="191.25" y="-316.3" font-family="Times,serif" font-size="14.00"> if (v2 != 0):</text>
</g>
<!-- Node0x2952d190&#45;&gt;Node0x245aee00 -->
<g id="edge2" class="edge"><title>Node0x2952d190&#45;&gt;Node0x245aee00</title>
<path fill="none" stroke="black" d="M235.25,-384.25C235.25,-374.862 235.25,-365.474 235.25,-357.151"/>
<polygon fill="black" stroke="black" points="238.75,-356.912 235.25,-346.912 231.75,-356.912 238.75,-356.912"/>
</g>
<!-- Node0x245af400 -->
<g id="node4" class="node"><title>Node0x245af400</title>
<polygon fill="none" stroke="black" points="23.25,-173.5 23.25,-256.5 235.25,-256.5 235.25,-173.5 23.25,-173.5"/>
<text text-anchor="start" x="31.25" y="-241.3" font-family="Times,serif" font-size="14.00">0x8260460:</text>
<text text-anchor="start" x="31.25" y="-226.3" font-family="Times,serif" font-size="14.00"> g29 = 157724</text>
<text text-anchor="start" x="31.25" y="-211.3" font-family="Times,serif" font-size="14.00"> g30 = 157032</text>
<text text-anchor="start" x="31.25" y="-196.3" font-family="Times,serif" font-size="14.00"> g36 = 155984</text>
<text text-anchor="start" x="31.25" y="-181.3" font-family="Times,serif" font-size="14.00"> imported_function_ord_0()</text>
</g>
<!-- Node0x245aee00&#45;&gt;Node0x245af400 -->
<g id="edge3" class="edge"><title>Node0x245aee00&#45;&gt;Node0x245af400</title>
<path fill="none" stroke="black" d="M217.746,-308.253C206.225,-296.242 190.561,-279.914 175.613,-264.331"/>
<polygon fill="black" stroke="black" points="177.802,-261.557 168.354,-256.764 172.75,-266.403 177.802,-261.557"/>
<text text-anchor="middle" x="225.25" y="-278.8" font-family="Times,serif" font-size="14.00">v2 != 0</text>
</g>
<!-- Node0x245af100 -->
<g id="node5" class="node"><title>Node0x245af100</title>
<polygon fill="none" stroke="black" points="158.25,-97.5 158.25,-135.5 300.25,-135.5 300.25,-97.5 158.25,-97.5"/>
<text text-anchor="start" x="166.25" y="-120.3" font-family="Times,serif" font-size="14.00">0x8261290:</text>
<text text-anchor="start" x="166.25" y="-105.3" font-family="Times,serif" font-size="14.00"> function_17a1c()</text>
</g>
<!-- Node0x245aee00&#45;&gt;Node0x245af100 -->
<g id="edge4" class="edge"><title>Node0x245aee00&#45;&gt;Node0x245af100</title>
<path fill="none" stroke="black" d="M248.146,-308.38C251.452,-302.755 254.552,-296.357 256.25,-290 257.971,-283.559 256.64,-281.655 256.25,-275 253.579,-229.432 252.895,-217.82 244.25,-173 242.511,-163.984 240.085,-154.28 237.69,-145.547"/>
<polygon fill="black" stroke="black" points="241.032,-144.506 234.935,-135.842 234.298,-146.417 241.032,-144.506"/>
<text text-anchor="middle" x="284.25" y="-211.3" font-family="Times,serif" font-size="14.00">v2 == 0</text>
</g>
<!-- Node0x245af400&#45;&gt;Node0x245af100 -->
<g id="edge5" class="edge"><title>Node0x245af400&#45;&gt;Node0x245af100</title>
<path fill="none" stroke="black" d="M171.369,-173.355C182.151,-162.95 193.435,-152.061 203.147,-142.69"/>
<polygon fill="black" stroke="black" points="205.793,-145 210.558,-135.538 200.932,-139.963 205.793,-145"/>
</g>
<!-- Node0x1ff44e30 -->
<g id="node6" class="node"><title>Node0x1ff44e30</title>
<polygon fill="none" stroke="black" points="202.25,-23.5 202.25,-59.5 256.25,-59.5 256.25,-23.5 202.25,-23.5"/>
<text text-anchor="start" x="210.25" y="-37.8" font-family="Times,serif" font-size="14.00">exit:</text>
</g>
<!-- Node0x245af100&#45;&gt;Node0x1ff44e30 -->
<g id="edge6" class="edge"><title>Node0x245af100&#45;&gt;Node0x1ff44e30</title>
<path fill="none" stroke="black" d="M229.25,-97.4551C229.25,-89.2008 229.25,-79.2377 229.25,-70.0742"/>
<polygon fill="black" stroke="black" points="232.75,-69.8347 229.25,-59.8347 225.75,-69.8347 232.75,-69.8347"/>
</g>
</g>
</svg>
