<?xml version="1.0" encoding="UTF-8" standalone="no"?>
<!DOCTYPE svg PUBLIC "-//W3C//DTD SVG 1.1//EN"
 "http://www.w3.org/Graphics/SVG/1.1/DTD/svg11.dtd">
<!-- Generated by graphviz version 2.38.0 (20140413.2041)
 -->
<!-- Title: Control&#45;flow graph for function &#39;function_23eb4()&#39;. Pages: 1 -->
<svg width="899pt" height="1363pt"
 viewBox="0.00 0.00 898.50 1363.00" xmlns="http://www.w3.org/2000/svg" xmlns:xlink="http://www.w3.org/1999/xlink">
<g id="graph0" class="graph" transform="scale(1 1) rotate(0) translate(4 1359)">
<title>Control&#45;flow graph for function &#39;function_23eb4()&#39;.</title>
<polygon fill="white" stroke="none" points="-4,4 -4,-1359 894.5,-1359 894.5,4 -4,4"/>
<text text-anchor="middle" x="445.25" y="-7.8" font-family="Times,serif" font-size="14.00">Control&#45;flow graph for function &#39;function_23eb4()&#39;.</text>
<!-- Node0x466106d0 -->
<g id="node1" class="node"><title>Node0x466106d0</title>
<polygon fill="none" stroke="black" points="207,-1318.5 207,-1354.5 266,-1354.5 266,-1318.5 207,-1318.5"/>
<text text-anchor="start" x="215" y="-1332.8" font-family="Times,serif" font-size="14.00">entry:</text>
</g>
<!-- Node0x4660f890 -->
<g id="node2" class="node"><title>Node0x4660f890</title>
<polygon fill="none" stroke="black" points="93,-1122.5 93,-1280.5 380,-1280.5 380,-1122.5 93,-1122.5"/>
<text text-anchor="start" x="101" y="-1265.3" font-family="Times,serif" font-size="14.00">0x201ed340:</text>
<text text-anchor="start" x="101" y="-1250.3" font-family="Times,serif" font-size="14.00"> v1 = g41</text>
<text text-anchor="start" x="101" y="-1235.3" font-family="Times,serif" font-size="14.00"> v2 = ((g30 &#45; g38) / v1)</text>
<text text-anchor="start" x="101" y="-1220.3" font-family="Times,serif" font-size="14.00"> g40 = v2</text>
<text text-anchor="start" x="101" y="-1205.3" font-family="Times,serif" font-size="14.00"> g30 = v1</text>
<text text-anchor="start" x="101" y="-1190.3" font-family="Times,serif" font-size="14.00"> g31 = (g31 * v2)</text>
<text text-anchor="start" x="101" y="-1175.3" font-family="Times,serif" font-size="14.00"> unknown_228ca()</text>
<text text-anchor="start" x="101" y="-1160.3" font-family="Times,serif" font-size="14.00"> v3 = ((g32 % 65536) | (65536 * g30))</text>
<text text-anchor="start" x="101" y="-1145.3" font-family="Times,serif" font-size="14.00"> v4 = g31</text>
<text text-anchor="start" x="101" y="-1130.3" font-family="Times,serif" font-size="14.00"> v5 = (v4 + 1)</text>
</g>
<!-- Node0x466106d0&#45;&gt;Node0x4660f890 -->
<g id="edge1" class="edge"><title>Node0x466106d0&#45;&gt;Node0x4660f890</title>
<path fill="none" stroke="black" d="M236.5,-1318.38C236.5,-1310.78 236.5,-1301.21 236.5,-1290.83"/>
<polygon fill="black" stroke="black" points="240,-1290.68 236.5,-1280.68 233,-1290.68 240,-1290.68"/>
</g>
<!-- Node0x46610710 -->
<g id="node3" class="node"><title>Node0x46610710</title>
<polygon fill="none" stroke="black" points="45,-1046.5 45,-1084.5 428,-1084.5 428,-1046.5 45,-1046.5"/>
<text text-anchor="start" x="53" y="-1069.3" font-family="Times,serif" font-size="14.00">0xa4a5620:</text>
<text text-anchor="start" x="53" y="-1054.3" font-family="Times,serif" font-size="14.00"> if (((v5 + (&#45;1 &#45; v3)) == 0) or (((&#45;2 &#45; v3) + v4) &gt; v4)):</text>
</g>
<!-- Node0x4660f890&#45;&gt;Node0x46610710 -->
<g id="edge2" class="edge"><title>Node0x4660f890&#45;&gt;Node0x46610710</title>
<path fill="none" stroke="black" d="M236.5,-1122.16C236.5,-1112.45 236.5,-1103.06 236.5,-1094.85"/>
<polygon fill="black" stroke="black" points="240,-1094.8 236.5,-1084.8 233,-1094.8 240,-1094.8"/>
</g>
<!-- Node0x3c6dd210 -->
<g id="node4" class="node"><title>Node0x3c6dd210</title>
<polygon fill="none" stroke="black" points="0,-749.5 0,-892.5 219,-892.5 219,-749.5 0,-749.5"/>
<text text-anchor="start" x="8" y="-877.3" font-family="Times,serif" font-size="14.00">0xa4adce0:</text>
<text text-anchor="start" x="8" y="-862.3" font-family="Times,serif" font-size="14.00"> g8 = False</text>
<text text-anchor="start" x="8" y="-847.3" font-family="Times,serif" font-size="14.00"> g6 = False</text>
<text text-anchor="start" x="8" y="-832.3" font-family="Times,serif" font-size="14.00"> g29 = ((65536 * g42) | g40)</text>
<text text-anchor="start" x="8" y="-817.3" font-family="Times,serif" font-size="14.00"> g37 = 0</text>
<text text-anchor="start" x="8" y="-802.3" font-family="Times,serif" font-size="14.00"> g7 = False</text>
<text text-anchor="start" x="8" y="-787.3" font-family="Times,serif" font-size="14.00"> g9 = True</text>
<text text-anchor="start" x="8" y="-772.3" font-family="Times,serif" font-size="14.00"> function_23f36()</text>
<text text-anchor="start" x="8" y="-757.3" font-family="Times,serif" font-size="14.00"> return</text>
</g>
<!-- Node0x46610710&#45;&gt;Node0x3c6dd210 -->
<g id="edge3" class="edge"><title>Node0x46610710&#45;&gt;Node0x3c6dd210</title>
<path fill="none" stroke="black" d="M92.212,-1046.4C75.2108,-1041.6 61.6926,-1035.57 55.5,-1028 26.4842,-992.549 38.2073,-943.156 58.0303,-901.622"/>
<polygon fill="black" stroke="black" points="61.1907,-903.127 62.5118,-892.615 54.9236,-900.009 61.1907,-903.127"/>
<text text-anchor="middle" x="222" y="-1016.8" font-family="Times,serif" font-size="14.00">((v5 + (&#45;1 &#45; v3)) == 0) or (((&#45;2 &#45; v3) + v4) &gt; v4)</text>
</g>
<!-- Node0x46610be0 -->
<g id="node5" class="node"><title>Node0x46610be0</title>
<polygon fill="none" stroke="black" points="350,-911.5 350,-994.5 475,-994.5 475,-911.5 350,-911.5"/>
<text text-anchor="start" x="358" y="-979.3" font-family="Times,serif" font-size="14.00">0x201ed280:</text>
<text text-anchor="start" x="358" y="-964.3" font-family="Times,serif" font-size="14.00"> v6 = g39</text>
<text text-anchor="start" x="358" y="-949.3" font-family="Times,serif" font-size="14.00"> v7 = (v6 + v3)</text>
<text text-anchor="start" x="358" y="-934.3" font-family="Times,serif" font-size="14.00"> v8 = g40</text>
<text text-anchor="start" x="358" y="-919.3" font-family="Times,serif" font-size="14.00"> v9 = (v8 &#45; 1)</text>
</g>
<!-- Node0x46610710&#45;&gt;Node0x46610be0 -->
<g id="edge4" class="edge"><title>Node0x46610710&#45;&gt;Node0x46610be0</title>
<path fill="none" stroke="black" d="M348.929,-1046.43C368.505,-1041.38 385,-1035.25 392.5,-1028 399.176,-1021.55 403.699,-1013.12 406.746,-1004.26"/>
<polygon fill="black" stroke="black" points="410.135,-1005.14 409.506,-994.566 403.402,-1003.23 410.135,-1005.14"/>
<text text-anchor="middle" x="578.5" y="-1016.8" font-family="Times,serif" font-size="14.00">((v5 + (&#45;1 &#45; v3)) != 0) and (((&#45;2 &#45; v3) + v4) &lt;= v4)</text>
</g>
<!-- Node0x4660f690 -->
<g id="node6" class="node"><title>Node0x4660f690</title>
<polygon fill="none" stroke="black" points="151.5,-23.5 151.5,-59.5 205.5,-59.5 205.5,-23.5 151.5,-23.5"/>
<text text-anchor="start" x="159.5" y="-37.8" font-family="Times,serif" font-size="14.00">exit:</text>
</g>
<!-- Node0x3c6dd210&#45;&gt;Node0x4660f690 -->
<g id="edge5" class="edge"><title>Node0x3c6dd210&#45;&gt;Node0x4660f690</title>
<path fill="none" stroke="black" d="M125.966,-749.401C130.647,-723.759 134.5,-694.463 134.5,-667.5 134.5,-667.5 134.5,-667.5 134.5,-160.5 134.5,-127.256 150.022,-91.8747 162.628,-68.6231"/>
<polygon fill="black" stroke="black" points="165.772,-70.1722 167.624,-59.7404 159.671,-66.7406 165.772,-70.1722"/>
</g>
<!-- Node0x466125d0 -->
<g id="node7" class="node"><title>Node0x466125d0</title>
<polygon fill="none" stroke="black" points="344.5,-692.5 344.5,-730.5 450.5,-730.5 450.5,-692.5 344.5,-692.5"/>
<text text-anchor="start" x="352.5" y="-715.3" font-family="Times,serif" font-size="14.00">0xa4ac490:</text>
<text text-anchor="start" x="352.5" y="-700.3" font-family="Times,serif" font-size="14.00"> if (v6 &gt; v7):</text>
</g>
<!-- Node0x46610be0&#45;&gt;Node0x466125d0 -->
<g id="edge6" class="edge"><title>Node0x46610be0&#45;&gt;Node0x466125d0</title>
<path fill="none" stroke="black" d="M409.955,-911.372C406.918,-862.878 401.918,-783.048 399.272,-740.787"/>
<polygon fill="black" stroke="black" points="402.755,-740.412 398.637,-730.65 395.769,-740.85 402.755,-740.412"/>
</g>
<!-- Node0x4660e540 -->
<g id="node8" class="node"><title>Node0x4660e540</title>
<polygon fill="none" stroke="black" points="166,-425.5 166,-568.5 375,-568.5 375,-425.5 166,-425.5"/>
<text text-anchor="start" x="174" y="-553.3" font-family="Times,serif" font-size="14.00">0xa4acaa0:</text>
<text text-anchor="start" x="174" y="-538.3" font-family="Times,serif" font-size="14.00"> g8 = False</text>
<text text-anchor="start" x="174" y="-523.3" font-family="Times,serif" font-size="14.00"> g6 = False</text>
<text text-anchor="start" x="174" y="-508.3" font-family="Times,serif" font-size="14.00"> g29 = ((65536 * g42) | v9)</text>
<text text-anchor="start" x="174" y="-493.3" font-family="Times,serif" font-size="14.00"> g37 = 0</text>
<text text-anchor="start" x="174" y="-478.3" font-family="Times,serif" font-size="14.00"> g7 = False</text>
<text text-anchor="start" x="174" y="-463.3" font-family="Times,serif" font-size="14.00"> g9 = True</text>
<text text-anchor="start" x="174" y="-448.3" font-family="Times,serif" font-size="14.00"> function_23f36()</text>
<text text-anchor="start" x="174" y="-433.3" font-family="Times,serif" font-size="14.00"> return</text>
</g>
<!-- Node0x466125d0&#45;&gt;Node0x4660e540 -->
<g id="edge7" class="edge"><title>Node0x466125d0&#45;&gt;Node0x4660e540</title>
<path fill="none" stroke="black" d="M359.015,-692.305C351.123,-687.234 343.427,-681.123 337.5,-674 314.758,-646.669 299.247,-610.798 288.928,-578.574"/>
<polygon fill="black" stroke="black" points="292.177,-577.232 285.889,-568.705 285.486,-579.292 292.177,-577.232"/>
<text text-anchor="middle" x="365.5" y="-662.8" font-family="Times,serif" font-size="14.00">v6 &gt; v7</text>
</g>
<!-- Node0x3c6dc250 -->
<g id="node9" class="node"><title>Node0x3c6dc250</title>
<polygon fill="none" stroke="black" points="336,-587.5 336,-640.5 459,-640.5 459,-587.5 336,-587.5"/>
<text text-anchor="start" x="344" y="-625.3" font-family="Times,serif" font-size="14.00">0x201ed0e0:</text>
<text text-anchor="start" x="344" y="-610.3" font-family="Times,serif" font-size="14.00"> v10 = (&#45;1 &#45; v7)</text>
<text text-anchor="start" x="344" y="-595.3" font-family="Times,serif" font-size="14.00"> v11</text>
</g>
<!-- Node0x466125d0&#45;&gt;Node0x3c6dc250 -->
<g id="edge8" class="edge"><title>Node0x466125d0&#45;&gt;Node0x3c6dc250</title>
<path fill="none" stroke="black" d="M397.5,-692.087C397.5,-680.425 397.5,-664.951 397.5,-650.929"/>
<polygon fill="black" stroke="black" points="401,-650.577 397.5,-640.577 394,-650.577 401,-650.577"/>
<text text-anchor="middle" x="431.5" y="-662.8" font-family="Times,serif" font-size="14.00">v6 &lt;= v7</text>
</g>
<!-- Node0x4660e540&#45;&gt;Node0x4660f690 -->
<g id="edge9" class="edge"><title>Node0x4660e540&#45;&gt;Node0x4660f690</title>
<path fill="none" stroke="black" d="M211.032,-425.252C207.187,-419.256 203.615,-413.135 200.5,-407 184.095,-374.693 178.5,-364.733 178.5,-328.5 178.5,-328.5 178.5,-328.5 178.5,-160.5 178.5,-129.411 178.5,-93.714 178.5,-69.7977"/>
<polygon fill="black" stroke="black" points="182,-69.697 178.5,-59.697 175,-69.697 182,-69.697"/>
</g>
<!-- Node0x3c6dc380 -->
<g id="node10" class="node"><title>Node0x3c6dc380</title>
<polygon fill="none" stroke="black" points="209.5,-353.5 209.5,-406.5 585.5,-406.5 585.5,-353.5 209.5,-353.5"/>
<text text-anchor="start" x="217.5" y="-391.3" font-family="Times,serif" font-size="14.00">0xa4aae50:</text>
<text text-anchor="start" x="217.5" y="-376.3" font-family="Times,serif" font-size="14.00"> if (((v10 + v5) != 0) and (((v4 &#45; 1) + v10) &lt;= v4)):</text>
<text text-anchor="start" x="217.5" y="-361.3" font-family="Times,serif" font-size="14.00"> else:</text>
</g>
<!-- Node0x3c6dc250&#45;&gt;Node0x3c6dc380 -->
<g id="edge10" class="edge"><title>Node0x3c6dc250&#45;&gt;Node0x3c6dc380</title>
<path fill="none" stroke="black" d="M397.5,-587.286C397.5,-545.826 397.5,-464.098 397.5,-416.911"/>
<polygon fill="black" stroke="black" points="401,-416.83 397.5,-406.83 394,-416.83 401,-416.83"/>
</g>
<!-- Node0x3c6dd8e0 -->
<g id="node11" class="node"><title>Node0x3c6dd8e0</title>
<polygon fill="none" stroke="black" points="222,-263.5 222,-301.5 341,-301.5 341,-263.5 222,-263.5"/>
<text text-anchor="start" x="230" y="-286.3" font-family="Times,serif" font-size="14.00">0xa4aabb0:</text>
<text text-anchor="start" x="230" y="-271.3" font-family="Times,serif" font-size="14.00"> v11 = (v8 &#45; 2)</text>
</g>
<!-- Node0x3c6dc380&#45;&gt;Node0x3c6dd8e0 -->
<g id="edge11" class="edge"><title>Node0x3c6dc380&#45;&gt;Node0x3c6dd8e0</title>
<path fill="none" stroke="black" d="M279.37,-353.478C264.496,-348.08 252.665,-341.897 247.5,-335 241.466,-326.941 244.442,-317.86 250.628,-309.592"/>
<polygon fill="black" stroke="black" points="253.358,-311.788 257.352,-301.975 248.11,-307.155 253.358,-311.788"/>
<text text-anchor="middle" x="410.5" y="-323.8" font-family="Times,serif" font-size="14.00">((v10 + v5) != 0) and (((v4 &#45; 1) + v10) &lt;= v4)</text>
</g>
<!-- Node0x3c6dda30 -->
<g id="node12" class="node"><title>Node0x3c6dda30</title>
<polygon fill="none" stroke="black" points="451,-263.5 451,-301.5 546,-301.5 546,-263.5 451,-263.5"/>
<text text-anchor="start" x="459" y="-286.3" font-family="Times,serif" font-size="14.00">0xa4aafb0:</text>
<text text-anchor="start" x="459" y="-271.3" font-family="Times,serif" font-size="14.00"> v11 = v9</text>
</g>
<!-- Node0x3c6dc380&#45;&gt;Node0x3c6dda30 -->
<g id="edge12" class="edge"><title>Node0x3c6dc380&#45;&gt;Node0x3c6dda30</title>
<path fill="none" stroke="black" d="M545.244,-353.369C560.196,-348.176 571.938,-342.085 577.5,-335 588.933,-320.436 574.848,-308.689 555.559,-300.113"/>
<polygon fill="black" stroke="black" points="556.667,-296.785 546.084,-296.278 554.04,-303.274 556.667,-296.785"/>
<text text-anchor="middle" x="736" y="-323.8" font-family="Times,serif" font-size="14.00">((v10 + v5) == 0) or (((v4 &#45; 1) + v10) &gt; v4)</text>
</g>
<!-- Node0x3c6dcb60 -->
<g id="node13" class="node"><title>Node0x3c6dcb60</title>
<polygon fill="none" stroke="black" points="206.5,-97.5 206.5,-225.5 424.5,-225.5 424.5,-97.5 206.5,-97.5"/>
<text text-anchor="start" x="214.5" y="-210.3" font-family="Times,serif" font-size="14.00">0xa4ab4a0:</text>
<text text-anchor="start" x="214.5" y="-195.3" font-family="Times,serif" font-size="14.00"> g8 = False</text>
<text text-anchor="start" x="214.5" y="-180.3" font-family="Times,serif" font-size="14.00"> g6 = False</text>
<text text-anchor="start" x="214.5" y="-165.3" font-family="Times,serif" font-size="14.00"> g29 = ((65536 * g42) | v11)</text>
<text text-anchor="start" x="214.5" y="-150.3" font-family="Times,serif" font-size="14.00"> g37 = 0</text>
<text text-anchor="start" x="214.5" y="-135.3" font-family="Times,serif" font-size="14.00"> g7 = False</text>
<text text-anchor="start" x="214.5" y="-120.3" font-family="Times,serif" font-size="14.00"> g9 = True</text>
<text text-anchor="start" x="214.5" y="-105.3" font-family="Times,serif" font-size="14.00"> function_23f36()</text>
</g>
<!-- Node0x3c6dd8e0&#45;&gt;Node0x3c6dcb60 -->
<g id="edge13" class="edge"><title>Node0x3c6dd8e0&#45;&gt;Node0x3c6dcb60</title>
<path fill="none" stroke="black" d="M286.664,-263.426C288.925,-255.511 291.742,-245.655 294.721,-235.227"/>
<polygon fill="black" stroke="black" points="298.11,-236.106 297.492,-225.529 291.379,-234.183 298.11,-236.106"/>
</g>
<!-- Node0x3c6dda30&#45;&gt;Node0x3c6dcb60 -->
<g id="edge14" class="edge"><title>Node0x3c6dda30&#45;&gt;Node0x3c6dcb60</title>
<path fill="none" stroke="black" d="M470.706,-263.426C456.92,-254.461 439.302,-243.005 420.918,-231.05"/>
<polygon fill="black" stroke="black" points="422.719,-228.047 412.428,-225.529 418.903,-233.915 422.719,-228.047"/>
</g>
<!-- Node0x3c6dcb60&#45;&gt;Node0x4660f690 -->
<g id="edge15" class="edge"><title>Node0x3c6dcb60&#45;&gt;Node0x4660f690</title>
<path fill="none" stroke="black" d="M242.187,-97.3546C229.31,-86.2636 216.661,-75.3689 206.073,-66.2487"/>
<polygon fill="black" stroke="black" points="208.268,-63.5206 198.407,-59.6464 203.7,-68.8245 208.268,-63.5206"/>
</g>
</g>
</svg>
