<?xml version="1.0" encoding="UTF-8" standalone="no"?>
<!DOCTYPE svg PUBLIC "-//W3C//DTD SVG 1.1//EN"
 "http://www.w3.org/Graphics/SVG/1.1/DTD/svg11.dtd">
<!-- Generated by graphviz version 2.38.0 (20140413.2041)
 -->
<!-- Title: Control&#45;flow graph for function &#39;function_6610()&#39;. Pages: 1 -->
<svg width="377pt" height="216pt"
 viewBox="0.00 0.00 377.00 216.00" xmlns="http://www.w3.org/2000/svg" xmlns:xlink="http://www.w3.org/1999/xlink">
<g id="graph0" class="graph" transform="scale(1 1) rotate(0) translate(4 212)">
<title>Control&#45;flow graph for function &#39;function_6610()&#39;.</title>
<polygon fill="white" stroke="none" points="-4,4 -4,-212 373,-212 373,4 -4,4"/>
<text text-anchor="middle" x="184.5" y="-7.8" font-family="Times,serif" font-size="14.00">Control&#45;flow graph for function &#39;function_6610()&#39;.</text>
<!-- Node0x2ae5d620 -->
<g id="node1" class="node"><title>Node0x2ae5d620</title>
<polygon fill="none" stroke="black" points="155,-171.5 155,-207.5 214,-207.5 214,-171.5 155,-171.5"/>
<text text-anchor="start" x="163" y="-185.8" font-family="Times,serif" font-size="14.00">entry:</text>
</g>
<!-- Node0x248b5960 -->
<g id="node2" class="node"><title>Node0x248b5960</title>
<polygon fill="none" stroke="black" points="6.5,-96.5 6.5,-134.5 362.5,-134.5 362.5,-96.5 6.5,-96.5"/>
<text text-anchor="start" x="14.5" y="-119.3" font-family="Times,serif" font-size="14.00">0x6122560:</text>
<text text-anchor="start" x="14.5" y="-104.3" font-family="Times,serif" font-size="14.00"> g29 = *(IntToPtrCastExpr&lt;ptr&gt;((g29 + 120)))</text>
</g>
<!-- Node0x2ae5d620&#45;&gt;Node0x248b5960 -->
<g id="edge1" class="edge"><title>Node0x2ae5d620&#45;&gt;Node0x248b5960</title>
<path fill="none" stroke="black" d="M184.5,-171.437C184.5,-163.487 184.5,-153.813 184.5,-144.813"/>
<polygon fill="black" stroke="black" points="188,-144.699 184.5,-134.699 181,-144.699 188,-144.699"/>
</g>
<!-- Node0x2248f400 -->
<g id="node3" class="node"><title>Node0x2248f400</title>
<polygon fill="none" stroke="black" points="157.5,-23.5 157.5,-59.5 211.5,-59.5 211.5,-23.5 157.5,-23.5"/>
<text text-anchor="start" x="165.5" y="-37.8" font-family="Times,serif" font-size="14.00">exit:</text>
</g>
<!-- Node0x248b5960&#45;&gt;Node0x2248f400 -->
<g id="edge2" class="edge"><title>Node0x248b5960&#45;&gt;Node0x2248f400</title>
<path fill="none" stroke="black" d="M184.5,-96.3314C184.5,-88.394 184.5,-78.9095 184.5,-70.1285"/>
<polygon fill="black" stroke="black" points="188,-69.9177 184.5,-59.9177 181,-69.9177 188,-69.9177"/>
</g>
</g>
</svg>
