<?xml version="1.0" encoding="UTF-8" standalone="no"?>
<!DOCTYPE svg PUBLIC "-//W3C//DTD SVG 1.1//EN"
 "http://www.w3.org/Graphics/SVG/1.1/DTD/svg11.dtd">
<!-- Generated by graphviz version 2.38.0 (20140413.2041)
 -->
<!-- Title: Control&#45;flow graph for function &#39;function_8f38()&#39;. Pages: 1 -->
<svg width="528pt" height="276pt"
 viewBox="0.00 0.00 528.00 276.00" xmlns="http://www.w3.org/2000/svg" xmlns:xlink="http://www.w3.org/1999/xlink">
<g id="graph0" class="graph" transform="scale(1 1) rotate(0) translate(4 272)">
<title>Control&#45;flow graph for function &#39;function_8f38()&#39;.</title>
<polygon fill="white" stroke="none" points="-4,4 -4,-272 524,-272 524,4 -4,4"/>
<text text-anchor="middle" x="260" y="-7.8" font-family="Times,serif" font-size="14.00">Control&#45;flow graph for function &#39;function_8f38()&#39;.</text>
<!-- Node0x121fd760 -->
<g id="node1" class="node"><title>Node0x121fd760</title>
<polygon fill="none" stroke="black" points="230.5,-231.5 230.5,-267.5 289.5,-267.5 289.5,-231.5 230.5,-231.5"/>
<text text-anchor="start" x="238.5" y="-245.8" font-family="Times,serif" font-size="14.00">entry:</text>
</g>
<!-- Node0x17440c80 -->
<g id="node2" class="node"><title>Node0x17440c80</title>
<polygon fill="none" stroke="black" points="0,-96.5 0,-194.5 520,-194.5 520,-96.5 0,-96.5"/>
<text text-anchor="start" x="8" y="-179.3" font-family="Times,serif" font-size="14.00">0x6cc1660:</text>
<text text-anchor="start" x="8" y="-164.3" font-family="Times,serif" font-size="14.00"> g36 = 1</text>
<text text-anchor="start" x="8" y="-149.3" font-family="Times,serif" font-size="14.00"> g37 = &#45;1</text>
<text text-anchor="start" x="8" y="-134.3" font-family="Times,serif" font-size="14.00"> *(IntToPtrCastExpr&lt;ptr&gt;((g29 + 37))) = 1</text>
<text text-anchor="start" x="8" y="-119.3" font-family="Times,serif" font-size="14.00"> *(IntToPtrCastExpr&lt;ptr&gt;((g29 + 24))) = g37</text>
<text text-anchor="start" x="8" y="-104.3" font-family="Times,serif" font-size="14.00"> *(IntToPtrCastExpr&lt;ptr&gt;((g29 + 36))) = TruncCastExpr&lt;int8&gt;(g36)</text>
</g>
<!-- Node0x121fd760&#45;&gt;Node0x17440c80 -->
<g id="edge1" class="edge"><title>Node0x121fd760&#45;&gt;Node0x17440c80</title>
<path fill="none" stroke="black" d="M260,-231.197C260,-223.688 260,-214.415 260,-204.789"/>
<polygon fill="black" stroke="black" points="263.5,-204.688 260,-194.688 256.5,-204.688 263.5,-204.688"/>
</g>
<!-- Node0x121fd460 -->
<g id="node3" class="node"><title>Node0x121fd460</title>
<polygon fill="none" stroke="black" points="233,-23.5 233,-59.5 287,-59.5 287,-23.5 233,-23.5"/>
<text text-anchor="start" x="241" y="-37.8" font-family="Times,serif" font-size="14.00">exit:</text>
</g>
<!-- Node0x17440c80&#45;&gt;Node0x121fd460 -->
<g id="edge2" class="edge"><title>Node0x17440c80&#45;&gt;Node0x121fd460</title>
<path fill="none" stroke="black" d="M260,-96.4868C260,-87.2893 260,-77.9618 260,-69.7064"/>
<polygon fill="black" stroke="black" points="263.5,-69.5725 260,-59.5725 256.5,-69.5725 263.5,-69.5725"/>
</g>
</g>
</svg>
