<?xml version="1.0" encoding="UTF-8" standalone="no"?>
<!DOCTYPE svg PUBLIC "-//W3C//DTD SVG 1.1//EN"
 "http://www.w3.org/Graphics/SVG/1.1/DTD/svg11.dtd">
<!-- Generated by graphviz version 2.38.0 (20140413.2041)
 -->
<!-- Title: Control&#45;flow graph for function &#39;function_f57c()&#39;. Pages: 1 -->
<svg width="451pt" height="261pt"
 viewBox="0.00 0.00 451.00 261.00" xmlns="http://www.w3.org/2000/svg" xmlns:xlink="http://www.w3.org/1999/xlink">
<g id="graph0" class="graph" transform="scale(1 1) rotate(0) translate(4 257)">
<title>Control&#45;flow graph for function &#39;function_f57c()&#39;.</title>
<polygon fill="white" stroke="none" points="-4,4 -4,-257 447,-257 447,4 -4,4"/>
<text text-anchor="middle" x="221.5" y="-7.8" font-family="Times,serif" font-size="14.00">Control&#45;flow graph for function &#39;function_f57c()&#39;.</text>
<!-- Node0x3450e850 -->
<g id="node1" class="node"><title>Node0x3450e850</title>
<polygon fill="none" stroke="black" points="192,-216.5 192,-252.5 251,-252.5 251,-216.5 192,-216.5"/>
<text text-anchor="start" x="200" y="-230.8" font-family="Times,serif" font-size="14.00">entry:</text>
</g>
<!-- Node0x160e33f0 -->
<g id="node2" class="node"><title>Node0x160e33f0</title>
<polygon fill="none" stroke="black" points="0,-96.5 0,-179.5 443,-179.5 443,-96.5 0,-96.5"/>
<text text-anchor="start" x="8" y="-164.3" font-family="Times,serif" font-size="14.00">0x10aafa60:</text>
<text text-anchor="start" x="8" y="-149.3" font-family="Times,serif" font-size="14.00"> v1 = g29</text>
<text text-anchor="start" x="8" y="-134.3" font-family="Times,serif" font-size="14.00"> v2 = ExtCastExpr&lt;int32&gt;(*(IntToPtrCastExpr&lt;ptr&gt;(v1)))</text>
<text text-anchor="start" x="8" y="-119.3" font-family="Times,serif" font-size="14.00"> g37 = v2</text>
<text text-anchor="start" x="8" y="-104.3" font-family="Times,serif" font-size="14.00"> g29 = (v2 + v1)</text>
</g>
<!-- Node0x3450e850&#45;&gt;Node0x160e33f0 -->
<g id="edge1" class="edge"><title>Node0x3450e850&#45;&gt;Node0x160e33f0</title>
<path fill="none" stroke="black" d="M221.5,-216.167C221.5,-208.654 221.5,-199.427 221.5,-189.999"/>
<polygon fill="black" stroke="black" points="225,-189.762 221.5,-179.762 218,-189.762 225,-189.762"/>
</g>
<!-- Node0x160e2790 -->
<g id="node3" class="node"><title>Node0x160e2790</title>
<polygon fill="none" stroke="black" points="194.5,-23.5 194.5,-59.5 248.5,-59.5 248.5,-23.5 194.5,-23.5"/>
<text text-anchor="start" x="202.5" y="-37.8" font-family="Times,serif" font-size="14.00">exit:</text>
</g>
<!-- Node0x160e33f0&#45;&gt;Node0x160e2790 -->
<g id="edge2" class="edge"><title>Node0x160e33f0&#45;&gt;Node0x160e2790</title>
<path fill="none" stroke="black" d="M221.5,-96.3751C221.5,-87.4706 221.5,-78.246 221.5,-70"/>
<polygon fill="black" stroke="black" points="225,-69.8327 221.5,-59.8328 218,-69.8328 225,-69.8327"/>
</g>
</g>
</svg>
