<?xml version="1.0" encoding="UTF-8" standalone="no"?>
<!DOCTYPE svg PUBLIC "-//W3C//DTD SVG 1.1//EN"
 "http://www.w3.org/Graphics/SVG/1.1/DTD/svg11.dtd">
<!-- Generated by graphviz version 2.38.0 (20140413.2041)
 -->
<!-- Title: Control&#45;flow graph for function &#39;function_a484()&#39;. Pages: 1 -->
<svg width="510pt" height="1030pt"
 viewBox="0.00 0.00 510.00 1030.00" xmlns="http://www.w3.org/2000/svg" xmlns:xlink="http://www.w3.org/1999/xlink">
<g id="graph0" class="graph" transform="scale(1 1) rotate(0) translate(4 1026)">
<title>Control&#45;flow graph for function &#39;function_a484()&#39;.</title>
<polygon fill="white" stroke="none" points="-4,4 -4,-1026 506,-1026 506,4 -4,4"/>
<text text-anchor="middle" x="251" y="-7.8" font-family="Times,serif" font-size="14.00">Control&#45;flow graph for function &#39;function_a484()&#39;.</text>
<!-- Node0x34d04b40 -->
<g id="node1" class="node"><title>Node0x34d04b40</title>
<polygon fill="none" stroke="black" points="221.5,-985.5 221.5,-1021.5 280.5,-1021.5 280.5,-985.5 221.5,-985.5"/>
<text text-anchor="start" x="229.5" y="-999.8" font-family="Times,serif" font-size="14.00">entry:</text>
</g>
<!-- Node0x4759b460 -->
<g id="node2" class="node"><title>Node0x4759b460</title>
<polygon fill="none" stroke="black" points="0,-504.5 0,-947.5 502,-947.5 502,-504.5 0,-504.5"/>
<text text-anchor="start" x="8" y="-932.3" font-family="Times,serif" font-size="14.00">0x1e7dd280:</text>
<text text-anchor="start" x="8" y="-917.3" font-family="Times,serif" font-size="14.00"> v1 = NULL</text>
<text text-anchor="start" x="8" y="-902.3" font-family="Times,serif" font-size="14.00"> v2 = g30</text>
<text text-anchor="start" x="8" y="-887.3" font-family="Times,serif" font-size="14.00"> g8 = False</text>
<text text-anchor="start" x="8" y="-872.3" font-family="Times,serif" font-size="14.00"> g7 = (v2 &lt; 0)</text>
<text text-anchor="start" x="8" y="-857.3" font-family="Times,serif" font-size="14.00"> g35 = g29</text>
<text text-anchor="start" x="8" y="-842.3" font-family="Times,serif" font-size="14.00"> g34 = PtrToIntCastExpr&lt;int32&gt;(v1)</text>
<text text-anchor="start" x="8" y="-827.3" font-family="Times,serif" font-size="14.00"> IntToPtrCastExpr&lt;ptr&gt;(ExtCastExpr&lt;int32&gt;((v2 &lt; 0)))()</text>
<text text-anchor="start" x="8" y="-812.3" font-family="Times,serif" font-size="14.00"> v3 = ExtCastExpr&lt;int32&gt;(*(IntToPtrCastExpr&lt;ptr&gt;((g29 + 14))))</text>
<text text-anchor="start" x="8" y="-797.3" font-family="Times,serif" font-size="14.00"> g37 = v3</text>
<text text-anchor="start" x="8" y="-782.3" font-family="Times,serif" font-size="14.00"> v4 = g38</text>
<text text-anchor="start" x="8" y="-767.3" font-family="Times,serif" font-size="14.00"> v5 = (v4 &#45; v3)</text>
<text text-anchor="start" x="8" y="-752.3" font-family="Times,serif" font-size="14.00"> g8 = ((v4 &amp; &#45;(v5)) &lt; 0)</text>
<text text-anchor="start" x="8" y="-737.3" font-family="Times,serif" font-size="14.00"> g7 = (v5 &lt; 0)</text>
<text text-anchor="start" x="8" y="-722.3" font-family="Times,serif" font-size="14.00"> g38 = *(IntToPtrCastExpr&lt;ptr&gt;(g34))</text>
<text text-anchor="start" x="8" y="-707.3" font-family="Times,serif" font-size="14.00"> g39 = v1[&#39;1&#39;]</text>
<text text-anchor="start" x="8" y="-692.3" font-family="Times,serif" font-size="14.00"> g32 = v1[&#39;2&#39;]</text>
<text text-anchor="start" x="8" y="-677.3" font-family="Times,serif" font-size="14.00"> g34 = v1[&#39;3&#39;]</text>
<text text-anchor="start" x="8" y="-662.3" font-family="Times,serif" font-size="14.00"> IntToPtrCastExpr&lt;ptr&gt;(ExtCastExpr&lt;int32&gt;((v4 &gt;= v3)))()</text>
<text text-anchor="start" x="8" y="-647.3" font-family="Times,serif" font-size="14.00"> v6 = g29</text>
<text text-anchor="start" x="8" y="-632.3" font-family="Times,serif" font-size="14.00"> v7 = IntToPtrCastExpr&lt;ptr&gt;((v6 + 54))</text>
<text text-anchor="start" x="8" y="-617.3" font-family="Times,serif" font-size="14.00"> v8 = ExtCastExpr&lt;int32&gt;(*(v7))</text>
<text text-anchor="start" x="8" y="-602.3" font-family="Times,serif" font-size="14.00"> g33 = v8</text>
<text text-anchor="start" x="8" y="-587.3" font-family="Times,serif" font-size="14.00"> g30 = ExtCastExpr&lt;int32&gt;(*(IntToPtrCastExpr&lt;ptr&gt;((v6 + 12))))</text>
<text text-anchor="start" x="8" y="-572.3" font-family="Times,serif" font-size="14.00"> v9 = (g38 + 1)</text>
<text text-anchor="start" x="8" y="-557.3" font-family="Times,serif" font-size="14.00"> v10 = (v9 &#45; v8)</text>
<text text-anchor="start" x="8" y="-542.3" font-family="Times,serif" font-size="14.00"> g8 = ((v9 &amp; &#45;(v10)) &lt; 0)</text>
<text text-anchor="start" x="8" y="-527.3" font-family="Times,serif" font-size="14.00"> g7 = (v10 &lt; 0)</text>
<text text-anchor="start" x="8" y="-512.3" font-family="Times,serif" font-size="14.00"> v11 = v9</text>
</g>
<!-- Node0x34d04b40&#45;&gt;Node0x4759b460 -->
<g id="edge1" class="edge"><title>Node0x34d04b40&#45;&gt;Node0x4759b460</title>
<path fill="none" stroke="black" d="M251,-985.266C251,-977.961 251,-968.636 251,-957.888"/>
<polygon fill="black" stroke="black" points="254.5,-957.635 251,-947.635 247.5,-957.635 254.5,-957.635"/>
</g>
<!-- Node0x101cc100 -->
<g id="node3" class="node"><title>Node0x101cc100</title>
<polygon fill="none" stroke="black" points="198,-428.5 198,-466.5 304,-466.5 304,-428.5 198,-428.5"/>
<text text-anchor="start" x="206" y="-451.3" font-family="Times,serif" font-size="14.00">0x718cbd0:</text>
<text text-anchor="start" x="206" y="-436.3" font-family="Times,serif" font-size="14.00"> if (v9 &lt; v8):</text>
</g>
<!-- Node0x4759b460&#45;&gt;Node0x101cc100 -->
<g id="edge2" class="edge"><title>Node0x4759b460&#45;&gt;Node0x101cc100</title>
<path fill="none" stroke="black" d="M251,-504.454C251,-494.044 251,-484.613 251,-476.585"/>
<polygon fill="black" stroke="black" points="254.5,-476.549 251,-466.549 247.5,-476.549 254.5,-476.549"/>
</g>
<!-- Node0x2a403a80 -->
<g id="node4" class="node"><title>Node0x2a403a80</title>
<polygon fill="none" stroke="black" points="149.5,-338.5 149.5,-376.5 250.5,-376.5 250.5,-338.5 149.5,-338.5"/>
<text text-anchor="start" x="157.5" y="-361.3" font-family="Times,serif" font-size="14.00">0x718c990:</text>
<text text-anchor="start" x="157.5" y="-346.3" font-family="Times,serif" font-size="14.00"> v11 = v8</text>
</g>
<!-- Node0x101cc100&#45;&gt;Node0x2a403a80 -->
<g id="edge3" class="edge"><title>Node0x101cc100&#45;&gt;Node0x2a403a80</title>
<path fill="none" stroke="black" d="M231.305,-428.447C226.112,-422.921 220.881,-416.558 217,-410 212.751,-402.821 209.408,-394.444 206.851,-386.556"/>
<polygon fill="black" stroke="black" points="210.206,-385.56 204.025,-376.955 203.491,-387.537 210.206,-385.56"/>
<text text-anchor="middle" x="245" y="-398.8" font-family="Times,serif" font-size="14.00">v9 &lt; v8</text>
</g>
<!-- Node0x4438b1a0 -->
<g id="node5" class="node"><title>Node0x4438b1a0</title>
<polygon fill="none" stroke="black" points="99,-97.5 99,-300.5 419,-300.5 419,-97.5 99,-97.5"/>
<text text-anchor="start" x="107" y="-285.3" font-family="Times,serif" font-size="14.00">0x718cec0:</text>
<text text-anchor="start" x="107" y="-270.3" font-family="Times,serif" font-size="14.00"> *(v7) = TruncCastExpr&lt;int16&gt;(v11)</text>
<text text-anchor="start" x="107" y="-255.3" font-family="Times,serif" font-size="14.00"> g30 = (g38 + g30)</text>
<text text-anchor="start" x="107" y="-240.3" font-family="Times,serif" font-size="14.00"> function_9250()</text>
<text text-anchor="start" x="107" y="-225.3" font-family="Times,serif" font-size="14.00"> v12 = IntToPtrCastExpr&lt;ptr&gt;((g29 + 8))</text>
<text text-anchor="start" x="107" y="-210.3" font-family="Times,serif" font-size="14.00"> v13 = ((1024 * g39) | *(v12))</text>
<text text-anchor="start" x="107" y="-195.3" font-family="Times,serif" font-size="14.00"> g37 = v13</text>
<text text-anchor="start" x="107" y="-180.3" font-family="Times,serif" font-size="14.00"> *(v12) = v13</text>
<text text-anchor="start" x="107" y="-165.3" font-family="Times,serif" font-size="14.00"> g38 = v1[&#39;3&#39;]</text>
<text text-anchor="start" x="107" y="-150.3" font-family="Times,serif" font-size="14.00"> g39 = v1[&#39;4&#39;]</text>
<text text-anchor="start" x="107" y="-135.3" font-family="Times,serif" font-size="14.00"> g32 = v1[&#39;5&#39;]</text>
<text text-anchor="start" x="107" y="-120.3" font-family="Times,serif" font-size="14.00"> g34 = v1[&#39;6&#39;]</text>
<text text-anchor="start" x="107" y="-105.3" font-family="Times,serif" font-size="14.00"> IntToPtrCastExpr&lt;ptr&gt;(v1[&#39;7&#39;])()</text>
</g>
<!-- Node0x101cc100&#45;&gt;Node0x4438b1a0 -->
<g id="edge4" class="edge"><title>Node0x101cc100&#45;&gt;Node0x4438b1a0</title>
<path fill="none" stroke="black" d="M264.504,-428.454C267.967,-422.831 271.216,-416.416 273,-410 274.786,-403.577 273.239,-401.662 273,-395 272.02,-367.66 270.269,-338.206 268.33,-310.679"/>
<polygon fill="black" stroke="black" points="271.816,-310.355 267.608,-300.632 264.834,-310.857 271.816,-310.355"/>
<text text-anchor="middle" x="307" y="-353.8" font-family="Times,serif" font-size="14.00">v9 &gt;= v8</text>
</g>
<!-- Node0x2a403a80&#45;&gt;Node0x4438b1a0 -->
<g id="edge5" class="edge"><title>Node0x2a403a80&#45;&gt;Node0x4438b1a0</title>
<path fill="none" stroke="black" d="M206.884,-338.241C209.799,-330.508 213.451,-320.822 217.461,-310.185"/>
<polygon fill="black" stroke="black" points="220.815,-311.21 221.067,-300.618 214.265,-308.74 220.815,-311.21"/>
</g>
<!-- Node0x22107870 -->
<g id="node6" class="node"><title>Node0x22107870</title>
<polygon fill="none" stroke="black" points="232,-23.5 232,-59.5 286,-59.5 286,-23.5 232,-23.5"/>
<text text-anchor="start" x="240" y="-37.8" font-family="Times,serif" font-size="14.00">exit:</text>
</g>
<!-- Node0x4438b1a0&#45;&gt;Node0x22107870 -->
<g id="edge6" class="edge"><title>Node0x4438b1a0&#45;&gt;Node0x22107870</title>
<path fill="none" stroke="black" d="M259,-97.3235C259,-87.3683 259,-77.9638 259,-69.8472"/>
<polygon fill="black" stroke="black" points="262.5,-69.6466 259,-59.6466 255.5,-69.6467 262.5,-69.6466"/>
</g>
</g>
</svg>
