<?xml version="1.0" encoding="UTF-8" standalone="no"?>
<!DOCTYPE svg PUBLIC "-//W3C//DTD SVG 1.1//EN"
 "http://www.w3.org/Graphics/SVG/1.1/DTD/svg11.dtd">
<!-- Generated by graphviz version 2.38.0 (20140413.2041)
 -->
<!-- Title: Control&#45;flow graph for function &#39;function_f234()&#39;. Pages: 1 -->
<svg width="477pt" height="381pt"
 viewBox="0.00 0.00 477.00 381.00" xmlns="http://www.w3.org/2000/svg" xmlns:xlink="http://www.w3.org/1999/xlink">
<g id="graph0" class="graph" transform="scale(1 1) rotate(0) translate(4 377)">
<title>Control&#45;flow graph for function &#39;function_f234()&#39;.</title>
<polygon fill="white" stroke="none" points="-4,4 -4,-377 473,-377 473,4 -4,4"/>
<text text-anchor="middle" x="234.5" y="-7.8" font-family="Times,serif" font-size="14.00">Control&#45;flow graph for function &#39;function_f234()&#39;.</text>
<!-- Node0x360c3790 -->
<g id="node1" class="node"><title>Node0x360c3790</title>
<polygon fill="none" stroke="black" points="205,-336.5 205,-372.5 264,-372.5 264,-336.5 205,-336.5"/>
<text text-anchor="start" x="213" y="-350.8" font-family="Times,serif" font-size="14.00">entry:</text>
</g>
<!-- Node0x2e99e7f0 -->
<g id="node2" class="node"><title>Node0x2e99e7f0</title>
<polygon fill="none" stroke="black" points="-2.84217e-14,-96.5 -2.84217e-14,-299.5 469,-299.5 469,-96.5 -2.84217e-14,-96.5"/>
<text text-anchor="start" x="8" y="-284.3" font-family="Times,serif" font-size="14.00">0x1544c490:</text>
<text text-anchor="start" x="8" y="-269.3" font-family="Times,serif" font-size="14.00"> v1 = g38</text>
<text text-anchor="start" x="8" y="-254.3" font-family="Times,serif" font-size="14.00"> g38 = g30</text>
<text text-anchor="start" x="8" y="-239.3" font-family="Times,serif" font-size="14.00"> function_f1a4()</text>
<text text-anchor="start" x="8" y="-224.3" font-family="Times,serif" font-size="14.00"> v2 = (ExtCastExpr&lt;int64&gt;(g38) * ExtCastExpr&lt;int64&gt;(g29))</text>
<text text-anchor="start" x="8" y="-209.3" font-family="Times,serif" font-size="14.00"> v3 = (v2 / 4294967296)</text>
<text text-anchor="start" x="8" y="-194.3" font-family="Times,serif" font-size="14.00"> g37 = v3</text>
<text text-anchor="start" x="8" y="-179.3" font-family="Times,serif" font-size="14.00"> g36 = v2</text>
<text text-anchor="start" x="8" y="-164.3" font-family="Times,serif" font-size="14.00"> g29 = v3</text>
<text text-anchor="start" x="8" y="-149.3" font-family="Times,serif" font-size="14.00"> g38 = v1</text>
<text text-anchor="start" x="8" y="-134.3" font-family="Times,serif" font-size="14.00"> v4</text>
<text text-anchor="start" x="8" y="-119.3" font-family="Times,serif" font-size="14.00"> g34 = v4</text>
<text text-anchor="start" x="8" y="-104.3" font-family="Times,serif" font-size="14.00"> IntToPtrCastExpr&lt;ptr&gt;(g35)()</text>
</g>
<!-- Node0x360c3790&#45;&gt;Node0x2e99e7f0 -->
<g id="edge1" class="edge"><title>Node0x360c3790&#45;&gt;Node0x2e99e7f0</title>
<path fill="none" stroke="black" d="M234.5,-336.375C234.5,-329.052 234.5,-319.842 234.5,-309.676"/>
<polygon fill="black" stroke="black" points="238,-309.665 234.5,-299.665 231,-309.665 238,-309.665"/>
</g>
<!-- Node0x2adac9b0 -->
<g id="node3" class="node"><title>Node0x2adac9b0</title>
<polygon fill="none" stroke="black" points="207.5,-23.5 207.5,-59.5 261.5,-59.5 261.5,-23.5 207.5,-23.5"/>
<text text-anchor="start" x="215.5" y="-37.8" font-family="Times,serif" font-size="14.00">exit:</text>
</g>
<!-- Node0x2e99e7f0&#45;&gt;Node0x2adac9b0 -->
<g id="edge2" class="edge"><title>Node0x2e99e7f0&#45;&gt;Node0x2adac9b0</title>
<path fill="none" stroke="black" d="M234.5,-96.103C234.5,-86.6073 234.5,-77.6391 234.5,-69.853"/>
<polygon fill="black" stroke="black" points="238,-69.7012 234.5,-59.7012 231,-69.7013 238,-69.7012"/>
</g>
</g>
</svg>
