<?xml version="1.0" encoding="UTF-8" standalone="no"?>
<!DOCTYPE svg PUBLIC "-//W3C//DTD SVG 1.1//EN"
 "http://www.w3.org/Graphics/SVG/1.1/DTD/svg11.dtd">
<!-- Generated by graphviz version 2.38.0 (20140413.2041)
 -->
<!-- Title: Control&#45;flow graph for function &#39;function_39c0()&#39;. Pages: 1 -->
<svg width="376pt" height="444pt"
 viewBox="0.00 0.00 376.00 444.00" xmlns="http://www.w3.org/2000/svg" xmlns:xlink="http://www.w3.org/1999/xlink">
<g id="graph0" class="graph" transform="scale(1 1) rotate(0) translate(4 440)">
<title>Control&#45;flow graph for function &#39;function_39c0()&#39;.</title>
<polygon fill="white" stroke="none" points="-4,4 -4,-440 372,-440 372,4 -4,4"/>
<text text-anchor="middle" x="184" y="-7.8" font-family="Times,serif" font-size="14.00">Control&#45;flow graph for function &#39;function_39c0()&#39;.</text>
<!-- Node0x3eed29a0 -->
<g id="node1" class="node"><title>Node0x3eed29a0</title>
<polygon fill="none" stroke="black" points="154.5,-399.5 154.5,-435.5 213.5,-435.5 213.5,-399.5 154.5,-399.5"/>
<text text-anchor="start" x="162.5" y="-413.8" font-family="Times,serif" font-size="14.00">entry:</text>
</g>
<!-- Node0x24657630 -->
<g id="node2" class="node"><title>Node0x24657630</title>
<polygon fill="none" stroke="black" points="19.5,-293.5 19.5,-361.5 348.5,-361.5 348.5,-293.5 19.5,-293.5"/>
<text text-anchor="start" x="27.5" y="-346.3" font-family="Times,serif" font-size="14.00">0x14b34fb0:</text>
<text text-anchor="start" x="27.5" y="-331.3" font-family="Times,serif" font-size="14.00"> v1 = *(IntToPtrCastExpr&lt;ptr&gt;((g29 + 8)))</text>
<text text-anchor="start" x="27.5" y="-316.3" font-family="Times,serif" font-size="14.00"> g6 = (v1 &gt; 4)</text>
<text text-anchor="start" x="27.5" y="-301.3" font-family="Times,serif" font-size="14.00"> g9 = (v1 == 5)</text>
</g>
<!-- Node0x3eed29a0&#45;&gt;Node0x24657630 -->
<g id="edge1" class="edge"><title>Node0x3eed29a0&#45;&gt;Node0x24657630</title>
<path fill="none" stroke="black" d="M184,-399.114C184,-391.158 184,-381.343 184,-371.588"/>
<polygon fill="black" stroke="black" points="187.5,-371.524 184,-361.524 180.5,-371.524 187.5,-371.524"/>
</g>
<!-- Node0x3eed5750 -->
<g id="node3" class="node"><title>Node0x3eed5750</title>
<polygon fill="none" stroke="black" points="133.5,-217.5 133.5,-255.5 234.5,-255.5 234.5,-217.5 133.5,-217.5"/>
<text text-anchor="start" x="141.5" y="-240.3" font-family="Times,serif" font-size="14.00">0x50d7850:</text>
<text text-anchor="start" x="141.5" y="-225.3" font-family="Times,serif" font-size="14.00"> if (v1 &lt; 6):</text>
</g>
<!-- Node0x24657630&#45;&gt;Node0x3eed5750 -->
<g id="edge2" class="edge"><title>Node0x24657630&#45;&gt;Node0x3eed5750</title>
<path fill="none" stroke="black" d="M184,-293.36C184,-284.365 184,-274.707 184,-265.993"/>
<polygon fill="black" stroke="black" points="187.5,-265.941 184,-255.941 180.5,-265.941 187.5,-265.941"/>
</g>
<!-- Node0x3eed5fa0 -->
<g id="node4" class="node"><title>Node0x3eed5fa0</title>
<polygon fill="none" stroke="black" points="66.5,-105 66.5,-158 167.5,-158 167.5,-105 66.5,-105"/>
<text text-anchor="start" x="74.5" y="-142.8" font-family="Times,serif" font-size="14.00">0x50d76e0:</text>
<text text-anchor="start" x="74.5" y="-127.8" font-family="Times,serif" font-size="14.00"> g29 = &#45;19</text>
<text text-anchor="start" x="74.5" y="-112.8" font-family="Times,serif" font-size="14.00"> return</text>
</g>
<!-- Node0x3eed5750&#45;&gt;Node0x3eed5fa0 -->
<g id="edge3" class="edge"><title>Node0x3eed5750&#45;&gt;Node0x3eed5fa0</title>
<path fill="none" stroke="black" d="M172.022,-217.086C162.919,-203.092 150.139,-183.445 139.187,-166.609"/>
<polygon fill="black" stroke="black" points="142.043,-164.58 133.656,-158.105 136.175,-168.396 142.043,-164.58"/>
<text text-anchor="middle" x="183" y="-187.8" font-family="Times,serif" font-size="14.00">v1 &lt; 6</text>
</g>
<!-- Node0x3eed6470 -->
<g id="node5" class="node"><title>Node0x3eed6470</title>
<polygon fill="none" stroke="black" points="185.5,-97.5 185.5,-165.5 316.5,-165.5 316.5,-97.5 185.5,-97.5"/>
<text text-anchor="start" x="193.5" y="-150.3" font-family="Times,serif" font-size="14.00">0x50d7b30:</text>
<text text-anchor="start" x="193.5" y="-135.3" font-family="Times,serif" font-size="14.00"> g36 = g30</text>
<text text-anchor="start" x="193.5" y="-120.3" font-family="Times,serif" font-size="14.00"> g30 = 72</text>
<text text-anchor="start" x="193.5" y="-105.3" font-family="Times,serif" font-size="14.00"> function_38f4()</text>
</g>
<!-- Node0x3eed5750&#45;&gt;Node0x3eed6470 -->
<g id="edge4" class="edge"><title>Node0x3eed5750&#45;&gt;Node0x3eed6470</title>
<path fill="none" stroke="black" d="M198.084,-217.176C202.35,-211.438 206.97,-205.029 211,-199 216.223,-191.186 221.57,-182.691 226.586,-174.469"/>
<polygon fill="black" stroke="black" points="229.709,-176.068 231.876,-165.697 223.714,-172.452 229.709,-176.068"/>
<text text-anchor="middle" x="250" y="-187.8" font-family="Times,serif" font-size="14.00">v1 &gt;= 6</text>
</g>
<!-- Node0x3eed0c10 -->
<g id="node6" class="node"><title>Node0x3eed0c10</title>
<polygon fill="none" stroke="black" points="170,-23.5 170,-59.5 224,-59.5 224,-23.5 170,-23.5"/>
<text text-anchor="start" x="178" y="-37.8" font-family="Times,serif" font-size="14.00">exit:</text>
</g>
<!-- Node0x3eed5fa0&#45;&gt;Node0x3eed0c10 -->
<g id="edge5" class="edge"><title>Node0x3eed5fa0&#45;&gt;Node0x3eed0c10</title>
<path fill="none" stroke="black" d="M140.57,-104.573C151.28,-92.7919 163.892,-78.9185 174.474,-67.2787"/>
<polygon fill="black" stroke="black" points="177.29,-69.3842 181.427,-59.6304 172.11,-64.6755 177.29,-69.3842"/>
</g>
<!-- Node0x3eed6470&#45;&gt;Node0x3eed0c10 -->
<g id="edge6" class="edge"><title>Node0x3eed6470&#45;&gt;Node0x3eed0c10</title>
<path fill="none" stroke="black" d="M230.739,-97.4817C224.813,-87.8252 218.425,-77.4148 212.818,-68.2777"/>
<polygon fill="black" stroke="black" points="215.731,-66.3329 207.518,-59.6402 209.765,-69.994 215.731,-66.3329"/>
</g>
</g>
</svg>
