<?xml version="1.0" encoding="UTF-8" standalone="no"?>
<!DOCTYPE svg PUBLIC "-//W3C//DTD SVG 1.1//EN"
 "http://www.w3.org/Graphics/SVG/1.1/DTD/svg11.dtd">
<!-- Generated by graphviz version 2.38.0 (20140413.2041)
 -->
<!-- Title: Control&#45;flow graph for function &#39;function_14dc0()&#39;. Pages: 1 -->
<svg width="385pt" height="986pt"
 viewBox="0.00 0.00 385.00 986.00" xmlns="http://www.w3.org/2000/svg" xmlns:xlink="http://www.w3.org/1999/xlink">
<g id="graph0" class="graph" transform="scale(1 1) rotate(0) translate(4 982)">
<title>Control&#45;flow graph for function &#39;function_14dc0()&#39;.</title>
<polygon fill="white" stroke="none" points="-4,4 -4,-982 381,-982 381,4 -4,4"/>
<text text-anchor="middle" x="188.5" y="-7.8" font-family="Times,serif" font-size="14.00">Control&#45;flow graph for function &#39;function_14dc0()&#39;.</text>
<!-- Node0x2952d830 -->
<g id="node1" class="node"><title>Node0x2952d830</title>
<polygon fill="none" stroke="black" points="202.75,-941.5 202.75,-977.5 261.75,-977.5 261.75,-941.5 202.75,-941.5"/>
<text text-anchor="start" x="210.75" y="-955.8" font-family="Times,serif" font-size="14.00">entry:</text>
</g>
<!-- Node0x245ad310 -->
<g id="node2" class="node"><title>Node0x245ad310</title>
<polygon fill="none" stroke="black" points="88.25,-790.5 88.25,-903.5 376.25,-903.5 376.25,-790.5 88.25,-790.5"/>
<text text-anchor="start" x="96.25" y="-888.3" font-family="Times,serif" font-size="14.00">0x13fe6e70:</text>
<text text-anchor="start" x="96.25" y="-873.3" font-family="Times,serif" font-size="14.00"> v1 = *(IntToPtrCastExpr&lt;ptr&gt;(g40))</text>
<text text-anchor="start" x="96.25" y="-858.3" font-family="Times,serif" font-size="14.00"> g37 = v1</text>
<text text-anchor="start" x="96.25" y="-843.3" font-family="Times,serif" font-size="14.00"> v2 = g29</text>
<text text-anchor="start" x="96.25" y="-828.3" font-family="Times,serif" font-size="14.00"> g39 = v2</text>
<text text-anchor="start" x="96.25" y="-813.3" font-family="Times,serif" font-size="14.00"> g9 = (v1 == 0)</text>
<text text-anchor="start" x="96.25" y="-798.3" font-family="Times,serif" font-size="14.00"> v3 = v2</text>
</g>
<!-- Node0x2952d830&#45;&gt;Node0x245ad310 -->
<g id="edge1" class="edge"><title>Node0x2952d830&#45;&gt;Node0x245ad310</title>
<path fill="none" stroke="black" d="M232.25,-941.234C232.25,-933.586 232.25,-924.056 232.25,-914.033"/>
<polygon fill="black" stroke="black" points="235.75,-913.897 232.25,-903.897 228.75,-913.897 235.75,-913.897"/>
</g>
<!-- Node0x39807010 -->
<g id="node3" class="node"><title>Node0x39807010</title>
<polygon fill="none" stroke="black" points="180.25,-714.5 180.25,-752.5 284.25,-752.5 284.25,-714.5 180.25,-714.5"/>
<text text-anchor="start" x="188.25" y="-737.3" font-family="Times,serif" font-size="14.00">0x825af70:</text>
<text text-anchor="start" x="188.25" y="-722.3" font-family="Times,serif" font-size="14.00"> if (v1 != 0):</text>
</g>
<!-- Node0x245ad310&#45;&gt;Node0x39807010 -->
<g id="edge2" class="edge"><title>Node0x245ad310&#45;&gt;Node0x39807010</title>
<path fill="none" stroke="black" d="M232.25,-790.25C232.25,-780.862 232.25,-771.474 232.25,-763.151"/>
<polygon fill="black" stroke="black" points="235.75,-762.912 232.25,-752.912 228.75,-762.912 235.75,-762.912"/>
</g>
<!-- Node0x20b50380 -->
<g id="node4" class="node"><title>Node0x20b50380</title>
<polygon fill="none" stroke="black" points="1.75,-534.5 1.75,-662.5 234.75,-662.5 234.75,-534.5 1.75,-534.5"/>
<text text-anchor="start" x="9.75" y="-647.3" font-family="Times,serif" font-size="14.00">0x13fe8870:</text>
<text text-anchor="start" x="9.75" y="-632.3" font-family="Times,serif" font-size="14.00"> v4 = g38</text>
<text text-anchor="start" x="9.75" y="-617.3" font-family="Times,serif" font-size="14.00"> g29 = (v4 &#45; 7156)</text>
<text text-anchor="start" x="9.75" y="-602.3" font-family="Times,serif" font-size="14.00"> g30 = (v4 &#45; 8004)</text>
<text text-anchor="start" x="9.75" y="-587.3" font-family="Times,serif" font-size="14.00"> g36 = v2</text>
<text text-anchor="start" x="9.75" y="-572.3" font-family="Times,serif" font-size="14.00"> g35 = 85484</text>
<text text-anchor="start" x="9.75" y="-557.3" font-family="Times,serif" font-size="14.00"> IntToPtrCastExpr&lt;ptr&gt;(v1)()</text>
<text text-anchor="start" x="9.75" y="-542.3" font-family="Times,serif" font-size="14.00"> v3 = g39</text>
</g>
<!-- Node0x39807010&#45;&gt;Node0x20b50380 -->
<g id="edge3" class="edge"><title>Node0x39807010&#45;&gt;Node0x20b50380</title>
<path fill="none" stroke="black" d="M216.638,-714.286C206.681,-702.669 193.068,-686.788 179.145,-670.544"/>
<polygon fill="black" stroke="black" points="181.464,-667.872 172.299,-662.557 176.149,-672.427 181.464,-667.872"/>
<text text-anchor="middle" x="226.25" y="-684.8" font-family="Times,serif" font-size="14.00">v1 != 0</text>
</g>
<!-- Node0x245ad810 -->
<g id="node5" class="node"><title>Node0x245ad810</title>
<polygon fill="none" stroke="black" points="105.25,-278.5 105.25,-496.5 347.25,-496.5 347.25,-278.5 105.25,-278.5"/>
<text text-anchor="start" x="113.25" y="-481.3" font-family="Times,serif" font-size="14.00">0x825b1b0:</text>
<text text-anchor="start" x="113.25" y="-466.3" font-family="Times,serif" font-size="14.00"> g29 = v3</text>
<text text-anchor="start" x="113.25" y="-451.3" font-family="Times,serif" font-size="14.00"> v5</text>
<text text-anchor="start" x="113.25" y="-436.3" font-family="Times,serif" font-size="14.00"> g38 = v5</text>
<text text-anchor="start" x="113.25" y="-421.3" font-family="Times,serif" font-size="14.00"> v6</text>
<text text-anchor="start" x="113.25" y="-406.3" font-family="Times,serif" font-size="14.00"> g39 = v6</text>
<text text-anchor="start" x="113.25" y="-391.3" font-family="Times,serif" font-size="14.00"> v7</text>
<text text-anchor="start" x="113.25" y="-376.3" font-family="Times,serif" font-size="14.00"> g40 = v7</text>
<text text-anchor="start" x="113.25" y="-361.3" font-family="Times,serif" font-size="14.00"> v8</text>
<text text-anchor="start" x="113.25" y="-346.3" font-family="Times,serif" font-size="14.00"> g32 = v8</text>
<text text-anchor="start" x="113.25" y="-331.3" font-family="Times,serif" font-size="14.00"> v9</text>
<text text-anchor="start" x="113.25" y="-316.3" font-family="Times,serif" font-size="14.00"> g34 = v9</text>
<text text-anchor="start" x="113.25" y="-301.3" font-family="Times,serif" font-size="14.00"> v10</text>
<text text-anchor="start" x="113.25" y="-286.3" font-family="Times,serif" font-size="14.00"> IntToPtrCastExpr&lt;ptr&gt;(v10)()</text>
</g>
<!-- Node0x39807010&#45;&gt;Node0x245ad810 -->
<g id="edge4" class="edge"><title>Node0x39807010&#45;&gt;Node0x245ad810</title>
<path fill="none" stroke="black" d="M247.836,-714.316C251.672,-708.787 255.251,-702.457 257.25,-696 259.222,-689.632 257.566,-687.659 257.25,-681 254.518,-623.496 248.18,-559.915 241.943,-506.761"/>
<polygon fill="black" stroke="black" points="245.393,-506.136 240.739,-496.618 238.442,-506.961 245.393,-506.136"/>
<text text-anchor="middle" x="286.25" y="-594.8" font-family="Times,serif" font-size="14.00">v1 == 0</text>
</g>
<!-- Node0x20b50380&#45;&gt;Node0x245ad810 -->
<g id="edge5" class="edge"><title>Node0x20b50380&#45;&gt;Node0x245ad810</title>
<path fill="none" stroke="black" d="M150.947,-534.226C155.652,-525.119 160.615,-515.515 165.656,-505.761"/>
<polygon fill="black" stroke="black" points="168.82,-507.261 170.302,-496.77 162.602,-504.047 168.82,-507.261"/>
</g>
<!-- Node0x2952d750 -->
<g id="node6" class="node"><title>Node0x2952d750</title>
<polygon fill="none" stroke="black" points="177.75,-202.5 177.75,-240.5 274.75,-240.5 274.75,-202.5 177.75,-202.5"/>
<text text-anchor="start" x="185.75" y="-225.3" font-family="Times,serif" font-size="14.00">0x825cf20:</text>
<text text-anchor="start" x="185.75" y="-210.3" font-family="Times,serif" font-size="14.00"> if g9:</text>
</g>
<!-- Node0x245ad810&#45;&gt;Node0x2952d750 -->
<g id="edge6" class="edge"><title>Node0x245ad810&#45;&gt;Node0x2952d750</title>
<path fill="none" stroke="black" d="M226.25,-278.481C226.25,-268.585 226.25,-259.254 226.25,-251.151"/>
<polygon fill="black" stroke="black" points="229.75,-250.925 226.25,-240.925 222.75,-250.925 229.75,-250.925"/>
</g>
<!-- Node0x245aea20 -->
<g id="node7" class="node"><title>Node0x245aea20</title>
<polygon fill="none" stroke="black" points="0.75,-97.5 0.75,-150.5 227.75,-150.5 227.75,-97.5 0.75,-97.5"/>
<text text-anchor="start" x="8.75" y="-135.3" font-family="Times,serif" font-size="14.00">0x825c4a0:</text>
<text text-anchor="start" x="8.75" y="-120.3" font-family="Times,serif" font-size="14.00"> g37 = (g30 &amp; (16384 * g38))</text>
<text text-anchor="start" x="8.75" y="-105.3" font-family="Times,serif" font-size="14.00"> g29 = (g29 &amp; (g42 / 2))</text>
</g>
<!-- Node0x2952d750&#45;&gt;Node0x245aea20 -->
<g id="edge7" class="edge"><title>Node0x2952d750&#45;&gt;Node0x245aea20</title>
<path fill="none" stroke="black" d="M204.92,-202.312C190.06,-189.641 169.829,-172.391 152.248,-157.4"/>
<polygon fill="black" stroke="black" points="154.265,-154.52 144.385,-150.695 149.723,-159.847 154.265,-154.52"/>
<text text-anchor="middle" x="190.75" y="-172.8" font-family="Times,serif" font-size="14.00">g9</text>
</g>
<!-- Node0x29532fb0 -->
<g id="node8" class="node"><title>Node0x29532fb0</title>
<polygon fill="none" stroke="black" points="193.25,-23.5 193.25,-59.5 247.25,-59.5 247.25,-23.5 193.25,-23.5"/>
<text text-anchor="start" x="201.25" y="-37.8" font-family="Times,serif" font-size="14.00">exit:</text>
</g>
<!-- Node0x2952d750&#45;&gt;Node0x29532fb0 -->
<g id="edge8" class="edge"><title>Node0x2952d750&#45;&gt;Node0x29532fb0</title>
<path fill="none" stroke="black" d="M230.229,-202.423C234.967,-178.291 241.607,-134.261 236.25,-97 234.939,-87.8798 232.453,-78.1568 229.825,-69.486"/>
<polygon fill="black" stroke="black" points="233.132,-68.3365 226.737,-59.8897 226.469,-70.4811 233.132,-68.3365"/>
<text text-anchor="middle" x="266.75" y="-120.3" font-family="Times,serif" font-size="14.00">not (g9)</text>
</g>
<!-- Node0x245aea20&#45;&gt;Node0x29532fb0 -->
<g id="edge9" class="edge"><title>Node0x245aea20&#45;&gt;Node0x29532fb0</title>
<path fill="none" stroke="black" d="M148.081,-97.308C161.401,-87.1922 176.588,-75.6586 189.583,-65.7898"/>
<polygon fill="black" stroke="black" points="191.917,-68.4119 197.764,-59.5766 187.683,-62.8373 191.917,-68.4119"/>
</g>
</g>
</svg>
