<?xml version="1.0" encoding="UTF-8" standalone="no"?>
<!DOCTYPE svg PUBLIC "-//W3C//DTD SVG 1.1//EN"
 "http://www.w3.org/Graphics/SVG/1.1/DTD/svg11.dtd">
<!-- Generated by graphviz version 2.38.0 (20140413.2041)
 -->
<!-- Title: Control&#45;flow graph for function &#39;function_209a4()&#39;. Pages: 1 -->
<svg width="518pt" height="561pt"
 viewBox="0.00 0.00 518.00 561.00" xmlns="http://www.w3.org/2000/svg" xmlns:xlink="http://www.w3.org/1999/xlink">
<g id="graph0" class="graph" transform="scale(1 1) rotate(0) translate(4 557)">
<title>Control&#45;flow graph for function &#39;function_209a4()&#39;.</title>
<polygon fill="white" stroke="none" points="-4,4 -4,-557 514,-557 514,4 -4,4"/>
<text text-anchor="middle" x="255" y="-7.8" font-family="Times,serif" font-size="14.00">Control&#45;flow graph for function &#39;function_209a4()&#39;.</text>
<!-- Node0x3fb6d830 -->
<g id="node1" class="node"><title>Node0x3fb6d830</title>
<polygon fill="none" stroke="black" points="225.5,-516.5 225.5,-552.5 284.5,-552.5 284.5,-516.5 225.5,-516.5"/>
<text text-anchor="start" x="233.5" y="-530.8" font-family="Times,serif" font-size="14.00">entry:</text>
</g>
<!-- Node0xf118700 -->
<g id="node2" class="node"><title>Node0xf118700</title>
<polygon fill="none" stroke="black" points="0,-96.5 0,-479.5 510,-479.5 510,-96.5 0,-96.5"/>
<text text-anchor="start" x="8" y="-464.3" font-family="Times,serif" font-size="14.00">0x1ff4dc80:</text>
<text text-anchor="start" x="8" y="-449.3" font-family="Times,serif" font-size="14.00"> v1 = g38</text>
<text text-anchor="start" x="8" y="-434.3" font-family="Times,serif" font-size="14.00"> v2 = g29</text>
<text text-anchor="start" x="8" y="-419.3" font-family="Times,serif" font-size="14.00"> v3 = g30</text>
<text text-anchor="start" x="8" y="-404.3" font-family="Times,serif" font-size="14.00"> v4 = (v3 + v2)</text>
<text text-anchor="start" x="8" y="-389.3" font-family="Times,serif" font-size="14.00"> g38 = (v4 + 4)</text>
<text text-anchor="start" x="8" y="-374.3" font-family="Times,serif" font-size="14.00"> v5 = IntToPtrCastExpr&lt;ptr&gt;((v4 + 8))</text>
<text text-anchor="start" x="8" y="-359.3" font-family="Times,serif" font-size="14.00"> v6 = (*(v5) % 4)</text>
<text text-anchor="start" x="8" y="-344.3" font-family="Times,serif" font-size="14.00"> g36 = v6</text>
<text text-anchor="start" x="8" y="-329.3" font-family="Times,serif" font-size="14.00"> *(v5) = (((&#45;4 &#45; v3) + (*(IntToPtrCastExpr&lt;ptr&gt;((v2 + 4))) &amp; &#45;4)) | v6)</text>
<text text-anchor="start" x="8" y="-314.3" font-family="Times,serif" font-size="14.00"> v7 = g29</text>
<text text-anchor="start" x="8" y="-299.3" font-family="Times,serif" font-size="14.00"> v8 = IntToPtrCastExpr&lt;ptr&gt;((v7 + 4))</text>
<text text-anchor="start" x="8" y="-284.3" font-family="Times,serif" font-size="14.00"> g33 = v7</text>
<text text-anchor="start" x="8" y="-269.3" font-family="Times,serif" font-size="14.00"> v9 = (*(v8) % 4)</text>
<text text-anchor="start" x="8" y="-254.3" font-family="Times,serif" font-size="14.00"> g37 = v9</text>
<text text-anchor="start" x="8" y="-239.3" font-family="Times,serif" font-size="14.00"> v10 = (g30 | v9)</text>
<text text-anchor="start" x="8" y="-224.3" font-family="Times,serif" font-size="14.00"> g30 = v10</text>
<text text-anchor="start" x="8" y="-209.3" font-family="Times,serif" font-size="14.00"> g29 = g38</text>
<text text-anchor="start" x="8" y="-194.3" font-family="Times,serif" font-size="14.00"> *(v8) = v10</text>
<text text-anchor="start" x="8" y="-179.3" font-family="Times,serif" font-size="14.00"> function_20898()</text>
<text text-anchor="start" x="8" y="-164.3" font-family="Times,serif" font-size="14.00"> g29 = g38</text>
<text text-anchor="start" x="8" y="-149.3" font-family="Times,serif" font-size="14.00"> g38 = v1</text>
<text text-anchor="start" x="8" y="-134.3" font-family="Times,serif" font-size="14.00"> v11</text>
<text text-anchor="start" x="8" y="-119.3" font-family="Times,serif" font-size="14.00"> g34 = v11</text>
<text text-anchor="start" x="8" y="-104.3" font-family="Times,serif" font-size="14.00"> IntToPtrCastExpr&lt;ptr&gt;(g35)()</text>
</g>
<!-- Node0x3fb6d830&#45;&gt;Node0xf118700 -->
<g id="edge1" class="edge"><title>Node0x3fb6d830&#45;&gt;Node0xf118700</title>
<path fill="none" stroke="black" d="M255,-516.307C255,-509.182 255,-500.155 255,-489.831"/>
<polygon fill="black" stroke="black" points="258.5,-489.554 255,-479.554 251.5,-489.554 258.5,-489.554"/>
</g>
<!-- Node0x244c3060 -->
<g id="node3" class="node"><title>Node0x244c3060</title>
<polygon fill="none" stroke="black" points="228,-23.5 228,-59.5 282,-59.5 282,-23.5 228,-23.5"/>
<text text-anchor="start" x="236" y="-37.8" font-family="Times,serif" font-size="14.00">exit:</text>
</g>
<!-- Node0xf118700&#45;&gt;Node0x244c3060 -->
<g id="edge2" class="edge"><title>Node0xf118700&#45;&gt;Node0x244c3060</title>
<path fill="none" stroke="black" d="M255,-96.4592C255,-86.453 255,-77.3455 255,-69.5798"/>
<polygon fill="black" stroke="black" points="258.5,-69.541 255,-59.541 251.5,-69.5411 258.5,-69.541"/>
</g>
</g>
</svg>
