<?xml version="1.0" encoding="UTF-8" standalone="no"?>
<!DOCTYPE svg PUBLIC "-//W3C//DTD SVG 1.1//EN"
 "http://www.w3.org/Graphics/SVG/1.1/DTD/svg11.dtd">
<!-- Generated by graphviz version 2.38.0 (20140413.2041)
 -->
<!-- Title: Control&#45;flow graph for function &#39;function_14054()&#39;. Pages: 1 -->
<svg width="1174pt" height="3064pt"
 viewBox="0.00 0.00 1173.50 3064.00" xmlns="http://www.w3.org/2000/svg" xmlns:xlink="http://www.w3.org/1999/xlink">
<g id="graph0" class="graph" transform="scale(1 1) rotate(0) translate(4 3060)">
<title>Control&#45;flow graph for function &#39;function_14054()&#39;.</title>
<polygon fill="white" stroke="none" points="-4,4 -4,-3060 1169.5,-3060 1169.5,4 -4,4"/>
<text text-anchor="middle" x="582.75" y="-7.8" font-family="Times,serif" font-size="14.00">Control&#45;flow graph for function &#39;function_14054()&#39;.</text>
<!-- Node0x11b01db0 -->
<g id="node1" class="node"><title>Node0x11b01db0</title>
<polygon fill="none" stroke="black" points="188,-3019.5 188,-3055.5 247,-3055.5 247,-3019.5 188,-3019.5"/>
<text text-anchor="start" x="196" y="-3033.8" font-family="Times,serif" font-size="14.00">entry:</text>
</g>
<!-- Node0x27104900 -->
<g id="node2" class="node"><title>Node0x27104900</title>
<polygon fill="none" stroke="black" points="125,-2628.5 125,-2981.5 310,-2981.5 310,-2628.5 125,-2628.5"/>
<text text-anchor="start" x="133" y="-2966.3" font-family="Times,serif" font-size="14.00">0x179db940:</text>
<text text-anchor="start" x="133" y="-2951.3" font-family="Times,serif" font-size="14.00"> v1 = g38</text>
<text text-anchor="start" x="133" y="-2936.3" font-family="Times,serif" font-size="14.00"> v2 = g39</text>
<text text-anchor="start" x="133" y="-2921.3" font-family="Times,serif" font-size="14.00"> v3 = g40</text>
<text text-anchor="start" x="133" y="-2906.3" font-family="Times,serif" font-size="14.00"> v4 = g41</text>
<text text-anchor="start" x="133" y="-2891.3" font-family="Times,serif" font-size="14.00"> v5 = g42</text>
<text text-anchor="start" x="133" y="-2876.3" font-family="Times,serif" font-size="14.00"> v6 = g43</text>
<text text-anchor="start" x="133" y="-2861.3" font-family="Times,serif" font-size="14.00"> v7 = g31</text>
<text text-anchor="start" x="133" y="-2846.3" font-family="Times,serif" font-size="14.00"> v8 = g32</text>
<text text-anchor="start" x="133" y="-2831.3" font-family="Times,serif" font-size="14.00"> v9 = g35</text>
<text text-anchor="start" x="133" y="-2816.3" font-family="Times,serif" font-size="14.00"> v10</text>
<text text-anchor="start" x="133" y="-2801.3" font-family="Times,serif" font-size="14.00"> g42 = v10</text>
<text text-anchor="start" x="133" y="-2786.3" font-family="Times,serif" font-size="14.00"> v11 = g37</text>
<text text-anchor="start" x="133" y="-2771.3" font-family="Times,serif" font-size="14.00"> v12 = g29</text>
<text text-anchor="start" x="133" y="-2756.3" font-family="Times,serif" font-size="14.00"> v13 = g30</text>
<text text-anchor="start" x="133" y="-2741.3" font-family="Times,serif" font-size="14.00"> v14 = g36</text>
<text text-anchor="start" x="133" y="-2726.3" font-family="Times,serif" font-size="14.00"> v15</text>
<text text-anchor="start" x="133" y="-2711.3" font-family="Times,serif" font-size="14.00"> g33 = v15</text>
<text text-anchor="start" x="133" y="-2696.3" font-family="Times,serif" font-size="14.00"> v16 = &#45;(v15)</text>
<text text-anchor="start" x="133" y="-2681.3" font-family="Times,serif" font-size="14.00"> g8 = ((v15 &amp; v16) &lt; 0)</text>
<text text-anchor="start" x="133" y="-2666.3" font-family="Times,serif" font-size="14.00"> g7 = (v16 &lt; 0)</text>
<text text-anchor="start" x="133" y="-2651.3" font-family="Times,serif" font-size="14.00"> g9 = (v15 == 0)</text>
<text text-anchor="start" x="133" y="-2636.3" font-family="Times,serif" font-size="14.00"> v17</text>
</g>
<!-- Node0x11b01db0&#45;&gt;Node0x27104900 -->
<g id="edge1" class="edge"><title>Node0x11b01db0&#45;&gt;Node0x27104900</title>
<path fill="none" stroke="black" d="M217.5,-3019.18C217.5,-3011.8 217.5,-3002.42 217.5,-2991.73"/>
<polygon fill="black" stroke="black" points="221,-2991.55 217.5,-2981.55 214,-2991.55 221,-2991.55"/>
</g>
<!-- Node0x308c6d60 -->
<g id="node3" class="node"><title>Node0x308c6d60</title>
<polygon fill="none" stroke="black" points="158,-2552.5 158,-2590.5 277,-2590.5 277,-2552.5 158,-2552.5"/>
<text text-anchor="start" x="166" y="-2575.3" font-family="Times,serif" font-size="14.00">0x81382e0:</text>
<text text-anchor="start" x="166" y="-2560.3" font-family="Times,serif" font-size="14.00"> if (v15 == 0):</text>
</g>
<!-- Node0x27104900&#45;&gt;Node0x308c6d60 -->
<g id="edge2" class="edge"><title>Node0x27104900&#45;&gt;Node0x308c6d60</title>
<path fill="none" stroke="black" d="M217.5,-2628.24C217.5,-2618.06 217.5,-2608.73 217.5,-2600.74"/>
<polygon fill="black" stroke="black" points="221,-2600.72 217.5,-2590.72 214,-2600.72 221,-2600.72"/>
</g>
<!-- Node0x38e86400 -->
<g id="node4" class="node"><title>Node0x38e86400</title>
<polygon fill="none" stroke="black" points="0,-2210.5 0,-2398.5 233,-2398.5 233,-2210.5 0,-2210.5"/>
<text text-anchor="start" x="8" y="-2383.3" font-family="Times,serif" font-size="14.00">0x8137370:</text>
<text text-anchor="start" x="8" y="-2368.3" font-family="Times,serif" font-size="14.00"> g38 = v1</text>
<text text-anchor="start" x="8" y="-2353.3" font-family="Times,serif" font-size="14.00"> g39 = v2</text>
<text text-anchor="start" x="8" y="-2338.3" font-family="Times,serif" font-size="14.00"> g40 = v3</text>
<text text-anchor="start" x="8" y="-2323.3" font-family="Times,serif" font-size="14.00"> g41 = v4</text>
<text text-anchor="start" x="8" y="-2308.3" font-family="Times,serif" font-size="14.00"> g42 = v5</text>
<text text-anchor="start" x="8" y="-2293.3" font-family="Times,serif" font-size="14.00"> g43 = v6</text>
<text text-anchor="start" x="8" y="-2278.3" font-family="Times,serif" font-size="14.00"> g31 = v7</text>
<text text-anchor="start" x="8" y="-2263.3" font-family="Times,serif" font-size="14.00"> g32 = v8</text>
<text text-anchor="start" x="8" y="-2248.3" font-family="Times,serif" font-size="14.00"> g34 = v17</text>
<text text-anchor="start" x="8" y="-2233.3" font-family="Times,serif" font-size="14.00"> IntToPtrCastExpr&lt;ptr&gt;(v9)()</text>
<text text-anchor="start" x="8" y="-2218.3" font-family="Times,serif" font-size="14.00"> return</text>
</g>
<!-- Node0x308c6d60&#45;&gt;Node0x38e86400 -->
<g id="edge3" class="edge"><title>Node0x308c6d60&#45;&gt;Node0x38e86400</title>
<path fill="none" stroke="black" d="M194.639,-2552.45C180.373,-2539.74 163.132,-2521.4 154.5,-2501 142.333,-2472.25 134.021,-2439.46 128.359,-2409.05"/>
<polygon fill="black" stroke="black" points="131.74,-2408.08 126.539,-2398.84 124.848,-2409.3 131.74,-2408.08"/>
<text text-anchor="middle" x="210" y="-2522.8" font-family="Times,serif" font-size="14.00">v15 == 0</text>
</g>
<!-- Node0x38e86100 -->
<g id="node5" class="node"><title>Node0x38e86100</title>
<polygon fill="none" stroke="black" points="163.5,-2417.5 163.5,-2500.5 457.5,-2500.5 457.5,-2417.5 163.5,-2417.5"/>
<text text-anchor="start" x="171.5" y="-2485.3" font-family="Times,serif" font-size="14.00">0x47f832d0:</text>
<text text-anchor="start" x="171.5" y="-2470.3" font-family="Times,serif" font-size="14.00"> v18</text>
<text text-anchor="start" x="171.5" y="-2455.3" font-family="Times,serif" font-size="14.00"> v19 = PtrToIntCastExpr&lt;int32&gt;(v18)</text>
<text text-anchor="start" x="171.5" y="-2440.3" font-family="Times,serif" font-size="14.00"> v20 = (1 &#45; v17)</text>
<text text-anchor="start" x="171.5" y="-2425.3" font-family="Times,serif" font-size="14.00"> v21 = 0</text>
</g>
<!-- Node0x308c6d60&#45;&gt;Node0x38e86100 -->
<g id="edge4" class="edge"><title>Node0x308c6d60&#45;&gt;Node0x38e86100</title>
<path fill="none" stroke="black" d="M232.857,-2552.25C242.874,-2540.35 256.459,-2524.21 269.465,-2508.76"/>
<polygon fill="black" stroke="black" points="272.431,-2510.67 276.192,-2500.76 267.075,-2506.16 272.431,-2510.67"/>
<text text-anchor="middle" x="290" y="-2522.8" font-family="Times,serif" font-size="14.00">v15 != 0</text>
</g>
<!-- Node0x15430090 -->
<g id="node6" class="node"><title>Node0x15430090</title>
<polygon fill="none" stroke="black" points="136.5,-23.5 136.5,-59.5 190.5,-59.5 190.5,-23.5 136.5,-23.5"/>
<text text-anchor="start" x="144.5" y="-37.8" font-family="Times,serif" font-size="14.00">exit:</text>
</g>
<!-- Node0x38e86400&#45;&gt;Node0x15430090 -->
<g id="edge5" class="edge"><title>Node0x38e86400&#45;&gt;Node0x15430090</title>
<path fill="none" stroke="black" d="M113.582,-2210.42C112.967,-2183.95 112.5,-2155.09 112.5,-2128.5 112.5,-2128.5 112.5,-2128.5 112.5,-183 112.5,-140.985 132.9,-95.9146 147.896,-68.4601"/>
<polygon fill="black" stroke="black" points="151.075,-69.9483 152.933,-59.5176 144.976,-66.5131 151.075,-69.9483"/>
</g>
<!-- Node0x15437590 -->
<g id="node7" class="node"><title>Node0x15437590</title>
<polygon fill="none" stroke="black" points="271,-2153.5 271,-2191.5 372,-2191.5 372,-2153.5 271,-2153.5"/>
<text text-anchor="start" x="279" y="-2176.3" font-family="Times,serif" font-size="14.00">0x8145a50:</text>
<text text-anchor="start" x="279" y="-2161.3" font-family="Times,serif" font-size="14.00"> while True:</text>
</g>
<!-- Node0x38e86100&#45;&gt;Node0x15437590 -->
<g id="edge6" class="edge"><title>Node0x38e86100&#45;&gt;Node0x15437590</title>
<path fill="none" stroke="black" d="M312.076,-2417.24C314.334,-2358.84 318.434,-2252.81 320.396,-2202.06"/>
<polygon fill="black" stroke="black" points="323.902,-2201.95 320.791,-2191.82 316.908,-2201.68 323.902,-2201.95"/>
</g>
<!-- Node0x443807b0 -->
<g id="node8" class="node"><title>Node0x443807b0</title>
<polygon fill="none" stroke="black" points="247,-1688.5 247,-2101.5 466,-2101.5 466,-1688.5 247,-1688.5"/>
<text text-anchor="start" x="255" y="-2086.3" font-family="Times,serif" font-size="14.00">0x1c623430:</text>
<text text-anchor="start" x="255" y="-2071.3" font-family="Times,serif" font-size="14.00"> v22 = (v21 + 1)</text>
<text text-anchor="start" x="255" y="-2056.3" font-family="Times,serif" font-size="14.00"> g41 = v22</text>
<text text-anchor="start" x="255" y="-2041.3" font-family="Times,serif" font-size="14.00"> v23 = llvm_bswap_i32(v22)</text>
<text text-anchor="start" x="255" y="-2026.3" font-family="Times,serif" font-size="14.00"> g37 = v23</text>
<text text-anchor="start" x="255" y="-2011.3" font-family="Times,serif" font-size="14.00"> g30 = v12</text>
<text text-anchor="start" x="255" y="-1996.3" font-family="Times,serif" font-size="14.00"> g36 = v13</text>
<text text-anchor="start" x="255" y="-1981.3" font-family="Times,serif" font-size="14.00"> function_be14()</text>
<text text-anchor="start" x="255" y="-1966.3" font-family="Times,serif" font-size="14.00"> g30 = v14</text>
<text text-anchor="start" x="255" y="-1951.3" font-family="Times,serif" font-size="14.00"> g36 = v11</text>
<text text-anchor="start" x="255" y="-1936.3" font-family="Times,serif" font-size="14.00"> function_bcc8()</text>
<text text-anchor="start" x="255" y="-1921.3" font-family="Times,serif" font-size="14.00"> g36 = 4</text>
<text text-anchor="start" x="255" y="-1906.3" font-family="Times,serif" font-size="14.00"> g30 = v23</text>
<text text-anchor="start" x="255" y="-1891.3" font-family="Times,serif" font-size="14.00"> function_bcc8()</text>
<text text-anchor="start" x="255" y="-1876.3" font-family="Times,serif" font-size="14.00"> function_bd90()</text>
<text text-anchor="start" x="255" y="-1861.3" font-family="Times,serif" font-size="14.00"> g29 = v19</text>
<text text-anchor="start" x="255" y="-1846.3" font-family="Times,serif" font-size="14.00"> v24</text>
<text text-anchor="start" x="255" y="-1831.3" font-family="Times,serif" font-size="14.00"> g30 = v24</text>
<text text-anchor="start" x="255" y="-1816.3" font-family="Times,serif" font-size="14.00"> v25</text>
<text text-anchor="start" x="255" y="-1801.3" font-family="Times,serif" font-size="14.00"> g36 = v25</text>
<text text-anchor="start" x="255" y="-1786.3" font-family="Times,serif" font-size="14.00"> g38 = 1</text>
<text text-anchor="start" x="255" y="-1771.3" font-family="Times,serif" font-size="14.00"> g37 = v17</text>
<text text-anchor="start" x="255" y="-1756.3" font-family="Times,serif" font-size="14.00"> g8 = ((v20 &amp; v17) &lt; 0)</text>
<text text-anchor="start" x="255" y="-1741.3" font-family="Times,serif" font-size="14.00"> g7 = (v20 &lt; 0)</text>
<text text-anchor="start" x="255" y="-1726.3" font-family="Times,serif" font-size="14.00"> g9 = (v17 == 1)</text>
<text text-anchor="start" x="255" y="-1711.3" font-family="Times,serif" font-size="14.00"> v26</text>
<text text-anchor="start" x="255" y="-1696.3" font-family="Times,serif" font-size="14.00"> v27</text>
</g>
<!-- Node0x15437590&#45;&gt;Node0x443807b0 -->
<g id="edge7" class="edge"><title>Node0x15437590&#45;&gt;Node0x443807b0</title>
<path fill="none" stroke="black" d="M323.796,-2153.42C325.131,-2142.92 326.97,-2128.45 329.1,-2111.68"/>
<polygon fill="black" stroke="black" points="332.597,-2111.92 330.386,-2101.56 325.653,-2111.04 332.597,-2111.92"/>
<text text-anchor="middle" x="344.5" y="-2123.8" font-family="Times,serif" font-size="14.00">True</text>
</g>
<!-- Node0x1e2e7d50 -->
<g id="node9" class="node"><title>Node0x1e2e7d50</title>
<polygon fill="none" stroke="black" points="307,-1612.5 307,-1650.5 414,-1650.5 414,-1612.5 307,-1612.5"/>
<text text-anchor="start" x="315" y="-1635.3" font-family="Times,serif" font-size="14.00">0x8142b90:</text>
<text text-anchor="start" x="315" y="-1620.3" font-family="Times,serif" font-size="14.00"> if (v17 &gt; 1):</text>
</g>
<!-- Node0x443807b0&#45;&gt;Node0x1e2e7d50 -->
<g id="edge8" class="edge"><title>Node0x443807b0&#45;&gt;Node0x1e2e7d50</title>
<path fill="none" stroke="black" d="M359.647,-1688.28C359.805,-1677.95 359.948,-1668.57 360.071,-1660.57"/>
<polygon fill="black" stroke="black" points="363.57,-1660.61 360.224,-1650.56 356.571,-1660.5 363.57,-1660.61"/>
</g>
<!-- Node0x34057740 -->
<g id="node10" class="node"><title>Node0x34057740</title>
<polygon fill="none" stroke="black" points="556.5,-1462.5 556.5,-1515.5 660.5,-1515.5 660.5,-1462.5 556.5,-1462.5"/>
<text text-anchor="start" x="564.5" y="-1500.3" font-family="Times,serif" font-size="14.00">0x2acfea60:</text>
<text text-anchor="start" x="564.5" y="-1485.3" font-family="Times,serif" font-size="14.00"> v28 = v18</text>
<text text-anchor="start" x="564.5" y="-1470.3" font-family="Times,serif" font-size="14.00"> v29</text>
</g>
<!-- Node0x1e2e7d50&#45;&gt;Node0x34057740 -->
<g id="edge9" class="edge"><title>Node0x1e2e7d50&#45;&gt;Node0x34057740</title>
<path fill="none" stroke="black" d="M414.298,-1618.27C453.648,-1607.55 507.002,-1589.21 547.5,-1561 561.966,-1550.92 575.126,-1536.64 585.489,-1523.52"/>
<polygon fill="black" stroke="black" points="588.285,-1525.62 591.567,-1515.55 582.719,-1521.38 588.285,-1525.62"/>
<text text-anchor="middle" x="544" y="-1582.8" font-family="Times,serif" font-size="14.00">v17 &gt; 1</text>
</g>
<!-- Node0xe7a6110 -->
<g id="node11" class="node"><title>Node0xe7a6110</title>
<polygon fill="none" stroke="black" points="182.5,-1417.5 182.5,-1560.5 538.5,-1560.5 538.5,-1417.5 182.5,-1417.5"/>
<text text-anchor="start" x="190.5" y="-1545.3" font-family="Times,serif" font-size="14.00">0x81430b0:</text>
<text text-anchor="start" x="190.5" y="-1530.3" font-family="Times,serif" font-size="14.00"> memcpy(IntToPtrCastExpr&lt;ptr&gt;(g42), v18, 0)</text>
<text text-anchor="start" x="190.5" y="-1515.3" font-family="Times,serif" font-size="14.00"> g42 = (g42 + 20)</text>
<text text-anchor="start" x="190.5" y="-1500.3" font-family="Times,serif" font-size="14.00"> g33 = v15</text>
<text text-anchor="start" x="190.5" y="-1485.3" font-family="Times,serif" font-size="14.00"> v26 = g41</text>
<text text-anchor="start" x="190.5" y="-1470.3" font-family="Times,serif" font-size="14.00"> v27 = (v26 &#45; v15)</text>
<text text-anchor="start" x="190.5" y="-1455.3" font-family="Times,serif" font-size="14.00"> g8 = (((v27 ^ v26) &amp; (v26 ^ v15)) &lt; 0)</text>
<text text-anchor="start" x="190.5" y="-1440.3" font-family="Times,serif" font-size="14.00"> g7 = (v27 &lt; 0)</text>
<text text-anchor="start" x="190.5" y="-1425.3" font-family="Times,serif" font-size="14.00"> g9 = (v26 == v15)</text>
</g>
<!-- Node0x1e2e7d50&#45;&gt;Node0xe7a6110 -->
<g id="edge10" class="edge"><title>Node0x1e2e7d50&#45;&gt;Node0xe7a6110</title>
<path fill="none" stroke="black" d="M360.5,-1612.42C360.5,-1601.42 360.5,-1586.5 360.5,-1570.86"/>
<polygon fill="black" stroke="black" points="364,-1570.52 360.5,-1560.52 357,-1570.52 364,-1570.52"/>
<text text-anchor="middle" x="395" y="-1582.8" font-family="Times,serif" font-size="14.00">v17 &lt;= 1</text>
</g>
<!-- Node0x34056670 -->
<g id="node12" class="node"><title>Node0x34056670</title>
<polygon fill="none" stroke="black" points="558,-1341.5 558,-1379.5 659,-1379.5 659,-1341.5 558,-1341.5"/>
<text text-anchor="start" x="566" y="-1364.3" font-family="Times,serif" font-size="14.00">0x8142a30:</text>
<text text-anchor="start" x="566" y="-1349.3" font-family="Times,serif" font-size="14.00"> while True:</text>
</g>
<!-- Node0x34057740&#45;&gt;Node0x34056670 -->
<g id="edge11" class="edge"><title>Node0x34057740&#45;&gt;Node0x34056670</title>
<path fill="none" stroke="black" d="M608.5,-1462.4C608.5,-1441.4 608.5,-1411.7 608.5,-1389.96"/>
<polygon fill="black" stroke="black" points="612,-1389.7 608.5,-1379.7 605,-1389.7 612,-1389.7"/>
</g>
<!-- Node0x47e073c0 -->
<g id="node13" class="node"><title>Node0x47e073c0</title>
<polygon fill="none" stroke="black" points="224.5,-1341.5 224.5,-1379.5 360.5,-1379.5 360.5,-1341.5 224.5,-1341.5"/>
<text text-anchor="start" x="232.5" y="-1364.3" font-family="Times,serif" font-size="14.00">0x8144910:</text>
<text text-anchor="start" x="232.5" y="-1349.3" font-family="Times,serif" font-size="14.00"> if (v26 == v15):</text>
</g>
<!-- Node0xe7a6110&#45;&gt;Node0x47e073c0 -->
<g id="edge12" class="edge"><title>Node0xe7a6110&#45;&gt;Node0x47e073c0</title>
<path fill="none" stroke="black" d="M322.524,-1417.35C317.042,-1407.16 311.7,-1397.22 307.078,-1388.62"/>
<polygon fill="black" stroke="black" points="310.015,-1386.69 302.198,-1379.54 303.85,-1390.01 310.015,-1386.69"/>
</g>
<!-- Node0x27103600 -->
<g id="node14" class="node"><title>Node0x27103600</title>
<polygon fill="none" stroke="black" points="647.5,-1146.5 647.5,-1289.5 781.5,-1289.5 781.5,-1146.5 647.5,-1146.5"/>
<text text-anchor="start" x="655.5" y="-1274.3" font-family="Times,serif" font-size="14.00">0x813bdb0:</text>
<text text-anchor="start" x="655.5" y="-1259.3" font-family="Times,serif" font-size="14.00"> g36 = v13</text>
<text text-anchor="start" x="655.5" y="-1244.3" font-family="Times,serif" font-size="14.00"> g30 = v12</text>
<text text-anchor="start" x="655.5" y="-1229.3" font-family="Times,serif" font-size="14.00"> function_be14()</text>
<text text-anchor="start" x="655.5" y="-1214.3" font-family="Times,serif" font-size="14.00"> g36 = 20</text>
<text text-anchor="start" x="655.5" y="-1199.3" font-family="Times,serif" font-size="14.00"> function_bcc8()</text>
<text text-anchor="start" x="655.5" y="-1184.3" font-family="Times,serif" font-size="14.00"> function_bd90()</text>
<text text-anchor="start" x="655.5" y="-1169.3" font-family="Times,serif" font-size="14.00"> v30 = v28</text>
<text text-anchor="start" x="655.5" y="-1154.3" font-family="Times,serif" font-size="14.00"> v31</text>
</g>
<!-- Node0x34056670&#45;&gt;Node0x27103600 -->
<g id="edge13" class="edge"><title>Node0x34056670&#45;&gt;Node0x27103600</title>
<path fill="none" stroke="black" d="M622.141,-1341.42C630.838,-1329.89 642.775,-1314.07 655.181,-1297.63"/>
<polygon fill="black" stroke="black" points="658.068,-1299.61 661.297,-1289.52 652.48,-1295.39 658.068,-1299.61"/>
<text text-anchor="middle" x="662.5" y="-1311.8" font-family="Times,serif" font-size="14.00">True</text>
</g>
<!-- Node0x27103c30 -->
<g id="node15" class="node"><title>Node0x27103c30</title>
<polygon fill="none" stroke="black" points="242,-1089.5 242,-1127.5 343,-1127.5 343,-1089.5 242,-1089.5"/>
<text text-anchor="start" x="250" y="-1112.3" font-family="Times,serif" font-size="14.00">0x81446a0:</text>
<text text-anchor="start" x="250" y="-1097.3" font-family="Times,serif" font-size="14.00"> break</text>
</g>
<!-- Node0x47e073c0&#45;&gt;Node0x27103c30 -->
<g id="edge14" class="edge"><title>Node0x47e073c0&#45;&gt;Node0x27103c30</title>
<path fill="none" stroke="black" d="M292.5,-1341.12C292.5,-1297.85 292.5,-1189.35 292.5,-1137.69"/>
<polygon fill="black" stroke="black" points="296,-1137.57 292.5,-1127.57 289,-1137.57 296,-1137.57"/>
<text text-anchor="middle" x="335.5" y="-1311.8" font-family="Times,serif" font-size="14.00">v26 == v15</text>
</g>
<!-- Node0x27105530 -->
<g id="node16" class="node"><title>Node0x27105530</title>
<polygon fill="none" stroke="black" points="141,-1199 141,-1237 242,-1237 242,-1199 141,-1199"/>
<text text-anchor="start" x="149" y="-1221.8" font-family="Times,serif" font-size="14.00">0x8144530:</text>
<text text-anchor="start" x="149" y="-1206.8" font-family="Times,serif" font-size="14.00"> v21 = v26</text>
</g>
<!-- Node0x47e073c0&#45;&gt;Node0x27105530 -->
<g id="edge15" class="edge"><title>Node0x47e073c0&#45;&gt;Node0x27105530</title>
<path fill="none" stroke="black" d="M224.339,-1348.07C211.064,-1342.65 198.73,-1334.69 190.5,-1323 175.062,-1301.08 177.869,-1269.6 182.95,-1247.02"/>
<polygon fill="black" stroke="black" points="186.416,-1247.59 185.472,-1237.04 179.629,-1245.88 186.416,-1247.59"/>
<text text-anchor="middle" x="230.5" y="-1311.8" font-family="Times,serif" font-size="14.00">v26 != v15</text>
</g>
<!-- Node0x27102620 -->
<g id="node17" class="node"><title>Node0x27102620</title>
<polygon fill="none" stroke="black" points="688,-1032.5 688,-1070.5 853,-1070.5 853,-1032.5 688,-1032.5"/>
<text text-anchor="start" x="696" y="-1055.3" font-family="Times,serif" font-size="14.00">0x81404b0:</text>
<text text-anchor="start" x="696" y="-1040.3" font-family="Times,serif" font-size="14.00"> for i in range(0, 20):</text>
</g>
<!-- Node0x27103600&#45;&gt;Node0x27102620 -->
<g id="edge16" class="edge"><title>Node0x27103600&#45;&gt;Node0x27102620</title>
<path fill="none" stroke="black" d="M738.574,-1146.28C746.491,-1123.03 754.836,-1098.51 761.007,-1080.39"/>
<polygon fill="black" stroke="black" points="764.374,-1081.36 764.283,-1070.76 757.747,-1079.1 764.374,-1081.36"/>
</g>
<!-- Node0x308c7b60 -->
<g id="node18" class="node"><title>Node0x308c7b60</title>
<polygon fill="none" stroke="black" points="176,-97.5 176,-270.5 409,-270.5 409,-97.5 176,-97.5"/>
<text text-anchor="start" x="184" y="-255.3" font-family="Times,serif" font-size="14.00">0x8144b10:</text>
<text text-anchor="start" x="184" y="-240.3" font-family="Times,serif" font-size="14.00"> g38 = v1</text>
<text text-anchor="start" x="184" y="-225.3" font-family="Times,serif" font-size="14.00"> g39 = v2</text>
<text text-anchor="start" x="184" y="-210.3" font-family="Times,serif" font-size="14.00"> g40 = v3</text>
<text text-anchor="start" x="184" y="-195.3" font-family="Times,serif" font-size="14.00"> g41 = v4</text>
<text text-anchor="start" x="184" y="-180.3" font-family="Times,serif" font-size="14.00"> g42 = v5</text>
<text text-anchor="start" x="184" y="-165.3" font-family="Times,serif" font-size="14.00"> g43 = v6</text>
<text text-anchor="start" x="184" y="-150.3" font-family="Times,serif" font-size="14.00"> g31 = v7</text>
<text text-anchor="start" x="184" y="-135.3" font-family="Times,serif" font-size="14.00"> g32 = v8</text>
<text text-anchor="start" x="184" y="-120.3" font-family="Times,serif" font-size="14.00"> g34 = v17</text>
<text text-anchor="start" x="184" y="-105.3" font-family="Times,serif" font-size="14.00"> IntToPtrCastExpr&lt;ptr&gt;(v9)()</text>
</g>
<!-- Node0x27103c30&#45;&gt;Node0x308c7b60 -->
<g id="edge17" class="edge"><title>Node0x27103c30&#45;&gt;Node0x308c7b60</title>
<path fill="none" stroke="black" d="M292.5,-1089.23C292.5,-1070.38 292.5,-1040.13 292.5,-1014 292.5,-1014 292.5,-1014 292.5,-334 292.5,-316.917 292.5,-298.732 292.5,-281.151"/>
<polygon fill="black" stroke="black" points="296,-280.882 292.5,-270.882 289,-280.882 296,-280.882"/>
</g>
<!-- Node0x27105530&#45;&gt;Node0x15437590 -->
<g id="edge18" class="edge"><title>Node0x27105530&#45;&gt;Node0x15437590</title>
<path fill="none" stroke="black" d="M183.472,-1237.23C172.59,-1263.65 154.5,-1314.35 154.5,-1359.5 154.5,-1896 154.5,-1896 154.5,-1896 154.5,-1994.71 179.243,-2022.32 237.5,-2102 250.342,-2119.57 268.59,-2135.37 284.799,-2147.45"/>
<polygon fill="black" stroke="black" points="282.896,-2150.4 293.049,-2153.42 286.999,-2144.73 282.896,-2150.4"/>
</g>
<!-- Node0x15433390 -->
<g id="node19" class="node"><title>Node0x15433390</title>
<polygon fill="none" stroke="black" points="741.5,-881.5 741.5,-949.5 1137.5,-949.5 1137.5,-881.5 741.5,-881.5"/>
<text text-anchor="start" x="749.5" y="-934.3" font-family="Times,serif" font-size="14.00">0x813cf90:</text>
<text text-anchor="start" x="749.5" y="-919.3" font-family="Times,serif" font-size="14.00"> v31 = PtrToIntCastExpr&lt;int32&gt;(v30)</text>
<text text-anchor="start" x="749.5" y="-904.3" font-family="Times,serif" font-size="14.00"> v29 = IntToPtrCastExpr&lt;ptr&gt;(((v31 ^ v19) % 256))</text>
<text text-anchor="start" x="749.5" y="-889.3" font-family="Times,serif" font-size="14.00"> v30 = v29</text>
</g>
<!-- Node0x27102620&#45;&gt;Node0x15433390 -->
<g id="edge19" class="edge"><title>Node0x27102620&#45;&gt;Node0x15433390</title>
<path fill="none" stroke="black" d="M788.504,-1032.43C811.099,-1012.93 850.532,-981.291 883.486,-955.985"/>
<polygon fill="black" stroke="black" points="885.89,-958.552 891.71,-949.699 881.639,-952.991 885.89,-958.552"/>
</g>
<!-- Node0x308c2ca0 -->
<g id="node20" class="node"><title>Node0x308c2ca0</title>
<polygon fill="none" stroke="black" points="422,-836.5 422,-994.5 723,-994.5 723,-836.5 422,-836.5"/>
<text text-anchor="start" x="430" y="-979.3" font-family="Times,serif" font-size="14.00">0x813e080:</text>
<text text-anchor="start" x="430" y="-964.3" font-family="Times,serif" font-size="14.00"> g36 = ((16777216 * v31) / 16777216)</text>
<text text-anchor="start" x="430" y="-949.3" font-family="Times,serif" font-size="14.00"> g30 = 20</text>
<text text-anchor="start" x="430" y="-934.3" font-family="Times,serif" font-size="14.00"> v32 = (g38 + 1)</text>
<text text-anchor="start" x="430" y="-919.3" font-family="Times,serif" font-size="14.00"> g38 = v32</text>
<text text-anchor="start" x="430" y="-904.3" font-family="Times,serif" font-size="14.00"> g37 = v17</text>
<text text-anchor="start" x="430" y="-889.3" font-family="Times,serif" font-size="14.00"> v33 = (v32 &#45; v17)</text>
<text text-anchor="start" x="430" y="-874.3" font-family="Times,serif" font-size="14.00"> g8 = (((v33 ^ v32) &amp; (v32 ^ v17)) &lt; 0)</text>
<text text-anchor="start" x="430" y="-859.3" font-family="Times,serif" font-size="14.00"> g7 = (v33 &lt; 0)</text>
<text text-anchor="start" x="430" y="-844.3" font-family="Times,serif" font-size="14.00"> g9 = (v32 == v17)</text>
</g>
<!-- Node0x27102620&#45;&gt;Node0x308c2ca0 -->
<g id="edge20" class="edge"><title>Node0x27102620&#45;&gt;Node0x308c2ca0</title>
<path fill="none" stroke="black" d="M743.797,-1032.43C730.916,-1023.71 714.444,-1012.56 696.825,-1000.64"/>
<polygon fill="black" stroke="black" points="698.337,-997.436 688.094,-994.73 694.414,-1003.23 698.337,-997.436"/>
</g>
<!-- Node0x308c7b60&#45;&gt;Node0x15430090 -->
<g id="edge21" class="edge"><title>Node0x308c7b60&#45;&gt;Node0x15430090</title>
<path fill="none" stroke="black" d="M213.744,-97.2233C203.784,-86.3752 194.301,-76.047 186.312,-67.3451"/>
<polygon fill="black" stroke="black" points="188.764,-64.8415 179.423,-59.8425 183.608,-69.5758 188.764,-64.8415"/>
</g>
<!-- Node0x15433390&#45;&gt;Node0x27102620 -->
<g id="edge22" class="edge"><title>Node0x15433390&#45;&gt;Node0x27102620</title>
<path fill="none" stroke="black" d="M903.55,-949.699C874.821,-973.491 834.898,-1004.99 806.222,-1026.4"/>
<polygon fill="black" stroke="black" points="804.035,-1023.66 798.081,-1032.43 808.2,-1029.29 804.035,-1023.66"/>
</g>
<!-- Node0x15434390 -->
<g id="node21" class="node"><title>Node0x15434390</title>
<polygon fill="none" stroke="black" points="474.5,-760.5 474.5,-798.5 610.5,-798.5 610.5,-760.5 474.5,-760.5"/>
<text text-anchor="start" x="482.5" y="-783.3" font-family="Times,serif" font-size="14.00">0x8140040:</text>
<text text-anchor="start" x="482.5" y="-768.3" font-family="Times,serif" font-size="14.00"> if (v32 &gt;= v17):</text>
</g>
<!-- Node0x308c2ca0&#45;&gt;Node0x15434390 -->
<g id="edge23" class="edge"><title>Node0x308c2ca0&#45;&gt;Node0x15434390</title>
<path fill="none" stroke="black" d="M554.962,-836.164C552.762,-826.338 550.637,-816.847 548.784,-808.57"/>
<polygon fill="black" stroke="black" points="552.197,-807.795 546.597,-798.801 545.367,-809.324 552.197,-807.795"/>
</g>
<!-- Node0x15431190 -->
<g id="node22" class="node"><title>Node0x15431190</title>
<polygon fill="none" stroke="black" points="494.5,-670.5 494.5,-708.5 590.5,-708.5 590.5,-670.5 494.5,-670.5"/>
<text text-anchor="start" x="502.5" y="-693.3" font-family="Times,serif" font-size="14.00">0x813fac0:</text>
<text text-anchor="start" x="502.5" y="-678.3" font-family="Times,serif" font-size="14.00"> break</text>
</g>
<!-- Node0x15434390&#45;&gt;Node0x15431190 -->
<g id="edge24" class="edge"><title>Node0x15434390&#45;&gt;Node0x15431190</title>
<path fill="none" stroke="black" d="M542.5,-760.266C542.5,-748.349 542.5,-732.538 542.5,-718.982"/>
<polygon fill="black" stroke="black" points="546,-718.71 542.5,-708.71 539,-718.71 546,-718.71"/>
<text text-anchor="middle" x="585.5" y="-730.8" font-family="Times,serif" font-size="14.00">v32 &gt;= v17</text>
</g>
<!-- Node0x15433f90 -->
<g id="node23" class="node"><title>Node0x15433f90</title>
<polygon fill="none" stroke="black" points="364.5,-670.5 364.5,-708.5 462.5,-708.5 462.5,-670.5 364.5,-670.5"/>
<text text-anchor="start" x="372.5" y="-693.3" font-family="Times,serif" font-size="14.00">0x813fbd0:</text>
<text text-anchor="start" x="372.5" y="-678.3" font-family="Times,serif" font-size="14.00"> v28 = v29</text>
</g>
<!-- Node0x15434390&#45;&gt;Node0x15433f90 -->
<g id="edge25" class="edge"><title>Node0x15434390&#45;&gt;Node0x15433f90</title>
<path fill="none" stroke="black" d="M496.862,-760.431C485.842,-755.193 474.399,-748.977 464.5,-742 454.159,-734.711 444.073,-725.203 435.638,-716.344"/>
<polygon fill="black" stroke="black" points="438.035,-713.78 428.685,-708.797 432.887,-718.523 438.035,-713.78"/>
<text text-anchor="middle" x="501.5" y="-730.8" font-family="Times,serif" font-size="14.00">v32 &lt; v17</text>
</g>
<!-- Node0x27103d10 -->
<g id="node24" class="node"><title>Node0x27103d10</title>
<polygon fill="none" stroke="black" points="364.5,-489.5 364.5,-632.5 720.5,-632.5 720.5,-489.5 364.5,-489.5"/>
<text text-anchor="start" x="372.5" y="-617.3" font-family="Times,serif" font-size="14.00">0x8140cf0:</text>
<text text-anchor="start" x="372.5" y="-602.3" font-family="Times,serif" font-size="14.00"> memcpy(IntToPtrCastExpr&lt;ptr&gt;(g42), v29, 0)</text>
<text text-anchor="start" x="372.5" y="-587.3" font-family="Times,serif" font-size="14.00"> g42 = (g42 + 20)</text>
<text text-anchor="start" x="372.5" y="-572.3" font-family="Times,serif" font-size="14.00"> g33 = v15</text>
<text text-anchor="start" x="372.5" y="-557.3" font-family="Times,serif" font-size="14.00"> v26 = g41</text>
<text text-anchor="start" x="372.5" y="-542.3" font-family="Times,serif" font-size="14.00"> v27 = (v26 &#45; v15)</text>
<text text-anchor="start" x="372.5" y="-527.3" font-family="Times,serif" font-size="14.00"> g8 = (((v27 ^ v26) &amp; (v26 ^ v15)) &lt; 0)</text>
<text text-anchor="start" x="372.5" y="-512.3" font-family="Times,serif" font-size="14.00"> g7 = (v27 &lt; 0)</text>
<text text-anchor="start" x="372.5" y="-497.3" font-family="Times,serif" font-size="14.00"> g9 = (v26 == v15)</text>
</g>
<!-- Node0x15431190&#45;&gt;Node0x27103d10 -->
<g id="edge26" class="edge"><title>Node0x15431190&#45;&gt;Node0x27103d10</title>
<path fill="none" stroke="black" d="M542.5,-670.376C542.5,-662.61 542.5,-652.95 542.5,-642.621"/>
<polygon fill="black" stroke="black" points="546,-642.552 542.5,-632.552 539,-642.552 546,-642.552"/>
</g>
<!-- Node0x15433f90&#45;&gt;Node0x34056670 -->
<g id="edge27" class="edge"><title>Node0x15433f90&#45;&gt;Node0x34056670</title>
<path fill="none" stroke="black" d="M406.84,-708.767C401.022,-726.377 393.5,-753.902 393.5,-778.5 393.5,-1219 393.5,-1219 393.5,-1219 393.5,-1293.18 484.284,-1330.28 547.867,-1347.17"/>
<polygon fill="black" stroke="black" points="547.265,-1350.63 557.82,-1349.71 548.996,-1343.84 547.265,-1350.63"/>
</g>
<!-- Node0x44383b90 -->
<g id="node25" class="node"><title>Node0x44383b90</title>
<polygon fill="none" stroke="black" points="474.5,-413.5 474.5,-451.5 610.5,-451.5 610.5,-413.5 474.5,-413.5"/>
<text text-anchor="start" x="482.5" y="-436.3" font-family="Times,serif" font-size="14.00">0x8142880:</text>
<text text-anchor="start" x="482.5" y="-421.3" font-family="Times,serif" font-size="14.00"> if (v26 == v15):</text>
</g>
<!-- Node0x27103d10&#45;&gt;Node0x44383b90 -->
<g id="edge28" class="edge"><title>Node0x27103d10&#45;&gt;Node0x44383b90</title>
<path fill="none" stroke="black" d="M542.5,-489.353C542.5,-479.594 542.5,-470.073 542.5,-461.737"/>
<polygon fill="black" stroke="black" points="546,-461.54 542.5,-451.54 539,-461.54 546,-461.54"/>
</g>
<!-- Node0x15432f90 -->
<g id="node26" class="node"><title>Node0x15432f90</title>
<polygon fill="none" stroke="black" points="548,-316 548,-354 649,-354 649,-316 548,-316"/>
<text text-anchor="start" x="556" y="-338.8" font-family="Times,serif" font-size="14.00">0x8142510:</text>
<text text-anchor="start" x="556" y="-323.8" font-family="Times,serif" font-size="14.00"> break</text>
</g>
<!-- Node0x44383b90&#45;&gt;Node0x15432f90 -->
<g id="edge29" class="edge"><title>Node0x44383b90&#45;&gt;Node0x15432f90</title>
<path fill="none" stroke="black" d="M555.645,-413.206C559.6,-407.469 563.854,-401.053 567.5,-395 573.608,-384.86 579.785,-373.402 585,-363.299"/>
<polygon fill="black" stroke="black" points="588.258,-364.615 589.672,-354.115 582.019,-361.441 588.258,-364.615"/>
<text text-anchor="middle" x="618.5" y="-383.8" font-family="Times,serif" font-size="14.00">v26 == v15</text>
</g>
<!-- Node0x271044b0 -->
<g id="node27" class="node"><title>Node0x271044b0</title>
<polygon fill="none" stroke="black" points="429,-308.5 429,-361.5 530,-361.5 530,-308.5 429,-308.5"/>
<text text-anchor="start" x="437" y="-346.3" font-family="Times,serif" font-size="14.00">0x81423a0:</text>
<text text-anchor="start" x="437" y="-331.3" font-family="Times,serif" font-size="14.00"> v21 = v26</text>
<text text-anchor="start" x="437" y="-316.3" font-family="Times,serif" font-size="14.00"> continue</text>
</g>
<!-- Node0x44383b90&#45;&gt;Node0x271044b0 -->
<g id="edge30" class="edge"><title>Node0x44383b90&#45;&gt;Node0x271044b0</title>
<path fill="none" stroke="black" d="M501.512,-413.342C494.417,-408.395 487.913,-402.325 483.5,-395 479.328,-388.075 477.344,-379.827 476.597,-371.726"/>
<polygon fill="black" stroke="black" points="480.092,-371.523 476.241,-361.653 473.096,-371.771 480.092,-371.523"/>
<text text-anchor="middle" x="523.5" y="-383.8" font-family="Times,serif" font-size="14.00">v26 != v15</text>
</g>
<!-- Node0x15432f90&#45;&gt;Node0x308c7b60 -->
<g id="edge31" class="edge"><title>Node0x15432f90&#45;&gt;Node0x308c7b60</title>
<path fill="none" stroke="black" d="M561.284,-315.879C525.674,-298.539 469.911,-271.386 418.386,-246.298"/>
<polygon fill="black" stroke="black" points="419.68,-243.034 409.157,-241.803 416.615,-249.328 419.68,-243.034"/>
</g>
<!-- Node0x271044b0&#45;&gt;Node0x15437590 -->
<g id="edge32" class="edge"><title>Node0x271044b0&#45;&gt;Node0x15437590</title>
<path fill="none" stroke="black" d="M530.321,-359.529C533.06,-360.44 535.798,-361.273 538.5,-362 606.188,-380.205 1165.5,-361.407 1165.5,-431.5 1165.5,-1896 1165.5,-1896 1165.5,-1896 1165.5,-2060.96 575.471,-2142.67 382.076,-2165.02"/>
<polygon fill="black" stroke="black" points="381.619,-2161.55 372.081,-2166.16 382.414,-2168.5 381.619,-2161.55"/>
</g>
</g>
</svg>
