<?xml version="1.0" encoding="UTF-8" standalone="no"?>
<!DOCTYPE svg PUBLIC "-//W3C//DTD SVG 1.1//EN"
 "http://www.w3.org/Graphics/SVG/1.1/DTD/svg11.dtd">
<!-- Generated by graphviz version 2.38.0 (20140413.2041)
 -->
<!-- Title: Control&#45;flow graph for function &#39;function_16124()&#39;. Pages: 1 -->
<svg width="1081pt" height="986pt"
 viewBox="0.00 0.00 1080.50 986.00" xmlns="http://www.w3.org/2000/svg" xmlns:xlink="http://www.w3.org/1999/xlink">
<g id="graph0" class="graph" transform="scale(1 1) rotate(0) translate(4 982)">
<title>Control&#45;flow graph for function &#39;function_16124()&#39;.</title>
<polygon fill="white" stroke="none" points="-4,4 -4,-982 1076.5,-982 1076.5,4 -4,4"/>
<text text-anchor="middle" x="536.25" y="-7.8" font-family="Times,serif" font-size="14.00">Control&#45;flow graph for function &#39;function_16124()&#39;.</text>
<!-- Node0x360a5340 -->
<g id="node1" class="node"><title>Node0x360a5340</title>
<polygon fill="none" stroke="black" points="279,-941.5 279,-977.5 338,-977.5 338,-941.5 279,-941.5"/>
<text text-anchor="start" x="287" y="-955.8" font-family="Times,serif" font-size="14.00">entry:</text>
</g>
<!-- Node0x47609dc0 -->
<g id="node2" class="node"><title>Node0x47609dc0</title>
<polygon fill="none" stroke="black" points="247,-835.5 247,-903.5 370,-903.5 370,-835.5 247,-835.5"/>
<text text-anchor="start" x="255" y="-888.3" font-family="Times,serif" font-size="14.00">0x466825d0:</text>
<text text-anchor="start" x="255" y="-873.3" font-family="Times,serif" font-size="14.00"> v1 = g38</text>
<text text-anchor="start" x="255" y="-858.3" font-family="Times,serif" font-size="14.00"> g38 = 165012</text>
<text text-anchor="start" x="255" y="-843.3" font-family="Times,serif" font-size="14.00"> v2 = 170760</text>
</g>
<!-- Node0x360a5340&#45;&gt;Node0x47609dc0 -->
<g id="edge1" class="edge"><title>Node0x360a5340&#45;&gt;Node0x47609dc0</title>
<path fill="none" stroke="black" d="M308.5,-941.114C308.5,-933.158 308.5,-923.343 308.5,-913.588"/>
<polygon fill="black" stroke="black" points="312,-913.524 308.5,-903.524 305,-913.524 312,-913.524"/>
</g>
<!-- Node0x360a8230 -->
<g id="node3" class="node"><title>Node0x360a8230</title>
<polygon fill="none" stroke="black" points="36.5,-759.5 36.5,-797.5 580.5,-797.5 580.5,-759.5 36.5,-759.5"/>
<text text-anchor="start" x="44.5" y="-782.3" font-family="Times,serif" font-size="14.00">0x8429780:</text>
<text text-anchor="start" x="44.5" y="-767.3" font-family="Times,serif" font-size="14.00"> if (*(IntToPtrCastExpr&lt;ptr&gt;(*(IntToPtrCastExpr&lt;ptr&gt;(165212)))) != 0):</text>
</g>
<!-- Node0x47609dc0&#45;&gt;Node0x360a8230 -->
<g id="edge2" class="edge"><title>Node0x47609dc0&#45;&gt;Node0x360a8230</title>
<path fill="none" stroke="black" d="M308.5,-835.36C308.5,-826.365 308.5,-816.707 308.5,-807.993"/>
<polygon fill="black" stroke="black" points="312,-807.941 308.5,-797.941 305,-807.941 312,-807.941"/>
</g>
<!-- Node0x1636ca20 -->
<g id="node4" class="node"><title>Node0x1636ca20</title>
<polygon fill="none" stroke="black" points="132.5,-654.5 132.5,-707.5 344.5,-707.5 344.5,-654.5 132.5,-654.5"/>
<text text-anchor="start" x="140.5" y="-692.3" font-family="Times,serif" font-size="14.00">0x8428ed0:</text>
<text text-anchor="start" x="140.5" y="-677.3" font-family="Times,serif" font-size="14.00"> imported_function_ord_0()</text>
<text text-anchor="start" x="140.5" y="-662.3" font-family="Times,serif" font-size="14.00"> v2 = (g38 + 5748)</text>
</g>
<!-- Node0x360a8230&#45;&gt;Node0x1636ca20 -->
<g id="edge3" class="edge"><title>Node0x360a8230&#45;&gt;Node0x1636ca20</title>
<path fill="none" stroke="black" d="M89.7842,-759.449C74.2275,-754.637 62.0734,-748.59 55.5,-741 28.194,-709.472 71.1366,-694.665 122.259,-687.768"/>
<polygon fill="black" stroke="black" points="122.736,-691.235 132.229,-686.53 121.874,-684.289 122.736,-691.235"/>
<text text-anchor="middle" x="302.5" y="-729.8" font-family="Times,serif" font-size="14.00">*(IntToPtrCastExpr&lt;ptr&gt;(*(IntToPtrCastExpr&lt;ptr&gt;(165212)))) != 0</text>
</g>
<!-- Node0x360a7110 -->
<g id="node5" class="node"><title>Node0x360a7110</title>
<polygon fill="none" stroke="black" points="233.5,-323.5 233.5,-616.5 717.5,-616.5 717.5,-323.5 233.5,-323.5"/>
<text text-anchor="start" x="241.5" y="-601.3" font-family="Times,serif" font-size="14.00">0x8429880:</text>
<text text-anchor="start" x="241.5" y="-586.3" font-family="Times,serif" font-size="14.00"> g29 = v2</text>
<text text-anchor="start" x="241.5" y="-571.3" font-family="Times,serif" font-size="14.00"> v3 = g20</text>
<text text-anchor="start" x="241.5" y="-556.3" font-family="Times,serif" font-size="14.00"> g37 = v3</text>
<text text-anchor="start" x="241.5" y="-541.3" font-family="Times,serif" font-size="14.00"> g9 = (v3 == 0)</text>
<text text-anchor="start" x="241.5" y="-526.3" font-family="Times,serif" font-size="14.00"> g38 = v1</text>
<text text-anchor="start" x="241.5" y="-511.3" font-family="Times,serif" font-size="14.00"> v4</text>
<text text-anchor="start" x="241.5" y="-496.3" font-family="Times,serif" font-size="14.00"> g34 = v4</text>
<text text-anchor="start" x="241.5" y="-481.3" font-family="Times,serif" font-size="14.00"> IntToPtrCastExpr&lt;ptr&gt;(ExtCastExpr&lt;int32&gt;((v3 == 0)))()</text>
<text text-anchor="start" x="241.5" y="-466.3" font-family="Times,serif" font-size="14.00"> g30 = 0</text>
<text text-anchor="start" x="241.5" y="-451.3" font-family="Times,serif" font-size="14.00"> g29 = 12</text>
<text text-anchor="start" x="241.5" y="-436.3" font-family="Times,serif" font-size="14.00"> g35 = 90492</text>
<text text-anchor="start" x="241.5" y="-421.3" font-family="Times,serif" font-size="14.00"> IntToPtrCastExpr&lt;ptr&gt;(g37)()</text>
<text text-anchor="start" x="241.5" y="-406.3" font-family="Times,serif" font-size="14.00"> v5 = g34</text>
<text text-anchor="start" x="241.5" y="-391.3" font-family="Times,serif" font-size="14.00"> g38 = *(IntToPtrCastExpr&lt;ptr&gt;((v5 + 4)))</text>
<text text-anchor="start" x="241.5" y="-376.3" font-family="Times,serif" font-size="14.00"> g32 = *(IntToPtrCastExpr&lt;ptr&gt;((v5 + 8)))</text>
<text text-anchor="start" x="241.5" y="-361.3" font-family="Times,serif" font-size="14.00"> g34 = *(IntToPtrCastExpr&lt;ptr&gt;((v5 + 12)))</text>
<text text-anchor="start" x="241.5" y="-346.3" font-family="Times,serif" font-size="14.00"> IntToPtrCastExpr&lt;ptr&gt;(*(IntToPtrCastExpr&lt;ptr&gt;((v5 + 16))))()</text>
<text text-anchor="start" x="241.5" y="-331.3" font-family="Times,serif" font-size="14.00"> v6 = (g37 % 256)</text>
</g>
<!-- Node0x360a8230&#45;&gt;Node0x360a7110 -->
<g id="edge4" class="edge"><title>Node0x360a8230&#45;&gt;Node0x360a7110</title>
<path fill="none" stroke="black" d="M514.647,-759.468C530.529,-754.669 542.947,-748.62 549.5,-741 577.21,-708.777 577.358,-667.068 565.539,-626.111"/>
<polygon fill="black" stroke="black" points="568.88,-625.067 562.566,-616.559 562.196,-627.147 568.88,-625.067"/>
<text text-anchor="middle" x="822.5" y="-677.3" font-family="Times,serif" font-size="14.00">*(IntToPtrCastExpr&lt;ptr&gt;(*(IntToPtrCastExpr&lt;ptr&gt;(165212)))) == 0</text>
</g>
<!-- Node0x1636ca20&#45;&gt;Node0x360a7110 -->
<g id="edge5" class="edge"><title>Node0x1636ca20&#45;&gt;Node0x360a7110</title>
<path fill="none" stroke="black" d="M267.561,-654.372C277.532,-645.58 289.523,-635.005 302.649,-623.43"/>
<polygon fill="black" stroke="black" points="305.317,-625.743 310.503,-616.504 300.687,-620.493 305.317,-625.743"/>
</g>
<!-- Node0xf7d0e90 -->
<g id="node6" class="node"><title>Node0xf7d0e90</title>
<polygon fill="none" stroke="black" points="425,-247.5 425,-285.5 526,-285.5 526,-247.5 425,-247.5"/>
<text text-anchor="start" x="433" y="-270.3" font-family="Times,serif" font-size="14.00">0x843bd40:</text>
<text text-anchor="start" x="433" y="-255.3" font-family="Times,serif" font-size="14.00"> if g9:</text>
</g>
<!-- Node0x360a7110&#45;&gt;Node0xf7d0e90 -->
<g id="edge6" class="edge"><title>Node0x360a7110&#45;&gt;Node0xf7d0e90</title>
<path fill="none" stroke="black" d="M475.5,-323.361C475.5,-313.249 475.5,-303.894 475.5,-295.847"/>
<polygon fill="black" stroke="black" points="479,-295.734 475.5,-285.734 472,-295.734 479,-295.734"/>
</g>
<!-- Node0x1636d2f0 -->
<g id="node7" class="node"><title>Node0x1636d2f0</title>
<polygon fill="none" stroke="black" points="0,-97.5 0,-195.5 513,-195.5 513,-97.5 0,-97.5"/>
<text text-anchor="start" x="8" y="-180.3" font-family="Times,serif" font-size="14.00">0x843a070:</text>
<text text-anchor="start" x="8" y="-165.3" font-family="Times,serif" font-size="14.00"> g36 = (g30 &amp; (g29 &gt;&gt; (0 if (v6 == 0) else (31 if (v6 &gt; 31) else v6))))</text>
<text text-anchor="start" x="8" y="-150.3" font-family="Times,serif" font-size="14.00"> v7 = ((g42 / 2) &amp; g29)</text>
<text text-anchor="start" x="8" y="-135.3" font-family="Times,serif" font-size="14.00"> g29 = v7</text>
<text text-anchor="start" x="8" y="-120.3" font-family="Times,serif" font-size="14.00"> v8 = (g40 % 256)</text>
<text text-anchor="start" x="8" y="-105.3" font-family="Times,serif" font-size="14.00"> g30 = ((g38 &gt;&gt; (0 if (v8 == 0) else (31 if (v8 &gt; 31) else v8))) &amp; v7)</text>
</g>
<!-- Node0xf7d0e90&#45;&gt;Node0x1636d2f0 -->
<g id="edge7" class="edge"><title>Node0xf7d0e90&#45;&gt;Node0x1636d2f0</title>
<path fill="none" stroke="black" d="M441.761,-247.321C418.392,-234.729 385.992,-217.272 354.815,-200.473"/>
<polygon fill="black" stroke="black" points="356.091,-197.185 345.627,-195.523 352.771,-203.348 356.091,-197.185"/>
<text text-anchor="middle" x="415" y="-217.8" font-family="Times,serif" font-size="14.00">g9</text>
</g>
<!-- Node0x360aa980 -->
<g id="node8" class="node"><title>Node0x360aa980</title>
<polygon fill="none" stroke="black" points="442.5,-23.5 442.5,-59.5 496.5,-59.5 496.5,-23.5 442.5,-23.5"/>
<text text-anchor="start" x="450.5" y="-37.8" font-family="Times,serif" font-size="14.00">exit:</text>
</g>
<!-- Node0xf7d0e90&#45;&gt;Node0x360aa980 -->
<g id="edge8" class="edge"><title>Node0xf7d0e90&#45;&gt;Node0x360aa980</title>
<path fill="none" stroke="black" d="M491.91,-247.287C502.64,-234.094 515.704,-215.259 521.5,-196 534.18,-153.867 537.86,-137.845 521.5,-97 516.949,-85.6385 508.777,-75.3005 500.238,-66.7559"/>
<polygon fill="black" stroke="black" points="502.417,-64.0015 492.722,-59.728 497.636,-69.1145 502.417,-64.0015"/>
<text text-anchor="middle" x="561" y="-142.8" font-family="Times,serif" font-size="14.00">not (g9)</text>
</g>
<!-- Node0x1636d2f0&#45;&gt;Node0x360aa980 -->
<g id="edge9" class="edge"><title>Node0x1636d2f0&#45;&gt;Node0x360aa980</title>
<path fill="none" stroke="black" d="M355.829,-97.4679C383.416,-84.1277 411.647,-70.4758 433.074,-60.1144"/>
<polygon fill="black" stroke="black" points="434.637,-63.2467 442.115,-55.7423 431.589,-56.9448 434.637,-63.2467"/>
</g>
</g>
</svg>
