<?xml version="1.0" encoding="UTF-8" standalone="no"?>
<!DOCTYPE svg PUBLIC "-//W3C//DTD SVG 1.1//EN"
 "http://www.w3.org/Graphics/SVG/1.1/DTD/svg11.dtd">
<!-- Generated by graphviz version 2.38.0 (20140413.2041)
 -->
<!-- Title: Control&#45;flow graph for function &#39;function_23d10()&#39;. Pages: 1 -->
<svg width="826pt" height="1468pt"
 viewBox="0.00 0.00 826.00 1468.00" xmlns="http://www.w3.org/2000/svg" xmlns:xlink="http://www.w3.org/1999/xlink">
<g id="graph0" class="graph" transform="scale(1 1) rotate(0) translate(4 1464)">
<title>Control&#45;flow graph for function &#39;function_23d10()&#39;.</title>
<polygon fill="white" stroke="none" points="-4,4 -4,-1464 822,-1464 822,4 -4,4"/>
<text text-anchor="middle" x="409" y="-7.8" font-family="Times,serif" font-size="14.00">Control&#45;flow graph for function &#39;function_23d10()&#39;.</text>
<!-- Node0x46608b00 -->
<g id="node1" class="node"><title>Node0x46608b00</title>
<polygon fill="none" stroke="black" points="168.5,-1423.5 168.5,-1459.5 227.5,-1459.5 227.5,-1423.5 168.5,-1423.5"/>
<text text-anchor="start" x="176.5" y="-1437.8" font-family="Times,serif" font-size="14.00">entry:</text>
</g>
<!-- Node0x46607da0 -->
<g id="node2" class="node"><title>Node0x46607da0</title>
<polygon fill="none" stroke="black" points="3.5,-1092.5 3.5,-1385.5 392.5,-1385.5 392.5,-1092.5 3.5,-1092.5"/>
<text text-anchor="start" x="11.5" y="-1370.3" font-family="Times,serif" font-size="14.00">0x155dcf60:</text>
<text text-anchor="start" x="11.5" y="-1355.3" font-family="Times,serif" font-size="14.00"> v1 = g30</text>
<text text-anchor="start" x="11.5" y="-1340.3" font-family="Times,serif" font-size="14.00"> v2 = (32 &#45; v1)</text>
<text text-anchor="start" x="11.5" y="-1325.3" font-family="Times,serif" font-size="14.00"> v3 = g41</text>
<text text-anchor="start" x="11.5" y="-1310.3" font-family="Times,serif" font-size="14.00"> v4 = (32 if ((v2 % 32) == 0) else v2)</text>
<text text-anchor="start" x="11.5" y="-1295.3" font-family="Times,serif" font-size="14.00"> v5 = (v3 &lt;&lt; v1)</text>
<text text-anchor="start" x="11.5" y="-1280.3" font-family="Times,serif" font-size="14.00"> g36 = v5</text>
<text text-anchor="start" x="11.5" y="-1265.3" font-family="Times,serif" font-size="14.00"> v6 = (g40 &lt;&lt; v1)</text>
<text text-anchor="start" x="11.5" y="-1250.3" font-family="Times,serif" font-size="14.00"> g40 = v6</text>
<text text-anchor="start" x="11.5" y="-1235.3" font-family="Times,serif" font-size="14.00"> v7 = (v6 / 65536)</text>
<text text-anchor="start" x="11.5" y="-1220.3" font-family="Times,serif" font-size="14.00"> g41 = v7</text>
<text text-anchor="start" x="11.5" y="-1205.3" font-family="Times,serif" font-size="14.00"> v8 = (v6 % 65536)</text>
<text text-anchor="start" x="11.5" y="-1190.3" font-family="Times,serif" font-size="14.00"> g32 = v8</text>
<text text-anchor="start" x="11.5" y="-1175.3" font-family="Times,serif" font-size="14.00"> v9 = ((v3 &gt;&gt; v4) / v7)</text>
<text text-anchor="start" x="11.5" y="-1160.3" font-family="Times,serif" font-size="14.00"> g30 = v7</text>
<text text-anchor="start" x="11.5" y="-1145.3" font-family="Times,serif" font-size="14.00"> g39 = (v9 * v8)</text>
<text text-anchor="start" x="11.5" y="-1130.3" font-family="Times,serif" font-size="14.00"> unknown_228ca()</text>
<text text-anchor="start" x="11.5" y="-1115.3" font-family="Times,serif" font-size="14.00"> v10 = ((((g43 &gt;&gt; v4) | v5) / 65536) | (65536 * g30))</text>
<text text-anchor="start" x="11.5" y="-1100.3" font-family="Times,serif" font-size="14.00"> v11</text>
</g>
<!-- Node0x46608b00&#45;&gt;Node0x46607da0 -->
<g id="edge1" class="edge"><title>Node0x46608b00&#45;&gt;Node0x46607da0</title>
<path fill="none" stroke="black" d="M198,-1423.41C198,-1416.01 198,-1406.6 198,-1395.97"/>
<polygon fill="black" stroke="black" points="201.5,-1395.89 198,-1385.89 194.5,-1395.89 201.5,-1395.89"/>
</g>
<!-- Node0x46608a90 -->
<g id="node3" class="node"><title>Node0x46608a90</title>
<polygon fill="none" stroke="black" points="22,-1016.5 22,-1054.5 374,-1054.5 374,-1016.5 22,-1016.5"/>
<text text-anchor="start" x="30" y="-1039.3" font-family="Times,serif" font-size="14.00">0xa461fa0:</text>
<text text-anchor="start" x="30" y="-1024.3" font-family="Times,serif" font-size="14.00"> if ((g39 == v10) or (((&#45;2 &#45; v10) + g39) &gt; g39)):</text>
</g>
<!-- Node0x46607da0&#45;&gt;Node0x46608a90 -->
<g id="edge2" class="edge"><title>Node0x46607da0&#45;&gt;Node0x46608a90</title>
<path fill="none" stroke="black" d="M198,-1092.36C198,-1082.25 198,-1072.89 198,-1064.85"/>
<polygon fill="black" stroke="black" points="201.5,-1064.73 198,-1054.73 194.5,-1064.73 201.5,-1064.73"/>
</g>
<!-- Node0x4660a800 -->
<g id="node4" class="node"><title>Node0x4660a800</title>
<polygon fill="none" stroke="black" points="0,-764.5 0,-907.5 146,-907.5 146,-764.5 0,-764.5"/>
<text text-anchor="start" x="8" y="-892.3" font-family="Times,serif" font-size="14.00">0xa461120:</text>
<text text-anchor="start" x="8" y="-877.3" font-family="Times,serif" font-size="14.00"> g38 = (v10 &#45; g39)</text>
<text text-anchor="start" x="8" y="-862.3" font-family="Times,serif" font-size="14.00"> v11 = g41</text>
<text text-anchor="start" x="8" y="-847.3" font-family="Times,serif" font-size="14.00"> g30 = v11</text>
<text text-anchor="start" x="8" y="-832.3" font-family="Times,serif" font-size="14.00"> g8 = False</text>
<text text-anchor="start" x="8" y="-817.3" font-family="Times,serif" font-size="14.00"> g7 = (v11 &lt; 0)</text>
<text text-anchor="start" x="8" y="-802.3" font-family="Times,serif" font-size="14.00"> g9 = (v11 == 0)</text>
<text text-anchor="start" x="8" y="-787.3" font-family="Times,serif" font-size="14.00"> g6 = False</text>
<text text-anchor="start" x="8" y="-772.3" font-family="Times,serif" font-size="14.00"> return</text>
</g>
<!-- Node0x46608a90&#45;&gt;Node0x4660a800 -->
<g id="edge3" class="edge"><title>Node0x46608a90&#45;&gt;Node0x4660a800</title>
<path fill="none" stroke="black" d="M69.871,-1016.39C52.7548,-1011.54 39.0158,-1005.49 33,-998 14.6928,-975.2 17.1969,-945.164 26.885,-917.215"/>
<polygon fill="black" stroke="black" points="30.1703,-918.423 30.4262,-907.831 23.6211,-915.951 30.1703,-918.423"/>
<text text-anchor="middle" x="184" y="-986.8" font-family="Times,serif" font-size="14.00">(g39 == v10) or (((&#45;2 &#45; v10) + g39) &gt; g39)</text>
</g>
<!-- Node0x46608360 -->
<g id="node5" class="node"><title>Node0x46608360</title>
<polygon fill="none" stroke="black" points="282.5,-926.5 282.5,-964.5 435.5,-964.5 435.5,-926.5 282.5,-926.5"/>
<text text-anchor="start" x="290.5" y="-949.3" font-family="Times,serif" font-size="14.00">0x155dd170:</text>
<text text-anchor="start" x="290.5" y="-934.3" font-family="Times,serif" font-size="14.00"> v12 = (g40 + v10)</text>
</g>
<!-- Node0x46608a90&#45;&gt;Node0x46608360 -->
<g id="edge4" class="edge"><title>Node0x46608a90&#45;&gt;Node0x46608360</title>
<path fill="none" stroke="black" d="M310.132,-1016.4C320.626,-1011.59 330.497,-1005.56 339,-998 345.903,-991.861 350.443,-983.052 353.421,-974.451"/>
<polygon fill="black" stroke="black" points="356.847,-975.199 356.246,-964.622 350.12,-973.265 356.847,-975.199"/>
<text text-anchor="middle" x="509.5" y="-986.8" font-family="Times,serif" font-size="14.00">(g39 != v10) and (((&#45;2 &#45; v10) + g39) &lt;= g39)</text>
</g>
<!-- Node0x310acd60 -->
<g id="node6" class="node"><title>Node0x310acd60</title>
<polygon fill="none" stroke="black" points="95,-23.5 95,-59.5 149,-59.5 149,-23.5 95,-23.5"/>
<text text-anchor="start" x="103" y="-37.8" font-family="Times,serif" font-size="14.00">exit:</text>
</g>
<!-- Node0x4660a800&#45;&gt;Node0x310acd60 -->
<g id="edge5" class="edge"><title>Node0x4660a800&#45;&gt;Node0x310acd60</title>
<path fill="none" stroke="black" d="M78.9027,-764.442C80.5991,-738.675 82,-709.287 82,-682.5 82,-682.5 82,-682.5 82,-160.5 82,-127.61 96.111,-92.1623 107.571,-68.7982"/>
<polygon fill="black" stroke="black" points="110.699,-70.3676 112.112,-59.8674 104.46,-67.1944 110.699,-70.3676"/>
</g>
<!-- Node0x310ada60 -->
<g id="node7" class="node"><title>Node0x310ada60</title>
<polygon fill="none" stroke="black" points="273.5,-707.5 273.5,-745.5 398.5,-745.5 398.5,-707.5 273.5,-707.5"/>
<text text-anchor="start" x="281.5" y="-730.3" font-family="Times,serif" font-size="14.00">0xa4652c0:</text>
<text text-anchor="start" x="281.5" y="-715.3" font-family="Times,serif" font-size="14.00"> if (g40 &gt; v12):</text>
</g>
<!-- Node0x46608360&#45;&gt;Node0x310ada60 -->
<g id="edge6" class="edge"><title>Node0x46608360&#45;&gt;Node0x310ada60</title>
<path fill="none" stroke="black" d="M357.079,-926.372C353.071,-888.557 343.793,-801.026 338.995,-755.755"/>
<polygon fill="black" stroke="black" points="342.467,-755.304 337.932,-745.729 335.506,-756.042 342.467,-755.304"/>
</g>
<!-- Node0x4660ac20 -->
<g id="node8" class="node"><title>Node0x4660ac20</title>
<polygon fill="none" stroke="black" points="113,-455.5 113,-598.5 259,-598.5 259,-455.5 113,-455.5"/>
<text text-anchor="start" x="121" y="-583.3" font-family="Times,serif" font-size="14.00">0xa4644b0:</text>
<text text-anchor="start" x="121" y="-568.3" font-family="Times,serif" font-size="14.00"> g38 = (v12 &#45; g39)</text>
<text text-anchor="start" x="121" y="-553.3" font-family="Times,serif" font-size="14.00"> v11 = g41</text>
<text text-anchor="start" x="121" y="-538.3" font-family="Times,serif" font-size="14.00"> g30 = v11</text>
<text text-anchor="start" x="121" y="-523.3" font-family="Times,serif" font-size="14.00"> g8 = False</text>
<text text-anchor="start" x="121" y="-508.3" font-family="Times,serif" font-size="14.00"> g7 = (v11 &lt; 0)</text>
<text text-anchor="start" x="121" y="-493.3" font-family="Times,serif" font-size="14.00"> g9 = (v11 == 0)</text>
<text text-anchor="start" x="121" y="-478.3" font-family="Times,serif" font-size="14.00"> g6 = False</text>
<text text-anchor="start" x="121" y="-463.3" font-family="Times,serif" font-size="14.00"> return</text>
</g>
<!-- Node0x310ada60&#45;&gt;Node0x4660ac20 -->
<g id="edge7" class="edge"><title>Node0x310ada60&#45;&gt;Node0x4660ac20</title>
<path fill="none" stroke="black" d="M282.82,-707.428C273.414,-702.514 264.307,-696.436 257,-689 235.07,-666.683 219.323,-636.453 208.321,-608.213"/>
<polygon fill="black" stroke="black" points="211.554,-606.865 204.77,-598.727 204.998,-609.319 211.554,-606.865"/>
<text text-anchor="middle" x="294.5" y="-677.8" font-family="Times,serif" font-size="14.00">g40 &gt; v12</text>
</g>
<!-- Node0x46607cd0 -->
<g id="node9" class="node"><title>Node0x46607cd0</title>
<polygon fill="none" stroke="black" points="281.5,-617.5 281.5,-655.5 390.5,-655.5 390.5,-617.5 281.5,-617.5"/>
<text text-anchor="start" x="289.5" y="-640.3" font-family="Times,serif" font-size="14.00">0x155dc8a0:</text>
<text text-anchor="start" x="289.5" y="-625.3" font-family="Times,serif" font-size="14.00"> v13</text>
</g>
<!-- Node0x310ada60&#45;&gt;Node0x46607cd0 -->
<g id="edge8" class="edge"><title>Node0x310ada60&#45;&gt;Node0x46607cd0</title>
<path fill="none" stroke="black" d="M336,-707.266C336,-695.349 336,-679.538 336,-665.982"/>
<polygon fill="black" stroke="black" points="339.5,-665.71 336,-655.71 332.5,-665.71 339.5,-665.71"/>
<text text-anchor="middle" x="379.5" y="-677.8" font-family="Times,serif" font-size="14.00">g40 &lt;= v12</text>
</g>
<!-- Node0x4660ac20&#45;&gt;Node0x310acd60 -->
<g id="edge9" class="edge"><title>Node0x4660ac20&#45;&gt;Node0x310acd60</title>
<path fill="none" stroke="black" d="M146.013,-455.267C133.076,-426.212 122,-391.654 122,-358.5 122,-358.5 122,-358.5 122,-160.5 122,-129.411 122,-93.714 122,-69.7977"/>
<polygon fill="black" stroke="black" points="125.5,-69.697 122,-59.697 118.5,-69.697 125.5,-69.697"/>
</g>
<!-- Node0x46608440 -->
<g id="node10" class="node"><title>Node0x46608440</title>
<polygon fill="none" stroke="black" points="151.5,-383.5 151.5,-436.5 520.5,-436.5 520.5,-383.5 151.5,-383.5"/>
<text text-anchor="start" x="159.5" y="-421.3" font-family="Times,serif" font-size="14.00">0xa467fc0:</text>
<text text-anchor="start" x="159.5" y="-406.3" font-family="Times,serif" font-size="14.00"> if ((g39 != v12) and (((&#45;2 &#45; v12) + g39) &lt;= g39)):</text>
<text text-anchor="start" x="159.5" y="-391.3" font-family="Times,serif" font-size="14.00"> else:</text>
</g>
<!-- Node0x46607cd0&#45;&gt;Node0x46608440 -->
<g id="edge10" class="edge"><title>Node0x46607cd0&#45;&gt;Node0x46608440</title>
<path fill="none" stroke="black" d="M336,-617.128C336,-579.957 336,-495.255 336,-446.791"/>
<polygon fill="black" stroke="black" points="339.5,-446.741 336,-436.741 332.5,-446.741 339.5,-446.741"/>
</g>
<!-- Node0x4660b040 -->
<g id="node11" class="node"><title>Node0x4660b040</title>
<polygon fill="none" stroke="black" points="150.5,-263.5 150.5,-331.5 303.5,-331.5 303.5,-263.5 150.5,-263.5"/>
<text text-anchor="start" x="158.5" y="-316.3" font-family="Times,serif" font-size="14.00">0xa466a70:</text>
<text text-anchor="start" x="158.5" y="-301.3" font-family="Times,serif" font-size="14.00"> g29 = (v9 &#45; 2)</text>
<text text-anchor="start" x="158.5" y="-286.3" font-family="Times,serif" font-size="14.00"> v13 = (v12 + g40)</text>
<text text-anchor="start" x="158.5" y="-271.3" font-family="Times,serif" font-size="14.00"> g37 = v13</text>
</g>
<!-- Node0x46608440&#45;&gt;Node0x4660b040 -->
<g id="edge11" class="edge"><title>Node0x46608440&#45;&gt;Node0x4660b040</title>
<path fill="none" stroke="black" d="M211.19,-383.463C203.899,-378.344 197.365,-372.249 192,-365 186.471,-357.53 186.729,-349.068 189.982,-340.745"/>
<polygon fill="black" stroke="black" points="193.109,-342.317 194.554,-331.821 186.879,-339.124 193.109,-342.317"/>
<text text-anchor="middle" x="351.5" y="-353.8" font-family="Times,serif" font-size="14.00">(g39 != v12) and (((&#45;2 &#45; v12) + g39) &lt;= g39)</text>
</g>
<!-- Node0x4660b430 -->
<g id="node12" class="node"><title>Node0x4660b430</title>
<polygon fill="none" stroke="black" points="401.5,-278.5 401.5,-316.5 502.5,-316.5 502.5,-278.5 401.5,-278.5"/>
<text text-anchor="start" x="409.5" y="-301.3" font-family="Times,serif" font-size="14.00">0xa468160:</text>
<text text-anchor="start" x="409.5" y="-286.3" font-family="Times,serif" font-size="14.00"> v13 = v12</text>
</g>
<!-- Node0x46608440&#45;&gt;Node0x4660b430 -->
<g id="edge12" class="edge"><title>Node0x46608440&#45;&gt;Node0x4660b430</title>
<path fill="none" stroke="black" d="M478.491,-383.473C493.583,-378.235 505.462,-372.103 511,-365 522.418,-350.356 510.072,-334.789 493.777,-322.4"/>
<polygon fill="black" stroke="black" points="495.736,-319.498 485.548,-316.592 491.699,-325.218 495.736,-319.498"/>
<text text-anchor="middle" x="667" y="-353.8" font-family="Times,serif" font-size="14.00">(g39 == v12) or (((&#45;2 &#45; v12) + g39) &gt; g39)</text>
</g>
<!-- Node0x46608910 -->
<g id="node13" class="node"><title>Node0x46608910</title>
<polygon fill="none" stroke="black" points="154,-97.5 154,-225.5 300,-225.5 300,-97.5 154,-97.5"/>
<text text-anchor="start" x="162" y="-210.3" font-family="Times,serif" font-size="14.00">0xa4682f0:</text>
<text text-anchor="start" x="162" y="-195.3" font-family="Times,serif" font-size="14.00"> g38 = (v13 &#45; g39)</text>
<text text-anchor="start" x="162" y="-180.3" font-family="Times,serif" font-size="14.00"> v11 = g41</text>
<text text-anchor="start" x="162" y="-165.3" font-family="Times,serif" font-size="14.00"> g30 = v11</text>
<text text-anchor="start" x="162" y="-150.3" font-family="Times,serif" font-size="14.00"> g8 = False</text>
<text text-anchor="start" x="162" y="-135.3" font-family="Times,serif" font-size="14.00"> g7 = (v11 &lt; 0)</text>
<text text-anchor="start" x="162" y="-120.3" font-family="Times,serif" font-size="14.00"> g9 = (v11 == 0)</text>
<text text-anchor="start" x="162" y="-105.3" font-family="Times,serif" font-size="14.00"> g6 = False</text>
</g>
<!-- Node0x4660b040&#45;&gt;Node0x46608910 -->
<g id="edge13" class="edge"><title>Node0x4660b040&#45;&gt;Node0x46608910</title>
<path fill="none" stroke="black" d="M227,-263.376C227,-254.863 227,-245.36 227,-235.683"/>
<polygon fill="black" stroke="black" points="230.5,-235.57 227,-225.57 223.5,-235.57 230.5,-235.57"/>
</g>
<!-- Node0x4660b430&#45;&gt;Node0x46608910 -->
<g id="edge14" class="edge"><title>Node0x4660b430&#45;&gt;Node0x46608910</title>
<path fill="none" stroke="black" d="M421.655,-278.428C392.884,-261.293 348.349,-234.77 309.135,-211.416"/>
<polygon fill="black" stroke="black" points="310.72,-208.287 300.338,-206.177 307.139,-214.301 310.72,-208.287"/>
</g>
<!-- Node0x46608910&#45;&gt;Node0x310acd60 -->
<g id="edge15" class="edge"><title>Node0x46608910&#45;&gt;Node0x310acd60</title>
<path fill="none" stroke="black" d="M170.811,-97.3546C161.404,-86.7825 152.155,-76.3887 144.281,-67.5401"/>
<polygon fill="black" stroke="black" points="146.734,-65.0315 137.472,-59.8875 141.505,-69.6848 146.734,-65.0315"/>
</g>
</g>
</svg>
