<?xml version="1.0" encoding="UTF-8" standalone="no"?>
<!DOCTYPE svg PUBLIC "-//W3C//DTD SVG 1.1//EN"
 "http://www.w3.org/Graphics/SVG/1.1/DTD/svg11.dtd">
<!-- Generated by graphviz version 2.38.0 (20140413.2041)
 -->
<!-- Title: Control&#45;flow graph for function &#39;function_10088()&#39;. Pages: 1 -->
<svg width="386pt" height="441pt"
 viewBox="0.00 0.00 386.00 441.00" xmlns="http://www.w3.org/2000/svg" xmlns:xlink="http://www.w3.org/1999/xlink">
<g id="graph0" class="graph" transform="scale(1 1) rotate(0) translate(4 437)">
<title>Control&#45;flow graph for function &#39;function_10088()&#39;.</title>
<polygon fill="white" stroke="none" points="-4,4 -4,-437 382,-437 382,4 -4,4"/>
<text text-anchor="middle" x="189" y="-7.8" font-family="Times,serif" font-size="14.00">Control&#45;flow graph for function &#39;function_10088()&#39;.</text>
<!-- Node0x2f684cf0 -->
<g id="node1" class="node"><title>Node0x2f684cf0</title>
<polygon fill="none" stroke="black" points="159.5,-396.5 159.5,-432.5 218.5,-432.5 218.5,-396.5 159.5,-396.5"/>
<text text-anchor="start" x="167.5" y="-410.8" font-family="Times,serif" font-size="14.00">entry:</text>
</g>
<!-- Node0x2f6898d0 -->
<g id="node2" class="node"><title>Node0x2f6898d0</title>
<polygon fill="none" stroke="black" points="20,-96.5 20,-359.5 358,-359.5 358,-96.5 20,-96.5"/>
<text text-anchor="start" x="28" y="-344.3" font-family="Times,serif" font-size="14.00">0x352f0370:</text>
<text text-anchor="start" x="28" y="-329.3" font-family="Times,serif" font-size="14.00"> v1 = g38</text>
<text text-anchor="start" x="28" y="-314.3" font-family="Times,serif" font-size="14.00"> v2 = g29</text>
<text text-anchor="start" x="28" y="-299.3" font-family="Times,serif" font-size="14.00"> g38 = v2</text>
<text text-anchor="start" x="28" y="-284.3" font-family="Times,serif" font-size="14.00"> g29 = *(IntToPtrCastExpr&lt;ptr&gt;(v2))</text>
<text text-anchor="start" x="28" y="-269.3" font-family="Times,serif" font-size="14.00"> function_324c()</text>
<text text-anchor="start" x="28" y="-254.3" font-family="Times,serif" font-size="14.00"> v3 = g38</text>
<text text-anchor="start" x="28" y="-239.3" font-family="Times,serif" font-size="14.00"> g29 = v3</text>
<text text-anchor="start" x="28" y="-224.3" font-family="Times,serif" font-size="14.00"> g30 = *(IntToPtrCastExpr&lt;ptr&gt;((v3 + 20)))</text>
<text text-anchor="start" x="28" y="-209.3" font-family="Times,serif" font-size="14.00"> function_f2ac()</text>
<text text-anchor="start" x="28" y="-194.3" font-family="Times,serif" font-size="14.00"> v4 = g38</text>
<text text-anchor="start" x="28" y="-179.3" font-family="Times,serif" font-size="14.00"> g29 = v4</text>
<text text-anchor="start" x="28" y="-164.3" font-family="Times,serif" font-size="14.00"> g30 = v4</text>
<text text-anchor="start" x="28" y="-149.3" font-family="Times,serif" font-size="14.00"> g38 = v1</text>
<text text-anchor="start" x="28" y="-134.3" font-family="Times,serif" font-size="14.00"> v5</text>
<text text-anchor="start" x="28" y="-119.3" font-family="Times,serif" font-size="14.00"> g34 = v5</text>
<text text-anchor="start" x="28" y="-104.3" font-family="Times,serif" font-size="14.00"> function_f2ac()</text>
</g>
<!-- Node0x2f684cf0&#45;&gt;Node0x2f6898d0 -->
<g id="edge1" class="edge"><title>Node0x2f684cf0&#45;&gt;Node0x2f6898d0</title>
<path fill="none" stroke="black" d="M189,-396.473C189,-389.24 189,-380.097 189,-369.831"/>
<polygon fill="black" stroke="black" points="192.5,-369.67 189,-359.67 185.5,-369.67 192.5,-369.67"/>
</g>
<!-- Node0x2f686e30 -->
<g id="node3" class="node"><title>Node0x2f686e30</title>
<polygon fill="none" stroke="black" points="162,-23.5 162,-59.5 216,-59.5 216,-23.5 162,-23.5"/>
<text text-anchor="start" x="170" y="-37.8" font-family="Times,serif" font-size="14.00">exit:</text>
</g>
<!-- Node0x2f6898d0&#45;&gt;Node0x2f686e30 -->
<g id="edge2" class="edge"><title>Node0x2f6898d0&#45;&gt;Node0x2f686e30</title>
<path fill="none" stroke="black" d="M189,-96.361C189,-86.7102 189,-77.7416 189,-70.0001"/>
<polygon fill="black" stroke="black" points="192.5,-69.93 189,-59.93 185.5,-69.93 192.5,-69.93"/>
</g>
</g>
</svg>
