<?xml version="1.0" encoding="UTF-8" standalone="no"?>
<!DOCTYPE svg PUBLIC "-//W3C//DTD SVG 1.1//EN"
 "http://www.w3.org/Graphics/SVG/1.1/DTD/svg11.dtd">
<!-- Generated by graphviz version 2.38.0 (20140413.2041)
 -->
<!-- Title: Control&#45;flow graph for function &#39;function_34e4()&#39;. Pages: 1 -->
<svg width="538pt" height="414pt"
 viewBox="0.00 0.00 538.00 414.00" xmlns="http://www.w3.org/2000/svg" xmlns:xlink="http://www.w3.org/1999/xlink">
<g id="graph0" class="graph" transform="scale(1 1) rotate(0) translate(4 410)">
<title>Control&#45;flow graph for function &#39;function_34e4()&#39;.</title>
<polygon fill="white" stroke="none" points="-4,4 -4,-410 534,-410 534,4 -4,4"/>
<text text-anchor="middle" x="265" y="-7.8" font-family="Times,serif" font-size="14.00">Control&#45;flow graph for function &#39;function_34e4()&#39;.</text>
<!-- Node0x307aaaf0 -->
<g id="node1" class="node"><title>Node0x307aaaf0</title>
<polygon fill="none" stroke="black" points="235.5,-369.5 235.5,-405.5 294.5,-405.5 294.5,-369.5 235.5,-369.5"/>
<text text-anchor="start" x="243.5" y="-383.8" font-family="Times,serif" font-size="14.00">entry:</text>
</g>
<!-- Node0x2414f040 -->
<g id="node2" class="node"><title>Node0x2414f040</title>
<polygon fill="none" stroke="black" points="0,-263.5 0,-331.5 530,-331.5 530,-263.5 0,-263.5"/>
<text text-anchor="start" x="8" y="-316.3" font-family="Times,serif" font-size="14.00">0x1cada4e0:</text>
<text text-anchor="start" x="8" y="-301.3" font-family="Times,serif" font-size="14.00"> v1 = *(IntToPtrCastExpr&lt;ptr&gt;((*(IntToPtrCastExpr&lt;ptr&gt;(g29)) + 8)))</text>
<text text-anchor="start" x="8" y="-286.3" font-family="Times,serif" font-size="14.00"> g37 = v1</text>
<text text-anchor="start" x="8" y="-271.3" font-family="Times,serif" font-size="14.00"> g9 = (v1 == 6)</text>
</g>
<!-- Node0x307aaaf0&#45;&gt;Node0x2414f040 -->
<g id="edge1" class="edge"><title>Node0x307aaaf0&#45;&gt;Node0x2414f040</title>
<path fill="none" stroke="black" d="M265,-369.114C265,-361.158 265,-351.343 265,-341.588"/>
<polygon fill="black" stroke="black" points="268.5,-341.524 265,-331.524 261.5,-341.524 268.5,-341.524"/>
</g>
<!-- Node0x2414d3e0 -->
<g id="node3" class="node"><title>Node0x2414d3e0</title>
<polygon fill="none" stroke="black" points="213,-187.5 213,-225.5 317,-225.5 317,-187.5 213,-187.5"/>
<text text-anchor="start" x="221" y="-210.3" font-family="Times,serif" font-size="14.00">0x50163a0:</text>
<text text-anchor="start" x="221" y="-195.3" font-family="Times,serif" font-size="14.00"> if (v1 != 6):</text>
</g>
<!-- Node0x2414f040&#45;&gt;Node0x2414d3e0 -->
<g id="edge2" class="edge"><title>Node0x2414f040&#45;&gt;Node0x2414d3e0</title>
<path fill="none" stroke="black" d="M265,-263.36C265,-254.365 265,-244.707 265,-235.993"/>
<polygon fill="black" stroke="black" points="268.5,-235.941 265,-225.941 261.5,-235.941 268.5,-235.941"/>
</g>
<!-- Node0x307aab60 -->
<g id="node4" class="node"><title>Node0x307aab60</title>
<polygon fill="none" stroke="black" points="166.5,-97.5 166.5,-135.5 263.5,-135.5 263.5,-97.5 166.5,-97.5"/>
<text text-anchor="start" x="174.5" y="-120.3" font-family="Times,serif" font-size="14.00">0x5015cf0:</text>
<text text-anchor="start" x="174.5" y="-105.3" font-family="Times,serif" font-size="14.00"> g29 = 0</text>
</g>
<!-- Node0x2414d3e0&#45;&gt;Node0x307aab60 -->
<g id="edge3" class="edge"><title>Node0x2414d3e0&#45;&gt;Node0x307aab60</title>
<path fill="none" stroke="black" d="M245.902,-187.369C240.862,-181.841 235.781,-175.498 232,-169 227.805,-161.79 224.478,-153.403 221.92,-145.516"/>
<polygon fill="black" stroke="black" points="225.274,-144.519 219.084,-135.921 218.562,-146.503 225.274,-144.519"/>
<text text-anchor="middle" x="259" y="-157.8" font-family="Times,serif" font-size="14.00">v1 != 6</text>
</g>
<!-- Node0x307a7f60 -->
<g id="node5" class="node"><title>Node0x307a7f60</title>
<polygon fill="none" stroke="black" points="245,-23.5 245,-59.5 299,-59.5 299,-23.5 245,-23.5"/>
<text text-anchor="start" x="253" y="-37.8" font-family="Times,serif" font-size="14.00">exit:</text>
</g>
<!-- Node0x2414d3e0&#45;&gt;Node0x307a7f60 -->
<g id="edge4" class="edge"><title>Node0x2414d3e0&#45;&gt;Node0x307a7f60</title>
<path fill="none" stroke="black" d="M277.896,-187.38C281.202,-181.755 284.302,-175.357 286,-169 294.972,-135.416 287.629,-95.3345 280.636,-69.4255"/>
<polygon fill="black" stroke="black" points="283.932,-68.2236 277.808,-59.5777 277.204,-70.1552 283.932,-68.2236"/>
<text text-anchor="middle" x="321" y="-112.8" font-family="Times,serif" font-size="14.00">v1 == 6</text>
</g>
<!-- Node0x307aab60&#45;&gt;Node0x307a7f60 -->
<g id="edge5" class="edge"><title>Node0x307aab60&#45;&gt;Node0x307a7f60</title>
<path fill="none" stroke="black" d="M229.09,-97.4551C236.025,-88.5727 244.506,-77.7116 252.091,-67.9975"/>
<polygon fill="black" stroke="black" points="255.069,-69.8706 258.465,-59.8347 249.552,-65.5626 255.069,-69.8706"/>
</g>
</g>
</svg>
