<?xml version="1.0" encoding="UTF-8" standalone="no"?>
<!DOCTYPE svg PUBLIC "-//W3C//DTD SVG 1.1//EN"
 "http://www.w3.org/Graphics/SVG/1.1/DTD/svg11.dtd">
<!-- Generated by graphviz version 2.38.0 (20140413.2041)
 -->
<!-- Title: Control&#45;flow graph for function &#39;function_23b2a()&#39;. Pages: 1 -->
<svg width="385pt" height="411pt"
 viewBox="0.00 0.00 385.00 411.00" xmlns="http://www.w3.org/2000/svg" xmlns:xlink="http://www.w3.org/1999/xlink">
<g id="graph0" class="graph" transform="scale(1 1) rotate(0) translate(4 407)">
<title>Control&#45;flow graph for function &#39;function_23b2a()&#39;.</title>
<polygon fill="white" stroke="none" points="-4,4 -4,-407 381,-407 381,4 -4,4"/>
<text text-anchor="middle" x="188.5" y="-7.8" font-family="Times,serif" font-size="14.00">Control&#45;flow graph for function &#39;function_23b2a()&#39;.</text>
<!-- Node0x19b2bda0 -->
<g id="node1" class="node"><title>Node0x19b2bda0</title>
<polygon fill="none" stroke="black" points="159,-366.5 159,-402.5 218,-402.5 218,-366.5 159,-366.5"/>
<text text-anchor="start" x="167" y="-380.8" font-family="Times,serif" font-size="14.00">entry:</text>
</g>
<!-- Node0x310a5080 -->
<g id="node2" class="node"><title>Node0x310a5080</title>
<polygon fill="none" stroke="black" points="54.5,-96.5 54.5,-329.5 322.5,-329.5 322.5,-96.5 54.5,-96.5"/>
<text text-anchor="start" x="62.5" y="-314.3" font-family="Times,serif" font-size="14.00">0x1eb06550:</text>
<text text-anchor="start" x="62.5" y="-299.3" font-family="Times,serif" font-size="14.00"> v1 = g41</text>
<text text-anchor="start" x="62.5" y="-284.3" font-family="Times,serif" font-size="14.00"> v2 = (g39 / v1)</text>
<text text-anchor="start" x="62.5" y="-269.3" font-family="Times,serif" font-size="14.00"> g30 = v1</text>
<text text-anchor="start" x="62.5" y="-254.3" font-family="Times,serif" font-size="14.00"> g42 = v2</text>
<text text-anchor="start" x="62.5" y="-239.3" font-family="Times,serif" font-size="14.00"> g38 = (g32 * v2)</text>
<text text-anchor="start" x="62.5" y="-224.3" font-family="Times,serif" font-size="14.00"> unknown_228ca()</text>
<text text-anchor="start" x="62.5" y="-209.3" font-family="Times,serif" font-size="14.00"> v3 = g43</text>
<text text-anchor="start" x="62.5" y="-194.3" font-family="Times,serif" font-size="14.00"> g39 = v3</text>
<text text-anchor="start" x="62.5" y="-179.3" font-family="Times,serif" font-size="14.00"> v4 = (v3 / 65536)</text>
<text text-anchor="start" x="62.5" y="-164.3" font-family="Times,serif" font-size="14.00"> g37 = v4</text>
<text text-anchor="start" x="62.5" y="-149.3" font-family="Times,serif" font-size="14.00"> g29 = &#45;1</text>
<text text-anchor="start" x="62.5" y="-134.3" font-family="Times,serif" font-size="14.00"> g30 = (g40 + ((65536 * g30) | v4))</text>
<text text-anchor="start" x="62.5" y="-119.3" font-family="Times,serif" font-size="14.00"> g42 = (g42 &#45; 1)</text>
<text text-anchor="start" x="62.5" y="-104.3" font-family="Times,serif" font-size="14.00"> function_23e08()</text>
</g>
<!-- Node0x19b2bda0&#45;&gt;Node0x310a5080 -->
<g id="edge1" class="edge"><title>Node0x19b2bda0&#45;&gt;Node0x310a5080</title>
<path fill="none" stroke="black" d="M188.5,-366.315C188.5,-359.044 188.5,-349.89 188.5,-339.696"/>
<polygon fill="black" stroke="black" points="192,-339.631 188.5,-329.631 185,-339.631 192,-339.631"/>
</g>
<!-- Node0x19b2bac0 -->
<g id="node3" class="node"><title>Node0x19b2bac0</title>
<polygon fill="none" stroke="black" points="161.5,-23.5 161.5,-59.5 215.5,-59.5 215.5,-23.5 161.5,-23.5"/>
<text text-anchor="start" x="169.5" y="-37.8" font-family="Times,serif" font-size="14.00">exit:</text>
</g>
<!-- Node0x310a5080&#45;&gt;Node0x19b2bac0 -->
<g id="edge2" class="edge"><title>Node0x310a5080&#45;&gt;Node0x19b2bac0</title>
<path fill="none" stroke="black" d="M188.5,-96.1309C188.5,-86.4799 188.5,-77.4541 188.5,-69.6611"/>
<polygon fill="black" stroke="black" points="192,-69.5283 188.5,-59.5284 185,-69.5284 192,-69.5283"/>
</g>
</g>
</svg>
