<?xml version="1.0" encoding="UTF-8" standalone="no"?>
<!DOCTYPE svg PUBLIC "-//W3C//DTD SVG 1.1//EN"
 "http://www.w3.org/Graphics/SVG/1.1/DTD/svg11.dtd">
<!-- Generated by graphviz version 2.38.0 (20140413.2041)
 -->
<!-- Title: Control&#45;flow graph for function &#39;function_8ef0()&#39;. Pages: 1 -->
<svg width="779pt" height="957pt"
 viewBox="0.00 0.00 778.50 957.00" xmlns="http://www.w3.org/2000/svg" xmlns:xlink="http://www.w3.org/1999/xlink">
<g id="graph0" class="graph" transform="scale(1 1) rotate(0) translate(4 953)">
<title>Control&#45;flow graph for function &#39;function_8ef0()&#39;.</title>
<polygon fill="white" stroke="none" points="-4,4 -4,-953 774.5,-953 774.5,4 -4,4"/>
<text text-anchor="middle" x="385.25" y="-7.8" font-family="Times,serif" font-size="14.00">Control&#45;flow graph for function &#39;function_8ef0()&#39;.</text>
<!-- Node0x174406f0 -->
<g id="node1" class="node"><title>Node0x174406f0</title>
<polygon fill="none" stroke="black" points="246,-912.5 246,-948.5 305,-948.5 305,-912.5 246,-912.5"/>
<text text-anchor="start" x="254" y="-926.8" font-family="Times,serif" font-size="14.00">entry:</text>
</g>
<!-- Node0x30e5cc60 -->
<g id="node2" class="node"><title>Node0x30e5cc60</title>
<polygon fill="none" stroke="black" points="0,-806.5 0,-874.5 551,-874.5 551,-806.5 0,-806.5"/>
<text text-anchor="start" x="8" y="-859.3" font-family="Times,serif" font-size="14.00">0x139eec90:</text>
<text text-anchor="start" x="8" y="-844.3" font-family="Times,serif" font-size="14.00"> v1 = ExtCastExpr&lt;int32&gt;(*(IntToPtrCastExpr&lt;ptr&gt;((g29 + 12))))</text>
<text text-anchor="start" x="8" y="-829.3" font-family="Times,serif" font-size="14.00"> g33 = v1</text>
<text text-anchor="start" x="8" y="-814.3" font-family="Times,serif" font-size="14.00"> v2 = (ExtCastExpr&lt;int32&gt;(*(IntToPtrCastExpr&lt;ptr&gt;((g29 + 16)))) + v1)</text>
</g>
<!-- Node0x174406f0&#45;&gt;Node0x30e5cc60 -->
<g id="edge1" class="edge"><title>Node0x174406f0&#45;&gt;Node0x30e5cc60</title>
<path fill="none" stroke="black" d="M275.5,-912.114C275.5,-904.158 275.5,-894.343 275.5,-884.588"/>
<polygon fill="black" stroke="black" points="279,-884.524 275.5,-874.524 272,-884.524 279,-884.524"/>
</g>
<!-- Node0x30e5e640 -->
<g id="node3" class="node"><title>Node0x30e5e640</title>
<polygon fill="none" stroke="black" points="217.5,-730.5 217.5,-768.5 333.5,-768.5 333.5,-730.5 217.5,-730.5"/>
<text text-anchor="start" x="225.5" y="-753.3" font-family="Times,serif" font-size="14.00">0x6cbca00:</text>
<text text-anchor="start" x="225.5" y="-738.3" font-family="Times,serif" font-size="14.00"> if (g30 &lt; v2):</text>
</g>
<!-- Node0x30e5cc60&#45;&gt;Node0x30e5e640 -->
<g id="edge2" class="edge"><title>Node0x30e5cc60&#45;&gt;Node0x30e5e640</title>
<path fill="none" stroke="black" d="M275.5,-806.36C275.5,-797.365 275.5,-787.707 275.5,-778.993"/>
<polygon fill="black" stroke="black" points="279,-778.941 275.5,-768.941 272,-778.941 279,-778.941"/>
</g>
<!-- Node0x17443fc0 -->
<g id="node4" class="node"><title>Node0x17443fc0</title>
<polygon fill="none" stroke="black" points="127.5,-538.5 127.5,-591.5 227.5,-591.5 227.5,-538.5 127.5,-538.5"/>
<text text-anchor="start" x="135.5" y="-576.3" font-family="Times,serif" font-size="14.00">0x6cbc830:</text>
<text text-anchor="start" x="135.5" y="-561.3" font-family="Times,serif" font-size="14.00"> g29 = 0</text>
<text text-anchor="start" x="135.5" y="-546.3" font-family="Times,serif" font-size="14.00"> return</text>
</g>
<!-- Node0x30e5e640&#45;&gt;Node0x17443fc0 -->
<g id="edge3" class="edge"><title>Node0x30e5e640&#45;&gt;Node0x17443fc0</title>
<path fill="none" stroke="black" d="M246.497,-730.487C229.178,-718.158 208.317,-700.228 196.5,-679 183.411,-655.486 178.849,-625.268 177.458,-601.998"/>
<polygon fill="black" stroke="black" points="180.948,-601.685 177.023,-591.844 173.955,-601.985 180.948,-601.685"/>
<text text-anchor="middle" x="255.5" y="-700.8" font-family="Times,serif" font-size="14.00">g30 &lt; v2</text>
</g>
<!-- Node0x30e5f560 -->
<g id="node5" class="node"><title>Node0x30e5f560</title>
<polygon fill="none" stroke="black" points="206,-610.5 206,-678.5 757,-678.5 757,-610.5 206,-610.5"/>
<text text-anchor="start" x="214" y="-663.3" font-family="Times,serif" font-size="14.00">0x128ef1a0:</text>
<text text-anchor="start" x="214" y="-648.3" font-family="Times,serif" font-size="14.00"> v3 = (ExtCastExpr&lt;int32&gt;(*(IntToPtrCastExpr&lt;ptr&gt;((g29 + 18)))) + v2)</text>
<text text-anchor="start" x="214" y="-633.3" font-family="Times,serif" font-size="14.00"> g6 = (g30 &gt;= v3)</text>
<text text-anchor="start" x="214" y="-618.3" font-family="Times,serif" font-size="14.00"> g8 = ((((g30 &#45; v3) ^ g30) &amp; (v3 ^ g30)) &lt; 0)</text>
</g>
<!-- Node0x30e5e640&#45;&gt;Node0x30e5f560 -->
<g id="edge4" class="edge"><title>Node0x30e5e640&#45;&gt;Node0x30e5f560</title>
<path fill="none" stroke="black" d="M311.854,-730.323C337.932,-717.284 373.999,-699.251 406.174,-683.163"/>
<polygon fill="black" stroke="black" points="407.755,-686.286 415.134,-678.683 404.625,-680.025 407.755,-686.286"/>
<text text-anchor="middle" x="417.5" y="-700.8" font-family="Times,serif" font-size="14.00">g30 &gt;= v2</text>
</g>
<!-- Node0x17442780 -->
<g id="node6" class="node"><title>Node0x17442780</title>
<polygon fill="none" stroke="black" points="238.5,-23.5 238.5,-59.5 292.5,-59.5 292.5,-23.5 238.5,-23.5"/>
<text text-anchor="start" x="246.5" y="-37.8" font-family="Times,serif" font-size="14.00">exit:</text>
</g>
<!-- Node0x17443fc0&#45;&gt;Node0x17442780 -->
<g id="edge5" class="edge"><title>Node0x17443fc0&#45;&gt;Node0x17442780</title>
<path fill="none" stroke="black" d="M177.5,-538.37C177.5,-516.59 177.5,-484.495 177.5,-456.5 177.5,-456.5 177.5,-456.5 177.5,-115.5 177.5,-87.2863 204.626,-67.8989 228.758,-56.234"/>
<polygon fill="black" stroke="black" points="230.467,-59.3021 238.139,-51.9943 227.585,-52.9233 230.467,-59.3021"/>
</g>
<!-- Node0x174409d0 -->
<g id="node7" class="node"><title>Node0x174409d0</title>
<polygon fill="none" stroke="black" points="417.5,-481.5 417.5,-519.5 545.5,-519.5 545.5,-481.5 417.5,-481.5"/>
<text text-anchor="start" x="425.5" y="-504.3" font-family="Times,serif" font-size="14.00">0x6cbde80:</text>
<text text-anchor="start" x="425.5" y="-489.3" font-family="Times,serif" font-size="14.00"> if (g30 &gt;= v3):</text>
</g>
<!-- Node0x30e5f560&#45;&gt;Node0x174409d0 -->
<g id="edge6" class="edge"><title>Node0x30e5f560&#45;&gt;Node0x174409d0</title>
<path fill="none" stroke="black" d="M481.5,-610.207C481.5,-585.863 481.5,-553.188 481.5,-530.036"/>
<polygon fill="black" stroke="black" points="485,-529.823 481.5,-519.823 478,-529.823 485,-529.823"/>
</g>
<!-- Node0x121fcc60 -->
<g id="node8" class="node"><title>Node0x121fcc60</title>
<polygon fill="none" stroke="black" points="192.5,-244.5 192.5,-297.5 292.5,-297.5 292.5,-244.5 192.5,-244.5"/>
<text text-anchor="start" x="200.5" y="-282.3" font-family="Times,serif" font-size="14.00">0x6cbe080:</text>
<text text-anchor="start" x="200.5" y="-267.3" font-family="Times,serif" font-size="14.00"> g29 = 0</text>
<text text-anchor="start" x="200.5" y="-252.3" font-family="Times,serif" font-size="14.00"> return</text>
</g>
<!-- Node0x174409d0&#45;&gt;Node0x121fcc60 -->
<g id="edge7" class="edge"><title>Node0x174409d0&#45;&gt;Node0x121fcc60</title>
<path fill="none" stroke="black" d="M417.35,-489.052C355.514,-477.54 268.332,-457.016 247.5,-430 220.731,-395.285 225.421,-342.378 232.733,-307.497"/>
<polygon fill="black" stroke="black" points="236.15,-308.256 234.948,-297.729 229.323,-306.708 236.15,-308.256"/>
<text text-anchor="middle" x="347.5" y="-451.8" font-family="Times,serif" font-size="14.00">g30 &gt;= v3</text>
</g>
<!-- Node0x17442890 -->
<g id="node9" class="node"><title>Node0x17442890</title>
<polygon fill="none" stroke="black" points="256.5,-316.5 256.5,-429.5 770.5,-429.5 770.5,-316.5 256.5,-316.5"/>
<text text-anchor="start" x="264.5" y="-414.3" font-family="Times,serif" font-size="14.00">0x119ad490:</text>
<text text-anchor="start" x="264.5" y="-399.3" font-family="Times,serif" font-size="14.00"> v4 = *(IntToPtrCastExpr&lt;ptr&gt;((g29 + 8)))</text>
<text text-anchor="start" x="264.5" y="-384.3" font-family="Times,serif" font-size="14.00"> g36 = v4</text>
<text text-anchor="start" x="264.5" y="-369.3" font-family="Times,serif" font-size="14.00"> v5 = (*(IntToPtrCastExpr&lt;ptr&gt;(((v4 + (256 * (g30 &#45; v1))) + 8))) &amp; 4)</text>
<text text-anchor="start" x="264.5" y="-354.3" font-family="Times,serif" font-size="14.00"> g7 = False</text>
<text text-anchor="start" x="264.5" y="-339.3" font-family="Times,serif" font-size="14.00"> g9 = (v5 == 0)</text>
<text text-anchor="start" x="264.5" y="-324.3" font-family="Times,serif" font-size="14.00"> g37 = v5</text>
</g>
<!-- Node0x174409d0&#45;&gt;Node0x17442890 -->
<g id="edge8" class="edge"><title>Node0x174409d0&#45;&gt;Node0x17442890</title>
<path fill="none" stroke="black" d="M486.153,-481.251C489.011,-470.042 492.865,-454.93 496.776,-439.59"/>
<polygon fill="black" stroke="black" points="500.265,-440.071 499.344,-429.516 493.482,-438.342 500.265,-440.071"/>
<text text-anchor="middle" x="526.5" y="-451.8" font-family="Times,serif" font-size="14.00">g30 &lt; v3</text>
</g>
<!-- Node0x121fcc60&#45;&gt;Node0x17442780 -->
<g id="edge9" class="edge"><title>Node0x121fcc60&#45;&gt;Node0x17442780</title>
<path fill="none" stroke="black" d="M245.094,-244.345C249.468,-201.082 258.27,-114.01 262.748,-69.7171"/>
<polygon fill="black" stroke="black" points="266.239,-69.9832 263.763,-59.6818 259.275,-69.279 266.239,-69.9832"/>
</g>
<!-- Node0x21fd00a0 -->
<g id="node10" class="node"><title>Node0x21fd00a0</title>
<polygon fill="none" stroke="black" points="352.5,-187.5 352.5,-225.5 462.5,-225.5 462.5,-187.5 352.5,-187.5"/>
<text text-anchor="start" x="360.5" y="-210.3" font-family="Times,serif" font-size="14.00">0x6cbfc30:</text>
<text text-anchor="start" x="360.5" y="-195.3" font-family="Times,serif" font-size="14.00"> if (v5 == 0):</text>
</g>
<!-- Node0x17442890&#45;&gt;Node0x21fd00a0 -->
<g id="edge10" class="edge"><title>Node0x17442890&#45;&gt;Node0x21fd00a0</title>
<path fill="none" stroke="black" d="M477.613,-316.308C459.771,-288.618 439.03,-256.43 424.76,-234.286"/>
<polygon fill="black" stroke="black" points="427.614,-232.253 419.255,-225.743 421.73,-236.045 427.614,-232.253"/>
</g>
<!-- Node0x21fd00a0&#45;&gt;Node0x17442780 -->
<g id="edge12" class="edge"><title>Node0x21fd00a0&#45;&gt;Node0x17442780</title>
<path fill="none" stroke="black" d="M365.401,-187.492C342.493,-175.794 315.282,-158.513 297.5,-136 282.266,-116.713 274.061,-89.733 269.789,-69.7095"/>
<polygon fill="black" stroke="black" points="273.183,-68.8265 267.848,-59.6726 266.31,-70.1551 273.183,-68.8265"/>
<text text-anchor="middle" x="324.5" y="-112.8" font-family="Times,serif" font-size="14.00">v5 != 0</text>
</g>
<!-- Node0x121fd260 -->
<g id="node11" class="node"><title>Node0x121fd260</title>
<polygon fill="none" stroke="black" points="361,-97.5 361,-135.5 454,-135.5 454,-97.5 361,-97.5"/>
<text text-anchor="start" x="369" y="-120.3" font-family="Times,serif" font-size="14.00">0x6cbff20:</text>
<text text-anchor="start" x="369" y="-105.3" font-family="Times,serif" font-size="14.00"> g29 = 0</text>
</g>
<!-- Node0x21fd00a0&#45;&gt;Node0x121fd260 -->
<g id="edge11" class="edge"><title>Node0x21fd00a0&#45;&gt;Node0x121fd260</title>
<path fill="none" stroke="black" d="M407.5,-187.266C407.5,-175.349 407.5,-159.538 407.5,-145.982"/>
<polygon fill="black" stroke="black" points="411,-145.71 407.5,-135.71 404,-145.71 411,-145.71"/>
<text text-anchor="middle" x="437.5" y="-157.8" font-family="Times,serif" font-size="14.00">v5 == 0</text>
</g>
<!-- Node0x121fd260&#45;&gt;Node0x17442780 -->
<g id="edge13" class="edge"><title>Node0x121fd260&#45;&gt;Node0x17442780</title>
<path fill="none" stroke="black" d="M372.399,-97.4551C350.84,-86.3719 323.288,-72.208 301.556,-61.0356"/>
<polygon fill="black" stroke="black" points="303.126,-57.9077 292.632,-56.4483 299.926,-64.1332 303.126,-57.9077"/>
</g>
</g>
</svg>
