<?xml version="1.0" encoding="UTF-8" standalone="no"?>
<!DOCTYPE svg PUBLIC "-//W3C//DTD SVG 1.1//EN"
 "http://www.w3.org/Graphics/SVG/1.1/DTD/svg11.dtd">
<!-- Generated by graphviz version 2.38.0 (20140413.2041)
 -->
<!-- Title: Control&#45;flow graph for function &#39;function_b9e8()&#39;. Pages: 1 -->
<svg width="1338pt" height="2279pt"
 viewBox="0.00 0.00 1337.50 2279.00" xmlns="http://www.w3.org/2000/svg" xmlns:xlink="http://www.w3.org/1999/xlink">
<g id="graph0" class="graph" transform="scale(1 1) rotate(0) translate(4 2275)">
<title>Control&#45;flow graph for function &#39;function_b9e8()&#39;.</title>
<polygon fill="white" stroke="none" points="-4,4 -4,-2275 1333.5,-2275 1333.5,4 -4,4"/>
<text text-anchor="middle" x="664.75" y="-7.8" font-family="Times,serif" font-size="14.00">Control&#45;flow graph for function &#39;function_b9e8()&#39;.</text>
<!-- Node0x47230170 -->
<g id="node1" class="node"><title>Node0x47230170</title>
<polygon fill="none" stroke="black" points="294.5,-2234.5 294.5,-2270.5 353.5,-2270.5 353.5,-2234.5 294.5,-2234.5"/>
<text text-anchor="start" x="302.5" y="-2248.8" font-family="Times,serif" font-size="14.00">entry:</text>
</g>
<!-- Node0x47230c70 -->
<g id="node2" class="node"><title>Node0x47230c70</title>
<polygon fill="none" stroke="black" points="78,-1933.5 78,-2196.5 570,-2196.5 570,-1933.5 78,-1933.5"/>
<text text-anchor="start" x="86" y="-2181.3" font-family="Times,serif" font-size="14.00">0x44b37170:</text>
<text text-anchor="start" x="86" y="-2166.3" font-family="Times,serif" font-size="14.00"> v1 = NULL</text>
<text text-anchor="start" x="86" y="-2151.3" font-family="Times,serif" font-size="14.00"> v2 = g38</text>
<text text-anchor="start" x="86" y="-2136.3" font-family="Times,serif" font-size="14.00"> v3 = g35</text>
<text text-anchor="start" x="86" y="-2121.3" font-family="Times,serif" font-size="14.00"> v4 = g29</text>
<text text-anchor="start" x="86" y="-2106.3" font-family="Times,serif" font-size="14.00"> g38 = v4</text>
<text text-anchor="start" x="86" y="-2091.3" font-family="Times,serif" font-size="14.00"> g33 = 0</text>
<text text-anchor="start" x="86" y="-2076.3" font-family="Times,serif" font-size="14.00"> v5 = ExtCastExpr&lt;int32&gt;(*(IntToPtrCastExpr&lt;ptr&gt;((v4 + 29))))</text>
<text text-anchor="start" x="86" y="-2061.3" font-family="Times,serif" font-size="14.00"> v6 = ExtCastExpr&lt;int32&gt;(*(IntToPtrCastExpr&lt;ptr&gt;((v4 + 28))))</text>
<text text-anchor="start" x="86" y="-2046.3" font-family="Times,serif" font-size="14.00"> v7 = ExtCastExpr&lt;int32&gt;(*(IntToPtrCastExpr&lt;ptr&gt;((v4 + 31))))</text>
<text text-anchor="start" x="86" y="-2031.3" font-family="Times,serif" font-size="14.00"> v8 = ExtCastExpr&lt;int32&gt;(*(IntToPtrCastExpr&lt;ptr&gt;((v4 + 30))))</text>
<text text-anchor="start" x="86" y="-2016.3" font-family="Times,serif" font-size="14.00"> v1[0] = ((((16777216 * v6) | (65536 * v5)) | v7) | (256 * v8))</text>
<text text-anchor="start" x="86" y="-2001.3" font-family="Times,serif" font-size="14.00"> v9 = (g33 + 4)</text>
<text text-anchor="start" x="86" y="-1986.3" font-family="Times,serif" font-size="14.00"> g33 = v9</text>
<text text-anchor="start" x="86" y="-1971.3" font-family="Times,serif" font-size="14.00"> v10 = (g29 + 4)</text>
<text text-anchor="start" x="86" y="-1956.3" font-family="Times,serif" font-size="14.00"> g29 = v10</text>
<text text-anchor="start" x="86" y="-1941.3" font-family="Times,serif" font-size="14.00"> v11 = v10</text>
</g>
<!-- Node0x47230170&#45;&gt;Node0x47230c70 -->
<g id="edge1" class="edge"><title>Node0x47230170&#45;&gt;Node0x47230c70</title>
<path fill="none" stroke="black" d="M324,-2234.38C324,-2226.9 324,-2217.38 324,-2206.69"/>
<polygon fill="black" stroke="black" points="327.5,-2206.57 324,-2196.57 320.5,-2206.57 327.5,-2206.57"/>
</g>
<!-- Node0x3af14e90 -->
<g id="node3" class="node"><title>Node0x3af14e90</title>
<polygon fill="none" stroke="black" points="253.5,-1857.5 253.5,-1895.5 394.5,-1895.5 394.5,-1857.5 253.5,-1857.5"/>
<text text-anchor="start" x="261.5" y="-1880.3" font-family="Times,serif" font-size="14.00">0x7375df0:</text>
<text text-anchor="start" x="261.5" y="-1865.3" font-family="Times,serif" font-size="14.00"> while (v9 != 64):</text>
</g>
<!-- Node0x47230c70&#45;&gt;Node0x3af14e90 -->
<g id="edge2" class="edge"><title>Node0x47230c70&#45;&gt;Node0x3af14e90</title>
<path fill="none" stroke="black" d="M324,-1933.46C324,-1923.36 324,-1913.95 324,-1905.85"/>
<polygon fill="black" stroke="black" points="327.5,-1905.66 324,-1895.66 320.5,-1905.66 327.5,-1905.66"/>
</g>
<!-- Node0x47231de0 -->
<g id="node4" class="node"><title>Node0x47231de0</title>
<polygon fill="none" stroke="black" points="0,-1617.5 0,-1805.5 492,-1805.5 492,-1617.5 0,-1617.5"/>
<text text-anchor="start" x="8" y="-1790.3" font-family="Times,serif" font-size="14.00">0x1bf3c760:</text>
<text text-anchor="start" x="8" y="-1775.3" font-family="Times,serif" font-size="14.00"> v4 = v10</text>
<text text-anchor="start" x="8" y="-1760.3" font-family="Times,serif" font-size="14.00"> v5 = ExtCastExpr&lt;int32&gt;(*(IntToPtrCastExpr&lt;ptr&gt;((v4 + 29))))</text>
<text text-anchor="start" x="8" y="-1745.3" font-family="Times,serif" font-size="14.00"> v6 = ExtCastExpr&lt;int32&gt;(*(IntToPtrCastExpr&lt;ptr&gt;((v4 + 28))))</text>
<text text-anchor="start" x="8" y="-1730.3" font-family="Times,serif" font-size="14.00"> v7 = ExtCastExpr&lt;int32&gt;(*(IntToPtrCastExpr&lt;ptr&gt;((v4 + 31))))</text>
<text text-anchor="start" x="8" y="-1715.3" font-family="Times,serif" font-size="14.00"> v8 = ExtCastExpr&lt;int32&gt;(*(IntToPtrCastExpr&lt;ptr&gt;((v4 + 30))))</text>
<text text-anchor="start" x="8" y="-1700.3" font-family="Times,serif" font-size="14.00"> v1[v9] = ((((16777216 * v6) | (65536 * v5)) | v7) | (256 * v8))</text>
<text text-anchor="start" x="8" y="-1685.3" font-family="Times,serif" font-size="14.00"> v9 = (g33 + 4)</text>
<text text-anchor="start" x="8" y="-1670.3" font-family="Times,serif" font-size="14.00"> g33 = v9</text>
<text text-anchor="start" x="8" y="-1655.3" font-family="Times,serif" font-size="14.00"> v10 = (g29 + 4)</text>
<text text-anchor="start" x="8" y="-1640.3" font-family="Times,serif" font-size="14.00"> g29 = v10</text>
<text text-anchor="start" x="8" y="-1625.3" font-family="Times,serif" font-size="14.00"> v11 = v10</text>
</g>
<!-- Node0x3af14e90&#45;&gt;Node0x47231de0 -->
<g id="edge3" class="edge"><title>Node0x3af14e90&#45;&gt;Node0x47231de0</title>
<path fill="none" stroke="black" d="M266.483,-1857.47C258.768,-1852.66 251.855,-1846.61 247,-1839 242.414,-1831.81 239.196,-1823.9 237.036,-1815.64"/>
<polygon fill="black" stroke="black" points="240.452,-1814.88 234.968,-1805.82 233.602,-1816.32 240.452,-1814.88"/>
<text text-anchor="middle" x="278.5" y="-1827.8" font-family="Times,serif" font-size="14.00">v9 != 64</text>
</g>
<!-- Node0x4722f650 -->
<g id="node5" class="node"><title>Node0x4722f650</title>
<polygon fill="none" stroke="black" points="510,-1655 510,-1768 950,-1768 950,-1655 510,-1655"/>
<text text-anchor="start" x="518" y="-1752.8" font-family="Times,serif" font-size="14.00">0x1d726da0:</text>
<text text-anchor="start" x="518" y="-1737.8" font-family="Times,serif" font-size="14.00"> v12 = *(v1)</text>
<text text-anchor="start" x="518" y="-1722.8" font-family="Times,serif" font-size="14.00"> v13</text>
<text text-anchor="start" x="518" y="-1707.8" font-family="Times,serif" font-size="14.00"> v14</text>
<text text-anchor="start" x="518" y="-1692.8" font-family="Times,serif" font-size="14.00"> v15</text>
<text text-anchor="start" x="518" y="-1677.8" font-family="Times,serif" font-size="14.00"> v16 = (((v13[v11] ^ v14) ^ v15) ^ v12)</text>
<text text-anchor="start" x="518" y="-1662.8" font-family="Times,serif" font-size="14.00"> NULL[v11] = (ExtCastExpr&lt;int32&gt;((v16 &lt; 0)) | (2 * v16))</text>
</g>
<!-- Node0x3af14e90&#45;&gt;Node0x4722f650 -->
<g id="edge4" class="edge"><title>Node0x3af14e90&#45;&gt;Node0x4722f650</title>
<path fill="none" stroke="black" d="M370.651,-1857.38C406.381,-1843.45 456.868,-1823.67 501,-1806 528.31,-1795.06 557.403,-1783.28 585.368,-1771.9"/>
<polygon fill="black" stroke="black" points="586.864,-1775.07 594.804,-1768.05 584.223,-1768.58 586.864,-1775.07"/>
<text text-anchor="middle" x="486.5" y="-1827.8" font-family="Times,serif" font-size="14.00">v9 == 64</text>
</g>
<!-- Node0x47231de0&#45;&gt;Node0x3af14e90 -->
<g id="edge5" class="edge"><title>Node0x47231de0&#45;&gt;Node0x3af14e90</title>
<path fill="none" stroke="black" d="M301.721,-1805.62C304.685,-1811.76 307.477,-1817.92 310,-1824 313.111,-1831.5 315.732,-1839.9 317.834,-1847.7"/>
<polygon fill="black" stroke="black" points="314.463,-1848.64 320.297,-1857.49 321.252,-1846.94 314.463,-1848.64"/>
</g>
<!-- Node0x2231fa90 -->
<g id="node6" class="node"><title>Node0x2231fa90</title>
<polygon fill="none" stroke="black" points="650,-1541.5 650,-1579.5 810,-1579.5 810,-1541.5 650,-1541.5"/>
<text text-anchor="start" x="658" y="-1564.3" font-family="Times,serif" font-size="14.00">0x7375c40:</text>
<text text-anchor="start" x="658" y="-1549.3" font-family="Times,serif" font-size="14.00"> while (g29 != g33):</text>
</g>
<!-- Node0x4722f650&#45;&gt;Node0x2231fa90 -->
<g id="edge6" class="edge"><title>Node0x4722f650&#45;&gt;Node0x2231fa90</title>
<path fill="none" stroke="black" d="M730,-1654.59C730,-1632.61 730,-1608.31 730,-1590.06"/>
<polygon fill="black" stroke="black" points="733.5,-1589.81 730,-1579.81 726.5,-1589.81 733.5,-1589.81"/>
</g>
<!-- Node0x2231fe90 -->
<g id="node7" class="node"><title>Node0x2231fe90</title>
<polygon fill="none" stroke="black" points="413,-1354 413,-1437 853,-1437 853,-1354 413,-1354"/>
<text text-anchor="start" x="421" y="-1421.8" font-family="Times,serif" font-size="14.00">0x179814f0:</text>
<text text-anchor="start" x="421" y="-1406.8" font-family="Times,serif" font-size="14.00"> v11 = g29</text>
<text text-anchor="start" x="421" y="-1391.8" font-family="Times,serif" font-size="14.00"> v12 = *(v1)</text>
<text text-anchor="start" x="421" y="-1376.8" font-family="Times,serif" font-size="14.00"> v16 = (((v13[v11] ^ v14) ^ v15) ^ v12)</text>
<text text-anchor="start" x="421" y="-1361.8" font-family="Times,serif" font-size="14.00"> NULL[v11] = (ExtCastExpr&lt;int32&gt;((v16 &lt; 0)) | (2 * v16))</text>
</g>
<!-- Node0x2231fa90&#45;&gt;Node0x2231fe90 -->
<g id="edge7" class="edge"><title>Node0x2231fa90&#45;&gt;Node0x2231fe90</title>
<path fill="none" stroke="black" d="M654.359,-1541.41C646.398,-1536.64 639.294,-1530.61 634,-1523 618.901,-1501.29 617.784,-1472.02 620.837,-1447.1"/>
<polygon fill="black" stroke="black" points="624.318,-1447.48 622.311,-1437.08 617.393,-1446.46 624.318,-1447.48"/>
<text text-anchor="middle" x="675" y="-1511.8" font-family="Times,serif" font-size="14.00">g29 != g33</text>
</g>
<!-- Node0x22321140 -->
<g id="node8" class="node"><title>Node0x22321140</title>
<polygon fill="none" stroke="black" points="871,-1301.5 871,-1489.5 1199,-1489.5 1199,-1301.5 871,-1301.5"/>
<text text-anchor="start" x="879" y="-1474.3" font-family="Times,serif" font-size="14.00">0x1e83caa0:</text>
<text text-anchor="start" x="879" y="-1459.3" font-family="Times,serif" font-size="14.00"> v17 = g38</text>
<text text-anchor="start" x="879" y="-1444.3" font-family="Times,serif" font-size="14.00"> v18 = IntToPtrCastExpr&lt;ptr&gt;((v17 + 4))</text>
<text text-anchor="start" x="879" y="-1429.3" font-family="Times,serif" font-size="14.00"> v19 = IntToPtrCastExpr&lt;ptr&gt;((v17 + 8))</text>
<text text-anchor="start" x="879" y="-1414.3" font-family="Times,serif" font-size="14.00"> v20 = IntToPtrCastExpr&lt;ptr&gt;((v17 + 12))</text>
<text text-anchor="start" x="879" y="-1399.3" font-family="Times,serif" font-size="14.00"> v21 = IntToPtrCastExpr&lt;ptr&gt;((v17 + 16))</text>
<text text-anchor="start" x="879" y="-1384.3" font-family="Times,serif" font-size="14.00"> v22 = *(v18)</text>
<text text-anchor="start" x="879" y="-1369.3" font-family="Times,serif" font-size="14.00"> v23 = *(IntToPtrCastExpr&lt;ptr&gt;(v17))</text>
<text text-anchor="start" x="879" y="-1354.3" font-family="Times,serif" font-size="14.00"> v24 = *(v21)</text>
<text text-anchor="start" x="879" y="-1339.3" font-family="Times,serif" font-size="14.00"> v25 = *(v20)</text>
<text text-anchor="start" x="879" y="-1324.3" font-family="Times,serif" font-size="14.00"> v26 = *(v19)</text>
<text text-anchor="start" x="879" y="-1309.3" font-family="Times,serif" font-size="14.00"> v27 = 0</text>
</g>
<!-- Node0x2231fa90&#45;&gt;Node0x22321140 -->
<g id="edge8" class="edge"><title>Node0x2231fa90&#45;&gt;Node0x22321140</title>
<path fill="none" stroke="black" d="M764.517,-1541.46C789.202,-1528.52 823.431,-1510.53 861.444,-1490.29"/>
<polygon fill="black" stroke="black" points="863.479,-1493.17 870.657,-1485.38 860.186,-1486.99 863.479,-1493.17"/>
<text text-anchor="middle" x="869" y="-1511.8" font-family="Times,serif" font-size="14.00">g29 == g33</text>
</g>
<!-- Node0x2231fe90&#45;&gt;Node0x2231fa90 -->
<g id="edge9" class="edge"><title>Node0x2231fe90&#45;&gt;Node0x2231fa90</title>
<path fill="none" stroke="black" d="M669.124,-1437.22C685.41,-1457.35 703.704,-1482.72 716,-1508 719.55,-1515.3 722.31,-1523.63 724.405,-1531.44"/>
<polygon fill="black" stroke="black" points="721.03,-1532.37 726.786,-1541.27 727.833,-1530.73 721.03,-1532.37"/>
</g>
<!-- Node0x47231cd0 -->
<g id="node9" class="node"><title>Node0x47231cd0</title>
<polygon fill="none" stroke="black" points="984.5,-1225.5 984.5,-1263.5 1085.5,-1263.5 1085.5,-1225.5 984.5,-1225.5"/>
<text text-anchor="start" x="992.5" y="-1248.3" font-family="Times,serif" font-size="14.00">0x73759e0:</text>
<text text-anchor="start" x="992.5" y="-1233.3" font-family="Times,serif" font-size="14.00"> while True:</text>
</g>
<!-- Node0x22321140&#45;&gt;Node0x47231cd0 -->
<g id="edge10" class="edge"><title>Node0x22321140&#45;&gt;Node0x47231cd0</title>
<path fill="none" stroke="black" d="M1035,-1301.41C1035,-1291.43 1035,-1281.92 1035,-1273.67"/>
<polygon fill="black" stroke="black" points="1038.5,-1273.62 1035,-1263.62 1031.5,-1273.62 1038.5,-1273.62"/>
</g>
<!-- Node0x47232830 -->
<g id="node10" class="node"><title>Node0x47232830</title>
<polygon fill="none" stroke="black" points="320,-1090.5 320,-1173.5 1114,-1173.5 1114,-1090.5 320,-1090.5"/>
<text text-anchor="start" x="328" y="-1158.3" font-family="Times,serif" font-size="14.00">0x121f19e0:</text>
<text text-anchor="start" x="328" y="-1143.3" font-family="Times,serif" font-size="14.00"> v28 = v1[v27]</text>
<text text-anchor="start" x="328" y="-1128.3" font-family="Times,serif" font-size="14.00"> v29 = (v27 + 4)</text>
<text text-anchor="start" x="328" y="-1113.3" font-family="Times,serif" font-size="14.00"> v30 = ((((v24 + 1518500249) + v28) + (((&#45;1 &#45; v22) &amp; v25) | (v22 &amp; v26))) + ((v23 / 134217728) | (32 * v23)))</text>
<text text-anchor="start" x="328" y="-1098.3" font-family="Times,serif" font-size="14.00"> v31 = ((v22 / 4) | (1073741824 * v22))</text>
</g>
<!-- Node0x47231cd0&#45;&gt;Node0x47232830 -->
<g id="edge11" class="edge"><title>Node0x47231cd0&#45;&gt;Node0x47232830</title>
<path fill="none" stroke="black" d="M984.26,-1225.87C946.289,-1212.67 892.63,-1194.03 843.346,-1176.9"/>
<polygon fill="black" stroke="black" points="844.471,-1173.59 833.877,-1173.61 842.174,-1180.2 844.471,-1173.59"/>
<text text-anchor="middle" x="940" y="-1195.8" font-family="Times,serif" font-size="14.00">True</text>
</g>
<!-- Node0x47232a70 -->
<g id="node11" class="node"><title>Node0x47232a70</title>
<polygon fill="none" stroke="black" points="823,-999.5 823,-1052.5 951,-1052.5 951,-999.5 823,-999.5"/>
<text text-anchor="start" x="831" y="-1037.3" font-family="Times,serif" font-size="14.00">0x7374a00:</text>
<text text-anchor="start" x="831" y="-1022.3" font-family="Times,serif" font-size="14.00"> if (v29 == 80):</text>
<text text-anchor="start" x="831" y="-1007.3" font-family="Times,serif" font-size="14.00"> else:</text>
</g>
<!-- Node0x47232830&#45;&gt;Node0x47232a70 -->
<g id="edge12" class="edge"><title>Node0x47232830&#45;&gt;Node0x47232a70</title>
<path fill="none" stroke="black" d="M783.213,-1090.49C800.997,-1079.61 819.935,-1068.03 836.699,-1057.77"/>
<polygon fill="black" stroke="black" points="838.546,-1060.75 845.25,-1052.54 834.893,-1054.77 838.546,-1060.75"/>
</g>
<!-- Node0x47232c10 -->
<g id="node12" class="node"><title>Node0x47232c10</title>
<polygon fill="none" stroke="black" points="821.5,-819.5 821.5,-947.5 952.5,-947.5 952.5,-819.5 821.5,-819.5"/>
<text text-anchor="start" x="829.5" y="-932.3" font-family="Times,serif" font-size="14.00">0x19db28e0:</text>
<text text-anchor="start" x="829.5" y="-917.3" font-family="Times,serif" font-size="14.00"> v32 = g43</text>
<text text-anchor="start" x="829.5" y="-902.3" font-family="Times,serif" font-size="14.00"> v33 = v23</text>
<text text-anchor="start" x="829.5" y="-887.3" font-family="Times,serif" font-size="14.00"> v34 = v30</text>
<text text-anchor="start" x="829.5" y="-872.3" font-family="Times,serif" font-size="14.00"> v35 = v25</text>
<text text-anchor="start" x="829.5" y="-857.3" font-family="Times,serif" font-size="14.00"> v36 = v26</text>
<text text-anchor="start" x="829.5" y="-842.3" font-family="Times,serif" font-size="14.00"> v37</text>
<text text-anchor="start" x="829.5" y="-827.3" font-family="Times,serif" font-size="14.00"> v38 = v37[v32]</text>
</g>
<!-- Node0x47232a70&#45;&gt;Node0x47232c10 -->
<g id="edge13" class="edge"><title>Node0x47232a70&#45;&gt;Node0x47232c10</title>
<path fill="none" stroke="black" d="M887,-999.23C887,-987.451 887,-972.837 887,-958.029"/>
<polygon fill="black" stroke="black" points="890.5,-957.779 887,-947.779 883.5,-957.779 890.5,-957.779"/>
<text text-anchor="middle" x="926" y="-969.8" font-family="Times,serif" font-size="14.00">v29 == 80</text>
</g>
<!-- Node0x47233620 -->
<g id="node13" class="node"><title>Node0x47233620</title>
<polygon fill="none" stroke="black" points="1031,-819.5 1031,-947.5 1131,-947.5 1131,-819.5 1031,-819.5"/>
<text text-anchor="start" x="1039" y="-932.3" font-family="Times,serif" font-size="14.00">0x7374ec0:</text>
<text text-anchor="start" x="1039" y="-917.3" font-family="Times,serif" font-size="14.00"> v22 = v23</text>
<text text-anchor="start" x="1039" y="-902.3" font-family="Times,serif" font-size="14.00"> v23 = v30</text>
<text text-anchor="start" x="1039" y="-887.3" font-family="Times,serif" font-size="14.00"> v24 = v25</text>
<text text-anchor="start" x="1039" y="-872.3" font-family="Times,serif" font-size="14.00"> v25 = v26</text>
<text text-anchor="start" x="1039" y="-857.3" font-family="Times,serif" font-size="14.00"> v26 = v31</text>
<text text-anchor="start" x="1039" y="-842.3" font-family="Times,serif" font-size="14.00"> v27 = v29</text>
<text text-anchor="start" x="1039" y="-827.3" font-family="Times,serif" font-size="14.00"> continue</text>
</g>
<!-- Node0x47232a70&#45;&gt;Node0x47233620 -->
<g id="edge14" class="edge"><title>Node0x47232a70&#45;&gt;Node0x47233620</title>
<path fill="none" stroke="black" d="M938.763,-999.451C949.027,-993.771 959.545,-987.494 969,-981 987.439,-968.336 1006.3,-953.11 1023.17,-938.535"/>
<polygon fill="black" stroke="black" points="1025.54,-941.111 1030.77,-931.895 1020.93,-935.839 1025.54,-941.111"/>
<text text-anchor="middle" x="1024" y="-969.8" font-family="Times,serif" font-size="14.00">v29 != 80</text>
</g>
<!-- Node0x47233060 -->
<g id="node14" class="node"><title>Node0x47233060</title>
<polygon fill="none" stroke="black" points="812,-743.5 812,-781.5 962,-781.5 962,-743.5 812,-743.5"/>
<text text-anchor="start" x="820" y="-766.3" font-family="Times,serif" font-size="14.00">0x73747f0:</text>
<text text-anchor="start" x="820" y="-751.3" font-family="Times,serif" font-size="14.00"> while (v32 != 80):</text>
</g>
<!-- Node0x47232c10&#45;&gt;Node0x47233060 -->
<g id="edge15" class="edge"><title>Node0x47232c10&#45;&gt;Node0x47233060</title>
<path fill="none" stroke="black" d="M887,-819.167C887,-809.596 887,-800.158 887,-791.848"/>
<polygon fill="black" stroke="black" points="890.5,-791.658 887,-781.659 883.5,-791.659 890.5,-791.658"/>
</g>
<!-- Node0x47233620&#45;&gt;Node0x47231cd0 -->
<g id="edge16" class="edge"><title>Node0x47233620&#45;&gt;Node0x47231cd0</title>
<path fill="none" stroke="black" d="M1110.13,-947.545C1133.79,-1008.43 1157.99,-1101.79 1123,-1174 1113.82,-1192.95 1096.69,-1208.29 1079.97,-1219.69"/>
<polygon fill="black" stroke="black" points="1077.8,-1216.92 1071.3,-1225.29 1081.6,-1222.8 1077.8,-1216.92"/>
</g>
<!-- Node0x47233a70 -->
<g id="node15" class="node"><title>Node0x47233a70</title>
<polygon fill="none" stroke="black" points="534,-593.5 534,-691.5 1066,-691.5 1066,-593.5 534,-593.5"/>
<text text-anchor="start" x="542" y="-676.3" font-family="Times,serif" font-size="14.00">0x15705d10:</text>
<text text-anchor="start" x="542" y="-661.3" font-family="Times,serif" font-size="14.00"> v33 = v34</text>
<text text-anchor="start" x="542" y="-646.3" font-family="Times,serif" font-size="14.00"> v34 = (((v35 + 1859775393) + v38) + ((v34 / 134217728) | (32 * v34)))</text>
<text text-anchor="start" x="542" y="-631.3" font-family="Times,serif" font-size="14.00"> v35 = v36</text>
<text text-anchor="start" x="542" y="-616.3" font-family="Times,serif" font-size="14.00"> v36 = v38</text>
<text text-anchor="start" x="542" y="-601.3" font-family="Times,serif" font-size="14.00"> v38 = v37[v32]</text>
</g>
<!-- Node0x47233060&#45;&gt;Node0x47233a70 -->
<g id="edge17" class="edge"><title>Node0x47233060&#45;&gt;Node0x47233a70</title>
<path fill="none" stroke="black" d="M820.81,-743.288C813.021,-738.533 806.06,-732.543 801,-725 796.405,-718.149 793.85,-710.192 792.646,-701.988"/>
<polygon fill="black" stroke="black" points="796.125,-701.588 791.8,-691.916 789.149,-702.174 796.125,-701.588"/>
<text text-anchor="middle" x="837" y="-713.8" font-family="Times,serif" font-size="14.00">v32 != 80</text>
</g>
<!-- Node0x47233340 -->
<g id="node16" class="node"><title>Node0x47233340</title>
<polygon fill="none" stroke="black" points="1084,-616 1084,-669 1212,-669 1212,-616 1084,-616"/>
<text text-anchor="start" x="1092" y="-653.8" font-family="Times,serif" font-size="14.00">0x7373fd0:</text>
<text text-anchor="start" x="1092" y="-638.8" font-family="Times,serif" font-size="14.00"> if (v36 == 80):</text>
<text text-anchor="start" x="1092" y="-623.8" font-family="Times,serif" font-size="14.00"> else:</text>
</g>
<!-- Node0x47233060&#45;&gt;Node0x47233340 -->
<g id="edge18" class="edge"><title>Node0x47233060&#45;&gt;Node0x47233340</title>
<path fill="none" stroke="black" d="M946.498,-743.448C984.241,-731.045 1033.59,-713.05 1075,-692 1084.87,-686.985 1095.02,-680.905 1104.5,-674.77"/>
<polygon fill="black" stroke="black" points="1106.58,-677.588 1112.99,-669.148 1102.72,-671.751 1106.58,-677.588"/>
<text text-anchor="middle" x="1074" y="-713.8" font-family="Times,serif" font-size="14.00">v32 == 80</text>
</g>
<!-- Node0x47233a70&#45;&gt;Node0x47233060 -->
<g id="edge19" class="edge"><title>Node0x47233a70&#45;&gt;Node0x47233060</title>
<path fill="none" stroke="black" d="M859.177,-691.541C864.327,-697.376 869.066,-703.564 873,-710 877.301,-717.036 880.304,-725.404 882.391,-733.328"/>
<polygon fill="black" stroke="black" points="879.033,-734.349 884.639,-743.339 885.863,-732.815 879.033,-734.349"/>
</g>
<!-- Node0x47233d80 -->
<g id="node17" class="node"><title>Node0x47233d80</title>
<polygon fill="none" stroke="black" points="862,-503.5 862,-541.5 1158,-541.5 1158,-503.5 862,-503.5"/>
<text text-anchor="start" x="870" y="-526.3" font-family="Times,serif" font-size="14.00">0x736b5d0:</text>
<text text-anchor="start" x="870" y="-511.3" font-family="Times,serif" font-size="14.00"> g35 = ((v34 / 4) | (1073741824 * v34))</text>
</g>
<!-- Node0x47233340&#45;&gt;Node0x47233d80 -->
<g id="edge20" class="edge"><title>Node0x47233340&#45;&gt;Node0x47233d80</title>
<path fill="none" stroke="black" d="M1118.06,-615.896C1094.66,-595.887 1062.32,-568.237 1039.13,-548.408"/>
<polygon fill="black" stroke="black" points="1041.21,-545.584 1031.34,-541.745 1036.66,-550.904 1041.21,-545.584"/>
<text text-anchor="middle" x="1105" y="-563.8" font-family="Times,serif" font-size="14.00">v36 == 80</text>
</g>
<!-- Node0x47234470 -->
<g id="node18" class="node"><title>Node0x47234470</title>
<polygon fill="none" stroke="black" points="1176.5,-503.5 1176.5,-541.5 1277.5,-541.5 1277.5,-503.5 1176.5,-503.5"/>
<text text-anchor="start" x="1184.5" y="-526.3" font-family="Times,serif" font-size="14.00">0x7374570:</text>
<text text-anchor="start" x="1184.5" y="-511.3" font-family="Times,serif" font-size="14.00"> while True:</text>
</g>
<!-- Node0x47233340&#45;&gt;Node0x47234470 -->
<g id="edge21" class="edge"><title>Node0x47233340&#45;&gt;Node0x47234470</title>
<path fill="none" stroke="black" d="M1165.14,-615.896C1178.13,-596.498 1195.92,-569.92 1209.09,-550.247"/>
<polygon fill="black" stroke="black" points="1212.13,-552.002 1214.78,-541.745 1206.31,-548.108 1212.13,-552.002"/>
<text text-anchor="middle" x="1237" y="-563.8" font-family="Times,serif" font-size="14.00">v36 != 80</text>
</g>
<!-- Node0x47233e90 -->
<g id="node19" class="node"><title>Node0x47233e90</title>
<polygon fill="none" stroke="black" points="946,-427.5 946,-465.5 1074,-465.5 1074,-427.5 946,-427.5"/>
<text text-anchor="start" x="954" y="-450.3" font-family="Times,serif" font-size="14.00">0x7372940:</text>
<text text-anchor="start" x="954" y="-435.3" font-family="Times,serif" font-size="14.00"> if (g31 == 80):</text>
</g>
<!-- Node0x47233d80&#45;&gt;Node0x47233e90 -->
<g id="edge22" class="edge"><title>Node0x47233d80&#45;&gt;Node0x47233e90</title>
<path fill="none" stroke="black" d="M1010,-503.208C1010,-494.964 1010,-485.038 1010,-475.862"/>
<polygon fill="black" stroke="black" points="1013.5,-475.582 1010,-465.582 1006.5,-475.582 1013.5,-475.582"/>
</g>
<!-- Node0x47234470&#45;&gt;Node0x47234470 -->
<g id="edge23" class="edge"><title>Node0x47234470&#45;&gt;Node0x47234470</title>
<path fill="none" stroke="black" d="M1277.78,-529.353C1288.11,-528.607 1295.5,-526.322 1295.5,-522.5 1295.5,-520.111 1292.61,-518.323 1287.93,-517.135"/>
<polygon fill="black" stroke="black" points="1288.19,-513.636 1277.78,-515.647 1287.17,-520.562 1288.19,-513.636"/>
<text text-anchor="middle" x="1312.5" y="-518.8" font-family="Times,serif" font-size="14.00">True</text>
</g>
<!-- Node0x47234640 -->
<g id="node20" class="node"><title>Node0x47234640</title>
<polygon fill="none" stroke="black" points="735.5,-97.5 735.5,-375.5 1106.5,-375.5 1106.5,-97.5 735.5,-97.5"/>
<text text-anchor="start" x="743.5" y="-360.3" font-family="Times,serif" font-size="14.00">0x736cf60:</text>
<text text-anchor="start" x="743.5" y="-345.3" font-family="Times,serif" font-size="14.00"> g6 = True</text>
<text text-anchor="start" x="743.5" y="-330.3" font-family="Times,serif" font-size="14.00"> g7 = False</text>
<text text-anchor="start" x="743.5" y="-315.3" font-family="Times,serif" font-size="14.00"> g9 = True</text>
<text text-anchor="start" x="743.5" y="-300.3" font-family="Times,serif" font-size="14.00"> g36 = *(v18)</text>
<text text-anchor="start" x="743.5" y="-285.3" font-family="Times,serif" font-size="14.00"> g30 = *(v19)</text>
<text text-anchor="start" x="743.5" y="-270.3" font-family="Times,serif" font-size="14.00"> g29 = *(v20)</text>
<text text-anchor="start" x="743.5" y="-255.3" font-family="Times,serif" font-size="14.00"> g33 = (*(v21) + ((v33 / 4) | (1073741824 * v33)))</text>
<text text-anchor="start" x="743.5" y="-240.3" font-family="Times,serif" font-size="14.00"> g37 = 0</text>
<text text-anchor="start" x="743.5" y="-225.3" font-family="Times,serif" font-size="14.00"> *(IntToPtrCastExpr&lt;ptr&gt;((v17 + 92))) = 0</text>
<text text-anchor="start" x="743.5" y="-210.3" font-family="Times,serif" font-size="14.00"> *(IntToPtrCastExpr&lt;ptr&gt;(g38)) = g35</text>
<text text-anchor="start" x="743.5" y="-195.3" font-family="Times,serif" font-size="14.00"> *(IntToPtrCastExpr&lt;ptr&gt;((g38 + 4))) = g36</text>
<text text-anchor="start" x="743.5" y="-180.3" font-family="Times,serif" font-size="14.00"> *(IntToPtrCastExpr&lt;ptr&gt;((g38 + 8))) = g30</text>
<text text-anchor="start" x="743.5" y="-165.3" font-family="Times,serif" font-size="14.00"> *(IntToPtrCastExpr&lt;ptr&gt;((g38 + 12))) = g29</text>
<text text-anchor="start" x="743.5" y="-150.3" font-family="Times,serif" font-size="14.00"> *(IntToPtrCastExpr&lt;ptr&gt;((g38 + 16))) = g33</text>
<text text-anchor="start" x="743.5" y="-135.3" font-family="Times,serif" font-size="14.00"> g38 = v2</text>
<text text-anchor="start" x="743.5" y="-120.3" font-family="Times,serif" font-size="14.00"> IntToPtrCastExpr&lt;ptr&gt;(v3)()</text>
<text text-anchor="start" x="743.5" y="-105.3" font-family="Times,serif" font-size="14.00"> return</text>
</g>
<!-- Node0x47233e90&#45;&gt;Node0x47234640 -->
<g id="edge24" class="edge"><title>Node0x47233e90&#45;&gt;Node0x47234640</title>
<path fill="none" stroke="black" d="M1002.26,-427.405C997.654,-416.647 991.336,-401.881 984.24,-385.297"/>
<polygon fill="black" stroke="black" points="987.375,-383.727 980.224,-375.91 980.94,-386.481 987.375,-383.727"/>
<text text-anchor="middle" x="1031.5" y="-397.8" font-family="Times,serif" font-size="14.00">g31 == 80</text>
</g>
<!-- Node0x47234390 -->
<g id="node21" class="node"><title>Node0x47234390</title>
<polygon fill="none" stroke="black" points="1124.5,-217.5 1124.5,-255.5 1225.5,-255.5 1225.5,-217.5 1124.5,-217.5"/>
<text text-anchor="start" x="1132.5" y="-240.3" font-family="Times,serif" font-size="14.00">0x7373e30:</text>
<text text-anchor="start" x="1132.5" y="-225.3" font-family="Times,serif" font-size="14.00"> while True:</text>
</g>
<!-- Node0x47233e90&#45;&gt;Node0x47234390 -->
<g id="edge25" class="edge"><title>Node0x47233e90&#45;&gt;Node0x47234390</title>
<path fill="none" stroke="black" d="M1050.51,-427.456C1072.71,-415.698 1099.07,-398.372 1116,-376 1141.82,-341.886 1158.74,-294.768 1167.59,-265.226"/>
<polygon fill="black" stroke="black" points="1170.97,-266.139 1170.38,-255.56 1164.25,-264.195 1170.97,-266.139"/>
<text text-anchor="middle" x="1135.5" y="-397.8" font-family="Times,serif" font-size="14.00">g31 != 80</text>
</g>
<!-- Node0x47230210 -->
<g id="node22" class="node"><title>Node0x47230210</title>
<polygon fill="none" stroke="black" points="894,-23.5 894,-59.5 948,-59.5 948,-23.5 894,-23.5"/>
<text text-anchor="start" x="902" y="-37.8" font-family="Times,serif" font-size="14.00">exit:</text>
</g>
<!-- Node0x47234640&#45;&gt;Node0x47230210 -->
<g id="edge26" class="edge"><title>Node0x47234640&#45;&gt;Node0x47230210</title>
<path fill="none" stroke="black" d="M921,-97.2898C921,-87.1541 921,-77.7786 921,-69.7532"/>
<polygon fill="black" stroke="black" points="924.5,-69.7017 921,-59.7017 917.5,-69.7017 924.5,-69.7017"/>
</g>
<!-- Node0x47234390&#45;&gt;Node0x47234390 -->
<g id="edge27" class="edge"><title>Node0x47234390&#45;&gt;Node0x47234390</title>
<path fill="none" stroke="black" d="M1191.51,-255.708C1214.78,-273.828 1243.5,-267.426 1243.5,-236.5 1243.5,-209.319 1221.32,-201.082 1200.14,-211.788"/>
<polygon fill="black" stroke="black" points="1198.06,-208.965 1191.51,-217.292 1201.82,-214.868 1198.06,-208.965"/>
<text text-anchor="middle" x="1260.5" y="-232.8" font-family="Times,serif" font-size="14.00">True</text>
</g>
</g>
</svg>
