<?xml version="1.0" encoding="UTF-8" standalone="no"?>
<!DOCTYPE svg PUBLIC "-//W3C//DTD SVG 1.1//EN"
 "http://www.w3.org/Graphics/SVG/1.1/DTD/svg11.dtd">
<!-- Generated by graphviz version 2.38.0 (20140413.2041)
 -->
<!-- Title: Control&#45;flow graph for function &#39;function_d874()&#39;. Pages: 1 -->
<svg width="520pt" height="216pt"
 viewBox="0.00 0.00 520.00 216.00" xmlns="http://www.w3.org/2000/svg" xmlns:xlink="http://www.w3.org/1999/xlink">
<g id="graph0" class="graph" transform="scale(1 1) rotate(0) translate(4 212)">
<title>Control&#45;flow graph for function &#39;function_d874()&#39;.</title>
<polygon fill="white" stroke="none" points="-4,4 -4,-212 516,-212 516,4 -4,4"/>
<text text-anchor="middle" x="256" y="-7.8" font-family="Times,serif" font-size="14.00">Control&#45;flow graph for function &#39;function_d874()&#39;.</text>
<!-- Node0x41f0bf90 -->
<g id="node1" class="node"><title>Node0x41f0bf90</title>
<polygon fill="none" stroke="black" points="226.5,-171.5 226.5,-207.5 285.5,-207.5 285.5,-171.5 226.5,-171.5"/>
<text text-anchor="start" x="234.5" y="-185.8" font-family="Times,serif" font-size="14.00">entry:</text>
</g>
<!-- Node0x4777c970 -->
<g id="node2" class="node"><title>Node0x4777c970</title>
<polygon fill="none" stroke="black" points="0,-96.5 0,-134.5 512,-134.5 512,-96.5 0,-96.5"/>
<text text-anchor="start" x="8" y="-119.3" font-family="Times,serif" font-size="14.00">0x76fa0a0:</text>
<text text-anchor="start" x="8" y="-104.3" font-family="Times,serif" font-size="14.00"> g37 = ExtCastExpr&lt;int32&gt;(*(IntToPtrCastExpr&lt;ptr&gt;((g29 + 16))))</text>
</g>
<!-- Node0x41f0bf90&#45;&gt;Node0x4777c970 -->
<g id="edge1" class="edge"><title>Node0x41f0bf90&#45;&gt;Node0x4777c970</title>
<path fill="none" stroke="black" d="M256,-171.437C256,-163.487 256,-153.813 256,-144.813"/>
<polygon fill="black" stroke="black" points="259.5,-144.699 256,-134.699 252.5,-144.699 259.5,-144.699"/>
</g>
<!-- Node0x1b955060 -->
<g id="node3" class="node"><title>Node0x1b955060</title>
<polygon fill="none" stroke="black" points="229,-23.5 229,-59.5 283,-59.5 283,-23.5 229,-23.5"/>
<text text-anchor="start" x="237" y="-37.8" font-family="Times,serif" font-size="14.00">exit:</text>
</g>
<!-- Node0x4777c970&#45;&gt;Node0x1b955060 -->
<g id="edge2" class="edge"><title>Node0x4777c970&#45;&gt;Node0x1b955060</title>
<path fill="none" stroke="black" d="M256,-96.3314C256,-88.394 256,-78.9095 256,-70.1285"/>
<polygon fill="black" stroke="black" points="259.5,-69.9177 256,-59.9177 252.5,-69.9177 259.5,-69.9177"/>
</g>
</g>
</svg>
