<?xml version="1.0" encoding="UTF-8" standalone="no"?>
<!DOCTYPE svg PUBLIC "-//W3C//DTD SVG 1.1//EN"
 "http://www.w3.org/Graphics/SVG/1.1/DTD/svg11.dtd">
<!-- Generated by graphviz version 2.38.0 (20140413.2041)
 -->
<!-- Title: Control&#45;flow graph for function &#39;function_4530()&#39;. Pages: 1 -->
<svg width="387pt" height="489pt"
 viewBox="0.00 0.00 387.00 489.00" xmlns="http://www.w3.org/2000/svg" xmlns:xlink="http://www.w3.org/1999/xlink">
<g id="graph0" class="graph" transform="scale(1 1) rotate(0) translate(4 485)">
<title>Control&#45;flow graph for function &#39;function_4530()&#39;.</title>
<polygon fill="white" stroke="none" points="-4,4 -4,-485 383,-485 383,4 -4,4"/>
<text text-anchor="middle" x="189.5" y="-7.8" font-family="Times,serif" font-size="14.00">Control&#45;flow graph for function &#39;function_4530()&#39;.</text>
<!-- Node0xec44650 -->
<g id="node1" class="node"><title>Node0xec44650</title>
<polygon fill="none" stroke="black" points="233,-444.5 233,-480.5 292,-480.5 292,-444.5 233,-444.5"/>
<text text-anchor="start" x="241" y="-458.8" font-family="Times,serif" font-size="14.00">entry:</text>
</g>
<!-- Node0x3da92b60 -->
<g id="node2" class="node"><title>Node0x3da92b60</title>
<polygon fill="none" stroke="black" points="146,-263.5 146,-406.5 379,-406.5 379,-263.5 146,-263.5"/>
<text text-anchor="start" x="154" y="-391.3" font-family="Times,serif" font-size="14.00">0x2cc4e920:</text>
<text text-anchor="start" x="154" y="-376.3" font-family="Times,serif" font-size="14.00"> v1 = g35</text>
<text text-anchor="start" x="154" y="-361.3" font-family="Times,serif" font-size="14.00"> g35 = 165012</text>
<text text-anchor="start" x="154" y="-346.3" font-family="Times,serif" font-size="14.00"> g33 = 163864</text>
<text text-anchor="start" x="154" y="-331.3" font-family="Times,serif" font-size="14.00"> g37 = 400</text>
<text text-anchor="start" x="154" y="-316.3" font-family="Times,serif" font-size="14.00"> function_b78c()</text>
<text text-anchor="start" x="154" y="-301.3" font-family="Times,serif" font-size="14.00"> v2</text>
<text text-anchor="start" x="154" y="-286.3" font-family="Times,serif" font-size="14.00"> g34 = v2</text>
<text text-anchor="start" x="154" y="-271.3" font-family="Times,serif" font-size="14.00"> IntToPtrCastExpr&lt;ptr&gt;(v1)()</text>
</g>
<!-- Node0xec44650&#45;&gt;Node0x3da92b60 -->
<g id="edge1" class="edge"><title>Node0xec44650&#45;&gt;Node0x3da92b60</title>
<path fill="none" stroke="black" d="M262.5,-444.313C262.5,-436.682 262.5,-427.101 262.5,-416.811"/>
<polygon fill="black" stroke="black" points="266,-416.769 262.5,-406.769 259,-416.769 266,-416.769"/>
</g>
<!-- Node0x16082400 -->
<g id="node3" class="node"><title>Node0x16082400</title>
<polygon fill="none" stroke="black" points="212,-187.5 212,-225.5 313,-225.5 313,-187.5 212,-187.5"/>
<text text-anchor="start" x="220" y="-210.3" font-family="Times,serif" font-size="14.00">0x538a490:</text>
<text text-anchor="start" x="220" y="-195.3" font-family="Times,serif" font-size="14.00"> if g9:</text>
</g>
<!-- Node0x3da92b60&#45;&gt;Node0x16082400 -->
<g id="edge2" class="edge"><title>Node0x3da92b60&#45;&gt;Node0x16082400</title>
<path fill="none" stroke="black" d="M262.5,-263.353C262.5,-253.594 262.5,-244.073 262.5,-235.737"/>
<polygon fill="black" stroke="black" points="266,-235.54 262.5,-225.54 259,-235.54 266,-235.54"/>
</g>
<!-- Node0x1797bce0 -->
<g id="node4" class="node"><title>Node0x1797bce0</title>
<polygon fill="none" stroke="black" points="0,-97.5 0,-135.5 269,-135.5 269,-97.5 0,-97.5"/>
<text text-anchor="start" x="8" y="-120.3" font-family="Times,serif" font-size="14.00">0x538a2a0:</text>
<text text-anchor="start" x="8" y="-105.3" font-family="Times,serif" font-size="14.00"> g37 = (g36 &amp; (g38 / 1073741824))</text>
</g>
<!-- Node0x16082400&#45;&gt;Node0x1797bce0 -->
<g id="edge3" class="edge"><title>Node0x16082400&#45;&gt;Node0x1797bce0</title>
<path fill="none" stroke="black" d="M236.288,-187.48C217.003,-174.221 190.586,-156.059 169.497,-141.561"/>
<polygon fill="black" stroke="black" points="171.34,-138.58 161.116,-135.799 167.374,-144.348 171.34,-138.58"/>
<text text-anchor="middle" x="216" y="-157.8" font-family="Times,serif" font-size="14.00">g9</text>
</g>
<!-- Node0x4767d9f0 -->
<g id="node5" class="node"><title>Node0x4767d9f0</title>
<polygon fill="none" stroke="black" points="229.5,-23.5 229.5,-59.5 283.5,-59.5 283.5,-23.5 229.5,-23.5"/>
<text text-anchor="start" x="237.5" y="-37.8" font-family="Times,serif" font-size="14.00">exit:</text>
</g>
<!-- Node0x16082400&#45;&gt;Node0x4767d9f0 -->
<g id="edge4" class="edge"><title>Node0x16082400&#45;&gt;Node0x4767d9f0</title>
<path fill="none" stroke="black" d="M268.556,-187.371C274.957,-165.76 283.377,-128.595 277.5,-97 275.749,-87.584 272.431,-77.6972 268.941,-68.9687"/>
<polygon fill="black" stroke="black" points="272.132,-67.5294 265.002,-59.693 265.689,-70.2656 272.132,-67.5294"/>
<text text-anchor="middle" x="308" y="-112.8" font-family="Times,serif" font-size="14.00">not (g9)</text>
</g>
<!-- Node0x1797bce0&#45;&gt;Node0x4767d9f0 -->
<g id="edge5" class="edge"><title>Node0x1797bce0&#45;&gt;Node0x4767d9f0</title>
<path fill="none" stroke="black" d="M164.657,-97.4551C181.482,-87.3879 202.555,-74.7789 220.27,-64.1788"/>
<polygon fill="black" stroke="black" points="222.403,-66.9809 229.187,-58.8429 218.809,-60.9741 222.403,-66.9809"/>
</g>
</g>
</svg>
