<?xml version="1.0" encoding="UTF-8" standalone="no"?>
<!DOCTYPE svg PUBLIC "-//W3C//DTD SVG 1.1//EN"
 "http://www.w3.org/Graphics/SVG/1.1/DTD/svg11.dtd">
<!-- Generated by graphviz version 2.38.0 (20140413.2041)
 -->
<!-- Title: Control&#45;flow graph for function &#39;function_f4a8()&#39;. Pages: 1 -->
<svg width="510pt" height="246pt"
 viewBox="0.00 0.00 510.00 246.00" xmlns="http://www.w3.org/2000/svg" xmlns:xlink="http://www.w3.org/1999/xlink">
<g id="graph0" class="graph" transform="scale(1 1) rotate(0) translate(4 242)">
<title>Control&#45;flow graph for function &#39;function_f4a8()&#39;.</title>
<polygon fill="white" stroke="none" points="-4,4 -4,-242 506,-242 506,4 -4,4"/>
<text text-anchor="middle" x="251" y="-7.8" font-family="Times,serif" font-size="14.00">Control&#45;flow graph for function &#39;function_f4a8()&#39;.</text>
<!-- Node0x3ef58220 -->
<g id="node1" class="node"><title>Node0x3ef58220</title>
<polygon fill="none" stroke="black" points="221.5,-201.5 221.5,-237.5 280.5,-237.5 280.5,-201.5 221.5,-201.5"/>
<text text-anchor="start" x="229.5" y="-215.8" font-family="Times,serif" font-size="14.00">entry:</text>
</g>
<!-- Node0x3ef568c0 -->
<g id="node2" class="node"><title>Node0x3ef568c0</title>
<polygon fill="none" stroke="black" points="-2.84217e-14,-96.5 -2.84217e-14,-164.5 502,-164.5 502,-96.5 -2.84217e-14,-96.5"/>
<text text-anchor="start" x="8" y="-149.3" font-family="Times,serif" font-size="14.00">0x4051c1d0:</text>
<text text-anchor="start" x="8" y="-134.3" font-family="Times,serif" font-size="14.00"> v1 = *(IntToPtrCastExpr&lt;ptr&gt;((g29 + 16)))</text>
<text text-anchor="start" x="8" y="-119.3" font-family="Times,serif" font-size="14.00"> g37 = v1</text>
<text text-anchor="start" x="8" y="-104.3" font-family="Times,serif" font-size="14.00"> g29 = ExtCastExpr&lt;int32&gt;(*(IntToPtrCastExpr&lt;ptr&gt;((v1 + 23))))</text>
</g>
<!-- Node0x3ef58220&#45;&gt;Node0x3ef568c0 -->
<g id="edge1" class="edge"><title>Node0x3ef58220&#45;&gt;Node0x3ef568c0</title>
<path fill="none" stroke="black" d="M251,-201.312C251,-193.602 251,-184.126 251,-174.671"/>
<polygon fill="black" stroke="black" points="254.5,-174.503 251,-164.503 247.5,-174.503 254.5,-174.503"/>
</g>
<!-- Node0x3ef559b0 -->
<g id="node3" class="node"><title>Node0x3ef559b0</title>
<polygon fill="none" stroke="black" points="224,-23.5 224,-59.5 278,-59.5 278,-23.5 224,-23.5"/>
<text text-anchor="start" x="232" y="-37.8" font-family="Times,serif" font-size="14.00">exit:</text>
</g>
<!-- Node0x3ef568c0&#45;&gt;Node0x3ef559b0 -->
<g id="edge2" class="edge"><title>Node0x3ef568c0&#45;&gt;Node0x3ef559b0</title>
<path fill="none" stroke="black" d="M251,-96.1123C251,-87.3522 251,-78.0128 251,-69.6246"/>
<polygon fill="black" stroke="black" points="254.5,-69.6235 251,-59.6235 247.5,-69.6235 254.5,-69.6235"/>
</g>
</g>
</svg>
