<?xml version="1.0" encoding="UTF-8" standalone="no"?>
<!DOCTYPE svg PUBLIC "-//W3C//DTD SVG 1.1//EN"
 "http://www.w3.org/Graphics/SVG/1.1/DTD/svg11.dtd">
<!-- Generated by graphviz version 2.38.0 (20140413.2041)
 -->
<!-- Title: Control&#45;flow graph for function &#39;function_13020()&#39;. Pages: 1 -->
<svg width="754pt" height="306pt"
 viewBox="0.00 0.00 754.00 306.00" xmlns="http://www.w3.org/2000/svg" xmlns:xlink="http://www.w3.org/1999/xlink">
<g id="graph0" class="graph" transform="scale(1 1) rotate(0) translate(4 302)">
<title>Control&#45;flow graph for function &#39;function_13020()&#39;.</title>
<polygon fill="white" stroke="none" points="-4,4 -4,-302 750,-302 750,4 -4,4"/>
<text text-anchor="middle" x="373" y="-7.8" font-family="Times,serif" font-size="14.00">Control&#45;flow graph for function &#39;function_13020()&#39;.</text>
<!-- Node0x159164e0 -->
<g id="node1" class="node"><title>Node0x159164e0</title>
<polygon fill="none" stroke="black" points="343.5,-261.5 343.5,-297.5 402.5,-297.5 402.5,-261.5 343.5,-261.5"/>
<text text-anchor="start" x="351.5" y="-275.8" font-family="Times,serif" font-size="14.00">entry:</text>
</g>
<!-- Node0x1591cf30 -->
<g id="node2" class="node"><title>Node0x1591cf30</title>
<polygon fill="none" stroke="black" points="0,-96.5 0,-224.5 746,-224.5 746,-96.5 0,-96.5"/>
<text text-anchor="start" x="8" y="-209.3" font-family="Times,serif" font-size="14.00">0x17da14a0:</text>
<text text-anchor="start" x="8" y="-194.3" font-family="Times,serif" font-size="14.00"> v1 = ExtCastExpr&lt;int32&gt;(*(IntToPtrCastExpr&lt;ptr&gt;(g29)))</text>
<text text-anchor="start" x="8" y="-179.3" font-family="Times,serif" font-size="14.00"> g36 = v1</text>
<text text-anchor="start" x="8" y="-164.3" font-family="Times,serif" font-size="14.00"> v2 = ExtCastExpr&lt;int32&gt;(*(IntToPtrCastExpr&lt;ptr&gt;((g29 + 1))))</text>
<text text-anchor="start" x="8" y="-149.3" font-family="Times,serif" font-size="14.00"> g30 = v2</text>
<text text-anchor="start" x="8" y="-134.3" font-family="Times,serif" font-size="14.00"> v3 = (((16777216 * v1) | ExtCastExpr&lt;int32&gt;(*(IntToPtrCastExpr&lt;ptr&gt;((g29 + 3))))) | (65536 * v2))</text>
<text text-anchor="start" x="8" y="-119.3" font-family="Times,serif" font-size="14.00"> g37 = v3</text>
<text text-anchor="start" x="8" y="-104.3" font-family="Times,serif" font-size="14.00"> g29 = (v3 | (256 * ExtCastExpr&lt;int32&gt;(*(IntToPtrCastExpr&lt;ptr&gt;((g29 + 2))))))</text>
</g>
<!-- Node0x159164e0&#45;&gt;Node0x1591cf30 -->
<g id="edge1" class="edge"><title>Node0x159164e0&#45;&gt;Node0x1591cf30</title>
<path fill="none" stroke="black" d="M373,-261.487C373,-254.024 373,-244.706 373,-234.78"/>
<polygon fill="black" stroke="black" points="376.5,-234.697 373,-224.697 369.5,-234.697 376.5,-234.697"/>
</g>
<!-- Node0x15917b60 -->
<g id="node3" class="node"><title>Node0x15917b60</title>
<polygon fill="none" stroke="black" points="346,-23.5 346,-59.5 400,-59.5 400,-23.5 346,-23.5"/>
<text text-anchor="start" x="354" y="-37.8" font-family="Times,serif" font-size="14.00">exit:</text>
</g>
<!-- Node0x1591cf30&#45;&gt;Node0x15917b60 -->
<g id="edge2" class="edge"><title>Node0x1591cf30&#45;&gt;Node0x15917b60</title>
<path fill="none" stroke="black" d="M373,-96.206C373,-87.0257 373,-78.004 373,-70.0532"/>
<polygon fill="black" stroke="black" points="376.5,-69.9607 373,-59.9608 369.5,-69.9608 376.5,-69.9607"/>
</g>
</g>
</svg>
