<?xml version="1.0" encoding="UTF-8" standalone="no"?>
<!DOCTYPE svg PUBLIC "-//W3C//DTD SVG 1.1//EN"
 "http://www.w3.org/Graphics/SVG/1.1/DTD/svg11.dtd">
<!-- Generated by graphviz version 2.38.0 (20140413.2041)
 -->
<!-- Title: Control&#45;flow graph for function &#39;function_34d8()&#39;. Pages: 1 -->
<svg width="377pt" height="246pt"
 viewBox="0.00 0.00 377.00 246.00" xmlns="http://www.w3.org/2000/svg" xmlns:xlink="http://www.w3.org/1999/xlink">
<g id="graph0" class="graph" transform="scale(1 1) rotate(0) translate(4 242)">
<title>Control&#45;flow graph for function &#39;function_34d8()&#39;.</title>
<polygon fill="white" stroke="none" points="-4,4 -4,-242 373,-242 373,4 -4,4"/>
<text text-anchor="middle" x="184.5" y="-7.8" font-family="Times,serif" font-size="14.00">Control&#45;flow graph for function &#39;function_34d8()&#39;.</text>
<!-- Node0x307aa9d0 -->
<g id="node1" class="node"><title>Node0x307aa9d0</title>
<polygon fill="none" stroke="black" points="155,-201.5 155,-237.5 214,-237.5 214,-201.5 155,-201.5"/>
<text text-anchor="start" x="163" y="-215.8" font-family="Times,serif" font-size="14.00">entry:</text>
</g>
<!-- Node0x2414d610 -->
<g id="node2" class="node"><title>Node0x2414d610</title>
<polygon fill="none" stroke="black" points="11,-96.5 11,-164.5 358,-164.5 358,-96.5 11,-96.5"/>
<text text-anchor="start" x="19" y="-149.3" font-family="Times,serif" font-size="14.00">0x172627e0:</text>
<text text-anchor="start" x="19" y="-134.3" font-family="Times,serif" font-size="14.00"> v1 = *(IntToPtrCastExpr&lt;ptr&gt;(g29))</text>
<text text-anchor="start" x="19" y="-119.3" font-family="Times,serif" font-size="14.00"> g37 = v1</text>
<text text-anchor="start" x="19" y="-104.3" font-family="Times,serif" font-size="14.00"> g29 = *(IntToPtrCastExpr&lt;ptr&gt;((v1 + 132)))</text>
</g>
<!-- Node0x307aa9d0&#45;&gt;Node0x2414d610 -->
<g id="edge1" class="edge"><title>Node0x307aa9d0&#45;&gt;Node0x2414d610</title>
<path fill="none" stroke="black" d="M184.5,-201.312C184.5,-193.602 184.5,-184.126 184.5,-174.671"/>
<polygon fill="black" stroke="black" points="188,-174.503 184.5,-164.503 181,-174.503 188,-174.503"/>
</g>
<!-- Node0x2414e5c0 -->
<g id="node3" class="node"><title>Node0x2414e5c0</title>
<polygon fill="none" stroke="black" points="157.5,-23.5 157.5,-59.5 211.5,-59.5 211.5,-23.5 157.5,-23.5"/>
<text text-anchor="start" x="165.5" y="-37.8" font-family="Times,serif" font-size="14.00">exit:</text>
</g>
<!-- Node0x2414d610&#45;&gt;Node0x2414e5c0 -->
<g id="edge2" class="edge"><title>Node0x2414d610&#45;&gt;Node0x2414e5c0</title>
<path fill="none" stroke="black" d="M184.5,-96.1123C184.5,-87.3522 184.5,-78.0128 184.5,-69.6246"/>
<polygon fill="black" stroke="black" points="188,-69.6235 184.5,-59.6235 181,-69.6235 188,-69.6235"/>
</g>
</g>
</svg>
