<?xml version="1.0" encoding="UTF-8" standalone="no"?>
<!DOCTYPE svg PUBLIC "-//W3C//DTD SVG 1.1//EN"
 "http://www.w3.org/Graphics/SVG/1.1/DTD/svg11.dtd">
<!-- Generated by graphviz version 2.38.0 (20140413.2041)
 -->
<!-- Title: Control&#45;flow graph for function &#39;function_fbfc()&#39;. Pages: 1 -->
<svg width="369pt" height="231pt"
 viewBox="0.00 0.00 369.00 231.00" xmlns="http://www.w3.org/2000/svg" xmlns:xlink="http://www.w3.org/1999/xlink">
<g id="graph0" class="graph" transform="scale(1 1) rotate(0) translate(4 227)">
<title>Control&#45;flow graph for function &#39;function_fbfc()&#39;.</title>
<polygon fill="white" stroke="none" points="-4,4 -4,-227 365,-227 365,4 -4,4"/>
<text text-anchor="middle" x="180.5" y="-7.8" font-family="Times,serif" font-size="14.00">Control&#45;flow graph for function &#39;function_fbfc()&#39;.</text>
<!-- Node0x427a4f60 -->
<g id="node1" class="node"><title>Node0x427a4f60</title>
<polygon fill="none" stroke="black" points="151,-186.5 151,-222.5 210,-222.5 210,-186.5 151,-186.5"/>
<text text-anchor="start" x="159" y="-200.8" font-family="Times,serif" font-size="14.00">entry:</text>
</g>
<!-- Node0x427a5330 -->
<g id="node2" class="node"><title>Node0x427a5330</title>
<polygon fill="none" stroke="black" points="7,-96.5 7,-149.5 354,-149.5 354,-96.5 7,-96.5"/>
<text text-anchor="start" x="15" y="-134.3" font-family="Times,serif" font-size="14.00">0x78c6ff0:</text>
<text text-anchor="start" x="15" y="-119.3" font-family="Times,serif" font-size="14.00"> g29 = *(IntToPtrCastExpr&lt;ptr&gt;((g29 + 16)))</text>
<text text-anchor="start" x="15" y="-104.3" font-family="Times,serif" font-size="14.00"> function_11958()</text>
</g>
<!-- Node0x427a4f60&#45;&gt;Node0x427a5330 -->
<g id="edge1" class="edge"><title>Node0x427a4f60&#45;&gt;Node0x427a5330</title>
<path fill="none" stroke="black" d="M180.5,-186.25C180.5,-178.486 180.5,-169.014 180.5,-159.825"/>
<polygon fill="black" stroke="black" points="184,-159.676 180.5,-149.676 177,-159.676 184,-159.676"/>
</g>
<!-- Node0x427a3a20 -->
<g id="node3" class="node"><title>Node0x427a3a20</title>
<polygon fill="none" stroke="black" points="153.5,-23.5 153.5,-59.5 207.5,-59.5 207.5,-23.5 153.5,-23.5"/>
<text text-anchor="start" x="161.5" y="-37.8" font-family="Times,serif" font-size="14.00">exit:</text>
</g>
<!-- Node0x427a5330&#45;&gt;Node0x427a3a20 -->
<g id="edge2" class="edge"><title>Node0x427a5330&#45;&gt;Node0x427a3a20</title>
<path fill="none" stroke="black" d="M180.5,-96.4081C180.5,-87.9823 180.5,-78.5803 180.5,-70.0174"/>
<polygon fill="black" stroke="black" points="184,-69.7564 180.5,-59.7564 177,-69.7565 184,-69.7564"/>
</g>
</g>
</svg>
