<?xml version="1.0" encoding="UTF-8" standalone="no"?>
<!DOCTYPE svg PUBLIC "-//W3C//DTD SVG 1.1//EN"
 "http://www.w3.org/Graphics/SVG/1.1/DTD/svg11.dtd">
<!-- Generated by graphviz version 2.38.0 (20140413.2041)
 -->
<!-- Title: Control&#45;flow graph for function &#39;function_23f7a()&#39;. Pages: 1 -->
<svg width="460pt" height="473pt"
 viewBox="0.00 0.00 459.50 473.00" xmlns="http://www.w3.org/2000/svg" xmlns:xlink="http://www.w3.org/1999/xlink">
<g id="graph0" class="graph" transform="scale(1 1) rotate(0) translate(4 469)">
<title>Control&#45;flow graph for function &#39;function_23f7a()&#39;.</title>
<polygon fill="white" stroke="none" points="-4,4 -4,-469 455.5,-469 455.5,4 -4,4"/>
<text text-anchor="middle" x="225.75" y="-7.8" font-family="Times,serif" font-size="14.00">Control&#45;flow graph for function &#39;function_23f7a()&#39;.</text>
<!-- Node0x466100d0 -->
<g id="node1" class="node"><title>Node0x466100d0</title>
<polygon fill="none" stroke="black" points="159,-428.5 159,-464.5 218,-464.5 218,-428.5 159,-428.5"/>
<text text-anchor="start" x="167" y="-442.8" font-family="Times,serif" font-size="14.00">entry:</text>
</g>
<!-- Node0x4660e6c0 -->
<g id="node2" class="node"><title>Node0x4660e6c0</title>
<polygon fill="none" stroke="black" points="132,-352.5 132,-390.5 245,-390.5 245,-352.5 132,-352.5"/>
<text text-anchor="start" x="140" y="-375.3" font-family="Times,serif" font-size="14.00">0xa4d0ca0:</text>
<text text-anchor="start" x="140" y="-360.3" font-family="Times,serif" font-size="14.00"> if (g30 != 0):</text>
</g>
<!-- Node0x466100d0&#45;&gt;Node0x4660e6c0 -->
<g id="edge1" class="edge"><title>Node0x466100d0&#45;&gt;Node0x4660e6c0</title>
<path fill="none" stroke="black" d="M188.5,-428.2C188.5,-419.99 188.5,-409.969 188.5,-400.701"/>
<polygon fill="black" stroke="black" points="192,-400.694 188.5,-390.694 185,-400.695 192,-400.694"/>
</g>
<!-- Node0x3c6e1d30 -->
<g id="node3" class="node"><title>Node0x3c6e1d30</title>
<polygon fill="none" stroke="black" points="0,-172.5 0,-225.5 143,-225.5 143,-172.5 0,-172.5"/>
<text text-anchor="start" x="8" y="-210.3" font-family="Times,serif" font-size="14.00">0xa4d0f40:</text>
<text text-anchor="start" x="8" y="-195.3" font-family="Times,serif" font-size="14.00"> function_24124()</text>
<text text-anchor="start" x="8" y="-180.3" font-family="Times,serif" font-size="14.00"> return</text>
</g>
<!-- Node0x4660e6c0&#45;&gt;Node0x3c6e1d30 -->
<g id="edge2" class="edge"><title>Node0x4660e6c0&#45;&gt;Node0x3c6e1d30</title>
<path fill="none" stroke="black" d="M175.979,-352.254C156.686,-324.139 119.371,-269.76 94.9545,-234.179"/>
<polygon fill="black" stroke="black" points="97.5878,-231.831 89.0438,-225.566 91.816,-235.792 97.5878,-231.831"/>
<text text-anchor="middle" x="195.5" y="-322.8" font-family="Times,serif" font-size="14.00">g30 != 0</text>
</g>
<!-- Node0x3c6e1440 -->
<g id="node4" class="node"><title>Node0x3c6e1440</title>
<polygon fill="none" stroke="black" points="161.5,-97.5 161.5,-300.5 451.5,-300.5 451.5,-97.5 161.5,-97.5"/>
<text text-anchor="start" x="169.5" y="-285.3" font-family="Times,serif" font-size="14.00">0xa4ce700:</text>
<text text-anchor="start" x="169.5" y="-270.3" font-family="Times,serif" font-size="14.00"> g29 = 1</text>
<text text-anchor="start" x="169.5" y="-255.3" font-family="Times,serif" font-size="14.00"> v1 = (g39 % 65536)</text>
<text text-anchor="start" x="169.5" y="-240.3" font-family="Times,serif" font-size="14.00"> g37 = v1</text>
<text text-anchor="start" x="169.5" y="-225.3" font-family="Times,serif" font-size="14.00"> v2 = g40</text>
<text text-anchor="start" x="169.5" y="-210.3" font-family="Times,serif" font-size="14.00"> g40 = (v2 &#45; g39)</text>
<text text-anchor="start" x="169.5" y="-195.3" font-family="Times,serif" font-size="14.00"> v3 = (v2 + (&#45;2 &#45; g39))</text>
<text text-anchor="start" x="169.5" y="-180.3" font-family="Times,serif" font-size="14.00"> g8 = (((v3 ^ v2) &amp; (v3 ^ &#45;(g39))) &lt; 0)</text>
<text text-anchor="start" x="169.5" y="-165.3" font-family="Times,serif" font-size="14.00"> g41 = (g39 / 65536)</text>
<text text-anchor="start" x="169.5" y="-150.3" font-family="Times,serif" font-size="14.00"> g7 = False</text>
<text text-anchor="start" x="169.5" y="-135.3" font-family="Times,serif" font-size="14.00"> g9 = (g39 &lt; 65536)</text>
<text text-anchor="start" x="169.5" y="-120.3" font-family="Times,serif" font-size="14.00"> g6 = ((g39 &amp; 32768) != 0)</text>
<text text-anchor="start" x="169.5" y="-105.3" font-family="Times,serif" font-size="14.00"> g43 = v1</text>
</g>
<!-- Node0x4660e6c0&#45;&gt;Node0x3c6e1440 -->
<g id="edge3" class="edge"><title>Node0x4660e6c0&#45;&gt;Node0x3c6e1440</title>
<path fill="none" stroke="black" d="M213.123,-352.192C219.54,-346.755 226.149,-340.502 231.5,-334 237.919,-326.2 244.081,-317.774 249.922,-309.077"/>
<polygon fill="black" stroke="black" points="252.877,-310.953 255.421,-300.668 247.018,-307.122 252.877,-310.953"/>
<text text-anchor="middle" x="277.5" y="-322.8" font-family="Times,serif" font-size="14.00">g30 == 0</text>
</g>
<!-- Node0x3c6dd2f0 -->
<g id="node5" class="node"><title>Node0x3c6dd2f0</title>
<polygon fill="none" stroke="black" points="187.5,-23.5 187.5,-59.5 241.5,-59.5 241.5,-23.5 187.5,-23.5"/>
<text text-anchor="start" x="195.5" y="-37.8" font-family="Times,serif" font-size="14.00">exit:</text>
</g>
<!-- Node0x3c6e1d30&#45;&gt;Node0x3c6dd2f0 -->
<g id="edge4" class="edge"><title>Node0x3c6e1d30&#45;&gt;Node0x3c6dd2f0</title>
<path fill="none" stroke="black" d="M90.3122,-172.08C106.033,-151.047 129.514,-121.048 152.5,-97 162.679,-86.3502 174.681,-75.4656 185.399,-66.2519"/>
<polygon fill="black" stroke="black" points="187.927,-68.6978 193.295,-59.5634 183.402,-63.3567 187.927,-68.6978"/>
</g>
<!-- Node0x3c6e1440&#45;&gt;Node0x3c6dd2f0 -->
<g id="edge5" class="edge"><title>Node0x3c6e1440&#45;&gt;Node0x3c6dd2f0</title>
<path fill="none" stroke="black" d="M246.936,-97.3235C240.711,-86.8026 234.851,-76.8968 229.869,-68.4763"/>
<polygon fill="black" stroke="black" points="232.749,-66.471 224.645,-59.6466 226.724,-70.0354 232.749,-66.471"/>
</g>
</g>
</svg>
