<?xml version="1.0" encoding="UTF-8" standalone="no"?>
<!DOCTYPE svg PUBLIC "-//W3C//DTD SVG 1.1//EN"
 "http://www.w3.org/Graphics/SVG/1.1/DTD/svg11.dtd">
<!-- Generated by graphviz version 2.38.0 (20140413.2041)
 -->
<!-- Title: Control&#45;flow graph for function &#39;function_1321c()&#39;. Pages: 1 -->
<svg width="385pt" height="760pt"
 viewBox="0.00 0.00 385.00 760.00" xmlns="http://www.w3.org/2000/svg" xmlns:xlink="http://www.w3.org/1999/xlink">
<g id="graph0" class="graph" transform="scale(1 1) rotate(0) translate(4 756)">
<title>Control&#45;flow graph for function &#39;function_1321c()&#39;.</title>
<polygon fill="white" stroke="none" points="-4,4 -4,-756 381,-756 381,4 -4,4"/>
<text text-anchor="middle" x="188.5" y="-7.8" font-family="Times,serif" font-size="14.00">Control&#45;flow graph for function &#39;function_1321c()&#39;.</text>
<!-- Node0x21b0cc30 -->
<g id="node1" class="node"><title>Node0x21b0cc30</title>
<polygon fill="none" stroke="black" points="159,-715.5 159,-751.5 218,-751.5 218,-715.5 159,-715.5"/>
<text text-anchor="start" x="167" y="-729.8" font-family="Times,serif" font-size="14.00">entry:</text>
</g>
<!-- Node0x21b0f7c0 -->
<g id="node2" class="node"><title>Node0x21b0f7c0</title>
<polygon fill="none" stroke="black" points="0,-504.5 0,-677.5 377,-677.5 377,-504.5 0,-504.5"/>
<text text-anchor="start" x="8" y="-662.3" font-family="Times,serif" font-size="14.00">0x3554b440:</text>
<text text-anchor="start" x="8" y="-647.3" font-family="Times,serif" font-size="14.00"> v1 = g39</text>
<text text-anchor="start" x="8" y="-632.3" font-family="Times,serif" font-size="14.00"> v2 = g35</text>
<text text-anchor="start" x="8" y="-617.3" font-family="Times,serif" font-size="14.00"> v3 = g29</text>
<text text-anchor="start" x="8" y="-602.3" font-family="Times,serif" font-size="14.00"> v4 = *(IntToPtrCastExpr&lt;ptr&gt;((v3 + 8)))</text>
<text text-anchor="start" x="8" y="-587.3" font-family="Times,serif" font-size="14.00"> v5 = *(IntToPtrCastExpr&lt;ptr&gt;((v3 + 4)))</text>
<text text-anchor="start" x="8" y="-572.3" font-family="Times,serif" font-size="14.00"> g35 = v5</text>
<text text-anchor="start" x="8" y="-557.3" font-family="Times,serif" font-size="14.00"> g33 = v3</text>
<text text-anchor="start" x="8" y="-542.3" font-family="Times,serif" font-size="14.00"> v6 = (v4 + *(IntToPtrCastExpr&lt;ptr&gt;((v3 + 12))))</text>
<text text-anchor="start" x="8" y="-527.3" font-family="Times,serif" font-size="14.00"> g29 = v6</text>
<text text-anchor="start" x="8" y="-512.3" font-family="Times,serif" font-size="14.00"> v7 = (v6 &#45; v5)</text>
</g>
<!-- Node0x21b0cc30&#45;&gt;Node0x21b0f7c0 -->
<g id="edge1" class="edge"><title>Node0x21b0cc30&#45;&gt;Node0x21b0f7c0</title>
<path fill="none" stroke="black" d="M188.5,-715.272C188.5,-707.72 188.5,-698.213 188.5,-687.845"/>
<polygon fill="black" stroke="black" points="192,-687.676 188.5,-677.676 185,-687.676 192,-687.676"/>
</g>
<!-- Node0x21b0d640 -->
<g id="node3" class="node"><title>Node0x21b0d640</title>
<polygon fill="none" stroke="black" points="129.5,-413.5 129.5,-466.5 247.5,-466.5 247.5,-413.5 129.5,-413.5"/>
<text text-anchor="start" x="137.5" y="-451.3" font-family="Times,serif" font-size="14.00">0x7f60950:</text>
<text text-anchor="start" x="137.5" y="-436.3" font-family="Times,serif" font-size="14.00"> if (v6 &gt;= v5):</text>
<text text-anchor="start" x="137.5" y="-421.3" font-family="Times,serif" font-size="14.00"> else:</text>
</g>
<!-- Node0x21b0f7c0&#45;&gt;Node0x21b0d640 -->
<g id="edge2" class="edge"><title>Node0x21b0f7c0&#45;&gt;Node0x21b0d640</title>
<path fill="none" stroke="black" d="M188.5,-504.189C188.5,-494.546 188.5,-485.162 188.5,-476.704"/>
<polygon fill="black" stroke="black" points="192,-476.535 188.5,-466.535 185,-476.535 192,-476.535"/>
</g>
<!-- Node0x21b0e9f0 -->
<g id="node4" class="node"><title>Node0x21b0e9f0</title>
<polygon fill="none" stroke="black" points="83.5,-323.5 83.5,-361.5 181.5,-361.5 181.5,-323.5 83.5,-323.5"/>
<text text-anchor="start" x="91.5" y="-346.3" font-family="Times,serif" font-size="14.00">0x7f60420:</text>
<text text-anchor="start" x="91.5" y="-331.3" font-family="Times,serif" font-size="14.00"> g29 = v7</text>
</g>
<!-- Node0x21b0d640&#45;&gt;Node0x21b0e9f0 -->
<g id="edge3" class="edge"><title>Node0x21b0d640&#45;&gt;Node0x21b0e9f0</title>
<path fill="none" stroke="black" d="M162.699,-413.357C157.853,-407.638 153.165,-401.371 149.5,-395 145.341,-387.769 142.024,-379.376 139.465,-371.49"/>
<polygon fill="black" stroke="black" points="142.82,-370.491 136.623,-361.898 136.108,-372.48 142.82,-370.491"/>
<text text-anchor="middle" x="183.5" y="-383.8" font-family="Times,serif" font-size="14.00">v6 &gt;= v5</text>
</g>
<!-- Node0x21b0fb40 -->
<g id="node5" class="node"><title>Node0x21b0fb40</title>
<polygon fill="none" stroke="black" points="199,-323.5 199,-361.5 292,-361.5 292,-323.5 199,-323.5"/>
<text text-anchor="start" x="207" y="-346.3" font-family="Times,serif" font-size="14.00">0x7f60af0:</text>
<text text-anchor="start" x="207" y="-331.3" font-family="Times,serif" font-size="14.00"> v7 = v6</text>
</g>
<!-- Node0x21b0d640&#45;&gt;Node0x21b0fb40 -->
<g id="edge4" class="edge"><title>Node0x21b0d640&#45;&gt;Node0x21b0fb40</title>
<path fill="none" stroke="black" d="M206.045,-413.174C209.914,-407.263 213.923,-400.962 217.5,-395 222.166,-387.222 226.977,-378.618 231.266,-370.705"/>
<polygon fill="black" stroke="black" points="234.386,-372.293 236.022,-361.825 228.215,-368.988 234.386,-372.293"/>
<text text-anchor="middle" x="253.5" y="-383.8" font-family="Times,serif" font-size="14.00">v6 &lt; v5</text>
</g>
<!-- Node0x21b101a0 -->
<g id="node6" class="node"><title>Node0x21b101a0</title>
<polygon fill="none" stroke="black" points="36,-97.5 36,-285.5 363,-285.5 363,-97.5 36,-97.5"/>
<text text-anchor="start" x="44" y="-270.3" font-family="Times,serif" font-size="14.00">0x7f611d0:</text>
<text text-anchor="start" x="44" y="-255.3" font-family="Times,serif" font-size="14.00"> g39 = g36</text>
<text text-anchor="start" x="44" y="-240.3" font-family="Times,serif" font-size="14.00"> v8 = (v7 &#45; v4)</text>
<text text-anchor="start" x="44" y="-225.3" font-family="Times,serif" font-size="14.00"> g8 = (((v8 ^ v7) &amp; (v7 ^ v4)) &lt; 0)</text>
<text text-anchor="start" x="44" y="-210.3" font-family="Times,serif" font-size="14.00"> g7 = (v8 &lt; 0)</text>
<text text-anchor="start" x="44" y="-195.3" font-family="Times,serif" font-size="14.00"> g36 = (v5 &#45; (v4 if (v7 &lt; v4) else v7))</text>
<text text-anchor="start" x="44" y="-180.3" font-family="Times,serif" font-size="14.00"> v9 = (*(IntToPtrCastExpr&lt;ptr&gt;(v3)) + v7)</text>
<text text-anchor="start" x="44" y="-165.3" font-family="Times,serif" font-size="14.00"> g37 = v9</text>
<text text-anchor="start" x="44" y="-150.3" font-family="Times,serif" font-size="14.00"> *(IntToPtrCastExpr&lt;ptr&gt;(g30)) = v9</text>
<text text-anchor="start" x="44" y="-135.3" font-family="Times,serif" font-size="14.00"> *(IntToPtrCastExpr&lt;ptr&gt;(g39)) = g36</text>
<text text-anchor="start" x="44" y="-120.3" font-family="Times,serif" font-size="14.00"> g39 = v1</text>
<text text-anchor="start" x="44" y="-105.3" font-family="Times,serif" font-size="14.00"> IntToPtrCastExpr&lt;ptr&gt;(v2)()</text>
</g>
<!-- Node0x21b0e9f0&#45;&gt;Node0x21b101a0 -->
<g id="edge5" class="edge"><title>Node0x21b0e9f0&#45;&gt;Node0x21b101a0</title>
<path fill="none" stroke="black" d="M140.716,-323.23C144.237,-315.398 148.65,-305.584 153.467,-294.872"/>
<polygon fill="black" stroke="black" points="156.688,-296.243 157.597,-285.687 150.304,-293.372 156.688,-296.243"/>
</g>
<!-- Node0x21b0fb40&#45;&gt;Node0x21b101a0 -->
<g id="edge6" class="edge"><title>Node0x21b0fb40&#45;&gt;Node0x21b101a0</title>
<path fill="none" stroke="black" d="M239.859,-323.23C237.49,-315.555 234.533,-305.976 231.303,-295.514"/>
<polygon fill="black" stroke="black" points="234.563,-294.209 228.269,-285.687 227.875,-296.274 234.563,-294.209"/>
</g>
<!-- Node0x15918aa0 -->
<g id="node7" class="node"><title>Node0x15918aa0</title>
<polygon fill="none" stroke="black" points="172.5,-23.5 172.5,-59.5 226.5,-59.5 226.5,-23.5 172.5,-23.5"/>
<text text-anchor="start" x="180.5" y="-37.8" font-family="Times,serif" font-size="14.00">exit:</text>
</g>
<!-- Node0x21b101a0&#45;&gt;Node0x15918aa0 -->
<g id="edge7" class="edge"><title>Node0x21b101a0&#45;&gt;Node0x15918aa0</title>
<path fill="none" stroke="black" d="M199.5,-97.1892C199.5,-87.3476 199.5,-77.9959 199.5,-69.8993"/>
<polygon fill="black" stroke="black" points="203,-69.7081 199.5,-59.7081 196,-69.7082 203,-69.7081"/>
</g>
</g>
</svg>
