<?xml version="1.0" encoding="UTF-8" standalone="no"?>
<!DOCTYPE svg PUBLIC "-//W3C//DTD SVG 1.1//EN"
 "http://www.w3.org/Graphics/SVG/1.1/DTD/svg11.dtd">
<!-- Generated by graphviz version 2.38.0 (20140413.2041)
 -->
<!-- Title: Control&#45;flow graph for function &#39;function_18e90()&#39;. Pages: 1 -->
<svg width="883pt" height="3605pt"
 viewBox="0.00 0.00 883.00 3605.00" xmlns="http://www.w3.org/2000/svg" xmlns:xlink="http://www.w3.org/1999/xlink">
<g id="graph0" class="graph" transform="scale(1 1) rotate(0) translate(4 3601)">
<title>Control&#45;flow graph for function &#39;function_18e90()&#39;.</title>
<polygon fill="white" stroke="none" points="-4,4 -4,-3601 879,-3601 879,4 -4,4"/>
<text text-anchor="middle" x="437.5" y="-7.8" font-family="Times,serif" font-size="14.00">Control&#45;flow graph for function &#39;function_18e90()&#39;.</text>
<!-- Node0x24331280 -->
<g id="node1" class="node"><title>Node0x24331280</title>
<polygon fill="none" stroke="black" points="373,-3560.5 373,-3596.5 432,-3596.5 432,-3560.5 373,-3560.5"/>
<text text-anchor="start" x="381" y="-3574.8" font-family="Times,serif" font-size="14.00">entry:</text>
</g>
<!-- Node0x17e945f0 -->
<g id="node2" class="node"><title>Node0x17e945f0</title>
<polygon fill="none" stroke="black" points="234,-3169.5 234,-3522.5 571,-3522.5 571,-3169.5 234,-3169.5"/>
<text text-anchor="start" x="242" y="-3507.3" font-family="Times,serif" font-size="14.00">0x215025c0:</text>
<text text-anchor="start" x="242" y="-3492.3" font-family="Times,serif" font-size="14.00"> v1 = g38</text>
<text text-anchor="start" x="242" y="-3477.3" font-family="Times,serif" font-size="14.00"> v2 = g39</text>
<text text-anchor="start" x="242" y="-3462.3" font-family="Times,serif" font-size="14.00"> v3 = g40</text>
<text text-anchor="start" x="242" y="-3447.3" font-family="Times,serif" font-size="14.00"> v4 = g41</text>
<text text-anchor="start" x="242" y="-3432.3" font-family="Times,serif" font-size="14.00"> v5 = g42</text>
<text text-anchor="start" x="242" y="-3417.3" font-family="Times,serif" font-size="14.00"> v6 = g43</text>
<text text-anchor="start" x="242" y="-3402.3" font-family="Times,serif" font-size="14.00"> v7 = g31</text>
<text text-anchor="start" x="242" y="-3387.3" font-family="Times,serif" font-size="14.00"> v8 = g32</text>
<text text-anchor="start" x="242" y="-3372.3" font-family="Times,serif" font-size="14.00"> v9 = g35</text>
<text text-anchor="start" x="242" y="-3357.3" font-family="Times,serif" font-size="14.00"> v10 = g29</text>
<text text-anchor="start" x="242" y="-3342.3" font-family="Times,serif" font-size="14.00"> g38 = v10</text>
<text text-anchor="start" x="242" y="-3327.3" font-family="Times,serif" font-size="14.00"> v11 = *(IntToPtrCastExpr&lt;ptr&gt;((v10 + 8)))</text>
<text text-anchor="start" x="242" y="-3312.3" font-family="Times,serif" font-size="14.00"> g31 = g30</text>
<text text-anchor="start" x="242" y="-3297.3" font-family="Times,serif" font-size="14.00"> g8 = False</text>
<text text-anchor="start" x="242" y="-3282.3" font-family="Times,serif" font-size="14.00"> g7 = (v11 &lt; 0)</text>
<text text-anchor="start" x="242" y="-3267.3" font-family="Times,serif" font-size="14.00"> g9 = (v11 == 0)</text>
<text text-anchor="start" x="242" y="-3252.3" font-family="Times,serif" font-size="14.00"> v12 = g36</text>
<text text-anchor="start" x="242" y="-3237.3" font-family="Times,serif" font-size="14.00"> g42 = v12</text>
<text text-anchor="start" x="242" y="-3222.3" font-family="Times,serif" font-size="14.00"> v13 = g37</text>
<text text-anchor="start" x="242" y="-3207.3" font-family="Times,serif" font-size="14.00"> g41 = v13</text>
<text text-anchor="start" x="242" y="-3192.3" font-family="Times,serif" font-size="14.00"> v14</text>
<text text-anchor="start" x="242" y="-3177.3" font-family="Times,serif" font-size="14.00"> g43 = v14</text>
</g>
<!-- Node0x24331280&#45;&gt;Node0x17e945f0 -->
<g id="edge1" class="edge"><title>Node0x24331280&#45;&gt;Node0x17e945f0</title>
<path fill="none" stroke="black" d="M402.5,-3560.18C402.5,-3552.8 402.5,-3543.42 402.5,-3532.73"/>
<polygon fill="black" stroke="black" points="406,-3532.55 402.5,-3522.55 399,-3532.55 406,-3532.55"/>
</g>
<!-- Node0x37318320 -->
<g id="node3" class="node"><title>Node0x37318320</title>
<polygon fill="none" stroke="black" points="349,-3093.5 349,-3131.5 456,-3131.5 456,-3093.5 349,-3093.5"/>
<text text-anchor="start" x="357" y="-3116.3" font-family="Times,serif" font-size="14.00">0x8ae2690:</text>
<text text-anchor="start" x="357" y="-3101.3" font-family="Times,serif" font-size="14.00"> if (v11 &lt; 1):</text>
</g>
<!-- Node0x17e945f0&#45;&gt;Node0x37318320 -->
<g id="edge2" class="edge"><title>Node0x17e945f0&#45;&gt;Node0x37318320</title>
<path fill="none" stroke="black" d="M402.5,-3169.24C402.5,-3159.06 402.5,-3149.73 402.5,-3141.74"/>
<polygon fill="black" stroke="black" points="406,-3141.72 402.5,-3131.72 399,-3141.72 406,-3141.72"/>
</g>
<!-- Node0x153a3cc0 -->
<g id="node4" class="node"><title>Node0x153a3cc0</title>
<polygon fill="none" stroke="black" points="0,-2691.5 0,-2894.5 233,-2894.5 233,-2691.5 0,-2691.5"/>
<text text-anchor="start" x="8" y="-2879.3" font-family="Times,serif" font-size="14.00">0x8ae16d0:</text>
<text text-anchor="start" x="8" y="-2864.3" font-family="Times,serif" font-size="14.00"> g29 = 0</text>
<text text-anchor="start" x="8" y="-2849.3" font-family="Times,serif" font-size="14.00"> g38 = v1</text>
<text text-anchor="start" x="8" y="-2834.3" font-family="Times,serif" font-size="14.00"> g39 = v2</text>
<text text-anchor="start" x="8" y="-2819.3" font-family="Times,serif" font-size="14.00"> g40 = v3</text>
<text text-anchor="start" x="8" y="-2804.3" font-family="Times,serif" font-size="14.00"> g41 = v4</text>
<text text-anchor="start" x="8" y="-2789.3" font-family="Times,serif" font-size="14.00"> g42 = v5</text>
<text text-anchor="start" x="8" y="-2774.3" font-family="Times,serif" font-size="14.00"> g43 = v6</text>
<text text-anchor="start" x="8" y="-2759.3" font-family="Times,serif" font-size="14.00"> g31 = v7</text>
<text text-anchor="start" x="8" y="-2744.3" font-family="Times,serif" font-size="14.00"> g32 = v8</text>
<text text-anchor="start" x="8" y="-2729.3" font-family="Times,serif" font-size="14.00"> g34 = v14</text>
<text text-anchor="start" x="8" y="-2714.3" font-family="Times,serif" font-size="14.00"> IntToPtrCastExpr&lt;ptr&gt;(v9)()</text>
<text text-anchor="start" x="8" y="-2699.3" font-family="Times,serif" font-size="14.00"> return</text>
</g>
<!-- Node0x37318320&#45;&gt;Node0x153a3cc0 -->
<g id="edge3" class="edge"><title>Node0x37318320&#45;&gt;Node0x153a3cc0</title>
<path fill="none" stroke="black" d="M385.887,-3093.06C352.932,-3056.47 277.038,-2972.22 214.177,-2902.43"/>
<polygon fill="black" stroke="black" points="216.653,-2899.95 207.36,-2894.87 211.452,-2904.64 216.653,-2899.95"/>
<text text-anchor="middle" x="398" y="-3063.8" font-family="Times,serif" font-size="14.00">v11 &lt; 1</text>
</g>
<!-- Node0x31880200 -->
<g id="node5" class="node"><title>Node0x31880200</title>
<polygon fill="none" stroke="black" points="359.5,-2913.5 359.5,-3041.5 787.5,-3041.5 787.5,-2913.5 359.5,-2913.5"/>
<text text-anchor="start" x="367.5" y="-3026.3" font-family="Times,serif" font-size="14.00">0x8ae2c00:</text>
<text text-anchor="start" x="367.5" y="-3011.3" font-family="Times,serif" font-size="14.00"> g39 = 0</text>
<text text-anchor="start" x="367.5" y="-2996.3" font-family="Times,serif" font-size="14.00"> g37 = (((4 * *(IntToPtrCastExpr&lt;ptr&gt;(v10))) + 14) &amp; &#45;8)</text>
<text text-anchor="start" x="367.5" y="-2981.3" font-family="Times,serif" font-size="14.00"> v15 = &#45;(v13)</text>
<text text-anchor="start" x="367.5" y="-2966.3" font-family="Times,serif" font-size="14.00"> g8 = ((v13 &amp; v15) &lt; 0)</text>
<text text-anchor="start" x="367.5" y="-2951.3" font-family="Times,serif" font-size="14.00"> g7 = (v15 &lt; 0)</text>
<text text-anchor="start" x="367.5" y="-2936.3" font-family="Times,serif" font-size="14.00"> g9 = (v13 == 0)</text>
<text text-anchor="start" x="367.5" y="-2921.3" font-family="Times,serif" font-size="14.00"> v16 = 0</text>
</g>
<!-- Node0x37318320&#45;&gt;Node0x31880200 -->
<g id="edge4" class="edge"><title>Node0x37318320&#45;&gt;Node0x31880200</title>
<path fill="none" stroke="black" d="M425.918,-3093.29C441.397,-3081.25 462.765,-3064.63 484.438,-3047.77"/>
<polygon fill="black" stroke="black" points="486.682,-3050.46 492.427,-3041.56 482.384,-3044.93 486.682,-3050.46"/>
<text text-anchor="middle" x="503" y="-3063.8" font-family="Times,serif" font-size="14.00">v11 &gt;= 1</text>
</g>
<!-- Node0x3187dfb0 -->
<g id="node6" class="node"><title>Node0x3187dfb0</title>
<polygon fill="none" stroke="black" points="335.5,-23.5 335.5,-59.5 389.5,-59.5 389.5,-23.5 335.5,-23.5"/>
<text text-anchor="start" x="343.5" y="-37.8" font-family="Times,serif" font-size="14.00">exit:</text>
</g>
<!-- Node0x153a3cc0&#45;&gt;Node0x3187dfb0 -->
<g id="edge5" class="edge"><title>Node0x153a3cc0&#45;&gt;Node0x3187dfb0</title>
<path fill="none" stroke="black" d="M93.1629,-2691.16C88.7587,-2664.74 85.5,-2636.17 85.5,-2609.5 85.5,-2609.5 85.5,-2609.5 85.5,-198 85.5,-89.2318 249.906,-55.7618 325.4,-46.1263"/>
<polygon fill="black" stroke="black" points="325.925,-49.5884 335.436,-44.9195 325.089,-42.6384 325.925,-49.5884"/>
</g>
<!-- Node0x1539f5c0 -->
<g id="node7" class="node"><title>Node0x1539f5c0</title>
<polygon fill="none" stroke="black" points="597,-2634.5 597,-2672.5 704,-2672.5 704,-2634.5 597,-2634.5"/>
<text text-anchor="start" x="605" y="-2657.3" font-family="Times,serif" font-size="14.00">0x8af2300:</text>
<text text-anchor="start" x="605" y="-2642.3" font-family="Times,serif" font-size="14.00"> if (v13 &gt; 0):</text>
</g>
<!-- Node0x31880200&#45;&gt;Node0x1539f5c0 -->
<g id="edge6" class="edge"><title>Node0x31880200&#45;&gt;Node0x1539f5c0</title>
<path fill="none" stroke="black" d="M588.621,-2913.27C605.345,-2843.33 631.54,-2733.79 643.778,-2682.61"/>
<polygon fill="black" stroke="black" points="647.248,-2683.15 646.17,-2672.61 640.44,-2681.52 647.248,-2683.15"/>
</g>
<!-- Node0x15eb3b80 -->
<g id="node8" class="node"><title>Node0x15eb3b80</title>
<polygon fill="none" stroke="black" points="579,-2439.5 579,-2582.5 722,-2582.5 722,-2439.5 579,-2439.5"/>
<text text-anchor="start" x="587" y="-2567.3" font-family="Times,serif" font-size="14.00">0x8ae41f0:</text>
<text text-anchor="start" x="587" y="-2552.3" font-family="Times,serif" font-size="14.00"> g29 = v10</text>
<text text-anchor="start" x="587" y="-2537.3" font-family="Times,serif" font-size="14.00"> g30 = v12</text>
<text text-anchor="start" x="587" y="-2522.3" font-family="Times,serif" font-size="14.00"> g37 = v14</text>
<text text-anchor="start" x="587" y="-2507.3" font-family="Times,serif" font-size="14.00"> function_18bb8()</text>
<text text-anchor="start" x="587" y="-2492.3" font-family="Times,serif" font-size="14.00"> v17 = g29</text>
<text text-anchor="start" x="587" y="-2477.3" font-family="Times,serif" font-size="14.00"> g8 = False</text>
<text text-anchor="start" x="587" y="-2462.3" font-family="Times,serif" font-size="14.00"> g7 = (v17 &lt; 0)</text>
<text text-anchor="start" x="587" y="-2447.3" font-family="Times,serif" font-size="14.00"> g9 = (v17 == 0)</text>
</g>
<!-- Node0x1539f5c0&#45;&gt;Node0x15eb3b80 -->
<g id="edge7" class="edge"><title>Node0x1539f5c0&#45;&gt;Node0x15eb3b80</title>
<path fill="none" stroke="black" d="M650.5,-2634.42C650.5,-2623.42 650.5,-2608.5 650.5,-2592.86"/>
<polygon fill="black" stroke="black" points="654,-2592.52 650.5,-2582.52 647,-2592.52 654,-2592.52"/>
<text text-anchor="middle" x="679" y="-2604.8" font-family="Times,serif" font-size="14.00">v13 &gt; 0</text>
</g>
<!-- Node0x153a03c0 -->
<g id="node9" class="node"><title>Node0x153a03c0</title>
<polygon fill="none" stroke="black" points="642,-2033.5 642,-2221.5 875,-2221.5 875,-2033.5 642,-2033.5"/>
<text text-anchor="start" x="650" y="-2206.3" font-family="Times,serif" font-size="14.00">0x8af24e0:</text>
<text text-anchor="start" x="650" y="-2191.3" font-family="Times,serif" font-size="14.00"> g29 = v16</text>
<text text-anchor="start" x="650" y="-2176.3" font-family="Times,serif" font-size="14.00"> g38 = v1</text>
<text text-anchor="start" x="650" y="-2161.3" font-family="Times,serif" font-size="14.00"> g39 = v2</text>
<text text-anchor="start" x="650" y="-2146.3" font-family="Times,serif" font-size="14.00"> g40 = v3</text>
<text text-anchor="start" x="650" y="-2131.3" font-family="Times,serif" font-size="14.00"> g41 = v4</text>
<text text-anchor="start" x="650" y="-2116.3" font-family="Times,serif" font-size="14.00"> g42 = v5</text>
<text text-anchor="start" x="650" y="-2101.3" font-family="Times,serif" font-size="14.00"> g43 = v6</text>
<text text-anchor="start" x="650" y="-2086.3" font-family="Times,serif" font-size="14.00"> g31 = v7</text>
<text text-anchor="start" x="650" y="-2071.3" font-family="Times,serif" font-size="14.00"> g32 = v8</text>
<text text-anchor="start" x="650" y="-2056.3" font-family="Times,serif" font-size="14.00"> g34 = v14</text>
<text text-anchor="start" x="650" y="-2041.3" font-family="Times,serif" font-size="14.00"> IntToPtrCastExpr&lt;ptr&gt;(v9)()</text>
</g>
<!-- Node0x1539f5c0&#45;&gt;Node0x153a03c0 -->
<g id="edge8" class="edge"><title>Node0x1539f5c0&#45;&gt;Node0x153a03c0</title>
<path fill="none" stroke="black" d="M687.536,-2634.45C696.025,-2629.24 704.578,-2623.04 711.5,-2616 747.064,-2579.83 758.5,-2562.72 758.5,-2512 758.5,-2512 758.5,-2512 758.5,-2291.5 758.5,-2272.22 758.5,-2251.66 758.5,-2231.86"/>
<polygon fill="black" stroke="black" points="762,-2231.59 758.5,-2221.59 755,-2231.59 762,-2231.59"/>
<text text-anchor="middle" x="793" y="-2378.8" font-family="Times,serif" font-size="14.00">v13 &lt;= 0</text>
</g>
<!-- Node0x32fefed0 -->
<g id="node10" class="node"><title>Node0x32fefed0</title>
<polygon fill="none" stroke="black" points="591,-2363.5 591,-2401.5 710,-2401.5 710,-2363.5 591,-2363.5"/>
<text text-anchor="start" x="599" y="-2386.3" font-family="Times,serif" font-size="14.00">0x8af1f70:</text>
<text text-anchor="start" x="599" y="-2371.3" font-family="Times,serif" font-size="14.00"> if (v17 == 0):</text>
</g>
<!-- Node0x15eb3b80&#45;&gt;Node0x32fefed0 -->
<g id="edge9" class="edge"><title>Node0x15eb3b80&#45;&gt;Node0x32fefed0</title>
<path fill="none" stroke="black" d="M650.5,-2439.35C650.5,-2429.59 650.5,-2420.07 650.5,-2411.74"/>
<polygon fill="black" stroke="black" points="654,-2411.54 650.5,-2401.54 647,-2411.54 654,-2411.54"/>
</g>
<!-- Node0x153a03c0&#45;&gt;Node0x3187dfb0 -->
<g id="edge10" class="edge"><title>Node0x153a03c0&#45;&gt;Node0x3187dfb0</title>
<path fill="none" stroke="black" d="M727.206,-2033.22C723.221,-2014.96 720.5,-1995.79 720.5,-1977.5 720.5,-1977.5 720.5,-1977.5 720.5,-198 720.5,-59.3256 491.722,-42.9931 399.937,-42.0208"/>
<polygon fill="black" stroke="black" points="399.719,-38.5198 389.702,-41.9709 399.685,-45.5197 399.719,-38.5198"/>
</g>
<!-- Node0xfcb43d0 -->
<g id="node11" class="node"><title>Node0xfcb43d0</title>
<polygon fill="none" stroke="black" points="514,-2273.5 514,-2311.5 615,-2311.5 615,-2273.5 514,-2273.5"/>
<text text-anchor="start" x="522" y="-2296.3" font-family="Times,serif" font-size="14.00">0x8af1d40:</text>
<text text-anchor="start" x="522" y="-2281.3" font-family="Times,serif" font-size="14.00"> while True:</text>
</g>
<!-- Node0x32fefed0&#45;&gt;Node0xfcb43d0 -->
<g id="edge11" class="edge"><title>Node0x32fefed0&#45;&gt;Node0xfcb43d0</title>
<path fill="none" stroke="black" d="M614.496,-2363.46C606.291,-2358.26 598.067,-2352.05 591.5,-2345 585.002,-2338.02 579.623,-2329.18 575.422,-2320.81"/>
<polygon fill="black" stroke="black" points="578.567,-2319.27 571.184,-2311.67 572.216,-2322.21 578.567,-2319.27"/>
<text text-anchor="middle" x="626" y="-2333.8" font-family="Times,serif" font-size="14.00">v17 == 0</text>
</g>
<!-- Node0xfcb4b60 -->
<g id="node12" class="node"><title>Node0xfcb4b60</title>
<polygon fill="none" stroke="black" points="633,-2273.5 633,-2311.5 730,-2311.5 730,-2273.5 633,-2273.5"/>
<text text-anchor="start" x="641" y="-2296.3" font-family="Times,serif" font-size="14.00">0x8af2130:</text>
<text text-anchor="start" x="641" y="-2281.3" font-family="Times,serif" font-size="14.00"> v16 = &#45;1</text>
</g>
<!-- Node0x32fefed0&#45;&gt;Node0xfcb4b60 -->
<g id="edge12" class="edge"><title>Node0x32fefed0&#45;&gt;Node0xfcb4b60</title>
<path fill="none" stroke="black" d="M656.923,-2363.27C661.204,-2351.11 666.912,-2334.91 671.749,-2321.18"/>
<polygon fill="black" stroke="black" points="675.064,-2322.31 675.085,-2311.71 668.461,-2319.98 675.064,-2322.31"/>
<text text-anchor="middle" x="700" y="-2333.8" font-family="Times,serif" font-size="14.00">v17 != 0</text>
</g>
<!-- Node0x24335f90 -->
<g id="node13" class="node"><title>Node0x24335f90</title>
<polygon fill="none" stroke="black" points="283.5,-2056 283.5,-2199 579.5,-2199 579.5,-2056 283.5,-2056"/>
<text text-anchor="start" x="291.5" y="-2183.8" font-family="Times,serif" font-size="14.00">0x2333b3b0:</text>
<text text-anchor="start" x="291.5" y="-2168.8" font-family="Times,serif" font-size="14.00"> v18 = g39</text>
<text text-anchor="start" x="291.5" y="-2153.8" font-family="Times,serif" font-size="14.00"> v19 = (g31 + (4 * v18))</text>
<text text-anchor="start" x="291.5" y="-2138.8" font-family="Times,serif" font-size="14.00"> v20 = g38</text>
<text text-anchor="start" x="291.5" y="-2123.8" font-family="Times,serif" font-size="14.00"> v21 = *(IntToPtrCastExpr&lt;ptr&gt;(v20))</text>
<text text-anchor="start" x="291.5" y="-2108.8" font-family="Times,serif" font-size="14.00"> g37 = v21</text>
<text text-anchor="start" x="291.5" y="-2093.8" font-family="Times,serif" font-size="14.00"> g30 = (v19 + 4)</text>
<text text-anchor="start" x="291.5" y="-2078.8" font-family="Times,serif" font-size="14.00"> v22</text>
<text text-anchor="start" x="291.5" y="-2063.8" font-family="Times,serif" font-size="14.00"> v23</text>
</g>
<!-- Node0xfcb43d0&#45;&gt;Node0x24335f90 -->
<g id="edge13" class="edge"><title>Node0xfcb43d0&#45;&gt;Node0x24335f90</title>
<path fill="none" stroke="black" d="M549.759,-2273.43C536.454,-2257.13 515.917,-2231.96 495.668,-2207.14"/>
<polygon fill="black" stroke="black" points="498.147,-2204.64 489.114,-2199.11 492.724,-2209.07 498.147,-2204.64"/>
<text text-anchor="middle" x="549.5" y="-2243.8" font-family="Times,serif" font-size="14.00">True</text>
</g>
<!-- Node0xfcb4b60&#45;&gt;Node0x153a03c0 -->
<g id="edge14" class="edge"><title>Node0xfcb4b60&#45;&gt;Node0x153a03c0</title>
<path fill="none" stroke="black" d="M690.035,-2273.43C695.255,-2262.38 702.398,-2247.26 710.109,-2230.94"/>
<polygon fill="black" stroke="black" points="713.336,-2232.3 714.443,-2221.76 707.007,-2229.31 713.336,-2232.3"/>
</g>
<!-- Node0x243345c0 -->
<g id="node14" class="node"><title>Node0x243345c0</title>
<polygon fill="none" stroke="black" points="368,-1957.5 368,-1995.5 487,-1995.5 487,-1957.5 368,-1957.5"/>
<text text-anchor="start" x="376" y="-1980.3" font-family="Times,serif" font-size="14.00">0x8aee570:</text>
<text text-anchor="start" x="376" y="-1965.3" font-family="Times,serif" font-size="14.00"> if (v21 &lt;= 0):</text>
</g>
<!-- Node0x24335f90&#45;&gt;Node0x243345c0 -->
<g id="edge15" class="edge"><title>Node0x24335f90&#45;&gt;Node0x243345c0</title>
<path fill="none" stroke="black" d="M429.605,-2055.93C429.129,-2038.18 428.645,-2020.14 428.261,-2005.85"/>
<polygon fill="black" stroke="black" points="431.756,-2005.61 427.989,-1995.71 424.759,-2005.8 431.756,-2005.61"/>
</g>
<!-- Node0x17e9b290 -->
<g id="node15" class="node"><title>Node0x17e9b290</title>
<polygon fill="none" stroke="black" points="102,-1750.5 102,-1848.5 403,-1848.5 403,-1750.5 102,-1750.5"/>
<text text-anchor="start" x="110" y="-1833.3" font-family="Times,serif" font-size="14.00">0x8aee710:</text>
<text text-anchor="start" x="110" y="-1818.3" font-family="Times,serif" font-size="14.00"> v22 = g41</text>
<text text-anchor="start" x="110" y="-1803.3" font-family="Times,serif" font-size="14.00"> v23 = (v18 &#45; v22)</text>
<text text-anchor="start" x="110" y="-1788.3" font-family="Times,serif" font-size="14.00"> g8 = (((v23 ^ v18) &amp; (v18 ^ v22)) &lt; 0)</text>
<text text-anchor="start" x="110" y="-1773.3" font-family="Times,serif" font-size="14.00"> g7 = (v23 &lt; 0)</text>
<text text-anchor="start" x="110" y="-1758.3" font-family="Times,serif" font-size="14.00"> g9 = (v18 == v22)</text>
</g>
<!-- Node0x243345c0&#45;&gt;Node0x17e9b290 -->
<g id="edge16" class="edge"><title>Node0x243345c0&#45;&gt;Node0x17e9b290</title>
<path fill="none" stroke="black" d="M382.963,-1957.43C373.034,-1952.29 362.954,-1946.12 354.5,-1939 327.292,-1916.09 303.321,-1884.52 285.466,-1857.3"/>
<polygon fill="black" stroke="black" points="288.242,-1855.15 279.887,-1848.63 282.356,-1858.94 288.242,-1855.15"/>
<text text-anchor="middle" x="389" y="-1927.8" font-family="Times,serif" font-size="14.00">v21 &lt;= 0</text>
</g>
<!-- Node0x24333840 -->
<g id="node16" class="node"><title>Node0x24333840</title>
<polygon fill="none" stroke="black" points="377,-1867.5 377,-1905.5 478,-1905.5 478,-1867.5 377,-1867.5"/>
<text text-anchor="start" x="385" y="-1890.3" font-family="Times,serif" font-size="14.00">0x8aee410:</text>
<text text-anchor="start" x="385" y="-1875.3" font-family="Times,serif" font-size="14.00"> while True:</text>
</g>
<!-- Node0x243345c0&#45;&gt;Node0x24333840 -->
<g id="edge17" class="edge"><title>Node0x243345c0&#45;&gt;Node0x24333840</title>
<path fill="none" stroke="black" d="M427.5,-1957.27C427.5,-1945.35 427.5,-1929.54 427.5,-1915.98"/>
<polygon fill="black" stroke="black" points="431,-1915.71 427.5,-1905.71 424,-1915.71 431,-1915.71"/>
<text text-anchor="middle" x="456" y="-1927.8" font-family="Times,serif" font-size="14.00">v21 &gt; 0</text>
</g>
<!-- Node0x17e999e0 -->
<g id="node17" class="node"><title>Node0x17e999e0</title>
<polygon fill="none" stroke="black" points="141.5,-1211.5 141.5,-1249.5 265.5,-1249.5 265.5,-1211.5 141.5,-1211.5"/>
<text text-anchor="start" x="149.5" y="-1234.3" font-family="Times,serif" font-size="14.00">0x8aef530:</text>
<text text-anchor="start" x="149.5" y="-1219.3" font-family="Times,serif" font-size="14.00"> if (v18 &lt; v22):</text>
</g>
<!-- Node0x17e9b290&#45;&gt;Node0x17e999e0 -->
<g id="edge18" class="edge"><title>Node0x17e9b290&#45;&gt;Node0x17e999e0</title>
<path fill="none" stroke="black" d="M242.457,-1750.39C230.901,-1690.74 213.5,-1585.84 213.5,-1495 213.5,-1495 213.5,-1495 213.5,-1350.5 213.5,-1319.4 210.066,-1283.88 207.222,-1259.8"/>
<polygon fill="black" stroke="black" points="210.663,-1259.1 205.972,-1249.6 203.715,-1259.96 210.663,-1259.1"/>
</g>
<!-- Node0x44c2fbd0 -->
<g id="node18" class="node"><title>Node0x44c2fbd0</title>
<polygon fill="none" stroke="black" points="251.5,-1513.5 251.5,-1731.5 547.5,-1731.5 547.5,-1513.5 251.5,-1513.5"/>
<text text-anchor="start" x="259.5" y="-1716.3" font-family="Times,serif" font-size="14.00">0x1e16b070:</text>
<text text-anchor="start" x="259.5" y="-1701.3" font-family="Times,serif" font-size="14.00"> v24</text>
<text text-anchor="start" x="259.5" y="-1686.3" font-family="Times,serif" font-size="14.00"> g36 = v24</text>
<text text-anchor="start" x="259.5" y="-1671.3" font-family="Times,serif" font-size="14.00"> v25 = IntToPtrCastExpr&lt;ptr&gt;(v19)</text>
<text text-anchor="start" x="259.5" y="-1656.3" font-family="Times,serif" font-size="14.00"> g39 = (v18 + 1)</text>
<text text-anchor="start" x="259.5" y="-1641.3" font-family="Times,serif" font-size="14.00"> *(v25) = (*(v25) + v24)</text>
<text text-anchor="start" x="259.5" y="-1626.3" font-family="Times,serif" font-size="14.00"> v26 = (g29 + 1)</text>
<text text-anchor="start" x="259.5" y="-1611.3" font-family="Times,serif" font-size="14.00"> g29 = v26</text>
<text text-anchor="start" x="259.5" y="-1596.3" font-family="Times,serif" font-size="14.00"> v27 = g30</text>
<text text-anchor="start" x="259.5" y="-1581.3" font-family="Times,serif" font-size="14.00"> v28 = g38</text>
<text text-anchor="start" x="259.5" y="-1566.3" font-family="Times,serif" font-size="14.00"> v29 = *(IntToPtrCastExpr&lt;ptr&gt;(v28))</text>
<text text-anchor="start" x="259.5" y="-1551.3" font-family="Times,serif" font-size="14.00"> g37 = v29</text>
<text text-anchor="start" x="259.5" y="-1536.3" font-family="Times,serif" font-size="14.00"> g30 = (v27 + 4)</text>
<text text-anchor="start" x="259.5" y="-1521.3" font-family="Times,serif" font-size="14.00"> v30 = g39</text>
</g>
<!-- Node0x24333840&#45;&gt;Node0x44c2fbd0 -->
<g id="edge19" class="edge"><title>Node0x24333840&#45;&gt;Node0x44c2fbd0</title>
<path fill="none" stroke="black" d="M425.575,-1867.49C422.767,-1841.21 417.311,-1790.16 412.113,-1741.53"/>
<polygon fill="black" stroke="black" points="415.587,-1741.09 411.044,-1731.52 408.626,-1741.83 415.587,-1741.09"/>
<text text-anchor="middle" x="440.5" y="-1795.8" font-family="Times,serif" font-size="14.00">True</text>
</g>
<!-- Node0x31882f10 -->
<g id="node19" class="node"><title>Node0x31882f10</title>
<polygon fill="none" stroke="black" points="244.5,-1091.5 244.5,-1129.5 380.5,-1129.5 380.5,-1091.5 244.5,-1091.5"/>
<text text-anchor="start" x="252.5" y="-1114.3" font-family="Times,serif" font-size="14.00">0x8aef480:</text>
<text text-anchor="start" x="252.5" y="-1099.3" font-family="Times,serif" font-size="14.00"> goto 0x8aeb880</text>
</g>
<!-- Node0x17e999e0&#45;&gt;Node0x31882f10 -->
<g id="edge20" class="edge"><title>Node0x17e999e0&#45;&gt;Node0x31882f10</title>
<path fill="none" stroke="black" d="M234.536,-1211.48C252.789,-1199.61 275.212,-1182.66 290.5,-1163 295.931,-1156.02 300.281,-1147.49 303.632,-1139.4"/>
<polygon fill="black" stroke="black" points="306.968,-1140.47 307.23,-1129.88 300.42,-1138 306.968,-1140.47"/>
<text text-anchor="middle" x="336.5" y="-1151.8" font-family="Times,serif" font-size="14.00">v18 &lt; v22</text>
</g>
<!-- Node0x17e99820 -->
<g id="node20" class="node"><title>Node0x17e99820</title>
<polygon fill="none" stroke="black" points="101,-869.5 101,-1072.5 334,-1072.5 334,-869.5 101,-869.5"/>
<text text-anchor="start" x="109" y="-1057.3" font-family="Times,serif" font-size="14.00">0x8aef7b0:</text>
<text text-anchor="start" x="109" y="-1042.3" font-family="Times,serif" font-size="14.00"> g29 = 0</text>
<text text-anchor="start" x="109" y="-1027.3" font-family="Times,serif" font-size="14.00"> g38 = v1</text>
<text text-anchor="start" x="109" y="-1012.3" font-family="Times,serif" font-size="14.00"> g39 = v2</text>
<text text-anchor="start" x="109" y="-997.3" font-family="Times,serif" font-size="14.00"> g40 = v3</text>
<text text-anchor="start" x="109" y="-982.3" font-family="Times,serif" font-size="14.00"> g41 = v4</text>
<text text-anchor="start" x="109" y="-967.3" font-family="Times,serif" font-size="14.00"> g42 = v5</text>
<text text-anchor="start" x="109" y="-952.3" font-family="Times,serif" font-size="14.00"> g43 = v6</text>
<text text-anchor="start" x="109" y="-937.3" font-family="Times,serif" font-size="14.00"> g31 = v7</text>
<text text-anchor="start" x="109" y="-922.3" font-family="Times,serif" font-size="14.00"> g32 = v8</text>
<text text-anchor="start" x="109" y="-907.3" font-family="Times,serif" font-size="14.00"> g34 = v14</text>
<text text-anchor="start" x="109" y="-892.3" font-family="Times,serif" font-size="14.00"> IntToPtrCastExpr&lt;ptr&gt;(v9)()</text>
<text text-anchor="start" x="109" y="-877.3" font-family="Times,serif" font-size="14.00"> return</text>
</g>
<!-- Node0x17e999e0&#45;&gt;Node0x17e99820 -->
<g id="edge21" class="edge"><title>Node0x17e999e0&#45;&gt;Node0x17e99820</title>
<path fill="none" stroke="black" d="M202.465,-1211.44C201.752,-1198.07 200.87,-1179.41 200.5,-1163 199.917,-1137.14 201.254,-1109.39 203.398,-1083.27"/>
<polygon fill="black" stroke="black" points="206.915,-1083.23 204.292,-1072.97 199.941,-1082.63 206.915,-1083.23"/>
<text text-anchor="middle" x="243.5" y="-1151.8" font-family="Times,serif" font-size="14.00">v18 &gt;= v22</text>
</g>
<!-- Node0x3731df30 -->
<g id="node21" class="node"><title>Node0x3731df30</title>
<polygon fill="none" stroke="black" points="331.5,-1437.5 331.5,-1475.5 467.5,-1475.5 467.5,-1437.5 331.5,-1437.5"/>
<text text-anchor="start" x="339.5" y="-1460.3" font-family="Times,serif" font-size="14.00">0x8aea050:</text>
<text text-anchor="start" x="339.5" y="-1445.3" font-family="Times,serif" font-size="14.00"> if (v26 &gt;= v29):</text>
</g>
<!-- Node0x44c2fbd0&#45;&gt;Node0x3731df30 -->
<g id="edge22" class="edge"><title>Node0x44c2fbd0&#45;&gt;Node0x3731df30</title>
<path fill="none" stroke="black" d="M399.5,-1513.48C399.5,-1503.59 399.5,-1494.25 399.5,-1486.15"/>
<polygon fill="black" stroke="black" points="403,-1485.92 399.5,-1475.92 396,-1485.92 403,-1485.92"/>
</g>
<!-- Node0x44c2da10 -->
<g id="node22" class="node"><title>Node0x44c2da10</title>
<polygon fill="none" stroke="black" points="278,-707.5 278,-850.5 421,-850.5 421,-707.5 278,-707.5"/>
<text text-anchor="start" x="286" y="-835.3" font-family="Times,serif" font-size="14.00">0x8aeb880:</text>
<text text-anchor="start" x="286" y="-820.3" font-family="Times,serif" font-size="14.00"> g29 = v20</text>
<text text-anchor="start" x="286" y="-805.3" font-family="Times,serif" font-size="14.00"> g30 = g42</text>
<text text-anchor="start" x="286" y="-790.3" font-family="Times,serif" font-size="14.00"> g37 = g43</text>
<text text-anchor="start" x="286" y="-775.3" font-family="Times,serif" font-size="14.00"> function_18bb8()</text>
<text text-anchor="start" x="286" y="-760.3" font-family="Times,serif" font-size="14.00"> v31 = g29</text>
<text text-anchor="start" x="286" y="-745.3" font-family="Times,serif" font-size="14.00"> g8 = False</text>
<text text-anchor="start" x="286" y="-730.3" font-family="Times,serif" font-size="14.00"> g7 = (v31 &lt; 0)</text>
<text text-anchor="start" x="286" y="-715.3" font-family="Times,serif" font-size="14.00"> g9 = (v31 == 0)</text>
</g>
<!-- Node0x31882f10&#45;&gt;Node0x44c2da10 -->
<g id="edge23" class="edge"><title>Node0x31882f10&#45;&gt;Node0x44c2da10</title>
<path fill="none" stroke="black" d="M326.417,-1091.47C330.032,-1085.85 333.476,-1079.43 335.5,-1073 357.294,-1003.78 359.162,-920.829 356.536,-860.886"/>
<polygon fill="black" stroke="black" points="360.023,-860.538 356.037,-850.721 353.031,-860.88 360.023,-860.538"/>
</g>
<!-- Node0x17e99820&#45;&gt;Node0x3187dfb0 -->
<g id="edge24" class="edge"><title>Node0x17e99820&#45;&gt;Node0x3187dfb0</title>
<path fill="none" stroke="black" d="M217.5,-869.464C217.5,-792.43 217.5,-683.5 217.5,-588 217.5,-588 217.5,-588 217.5,-198 217.5,-152.324 207.984,-132.681 236.5,-97 258.366,-69.6399 296.647,-55.7325 325.293,-48.8487"/>
<polygon fill="black" stroke="black" points="326.356,-52.1982 335.362,-46.6185 324.842,-45.3638 326.356,-52.1982"/>
</g>
<!-- Node0x47cf0f30 -->
<g id="node23" class="node"><title>Node0x47cf0f30</title>
<polygon fill="none" stroke="black" points="337.5,-1317.5 337.5,-1385.5 437.5,-1385.5 437.5,-1317.5 337.5,-1317.5"/>
<text text-anchor="start" x="345.5" y="-1370.3" font-family="Times,serif" font-size="14.00">0x8ae96b0:</text>
<text text-anchor="start" x="345.5" y="-1355.3" font-family="Times,serif" font-size="14.00"> v18 = v30</text>
<text text-anchor="start" x="345.5" y="-1340.3" font-family="Times,serif" font-size="14.00"> v20 = v28</text>
<text text-anchor="start" x="345.5" y="-1325.3" font-family="Times,serif" font-size="14.00"> break</text>
</g>
<!-- Node0x3731df30&#45;&gt;Node0x47cf0f30 -->
<g id="edge25" class="edge"><title>Node0x3731df30&#45;&gt;Node0x47cf0f30</title>
<path fill="none" stroke="black" d="M386.604,-1437.38C383.298,-1431.76 380.198,-1425.36 378.5,-1419 376.514,-1411.57 376.152,-1403.54 376.708,-1395.72"/>
<polygon fill="black" stroke="black" points="380.202,-1395.98 377.909,-1385.64 373.251,-1395.15 380.202,-1395.98"/>
<text text-anchor="middle" x="421.5" y="-1407.8" font-family="Times,serif" font-size="14.00">v26 &gt;= v29</text>
</g>
<!-- Node0x44c2e5b0 -->
<g id="node24" class="node"><title>Node0x44c2e5b0</title>
<polygon fill="none" stroke="black" points="475.5,-1325 475.5,-1378 575.5,-1378 575.5,-1325 475.5,-1325"/>
<text text-anchor="start" x="483.5" y="-1362.8" font-family="Times,serif" font-size="14.00">0x8ae98b0:</text>
<text text-anchor="start" x="483.5" y="-1347.8" font-family="Times,serif" font-size="14.00"> v18 = v30</text>
<text text-anchor="start" x="483.5" y="-1332.8" font-family="Times,serif" font-size="14.00"> v19 = v27</text>
</g>
<!-- Node0x3731df30&#45;&gt;Node0x44c2e5b0 -->
<g id="edge26" class="edge"><title>Node0x3731df30&#45;&gt;Node0x44c2e5b0</title>
<path fill="none" stroke="black" d="M436.559,-1437.35C446.052,-1432 455.979,-1425.75 464.5,-1419 476.771,-1409.28 488.758,-1397.01 498.812,-1385.67"/>
<polygon fill="black" stroke="black" points="501.545,-1387.86 505.443,-1378.01 496.253,-1383.28 501.545,-1387.86"/>
<text text-anchor="middle" x="518.5" y="-1407.8" font-family="Times,serif" font-size="14.00">v26 &lt; v29</text>
</g>
<!-- Node0x31882ab0 -->
<g id="node25" class="node"><title>Node0x31882ab0</title>
<polygon fill="none" stroke="black" points="293,-428.5 293,-466.5 406,-466.5 406,-428.5 293,-428.5"/>
<text text-anchor="start" x="301" y="-451.3" font-family="Times,serif" font-size="14.00">0x8aecdf0:</text>
<text text-anchor="start" x="301" y="-436.3" font-family="Times,serif" font-size="14.00"> if (v31 != 0):</text>
</g>
<!-- Node0x44c2da10&#45;&gt;Node0x31882ab0 -->
<g id="edge27" class="edge"><title>Node0x44c2da10&#45;&gt;Node0x31882ab0</title>
<path fill="none" stroke="black" d="M349.5,-707.314C349.5,-635.436 349.5,-527.635 349.5,-476.866"/>
<polygon fill="black" stroke="black" points="353,-476.648 349.5,-466.648 346,-476.648 353,-476.648"/>
</g>
<!-- Node0x24332a60 -->
<g id="node26" class="node"><title>Node0x24332a60</title>
<polygon fill="none" stroke="black" points="284,-1181.5 284,-1279.5 585,-1279.5 585,-1181.5 284,-1181.5"/>
<text text-anchor="start" x="292" y="-1264.3" font-family="Times,serif" font-size="14.00">0x8aea2b0:</text>
<text text-anchor="start" x="292" y="-1249.3" font-family="Times,serif" font-size="14.00"> v22 = g41</text>
<text text-anchor="start" x="292" y="-1234.3" font-family="Times,serif" font-size="14.00"> v23 = (v18 &#45; v22)</text>
<text text-anchor="start" x="292" y="-1219.3" font-family="Times,serif" font-size="14.00"> g8 = (((v23 ^ v18) &amp; (v18 ^ v22)) &lt; 0)</text>
<text text-anchor="start" x="292" y="-1204.3" font-family="Times,serif" font-size="14.00"> g7 = (v23 &lt; 0)</text>
<text text-anchor="start" x="292" y="-1189.3" font-family="Times,serif" font-size="14.00"> g9 = (v18 == v22)</text>
</g>
<!-- Node0x47cf0f30&#45;&gt;Node0x24332a60 -->
<g id="edge28" class="edge"><title>Node0x47cf0f30&#45;&gt;Node0x24332a60</title>
<path fill="none" stroke="black" d="M400.592,-1317.35C404.091,-1308.49 407.976,-1298.66 411.832,-1288.89"/>
<polygon fill="black" stroke="black" points="415.087,-1290.18 415.505,-1279.59 408.576,-1287.61 415.087,-1290.18"/>
</g>
<!-- Node0x44c2e5b0&#45;&gt;Node0x24333840 -->
<g id="edge29" class="edge"><title>Node0x44c2e5b0&#45;&gt;Node0x24333840</title>
<path fill="none" stroke="black" d="M546.706,-1378.26C551.923,-1386.06 556.788,-1394.97 559.5,-1404 561.418,-1410.38 559.532,-1412.33 559.5,-1419 558.833,-1558.12 603.652,-1601.12 556.5,-1732 537.194,-1785.59 489.863,-1833.39 458.222,-1860.9"/>
<polygon fill="black" stroke="black" points="455.88,-1858.3 450.543,-1867.45 460.423,-1863.62 455.88,-1858.3"/>
</g>
<!-- Node0x3731afc0 -->
<g id="node27" class="node"><title>Node0x3731afc0</title>
<polygon fill="none" stroke="black" points="295,-338.5 295,-376.5 394,-376.5 394,-338.5 295,-338.5"/>
<text text-anchor="start" x="303" y="-361.3" font-family="Times,serif" font-size="14.00">0x8aecbd0:</text>
<text text-anchor="start" x="303" y="-346.3" font-family="Times,serif" font-size="14.00"> break</text>
</g>
<!-- Node0x31882ab0&#45;&gt;Node0x3731afc0 -->
<g id="edge30" class="edge"><title>Node0x31882ab0&#45;&gt;Node0x3731afc0</title>
<path fill="none" stroke="black" d="M344.733,-428.433C343.41,-422.594 342.157,-416.063 341.5,-410 340.687,-402.496 340.735,-394.35 341.164,-386.8"/>
<polygon fill="black" stroke="black" points="344.668,-386.897 341.976,-376.65 337.69,-386.339 344.668,-386.897"/>
<text text-anchor="middle" x="373" y="-398.8" font-family="Times,serif" font-size="14.00">v31 != 0</text>
</g>
<!-- Node0x18700a20 -->
<g id="node28" class="node"><title>Node0x18700a20</title>
<polygon fill="none" stroke="black" points="553,-338.5 553,-376.5 652,-376.5 652,-338.5 553,-338.5"/>
<text text-anchor="start" x="561" y="-361.3" font-family="Times,serif" font-size="14.00">0x8aecd50:</text>
<text text-anchor="start" x="561" y="-346.3" font-family="Times,serif" font-size="14.00"> continue</text>
</g>
<!-- Node0x31882ab0&#45;&gt;Node0x18700a20 -->
<g id="edge31" class="edge"><title>Node0x31882ab0&#45;&gt;Node0x18700a20</title>
<path fill="none" stroke="black" d="M401.309,-428.48C442.57,-414.128 500.35,-394.031 543.409,-379.053"/>
<polygon fill="black" stroke="black" points="544.617,-382.339 552.913,-375.748 542.318,-375.727 544.617,-382.339"/>
<text text-anchor="middle" x="526" y="-398.8" font-family="Times,serif" font-size="14.00">v31 == 0</text>
</g>
<!-- Node0x243317b0 -->
<g id="node29" class="node"><title>Node0x243317b0</title>
<polygon fill="none" stroke="black" points="398.5,-1091.5 398.5,-1129.5 522.5,-1129.5 522.5,-1091.5 398.5,-1091.5"/>
<text text-anchor="start" x="406.5" y="-1114.3" font-family="Times,serif" font-size="14.00">0x8aecfd0:</text>
<text text-anchor="start" x="406.5" y="-1099.3" font-family="Times,serif" font-size="14.00"> if (v18 &lt; v22):</text>
</g>
<!-- Node0x24332a60&#45;&gt;Node0x243317b0 -->
<g id="edge32" class="edge"><title>Node0x24332a60&#45;&gt;Node0x243317b0</title>
<path fill="none" stroke="black" d="M445.15,-1181.16C448.284,-1166.94 451.606,-1151.87 454.355,-1139.39"/>
<polygon fill="black" stroke="black" points="457.779,-1140.12 456.512,-1129.6 450.943,-1138.61 457.779,-1140.12"/>
</g>
<!-- Node0x351e98c0 -->
<g id="node30" class="node"><title>Node0x351e98c0</title>
<polygon fill="none" stroke="black" points="246,-97.5 246,-300.5 479,-300.5 479,-97.5 246,-97.5"/>
<text text-anchor="start" x="254" y="-285.3" font-family="Times,serif" font-size="14.00">0x8af0880:</text>
<text text-anchor="start" x="254" y="-270.3" font-family="Times,serif" font-size="14.00"> g29 = &#45;1</text>
<text text-anchor="start" x="254" y="-255.3" font-family="Times,serif" font-size="14.00"> g38 = v1</text>
<text text-anchor="start" x="254" y="-240.3" font-family="Times,serif" font-size="14.00"> g39 = v2</text>
<text text-anchor="start" x="254" y="-225.3" font-family="Times,serif" font-size="14.00"> g40 = v3</text>
<text text-anchor="start" x="254" y="-210.3" font-family="Times,serif" font-size="14.00"> g41 = v4</text>
<text text-anchor="start" x="254" y="-195.3" font-family="Times,serif" font-size="14.00"> g42 = v5</text>
<text text-anchor="start" x="254" y="-180.3" font-family="Times,serif" font-size="14.00"> g43 = v6</text>
<text text-anchor="start" x="254" y="-165.3" font-family="Times,serif" font-size="14.00"> g31 = v7</text>
<text text-anchor="start" x="254" y="-150.3" font-family="Times,serif" font-size="14.00"> g32 = v8</text>
<text text-anchor="start" x="254" y="-135.3" font-family="Times,serif" font-size="14.00"> g34 = v14</text>
<text text-anchor="start" x="254" y="-120.3" font-family="Times,serif" font-size="14.00"> IntToPtrCastExpr&lt;ptr&gt;(v9)()</text>
<text text-anchor="start" x="254" y="-105.3" font-family="Times,serif" font-size="14.00"> return</text>
</g>
<!-- Node0x3731afc0&#45;&gt;Node0x351e98c0 -->
<g id="edge33" class="edge"><title>Node0x3731afc0&#45;&gt;Node0x351e98c0</title>
<path fill="none" stroke="black" d="M346.6,-338.241C347.472,-330.664 348.559,-321.212 349.753,-310.828"/>
<polygon fill="black" stroke="black" points="353.262,-310.952 350.927,-300.618 346.308,-310.152 353.262,-310.952"/>
</g>
<!-- Node0x18700a20&#45;&gt;Node0xfcb43d0 -->
<g id="edge34" class="edge"><title>Node0x18700a20&#45;&gt;Node0xfcb43d0</title>
<path fill="none" stroke="black" d="M606.102,-376.62C609.31,-394.354 613.5,-422.173 613.5,-446.5 613.5,-2128.5 613.5,-2128.5 613.5,-2128.5 613.5,-2178.04 592.484,-2232.6 577.979,-2264.36"/>
<polygon fill="black" stroke="black" points="574.792,-2262.92 573.717,-2273.46 581.13,-2265.89 574.792,-2262.92"/>
</g>
<!-- Node0x243317b0&#45;&gt;Node0x44c2da10 -->
<g id="edge35" class="edge"><title>Node0x243317b0&#45;&gt;Node0x44c2da10</title>
<path fill="none" stroke="black" d="M405.18,-1091.34C397.183,-1086.53 389.859,-1080.5 384.5,-1073 357.975,-1035.85 365.966,-914.318 360.5,-869 360.179,-866.339 359.851,-863.632 359.52,-860.9"/>
<polygon fill="black" stroke="black" points="362.988,-860.424 358.304,-850.921 356.039,-861.271 362.988,-860.424"/>
<text text-anchor="middle" x="421.5" y="-967.3" font-family="Times,serif" font-size="14.00">v18 &lt; v22</text>
</g>
<!-- Node0x24331510 -->
<g id="node31" class="node"><title>Node0x24331510</title>
<polygon fill="none" stroke="black" points="365,-485.5 365,-688.5 598,-688.5 598,-485.5 365,-485.5"/>
<text text-anchor="start" x="373" y="-673.3" font-family="Times,serif" font-size="14.00">0x8aed1f0:</text>
<text text-anchor="start" x="373" y="-658.3" font-family="Times,serif" font-size="14.00"> g29 = 0</text>
<text text-anchor="start" x="373" y="-643.3" font-family="Times,serif" font-size="14.00"> g38 = v1</text>
<text text-anchor="start" x="373" y="-628.3" font-family="Times,serif" font-size="14.00"> g39 = v2</text>
<text text-anchor="start" x="373" y="-613.3" font-family="Times,serif" font-size="14.00"> g40 = v3</text>
<text text-anchor="start" x="373" y="-598.3" font-family="Times,serif" font-size="14.00"> g41 = v4</text>
<text text-anchor="start" x="373" y="-583.3" font-family="Times,serif" font-size="14.00"> g42 = v5</text>
<text text-anchor="start" x="373" y="-568.3" font-family="Times,serif" font-size="14.00"> g43 = v6</text>
<text text-anchor="start" x="373" y="-553.3" font-family="Times,serif" font-size="14.00"> g31 = v7</text>
<text text-anchor="start" x="373" y="-538.3" font-family="Times,serif" font-size="14.00"> g32 = v8</text>
<text text-anchor="start" x="373" y="-523.3" font-family="Times,serif" font-size="14.00"> g34 = v14</text>
<text text-anchor="start" x="373" y="-508.3" font-family="Times,serif" font-size="14.00"> IntToPtrCastExpr&lt;ptr&gt;(v9)()</text>
<text text-anchor="start" x="373" y="-493.3" font-family="Times,serif" font-size="14.00"> return</text>
</g>
<!-- Node0x243317b0&#45;&gt;Node0x24331510 -->
<g id="edge36" class="edge"><title>Node0x243317b0&#45;&gt;Node0x24331510</title>
<path fill="none" stroke="black" d="M461.235,-1091.25C463.707,-1029.86 471.855,-827.515 477.035,-698.871"/>
<polygon fill="black" stroke="black" points="480.544,-698.718 477.45,-688.586 473.55,-698.437 480.544,-698.718"/>
<text text-anchor="middle" x="513.5" y="-967.3" font-family="Times,serif" font-size="14.00">v18 &gt;= v22</text>
</g>
<!-- Node0x351e98c0&#45;&gt;Node0x3187dfb0 -->
<g id="edge37" class="edge"><title>Node0x351e98c0&#45;&gt;Node0x3187dfb0</title>
<path fill="none" stroke="black" d="M362.5,-97.3235C362.5,-87.3683 362.5,-77.9638 362.5,-69.8472"/>
<polygon fill="black" stroke="black" points="366,-69.6466 362.5,-59.6466 359,-69.6467 366,-69.6466"/>
</g>
<!-- Node0x24331510&#45;&gt;Node0x3187dfb0 -->
<g id="edge38" class="edge"><title>Node0x24331510&#45;&gt;Node0x3187dfb0</title>
<path fill="none" stroke="black" d="M503.331,-485.093C507.452,-458.673 510.5,-430.128 510.5,-403.5 510.5,-403.5 510.5,-403.5 510.5,-198 510.5,-151.962 516.868,-132.455 487.5,-97 465.442,-70.3699 427.863,-56.3861 399.654,-49.2868"/>
<polygon fill="black" stroke="black" points="400.266,-45.8355 389.732,-46.9721 398.675,-52.6524 400.266,-45.8355"/>
</g>
</g>
</svg>
