<?xml version="1.0" encoding="UTF-8" standalone="no"?>
<!DOCTYPE svg PUBLIC "-//W3C//DTD SVG 1.1//EN"
 "http://www.w3.org/Graphics/SVG/1.1/DTD/svg11.dtd">
<!-- Generated by graphviz version 2.38.0 (20140413.2041)
 -->
<!-- Title: Control&#45;flow graph for function &#39;SpPlaybackGetPosition()&#39;. Pages: 1 -->
<svg width="583pt" height="1183pt"
 viewBox="0.00 0.00 583.00 1183.00" xmlns="http://www.w3.org/2000/svg" xmlns:xlink="http://www.w3.org/1999/xlink">
<g id="graph0" class="graph" transform="scale(1 1) rotate(0) translate(4 1179)">
<title>Control&#45;flow graph for function &#39;SpPlaybackGetPosition()&#39;.</title>
<polygon fill="white" stroke="none" points="-4,4 -4,-1179 579,-1179 579,4 -4,4"/>
<text text-anchor="middle" x="287.5" y="-7.8" font-family="Times,serif" font-size="14.00">Control&#45;flow graph for function &#39;SpPlaybackGetPosition()&#39;.</text>
<!-- Node0x2847a0f0 -->
<g id="node1" class="node"><title>Node0x2847a0f0</title>
<polygon fill="none" stroke="black" points="146.5,-1138.5 146.5,-1174.5 205.5,-1174.5 205.5,-1138.5 146.5,-1138.5"/>
<text text-anchor="start" x="154.5" y="-1152.8" font-family="Times,serif" font-size="14.00">entry:</text>
</g>
<!-- Node0x383b01c0 -->
<g id="node2" class="node"><title>Node0x383b01c0</title>
<polygon fill="none" stroke="black" points="18.5,-987.5 18.5,-1100.5 333.5,-1100.5 333.5,-987.5 18.5,-987.5"/>
<text text-anchor="start" x="26.5" y="-1085.3" font-family="Times,serif" font-size="14.00">0x2154f1c0:</text>
<text text-anchor="start" x="26.5" y="-1070.3" font-family="Times,serif" font-size="14.00"> v1 = g38</text>
<text text-anchor="start" x="26.5" y="-1055.3" font-family="Times,serif" font-size="14.00"> v2 = g39</text>
<text text-anchor="start" x="26.5" y="-1040.3" font-family="Times,serif" font-size="14.00"> v3 = g40</text>
<text text-anchor="start" x="26.5" y="-1025.3" font-family="Times,serif" font-size="14.00"> g38 = 165012</text>
<text text-anchor="start" x="26.5" y="-1010.3" font-family="Times,serif" font-size="14.00"> v4 = *(IntToPtrCastExpr&lt;ptr&gt;(165212))</text>
<text text-anchor="start" x="26.5" y="-995.3" font-family="Times,serif" font-size="14.00"> g40 = v4</text>
</g>
<!-- Node0x2847a0f0&#45;&gt;Node0x383b01c0 -->
<g id="edge1" class="edge"><title>Node0x2847a0f0&#45;&gt;Node0x383b01c0</title>
<path fill="none" stroke="black" d="M176,-1138.23C176,-1130.59 176,-1121.06 176,-1111.03"/>
<polygon fill="black" stroke="black" points="179.5,-1110.9 176,-1100.9 172.5,-1110.9 179.5,-1110.9"/>
</g>
<!-- Node0x478f99f0 -->
<g id="node3" class="node"><title>Node0x478f99f0</title>
<polygon fill="none" stroke="black" points="23.5,-911.5 23.5,-949.5 328.5,-949.5 328.5,-911.5 23.5,-911.5"/>
<text text-anchor="start" x="31.5" y="-934.3" font-family="Times,serif" font-size="14.00">0x82eff20:</text>
<text text-anchor="start" x="31.5" y="-919.3" font-family="Times,serif" font-size="14.00"> if (*(IntToPtrCastExpr&lt;ptr&gt;(v4)) != 0):</text>
</g>
<!-- Node0x383b01c0&#45;&gt;Node0x478f99f0 -->
<g id="edge2" class="edge"><title>Node0x383b01c0&#45;&gt;Node0x478f99f0</title>
<path fill="none" stroke="black" d="M176,-987.25C176,-977.862 176,-968.474 176,-960.151"/>
<polygon fill="black" stroke="black" points="179.5,-959.912 176,-949.912 172.5,-959.912 179.5,-959.912"/>
</g>
<!-- Node0x2847de40 -->
<g id="node4" class="node"><title>Node0x2847de40</title>
<polygon fill="none" stroke="black" points="0,-806.5 0,-859.5 212,-859.5 212,-806.5 0,-806.5"/>
<text text-anchor="start" x="8" y="-844.3" font-family="Times,serif" font-size="14.00">0x82ef910:</text>
<text text-anchor="start" x="8" y="-829.3" font-family="Times,serif" font-size="14.00"> g30 = 157376</text>
<text text-anchor="start" x="8" y="-814.3" font-family="Times,serif" font-size="14.00"> imported_function_ord_0()</text>
</g>
<!-- Node0x478f99f0&#45;&gt;Node0x2847de40 -->
<g id="edge3" class="edge"><title>Node0x478f99f0&#45;&gt;Node0x2847de40</title>
<path fill="none" stroke="black" d="M78.3324,-911.438C61.4478,-906.374 47.526,-900.233 42,-893 34.8321,-883.619 37.9996,-874.468 45.8619,-866.282"/>
<polygon fill="black" stroke="black" points="48.2237,-868.866 53.4465,-859.648 43.6152,-863.597 48.2237,-868.866"/>
<text text-anchor="middle" x="170" y="-881.8" font-family="Times,serif" font-size="14.00">*(IntToPtrCastExpr&lt;ptr&gt;(v4)) != 0</text>
</g>
<!-- Node0x478fb4b0 -->
<g id="node5" class="node"><title>Node0x478fb4b0</title>
<polygon fill="none" stroke="black" points="110,-640.5 110,-768.5 398,-768.5 398,-640.5 110,-640.5"/>
<text text-anchor="start" x="118" y="-753.3" font-family="Times,serif" font-size="14.00">0x82f01d0:</text>
<text text-anchor="start" x="118" y="-738.3" font-family="Times,serif" font-size="14.00"> function_16f08()</text>
<text text-anchor="start" x="118" y="-723.3" font-family="Times,serif" font-size="14.00"> v5 = *(IntToPtrCastExpr&lt;ptr&gt;(g40))</text>
<text text-anchor="start" x="118" y="-708.3" font-family="Times,serif" font-size="14.00"> g37 = v5</text>
<text text-anchor="start" x="118" y="-693.3" font-family="Times,serif" font-size="14.00"> v6 = g29</text>
<text text-anchor="start" x="118" y="-678.3" font-family="Times,serif" font-size="14.00"> g39 = v6</text>
<text text-anchor="start" x="118" y="-663.3" font-family="Times,serif" font-size="14.00"> g9 = (v5 == 0)</text>
<text text-anchor="start" x="118" y="-648.3" font-family="Times,serif" font-size="14.00"> v7 = v6</text>
</g>
<!-- Node0x478f99f0&#45;&gt;Node0x478fb4b0 -->
<g id="edge4" class="edge"><title>Node0x478f99f0&#45;&gt;Node0x478fb4b0</title>
<path fill="none" stroke="black" d="M277.32,-911.409C285.278,-906.576 292.388,-900.536 298,-893 322.576,-859.995 313.354,-815.39 297.15,-777.966"/>
<polygon fill="black" stroke="black" points="300.223,-776.27 292.896,-768.617 293.852,-779.169 300.223,-776.27"/>
<text text-anchor="middle" x="444" y="-829.3" font-family="Times,serif" font-size="14.00">*(IntToPtrCastExpr&lt;ptr&gt;(v4)) == 0</text>
</g>
<!-- Node0x2847de40&#45;&gt;Node0x478fb4b0 -->
<g id="edge5" class="edge"><title>Node0x2847de40&#45;&gt;Node0x478fb4b0</title>
<path fill="none" stroke="black" d="M135.95,-806.401C146.682,-797.228 159.358,-786.393 172.352,-775.287"/>
<polygon fill="black" stroke="black" points="174.7,-777.885 180.027,-768.727 170.151,-772.564 174.7,-777.885"/>
</g>
<!-- Node0x478fbdb0 -->
<g id="node6" class="node"><title>Node0x478fbdb0</title>
<polygon fill="none" stroke="black" points="202,-564.5 202,-602.5 306,-602.5 306,-564.5 202,-564.5"/>
<text text-anchor="start" x="210" y="-587.3" font-family="Times,serif" font-size="14.00">0x82f24d0:</text>
<text text-anchor="start" x="210" y="-572.3" font-family="Times,serif" font-size="14.00"> if (v5 != 0):</text>
</g>
<!-- Node0x478fb4b0&#45;&gt;Node0x478fbdb0 -->
<g id="edge6" class="edge"><title>Node0x478fb4b0&#45;&gt;Node0x478fbdb0</title>
<path fill="none" stroke="black" d="M254,-640.167C254,-630.596 254,-621.158 254,-612.848"/>
<polygon fill="black" stroke="black" points="257.5,-612.658 254,-602.659 250.5,-612.659 257.5,-612.658"/>
</g>
<!-- Node0x383b3590 -->
<g id="node7" class="node"><title>Node0x383b3590</title>
<polygon fill="none" stroke="black" points="42,-429.5 42,-512.5 254,-512.5 254,-429.5 42,-429.5"/>
<text text-anchor="start" x="50" y="-497.3" font-family="Times,serif" font-size="14.00">0x82f1b30:</text>
<text text-anchor="start" x="50" y="-482.3" font-family="Times,serif" font-size="14.00"> g30 = (g38 &#45; 7636)</text>
<text text-anchor="start" x="50" y="-467.3" font-family="Times,serif" font-size="14.00"> g36 = v6</text>
<text text-anchor="start" x="50" y="-452.3" font-family="Times,serif" font-size="14.00"> imported_function_ord_0()</text>
<text text-anchor="start" x="50" y="-437.3" font-family="Times,serif" font-size="14.00"> v7 = g39</text>
</g>
<!-- Node0x478fbdb0&#45;&gt;Node0x383b3590 -->
<g id="edge7" class="edge"><title>Node0x478fbdb0&#45;&gt;Node0x383b3590</title>
<path fill="none" stroke="black" d="M236.496,-564.253C224.975,-552.242 209.311,-535.914 194.363,-520.331"/>
<polygon fill="black" stroke="black" points="196.552,-517.557 187.104,-512.764 191.5,-522.403 196.552,-517.557"/>
<text text-anchor="middle" x="243" y="-534.8" font-family="Times,serif" font-size="14.00">v5 != 0</text>
</g>
<!-- Node0x383b4fc0 -->
<g id="node8" class="node"><title>Node0x383b4fc0</title>
<polygon fill="none" stroke="black" points="127,-263.5 127,-391.5 369,-391.5 369,-263.5 127,-263.5"/>
<text text-anchor="start" x="135" y="-376.3" font-family="Times,serif" font-size="14.00">0x82f2650:</text>
<text text-anchor="start" x="135" y="-361.3" font-family="Times,serif" font-size="14.00"> g29 = v7</text>
<text text-anchor="start" x="135" y="-346.3" font-family="Times,serif" font-size="14.00"> g38 = v1</text>
<text text-anchor="start" x="135" y="-331.3" font-family="Times,serif" font-size="14.00"> g39 = v2</text>
<text text-anchor="start" x="135" y="-316.3" font-family="Times,serif" font-size="14.00"> g40 = v3</text>
<text text-anchor="start" x="135" y="-301.3" font-family="Times,serif" font-size="14.00"> v8</text>
<text text-anchor="start" x="135" y="-286.3" font-family="Times,serif" font-size="14.00"> g34 = v8</text>
<text text-anchor="start" x="135" y="-271.3" font-family="Times,serif" font-size="14.00"> IntToPtrCastExpr&lt;ptr&gt;(g35)()</text>
</g>
<!-- Node0x478fbdb0&#45;&gt;Node0x383b4fc0 -->
<g id="edge8" class="edge"><title>Node0x478fbdb0&#45;&gt;Node0x383b4fc0</title>
<path fill="none" stroke="black" d="M266.288,-564.309C269.436,-558.682 272.387,-552.3 274,-546 275.653,-539.542 274.358,-537.657 274,-531 271.685,-487.95 265.701,-440.096 260.056,-401.721"/>
<polygon fill="black" stroke="black" points="263.494,-401.043 258.554,-391.67 256.571,-402.077 263.494,-401.043"/>
<text text-anchor="middle" x="302" y="-467.3" font-family="Times,serif" font-size="14.00">v5 == 0</text>
</g>
<!-- Node0x383b3590&#45;&gt;Node0x383b4fc0 -->
<g id="edge9" class="edge"><title>Node0x383b3590&#45;&gt;Node0x383b4fc0</title>
<path fill="none" stroke="black" d="M176.656,-429.452C183.149,-420.264 190.233,-410.24 197.335,-400.191"/>
<polygon fill="black" stroke="black" points="200.379,-401.948 203.292,-391.762 194.662,-397.908 200.379,-401.948"/>
</g>
<!-- Node0x2847c010 -->
<g id="node9" class="node"><title>Node0x2847c010</title>
<polygon fill="none" stroke="black" points="199,-187.5 199,-225.5 297,-225.5 297,-187.5 199,-187.5"/>
<text text-anchor="start" x="207" y="-210.3" font-family="Times,serif" font-size="14.00">0x82f3b70:</text>
<text text-anchor="start" x="207" y="-195.3" font-family="Times,serif" font-size="14.00"> if g9:</text>
</g>
<!-- Node0x383b4fc0&#45;&gt;Node0x2847c010 -->
<g id="edge10" class="edge"><title>Node0x383b4fc0&#45;&gt;Node0x2847c010</title>
<path fill="none" stroke="black" d="M248,-263.167C248,-253.596 248,-244.158 248,-235.848"/>
<polygon fill="black" stroke="black" points="251.5,-235.658 248,-225.659 244.5,-235.659 251.5,-235.658"/>
</g>
<!-- Node0x383b03c0 -->
<g id="node10" class="node"><title>Node0x383b03c0</title>
<polygon fill="none" stroke="black" points="57,-97.5 57,-135.5 245,-135.5 245,-97.5 57,-97.5"/>
<text text-anchor="start" x="65" y="-120.3" font-family="Times,serif" font-size="14.00">0x82f3900:</text>
<text text-anchor="start" x="65" y="-105.3" font-family="Times,serif" font-size="14.00"> g29 = (g29 &amp; (g42 / 2))</text>
</g>
<!-- Node0x2847c010&#45;&gt;Node0x383b03c0 -->
<g id="edge11" class="edge"><title>Node0x2847c010&#45;&gt;Node0x383b03c0</title>
<path fill="none" stroke="black" d="M227.902,-187.266C213.725,-174.405 194.55,-157.009 178.894,-142.806"/>
<polygon fill="black" stroke="black" points="180.831,-139.837 171.073,-135.71 176.127,-145.022 180.831,-139.837"/>
<text text-anchor="middle" x="214.5" y="-157.8" font-family="Times,serif" font-size="14.00">g9</text>
</g>
<!-- Node0x478fb310 -->
<g id="node11" class="node"><title>Node0x478fb310</title>
<polygon fill="none" stroke="black" points="215,-23.5 215,-59.5 269,-59.5 269,-23.5 215,-23.5"/>
<text text-anchor="start" x="223" y="-37.8" font-family="Times,serif" font-size="14.00">exit:</text>
</g>
<!-- Node0x2847c010&#45;&gt;Node0x478fb310 -->
<g id="edge12" class="edge"><title>Node0x2847c010&#45;&gt;Node0x478fb310</title>
<path fill="none" stroke="black" d="M250.803,-187.406C253.729,-165.828 257.448,-128.696 254,-97 253.017,-87.9613 251.142,-78.2257 249.161,-69.5188"/>
<polygon fill="black" stroke="black" points="252.497,-68.4222 246.745,-59.5244 245.693,-70.0668 252.497,-68.4222"/>
<text text-anchor="middle" x="283.5" y="-112.8" font-family="Times,serif" font-size="14.00">not (g9)</text>
</g>
<!-- Node0x383b03c0&#45;&gt;Node0x478fb310 -->
<g id="edge13" class="edge"><title>Node0x383b03c0&#45;&gt;Node0x478fb310</title>
<path fill="none" stroke="black" d="M173.494,-97.4551C185.324,-87.9651 199.97,-76.2165 212.679,-66.0211"/>
<polygon fill="black" stroke="black" points="215.092,-68.5726 220.702,-59.585 210.712,-63.1123 215.092,-68.5726"/>
</g>
</g>
</svg>
