<?xml version="1.0" encoding="UTF-8" standalone="no"?>
<!DOCTYPE svg PUBLIC "-//W3C//DTD SVG 1.1//EN"
 "http://www.w3.org/Graphics/SVG/1.1/DTD/svg11.dtd">
<!-- Generated by graphviz version 2.38.0 (20140413.2041)
 -->
<!-- Title: Control&#45;flow graph for function &#39;function_125f4()&#39;. Pages: 1 -->
<svg width="382pt" height="216pt"
 viewBox="0.00 0.00 382.00 216.00" xmlns="http://www.w3.org/2000/svg" xmlns:xlink="http://www.w3.org/1999/xlink">
<g id="graph0" class="graph" transform="scale(1 1) rotate(0) translate(4 212)">
<title>Control&#45;flow graph for function &#39;function_125f4()&#39;.</title>
<polygon fill="white" stroke="none" points="-4,4 -4,-212 378,-212 378,4 -4,4"/>
<text text-anchor="middle" x="187" y="-7.8" font-family="Times,serif" font-size="14.00">Control&#45;flow graph for function &#39;function_125f4()&#39;.</text>
<!-- Node0x1c729750 -->
<g id="node1" class="node"><title>Node0x1c729750</title>
<polygon fill="none" stroke="black" points="157.5,-171.5 157.5,-207.5 216.5,-207.5 216.5,-171.5 157.5,-171.5"/>
<text text-anchor="start" x="165.5" y="-185.8" font-family="Times,serif" font-size="14.00">entry:</text>
</g>
<!-- Node0x27daf470 -->
<g id="node2" class="node"><title>Node0x27daf470</title>
<polygon fill="none" stroke="black" points="137.5,-96.5 137.5,-134.5 236.5,-134.5 236.5,-96.5 137.5,-96.5"/>
<text text-anchor="start" x="145.5" y="-119.3" font-family="Times,serif" font-size="14.00">0x7e48ac0:</text>
<text text-anchor="start" x="145.5" y="-104.3" font-family="Times,serif" font-size="14.00"> return</text>
</g>
<!-- Node0x1c729750&#45;&gt;Node0x27daf470 -->
<g id="edge1" class="edge"><title>Node0x1c729750&#45;&gt;Node0x27daf470</title>
<path fill="none" stroke="black" d="M187,-171.437C187,-163.487 187,-153.813 187,-144.813"/>
<polygon fill="black" stroke="black" points="190.5,-144.699 187,-134.699 183.5,-144.699 190.5,-144.699"/>
</g>
<!-- Node0x3e8ae8c0 -->
<g id="node3" class="node"><title>Node0x3e8ae8c0</title>
<polygon fill="none" stroke="black" points="160,-23.5 160,-59.5 214,-59.5 214,-23.5 160,-23.5"/>
<text text-anchor="start" x="168" y="-37.8" font-family="Times,serif" font-size="14.00">exit:</text>
</g>
<!-- Node0x27daf470&#45;&gt;Node0x3e8ae8c0 -->
<g id="edge2" class="edge"><title>Node0x27daf470&#45;&gt;Node0x3e8ae8c0</title>
<path fill="none" stroke="black" d="M187,-96.3314C187,-88.394 187,-78.9095 187,-70.1285"/>
<polygon fill="black" stroke="black" points="190.5,-69.9177 187,-59.9177 183.5,-69.9177 190.5,-69.9177"/>
</g>
</g>
</svg>
