<?xml version="1.0" encoding="UTF-8" standalone="no"?>
<!DOCTYPE svg PUBLIC "-//W3C//DTD SVG 1.1//EN"
 "http://www.w3.org/Graphics/SVG/1.1/DTD/svg11.dtd">
<!-- Generated by graphviz version 2.38.0 (20140413.2041)
 -->
<!-- Title: Control&#45;flow graph for function &#39;function_69e8()&#39;. Pages: 1 -->
<svg width="915pt" height="2869pt"
 viewBox="0.00 0.00 914.50 2869.00" xmlns="http://www.w3.org/2000/svg" xmlns:xlink="http://www.w3.org/1999/xlink">
<g id="graph0" class="graph" transform="scale(1 1) rotate(0) translate(4 2865)">
<title>Control&#45;flow graph for function &#39;function_69e8()&#39;.</title>
<polygon fill="white" stroke="none" points="-4,4 -4,-2865 910.5,-2865 910.5,4 -4,4"/>
<text text-anchor="middle" x="453.25" y="-7.8" font-family="Times,serif" font-size="14.00">Control&#45;flow graph for function &#39;function_69e8()&#39;.</text>
<!-- Node0x22992a70 -->
<g id="node1" class="node"><title>Node0x22992a70</title>
<polygon fill="none" stroke="black" points="309.5,-2824.5 309.5,-2860.5 368.5,-2860.5 368.5,-2824.5 309.5,-2824.5"/>
<text text-anchor="start" x="317.5" y="-2838.8" font-family="Times,serif" font-size="14.00">entry:</text>
</g>
<!-- Node0x34e7f990 -->
<g id="node2" class="node"><title>Node0x34e7f990</title>
<polygon fill="none" stroke="black" points="170.5,-2628.5 170.5,-2786.5 507.5,-2786.5 507.5,-2628.5 170.5,-2628.5"/>
<text text-anchor="start" x="178.5" y="-2771.3" font-family="Times,serif" font-size="14.00">0x1e75e1d0:</text>
<text text-anchor="start" x="178.5" y="-2756.3" font-family="Times,serif" font-size="14.00"> v1 = NULL</text>
<text text-anchor="start" x="178.5" y="-2741.3" font-family="Times,serif" font-size="14.00"> v2 = g29</text>
<text text-anchor="start" x="178.5" y="-2726.3" font-family="Times,serif" font-size="14.00"> v3 = *(IntToPtrCastExpr&lt;ptr&gt;((v2 + 158)))</text>
<text text-anchor="start" x="178.5" y="-2711.3" font-family="Times,serif" font-size="14.00"> g37 = v3</text>
<text text-anchor="start" x="178.5" y="-2696.3" font-family="Times,serif" font-size="14.00"> v4 = g38</text>
<text text-anchor="start" x="178.5" y="-2681.3" font-family="Times,serif" font-size="14.00"> v5 = g39</text>
<text text-anchor="start" x="178.5" y="-2666.3" font-family="Times,serif" font-size="14.00"> g38 = v2</text>
<text text-anchor="start" x="178.5" y="-2651.3" font-family="Times,serif" font-size="14.00"> g39 = g30</text>
<text text-anchor="start" x="178.5" y="-2636.3" font-family="Times,serif" font-size="14.00"> v6 = v2</text>
</g>
<!-- Node0x22992a70&#45;&gt;Node0x34e7f990 -->
<g id="edge1" class="edge"><title>Node0x22992a70&#45;&gt;Node0x34e7f990</title>
<path fill="none" stroke="black" d="M339,-2824.38C339,-2816.78 339,-2807.21 339,-2796.83"/>
<polygon fill="black" stroke="black" points="342.5,-2796.68 339,-2786.68 335.5,-2796.68 342.5,-2796.68"/>
</g>
<!-- Node0x23c4e930 -->
<g id="node3" class="node"><title>Node0x23c4e930</title>
<polygon fill="none" stroke="black" points="287,-2552.5 287,-2590.5 391,-2590.5 391,-2552.5 287,-2552.5"/>
<text text-anchor="start" x="295" y="-2575.3" font-family="Times,serif" font-size="14.00">0x618ef70:</text>
<text text-anchor="start" x="295" y="-2560.3" font-family="Times,serif" font-size="14.00"> if (v3 != 0):</text>
</g>
<!-- Node0x34e7f990&#45;&gt;Node0x23c4e930 -->
<g id="edge2" class="edge"><title>Node0x34e7f990&#45;&gt;Node0x23c4e930</title>
<path fill="none" stroke="black" d="M339,-2628.16C339,-2618.45 339,-2609.06 339,-2600.85"/>
<polygon fill="black" stroke="black" points="342.5,-2600.8 339,-2590.8 335.5,-2600.8 342.5,-2600.8"/>
</g>
<!-- Node0x23c4dba0 -->
<g id="node4" class="node"><title>Node0x23c4dba0</title>
<polygon fill="none" stroke="black" points="40.5,-2417.5 40.5,-2500.5 377.5,-2500.5 377.5,-2417.5 40.5,-2417.5"/>
<text text-anchor="start" x="48.5" y="-2485.3" font-family="Times,serif" font-size="14.00">0x2de45a60:</text>
<text text-anchor="start" x="48.5" y="-2470.3" font-family="Times,serif" font-size="14.00"> v7 = *(IntToPtrCastExpr&lt;ptr&gt;((v2 + 281)))</text>
<text text-anchor="start" x="48.5" y="-2455.3" font-family="Times,serif" font-size="14.00"> g37 = v7</text>
<text text-anchor="start" x="48.5" y="-2440.3" font-family="Times,serif" font-size="14.00"> g8 = False</text>
<text text-anchor="start" x="48.5" y="-2425.3" font-family="Times,serif" font-size="14.00"> g7 = (v7 &lt; 0)</text>
</g>
<!-- Node0x23c4e930&#45;&gt;Node0x23c4dba0 -->
<g id="edge3" class="edge"><title>Node0x23c4e930&#45;&gt;Node0x23c4dba0</title>
<path fill="none" stroke="black" d="M317.533,-2552.25C303.018,-2539.92 283.143,-2523.02 264.366,-2507.06"/>
<polygon fill="black" stroke="black" points="266.57,-2504.34 256.683,-2500.53 262.036,-2509.67 266.57,-2504.34"/>
<text text-anchor="middle" x="321" y="-2522.8" font-family="Times,serif" font-size="14.00">v3 != 0</text>
</g>
<!-- Node0x22ab27f0 -->
<g id="node5" class="node"><title>Node0x22ab27f0</title>
<polygon fill="none" stroke="black" points="159.5,-2085.5 159.5,-2183.5 496.5,-2183.5 496.5,-2085.5 159.5,-2085.5"/>
<text text-anchor="start" x="167.5" y="-2168.3" font-family="Times,serif" font-size="14.00">0x1ea890b0:</text>
<text text-anchor="start" x="167.5" y="-2153.3" font-family="Times,serif" font-size="14.00"> v8 = *(IntToPtrCastExpr&lt;ptr&gt;((v6 + 200)))</text>
<text text-anchor="start" x="167.5" y="-2138.3" font-family="Times,serif" font-size="14.00"> g30 = v8</text>
<text text-anchor="start" x="167.5" y="-2123.3" font-family="Times,serif" font-size="14.00"> g8 = False</text>
<text text-anchor="start" x="167.5" y="-2108.3" font-family="Times,serif" font-size="14.00"> g7 = (v8 &lt; 0)</text>
<text text-anchor="start" x="167.5" y="-2093.3" font-family="Times,serif" font-size="14.00"> v9 = v6</text>
</g>
<!-- Node0x23c4e930&#45;&gt;Node0x22ab27f0 -->
<g id="edge4" class="edge"><title>Node0x23c4e930&#45;&gt;Node0x22ab27f0</title>
<path fill="none" stroke="black" d="M358.74,-2552.2C378.503,-2531.79 406,-2496.79 406,-2460 406,-2460 406,-2460 406,-2247 406,-2227.18 397.626,-2208.38 386.366,-2192.06"/>
<polygon fill="black" stroke="black" points="388.996,-2189.73 380.244,-2183.76 383.362,-2193.88 388.996,-2189.73"/>
<text text-anchor="middle" x="436" y="-2349.3" font-family="Times,serif" font-size="14.00">v3 == 0</text>
</g>
<!-- Node0x31780e40 -->
<g id="node6" class="node"><title>Node0x31780e40</title>
<polygon fill="none" stroke="black" points="154,-2326.5 154,-2379.5 264,-2379.5 264,-2326.5 154,-2326.5"/>
<text text-anchor="start" x="162" y="-2364.3" font-family="Times,serif" font-size="14.00">0x618ec50:</text>
<text text-anchor="start" x="162" y="-2349.3" font-family="Times,serif" font-size="14.00"> if (v7 == 0):</text>
<text text-anchor="start" x="162" y="-2334.3" font-family="Times,serif" font-size="14.00"> else:</text>
</g>
<!-- Node0x23c4dba0&#45;&gt;Node0x31780e40 -->
<g id="edge5" class="edge"><title>Node0x23c4dba0&#45;&gt;Node0x31780e40</title>
<path fill="none" stroke="black" d="M209,-2417.49C209,-2408.31 209,-2398.62 209,-2389.66"/>
<polygon fill="black" stroke="black" points="212.5,-2389.54 209,-2379.54 205.5,-2389.54 212.5,-2389.54"/>
</g>
<!-- Node0x232aa6b0 -->
<g id="node7" class="node"><title>Node0x232aa6b0</title>
<polygon fill="none" stroke="black" points="273,-2009.5 273,-2047.5 383,-2047.5 383,-2009.5 273,-2009.5"/>
<text text-anchor="start" x="281" y="-2032.3" font-family="Times,serif" font-size="14.00">0x61919c0:</text>
<text text-anchor="start" x="281" y="-2017.3" font-family="Times,serif" font-size="14.00"> if (v8 &gt;= 1):</text>
</g>
<!-- Node0x22ab27f0&#45;&gt;Node0x232aa6b0 -->
<g id="edge6" class="edge"><title>Node0x22ab27f0&#45;&gt;Node0x232aa6b0</title>
<path fill="none" stroke="black" d="M328,-2085.46C328,-2075.95 328,-2066.27 328,-2057.69"/>
<polygon fill="black" stroke="black" points="331.5,-2057.51 328,-2047.51 324.5,-2057.51 331.5,-2057.51"/>
</g>
<!-- Node0x248b5c00 -->
<g id="node8" class="node"><title>Node0x248b5c00</title>
<polygon fill="none" stroke="black" points="126,-2221.5 126,-2274.5 260,-2274.5 260,-2221.5 126,-2221.5"/>
<text text-anchor="start" x="134" y="-2259.3" font-family="Times,serif" font-size="14.00">0x618e3c0:</text>
<text text-anchor="start" x="134" y="-2244.3" font-family="Times,serif" font-size="14.00"> function_686c()</text>
<text text-anchor="start" x="134" y="-2229.3" font-family="Times,serif" font-size="14.00"> v6 = g38</text>
</g>
<!-- Node0x31780e40&#45;&gt;Node0x248b5c00 -->
<g id="edge7" class="edge"><title>Node0x31780e40&#45;&gt;Node0x248b5c00</title>
<path fill="none" stroke="black" d="M205.004,-2326.27C203.057,-2313.74 200.683,-2298.46 198.562,-2284.81"/>
<polygon fill="black" stroke="black" points="201.994,-2284.1 197.001,-2274.75 195.077,-2285.17 201.994,-2284.1"/>
<text text-anchor="middle" x="232" y="-2296.8" font-family="Times,serif" font-size="14.00">v7 == 0</text>
</g>
<!-- Node0x20cd8c90 -->
<g id="node9" class="node"><title>Node0x20cd8c90</title>
<polygon fill="none" stroke="black" points="278,-2229 278,-2267 378,-2267 378,-2229 278,-2229"/>
<text text-anchor="start" x="286" y="-2251.8" font-family="Times,serif" font-size="14.00">0x618ee30:</text>
<text text-anchor="start" x="286" y="-2236.8" font-family="Times,serif" font-size="14.00"> v6 = v2</text>
</g>
<!-- Node0x31780e40&#45;&gt;Node0x20cd8c90 -->
<g id="edge8" class="edge"><title>Node0x31780e40&#45;&gt;Node0x20cd8c90</title>
<path fill="none" stroke="black" d="M243.517,-2326.27C251.045,-2320.41 258.884,-2314.1 266,-2308 278.462,-2297.31 291.717,-2284.86 302.759,-2274.15"/>
<polygon fill="black" stroke="black" points="305.306,-2276.56 310.013,-2267.07 300.414,-2271.55 305.306,-2276.56"/>
<text text-anchor="middle" x="309" y="-2296.8" font-family="Times,serif" font-size="14.00">v7 != 0</text>
</g>
<!-- Node0x42c85e40 -->
<g id="node10" class="node"><title>Node0x42c85e40</title>
<polygon fill="none" stroke="black" points="6,-1859.5 6,-1957.5 344,-1957.5 344,-1859.5 6,-1859.5"/>
<text text-anchor="start" x="14" y="-1942.3" font-family="Times,serif" font-size="14.00">0x6190740:</text>
<text text-anchor="start" x="14" y="-1927.3" font-family="Times,serif" font-size="14.00"> g29 = *(IntToPtrCastExpr&lt;ptr&gt;((v6 + 4)))</text>
<text text-anchor="start" x="14" y="-1912.3" font-family="Times,serif" font-size="14.00"> function_3920()</text>
<text text-anchor="start" x="14" y="-1897.3" font-family="Times,serif" font-size="14.00"> g37 = 0</text>
<text text-anchor="start" x="14" y="-1882.3" font-family="Times,serif" font-size="14.00"> *(IntToPtrCastExpr&lt;ptr&gt;((g38 + 200))) = 0</text>
<text text-anchor="start" x="14" y="-1867.3" font-family="Times,serif" font-size="14.00"> v9 = g38</text>
</g>
<!-- Node0x232aa6b0&#45;&gt;Node0x42c85e40 -->
<g id="edge9" class="edge"><title>Node0x232aa6b0&#45;&gt;Node0x42c85e40</title>
<path fill="none" stroke="black" d="M304.429,-2009.32C288.523,-1997.05 266.629,-1980.17 245.37,-1963.77"/>
<polygon fill="black" stroke="black" points="247.323,-1960.86 237.267,-1957.52 243.048,-1966.4 247.323,-1960.86"/>
<text text-anchor="middle" x="309" y="-1979.8" font-family="Times,serif" font-size="14.00">v8 &gt;= 1</text>
</g>
<!-- Node0x23b83d30 -->
<g id="node11" class="node"><title>Node0x23b83d30</title>
<polygon fill="none" stroke="black" points="149,-1723.5 149,-1821.5 495,-1821.5 495,-1723.5 149,-1723.5"/>
<text text-anchor="start" x="157" y="-1806.3" font-family="Times,serif" font-size="14.00">0x13349830:</text>
<text text-anchor="start" x="157" y="-1791.3" font-family="Times,serif" font-size="14.00"> v10 = *(IntToPtrCastExpr&lt;ptr&gt;((v9 + 204)))</text>
<text text-anchor="start" x="157" y="-1776.3" font-family="Times,serif" font-size="14.00"> g30 = v10</text>
<text text-anchor="start" x="157" y="-1761.3" font-family="Times,serif" font-size="14.00"> g8 = False</text>
<text text-anchor="start" x="157" y="-1746.3" font-family="Times,serif" font-size="14.00"> g7 = (v10 &lt; 0)</text>
<text text-anchor="start" x="157" y="-1731.3" font-family="Times,serif" font-size="14.00"> v11 = v9</text>
</g>
<!-- Node0x232aa6b0&#45;&gt;Node0x23b83d30 -->
<g id="edge10" class="edge"><title>Node0x232aa6b0&#45;&gt;Node0x23b83d30</title>
<path fill="none" stroke="black" d="M336.742,-2009.43C342.826,-1995.7 350.312,-1976.14 353,-1958 359.45,-1914.48 360.614,-1902.34 353,-1859 351.395,-1849.86 348.894,-1840.42 345.993,-1831.29"/>
<polygon fill="black" stroke="black" points="349.216,-1829.89 342.711,-1821.53 342.581,-1832.12 349.216,-1829.89"/>
<text text-anchor="middle" x="383" y="-1904.8" font-family="Times,serif" font-size="14.00">v8 &lt; 1</text>
</g>
<!-- Node0x248b5c00&#45;&gt;Node0x22ab27f0 -->
<g id="edge11" class="edge"><title>Node0x248b5c00&#45;&gt;Node0x22ab27f0</title>
<path fill="none" stroke="black" d="M223.972,-2221.42C235.36,-2212.01 248.732,-2200.97 262.026,-2189.99"/>
<polygon fill="black" stroke="black" points="264.347,-2192.61 269.829,-2183.55 259.89,-2187.21 264.347,-2192.61"/>
</g>
<!-- Node0x20cd8c90&#45;&gt;Node0x22ab27f0 -->
<g id="edge12" class="edge"><title>Node0x20cd8c90&#45;&gt;Node0x22ab27f0</title>
<path fill="none" stroke="black" d="M328,-2228.59C328,-2218.92 328,-2206.49 328,-2193.88"/>
<polygon fill="black" stroke="black" points="331.5,-2193.77 328,-2183.77 324.5,-2193.77 331.5,-2193.77"/>
</g>
<!-- Node0x42c85e40&#45;&gt;Node0x23b83d30 -->
<g id="edge13" class="edge"><title>Node0x42c85e40&#45;&gt;Node0x23b83d30</title>
<path fill="none" stroke="black" d="M228.07,-1859.12C238.895,-1849.26 250.362,-1838.8 261.425,-1828.72"/>
<polygon fill="black" stroke="black" points="263.975,-1831.13 269.008,-1821.81 259.259,-1825.96 263.975,-1831.13"/>
</g>
<!-- Node0x23b7fd00 -->
<g id="node12" class="node"><title>Node0x23b7fd00</title>
<polygon fill="none" stroke="black" points="262.5,-1647.5 262.5,-1685.5 381.5,-1685.5 381.5,-1647.5 262.5,-1647.5"/>
<text text-anchor="start" x="270.5" y="-1670.3" font-family="Times,serif" font-size="14.00">0x6194470:</text>
<text text-anchor="start" x="270.5" y="-1655.3" font-family="Times,serif" font-size="14.00"> if (v10 &gt;= 1):</text>
</g>
<!-- Node0x23b83d30&#45;&gt;Node0x23b7fd00 -->
<g id="edge14" class="edge"><title>Node0x23b83d30&#45;&gt;Node0x23b7fd00</title>
<path fill="none" stroke="black" d="M322,-1723.46C322,-1713.95 322,-1704.27 322,-1695.69"/>
<polygon fill="black" stroke="black" points="325.5,-1695.51 322,-1685.51 318.5,-1695.51 325.5,-1695.51"/>
</g>
<!-- Node0x1c5bec70 -->
<g id="node13" class="node"><title>Node0x1c5bec70</title>
<polygon fill="none" stroke="black" points="0,-1497.5 0,-1595.5 338,-1595.5 338,-1497.5 0,-1497.5"/>
<text text-anchor="start" x="8" y="-1580.3" font-family="Times,serif" font-size="14.00">0x6193230:</text>
<text text-anchor="start" x="8" y="-1565.3" font-family="Times,serif" font-size="14.00"> g29 = *(IntToPtrCastExpr&lt;ptr&gt;((v9 + 4)))</text>
<text text-anchor="start" x="8" y="-1550.3" font-family="Times,serif" font-size="14.00"> function_3920()</text>
<text text-anchor="start" x="8" y="-1535.3" font-family="Times,serif" font-size="14.00"> g37 = 0</text>
<text text-anchor="start" x="8" y="-1520.3" font-family="Times,serif" font-size="14.00"> *(IntToPtrCastExpr&lt;ptr&gt;((g38 + 204))) = 0</text>
<text text-anchor="start" x="8" y="-1505.3" font-family="Times,serif" font-size="14.00"> v11 = g38</text>
</g>
<!-- Node0x23b7fd00&#45;&gt;Node0x1c5bec70 -->
<g id="edge15" class="edge"><title>Node0x23b7fd00&#45;&gt;Node0x1c5bec70</title>
<path fill="none" stroke="black" d="M298.429,-1647.32C282.523,-1635.05 260.629,-1618.17 239.37,-1601.77"/>
<polygon fill="black" stroke="black" points="241.323,-1598.86 231.267,-1595.52 237.048,-1604.4 241.323,-1598.86"/>
<text text-anchor="middle" x="307.5" y="-1617.8" font-family="Times,serif" font-size="14.00">v10 &gt;= 1</text>
</g>
<!-- Node0x22491b60 -->
<g id="node14" class="node"><title>Node0x22491b60</title>
<polygon fill="none" stroke="black" points="246.5,-1346.5 246.5,-1459.5 385.5,-1459.5 385.5,-1346.5 246.5,-1346.5"/>
<text text-anchor="start" x="254.5" y="-1444.3" font-family="Times,serif" font-size="14.00">0x61945f0:</text>
<text text-anchor="start" x="254.5" y="-1429.3" font-family="Times,serif" font-size="14.00"> g29 = v11</text>
<text text-anchor="start" x="254.5" y="-1414.3" font-family="Times,serif" font-size="14.00"> function_64fc()</text>
<text text-anchor="start" x="254.5" y="-1399.3" font-family="Times,serif" font-size="14.00"> v12 = g29</text>
<text text-anchor="start" x="254.5" y="-1384.3" font-family="Times,serif" font-size="14.00"> g8 = False</text>
<text text-anchor="start" x="254.5" y="-1369.3" font-family="Times,serif" font-size="14.00"> g7 = (v12 &lt; 0)</text>
<text text-anchor="start" x="254.5" y="-1354.3" font-family="Times,serif" font-size="14.00"> g9 = (v12 == 0)</text>
</g>
<!-- Node0x23b7fd00&#45;&gt;Node0x22491b60 -->
<g id="edge16" class="edge"><title>Node0x23b7fd00&#45;&gt;Node0x22491b60</title>
<path fill="none" stroke="black" d="M336.845,-1647.2C340.526,-1641.67 343.99,-1635.36 346,-1629 351.949,-1610.17 356.845,-1557.67 347,-1497 345.539,-1487.99 343.33,-1478.68 340.751,-1469.59"/>
<polygon fill="black" stroke="black" points="344.049,-1468.4 337.825,-1459.83 337.344,-1470.41 344.049,-1468.4"/>
<text text-anchor="middle" x="381.5" y="-1542.8" font-family="Times,serif" font-size="14.00">v10 &lt; 1</text>
</g>
<!-- Node0x1c5bec70&#45;&gt;Node0x22491b60 -->
<g id="edge17" class="edge"><title>Node0x1c5bec70&#45;&gt;Node0x22491b60</title>
<path fill="none" stroke="black" d="M219.178,-1497.2C229.382,-1487.38 240.256,-1476.91 250.892,-1466.67"/>
<polygon fill="black" stroke="black" points="253.428,-1469.09 258.206,-1459.63 248.574,-1464.05 253.428,-1469.09"/>
</g>
<!-- Node0x23b81b80 -->
<g id="node15" class="node"><title>Node0x23b81b80</title>
<polygon fill="none" stroke="black" points="259.5,-1270.5 259.5,-1308.5 372.5,-1308.5 372.5,-1270.5 259.5,-1270.5"/>
<text text-anchor="start" x="267.5" y="-1293.3" font-family="Times,serif" font-size="14.00">0x6195bc0:</text>
<text text-anchor="start" x="267.5" y="-1278.3" font-family="Times,serif" font-size="14.00"> if (v12 != 0):</text>
</g>
<!-- Node0x22491b60&#45;&gt;Node0x23b81b80 -->
<g id="edge18" class="edge"><title>Node0x22491b60&#45;&gt;Node0x23b81b80</title>
<path fill="none" stroke="black" d="M316,-1346.25C316,-1336.86 316,-1327.47 316,-1319.15"/>
<polygon fill="black" stroke="black" points="319.5,-1318.91 316,-1308.91 312.5,-1318.91 319.5,-1318.91"/>
</g>
<!-- Node0x25f23ca0 -->
<g id="node16" class="node"><title>Node0x25f23ca0</title>
<polygon fill="none" stroke="black" points="186,-1165.5 186,-1218.5 320,-1218.5 320,-1165.5 186,-1165.5"/>
<text text-anchor="start" x="194" y="-1203.3" font-family="Times,serif" font-size="14.00">0x61957a0:</text>
<text text-anchor="start" x="194" y="-1188.3" font-family="Times,serif" font-size="14.00"> g29 = g38</text>
<text text-anchor="start" x="194" y="-1173.3" font-family="Times,serif" font-size="14.00"> function_6618()</text>
</g>
<!-- Node0x23b81b80&#45;&gt;Node0x25f23ca0 -->
<g id="edge19" class="edge"><title>Node0x23b81b80&#45;&gt;Node0x25f23ca0</title>
<path fill="none" stroke="black" d="M294.934,-1270.42C289.288,-1264.89 283.507,-1258.54 279,-1252 273.976,-1244.71 269.576,-1236.3 265.893,-1228.15"/>
<polygon fill="black" stroke="black" points="269.044,-1226.62 261.904,-1218.79 262.604,-1229.36 269.044,-1226.62"/>
<text text-anchor="middle" x="310.5" y="-1240.8" font-family="Times,serif" font-size="14.00">v12 != 0</text>
</g>
<!-- Node0x3691cce0 -->
<g id="node17" class="node"><title>Node0x3691cce0</title>
<polygon fill="none" stroke="black" points="59.5,-669.5 59.5,-1127.5 588.5,-1127.5 588.5,-669.5 59.5,-669.5"/>
<text text-anchor="start" x="67.5" y="-1112.3" font-family="Times,serif" font-size="14.00">0x6195d80:</text>
<text text-anchor="start" x="67.5" y="-1097.3" font-family="Times,serif" font-size="14.00"> g37 = 0</text>
<text text-anchor="start" x="67.5" y="-1082.3" font-family="Times,serif" font-size="14.00"> v13 = g39</text>
<text text-anchor="start" x="67.5" y="-1067.3" font-family="Times,serif" font-size="14.00"> g8 = False</text>
<text text-anchor="start" x="67.5" y="-1052.3" font-family="Times,serif" font-size="14.00"> g7 = (v13 &lt; 0)</text>
<text text-anchor="start" x="67.5" y="-1037.3" font-family="Times,serif" font-size="14.00"> g9 = (v13 == 0)</text>
<text text-anchor="start" x="67.5" y="-1022.3" font-family="Times,serif" font-size="14.00"> *(IntToPtrCastExpr&lt;ptr&gt;((g38 + 159))) = 0</text>
<text text-anchor="start" x="67.5" y="-1007.3" font-family="Times,serif" font-size="14.00"> *(IntToPtrCastExpr&lt;ptr&gt;((g38 + 24))) = g37</text>
<text text-anchor="start" x="67.5" y="-992.3" font-family="Times,serif" font-size="14.00"> *(IntToPtrCastExpr&lt;ptr&gt;((g38 + 20))) = g37</text>
<text text-anchor="start" x="67.5" y="-977.3" font-family="Times,serif" font-size="14.00"> *(IntToPtrCastExpr&lt;ptr&gt;((g38 + 174))) = TruncCastExpr&lt;int8&gt;(g37)</text>
<text text-anchor="start" x="67.5" y="-962.3" font-family="Times,serif" font-size="14.00"> *(IntToPtrCastExpr&lt;ptr&gt;((g38 + 156))) = TruncCastExpr&lt;int8&gt;(g37)</text>
<text text-anchor="start" x="67.5" y="-947.3" font-family="Times,serif" font-size="14.00"> *(IntToPtrCastExpr&lt;ptr&gt;((g38 + 208))) = g37</text>
<text text-anchor="start" x="67.5" y="-932.3" font-family="Times,serif" font-size="14.00"> *(IntToPtrCastExpr&lt;ptr&gt;((g38 + 157))) = TruncCastExpr&lt;int8&gt;(g37)</text>
<text text-anchor="start" x="67.5" y="-917.3" font-family="Times,serif" font-size="14.00"> *(IntToPtrCastExpr&lt;ptr&gt;((g38 + 142))) = TruncCastExpr&lt;int8&gt;(g37)</text>
<text text-anchor="start" x="67.5" y="-902.3" font-family="Times,serif" font-size="14.00"> *(IntToPtrCastExpr&lt;ptr&gt;((g38 + 172))) = TruncCastExpr&lt;int8&gt;(g37)</text>
<text text-anchor="start" x="67.5" y="-887.3" font-family="Times,serif" font-size="14.00"> *(IntToPtrCastExpr&lt;ptr&gt;((g38 + 140))) = TruncCastExpr&lt;int8&gt;(g37)</text>
<text text-anchor="start" x="67.5" y="-872.3" font-family="Times,serif" font-size="14.00"> *(IntToPtrCastExpr&lt;ptr&gt;((g38 + 158))) = TruncCastExpr&lt;int8&gt;(g37)</text>
<text text-anchor="start" x="67.5" y="-857.3" font-family="Times,serif" font-size="14.00"> *(IntToPtrCastExpr&lt;ptr&gt;((g38 + 212))) = g37</text>
<text text-anchor="start" x="67.5" y="-842.3" font-family="Times,serif" font-size="14.00"> *(IntToPtrCastExpr&lt;ptr&gt;((g38 + 282))) = TruncCastExpr&lt;int8&gt;(g37)</text>
<text text-anchor="start" x="67.5" y="-827.3" font-family="Times,serif" font-size="14.00"> g38 = v4</text>
<text text-anchor="start" x="67.5" y="-812.3" font-family="Times,serif" font-size="14.00"> g39 = v5</text>
<text text-anchor="start" x="67.5" y="-797.3" font-family="Times,serif" font-size="14.00"> g34 = PtrToIntCastExpr&lt;int32&gt;(v1)</text>
<text text-anchor="start" x="67.5" y="-782.3" font-family="Times,serif" font-size="14.00"> IntToPtrCastExpr&lt;ptr&gt;(ExtCastExpr&lt;int32&gt;((v13 != 0)))()</text>
<text text-anchor="start" x="67.5" y="-767.3" font-family="Times,serif" font-size="14.00"> v14 = g38</text>
<text text-anchor="start" x="67.5" y="-752.3" font-family="Times,serif" font-size="14.00"> v15 = *(IntToPtrCastExpr&lt;ptr&gt;((v14 + 164)))</text>
<text text-anchor="start" x="67.5" y="-737.3" font-family="Times,serif" font-size="14.00"> g37 = v15</text>
<text text-anchor="start" x="67.5" y="-722.3" font-family="Times,serif" font-size="14.00"> g36 = &#45;1</text>
<text text-anchor="start" x="67.5" y="-707.3" font-family="Times,serif" font-size="14.00"> g8 = False</text>
<text text-anchor="start" x="67.5" y="-692.3" font-family="Times,serif" font-size="14.00"> g7 = (v15 &lt; 0)</text>
<text text-anchor="start" x="67.5" y="-677.3" font-family="Times,serif" font-size="14.00"> g9 = (v15 == 0)</text>
</g>
<!-- Node0x23b81b80&#45;&gt;Node0x3691cce0 -->
<g id="edge20" class="edge"><title>Node0x23b81b80&#45;&gt;Node0x3691cce0</title>
<path fill="none" stroke="black" d="M332.201,-1270.4C336.191,-1264.87 339.915,-1258.52 342,-1252 344.03,-1245.65 342.178,-1243.66 342,-1237 341.147,-1204.97 339.838,-1171.25 338.308,-1138.02"/>
<polygon fill="black" stroke="black" points="341.79,-1137.55 337.826,-1127.73 334.798,-1137.88 341.79,-1137.55"/>
<text text-anchor="middle" x="376.5" y="-1188.3" font-family="Times,serif" font-size="14.00">v12 == 0</text>
</g>
<!-- Node0x25f23ca0&#45;&gt;Node0x3691cce0 -->
<g id="edge21" class="edge"><title>Node0x25f23ca0&#45;&gt;Node0x3691cce0</title>
<path fill="none" stroke="black" d="M259.239,-1165.39C261.156,-1157.52 263.442,-1148.13 265.991,-1137.66"/>
<polygon fill="black" stroke="black" points="269.438,-1138.3 268.404,-1127.76 262.636,-1136.65 269.438,-1138.3"/>
</g>
<!-- Node0x1311b8f0 -->
<g id="node18" class="node"><title>Node0x1311b8f0</title>
<polygon fill="none" stroke="black" points="264.5,-578.5 264.5,-631.5 383.5,-631.5 383.5,-578.5 264.5,-578.5"/>
<text text-anchor="start" x="272.5" y="-616.3" font-family="Times,serif" font-size="14.00">0x61a1710:</text>
<text text-anchor="start" x="272.5" y="-601.3" font-family="Times,serif" font-size="14.00"> if (v15 == 0):</text>
<text text-anchor="start" x="272.5" y="-586.3" font-family="Times,serif" font-size="14.00"> else:</text>
</g>
<!-- Node0x3691cce0&#45;&gt;Node0x1311b8f0 -->
<g id="edge22" class="edge"><title>Node0x3691cce0&#45;&gt;Node0x1311b8f0</title>
<path fill="none" stroke="black" d="M324,-669.251C324,-659.234 324,-649.993 324,-641.844"/>
<polygon fill="black" stroke="black" points="327.5,-641.789 324,-631.789 320.5,-641.789 327.5,-641.789"/>
</g>
<!-- Node0x3869dd50 -->
<g id="node19" class="node"><title>Node0x3869dd50</title>
<polygon fill="none" stroke="black" points="17,-443.5 17,-496.5 359,-496.5 359,-443.5 17,-443.5"/>
<text text-anchor="start" x="25" y="-481.3" font-family="Times,serif" font-size="14.00">0x61a1020:</text>
<text text-anchor="start" x="25" y="-466.3" font-family="Times,serif" font-size="14.00"> *(IntToPtrCastExpr&lt;ptr&gt;((v14 + 120))) = &#45;1</text>
<text text-anchor="start" x="25" y="-451.3" font-family="Times,serif" font-size="14.00"> g36 = (g36 + 2)</text>
</g>
<!-- Node0x1311b8f0&#45;&gt;Node0x3869dd50 -->
<g id="edge23" class="edge"><title>Node0x1311b8f0&#45;&gt;Node0x3869dd50</title>
<path fill="none" stroke="black" d="M297.778,-578.356C276.047,-557.105 245.023,-526.765 221.496,-503.757"/>
<polygon fill="black" stroke="black" points="223.738,-501.054 214.142,-496.565 218.844,-506.059 223.738,-501.054"/>
<text text-anchor="middle" x="311.5" y="-548.8" font-family="Times,serif" font-size="14.00">v15 == 0</text>
</g>
<!-- Node0x39b88260 -->
<g id="node20" class="node"><title>Node0x39b88260</title>
<polygon fill="none" stroke="black" points="377.5,-413.5 377.5,-526.5 906.5,-526.5 906.5,-413.5 377.5,-413.5"/>
<text text-anchor="start" x="385.5" y="-511.3" font-family="Times,serif" font-size="14.00">0x61a1ea0:</text>
<text text-anchor="start" x="385.5" y="-496.3" font-family="Times,serif" font-size="14.00"> g37 = ExtCastExpr&lt;int32&gt;(*(IntToPtrCastExpr&lt;ptr&gt;((v14 + 100))))</text>
<text text-anchor="start" x="385.5" y="-481.3" font-family="Times,serif" font-size="14.00"> *(IntToPtrCastExpr&lt;ptr&gt;((v14 + 120))) = &#45;1</text>
<text text-anchor="start" x="385.5" y="-466.3" font-family="Times,serif" font-size="14.00"> g37 = (g37 | 1)</text>
<text text-anchor="start" x="385.5" y="-451.3" font-family="Times,serif" font-size="14.00"> g36 = (g36 + 2)</text>
<text text-anchor="start" x="385.5" y="-436.3" font-family="Times,serif" font-size="14.00"> *(IntToPtrCastExpr&lt;ptr&gt;((g38 + 164))) = TruncCastExpr&lt;int8&gt;(g39)</text>
<text text-anchor="start" x="385.5" y="-421.3" font-family="Times,serif" font-size="14.00"> *(IntToPtrCastExpr&lt;ptr&gt;((g38 + 100))) = TruncCastExpr&lt;int8&gt;(g37)</text>
</g>
<!-- Node0x1311b8f0&#45;&gt;Node0x39b88260 -->
<g id="edge24" class="edge"><title>Node0x1311b8f0&#45;&gt;Node0x39b88260</title>
<path fill="none" stroke="black" d="M383.813,-578.984C416.681,-565.237 458.964,-547.553 499.758,-530.491"/>
<polygon fill="black" stroke="black" points="501.109,-533.72 508.984,-526.633 498.408,-527.262 501.109,-533.72"/>
<text text-anchor="middle" x="494.5" y="-548.8" font-family="Times,serif" font-size="14.00">v15 != 0</text>
</g>
<!-- Node0x317819a0 -->
<g id="node21" class="node"><title>Node0x317819a0</title>
<polygon fill="none" stroke="black" points="199,-97.5 199,-375.5 737,-375.5 737,-97.5 199,-97.5"/>
<text text-anchor="start" x="207" y="-360.3" font-family="Times,serif" font-size="14.00">0x61a4f80:</text>
<text text-anchor="start" x="207" y="-345.3" font-family="Times,serif" font-size="14.00"> *(IntToPtrCastExpr&lt;ptr&gt;((g38 + 173))) = TruncCastExpr&lt;int8&gt;(g39)</text>
<text text-anchor="start" x="207" y="-330.3" font-family="Times,serif" font-size="14.00"> *(IntToPtrCastExpr&lt;ptr&gt;((g38 + 143))) = TruncCastExpr&lt;int8&gt;(g36)</text>
<text text-anchor="start" x="207" y="-315.3" font-family="Times,serif" font-size="14.00"> *(IntToPtrCastExpr&lt;ptr&gt;((g38 + 112))) = g39</text>
<text text-anchor="start" x="207" y="-300.3" font-family="Times,serif" font-size="14.00"> *(IntToPtrCastExpr&lt;ptr&gt;((g38 + 124))) = g39</text>
<text text-anchor="start" x="207" y="-285.3" font-family="Times,serif" font-size="14.00"> *(IntToPtrCastExpr&lt;ptr&gt;((g38 + 128))) = g39</text>
<text text-anchor="start" x="207" y="-270.3" font-family="Times,serif" font-size="14.00"> *(IntToPtrCastExpr&lt;ptr&gt;((g38 + 60))) = g39</text>
<text text-anchor="start" x="207" y="-255.3" font-family="Times,serif" font-size="14.00"> *(IntToPtrCastExpr&lt;ptr&gt;((g38 + 56))) = g39</text>
<text text-anchor="start" x="207" y="-240.3" font-family="Times,serif" font-size="14.00"> *(IntToPtrCastExpr&lt;ptr&gt;((g38 + 40))) = g39</text>
<text text-anchor="start" x="207" y="-225.3" font-family="Times,serif" font-size="14.00"> *(IntToPtrCastExpr&lt;ptr&gt;((g38 + 116))) = g39</text>
<text text-anchor="start" x="207" y="-210.3" font-family="Times,serif" font-size="14.00"> *(IntToPtrCastExpr&lt;ptr&gt;((g38 + 176))) = TruncCastExpr&lt;int16&gt;(g39)</text>
<text text-anchor="start" x="207" y="-195.3" font-family="Times,serif" font-size="14.00"> *(IntToPtrCastExpr&lt;ptr&gt;((g38 + 188))) = TruncCastExpr&lt;int16&gt;(g39)</text>
<text text-anchor="start" x="207" y="-180.3" font-family="Times,serif" font-size="14.00"> *(IntToPtrCastExpr&lt;ptr&gt;((g38 + 108))) = TruncCastExpr&lt;int8&gt;(g39)</text>
<text text-anchor="start" x="207" y="-165.3" font-family="Times,serif" font-size="14.00"> g38 = *(IntToPtrCastExpr&lt;ptr&gt;(g34))</text>
<text text-anchor="start" x="207" y="-150.3" font-family="Times,serif" font-size="14.00"> g39 = v1[&#39;1&#39;]</text>
<text text-anchor="start" x="207" y="-135.3" font-family="Times,serif" font-size="14.00"> g32 = v1[&#39;2&#39;]</text>
<text text-anchor="start" x="207" y="-120.3" font-family="Times,serif" font-size="14.00"> g34 = v1[&#39;3&#39;]</text>
<text text-anchor="start" x="207" y="-105.3" font-family="Times,serif" font-size="14.00"> IntToPtrCastExpr&lt;ptr&gt;(v1[&#39;4&#39;])()</text>
</g>
<!-- Node0x3869dd50&#45;&gt;Node0x317819a0 -->
<g id="edge25" class="edge"><title>Node0x3869dd50&#45;&gt;Node0x317819a0</title>
<path fill="none" stroke="black" d="M219.035,-443.341C238.232,-427.469 264.582,-405.683 292.988,-382.198"/>
<polygon fill="black" stroke="black" points="295.573,-384.602 301.05,-375.532 291.112,-379.207 295.573,-384.602"/>
</g>
<!-- Node0x39b88260&#45;&gt;Node0x317819a0 -->
<g id="edge26" class="edge"><title>Node0x39b88260&#45;&gt;Node0x317819a0</title>
<path fill="none" stroke="black" d="M600.101,-413.255C593.198,-404.071 585.771,-394.19 578.085,-383.964"/>
<polygon fill="black" stroke="black" points="580.677,-381.586 571.871,-375.696 575.081,-385.792 580.677,-381.586"/>
</g>
<!-- Node0x1d31b630 -->
<g id="node22" class="node"><title>Node0x1d31b630</title>
<polygon fill="none" stroke="black" points="441,-23.5 441,-59.5 495,-59.5 495,-23.5 441,-23.5"/>
<text text-anchor="start" x="449" y="-37.8" font-family="Times,serif" font-size="14.00">exit:</text>
</g>
<!-- Node0x317819a0&#45;&gt;Node0x1d31b630 -->
<g id="edge27" class="edge"><title>Node0x317819a0&#45;&gt;Node0x1d31b630</title>
<path fill="none" stroke="black" d="M468,-97.2898C468,-87.1541 468,-77.7786 468,-69.7532"/>
<polygon fill="black" stroke="black" points="471.5,-69.7017 468,-59.7017 464.5,-69.7017 471.5,-69.7017"/>
</g>
</g>
</svg>
