<?xml version="1.0" encoding="UTF-8" standalone="no"?>
<!DOCTYPE svg PUBLIC "-//W3C//DTD SVG 1.1//EN"
 "http://www.w3.org/Graphics/SVG/1.1/DTD/svg11.dtd">
<!-- Generated by graphviz version 2.38.0 (20140413.2041)
 -->
<!-- Title: Control&#45;flow graph for function &#39;function_a3cc()&#39;. Pages: 1 -->
<svg width="375pt" height="774pt"
 viewBox="0.00 0.00 375.00 774.00" xmlns="http://www.w3.org/2000/svg" xmlns:xlink="http://www.w3.org/1999/xlink">
<g id="graph0" class="graph" transform="scale(1 1) rotate(0) translate(4 770)">
<title>Control&#45;flow graph for function &#39;function_a3cc()&#39;.</title>
<polygon fill="white" stroke="none" points="-4,4 -4,-770 371,-770 371,4 -4,4"/>
<text text-anchor="middle" x="183.5" y="-7.8" font-family="Times,serif" font-size="14.00">Control&#45;flow graph for function &#39;function_a3cc()&#39;.</text>
<!-- Node0x2489b040 -->
<g id="node1" class="node"><title>Node0x2489b040</title>
<polygon fill="none" stroke="black" points="153,-729.5 153,-765.5 212,-765.5 212,-729.5 153,-729.5"/>
<text text-anchor="start" x="161" y="-743.8" font-family="Times,serif" font-size="14.00">entry:</text>
</g>
<!-- Node0x26632ee0 -->
<g id="node2" class="node"><title>Node0x26632ee0</title>
<polygon fill="none" stroke="black" points="116.5,-383.5 116.5,-691.5 248.5,-691.5 248.5,-383.5 116.5,-383.5"/>
<text text-anchor="start" x="124.5" y="-676.3" font-family="Times,serif" font-size="14.00">0x119ce9b0:</text>
<text text-anchor="start" x="124.5" y="-661.3" font-family="Times,serif" font-size="14.00"> v1 = g38</text>
<text text-anchor="start" x="124.5" y="-646.3" font-family="Times,serif" font-size="14.00"> v2 = g39</text>
<text text-anchor="start" x="124.5" y="-631.3" font-family="Times,serif" font-size="14.00"> v3 = g40</text>
<text text-anchor="start" x="124.5" y="-616.3" font-family="Times,serif" font-size="14.00"> v4 = g41</text>
<text text-anchor="start" x="124.5" y="-601.3" font-family="Times,serif" font-size="14.00"> v5 = g42</text>
<text text-anchor="start" x="124.5" y="-586.3" font-family="Times,serif" font-size="14.00"> v6 = g29</text>
<text text-anchor="start" x="124.5" y="-571.3" font-family="Times,serif" font-size="14.00"> v7 = (v6 + 68)</text>
<text text-anchor="start" x="124.5" y="-556.3" font-family="Times,serif" font-size="14.00"> g40 = v7</text>
<text text-anchor="start" x="124.5" y="-541.3" font-family="Times,serif" font-size="14.00"> g38 = v6</text>
<text text-anchor="start" x="124.5" y="-526.3" font-family="Times,serif" font-size="14.00"> g29 = v7</text>
<text text-anchor="start" x="124.5" y="-511.3" font-family="Times,serif" font-size="14.00"> g42 = g36</text>
<text text-anchor="start" x="124.5" y="-496.3" font-family="Times,serif" font-size="14.00"> g41 = g30</text>
<text text-anchor="start" x="124.5" y="-481.3" font-family="Times,serif" font-size="14.00"> function_adcc()</text>
<text text-anchor="start" x="124.5" y="-466.3" font-family="Times,serif" font-size="14.00"> v8 = g29</text>
<text text-anchor="start" x="124.5" y="-451.3" font-family="Times,serif" font-size="14.00"> g8 = False</text>
<text text-anchor="start" x="124.5" y="-436.3" font-family="Times,serif" font-size="14.00"> g7 = (v8 &lt; 0)</text>
<text text-anchor="start" x="124.5" y="-421.3" font-family="Times,serif" font-size="14.00"> g9 = (v8 == 0)</text>
<text text-anchor="start" x="124.5" y="-406.3" font-family="Times,serif" font-size="14.00"> g39 = v8</text>
<text text-anchor="start" x="124.5" y="-391.3" font-family="Times,serif" font-size="14.00"> g29 = g38</text>
</g>
<!-- Node0x2489b040&#45;&gt;Node0x26632ee0 -->
<g id="edge1" class="edge"><title>Node0x2489b040&#45;&gt;Node0x26632ee0</title>
<path fill="none" stroke="black" d="M182.5,-729.478C182.5,-722.05 182.5,-712.573 182.5,-701.826"/>
<polygon fill="black" stroke="black" points="186,-701.621 182.5,-691.621 179,-701.621 186,-701.621"/>
</g>
<!-- Node0x46952860 -->
<g id="node3" class="node"><title>Node0x46952860</title>
<polygon fill="none" stroke="black" points="127.5,-307.5 127.5,-345.5 237.5,-345.5 237.5,-307.5 127.5,-307.5"/>
<text text-anchor="start" x="135.5" y="-330.3" font-family="Times,serif" font-size="14.00">0x7182460:</text>
<text text-anchor="start" x="135.5" y="-315.3" font-family="Times,serif" font-size="14.00"> if (v8 == 0):</text>
</g>
<!-- Node0x26632ee0&#45;&gt;Node0x46952860 -->
<g id="edge2" class="edge"><title>Node0x26632ee0&#45;&gt;Node0x46952860</title>
<path fill="none" stroke="black" d="M182.5,-383.234C182.5,-373.177 182.5,-363.898 182.5,-355.912"/>
<polygon fill="black" stroke="black" points="186,-355.874 182.5,-345.874 179,-355.874 186,-355.874"/>
</g>
<!-- Node0x442769f0 -->
<g id="node4" class="node"><title>Node0x442769f0</title>
<polygon fill="none" stroke="black" points="40.5,-150 40.5,-203 174.5,-203 174.5,-150 40.5,-150"/>
<text text-anchor="start" x="48.5" y="-187.8" font-family="Times,serif" font-size="14.00">0x7182300:</text>
<text text-anchor="start" x="48.5" y="-172.8" font-family="Times,serif" font-size="14.00"> function_979c()</text>
<text text-anchor="start" x="48.5" y="-157.8" font-family="Times,serif" font-size="14.00"> return</text>
</g>
<!-- Node0x46952860&#45;&gt;Node0x442769f0 -->
<g id="edge3" class="edge"><title>Node0x46952860&#45;&gt;Node0x442769f0</title>
<path fill="none" stroke="black" d="M170.339,-307.202C166.698,-301.465 162.8,-295.049 159.5,-289 145.869,-264.009 132.337,-234.818 122.495,-212.574"/>
<polygon fill="black" stroke="black" points="125.602,-210.944 118.38,-203.192 119.191,-213.756 125.602,-210.944"/>
<text text-anchor="middle" x="189.5" y="-277.8" font-family="Times,serif" font-size="14.00">v8 == 0</text>
</g>
<!-- Node0x266331c0 -->
<g id="node5" class="node"><title>Node0x266331c0</title>
<polygon fill="none" stroke="black" points="192.5,-97.5 192.5,-255.5 326.5,-255.5 326.5,-97.5 192.5,-97.5"/>
<text text-anchor="start" x="200.5" y="-240.3" font-family="Times,serif" font-size="14.00">0x7182660:</text>
<text text-anchor="start" x="200.5" y="-225.3" font-family="Times,serif" font-size="14.00"> g30 = g42</text>
<text text-anchor="start" x="200.5" y="-210.3" font-family="Times,serif" font-size="14.00"> g38 = v1</text>
<text text-anchor="start" x="200.5" y="-195.3" font-family="Times,serif" font-size="14.00"> g39 = v2</text>
<text text-anchor="start" x="200.5" y="-180.3" font-family="Times,serif" font-size="14.00"> g40 = v3</text>
<text text-anchor="start" x="200.5" y="-165.3" font-family="Times,serif" font-size="14.00"> g41 = v4</text>
<text text-anchor="start" x="200.5" y="-150.3" font-family="Times,serif" font-size="14.00"> g42 = v5</text>
<text text-anchor="start" x="200.5" y="-135.3" font-family="Times,serif" font-size="14.00"> v9</text>
<text text-anchor="start" x="200.5" y="-120.3" font-family="Times,serif" font-size="14.00"> g34 = v9</text>
<text text-anchor="start" x="200.5" y="-105.3" font-family="Times,serif" font-size="14.00"> function_95e0()</text>
</g>
<!-- Node0x46952860&#45;&gt;Node0x266331c0 -->
<g id="edge4" class="edge"><title>Node0x46952860&#45;&gt;Node0x266331c0</title>
<path fill="none" stroke="black" d="M204.253,-307.242C209.777,-301.805 215.323,-295.54 219.5,-289 224.337,-281.426 228.687,-273.19 232.577,-264.737"/>
<polygon fill="black" stroke="black" points="235.816,-266.066 236.619,-255.502 229.403,-263.26 235.816,-266.066"/>
<text text-anchor="middle" x="254.5" y="-277.8" font-family="Times,serif" font-size="14.00">v8 != 0</text>
</g>
<!-- Node0x38082df0 -->
<g id="node6" class="node"><title>Node0x38082df0</title>
<polygon fill="none" stroke="black" points="171.5,-23.5 171.5,-59.5 225.5,-59.5 225.5,-23.5 171.5,-23.5"/>
<text text-anchor="start" x="179.5" y="-37.8" font-family="Times,serif" font-size="14.00">exit:</text>
</g>
<!-- Node0x442769f0&#45;&gt;Node0x38082df0 -->
<g id="edge5" class="edge"><title>Node0x442769f0&#45;&gt;Node0x38082df0</title>
<path fill="none" stroke="black" d="M125.046,-149.856C141.166,-126.296 164.93,-91.5636 181.027,-68.0367"/>
<polygon fill="black" stroke="black" points="184.031,-69.8446 186.79,-59.6151 178.254,-65.8918 184.031,-69.8446"/>
</g>
<!-- Node0x266331c0&#45;&gt;Node0x38082df0 -->
<g id="edge6" class="edge"><title>Node0x266331c0&#45;&gt;Node0x38082df0</title>
<path fill="none" stroke="black" d="M223.663,-97.3641C218.966,-87.1226 214.443,-77.2611 210.559,-68.7925"/>
<polygon fill="black" stroke="black" points="213.671,-67.182 206.321,-59.5516 207.308,-70.1003 213.671,-67.182"/>
</g>
</g>
</svg>
