<?xml version="1.0" encoding="UTF-8" standalone="no"?>
<!DOCTYPE svg PUBLIC "-//W3C//DTD SVG 1.1//EN"
 "http://www.w3.org/Graphics/SVG/1.1/DTD/svg11.dtd">
<!-- Generated by graphviz version 2.38.0 (20140413.2041)
 -->
<!-- Title: Control&#45;flow graph for function &#39;function_2093c()&#39;. Pages: 1 -->
<svg width="750pt" height="1619pt"
 viewBox="0.00 0.00 750.00 1619.00" xmlns="http://www.w3.org/2000/svg" xmlns:xlink="http://www.w3.org/1999/xlink">
<g id="graph0" class="graph" transform="scale(1 1) rotate(0) translate(4 1615)">
<title>Control&#45;flow graph for function &#39;function_2093c()&#39;.</title>
<polygon fill="white" stroke="none" points="-4,4 -4,-1615 746,-1615 746,4 -4,4"/>
<text text-anchor="middle" x="371" y="-7.8" font-family="Times,serif" font-size="14.00">Control&#45;flow graph for function &#39;function_2093c()&#39;.</text>
<!-- Node0x3608bdc0 -->
<g id="node1" class="node"><title>Node0x3608bdc0</title>
<polygon fill="none" stroke="black" points="436.5,-1574.5 436.5,-1610.5 495.5,-1610.5 495.5,-1574.5 436.5,-1574.5"/>
<text text-anchor="start" x="444.5" y="-1588.8" font-family="Times,serif" font-size="14.00">entry:</text>
</g>
<!-- Node0x2446c8f0 -->
<g id="node2" class="node"><title>Node0x2446c8f0</title>
<polygon fill="none" stroke="black" points="297,-1243.5 297,-1536.5 635,-1536.5 635,-1243.5 297,-1243.5"/>
<text text-anchor="start" x="305" y="-1521.3" font-family="Times,serif" font-size="14.00">0x28629d60:</text>
<text text-anchor="start" x="305" y="-1506.3" font-family="Times,serif" font-size="14.00"> v1 = g30</text>
<text text-anchor="start" x="305" y="-1491.3" font-family="Times,serif" font-size="14.00"> v2 = *(IntToPtrCastExpr&lt;ptr&gt;((v1 + 8)))</text>
<text text-anchor="start" x="305" y="-1476.3" font-family="Times,serif" font-size="14.00"> g33 = v2</text>
<text text-anchor="start" x="305" y="-1461.3" font-family="Times,serif" font-size="14.00"> v3 = g36</text>
<text text-anchor="start" x="305" y="-1446.3" font-family="Times,serif" font-size="14.00"> g35 = v3</text>
<text text-anchor="start" x="305" y="-1431.3" font-family="Times,serif" font-size="14.00"> v4 = *(IntToPtrCastExpr&lt;ptr&gt;((v1 + 12)))</text>
<text text-anchor="start" x="305" y="-1416.3" font-family="Times,serif" font-size="14.00"> g36 = v4</text>
<text text-anchor="start" x="305" y="-1401.3" font-family="Times,serif" font-size="14.00"> v5 = g37</text>
<text text-anchor="start" x="305" y="-1386.3" font-family="Times,serif" font-size="14.00"> g38 = v5</text>
<text text-anchor="start" x="305" y="-1371.3" font-family="Times,serif" font-size="14.00"> g37 = (v5 + (32 * v3))</text>
<text text-anchor="start" x="305" y="-1356.3" font-family="Times,serif" font-size="14.00"> *(IntToPtrCastExpr&lt;ptr&gt;((v2 + 12))) = v4</text>
<text text-anchor="start" x="305" y="-1341.3" font-family="Times,serif" font-size="14.00"> *(IntToPtrCastExpr&lt;ptr&gt;((g36 + 8))) = g33</text>
<text text-anchor="start" x="305" y="-1326.3" font-family="Times,serif" font-size="14.00"> v6 = (g29 + (4 * g37))</text>
<text text-anchor="start" x="305" y="-1311.3" font-family="Times,serif" font-size="14.00"> g36 = v6</text>
<text text-anchor="start" x="305" y="-1296.3" font-family="Times,serif" font-size="14.00"> v7 = *(IntToPtrCastExpr&lt;ptr&gt;((v6 + 128)))</text>
<text text-anchor="start" x="305" y="-1281.3" font-family="Times,serif" font-size="14.00"> g37 = v7</text>
<text text-anchor="start" x="305" y="-1266.3" font-family="Times,serif" font-size="14.00"> v8 = g30</text>
<text text-anchor="start" x="305" y="-1251.3" font-family="Times,serif" font-size="14.00"> g9 = (v7 == v8)</text>
</g>
<!-- Node0x3608bdc0&#45;&gt;Node0x2446c8f0 -->
<g id="edge1" class="edge"><title>Node0x3608bdc0&#45;&gt;Node0x2446c8f0</title>
<path fill="none" stroke="black" d="M466,-1574.41C466,-1567.01 466,-1557.6 466,-1546.97"/>
<polygon fill="black" stroke="black" points="469.5,-1546.89 466,-1536.89 462.5,-1546.89 469.5,-1546.89"/>
</g>
<!-- Node0x17bbff50 -->
<g id="node3" class="node"><title>Node0x17bbff50</title>
<polygon fill="none" stroke="black" points="410,-1167.5 410,-1205.5 522,-1205.5 522,-1167.5 410,-1167.5"/>
<text text-anchor="start" x="418" y="-1190.3" font-family="Times,serif" font-size="14.00">0x9f67b50:</text>
<text text-anchor="start" x="418" y="-1175.3" font-family="Times,serif" font-size="14.00"> if (v7 != v8):</text>
</g>
<!-- Node0x2446c8f0&#45;&gt;Node0x17bbff50 -->
<g id="edge2" class="edge"><title>Node0x2446c8f0&#45;&gt;Node0x17bbff50</title>
<path fill="none" stroke="black" d="M466,-1243.36C466,-1233.25 466,-1223.89 466,-1215.85"/>
<polygon fill="black" stroke="black" points="469.5,-1215.73 466,-1205.73 462.5,-1215.73 469.5,-1215.73"/>
</g>
<!-- Node0x1de250b0 -->
<g id="node4" class="node"><title>Node0x1de250b0</title>
<polygon fill="none" stroke="black" points="23.5,-1017.5 23.5,-1115.5 498.5,-1115.5 498.5,-1017.5 23.5,-1017.5"/>
<text text-anchor="start" x="31.5" y="-1100.3" font-family="Times,serif" font-size="14.00">0x47ec1a90:</text>
<text text-anchor="start" x="31.5" y="-1085.3" font-family="Times,serif" font-size="14.00"> v9 = g34</text>
<text text-anchor="start" x="31.5" y="-1070.3" font-family="Times,serif" font-size="14.00"> g38 = *(IntToPtrCastExpr&lt;ptr&gt;(v9))</text>
<text text-anchor="start" x="31.5" y="-1055.3" font-family="Times,serif" font-size="14.00"> g34 = (v9 + 8)</text>
<text text-anchor="start" x="31.5" y="-1040.3" font-family="Times,serif" font-size="14.00"> IntToPtrCastExpr&lt;ptr&gt;(*(IntToPtrCastExpr&lt;ptr&gt;((v9 + 4))))()</text>
<text text-anchor="start" x="31.5" y="-1025.3" font-family="Times,serif" font-size="14.00"> v6 = g36</text>
</g>
<!-- Node0x17bbff50&#45;&gt;Node0x1de250b0 -->
<g id="edge3" class="edge"><title>Node0x17bbff50&#45;&gt;Node0x1de250b0</title>
<path fill="none" stroke="black" d="M434.418,-1167.32C412.636,-1154.78 382.474,-1137.42 353.406,-1120.69"/>
<polygon fill="black" stroke="black" points="354.843,-1117.48 344.43,-1115.52 351.351,-1123.55 354.843,-1117.48"/>
<text text-anchor="middle" x="431" y="-1137.8" font-family="Times,serif" font-size="14.00">v7 != v8</text>
</g>
<!-- Node0x17bbd980 -->
<g id="node5" class="node"><title>Node0x17bbd980</title>
<polygon fill="none" stroke="black" points="287,-881.5 287,-979.5 633,-979.5 633,-881.5 287,-881.5"/>
<text text-anchor="start" x="295" y="-964.3" font-family="Times,serif" font-size="14.00">0x1579f2e0:</text>
<text text-anchor="start" x="295" y="-949.3" font-family="Times,serif" font-size="14.00"> v10 = (g29 + 12)</text>
<text text-anchor="start" x="295" y="-934.3" font-family="Times,serif" font-size="14.00"> g37 = v10</text>
<text text-anchor="start" x="295" y="-919.3" font-family="Times,serif" font-size="14.00"> v11 = g33</text>
<text text-anchor="start" x="295" y="-904.3" font-family="Times,serif" font-size="14.00"> g9 = (v11 == v10)</text>
<text text-anchor="start" x="295" y="-889.3" font-family="Times,serif" font-size="14.00"> *(IntToPtrCastExpr&lt;ptr&gt;((v6 + 128))) = v11</text>
</g>
<!-- Node0x17bbff50&#45;&gt;Node0x17bbd980 -->
<g id="edge4" class="edge"><title>Node0x17bbff50&#45;&gt;Node0x17bbd980</title>
<path fill="none" stroke="black" d="M480.444,-1167.28C490.057,-1153.93 501.835,-1134.92 507,-1116 518.587,-1073.55 517.942,-1059.62 507,-1017 504.567,-1007.53 500.841,-997.974 496.527,-988.863"/>
<polygon fill="black" stroke="black" points="499.654,-987.291 492.045,-979.919 493.396,-990.427 499.654,-987.291"/>
<text text-anchor="middle" x="550" y="-1062.8" font-family="Times,serif" font-size="14.00">v7 == v8</text>
</g>
<!-- Node0x1de250b0&#45;&gt;Node0x17bbd980 -->
<g id="edge5" class="edge"><title>Node0x1de250b0&#45;&gt;Node0x17bbd980</title>
<path fill="none" stroke="black" d="M332.562,-1017.31C347.887,-1006.99 364.174,-996.026 379.801,-985.503"/>
<polygon fill="black" stroke="black" points="382.064,-988.199 388.404,-979.71 378.154,-982.393 382.064,-988.199"/>
</g>
<!-- Node0x244be4a0 -->
<g id="node6" class="node"><title>Node0x244be4a0</title>
<polygon fill="none" stroke="black" points="395,-805.5 395,-843.5 525,-843.5 525,-805.5 395,-805.5"/>
<text text-anchor="start" x="403" y="-828.3" font-family="Times,serif" font-size="14.00">0x9f6a040:</text>
<text text-anchor="start" x="403" y="-813.3" font-family="Times,serif" font-size="14.00"> if (v11 != v10):</text>
</g>
<!-- Node0x17bbd980&#45;&gt;Node0x244be4a0 -->
<g id="edge6" class="edge"><title>Node0x17bbd980&#45;&gt;Node0x244be4a0</title>
<path fill="none" stroke="black" d="M460,-881.458C460,-871.952 460,-862.27 460,-853.69"/>
<polygon fill="black" stroke="black" points="463.5,-853.509 460,-843.509 456.5,-853.509 463.5,-853.509"/>
</g>
<!-- Node0x2a8b43c0 -->
<g id="node7" class="node"><title>Node0x2a8b43c0</title>
<polygon fill="none" stroke="black" points="10,-670.5 10,-753.5 494,-753.5 494,-670.5 10,-670.5"/>
<text text-anchor="start" x="18" y="-738.3" font-family="Times,serif" font-size="14.00">0x306d0be0:</text>
<text text-anchor="start" x="18" y="-723.3" font-family="Times,serif" font-size="14.00"> v12 = g34</text>
<text text-anchor="start" x="18" y="-708.3" font-family="Times,serif" font-size="14.00"> g38 = *(IntToPtrCastExpr&lt;ptr&gt;(v12))</text>
<text text-anchor="start" x="18" y="-693.3" font-family="Times,serif" font-size="14.00"> g34 = (v12 + 8)</text>
<text text-anchor="start" x="18" y="-678.3" font-family="Times,serif" font-size="14.00"> IntToPtrCastExpr&lt;ptr&gt;(*(IntToPtrCastExpr&lt;ptr&gt;((v12 + 4))))()</text>
</g>
<!-- Node0x244be4a0&#45;&gt;Node0x2a8b43c0 -->
<g id="edge7" class="edge"><title>Node0x244be4a0&#45;&gt;Node0x2a8b43c0</title>
<path fill="none" stroke="black" d="M425.653,-805.253C401.604,-792.477 368.357,-774.815 337.387,-758.362"/>
<polygon fill="black" stroke="black" points="338.767,-755.132 328.293,-753.531 335.483,-761.313 338.767,-755.132"/>
<text text-anchor="middle" x="427" y="-775.8" font-family="Times,serif" font-size="14.00">v11 != v10</text>
</g>
<!-- Node0x3fb72820 -->
<g id="node8" class="node"><title>Node0x3fb72820</title>
<polygon fill="none" stroke="black" points="166,-474.5 166,-632.5 742,-632.5 742,-474.5 166,-474.5"/>
<text text-anchor="start" x="174" y="-617.3" font-family="Times,serif" font-size="14.00">0x44507020:</text>
<text text-anchor="start" x="174" y="-602.3" font-family="Times,serif" font-size="14.00"> v13 = (g29 + (4 * g35))</text>
<text text-anchor="start" x="174" y="-587.3" font-family="Times,serif" font-size="14.00"> g36 = v13</text>
<text text-anchor="start" x="174" y="-572.3" font-family="Times,serif" font-size="14.00"> v14 = IntToPtrCastExpr&lt;ptr&gt;((v13 + 32))</text>
<text text-anchor="start" x="174" y="-557.3" font-family="Times,serif" font-size="14.00"> g30 = 1</text>
<text text-anchor="start" x="174" y="-542.3" font-family="Times,serif" font-size="14.00"> v15 = (g38 % 256)</text>
<text text-anchor="start" x="174" y="-527.3" font-family="Times,serif" font-size="14.00"> v16 = ((&#45;2 if (v15 == 0) else (((&#45;1 &lt;&lt; v15) &#45; 1) if (v15 &lt; 32) else &#45;1)) &amp; *(v14))</text>
<text text-anchor="start" x="174" y="-512.3" font-family="Times,serif" font-size="14.00"> g37 = v16</text>
<text text-anchor="start" x="174" y="-497.3" font-family="Times,serif" font-size="14.00"> g9 = (v16 == 0)</text>
<text text-anchor="start" x="174" y="-482.3" font-family="Times,serif" font-size="14.00"> *(v14) = v16</text>
</g>
<!-- Node0x244be4a0&#45;&gt;Node0x3fb72820 -->
<g id="edge8" class="edge"><title>Node0x244be4a0&#45;&gt;Node0x3fb72820</title>
<path fill="none" stroke="black" d="M475.139,-805.392C485.216,-792.101 497.567,-773.107 503,-754 513.211,-718.09 510.439,-706.585 503,-670 501.132,-660.812 498.506,-651.448 495.431,-642.227"/>
<polygon fill="black" stroke="black" points="498.694,-640.956 492.076,-632.683 492.09,-643.278 498.694,-640.956"/>
<text text-anchor="middle" x="553" y="-708.3" font-family="Times,serif" font-size="14.00">v11 == v10</text>
</g>
<!-- Node0x2a8b43c0&#45;&gt;Node0x3fb72820 -->
<g id="edge9" class="edge"><title>Node0x2a8b43c0&#45;&gt;Node0x3fb72820</title>
<path fill="none" stroke="black" d="M304.283,-670.494C317.006,-660.636 331.086,-649.728 345.371,-638.661"/>
<polygon fill="black" stroke="black" points="347.559,-641.393 353.321,-632.501 343.272,-635.859 347.559,-641.393"/>
</g>
<!-- Node0xf117900 -->
<g id="node9" class="node"><title>Node0xf117900</title>
<polygon fill="none" stroke="black" points="394.5,-398.5 394.5,-436.5 513.5,-436.5 513.5,-398.5 394.5,-398.5"/>
<text text-anchor="start" x="402.5" y="-421.3" font-family="Times,serif" font-size="14.00">0x9f6fac0:</text>
<text text-anchor="start" x="402.5" y="-406.3" font-family="Times,serif" font-size="14.00"> if (v16 == 0):</text>
</g>
<!-- Node0x3fb72820&#45;&gt;Node0xf117900 -->
<g id="edge10" class="edge"><title>Node0x3fb72820&#45;&gt;Node0xf117900</title>
<path fill="none" stroke="black" d="M454,-474.164C454,-464.447 454,-455.058 454,-446.846"/>
<polygon fill="black" stroke="black" points="457.5,-446.801 454,-436.801 450.5,-446.801 457.5,-446.801"/>
</g>
<!-- Node0x2a8b15c0 -->
<g id="node10" class="node"><title>Node0x2a8b15c0</title>
<polygon fill="none" stroke="black" points="0,-218.5 0,-346.5 488,-346.5 488,-218.5 0,-218.5"/>
<text text-anchor="start" x="8" y="-331.3" font-family="Times,serif" font-size="14.00">0x19bbdb20:</text>
<text text-anchor="start" x="8" y="-316.3" font-family="Times,serif" font-size="14.00"> v17 = IntToPtrCastExpr&lt;ptr&gt;((g29 + 28))</text>
<text text-anchor="start" x="8" y="-301.3" font-family="Times,serif" font-size="14.00"> v18 = g30</text>
<text text-anchor="start" x="8" y="-286.3" font-family="Times,serif" font-size="14.00"> v19 = (g35 % 256)</text>
<text text-anchor="start" x="8" y="-271.3" font-family="Times,serif" font-size="14.00"> v20 = (v18 if (v19 == 0) else ((v18 &lt;&lt; v19) if (v19 &lt; 32) else 0))</text>
<text text-anchor="start" x="8" y="-256.3" font-family="Times,serif" font-size="14.00"> v21 = ((&#45;1 &#45; v20) &amp; *(v17))</text>
<text text-anchor="start" x="8" y="-241.3" font-family="Times,serif" font-size="14.00"> g37 = v21</text>
<text text-anchor="start" x="8" y="-226.3" font-family="Times,serif" font-size="14.00"> *(v17) = v21</text>
</g>
<!-- Node0xf117900&#45;&gt;Node0x2a8b15c0 -->
<g id="edge11" class="edge"><title>Node0xf117900&#45;&gt;Node0x2a8b15c0</title>
<path fill="none" stroke="black" d="M425.241,-398.286C405.982,-386.089 379.299,-369.189 352.323,-352.105"/>
<polygon fill="black" stroke="black" points="353.884,-348.951 343.564,-346.557 350.139,-354.864 353.884,-348.951"/>
<text text-anchor="middle" x="426.5" y="-368.8" font-family="Times,serif" font-size="14.00">v16 == 0</text>
</g>
<!-- Node0xf116900 -->
<g id="node11" class="node"><title>Node0xf116900</title>
<polygon fill="none" stroke="black" points="327,-97.5 327,-180.5 569,-180.5 569,-97.5 327,-97.5"/>
<text text-anchor="start" x="335" y="-165.3" font-family="Times,serif" font-size="14.00">0x1b1b6690:</text>
<text text-anchor="start" x="335" y="-150.3" font-family="Times,serif" font-size="14.00"> v22</text>
<text text-anchor="start" x="335" y="-135.3" font-family="Times,serif" font-size="14.00"> g38 = v22</text>
<text text-anchor="start" x="335" y="-120.3" font-family="Times,serif" font-size="14.00"> v23</text>
<text text-anchor="start" x="335" y="-105.3" font-family="Times,serif" font-size="14.00"> IntToPtrCastExpr&lt;ptr&gt;(v23)()</text>
</g>
<!-- Node0xf117900&#45;&gt;Node0xf116900 -->
<g id="edge12" class="edge"><title>Node0xf117900&#45;&gt;Node0xf116900</title>
<path fill="none" stroke="black" d="M469.139,-398.392C479.216,-385.101 491.567,-366.107 497,-347 512.681,-291.853 512.869,-273.093 497,-218 494.211,-208.319 489.828,-198.678 484.803,-189.646"/>
<polygon fill="black" stroke="black" points="487.699,-187.666 479.6,-180.836 481.672,-191.226 487.699,-187.666"/>
<text text-anchor="middle" x="540.5" y="-278.8" font-family="Times,serif" font-size="14.00">v16 != 0</text>
</g>
<!-- Node0x2a8b15c0&#45;&gt;Node0xf116900 -->
<g id="edge13" class="edge"><title>Node0x2a8b15c0&#45;&gt;Node0xf116900</title>
<path fill="none" stroke="black" d="M334.963,-218.406C350.417,-207.686 366.213,-196.729 380.91,-186.535"/>
<polygon fill="black" stroke="black" points="383.203,-189.204 389.425,-180.629 379.214,-183.452 383.203,-189.204"/>
</g>
<!-- Node0x24465ad0 -->
<g id="node12" class="node"><title>Node0x24465ad0</title>
<polygon fill="none" stroke="black" points="421,-23.5 421,-59.5 475,-59.5 475,-23.5 421,-23.5"/>
<text text-anchor="start" x="429" y="-37.8" font-family="Times,serif" font-size="14.00">exit:</text>
</g>
<!-- Node0xf116900&#45;&gt;Node0x24465ad0 -->
<g id="edge14" class="edge"><title>Node0xf116900&#45;&gt;Node0x24465ad0</title>
<path fill="none" stroke="black" d="M448,-97.4994C448,-88.2058 448,-78.537 448,-69.9459"/>
<polygon fill="black" stroke="black" points="451.5,-69.7494 448,-59.7494 444.5,-69.7494 451.5,-69.7494"/>
</g>
</g>
</svg>
