<?xml version="1.0" encoding="UTF-8" standalone="no"?>
<!DOCTYPE svg PUBLIC "-//W3C//DTD SVG 1.1//EN"
 "http://www.w3.org/Graphics/SVG/1.1/DTD/svg11.dtd">
<!-- Generated by graphviz version 2.38.0 (20140413.2041)
 -->
<!-- Title: Control&#45;flow graph for function &#39;function_a6a8()&#39;. Pages: 1 -->
<svg width="641pt" height="1745pt"
 viewBox="0.00 0.00 640.50 1745.00" xmlns="http://www.w3.org/2000/svg" xmlns:xlink="http://www.w3.org/1999/xlink">
<g id="graph0" class="graph" transform="scale(1 1) rotate(0) translate(4 1741)">
<title>Control&#45;flow graph for function &#39;function_a6a8()&#39;.</title>
<polygon fill="white" stroke="none" points="-4,4 -4,-1741 636.5,-1741 636.5,4 -4,4"/>
<text text-anchor="middle" x="316.25" y="-7.8" font-family="Times,serif" font-size="14.00">Control&#45;flow graph for function &#39;function_a6a8()&#39;.</text>
<!-- Node0x3c9ec420 -->
<g id="node1" class="node"><title>Node0x3c9ec420</title>
<polygon fill="none" stroke="black" points="434.5,-1700.5 434.5,-1736.5 493.5,-1736.5 493.5,-1700.5 434.5,-1700.5"/>
<text text-anchor="start" x="442.5" y="-1714.8" font-family="Times,serif" font-size="14.00">entry:</text>
</g>
<!-- Node0x26632a80 -->
<g id="node2" class="node"><title>Node0x26632a80</title>
<polygon fill="none" stroke="black" points="295.5,-1399.5 295.5,-1662.5 632.5,-1662.5 632.5,-1399.5 295.5,-1399.5"/>
<text text-anchor="start" x="303.5" y="-1647.3" font-family="Times,serif" font-size="14.00">0x1779d950:</text>
<text text-anchor="start" x="303.5" y="-1632.3" font-family="Times,serif" font-size="14.00"> v1 = g38</text>
<text text-anchor="start" x="303.5" y="-1617.3" font-family="Times,serif" font-size="14.00"> v2 = g39</text>
<text text-anchor="start" x="303.5" y="-1602.3" font-family="Times,serif" font-size="14.00"> v3 = g40</text>
<text text-anchor="start" x="303.5" y="-1587.3" font-family="Times,serif" font-size="14.00"> v4 = g41</text>
<text text-anchor="start" x="303.5" y="-1572.3" font-family="Times,serif" font-size="14.00"> v5 = g42</text>
<text text-anchor="start" x="303.5" y="-1557.3" font-family="Times,serif" font-size="14.00"> v6 = g43</text>
<text text-anchor="start" x="303.5" y="-1542.3" font-family="Times,serif" font-size="14.00"> v7 = g31</text>
<text text-anchor="start" x="303.5" y="-1527.3" font-family="Times,serif" font-size="14.00"> v8 = g32</text>
<text text-anchor="start" x="303.5" y="-1512.3" font-family="Times,serif" font-size="14.00"> v9 = g35</text>
<text text-anchor="start" x="303.5" y="-1497.3" font-family="Times,serif" font-size="14.00"> g42 = g29</text>
<text text-anchor="start" x="303.5" y="-1482.3" font-family="Times,serif" font-size="14.00"> g31 = g30</text>
<text text-anchor="start" x="303.5" y="-1467.3" font-family="Times,serif" font-size="14.00"> v10</text>
<text text-anchor="start" x="303.5" y="-1452.3" font-family="Times,serif" font-size="14.00"> memset(BitCastExpr&lt;ptr&gt;(&amp;(v10)), g10, 0)</text>
<text text-anchor="start" x="303.5" y="-1437.3" font-family="Times,serif" font-size="14.00"> g41 = 0</text>
<text text-anchor="start" x="303.5" y="-1422.3" font-family="Times,serif" font-size="14.00"> v11 = 0</text>
<text text-anchor="start" x="303.5" y="-1407.3" font-family="Times,serif" font-size="14.00"> v12</text>
</g>
<!-- Node0x3c9ec420&#45;&gt;Node0x26632a80 -->
<g id="edge1" class="edge"><title>Node0x3c9ec420&#45;&gt;Node0x26632a80</title>
<path fill="none" stroke="black" d="M464,-1700.38C464,-1692.9 464,-1683.38 464,-1672.69"/>
<polygon fill="black" stroke="black" points="467.5,-1672.57 464,-1662.57 460.5,-1672.57 467.5,-1672.57"/>
</g>
<!-- Node0x3c9eba20 -->
<g id="node3" class="node"><title>Node0x3c9eba20</title>
<polygon fill="none" stroke="black" points="413.5,-1323.5 413.5,-1361.5 514.5,-1361.5 514.5,-1323.5 413.5,-1323.5"/>
<text text-anchor="start" x="421.5" y="-1346.3" font-family="Times,serif" font-size="14.00">0x71e2d00:</text>
<text text-anchor="start" x="421.5" y="-1331.3" font-family="Times,serif" font-size="14.00"> while True:</text>
</g>
<!-- Node0x26632a80&#45;&gt;Node0x3c9eba20 -->
<g id="edge2" class="edge"><title>Node0x26632a80&#45;&gt;Node0x3c9eba20</title>
<path fill="none" stroke="black" d="M464,-1399.46C464,-1389.36 464,-1379.95 464,-1371.85"/>
<polygon fill="black" stroke="black" points="467.5,-1371.66 464,-1361.66 460.5,-1371.66 467.5,-1371.66"/>
</g>
<!-- Node0x442747a0 -->
<g id="node4" class="node"><title>Node0x442747a0</title>
<polygon fill="none" stroke="black" points="0,-1098.5 0,-1271.5 520,-1271.5 520,-1098.5 0,-1098.5"/>
<text text-anchor="start" x="8" y="-1256.3" font-family="Times,serif" font-size="14.00">0x71dbe60:</text>
<text text-anchor="start" x="8" y="-1241.3" font-family="Times,serif" font-size="14.00"> g29 = ExtCastExpr&lt;int32&gt;(*(IntToPtrCastExpr&lt;ptr&gt;((g42 + v11))))</text>
<text text-anchor="start" x="8" y="-1226.3" font-family="Times,serif" font-size="14.00"> function_13090()</text>
<text text-anchor="start" x="8" y="-1211.3" font-family="Times,serif" font-size="14.00"> v13 = g29</text>
<text text-anchor="start" x="8" y="-1196.3" font-family="Times,serif" font-size="14.00"> g8 = False</text>
<text text-anchor="start" x="8" y="-1181.3" font-family="Times,serif" font-size="14.00"> g7 = (v13 &lt; 0)</text>
<text text-anchor="start" x="8" y="-1166.3" font-family="Times,serif" font-size="14.00"> g9 = (v13 == 0)</text>
<text text-anchor="start" x="8" y="-1151.3" font-family="Times,serif" font-size="14.00"> g40 = v13</text>
<text text-anchor="start" x="8" y="-1136.3" font-family="Times,serif" font-size="14.00"> g41 = (g41 + 1)</text>
<text text-anchor="start" x="8" y="-1121.3" font-family="Times,serif" font-size="14.00"> g30 = 4</text>
<text text-anchor="start" x="8" y="-1106.3" font-family="Times,serif" font-size="14.00"> g37 = 1</text>
</g>
<!-- Node0x3c9eba20&#45;&gt;Node0x442747a0 -->
<g id="edge3" class="edge"><title>Node0x3c9eba20&#45;&gt;Node0x442747a0</title>
<path fill="none" stroke="black" d="M440.199,-1323.36C424.686,-1311.53 403.142,-1295.11 380.333,-1277.72"/>
<polygon fill="black" stroke="black" points="382.296,-1274.82 372.221,-1271.54 378.052,-1280.39 382.296,-1274.82"/>
<text text-anchor="middle" x="432" y="-1293.8" font-family="Times,serif" font-size="14.00">True</text>
</g>
<!-- Node0x2e124ec0 -->
<g id="node5" class="node"><title>Node0x2e124ec0</title>
<polygon fill="none" stroke="black" points="206.5,-1022.5 206.5,-1060.5 313.5,-1060.5 313.5,-1022.5 206.5,-1022.5"/>
<text text-anchor="start" x="214.5" y="-1045.3" font-family="Times,serif" font-size="14.00">0x71deb10:</text>
<text text-anchor="start" x="214.5" y="-1030.3" font-family="Times,serif" font-size="14.00"> if (v13 &lt; 0):</text>
</g>
<!-- Node0x442747a0&#45;&gt;Node0x2e124ec0 -->
<g id="edge4" class="edge"><title>Node0x442747a0&#45;&gt;Node0x2e124ec0</title>
<path fill="none" stroke="black" d="M260,-1098.42C260,-1088.55 260,-1079.08 260,-1070.83"/>
<polygon fill="black" stroke="black" points="263.5,-1070.75 260,-1060.75 256.5,-1070.75 263.5,-1070.75"/>
</g>
<!-- Node0x3149a470 -->
<g id="node6" class="node"><title>Node0x3149a470</title>
<polygon fill="none" stroke="black" points="80.5,-530.5 80.5,-733.5 313.5,-733.5 313.5,-530.5 80.5,-530.5"/>
<text text-anchor="start" x="88.5" y="-718.3" font-family="Times,serif" font-size="14.00">0x71ddb30:</text>
<text text-anchor="start" x="88.5" y="-703.3" font-family="Times,serif" font-size="14.00"> g29 = 0</text>
<text text-anchor="start" x="88.5" y="-688.3" font-family="Times,serif" font-size="14.00"> g38 = v1</text>
<text text-anchor="start" x="88.5" y="-673.3" font-family="Times,serif" font-size="14.00"> g39 = v2</text>
<text text-anchor="start" x="88.5" y="-658.3" font-family="Times,serif" font-size="14.00"> g40 = v3</text>
<text text-anchor="start" x="88.5" y="-643.3" font-family="Times,serif" font-size="14.00"> g41 = v4</text>
<text text-anchor="start" x="88.5" y="-628.3" font-family="Times,serif" font-size="14.00"> g42 = v5</text>
<text text-anchor="start" x="88.5" y="-613.3" font-family="Times,serif" font-size="14.00"> g43 = v6</text>
<text text-anchor="start" x="88.5" y="-598.3" font-family="Times,serif" font-size="14.00"> g31 = v7</text>
<text text-anchor="start" x="88.5" y="-583.3" font-family="Times,serif" font-size="14.00"> g32 = v8</text>
<text text-anchor="start" x="88.5" y="-568.3" font-family="Times,serif" font-size="14.00"> g34 = v12</text>
<text text-anchor="start" x="88.5" y="-553.3" font-family="Times,serif" font-size="14.00"> IntToPtrCastExpr&lt;ptr&gt;(v9)()</text>
<text text-anchor="start" x="88.5" y="-538.3" font-family="Times,serif" font-size="14.00"> return</text>
</g>
<!-- Node0x2e124ec0&#45;&gt;Node0x3149a470 -->
<g id="edge5" class="edge"><title>Node0x2e124ec0&#45;&gt;Node0x3149a470</title>
<path fill="none" stroke="black" d="M238.511,-1022.37C233.135,-1016.93 227.819,-1010.63 224,-1004 216.415,-990.825 217.418,-986.009 215,-971 202.887,-895.813 198.426,-810.13 196.972,-743.845"/>
<polygon fill="black" stroke="black" points="200.471,-743.723 196.772,-733.795 193.472,-743.863 200.471,-743.723"/>
<text text-anchor="middle" x="252.5" y="-992.8" font-family="Times,serif" font-size="14.00">v13 &lt; 0</text>
</g>
<!-- Node0x44275070 -->
<g id="node7" class="node"><title>Node0x44275070</title>
<polygon fill="none" stroke="black" points="224.5,-752.5 224.5,-970.5 519.5,-970.5 519.5,-752.5 224.5,-752.5"/>
<text text-anchor="start" x="232.5" y="-955.3" font-family="Times,serif" font-size="14.00">0x71deda0:</text>
<text text-anchor="start" x="232.5" y="-940.3" font-family="Times,serif" font-size="14.00"> function_7ce4()</text>
<text text-anchor="start" x="232.5" y="-925.3" font-family="Times,serif" font-size="14.00"> v14</text>
<text text-anchor="start" x="232.5" y="-910.3" font-family="Times,serif" font-size="14.00"> g29 = PtrToIntCastExpr&lt;int32&gt;(v14)</text>
<text text-anchor="start" x="232.5" y="-895.3" font-family="Times,serif" font-size="14.00"> v15</text>
<text text-anchor="start" x="232.5" y="-880.3" font-family="Times,serif" font-size="14.00"> g37 = v15</text>
<text text-anchor="start" x="232.5" y="-865.3" font-family="Times,serif" font-size="14.00"> v10 = v14</text>
<text text-anchor="start" x="232.5" y="-850.3" font-family="Times,serif" font-size="14.00"> g36 = g40</text>
<text text-anchor="start" x="232.5" y="-835.3" font-family="Times,serif" font-size="14.00"> g30 = 4</text>
<text text-anchor="start" x="232.5" y="-820.3" font-family="Times,serif" font-size="14.00"> function_7d98()</text>
<text text-anchor="start" x="232.5" y="-805.3" font-family="Times,serif" font-size="14.00"> v16 = g41</text>
<text text-anchor="start" x="232.5" y="-790.3" font-family="Times,serif" font-size="14.00"> g8 = (((21 &#45; v16) &amp; v16) &lt; 0)</text>
<text text-anchor="start" x="232.5" y="-775.3" font-family="Times,serif" font-size="14.00"> g7 = (v16 &lt; 22)</text>
<text text-anchor="start" x="232.5" y="-760.3" font-family="Times,serif" font-size="14.00"> g9 = (v16 == 22)</text>
</g>
<!-- Node0x2e124ec0&#45;&gt;Node0x44275070 -->
<g id="edge6" class="edge"><title>Node0x2e124ec0&#45;&gt;Node0x44275070</title>
<path fill="none" stroke="black" d="M271.356,-1022.45C278.317,-1011.39 287.891,-996.174 298.383,-979.498"/>
<polygon fill="black" stroke="black" points="301.581,-980.987 303.945,-970.66 295.657,-977.26 301.581,-980.987"/>
<text text-anchor="middle" x="325.5" y="-992.8" font-family="Times,serif" font-size="14.00">v13 &gt;= 0</text>
</g>
<!-- Node0x3c9f1d20 -->
<g id="node8" class="node"><title>Node0x3c9f1d20</title>
<polygon fill="none" stroke="black" points="221,-23.5 221,-59.5 275,-59.5 275,-23.5 221,-23.5"/>
<text text-anchor="start" x="229" y="-37.8" font-family="Times,serif" font-size="14.00">exit:</text>
</g>
<!-- Node0x3149a470&#45;&gt;Node0x3c9f1d20 -->
<g id="edge7" class="edge"><title>Node0x3149a470&#45;&gt;Node0x3c9f1d20</title>
<path fill="none" stroke="black" d="M203.752,-530.162C205.043,-503.613 206,-474.988 206,-448.5 206,-448.5 206,-448.5 206,-220.5 206,-164.965 209.867,-150.433 225,-97 227.643,-87.6669 231.467,-77.8018 235.24,-69.0677"/>
<polygon fill="black" stroke="black" points="238.509,-70.3321 239.414,-59.7759 232.124,-67.4642 238.509,-70.3321"/>
</g>
<!-- Node0x4759b3f0 -->
<g id="node9" class="node"><title>Node0x4759b3f0</title>
<polygon fill="none" stroke="black" points="308,-473.5 308,-511.5 436,-511.5 436,-473.5 308,-473.5"/>
<text text-anchor="start" x="316" y="-496.3" font-family="Times,serif" font-size="14.00">0x71e0b70:</text>
<text text-anchor="start" x="316" y="-481.3" font-family="Times,serif" font-size="14.00"> if (v16 == 22):</text>
</g>
<!-- Node0x44275070&#45;&gt;Node0x4759b3f0 -->
<g id="edge8" class="edge"><title>Node0x44275070&#45;&gt;Node0x4759b3f0</title>
<path fill="none" stroke="black" d="M372,-752.373C372,-672.958 372,-570.748 372,-521.923"/>
<polygon fill="black" stroke="black" points="375.5,-521.794 372,-511.794 368.5,-521.794 375.5,-521.794"/>
</g>
<!-- Node0x44387440 -->
<g id="node10" class="node"><title>Node0x44387440</title>
<polygon fill="none" stroke="black" points="302,-383.5 302,-421.5 402,-421.5 402,-383.5 302,-383.5"/>
<text text-anchor="start" x="310" y="-406.3" font-family="Times,serif" font-size="14.00">0x71e08c0:</text>
<text text-anchor="start" x="310" y="-391.3" font-family="Times,serif" font-size="14.00"> break</text>
</g>
<!-- Node0x4759b3f0&#45;&gt;Node0x44387440 -->
<g id="edge9" class="edge"><title>Node0x4759b3f0&#45;&gt;Node0x44387440</title>
<path fill="none" stroke="black" d="M362.617,-473.356C360.047,-467.625 357.546,-461.175 356,-455 354.164,-447.668 353.104,-439.582 352.507,-432.033"/>
<polygon fill="black" stroke="black" points="355.991,-431.642 351.94,-421.853 349.002,-432.032 355.991,-431.642"/>
<text text-anchor="middle" x="395" y="-443.8" font-family="Times,serif" font-size="14.00">v16 == 22</text>
</g>
<!-- Node0x31498e40 -->
<g id="node11" class="node"><title>Node0x31498e40</title>
<polygon fill="none" stroke="black" points="459,-383.5 459,-421.5 559,-421.5 559,-383.5 459,-383.5"/>
<text text-anchor="start" x="467" y="-406.3" font-family="Times,serif" font-size="14.00">0x71e06e0:</text>
<text text-anchor="start" x="467" y="-391.3" font-family="Times,serif" font-size="14.00"> v11 = v16</text>
</g>
<!-- Node0x4759b3f0&#45;&gt;Node0x31498e40 -->
<g id="edge10" class="edge"><title>Node0x4759b3f0&#45;&gt;Node0x31498e40</title>
<path fill="none" stroke="black" d="M403.798,-473.352C413.572,-467.621 424.306,-461.171 434,-455 447.641,-446.316 462.366,-436.342 475.126,-427.498"/>
<polygon fill="black" stroke="black" points="477.407,-430.175 483.609,-421.585 473.404,-424.432 477.407,-430.175"/>
<text text-anchor="middle" x="490" y="-443.8" font-family="Times,serif" font-size="14.00">v16 != 22</text>
</g>
<!-- Node0x3c9f0120 -->
<g id="node12" class="node"><title>Node0x3c9f0120</title>
<polygon fill="none" stroke="black" points="234.5,-97.5 234.5,-345.5 467.5,-345.5 467.5,-97.5 234.5,-97.5"/>
<text text-anchor="start" x="242.5" y="-330.3" font-family="Times,serif" font-size="14.00">0x71e10d0:</text>
<text text-anchor="start" x="242.5" y="-315.3" font-family="Times,serif" font-size="14.00"> g36 = g31</text>
<text text-anchor="start" x="242.5" y="-300.3" font-family="Times,serif" font-size="14.00"> g30 = 4</text>
<text text-anchor="start" x="242.5" y="-285.3" font-family="Times,serif" font-size="14.00"> g37 = 16</text>
<text text-anchor="start" x="242.5" y="-270.3" font-family="Times,serif" font-size="14.00"> function_87e8()</text>
<text text-anchor="start" x="242.5" y="-255.3" font-family="Times,serif" font-size="14.00"> g29 = 1</text>
<text text-anchor="start" x="242.5" y="-240.3" font-family="Times,serif" font-size="14.00"> g38 = v1</text>
<text text-anchor="start" x="242.5" y="-225.3" font-family="Times,serif" font-size="14.00"> g39 = v2</text>
<text text-anchor="start" x="242.5" y="-210.3" font-family="Times,serif" font-size="14.00"> g40 = v3</text>
<text text-anchor="start" x="242.5" y="-195.3" font-family="Times,serif" font-size="14.00"> g41 = v4</text>
<text text-anchor="start" x="242.5" y="-180.3" font-family="Times,serif" font-size="14.00"> g42 = v5</text>
<text text-anchor="start" x="242.5" y="-165.3" font-family="Times,serif" font-size="14.00"> g43 = v6</text>
<text text-anchor="start" x="242.5" y="-150.3" font-family="Times,serif" font-size="14.00"> g31 = v7</text>
<text text-anchor="start" x="242.5" y="-135.3" font-family="Times,serif" font-size="14.00"> g32 = v8</text>
<text text-anchor="start" x="242.5" y="-120.3" font-family="Times,serif" font-size="14.00"> g34 = v12</text>
<text text-anchor="start" x="242.5" y="-105.3" font-family="Times,serif" font-size="14.00"> IntToPtrCastExpr&lt;ptr&gt;(v9)()</text>
</g>
<!-- Node0x44387440&#45;&gt;Node0x3c9f0120 -->
<g id="edge11" class="edge"><title>Node0x44387440&#45;&gt;Node0x3c9f0120</title>
<path fill="none" stroke="black" d="M351.899,-383.351C351.857,-375.875 351.805,-366.514 351.746,-356.088"/>
<polygon fill="black" stroke="black" points="355.245,-355.774 351.689,-345.794 348.245,-355.813 355.245,-355.774"/>
</g>
<!-- Node0x31498e40&#45;&gt;Node0x3c9eba20 -->
<g id="edge12" class="edge"><title>Node0x31498e40&#45;&gt;Node0x3c9eba20</title>
<path fill="none" stroke="black" d="M522.422,-421.689C533.703,-438.802 548,-465.598 548,-491.5 548,-1186 548,-1186 548,-1186 548,-1225.14 547.239,-1237.36 529,-1272 520.267,-1288.58 506.508,-1304.12 493.893,-1316.28"/>
<polygon fill="black" stroke="black" points="491.183,-1314.02 486.242,-1323.39 495.949,-1319.15 491.183,-1314.02"/>
</g>
<!-- Node0x3c9f0120&#45;&gt;Node0x3c9f1d20 -->
<g id="edge13" class="edge"><title>Node0x3c9f0120&#45;&gt;Node0x3c9f1d20</title>
<path fill="none" stroke="black" d="M279.744,-97.3583C273.612,-86.7619 267.921,-76.9265 263.1,-68.5956"/>
<polygon fill="black" stroke="black" points="266.088,-66.771 258.05,-59.8686 260.029,-70.277 266.088,-66.771"/>
</g>
</g>
</svg>
