<?xml version="1.0" encoding="UTF-8" standalone="no"?>
<!DOCTYPE svg PUBLIC "-//W3C//DTD SVG 1.1//EN"
 "http://www.w3.org/Graphics/SVG/1.1/DTD/svg11.dtd">
<!-- Generated by graphviz version 2.38.0 (20140413.2041)
 -->
<!-- Title: Control&#45;flow graph for function &#39;function_8900()&#39;. Pages: 1 -->
<svg width="544pt" height="276pt"
 viewBox="0.00 0.00 544.00 276.00" xmlns="http://www.w3.org/2000/svg" xmlns:xlink="http://www.w3.org/1999/xlink">
<g id="graph0" class="graph" transform="scale(1 1) rotate(0) translate(4 272)">
<title>Control&#45;flow graph for function &#39;function_8900()&#39;.</title>
<polygon fill="white" stroke="none" points="-4,4 -4,-272 540,-272 540,4 -4,4"/>
<text text-anchor="middle" x="268" y="-7.8" font-family="Times,serif" font-size="14.00">Control&#45;flow graph for function &#39;function_8900()&#39;.</text>
<!-- Node0x155d4e20 -->
<g id="node1" class="node"><title>Node0x155d4e20</title>
<polygon fill="none" stroke="black" points="238.5,-231.5 238.5,-267.5 297.5,-267.5 297.5,-231.5 238.5,-231.5"/>
<text text-anchor="start" x="246.5" y="-245.8" font-family="Times,serif" font-size="14.00">entry:</text>
</g>
<!-- Node0x3e132b00 -->
<g id="node2" class="node"><title>Node0x3e132b00</title>
<polygon fill="none" stroke="black" points="0,-96.5 0,-194.5 536,-194.5 536,-96.5 0,-96.5"/>
<text text-anchor="start" x="8" y="-179.3" font-family="Times,serif" font-size="14.00">0x22bfc1a0:</text>
<text text-anchor="start" x="8" y="-164.3" font-family="Times,serif" font-size="14.00"> v1 = *(IntToPtrCastExpr&lt;ptr&gt;((g36 + 104)))</text>
<text text-anchor="start" x="8" y="-149.3" font-family="Times,serif" font-size="14.00"> g29 = 0</text>
<text text-anchor="start" x="8" y="-134.3" font-family="Times,serif" font-size="14.00"> g9 = (v1 == 0)</text>
<text text-anchor="start" x="8" y="-119.3" font-family="Times,serif" font-size="14.00"> g37 = (v1 == 0)</text>
<text text-anchor="start" x="8" y="-104.3" font-family="Times,serif" font-size="14.00"> *(IntToPtrCastExpr&lt;ptr&gt;((g36 + 5))) = ExtCastExpr&lt;int8&gt;((v1 == 0))</text>
</g>
<!-- Node0x155d4e20&#45;&gt;Node0x3e132b00 -->
<g id="edge1" class="edge"><title>Node0x155d4e20&#45;&gt;Node0x3e132b00</title>
<path fill="none" stroke="black" d="M268,-231.197C268,-223.688 268,-214.415 268,-204.789"/>
<polygon fill="black" stroke="black" points="271.5,-204.688 268,-194.688 264.5,-204.688 271.5,-204.688"/>
</g>
<!-- Node0x1cdecd80 -->
<g id="node3" class="node"><title>Node0x1cdecd80</title>
<polygon fill="none" stroke="black" points="241,-23.5 241,-59.5 295,-59.5 295,-23.5 241,-23.5"/>
<text text-anchor="start" x="249" y="-37.8" font-family="Times,serif" font-size="14.00">exit:</text>
</g>
<!-- Node0x3e132b00&#45;&gt;Node0x1cdecd80 -->
<g id="edge2" class="edge"><title>Node0x3e132b00&#45;&gt;Node0x1cdecd80</title>
<path fill="none" stroke="black" d="M268,-96.4868C268,-87.2893 268,-77.9618 268,-69.7064"/>
<polygon fill="black" stroke="black" points="271.5,-69.5725 268,-59.5725 264.5,-69.5725 271.5,-69.5725"/>
</g>
</g>
</svg>
