<?xml version="1.0" encoding="UTF-8" standalone="no"?>
<!DOCTYPE svg PUBLIC "-//W3C//DTD SVG 1.1//EN"
 "http://www.w3.org/Graphics/SVG/1.1/DTD/svg11.dtd">
<!-- Generated by graphviz version 2.38.0 (20140413.2041)
 -->
<!-- Title: Control&#45;flow graph for function &#39;function_fb24()&#39;. Pages: 1 -->
<svg width="702pt" height="459pt"
 viewBox="0.00 0.00 702.00 459.00" xmlns="http://www.w3.org/2000/svg" xmlns:xlink="http://www.w3.org/1999/xlink">
<g id="graph0" class="graph" transform="scale(1 1) rotate(0) translate(4 455)">
<title>Control&#45;flow graph for function &#39;function_fb24()&#39;.</title>
<polygon fill="white" stroke="none" points="-4,4 -4,-455 698,-455 698,4 -4,4"/>
<text text-anchor="middle" x="347" y="-7.8" font-family="Times,serif" font-size="14.00">Control&#45;flow graph for function &#39;function_fb24()&#39;.</text>
<!-- Node0x33648760 -->
<g id="node1" class="node"><title>Node0x33648760</title>
<polygon fill="none" stroke="black" points="316.5,-414.5 316.5,-450.5 375.5,-450.5 375.5,-414.5 316.5,-414.5"/>
<text text-anchor="start" x="324.5" y="-428.8" font-family="Times,serif" font-size="14.00">entry:</text>
</g>
<!-- Node0x427a4550 -->
<g id="node2" class="node"><title>Node0x427a4550</title>
<polygon fill="none" stroke="black" points="56.5,-293.5 56.5,-376.5 635.5,-376.5 635.5,-293.5 56.5,-293.5"/>
<text text-anchor="start" x="64.5" y="-361.3" font-family="Times,serif" font-size="14.00">0xfa4dc50:</text>
<text text-anchor="start" x="64.5" y="-346.3" font-family="Times,serif" font-size="14.00"> v1 = g29</text>
<text text-anchor="start" x="64.5" y="-331.3" font-family="Times,serif" font-size="14.00"> v2 = *(IntToPtrCastExpr&lt;ptr&gt;((*(IntToPtrCastExpr&lt;ptr&gt;((v1 + 16))) + 23)))</text>
<text text-anchor="start" x="64.5" y="-316.3" font-family="Times,serif" font-size="14.00"> g37 = v2</text>
<text text-anchor="start" x="64.5" y="-301.3" font-family="Times,serif" font-size="14.00"> g9 = (v2 == 0)</text>
</g>
<!-- Node0x33648760&#45;&gt;Node0x427a4550 -->
<g id="edge1" class="edge"><title>Node0x33648760&#45;&gt;Node0x427a4550</title>
<path fill="none" stroke="black" d="M346,-414.427C346,-406.622 346,-396.921 346,-387.032"/>
<polygon fill="black" stroke="black" points="349.5,-386.73 346,-376.73 342.5,-386.73 349.5,-386.73"/>
</g>
<!-- Node0x427a3940 -->
<g id="node3" class="node"><title>Node0x427a3940</title>
<polygon fill="none" stroke="black" points="291,-217.5 291,-255.5 401,-255.5 401,-217.5 291,-217.5"/>
<text text-anchor="start" x="299" y="-240.3" font-family="Times,serif" font-size="14.00">0x78b2f90:</text>
<text text-anchor="start" x="299" y="-225.3" font-family="Times,serif" font-size="14.00"> if (v2 == 0):</text>
</g>
<!-- Node0x427a4550&#45;&gt;Node0x427a3940 -->
<g id="edge2" class="edge"><title>Node0x427a4550&#45;&gt;Node0x427a3940</title>
<path fill="none" stroke="black" d="M346,-293.355C346,-284.083 346,-274.427 346,-265.803"/>
<polygon fill="black" stroke="black" points="349.5,-265.538 346,-255.538 342.5,-265.538 349.5,-265.538"/>
</g>
<!-- Node0x33648020 -->
<g id="node4" class="node"><title>Node0x33648020</title>
<polygon fill="none" stroke="black" points="0,-97.5 0,-165.5 338,-165.5 338,-97.5 0,-97.5"/>
<text text-anchor="start" x="8" y="-150.3" font-family="Times,serif" font-size="14.00">0x78b2d00:</text>
<text text-anchor="start" x="8" y="-135.3" font-family="Times,serif" font-size="14.00"> g29 = *(IntToPtrCastExpr&lt;ptr&gt;((v1 + 20)))</text>
<text text-anchor="start" x="8" y="-120.3" font-family="Times,serif" font-size="14.00"> function_211d4()</text>
<text text-anchor="start" x="8" y="-105.3" font-family="Times,serif" font-size="14.00"> return</text>
</g>
<!-- Node0x427a3940&#45;&gt;Node0x33648020 -->
<g id="edge3" class="edge"><title>Node0x427a3940&#45;&gt;Node0x33648020</title>
<path fill="none" stroke="black" d="M314.763,-217.323C292.644,-204.451 262.161,-186.712 234.787,-170.783"/>
<polygon fill="black" stroke="black" points="236.427,-167.687 226.023,-165.683 232.906,-173.738 236.427,-167.687"/>
<text text-anchor="middle" x="309" y="-187.8" font-family="Times,serif" font-size="14.00">v2 == 0</text>
</g>
<!-- Node0x427a3860 -->
<g id="node5" class="node"><title>Node0x427a3860</title>
<polygon fill="none" stroke="black" points="356,-105 356,-158 694,-158 694,-105 356,-105"/>
<text text-anchor="start" x="364" y="-142.8" font-family="Times,serif" font-size="14.00">0x78b3490:</text>
<text text-anchor="start" x="364" y="-127.8" font-family="Times,serif" font-size="14.00"> g29 = *(IntToPtrCastExpr&lt;ptr&gt;((v1 + 12)))</text>
<text text-anchor="start" x="364" y="-112.8" font-family="Times,serif" font-size="14.00"> function_7b7c()</text>
</g>
<!-- Node0x427a3940&#45;&gt;Node0x427a3860 -->
<g id="edge4" class="edge"><title>Node0x427a3940&#45;&gt;Node0x427a3860</title>
<path fill="none" stroke="black" d="M377.59,-217.323C403.624,-202.342 441.115,-180.769 471.772,-163.128"/>
<polygon fill="black" stroke="black" points="473.711,-166.051 480.633,-158.029 470.22,-159.983 473.711,-166.051"/>
<text text-anchor="middle" x="463" y="-187.8" font-family="Times,serif" font-size="14.00">v2 != 0</text>
</g>
<!-- Node0x3364a6c0 -->
<g id="node6" class="node"><title>Node0x3364a6c0</title>
<polygon fill="none" stroke="black" points="361,-23.5 361,-59.5 415,-59.5 415,-23.5 361,-23.5"/>
<text text-anchor="start" x="369" y="-37.8" font-family="Times,serif" font-size="14.00">exit:</text>
</g>
<!-- Node0x33648020&#45;&gt;Node0x3364a6c0 -->
<g id="edge5" class="edge"><title>Node0x33648020&#45;&gt;Node0x3364a6c0</title>
<path fill="none" stroke="black" d="M251.171,-97.4817C285.653,-83.6256 323.999,-68.2173 351.303,-57.246"/>
<polygon fill="black" stroke="black" points="352.861,-60.392 360.835,-53.4158 350.251,-53.8967 352.861,-60.392"/>
</g>
<!-- Node0x427a3860&#45;&gt;Node0x3364a6c0 -->
<g id="edge6" class="edge"><title>Node0x427a3860&#45;&gt;Node0x3364a6c0</title>
<path fill="none" stroke="black" d="M485.006,-104.81C465.506,-92.2847 442.255,-77.3498 423.405,-65.2419"/>
<polygon fill="black" stroke="black" points="425.118,-62.1825 414.813,-59.7228 421.335,-68.0722 425.118,-62.1825"/>
</g>
</g>
</svg>
