<?xml version="1.0" encoding="UTF-8" standalone="no"?>
<!DOCTYPE svg PUBLIC "-//W3C//DTD SVG 1.1//EN"
 "http://www.w3.org/Graphics/SVG/1.1/DTD/svg11.dtd">
<!-- Generated by graphviz version 2.38.0 (20140413.2041)
 -->
<!-- Title: Control&#45;flow graph for function &#39;function_24228()&#39;. Pages: 1 -->
<svg width="386pt" height="231pt"
 viewBox="0.00 0.00 386.00 231.00" xmlns="http://www.w3.org/2000/svg" xmlns:xlink="http://www.w3.org/1999/xlink">
<g id="graph0" class="graph" transform="scale(1 1) rotate(0) translate(4 227)">
<title>Control&#45;flow graph for function &#39;function_24228()&#39;.</title>
<polygon fill="white" stroke="none" points="-4,4 -4,-227 382,-227 382,4 -4,4"/>
<text text-anchor="middle" x="189" y="-7.8" font-family="Times,serif" font-size="14.00">Control&#45;flow graph for function &#39;function_24228()&#39;.</text>
<!-- Node0x46826ea0 -->
<g id="node1" class="node"><title>Node0x46826ea0</title>
<polygon fill="none" stroke="black" points="159.5,-186.5 159.5,-222.5 218.5,-222.5 218.5,-186.5 159.5,-186.5"/>
<text text-anchor="start" x="167.5" y="-200.8" font-family="Times,serif" font-size="14.00">entry:</text>
</g>
<!-- Node0x2752bf00 -->
<g id="node2" class="node"><title>Node0x2752bf00</title>
<polygon fill="none" stroke="black" points="40,-96.5 40,-149.5 338,-149.5 338,-96.5 40,-96.5"/>
<text text-anchor="start" x="48" y="-134.3" font-family="Times,serif" font-size="14.00">0xa570660:</text>
<text text-anchor="start" x="48" y="-119.3" font-family="Times,serif" font-size="14.00"> *(IntToPtrCastExpr&lt;ptr&gt;(g29)) = g36</text>
<text text-anchor="start" x="48" y="-104.3" font-family="Times,serif" font-size="14.00"> function_23d6c()</text>
</g>
<!-- Node0x46826ea0&#45;&gt;Node0x2752bf00 -->
<g id="edge1" class="edge"><title>Node0x46826ea0&#45;&gt;Node0x2752bf00</title>
<path fill="none" stroke="black" d="M189,-186.25C189,-178.486 189,-169.014 189,-159.825"/>
<polygon fill="black" stroke="black" points="192.5,-159.676 189,-149.676 185.5,-159.676 192.5,-159.676"/>
</g>
<!-- Node0x27529250 -->
<g id="node3" class="node"><title>Node0x27529250</title>
<polygon fill="none" stroke="black" points="162,-23.5 162,-59.5 216,-59.5 216,-23.5 162,-23.5"/>
<text text-anchor="start" x="170" y="-37.8" font-family="Times,serif" font-size="14.00">exit:</text>
</g>
<!-- Node0x2752bf00&#45;&gt;Node0x27529250 -->
<g id="edge2" class="edge"><title>Node0x2752bf00&#45;&gt;Node0x27529250</title>
<path fill="none" stroke="black" d="M189,-96.4081C189,-87.9823 189,-78.5803 189,-70.0174"/>
<polygon fill="black" stroke="black" points="192.5,-69.7564 189,-59.7564 185.5,-69.7565 192.5,-69.7564"/>
</g>
</g>
</svg>
