<?xml version="1.0" encoding="UTF-8" standalone="no"?>
<!DOCTYPE svg PUBLIC "-//W3C//DTD SVG 1.1//EN"
 "http://www.w3.org/Graphics/SVG/1.1/DTD/svg11.dtd">
<!-- Generated by graphviz version 2.38.0 (20140413.2041)
 -->
<!-- Title: Control&#45;flow graph for function &#39;function_3bcc()&#39;. Pages: 1 -->
<svg width="648pt" height="1150pt"
 viewBox="0.00 0.00 647.50 1150.00" xmlns="http://www.w3.org/2000/svg" xmlns:xlink="http://www.w3.org/1999/xlink">
<g id="graph0" class="graph" transform="scale(1 1) rotate(0) translate(4 1146)">
<title>Control&#45;flow graph for function &#39;function_3bcc()&#39;.</title>
<polygon fill="white" stroke="none" points="-4,4 -4,-1146 643.5,-1146 643.5,4 -4,4"/>
<text text-anchor="middle" x="319.75" y="-7.8" font-family="Times,serif" font-size="14.00">Control&#45;flow graph for function &#39;function_3bcc()&#39;.</text>
<!-- Node0x3ef6c040 -->
<g id="node1" class="node"><title>Node0x3ef6c040</title>
<polygon fill="none" stroke="black" points="396.5,-1105.5 396.5,-1141.5 455.5,-1141.5 455.5,-1105.5 396.5,-1105.5"/>
<text text-anchor="start" x="404.5" y="-1119.8" font-family="Times,serif" font-size="14.00">entry:</text>
</g>
<!-- Node0x14c1e1e0 -->
<g id="node2" class="node"><title>Node0x14c1e1e0</title>
<polygon fill="none" stroke="black" points="359,-789.5 359,-1067.5 493,-1067.5 493,-789.5 359,-789.5"/>
<text text-anchor="start" x="367" y="-1052.3" font-family="Times,serif" font-size="14.00">0x3e5e81d0:</text>
<text text-anchor="start" x="367" y="-1037.3" font-family="Times,serif" font-size="14.00"> v1 = g39</text>
<text text-anchor="start" x="367" y="-1022.3" font-family="Times,serif" font-size="14.00"> v2 = g40</text>
<text text-anchor="start" x="367" y="-1007.3" font-family="Times,serif" font-size="14.00"> v3 = g41</text>
<text text-anchor="start" x="367" y="-992.3" font-family="Times,serif" font-size="14.00"> v4 = g42</text>
<text text-anchor="start" x="367" y="-977.3" font-family="Times,serif" font-size="14.00"> v5 = g31</text>
<text text-anchor="start" x="367" y="-962.3" font-family="Times,serif" font-size="14.00"> g40 = g37</text>
<text text-anchor="start" x="367" y="-947.3" font-family="Times,serif" font-size="14.00"> g37 = 64</text>
<text text-anchor="start" x="367" y="-932.3" font-family="Times,serif" font-size="14.00"> g42 = g29</text>
<text text-anchor="start" x="367" y="-917.3" font-family="Times,serif" font-size="14.00"> v6</text>
<text text-anchor="start" x="367" y="-902.3" font-family="Times,serif" font-size="14.00"> g31 = v6</text>
<text text-anchor="start" x="367" y="-887.3" font-family="Times,serif" font-size="14.00"> function_3418()</text>
<text text-anchor="start" x="367" y="-872.3" font-family="Times,serif" font-size="14.00"> v7 = g29</text>
<text text-anchor="start" x="367" y="-857.3" font-family="Times,serif" font-size="14.00"> g8 = False</text>
<text text-anchor="start" x="367" y="-842.3" font-family="Times,serif" font-size="14.00"> g7 = (v7 &lt; 0)</text>
<text text-anchor="start" x="367" y="-827.3" font-family="Times,serif" font-size="14.00"> g41 = v7</text>
<text text-anchor="start" x="367" y="-812.3" font-family="Times,serif" font-size="14.00"> v8</text>
<text text-anchor="start" x="367" y="-797.3" font-family="Times,serif" font-size="14.00"> v9</text>
</g>
<!-- Node0x3ef6c040&#45;&gt;Node0x14c1e1e0 -->
<g id="edge1" class="edge"><title>Node0x3ef6c040&#45;&gt;Node0x14c1e1e0</title>
<path fill="none" stroke="black" d="M426,-1105.37C426,-1097.96 426,-1088.53 426,-1077.92"/>
<polygon fill="black" stroke="black" points="429.5,-1077.85 426,-1067.85 422.5,-1077.85 429.5,-1077.85"/>
</g>
<!-- Node0x3eed2700 -->
<g id="node3" class="node"><title>Node0x3eed2700</title>
<polygon fill="none" stroke="black" points="371,-698.5 371,-751.5 481,-751.5 481,-698.5 371,-698.5"/>
<text text-anchor="start" x="379" y="-736.3" font-family="Times,serif" font-size="14.00">0x511edb0:</text>
<text text-anchor="start" x="379" y="-721.3" font-family="Times,serif" font-size="14.00"> if (v7 &gt;= 0):</text>
<text text-anchor="start" x="379" y="-706.3" font-family="Times,serif" font-size="14.00"> else:</text>
</g>
<!-- Node0x14c1e1e0&#45;&gt;Node0x3eed2700 -->
<g id="edge2" class="edge"><title>Node0x14c1e1e0&#45;&gt;Node0x3eed2700</title>
<path fill="none" stroke="black" d="M426,-789.479C426,-779.496 426,-770.08 426,-761.711"/>
<polygon fill="black" stroke="black" points="429.5,-761.705 426,-751.705 422.5,-761.705 429.5,-761.705"/>
</g>
<!-- Node0x24655ee0 -->
<g id="node4" class="node"><title>Node0x24655ee0</title>
<polygon fill="none" stroke="black" points="0,-278.5 0,-646.5 524,-646.5 524,-278.5 0,-278.5"/>
<text text-anchor="start" x="8" y="-631.3" font-family="Times,serif" font-size="14.00">0x511b150:</text>
<text text-anchor="start" x="8" y="-616.3" font-family="Times,serif" font-size="14.00"> function_13000()</text>
<text text-anchor="start" x="8" y="-601.3" font-family="Times,serif" font-size="14.00"> g39 = 0</text>
<text text-anchor="start" x="8" y="-586.3" font-family="Times,serif" font-size="14.00"> v10</text>
<text text-anchor="start" x="8" y="-571.3" font-family="Times,serif" font-size="14.00"> g29 = v10</text>
<text text-anchor="start" x="8" y="-556.3" font-family="Times,serif" font-size="14.00"> function_13000()</text>
<text text-anchor="start" x="8" y="-541.3" font-family="Times,serif" font-size="14.00"> g29 = g39</text>
<text text-anchor="start" x="8" y="-526.3" font-family="Times,serif" font-size="14.00"> function_12fe0()</text>
<text text-anchor="start" x="8" y="-511.3" font-family="Times,serif" font-size="14.00"> g29 = v8</text>
<text text-anchor="start" x="8" y="-496.3" font-family="Times,serif" font-size="14.00"> function_12fe0()</text>
<text text-anchor="start" x="8" y="-481.3" font-family="Times,serif" font-size="14.00"> v11</text>
<text text-anchor="start" x="8" y="-466.3" font-family="Times,serif" font-size="14.00"> g29 = v11</text>
<text text-anchor="start" x="8" y="-451.3" font-family="Times,serif" font-size="14.00"> function_12fe0()</text>
<text text-anchor="start" x="8" y="-436.3" font-family="Times,serif" font-size="14.00"> v12</text>
<text text-anchor="start" x="8" y="-421.3" font-family="Times,serif" font-size="14.00"> memcpy(BitCastExpr&lt;ptr&gt;(&amp;(v12)), IntToPtrCastExpr&lt;ptr&gt;(g40), 0)</text>
<text text-anchor="start" x="8" y="-406.3" font-family="Times,serif" font-size="14.00"> g29 = (g31 / 4)</text>
<text text-anchor="start" x="8" y="-391.3" font-family="Times,serif" font-size="14.00"> function_12fe0()</text>
<text text-anchor="start" x="8" y="-376.3" font-family="Times,serif" font-size="14.00"> v13</text>
<text text-anchor="start" x="8" y="-361.3" font-family="Times,serif" font-size="14.00"> g29 = ((g31 + v13) / 4)</text>
<text text-anchor="start" x="8" y="-346.3" font-family="Times,serif" font-size="14.00"> function_12fe0()</text>
<text text-anchor="start" x="8" y="-331.3" font-family="Times,serif" font-size="14.00"> g29 = g42</text>
<text text-anchor="start" x="8" y="-316.3" font-family="Times,serif" font-size="14.00"> g30 = 8</text>
<text text-anchor="start" x="8" y="-301.3" font-family="Times,serif" font-size="14.00"> function_38f4()</text>
<text text-anchor="start" x="8" y="-286.3" font-family="Times,serif" font-size="14.00"> v9 = g41</text>
</g>
<!-- Node0x3eed2700&#45;&gt;Node0x24655ee0 -->
<g id="edge3" class="edge"><title>Node0x3eed2700&#45;&gt;Node0x24655ee0</title>
<path fill="none" stroke="black" d="M409.675,-698.07C402.397,-686.508 393.126,-671.782 382.785,-655.357"/>
<polygon fill="black" stroke="black" points="385.575,-653.219 377.285,-646.621 379.651,-656.948 385.575,-653.219"/>
<text text-anchor="middle" x="425" y="-668.8" font-family="Times,serif" font-size="14.00">v7 &gt;= 0</text>
</g>
<!-- Node0x3eed44c0 -->
<g id="node5" class="node"><title>Node0x3eed44c0</title>
<polygon fill="none" stroke="black" points="542.5,-443.5 542.5,-481.5 639.5,-481.5 639.5,-443.5 542.5,-443.5"/>
<text text-anchor="start" x="550.5" y="-466.3" font-family="Times,serif" font-size="14.00">0x511ef30:</text>
<text text-anchor="start" x="550.5" y="-451.3" font-family="Times,serif" font-size="14.00"> v9 = v7</text>
</g>
<!-- Node0x3eed2700&#45;&gt;Node0x3eed44c0 -->
<g id="edge4" class="edge"><title>Node0x3eed2700&#45;&gt;Node0x3eed44c0</title>
<path fill="none" stroke="black" d="M474.666,-698.373C495.21,-685.406 517.835,-667.949 533,-647 567.652,-599.131 582.108,-529.815 587.734,-491.537"/>
<polygon fill="black" stroke="black" points="591.204,-491.99 589.096,-481.607 584.269,-491.039 591.204,-491.99"/>
<text text-anchor="middle" x="541" y="-668.8" font-family="Times,serif" font-size="14.00">v7 &lt; 0</text>
</g>
<!-- Node0x3ef6b6b0 -->
<g id="node6" class="node"><title>Node0x3ef6b6b0</title>
<polygon fill="none" stroke="black" points="343,-97.5 343,-240.5 585,-240.5 585,-97.5 343,-97.5"/>
<text text-anchor="start" x="351" y="-225.3" font-family="Times,serif" font-size="14.00">0x511f080:</text>
<text text-anchor="start" x="351" y="-210.3" font-family="Times,serif" font-size="14.00"> g29 = v9</text>
<text text-anchor="start" x="351" y="-195.3" font-family="Times,serif" font-size="14.00"> g39 = v1</text>
<text text-anchor="start" x="351" y="-180.3" font-family="Times,serif" font-size="14.00"> g40 = v2</text>
<text text-anchor="start" x="351" y="-165.3" font-family="Times,serif" font-size="14.00"> g41 = v3</text>
<text text-anchor="start" x="351" y="-150.3" font-family="Times,serif" font-size="14.00"> g42 = v4</text>
<text text-anchor="start" x="351" y="-135.3" font-family="Times,serif" font-size="14.00"> g31 = v5</text>
<text text-anchor="start" x="351" y="-120.3" font-family="Times,serif" font-size="14.00"> g34 = v8</text>
<text text-anchor="start" x="351" y="-105.3" font-family="Times,serif" font-size="14.00"> IntToPtrCastExpr&lt;ptr&gt;(g35)()</text>
</g>
<!-- Node0x24655ee0&#45;&gt;Node0x3ef6b6b0 -->
<g id="edge5" class="edge"><title>Node0x24655ee0&#45;&gt;Node0x3ef6b6b0</title>
<path fill="none" stroke="black" d="M389.07,-278.13C396.028,-268.089 402.808,-258.304 409.267,-248.983"/>
<polygon fill="black" stroke="black" points="412.285,-250.773 415.104,-240.56 406.531,-246.786 412.285,-250.773"/>
</g>
<!-- Node0x3eed44c0&#45;&gt;Node0x3ef6b6b0 -->
<g id="edge6" class="edge"><title>Node0x3eed44c0&#45;&gt;Node0x3ef6b6b0</title>
<path fill="none" stroke="black" d="M586.97,-443.462C579.11,-409.889 560.098,-335.961 533,-278 528.527,-268.432 523.34,-258.699 517.858,-249.192"/>
<polygon fill="black" stroke="black" points="520.848,-247.37 512.753,-240.534 514.818,-250.926 520.848,-247.37"/>
</g>
<!-- Node0x3eed0900 -->
<g id="node7" class="node"><title>Node0x3eed0900</title>
<polygon fill="none" stroke="black" points="437,-23.5 437,-59.5 491,-59.5 491,-23.5 437,-23.5"/>
<text text-anchor="start" x="445" y="-37.8" font-family="Times,serif" font-size="14.00">exit:</text>
</g>
<!-- Node0x3ef6b6b0&#45;&gt;Node0x3eed0900 -->
<g id="edge7" class="edge"><title>Node0x3ef6b6b0&#45;&gt;Node0x3eed0900</title>
<path fill="none" stroke="black" d="M464,-97.181C464,-87.439 464,-77.9608 464,-69.7068"/>
<polygon fill="black" stroke="black" points="467.5,-69.642 464,-59.642 460.5,-69.6421 467.5,-69.642"/>
</g>
</g>
</svg>
