<?xml version="1.0" encoding="UTF-8" standalone="no"?>
<!DOCTYPE svg PUBLIC "-//W3C//DTD SVG 1.1//EN"
 "http://www.w3.org/Graphics/SVG/1.1/DTD/svg11.dtd">
<!-- Generated by graphviz version 2.38.0 (20140413.2041)
 -->
<!-- Title: Control&#45;flow graph for function &#39;function_133ec()&#39;. Pages: 1 -->
<svg width="492pt" height="775pt"
 viewBox="0.00 0.00 492.00 775.00" xmlns="http://www.w3.org/2000/svg" xmlns:xlink="http://www.w3.org/1999/xlink">
<g id="graph0" class="graph" transform="scale(1 1) rotate(0) translate(4 771)">
<title>Control&#45;flow graph for function &#39;function_133ec()&#39;.</title>
<polygon fill="white" stroke="none" points="-4,4 -4,-771 488,-771 488,4 -4,4"/>
<text text-anchor="middle" x="242" y="-7.8" font-family="Times,serif" font-size="14.00">Control&#45;flow graph for function &#39;function_133ec()&#39;.</text>
<!-- Node0x37592420 -->
<g id="node1" class="node"><title>Node0x37592420</title>
<polygon fill="none" stroke="black" points="200.5,-730.5 200.5,-766.5 259.5,-766.5 259.5,-730.5 200.5,-730.5"/>
<text text-anchor="start" x="208.5" y="-744.8" font-family="Times,serif" font-size="14.00">entry:</text>
</g>
<!-- Node0x375921f0 -->
<g id="node2" class="node"><title>Node0x375921f0</title>
<polygon fill="none" stroke="black" points="71.5,-549.5 71.5,-692.5 388.5,-692.5 388.5,-549.5 71.5,-549.5"/>
<text text-anchor="start" x="79.5" y="-677.3" font-family="Times,serif" font-size="14.00">0x1587d490:</text>
<text text-anchor="start" x="79.5" y="-662.3" font-family="Times,serif" font-size="14.00"> v1 = g38</text>
<text text-anchor="start" x="79.5" y="-647.3" font-family="Times,serif" font-size="14.00"> v2 = g40</text>
<text text-anchor="start" x="79.5" y="-632.3" font-family="Times,serif" font-size="14.00"> v3 = g36</text>
<text text-anchor="start" x="79.5" y="-617.3" font-family="Times,serif" font-size="14.00"> g40 = v3</text>
<text text-anchor="start" x="79.5" y="-602.3" font-family="Times,serif" font-size="14.00"> g38 = g30</text>
<text text-anchor="start" x="79.5" y="-587.3" font-family="Times,serif" font-size="14.00"> len = strlen(IntToPtrCastExpr&lt;ptr&gt;(v3))</text>
<text text-anchor="start" x="79.5" y="-572.3" font-family="Times,serif" font-size="14.00"> v4 = g38</text>
<text text-anchor="start" x="79.5" y="-557.3" font-family="Times,serif" font-size="14.00"> g6 = (len &gt;= v4)</text>
</g>
<!-- Node0x37592420&#45;&gt;Node0x375921f0 -->
<g id="edge1" class="edge"><title>Node0x37592420&#45;&gt;Node0x375921f0</title>
<path fill="none" stroke="black" d="M230,-730.313C230,-722.682 230,-713.101 230,-702.811"/>
<polygon fill="black" stroke="black" points="233.5,-702.769 230,-692.769 226.5,-702.769 233.5,-702.769"/>
</g>
<!-- Node0x375944f0 -->
<g id="node3" class="node"><title>Node0x375944f0</title>
<polygon fill="none" stroke="black" points="175,-473.5 175,-511.5 285,-511.5 285,-473.5 175,-473.5"/>
<text text-anchor="start" x="183" y="-496.3" font-family="Times,serif" font-size="14.00">0x7f8dd40:</text>
<text text-anchor="start" x="183" y="-481.3" font-family="Times,serif" font-size="14.00"> if (len &lt; v4):</text>
</g>
<!-- Node0x375921f0&#45;&gt;Node0x375944f0 -->
<g id="edge2" class="edge"><title>Node0x375921f0&#45;&gt;Node0x375944f0</title>
<path fill="none" stroke="black" d="M230,-549.353C230,-539.594 230,-530.073 230,-521.737"/>
<polygon fill="black" stroke="black" points="233.5,-521.54 230,-511.54 226.5,-521.54 233.5,-521.54"/>
</g>
<!-- Node0x37596bc0 -->
<g id="node4" class="node"><title>Node0x37596bc0</title>
<polygon fill="none" stroke="black" points="139,-383.5 139,-421.5 233,-421.5 233,-383.5 139,-383.5"/>
<text text-anchor="start" x="147" y="-406.3" font-family="Times,serif" font-size="14.00">0x7f8df70:</text>
<text text-anchor="start" x="147" y="-391.3" font-family="Times,serif" font-size="14.00"> g29 = 0</text>
</g>
<!-- Node0x375944f0&#45;&gt;Node0x37596bc0 -->
<g id="edge3" class="edge"><title>Node0x375944f0&#45;&gt;Node0x37596bc0</title>
<path fill="none" stroke="black" d="M207.636,-473.254C202.393,-467.904 197.361,-461.678 194,-455 190.476,-447.999 188.421,-439.839 187.244,-432.106"/>
<polygon fill="black" stroke="black" points="190.702,-431.532 186.128,-421.975 183.744,-432.298 190.702,-431.532"/>
<text text-anchor="middle" x="224.5" y="-443.8" font-family="Times,serif" font-size="14.00">len &lt; v4</text>
</g>
<!-- Node0x375925a0 -->
<g id="node5" class="node"><title>Node0x375925a0</title>
<polygon fill="none" stroke="black" points="-2.84217e-14,-97.5 -2.84217e-14,-345.5 484,-345.5 484,-97.5 -2.84217e-14,-97.5"/>
<text text-anchor="start" x="8" y="-330.3" font-family="Times,serif" font-size="14.00">0x7f8e2f0:</text>
<text text-anchor="start" x="8" y="-315.3" font-family="Times,serif" font-size="14.00"> g38 = v1</text>
<text text-anchor="start" x="8" y="-300.3" font-family="Times,serif" font-size="14.00"> v5</text>
<text text-anchor="start" x="8" y="-285.3" font-family="Times,serif" font-size="14.00"> g34 = v5</text>
<text text-anchor="start" x="8" y="-270.3" font-family="Times,serif" font-size="14.00"> IntToPtrCastExpr&lt;ptr&gt;(ExtCastExpr&lt;int32&gt;((len &lt; v4)))()</text>
<text text-anchor="start" x="8" y="-255.3" font-family="Times,serif" font-size="14.00"> g37 = 0</text>
<text text-anchor="start" x="8" y="-240.3" font-family="Times,serif" font-size="14.00"> *(IntToPtrCastExpr&lt;ptr&gt;((g39 + len))) = 0</text>
<text text-anchor="start" x="8" y="-225.3" font-family="Times,serif" font-size="14.00"> memcpy(IntToPtrCastExpr&lt;ptr&gt;(g39), &amp;(v2), len)</text>
<text text-anchor="start" x="8" y="-210.3" font-family="Times,serif" font-size="14.00"> g29 = 1</text>
<text text-anchor="start" x="8" y="-195.3" font-family="Times,serif" font-size="14.00"> v6 = g34</text>
<text text-anchor="start" x="8" y="-180.3" font-family="Times,serif" font-size="14.00"> g38 = *(IntToPtrCastExpr&lt;ptr&gt;((v6 + 4)))</text>
<text text-anchor="start" x="8" y="-165.3" font-family="Times,serif" font-size="14.00"> g39 = *(IntToPtrCastExpr&lt;ptr&gt;((v6 + 8)))</text>
<text text-anchor="start" x="8" y="-150.3" font-family="Times,serif" font-size="14.00"> g40 = *(IntToPtrCastExpr&lt;ptr&gt;((v6 + 12)))</text>
<text text-anchor="start" x="8" y="-135.3" font-family="Times,serif" font-size="14.00"> g32 = *(IntToPtrCastExpr&lt;ptr&gt;((v6 + 16)))</text>
<text text-anchor="start" x="8" y="-120.3" font-family="Times,serif" font-size="14.00"> g34 = *(IntToPtrCastExpr&lt;ptr&gt;((v6 + 20)))</text>
<text text-anchor="start" x="8" y="-105.3" font-family="Times,serif" font-size="14.00"> IntToPtrCastExpr&lt;ptr&gt;(*(IntToPtrCastExpr&lt;ptr&gt;((v6 + 24))))()</text>
</g>
<!-- Node0x375944f0&#45;&gt;Node0x375925a0 -->
<g id="edge4" class="edge"><title>Node0x375944f0&#45;&gt;Node0x375925a0</title>
<path fill="none" stroke="black" d="M245.586,-473.316C249.422,-467.787 253.001,-461.457 255,-455 256.972,-448.632 255.199,-446.664 255,-440 254.186,-412.723 252.798,-383.547 251.224,-355.709"/>
<polygon fill="black" stroke="black" points="254.707,-355.302 250.637,-345.52 247.719,-355.705 254.707,-355.302"/>
<text text-anchor="middle" x="290.5" y="-398.8" font-family="Times,serif" font-size="14.00">len &gt;= v4</text>
</g>
<!-- Node0x37596bc0&#45;&gt;Node0x375925a0 -->
<g id="edge5" class="edge"><title>Node0x37596bc0&#45;&gt;Node0x375925a0</title>
<path fill="none" stroke="black" d="M191.678,-383.351C194.065,-375.721 197.066,-366.127 200.409,-355.442"/>
<polygon fill="black" stroke="black" points="203.782,-356.383 203.428,-345.794 197.101,-354.293 203.782,-356.383"/>
</g>
<!-- Node0x375921b0 -->
<g id="node6" class="node"><title>Node0x375921b0</title>
<polygon fill="none" stroke="black" points="215,-23.5 215,-59.5 269,-59.5 269,-23.5 215,-23.5"/>
<text text-anchor="start" x="223" y="-37.8" font-family="Times,serif" font-size="14.00">exit:</text>
</g>
<!-- Node0x375925a0&#45;&gt;Node0x375921b0 -->
<g id="edge6" class="edge"><title>Node0x375925a0&#45;&gt;Node0x375921b0</title>
<path fill="none" stroke="black" d="M242,-97.3583C242,-87.3316 242,-77.9863 242,-69.9522"/>
<polygon fill="black" stroke="black" points="245.5,-69.8686 242,-59.8686 238.5,-69.8686 245.5,-69.8686"/>
</g>
</g>
</svg>
