<?xml version="1.0" encoding="UTF-8" standalone="no"?>
<!DOCTYPE svg PUBLIC "-//W3C//DTD SVG 1.1//EN"
 "http://www.w3.org/Graphics/SVG/1.1/DTD/svg11.dtd">
<!-- Generated by graphviz version 2.38.0 (20140413.2041)
 -->
<!-- Title: Control&#45;flow graph for function &#39;function_a60c()&#39;. Pages: 1 -->
<svg width="816pt" height="3109pt"
 viewBox="0.00 0.00 816.00 3109.00" xmlns="http://www.w3.org/2000/svg" xmlns:xlink="http://www.w3.org/1999/xlink">
<g id="graph0" class="graph" transform="scale(1 1) rotate(0) translate(4 3105)">
<title>Control&#45;flow graph for function &#39;function_a60c()&#39;.</title>
<polygon fill="white" stroke="none" points="-4,4 -4,-3105 812,-3105 812,4 -4,4"/>
<text text-anchor="middle" x="404" y="-7.8" font-family="Times,serif" font-size="14.00">Control&#45;flow graph for function &#39;function_a60c()&#39;.</text>
<!-- Node0x15d74c60 -->
<g id="node1" class="node"><title>Node0x15d74c60</title>
<polygon fill="none" stroke="black" points="193.5,-3064.5 193.5,-3100.5 252.5,-3100.5 252.5,-3064.5 193.5,-3064.5"/>
<text text-anchor="start" x="201.5" y="-3078.8" font-family="Times,serif" font-size="14.00">entry:</text>
</g>
<!-- Node0x29aa4340 -->
<g id="node2" class="node"><title>Node0x29aa4340</title>
<polygon fill="none" stroke="black" points="84,-2733.5 84,-3026.5 362,-3026.5 362,-2733.5 84,-2733.5"/>
<text text-anchor="start" x="92" y="-3011.3" font-family="Times,serif" font-size="14.00">0x3609b510:</text>
<text text-anchor="start" x="92" y="-2996.3" font-family="Times,serif" font-size="14.00"> v1 = g38</text>
<text text-anchor="start" x="92" y="-2981.3" font-family="Times,serif" font-size="14.00"> v2 = g39</text>
<text text-anchor="start" x="92" y="-2966.3" font-family="Times,serif" font-size="14.00"> v3 = g40</text>
<text text-anchor="start" x="92" y="-2951.3" font-family="Times,serif" font-size="14.00"> v4 = g41</text>
<text text-anchor="start" x="92" y="-2936.3" font-family="Times,serif" font-size="14.00"> v5 = g32</text>
<text text-anchor="start" x="92" y="-2921.3" font-family="Times,serif" font-size="14.00"> v6 = g35</text>
<text text-anchor="start" x="92" y="-2906.3" font-family="Times,serif" font-size="14.00"> v7 = g30</text>
<text text-anchor="start" x="92" y="-2891.3" font-family="Times,serif" font-size="14.00"> g39 = v7</text>
<text text-anchor="start" x="92" y="-2876.3" font-family="Times,serif" font-size="14.00"> v8 = g29</text>
<text text-anchor="start" x="92" y="-2861.3" font-family="Times,serif" font-size="14.00"> g38 = v8</text>
<text text-anchor="start" x="92" y="-2846.3" font-family="Times,serif" font-size="14.00"> g41 = (g36 + v7)</text>
<text text-anchor="start" x="92" y="-2831.3" font-family="Times,serif" font-size="14.00"> v9 = *(IntToPtrCastExpr&lt;ptr&gt;(v8))</text>
<text text-anchor="start" x="92" y="-2816.3" font-family="Times,serif" font-size="14.00"> v10 = v9</text>
<text text-anchor="start" x="92" y="-2801.3" font-family="Times,serif" font-size="14.00"> g6 = (v9 &gt; 57)</text>
<text text-anchor="start" x="92" y="-2786.3" font-family="Times,serif" font-size="14.00"> g8 = (((57 &#45; v10) &amp; v10) &lt; 0)</text>
<text text-anchor="start" x="92" y="-2771.3" font-family="Times,serif" font-size="14.00"> g7 = (v10 &lt; 58)</text>
<text text-anchor="start" x="92" y="-2756.3" font-family="Times,serif" font-size="14.00"> g9 = (v9 == 58)</text>
<text text-anchor="start" x="92" y="-2741.3" font-family="Times,serif" font-size="14.00"> v11</text>
</g>
<!-- Node0x15d74c60&#45;&gt;Node0x29aa4340 -->
<g id="edge1" class="edge"><title>Node0x15d74c60&#45;&gt;Node0x29aa4340</title>
<path fill="none" stroke="black" d="M223,-3064.41C223,-3057.01 223,-3047.6 223,-3036.97"/>
<polygon fill="black" stroke="black" points="226.5,-3036.89 223,-3026.89 219.5,-3036.89 226.5,-3036.89"/>
</g>
<!-- Node0x326adb50 -->
<g id="node3" class="node"><title>Node0x326adb50</title>
<polygon fill="none" stroke="black" points="163.5,-2657.5 163.5,-2695.5 282.5,-2695.5 282.5,-2657.5 163.5,-2657.5"/>
<text text-anchor="start" x="171.5" y="-2680.3" font-family="Times,serif" font-size="14.00">0x71d2d50:</text>
<text text-anchor="start" x="171.5" y="-2665.3" font-family="Times,serif" font-size="14.00"> if (v9 == 58):</text>
</g>
<!-- Node0x29aa4340&#45;&gt;Node0x326adb50 -->
<g id="edge2" class="edge"><title>Node0x29aa4340&#45;&gt;Node0x326adb50</title>
<path fill="none" stroke="black" d="M223,-2733.36C223,-2723.25 223,-2713.89 223,-2705.85"/>
<polygon fill="black" stroke="black" points="226.5,-2705.73 223,-2695.73 219.5,-2705.73 226.5,-2705.73"/>
</g>
<!-- Node0x3c9ed420 -->
<g id="node4" class="node"><title>Node0x3c9ed420</title>
<polygon fill="none" stroke="black" points="0,-2345.5 0,-2533.5 270,-2533.5 270,-2345.5 0,-2345.5"/>
<text text-anchor="start" x="8" y="-2518.3" font-family="Times,serif" font-size="14.00">0x71d2f10:</text>
<text text-anchor="start" x="8" y="-2503.3" font-family="Times,serif" font-size="14.00"> g37 = 0</text>
<text text-anchor="start" x="8" y="-2488.3" font-family="Times,serif" font-size="14.00"> *(IntToPtrCastExpr&lt;ptr&gt;(v7)) = 0</text>
<text text-anchor="start" x="8" y="-2473.3" font-family="Times,serif" font-size="14.00"> g29 = g38</text>
<text text-anchor="start" x="8" y="-2458.3" font-family="Times,serif" font-size="14.00"> g38 = v1</text>
<text text-anchor="start" x="8" y="-2443.3" font-family="Times,serif" font-size="14.00"> g39 = v2</text>
<text text-anchor="start" x="8" y="-2428.3" font-family="Times,serif" font-size="14.00"> g40 = v3</text>
<text text-anchor="start" x="8" y="-2413.3" font-family="Times,serif" font-size="14.00"> g41 = v4</text>
<text text-anchor="start" x="8" y="-2398.3" font-family="Times,serif" font-size="14.00"> g32 = v5</text>
<text text-anchor="start" x="8" y="-2383.3" font-family="Times,serif" font-size="14.00"> g34 = v11</text>
<text text-anchor="start" x="8" y="-2368.3" font-family="Times,serif" font-size="14.00"> IntToPtrCastExpr&lt;ptr&gt;(v6)()</text>
<text text-anchor="start" x="8" y="-2353.3" font-family="Times,serif" font-size="14.00"> return</text>
</g>
<!-- Node0x326adb50&#45;&gt;Node0x3c9ed420 -->
<g id="edge3" class="edge"><title>Node0x326adb50&#45;&gt;Node0x3c9ed420</title>
<path fill="none" stroke="black" d="M195.53,-2657.46C189.28,-2652.19 183.242,-2645.95 179,-2639 161.578,-2610.47 151.025,-2575.88 144.642,-2543.63"/>
<polygon fill="black" stroke="black" points="148.065,-2542.89 142.792,-2533.7 141.184,-2544.17 148.065,-2542.89"/>
<text text-anchor="middle" x="213.5" y="-2627.8" font-family="Times,serif" font-size="14.00">v9 == 58</text>
</g>
<!-- Node0x3c9eb920 -->
<g id="node5" class="node"><title>Node0x3c9eb920</title>
<polygon fill="none" stroke="black" points="238,-2552.5 238,-2605.5 348,-2605.5 348,-2552.5 238,-2552.5"/>
<text text-anchor="start" x="246" y="-2590.3" font-family="Times,serif" font-size="14.00">0x48176370:</text>
<text text-anchor="start" x="246" y="-2575.3" font-family="Times,serif" font-size="14.00"> v12 = v7</text>
<text text-anchor="start" x="246" y="-2560.3" font-family="Times,serif" font-size="14.00"> v13</text>
</g>
<!-- Node0x326adb50&#45;&gt;Node0x3c9eb920 -->
<g id="edge4" class="edge"><title>Node0x326adb50&#45;&gt;Node0x3c9eb920</title>
<path fill="none" stroke="black" d="M236.497,-2657.09C245.464,-2644.85 257.505,-2628.43 268.168,-2613.88"/>
<polygon fill="black" stroke="black" points="271.164,-2615.71 274.253,-2605.58 265.518,-2611.57 271.164,-2615.71"/>
<text text-anchor="middle" x="292.5" y="-2627.8" font-family="Times,serif" font-size="14.00">v9 != 58</text>
</g>
<!-- Node0x29aaa240 -->
<g id="node6" class="node"><title>Node0x29aaa240</title>
<polygon fill="none" stroke="black" points="139,-23.5 139,-59.5 193,-59.5 193,-23.5 139,-23.5"/>
<text text-anchor="start" x="147" y="-37.8" font-family="Times,serif" font-size="14.00">exit:</text>
</g>
<!-- Node0x3c9ed420&#45;&gt;Node0x29aaa240 -->
<g id="edge5" class="edge"><title>Node0x3c9ed420&#45;&gt;Node0x29aaa240</title>
<path fill="none" stroke="black" d="M108.553,-2345.22C103.11,-2319.01 99,-2290.33 99,-2263.5 99,-2263.5 99,-2263.5 99,-183 99,-143.317 105.026,-132.379 123,-97 128.213,-86.7402 135.519,-76.552 142.632,-67.8092"/>
<polygon fill="black" stroke="black" points="145.526,-69.8079 149.317,-59.9148 140.184,-65.284 145.526,-69.8079"/>
</g>
<!-- Node0x3c9ece20 -->
<g id="node7" class="node"><title>Node0x3c9ece20</title>
<polygon fill="none" stroke="black" points="271.5,-2288.5 271.5,-2326.5 372.5,-2326.5 372.5,-2288.5 271.5,-2288.5"/>
<text text-anchor="start" x="279.5" y="-2311.3" font-family="Times,serif" font-size="14.00">0x71d2bf0:</text>
<text text-anchor="start" x="279.5" y="-2296.3" font-family="Times,serif" font-size="14.00"> while True:</text>
</g>
<!-- Node0x3c9eb920&#45;&gt;Node0x3c9ece20 -->
<g id="edge6" class="edge"><title>Node0x3c9eb920&#45;&gt;Node0x3c9ece20</title>
<path fill="none" stroke="black" d="M295.781,-2552.16C301.245,-2501.38 313.342,-2388.96 318.988,-2336.49"/>
<polygon fill="black" stroke="black" points="322.468,-2336.86 320.059,-2326.54 315.509,-2336.11 322.468,-2336.86"/>
</g>
<!-- Node0x3c9ef520 -->
<g id="node8" class="node"><title>Node0x3c9ef520</title>
<polygon fill="none" stroke="black" points="208.5,-2153.5 208.5,-2236.5 435.5,-2236.5 435.5,-2153.5 208.5,-2153.5"/>
<text text-anchor="start" x="216.5" y="-2221.3" font-family="Times,serif" font-size="14.00">0x71c1730:</text>
<text text-anchor="start" x="216.5" y="-2206.3" font-family="Times,serif" font-size="14.00"> g6 = (v10 &gt; 46)</text>
<text text-anchor="start" x="216.5" y="-2191.3" font-family="Times,serif" font-size="14.00"> g8 = (((46 &#45; v10) &amp; v10) &lt; 0)</text>
<text text-anchor="start" x="216.5" y="-2176.3" font-family="Times,serif" font-size="14.00"> g7 = (v10 &lt; 47)</text>
<text text-anchor="start" x="216.5" y="-2161.3" font-family="Times,serif" font-size="14.00"> g9 = (v10 == 47)</text>
</g>
<!-- Node0x3c9ece20&#45;&gt;Node0x3c9ef520 -->
<g id="edge7" class="edge"><title>Node0x3c9ece20&#45;&gt;Node0x3c9ef520</title>
<path fill="none" stroke="black" d="M322,-2288.25C322,-2276.9 322,-2261.68 322,-2246.89"/>
<polygon fill="black" stroke="black" points="325.5,-2246.76 322,-2236.76 318.5,-2246.76 325.5,-2246.76"/>
<text text-anchor="middle" x="339" y="-2258.8" font-family="Times,serif" font-size="14.00">True</text>
</g>
<!-- Node0x3c9f0620 -->
<g id="node9" class="node"><title>Node0x3c9f0620</title>
<polygon fill="none" stroke="black" points="258,-2077.5 258,-2115.5 386,-2115.5 386,-2077.5 258,-2077.5"/>
<text text-anchor="start" x="266" y="-2100.3" font-family="Times,serif" font-size="14.00">0x71cfad0:</text>
<text text-anchor="start" x="266" y="-2085.3" font-family="Times,serif" font-size="14.00"> if (v10 == 47):</text>
</g>
<!-- Node0x3c9ef520&#45;&gt;Node0x3c9f0620 -->
<g id="edge8" class="edge"><title>Node0x3c9ef520&#45;&gt;Node0x3c9f0620</title>
<path fill="none" stroke="black" d="M322,-2153.35C322,-2144.08 322,-2134.43 322,-2125.8"/>
<polygon fill="black" stroke="black" points="325.5,-2125.54 322,-2115.54 318.5,-2125.54 325.5,-2125.54"/>
</g>
<!-- Node0x11803ad0 -->
<g id="node10" class="node"><title>Node0x11803ad0</title>
<polygon fill="none" stroke="black" points="116.5,-1765.5 116.5,-1953.5 395.5,-1953.5 395.5,-1765.5 116.5,-1765.5"/>
<text text-anchor="start" x="124.5" y="-1938.3" font-family="Times,serif" font-size="14.00">0x71cfe60:</text>
<text text-anchor="start" x="124.5" y="-1923.3" font-family="Times,serif" font-size="14.00"> g37 = 0</text>
<text text-anchor="start" x="124.5" y="-1908.3" font-family="Times,serif" font-size="14.00"> *(IntToPtrCastExpr&lt;ptr&gt;(v12)) = 0</text>
<text text-anchor="start" x="124.5" y="-1893.3" font-family="Times,serif" font-size="14.00"> g29 = g38</text>
<text text-anchor="start" x="124.5" y="-1878.3" font-family="Times,serif" font-size="14.00"> g38 = v1</text>
<text text-anchor="start" x="124.5" y="-1863.3" font-family="Times,serif" font-size="14.00"> g39 = v2</text>
<text text-anchor="start" x="124.5" y="-1848.3" font-family="Times,serif" font-size="14.00"> g40 = v3</text>
<text text-anchor="start" x="124.5" y="-1833.3" font-family="Times,serif" font-size="14.00"> g41 = v4</text>
<text text-anchor="start" x="124.5" y="-1818.3" font-family="Times,serif" font-size="14.00"> g32 = v5</text>
<text text-anchor="start" x="124.5" y="-1803.3" font-family="Times,serif" font-size="14.00"> g34 = v11</text>
<text text-anchor="start" x="124.5" y="-1788.3" font-family="Times,serif" font-size="14.00"> IntToPtrCastExpr&lt;ptr&gt;(v6)()</text>
<text text-anchor="start" x="124.5" y="-1773.3" font-family="Times,serif" font-size="14.00"> return</text>
</g>
<!-- Node0x3c9f0620&#45;&gt;Node0x11803ad0 -->
<g id="edge9" class="edge"><title>Node0x3c9f0620&#45;&gt;Node0x11803ad0</title>
<path fill="none" stroke="black" d="M291.065,-2077.34C284.765,-2072.21 278.884,-2066.06 275,-2059 259.302,-2030.47 252.576,-1996.1 250.347,-1964.04"/>
<polygon fill="black" stroke="black" points="253.823,-1963.51 249.775,-1953.72 246.834,-1963.9 253.823,-1963.51"/>
<text text-anchor="middle" x="314" y="-2047.8" font-family="Times,serif" font-size="14.00">v10 == 47</text>
</g>
<!-- Node0x3c9f1520 -->
<g id="node11" class="node"><title>Node0x3c9f1520</title>
<polygon fill="none" stroke="black" points="354.5,-1972.5 354.5,-2025.5 459.5,-2025.5 459.5,-1972.5 354.5,-1972.5"/>
<text text-anchor="start" x="362.5" y="-2010.3" font-family="Times,serif" font-size="14.00">0x3ca28f80:</text>
<text text-anchor="start" x="362.5" y="-1995.3" font-family="Times,serif" font-size="14.00"> v14</text>
<text text-anchor="start" x="362.5" y="-1980.3" font-family="Times,serif" font-size="14.00"> v15</text>
</g>
<!-- Node0x3c9f0620&#45;&gt;Node0x3c9f1520 -->
<g id="edge10" class="edge"><title>Node0x3c9f0620&#45;&gt;Node0x3c9f1520</title>
<path fill="none" stroke="black" d="M338.389,-2077.09C349.481,-2064.62 364.447,-2047.81 377.571,-2033.06"/>
<polygon fill="black" stroke="black" points="380.201,-2035.37 384.236,-2025.58 374.973,-2030.72 380.201,-2035.37"/>
<text text-anchor="middle" x="404" y="-2047.8" font-family="Times,serif" font-size="14.00">v10 != 47</text>
</g>
<!-- Node0x11803ad0&#45;&gt;Node0x29aaa240 -->
<g id="edge11" class="edge"><title>Node0x11803ad0&#45;&gt;Node0x29aaa240</title>
<path fill="none" stroke="black" d="M169.832,-1765.16C151.222,-1736.28 137,-1702.95 137,-1668.5 137,-1668.5 137,-1668.5 137,-183 137,-142.805 148.525,-97.4525 157.044,-69.4187"/>
<polygon fill="black" stroke="black" points="160.48,-70.1585 160.131,-59.5694 153.8,-68.0645 160.48,-70.1585"/>
</g>
<!-- Node0x3c9f1120 -->
<g id="node12" class="node"><title>Node0x3c9f1120</title>
<polygon fill="none" stroke="black" points="355,-1693.5 355,-1746.5 483,-1746.5 483,-1693.5 355,-1693.5"/>
<text text-anchor="start" x="363" y="-1731.3" font-family="Times,serif" font-size="14.00">0x71cc660:</text>
<text text-anchor="start" x="363" y="-1716.3" font-family="Times,serif" font-size="14.00"> if (v10 == 37):</text>
<text text-anchor="start" x="363" y="-1701.3" font-family="Times,serif" font-size="14.00"> else:</text>
</g>
<!-- Node0x3c9f1520&#45;&gt;Node0x3c9f1120 -->
<g id="edge12" class="edge"><title>Node0x3c9f1520&#45;&gt;Node0x3c9f1120</title>
<path fill="none" stroke="black" d="M408.107,-1972.44C410.255,-1922.86 414.99,-1813.56 417.449,-1756.79"/>
<polygon fill="black" stroke="black" points="420.959,-1756.64 417.895,-1746.5 413.966,-1756.34 420.959,-1756.64"/>
</g>
<!-- Node0x44278d80 -->
<g id="node13" class="node"><title>Node0x44278d80</title>
<polygon fill="none" stroke="black" points="172.5,-1468.5 172.5,-1641.5 665.5,-1641.5 665.5,-1468.5 172.5,-1468.5"/>
<text text-anchor="start" x="180.5" y="-1626.3" font-family="Times,serif" font-size="14.00">0x71c3c20:</text>
<text text-anchor="start" x="180.5" y="-1611.3" font-family="Times,serif" font-size="14.00"> g29 = ExtCastExpr&lt;int32&gt;(*(IntToPtrCastExpr&lt;ptr&gt;((v8 + 1))))</text>
<text text-anchor="start" x="180.5" y="-1596.3" font-family="Times,serif" font-size="14.00"> function_13068()</text>
<text text-anchor="start" x="180.5" y="-1581.3" font-family="Times,serif" font-size="14.00"> v16 = g29</text>
<text text-anchor="start" x="180.5" y="-1566.3" font-family="Times,serif" font-size="14.00"> g6 = True</text>
<text text-anchor="start" x="180.5" y="-1551.3" font-family="Times,serif" font-size="14.00"> g8 = False</text>
<text text-anchor="start" x="180.5" y="-1536.3" font-family="Times,serif" font-size="14.00"> g7 = (v16 &lt; 0)</text>
<text text-anchor="start" x="180.5" y="-1521.3" font-family="Times,serif" font-size="14.00"> g9 = (v16 == 0)</text>
<text text-anchor="start" x="180.5" y="-1506.3" font-family="Times,serif" font-size="14.00"> g40 = v16</text>
<text text-anchor="start" x="180.5" y="-1491.3" font-family="Times,serif" font-size="14.00"> v17 = (g38 + 2)</text>
<text text-anchor="start" x="180.5" y="-1476.3" font-family="Times,serif" font-size="14.00"> g38 = v17</text>
</g>
<!-- Node0x3c9f1120&#45;&gt;Node0x44278d80 -->
<g id="edge13" class="edge"><title>Node0x3c9f1120&#45;&gt;Node0x44278d80</title>
<path fill="none" stroke="black" d="M419,-1693.17C419,-1681.54 419,-1667 419,-1651.78"/>
<polygon fill="black" stroke="black" points="422.5,-1651.7 419,-1641.7 415.5,-1651.7 422.5,-1651.7"/>
<text text-anchor="middle" x="458" y="-1663.8" font-family="Times,serif" font-size="14.00">v10 == 37</text>
</g>
<!-- Node0x26630590 -->
<g id="node14" class="node"><title>Node0x26630590</title>
<polygon fill="none" stroke="black" points="639,-1121.5 639,-1159.5 761,-1159.5 761,-1121.5 639,-1121.5"/>
<text text-anchor="start" x="647" y="-1144.3" font-family="Times,serif" font-size="14.00">0x71cddf0:</text>
<text text-anchor="start" x="647" y="-1129.3" font-family="Times,serif" font-size="14.00"> if (v10 != 43):</text>
</g>
<!-- Node0x3c9f1120&#45;&gt;Node0x26630590 -->
<g id="edge14" class="edge"><title>Node0x3c9f1120&#45;&gt;Node0x26630590</title>
<path fill="none" stroke="black" d="M483.237,-1716.01C540.573,-1709.95 623.12,-1692.33 674,-1642 702.483,-1613.83 701,-1596.06 701,-1556 701,-1556 701,-1556 701,-1268 701,-1234.18 700.638,-1195.27 700.35,-1169.64"/>
<polygon fill="black" stroke="black" points="703.848,-1169.47 700.232,-1159.52 696.849,-1169.56 703.848,-1169.47"/>
<text text-anchor="middle" x="737" y="-1407.8" font-family="Times,serif" font-size="14.00">v10 != 37</text>
</g>
<!-- Node0x26633fb0 -->
<g id="node15" class="node"><title>Node0x26633fb0</title>
<polygon fill="none" stroke="black" points="359.5,-1392.5 359.5,-1430.5 478.5,-1430.5 478.5,-1392.5 359.5,-1392.5"/>
<text text-anchor="start" x="367.5" y="-1415.3" font-family="Times,serif" font-size="14.00">0x71cc490:</text>
<text text-anchor="start" x="367.5" y="-1400.3" font-family="Times,serif" font-size="14.00"> if (v16 &gt;= 0):</text>
</g>
<!-- Node0x44278d80&#45;&gt;Node0x26633fb0 -->
<g id="edge15" class="edge"><title>Node0x44278d80&#45;&gt;Node0x26633fb0</title>
<path fill="none" stroke="black" d="M419,-1468.42C419,-1458.55 419,-1449.08 419,-1440.83"/>
<polygon fill="black" stroke="black" points="422.5,-1440.75 419,-1430.75 415.5,-1440.75 422.5,-1440.75"/>
</g>
<!-- Node0x31496110 -->
<g id="node16" class="node"><title>Node0x31496110</title>
<polygon fill="none" stroke="black" points="478,-1001.5 478,-1069.5 614,-1069.5 614,-1001.5 478,-1001.5"/>
<text text-anchor="start" x="486" y="-1054.3" font-family="Times,serif" font-size="14.00">0x71cdb60:</text>
<text text-anchor="start" x="486" y="-1039.3" font-family="Times,serif" font-size="14.00"> v14 = v10</text>
<text text-anchor="start" x="486" y="-1024.3" font-family="Times,serif" font-size="14.00"> v15 = v12</text>
<text text-anchor="start" x="486" y="-1009.3" font-family="Times,serif" font-size="14.00"> goto 0x71c7cd0</text>
</g>
<!-- Node0x26630590&#45;&gt;Node0x31496110 -->
<g id="edge16" class="edge"><title>Node0x26630590&#45;&gt;Node0x31496110</title>
<path fill="none" stroke="black" d="M657.531,-1121.48C646.31,-1116.09 634.428,-1109.79 624,-1103 611.998,-1095.19 599.834,-1085.72 588.796,-1076.4"/>
<polygon fill="black" stroke="black" points="590.839,-1073.54 580.977,-1069.67 586.273,-1078.85 590.839,-1073.54"/>
<text text-anchor="middle" x="660" y="-1091.8" font-family="Times,serif" font-size="14.00">v10 != 43</text>
</g>
<!-- Node0x469521a0 -->
<g id="node17" class="node"><title>Node0x469521a0</title>
<polygon fill="none" stroke="black" points="632,-1001.5 632,-1069.5 768,-1069.5 768,-1001.5 632,-1001.5"/>
<text text-anchor="start" x="640" y="-1054.3" font-family="Times,serif" font-size="14.00">0x71ce190:</text>
<text text-anchor="start" x="640" y="-1039.3" font-family="Times,serif" font-size="14.00"> v14 = 32</text>
<text text-anchor="start" x="640" y="-1024.3" font-family="Times,serif" font-size="14.00"> v15 = v12</text>
<text text-anchor="start" x="640" y="-1009.3" font-family="Times,serif" font-size="14.00"> goto 0x71c7cd0</text>
</g>
<!-- Node0x26630590&#45;&gt;Node0x469521a0 -->
<g id="edge17" class="edge"><title>Node0x26630590&#45;&gt;Node0x469521a0</title>
<path fill="none" stroke="black" d="M700,-1121.09C700,-1109.63 700,-1094.39 700,-1080"/>
<polygon fill="black" stroke="black" points="703.5,-1079.74 700,-1069.74 696.5,-1079.74 703.5,-1079.74"/>
<text text-anchor="middle" x="739" y="-1091.8" font-family="Times,serif" font-size="14.00">v10 == 43</text>
</g>
<!-- Node0x221069f0 -->
<g id="node18" class="node"><title>Node0x221069f0</title>
<polygon fill="none" stroke="black" points="211.5,-1197.5 211.5,-1340.5 672.5,-1340.5 672.5,-1197.5 211.5,-1197.5"/>
<text text-anchor="start" x="219.5" y="-1325.3" font-family="Times,serif" font-size="14.00">0x71c5870:</text>
<text text-anchor="start" x="219.5" y="-1310.3" font-family="Times,serif" font-size="14.00"> g29 = ExtCastExpr&lt;int32&gt;(*(IntToPtrCastExpr&lt;ptr&gt;(v17)))</text>
<text text-anchor="start" x="219.5" y="-1295.3" font-family="Times,serif" font-size="14.00"> function_13068()</text>
<text text-anchor="start" x="219.5" y="-1280.3" font-family="Times,serif" font-size="14.00"> v18 = g29</text>
<text text-anchor="start" x="219.5" y="-1265.3" font-family="Times,serif" font-size="14.00"> g6 = True</text>
<text text-anchor="start" x="219.5" y="-1250.3" font-family="Times,serif" font-size="14.00"> g8 = False</text>
<text text-anchor="start" x="219.5" y="-1235.3" font-family="Times,serif" font-size="14.00"> g7 = (v18 &lt; 0)</text>
<text text-anchor="start" x="219.5" y="-1220.3" font-family="Times,serif" font-size="14.00"> g9 = (v18 == 0)</text>
<text text-anchor="start" x="219.5" y="-1205.3" font-family="Times,serif" font-size="14.00"> v14 = (((16 * g40) + v18) % 256)</text>
</g>
<!-- Node0x26633fb0&#45;&gt;Node0x221069f0 -->
<g id="edge18" class="edge"><title>Node0x26633fb0&#45;&gt;Node0x221069f0</title>
<path fill="none" stroke="black" d="M421.96,-1392.42C423.778,-1381.31 426.25,-1366.21 428.836,-1350.42"/>
<polygon fill="black" stroke="black" points="432.294,-1350.95 430.456,-1340.52 425.386,-1349.82 432.294,-1350.95"/>
<text text-anchor="middle" x="462.5" y="-1362.8" font-family="Times,serif" font-size="14.00">v16 &gt;= 0</text>
</g>
<!-- Node0x3c9f1c20 -->
<g id="node19" class="node"><title>Node0x3c9f1c20</title>
<polygon fill="none" stroke="black" points="165.5,-519.5 165.5,-677.5 398.5,-677.5 398.5,-519.5 165.5,-519.5"/>
<text text-anchor="start" x="173.5" y="-662.3" font-family="Times,serif" font-size="14.00">0x71ceed0:</text>
<text text-anchor="start" x="173.5" y="-647.3" font-family="Times,serif" font-size="14.00"> g29 = 0</text>
<text text-anchor="start" x="173.5" y="-632.3" font-family="Times,serif" font-size="14.00"> g38 = v1</text>
<text text-anchor="start" x="173.5" y="-617.3" font-family="Times,serif" font-size="14.00"> g39 = v2</text>
<text text-anchor="start" x="173.5" y="-602.3" font-family="Times,serif" font-size="14.00"> g40 = v3</text>
<text text-anchor="start" x="173.5" y="-587.3" font-family="Times,serif" font-size="14.00"> g41 = v4</text>
<text text-anchor="start" x="173.5" y="-572.3" font-family="Times,serif" font-size="14.00"> g32 = v5</text>
<text text-anchor="start" x="173.5" y="-557.3" font-family="Times,serif" font-size="14.00"> g34 = v11</text>
<text text-anchor="start" x="173.5" y="-542.3" font-family="Times,serif" font-size="14.00"> IntToPtrCastExpr&lt;ptr&gt;(v6)()</text>
<text text-anchor="start" x="173.5" y="-527.3" font-family="Times,serif" font-size="14.00"> return</text>
</g>
<!-- Node0x26633fb0&#45;&gt;Node0x3c9f1c20 -->
<g id="edge19" class="edge"><title>Node0x26633fb0&#45;&gt;Node0x3c9f1c20</title>
<path fill="none" stroke="black" d="M359.249,-1406.72C310.395,-1400.44 242.929,-1383.96 202,-1341 179.468,-1317.35 183,-1302.67 183,-1270 183,-1270 183,-1270 183,-747.5 183,-726.017 190.295,-705.292 200.925,-686.495"/>
<polygon fill="black" stroke="black" points="204.052,-688.087 206.211,-677.715 198.055,-684.477 204.052,-688.087"/>
<text text-anchor="middle" x="211.5" y="-1031.8" font-family="Times,serif" font-size="14.00">v16 &lt; 0</text>
</g>
<!-- Node0x17047cf0 -->
<g id="node20" class="node"><title>Node0x17047cf0</title>
<polygon fill="none" stroke="black" points="310.5,-805.5 310.5,-963.5 779.5,-963.5 779.5,-805.5 310.5,-805.5"/>
<text text-anchor="start" x="318.5" y="-948.3" font-family="Times,serif" font-size="14.00">0x71c7cd0:</text>
<text text-anchor="start" x="318.5" y="-933.3" font-family="Times,serif" font-size="14.00"> g39 = (v15 + 1)</text>
<text text-anchor="start" x="318.5" y="-918.3" font-family="Times,serif" font-size="14.00"> *(IntToPtrCastExpr&lt;ptr&gt;(v15)) = TruncCastExpr&lt;int8&gt;(v14)</text>
<text text-anchor="start" x="318.5" y="-903.3" font-family="Times,serif" font-size="14.00"> v19 = g41</text>
<text text-anchor="start" x="318.5" y="-888.3" font-family="Times,serif" font-size="14.00"> v13 = g39</text>
<text text-anchor="start" x="318.5" y="-873.3" font-family="Times,serif" font-size="14.00"> v20 = (v13 &#45; v19)</text>
<text text-anchor="start" x="318.5" y="-858.3" font-family="Times,serif" font-size="14.00"> g6 = (v13 &gt;= v19)</text>
<text text-anchor="start" x="318.5" y="-843.3" font-family="Times,serif" font-size="14.00"> g8 = (((v20 ^ v13) &amp; (v13 ^ v19)) &lt; 0)</text>
<text text-anchor="start" x="318.5" y="-828.3" font-family="Times,serif" font-size="14.00"> g7 = (v20 &lt; 0)</text>
<text text-anchor="start" x="318.5" y="-813.3" font-family="Times,serif" font-size="14.00"> g9 = (v13 == v19)</text>
</g>
<!-- Node0x31496110&#45;&gt;Node0x17047cf0 -->
<g id="edge20" class="edge"><title>Node0x31496110&#45;&gt;Node0x17047cf0</title>
<path fill="none" stroke="black" d="M545.778,-1001.43C545.722,-993.033 545.658,-983.603 545.593,-973.845"/>
<polygon fill="black" stroke="black" points="549.091,-973.563 545.524,-963.586 542.091,-973.61 549.091,-973.563"/>
</g>
<!-- Node0x469521a0&#45;&gt;Node0x17047cf0 -->
<g id="edge21" class="edge"><title>Node0x469521a0&#45;&gt;Node0x17047cf0</title>
<path fill="none" stroke="black" d="M665.6,-1001.43C655.943,-992.149 644.976,-981.606 633.686,-970.753"/>
<polygon fill="black" stroke="black" points="635.866,-967.993 626.231,-963.586 631.015,-973.04 635.866,-967.993"/>
</g>
<!-- Node0x314974b0 -->
<g id="node21" class="node"><title>Node0x314974b0</title>
<polygon fill="none" stroke="black" points="350.5,-1121.5 350.5,-1159.5 469.5,-1159.5 469.5,-1121.5 350.5,-1121.5"/>
<text text-anchor="start" x="358.5" y="-1144.3" font-family="Times,serif" font-size="14.00">0x71cc250:</text>
<text text-anchor="start" x="358.5" y="-1129.3" font-family="Times,serif" font-size="14.00"> if (v18 &gt;= 0):</text>
</g>
<!-- Node0x221069f0&#45;&gt;Node0x314974b0 -->
<g id="edge22" class="edge"><title>Node0x221069f0&#45;&gt;Node0x314974b0</title>
<path fill="none" stroke="black" d="M424.129,-1197.35C421.632,-1187.48 419.198,-1177.86 417.072,-1169.46"/>
<polygon fill="black" stroke="black" points="420.409,-1168.38 414.564,-1159.54 413.623,-1170.09 420.409,-1168.38"/>
</g>
<!-- Node0x3c9f1c20&#45;&gt;Node0x29aaa240 -->
<g id="edge23" class="edge"><title>Node0x3c9f1c20&#45;&gt;Node0x29aaa240</title>
<path fill="none" stroke="black" d="M212.176,-519.453C202.615,-502.174 196,-483.126 196,-463.5 196,-463.5 196,-463.5 196,-183 196,-142.748 184.078,-97.41 175.265,-69.3951"/>
<polygon fill="black" stroke="black" points="178.487,-67.9843 172.071,-59.5531 171.829,-70.1452 178.487,-67.9843"/>
</g>
<!-- Node0x4759c770 -->
<g id="node22" class="node"><title>Node0x4759c770</title>
<polygon fill="none" stroke="black" points="477,-729.5 477,-767.5 613,-767.5 613,-729.5 477,-729.5"/>
<text text-anchor="start" x="485" y="-752.3" font-family="Times,serif" font-size="14.00">0x71cc070:</text>
<text text-anchor="start" x="485" y="-737.3" font-family="Times,serif" font-size="14.00"> if (v13 &gt;= v19):</text>
</g>
<!-- Node0x17047cf0&#45;&gt;Node0x4759c770 -->
<g id="edge24" class="edge"><title>Node0x17047cf0&#45;&gt;Node0x4759c770</title>
<path fill="none" stroke="black" d="M545,-805.164C545,-795.447 545,-786.058 545,-777.846"/>
<polygon fill="black" stroke="black" points="548.5,-777.801 545,-767.801 541.5,-777.801 548.5,-777.801"/>
</g>
<!-- Node0x314974b0&#45;&gt;Node0x3c9f1c20 -->
<g id="edge26" class="edge"><title>Node0x314974b0&#45;&gt;Node0x3c9f1c20</title>
<path fill="none" stroke="black" d="M358.306,-1121.36C322.782,-1105.22 282,-1077.72 282,-1036.5 282,-1036.5 282,-1036.5 282,-747.5 282,-728.245 282,-707.581 282,-687.983"/>
<polygon fill="black" stroke="black" points="285.5,-687.845 282,-677.845 278.5,-687.845 285.5,-687.845"/>
</g>
<!-- Node0x31499760 -->
<g id="node23" class="node"><title>Node0x31499760</title>
<polygon fill="none" stroke="black" points="360,-1016.5 360,-1054.5 460,-1054.5 460,-1016.5 360,-1016.5"/>
<text text-anchor="start" x="368" y="-1039.3" font-family="Times,serif" font-size="14.00">0x71c78c0:</text>
<text text-anchor="start" x="368" y="-1024.3" font-family="Times,serif" font-size="14.00"> v15 = g39</text>
</g>
<!-- Node0x314974b0&#45;&gt;Node0x31499760 -->
<g id="edge25" class="edge"><title>Node0x314974b0&#45;&gt;Node0x31499760</title>
<path fill="none" stroke="black" d="M410,-1121.09C410,-1105.49 410,-1082.87 410,-1064.94"/>
<polygon fill="black" stroke="black" points="413.5,-1064.75 410,-1054.75 406.5,-1064.75 413.5,-1064.75"/>
<text text-anchor="middle" x="444.5" y="-1091.8" font-family="Times,serif" font-size="14.00">v18 &gt;= 0</text>
</g>
<!-- Node0x4759c770&#45;&gt;Node0x3c9f1c20 -->
<g id="edge28" class="edge"><title>Node0x4759c770&#45;&gt;Node0x3c9f1c20</title>
<path fill="none" stroke="black" d="M507.32,-729.492C479.534,-715.947 440.991,-696.598 408,-678 407.905,-677.947 407.811,-677.893 407.716,-677.84"/>
<polygon fill="black" stroke="black" points="409.247,-674.684 398.827,-672.769 405.778,-680.764 409.247,-674.684"/>
</g>
<!-- Node0x44278d10 -->
<g id="node24" class="node"><title>Node0x44278d10</title>
<polygon fill="none" stroke="black" points="417,-527 417,-670 713,-670 713,-527 417,-527"/>
<text text-anchor="start" x="425" y="-654.8" font-family="Times,serif" font-size="14.00">0x47a43cc0:</text>
<text text-anchor="start" x="425" y="-639.8" font-family="Times,serif" font-size="14.00"> v21 = (g38 + 1)</text>
<text text-anchor="start" x="425" y="-624.8" font-family="Times,serif" font-size="14.00"> g38 = v21</text>
<text text-anchor="start" x="425" y="-609.8" font-family="Times,serif" font-size="14.00"> v22 = *(IntToPtrCastExpr&lt;ptr&gt;(v21))</text>
<text text-anchor="start" x="425" y="-594.8" font-family="Times,serif" font-size="14.00"> v23 = v22</text>
<text text-anchor="start" x="425" y="-579.8" font-family="Times,serif" font-size="14.00"> g6 = (v22 &gt; 57)</text>
<text text-anchor="start" x="425" y="-564.8" font-family="Times,serif" font-size="14.00"> g8 = (((57 &#45; v23) &amp; v23) &lt; 0)</text>
<text text-anchor="start" x="425" y="-549.8" font-family="Times,serif" font-size="14.00"> g7 = (v23 &lt; 58)</text>
<text text-anchor="start" x="425" y="-534.8" font-family="Times,serif" font-size="14.00"> g9 = (v22 == 58)</text>
</g>
<!-- Node0x4759c770&#45;&gt;Node0x44278d10 -->
<g id="edge27" class="edge"><title>Node0x4759c770&#45;&gt;Node0x44278d10</title>
<path fill="none" stroke="black" d="M547.452,-729.352C549.168,-716.659 551.591,-698.724 554.091,-680.224"/>
<polygon fill="black" stroke="black" points="557.572,-680.601 555.443,-670.222 550.635,-679.663 557.572,-680.601"/>
<text text-anchor="middle" x="595" y="-699.8" font-family="Times,serif" font-size="14.00">v13 &gt;= v19</text>
</g>
<!-- Node0x31499760&#45;&gt;Node0x17047cf0 -->
<g id="edge29" class="edge"><title>Node0x31499760&#45;&gt;Node0x17047cf0</title>
<path fill="none" stroke="black" d="M426.554,-1016.23C437.178,-1004.5 451.827,-988.335 467.206,-971.361"/>
<polygon fill="black" stroke="black" points="470.192,-973.279 474.312,-963.518 465.004,-968.579 470.192,-973.279"/>
</g>
<!-- Node0x44277fd0 -->
<g id="node25" class="node"><title>Node0x44277fd0</title>
<polygon fill="none" stroke="black" points="501,-443.5 501,-481.5 629,-481.5 629,-443.5 501,-443.5"/>
<text text-anchor="start" x="509" y="-466.3" font-family="Times,serif" font-size="14.00">0x71cbe50:</text>
<text text-anchor="start" x="509" y="-451.3" font-family="Times,serif" font-size="14.00"> if (v22 == 58):</text>
</g>
<!-- Node0x44278d10&#45;&gt;Node0x44277fd0 -->
<g id="edge30" class="edge"><title>Node0x44278d10&#45;&gt;Node0x44277fd0</title>
<path fill="none" stroke="black" d="M565,-526.968C565,-514.521 565,-502.236 565,-491.839"/>
<polygon fill="black" stroke="black" points="568.5,-491.76 565,-481.76 561.5,-491.76 568.5,-491.76"/>
</g>
<!-- Node0x44276600 -->
<g id="node26" class="node"><title>Node0x44276600</title>
<polygon fill="none" stroke="black" points="377,-331 377,-369 477,-369 477,-331 377,-331"/>
<text text-anchor="start" x="385" y="-353.8" font-family="Times,serif" font-size="14.00">0x71cbc10:</text>
<text text-anchor="start" x="385" y="-338.8" font-family="Times,serif" font-size="14.00"> break</text>
</g>
<!-- Node0x44277fd0&#45;&gt;Node0x44276600 -->
<g id="edge31" class="edge"><title>Node0x44277fd0&#45;&gt;Node0x44276600</title>
<path fill="none" stroke="black" d="M533.302,-443.486C524.236,-437.913 514.512,-431.516 506,-425 486.685,-410.214 466.706,-391.462 451.672,-376.535"/>
<polygon fill="black" stroke="black" points="453.826,-373.737 444.291,-369.119 448.865,-378.675 453.826,-373.737"/>
<text text-anchor="middle" x="545" y="-413.8" font-family="Times,serif" font-size="14.00">v22 == 58</text>
</g>
<!-- Node0x38e6aa80 -->
<g id="node27" class="node"><title>Node0x38e6aa80</title>
<polygon fill="none" stroke="black" points="578.5,-308.5 578.5,-391.5 679.5,-391.5 679.5,-308.5 578.5,-308.5"/>
<text text-anchor="start" x="586.5" y="-376.3" font-family="Times,serif" font-size="14.00">0x71cb560:</text>
<text text-anchor="start" x="586.5" y="-361.3" font-family="Times,serif" font-size="14.00"> v8 = v21</text>
<text text-anchor="start" x="586.5" y="-346.3" font-family="Times,serif" font-size="14.00"> v10 = v23</text>
<text text-anchor="start" x="586.5" y="-331.3" font-family="Times,serif" font-size="14.00"> v12 = v13</text>
<text text-anchor="start" x="586.5" y="-316.3" font-family="Times,serif" font-size="14.00"> continue</text>
</g>
<!-- Node0x44277fd0&#45;&gt;Node0x38e6aa80 -->
<g id="edge32" class="edge"><title>Node0x44277fd0&#45;&gt;Node0x38e6aa80</title>
<path fill="none" stroke="black" d="M575.568,-443.253C582.335,-431.57 591.468,-415.801 600.268,-400.608"/>
<polygon fill="black" stroke="black" points="603.407,-402.171 605.39,-391.764 597.35,-398.663 603.407,-402.171"/>
<text text-anchor="middle" x="630" y="-413.8" font-family="Times,serif" font-size="14.00">v22 != 58</text>
</g>
<!-- Node0x3c9ebc20 -->
<g id="node28" class="node"><title>Node0x3c9ebc20</title>
<polygon fill="none" stroke="black" points="234.5,-97.5 234.5,-270.5 513.5,-270.5 513.5,-97.5 234.5,-97.5"/>
<text text-anchor="start" x="242.5" y="-255.3" font-family="Times,serif" font-size="14.00">0x71d16b0:</text>
<text text-anchor="start" x="242.5" y="-240.3" font-family="Times,serif" font-size="14.00"> g37 = 0</text>
<text text-anchor="start" x="242.5" y="-225.3" font-family="Times,serif" font-size="14.00"> *(IntToPtrCastExpr&lt;ptr&gt;(v13)) = 0</text>
<text text-anchor="start" x="242.5" y="-210.3" font-family="Times,serif" font-size="14.00"> g29 = g38</text>
<text text-anchor="start" x="242.5" y="-195.3" font-family="Times,serif" font-size="14.00"> g38 = v1</text>
<text text-anchor="start" x="242.5" y="-180.3" font-family="Times,serif" font-size="14.00"> g39 = v2</text>
<text text-anchor="start" x="242.5" y="-165.3" font-family="Times,serif" font-size="14.00"> g40 = v3</text>
<text text-anchor="start" x="242.5" y="-150.3" font-family="Times,serif" font-size="14.00"> g41 = v4</text>
<text text-anchor="start" x="242.5" y="-135.3" font-family="Times,serif" font-size="14.00"> g32 = v5</text>
<text text-anchor="start" x="242.5" y="-120.3" font-family="Times,serif" font-size="14.00"> g34 = v11</text>
<text text-anchor="start" x="242.5" y="-105.3" font-family="Times,serif" font-size="14.00"> IntToPtrCastExpr&lt;ptr&gt;(v6)()</text>
</g>
<!-- Node0x44276600&#45;&gt;Node0x3c9ebc20 -->
<g id="edge33" class="edge"><title>Node0x44276600&#45;&gt;Node0x3c9ebc20</title>
<path fill="none" stroke="black" d="M421.126,-330.823C416.98,-317.994 411.071,-299.711 404.833,-280.409"/>
<polygon fill="black" stroke="black" points="408.156,-279.31 401.751,-270.871 401.496,-281.462 408.156,-279.31"/>
</g>
<!-- Node0x38e6aa80&#45;&gt;Node0x3c9ece20 -->
<g id="edge34" class="edge"><title>Node0x38e6aa80&#45;&gt;Node0x3c9ece20</title>
<path fill="none" stroke="black" d="M679.815,-359.89C732.736,-372.411 808,-400.875 808,-461.5 808,-2196 808,-2196 808,-2196 808,-2282.25 513.29,-2301.18 382.861,-2305.33"/>
<polygon fill="black" stroke="black" points="382.526,-2301.84 372.635,-2305.64 382.735,-2308.84 382.526,-2301.84"/>
</g>
<!-- Node0x3c9ebc20&#45;&gt;Node0x29aaa240 -->
<g id="edge35" class="edge"><title>Node0x3c9ebc20&#45;&gt;Node0x29aaa240</title>
<path fill="none" stroke="black" d="M247.312,-97.4246C229.916,-85.6741 213.411,-74.5249 199.873,-65.3806"/>
<polygon fill="black" stroke="black" points="201.672,-62.372 191.426,-59.6748 197.754,-68.1726 201.672,-62.372"/>
</g>
</g>
</svg>
