<?xml version="1.0" encoding="UTF-8" standalone="no"?>
<!DOCTYPE svg PUBLIC "-//W3C//DTD SVG 1.1//EN"
 "http://www.w3.org/Graphics/SVG/1.1/DTD/svg11.dtd">
<!-- Generated by graphviz version 2.38.0 (20140413.2041)
 -->
<!-- Title: Control&#45;flow graph for function &#39;SpPlaybackIsShuffled()&#39;. Pages: 1 -->
<svg width="769pt" height="1228pt"
 viewBox="0.00 0.00 768.50 1228.00" xmlns="http://www.w3.org/2000/svg" xmlns:xlink="http://www.w3.org/1999/xlink">
<g id="graph0" class="graph" transform="scale(1 1) rotate(0) translate(4 1224)">
<title>Control&#45;flow graph for function &#39;SpPlaybackIsShuffled()&#39;.</title>
<polygon fill="white" stroke="none" points="-4,4 -4,-1224 764.5,-1224 764.5,4 -4,4"/>
<text text-anchor="middle" x="380.25" y="-7.8" font-family="Times,serif" font-size="14.00">Control&#45;flow graph for function &#39;SpPlaybackIsShuffled()&#39;.</text>
<!-- Node0x245b2270 -->
<g id="node1" class="node"><title>Node0x245b2270</title>
<polygon fill="none" stroke="black" points="331,-1183.5 331,-1219.5 390,-1219.5 390,-1183.5 331,-1183.5"/>
<text text-anchor="start" x="339" y="-1197.8" font-family="Times,serif" font-size="14.00">entry:</text>
</g>
<!-- Node0x28477180 -->
<g id="node2" class="node"><title>Node0x28477180</title>
<polygon fill="none" stroke="black" points="36,-1032.5 36,-1145.5 685,-1145.5 685,-1032.5 36,-1032.5"/>
<text text-anchor="start" x="44" y="-1130.3" font-family="Times,serif" font-size="14.00">0x143894f0:</text>
<text text-anchor="start" x="44" y="-1115.3" font-family="Times,serif" font-size="14.00"> v1 = g38</text>
<text text-anchor="start" x="44" y="-1100.3" font-family="Times,serif" font-size="14.00"> v2 = g39</text>
<text text-anchor="start" x="44" y="-1085.3" font-family="Times,serif" font-size="14.00"> v3 = g40</text>
<text text-anchor="start" x="44" y="-1070.3" font-family="Times,serif" font-size="14.00"> g38 = (PtrToIntCastExpr&lt;int32&gt;(function_13040) + 87124)</text>
<text text-anchor="start" x="44" y="-1055.3" font-family="Times,serif" font-size="14.00"> v4 = *(IntToPtrCastExpr&lt;ptr&gt;((PtrToIntCastExpr&lt;int32&gt;(function_13040) + 87324)))</text>
<text text-anchor="start" x="44" y="-1040.3" font-family="Times,serif" font-size="14.00"> g40 = v4</text>
</g>
<!-- Node0x245b2270&#45;&gt;Node0x28477180 -->
<g id="edge1" class="edge"><title>Node0x245b2270&#45;&gt;Node0x28477180</title>
<path fill="none" stroke="black" d="M360.5,-1183.23C360.5,-1175.59 360.5,-1166.06 360.5,-1156.03"/>
<polygon fill="black" stroke="black" points="364,-1155.9 360.5,-1145.9 357,-1155.9 364,-1155.9"/>
</g>
<!-- Node0x383b05c0 -->
<g id="node3" class="node"><title>Node0x383b05c0</title>
<polygon fill="none" stroke="black" points="208,-956.5 208,-994.5 513,-994.5 513,-956.5 208,-956.5"/>
<text text-anchor="start" x="216" y="-979.3" font-family="Times,serif" font-size="14.00">0x82ca610:</text>
<text text-anchor="start" x="216" y="-964.3" font-family="Times,serif" font-size="14.00"> if (*(IntToPtrCastExpr&lt;ptr&gt;(v4)) != 0):</text>
</g>
<!-- Node0x28477180&#45;&gt;Node0x383b05c0 -->
<g id="edge2" class="edge"><title>Node0x28477180&#45;&gt;Node0x383b05c0</title>
<path fill="none" stroke="black" d="M360.5,-1032.25C360.5,-1022.86 360.5,-1013.47 360.5,-1005.15"/>
<polygon fill="black" stroke="black" points="364,-1004.91 360.5,-994.912 357,-1004.91 364,-1004.91"/>
</g>
<!-- Node0x2847e140 -->
<g id="node4" class="node"><title>Node0x2847e140</title>
<polygon fill="none" stroke="black" points="0,-821.5 0,-904.5 457,-904.5 457,-821.5 0,-821.5"/>
<text text-anchor="start" x="8" y="-889.3" font-family="Times,serif" font-size="14.00">0x82c9ba0:</text>
<text text-anchor="start" x="8" y="-874.3" font-family="Times,serif" font-size="14.00"> g29 = (PtrToIntCastExpr&lt;int32&gt;(function_13040) + 79836)</text>
<text text-anchor="start" x="8" y="-859.3" font-family="Times,serif" font-size="14.00"> g30 = (PtrToIntCastExpr&lt;int32&gt;(function_13040) + 79400)</text>
<text text-anchor="start" x="8" y="-844.3" font-family="Times,serif" font-size="14.00"> g36 = (PtrToIntCastExpr&lt;int32&gt;(function_13040) + 78096)</text>
<text text-anchor="start" x="8" y="-829.3" font-family="Times,serif" font-size="14.00"> imported_function_ord_0()</text>
</g>
<!-- Node0x383b05c0&#45;&gt;Node0x2847e140 -->
<g id="edge3" class="edge"><title>Node0x383b05c0&#45;&gt;Node0x2847e140</title>
<path fill="none" stroke="black" d="M262.832,-956.438C245.948,-951.374 232.026,-945.233 226.5,-938 221.397,-931.321 219.031,-923.224 218.339,-914.87"/>
<polygon fill="black" stroke="black" points="221.837,-914.6 218.251,-904.63 214.837,-914.66 221.837,-914.6"/>
<text text-anchor="middle" x="354.5" y="-926.8" font-family="Times,serif" font-size="14.00">*(IntToPtrCastExpr&lt;ptr&gt;(v4)) != 0</text>
</g>
<!-- Node0x28477480 -->
<g id="node5" class="node"><title>Node0x28477480</title>
<polygon fill="none" stroke="black" points="279.5,-655.5 279.5,-783.5 567.5,-783.5 567.5,-655.5 279.5,-655.5"/>
<text text-anchor="start" x="287.5" y="-768.3" font-family="Times,serif" font-size="14.00">0x82ca820:</text>
<text text-anchor="start" x="287.5" y="-753.3" font-family="Times,serif" font-size="14.00"> function_16e90()</text>
<text text-anchor="start" x="287.5" y="-738.3" font-family="Times,serif" font-size="14.00"> v5 = *(IntToPtrCastExpr&lt;ptr&gt;(g40))</text>
<text text-anchor="start" x="287.5" y="-723.3" font-family="Times,serif" font-size="14.00"> g37 = v5</text>
<text text-anchor="start" x="287.5" y="-708.3" font-family="Times,serif" font-size="14.00"> v6 = g29</text>
<text text-anchor="start" x="287.5" y="-693.3" font-family="Times,serif" font-size="14.00"> g39 = v6</text>
<text text-anchor="start" x="287.5" y="-678.3" font-family="Times,serif" font-size="14.00"> g9 = (v5 == 0)</text>
<text text-anchor="start" x="287.5" y="-663.3" font-family="Times,serif" font-size="14.00"> v7 = v6</text>
</g>
<!-- Node0x383b05c0&#45;&gt;Node0x28477480 -->
<g id="edge4" class="edge"><title>Node0x383b05c0&#45;&gt;Node0x28477480</title>
<path fill="none" stroke="black" d="M461.82,-956.409C469.778,-951.576 476.888,-945.536 482.5,-938 513.936,-895.783 496.038,-837.871 471.976,-792.42"/>
<polygon fill="black" stroke="black" points="474.967,-790.594 467.094,-783.504 468.827,-793.956 474.967,-790.594"/>
<text text-anchor="middle" x="629.5" y="-859.3" font-family="Times,serif" font-size="14.00">*(IntToPtrCastExpr&lt;ptr&gt;(v4)) == 0</text>
</g>
<!-- Node0x2847e140&#45;&gt;Node0x28477480 -->
<g id="edge5" class="edge"><title>Node0x2847e140&#45;&gt;Node0x28477480</title>
<path fill="none" stroke="black" d="M284.379,-821.452C298.053,-811.529 313.072,-800.631 328.027,-789.779"/>
<polygon fill="black" stroke="black" points="330.281,-792.468 336.32,-783.762 326.17,-786.802 330.281,-792.468"/>
</g>
<!-- Node0x383b1e40 -->
<g id="node6" class="node"><title>Node0x383b1e40</title>
<polygon fill="none" stroke="black" points="371.5,-579.5 371.5,-617.5 475.5,-617.5 475.5,-579.5 371.5,-579.5"/>
<text text-anchor="start" x="379.5" y="-602.3" font-family="Times,serif" font-size="14.00">0x82ccae0:</text>
<text text-anchor="start" x="379.5" y="-587.3" font-family="Times,serif" font-size="14.00"> if (v5 != 0):</text>
</g>
<!-- Node0x28477480&#45;&gt;Node0x383b1e40 -->
<g id="edge6" class="edge"><title>Node0x28477480&#45;&gt;Node0x383b1e40</title>
<path fill="none" stroke="black" d="M423.5,-655.167C423.5,-645.596 423.5,-636.158 423.5,-627.848"/>
<polygon fill="black" stroke="black" points="427,-627.658 423.5,-617.659 420,-627.659 427,-627.658"/>
</g>
<!-- Node0x383ae470 -->
<g id="node7" class="node"><title>Node0x383ae470</title>
<polygon fill="none" stroke="black" points="211.5,-444.5 211.5,-527.5 423.5,-527.5 423.5,-444.5 211.5,-444.5"/>
<text text-anchor="start" x="219.5" y="-512.3" font-family="Times,serif" font-size="14.00">0x82cc150:</text>
<text text-anchor="start" x="219.5" y="-497.3" font-family="Times,serif" font-size="14.00"> g30 = (g38 &#45; 7724)</text>
<text text-anchor="start" x="219.5" y="-482.3" font-family="Times,serif" font-size="14.00"> g36 = v6</text>
<text text-anchor="start" x="219.5" y="-467.3" font-family="Times,serif" font-size="14.00"> imported_function_ord_0()</text>
<text text-anchor="start" x="219.5" y="-452.3" font-family="Times,serif" font-size="14.00"> v7 = g39</text>
</g>
<!-- Node0x383b1e40&#45;&gt;Node0x383ae470 -->
<g id="edge7" class="edge"><title>Node0x383b1e40&#45;&gt;Node0x383ae470</title>
<path fill="none" stroke="black" d="M405.996,-579.253C394.475,-567.242 378.811,-550.914 363.863,-535.331"/>
<polygon fill="black" stroke="black" points="366.052,-532.557 356.604,-527.764 361,-537.403 366.052,-532.557"/>
<text text-anchor="middle" x="413.5" y="-549.8" font-family="Times,serif" font-size="14.00">v5 != 0</text>
</g>
<!-- Node0x383aed70 -->
<g id="node8" class="node"><title>Node0x383aed70</title>
<polygon fill="none" stroke="black" points="296.5,-278.5 296.5,-406.5 538.5,-406.5 538.5,-278.5 296.5,-278.5"/>
<text text-anchor="start" x="304.5" y="-391.3" font-family="Times,serif" font-size="14.00">0x82ccc80:</text>
<text text-anchor="start" x="304.5" y="-376.3" font-family="Times,serif" font-size="14.00"> g29 = v7</text>
<text text-anchor="start" x="304.5" y="-361.3" font-family="Times,serif" font-size="14.00"> g38 = v1</text>
<text text-anchor="start" x="304.5" y="-346.3" font-family="Times,serif" font-size="14.00"> g39 = v2</text>
<text text-anchor="start" x="304.5" y="-331.3" font-family="Times,serif" font-size="14.00"> g40 = v3</text>
<text text-anchor="start" x="304.5" y="-316.3" font-family="Times,serif" font-size="14.00"> v8</text>
<text text-anchor="start" x="304.5" y="-301.3" font-family="Times,serif" font-size="14.00"> g34 = v8</text>
<text text-anchor="start" x="304.5" y="-286.3" font-family="Times,serif" font-size="14.00"> IntToPtrCastExpr&lt;ptr&gt;(g35)()</text>
</g>
<!-- Node0x383b1e40&#45;&gt;Node0x383aed70 -->
<g id="edge8" class="edge"><title>Node0x383b1e40&#45;&gt;Node0x383aed70</title>
<path fill="none" stroke="black" d="M436.396,-579.38C439.702,-573.755 442.802,-567.357 444.5,-561 446.221,-554.559 444.89,-552.655 444.5,-546 441.975,-502.935 435.755,-455.08 429.92,-416.708"/>
<polygon fill="black" stroke="black" points="433.354,-416.007 428.368,-406.658 426.436,-417.075 433.354,-416.007"/>
<text text-anchor="middle" x="473.5" y="-482.3" font-family="Times,serif" font-size="14.00">v5 == 0</text>
</g>
<!-- Node0x383ae470&#45;&gt;Node0x383aed70 -->
<g id="edge9" class="edge"><title>Node0x383ae470&#45;&gt;Node0x383aed70</title>
<path fill="none" stroke="black" d="M346.156,-444.452C352.649,-435.264 359.733,-425.24 366.835,-415.191"/>
<polygon fill="black" stroke="black" points="369.879,-416.948 372.792,-406.762 364.162,-412.908 369.879,-416.948"/>
</g>
<!-- Node0x2847aee0 -->
<g id="node9" class="node"><title>Node0x2847aee0</title>
<polygon fill="none" stroke="black" points="368,-202.5 368,-240.5 467,-240.5 467,-202.5 368,-202.5"/>
<text text-anchor="start" x="376" y="-225.3" font-family="Times,serif" font-size="14.00">0x82ce3a0:</text>
<text text-anchor="start" x="376" y="-210.3" font-family="Times,serif" font-size="14.00"> if g9:</text>
</g>
<!-- Node0x383aed70&#45;&gt;Node0x2847aee0 -->
<g id="edge10" class="edge"><title>Node0x383aed70&#45;&gt;Node0x2847aee0</title>
<path fill="none" stroke="black" d="M417.5,-278.167C417.5,-268.596 417.5,-259.158 417.5,-250.848"/>
<polygon fill="black" stroke="black" points="421,-250.658 417.5,-240.659 414,-250.659 421,-250.658"/>
</g>
<!-- Node0x2847a7e0 -->
<g id="node10" class="node"><title>Node0x2847a7e0</title>
<polygon fill="none" stroke="black" points="226.5,-97.5 226.5,-150.5 414.5,-150.5 414.5,-97.5 226.5,-97.5"/>
<text text-anchor="start" x="234.5" y="-135.3" font-family="Times,serif" font-size="14.00">0x82cdb30:</text>
<text text-anchor="start" x="234.5" y="-120.3" font-family="Times,serif" font-size="14.00"> g37 = 0</text>
<text text-anchor="start" x="234.5" y="-105.3" font-family="Times,serif" font-size="14.00"> g29 = (g29 &amp; (g42 / 2))</text>
</g>
<!-- Node0x2847aee0&#45;&gt;Node0x2847a7e0 -->
<g id="edge11" class="edge"><title>Node0x2847aee0&#45;&gt;Node0x2847a7e0</title>
<path fill="none" stroke="black" d="M398.797,-202.087C386.023,-189.51 368.747,-172.501 353.672,-157.659"/>
<polygon fill="black" stroke="black" points="356.06,-155.098 346.478,-150.577 351.149,-160.086 356.06,-155.098"/>
<text text-anchor="middle" x="388" y="-172.8" font-family="Times,serif" font-size="14.00">g9</text>
</g>
<!-- Node0x245b2510 -->
<g id="node11" class="node"><title>Node0x245b2510</title>
<polygon fill="none" stroke="black" points="384.5,-23.5 384.5,-59.5 438.5,-59.5 438.5,-23.5 384.5,-23.5"/>
<text text-anchor="start" x="392.5" y="-37.8" font-family="Times,serif" font-size="14.00">exit:</text>
</g>
<!-- Node0x2847aee0&#45;&gt;Node0x245b2510 -->
<g id="edge12" class="edge"><title>Node0x2847aee0&#45;&gt;Node0x245b2510</title>
<path fill="none" stroke="black" d="M420.142,-202.449C423.267,-178.344 427.563,-134.346 423.5,-97 422.517,-87.9613 420.642,-78.2257 418.661,-69.5188"/>
<polygon fill="black" stroke="black" points="421.997,-68.4222 416.245,-59.5244 415.193,-70.0668 421.997,-68.4222"/>
<text text-anchor="middle" x="454" y="-120.3" font-family="Times,serif" font-size="14.00">not (g9)</text>
</g>
<!-- Node0x2847a7e0&#45;&gt;Node0x245b2510 -->
<g id="edge13" class="edge"><title>Node0x2847a7e0&#45;&gt;Node0x245b2510</title>
<path fill="none" stroke="black" d="M349.543,-97.308C360.761,-87.3849 373.52,-76.0975 384.533,-66.3555"/>
<polygon fill="black" stroke="black" points="387.025,-68.8239 392.196,-59.5766 382.387,-63.5809 387.025,-68.8239"/>
</g>
</g>
</svg>
