<?xml version="1.0" encoding="UTF-8" standalone="no"?>
<!DOCTYPE svg PUBLIC "-//W3C//DTD SVG 1.1//EN"
 "http://www.w3.org/Graphics/SVG/1.1/DTD/svg11.dtd">
<!-- Generated by graphviz version 2.38.0 (20140413.2041)
 -->
<!-- Title: Control&#45;flow graph for function &#39;function_1f38()&#39;. Pages: 1 -->
<svg width="1095pt" height="3586pt"
 viewBox="0.00 0.00 1095.03 3586.00" xmlns="http://www.w3.org/2000/svg" xmlns:xlink="http://www.w3.org/1999/xlink">
<g id="graph0" class="graph" transform="scale(1 1) rotate(0) translate(4 3582)">
<title>Control&#45;flow graph for function &#39;function_1f38()&#39;.</title>
<polygon fill="white" stroke="none" points="-4,4 -4,-3582 1091.03,-3582 1091.03,4 -4,4"/>
<text text-anchor="middle" x="543.517" y="-7.8" font-family="Times,serif" font-size="14.00">Control&#45;flow graph for function &#39;function_1f38()&#39;.</text>
<!-- Node0x1c5f8ae0 -->
<g id="node1" class="node"><title>Node0x1c5f8ae0</title>
<polygon fill="none" stroke="black" points="928.535,-3541.5 928.535,-3577.5 987.535,-3577.5 987.535,-3541.5 928.535,-3541.5"/>
<text text-anchor="start" x="936.535" y="-3555.8" font-family="Times,serif" font-size="14.00">entry:</text>
</g>
<!-- Node0x47480330 -->
<g id="node2" class="node"><title>Node0x47480330</title>
<polygon fill="none" stroke="black" points="868.535,-3180.5 868.535,-3503.5 1047.53,-3503.5 1047.53,-3180.5 868.535,-3180.5"/>
<text text-anchor="start" x="876.535" y="-3488.3" font-family="Times,serif" font-size="14.00">0x1644ea70:</text>
<text text-anchor="start" x="876.535" y="-3473.3" font-family="Times,serif" font-size="14.00"> v1 = g38</text>
<text text-anchor="start" x="876.535" y="-3458.3" font-family="Times,serif" font-size="14.00"> v2 = g39</text>
<text text-anchor="start" x="876.535" y="-3443.3" font-family="Times,serif" font-size="14.00"> v3 = g40</text>
<text text-anchor="start" x="876.535" y="-3428.3" font-family="Times,serif" font-size="14.00"> v4 = g41</text>
<text text-anchor="start" x="876.535" y="-3413.3" font-family="Times,serif" font-size="14.00"> v5 = g42</text>
<text text-anchor="start" x="876.535" y="-3398.3" font-family="Times,serif" font-size="14.00"> v6 = g35</text>
<text text-anchor="start" x="876.535" y="-3383.3" font-family="Times,serif" font-size="14.00"> g38 = g29</text>
<text text-anchor="start" x="876.535" y="-3368.3" font-family="Times,serif" font-size="14.00"> function_1b7c()</text>
<text text-anchor="start" x="876.535" y="-3353.3" font-family="Times,serif" font-size="14.00"> v7 = g29</text>
<text text-anchor="start" x="876.535" y="-3338.3" font-family="Times,serif" font-size="14.00"> g41 = v7</text>
<text text-anchor="start" x="876.535" y="-3323.3" font-family="Times,serif" font-size="14.00"> v8 = g38</text>
<text text-anchor="start" x="876.535" y="-3308.3" font-family="Times,serif" font-size="14.00"> g40 = v8</text>
<text text-anchor="start" x="876.535" y="-3293.3" font-family="Times,serif" font-size="14.00"> v9 = (4 * v7)</text>
<text text-anchor="start" x="876.535" y="-3278.3" font-family="Times,serif" font-size="14.00"> v10 = (v8 + (16 * v7))</text>
<text text-anchor="start" x="876.535" y="-3263.3" font-family="Times,serif" font-size="14.00"> g35 = 165012</text>
<text text-anchor="start" x="876.535" y="-3248.3" font-family="Times,serif" font-size="14.00"> g30 = (v8 + 16)</text>
<text text-anchor="start" x="876.535" y="-3233.3" font-family="Times,serif" font-size="14.00"> g38 = 4</text>
<text text-anchor="start" x="876.535" y="-3218.3" font-family="Times,serif" font-size="14.00"> g33 = (v9 &#45; 4)</text>
<text text-anchor="start" x="876.535" y="-3203.3" font-family="Times,serif" font-size="14.00"> g29 = (v10 &#45; 16)</text>
<text text-anchor="start" x="876.535" y="-3188.3" font-family="Times,serif" font-size="14.00"> v11 = 165012</text>
</g>
<!-- Node0x1c5f8ae0&#45;&gt;Node0x47480330 -->
<g id="edge1" class="edge"><title>Node0x1c5f8ae0&#45;&gt;Node0x47480330</title>
<path fill="none" stroke="black" d="M958.035,-3541.23C958.035,-3533.89 958.035,-3524.57 958.035,-3513.99"/>
<polygon fill="black" stroke="black" points="961.535,-3513.95 958.035,-3503.95 954.535,-3513.95 961.535,-3513.95"/>
</g>
<!-- Node0x4747fb10 -->
<g id="node3" class="node"><title>Node0x4747fb10</title>
<polygon fill="none" stroke="black" points="906.035,-3104.5 906.035,-3142.5 1010.03,-3142.5 1010.03,-3104.5 906.035,-3104.5"/>
<text text-anchor="start" x="914.035" y="-3127.3" font-family="Times,serif" font-size="14.00">0x4e32c80:</text>
<text text-anchor="start" x="914.035" y="-3112.3" font-family="Times,serif" font-size="14.00"> if (v9 != 0):</text>
</g>
<!-- Node0x47480330&#45;&gt;Node0x4747fb10 -->
<g id="edge2" class="edge"><title>Node0x47480330&#45;&gt;Node0x4747fb10</title>
<path fill="none" stroke="black" d="M958.035,-3180.25C958.035,-3170.15 958.035,-3160.85 958.035,-3152.86"/>
<polygon fill="black" stroke="black" points="961.535,-3152.82 958.035,-3142.82 954.535,-3152.82 961.535,-3152.82"/>
</g>
<!-- Node0x474822b0 -->
<g id="node4" class="node"><title>Node0x474822b0</title>
<polygon fill="none" stroke="black" points="618.535,-2669.5 618.535,-3052.5 983.535,-3052.5 983.535,-2669.5 618.535,-2669.5"/>
<text text-anchor="start" x="626.535" y="-3037.3" font-family="Times,serif" font-size="14.00">0x236a4c20:</text>
<text text-anchor="start" x="626.535" y="-3022.3" font-family="Times,serif" font-size="14.00"> v12 = IntToPtrCastExpr&lt;ptr&gt;(v8)</text>
<text text-anchor="start" x="626.535" y="-3007.3" font-family="Times,serif" font-size="14.00"> g36 = *(v12)</text>
<text text-anchor="start" x="626.535" y="-2992.3" font-family="Times,serif" font-size="14.00"> *(v12) = *(IntToPtrCastExpr&lt;ptr&gt;(v10))</text>
<text text-anchor="start" x="626.535" y="-2977.3" font-family="Times,serif" font-size="14.00"> *(IntToPtrCastExpr&lt;ptr&gt;((g29 + 16))) = g36</text>
<text text-anchor="start" x="626.535" y="-2962.3" font-family="Times,serif" font-size="14.00"> v13 = IntToPtrCastExpr&lt;ptr&gt;((g30 &#45; 12))</text>
<text text-anchor="start" x="626.535" y="-2947.3" font-family="Times,serif" font-size="14.00"> g36 = *(v13)</text>
<text text-anchor="start" x="626.535" y="-2932.3" font-family="Times,serif" font-size="14.00"> *(v13) = *(IntToPtrCastExpr&lt;ptr&gt;((g29 + 20)))</text>
<text text-anchor="start" x="626.535" y="-2917.3" font-family="Times,serif" font-size="14.00"> *(IntToPtrCastExpr&lt;ptr&gt;((g29 + 20))) = g36</text>
<text text-anchor="start" x="626.535" y="-2902.3" font-family="Times,serif" font-size="14.00"> v14 = IntToPtrCastExpr&lt;ptr&gt;((g30 &#45; 8))</text>
<text text-anchor="start" x="626.535" y="-2887.3" font-family="Times,serif" font-size="14.00"> g36 = *(v14)</text>
<text text-anchor="start" x="626.535" y="-2872.3" font-family="Times,serif" font-size="14.00"> *(v14) = *(IntToPtrCastExpr&lt;ptr&gt;((g29 + 24)))</text>
<text text-anchor="start" x="626.535" y="-2857.3" font-family="Times,serif" font-size="14.00"> *(IntToPtrCastExpr&lt;ptr&gt;((g29 + 24))) = g36</text>
<text text-anchor="start" x="626.535" y="-2842.3" font-family="Times,serif" font-size="14.00"> v15 = IntToPtrCastExpr&lt;ptr&gt;((g30 &#45; 4))</text>
<text text-anchor="start" x="626.535" y="-2827.3" font-family="Times,serif" font-size="14.00"> g36 = *(v15)</text>
<text text-anchor="start" x="626.535" y="-2812.3" font-family="Times,serif" font-size="14.00"> *(v15) = *(IntToPtrCastExpr&lt;ptr&gt;((g29 + 28)))</text>
<text text-anchor="start" x="626.535" y="-2797.3" font-family="Times,serif" font-size="14.00"> *(IntToPtrCastExpr&lt;ptr&gt;((g29 + 28))) = g36</text>
<text text-anchor="start" x="626.535" y="-2782.3" font-family="Times,serif" font-size="14.00"> v16 = g33</text>
<text text-anchor="start" x="626.535" y="-2767.3" font-family="Times,serif" font-size="14.00"> v17 = g38</text>
<text text-anchor="start" x="626.535" y="-2752.3" font-family="Times,serif" font-size="14.00"> v18 = g30</text>
<text text-anchor="start" x="626.535" y="-2737.3" font-family="Times,serif" font-size="14.00"> v19 = g29</text>
<text text-anchor="start" x="626.535" y="-2722.3" font-family="Times,serif" font-size="14.00"> g30 = (v18 + 16)</text>
<text text-anchor="start" x="626.535" y="-2707.3" font-family="Times,serif" font-size="14.00"> g38 = (v17 + 4)</text>
<text text-anchor="start" x="626.535" y="-2692.3" font-family="Times,serif" font-size="14.00"> g33 = (v16 &#45; 4)</text>
<text text-anchor="start" x="626.535" y="-2677.3" font-family="Times,serif" font-size="14.00"> g29 = (v19 &#45; 16)</text>
</g>
<!-- Node0x4747fb10&#45;&gt;Node0x474822b0 -->
<g id="edge3" class="edge"><title>Node0x4747fb10&#45;&gt;Node0x474822b0</title>
<path fill="none" stroke="black" d="M946.995,-3104.18C940.486,-3093.38 931.508,-3078.49 921.175,-3061.34"/>
<polygon fill="black" stroke="black" points="924.158,-3059.51 915.998,-3052.75 918.162,-3063.12 924.158,-3059.51"/>
<text text-anchor="middle" x="963.035" y="-3074.8" font-family="Times,serif" font-size="14.00">v9 != 0</text>
</g>
<!-- Node0x474803b0 -->
<g id="node5" class="node"><title>Node0x474803b0</title>
<polygon fill="none" stroke="black" points="824.035,-1962.5 824.035,-2120.5 988.035,-2120.5 988.035,-1962.5 824.035,-1962.5"/>
<text text-anchor="start" x="832.035" y="-2105.3" font-family="Times,serif" font-size="14.00">0x1281b3c0:</text>
<text text-anchor="start" x="832.035" y="-2090.3" font-family="Times,serif" font-size="14.00"> v20 = (v11 &#45; 16632)</text>
<text text-anchor="start" x="832.035" y="-2075.3" font-family="Times,serif" font-size="14.00"> g39 = v20</text>
<text text-anchor="start" x="832.035" y="-2060.3" font-family="Times,serif" font-size="14.00"> g37 = 304</text>
<text text-anchor="start" x="832.035" y="-2045.3" font-family="Times,serif" font-size="14.00"> v21 = (v11 + 304)</text>
<text text-anchor="start" x="832.035" y="-2030.3" font-family="Times,serif" font-size="14.00"> g38 = v21</text>
<text text-anchor="start" x="832.035" y="-2015.3" font-family="Times,serif" font-size="14.00"> g6 = (v7 &lt; 2)</text>
<text text-anchor="start" x="832.035" y="-2000.3" font-family="Times,serif" font-size="14.00"> g9 = (v7 == 1)</text>
<text text-anchor="start" x="832.035" y="-1985.3" font-family="Times,serif" font-size="14.00"> g42 = 2</text>
<text text-anchor="start" x="832.035" y="-1970.3" font-family="Times,serif" font-size="14.00"> v22 = v7</text>
</g>
<!-- Node0x4747fb10&#45;&gt;Node0x474803b0 -->
<g id="edge4" class="edge"><title>Node0x4747fb10&#45;&gt;Node0x474803b0</title>
<path fill="none" stroke="black" d="M980.434,-3104.27C985.677,-3098.92 990.699,-3092.69 994.035,-3086 1038.92,-2995.94 1027.03,-2962.63 1027.03,-2862 1027.03,-2862 1027.03,-2862 1027.03,-2349 1027.03,-2263.69 1042.14,-2236.19 1008.03,-2158 1003.69,-2148.05 998.168,-2138.35 991.94,-2129.08"/>
<polygon fill="black" stroke="black" points="994.652,-2126.85 986.036,-2120.68 988.926,-2130.88 994.652,-2126.85"/>
<text text-anchor="middle" x="1057.03" y="-2608.8" font-family="Times,serif" font-size="14.00">v9 == 0</text>
</g>
<!-- Node0x47480a30 -->
<g id="node6" class="node"><title>Node0x47480a30</title>
<polygon fill="none" stroke="black" points="725.035,-2593.5 725.035,-2631.5 877.035,-2631.5 877.035,-2593.5 725.035,-2593.5"/>
<text text-anchor="start" x="733.035" y="-2616.3" font-family="Times,serif" font-size="14.00">0x4e32bc0:</text>
<text text-anchor="start" x="733.035" y="-2601.3" font-family="Times,serif" font-size="14.00"> while (v17 &lt; v16):</text>
</g>
<!-- Node0x474822b0&#45;&gt;Node0x47480a30 -->
<g id="edge5" class="edge"><title>Node0x474822b0&#45;&gt;Node0x47480a30</title>
<path fill="none" stroke="black" d="M801.035,-2669.43C801.035,-2659.15 801.035,-2649.76 801.035,-2641.74"/>
<polygon fill="black" stroke="black" points="804.535,-2641.69 801.035,-2631.69 797.535,-2641.69 804.535,-2641.69"/>
</g>
<!-- Node0x29536910 -->
<g id="node7" class="node"><title>Node0x29536910</title>
<polygon fill="none" stroke="black" points="855.535,-1886.5 855.535,-1924.5 956.535,-1924.5 956.535,-1886.5 855.535,-1886.5"/>
<text text-anchor="start" x="863.535" y="-1909.3" font-family="Times,serif" font-size="14.00">0x4e5b030:</text>
<text text-anchor="start" x="863.535" y="-1894.3" font-family="Times,serif" font-size="14.00"> if (v7 &gt; 1):</text>
</g>
<!-- Node0x474803b0&#45;&gt;Node0x29536910 -->
<g id="edge6" class="edge"><title>Node0x474803b0&#45;&gt;Node0x29536910</title>
<path fill="none" stroke="black" d="M906.035,-1962.16C906.035,-1952.45 906.035,-1943.06 906.035,-1934.85"/>
<polygon fill="black" stroke="black" points="909.535,-1934.8 906.035,-1924.8 902.535,-1934.8 909.535,-1934.8"/>
</g>
<!-- Node0x47480730 -->
<g id="node8" class="node"><title>Node0x47480730</title>
<polygon fill="none" stroke="black" points="634.535,-2158.5 634.535,-2541.5 999.535,-2541.5 999.535,-2158.5 634.535,-2158.5"/>
<text text-anchor="start" x="642.535" y="-2526.3" font-family="Times,serif" font-size="14.00">0x467cfcd0:</text>
<text text-anchor="start" x="642.535" y="-2511.3" font-family="Times,serif" font-size="14.00"> v12 = IntToPtrCastExpr&lt;ptr&gt;(v18)</text>
<text text-anchor="start" x="642.535" y="-2496.3" font-family="Times,serif" font-size="14.00"> g36 = *(v12)</text>
<text text-anchor="start" x="642.535" y="-2481.3" font-family="Times,serif" font-size="14.00"> *(v12) = *(IntToPtrCastExpr&lt;ptr&gt;(v19))</text>
<text text-anchor="start" x="642.535" y="-2466.3" font-family="Times,serif" font-size="14.00"> *(IntToPtrCastExpr&lt;ptr&gt;((g29 + 16))) = g36</text>
<text text-anchor="start" x="642.535" y="-2451.3" font-family="Times,serif" font-size="14.00"> v13 = IntToPtrCastExpr&lt;ptr&gt;((g30 &#45; 12))</text>
<text text-anchor="start" x="642.535" y="-2436.3" font-family="Times,serif" font-size="14.00"> g36 = *(v13)</text>
<text text-anchor="start" x="642.535" y="-2421.3" font-family="Times,serif" font-size="14.00"> *(v13) = *(IntToPtrCastExpr&lt;ptr&gt;((g29 + 20)))</text>
<text text-anchor="start" x="642.535" y="-2406.3" font-family="Times,serif" font-size="14.00"> *(IntToPtrCastExpr&lt;ptr&gt;((g29 + 20))) = g36</text>
<text text-anchor="start" x="642.535" y="-2391.3" font-family="Times,serif" font-size="14.00"> v14 = IntToPtrCastExpr&lt;ptr&gt;((g30 &#45; 8))</text>
<text text-anchor="start" x="642.535" y="-2376.3" font-family="Times,serif" font-size="14.00"> g36 = *(v14)</text>
<text text-anchor="start" x="642.535" y="-2361.3" font-family="Times,serif" font-size="14.00"> *(v14) = *(IntToPtrCastExpr&lt;ptr&gt;((g29 + 24)))</text>
<text text-anchor="start" x="642.535" y="-2346.3" font-family="Times,serif" font-size="14.00"> *(IntToPtrCastExpr&lt;ptr&gt;((g29 + 24))) = g36</text>
<text text-anchor="start" x="642.535" y="-2331.3" font-family="Times,serif" font-size="14.00"> v15 = IntToPtrCastExpr&lt;ptr&gt;((g30 &#45; 4))</text>
<text text-anchor="start" x="642.535" y="-2316.3" font-family="Times,serif" font-size="14.00"> g36 = *(v15)</text>
<text text-anchor="start" x="642.535" y="-2301.3" font-family="Times,serif" font-size="14.00"> *(v15) = *(IntToPtrCastExpr&lt;ptr&gt;((g29 + 28)))</text>
<text text-anchor="start" x="642.535" y="-2286.3" font-family="Times,serif" font-size="14.00"> *(IntToPtrCastExpr&lt;ptr&gt;((g29 + 28))) = g36</text>
<text text-anchor="start" x="642.535" y="-2271.3" font-family="Times,serif" font-size="14.00"> v16 = g33</text>
<text text-anchor="start" x="642.535" y="-2256.3" font-family="Times,serif" font-size="14.00"> v17 = g38</text>
<text text-anchor="start" x="642.535" y="-2241.3" font-family="Times,serif" font-size="14.00"> v18 = g30</text>
<text text-anchor="start" x="642.535" y="-2226.3" font-family="Times,serif" font-size="14.00"> v19 = g29</text>
<text text-anchor="start" x="642.535" y="-2211.3" font-family="Times,serif" font-size="14.00"> g30 = (v18 + 16)</text>
<text text-anchor="start" x="642.535" y="-2196.3" font-family="Times,serif" font-size="14.00"> g38 = (v17 + 4)</text>
<text text-anchor="start" x="642.535" y="-2181.3" font-family="Times,serif" font-size="14.00"> g33 = (v16 &#45; 4)</text>
<text text-anchor="start" x="642.535" y="-2166.3" font-family="Times,serif" font-size="14.00"> g29 = (v19 &#45; 16)</text>
</g>
<!-- Node0x47480a30&#45;&gt;Node0x47480730 -->
<g id="edge7" class="edge"><title>Node0x47480a30&#45;&gt;Node0x47480730</title>
<path fill="none" stroke="black" d="M802.16,-2593.18C802.805,-2582.68 803.688,-2568.3 804.705,-2551.74"/>
<polygon fill="black" stroke="black" points="808.199,-2551.95 805.318,-2541.75 801.212,-2551.52 808.199,-2551.95"/>
<text text-anchor="middle" x="842.035" y="-2563.8" font-family="Times,serif" font-size="14.00">v17 &lt; v16</text>
</g>
<!-- Node0x47480970 -->
<g id="node9" class="node"><title>Node0x47480970</title>
<polygon fill="none" stroke="black" points="519.535,-2323.5 519.535,-2376.5 616.535,-2376.5 616.535,-2323.5 519.535,-2323.5"/>
<text text-anchor="start" x="527.535" y="-2361.3" font-family="Times,serif" font-size="14.00">0x4d9f6c0:</text>
<text text-anchor="start" x="527.535" y="-2346.3" font-family="Times,serif" font-size="14.00"> v7 = g41</text>
<text text-anchor="start" x="527.535" y="-2331.3" font-family="Times,serif" font-size="14.00"> v11 = g35</text>
</g>
<!-- Node0x47480a30&#45;&gt;Node0x47480970 -->
<g id="edge8" class="edge"><title>Node0x47480a30&#45;&gt;Node0x47480970</title>
<path fill="none" stroke="black" d="M724.7,-2597.33C690.014,-2587.27 651.019,-2570.32 625.035,-2542 585.353,-2498.75 573.232,-2428.96 569.57,-2386.79"/>
<polygon fill="black" stroke="black" points="573.051,-2386.4 568.81,-2376.69 566.071,-2386.93 573.051,-2386.4"/>
<text text-anchor="middle" x="709.035" y="-2563.8" font-family="Times,serif" font-size="14.00">v17 &gt;= v16</text>
</g>
<!-- Node0x47480770 -->
<g id="node10" class="node"><title>Node0x47480770</title>
<polygon fill="none" stroke="black" points="545.035,-1796.5 545.035,-1834.5 655.035,-1834.5 655.035,-1796.5 545.035,-1796.5"/>
<text text-anchor="start" x="553.035" y="-1819.3" font-family="Times,serif" font-size="14.00">0x22893d00:</text>
<text text-anchor="start" x="553.035" y="-1804.3" font-family="Times,serif" font-size="14.00"> v23 = g40</text>
</g>
<!-- Node0x29536910&#45;&gt;Node0x47480770 -->
<g id="edge9" class="edge"><title>Node0x29536910&#45;&gt;Node0x47480770</title>
<path fill="none" stroke="black" d="M855.505,-1889.97C803.273,-1874.95 721.552,-1851.45 664.652,-1835.08"/>
<polygon fill="black" stroke="black" points="665.614,-1831.72 655.037,-1832.32 663.68,-1838.45 665.614,-1831.72"/>
<text text-anchor="middle" x="796.035" y="-1856.8" font-family="Times,serif" font-size="14.00">v7 &gt; 1</text>
</g>
<!-- Node0x29536a90 -->
<g id="node11" class="node"><title>Node0x29536a90</title>
<polygon fill="none" stroke="black" points="767.535,-308.5 767.535,-466.5 1000.53,-466.5 1000.53,-308.5 767.535,-308.5"/>
<text text-anchor="start" x="775.535" y="-451.3" font-family="Times,serif" font-size="14.00">0x4e5b1d0:</text>
<text text-anchor="start" x="775.535" y="-436.3" font-family="Times,serif" font-size="14.00"> g29 = v22</text>
<text text-anchor="start" x="775.535" y="-421.3" font-family="Times,serif" font-size="14.00"> g38 = v1</text>
<text text-anchor="start" x="775.535" y="-406.3" font-family="Times,serif" font-size="14.00"> g39 = v2</text>
<text text-anchor="start" x="775.535" y="-391.3" font-family="Times,serif" font-size="14.00"> g40 = v3</text>
<text text-anchor="start" x="775.535" y="-376.3" font-family="Times,serif" font-size="14.00"> g41 = v4</text>
<text text-anchor="start" x="775.535" y="-361.3" font-family="Times,serif" font-size="14.00"> g42 = v5</text>
<text text-anchor="start" x="775.535" y="-346.3" font-family="Times,serif" font-size="14.00"> v69</text>
<text text-anchor="start" x="775.535" y="-331.3" font-family="Times,serif" font-size="14.00"> g34 = v69</text>
<text text-anchor="start" x="775.535" y="-316.3" font-family="Times,serif" font-size="14.00"> IntToPtrCastExpr&lt;ptr&gt;(v6)()</text>
</g>
<!-- Node0x29536910&#45;&gt;Node0x29536a90 -->
<g id="edge10" class="edge"><title>Node0x29536910&#45;&gt;Node0x29536a90</title>
<path fill="none" stroke="black" d="M914.692,-1886.42C922.256,-1868.94 932.035,-1841.51 932.035,-1816.5 932.035,-1816.5 932.035,-1816.5 932.035,-545 932.035,-522.225 927.331,-498.372 920.868,-476.348"/>
<polygon fill="black" stroke="black" points="924.184,-475.225 917.893,-466.701 917.495,-477.288 924.184,-475.225"/>
<text text-anchor="middle" x="962.035" y="-1195.8" font-family="Times,serif" font-size="14.00">v7 &lt;= 1</text>
</g>
<!-- Node0x47480730&#45;&gt;Node0x47480a30 -->
<g id="edge11" class="edge"><title>Node0x47480730&#45;&gt;Node0x47480a30</title>
<path fill="none" stroke="black" d="M800.877,-2541.75C800.561,-2547.9 800.278,-2554 800.035,-2560 799.729,-2567.53 799.733,-2575.68 799.876,-2583.24"/>
<polygon fill="black" stroke="black" points="796.381,-2583.48 800.152,-2593.38 803.378,-2583.29 796.381,-2583.48"/>
</g>
<!-- Node0x47480970&#45;&gt;Node0x474803b0 -->
<g id="edge12" class="edge"><title>Node0x47480970&#45;&gt;Node0x474803b0</title>
<path fill="none" stroke="black" d="M568.888,-2323.38C571.559,-2283.23 582.317,-2205.22 625.035,-2158 674.159,-2103.7 752.638,-2074.33 814.188,-2058.81"/>
<polygon fill="black" stroke="black" points="815.029,-2062.21 823.915,-2056.44 813.37,-2055.41 815.029,-2062.21"/>
</g>
<!-- Node0x47480af0 -->
<g id="node12" class="node"><title>Node0x47480af0</title>
<polygon fill="none" stroke="black" points="473.535,-1720.5 473.535,-1758.5 574.535,-1758.5 574.535,-1720.5 473.535,-1720.5"/>
<text text-anchor="start" x="481.535" y="-1743.3" font-family="Times,serif" font-size="14.00">0x4e5ae60:</text>
<text text-anchor="start" x="481.535" y="-1728.3" font-family="Times,serif" font-size="14.00"> while True:</text>
</g>
<!-- Node0x47480770&#45;&gt;Node0x47480af0 -->
<g id="edge13" class="edge"><title>Node0x47480770&#45;&gt;Node0x47480af0</title>
<path fill="none" stroke="black" d="M581.248,-1796.21C571.768,-1786.98 560.124,-1775.64 549.821,-1765.61"/>
<polygon fill="black" stroke="black" points="552.211,-1763.05 542.605,-1758.58 547.328,-1768.07 552.211,-1763.05"/>
</g>
<!-- Node0x29537010 -->
<g id="node13" class="node"><title>Node0x29537010</title>
<polygon fill="none" stroke="black" points="833.535,-232.5 833.535,-270.5 934.535,-270.5 934.535,-232.5 833.535,-232.5"/>
<text text-anchor="start" x="841.535" y="-255.3" font-family="Times,serif" font-size="14.00">0x4e5db00:</text>
<text text-anchor="start" x="841.535" y="-240.3" font-family="Times,serif" font-size="14.00"> if g9:</text>
</g>
<!-- Node0x29536a90&#45;&gt;Node0x29537010 -->
<g id="edge14" class="edge"><title>Node0x29536a90&#45;&gt;Node0x29537010</title>
<path fill="none" stroke="black" d="M884.035,-308.164C884.035,-298.447 884.035,-289.058 884.035,-280.846"/>
<polygon fill="black" stroke="black" points="887.535,-280.801 884.035,-270.801 880.535,-280.801 887.535,-280.801"/>
</g>
<!-- Node0xa5b1990 -->
<g id="node14" class="node"><title>Node0xa5b1990</title>
<polygon fill="none" stroke="black" points="152.035,-730.5 152.035,-1668.5 896.035,-1668.5 896.035,-730.5 152.035,-730.5"/>
<text text-anchor="start" x="160.035" y="-1653.3" font-family="Times,serif" font-size="14.00">0x288bf6c0:</text>
<text text-anchor="start" x="160.035" y="-1638.3" font-family="Times,serif" font-size="14.00"> v24 = IntToPtrCastExpr&lt;ptr&gt;((v23 + 16))</text>
<text text-anchor="start" x="160.035" y="-1623.3" font-family="Times,serif" font-size="14.00"> v25 = *(v24)</text>
<text text-anchor="start" x="160.035" y="-1608.3" font-family="Times,serif" font-size="14.00"> g35 = *(IntToPtrCastExpr&lt;ptr&gt;((v23 + 20)))</text>
<text text-anchor="start" x="160.035" y="-1593.3" font-family="Times,serif" font-size="14.00"> v26 = ExtCastExpr&lt;int32&gt;(*(IntToPtrCastExpr&lt;ptr&gt;(((4 * ((v25 / 65536) % 256)) + v21))))</text>
<text text-anchor="start" x="160.035" y="-1578.3" font-family="Times,serif" font-size="14.00"> v27 = ExtCastExpr&lt;int32&gt;(*(IntToPtrCastExpr&lt;ptr&gt;(((4 * ((v25 / 256) % 256)) + v21))))</text>
<text text-anchor="start" x="160.035" y="-1563.3" font-family="Times,serif" font-size="14.00"> v28 = ((4 * ExtCastExpr&lt;int32&gt;(*(IntToPtrCastExpr&lt;ptr&gt;(((4 * (v25 % 256)) + v21))))) + v20)</text>
<text text-anchor="start" x="160.035" y="-1548.3" font-family="Times,serif" font-size="14.00"> v29 = ((4 * ExtCastExpr&lt;int32&gt;(*(IntToPtrCastExpr&lt;ptr&gt;(((4 * (v25 / 16777216)) + v21))))) + v20)</text>
<text text-anchor="start" x="160.035" y="-1533.3" font-family="Times,serif" font-size="14.00"> v30 = (*(IntToPtrCastExpr&lt;ptr&gt;((v29 + 1064))) ^ *(IntToPtrCastExpr&lt;ptr&gt;((v28 + 40))))</text>
<text text-anchor="start" x="160.035" y="-1518.3" font-family="Times,serif" font-size="14.00"> v31 = *(IntToPtrCastExpr&lt;ptr&gt;((((4 * v27) + v20) + 3112)))</text>
<text text-anchor="start" x="160.035" y="-1503.3" font-family="Times,serif" font-size="14.00"> *(v24) = ((v30 ^ *(IntToPtrCastExpr&lt;ptr&gt;((((4 * v26) + v20) + 2088)))) ^ v31)</text>
<text text-anchor="start" x="160.035" y="-1488.3" font-family="Times,serif" font-size="14.00"> v32 = g35</text>
<text text-anchor="start" x="160.035" y="-1473.3" font-family="Times,serif" font-size="14.00"> v33 = g38</text>
<text text-anchor="start" x="160.035" y="-1458.3" font-family="Times,serif" font-size="14.00"> v34 = ExtCastExpr&lt;int32&gt;(*(IntToPtrCastExpr&lt;ptr&gt;(((4 * ((v32 / 65536) % 256)) + v33))))</text>
<text text-anchor="start" x="160.035" y="-1443.3" font-family="Times,serif" font-size="14.00"> v35 = ((v32 / 256) % 256)</text>
<text text-anchor="start" x="160.035" y="-1428.3" font-family="Times,serif" font-size="14.00"> g35 = v35</text>
<text text-anchor="start" x="160.035" y="-1413.3" font-family="Times,serif" font-size="14.00"> v36 = ExtCastExpr&lt;int32&gt;(*(IntToPtrCastExpr&lt;ptr&gt;(((4 * v35) + v33))))</text>
<text text-anchor="start" x="160.035" y="-1398.3" font-family="Times,serif" font-size="14.00"> v37 = g39</text>
<text text-anchor="start" x="160.035" y="-1383.3" font-family="Times,serif" font-size="14.00"> v38 = (v37 + (4 * ExtCastExpr&lt;int32&gt;(*(IntToPtrCastExpr&lt;ptr&gt;((v33 + (4 * (v32 % 256))))))))</text>
<text text-anchor="start" x="160.035" y="-1368.3" font-family="Times,serif" font-size="14.00"> v39 = (v37 + (4 * ExtCastExpr&lt;int32&gt;(*(IntToPtrCastExpr&lt;ptr&gt;((v33 + (4 * (v32 / 16777216))))))))</text>
<text text-anchor="start" x="160.035" y="-1353.3" font-family="Times,serif" font-size="14.00"> v40 = *(IntToPtrCastExpr&lt;ptr&gt;(((v37 + (4 * v34)) + 2088)))</text>
<text text-anchor="start" x="160.035" y="-1338.3" font-family="Times,serif" font-size="14.00"> v41 = (*(IntToPtrCastExpr&lt;ptr&gt;((v39 + 1064))) ^ *(IntToPtrCastExpr&lt;ptr&gt;((v38 + 40))))</text>
<text text-anchor="start" x="160.035" y="-1323.3" font-family="Times,serif" font-size="14.00"> v42 = *(IntToPtrCastExpr&lt;ptr&gt;((((4 * v36) + v37) + 3112)))</text>
<text text-anchor="start" x="160.035" y="-1308.3" font-family="Times,serif" font-size="14.00"> v43 = g40</text>
<text text-anchor="start" x="160.035" y="-1293.3" font-family="Times,serif" font-size="14.00"> g36 = *(IntToPtrCastExpr&lt;ptr&gt;((v43 + 24)))</text>
<text text-anchor="start" x="160.035" y="-1278.3" font-family="Times,serif" font-size="14.00"> *(IntToPtrCastExpr&lt;ptr&gt;((v43 + 20))) = ((v40 ^ v41) ^ v42)</text>
<text text-anchor="start" x="160.035" y="-1263.3" font-family="Times,serif" font-size="14.00"> v44 = g36</text>
<text text-anchor="start" x="160.035" y="-1248.3" font-family="Times,serif" font-size="14.00"> v45 = g38</text>
<text text-anchor="start" x="160.035" y="-1233.3" font-family="Times,serif" font-size="14.00"> v46 = ExtCastExpr&lt;int32&gt;(*(IntToPtrCastExpr&lt;ptr&gt;(((4 * ((v44 / 65536) % 256)) + v45))))</text>
<text text-anchor="start" x="160.035" y="-1218.3" font-family="Times,serif" font-size="14.00"> v47 = ExtCastExpr&lt;int32&gt;(*(IntToPtrCastExpr&lt;ptr&gt;(((4 * ((v44 / 256) % 256)) + v45))))</text>
<text text-anchor="start" x="160.035" y="-1203.3" font-family="Times,serif" font-size="14.00"> v48 = g39</text>
<text text-anchor="start" x="160.035" y="-1188.3" font-family="Times,serif" font-size="14.00"> v49 = (v48 + (4 * ExtCastExpr&lt;int32&gt;(*(IntToPtrCastExpr&lt;ptr&gt;((v45 + (4 * (v44 % 256))))))))</text>
<text text-anchor="start" x="160.035" y="-1173.3" font-family="Times,serif" font-size="14.00"> v50 = (v48 + (4 * ExtCastExpr&lt;int32&gt;(*(IntToPtrCastExpr&lt;ptr&gt;((v45 + (4 * (v44 / 16777216))))))))</text>
<text text-anchor="start" x="160.035" y="-1158.3" font-family="Times,serif" font-size="14.00"> v51 = *(IntToPtrCastExpr&lt;ptr&gt;(((v48 + (4 * v46)) + 2088)))</text>
<text text-anchor="start" x="160.035" y="-1143.3" font-family="Times,serif" font-size="14.00"> v52 = (*(IntToPtrCastExpr&lt;ptr&gt;((v50 + 1064))) ^ *(IntToPtrCastExpr&lt;ptr&gt;((v49 + 40))))</text>
<text text-anchor="start" x="160.035" y="-1128.3" font-family="Times,serif" font-size="14.00"> v53 = *(IntToPtrCastExpr&lt;ptr&gt;((((4 * v47) + v48) + 3112)))</text>
<text text-anchor="start" x="160.035" y="-1113.3" font-family="Times,serif" font-size="14.00"> v54 = g40</text>
<text text-anchor="start" x="160.035" y="-1098.3" font-family="Times,serif" font-size="14.00"> g36 = *(IntToPtrCastExpr&lt;ptr&gt;((v54 + 28)))</text>
<text text-anchor="start" x="160.035" y="-1083.3" font-family="Times,serif" font-size="14.00"> *(IntToPtrCastExpr&lt;ptr&gt;((v54 + 24))) = ((v52 ^ v51) ^ v53)</text>
<text text-anchor="start" x="160.035" y="-1068.3" font-family="Times,serif" font-size="14.00"> v55 = g36</text>
<text text-anchor="start" x="160.035" y="-1053.3" font-family="Times,serif" font-size="14.00"> v56 = g38</text>
<text text-anchor="start" x="160.035" y="-1038.3" font-family="Times,serif" font-size="14.00"> v57 = ExtCastExpr&lt;int32&gt;(*(IntToPtrCastExpr&lt;ptr&gt;(((4 * ((v55 / 65536) % 256)) + v56))))</text>
<text text-anchor="start" x="160.035" y="-1023.3" font-family="Times,serif" font-size="14.00"> v58 = ExtCastExpr&lt;int32&gt;(*(IntToPtrCastExpr&lt;ptr&gt;(((4 * ((v55 / 256) % 256)) + v56))))</text>
<text text-anchor="start" x="160.035" y="-1008.3" font-family="Times,serif" font-size="14.00"> v59 = g39</text>
<text text-anchor="start" x="160.035" y="-993.3" font-family="Times,serif" font-size="14.00"> v60 = (v59 + (4 * ExtCastExpr&lt;int32&gt;(*(IntToPtrCastExpr&lt;ptr&gt;((v56 + (4 * (v55 % 256))))))))</text>
<text text-anchor="start" x="160.035" y="-978.3" font-family="Times,serif" font-size="14.00"> v61 = (v59 + (4 * ExtCastExpr&lt;int32&gt;(*(IntToPtrCastExpr&lt;ptr&gt;((v56 + (4 * (v55 / 16777216))))))))</text>
<text text-anchor="start" x="160.035" y="-963.3" font-family="Times,serif" font-size="14.00"> g33 = v61</text>
<text text-anchor="start" x="160.035" y="-948.3" font-family="Times,serif" font-size="14.00"> v62 = *(IntToPtrCastExpr&lt;ptr&gt;((v61 + 1064)))</text>
<text text-anchor="start" x="160.035" y="-933.3" font-family="Times,serif" font-size="14.00"> v63 = *(IntToPtrCastExpr&lt;ptr&gt;(((v59 + (4 * v57)) + 2088)))</text>
<text text-anchor="start" x="160.035" y="-918.3" font-family="Times,serif" font-size="14.00"> g30 = v63</text>
<text text-anchor="start" x="160.035" y="-903.3" font-family="Times,serif" font-size="14.00"> v64 = *(IntToPtrCastExpr&lt;ptr&gt;((((4 * v58) + v59) + 3112)))</text>
<text text-anchor="start" x="160.035" y="-888.3" font-family="Times,serif" font-size="14.00"> g36 = v64</text>
<text text-anchor="start" x="160.035" y="-873.3" font-family="Times,serif" font-size="14.00"> v65 = (((v62 ^ *(IntToPtrCastExpr&lt;ptr&gt;((v60 + 40)))) ^ v63) ^ v64)</text>
<text text-anchor="start" x="160.035" y="-858.3" font-family="Times,serif" font-size="14.00"> g37 = v65</text>
<text text-anchor="start" x="160.035" y="-843.3" font-family="Times,serif" font-size="14.00"> *(IntToPtrCastExpr&lt;ptr&gt;((g40 + 28))) = v65</text>
<text text-anchor="start" x="160.035" y="-828.3" font-family="Times,serif" font-size="14.00"> v66 = (g40 + 16)</text>
<text text-anchor="start" x="160.035" y="-813.3" font-family="Times,serif" font-size="14.00"> g40 = v66</text>
<text text-anchor="start" x="160.035" y="-798.3" font-family="Times,serif" font-size="14.00"> v67 = g41</text>
<text text-anchor="start" x="160.035" y="-783.3" font-family="Times,serif" font-size="14.00"> v68 = g42</text>
<text text-anchor="start" x="160.035" y="-768.3" font-family="Times,serif" font-size="14.00"> g6 = (v68 &gt;= v67)</text>
<text text-anchor="start" x="160.035" y="-753.3" font-family="Times,serif" font-size="14.00"> g9 = (v68 == v67)</text>
<text text-anchor="start" x="160.035" y="-738.3" font-family="Times,serif" font-size="14.00"> g42 = (v68 + 1)</text>
</g>
<!-- Node0x47480af0&#45;&gt;Node0xa5b1990 -->
<g id="edge15" class="edge"><title>Node0x47480af0&#45;&gt;Node0xa5b1990</title>
<path fill="none" stroke="black" d="M524.035,-1720.29C524.035,-1710.09 524.035,-1695.97 524.035,-1678.92"/>
<polygon fill="black" stroke="black" points="527.535,-1678.54 524.035,-1668.54 520.535,-1678.54 527.535,-1678.54"/>
<text text-anchor="middle" x="541.035" y="-1690.8" font-family="Times,serif" font-size="14.00">True</text>
</g>
<!-- Node0x47480530 -->
<g id="node15" class="node"><title>Node0x47480530</title>
<polygon fill="none" stroke="black" points="578.035,-97.5 578.035,-180.5 962.035,-180.5 962.035,-97.5 578.035,-97.5"/>
<text text-anchor="start" x="586.035" y="-165.3" font-family="Times,serif" font-size="14.00">0x4e5c7f0:</text>
<text text-anchor="start" x="586.035" y="-150.3" font-family="Times,serif" font-size="14.00"> g40 = (g36 &amp; (g38 / 1024))</text>
<text text-anchor="start" x="586.035" y="-135.3" font-family="Times,serif" font-size="14.00"> v70 = (g30 % 256)</text>
<text text-anchor="start" x="586.035" y="-120.3" font-family="Times,serif" font-size="14.00"> v71 = g29</text>
<text text-anchor="start" x="586.035" y="-105.3" font-family="Times,serif" font-size="14.00"> g29 = ((v71 &gt;&gt; (32 if (v70 &gt; 32) else v70)) &amp; v71)</text>
</g>
<!-- Node0x29537010&#45;&gt;Node0x47480530 -->
<g id="edge16" class="edge"><title>Node0x29537010&#45;&gt;Node0x47480530</title>
<path fill="none" stroke="black" d="M865.21,-232.253C852.706,-220.133 835.666,-203.617 819.458,-187.906"/>
<polygon fill="black" stroke="black" points="821.706,-185.21 812.089,-180.764 816.834,-190.237 821.706,-185.21"/>
<text text-anchor="middle" x="853.535" y="-202.8" font-family="Times,serif" font-size="14.00">g9</text>
</g>
<!-- Node0xa5f8f30 -->
<g id="node16" class="node"><title>Node0xa5f8f30</title>
<polygon fill="none" stroke="black" points="908.035,-23.5 908.035,-59.5 962.035,-59.5 962.035,-23.5 908.035,-23.5"/>
<text text-anchor="start" x="916.035" y="-37.8" font-family="Times,serif" font-size="14.00">exit:</text>
</g>
<!-- Node0x29537010&#45;&gt;Node0xa5f8f30 -->
<g id="edge17" class="edge"><title>Node0x29537010&#45;&gt;Node0xa5f8f30</title>
<path fill="none" stroke="black" d="M919.489,-232.474C938.557,-220.674 960.307,-203.299 971.035,-181 987.219,-147.357 981.777,-132.754 971.035,-97 967.951,-86.7372 962.238,-76.6248 956.258,-67.9503"/>
<polygon fill="black" stroke="black" points="959.015,-65.7918 950.276,-59.8026 953.373,-69.9347 959.015,-65.7918"/>
<text text-anchor="middle" x="1010.53" y="-135.3" font-family="Times,serif" font-size="14.00">not (g9)</text>
</g>
<!-- Node0x1b59b2f0 -->
<g id="node17" class="node"><title>Node0x1b59b2f0</title>
<polygon fill="none" stroke="black" points="462.035,-639.5 462.035,-692.5 586.035,-692.5 586.035,-639.5 462.035,-639.5"/>
<text text-anchor="start" x="470.035" y="-677.3" font-family="Times,serif" font-size="14.00">0x4e5aa00:</text>
<text text-anchor="start" x="470.035" y="-662.3" font-family="Times,serif" font-size="14.00"> if (v68 &lt; v67):</text>
<text text-anchor="start" x="470.035" y="-647.3" font-family="Times,serif" font-size="14.00"> else:</text>
</g>
<!-- Node0xa5b1990&#45;&gt;Node0x1b59b2f0 -->
<g id="edge18" class="edge"><title>Node0xa5b1990&#45;&gt;Node0x1b59b2f0</title>
<path fill="none" stroke="black" d="M524.035,-730.32C524.035,-720.141 524.035,-710.934 524.035,-702.893"/>
<polygon fill="black" stroke="black" points="527.535,-702.668 524.035,-692.668 520.535,-702.668 527.535,-702.668"/>
</g>
<!-- Node0x47480530&#45;&gt;Node0xa5f8f30 -->
<g id="edge19" class="edge"><title>Node0x47480530&#45;&gt;Node0xa5f8f30</title>
<path fill="none" stroke="black" d="M840.009,-97.4994C860.354,-85.7243 881.739,-73.347 899.059,-63.3223"/>
<polygon fill="black" stroke="black" points="900.817,-66.3486 907.719,-58.3101 897.311,-60.2902 900.817,-66.3486"/>
</g>
<!-- Node0x474811e0 -->
<g id="node18" class="node"><title>Node0x474811e0</title>
<polygon fill="none" stroke="black" points="183.035,-504.5 183.035,-587.5 283.035,-587.5 283.035,-504.5 183.035,-504.5"/>
<text text-anchor="start" x="191.035" y="-572.3" font-family="Times,serif" font-size="14.00">0x4e5a340:</text>
<text text-anchor="start" x="191.035" y="-557.3" font-family="Times,serif" font-size="14.00"> v20 = g39</text>
<text text-anchor="start" x="191.035" y="-542.3" font-family="Times,serif" font-size="14.00"> v21 = g38</text>
<text text-anchor="start" x="191.035" y="-527.3" font-family="Times,serif" font-size="14.00"> v23 = v66</text>
<text text-anchor="start" x="191.035" y="-512.3" font-family="Times,serif" font-size="14.00"> continue</text>
</g>
<!-- Node0x1b59b2f0&#45;&gt;Node0x474811e0 -->
<g id="edge20" class="edge"><title>Node0x1b59b2f0&#45;&gt;Node0x474811e0</title>
<path fill="none" stroke="black" d="M461.965,-639.831C411.941,-619.546 342.045,-591.204 292.679,-571.186"/>
<polygon fill="black" stroke="black" points="293.983,-567.938 283.4,-567.423 291.352,-574.425 293.983,-567.938"/>
<text text-anchor="middle" x="451.035" y="-609.8" font-family="Times,serif" font-size="14.00">v68 &lt; v67</text>
</g>
<!-- Node0x4747fdc0 -->
<g id="node19" class="node"><title>Node0x4747fdc0</title>
<polygon fill="none" stroke="black" points="716.535,-527 716.535,-565 815.535,-565 815.535,-527 716.535,-527"/>
<text text-anchor="start" x="724.535" y="-549.8" font-family="Times,serif" font-size="14.00">0x4e5abe0:</text>
<text text-anchor="start" x="724.535" y="-534.8" font-family="Times,serif" font-size="14.00"> v22 = v67</text>
</g>
<!-- Node0x1b59b2f0&#45;&gt;Node0x4747fdc0 -->
<g id="edge21" class="edge"><title>Node0x1b59b2f0&#45;&gt;Node0x4747fdc0</title>
<path fill="none" stroke="black" d="M576.545,-639.396C619.233,-618.581 678.878,-589.498 719.784,-569.552"/>
<polygon fill="black" stroke="black" points="721.531,-572.594 728.986,-565.065 718.463,-566.302 721.531,-572.594"/>
<text text-anchor="middle" x="688.035" y="-609.8" font-family="Times,serif" font-size="14.00">v68 &gt;= v67</text>
</g>
<!-- Node0x474811e0&#45;&gt;Node0x47480af0 -->
<g id="edge22" class="edge"><title>Node0x474811e0&#45;&gt;Node0x47480af0</title>
<path fill="none" stroke="black" d="M206.146,-587.823C184.282,-623.616 155.146,-677.928 143.035,-730 48.4875,-1136.48 -124.278,-1348.51 143.035,-1669 183.081,-1717.01 366.014,-1731.95 463.096,-1736.52"/>
<polygon fill="black" stroke="black" points="463.208,-1740.03 473.355,-1736.98 463.522,-1733.04 463.208,-1740.03"/>
</g>
<!-- Node0x4747fdc0&#45;&gt;Node0x29536a90 -->
<g id="edge23" class="edge"><title>Node0x4747fdc0&#45;&gt;Node0x29536a90</title>
<path fill="none" stroke="black" d="M779.802,-526.741C789.794,-513.489 804.111,-494.5 818.948,-474.822"/>
<polygon fill="black" stroke="black" points="821.874,-476.755 825.1,-466.663 816.285,-472.541 821.874,-476.755"/>
</g>
</g>
</svg>
