<?xml version="1.0" encoding="UTF-8" standalone="no"?>
<!DOCTYPE svg PUBLIC "-//W3C//DTD SVG 1.1//EN"
 "http://www.w3.org/Graphics/SVG/1.1/DTD/svg11.dtd">
<!-- Generated by graphviz version 2.38.0 (20140413.2041)
 -->
<!-- Title: Control&#45;flow graph for function &#39;function_91e8()&#39;. Pages: 1 -->
<svg width="974pt" height="2124pt"
 viewBox="0.00 0.00 974.00 2124.00" xmlns="http://www.w3.org/2000/svg" xmlns:xlink="http://www.w3.org/1999/xlink">
<g id="graph0" class="graph" transform="scale(1 1) rotate(0) translate(4 2120)">
<title>Control&#45;flow graph for function &#39;function_91e8()&#39;.</title>
<polygon fill="white" stroke="none" points="-4,4 -4,-2120 970,-2120 970,4 -4,4"/>
<text text-anchor="middle" x="483" y="-7.8" font-family="Times,serif" font-size="14.00">Control&#45;flow graph for function &#39;function_91e8()&#39;.</text>
<!-- Node0x443b48e0 -->
<g id="node1" class="node"><title>Node0x443b48e0</title>
<polygon fill="none" stroke="black" points="450.5,-2079.5 450.5,-2115.5 509.5,-2115.5 509.5,-2079.5 450.5,-2079.5"/>
<text text-anchor="start" x="458.5" y="-2093.8" font-family="Times,serif" font-size="14.00">entry:</text>
</g>
<!-- Node0x443b5e40 -->
<g id="node2" class="node"><title>Node0x443b5e40</title>
<polygon fill="none" stroke="black" points="341,-1733.5 341,-2041.5 619,-2041.5 619,-1733.5 341,-1733.5"/>
<text text-anchor="start" x="349" y="-2026.3" font-family="Times,serif" font-size="14.00">0x133a3c10:</text>
<text text-anchor="start" x="349" y="-2011.3" font-family="Times,serif" font-size="14.00"> v1 = g38</text>
<text text-anchor="start" x="349" y="-1996.3" font-family="Times,serif" font-size="14.00"> v2 = g39</text>
<text text-anchor="start" x="349" y="-1981.3" font-family="Times,serif" font-size="14.00"> v3 = g40</text>
<text text-anchor="start" x="349" y="-1966.3" font-family="Times,serif" font-size="14.00"> v4 = g41</text>
<text text-anchor="start" x="349" y="-1951.3" font-family="Times,serif" font-size="14.00"> v5 = g32</text>
<text text-anchor="start" x="349" y="-1936.3" font-family="Times,serif" font-size="14.00"> v6 = g35</text>
<text text-anchor="start" x="349" y="-1921.3" font-family="Times,serif" font-size="14.00"> v7 = g36</text>
<text text-anchor="start" x="349" y="-1906.3" font-family="Times,serif" font-size="14.00"> v8 = (v7 + 4)</text>
<text text-anchor="start" x="349" y="-1891.3" font-family="Times,serif" font-size="14.00"> g36 = v8</text>
<text text-anchor="start" x="349" y="-1876.3" font-family="Times,serif" font-size="14.00"> v9 = *(IntToPtrCastExpr&lt;ptr&gt;(v7))</text>
<text text-anchor="start" x="349" y="-1861.3" font-family="Times,serif" font-size="14.00"> g41 = v9</text>
<text text-anchor="start" x="349" y="-1846.3" font-family="Times,serif" font-size="14.00"> v10 = g30</text>
<text text-anchor="start" x="349" y="-1831.3" font-family="Times,serif" font-size="14.00"> g40 = v10</text>
<text text-anchor="start" x="349" y="-1816.3" font-family="Times,serif" font-size="14.00"> v11 = g29</text>
<text text-anchor="start" x="349" y="-1801.3" font-family="Times,serif" font-size="14.00"> g38 = v11</text>
<text text-anchor="start" x="349" y="-1786.3" font-family="Times,serif" font-size="14.00"> g39 = v8</text>
<text text-anchor="start" x="349" y="-1771.3" font-family="Times,serif" font-size="14.00"> g6 = (v11 &gt;= v10)</text>
<text text-anchor="start" x="349" y="-1756.3" font-family="Times,serif" font-size="14.00"> g9 = (v11 == v10)</text>
<text text-anchor="start" x="349" y="-1741.3" font-family="Times,serif" font-size="14.00"> v12</text>
</g>
<!-- Node0x443b48e0&#45;&gt;Node0x443b5e40 -->
<g id="edge1" class="edge"><title>Node0x443b48e0&#45;&gt;Node0x443b5e40</title>
<path fill="none" stroke="black" d="M480,-2079.48C480,-2072.05 480,-2062.57 480,-2051.83"/>
<polygon fill="black" stroke="black" points="483.5,-2051.62 480,-2041.62 476.5,-2051.62 483.5,-2051.62"/>
</g>
<!-- Node0x12203010 -->
<g id="node3" class="node"><title>Node0x12203010</title>
<polygon fill="none" stroke="black" points="415,-1657.5 415,-1695.5 545,-1695.5 545,-1657.5 415,-1657.5"/>
<text text-anchor="start" x="423" y="-1680.3" font-family="Times,serif" font-size="14.00">0x6d4e180:</text>
<text text-anchor="start" x="423" y="-1665.3" font-family="Times,serif" font-size="14.00"> if (v11 != v10):</text>
</g>
<!-- Node0x443b5e40&#45;&gt;Node0x12203010 -->
<g id="edge2" class="edge"><title>Node0x443b5e40&#45;&gt;Node0x12203010</title>
<path fill="none" stroke="black" d="M480,-1733.23C480,-1723.18 480,-1713.9 480,-1705.91"/>
<polygon fill="black" stroke="black" points="483.5,-1705.87 480,-1695.87 476.5,-1705.87 483.5,-1705.87"/>
</g>
<!-- Node0x443b74a0 -->
<g id="node4" class="node"><title>Node0x443b74a0</title>
<polygon fill="none" stroke="black" points="690.5,-1567.5 690.5,-1605.5 791.5,-1605.5 791.5,-1567.5 690.5,-1567.5"/>
<text text-anchor="start" x="698.5" y="-1590.3" font-family="Times,serif" font-size="14.00">0x6d4e060:</text>
<text text-anchor="start" x="698.5" y="-1575.3" font-family="Times,serif" font-size="14.00"> while True:</text>
</g>
<!-- Node0x12203010&#45;&gt;Node0x443b74a0 -->
<g id="edge3" class="edge"><title>Node0x12203010&#45;&gt;Node0x443b74a0</title>
<path fill="none" stroke="black" d="M533.447,-1657.48C576.242,-1643.05 636.26,-1622.81 680.754,-1607.81"/>
<polygon fill="black" stroke="black" points="681.927,-1611.11 690.285,-1604.6 679.691,-1604.48 681.927,-1611.11"/>
<text text-anchor="middle" x="667" y="-1627.8" font-family="Times,serif" font-size="14.00">v11 != v10</text>
</g>
<!-- Node0x12200fe0 -->
<g id="node5" class="node"><title>Node0x12200fe0</title>
<polygon fill="none" stroke="black" points="184.5,-1405.5 184.5,-1548.5 417.5,-1548.5 417.5,-1405.5 184.5,-1405.5"/>
<text text-anchor="start" x="192.5" y="-1533.3" font-family="Times,serif" font-size="14.00">0x6d4e880:</text>
<text text-anchor="start" x="192.5" y="-1518.3" font-family="Times,serif" font-size="14.00"> g29 = 0</text>
<text text-anchor="start" x="192.5" y="-1503.3" font-family="Times,serif" font-size="14.00"> g38 = v1</text>
<text text-anchor="start" x="192.5" y="-1488.3" font-family="Times,serif" font-size="14.00"> g39 = v2</text>
<text text-anchor="start" x="192.5" y="-1473.3" font-family="Times,serif" font-size="14.00"> g40 = v3</text>
<text text-anchor="start" x="192.5" y="-1458.3" font-family="Times,serif" font-size="14.00"> g41 = v4</text>
<text text-anchor="start" x="192.5" y="-1443.3" font-family="Times,serif" font-size="14.00"> g32 = v5</text>
<text text-anchor="start" x="192.5" y="-1428.3" font-family="Times,serif" font-size="14.00"> g34 = v12</text>
<text text-anchor="start" x="192.5" y="-1413.3" font-family="Times,serif" font-size="14.00"> IntToPtrCastExpr&lt;ptr&gt;(v6)()</text>
</g>
<!-- Node0x12203010&#45;&gt;Node0x12200fe0 -->
<g id="edge4" class="edge"><title>Node0x12203010&#45;&gt;Node0x12200fe0</title>
<path fill="none" stroke="black" d="M463.481,-1657.27C442.715,-1634.36 405.73,-1593.55 372.288,-1556.66"/>
<polygon fill="black" stroke="black" points="374.521,-1553.91 365.212,-1548.85 369.334,-1558.61 374.521,-1553.91"/>
<text text-anchor="middle" x="488" y="-1627.8" font-family="Times,serif" font-size="14.00">v11 == v10</text>
</g>
<!-- Node0x443b80f0 -->
<g id="node6" class="node"><title>Node0x443b80f0</title>
<polygon fill="none" stroke="black" points="568,-1303.5 568,-1386.5 914,-1386.5 914,-1303.5 568,-1303.5"/>
<text text-anchor="start" x="576" y="-1371.3" font-family="Times,serif" font-size="14.00">0x177278b0:</text>
<text text-anchor="start" x="576" y="-1356.3" font-family="Times,serif" font-size="14.00"> v13 = *(IntToPtrCastExpr&lt;ptr&gt;((v11 + 12)))</text>
<text text-anchor="start" x="576" y="-1341.3" font-family="Times,serif" font-size="14.00"> g37 = v13</text>
<text text-anchor="start" x="576" y="-1326.3" font-family="Times,serif" font-size="14.00"> v14 = v10</text>
<text text-anchor="start" x="576" y="-1311.3" font-family="Times,serif" font-size="14.00"> v15 = v11</text>
</g>
<!-- Node0x443b74a0&#45;&gt;Node0x443b80f0 -->
<g id="edge5" class="edge"><title>Node0x443b74a0&#45;&gt;Node0x443b80f0</title>
<path fill="none" stroke="black" d="M741,-1567.5C741,-1531.7 741,-1450.42 741,-1396.91"/>
<polygon fill="black" stroke="black" points="744.5,-1396.6 741,-1386.6 737.5,-1396.6 744.5,-1396.6"/>
<text text-anchor="middle" x="758" y="-1473.3" font-family="Times,serif" font-size="14.00">True</text>
</g>
<!-- Node0x443b4960 -->
<g id="node7" class="node"><title>Node0x443b4960</title>
<polygon fill="none" stroke="black" points="385,-23.5 385,-59.5 439,-59.5 439,-23.5 385,-23.5"/>
<text text-anchor="start" x="393" y="-37.8" font-family="Times,serif" font-size="14.00">exit:</text>
</g>
<!-- Node0x12200fe0&#45;&gt;Node0x443b4960 -->
<g id="edge6" class="edge"><title>Node0x12200fe0&#45;&gt;Node0x443b4960</title>
<path fill="none" stroke="black" d="M184.195,-1451.22C99.5857,-1425.62 0,-1376.13 0,-1285 0,-1285 0,-1285 0,-175.5 0,-97.0992 273.601,-58.1551 374.882,-46.4247"/>
<polygon fill="black" stroke="black" points="375.426,-49.8856 384.968,-45.281 374.637,-42.9302 375.426,-49.8856"/>
</g>
<!-- Node0x443b9a40 -->
<g id="node8" class="node"><title>Node0x443b9a40</title>
<polygon fill="none" stroke="black" points="677.5,-1227.5 677.5,-1265.5 804.5,-1265.5 804.5,-1227.5 677.5,-1227.5"/>
<text text-anchor="start" x="685.5" y="-1250.3" font-family="Times,serif" font-size="14.00">0x6d4b650:</text>
<text text-anchor="start" x="685.5" y="-1235.3" font-family="Times,serif" font-size="14.00"> if (v13 == v9):</text>
</g>
<!-- Node0x443b80f0&#45;&gt;Node0x443b9a40 -->
<g id="edge7" class="edge"><title>Node0x443b80f0&#45;&gt;Node0x443b9a40</title>
<path fill="none" stroke="black" d="M741,-1303.35C741,-1294.08 741,-1284.43 741,-1275.8"/>
<polygon fill="black" stroke="black" points="744.5,-1275.54 741,-1265.54 737.5,-1275.54 744.5,-1275.54"/>
</g>
<!-- Node0x2a3e55b0 -->
<g id="node9" class="node"><title>Node0x2a3e55b0</title>
<polygon fill="none" stroke="black" points="501.5,-1122.5 501.5,-1175.5 838.5,-1175.5 838.5,-1122.5 501.5,-1122.5"/>
<text text-anchor="start" x="509.5" y="-1160.3" font-family="Times,serif" font-size="14.00">0x170845b0:</text>
<text text-anchor="start" x="509.5" y="-1145.3" font-family="Times,serif" font-size="14.00"> v16 = *(IntToPtrCastExpr&lt;ptr&gt;((v11 + 8)))</text>
<text text-anchor="start" x="509.5" y="-1130.3" font-family="Times,serif" font-size="14.00"> g37 = v16</text>
</g>
<!-- Node0x443b9a40&#45;&gt;Node0x2a3e55b0 -->
<g id="edge8" class="edge"><title>Node0x443b9a40&#45;&gt;Node0x2a3e55b0</title>
<path fill="none" stroke="black" d="M727.31,-1227.09C718.215,-1214.85 706.002,-1198.43 695.187,-1183.88"/>
<polygon fill="black" stroke="black" points="697.79,-1181.51 689.015,-1175.58 692.173,-1185.69 697.79,-1181.51"/>
<text text-anchor="middle" x="750.5" y="-1197.8" font-family="Times,serif" font-size="14.00">v13 == v9</text>
</g>
<!-- Node0x443b9fd0 -->
<g id="node10" class="node"><title>Node0x443b9fd0</title>
<polygon fill="none" stroke="black" points="690,-383.5 690,-466.5 846,-466.5 846,-383.5 690,-383.5"/>
<text text-anchor="start" x="698" y="-451.3" font-family="Times,serif" font-size="14.00">0x22892f00:</text>
<text text-anchor="start" x="698" y="-436.3" font-family="Times,serif" font-size="14.00"> v18 = (v15 + 256)</text>
<text text-anchor="start" x="698" y="-421.3" font-family="Times,serif" font-size="14.00"> g38 = v18</text>
<text text-anchor="start" x="698" y="-406.3" font-family="Times,serif" font-size="14.00"> g6 = (v18 &gt;= v14)</text>
<text text-anchor="start" x="698" y="-391.3" font-family="Times,serif" font-size="14.00"> g9 = (v18 == v14)</text>
</g>
<!-- Node0x443b9a40&#45;&gt;Node0x443b9fd0 -->
<g id="edge9" class="edge"><title>Node0x443b9a40&#45;&gt;Node0x443b9fd0</title>
<path fill="none" stroke="black" d="M796.632,-1227.48C830.386,-1212.67 867,-1187.88 867,-1150 867,-1150 867,-1150 867,-688 867,-610.019 828.149,-526.922 799.123,-475.721"/>
<polygon fill="black" stroke="black" points="802.037,-473.768 794.011,-466.851 795.972,-477.263 802.037,-473.768"/>
<text text-anchor="middle" x="902.5" y="-934.3" font-family="Times,serif" font-size="14.00">v13 != v9</text>
</g>
<!-- Node0x2a3e59b0 -->
<g id="node11" class="node"><title>Node0x2a3e59b0</title>
<polygon fill="none" stroke="black" points="588.5,-1031.5 588.5,-1084.5 751.5,-1084.5 751.5,-1031.5 588.5,-1031.5"/>
<text text-anchor="start" x="596.5" y="-1069.3" font-family="Times,serif" font-size="14.00">0x6d4b2b0:</text>
<text text-anchor="start" x="596.5" y="-1054.3" font-family="Times,serif" font-size="14.00"> if ((v16 &amp; 36) != 0):</text>
<text text-anchor="start" x="596.5" y="-1039.3" font-family="Times,serif" font-size="14.00"> else:</text>
</g>
<!-- Node0x2a3e55b0&#45;&gt;Node0x2a3e59b0 -->
<g id="edge10" class="edge"><title>Node0x2a3e55b0&#45;&gt;Node0x2a3e59b0</title>
<path fill="none" stroke="black" d="M670,-1122.26C670,-1113.68 670,-1103.96 670,-1094.76"/>
<polygon fill="black" stroke="black" points="673.5,-1094.68 670,-1084.68 666.5,-1094.68 673.5,-1094.68"/>
</g>
<!-- Node0x443baed0 -->
<g id="node12" class="node"><title>Node0x443baed0</title>
<polygon fill="none" stroke="black" points="703,-307.5 703,-345.5 833,-345.5 833,-307.5 703,-307.5"/>
<text text-anchor="start" x="711" y="-330.3" font-family="Times,serif" font-size="14.00">0x6d4cc40:</text>
<text text-anchor="start" x="711" y="-315.3" font-family="Times,serif" font-size="14.00"> if (v18 != v14):</text>
</g>
<!-- Node0x443b9fd0&#45;&gt;Node0x443baed0 -->
<g id="edge11" class="edge"><title>Node0x443b9fd0&#45;&gt;Node0x443baed0</title>
<path fill="none" stroke="black" d="M768,-383.355C768,-374.083 768,-364.427 768,-355.803"/>
<polygon fill="black" stroke="black" points="771.5,-355.538 768,-345.538 764.5,-355.538 771.5,-355.538"/>
</g>
<!-- Node0x2a3e63b0 -->
<g id="node13" class="node"><title>Node0x2a3e63b0</title>
<polygon fill="none" stroke="black" points="27.5,-896.5 27.5,-979.5 740.5,-979.5 740.5,-896.5 27.5,-896.5"/>
<text text-anchor="start" x="35.5" y="-964.3" font-family="Times,serif" font-size="14.00">0x28baba80:</text>
<text text-anchor="start" x="35.5" y="-949.3" font-family="Times,serif" font-size="14.00"> memcmp_rc = memcmp(IntToPtrCastExpr&lt;ptr&gt;((v11 + 16)), IntToPtrCastExpr&lt;ptr&gt;(g39), 12)</text>
<text text-anchor="start" x="35.5" y="-934.3" font-family="Times,serif" font-size="14.00"> g6 = True</text>
<text text-anchor="start" x="35.5" y="-919.3" font-family="Times,serif" font-size="14.00"> g9 = (memcmp_rc == 0)</text>
<text text-anchor="start" x="35.5" y="-904.3" font-family="Times,serif" font-size="14.00"> v17 = g38</text>
</g>
<!-- Node0x2a3e59b0&#45;&gt;Node0x2a3e63b0 -->
<g id="edge12" class="edge"><title>Node0x2a3e59b0&#45;&gt;Node0x2a3e63b0</title>
<path fill="none" stroke="black" d="M607.942,-1031.4C573.949,-1017.37 530.858,-999.592 491.573,-983.383"/>
<polygon fill="black" stroke="black" points="492.784,-980.097 482.205,-979.518 490.114,-986.567 492.784,-980.097"/>
<text text-anchor="middle" x="618.5" y="-1001.8" font-family="Times,serif" font-size="14.00">(v16 &amp; 36) != 0</text>
</g>
<!-- Node0x2a3e72b0 -->
<g id="node14" class="node"><title>Node0x2a3e72b0</title>
<polygon fill="none" stroke="black" points="719,-824.5 719,-877.5 817,-877.5 817,-824.5 719,-824.5"/>
<text text-anchor="start" x="727" y="-862.3" font-family="Times,serif" font-size="14.00">0x6d4b3f0:</text>
<text text-anchor="start" x="727" y="-847.3" font-family="Times,serif" font-size="14.00"> v14 = v10</text>
<text text-anchor="start" x="727" y="-832.3" font-family="Times,serif" font-size="14.00"> v15 = v11</text>
</g>
<!-- Node0x2a3e59b0&#45;&gt;Node0x2a3e72b0 -->
<g id="edge13" class="edge"><title>Node0x2a3e59b0&#45;&gt;Node0x2a3e72b0</title>
<path fill="none" stroke="black" d="M698.164,-1031.22C719.522,-1011.39 745.751,-986.352 749,-980 763.631,-951.395 767.844,-914.803 768.714,-888.074"/>
<polygon fill="black" stroke="black" points="772.214,-888.057 768.9,-877.994 765.216,-887.927 772.214,-888.057"/>
<text text-anchor="middle" x="792.5" y="-1001.8" font-family="Times,serif" font-size="14.00">(v16 &amp; 36) == 0</text>
</g>
<!-- Node0x2a3e5cb0 -->
<g id="node15" class="node"><title>Node0x2a3e5cb0</title>
<polygon fill="none" stroke="black" points="789.5,-135 789.5,-218 890.5,-218 890.5,-135 789.5,-135"/>
<text text-anchor="start" x="797.5" y="-202.8" font-family="Times,serif" font-size="14.00">0x6d4c650:</text>
<text text-anchor="start" x="797.5" y="-187.8" font-family="Times,serif" font-size="14.00"> v10 = v14</text>
<text text-anchor="start" x="797.5" y="-172.8" font-family="Times,serif" font-size="14.00"> v9 = g41</text>
<text text-anchor="start" x="797.5" y="-157.8" font-family="Times,serif" font-size="14.00"> v11 = v18</text>
<text text-anchor="start" x="797.5" y="-142.8" font-family="Times,serif" font-size="14.00"> continue</text>
</g>
<!-- Node0x443baed0&#45;&gt;Node0x2a3e5cb0 -->
<g id="edge14" class="edge"><title>Node0x443baed0&#45;&gt;Node0x2a3e5cb0</title>
<path fill="none" stroke="black" d="M776.829,-307.352C786.477,-287.519 802.352,-254.887 815.774,-227.299"/>
<polygon fill="black" stroke="black" points="818.991,-228.685 820.219,-218.162 812.696,-225.623 818.991,-228.685"/>
<text text-anchor="middle" x="832" y="-277.8" font-family="Times,serif" font-size="14.00">v18 != v14</text>
</g>
<!-- Node0x2a3e48b0 -->
<g id="node16" class="node"><title>Node0x2a3e48b0</title>
<polygon fill="none" stroke="black" points="475.5,-97.5 475.5,-255.5 708.5,-255.5 708.5,-97.5 475.5,-97.5"/>
<text text-anchor="start" x="483.5" y="-240.3" font-family="Times,serif" font-size="14.00">0x6d4d2e0:</text>
<text text-anchor="start" x="483.5" y="-225.3" font-family="Times,serif" font-size="14.00"> g29 = 0</text>
<text text-anchor="start" x="483.5" y="-210.3" font-family="Times,serif" font-size="14.00"> g38 = v1</text>
<text text-anchor="start" x="483.5" y="-195.3" font-family="Times,serif" font-size="14.00"> g39 = v2</text>
<text text-anchor="start" x="483.5" y="-180.3" font-family="Times,serif" font-size="14.00"> g40 = v3</text>
<text text-anchor="start" x="483.5" y="-165.3" font-family="Times,serif" font-size="14.00"> g41 = v4</text>
<text text-anchor="start" x="483.5" y="-150.3" font-family="Times,serif" font-size="14.00"> g32 = v5</text>
<text text-anchor="start" x="483.5" y="-135.3" font-family="Times,serif" font-size="14.00"> g34 = v12</text>
<text text-anchor="start" x="483.5" y="-120.3" font-family="Times,serif" font-size="14.00"> IntToPtrCastExpr&lt;ptr&gt;(v6)()</text>
<text text-anchor="start" x="483.5" y="-105.3" font-family="Times,serif" font-size="14.00"> return</text>
</g>
<!-- Node0x443baed0&#45;&gt;Node0x2a3e48b0 -->
<g id="edge15" class="edge"><title>Node0x443baed0&#45;&gt;Node0x2a3e48b0</title>
<path fill="none" stroke="black" d="M727.751,-307.4C717.638,-302.088 707.086,-295.845 698,-289 687.545,-281.124 677.209,-272.177 667.328,-262.858"/>
<polygon fill="black" stroke="black" points="669.497,-260.087 659.867,-255.67 664.641,-265.129 669.497,-260.087"/>
<text text-anchor="middle" x="741" y="-277.8" font-family="Times,serif" font-size="14.00">v18 == v14</text>
</g>
<!-- Node0x2a3e69b0 -->
<g id="node17" class="node"><title>Node0x2a3e69b0</title>
<polygon fill="none" stroke="black" points="321.5,-767.5 321.5,-805.5 502.5,-805.5 502.5,-767.5 321.5,-767.5"/>
<text text-anchor="start" x="329.5" y="-790.3" font-family="Times,serif" font-size="14.00">0x6d4aa00:</text>
<text text-anchor="start" x="329.5" y="-775.3" font-family="Times,serif" font-size="14.00"> if (memcmp_rc == 0):</text>
</g>
<!-- Node0x2a3e63b0&#45;&gt;Node0x2a3e69b0 -->
<g id="edge16" class="edge"><title>Node0x2a3e63b0&#45;&gt;Node0x2a3e69b0</title>
<path fill="none" stroke="black" d="M391.651,-896.148C396.432,-870.624 402.465,-838.409 406.717,-815.707"/>
<polygon fill="black" stroke="black" points="410.19,-816.174 408.591,-805.701 403.31,-814.886 410.19,-816.174"/>
</g>
<!-- Node0x2a3e72b0&#45;&gt;Node0x443b9fd0 -->
<g id="edge17" class="edge"><title>Node0x2a3e72b0&#45;&gt;Node0x443b9fd0</title>
<path fill="none" stroke="black" d="M768,-824.432C768,-755.99 768,-567.648 768,-476.596"/>
<polygon fill="black" stroke="black" points="771.5,-476.515 768,-466.515 764.5,-476.515 771.5,-476.515"/>
</g>
<!-- Node0x2a3e5cb0&#45;&gt;Node0x443b74a0 -->
<g id="edge18" class="edge"><title>Node0x2a3e5cb0&#45;&gt;Node0x443b74a0</title>
<path fill="none" stroke="black" d="M890.523,-209.247C925.577,-235.588 966,-276.57 966,-325.5 966,-1346 966,-1346 966,-1346 966,-1449.39 853.243,-1526.42 787.373,-1562.6"/>
<polygon fill="black" stroke="black" points="785.549,-1559.61 778.407,-1567.43 788.87,-1565.77 785.549,-1559.61"/>
</g>
<!-- Node0x2a3e48b0&#45;&gt;Node0x443b4960 -->
<g id="edge19" class="edge"><title>Node0x2a3e48b0&#45;&gt;Node0x443b4960</title>
<path fill="none" stroke="black" d="M486.252,-97.3641C470.584,-85.7867 455.572,-74.695 443.198,-65.552"/>
<polygon fill="black" stroke="black" points="445.2,-62.6793 435.077,-59.5516 441.04,-68.3092 445.2,-62.6793"/>
</g>
<!-- Node0x2a3e79b0 -->
<g id="node18" class="node"><title>Node0x2a3e79b0</title>
<polygon fill="none" stroke="black" points="295.5,-485.5 295.5,-643.5 528.5,-643.5 528.5,-485.5 295.5,-485.5"/>
<text text-anchor="start" x="303.5" y="-628.3" font-family="Times,serif" font-size="14.00">0x6d49f30:</text>
<text text-anchor="start" x="303.5" y="-613.3" font-family="Times,serif" font-size="14.00"> g29 = v17</text>
<text text-anchor="start" x="303.5" y="-598.3" font-family="Times,serif" font-size="14.00"> g38 = v1</text>
<text text-anchor="start" x="303.5" y="-583.3" font-family="Times,serif" font-size="14.00"> g39 = v2</text>
<text text-anchor="start" x="303.5" y="-568.3" font-family="Times,serif" font-size="14.00"> g40 = v3</text>
<text text-anchor="start" x="303.5" y="-553.3" font-family="Times,serif" font-size="14.00"> g41 = v4</text>
<text text-anchor="start" x="303.5" y="-538.3" font-family="Times,serif" font-size="14.00"> g32 = v5</text>
<text text-anchor="start" x="303.5" y="-523.3" font-family="Times,serif" font-size="14.00"> g34 = v12</text>
<text text-anchor="start" x="303.5" y="-508.3" font-family="Times,serif" font-size="14.00"> IntToPtrCastExpr&lt;ptr&gt;(v6)()</text>
<text text-anchor="start" x="303.5" y="-493.3" font-family="Times,serif" font-size="14.00"> return</text>
</g>
<!-- Node0x2a3e69b0&#45;&gt;Node0x2a3e79b0 -->
<g id="edge20" class="edge"><title>Node0x2a3e69b0&#45;&gt;Node0x2a3e79b0</title>
<path fill="none" stroke="black" d="M412,-767.496C412,-742.605 412,-695.964 412,-653.767"/>
<polygon fill="black" stroke="black" points="415.5,-653.717 412,-643.717 408.5,-653.717 415.5,-653.717"/>
<text text-anchor="middle" x="477.5" y="-737.8" font-family="Times,serif" font-size="14.00">memcmp_rc == 0</text>
</g>
<!-- Node0x2a3e6db0 -->
<g id="node19" class="node"><title>Node0x2a3e6db0</title>
<polygon fill="none" stroke="black" points="564,-662.5 564,-715.5 664,-715.5 664,-662.5 564,-662.5"/>
<text text-anchor="start" x="572" y="-700.3" font-family="Times,serif" font-size="14.00">0x6d4ae00:</text>
<text text-anchor="start" x="572" y="-685.3" font-family="Times,serif" font-size="14.00"> v14 = g40</text>
<text text-anchor="start" x="572" y="-670.3" font-family="Times,serif" font-size="14.00"> v15 = v17</text>
</g>
<!-- Node0x2a3e69b0&#45;&gt;Node0x2a3e6db0 -->
<g id="edge21" class="edge"><title>Node0x2a3e69b0&#45;&gt;Node0x2a3e6db0</title>
<path fill="none" stroke="black" d="M501.737,-767.449C517.313,-762.591 532.991,-756.527 547,-749 559.854,-742.094 572.316,-732.287 582.935,-722.648"/>
<polygon fill="black" stroke="black" points="585.433,-725.103 590.321,-715.702 580.638,-720.003 585.433,-725.103"/>
<text text-anchor="middle" x="632.5" y="-737.8" font-family="Times,serif" font-size="14.00">memcmp_rc != 0</text>
</g>
<!-- Node0x2a3e79b0&#45;&gt;Node0x443b4960 -->
<g id="edge22" class="edge"><title>Node0x2a3e79b0&#45;&gt;Node0x443b4960</title>
<path fill="none" stroke="black" d="M412,-485.249C412,-448.713 412,-404.631 412,-365 412,-365 412,-365 412,-175.5 412,-138.97 412,-96.7973 412,-69.9064"/>
<polygon fill="black" stroke="black" points="415.5,-69.7165 412,-59.7166 408.5,-69.7166 415.5,-69.7165"/>
</g>
<!-- Node0x2a3e6db0&#45;&gt;Node0x443b9fd0 -->
<g id="edge23" class="edge"><title>Node0x2a3e6db0&#45;&gt;Node0x443b9fd0</title>
<path fill="none" stroke="black" d="M629.047,-662.401C654.478,-619.134 706.379,-530.835 739.052,-475.249"/>
<polygon fill="black" stroke="black" points="742.074,-477.016 744.124,-466.621 736.039,-473.468 742.074,-477.016"/>
</g>
</g>
</svg>
