<?xml version="1.0" encoding="UTF-8" standalone="no"?>
<!DOCTYPE svg PUBLIC "-//W3C//DTD SVG 1.1//EN"
 "http://www.w3.org/Graphics/SVG/1.1/DTD/svg11.dtd">
<!-- Generated by graphviz version 2.38.0 (20140413.2041)
 -->
<!-- Title: Control&#45;flow graph for function &#39;function_3330()&#39;. Pages: 1 -->
<svg width="754pt" height="873pt"
 viewBox="0.00 0.00 754.00 873.00" xmlns="http://www.w3.org/2000/svg" xmlns:xlink="http://www.w3.org/1999/xlink">
<g id="graph0" class="graph" transform="scale(1 1) rotate(0) translate(4 869)">
<title>Control&#45;flow graph for function &#39;function_3330()&#39;.</title>
<polygon fill="white" stroke="none" points="-4,4 -4,-869 750,-869 750,4 -4,4"/>
<text text-anchor="middle" x="373" y="-7.8" font-family="Times,serif" font-size="14.00">Control&#45;flow graph for function &#39;function_3330()&#39;.</text>
<!-- Node0x37eaa560 -->
<g id="node1" class="node"><title>Node0x37eaa560</title>
<polygon fill="none" stroke="black" points="172,-828.5 172,-864.5 231,-864.5 231,-828.5 172,-828.5"/>
<text text-anchor="start" x="180" y="-842.8" font-family="Times,serif" font-size="14.00">entry:</text>
</g>
<!-- Node0x3a741cc0 -->
<g id="node2" class="node"><title>Node0x3a741cc0</title>
<polygon fill="none" stroke="black" points="57.5,-692.5 57.5,-790.5 345.5,-790.5 345.5,-692.5 57.5,-692.5"/>
<text text-anchor="start" x="65.5" y="-775.3" font-family="Times,serif" font-size="14.00">0x2928a6c0:</text>
<text text-anchor="start" x="65.5" y="-760.3" font-family="Times,serif" font-size="14.00"> v1 = *(IntToPtrCastExpr&lt;ptr&gt;(g29))</text>
<text text-anchor="start" x="65.5" y="-745.3" font-family="Times,serif" font-size="14.00"> v2 = v1</text>
<text text-anchor="start" x="65.5" y="-730.3" font-family="Times,serif" font-size="14.00"> g37 = v2</text>
<text text-anchor="start" x="65.5" y="-715.3" font-family="Times,serif" font-size="14.00"> v3 = g29</text>
<text text-anchor="start" x="65.5" y="-700.3" font-family="Times,serif" font-size="14.00"> v4</text>
</g>
<!-- Node0x37eaa560&#45;&gt;Node0x3a741cc0 -->
<g id="edge1" class="edge"><title>Node0x37eaa560&#45;&gt;Node0x3a741cc0</title>
<path fill="none" stroke="black" d="M201.5,-828.492C201.5,-820.692 201.5,-810.94 201.5,-800.829"/>
<polygon fill="black" stroke="black" points="205,-800.659 201.5,-790.659 198,-800.659 205,-800.659"/>
</g>
<!-- Node0x1116dc40 -->
<g id="node3" class="node"><title>Node0x1116dc40</title>
<polygon fill="none" stroke="black" points="149.5,-616.5 149.5,-654.5 253.5,-654.5 253.5,-616.5 149.5,-616.5"/>
<text text-anchor="start" x="157.5" y="-639.3" font-family="Times,serif" font-size="14.00">0x4fdfe80:</text>
<text text-anchor="start" x="157.5" y="-624.3" font-family="Times,serif" font-size="14.00"> if (v1 != 9):</text>
</g>
<!-- Node0x3a741cc0&#45;&gt;Node0x1116dc40 -->
<g id="edge2" class="edge"><title>Node0x3a741cc0&#45;&gt;Node0x1116dc40</title>
<path fill="none" stroke="black" d="M201.5,-692.458C201.5,-682.952 201.5,-673.27 201.5,-664.69"/>
<polygon fill="black" stroke="black" points="205,-664.509 201.5,-654.509 198,-664.509 205,-664.509"/>
</g>
<!-- Node0x3a73d840 -->
<g id="node4" class="node"><title>Node0x3a73d840</title>
<polygon fill="none" stroke="black" points="0,-334.5 0,-477.5 281,-477.5 281,-334.5 0,-334.5"/>
<text text-anchor="start" x="8" y="-462.3" font-family="Times,serif" font-size="14.00">0x4fe01f0:</text>
<text text-anchor="start" x="8" y="-447.3" font-family="Times,serif" font-size="14.00"> g6 = (v2 &gt; 31)</text>
<text text-anchor="start" x="8" y="-432.3" font-family="Times,serif" font-size="14.00"> g8 = (((31 &#45; v2) &amp; v2) &lt; 0)</text>
<text text-anchor="start" x="8" y="-417.3" font-family="Times,serif" font-size="14.00"> g7 = (v2 &lt; 32)</text>
<text text-anchor="start" x="8" y="-402.3" font-family="Times,serif" font-size="14.00"> g36 = 0</text>
<text text-anchor="start" x="8" y="-387.3" font-family="Times,serif" font-size="14.00"> v4 = g30</text>
<text text-anchor="start" x="8" y="-372.3" font-family="Times,serif" font-size="14.00"> g9 = (v2 == v4)</text>
<text text-anchor="start" x="8" y="-357.3" font-family="Times,serif" font-size="14.00"> g29 = ((v3 + 1) if (v2 == v4) else 0)</text>
<text text-anchor="start" x="8" y="-342.3" font-family="Times,serif" font-size="14.00"> return</text>
</g>
<!-- Node0x1116dc40&#45;&gt;Node0x3a73d840 -->
<g id="edge3" class="edge"><title>Node0x1116dc40&#45;&gt;Node0x3a73d840</title>
<path fill="none" stroke="black" d="M196.611,-616.267C189.168,-588.508 174.543,-533.965 162.091,-487.522"/>
<polygon fill="black" stroke="black" points="165.44,-486.5 159.47,-477.748 158.679,-488.313 165.44,-486.5"/>
<text text-anchor="middle" x="218.5" y="-586.8" font-family="Times,serif" font-size="14.00">v1 != 9</text>
</g>
<!-- Node0x1543b470 -->
<g id="node5" class="node"><title>Node0x1543b470</title>
<polygon fill="none" stroke="black" points="205.5,-496.5 205.5,-564.5 483.5,-564.5 483.5,-496.5 205.5,-496.5"/>
<text text-anchor="start" x="213.5" y="-549.3" font-family="Times,serif" font-size="14.00">0x29289f00:</text>
<text text-anchor="start" x="213.5" y="-534.3" font-family="Times,serif" font-size="14.00"> v5 = (g29 + 1)</text>
<text text-anchor="start" x="213.5" y="-519.3" font-family="Times,serif" font-size="14.00"> v6 = *(IntToPtrCastExpr&lt;ptr&gt;(v5))</text>
<text text-anchor="start" x="213.5" y="-504.3" font-family="Times,serif" font-size="14.00"> v2 = v6</text>
</g>
<!-- Node0x1116dc40&#45;&gt;Node0x1543b470 -->
<g id="edge4" class="edge"><title>Node0x1116dc40&#45;&gt;Node0x1543b470</title>
<path fill="none" stroke="black" d="M226.736,-616.323C244.297,-603.674 268.384,-586.325 290.199,-570.612"/>
<polygon fill="black" stroke="black" points="292.362,-573.367 298.431,-564.683 288.271,-567.687 292.362,-573.367"/>
<text text-anchor="middle" x="303.5" y="-586.8" font-family="Times,serif" font-size="14.00">v1 == 9</text>
</g>
<!-- Node0x2223ad60 -->
<g id="node6" class="node"><title>Node0x2223ad60</title>
<polygon fill="none" stroke="black" points="235.5,-23.5 235.5,-59.5 289.5,-59.5 289.5,-23.5 235.5,-23.5"/>
<text text-anchor="start" x="243.5" y="-37.8" font-family="Times,serif" font-size="14.00">exit:</text>
</g>
<!-- Node0x3a73d840&#45;&gt;Node0x2223ad60 -->
<g id="edge5" class="edge"><title>Node0x3a73d840&#45;&gt;Node0x2223ad60</title>
<path fill="none" stroke="black" d="M126.416,-334.471C117.102,-267.83 113.836,-167.795 159.5,-97 174.469,-73.7935 202.758,-59.8399 225.907,-51.8696"/>
<polygon fill="black" stroke="black" points="227.004,-55.1937 235.46,-48.8106 224.869,-48.5271 227.004,-55.1937"/>
</g>
<!-- Node0x1116db90 -->
<g id="node7" class="node"><title>Node0x1116db90</title>
<polygon fill="none" stroke="black" points="275.5,-277.5 275.5,-315.5 413.5,-315.5 413.5,-277.5 275.5,-277.5"/>
<text text-anchor="start" x="283.5" y="-300.3" font-family="Times,serif" font-size="14.00">0x4fdfce0:</text>
<text text-anchor="start" x="283.5" y="-285.3" font-family="Times,serif" font-size="14.00"> while (v6 == 9):</text>
</g>
<!-- Node0x1543b470&#45;&gt;Node0x1116db90 -->
<g id="edge6" class="edge"><title>Node0x1543b470&#45;&gt;Node0x1116db90</title>
<path fill="none" stroke="black" d="M344.5,-496.26C344.5,-450.405 344.5,-368.547 344.5,-325.588"/>
<polygon fill="black" stroke="black" points="348,-325.549 344.5,-315.549 341,-325.549 348,-325.549"/>
</g>
<!-- Node0x1543ba90 -->
<g id="node8" class="node"><title>Node0x1543ba90</title>
<polygon fill="none" stroke="black" points="168.5,-127.5 168.5,-195.5 446.5,-195.5 446.5,-127.5 168.5,-127.5"/>
<text text-anchor="start" x="176.5" y="-180.3" font-family="Times,serif" font-size="14.00">0x3cd8aac0:</text>
<text text-anchor="start" x="176.5" y="-165.3" font-family="Times,serif" font-size="14.00"> v5 = (v5 + 1)</text>
<text text-anchor="start" x="176.5" y="-150.3" font-family="Times,serif" font-size="14.00"> v6 = *(IntToPtrCastExpr&lt;ptr&gt;(v5))</text>
<text text-anchor="start" x="176.5" y="-135.3" font-family="Times,serif" font-size="14.00"> v2 = v6</text>
</g>
<!-- Node0x1116db90&#45;&gt;Node0x1543ba90 -->
<g id="edge7" class="edge"><title>Node0x1116db90&#45;&gt;Node0x1543ba90</title>
<path fill="none" stroke="black" d="M289.499,-277.38C281.948,-272.572 275.19,-266.542 270.5,-259 260.092,-242.262 265.43,-222.119 274.916,-204.577"/>
<polygon fill="black" stroke="black" points="278.106,-206.059 280.193,-195.672 272.084,-202.49 278.106,-206.059"/>
<text text-anchor="middle" x="300.5" y="-247.8" font-family="Times,serif" font-size="14.00">v6 == 9</text>
</g>
<!-- Node0x3a73df10 -->
<g id="node9" class="node"><title>Node0x3a73df10</title>
<polygon fill="none" stroke="black" points="465,-97.5 465,-225.5 746,-225.5 746,-97.5 465,-97.5"/>
<text text-anchor="start" x="473" y="-210.3" font-family="Times,serif" font-size="14.00">0x4fde3c0:</text>
<text text-anchor="start" x="473" y="-195.3" font-family="Times,serif" font-size="14.00"> g6 = (v2 &gt; 31)</text>
<text text-anchor="start" x="473" y="-180.3" font-family="Times,serif" font-size="14.00"> g8 = (((31 &#45; v2) &amp; v2) &lt; 0)</text>
<text text-anchor="start" x="473" y="-165.3" font-family="Times,serif" font-size="14.00"> g7 = (v2 &lt; 32)</text>
<text text-anchor="start" x="473" y="-150.3" font-family="Times,serif" font-size="14.00"> g36 = 0</text>
<text text-anchor="start" x="473" y="-135.3" font-family="Times,serif" font-size="14.00"> v4 = g30</text>
<text text-anchor="start" x="473" y="-120.3" font-family="Times,serif" font-size="14.00"> g9 = (v2 == v4)</text>
<text text-anchor="start" x="473" y="-105.3" font-family="Times,serif" font-size="14.00"> g29 = ((v5 + 1) if (v2 == v4) else 0)</text>
</g>
<!-- Node0x1116db90&#45;&gt;Node0x3a73df10 -->
<g id="edge8" class="edge"><title>Node0x1116db90&#45;&gt;Node0x3a73df10</title>
<path fill="none" stroke="black" d="M379.971,-277.425C404.345,-265.004 438.378,-247.662 472.629,-230.208"/>
<polygon fill="black" stroke="black" points="474.489,-233.189 481.81,-225.53 471.311,-226.952 474.489,-233.189"/>
<text text-anchor="middle" x="470.5" y="-247.8" font-family="Times,serif" font-size="14.00">v6 != 9</text>
</g>
<!-- Node0x1543ba90&#45;&gt;Node0x1116db90 -->
<g id="edge9" class="edge"><title>Node0x1543ba90&#45;&gt;Node0x1116db90</title>
<path fill="none" stroke="black" d="M316.972,-195.788C321.152,-210.548 326.104,-228.131 330.5,-244 332.609,-251.612 334.866,-259.865 336.938,-267.489"/>
<polygon fill="black" stroke="black" points="333.623,-268.639 339.618,-277.375 340.379,-266.807 333.623,-268.639"/>
</g>
<!-- Node0x3a73df10&#45;&gt;Node0x2223ad60 -->
<g id="edge10" class="edge"><title>Node0x3a73df10&#45;&gt;Node0x2223ad60</title>
<path fill="none" stroke="black" d="M464.777,-100.323C461.664,-99.1871 458.568,-98.0779 455.5,-97 402.127,-78.2496 338.758,-61.3463 299.582,-51.4986"/>
<polygon fill="black" stroke="black" points="300.233,-48.0539 289.684,-49.0314 298.54,-54.8461 300.233,-48.0539"/>
</g>
</g>
</svg>
