<?xml version="1.0" encoding="UTF-8" standalone="no"?>
<!DOCTYPE svg PUBLIC "-//W3C//DTD SVG 1.1//EN"
 "http://www.w3.org/Graphics/SVG/1.1/DTD/svg11.dtd">
<!-- Generated by graphviz version 2.38.0 (20140413.2041)
 -->
<!-- Title: Control&#45;flow graph for function &#39;function_b174()&#39;. Pages: 1 -->
<svg width="454pt" height="940pt"
 viewBox="0.00 0.00 454.00 940.00" xmlns="http://www.w3.org/2000/svg" xmlns:xlink="http://www.w3.org/1999/xlink">
<g id="graph0" class="graph" transform="scale(1 1) rotate(0) translate(4 936)">
<title>Control&#45;flow graph for function &#39;function_b174()&#39;.</title>
<polygon fill="white" stroke="none" points="-4,4 -4,-936 450,-936 450,4 -4,4"/>
<text text-anchor="middle" x="223" y="-7.8" font-family="Times,serif" font-size="14.00">Control&#45;flow graph for function &#39;function_b174()&#39;.</text>
<!-- Node0x2231c540 -->
<g id="node1" class="node"><title>Node0x2231c540</title>
<polygon fill="none" stroke="black" points="178.5,-895.5 178.5,-931.5 237.5,-931.5 237.5,-895.5 178.5,-895.5"/>
<text text-anchor="start" x="186.5" y="-909.8" font-family="Times,serif" font-size="14.00">entry:</text>
</g>
<!-- Node0x2231ec20 -->
<g id="node2" class="node"><title>Node0x2231ec20</title>
<polygon fill="none" stroke="black" points="43.5,-594.5 43.5,-857.5 372.5,-857.5 372.5,-594.5 43.5,-594.5"/>
<text text-anchor="start" x="51.5" y="-842.3" font-family="Times,serif" font-size="14.00">0x129a13f0:</text>
<text text-anchor="start" x="51.5" y="-827.3" font-family="Times,serif" font-size="14.00"> v1 = g40</text>
<text text-anchor="start" x="51.5" y="-812.3" font-family="Times,serif" font-size="14.00"> v2 = g41</text>
<text text-anchor="start" x="51.5" y="-797.3" font-family="Times,serif" font-size="14.00"> v3 = g31</text>
<text text-anchor="start" x="51.5" y="-782.3" font-family="Times,serif" font-size="14.00"> v4 = g36</text>
<text text-anchor="start" x="51.5" y="-767.3" font-family="Times,serif" font-size="14.00"> v5 = g30</text>
<text text-anchor="start" x="51.5" y="-752.3" font-family="Times,serif" font-size="14.00"> v6 = g29</text>
<text text-anchor="start" x="51.5" y="-737.3" font-family="Times,serif" font-size="14.00"> g41 = *(IntToPtrCastExpr&lt;ptr&gt;((v6 + 8)))</text>
<text text-anchor="start" x="51.5" y="-722.3" font-family="Times,serif" font-size="14.00"> g40 = v6</text>
<text text-anchor="start" x="51.5" y="-707.3" font-family="Times,serif" font-size="14.00"> g31 = v5</text>
<text text-anchor="start" x="51.5" y="-692.3" font-family="Times,serif" font-size="14.00"> v7 = g37</text>
<text text-anchor="start" x="51.5" y="-677.3" font-family="Times,serif" font-size="14.00"> v8 = *(IntToPtrCastExpr&lt;ptr&gt;((v6 + 36)))</text>
<text text-anchor="start" x="51.5" y="-662.3" font-family="Times,serif" font-size="14.00"> g29 = v8</text>
<text text-anchor="start" x="51.5" y="-647.3" font-family="Times,serif" font-size="14.00"> v9 = IntToPtrCastExpr&lt;ptr&gt;((v6 + 32))</text>
<text text-anchor="start" x="51.5" y="-632.3" font-family="Times,serif" font-size="14.00"> v10 = *(v9)</text>
<text text-anchor="start" x="51.5" y="-617.3" font-family="Times,serif" font-size="14.00"> g30 = v10</text>
<text text-anchor="start" x="51.5" y="-602.3" font-family="Times,serif" font-size="14.00"> g36 = v4</text>
</g>
<!-- Node0x2231c540&#45;&gt;Node0x2231ec20 -->
<g id="edge1" class="edge"><title>Node0x2231c540&#45;&gt;Node0x2231ec20</title>
<path fill="none" stroke="black" d="M208,-895.381C208,-887.896 208,-878.378 208,-867.688"/>
<polygon fill="black" stroke="black" points="211.5,-867.565 208,-857.565 204.5,-867.566 211.5,-867.565"/>
</g>
<!-- Node0x3af139b0 -->
<g id="node3" class="node"><title>Node0x3af139b0</title>
<polygon fill="none" stroke="black" points="130,-503.5 130,-556.5 286,-556.5 286,-503.5 130,-503.5"/>
<text text-anchor="start" x="138" y="-541.3" font-family="Times,serif" font-size="14.00">0x7318370:</text>
<text text-anchor="start" x="138" y="-526.3" font-family="Times,serif" font-size="14.00"> if (v4 &lt; (v8 &#45; v10)):</text>
<text text-anchor="start" x="138" y="-511.3" font-family="Times,serif" font-size="14.00"> else:</text>
</g>
<!-- Node0x2231ec20&#45;&gt;Node0x3af139b0 -->
<g id="edge2" class="edge"><title>Node0x2231ec20&#45;&gt;Node0x3af139b0</title>
<path fill="none" stroke="black" d="M208,-594.254C208,-584.472 208,-575.212 208,-566.948"/>
<polygon fill="black" stroke="black" points="211.5,-566.698 208,-556.698 204.5,-566.698 211.5,-566.698"/>
</g>
<!-- Node0x3af15bd0 -->
<g id="node4" class="node"><title>Node0x3af15bd0</title>
<polygon fill="none" stroke="black" points="60,-383.5 60,-451.5 212,-451.5 212,-383.5 60,-383.5"/>
<text text-anchor="start" x="68" y="-436.3" font-family="Times,serif" font-size="14.00">0x7317db0:</text>
<text text-anchor="start" x="68" y="-421.3" font-family="Times,serif" font-size="14.00"> *(v9) = (v10 + v4)</text>
<text text-anchor="start" x="68" y="-406.3" font-family="Times,serif" font-size="14.00"> g36 = (v5 + v4)</text>
<text text-anchor="start" x="68" y="-391.3" font-family="Times,serif" font-size="14.00"> g37 = v7</text>
</g>
<!-- Node0x3af139b0&#45;&gt;Node0x3af15bd0 -->
<g id="edge3" class="edge"><title>Node0x3af139b0&#45;&gt;Node0x3af15bd0</title>
<path fill="none" stroke="black" d="M165.27,-503.301C159.036,-497.939 153.287,-491.814 149,-485 144.591,-477.992 141.624,-469.811 139.639,-461.631"/>
<polygon fill="black" stroke="black" points="143.054,-460.861 137.674,-451.734 136.188,-462.224 143.054,-460.861"/>
<text text-anchor="middle" x="202" y="-473.8" font-family="Times,serif" font-size="14.00">v4 &lt; (v8 &#45; v10)</text>
</g>
<!-- Node0x2231f230 -->
<g id="node5" class="node"><title>Node0x2231f230</title>
<polygon fill="none" stroke="black" points="230.5,-391 230.5,-444 331.5,-444 331.5,-391 230.5,-391"/>
<text text-anchor="start" x="238.5" y="-428.8" font-family="Times,serif" font-size="14.00">0x7318700:</text>
<text text-anchor="start" x="238.5" y="-413.8" font-family="Times,serif" font-size="14.00"> g30 = 1</text>
<text text-anchor="start" x="238.5" y="-398.8" font-family="Times,serif" font-size="14.00"> *(v9) = v8</text>
</g>
<!-- Node0x3af139b0&#45;&gt;Node0x2231f230 -->
<g id="edge4" class="edge"><title>Node0x3af139b0&#45;&gt;Node0x2231f230</title>
<path fill="none" stroke="black" d="M239.429,-503.328C245.108,-497.702 250.611,-491.477 255,-485 261.442,-475.493 266.626,-464.158 270.62,-453.564"/>
<polygon fill="black" stroke="black" points="273.926,-454.71 273.954,-444.115 267.325,-452.381 273.926,-454.71"/>
<text text-anchor="middle" x="322" y="-473.8" font-family="Times,serif" font-size="14.00">v4 &gt;= (v8 &#45; v10)</text>
</g>
<!-- Node0x2231ab10 -->
<g id="node6" class="node"><title>Node0x2231ab10</title>
<polygon fill="none" stroke="black" points="0,-97.5 0,-345.5 446,-345.5 446,-97.5 0,-97.5"/>
<text text-anchor="start" x="8" y="-330.3" font-family="Times,serif" font-size="14.00">0x37486b90:</text>
<text text-anchor="start" x="8" y="-315.3" font-family="Times,serif" font-size="14.00"> v11 = *(IntToPtrCastExpr&lt;ptr&gt;(g40))</text>
<text text-anchor="start" x="8" y="-300.3" font-family="Times,serif" font-size="14.00"> v12 = v11</text>
<text text-anchor="start" x="8" y="-285.3" font-family="Times,serif" font-size="14.00"> g37 = v12</text>
<text text-anchor="start" x="8" y="-270.3" font-family="Times,serif" font-size="14.00"> g6 = (v11 &gt; 4)</text>
<text text-anchor="start" x="8" y="-255.3" font-family="Times,serif" font-size="14.00"> g8 = (((4 &#45; v12) &amp; v12) &lt; 0)</text>
<text text-anchor="start" x="8" y="-240.3" font-family="Times,serif" font-size="14.00"> g7 = (v12 &lt; 5)</text>
<text text-anchor="start" x="8" y="-225.3" font-family="Times,serif" font-size="14.00"> g9 = (v11 == 5)</text>
<text text-anchor="start" x="8" y="-210.3" font-family="Times,serif" font-size="14.00"> IntToPtrCastExpr&lt;ptr&gt;(ExtCastExpr&lt;int32&gt;((v11 &lt; 6)))()</text>
<text text-anchor="start" x="8" y="-195.3" font-family="Times,serif" font-size="14.00"> g29 = 0</text>
<text text-anchor="start" x="8" y="-180.3" font-family="Times,serif" font-size="14.00"> g40 = v1</text>
<text text-anchor="start" x="8" y="-165.3" font-family="Times,serif" font-size="14.00"> g41 = v2</text>
<text text-anchor="start" x="8" y="-150.3" font-family="Times,serif" font-size="14.00"> g31 = v3</text>
<text text-anchor="start" x="8" y="-135.3" font-family="Times,serif" font-size="14.00"> v13</text>
<text text-anchor="start" x="8" y="-120.3" font-family="Times,serif" font-size="14.00"> g34 = v13</text>
<text text-anchor="start" x="8" y="-105.3" font-family="Times,serif" font-size="14.00"> IntToPtrCastExpr&lt;ptr&gt;(g35)()</text>
</g>
<!-- Node0x3af15bd0&#45;&gt;Node0x2231ab10 -->
<g id="edge5" class="edge"><title>Node0x3af15bd0&#45;&gt;Node0x2231ab10</title>
<path fill="none" stroke="black" d="M150.956,-383.15C154.751,-374.687 159.065,-365.067 163.652,-354.84"/>
<polygon fill="black" stroke="black" points="166.848,-356.267 167.746,-345.71 160.461,-353.402 166.848,-356.267"/>
</g>
<!-- Node0x2231f230&#45;&gt;Node0x2231ab10 -->
<g id="edge6" class="edge"><title>Node0x2231f230&#45;&gt;Node0x2231ab10</title>
<path fill="none" stroke="black" d="M273.298,-390.738C270.323,-380.786 266.68,-368.603 262.729,-355.385"/>
<polygon fill="black" stroke="black" points="266.019,-354.174 259.802,-345.595 259.313,-356.179 266.019,-354.174"/>
</g>
<!-- Node0x4475c1f0 -->
<g id="node7" class="node"><title>Node0x4475c1f0</title>
<polygon fill="none" stroke="black" points="196,-23.5 196,-59.5 250,-59.5 250,-23.5 196,-23.5"/>
<text text-anchor="start" x="204" y="-37.8" font-family="Times,serif" font-size="14.00">exit:</text>
</g>
<!-- Node0x2231ab10&#45;&gt;Node0x4475c1f0 -->
<g id="edge7" class="edge"><title>Node0x2231ab10&#45;&gt;Node0x4475c1f0</title>
<path fill="none" stroke="black" d="M223,-97.3583C223,-87.3316 223,-77.9863 223,-69.9522"/>
<polygon fill="black" stroke="black" points="226.5,-69.8686 223,-59.8686 219.5,-69.8686 226.5,-69.8686"/>
</g>
</g>
</svg>
