<?xml version="1.0" encoding="UTF-8" standalone="no"?>
<!DOCTYPE svg PUBLIC "-//W3C//DTD SVG 1.1//EN"
 "http://www.w3.org/Graphics/SVG/1.1/DTD/svg11.dtd">
<!-- Generated by graphviz version 2.38.0 (20140413.2041)
 -->
<!-- Title: Control&#45;flow graph for function &#39;SpPlaybackUpdateVolume()&#39;. Pages: 1 -->
<svg width="677pt" height="1318pt"
 viewBox="0.00 0.00 677.00 1318.00" xmlns="http://www.w3.org/2000/svg" xmlns:xlink="http://www.w3.org/1999/xlink">
<g id="graph0" class="graph" transform="scale(1 1) rotate(0) translate(4 1314)">
<title>Control&#45;flow graph for function &#39;SpPlaybackUpdateVolume()&#39;.</title>
<polygon fill="white" stroke="none" points="-4,4 -4,-1314 673,-1314 673,4 -4,4"/>
<text text-anchor="middle" x="334.5" y="-7.8" font-family="Times,serif" font-size="14.00">Control&#45;flow graph for function &#39;SpPlaybackUpdateVolume()&#39;.</text>
<!-- Node0x245ae890 -->
<g id="node1" class="node"><title>Node0x245ae890</title>
<polygon fill="none" stroke="black" points="236.5,-1273.5 236.5,-1309.5 295.5,-1309.5 295.5,-1273.5 236.5,-1273.5"/>
<text text-anchor="start" x="244.5" y="-1287.8" font-family="Times,serif" font-size="14.00">entry:</text>
</g>
<!-- Node0x383b2040 -->
<g id="node2" class="node"><title>Node0x383b2040</title>
<polygon fill="none" stroke="black" points="108.5,-1062.5 108.5,-1235.5 423.5,-1235.5 423.5,-1062.5 108.5,-1062.5"/>
<text text-anchor="start" x="116.5" y="-1220.3" font-family="Times,serif" font-size="14.00">0x344f9b90:</text>
<text text-anchor="start" x="116.5" y="-1205.3" font-family="Times,serif" font-size="14.00"> v1 = g38</text>
<text text-anchor="start" x="116.5" y="-1190.3" font-family="Times,serif" font-size="14.00"> v2 = g39</text>
<text text-anchor="start" x="116.5" y="-1175.3" font-family="Times,serif" font-size="14.00"> v3 = g40</text>
<text text-anchor="start" x="116.5" y="-1160.3" font-family="Times,serif" font-size="14.00"> g38 = 165012</text>
<text text-anchor="start" x="116.5" y="-1145.3" font-family="Times,serif" font-size="14.00"> v4 = *(IntToPtrCastExpr&lt;ptr&gt;(165212))</text>
<text text-anchor="start" x="116.5" y="-1130.3" font-family="Times,serif" font-size="14.00"> g40 = v4</text>
<text text-anchor="start" x="116.5" y="-1115.3" font-family="Times,serif" font-size="14.00"> v5 = g29</text>
<text text-anchor="start" x="116.5" y="-1100.3" font-family="Times,serif" font-size="14.00"> g39 = v5</text>
<text text-anchor="start" x="116.5" y="-1085.3" font-family="Times,serif" font-size="14.00"> g6 = True</text>
<text text-anchor="start" x="116.5" y="-1070.3" font-family="Times,serif" font-size="14.00"> v6 = v5</text>
</g>
<!-- Node0x245ae890&#45;&gt;Node0x383b2040 -->
<g id="edge1" class="edge"><title>Node0x245ae890&#45;&gt;Node0x383b2040</title>
<path fill="none" stroke="black" d="M266,-1273.27C266,-1265.72 266,-1256.21 266,-1245.85"/>
<polygon fill="black" stroke="black" points="269.5,-1245.68 266,-1235.68 262.5,-1245.68 269.5,-1245.68"/>
</g>
<!-- Node0x478f98f0 -->
<g id="node3" class="node"><title>Node0x478f98f0</title>
<polygon fill="none" stroke="black" points="113.5,-986.5 113.5,-1024.5 418.5,-1024.5 418.5,-986.5 113.5,-986.5"/>
<text text-anchor="start" x="121.5" y="-1009.3" font-family="Times,serif" font-size="14.00">0x82e60d0:</text>
<text text-anchor="start" x="121.5" y="-994.3" font-family="Times,serif" font-size="14.00"> if (*(IntToPtrCastExpr&lt;ptr&gt;(v4)) != 0):</text>
</g>
<!-- Node0x383b2040&#45;&gt;Node0x478f98f0 -->
<g id="edge2" class="edge"><title>Node0x383b2040&#45;&gt;Node0x478f98f0</title>
<path fill="none" stroke="black" d="M266,-1062.42C266,-1052.55 266,-1043.08 266,-1034.83"/>
<polygon fill="black" stroke="black" points="269.5,-1034.75 266,-1024.75 262.5,-1034.75 269.5,-1034.75"/>
</g>
<!-- Node0x2847a0b0 -->
<g id="node4" class="node"><title>Node0x2847a0b0</title>
<polygon fill="none" stroke="black" points="90,-851.5 90,-934.5 302,-934.5 302,-851.5 90,-851.5"/>
<text text-anchor="start" x="98" y="-919.3" font-family="Times,serif" font-size="14.00">0x82e5890:</text>
<text text-anchor="start" x="98" y="-904.3" font-family="Times,serif" font-size="14.00"> g30 = 157352</text>
<text text-anchor="start" x="98" y="-889.3" font-family="Times,serif" font-size="14.00"> g36 = v5</text>
<text text-anchor="start" x="98" y="-874.3" font-family="Times,serif" font-size="14.00"> imported_function_ord_0()</text>
<text text-anchor="start" x="98" y="-859.3" font-family="Times,serif" font-size="14.00"> v6 = g39</text>
</g>
<!-- Node0x478f98f0&#45;&gt;Node0x2847a0b0 -->
<g id="edge3" class="edge"><title>Node0x478f98f0&#45;&gt;Node0x2847a0b0</title>
<path fill="none" stroke="black" d="M168.332,-986.438C151.448,-981.374 137.526,-975.233 132,-968 125.724,-959.786 126.049,-951.295 130.191,-943.123"/>
<polygon fill="black" stroke="black" points="133.14,-945.01 135.773,-934.748 127.315,-941.128 133.14,-945.01"/>
<text text-anchor="middle" x="260" y="-956.8" font-family="Times,serif" font-size="14.00">*(IntToPtrCastExpr&lt;ptr&gt;(v4)) != 0</text>
</g>
<!-- Node0x478f9bf0 -->
<g id="node5" class="node"><title>Node0x478f9bf0</title>
<polygon fill="none" stroke="black" points="200,-655.5 200,-813.5 488,-813.5 488,-655.5 200,-655.5"/>
<text text-anchor="start" x="208" y="-798.3" font-family="Times,serif" font-size="14.00">0x82e6270:</text>
<text text-anchor="start" x="208" y="-783.3" font-family="Times,serif" font-size="14.00"> g29 = v6</text>
<text text-anchor="start" x="208" y="-768.3" font-family="Times,serif" font-size="14.00"> function_166ec()</text>
<text text-anchor="start" x="208" y="-753.3" font-family="Times,serif" font-size="14.00"> v7 = *(IntToPtrCastExpr&lt;ptr&gt;(g40))</text>
<text text-anchor="start" x="208" y="-738.3" font-family="Times,serif" font-size="14.00"> g37 = v7</text>
<text text-anchor="start" x="208" y="-723.3" font-family="Times,serif" font-size="14.00"> v8 = g29</text>
<text text-anchor="start" x="208" y="-708.3" font-family="Times,serif" font-size="14.00"> g39 = v8</text>
<text text-anchor="start" x="208" y="-693.3" font-family="Times,serif" font-size="14.00"> g6 = True</text>
<text text-anchor="start" x="208" y="-678.3" font-family="Times,serif" font-size="14.00"> g9 = (v7 == 0)</text>
<text text-anchor="start" x="208" y="-663.3" font-family="Times,serif" font-size="14.00"> v9 = v8</text>
</g>
<!-- Node0x478f98f0&#45;&gt;Node0x478f9bf0 -->
<g id="edge4" class="edge"><title>Node0x478f98f0&#45;&gt;Node0x478f9bf0</title>
<path fill="none" stroke="black" d="M367.32,-986.409C375.278,-981.576 382.388,-975.536 388,-968 418.7,-926.77 408.877,-870.298 390.81,-823.335"/>
<polygon fill="black" stroke="black" points="393.944,-821.747 386.969,-813.772 387.448,-824.356 393.944,-821.747"/>
<text text-anchor="middle" x="538" y="-889.3" font-family="Times,serif" font-size="14.00">*(IntToPtrCastExpr&lt;ptr&gt;(v4)) == 0</text>
</g>
<!-- Node0x2847a0b0&#45;&gt;Node0x478f9bf0 -->
<g id="edge5" class="edge"><title>Node0x2847a0b0&#45;&gt;Node0x478f9bf0</title>
<path fill="none" stroke="black" d="M234.499,-851.29C243.406,-841.871 253.213,-831.501 263.186,-820.955"/>
<polygon fill="black" stroke="black" points="265.78,-823.306 270.108,-813.635 260.694,-818.496 265.78,-823.306"/>
</g>
<!-- Node0x383b3a90 -->
<g id="node6" class="node"><title>Node0x383b3a90</title>
<polygon fill="none" stroke="black" points="292,-579.5 292,-617.5 396,-617.5 396,-579.5 292,-579.5"/>
<text text-anchor="start" x="300" y="-602.3" font-family="Times,serif" font-size="14.00">0x82e88b0:</text>
<text text-anchor="start" x="300" y="-587.3" font-family="Times,serif" font-size="14.00"> if (v7 != 0):</text>
</g>
<!-- Node0x478f9bf0&#45;&gt;Node0x383b3a90 -->
<g id="edge6" class="edge"><title>Node0x478f9bf0&#45;&gt;Node0x383b3a90</title>
<path fill="none" stroke="black" d="M344,-655.164C344,-645.447 344,-636.058 344,-627.846"/>
<polygon fill="black" stroke="black" points="347.5,-627.801 344,-617.801 340.5,-627.801 347.5,-627.801"/>
</g>
<!-- Node0x383adc90 -->
<g id="node7" class="node"><title>Node0x383adc90</title>
<polygon fill="none" stroke="black" points="132,-444.5 132,-527.5 344,-527.5 344,-444.5 132,-444.5"/>
<text text-anchor="start" x="140" y="-512.3" font-family="Times,serif" font-size="14.00">0x82e7f20:</text>
<text text-anchor="start" x="140" y="-497.3" font-family="Times,serif" font-size="14.00"> g30 = (g38 &#45; 7660)</text>
<text text-anchor="start" x="140" y="-482.3" font-family="Times,serif" font-size="14.00"> g36 = v8</text>
<text text-anchor="start" x="140" y="-467.3" font-family="Times,serif" font-size="14.00"> imported_function_ord_0()</text>
<text text-anchor="start" x="140" y="-452.3" font-family="Times,serif" font-size="14.00"> v9 = g39</text>
</g>
<!-- Node0x383b3a90&#45;&gt;Node0x383adc90 -->
<g id="edge7" class="edge"><title>Node0x383b3a90&#45;&gt;Node0x383adc90</title>
<path fill="none" stroke="black" d="M326.496,-579.253C314.975,-567.242 299.311,-550.914 284.363,-535.331"/>
<polygon fill="black" stroke="black" points="286.552,-532.557 277.104,-527.764 281.5,-537.403 286.552,-532.557"/>
<text text-anchor="middle" x="334" y="-549.8" font-family="Times,serif" font-size="14.00">v7 != 0</text>
</g>
<!-- Node0x383b51c0 -->
<g id="node8" class="node"><title>Node0x383b51c0</title>
<polygon fill="none" stroke="black" points="217,-278.5 217,-406.5 459,-406.5 459,-278.5 217,-278.5"/>
<text text-anchor="start" x="225" y="-391.3" font-family="Times,serif" font-size="14.00">0x82e8a50:</text>
<text text-anchor="start" x="225" y="-376.3" font-family="Times,serif" font-size="14.00"> g29 = v9</text>
<text text-anchor="start" x="225" y="-361.3" font-family="Times,serif" font-size="14.00"> g38 = v1</text>
<text text-anchor="start" x="225" y="-346.3" font-family="Times,serif" font-size="14.00"> g39 = v2</text>
<text text-anchor="start" x="225" y="-331.3" font-family="Times,serif" font-size="14.00"> g40 = v3</text>
<text text-anchor="start" x="225" y="-316.3" font-family="Times,serif" font-size="14.00"> v10</text>
<text text-anchor="start" x="225" y="-301.3" font-family="Times,serif" font-size="14.00"> g34 = v10</text>
<text text-anchor="start" x="225" y="-286.3" font-family="Times,serif" font-size="14.00"> IntToPtrCastExpr&lt;ptr&gt;(g35)()</text>
</g>
<!-- Node0x383b3a90&#45;&gt;Node0x383b51c0 -->
<g id="edge8" class="edge"><title>Node0x383b3a90&#45;&gt;Node0x383b51c0</title>
<path fill="none" stroke="black" d="M356.896,-579.38C360.202,-573.755 363.302,-567.357 365,-561 366.721,-554.559 365.39,-552.655 365,-546 362.475,-502.935 356.255,-455.08 350.42,-416.708"/>
<polygon fill="black" stroke="black" points="353.854,-416.007 348.868,-406.658 346.936,-417.075 353.854,-416.007"/>
<text text-anchor="middle" x="394" y="-482.3" font-family="Times,serif" font-size="14.00">v7 == 0</text>
</g>
<!-- Node0x383adc90&#45;&gt;Node0x383b51c0 -->
<g id="edge9" class="edge"><title>Node0x383adc90&#45;&gt;Node0x383b51c0</title>
<path fill="none" stroke="black" d="M266.656,-444.452C273.149,-435.264 280.233,-425.24 287.335,-415.191"/>
<polygon fill="black" stroke="black" points="290.379,-416.948 293.292,-406.762 284.662,-412.908 290.379,-416.948"/>
</g>
<!-- Node0x284769e0 -->
<g id="node9" class="node"><title>Node0x284769e0</title>
<polygon fill="none" stroke="black" points="288.5,-202.5 288.5,-240.5 387.5,-240.5 387.5,-202.5 288.5,-202.5"/>
<text text-anchor="start" x="296.5" y="-225.3" font-family="Times,serif" font-size="14.00">0x82ea9e0:</text>
<text text-anchor="start" x="296.5" y="-210.3" font-family="Times,serif" font-size="14.00"> if g9:</text>
</g>
<!-- Node0x383b51c0&#45;&gt;Node0x284769e0 -->
<g id="edge10" class="edge"><title>Node0x383b51c0&#45;&gt;Node0x284769e0</title>
<path fill="none" stroke="black" d="M338,-278.167C338,-268.596 338,-259.158 338,-250.848"/>
<polygon fill="black" stroke="black" points="341.5,-250.658 338,-240.659 334.5,-250.659 341.5,-250.658"/>
</g>
<!-- Node0x28477380 -->
<g id="node10" class="node"><title>Node0x28477380</title>
<polygon fill="none" stroke="black" points="0,-97.5 0,-150.5 356,-150.5 356,-97.5 0,-97.5"/>
<text text-anchor="start" x="8" y="-135.3" font-family="Times,serif" font-size="14.00">0x82e9f10:</text>
<text text-anchor="start" x="8" y="-120.3" font-family="Times,serif" font-size="14.00"> g36 = (g30 &amp; ((g33 / 268435456) | (16 * g33)))</text>
<text text-anchor="start" x="8" y="-105.3" font-family="Times,serif" font-size="14.00"> g29 = (g29 &amp; (g42 / 2))</text>
</g>
<!-- Node0x284769e0&#45;&gt;Node0x28477380 -->
<g id="edge11" class="edge"><title>Node0x284769e0&#45;&gt;Node0x28477380</title>
<path fill="none" stroke="black" d="M307.529,-202.312C285.549,-189.193 255.345,-171.166 229.633,-155.819"/>
<polygon fill="black" stroke="black" points="231.127,-152.634 220.746,-150.514 227.539,-158.645 231.127,-152.634"/>
<text text-anchor="middle" x="282.5" y="-172.8" font-family="Times,serif" font-size="14.00">g9</text>
</g>
<!-- Node0x2847e240 -->
<g id="node11" class="node"><title>Node0x2847e240</title>
<polygon fill="none" stroke="black" points="305,-23.5 305,-59.5 359,-59.5 359,-23.5 305,-23.5"/>
<text text-anchor="start" x="313" y="-37.8" font-family="Times,serif" font-size="14.00">exit:</text>
</g>
<!-- Node0x284769e0&#45;&gt;Node0x2847e240 -->
<g id="edge12" class="edge"><title>Node0x284769e0&#45;&gt;Node0x2847e240</title>
<path fill="none" stroke="black" d="M347.5,-202.343C358.918,-178.122 375.327,-133.994 365,-97 362.175,-86.8789 356.902,-76.7643 351.387,-68.0452"/>
<polygon fill="black" stroke="black" points="354.135,-65.8601 345.645,-59.5223 348.33,-69.7714 354.135,-65.8601"/>
<text text-anchor="middle" x="397.5" y="-120.3" font-family="Times,serif" font-size="14.00">not (g9)</text>
</g>
<!-- Node0x28477380&#45;&gt;Node0x2847e240 -->
<g id="edge13" class="edge"><title>Node0x28477380&#45;&gt;Node0x2847e240</title>
<path fill="none" stroke="black" d="M227.15,-97.308C249.44,-85.6565 275.328,-72.124 295.803,-61.421"/>
<polygon fill="black" stroke="black" points="297.557,-64.4539 304.798,-56.7195 294.314,-58.2503 297.557,-64.4539"/>
</g>
</g>
</svg>
