<?xml version="1.0" encoding="UTF-8" standalone="no"?>
<!DOCTYPE svg PUBLIC "-//W3C//DTD SVG 1.1//EN"
 "http://www.w3.org/Graphics/SVG/1.1/DTD/svg11.dtd">
<!-- Generated by graphviz version 2.38.0 (20140413.2041)
 -->
<!-- Title: Control&#45;flow graph for function &#39;function_110e0()&#39;. Pages: 1 -->
<svg width="942pt" height="1473pt"
 viewBox="0.00 0.00 942.00 1473.00" xmlns="http://www.w3.org/2000/svg" xmlns:xlink="http://www.w3.org/1999/xlink">
<g id="graph0" class="graph" transform="scale(1 1) rotate(0) translate(4 1469)">
<title>Control&#45;flow graph for function &#39;function_110e0()&#39;.</title>
<polygon fill="white" stroke="none" points="-4,4 -4,-1469 938,-1469 938,4 -4,4"/>
<text text-anchor="middle" x="467" y="-7.8" font-family="Times,serif" font-size="14.00">Control&#45;flow graph for function &#39;function_110e0()&#39;.</text>
<!-- Node0x3783e6f0 -->
<g id="node1" class="node"><title>Node0x3783e6f0</title>
<polygon fill="none" stroke="black" points="182,-1428.5 182,-1464.5 241,-1464.5 241,-1428.5 182,-1428.5"/>
<text text-anchor="start" x="190" y="-1442.8" font-family="Times,serif" font-size="14.00">entry:</text>
</g>
<!-- Node0x38e73e80 -->
<g id="node2" class="node"><title>Node0x38e73e80</title>
<polygon fill="none" stroke="black" points="128,-1097.5 128,-1390.5 295,-1390.5 295,-1097.5 128,-1097.5"/>
<text text-anchor="start" x="136" y="-1375.3" font-family="Times,serif" font-size="14.00">0x1fd62870:</text>
<text text-anchor="start" x="136" y="-1360.3" font-family="Times,serif" font-size="14.00"> v1 = g38</text>
<text text-anchor="start" x="136" y="-1345.3" font-family="Times,serif" font-size="14.00"> v2 = g39</text>
<text text-anchor="start" x="136" y="-1330.3" font-family="Times,serif" font-size="14.00"> v3 = g40</text>
<text text-anchor="start" x="136" y="-1315.3" font-family="Times,serif" font-size="14.00"> v4 = g41</text>
<text text-anchor="start" x="136" y="-1300.3" font-family="Times,serif" font-size="14.00"> v5 = g42</text>
<text text-anchor="start" x="136" y="-1285.3" font-family="Times,serif" font-size="14.00"> v6 = g32</text>
<text text-anchor="start" x="136" y="-1270.3" font-family="Times,serif" font-size="14.00"> v7 = g35</text>
<text text-anchor="start" x="136" y="-1255.3" font-family="Times,serif" font-size="14.00"> g42 = g29</text>
<text text-anchor="start" x="136" y="-1240.3" font-family="Times,serif" font-size="14.00"> g38 = g30</text>
<text text-anchor="start" x="136" y="-1225.3" font-family="Times,serif" font-size="14.00"> v8 = g36</text>
<text text-anchor="start" x="136" y="-1210.3" font-family="Times,serif" font-size="14.00"> g41 = v8</text>
<text text-anchor="start" x="136" y="-1195.3" font-family="Times,serif" font-size="14.00"> v9 = (1 &#45; v8)</text>
<text text-anchor="start" x="136" y="-1180.3" font-family="Times,serif" font-size="14.00"> g8 = ((v9 &amp; v8) &lt; 0)</text>
<text text-anchor="start" x="136" y="-1165.3" font-family="Times,serif" font-size="14.00"> g7 = (v9 &lt; 0)</text>
<text text-anchor="start" x="136" y="-1150.3" font-family="Times,serif" font-size="14.00"> g40 = 2</text>
<text text-anchor="start" x="136" y="-1135.3" font-family="Times,serif" font-size="14.00"> g30 = 2</text>
<text text-anchor="start" x="136" y="-1120.3" font-family="Times,serif" font-size="14.00"> g39 = 2</text>
<text text-anchor="start" x="136" y="-1105.3" font-family="Times,serif" font-size="14.00"> v10</text>
</g>
<!-- Node0x3783e6f0&#45;&gt;Node0x38e73e80 -->
<g id="edge1" class="edge"><title>Node0x3783e6f0&#45;&gt;Node0x38e73e80</title>
<path fill="none" stroke="black" d="M211.5,-1428.41C211.5,-1421.01 211.5,-1411.6 211.5,-1400.97"/>
<polygon fill="black" stroke="black" points="215,-1400.89 211.5,-1390.89 208,-1400.89 215,-1400.89"/>
</g>
<!-- Node0x228280b0 -->
<g id="node3" class="node"><title>Node0x228280b0</title>
<polygon fill="none" stroke="black" points="156.5,-1021.5 156.5,-1059.5 266.5,-1059.5 266.5,-1021.5 156.5,-1021.5"/>
<text text-anchor="start" x="164.5" y="-1044.3" font-family="Times,serif" font-size="14.00">0x7bb10b0:</text>
<text text-anchor="start" x="164.5" y="-1029.3" font-family="Times,serif" font-size="14.00"> if (v8 &lt;= 1):</text>
</g>
<!-- Node0x38e73e80&#45;&gt;Node0x228280b0 -->
<g id="edge2" class="edge"><title>Node0x38e73e80&#45;&gt;Node0x228280b0</title>
<path fill="none" stroke="black" d="M211.5,-1097.36C211.5,-1087.25 211.5,-1077.89 211.5,-1069.85"/>
<polygon fill="black" stroke="black" points="215,-1069.73 211.5,-1059.73 208,-1069.73 215,-1069.73"/>
</g>
<!-- Node0x30d27a80 -->
<g id="node4" class="node"><title>Node0x30d27a80</title>
<polygon fill="none" stroke="black" points="0,-499.5 0,-657.5 233,-657.5 233,-499.5 0,-499.5"/>
<text text-anchor="start" x="8" y="-642.3" font-family="Times,serif" font-size="14.00">0x7bb1250:</text>
<text text-anchor="start" x="8" y="-627.3" font-family="Times,serif" font-size="14.00"> g38 = v1</text>
<text text-anchor="start" x="8" y="-612.3" font-family="Times,serif" font-size="14.00"> g39 = v2</text>
<text text-anchor="start" x="8" y="-597.3" font-family="Times,serif" font-size="14.00"> g40 = v3</text>
<text text-anchor="start" x="8" y="-582.3" font-family="Times,serif" font-size="14.00"> g41 = v4</text>
<text text-anchor="start" x="8" y="-567.3" font-family="Times,serif" font-size="14.00"> g42 = v5</text>
<text text-anchor="start" x="8" y="-552.3" font-family="Times,serif" font-size="14.00"> g32 = v6</text>
<text text-anchor="start" x="8" y="-537.3" font-family="Times,serif" font-size="14.00"> g34 = v10</text>
<text text-anchor="start" x="8" y="-522.3" font-family="Times,serif" font-size="14.00"> IntToPtrCastExpr&lt;ptr&gt;(v7)()</text>
<text text-anchor="start" x="8" y="-507.3" font-family="Times,serif" font-size="14.00"> return</text>
</g>
<!-- Node0x228280b0&#45;&gt;Node0x30d27a80 -->
<g id="edge3" class="edge"><title>Node0x228280b0&#45;&gt;Node0x30d27a80</title>
<path fill="none" stroke="black" d="M201.535,-1021.45C194.372,-1007.73 185.036,-988.171 179.5,-970 148.648,-868.733 132.108,-747.826 123.831,-667.653"/>
<polygon fill="black" stroke="black" points="127.302,-667.192 122.813,-657.595 120.337,-667.896 127.302,-667.192"/>
<text text-anchor="middle" x="222.5" y="-991.8" font-family="Times,serif" font-size="14.00">v8 &lt;= 1</text>
</g>
<!-- Node0x456064b0 -->
<g id="node5" class="node"><title>Node0x456064b0</title>
<polygon fill="none" stroke="black" points="188.5,-676.5 188.5,-969.5 726.5,-969.5 726.5,-676.5 188.5,-676.5"/>
<text text-anchor="start" x="196.5" y="-954.3" font-family="Times,serif" font-size="14.00">0x11bfab30:</text>
<text text-anchor="start" x="196.5" y="-939.3" font-family="Times,serif" font-size="14.00"> function_f234()</text>
<text text-anchor="start" x="196.5" y="-924.3" font-family="Times,serif" font-size="14.00"> v11 = g38</text>
<text text-anchor="start" x="196.5" y="-909.3" font-family="Times,serif" font-size="14.00"> v12 = IntToPtrCastExpr&lt;ptr&gt;(((2 * g29) + v11))</text>
<text text-anchor="start" x="196.5" y="-894.3" font-family="Times,serif" font-size="14.00"> g37 = ExtCastExpr&lt;int32&gt;(*(v12))</text>
<text text-anchor="start" x="196.5" y="-879.3" font-family="Times,serif" font-size="14.00"> v13 = *(IntToPtrCastExpr&lt;ptr&gt;((g39 + v11)))</text>
<text text-anchor="start" x="196.5" y="-864.3" font-family="Times,serif" font-size="14.00"> g36 = v13</text>
<text text-anchor="start" x="196.5" y="-849.3" font-family="Times,serif" font-size="14.00"> *(v12) = v13</text>
<text text-anchor="start" x="196.5" y="-834.3" font-family="Times,serif" font-size="14.00"> *(IntToPtrCastExpr&lt;ptr&gt;((g38 + g39))) = TruncCastExpr&lt;int16&gt;(g37)</text>
<text text-anchor="start" x="196.5" y="-819.3" font-family="Times,serif" font-size="14.00"> v14 = g41</text>
<text text-anchor="start" x="196.5" y="-804.3" font-family="Times,serif" font-size="14.00"> v15 = g40</text>
<text text-anchor="start" x="196.5" y="-789.3" font-family="Times,serif" font-size="14.00"> v16 = (v15 &#45; v14)</text>
<text text-anchor="start" x="196.5" y="-774.3" font-family="Times,serif" font-size="14.00"> g8 = (((v16 ^ v15) &amp; (v14 ^ v15)) &lt; 0)</text>
<text text-anchor="start" x="196.5" y="-759.3" font-family="Times,serif" font-size="14.00"> g7 = (v16 &lt; 0)</text>
<text text-anchor="start" x="196.5" y="-744.3" font-family="Times,serif" font-size="14.00"> v17 = (v15 + 1)</text>
<text text-anchor="start" x="196.5" y="-729.3" font-family="Times,serif" font-size="14.00"> g40 = v17</text>
<text text-anchor="start" x="196.5" y="-714.3" font-family="Times,serif" font-size="14.00"> g29 = g42</text>
<text text-anchor="start" x="196.5" y="-699.3" font-family="Times,serif" font-size="14.00"> g30 = v17</text>
<text text-anchor="start" x="196.5" y="-684.3" font-family="Times,serif" font-size="14.00"> g39 = (g39 + 2)</text>
</g>
<!-- Node0x228280b0&#45;&gt;Node0x456064b0 -->
<g id="edge4" class="edge"><title>Node0x228280b0&#45;&gt;Node0x456064b0</title>
<path fill="none" stroke="black" d="M232.051,-1021.5C245.061,-1010.1 263.261,-994.156 283.739,-976.218"/>
<polygon fill="black" stroke="black" points="286.165,-978.746 291.38,-969.523 281.552,-973.48 286.165,-978.746"/>
<text text-anchor="middle" x="289.5" y="-991.8" font-family="Times,serif" font-size="14.00">v8 &gt; 1</text>
</g>
<!-- Node0x324db2f0 -->
<g id="node6" class="node"><title>Node0x324db2f0</title>
<polygon fill="none" stroke="black" points="270.5,-23.5 270.5,-59.5 324.5,-59.5 324.5,-23.5 270.5,-23.5"/>
<text text-anchor="start" x="278.5" y="-37.8" font-family="Times,serif" font-size="14.00">exit:</text>
</g>
<!-- Node0x30d27a80&#45;&gt;Node0x324db2f0 -->
<g id="edge5" class="edge"><title>Node0x30d27a80&#45;&gt;Node0x324db2f0</title>
<path fill="none" stroke="black" d="M94.7971,-499.189C71.2607,-396.053 47.786,-214.1 135.5,-97 164.445,-58.3582 222.035,-46.8202 260.167,-43.5427"/>
<polygon fill="black" stroke="black" points="260.638,-47.0182 270.366,-42.8216 260.144,-40.0356 260.638,-47.0182"/>
</g>
<!-- Node0x3c8eed80 -->
<g id="node7" class="node"><title>Node0x3c8eed80</title>
<polygon fill="none" stroke="black" points="381.5,-442.5 381.5,-480.5 533.5,-480.5 533.5,-442.5 381.5,-442.5"/>
<text text-anchor="start" x="389.5" y="-465.3" font-family="Times,serif" font-size="14.00">0x7bb0f90:</text>
<text text-anchor="start" x="389.5" y="-450.3" font-family="Times,serif" font-size="14.00"> while (v15 &lt; v14):</text>
</g>
<!-- Node0x456064b0&#45;&gt;Node0x3c8eed80 -->
<g id="edge6" class="edge"><title>Node0x456064b0&#45;&gt;Node0x3c8eed80</title>
<path fill="none" stroke="black" d="M457.5,-676.296C457.5,-607.12 457.5,-530.962 457.5,-490.849"/>
<polygon fill="black" stroke="black" points="461,-490.758 457.5,-480.758 454,-490.758 461,-490.758"/>
</g>
<!-- Node0x467c8680 -->
<g id="node8" class="node"><title>Node0x467c8680</title>
<polygon fill="none" stroke="black" points="144.5,-97.5 144.5,-390.5 682.5,-390.5 682.5,-97.5 144.5,-97.5"/>
<text text-anchor="start" x="152.5" y="-375.3" font-family="Times,serif" font-size="14.00">0x21ea2d80:</text>
<text text-anchor="start" x="152.5" y="-360.3" font-family="Times,serif" font-size="14.00"> function_f234()</text>
<text text-anchor="start" x="152.5" y="-345.3" font-family="Times,serif" font-size="14.00"> v11 = g38</text>
<text text-anchor="start" x="152.5" y="-330.3" font-family="Times,serif" font-size="14.00"> v12 = IntToPtrCastExpr&lt;ptr&gt;(((2 * g29) + v11))</text>
<text text-anchor="start" x="152.5" y="-315.3" font-family="Times,serif" font-size="14.00"> g37 = ExtCastExpr&lt;int32&gt;(*(v12))</text>
<text text-anchor="start" x="152.5" y="-300.3" font-family="Times,serif" font-size="14.00"> v13 = *(IntToPtrCastExpr&lt;ptr&gt;((g39 + v11)))</text>
<text text-anchor="start" x="152.5" y="-285.3" font-family="Times,serif" font-size="14.00"> g36 = v13</text>
<text text-anchor="start" x="152.5" y="-270.3" font-family="Times,serif" font-size="14.00"> *(v12) = v13</text>
<text text-anchor="start" x="152.5" y="-255.3" font-family="Times,serif" font-size="14.00"> *(IntToPtrCastExpr&lt;ptr&gt;((g38 + g39))) = TruncCastExpr&lt;int16&gt;(g37)</text>
<text text-anchor="start" x="152.5" y="-240.3" font-family="Times,serif" font-size="14.00"> v14 = g41</text>
<text text-anchor="start" x="152.5" y="-225.3" font-family="Times,serif" font-size="14.00"> v15 = g40</text>
<text text-anchor="start" x="152.5" y="-210.3" font-family="Times,serif" font-size="14.00"> v16 = (v15 &#45; v14)</text>
<text text-anchor="start" x="152.5" y="-195.3" font-family="Times,serif" font-size="14.00"> g8 = (((v16 ^ v15) &amp; (v14 ^ v15)) &lt; 0)</text>
<text text-anchor="start" x="152.5" y="-180.3" font-family="Times,serif" font-size="14.00"> g7 = (v16 &lt; 0)</text>
<text text-anchor="start" x="152.5" y="-165.3" font-family="Times,serif" font-size="14.00"> v17 = (v15 + 1)</text>
<text text-anchor="start" x="152.5" y="-150.3" font-family="Times,serif" font-size="14.00"> g40 = v17</text>
<text text-anchor="start" x="152.5" y="-135.3" font-family="Times,serif" font-size="14.00"> g29 = g42</text>
<text text-anchor="start" x="152.5" y="-120.3" font-family="Times,serif" font-size="14.00"> g30 = v17</text>
<text text-anchor="start" x="152.5" y="-105.3" font-family="Times,serif" font-size="14.00"> g39 = (g39 + 2)</text>
</g>
<!-- Node0x3c8eed80&#45;&gt;Node0x467c8680 -->
<g id="edge7" class="edge"><title>Node0x3c8eed80&#45;&gt;Node0x467c8680</title>
<path fill="none" stroke="black" d="M389.284,-442.321C381.495,-437.564 374.552,-431.565 369.5,-424 364.635,-416.716 361.314,-408.943 359.261,-400.869"/>
<polygon fill="black" stroke="black" points="362.67,-400.058 357.369,-390.885 355.793,-401.362 362.67,-400.058"/>
<text text-anchor="middle" x="406.5" y="-412.8" font-family="Times,serif" font-size="14.00">v15 &lt; v14</text>
</g>
<!-- Node0x4326a6d0 -->
<g id="node9" class="node"><title>Node0x4326a6d0</title>
<polygon fill="none" stroke="black" points="701,-172.5 701,-315.5 934,-315.5 934,-172.5 701,-172.5"/>
<text text-anchor="start" x="709" y="-300.3" font-family="Times,serif" font-size="14.00">0x7bb0340:</text>
<text text-anchor="start" x="709" y="-285.3" font-family="Times,serif" font-size="14.00"> g38 = v1</text>
<text text-anchor="start" x="709" y="-270.3" font-family="Times,serif" font-size="14.00"> g39 = v2</text>
<text text-anchor="start" x="709" y="-255.3" font-family="Times,serif" font-size="14.00"> g40 = v3</text>
<text text-anchor="start" x="709" y="-240.3" font-family="Times,serif" font-size="14.00"> g41 = v4</text>
<text text-anchor="start" x="709" y="-225.3" font-family="Times,serif" font-size="14.00"> g42 = v5</text>
<text text-anchor="start" x="709" y="-210.3" font-family="Times,serif" font-size="14.00"> g32 = v6</text>
<text text-anchor="start" x="709" y="-195.3" font-family="Times,serif" font-size="14.00"> g34 = v10</text>
<text text-anchor="start" x="709" y="-180.3" font-family="Times,serif" font-size="14.00"> IntToPtrCastExpr&lt;ptr&gt;(v7)()</text>
</g>
<!-- Node0x3c8eed80&#45;&gt;Node0x4326a6d0 -->
<g id="edge8" class="edge"><title>Node0x3c8eed80&#45;&gt;Node0x4326a6d0</title>
<path fill="none" stroke="black" d="M533.514,-449.247C581.697,-439.487 643.717,-421.881 691.5,-391 718.777,-373.372 743.473,-348.14 763.628,-323.599"/>
<polygon fill="black" stroke="black" points="766.469,-325.652 770.01,-315.666 761.015,-321.264 766.469,-325.652"/>
<text text-anchor="middle" x="699.5" y="-412.8" font-family="Times,serif" font-size="14.00">v15 &gt;= v14</text>
</g>
<!-- Node0x467c8680&#45;&gt;Node0x3c8eed80 -->
<g id="edge9" class="edge"><title>Node0x467c8680&#45;&gt;Node0x3c8eed80</title>
<path fill="none" stroke="black" d="M443.262,-390.768C446.475,-406.502 449.434,-420.994 451.812,-432.644"/>
<polygon fill="black" stroke="black" points="448.394,-433.4 453.824,-442.497 455.253,-431.999 448.394,-433.4"/>
</g>
<!-- Node0x4326a6d0&#45;&gt;Node0x324db2f0 -->
<g id="edge10" class="edge"><title>Node0x4326a6d0&#45;&gt;Node0x324db2f0</title>
<path fill="none" stroke="black" d="M773.157,-172.253C751.92,-144.295 724.001,-114.676 691.5,-97 630.282,-63.7053 420.689,-49.0338 334.733,-44.3156"/>
<polygon fill="black" stroke="black" points="334.815,-40.8151 324.643,-43.7766 334.442,-47.8051 334.815,-40.8151"/>
</g>
</g>
</svg>
