<?xml version="1.0" encoding="UTF-8" standalone="no"?>
<!DOCTYPE svg PUBLIC "-//W3C//DTD SVG 1.1//EN"
 "http://www.w3.org/Graphics/SVG/1.1/DTD/svg11.dtd">
<!-- Generated by graphviz version 2.38.0 (20140413.2041)
 -->
<!-- Title: Control&#45;flow graph for function &#39;function_241e6()&#39;. Pages: 1 -->
<svg width="385pt" height="276pt"
 viewBox="0.00 0.00 385.00 276.00" xmlns="http://www.w3.org/2000/svg" xmlns:xlink="http://www.w3.org/1999/xlink">
<g id="graph0" class="graph" transform="scale(1 1) rotate(0) translate(4 272)">
<title>Control&#45;flow graph for function &#39;function_241e6()&#39;.</title>
<polygon fill="white" stroke="none" points="-4,4 -4,-272 381,-272 381,4 -4,4"/>
<text text-anchor="middle" x="188.5" y="-7.8" font-family="Times,serif" font-size="14.00">Control&#45;flow graph for function &#39;function_241e6()&#39;.</text>
<!-- Node0x2752be40 -->
<g id="node1" class="node"><title>Node0x2752be40</title>
<polygon fill="none" stroke="black" points="159,-231.5 159,-267.5 218,-267.5 218,-231.5 159,-231.5"/>
<text text-anchor="start" x="167" y="-245.8" font-family="Times,serif" font-size="14.00">entry:</text>
</g>
<!-- Node0x2752c920 -->
<g id="node2" class="node"><title>Node0x2752c920</title>
<polygon fill="none" stroke="black" points="118.5,-96.5 118.5,-194.5 258.5,-194.5 258.5,-96.5 118.5,-96.5"/>
<text text-anchor="start" x="126.5" y="-179.3" font-family="Times,serif" font-size="14.00">0xa5600f0:</text>
<text text-anchor="start" x="126.5" y="-164.3" font-family="Times,serif" font-size="14.00"> g41 = 24</text>
<text text-anchor="start" x="126.5" y="-149.3" font-family="Times,serif" font-size="14.00"> g30 = 8</text>
<text text-anchor="start" x="126.5" y="-134.3" font-family="Times,serif" font-size="14.00"> g7 = False</text>
<text text-anchor="start" x="126.5" y="-119.3" font-family="Times,serif" font-size="14.00"> g9 = False</text>
<text text-anchor="start" x="126.5" y="-104.3" font-family="Times,serif" font-size="14.00"> function_23f14()</text>
</g>
<!-- Node0x2752be40&#45;&gt;Node0x2752c920 -->
<g id="edge1" class="edge"><title>Node0x2752be40&#45;&gt;Node0x2752c920</title>
<path fill="none" stroke="black" d="M188.5,-231.197C188.5,-223.688 188.5,-214.415 188.5,-204.789"/>
<polygon fill="black" stroke="black" points="192,-204.688 188.5,-194.688 185,-204.688 192,-204.688"/>
</g>
<!-- Node0x2752c2e0 -->
<g id="node3" class="node"><title>Node0x2752c2e0</title>
<polygon fill="none" stroke="black" points="161.5,-23.5 161.5,-59.5 215.5,-59.5 215.5,-23.5 161.5,-23.5"/>
<text text-anchor="start" x="169.5" y="-37.8" font-family="Times,serif" font-size="14.00">exit:</text>
</g>
<!-- Node0x2752c920&#45;&gt;Node0x2752c2e0 -->
<g id="edge2" class="edge"><title>Node0x2752c920&#45;&gt;Node0x2752c2e0</title>
<path fill="none" stroke="black" d="M188.5,-96.4868C188.5,-87.2893 188.5,-77.9618 188.5,-69.7064"/>
<polygon fill="black" stroke="black" points="192,-69.5725 188.5,-59.5725 185,-69.5725 192,-69.5725"/>
</g>
</g>
</svg>
