<?xml version="1.0" encoding="UTF-8" standalone="no"?>
<!DOCTYPE svg PUBLIC "-//W3C//DTD SVG 1.1//EN"
 "http://www.w3.org/Graphics/SVG/1.1/DTD/svg11.dtd">
<!-- Generated by graphviz version 2.38.0 (20140413.2041)
 -->
<!-- Title: Control&#45;flow graph for function &#39;function_14e5c()&#39;. Pages: 1 -->
<svg width="496pt" height="1001pt"
 viewBox="0.00 0.00 496.00 1001.00" xmlns="http://www.w3.org/2000/svg" xmlns:xlink="http://www.w3.org/1999/xlink">
<g id="graph0" class="graph" transform="scale(1 1) rotate(0) translate(4 997)">
<title>Control&#45;flow graph for function &#39;function_14e5c()&#39;.</title>
<polygon fill="white" stroke="none" points="-4,4 -4,-997 492,-997 492,4 -4,4"/>
<text text-anchor="middle" x="244" y="-7.8" font-family="Times,serif" font-size="14.00">Control&#45;flow graph for function &#39;function_14e5c()&#39;.</text>
<!-- Node0x20b4e610 -->
<g id="node1" class="node"><title>Node0x20b4e610</title>
<polygon fill="none" stroke="black" points="314.5,-956.5 314.5,-992.5 373.5,-992.5 373.5,-956.5 314.5,-956.5"/>
<text text-anchor="start" x="322.5" y="-970.8" font-family="Times,serif" font-size="14.00">entry:</text>
</g>
<!-- Node0x245af200 -->
<g id="node2" class="node"><title>Node0x245af200</title>
<polygon fill="none" stroke="black" points="200,-790.5 200,-918.5 488,-918.5 488,-790.5 200,-790.5"/>
<text text-anchor="start" x="208" y="-903.3" font-family="Times,serif" font-size="14.00">0x10d89580:</text>
<text text-anchor="start" x="208" y="-888.3" font-family="Times,serif" font-size="14.00"> v1 = *(IntToPtrCastExpr&lt;ptr&gt;(g40))</text>
<text text-anchor="start" x="208" y="-873.3" font-family="Times,serif" font-size="14.00"> g37 = v1</text>
<text text-anchor="start" x="208" y="-858.3" font-family="Times,serif" font-size="14.00"> v2 = g29</text>
<text text-anchor="start" x="208" y="-843.3" font-family="Times,serif" font-size="14.00"> g39 = v2</text>
<text text-anchor="start" x="208" y="-828.3" font-family="Times,serif" font-size="14.00"> g6 = True</text>
<text text-anchor="start" x="208" y="-813.3" font-family="Times,serif" font-size="14.00"> g9 = (v1 == 0)</text>
<text text-anchor="start" x="208" y="-798.3" font-family="Times,serif" font-size="14.00"> v3 = v2</text>
</g>
<!-- Node0x20b4e610&#45;&gt;Node0x245af200 -->
<g id="edge1" class="edge"><title>Node0x20b4e610&#45;&gt;Node0x245af200</title>
<path fill="none" stroke="black" d="M344,-956.342C344,-948.719 344,-939.177 344,-929.023"/>
<polygon fill="black" stroke="black" points="347.5,-928.713 344,-918.713 340.5,-928.713 347.5,-928.713"/>
</g>
<!-- Node0x245af300 -->
<g id="node3" class="node"><title>Node0x245af300</title>
<polygon fill="none" stroke="black" points="292,-714.5 292,-752.5 396,-752.5 396,-714.5 292,-714.5"/>
<text text-anchor="start" x="300" y="-737.3" font-family="Times,serif" font-size="14.00">0x82653d0:</text>
<text text-anchor="start" x="300" y="-722.3" font-family="Times,serif" font-size="14.00"> if (v1 != 0):</text>
</g>
<!-- Node0x245af200&#45;&gt;Node0x245af300 -->
<g id="edge2" class="edge"><title>Node0x245af200&#45;&gt;Node0x245af300</title>
<path fill="none" stroke="black" d="M344,-790.167C344,-780.596 344,-771.158 344,-762.848"/>
<polygon fill="black" stroke="black" points="347.5,-762.658 344,-752.659 340.5,-762.659 347.5,-762.658"/>
</g>
<!-- Node0x245ac500 -->
<g id="node4" class="node"><title>Node0x245ac500</title>
<polygon fill="none" stroke="black" points="113.5,-534.5 113.5,-662.5 346.5,-662.5 346.5,-534.5 113.5,-534.5"/>
<text text-anchor="start" x="121.5" y="-647.3" font-family="Times,serif" font-size="14.00">0x10d89660:</text>
<text text-anchor="start" x="121.5" y="-632.3" font-family="Times,serif" font-size="14.00"> v4 = g38</text>
<text text-anchor="start" x="121.5" y="-617.3" font-family="Times,serif" font-size="14.00"> g29 = (v4 &#45; 7380)</text>
<text text-anchor="start" x="121.5" y="-602.3" font-family="Times,serif" font-size="14.00"> g30 = (v4 &#45; 7980)</text>
<text text-anchor="start" x="121.5" y="-587.3" font-family="Times,serif" font-size="14.00"> g36 = v2</text>
<text text-anchor="start" x="121.5" y="-572.3" font-family="Times,serif" font-size="14.00"> g35 = 85640</text>
<text text-anchor="start" x="121.5" y="-557.3" font-family="Times,serif" font-size="14.00"> IntToPtrCastExpr&lt;ptr&gt;(v1)()</text>
<text text-anchor="start" x="121.5" y="-542.3" font-family="Times,serif" font-size="14.00"> v3 = g39</text>
</g>
<!-- Node0x245af300&#45;&gt;Node0x245ac500 -->
<g id="edge3" class="edge"><title>Node0x245af300&#45;&gt;Node0x245ac500</title>
<path fill="none" stroke="black" d="M328.388,-714.286C318.431,-702.669 304.818,-686.788 290.895,-670.544"/>
<polygon fill="black" stroke="black" points="293.214,-667.872 284.049,-662.557 287.899,-672.427 293.214,-667.872"/>
<text text-anchor="middle" x="338" y="-684.8" font-family="Times,serif" font-size="14.00">v1 != 0</text>
</g>
<!-- Node0x245aed00 -->
<g id="node5" class="node"><title>Node0x245aed00</title>
<polygon fill="none" stroke="black" points="217,-278.5 217,-496.5 459,-496.5 459,-278.5 217,-278.5"/>
<text text-anchor="start" x="225" y="-481.3" font-family="Times,serif" font-size="14.00">0x8265550:</text>
<text text-anchor="start" x="225" y="-466.3" font-family="Times,serif" font-size="14.00"> g29 = v3</text>
<text text-anchor="start" x="225" y="-451.3" font-family="Times,serif" font-size="14.00"> v5</text>
<text text-anchor="start" x="225" y="-436.3" font-family="Times,serif" font-size="14.00"> g38 = v5</text>
<text text-anchor="start" x="225" y="-421.3" font-family="Times,serif" font-size="14.00"> v6</text>
<text text-anchor="start" x="225" y="-406.3" font-family="Times,serif" font-size="14.00"> g39 = v6</text>
<text text-anchor="start" x="225" y="-391.3" font-family="Times,serif" font-size="14.00"> v7</text>
<text text-anchor="start" x="225" y="-376.3" font-family="Times,serif" font-size="14.00"> g40 = v7</text>
<text text-anchor="start" x="225" y="-361.3" font-family="Times,serif" font-size="14.00"> v8</text>
<text text-anchor="start" x="225" y="-346.3" font-family="Times,serif" font-size="14.00"> g32 = v8</text>
<text text-anchor="start" x="225" y="-331.3" font-family="Times,serif" font-size="14.00"> v9</text>
<text text-anchor="start" x="225" y="-316.3" font-family="Times,serif" font-size="14.00"> g34 = v9</text>
<text text-anchor="start" x="225" y="-301.3" font-family="Times,serif" font-size="14.00"> v10</text>
<text text-anchor="start" x="225" y="-286.3" font-family="Times,serif" font-size="14.00"> IntToPtrCastExpr&lt;ptr&gt;(v10)()</text>
</g>
<!-- Node0x245af300&#45;&gt;Node0x245aed00 -->
<g id="edge4" class="edge"><title>Node0x245af300&#45;&gt;Node0x245aed00</title>
<path fill="none" stroke="black" d="M359.586,-714.316C363.422,-708.787 367.001,-702.457 369,-696 370.972,-689.632 369.316,-687.659 369,-681 366.268,-623.496 359.93,-559.915 353.693,-506.761"/>
<polygon fill="black" stroke="black" points="357.143,-506.136 352.489,-496.618 350.192,-506.961 357.143,-506.136"/>
<text text-anchor="middle" x="398" y="-594.8" font-family="Times,serif" font-size="14.00">v1 == 0</text>
</g>
<!-- Node0x245ac500&#45;&gt;Node0x245aed00 -->
<g id="edge5" class="edge"><title>Node0x245ac500&#45;&gt;Node0x245aed00</title>
<path fill="none" stroke="black" d="M262.697,-534.226C267.402,-525.119 272.365,-515.515 277.406,-505.761"/>
<polygon fill="black" stroke="black" points="280.57,-507.261 282.052,-496.77 274.352,-504.047 280.57,-507.261"/>
</g>
<!-- Node0x245b0410 -->
<g id="node6" class="node"><title>Node0x245b0410</title>
<polygon fill="none" stroke="black" points="287.5,-202.5 287.5,-240.5 388.5,-240.5 388.5,-202.5 287.5,-202.5"/>
<text text-anchor="start" x="295.5" y="-225.3" font-family="Times,serif" font-size="14.00">0x8267170:</text>
<text text-anchor="start" x="295.5" y="-210.3" font-family="Times,serif" font-size="14.00"> if g9:</text>
</g>
<!-- Node0x245aed00&#45;&gt;Node0x245b0410 -->
<g id="edge6" class="edge"><title>Node0x245aed00&#45;&gt;Node0x245b0410</title>
<path fill="none" stroke="black" d="M338,-278.481C338,-268.585 338,-259.254 338,-251.151"/>
<polygon fill="black" stroke="black" points="341.5,-250.925 338,-240.925 334.5,-250.925 341.5,-250.925"/>
</g>
<!-- Node0x245b08b0 -->
<g id="node7" class="node"><title>Node0x245b08b0</title>
<polygon fill="none" stroke="black" points="0,-97.5 0,-150.5 356,-150.5 356,-97.5 0,-97.5"/>
<text text-anchor="start" x="8" y="-135.3" font-family="Times,serif" font-size="14.00">0x8266980:</text>
<text text-anchor="start" x="8" y="-120.3" font-family="Times,serif" font-size="14.00"> g37 = (g30 &amp; ((g42 / 4096) | (1048576 * g42)))</text>
<text text-anchor="start" x="8" y="-105.3" font-family="Times,serif" font-size="14.00"> g29 = (g29 &amp; (g42 / 2))</text>
</g>
<!-- Node0x245b0410&#45;&gt;Node0x245b08b0 -->
<g id="edge7" class="edge"><title>Node0x245b0410&#45;&gt;Node0x245b08b0</title>
<path fill="none" stroke="black" d="M307.529,-202.312C285.549,-189.193 255.345,-171.166 229.633,-155.819"/>
<polygon fill="black" stroke="black" points="231.127,-152.634 220.746,-150.514 227.539,-158.645 231.127,-152.634"/>
<text text-anchor="middle" x="282.5" y="-172.8" font-family="Times,serif" font-size="14.00">g9</text>
</g>
<!-- Node0x245aeb80 -->
<g id="node8" class="node"><title>Node0x245aeb80</title>
<polygon fill="none" stroke="black" points="305,-23.5 305,-59.5 359,-59.5 359,-23.5 305,-23.5"/>
<text text-anchor="start" x="313" y="-37.8" font-family="Times,serif" font-size="14.00">exit:</text>
</g>
<!-- Node0x245b0410&#45;&gt;Node0x245aeb80 -->
<g id="edge8" class="edge"><title>Node0x245b0410&#45;&gt;Node0x245aeb80</title>
<path fill="none" stroke="black" d="M347.5,-202.343C358.918,-178.122 375.327,-133.994 365,-97 362.175,-86.8789 356.902,-76.7643 351.387,-68.0452"/>
<polygon fill="black" stroke="black" points="354.135,-65.8601 345.645,-59.5223 348.33,-69.7714 354.135,-65.8601"/>
<text text-anchor="middle" x="397.5" y="-120.3" font-family="Times,serif" font-size="14.00">not (g9)</text>
</g>
<!-- Node0x245b08b0&#45;&gt;Node0x245aeb80 -->
<g id="edge9" class="edge"><title>Node0x245b08b0&#45;&gt;Node0x245aeb80</title>
<path fill="none" stroke="black" d="M227.15,-97.308C249.44,-85.6565 275.328,-72.124 295.803,-61.421"/>
<polygon fill="black" stroke="black" points="297.557,-64.4539 304.798,-56.7195 294.314,-58.2503 297.557,-64.4539"/>
</g>
</g>
</svg>
