<?xml version="1.0" encoding="UTF-8" standalone="no"?>
<!DOCTYPE svg PUBLIC "-//W3C//DTD SVG 1.1//EN"
 "http://www.w3.org/Graphics/SVG/1.1/DTD/svg11.dtd">
<!-- Generated by graphviz version 2.38.0 (20140413.2041)
 -->
<!-- Title: Control&#45;flow graph for function &#39;function_1bb64()&#39;. Pages: 1 -->
<svg width="402pt" height="610pt"
 viewBox="0.00 0.00 402.00 610.00" xmlns="http://www.w3.org/2000/svg" xmlns:xlink="http://www.w3.org/1999/xlink">
<g id="graph0" class="graph" transform="scale(1 1) rotate(0) translate(4 606)">
<title>Control&#45;flow graph for function &#39;function_1bb64()&#39;.</title>
<polygon fill="white" stroke="none" points="-4,4 -4,-606 398,-606 398,4 -4,4"/>
<text text-anchor="middle" x="197" y="-7.8" font-family="Times,serif" font-size="14.00">Control&#45;flow graph for function &#39;function_1bb64()&#39;.</text>
<!-- Node0x2a3f14e0 -->
<g id="node1" class="node"><title>Node0x2a3f14e0</title>
<polygon fill="none" stroke="black" points="249.5,-565.5 249.5,-601.5 308.5,-601.5 308.5,-565.5 249.5,-565.5"/>
<text text-anchor="start" x="257.5" y="-579.8" font-family="Times,serif" font-size="14.00">entry:</text>
</g>
<!-- Node0x2a3eff60 -->
<g id="node2" class="node"><title>Node0x2a3eff60</title>
<polygon fill="none" stroke="black" points="214,-444.5 214,-527.5 344,-527.5 344,-444.5 214,-444.5"/>
<text text-anchor="start" x="222" y="-512.3" font-family="Times,serif" font-size="14.00">0x23e3f9e0:</text>
<text text-anchor="start" x="222" y="-497.3" font-family="Times,serif" font-size="14.00"> v1 = g38</text>
<text text-anchor="start" x="222" y="-482.3" font-family="Times,serif" font-size="14.00"> v2 = g29</text>
<text text-anchor="start" x="222" y="-467.3" font-family="Times,serif" font-size="14.00"> g9 = (v2 == 0)</text>
<text text-anchor="start" x="222" y="-452.3" font-family="Times,serif" font-size="14.00"> g38 = v2</text>
</g>
<!-- Node0x2a3f14e0&#45;&gt;Node0x2a3eff60 -->
<g id="edge1" class="edge"><title>Node0x2a3f14e0&#45;&gt;Node0x2a3eff60</title>
<path fill="none" stroke="black" d="M279,-565.427C279,-557.622 279,-547.921 279,-538.032"/>
<polygon fill="black" stroke="black" points="282.5,-537.73 279,-527.73 275.5,-537.73 282.5,-537.73"/>
</g>
<!-- Node0x2a3f0580 -->
<g id="node3" class="node"><title>Node0x2a3f0580</title>
<polygon fill="none" stroke="black" points="227,-368.5 227,-406.5 331,-406.5 331,-368.5 227,-368.5"/>
<text text-anchor="start" x="235" y="-391.3" font-family="Times,serif" font-size="14.00">0x9444010:</text>
<text text-anchor="start" x="235" y="-376.3" font-family="Times,serif" font-size="14.00"> if (v2 != 0):</text>
</g>
<!-- Node0x2a3eff60&#45;&gt;Node0x2a3f0580 -->
<g id="edge2" class="edge"><title>Node0x2a3eff60&#45;&gt;Node0x2a3f0580</title>
<path fill="none" stroke="black" d="M279,-444.355C279,-435.083 279,-425.427 279,-416.803"/>
<polygon fill="black" stroke="black" points="282.5,-416.538 279,-406.538 275.5,-416.538 282.5,-416.538"/>
</g>
<!-- Node0x2a3f1100 -->
<g id="node4" class="node"><title>Node0x2a3f1100</title>
<polygon fill="none" stroke="black" points="0,-233.5 0,-316.5 288,-316.5 288,-233.5 0,-233.5"/>
<text text-anchor="start" x="8" y="-301.3" font-family="Times,serif" font-size="14.00">0x94436e0:</text>
<text text-anchor="start" x="8" y="-286.3" font-family="Times,serif" font-size="14.00"> g29 = *(IntToPtrCastExpr&lt;ptr&gt;(v2))</text>
<text text-anchor="start" x="8" y="-271.3" font-family="Times,serif" font-size="14.00"> function_1b664()</text>
<text text-anchor="start" x="8" y="-256.3" font-family="Times,serif" font-size="14.00"> g37 = 0</text>
<text text-anchor="start" x="8" y="-241.3" font-family="Times,serif" font-size="14.00"> *(IntToPtrCastExpr&lt;ptr&gt;(g38)) = 0</text>
</g>
<!-- Node0x2a3f0580&#45;&gt;Node0x2a3f1100 -->
<g id="edge3" class="edge"><title>Node0x2a3f0580&#45;&gt;Node0x2a3f1100</title>
<path fill="none" stroke="black" d="M256.707,-368.253C241.634,-355.916 220.995,-339.022 201.495,-323.061"/>
<polygon fill="black" stroke="black" points="203.473,-320.156 193.517,-316.531 199.039,-325.573 203.473,-320.156"/>
<text text-anchor="middle" x="259" y="-338.8" font-family="Times,serif" font-size="14.00">v2 != 0</text>
</g>
<!-- Node0x36492c00 -->
<g id="node5" class="node"><title>Node0x36492c00</title>
<polygon fill="none" stroke="black" points="152,-97.5 152,-195.5 394,-195.5 394,-97.5 152,-97.5"/>
<text text-anchor="start" x="160" y="-180.3" font-family="Times,serif" font-size="14.00">0x9444150:</text>
<text text-anchor="start" x="160" y="-165.3" font-family="Times,serif" font-size="14.00"> g29 = 0</text>
<text text-anchor="start" x="160" y="-150.3" font-family="Times,serif" font-size="14.00"> g38 = v1</text>
<text text-anchor="start" x="160" y="-135.3" font-family="Times,serif" font-size="14.00"> v3</text>
<text text-anchor="start" x="160" y="-120.3" font-family="Times,serif" font-size="14.00"> g34 = v3</text>
<text text-anchor="start" x="160" y="-105.3" font-family="Times,serif" font-size="14.00"> IntToPtrCastExpr&lt;ptr&gt;(g35)()</text>
</g>
<!-- Node0x2a3f0580&#45;&gt;Node0x36492c00 -->
<g id="edge4" class="edge"><title>Node0x2a3f0580&#45;&gt;Node0x36492c00</title>
<path fill="none" stroke="black" d="M285.246,-368.482C289.666,-354.609 295.128,-334.85 297,-317 300.895,-279.87 302.092,-269.984 297,-233 295.764,-224.027 293.832,-214.669 291.588,-205.576"/>
<polygon fill="black" stroke="black" points="294.96,-204.636 289.048,-195.844 288.186,-206.404 294.96,-204.636"/>
<text text-anchor="middle" x="330" y="-271.3" font-family="Times,serif" font-size="14.00">v2 == 0</text>
</g>
<!-- Node0x2a3f1100&#45;&gt;Node0x36492c00 -->
<g id="edge5" class="edge"><title>Node0x2a3f1100&#45;&gt;Node0x36492c00</title>
<path fill="none" stroke="black" d="M185.526,-233.278C195.461,-223.537 206.231,-212.975 216.708,-202.701"/>
<polygon fill="black" stroke="black" points="219.211,-205.149 223.9,-195.648 214.31,-200.151 219.211,-205.149"/>
</g>
<!-- Node0x2a3f0040 -->
<g id="node6" class="node"><title>Node0x2a3f0040</title>
<polygon fill="none" stroke="black" points="246,-23.5 246,-59.5 300,-59.5 300,-23.5 246,-23.5"/>
<text text-anchor="start" x="254" y="-37.8" font-family="Times,serif" font-size="14.00">exit:</text>
</g>
<!-- Node0x36492c00&#45;&gt;Node0x2a3f0040 -->
<g id="edge6" class="edge"><title>Node0x36492c00&#45;&gt;Node0x2a3f0040</title>
<path fill="none" stroke="black" d="M273,-97.3173C273,-87.893 273,-78.32 273,-69.8676"/>
<polygon fill="black" stroke="black" points="276.5,-69.856 273,-59.8561 269.5,-69.8561 276.5,-69.856"/>
</g>
</g>
</svg>
