<?xml version="1.0" encoding="UTF-8" standalone="no"?>
<!DOCTYPE svg PUBLIC "-//W3C//DTD SVG 1.1//EN"
 "http://www.w3.org/Graphics/SVG/1.1/DTD/svg11.dtd">
<!-- Generated by graphviz version 2.38.0 (20140413.2041)
 -->
<!-- Title: Control&#45;flow graph for function &#39;function_31a0()&#39;. Pages: 1 -->
<svg width="757pt" height="1797pt"
 viewBox="0.00 0.00 757.00 1797.00" xmlns="http://www.w3.org/2000/svg" xmlns:xlink="http://www.w3.org/1999/xlink">
<g id="graph0" class="graph" transform="scale(1 1) rotate(0) translate(4 1793)">
<title>Control&#45;flow graph for function &#39;function_31a0()&#39;.</title>
<polygon fill="white" stroke="none" points="-4,4 -4,-1793 753,-1793 753,4 -4,4"/>
<text text-anchor="middle" x="374.5" y="-7.8" font-family="Times,serif" font-size="14.00">Control&#45;flow graph for function &#39;function_31a0()&#39;.</text>
<!-- Node0x15438820 -->
<g id="node1" class="node"><title>Node0x15438820</title>
<polygon fill="none" stroke="black" points="454,-1752.5 454,-1788.5 513,-1788.5 513,-1752.5 454,-1752.5"/>
<text text-anchor="start" x="462" y="-1766.8" font-family="Times,serif" font-size="14.00">entry:</text>
</g>
<!-- Node0x1543b3f0 -->
<g id="node2" class="node"><title>Node0x1543b3f0</title>
<polygon fill="none" stroke="black" points="218,-1241.5 218,-1714.5 749,-1714.5 749,-1241.5 218,-1241.5"/>
<text text-anchor="start" x="226" y="-1699.3" font-family="Times,serif" font-size="14.00">0x101ecd80:</text>
<text text-anchor="start" x="226" y="-1684.3" font-family="Times,serif" font-size="14.00"> v1 = g38</text>
<text text-anchor="start" x="226" y="-1669.3" font-family="Times,serif" font-size="14.00"> v2 = g40</text>
<text text-anchor="start" x="226" y="-1654.3" font-family="Times,serif" font-size="14.00"> v3 = g41</text>
<text text-anchor="start" x="226" y="-1639.3" font-family="Times,serif" font-size="14.00"> v4 = g42</text>
<text text-anchor="start" x="226" y="-1624.3" font-family="Times,serif" font-size="14.00"> v5 = g36</text>
<text text-anchor="start" x="226" y="-1609.3" font-family="Times,serif" font-size="14.00"> v6 = g37</text>
<text text-anchor="start" x="226" y="-1594.3" font-family="Times,serif" font-size="14.00"> g40 = ((268435456 * v6) | (v5 / 16))</text>
<text text-anchor="start" x="226" y="-1579.3" font-family="Times,serif" font-size="14.00"> g41 = (v6 / 16)</text>
<text text-anchor="start" x="226" y="-1564.3" font-family="Times,serif" font-size="14.00"> v7 = g29</text>
<text text-anchor="start" x="226" y="-1549.3" font-family="Times,serif" font-size="14.00"> g42 = v7</text>
<text text-anchor="start" x="226" y="-1534.3" font-family="Times,serif" font-size="14.00"> g38 = &#45;((v5 % 16))</text>
<text text-anchor="start" x="226" y="-1519.3" font-family="Times,serif" font-size="14.00"> memcpy(IntToPtrCastExpr&lt;ptr&gt;(v7), IntToPtrCastExpr&lt;ptr&gt;(g30), 0)</text>
<text text-anchor="start" x="226" y="-1504.3" font-family="Times,serif" font-size="14.00"> v8 = g41</text>
<text text-anchor="start" x="226" y="-1489.3" font-family="Times,serif" font-size="14.00"> v9 = g40</text>
<text text-anchor="start" x="226" y="-1474.3" font-family="Times,serif" font-size="14.00"> v10 = (v9 | v8)</text>
<text text-anchor="start" x="226" y="-1459.3" font-family="Times,serif" font-size="14.00"> g9 = (v10 == 0)</text>
<text text-anchor="start" x="226" y="-1444.3" font-family="Times,serif" font-size="14.00"> g30 = v10</text>
<text text-anchor="start" x="226" y="-1429.3" font-family="Times,serif" font-size="14.00"> *(IntToPtrCastExpr&lt;ptr&gt;((g42 + 32))) = g38</text>
<text text-anchor="start" x="226" y="-1414.3" font-family="Times,serif" font-size="14.00"> g38 = v1</text>
<text text-anchor="start" x="226" y="-1399.3" font-family="Times,serif" font-size="14.00"> g40 = v2</text>
<text text-anchor="start" x="226" y="-1384.3" font-family="Times,serif" font-size="14.00"> g41 = v3</text>
<text text-anchor="start" x="226" y="-1369.3" font-family="Times,serif" font-size="14.00"> g42 = v4</text>
<text text-anchor="start" x="226" y="-1354.3" font-family="Times,serif" font-size="14.00"> v11</text>
<text text-anchor="start" x="226" y="-1339.3" font-family="Times,serif" font-size="14.00"> g34 = v11</text>
<text text-anchor="start" x="226" y="-1324.3" font-family="Times,serif" font-size="14.00"> IntToPtrCastExpr&lt;ptr&gt;(ExtCastExpr&lt;int32&gt;((v9 == v8)))()</text>
<text text-anchor="start" x="226" y="-1309.3" font-family="Times,serif" font-size="14.00"> g33 = 15</text>
<text text-anchor="start" x="226" y="-1294.3" font-family="Times,serif" font-size="14.00"> g39 = 0</text>
<text text-anchor="start" x="226" y="-1279.3" font-family="Times,serif" font-size="14.00"> g38 = 1</text>
<text text-anchor="start" x="226" y="-1264.3" font-family="Times,serif" font-size="14.00"> v12 = 0</text>
<text text-anchor="start" x="226" y="-1249.3" font-family="Times,serif" font-size="14.00"> v13 = 15</text>
</g>
<!-- Node0x15438820&#45;&gt;Node0x1543b3f0 -->
<g id="edge1" class="edge"><title>Node0x15438820&#45;&gt;Node0x1543b3f0</title>
<path fill="none" stroke="black" d="M483.5,-1752.2C483.5,-1744.9 483.5,-1735.59 483.5,-1724.84"/>
<polygon fill="black" stroke="black" points="487,-1724.57 483.5,-1714.57 480,-1724.57 487,-1724.57"/>
</g>
<!-- Node0x474803f0 -->
<g id="node3" class="node"><title>Node0x474803f0</title>
<polygon fill="none" stroke="black" points="433,-1165.5 433,-1203.5 534,-1203.5 534,-1165.5 433,-1165.5"/>
<text text-anchor="start" x="441" y="-1188.3" font-family="Times,serif" font-size="14.00">0x4fbea80:</text>
<text text-anchor="start" x="441" y="-1173.3" font-family="Times,serif" font-size="14.00"> while True:</text>
</g>
<!-- Node0x1543b3f0&#45;&gt;Node0x474803f0 -->
<g id="edge2" class="edge"><title>Node0x1543b3f0&#45;&gt;Node0x474803f0</title>
<path fill="none" stroke="black" d="M483.5,-1241.36C483.5,-1231.21 483.5,-1222.01 483.5,-1214.14"/>
<polygon fill="black" stroke="black" points="487,-1213.95 483.5,-1203.95 480,-1213.95 487,-1213.95"/>
</g>
<!-- Node0x29536a10 -->
<g id="node4" class="node"><title>Node0x29536a10</title>
<polygon fill="none" stroke="black" points="79.5,-880.5 79.5,-1113.5 531.5,-1113.5 531.5,-880.5 79.5,-880.5"/>
<text text-anchor="start" x="87.5" y="-1098.3" font-family="Times,serif" font-size="14.00">0x119040c0:</text>
<text text-anchor="start" x="87.5" y="-1083.3" font-family="Times,serif" font-size="14.00"> v14 = IntToPtrCastExpr&lt;ptr&gt;((g42 + v13))</text>
<text text-anchor="start" x="87.5" y="-1068.3" font-family="Times,serif" font-size="14.00"> v15 = g40</text>
<text text-anchor="start" x="87.5" y="-1053.3" font-family="Times,serif" font-size="14.00"> v16 = ((ExtCastExpr&lt;int32&gt;(*(v14)) + v12) + (v15 % 256))</text>
<text text-anchor="start" x="87.5" y="-1038.3" font-family="Times,serif" font-size="14.00"> v17 = g41</text>
<text text-anchor="start" x="87.5" y="-1023.3" font-family="Times,serif" font-size="14.00"> v18 = (v17 / 256)</text>
<text text-anchor="start" x="87.5" y="-1008.3" font-family="Times,serif" font-size="14.00"> v19 = ((16777216 * v17) | (v15 / 256))</text>
<text text-anchor="start" x="87.5" y="-993.3" font-family="Times,serif" font-size="14.00"> g29 = v19</text>
<text text-anchor="start" x="87.5" y="-978.3" font-family="Times,serif" font-size="14.00"> g35 = (v16 / 256)</text>
<text text-anchor="start" x="87.5" y="-963.3" font-family="Times,serif" font-size="14.00"> g36 = (v16 &lt; 256)</text>
<text text-anchor="start" x="87.5" y="-948.3" font-family="Times,serif" font-size="14.00"> g6 = False</text>
<text text-anchor="start" x="87.5" y="-933.3" font-family="Times,serif" font-size="14.00"> g30 = (v19 | v18)</text>
<text text-anchor="start" x="87.5" y="-918.3" font-family="Times,serif" font-size="14.00"> *(v14) = TruncCastExpr&lt;int8&gt;(v16)</text>
<text text-anchor="start" x="87.5" y="-903.3" font-family="Times,serif" font-size="14.00"> v20 = g39</text>
<text text-anchor="start" x="87.5" y="-888.3" font-family="Times,serif" font-size="14.00"> g37 = v20</text>
</g>
<!-- Node0x474803f0&#45;&gt;Node0x29536a10 -->
<g id="edge3" class="edge"><title>Node0x474803f0&#45;&gt;Node0x29536a10</title>
<path fill="none" stroke="black" d="M466.109,-1165.38C455.239,-1154.05 440.187,-1138.36 423.622,-1121.1"/>
<polygon fill="black" stroke="black" points="425.887,-1118.4 416.438,-1113.61 420.836,-1123.25 425.887,-1118.4"/>
<text text-anchor="middle" x="462.5" y="-1135.8" font-family="Times,serif" font-size="14.00">True</text>
</g>
<!-- Node0x3a73d9d0 -->
<g id="node5" class="node"><title>Node0x3a73d9d0</title>
<polygon fill="none" stroke="black" points="237.5,-804.5 237.5,-842.5 373.5,-842.5 373.5,-804.5 237.5,-804.5"/>
<text text-anchor="start" x="245.5" y="-827.3" font-family="Times,serif" font-size="14.00">0x4fb5900:</text>
<text text-anchor="start" x="245.5" y="-812.3" font-family="Times,serif" font-size="14.00"> if (v19 == v18):</text>
</g>
<!-- Node0x29536a10&#45;&gt;Node0x3a73d9d0 -->
<g id="edge4" class="edge"><title>Node0x29536a10&#45;&gt;Node0x3a73d9d0</title>
<path fill="none" stroke="black" d="M305.5,-880.181C305.5,-870.254 305.5,-860.942 305.5,-852.881"/>
<polygon fill="black" stroke="black" points="309,-852.722 305.5,-842.722 302,-852.722 309,-852.722"/>
</g>
<!-- Node0x3a73f4f0 -->
<g id="node6" class="node"><title>Node0x3a73f4f0</title>
<polygon fill="none" stroke="black" points="208.5,-684.5 208.5,-752.5 318.5,-752.5 318.5,-684.5 208.5,-684.5"/>
<text text-anchor="start" x="216.5" y="-737.3" font-family="Times,serif" font-size="14.00">0x2534b730:</text>
<text text-anchor="start" x="216.5" y="-722.3" font-family="Times,serif" font-size="14.00"> v21 = g38</text>
<text text-anchor="start" x="216.5" y="-707.3" font-family="Times,serif" font-size="14.00"> g37 = v21</text>
<text text-anchor="start" x="216.5" y="-692.3" font-family="Times,serif" font-size="14.00"> v20 = v21</text>
</g>
<!-- Node0x3a73d9d0&#45;&gt;Node0x3a73f4f0 -->
<g id="edge5" class="edge"><title>Node0x3a73d9d0&#45;&gt;Node0x3a73f4f0</title>
<path fill="none" stroke="black" d="M274.726,-804.486C268.581,-799.346 262.959,-793.16 259.5,-786 256.033,-778.824 254.723,-770.693 254.658,-762.641"/>
<polygon fill="black" stroke="black" points="258.159,-762.728 255.175,-752.562 251.168,-762.37 258.159,-762.728"/>
<text text-anchor="middle" x="302.5" y="-774.8" font-family="Times,serif" font-size="14.00">v19 == v18</text>
</g>
<!-- Node0x3a73dc70 -->
<g id="node7" class="node"><title>Node0x3a73dc70</title>
<polygon fill="none" stroke="black" points="64.5,-398.5 64.5,-646.5 516.5,-646.5 516.5,-398.5 64.5,-398.5"/>
<text text-anchor="start" x="72.5" y="-631.3" font-family="Times,serif" font-size="14.00">0x1cc7e800:</text>
<text text-anchor="start" x="72.5" y="-616.3" font-family="Times,serif" font-size="14.00"> v22 = g36</text>
<text text-anchor="start" x="72.5" y="-601.3" font-family="Times,serif" font-size="14.00"> g9 = ((v22 &amp; v20) == 0)</text>
<text text-anchor="start" x="72.5" y="-586.3" font-family="Times,serif" font-size="14.00"> g33 = (g33 &#45; 1)</text>
<text text-anchor="start" x="72.5" y="-571.3" font-family="Times,serif" font-size="14.00"> v23 = g34</text>
<text text-anchor="start" x="72.5" y="-556.3" font-family="Times,serif" font-size="14.00"> g38 = *(IntToPtrCastExpr&lt;ptr&gt;((v23 + 4)))</text>
<text text-anchor="start" x="72.5" y="-541.3" font-family="Times,serif" font-size="14.00"> g39 = *(IntToPtrCastExpr&lt;ptr&gt;((v23 + 8)))</text>
<text text-anchor="start" x="72.5" y="-526.3" font-family="Times,serif" font-size="14.00"> g40 = *(IntToPtrCastExpr&lt;ptr&gt;((v23 + 12)))</text>
<text text-anchor="start" x="72.5" y="-511.3" font-family="Times,serif" font-size="14.00"> g41 = *(IntToPtrCastExpr&lt;ptr&gt;((v23 + 16)))</text>
<text text-anchor="start" x="72.5" y="-496.3" font-family="Times,serif" font-size="14.00"> g42 = *(IntToPtrCastExpr&lt;ptr&gt;((v23 + 20)))</text>
<text text-anchor="start" x="72.5" y="-481.3" font-family="Times,serif" font-size="14.00"> g32 = *(IntToPtrCastExpr&lt;ptr&gt;((v23 + 24)))</text>
<text text-anchor="start" x="72.5" y="-466.3" font-family="Times,serif" font-size="14.00"> g34 = *(IntToPtrCastExpr&lt;ptr&gt;((v23 + 28)))</text>
<text text-anchor="start" x="72.5" y="-451.3" font-family="Times,serif" font-size="14.00"> IntToPtrCastExpr&lt;ptr&gt;(ExtCastExpr&lt;int32&gt;((v22 != 0)))()</text>
<text text-anchor="start" x="72.5" y="-436.3" font-family="Times,serif" font-size="14.00"> v24 = g33</text>
<text text-anchor="start" x="72.5" y="-421.3" font-family="Times,serif" font-size="14.00"> g6 = (v24 == &#45;1)</text>
<text text-anchor="start" x="72.5" y="-406.3" font-family="Times,serif" font-size="14.00"> g9 = (v24 == &#45;1)</text>
</g>
<!-- Node0x3a73d9d0&#45;&gt;Node0x3a73dc70 -->
<g id="edge6" class="edge"><title>Node0x3a73d9d0&#45;&gt;Node0x3a73dc70</title>
<path fill="none" stroke="black" d="M331.917,-804.222C337.419,-799.026 342.464,-792.881 345.5,-786 348.191,-779.901 346.179,-777.632 345.5,-771 341.653,-733.417 334.203,-693.214 325.998,-656.372"/>
<polygon fill="black" stroke="black" points="329.404,-655.561 323.783,-646.58 322.576,-657.106 329.404,-655.561"/>
<text text-anchor="middle" x="383.5" y="-714.8" font-family="Times,serif" font-size="14.00">v19 != v18</text>
</g>
<!-- Node0x3a73f4f0&#45;&gt;Node0x3a73dc70 -->
<g id="edge7" class="edge"><title>Node0x3a73f4f0&#45;&gt;Node0x3a73dc70</title>
<path fill="none" stroke="black" d="M268.141,-684.15C269.284,-675.944 270.577,-666.649 271.952,-656.768"/>
<polygon fill="black" stroke="black" points="275.44,-657.097 273.352,-646.71 268.507,-656.132 275.44,-657.097"/>
</g>
<!-- Node0x3a73ec30 -->
<g id="node8" class="node"><title>Node0x3a73ec30</title>
<polygon fill="none" stroke="black" points="229,-322.5 229,-360.5 352,-360.5 352,-322.5 229,-322.5"/>
<text text-anchor="start" x="237" y="-345.3" font-family="Times,serif" font-size="14.00">0x4fbdf60:</text>
<text text-anchor="start" x="237" y="-330.3" font-family="Times,serif" font-size="14.00"> if (v24 == &#45;1):</text>
</g>
<!-- Node0x3a73dc70&#45;&gt;Node0x3a73ec30 -->
<g id="edge8" class="edge"><title>Node0x3a73dc70&#45;&gt;Node0x3a73ec30</title>
<path fill="none" stroke="black" d="M290.5,-398.156C290.5,-388.164 290.5,-378.832 290.5,-370.772"/>
<polygon fill="black" stroke="black" points="294,-370.628 290.5,-360.628 287,-370.628 294,-370.628"/>
</g>
<!-- Node0x3a73fa30 -->
<g id="node9" class="node"><title>Node0x3a73fa30</title>
<polygon fill="none" stroke="black" points="0,-97.5 0,-270.5 493,-270.5 493,-97.5 0,-97.5"/>
<text text-anchor="start" x="8" y="-255.3" font-family="Times,serif" font-size="14.00">0x1b9efa70:</text>
<text text-anchor="start" x="8" y="-240.3" font-family="Times,serif" font-size="14.00"> v25 = g34</text>
<text text-anchor="start" x="8" y="-225.3" font-family="Times,serif" font-size="14.00"> g38 = *(IntToPtrCastExpr&lt;ptr&gt;((v25 + 4)))</text>
<text text-anchor="start" x="8" y="-210.3" font-family="Times,serif" font-size="14.00"> g39 = *(IntToPtrCastExpr&lt;ptr&gt;((v25 + 8)))</text>
<text text-anchor="start" x="8" y="-195.3" font-family="Times,serif" font-size="14.00"> g40 = *(IntToPtrCastExpr&lt;ptr&gt;((v25 + 12)))</text>
<text text-anchor="start" x="8" y="-180.3" font-family="Times,serif" font-size="14.00"> g41 = *(IntToPtrCastExpr&lt;ptr&gt;((v25 + 16)))</text>
<text text-anchor="start" x="8" y="-165.3" font-family="Times,serif" font-size="14.00"> g42 = *(IntToPtrCastExpr&lt;ptr&gt;((v25 + 20)))</text>
<text text-anchor="start" x="8" y="-150.3" font-family="Times,serif" font-size="14.00"> g32 = *(IntToPtrCastExpr&lt;ptr&gt;((v25 + 24)))</text>
<text text-anchor="start" x="8" y="-135.3" font-family="Times,serif" font-size="14.00"> g34 = *(IntToPtrCastExpr&lt;ptr&gt;((v25 + 28)))</text>
<text text-anchor="start" x="8" y="-120.3" font-family="Times,serif" font-size="14.00"> IntToPtrCastExpr&lt;ptr&gt;(*(IntToPtrCastExpr&lt;ptr&gt;((v25 + 32))))()</text>
<text text-anchor="start" x="8" y="-105.3" font-family="Times,serif" font-size="14.00"> return</text>
</g>
<!-- Node0x3a73ec30&#45;&gt;Node0x3a73fa30 -->
<g id="edge9" class="edge"><title>Node0x3a73ec30&#45;&gt;Node0x3a73fa30</title>
<path fill="none" stroke="black" d="M285.367,-322.358C282.269,-311.411 278.057,-296.524 273.545,-280.579"/>
<polygon fill="black" stroke="black" points="276.795,-279.21 270.704,-270.541 270.059,-281.116 276.795,-279.21"/>
<text text-anchor="middle" x="317" y="-292.8" font-family="Times,serif" font-size="14.00">v24 == &#45;1</text>
</g>
<!-- Node0x3a73eed0 -->
<g id="node10" class="node"><title>Node0x3a73eed0</title>
<polygon fill="none" stroke="black" points="511,-157.5 511,-210.5 608,-210.5 608,-157.5 511,-157.5"/>
<text text-anchor="start" x="519" y="-195.3" font-family="Times,serif" font-size="14.00">0x4fbe320:</text>
<text text-anchor="start" x="519" y="-180.3" font-family="Times,serif" font-size="14.00"> v12 = g35</text>
<text text-anchor="start" x="519" y="-165.3" font-family="Times,serif" font-size="14.00"> v13 = v24</text>
</g>
<!-- Node0x3a73ec30&#45;&gt;Node0x3a73eed0 -->
<g id="edge10" class="edge"><title>Node0x3a73ec30&#45;&gt;Node0x3a73eed0</title>
<path fill="none" stroke="black" d="M352.306,-331.187C397.262,-321.943 457.675,-304.165 501.5,-271 519.231,-257.581 533.351,-237.1 543.219,-219.491"/>
<polygon fill="black" stroke="black" points="546.347,-221.063 547.987,-210.596 540.177,-217.756 546.347,-221.063"/>
<text text-anchor="middle" x="504" y="-292.8" font-family="Times,serif" font-size="14.00">v24 != &#45;1</text>
</g>
<!-- Node0x47482230 -->
<g id="node11" class="node"><title>Node0x47482230</title>
<polygon fill="none" stroke="black" points="219.5,-23.5 219.5,-59.5 273.5,-59.5 273.5,-23.5 219.5,-23.5"/>
<text text-anchor="start" x="227.5" y="-37.8" font-family="Times,serif" font-size="14.00">exit:</text>
</g>
<!-- Node0x3a73fa30&#45;&gt;Node0x47482230 -->
<g id="edge11" class="edge"><title>Node0x3a73fa30&#45;&gt;Node0x47482230</title>
<path fill="none" stroke="black" d="M246.5,-97.2233C246.5,-87.4821 246.5,-78.1602 246.5,-70.0586"/>
<polygon fill="black" stroke="black" points="250,-69.8425 246.5,-59.8425 243,-69.8426 250,-69.8425"/>
</g>
<!-- Node0x3a73eed0&#45;&gt;Node0x474803f0 -->
<g id="edge12" class="edge"><title>Node0x3a73eed0&#45;&gt;Node0x474803f0</title>
<path fill="none" stroke="black" d="M559.5,-210.59C559.5,-241.407 559.5,-294.741 559.5,-340.5 559.5,-998 559.5,-998 559.5,-998 559.5,-1050.24 562.023,-1066.4 540.5,-1114 533.222,-1130.1 521.235,-1145.55 510.127,-1157.78"/>
<polygon fill="black" stroke="black" points="507.326,-1155.64 503.012,-1165.32 512.419,-1160.45 507.326,-1155.64"/>
</g>
</g>
</svg>
