<?xml version="1.0" encoding="UTF-8" standalone="no"?>
<!DOCTYPE svg PUBLIC "-//W3C//DTD SVG 1.1//EN"
 "http://www.w3.org/Graphics/SVG/1.1/DTD/svg11.dtd">
<!-- Generated by graphviz version 2.38.0 (20140413.2041)
 -->
<!-- Title: Control&#45;flow graph for function &#39;function_8f60()&#39;. Pages: 1 -->
<svg width="373pt" height="987pt"
 viewBox="0.00 0.00 373.00 987.00" xmlns="http://www.w3.org/2000/svg" xmlns:xlink="http://www.w3.org/1999/xlink">
<g id="graph0" class="graph" transform="scale(1 1) rotate(0) translate(4 983)">
<title>Control&#45;flow graph for function &#39;function_8f60()&#39;.</title>
<polygon fill="white" stroke="none" points="-4,4 -4,-983 369,-983 369,4 -4,4"/>
<text text-anchor="middle" x="182.5" y="-7.8" font-family="Times,serif" font-size="14.00">Control&#45;flow graph for function &#39;function_8f60()&#39;.</text>
<!-- Node0x17442080 -->
<g id="node1" class="node"><title>Node0x17442080</title>
<polygon fill="none" stroke="black" points="164.75,-942.5 164.75,-978.5 223.75,-978.5 223.75,-942.5 164.75,-942.5"/>
<text text-anchor="start" x="172.75" y="-956.8" font-family="Times,serif" font-size="14.00">entry:</text>
</g>
<!-- Node0x21fcc180 -->
<g id="node2" class="node"><title>Node0x21fcc180</title>
<polygon fill="none" stroke="black" points="25.75,-791.5 25.75,-904.5 362.75,-904.5 362.75,-791.5 25.75,-791.5"/>
<text text-anchor="start" x="33.75" y="-889.3" font-family="Times,serif" font-size="14.00">0x434e5ae0:</text>
<text text-anchor="start" x="33.75" y="-874.3" font-family="Times,serif" font-size="14.00"> v1 = g29</text>
<text text-anchor="start" x="33.75" y="-859.3" font-family="Times,serif" font-size="14.00"> v2 = *(IntToPtrCastExpr&lt;ptr&gt;((v1 + 328)))</text>
<text text-anchor="start" x="33.75" y="-844.3" font-family="Times,serif" font-size="14.00"> v3 = *(IntToPtrCastExpr&lt;ptr&gt;((v1 + 24)))</text>
<text text-anchor="start" x="33.75" y="-829.3" font-family="Times,serif" font-size="14.00"> g8 = False</text>
<text text-anchor="start" x="33.75" y="-814.3" font-family="Times,serif" font-size="14.00"> g7 = (v2 &lt; 0)</text>
<text text-anchor="start" x="33.75" y="-799.3" font-family="Times,serif" font-size="14.00"> v4 = v2</text>
</g>
<!-- Node0x17442080&#45;&gt;Node0x21fcc180 -->
<g id="edge1" class="edge"><title>Node0x17442080&#45;&gt;Node0x21fcc180</title>
<path fill="none" stroke="black" d="M194.25,-942.234C194.25,-934.586 194.25,-925.056 194.25,-915.033"/>
<polygon fill="black" stroke="black" points="197.75,-914.897 194.25,-904.897 190.75,-914.897 197.75,-914.897"/>
</g>
<!-- Node0x38452140 -->
<g id="node3" class="node"><title>Node0x38452140</title>
<polygon fill="none" stroke="black" points="143.25,-715.5 143.25,-753.5 245.25,-753.5 245.25,-715.5 143.25,-715.5"/>
<text text-anchor="start" x="151.25" y="-738.3" font-family="Times,serif" font-size="14.00">0x6cdca40:</text>
<text text-anchor="start" x="151.25" y="-723.3" font-family="Times,serif" font-size="14.00"> if (v2 &gt; &#45;1):</text>
</g>
<!-- Node0x21fcc180&#45;&gt;Node0x38452140 -->
<g id="edge2" class="edge"><title>Node0x21fcc180&#45;&gt;Node0x38452140</title>
<path fill="none" stroke="black" d="M194.25,-791.25C194.25,-781.862 194.25,-772.474 194.25,-764.151"/>
<polygon fill="black" stroke="black" points="197.75,-763.912 194.25,-753.912 190.75,-763.912 197.75,-763.912"/>
</g>
<!-- Node0x30e5cb10 -->
<g id="node4" class="node"><title>Node0x30e5cb10</title>
<polygon fill="none" stroke="black" points="2.25,-625.5 2.25,-663.5 192.25,-663.5 192.25,-625.5 2.25,-625.5"/>
<text text-anchor="start" x="10.25" y="-648.3" font-family="Times,serif" font-size="14.00">0x6cdc860:</text>
<text text-anchor="start" x="10.25" y="-633.3" font-family="Times,serif" font-size="14.00"> v4 = (65536 * (v3 &#45; v2))</text>
</g>
<!-- Node0x38452140&#45;&gt;Node0x30e5cb10 -->
<g id="edge3" class="edge"><title>Node0x38452140&#45;&gt;Node0x30e5cb10</title>
<path fill="none" stroke="black" d="M174.152,-715.266C159.975,-702.405 140.8,-685.009 125.144,-670.806"/>
<polygon fill="black" stroke="black" points="127.081,-667.837 117.323,-663.71 122.377,-673.022 127.081,-667.837"/>
<text text-anchor="middle" x="178.25" y="-685.8" font-family="Times,serif" font-size="14.00">v2 &gt; &#45;1</text>
</g>
<!-- Node0x21fcf3e0 -->
<g id="node5" class="node"><title>Node0x21fcf3e0</title>
<polygon fill="none" stroke="black" points="138.75,-549.5 138.75,-587.5 239.75,-587.5 239.75,-549.5 138.75,-549.5"/>
<text text-anchor="start" x="146.75" y="-572.3" font-family="Times,serif" font-size="14.00">0x6cdd750:</text>
<text text-anchor="start" x="146.75" y="-557.3" font-family="Times,serif" font-size="14.00"> if (v2 &lt; 0):</text>
</g>
<!-- Node0x38452140&#45;&gt;Node0x21fcf3e0 -->
<g id="edge4" class="edge"><title>Node0x38452140&#45;&gt;Node0x21fcf3e0</title>
<path fill="none" stroke="black" d="M202.725,-715.313C204.985,-709.58 207.113,-703.14 208.25,-697 214.554,-662.96 206.303,-623.505 198.784,-597.607"/>
<polygon fill="black" stroke="black" points="202.033,-596.262 195.758,-587.725 195.339,-598.311 202.033,-596.262"/>
<text text-anchor="middle" x="243.25" y="-640.8" font-family="Times,serif" font-size="14.00">v2 &lt;= &#45;1</text>
</g>
<!-- Node0x30e5cb10&#45;&gt;Node0x21fcf3e0 -->
<g id="edge5" class="edge"><title>Node0x30e5cb10&#45;&gt;Node0x21fcf3e0</title>
<path fill="none" stroke="black" d="M119.992,-625.208C131.69,-615.799 146.111,-604.199 158.76,-594.025"/>
<polygon fill="black" stroke="black" points="161.172,-596.577 166.77,-587.582 156.784,-591.122 161.172,-596.577"/>
</g>
<!-- Node0x30e5e410 -->
<g id="node6" class="node"><title>Node0x30e5e410</title>
<polygon fill="none" stroke="black" points="36.75,-429.5 36.75,-497.5 185.75,-497.5 185.75,-429.5 36.75,-429.5"/>
<text text-anchor="start" x="44.75" y="-482.3" font-family="Times,serif" font-size="14.00">0x1fa53780:</text>
<text text-anchor="start" x="44.75" y="-467.3" font-family="Times,serif" font-size="14.00"> v5 = (65536 * v3)</text>
<text text-anchor="start" x="44.75" y="-452.3" font-family="Times,serif" font-size="14.00"> g37 = v5</text>
<text text-anchor="start" x="44.75" y="-437.3" font-family="Times,serif" font-size="14.00"> v4 = v5</text>
</g>
<!-- Node0x21fcf3e0&#45;&gt;Node0x30e5e410 -->
<g id="edge6" class="edge"><title>Node0x21fcf3e0&#45;&gt;Node0x30e5e410</title>
<path fill="none" stroke="black" d="M174.068,-549.487C169.252,-543.651 163.957,-537.107 159.25,-531 153.057,-522.964 146.594,-514.251 140.489,-505.858"/>
<polygon fill="black" stroke="black" points="143.223,-503.665 134.528,-497.61 137.549,-507.765 143.223,-503.665"/>
<text text-anchor="middle" x="183.25" y="-519.8" font-family="Times,serif" font-size="14.00">v2 &lt; 0</text>
</g>
<!-- Node0x121fe860 -->
<g id="node7" class="node"><title>Node0x121fe860</title>
<polygon fill="none" stroke="black" points="136.25,-353.5 136.25,-391.5 238.25,-391.5 238.25,-353.5 136.25,-353.5"/>
<text text-anchor="start" x="144.25" y="-376.3" font-family="Times,serif" font-size="14.00">0x6cddf00:</text>
<text text-anchor="start" x="144.25" y="-361.3" font-family="Times,serif" font-size="14.00"> if (v2 &gt; &#45;1):</text>
</g>
<!-- Node0x21fcf3e0&#45;&gt;Node0x121fe860 -->
<g id="edge7" class="edge"><title>Node0x21fcf3e0&#45;&gt;Node0x121fe860</title>
<path fill="none" stroke="black" d="M200.319,-549.173C203.153,-543.543 205.806,-537.193 207.25,-531 217.653,-486.384 206.117,-433.31 196.744,-401.569"/>
<polygon fill="black" stroke="black" points="199.981,-400.186 193.684,-391.665 193.293,-402.253 199.981,-400.186"/>
<text text-anchor="middle" x="242.25" y="-459.8" font-family="Times,serif" font-size="14.00">v2 &gt;= 0</text>
</g>
<!-- Node0x30e5e410&#45;&gt;Node0x121fe860 -->
<g id="edge8" class="edge"><title>Node0x30e5e410&#45;&gt;Node0x121fe860</title>
<path fill="none" stroke="black" d="M139.55,-429.36C147.906,-419.574 156.933,-409.003 164.862,-399.718"/>
<polygon fill="black" stroke="black" points="167.671,-401.818 171.503,-391.941 162.347,-397.273 167.671,-401.818"/>
</g>
<!-- Node0x30e5bfe0 -->
<g id="node8" class="node"><title>Node0x30e5bfe0</title>
<polygon fill="none" stroke="black" points="29.75,-263.5 29.75,-301.5 184.75,-301.5 184.75,-263.5 29.75,-263.5"/>
<text text-anchor="start" x="37.75" y="-286.3" font-family="Times,serif" font-size="14.00">0x6cdd980:</text>
<text text-anchor="start" x="37.75" y="-271.3" font-family="Times,serif" font-size="14.00"> g29 = (v4 / 65536)</text>
</g>
<!-- Node0x121fe860&#45;&gt;Node0x30e5bfe0 -->
<g id="edge9" class="edge"><title>Node0x121fe860&#45;&gt;Node0x30e5bfe0</title>
<path fill="none" stroke="black" d="M170.674,-353.266C159.089,-340.523 143.457,-323.328 130.611,-309.198"/>
<polygon fill="black" stroke="black" points="133.121,-306.755 123.805,-301.71 127.942,-311.464 133.121,-306.755"/>
<text text-anchor="middle" x="178.25" y="-323.8" font-family="Times,serif" font-size="14.00">v2 &gt; &#45;1</text>
</g>
<!-- Node0x30e5eb80 -->
<g id="node9" class="node"><title>Node0x30e5eb80</title>
<polygon fill="none" stroke="black" points="136.25,-187.5 136.25,-225.5 236.25,-225.5 236.25,-187.5 136.25,-187.5"/>
<text text-anchor="start" x="144.25" y="-210.3" font-family="Times,serif" font-size="14.00">0x6cde780:</text>
<text text-anchor="start" x="144.25" y="-195.3" font-family="Times,serif" font-size="14.00"> if (v2 &lt; 0):</text>
</g>
<!-- Node0x121fe860&#45;&gt;Node0x30e5eb80 -->
<g id="edge10" class="edge"><title>Node0x121fe860&#45;&gt;Node0x30e5eb80</title>
<path fill="none" stroke="black" d="M199.538,-353.309C202.686,-347.682 205.637,-341.3 207.25,-335 215.895,-301.233 206.31,-261.488 197.44,-235.46"/>
<polygon fill="black" stroke="black" points="200.667,-234.091 193.989,-225.866 194.08,-236.46 200.667,-234.091"/>
<text text-anchor="middle" x="243.25" y="-278.8" font-family="Times,serif" font-size="14.00">v2 &lt;= &#45;1</text>
</g>
<!-- Node0x30e5bfe0&#45;&gt;Node0x30e5eb80 -->
<g id="edge11" class="edge"><title>Node0x30e5bfe0&#45;&gt;Node0x30e5eb80</title>
<path fill="none" stroke="black" d="M126.778,-263.208C136.632,-253.978 148.736,-242.64 159.446,-232.607"/>
<polygon fill="black" stroke="black" points="162.041,-234.972 166.947,-225.582 157.256,-229.864 162.041,-234.972"/>
</g>
<!-- Node0x30e5ae90 -->
<g id="node10" class="node"><title>Node0x30e5ae90</title>
<polygon fill="none" stroke="black" points="26.75,-97.5 26.75,-135.5 181.75,-135.5 181.75,-97.5 26.75,-97.5"/>
<text text-anchor="start" x="34.75" y="-120.3" font-family="Times,serif" font-size="14.00">0x6cde5e0:</text>
<text text-anchor="start" x="34.75" y="-105.3" font-family="Times,serif" font-size="14.00"> g29 = (v4 / 65536)</text>
</g>
<!-- Node0x30e5eb80&#45;&gt;Node0x30e5ae90 -->
<g id="edge12" class="edge"><title>Node0x30e5eb80&#45;&gt;Node0x30e5ae90</title>
<path fill="none" stroke="black" d="M169.26,-187.266C157.385,-174.523 141.363,-157.328 128.195,-143.198"/>
<polygon fill="black" stroke="black" points="130.597,-140.64 121.219,-135.71 125.475,-145.412 130.597,-140.64"/>
<text text-anchor="middle" x="174.25" y="-157.8" font-family="Times,serif" font-size="14.00">v2 &lt; 0</text>
</g>
<!-- Node0x121fcd60 -->
<g id="node11" class="node"><title>Node0x121fcd60</title>
<polygon fill="none" stroke="black" points="156.25,-23.5 156.25,-59.5 210.25,-59.5 210.25,-23.5 156.25,-23.5"/>
<text text-anchor="start" x="164.25" y="-37.8" font-family="Times,serif" font-size="14.00">exit:</text>
</g>
<!-- Node0x30e5eb80&#45;&gt;Node0x121fcd60 -->
<g id="edge13" class="edge"><title>Node0x30e5eb80&#45;&gt;Node0x121fcd60</title>
<path fill="none" stroke="black" d="M195.929,-187.424C198.511,-181.696 200.944,-175.23 202.25,-169 209.376,-134.995 200.697,-95.3091 192.868,-69.5852"/>
<polygon fill="black" stroke="black" points="196.115,-68.2495 189.725,-59.7991 189.451,-70.3904 196.115,-68.2495"/>
<text text-anchor="middle" x="235.25" y="-112.8" font-family="Times,serif" font-size="14.00">v2 &gt;= 0</text>
</g>
<!-- Node0x30e5ae90&#45;&gt;Node0x121fcd60 -->
<g id="edge14" class="edge"><title>Node0x30e5ae90&#45;&gt;Node0x121fcd60</title>
<path fill="none" stroke="black" d="M123.778,-97.4551C133.852,-88.1459 146.279,-76.6632 157.163,-66.6054"/>
<polygon fill="black" stroke="black" points="159.792,-68.9423 164.761,-59.585 155.041,-63.8011 159.792,-68.9423"/>
</g>
</g>
</svg>
