<?xml version="1.0" encoding="UTF-8" standalone="no"?>
<!DOCTYPE svg PUBLIC "-//W3C//DTD SVG 1.1//EN"
 "http://www.w3.org/Graphics/SVG/1.1/DTD/svg11.dtd">
<!-- Generated by graphviz version 2.38.0 (20140413.2041)
 -->
<!-- Title: Control&#45;flow graph for function &#39;function_24024()&#39;. Pages: 1 -->
<svg width="386pt" height="459pt"
 viewBox="0.00 0.00 386.00 459.00" xmlns="http://www.w3.org/2000/svg" xmlns:xlink="http://www.w3.org/1999/xlink">
<g id="graph0" class="graph" transform="scale(1 1) rotate(0) translate(4 455)">
<title>Control&#45;flow graph for function &#39;function_24024()&#39;.</title>
<polygon fill="white" stroke="none" points="-4,4 -4,-455 382,-455 382,4 -4,4"/>
<text text-anchor="middle" x="189" y="-7.8" font-family="Times,serif" font-size="14.00">Control&#45;flow graph for function &#39;function_24024()&#39;.</text>
<!-- Node0x3c6e4f40 -->
<g id="node1" class="node"><title>Node0x3c6e4f40</title>
<polygon fill="none" stroke="black" points="148.75,-414.5 148.75,-450.5 207.75,-450.5 207.75,-414.5 148.75,-414.5"/>
<text text-anchor="start" x="156.75" y="-428.8" font-family="Times,serif" font-size="14.00">entry:</text>
</g>
<!-- Node0x3c6e0f40 -->
<g id="node2" class="node"><title>Node0x3c6e0f40</title>
<polygon fill="none" stroke="black" points="128.75,-338.5 128.75,-376.5 227.75,-376.5 227.75,-338.5 128.75,-338.5"/>
<text text-anchor="start" x="136.75" y="-361.3" font-family="Times,serif" font-size="14.00">0x2f0f6f20:</text>
<text text-anchor="start" x="136.75" y="-346.3" font-family="Times,serif" font-size="14.00"> v1 = g36</text>
</g>
<!-- Node0x3c6e4f40&#45;&gt;Node0x3c6e0f40 -->
<g id="edge1" class="edge"><title>Node0x3c6e4f40&#45;&gt;Node0x3c6e0f40</title>
<path fill="none" stroke="black" d="M178.25,-414.2C178.25,-405.99 178.25,-395.969 178.25,-386.701"/>
<polygon fill="black" stroke="black" points="181.75,-386.694 178.25,-376.694 174.75,-386.695 181.75,-386.694"/>
</g>
<!-- Node0x3c6e5bd0 -->
<g id="node3" class="node"><title>Node0x3c6e5bd0</title>
<polygon fill="none" stroke="black" points="91.75,-262.5 91.75,-300.5 264.75,-300.5 264.75,-262.5 91.75,-262.5"/>
<text text-anchor="start" x="99.75" y="-285.3" font-family="Times,serif" font-size="14.00">0xa4f0930:</text>
<text text-anchor="start" x="99.75" y="-270.3" font-family="Times,serif" font-size="14.00"> if (v1 &lt;= 16777216):</text>
</g>
<!-- Node0x3c6e0f40&#45;&gt;Node0x3c6e5bd0 -->
<g id="edge2" class="edge"><title>Node0x3c6e0f40&#45;&gt;Node0x3c6e5bd0</title>
<path fill="none" stroke="black" d="M178.25,-338.208C178.25,-329.964 178.25,-320.038 178.25,-310.862"/>
<polygon fill="black" stroke="black" points="181.75,-310.582 178.25,-300.582 174.75,-310.582 181.75,-310.582"/>
</g>
<!-- Node0x3c6e0d40 -->
<g id="node4" class="node"><title>Node0x3c6e0d40</title>
<polygon fill="none" stroke="black" points="26.75,-97.5 26.75,-210.5 169.75,-210.5 169.75,-97.5 26.75,-97.5"/>
<text text-anchor="start" x="34.75" y="-195.3" font-family="Times,serif" font-size="14.00">0xa4efe70:</text>
<text text-anchor="start" x="34.75" y="-180.3" font-family="Times,serif" font-size="14.00"> g29 = 16</text>
<text text-anchor="start" x="34.75" y="-165.3" font-family="Times,serif" font-size="14.00"> g30 = 16</text>
<text text-anchor="start" x="34.75" y="-150.3" font-family="Times,serif" font-size="14.00"> g7 = False</text>
<text text-anchor="start" x="34.75" y="-135.3" font-family="Times,serif" font-size="14.00"> g9 = False</text>
<text text-anchor="start" x="34.75" y="-120.3" font-family="Times,serif" font-size="14.00"> function_23e50()</text>
<text text-anchor="start" x="34.75" y="-105.3" font-family="Times,serif" font-size="14.00"> return</text>
</g>
<!-- Node0x3c6e5bd0&#45;&gt;Node0x3c6e0d40 -->
<g id="edge3" class="edge"><title>Node0x3c6e5bd0&#45;&gt;Node0x3c6e0d40</title>
<path fill="none" stroke="black" d="M130.492,-262.473C122.671,-257.574 115.44,-251.488 110.25,-244 105.398,-237 102.071,-228.936 99.8378,-220.579"/>
<polygon fill="black" stroke="black" points="103.232,-219.714 97.6936,-210.681 96.3903,-221.196 103.232,-219.714"/>
<text text-anchor="middle" x="171.75" y="-232.8" font-family="Times,serif" font-size="14.00">v1 &lt;= 16777216</text>
</g>
<!-- Node0x3c6e2110 -->
<g id="node5" class="node"><title>Node0x3c6e2110</title>
<polygon fill="none" stroke="black" points="187.75,-135 187.75,-173 330.75,-173 330.75,-135 187.75,-135"/>
<text text-anchor="start" x="195.75" y="-157.8" font-family="Times,serif" font-size="14.00">0xa4f0b80:</text>
<text text-anchor="start" x="195.75" y="-142.8" font-family="Times,serif" font-size="14.00"> function_24204()</text>
</g>
<!-- Node0x3c6e5bd0&#45;&gt;Node0x3c6e2110 -->
<g id="edge4" class="edge"><title>Node0x3c6e5bd0&#45;&gt;Node0x3c6e2110</title>
<path fill="none" stroke="black" d="M213.643,-262.343C220.959,-257.24 228.019,-251.106 233.25,-244 246.314,-226.254 252.841,-202.037 256.086,-183.345"/>
<polygon fill="black" stroke="black" points="259.565,-183.749 257.608,-173.337 252.644,-182.697 259.565,-183.749"/>
<text text-anchor="middle" x="295.75" y="-232.8" font-family="Times,serif" font-size="14.00">v1 &gt; 16777216</text>
</g>
<!-- Node0x3c6e1dd0 -->
<g id="node6" class="node"><title>Node0x3c6e1dd0</title>
<polygon fill="none" stroke="black" points="168.25,-23.5 168.25,-59.5 222.25,-59.5 222.25,-23.5 168.25,-23.5"/>
<text text-anchor="start" x="176.25" y="-37.8" font-family="Times,serif" font-size="14.00">exit:</text>
</g>
<!-- Node0x3c6e0d40&#45;&gt;Node0x3c6e1dd0 -->
<g id="edge5" class="edge"><title>Node0x3c6e0d40&#45;&gt;Node0x3c6e1dd0</title>
<path fill="none" stroke="black" d="M147.034,-97.4263C156.281,-86.8925 165.514,-76.3745 173.389,-67.4038"/>
<polygon fill="black" stroke="black" points="176.233,-69.4686 180.2,-59.6444 170.973,-64.8506 176.233,-69.4686"/>
</g>
<!-- Node0x3c6e2110&#45;&gt;Node0x3c6e1dd0 -->
<g id="edge6" class="edge"><title>Node0x3c6e2110&#45;&gt;Node0x3c6e1dd0</title>
<path fill="none" stroke="black" d="M248.682,-134.753C238.214,-116.68 222.083,-88.8287 210.283,-68.455"/>
<polygon fill="black" stroke="black" points="213.242,-66.5814 205.202,-59.6822 207.185,-70.0898 213.242,-66.5814"/>
</g>
</g>
</svg>
