<?xml version="1.0" encoding="UTF-8" standalone="no"?>
<!DOCTYPE svg PUBLIC "-//W3C//DTD SVG 1.1//EN"
 "http://www.w3.org/Graphics/SVG/1.1/DTD/svg11.dtd">
<!-- Generated by graphviz version 2.38.0 (20140413.2041)
 -->
<!-- Title: Control&#45;flow graph for function &#39;function_1bb94()&#39;. Pages: 1 -->
<svg width="386pt" height="546pt"
 viewBox="0.00 0.00 386.00 546.00" xmlns="http://www.w3.org/2000/svg" xmlns:xlink="http://www.w3.org/1999/xlink">
<g id="graph0" class="graph" transform="scale(1 1) rotate(0) translate(4 542)">
<title>Control&#45;flow graph for function &#39;function_1bb94()&#39;.</title>
<polygon fill="white" stroke="none" points="-4,4 -4,-542 382,-542 382,4 -4,4"/>
<text text-anchor="middle" x="189" y="-7.8" font-family="Times,serif" font-size="14.00">Control&#45;flow graph for function &#39;function_1bb94()&#39;.</text>
<!-- Node0x2a3f12b0 -->
<g id="node1" class="node"><title>Node0x2a3f12b0</title>
<polygon fill="none" stroke="black" points="159.5,-501.5 159.5,-537.5 218.5,-537.5 218.5,-501.5 159.5,-501.5"/>
<text text-anchor="start" x="167.5" y="-515.8" font-family="Times,serif" font-size="14.00">entry:</text>
</g>
<!-- Node0x2a3f1b30 -->
<g id="node2" class="node"><title>Node0x2a3f1b30</title>
<polygon fill="none" stroke="black" points="20,-96.5 20,-464.5 358,-464.5 358,-96.5 20,-96.5"/>
<text text-anchor="start" x="28" y="-449.3" font-family="Times,serif" font-size="14.00">0x47ee8570:</text>
<text text-anchor="start" x="28" y="-434.3" font-family="Times,serif" font-size="14.00"> v1 = g30</text>
<text text-anchor="start" x="28" y="-419.3" font-family="Times,serif" font-size="14.00"> v2 = *(IntToPtrCastExpr&lt;ptr&gt;((v1 + 4)))</text>
<text text-anchor="start" x="28" y="-404.3" font-family="Times,serif" font-size="14.00"> g37 = v2</text>
<text text-anchor="start" x="28" y="-389.3" font-family="Times,serif" font-size="14.00"> g36 = *(IntToPtrCastExpr&lt;ptr&gt;((v1 + 12)))</text>
<text text-anchor="start" x="28" y="-374.3" font-family="Times,serif" font-size="14.00"> v3 = g38</text>
<text text-anchor="start" x="28" y="-359.3" font-family="Times,serif" font-size="14.00"> v4 = g39</text>
<text text-anchor="start" x="28" y="-344.3" font-family="Times,serif" font-size="14.00"> *(IntToPtrCastExpr&lt;ptr&gt;((g29 + 4))) = v2</text>
<text text-anchor="start" x="28" y="-329.3" font-family="Times,serif" font-size="14.00"> v5 = g29</text>
<text text-anchor="start" x="28" y="-314.3" font-family="Times,serif" font-size="14.00"> g38 = v5</text>
<text text-anchor="start" x="28" y="-299.3" font-family="Times,serif" font-size="14.00"> *(IntToPtrCastExpr&lt;ptr&gt;((v5 + 12))) = g36</text>
<text text-anchor="start" x="28" y="-284.3" font-family="Times,serif" font-size="14.00"> v6 = g30</text>
<text text-anchor="start" x="28" y="-269.3" font-family="Times,serif" font-size="14.00"> g29 = *(IntToPtrCastExpr&lt;ptr&gt;(v6))</text>
<text text-anchor="start" x="28" y="-254.3" font-family="Times,serif" font-size="14.00"> g39 = v6</text>
<text text-anchor="start" x="28" y="-239.3" font-family="Times,serif" font-size="14.00"> function_1b4a4()</text>
<text text-anchor="start" x="28" y="-224.3" font-family="Times,serif" font-size="14.00"> *(IntToPtrCastExpr&lt;ptr&gt;(g38)) = g29</text>
<text text-anchor="start" x="28" y="-209.3" font-family="Times,serif" font-size="14.00"> g29 = *(IntToPtrCastExpr&lt;ptr&gt;((g39 + 8)))</text>
<text text-anchor="start" x="28" y="-194.3" font-family="Times,serif" font-size="14.00"> function_1b4a4()</text>
<text text-anchor="start" x="28" y="-179.3" font-family="Times,serif" font-size="14.00"> *(IntToPtrCastExpr&lt;ptr&gt;((g38 + 8))) = g29</text>
<text text-anchor="start" x="28" y="-164.3" font-family="Times,serif" font-size="14.00"> g38 = v3</text>
<text text-anchor="start" x="28" y="-149.3" font-family="Times,serif" font-size="14.00"> g39 = v4</text>
<text text-anchor="start" x="28" y="-134.3" font-family="Times,serif" font-size="14.00"> v7</text>
<text text-anchor="start" x="28" y="-119.3" font-family="Times,serif" font-size="14.00"> g34 = v7</text>
<text text-anchor="start" x="28" y="-104.3" font-family="Times,serif" font-size="14.00"> IntToPtrCastExpr&lt;ptr&gt;(g35)()</text>
</g>
<!-- Node0x2a3f12b0&#45;&gt;Node0x2a3f1b30 -->
<g id="edge1" class="edge"><title>Node0x2a3f12b0&#45;&gt;Node0x2a3f1b30</title>
<path fill="none" stroke="black" d="M189,-501.456C189,-494.378 189,-485.412 189,-475.17"/>
<polygon fill="black" stroke="black" points="192.5,-474.98 189,-464.98 185.5,-474.98 192.5,-474.98"/>
</g>
<!-- Node0x2a3f17a0 -->
<g id="node3" class="node"><title>Node0x2a3f17a0</title>
<polygon fill="none" stroke="black" points="162,-23.5 162,-59.5 216,-59.5 216,-23.5 162,-23.5"/>
<text text-anchor="start" x="170" y="-37.8" font-family="Times,serif" font-size="14.00">exit:</text>
</g>
<!-- Node0x2a3f1b30&#45;&gt;Node0x2a3f17a0 -->
<g id="edge2" class="edge"><title>Node0x2a3f1b30&#45;&gt;Node0x2a3f17a0</title>
<path fill="none" stroke="black" d="M189,-96.279C189,-86.3355 189,-77.2691 189,-69.5302"/>
<polygon fill="black" stroke="black" points="192.5,-69.5206 189,-59.5207 185.5,-69.5207 192.5,-69.5206"/>
</g>
</g>
</svg>
