<?xml version="1.0" encoding="UTF-8" standalone="no"?>
<!DOCTYPE svg PUBLIC "-//W3C//DTD SVG 1.1//EN"
 "http://www.w3.org/Graphics/SVG/1.1/DTD/svg11.dtd">
<!-- Generated by graphviz version 2.38.0 (20140413.2041)
 -->
<!-- Title: Control&#45;flow graph for function &#39;function_10178()&#39;. Pages: 1 -->
<svg width="705pt" height="963pt"
 viewBox="0.00 0.00 705.00 963.00" xmlns="http://www.w3.org/2000/svg" xmlns:xlink="http://www.w3.org/1999/xlink">
<g id="graph0" class="graph" transform="scale(1 1) rotate(0) translate(4 959)">
<title>Control&#45;flow graph for function &#39;function_10178()&#39;.</title>
<polygon fill="white" stroke="none" points="-4,4 -4,-959 701,-959 701,4 -4,4"/>
<text text-anchor="middle" x="348.5" y="-7.8" font-family="Times,serif" font-size="14.00">Control&#45;flow graph for function &#39;function_10178()&#39;.</text>
<!-- Node0x2f687730 -->
<g id="node1" class="node"><title>Node0x2f687730</title>
<polygon fill="none" stroke="black" points="210.5,-918.5 210.5,-954.5 269.5,-954.5 269.5,-918.5 210.5,-918.5"/>
<text text-anchor="start" x="218.5" y="-932.8" font-family="Times,serif" font-size="14.00">entry:</text>
</g>
<!-- Node0x152f3fe0 -->
<g id="node2" class="node"><title>Node0x152f3fe0</title>
<polygon fill="none" stroke="black" points="173,-752.5 173,-880.5 307,-880.5 307,-752.5 173,-752.5"/>
<text text-anchor="start" x="181" y="-865.3" font-family="Times,serif" font-size="14.00">0x43f6cef0:</text>
<text text-anchor="start" x="181" y="-850.3" font-family="Times,serif" font-size="14.00"> v1 = g38</text>
<text text-anchor="start" x="181" y="-835.3" font-family="Times,serif" font-size="14.00"> v2 = g32</text>
<text text-anchor="start" x="181" y="-820.3" font-family="Times,serif" font-size="14.00"> v3 = g35</text>
<text text-anchor="start" x="181" y="-805.3" font-family="Times,serif" font-size="14.00"> g38 = g29</text>
<text text-anchor="start" x="181" y="-790.3" font-family="Times,serif" font-size="14.00"> function_34e4()</text>
<text text-anchor="start" x="181" y="-775.3" font-family="Times,serif" font-size="14.00"> v4 = g38</text>
<text text-anchor="start" x="181" y="-760.3" font-family="Times,serif" font-size="14.00"> v5</text>
</g>
<!-- Node0x2f687730&#45;&gt;Node0x152f3fe0 -->
<g id="edge1" class="edge"><title>Node0x2f687730&#45;&gt;Node0x152f3fe0</title>
<path fill="none" stroke="black" d="M240,-918.342C240,-910.719 240,-901.177 240,-891.023"/>
<polygon fill="black" stroke="black" points="243.5,-890.713 240,-880.713 236.5,-890.713 243.5,-890.713"/>
</g>
<!-- Node0x2f687930 -->
<g id="node3" class="node"><title>Node0x2f687930</title>
<polygon fill="none" stroke="black" points="180.5,-676.5 180.5,-714.5 299.5,-714.5 299.5,-676.5 180.5,-676.5"/>
<text text-anchor="start" x="188.5" y="-699.3" font-family="Times,serif" font-size="14.00">0x79728b0:</text>
<text text-anchor="start" x="188.5" y="-684.3" font-family="Times,serif" font-size="14.00"> if (g29 == 0):</text>
</g>
<!-- Node0x152f3fe0&#45;&gt;Node0x2f687930 -->
<g id="edge2" class="edge"><title>Node0x152f3fe0&#45;&gt;Node0x2f687930</title>
<path fill="none" stroke="black" d="M240,-752.167C240,-742.596 240,-733.158 240,-724.848"/>
<polygon fill="black" stroke="black" points="243.5,-724.658 240,-714.659 236.5,-724.659 243.5,-724.658"/>
</g>
<!-- Node0x2f684f20 -->
<g id="node4" class="node"><title>Node0x2f684f20</title>
<polygon fill="none" stroke="black" points="0,-364.5 0,-537.5 338,-537.5 338,-364.5 0,-364.5"/>
<text text-anchor="start" x="8" y="-522.3" font-family="Times,serif" font-size="14.00">0x7971990:</text>
<text text-anchor="start" x="8" y="-507.3" font-family="Times,serif" font-size="14.00"> g29 = *(IntToPtrCastExpr&lt;ptr&gt;(v4))</text>
<text text-anchor="start" x="8" y="-492.3" font-family="Times,serif" font-size="14.00"> g37 = 0</text>
<text text-anchor="start" x="8" y="-477.3" font-family="Times,serif" font-size="14.00"> g30 = &#45;42</text>
<text text-anchor="start" x="8" y="-462.3" font-family="Times,serif" font-size="14.00"> *(IntToPtrCastExpr&lt;ptr&gt;((v4 + 2600))) = 0</text>
<text text-anchor="start" x="8" y="-447.3" font-family="Times,serif" font-size="14.00"> g38 = v1</text>
<text text-anchor="start" x="8" y="-432.3" font-family="Times,serif" font-size="14.00"> g32 = v2</text>
<text text-anchor="start" x="8" y="-417.3" font-family="Times,serif" font-size="14.00"> g34 = v5</text>
<text text-anchor="start" x="8" y="-402.3" font-family="Times,serif" font-size="14.00"> g35 = v3</text>
<text text-anchor="start" x="8" y="-387.3" font-family="Times,serif" font-size="14.00"> function_557c()</text>
<text text-anchor="start" x="8" y="-372.3" font-family="Times,serif" font-size="14.00"> return</text>
</g>
<!-- Node0x2f687930&#45;&gt;Node0x2f684f20 -->
<g id="edge3" class="edge"><title>Node0x2f687930&#45;&gt;Node0x2f684f20</title>
<path fill="none" stroke="black" d="M222.162,-676.428C210.359,-663.299 195.689,-644.484 188,-625 178.502,-600.932 173.232,-573.608 170.425,-547.9"/>
<polygon fill="black" stroke="black" points="173.89,-547.371 169.433,-537.759 166.923,-548.052 173.89,-547.371"/>
<text text-anchor="middle" x="242" y="-646.8" font-family="Times,serif" font-size="14.00">g29 == 0</text>
</g>
<!-- Node0x2f686dc0 -->
<g id="node5" class="node"><title>Node0x2f686dc0</title>
<polygon fill="none" stroke="black" points="197,-556.5 197,-624.5 525,-624.5 525,-556.5 197,-556.5"/>
<text text-anchor="start" x="205" y="-609.3" font-family="Times,serif" font-size="14.00">0x1ac86530:</text>
<text text-anchor="start" x="205" y="-594.3" font-family="Times,serif" font-size="14.00"> v6 = *(IntToPtrCastExpr&lt;ptr&gt;((v4 + 20)))</text>
<text text-anchor="start" x="205" y="-579.3" font-family="Times,serif" font-size="14.00"> g29 = v6</text>
<text text-anchor="start" x="205" y="-564.3" font-family="Times,serif" font-size="14.00"> g9 = (v6 == 0)</text>
</g>
<!-- Node0x2f687930&#45;&gt;Node0x2f686dc0 -->
<g id="edge4" class="edge"><title>Node0x2f687930&#45;&gt;Node0x2f686dc0</title>
<path fill="none" stroke="black" d="M261.354,-676.323C275.958,-663.892 295.894,-646.921 314.098,-631.425"/>
<polygon fill="black" stroke="black" points="316.427,-634.038 321.774,-624.891 311.89,-628.708 316.427,-634.038"/>
<text text-anchor="middle" x="333" y="-646.8" font-family="Times,serif" font-size="14.00">g29 != 0</text>
</g>
<!-- Node0x2f687180 -->
<g id="node6" class="node"><title>Node0x2f687180</title>
<polygon fill="none" stroke="black" points="242,-23.5 242,-59.5 296,-59.5 296,-23.5 242,-23.5"/>
<text text-anchor="start" x="250" y="-37.8" font-family="Times,serif" font-size="14.00">exit:</text>
</g>
<!-- Node0x2f684f20&#45;&gt;Node0x2f687180 -->
<g id="edge5" class="edge"><title>Node0x2f684f20&#45;&gt;Node0x2f687180</title>
<path fill="none" stroke="black" d="M153.246,-364.213C143.921,-288.807 141.656,-178.668 188,-97 197.952,-79.4625 216.147,-66.455 232.775,-57.5546"/>
<polygon fill="black" stroke="black" points="234.422,-60.644 241.789,-53.0297 231.282,-54.388 234.422,-60.644"/>
</g>
<!-- Node0x2f684de0 -->
<g id="node7" class="node"><title>Node0x2f684de0</title>
<polygon fill="none" stroke="black" points="309,-307.5 309,-345.5 413,-345.5 413,-307.5 309,-307.5"/>
<text text-anchor="start" x="317" y="-330.3" font-family="Times,serif" font-size="14.00">0x7974900:</text>
<text text-anchor="start" x="317" y="-315.3" font-family="Times,serif" font-size="14.00"> if (v6 != 0):</text>
</g>
<!-- Node0x2f686dc0&#45;&gt;Node0x2f684de0 -->
<g id="edge6" class="edge"><title>Node0x2f686dc0&#45;&gt;Node0x2f684de0</title>
<path fill="none" stroke="black" d="M361,-556.318C361,-504.344 361,-404.643 361,-355.832"/>
<polygon fill="black" stroke="black" points="364.5,-355.673 361,-345.673 357.5,-355.673 364.5,-355.673"/>
</g>
<!-- Node0x2f686b40 -->
<g id="node8" class="node"><title>Node0x2f686b40</title>
<polygon fill="none" stroke="black" points="197.5,-150 197.5,-203 340.5,-203 340.5,-150 197.5,-150"/>
<text text-anchor="start" x="205.5" y="-187.8" font-family="Times,serif" font-size="14.00">0x7974b50:</text>
<text text-anchor="start" x="205.5" y="-172.8" font-family="Times,serif" font-size="14.00"> function_21c90()</text>
<text text-anchor="start" x="205.5" y="-157.8" font-family="Times,serif" font-size="14.00"> return</text>
</g>
<!-- Node0x2f684de0&#45;&gt;Node0x2f686b40 -->
<g id="edge7" class="edge"><title>Node0x2f684de0&#45;&gt;Node0x2f686b40</title>
<path fill="none" stroke="black" d="M349.719,-307.352C335.022,-283.709 309.019,-241.878 290.499,-212.085"/>
<polygon fill="black" stroke="black" points="293.264,-209.904 285.012,-203.258 287.319,-213.599 293.264,-209.904"/>
<text text-anchor="middle" x="364" y="-277.8" font-family="Times,serif" font-size="14.00">v6 != 0</text>
</g>
<!-- Node0x2f6861d0 -->
<g id="node9" class="node"><title>Node0x2f6861d0</title>
<polygon fill="none" stroke="black" points="359,-97.5 359,-255.5 697,-255.5 697,-97.5 359,-97.5"/>
<text text-anchor="start" x="367" y="-240.3" font-family="Times,serif" font-size="14.00">0x79737c0:</text>
<text text-anchor="start" x="367" y="-225.3" font-family="Times,serif" font-size="14.00"> g29 = *(IntToPtrCastExpr&lt;ptr&gt;(v4))</text>
<text text-anchor="start" x="367" y="-210.3" font-family="Times,serif" font-size="14.00"> g37 = 0</text>
<text text-anchor="start" x="367" y="-195.3" font-family="Times,serif" font-size="14.00"> g30 = &#45;42</text>
<text text-anchor="start" x="367" y="-180.3" font-family="Times,serif" font-size="14.00"> *(IntToPtrCastExpr&lt;ptr&gt;((v4 + 2600))) = 0</text>
<text text-anchor="start" x="367" y="-165.3" font-family="Times,serif" font-size="14.00"> g38 = v1</text>
<text text-anchor="start" x="367" y="-150.3" font-family="Times,serif" font-size="14.00"> g32 = v2</text>
<text text-anchor="start" x="367" y="-135.3" font-family="Times,serif" font-size="14.00"> g34 = v5</text>
<text text-anchor="start" x="367" y="-120.3" font-family="Times,serif" font-size="14.00"> g35 = v3</text>
<text text-anchor="start" x="367" y="-105.3" font-family="Times,serif" font-size="14.00"> function_557c()</text>
</g>
<!-- Node0x2f684de0&#45;&gt;Node0x2f6861d0 -->
<g id="edge8" class="edge"><title>Node0x2f684de0&#45;&gt;Node0x2f6861d0</title>
<path fill="none" stroke="black" d="M381.477,-307.352C394.703,-295.632 412.971,-279.442 432.127,-262.465"/>
<polygon fill="black" stroke="black" points="434.631,-264.923 439.793,-255.671 429.988,-259.685 434.631,-264.923"/>
<text text-anchor="middle" x="445" y="-277.8" font-family="Times,serif" font-size="14.00">v6 == 0</text>
</g>
<!-- Node0x2f686b40&#45;&gt;Node0x2f687180 -->
<g id="edge9" class="edge"><title>Node0x2f686b40&#45;&gt;Node0x2f687180</title>
<path fill="none" stroke="black" d="M269,-149.856C269,-126.918 269,-93.3918 269,-69.9254"/>
<polygon fill="black" stroke="black" points="272.5,-69.6151 269,-59.6151 265.5,-69.6152 272.5,-69.6151"/>
</g>
<!-- Node0x2f6861d0&#45;&gt;Node0x2f687180 -->
<g id="edge10" class="edge"><title>Node0x2f6861d0&#45;&gt;Node0x2f687180</title>
<path fill="none" stroke="black" d="M375.841,-97.3641C349.534,-83.8554 324.515,-71.0079 305.31,-61.1458"/>
<polygon fill="black" stroke="black" points="306.864,-58.009 296.369,-56.5544 303.666,-64.236 306.864,-58.009"/>
</g>
</g>
</svg>
