<?xml version="1.0" encoding="UTF-8" standalone="no"?>
<!DOCTYPE svg PUBLIC "-//W3C//DTD SVG 1.1//EN"
 "http://www.w3.org/Graphics/SVG/1.1/DTD/svg11.dtd">
<!-- Generated by graphviz version 2.38.0 (20140413.2041)
 -->
<!-- Title: Control&#45;flow graph for function &#39;function_130a0()&#39;. Pages: 1 -->
<svg width="385pt" height="444pt"
 viewBox="0.00 0.00 385.00 444.00" xmlns="http://www.w3.org/2000/svg" xmlns:xlink="http://www.w3.org/1999/xlink">
<g id="graph0" class="graph" transform="scale(1 1) rotate(0) translate(4 440)">
<title>Control&#45;flow graph for function &#39;function_130a0()&#39;.</title>
<polygon fill="white" stroke="none" points="-4,4 -4,-440 381,-440 381,4 -4,4"/>
<text text-anchor="middle" x="188.5" y="-7.8" font-family="Times,serif" font-size="14.00">Control&#45;flow graph for function &#39;function_130a0()&#39;.</text>
<!-- Node0x1591b430 -->
<g id="node1" class="node"><title>Node0x1591b430</title>
<polygon fill="none" stroke="black" points="175.5,-399.5 175.5,-435.5 234.5,-435.5 234.5,-399.5 175.5,-399.5"/>
<text text-anchor="start" x="183.5" y="-413.8" font-family="Times,serif" font-size="14.00">entry:</text>
</g>
<!-- Node0x23c611f0 -->
<g id="node2" class="node"><title>Node0x23c611f0</title>
<polygon fill="none" stroke="black" points="135.5,-263.5 135.5,-361.5 274.5,-361.5 274.5,-263.5 135.5,-263.5"/>
<text text-anchor="start" x="143.5" y="-346.3" font-family="Times,serif" font-size="14.00">0x14d6a710:</text>
<text text-anchor="start" x="143.5" y="-331.3" font-family="Times,serif" font-size="14.00"> v1 = g29</text>
<text text-anchor="start" x="143.5" y="-316.3" font-family="Times,serif" font-size="14.00"> v2 = (v1 &#45; 97)</text>
<text text-anchor="start" x="143.5" y="-301.3" font-family="Times,serif" font-size="14.00"> g37 = v2</text>
<text text-anchor="start" x="143.5" y="-286.3" font-family="Times,serif" font-size="14.00"> g6 = (v2 &gt; 24)</text>
<text text-anchor="start" x="143.5" y="-271.3" font-family="Times,serif" font-size="14.00"> g9 = (v2 == 25)</text>
</g>
<!-- Node0x1591b430&#45;&gt;Node0x23c611f0 -->
<g id="edge1" class="edge"><title>Node0x1591b430&#45;&gt;Node0x23c611f0</title>
<path fill="none" stroke="black" d="M205,-399.492C205,-391.692 205,-381.94 205,-371.829"/>
<polygon fill="black" stroke="black" points="208.5,-371.659 205,-361.659 201.5,-371.659 208.5,-371.659"/>
</g>
<!-- Node0x15917a90 -->
<g id="node3" class="node"><title>Node0x15917a90</title>
<polygon fill="none" stroke="black" points="151.5,-187.5 151.5,-225.5 258.5,-225.5 258.5,-187.5 151.5,-187.5"/>
<text text-anchor="start" x="159.5" y="-210.3" font-family="Times,serif" font-size="14.00">0x7f17e50:</text>
<text text-anchor="start" x="159.5" y="-195.3" font-family="Times,serif" font-size="14.00"> if (v2 &lt; 26):</text>
</g>
<!-- Node0x23c611f0&#45;&gt;Node0x15917a90 -->
<g id="edge2" class="edge"><title>Node0x23c611f0&#45;&gt;Node0x15917a90</title>
<path fill="none" stroke="black" d="M205,-263.458C205,-253.952 205,-244.27 205,-235.69"/>
<polygon fill="black" stroke="black" points="208.5,-235.509 205,-225.509 201.5,-235.509 208.5,-235.509"/>
</g>
<!-- Node0x23c5e1c0 -->
<g id="node4" class="node"><title>Node0x23c5e1c0</title>
<polygon fill="none" stroke="black" points="77,-97.5 77,-135.5 205,-135.5 205,-97.5 77,-97.5"/>
<text text-anchor="start" x="85" y="-120.3" font-family="Times,serif" font-size="14.00">0x7f17c30:</text>
<text text-anchor="start" x="85" y="-105.3" font-family="Times,serif" font-size="14.00"> g29 = (v1 &#45; 87)</text>
</g>
<!-- Node0x15917a90&#45;&gt;Node0x23c5e1c0 -->
<g id="edge3" class="edge"><title>Node0x15917a90&#45;&gt;Node0x23c5e1c0</title>
<path fill="none" stroke="black" d="M185.877,-187.364C180.434,-181.739 174.71,-175.344 170,-169 164.461,-161.539 159.211,-152.912 154.74,-144.877"/>
<polygon fill="black" stroke="black" points="157.692,-142.977 149.878,-135.823 151.525,-146.289 157.692,-142.977"/>
<text text-anchor="middle" x="198.5" y="-157.8" font-family="Times,serif" font-size="14.00">v2 &lt; 26</text>
</g>
<!-- Node0x1591dd30 -->
<g id="node5" class="node"><title>Node0x1591dd30</title>
<polygon fill="none" stroke="black" points="183,-23.5 183,-59.5 237,-59.5 237,-23.5 183,-23.5"/>
<text text-anchor="start" x="191" y="-37.8" font-family="Times,serif" font-size="14.00">exit:</text>
</g>
<!-- Node0x15917a90&#45;&gt;Node0x1591dd30 -->
<g id="edge4" class="edge"><title>Node0x15917a90&#45;&gt;Node0x1591dd30</title>
<path fill="none" stroke="black" d="M218.504,-187.454C221.967,-181.831 225.216,-175.416 227,-169 236.34,-135.413 227.78,-95.3321 219.793,-69.4242"/>
<polygon fill="black" stroke="black" points="223.008,-67.9936 216.573,-59.5767 216.354,-70.1693 223.008,-67.9936"/>
<text text-anchor="middle" x="265.5" y="-112.8" font-family="Times,serif" font-size="14.00">v2 &gt;= 26</text>
</g>
<!-- Node0x23c5e1c0&#45;&gt;Node0x1591dd30 -->
<g id="edge5" class="edge"><title>Node0x23c5e1c0&#45;&gt;Node0x1591dd30</title>
<path fill="none" stroke="black" d="M158.056,-97.4551C166.706,-88.3035 177.342,-77.0516 186.731,-67.1177"/>
<polygon fill="black" stroke="black" points="189.29,-69.5063 193.615,-59.8347 184.202,-64.6979 189.29,-69.5063"/>
</g>
</g>
</svg>
