<?xml version="1.0" encoding="UTF-8" standalone="no"?>
<!DOCTYPE svg PUBLIC "-//W3C//DTD SVG 1.1//EN"
 "http://www.w3.org/Graphics/SVG/1.1/DTD/svg11.dtd">
<!-- Generated by graphviz version 2.38.0 (20140413.2041)
 -->
<!-- Title: Control&#45;flow graph for function &#39;function_af10()&#39;. Pages: 1 -->
<svg width="373pt" height="321pt"
 viewBox="0.00 0.00 373.00 321.00" xmlns="http://www.w3.org/2000/svg" xmlns:xlink="http://www.w3.org/1999/xlink">
<g id="graph0" class="graph" transform="scale(1 1) rotate(0) translate(4 317)">
<title>Control&#45;flow graph for function &#39;function_af10()&#39;.</title>
<polygon fill="white" stroke="none" points="-4,4 -4,-317 369,-317 369,4 -4,4"/>
<text text-anchor="middle" x="182.5" y="-7.8" font-family="Times,serif" font-size="14.00">Control&#45;flow graph for function &#39;function_af10()&#39;.</text>
<!-- Node0x3149aa50 -->
<g id="node1" class="node"><title>Node0x3149aa50</title>
<polygon fill="none" stroke="black" points="153,-276.5 153,-312.5 212,-312.5 212,-276.5 153,-276.5"/>
<text text-anchor="start" x="161" y="-290.8" font-family="Times,serif" font-size="14.00">entry:</text>
</g>
<!-- Node0x3af102f0 -->
<g id="node2" class="node"><title>Node0x3af102f0</title>
<polygon fill="none" stroke="black" points="56,-96.5 56,-239.5 309,-239.5 309,-96.5 56,-96.5"/>
<text text-anchor="start" x="64" y="-224.3" font-family="Times,serif" font-size="14.00">0x1e248e70:</text>
<text text-anchor="start" x="64" y="-209.3" font-family="Times,serif" font-size="14.00"> v1 = g36</text>
<text text-anchor="start" x="64" y="-194.3" font-family="Times,serif" font-size="14.00"> g6 = (v1 &lt; 2)</text>
<text text-anchor="start" x="64" y="-179.3" font-family="Times,serif" font-size="14.00"> g37 = (0 if (v1 &gt; 1) else (1 &#45; v1))</text>
<text text-anchor="start" x="64" y="-164.3" font-family="Times,serif" font-size="14.00"> g29 = (g29 + 272)</text>
<text text-anchor="start" x="64" y="-149.3" font-family="Times,serif" font-size="14.00"> function_b174()</text>
<text text-anchor="start" x="64" y="-134.3" font-family="Times,serif" font-size="14.00"> v2</text>
<text text-anchor="start" x="64" y="-119.3" font-family="Times,serif" font-size="14.00"> g34 = v2</text>
<text text-anchor="start" x="64" y="-104.3" font-family="Times,serif" font-size="14.00"> IntToPtrCastExpr&lt;ptr&gt;(g35)()</text>
</g>
<!-- Node0x3149aa50&#45;&gt;Node0x3af102f0 -->
<g id="edge1" class="edge"><title>Node0x3149aa50&#45;&gt;Node0x3af102f0</title>
<path fill="none" stroke="black" d="M182.5,-276.45C182.5,-269.058 182.5,-259.82 182.5,-249.886"/>
<polygon fill="black" stroke="black" points="186,-249.761 182.5,-239.761 179,-249.761 186,-249.761"/>
</g>
<!-- Node0x3af0ff20 -->
<g id="node3" class="node"><title>Node0x3af0ff20</title>
<polygon fill="none" stroke="black" points="155.5,-23.5 155.5,-59.5 209.5,-59.5 209.5,-23.5 155.5,-23.5"/>
<text text-anchor="start" x="163.5" y="-37.8" font-family="Times,serif" font-size="14.00">exit:</text>
</g>
<!-- Node0x3af102f0&#45;&gt;Node0x3af0ff20 -->
<g id="edge2" class="edge"><title>Node0x3af102f0&#45;&gt;Node0x3af0ff20</title>
<path fill="none" stroke="black" d="M182.5,-96.3834C182.5,-87.0259 182.5,-77.9253 182.5,-69.9482"/>
<polygon fill="black" stroke="black" points="186,-69.848 182.5,-59.848 179,-69.8481 186,-69.848"/>
</g>
</g>
</svg>
