<?xml version="1.0" encoding="UTF-8" standalone="no"?>
<!DOCTYPE svg PUBLIC "-//W3C//DTD SVG 1.1//EN"
 "http://www.w3.org/Graphics/SVG/1.1/DTD/svg11.dtd">
<!-- Generated by graphviz version 2.38.0 (20140413.2041)
 -->
<!-- Title: Control&#45;flow graph for function &#39;_init()&#39;. Pages: 1 -->
<svg width="306pt" height="216pt"
 viewBox="0.00 0.00 306.00 216.00" xmlns="http://www.w3.org/2000/svg" xmlns:xlink="http://www.w3.org/1999/xlink">
<g id="graph0" class="graph" transform="scale(1 1) rotate(0) translate(4 212)">
<title>Control&#45;flow graph for function &#39;_init()&#39;.</title>
<polygon fill="white" stroke="none" points="-4,4 -4,-212 302,-212 302,4 -4,4"/>
<text text-anchor="middle" x="149" y="-7.8" font-family="Times,serif" font-size="14.00">Control&#45;flow graph for function &#39;_init()&#39;.</text>
<!-- Node0xa6b6530 -->
<g id="node1" class="node"><title>Node0xa6b6530</title>
<polygon fill="none" stroke="black" points="119.5,-171.5 119.5,-207.5 178.5,-207.5 178.5,-171.5 119.5,-171.5"/>
<text text-anchor="start" x="127.5" y="-185.8" font-family="Times,serif" font-size="14.00">entry:</text>
</g>
<!-- Node0x19967e90 -->
<g id="node2" class="node"><title>Node0x19967e90</title>
<polygon fill="none" stroke="black" points="28,-96.5 28,-134.5 270,-134.5 270,-96.5 28,-96.5"/>
<text text-anchor="start" x="36" y="-119.3" font-family="Times,serif" font-size="14.00">0x37cb9f0:</text>
<text text-anchor="start" x="36" y="-104.3" font-family="Times,serif" font-size="14.00"> IntToPtrCastExpr&lt;ptr&gt;(g35)()</text>
</g>
<!-- Node0xa6b6530&#45;&gt;Node0x19967e90 -->
<g id="edge1" class="edge"><title>Node0xa6b6530&#45;&gt;Node0x19967e90</title>
<path fill="none" stroke="black" d="M149,-171.437C149,-163.487 149,-153.813 149,-144.813"/>
<polygon fill="black" stroke="black" points="152.5,-144.699 149,-134.699 145.5,-144.699 152.5,-144.699"/>
</g>
<!-- Node0x46601b40 -->
<g id="node3" class="node"><title>Node0x46601b40</title>
<polygon fill="none" stroke="black" points="122,-23.5 122,-59.5 176,-59.5 176,-23.5 122,-23.5"/>
<text text-anchor="start" x="130" y="-37.8" font-family="Times,serif" font-size="14.00">exit:</text>
</g>
<!-- Node0x19967e90&#45;&gt;Node0x46601b40 -->
<g id="edge2" class="edge"><title>Node0x19967e90&#45;&gt;Node0x46601b40</title>
<path fill="none" stroke="black" d="M149,-96.3314C149,-88.394 149,-78.9095 149,-70.1285"/>
<polygon fill="black" stroke="black" points="152.5,-69.9177 149,-59.9177 145.5,-69.9177 152.5,-69.9177"/>
</g>
</g>
</svg>
