<?xml version="1.0" encoding="UTF-8" standalone="no"?>
<!DOCTYPE svg PUBLIC "-//W3C//DTD SVG 1.1//EN"
 "http://www.w3.org/Graphics/SVG/1.1/DTD/svg11.dtd">
<!-- Generated by graphviz version 2.38.0 (20140413.2041)
 -->
<!-- Title: Control&#45;flow graph for function &#39;function_18888()&#39;. Pages: 1 -->
<svg width="812pt" height="2338pt"
 viewBox="0.00 0.00 812.00 2338.00" xmlns="http://www.w3.org/2000/svg" xmlns:xlink="http://www.w3.org/1999/xlink">
<g id="graph0" class="graph" transform="scale(1 1) rotate(0) translate(4 2334)">
<title>Control&#45;flow graph for function &#39;function_18888()&#39;.</title>
<polygon fill="white" stroke="none" points="-4,4 -4,-2334 808,-2334 808,4 -4,4"/>
<text text-anchor="middle" x="402" y="-7.8" font-family="Times,serif" font-size="14.00">Control&#45;flow graph for function &#39;function_18888()&#39;.</text>
<!-- Node0x4382d0a0 -->
<g id="node1" class="node"><title>Node0x4382d0a0</title>
<polygon fill="none" stroke="black" points="525.5,-2293.5 525.5,-2329.5 584.5,-2329.5 584.5,-2293.5 525.5,-2293.5"/>
<text text-anchor="start" x="533.5" y="-2307.8" font-family="Times,serif" font-size="14.00">entry:</text>
</g>
<!-- Node0x37c0e970 -->
<g id="node2" class="node"><title>Node0x37c0e970</title>
<polygon fill="none" stroke="black" points="395.5,-2097.5 395.5,-2255.5 714.5,-2255.5 714.5,-2097.5 395.5,-2097.5"/>
<text text-anchor="start" x="403.5" y="-2240.3" font-family="Times,serif" font-size="14.00">0x20f7ebf0:</text>
<text text-anchor="start" x="403.5" y="-2225.3" font-family="Times,serif" font-size="14.00"> v1 = g38</text>
<text text-anchor="start" x="403.5" y="-2210.3" font-family="Times,serif" font-size="14.00"> v2 = g39</text>
<text text-anchor="start" x="403.5" y="-2195.3" font-family="Times,serif" font-size="14.00"> v3 = g40</text>
<text text-anchor="start" x="403.5" y="-2180.3" font-family="Times,serif" font-size="14.00"> v4 = g35</text>
<text text-anchor="start" x="403.5" y="-2165.3" font-family="Times,serif" font-size="14.00"> v5 = g29</text>
<text text-anchor="start" x="403.5" y="-2150.3" font-family="Times,serif" font-size="14.00"> v6 = *(IntToPtrCastExpr&lt;ptr&gt;((v5 + 4)))</text>
<text text-anchor="start" x="403.5" y="-2135.3" font-family="Times,serif" font-size="14.00"> g40 = v6</text>
<text text-anchor="start" x="403.5" y="-2120.3" font-family="Times,serif" font-size="14.00"> g38 = v6</text>
<text text-anchor="start" x="403.5" y="-2105.3" font-family="Times,serif" font-size="14.00"> v7 = &#45;1</text>
</g>
<!-- Node0x4382d0a0&#45;&gt;Node0x37c0e970 -->
<g id="edge1" class="edge"><title>Node0x4382d0a0&#45;&gt;Node0x37c0e970</title>
<path fill="none" stroke="black" d="M555,-2293.38C555,-2285.78 555,-2276.21 555,-2265.83"/>
<polygon fill="black" stroke="black" points="558.5,-2265.68 555,-2255.68 551.5,-2265.68 558.5,-2265.68"/>
</g>
<!-- Node0x21116430 -->
<g id="node3" class="node"><title>Node0x21116430</title>
<polygon fill="none" stroke="black" points="503,-2021.5 503,-2059.5 607,-2059.5 607,-2021.5 503,-2021.5"/>
<text text-anchor="start" x="511" y="-2044.3" font-family="Times,serif" font-size="14.00">0x887c170:</text>
<text text-anchor="start" x="511" y="-2029.3" font-family="Times,serif" font-size="14.00"> if (v6 != 0):</text>
</g>
<!-- Node0x37c0e970&#45;&gt;Node0x21116430 -->
<g id="edge2" class="edge"><title>Node0x37c0e970&#45;&gt;Node0x21116430</title>
<path fill="none" stroke="black" d="M555,-2097.16C555,-2087.45 555,-2078.06 555,-2069.85"/>
<polygon fill="black" stroke="black" points="558.5,-2069.8 555,-2059.8 551.5,-2069.8 558.5,-2069.8"/>
</g>
<!-- Node0x4382e8d0 -->
<g id="node4" class="node"><title>Node0x4382e8d0</title>
<polygon fill="none" stroke="black" points="430.5,-1931.5 430.5,-1969.5 539.5,-1969.5 539.5,-1931.5 430.5,-1931.5"/>
<text text-anchor="start" x="438.5" y="-1954.3" font-family="Times,serif" font-size="14.00">0x3e1c7990:</text>
<text text-anchor="start" x="438.5" y="-1939.3" font-family="Times,serif" font-size="14.00"> v8 = 0</text>
</g>
<!-- Node0x21116430&#45;&gt;Node0x4382e8d0 -->
<g id="edge3" class="edge"><title>Node0x21116430&#45;&gt;Node0x4382e8d0</title>
<path fill="none" stroke="black" d="M537.8,-2021.28C532.586,-2015.55 526.936,-2009.12 522,-2003 515.534,-1994.99 508.855,-1985.96 502.981,-1977.72"/>
<polygon fill="black" stroke="black" points="505.813,-1975.66 497.194,-1969.5 500.089,-1979.69 505.813,-1975.66"/>
<text text-anchor="middle" x="549" y="-1991.8" font-family="Times,serif" font-size="14.00">v6 != 0</text>
</g>
<!-- Node0x4382caa0 -->
<g id="node5" class="node"><title>Node0x4382caa0</title>
<polygon fill="none" stroke="black" points="324,-1524.5 324,-1712.5 804,-1712.5 804,-1524.5 324,-1524.5"/>
<text text-anchor="start" x="332" y="-1697.3" font-family="Times,serif" font-size="14.00">0x33640500:</text>
<text text-anchor="start" x="332" y="-1682.3" font-family="Times,serif" font-size="14.00"> v9 = *(IntToPtrCastExpr&lt;ptr&gt;(v5))</text>
<text text-anchor="start" x="332" y="-1667.3" font-family="Times,serif" font-size="14.00"> g39 = v9</text>
<text text-anchor="start" x="332" y="-1652.3" font-family="Times,serif" font-size="14.00"> g36 = v7</text>
<text text-anchor="start" x="332" y="-1637.3" font-family="Times,serif" font-size="14.00"> g29 = ((v9 &#45; 1) * v7)</text>
<text text-anchor="start" x="332" y="-1622.3" font-family="Times,serif" font-size="14.00"> g30 = v9</text>
<text text-anchor="start" x="332" y="-1607.3" font-family="Times,serif" font-size="14.00"> function_24238()</text>
<text text-anchor="start" x="332" y="-1592.3" font-family="Times,serif" font-size="14.00"> v10 = (g29 % 256)</text>
<text text-anchor="start" x="332" y="-1577.3" font-family="Times,serif" font-size="14.00"> v11 = (g40 &gt;&gt; (0 if (v10 == 0) else (31 if (v10 &gt; 31) else v10)))</text>
<text text-anchor="start" x="332" y="-1562.3" font-family="Times,serif" font-size="14.00"> g29 = v11</text>
<text text-anchor="start" x="332" y="-1547.3" font-family="Times,serif" font-size="14.00"> g35 = 1</text>
<text text-anchor="start" x="332" y="-1532.3" font-family="Times,serif" font-size="14.00"> v12 = 1</text>
</g>
<!-- Node0x21116430&#45;&gt;Node0x4382caa0 -->
<g id="edge4" class="edge"><title>Node0x21116430&#45;&gt;Node0x4382caa0</title>
<path fill="none" stroke="black" d="M566.849,-2021.45C577.003,-2004.22 590,-1977.15 590,-1951.5 590,-1951.5 590,-1951.5 590,-1776 590,-1758.73 588.441,-1740.54 586.086,-1722.9"/>
<polygon fill="black" stroke="black" points="589.492,-1722 584.613,-1712.59 582.563,-1722.99 589.492,-1722"/>
<text text-anchor="middle" x="620" y="-1870.8" font-family="Times,serif" font-size="14.00">v6 == 0</text>
</g>
<!-- Node0x4382dfe0 -->
<g id="node6" class="node"><title>Node0x4382dfe0</title>
<polygon fill="none" stroke="black" points="403,-1855.5 403,-1893.5 541,-1893.5 541,-1855.5 403,-1855.5"/>
<text text-anchor="start" x="411" y="-1878.3" font-family="Times,serif" font-size="14.00">0x887bfd0:</text>
<text text-anchor="start" x="411" y="-1863.3" font-family="Times,serif" font-size="14.00"> while (v6 &gt;= 2):</text>
</g>
<!-- Node0x4382e8d0&#45;&gt;Node0x4382dfe0 -->
<g id="edge5" class="edge"><title>Node0x4382e8d0&#45;&gt;Node0x4382dfe0</title>
<path fill="none" stroke="black" d="M481.787,-1931.21C480.322,-1922.87 478.556,-1912.82 476.93,-1903.56"/>
<polygon fill="black" stroke="black" points="480.354,-1902.83 475.177,-1893.58 473.46,-1904.04 480.354,-1902.83"/>
</g>
<!-- Node0x4382e5d0 -->
<g id="node7" class="node"><title>Node0x4382e5d0</title>
<polygon fill="none" stroke="black" points="513.5,-1448.5 513.5,-1486.5 614.5,-1486.5 614.5,-1448.5 513.5,-1448.5"/>
<text text-anchor="start" x="521.5" y="-1471.3" font-family="Times,serif" font-size="14.00">0x888a580:</text>
<text text-anchor="start" x="521.5" y="-1456.3" font-family="Times,serif" font-size="14.00"> while True:</text>
</g>
<!-- Node0x4382caa0&#45;&gt;Node0x4382e5d0 -->
<g id="edge6" class="edge"><title>Node0x4382caa0&#45;&gt;Node0x4382e5d0</title>
<path fill="none" stroke="black" d="M564,-1524.41C564,-1514.43 564,-1504.92 564,-1496.67"/>
<polygon fill="black" stroke="black" points="567.5,-1496.62 564,-1486.62 560.5,-1496.62 567.5,-1496.62"/>
</g>
<!-- Node0x4382fa30 -->
<g id="node8" class="node"><title>Node0x4382fa30</title>
<polygon fill="none" stroke="black" points="325.5,-1750.5 325.5,-1803.5 442.5,-1803.5 442.5,-1750.5 325.5,-1750.5"/>
<text text-anchor="start" x="333.5" y="-1788.3" font-family="Times,serif" font-size="14.00">0x16c53690:</text>
<text text-anchor="start" x="333.5" y="-1773.3" font-family="Times,serif" font-size="14.00"> v6 = (v6 / 2)</text>
<text text-anchor="start" x="333.5" y="-1758.3" font-family="Times,serif" font-size="14.00"> v8 = (v8 + 1)</text>
</g>
<!-- Node0x4382dfe0&#45;&gt;Node0x4382fa30 -->
<g id="edge7" class="edge"><title>Node0x4382dfe0&#45;&gt;Node0x4382fa30</title>
<path fill="none" stroke="black" d="M415.573,-1855.32C407.325,-1850.51 399.704,-1844.5 394,-1837 388.901,-1830.3 386.028,-1821.93 384.483,-1813.62"/>
<polygon fill="black" stroke="black" points="387.945,-1813.09 383.197,-1803.62 381.002,-1813.99 387.945,-1813.09"/>
<text text-anchor="middle" x="424" y="-1825.8" font-family="Times,serif" font-size="14.00">v6 &gt;= 2</text>
</g>
<!-- Node0x4382ed10 -->
<g id="node9" class="node"><title>Node0x4382ed10</title>
<polygon fill="none" stroke="black" points="460.5,-1750.5 460.5,-1803.5 561.5,-1803.5 561.5,-1750.5 460.5,-1750.5"/>
<text text-anchor="start" x="468.5" y="-1788.3" font-family="Times,serif" font-size="14.00">0x887b5c0:</text>
<text text-anchor="start" x="468.5" y="-1773.3" font-family="Times,serif" font-size="14.00"> g38 = 0</text>
<text text-anchor="start" x="468.5" y="-1758.3" font-family="Times,serif" font-size="14.00"> v7 = v8</text>
</g>
<!-- Node0x4382dfe0&#45;&gt;Node0x4382ed10 -->
<g id="edge8" class="edge"><title>Node0x4382dfe0&#45;&gt;Node0x4382ed10</title>
<path fill="none" stroke="black" d="M479.52,-1855.09C484.375,-1843.2 490.849,-1827.34 496.663,-1813.11"/>
<polygon fill="black" stroke="black" points="500.015,-1814.16 500.555,-1803.58 493.534,-1811.51 500.015,-1814.16"/>
<text text-anchor="middle" x="517" y="-1825.8" font-family="Times,serif" font-size="14.00">v6 &lt; 2</text>
</g>
<!-- Node0x4382eeb0 -->
<g id="node10" class="node"><title>Node0x4382eeb0</title>
<polygon fill="none" stroke="black" points="411.5,-1238.5 411.5,-1396.5 546.5,-1396.5 546.5,-1238.5 411.5,-1238.5"/>
<text text-anchor="start" x="419.5" y="-1381.3" font-family="Times,serif" font-size="14.00">0x887f700:</text>
<text text-anchor="start" x="419.5" y="-1366.3" font-family="Times,serif" font-size="14.00"> g30 = v12</text>
<text text-anchor="start" x="419.5" y="-1351.3" font-family="Times,serif" font-size="14.00"> g36 = v12</text>
<text text-anchor="start" x="419.5" y="-1336.3" font-family="Times,serif" font-size="14.00"> v13 = g38</text>
<text text-anchor="start" x="419.5" y="-1321.3" font-family="Times,serif" font-size="14.00"> g37 = v13</text>
<text text-anchor="start" x="419.5" y="-1306.3" font-family="Times,serif" font-size="14.00"> v14 = (v11 + 1)</text>
<text text-anchor="start" x="419.5" y="-1291.3" font-family="Times,serif" font-size="14.00"> g33 = v14</text>
<text text-anchor="start" x="419.5" y="-1276.3" font-family="Times,serif" font-size="14.00"> v15 = g39</text>
<text text-anchor="start" x="419.5" y="-1261.3" font-family="Times,serif" font-size="14.00"> v16 = v12</text>
<text text-anchor="start" x="419.5" y="-1246.3" font-family="Times,serif" font-size="14.00"> v17 = v12</text>
</g>
<!-- Node0x4382e5d0&#45;&gt;Node0x4382eeb0 -->
<g id="edge9" class="edge"><title>Node0x4382e5d0&#45;&gt;Node0x4382eeb0</title>
<path fill="none" stroke="black" d="M546.341,-1448.36C541.36,-1442.73 536.168,-1436.34 532,-1430 526.984,-1422.37 522.169,-1414.2 517.629,-1405.87"/>
<polygon fill="black" stroke="black" points="520.59,-1403.98 512.812,-1396.78 514.405,-1407.26 520.59,-1403.98"/>
<text text-anchor="middle" x="549" y="-1418.8" font-family="Times,serif" font-size="14.00">True</text>
</g>
<!-- Node0x4382fa30&#45;&gt;Node0x4382dfe0 -->
<g id="edge10" class="edge"><title>Node0x4382fa30&#45;&gt;Node0x4382dfe0</title>
<path fill="none" stroke="black" d="M434.115,-1803.52C441.487,-1808.87 448.453,-1815.04 454,-1822 459.456,-1828.85 463.319,-1837.46 466.027,-1845.68"/>
<polygon fill="black" stroke="black" points="462.678,-1846.7 468.788,-1855.35 469.41,-1844.77 462.678,-1846.7"/>
</g>
<!-- Node0x4382ed10&#45;&gt;Node0x4382caa0 -->
<g id="edge11" class="edge"><title>Node0x4382ed10&#45;&gt;Node0x4382caa0</title>
<path fill="none" stroke="black" d="M519.752,-1750.16C522.521,-1741.98 525.768,-1732.39 529.224,-1722.19"/>
<polygon fill="black" stroke="black" points="532.556,-1723.26 532.449,-1712.67 525.926,-1721.02 532.556,-1723.26"/>
</g>
<!-- Node0x4382f410 -->
<g id="node11" class="node"><title>Node0x4382f410</title>
<polygon fill="none" stroke="black" points="404,-1162.5 404,-1200.5 528,-1200.5 528,-1162.5 404,-1162.5"/>
<text text-anchor="start" x="412" y="-1185.3" font-family="Times,serif" font-size="14.00">0x88851d0:</text>
<text text-anchor="start" x="412" y="-1170.3" font-family="Times,serif" font-size="14.00"> if (v13 &lt; v15):</text>
</g>
<!-- Node0x4382eeb0&#45;&gt;Node0x4382f410 -->
<g id="edge12" class="edge"><title>Node0x4382eeb0&#45;&gt;Node0x4382f410</title>
<path fill="none" stroke="black" d="M471.4,-1238.16C470.458,-1228.45 469.547,-1219.06 468.75,-1210.85"/>
<polygon fill="black" stroke="black" points="472.225,-1210.42 467.775,-1200.8 465.258,-1211.09 472.225,-1210.42"/>
</g>
<!-- Node0x12af8530 -->
<g id="node12" class="node"><title>Node0x12af8530</title>
<polygon fill="none" stroke="black" points="225,-1042.5 225,-1110.5 373,-1110.5 373,-1042.5 225,-1042.5"/>
<text text-anchor="start" x="233" y="-1095.3" font-family="Times,serif" font-size="14.00">0x1d656b50:</text>
<text text-anchor="start" x="233" y="-1080.3" font-family="Times,serif" font-size="14.00"> v18 = (v13 + 1)</text>
<text text-anchor="start" x="233" y="-1065.3" font-family="Times,serif" font-size="14.00"> v19 = (v12 * v11)</text>
<text text-anchor="start" x="233" y="-1050.3" font-family="Times,serif" font-size="14.00"> v20 = (v12 * v14)</text>
</g>
<!-- Node0x4382f410&#45;&gt;Node0x12af8530 -->
<g id="edge13" class="edge"><title>Node0x4382f410&#45;&gt;Node0x12af8530</title>
<path fill="none" stroke="black" d="M414.901,-1162.41C402.459,-1157.17 389.446,-1150.96 378,-1144 365.43,-1136.36 352.802,-1126.78 341.443,-1117.29"/>
<polygon fill="black" stroke="black" points="343.677,-1114.6 333.799,-1110.77 339.131,-1119.92 343.677,-1114.6"/>
<text text-anchor="middle" x="415" y="-1132.8" font-family="Times,serif" font-size="14.00">v13 &lt; v15</text>
</g>
<!-- Node0x4382f570 -->
<g id="node13" class="node"><title>Node0x4382f570</title>
<polygon fill="none" stroke="black" points="282.5,-725.5 282.5,-778.5 387.5,-778.5 387.5,-725.5 282.5,-725.5"/>
<text text-anchor="start" x="290.5" y="-763.3" font-family="Times,serif" font-size="14.00">0x35c9fa40:</text>
<text text-anchor="start" x="290.5" y="-748.3" font-family="Times,serif" font-size="14.00"> v21 = g40</text>
<text text-anchor="start" x="290.5" y="-733.3" font-family="Times,serif" font-size="14.00"> v22</text>
</g>
<!-- Node0x4382f410&#45;&gt;Node0x4382f570 -->
<g id="edge14" class="edge"><title>Node0x4382f410&#45;&gt;Node0x4382f570</title>
<path fill="none" stroke="black" d="M466,-1162.27C466,-1141.68 466,-1107.18 466,-1077.5 466,-1077.5 466,-1077.5 466,-864.5 466,-841.349 462.194,-833.467 447,-816 433.41,-800.376 414.951,-787.799 396.94,-778.115"/>
<polygon fill="black" stroke="black" points="398.085,-774.768 387.591,-773.313 394.887,-780.995 398.085,-774.768"/>
<text text-anchor="middle" x="509" y="-981.8" font-family="Times,serif" font-size="14.00">v13 &gt;= v15</text>
</g>
<!-- Node0x43772e70 -->
<g id="node14" class="node"><title>Node0x43772e70</title>
<polygon fill="none" stroke="black" points="171.5,-966.5 171.5,-1004.5 370.5,-1004.5 370.5,-966.5 171.5,-966.5"/>
<text text-anchor="start" x="179.5" y="-989.3" font-family="Times,serif" font-size="14.00">0x8884f80:</text>
<text text-anchor="start" x="179.5" y="-974.3" font-family="Times,serif" font-size="14.00"> while ((v13 + 1) != v15):</text>
</g>
<!-- Node0x12af8530&#45;&gt;Node0x43772e70 -->
<g id="edge15" class="edge"><title>Node0x12af8530&#45;&gt;Node0x43772e70</title>
<path fill="none" stroke="black" d="M288.574,-1042.36C285.713,-1033.27 282.639,-1023.49 279.874,-1014.71"/>
<polygon fill="black" stroke="black" points="283.141,-1013.43 276.802,-1004.94 276.464,-1015.53 283.141,-1013.43"/>
</g>
<!-- Node0x4382f6a0 -->
<g id="node15" class="node"><title>Node0x4382f6a0</title>
<polygon fill="none" stroke="black" points="273,-634.5 273,-687.5 397,-687.5 397,-634.5 273,-634.5"/>
<text text-anchor="start" x="281" y="-672.3" font-family="Times,serif" font-size="14.00">0x8886e40:</text>
<text text-anchor="start" x="281" y="-657.3" font-family="Times,serif" font-size="14.00"> if (v17 &gt; v21):</text>
<text text-anchor="start" x="281" y="-642.3" font-family="Times,serif" font-size="14.00"> else:</text>
</g>
<!-- Node0x4382f570&#45;&gt;Node0x4382f6a0 -->
<g id="edge16" class="edge"><title>Node0x4382f570&#45;&gt;Node0x4382f6a0</title>
<path fill="none" stroke="black" d="M335,-725.258C335,-716.678 335,-706.961 335,-697.762"/>
<polygon fill="black" stroke="black" points="338.5,-697.685 335,-687.685 331.5,-697.685 338.5,-697.685"/>
</g>
<!-- Node0x43831000 -->
<g id="node16" class="node"><title>Node0x43831000</title>
<polygon fill="none" stroke="black" points="0,-831.5 0,-899.5 148,-899.5 148,-831.5 0,-831.5"/>
<text text-anchor="start" x="8" y="-884.3" font-family="Times,serif" font-size="14.00">0x1842fd70:</text>
<text text-anchor="start" x="8" y="-869.3" font-family="Times,serif" font-size="14.00"> v13 = (v13 + 1)</text>
<text text-anchor="start" x="8" y="-854.3" font-family="Times,serif" font-size="14.00"> v19 = (v19 * v11)</text>
<text text-anchor="start" x="8" y="-839.3" font-family="Times,serif" font-size="14.00"> v20 = (v20 * v14)</text>
</g>
<!-- Node0x43772e70&#45;&gt;Node0x43831000 -->
<g id="edge17" class="edge"><title>Node0x43772e70&#45;&gt;Node0x43831000</title>
<path fill="none" stroke="black" d="M171.208,-973.043C152.585,-967.571 134.22,-959.594 119,-948 106.027,-938.118 96.29,-923.365 89.2532,-909.116"/>
<polygon fill="black" stroke="black" points="92.3663,-907.508 85.0121,-899.882 86.0051,-910.43 92.3663,-907.508"/>
<text text-anchor="middle" x="179.5" y="-936.8" font-family="Times,serif" font-size="14.00">(v13 + 1) != v15</text>
</g>
<!-- Node0x437730c0 -->
<g id="node17" class="node"><title>Node0x437730c0</title>
<polygon fill="none" stroke="black" points="166,-816.5 166,-914.5 438,-914.5 438,-816.5 166,-816.5"/>
<text text-anchor="start" x="174" y="-899.3" font-family="Times,serif" font-size="14.00">0x8883dc0:</text>
<text text-anchor="start" x="174" y="-884.3" font-family="Times,serif" font-size="14.00"> g36 = v19</text>
<text text-anchor="start" x="174" y="-869.3" font-family="Times,serif" font-size="14.00"> g30 = v20</text>
<text text-anchor="start" x="174" y="-854.3" font-family="Times,serif" font-size="14.00"> g37 = (v15 if (v15 &gt; v18) else v18)</text>
<text text-anchor="start" x="174" y="-839.3" font-family="Times,serif" font-size="14.00"> v16 = v20</text>
<text text-anchor="start" x="174" y="-824.3" font-family="Times,serif" font-size="14.00"> v17 = v19</text>
</g>
<!-- Node0x43772e70&#45;&gt;Node0x437730c0 -->
<g id="edge18" class="edge"><title>Node0x43772e70&#45;&gt;Node0x437730c0</title>
<path fill="none" stroke="black" d="M275.776,-966.321C278.757,-954.972 282.777,-939.671 286.773,-924.462"/>
<polygon fill="black" stroke="black" points="290.228,-925.084 289.384,-914.523 283.458,-923.306 290.228,-925.084"/>
<text text-anchor="middle" x="347.5" y="-936.8" font-family="Times,serif" font-size="14.00">(v13 + 1) == v15</text>
</g>
<!-- Node0x438309d0 -->
<g id="node18" class="node"><title>Node0x438309d0</title>
<polygon fill="none" stroke="black" points="104,-442.5 104,-480.5 232,-480.5 232,-442.5 104,-442.5"/>
<text text-anchor="start" x="112" y="-465.3" font-family="Times,serif" font-size="14.00">0x8886ae0:</text>
<text text-anchor="start" x="112" y="-450.3" font-family="Times,serif" font-size="14.00"> v22 = (v11 &#45; 1)</text>
</g>
<!-- Node0x4382f6a0&#45;&gt;Node0x438309d0 -->
<g id="edge19" class="edge"><title>Node0x4382f6a0&#45;&gt;Node0x438309d0</title>
<path fill="none" stroke="black" d="M272.765,-642.371C242.218,-630.515 207.638,-611.682 187,-583 167.648,-556.106 164.853,-517.08 165.606,-490.795"/>
<polygon fill="black" stroke="black" points="169.106,-490.876 166.085,-480.721 162.113,-490.543 169.106,-490.876"/>
<text text-anchor="middle" x="259" y="-604.8" font-family="Times,serif" font-size="14.00">v17 &gt; v21</text>
</g>
<!-- Node0x43830b00 -->
<g id="node19" class="node"><title>Node0x43830b00</title>
<polygon fill="none" stroke="black" points="196.5,-499.5 196.5,-582.5 497.5,-582.5 497.5,-499.5 196.5,-499.5"/>
<text text-anchor="start" x="204.5" y="-567.3" font-family="Times,serif" font-size="14.00">0x10394db0:</text>
<text text-anchor="start" x="204.5" y="-552.3" font-family="Times,serif" font-size="14.00"> v23 = (v16 &#45; v21)</text>
<text text-anchor="start" x="204.5" y="-537.3" font-family="Times,serif" font-size="14.00"> g8 = (((v23 ^ v16) &amp; (v21 ^ v16)) &lt; 0)</text>
<text text-anchor="start" x="204.5" y="-522.3" font-family="Times,serif" font-size="14.00"> g7 = (v23 &lt; 0)</text>
<text text-anchor="start" x="204.5" y="-507.3" font-family="Times,serif" font-size="14.00"> g9 = (v16 == v21)</text>
</g>
<!-- Node0x4382f6a0&#45;&gt;Node0x43830b00 -->
<g id="edge20" class="edge"><title>Node0x4382f6a0&#45;&gt;Node0x43830b00</title>
<path fill="none" stroke="black" d="M337.604,-634.396C338.835,-622.287 340.351,-607.38 341.803,-593.101"/>
<polygon fill="black" stroke="black" points="345.315,-593.167 342.844,-582.865 338.35,-592.459 345.315,-593.167"/>
<text text-anchor="middle" x="384" y="-604.8" font-family="Times,serif" font-size="14.00">v17 &lt;= v21</text>
</g>
<!-- Node0x43831000&#45;&gt;Node0x43772e70 -->
<g id="edge21" class="edge"><title>Node0x43831000&#45;&gt;Node0x43772e70</title>
<path fill="none" stroke="black" d="M124.983,-899.643C135.292,-905.374 146.269,-910.823 157,-915 192.176,-928.692 209.307,-911.029 240,-933 248.502,-939.086 255.098,-948.297 259.977,-957.255"/>
<polygon fill="black" stroke="black" points="256.897,-958.924 264.448,-966.356 263.18,-955.837 256.897,-958.924"/>
</g>
<!-- Node0x437730c0&#45;&gt;Node0x4382f570 -->
<g id="edge22" class="edge"><title>Node0x437730c0&#45;&gt;Node0x4382f570</title>
<path fill="none" stroke="black" d="M316.282,-816.243C319.067,-806.835 321.937,-797.138 324.568,-788.248"/>
<polygon fill="black" stroke="black" points="327.938,-789.195 327.419,-778.613 321.225,-787.209 327.938,-789.195"/>
</g>
<!-- Node0x4382e1c0 -->
<g id="node20" class="node"><title>Node0x4382e1c0</title>
<polygon fill="none" stroke="black" points="376.5,-23.5 376.5,-76.5 477.5,-76.5 477.5,-23.5 376.5,-23.5"/>
<text text-anchor="start" x="384.5" y="-61.3" font-family="Times,serif" font-size="14.00">0x8889e00:</text>
<text text-anchor="start" x="384.5" y="-46.3" font-family="Times,serif" font-size="14.00"> g29 = v22</text>
<text text-anchor="start" x="384.5" y="-31.3" font-family="Times,serif" font-size="14.00"> v11 = v22</text>
</g>
<!-- Node0x438309d0&#45;&gt;Node0x4382e1c0 -->
<g id="edge23" class="edge"><title>Node0x438309d0&#45;&gt;Node0x4382e1c0</title>
<path fill="none" stroke="black" d="M168,-442.435C168,-422.407 168,-389.146 168,-360.5 168,-360.5 168,-360.5 168,-132.5 168,-91.1084 289.883,-68.1526 366.427,-57.8173"/>
<polygon fill="black" stroke="black" points="366.988,-61.2737 376.447,-56.501 366.077,-54.3333 366.988,-61.2737"/>
</g>
<!-- Node0x43830d40 -->
<g id="node21" class="node"><title>Node0x43830d40</title>
<polygon fill="none" stroke="black" points="285,-385.5 285,-423.5 409,-423.5 409,-385.5 285,-385.5"/>
<text text-anchor="start" x="293" y="-408.3" font-family="Times,serif" font-size="14.00">0x8889440:</text>
<text text-anchor="start" x="293" y="-393.3" font-family="Times,serif" font-size="14.00"> if (v16 &gt; v21):</text>
</g>
<!-- Node0x43830b00&#45;&gt;Node0x43830d40 -->
<g id="edge24" class="edge"><title>Node0x43830b00&#45;&gt;Node0x43830d40</title>
<path fill="none" stroke="black" d="M347,-499.281C347,-478.112 347,-452.766 347,-433.764"/>
<polygon fill="black" stroke="black" points="350.5,-433.658 347,-423.658 343.5,-433.658 350.5,-433.658"/>
</g>
<!-- Node0x4382e1c0&#45;&gt;Node0x4382e5d0 -->
<g id="edge25" class="edge"><title>Node0x4382e1c0&#45;&gt;Node0x4382e5d0</title>
<path fill="none" stroke="black" d="M477.522,-56.8595C522.087,-65.1745 580,-85.0988 580,-132.5 580,-1318.5 580,-1318.5 580,-1318.5 580,-1360.39 573.585,-1408.57 568.879,-1438.28"/>
<polygon fill="black" stroke="black" points="565.393,-1437.91 567.238,-1448.34 572.302,-1439.03 565.393,-1437.91"/>
</g>
<!-- Node0x438312f0 -->
<g id="node22" class="node"><title>Node0x438312f0</title>
<polygon fill="none" stroke="black" points="196.5,-190.5 196.5,-333.5 429.5,-333.5 429.5,-190.5 196.5,-190.5"/>
<text text-anchor="start" x="204.5" y="-318.3" font-family="Times,serif" font-size="14.00">0x8888390:</text>
<text text-anchor="start" x="204.5" y="-303.3" font-family="Times,serif" font-size="14.00"> g38 = v1</text>
<text text-anchor="start" x="204.5" y="-288.3" font-family="Times,serif" font-size="14.00"> g39 = v2</text>
<text text-anchor="start" x="204.5" y="-273.3" font-family="Times,serif" font-size="14.00"> g40 = v3</text>
<text text-anchor="start" x="204.5" y="-258.3" font-family="Times,serif" font-size="14.00"> v24</text>
<text text-anchor="start" x="204.5" y="-243.3" font-family="Times,serif" font-size="14.00"> g34 = v24</text>
<text text-anchor="start" x="204.5" y="-228.3" font-family="Times,serif" font-size="14.00"> IntToPtrCastExpr&lt;ptr&gt;(v4)()</text>
<text text-anchor="start" x="204.5" y="-213.3" font-family="Times,serif" font-size="14.00"> v12 = g35</text>
<text text-anchor="start" x="204.5" y="-198.3" font-family="Times,serif" font-size="14.00"> v11 = g29</text>
</g>
<!-- Node0x43830d40&#45;&gt;Node0x438312f0 -->
<g id="edge26" class="edge"><title>Node0x43830d40&#45;&gt;Node0x438312f0</title>
<path fill="none" stroke="black" d="M342.625,-385.42C339.936,-374.311 336.283,-359.214 332.46,-343.417"/>
<polygon fill="black" stroke="black" points="335.819,-342.416 330.065,-333.519 329.015,-344.062 335.819,-342.416"/>
<text text-anchor="middle" x="375" y="-355.8" font-family="Times,serif" font-size="14.00">v16 &gt; v21</text>
</g>
<!-- Node0x43830f00 -->
<g id="node23" class="node"><title>Node0x43830f00</title>
<polygon fill="none" stroke="black" points="359.5,-114.5 359.5,-152.5 494.5,-152.5 494.5,-114.5 359.5,-114.5"/>
<text text-anchor="start" x="367.5" y="-137.3" font-family="Times,serif" font-size="14.00">0x8889a10:</text>
<text text-anchor="start" x="367.5" y="-122.3" font-family="Times,serif" font-size="14.00"> v22 = (v11 + 1)</text>
</g>
<!-- Node0x43830d40&#45;&gt;Node0x43830f00 -->
<g id="edge27" class="edge"><title>Node0x43830d40&#45;&gt;Node0x43830f00</title>
<path fill="none" stroke="black" d="M389.31,-385.378C398.687,-380.242 408.156,-374.086 416,-367 429.08,-355.184 432.892,-350.871 438,-334 455.863,-275.002 443.626,-201.78 434.47,-162.511"/>
<polygon fill="black" stroke="black" points="437.823,-161.49 432.055,-152.604 431.022,-163.148 437.823,-161.49"/>
<text text-anchor="middle" x="491" y="-258.3" font-family="Times,serif" font-size="14.00">v16 &lt;= v21</text>
</g>
<!-- Node0x438312f0&#45;&gt;Node0x43830f00 -->
<g id="edge28" class="edge"><title>Node0x438312f0&#45;&gt;Node0x43830f00</title>
<path fill="none" stroke="black" d="M376.666,-190.353C386.449,-179.497 395.966,-168.937 404.044,-159.973"/>
<polygon fill="black" stroke="black" points="406.648,-162.312 410.742,-152.54 401.448,-157.626 406.648,-162.312"/>
</g>
<!-- Node0x43830f00&#45;&gt;Node0x4382e1c0 -->
<g id="edge29" class="edge"><title>Node0x43830f00&#45;&gt;Node0x4382e1c0</title>
<path fill="none" stroke="black" d="M427,-114.413C427,-106.285 427,-96.3937 427,-86.8642"/>
<polygon fill="black" stroke="black" points="430.5,-86.7661 427,-76.7661 423.5,-86.7662 430.5,-86.7661"/>
</g>
<!-- Node0x242fa4b0 -->
<g id="node24" class="node"><title>Node0x242fa4b0</title>
<polygon fill="none" stroke="black" points="603,-2293.5 603,-2329.5 657,-2329.5 657,-2293.5 603,-2293.5"/>
<text text-anchor="start" x="611" y="-2307.8" font-family="Times,serif" font-size="14.00">exit:</text>
</g>
</g>
</svg>
