<?xml version="1.0" encoding="UTF-8" standalone="no"?>
<!DOCTYPE svg PUBLIC "-//W3C//DTD SVG 1.1//EN"
 "http://www.w3.org/Graphics/SVG/1.1/DTD/svg11.dtd">
<!-- Generated by graphviz version 2.38.0 (20140413.2041)
 -->
<!-- Title: Control&#45;flow graph for function &#39;SpInit()&#39;. Pages: 1 -->
<svg width="318pt" height="216pt"
 viewBox="0.00 0.00 318.00 216.00" xmlns="http://www.w3.org/2000/svg" xmlns:xlink="http://www.w3.org/1999/xlink">
<g id="graph0" class="graph" transform="scale(1 1) rotate(0) translate(4 212)">
<title>Control&#45;flow graph for function &#39;SpInit()&#39;.</title>
<polygon fill="white" stroke="none" points="-4,4 -4,-212 314,-212 314,4 -4,4"/>
<text text-anchor="middle" x="155" y="-7.8" font-family="Times,serif" font-size="14.00">Control&#45;flow graph for function &#39;SpInit()&#39;.</text>
<!-- Node0x47608c30 -->
<g id="node1" class="node"><title>Node0x47608c30</title>
<polygon fill="none" stroke="black" points="125.5,-171.5 125.5,-207.5 184.5,-207.5 184.5,-171.5 125.5,-171.5"/>
<text text-anchor="start" x="133.5" y="-185.8" font-family="Times,serif" font-size="14.00">entry:</text>
</g>
<!-- Node0x151a4790 -->
<g id="node2" class="node"><title>Node0x151a4790</title>
<polygon fill="none" stroke="black" points="83.5,-96.5 83.5,-134.5 226.5,-134.5 226.5,-96.5 83.5,-96.5"/>
<text text-anchor="start" x="91.5" y="-119.3" font-family="Times,serif" font-size="14.00">0x835ac90:</text>
<text text-anchor="start" x="91.5" y="-104.3" font-family="Times,serif" font-size="14.00"> function_1738c()</text>
</g>
<!-- Node0x47608c30&#45;&gt;Node0x151a4790 -->
<g id="edge1" class="edge"><title>Node0x47608c30&#45;&gt;Node0x151a4790</title>
<path fill="none" stroke="black" d="M155,-171.437C155,-163.487 155,-153.813 155,-144.813"/>
<polygon fill="black" stroke="black" points="158.5,-144.699 155,-134.699 151.5,-144.699 158.5,-144.699"/>
</g>
<!-- Node0x47608500 -->
<g id="node3" class="node"><title>Node0x47608500</title>
<polygon fill="none" stroke="black" points="128,-23.5 128,-59.5 182,-59.5 182,-23.5 128,-23.5"/>
<text text-anchor="start" x="136" y="-37.8" font-family="Times,serif" font-size="14.00">exit:</text>
</g>
<!-- Node0x151a4790&#45;&gt;Node0x47608500 -->
<g id="edge2" class="edge"><title>Node0x151a4790&#45;&gt;Node0x47608500</title>
<path fill="none" stroke="black" d="M155,-96.3314C155,-88.394 155,-78.9095 155,-70.1285"/>
<polygon fill="black" stroke="black" points="158.5,-69.9177 155,-59.9177 151.5,-69.9177 158.5,-69.9177"/>
</g>
</g>
</svg>
