<?xml version="1.0" encoding="UTF-8" standalone="no"?>
<!DOCTYPE svg PUBLIC "-//W3C//DTD SVG 1.1//EN"
 "http://www.w3.org/Graphics/SVG/1.1/DTD/svg11.dtd">
<!-- Generated by graphviz version 2.38.0 (20140413.2041)
 -->
<!-- Title: Control&#45;flow graph for function &#39;function_f9fc()&#39;. Pages: 1 -->
<svg width="513pt" height="1009pt"
 viewBox="0.00 0.00 512.50 1009.00" xmlns="http://www.w3.org/2000/svg" xmlns:xlink="http://www.w3.org/1999/xlink">
<g id="graph0" class="graph" transform="scale(1 1) rotate(0) translate(4 1005)">
<title>Control&#45;flow graph for function &#39;function_f9fc()&#39;.</title>
<polygon fill="white" stroke="none" points="-4,4 -4,-1005 508.5,-1005 508.5,4 -4,4"/>
<text text-anchor="middle" x="252.25" y="-7.8" font-family="Times,serif" font-size="14.00">Control&#45;flow graph for function &#39;function_f9fc()&#39;.</text>
<!-- Node0x33644360 -->
<g id="node1" class="node"><title>Node0x33644360</title>
<polygon fill="none" stroke="black" points="159,-964.5 159,-1000.5 218,-1000.5 218,-964.5 159,-964.5"/>
<text text-anchor="start" x="167" y="-978.8" font-family="Times,serif" font-size="14.00">entry:</text>
</g>
<!-- Node0x32b48e80 -->
<g id="node2" class="node"><title>Node0x32b48e80</title>
<polygon fill="none" stroke="black" points="19.5,-753.5 19.5,-926.5 357.5,-926.5 357.5,-753.5 19.5,-753.5"/>
<text text-anchor="start" x="27.5" y="-911.3" font-family="Times,serif" font-size="14.00">0x3c4db0c0:</text>
<text text-anchor="start" x="27.5" y="-896.3" font-family="Times,serif" font-size="14.00"> v1 = g38</text>
<text text-anchor="start" x="27.5" y="-881.3" font-family="Times,serif" font-size="14.00"> v2 = g32</text>
<text text-anchor="start" x="27.5" y="-866.3" font-family="Times,serif" font-size="14.00"> v3 = g35</text>
<text text-anchor="start" x="27.5" y="-851.3" font-family="Times,serif" font-size="14.00"> g37 = 0</text>
<text text-anchor="start" x="27.5" y="-836.3" font-family="Times,serif" font-size="14.00"> v4 = g29</text>
<text text-anchor="start" x="27.5" y="-821.3" font-family="Times,serif" font-size="14.00"> g9 = (v4 == 0)</text>
<text text-anchor="start" x="27.5" y="-806.3" font-family="Times,serif" font-size="14.00"> v5 = g30</text>
<text text-anchor="start" x="27.5" y="-791.3" font-family="Times,serif" font-size="14.00"> g38 = v5</text>
<text text-anchor="start" x="27.5" y="-776.3" font-family="Times,serif" font-size="14.00"> *(IntToPtrCastExpr&lt;ptr&gt;((v5 + 2370))) = 0</text>
<text text-anchor="start" x="27.5" y="-761.3" font-family="Times,serif" font-size="14.00"> v6</text>
</g>
<!-- Node0x33644360&#45;&gt;Node0x32b48e80 -->
<g id="edge1" class="edge"><title>Node0x33644360&#45;&gt;Node0x32b48e80</title>
<path fill="none" stroke="black" d="M188.5,-964.272C188.5,-956.72 188.5,-947.213 188.5,-936.845"/>
<polygon fill="black" stroke="black" points="192,-936.676 188.5,-926.676 185,-936.676 192,-936.676"/>
</g>
<!-- Node0x32b46430 -->
<g id="node3" class="node"><title>Node0x32b46430</title>
<polygon fill="none" stroke="black" points="133.5,-677.5 133.5,-715.5 243.5,-715.5 243.5,-677.5 133.5,-677.5"/>
<text text-anchor="start" x="141.5" y="-700.3" font-family="Times,serif" font-size="14.00">0x7891eb0:</text>
<text text-anchor="start" x="141.5" y="-685.3" font-family="Times,serif" font-size="14.00"> if (v4 == 0):</text>
</g>
<!-- Node0x32b48e80&#45;&gt;Node0x32b46430 -->
<g id="edge2" class="edge"><title>Node0x32b48e80&#45;&gt;Node0x32b46430</title>
<path fill="none" stroke="black" d="M188.5,-753.425C188.5,-743.55 188.5,-734.079 188.5,-725.829"/>
<polygon fill="black" stroke="black" points="192,-725.754 188.5,-715.754 185,-725.754 192,-725.754"/>
</g>
<!-- Node0x32b49a80 -->
<g id="node4" class="node"><title>Node0x32b49a80</title>
<polygon fill="none" stroke="black" points="0,-410.5 0,-523.5 233,-523.5 233,-410.5 0,-410.5"/>
<text text-anchor="start" x="8" y="-508.3" font-family="Times,serif" font-size="14.00">0x7891570:</text>
<text text-anchor="start" x="8" y="-493.3" font-family="Times,serif" font-size="14.00"> g29 = (g38 + 2370)</text>
<text text-anchor="start" x="8" y="-478.3" font-family="Times,serif" font-size="14.00"> g38 = v1</text>
<text text-anchor="start" x="8" y="-463.3" font-family="Times,serif" font-size="14.00"> g32 = v2</text>
<text text-anchor="start" x="8" y="-448.3" font-family="Times,serif" font-size="14.00"> g34 = v6</text>
<text text-anchor="start" x="8" y="-433.3" font-family="Times,serif" font-size="14.00"> IntToPtrCastExpr&lt;ptr&gt;(v3)()</text>
<text text-anchor="start" x="8" y="-418.3" font-family="Times,serif" font-size="14.00"> return</text>
</g>
<!-- Node0x32b46430&#45;&gt;Node0x32b49a80 -->
<g id="edge3" class="edge"><title>Node0x32b46430&#45;&gt;Node0x32b49a80</title>
<path fill="none" stroke="black" d="M170.379,-677.465C158.376,-664.353 143.433,-645.543 135.5,-626 123.741,-597.032 118.666,-562.802 116.662,-533.622"/>
<polygon fill="black" stroke="black" points="120.15,-533.309 116.076,-523.528 113.162,-533.715 120.15,-533.309"/>
<text text-anchor="middle" x="184.5" y="-647.8" font-family="Times,serif" font-size="14.00">v4 == 0</text>
</g>
<!-- Node0x32b47610 -->
<g id="node5" class="node"><title>Node0x32b47610</title>
<polygon fill="none" stroke="black" points="144.5,-542.5 144.5,-625.5 504.5,-625.5 504.5,-542.5 144.5,-542.5"/>
<text text-anchor="start" x="152.5" y="-610.3" font-family="Times,serif" font-size="14.00">0x10e31d20:</text>
<text text-anchor="start" x="152.5" y="-595.3" font-family="Times,serif" font-size="14.00"> v7 = g29</text>
<text text-anchor="start" x="152.5" y="-580.3" font-family="Times,serif" font-size="14.00"> v8 = (*(IntToPtrCastExpr&lt;ptr&gt;((v7 + 8))) &amp; 5)</text>
<text text-anchor="start" x="152.5" y="-565.3" font-family="Times,serif" font-size="14.00"> g37 = v8</text>
<text text-anchor="start" x="152.5" y="-550.3" font-family="Times,serif" font-size="14.00"> g9 = (v8 == 5)</text>
</g>
<!-- Node0x32b46430&#45;&gt;Node0x32b47610 -->
<g id="edge4" class="edge"><title>Node0x32b46430&#45;&gt;Node0x32b47610</title>
<path fill="none" stroke="black" d="M210.958,-677.253C226.21,-664.861 247.12,-647.872 266.841,-631.848"/>
<polygon fill="black" stroke="black" points="269.062,-634.553 274.616,-625.531 264.648,-629.12 269.062,-634.553"/>
<text text-anchor="middle" x="275.5" y="-647.8" font-family="Times,serif" font-size="14.00">v4 != 0</text>
</g>
<!-- Node0x32b49c80 -->
<g id="node6" class="node"><title>Node0x32b49c80</title>
<polygon fill="none" stroke="black" points="131.5,-23.5 131.5,-59.5 185.5,-59.5 185.5,-23.5 131.5,-23.5"/>
<text text-anchor="start" x="139.5" y="-37.8" font-family="Times,serif" font-size="14.00">exit:</text>
</g>
<!-- Node0x32b49a80&#45;&gt;Node0x32b49c80 -->
<g id="edge5" class="edge"><title>Node0x32b49a80&#45;&gt;Node0x32b49c80</title>
<path fill="none" stroke="black" d="M116.5,-410.471C116.5,-385.426 116.5,-355.475 116.5,-328.5 116.5,-328.5 116.5,-328.5 116.5,-145.5 116.5,-117.701 129.78,-88.5967 141.406,-68.4456"/>
<polygon fill="black" stroke="black" points="144.419,-70.2265 146.577,-59.8538 138.421,-66.6167 144.419,-70.2265"/>
</g>
<!-- Node0x33646440 -->
<g id="node7" class="node"><title>Node0x33646440</title>
<polygon fill="none" stroke="black" points="269.5,-353.5 269.5,-391.5 379.5,-391.5 379.5,-353.5 269.5,-353.5"/>
<text text-anchor="start" x="277.5" y="-376.3" font-family="Times,serif" font-size="14.00">0x7893bf0:</text>
<text text-anchor="start" x="277.5" y="-361.3" font-family="Times,serif" font-size="14.00"> if (v8 == 5):</text>
</g>
<!-- Node0x32b47610&#45;&gt;Node0x33646440 -->
<g id="edge6" class="edge"><title>Node0x32b47610&#45;&gt;Node0x33646440</title>
<path fill="none" stroke="black" d="M324.5,-542.109C324.5,-500.777 324.5,-437.997 324.5,-401.843"/>
<polygon fill="black" stroke="black" points="328,-401.531 324.5,-391.531 321,-401.531 328,-401.531"/>
</g>
<!-- Node0x33647fe0 -->
<g id="node8" class="node"><title>Node0x33647fe0</title>
<polygon fill="none" stroke="black" points="161.5,-233.5 161.5,-301.5 325.5,-301.5 325.5,-233.5 161.5,-233.5"/>
<text text-anchor="start" x="169.5" y="-286.3" font-family="Times,serif" font-size="14.00">0x7893420:</text>
<text text-anchor="start" x="169.5" y="-271.3" font-family="Times,serif" font-size="14.00"> g29 = (v7 + 44)</text>
<text text-anchor="start" x="169.5" y="-256.3" font-family="Times,serif" font-size="14.00"> g30 = (g30 + 2370)</text>
<text text-anchor="start" x="169.5" y="-241.3" font-family="Times,serif" font-size="14.00"> function_aaec()</text>
</g>
<!-- Node0x33646440&#45;&gt;Node0x33647fe0 -->
<g id="edge7" class="edge"><title>Node0x33646440&#45;&gt;Node0x33647fe0</title>
<path fill="none" stroke="black" d="M304.511,-353.273C298.764,-347.645 292.659,-341.272 287.5,-335 281.102,-327.222 274.787,-318.495 269.025,-309.985"/>
<polygon fill="black" stroke="black" points="271.905,-307.995 263.464,-301.592 266.069,-311.861 271.905,-307.995"/>
<text text-anchor="middle" x="317.5" y="-323.8" font-family="Times,serif" font-size="14.00">v8 == 5</text>
</g>
<!-- Node0x336442f0 -->
<g id="node9" class="node"><title>Node0x336442f0</title>
<polygon fill="none" stroke="black" points="145,-97.5 145,-195.5 378,-195.5 378,-97.5 145,-97.5"/>
<text text-anchor="start" x="153" y="-180.3" font-family="Times,serif" font-size="14.00">0x7893f00:</text>
<text text-anchor="start" x="153" y="-165.3" font-family="Times,serif" font-size="14.00"> g29 = (g38 + 2370)</text>
<text text-anchor="start" x="153" y="-150.3" font-family="Times,serif" font-size="14.00"> g38 = v1</text>
<text text-anchor="start" x="153" y="-135.3" font-family="Times,serif" font-size="14.00"> g32 = v2</text>
<text text-anchor="start" x="153" y="-120.3" font-family="Times,serif" font-size="14.00"> g34 = v6</text>
<text text-anchor="start" x="153" y="-105.3" font-family="Times,serif" font-size="14.00"> IntToPtrCastExpr&lt;ptr&gt;(v3)()</text>
</g>
<!-- Node0x33646440&#45;&gt;Node0x336442f0 -->
<g id="edge8" class="edge"><title>Node0x33646440&#45;&gt;Node0x336442f0</title>
<path fill="none" stroke="black" d="M338.852,-353.155C342.382,-347.624 345.671,-341.332 347.5,-335 355.462,-307.429 362.876,-295.28 334.5,-233 329.868,-222.834 323.659,-212.94 316.809,-203.705"/>
<polygon fill="black" stroke="black" points="319.544,-201.521 310.647,-195.768 314.015,-205.814 319.544,-201.521"/>
<text text-anchor="middle" x="381.5" y="-263.8" font-family="Times,serif" font-size="14.00">v8 != 5</text>
</g>
<!-- Node0x33647fe0&#45;&gt;Node0x336442f0 -->
<g id="edge9" class="edge"><title>Node0x33647fe0&#45;&gt;Node0x336442f0</title>
<path fill="none" stroke="black" d="M248.514,-233.352C249.827,-224.675 251.281,-215.061 252.727,-205.498"/>
<polygon fill="black" stroke="black" points="256.19,-206.005 254.225,-195.594 249.269,-204.958 256.19,-206.005"/>
</g>
<!-- Node0x336442f0&#45;&gt;Node0x32b49c80 -->
<g id="edge10" class="edge"><title>Node0x336442f0&#45;&gt;Node0x32b49c80</title>
<path fill="none" stroke="black" d="M213.317,-97.3173C202.846,-86.8459 192.191,-76.1908 183.093,-67.0933"/>
<polygon fill="black" stroke="black" points="185.402,-64.4523 175.856,-59.8561 180.452,-69.4021 185.402,-64.4523"/>
</g>
</g>
</svg>
