<?xml version="1.0" encoding="UTF-8" standalone="no"?>
<!DOCTYPE svg PUBLIC "-//W3C//DTD SVG 1.1//EN"
 "http://www.w3.org/Graphics/SVG/1.1/DTD/svg11.dtd">
<!-- Generated by graphviz version 2.38.0 (20140413.2041)
 -->
<!-- Title: Control&#45;flow graph for function &#39;function_43a0()&#39;. Pages: 1 -->
<svg width="1544pt" height="4060pt"
 viewBox="0.00 0.00 1544.00 4060.00" xmlns="http://www.w3.org/2000/svg" xmlns:xlink="http://www.w3.org/1999/xlink">
<g id="graph0" class="graph" transform="scale(1 1) rotate(0) translate(4 4056)">
<title>Control&#45;flow graph for function &#39;function_43a0()&#39;.</title>
<polygon fill="white" stroke="none" points="-4,4 -4,-4056 1540,-4056 1540,4 -4,4"/>
<text text-anchor="middle" x="768" y="-7.8" font-family="Times,serif" font-size="14.00">Control&#45;flow graph for function &#39;function_43a0()&#39;.</text>
<!-- Node0x4767d7d0 -->
<g id="node1" class="node"><title>Node0x4767d7d0</title>
<polygon fill="none" stroke="black" points="327,-4015.5 327,-4051.5 386,-4051.5 386,-4015.5 327,-4015.5"/>
<text text-anchor="start" x="335" y="-4029.8" font-family="Times,serif" font-size="14.00">entry:</text>
</g>
<!-- Node0x3da90100 -->
<g id="node2" class="node"><title>Node0x3da90100</title>
<polygon fill="none" stroke="black" points="188,-3699.5 188,-3977.5 525,-3977.5 525,-3699.5 188,-3699.5"/>
<text text-anchor="start" x="196" y="-3962.3" font-family="Times,serif" font-size="14.00">0x3c87edd0:</text>
<text text-anchor="start" x="196" y="-3947.3" font-family="Times,serif" font-size="14.00"> v1 = g38</text>
<text text-anchor="start" x="196" y="-3932.3" font-family="Times,serif" font-size="14.00"> v2 = g39</text>
<text text-anchor="start" x="196" y="-3917.3" font-family="Times,serif" font-size="14.00"> v3 = g40</text>
<text text-anchor="start" x="196" y="-3902.3" font-family="Times,serif" font-size="14.00"> v4 = g32</text>
<text text-anchor="start" x="196" y="-3887.3" font-family="Times,serif" font-size="14.00"> v5 = g29</text>
<text text-anchor="start" x="196" y="-3872.3" font-family="Times,serif" font-size="14.00"> g38 = v5</text>
<text text-anchor="start" x="196" y="-3857.3" font-family="Times,serif" font-size="14.00"> v6 = g30</text>
<text text-anchor="start" x="196" y="-3842.3" font-family="Times,serif" font-size="14.00"> g39 = v6</text>
<text text-anchor="start" x="196" y="-3827.3" font-family="Times,serif" font-size="14.00"> g40 = 0</text>
<text text-anchor="start" x="196" y="-3812.3" font-family="Times,serif" font-size="14.00"> v7 = IntToPtrCastExpr&lt;ptr&gt;(g35)</text>
<text text-anchor="start" x="196" y="-3797.3" font-family="Times,serif" font-size="14.00"> v8 = *(IntToPtrCastExpr&lt;ptr&gt;((v5 + 124)))</text>
<text text-anchor="start" x="196" y="-3782.3" font-family="Times,serif" font-size="14.00"> v9 = (v8 &#45; v6)</text>
<text text-anchor="start" x="196" y="-3767.3" font-family="Times,serif" font-size="14.00"> g8 = (((v9 ^ v8) &amp; (v8 ^ v6)) &lt; 0)</text>
<text text-anchor="start" x="196" y="-3752.3" font-family="Times,serif" font-size="14.00"> g7 = (v9 &lt; 0)</text>
<text text-anchor="start" x="196" y="-3737.3" font-family="Times,serif" font-size="14.00"> g9 = (v8 == v6)</text>
<text text-anchor="start" x="196" y="-3722.3" font-family="Times,serif" font-size="14.00"> v10</text>
<text text-anchor="start" x="196" y="-3707.3" font-family="Times,serif" font-size="14.00"> v11</text>
</g>
<!-- Node0x4767d7d0&#45;&gt;Node0x3da90100 -->
<g id="edge1" class="edge"><title>Node0x4767d7d0&#45;&gt;Node0x3da90100</title>
<path fill="none" stroke="black" d="M356.5,-4015.37C356.5,-4007.96 356.5,-3998.53 356.5,-3987.92"/>
<polygon fill="black" stroke="black" points="360,-3987.85 356.5,-3977.85 353,-3987.85 360,-3987.85"/>
</g>
<!-- Node0xec438a0 -->
<g id="node3" class="node"><title>Node0xec438a0</title>
<polygon fill="none" stroke="black" points="303.5,-3608.5 303.5,-3661.5 409.5,-3661.5 409.5,-3608.5 303.5,-3608.5"/>
<text text-anchor="start" x="311.5" y="-3646.3" font-family="Times,serif" font-size="14.00">0x5372880:</text>
<text text-anchor="start" x="311.5" y="-3631.3" font-family="Times,serif" font-size="14.00"> if (v8 &lt; v6):</text>
<text text-anchor="start" x="311.5" y="-3616.3" font-family="Times,serif" font-size="14.00"> else:</text>
</g>
<!-- Node0x3da90100&#45;&gt;Node0xec438a0 -->
<g id="edge2" class="edge"><title>Node0x3da90100&#45;&gt;Node0xec438a0</title>
<path fill="none" stroke="black" d="M356.5,-3699.48C356.5,-3689.5 356.5,-3680.08 356.5,-3671.71"/>
<polygon fill="black" stroke="black" points="360,-3671.7 356.5,-3661.7 353,-3671.7 360,-3671.7"/>
</g>
<!-- Node0xec43680 -->
<g id="node4" class="node"><title>Node0xec43680</title>
<polygon fill="none" stroke="black" points="458,-3518.5 458,-3556.5 559,-3556.5 559,-3518.5 458,-3518.5"/>
<text text-anchor="start" x="466" y="-3541.3" font-family="Times,serif" font-size="14.00">0x5372760:</text>
<text text-anchor="start" x="466" y="-3526.3" font-family="Times,serif" font-size="14.00"> while True:</text>
</g>
<!-- Node0xec438a0&#45;&gt;Node0xec43680 -->
<g id="edge3" class="edge"><title>Node0xec438a0&#45;&gt;Node0xec43680</title>
<path fill="none" stroke="black" d="M397.233,-3608.41C420.212,-3593.97 448.719,-3576.06 471.125,-3561.98"/>
<polygon fill="black" stroke="black" points="473.092,-3564.88 479.698,-3556.6 469.368,-3558.95 473.092,-3564.88"/>
<text text-anchor="middle" x="474.5" y="-3578.8" font-family="Times,serif" font-size="14.00">v8 &lt; v6</text>
</g>
<!-- Node0x17977d70 -->
<g id="node5" class="node"><title>Node0x17977d70</title>
<polygon fill="none" stroke="black" points="0,-3356.5 0,-3499.5 493,-3499.5 493,-3356.5 0,-3356.5"/>
<text text-anchor="start" x="8" y="-3484.3" font-family="Times,serif" font-size="14.00">0x53729c0:</text>
<text text-anchor="start" x="8" y="-3469.3" font-family="Times,serif" font-size="14.00"> g29 = 0</text>
<text text-anchor="start" x="8" y="-3454.3" font-family="Times,serif" font-size="14.00"> v10 = g34</text>
<text text-anchor="start" x="8" y="-3439.3" font-family="Times,serif" font-size="14.00"> g38 = *(IntToPtrCastExpr&lt;ptr&gt;((v10 + 4)))</text>
<text text-anchor="start" x="8" y="-3424.3" font-family="Times,serif" font-size="14.00"> g39 = *(IntToPtrCastExpr&lt;ptr&gt;((v10 + 8)))</text>
<text text-anchor="start" x="8" y="-3409.3" font-family="Times,serif" font-size="14.00"> g40 = *(IntToPtrCastExpr&lt;ptr&gt;((v10 + 12)))</text>
<text text-anchor="start" x="8" y="-3394.3" font-family="Times,serif" font-size="14.00"> g32 = *(IntToPtrCastExpr&lt;ptr&gt;((v10 + 16)))</text>
<text text-anchor="start" x="8" y="-3379.3" font-family="Times,serif" font-size="14.00"> g34 = *(IntToPtrCastExpr&lt;ptr&gt;((v10 + 20)))</text>
<text text-anchor="start" x="8" y="-3364.3" font-family="Times,serif" font-size="14.00"> IntToPtrCastExpr&lt;ptr&gt;(*(IntToPtrCastExpr&lt;ptr&gt;((v10 + 24))))()</text>
</g>
<!-- Node0xec438a0&#45;&gt;Node0x17977d70 -->
<g id="edge4" class="edge"><title>Node0xec438a0&#45;&gt;Node0x17977d70</title>
<path fill="none" stroke="black" d="M342.791,-3608.45C329.411,-3583.52 308.349,-3544.26 289.331,-3508.82"/>
<polygon fill="black" stroke="black" points="292.358,-3507.06 284.546,-3499.9 286.19,-3510.37 292.358,-3507.06"/>
<text text-anchor="middle" x="367.5" y="-3578.8" font-family="Times,serif" font-size="14.00">v8 &gt;= v6</text>
</g>
<!-- Node0x21d64680 -->
<g id="node6" class="node"><title>Node0x21d64680</title>
<polygon fill="none" stroke="black" points="538.5,-3239.5 538.5,-3337.5 1108.5,-3337.5 1108.5,-3239.5 538.5,-3239.5"/>
<text text-anchor="start" x="546.5" y="-3322.3" font-family="Times,serif" font-size="14.00">0x1ca77490:</text>
<text text-anchor="start" x="546.5" y="-3307.3" font-family="Times,serif" font-size="14.00"> v12 = *(IntToPtrCastExpr&lt;ptr&gt;((*(IntToPtrCastExpr&lt;ptr&gt;((v5 + 4))) + 4)))</text>
<text text-anchor="start" x="546.5" y="-3292.3" font-family="Times,serif" font-size="14.00"> g37 = v12</text>
<text text-anchor="start" x="546.5" y="-3277.3" font-family="Times,serif" font-size="14.00"> g8 = False</text>
<text text-anchor="start" x="546.5" y="-3262.3" font-family="Times,serif" font-size="14.00"> g7 = (v12 &lt; 0)</text>
<text text-anchor="start" x="546.5" y="-3247.3" font-family="Times,serif" font-size="14.00"> g9 = (v12 == 0)</text>
</g>
<!-- Node0xec43680&#45;&gt;Node0x21d64680 -->
<g id="edge5" class="edge"><title>Node0xec43680&#45;&gt;Node0x21d64680</title>
<path fill="none" stroke="black" d="M531.663,-3518.34C577.972,-3482.02 683.59,-3399.21 754.238,-3343.81"/>
<polygon fill="black" stroke="black" points="756.535,-3346.46 762.244,-3337.53 752.216,-3340.95 756.535,-3346.46"/>
<text text-anchor="middle" x="747.5" y="-3424.3" font-family="Times,serif" font-size="14.00">True</text>
</g>
<!-- Node0x346a6c50 -->
<g id="node7" class="node"><title>Node0x346a6c50</title>
<polygon fill="none" stroke="black" points="422,-97.5 422,-240.5 915,-240.5 915,-97.5 422,-97.5"/>
<text text-anchor="start" x="430" y="-225.3" font-family="Times,serif" font-size="14.00">0x5374b80:</text>
<text text-anchor="start" x="430" y="-210.3" font-family="Times,serif" font-size="14.00"> g29 = 1</text>
<text text-anchor="start" x="430" y="-195.3" font-family="Times,serif" font-size="14.00"> v11 = g34</text>
<text text-anchor="start" x="430" y="-180.3" font-family="Times,serif" font-size="14.00"> g38 = *(IntToPtrCastExpr&lt;ptr&gt;((v11 + 4)))</text>
<text text-anchor="start" x="430" y="-165.3" font-family="Times,serif" font-size="14.00"> g39 = *(IntToPtrCastExpr&lt;ptr&gt;((v11 + 8)))</text>
<text text-anchor="start" x="430" y="-150.3" font-family="Times,serif" font-size="14.00"> g40 = *(IntToPtrCastExpr&lt;ptr&gt;((v11 + 12)))</text>
<text text-anchor="start" x="430" y="-135.3" font-family="Times,serif" font-size="14.00"> g32 = *(IntToPtrCastExpr&lt;ptr&gt;((v11 + 16)))</text>
<text text-anchor="start" x="430" y="-120.3" font-family="Times,serif" font-size="14.00"> g34 = *(IntToPtrCastExpr&lt;ptr&gt;((v11 + 20)))</text>
<text text-anchor="start" x="430" y="-105.3" font-family="Times,serif" font-size="14.00"> IntToPtrCastExpr&lt;ptr&gt;(*(IntToPtrCastExpr&lt;ptr&gt;((v11 + 24))))()</text>
</g>
<!-- Node0x17977d70&#45;&gt;Node0x346a6c50 -->
<g id="edge6" class="edge"><title>Node0x17977d70&#45;&gt;Node0x346a6c50</title>
<path fill="none" stroke="black" d="M285.45,-3356.29C303.278,-3317.52 320.5,-3267.93 320.5,-3221 320.5,-3221 320.5,-3221 320.5,-349 320.5,-290.395 360.011,-250.961 412.406,-224.432"/>
<polygon fill="black" stroke="black" points="414.157,-227.473 421.623,-219.956 411.099,-221.176 414.157,-227.473"/>
</g>
<!-- Node0x27d5a720 -->
<g id="node8" class="node"><title>Node0x27d5a720</title>
<polygon fill="none" stroke="black" points="771,-3163.5 771,-3201.5 890,-3201.5 890,-3163.5 771,-3163.5"/>
<text text-anchor="start" x="779" y="-3186.3" font-family="Times,serif" font-size="14.00">0x536dd70:</text>
<text text-anchor="start" x="779" y="-3171.3" font-family="Times,serif" font-size="14.00"> if (v12 == 0):</text>
</g>
<!-- Node0x21d64680&#45;&gt;Node0x27d5a720 -->
<g id="edge7" class="edge"><title>Node0x21d64680&#45;&gt;Node0x27d5a720</title>
<path fill="none" stroke="black" d="M826.734,-3239.46C827.373,-3229.95 828.025,-3220.27 828.603,-3211.69"/>
<polygon fill="black" stroke="black" points="832.108,-3211.72 829.288,-3201.51 825.124,-3211.25 832.108,-3211.72"/>
</g>
<!-- Node0x4767db20 -->
<g id="node9" class="node"><title>Node0x4767db20</title>
<polygon fill="none" stroke="black" points="1274.5,-23.5 1274.5,-59.5 1328.5,-59.5 1328.5,-23.5 1274.5,-23.5"/>
<text text-anchor="start" x="1282.5" y="-37.8" font-family="Times,serif" font-size="14.00">exit:</text>
</g>
<!-- Node0x346a6c50&#45;&gt;Node0x4767db20 -->
<g id="edge8" class="edge"><title>Node0x346a6c50&#45;&gt;Node0x4767db20</title>
<path fill="none" stroke="black" d="M915.047,-119.119C1046.85,-92.9871 1195.69,-63.4773 1263.82,-49.9704"/>
<polygon fill="black" stroke="black" points="1264.92,-53.321 1274.05,-47.943 1263.56,-46.4546 1264.92,-53.321"/>
</g>
<!-- Node0x1740cee0 -->
<g id="node10" class="node"><title>Node0x1740cee0</title>
<polygon fill="none" stroke="black" points="1043,-2746.5 1043,-2904.5 1536,-2904.5 1536,-2746.5 1043,-2746.5"/>
<text text-anchor="start" x="1051" y="-2889.3" font-family="Times,serif" font-size="14.00">0x536deb0:</text>
<text text-anchor="start" x="1051" y="-2874.3" font-family="Times,serif" font-size="14.00"> g29 = 1</text>
<text text-anchor="start" x="1051" y="-2859.3" font-family="Times,serif" font-size="14.00"> v11 = g34</text>
<text text-anchor="start" x="1051" y="-2844.3" font-family="Times,serif" font-size="14.00"> g38 = *(IntToPtrCastExpr&lt;ptr&gt;((v11 + 4)))</text>
<text text-anchor="start" x="1051" y="-2829.3" font-family="Times,serif" font-size="14.00"> g39 = *(IntToPtrCastExpr&lt;ptr&gt;((v11 + 8)))</text>
<text text-anchor="start" x="1051" y="-2814.3" font-family="Times,serif" font-size="14.00"> g40 = *(IntToPtrCastExpr&lt;ptr&gt;((v11 + 12)))</text>
<text text-anchor="start" x="1051" y="-2799.3" font-family="Times,serif" font-size="14.00"> g32 = *(IntToPtrCastExpr&lt;ptr&gt;((v11 + 16)))</text>
<text text-anchor="start" x="1051" y="-2784.3" font-family="Times,serif" font-size="14.00"> g34 = *(IntToPtrCastExpr&lt;ptr&gt;((v11 + 20)))</text>
<text text-anchor="start" x="1051" y="-2769.3" font-family="Times,serif" font-size="14.00"> IntToPtrCastExpr&lt;ptr&gt;(*(IntToPtrCastExpr&lt;ptr&gt;((v11 + 24))))()</text>
<text text-anchor="start" x="1051" y="-2754.3" font-family="Times,serif" font-size="14.00"> return</text>
</g>
<!-- Node0x27d5a720&#45;&gt;Node0x1740cee0 -->
<g id="edge9" class="edge"><title>Node0x27d5a720&#45;&gt;Node0x1740cee0</title>
<path fill="none" stroke="black" d="M890.157,-3165.93C927.281,-3154.54 974.938,-3136.75 1012.5,-3112 1094.9,-3057.7 1171.61,-2975.07 1223.32,-2912.66"/>
<polygon fill="black" stroke="black" points="1226.16,-2914.71 1229.81,-2904.76 1220.75,-2910.26 1226.16,-2914.71"/>
<text text-anchor="middle" x="1015" y="-3133.8" font-family="Times,serif" font-size="14.00">v12 == 0</text>
</g>
<!-- Node0x27d5c0a0 -->
<g id="node11" class="node"><title>Node0x27d5c0a0</title>
<polygon fill="none" stroke="black" points="657.5,-2923.5 657.5,-3111.5 1003.5,-3111.5 1003.5,-2923.5 657.5,-2923.5"/>
<text text-anchor="start" x="665.5" y="-3096.3" font-family="Times,serif" font-size="14.00">0x1c81c940:</text>
<text text-anchor="start" x="665.5" y="-3081.3" font-family="Times,serif" font-size="14.00"> v13 = *(IntToPtrCastExpr&lt;ptr&gt;((v5 + 128)))</text>
<text text-anchor="start" x="665.5" y="-3066.3" font-family="Times,serif" font-size="14.00"> g30 = v13</text>
<text text-anchor="start" x="665.5" y="-3051.3" font-family="Times,serif" font-size="14.00"> v14 = *(IntToPtrCastExpr&lt;ptr&gt;((v5 + 120)))</text>
<text text-anchor="start" x="665.5" y="-3036.3" font-family="Times,serif" font-size="14.00"> g36 = v14</text>
<text text-anchor="start" x="665.5" y="-3021.3" font-family="Times,serif" font-size="14.00"> v15 = (v13 + v6)</text>
<text text-anchor="start" x="665.5" y="-3006.3" font-family="Times,serif" font-size="14.00"> g37 = v15</text>
<text text-anchor="start" x="665.5" y="-2991.3" font-family="Times,serif" font-size="14.00"> v16 = (v15 &#45; v14)</text>
<text text-anchor="start" x="665.5" y="-2976.3" font-family="Times,serif" font-size="14.00"> g8 = (((v16 ^ v15) &amp; (v15 ^ v14)) &lt; 0)</text>
<text text-anchor="start" x="665.5" y="-2961.3" font-family="Times,serif" font-size="14.00"> g7 = (v16 &lt; 0)</text>
<text text-anchor="start" x="665.5" y="-2946.3" font-family="Times,serif" font-size="14.00"> g9 = (v15 == v14)</text>
<text text-anchor="start" x="665.5" y="-2931.3" font-family="Times,serif" font-size="14.00"> v17 = v5</text>
</g>
<!-- Node0x27d5a720&#45;&gt;Node0x27d5c0a0 -->
<g id="edge10" class="edge"><title>Node0x27d5a720&#45;&gt;Node0x27d5c0a0</title>
<path fill="none" stroke="black" d="M830.5,-3163.43C830.5,-3152.59 830.5,-3137.82 830.5,-3121.84"/>
<polygon fill="black" stroke="black" points="834,-3121.76 830.5,-3111.76 827,-3121.76 834,-3121.76"/>
<text text-anchor="middle" x="862" y="-3133.8" font-family="Times,serif" font-size="14.00">v12 != 0</text>
</g>
<!-- Node0x1740cee0&#45;&gt;Node0x4767db20 -->
<g id="edge11" class="edge"><title>Node0x1740cee0&#45;&gt;Node0x4767db20</title>
<path fill="none" stroke="black" d="M1328.55,-2746.2C1338.03,-2720.78 1345.5,-2692.02 1345.5,-2664.5 1345.5,-2664.5 1345.5,-2664.5 1345.5,-168 1345.5,-132.126 1329.29,-93.5683 1316.55,-68.7991"/>
<polygon fill="black" stroke="black" points="1319.5,-66.8835 1311.71,-59.7027 1313.32,-70.1742 1319.5,-66.8835"/>
</g>
<!-- Node0x346a6700 -->
<g id="node12" class="node"><title>Node0x346a6700</title>
<polygon fill="none" stroke="black" points="768.5,-2689.5 768.5,-2727.5 892.5,-2727.5 892.5,-2689.5 768.5,-2689.5"/>
<text text-anchor="start" x="776.5" y="-2712.3" font-family="Times,serif" font-size="14.00">0x5336500:</text>
<text text-anchor="start" x="776.5" y="-2697.3" font-family="Times,serif" font-size="14.00"> if (v15 &gt; v14):</text>
</g>
<!-- Node0x27d5c0a0&#45;&gt;Node0x346a6700 -->
<g id="edge12" class="edge"><title>Node0x27d5c0a0&#45;&gt;Node0x346a6700</title>
<path fill="none" stroke="black" d="M830.5,-2923.14C830.5,-2859.5 830.5,-2779.47 830.5,-2737.75"/>
<polygon fill="black" stroke="black" points="834,-2737.52 830.5,-2727.52 827,-2737.52 834,-2737.52"/>
</g>
<!-- Node0x2a7137e0 -->
<g id="node13" class="node"><title>Node0x2a7137e0</title>
<polygon fill="none" stroke="black" points="814,-2539.5 814,-2637.5 953,-2637.5 953,-2539.5 814,-2539.5"/>
<text text-anchor="start" x="822" y="-2622.3" font-family="Times,serif" font-size="14.00">0x53335b0:</text>
<text text-anchor="start" x="822" y="-2607.3" font-family="Times,serif" font-size="14.00"> g8 = False</text>
<text text-anchor="start" x="822" y="-2592.3" font-family="Times,serif" font-size="14.00"> g7 = (v13 &lt; 0)</text>
<text text-anchor="start" x="822" y="-2577.3" font-family="Times,serif" font-size="14.00"> g9 = (v13 == 0)</text>
<text text-anchor="start" x="822" y="-2562.3" font-family="Times,serif" font-size="14.00"> v18 = v13</text>
<text text-anchor="start" x="822" y="-2547.3" font-family="Times,serif" font-size="14.00"> v19 = v5</text>
</g>
<!-- Node0x346a6700&#45;&gt;Node0x2a7137e0 -->
<g id="edge13" class="edge"><title>Node0x346a6700&#45;&gt;Node0x2a7137e0</title>
<path fill="none" stroke="black" d="M838.665,-2689.32C843.811,-2677.86 850.766,-2662.38 857.661,-2647.03"/>
<polygon fill="black" stroke="black" points="861.026,-2648.08 861.93,-2637.52 854.64,-2645.21 861.026,-2648.08"/>
<text text-anchor="middle" x="889.5" y="-2659.8" font-family="Times,serif" font-size="14.00">v15 &gt; v14</text>
</g>
<!-- Node0x38699e30 -->
<g id="node14" class="node"><title>Node0x38699e30</title>
<polygon fill="none" stroke="black" points="537,-1831.5 537,-2079.5 1210,-2079.5 1210,-1831.5 537,-1831.5"/>
<text text-anchor="start" x="545" y="-2064.3" font-family="Times,serif" font-size="14.00">0x1a83e290:</text>
<text text-anchor="start" x="545" y="-2049.3" font-family="Times,serif" font-size="14.00"> v22 = *(IntToPtrCastExpr&lt;ptr&gt;((v17 + 4)))</text>
<text text-anchor="start" x="545" y="-2034.3" font-family="Times,serif" font-size="14.00"> g33 = v22</text>
<text text-anchor="start" x="545" y="-2019.3" font-family="Times,serif" font-size="14.00"> v23 = (*(IntToPtrCastExpr&lt;ptr&gt;((v17 + 124))) + *(IntToPtrCastExpr&lt;ptr&gt;((v17 + 128))))</text>
<text text-anchor="start" x="545" y="-2004.3" font-family="Times,serif" font-size="14.00"> g36 = (*(IntToPtrCastExpr&lt;ptr&gt;((v17 + 120))) &#45; v23)</text>
<text text-anchor="start" x="545" y="-1989.3" font-family="Times,serif" font-size="14.00"> g30 = (*(IntToPtrCastExpr&lt;ptr&gt;((v17 + 116))) + v23)</text>
<text text-anchor="start" x="545" y="-1974.3" font-family="Times,serif" font-size="14.00"> g29 = v22</text>
<text text-anchor="start" x="545" y="-1959.3" font-family="Times,serif" font-size="14.00"> v24 = *(IntToPtrCastExpr&lt;ptr&gt;(v22))</text>
<text text-anchor="start" x="545" y="-1944.3" font-family="Times,serif" font-size="14.00"> g37 = v24</text>
<text text-anchor="start" x="545" y="-1929.3" font-family="Times,serif" font-size="14.00"> g35 = 17464</text>
<text text-anchor="start" x="545" y="-1914.3" font-family="Times,serif" font-size="14.00"> IntToPtrCastExpr&lt;ptr&gt;(*(IntToPtrCastExpr&lt;ptr&gt;((v24 + 4))))()</text>
<text text-anchor="start" x="545" y="-1899.3" font-family="Times,serif" font-size="14.00"> v25 = g29</text>
<text text-anchor="start" x="545" y="-1884.3" font-family="Times,serif" font-size="14.00"> g8 = False</text>
<text text-anchor="start" x="545" y="-1869.3" font-family="Times,serif" font-size="14.00"> g7 = (v25 &lt; 0)</text>
<text text-anchor="start" x="545" y="-1854.3" font-family="Times,serif" font-size="14.00"> g9 = (v25 == 0)</text>
<text text-anchor="start" x="545" y="-1839.3" font-family="Times,serif" font-size="14.00"> v26</text>
</g>
<!-- Node0x346a6700&#45;&gt;Node0x38699e30 -->
<g id="edge14" class="edge"><title>Node0x346a6700&#45;&gt;Node0x38699e30</title>
<path fill="none" stroke="black" d="M768.33,-2689.71C722.645,-2672.39 668.5,-2641 668.5,-2589.5 668.5,-2589.5 668.5,-2589.5 668.5,-2158 668.5,-2132.56 676.629,-2109.26 689.649,-2088.26"/>
<polygon fill="black" stroke="black" points="692.705,-2089.99 695.3,-2079.71 686.866,-2086.12 692.705,-2089.99"/>
<text text-anchor="middle" x="711.5" y="-2433.8" font-family="Times,serif" font-size="14.00">v15 &lt;= v14</text>
</g>
<!-- Node0x2a714260 -->
<g id="node15" class="node"><title>Node0x2a714260</title>
<polygon fill="none" stroke="black" points="859,-2463.5 859,-2501.5 978,-2501.5 978,-2463.5 859,-2463.5"/>
<text text-anchor="start" x="867" y="-2486.3" font-family="Times,serif" font-size="14.00">0x5334fe0:</text>
<text text-anchor="start" x="867" y="-2471.3" font-family="Times,serif" font-size="14.00"> if (v13 == 0):</text>
</g>
<!-- Node0x2a7137e0&#45;&gt;Node0x2a714260 -->
<g id="edge15" class="edge"><title>Node0x2a7137e0&#45;&gt;Node0x2a714260</title>
<path fill="none" stroke="black" d="M899.668,-2539.46C902.938,-2529.74 906.27,-2519.84 909.205,-2511.12"/>
<polygon fill="black" stroke="black" points="912.567,-2512.1 912.439,-2501.51 905.933,-2509.87 912.567,-2512.1"/>
</g>
<!-- Node0x3da91670 -->
<g id="node16" class="node"><title>Node0x3da91670</title>
<polygon fill="none" stroke="black" points="812,-1740.5 812,-1793.5 919,-1793.5 919,-1740.5 812,-1740.5"/>
<text text-anchor="start" x="820" y="-1778.3" font-family="Times,serif" font-size="14.00">0x5367630:</text>
<text text-anchor="start" x="820" y="-1763.3" font-family="Times,serif" font-size="14.00"> if (v25 &gt; 0):</text>
<text text-anchor="start" x="820" y="-1748.3" font-family="Times,serif" font-size="14.00"> else:</text>
</g>
<!-- Node0x38699e30&#45;&gt;Node0x3da91670 -->
<g id="edge16" class="edge"><title>Node0x38699e30&#45;&gt;Node0x3da91670</title>
<path fill="none" stroke="black" d="M868.22,-1831.4C867.793,-1821.46 867.388,-1812.03 867.028,-1803.62"/>
<polygon fill="black" stroke="black" points="870.522,-1803.4 866.596,-1793.56 863.528,-1803.7 870.522,-1803.4"/>
</g>
<!-- Node0x2a7177c0 -->
<g id="node17" class="node"><title>Node0x2a7177c0</title>
<polygon fill="none" stroke="black" points="868,-2238.5 868,-2411.5 969,-2411.5 969,-2238.5 868,-2238.5"/>
<text text-anchor="start" x="876" y="-2396.3" font-family="Times,serif" font-size="14.00">0x53340d0:</text>
<text text-anchor="start" x="876" y="-2381.3" font-family="Times,serif" font-size="14.00"> g29 = &#45;11</text>
<text text-anchor="start" x="876" y="-2366.3" font-family="Times,serif" font-size="14.00"> g38 = v1</text>
<text text-anchor="start" x="876" y="-2351.3" font-family="Times,serif" font-size="14.00"> g39 = v2</text>
<text text-anchor="start" x="876" y="-2336.3" font-family="Times,serif" font-size="14.00"> g40 = v3</text>
<text text-anchor="start" x="876" y="-2321.3" font-family="Times,serif" font-size="14.00"> g32 = v4</text>
<text text-anchor="start" x="876" y="-2306.3" font-family="Times,serif" font-size="14.00"> v20</text>
<text text-anchor="start" x="876" y="-2291.3" font-family="Times,serif" font-size="14.00"> g34 = v20</text>
<text text-anchor="start" x="876" y="-2276.3" font-family="Times,serif" font-size="14.00"> v7()</text>
<text text-anchor="start" x="876" y="-2261.3" font-family="Times,serif" font-size="14.00"> v18 = g30</text>
<text text-anchor="start" x="876" y="-2246.3" font-family="Times,serif" font-size="14.00"> v19 = g38</text>
</g>
<!-- Node0x2a714260&#45;&gt;Node0x2a7177c0 -->
<g id="edge17" class="edge"><title>Node0x2a714260&#45;&gt;Node0x2a7177c0</title>
<path fill="none" stroke="black" d="M918.5,-2463.36C918.5,-2452.41 918.5,-2437.52 918.5,-2421.58"/>
<polygon fill="black" stroke="black" points="922,-2421.54 918.5,-2411.54 915,-2421.54 922,-2421.54"/>
<text text-anchor="middle" x="953" y="-2433.8" font-family="Times,serif" font-size="14.00">v13 == 0</text>
</g>
<!-- Node0x2a7146c0 -->
<g id="node18" class="node"><title>Node0x2a7146c0</title>
<polygon fill="none" stroke="black" points="696.5,-2117.5 696.5,-2200.5 1314.5,-2200.5 1314.5,-2117.5 696.5,-2117.5"/>
<text text-anchor="start" x="704.5" y="-2185.3" font-family="Times,serif" font-size="14.00">0x64da9b0:</text>
<text text-anchor="start" x="704.5" y="-2170.3" font-family="Times,serif" font-size="14.00"> v21 = *(IntToPtrCastExpr&lt;ptr&gt;((v19 + 116)))</text>
<text text-anchor="start" x="704.5" y="-2155.3" font-family="Times,serif" font-size="14.00"> memmove(IntToPtrCastExpr&lt;ptr&gt;(v21), IntToPtrCastExpr&lt;ptr&gt;((v21 + v18)), v8)</text>
<text text-anchor="start" x="704.5" y="-2140.3" font-family="Times,serif" font-size="14.00"> *(IntToPtrCastExpr&lt;ptr&gt;((g38 + 128))) = g40</text>
<text text-anchor="start" x="704.5" y="-2125.3" font-family="Times,serif" font-size="14.00"> v17 = g38</text>
</g>
<!-- Node0x2a714260&#45;&gt;Node0x2a7146c0 -->
<g id="edge18" class="edge"><title>Node0x2a714260&#45;&gt;Node0x2a7146c0</title>
<path fill="none" stroke="black" d="M972.095,-2463.29C979.724,-2458.48 986.622,-2452.48 991.5,-2445 1037.56,-2374.4 1028.58,-2271.74 1017.37,-2210.83"/>
<polygon fill="black" stroke="black" points="1020.75,-2209.85 1015.41,-2200.7 1013.87,-2211.18 1020.75,-2209.85"/>
<text text-anchor="middle" x="1058" y="-2321.3" font-family="Times,serif" font-size="14.00">v13 != 0</text>
</g>
<!-- Node0x2a714f80 -->
<g id="node19" class="node"><title>Node0x2a714f80</title>
<polygon fill="none" stroke="black" points="566,-1593.5 566,-1631.5 667,-1631.5 667,-1593.5 566,-1593.5"/>
<text text-anchor="start" x="574" y="-1616.3" font-family="Times,serif" font-size="14.00">0x5339d70:</text>
<text text-anchor="start" x="574" y="-1601.3" font-family="Times,serif" font-size="14.00"> v26 = v25</text>
</g>
<!-- Node0x3da91670&#45;&gt;Node0x2a714f80 -->
<g id="edge19" class="edge"><title>Node0x3da91670&#45;&gt;Node0x2a714f80</title>
<path fill="none" stroke="black" d="M823.823,-1740.47C776.708,-1711.62 700.632,-1665.03 654.909,-1637.02"/>
<polygon fill="black" stroke="black" points="656.542,-1633.92 646.187,-1631.68 652.886,-1639.89 656.542,-1633.92"/>
<text text-anchor="middle" x="822" y="-1710.8" font-family="Times,serif" font-size="14.00">v25 &gt; 0</text>
</g>
<!-- Node0x2a717440 -->
<g id="node20" class="node"><title>Node0x2a717440</title>
<polygon fill="none" stroke="black" points="809,-1650.5 809,-1688.5 922,-1688.5 922,-1650.5 809,-1650.5"/>
<text text-anchor="start" x="817" y="-1673.3" font-family="Times,serif" font-size="14.00">0x536b540:</text>
<text text-anchor="start" x="817" y="-1658.3" font-family="Times,serif" font-size="14.00"> if (v25 != 0):</text>
</g>
<!-- Node0x3da91670&#45;&gt;Node0x2a717440 -->
<g id="edge20" class="edge"><title>Node0x3da91670&#45;&gt;Node0x2a717440</title>
<path fill="none" stroke="black" d="M865.5,-1740.41C865.5,-1727.63 865.5,-1712.13 865.5,-1698.98"/>
<polygon fill="black" stroke="black" points="869,-1698.6 865.5,-1688.6 862,-1698.6 869,-1698.6"/>
<text text-anchor="middle" x="900" y="-1710.8" font-family="Times,serif" font-size="14.00">v25 &lt;= 0</text>
</g>
<!-- Node0x2a7177c0&#45;&gt;Node0x2a7146c0 -->
<g id="edge21" class="edge"><title>Node0x2a7177c0&#45;&gt;Node0x2a7146c0</title>
<path fill="none" stroke="black" d="M964.038,-2238.16C969.165,-2228.49 974.253,-2218.9 979.018,-2209.92"/>
<polygon fill="black" stroke="black" points="982.26,-2211.28 983.855,-2200.8 976.076,-2208 982.26,-2211.28"/>
</g>
<!-- Node0x2a7146c0&#45;&gt;Node0x38699e30 -->
<g id="edge22" class="edge"><title>Node0x2a7146c0&#45;&gt;Node0x38699e30</title>
<path fill="none" stroke="black" d="M978.788,-2117.22C972.962,-2108.33 966.495,-2098.46 959.712,-2088.1"/>
<polygon fill="black" stroke="black" points="962.619,-2086.15 954.211,-2079.71 956.764,-2089.99 962.619,-2086.15"/>
</g>
<!-- Node0x2a715300 -->
<g id="node21" class="node"><title>Node0x2a715300</title>
<polygon fill="none" stroke="black" points="537,-670.5 537,-858.5 892,-858.5 892,-670.5 537,-670.5"/>
<text text-anchor="start" x="545" y="-843.3" font-family="Times,serif" font-size="14.00">0x145d7720:</text>
<text text-anchor="start" x="545" y="-828.3" font-family="Times,serif" font-size="14.00"> v27 = IntToPtrCastExpr&lt;ptr&gt;((g38 + 124))</text>
<text text-anchor="start" x="545" y="-813.3" font-family="Times,serif" font-size="14.00"> v28 = (*(v27) + v26)</text>
<text text-anchor="start" x="545" y="-798.3" font-family="Times,serif" font-size="14.00"> g37 = v28</text>
<text text-anchor="start" x="545" y="-783.3" font-family="Times,serif" font-size="14.00"> *(v27) = v28</text>
<text text-anchor="start" x="545" y="-768.3" font-family="Times,serif" font-size="14.00"> v29 = g38</text>
<text text-anchor="start" x="545" y="-753.3" font-family="Times,serif" font-size="14.00"> v30 = g39</text>
<text text-anchor="start" x="545" y="-738.3" font-family="Times,serif" font-size="14.00"> v31 = *(IntToPtrCastExpr&lt;ptr&gt;((v29 + 124)))</text>
<text text-anchor="start" x="545" y="-723.3" font-family="Times,serif" font-size="14.00"> v32 = (v31 &#45; v30)</text>
<text text-anchor="start" x="545" y="-708.3" font-family="Times,serif" font-size="14.00"> g8 = (((v32 ^ v31) &amp; (v31 ^ v30)) &lt; 0)</text>
<text text-anchor="start" x="545" y="-693.3" font-family="Times,serif" font-size="14.00"> g7 = (v32 &lt; 0)</text>
<text text-anchor="start" x="545" y="-678.3" font-family="Times,serif" font-size="14.00"> g9 = (v31 == v30)</text>
</g>
<!-- Node0x2a714f80&#45;&gt;Node0x2a715300 -->
<g id="edge23" class="edge"><title>Node0x2a714f80&#45;&gt;Node0x2a715300</title>
<path fill="none" stroke="black" d="M606.321,-1593.28C586.907,-1556.75 546.5,-1471.49 546.5,-1394.5 546.5,-1394.5 546.5,-1394.5 546.5,-974.5 546.5,-934.373 565.546,-897.573 590.812,-866.41"/>
<polygon fill="black" stroke="black" points="593.611,-868.519 597.361,-858.61 588.25,-864.017 593.611,-868.519"/>
</g>
<!-- Node0x346a4e80 -->
<g id="node22" class="node"><title>Node0x346a4e80</title>
<polygon fill="none" stroke="black" points="729.5,-1491.5 729.5,-1574.5 929.5,-1574.5 929.5,-1491.5 729.5,-1491.5"/>
<text text-anchor="start" x="737.5" y="-1559.3" font-family="Times,serif" font-size="14.00">0x2cd23050:</text>
<text text-anchor="start" x="737.5" y="-1544.3" font-family="Times,serif" font-size="14.00"> v33 = (v25 + 1)</text>
<text text-anchor="start" x="737.5" y="-1529.3" font-family="Times,serif" font-size="14.00"> g8 = ((v33 &amp; &#45;(v25)) &lt; 0)</text>
<text text-anchor="start" x="737.5" y="-1514.3" font-family="Times,serif" font-size="14.00"> g7 = (v33 &lt; 0)</text>
<text text-anchor="start" x="737.5" y="-1499.3" font-family="Times,serif" font-size="14.00"> g9 = (v33 == 0)</text>
</g>
<!-- Node0x2a717440&#45;&gt;Node0x346a4e80 -->
<g id="edge24" class="edge"><title>Node0x2a717440&#45;&gt;Node0x346a4e80</title>
<path fill="none" stroke="black" d="M860.645,-1650.36C856.127,-1633.48 849.181,-1607.53 842.994,-1584.42"/>
<polygon fill="black" stroke="black" points="846.365,-1583.47 840.399,-1574.72 839.603,-1585.28 846.365,-1583.47"/>
<text text-anchor="middle" x="887" y="-1608.8" font-family="Times,serif" font-size="14.00">v25 != 0</text>
</g>
<!-- Node0x14c1e2c0 -->
<g id="node23" class="node"><title>Node0x14c1e2c0</title>
<polygon fill="none" stroke="black" points="837,-1314.5 837,-1472.5 1330,-1472.5 1330,-1314.5 837,-1314.5"/>
<text text-anchor="start" x="845" y="-1457.3" font-family="Times,serif" font-size="14.00">0x536b6a0:</text>
<text text-anchor="start" x="845" y="-1442.3" font-family="Times,serif" font-size="14.00"> g29 = 1</text>
<text text-anchor="start" x="845" y="-1427.3" font-family="Times,serif" font-size="14.00"> v11 = g34</text>
<text text-anchor="start" x="845" y="-1412.3" font-family="Times,serif" font-size="14.00"> g38 = *(IntToPtrCastExpr&lt;ptr&gt;((v11 + 4)))</text>
<text text-anchor="start" x="845" y="-1397.3" font-family="Times,serif" font-size="14.00"> g39 = *(IntToPtrCastExpr&lt;ptr&gt;((v11 + 8)))</text>
<text text-anchor="start" x="845" y="-1382.3" font-family="Times,serif" font-size="14.00"> g40 = *(IntToPtrCastExpr&lt;ptr&gt;((v11 + 12)))</text>
<text text-anchor="start" x="845" y="-1367.3" font-family="Times,serif" font-size="14.00"> g32 = *(IntToPtrCastExpr&lt;ptr&gt;((v11 + 16)))</text>
<text text-anchor="start" x="845" y="-1352.3" font-family="Times,serif" font-size="14.00"> g34 = *(IntToPtrCastExpr&lt;ptr&gt;((v11 + 20)))</text>
<text text-anchor="start" x="845" y="-1337.3" font-family="Times,serif" font-size="14.00"> IntToPtrCastExpr&lt;ptr&gt;(*(IntToPtrCastExpr&lt;ptr&gt;((v11 + 24))))()</text>
<text text-anchor="start" x="845" y="-1322.3" font-family="Times,serif" font-size="14.00"> return</text>
</g>
<!-- Node0x2a717440&#45;&gt;Node0x14c1e2c0 -->
<g id="edge25" class="edge"><title>Node0x2a717440&#45;&gt;Node0x14c1e2c0</title>
<path fill="none" stroke="black" d="M898.839,-1650.35C907.066,-1645.04 915.514,-1638.81 922.5,-1632 967.68,-1587.99 1007.55,-1529.41 1036.32,-1481.45"/>
<polygon fill="black" stroke="black" points="1039.46,-1483 1041.56,-1472.62 1033.44,-1479.43 1039.46,-1483"/>
<text text-anchor="middle" x="992" y="-1608.8" font-family="Times,serif" font-size="14.00">v25 == 0</text>
</g>
<!-- Node0x2a716800 -->
<g id="node24" class="node"><title>Node0x2a716800</title>
<polygon fill="none" stroke="black" points="600.5,-594.5 600.5,-632.5 736.5,-632.5 736.5,-594.5 600.5,-594.5"/>
<text text-anchor="start" x="608.5" y="-617.3" font-family="Times,serif" font-size="14.00">0x5367570:</text>
<text text-anchor="start" x="608.5" y="-602.3" font-family="Times,serif" font-size="14.00"> if (v31 &gt;= v30):</text>
</g>
<!-- Node0x2a715300&#45;&gt;Node0x2a716800 -->
<g id="edge26" class="edge"><title>Node0x2a715300&#45;&gt;Node0x2a716800</title>
<path fill="none" stroke="black" d="M685.76,-670.406C682.644,-660.314 679.678,-650.708 677.112,-642.395"/>
<polygon fill="black" stroke="black" points="680.388,-641.142 674.094,-632.619 673.699,-643.207 680.388,-641.142"/>
</g>
<!-- Node0x346a4490 -->
<g id="node25" class="node"><title>Node0x346a4490</title>
<polygon fill="none" stroke="black" points="805,-1242.5 805,-1295.5 924,-1295.5 924,-1242.5 805,-1242.5"/>
<text text-anchor="start" x="813" y="-1280.3" font-family="Times,serif" font-size="14.00">0x53683d0:</text>
<text text-anchor="start" x="813" y="-1265.3" font-family="Times,serif" font-size="14.00"> if (v33 == 0):</text>
<text text-anchor="start" x="813" y="-1250.3" font-family="Times,serif" font-size="14.00"> else:</text>
</g>
<!-- Node0x346a4e80&#45;&gt;Node0x346a4490 -->
<g id="edge27" class="edge"><title>Node0x346a4e80&#45;&gt;Node0x346a4490</title>
<path fill="none" stroke="black" d="M824.081,-1491.13C819.647,-1446.48 816.789,-1373.41 835.5,-1314 836.489,-1310.86 837.774,-1307.73 839.251,-1304.67"/>
<polygon fill="black" stroke="black" points="842.393,-1306.23 844.158,-1295.78 836.263,-1302.84 842.393,-1306.23"/>
</g>
<!-- Node0x14c1e2c0&#45;&gt;Node0x4767db20 -->
<g id="edge28" class="edge"><title>Node0x14c1e2c0&#45;&gt;Node0x4767db20</title>
<path fill="none" stroke="black" d="M1249.56,-1314.32C1279.54,-1288.96 1301.5,-1256.93 1301.5,-1217.5 1301.5,-1217.5 1301.5,-1217.5 1301.5,-168 1301.5,-134.065 1301.5,-94.9683 1301.5,-69.5517"/>
<polygon fill="black" stroke="black" points="1305,-69.5513 1301.5,-59.5513 1298,-69.5514 1305,-69.5513"/>
</g>
<!-- Node0x346a5580 -->
<g id="node26" class="node"><title>Node0x346a5580</title>
<polygon fill="none" stroke="black" points="618,-482 618,-520 719,-520 719,-482 618,-482"/>
<text text-anchor="start" x="626" y="-504.8" font-family="Times,serif" font-size="14.00">0x5367180:</text>
<text text-anchor="start" x="626" y="-489.8" font-family="Times,serif" font-size="14.00"> break</text>
</g>
<!-- Node0x2a716800&#45;&gt;Node0x346a5580 -->
<g id="edge29" class="edge"><title>Node0x2a716800&#45;&gt;Node0x346a5580</title>
<path fill="none" stroke="black" d="M668.5,-594.253C668.5,-576.898 668.5,-550.529 668.5,-530.42"/>
<polygon fill="black" stroke="black" points="672,-530.274 668.5,-520.274 665,-530.274 672,-530.274"/>
<text text-anchor="middle" x="711.5" y="-564.8" font-family="Times,serif" font-size="14.00">v31 &gt;= v30</text>
</g>
<!-- Node0x2a716c60 -->
<g id="node27" class="node"><title>Node0x2a716c60</title>
<polygon fill="none" stroke="black" points="490,-459.5 490,-542.5 591,-542.5 591,-459.5 490,-459.5"/>
<text text-anchor="start" x="498" y="-527.3" font-family="Times,serif" font-size="14.00">0x5366dd0:</text>
<text text-anchor="start" x="498" y="-512.3" font-family="Times,serif" font-size="14.00"> v8 = v31</text>
<text text-anchor="start" x="498" y="-497.3" font-family="Times,serif" font-size="14.00"> v5 = v29</text>
<text text-anchor="start" x="498" y="-482.3" font-family="Times,serif" font-size="14.00"> v6 = v30</text>
<text text-anchor="start" x="498" y="-467.3" font-family="Times,serif" font-size="14.00"> continue</text>
</g>
<!-- Node0x2a716800&#45;&gt;Node0x2a716c60 -->
<g id="edge30" class="edge"><title>Node0x2a716800&#45;&gt;Node0x2a716c60</title>
<path fill="none" stroke="black" d="M619.446,-594.488C609.249,-589.434 599.025,-583.285 590.5,-576 582.197,-568.905 574.678,-560.112 568.14,-551.093"/>
<polygon fill="black" stroke="black" points="570.974,-549.036 562.417,-542.788 565.21,-553.008 570.974,-549.036"/>
<text text-anchor="middle" x="627.5" y="-564.8" font-family="Times,serif" font-size="14.00">v31 &lt; v30</text>
</g>
<!-- Node0x3af1fe80 -->
<g id="node28" class="node"><title>Node0x3af1fe80</title>
<polygon fill="none" stroke="black" points="1172,-1122.5 1172,-1160.5 1273,-1160.5 1273,-1122.5 1172,-1122.5"/>
<text text-anchor="start" x="1180" y="-1145.3" font-family="Times,serif" font-size="14.00">0x5368270:</text>
<text text-anchor="start" x="1180" y="-1130.3" font-family="Times,serif" font-size="14.00"> g29 = &#45;12</text>
</g>
<!-- Node0x346a4490&#45;&gt;Node0x3af1fe80 -->
<g id="edge31" class="edge"><title>Node0x346a4490&#45;&gt;Node0x3af1fe80</title>
<path fill="none" stroke="black" d="M924.231,-1260.43C986.604,-1250.78 1085.96,-1230.39 1163.5,-1191 1175.63,-1184.84 1187.51,-1175.83 1197.39,-1167.24"/>
<polygon fill="black" stroke="black" points="1199.78,-1169.8 1204.86,-1160.51 1195.09,-1164.61 1199.78,-1169.8"/>
<text text-anchor="middle" x="1153" y="-1212.8" font-family="Times,serif" font-size="14.00">v33 == 0</text>
</g>
<!-- Node0x346a25a0 -->
<g id="node29" class="node"><title>Node0x346a25a0</title>
<polygon fill="none" stroke="black" points="575,-1092.5 575,-1190.5 1154,-1190.5 1154,-1092.5 575,-1092.5"/>
<text text-anchor="start" x="583" y="-1175.3" font-family="Times,serif" font-size="14.00">0x321c0d00:</text>
<text text-anchor="start" x="583" y="-1160.3" font-family="Times,serif" font-size="14.00"> v34 = g38</text>
<text text-anchor="start" x="583" y="-1145.3" font-family="Times,serif" font-size="14.00"> v35 = *(IntToPtrCastExpr&lt;ptr&gt;((*(IntToPtrCastExpr&lt;ptr&gt;((v34 + 4))) + 8)))</text>
<text text-anchor="start" x="583" y="-1130.3" font-family="Times,serif" font-size="14.00"> g37 = v35</text>
<text text-anchor="start" x="583" y="-1115.3" font-family="Times,serif" font-size="14.00"> g29 = &#45;35</text>
<text text-anchor="start" x="583" y="-1100.3" font-family="Times,serif" font-size="14.00"> *(IntToPtrCastExpr&lt;ptr&gt;((v34 + 132))) = v35</text>
</g>
<!-- Node0x346a4490&#45;&gt;Node0x346a25a0 -->
<g id="edge32" class="edge"><title>Node0x346a4490&#45;&gt;Node0x346a25a0</title>
<path fill="none" stroke="black" d="M864.5,-1242.3C864.5,-1230.24 864.5,-1215.33 864.5,-1200.75"/>
<polygon fill="black" stroke="black" points="868,-1200.75 864.5,-1190.75 861,-1200.75 868,-1200.75"/>
<text text-anchor="middle" x="896" y="-1212.8" font-family="Times,serif" font-size="14.00">v33 != 0</text>
</g>
<!-- Node0xec43d50 -->
<g id="node30" class="node"><title>Node0xec43d50</title>
<polygon fill="none" stroke="black" points="422,-278.5 422,-421.5 915,-421.5 915,-278.5 422,-278.5"/>
<text text-anchor="start" x="430" y="-406.3" font-family="Times,serif" font-size="14.00">0x5370040:</text>
<text text-anchor="start" x="430" y="-391.3" font-family="Times,serif" font-size="14.00"> g29 = 0</text>
<text text-anchor="start" x="430" y="-376.3" font-family="Times,serif" font-size="14.00"> v10 = g34</text>
<text text-anchor="start" x="430" y="-361.3" font-family="Times,serif" font-size="14.00"> g38 = *(IntToPtrCastExpr&lt;ptr&gt;((v10 + 4)))</text>
<text text-anchor="start" x="430" y="-346.3" font-family="Times,serif" font-size="14.00"> g39 = *(IntToPtrCastExpr&lt;ptr&gt;((v10 + 8)))</text>
<text text-anchor="start" x="430" y="-331.3" font-family="Times,serif" font-size="14.00"> g40 = *(IntToPtrCastExpr&lt;ptr&gt;((v10 + 12)))</text>
<text text-anchor="start" x="430" y="-316.3" font-family="Times,serif" font-size="14.00"> g32 = *(IntToPtrCastExpr&lt;ptr&gt;((v10 + 16)))</text>
<text text-anchor="start" x="430" y="-301.3" font-family="Times,serif" font-size="14.00"> g34 = *(IntToPtrCastExpr&lt;ptr&gt;((v10 + 20)))</text>
<text text-anchor="start" x="430" y="-286.3" font-family="Times,serif" font-size="14.00"> IntToPtrCastExpr&lt;ptr&gt;(*(IntToPtrCastExpr&lt;ptr&gt;((v10 + 24))))()</text>
</g>
<!-- Node0x346a5580&#45;&gt;Node0xec43d50 -->
<g id="edge33" class="edge"><title>Node0x346a5580&#45;&gt;Node0xec43d50</title>
<path fill="none" stroke="black" d="M668.5,-481.73C668.5,-468.819 668.5,-450.522 668.5,-431.693"/>
<polygon fill="black" stroke="black" points="672,-431.518 668.5,-421.518 665,-431.518 672,-431.518"/>
</g>
<!-- Node0x2a716c60&#45;&gt;Node0xec43680 -->
<g id="edge34" class="edge"><title>Node0x2a716c60&#45;&gt;Node0xec43680</title>
<path fill="none" stroke="black" d="M522.815,-542.648C515.415,-563.185 508.5,-588.733 508.5,-612.5 508.5,-3289.5 508.5,-3289.5 508.5,-3289.5 508.5,-3368.7 508.5,-3462.19 508.5,-3508.12"/>
<polygon fill="black" stroke="black" points="505,-3508.22 508.5,-3518.22 512,-3508.22 505,-3508.22"/>
</g>
<!-- Node0x4767b340 -->
<g id="node31" class="node"><title>Node0x4767b340</title>
<polygon fill="none" stroke="black" points="618,-896.5 618,-1054.5 1111,-1054.5 1111,-896.5 618,-896.5"/>
<text text-anchor="start" x="626" y="-1039.3" font-family="Times,serif" font-size="14.00">0x17bd0ad0:</text>
<text text-anchor="start" x="626" y="-1024.3" font-family="Times,serif" font-size="14.00"> v36 = g34</text>
<text text-anchor="start" x="626" y="-1009.3" font-family="Times,serif" font-size="14.00"> g38 = *(IntToPtrCastExpr&lt;ptr&gt;((v36 + 4)))</text>
<text text-anchor="start" x="626" y="-994.3" font-family="Times,serif" font-size="14.00"> g39 = *(IntToPtrCastExpr&lt;ptr&gt;((v36 + 8)))</text>
<text text-anchor="start" x="626" y="-979.3" font-family="Times,serif" font-size="14.00"> g40 = *(IntToPtrCastExpr&lt;ptr&gt;((v36 + 12)))</text>
<text text-anchor="start" x="626" y="-964.3" font-family="Times,serif" font-size="14.00"> g32 = *(IntToPtrCastExpr&lt;ptr&gt;((v36 + 16)))</text>
<text text-anchor="start" x="626" y="-949.3" font-family="Times,serif" font-size="14.00"> g34 = *(IntToPtrCastExpr&lt;ptr&gt;((v36 + 20)))</text>
<text text-anchor="start" x="626" y="-934.3" font-family="Times,serif" font-size="14.00"> IntToPtrCastExpr&lt;ptr&gt;(*(IntToPtrCastExpr&lt;ptr&gt;((v36 + 24))))()</text>
<text text-anchor="start" x="626" y="-919.3" font-family="Times,serif" font-size="14.00"> v26 = g29</text>
<text text-anchor="start" x="626" y="-904.3" font-family="Times,serif" font-size="14.00"> goto 0x145d7720</text>
</g>
<!-- Node0x3af1fe80&#45;&gt;Node0x4767b340 -->
<g id="edge35" class="edge"><title>Node0x3af1fe80&#45;&gt;Node0x4767b340</title>
<path fill="none" stroke="black" d="M1203.73,-1122.43C1192.68,-1112.49 1178.04,-1100.49 1163.5,-1092 1143.22,-1080.17 1121.51,-1069.1 1099.39,-1058.86"/>
<polygon fill="black" stroke="black" points="1100.77,-1055.64 1090.22,-1054.67 1097.86,-1062.01 1100.77,-1055.64"/>
</g>
<!-- Node0x346a25a0&#45;&gt;Node0x4767b340 -->
<g id="edge36" class="edge"><title>Node0x346a25a0&#45;&gt;Node0x4767b340</title>
<path fill="none" stroke="black" d="M864.5,-1092.18C864.5,-1083.51 864.5,-1074.23 864.5,-1064.83"/>
<polygon fill="black" stroke="black" points="868,-1064.62 864.5,-1054.62 861,-1064.62 868,-1064.62"/>
</g>
<!-- Node0xec43d50&#45;&gt;Node0x346a6c50 -->
<g id="edge37" class="edge"><title>Node0xec43d50&#45;&gt;Node0x346a6c50</title>
<path fill="none" stroke="black" d="M668.5,-278.254C668.5,-269.237 668.5,-259.954 668.5,-250.794"/>
<polygon fill="black" stroke="black" points="672,-250.525 668.5,-240.525 665,-250.525 672,-250.525"/>
</g>
<!-- Node0x4767b340&#45;&gt;Node0x2a715300 -->
<g id="edge38" class="edge"><title>Node0x4767b340&#45;&gt;Node0x2a715300</title>
<path fill="none" stroke="black" d="M808.432,-896.379C801.541,-886.777 794.422,-876.858 787.328,-866.974"/>
<polygon fill="black" stroke="black" points="790.056,-864.772 781.382,-858.689 784.369,-868.853 790.056,-864.772"/>
</g>
</g>
</svg>
