<?xml version="1.0" encoding="UTF-8" standalone="no"?>
<!DOCTYPE svg PUBLIC "-//W3C//DTD SVG 1.1//EN"
 "http://www.w3.org/Graphics/SVG/1.1/DTD/svg11.dtd">
<!-- Generated by graphviz version 2.38.0 (20140413.2041)
 -->
<!-- Title: Control&#45;flow graph for function &#39;SpConnectionLoginZeroConf()&#39;. Pages: 1 -->
<svg width="481pt" height="1453pt"
 viewBox="0.00 0.00 481.00 1453.00" xmlns="http://www.w3.org/2000/svg" xmlns:xlink="http://www.w3.org/1999/xlink">
<g id="graph0" class="graph" transform="scale(1 1) rotate(0) translate(4 1449)">
<title>Control&#45;flow graph for function &#39;SpConnectionLoginZeroConf()&#39;.</title>
<polygon fill="white" stroke="none" points="-4,4 -4,-1449 477,-1449 477,4 -4,4"/>
<text text-anchor="middle" x="236.5" y="-7.8" font-family="Times,serif" font-size="14.00">Control&#45;flow graph for function &#39;SpConnectionLoginZeroConf()&#39;.</text>
<!-- Node0x39807510 -->
<g id="node1" class="node"><title>Node0x39807510</title>
<polygon fill="none" stroke="black" points="257.25,-1408.5 257.25,-1444.5 316.25,-1444.5 316.25,-1408.5 257.25,-1408.5"/>
<text text-anchor="start" x="265.25" y="-1422.8" font-family="Times,serif" font-size="14.00">entry:</text>
</g>
<!-- Node0x163a5590 -->
<g id="node2" class="node"><title>Node0x163a5590</title>
<polygon fill="none" stroke="black" points="129.25,-1107.5 129.25,-1370.5 444.25,-1370.5 444.25,-1107.5 129.25,-1107.5"/>
<text text-anchor="start" x="137.25" y="-1355.3" font-family="Times,serif" font-size="14.00">0x38ebcc10:</text>
<text text-anchor="start" x="137.25" y="-1340.3" font-family="Times,serif" font-size="14.00"> v1 = g38</text>
<text text-anchor="start" x="137.25" y="-1325.3" font-family="Times,serif" font-size="14.00"> v2 = g39</text>
<text text-anchor="start" x="137.25" y="-1310.3" font-family="Times,serif" font-size="14.00"> v3 = g40</text>
<text text-anchor="start" x="137.25" y="-1295.3" font-family="Times,serif" font-size="14.00"> v4 = g41</text>
<text text-anchor="start" x="137.25" y="-1280.3" font-family="Times,serif" font-size="14.00"> v5 = g42</text>
<text text-anchor="start" x="137.25" y="-1265.3" font-family="Times,serif" font-size="14.00"> g38 = 165012</text>
<text text-anchor="start" x="137.25" y="-1250.3" font-family="Times,serif" font-size="14.00"> v6 = *(IntToPtrCastExpr&lt;ptr&gt;(165212))</text>
<text text-anchor="start" x="137.25" y="-1235.3" font-family="Times,serif" font-size="14.00"> g42 = v6</text>
<text text-anchor="start" x="137.25" y="-1220.3" font-family="Times,serif" font-size="14.00"> v7 = g29</text>
<text text-anchor="start" x="137.25" y="-1205.3" font-family="Times,serif" font-size="14.00"> g41 = v7</text>
<text text-anchor="start" x="137.25" y="-1190.3" font-family="Times,serif" font-size="14.00"> v8 = *(IntToPtrCastExpr&lt;ptr&gt;(v6))</text>
<text text-anchor="start" x="137.25" y="-1175.3" font-family="Times,serif" font-size="14.00"> g33 = v8</text>
<text text-anchor="start" x="137.25" y="-1160.3" font-family="Times,serif" font-size="14.00"> v9 = g30</text>
<text text-anchor="start" x="137.25" y="-1145.3" font-family="Times,serif" font-size="14.00"> g40 = v9</text>
<text text-anchor="start" x="137.25" y="-1130.3" font-family="Times,serif" font-size="14.00"> v10 = g36</text>
<text text-anchor="start" x="137.25" y="-1115.3" font-family="Times,serif" font-size="14.00"> g39 = v10</text>
</g>
<!-- Node0x39807510&#45;&gt;Node0x163a5590 -->
<g id="edge1" class="edge"><title>Node0x39807510&#45;&gt;Node0x163a5590</title>
<path fill="none" stroke="black" d="M286.75,-1408.38C286.75,-1400.9 286.75,-1391.38 286.75,-1380.69"/>
<polygon fill="black" stroke="black" points="290.25,-1380.57 286.75,-1370.57 283.25,-1380.57 290.25,-1380.57"/>
</g>
<!-- Node0x398060f0 -->
<g id="node3" class="node"><title>Node0x398060f0</title>
<polygon fill="none" stroke="black" points="234.75,-1031.5 234.75,-1069.5 338.75,-1069.5 338.75,-1031.5 234.75,-1031.5"/>
<text text-anchor="start" x="242.75" y="-1054.3" font-family="Times,serif" font-size="14.00">0x81d6d20:</text>
<text text-anchor="start" x="242.75" y="-1039.3" font-family="Times,serif" font-size="14.00"> if (v8 != 0):</text>
</g>
<!-- Node0x163a5590&#45;&gt;Node0x398060f0 -->
<g id="edge2" class="edge"><title>Node0x163a5590&#45;&gt;Node0x398060f0</title>
<path fill="none" stroke="black" d="M286.75,-1107.46C286.75,-1097.36 286.75,-1087.95 286.75,-1079.85"/>
<polygon fill="black" stroke="black" points="290.25,-1079.66 286.75,-1069.66 283.25,-1079.66 290.25,-1079.66"/>
</g>
<!-- Node0x39809710 -->
<g id="node4" class="node"><title>Node0x39809710</title>
<polygon fill="none" stroke="black" points="74.75,-896.5 74.75,-979.5 286.75,-979.5 286.75,-896.5 74.75,-896.5"/>
<text text-anchor="start" x="82.75" y="-964.3" font-family="Times,serif" font-size="14.00">0x81d5ea0:</text>
<text text-anchor="start" x="82.75" y="-949.3" font-family="Times,serif" font-size="14.00"> imported_function_ord_0()</text>
<text text-anchor="start" x="82.75" y="-934.3" font-family="Times,serif" font-size="14.00"> v9 = g40</text>
<text text-anchor="start" x="82.75" y="-919.3" font-family="Times,serif" font-size="14.00"> v7 = g41</text>
<text text-anchor="start" x="82.75" y="-904.3" font-family="Times,serif" font-size="14.00"> v10 = g39</text>
</g>
<!-- Node0x398060f0&#45;&gt;Node0x39809710 -->
<g id="edge3" class="edge"><title>Node0x398060f0&#45;&gt;Node0x39809710</title>
<path fill="none" stroke="black" d="M269.246,-1031.25C257.725,-1019.24 242.061,-1002.91 227.113,-987.331"/>
<polygon fill="black" stroke="black" points="229.302,-984.557 219.854,-979.764 224.25,-989.403 229.302,-984.557"/>
<text text-anchor="middle" x="276.75" y="-1001.8" font-family="Times,serif" font-size="14.00">v8 != 0</text>
</g>
<!-- Node0x39805ec0 -->
<g id="node5" class="node"><title>Node0x39805ec0</title>
<polygon fill="none" stroke="black" points="132.25,-685.5 132.25,-858.5 429.25,-858.5 429.25,-685.5 132.25,-685.5"/>
<text text-anchor="start" x="140.25" y="-843.3" font-family="Times,serif" font-size="14.00">0x81d6e80:</text>
<text text-anchor="start" x="140.25" y="-828.3" font-family="Times,serif" font-size="14.00"> g36 = v10</text>
<text text-anchor="start" x="140.25" y="-813.3" font-family="Times,serif" font-size="14.00"> g29 = v7</text>
<text text-anchor="start" x="140.25" y="-798.3" font-family="Times,serif" font-size="14.00"> g30 = v9</text>
<text text-anchor="start" x="140.25" y="-783.3" font-family="Times,serif" font-size="14.00"> function_17888()</text>
<text text-anchor="start" x="140.25" y="-768.3" font-family="Times,serif" font-size="14.00"> v11 = *(IntToPtrCastExpr&lt;ptr&gt;(g42))</text>
<text text-anchor="start" x="140.25" y="-753.3" font-family="Times,serif" font-size="14.00"> g37 = v11</text>
<text text-anchor="start" x="140.25" y="-738.3" font-family="Times,serif" font-size="14.00"> v12 = g29</text>
<text text-anchor="start" x="140.25" y="-723.3" font-family="Times,serif" font-size="14.00"> g39 = v12</text>
<text text-anchor="start" x="140.25" y="-708.3" font-family="Times,serif" font-size="14.00"> g9 = (v11 == 0)</text>
<text text-anchor="start" x="140.25" y="-693.3" font-family="Times,serif" font-size="14.00"> v13 = v12</text>
</g>
<!-- Node0x398060f0&#45;&gt;Node0x39805ec0 -->
<g id="edge4" class="edge"><title>Node0x398060f0&#45;&gt;Node0x39805ec0</title>
<path fill="none" stroke="black" d="M299.646,-1031.38C302.952,-1025.76 306.052,-1019.36 307.75,-1013 309.471,-1006.56 308.14,-1004.66 307.75,-998 305.251,-955.366 300.016,-908.434 294.816,-868.513"/>
<polygon fill="black" stroke="black" points="298.276,-867.977 293.496,-858.522 291.336,-868.894 298.276,-867.977"/>
<text text-anchor="middle" x="335.75" y="-934.3" font-family="Times,serif" font-size="14.00">v8 == 0</text>
</g>
<!-- Node0x39809710&#45;&gt;Node0x39805ec0 -->
<g id="edge5" class="edge"><title>Node0x39809710&#45;&gt;Node0x39805ec0</title>
<path fill="none" stroke="black" d="M205.469,-896.461C210.982,-887.42 217.051,-877.467 223.278,-867.254"/>
<polygon fill="black" stroke="black" points="226.32,-868.989 228.537,-858.629 220.343,-865.345 226.32,-868.989"/>
</g>
<!-- Node0x39808f10 -->
<g id="node6" class="node"><title>Node0x39808f10</title>
<polygon fill="none" stroke="black" points="224.25,-609.5 224.25,-647.5 337.25,-647.5 337.25,-609.5 224.25,-609.5"/>
<text text-anchor="start" x="232.25" y="-632.3" font-family="Times,serif" font-size="14.00">0x81d95f0:</text>
<text text-anchor="start" x="232.25" y="-617.3" font-family="Times,serif" font-size="14.00"> if (v11 != 0):</text>
</g>
<!-- Node0x39805ec0&#45;&gt;Node0x39808f10 -->
<g id="edge6" class="edge"><title>Node0x39805ec0&#45;&gt;Node0x39808f10</title>
<path fill="none" stroke="black" d="M280.75,-685.425C280.75,-675.55 280.75,-666.079 280.75,-657.829"/>
<polygon fill="black" stroke="black" points="284.25,-657.754 280.75,-647.754 277.25,-657.754 284.25,-657.754"/>
</g>
<!-- Node0x39807410 -->
<g id="node7" class="node"><title>Node0x39807410</title>
<polygon fill="none" stroke="black" points="71.75,-474.5 71.75,-557.5 283.75,-557.5 283.75,-474.5 71.75,-474.5"/>
<text text-anchor="start" x="79.75" y="-542.3" font-family="Times,serif" font-size="14.00">0x81d8c50:</text>
<text text-anchor="start" x="79.75" y="-527.3" font-family="Times,serif" font-size="14.00"> g30 = (g38 &#45; 8176)</text>
<text text-anchor="start" x="79.75" y="-512.3" font-family="Times,serif" font-size="14.00"> g36 = v12</text>
<text text-anchor="start" x="79.75" y="-497.3" font-family="Times,serif" font-size="14.00"> imported_function_ord_0()</text>
<text text-anchor="start" x="79.75" y="-482.3" font-family="Times,serif" font-size="14.00"> v13 = g39</text>
</g>
<!-- Node0x39808f10&#45;&gt;Node0x39807410 -->
<g id="edge7" class="edge"><title>Node0x39808f10&#45;&gt;Node0x39807410</title>
<path fill="none" stroke="black" d="M261.108,-609.242C255.111,-603.506 248.567,-597.082 242.75,-591 234.98,-582.876 226.914,-574.044 219.216,-565.404"/>
<polygon fill="black" stroke="black" points="221.811,-563.054 212.564,-557.883 216.568,-567.692 221.811,-563.054"/>
<text text-anchor="middle" x="274.25" y="-579.8" font-family="Times,serif" font-size="14.00">v11 != 0</text>
</g>
<!-- Node0x39807a10 -->
<g id="node8" class="node"><title>Node0x39807a10</title>
<polygon fill="none" stroke="black" points="156.75,-278.5 156.75,-436.5 398.75,-436.5 398.75,-278.5 156.75,-278.5"/>
<text text-anchor="start" x="164.75" y="-421.3" font-family="Times,serif" font-size="14.00">0x81d9770:</text>
<text text-anchor="start" x="164.75" y="-406.3" font-family="Times,serif" font-size="14.00"> g29 = v13</text>
<text text-anchor="start" x="164.75" y="-391.3" font-family="Times,serif" font-size="14.00"> g38 = v1</text>
<text text-anchor="start" x="164.75" y="-376.3" font-family="Times,serif" font-size="14.00"> g39 = v2</text>
<text text-anchor="start" x="164.75" y="-361.3" font-family="Times,serif" font-size="14.00"> g40 = v3</text>
<text text-anchor="start" x="164.75" y="-346.3" font-family="Times,serif" font-size="14.00"> g41 = v4</text>
<text text-anchor="start" x="164.75" y="-331.3" font-family="Times,serif" font-size="14.00"> g42 = v5</text>
<text text-anchor="start" x="164.75" y="-316.3" font-family="Times,serif" font-size="14.00"> v14</text>
<text text-anchor="start" x="164.75" y="-301.3" font-family="Times,serif" font-size="14.00"> g34 = v14</text>
<text text-anchor="start" x="164.75" y="-286.3" font-family="Times,serif" font-size="14.00"> IntToPtrCastExpr&lt;ptr&gt;(g35)()</text>
</g>
<!-- Node0x39808f10&#45;&gt;Node0x39807a10 -->
<g id="edge8" class="edge"><title>Node0x39808f10&#45;&gt;Node0x39807a10</title>
<path fill="none" stroke="black" d="M296.336,-609.316C300.172,-603.787 303.751,-597.457 305.75,-591 307.722,-584.632 306.172,-582.653 305.75,-576 303.038,-533.27 297.305,-486.109 291.729,-446.655"/>
<polygon fill="black" stroke="black" points="295.162,-445.938 290.279,-436.536 288.233,-446.931 295.162,-445.938"/>
<text text-anchor="middle" x="338.25" y="-512.3" font-family="Times,serif" font-size="14.00">v11 == 0</text>
</g>
<!-- Node0x39807410&#45;&gt;Node0x39807a10 -->
<g id="edge9" class="edge"><title>Node0x39807410&#45;&gt;Node0x39807a10</title>
<path fill="none" stroke="black" d="M203.763,-474.29C209.55,-465.233 215.899,-455.297 222.369,-445.171"/>
<polygon fill="black" stroke="black" points="225.388,-446.947 227.823,-436.635 219.489,-443.177 225.388,-446.947"/>
</g>
<!-- Node0x39807310 -->
<g id="node9" class="node"><title>Node0x39807310</title>
<polygon fill="none" stroke="black" points="227.25,-202.5 227.25,-240.5 328.25,-240.5 328.25,-202.5 227.25,-202.5"/>
<text text-anchor="start" x="235.25" y="-225.3" font-family="Times,serif" font-size="14.00">0x81db710:</text>
<text text-anchor="start" x="235.25" y="-210.3" font-family="Times,serif" font-size="14.00"> if g9:</text>
</g>
<!-- Node0x39807a10&#45;&gt;Node0x39807310 -->
<g id="edge10" class="edge"><title>Node0x39807a10&#45;&gt;Node0x39807310</title>
<path fill="none" stroke="black" d="M277.75,-278.164C277.75,-268.447 277.75,-259.058 277.75,-250.846"/>
<polygon fill="black" stroke="black" points="281.25,-250.801 277.75,-240.801 274.25,-250.801 281.25,-250.801"/>
</g>
<!-- Node0x398066d0 -->
<g id="node10" class="node"><title>Node0x398066d0</title>
<polygon fill="none" stroke="black" points="28.75,-97.5 28.75,-150.5 282.75,-150.5 282.75,-97.5 28.75,-97.5"/>
<text text-anchor="start" x="36.75" y="-135.3" font-family="Times,serif" font-size="14.00">0x81dac90:</text>
<text text-anchor="start" x="36.75" y="-120.3" font-family="Times,serif" font-size="14.00"> g37 = (g30 &amp; (33554432 * g38))</text>
<text text-anchor="start" x="36.75" y="-105.3" font-family="Times,serif" font-size="14.00"> g29 = (g29 &amp; (g42 / 2))</text>
</g>
<!-- Node0x39807310&#45;&gt;Node0x398066d0 -->
<g id="edge11" class="edge"><title>Node0x39807310&#45;&gt;Node0x398066d0</title>
<path fill="none" stroke="black" d="M254.516,-202.312C238.182,-189.527 215.894,-172.08 196.623,-156.995"/>
<polygon fill="black" stroke="black" points="198.607,-154.103 188.575,-150.695 194.292,-159.615 198.607,-154.103"/>
<text text-anchor="middle" x="237.25" y="-172.8" font-family="Times,serif" font-size="14.00">g9</text>
</g>
<!-- Node0x39807610 -->
<g id="node11" class="node"><title>Node0x39807610</title>
<polygon fill="none" stroke="black" points="244.75,-23.5 244.75,-59.5 298.75,-59.5 298.75,-23.5 244.75,-23.5"/>
<text text-anchor="start" x="252.75" y="-37.8" font-family="Times,serif" font-size="14.00">exit:</text>
</g>
<!-- Node0x39807310&#45;&gt;Node0x39807610 -->
<g id="edge12" class="edge"><title>Node0x39807310&#45;&gt;Node0x39807610</title>
<path fill="none" stroke="black" d="M283.052,-202.399C289.388,-178.239 298.357,-134.18 291.75,-97 290.085,-87.6271 286.925,-77.7515 283.602,-69.0202"/>
<polygon fill="black" stroke="black" points="286.842,-67.6962 279.85,-59.7361 280.352,-70.3191 286.842,-67.6962"/>
<text text-anchor="middle" x="322.25" y="-120.3" font-family="Times,serif" font-size="14.00">not (g9)</text>
</g>
<!-- Node0x398066d0&#45;&gt;Node0x39807610 -->
<g id="edge13" class="edge"><title>Node0x398066d0&#45;&gt;Node0x39807610</title>
<path fill="none" stroke="black" d="M192.772,-97.308C207.488,-87.0959 224.285,-75.4388 238.595,-65.5083"/>
<polygon fill="black" stroke="black" points="240.923,-68.1534 247.143,-59.5766 236.932,-62.4025 240.923,-68.1534"/>
</g>
</g>
</svg>
