<?xml version="1.0" encoding="UTF-8" standalone="no"?>
<!DOCTYPE svg PUBLIC "-//W3C//DTD SVG 1.1//EN"
 "http://www.w3.org/Graphics/SVG/1.1/DTD/svg11.dtd">
<!-- Generated by graphviz version 2.38.0 (20140413.2041)
 -->
<!-- Title: Control&#45;flow graph for function &#39;function_1b72c()&#39;. Pages: 1 -->
<svg width="385pt" height="231pt"
 viewBox="0.00 0.00 385.00 231.00" xmlns="http://www.w3.org/2000/svg" xmlns:xlink="http://www.w3.org/1999/xlink">
<g id="graph0" class="graph" transform="scale(1 1) rotate(0) translate(4 227)">
<title>Control&#45;flow graph for function &#39;function_1b72c()&#39;.</title>
<polygon fill="white" stroke="none" points="-4,4 -4,-227 381,-227 381,4 -4,4"/>
<text text-anchor="middle" x="188.5" y="-7.8" font-family="Times,serif" font-size="14.00">Control&#45;flow graph for function &#39;function_1b72c()&#39;.</text>
<!-- Node0x3f8166c0 -->
<g id="node1" class="node"><title>Node0x3f8166c0</title>
<polygon fill="none" stroke="black" points="159,-186.5 159,-222.5 218,-222.5 218,-186.5 159,-186.5"/>
<text text-anchor="start" x="167" y="-200.8" font-family="Times,serif" font-size="14.00">entry:</text>
</g>
<!-- Node0x3648f7c0 -->
<g id="node2" class="node"><title>Node0x3648f7c0</title>
<polygon fill="none" stroke="black" points="39.5,-96.5 39.5,-149.5 337.5,-149.5 337.5,-96.5 39.5,-96.5"/>
<text text-anchor="start" x="47.5" y="-134.3" font-family="Times,serif" font-size="14.00">0x93c0df0:</text>
<text text-anchor="start" x="47.5" y="-119.3" font-family="Times,serif" font-size="14.00"> g36 = *(IntToPtrCastExpr&lt;ptr&gt;(g29))</text>
<text text-anchor="start" x="47.5" y="-104.3" font-family="Times,serif" font-size="14.00"> g37 = 0</text>
</g>
<!-- Node0x3f8166c0&#45;&gt;Node0x3648f7c0 -->
<g id="edge1" class="edge"><title>Node0x3f8166c0&#45;&gt;Node0x3648f7c0</title>
<path fill="none" stroke="black" d="M188.5,-186.25C188.5,-178.486 188.5,-169.014 188.5,-159.825"/>
<polygon fill="black" stroke="black" points="192,-159.676 188.5,-149.676 185,-159.676 192,-159.676"/>
</g>
<!-- Node0x3f812db0 -->
<g id="node3" class="node"><title>Node0x3f812db0</title>
<polygon fill="none" stroke="black" points="161.5,-23.5 161.5,-59.5 215.5,-59.5 215.5,-23.5 161.5,-23.5"/>
<text text-anchor="start" x="169.5" y="-37.8" font-family="Times,serif" font-size="14.00">exit:</text>
</g>
<!-- Node0x3648f7c0&#45;&gt;Node0x3f812db0 -->
<g id="edge2" class="edge"><title>Node0x3648f7c0&#45;&gt;Node0x3f812db0</title>
<path fill="none" stroke="black" d="M188.5,-96.4081C188.5,-87.9823 188.5,-78.5803 188.5,-70.0174"/>
<polygon fill="black" stroke="black" points="192,-69.7564 188.5,-59.7564 185,-69.7565 192,-69.7564"/>
</g>
</g>
</svg>
