<?xml version="1.0" encoding="UTF-8" standalone="no"?>
<!DOCTYPE svg PUBLIC "-//W3C//DTD SVG 1.1//EN"
 "http://www.w3.org/Graphics/SVG/1.1/DTD/svg11.dtd">
<!-- Generated by graphviz version 2.38.0 (20140413.2041)
 -->
<!-- Title: Control&#45;flow graph for function &#39;function_b78c()&#39;. Pages: 1 -->
<svg width="376pt" height="546pt"
 viewBox="0.00 0.00 376.00 546.00" xmlns="http://www.w3.org/2000/svg" xmlns:xlink="http://www.w3.org/1999/xlink">
<g id="graph0" class="graph" transform="scale(1 1) rotate(0) translate(4 542)">
<title>Control&#45;flow graph for function &#39;function_b78c()&#39;.</title>
<polygon fill="white" stroke="none" points="-4,4 -4,-542 372,-542 372,4 -4,4"/>
<text text-anchor="middle" x="184" y="-7.8" font-family="Times,serif" font-size="14.00">Control&#45;flow graph for function &#39;function_b78c()&#39;.</text>
<!-- Node0x2231f1f0 -->
<g id="node1" class="node"><title>Node0x2231f1f0</title>
<polygon fill="none" stroke="black" points="154.5,-501.5 154.5,-537.5 213.5,-537.5 213.5,-501.5 154.5,-501.5"/>
<text text-anchor="start" x="162.5" y="-515.8" font-family="Times,serif" font-size="14.00">entry:</text>
</g>
<!-- Node0x2231c840 -->
<g id="node2" class="node"><title>Node0x2231c840</title>
<polygon fill="none" stroke="black" points="3,-96.5 3,-464.5 365,-464.5 365,-96.5 3,-96.5"/>
<text text-anchor="start" x="11" y="-449.3" font-family="Times,serif" font-size="14.00">0x1c27e370:</text>
<text text-anchor="start" x="11" y="-434.3" font-family="Times,serif" font-size="14.00"> v1 = g39</text>
<text text-anchor="start" x="11" y="-419.3" font-family="Times,serif" font-size="14.00"> v2 = g40</text>
<text text-anchor="start" x="11" y="-404.3" font-family="Times,serif" font-size="14.00"> v3 = g41</text>
<text text-anchor="start" x="11" y="-389.3" font-family="Times,serif" font-size="14.00"> v4 = g36</text>
<text text-anchor="start" x="11" y="-374.3" font-family="Times,serif" font-size="14.00"> g39 = v4</text>
<text text-anchor="start" x="11" y="-359.3" font-family="Times,serif" font-size="14.00"> g40 = g29</text>
<text text-anchor="start" x="11" y="-344.3" font-family="Times,serif" font-size="14.00"> g41 = g30</text>
<text text-anchor="start" x="11" y="-329.3" font-family="Times,serif" font-size="14.00"> memset(IntToPtrCastExpr&lt;ptr&gt;(v4), g10, g37)</text>
<text text-anchor="start" x="11" y="-314.3" font-family="Times,serif" font-size="14.00"> v5</text>
<text text-anchor="start" x="11" y="-299.3" font-family="Times,serif" font-size="14.00"> g30 = v5</text>
<text text-anchor="start" x="11" y="-284.3" font-family="Times,serif" font-size="14.00"> g36 = g39</text>
<text text-anchor="start" x="11" y="-269.3" font-family="Times,serif" font-size="14.00"> function_b150()</text>
<text text-anchor="start" x="11" y="-254.3" font-family="Times,serif" font-size="14.00"> v6</text>
<text text-anchor="start" x="11" y="-239.3" font-family="Times,serif" font-size="14.00"> g33 = v6</text>
<text text-anchor="start" x="11" y="-224.3" font-family="Times,serif" font-size="14.00"> g30 = g40</text>
<text text-anchor="start" x="11" y="-209.3" font-family="Times,serif" font-size="14.00"> g36 = g41</text>
<text text-anchor="start" x="11" y="-194.3" font-family="Times,serif" font-size="14.00"> g37 = 1</text>
<text text-anchor="start" x="11" y="-179.3" font-family="Times,serif" font-size="14.00"> function_b174()</text>
<text text-anchor="start" x="11" y="-164.3" font-family="Times,serif" font-size="14.00"> g39 = v1</text>
<text text-anchor="start" x="11" y="-149.3" font-family="Times,serif" font-size="14.00"> g40 = v2</text>
<text text-anchor="start" x="11" y="-134.3" font-family="Times,serif" font-size="14.00"> g41 = v3</text>
<text text-anchor="start" x="11" y="-119.3" font-family="Times,serif" font-size="14.00"> g34 = v5</text>
<text text-anchor="start" x="11" y="-104.3" font-family="Times,serif" font-size="14.00"> IntToPtrCastExpr&lt;ptr&gt;(g35)()</text>
</g>
<!-- Node0x2231f1f0&#45;&gt;Node0x2231c840 -->
<g id="edge1" class="edge"><title>Node0x2231f1f0&#45;&gt;Node0x2231c840</title>
<path fill="none" stroke="black" d="M184,-501.456C184,-494.378 184,-485.412 184,-475.17"/>
<polygon fill="black" stroke="black" points="187.5,-474.98 184,-464.98 180.5,-474.98 187.5,-474.98"/>
</g>
<!-- Node0x3af137d0 -->
<g id="node3" class="node"><title>Node0x3af137d0</title>
<polygon fill="none" stroke="black" points="157,-23.5 157,-59.5 211,-59.5 211,-23.5 157,-23.5"/>
<text text-anchor="start" x="165" y="-37.8" font-family="Times,serif" font-size="14.00">exit:</text>
</g>
<!-- Node0x2231c840&#45;&gt;Node0x3af137d0 -->
<g id="edge2" class="edge"><title>Node0x2231c840&#45;&gt;Node0x3af137d0</title>
<path fill="none" stroke="black" d="M184,-96.279C184,-86.3355 184,-77.2691 184,-69.5302"/>
<polygon fill="black" stroke="black" points="187.5,-69.5206 184,-59.5207 180.5,-69.5207 187.5,-69.5206"/>
</g>
</g>
</svg>
