<?xml version="1.0" encoding="UTF-8" standalone="no"?>
<!DOCTYPE svg PUBLIC "-//W3C//DTD SVG 1.1//EN"
 "http://www.w3.org/Graphics/SVG/1.1/DTD/svg11.dtd">
<!-- Generated by graphviz version 2.38.0 (20140413.2041)
 -->
<!-- Title: Control&#45;flow graph for function &#39;function_13078()&#39;. Pages: 1 -->
<svg width="386pt" height="291pt"
 viewBox="0.00 0.00 386.00 291.00" xmlns="http://www.w3.org/2000/svg" xmlns:xlink="http://www.w3.org/1999/xlink">
<g id="graph0" class="graph" transform="scale(1 1) rotate(0) translate(4 287)">
<title>Control&#45;flow graph for function &#39;function_13078()&#39;.</title>
<polygon fill="white" stroke="none" points="-4,4 -4,-287 382,-287 382,4 -4,4"/>
<text text-anchor="middle" x="189" y="-7.8" font-family="Times,serif" font-size="14.00">Control&#45;flow graph for function &#39;function_13078()&#39;.</text>
<!-- Node0x3b6f28d0 -->
<g id="node1" class="node"><title>Node0x3b6f28d0</title>
<polygon fill="none" stroke="black" points="159.5,-246.5 159.5,-282.5 218.5,-282.5 218.5,-246.5 159.5,-246.5"/>
<text text-anchor="start" x="167.5" y="-260.8" font-family="Times,serif" font-size="14.00">entry:</text>
</g>
<!-- Node0x3b6f40d0 -->
<g id="node2" class="node"><title>Node0x3b6f40d0</title>
<polygon fill="none" stroke="black" points="56,-96.5 56,-209.5 322,-209.5 322,-96.5 56,-96.5"/>
<text text-anchor="start" x="64" y="-194.3" font-family="Times,serif" font-size="14.00">0x1c02ef90:</text>
<text text-anchor="start" x="64" y="-179.3" font-family="Times,serif" font-size="14.00"> v1 = (g37 | 32)</text>
<text text-anchor="start" x="64" y="-164.3" font-family="Times,serif" font-size="14.00"> v2 = (v1 &#45; 97)</text>
<text text-anchor="start" x="64" y="-149.3" font-family="Times,serif" font-size="14.00"> g37 = v2</text>
<text text-anchor="start" x="64" y="-134.3" font-family="Times,serif" font-size="14.00"> g6 = (v2 &gt; 4)</text>
<text text-anchor="start" x="64" y="-119.3" font-family="Times,serif" font-size="14.00"> g9 = (v2 == 5)</text>
<text text-anchor="start" x="64" y="-104.3" font-family="Times,serif" font-size="14.00"> g29 = (&#45;1 if (v2 &gt; 5) else (v1 &#45; 87))</text>
</g>
<!-- Node0x3b6f28d0&#45;&gt;Node0x3b6f40d0 -->
<g id="edge1" class="edge"><title>Node0x3b6f28d0&#45;&gt;Node0x3b6f40d0</title>
<path fill="none" stroke="black" d="M189,-246.391C189,-238.98 189,-229.786 189,-220.096"/>
<polygon fill="black" stroke="black" points="192.5,-219.873 189,-209.873 185.5,-219.873 192.5,-219.873"/>
</g>
<!-- Node0x3b6f3f10 -->
<g id="node3" class="node"><title>Node0x3b6f3f10</title>
<polygon fill="none" stroke="black" points="162,-23.5 162,-59.5 216,-59.5 216,-23.5 162,-23.5"/>
<text text-anchor="start" x="170" y="-37.8" font-family="Times,serif" font-size="14.00">exit:</text>
</g>
<!-- Node0x3b6f40d0&#45;&gt;Node0x3b6f3f10 -->
<g id="edge2" class="edge"><title>Node0x3b6f40d0&#45;&gt;Node0x3b6f3f10</title>
<path fill="none" stroke="black" d="M189,-96.2876C189,-87.1343 189,-78.0169 189,-69.9591"/>
<polygon fill="black" stroke="black" points="192.5,-69.7241 189,-59.7242 185.5,-69.7242 192.5,-69.7241"/>
</g>
</g>
</svg>
