<?xml version="1.0" encoding="UTF-8" standalone="no"?>
<!DOCTYPE svg PUBLIC "-//W3C//DTD SVG 1.1//EN"
 "http://www.w3.org/Graphics/SVG/1.1/DTD/svg11.dtd">
<!-- Generated by graphviz version 2.38.0 (20140413.2041)
 -->
<!-- Title: Control&#45;flow graph for function &#39;function_8ff0()&#39;. Pages: 1 -->
<svg width="1057pt" height="903pt"
 viewBox="0.00 0.00 1056.50 903.00" xmlns="http://www.w3.org/2000/svg" xmlns:xlink="http://www.w3.org/1999/xlink">
<g id="graph0" class="graph" transform="scale(1 1) rotate(0) translate(4 899)">
<title>Control&#45;flow graph for function &#39;function_8ff0()&#39;.</title>
<polygon fill="white" stroke="none" points="-4,4 -4,-899 1052.5,-899 1052.5,4 -4,4"/>
<text text-anchor="middle" x="524.25" y="-7.8" font-family="Times,serif" font-size="14.00">Control&#45;flow graph for function &#39;function_8ff0()&#39;.</text>
<!-- Node0x17441ad0 -->
<g id="node1" class="node"><title>Node0x17441ad0</title>
<polygon fill="none" stroke="black" points="399,-858.5 399,-894.5 458,-894.5 458,-858.5 399,-858.5"/>
<text text-anchor="start" x="407" y="-872.8" font-family="Times,serif" font-size="14.00">entry:</text>
</g>
<!-- Node0x21fcf7a0 -->
<g id="node2" class="node"><title>Node0x21fcf7a0</title>
<polygon fill="none" stroke="black" points="-5.68434e-14,-692.5 -5.68434e-14,-820.5 857,-820.5 857,-692.5 -5.68434e-14,-692.5"/>
<text text-anchor="start" x="8" y="-805.3" font-family="Times,serif" font-size="14.00">0x42545970:</text>
<text text-anchor="start" x="8" y="-790.3" font-family="Times,serif" font-size="14.00"> v1 = ((256 * ExtCastExpr&lt;int32&gt;(*(IntToPtrCastExpr&lt;ptr&gt;((g29 + 16))))) + *(IntToPtrCastExpr&lt;ptr&gt;((g29 + 8))))</text>
<text text-anchor="start" x="8" y="-775.3" font-family="Times,serif" font-size="14.00"> g36 = v1</text>
<text text-anchor="start" x="8" y="-760.3" font-family="Times,serif" font-size="14.00"> v2 = *(IntToPtrCastExpr&lt;ptr&gt;((g29 + 18)))</text>
<text text-anchor="start" x="8" y="-745.3" font-family="Times,serif" font-size="14.00"> v3 = v2</text>
<text text-anchor="start" x="8" y="-730.3" font-family="Times,serif" font-size="14.00"> g37 = v3</text>
<text text-anchor="start" x="8" y="-715.3" font-family="Times,serif" font-size="14.00"> g30 = 1</text>
<text text-anchor="start" x="8" y="-700.3" font-family="Times,serif" font-size="14.00"> v4</text>
</g>
<!-- Node0x17441ad0&#45;&gt;Node0x21fcf7a0 -->
<g id="edge1" class="edge"><title>Node0x17441ad0&#45;&gt;Node0x21fcf7a0</title>
<path fill="none" stroke="black" d="M428.5,-858.342C428.5,-850.719 428.5,-841.177 428.5,-831.023"/>
<polygon fill="black" stroke="black" points="432,-830.713 428.5,-820.713 425,-830.713 432,-830.713"/>
</g>
<!-- Node0x30e5fa20 -->
<g id="node3" class="node"><title>Node0x30e5fa20</title>
<polygon fill="none" stroke="black" points="373.5,-616.5 373.5,-654.5 483.5,-654.5 483.5,-616.5 373.5,-616.5"/>
<text text-anchor="start" x="381.5" y="-639.3" font-family="Times,serif" font-size="14.00">0x6cfa560:</text>
<text text-anchor="start" x="381.5" y="-624.3" font-family="Times,serif" font-size="14.00"> if (v2 == 0):</text>
</g>
<!-- Node0x21fcf7a0&#45;&gt;Node0x30e5fa20 -->
<g id="edge2" class="edge"><title>Node0x21fcf7a0&#45;&gt;Node0x30e5fa20</title>
<path fill="none" stroke="black" d="M428.5,-692.167C428.5,-682.596 428.5,-673.158 428.5,-664.848"/>
<polygon fill="black" stroke="black" points="432,-664.658 428.5,-654.659 425,-664.659 432,-664.658"/>
</g>
<!-- Node0x17441ec0 -->
<g id="node4" class="node"><title>Node0x17441ec0</title>
<polygon fill="none" stroke="black" points="261.5,-334.5 261.5,-417.5 379.5,-417.5 379.5,-334.5 261.5,-334.5"/>
<text text-anchor="start" x="269.5" y="-402.3" font-family="Times,serif" font-size="14.00">0x6cf9c60:</text>
<text text-anchor="start" x="269.5" y="-387.3" font-family="Times,serif" font-size="14.00"> v4 = &#45;(v3)</text>
<text text-anchor="start" x="269.5" y="-372.3" font-family="Times,serif" font-size="14.00"> g8 = False</text>
<text text-anchor="start" x="269.5" y="-357.3" font-family="Times,serif" font-size="14.00"> g7 = (v4 &lt; 0)</text>
<text text-anchor="start" x="269.5" y="-342.3" font-family="Times,serif" font-size="14.00"> return</text>
</g>
<!-- Node0x30e5fa20&#45;&gt;Node0x17441ec0 -->
<g id="edge3" class="edge"><title>Node0x30e5fa20&#45;&gt;Node0x17441ec0</title>
<path fill="none" stroke="black" d="M418.458,-616.483C410.901,-602.611 400.512,-582.852 392.5,-565 371.942,-519.191 351.783,-465.59 338.049,-427.37"/>
<polygon fill="black" stroke="black" points="341.186,-425.748 334.526,-417.508 334.595,-428.103 341.186,-425.748"/>
<text text-anchor="middle" x="438.5" y="-586.8" font-family="Times,serif" font-size="14.00">v2 == 0</text>
</g>
<!-- Node0x121ff440 -->
<g id="node5" class="node"><title>Node0x121ff440</title>
<polygon fill="none" stroke="black" points="401.5,-436.5 401.5,-564.5 903.5,-564.5 903.5,-436.5 401.5,-436.5"/>
<text text-anchor="start" x="409.5" y="-549.3" font-family="Times,serif" font-size="14.00">0x13e99a20:</text>
<text text-anchor="start" x="409.5" y="-534.3" font-family="Times,serif" font-size="14.00"> v5 = IntToPtrCastExpr&lt;ptr&gt;((v1 + 8))</text>
<text text-anchor="start" x="409.5" y="-519.3" font-family="Times,serif" font-size="14.00"> *(v5) = (*(v5) &amp; &#45;1025)</text>
<text text-anchor="start" x="409.5" y="-504.3" font-family="Times,serif" font-size="14.00"> v6 = (g36 + 256)</text>
<text text-anchor="start" x="409.5" y="-489.3" font-family="Times,serif" font-size="14.00"> v7 = g30</text>
<text text-anchor="start" x="409.5" y="-474.3" font-family="Times,serif" font-size="14.00"> g36 = v6</text>
<text text-anchor="start" x="409.5" y="-459.3" font-family="Times,serif" font-size="14.00"> v8 = ExtCastExpr&lt;int32&gt;(*(IntToPtrCastExpr&lt;ptr&gt;((g29 + 18))))</text>
<text text-anchor="start" x="409.5" y="-444.3" font-family="Times,serif" font-size="14.00"> g30 = (v7 + 1)</text>
</g>
<!-- Node0x30e5fa20&#45;&gt;Node0x121ff440 -->
<g id="edge4" class="edge"><title>Node0x30e5fa20&#45;&gt;Node0x121ff440</title>
<path fill="none" stroke="black" d="M459.177,-616.286C479.808,-604.036 508.428,-587.043 537.329,-569.883"/>
<polygon fill="black" stroke="black" points="539.487,-572.672 546.299,-564.557 535.913,-566.653 539.487,-572.672"/>
<text text-anchor="middle" x="540.5" y="-586.8" font-family="Times,serif" font-size="14.00">v2 != 0</text>
</g>
<!-- Node0x21fcd710 -->
<g id="node6" class="node"><title>Node0x21fcd710</title>
<polygon fill="none" stroke="black" points="457.5,-23.5 457.5,-59.5 511.5,-59.5 511.5,-23.5 457.5,-23.5"/>
<text text-anchor="start" x="465.5" y="-37.8" font-family="Times,serif" font-size="14.00">exit:</text>
</g>
<!-- Node0x17441ec0&#45;&gt;Node0x21fcd710 -->
<g id="edge5" class="edge"><title>Node0x17441ec0&#45;&gt;Node0x21fcd710</title>
<path fill="none" stroke="black" d="M310.29,-334.034C298.229,-275.333 285.776,-166.7 337.5,-97 363.004,-62.6326 412.633,-49.9224 447.131,-45.2306"/>
<polygon fill="black" stroke="black" points="447.793,-48.6765 457.308,-44.0168 446.964,-41.7258 447.793,-48.6765"/>
</g>
<!-- Node0x121ff140 -->
<g id="node7" class="node"><title>Node0x121ff140</title>
<polygon fill="none" stroke="black" points="598.5,-277.5 598.5,-315.5 732.5,-315.5 732.5,-277.5 598.5,-277.5"/>
<text text-anchor="start" x="606.5" y="-300.3" font-family="Times,serif" font-size="14.00">0x6cfe650:</text>
<text text-anchor="start" x="606.5" y="-285.3" font-family="Times,serif" font-size="14.00"> while (v7 &lt; v8):</text>
</g>
<!-- Node0x121ff440&#45;&gt;Node0x121ff140 -->
<g id="edge6" class="edge"><title>Node0x121ff440&#45;&gt;Node0x121ff140</title>
<path fill="none" stroke="black" d="M656.56,-436.417C658.938,-399.464 661.826,-354.59 663.664,-326.036"/>
<polygon fill="black" stroke="black" points="667.164,-326.146 664.313,-315.942 660.178,-325.697 667.164,-326.146"/>
</g>
<!-- Node0x17440070 -->
<g id="node8" class="node"><title>Node0x17440070</title>
<polygon fill="none" stroke="black" points="346.5,-97.5 346.5,-225.5 848.5,-225.5 848.5,-97.5 346.5,-97.5"/>
<text text-anchor="start" x="354.5" y="-210.3" font-family="Times,serif" font-size="14.00">0x1802a100:</text>
<text text-anchor="start" x="354.5" y="-195.3" font-family="Times,serif" font-size="14.00"> v5 = IntToPtrCastExpr&lt;ptr&gt;((v6 + 8))</text>
<text text-anchor="start" x="354.5" y="-180.3" font-family="Times,serif" font-size="14.00"> *(v5) = (*(v5) &amp; &#45;1025)</text>
<text text-anchor="start" x="354.5" y="-165.3" font-family="Times,serif" font-size="14.00"> v6 = (g36 + 256)</text>
<text text-anchor="start" x="354.5" y="-150.3" font-family="Times,serif" font-size="14.00"> v7 = g30</text>
<text text-anchor="start" x="354.5" y="-135.3" font-family="Times,serif" font-size="14.00"> g36 = v6</text>
<text text-anchor="start" x="354.5" y="-120.3" font-family="Times,serif" font-size="14.00"> v8 = ExtCastExpr&lt;int32&gt;(*(IntToPtrCastExpr&lt;ptr&gt;((g29 + 18))))</text>
<text text-anchor="start" x="354.5" y="-105.3" font-family="Times,serif" font-size="14.00"> g30 = (v7 + 1)</text>
</g>
<!-- Node0x121ff140&#45;&gt;Node0x17440070 -->
<g id="edge7" class="edge"><title>Node0x121ff140&#45;&gt;Node0x17440070</title>
<path fill="none" stroke="black" d="M615.176,-277.466C607.73,-272.613 601.045,-266.546 596.5,-259 592.229,-251.909 589.644,-243.96 588.253,-235.749"/>
<polygon fill="black" stroke="black" points="591.712,-235.189 587.115,-225.643 584.756,-235.971 591.712,-235.189"/>
<text text-anchor="middle" x="624.5" y="-247.8" font-family="Times,serif" font-size="14.00">v7 &lt; v8</text>
</g>
<!-- Node0x30e5ae20 -->
<g id="node9" class="node"><title>Node0x30e5ae20</title>
<polygon fill="none" stroke="black" points="866.5,-127.5 866.5,-195.5 1048.5,-195.5 1048.5,-127.5 866.5,-127.5"/>
<text text-anchor="start" x="874.5" y="-180.3" font-family="Times,serif" font-size="14.00">0x6cfdaf0:</text>
<text text-anchor="start" x="874.5" y="-165.3" font-family="Times,serif" font-size="14.00"> v4 = (v7 &#45; v8)</text>
<text text-anchor="start" x="874.5" y="-150.3" font-family="Times,serif" font-size="14.00"> g8 = ((v7 &amp; &#45;(v4)) &lt; 0)</text>
<text text-anchor="start" x="874.5" y="-135.3" font-family="Times,serif" font-size="14.00"> g7 = (v4 &lt; 0)</text>
</g>
<!-- Node0x121ff140&#45;&gt;Node0x30e5ae20 -->
<g id="edge8" class="edge"><title>Node0x121ff140&#45;&gt;Node0x30e5ae20</title>
<path fill="none" stroke="black" d="M725.704,-277.459C764.255,-265.002 814.862,-246.941 857.5,-226 872.252,-218.755 887.538,-209.845 901.588,-201.016"/>
<polygon fill="black" stroke="black" points="903.614,-203.875 910.16,-195.545 899.848,-197.975 903.614,-203.875"/>
<text text-anchor="middle" x="850.5" y="-247.8" font-family="Times,serif" font-size="14.00">v7 &gt;= v8</text>
</g>
<!-- Node0x17440070&#45;&gt;Node0x121ff140 -->
<g id="edge9" class="edge"><title>Node0x17440070&#45;&gt;Node0x121ff140</title>
<path fill="none" stroke="black" d="M643.202,-225.802C646.617,-231.805 649.783,-237.923 652.5,-244 655.798,-251.375 658.361,-259.734 660.306,-267.539"/>
<polygon fill="black" stroke="black" points="656.904,-268.366 662.517,-277.352 663.733,-266.828 656.904,-268.366"/>
</g>
<!-- Node0x30e5ae20&#45;&gt;Node0x21fcd710 -->
<g id="edge10" class="edge"><title>Node0x30e5ae20&#45;&gt;Node0x21fcd710</title>
<path fill="none" stroke="black" d="M914.318,-127.465C897.425,-116.09 877.359,-104.371 857.5,-97 740.44,-53.5492 590.684,-44.5929 521.988,-42.8493"/>
<polygon fill="black" stroke="black" points="521.749,-39.3434 511.676,-42.6272 521.598,-46.3418 521.749,-39.3434"/>
</g>
</g>
</svg>
