<?xml version="1.0" encoding="UTF-8" standalone="no"?>
<!DOCTYPE svg PUBLIC "-//W3C//DTD SVG 1.1//EN"
 "http://www.w3.org/Graphics/SVG/1.1/DTD/svg11.dtd">
<!-- Generated by graphviz version 2.38.0 (20140413.2041)
 -->
<!-- Title: Control&#45;flow graph for function &#39;function_1d03c()&#39;. Pages: 1 -->
<svg width="719pt" height="1077pt"
 viewBox="0.00 0.00 719.00 1077.00" xmlns="http://www.w3.org/2000/svg" xmlns:xlink="http://www.w3.org/1999/xlink">
<g id="graph0" class="graph" transform="scale(1 1) rotate(0) translate(4 1073)">
<title>Control&#45;flow graph for function &#39;function_1d03c()&#39;.</title>
<polygon fill="white" stroke="none" points="-4,4 -4,-1073 715,-1073 715,4 -4,4"/>
<text text-anchor="middle" x="355.5" y="-7.8" font-family="Times,serif" font-size="14.00">Control&#45;flow graph for function &#39;function_1d03c()&#39;.</text>
<!-- Node0x2da0d1a0 -->
<g id="node1" class="node"><title>Node0x2da0d1a0</title>
<polygon fill="none" stroke="black" points="420.5,-1032.5 420.5,-1068.5 479.5,-1068.5 479.5,-1032.5 420.5,-1032.5"/>
<text text-anchor="start" x="428.5" y="-1046.8" font-family="Times,serif" font-size="14.00">entry:</text>
</g>
<!-- Node0x2d6e2ab0 -->
<g id="node2" class="node"><title>Node0x2d6e2ab0</title>
<polygon fill="none" stroke="black" points="225.5,-836.5 225.5,-994.5 674.5,-994.5 674.5,-836.5 225.5,-836.5"/>
<text text-anchor="start" x="233.5" y="-979.3" font-family="Times,serif" font-size="14.00">0x1ac2c660:</text>
<text text-anchor="start" x="233.5" y="-964.3" font-family="Times,serif" font-size="14.00"> v1 = NULL</text>
<text text-anchor="start" x="233.5" y="-949.3" font-family="Times,serif" font-size="14.00"> v2 = g29</text>
<text text-anchor="start" x="233.5" y="-934.3" font-family="Times,serif" font-size="14.00"> g9 = (v2 == 0)</text>
<text text-anchor="start" x="233.5" y="-919.3" font-family="Times,serif" font-size="14.00"> g34 = PtrToIntCastExpr&lt;int32&gt;(v1)</text>
<text text-anchor="start" x="233.5" y="-904.3" font-family="Times,serif" font-size="14.00"> IntToPtrCastExpr&lt;ptr&gt;(ExtCastExpr&lt;int32&gt;((v2 == 0)))()</text>
<text text-anchor="start" x="233.5" y="-889.3" font-family="Times,serif" font-size="14.00"> v3 = g39</text>
<text text-anchor="start" x="233.5" y="-874.3" font-family="Times,serif" font-size="14.00"> v4 = *(IntToPtrCastExpr&lt;ptr&gt;((v3 + 4)))</text>
<text text-anchor="start" x="233.5" y="-859.3" font-family="Times,serif" font-size="14.00"> g30 = v4</text>
<text text-anchor="start" x="233.5" y="-844.3" font-family="Times,serif" font-size="14.00"> g9 = (v4 == 0)</text>
</g>
<!-- Node0x2da0d1a0&#45;&gt;Node0x2d6e2ab0 -->
<g id="edge1" class="edge"><title>Node0x2da0d1a0&#45;&gt;Node0x2d6e2ab0</title>
<path fill="none" stroke="black" d="M450,-1032.38C450,-1024.78 450,-1015.21 450,-1004.83"/>
<polygon fill="black" stroke="black" points="453.5,-1004.68 450,-994.682 446.5,-1004.68 453.5,-1004.68"/>
</g>
<!-- Node0x32b1e440 -->
<g id="node3" class="node"><title>Node0x32b1e440</title>
<polygon fill="none" stroke="black" points="398,-760.5 398,-798.5 502,-798.5 502,-760.5 398,-760.5"/>
<text text-anchor="start" x="406" y="-783.3" font-family="Times,serif" font-size="14.00">0x9885eb0:</text>
<text text-anchor="start" x="406" y="-768.3" font-family="Times,serif" font-size="14.00"> if (v4 != 0):</text>
</g>
<!-- Node0x2d6e2ab0&#45;&gt;Node0x32b1e440 -->
<g id="edge2" class="edge"><title>Node0x2d6e2ab0&#45;&gt;Node0x32b1e440</title>
<path fill="none" stroke="black" d="M450,-836.164C450,-826.447 450,-817.058 450,-808.846"/>
<polygon fill="black" stroke="black" points="453.5,-808.801 450,-798.801 446.5,-808.801 453.5,-808.801"/>
</g>
<!-- Node0x20d42fa0 -->
<g id="node4" class="node"><title>Node0x20d42fa0</title>
<polygon fill="none" stroke="black" points="0,-610.5 0,-708.5 484,-708.5 484,-610.5 0,-610.5"/>
<text text-anchor="start" x="8" y="-693.3" font-family="Times,serif" font-size="14.00">0x10cc6af0:</text>
<text text-anchor="start" x="8" y="-678.3" font-family="Times,serif" font-size="14.00"> v5 = g38</text>
<text text-anchor="start" x="8" y="-663.3" font-family="Times,serif" font-size="14.00"> g29 = v5</text>
<text text-anchor="start" x="8" y="-648.3" font-family="Times,serif" font-size="14.00"> g35 = 118892</text>
<text text-anchor="start" x="8" y="-633.3" font-family="Times,serif" font-size="14.00"> IntToPtrCastExpr&lt;ptr&gt;(*(IntToPtrCastExpr&lt;ptr&gt;((v5 + 12))))()</text>
<text text-anchor="start" x="8" y="-618.3" font-family="Times,serif" font-size="14.00"> v3 = g39</text>
</g>
<!-- Node0x32b1e440&#45;&gt;Node0x20d42fa0 -->
<g id="edge3" class="edge"><title>Node0x32b1e440&#45;&gt;Node0x20d42fa0</title>
<path fill="none" stroke="black" d="M417.956,-760.321C395.76,-747.729 364.988,-730.272 335.377,-713.473"/>
<polygon fill="black" stroke="black" points="337.076,-710.413 326.651,-708.523 333.622,-716.502 337.076,-710.413"/>
<text text-anchor="middle" x="410" y="-730.8" font-family="Times,serif" font-size="14.00">v4 != 0</text>
</g>
<!-- Node0xd0aed60 -->
<g id="node5" class="node"><title>Node0xd0aed60</title>
<polygon fill="none" stroke="black" points="284.5,-489.5 284.5,-572.5 603.5,-572.5 603.5,-489.5 284.5,-489.5"/>
<text text-anchor="start" x="292.5" y="-557.3" font-family="Times,serif" font-size="14.00">0x11b49aa0:</text>
<text text-anchor="start" x="292.5" y="-542.3" font-family="Times,serif" font-size="14.00"> v6 = *(IntToPtrCastExpr&lt;ptr&gt;((v3 + 8)))</text>
<text text-anchor="start" x="292.5" y="-527.3" font-family="Times,serif" font-size="14.00"> g30 = v6</text>
<text text-anchor="start" x="292.5" y="-512.3" font-family="Times,serif" font-size="14.00"> g9 = (v6 == 0)</text>
<text text-anchor="start" x="292.5" y="-497.3" font-family="Times,serif" font-size="14.00"> v7</text>
</g>
<!-- Node0x32b1e440&#45;&gt;Node0xd0aed60 -->
<g id="edge4" class="edge"><title>Node0x32b1e440&#45;&gt;Node0xd0aed60</title>
<path fill="none" stroke="black" d="M465.139,-760.392C475.216,-747.101 487.567,-728.107 493,-709 505.034,-666.678 505.179,-652.281 493,-610 490.211,-600.319 485.828,-590.678 480.803,-581.646"/>
<polygon fill="black" stroke="black" points="483.699,-579.666 475.6,-572.836 477.672,-583.226 483.699,-579.666"/>
<text text-anchor="middle" x="533" y="-655.8" font-family="Times,serif" font-size="14.00">v4 == 0</text>
</g>
<!-- Node0x20d42fa0&#45;&gt;Node0xd0aed60 -->
<g id="edge5" class="edge"><title>Node0x20d42fa0&#45;&gt;Node0xd0aed60</title>
<path fill="none" stroke="black" d="M318.656,-610.495C335.668,-599.841 353.661,-588.574 370.542,-578.002"/>
<polygon fill="black" stroke="black" points="372.64,-580.818 379.257,-572.544 368.924,-574.886 372.64,-580.818"/>
</g>
<!-- Node0x3715fdf0 -->
<g id="node6" class="node"><title>Node0x3715fdf0</title>
<polygon fill="none" stroke="black" points="392,-398.5 392,-451.5 496,-451.5 496,-398.5 392,-398.5"/>
<text text-anchor="start" x="400" y="-436.3" font-family="Times,serif" font-size="14.00">0x9888890:</text>
<text text-anchor="start" x="400" y="-421.3" font-family="Times,serif" font-size="14.00"> if (v6 != 0):</text>
<text text-anchor="start" x="400" y="-406.3" font-family="Times,serif" font-size="14.00"> else:</text>
</g>
<!-- Node0xd0aed60&#45;&gt;Node0x3715fdf0 -->
<g id="edge6" class="edge"><title>Node0xd0aed60&#45;&gt;Node0x3715fdf0</title>
<path fill="none" stroke="black" d="M444,-489.493C444,-480.311 444,-470.625 444,-461.66"/>
<polygon fill="black" stroke="black" points="447.5,-461.541 444,-451.541 440.5,-461.541 447.5,-461.541"/>
</g>
<!-- Node0x2da102e0 -->
<g id="node7" class="node"><title>Node0x2da102e0</title>
<polygon fill="none" stroke="black" points="106,-248.5 106,-346.5 590,-346.5 590,-248.5 106,-248.5"/>
<text text-anchor="start" x="114" y="-331.3" font-family="Times,serif" font-size="14.00">0x40592e40:</text>
<text text-anchor="start" x="114" y="-316.3" font-family="Times,serif" font-size="14.00"> v8 = g38</text>
<text text-anchor="start" x="114" y="-301.3" font-family="Times,serif" font-size="14.00"> g29 = v8</text>
<text text-anchor="start" x="114" y="-286.3" font-family="Times,serif" font-size="14.00"> g35 = 118916</text>
<text text-anchor="start" x="114" y="-271.3" font-family="Times,serif" font-size="14.00"> IntToPtrCastExpr&lt;ptr&gt;(*(IntToPtrCastExpr&lt;ptr&gt;((v8 + 12))))()</text>
<text text-anchor="start" x="114" y="-256.3" font-family="Times,serif" font-size="14.00"> v7 = g39</text>
</g>
<!-- Node0x3715fdf0&#45;&gt;Node0x2da102e0 -->
<g id="edge7" class="edge"><title>Node0x3715fdf0&#45;&gt;Node0x2da102e0</title>
<path fill="none" stroke="black" d="M424.341,-398.3C414.76,-385.775 402.833,-370.182 391.274,-355.071"/>
<polygon fill="black" stroke="black" points="393.763,-352.565 384.907,-346.749 388.203,-356.818 393.763,-352.565"/>
<text text-anchor="middle" x="438" y="-368.8" font-family="Times,serif" font-size="14.00">v6 != 0</text>
</g>
<!-- Node0x1dd25250 -->
<g id="node8" class="node"><title>Node0x1dd25250</title>
<polygon fill="none" stroke="black" points="608.5,-278.5 608.5,-316.5 709.5,-316.5 709.5,-278.5 608.5,-278.5"/>
<text text-anchor="start" x="616.5" y="-301.3" font-family="Times,serif" font-size="14.00">0x98889c0:</text>
<text text-anchor="start" x="616.5" y="-286.3" font-family="Times,serif" font-size="14.00"> v7 = v3</text>
</g>
<!-- Node0x3715fdf0&#45;&gt;Node0x1dd25250 -->
<g id="edge8" class="edge"><title>Node0x3715fdf0&#45;&gt;Node0x1dd25250</title>
<path fill="none" stroke="black" d="M496.147,-401.568C526.97,-387.469 566.25,-368.012 599,-347 610.009,-339.937 621.35,-331.205 631.168,-323.105"/>
<polygon fill="black" stroke="black" points="633.618,-325.617 639.016,-316.5 629.111,-320.261 633.618,-325.617"/>
<text text-anchor="middle" x="596" y="-368.8" font-family="Times,serif" font-size="14.00">v6 == 0</text>
</g>
<!-- Node0x1dd1d310 -->
<g id="node9" class="node"><title>Node0x1dd1d310</title>
<polygon fill="none" stroke="black" points="367,-97.5 367,-210.5 711,-210.5 711,-97.5 367,-97.5"/>
<text text-anchor="start" x="375" y="-195.3" font-family="Times,serif" font-size="14.00">0x9888fd0:</text>
<text text-anchor="start" x="375" y="-180.3" font-family="Times,serif" font-size="14.00"> g38 = *(IntToPtrCastExpr&lt;ptr&gt;(g34))</text>
<text text-anchor="start" x="375" y="-165.3" font-family="Times,serif" font-size="14.00"> g39 = v1[&#39;1&#39;]</text>
<text text-anchor="start" x="375" y="-150.3" font-family="Times,serif" font-size="14.00"> g32 = v1[&#39;2&#39;]</text>
<text text-anchor="start" x="375" y="-135.3" font-family="Times,serif" font-size="14.00"> g34 = v1[&#39;3&#39;]</text>
<text text-anchor="start" x="375" y="-120.3" font-family="Times,serif" font-size="14.00"> g35 = v1[&#39;4&#39;]</text>
<text text-anchor="start" x="375" y="-105.3" font-family="Times,serif" font-size="14.00"> memset(IntToPtrCastExpr&lt;ptr&gt;(v7), g10, 0)</text>
</g>
<!-- Node0x2da102e0&#45;&gt;Node0x1dd1d310 -->
<g id="edge9" class="edge"><title>Node0x2da102e0&#45;&gt;Node0x1dd1d310</title>
<path fill="none" stroke="black" d="M412.93,-248.397C426.672,-238.217 441.357,-227.337 455.672,-216.733"/>
<polygon fill="black" stroke="black" points="458.095,-219.293 464.047,-210.528 453.928,-213.668 458.095,-219.293"/>
</g>
<!-- Node0x1dd25250&#45;&gt;Node0x1dd1d310 -->
<g id="edge10" class="edge"><title>Node0x1dd25250&#45;&gt;Node0x1dd1d310</title>
<path fill="none" stroke="black" d="M643.558,-278.291C630.591,-263.001 611.263,-240.21 592.739,-218.368"/>
<polygon fill="black" stroke="black" points="595.37,-216.058 586.233,-210.695 590.031,-220.586 595.37,-216.058"/>
</g>
<!-- Node0x39ee7b20 -->
<g id="node10" class="node"><title>Node0x39ee7b20</title>
<polygon fill="none" stroke="black" points="512,-23.5 512,-59.5 566,-59.5 566,-23.5 512,-23.5"/>
<text text-anchor="start" x="520" y="-37.8" font-family="Times,serif" font-size="14.00">exit:</text>
</g>
<!-- Node0x1dd1d310&#45;&gt;Node0x39ee7b20 -->
<g id="edge11" class="edge"><title>Node0x1dd1d310&#45;&gt;Node0x39ee7b20</title>
<path fill="none" stroke="black" d="M539,-97.4263C539,-87.8599 539,-78.3065 539,-69.9133"/>
<polygon fill="black" stroke="black" points="542.5,-69.6444 539,-59.6444 535.5,-69.6444 542.5,-69.6444"/>
</g>
</g>
</svg>
