<?xml version="1.0" encoding="UTF-8" standalone="no"?>
<!DOCTYPE svg PUBLIC "-//W3C//DTD SVG 1.1//EN"
 "http://www.w3.org/Graphics/SVG/1.1/DTD/svg11.dtd">
<!-- Generated by graphviz version 2.38.0 (20140413.2041)
 -->
<!-- Title: Control&#45;flow graph for function &#39;function_1b8f8()&#39;. Pages: 1 -->
<svg width="1132pt" height="1384pt"
 viewBox="0.00 0.00 1131.50 1384.00" xmlns="http://www.w3.org/2000/svg" xmlns:xlink="http://www.w3.org/1999/xlink">
<g id="graph0" class="graph" transform="scale(1 1) rotate(0) translate(4 1380)">
<title>Control&#45;flow graph for function &#39;function_1b8f8()&#39;.</title>
<polygon fill="white" stroke="none" points="-4,4 -4,-1380 1127.5,-1380 1127.5,4 -4,4"/>
<text text-anchor="middle" x="561.75" y="-7.8" font-family="Times,serif" font-size="14.00">Control&#45;flow graph for function &#39;function_1b8f8()&#39;.</text>
<!-- Node0x3f813190 -->
<g id="node1" class="node"><title>Node0x3f813190</title>
<polygon fill="none" stroke="black" points="245.5,-1339.5 245.5,-1375.5 304.5,-1375.5 304.5,-1339.5 245.5,-1339.5"/>
<text text-anchor="start" x="253.5" y="-1353.8" font-family="Times,serif" font-size="14.00">entry:</text>
</g>
<!-- Node0x2a3ec750 -->
<g id="node2" class="node"><title>Node0x2a3ec750</title>
<polygon fill="none" stroke="black" points="115.5,-1068.5 115.5,-1301.5 434.5,-1301.5 434.5,-1068.5 115.5,-1068.5"/>
<text text-anchor="start" x="123.5" y="-1286.3" font-family="Times,serif" font-size="14.00">0x1c881e60:</text>
<text text-anchor="start" x="123.5" y="-1271.3" font-family="Times,serif" font-size="14.00"> v1 = g38</text>
<text text-anchor="start" x="123.5" y="-1256.3" font-family="Times,serif" font-size="14.00"> v2 = g39</text>
<text text-anchor="start" x="123.5" y="-1241.3" font-family="Times,serif" font-size="14.00"> v3 = g32</text>
<text text-anchor="start" x="123.5" y="-1226.3" font-family="Times,serif" font-size="14.00"> v4 = g35</text>
<text text-anchor="start" x="123.5" y="-1211.3" font-family="Times,serif" font-size="14.00"> v5 = g29</text>
<text text-anchor="start" x="123.5" y="-1196.3" font-family="Times,serif" font-size="14.00"> g38 = v5</text>
<text text-anchor="start" x="123.5" y="-1181.3" font-family="Times,serif" font-size="14.00"> v6 = *(IntToPtrCastExpr&lt;ptr&gt;((v5 + 4)))</text>
<text text-anchor="start" x="123.5" y="-1166.3" font-family="Times,serif" font-size="14.00"> v7 = g30</text>
<text text-anchor="start" x="123.5" y="-1151.3" font-family="Times,serif" font-size="14.00"> g39 = v7</text>
<text text-anchor="start" x="123.5" y="-1136.3" font-family="Times,serif" font-size="14.00"> g8 = False</text>
<text text-anchor="start" x="123.5" y="-1121.3" font-family="Times,serif" font-size="14.00"> g7 = (v6 &lt; 0)</text>
<text text-anchor="start" x="123.5" y="-1106.3" font-family="Times,serif" font-size="14.00"> g9 = (v6 == 0)</text>
<text text-anchor="start" x="123.5" y="-1091.3" font-family="Times,serif" font-size="14.00"> g30 = g36</text>
<text text-anchor="start" x="123.5" y="-1076.3" font-family="Times,serif" font-size="14.00"> v8</text>
</g>
<!-- Node0x3f813190&#45;&gt;Node0x2a3ec750 -->
<g id="edge1" class="edge"><title>Node0x3f813190&#45;&gt;Node0x2a3ec750</title>
<path fill="none" stroke="black" d="M275,-1339.21C275,-1331.69 275,-1322.17 275,-1311.57"/>
<polygon fill="black" stroke="black" points="278.5,-1311.56 275,-1301.56 271.5,-1311.56 278.5,-1311.56"/>
</g>
<!-- Node0x36496180 -->
<g id="node3" class="node"><title>Node0x36496180</title>
<polygon fill="none" stroke="black" points="220,-992.5 220,-1030.5 330,-1030.5 330,-992.5 220,-992.5"/>
<text text-anchor="start" x="228" y="-1015.3" font-family="Times,serif" font-size="14.00">0x93fb610:</text>
<text text-anchor="start" x="228" y="-1000.3" font-family="Times,serif" font-size="14.00"> if (v6 == 0):</text>
</g>
<!-- Node0x2a3ec750&#45;&gt;Node0x36496180 -->
<g id="edge2" class="edge"><title>Node0x2a3ec750&#45;&gt;Node0x36496180</title>
<path fill="none" stroke="black" d="M275,-1068.18C275,-1058.25 275,-1048.94 275,-1040.88"/>
<polygon fill="black" stroke="black" points="278.5,-1040.72 275,-1030.72 271.5,-1040.72 278.5,-1040.72"/>
</g>
<!-- Node0x36493850 -->
<g id="node4" class="node"><title>Node0x36493850</title>
<polygon fill="none" stroke="black" points="0,-515.5 0,-748.5 338,-748.5 338,-515.5 0,-515.5"/>
<text text-anchor="start" x="8" y="-733.3" font-family="Times,serif" font-size="14.00">0x93f92a0:</text>
<text text-anchor="start" x="8" y="-718.3" font-family="Times,serif" font-size="14.00"> g29 = *(IntToPtrCastExpr&lt;ptr&gt;(v5))</text>
<text text-anchor="start" x="8" y="-703.3" font-family="Times,serif" font-size="14.00"> function_1b3fc()</text>
<text text-anchor="start" x="8" y="-688.3" font-family="Times,serif" font-size="14.00"> v9 = g29</text>
<text text-anchor="start" x="8" y="-673.3" font-family="Times,serif" font-size="14.00"> g37 = *(IntToPtrCastExpr&lt;ptr&gt;(v9))</text>
<text text-anchor="start" x="8" y="-658.3" font-family="Times,serif" font-size="14.00"> *(IntToPtrCastExpr&lt;ptr&gt;((g38 + 4))) = v9</text>
<text text-anchor="start" x="8" y="-643.3" font-family="Times,serif" font-size="14.00"> g37 = *(IntToPtrCastExpr&lt;ptr&gt;(g37))</text>
<text text-anchor="start" x="8" y="-628.3" font-family="Times,serif" font-size="14.00"> *(IntToPtrCastExpr&lt;ptr&gt;((g38 + 8))) = g29</text>
<text text-anchor="start" x="8" y="-613.3" font-family="Times,serif" font-size="14.00"> g29 = g37</text>
<text text-anchor="start" x="8" y="-598.3" font-family="Times,serif" font-size="14.00"> g38 = v1</text>
<text text-anchor="start" x="8" y="-583.3" font-family="Times,serif" font-size="14.00"> g39 = v2</text>
<text text-anchor="start" x="8" y="-568.3" font-family="Times,serif" font-size="14.00"> g32 = v3</text>
<text text-anchor="start" x="8" y="-553.3" font-family="Times,serif" font-size="14.00"> g34 = v8</text>
<text text-anchor="start" x="8" y="-538.3" font-family="Times,serif" font-size="14.00"> IntToPtrCastExpr&lt;ptr&gt;(v4)()</text>
<text text-anchor="start" x="8" y="-523.3" font-family="Times,serif" font-size="14.00"> return</text>
</g>
<!-- Node0x36496180&#45;&gt;Node0x36493850 -->
<g id="edge3" class="edge"><title>Node0x36496180&#45;&gt;Node0x36493850</title>
<path fill="none" stroke="black" d="M249.297,-992.252C233.745,-979.711 215.037,-961.637 205,-941 177.79,-885.052 167.81,-816.853 165.049,-758.865"/>
<polygon fill="black" stroke="black" points="168.532,-758.384 164.627,-748.535 161.538,-758.669 168.532,-758.384"/>
<text text-anchor="middle" x="259" y="-962.8" font-family="Times,serif" font-size="14.00">v6 == 0</text>
</g>
<!-- Node0x364941d0 -->
<g id="node5" class="node"><title>Node0x364941d0</title>
<polygon fill="none" stroke="black" points="214.5,-767.5 214.5,-940.5 651.5,-940.5 651.5,-767.5 214.5,-767.5"/>
<text text-anchor="start" x="222.5" y="-925.3" font-family="Times,serif" font-size="14.00">0x4093b3b0:</text>
<text text-anchor="start" x="222.5" y="-910.3" font-family="Times,serif" font-size="14.00"> v10 = *(IntToPtrCastExpr&lt;ptr&gt;(v6))</text>
<text text-anchor="start" x="222.5" y="-895.3" font-family="Times,serif" font-size="14.00"> g33 = v10</text>
<text text-anchor="start" x="222.5" y="-880.3" font-family="Times,serif" font-size="14.00"> v11 = *(IntToPtrCastExpr&lt;ptr&gt;((v6 + 8)))</text>
<text text-anchor="start" x="222.5" y="-865.3" font-family="Times,serif" font-size="14.00"> g35 = v11</text>
<text text-anchor="start" x="222.5" y="-850.3" font-family="Times,serif" font-size="14.00"> v12 = *(IntToPtrCastExpr&lt;ptr&gt;((v6 + 4)))</text>
<text text-anchor="start" x="222.5" y="-835.3" font-family="Times,serif" font-size="14.00"> v13 = ((*(IntToPtrCastExpr&lt;ptr&gt;((v10 + 4))) &#45; v11) &#45; v12)</text>
<text text-anchor="start" x="222.5" y="-820.3" font-family="Times,serif" font-size="14.00"> v14 = (v13 &#45; v7)</text>
<text text-anchor="start" x="222.5" y="-805.3" font-family="Times,serif" font-size="14.00"> g8 = (((v14 ^ v13) &amp; (v13 ^ v7)) &lt; 0)</text>
<text text-anchor="start" x="222.5" y="-790.3" font-family="Times,serif" font-size="14.00"> g7 = (v14 &lt; 0)</text>
<text text-anchor="start" x="222.5" y="-775.3" font-family="Times,serif" font-size="14.00"> g9 = (v13 == v7)</text>
</g>
<!-- Node0x36496180&#45;&gt;Node0x364941d0 -->
<g id="edge4" class="edge"><title>Node0x36496180&#45;&gt;Node0x364941d0</title>
<path fill="none" stroke="black" d="M293.434,-992.358C305.186,-980.791 321.409,-964.826 338.645,-947.862"/>
<polygon fill="black" stroke="black" points="341.412,-950.05 346.084,-940.541 336.502,-945.061 341.412,-950.05"/>
<text text-anchor="middle" x="354" y="-962.8" font-family="Times,serif" font-size="14.00">v6 != 0</text>
</g>
<!-- Node0x32c008b0 -->
<g id="node6" class="node"><title>Node0x32c008b0</title>
<polygon fill="none" stroke="black" points="213,-23.5 213,-59.5 267,-59.5 267,-23.5 213,-23.5"/>
<text text-anchor="start" x="221" y="-37.8" font-family="Times,serif" font-size="14.00">exit:</text>
</g>
<!-- Node0x36493850&#45;&gt;Node0x32c008b0 -->
<g id="edge5" class="edge"><title>Node0x36493850&#45;&gt;Node0x32c008b0</title>
<path fill="none" stroke="black" d="M166.035,-515.483C165.444,-484.027 165,-449.956 165,-418.5 165,-418.5 165,-418.5 165,-153 165,-118.722 190.014,-87.1815 211.151,-66.6494"/>
<polygon fill="black" stroke="black" points="213.784,-68.9792 218.709,-59.5984 209.009,-63.8607 213.784,-68.9792"/>
</g>
<!-- Node0x3f8172c0 -->
<g id="node7" class="node"><title>Node0x3f8172c0</title>
<polygon fill="none" stroke="black" points="385.5,-443.5 385.5,-496.5 500.5,-496.5 500.5,-443.5 385.5,-443.5"/>
<text text-anchor="start" x="393.5" y="-481.3" font-family="Times,serif" font-size="14.00">0x9400e20:</text>
<text text-anchor="start" x="393.5" y="-466.3" font-family="Times,serif" font-size="14.00"> if (v13 &lt; v7):</text>
<text text-anchor="start" x="393.5" y="-451.3" font-family="Times,serif" font-size="14.00"> else:</text>
</g>
<!-- Node0x364941d0&#45;&gt;Node0x3f8172c0 -->
<g id="edge6" class="edge"><title>Node0x364941d0&#45;&gt;Node0x3f8172c0</title>
<path fill="none" stroke="black" d="M435.244,-767.272C437.386,-685.473 440.507,-566.214 442.056,-507.055"/>
<polygon fill="black" stroke="black" points="445.563,-506.819 442.326,-496.731 438.566,-506.636 445.563,-506.819"/>
</g>
<!-- Node0x2a3ec470 -->
<g id="node8" class="node"><title>Node0x2a3ec470</title>
<polygon fill="none" stroke="black" points="193.5,-248.5 193.5,-391.5 692.5,-391.5 692.5,-248.5 193.5,-248.5"/>
<text text-anchor="start" x="201.5" y="-376.3" font-family="Times,serif" font-size="14.00">0x93fe730:</text>
<text text-anchor="start" x="201.5" y="-361.3" font-family="Times,serif" font-size="14.00"> g29 = *(IntToPtrCastExpr&lt;ptr&gt;(v5))</text>
<text text-anchor="start" x="201.5" y="-346.3" font-family="Times,serif" font-size="14.00"> function_1b3fc()</text>
<text text-anchor="start" x="201.5" y="-331.3" font-family="Times,serif" font-size="14.00"> v15 = g29</text>
<text text-anchor="start" x="201.5" y="-316.3" font-family="Times,serif" font-size="14.00"> v16 = *(IntToPtrCastExpr&lt;ptr&gt;((g38 + 4)))</text>
<text text-anchor="start" x="201.5" y="-301.3" font-family="Times,serif" font-size="14.00"> g36 = v16</text>
<text text-anchor="start" x="201.5" y="-286.3" font-family="Times,serif" font-size="14.00"> g37 = *(IntToPtrCastExpr&lt;ptr&gt;(*(IntToPtrCastExpr&lt;ptr&gt;(v15))))</text>
<text text-anchor="start" x="201.5" y="-271.3" font-family="Times,serif" font-size="14.00"> *(IntToPtrCastExpr&lt;ptr&gt;((v16 + 12))) = v15</text>
<text text-anchor="start" x="201.5" y="-256.3" font-family="Times,serif" font-size="14.00"> *(IntToPtrCastExpr&lt;ptr&gt;((g38 + 4))) = g29</text>
</g>
<!-- Node0x3f8172c0&#45;&gt;Node0x2a3ec470 -->
<g id="edge7" class="edge"><title>Node0x3f8172c0&#45;&gt;Node0x2a3ec470</title>
<path fill="none" stroke="black" d="M443,-443.22C443,-431.512 443,-416.951 443,-402.005"/>
<polygon fill="black" stroke="black" points="446.5,-401.627 443,-391.627 439.5,-401.627 446.5,-401.627"/>
<text text-anchor="middle" x="475.5" y="-413.8" font-family="Times,serif" font-size="14.00">v13 &lt; v7</text>
</g>
<!-- Node0x36492d90 -->
<g id="node9" class="node"><title>Node0x36492d90</title>
<polygon fill="none" stroke="black" points="710.5,-301 710.5,-339 1123.5,-339 1123.5,-301 710.5,-301"/>
<text text-anchor="start" x="718.5" y="-323.8" font-family="Times,serif" font-size="14.00">0x94014f0:</text>
<text text-anchor="start" x="718.5" y="-308.8" font-family="Times,serif" font-size="14.00"> g37 = ((v12 + v11) + *(IntToPtrCastExpr&lt;ptr&gt;(v10)))</text>
</g>
<!-- Node0x3f8172c0&#45;&gt;Node0x36492d90 -->
<g id="edge8" class="edge"><title>Node0x3f8172c0&#45;&gt;Node0x36492d90</title>
<path fill="none" stroke="black" d="M500.501,-452.441C553.086,-437.171 632.958,-413.658 702,-392 753.325,-375.9 811.211,-356.725 853.979,-342.363"/>
<polygon fill="black" stroke="black" points="855.325,-345.603 863.688,-339.099 853.094,-338.968 855.325,-345.603"/>
<text text-anchor="middle" x="676.5" y="-413.8" font-family="Times,serif" font-size="14.00">v13 &gt;= v7</text>
</g>
<!-- Node0x2a3ec240 -->
<g id="node10" class="node"><title>Node0x2a3ec240</title>
<polygon fill="none" stroke="black" points="326.5,-97.5 326.5,-210.5 559.5,-210.5 559.5,-97.5 326.5,-97.5"/>
<text text-anchor="start" x="334.5" y="-195.3" font-family="Times,serif" font-size="14.00">0x9401aa0:</text>
<text text-anchor="start" x="334.5" y="-180.3" font-family="Times,serif" font-size="14.00"> g29 = g37</text>
<text text-anchor="start" x="334.5" y="-165.3" font-family="Times,serif" font-size="14.00"> g38 = v1</text>
<text text-anchor="start" x="334.5" y="-150.3" font-family="Times,serif" font-size="14.00"> g39 = v2</text>
<text text-anchor="start" x="334.5" y="-135.3" font-family="Times,serif" font-size="14.00"> g32 = v3</text>
<text text-anchor="start" x="334.5" y="-120.3" font-family="Times,serif" font-size="14.00"> g34 = v8</text>
<text text-anchor="start" x="334.5" y="-105.3" font-family="Times,serif" font-size="14.00"> IntToPtrCastExpr&lt;ptr&gt;(v4)()</text>
</g>
<!-- Node0x2a3ec470&#45;&gt;Node0x2a3ec240 -->
<g id="edge9" class="edge"><title>Node0x2a3ec470&#45;&gt;Node0x2a3ec240</title>
<path fill="none" stroke="black" d="M443,-248.497C443,-239.288 443,-229.882 443,-220.755"/>
<polygon fill="black" stroke="black" points="446.5,-220.594 443,-210.594 439.5,-220.594 446.5,-220.594"/>
</g>
<!-- Node0x36492d90&#45;&gt;Node0x2a3ec240 -->
<g id="edge10" class="edge"><title>Node0x36492d90&#45;&gt;Node0x2a3ec240</title>
<path fill="none" stroke="black" d="M864.918,-300.98C794.28,-276.54 665.836,-232.099 569.156,-198.649"/>
<polygon fill="black" stroke="black" points="570.201,-195.307 559.606,-195.345 567.912,-201.922 570.201,-195.307"/>
</g>
<!-- Node0x2a3ec240&#45;&gt;Node0x32c008b0 -->
<g id="edge11" class="edge"><title>Node0x2a3ec240&#45;&gt;Node0x32c008b0</title>
<path fill="none" stroke="black" d="M340.905,-97.4263C317.594,-84.7369 294.324,-72.0704 276.015,-62.1041"/>
<polygon fill="black" stroke="black" points="277.64,-59.0037 267.183,-57.2968 274.293,-65.1519 277.64,-59.0037"/>
</g>
</g>
</svg>
