<?xml version="1.0" encoding="UTF-8" standalone="no"?>
<!DOCTYPE svg PUBLIC "-//W3C//DTD SVG 1.1//EN"
 "http://www.w3.org/Graphics/SVG/1.1/DTD/svg11.dtd">
<!-- Generated by graphviz version 2.38.0 (20140413.2041)
 -->
<!-- Title: Control&#45;flow graph for function &#39;function_17078()&#39;. Pages: 1 -->
<svg width="718pt" height="1907pt"
 viewBox="0.00 0.00 717.50 1907.00" xmlns="http://www.w3.org/2000/svg" xmlns:xlink="http://www.w3.org/1999/xlink">
<g id="graph0" class="graph" transform="scale(1 1) rotate(0) translate(4 1903)">
<title>Control&#45;flow graph for function &#39;function_17078()&#39;.</title>
<polygon fill="white" stroke="none" points="-4,4 -4,-1903 713.5,-1903 713.5,4 -4,4"/>
<text text-anchor="middle" x="354.75" y="-7.8" font-family="Times,serif" font-size="14.00">Control&#45;flow graph for function &#39;function_17078()&#39;.</text>
<!-- Node0x37edfa50 -->
<g id="node1" class="node"><title>Node0x37edfa50</title>
<polygon fill="none" stroke="black" points="408,-1862.5 408,-1898.5 467,-1898.5 467,-1862.5 408,-1862.5"/>
<text text-anchor="start" x="416" y="-1876.8" font-family="Times,serif" font-size="14.00">entry:</text>
</g>
<!-- Node0x37ee02e0 -->
<g id="node2" class="node"><title>Node0x37ee02e0</title>
<polygon fill="none" stroke="black" points="372.5,-1741.5 372.5,-1824.5 502.5,-1824.5 502.5,-1741.5 372.5,-1741.5"/>
<text text-anchor="start" x="380.5" y="-1809.3" font-family="Times,serif" font-size="14.00">0x3d3f73f0:</text>
<text text-anchor="start" x="380.5" y="-1794.3" font-family="Times,serif" font-size="14.00"> v1 = NULL</text>
<text text-anchor="start" x="380.5" y="-1779.3" font-family="Times,serif" font-size="14.00"> v2 = g18</text>
<text text-anchor="start" x="380.5" y="-1764.3" font-family="Times,serif" font-size="14.00"> g29 = v2</text>
<text text-anchor="start" x="380.5" y="-1749.3" font-family="Times,serif" font-size="14.00"> g9 = (v2 == 0)</text>
</g>
<!-- Node0x37edfa50&#45;&gt;Node0x37ee02e0 -->
<g id="edge1" class="edge"><title>Node0x37edfa50&#45;&gt;Node0x37ee02e0</title>
<path fill="none" stroke="black" d="M437.5,-1862.43C437.5,-1854.62 437.5,-1844.92 437.5,-1835.03"/>
<polygon fill="black" stroke="black" points="441,-1834.73 437.5,-1824.73 434,-1834.73 441,-1834.73"/>
</g>
<!-- Node0x26517360 -->
<g id="node3" class="node"><title>Node0x26517360</title>
<polygon fill="none" stroke="black" points="382.5,-1665.5 382.5,-1703.5 492.5,-1703.5 492.5,-1665.5 382.5,-1665.5"/>
<text text-anchor="start" x="390.5" y="-1688.3" font-family="Times,serif" font-size="14.00">0x868cdd0:</text>
<text text-anchor="start" x="390.5" y="-1673.3" font-family="Times,serif" font-size="14.00"> if (v2 == 0):</text>
</g>
<!-- Node0x37ee02e0&#45;&gt;Node0x26517360 -->
<g id="edge2" class="edge"><title>Node0x37ee02e0&#45;&gt;Node0x26517360</title>
<path fill="none" stroke="black" d="M437.5,-1741.35C437.5,-1732.08 437.5,-1722.43 437.5,-1713.8"/>
<polygon fill="black" stroke="black" points="441,-1713.54 437.5,-1703.54 434,-1713.54 441,-1713.54"/>
</g>
<!-- Node0x37ee27a0 -->
<g id="node4" class="node"><title>Node0x37ee27a0</title>
<polygon fill="none" stroke="black" points="338,-1575.5 338,-1613.5 439,-1613.5 439,-1575.5 338,-1575.5"/>
<text text-anchor="start" x="346" y="-1598.3" font-family="Times,serif" font-size="14.00">0x868c910:</text>
<text text-anchor="start" x="346" y="-1583.3" font-family="Times,serif" font-size="14.00"> g29 = 6</text>
</g>
<!-- Node0x26517360&#45;&gt;Node0x37ee27a0 -->
<g id="edge3" class="edge"><title>Node0x26517360&#45;&gt;Node0x37ee27a0</title>
<path fill="none" stroke="black" d="M415.927,-1665.41C410.551,-1659.98 405.256,-1653.67 401.5,-1647 397.473,-1639.85 394.675,-1631.45 392.738,-1623.52"/>
<polygon fill="black" stroke="black" points="396.123,-1622.61 390.656,-1613.54 389.27,-1624.04 396.123,-1622.61"/>
<text text-anchor="middle" x="431.5" y="-1635.8" font-family="Times,serif" font-size="14.00">v2 == 0</text>
</g>
<!-- Node0x26518130 -->
<g id="node5" class="node"><title>Node0x26518130</title>
<polygon fill="none" stroke="black" points="223,-1439.5 223,-1537.5 672,-1537.5 672,-1439.5 223,-1439.5"/>
<text text-anchor="start" x="231" y="-1522.3" font-family="Times,serif" font-size="14.00">0x8692600:</text>
<text text-anchor="start" x="231" y="-1507.3" font-family="Times,serif" font-size="14.00"> g34 = PtrToIntCastExpr&lt;int32&gt;(v1)</text>
<text text-anchor="start" x="231" y="-1492.3" font-family="Times,serif" font-size="14.00"> IntToPtrCastExpr&lt;ptr&gt;(ExtCastExpr&lt;int32&gt;((v2 == 0)))()</text>
<text text-anchor="start" x="231" y="-1477.3" font-family="Times,serif" font-size="14.00"> function_f4a8()</text>
<text text-anchor="start" x="231" y="-1462.3" font-family="Times,serif" font-size="14.00"> v3 = g29</text>
<text text-anchor="start" x="231" y="-1447.3" font-family="Times,serif" font-size="14.00"> g9 = (v3 == 0)</text>
</g>
<!-- Node0x26517360&#45;&gt;Node0x26518130 -->
<g id="edge4" class="edge"><title>Node0x26517360&#45;&gt;Node0x26518130</title>
<path fill="none" stroke="black" d="M452.469,-1665.23C456.152,-1659.7 459.586,-1653.39 461.5,-1647 471.083,-1614.98 468.386,-1577.8 462.921,-1547.61"/>
<polygon fill="black" stroke="black" points="466.328,-1546.79 460.975,-1537.65 459.458,-1548.14 466.328,-1546.79"/>
<text text-anchor="middle" x="495.5" y="-1590.8" font-family="Times,serif" font-size="14.00">v2 != 0</text>
</g>
<!-- Node0x37ee27a0&#45;&gt;Node0x26518130 -->
<g id="edge5" class="edge"><title>Node0x37ee27a0&#45;&gt;Node0x26518130</title>
<path fill="none" stroke="black" d="M398.777,-1575.38C403.42,-1567.2 409.188,-1557.03 415.113,-1546.59"/>
<polygon fill="black" stroke="black" points="418.215,-1548.21 420.105,-1537.79 412.126,-1544.76 418.215,-1548.21"/>
</g>
<!-- Node0x4725e630 -->
<g id="node6" class="node"><title>Node0x4725e630</title>
<polygon fill="none" stroke="black" points="392.5,-1363.5 392.5,-1401.5 502.5,-1401.5 502.5,-1363.5 392.5,-1363.5"/>
<text text-anchor="start" x="400.5" y="-1386.3" font-family="Times,serif" font-size="14.00">0x8693240:</text>
<text text-anchor="start" x="400.5" y="-1371.3" font-family="Times,serif" font-size="14.00"> if (v3 == 0):</text>
</g>
<!-- Node0x26518130&#45;&gt;Node0x4725e630 -->
<g id="edge6" class="edge"><title>Node0x26518130&#45;&gt;Node0x4725e630</title>
<path fill="none" stroke="black" d="M447.5,-1439.46C447.5,-1429.95 447.5,-1420.27 447.5,-1411.69"/>
<polygon fill="black" stroke="black" points="451,-1411.51 447.5,-1401.51 444,-1411.51 451,-1411.51"/>
</g>
<!-- Node0x37ee28a0 -->
<g id="node7" class="node"><title>Node0x37ee28a0</title>
<polygon fill="none" stroke="black" points="351.5,-1273.5 351.5,-1311.5 449.5,-1311.5 449.5,-1273.5 351.5,-1273.5"/>
<text text-anchor="start" x="359.5" y="-1296.3" font-family="Times,serif" font-size="14.00">0x8692f80:</text>
<text text-anchor="start" x="359.5" y="-1281.3" font-family="Times,serif" font-size="14.00"> g29 = 14</text>
</g>
<!-- Node0x4725e630&#45;&gt;Node0x37ee28a0 -->
<g id="edge7" class="edge"><title>Node0x4725e630&#45;&gt;Node0x37ee28a0</title>
<path fill="none" stroke="black" d="M425.389,-1363.12C420.144,-1357.77 415.048,-1351.58 411.5,-1345 407.639,-1337.84 405.132,-1329.43 403.506,-1321.51"/>
<polygon fill="black" stroke="black" points="406.938,-1320.81 401.835,-1311.52 400.034,-1321.96 406.938,-1320.81"/>
<text text-anchor="middle" x="441.5" y="-1333.8" font-family="Times,serif" font-size="14.00">v3 == 0</text>
</g>
<!-- Node0x37ee0490 -->
<g id="node8" class="node"><title>Node0x37ee0490</title>
<polygon fill="none" stroke="black" points="233,-1077.5 233,-1235.5 682,-1235.5 682,-1077.5 233,-1077.5"/>
<text text-anchor="start" x="241" y="-1220.3" font-family="Times,serif" font-size="14.00">0x8693a70:</text>
<text text-anchor="start" x="241" y="-1205.3" font-family="Times,serif" font-size="14.00"> g38 = *(IntToPtrCastExpr&lt;ptr&gt;(g34))</text>
<text text-anchor="start" x="241" y="-1190.3" font-family="Times,serif" font-size="14.00"> g39 = v1[&#39;1&#39;]</text>
<text text-anchor="start" x="241" y="-1175.3" font-family="Times,serif" font-size="14.00"> g32 = v1[&#39;2&#39;]</text>
<text text-anchor="start" x="241" y="-1160.3" font-family="Times,serif" font-size="14.00"> g34 = v1[&#39;3&#39;]</text>
<text text-anchor="start" x="241" y="-1145.3" font-family="Times,serif" font-size="14.00"> IntToPtrCastExpr&lt;ptr&gt;(ExtCastExpr&lt;int32&gt;((v3 == 0)))()</text>
<text text-anchor="start" x="241" y="-1130.3" font-family="Times,serif" font-size="14.00"> g29 = *(IntToPtrCastExpr&lt;ptr&gt;((g39 + g38)))</text>
<text text-anchor="start" x="241" y="-1115.3" font-family="Times,serif" font-size="14.00"> function_10bec()</text>
<text text-anchor="start" x="241" y="-1100.3" font-family="Times,serif" font-size="14.00"> v4 = g29</text>
<text text-anchor="start" x="241" y="-1085.3" font-family="Times,serif" font-size="14.00"> g9 = (v4 == &#45;45)</text>
</g>
<!-- Node0x4725e630&#45;&gt;Node0x37ee0490 -->
<g id="edge8" class="edge"><title>Node0x4725e630&#45;&gt;Node0x37ee0490</title>
<path fill="none" stroke="black" d="M462.469,-1363.23C466.152,-1357.7 469.586,-1351.39 471.5,-1345 480.917,-1313.54 480.77,-1277.84 477.121,-1246.1"/>
<polygon fill="black" stroke="black" points="480.563,-1245.42 475.821,-1235.95 473.62,-1246.31 480.563,-1245.42"/>
<text text-anchor="middle" x="506.5" y="-1288.8" font-family="Times,serif" font-size="14.00">v3 != 0</text>
</g>
<!-- Node0x37ee28a0&#45;&gt;Node0x37ee0490 -->
<g id="edge9" class="edge"><title>Node0x37ee28a0&#45;&gt;Node0x37ee0490</title>
<path fill="none" stroke="black" d="M408.187,-1273.43C411.525,-1265.58 415.699,-1255.77 420.199,-1245.19"/>
<polygon fill="black" stroke="black" points="423.529,-1246.3 424.223,-1235.73 417.088,-1243.56 423.529,-1246.3"/>
</g>
<!-- Node0x37ee1590 -->
<g id="node9" class="node"><title>Node0x37ee1590</title>
<polygon fill="none" stroke="black" points="396,-1001.5 396,-1039.5 519,-1039.5 519,-1001.5 396,-1001.5"/>
<text text-anchor="start" x="404" y="-1024.3" font-family="Times,serif" font-size="14.00">0x8696af0:</text>
<text text-anchor="start" x="404" y="-1009.3" font-family="Times,serif" font-size="14.00"> if (v4 == &#45;45):</text>
</g>
<!-- Node0x37ee0490&#45;&gt;Node0x37ee1590 -->
<g id="edge10" class="edge"><title>Node0x37ee0490&#45;&gt;Node0x37ee1590</title>
<path fill="none" stroke="black" d="M457.5,-1077.16C457.5,-1067.45 457.5,-1058.06 457.5,-1049.85"/>
<polygon fill="black" stroke="black" points="461,-1049.8 457.5,-1039.8 454,-1049.8 461,-1049.8"/>
</g>
<!-- Node0x37ee2a70 -->
<g id="node10" class="node"><title>Node0x37ee2a70</title>
<polygon fill="none" stroke="black" points="361,-911.5 361,-949.5 466,-949.5 466,-911.5 361,-911.5"/>
<text text-anchor="start" x="369" y="-934.3" font-family="Times,serif" font-size="14.00">0x8696550:</text>
<text text-anchor="start" x="369" y="-919.3" font-family="Times,serif" font-size="14.00"> g29 = 1004</text>
</g>
<!-- Node0x37ee1590&#45;&gt;Node0x37ee2a70 -->
<g id="edge11" class="edge"><title>Node0x37ee1590&#45;&gt;Node0x37ee2a70</title>
<path fill="none" stroke="black" d="M429.979,-1001.35C424.196,-996.146 418.841,-989.969 415.5,-983 412.096,-975.9 410.796,-967.596 410.555,-959.754"/>
<polygon fill="black" stroke="black" points="414.06,-959.581 410.786,-949.504 407.062,-959.423 414.06,-959.581"/>
<text text-anchor="middle" x="452" y="-971.8" font-family="Times,serif" font-size="14.00">v4 == &#45;45</text>
</g>
<!-- Node0x26517a30 -->
<g id="node11" class="node"><title>Node0x26517a30</title>
<polygon fill="none" stroke="black" points="242,-745.5 242,-873.5 705,-873.5 705,-745.5 242,-745.5"/>
<text text-anchor="start" x="250" y="-858.3" font-family="Times,serif" font-size="14.00">0x8697500:</text>
<text text-anchor="start" x="250" y="-843.3" font-family="Times,serif" font-size="14.00"> g38 = v1[&#39;3&#39;]</text>
<text text-anchor="start" x="250" y="-828.3" font-family="Times,serif" font-size="14.00"> g39 = v1[&#39;4&#39;]</text>
<text text-anchor="start" x="250" y="-813.3" font-family="Times,serif" font-size="14.00"> g32 = v1[&#39;5&#39;]</text>
<text text-anchor="start" x="250" y="-798.3" font-family="Times,serif" font-size="14.00"> g34 = v1[&#39;6&#39;]</text>
<text text-anchor="start" x="250" y="-783.3" font-family="Times,serif" font-size="14.00"> IntToPtrCastExpr&lt;ptr&gt;(ExtCastExpr&lt;int32&gt;((v4 == &#45;45)))()</text>
<text text-anchor="start" x="250" y="-768.3" font-family="Times,serif" font-size="14.00"> v5 = g29</text>
<text text-anchor="start" x="250" y="-753.3" font-family="Times,serif" font-size="14.00"> g9 = (v5 == &#45;46)</text>
</g>
<!-- Node0x37ee1590&#45;&gt;Node0x26517a30 -->
<g id="edge12" class="edge"><title>Node0x37ee1590&#45;&gt;Node0x26517a30</title>
<path fill="none" stroke="black" d="M477.093,-1001.47C481.727,-996.033 486.035,-989.711 488.5,-983 500.005,-951.682 498.714,-915.096 493.561,-883.697"/>
<polygon fill="black" stroke="black" points="496.977,-882.92 491.763,-873.697 490.088,-884.159 496.977,-882.92"/>
<text text-anchor="middle" x="530" y="-926.8" font-family="Times,serif" font-size="14.00">v4 != &#45;45</text>
</g>
<!-- Node0x37ee2a70&#45;&gt;Node0x26517a30 -->
<g id="edge13" class="edge"><title>Node0x37ee2a70&#45;&gt;Node0x26517a30</title>
<path fill="none" stroke="black" d="M422.613,-911.426C426.685,-903.35 431.777,-893.252 437.153,-882.588"/>
<polygon fill="black" stroke="black" points="440.344,-884.034 441.72,-873.529 434.093,-880.883 440.344,-884.034"/>
</g>
<!-- Node0x26516580 -->
<g id="node12" class="node"><title>Node0x26516580</title>
<polygon fill="none" stroke="black" points="412,-669.5 412,-707.5 535,-707.5 535,-669.5 412,-669.5"/>
<text text-anchor="start" x="420" y="-692.3" font-family="Times,serif" font-size="14.00">0x8699b00:</text>
<text text-anchor="start" x="420" y="-677.3" font-family="Times,serif" font-size="14.00"> if (v5 == &#45;46):</text>
</g>
<!-- Node0x26517a30&#45;&gt;Node0x26516580 -->
<g id="edge14" class="edge"><title>Node0x26517a30&#45;&gt;Node0x26516580</title>
<path fill="none" stroke="black" d="M473.5,-745.167C473.5,-735.596 473.5,-726.158 473.5,-717.848"/>
<polygon fill="black" stroke="black" points="477,-717.658 473.5,-707.659 470,-717.659 477,-717.658"/>
</g>
<!-- Node0x3d24fab0 -->
<g id="node13" class="node"><title>Node0x3d24fab0</title>
<polygon fill="none" stroke="black" points="170.5,-579.5 170.5,-617.5 486.5,-617.5 486.5,-579.5 170.5,-579.5"/>
<text text-anchor="start" x="178.5" y="-602.3" font-family="Times,serif" font-size="14.00">0x86998d0:</text>
<text text-anchor="start" x="178.5" y="-587.3" font-family="Times,serif" font-size="14.00"> g29 = *(IntToPtrCastExpr&lt;ptr&gt;(94436))</text>
</g>
<!-- Node0x26516580&#45;&gt;Node0x3d24fab0 -->
<g id="edge15" class="edge"><title>Node0x26516580&#45;&gt;Node0x3d24fab0</title>
<path fill="none" stroke="black" d="M443.807,-669.48C421.767,-656.103 391.502,-637.736 367.51,-623.175"/>
<polygon fill="black" stroke="black" points="369.016,-619.995 358.651,-617.799 365.384,-625.979 369.016,-619.995"/>
<text text-anchor="middle" x="447" y="-639.8" font-family="Times,serif" font-size="14.00">v5 == &#45;46</text>
</g>
<!-- Node0x26515f40 -->
<g id="node14" class="node"><title>Node0x26515f40</title>
<polygon fill="none" stroke="black" points="225.5,-308.5 225.5,-541.5 709.5,-541.5 709.5,-308.5 225.5,-308.5"/>
<text text-anchor="start" x="233.5" y="-526.3" font-family="Times,serif" font-size="14.00">0x869a450:</text>
<text text-anchor="start" x="233.5" y="-511.3" font-family="Times,serif" font-size="14.00"> g38 = v1[&#39;6&#39;]</text>
<text text-anchor="start" x="233.5" y="-496.3" font-family="Times,serif" font-size="14.00"> g39 = v1[&#39;7&#39;]</text>
<text text-anchor="start" x="233.5" y="-481.3" font-family="Times,serif" font-size="14.00"> g32 = v1[&#39;8&#39;]</text>
<text text-anchor="start" x="233.5" y="-466.3" font-family="Times,serif" font-size="14.00"> g34 = v1[&#39;9&#39;]</text>
<text text-anchor="start" x="233.5" y="-451.3" font-family="Times,serif" font-size="14.00"> IntToPtrCastExpr&lt;ptr&gt;(ExtCastExpr&lt;int32&gt;((v5 == &#45;46)))()</text>
<text text-anchor="start" x="233.5" y="-436.3" font-family="Times,serif" font-size="14.00"> v6 = g29</text>
<text text-anchor="start" x="233.5" y="-421.3" font-family="Times,serif" font-size="14.00"> g9 = (v6 == 0)</text>
<text text-anchor="start" x="233.5" y="-406.3" font-family="Times,serif" font-size="14.00"> g29 = (v6 != 0)</text>
<text text-anchor="start" x="233.5" y="-391.3" font-family="Times,serif" font-size="14.00"> v7 = g34</text>
<text text-anchor="start" x="233.5" y="-376.3" font-family="Times,serif" font-size="14.00"> g38 = v1[&#39;9&#39;]</text>
<text text-anchor="start" x="233.5" y="-361.3" font-family="Times,serif" font-size="14.00"> g39 = v1[&#39;10&#39;]</text>
<text text-anchor="start" x="233.5" y="-346.3" font-family="Times,serif" font-size="14.00"> g32 = *(IntToPtrCastExpr&lt;ptr&gt;((v7 + 8)))</text>
<text text-anchor="start" x="233.5" y="-331.3" font-family="Times,serif" font-size="14.00"> g34 = *(IntToPtrCastExpr&lt;ptr&gt;((v7 + 12)))</text>
<text text-anchor="start" x="233.5" y="-316.3" font-family="Times,serif" font-size="14.00"> IntToPtrCastExpr&lt;ptr&gt;(*(IntToPtrCastExpr&lt;ptr&gt;((v7 + 16))))()</text>
</g>
<!-- Node0x26516580&#45;&gt;Node0x26515f40 -->
<g id="edge16" class="edge"><title>Node0x26516580&#45;&gt;Node0x26515f40</title>
<path fill="none" stroke="black" d="M481.32,-669.334C486.74,-655.55 493.353,-635.97 495.5,-618 498.065,-596.536 497.584,-573.768 495.424,-551.699"/>
<polygon fill="black" stroke="black" points="498.887,-551.174 494.318,-541.615 491.929,-551.937 498.887,-551.174"/>
<text text-anchor="middle" x="530" y="-594.8" font-family="Times,serif" font-size="14.00">v5 != &#45;46</text>
</g>
<!-- Node0x3d24fab0&#45;&gt;Node0x26515f40 -->
<g id="edge17" class="edge"><title>Node0x3d24fab0&#45;&gt;Node0x26515f40</title>
<path fill="none" stroke="black" d="M343.113,-579.471C349.682,-571.365 358.048,-561.043 367.326,-549.596"/>
<polygon fill="black" stroke="black" points="370.307,-551.477 373.885,-541.504 364.869,-547.069 370.307,-551.477"/>
</g>
<!-- Node0x48234d90 -->
<g id="node15" class="node"><title>Node0x48234d90</title>
<polygon fill="none" stroke="black" points="417,-232.5 417,-270.5 518,-270.5 518,-232.5 417,-232.5"/>
<text text-anchor="start" x="425" y="-255.3" font-family="Times,serif" font-size="14.00">0x86a10d0:</text>
<text text-anchor="start" x="425" y="-240.3" font-family="Times,serif" font-size="14.00"> if g9:</text>
</g>
<!-- Node0x26515f40&#45;&gt;Node0x48234d90 -->
<g id="edge18" class="edge"><title>Node0x26515f40&#45;&gt;Node0x48234d90</title>
<path fill="none" stroke="black" d="M467.5,-308.181C467.5,-298.254 467.5,-288.942 467.5,-280.881"/>
<polygon fill="black" stroke="black" points="471,-280.722 467.5,-270.722 464,-280.722 471,-280.722"/>
</g>
<!-- Node0x37ee2ea0 -->
<g id="node16" class="node"><title>Node0x37ee2ea0</title>
<polygon fill="none" stroke="black" points="0,-97.5 0,-180.5 503,-180.5 503,-97.5 0,-97.5"/>
<text text-anchor="start" x="8" y="-165.3" font-family="Times,serif" font-size="14.00">0x10cf2c00:</text>
<text text-anchor="start" x="8" y="-150.3" font-family="Times,serif" font-size="14.00"> v8 = (g40 % 256)</text>
<text text-anchor="start" x="8" y="-135.3" font-family="Times,serif" font-size="14.00"> v9 = g29</text>
<text text-anchor="start" x="8" y="-120.3" font-family="Times,serif" font-size="14.00"> g30 = ((g38 &gt;&gt; (0 if (v8 == 0) else (31 if (v8 &gt; 31) else v8))) &amp; v9)</text>
<text text-anchor="start" x="8" y="-105.3" font-family="Times,serif" font-size="14.00"> g29 = (((33554432 * g34) | (g34 / 128)) &amp; v9)</text>
</g>
<!-- Node0x48234d90&#45;&gt;Node0x37ee2ea0 -->
<g id="edge19" class="edge"><title>Node0x48234d90&#45;&gt;Node0x37ee2ea0</title>
<path fill="none" stroke="black" d="M431.832,-232.253C406.75,-219.422 372.036,-201.663 339.757,-185.15"/>
<polygon fill="black" stroke="black" points="341.225,-181.969 330.728,-180.531 338.036,-188.201 341.225,-181.969"/>
<text text-anchor="middle" x="401" y="-202.8" font-family="Times,serif" font-size="14.00">g9</text>
</g>
<!-- Node0x4725e590 -->
<g id="node17" class="node"><title>Node0x4725e590</title>
<polygon fill="none" stroke="black" points="434.5,-23.5 434.5,-59.5 488.5,-59.5 488.5,-23.5 434.5,-23.5"/>
<text text-anchor="start" x="442.5" y="-37.8" font-family="Times,serif" font-size="14.00">exit:</text>
</g>
<!-- Node0x48234d90&#45;&gt;Node0x4725e590 -->
<g id="edge20" class="edge"><title>Node0x48234d90&#45;&gt;Node0x4725e590</title>
<path fill="none" stroke="black" d="M483.559,-232.226C494.058,-219.004 506.838,-200.161 512.5,-181 523.079,-145.197 526.213,-131.724 512.5,-97 508.009,-85.6272 499.899,-75.2339 491.45,-66.6431"/>
<polygon fill="black" stroke="black" points="493.678,-63.932 484.019,-59.5783 488.854,-69.0052 493.678,-63.932"/>
<text text-anchor="middle" x="550" y="-135.3" font-family="Times,serif" font-size="14.00">not (g9)</text>
</g>
<!-- Node0x37ee2ea0&#45;&gt;Node0x4725e590 -->
<g id="edge21" class="edge"><title>Node0x37ee2ea0&#45;&gt;Node0x4725e590</title>
<path fill="none" stroke="black" d="M340.559,-97.4994C370.231,-84.0058 401.642,-69.7213 425.014,-59.0926"/>
<polygon fill="black" stroke="black" points="426.537,-62.2449 434.191,-54.9191 423.639,-55.8728 426.537,-62.2449"/>
</g>
</g>
</svg>
