<?xml version="1.0" encoding="UTF-8" standalone="no"?>
<!DOCTYPE svg PUBLIC "-//W3C//DTD SVG 1.1//EN"
 "http://www.w3.org/Graphics/SVG/1.1/DTD/svg11.dtd">
<!-- Generated by graphviz version 2.38.0 (20140413.2041)
 -->
<!-- Title: Control&#45;flow graph for function &#39;function_16e58()&#39;. Pages: 1 -->
<svg width="708pt" height="579pt"
 viewBox="0.00 0.00 708.00 579.00" xmlns="http://www.w3.org/2000/svg" xmlns:xlink="http://www.w3.org/1999/xlink">
<g id="graph0" class="graph" transform="scale(1 1) rotate(0) translate(4 575)">
<title>Control&#45;flow graph for function &#39;function_16e58()&#39;.</title>
<polygon fill="white" stroke="none" points="-4,4 -4,-575 704,-575 704,4 -4,4"/>
<text text-anchor="middle" x="350" y="-7.8" font-family="Times,serif" font-size="14.00">Control&#45;flow graph for function &#39;function_16e58()&#39;.</text>
<!-- Node0x2adc5910 -->
<g id="node1" class="node"><title>Node0x2adc5910</title>
<polygon fill="none" stroke="black" points="446,-534.5 446,-570.5 505,-570.5 505,-534.5 446,-534.5"/>
<text text-anchor="start" x="454" y="-548.8" font-family="Times,serif" font-size="14.00">entry:</text>
</g>
<!-- Node0x2adc20b0 -->
<g id="node2" class="node"><title>Node0x2adc20b0</title>
<polygon fill="none" stroke="black" points="251,-278.5 251,-496.5 700,-496.5 700,-278.5 251,-278.5"/>
<text text-anchor="start" x="259" y="-481.3" font-family="Times,serif" font-size="14.00">0x3d51ad40:</text>
<text text-anchor="start" x="259" y="-466.3" font-family="Times,serif" font-size="14.00"> v1 = NULL</text>
<text text-anchor="start" x="259" y="-451.3" font-family="Times,serif" font-size="14.00"> g36 = 5748</text>
<text text-anchor="start" x="259" y="-436.3" font-family="Times,serif" font-size="14.00"> g37 = 165012</text>
<text text-anchor="start" x="259" y="-421.3" font-family="Times,serif" font-size="14.00"> v2 = g18</text>
<text text-anchor="start" x="259" y="-406.3" font-family="Times,serif" font-size="14.00"> g29 = v2</text>
<text text-anchor="start" x="259" y="-391.3" font-family="Times,serif" font-size="14.00"> g9 = (v2 == 0)</text>
<text text-anchor="start" x="259" y="-376.3" font-family="Times,serif" font-size="14.00"> g34 = PtrToIntCastExpr&lt;int32&gt;(v1)</text>
<text text-anchor="start" x="259" y="-361.3" font-family="Times,serif" font-size="14.00"> IntToPtrCastExpr&lt;ptr&gt;(ExtCastExpr&lt;int32&gt;((v2 == 0)))()</text>
<text text-anchor="start" x="259" y="-346.3" font-family="Times,serif" font-size="14.00"> function_fabc()</text>
<text text-anchor="start" x="259" y="-331.3" font-family="Times,serif" font-size="14.00"> g29 = (g29 % 256)</text>
<text text-anchor="start" x="259" y="-316.3" font-family="Times,serif" font-size="14.00"> g32 = *(IntToPtrCastExpr&lt;ptr&gt;(g34))</text>
<text text-anchor="start" x="259" y="-301.3" font-family="Times,serif" font-size="14.00"> g34 = v1[&#39;1&#39;]</text>
<text text-anchor="start" x="259" y="-286.3" font-family="Times,serif" font-size="14.00"> IntToPtrCastExpr&lt;ptr&gt;(v1[&#39;2&#39;])()</text>
</g>
<!-- Node0x2adc5910&#45;&gt;Node0x2adc20b0 -->
<g id="edge1" class="edge"><title>Node0x2adc5910&#45;&gt;Node0x2adc20b0</title>
<path fill="none" stroke="black" d="M475.5,-534.364C475.5,-526.931 475.5,-517.537 475.5,-507.113"/>
<polygon fill="black" stroke="black" points="479,-506.834 475.5,-496.834 472,-506.834 479,-506.834"/>
</g>
<!-- Node0x3de63d10 -->
<g id="node3" class="node"><title>Node0x3de63d10</title>
<polygon fill="none" stroke="black" points="426.5,-202.5 426.5,-240.5 524.5,-240.5 524.5,-202.5 426.5,-202.5"/>
<text text-anchor="start" x="434.5" y="-225.3" font-family="Times,serif" font-size="14.00">0x8646f70:</text>
<text text-anchor="start" x="434.5" y="-210.3" font-family="Times,serif" font-size="14.00"> if g9:</text>
</g>
<!-- Node0x2adc20b0&#45;&gt;Node0x3de63d10 -->
<g id="edge2" class="edge"><title>Node0x2adc20b0&#45;&gt;Node0x3de63d10</title>
<path fill="none" stroke="black" d="M475.5,-278.481C475.5,-268.585 475.5,-259.254 475.5,-251.151"/>
<polygon fill="black" stroke="black" points="479,-250.925 475.5,-240.925 472,-250.925 479,-250.925"/>
</g>
<!-- Node0x3de65a50 -->
<g id="node4" class="node"><title>Node0x3de65a50</title>
<polygon fill="none" stroke="black" points="0,-97.5 0,-150.5 513,-150.5 513,-97.5 0,-97.5"/>
<text text-anchor="start" x="8" y="-135.3" font-family="Times,serif" font-size="14.00">0x38f63870:</text>
<text text-anchor="start" x="8" y="-120.3" font-family="Times,serif" font-size="14.00"> v3 = (g40 % 256)</text>
<text text-anchor="start" x="8" y="-105.3" font-family="Times,serif" font-size="14.00"> g30 = ((g38 &gt;&gt; (0 if (v3 == 0) else (31 if (v3 &gt; 31) else v3))) &amp; g29)</text>
</g>
<!-- Node0x3de63d10&#45;&gt;Node0x3de65a50 -->
<g id="edge3" class="edge"><title>Node0x3de63d10&#45;&gt;Node0x3de65a50</title>
<path fill="none" stroke="black" d="M434.05,-202.425C403.202,-188.973 360.415,-170.314 324.573,-154.685"/>
<polygon fill="black" stroke="black" points="325.71,-151.362 315.145,-150.573 322.912,-157.779 325.71,-151.362"/>
<text text-anchor="middle" x="396" y="-172.8" font-family="Times,serif" font-size="14.00">g9</text>
</g>
<!-- Node0x2adbf600 -->
<g id="node5" class="node"><title>Node0x2adbf600</title>
<polygon fill="none" stroke="black" points="442.5,-23.5 442.5,-59.5 496.5,-59.5 496.5,-23.5 442.5,-23.5"/>
<text text-anchor="start" x="450.5" y="-37.8" font-family="Times,serif" font-size="14.00">exit:</text>
</g>
<!-- Node0x3de63d10&#45;&gt;Node0x2adbf600 -->
<g id="edge4" class="edge"><title>Node0x3de63d10&#45;&gt;Node0x2adbf600</title>
<path fill="none" stroke="black" d="M491.91,-202.287C502.64,-189.094 515.704,-170.259 521.5,-151 528.417,-128.018 530.424,-119.279 521.5,-97 516.949,-85.6385 508.777,-75.3005 500.238,-66.7559"/>
<polygon fill="black" stroke="black" points="502.417,-64.0015 492.722,-59.728 497.636,-69.1145 502.417,-64.0015"/>
<text text-anchor="middle" x="556" y="-120.3" font-family="Times,serif" font-size="14.00">not (g9)</text>
</g>
<!-- Node0x3de65a50&#45;&gt;Node0x2adbf600 -->
<g id="edge5" class="edge"><title>Node0x3de65a50&#45;&gt;Node0x2adbf600</title>
<path fill="none" stroke="black" d="M324.187,-97.4187C360.194,-83.8104 403.058,-67.6106 432.861,-56.3471"/>
<polygon fill="black" stroke="black" points="434.322,-59.5368 442.439,-52.7274 431.847,-52.9888 434.322,-59.5368"/>
</g>
</g>
</svg>
