<?xml version="1.0" encoding="UTF-8" standalone="no"?>
<!DOCTYPE svg PUBLIC "-//W3C//DTD SVG 1.1//EN"
 "http://www.w3.org/Graphics/SVG/1.1/DTD/svg11.dtd">
<!-- Generated by graphviz version 2.38.0 (20140413.2041)
 -->
<!-- Title: Control&#45;flow graph for function &#39;function_13d44()&#39;. Pages: 1 -->
<svg width="994pt" height="2638pt"
 viewBox="0.00 0.00 993.50 2638.00" xmlns="http://www.w3.org/2000/svg" xmlns:xlink="http://www.w3.org/1999/xlink">
<g id="graph0" class="graph" transform="scale(1 1) rotate(0) translate(4 2634)">
<title>Control&#45;flow graph for function &#39;function_13d44()&#39;.</title>
<polygon fill="white" stroke="none" points="-4,4 -4,-2634 989.5,-2634 989.5,4 -4,4"/>
<text text-anchor="middle" x="492.75" y="-7.8" font-family="Times,serif" font-size="14.00">Control&#45;flow graph for function &#39;function_13d44()&#39;.</text>
<!-- Node0x27104ad0 -->
<g id="node1" class="node"><title>Node0x27104ad0</title>
<polygon fill="none" stroke="black" points="526.5,-2593.5 526.5,-2629.5 585.5,-2629.5 585.5,-2593.5 526.5,-2593.5"/>
<text text-anchor="start" x="534.5" y="-2607.8" font-family="Times,serif" font-size="14.00">entry:</text>
</g>
<!-- Node0x1e2e16b0 -->
<g id="node2" class="node"><title>Node0x1e2e16b0</title>
<polygon fill="none" stroke="black" points="390,-2187.5 390,-2555.5 722,-2555.5 722,-2187.5 390,-2187.5"/>
<text text-anchor="start" x="398" y="-2540.3" font-family="Times,serif" font-size="14.00">0x1ade0e80:</text>
<text text-anchor="start" x="398" y="-2525.3" font-family="Times,serif" font-size="14.00"> v1 = g38</text>
<text text-anchor="start" x="398" y="-2510.3" font-family="Times,serif" font-size="14.00"> v2 = g39</text>
<text text-anchor="start" x="398" y="-2495.3" font-family="Times,serif" font-size="14.00"> v3 = g40</text>
<text text-anchor="start" x="398" y="-2480.3" font-family="Times,serif" font-size="14.00"> v4 = g41</text>
<text text-anchor="start" x="398" y="-2465.3" font-family="Times,serif" font-size="14.00"> v5 = g42</text>
<text text-anchor="start" x="398" y="-2450.3" font-family="Times,serif" font-size="14.00"> v6 = g43</text>
<text text-anchor="start" x="398" y="-2435.3" font-family="Times,serif" font-size="14.00"> v7 = g31</text>
<text text-anchor="start" x="398" y="-2420.3" font-family="Times,serif" font-size="14.00"> v8 = g32</text>
<text text-anchor="start" x="398" y="-2405.3" font-family="Times,serif" font-size="14.00"> v9 = g35</text>
<text text-anchor="start" x="398" y="-2390.3" font-family="Times,serif" font-size="14.00"> v10 = g29</text>
<text text-anchor="start" x="398" y="-2375.3" font-family="Times,serif" font-size="14.00"> v11 = g30</text>
<text text-anchor="start" x="398" y="-2360.3" font-family="Times,serif" font-size="14.00"> g38 = v11</text>
<text text-anchor="start" x="398" y="-2345.3" font-family="Times,serif" font-size="14.00"> g40 = g36</text>
<text text-anchor="start" x="398" y="-2330.3" font-family="Times,serif" font-size="14.00"> g37 = strlen(IntToPtrCastExpr&lt;ptr&gt;(v11))</text>
<text text-anchor="start" x="398" y="-2315.3" font-family="Times,serif" font-size="14.00"> g33 = 0</text>
<text text-anchor="start" x="398" y="-2300.3" font-family="Times,serif" font-size="14.00"> g36 = g38</text>
<text text-anchor="start" x="398" y="-2285.3" font-family="Times,serif" font-size="14.00"> function_15f4c()</text>
<text text-anchor="start" x="398" y="-2270.3" font-family="Times,serif" font-size="14.00"> v12 = g29</text>
<text text-anchor="start" x="398" y="-2255.3" font-family="Times,serif" font-size="14.00"> g6 = True</text>
<text text-anchor="start" x="398" y="-2240.3" font-family="Times,serif" font-size="14.00"> g9 = (v12 == 0)</text>
<text text-anchor="start" x="398" y="-2225.3" font-family="Times,serif" font-size="14.00"> g41 = 165012</text>
<text text-anchor="start" x="398" y="-2210.3" font-family="Times,serif" font-size="14.00"> v13</text>
<text text-anchor="start" x="398" y="-2195.3" font-family="Times,serif" font-size="14.00"> v14</text>
</g>
<!-- Node0x27104ad0&#45;&gt;Node0x1e2e16b0 -->
<g id="edge1" class="edge"><title>Node0x27104ad0&#45;&gt;Node0x1e2e16b0</title>
<path fill="none" stroke="black" d="M556,-2593.38C556,-2586 556,-2576.57 556,-2565.78"/>
<polygon fill="black" stroke="black" points="559.5,-2565.51 556,-2555.51 552.5,-2565.51 559.5,-2565.51"/>
</g>
<!-- Node0x308bffc0 -->
<g id="node3" class="node"><title>Node0x308bffc0</title>
<polygon fill="none" stroke="black" points="496.5,-2111.5 496.5,-2149.5 615.5,-2149.5 615.5,-2111.5 496.5,-2111.5"/>
<text text-anchor="start" x="504.5" y="-2134.3" font-family="Times,serif" font-size="14.00">0x81221e0:</text>
<text text-anchor="start" x="504.5" y="-2119.3" font-family="Times,serif" font-size="14.00"> if (v12 == 0):</text>
</g>
<!-- Node0x1e2e16b0&#45;&gt;Node0x308bffc0 -->
<g id="edge2" class="edge"><title>Node0x1e2e16b0&#45;&gt;Node0x308bffc0</title>
<path fill="none" stroke="black" d="M556,-2187.23C556,-2177.01 556,-2167.68 556,-2159.68"/>
<polygon fill="black" stroke="black" points="559.5,-2159.67 556,-2149.67 552.5,-2159.67 559.5,-2159.67"/>
</g>
<!-- Node0x1542fa90 -->
<g id="node4" class="node"><title>Node0x1542fa90</title>
<polygon fill="none" stroke="black" points="263.5,-1856.5 263.5,-2059.5 496.5,-2059.5 496.5,-1856.5 263.5,-1856.5"/>
<text text-anchor="start" x="271.5" y="-2044.3" font-family="Times,serif" font-size="14.00">0x8122430:</text>
<text text-anchor="start" x="271.5" y="-2029.3" font-family="Times,serif" font-size="14.00"> g29 = 0</text>
<text text-anchor="start" x="271.5" y="-2014.3" font-family="Times,serif" font-size="14.00"> g38 = v1</text>
<text text-anchor="start" x="271.5" y="-1999.3" font-family="Times,serif" font-size="14.00"> g39 = v2</text>
<text text-anchor="start" x="271.5" y="-1984.3" font-family="Times,serif" font-size="14.00"> g40 = v3</text>
<text text-anchor="start" x="271.5" y="-1969.3" font-family="Times,serif" font-size="14.00"> g41 = v4</text>
<text text-anchor="start" x="271.5" y="-1954.3" font-family="Times,serif" font-size="14.00"> g42 = v5</text>
<text text-anchor="start" x="271.5" y="-1939.3" font-family="Times,serif" font-size="14.00"> g43 = v6</text>
<text text-anchor="start" x="271.5" y="-1924.3" font-family="Times,serif" font-size="14.00"> g31 = v7</text>
<text text-anchor="start" x="271.5" y="-1909.3" font-family="Times,serif" font-size="14.00"> g32 = v8</text>
<text text-anchor="start" x="271.5" y="-1894.3" font-family="Times,serif" font-size="14.00"> g34 = v13</text>
<text text-anchor="start" x="271.5" y="-1879.3" font-family="Times,serif" font-size="14.00"> IntToPtrCastExpr&lt;ptr&gt;(v9)()</text>
<text text-anchor="start" x="271.5" y="-1864.3" font-family="Times,serif" font-size="14.00"> v14 = g33</text>
</g>
<!-- Node0x308bffc0&#45;&gt;Node0x1542fa90 -->
<g id="edge3" class="edge"><title>Node0x308bffc0&#45;&gt;Node0x1542fa90</title>
<path fill="none" stroke="black" d="M531.639,-2111.13C524.507,-2105.5 516.803,-2099.16 510,-2093 500.804,-2084.68 491.452,-2075.85 482.196,-2066.85"/>
<polygon fill="black" stroke="black" points="484.392,-2064.1 474.799,-2059.6 479.493,-2069.1 484.392,-2064.1"/>
<text text-anchor="middle" x="544.5" y="-2081.8" font-family="Times,serif" font-size="14.00">v12 == 0</text>
</g>
<!-- Node0x308c21e0 -->
<g id="node5" class="node"><title>Node0x308c21e0</title>
<polygon fill="none" stroke="black" points="515,-1886.5 515,-2029.5 847,-2029.5 847,-1886.5 515,-1886.5"/>
<text text-anchor="start" x="523" y="-2014.3" font-family="Times,serif" font-size="14.00">0x80ffff0:</text>
<text text-anchor="start" x="523" y="-1999.3" font-family="Times,serif" font-size="14.00"> g39 = 96</text>
<text text-anchor="start" x="523" y="-1984.3" font-family="Times,serif" font-size="14.00"> g37 = strlen(IntToPtrCastExpr&lt;ptr&gt;(g40))</text>
<text text-anchor="start" x="523" y="-1969.3" font-family="Times,serif" font-size="14.00"> g33 = 0</text>
<text text-anchor="start" x="523" y="-1954.3" font-family="Times,serif" font-size="14.00"> g36 = g40</text>
<text text-anchor="start" x="523" y="-1939.3" font-family="Times,serif" font-size="14.00"> function_15f4c()</text>
<text text-anchor="start" x="523" y="-1924.3" font-family="Times,serif" font-size="14.00"> v15 = g29</text>
<text text-anchor="start" x="523" y="-1909.3" font-family="Times,serif" font-size="14.00"> g6 = True</text>
<text text-anchor="start" x="523" y="-1894.3" font-family="Times,serif" font-size="14.00"> g9 = (v15 == 0)</text>
</g>
<!-- Node0x308bffc0&#45;&gt;Node0x308c21e0 -->
<g id="edge4" class="edge"><title>Node0x308bffc0&#45;&gt;Node0x308c21e0</title>
<path fill="none" stroke="black" d="M569.377,-2111.25C582.334,-2093.58 602.899,-2065.53 622.867,-2038.29"/>
<polygon fill="black" stroke="black" points="625.945,-2040.01 629.035,-2029.88 620.3,-2035.88 625.945,-2040.01"/>
<text text-anchor="middle" x="624.5" y="-2081.8" font-family="Times,serif" font-size="14.00">v12 != 0</text>
</g>
<!-- Node0x15431990 -->
<g id="node6" class="node"><title>Node0x15431990</title>
<polygon fill="none" stroke="black" points="331,-1780.5 331,-1818.5 429,-1818.5 429,-1780.5 331,-1780.5"/>
<text text-anchor="start" x="339" y="-1803.3" font-family="Times,serif" font-size="14.00">0x81242f0:</text>
<text text-anchor="start" x="339" y="-1788.3" font-family="Times,serif" font-size="14.00"> if g9:</text>
</g>
<!-- Node0x1542fa90&#45;&gt;Node0x15431990 -->
<g id="edge5" class="edge"><title>Node0x1542fa90&#45;&gt;Node0x15431990</title>
<path fill="none" stroke="black" d="M380,-1856.12C380,-1846.36 380,-1837.11 380,-1829.06"/>
<polygon fill="black" stroke="black" points="383.5,-1828.89 380,-1818.89 376.5,-1828.89 383.5,-1828.89"/>
</g>
<!-- Node0x1e2e3420 -->
<g id="node7" class="node"><title>Node0x1e2e3420</title>
<polygon fill="none" stroke="black" points="624.5,-1780.5 624.5,-1818.5 737.5,-1818.5 737.5,-1780.5 624.5,-1780.5"/>
<text text-anchor="start" x="632.5" y="-1803.3" font-family="Times,serif" font-size="14.00">0x811fc80:</text>
<text text-anchor="start" x="632.5" y="-1788.3" font-family="Times,serif" font-size="14.00"> if (v15 != 0):</text>
</g>
<!-- Node0x308c21e0&#45;&gt;Node0x1e2e3420 -->
<g id="edge6" class="edge"><title>Node0x308c21e0&#45;&gt;Node0x1e2e3420</title>
<path fill="none" stroke="black" d="M681,-1886.08C681,-1865.84 681,-1844.94 681,-1828.86"/>
<polygon fill="black" stroke="black" points="684.5,-1828.57 681,-1818.57 677.5,-1828.57 684.5,-1828.57"/>
</g>
<!-- Node0x308c7a60 -->
<g id="node8" class="node"><title>Node0x308c7a60</title>
<polygon fill="none" stroke="black" points="0,-1413 0,-1466 346,-1466 346,-1413 0,-1413"/>
<text text-anchor="start" x="8" y="-1450.8" font-family="Times,serif" font-size="14.00">0x8123bf0:</text>
<text text-anchor="start" x="8" y="-1435.8" font-family="Times,serif" font-size="14.00"> g38 = (g30 &amp; ((v14 / 8192) | (524288 * v14)))</text>
<text text-anchor="start" x="8" y="-1420.8" font-family="Times,serif" font-size="14.00"> g29 = (g29 &amp; (v14 / 2))</text>
</g>
<!-- Node0x15431990&#45;&gt;Node0x308c7a60 -->
<g id="edge7" class="edge"><title>Node0x15431990&#45;&gt;Node0x308c7a60</title>
<path fill="none" stroke="black" d="M363.149,-1780.14C358.331,-1774.51 353.24,-1768.17 349,-1762 281.056,-1663.21 217.785,-1535.68 189.115,-1475.23"/>
<polygon fill="black" stroke="black" points="192.248,-1473.67 184.815,-1466.12 185.918,-1476.66 192.248,-1473.67"/>
<text text-anchor="middle" x="358.5" y="-1750.8" font-family="Times,serif" font-size="14.00">g9</text>
</g>
<!-- Node0x15432190 -->
<g id="node9" class="node"><title>Node0x15432190</title>
<polygon fill="none" stroke="black" points="127.5,-1074.5 127.5,-1112.5 228.5,-1112.5 228.5,-1074.5 127.5,-1074.5"/>
<text text-anchor="start" x="135.5" y="-1097.3" font-family="Times,serif" font-size="14.00">0x8124430:</text>
<text text-anchor="start" x="135.5" y="-1082.3" font-family="Times,serif" font-size="14.00"> return</text>
</g>
<!-- Node0x15431990&#45;&gt;Node0x15432190 -->
<g id="edge8" class="edge"><title>Node0x15431990&#45;&gt;Node0x15432190</title>
<path fill="none" stroke="black" d="M382.001,-1780.28C391.986,-1685.77 432.927,-1251.93 355,-1150 328.01,-1114.7 278.69,-1101.33 238.955,-1096.5"/>
<polygon fill="black" stroke="black" points="239.131,-1093 228.818,-1095.43 238.393,-1099.96 239.131,-1093"/>
<text text-anchor="middle" x="430.5" y="-1435.8" font-family="Times,serif" font-size="14.00">not (g9)</text>
</g>
<!-- Node0x15432590 -->
<g id="node10" class="node"><title>Node0x15432590</title>
<polygon fill="none" stroke="black" points="485,-1150.5 485,-1728.5 841,-1728.5 841,-1150.5 485,-1150.5"/>
<text text-anchor="start" x="493" y="-1713.3" font-family="Times,serif" font-size="14.00">0x8101dc0:</text>
<text text-anchor="start" x="493" y="-1698.3" font-family="Times,serif" font-size="14.00"> g35 = *(IntToPtrCastExpr&lt;ptr&gt;((g41 + 204)))</text>
<text text-anchor="start" x="493" y="-1683.3" font-family="Times,serif" font-size="14.00"> g36 = v10</text>
<text text-anchor="start" x="493" y="-1668.3" font-family="Times,serif" font-size="14.00"> v16 = g39</text>
<text text-anchor="start" x="493" y="-1653.3" font-family="Times,serif" font-size="14.00"> g30 = v16</text>
<text text-anchor="start" x="493" y="-1638.3" font-family="Times,serif" font-size="14.00"> g37 = v16</text>
<text text-anchor="start" x="493" y="-1623.3" font-family="Times,serif" font-size="14.00"> function_8844()</text>
<text text-anchor="start" x="493" y="-1608.3" font-family="Times,serif" font-size="14.00"> g30 = g39</text>
<text text-anchor="start" x="493" y="-1593.3" font-family="Times,serif" font-size="14.00"> function_bdc8()</text>
<text text-anchor="start" x="493" y="-1578.3" font-family="Times,serif" font-size="14.00"> g43 = 2048</text>
<text text-anchor="start" x="493" y="-1563.3" font-family="Times,serif" font-size="14.00"> g42 = 2012</text>
<text text-anchor="start" x="493" y="-1548.3" font-family="Times,serif" font-size="14.00"> g6 = True</text>
<text text-anchor="start" x="493" y="-1533.3" font-family="Times,serif" font-size="14.00"> g9 = False</text>
<text text-anchor="start" x="493" y="-1518.3" font-family="Times,serif" font-size="14.00"> g39 = (g41 &#45; 8236)</text>
<text text-anchor="start" x="493" y="-1503.3" font-family="Times,serif" font-size="14.00"> g36 = 16</text>
<text text-anchor="start" x="493" y="-1488.3" font-family="Times,serif" font-size="14.00"> function_be14()</text>
<text text-anchor="start" x="493" y="-1473.3" font-family="Times,serif" font-size="14.00"> g36 = 10</text>
<text text-anchor="start" x="493" y="-1458.3" font-family="Times,serif" font-size="14.00"> g30 = g39</text>
<text text-anchor="start" x="493" y="-1443.3" font-family="Times,serif" font-size="14.00"> function_bcc8()</text>
<text text-anchor="start" x="493" y="-1428.3" font-family="Times,serif" font-size="14.00"> function_bd90()</text>
<text text-anchor="start" x="493" y="-1413.3" font-family="Times,serif" font-size="14.00"> g36 = 16</text>
<text text-anchor="start" x="493" y="-1398.3" font-family="Times,serif" font-size="14.00"> function_be14()</text>
<text text-anchor="start" x="493" y="-1383.3" font-family="Times,serif" font-size="14.00"> g30 = (g39 + 12)</text>
<text text-anchor="start" x="493" y="-1368.3" font-family="Times,serif" font-size="14.00"> g36 = 8</text>
<text text-anchor="start" x="493" y="-1353.3" font-family="Times,serif" font-size="14.00"> function_bcc8()</text>
<text text-anchor="start" x="493" y="-1338.3" font-family="Times,serif" font-size="14.00"> function_bd90()</text>
<text text-anchor="start" x="493" y="-1323.3" font-family="Times,serif" font-size="14.00"> g36 = 20</text>
<text text-anchor="start" x="493" y="-1308.3" font-family="Times,serif" font-size="14.00"> function_be14()</text>
<text text-anchor="start" x="493" y="-1293.3" font-family="Times,serif" font-size="14.00"> g36 = g42</text>
<text text-anchor="start" x="493" y="-1278.3" font-family="Times,serif" font-size="14.00"> function_bcc8()</text>
<text text-anchor="start" x="493" y="-1263.3" font-family="Times,serif" font-size="14.00"> g41 = 0</text>
<text text-anchor="start" x="493" y="-1248.3" font-family="Times,serif" font-size="14.00"> function_bd90()</text>
<text text-anchor="start" x="493" y="-1233.3" font-family="Times,serif" font-size="14.00"> v17 = g41</text>
<text text-anchor="start" x="493" y="-1218.3" font-family="Times,serif" font-size="14.00"> v18</text>
<text text-anchor="start" x="493" y="-1203.3" font-family="Times,serif" font-size="14.00"> v19</text>
<text text-anchor="start" x="493" y="-1188.3" font-family="Times,serif" font-size="14.00"> v20 = (v18 ^ v19)</text>
<text text-anchor="start" x="493" y="-1173.3" font-family="Times,serif" font-size="14.00"> v21 = (v17 + 1)</text>
<text text-anchor="start" x="493" y="-1158.3" font-family="Times,serif" font-size="14.00"> v22 = (v17 | v20)</text>
</g>
<!-- Node0x1e2e3420&#45;&gt;Node0x15432590 -->
<g id="edge9" class="edge"><title>Node0x1e2e3420&#45;&gt;Node0x15432590</title>
<path fill="none" stroke="black" d="M680.083,-1780.25C679.562,-1769.89 678.844,-1755.62 677.996,-1738.75"/>
<polygon fill="black" stroke="black" points="681.48,-1738.35 677.482,-1728.53 674.489,-1738.7 681.48,-1738.35"/>
<text text-anchor="middle" x="710.5" y="-1750.8" font-family="Times,serif" font-size="14.00">v15 != 0</text>
</g>
<!-- Node0xe7a6640 -->
<g id="node11" class="node"><title>Node0xe7a6640</title>
<polygon fill="none" stroke="black" points="752.5,-481 752.5,-684 985.5,-684 985.5,-481 752.5,-481"/>
<text text-anchor="start" x="760.5" y="-668.8" font-family="Times,serif" font-size="14.00">0x811fec0:</text>
<text text-anchor="start" x="760.5" y="-653.8" font-family="Times,serif" font-size="14.00"> g29 = 0</text>
<text text-anchor="start" x="760.5" y="-638.8" font-family="Times,serif" font-size="14.00"> g38 = v1</text>
<text text-anchor="start" x="760.5" y="-623.8" font-family="Times,serif" font-size="14.00"> g39 = v2</text>
<text text-anchor="start" x="760.5" y="-608.8" font-family="Times,serif" font-size="14.00"> g40 = v3</text>
<text text-anchor="start" x="760.5" y="-593.8" font-family="Times,serif" font-size="14.00"> g41 = v4</text>
<text text-anchor="start" x="760.5" y="-578.8" font-family="Times,serif" font-size="14.00"> g42 = v5</text>
<text text-anchor="start" x="760.5" y="-563.8" font-family="Times,serif" font-size="14.00"> g43 = v6</text>
<text text-anchor="start" x="760.5" y="-548.8" font-family="Times,serif" font-size="14.00"> g31 = v7</text>
<text text-anchor="start" x="760.5" y="-533.8" font-family="Times,serif" font-size="14.00"> g32 = v8</text>
<text text-anchor="start" x="760.5" y="-518.8" font-family="Times,serif" font-size="14.00"> g34 = v13</text>
<text text-anchor="start" x="760.5" y="-503.8" font-family="Times,serif" font-size="14.00"> IntToPtrCastExpr&lt;ptr&gt;(v9)()</text>
<text text-anchor="start" x="760.5" y="-488.8" font-family="Times,serif" font-size="14.00"> v14 = g33</text>
</g>
<!-- Node0x1e2e3420&#45;&gt;Node0xe7a6640 -->
<g id="edge10" class="edge"><title>Node0x1e2e3420&#45;&gt;Node0xe7a6640</title>
<path fill="none" stroke="black" d="M737.685,-1790.84C775.965,-1782.47 824.078,-1765.07 850,-1729 924.997,-1624.66 869,-1569 869,-1440.5 869,-1440.5 869,-1440.5 869,-851.5 869,-799.809 869,-742.509 869,-694.205"/>
<polygon fill="black" stroke="black" points="872.5,-694.039 869,-684.039 865.5,-694.039 872.5,-694.039"/>
<text text-anchor="middle" x="903.5" y="-1044.8" font-family="Times,serif" font-size="14.00">v15 == 0</text>
</g>
<!-- Node0x308c7a60&#45;&gt;Node0x15432190 -->
<g id="edge11" class="edge"><title>Node0x308c7a60&#45;&gt;Node0x15432190</title>
<path fill="none" stroke="black" d="M173.372,-1412.93C174.285,-1350.09 176.634,-1188.5 177.588,-1122.86"/>
<polygon fill="black" stroke="black" points="181.088,-1122.87 177.734,-1112.82 174.089,-1122.77 181.088,-1122.87"/>
</g>
<!-- Node0x27105b90 -->
<g id="node12" class="node"><title>Node0x27105b90</title>
<polygon fill="none" stroke="black" points="370,-23.5 370,-59.5 424,-59.5 424,-23.5 370,-23.5"/>
<text text-anchor="start" x="378" y="-37.8" font-family="Times,serif" font-size="14.00">exit:</text>
</g>
<!-- Node0x15432190&#45;&gt;Node0x27105b90 -->
<g id="edge12" class="edge"><title>Node0x15432190&#45;&gt;Node0x27105b90</title>
<path fill="none" stroke="black" d="M178,-1074.21C178,-1049.77 178,-1005.13 178,-967 178,-967 178,-967 178,-123 178,-84.724 297.342,-59.091 359.829,-48.2931"/>
<polygon fill="black" stroke="black" points="360.427,-51.7417 369.706,-46.628 359.264,-44.8391 360.427,-51.7417"/>
</g>
<!-- Node0x15437390 -->
<g id="node13" class="node"><title>Node0x15437390</title>
<polygon fill="none" stroke="black" points="588,-1074.5 588,-1112.5 738,-1112.5 738,-1074.5 588,-1074.5"/>
<text text-anchor="start" x="596" y="-1097.3" font-family="Times,serif" font-size="14.00">0x811fa70:</text>
<text text-anchor="start" x="596" y="-1082.3" font-family="Times,serif" font-size="14.00"> while (v21 != 20):</text>
</g>
<!-- Node0x15432590&#45;&gt;Node0x15437390 -->
<g id="edge13" class="edge"><title>Node0x15432590&#45;&gt;Node0x15437390</title>
<path fill="none" stroke="black" d="M663,-1150.15C663,-1139.89 663,-1130.68 663,-1122.83"/>
<polygon fill="black" stroke="black" points="666.5,-1122.69 663,-1112.69 659.5,-1122.69 666.5,-1122.69"/>
</g>
<!-- Node0x32d88b10 -->
<g id="node14" class="node"><title>Node0x32d88b10</title>
<polygon fill="none" stroke="black" points="702.5,-210 702.5,-248 803.5,-248 803.5,-210 702.5,-210"/>
<text text-anchor="start" x="710.5" y="-232.8" font-family="Times,serif" font-size="14.00">0x8121d40:</text>
<text text-anchor="start" x="710.5" y="-217.8" font-family="Times,serif" font-size="14.00"> if g9:</text>
</g>
<!-- Node0xe7a6640&#45;&gt;Node0x32d88b10 -->
<g id="edge14" class="edge"><title>Node0xe7a6640&#45;&gt;Node0x32d88b10</title>
<path fill="none" stroke="black" d="M835.759,-480.774C810.623,-404.608 777.849,-305.298 762.156,-257.744"/>
<polygon fill="black" stroke="black" points="765.445,-256.541 758.987,-248.142 758.797,-258.735 765.445,-256.541"/>
</g>
<!-- Node0x38e80700 -->
<g id="node15" class="node"><title>Node0x38e80700</title>
<polygon fill="none" stroke="black" points="663.5,-932 663.5,-1000 808.5,-1000 808.5,-932 663.5,-932"/>
<text text-anchor="start" x="671.5" y="-984.8" font-family="Times,serif" font-size="14.00">0x20f9d5f0:</text>
<text text-anchor="start" x="671.5" y="-969.8" font-family="Times,serif" font-size="14.00"> v17 = v21</text>
<text text-anchor="start" x="671.5" y="-954.8" font-family="Times,serif" font-size="14.00"> v21 = (v17 + 1)</text>
<text text-anchor="start" x="671.5" y="-939.8" font-family="Times,serif" font-size="14.00"> v22 = (v17 | v20)</text>
</g>
<!-- Node0x15437390&#45;&gt;Node0x38e80700 -->
<g id="edge15" class="edge"><title>Node0x15437390&#45;&gt;Node0x38e80700</title>
<path fill="none" stroke="black" d="M660.153,-1074.19C659.348,-1064.04 659.658,-1051.4 664,-1041 669.119,-1028.74 677.308,-1017.38 686.36,-1007.42"/>
<polygon fill="black" stroke="black" points="689.004,-1009.72 693.415,-1000.09 683.959,-1004.87 689.004,-1009.72"/>
<text text-anchor="middle" x="700" y="-1044.8" font-family="Times,serif" font-size="14.00">v21 != 20</text>
</g>
<!-- Node0x308c5d60 -->
<g id="node16" class="node"><title>Node0x308c5d60</title>
<polygon fill="none" stroke="black" points="492.5,-909.5 492.5,-1022.5 631.5,-1022.5 631.5,-909.5 492.5,-909.5"/>
<text text-anchor="start" x="500.5" y="-1007.3" font-family="Times,serif" font-size="14.00">0x811a310:</text>
<text text-anchor="start" x="500.5" y="-992.3" font-family="Times,serif" font-size="14.00"> g37 = v20</text>
<text text-anchor="start" x="500.5" y="-977.3" font-family="Times,serif" font-size="14.00"> g36 = v19</text>
<text text-anchor="start" x="500.5" y="-962.3" font-family="Times,serif" font-size="14.00"> g30 = 20</text>
<text text-anchor="start" x="500.5" y="-947.3" font-family="Times,serif" font-size="14.00"> g41 = v22</text>
<text text-anchor="start" x="500.5" y="-932.3" font-family="Times,serif" font-size="14.00"> g6 = True</text>
<text text-anchor="start" x="500.5" y="-917.3" font-family="Times,serif" font-size="14.00"> g9 = (v22 == 0)</text>
</g>
<!-- Node0x15437390&#45;&gt;Node0x308c5d60 -->
<g id="edge16" class="edge"><title>Node0x15437390&#45;&gt;Node0x308c5d60</title>
<path fill="none" stroke="black" d="M600.362,-1074.34C591.85,-1069.56 583.995,-1063.54 578,-1056 572.535,-1049.12 568.695,-1041 566.03,-1032.51"/>
<polygon fill="black" stroke="black" points="569.41,-1031.6 563.497,-1022.81 562.637,-1033.37 569.41,-1031.6"/>
<text text-anchor="middle" x="617" y="-1044.8" font-family="Times,serif" font-size="14.00">v21 == 20</text>
</g>
<!-- Node0x32d88b10&#45;&gt;Node0x27105b90 -->
<g id="edge18" class="edge"><title>Node0x32d88b10&#45;&gt;Node0x27105b90</title>
<path fill="none" stroke="black" d="M755.102,-209.77C757.272,-181.334 756.797,-126.616 726,-97 684.798,-57.3783 511.415,-46.4546 434.277,-43.5306"/>
<polygon fill="black" stroke="black" points="434.172,-40.0248 424.055,-43.169 433.925,-47.0204 434.172,-40.0248"/>
<text text-anchor="middle" x="780.5" y="-120.3" font-family="Times,serif" font-size="14.00">not (g9)</text>
</g>
<!-- Node0x308c7260 -->
<g id="node17" class="node"><title>Node0x308c7260</title>
<polygon fill="none" stroke="black" points="371,-97.5 371,-150.5 717,-150.5 717,-97.5 371,-97.5"/>
<text text-anchor="start" x="379" y="-135.3" font-family="Times,serif" font-size="14.00">0x81216e0:</text>
<text text-anchor="start" x="379" y="-120.3" font-family="Times,serif" font-size="14.00"> g38 = (g30 &amp; ((v14 / 8192) | (524288 * v14)))</text>
<text text-anchor="start" x="379" y="-105.3" font-family="Times,serif" font-size="14.00"> g29 = (g29 &amp; (v14 / 2))</text>
</g>
<!-- Node0x32d88b10&#45;&gt;Node0x308c7260 -->
<g id="edge17" class="edge"><title>Node0x32d88b10&#45;&gt;Node0x308c7260</title>
<path fill="none" stroke="black" d="M716.116,-209.823C685.457,-194.714 641.191,-172.898 605.229,-155.175"/>
<polygon fill="black" stroke="black" points="606.319,-151.811 595.802,-150.529 603.225,-158.089 606.319,-151.811"/>
<text text-anchor="middle" x="670.5" y="-172.8" font-family="Times,serif" font-size="14.00">g9</text>
</g>
<!-- Node0x38e80700&#45;&gt;Node0x15437390 -->
<g id="edge19" class="edge"><title>Node0x38e80700&#45;&gt;Node0x15437390</title>
<path fill="none" stroke="black" d="M743.977,-1000.16C746.392,-1017.97 746.154,-1039.57 736,-1056 733.067,-1060.75 729.309,-1064.9 725.05,-1068.52"/>
<polygon fill="black" stroke="black" points="722.903,-1065.75 716.911,-1074.49 727.044,-1071.4 722.903,-1065.75"/>
</g>
<!-- Node0x308c6b60 -->
<g id="node18" class="node"><title>Node0x308c6b60</title>
<polygon fill="none" stroke="black" points="502.5,-833.5 502.5,-871.5 621.5,-871.5 621.5,-833.5 502.5,-833.5"/>
<text text-anchor="start" x="510.5" y="-856.3" font-family="Times,serif" font-size="14.00">0x811f810:</text>
<text text-anchor="start" x="510.5" y="-841.3" font-family="Times,serif" font-size="14.00"> if (v22 == 0):</text>
</g>
<!-- Node0x308c5d60&#45;&gt;Node0x308c6b60 -->
<g id="edge20" class="edge"><title>Node0x308c5d60&#45;&gt;Node0x308c6b60</title>
<path fill="none" stroke="black" d="M562,-909.25C562,-899.862 562,-890.474 562,-882.151"/>
<polygon fill="black" stroke="black" points="565.5,-881.912 562,-871.912 558.5,-881.912 565.5,-881.912"/>
</g>
<!-- Node0x308c7260&#45;&gt;Node0x27105b90 -->
<g id="edge21" class="edge"><title>Node0x308c7260&#45;&gt;Node0x27105b90</title>
<path fill="none" stroke="black" d="M497.084,-97.308C476.339,-85.9473 452.328,-72.7984 433.024,-62.2277"/>
<polygon fill="black" stroke="black" points="434.691,-59.1501 424.239,-57.4168 431.329,-65.2898 434.691,-59.1501"/>
</g>
<!-- Node0x308c6b60&#45;&gt;Node0xe7a6640 -->
<g id="edge23" class="edge"><title>Node0x308c6b60&#45;&gt;Node0xe7a6640</title>
<path fill="none" stroke="black" d="M621.516,-838.888C659.424,-828.535 707.835,-810.782 743,-782 772.378,-757.955 797.04,-725.181 816.536,-693.195"/>
<polygon fill="black" stroke="black" points="819.782,-694.583 821.897,-684.202 813.77,-690.999 819.782,-694.583"/>
<text text-anchor="middle" x="743.5" y="-803.8" font-family="Times,serif" font-size="14.00">v22 != 0</text>
</g>
<!-- Node0x38e81300 -->
<g id="node19" class="node"><title>Node0x38e81300</title>
<polygon fill="none" stroke="black" points="206,-383.5 206,-781.5 734,-781.5 734,-383.5 206,-383.5"/>
<text text-anchor="start" x="214" y="-766.3" font-family="Times,serif" font-size="14.00">0x811afb0:</text>
<text text-anchor="start" x="214" y="-751.3" font-family="Times,serif" font-size="14.00"> function_2f44()</text>
<text text-anchor="start" x="214" y="-736.3" font-family="Times,serif" font-size="14.00"> g33 = v10</text>
<text text-anchor="start" x="214" y="-721.3" font-family="Times,serif" font-size="14.00"> g40 = (v10 + 192)</text>
<text text-anchor="start" x="214" y="-706.3" font-family="Times,serif" font-size="14.00"> g36 = 0</text>
<text text-anchor="start" x="214" y="-691.3" font-family="Times,serif" font-size="14.00"> g37 = 0</text>
<text text-anchor="start" x="214" y="-676.3" font-family="Times,serif" font-size="14.00"> function_31a0()</text>
<text text-anchor="start" x="214" y="-661.3" font-family="Times,serif" font-size="14.00"> g36 = g40</text>
<text text-anchor="start" x="214" y="-646.3" font-family="Times,serif" font-size="14.00"> g37 = g42</text>
<text text-anchor="start" x="214" y="-631.3" font-family="Times,serif" font-size="14.00"> function_3080()</text>
<text text-anchor="start" x="214" y="-616.3" font-family="Times,serif" font-size="14.00"> g36 = v10</text>
<text text-anchor="start" x="214" y="-601.3" font-family="Times,serif" font-size="14.00"> g29 = g40</text>
<text text-anchor="start" x="214" y="-586.3" font-family="Times,serif" font-size="14.00"> v23 = (g42 + v10)</text>
<text text-anchor="start" x="214" y="-571.3" font-family="Times,serif" font-size="14.00"> g37 = v23</text>
<text text-anchor="start" x="214" y="-556.3" font-family="Times,serif" font-size="14.00"> *(IntToPtrCastExpr&lt;ptr&gt;((v23 + 192))) = TruncCastExpr&lt;int8&gt;(g41)</text>
<text text-anchor="start" x="214" y="-541.3" font-family="Times,serif" font-size="14.00"> g38 = v1</text>
<text text-anchor="start" x="214" y="-526.3" font-family="Times,serif" font-size="14.00"> g39 = v2</text>
<text text-anchor="start" x="214" y="-511.3" font-family="Times,serif" font-size="14.00"> g40 = v3</text>
<text text-anchor="start" x="214" y="-496.3" font-family="Times,serif" font-size="14.00"> g41 = v4</text>
<text text-anchor="start" x="214" y="-481.3" font-family="Times,serif" font-size="14.00"> g42 = v5</text>
<text text-anchor="start" x="214" y="-466.3" font-family="Times,serif" font-size="14.00"> g43 = v6</text>
<text text-anchor="start" x="214" y="-451.3" font-family="Times,serif" font-size="14.00"> g31 = v7</text>
<text text-anchor="start" x="214" y="-436.3" font-family="Times,serif" font-size="14.00"> g32 = v8</text>
<text text-anchor="start" x="214" y="-421.3" font-family="Times,serif" font-size="14.00"> g34 = v13</text>
<text text-anchor="start" x="214" y="-406.3" font-family="Times,serif" font-size="14.00"> IntToPtrCastExpr&lt;ptr&gt;(v9)()</text>
<text text-anchor="start" x="214" y="-391.3" font-family="Times,serif" font-size="14.00"> v14 = g33</text>
</g>
<!-- Node0x308c6b60&#45;&gt;Node0x38e81300 -->
<g id="edge22" class="edge"><title>Node0x308c6b60&#45;&gt;Node0x38e81300</title>
<path fill="none" stroke="black" d="M555.821,-833.5C552.183,-822.904 547.161,-808.272 541.354,-791.357"/>
<polygon fill="black" stroke="black" points="544.608,-790.057 538.051,-781.735 537.987,-792.33 544.608,-790.057"/>
<text text-anchor="middle" x="583.5" y="-803.8" font-family="Times,serif" font-size="14.00">v22 == 0</text>
</g>
<!-- Node0x38e84d00 -->
<g id="node20" class="node"><title>Node0x38e84d00</title>
<polygon fill="none" stroke="black" points="421,-307.5 421,-345.5 519,-345.5 519,-307.5 421,-307.5"/>
<text text-anchor="start" x="429" y="-330.3" font-family="Times,serif" font-size="14.00">0x811f150:</text>
<text text-anchor="start" x="429" y="-315.3" font-family="Times,serif" font-size="14.00"> if g9:</text>
</g>
<!-- Node0x38e81300&#45;&gt;Node0x38e84d00 -->
<g id="edge24" class="edge"><title>Node0x38e81300&#45;&gt;Node0x38e84d00</title>
<path fill="none" stroke="black" d="M470,-383.241C470,-372.954 470,-363.589 470,-355.595"/>
<polygon fill="black" stroke="black" points="473.5,-355.586 470,-345.586 466.5,-355.586 473.5,-355.586"/>
</g>
<!-- Node0x38e85b00 -->
<g id="node21" class="node"><title>Node0x38e85b00</title>
<polygon fill="none" stroke="black" points="338,-202.5 338,-255.5 684,-255.5 684,-202.5 338,-202.5"/>
<text text-anchor="start" x="346" y="-240.3" font-family="Times,serif" font-size="14.00">0x811e960:</text>
<text text-anchor="start" x="346" y="-225.3" font-family="Times,serif" font-size="14.00"> g38 = (g30 &amp; ((v14 / 8192) | (524288 * v14)))</text>
<text text-anchor="start" x="346" y="-210.3" font-family="Times,serif" font-size="14.00"> g29 = (g29 &amp; (v14 / 2))</text>
</g>
<!-- Node0x38e84d00&#45;&gt;Node0x38e85b00 -->
<g id="edge25" class="edge"><title>Node0x38e84d00&#45;&gt;Node0x38e85b00</title>
<path fill="none" stroke="black" d="M477.905,-307.087C483.01,-295.196 489.816,-279.343 495.928,-265.106"/>
<polygon fill="black" stroke="black" points="499.291,-266.146 500.019,-255.577 492.858,-263.385 499.291,-266.146"/>
<text text-anchor="middle" x="501.5" y="-277.8" font-family="Times,serif" font-size="14.00">g9</text>
</g>
<!-- Node0x38e85800 -->
<g id="node22" class="node"><title>Node0x38e85800</title>
<polygon fill="none" stroke="black" points="255,-105 255,-143 353,-143 353,-105 255,-105"/>
<text text-anchor="start" x="263" y="-127.8" font-family="Times,serif" font-size="14.00">0x811f2b0:</text>
<text text-anchor="start" x="263" y="-112.8" font-family="Times,serif" font-size="14.00"> return</text>
</g>
<!-- Node0x38e84d00&#45;&gt;Node0x38e85800 -->
<g id="edge26" class="edge"><title>Node0x38e84d00&#45;&gt;Node0x38e85800</title>
<path fill="none" stroke="black" d="M420.689,-323.482C373.764,-318.623 305.497,-303.258 272,-256 249.889,-224.805 269.015,-180.093 285.762,-151.809"/>
<polygon fill="black" stroke="black" points="288.777,-153.587 291.06,-143.241 282.824,-149.906 288.777,-153.587"/>
<text text-anchor="middle" x="300.5" y="-225.3" font-family="Times,serif" font-size="14.00">not (g9)</text>
</g>
<!-- Node0x38e85b00&#45;&gt;Node0x38e85800 -->
<g id="edge27" class="edge"><title>Node0x38e85b00&#45;&gt;Node0x38e85800</title>
<path fill="none" stroke="black" d="M459.565,-202.407C425.782,-185.597 381.99,-163.807 349.481,-147.631"/>
<polygon fill="black" stroke="black" points="350.716,-144.336 340.204,-143.014 347.597,-150.603 350.716,-144.336"/>
</g>
<!-- Node0x38e85800&#45;&gt;Node0x27105b90 -->
<g id="edge28" class="edge"><title>Node0x38e85800&#45;&gt;Node0x27105b90</title>
<path fill="none" stroke="black" d="M325.103,-104.733C338.307,-93.3044 355.451,-78.4642 369.687,-66.1423"/>
<polygon fill="black" stroke="black" points="371.982,-68.7845 377.252,-59.5935 367.401,-63.4919 371.982,-68.7845"/>
</g>
</g>
</svg>
