<?xml version="1.0" encoding="UTF-8" standalone="no"?>
<!DOCTYPE svg PUBLIC "-//W3C//DTD SVG 1.1//EN"
 "http://www.w3.org/Graphics/SVG/1.1/DTD/svg11.dtd">
<!-- Generated by graphviz version 2.38.0 (20140413.2041)
 -->
<!-- Title: Control&#45;flow graph for function &#39;function_f3b0()&#39;. Pages: 1 -->
<svg width="798pt" height="806pt"
 viewBox="0.00 0.00 797.50 806.00" xmlns="http://www.w3.org/2000/svg" xmlns:xlink="http://www.w3.org/1999/xlink">
<g id="graph0" class="graph" transform="scale(1 1) rotate(0) translate(4 802)">
<title>Control&#45;flow graph for function &#39;function_f3b0()&#39;.</title>
<polygon fill="white" stroke="none" points="-4,4 -4,-802 793.5,-802 793.5,4 -4,4"/>
<text text-anchor="middle" x="394.75" y="-7.8" font-family="Times,serif" font-size="14.00">Control&#45;flow graph for function &#39;function_f3b0()&#39;.</text>
<!-- Node0x3fb57fa0 -->
<g id="node1" class="node"><title>Node0x3fb57fa0</title>
<polygon fill="none" stroke="black" points="436,-761.5 436,-797.5 495,-797.5 495,-761.5 436,-761.5"/>
<text text-anchor="start" x="444" y="-775.8" font-family="Times,serif" font-size="14.00">entry:</text>
</g>
<!-- Node0x3fb57100 -->
<g id="node2" class="node"><title>Node0x3fb57100</title>
<polygon fill="none" stroke="black" points="400.5,-625.5 400.5,-723.5 530.5,-723.5 530.5,-625.5 400.5,-625.5"/>
<text text-anchor="start" x="408.5" y="-708.3" font-family="Times,serif" font-size="14.00">0x44365600:</text>
<text text-anchor="start" x="408.5" y="-693.3" font-family="Times,serif" font-size="14.00"> v1 = g30</text>
<text text-anchor="start" x="408.5" y="-678.3" font-family="Times,serif" font-size="14.00"> g6 = (v1 &gt; 1)</text>
<text text-anchor="start" x="408.5" y="-663.3" font-family="Times,serif" font-size="14.00"> g9 = (v1 == 2)</text>
<text text-anchor="start" x="408.5" y="-648.3" font-family="Times,serif" font-size="14.00"> v2 = False</text>
<text text-anchor="start" x="408.5" y="-633.3" font-family="Times,serif" font-size="14.00"> v3 = (v1 &gt; 1)</text>
</g>
<!-- Node0x3fb57fa0&#45;&gt;Node0x3fb57100 -->
<g id="edge1" class="edge"><title>Node0x3fb57fa0&#45;&gt;Node0x3fb57100</title>
<path fill="none" stroke="black" d="M465.5,-761.492C465.5,-753.692 465.5,-743.94 465.5,-733.829"/>
<polygon fill="black" stroke="black" points="469,-733.659 465.5,-723.659 462,-733.659 469,-733.659"/>
</g>
<!-- Node0x3fb58900 -->
<g id="node3" class="node"><title>Node0x3fb58900</title>
<polygon fill="none" stroke="black" points="358.5,-549.5 358.5,-587.5 572.5,-587.5 572.5,-549.5 358.5,-549.5"/>
<text text-anchor="start" x="366.5" y="-572.3" font-family="Times,serif" font-size="14.00">0x77e0a20:</text>
<text text-anchor="start" x="366.5" y="-557.3" font-family="Times,serif" font-size="14.00"> if ((v1 == 2) or (v1 &lt;= 1)):</text>
</g>
<!-- Node0x3fb57100&#45;&gt;Node0x3fb58900 -->
<g id="edge2" class="edge"><title>Node0x3fb57100&#45;&gt;Node0x3fb58900</title>
<path fill="none" stroke="black" d="M465.5,-625.458C465.5,-615.952 465.5,-606.27 465.5,-597.69"/>
<polygon fill="black" stroke="black" points="469,-597.509 465.5,-587.509 462,-597.509 469,-597.509"/>
</g>
<!-- Node0x3ef53c10 -->
<g id="node4" class="node"><title>Node0x3ef53c10</title>
<polygon fill="none" stroke="black" points="0,-429.5 0,-497.5 519,-497.5 519,-429.5 0,-429.5"/>
<text text-anchor="start" x="8" y="-482.3" font-family="Times,serif" font-size="14.00">0x77dffc0:</text>
<text text-anchor="start" x="8" y="-467.3" font-family="Times,serif" font-size="14.00"> *(IntToPtrCastExpr&lt;ptr&gt;((g29 + 186))) = TruncCastExpr&lt;int8&gt;(v1)</text>
<text text-anchor="start" x="8" y="-452.3" font-family="Times,serif" font-size="14.00"> v2 = g9</text>
<text text-anchor="start" x="8" y="-437.3" font-family="Times,serif" font-size="14.00"> v3 = g6</text>
</g>
<!-- Node0x3fb58900&#45;&gt;Node0x3ef53c10 -->
<g id="edge3" class="edge"><title>Node0x3fb58900&#45;&gt;Node0x3ef53c10</title>
<path fill="none" stroke="black" d="M418.909,-549.395C405.403,-543.82 390.735,-537.445 377.5,-531 359.767,-522.364 340.986,-512.248 323.748,-502.549"/>
<polygon fill="black" stroke="black" points="325.314,-499.413 314.888,-497.525 321.861,-505.502 325.314,-499.413"/>
<text text-anchor="middle" x="459.5" y="-519.8" font-family="Times,serif" font-size="14.00">(v1 == 2) or (v1 &lt;= 1)</text>
</g>
<!-- Node0x3e4ebee0 -->
<g id="node5" class="node"><title>Node0x3e4ebee0</title>
<polygon fill="none" stroke="black" points="383,-353.5 383,-391.5 568,-391.5 568,-353.5 383,-353.5"/>
<text text-anchor="start" x="391" y="-376.3" font-family="Times,serif" font-size="14.00">0x77e1080:</text>
<text text-anchor="start" x="391" y="-361.3" font-family="Times,serif" font-size="14.00"> if (v3 and (v2 ^ True)):</text>
</g>
<!-- Node0x3fb58900&#45;&gt;Node0x3e4ebee0 -->
<g id="edge4" class="edge"><title>Node0x3fb58900&#45;&gt;Node0x3e4ebee0</title>
<path fill="none" stroke="black" d="M522.335,-549.385C529.942,-544.586 536.746,-538.558 541.5,-531 553.944,-511.219 580.879,-537.776 527.5,-429 522.056,-417.907 513.643,-407.507 505.16,-398.777"/>
<polygon fill="black" stroke="black" points="507.361,-396.035 497.759,-391.558 502.474,-401.046 507.361,-396.035"/>
<text text-anchor="middle" x="635" y="-459.8" font-family="Times,serif" font-size="14.00">(v1 != 2) and (v1 &gt; 1)</text>
</g>
<!-- Node0x3ef53c10&#45;&gt;Node0x3e4ebee0 -->
<g id="edge5" class="edge"><title>Node0x3ef53c10&#45;&gt;Node0x3e4ebee0</title>
<path fill="none" stroke="black" d="M339.623,-429.486C367.197,-418.125 397.372,-405.691 422.268,-395.434"/>
<polygon fill="black" stroke="black" points="423.622,-398.661 431.534,-391.615 420.955,-392.189 423.622,-398.661"/>
</g>
<!-- Node0x3ef53d80 -->
<g id="node6" class="node"><title>Node0x3ef53d80</title>
<polygon fill="none" stroke="black" points="382.5,-263.5 382.5,-301.5 482.5,-301.5 482.5,-263.5 382.5,-263.5"/>
<text text-anchor="start" x="390.5" y="-286.3" font-family="Times,serif" font-size="14.00">0x77e0e40:</text>
<text text-anchor="start" x="390.5" y="-271.3" font-family="Times,serif" font-size="14.00"> g29 = &#45;1</text>
</g>
<!-- Node0x3e4ebee0&#45;&gt;Node0x3ef53d80 -->
<g id="edge6" class="edge"><title>Node0x3e4ebee0&#45;&gt;Node0x3ef53d80</title>
<path fill="none" stroke="black" d="M420.499,-353.38C412.948,-348.572 406.19,-342.542 401.5,-335 396.375,-326.758 399.065,-317.708 404.568,-309.524"/>
<polygon fill="black" stroke="black" points="407.318,-311.69 410.824,-301.691 401.848,-307.321 407.318,-311.69"/>
<text text-anchor="middle" x="469" y="-323.8" font-family="Times,serif" font-size="14.00">v3 and (v2 ^ True)</text>
</g>
<!-- Node0x3fb57ec0 -->
<g id="node7" class="node"><title>Node0x3fb57ec0</title>
<polygon fill="none" stroke="black" points="428,-187.5 428,-225.5 601,-225.5 601,-187.5 428,-187.5"/>
<text text-anchor="start" x="436" y="-210.3" font-family="Times,serif" font-size="14.00">0x77e1860:</text>
<text text-anchor="start" x="436" y="-195.3" font-family="Times,serif" font-size="14.00"> if (v2 or (v3 ^ True)):</text>
</g>
<!-- Node0x3e4ebee0&#45;&gt;Node0x3fb57ec0 -->
<g id="edge7" class="edge"><title>Node0x3e4ebee0&#45;&gt;Node0x3fb57ec0</title>
<path fill="none" stroke="black" d="M518.871,-353.383C525.932,-348.474 532.3,-342.408 536.5,-335 554.162,-303.849 541.295,-262.05 529.072,-234.946"/>
<polygon fill="black" stroke="black" points="532.116,-233.196 524.656,-225.673 525.795,-236.206 532.116,-233.196"/>
<text text-anchor="middle" x="645.5" y="-278.8" font-family="Times,serif" font-size="14.00">not (v3) or not ((v2 ^ True))</text>
</g>
<!-- Node0x3ef53d80&#45;&gt;Node0x3fb57ec0 -->
<g id="edge8" class="edge"><title>Node0x3ef53d80&#45;&gt;Node0x3fb57ec0</title>
<path fill="none" stroke="black" d="M452.77,-263.208C463.097,-253.888 475.805,-242.42 487.002,-232.316"/>
<polygon fill="black" stroke="black" points="489.384,-234.88 494.463,-225.582 484.695,-229.683 489.384,-234.88"/>
</g>
<!-- Node0x3fb544d0 -->
<g id="node8" class="node"><title>Node0x3fb544d0</title>
<polygon fill="none" stroke="black" points="421,-97.5 421,-135.5 522,-135.5 522,-97.5 421,-97.5"/>
<text text-anchor="start" x="429" y="-120.3" font-family="Times,serif" font-size="14.00">0x77e15b0:</text>
<text text-anchor="start" x="429" y="-105.3" font-family="Times,serif" font-size="14.00"> g29 = 0</text>
</g>
<!-- Node0x3fb57ec0&#45;&gt;Node0x3fb544d0 -->
<g id="edge9" class="edge"><title>Node0x3fb57ec0&#45;&gt;Node0x3fb544d0</title>
<path fill="none" stroke="black" d="M464.892,-187.346C457.555,-182.506 450.971,-176.474 446.5,-169 441.779,-161.108 443.737,-152.193 448.162,-144.025"/>
<polygon fill="black" stroke="black" points="451.171,-145.82 453.734,-135.539 445.32,-141.978 451.171,-145.82"/>
<text text-anchor="middle" x="508.5" y="-157.8" font-family="Times,serif" font-size="14.00">v2 or (v3 ^ True)</text>
</g>
<!-- Node0x3fb57e80 -->
<g id="node9" class="node"><title>Node0x3fb57e80</title>
<polygon fill="none" stroke="black" points="522.5,-23.5 522.5,-59.5 576.5,-59.5 576.5,-23.5 522.5,-23.5"/>
<text text-anchor="start" x="530.5" y="-37.8" font-family="Times,serif" font-size="14.00">exit:</text>
</g>
<!-- Node0x3fb57ec0&#45;&gt;Node0x3fb57e80 -->
<g id="edge10" class="edge"><title>Node0x3fb57ec0&#45;&gt;Node0x3fb57e80</title>
<path fill="none" stroke="black" d="M553.533,-187.423C560.348,-182.448 566.519,-176.346 570.5,-169 587.598,-137.447 574.836,-95.4719 563.04,-68.7116"/>
<polygon fill="black" stroke="black" points="566.187,-67.1784 558.794,-59.5885 559.84,-70.1316 566.187,-67.1784"/>
<text text-anchor="middle" x="684" y="-112.8" font-family="Times,serif" font-size="14.00">not (v2) and not ((v3 ^ True))</text>
</g>
<!-- Node0x3fb544d0&#45;&gt;Node0x3fb57e80 -->
<g id="edge11" class="edge"><title>Node0x3fb544d0&#45;&gt;Node0x3fb57e80</title>
<path fill="none" stroke="black" d="M490.781,-97.4551C500.728,-88.1459 512.997,-76.6632 523.744,-66.6054"/>
<polygon fill="black" stroke="black" points="526.335,-68.9737 531.245,-59.585 521.552,-63.8628 526.335,-68.9737"/>
</g>
</g>
</svg>
