<?xml version="1.0" encoding="UTF-8" standalone="no"?>
<!DOCTYPE svg PUBLIC "-//W3C//DTD SVG 1.1//EN"
 "http://www.w3.org/Graphics/SVG/1.1/DTD/svg11.dtd">
<!-- Generated by graphviz version 2.38.0 (20140413.2041)
 -->
<!-- Title: Control&#45;flow graph for function &#39;function_23b5e()&#39;. Pages: 1 -->
<svg width="885pt" height="1618pt"
 viewBox="0.00 0.00 885.00 1618.00" xmlns="http://www.w3.org/2000/svg" xmlns:xlink="http://www.w3.org/1999/xlink">
<g id="graph0" class="graph" transform="scale(1 1) rotate(0) translate(4 1614)">
<title>Control&#45;flow graph for function &#39;function_23b5e()&#39;.</title>
<polygon fill="white" stroke="none" points="-4,4 -4,-1614 881,-1614 881,4 -4,4"/>
<text text-anchor="middle" x="438.5" y="-7.8" font-family="Times,serif" font-size="14.00">Control&#45;flow graph for function &#39;function_23b5e()&#39;.</text>
<!-- Node0x19b2c1a0 -->
<g id="node1" class="node"><title>Node0x19b2c1a0</title>
<polygon fill="none" stroke="black" points="197.5,-1573.5 197.5,-1609.5 256.5,-1609.5 256.5,-1573.5 197.5,-1573.5"/>
<text text-anchor="start" x="205.5" y="-1587.8" font-family="Times,serif" font-size="14.00">entry:</text>
</g>
<!-- Node0x2d4bacc0 -->
<g id="node2" class="node"><title>Node0x2d4bacc0</title>
<polygon fill="none" stroke="black" points="88,-1302.5 88,-1535.5 366,-1535.5 366,-1302.5 88,-1302.5"/>
<text text-anchor="start" x="96" y="-1520.3" font-family="Times,serif" font-size="14.00">0x29f7d6d0:</text>
<text text-anchor="start" x="96" y="-1505.3" font-family="Times,serif" font-size="14.00"> v1 = g41</text>
<text text-anchor="start" x="96" y="-1490.3" font-family="Times,serif" font-size="14.00"> v2 = ((g30 &#45; g38) / v1)</text>
<text text-anchor="start" x="96" y="-1475.3" font-family="Times,serif" font-size="14.00"> g39 = v2</text>
<text text-anchor="start" x="96" y="-1460.3" font-family="Times,serif" font-size="14.00"> g31 = (g32 * v2)</text>
<text text-anchor="start" x="96" y="-1445.3" font-family="Times,serif" font-size="14.00"> g30 = v1</text>
<text text-anchor="start" x="96" y="-1430.3" font-family="Times,serif" font-size="14.00"> unknown_228ca()</text>
<text text-anchor="start" x="96" y="-1415.3" font-family="Times,serif" font-size="14.00"> v3 = g43</text>
<text text-anchor="start" x="96" y="-1400.3" font-family="Times,serif" font-size="14.00"> g36 = v3</text>
<text text-anchor="start" x="96" y="-1385.3" font-family="Times,serif" font-size="14.00"> v4 = ((65536 * g30) | (v3 % 65536))</text>
<text text-anchor="start" x="96" y="-1370.3" font-family="Times,serif" font-size="14.00"> v5 = g31</text>
<text text-anchor="start" x="96" y="-1355.3" font-family="Times,serif" font-size="14.00"> v6 = (v5 + 1)</text>
<text text-anchor="start" x="96" y="-1340.3" font-family="Times,serif" font-size="14.00"> v7</text>
<text text-anchor="start" x="96" y="-1325.3" font-family="Times,serif" font-size="14.00"> v8</text>
<text text-anchor="start" x="96" y="-1310.3" font-family="Times,serif" font-size="14.00"> v9</text>
</g>
<!-- Node0x19b2c1a0&#45;&gt;Node0x2d4bacc0 -->
<g id="edge1" class="edge"><title>Node0x19b2c1a0&#45;&gt;Node0x2d4bacc0</title>
<path fill="none" stroke="black" d="M227,-1573.21C227,-1565.69 227,-1556.17 227,-1545.57"/>
<polygon fill="black" stroke="black" points="230.5,-1545.56 227,-1535.56 223.5,-1545.56 230.5,-1545.56"/>
</g>
<!-- Node0x310a64e0 -->
<g id="node3" class="node"><title>Node0x310a64e0</title>
<polygon fill="none" stroke="black" points="35.5,-1226.5 35.5,-1264.5 418.5,-1264.5 418.5,-1226.5 35.5,-1226.5"/>
<text text-anchor="start" x="43.5" y="-1249.3" font-family="Times,serif" font-size="14.00">0xa42a650:</text>
<text text-anchor="start" x="43.5" y="-1234.3" font-family="Times,serif" font-size="14.00"> if (((v6 + (&#45;1 &#45; v4)) == 0) or (((&#45;2 &#45; v4) + v5) &gt; v5)):</text>
</g>
<!-- Node0x2d4bacc0&#45;&gt;Node0x310a64e0 -->
<g id="edge2" class="edge"><title>Node0x2d4bacc0&#45;&gt;Node0x310a64e0</title>
<path fill="none" stroke="black" d="M227,-1302.18C227,-1292.25 227,-1282.94 227,-1274.88"/>
<polygon fill="black" stroke="black" points="230.5,-1274.72 227,-1264.72 223.5,-1274.72 230.5,-1274.72"/>
</g>
<!-- Node0x310a8770 -->
<g id="node4" class="node"><title>Node0x310a8770</title>
<polygon fill="none" stroke="black" points="0,-854.5 0,-1042.5 200,-1042.5 200,-854.5 0,-854.5"/>
<text text-anchor="start" x="8" y="-1027.3" font-family="Times,serif" font-size="14.00">0xa433010:</text>
<text text-anchor="start" x="8" y="-1012.3" font-family="Times,serif" font-size="14.00"> v8 = g42</text>
<text text-anchor="start" x="8" y="-997.3" font-family="Times,serif" font-size="14.00"> g38 = v8</text>
<text text-anchor="start" x="8" y="-982.3" font-family="Times,serif" font-size="14.00"> g8 = False</text>
<text text-anchor="start" x="8" y="-967.3" font-family="Times,serif" font-size="14.00"> g6 = False</text>
<text text-anchor="start" x="8" y="-952.3" font-family="Times,serif" font-size="14.00"> v9 = ((65536 * v8) | g39)</text>
<text text-anchor="start" x="8" y="-937.3" font-family="Times,serif" font-size="14.00"> g29 = v9</text>
<text text-anchor="start" x="8" y="-922.3" font-family="Times,serif" font-size="14.00"> g7 = (v9 &lt; 0)</text>
<text text-anchor="start" x="8" y="-907.3" font-family="Times,serif" font-size="14.00"> g9 = (v9 == 0)</text>
<text text-anchor="start" x="8" y="-892.3" font-family="Times,serif" font-size="14.00"> g37 = v7</text>
<text text-anchor="start" x="8" y="-877.3" font-family="Times,serif" font-size="14.00"> function_23abe()</text>
<text text-anchor="start" x="8" y="-862.3" font-family="Times,serif" font-size="14.00"> return</text>
</g>
<!-- Node0x310a64e0&#45;&gt;Node0x310a8770 -->
<g id="edge3" class="edge"><title>Node0x310a64e0&#45;&gt;Node0x310a8770</title>
<path fill="none" stroke="black" d="M82.712,-1226.4C65.7108,-1221.6 52.1926,-1215.57 46,-1208 10.4568,-1164.57 21.2468,-1103.58 42.1889,-1051.74"/>
<polygon fill="black" stroke="black" points="45.4208,-1053.09 46.0631,-1042.51 38.9661,-1050.38 45.4208,-1053.09"/>
<text text-anchor="middle" x="212.5" y="-1196.8" font-family="Times,serif" font-size="14.00">((v6 + (&#45;1 &#45; v4)) == 0) or (((&#45;2 &#45; v4) + v5) &gt; v5)</text>
</g>
<!-- Node0x310a6d40 -->
<g id="node5" class="node"><title>Node0x310a6d40</title>
<polygon fill="none" stroke="black" points="331.5,-1061.5 331.5,-1174.5 474.5,-1174.5 474.5,-1061.5 331.5,-1061.5"/>
<text text-anchor="start" x="339.5" y="-1159.3" font-family="Times,serif" font-size="14.00">0x2d392810:</text>
<text text-anchor="start" x="339.5" y="-1144.3" font-family="Times,serif" font-size="14.00"> v10 = g40</text>
<text text-anchor="start" x="339.5" y="-1129.3" font-family="Times,serif" font-size="14.00"> v11 = (v10 + v4)</text>
<text text-anchor="start" x="339.5" y="-1114.3" font-family="Times,serif" font-size="14.00"> g30 = v11</text>
<text text-anchor="start" x="339.5" y="-1099.3" font-family="Times,serif" font-size="14.00"> v12 = g39</text>
<text text-anchor="start" x="339.5" y="-1084.3" font-family="Times,serif" font-size="14.00"> v13 = (v12 &#45; 1)</text>
<text text-anchor="start" x="339.5" y="-1069.3" font-family="Times,serif" font-size="14.00"> g39 = v13</text>
</g>
<!-- Node0x310a64e0&#45;&gt;Node0x310a6d40 -->
<g id="edge4" class="edge"><title>Node0x310a64e0&#45;&gt;Node0x310a6d40</title>
<path fill="none" stroke="black" d="M340.445,-1226.47C359.663,-1221.44 375.755,-1215.31 383,-1208 389.55,-1201.39 394.147,-1193.13 397.342,-1184.32"/>
<polygon fill="black" stroke="black" points="400.738,-1185.18 400.286,-1174.6 394.038,-1183.16 400.738,-1185.18"/>
<text text-anchor="middle" x="568" y="-1196.8" font-family="Times,serif" font-size="14.00">((v6 + (&#45;1 &#45; v4)) != 0) and (((&#45;2 &#45; v4) + v5) &lt;= v5)</text>
</g>
<!-- Node0x310a5380 -->
<g id="node6" class="node"><title>Node0x310a5380</title>
<polygon fill="none" stroke="black" points="142,-23.5 142,-59.5 196,-59.5 196,-23.5 142,-23.5"/>
<text text-anchor="start" x="150" y="-37.8" font-family="Times,serif" font-size="14.00">exit:</text>
</g>
<!-- Node0x310a8770&#45;&gt;Node0x310a5380 -->
<g id="edge5" class="edge"><title>Node0x310a8770&#45;&gt;Node0x310a5380</title>
<path fill="none" stroke="black" d="M118.3,-854.306C122.113,-827.965 125,-799.201 125,-772.5 125,-772.5 125,-772.5 125,-183 125,-141.615 142.6,-96.3777 155.538,-68.7154"/>
<polygon fill="black" stroke="black" points="158.695,-70.2269 159.883,-59.6989 152.389,-67.1879 158.695,-70.2269"/>
</g>
<!-- Node0x310a7270 -->
<g id="node7" class="node"><title>Node0x310a7270</title>
<polygon fill="none" stroke="black" points="326,-797.5 326,-835.5 450,-835.5 450,-797.5 326,-797.5"/>
<text text-anchor="start" x="334" y="-820.3" font-family="Times,serif" font-size="14.00">0xa431800:</text>
<text text-anchor="start" x="334" y="-805.3" font-family="Times,serif" font-size="14.00"> if (v10 &gt; v11):</text>
</g>
<!-- Node0x310a6d40&#45;&gt;Node0x310a7270 -->
<g id="edge6" class="edge"><title>Node0x310a6d40&#45;&gt;Node0x310a7270</title>
<path fill="none" stroke="black" d="M400.214,-1061.37C397.016,-997.516 391.895,-895.271 389.425,-845.943"/>
<polygon fill="black" stroke="black" points="392.907,-845.511 388.911,-835.698 385.916,-845.861 392.907,-845.511"/>
</g>
<!-- Node0x310a8d40 -->
<g id="node8" class="node"><title>Node0x310a8d40</title>
<polygon fill="none" stroke="black" points="161.5,-485.5 161.5,-673.5 360.5,-673.5 360.5,-485.5 161.5,-485.5"/>
<text text-anchor="start" x="169.5" y="-658.3" font-family="Times,serif" font-size="14.00">0xa431af0:</text>
<text text-anchor="start" x="169.5" y="-643.3" font-family="Times,serif" font-size="14.00"> v8 = g42</text>
<text text-anchor="start" x="169.5" y="-628.3" font-family="Times,serif" font-size="14.00"> g38 = v8</text>
<text text-anchor="start" x="169.5" y="-613.3" font-family="Times,serif" font-size="14.00"> g8 = False</text>
<text text-anchor="start" x="169.5" y="-598.3" font-family="Times,serif" font-size="14.00"> g6 = False</text>
<text text-anchor="start" x="169.5" y="-583.3" font-family="Times,serif" font-size="14.00"> v9 = ((65536 * v8) | v13)</text>
<text text-anchor="start" x="169.5" y="-568.3" font-family="Times,serif" font-size="14.00"> g29 = v9</text>
<text text-anchor="start" x="169.5" y="-553.3" font-family="Times,serif" font-size="14.00"> g7 = (v9 &lt; 0)</text>
<text text-anchor="start" x="169.5" y="-538.3" font-family="Times,serif" font-size="14.00"> g9 = (v9 == 0)</text>
<text text-anchor="start" x="169.5" y="-523.3" font-family="Times,serif" font-size="14.00"> g37 = v7</text>
<text text-anchor="start" x="169.5" y="-508.3" font-family="Times,serif" font-size="14.00"> function_23abe()</text>
<text text-anchor="start" x="169.5" y="-493.3" font-family="Times,serif" font-size="14.00"> return</text>
</g>
<!-- Node0x310a7270&#45;&gt;Node0x310a8d40 -->
<g id="edge7" class="edge"><title>Node0x310a7270&#45;&gt;Node0x310a8d40</title>
<path fill="none" stroke="black" d="M332.832,-797.406C324.232,-792.56 316.168,-786.51 310,-779 287.958,-752.161 275.607,-716.842 268.76,-683.445"/>
<polygon fill="black" stroke="black" points="272.198,-682.79 266.888,-673.621 265.321,-684.1 272.198,-682.79"/>
<text text-anchor="middle" x="347" y="-767.8" font-family="Times,serif" font-size="14.00">v10 &gt; v11</text>
</g>
<!-- Node0x310a7450 -->
<g id="node9" class="node"><title>Node0x310a7450</title>
<polygon fill="none" stroke="black" points="322,-692.5 322,-745.5 454,-745.5 454,-692.5 322,-692.5"/>
<text text-anchor="start" x="330" y="-730.3" font-family="Times,serif" font-size="14.00">0x3da3cc30:</text>
<text text-anchor="start" x="330" y="-715.3" font-family="Times,serif" font-size="14.00"> v14 = (&#45;1 &#45; v11)</text>
<text text-anchor="start" x="330" y="-700.3" font-family="Times,serif" font-size="14.00"> v15</text>
</g>
<!-- Node0x310a7270&#45;&gt;Node0x310a7450 -->
<g id="edge8" class="edge"><title>Node0x310a7270&#45;&gt;Node0x310a7450</title>
<path fill="none" stroke="black" d="M388,-797.087C388,-785.425 388,-769.951 388,-755.929"/>
<polygon fill="black" stroke="black" points="391.5,-755.577 388,-745.577 384.5,-755.577 391.5,-755.577"/>
<text text-anchor="middle" x="431" y="-767.8" font-family="Times,serif" font-size="14.00">v10 &lt;= v11</text>
</g>
<!-- Node0x310a8d40&#45;&gt;Node0x310a5380 -->
<g id="edge9" class="edge"><title>Node0x310a8d40&#45;&gt;Node0x310a5380</title>
<path fill="none" stroke="black" d="M195.61,-485.02C180.625,-455.5 169,-421.851 169,-388.5 169,-388.5 169,-388.5 169,-183 169,-143.808 169,-98.4673 169,-70.1339"/>
<polygon fill="black" stroke="black" points="172.5,-69.8039 169,-59.8039 165.5,-69.804 172.5,-69.8039"/>
</g>
<!-- Node0x310a61e0 -->
<g id="node10" class="node"><title>Node0x310a61e0</title>
<polygon fill="none" stroke="black" points="200,-413.5 200,-466.5 576,-466.5 576,-413.5 200,-413.5"/>
<text text-anchor="start" x="208" y="-451.3" font-family="Times,serif" font-size="14.00">0xa42fe60:</text>
<text text-anchor="start" x="208" y="-436.3" font-family="Times,serif" font-size="14.00"> if (((v14 + v6) != 0) and (((v5 &#45; 1) + v14) &lt;= v5)):</text>
<text text-anchor="start" x="208" y="-421.3" font-family="Times,serif" font-size="14.00"> else:</text>
</g>
<!-- Node0x310a7450&#45;&gt;Node0x310a61e0 -->
<g id="edge10" class="edge"><title>Node0x310a7450&#45;&gt;Node0x310a61e0</title>
<path fill="none" stroke="black" d="M388,-692.437C388,-642.862 388,-533.556 388,-476.792"/>
<polygon fill="black" stroke="black" points="391.5,-476.501 388,-466.501 384.5,-476.501 391.5,-476.501"/>
</g>
<!-- Node0x310a9440 -->
<g id="node11" class="node"><title>Node0x310a9440</title>
<polygon fill="none" stroke="black" points="208,-308.5 208,-361.5 336,-361.5 336,-308.5 208,-308.5"/>
<text text-anchor="start" x="216" y="-346.3" font-family="Times,serif" font-size="14.00">0xa42e8c0:</text>
<text text-anchor="start" x="216" y="-331.3" font-family="Times,serif" font-size="14.00"> v15 = (v12 &#45; 2)</text>
<text text-anchor="start" x="216" y="-316.3" font-family="Times,serif" font-size="14.00"> g39 = v15</text>
</g>
<!-- Node0x310a61e0&#45;&gt;Node0x310a9440 -->
<g id="edge11" class="edge"><title>Node0x310a61e0&#45;&gt;Node0x310a9440</title>
<path fill="none" stroke="black" d="M266.024,-413.477C251.089,-408.11 239.233,-401.937 234,-395 228.002,-387.048 229.71,-378.159 234.814,-369.741"/>
<polygon fill="black" stroke="black" points="237.753,-371.652 240.89,-361.533 232.127,-367.488 237.753,-371.652"/>
<text text-anchor="middle" x="397" y="-383.8" font-family="Times,serif" font-size="14.00">((v14 + v6) != 0) and (((v5 &#45; 1) + v14) &lt;= v5)</text>
</g>
<!-- Node0x310a9600 -->
<g id="node12" class="node"><title>Node0x310a9600</title>
<polygon fill="none" stroke="black" points="446.5,-316 446.5,-354 541.5,-354 541.5,-316 446.5,-316"/>
<text text-anchor="start" x="454.5" y="-338.8" font-family="Times,serif" font-size="14.00">0xa42ffc0:</text>
<text text-anchor="start" x="454.5" y="-323.8" font-family="Times,serif" font-size="14.00"> v15 = v13</text>
</g>
<!-- Node0x310a61e0&#45;&gt;Node0x310a9600 -->
<g id="edge12" class="edge"><title>Node0x310a61e0&#45;&gt;Node0x310a9600</title>
<path fill="none" stroke="black" d="M531.695,-413.398C546.686,-408.181 558.476,-402.075 564,-395 574.316,-381.787 564.251,-369.447 548.847,-359.504"/>
<polygon fill="black" stroke="black" points="550.234,-356.261 539.835,-354.235 546.702,-362.304 550.234,-356.261"/>
<text text-anchor="middle" x="722.5" y="-383.8" font-family="Times,serif" font-size="14.00">((v14 + v6) == 0) or (((v5 &#45; 1) + v14) &gt; v5)</text>
</g>
<!-- Node0x310a82f0 -->
<g id="node13" class="node"><title>Node0x310a82f0</title>
<polygon fill="none" stroke="black" points="197.5,-97.5 197.5,-270.5 396.5,-270.5 396.5,-97.5 197.5,-97.5"/>
<text text-anchor="start" x="205.5" y="-255.3" font-family="Times,serif" font-size="14.00">0xa430120:</text>
<text text-anchor="start" x="205.5" y="-240.3" font-family="Times,serif" font-size="14.00"> v8 = g42</text>
<text text-anchor="start" x="205.5" y="-225.3" font-family="Times,serif" font-size="14.00"> g38 = v8</text>
<text text-anchor="start" x="205.5" y="-210.3" font-family="Times,serif" font-size="14.00"> g8 = False</text>
<text text-anchor="start" x="205.5" y="-195.3" font-family="Times,serif" font-size="14.00"> g6 = False</text>
<text text-anchor="start" x="205.5" y="-180.3" font-family="Times,serif" font-size="14.00"> v9 = ((65536 * v8) | v15)</text>
<text text-anchor="start" x="205.5" y="-165.3" font-family="Times,serif" font-size="14.00"> g29 = v9</text>
<text text-anchor="start" x="205.5" y="-150.3" font-family="Times,serif" font-size="14.00"> g7 = (v9 &lt; 0)</text>
<text text-anchor="start" x="205.5" y="-135.3" font-family="Times,serif" font-size="14.00"> g9 = (v9 == 0)</text>
<text text-anchor="start" x="205.5" y="-120.3" font-family="Times,serif" font-size="14.00"> g37 = v7</text>
<text text-anchor="start" x="205.5" y="-105.3" font-family="Times,serif" font-size="14.00"> function_23abe()</text>
</g>
<!-- Node0x310a9440&#45;&gt;Node0x310a82f0 -->
<g id="edge13" class="edge"><title>Node0x310a9440&#45;&gt;Node0x310a82f0</title>
<path fill="none" stroke="black" d="M276.298,-308.386C277.648,-300.336 279.228,-290.922 280.901,-280.948"/>
<polygon fill="black" stroke="black" points="284.398,-281.258 282.601,-270.816 277.495,-280.099 284.398,-281.258"/>
</g>
<!-- Node0x310a9600&#45;&gt;Node0x310a82f0 -->
<g id="edge14" class="edge"><title>Node0x310a9600&#45;&gt;Node0x310a82f0</title>
<path fill="none" stroke="black" d="M469.844,-315.73C452.971,-302.968 429.139,-284.943 404.549,-266.344"/>
<polygon fill="black" stroke="black" points="406.633,-263.532 396.546,-260.291 402.41,-269.115 406.633,-263.532"/>
</g>
<!-- Node0x310a82f0&#45;&gt;Node0x310a5380 -->
<g id="edge15" class="edge"><title>Node0x310a82f0&#45;&gt;Node0x310a5380</title>
<path fill="none" stroke="black" d="M218.855,-97.2233C208.972,-86.3752 199.562,-76.047 191.635,-67.3451"/>
<polygon fill="black" stroke="black" points="194.122,-64.8777 184.8,-59.8425 188.947,-69.5919 194.122,-64.8777"/>
</g>
</g>
</svg>
