<?xml version="1.0" encoding="UTF-8" standalone="no"?>
<!DOCTYPE svg PUBLIC "-//W3C//DTD SVG 1.1//EN"
 "http://www.w3.org/Graphics/SVG/1.1/DTD/svg11.dtd">
<!-- Generated by graphviz version 2.38.0 (20140413.2041)
 -->
<!-- Title: Control&#45;flow graph for function &#39;function_11298()&#39;. Pages: 1 -->
<svg width="681pt" height="693pt"
 viewBox="0.00 0.00 681.00 693.00" xmlns="http://www.w3.org/2000/svg" xmlns:xlink="http://www.w3.org/1999/xlink">
<g id="graph0" class="graph" transform="scale(1 1) rotate(0) translate(4 689)">
<title>Control&#45;flow graph for function &#39;function_11298()&#39;.</title>
<polygon fill="white" stroke="none" points="-4,4 -4,-689 677,-689 677,4 -4,4"/>
<text text-anchor="middle" x="336.5" y="-7.8" font-family="Times,serif" font-size="14.00">Control&#45;flow graph for function &#39;function_11298()&#39;.</text>
<!-- Node0x3c8ee380 -->
<g id="node1" class="node"><title>Node0x3c8ee380</title>
<polygon fill="none" stroke="black" points="225.5,-648.5 225.5,-684.5 284.5,-684.5 284.5,-648.5 225.5,-648.5"/>
<text text-anchor="start" x="233.5" y="-662.8" font-family="Times,serif" font-size="14.00">entry:</text>
</g>
<!-- Node0x1e9e7eb0 -->
<g id="node2" class="node"><title>Node0x1e9e7eb0</title>
<polygon fill="none" stroke="black" points="0,-527.5 0,-610.5 510,-610.5 510,-527.5 0,-527.5"/>
<text text-anchor="start" x="8" y="-595.3" font-family="Times,serif" font-size="14.00">0x47c5f8a0:</text>
<text text-anchor="start" x="8" y="-580.3" font-family="Times,serif" font-size="14.00"> v1 = g29</text>
<text text-anchor="start" x="8" y="-565.3" font-family="Times,serif" font-size="14.00"> v2 = *(IntToPtrCastExpr&lt;ptr&gt;((v1 + 56)))</text>
<text text-anchor="start" x="8" y="-550.3" font-family="Times,serif" font-size="14.00"> g37 = v2</text>
<text text-anchor="start" x="8" y="-535.3" font-family="Times,serif" font-size="14.00"> *(IntToPtrCastExpr&lt;ptr&gt;((v1 + 24))) = TruncCastExpr&lt;int8&gt;(g30)</text>
</g>
<!-- Node0x3c8ee380&#45;&gt;Node0x1e9e7eb0 -->
<g id="edge1" class="edge"><title>Node0x3c8ee380&#45;&gt;Node0x1e9e7eb0</title>
<path fill="none" stroke="black" d="M255,-648.427C255,-640.622 255,-630.921 255,-621.032"/>
<polygon fill="black" stroke="black" points="258.5,-620.73 255,-610.73 251.5,-620.73 258.5,-620.73"/>
</g>
<!-- Node0x13bf1c80 -->
<g id="node3" class="node"><title>Node0x13bf1c80</title>
<polygon fill="none" stroke="black" points="200,-451.5 200,-489.5 310,-489.5 310,-451.5 200,-451.5"/>
<text text-anchor="start" x="208" y="-474.3" font-family="Times,serif" font-size="14.00">0x7be4740:</text>
<text text-anchor="start" x="208" y="-459.3" font-family="Times,serif" font-size="14.00"> if (v2 == 0):</text>
</g>
<!-- Node0x1e9e7eb0&#45;&gt;Node0x13bf1c80 -->
<g id="edge2" class="edge"><title>Node0x1e9e7eb0&#45;&gt;Node0x13bf1c80</title>
<path fill="none" stroke="black" d="M255,-527.355C255,-518.083 255,-508.427 255,-499.803"/>
<polygon fill="black" stroke="black" points="258.5,-499.538 255,-489.538 251.5,-499.538 258.5,-499.538"/>
</g>
<!-- Node0x1e9e8350 -->
<g id="node4" class="node"><title>Node0x1e9e8350</title>
<polygon fill="none" stroke="black" points="19,-259.5 19,-327.5 357,-327.5 357,-259.5 19,-259.5"/>
<text text-anchor="start" x="27" y="-312.3" font-family="Times,serif" font-size="14.00">0x7be4350:</text>
<text text-anchor="start" x="27" y="-297.3" font-family="Times,serif" font-size="14.00"> g29 = *(IntToPtrCastExpr&lt;ptr&gt;((g29 + 8)))</text>
<text text-anchor="start" x="27" y="-282.3" font-family="Times,serif" font-size="14.00"> function_67fc()</text>
<text text-anchor="start" x="27" y="-267.3" font-family="Times,serif" font-size="14.00"> return</text>
</g>
<!-- Node0x13bf1c80&#45;&gt;Node0x1e9e8350 -->
<g id="edge3" class="edge"><title>Node0x13bf1c80&#45;&gt;Node0x1e9e8350</title>
<path fill="none" stroke="black" d="M240.87,-451.223C236.969,-445.593 232.991,-439.232 230,-433 215.33,-402.435 204.457,-365.614 197.453,-337.623"/>
<polygon fill="black" stroke="black" points="200.813,-336.627 195.048,-327.738 194.011,-338.282 200.813,-336.627"/>
<text text-anchor="middle" x="260" y="-421.8" font-family="Times,serif" font-size="14.00">v2 == 0</text>
</g>
<!-- Node0x2e5e34b0 -->
<g id="node5" class="node"><title>Node0x2e5e34b0</title>
<polygon fill="none" stroke="black" points="284,-346.5 284,-399.5 414,-399.5 414,-346.5 284,-346.5"/>
<text text-anchor="start" x="292" y="-384.3" font-family="Times,serif" font-size="14.00">0x47c5f7c0:</text>
<text text-anchor="start" x="292" y="-369.3" font-family="Times,serif" font-size="14.00"> v3 = g30</text>
<text text-anchor="start" x="292" y="-354.3" font-family="Times,serif" font-size="14.00"> g9 = (v3 == 0)</text>
</g>
<!-- Node0x13bf1c80&#45;&gt;Node0x2e5e34b0 -->
<g id="edge4" class="edge"><title>Node0x13bf1c80&#45;&gt;Node0x2e5e34b0</title>
<path fill="none" stroke="black" d="M273.124,-451.087C285.391,-438.625 301.941,-421.81 316.455,-407.065"/>
<polygon fill="black" stroke="black" points="319.305,-409.159 323.825,-399.577 314.316,-404.248 319.305,-409.159"/>
<text text-anchor="middle" x="332" y="-421.8" font-family="Times,serif" font-size="14.00">v2 != 0</text>
</g>
<!-- Node0x1e9e7890 -->
<g id="node6" class="node"><title>Node0x1e9e7890</title>
<polygon fill="none" stroke="black" points="240,-23.5 240,-59.5 294,-59.5 294,-23.5 240,-23.5"/>
<text text-anchor="start" x="248" y="-37.8" font-family="Times,serif" font-size="14.00">exit:</text>
</g>
<!-- Node0x1e9e8350&#45;&gt;Node0x1e9e7890 -->
<g id="edge5" class="edge"><title>Node0x1e9e8350&#45;&gt;Node0x1e9e7890</title>
<path fill="none" stroke="black" d="M184.242,-259.391C181.153,-218.838 180.844,-149.117 207,-97 212.977,-85.0908 222.741,-74.5355 232.672,-65.9617"/>
<polygon fill="black" stroke="black" points="235.047,-68.5426 240.604,-59.5226 230.635,-63.1079 235.047,-68.5426"/>
</g>
<!-- Node0x31ab5360 -->
<g id="node7" class="node"><title>Node0x31ab5360</title>
<polygon fill="none" stroke="black" points="317,-202.5 317,-240.5 427,-240.5 427,-202.5 317,-202.5"/>
<text text-anchor="start" x="325" y="-225.3" font-family="Times,serif" font-size="14.00">0x7be4cc0:</text>
<text text-anchor="start" x="325" y="-210.3" font-family="Times,serif" font-size="14.00"> if (v3 == 0):</text>
</g>
<!-- Node0x2e5e34b0&#45;&gt;Node0x31ab5360 -->
<g id="edge6" class="edge"><title>Node0x2e5e34b0&#45;&gt;Node0x31ab5360</title>
<path fill="none" stroke="black" d="M354.538,-346.463C355.76,-340.425 356.99,-333.997 358,-328 362.384,-301.97 366.235,-272.137 368.782,-250.852"/>
<polygon fill="black" stroke="black" points="372.266,-251.195 369.958,-240.855 365.314,-250.377 372.266,-251.195"/>
</g>
<!-- Node0x1e9e8a50 -->
<g id="node8" class="node"><title>Node0x1e9e8a50</title>
<polygon fill="none" stroke="black" points="216.5,-105 216.5,-143 317.5,-143 317.5,-105 216.5,-105"/>
<text text-anchor="start" x="224.5" y="-127.8" font-family="Times,serif" font-size="14.00">0x7be4bb0:</text>
<text text-anchor="start" x="224.5" y="-112.8" font-family="Times,serif" font-size="14.00"> return</text>
</g>
<!-- Node0x31ab5360&#45;&gt;Node0x1e9e8a50 -->
<g id="edge7" class="edge"><title>Node0x31ab5360&#45;&gt;Node0x1e9e8a50</title>
<path fill="none" stroke="black" d="M351.755,-202.087C335.528,-187.328 312.589,-166.464 294.666,-150.163"/>
<polygon fill="black" stroke="black" points="296.58,-147.172 286.827,-143.033 291.87,-152.351 296.58,-147.172"/>
<text text-anchor="middle" x="359" y="-172.8" font-family="Times,serif" font-size="14.00">v3 == 0</text>
</g>
<!-- Node0x31ab3e40 -->
<g id="node9" class="node"><title>Node0x31ab3e40</title>
<polygon fill="none" stroke="black" points="335,-97.5 335,-150.5 673,-150.5 673,-97.5 335,-97.5"/>
<text text-anchor="start" x="343" y="-135.3" font-family="Times,serif" font-size="14.00">0x7be5620:</text>
<text text-anchor="start" x="343" y="-120.3" font-family="Times,serif" font-size="14.00"> g29 = *(IntToPtrCastExpr&lt;ptr&gt;((g29 + 8)))</text>
<text text-anchor="start" x="343" y="-105.3" font-family="Times,serif" font-size="14.00"> function_67fc()</text>
</g>
<!-- Node0x31ab5360&#45;&gt;Node0x31ab3e40 -->
<g id="edge8" class="edge"><title>Node0x31ab5360&#45;&gt;Node0x31ab3e40</title>
<path fill="none" stroke="black" d="M397.139,-202.312C415.035,-189.365 439.538,-171.637 460.567,-156.423"/>
<polygon fill="black" stroke="black" points="462.684,-159.212 468.734,-150.514 458.581,-153.54 462.684,-159.212"/>
<text text-anchor="middle" x="468" y="-172.8" font-family="Times,serif" font-size="14.00">v3 != 0</text>
</g>
<!-- Node0x1e9e8a50&#45;&gt;Node0x1e9e7890 -->
<g id="edge9" class="edge"><title>Node0x1e9e8a50&#45;&gt;Node0x1e9e7890</title>
<path fill="none" stroke="black" d="M267,-104.733C267,-94.3626 267,-81.1832 267,-69.6251"/>
<polygon fill="black" stroke="black" points="270.5,-69.5935 267,-59.5935 263.5,-69.5936 270.5,-69.5935"/>
</g>
<!-- Node0x31ab3e40&#45;&gt;Node0x1e9e7890 -->
<g id="edge10" class="edge"><title>Node0x31ab3e40&#45;&gt;Node0x1e9e7890</title>
<path fill="none" stroke="black" d="M428.686,-97.4187C387.045,-83.2749 337.162,-66.3315 303.921,-55.0407"/>
<polygon fill="black" stroke="black" points="304.761,-51.6297 294.167,-51.7275 302.51,-58.2577 304.761,-51.6297"/>
</g>
</g>
</svg>
