<?xml version="1.0" encoding="UTF-8" standalone="no"?>
<!DOCTYPE svg PUBLIC "-//W3C//DTD SVG 1.1//EN"
 "http://www.w3.org/Graphics/SVG/1.1/DTD/svg11.dtd">
<!-- Generated by graphviz version 2.38.0 (20140413.2041)
 -->
<!-- Title: Control&#45;flow graph for function &#39;function_f3d8()&#39;. Pages: 1 -->
<svg width="373pt" height="276pt"
 viewBox="0.00 0.00 373.00 276.00" xmlns="http://www.w3.org/2000/svg" xmlns:xlink="http://www.w3.org/1999/xlink">
<g id="graph0" class="graph" transform="scale(1 1) rotate(0) translate(4 272)">
<title>Control&#45;flow graph for function &#39;function_f3d8()&#39;.</title>
<polygon fill="white" stroke="none" points="-4,4 -4,-272 369,-272 369,4 -4,4"/>
<text text-anchor="middle" x="182.5" y="-7.8" font-family="Times,serif" font-size="14.00">Control&#45;flow graph for function &#39;function_f3d8()&#39;.</text>
<!-- Node0x3fb54490 -->
<g id="node1" class="node"><title>Node0x3fb54490</title>
<polygon fill="none" stroke="black" points="153,-231.5 153,-267.5 212,-267.5 212,-231.5 153,-231.5"/>
<text text-anchor="start" x="161" y="-245.8" font-family="Times,serif" font-size="14.00">entry:</text>
</g>
<!-- Node0x3e4ebe60 -->
<g id="node2" class="node"><title>Node0x3e4ebe60</title>
<polygon fill="none" stroke="black" points="9,-96.5 9,-194.5 356,-194.5 356,-96.5 9,-96.5"/>
<text text-anchor="start" x="17" y="-179.3" font-family="Times,serif" font-size="14.00">0x3d8b0ce0:</text>
<text text-anchor="start" x="17" y="-164.3" font-family="Times,serif" font-size="14.00"> v1 = *(IntToPtrCastExpr&lt;ptr&gt;((g29 + 12)))</text>
<text text-anchor="start" x="17" y="-149.3" font-family="Times,serif" font-size="14.00"> g37 = v1</text>
<text text-anchor="start" x="17" y="-134.3" font-family="Times,serif" font-size="14.00"> g29 = 0</text>
<text text-anchor="start" x="17" y="-119.3" font-family="Times,serif" font-size="14.00"> *(IntToPtrCastExpr&lt;ptr&gt;((v1 + 84))) = g36</text>
<text text-anchor="start" x="17" y="-104.3" font-family="Times,serif" font-size="14.00"> *(IntToPtrCastExpr&lt;ptr&gt;((g37 + 80))) = g30</text>
</g>
<!-- Node0x3fb54490&#45;&gt;Node0x3e4ebe60 -->
<g id="edge1" class="edge"><title>Node0x3fb54490&#45;&gt;Node0x3e4ebe60</title>
<path fill="none" stroke="black" d="M182.5,-231.197C182.5,-223.688 182.5,-214.415 182.5,-204.789"/>
<polygon fill="black" stroke="black" points="186,-204.688 182.5,-194.688 179,-204.688 186,-204.688"/>
</g>
<!-- Node0x3fb56a00 -->
<g id="node3" class="node"><title>Node0x3fb56a00</title>
<polygon fill="none" stroke="black" points="155.5,-23.5 155.5,-59.5 209.5,-59.5 209.5,-23.5 155.5,-23.5"/>
<text text-anchor="start" x="163.5" y="-37.8" font-family="Times,serif" font-size="14.00">exit:</text>
</g>
<!-- Node0x3e4ebe60&#45;&gt;Node0x3fb56a00 -->
<g id="edge2" class="edge"><title>Node0x3e4ebe60&#45;&gt;Node0x3fb56a00</title>
<path fill="none" stroke="black" d="M182.5,-96.4868C182.5,-87.2893 182.5,-77.9618 182.5,-69.7064"/>
<polygon fill="black" stroke="black" points="186,-69.5725 182.5,-59.5725 179,-69.5725 186,-69.5725"/>
</g>
</g>
</svg>
